<?xml version="1.0" encoding="UTF-8" standalone="no"?>
<!DOCTYPE svg PUBLIC "-//W3C//DTD SVG 1.1//EN"
"http://www.w3.org/Graphics/SVG/1.1/DTD/svg11.dtd">
<svg viewBox="0 0 909 1286" version="1.1" xmlns="http://www.w3.org/2000/svg" xmlns:xlink="http://www.w3.org/1999/xlink">
<defs>
<clipPath id="c0_71"><path d="M55.2,201.5V150.2H201.6v51.3Z" /></clipPath>
<clipPath id="c1_71"><path d="M55.2,276.3V227.5H157.7v48.8Z" /></clipPath>
<clipPath id="c2_71"><path d="M55.2,326.9V278.1H237.8v48.8Z" /></clipPath>
<clipPath id="c3_71"><path d="M55.2,377.9V329.1H221.3v48.8Z" /></clipPath>
<clipPath id="c4_71"><path d="M55.2,432.9V379.7h136v53.2Z" /></clipPath>
<clipPath id="c5_71"><path d="M55.2,507.6V458.9H240.3v48.7Z" /></clipPath>
<clipPath id="c6_71"><path d="M55.2,562.6V509.5H237.8v53.1Z" /></clipPath>
<clipPath id="c7_71"><path d="M193.1,587.9V568.3H217v19.6Z" /></clipPath>
<clipPath id="c8_71"><path d="M55.2,642.9V589.8H226.7v53.1Z" /></clipPath>
<clipPath id="c9_71"><path d="M55.2,667.9V648.3H79.1v19.6Z" /></clipPath>
<clipPath id="c10_71"><path d="M75,722.9V669.7H185.5v53.2Z" /></clipPath>
<clipPath id="c11_71"><path d="M342.3,779V748.8H588V779Z" /></clipPath>
<clipPath id="c12_71"><path d="M623.1,779V748.8H741.5V779Z" /></clipPath>
<clipPath id="c13_71"><path d="M279.6,807.9V781h44.5v26.9Z" /></clipPath>
<clipPath id="c14_71"><path d="M359.1,807.9V781h46.3v26.9Z" /></clipPath>
<clipPath id="c15_71"><path d="M55.2,861.9V834.2H161.4v27.7Z" /></clipPath>
<clipPath id="c16_71"><path d="M55.2,893.8V863.5H207.6v30.3Z" /></clipPath>
<clipPath id="c17_71"><path d="M114.6,919.1V896.9h69.9v22.2Z" /></clipPath>
<clipPath id="c18_71"><path d="M55.2,969.3V920.5h70v48.8Z" /></clipPath>
<clipPath id="c19_71"><path d="M279.6,1001.6V971.4H644v30.2Z" /></clipPath>
<clipPath id="c20_71"><path d="M227.1,1076.7V1028H537.4v48.7Z" /></clipPath>
<clipPath id="c21_71"><path d="M55.2,1151.5v-48.8H359.3v48.8Z" /></clipPath>
<clipPath id="c22_71"><path d="M55.2,1179v-25.8H294.5V1179Z" /></clipPath>
<style type="text/css"><![CDATA[
.g0_71{
fill: #D9D9D9;
}
.g1_71{
fill: none;
stroke: #000000;
stroke-width: 0.7638889;
stroke-linecap: butt;
stroke-linejoin: miter;
}
.g2_71{
fill: none;
stroke: #000000;
stroke-width: 0.90426517;
stroke-linecap: butt;
stroke-linejoin: round;
}
.g3_71{
fill: none;
stroke: #000000;
stroke-width: 0.903761;
stroke-linecap: butt;
stroke-linejoin: round;
}
.g4_71{
fill: none;
stroke: #000000;
stroke-width: 0.9118546;
stroke-linecap: butt;
stroke-linejoin: round;
}
.g5_71{
fill: none;
stroke: #000000;
stroke-width: 0.90476984;
stroke-linecap: butt;
stroke-linejoin: round;
}
.g6_71{
fill: none;
stroke: #000000;
stroke-width: 0.90560526;
stroke-linecap: butt;
stroke-linejoin: round;
}
.g7_71{
fill: none;
stroke: #000000;
stroke-width: 0.9089803;
stroke-linecap: butt;
stroke-linejoin: round;
}
.g8_71{
fill: none;
stroke: #000000;
stroke-width: 0.90936005;
stroke-linecap: butt;
stroke-linejoin: round;
}
.g9_71{
fill: none;
stroke: #000000;
stroke-width: 0.9068974;
stroke-linecap: butt;
stroke-linejoin: round;
}
.g10_71{
fill: none;
stroke: #000000;
stroke-width: 0.8923283;
stroke-linecap: butt;
stroke-linejoin: round;
}
.g11_71{
fill: none;
stroke: #000000;
stroke-width: 0.7595017;
stroke-linecap: butt;
stroke-linejoin: round;
}
.g12_71{
fill: none;
stroke: #000000;
stroke-width: 0.91126543;
stroke-linecap: butt;
stroke-linejoin: round;
}
.g13_71{
}
]]></style>
</defs>
<image preserveAspectRatio="none" x="747" y="1196" width="96" height="59" xlink:href="img/1.png" />
<image preserveAspectRatio="none" x="336" y="41" width="259" height="51" xlink:href="img/2.png" />
<image preserveAspectRatio="none" x="342" y="50" width="247" height="27" xlink:href="img/3.png" />
<image preserveAspectRatio="none" x="341" y="45" width="239" height="42" xlink:href="img/4.png" />
<g fill="#FFFFFF" >
<use xlink:href="#f0_j" transform="matrix(11.5,0,0,11.5,355.1,70.1)" />
<use xlink:href="#f0_i" transform="matrix(11.5,0,0,11.5,364.3,70.1)" />
<use xlink:href="#f0_2n" transform="matrix(11.5,0,0,11.5,374.1,70.1)" />
<use xlink:href="#f0_t" transform="matrix(11.5,0,0,11.5,382.6,70.1)" />
<use xlink:href="#f0_oj" transform="matrix(11.5,0,0,11.5,391,70.1)" />
<use xlink:href="#f0_3e" transform="matrix(11.5,0,0,11.5,396.5,70.1)" />
<use xlink:href="#f0_1c" transform="matrix(11.5,0,0,11.5,406.1,70.1)" />
<use xlink:href="#f0_1c" transform="matrix(11.5,0,0,11.5,410.8,70.1)" />
<use xlink:href="#f0_oj" transform="matrix(11.5,0,0,11.5,415.6,70.1)" />
<use xlink:href="#f0_rz" transform="matrix(11.5,0,0,11.5,421.1,70.1)" />
<use xlink:href="#f0_rx" transform="matrix(11.5,0,0,11.5,429.9,70.1)" />
<use xlink:href="#f0_ry" transform="matrix(11.5,0,0,11.5,438.7,70.1)" />
<use xlink:href="#f0_s3" transform="matrix(11.5,0,0,11.5,447.5,70.1)" />
<use xlink:href="#f0_t" transform="matrix(11.5,0,0,11.5,460.4,70.1)" />
<use xlink:href="#f0_3e" transform="matrix(11.5,0,0,11.5,468.8,70.1)" />
<use xlink:href="#f0_5" transform="matrix(11.5,0,0,11.5,478.3,70.1)" />
<use xlink:href="#f0_1x" transform="matrix(11.5,0,0,11.5,489,70.1)" />
<use xlink:href="#f0_1c" transform="matrix(11.5,0,0,11.5,504.4,70.1)" />
<use xlink:href="#f0_1y" transform="matrix(11.5,0,0,11.5,509.1,70.1)" />
<use xlink:href="#f0_5" transform="matrix(11.5,0,0,11.5,520.8,70.1)" />
<use xlink:href="#f0_2t" transform="matrix(11.5,0,0,11.5,531.5,70.1)" />
<use xlink:href="#f0_1c" transform="matrix(11.5,0,0,11.5,540.2,70.1)" />
<use xlink:href="#f0_24" transform="matrix(11.5,0,0,11.5,545,70.1)" />
<use xlink:href="#f0_1y" transform="matrix(11.5,0,0,11.5,556.7,70.1)" />
</g>
<image preserveAspectRatio="none" x="554" y="45" width="36" height="42" xlink:href="img/5.png" />
<g fill="#FFFFFF" >
<use xlink:href="#f1_s" transform="matrix(11,0,0,11,770.3,1227.6)" />
<use xlink:href="#f1_j" transform="matrix(11,0,0,11,783.5,1227.6)" />
<use xlink:href="#f1_l" transform="matrix(11,0,0,11,794.1,1227.6)" />
<use xlink:href="#f1_r" transform="matrix(11,0,0,11,802.9,1227.6)" />
</g>
<path fill-rule="evenodd" d="M52.8,1193.5H856.9v-.8H52.8v.8Z" class="g0_71" />
<path d="M37.9,99.4L873,98.5" class="g1_71" />
<g fill="#000000" >
<use xlink:href="#f2_c" transform="matrix(12,0,0,12,55,144.1)" />
<use xlink:href="#f2_2k" transform="matrix(12,0,0,12,61.3,144.1)" />
<use xlink:href="#f2_m" transform="matrix(7.9,0,0,7.9,70.1,137.2)" />
<use xlink:href="#f2_f" transform="matrix(12,0,0,12,81.1,144.1)" />
<use xlink:href="#f2_n" transform="matrix(12,0,0,12,96.1,144.1)" />
<use xlink:href="#f2_2k" transform="matrix(12,0,0,12,105.3,144.1)" />
<use xlink:href="#f2_2l" transform="matrix(12,0,0,12,114.4,144.1)" />
<use xlink:href="#f2_f" transform="matrix(12,0,0,12,127.6,144.1)" />
<use xlink:href="#f2_2l" transform="matrix(12,0,0,12,143,144.1)" />
<use xlink:href="#f2_m" transform="matrix(7.9,0,0,7.9,151.5,137.2)" />
<use xlink:href="#f2_d" transform="matrix(12,0,0,12,157.7,144.1)" />
<use xlink:href="#f2_20" transform="matrix(12,0,0,12,168.7,144.1)" />
<use xlink:href="#f2_2k" transform="matrix(12,0,0,12,177.9,144.1)" />
<use xlink:href="#f3_4y" transform="matrix(12,0,0,12,191.5,144.1)" />
<use xlink:href="#f2_2k" transform="matrix(12,0,0,12,205.4,144.1)" />
<use xlink:href="#f2_m" transform="matrix(7.9,0,0,7.9,214.2,137.2)" />
<use xlink:href="#f2_20" transform="matrix(12,0,0,12,225.2,144.1)" />
<use xlink:href="#f2_2l" transform="matrix(12,0,0,12,234.7,144.1)" />
<use xlink:href="#f2_x" transform="matrix(12,0,0,12,247.9,144.1)" />
<use xlink:href="#f2_k" transform="matrix(12,0,0,12,262.9,144.1)" />
</g>
<path d="M58.2,178.9H78.1m19.9,0h98.2" class="g2_71" />
<g clip-path="url(#c0_71)">
<g fill="#000000" >
<use xlink:href="#f2_m" transform="matrix(7.3,0,0,7.1,109,163.4)" />
<use xlink:href="#f2_m" transform="matrix(7.3,0,0,7.1,188.5,163.4)" />
<use xlink:href="#f2_m" transform="matrix(7.3,0,0,7.1,148.8,189.8)" />
<use xlink:href="#f2_n" transform="matrix(12.6,0,0,12.2,133.2,171.7)" />
<use xlink:href="#f4_20" transform="matrix(12.6,0,0,12.2,59.4,171.7)" />
<use xlink:href="#f4_2l" transform="matrix(12.6,0,0,12.2,68.6,171.7)" />
<use xlink:href="#f4_2k" transform="matrix(12.6,0,0,12.2,100,171.7)" />
<use xlink:href="#f4_2k" transform="matrix(12.6,0,0,12.2,142.9,171.7)" />
<use xlink:href="#f4_2l" transform="matrix(12.6,0,0,12.2,150.9,171.7)" />
<use xlink:href="#f4_2l" transform="matrix(12.6,0,0,12.2,179,171.7)" />
<use xlink:href="#f4_20" transform="matrix(12.6,0,0,12.2,59.6,198)" />
<use xlink:href="#f4_2k" transform="matrix(12.6,0,0,12.2,68.7,198)" />
<use xlink:href="#f4_2k" transform="matrix(12.6,0,0,12.2,139.7,198)" />
<use xlink:href="#f5_f" transform="matrix(12.6,0,0,12.2,119.6,171.7)" />
<use xlink:href="#f5_f" transform="matrix(12.6,0,0,12.2,163.3,171.7)" />
<use xlink:href="#f5_x" transform="matrix(12.6,0,0,12.2,83.1,183.5)" />
</g>
</g>
<g fill="#000000" >
<use xlink:href="#f2_28" transform="matrix(12,0,0,12,55,221.5)" />
<use xlink:href="#f2_21" transform="matrix(12,0,0,12,59.8,221.5)" />
<use xlink:href="#f2_2g" transform="matrix(12,0,0,12,67.9,221.5)" />
<use xlink:href="#f2_2l" transform="matrix(12,0,0,12,78.1,221.5)" />
<use xlink:href="#f2_x" transform="matrix(12,0,0,12,91.3,221.5)" />
<use xlink:href="#f2_2i" transform="matrix(12,0,0,12,106.7,221.5)" />
<use xlink:href="#f2_2k" transform="matrix(12,0,0,12,115.8,221.5)" />
</g>
<path d="M58.2,253.4H77.8m56.4,0h19.2" class="g3_71" />
<g clip-path="url(#c1_71)">
<g fill="#000000" >
<use xlink:href="#f4_20" transform="matrix(12.6,0,0,12.4,59.3,246.1)" />
<use xlink:href="#f4_2l" transform="matrix(12.6,0,0,12.4,68.4,246.1)" />
<use xlink:href="#f4_20" transform="matrix(12.6,0,0,12.4,135.3,246.1)" />
<use xlink:href="#f4_2i" transform="matrix(12.6,0,0,12.4,144.4,246.1)" />
<use xlink:href="#f4_2i" transform="matrix(12.6,0,0,12.4,96.8,258.1)" />
<use xlink:href="#f4_2k" transform="matrix(12.6,0,0,12.4,123.5,258.1)" />
<use xlink:href="#f4_20" transform="matrix(12.6,0,0,12.4,59.5,272.8)" />
<use xlink:href="#f4_2k" transform="matrix(12.6,0,0,12.4,68.6,272.8)" />
<use xlink:href="#f4_20" transform="matrix(12.6,0,0,12.4,135.3,272.8)" />
<use xlink:href="#f4_2k" transform="matrix(12.6,0,0,12.4,144.3,272.8)" />
<use xlink:href="#f5_x" transform="matrix(12.6,0,0,12.4,82.7,258.1)" />
<use xlink:href="#f5_f" transform="matrix(12.6,0,0,12.4,108.7,258.1)" />
</g>
</g>
<path d="M123.2,304h19.5" class="g4_71" />
<g clip-path="url(#c2_71)">
<g fill="#000000" >
<use xlink:href="#f2_m" transform="matrix(7.4,0,0,7.1,228.3,300.4)" />
<use xlink:href="#f2_l" transform="matrix(12.7,0,0,12.4,160.2,308.7)" />
<use xlink:href="#f2_n" transform="matrix(12.7,0,0,12.4,184.9,308.7)" />
<use xlink:href="#f4_20" transform="matrix(12.7,0,0,12.4,124.3,296.8)" />
<use xlink:href="#f4_2i" transform="matrix(12.7,0,0,12.4,133.5,296.8)" />
<use xlink:href="#f4_2i" transform="matrix(12.7,0,0,12.4,85.5,308.7)" />
<use xlink:href="#f4_2k" transform="matrix(12.7,0,0,12.4,112.4,308.7)" />
<use xlink:href="#f4_2i" transform="matrix(12.7,0,0,12.4,193.4,308.7)" />
<use xlink:href="#f4_2i" transform="matrix(12.7,0,0,12.4,219.2,308.7)" />
<use xlink:href="#f4_20" transform="matrix(12.7,0,0,12.4,124.3,323.4)" />
<use xlink:href="#f4_2k" transform="matrix(12.7,0,0,12.4,133.5,323.4)" />
<use xlink:href="#f5_1s" transform="matrix(12.7,0,0,12.4,55.1,308.7)" />
<use xlink:href="#f5_f" transform="matrix(12.7,0,0,12.4,97.5,308.7)" />
<use xlink:href="#f5_x" transform="matrix(12.7,0,0,12.4,147.7,308.7)" />
<use xlink:href="#f5_f" transform="matrix(12.7,0,0,12.4,171.4,308.7)" />
<use xlink:href="#f5_f" transform="matrix(12.7,0,0,12.4,205.4,308.7)" />
</g>
</g>
<path d="M104.9,355h19.6" class="g5_71" />
<g clip-path="url(#c3_71)">
<g fill="#000000" >
<use xlink:href="#f2_m" transform="matrix(7.3,0,0,7.1,153,351.3)" />
<use xlink:href="#f2_m" transform="matrix(12.6,0,0,12.4,177.8,359.6)" />
<use xlink:href="#f2_l" transform="matrix(12.6,0,0,12.4,211.3,359.6)" />
<use xlink:href="#f4_20" transform="matrix(12.6,0,0,12.4,106,347.7)" />
<use xlink:href="#f4_2i" transform="matrix(12.6,0,0,12.4,115.3,347.7)" />
<use xlink:href="#f4_2k" transform="matrix(12.6,0,0,12.4,94,359.6)" />
<use xlink:href="#f4_2i" transform="matrix(12.6,0,0,12.4,143.9,359.6)" />
<use xlink:href="#f4_2i" transform="matrix(12.6,0,0,12.4,187,359.6)" />
<use xlink:href="#f4_20" transform="matrix(12.6,0,0,12.4,106,374.4)" />
<use xlink:href="#f4_2k" transform="matrix(12.6,0,0,12.4,115.3,374.4)" />
<use xlink:href="#f5_4g" transform="matrix(12.6,0,0,12.4,57.4,359.6)" />
<use xlink:href="#f5_x" transform="matrix(12.6,0,0,12.4,129.6,359.6)" />
<use xlink:href="#f5_f" transform="matrix(12.6,0,0,12.4,163.7,359.6)" />
<use xlink:href="#f5_f" transform="matrix(12.6,0,0,12.4,199.1,359.6)" />
</g>
</g>
<path d="M93.3,405.5h53.5m19.8,0h19.6" class="g6_71" />
<g clip-path="url(#c4_71)">
<g fill="#000000" >
<use xlink:href="#f2_m" transform="matrix(7.3,0,0,7.1,139,416.5)" />
<use xlink:href="#f2_c" transform="matrix(12.6,0,0,12.3,94.1,424.8)" />
<use xlink:href="#f2_l" transform="matrix(12.6,0,0,12.3,124.5,424.8)" />
<use xlink:href="#f2_d" transform="matrix(12.6,0,0,12.3,132.2,424.8)" />
<use xlink:href="#f4_20" transform="matrix(12.6,0,0,12.3,111.4,398.2)" />
<use xlink:href="#f4_2i" transform="matrix(12.6,0,0,12.3,120.5,398.2)" />
<use xlink:href="#f4_20" transform="matrix(12.6,0,0,12.3,167.8,398.2)" />
<use xlink:href="#f4_2k" transform="matrix(12.6,0,0,12.3,176.9,398.2)" />
<use xlink:href="#f4_2i" transform="matrix(12.6,0,0,12.3,100.4,424.8)" />
<use xlink:href="#f4_2k" transform="matrix(12.6,0,0,12.3,172.8,424.8)" />
<use xlink:href="#f5_4g" transform="matrix(12.6,0,0,12.3,57.4,410.1)" />
<use xlink:href="#f5_x" transform="matrix(12.6,0,0,12.3,151.8,410.1)" />
<use xlink:href="#f5_f" transform="matrix(12.6,0,0,12.3,112.5,424.8)" />
</g>
</g>
<g fill="#000000" >
<use xlink:href="#f2_19" transform="matrix(12,0,0,12,55,452.9)" />
<use xlink:href="#f2_2a" transform="matrix(12,0,0,12,61.3,452.9)" />
<use xlink:href="#f2_2g" transform="matrix(12,0,0,12,70.1,452.9)" />
<use xlink:href="#f2_21" transform="matrix(12,0,0,12,75.5,452.9)" />
<use xlink:href="#f2_23" transform="matrix(12,0,0,12,83.6,452.9)" />
<use xlink:href="#f2_2e" transform="matrix(12,0,0,12,92.8,452.9)" />
<use xlink:href="#f2_1x" transform="matrix(12,0,0,12,99,452.9)" />
<use xlink:href="#f2_2g" transform="matrix(12,0,0,12,106.7,452.9)" />
<use xlink:href="#f2_25" transform="matrix(12,0,0,12,112.2,452.9)" />
<use xlink:href="#f2_2a" transform="matrix(12,0,0,12,116.9,452.9)" />
<use xlink:href="#f2_23" transform="matrix(12,0,0,12,125.7,452.9)" />
<use xlink:href="#f2_1y" transform="matrix(12,0,0,12,140,452.9)" />
<use xlink:href="#f2_2b" transform="matrix(12,0,0,12,148.8,452.9)" />
<use xlink:href="#f2_2g" transform="matrix(12,0,0,12,158.3,452.9)" />
<use xlink:href="#f2_24" transform="matrix(12,0,0,12,163.8,452.9)" />
<use xlink:href="#f2_2f" transform="matrix(12,0,0,12,177.4,452.9)" />
<use xlink:href="#f2_25" transform="matrix(12,0,0,12,184.7,452.9)" />
<use xlink:href="#f2_20" transform="matrix(12,0,0,12,189.1,452.9)" />
<use xlink:href="#f2_21" transform="matrix(12,0,0,12,198.2,452.9)" />
<use xlink:href="#f2_2f" transform="matrix(12,0,0,12,206.3,452.9)" />
</g>
<path d="M106.8,484.8H140" class="g7_71" />
<g clip-path="url(#c5_71)">
<g fill="#000000" >
<use xlink:href="#f2_l" transform="matrix(12.7,0,0,12.4,118.9,477.5)" />
<use xlink:href="#f2_28" transform="matrix(12.7,0,0,12.4,159.3,489.4)" />
<use xlink:href="#f2_2b" transform="matrix(12.7,0,0,12.4,164.1,489.4)" />
<use xlink:href="#f2_23" transform="matrix(12.7,0,0,12.4,173.3,489.4)" />
<use xlink:href="#f2_2o" transform="matrix(12.7,0,0,12.4,186.1,489.4)" />
<use xlink:href="#f2_2o" transform="matrix(12.7,0,0,12.4,205.9,489.4)" />
<use xlink:href="#f2_l" transform="matrix(12.7,0,0,12.4,131.7,504.1)" />
<use xlink:href="#f4_2k" transform="matrix(12.7,0,0,12.4,194.3,489.4)" />
<use xlink:href="#f4_13" transform="matrix(12.7,0,0,12.4,223.6,489.4)" />
<use xlink:href="#f4_2i" transform="matrix(12.7,0,0,12.4,107.7,504.1)" />
<use xlink:href="#f5_4g" transform="matrix(12.7,0,0,12.4,57.4,489.4)" />
<use xlink:href="#f5_h" transform="matrix(12.7,0,0,12.4,92.8,489.4)" />
<use xlink:href="#f5_x" transform="matrix(12.7,0,0,12.4,145,489.4)" />
<use xlink:href="#f5_f" transform="matrix(12.7,0,0,12.4,213.2,489.4)" />
<use xlink:href="#f5_f" transform="matrix(12.7,0,0,12.4,119.7,504.1)" />
</g>
</g>
<path d="M93.2,535.3h39.3" class="g4_71" />
<g clip-path="url(#c6_71)">
<g fill="#000000" >
<use xlink:href="#f2_28" transform="matrix(12.7,0,0,12.3,151.8,539.9)" />
<use xlink:href="#f2_2b" transform="matrix(12.7,0,0,12.3,156.6,539.9)" />
<use xlink:href="#f2_23" transform="matrix(12.7,0,0,12.3,165.8,539.9)" />
<use xlink:href="#f2_2o" transform="matrix(12.7,0,0,12.3,178.6,539.9)" />
<use xlink:href="#f2_2o" transform="matrix(12.7,0,0,12.3,198.4,539.9)" />
<use xlink:href="#f4_2k" transform="matrix(12.7,0,0,12.3,114.5,528)" />
<use xlink:href="#f4_2k" transform="matrix(12.7,0,0,12.3,186.8,539.9)" />
<use xlink:href="#f4_13" transform="matrix(12.7,0,0,12.3,220,539.9)" />
<use xlink:href="#f4_2k" transform="matrix(12.7,0,0,12.3,95.2,554.6)" />
<use xlink:href="#f4_2l" transform="matrix(12.7,0,0,12.3,123,554.6)" />
<use xlink:href="#f5_h" transform="matrix(12.7,0,0,12.3,103.1,528)" />
<use xlink:href="#f5_4g" transform="matrix(12.7,0,0,12.3,57.4,539.9)" />
<use xlink:href="#f5_x" transform="matrix(12.7,0,0,12.3,137.5,539.9)" />
<use xlink:href="#f5_f" transform="matrix(12.7,0,0,12.3,205.8,539.9)" />
<use xlink:href="#f5_f" transform="matrix(12.7,0,0,12.3,107.2,554.6)" />
</g>
</g>
<g fill="#000000" >
<use xlink:href="#f2_1n" transform="matrix(12,0,0,12,55,583.2)" />
<use xlink:href="#f2_24" transform="matrix(12,0,0,12,72.3,583.2)" />
<use xlink:href="#f2_21" transform="matrix(12,0,0,12,81.1,583.2)" />
<use xlink:href="#f2_2a" transform="matrix(12,0,0,12,89.5,583.2)" />
<use xlink:href="#f2_2k" transform="matrix(12,0,0,12,103.4,583.2)" />
<use xlink:href="#f2_x" transform="matrix(12,0,0,12,116.9,583.2)" />
<use xlink:href="#f2_l" transform="matrix(12,0,0,12,132,583.2)" />
<use xlink:href="#f2_g" transform="matrix(12,0,0,12,141.1,583.2)" />
<use xlink:href="#f2_2l" transform="matrix(12,0,0,12,150.6,583.2)" />
<use xlink:href="#f2_x" transform="matrix(12,0,0,12,163.8,583.2)" />
<use xlink:href="#f2_k" transform="matrix(12,0,0,12,178.8,583.2)" />
</g>
<g clip-path="url(#c7_71)">
<g fill="#000000" >
<use xlink:href="#f5_4g" transform="matrix(12.4,0,0,12.3,195.3,583.4)" />
</g>
</g>
<g fill="#000000" >
<use xlink:href="#f2_13" transform="matrix(12,0,0,12,220.8,583.2)" />
<use xlink:href="#f2_x" transform="matrix(12,0,0,12,237.7,583.2)" />
<use xlink:href="#f3_4y" transform="matrix(12,0,0,12,252.7,583.2)" />
<use xlink:href="#f2_l" transform="matrix(12,0,0,12,261.9,583.2)" />
</g>
<path d="M93,615.6h39" class="g8_71" />
<g clip-path="url(#c8_71)">
<g fill="#000000" >
<use xlink:href="#f2_28" transform="matrix(12.7,0,0,12.3,151.2,620.2)" />
<use xlink:href="#f2_2b" transform="matrix(12.7,0,0,12.3,156.1,620.2)" />
<use xlink:href="#f2_23" transform="matrix(12.7,0,0,12.3,165.2,620.2)" />
<use xlink:href="#f2_2o" transform="matrix(12.7,0,0,12.3,177.9,620.2)" />
<use xlink:href="#f2_2o" transform="matrix(12.7,0,0,12.3,197.7,620.2)" />
<use xlink:href="#f2_l" transform="matrix(12.7,0,0,12.3,215,620.2)" />
<use xlink:href="#f4_2k" transform="matrix(12.7,0,0,12.3,114.2,608.3)" />
<use xlink:href="#f4_2k" transform="matrix(12.7,0,0,12.3,186.1,620.2)" />
<use xlink:href="#f4_2k" transform="matrix(12.7,0,0,12.3,95,634.9)" />
<use xlink:href="#f4_2l" transform="matrix(12.7,0,0,12.3,122.7,634.9)" />
<use xlink:href="#f5_h" transform="matrix(12.7,0,0,12.3,102.8,608.3)" />
<use xlink:href="#f5_4g" transform="matrix(12.7,0,0,12.3,57.4,620.2)" />
<use xlink:href="#f5_x" transform="matrix(12.7,0,0,12.3,137.1,620.2)" />
<use xlink:href="#f5_h" transform="matrix(12.7,0,0,12.3,205,620.2)" />
<use xlink:href="#f5_f" transform="matrix(12.7,0,0,12.3,106.9,634.9)" />
</g>
</g>
<g clip-path="url(#c9_71)">
<g fill="#000000" >
<use xlink:href="#f5_4g" transform="matrix(12.4,0,0,12.3,57.4,663.4)" />
</g>
</g>
<g fill="#000000" >
<use xlink:href="#f2_2l" transform="matrix(12,0,0,12,82.9,663.1)" />
<use xlink:href="#f2_x" transform="matrix(12,0,0,12,96.1,663.1)" />
<use xlink:href="#f2_c" transform="matrix(12,0,0,12,111.1,663.1)" />
<use xlink:href="#f2_2k" transform="matrix(12,0,0,12,117.3,663.1)" />
<use xlink:href="#f2_f" transform="matrix(12,0,0,12,130.9,663.1)" />
<use xlink:href="#f2_2l" transform="matrix(12,0,0,12,146.2,663.1)" />
<use xlink:href="#f2_d" transform="matrix(12,0,0,12,154.7,663.1)" />
<use xlink:href="#f2_28" transform="matrix(12,0,0,12,161.3,663.1)" />
<use xlink:href="#f2_2b" transform="matrix(12,0,0,12,165.7,663.1)" />
<use xlink:href="#f2_23" transform="matrix(12,0,0,12,175.2,663.1)" />
<use xlink:href="#f2_2o" transform="matrix(12,0,0,12,189.1,663.1)" />
<use xlink:href="#f2_2k" transform="matrix(12,0,0,12,193.1,663.1)" />
<use xlink:href="#f2_2o" transform="matrix(12,0,0,12,201.9,663.1)" />
<use xlink:href="#f2_2b" transform="matrix(12,0,0,12,55,699.8)" />
<use xlink:href="#f2_2e" transform="matrix(12,0,0,12,64.6,699.8)" />
</g>
<path d="M107.2,695.5H181" class="g9_71" />
<g clip-path="url(#c10_71)">
<g fill="#000000" >
<use xlink:href="#f2_28" transform="matrix(12.6,0,0,12.3,125.1,688.3)" />
<use xlink:href="#f2_2b" transform="matrix(12.6,0,0,12.3,129.9,688.3)" />
<use xlink:href="#f2_23" transform="matrix(12.6,0,0,12.3,139.1,688.3)" />
<use xlink:href="#f2_2o" transform="matrix(12.6,0,0,12.3,151.8,688.3)" />
<use xlink:href="#f2_2o" transform="matrix(12.6,0,0,12.3,171.5,688.3)" />
<use xlink:href="#f2_l" transform="matrix(12.6,0,0,12.3,106.3,714.8)" />
<use xlink:href="#f2_28" transform="matrix(12.6,0,0,12.3,130.8,714.8)" />
<use xlink:href="#f2_2b" transform="matrix(12.6,0,0,12.3,135.7,714.8)" />
<use xlink:href="#f2_23" transform="matrix(12.6,0,0,12.3,144.8,714.8)" />
<use xlink:href="#f2_2o" transform="matrix(12.6,0,0,12.3,157.5,714.8)" />
<use xlink:href="#f2_2o" transform="matrix(12.6,0,0,12.3,177.2,714.8)" />
<use xlink:href="#f4_2k" transform="matrix(12.6,0,0,12.3,114.9,688.3)" />
<use xlink:href="#f4_2k" transform="matrix(12.6,0,0,12.3,160,688.3)" />
<use xlink:href="#f4_2l" transform="matrix(12.6,0,0,12.3,79.4,700.2)" />
<use xlink:href="#f4_2k" transform="matrix(12.6,0,0,12.3,165.7,714.8)" />
<use xlink:href="#f5_x" transform="matrix(12.6,0,0,12.3,92.5,700.2)" />
<use xlink:href="#f5_h" transform="matrix(12.6,0,0,12.3,117.4,714.8)" />
</g>
</g>
<g fill="#000000" >
<use xlink:href="#f6_l" transform="matrix(12,0,0,12,55,771.3)" />
<use xlink:href="#f6_r" transform="matrix(12,0,0,12,64.2,771.3)" />
<use xlink:href="#f6_i" transform="matrix(12,0,0,12,73.4,771.3)" />
<use xlink:href="#f2_16" transform="matrix(12,0,0,12,82.9,771.3)" />
<use xlink:href="#f2_25" transform="matrix(12,0,0,12,93.2,771.3)" />
<use xlink:href="#f2_2a" transform="matrix(12,0,0,12,97.9,771.3)" />
<use xlink:href="#f2_20" transform="matrix(12,0,0,12,106.7,771.3)" />
<use xlink:href="#f2_2g" transform="matrix(12,0,0,12,120.6,771.3)" />
<use xlink:href="#f2_24" transform="matrix(12,0,0,12,126.1,771.3)" />
<use xlink:href="#f2_21" transform="matrix(12,0,0,12,134.9,771.3)" />
<use xlink:href="#f2_1x" transform="matrix(12,0,0,12,147.7,771.3)" />
<use xlink:href="#f2_2a" transform="matrix(12,0,0,12,155.8,771.3)" />
<use xlink:href="#f2_23" transform="matrix(12,0,0,12,164.6,771.3)" />
<use xlink:href="#f2_28" transform="matrix(12,0,0,12,174.1,771.3)" />
<use xlink:href="#f2_21" transform="matrix(12,0,0,12,178.9,771.3)" />
<use xlink:href="#f2_1y" transform="matrix(12,0,0,12,191.7,771.3)" />
<use xlink:href="#f2_21" transform="matrix(12,0,0,12,200.9,771.3)" />
<use xlink:href="#f2_2g" transform="matrix(12,0,0,12,208.9,771.3)" />
<use xlink:href="#f2_2j" transform="matrix(12,0,0,12,214.4,771.3)" />
<use xlink:href="#f2_21" transform="matrix(12,0,0,12,227.6,771.3)" />
<use xlink:href="#f2_21" transform="matrix(12,0,0,12,235.7,771.3)" />
<use xlink:href="#f2_2a" transform="matrix(12,0,0,12,243.7,771.3)" />
<use xlink:href="#f2_2g" transform="matrix(12,0,0,12,257.3,771.3)" />
<use xlink:href="#f2_24" transform="matrix(12,0,0,12,262.8,771.3)" />
<use xlink:href="#f2_21" transform="matrix(12,0,0,12,271.6,771.3)" />
<use xlink:href="#f2_2i" transform="matrix(12,0,0,12,284.4,771.3)" />
<use xlink:href="#f2_21" transform="matrix(12,0,0,12,293.2,771.3)" />
<use xlink:href="#f2_1z" transform="matrix(12,0,0,12,301.3,771.3)" />
<use xlink:href="#f2_2g" transform="matrix(12,0,0,12,309.3,771.3)" />
<use xlink:href="#f2_2b" transform="matrix(12,0,0,12,314.8,771.3)" />
<use xlink:href="#f2_2e" transform="matrix(12,0,0,12,324.3,771.3)" />
<use xlink:href="#f2_2f" transform="matrix(12,0,0,12,330.5,771.3)" />
</g>
<g clip-path="url(#c11_71)">
<g fill="#000000" >
<use xlink:href="#f3_5z" transform="matrix(12.9,0,0,12.3,577.8,766)" />
<use xlink:href="#f3_5z" transform="matrix(12.9,0,0,12.3,516.1,767.5)" />
<use xlink:href="#f3_5z" transform="matrix(12.9,0,0,12.3,542.4,767.5)" />
<use xlink:href="#f2_1x" transform="matrix(12.9,0,0,12.3,386.8,771.5)" />
<use xlink:href="#f2_2a" transform="matrix(12.9,0,0,12.3,394.8,771.5)" />
<use xlink:href="#f2_20" transform="matrix(12.9,0,0,12.3,403.9,771.5)" />
<use xlink:href="#f2_25" transform="matrix(12.9,0,0,12.3,459,771.5)" />
<use xlink:href="#f2_22" transform="matrix(12.9,0,0,12.3,464.2,771.5)" />
<use xlink:href="#f2_m" transform="matrix(12.9,0,0,12.3,506,771.5)" />
<use xlink:href="#f2_n" transform="matrix(12.9,0,0,12.3,565.7,771.5)" />
<use xlink:href="#f4_1x" transform="matrix(12.9,0,0,12.3,345,771.5)" />
<use xlink:href="#f4_1y" transform="matrix(12.9,0,0,12.3,372,771.5)" />
<use xlink:href="#f4_1x" transform="matrix(12.9,0,0,12.3,417.8,771.5)" />
<use xlink:href="#f4_1y" transform="matrix(12.9,0,0,12.3,444.5,771.5)" />
<use xlink:href="#f4_1x" transform="matrix(12.9,0,0,12.3,477.1,771.5)" />
<use xlink:href="#f4_25" transform="matrix(12.9,0,0,12.3,514.7,771.5)" />
<use xlink:href="#f4_26" transform="matrix(12.9,0,0,12.3,542.8,771.5)" />
<use xlink:href="#f4_27" transform="matrix(12.9,0,0,12.3,574.4,771.5)" />
<use xlink:href="#f5_f" transform="matrix(12.9,0,0,12.3,358.6,771.5)" />
<use xlink:href="#f5_h" transform="matrix(12.9,0,0,12.3,431.4,771.5)" />
<use xlink:href="#f5_x" transform="matrix(12.9,0,0,12.3,491.5,771.5)" />
<use xlink:href="#f5_h" transform="matrix(12.9,0,0,12.3,525.8,771.5)" />
<use xlink:href="#f5_f" transform="matrix(12.9,0,0,12.3,552.3,771.5)" />
</g>
</g>
<image preserveAspectRatio="none" x="375" y="734" width="163" height="32" xlink:href="img/6.png" />
<image preserveAspectRatio="none" x="347" y="739" width="225" height="32" xlink:href="img/7.png" />
<g fill="#000000" >
<use xlink:href="#f2_1x" transform="matrix(12,0,0,12,592.4,771.3)" />
<use xlink:href="#f2_2a" transform="matrix(12,0,0,12,600.4,771.3)" />
<use xlink:href="#f2_20" transform="matrix(12,0,0,12,609.2,771.3)" />
</g>
<g clip-path="url(#c12_71)">
<g fill="#000000" >
<use xlink:href="#f3_5z" transform="matrix(12.9,0,0,12.3,727.2,766)" />
<use xlink:href="#f3_5z" transform="matrix(12.9,0,0,12.3,664,767.5)" />
<use xlink:href="#f3_5z" transform="matrix(12.9,0,0,12.3,690.7,767.5)" />
<use xlink:href="#f2_n" transform="matrix(12.9,0,0,12.3,654.4,771.5)" />
<use xlink:href="#f2_m" transform="matrix(12.9,0,0,12.3,714.5,771.5)" />
<use xlink:href="#f2_g" transform="matrix(12.9,0,0,12.3,733.4,771.5)" />
<use xlink:href="#f4_1y" transform="matrix(12.9,0,0,12.3,625.3,771.5)" />
<use xlink:href="#f4_25" transform="matrix(12.9,0,0,12.3,662.7,771.5)" />
<use xlink:href="#f4_26" transform="matrix(12.9,0,0,12.3,691.3,771.5)" />
<use xlink:href="#f4_27" transform="matrix(12.9,0,0,12.3,723.9,771.5)" />
<use xlink:href="#f5_x" transform="matrix(12.9,0,0,12.3,640.5,771.5)" />
<use xlink:href="#f5_f" transform="matrix(12.9,0,0,12.3,673.8,771.5)" />
<use xlink:href="#f5_h" transform="matrix(12.9,0,0,12.3,700.7,771.5)" />
</g>
</g>
<image preserveAspectRatio="none" x="628" y="734" width="73" height="32" xlink:href="img/8.png" />
<g fill="#000000" >
<use xlink:href="#f2_1x" transform="matrix(12,0,0,12,746.1,771.3)" />
<use xlink:href="#f2_2a" transform="matrix(12,0,0,12,754.2,771.3)" />
<use xlink:href="#f2_20" transform="matrix(12,0,0,12,763,771.3)" />
<use xlink:href="#f2_24" transform="matrix(12,0,0,12,776.9,771.3)" />
<use xlink:href="#f2_21" transform="matrix(12,0,0,12,786,771.3)" />
<use xlink:href="#f2_2a" transform="matrix(12,0,0,12,794.1,771.3)" />
<use xlink:href="#f2_1z" transform="matrix(12,0,0,12,802.9,771.3)" />
<use xlink:href="#f2_21" transform="matrix(12,0,0,12,811.3,771.3)" />
<use xlink:href="#f2_22" transform="matrix(12,0,0,12,824.5,771.3)" />
<use xlink:href="#f2_25" transform="matrix(12,0,0,12,830.4,771.3)" />
<use xlink:href="#f2_2a" transform="matrix(12,0,0,12,835.1,771.3)" />
<use xlink:href="#f2_20" transform="matrix(12,0,0,12,844.3,771.3)" />
<use xlink:href="#f2_1x" transform="matrix(12,0,0,12,55,803.2)" />
<use xlink:href="#f2_2i" transform="matrix(12,0,0,12,67.9,803.2)" />
<use xlink:href="#f2_21" transform="matrix(12,0,0,12,76.7,803.2)" />
<use xlink:href="#f2_1z" transform="matrix(12,0,0,12,84.7,803.2)" />
<use xlink:href="#f2_2g" transform="matrix(12,0,0,12,92.8,803.2)" />
<use xlink:href="#f2_2b" transform="matrix(12,0,0,12,98.3,803.2)" />
<use xlink:href="#f2_2e" transform="matrix(12,0,0,12,107.8,803.2)" />
<use xlink:href="#f2_2c" transform="matrix(12,0,0,12,118.4,803.2)" />
<use xlink:href="#f2_21" transform="matrix(12,0,0,12,127.6,803.2)" />
<use xlink:href="#f2_2e" transform="matrix(12,0,0,12,135.6,803.2)" />
<use xlink:href="#f2_2c" transform="matrix(12,0,0,12,141.8,803.2)" />
<use xlink:href="#f2_21" transform="matrix(12,0,0,12,151,803.2)" />
<use xlink:href="#f2_2a" transform="matrix(12,0,0,12,159.1,803.2)" />
<use xlink:href="#f2_20" transform="matrix(12,0,0,12,167.9,803.2)" />
<use xlink:href="#f2_25" transform="matrix(12,0,0,12,177.4,803.2)" />
<use xlink:href="#f2_1z" transform="matrix(12,0,0,12,181.8,803.2)" />
<use xlink:href="#f2_2h" transform="matrix(12,0,0,12,189.9,803.2)" />
<use xlink:href="#f2_28" transform="matrix(12,0,0,12,199.4,803.2)" />
<use xlink:href="#f2_1x" transform="matrix(12,0,0,12,204.1,803.2)" />
<use xlink:href="#f2_2e" transform="matrix(12,0,0,12,212.2,803.2)" />
<use xlink:href="#f2_2g" transform="matrix(12,0,0,12,223.2,803.2)" />
<use xlink:href="#f2_2b" transform="matrix(12,0,0,12,228.3,803.2)" />
<use xlink:href="#f2_1y" transform="matrix(12,0,0,12,242.6,803.2)" />
<use xlink:href="#f2_2b" transform="matrix(12,0,0,12,251.4,803.2)" />
<use xlink:href="#f2_2g" transform="matrix(12,0,0,12,260.5,803.2)" />
<use xlink:href="#f2_24" transform="matrix(12,0,0,12,266,803.2)" />
</g>
<g clip-path="url(#c13_71)">
<g fill="#000000" >
<use xlink:href="#f4_1x" transform="matrix(12.7,0,0,12.2,282.4,803.6)" />
<use xlink:href="#f4_1y" transform="matrix(12.7,0,0,12.2,309,803.6)" />
<use xlink:href="#f5_f" transform="matrix(12.7,0,0,12.2,295.7,803.6)" />
</g>
</g>
<image preserveAspectRatio="none" x="312" y="766" width="72" height="33" xlink:href="img/9.png" />
<image preserveAspectRatio="none" x="284" y="771" width="72" height="32" xlink:href="img/10.png" />
<g fill="#000000" >
<use xlink:href="#f2_1x" transform="matrix(12,0,0,12,328.3,803.2)" />
<use xlink:href="#f2_2a" transform="matrix(12,0,0,12,336.3,803.2)" />
<use xlink:href="#f2_20" transform="matrix(12,0,0,12,345.1,803.2)" />
</g>
<g clip-path="url(#c14_71)">
<g fill="#000000" >
<use xlink:href="#f2_i" transform="matrix(12.8,0,0,12.2,398.4,803.6)" />
<use xlink:href="#f4_1x" transform="matrix(12.8,0,0,12.2,361.9,803.6)" />
<use xlink:href="#f4_1y" transform="matrix(12.8,0,0,12.2,388.5,803.6)" />
<use xlink:href="#f5_h" transform="matrix(12.8,0,0,12.2,375.4,803.6)" />
</g>
</g>
<image preserveAspectRatio="none" x="391" y="766" width="73" height="33" xlink:href="img/11.png" />
<image preserveAspectRatio="none" x="364" y="771" width="72" height="32" xlink:href="img/12.png" />
<g fill="#000000" >
<use xlink:href="#f6_1j" transform="matrix(12,0,0,12,55,828.1)" />
<use xlink:href="#f6_2b" transform="matrix(12,0,0,12,65.3,828.1)" />
<use xlink:href="#f6_28" transform="matrix(12,0,0,12,74.5,828.1)" />
<use xlink:href="#f6_2h" transform="matrix(12,0,0,12,79.2,828.1)" />
<use xlink:href="#f6_2g" transform="matrix(12,0,0,12,89.5,828.1)" />
<use xlink:href="#f6_25" transform="matrix(12,0,0,12,95.7,828.1)" />
<use xlink:href="#f6_2b" transform="matrix(12,0,0,12,100.8,828.1)" />
<use xlink:href="#f6_2a" transform="matrix(12,0,0,12,109.9,828.1)" />
<use xlink:href="#f6_u" transform="matrix(12,0,0,12,120.2,828.1)" />
</g>
<g clip-path="url(#c15_71)">
<g fill="#000000" >
<use xlink:href="#f3_5z" transform="matrix(13,0,0,12.5,150.6,851.8)" />
<use xlink:href="#f3_5z" transform="matrix(13,0,0,12.5,123.8,853.3)" />
<use xlink:href="#f2_p" transform="matrix(13,0,0,12.5,113.9,857.4)" />
<use xlink:href="#f4_1x" transform="matrix(13,0,0,12.5,57.9,857.4)" />
<use xlink:href="#f4_1y" transform="matrix(13,0,0,12.5,84.9,857.4)" />
<use xlink:href="#f4_25" transform="matrix(13,0,0,12.5,122.4,857.4)" />
<use xlink:href="#f4_27" transform="matrix(13,0,0,12.5,147.4,857.4)" />
<use xlink:href="#f5_f" transform="matrix(13,0,0,12.5,71.5,857.4)" />
<use xlink:href="#f5_x" transform="matrix(13,0,0,12.5,100,857.4)" />
<use xlink:href="#f5_f" transform="matrix(13,0,0,12.5,133.4,857.4)" />
</g>
</g>
<image preserveAspectRatio="none" x="88" y="819" width="73" height="33" xlink:href="img/13.png" />
<image preserveAspectRatio="none" x="60" y="824" width="73" height="33" xlink:href="img/14.png" />
<g clip-path="url(#c16_71)">
<g fill="#000000" >
<use xlink:href="#f3_5z" transform="matrix(12.9,0,0,12.3,198,880.8)" />
<use xlink:href="#f3_5z" transform="matrix(12.9,0,0,12.3,126,882.3)" />
<use xlink:href="#f3_5z" transform="matrix(12.9,0,0,12.3,162,882.3)" />
<use xlink:href="#f2_m" transform="matrix(12.9,0,0,12.3,149.6,886.3)" />
<use xlink:href="#f2_p" transform="matrix(12.9,0,0,12.3,185.6,886.3)" />
<use xlink:href="#f4_1x" transform="matrix(12.9,0,0,12.3,58,886.3)" />
<use xlink:href="#f4_1y" transform="matrix(12.9,0,0,12.3,84.9,886.3)" />
<use xlink:href="#f4_25" transform="matrix(12.9,0,0,12.3,124.7,886.3)" />
<use xlink:href="#f4_26" transform="matrix(12.9,0,0,12.3,162.5,886.3)" />
<use xlink:href="#f4_27" transform="matrix(12.9,0,0,12.3,194.7,886.3)" />
<use xlink:href="#f5_h" transform="matrix(12.9,0,0,12.3,71.7,886.3)" />
<use xlink:href="#f5_x" transform="matrix(12.9,0,0,12.3,100.1,886.3)" />
<use xlink:href="#f5_h" transform="matrix(12.9,0,0,12.3,114.6,886.3)" />
<use xlink:href="#f5_h" transform="matrix(12.9,0,0,12.3,135.7,886.3)" />
<use xlink:href="#f5_f" transform="matrix(12.9,0,0,12.3,172,886.3)" />
</g>
</g>
<image preserveAspectRatio="none" x="88" y="849" width="73" height="32" xlink:href="img/15.png" />
<image preserveAspectRatio="none" x="60" y="853" width="74" height="33" xlink:href="img/16.png" />
<g fill="#000000" >
<use xlink:href="#f2_17" transform="matrix(12,0,0,12,55,914.4)" />
<use xlink:href="#f2_21" transform="matrix(12,0,0,12,68.3,914.4)" />
<use xlink:href="#f2_2g" transform="matrix(12,0,0,12,76.3,914.4)" />
<use xlink:href="#f2_2g" transform="matrix(12,0,0,12,81.4,914.4)" />
<use xlink:href="#f2_25" transform="matrix(12,0,0,12,86.9,914.4)" />
<use xlink:href="#f2_2a" transform="matrix(12,0,0,12,91.7,914.4)" />
<use xlink:href="#f2_23" transform="matrix(12,0,0,12,100.5,914.4)" />
</g>
<g clip-path="url(#c17_71)">
<g fill="#000000" >
<use xlink:href="#f2_1z" transform="matrix(12.9,0,0,12,117.1,914.7)" />
<use xlink:href="#f2_2b" transform="matrix(12.9,0,0,12,125.1,914.7)" />
<use xlink:href="#f2_2f" transform="matrix(12.9,0,0,12,134.3,914.7)" />
<use xlink:href="#f2_k" transform="matrix(12.9,0,0,12,171.1,914.7)" />
<use xlink:href="#f5_2d" transform="matrix(12.9,0,0,12,143.3,914.7)" />
<use xlink:href="#f5_x" transform="matrix(12.9,0,0,12,156.9,914.7)" />
</g>
</g>
<path d="M108.1,946.4h11.7" class="g10_71" />
<g clip-path="url(#c18_71)">
<g fill="#000000" >
<use xlink:href="#f2_m" transform="matrix(12.5,0,0,12.4,109.7,965.8)" />
<use xlink:href="#f5_2c" transform="matrix(12.5,0,0,12.4,109.2,939.1)" />
<use xlink:href="#f5_4g" transform="matrix(12.5,0,0,12.4,57.4,951.1)" />
<use xlink:href="#f5_2d" transform="matrix(12.5,0,0,12.4,79.6,951.1)" />
<use xlink:href="#f5_x" transform="matrix(12.5,0,0,12.4,93.2,951.1)" />
</g>
</g>
<g fill="#000000" >
<use xlink:href="#f2_1x" transform="matrix(12,0,0,12,55,993.9)" />
<use xlink:href="#f2_2i" transform="matrix(12,0,0,12,67.9,993.9)" />
<use xlink:href="#f2_21" transform="matrix(12,0,0,12,76.7,993.9)" />
<use xlink:href="#f2_1z" transform="matrix(12,0,0,12,84.7,993.9)" />
<use xlink:href="#f2_2g" transform="matrix(12,0,0,12,92.8,993.9)" />
<use xlink:href="#f2_2b" transform="matrix(12,0,0,12,98.3,993.9)" />
<use xlink:href="#f2_2e" transform="matrix(12,0,0,12,107.8,993.9)" />
<use xlink:href="#f2_2c" transform="matrix(12,0,0,12,118.4,993.9)" />
<use xlink:href="#f2_21" transform="matrix(12,0,0,12,127.6,993.9)" />
<use xlink:href="#f2_2e" transform="matrix(12,0,0,12,135.6,993.9)" />
<use xlink:href="#f2_2c" transform="matrix(12,0,0,12,141.9,993.9)" />
<use xlink:href="#f2_21" transform="matrix(12,0,0,12,151,993.9)" />
<use xlink:href="#f2_2a" transform="matrix(12,0,0,12,159.1,993.9)" />
<use xlink:href="#f2_20" transform="matrix(12,0,0,12,167.9,993.9)" />
<use xlink:href="#f2_25" transform="matrix(12,0,0,12,177.4,993.9)" />
<use xlink:href="#f2_1z" transform="matrix(12,0,0,12,181.8,993.9)" />
<use xlink:href="#f2_2h" transform="matrix(12,0,0,12,189.9,993.9)" />
<use xlink:href="#f2_28" transform="matrix(12,0,0,12,199.4,993.9)" />
<use xlink:href="#f2_1x" transform="matrix(12,0,0,12,204.2,993.9)" />
<use xlink:href="#f2_2e" transform="matrix(12,0,0,12,212.2,993.9)" />
<use xlink:href="#f2_2g" transform="matrix(12,0,0,12,223.2,993.9)" />
<use xlink:href="#f2_2b" transform="matrix(12,0,0,12,228.3,993.9)" />
<use xlink:href="#f2_1y" transform="matrix(12,0,0,12,242.6,993.9)" />
<use xlink:href="#f2_2b" transform="matrix(12,0,0,12,251.4,993.9)" />
<use xlink:href="#f2_2g" transform="matrix(12,0,0,12,260.6,993.9)" />
<use xlink:href="#f2_24" transform="matrix(12,0,0,12,266,993.9)" />
</g>
<g clip-path="url(#c19_71)">
<g fill="#000000" >
<use xlink:href="#f3_5z" transform="matrix(13,0,0,12.3,634.3,988.6)" />
<use xlink:href="#f3_5z" transform="matrix(13,0,0,12.3,545.5,990.1)" />
<use xlink:href="#f3_5z" transform="matrix(13,0,0,12.3,590.6,990.1)" />
<use xlink:href="#f2_a" transform="matrix(13,0,0,12.3,323.7,994.1)" />
<use xlink:href="#f2_25" transform="matrix(13,0,0,12.3,383,994.1)" />
<use xlink:href="#f2_2f" transform="matrix(13,0,0,12.3,388.1,994.1)" />
<use xlink:href="#f2_c" transform="matrix(13,0,0,12.3,399.5,994.1)" />
<use xlink:href="#f2_d" transform="matrix(13,0,0,12.3,444.2,994.1)" />
<use xlink:href="#f2_c" transform="matrix(13,0,0,12.3,465.7,994.1)" />
<use xlink:href="#f2_d" transform="matrix(13,0,0,12.3,510.2,994.1)" />
<use xlink:href="#f2_m" transform="matrix(13,0,0,12.3,535.2,994.1)" />
<use xlink:href="#f2_m" transform="matrix(13,0,0,12.3,568.9,994.1)" />
<use xlink:href="#f2_q" transform="matrix(13,0,0,12.3,578.1,994.1)" />
<use xlink:href="#f2_l" transform="matrix(13,0,0,12.3,612.2,994.1)" />
<use xlink:href="#f2_k" transform="matrix(13,0,0,12.3,621.4,994.1)" />
<use xlink:href="#f4_1x" transform="matrix(13,0,0,12.3,282.4,994.1)" />
<use xlink:href="#f4_1y" transform="matrix(13,0,0,12.3,309.5,994.1)" />
<use xlink:href="#f4_1x" transform="matrix(13,0,0,12.3,341.4,994.1)" />
<use xlink:href="#f4_1y" transform="matrix(13,0,0,12.3,368.3,994.1)" />
<use xlink:href="#f4_1x" transform="matrix(13,0,0,12.3,406,994.1)" />
<use xlink:href="#f4_1y" transform="matrix(13,0,0,12.3,433.2,994.1)" />
<use xlink:href="#f4_1x" transform="matrix(13,0,0,12.3,472.3,994.1)" />
<use xlink:href="#f4_1y" transform="matrix(13,0,0,12.3,499.1,994.1)" />
<use xlink:href="#f4_25" transform="matrix(13,0,0,12.3,544,994.1)" />
<use xlink:href="#f4_26" transform="matrix(13,0,0,12.3,590.9,994.1)" />
<use xlink:href="#f4_27" transform="matrix(13,0,0,12.3,630.8,994.1)" />
<use xlink:href="#f5_f" transform="matrix(13,0,0,12.3,296.1,994.1)" />
<use xlink:href="#f5_h" transform="matrix(13,0,0,12.3,355.1,994.1)" />
<use xlink:href="#f5_f" transform="matrix(13,0,0,12.3,419.8,994.1)" />
<use xlink:href="#f5_3a" transform="matrix(13,0,0,12.3,452.8,994.1)" />
<use xlink:href="#f5_h" transform="matrix(13,0,0,12.3,486,994.1)" />
<use xlink:href="#f5_x" transform="matrix(13,0,0,12.3,520.7,994.1)" />
<use xlink:href="#f5_h" transform="matrix(13,0,0,12.3,555.1,994.1)" />
<use xlink:href="#f5_h" transform="matrix(13,0,0,12.3,600.5,994.1)" />
</g>
</g>
<image preserveAspectRatio="none" x="312" y="957" width="283" height="32" xlink:href="img/17.png" />
<image preserveAspectRatio="none" x="284" y="961" width="284" height="33" xlink:href="img/18.png" />
<g fill="#000000" >
<use xlink:href="#f6_l" transform="matrix(12,0,0,12,55,1058.5)" />
<use xlink:href="#f6_s" transform="matrix(12,0,0,12,64.2,1058.5)" />
<use xlink:href="#f6_i" transform="matrix(12,0,0,12,73.4,1058.5)" />
<use xlink:href="#f2_1j" transform="matrix(12,0,0,12,82.9,1058.5)" />
<use xlink:href="#f2_24" transform="matrix(12,0,0,12,93.2,1058.5)" />
<use xlink:href="#f2_2b" transform="matrix(12,0,0,12,102,1058.5)" />
<use xlink:href="#f2_2j" transform="matrix(12,0,0,12,111.5,1058.5)" />
<use xlink:href="#f2_2g" transform="matrix(12,0,0,12,128.7,1058.5)" />
<use xlink:href="#f2_24" transform="matrix(12,0,0,12,134.2,1058.5)" />
<use xlink:href="#f2_1x" transform="matrix(12,0,0,12,143,1058.5)" />
<use xlink:href="#f2_2g" transform="matrix(12,0,0,12,151,1058.5)" />
<use xlink:href="#f2_2g" transform="matrix(12,0,0,12,160.9,1058.5)" />
<use xlink:href="#f2_24" transform="matrix(12,0,0,12,166.4,1058.5)" />
<use xlink:href="#f2_21" transform="matrix(12,0,0,12,175.2,1058.5)" />
<use xlink:href="#f2_28" transform="matrix(12,0,0,12,188,1058.5)" />
<use xlink:href="#f2_25" transform="matrix(12,0,0,12,192.8,1058.5)" />
<use xlink:href="#f2_2a" transform="matrix(12,0,0,12,197.6,1058.5)" />
<use xlink:href="#f2_21" transform="matrix(12,0,0,12,206.7,1058.5)" />
<use xlink:href="#f2_2f" transform="matrix(12,0,0,12,215.1,1058.5)" />
</g>
<path d="M230.2,1053.9h34.2m19.8,0h35.3m19.9,0h33.9m36,0H447m19.8,0h12.4m19.9,0H533" class="g11_71" />
<g clip-path="url(#c20_71)">
<g fill="#000000" >
<use xlink:href="#f2_l" transform="matrix(12.7,0,0,12.4,256,1047)" />
<use xlink:href="#f2_l" transform="matrix(12.7,0,0,12.4,311.1,1047)" />
<use xlink:href="#f2_l" transform="matrix(12.7,0,0,12.4,364.8,1047)" />
<use xlink:href="#f2_o" transform="matrix(12.7,0,0,12.4,437.1,1047)" />
<use xlink:href="#f2_l" transform="matrix(12.7,0,0,12.4,524.5,1047)" />
<use xlink:href="#f2_1x" transform="matrix(12.7,0,0,12.4,378,1058.5)" />
<use xlink:href="#f2_2a" transform="matrix(12.7,0,0,12.4,386,1058.5)" />
<use xlink:href="#f2_20" transform="matrix(12.7,0,0,12.4,395.2,1058.5)" />
<use xlink:href="#f2_n" transform="matrix(12.7,0,0,12.4,243,1072.9)" />
<use xlink:href="#f2_l" transform="matrix(12.7,0,0,12.4,303.3,1072.9)" />
<use xlink:href="#f2_k" transform="matrix(12.7,0,0,12.4,351.9,1072.9)" />
<use xlink:href="#f2_m" transform="matrix(12.7,0,0,12.4,423.8,1072.9)" />
<use xlink:href="#f2_k" transform="matrix(12.7,0,0,12.4,468.6,1072.9)" />
<use xlink:href="#f2_n" transform="matrix(12.7,0,0,12.4,511.7,1072.9)" />
<use xlink:href="#f4_2k" transform="matrix(12.7,0,0,12.4,232.3,1047)" />
<use xlink:href="#f4_2l" transform="matrix(12.7,0,0,12.4,287.1,1047)" />
<use xlink:href="#f4_2m" transform="matrix(12.7,0,0,12.4,341.4,1047)" />
<use xlink:href="#f4_2k" transform="matrix(12.7,0,0,12.4,411.4,1047)" />
<use xlink:href="#f4_2l" transform="matrix(12.7,0,0,12.4,469.6,1047)" />
<use xlink:href="#f4_2m" transform="matrix(12.7,0,0,12.4,501.1,1047)" />
<use xlink:href="#f5_h" transform="matrix(12.7,0,0,12.4,244.3,1047)" />
<use xlink:href="#f5_h" transform="matrix(12.7,0,0,12.4,299.4,1047)" />
<use xlink:href="#f5_f" transform="matrix(12.7,0,0,12.4,352.8,1047)" />
<use xlink:href="#f5_h" transform="matrix(12.7,0,0,12.4,423.4,1047)" />
<use xlink:href="#f5_f" transform="matrix(12.7,0,0,12.4,512.5,1047)" />
<use xlink:href="#f5_x" transform="matrix(12.7,0,0,12.4,269.4,1058.5)" />
<use xlink:href="#f5_x" transform="matrix(12.7,0,0,12.4,324.6,1058.5)" />
<use xlink:href="#f5_x" transform="matrix(12.7,0,0,12.4,452,1058.5)" />
<use xlink:href="#f5_x" transform="matrix(12.7,0,0,12.4,484.3,1058.5)" />
<use xlink:href="#f5_h" transform="matrix(12.7,0,0,12.4,293.3,1072.9)" />
</g>
</g>
<g fill="#000000" >
<use xlink:href="#f2_25" transform="matrix(12,0,0,12,542.1,1058.5)" />
<use xlink:href="#f2_2a" transform="matrix(12,0,0,12,546.9,1058.5)" />
<use xlink:href="#f2_2g" transform="matrix(12,0,0,12,555.7,1058.5)" />
<use xlink:href="#f2_21" transform="matrix(12,0,0,12,561.2,1058.5)" />
<use xlink:href="#f2_2e" transform="matrix(12,0,0,12,569.3,1058.5)" />
<use xlink:href="#f2_2f" transform="matrix(12,0,0,12,575.5,1058.5)" />
<use xlink:href="#f2_21" transform="matrix(12,0,0,12,582.4,1058.5)" />
<use xlink:href="#f2_1z" transform="matrix(12,0,0,12,590.5,1058.5)" />
<use xlink:href="#f2_2g" transform="matrix(12,0,0,12,598.6,1058.5)" />
<use xlink:href="#f2_i" transform="matrix(12,0,0,12,604.1,1058.5)" />
<use xlink:href="#f2_16" transform="matrix(12,0,0,12,613.2,1058.5)" />
<use xlink:href="#f2_25" transform="matrix(12,0,0,12,623.5,1058.5)" />
<use xlink:href="#f2_2a" transform="matrix(12,0,0,12,628.2,1058.5)" />
<use xlink:href="#f2_20" transform="matrix(12,0,0,12,637,1058.5)" />
<use xlink:href="#f2_2g" transform="matrix(12,0,0,12,650.9,1058.5)" />
<use xlink:href="#f2_24" transform="matrix(12,0,0,12,656.4,1058.5)" />
<use xlink:href="#f2_21" transform="matrix(12,0,0,12,665.2,1058.5)" />
<use xlink:href="#f2_25" transform="matrix(12,0,0,12,673.6,1058.5)" />
<use xlink:href="#f2_2e" transform="matrix(12,0,0,12,678,1058.5)" />
<use xlink:href="#f2_2c" transform="matrix(12,0,0,12,689,1058.5)" />
<use xlink:href="#f2_2b" transform="matrix(12,0,0,12,698.2,1058.5)" />
<use xlink:href="#f2_25" transform="matrix(12,0,0,12,707.7,1058.5)" />
<use xlink:href="#f2_2a" transform="matrix(12,0,0,12,712.4,1058.5)" />
<use xlink:href="#f2_2g" transform="matrix(12,0,0,12,721.2,1058.5)" />
<use xlink:href="#f2_2b" transform="matrix(12,0,0,12,731.5,1058.5)" />
<use xlink:href="#f2_22" transform="matrix(12,0,0,12,741,1058.5)" />
<use xlink:href="#f2_25" transform="matrix(12,0,0,12,751.6,1058.5)" />
<use xlink:href="#f2_2a" transform="matrix(12,0,0,12,756.4,1058.5)" />
<use xlink:href="#f2_2g" transform="matrix(12,0,0,12,765.2,1058.5)" />
<use xlink:href="#f2_21" transform="matrix(12,0,0,12,770.7,1058.5)" />
<use xlink:href="#f2_2e" transform="matrix(12,0,0,12,778.7,1058.5)" />
<use xlink:href="#f2_2f" transform="matrix(12,0,0,12,784.9,1058.5)" />
<use xlink:href="#f2_21" transform="matrix(12,0,0,12,791.9,1058.5)" />
<use xlink:href="#f2_1z" transform="matrix(12,0,0,12,800,1058.5)" />
<use xlink:href="#f2_2g" transform="matrix(12,0,0,12,808,1058.5)" />
<use xlink:href="#f2_25" transform="matrix(12,0,0,12,813.5,1058.5)" />
<use xlink:href="#f2_2b" transform="matrix(12,0,0,12,817.9,1058.5)" />
<use xlink:href="#f2_2a" transform="matrix(12,0,0,12,827.4,1058.5)" />
<use xlink:href="#f2_i" transform="matrix(12,0,0,12,836.2,1058.5)" />
<use xlink:href="#f6_1j" transform="matrix(12,0,0,12,55,1097)" />
<use xlink:href="#f6_2b" transform="matrix(12,0,0,12,65.3,1097)" />
<use xlink:href="#f6_28" transform="matrix(12,0,0,12,74.5,1097)" />
<use xlink:href="#f6_2h" transform="matrix(12,0,0,12,79.2,1097)" />
<use xlink:href="#f6_2g" transform="matrix(12,0,0,12,89.5,1097)" />
<use xlink:href="#f6_25" transform="matrix(12,0,0,12,95.7,1097)" />
<use xlink:href="#f6_2b" transform="matrix(12,0,0,12,100.8,1097)" />
<use xlink:href="#f6_2a" transform="matrix(12,0,0,12,109.9,1097)" />
<use xlink:href="#f6_u" transform="matrix(12,0,0,12,120.2,1097)" />
</g>
<path d="M58.2,1128.7h34m19.8,0h35.1m19.8,0h33.7" class="g12_71" />
<g clip-path="url(#c21_71)">
<g fill="#000000" >
<use xlink:href="#f2_l" transform="matrix(12.7,0,0,12.4,83.9,1121.4)" />
<use xlink:href="#f2_l" transform="matrix(12.7,0,0,12.4,138.8,1121.4)" />
<use xlink:href="#f2_l" transform="matrix(12.7,0,0,12.4,192.3,1121.4)" />
<use xlink:href="#f2_c" transform="matrix(12.7,0,0,12.4,239.6,1133.3)" />
<use xlink:href="#f2_28" transform="matrix(12.7,0,0,12.4,245.8,1133.3)" />
<use xlink:href="#f2_21" transform="matrix(12.7,0,0,12.4,250.7,1133.3)" />
<use xlink:href="#f2_2g" transform="matrix(12.7,0,0,12.4,258.7,1133.3)" />
<use xlink:href="#f2_d" transform="matrix(12.7,0,0,12.4,264.6,1133.3)" />
<use xlink:href="#f2_i" transform="matrix(12.7,0,0,12.4,323.4,1133.3)" />
<use xlink:href="#f2_i" transform="matrix(12.7,0,0,12.4,328,1133.3)" />
<use xlink:href="#f2_i" transform="matrix(12.7,0,0,12.4,332.5,1133.3)" />
<use xlink:href="#f2_c" transform="matrix(12.7,0,0,12.4,337.1,1133.3)" />
<use xlink:href="#f2_d" transform="matrix(12.7,0,0,12.4,348.8,1133.3)" />
<use xlink:href="#f2_n" transform="matrix(12.7,0,0,12.4,70.9,1148)" />
<use xlink:href="#f2_l" transform="matrix(12.7,0,0,12.4,131,1148)" />
<use xlink:href="#f2_k" transform="matrix(12.7,0,0,12.4,179.3,1148)" />
<use xlink:href="#f4_2k" transform="matrix(12.7,0,0,12.4,60.2,1121.4)" />
<use xlink:href="#f4_2l" transform="matrix(12.7,0,0,12.4,114.8,1121.4)" />
<use xlink:href="#f4_2m" transform="matrix(12.7,0,0,12.4,168.8,1121.4)" />
<use xlink:href="#f4_25" transform="matrix(12.7,0,0,12.4,343.2,1133.3)" />
<use xlink:href="#f5_h" transform="matrix(12.7,0,0,12.4,72.2,1121.4)" />
<use xlink:href="#f5_h" transform="matrix(12.7,0,0,12.4,127.1,1121.4)" />
<use xlink:href="#f5_f" transform="matrix(12.7,0,0,12.4,180.3,1121.4)" />
<use xlink:href="#f5_x" transform="matrix(12.7,0,0,12.4,97.3,1133.3)" />
<use xlink:href="#f5_x" transform="matrix(12.7,0,0,12.4,152.1,1133.3)" />
<use xlink:href="#f5_x" transform="matrix(12.7,0,0,12.4,205.6,1133.3)" />
<use xlink:href="#f5_28" transform="matrix(12.7,0,0,12.4,219.7,1133.3)" />
<use xlink:href="#f5_h" transform="matrix(12.7,0,0,12.4,121,1148)" />
</g>
</g>
<g clip-path="url(#c22_71)">
<g fill="#000000" >
<use xlink:href="#f2_n" transform="matrix(13.1,0,0,12.4,112.8,1171.5)" />
<use xlink:href="#f2_l" transform="matrix(13.1,0,0,12.4,147.4,1171.5)" />
<use xlink:href="#f2_g" transform="matrix(13.1,0,0,12.4,154.9,1171.5)" />
<use xlink:href="#f2_l" transform="matrix(13.1,0,0,12.4,229.2,1171.5)" />
<use xlink:href="#f2_g" transform="matrix(13.1,0,0,12.4,236.7,1171.5)" />
<use xlink:href="#f2_l" transform="matrix(13.1,0,0,12.4,283,1171.5)" />
<use xlink:href="#f4_2k" transform="matrix(13.1,0,0,12.4,86.1,1171.5)" />
<use xlink:href="#f4_2l" transform="matrix(13.1,0,0,12.4,165.3,1171.5)" />
<use xlink:href="#f4_2m" transform="matrix(13.1,0,0,12.4,246.3,1171.5)" />
<use xlink:href="#f5_4g" transform="matrix(13.1,0,0,12.4,57.4,1171.5)" />
<use xlink:href="#f5_x" transform="matrix(13.1,0,0,12.4,98.8,1171.5)" />
<use xlink:href="#f5_28" transform="matrix(13.1,0,0,12.4,121.3,1171.5)" />
<use xlink:href="#f5_f" transform="matrix(13.1,0,0,12.4,135.3,1171.5)" />
<use xlink:href="#f5_x" transform="matrix(13.1,0,0,12.4,178.3,1171.5)" />
<use xlink:href="#f5_h" transform="matrix(13.1,0,0,12.4,192.8,1171.5)" />
<use xlink:href="#f5_28" transform="matrix(13.1,0,0,12.4,203.1,1171.5)" />
<use xlink:href="#f5_f" transform="matrix(13.1,0,0,12.4,217.1,1171.5)" />
<use xlink:href="#f5_x" transform="matrix(13.1,0,0,12.4,258.4,1171.5)" />
<use xlink:href="#f5_h" transform="matrix(13.1,0,0,12.4,272.9,1171.5)" />
</g>
</g>
<path fill-rule="evenodd" d="M37.4,38.1h.7v-.7h-.7v.7Z" class="g13_71" />
<path fill-rule="evenodd" d="M37.4,38.1h.7v-.7h-.7v.7Z" class="g13_71" />
<path fill-rule="evenodd" d="M38.1,38.1H871.5v-.7H38.1v.7Z" class="g13_71" />
<path fill-rule="evenodd" d="M871.5,38.1h.8v-.7h-.8v.7Z" class="g13_71" />
<path fill-rule="evenodd" d="M871.5,38.1h.8v-.7h-.8v.7Z" class="g13_71" />
<path fill-rule="evenodd" d="M37.4,1248.5h.7V38.1h-.7V1248.5Z" class="g13_71" />
<path fill-rule="evenodd" d="M872.3,1248.5h.7V38.1h-.7V1248.5Z" class="g13_71" />
<path fill-rule="evenodd" d="M871.5,1248.5h.8V38.1h-.8V1248.5Z" class="g13_71" />
<path fill-rule="evenodd" d="M37.4,1249.2h.7v-.7h-.7v.7Z" class="g13_71" />
<path fill-rule="evenodd" d="M37.4,1249.2h.7v-.7h-.7v.7Z" class="g13_71" />
<path fill-rule="evenodd" d="M38.1,1249.9H871.5v-.7H38.1v.7Z" class="g13_71" />
<path fill-rule="evenodd" d="M38.1,1249.2H871.5v-.7H38.1v.7Z" class="g13_71" />
<path fill-rule="evenodd" d="M872.3,1249.9h.7v-1.4h-.7v1.4Z" class="g13_71" />
<path fill-rule="evenodd" d="M871.5,1249.9H873v-.7h-1.5v.7Z" class="g13_71" />
<path fill-rule="evenodd" d="M871.5,1249.2h.8v-.7h-.8v.7Z" class="g13_71" />
<path fill-rule="evenodd" d="M871.5,1249.2h.8v-.7h-.8v.7Z" class="g13_71" />
<defs>
<path d="M489,-15c0,0,-99,0,-179,30c0,0,-80,30,-136,91c0,0,-56,61,-85,152c0,0,-30,91,-30,212c0,0,0,123,32,218c0,0,33,96,92,161c0,0,59,65,142,98c0,0,82,34,181,34c0,0,40,0,78,-7c0,0,37,-7,69,-18c0,0,31,-11,57,-25c0,0,25,-14,35,-24c0,0,10,-10,14,-17c0,0,4,-7,6,-17c0,0,2,-11,3,-25c0,0,2,-14,2,-35c0,0,0,-22,-2,-38c0,0,-1,-15,-5,-25c0,0,-4,-10,-9,-14c0,0,-5,-5,-12,-5c0,0,-11,0,-28,13c0,0,-18,13,-45,29c0,0,-27,16,-65,29c0,0,-37,13,-89,13c0,0,-58,0,-103,-23c0,0,-45,-23,-77,-67c0,0,-31,-44,-48,-106c0,0,-16,-61,-16,-139c0,0,0,-85,17,-147c0,0,18,-62,50,-103c0,0,33,-40,79,-60c0,0,45,-19,103,-19c0,0,52,0,90,12c0,0,38,12,65,27c0,0,27,15,45,27c0,0,17,12,27,12c0,0,8,0,12,-3c0,0,4,-3,7,-12c0,0,3,-9,5,-25c0,0,1,-16,1,-43c0,0,0,-18,-1,-31c0,0,-1,-14,-3,-23c0,0,-2,-9,-6,-16c0,0,-4,-7,-12,-15c0,0,-8,-9,-32,-22c0,0,-23,-14,-57,-26C661,13,627,1,583,-6c0,0,-43,-9,-94,-9Z" 
id="f0_j"
transform="scale(0.001,-0.001)" />

<path d="M440,150c0,0,41,0,68,8c0,0,28,9,49,26c0,0,20,16,32,41c0,0,11,25,11,58c0,0,0,33,-11,60c0,0,-11,26,-33,44c0,0,-21,18,-55,28c0,0,-33,9,-87,9H298V150ZM407,567c0,0,42,0,68,10c0,0,25,10,42,28c0,0,16,17,24,41c0,0,9,24,9,50c0,0,0,29,-9,52c0,0,-9,23,-27,39c0,0,-18,15,-45,23c0,0,-27,8,-72,8H298V567ZM164,0c0,0,-25,0,-42,15c0,0,-16,14,-16,47V903c0,0,0,33,16,48c0,0,17,14,42,14H406c0,0,88,0,150,-15c0,0,61,-15,103,-45c0,0,42,-30,65,-77c0,0,22,-46,22,-108c0,0,0,-36,-9,-67c0,0,-9,-31,-26,-56c0,0,-17,-25,-42,-45c0,0,-25,-19,-57,-31c0,0,41,-7,76,-26c0,0,34,-19,60,-48c0,0,26,-30,41,-69c0,0,15,-40,15,-89c0,0,0,-51,-14,-93c0,0,-15,-42,-40,-74c0,0,-25,-32,-59,-55c0,0,-35,-23,-77,-38C614,29,573,14,525,7C525,7,478,0,420,0Z" 
id="f0_i"
transform="scale(0.001,-0.001)" />

<path d="M320,-17c0,0,-50,0,-93,9c0,0,-43,8,-76,19c0,0,-32,11,-54,24C97,35,75,48,65,58c0,0,-10,9,-14,28c0,0,-4,18,-4,52c0,0,0,23,1,39c0,0,2,15,5,25c0,0,4,10,9,14c0,0,6,4,13,4c0,0,11,0,30,-12c0,0,19,-13,49,-28c0,0,30,-15,71,-27c0,0,42,-12,96,-12c0,0,36,0,64,8c0,0,29,9,49,25c0,0,19,15,30,38c0,0,10,23,10,52c0,0,0,33,-18,56c0,0,-18,24,-46,42c0,0,-29,18,-66,34c0,0,-36,16,-75,34c0,0,-39,18,-76,41c0,0,-36,23,-65,54c0,0,-29,32,-47,75c0,0,-17,44,-17,104c0,0,0,70,25,122c0,0,26,53,70,88c0,0,43,34,103,51c0,0,59,18,125,18c0,0,35,0,69,-6c0,0,34,-5,64,-14c0,0,30,-9,53,-20c0,0,23,-11,31,-18c0,0,7,-8,10,-13c0,0,3,-5,4,-14c0,0,2,-8,3,-21c0,0,1,-13,1,-33c0,0,0,-21,-1,-36c0,0,-1,-15,-4,-25c0,0,-3,-9,-7,-14c0,0,-5,-4,-14,-4c0,0,-8,0,-26,10c0,0,-18,10,-44,23c0,0,-26,12,-60,22c0,0,-34,10,-75,10c0,0,-32,0,-56,-8c0,0,-24,-8,-40,-21c0,0,-16,-14,-24,-34c0,0,-8,-19,-8,-41c0,0,0,-32,18,-56c0,0,17,-23,46,-42c0,0,30,-18,67,-34c0,0,38,-16,76,-34c0,0,39,-18,76,-41c0,0,38,-22,67,-54c0,0,29,-32,47,-75c0,0,18,-43,18,-101c0,0,0,-76,-29,-133c0,0,-28,-58,-77,-96C572,60,524,21,459,2c0,0,-65,-19,-139,-19Z" 
id="f0_2n"
transform="scale(0.001,-0.001)" />

<path d="M164,0c0,0,-25,0,-42,15c0,0,-16,14,-16,47V903c0,0,0,33,16,48c0,0,17,14,42,14H645c0,0,7,0,12,-4c0,0,5,-3,9,-13c0,0,4,-9,6,-24c0,0,2,-14,2,-36c0,0,0,-21,-2,-36c0,0,-2,-14,-6,-23c0,0,-4,-9,-9,-13c0,0,-5,-4,-12,-4H301V576H593c0,0,6,0,12,-4c0,0,6,-4,9,-13c0,0,4,-8,6,-23c0,0,2,-14,2,-35c0,0,0,-22,-2,-36c0,0,-2,-14,-6,-23c0,0,-3,-8,-9,-12c0,0,-6,-4,-12,-4H301V154H649c0,0,6,0,12,-5c0,0,5,-4,9,-13c0,0,4,-9,6,-23c0,0,2,-15,2,-36c0,0,0,-22,-2,-36c0,0,-2,-15,-6,-24c0,0,-4,-9,-9,-13c0,0,-6,-4,-12,-4Z" 
id="f0_t"
transform="scale(0.001,-0.001)" />

<path d="M79,297c0,0,-19,0,-27,18c0,0,-8,17,-8,60c0,0,0,41,8,59c0,0,8,17,27,17H389c0,0,9,0,15,-4c0,0,7,-4,11,-13c0,0,5,-9,7,-23c0,0,1,-15,1,-36c0,0,0,-43,-8,-61c0,0,-8,-17,-26,-17Z" 
id="f0_oj"
transform="scale(0.001,-0.001)" />

<path d="M121,-4c0,0,-39,0,-60,2C61,-2,39,0,32,8c0,0,-8,8,-3,24c0,0,4,15,18,41L279,495L64,892c0,0,-14,26,-19,42c0,0,-5,17,4,24c0,0,9,8,32,10c0,0,23,2,65,2c0,0,35,0,56,-2c0,0,20,-1,32,-4c0,0,12,-4,17,-10c0,0,5,-6,9,-15L431,620L595,939c0,0,5,9,10,15c0,0,5,6,16,10c0,0,10,3,29,4c0,0,19,2,53,2c0,0,37,0,59,-2c0,0,22,-2,30,-10c0,0,8,-8,4,-24c0,0,-4,-16,-17,-42L564,497L793,73c0,0,14,-26,18,-41c0,0,4,-16,-5,-24c0,0,-9,-8,-32,-10c0,0,-24,-2,-65,-2c0,0,-36,0,-56,2c0,0,-20,1,-31,3c0,0,-12,4,-17,10c0,0,-5,6,-9,15L414,374L233,26c0,0,-4,-9,-9,-15c0,0,-6,-6,-17,-10c0,0,-12,-2,-32,-3c0,0,-21,-2,-54,-2Z" 
id="f0_3e"
transform="scale(0.001,-0.001)" />

<path d="M204,-4c0,0,-28,0,-47,2c0,0,-19,2,-31,5c0,0,-11,4,-16,10c0,0,-4,6,-4,13V939c0,0,0,7,4,13c0,0,5,6,17,10c0,0,11,3,30,6c0,0,19,2,47,2c0,0,29,0,48,-2c0,0,18,-3,29,-6c0,0,11,-4,16,-10c0,0,5,-6,5,-13V26c0,0,0,-7,-5,-13c0,0,-5,-6,-16,-10c0,0,-11,-3,-29,-5c0,0,-19,-2,-48,-2Z" 
id="f0_1c"
transform="scale(0.001,-0.001)" />

<path d="M127,0c0,0,-16,0,-28,3C99,3,87,6,80,15c0,0,-8,8,-11,25c0,0,-3,16,-3,42c0,0,0,25,2,42c0,0,2,18,8,32c0,0,6,14,15,27c0,0,9,13,24,29L282,390c0,0,50,53,81,95c0,0,30,43,47,79c0,0,17,35,24,65c0,0,6,30,6,57c0,0,0,24,-8,46c0,0,-8,22,-23,39c0,0,-15,16,-38,25c0,0,-23,10,-55,10c0,0,-44,0,-78,-12c0,0,-33,-11,-59,-25c0,0,-26,-13,-43,-25c0,0,-17,-12,-27,-12c0,0,-7,0,-11,5c0,0,-5,4,-8,15c0,0,-3,10,-5,28c0,0,-2,17,-2,42c0,0,0,18,1,29c0,0,1,12,4,20c0,0,2,9,6,15c0,0,3,6,13,15c0,0,9,9,34,23c0,0,25,14,61,27c0,0,37,14,81,23c0,0,44,9,92,9c0,0,75,0,131,-19c0,0,57,-19,94,-53c0,0,37,-34,55,-81c0,0,19,-47,19,-100c0,0,0,-47,-9,-93c0,0,-9,-45,-37,-98c0,0,-29,-52,-80,-116c0,0,-52,-64,-136,-148L299,159H679c0,0,8,0,14,-4c0,0,6,-5,11,-14c0,0,4,-9,7,-25c0,0,2,-15,2,-36c0,0,0,-22,-2,-37c0,0,-2,-15,-6,-25c0,0,-3,-10,-9,-14c0,0,-6,-4,-14,-4Z" 
id="f0_rz"
transform="scale(0.001,-0.001)" />

<path d="M385,138c0,0,29,0,52,9c0,0,22,10,39,28c0,0,17,19,28,47c0,0,11,29,19,66c0,0,7,37,9,84c0,0,3,47,3,104c0,0,0,69,-4,122c0,0,-4,52,-11,91c0,0,-8,39,-20,66c0,0,-12,27,-28,43c0,0,-16,16,-37,22c0,0,-21,7,-47,7c0,0,-44,0,-73,-21c0,0,-28,-21,-45,-64c0,0,-17,-42,-24,-106c0,0,-6,-63,-6,-148c0,0,0,-103,8,-171c0,0,8,-67,26,-107c0,0,17,-40,45,-56c0,0,27,-16,66,-16ZM378,-17c0,0,-99,0,-164,33c0,0,-65,34,-103,98c0,0,-38,64,-54,156c0,0,-15,92,-15,209c0,0,0,115,19,208c0,0,19,94,61,160c0,0,42,65,110,101c0,0,68,35,165,35c0,0,99,0,164,-34c0,0,65,-34,103,-98c0,0,39,-64,53,-156c0,0,15,-92,15,-209c0,0,0,-115,-18,-209c0,0,-19,-93,-61,-159C653,118,611,53,543,17c0,0,-67,-34,-165,-34Z" 
id="f0_rx"
transform="scale(0.001,-0.001)" />

<path d="M142,0c0,0,-6,0,-12,4c0,0,-5,3,-9,12c0,0,-4,9,-6,23c0,0,-3,15,-3,36c0,0,0,21,2,36c0,0,2,14,6,23c0,0,4,9,10,13c0,0,5,5,12,5H322V779L166,693c0,0,-17,-8,-28,-10c0,0,-1,0,-3,0c-4,0,-10,1,-14,5c0,0,-6,6,-8,22c0,0,-2,15,-2,44c0,0,0,18,0,29c0,0,1,12,4,20c0,0,3,8,8,14c0,0,5,5,14,11L345,962c0,0,4,3,9,5c0,0,6,2,15,3c0,0,9,1,23,2c0,0,15,0,38,0c0,0,28,0,46,-1c0,0,17,-1,26,-4c0,0,9,-3,12,-7c0,0,3,-4,3,-11V152H675c0,0,7,0,12,-5c0,0,6,-4,10,-13c0,0,4,-9,6,-23c0,0,2,-15,2,-36c0,0,0,-21,-2,-36c0,0,-3,-14,-7,-23c0,0,-4,-9,-9,-12c0,0,-5,-4,-12,-4Z" 
id="f0_ry"
transform="scale(0.001,-0.001)" />

<path d="M398,134c0,0,34,0,60,12c0,0,25,13,43,36c0,0,17,23,26,54c0,0,9,31,9,68c0,0,0,38,-7,66c0,0,-7,29,-22,49c0,0,-15,20,-39,30c0,0,-25,10,-60,10c0,0,-21,0,-41,-4c0,0,-20,-4,-40,-10c0,0,-19,-7,-37,-16c0,0,-18,-10,-33,-20c0,0,0,-80,9,-133c0,0,9,-54,26,-85c0,0,18,-31,44,-44c0,0,27,-13,62,-13ZM387,-16c0,0,-67,0,-117,15c0,0,-50,14,-86,43c0,0,-37,29,-60,70c0,0,-23,41,-37,92c0,0,-14,52,-19,112c0,0,-5,61,-5,129c0,0,0,56,5,118c0,0,6,62,22,122c0,0,16,59,45,114c0,0,29,54,75,94c0,0,46,41,111,65c0,0,65,24,155,24c0,0,28,0,57,-4c0,0,29,-3,53,-8c0,0,25,-5,42,-12c0,0,17,-7,23,-12c0,0,5,-5,8,-11c0,0,3,-5,5,-13c0,0,2,-7,3,-17c0,0,1,-11,1,-25c0,0,0,-24,-1,-39c0,0,-2,-15,-5,-24c0,0,-3,-8,-8,-12c0,0,-5,-4,-12,-4c0,0,-9,0,-24,5c0,0,-14,5,-34,11c0,0,-20,6,-47,10c0,0,-27,5,-63,5c0,0,-61,0,-102,-23c0,0,-42,-22,-68,-60c0,0,-26,-39,-38,-90c0,0,-12,-50,-13,-107c0,0,16,10,38,21c0,0,21,10,46,18c0,0,25,7,54,12c0,0,29,5,62,5c0,0,73,0,125,-20c0,0,52,-20,86,-58c0,0,33,-37,48,-90c0,0,16,-53,16,-118c0,0,0,-73,-22,-135c0,0,-23,-62,-66,-108C640,79,597,34,533,9c0,0,-63,-25,-146,-25Z" 
id="f0_s3"
transform="scale(0.001,-0.001)" />

<path d="M589,371L453,782h-1L317,371ZM106,-4c0,0,-35,0,-54,2C52,-2,32,0,25,8c0,0,-7,9,-5,24c0,0,2,16,11,42L329,931c0,0,4,13,10,21c0,0,6,7,19,12c0,0,13,4,36,5c0,0,23,1,61,1c0,0,44,0,71,-1c0,0,26,-1,40,-5c0,0,15,-5,21,-13c0,0,6,-8,11,-22L896,73c0,0,9,-27,11,-43c0,0,3,-15,-6,-23c0,0,-8,-7,-29,-9c0,0,-21,-2,-57,-2c0,0,-38,0,-59,1c0,0,-22,1,-33,4c0,0,-11,3,-16,9c0,0,-4,6,-7,16L635,220H272L211,31c0,0,-2,-11,-7,-18c0,0,-5,-7,-16,-11c0,0,-11,-3,-31,-4c0,0,-19,-2,-51,-2Z" 
id="f0_5"
transform="scale(0.001,-0.001)" />

<path d="M198,-4c0,0,-27,0,-45,2c0,0,-18,2,-28,5c0,0,-11,4,-15,10c0,0,-4,6,-4,13V887c0,0,0,38,20,58c0,0,20,20,53,20H308c0,0,34,0,59,-6c0,0,24,-5,42,-18c0,0,18,-13,30,-35c0,0,12,-21,21,-52L669,279h3L889,852c0,0,9,32,21,53c0,0,11,22,27,35c0,0,15,14,36,19c0,0,21,6,48,6h132c0,0,21,0,35,-5c0,0,15,-5,24,-15c0,0,9,-11,14,-25c0,0,5,-15,5,-33V26c0,0,0,-7,-4,-13c0,0,-4,-6,-15,-10c0,0,-11,-3,-29,-5c0,0,-18,-2,-45,-2c0,0,-27,0,-45,2c0,0,-18,2,-28,5c0,0,-11,4,-15,10c0,0,-5,6,-5,13V813h-1L764,27c0,0,-3,-10,-10,-16c0,0,-6,-6,-18,-10c0,0,-12,-3,-29,-4c0,0,-18,-1,-44,-1c0,0,-25,0,-43,2c0,0,-18,2,-29,5c0,0,-12,4,-19,10c0,0,-6,6,-9,14L293,813h-2V26c0,0,0,-7,-4,-13c0,0,-4,-6,-15,-10c0,0,-11,-3,-29,-5c0,0,-17,-2,-45,-2Z" 
id="f0_1x"
transform="scale(0.001,-0.001)" />

<path d="M193,-4c0,0,-26,0,-43,2c0,0,-18,2,-27,6c0,0,-10,4,-14,10c0,0,-3,6,-3,13V895c0,0,0,35,20,53c0,0,21,17,50,17H282c0,0,28,0,47,-5c0,0,20,-5,35,-16c0,0,15,-11,29,-31c0,0,13,-20,27,-49L608,511c0,0,17,-32,33,-63c0,0,16,-31,31,-62c0,0,14,-31,29,-60c0,0,14,-30,27,-60h1c0,0,-2,52,-3,109c0,0,-1,57,-1,108V936c0,0,0,7,4,13c0,0,5,6,15,11c0,0,10,4,28,6c0,0,17,2,44,2c0,0,25,0,42,-2c0,0,17,-2,27,-6c0,0,9,-5,13,-11c0,0,4,-6,4,-13V68c0,0,0,-17,-6,-30c0,0,-6,-14,-17,-23C879,15,869,6,856,2c0,0,-14,-3,-28,-3H744c0,0,-26,0,-45,4c0,0,-19,5,-35,19c0,0,-16,14,-31,38c0,0,-15,23,-34,60L359,572c0,0,-21,40,-43,86c0,0,-21,47,-38,91h-2c0,0,3,-54,5,-107c0,0,2,-53,2,-110V27c0,0,0,-7,-5,-13c0,0,-4,-6,-14,-10c0,0,-10,-4,-27,-6c0,0,-17,-2,-44,-2Z" 
id="f0_1y"
transform="scale(0.001,-0.001)" />

<path d="M378,-4c0,0,-28,0,-47,2c0,0,-19,2,-31,5c0,0,-11,4,-16,10c0,0,-4,6,-4,13V805H38c0,0,-8,0,-13,4c0,0,-5,5,-9,14c0,0,-3,9,-5,25c0,0,-2,15,-2,37c0,0,0,22,2,38c0,0,2,15,5,25c0,0,4,9,9,13c0,0,5,4,13,4H718c0,0,7,0,12,-4c0,0,6,-4,10,-13c0,0,3,-10,5,-25c0,0,2,-16,2,-38c0,0,0,-22,-2,-37c0,0,-2,-16,-5,-25c0,0,-4,-9,-10,-14c0,0,-5,-4,-12,-4H476V26c0,0,0,-7,-5,-13c0,0,-5,-6,-16,-10c0,0,-11,-3,-30,-5c0,0,-19,-2,-47,-2Z" 
id="f0_2t"
transform="scale(0.001,-0.001)" />

<path d="M514,145c0,0,72,0,121,27c0,0,48,26,78,73c0,0,30,46,42,107c0,0,13,62,13,131c0,0,0,76,-12,139c0,0,-12,62,-41,106c0,0,-29,45,-76,69c0,0,-48,24,-120,24c0,0,-72,0,-120,-27c0,0,-49,-27,-79,-73c0,0,-29,-45,-42,-106c0,0,-12,-61,-12,-129c0,0,0,-79,12,-142c0,0,12,-63,40,-108c0,0,28,-44,76,-68c0,0,48,-23,120,-23ZM508,-17c0,0,-113,0,-196,29c0,0,-84,29,-140,90c0,0,-56,60,-84,154c0,0,-28,93,-28,221c0,0,0,117,29,210c0,0,30,94,89,160c0,0,59,65,146,101c0,0,87,35,202,35c0,0,110,0,194,-29c0,0,84,-30,140,-90c0,0,56,-60,85,-153c0,0,29,-92,29,-217c0,0,0,-120,-30,-215c0,0,-30,-95,-89,-161C855,118,796,52,709,17c0,0,-87,-34,-201,-34Z" 
id="f0_24"
transform="scale(0.001,-0.001)" />

<path d="M403,168c0,0,50,0,85,37c0,0,35,36,35,89c0,0,0,50,-35,85c0,0,-35,36,-85,36c0,0,-47,0,-81,-37c0,0,-35,-37,-35,-89c0,0,0,-47,36,-84c0,0,35,-37,80,-37Zm3,426c0,0,39,0,70,28c0,0,31,29,31,65c0,0,0,46,-28,77c0,0,-29,31,-73,31c0,0,-42,0,-71,-29c0,0,-28,-29,-28,-70c0,0,0,-44,28,-73c0,0,29,-29,71,-29Zm2,-605c0,0,-145,0,-234,75c0,0,-90,76,-90,197c0,0,0,150,140,239c0,0,-59,52,-87,101c0,0,-27,49,-27,112c0,0,0,103,77,179c0,0,77,75,216,75c0,0,136,0,217,-68c0,0,81,-68,81,-180c0,0,0,-130,-115,-217c0,0,140,-90,140,-237c0,0,0,-124,-89,-200c0,0,-88,-76,-229,-76Z" 
id="f1_s"
transform="scale(0.001,-0.001)" />

<path d="M44,-281L425,1053H537L156,-281Z" 
id="f1_j"
transform="scale(0.001,-0.001)" />

<path d="M299,0V777H162l36,173H508V0Z" 
id="f1_l"
transform="scale(0.001,-0.001)" />

<path d="M186,-28L17,77L450,779H39V952H793L186,-28Z" 
id="f1_r"
transform="scale(0.001,-0.001)" />

<path d="M460,-325c0,0,-148,79,-231,172c0,0,-84,93,-123,217c0,0,-39,126,-39,304c0,0,0,178,39,303c0,0,39,125,122,217c0,0,82,93,232,172V997c0,0,-91,-52,-145,-134c0,0,-54,-81,-79,-190c0,0,-25,-109,-25,-305c0,0,0,-194,26,-309c0,0,26,-114,82,-193c0,0,56,-79,141,-128v-63Z" 
id="f2_c"
transform="scale(0.001,-0.001)" />

<path d="M13,0V34L95,46L325,350L122,649L40,668v33H357V668L264,648L399,446L554,649l-96,19v33H710V668L630,652L433,397L663,50L745,34V0H427V34l94,17L359,299L169,50L266,34V0Z" 
id="f2_2k"
transform="scale(0.001,-0.001)" />

<path d="M67,0V109L206,235c0,0,133,118,196,190c0,0,63,72,90,149c0,0,27,77,27,177c0,0,0,97,-44,148c0,0,-44,50,-144,50c0,0,-39,0,-81,-10c0,0,-42,-11,-74,-29L150,787H101V980c0,0,135,32,230,32c0,0,164,0,247,-68c0,0,82,-69,82,-193c0,0,0,-84,-32,-158c0,0,-33,-75,-100,-148c0,0,-67,-74,-222,-206c0,0,-67,-57,-141,-125H680V0Z" 
id="f2_m"
transform="scale(0.001,-0.001)" />

<path d="M392,152V469H76v77H392V863h77V546H787V469H469V152Z" 
id="f2_f"
transform="scale(0.001,-0.001)" />

<path d="M350,-14c0,0,-142,0,-269,31L73,228h49L156,87c0,0,29,-16,82,-28c0,0,54,-12,100,-12c0,0,117,0,173,54c0,0,56,53,56,178c0,0,0,99,-52,150c0,0,-51,51,-159,56l-107,6v61l107,7c0,0,84,5,124,52c0,0,41,48,41,145c0,0,0,101,-44,147c0,0,-44,45,-139,45c0,0,-40,0,-83,-10c0,0,-43,-11,-76,-29L153,786H104V979c0,0,74,19,127,26c0,0,54,6,107,6c0,0,321,0,321,-246c0,0,0,-104,-57,-165c0,0,-57,-62,-162,-77c0,0,136,-16,200,-78c0,0,64,-62,64,-173c0,0,0,-135,-92,-211c0,0,-93,-75,-262,-75Z" 
id="f2_n"
transform="scale(0.001,-0.001)" />

<path d="M148,-329c0,0,-58,0,-114,13v151H69l24,-71c0,0,23,-17,64,-17c0,0,39,0,72,22c0,0,33,23,60,67c0,0,27,44,68,157L90,649L19,668v33H344V668L233,648L423,158L606,649L497,668v33H758V668L685,652L411,-43c0,0,-48,-124,-84,-177c0,0,-36,-54,-79,-82c0,0,-44,-27,-100,-27Z" 
id="f2_2l"
transform="scale(0.001,-0.001)" />

<path d="M49,-325v63c0,0,85,49,140,128c0,0,56,79,83,194c0,0,26,115,26,308c0,0,0,196,-25,305c0,0,-25,109,-79,190c0,0,-54,82,-145,134v63c0,0,149,-80,232,-172c0,0,83,-92,122,-217c0,0,39,-125,39,-303c0,0,0,-177,-39,-303c0,0,-39,-125,-122,-217c0,0,-83,-93,-232,-173Z" 
id="f2_d"
transform="scale(0.001,-0.001)" />

<path d="M383,64c0,0,85,0,152,28V645c0,0,-67,13,-152,13c0,0,-194,0,-194,-314c0,0,0,-141,48,-211c0,0,48,-69,146,-69ZM342,-14c0,0,-287,0,-287,358c0,0,0,184,82,280c0,0,81,96,239,96c0,0,81,0,163,-18c0,0,-4,25,-4,124v182l-118,18v34H659V52L745,33V0H548l-9,52c0,0,-84,-66,-197,-66Z" 
id="f2_20"
transform="scale(0.001,-0.001)" />

<path d="M-12,338v55H777V338Z" 
id="f3_4y"
transform="scale(0.001,-0.001)" />

<path d="M76,316v76H787V316Zm0,306v76H787V622Z" 
id="f2_x"
transform="scale(0.001,-0.001)" />

<path d="M377,45c0,0,99,0,145,108c0,0,46,109,46,352c0,0,0,240,-45,345c0,0,-46,106,-146,106c0,0,-97,0,-139,-100c0,0,-43,-99,-43,-351c0,0,0,-254,44,-357c0,0,43,-103,138,-103Zm0,-59c0,0,-158,0,-238,132c0,0,-81,133,-81,386c0,0,0,249,81,380c0,0,80,132,244,132c0,0,159,0,241,-130c0,0,82,-130,82,-382c0,0,0,-518,-329,-518Z" 
id="f2_k"
transform="scale(0.001,-0.001)" />

<path d="M301,78c0,0,41,0,90,27c0,0,49,28,95,77l81,442c0,0,-26,18,-54,27c0,0,-27,10,-67,10c0,0,-70,0,-131,-55c0,0,-61,-55,-99,-152c0,0,-37,-97,-37,-201c0,0,0,-79,33,-127c0,0,33,-48,89,-48ZM245,-14c0,0,-91,0,-145,68c0,0,-54,69,-54,183c0,0,0,128,55,240c0,0,55,112,150,177c0,0,96,66,210,66c0,0,70,0,123,-18c0,0,3,36,51,306l-115,18l6,34H768L589,52L673,33L667,0H454l22,117C476,117,350,-14,245,-14Z" 
id="f4_20"
transform="scale(0.001,-0.001)" />

<path d="M-15,-329c0,0,-61,0,-112,13l28,152h34l12,-72c0,0,18,-17,60,-17c0,0,100,0,212,202L253,9L116,649L33,668l6,33H230L338,155L513,458c0,0,48,83,48,144c0,0,0,27,-16,44c0,0,-15,16,-33,22l6,33H659c0,0,20,-17,20,-47c0,0,0,-59,-62,-164L322,-7c0,0,-86,-145,-135,-205c0,0,-50,-61,-98,-89c0,0,-49,-28,-104,-28Z" 
id="f4_2l"
transform="scale(0.001,-0.001)" />

<path d="M-6,0c0,0,-12,10,-12,32c0,0,0,21,23,51c0,0,23,31,79,82L287,354L159,649L79,668l6,33H270L378,434l93,88c0,0,47,46,67,72c0,0,19,26,19,44c0,0,0,8,-6,13c0,0,-7,6,-38,17l6,33H651c0,0,16,-12,16,-32c0,0,0,-44,-103,-142L404,377L548,49L634,33L628,0H437L313,298L185,176c0,0,-41,-40,-60,-65c0,0,-19,-26,-19,-48c0,0,0,-21,31,-29L131,0Z" 
id="f4_2k"
transform="scale(0.001,-0.001)" />

<path d="M355,0V355H0v72H355V784h72V427H782V355H427V0Z" 
id="f5_f"
transform="scale(0.001,-0.001)" />

<path d="M0,214v74H784V214ZM0,494v72H784V494Z" 
id="f5_x"
transform="scale(0.001,-0.001)" />

<path d="M31,0V33L150,52v956L31,1026v34H274V52L394,33V0Z" 
id="f2_28"
transform="scale(0.001,-0.001)" />

<path d="M495,413c0,0,0,133,-34,190c0,0,-34,57,-105,57c0,0,-78,0,-119,-63c0,0,-42,-62,-42,-184ZM374,-14c0,0,-163,0,-239,87c0,0,-75,88,-75,283c0,0,0,183,77,273c0,0,76,91,219,91c0,0,269,0,269,-306V353H194V340c0,0,0,-103,23,-160c0,0,22,-57,70,-87c0,0,47,-29,124,-29c0,0,40,0,96,6c0,0,55,7,91,15V43C598,43,562,20,500,3c0,0,-61,-17,-126,-17Z" 
id="f2_21"
transform="scale(0.001,-0.001)" />

<path d="M249,-14c0,0,-71,0,-107,42c0,0,-35,42,-35,119V639H15v33l93,29l76,159h47V701H391V639H231V161c0,0,0,-48,22,-73c0,0,22,-24,57,-24c0,0,44,0,106,12V26C416,26,389,8,340,-2c0,0,-49,-12,-91,-12Z" 
id="f2_2g"
transform="scale(0.001,-0.001)" />

<path d="M360,-14L72,649L0,668v33H327V668L216,648L420,164L615,649L504,668v33H764V668L697,652L416,-14Z" 
id="f2_2i"
transform="scale(0.001,-0.001)" />

<path d="M246,-14L105,649L21,668l7,33H219L327,155L512,458c0,0,48,78,48,144c0,0,0,28,-15,44c0,0,-16,16,-34,22l6,33H659c0,0,19,-17,19,-47c0,0,0,-66,-62,-164L301,-14Z" 
id="f4_2i"
transform="scale(0.001,-0.001)" />

<path d="M134,0V40L339,60V876L137,804v39l292,166h39V60L672,40V0Z" 
id="f2_l"
transform="scale(0.001,-0.001)" />

<path d="M83,0C83,0,48,0,24,24C24,24,0,49,0,83c0,0,0,34,24,58c0,0,24,24,59,24c0,0,34,0,58,-24c0,0,24,-24,24,-58c0,0,0,-34,-24,-59C141,24,117,0,83,0ZM695,0c0,0,-34,0,-58,24c0,0,-25,25,-25,59c0,0,0,34,25,58c0,0,24,24,58,24c0,0,34,0,58,-24c0,0,24,-24,24,-58c0,0,0,-34,-24,-59C753,24,729,0,695,0ZM388,594c0,0,-34,0,-59,23c0,0,-24,24,-24,59c0,0,0,34,24,58c0,0,25,25,59,25c0,0,34,0,58,-25c0,0,24,-24,24,-58c0,0,0,-35,-24,-59c0,0,-24,-23,-58,-23Z" 
id="f5_1s"
transform="scale(0.001,-0.001)" />

<path d="M945,-20c0,0,47,75,125,153H57v74H1147l108,91c0,0,23,19,95,72c0,0,-134,103,-203,166H57v72H1070c0,0,-78,78,-125,154h85c0,0,88,-107,217,-217c0,0,130,-110,206,-154V349c0,0,-101,-58,-219,-162c0,0,-118,-103,-204,-207Z" 
id="f5_4g"
transform="scale(0.001,-0.001)" />

<path d="M55,0V40L184,60V941L55,960v40H455V960L327,941V60L455,40V0Z" 
id="f2_19"
transform="scale(0.001,-0.001)" />

<path d="M439,0V33l93,19V500c0,0,0,62,-30,97c0,0,-31,36,-94,36c0,0,-67,0,-165,-22V52L338,33V0H35V33l84,19V649L35,668v33H235l7,-57c0,0,57,33,122,54c0,0,65,22,108,22c0,0,91,0,137,-53c0,0,47,-53,47,-154V52L741,33V0Z" 
id="f2_2a"
transform="scale(0.001,-0.001)" />

<path d="M359,-270c0,0,124,0,192,46c0,0,67,47,67,129c0,0,0,43,-26,67c0,0,-26,24,-79,24H242c0,0,-32,-27,-51,-69c0,0,-20,-41,-20,-77c0,0,0,-64,46,-92c0,0,46,-28,142,-28Zm11,561c0,0,81,0,115,47c0,0,34,47,34,141c0,0,0,100,-35,142c0,0,-35,42,-113,42c0,0,-78,0,-114,-43c0,0,-37,-42,-37,-141c0,0,0,-98,36,-143c0,0,36,-45,114,-45ZM359,-329c0,0,-143,0,-218,44c0,0,-75,43,-75,125c0,0,0,39,27,78c0,0,26,38,98,89c0,0,-43,14,-72,48c0,0,-29,35,-29,74L208,262c0,0,-118,55,-118,217c0,0,0,115,73,178c0,0,73,63,211,63c0,0,28,0,71,-6c0,0,44,-6,67,-13l165,83l26,-32L599,644c0,0,50,-56,50,-165c0,0,0,-120,-72,-182c0,0,-73,-62,-208,-62c0,0,-62,0,-114,11L208,148c0,0,2,-13,29,-24c0,0,27,-12,67,-12H512c0,0,113,0,168,-49c0,0,55,-49,55,-134c0,0,0,-79,-44,-137c0,0,-43,-58,-128,-90c0,0,-84,-31,-204,-31Z" 
id="f2_23"
transform="scale(0.001,-0.001)" />

<path d="M31,0V33l88,19V649L31,668v33H235l7,-87c0,0,44,37,121,71c0,0,76,35,121,35h11V530H463l-43,82c0,0,-37,0,-88,-10c0,0,-52,-10,-89,-26V52L363,33V0Z" 
id="f2_2e"
transform="scale(0.001,-0.001)" />

<path d="M284,67c0,0,51,0,88,12c0,0,37,12,74,30V358l-98,-3c0,0,-100,-4,-135,-39c0,0,-35,-35,-35,-117c0,0,0,-132,106,-132ZM233,-14c0,0,-179,0,-179,208c0,0,0,70,27,116c0,0,27,46,87,70c0,0,60,24,173,27l105,3V519c0,0,0,72,-26,107c0,0,-27,34,-82,34c0,0,-75,0,-137,-35L176,538H134V691c0,0,121,26,213,26c0,0,115,0,169,-47c0,0,54,-47,54,-144V52L657,33V0H465L451,70c0,0,-85,-84,-218,-84Z" 
id="f2_1x"
transform="scale(0.001,-0.001)" />

<path d="M32,0V33L151,52V649L52,668v33H275V52L395,33V0ZM201,850c0,0,-32,0,-56,24c0,0,-24,24,-24,56c0,0,0,34,24,58c0,0,24,24,56,24c0,0,34,0,58,-24c0,0,24,-24,24,-58c0,0,0,-32,-24,-56c0,0,-24,-24,-58,-24Z" 
id="f2_25"
transform="scale(0.001,-0.001)" />

<path d="M376,50c0,0,103,0,149,80c0,0,46,81,46,240c0,0,0,137,-47,204c0,0,-48,67,-148,67c0,0,-44,0,-87,-7c0,0,-44,-8,-63,-17V62c0,0,63,-12,150,-12Zm3,-64c0,0,-64,0,-141,14c0,0,-78,14,-136,37v971L0,1026v34H226V809c0,0,0,-40,-4,-148c0,0,74,59,188,59c0,0,143,0,219,-87c0,0,77,-87,77,-263c0,0,0,-189,-84,-287c0,0,-84,-97,-243,-97Z" 
id="f2_1y"
transform="scale(0.001,-0.001)" />

<path d="M377,45c0,0,99,0,147,73c0,0,47,73,47,237c0,0,0,161,-47,233c0,0,-47,72,-147,72c0,0,-97,0,-141,-69c0,0,-44,-69,-44,-236c0,0,0,-169,45,-240c0,0,44,-70,140,-70Zm0,-59c0,0,-158,0,-238,94c0,0,-81,95,-81,274c0,0,0,178,81,272c0,0,80,94,244,94c0,0,160,0,241,-92c0,0,82,-92,82,-274c0,0,0,-368,-329,-368Z" 
id="f2_2b"
transform="scale(0.001,-0.001)" />

<path d="M442,0V33l93,19V504c0,0,0,129,-124,129c0,0,-70,0,-168,-22V52L338,33V0H31V33l88,19v956L15,1026v34H243V756c0,0,0,-77,-5,-112c0,0,54,31,122,53c0,0,68,23,115,23c0,0,91,0,137,-53c0,0,47,-53,47,-154V52L744,33V0Z" 
id="f2_24"
transform="scale(0.001,-0.001)" />

<path d="M278,-14c0,0,-52,0,-115,11c0,0,-63,10,-99,23V193H98L134,95c0,0,56,-50,146,-50c0,0,144,0,144,123c0,0,0,91,-114,130l-66,21c0,0,-75,25,-110,50c0,0,-34,26,-53,63c0,0,-18,36,-18,89c0,0,0,92,63,145c0,0,63,54,170,54c0,0,77,0,193,-23V544H454l-32,81c0,0,-39,35,-124,35c0,0,-61,0,-92,-30c0,0,-32,-30,-32,-80c0,0,0,-43,29,-72c0,0,28,-29,86,-48c0,0,110,-38,144,-55c0,0,33,-17,57,-42c0,0,23,-25,36,-57c0,0,13,-32,13,-79c0,0,0,-104,-66,-158c0,0,-66,-53,-195,-53Z" 
id="f2_2f"
transform="scale(0.001,-0.001)" />

<path d="M115,-329V1060h76V-329Z" 
id="f2_2o"
transform="scale(0.001,-0.001)" />

<path d="M521,-14c0,0,-205,0,-320,107C201,93,85,200,85,390c0,0,0,185,77,326c0,0,77,142,220,219c0,0,142,76,324,76c0,0,158,0,327,-38L1000,755H951V884c0,0,-46,32,-112,50c0,0,-65,17,-137,17c0,0,-135,0,-242,-72c0,0,-107,-72,-166,-203c0,0,-60,-132,-60,-301c0,0,0,-160,78,-244c0,0,78,-84,222,-84c0,0,85,0,166,25c0,0,82,26,133,65l53,149h49L889,52C889,52,803,20,705,3c0,0,-99,-17,-184,-17Z" 
id="f4_13"
transform="scale(0.001,-0.001)" />

<path d="M0,356v74H784V356Z" 
id="f5_h"
transform="scale(0.001,-0.001)" />

<path d="M420,-22L89,941L1,960v40H383V960L236,941L474,236L744,930h33L1037,236l227,705l-156,19v40h331V960l-87,-19L1025,-22H985L726,666L460,-22Z" 
id="f2_1n"
transform="scale(0.001,-0.001)" />

<path d="M58,-234v58c0,0,131,42,131,125c0,0,0,15,-11,27c0,0,-11,12,-38,25C140,1,89,27,89,75c0,0,0,40,25,61c0,0,26,21,65,21c0,0,48,0,77,-34c0,0,30,-34,30,-86c0,0,0,-101,-60,-170c0,0,-59,-69,-168,-101Z" 
id="f2_g"
transform="scale(0.001,-0.001)" />

<path d="M577,-14c0,0,-243,0,-379,132C198,118,63,250,63,488c0,0,0,258,130,391c0,0,131,132,387,132c0,0,156,0,335,-38l5,-218H871L848,884c0,0,-52,32,-121,50c0,0,-69,17,-141,17c0,0,-191,0,-279,-112c0,0,-88,-113,-88,-349c0,0,0,-217,92,-332c0,0,92,-115,268,-115c0,0,85,0,160,20c0,0,76,21,120,55l27,149h49L930,32c0,0,-164,-46,-353,-46Z" 
id="f2_13"
transform="scale(0.001,-0.001)" />

<path d="M122,0V64L295,82V837L123,780v64l282,165H511V82L685,64V0Z" 
id="f6_l"
transform="scale(0.001,-0.001)" />

<path d="M160,0L581,834H186L152,715H87v285H727V941L338,0Z" 
id="f6_r"
transform="scale(0.001,-0.001)" />

<path d="M191,-20c0,0,-51,0,-88,34c0,0,-36,36,-36,88c0,0,0,52,36,88c0,0,36,36,88,36c0,0,51,0,88,-36c0,0,36,-36,36,-88c0,0,0,-51,-36,-87c0,0,-36,-35,-88,-35Z" 
id="f6_i"
transform="scale(0.001,-0.001)" />

<path d="M54,0V40L172,60V941L44,960v40H794V760H745L721,922c0,0,-83,11,-241,11H316V516H611l23,120h46V328H634L611,449H316V60L483,40V0Z" 
id="f2_16"
transform="scale(0.001,-0.001)" />

<path d="M327,-14L84,649L1,668v33H335V668L219,648L385,174L554,632h63L786,171L944,649L830,668v33h267V668l-78,-16L784,-14H726L553,448L382,-14Z" 
id="f2_2j"
transform="scale(0.001,-0.001)" />

<path d="M399,-14c0,0,-341,0,-341,370c0,0,0,175,87,269c0,0,87,95,249,95c0,0,101,0,220,-23V501H573L541,625c0,0,-62,35,-149,35c0,0,-200,0,-200,-304c0,0,0,-158,61,-225c0,0,61,-67,189,-67c0,0,109,0,189,24V43C631,43,595,16,530,1c0,0,-64,-15,-131,-15Z" 
id="f2_1z"
transform="scale(0.001,-0.001)" />

<path d="M465,786H442L239,946L67,786H45l141,248H324L465,786Z" 
id="f3_5z"
transform="scale(0.001,-0.001)" />

<path d="M64,0V34L168,59V639H47v36l121,29v49c0,0,0,155,61,239c0,0,62,84,173,84c0,0,58,0,107,-15V908H472l-33,92c0,0,-26,16,-62,16c0,0,-47,0,-66,-42c0,0,-19,-42,-19,-157V701H478V639H292V59L443,34V0Z" 
id="f2_22"
transform="scale(0.001,-0.001)" />

<path d="M301,78c0,0,85,0,185,104l81,442c0,0,-29,20,-55,28c0,0,-25,8,-62,8c0,0,-75,0,-137,-56c0,0,-62,-56,-98,-152c0,0,-36,-95,-36,-199c0,0,0,-79,33,-127c0,0,33,-48,89,-48ZM245,-14c0,0,-90,0,-145,66c0,0,-54,66,-54,182c0,0,0,131,57,244c0,0,57,114,152,178c0,0,96,64,208,64c0,0,90,0,170,-33l33,26h40L589,52L673,33L667,0H454l22,117C476,117,350,-14,245,-14Z" 
id="f4_1x"
transform="scale(0.001,-0.001)" />

<path d="M305,45c0,0,76,0,141,56c0,0,64,56,101,151c0,0,37,95,37,200c0,0,0,83,-35,129c0,0,-34,46,-92,46c0,0,-44,0,-96,-29c0,0,-51,-29,-97,-75L185,81c0,0,43,-36,120,-36ZM295,-14c0,0,-65,0,-128,16C167,2,104,19,57,48l171,960l-100,18l6,34H358L303,731c0,0,-13,-85,-29,-144c0,0,59,61,122,97c0,0,64,36,116,36c0,0,94,0,150,-67c0,0,56,-67,56,-182c0,0,0,-129,-56,-242C662,229,606,115,509,50c0,0,-98,-64,-214,-64Z" 
id="f4_1y"
transform="scale(0.001,-0.001)" />

<path d="M85,0L199,649l-96,19l6,33H332L218,52L335,33L329,0ZM297,849c0,0,-33,0,-57,24c0,0,-24,24,-24,57c0,0,0,33,24,57c0,0,24,24,57,24c0,0,33,0,57,-24c0,0,24,-24,24,-57c0,0,0,-33,-24,-57c0,0,-24,-24,-57,-24Z" 
id="f4_25"
transform="scale(0.001,-0.001)" />

<path d="M-43,-325c0,0,-60,0,-119,23l24,140h35l12,-83c0,0,20,-20,52,-20c0,0,48,0,76,48c0,0,28,48,46,151L210,649L107,668l6,33H342L213,-28c0,0,-27,-151,-90,-224c0,0,-63,-73,-166,-73ZM306,849c0,0,-33,0,-57,24c0,0,-24,24,-24,57c0,0,0,33,24,57c0,0,24,24,57,24c0,0,33,0,57,-24c0,0,24,-24,24,-57c0,0,0,-33,-24,-57c0,0,-24,-24,-57,-24Z" 
id="f4_26"
transform="scale(0.001,-0.001)" />

<path d="M44,0L223,1008l-101,18l6,34H356L228,338L547,647l-70,20l6,34H700l-5,-34L634,650L415,441L596,51L669,34L663,0H487L324,357L214,254L168,0Z" 
id="f4_27"
transform="scale(0.001,-0.001)" />

<path d="M382,45c0,0,188,0,188,314c0,0,0,143,-47,213c0,0,-46,69,-141,69c0,0,-87,0,-146,-24V58c0,0,67,-13,146,-13ZM25,-325v35l88,18V649L34,668v33H231l1,-41c0,0,31,27,84,43c0,0,53,17,107,17c0,0,134,0,208,-94c0,0,73,-93,73,-267c0,0,0,-178,-80,-276c0,0,-80,-97,-232,-97c0,0,-84,0,-160,16c0,0,4,-53,4,-84V-272l123,-18v-35Z" 
id="f2_2c"
transform="scale(0.001,-0.001)" />

<path d="M289,-14c0,0,-179,0,-179,205V649L20,668v33H233V200c0,0,0,-128,120,-128c0,0,92,0,173,23V649L420,668v33H649V52L738,33V0H533l-6,57C527,57,474,28,405,7c0,0,-69,-21,-116,-21Z" 
id="f2_2h"
transform="scale(0.001,-0.001)" />

<path d="M191,-20c0,0,-39,0,-65,25c0,0,-25,27,-25,64c0,0,0,38,26,64c0,0,26,26,64,26c0,0,38,0,64,-26c0,0,26,-26,26,-64c0,0,0,-37,-25,-64c0,0,-26,-25,-65,-25Z" 
id="f2_i"
transform="scale(0.001,-0.001)" />

<path d="M410,-14c0,0,-86,0,-175,14C235,0,145,14,81,38V307h66L181,146c0,0,31,-37,94,-62c0,0,64,-24,132,-24c0,0,214,0,214,177c0,0,0,55,-41,93c0,0,-41,38,-128,68c0,0,-128,42,-185,68c0,0,-56,27,-95,63c0,0,-38,36,-62,87c0,0,-23,51,-23,125c0,0,0,132,90,201c0,0,90,69,263,69c0,0,125,0,278,-32V741H651L618,878c0,0,-76,56,-178,56c0,0,-92,0,-141,-34c0,0,-49,-34,-49,-104c0,0,0,-50,41,-86c0,0,41,-35,128,-63c0,0,171,-56,235,-97c0,0,64,-41,97,-103c0,0,34,-61,34,-143c0,0,0,-318,-375,-318Z" 
id="f6_1j"
transform="scale(0.001,-0.001)" />

<path d="M379,60c0,0,59,0,84,64c0,0,24,65,24,231c0,0,0,164,-24,227c0,0,-24,63,-84,63c0,0,-57,0,-80,-60c0,0,-22,-61,-22,-230c0,0,0,-173,23,-234c0,0,22,-61,79,-61Zm-2,-74c0,0,-161,0,-240,91c0,0,-79,91,-79,277c0,0,0,186,80,276c0,0,81,90,245,90c0,0,167,0,245,-93c0,0,78,-93,78,-273c0,0,0,-188,-81,-278c0,0,-81,-90,-248,-90Z" 
id="f6_2b"
transform="scale(0.001,-0.001)" />

<path d="M30,0V49l76,18V992l-72,18v50H322V67L398,49V0Z" 
id="f6_28"
transform="scale(0.001,-0.001)" />

<path d="M287,-18c0,0,-194,0,-194,206V634L23,652v49H309V217c0,0,0,-63,26,-98c0,0,27,-35,76,-35c0,0,57,0,113,25V634l-64,18v49H740V67L809,49V0H536L526,61L475,35c0,0,-104,-53,-188,-53Z" 
id="f6_2h"
transform="scale(0.001,-0.001)" />

<path d="M327,-14c0,0,-101,0,-156,45c0,0,-55,45,-55,131V624H25v48l108,29l87,159H332V701H480V624H332V176c0,0,0,-49,20,-73c0,0,20,-25,53,-25c0,0,40,0,97,12V26c0,0,-22,-15,-76,-27c0,0,-55,-13,-99,-13Z" 
id="f6_2g"
transform="scale(0.001,-0.001)" />

<path d="M34,0V49l76,18V634L38,652v49H325V67L402,49V0ZM217,831c0,0,-48,0,-81,33c0,0,-34,33,-34,82c0,0,0,48,34,81c0,0,34,33,81,33c0,0,48,0,81,-33c0,0,33,-33,33,-81c0,0,0,-47,-33,-81c0,0,-32,-34,-81,-34Z" 
id="f6_25"
transform="scale(0.001,-0.001)" />

<path d="M41,0V49l69,18V634L41,652v49H313l11,-61l50,26c0,0,105,54,188,54c0,0,194,0,194,-207V67L827,49V0H478V49l63,18V484c0,0,0,63,-27,98c0,0,-26,35,-75,35c0,0,-57,0,-114,-25V67L389,49V0Z" 
id="f6_2a"
transform="scale(0.001,-0.001)" />

<path d="M248,-20c0,0,-52,0,-87,34c0,0,-36,36,-36,88c0,0,0,52,36,88c0,0,35,36,87,36c0,0,52,0,88,-36c0,0,36,-36,36,-88c0,0,0,-51,-36,-87c0,0,-35,-35,-88,-35Zm0,488c0,0,-52,0,-87,36c0,0,-36,36,-36,88c0,0,0,52,35,88c0,0,35,36,88,36c0,0,53,0,89,-36c0,0,35,-37,35,-88c0,0,0,-51,-36,-87c0,0,-35,-37,-88,-37Z" 
id="f6_u"
transform="scale(0.001,-0.001)" />

<path d="M350,-14c0,0,-142,0,-253,31L89,228h49L172,87c0,0,32,-18,78,-29c0,0,46,-11,88,-11c0,0,118,0,173,56c0,0,56,55,56,187c0,0,0,93,-24,140c0,0,-24,47,-76,70c0,0,-52,22,-140,22c0,0,-68,0,-133,-18H122v496H630V886H189V567c0,0,81,18,173,18c0,0,173,0,258,-71c0,0,84,-71,84,-216c0,0,0,-151,-92,-232c0,0,-91,-80,-262,-80Z" 
id="f2_p"
transform="scale(0.001,-0.001)" />

<path d="M577,-14c0,0,-243,0,-379,131C198,117,63,248,63,488c0,0,0,263,131,393c0,0,132,130,386,130c0,0,182,0,352,-45V751H882L862,875c0,0,-52,37,-124,57c0,0,-72,19,-152,19c0,0,-191,0,-279,-113c0,0,-88,-114,-88,-348c0,0,0,-220,91,-333c0,0,91,-114,269,-114c0,0,63,0,131,15c0,0,69,15,105,36V377L686,397v40h370V397L958,377V52C958,52,871,24,778,5c0,0,-93,-19,-201,-19Z" 
id="f2_17"
transform="scale(0.001,-0.001)" />

<path d="M338,28c0,0,48,0,91,45c0,0,43,45,65,144c0,0,22,99,26,276H143c0,0,3,-133,20,-239c0,0,13,-80,44,-140c0,0,19,-36,54,-61c0,0,36,-25,77,-25ZM522,543c0,0,-1,194,-37,312c0,0,-29,90,-76,129c0,0,-34,28,-79,28c0,0,-51,0,-93,-39c0,0,-43,-40,-65,-132c0,0,-22,-93,-29,-298ZM329,-21c0,0,-68,0,-124,31c0,0,-56,33,-99,95c0,0,-43,62,-66,131C40,236,0,356,0,489c0,0,0,294,119,453c0,0,91,119,217,119c0,0,122,0,209,-115c0,0,121,-160,121,-436c0,0,0,-263,-119,-415C547,95,455,-21,329,-21Z" 
id="f5_2d"
transform="scale(0.001,-0.001)" />

<path d="M140,-21c0,0,-26,0,-44,17C96,-4,79,13,79,40c0,0,0,19,6,33c0,0,8,20,34,55c0,0,46,60,64,126c0,0,32,114,41,321H190c0,0,-55,0,-81,-18c0,0,-44,-26,-80,-89H0c0,0,42,129,98,178c0,0,43,37,120,37H743V575H562c0,0,-27,-171,-27,-327c0,0,0,-77,27,-110c0,0,27,-33,67,-33c0,0,33,0,56,22c0,0,24,22,31,65h27C743,192,730,74,686,26c0,0,-44,-47,-98,-47c0,0,-58,0,-97,51c0,0,-39,53,-39,198c0,0,0,91,28,347H286c0,0,-23,-390,-56,-494c0,0,-33,-102,-90,-102Z" 
id="f5_2c"
transform="scale(0.001,-0.001)" />

<path d="M449,50c0,0,162,0,276,114L353,504c0,0,-78,-33,-114,-91c0,0,-35,-57,-35,-139c0,0,0,-108,63,-166c0,0,63,-58,182,-58ZM439,605c0,0,72,27,104,53c0,0,31,25,47,63c0,0,16,37,16,92c0,0,0,143,-135,143c0,0,-79,0,-113,-36c0,0,-34,-35,-34,-107c0,0,0,-121,115,-208ZM429,-14c0,0,-185,0,-278,71c0,0,-93,72,-93,209c0,0,0,72,27,124c0,0,27,52,73,89c0,0,46,37,146,75c0,0,-112,109,-112,244c0,0,0,107,71,162c0,0,72,56,208,56c0,0,130,0,198,-53c0,0,69,-53,69,-155c0,0,0,-58,-25,-101c0,0,-25,-42,-71,-75c0,0,-45,-32,-152,-74L805,272c0,0,72,147,77,271L776,563v39h341V563L1013,543c0,0,-57,-198,-145,-329L1038,59L1161,40V0H904L777,116C777,116,699,46,614,16c0,0,-84,-30,-185,-30Z" 
id="f2_a"
transform="scale(0.001,-0.001)" />

<path d="M410,45c0,0,90,0,130,58c0,0,40,59,40,193c0,0,0,122,-38,177c0,0,-38,54,-122,54c0,0,-102,0,-217,-37c0,0,0,-227,51,-336c0,0,52,-109,156,-109Zm3,-59c0,0,-169,0,-258,131c0,0,-89,131,-89,377c0,0,0,161,47,278c0,0,47,117,131,178c0,0,85,61,196,61c0,0,109,0,217,-26V813H608L582,915c0,0,-25,13,-67,23c0,0,-41,10,-75,10c0,0,-109,0,-170,-105c0,0,-60,-106,-66,-308c0,0,121,63,244,63c0,0,132,0,201,-74c0,0,69,-74,69,-214c0,0,0,-156,-78,-240c0,0,-79,-84,-227,-84Z" 
id="f2_q"
transform="scale(0.001,-0.001)" />

<path d="M52,62L0,114L278,390L0,667l52,52L330,442L608,719l51,-51L382,390L659,114L608,62L330,338L52,62Z" 
id="f5_3a"
transform="scale(0.001,-0.001)" />

<path d="M377,60c0,0,65,0,94,49c0,0,30,49,30,160c0,0,0,115,-30,168c0,0,-29,52,-94,52c0,0,-61,0,-88,-51c0,0,-26,-51,-26,-169c0,0,0,-115,27,-162c0,0,27,-47,87,-47Zm2,509c0,0,51,0,75,43c0,0,24,43,24,143c0,0,0,98,-24,142c0,0,-25,45,-75,45c0,0,-48,0,-71,-45c0,0,-22,-44,-22,-142c0,0,0,-102,22,-144c0,0,22,-42,71,-42ZM377,-14c0,0,-326,0,-326,284c0,0,0,95,46,162c0,0,46,68,128,98c0,0,-72,28,-112,85c0,0,-39,58,-39,141c0,0,0,123,81,191c0,0,81,69,228,69c0,0,145,0,226,-70c0,0,81,-70,81,-192c0,0,0,-82,-40,-140c0,0,-41,-58,-114,-84c0,0,86,-32,132,-99c0,0,45,-67,45,-161c0,0,0,-142,-82,-213c0,0,-81,-71,-254,-71Z" 
id="f6_s"
transform="scale(0.001,-0.001)" />

<path d="M410,-14c0,0,-80,0,-162,14c0,0,-81,14,-144,38V270h48L178,134c0,0,28,-35,95,-62c0,0,68,-27,134,-27c0,0,104,0,163,53c0,0,58,54,58,148c0,0,0,54,-23,89c0,0,-22,35,-59,59c0,0,-37,24,-84,41c0,0,-47,17,-97,34c0,0,-49,17,-96,38c0,0,-47,21,-84,53c0,0,-37,32,-60,79c0,0,-23,48,-23,117c0,0,0,119,90,187c0,0,89,68,248,68c0,0,121,0,263,-32V771H654L628,893c0,0,-76,55,-188,55c0,0,-100,0,-156,-40c0,0,-56,-41,-56,-112c0,0,0,-49,22,-81c0,0,23,-32,60,-55c0,0,37,-22,84,-39c0,0,48,-16,97,-34c0,0,50,-17,97,-39c0,0,48,-22,85,-56c0,0,36,-34,59,-83c0,0,23,-49,23,-120c0,0,0,-145,-89,-224c0,0,-89,-79,-256,-79Z" 
id="f2_1j"
transform="scale(0.001,-0.001)" />

<path d="M476,327V830h-4L114,327ZM476,0V220H30v99l488,686h86V327H740V220H604V0Z" 
id="f2_o"
transform="scale(0.001,-0.001)" />

<path d="M-16,0l7,34L410,641H299c0,0,-42,0,-81,-7c0,0,-40,-7,-58,-19L119,514H84l34,187H574l-6,-36L149,60H296c0,0,42,0,81,9c0,0,40,9,66,26l57,109h35L481,0Z" 
id="f4_2m"
transform="scale(0.001,-0.001)" />

<path d="M620,-14c0,0,-52,0,-93,43c0,0,-41,45,-77,203L384,522L132,0H0L340,703l-12,66c0,0,-23,107,-61,146c0,0,-37,38,-83,38c0,0,-42,0,-74,-30c0,0,-31,-31,-41,-100H43c0,0,2,117,57,187c0,0,40,51,96,51c0,0,50,0,86,-40c0,0,54,-60,88,-213L489,283c0,0,27,-118,62,-153c0,0,33,-36,79,-36c0,0,43,0,71,29c0,0,28,29,33,94h30c0,0,1,-19,1,-29c0,0,0,-98,-49,-158c0,0,-37,-44,-96,-44Z" 
id="f5_28"
transform="scale(0.001,-0.001)" />


</defs>
</svg>