<?xml version="1.0" encoding="UTF-8" standalone="no"?>
<!DOCTYPE svg PUBLIC "-//W3C//DTD SVG 1.1//EN"
"http://www.w3.org/Graphics/SVG/1.1/DTD/svg11.dtd">
<svg viewBox="0 0 909 1286" version="1.1" xmlns="http://www.w3.org/2000/svg" xmlns:xlink="http://www.w3.org/1999/xlink">
<defs>
<clipPath id="c0_136"><path d="M75,257.9V171.7H259.4v86.2Z" /></clipPath>
<clipPath id="c1_136"><path d="M86.7,367.6V281.3H366.2v86.3Z" /></clipPath>
<clipPath id="c2_136"><path d="M190.1,510.9v-52h89.7v52Z" /></clipPath>
<clipPath id="c3_136"><path d="M55.2,620.9V534.7h128v86.2Z" /></clipPath>
<clipPath id="c4_136"><path d="M55.2,730.9V644.7H182.5v86.2Z" /></clipPath>
<clipPath id="c5_136"><path d="M55.2,840.6V754.3H252.4v86.3Z" /></clipPath>
<clipPath id="c6_136"><path d="M55.2,950.6V864.3H263.3v86.3Z" /></clipPath>
<clipPath id="c7_136"><path d="M55.2,1037.5V951.2h97.5v86.3Z" /></clipPath>
<clipPath id="c8_136"><path d="M132.2,1178.3v-48.8h31.1v48.8Z" /></clipPath>
<clipPath id="c9_136"><path d="M549.8,1178.3v-48.8h28.7v48.8Z" /></clipPath>
<style type="text/css"><![CDATA[
.g0_136{
fill: #D9D9D9;
}
.g1_136{
fill: none;
stroke: #000000;
stroke-width: 0.7638889;
stroke-linecap: butt;
stroke-linejoin: miter;
}
.g2_136{
fill: none;
stroke: #000000;
stroke-width: 0.7583829;
stroke-linecap: butt;
stroke-linejoin: round;
}
.g3_136{
fill: none;
stroke: #000000;
stroke-width: 0.7838381;
stroke-linecap: butt;
stroke-linejoin: round;
}
.g4_136{
fill: none;
stroke: #000000;
stroke-width: 0.75760806;
stroke-linecap: butt;
stroke-linejoin: round;
}
.g5_136{
fill: none;
stroke: #000000;
stroke-width: 0.7584437;
stroke-linecap: butt;
stroke-linejoin: round;
}
.g6_136{
fill: none;
stroke: #000000;
stroke-width: 0.77685595;
stroke-linecap: butt;
stroke-linejoin: round;
}
.g7_136{
fill: none;
stroke: #000000;
stroke-width: 0.7874104;
stroke-linecap: butt;
stroke-linejoin: round;
}
.g8_136{
}
]]></style>
</defs>
<image preserveAspectRatio="none" x="747" y="1196" width="96" height="59" xlink:href="img/1.png" />
<image preserveAspectRatio="none" x="336" y="41" width="259" height="51" xlink:href="img/2.png" />
<image preserveAspectRatio="none" x="342" y="50" width="247" height="27" xlink:href="img/3.png" />
<image preserveAspectRatio="none" x="341" y="45" width="239" height="42" xlink:href="img/4.png" />
<g fill="#FFFFFF" >
<use xlink:href="#f0_j" transform="matrix(11.5,0,0,11.5,355.1,70.1)" />
<use xlink:href="#f0_i" transform="matrix(11.5,0,0,11.5,364.3,70.1)" />
<use xlink:href="#f0_2n" transform="matrix(11.5,0,0,11.5,374.1,70.1)" />
<use xlink:href="#f0_t" transform="matrix(11.5,0,0,11.5,382.6,70.1)" />
<use xlink:href="#f0_oj" transform="matrix(11.5,0,0,11.5,391,70.1)" />
<use xlink:href="#f0_3e" transform="matrix(11.5,0,0,11.5,396.5,70.1)" />
<use xlink:href="#f0_1c" transform="matrix(11.5,0,0,11.5,406.1,70.1)" />
<use xlink:href="#f0_1c" transform="matrix(11.5,0,0,11.5,410.8,70.1)" />
<use xlink:href="#f0_oj" transform="matrix(11.5,0,0,11.5,415.6,70.1)" />
<use xlink:href="#f0_rz" transform="matrix(11.5,0,0,11.5,421.1,70.1)" />
<use xlink:href="#f0_rx" transform="matrix(11.5,0,0,11.5,429.9,70.1)" />
<use xlink:href="#f0_ry" transform="matrix(11.5,0,0,11.5,438.7,70.1)" />
<use xlink:href="#f0_s6" transform="matrix(11.5,0,0,11.5,447.5,70.1)" />
<use xlink:href="#f0_t" transform="matrix(11.5,0,0,11.5,460.4,70.1)" />
<use xlink:href="#f0_3e" transform="matrix(11.5,0,0,11.5,468.8,70.1)" />
<use xlink:href="#f0_5" transform="matrix(11.5,0,0,11.5,478.3,70.1)" />
<use xlink:href="#f0_1x" transform="matrix(11.5,0,0,11.5,489,70.1)" />
<use xlink:href="#f0_1c" transform="matrix(11.5,0,0,11.5,504.4,70.1)" />
<use xlink:href="#f0_1y" transform="matrix(11.5,0,0,11.5,509.1,70.1)" />
<use xlink:href="#f0_5" transform="matrix(11.5,0,0,11.5,520.8,70.1)" />
<use xlink:href="#f0_2t" transform="matrix(11.5,0,0,11.5,531.5,70.1)" />
<use xlink:href="#f0_1c" transform="matrix(11.5,0,0,11.5,540.2,70.1)" />
<use xlink:href="#f0_24" transform="matrix(11.5,0,0,11.5,545,70.1)" />
<use xlink:href="#f0_1y" transform="matrix(11.5,0,0,11.5,556.7,70.1)" />
</g>
<image preserveAspectRatio="none" x="554" y="45" width="36" height="42" xlink:href="img/5.png" />
<g fill="#FFFFFF" >
<use xlink:href="#f1_l" transform="matrix(11,0,0,11,770.3,1227.6)" />
<use xlink:href="#f1_s" transform="matrix(11,0,0,11,779.1,1227.6)" />
<use xlink:href="#f1_j" transform="matrix(11,0,0,11,792.3,1227.6)" />
<use xlink:href="#f1_m" transform="matrix(11,0,0,11,802.9,1227.6)" />
<use xlink:href="#f1_p" transform="matrix(11,0,0,11,811.7,1227.6)" />
</g>
<path fill-rule="evenodd" d="M52.8,1193.5H856.9v-.8H52.8v.8Z" class="g0_136" />
<path d="M37.9,99.4L873,98.5" class="g1_136" />
<g fill="#000000" >
<use xlink:href="#f2_1n" transform="matrix(12,0,0,12,55,144.1)" />
<use xlink:href="#f2_21" transform="matrix(12,0,0,12,71.9,144.1)" />
<use xlink:href="#f2_1z" transform="matrix(12,0,0,12,84.7,144.1)" />
<use xlink:href="#f2_1x" transform="matrix(12,0,0,12,92.8,144.1)" />
<use xlink:href="#f2_2a" transform="matrix(12,0,0,12,101.2,144.1)" />
<use xlink:href="#f2_2e" transform="matrix(12,0,0,12,114.7,144.1)" />
<use xlink:href="#f2_21" transform="matrix(12,0,0,12,121,144.1)" />
<use xlink:href="#f2_2c" transform="matrix(12,0,0,12,129,144.1)" />
<use xlink:href="#f2_2e" transform="matrix(12,0,0,12,138.2,144.1)" />
<use xlink:href="#f2_21" transform="matrix(12,0,0,12,144.4,144.1)" />
<use xlink:href="#f2_2f" transform="matrix(12,0,0,12,152.5,144.1)" />
<use xlink:href="#f2_21" transform="matrix(12,0,0,12,159.4,144.1)" />
<use xlink:href="#f2_2a" transform="matrix(12,0,0,12,167.9,144.1)" />
<use xlink:href="#f2_2g" transform="matrix(12,0,0,12,176.7,144.1)" />
<use xlink:href="#f2_2g" transform="matrix(12,0,0,12,186.5,144.1)" />
<use xlink:href="#f2_24" transform="matrix(12,0,0,12,192,144.1)" />
<use xlink:href="#f2_21" transform="matrix(12,0,0,12,200.8,144.1)" />
<use xlink:href="#f2_23" transform="matrix(12,0,0,12,213.6,144.1)" />
<use xlink:href="#f2_25" transform="matrix(12,0,0,12,223.2,144.1)" />
<use xlink:href="#f2_2i" transform="matrix(12,0,0,12,227.9,144.1)" />
<use xlink:href="#f2_21" transform="matrix(12,0,0,12,236.7,144.1)" />
<use xlink:href="#f2_2a" transform="matrix(12,0,0,12,245.1,144.1)" />
<use xlink:href="#f2_2d" transform="matrix(12,0,0,12,258.7,144.1)" />
<use xlink:href="#f2_2h" transform="matrix(12,0,0,12,267.8,144.1)" />
<use xlink:href="#f2_21" transform="matrix(12,0,0,12,277,144.1)" />
<use xlink:href="#f2_2f" transform="matrix(12,0,0,12,285.1,144.1)" />
<use xlink:href="#f2_2g" transform="matrix(12,0,0,12,292,144.1)" />
<use xlink:href="#f2_25" transform="matrix(12,0,0,12,297.9,144.1)" />
<use xlink:href="#f2_2b" transform="matrix(12,0,0,12,302.3,144.1)" />
<use xlink:href="#f2_2a" transform="matrix(12,0,0,12,311.8,144.1)" />
<use xlink:href="#f2_25" transform="matrix(12,0,0,12,325.7,144.1)" />
<use xlink:href="#f2_2a" transform="matrix(12,0,0,12,330.5,144.1)" />
<use xlink:href="#f2_29" transform="matrix(12,0,0,12,344.4,144.1)" />
<use xlink:href="#f2_1x" transform="matrix(12,0,0,12,358.3,144.1)" />
<use xlink:href="#f2_2g" transform="matrix(12,0,0,12,366.4,144.1)" />
<use xlink:href="#f2_2e" transform="matrix(12,0,0,12,371.9,144.1)" />
<use xlink:href="#f2_25" transform="matrix(12,0,0,12,378.1,144.1)" />
<use xlink:href="#f2_2k" transform="matrix(12,0,0,12,382.9,144.1)" />
<use xlink:href="#f2_29" transform="matrix(12,0,0,12,396.8,144.1)" />
<use xlink:href="#f2_2h" transform="matrix(12,0,0,12,410.7,144.1)" />
<use xlink:href="#f2_28" transform="matrix(12,0,0,12,420.2,144.1)" />
<use xlink:href="#f2_2g" transform="matrix(12,0,0,12,425.3,144.1)" />
<use xlink:href="#f2_25" transform="matrix(12,0,0,12,430.9,144.1)" />
<use xlink:href="#f2_2c" transform="matrix(12,0,0,12,435.3,144.1)" />
<use xlink:href="#f2_28" transform="matrix(12,0,0,12,444.8,144.1)" />
<use xlink:href="#f2_25" transform="matrix(12,0,0,12,449.9,144.1)" />
<use xlink:href="#f2_1z" transform="matrix(12,0,0,12,454.7,144.1)" />
<use xlink:href="#f2_1x" transform="matrix(12,0,0,12,462.7,144.1)" />
<use xlink:href="#f2_2g" transform="matrix(12,0,0,12,470.8,144.1)" />
<use xlink:href="#f2_25" transform="matrix(12,0,0,12,476.6,144.1)" />
<use xlink:href="#f2_2b" transform="matrix(12,0,0,12,481,144.1)" />
<use xlink:href="#f2_2a" transform="matrix(12,0,0,12,490.6,144.1)" />
<use xlink:href="#f2_1x" transform="matrix(12,0,0,12,504.1,144.1)" />
<use xlink:href="#f2_2f" transform="matrix(12,0,0,12,512.2,144.1)" />
<use xlink:href="#f2_u" transform="matrix(12,0,0,12,523.9,144.1)" />
<use xlink:href="#f2_14" transform="matrix(12,0,0,12,55,166.9)" />
<use xlink:href="#f2_1o" transform="matrix(12,0,0,12,68.3,166.9)" />
<use xlink:href="#f2_x" transform="matrix(12,0,0,12,86.2,166.9)" />
<use xlink:href="#f2_15" transform="matrix(12,0,0,12,101.2,166.9)" />
<use xlink:href="#f2_2b" transform="matrix(12,0,0,12,55,219.7)" />
<use xlink:href="#f2_2e" transform="matrix(12,0,0,12,64.6,219.7)" />
</g>
<g clip-path="url(#c0_136)">
<g fill="#000000" >
<use xlink:href="#f2_n" transform="matrix(12.6,0,0,12.3,85.9,192.5)" />
<use xlink:href="#f2_m" transform="matrix(12.6,0,0,12.3,112.3,192.5)" />
<use xlink:href="#f2_l" transform="matrix(12.6,0,0,12.3,137.8,192.5)" />
<use xlink:href="#f2_l" transform="matrix(12.6,0,0,12.3,209.1,192.5)" />
<use xlink:href="#f2_q" transform="matrix(12.6,0,0,12.3,218.3,192.5)" />
<use xlink:href="#f2_k" transform="matrix(12.6,0,0,12.3,227.5,192.5)" />
<use xlink:href="#f2_k" transform="matrix(12.6,0,0,12.3,236.6,192.5)" />
<use xlink:href="#f2_o" transform="matrix(12.6,0,0,12.3,85.9,220.2)" />
<use xlink:href="#f2_l" transform="matrix(12.6,0,0,12.3,112,220.2)" />
<use xlink:href="#f2_n" transform="matrix(12.6,0,0,12.3,138.1,220.2)" />
<use xlink:href="#f2_m" transform="matrix(12.6,0,0,12.3,211.1,220.2)" />
<use xlink:href="#f2_n" transform="matrix(12.6,0,0,12.3,220.3,220.2)" />
<use xlink:href="#f2_k" transform="matrix(12.6,0,0,12.3,229.5,220.2)" />
<use xlink:href="#f2_k" transform="matrix(12.6,0,0,12.3,238.6,220.2)" />
<use xlink:href="#f2_l" transform="matrix(12.6,0,0,12.3,85.6,247.9)" />
<use xlink:href="#f2_l" transform="matrix(12.6,0,0,12.3,112,247.9)" />
<use xlink:href="#f2_l" transform="matrix(12.6,0,0,12.3,137.8,247.9)" />
<use xlink:href="#f2_t" transform="matrix(12.6,0,0,12.3,210.5,247.9)" />
<use xlink:href="#f2_k" transform="matrix(12.6,0,0,12.3,219.7,247.9)" />
<use xlink:href="#f2_k" transform="matrix(12.6,0,0,12.3,228.8,247.9)" />
<use xlink:href="#f3_2k" transform="matrix(12.6,0,0,12.3,166.1,192.5)" />
<use xlink:href="#f3_2l" transform="matrix(12.6,0,0,12.3,166.9,220.2)" />
<use xlink:href="#f3_2m" transform="matrix(12.6,0,0,12.3,166.1,247.9)" />
<use xlink:href="#f4_4r" transform="matrix(12.6,0,0,12.3,78,193.9)" />
<use xlink:href="#f4_57" transform="matrix(12.6,0,0,12.3,147.4,193.9)" />
<use xlink:href="#f4_4r" transform="matrix(12.6,0,0,12.3,157.3,193.9)" />
<use xlink:href="#f4_57" transform="matrix(12.6,0,0,12.3,176.4,193.9)" />
<use xlink:href="#f4_4r" transform="matrix(12.6,0,0,12.3,203.2,193.9)" />
<use xlink:href="#f4_57" transform="matrix(12.6,0,0,12.3,248.5,193.9)" />
<use xlink:href="#f4_4s" transform="matrix(12.6,0,0,12.3,78,211.5)" />
<use xlink:href="#f4_58" transform="matrix(12.6,0,0,12.3,147.4,211.5)" />
<use xlink:href="#f4_4s" transform="matrix(12.6,0,0,12.3,157.3,211.5)" />
<use xlink:href="#f4_58" transform="matrix(12.6,0,0,12.3,176.4,211.5)" />
<use xlink:href="#f4_4s" transform="matrix(12.6,0,0,12.3,203.2,211.5)" />
<use xlink:href="#f4_58" transform="matrix(12.6,0,0,12.3,248.5,211.5)" />
<use xlink:href="#f4_x" transform="matrix(12.6,0,0,12.3,188.5,220.2)" />
<use xlink:href="#f4_4s" transform="matrix(12.6,0,0,12.3,78,229.2)" />
<use xlink:href="#f4_58" transform="matrix(12.6,0,0,12.3,147.4,229.2)" />
<use xlink:href="#f4_4s" transform="matrix(12.6,0,0,12.3,157.3,229.2)" />
<use xlink:href="#f4_58" transform="matrix(12.6,0,0,12.3,176.4,229.2)" />
<use xlink:href="#f4_4s" transform="matrix(12.6,0,0,12.3,203.2,229.2)" />
<use xlink:href="#f4_58" transform="matrix(12.6,0,0,12.3,248.5,229.2)" />
<use xlink:href="#f4_4s" transform="matrix(12.6,0,0,12.3,78,246.9)" />
<use xlink:href="#f4_58" transform="matrix(12.6,0,0,12.3,147.4,246.9)" />
<use xlink:href="#f4_4s" transform="matrix(12.6,0,0,12.3,157.3,246.9)" />
<use xlink:href="#f4_58" transform="matrix(12.6,0,0,12.3,176.4,246.9)" />
<use xlink:href="#f4_4s" transform="matrix(12.6,0,0,12.3,203.2,246.9)" />
<use xlink:href="#f4_58" transform="matrix(12.6,0,0,12.3,248.5,246.9)" />
<use xlink:href="#f4_4t" transform="matrix(12.6,0,0,12.3,78,252.8)" />
<use xlink:href="#f4_59" transform="matrix(12.6,0,0,12.3,147.4,252.8)" />
<use xlink:href="#f4_4t" transform="matrix(12.6,0,0,12.3,157.3,252.8)" />
<use xlink:href="#f4_59" transform="matrix(12.6,0,0,12.3,176.4,252.8)" />
<use xlink:href="#f4_4t" transform="matrix(12.6,0,0,12.3,203.2,252.8)" />
<use xlink:href="#f4_59" transform="matrix(12.6,0,0,12.3,248.5,252.8)" />
</g>
</g>
<g fill="#000000" >
<use xlink:href="#f2_1j" transform="matrix(12,0,0,12,55,276.5)" />
<use xlink:href="#f2_2b" transform="matrix(12,0,0,12,65.3,276.5)" />
<use xlink:href="#f2_28" transform="matrix(12,0,0,12,74.8,276.5)" />
<use xlink:href="#f2_2h" transform="matrix(12,0,0,12,79.2,276.5)" />
<use xlink:href="#f2_2g" transform="matrix(12,0,0,12,88.4,276.5)" />
<use xlink:href="#f2_25" transform="matrix(12,0,0,12,93.8,276.5)" />
<use xlink:href="#f2_2b" transform="matrix(12,0,0,12,98.2,276.5)" />
<use xlink:href="#f2_2a" transform="matrix(12,0,0,12,107.8,276.5)" />
<use xlink:href="#f2_2b" transform="matrix(12,0,0,12,121.3,276.5)" />
<use xlink:href="#f2_22" transform="matrix(12,0,0,12,131.2,276.5)" />
<use xlink:href="#f2_2g" transform="matrix(12,0,0,12,141.4,276.5)" />
<use xlink:href="#f2_24" transform="matrix(12,0,0,12,146.9,276.5)" />
<use xlink:href="#f2_21" transform="matrix(12,0,0,12,155.7,276.5)" />
<use xlink:href="#f2_29" transform="matrix(12,0,0,12,168.9,276.5)" />
<use xlink:href="#f2_1x" transform="matrix(12,0,0,12,182.5,276.5)" />
<use xlink:href="#f2_2g" transform="matrix(12,0,0,12,190.5,276.5)" />
<use xlink:href="#f2_2e" transform="matrix(12,0,0,12,196,276.5)" />
<use xlink:href="#f2_25" transform="matrix(12,0,0,12,202.2,276.5)" />
<use xlink:href="#f2_2k" transform="matrix(12,0,0,12,207,276.5)" />
<use xlink:href="#f2_21" transform="matrix(12,0,0,12,220.5,276.5)" />
<use xlink:href="#f2_2d" transform="matrix(12,0,0,12,228.6,276.5)" />
<use xlink:href="#f2_2h" transform="matrix(12,0,0,12,237.8,276.5)" />
<use xlink:href="#f2_1x" transform="matrix(12,0,0,12,246.9,276.5)" />
<use xlink:href="#f2_2g" transform="matrix(12,0,0,12,255,276.5)" />
<use xlink:href="#f2_25" transform="matrix(12,0,0,12,260.9,276.5)" />
<use xlink:href="#f2_2b" transform="matrix(12,0,0,12,265.3,276.5)" />
<use xlink:href="#f2_2a" transform="matrix(12,0,0,12,274.8,276.5)" />
<use xlink:href="#f2_21" transform="matrix(12,0,0,12,288.7,276.5)" />
<use xlink:href="#f2_2k" transform="matrix(12,0,0,12,296.7,276.5)" />
<use xlink:href="#f2_25" transform="matrix(12,0,0,12,305.9,276.5)" />
<use xlink:href="#f2_2f" transform="matrix(12,0,0,12,310.7,276.5)" />
<use xlink:href="#f2_2g" transform="matrix(12,0,0,12,317.6,276.5)" />
<use xlink:href="#f2_25" transform="matrix(12,0,0,12,328.2,276.5)" />
<use xlink:href="#f2_22" transform="matrix(12,0,0,12,333,276.5)" />
<use xlink:href="#f2_2o" transform="matrix(12,0,0,12,343.3,276.5)" />
<use xlink:href="#f2_14" transform="matrix(12,0,0,12,351.7,276.5)" />
<use xlink:href="#f2_2o" transform="matrix(12,0,0,12,369.6,276.5)" />
<use xlink:href="#f5_40" transform="matrix(12,0,0,12,378.2,276.5)" />
<use xlink:href="#f2_k" transform="matrix(12,0,0,12,392.9,276.5)" />
<use xlink:href="#f2_25" transform="matrix(12,0,0,12,55,329.3)" />
<use xlink:href="#f2_i" transform="matrix(12,0,0,12,59.4,329.3)" />
<use xlink:href="#f2_21" transform="matrix(12,0,0,12,64.6,329.3)" />
<use xlink:href="#f2_i" transform="matrix(12,0,0,12,72.6,329.3)" />
<use xlink:href="#f2_g" transform="matrix(12,0,0,12,77.4,329.3)" />
</g>
<path d="M90.2,286.5V364m64.1,-77.5V364" class="g2_136" />
<g clip-path="url(#c1_136)">
<g fill="#000000" >
<use xlink:href="#f2_n" transform="matrix(12.5,0,0,12.3,92.1,302.1)" />
<use xlink:href="#f2_m" transform="matrix(12.5,0,0,12.3,118.4,302.1)" />
<use xlink:href="#f2_l" transform="matrix(12.5,0,0,12.3,144,302.1)" />
<use xlink:href="#f2_o" transform="matrix(12.5,0,0,12.3,92.1,329.8)" />
<use xlink:href="#f2_l" transform="matrix(12.5,0,0,12.3,118.2,329.8)" />
<use xlink:href="#f2_n" transform="matrix(12.5,0,0,12.3,144.3,329.8)" />
<use xlink:href="#f2_n" transform="matrix(12.5,0,0,12.3,173.7,329.8)" />
<use xlink:href="#f2_1r" transform="matrix(12.5,0,0,12.3,181.1,329.8)" />
<use xlink:href="#f2_l" transform="matrix(12.5,0,0,12.3,185.7,329.8)" />
<use xlink:href="#f2_n" transform="matrix(12.5,0,0,12.3,210.1,329.8)" />
<use xlink:href="#f2_1t" transform="matrix(12.5,0,0,12.3,218.7,329.8)" />
<use xlink:href="#f2_m" transform="matrix(12.5,0,0,12.3,241.3,329.8)" />
<use xlink:href="#f2_1r" transform="matrix(12.5,0,0,12.3,249.4,329.8)" />
<use xlink:href="#f2_o" transform="matrix(12.5,0,0,12.3,256,329.8)" />
<use xlink:href="#f2_n" transform="matrix(12.5,0,0,12.3,281.8,329.8)" />
<use xlink:href="#f2_1t" transform="matrix(12.5,0,0,12.3,290.4,329.8)" />
<use xlink:href="#f2_l" transform="matrix(12.5,0,0,12.3,311.4,329.8)" />
<use xlink:href="#f2_1r" transform="matrix(12.5,0,0,12.3,318,329.8)" />
<use xlink:href="#f2_o" transform="matrix(12.5,0,0,12.3,324.5,329.8)" />
<use xlink:href="#f2_l" transform="matrix(12.5,0,0,12.3,348.9,329.8)" />
<use xlink:href="#f2_1t" transform="matrix(12.5,0,0,12.3,356.6,329.8)" />
<use xlink:href="#f2_l" transform="matrix(12.5,0,0,12.3,91.8,357.6)" />
<use xlink:href="#f2_l" transform="matrix(12.5,0,0,12.3,118.2,357.6)" />
<use xlink:href="#f2_l" transform="matrix(12.5,0,0,12.3,144,357.6)" />
<use xlink:href="#f4_x" transform="matrix(12.5,0,0,12.3,159.7,329.8)" />
<use xlink:href="#f4_h" transform="matrix(12.5,0,0,12.3,197,329.8)" />
<use xlink:href="#f4_h" transform="matrix(12.5,0,0,12.3,227.6,329.8)" />
<use xlink:href="#f4_h" transform="matrix(12.5,0,0,12.3,268.7,329.8)" />
<use xlink:href="#f4_f" transform="matrix(12.5,0,0,12.3,299.4,329.8)" />
<use xlink:href="#f4_h" transform="matrix(12.5,0,0,12.3,337.3,329.8)" />
</g>
</g>
<g fill="#000000" >
<use xlink:href="#f2_x" transform="matrix(12,0,0,12,55,386.6)" />
<use xlink:href="#f5_4y" transform="matrix(12,0,0,12,70.1,386.6)" />
<use xlink:href="#f2_q" transform="matrix(12,0,0,12,84,386.6)" />
<use xlink:href="#f5_4y" transform="matrix(12,0,0,12,97.9,386.6)" />
<use xlink:href="#f2_m" transform="matrix(12,0,0,12,111.5,386.6)" />
<use xlink:href="#f2_f" transform="matrix(12,0,0,12,125.4,386.6)" />
<use xlink:href="#f2_n" transform="matrix(12,0,0,12,140.1,386.6)" />
<use xlink:href="#f2_x" transform="matrix(12,0,0,12,55,409.3)" />
<use xlink:href="#f5_4y" transform="matrix(12,0,0,12,70.1,409.3)" />
<use xlink:href="#f2_p" transform="matrix(12,0,0,12,84,409.3)" />
<use xlink:href="#f2_2g" transform="matrix(12,0,0,12,55,432)" />
<use xlink:href="#f2_24" transform="matrix(12,0,0,12,60.5,432)" />
<use xlink:href="#f2_21" transform="matrix(12,0,0,12,69.3,432)" />
<use xlink:href="#f2_2e" transform="matrix(12,0,0,12,77.4,432)" />
<use xlink:href="#f2_21" transform="matrix(12,0,0,12,83.6,432)" />
<use xlink:href="#f2_22" transform="matrix(12,0,0,12,92,432)" />
<use xlink:href="#f2_2b" transform="matrix(12,0,0,12,97.5,432)" />
<use xlink:href="#f2_2e" transform="matrix(12,0,0,12,107,432)" />
<use xlink:href="#f2_21" transform="matrix(12,0,0,12,113.2,432)" />
<use xlink:href="#f2_g" transform="matrix(12,0,0,12,121.3,432)" />
<use xlink:href="#f2_2g" transform="matrix(12,0,0,12,130.1,432)" />
<use xlink:href="#f2_24" transform="matrix(12,0,0,12,135.6,432)" />
<use xlink:href="#f2_21" transform="matrix(12,0,0,12,144.4,432)" />
<use xlink:href="#f2_2f" transform="matrix(12,0,0,12,157.2,432)" />
<use xlink:href="#f2_2b" transform="matrix(12,0,0,12,164.2,432)" />
<use xlink:href="#f2_28" transform="matrix(12,0,0,12,173.7,432)" />
<use xlink:href="#f2_2h" transform="matrix(12,0,0,12,178.1,432)" />
<use xlink:href="#f2_2g" transform="matrix(12,0,0,12,187.3,432)" />
<use xlink:href="#f2_25" transform="matrix(12,0,0,12,193.1,432)" />
<use xlink:href="#f2_2b" transform="matrix(12,0,0,12,197.5,432)" />
<use xlink:href="#f2_2a" transform="matrix(12,0,0,12,207,432)" />
<use xlink:href="#f2_2b" transform="matrix(12,0,0,12,220.6,432)" />
<use xlink:href="#f2_22" transform="matrix(12,0,0,12,230.1,432)" />
<use xlink:href="#f2_2g" transform="matrix(12,0,0,12,240.3,432)" />
<use xlink:href="#f2_24" transform="matrix(12,0,0,12,245.8,432)" />
<use xlink:href="#f2_21" transform="matrix(12,0,0,12,254.6,432)" />
<use xlink:href="#f2_29" transform="matrix(12,0,0,12,267.8,432)" />
<use xlink:href="#f2_1x" transform="matrix(12,0,0,12,281.4,432)" />
<use xlink:href="#f2_2g" transform="matrix(12,0,0,12,289.4,432)" />
<use xlink:href="#f2_2e" transform="matrix(12,0,0,12,294.9,432)" />
<use xlink:href="#f2_25" transform="matrix(12,0,0,12,301.5,432)" />
<use xlink:href="#f2_2k" transform="matrix(12,0,0,12,306.3,432)" />
<use xlink:href="#f2_21" transform="matrix(12,0,0,12,319.8,432)" />
<use xlink:href="#f2_2d" transform="matrix(12,0,0,12,327.9,432)" />
<use xlink:href="#f2_2h" transform="matrix(12,0,0,12,337,432)" />
<use xlink:href="#f2_1x" transform="matrix(12,0,0,12,346.2,432)" />
<use xlink:href="#f2_2g" transform="matrix(12,0,0,12,354.3,432)" />
<use xlink:href="#f2_25" transform="matrix(12,0,0,12,359.8,432)" />
<use xlink:href="#f2_2b" transform="matrix(12,0,0,12,364.2,432)" />
<use xlink:href="#f2_2a" transform="matrix(12,0,0,12,373.7,432)" />
<use xlink:href="#f2_25" transform="matrix(12,0,0,12,387.6,432)" />
<use xlink:href="#f2_2f" transform="matrix(12,0,0,12,392.4,432)" />
<use xlink:href="#f2_1o" transform="matrix(12,0,0,12,55,454.8)" />
<use xlink:href="#f2_x" transform="matrix(12,0,0,12,73,454.8)" />
<use xlink:href="#f2_14" transform="matrix(12,0,0,12,88,454.8)" />
<use xlink:href="#f2_h" transform="matrix(7.9,0,0,7.9,101.2,447.8)" />
<use xlink:href="#f2_l" transform="matrix(7.9,0,0,7.9,104.9,447.8)" />
<use xlink:href="#f2_15" transform="matrix(12,0,0,12,115.9,454.8)" />
<use xlink:href="#f2_1k" transform="matrix(12,0,0,12,55,489.7)" />
<use xlink:href="#f2_2b" transform="matrix(12,0,0,12,66.4,489.7)" />
<use xlink:href="#f2_22" transform="matrix(12,0,0,12,80.3,489.7)" />
<use xlink:href="#f2_25" transform="matrix(12,0,0,12,86.2,489.7)" />
<use xlink:href="#f2_2a" transform="matrix(12,0,0,12,90.9,489.7)" />
<use xlink:href="#f2_20" transform="matrix(12,0,0,12,100.1,489.7)" />
<use xlink:href="#f2_14" transform="matrix(12,0,0,12,114,489.7)" />
<use xlink:href="#f2_h" transform="matrix(7.9,0,0,7.9,127.3,482.7)" />
<use xlink:href="#f2_l" transform="matrix(7.9,0,0,7.9,130.9,482.7)" />
<use xlink:href="#f2_v" transform="matrix(12,0,0,12,137.5,489.7)" />
<use xlink:href="#f2_14" transform="matrix(12,0,0,12,147.1,489.7)" />
<use xlink:href="#f2_h" transform="matrix(7.9,0,0,7.9,160.7,482.7)" />
<use xlink:href="#f2_l" transform="matrix(7.9,0,0,7.9,164.3,482.7)" />
<use xlink:href="#f2_x" transform="matrix(12,0,0,12,175.3,489.7)" />
</g>
<path d="M193.1,484.9H222" class="g3_136" />
<g clip-path="url(#c2_136)">
<g fill="#000000" >
<use xlink:href="#f2_l" transform="matrix(12.5,0,0,12.4,203,478)" />
<use xlink:href="#f2_c" transform="matrix(12.5,0,0,12.4,249.4,489.5)" />
<use xlink:href="#f2_d" transform="matrix(12.5,0,0,12.4,270.5,489.5)" />
<use xlink:href="#f2_2o" transform="matrix(12.5,0,0,12.4,193.3,503.9)" />
<use xlink:href="#f2_2o" transform="matrix(12.5,0,0,12.4,218.2,503.9)" />
<use xlink:href="#f3_1x" transform="matrix(12.5,0,0,12.4,224.8,489.5)" />
<use xlink:href="#f3_20" transform="matrix(12.5,0,0,12.4,234,489.5)" />
<use xlink:href="#f3_26" transform="matrix(12.5,0,0,12.4,243.3,489.5)" />
<use xlink:href="#f3_14" transform="matrix(12.5,0,0,12.4,256.5,489.5)" />
<use xlink:href="#f3_14" transform="matrix(12.5,0,0,12.4,201.2,503.9)" />
</g>
</g>
<g fill="#000000" >
<use xlink:href="#f2_13" transform="matrix(12,0,0,12,55,530)" />
<use xlink:href="#f2_2b" transform="matrix(12,0,0,12,67.1,530)" />
<use xlink:href="#f2_22" transform="matrix(12,0,0,12,76.7,530)" />
<use xlink:href="#f2_1x" transform="matrix(12,0,0,12,82.2,530)" />
<use xlink:href="#f2_1z" transform="matrix(12,0,0,12,90.2,530)" />
<use xlink:href="#f2_2g" transform="matrix(12,0,0,12,98.3,530)" />
<use xlink:href="#f2_2b" transform="matrix(12,0,0,12,103.8,530)" />
<use xlink:href="#f2_2e" transform="matrix(12,0,0,12,113.3,530)" />
<use xlink:href="#f2_1d" transform="matrix(12,0,0,12,123.9,530)" />
<use xlink:href="#f2_1x" transform="matrix(12,0,0,12,140,530)" />
<use xlink:href="#f2_2g" transform="matrix(12,0,0,12,148.1,530)" />
<use xlink:href="#f2_2e" transform="matrix(12,0,0,12,153.6,530)" />
<use xlink:href="#f2_25" transform="matrix(12,0,0,12,159.8,530)" />
<use xlink:href="#f2_2k" transform="matrix(12,0,0,12,164.2,530)" />
<use xlink:href="#f2_2b" transform="matrix(12,0,0,12,177.7,530)" />
<use xlink:href="#f2_22" transform="matrix(12,0,0,12,187.6,530)" />
<use xlink:href="#f2_14" transform="matrix(12,0,0,12,197.9,530)" />
</g>
<g clip-path="url(#c3_136)">
<g fill="#000000" >
<use xlink:href="#f2_m" transform="matrix(12.4,0,0,12.3,90.5,555.5)" />
<use xlink:href="#f2_l" transform="matrix(12.4,0,0,12.3,127.3,555.5)" />
<use xlink:href="#f2_n" transform="matrix(12.4,0,0,12.3,157.5,555.5)" />
<use xlink:href="#f2_l" transform="matrix(12.4,0,0,12.3,91.2,583.2)" />
<use xlink:href="#f2_m" transform="matrix(12.4,0,0,12.3,121.6,583.2)" />
<use xlink:href="#f2_l" transform="matrix(12.4,0,0,12.3,163.2,583.2)" />
<use xlink:href="#f2_p" transform="matrix(12.4,0,0,12.3,85.3,610.9)" />
<use xlink:href="#f2_p" transform="matrix(12.4,0,0,12.3,126.7,610.9)" />
<use xlink:href="#f2_p" transform="matrix(12.4,0,0,12.3,162.6,610.9)" />
<use xlink:href="#f4_h" transform="matrix(12.4,0,0,12.3,80.5,555.5)" />
<use xlink:href="#f4_h" transform="matrix(12.4,0,0,12.3,117.3,555.5)" />
<use xlink:href="#f4_4r" transform="matrix(12.4,0,0,12.3,72.7,556.9)" />
<use xlink:href="#f4_57" transform="matrix(12.4,0,0,12.3,172.2,556.9)" />
<use xlink:href="#f4_4s" transform="matrix(12.4,0,0,12.3,72.7,574.5)" />
<use xlink:href="#f4_58" transform="matrix(12.4,0,0,12.3,172.2,574.5)" />
<use xlink:href="#f4_x" transform="matrix(12.4,0,0,12.3,57.9,583.2)" />
<use xlink:href="#f4_h" transform="matrix(12.4,0,0,12.3,81.2,583.2)" />
<use xlink:href="#f4_h" transform="matrix(12.4,0,0,12.3,153.2,583.2)" />
<use xlink:href="#f4_4s" transform="matrix(12.4,0,0,12.3,72.7,592.2)" />
<use xlink:href="#f4_58" transform="matrix(12.4,0,0,12.3,172.2,592.2)" />
<use xlink:href="#f4_4s" transform="matrix(12.4,0,0,12.3,72.7,609.9)" />
<use xlink:href="#f4_58" transform="matrix(12.4,0,0,12.3,172.2,609.9)" />
<use xlink:href="#f4_h" transform="matrix(12.4,0,0,12.3,116.7,610.9)" />
<use xlink:href="#f4_h" transform="matrix(12.4,0,0,12.3,152.7,610.9)" />
<use xlink:href="#f4_4t" transform="matrix(12.4,0,0,12.3,72.7,615.8)" />
<use xlink:href="#f4_59" transform="matrix(12.4,0,0,12.3,172.2,615.8)" />
</g>
</g>
<g fill="#000000" >
<use xlink:href="#f2_11" transform="matrix(12,0,0,12,55,640)" />
<use xlink:href="#f2_20" transform="matrix(12,0,0,12,67.9,640)" />
<use xlink:href="#f2_26" transform="matrix(12,0,0,12,77.4,640)" />
<use xlink:href="#f2_2b" transform="matrix(12,0,0,12,81.8,640)" />
<use xlink:href="#f2_25" transform="matrix(12,0,0,12,91.7,640)" />
<use xlink:href="#f2_2a" transform="matrix(12,0,0,12,96.4,640)" />
<use xlink:href="#f2_2g" transform="matrix(12,0,0,12,105.2,640)" />
<use xlink:href="#f2_2b" transform="matrix(12,0,0,12,115.5,640)" />
<use xlink:href="#f2_22" transform="matrix(12,0,0,12,125,640)" />
<use xlink:href="#f2_14" transform="matrix(12,0,0,12,135.2,640)" />
<use xlink:href="#f2_x" transform="matrix(12,0,0,12,153.2,640)" />
<use xlink:href="#f2_1x" transform="matrix(12,0,0,12,168.2,640)" />
<use xlink:href="#f2_20" transform="matrix(12,0,0,12,176.3,640)" />
<use xlink:href="#f2_26" transform="matrix(12,0,0,12,185.8,640)" />
<use xlink:href="#f2_c" transform="matrix(12,0,0,12,194.9,640)" />
<use xlink:href="#f2_14" transform="matrix(12,0,0,12,201.1,640)" />
<use xlink:href="#f2_d" transform="matrix(12,0,0,12,214.4,640)" />
</g>
<g clip-path="url(#c4_136)">
<g fill="#000000" >
<use xlink:href="#f2_m" transform="matrix(12.5,0,0,12.3,90.7,665.5)" />
<use xlink:href="#f2_l" transform="matrix(12.5,0,0,12.3,127.2,665.5)" />
<use xlink:href="#f2_p" transform="matrix(12.5,0,0,12.3,156.8,665.5)" />
<use xlink:href="#f2_l" transform="matrix(12.5,0,0,12.3,91.4,693.2)" />
<use xlink:href="#f2_m" transform="matrix(12.5,0,0,12.3,121.4,693.2)" />
<use xlink:href="#f2_p" transform="matrix(12.5,0,0,12.3,162.2,693.2)" />
<use xlink:href="#f2_n" transform="matrix(12.5,0,0,12.3,85.7,720.9)" />
<use xlink:href="#f2_l" transform="matrix(12.5,0,0,12.3,127.1,720.9)" />
<use xlink:href="#f2_p" transform="matrix(12.5,0,0,12.3,162.2,720.9)" />
<use xlink:href="#f4_h" transform="matrix(12.5,0,0,12.3,80.7,665.5)" />
<use xlink:href="#f4_h" transform="matrix(12.5,0,0,12.3,117.2,665.5)" />
<use xlink:href="#f4_4r" transform="matrix(12.5,0,0,12.3,72.8,666.9)" />
<use xlink:href="#f4_57" transform="matrix(12.5,0,0,12.3,171.8,666.9)" />
<use xlink:href="#f4_4s" transform="matrix(12.5,0,0,12.3,72.8,684.5)" />
<use xlink:href="#f4_58" transform="matrix(12.5,0,0,12.3,171.8,684.5)" />
<use xlink:href="#f4_x" transform="matrix(12.5,0,0,12.3,57.9,693.2)" />
<use xlink:href="#f4_h" transform="matrix(12.5,0,0,12.3,81.3,693.2)" />
<use xlink:href="#f4_h" transform="matrix(12.5,0,0,12.3,152.1,693.2)" />
<use xlink:href="#f4_4s" transform="matrix(12.5,0,0,12.3,72.8,702.2)" />
<use xlink:href="#f4_58" transform="matrix(12.5,0,0,12.3,171.8,702.2)" />
<use xlink:href="#f4_4s" transform="matrix(12.5,0,0,12.3,72.8,719.9)" />
<use xlink:href="#f4_58" transform="matrix(12.5,0,0,12.3,171.8,719.9)" />
<use xlink:href="#f4_h" transform="matrix(12.5,0,0,12.3,117.1,720.9)" />
<use xlink:href="#f4_h" transform="matrix(12.5,0,0,12.3,152.2,720.9)" />
<use xlink:href="#f4_4t" transform="matrix(12.5,0,0,12.3,72.8,725.8)" />
<use xlink:href="#f4_59" transform="matrix(12.5,0,0,12.3,171.8,725.8)" />
</g>
</g>
<g fill="#000000" >
<use xlink:href="#f2_2n" transform="matrix(12,0,0,12,55,749.7)" />
<use xlink:href="#f2_2g" transform="matrix(12,0,0,12,63.8,749.7)" />
<use xlink:href="#f2_2e" transform="matrix(12,0,0,12,69.3,749.7)" />
<use xlink:href="#f2_1x" transform="matrix(12,0,0,12,75.5,749.7)" />
<use xlink:href="#f2_2a" transform="matrix(12,0,0,12,83.6,749.7)" />
<use xlink:href="#f2_2f" transform="matrix(12,0,0,12,92.4,749.7)" />
<use xlink:href="#f2_2c" transform="matrix(12,0,0,12,99.4,749.7)" />
<use xlink:href="#f2_2b" transform="matrix(12,0,0,12,108.5,749.7)" />
<use xlink:href="#f2_2f" transform="matrix(12,0,0,12,118,749.7)" />
<use xlink:href="#f2_21" transform="matrix(12,0,0,12,125,749.7)" />
<use xlink:href="#f2_2b" transform="matrix(12,0,0,12,137.5,749.7)" />
<use xlink:href="#f2_22" transform="matrix(12,0,0,12,147,749.7)" />
<use xlink:href="#f2_13" transform="matrix(12,0,0,12,157.2,749.7)" />
<use xlink:href="#f2_2b" transform="matrix(12,0,0,12,169.3,749.7)" />
<use xlink:href="#f2_22" transform="matrix(12,0,0,12,178.9,749.7)" />
<use xlink:href="#f2_1x" transform="matrix(12,0,0,12,184.7,749.7)" />
<use xlink:href="#f2_1z" transform="matrix(12,0,0,12,192.8,749.7)" />
<use xlink:href="#f2_2g" transform="matrix(12,0,0,12,200.9,749.7)" />
<use xlink:href="#f2_2b" transform="matrix(12,0,0,12,206.3,749.7)" />
<use xlink:href="#f2_2e" transform="matrix(12,0,0,12,215.5,749.7)" />
<use xlink:href="#f2_1d" transform="matrix(12,0,0,12,226.5,749.7)" />
<use xlink:href="#f2_1x" transform="matrix(12,0,0,12,242.6,749.7)" />
<use xlink:href="#f2_2g" transform="matrix(12,0,0,12,250.3,749.7)" />
<use xlink:href="#f2_2e" transform="matrix(12,0,0,12,255.8,749.7)" />
<use xlink:href="#f2_25" transform="matrix(12,0,0,12,262,749.7)" />
<use xlink:href="#f2_2k" transform="matrix(12,0,0,12,266.8,749.7)" />
<use xlink:href="#f2_2p" transform="matrix(12,0,0,12,275.6,749.7)" />
</g>
<path d="M118.8,798.2h20.8" class="g4_136" />
<g clip-path="url(#c5_136)">
<g fill="#000000" >
<use xlink:href="#f2_l" transform="matrix(7.3,0,0,7.2,93.4,794.6)" />
<use xlink:href="#f2_m" transform="matrix(12.5,0,0,12.3,160.5,775.1)" />
<use xlink:href="#f2_l" transform="matrix(12.5,0,0,12.3,196.9,775.1)" />
<use xlink:href="#f2_p" transform="matrix(12.5,0,0,12.3,226.5,775.1)" />
<use xlink:href="#f2_l" transform="matrix(12.5,0,0,12.3,124.6,791.4)" />
<use xlink:href="#f2_l" transform="matrix(12.5,0,0,12.3,161.2,802.8)" />
<use xlink:href="#f2_m" transform="matrix(12.5,0,0,12.3,191.2,802.8)" />
<use xlink:href="#f2_p" transform="matrix(12.5,0,0,12.3,231.9,802.8)" />
<use xlink:href="#f2_p" transform="matrix(12.5,0,0,12.3,130.1,817.1)" />
<use xlink:href="#f2_n" transform="matrix(12.5,0,0,12.3,155.5,830.6)" />
<use xlink:href="#f2_l" transform="matrix(12.5,0,0,12.3,196.9,830.6)" />
<use xlink:href="#f2_p" transform="matrix(12.5,0,0,12.3,231.9,830.6)" />
<use xlink:href="#f3_14" transform="matrix(12.5,0,0,12.3,73.3,802.8)" />
<use xlink:href="#f4_h" transform="matrix(7.3,0,0,7.2,87.5,794.6)" />
<use xlink:href="#f4_h" transform="matrix(12.5,0,0,12.3,150.5,775.1)" />
<use xlink:href="#f4_h" transform="matrix(12.5,0,0,12.3,186.9,775.1)" />
<use xlink:href="#f4_4r" transform="matrix(12.5,0,0,12.3,142.7,776.5)" />
<use xlink:href="#f4_57" transform="matrix(12.5,0,0,12.3,241.5,776.5)" />
<use xlink:href="#f4_4s" transform="matrix(12.5,0,0,12.3,142.7,794.2)" />
<use xlink:href="#f4_58" transform="matrix(12.5,0,0,12.3,241.5,794.2)" />
<use xlink:href="#f4_1s" transform="matrix(12.5,0,0,12.3,55.1,802.8)" />
<use xlink:href="#f4_x" transform="matrix(12.5,0,0,12.3,103.9,802.8)" />
<use xlink:href="#f4_h" transform="matrix(12.5,0,0,12.3,151.2,802.8)" />
<use xlink:href="#f4_h" transform="matrix(12.5,0,0,12.3,221.9,802.8)" />
<use xlink:href="#f4_4s" transform="matrix(12.5,0,0,12.3,142.7,811.9)" />
<use xlink:href="#f4_58" transform="matrix(12.5,0,0,12.3,241.5,811.9)" />
<use xlink:href="#f4_h" transform="matrix(12.5,0,0,12.3,120,817.1)" />
<use xlink:href="#f4_4s" transform="matrix(12.5,0,0,12.3,142.7,829.6)" />
<use xlink:href="#f4_58" transform="matrix(12.5,0,0,12.3,241.5,829.6)" />
<use xlink:href="#f4_h" transform="matrix(12.5,0,0,12.3,186.9,830.6)" />
<use xlink:href="#f4_h" transform="matrix(12.5,0,0,12.3,221.9,830.6)" />
<use xlink:href="#f4_4t" transform="matrix(12.5,0,0,12.3,142.7,835.5)" />
<use xlink:href="#f4_59" transform="matrix(12.5,0,0,12.3,241.5,835.5)" />
</g>
</g>
<g fill="#000000" >
<use xlink:href="#f2_1e" transform="matrix(12,0,0,12,55,859.3)" />
<use xlink:href="#f2_2b" transform="matrix(12,0,0,12,68.3,859.3)" />
<use xlink:href="#f2_2j" transform="matrix(12,0,0,12,77.8,859.3)" />
<use xlink:href="#f2_g" transform="matrix(12,0,0,12,91,859.3)" />
<use xlink:href="#f2_1o" transform="matrix(12,0,0,12,100.1,859.3)" />
<use xlink:href="#f2_x" transform="matrix(12,0,0,12,118,859.3)" />
<use xlink:href="#f2_14" transform="matrix(12,0,0,12,132.7,859.3)" />
<use xlink:href="#f2_h" transform="matrix(7.9,0,0,7.9,146,852.3)" />
<use xlink:href="#f2_l" transform="matrix(7.9,0,0,7.9,149.7,852.3)" />
<use xlink:href="#f2_15" transform="matrix(12,0,0,12,155.9,859.3)" />
</g>
<path d="M72.8,908.2H93.7" class="g5_136" />
<g clip-path="url(#c6_136)">
<g fill="#000000" >
<use xlink:href="#f2_m" transform="matrix(12.5,0,0,12.3,114.7,885.1)" />
<use xlink:href="#f2_l" transform="matrix(12.5,0,0,12.3,151.2,885.1)" />
<use xlink:href="#f2_p" transform="matrix(12.5,0,0,12.3,180.9,885.1)" />
<use xlink:href="#f2_l" transform="matrix(12.5,0,0,12.3,211.6,885.1)" />
<use xlink:href="#f2_q" transform="matrix(12.5,0,0,12.3,220.8,885.1)" />
<use xlink:href="#f2_k" transform="matrix(12.5,0,0,12.3,230,885.1)" />
<use xlink:href="#f2_k" transform="matrix(12.5,0,0,12.3,239.3,885.1)" />
<use xlink:href="#f2_l" transform="matrix(12.5,0,0,12.3,78.7,901.4)" />
<use xlink:href="#f2_l" transform="matrix(12.5,0,0,12.3,115.4,912.8)" />
<use xlink:href="#f2_m" transform="matrix(12.5,0,0,12.3,145.4,912.8)" />
<use xlink:href="#f2_p" transform="matrix(12.5,0,0,12.3,186.2,912.8)" />
<use xlink:href="#f2_m" transform="matrix(12.5,0,0,12.3,213.6,912.8)" />
<use xlink:href="#f2_n" transform="matrix(12.5,0,0,12.3,222.9,912.8)" />
<use xlink:href="#f2_k" transform="matrix(12.5,0,0,12.3,232.1,912.8)" />
<use xlink:href="#f2_k" transform="matrix(12.5,0,0,12.3,241.3,912.8)" />
<use xlink:href="#f2_p" transform="matrix(12.5,0,0,12.3,84.1,927.1)" />
<use xlink:href="#f2_n" transform="matrix(12.5,0,0,12.3,109.7,940.6)" />
<use xlink:href="#f2_l" transform="matrix(12.5,0,0,12.3,151.2,940.6)" />
<use xlink:href="#f2_p" transform="matrix(12.5,0,0,12.3,186.2,940.6)" />
<use xlink:href="#f2_t" transform="matrix(12.5,0,0,12.3,213.1,940.6)" />
<use xlink:href="#f2_k" transform="matrix(12.5,0,0,12.3,222.3,940.6)" />
<use xlink:href="#f2_k" transform="matrix(12.5,0,0,12.3,231.5,940.6)" />
<use xlink:href="#f4_h" transform="matrix(12.5,0,0,12.3,104.6,885.1)" />
<use xlink:href="#f4_h" transform="matrix(12.5,0,0,12.3,141.2,885.1)" />
<use xlink:href="#f4_4r" transform="matrix(12.5,0,0,12.3,96.8,886.5)" />
<use xlink:href="#f4_57" transform="matrix(12.5,0,0,12.3,195.8,886.5)" />
<use xlink:href="#f4_4r" transform="matrix(12.5,0,0,12.3,205.8,886.5)" />
<use xlink:href="#f4_57" transform="matrix(12.5,0,0,12.3,251.1,886.5)" />
<use xlink:href="#f4_4s" transform="matrix(12.5,0,0,12.3,96.8,904.2)" />
<use xlink:href="#f4_58" transform="matrix(12.5,0,0,12.3,195.8,904.2)" />
<use xlink:href="#f4_4s" transform="matrix(12.5,0,0,12.3,205.8,904.2)" />
<use xlink:href="#f4_58" transform="matrix(12.5,0,0,12.3,251.1,904.2)" />
<use xlink:href="#f4_x" transform="matrix(12.5,0,0,12.3,58,912.8)" />
<use xlink:href="#f4_h" transform="matrix(12.5,0,0,12.3,105.3,912.8)" />
<use xlink:href="#f4_h" transform="matrix(12.5,0,0,12.3,176.2,912.8)" />
<use xlink:href="#f4_4s" transform="matrix(12.5,0,0,12.3,96.8,921.9)" />
<use xlink:href="#f4_58" transform="matrix(12.5,0,0,12.3,195.8,921.9)" />
<use xlink:href="#f4_4s" transform="matrix(12.5,0,0,12.3,205.8,921.9)" />
<use xlink:href="#f4_58" transform="matrix(12.5,0,0,12.3,251.1,921.9)" />
<use xlink:href="#f4_h" transform="matrix(12.5,0,0,12.3,74.1,927.1)" />
<use xlink:href="#f4_4s" transform="matrix(12.5,0,0,12.3,96.8,939.6)" />
<use xlink:href="#f4_58" transform="matrix(12.5,0,0,12.3,195.8,939.6)" />
<use xlink:href="#f4_4s" transform="matrix(12.5,0,0,12.3,205.8,939.6)" />
<use xlink:href="#f4_58" transform="matrix(12.5,0,0,12.3,251.1,939.6)" />
<use xlink:href="#f4_h" transform="matrix(12.5,0,0,12.3,141.2,940.6)" />
<use xlink:href="#f4_h" transform="matrix(12.5,0,0,12.3,176.2,940.6)" />
<use xlink:href="#f4_4t" transform="matrix(12.5,0,0,12.3,96.8,945.5)" />
<use xlink:href="#f4_59" transform="matrix(12.5,0,0,12.3,195.8,945.5)" />
<use xlink:href="#f4_4t" transform="matrix(12.5,0,0,12.3,205.8,945.5)" />
<use xlink:href="#f4_59" transform="matrix(12.5,0,0,12.3,251.1,945.5)" />
</g>
</g>
<g clip-path="url(#c7_136)">
<g fill="#000000" >
<use xlink:href="#f2_m" transform="matrix(12.4,0,0,12.3,112.7,972.1)" />
<use xlink:href="#f2_k" transform="matrix(12.4,0,0,12.3,122,972.1)" />
<use xlink:href="#f2_k" transform="matrix(12.4,0,0,12.3,131.2,972.1)" />
<use xlink:href="#f2_n" transform="matrix(12.4,0,0,12.3,112.1,999.8)" />
<use xlink:href="#f2_k" transform="matrix(12.4,0,0,12.3,121.4,999.8)" />
<use xlink:href="#f2_k" transform="matrix(12.4,0,0,12.3,130.7,999.8)" />
<use xlink:href="#f2_o" transform="matrix(12.4,0,0,12.3,112.7,1027.5)" />
<use xlink:href="#f2_k" transform="matrix(12.4,0,0,12.3,122,1027.5)" />
<use xlink:href="#f2_k" transform="matrix(12.4,0,0,12.3,131.2,1027.5)" />
<use xlink:href="#f3_2k" transform="matrix(12.4,0,0,12.3,67.1,972.1)" />
<use xlink:href="#f3_2l" transform="matrix(12.4,0,0,12.3,68,999.8)" />
<use xlink:href="#f3_2m" transform="matrix(12.4,0,0,12.3,67.1,1027.5)" />
<use xlink:href="#f4_4r" transform="matrix(12.4,0,0,12.3,58.3,973.4)" />
<use xlink:href="#f4_57" transform="matrix(12.4,0,0,12.3,77.7,973.4)" />
<use xlink:href="#f4_4r" transform="matrix(12.4,0,0,12.3,104.7,973.4)" />
<use xlink:href="#f4_57" transform="matrix(12.4,0,0,12.3,141.2,973.4)" />
<use xlink:href="#f4_4s" transform="matrix(12.4,0,0,12.3,58.3,991.1)" />
<use xlink:href="#f4_58" transform="matrix(12.4,0,0,12.3,77.7,991.1)" />
<use xlink:href="#f4_4s" transform="matrix(12.4,0,0,12.3,104.7,991.1)" />
<use xlink:href="#f4_58" transform="matrix(12.4,0,0,12.3,141.2,991.1)" />
<use xlink:href="#f4_x" transform="matrix(12.4,0,0,12.3,89.7,999.8)" />
<use xlink:href="#f4_4s" transform="matrix(12.4,0,0,12.3,58.3,1008.8)" />
<use xlink:href="#f4_58" transform="matrix(12.4,0,0,12.3,77.7,1008.8)" />
<use xlink:href="#f4_4s" transform="matrix(12.4,0,0,12.3,104.7,1008.8)" />
<use xlink:href="#f4_58" transform="matrix(12.4,0,0,12.3,141.2,1008.8)" />
<use xlink:href="#f4_4s" transform="matrix(12.4,0,0,12.3,58.3,1026.5)" />
<use xlink:href="#f4_58" transform="matrix(12.4,0,0,12.3,77.7,1026.5)" />
<use xlink:href="#f4_4s" transform="matrix(12.4,0,0,12.3,104.7,1026.5)" />
<use xlink:href="#f4_58" transform="matrix(12.4,0,0,12.3,141.2,1026.5)" />
<use xlink:href="#f4_4t" transform="matrix(12.4,0,0,12.3,58.3,1032.4)" />
<use xlink:href="#f4_59" transform="matrix(12.4,0,0,12.3,77.7,1032.4)" />
<use xlink:href="#f4_4t" transform="matrix(12.4,0,0,12.3,104.7,1032.4)" />
<use xlink:href="#f4_59" transform="matrix(12.4,0,0,12.3,141.2,1032.4)" />
</g>
</g>
<g fill="#000000" >
<use xlink:href="#f6_16e" transform="matrix(12,0,0,12,55,1056.7)" />
<use xlink:href="#f2_2k" transform="matrix(12,0,0,12,70.4,1056.7)" />
<use xlink:href="#f2_x" transform="matrix(12,0,0,12,84,1056.7)" />
<use xlink:href="#f2_m" transform="matrix(12,0,0,12,99,1056.7)" />
<use xlink:href="#f2_k" transform="matrix(12,0,0,12,108.2,1056.7)" />
<use xlink:href="#f2_k" transform="matrix(12,0,0,12,117.3,1056.7)" />
<use xlink:href="#f2_g" transform="matrix(12,0,0,12,126.5,1056.7)" />
<use xlink:href="#f2_2l" transform="matrix(12,0,0,12,135.6,1056.7)" />
<use xlink:href="#f2_x" transform="matrix(12,0,0,12,148.8,1056.7)" />
<use xlink:href="#f2_n" transform="matrix(12,0,0,12,163.8,1056.7)" />
<use xlink:href="#f2_k" transform="matrix(12,0,0,12,173,1056.7)" />
<use xlink:href="#f2_k" transform="matrix(12,0,0,12,182.2,1056.7)" />
<use xlink:href="#f2_g" transform="matrix(12,0,0,12,191.3,1056.7)" />
<use xlink:href="#f2_2m" transform="matrix(12,0,0,12,200.8,1056.7)" />
<use xlink:href="#f2_x" transform="matrix(12,0,0,12,213.7,1056.7)" />
<use xlink:href="#f2_o" transform="matrix(12,0,0,12,228.7,1056.7)" />
<use xlink:href="#f2_k" transform="matrix(12,0,0,12,237.8,1056.7)" />
<use xlink:href="#f2_k" transform="matrix(12,0,0,12,247,1056.7)" />
<use xlink:href="#f2_i" transform="matrix(12,0,0,12,255.8,1056.7)" />
<use xlink:href="#f2_11" transform="matrix(12,0,0,12,265.3,1056.7)" />
<use xlink:href="#f2_2a" transform="matrix(12,0,0,12,278.1,1056.7)" />
<use xlink:href="#f2_2f" transform="matrix(12,0,0,12,286.9,1056.7)" />
<use xlink:href="#f2_i" transform="matrix(12,0,0,12,293.9,1056.7)" />
<use xlink:href="#f2_11" transform="matrix(12,0,0,12,55,1079.8)" />
<use xlink:href="#f2_2j" transform="matrix(12,0,0,12,67.9,1079.8)" />
<use xlink:href="#f2_1x" transform="matrix(12,0,0,12,81.1,1079.8)" />
<use xlink:href="#f2_2e" transform="matrix(12,0,0,12,89.1,1079.8)" />
<use xlink:href="#f2_20" transform="matrix(12,0,0,12,95.4,1079.8)" />
<use xlink:href="#f2_1z" transform="matrix(12,0,0,12,109.3,1079.8)" />
<use xlink:href="#f2_1x" transform="matrix(12,0,0,12,117.3,1079.8)" />
<use xlink:href="#f2_2a" transform="matrix(12,0,0,12,125.7,1079.8)" />
<use xlink:href="#f2_1x" transform="matrix(12,0,0,12,139.3,1079.8)" />
<use xlink:href="#f2_28" transform="matrix(12,0,0,12,147.7,1079.8)" />
<use xlink:href="#f2_2f" transform="matrix(12,0,0,12,152.5,1079.8)" />
<use xlink:href="#f2_2b" transform="matrix(12,0,0,12,159.4,1079.8)" />
<use xlink:href="#f2_1y" transform="matrix(12,0,0,12,173.7,1079.8)" />
<use xlink:href="#f2_21" transform="matrix(12,0,0,12,182.5,1079.8)" />
<use xlink:href="#f2_23" transform="matrix(12,0,0,12,195.3,1079.8)" />
<use xlink:href="#f2_25" transform="matrix(12,0,0,12,204.8,1079.8)" />
<use xlink:href="#f2_2i" transform="matrix(12,0,0,12,209.6,1079.8)" />
<use xlink:href="#f2_21" transform="matrix(12,0,0,12,218.4,1079.8)" />
<use xlink:href="#f2_2a" transform="matrix(12,0,0,12,226.8,1079.8)" />
<use xlink:href="#f2_22" transform="matrix(12,0,0,12,240.7,1079.8)" />
<use xlink:href="#f2_2b" transform="matrix(12,0,0,12,246.2,1079.8)" />
<use xlink:href="#f2_2e" transform="matrix(12,0,0,12,255.8,1079.8)" />
<use xlink:href="#f2_1g" transform="matrix(12,0,0,12,266.7,1079.8)" />
<use xlink:href="#f2_2h" transform="matrix(12,0,0,12,277,1079.8)" />
<use xlink:href="#f2_2a" transform="matrix(12,0,0,12,286.1,1079.8)" />
<use xlink:href="#f2_1z" transform="matrix(12,0,0,12,294.9,1079.8)" />
<use xlink:href="#f2_2g" transform="matrix(12,0,0,12,303,1079.8)" />
<use xlink:href="#f2_2h" transform="matrix(12,0,0,12,308.5,1079.8)" />
<use xlink:href="#f2_1x" transform="matrix(12,0,0,12,317.6,1079.8)" />
<use xlink:href="#f2_28" transform="matrix(12,0,0,12,325.7,1079.8)" />
<use xlink:href="#f2_25" transform="matrix(12,0,0,12,330.5,1079.8)" />
<use xlink:href="#f2_2g" transform="matrix(12,0,0,12,334.9,1079.8)" />
<use xlink:href="#f2_2l" transform="matrix(12,0,0,12,340.7,1079.8)" />
<use xlink:href="#f2_i" transform="matrix(12,0,0,12,349.5,1079.8)" />
<use xlink:href="#f7_m" transform="matrix(12,0,0,12,55,1125.2)" />
<use xlink:href="#f7_o" transform="matrix(12,0,0,12,64.2,1125.2)" />
<use xlink:href="#f7_i" transform="matrix(12,0,0,12,73.4,1125.2)" />
<use xlink:href="#f2_1j" transform="matrix(12,0,0,12,82.9,1125.2)" />
<use xlink:href="#f2_24" transform="matrix(12,0,0,12,93.2,1125.2)" />
<use xlink:href="#f2_2b" transform="matrix(12,0,0,12,102,1125.2)" />
<use xlink:href="#f2_2j" transform="matrix(12,0,0,12,111.5,1125.2)" />
<use xlink:href="#f2_2g" transform="matrix(12,0,0,12,128.7,1125.2)" />
<use xlink:href="#f2_24" transform="matrix(12,0,0,12,134.2,1125.2)" />
<use xlink:href="#f2_1x" transform="matrix(12,0,0,12,143,1125.2)" />
<use xlink:href="#f2_2g" transform="matrix(12,0,0,12,151,1125.2)" />
<use xlink:href="#f2_2g" transform="matrix(12,0,0,12,160.9,1125.2)" />
<use xlink:href="#f2_24" transform="matrix(12,0,0,12,166.4,1125.2)" />
<use xlink:href="#f2_21" transform="matrix(12,0,0,12,175.2,1125.2)" />
<use xlink:href="#f2_1x" transform="matrix(12,0,0,12,188.2,1125.2)" />
<use xlink:href="#f2_28" transform="matrix(12,0,0,12,196.2,1125.2)" />
<use xlink:href="#f2_2g" transform="matrix(12,0,0,12,200.6,1125.2)" />
<use xlink:href="#f2_25" transform="matrix(12,0,0,12,206.5,1125.2)" />
<use xlink:href="#f2_2g" transform="matrix(12,0,0,12,210.9,1125.2)" />
<use xlink:href="#f2_2h" transform="matrix(12,0,0,12,216.4,1125.2)" />
<use xlink:href="#f2_20" transform="matrix(12,0,0,12,225.5,1125.2)" />
<use xlink:href="#f2_21" transform="matrix(12,0,0,12,234.7,1125.2)" />
<use xlink:href="#f2_2b" transform="matrix(12,0,0,12,247.5,1125.2)" />
<use xlink:href="#f2_22" transform="matrix(12,0,0,12,257,1125.2)" />
<use xlink:href="#f2_2g" transform="matrix(12,0,0,12,267.3,1125.2)" />
<use xlink:href="#f2_24" transform="matrix(12,0,0,12,272.8,1125.2)" />
<use xlink:href="#f2_21" transform="matrix(12,0,0,12,281.6,1125.2)" />
<use xlink:href="#f2_2e" transform="matrix(12,0,0,12,294.4,1125.2)" />
<use xlink:href="#f2_25" transform="matrix(12,0,0,12,300.6,1125.2)" />
<use xlink:href="#f2_23" transform="matrix(12,0,0,12,305,1125.2)" />
<use xlink:href="#f2_24" transform="matrix(12,0,0,12,314.5,1125.2)" />
<use xlink:href="#f2_2g" transform="matrix(12,0,0,12,323.3,1125.2)" />
<use xlink:href="#f2_1z" transform="matrix(12,0,0,12,333.5,1125.2)" />
<use xlink:href="#f2_25" transform="matrix(12,0,0,12,342,1125.2)" />
<use xlink:href="#f2_2e" transform="matrix(12,0,0,12,346.4,1125.2)" />
<use xlink:href="#f2_1z" transform="matrix(12,0,0,12,352.6,1125.2)" />
<use xlink:href="#f2_2h" transform="matrix(12,0,0,12,360.6,1125.2)" />
<use xlink:href="#f2_28" transform="matrix(12,0,0,12,370.2,1125.2)" />
<use xlink:href="#f2_1x" transform="matrix(12,0,0,12,374.6,1125.2)" />
<use xlink:href="#f2_2e" transform="matrix(12,0,0,12,382.6,1125.2)" />
<use xlink:href="#f2_1z" transform="matrix(12,0,0,12,393.6,1125.2)" />
<use xlink:href="#f2_2b" transform="matrix(12,0,0,12,401.6,1125.2)" />
<use xlink:href="#f2_2a" transform="matrix(12,0,0,12,411.2,1125.2)" />
<use xlink:href="#f2_21" transform="matrix(12,0,0,12,420,1125.2)" />
<use xlink:href="#f2_2b" transform="matrix(12,0,0,12,432.8,1125.2)" />
<use xlink:href="#f2_22" transform="matrix(12,0,0,12,442.3,1125.2)" />
<use xlink:href="#f2_29" transform="matrix(12,0,0,12,452.9,1125.2)" />
<use xlink:href="#f2_1x" transform="matrix(12,0,0,12,466.8,1125.2)" />
<use xlink:href="#f2_2k" transform="matrix(12,0,0,12,475.3,1125.2)" />
<use xlink:href="#f2_25" transform="matrix(12,0,0,12,484.4,1125.2)" />
<use xlink:href="#f2_29" transform="matrix(12,0,0,12,489.2,1125.2)" />
<use xlink:href="#f2_2h" transform="matrix(12,0,0,12,503.1,1125.2)" />
<use xlink:href="#f2_29" transform="matrix(12,0,0,12,512.6,1125.2)" />
<use xlink:href="#f2_2i" transform="matrix(12,0,0,12,531.7,1125.2)" />
<use xlink:href="#f2_2b" transform="matrix(12,0,0,12,540.5,1125.2)" />
<use xlink:href="#f2_28" transform="matrix(12,0,0,12,550.4,1125.2)" />
<use xlink:href="#f2_2h" transform="matrix(12,0,0,12,554.8,1125.2)" />
<use xlink:href="#f2_29" transform="matrix(12,0,0,12,564.3,1125.2)" />
<use xlink:href="#f2_21" transform="matrix(12,0,0,12,578.2,1125.2)" />
<use xlink:href="#f2_2g" transform="matrix(12,0,0,12,591,1125.2)" />
<use xlink:href="#f2_24" transform="matrix(12,0,0,12,596.5,1125.2)" />
<use xlink:href="#f2_1x" transform="matrix(12,0,0,12,605.3,1125.2)" />
<use xlink:href="#f2_2g" transform="matrix(12,0,0,12,613.4,1125.2)" />
<use xlink:href="#f2_1z" transform="matrix(12,0,0,12,623.6,1125.2)" />
<use xlink:href="#f2_1x" transform="matrix(12,0,0,12,631.7,1125.2)" />
<use xlink:href="#f2_2a" transform="matrix(12,0,0,12,639.7,1125.2)" />
<use xlink:href="#f2_1y" transform="matrix(12,0,0,12,653.3,1125.2)" />
<use xlink:href="#f2_21" transform="matrix(12,0,0,12,662.1,1125.2)" />
<use xlink:href="#f2_25" transform="matrix(12,0,0,12,675.3,1125.2)" />
<use xlink:href="#f2_2a" transform="matrix(12,0,0,12,680,1125.2)" />
<use xlink:href="#f2_2f" transform="matrix(12,0,0,12,689.2,1125.2)" />
<use xlink:href="#f2_1z" transform="matrix(12,0,0,12,696.2,1125.2)" />
<use xlink:href="#f2_2e" transform="matrix(12,0,0,12,704.2,1125.2)" />
<use xlink:href="#f2_25" transform="matrix(12,0,0,12,710.8,1125.2)" />
<use xlink:href="#f2_1y" transform="matrix(12,0,0,12,715.6,1125.2)" />
<use xlink:href="#f2_21" transform="matrix(12,0,0,12,724.8,1125.2)" />
<use xlink:href="#f2_20" transform="matrix(12,0,0,12,732.8,1125.2)" />
<use xlink:href="#f2_25" transform="matrix(12,0,0,12,747.1,1125.2)" />
<use xlink:href="#f2_2a" transform="matrix(12,0,0,12,751.9,1125.2)" />
<use xlink:href="#f2_1x" transform="matrix(12,0,0,12,765.4,1125.2)" />
<use xlink:href="#f2_2f" transform="matrix(12,0,0,12,778.2,1125.2)" />
<use xlink:href="#f2_2c" transform="matrix(12,0,0,12,785.2,1125.2)" />
<use xlink:href="#f2_24" transform="matrix(12,0,0,12,794.7,1125.2)" />
<use xlink:href="#f2_21" transform="matrix(12,0,0,12,803.5,1125.2)" />
<use xlink:href="#f2_2e" transform="matrix(12,0,0,12,811.6,1125.2)" />
<use xlink:href="#f2_21" transform="matrix(12,0,0,12,817.8,1125.2)" />
<use xlink:href="#f2_2b" transform="matrix(12,0,0,12,830.6,1125.2)" />
<use xlink:href="#f2_22" transform="matrix(12,0,0,12,840.1,1125.2)" />
<use xlink:href="#f2_2e" transform="matrix(12,0,0,12,55,1160.1)" />
<use xlink:href="#f2_1x" transform="matrix(12,0,0,12,61.3,1160.1)" />
<use xlink:href="#f2_20" transform="matrix(12,0,0,12,69.3,1160.1)" />
<use xlink:href="#f2_25" transform="matrix(12,0,0,12,78.8,1160.1)" />
<use xlink:href="#f2_2h" transform="matrix(12,0,0,12,83.2,1160.1)" />
<use xlink:href="#f2_2f" transform="matrix(12,0,0,12,92.4,1160.1)" />
<use xlink:href="#f2_2e" transform="matrix(12,0,0,12,104.1,1160.1)" />
<use xlink:href="#f2_25" transform="matrix(12,0,0,12,115.4,1160.1)" />
<use xlink:href="#f2_2f" transform="matrix(12,0,0,12,119.8,1160.1)" />
</g>
<path d="M135.3,1155.4h20" class="g6_136" />
<g clip-path="url(#c8_136)">
<g fill="#000000" >
<use xlink:href="#f2_o" transform="matrix(11.8,0,0,12.4,136.6,1148.5)" />
<use xlink:href="#f2_i" transform="matrix(11.8,0,0,12.4,157,1160.1)" />
<use xlink:href="#f2_n" transform="matrix(11.8,0,0,12.4,140.9,1174.4)" />
<use xlink:href="#f3_2e" transform="matrix(11.8,0,0,12.4,146.2,1148.5)" />
</g>
</g>
<g fill="#000000" >
<use xlink:href="#f2_11" transform="matrix(12,0,0,12,167.3,1160.1)" />
<use xlink:href="#f2_28" transform="matrix(12,0,0,12,180.5,1160.1)" />
<use xlink:href="#f2_2f" transform="matrix(12,0,0,12,185.2,1160.1)" />
<use xlink:href="#f2_2b" transform="matrix(12,0,0,12,192.2,1160.1)" />
<use xlink:href="#f2_2f" transform="matrix(12,0,0,12,206.5,1160.1)" />
<use xlink:href="#f2_24" transform="matrix(12,0,0,12,213.4,1160.1)" />
<use xlink:href="#f2_2b" transform="matrix(12,0,0,12,222.2,1160.1)" />
<use xlink:href="#f2_2j" transform="matrix(12,0,0,12,231.8,1160.1)" />
<use xlink:href="#f2_2g" transform="matrix(12,0,0,12,249.4,1160.1)" />
<use xlink:href="#f2_24" transform="matrix(12,0,0,12,254.8,1160.1)" />
<use xlink:href="#f2_1x" transform="matrix(12,0,0,12,263.6,1160.1)" />
<use xlink:href="#f2_2g" transform="matrix(12,0,0,12,271.7,1160.1)" />
<use xlink:href="#f2_2g" transform="matrix(12,0,0,12,281.6,1160.1)" />
<use xlink:href="#f2_24" transform="matrix(12,0,0,12,287.1,1160.1)" />
<use xlink:href="#f2_21" transform="matrix(12,0,0,12,295.9,1160.1)" />
<use xlink:href="#f2_29" transform="matrix(12,0,0,12,308.7,1160.1)" />
<use xlink:href="#f2_1x" transform="matrix(12,0,0,12,322.2,1160.1)" />
<use xlink:href="#f2_2k" transform="matrix(12,0,0,12,330.7,1160.1)" />
<use xlink:href="#f2_25" transform="matrix(12,0,0,12,339.8,1160.1)" />
<use xlink:href="#f2_29" transform="matrix(12,0,0,12,344.9,1160.1)" />
<use xlink:href="#f2_2h" transform="matrix(12,0,0,12,358.9,1160.1)" />
<use xlink:href="#f2_29" transform="matrix(12,0,0,12,368.4,1160.1)" />
<use xlink:href="#f2_2i" transform="matrix(12,0,0,12,387.1,1160.1)" />
<use xlink:href="#f2_2b" transform="matrix(12,0,0,12,395.9,1160.1)" />
<use xlink:href="#f2_28" transform="matrix(12,0,0,12,405.8,1160.1)" />
<use xlink:href="#f2_2h" transform="matrix(12,0,0,12,410.2,1160.1)" />
<use xlink:href="#f2_29" transform="matrix(12,0,0,12,419.7,1160.1)" />
<use xlink:href="#f2_21" transform="matrix(12,0,0,12,433.6,1160.1)" />
<use xlink:href="#f2_2b" transform="matrix(12,0,0,12,446.4,1160.1)" />
<use xlink:href="#f2_22" transform="matrix(12,0,0,12,456,1160.1)" />
<use xlink:href="#f2_2g" transform="matrix(12,0,0,12,466.2,1160.1)" />
<use xlink:href="#f2_24" transform="matrix(12,0,0,12,471.7,1160.1)" />
<use xlink:href="#f2_21" transform="matrix(12,0,0,12,480.5,1160.1)" />
<use xlink:href="#f2_1z" transform="matrix(12,0,0,12,493.3,1160.1)" />
<use xlink:href="#f2_2b" transform="matrix(12,0,0,12,501.4,1160.1)" />
<use xlink:href="#f2_2a" transform="matrix(12,0,0,12,510.9,1160.1)" />
<use xlink:href="#f2_21" transform="matrix(12,0,0,12,519.7,1160.1)" />
<use xlink:href="#f2_25" transform="matrix(12,0,0,12,532.9,1160.1)" />
<use xlink:href="#f2_2f" transform="matrix(12,0,0,12,537.6,1160.1)" />
</g>
<path d="M553,1155.4h21.3" class="g7_136" />
<g clip-path="url(#c9_136)">
<g fill="#000000" >
<use xlink:href="#f2_s" transform="matrix(12,0,0,12.4,558.9,1148.5)" />
<use xlink:href="#f2_m" transform="matrix(12,0,0,12.4,554.3,1174.4)" />
<use xlink:href="#f2_r" transform="matrix(12,0,0,12.4,563.8,1174.4)" />
</g>
</g>
<g fill="#000000" >
<use xlink:href="#f2_2b" transform="matrix(12,0,0,12,582.5,1160.1)" />
<use xlink:href="#f2_22" transform="matrix(12,0,0,12,592,1160.1)" />
<use xlink:href="#f2_2g" transform="matrix(12,0,0,12,602.2,1160.1)" />
<use xlink:href="#f2_24" transform="matrix(12,0,0,12,607.7,1160.1)" />
<use xlink:href="#f2_21" transform="matrix(12,0,0,12,616.5,1160.1)" />
<use xlink:href="#f2_2i" transform="matrix(12,0,0,12,629.3,1160.1)" />
<use xlink:href="#f2_2b" transform="matrix(12,0,0,12,638.1,1160.1)" />
<use xlink:href="#f2_28" transform="matrix(12,0,0,12,648,1160.1)" />
<use xlink:href="#f2_2h" transform="matrix(12,0,0,12,652.4,1160.1)" />
<use xlink:href="#f2_29" transform="matrix(12,0,0,12,661.9,1160.1)" />
<use xlink:href="#f2_21" transform="matrix(12,0,0,12,675.9,1160.1)" />
<use xlink:href="#f2_2b" transform="matrix(12,0,0,12,688.7,1160.1)" />
<use xlink:href="#f2_22" transform="matrix(12,0,0,12,698.2,1160.1)" />
<use xlink:href="#f2_2g" transform="matrix(12,0,0,12,708.4,1160.1)" />
<use xlink:href="#f2_24" transform="matrix(12,0,0,12,713.9,1160.1)" />
<use xlink:href="#f2_21" transform="matrix(12,0,0,12,722.7,1160.1)" />
<use xlink:href="#f2_2f" transform="matrix(12,0,0,12,735.5,1160.1)" />
<use xlink:href="#f2_2c" transform="matrix(12,0,0,12,742.5,1160.1)" />
<use xlink:href="#f2_24" transform="matrix(12,0,0,12,751.7,1160.1)" />
<use xlink:href="#f2_21" transform="matrix(12,0,0,12,760.5,1160.1)" />
<use xlink:href="#f2_2e" transform="matrix(12,0,0,12,768.5,1160.1)" />
<use xlink:href="#f2_21" transform="matrix(12,0,0,12,774.8,1160.1)" />
<use xlink:href="#f2_i" transform="matrix(12,0,0,12,782.8,1160.1)" />
</g>
<path fill-rule="evenodd" d="M37.4,38.1h.7v-.7h-.7v.7Z" class="g8_136" />
<path fill-rule="evenodd" d="M37.4,38.1h.7v-.7h-.7v.7Z" class="g8_136" />
<path fill-rule="evenodd" d="M38.1,38.1H871.5v-.7H38.1v.7Z" class="g8_136" />
<path fill-rule="evenodd" d="M871.5,38.1h.8v-.7h-.8v.7Z" class="g8_136" />
<path fill-rule="evenodd" d="M871.5,38.1h.8v-.7h-.8v.7Z" class="g8_136" />
<path fill-rule="evenodd" d="M37.4,1248.5h.7V38.1h-.7V1248.5Z" class="g8_136" />
<path fill-rule="evenodd" d="M872.3,1248.5h.7V38.1h-.7V1248.5Z" class="g8_136" />
<path fill-rule="evenodd" d="M871.5,1248.5h.8V38.1h-.8V1248.5Z" class="g8_136" />
<path fill-rule="evenodd" d="M37.4,1249.2h.7v-.7h-.7v.7Z" class="g8_136" />
<path fill-rule="evenodd" d="M37.4,1249.2h.7v-.7h-.7v.7Z" class="g8_136" />
<path fill-rule="evenodd" d="M38.1,1249.9H871.5v-.7H38.1v.7Z" class="g8_136" />
<path fill-rule="evenodd" d="M38.1,1249.2H871.5v-.7H38.1v.7Z" class="g8_136" />
<path fill-rule="evenodd" d="M872.3,1249.9h.7v-1.4h-.7v1.4Z" class="g8_136" />
<path fill-rule="evenodd" d="M871.5,1249.9H873v-.7h-1.5v.7Z" class="g8_136" />
<path fill-rule="evenodd" d="M871.5,1249.2h.8v-.7h-.8v.7Z" class="g8_136" />
<path fill-rule="evenodd" d="M871.5,1249.2h.8v-.7h-.8v.7Z" class="g8_136" />
<defs>
<path d="M489,-15c0,0,-99,0,-179,30c0,0,-80,30,-136,91c0,0,-56,61,-85,152c0,0,-30,91,-30,212c0,0,0,123,32,218c0,0,33,96,92,161c0,0,59,65,142,98c0,0,82,34,181,34c0,0,40,0,78,-7c0,0,37,-7,69,-18c0,0,31,-11,57,-25c0,0,25,-14,35,-24c0,0,10,-10,14,-17c0,0,4,-7,6,-17c0,0,2,-11,3,-25c0,0,2,-14,2,-35c0,0,0,-22,-2,-38c0,0,-1,-15,-5,-25c0,0,-4,-10,-9,-14c0,0,-5,-5,-12,-5c0,0,-11,0,-28,13c0,0,-18,13,-45,29c0,0,-27,16,-65,29c0,0,-37,13,-89,13c0,0,-58,0,-103,-23c0,0,-45,-23,-77,-67c0,0,-31,-44,-48,-106c0,0,-16,-61,-16,-139c0,0,0,-85,17,-147c0,0,18,-62,50,-103c0,0,33,-40,79,-60c0,0,45,-19,103,-19c0,0,52,0,90,12c0,0,38,12,65,27c0,0,27,15,45,27c0,0,17,12,27,12c0,0,8,0,12,-3c0,0,4,-3,7,-12c0,0,3,-9,5,-25c0,0,1,-16,1,-43c0,0,0,-18,-1,-31c0,0,-1,-14,-3,-23c0,0,-2,-9,-6,-16c0,0,-4,-7,-12,-15c0,0,-8,-9,-32,-22c0,0,-23,-14,-57,-26C661,13,627,1,583,-6c0,0,-43,-9,-94,-9Z" 
id="f0_j"
transform="scale(0.001,-0.001)" />

<path d="M440,150c0,0,41,0,68,8c0,0,28,9,49,26c0,0,20,16,32,41c0,0,11,25,11,58c0,0,0,33,-11,60c0,0,-11,26,-33,44c0,0,-21,18,-55,28c0,0,-33,9,-87,9H298V150ZM407,567c0,0,42,0,68,10c0,0,25,10,42,28c0,0,16,17,24,41c0,0,9,24,9,50c0,0,0,29,-9,52c0,0,-9,23,-27,39c0,0,-18,15,-45,23c0,0,-27,8,-72,8H298V567ZM164,0c0,0,-25,0,-42,15c0,0,-16,14,-16,47V903c0,0,0,33,16,48c0,0,17,14,42,14H406c0,0,88,0,150,-15c0,0,61,-15,103,-45c0,0,42,-30,65,-77c0,0,22,-46,22,-108c0,0,0,-36,-9,-67c0,0,-9,-31,-26,-56c0,0,-17,-25,-42,-45c0,0,-25,-19,-57,-31c0,0,41,-7,76,-26c0,0,34,-19,60,-48c0,0,26,-30,41,-69c0,0,15,-40,15,-89c0,0,0,-51,-14,-93c0,0,-15,-42,-40,-74c0,0,-25,-32,-59,-55c0,0,-35,-23,-77,-38C614,29,573,14,525,7C525,7,478,0,420,0Z" 
id="f0_i"
transform="scale(0.001,-0.001)" />

<path d="M320,-17c0,0,-50,0,-93,9c0,0,-43,8,-76,19c0,0,-32,11,-54,24C97,35,75,48,65,58c0,0,-10,9,-14,28c0,0,-4,18,-4,52c0,0,0,23,1,39c0,0,2,15,5,25c0,0,4,10,9,14c0,0,6,4,13,4c0,0,11,0,30,-12c0,0,19,-13,49,-28c0,0,30,-15,71,-27c0,0,42,-12,96,-12c0,0,36,0,64,8c0,0,29,9,49,25c0,0,19,15,30,38c0,0,10,23,10,52c0,0,0,33,-18,56c0,0,-18,24,-46,42c0,0,-29,18,-66,34c0,0,-36,16,-75,34c0,0,-39,18,-76,41c0,0,-36,23,-65,54c0,0,-29,32,-47,75c0,0,-17,44,-17,104c0,0,0,70,25,122c0,0,26,53,70,88c0,0,43,34,103,51c0,0,59,18,125,18c0,0,35,0,69,-6c0,0,34,-5,64,-14c0,0,30,-9,53,-20c0,0,23,-11,31,-18c0,0,7,-8,10,-13c0,0,3,-5,4,-14c0,0,2,-8,3,-21c0,0,1,-13,1,-33c0,0,0,-21,-1,-36c0,0,-1,-15,-4,-25c0,0,-3,-9,-7,-14c0,0,-5,-4,-14,-4c0,0,-8,0,-26,10c0,0,-18,10,-44,23c0,0,-26,12,-60,22c0,0,-34,10,-75,10c0,0,-32,0,-56,-8c0,0,-24,-8,-40,-21c0,0,-16,-14,-24,-34c0,0,-8,-19,-8,-41c0,0,0,-32,18,-56c0,0,17,-23,46,-42c0,0,30,-18,67,-34c0,0,38,-16,76,-34c0,0,39,-18,76,-41c0,0,38,-22,67,-54c0,0,29,-32,47,-75c0,0,18,-43,18,-101c0,0,0,-76,-29,-133c0,0,-28,-58,-77,-96C572,60,524,21,459,2c0,0,-65,-19,-139,-19Z" 
id="f0_2n"
transform="scale(0.001,-0.001)" />

<path d="M164,0c0,0,-25,0,-42,15c0,0,-16,14,-16,47V903c0,0,0,33,16,48c0,0,17,14,42,14H645c0,0,7,0,12,-4c0,0,5,-3,9,-13c0,0,4,-9,6,-24c0,0,2,-14,2,-36c0,0,0,-21,-2,-36c0,0,-2,-14,-6,-23c0,0,-4,-9,-9,-13c0,0,-5,-4,-12,-4H301V576H593c0,0,6,0,12,-4c0,0,6,-4,9,-13c0,0,4,-8,6,-23c0,0,2,-14,2,-35c0,0,0,-22,-2,-36c0,0,-2,-14,-6,-23c0,0,-3,-8,-9,-12c0,0,-6,-4,-12,-4H301V154H649c0,0,6,0,12,-5c0,0,5,-4,9,-13c0,0,4,-9,6,-23c0,0,2,-15,2,-36c0,0,0,-22,-2,-36c0,0,-2,-15,-6,-24c0,0,-4,-9,-9,-13c0,0,-6,-4,-12,-4Z" 
id="f0_t"
transform="scale(0.001,-0.001)" />

<path d="M79,297c0,0,-19,0,-27,18c0,0,-8,17,-8,60c0,0,0,41,8,59c0,0,8,17,27,17H389c0,0,9,0,15,-4c0,0,7,-4,11,-13c0,0,5,-9,7,-23c0,0,1,-15,1,-36c0,0,0,-43,-8,-61c0,0,-8,-17,-26,-17Z" 
id="f0_oj"
transform="scale(0.001,-0.001)" />

<path d="M121,-4c0,0,-39,0,-60,2C61,-2,39,0,32,8c0,0,-8,8,-3,24c0,0,4,15,18,41L279,495L64,892c0,0,-14,26,-19,42c0,0,-5,17,4,24c0,0,9,8,32,10c0,0,23,2,65,2c0,0,35,0,56,-2c0,0,20,-1,32,-4c0,0,12,-4,17,-10c0,0,5,-6,9,-15L431,620L595,939c0,0,5,9,10,15c0,0,5,6,16,10c0,0,10,3,29,4c0,0,19,2,53,2c0,0,37,0,59,-2c0,0,22,-2,30,-10c0,0,8,-8,4,-24c0,0,-4,-16,-17,-42L564,497L793,73c0,0,14,-26,18,-41c0,0,4,-16,-5,-24c0,0,-9,-8,-32,-10c0,0,-24,-2,-65,-2c0,0,-36,0,-56,2c0,0,-20,1,-31,3c0,0,-12,4,-17,10c0,0,-5,6,-9,15L414,374L233,26c0,0,-4,-9,-9,-15c0,0,-6,-6,-17,-10c0,0,-12,-2,-32,-3c0,0,-21,-2,-54,-2Z" 
id="f0_3e"
transform="scale(0.001,-0.001)" />

<path d="M204,-4c0,0,-28,0,-47,2c0,0,-19,2,-31,5c0,0,-11,4,-16,10c0,0,-4,6,-4,13V939c0,0,0,7,4,13c0,0,5,6,17,10c0,0,11,3,30,6c0,0,19,2,47,2c0,0,29,0,48,-2c0,0,18,-3,29,-6c0,0,11,-4,16,-10c0,0,5,-6,5,-13V26c0,0,0,-7,-5,-13c0,0,-5,-6,-16,-10c0,0,-11,-3,-29,-5c0,0,-19,-2,-48,-2Z" 
id="f0_1c"
transform="scale(0.001,-0.001)" />

<path d="M127,0c0,0,-16,0,-28,3C99,3,87,6,80,15c0,0,-8,8,-11,25c0,0,-3,16,-3,42c0,0,0,25,2,42c0,0,2,18,8,32c0,0,6,14,15,27c0,0,9,13,24,29L282,390c0,0,50,53,81,95c0,0,30,43,47,79c0,0,17,35,24,65c0,0,6,30,6,57c0,0,0,24,-8,46c0,0,-8,22,-23,39c0,0,-15,16,-38,25c0,0,-23,10,-55,10c0,0,-44,0,-78,-12c0,0,-33,-11,-59,-25c0,0,-26,-13,-43,-25c0,0,-17,-12,-27,-12c0,0,-7,0,-11,5c0,0,-5,4,-8,15c0,0,-3,10,-5,28c0,0,-2,17,-2,42c0,0,0,18,1,29c0,0,1,12,4,20c0,0,2,9,6,15c0,0,3,6,13,15c0,0,9,9,34,23c0,0,25,14,61,27c0,0,37,14,81,23c0,0,44,9,92,9c0,0,75,0,131,-19c0,0,57,-19,94,-53c0,0,37,-34,55,-81c0,0,19,-47,19,-100c0,0,0,-47,-9,-93c0,0,-9,-45,-37,-98c0,0,-29,-52,-80,-116c0,0,-52,-64,-136,-148L299,159H679c0,0,8,0,14,-4c0,0,6,-5,11,-14c0,0,4,-9,7,-25c0,0,2,-15,2,-36c0,0,0,-22,-2,-37c0,0,-2,-15,-6,-25c0,0,-3,-10,-9,-14c0,0,-6,-4,-14,-4Z" 
id="f0_rz"
transform="scale(0.001,-0.001)" />

<path d="M385,138c0,0,29,0,52,9c0,0,22,10,39,28c0,0,17,19,28,47c0,0,11,29,19,66c0,0,7,37,9,84c0,0,3,47,3,104c0,0,0,69,-4,122c0,0,-4,52,-11,91c0,0,-8,39,-20,66c0,0,-12,27,-28,43c0,0,-16,16,-37,22c0,0,-21,7,-47,7c0,0,-44,0,-73,-21c0,0,-28,-21,-45,-64c0,0,-17,-42,-24,-106c0,0,-6,-63,-6,-148c0,0,0,-103,8,-171c0,0,8,-67,26,-107c0,0,17,-40,45,-56c0,0,27,-16,66,-16ZM378,-17c0,0,-99,0,-164,33c0,0,-65,34,-103,98c0,0,-38,64,-54,156c0,0,-15,92,-15,209c0,0,0,115,19,208c0,0,19,94,61,160c0,0,42,65,110,101c0,0,68,35,165,35c0,0,99,0,164,-34c0,0,65,-34,103,-98c0,0,39,-64,53,-156c0,0,15,-92,15,-209c0,0,0,-115,-18,-209c0,0,-19,-93,-61,-159C653,118,611,53,543,17c0,0,-67,-34,-165,-34Z" 
id="f0_rx"
transform="scale(0.001,-0.001)" />

<path d="M142,0c0,0,-6,0,-12,4c0,0,-5,3,-9,12c0,0,-4,9,-6,23c0,0,-3,15,-3,36c0,0,0,21,2,36c0,0,2,14,6,23c0,0,4,9,10,13c0,0,5,5,12,5H322V779L166,693c0,0,-17,-8,-28,-10c0,0,-1,0,-3,0c-4,0,-10,1,-14,5c0,0,-6,6,-8,22c0,0,-2,15,-2,44c0,0,0,18,0,29c0,0,1,12,4,20c0,0,3,8,8,14c0,0,5,5,14,11L345,962c0,0,4,3,9,5c0,0,6,2,15,3c0,0,9,1,23,2c0,0,15,0,38,0c0,0,28,0,46,-1c0,0,17,-1,26,-4c0,0,9,-3,12,-7c0,0,3,-4,3,-11V152H675c0,0,7,0,12,-5c0,0,6,-4,10,-13c0,0,4,-9,6,-23c0,0,2,-15,2,-36c0,0,0,-21,-2,-36c0,0,-3,-14,-7,-23c0,0,-4,-9,-9,-12c0,0,-5,-4,-12,-4Z" 
id="f0_ry"
transform="scale(0.001,-0.001)" />

<path d="M439,356V801h-1L183,356ZM532,-4c0,0,-27,0,-45,2c0,0,-18,2,-29,5c0,0,-11,3,-15,9c0,0,-4,5,-4,13V199H70c0,0,-11,0,-19,3c0,0,-8,3,-14,12c0,0,-5,9,-8,27c0,0,-3,17,-3,46c0,0,0,24,2,42c0,0,1,17,3,31c0,0,3,15,8,27c0,0,5,13,12,27L351,944c0,0,4,7,13,11c0,0,9,5,25,9c0,0,16,3,40,4c0,0,25,2,60,2c0,0,38,0,65,-2c0,0,27,-2,43,-6c0,0,16,-4,23,-10c0,0,8,-6,8,-14V356h85c0,0,12,0,21,-18c0,0,8,-19,8,-61c0,0,0,-38,-8,-58c0,0,-7,-20,-21,-20H628V25c0,0,0,-8,-5,-13c0,0,-4,-6,-15,-9c0,0,-12,-3,-29,-5c0,0,-18,-2,-47,-2Z" 
id="f0_s6"
transform="scale(0.001,-0.001)" />

<path d="M589,371L453,782h-1L317,371ZM106,-4c0,0,-35,0,-54,2C52,-2,32,0,25,8c0,0,-7,9,-5,24c0,0,2,16,11,42L329,931c0,0,4,13,10,21c0,0,6,7,19,12c0,0,13,4,36,5c0,0,23,1,61,1c0,0,44,0,71,-1c0,0,26,-1,40,-5c0,0,15,-5,21,-13c0,0,6,-8,11,-22L896,73c0,0,9,-27,11,-43c0,0,3,-15,-6,-23c0,0,-8,-7,-29,-9c0,0,-21,-2,-57,-2c0,0,-38,0,-59,1c0,0,-22,1,-33,4c0,0,-11,3,-16,9c0,0,-4,6,-7,16L635,220H272L211,31c0,0,-2,-11,-7,-18c0,0,-5,-7,-16,-11c0,0,-11,-3,-31,-4c0,0,-19,-2,-51,-2Z" 
id="f0_5"
transform="scale(0.001,-0.001)" />

<path d="M198,-4c0,0,-27,0,-45,2c0,0,-18,2,-28,5c0,0,-11,4,-15,10c0,0,-4,6,-4,13V887c0,0,0,38,20,58c0,0,20,20,53,20H308c0,0,34,0,59,-6c0,0,24,-5,42,-18c0,0,18,-13,30,-35c0,0,12,-21,21,-52L669,279h3L889,852c0,0,9,32,21,53c0,0,11,22,27,35c0,0,15,14,36,19c0,0,21,6,48,6h132c0,0,21,0,35,-5c0,0,15,-5,24,-15c0,0,9,-11,14,-25c0,0,5,-15,5,-33V26c0,0,0,-7,-4,-13c0,0,-4,-6,-15,-10c0,0,-11,-3,-29,-5c0,0,-18,-2,-45,-2c0,0,-27,0,-45,2c0,0,-18,2,-28,5c0,0,-11,4,-15,10c0,0,-5,6,-5,13V813h-1L764,27c0,0,-3,-10,-10,-16c0,0,-6,-6,-18,-10c0,0,-12,-3,-29,-4c0,0,-18,-1,-44,-1c0,0,-25,0,-43,2c0,0,-18,2,-29,5c0,0,-12,4,-19,10c0,0,-6,6,-9,14L293,813h-2V26c0,0,0,-7,-4,-13c0,0,-4,-6,-15,-10c0,0,-11,-3,-29,-5c0,0,-17,-2,-45,-2Z" 
id="f0_1x"
transform="scale(0.001,-0.001)" />

<path d="M193,-4c0,0,-26,0,-43,2c0,0,-18,2,-27,6c0,0,-10,4,-14,10c0,0,-3,6,-3,13V895c0,0,0,35,20,53c0,0,21,17,50,17H282c0,0,28,0,47,-5c0,0,20,-5,35,-16c0,0,15,-11,29,-31c0,0,13,-20,27,-49L608,511c0,0,17,-32,33,-63c0,0,16,-31,31,-62c0,0,14,-31,29,-60c0,0,14,-30,27,-60h1c0,0,-2,52,-3,109c0,0,-1,57,-1,108V936c0,0,0,7,4,13c0,0,5,6,15,11c0,0,10,4,28,6c0,0,17,2,44,2c0,0,25,0,42,-2c0,0,17,-2,27,-6c0,0,9,-5,13,-11c0,0,4,-6,4,-13V68c0,0,0,-17,-6,-30c0,0,-6,-14,-17,-23C879,15,869,6,856,2c0,0,-14,-3,-28,-3H744c0,0,-26,0,-45,4c0,0,-19,5,-35,19c0,0,-16,14,-31,38c0,0,-15,23,-34,60L359,572c0,0,-21,40,-43,86c0,0,-21,47,-38,91h-2c0,0,3,-54,5,-107c0,0,2,-53,2,-110V27c0,0,0,-7,-5,-13c0,0,-4,-6,-14,-10c0,0,-10,-4,-27,-6c0,0,-17,-2,-44,-2Z" 
id="f0_1y"
transform="scale(0.001,-0.001)" />

<path d="M378,-4c0,0,-28,0,-47,2c0,0,-19,2,-31,5c0,0,-11,4,-16,10c0,0,-4,6,-4,13V805H38c0,0,-8,0,-13,4c0,0,-5,5,-9,14c0,0,-3,9,-5,25c0,0,-2,15,-2,37c0,0,0,22,2,38c0,0,2,15,5,25c0,0,4,9,9,13c0,0,5,4,13,4H718c0,0,7,0,12,-4c0,0,6,-4,10,-13c0,0,3,-10,5,-25c0,0,2,-16,2,-38c0,0,0,-22,-2,-37c0,0,-2,-16,-5,-25c0,0,-4,-9,-10,-14c0,0,-5,-4,-12,-4H476V26c0,0,0,-7,-5,-13c0,0,-5,-6,-16,-10c0,0,-11,-3,-30,-5c0,0,-19,-2,-47,-2Z" 
id="f0_2t"
transform="scale(0.001,-0.001)" />

<path d="M514,145c0,0,72,0,121,27c0,0,48,26,78,73c0,0,30,46,42,107c0,0,13,62,13,131c0,0,0,76,-12,139c0,0,-12,62,-41,106c0,0,-29,45,-76,69c0,0,-48,24,-120,24c0,0,-72,0,-120,-27c0,0,-49,-27,-79,-73c0,0,-29,-45,-42,-106c0,0,-12,-61,-12,-129c0,0,0,-79,12,-142c0,0,12,-63,40,-108c0,0,28,-44,76,-68c0,0,48,-23,120,-23ZM508,-17c0,0,-113,0,-196,29c0,0,-84,29,-140,90c0,0,-56,60,-84,154c0,0,-28,93,-28,221c0,0,0,117,29,210c0,0,30,94,89,160c0,0,59,65,146,101c0,0,87,35,202,35c0,0,110,0,194,-29c0,0,84,-30,140,-90c0,0,56,-60,85,-153c0,0,29,-92,29,-217c0,0,0,-120,-30,-215c0,0,-30,-95,-89,-161C855,118,796,52,709,17c0,0,-87,-34,-201,-34Z" 
id="f0_24"
transform="scale(0.001,-0.001)" />

<path d="M299,0V777H162l36,173H508V0Z" 
id="f1_l"
transform="scale(0.001,-0.001)" />

<path d="M403,168c0,0,50,0,85,37c0,0,35,36,35,89c0,0,0,50,-35,85c0,0,-35,36,-85,36c0,0,-47,0,-81,-37c0,0,-35,-37,-35,-89c0,0,0,-47,36,-84c0,0,35,-37,80,-37Zm3,426c0,0,39,0,70,28c0,0,31,29,31,65c0,0,0,46,-28,77c0,0,-29,31,-73,31c0,0,-42,0,-71,-29c0,0,-28,-29,-28,-70c0,0,0,-44,28,-73c0,0,29,-29,71,-29Zm2,-605c0,0,-145,0,-234,75c0,0,-90,76,-90,197c0,0,0,150,140,239c0,0,-59,52,-87,101c0,0,-27,49,-27,112c0,0,0,103,77,179c0,0,77,75,216,75c0,0,136,0,217,-68c0,0,81,-68,81,-180c0,0,0,-130,-115,-217c0,0,140,-90,140,-237c0,0,0,-124,-89,-200c0,0,-88,-76,-229,-76Z" 
id="f1_s"
transform="scale(0.001,-0.001)" />

<path d="M44,-281L425,1053H537L156,-281Z" 
id="f1_j"
transform="scale(0.001,-0.001)" />

<path d="M75,0L400,413c0,0,71,91,101,149c0,0,30,58,30,109c0,0,0,55,-36,91c0,0,-36,36,-91,36c0,0,-63,0,-91,-45c0,0,-28,-46,-34,-142H67c0,0,0,173,102,268c0,0,102,95,253,95c0,0,140,0,229,-82c0,0,89,-82,89,-209c0,0,0,-125,-104,-276L580,324c0,0,-34,-50,-85,-114L468,178H740V0Z" 
id="f1_m"
transform="scale(0.001,-0.001)" />

<path d="M340,-13c0,0,-73,0,-129,20C211,7,155,27,86,74l22,217c0,0,156,-103,245,-103c0,0,64,0,112,45c0,0,47,46,47,107c0,0,0,68,-47,113c0,0,-48,46,-121,46c0,0,-85,0,-184,-42l48,495H681V777H393L382,665c0,0,163,0,251,-95c0,0,88,-95,88,-224c0,0,0,-146,-113,-253C608,93,494,-13,340,-13Z" 
id="f1_p"
transform="scale(0.001,-0.001)" />

<path d="M420,-22L89,941L1,960v40H383V960L236,941L474,236L744,930h33L1037,236l227,705l-156,19v40h331V960l-87,-19L1025,-22H985L726,666L460,-22Z" 
id="f2_1n"
transform="scale(0.001,-0.001)" />

<path d="M495,413c0,0,0,133,-34,190c0,0,-34,57,-105,57c0,0,-78,0,-119,-63c0,0,-42,-62,-42,-184ZM374,-14c0,0,-163,0,-239,87c0,0,-75,88,-75,283c0,0,0,183,77,273c0,0,76,91,219,91c0,0,269,0,269,-306V353H194V340c0,0,0,-103,23,-160c0,0,22,-57,70,-87c0,0,47,-29,124,-29c0,0,40,0,96,6c0,0,55,7,91,15V43C598,43,562,20,500,3c0,0,-61,-17,-126,-17Z" 
id="f2_21"
transform="scale(0.001,-0.001)" />

<path d="M399,-14c0,0,-341,0,-341,370c0,0,0,175,87,269c0,0,87,95,249,95c0,0,101,0,220,-23V501H573L541,625c0,0,-62,35,-149,35c0,0,-200,0,-200,-304c0,0,0,-158,61,-225c0,0,61,-67,189,-67c0,0,109,0,189,24V43C631,43,595,16,530,1c0,0,-64,-15,-131,-15Z" 
id="f2_1z"
transform="scale(0.001,-0.001)" />

<path d="M284,67c0,0,51,0,88,12c0,0,37,12,74,30V358l-98,-3c0,0,-100,-4,-135,-39c0,0,-35,-35,-35,-117c0,0,0,-132,106,-132ZM233,-14c0,0,-179,0,-179,208c0,0,0,70,27,116c0,0,27,46,87,70c0,0,60,24,173,27l105,3V519c0,0,0,72,-26,107c0,0,-27,34,-82,34c0,0,-75,0,-137,-35L176,538H134V691c0,0,121,26,213,26c0,0,115,0,169,-47c0,0,54,-47,54,-144V52L657,33V0H465L451,70c0,0,-85,-84,-218,-84Z" 
id="f2_1x"
transform="scale(0.001,-0.001)" />

<path d="M439,0V33l93,19V500c0,0,0,62,-30,97c0,0,-31,36,-94,36c0,0,-67,0,-165,-22V52L338,33V0H35V33l84,19V649L35,668v33H235l7,-57c0,0,57,33,122,54c0,0,65,22,108,22c0,0,91,0,137,-53c0,0,47,-53,47,-154V52L741,33V0Z" 
id="f2_2a"
transform="scale(0.001,-0.001)" />

<path d="M31,0V33l88,19V649L31,668v33H235l7,-87c0,0,44,37,121,71c0,0,76,35,121,35h11V530H463l-43,82c0,0,-37,0,-88,-10c0,0,-52,-10,-89,-26V52L363,33V0Z" 
id="f2_2e"
transform="scale(0.001,-0.001)" />

<path d="M382,45c0,0,188,0,188,314c0,0,0,143,-47,213c0,0,-46,69,-141,69c0,0,-87,0,-146,-24V58c0,0,67,-13,146,-13ZM25,-325v35l88,18V649L34,668v33H231l1,-41c0,0,31,27,84,43c0,0,53,17,107,17c0,0,134,0,208,-94c0,0,73,-93,73,-267c0,0,0,-178,-80,-276c0,0,-80,-97,-232,-97c0,0,-84,0,-160,16c0,0,4,-53,4,-84V-272l123,-18v-35Z" 
id="f2_2c"
transform="scale(0.001,-0.001)" />

<path d="M278,-14c0,0,-52,0,-115,11c0,0,-63,10,-99,23V193H98L134,95c0,0,56,-50,146,-50c0,0,144,0,144,123c0,0,0,91,-114,130l-66,21c0,0,-75,25,-110,50c0,0,-34,26,-53,63c0,0,-18,36,-18,89c0,0,0,92,63,145c0,0,63,54,170,54c0,0,77,0,193,-23V544H454l-32,81c0,0,-39,35,-124,35c0,0,-61,0,-92,-30c0,0,-32,-30,-32,-80c0,0,0,-43,29,-72c0,0,28,-29,86,-48c0,0,110,-38,144,-55c0,0,33,-17,57,-42c0,0,23,-25,36,-57c0,0,13,-32,13,-79c0,0,0,-104,-66,-158c0,0,-66,-53,-195,-53Z" 
id="f2_2f"
transform="scale(0.001,-0.001)" />

<path d="M249,-14c0,0,-71,0,-107,42c0,0,-35,42,-35,119V639H15v33l93,29l76,159h47V701H391V639H231V161c0,0,0,-48,22,-73c0,0,22,-24,57,-24c0,0,44,0,106,12V26C416,26,389,8,340,-2c0,0,-49,-12,-91,-12Z" 
id="f2_2g"
transform="scale(0.001,-0.001)" />

<path d="M442,0V33l93,19V504c0,0,0,129,-124,129c0,0,-70,0,-168,-22V52L338,33V0H31V33l88,19v956L15,1026v34H243V756c0,0,0,-77,-5,-112c0,0,54,31,122,53c0,0,68,23,115,23c0,0,91,0,137,-53c0,0,47,-53,47,-154V52L744,33V0Z" 
id="f2_24"
transform="scale(0.001,-0.001)" />

<path d="M359,-270c0,0,124,0,192,46c0,0,67,47,67,129c0,0,0,43,-26,67c0,0,-26,24,-79,24H242c0,0,-32,-27,-51,-69c0,0,-20,-41,-20,-77c0,0,0,-64,46,-92c0,0,46,-28,142,-28Zm11,561c0,0,81,0,115,47c0,0,34,47,34,141c0,0,0,100,-35,142c0,0,-35,42,-113,42c0,0,-78,0,-114,-43c0,0,-37,-42,-37,-141c0,0,0,-98,36,-143c0,0,36,-45,114,-45ZM359,-329c0,0,-143,0,-218,44c0,0,-75,43,-75,125c0,0,0,39,27,78c0,0,26,38,98,89c0,0,-43,14,-72,48c0,0,-29,35,-29,74L208,262c0,0,-118,55,-118,217c0,0,0,115,73,178c0,0,73,63,211,63c0,0,28,0,71,-6c0,0,44,-6,67,-13l165,83l26,-32L599,644c0,0,50,-56,50,-165c0,0,0,-120,-72,-182c0,0,-73,-62,-208,-62c0,0,-62,0,-114,11L208,148c0,0,2,-13,29,-24c0,0,27,-12,67,-12H512c0,0,113,0,168,-49c0,0,55,-49,55,-134c0,0,0,-79,-44,-137c0,0,-43,-58,-128,-90c0,0,-84,-31,-204,-31Z" 
id="f2_23"
transform="scale(0.001,-0.001)" />

<path d="M32,0V33L151,52V649L52,668v33H275V52L395,33V0ZM201,850c0,0,-32,0,-56,24c0,0,-24,24,-24,56c0,0,0,34,24,58c0,0,24,24,56,24c0,0,34,0,58,-24c0,0,24,-24,24,-58c0,0,0,-32,-24,-56c0,0,-24,-24,-58,-24Z" 
id="f2_25"
transform="scale(0.001,-0.001)" />

<path d="M360,-14L72,649L0,668v33H327V668L216,648L420,164L615,649L504,668v33H764V668L697,652L416,-14Z" 
id="f2_2i"
transform="scale(0.001,-0.001)" />

<path d="M383,64c0,0,44,0,87,7c0,0,43,7,65,17V645c0,0,-67,13,-152,13c0,0,-194,0,-194,-309c0,0,0,-143,48,-214c0,0,47,-71,146,-71Zm56,-389v35l96,18V-77c0,0,0,73,7,124c0,0,-79,-61,-200,-61c0,0,-287,0,-287,362c0,0,0,180,81,276c0,0,81,96,237,96c0,0,84,0,166,-18l67,33h53V-272l77,-18v-35Z" 
id="f2_2d"
transform="scale(0.001,-0.001)" />

<path d="M289,-14c0,0,-179,0,-179,205V649L20,668v33H233V200c0,0,0,-128,120,-128c0,0,92,0,173,23V649L420,668v33H649V52L738,33V0H533l-6,57C527,57,474,28,405,7c0,0,-69,-21,-116,-21Z" 
id="f2_2h"
transform="scale(0.001,-0.001)" />

<path d="M377,45c0,0,99,0,147,73c0,0,47,73,47,237c0,0,0,161,-47,233c0,0,-47,72,-147,72c0,0,-97,0,-141,-69c0,0,-44,-69,-44,-236c0,0,0,-169,45,-240c0,0,44,-70,140,-70Zm0,-59c0,0,-158,0,-238,94c0,0,-81,95,-81,274c0,0,0,178,81,272c0,0,80,94,244,94c0,0,160,0,241,-92c0,0,82,-92,82,-274c0,0,0,-368,-329,-368Z" 
id="f2_2b"
transform="scale(0.001,-0.001)" />

<path d="M431,0V33L535,52V499c0,0,0,62,-32,96c0,0,-32,33,-95,33c0,0,-66,0,-163,-22V52L350,33V0H32V33l89,19V649L32,668v33H237l6,-57c0,0,56,32,119,54c0,0,62,22,110,22c0,0,52,0,95,-20c0,0,44,-19,66,-62c0,0,57,32,134,57c0,0,77,25,128,25c0,0,179,0,179,-207V52l90,-19V0H846V33L950,52V499c0,0,0,129,-119,129c0,0,-19,0,-45,-3c0,0,-26,-3,-52,-7c0,0,-25,-4,-49,-8c0,0,-23,-5,-39,-8c0,0,13,-41,13,-89V52L764,33V0Z" 
id="f2_29"
transform="scale(0.001,-0.001)" />

<path d="M13,0V34L95,46L325,350L122,649L40,668v33H357V668L264,648L399,446L554,649l-96,19v33H710V668L630,652L433,397L663,50L745,34V0H427V34l94,17L359,299L169,50L266,34V0Z" 
id="f2_2k"
transform="scale(0.001,-0.001)" />

<path d="M31,0V33L150,52v956L31,1026v34H274V52L394,33V0Z" 
id="f2_28"
transform="scale(0.001,-0.001)" />

<path d="M211,-20c0,0,-39,0,-64,25c0,0,-26,27,-26,64c0,0,0,38,26,64c0,0,26,26,64,26c0,0,37,0,64,-25c0,0,26,-26,26,-65c0,0,0,-37,-26,-64c0,0,-26,-25,-64,-25Zm0,556c0,0,-38,0,-64,26c0,0,-26,26,-26,64c0,0,0,37,26,64c0,0,25,27,64,27c0,0,38,0,64,-27c0,0,26,-27,26,-64c0,0,0,-38,-26,-64c0,0,-27,-26,-64,-26Z" 
id="f2_u"
transform="scale(0.001,-0.001)" />

<path d="M529,65c0,0,183,0,270,108c0,0,87,108,87,334c0,0,0,210,-113,318c0,0,-113,108,-322,108H316V71c0,0,90,-6,213,-6Zm0,-67L172,0H44V40L172,60V941L44,960v40H498c0,0,277,0,411,-123c0,0,133,-124,133,-371c0,0,0,-251,-129,-380C913,126,785,-2,529,-2Z" 
id="f2_14"
transform="scale(0.001,-0.001)" />

<path d="M663,0V40L790,60L527,448L236,60L360,40V0H34V40L144,60L484,512L194,941L81,960v40H494V960L367,941L574,633L806,941L683,960v40h327V960L900,941L618,567L962,60L1076,40V0Z" 
id="f2_1o"
transform="scale(0.001,-0.001)" />

<path d="M76,316v76H787V316Zm0,306v76H787V622Z" 
id="f2_x"
transform="scale(0.001,-0.001)" />

<path d="M44,0V40L172,60V941L44,960v40H794V760H745L721,922c0,0,-83,11,-241,11H316V543H586l23,119h48V354H609L586,475H316V67H513c0,0,193,0,252,12l43,185h49L843,0Z" 
id="f2_15"
transform="scale(0.001,-0.001)" />

<path d="M350,-14c0,0,-142,0,-269,31L73,228h49L156,87c0,0,29,-16,82,-28c0,0,54,-12,100,-12c0,0,117,0,173,54c0,0,56,53,56,178c0,0,0,99,-52,150c0,0,-51,51,-159,56l-107,6v61l107,7c0,0,84,5,124,52c0,0,41,48,41,145c0,0,0,101,-44,147c0,0,-44,45,-139,45c0,0,-40,0,-83,-10c0,0,-43,-11,-76,-29L153,786H104V979c0,0,74,19,127,26c0,0,54,6,107,6c0,0,321,0,321,-246c0,0,0,-104,-57,-165c0,0,-57,-62,-162,-77c0,0,136,-16,200,-78c0,0,64,-62,64,-173c0,0,0,-135,-92,-211c0,0,-93,-75,-262,-75Z" 
id="f2_n"
transform="scale(0.001,-0.001)" />

<path d="M67,0V109L206,235c0,0,133,118,196,190c0,0,63,72,90,149c0,0,27,77,27,177c0,0,0,97,-44,148c0,0,-44,50,-144,50c0,0,-39,0,-81,-10c0,0,-42,-11,-74,-29L150,787H101V980c0,0,135,32,230,32c0,0,164,0,247,-68c0,0,82,-69,82,-193c0,0,0,-84,-32,-158c0,0,-33,-75,-100,-148c0,0,-67,-74,-222,-206c0,0,-67,-57,-141,-125H680V0Z" 
id="f2_m"
transform="scale(0.001,-0.001)" />

<path d="M134,0V40L339,60V876L137,804v39l292,166h39V60L672,40V0Z" 
id="f2_l"
transform="scale(0.001,-0.001)" />

<path d="M410,45c0,0,90,0,130,58c0,0,40,59,40,193c0,0,0,122,-38,177c0,0,-38,54,-122,54c0,0,-102,0,-217,-37c0,0,0,-227,51,-336c0,0,52,-109,156,-109Zm3,-59c0,0,-169,0,-258,131c0,0,-89,131,-89,377c0,0,0,161,47,278c0,0,47,117,131,178c0,0,85,61,196,61c0,0,109,0,217,-26V813H608L582,915c0,0,-25,13,-67,23c0,0,-41,10,-75,10c0,0,-109,0,-170,-105c0,0,-60,-106,-66,-308c0,0,121,63,244,63c0,0,132,0,201,-74c0,0,69,-74,69,-214c0,0,0,-156,-78,-240c0,0,-79,-84,-227,-84Z" 
id="f2_q"
transform="scale(0.001,-0.001)" />

<path d="M377,45c0,0,99,0,145,108c0,0,46,109,46,352c0,0,0,240,-45,345c0,0,-46,106,-146,106c0,0,-97,0,-139,-100c0,0,-43,-99,-43,-351c0,0,0,-254,44,-357c0,0,43,-103,138,-103Zm0,-59c0,0,-158,0,-238,132c0,0,-81,133,-81,386c0,0,0,249,81,380c0,0,80,132,244,132c0,0,159,0,241,-130c0,0,82,-130,82,-382c0,0,0,-518,-329,-518Z" 
id="f2_k"
transform="scale(0.001,-0.001)" />

<path d="M476,327V830h-4L114,327ZM476,0V220H30v99l488,686h86V327H740V220H604V0Z" 
id="f2_o"
transform="scale(0.001,-0.001)" />

<path d="M370,468c0,0,96,0,194,40c0,0,0,229,-45,336c0,0,-45,107,-146,107c0,0,-187,0,-187,-259c0,0,0,-115,45,-169c0,0,45,-55,139,-55ZM312,-14c0,0,-122,0,-223,25V184h48L163,76c0,0,24,-11,65,-20c0,0,40,-9,81,-9c0,0,119,0,183,105c0,0,65,104,71,307c0,0,-113,-62,-230,-62c0,0,-132,0,-208,79c0,0,-76,78,-76,219c0,0,0,151,85,233c0,0,84,83,237,83c0,0,171,0,251,-123c0,0,79,-123,79,-385c0,0,0,-252,-102,-385C599,118,497,-14,312,-14Z" 
id="f2_t"
transform="scale(0.001,-0.001)" />

<path d="M-6,0c0,0,-12,10,-12,32c0,0,0,21,23,51c0,0,23,31,79,82L287,354L159,649L79,668l6,33H270L378,434l93,88c0,0,47,46,67,72c0,0,19,26,19,44c0,0,0,8,-6,13c0,0,-7,6,-38,17l6,33H651c0,0,16,-12,16,-32c0,0,0,-44,-103,-142L404,377L548,49L634,33L628,0H437L313,298L185,176c0,0,-41,-40,-60,-65c0,0,-19,-26,-19,-48c0,0,0,-21,31,-29L131,0Z" 
id="f3_2k"
transform="scale(0.001,-0.001)" />

<path d="M-15,-329c0,0,-61,0,-112,13l28,152h34l12,-72c0,0,18,-17,60,-17c0,0,100,0,212,202L253,9L116,649L33,668l6,33H230L338,155L513,458c0,0,48,83,48,144c0,0,0,27,-16,44c0,0,-15,16,-33,22l6,33H659c0,0,20,-17,20,-47c0,0,0,-59,-62,-164L322,-7c0,0,-86,-145,-135,-205c0,0,-50,-61,-98,-89c0,0,-49,-28,-104,-28Z" 
id="f3_2l"
transform="scale(0.001,-0.001)" />

<path d="M-16,0l7,34L410,641H299c0,0,-42,0,-81,-7c0,0,-40,-7,-58,-19L119,514H84l34,187H574l-6,-36L149,60H296c0,0,42,0,81,9c0,0,40,9,66,26l57,109h35L481,0Z" 
id="f3_2m"
transform="scale(0.001,-0.001)" />

<path d="M0,-123V1415H525v-72H72V-123Z" 
id="f4_4r"
transform="scale(0.001,-0.001)" />

<path d="M478,-123V1343H26v72H550V-123Z" 
id="f4_57"
transform="scale(0.001,-0.001)" />

<path d="M0,-123V1415H72V-123Z" 
id="f4_4s"
transform="scale(0.001,-0.001)" />

<path d="M0,-123V1415H72V-123Z" 
id="f4_58"
transform="scale(0.001,-0.001)" />

<path d="M0,214v74H784V214ZM0,494v72H784V494Z" 
id="f4_x"
transform="scale(0.001,-0.001)" />

<path d="M0,-123V1415H72V-51H525v-72Z" 
id="f4_4t"
transform="scale(0.001,-0.001)" />

<path d="M26,-123v72H478V1415h72V-123Z" 
id="f4_59"
transform="scale(0.001,-0.001)" />

<path d="M410,-14c0,0,-80,0,-162,14c0,0,-81,14,-144,38V270h48L178,134c0,0,28,-35,95,-62c0,0,68,-27,134,-27c0,0,104,0,163,53c0,0,58,54,58,148c0,0,0,54,-23,89c0,0,-22,35,-59,59c0,0,-37,24,-84,41c0,0,-47,17,-97,34c0,0,-49,17,-96,38c0,0,-47,21,-84,53c0,0,-37,32,-60,79c0,0,-23,48,-23,117c0,0,0,119,90,187c0,0,89,68,248,68c0,0,121,0,263,-32V771H654L628,893c0,0,-76,55,-188,55c0,0,-100,0,-156,-40c0,0,-56,-41,-56,-112c0,0,0,-49,22,-81c0,0,23,-32,60,-55c0,0,37,-22,84,-39c0,0,48,-16,97,-34c0,0,50,-17,97,-39c0,0,48,-22,85,-56c0,0,36,-34,59,-83c0,0,23,-49,23,-120c0,0,0,-145,-89,-224c0,0,-89,-79,-256,-79Z" 
id="f2_1j"
transform="scale(0.001,-0.001)" />

<path d="M64,0V34L168,59V639H47v36l121,29v49c0,0,0,155,61,239c0,0,62,84,173,84c0,0,58,0,107,-15V908H472l-33,92c0,0,-26,16,-62,16c0,0,-47,0,-66,-42c0,0,-19,-42,-19,-157V701H478V639H292V59L443,34V0Z" 
id="f2_22"
transform="scale(0.001,-0.001)" />

<path d="M115,-329V1060h76V-329Z" 
id="f2_2o"
transform="scale(0.001,-0.001)" />

<path d="M151,-200L306,195H19v69H333L440,540H19v70H469l155,398h60L528,610H820V540H501L391,264H820V195H366L211,-200Z" 
id="f5_40"
transform="scale(0.001,-0.001)" />

<path d="M191,-20c0,0,-39,0,-65,25c0,0,-25,27,-25,64c0,0,0,38,26,64c0,0,26,26,64,26c0,0,38,0,64,-26c0,0,26,-26,26,-64c0,0,0,-37,-25,-64c0,0,-26,-25,-65,-25Z" 
id="f2_i"
transform="scale(0.001,-0.001)" />

<path d="M58,-234v58c0,0,131,42,131,125c0,0,0,15,-11,27c0,0,-11,12,-38,25C140,1,89,27,89,75c0,0,0,40,25,61c0,0,26,21,65,21c0,0,48,0,77,-34c0,0,30,-34,30,-86c0,0,0,-101,-60,-170c0,0,-59,-69,-168,-101Z" 
id="f2_g"
transform="scale(0.001,-0.001)" />

<path d="M113,-203V1060H454v-35L232,994V-138l222,-30v-35Z" 
id="f2_1r"
transform="scale(0.001,-0.001)" />

<path d="M55,-203v35l222,30V994L55,1025v35H395V-203Z" 
id="f2_1t"
transform="scale(0.001,-0.001)" />

<path d="M0,356v74H784V356Z" 
id="f4_h"
transform="scale(0.001,-0.001)" />

<path d="M355,0V355H0v72H355V784h72V427H782V355H427V0Z" 
id="f4_f"
transform="scale(0.001,-0.001)" />

<path d="M-12,338v55H777V338Z" 
id="f5_4y"
transform="scale(0.001,-0.001)" />

<path d="M392,152V469H76v77H392V863h77V546H787V469H469V152Z" 
id="f2_f"
transform="scale(0.001,-0.001)" />

<path d="M350,-14c0,0,-142,0,-253,31L89,228h49L172,87c0,0,32,-18,78,-29c0,0,46,-11,88,-11c0,0,118,0,173,56c0,0,56,55,56,187c0,0,0,93,-24,140c0,0,-24,47,-76,70c0,0,-52,22,-140,22c0,0,-68,0,-133,-18H122v496H630V886H189V567c0,0,81,18,173,18c0,0,173,0,258,-71c0,0,84,-71,84,-216c0,0,0,-151,-92,-232c0,0,-91,-80,-262,-80Z" 
id="f2_p"
transform="scale(0.001,-0.001)" />

<path d="M57,302V417H454V302Z" 
id="f2_h"
transform="scale(0.001,-0.001)" />

<path d="M235,0V40L394,60V936H356c0,0,-189,0,-258,-15L78,766H28v234H908V766H857L837,921c0,0,-22,5,-98,9c0,0,-75,4,-165,4H538V60L697,40V0Z" 
id="f2_1k"
transform="scale(0.001,-0.001)" />

<path d="M383,64c0,0,85,0,152,28V645c0,0,-67,13,-152,13c0,0,-194,0,-194,-314c0,0,0,-141,48,-211c0,0,48,-69,146,-69ZM342,-14c0,0,-287,0,-287,358c0,0,0,184,82,280c0,0,81,96,239,96c0,0,81,0,163,-18c0,0,-4,25,-4,124v182l-118,18v34H659V52L745,33V0H548l-9,52c0,0,-84,-66,-197,-66Z" 
id="f2_20"
transform="scale(0.001,-0.001)" />

<path d="M79,-234v58c0,0,132,42,132,125c0,0,0,15,-12,27c0,0,-12,12,-39,25c0,0,-50,25,-50,74c0,0,0,40,25,61c0,0,26,21,65,21c0,0,48,0,78,-33c0,0,29,-34,29,-87c0,0,0,-101,-59,-170c0,0,-59,-69,-169,-101ZM211,536c0,0,-38,0,-64,26c0,0,-26,26,-26,64c0,0,0,37,26,64c0,0,25,27,64,27c0,0,38,0,64,-27c0,0,26,-27,26,-64c0,0,0,-38,-26,-64c0,0,-27,-26,-64,-26Z" 
id="f2_v"
transform="scale(0.001,-0.001)" />

<path d="M460,-325c0,0,-148,79,-231,172c0,0,-84,93,-123,217c0,0,-39,126,-39,304c0,0,0,178,39,303c0,0,39,125,122,217c0,0,82,93,232,172V997c0,0,-91,-52,-145,-134c0,0,-54,-81,-79,-190c0,0,-25,-109,-25,-305c0,0,0,-194,26,-309c0,0,26,-114,82,-193c0,0,56,-79,141,-128v-63Z" 
id="f2_c"
transform="scale(0.001,-0.001)" />

<path d="M49,-325v63c0,0,85,49,140,128c0,0,56,79,83,194c0,0,26,115,26,308c0,0,0,196,-25,305c0,0,-25,109,-79,190c0,0,-54,82,-145,134v63c0,0,149,-80,232,-172c0,0,83,-92,122,-217c0,0,39,-125,39,-303c0,0,0,-177,-39,-303c0,0,-39,-125,-122,-217c0,0,-83,-93,-232,-173Z" 
id="f2_d"
transform="scale(0.001,-0.001)" />

<path d="M301,78c0,0,85,0,185,104l81,442c0,0,-29,20,-55,28c0,0,-25,8,-62,8c0,0,-75,0,-137,-56c0,0,-62,-56,-98,-152c0,0,-36,-95,-36,-199c0,0,0,-79,33,-127c0,0,33,-48,89,-48ZM245,-14c0,0,-90,0,-145,66c0,0,-54,66,-54,182c0,0,0,131,57,244c0,0,57,114,152,178c0,0,96,64,208,64c0,0,90,0,170,-33l33,26h40L589,52L673,33L667,0H454l22,117C476,117,350,-14,245,-14Z" 
id="f3_1x"
transform="scale(0.001,-0.001)" />

<path d="M301,78c0,0,41,0,90,27c0,0,49,28,95,77l81,442c0,0,-26,18,-54,27c0,0,-27,10,-67,10c0,0,-70,0,-131,-55c0,0,-61,-55,-99,-152c0,0,-37,-97,-37,-201c0,0,0,-79,33,-127c0,0,33,-48,89,-48ZM245,-14c0,0,-91,0,-145,68c0,0,-54,69,-54,183c0,0,0,128,55,240c0,0,55,112,150,177c0,0,96,66,210,66c0,0,70,0,123,-18c0,0,3,36,51,306l-115,18l6,34H768L589,52L673,33L667,0H454l22,117C476,117,350,-14,245,-14Z" 
id="f3_20"
transform="scale(0.001,-0.001)" />

<path d="M-43,-325c0,0,-60,0,-119,23l24,140h35l12,-83c0,0,20,-20,52,-20c0,0,48,0,76,48c0,0,28,48,46,151L210,649L107,668l6,33H342L213,-28c0,0,-27,-151,-90,-224c0,0,-63,-73,-166,-73ZM306,849c0,0,-33,0,-57,24c0,0,-24,24,-24,57c0,0,0,33,24,57c0,0,24,24,57,24c0,0,33,0,57,-24c0,0,24,-24,24,-57c0,0,0,-33,-24,-57c0,0,-24,-24,-57,-24Z" 
id="f3_26"
transform="scale(0.001,-0.001)" />

<path d="M463,65c0,0,220,0,340,135c0,0,121,135,121,385c0,0,0,348,-385,348H419L266,70c0,0,120,-5,197,-5Zm6,-67L110,0H-16l7,40L121,60L276,941L151,960l7,40H585c0,0,241,0,368,-105c0,0,127,-106,127,-304c0,0,0,-179,-75,-314c0,0,-75,-136,-214,-208C791,69,653,-2,469,-2Z" 
id="f3_14"
transform="scale(0.001,-0.001)" />

<path d="M577,-14c0,0,-243,0,-379,132C198,118,63,250,63,488c0,0,0,258,130,391c0,0,131,132,387,132c0,0,156,0,335,-38l5,-218H871L848,884c0,0,-52,32,-121,50c0,0,-69,17,-141,17c0,0,-191,0,-279,-112c0,0,-88,-113,-88,-349c0,0,0,-217,92,-332c0,0,92,-115,268,-115c0,0,85,0,160,20c0,0,76,21,120,55l27,149h49L930,32c0,0,-164,-46,-353,-46Z" 
id="f2_13"
transform="scale(0.001,-0.001)" />

<path d="M617,0L251,860V60L385,40V0H44V40L172,60V941L44,960v40H347L672,239l355,761h287V960L1185,941V60L1314,40V0H908V40l134,20V859L643,0Z" 
id="f2_1d"
transform="scale(0.001,-0.001)" />

<path d="M681,416L504,902L333,416ZM669,0V40L803,60L704,348H310L210,60L344,40V0H15V40L128,60l341,949H611L965,60L1092,40V0Z" 
id="f2_11"
transform="scale(0.001,-0.001)" />

<path d="M64,-325c0,0,-46,0,-107,14v148H-8l19,-81c0,0,25,-21,62,-21c0,0,44,0,67,47c0,0,22,47,22,152V649L57,668v33H286V-28c0,0,0,-146,-57,-221c0,0,-56,-76,-165,-76ZM213,850c0,0,-34,0,-58,24c0,0,-24,24,-24,56c0,0,0,34,24,58c0,0,24,24,58,24c0,0,32,0,56,-24c0,0,24,-24,24,-58c0,0,0,-32,-24,-56c0,0,-24,-24,-56,-24Z" 
id="f2_26"
transform="scale(0.001,-0.001)" />

<path d="M494,-203c0,0,-94,0,-145,57c0,0,-50,58,-50,161V235c0,0,0,87,-39,131c0,0,-39,44,-121,47v33c0,0,160,3,160,176V841c0,0,0,105,49,162c0,0,48,57,146,57H595v-35H548c0,0,-68,0,-96,-41c0,0,-29,-41,-29,-120V618c0,0,0,-71,-39,-122c0,0,-39,-51,-104,-65v-2c0,0,66,-16,105,-66c0,0,38,-50,38,-123V-8c0,0,0,-79,29,-120c0,0,28,-40,96,-40h47v-35Z" 
id="f2_2n"
transform="scale(0.001,-0.001)" />

<path d="M139,-203v35h46c0,0,68,0,97,40c0,0,28,41,28,120V240c0,0,0,73,38,123c0,0,38,50,106,66v2c0,0,-66,14,-105,66c0,0,-39,51,-39,121V864c0,0,0,79,-28,120c0,0,-29,41,-97,41H139v35H240c0,0,97,0,146,-57c0,0,48,-57,48,-162V622c0,0,0,-173,161,-176V413c0,0,-81,-3,-121,-47c0,0,-40,-43,-40,-131V15c0,0,0,-103,-50,-161c0,0,-51,-57,-144,-57Z" 
id="f2_2p"
transform="scale(0.001,-0.001)" />

<path d="M83,0C83,0,48,0,24,24C24,24,0,49,0,83c0,0,0,34,24,58c0,0,24,24,59,24c0,0,34,0,58,-24c0,0,24,-24,24,-58c0,0,0,-34,-24,-59C141,24,117,0,83,0ZM695,0c0,0,-34,0,-58,24c0,0,-25,25,-25,59c0,0,0,34,25,58c0,0,24,24,58,24c0,0,34,0,58,-24c0,0,24,-24,24,-58c0,0,0,-34,-24,-59C753,24,729,0,695,0ZM388,594c0,0,-34,0,-59,23c0,0,-24,24,-24,59c0,0,0,34,24,58c0,0,25,25,59,25c0,0,34,0,58,-25c0,0,24,-24,24,-58c0,0,0,-35,-24,-59c0,0,-24,-23,-58,-23Z" 
id="f4_1s"
transform="scale(0.001,-0.001)" />

<path d="M868,0L251,900V60L385,40V0H44V40L172,60V941L44,960v40H347L862,259V941L727,960v40h341V960L940,941V0Z" 
id="f2_1e"
transform="scale(0.001,-0.001)" />

<path d="M327,-14L84,649L1,668v33H335V668L219,648L385,174L554,632h63L786,171L944,649L830,668v33h267V668l-78,-16L784,-14H726L553,448L382,-14Z" 
id="f2_2j"
transform="scale(0.001,-0.001)" />

<path d="M210,132c0,0,-41,0,-68,29c0,0,-27,28,-27,72c0,0,0,45,27,73c0,0,27,29,68,29c0,0,41,0,69,-29c0,0,27,-28,27,-73c0,0,0,-44,-27,-72c0,0,-28,-29,-69,-29Zm455,0c0,0,-41,0,-68,29c0,0,-27,28,-27,72c0,0,0,45,27,73c0,0,27,29,68,29c0,0,41,0,69,-29c0,0,27,-28,27,-73c0,0,0,-44,-27,-72c0,0,-28,-29,-69,-29ZM438,539c0,0,-41,0,-68,28c0,0,-28,29,-28,73c0,0,0,44,28,73c0,0,27,29,68,29c0,0,41,0,68,-29c0,0,27,-29,27,-73c0,0,0,-44,-27,-73c0,0,-27,-28,-68,-28Z" 
id="f6_16e"
transform="scale(0.001,-0.001)" />

<path d="M148,-329c0,0,-58,0,-114,13v151H69l24,-71c0,0,23,-17,64,-17c0,0,39,0,72,22c0,0,33,23,60,67c0,0,27,44,68,157L90,649L19,668v33H344V668L233,648L423,158L606,649L497,668v33H758V668L685,652L411,-43c0,0,-48,-124,-84,-177c0,0,-36,-54,-79,-82c0,0,-44,-27,-100,-27Z" 
id="f2_2l"
transform="scale(0.001,-0.001)" />

<path d="M41,0V34L426,641H261c0,0,-42,0,-80,-7c0,0,-39,-7,-54,-19L104,515H69V701H586V665L201,60H407c0,0,42,0,89,10c0,0,47,10,66,25l39,147h35L617,0Z" 
id="f2_2m"
transform="scale(0.001,-0.001)" />

<path d="M376,50c0,0,103,0,149,80c0,0,46,81,46,240c0,0,0,137,-47,204c0,0,-48,67,-148,67c0,0,-44,0,-87,-7c0,0,-44,-8,-63,-17V62c0,0,63,-12,150,-12Zm3,-64c0,0,-64,0,-141,14c0,0,-78,14,-136,37v971L0,1026v34H226V809c0,0,0,-40,-4,-148c0,0,74,59,188,59c0,0,143,0,219,-87c0,0,77,-87,77,-263c0,0,0,-189,-84,-287c0,0,-84,-97,-243,-97Z" 
id="f2_1y"
transform="scale(0.001,-0.001)" />

<path d="M394,460c0,0,126,0,186,57c0,0,60,57,60,187c0,0,0,123,-57,176c0,0,-58,53,-194,53H316V460ZM54,0V40L172,60V941L44,960v40H421c0,0,368,0,368,-295c0,0,0,-153,-93,-233c0,0,-93,-80,-267,-80H316V60L475,40V0Z" 
id="f2_1g"
transform="scale(0.001,-0.001)" />

<path d="M64,0V141c0,0,64,68,119,123c0,0,119,118,174,185c0,0,56,68,81,140c0,0,26,72,26,165c0,0,0,81,-40,131c0,0,-39,50,-105,50c0,0,-46,0,-74,-10c0,0,-27,-10,-50,-29L163,751H98V979c0,0,59,13,116,23c0,0,58,9,125,9c0,0,165,0,252,-68c0,0,88,-68,88,-193c0,0,0,-78,-26,-142c0,0,-26,-64,-83,-124c0,0,-56,-61,-224,-197c0,0,-64,-52,-139,-119H698V0Z" 
id="f7_m"
transform="scale(0.001,-0.001)" />

<path d="M435,350V646c0,0,0,84,7,158L145,350ZM435,0V198H21V319l450,686H636V350H736V198H636V0Z" 
id="f7_o"
transform="scale(0.001,-0.001)" />

<path d="M191,-20c0,0,-51,0,-88,34c0,0,-36,36,-36,88c0,0,0,52,36,88c0,0,36,36,88,36c0,0,51,0,88,-36c0,0,36,-36,36,-88c0,0,0,-51,-36,-87c0,0,-36,-35,-88,-35Z" 
id="f7_i"
transform="scale(0.001,-0.001)" />

<path d="M62,0L176,649L88,668l6,33H301L278,543c0,0,55,84,124,130c0,0,69,47,138,47c0,0,37,0,59,-6L566,530H534l-28,95c0,0,-60,0,-124,-46c0,0,-63,-45,-116,-120L186,0Z" 
id="f3_2e"
transform="scale(0.001,-0.001)" />

<path d="M377,45c0,0,100,0,147,52c0,0,47,52,47,174c0,0,0,119,-46,173c0,0,-47,54,-148,54c0,0,-98,0,-141,-51c0,0,-44,-51,-44,-176c0,0,0,-126,44,-176c0,0,44,-50,141,-50Zm2,518c0,0,84,0,123,46c0,0,39,46,39,148c0,0,0,102,-40,151c0,0,-41,48,-122,48c0,0,-79,0,-118,-47c0,0,-38,-47,-38,-152c0,0,0,-104,37,-149c0,0,38,-45,119,-45ZM377,-14c0,0,-319,0,-319,285c0,0,0,99,48,164c0,0,48,66,129,96c0,0,-65,30,-106,87c0,0,-40,56,-40,139c0,0,0,123,75,191c0,0,76,68,219,68c0,0,139,0,216,-67c0,0,76,-68,76,-192c0,0,0,-82,-40,-139c0,0,-40,-57,-108,-87c0,0,85,-31,132,-98c0,0,47,-67,47,-162c0,0,0,-142,-80,-214c0,0,-80,-71,-249,-71Z" 
id="f2_s"
transform="scale(0.001,-0.001)" />

<path d="M178,0L615,886H176L150,764H101v236H720V943L274,0Z" 
id="f2_r"
transform="scale(0.001,-0.001)" />


</defs>
</svg>