<?xml version="1.0" encoding="UTF-8" standalone="no"?>
<!DOCTYPE svg PUBLIC "-//W3C//DTD SVG 1.1//EN"
"http://www.w3.org/Graphics/SVG/1.1/DTD/svg11.dtd">
<svg viewBox="0 0 909 1286" version="1.1" xmlns="http://www.w3.org/2000/svg" xmlns:xlink="http://www.w3.org/1999/xlink">
<defs>
<clipPath id="c0_34"><path d="M55.2,267.9V126.6h367V267.9Z" /></clipPath>
<clipPath id="c1_34"><path d="M55.2,374.2V270H232.7V374.2Z" /></clipPath>
<clipPath id="c2_34"><path d="M275.6,424.8V376H378.5v48.8Z" /></clipPath>
<clipPath id="c3_34"><path d="M55.2,495.2v-68H311v68Z" /></clipPath>
<clipPath id="c4_34"><path d="M55.2,569.6V497.9H346.8v71.7Z" /></clipPath>
<clipPath id="c5_34"><path d="M55.2,761.8V572.1H384.5V761.8Z" /></clipPath>
<clipPath id="c6_34"><path d="M156.4,845.7V788.2H281.9v57.5Z" /></clipPath>
<clipPath id="c7_34"><path d="M128.9,928.9V872.6H354.5v56.3Z" /></clipPath>
<clipPath id="c8_34"><path d="M55.2,1130.3V956H279v174.3Z" /></clipPath>
<style type="text/css"><![CDATA[
.g0_34{
fill: #D9D9D9;
}
.g1_34{
fill: none;
stroke: #000000;
stroke-width: 0.7638889;
stroke-linecap: butt;
stroke-linejoin: miter;
}
.g2_34{
fill: none;
stroke: #000000;
stroke-width: 0.91238314;
stroke-linecap: butt;
stroke-linejoin: round;
}
.g3_34{
fill: none;
stroke: #000000;
stroke-width: 0.9071463;
stroke-linecap: butt;
stroke-linejoin: round;
}
.g4_34{
fill: none;
stroke: #000000;
stroke-width: 0.9122883;
stroke-linecap: butt;
stroke-linejoin: round;
}
.g5_34{
fill: none;
stroke: #000000;
stroke-width: 0.41813406;
stroke-linecap: butt;
stroke-linejoin: round;
}
.g6_34{
fill: none;
stroke: #000000;
stroke-width: 0.9100975;
stroke-linecap: butt;
stroke-linejoin: round;
}
.g7_34{
fill: none;
stroke: #000000;
stroke-width: 0.4171299;
stroke-linecap: butt;
stroke-linejoin: round;
}
.g8_34{
fill: none;
stroke: #000000;
stroke-width: 0.91339684;
stroke-linecap: butt;
stroke-linejoin: round;
}
.g9_34{
fill: none;
stroke: #000000;
stroke-width: 0.41864216;
stroke-linecap: butt;
stroke-linejoin: round;
}
.g10_34{
fill: none;
stroke: #000000;
stroke-width: 0.9059142;
stroke-linecap: butt;
stroke-linejoin: round;
}
.g11_34{
fill: none;
stroke: #000000;
stroke-width: 0.906106;
stroke-linecap: butt;
stroke-linejoin: round;
}
.g12_34{
}
]]></style>
</defs>
<image preserveAspectRatio="none" x="747" y="1196" width="96" height="59" xlink:href="img/1.png" />
<image preserveAspectRatio="none" x="336" y="41" width="259" height="51" xlink:href="img/2.png" />
<image preserveAspectRatio="none" x="342" y="50" width="247" height="27" xlink:href="img/3.png" />
<image preserveAspectRatio="none" x="341" y="45" width="239" height="42" xlink:href="img/4.png" />
<g fill="#FFFFFF" >
<use xlink:href="#f0_j" transform="matrix(11.5,0,0,11.5,355.1,70.1)" />
<use xlink:href="#f0_i" transform="matrix(11.5,0,0,11.5,364.3,70.1)" />
<use xlink:href="#f0_2n" transform="matrix(11.5,0,0,11.5,374.1,70.1)" />
<use xlink:href="#f0_t" transform="matrix(11.5,0,0,11.5,382.6,70.1)" />
<use xlink:href="#f0_oj" transform="matrix(11.5,0,0,11.5,391,70.1)" />
<use xlink:href="#f0_3e" transform="matrix(11.5,0,0,11.5,396.5,70.1)" />
<use xlink:href="#f0_1c" transform="matrix(11.5,0,0,11.5,406.1,70.1)" />
<use xlink:href="#f0_1c" transform="matrix(11.5,0,0,11.5,410.8,70.1)" />
<use xlink:href="#f0_oj" transform="matrix(11.5,0,0,11.5,415.6,70.1)" />
<use xlink:href="#f0_rz" transform="matrix(11.5,0,0,11.5,421.1,70.1)" />
<use xlink:href="#f0_rx" transform="matrix(11.5,0,0,11.5,429.9,70.1)" />
<use xlink:href="#f0_ry" transform="matrix(11.5,0,0,11.5,438.7,70.1)" />
<use xlink:href="#f0_s4" transform="matrix(11.5,0,0,11.5,447.5,70.1)" />
<use xlink:href="#f0_t" transform="matrix(11.5,0,0,11.5,460.4,70.1)" />
<use xlink:href="#f0_3e" transform="matrix(11.5,0,0,11.5,468.8,70.1)" />
<use xlink:href="#f0_5" transform="matrix(11.5,0,0,11.5,478.3,70.1)" />
<use xlink:href="#f0_1x" transform="matrix(11.5,0,0,11.5,489,70.1)" />
<use xlink:href="#f0_1c" transform="matrix(11.5,0,0,11.5,504.4,70.1)" />
<use xlink:href="#f0_1y" transform="matrix(11.5,0,0,11.5,509.1,70.1)" />
<use xlink:href="#f0_5" transform="matrix(11.5,0,0,11.5,520.8,70.1)" />
<use xlink:href="#f0_2t" transform="matrix(11.5,0,0,11.5,531.5,70.1)" />
<use xlink:href="#f0_1c" transform="matrix(11.5,0,0,11.5,540.2,70.1)" />
<use xlink:href="#f0_24" transform="matrix(11.5,0,0,11.5,545,70.1)" />
<use xlink:href="#f0_1y" transform="matrix(11.5,0,0,11.5,556.7,70.1)" />
</g>
<image preserveAspectRatio="none" x="554" y="45" width="36" height="42" xlink:href="img/5.png" />
<g fill="#FFFFFF" >
<use xlink:href="#f1_t" transform="matrix(11,0,0,11,770.3,1227.6)" />
<use xlink:href="#f1_j" transform="matrix(11,0,0,11,783.5,1227.6)" />
<use xlink:href="#f1_m" transform="matrix(11,0,0,11,794.1,1227.6)" />
<use xlink:href="#f1_m" transform="matrix(11,0,0,11,802.9,1227.6)" />
</g>
<path fill-rule="evenodd" d="M52.8,1193.5H856.9v-.8H52.8v.8Z" class="g0_34" />
<path d="M37.9,99.4L873,98.5" class="g1_34" />
<path d="M58.2,151.9H170.8m19.8,0h50.3m18.5,0h51.4" class="g2_34" />
<g clip-path="url(#c0_34)">
<g fill="#000000" >
<use xlink:href="#f2_m" transform="matrix(7.1,0,0,7,98.4,162.8)" />
<use xlink:href="#f2_m" transform="matrix(7.1,0,0,7,156.7,162.8)" />
<use xlink:href="#f2_m" transform="matrix(7.1,0,0,7,228.8,162.8)" />
<use xlink:href="#f2_m" transform="matrix(7.1,0,0,7,301.2,162.8)" />
<use xlink:href="#f2_m" transform="matrix(7.1,0,0,7,188.4,192.2)" />
<use xlink:href="#f2_m" transform="matrix(7.1,0,0,7,320.5,192.2)" />
<use xlink:href="#f2_n" transform="matrix(7.1,0,0,7,166.8,221.9)" />
<use xlink:href="#f2_m" transform="matrix(7.1,0,0,7,218.8,221.9)" />
<use xlink:href="#f2_n" transform="matrix(7.1,0,0,7,306.3,221.9)" />
<use xlink:href="#f2_m" transform="matrix(7.1,0,0,7,392.1,221.9)" />
<use xlink:href="#f2_n" transform="matrix(7.1,0,0,7,143.1,251.6)" />
<use xlink:href="#f2_m" transform="matrix(7.1,0,0,7,239.7,251.6)" />
<use xlink:href="#f2_l" transform="matrix(12.2,0,0,12.2,109.9,144.8)" />
<use xlink:href="#f2_c" transform="matrix(12.2,0,0,12.2,59.1,171)" />
<use xlink:href="#f2_o" transform="matrix(12.2,0,0,12.2,65.7,171)" />
<use xlink:href="#f2_d" transform="matrix(12.2,0,0,12.2,105.5,171)" />
<use xlink:href="#f2_c" transform="matrix(12.2,0,0,12.2,111.5,171)" />
<use xlink:href="#f2_l" transform="matrix(12.2,0,0,12.2,116,171)" />
<use xlink:href="#f2_o" transform="matrix(12.2,0,0,12.2,141.1,171)" />
<use xlink:href="#f2_d" transform="matrix(12.2,0,0,12.2,163.8,171)" />
<use xlink:href="#f2_o" transform="matrix(12.2,0,0,12.2,196,171)" />
<use xlink:href="#f2_l" transform="matrix(12.2,0,0,12.2,260.3,171)" />
<use xlink:href="#f2_o" transform="matrix(12.2,0,0,12.2,285.4,171)" />
<use xlink:href="#f2_l" transform="matrix(12.2,0,0,12.2,55.9,200.4)" />
<use xlink:href="#f2_c" transform="matrix(12.2,0,0,12.2,82,200.4)" />
<use xlink:href="#f2_d" transform="matrix(12.2,0,0,12.2,137.1,200.4)" />
<use xlink:href="#f2_c" transform="matrix(12.2,0,0,12.2,143.1,200.4)" />
<use xlink:href="#f2_l" transform="matrix(12.2,0,0,12.2,147.7,200.4)" />
<use xlink:href="#f2_o" transform="matrix(12.2,0,0,12.2,172.8,200.4)" />
<use xlink:href="#f2_d" transform="matrix(12.2,0,0,12.2,195.4,200.4)" />
<use xlink:href="#f2_c" transform="matrix(12.2,0,0,12.2,218.9,200.4)" />
<use xlink:href="#f2_d" transform="matrix(12.2,0,0,12.2,275.1,200.4)" />
<use xlink:href="#f2_c" transform="matrix(12.2,0,0,12.2,281.1,200.4)" />
<use xlink:href="#f2_o" transform="matrix(12.2,0,0,12.2,287.7,200.4)" />
<use xlink:href="#f2_d" transform="matrix(12.2,0,0,12.2,327.5,200.4)" />
<use xlink:href="#f2_o" transform="matrix(12.2,0,0,12.2,138.4,230.1)" />
<use xlink:href="#f2_o" transform="matrix(12.2,0,0,12.2,191,230.1)" />
<use xlink:href="#f2_o" transform="matrix(12.2,0,0,12.2,243.4,230.1)" />
<use xlink:href="#f2_o" transform="matrix(12.2,0,0,12.2,330.6,230.1)" />
<use xlink:href="#f2_c" transform="matrix(12.2,0,0,12.2,72.1,259.8)" />
<use xlink:href="#f2_o" transform="matrix(12.2,0,0,12.2,78.7,259.8)" />
<use xlink:href="#f2_d" transform="matrix(12.2,0,0,12.2,130.6,259.8)" />
<use xlink:href="#f2_c" transform="matrix(12.2,0,0,12.2,166.9,259.8)" />
<use xlink:href="#f2_o" transform="matrix(12.2,0,0,12.2,173.5,259.8)" />
<use xlink:href="#f2_d" transform="matrix(12.2,0,0,12.2,226.9,259.8)" />
<use xlink:href="#f2_c" transform="matrix(12.2,0,0,12.2,263.8,259.8)" />
<use xlink:href="#f2_o" transform="matrix(12.2,0,0,12.2,300.1,259.8)" />
<use xlink:href="#f2_d" transform="matrix(12.2,0,0,12.2,322.3,259.8)" />
<use xlink:href="#f2_c" transform="matrix(12.2,0,0,12.2,351.7,259.8)" />
<use xlink:href="#f2_o" transform="matrix(12.2,0,0,12.2,388,259.8)" />
<use xlink:href="#f2_d" transform="matrix(12.2,0,0,12.2,411.7,259.8)" />
<use xlink:href="#f3_11" transform="matrix(12.2,0,0,12.2,193.1,144.8)" />
<use xlink:href="#f3_2g" transform="matrix(12.2,0,0,12.2,204.3,144.8)" />
<use xlink:href="#f3_12" transform="matrix(12.2,0,0,12.2,228.6,144.8)" />
<use xlink:href="#f3_13" transform="matrix(12.2,0,0,12.2,259.9,144.8)" />
<use xlink:href="#f3_2g" transform="matrix(12.2,0,0,12.2,272.2,144.8)" />
<use xlink:href="#f3_14" transform="matrix(12.2,0,0,12.2,296.5,144.8)" />
<use xlink:href="#f3_2g" transform="matrix(12.2,0,0,12.2,91.6,171)" />
<use xlink:href="#f3_2g" transform="matrix(12.2,0,0,12.2,150,171)" />
<use xlink:href="#f3_2g" transform="matrix(12.2,0,0,12.2,222,171)" />
<use xlink:href="#f3_2g" transform="matrix(12.2,0,0,12.2,294.4,171)" />
<use xlink:href="#f3_11" transform="matrix(12.2,0,0,12.2,90,200.4)" />
<use xlink:href="#f3_2g" transform="matrix(12.2,0,0,12.2,101.2,200.4)" />
<use xlink:href="#f3_12" transform="matrix(12.2,0,0,12.2,125.5,200.4)" />
<use xlink:href="#f3_2g" transform="matrix(12.2,0,0,12.2,181.7,200.4)" />
<use xlink:href="#f3_13" transform="matrix(12.2,0,0,12.2,224.9,200.4)" />
<use xlink:href="#f3_2g" transform="matrix(12.2,0,0,12.2,237.2,200.4)" />
<use xlink:href="#f3_14" transform="matrix(12.2,0,0,12.2,261.5,200.4)" />
<use xlink:href="#f3_2g" transform="matrix(12.2,0,0,12.2,313.7,200.4)" />
<use xlink:href="#f3_11" transform="matrix(12.2,0,0,12.2,73.8,230.1)" />
<use xlink:href="#f3_2g" transform="matrix(12.2,0,0,12.2,85,230.1)" />
<use xlink:href="#f3_12" transform="matrix(12.2,0,0,12.2,109.3,230.1)" />
<use xlink:href="#f3_11" transform="matrix(12.2,0,0,12.2,149.2,230.1)" />
<use xlink:href="#f3_2g" transform="matrix(12.2,0,0,12.2,160.4,230.1)" />
<use xlink:href="#f3_12" transform="matrix(12.2,0,0,12.2,201,230.1)" />
<use xlink:href="#f3_2g" transform="matrix(12.2,0,0,12.2,212.1,230.1)" />
<use xlink:href="#f3_13" transform="matrix(12.2,0,0,12.2,252.2,230.1)" />
<use xlink:href="#f3_2g" transform="matrix(12.2,0,0,12.2,264.5,230.1)" />
<use xlink:href="#f3_13" transform="matrix(12.2,0,0,12.2,287.6,230.1)" />
<use xlink:href="#f3_2g" transform="matrix(12.2,0,0,12.2,299.9,230.1)" />
<use xlink:href="#f3_14" transform="matrix(12.2,0,0,12.2,340.5,230.1)" />
<use xlink:href="#f3_14" transform="matrix(12.2,0,0,12.2,372.2,230.1)" />
<use xlink:href="#f3_2g" transform="matrix(12.2,0,0,12.2,385.4,230.1)" />
<use xlink:href="#f3_11" transform="matrix(12.2,0,0,12.2,89.6,259.8)" />
<use xlink:href="#f3_13" transform="matrix(12.2,0,0,12.2,117.2,259.8)" />
<use xlink:href="#f3_2g" transform="matrix(12.2,0,0,12.2,136.7,259.8)" />
<use xlink:href="#f3_12" transform="matrix(12.2,0,0,12.2,183.5,259.8)" />
<use xlink:href="#f3_14" transform="matrix(12.2,0,0,12.2,213.2,259.8)" />
<use xlink:href="#f3_2g" transform="matrix(12.2,0,0,12.2,232.9,259.8)" />
<use xlink:href="#f3_11" transform="matrix(12.2,0,0,12.2,271.9,259.8)" />
<use xlink:href="#f3_13" transform="matrix(12.2,0,0,12.2,309,259.8)" />
<use xlink:href="#f3_2g" transform="matrix(12.2,0,0,12.2,328.4,259.8)" />
<use xlink:href="#f3_12" transform="matrix(12.2,0,0,12.2,358.9,259.8)" />
<use xlink:href="#f3_14" transform="matrix(12.2,0,0,12.2,398,259.8)" />
<use xlink:href="#f4_f" transform="matrix(12.2,0,0,12.2,214,144.8)" />
<use xlink:href="#f4_f" transform="matrix(12.2,0,0,12.2,281.9,144.8)" />
<use xlink:href="#f4_x" transform="matrix(12.2,0,0,12.2,175.8,156.5)" />
<use xlink:href="#f4_f" transform="matrix(12.2,0,0,12.2,245.1,156.5)" />
<use xlink:href="#f4_f" transform="matrix(12.2,0,0,12.2,78.2,171)" />
<use xlink:href="#f4_f" transform="matrix(12.2,0,0,12.2,127.2,171)" />
<use xlink:href="#f4_f" transform="matrix(12.2,0,0,12.2,208.6,171)" />
<use xlink:href="#f4_f" transform="matrix(12.2,0,0,12.2,271.6,171)" />
<use xlink:href="#f4_x" transform="matrix(12.2,0,0,12.2,67.8,200.4)" />
<use xlink:href="#f4_f" transform="matrix(12.2,0,0,12.2,110.8,200.4)" />
<use xlink:href="#f4_f" transform="matrix(12.2,0,0,12.2,158.8,200.4)" />
<use xlink:href="#f4_f" transform="matrix(12.2,0,0,12.2,205.2,200.4)" />
<use xlink:href="#f4_f" transform="matrix(12.2,0,0,12.2,246.9,200.4)" />
<use xlink:href="#f4_f" transform="matrix(12.2,0,0,12.2,300.3,200.4)" />
<use xlink:href="#f4_x" transform="matrix(12.2,0,0,12.2,58,230.1)" />
<use xlink:href="#f4_f" transform="matrix(12.2,0,0,12.2,94.7,230.1)" />
<use xlink:href="#f4_f" transform="matrix(12.2,0,0,12.2,124.4,230.1)" />
<use xlink:href="#f4_f" transform="matrix(12.2,0,0,12.2,177,230.1)" />
<use xlink:href="#f4_f" transform="matrix(12.2,0,0,12.2,229.4,230.1)" />
<use xlink:href="#f4_f" transform="matrix(12.2,0,0,12.2,274.2,230.1)" />
<use xlink:href="#f4_f" transform="matrix(12.2,0,0,12.2,316.5,230.1)" />
<use xlink:href="#f4_f" transform="matrix(12.2,0,0,12.2,357.6,230.1)" />
<use xlink:href="#f4_x" transform="matrix(12.2,0,0,12.2,58,259.8)" />
<use xlink:href="#f4_f" transform="matrix(12.2,0,0,12.2,103.8,259.8)" />
<use xlink:href="#f4_f" transform="matrix(12.2,0,0,12.2,153.3,259.8)" />
<use xlink:href="#f4_f" transform="matrix(12.2,0,0,12.2,198.7,259.8)" />
<use xlink:href="#f4_f" transform="matrix(12.2,0,0,12.2,250.2,259.8)" />
<use xlink:href="#f4_f" transform="matrix(12.2,0,0,12.2,286.2,259.8)" />
<use xlink:href="#f4_f" transform="matrix(12.2,0,0,12.2,338.1,259.8)" />
<use xlink:href="#f4_f" transform="matrix(12.2,0,0,12.2,374.1,259.8)" />
</g>
</g>
<g clip-path="url(#c1_34)">
<g fill="#000000" >
<use xlink:href="#f2_o" transform="matrix(12.1,0,0,12.1,57.9,287.6)" />
<use xlink:href="#f2_k" transform="matrix(12.1,0,0,12.1,128.3,287.6)" />
<use xlink:href="#f2_o" transform="matrix(12.1,0,0,12.1,204.9,287.6)" />
<use xlink:href="#f2_o" transform="matrix(12.1,0,0,12.1,57.9,314.7)" />
<use xlink:href="#f2_k" transform="matrix(12.1,0,0,12.1,129.7,314.7)" />
<use xlink:href="#f2_o" transform="matrix(12.1,0,0,12.1,207.8,314.7)" />
<use xlink:href="#f2_o" transform="matrix(12.1,0,0,12.1,87.6,341.9)" />
<use xlink:href="#f2_k" transform="matrix(12.1,0,0,12.1,128.2,341.9)" />
<use xlink:href="#f2_o" transform="matrix(12.1,0,0,12.1,204.3,341.9)" />
<use xlink:href="#f2_o" transform="matrix(12.1,0,0,12.1,87.6,369.2)" />
<use xlink:href="#f2_l" transform="matrix(12.1,0,0,12.1,127.9,369.2)" />
<use xlink:href="#f3_11" transform="matrix(12.1,0,0,12.1,68.8,287.6)" />
<use xlink:href="#f3_13" transform="matrix(12.1,0,0,12.1,96.5,287.6)" />
<use xlink:href="#f3_13" transform="matrix(12.1,0,0,12.1,162.9,287.6)" />
<use xlink:href="#f3_11" transform="matrix(12.1,0,0,12.1,215.7,287.6)" />
<use xlink:href="#f3_12" transform="matrix(12.1,0,0,12.1,68,314.7)" />
<use xlink:href="#f3_14" transform="matrix(12.1,0,0,12.1,97.6,314.7)" />
<use xlink:href="#f3_14" transform="matrix(12.1,0,0,12.1,165.5,314.7)" />
<use xlink:href="#f3_12" transform="matrix(12.1,0,0,12.1,217.8,314.7)" />
<use xlink:href="#f3_11" transform="matrix(12.1,0,0,12.1,59.4,341.9)" />
<use xlink:href="#f3_13" transform="matrix(12.1,0,0,12.1,96.4,341.9)" />
<use xlink:href="#f3_11" transform="matrix(12.1,0,0,12.1,164.8,341.9)" />
<use xlink:href="#f3_13" transform="matrix(12.1,0,0,12.1,213.1,341.9)" />
<use xlink:href="#f3_12" transform="matrix(12.1,0,0,12.1,58.5,369.2)" />
<use xlink:href="#f3_14" transform="matrix(12.1,0,0,12.1,97.6,369.2)" />
<use xlink:href="#f4_f" transform="matrix(12.1,0,0,12.1,83.1,287.6)" />
<use xlink:href="#f4_x" transform="matrix(12.1,0,0,12.1,114.1,287.6)" />
<use xlink:href="#f4_4g" transform="matrix(12.1,0,0,12.1,141,287.6)" />
<use xlink:href="#f4_x" transform="matrix(12.1,0,0,12.1,180.5,287.6)" />
<use xlink:href="#f4_h" transform="matrix(12.1,0,0,12.1,194.9,287.6)" />
<use xlink:href="#f4_f" transform="matrix(12.1,0,0,12.1,83.1,314.7)" />
<use xlink:href="#f4_x" transform="matrix(12.1,0,0,12.1,115.5,314.7)" />
<use xlink:href="#f4_4g" transform="matrix(12.1,0,0,12.1,142.4,314.7)" />
<use xlink:href="#f4_x" transform="matrix(12.1,0,0,12.1,183.3,314.7)" />
<use xlink:href="#f4_h" transform="matrix(12.1,0,0,12.1,197.8,314.7)" />
<use xlink:href="#f4_f" transform="matrix(12.1,0,0,12.1,73.6,341.9)" />
<use xlink:href="#f4_x" transform="matrix(12.1,0,0,12.1,114,341.9)" />
<use xlink:href="#f4_4g" transform="matrix(12.1,0,0,12.1,141,341.9)" />
<use xlink:href="#f4_x" transform="matrix(12.1,0,0,12.1,179.8,341.9)" />
<use xlink:href="#f4_h" transform="matrix(12.1,0,0,12.1,194.3,341.9)" />
<use xlink:href="#f4_f" transform="matrix(12.1,0,0,12.1,73.6,369.2)" />
<use xlink:href="#f4_x" transform="matrix(12.1,0,0,12.1,115.5,369.2)" />
</g>
</g>
<g fill="#000000" >
<use xlink:href="#f2_12" transform="matrix(12,0,0,12,55,406.4)" />
<use xlink:href="#f2_2l" transform="matrix(12,0,0,12,67.5,406.4)" />
<use xlink:href="#f2_2f" transform="matrix(12,0,0,12,80.7,406.4)" />
<use xlink:href="#f2_2b" transform="matrix(12,0,0,12,87.6,406.4)" />
<use xlink:href="#f2_28" transform="matrix(12,0,0,12,97.5,406.4)" />
<use xlink:href="#f2_2i" transform="matrix(12,0,0,12,102.3,406.4)" />
<use xlink:href="#f2_25" transform="matrix(12,0,0,12,111.4,406.4)" />
<use xlink:href="#f2_2a" transform="matrix(12,0,0,12,116.2,406.4)" />
<use xlink:href="#f2_23" transform="matrix(12,0,0,12,125.4,406.4)" />
<use xlink:href="#f2_2j" transform="matrix(12,0,0,12,139.3,406.4)" />
<use xlink:href="#f2_21" transform="matrix(12,0,0,12,152.5,406.4)" />
<use xlink:href="#f2_23" transform="matrix(12,0,0,12,165.3,406.4)" />
<use xlink:href="#f2_21" transform="matrix(12,0,0,12,174.5,406.4)" />
<use xlink:href="#f2_2g" transform="matrix(12,0,0,12,182.5,406.4)" />
<use xlink:href="#f2_11" transform="matrix(12,0,0,12,192.8,406.4)" />
<use xlink:href="#f2_x" transform="matrix(12,0,0,12,210.4,406.4)" />
<use xlink:href="#f2_k" transform="matrix(12,0,0,12,225.4,406.4)" />
<use xlink:href="#f2_g" transform="matrix(12,0,0,12,234.5,406.4)" />
<use xlink:href="#f2_12" transform="matrix(12,0,0,12,243.7,406.4)" />
<use xlink:href="#f2_x" transform="matrix(12,0,0,12,260.5,406.4)" />
</g>
<path d="M290.7,401.9h17.7m47.9,0h17.6" class="g3_34" />
<g clip-path="url(#c2_34)">
<g fill="#000000" >
<use xlink:href="#f2_l" transform="matrix(12.7,0,0,12.4,295,394.6)" />
<use xlink:href="#f2_o" transform="matrix(12.7,0,0,12.4,360.8,394.6)" />
<use xlink:href="#f2_g" transform="matrix(12.7,0,0,12.4,310.6,406.6)" />
<use xlink:href="#f2_l" transform="matrix(12.7,0,0,12.4,289.9,421.3)" />
<use xlink:href="#f2_p" transform="matrix(12.7,0,0,12.4,299,421.3)" />
<use xlink:href="#f2_l" transform="matrix(12.7,0,0,12.4,355.4,421.3)" />
<use xlink:href="#f2_p" transform="matrix(12.7,0,0,12.4,364.5,421.3)" />
<use xlink:href="#f3_13" transform="matrix(12.7,0,0,12.4,324,406.6)" />
<use xlink:href="#f4_h" transform="matrix(12.7,0,0,12.4,278.3,406.6)" />
<use xlink:href="#f4_x" transform="matrix(12.7,0,0,12.4,341.6,406.6)" />
</g>
</g>
<path d="M72,468.1H183.4" class="g4_34" />
<path d="M234.9,432.4l-23.6,33.4" class="g5_34" />
<path d="M202.3,468.1H243" class="g4_34" />
<path d="M292.7,432.4l-23.6,33.4" class="g5_34" />
<path d="M260.1,468.1h46.3" class="g4_34" />
<g clip-path="url(#c3_34)">
<g fill="#000000" >
<use xlink:href="#f2_m" transform="matrix(7.3,0,0,7.1,110.8,479.9)" />
<use xlink:href="#f2_m" transform="matrix(7.3,0,0,7.1,169.3,479.9)" />
<use xlink:href="#f2_m" transform="matrix(7.3,0,0,7.1,235.3,479.9)" />
<use xlink:href="#f2_m" transform="matrix(7.3,0,0,7.1,298.6,479.9)" />
<use xlink:href="#f2_l" transform="matrix(12.6,0,0,12.3,214.7,448.9)" />
<use xlink:href="#f2_o" transform="matrix(12.6,0,0,12.3,271.1,448.9)" />
<use xlink:href="#f2_l" transform="matrix(12.6,0,0,12.3,123.1,460.9)" />
<use xlink:href="#f2_l" transform="matrix(12.6,0,0,12.3,222.6,465.5)" />
<use xlink:href="#f2_p" transform="matrix(12.6,0,0,12.3,231.7,465.5)" />
<use xlink:href="#f2_l" transform="matrix(12.6,0,0,12.3,280.4,465.5)" />
<use xlink:href="#f2_p" transform="matrix(12.6,0,0,12.3,289.5,465.5)" />
<use xlink:href="#f2_x" transform="matrix(12.6,0,0,12.3,187.7,472.7)" />
<use xlink:href="#f2_f" transform="matrix(12.6,0,0,12.3,246.6,472.7)" />
<use xlink:href="#f2_c" transform="matrix(12.6,0,0,12.3,72.9,488.1)" />
<use xlink:href="#f2_o" transform="matrix(12.6,0,0,12.3,78.9,488.1)" />
<use xlink:href="#f2_f" transform="matrix(12.6,0,0,12.3,90.7,488.1)" />
<use xlink:href="#f2_2g" transform="matrix(12.6,0,0,12.3,104.3,488.1)" />
<use xlink:href="#f2_d" transform="matrix(12.6,0,0,12.3,117.8,488.1)" />
<use xlink:href="#f2_c" transform="matrix(12.6,0,0,12.3,123.9,488.1)" />
<use xlink:href="#f2_l" transform="matrix(12.6,0,0,12.3,129.9,488.1)" />
<use xlink:href="#f2_f" transform="matrix(12.6,0,0,12.3,140.3,488.1)" />
<use xlink:href="#f2_o" transform="matrix(12.6,0,0,12.3,153.5,488.1)" />
<use xlink:href="#f2_2g" transform="matrix(12.6,0,0,12.3,162.6,488.1)" />
<use xlink:href="#f2_d" transform="matrix(12.6,0,0,12.3,176.2,488.1)" />
<use xlink:href="#f2_o" transform="matrix(12.6,0,0,12.3,203.2,488.1)" />
<use xlink:href="#f2_f" transform="matrix(12.6,0,0,12.3,215,488.1)" />
<use xlink:href="#f2_2g" transform="matrix(12.6,0,0,12.3,228.5,488.1)" />
<use xlink:href="#f2_l" transform="matrix(12.6,0,0,12.3,259,488.1)" />
<use xlink:href="#f2_f" transform="matrix(12.6,0,0,12.3,269.4,488.1)" />
<use xlink:href="#f2_o" transform="matrix(12.6,0,0,12.3,282.6,488.1)" />
<use xlink:href="#f2_2g" transform="matrix(12.6,0,0,12.3,291.8,488.1)" />
</g>
</g>
<image preserveAspectRatio="none" x="205" y="435" width="74" height="19" xlink:href="img/6.png" />
<image preserveAspectRatio="none" x="55" y="459" width="74" height="19" xlink:href="img/7.png" />
<path d="M113.1,523.7h17.8m13.5,0h41.8m36.1,0h17.9m16.6,0h11" class="g6_34" />
<path d="M282.7,547.1h10.9" class="g7_34" />
<path d="M281.2,523.7h44.7" class="g6_34" />
<g clip-path="url(#c4_34)">
<g fill="#000000" >
<use xlink:href="#f2_m" transform="matrix(7.3,0,0,7.1,178.4,534.7)" />
<use xlink:href="#f2_m" transform="matrix(7.3,0,0,7.1,318.2,543.4)" />
<use xlink:href="#f2_l" transform="matrix(12.6,0,0,12.4,117.4,516.4)" />
<use xlink:href="#f2_l" transform="matrix(12.6,0,0,12.4,160.6,516.4)" />
<use xlink:href="#f2_o" transform="matrix(12.6,0,0,12.4,226.9,516.4)" />
<use xlink:href="#f2_l" transform="matrix(12.6,0,0,12.4,257.6,516.4)" />
<use xlink:href="#f2_l" transform="matrix(12.6,0,0,12.4,298.9,516.4)" />
<use xlink:href="#f2_l" transform="matrix(12.6,0,0,12.4,283.5,540.2)" />
<use xlink:href="#f2_l" transform="matrix(12.6,0,0,12.4,112.2,543)" />
<use xlink:href="#f2_p" transform="matrix(12.6,0,0,12.4,121.4,543)" />
<use xlink:href="#f2_o" transform="matrix(12.6,0,0,12.4,145.5,543)" />
<use xlink:href="#f2_l" transform="matrix(12.6,0,0,12.4,221.5,543)" />
<use xlink:href="#f2_p" transform="matrix(12.6,0,0,12.4,230.7,543)" />
<use xlink:href="#f2_o" transform="matrix(12.6,0,0,12.4,257.9,543)" />
<use xlink:href="#f2_o" transform="matrix(12.6,0,0,12.4,283.8,566.1)" />
<use xlink:href="#f3_19" transform="matrix(12.6,0,0,12.4,73.4,528.3)" />
<use xlink:href="#f3_20" transform="matrix(12.6,0,0,12.4,189,528.3)" />
<use xlink:href="#f3_2g" transform="matrix(12.6,0,0,12.4,198.2,528.3)" />
<use xlink:href="#f3_20" transform="matrix(12.6,0,0,12.4,328.7,528.3)" />
<use xlink:href="#f3_2g" transform="matrix(12.6,0,0,12.4,337.9,528.3)" />
<use xlink:href="#f3_2g" transform="matrix(12.6,0,0,12.4,171.7,543)" />
<use xlink:href="#f3_2g" transform="matrix(12.6,0,0,12.4,311.4,551.7)" />
<use xlink:href="#f4_1s" transform="matrix(12.6,0,0,12.4,55.1,528.3)" />
<use xlink:href="#f4_x" transform="matrix(12.6,0,0,12.4,86,528.3)" />
<use xlink:href="#f4_h" transform="matrix(12.6,0,0,12.4,100.5,528.3)" />
<use xlink:href="#f4_f" transform="matrix(12.6,0,0,12.4,207.9,528.3)" />
<use xlink:href="#f4_3a" transform="matrix(12.6,0,0,12.4,243.3,528.3)" />
<use xlink:href="#f4_f" transform="matrix(12.6,0,0,12.4,158.2,543)" />
<use xlink:href="#f4_f" transform="matrix(12.6,0,0,12.4,297.9,551.7)" />
<use xlink:href="#f4_50" transform="matrix(18.9,0,0,18.5,134,535)" />
<use xlink:href="#f4_50" transform="matrix(18.9,0,0,18.5,270.8,535)" />
</g>
</g>
<path d="M85.1,607.1h17.7m16.7,0h10.9m50.1,0h10.9m27.7,0h17.8" class="g8_34" />
<path d="M255,630.2h10.9" class="g9_34" />
<path d="M253.5,607.1h13.8" class="g8_34" />
<path d="M339.1,609.4l-20.1,28" class="g9_34" />
<path d="M317.4,607.1h23.4M85.1,680.7h19.5m50.1,0h10.9m27.6,0H211M72.8,735.2H90.6m113.4,0h19.5m50.1,0h34.6" class="g8_34" />
<g clip-path="url(#c5_34)">
<g fill="#000000" >
<use xlink:href="#f2_l" transform="matrix(7.1,0,0,7,162.9,603.4)" />
<use xlink:href="#f2_l" transform="matrix(7.1,0,0,7,299.8,603.4)" />
<use xlink:href="#f2_l" transform="matrix(7.1,0,0,7,137.1,677.1)" />
<use xlink:href="#f2_l" transform="matrix(7.1,0,0,7,243.6,677.1)" />
<use xlink:href="#f2_l" transform="matrix(7.1,0,0,7,123.1,731.6)" />
<use xlink:href="#f2_l" transform="matrix(7.1,0,0,7,256,731.6)" />
<use xlink:href="#f2_l" transform="matrix(12.3,0,0,12.2,89.4,599.9)" />
<use xlink:href="#f2_l" transform="matrix(12.3,0,0,12.2,120.4,599.9)" />
<use xlink:href="#f2_l" transform="matrix(12.3,0,0,12.2,223.4,599.9)" />
<use xlink:href="#f2_l" transform="matrix(12.3,0,0,12.2,255.8,599.9)" />
<use xlink:href="#f2_2g" transform="matrix(12.3,0,0,12.2,133.5,611.6)" />
<use xlink:href="#f2_1x" transform="matrix(12.3,0,0,12.2,138.7,611.6)" />
<use xlink:href="#f2_2a" transform="matrix(12.3,0,0,12.2,146.7,611.6)" />
<use xlink:href="#f2_2g" transform="matrix(12.3,0,0,12.2,270.3,611.6)" />
<use xlink:href="#f2_1x" transform="matrix(12.3,0,0,12.2,275.5,611.6)" />
<use xlink:href="#f2_2a" transform="matrix(12.3,0,0,12.2,283.5,611.6)" />
<use xlink:href="#f2_l" transform="matrix(12.3,0,0,12.2,255.8,623.4)" />
<use xlink:href="#f2_l" transform="matrix(12.3,0,0,12.2,320.6,623.4)" />
<use xlink:href="#f2_l" transform="matrix(12.3,0,0,12.2,84.2,626.2)" />
<use xlink:href="#f2_p" transform="matrix(12.3,0,0,12.2,93.4,626.2)" />
<use xlink:href="#f2_m" transform="matrix(12.3,0,0,12.2,120.6,626.2)" />
<use xlink:href="#f2_m" transform="matrix(12.3,0,0,12.2,181.6,626.2)" />
<use xlink:href="#f2_l" transform="matrix(12.3,0,0,12.2,218.2,626.2)" />
<use xlink:href="#f2_p" transform="matrix(12.3,0,0,12.2,227.3,626.2)" />
<use xlink:href="#f2_m" transform="matrix(12.3,0,0,12.2,330.5,637.4)" />
<use xlink:href="#f2_m" transform="matrix(12.3,0,0,12.2,256.1,648.9)" />
<use xlink:href="#f2_l" transform="matrix(12.3,0,0,12.2,90.2,673.5)" />
<use xlink:href="#f2_m" transform="matrix(12.3,0,0,12.2,197.8,673.5)" />
<use xlink:href="#f2_2g" transform="matrix(12.3,0,0,12.2,107.6,685.3)" />
<use xlink:href="#f2_1x" transform="matrix(12.3,0,0,12.2,112.8,685.3)" />
<use xlink:href="#f2_2a" transform="matrix(12.3,0,0,12.2,120.8,685.3)" />
<use xlink:href="#f2_2g" transform="matrix(12.3,0,0,12.2,214.1,685.3)" />
<use xlink:href="#f2_1x" transform="matrix(12.3,0,0,12.2,219.3,685.3)" />
<use xlink:href="#f2_2a" transform="matrix(12.3,0,0,12.2,227.3,685.3)" />
<use xlink:href="#f2_c" transform="matrix(12.3,0,0,12.2,249.9,685.3)" />
<use xlink:href="#f2_m" transform="matrix(12.3,0,0,12.2,256.5,685.3)" />
<use xlink:href="#f2_d" transform="matrix(12.3,0,0,12.2,271.7,685.3)" />
<use xlink:href="#f2_n" transform="matrix(12.3,0,0,12.2,85.6,699.8)" />
<use xlink:href="#f2_k" transform="matrix(12.3,0,0,12.2,94.8,699.8)" />
<use xlink:href="#f2_m" transform="matrix(12.3,0,0,12.2,155.8,699.8)" />
<use xlink:href="#f2_l" transform="matrix(12.3,0,0,12.2,192.3,699.8)" />
<use xlink:href="#f2_p" transform="matrix(12.3,0,0,12.2,201.5,699.8)" />
<use xlink:href="#f2_m" transform="matrix(12.3,0,0,12.2,77.4,728)" />
<use xlink:href="#f2_l" transform="matrix(12.3,0,0,12.2,209.1,728)" />
<use xlink:href="#f2_2f" transform="matrix(12.3,0,0,12.2,274.1,728)" />
<use xlink:href="#f2_25" transform="matrix(12.3,0,0,12.2,281.3,728)" />
<use xlink:href="#f2_2a" transform="matrix(12.3,0,0,12.2,286.5,728)" />
<use xlink:href="#f2_2g" transform="matrix(12.3,0,0,12.2,93.7,739.8)" />
<use xlink:href="#f2_1x" transform="matrix(12.3,0,0,12.2,98.9,739.8)" />
<use xlink:href="#f2_2a" transform="matrix(12.3,0,0,12.2,106.9,739.8)" />
<use xlink:href="#f2_c" transform="matrix(12.3,0,0,12.2,129.5,739.8)" />
<use xlink:href="#f2_m" transform="matrix(12.3,0,0,12.2,136.1,739.8)" />
<use xlink:href="#f2_2f" transform="matrix(12.3,0,0,12.2,146.6,739.8)" />
<use xlink:href="#f2_25" transform="matrix(12.3,0,0,12.2,153.8,739.8)" />
<use xlink:href="#f2_2a" transform="matrix(12.3,0,0,12.2,159,739.8)" />
<use xlink:href="#f2_d" transform="matrix(12.3,0,0,12.2,180.1,739.8)" />
<use xlink:href="#f2_2g" transform="matrix(12.3,0,0,12.2,226.5,739.8)" />
<use xlink:href="#f2_1x" transform="matrix(12.3,0,0,12.2,231.8,739.8)" />
<use xlink:href="#f2_2a" transform="matrix(12.3,0,0,12.2,239.7,739.8)" />
<use xlink:href="#f2_l" transform="matrix(12.3,0,0,12.2,71.9,754.3)" />
<use xlink:href="#f2_p" transform="matrix(12.3,0,0,12.2,81.1,754.3)" />
<use xlink:href="#f2_n" transform="matrix(12.3,0,0,12.2,204.5,754.3)" />
<use xlink:href="#f2_k" transform="matrix(12.3,0,0,12.2,213.7,754.3)" />
<use xlink:href="#f2_m" transform="matrix(12.3,0,0,12.2,286.5,754.3)" />
<use xlink:href="#f3_2g" transform="matrix(12.3,0,0,12.2,182.8,599.9)" />
<use xlink:href="#f3_2g" transform="matrix(12.3,0,0,12.2,325.9,599.9)" />
<use xlink:href="#f3_13" transform="matrix(12.3,0,0,12.2,367.6,611.6)" />
<use xlink:href="#f3_2g" transform="matrix(12.3,0,0,12.2,157,673.5)" />
<use xlink:href="#f3_2g" transform="matrix(12.3,0,0,12.2,265.5,685.3)" />
<use xlink:href="#f3_13" transform="matrix(12.3,0,0,12.2,295,685.3)" />
<use xlink:href="#f3_13" transform="matrix(12.3,0,0,12.2,335,739.8)" />
<use xlink:href="#f4_h" transform="matrix(7.1,0,0,7,157.1,603.4)" />
<use xlink:href="#f4_h" transform="matrix(7.1,0,0,7,294,603.4)" />
<use xlink:href="#f4_h" transform="matrix(7.1,0,0,7,131.3,677.1)" />
<use xlink:href="#f4_h" transform="matrix(7.1,0,0,7,237.8,677.1)" />
<use xlink:href="#f4_h" transform="matrix(7.1,0,0,7,117.3,731.6)" />
<use xlink:href="#f4_h" transform="matrix(7.1,0,0,7,250.2,731.6)" />
<use xlink:href="#f4_4o" transform="matrix(12.3,0,0,12.2,307.5,592.1)" />
<use xlink:href="#f4_54" transform="matrix(12.3,0,0,12.2,343.5,592.1)" />
<use xlink:href="#f4_4o" transform="matrix(12.3,0,0,12.2,170.7,601.3)" />
<use xlink:href="#f4_54" transform="matrix(12.3,0,0,12.2,194.1,601.3)" />
<use xlink:href="#f4_4p" transform="matrix(12.3,0,0,12.2,307.5,609)" />
<use xlink:href="#f4_55" transform="matrix(12.3,0,0,12.2,343.5,609)" />
<use xlink:href="#f4_x" transform="matrix(12.3,0,0,12.2,58,611.6)" />
<use xlink:href="#f4_h" transform="matrix(12.3,0,0,12.2,72.5,611.6)" />
<use xlink:href="#f4_3a" transform="matrix(12.3,0,0,12.2,106,611.6)" />
<use xlink:href="#f4_f" transform="matrix(12.3,0,0,12.2,204.6,611.6)" />
<use xlink:href="#f4_3a" transform="matrix(12.3,0,0,12.2,239.9,611.6)" />
<use xlink:href="#f4_f" transform="matrix(12.3,0,0,12.2,354,611.6)" />
<use xlink:href="#f4_4p" transform="matrix(12.3,0,0,12.2,170.7,616.7)" />
<use xlink:href="#f4_55" transform="matrix(12.3,0,0,12.2,194.1,616.7)" />
<use xlink:href="#f4_4p" transform="matrix(12.3,0,0,12.2,307.5,625.9)" />
<use xlink:href="#f4_55" transform="matrix(12.3,0,0,12.2,343.5,625.9)" />
<use xlink:href="#f4_4q" transform="matrix(12.3,0,0,12.2,170.7,628.3)" />
<use xlink:href="#f4_56" transform="matrix(12.3,0,0,12.2,194.1,628.3)" />
<use xlink:href="#f4_4q" transform="matrix(12.3,0,0,12.2,307.5,637.4)" />
<use xlink:href="#f4_56" transform="matrix(12.3,0,0,12.2,343.5,637.4)" />
<use xlink:href="#f4_4o" transform="matrix(12.3,0,0,12.2,144.8,675)" />
<use xlink:href="#f4_54" transform="matrix(12.3,0,0,12.2,168.3,675)" />
<use xlink:href="#f4_x" transform="matrix(12.3,0,0,12.2,58,685.3)" />
<use xlink:href="#f4_h" transform="matrix(12.3,0,0,12.2,72.5,685.3)" />
<use xlink:href="#f4_f" transform="matrix(12.3,0,0,12.2,178.8,685.3)" />
<use xlink:href="#f4_f" transform="matrix(12.3,0,0,12.2,281.5,685.3)" />
<use xlink:href="#f4_4p" transform="matrix(12.3,0,0,12.2,144.8,690.4)" />
<use xlink:href="#f4_55" transform="matrix(12.3,0,0,12.2,168.3,690.4)" />
<use xlink:href="#f4_4q" transform="matrix(12.3,0,0,12.2,144.8,701.9)" />
<use xlink:href="#f4_56" transform="matrix(12.3,0,0,12.2,168.3,701.9)" />
<use xlink:href="#f4_2d" transform="matrix(12.3,0,0,12.2,298.2,728)" />
<use xlink:href="#f4_4o" transform="matrix(12.3,0,0,12.2,263.7,729.4)" />
<use xlink:href="#f4_54" transform="matrix(12.3,0,0,12.2,310.9,729.4)" />
<use xlink:href="#f4_x" transform="matrix(12.3,0,0,12.2,58,739.8)" />
<use xlink:href="#f4_2d" transform="matrix(12.3,0,0,12.2,170.6,739.8)" />
<use xlink:href="#f4_h" transform="matrix(12.3,0,0,12.2,189.8,739.8)" />
<use xlink:href="#f4_f" transform="matrix(12.3,0,0,12.2,321.4,739.8)" />
<use xlink:href="#f4_4p" transform="matrix(12.3,0,0,12.2,263.7,744.9)" />
<use xlink:href="#f4_55" transform="matrix(12.3,0,0,12.2,310.9,744.9)" />
<use xlink:href="#f4_4q" transform="matrix(12.3,0,0,12.2,263.7,756.4)" />
<use xlink:href="#f4_56" transform="matrix(12.3,0,0,12.2,310.9,756.4)" />
</g>
</g>
<g fill="#000000" >
<use xlink:href="#f5_l" transform="matrix(12,0,0,12,55,821.2)" />
<use xlink:href="#f5_r" transform="matrix(12,0,0,12,64.2,821.2)" />
<use xlink:href="#f5_i" transform="matrix(12,0,0,12,73.4,821.2)" />
<use xlink:href="#f2_15" transform="matrix(12,0,0,12,82.9,821.2)" />
<use xlink:href="#f2_2i" transform="matrix(12,0,0,12,94.3,821.2)" />
<use xlink:href="#f2_1x" transform="matrix(12,0,0,12,103.1,821.2)" />
<use xlink:href="#f2_28" transform="matrix(12,0,0,12,111.5,821.2)" />
<use xlink:href="#f2_2h" transform="matrix(12,0,0,12,115.9,821.2)" />
<use xlink:href="#f2_1x" transform="matrix(12,0,0,12,125,821.2)" />
<use xlink:href="#f2_2g" transform="matrix(12,0,0,12,133.1,821.2)" />
<use xlink:href="#f2_21" transform="matrix(12,0,0,12,138.6,821.2)" />
<use xlink:href="#f2_u" transform="matrix(12,0,0,12,146.6,821.2)" />
</g>
<path d="M170.2,817h87.9" class="g10_34" />
<g clip-path="url(#c6_34)">
<g fill="#000000" >
<use xlink:href="#f2_k" transform="matrix(7.3,0,0,7.1,160.6,841.5)" />
<use xlink:href="#f2_2g" transform="matrix(12.6,0,0,12.3,203,810)" />
<use xlink:href="#f2_1x" transform="matrix(12.6,0,0,12.3,208.2,810)" />
<use xlink:href="#f2_2a" transform="matrix(12.6,0,0,12.3,216.2,810)" />
<use xlink:href="#f2_2f" transform="matrix(12.6,0,0,12.3,170.8,836)" />
<use xlink:href="#f2_21" transform="matrix(12.6,0,0,12.3,178,836)" />
<use xlink:href="#f2_1z" transform="matrix(12.6,0,0,12.3,186,836)" />
<use xlink:href="#f2_2g" transform="matrix(12.6,0,0,12.3,222.6,836)" />
<use xlink:href="#f2_1x" transform="matrix(12.6,0,0,12.3,227.8,836)" />
<use xlink:href="#f2_2a" transform="matrix(12.6,0,0,12.3,235.8,836)" />
<use xlink:href="#f3_2k" transform="matrix(12.6,0,0,12.3,191.8,810)" />
<use xlink:href="#f3_2k" transform="matrix(12.6,0,0,12.3,229.3,810)" />
<use xlink:href="#f3_20" transform="matrix(12.6,0,0,12.3,261.3,821.6)" />
<use xlink:href="#f3_2k" transform="matrix(12.6,0,0,12.3,270.5,821.6)" />
<use xlink:href="#f3_2k" transform="matrix(12.6,0,0,12.3,197.4,836)" />
<use xlink:href="#f3_2k" transform="matrix(12.6,0,0,12.3,249,836)" />
<use xlink:href="#f4_2c" transform="matrix(7.3,0,0,7.1,160.4,800.5)" />
<use xlink:href="#f4_f" transform="matrix(12.6,0,0,12.3,208.9,836)" />
<use xlink:href="#f4_50" transform="matrix(18.9,0,0,18.4,159.5,828.2)" />
</g>
</g>
<g fill="#000000" >
<use xlink:href="#f5_1f" transform="matrix(12,0,0,12,440.9,866.3)" />
<use xlink:href="#f5_1i" transform="matrix(12,0,0,12,455.2,866.3)" />
<use xlink:href="#f2_15" transform="matrix(12,0,0,12,55,905.9)" />
<use xlink:href="#f2_2i" transform="matrix(12,0,0,12,66.4,905.9)" />
<use xlink:href="#f2_1x" transform="matrix(12,0,0,12,75.2,905.9)" />
<use xlink:href="#f2_28" transform="matrix(12,0,0,12,83.6,905.9)" />
<use xlink:href="#f2_2h" transform="matrix(12,0,0,12,88.4,905.9)" />
<use xlink:href="#f2_1x" transform="matrix(12,0,0,12,97.5,905.9)" />
<use xlink:href="#f2_2g" transform="matrix(12,0,0,12,105.6,905.9)" />
<use xlink:href="#f2_21" transform="matrix(12,0,0,12,111.1,905.9)" />
<use xlink:href="#f2_u" transform="matrix(12,0,0,12,119.1,905.9)" />
</g>
<g clip-path="url(#c7_34)">
<g fill="#000000" >
<use xlink:href="#f2_o" transform="matrix(7.3,0,0,7.1,133.2,884.9)" />
<use xlink:href="#f2_l" transform="matrix(7.3,0,0,7.1,133,926.1)" />
<use xlink:href="#f2_2n" transform="matrix(12.6,0,0,12.4,140.7,906.1)" />
<use xlink:href="#f2_2o" transform="matrix(12.6,0,0,12.4,149.7,906.1)" />
<use xlink:href="#f2_l" transform="matrix(12.6,0,0,12.4,180.4,906.1)" />
<use xlink:href="#f2_2o" transform="matrix(12.6,0,0,12.4,191,906.1)" />
<use xlink:href="#f2_2o" transform="matrix(12.6,0,0,12.4,211.7,906.1)" />
<use xlink:href="#f2_m" transform="matrix(12.6,0,0,12.4,244.5,906.1)" />
<use xlink:href="#f2_2o" transform="matrix(12.6,0,0,12.4,256.5,906.1)" />
<use xlink:href="#f2_2o" transform="matrix(12.6,0,0,12.4,277.2,906.1)" />
<use xlink:href="#f2_o" transform="matrix(12.6,0,0,12.4,310,906.1)" />
<use xlink:href="#f2_2o" transform="matrix(12.6,0,0,12.4,322,906.1)" />
<use xlink:href="#f2_2p" transform="matrix(12.6,0,0,12.4,325.7,906.1)" />
<use xlink:href="#f3_2k" transform="matrix(12.6,0,0,12.4,157.7,906.1)" />
<use xlink:href="#f3_2k" transform="matrix(12.6,0,0,12.4,219.8,906.1)" />
<use xlink:href="#f3_2k" transform="matrix(12.6,0,0,12.4,285.3,906.1)" />
<use xlink:href="#f3_20" transform="matrix(12.6,0,0,12.4,333.9,906.1)" />
<use xlink:href="#f3_2k" transform="matrix(12.6,0,0,12.4,343.1,906.1)" />
<use xlink:href="#f4_h" transform="matrix(12.6,0,0,12.4,169.2,906.1)" />
<use xlink:href="#f4_f" transform="matrix(12.6,0,0,12.4,198.2,906.1)" />
<use xlink:href="#f4_h" transform="matrix(12.6,0,0,12.4,231.3,906.1)" />
<use xlink:href="#f4_f" transform="matrix(12.6,0,0,12.4,263.7,906.1)" />
<use xlink:href="#f4_h" transform="matrix(12.6,0,0,12.4,296.8,906.1)" />
<use xlink:href="#f4_50" transform="matrix(18.9,0,0,18.5,132,912.8)" />
</g>
</g>
<g fill="#000000" >
<use xlink:href="#f5_1j" transform="matrix(12,0,0,12,55,949.2)" />
<use xlink:href="#f5_2b" transform="matrix(12,0,0,12,65.3,949.2)" />
<use xlink:href="#f5_28" transform="matrix(12,0,0,12,74.5,949.2)" />
<use xlink:href="#f5_2h" transform="matrix(12,0,0,12,79.2,949.2)" />
<use xlink:href="#f5_2g" transform="matrix(12,0,0,12,89.5,949.2)" />
<use xlink:href="#f5_25" transform="matrix(12,0,0,12,95.7,949.2)" />
<use xlink:href="#f5_2b" transform="matrix(12,0,0,12,100.8,949.2)" />
<use xlink:href="#f5_2a" transform="matrix(12,0,0,12,109.9,949.2)" />
<use xlink:href="#f5_u" transform="matrix(12,0,0,12,120.2,949.2)" />
</g>
<path d="M96.3,985.1h88.5m-88.5,58H216.9M96.3,1101.2h88.5" class="g11_34" />
<g clip-path="url(#c8_34)">
<g fill="#000000" >
<use xlink:href="#f2_k" transform="matrix(7,0,0,7,87,1009.4)" />
<use xlink:href="#f2_k" transform="matrix(7,0,0,7,87,1067.5)" />
<use xlink:href="#f2_k" transform="matrix(7,0,0,7,87,1125.5)" />
<use xlink:href="#f2_2g" transform="matrix(12.2,0,0,12.2,129.3,977.9)" />
<use xlink:href="#f2_1x" transform="matrix(12.2,0,0,12.2,134.5,977.9)" />
<use xlink:href="#f2_2a" transform="matrix(12.2,0,0,12.2,142.5,977.9)" />
<use xlink:href="#f2_i" transform="matrix(12.2,0,0,12.2,239.8,989.7)" />
<use xlink:href="#f2_i" transform="matrix(12.2,0,0,12.2,244.5,989.7)" />
<use xlink:href="#f2_i" transform="matrix(12.2,0,0,12.2,249,989.7)" />
<use xlink:href="#f2_c" transform="matrix(12.2,0,0,12.2,253.7,989.7)" />
<use xlink:href="#f2_l" transform="matrix(12.2,0,0,12.2,258.2,989.7)" />
<use xlink:href="#f2_d" transform="matrix(12.2,0,0,12.2,266,989.7)" />
<use xlink:href="#f2_2f" transform="matrix(12.2,0,0,12.2,96.9,1004.1)" />
<use xlink:href="#f2_21" transform="matrix(12.2,0,0,12.2,104.1,1004.1)" />
<use xlink:href="#f2_1z" transform="matrix(12.2,0,0,12.2,112.1,1004.1)" />
<use xlink:href="#f2_2g" transform="matrix(12.2,0,0,12.2,149.5,1004.1)" />
<use xlink:href="#f2_1x" transform="matrix(12.2,0,0,12.2,154.7,1004.1)" />
<use xlink:href="#f2_2a" transform="matrix(12.2,0,0,12.2,162.7,1004.1)" />
<use xlink:href="#f2_c" transform="matrix(12.2,0,0,12.2,106.9,1036)" />
<use xlink:href="#f2_d" transform="matrix(12.2,0,0,12.2,150.2,1036)" />
<use xlink:href="#f2_c" transform="matrix(12.2,0,0,12.2,156.3,1036)" />
<use xlink:href="#f2_2g" transform="matrix(12.2,0,0,12.2,175.4,1036)" />
<use xlink:href="#f2_1x" transform="matrix(12.2,0,0,12.2,180.5,1036)" />
<use xlink:href="#f2_2a" transform="matrix(12.2,0,0,12.2,188.6,1036)" />
<use xlink:href="#f2_d" transform="matrix(12.2,0,0,12.2,210,1036)" />
<use xlink:href="#f2_2f" transform="matrix(12.2,0,0,12.2,119.2,1062.2)" />
<use xlink:href="#f2_21" transform="matrix(12.2,0,0,12.2,126.4,1062.2)" />
<use xlink:href="#f2_1z" transform="matrix(12.2,0,0,12.2,134.4,1062.2)" />
<use xlink:href="#f2_2g" transform="matrix(12.2,0,0,12.2,171.6,1062.2)" />
<use xlink:href="#f2_1x" transform="matrix(12.2,0,0,12.2,176.8,1062.2)" />
<use xlink:href="#f2_2a" transform="matrix(12.2,0,0,12.2,184.8,1062.2)" />
<use xlink:href="#f2_c" transform="matrix(12.2,0,0,12.2,97.4,1094)" />
<use xlink:href="#f2_d" transform="matrix(12.2,0,0,12.2,140.7,1094)" />
<use xlink:href="#f2_2g" transform="matrix(12.2,0,0,12.2,149.3,1094)" />
<use xlink:href="#f2_1x" transform="matrix(12.2,0,0,12.2,154.4,1094)" />
<use xlink:href="#f2_2a" transform="matrix(12.2,0,0,12.2,162.5,1094)" />
<use xlink:href="#f2_i" transform="matrix(12.2,0,0,12.2,239.8,1105.8)" />
<use xlink:href="#f2_i" transform="matrix(12.2,0,0,12.2,244.5,1105.8)" />
<use xlink:href="#f2_i" transform="matrix(12.2,0,0,12.2,249,1105.8)" />
<use xlink:href="#f2_c" transform="matrix(12.2,0,0,12.2,253.7,1105.8)" />
<use xlink:href="#f2_m" transform="matrix(12.2,0,0,12.2,260.2,1105.8)" />
<use xlink:href="#f2_d" transform="matrix(12.2,0,0,12.2,269.4,1105.8)" />
<use xlink:href="#f2_2f" transform="matrix(12.2,0,0,12.2,96.9,1120.3)" />
<use xlink:href="#f2_21" transform="matrix(12.2,0,0,12.2,104.1,1120.3)" />
<use xlink:href="#f2_1z" transform="matrix(12.2,0,0,12.2,112.1,1120.3)" />
<use xlink:href="#f2_2g" transform="matrix(12.2,0,0,12.2,149.5,1120.3)" />
<use xlink:href="#f2_1x" transform="matrix(12.2,0,0,12.2,154.7,1120.3)" />
<use xlink:href="#f2_2a" transform="matrix(12.2,0,0,12.2,162.7,1120.3)" />
<use xlink:href="#f3_2k" transform="matrix(12.2,0,0,12.2,118.5,977.9)" />
<use xlink:href="#f3_2k" transform="matrix(12.2,0,0,12.2,155.4,977.9)" />
<use xlink:href="#f3_19" transform="matrix(12.2,0,0,12.2,58.5,989.7)" />
<use xlink:href="#f3_20" transform="matrix(12.2,0,0,12.2,187.5,989.7)" />
<use xlink:href="#f3_2k" transform="matrix(12.2,0,0,12.2,196.7,989.7)" />
<use xlink:href="#f3_2k" transform="matrix(12.2,0,0,12.2,123.2,1004.1)" />
<use xlink:href="#f3_2k" transform="matrix(12.2,0,0,12.2,175.6,1004.1)" />
<use xlink:href="#f3_2k" transform="matrix(12.2,0,0,12.2,98.3,1036)" />
<use xlink:href="#f3_2k" transform="matrix(12.2,0,0,12.2,141.6,1036)" />
<use xlink:href="#f3_2k" transform="matrix(12.2,0,0,12.2,201.4,1036)" />
<use xlink:href="#f3_19" transform="matrix(12.2,0,0,12.2,58.5,1047.7)" />
<use xlink:href="#f3_20" transform="matrix(12.2,0,0,12.2,219.7,1047.7)" />
<use xlink:href="#f3_2k" transform="matrix(12.2,0,0,12.2,228.9,1047.7)" />
<use xlink:href="#f3_2k" transform="matrix(12.2,0,0,12.2,145.5,1062.2)" />
<use xlink:href="#f3_2k" transform="matrix(12.2,0,0,12.2,197.6,1062.2)" />
<use xlink:href="#f3_2k" transform="matrix(12.2,0,0,12.2,132.2,1094)" />
<use xlink:href="#f3_2k" transform="matrix(12.2,0,0,12.2,175.3,1094)" />
<use xlink:href="#f3_19" transform="matrix(12.2,0,0,12.2,58.5,1105.8)" />
<use xlink:href="#f3_20" transform="matrix(12.2,0,0,12.2,187.5,1105.8)" />
<use xlink:href="#f3_2k" transform="matrix(12.2,0,0,12.2,196.7,1105.8)" />
<use xlink:href="#f3_2k" transform="matrix(12.2,0,0,12.2,123.2,1120.3)" />
<use xlink:href="#f3_2k" transform="matrix(12.2,0,0,12.2,175.6,1120.3)" />
<use xlink:href="#f4_2c" transform="matrix(7,0,0,7,86.8,968.7)" />
<use xlink:href="#f4_2c" transform="matrix(7,0,0,7,86.8,1026.8)" />
<use xlink:href="#f4_2c" transform="matrix(7,0,0,7,86.8,1084.8)" />
<use xlink:href="#f4_x" transform="matrix(12.2,0,0,12.2,71.1,989.7)" />
<use xlink:href="#f4_f" transform="matrix(12.2,0,0,12.2,135.2,1004.1)" />
<use xlink:href="#f4_2c" transform="matrix(12.2,0,0,12.2,113.5,1036)" />
<use xlink:href="#f4_h" transform="matrix(12.2,0,0,12.2,127,1036)" />
<use xlink:href="#f4_h" transform="matrix(12.2,0,0,12.2,162.8,1036)" />
<use xlink:href="#f4_x" transform="matrix(12.2,0,0,12.2,71.1,1047.7)" />
<use xlink:href="#f4_h" transform="matrix(12.2,0,0,12.2,107.5,1062.2)" />
<use xlink:href="#f4_h" transform="matrix(12.2,0,0,12.2,157.5,1062.2)" />
<use xlink:href="#f4_2c" transform="matrix(12.2,0,0,12.2,104,1094)" />
<use xlink:href="#f4_h" transform="matrix(12.2,0,0,12.2,117.5,1094)" />
<use xlink:href="#f4_x" transform="matrix(12.2,0,0,12.2,71.1,1105.8)" />
<use xlink:href="#f4_f" transform="matrix(12.2,0,0,12.2,135.2,1120.3)" />
<use xlink:href="#f4_50" transform="matrix(18.2,0,0,18.3,85.9,996.2)" />
<use xlink:href="#f4_50" transform="matrix(18.2,0,0,18.3,85.9,1054.3)" />
<use xlink:href="#f4_50" transform="matrix(18.2,0,0,18.3,85.9,1112.4)" />
</g>
</g>
<g fill="#000000" >
<use xlink:href="#f2_11" transform="matrix(12,0,0,12,55,1150.5)" />
<use xlink:href="#f2_20" transform="matrix(12,0,0,12,67.9,1150.5)" />
<use xlink:href="#f2_20" transform="matrix(12,0,0,12,77,1150.5)" />
<use xlink:href="#f2_25" transform="matrix(12,0,0,12,86.6,1150.5)" />
<use xlink:href="#f2_2a" transform="matrix(12,0,0,12,91.3,1150.5)" />
<use xlink:href="#f2_23" transform="matrix(12,0,0,12,100.5,1150.5)" />
<use xlink:href="#f2_c" transform="matrix(12,0,0,12,114.4,1150.5)" />
<use xlink:href="#f2_l" transform="matrix(12,0,0,12,120.6,1150.5)" />
<use xlink:href="#f2_d" transform="matrix(12,0,0,12,129.8,1150.5)" />
<use xlink:href="#f2_a" transform="matrix(12,0,0,12,140.7,1150.5)" />
<use xlink:href="#f2_c" transform="matrix(12,0,0,12,159.4,1150.5)" />
<use xlink:href="#f2_m" transform="matrix(12,0,0,12,165.6,1150.5)" />
<use xlink:href="#f2_d" transform="matrix(12,0,0,12,174.8,1150.5)" />
</g>
<path fill-rule="evenodd" d="M37.4,38.1h.7v-.7h-.7v.7Z" class="g12_34" />
<path fill-rule="evenodd" d="M37.4,38.1h.7v-.7h-.7v.7Z" class="g12_34" />
<path fill-rule="evenodd" d="M38.1,38.1H871.5v-.7H38.1v.7Z" class="g12_34" />
<path fill-rule="evenodd" d="M871.5,38.1h.8v-.7h-.8v.7Z" class="g12_34" />
<path fill-rule="evenodd" d="M871.5,38.1h.8v-.7h-.8v.7Z" class="g12_34" />
<path fill-rule="evenodd" d="M37.4,1248.5h.7V38.1h-.7V1248.5Z" class="g12_34" />
<path fill-rule="evenodd" d="M872.3,1248.5h.7V38.1h-.7V1248.5Z" class="g12_34" />
<path fill-rule="evenodd" d="M871.5,1248.5h.8V38.1h-.8V1248.5Z" class="g12_34" />
<path fill-rule="evenodd" d="M37.4,1249.2h.7v-.7h-.7v.7Z" class="g12_34" />
<path fill-rule="evenodd" d="M37.4,1249.2h.7v-.7h-.7v.7Z" class="g12_34" />
<path fill-rule="evenodd" d="M38.1,1249.9H871.5v-.7H38.1v.7Z" class="g12_34" />
<path fill-rule="evenodd" d="M38.1,1249.2H871.5v-.7H38.1v.7Z" class="g12_34" />
<path fill-rule="evenodd" d="M872.3,1249.9h.7v-1.4h-.7v1.4Z" class="g12_34" />
<path fill-rule="evenodd" d="M871.5,1249.9H873v-.7h-1.5v.7Z" class="g12_34" />
<path fill-rule="evenodd" d="M871.5,1249.2h.8v-.7h-.8v.7Z" class="g12_34" />
<path fill-rule="evenodd" d="M871.5,1249.2h.8v-.7h-.8v.7Z" class="g12_34" />
<defs>
<path d="M489,-15c0,0,-99,0,-179,30c0,0,-80,30,-136,91c0,0,-56,61,-85,152c0,0,-30,91,-30,212c0,0,0,123,32,218c0,0,33,96,92,161c0,0,59,65,142,98c0,0,82,34,181,34c0,0,40,0,78,-7c0,0,37,-7,69,-18c0,0,31,-11,57,-25c0,0,25,-14,35,-24c0,0,10,-10,14,-17c0,0,4,-7,6,-17c0,0,2,-11,3,-25c0,0,2,-14,2,-35c0,0,0,-22,-2,-38c0,0,-1,-15,-5,-25c0,0,-4,-10,-9,-14c0,0,-5,-5,-12,-5c0,0,-11,0,-28,13c0,0,-18,13,-45,29c0,0,-27,16,-65,29c0,0,-37,13,-89,13c0,0,-58,0,-103,-23c0,0,-45,-23,-77,-67c0,0,-31,-44,-48,-106c0,0,-16,-61,-16,-139c0,0,0,-85,17,-147c0,0,18,-62,50,-103c0,0,33,-40,79,-60c0,0,45,-19,103,-19c0,0,52,0,90,12c0,0,38,12,65,27c0,0,27,15,45,27c0,0,17,12,27,12c0,0,8,0,12,-3c0,0,4,-3,7,-12c0,0,3,-9,5,-25c0,0,1,-16,1,-43c0,0,0,-18,-1,-31c0,0,-1,-14,-3,-23c0,0,-2,-9,-6,-16c0,0,-4,-7,-12,-15c0,0,-8,-9,-32,-22c0,0,-23,-14,-57,-26C661,13,627,1,583,-6c0,0,-43,-9,-94,-9Z" 
id="f0_j"
transform="scale(0.001,-0.001)" />

<path d="M440,150c0,0,41,0,68,8c0,0,28,9,49,26c0,0,20,16,32,41c0,0,11,25,11,58c0,0,0,33,-11,60c0,0,-11,26,-33,44c0,0,-21,18,-55,28c0,0,-33,9,-87,9H298V150ZM407,567c0,0,42,0,68,10c0,0,25,10,42,28c0,0,16,17,24,41c0,0,9,24,9,50c0,0,0,29,-9,52c0,0,-9,23,-27,39c0,0,-18,15,-45,23c0,0,-27,8,-72,8H298V567ZM164,0c0,0,-25,0,-42,15c0,0,-16,14,-16,47V903c0,0,0,33,16,48c0,0,17,14,42,14H406c0,0,88,0,150,-15c0,0,61,-15,103,-45c0,0,42,-30,65,-77c0,0,22,-46,22,-108c0,0,0,-36,-9,-67c0,0,-9,-31,-26,-56c0,0,-17,-25,-42,-45c0,0,-25,-19,-57,-31c0,0,41,-7,76,-26c0,0,34,-19,60,-48c0,0,26,-30,41,-69c0,0,15,-40,15,-89c0,0,0,-51,-14,-93c0,0,-15,-42,-40,-74c0,0,-25,-32,-59,-55c0,0,-35,-23,-77,-38C614,29,573,14,525,7C525,7,478,0,420,0Z" 
id="f0_i"
transform="scale(0.001,-0.001)" />

<path d="M320,-17c0,0,-50,0,-93,9c0,0,-43,8,-76,19c0,0,-32,11,-54,24C97,35,75,48,65,58c0,0,-10,9,-14,28c0,0,-4,18,-4,52c0,0,0,23,1,39c0,0,2,15,5,25c0,0,4,10,9,14c0,0,6,4,13,4c0,0,11,0,30,-12c0,0,19,-13,49,-28c0,0,30,-15,71,-27c0,0,42,-12,96,-12c0,0,36,0,64,8c0,0,29,9,49,25c0,0,19,15,30,38c0,0,10,23,10,52c0,0,0,33,-18,56c0,0,-18,24,-46,42c0,0,-29,18,-66,34c0,0,-36,16,-75,34c0,0,-39,18,-76,41c0,0,-36,23,-65,54c0,0,-29,32,-47,75c0,0,-17,44,-17,104c0,0,0,70,25,122c0,0,26,53,70,88c0,0,43,34,103,51c0,0,59,18,125,18c0,0,35,0,69,-6c0,0,34,-5,64,-14c0,0,30,-9,53,-20c0,0,23,-11,31,-18c0,0,7,-8,10,-13c0,0,3,-5,4,-14c0,0,2,-8,3,-21c0,0,1,-13,1,-33c0,0,0,-21,-1,-36c0,0,-1,-15,-4,-25c0,0,-3,-9,-7,-14c0,0,-5,-4,-14,-4c0,0,-8,0,-26,10c0,0,-18,10,-44,23c0,0,-26,12,-60,22c0,0,-34,10,-75,10c0,0,-32,0,-56,-8c0,0,-24,-8,-40,-21c0,0,-16,-14,-24,-34c0,0,-8,-19,-8,-41c0,0,0,-32,18,-56c0,0,17,-23,46,-42c0,0,30,-18,67,-34c0,0,38,-16,76,-34c0,0,39,-18,76,-41c0,0,38,-22,67,-54c0,0,29,-32,47,-75c0,0,18,-43,18,-101c0,0,0,-76,-29,-133c0,0,-28,-58,-77,-96C572,60,524,21,459,2c0,0,-65,-19,-139,-19Z" 
id="f0_2n"
transform="scale(0.001,-0.001)" />

<path d="M164,0c0,0,-25,0,-42,15c0,0,-16,14,-16,47V903c0,0,0,33,16,48c0,0,17,14,42,14H645c0,0,7,0,12,-4c0,0,5,-3,9,-13c0,0,4,-9,6,-24c0,0,2,-14,2,-36c0,0,0,-21,-2,-36c0,0,-2,-14,-6,-23c0,0,-4,-9,-9,-13c0,0,-5,-4,-12,-4H301V576H593c0,0,6,0,12,-4c0,0,6,-4,9,-13c0,0,4,-8,6,-23c0,0,2,-14,2,-35c0,0,0,-22,-2,-36c0,0,-2,-14,-6,-23c0,0,-3,-8,-9,-12c0,0,-6,-4,-12,-4H301V154H649c0,0,6,0,12,-5c0,0,5,-4,9,-13c0,0,4,-9,6,-23c0,0,2,-15,2,-36c0,0,0,-22,-2,-36c0,0,-2,-15,-6,-24c0,0,-4,-9,-9,-13c0,0,-6,-4,-12,-4Z" 
id="f0_t"
transform="scale(0.001,-0.001)" />

<path d="M79,297c0,0,-19,0,-27,18c0,0,-8,17,-8,60c0,0,0,41,8,59c0,0,8,17,27,17H389c0,0,9,0,15,-4c0,0,7,-4,11,-13c0,0,5,-9,7,-23c0,0,1,-15,1,-36c0,0,0,-43,-8,-61c0,0,-8,-17,-26,-17Z" 
id="f0_oj"
transform="scale(0.001,-0.001)" />

<path d="M121,-4c0,0,-39,0,-60,2C61,-2,39,0,32,8c0,0,-8,8,-3,24c0,0,4,15,18,41L279,495L64,892c0,0,-14,26,-19,42c0,0,-5,17,4,24c0,0,9,8,32,10c0,0,23,2,65,2c0,0,35,0,56,-2c0,0,20,-1,32,-4c0,0,12,-4,17,-10c0,0,5,-6,9,-15L431,620L595,939c0,0,5,9,10,15c0,0,5,6,16,10c0,0,10,3,29,4c0,0,19,2,53,2c0,0,37,0,59,-2c0,0,22,-2,30,-10c0,0,8,-8,4,-24c0,0,-4,-16,-17,-42L564,497L793,73c0,0,14,-26,18,-41c0,0,4,-16,-5,-24c0,0,-9,-8,-32,-10c0,0,-24,-2,-65,-2c0,0,-36,0,-56,2c0,0,-20,1,-31,3c0,0,-12,4,-17,10c0,0,-5,6,-9,15L414,374L233,26c0,0,-4,-9,-9,-15c0,0,-6,-6,-17,-10c0,0,-12,-2,-32,-3c0,0,-21,-2,-54,-2Z" 
id="f0_3e"
transform="scale(0.001,-0.001)" />

<path d="M204,-4c0,0,-28,0,-47,2c0,0,-19,2,-31,5c0,0,-11,4,-16,10c0,0,-4,6,-4,13V939c0,0,0,7,4,13c0,0,5,6,17,10c0,0,11,3,30,6c0,0,19,2,47,2c0,0,29,0,48,-2c0,0,18,-3,29,-6c0,0,11,-4,16,-10c0,0,5,-6,5,-13V26c0,0,0,-7,-5,-13c0,0,-5,-6,-16,-10c0,0,-11,-3,-29,-5c0,0,-19,-2,-48,-2Z" 
id="f0_1c"
transform="scale(0.001,-0.001)" />

<path d="M127,0c0,0,-16,0,-28,3C99,3,87,6,80,15c0,0,-8,8,-11,25c0,0,-3,16,-3,42c0,0,0,25,2,42c0,0,2,18,8,32c0,0,6,14,15,27c0,0,9,13,24,29L282,390c0,0,50,53,81,95c0,0,30,43,47,79c0,0,17,35,24,65c0,0,6,30,6,57c0,0,0,24,-8,46c0,0,-8,22,-23,39c0,0,-15,16,-38,25c0,0,-23,10,-55,10c0,0,-44,0,-78,-12c0,0,-33,-11,-59,-25c0,0,-26,-13,-43,-25c0,0,-17,-12,-27,-12c0,0,-7,0,-11,5c0,0,-5,4,-8,15c0,0,-3,10,-5,28c0,0,-2,17,-2,42c0,0,0,18,1,29c0,0,1,12,4,20c0,0,2,9,6,15c0,0,3,6,13,15c0,0,9,9,34,23c0,0,25,14,61,27c0,0,37,14,81,23c0,0,44,9,92,9c0,0,75,0,131,-19c0,0,57,-19,94,-53c0,0,37,-34,55,-81c0,0,19,-47,19,-100c0,0,0,-47,-9,-93c0,0,-9,-45,-37,-98c0,0,-29,-52,-80,-116c0,0,-52,-64,-136,-148L299,159H679c0,0,8,0,14,-4c0,0,6,-5,11,-14c0,0,4,-9,7,-25c0,0,2,-15,2,-36c0,0,0,-22,-2,-37c0,0,-2,-15,-6,-25c0,0,-3,-10,-9,-14c0,0,-6,-4,-14,-4Z" 
id="f0_rz"
transform="scale(0.001,-0.001)" />

<path d="M385,138c0,0,29,0,52,9c0,0,22,10,39,28c0,0,17,19,28,47c0,0,11,29,19,66c0,0,7,37,9,84c0,0,3,47,3,104c0,0,0,69,-4,122c0,0,-4,52,-11,91c0,0,-8,39,-20,66c0,0,-12,27,-28,43c0,0,-16,16,-37,22c0,0,-21,7,-47,7c0,0,-44,0,-73,-21c0,0,-28,-21,-45,-64c0,0,-17,-42,-24,-106c0,0,-6,-63,-6,-148c0,0,0,-103,8,-171c0,0,8,-67,26,-107c0,0,17,-40,45,-56c0,0,27,-16,66,-16ZM378,-17c0,0,-99,0,-164,33c0,0,-65,34,-103,98c0,0,-38,64,-54,156c0,0,-15,92,-15,209c0,0,0,115,19,208c0,0,19,94,61,160c0,0,42,65,110,101c0,0,68,35,165,35c0,0,99,0,164,-34c0,0,65,-34,103,-98c0,0,39,-64,53,-156c0,0,15,-92,15,-209c0,0,0,-115,-18,-209c0,0,-19,-93,-61,-159C653,118,611,53,543,17c0,0,-67,-34,-165,-34Z" 
id="f0_rx"
transform="scale(0.001,-0.001)" />

<path d="M142,0c0,0,-6,0,-12,4c0,0,-5,3,-9,12c0,0,-4,9,-6,23c0,0,-3,15,-3,36c0,0,0,21,2,36c0,0,2,14,6,23c0,0,4,9,10,13c0,0,5,5,12,5H322V779L166,693c0,0,-17,-8,-28,-10c0,0,-1,0,-3,0c-4,0,-10,1,-14,5c0,0,-6,6,-8,22c0,0,-2,15,-2,44c0,0,0,18,0,29c0,0,1,12,4,20c0,0,3,8,8,14c0,0,5,5,14,11L345,962c0,0,4,3,9,5c0,0,6,2,15,3c0,0,9,1,23,2c0,0,15,0,38,0c0,0,28,0,46,-1c0,0,17,-1,26,-4c0,0,9,-3,12,-7c0,0,3,-4,3,-11V152H675c0,0,7,0,12,-5c0,0,6,-4,10,-13c0,0,4,-9,6,-23c0,0,2,-15,2,-36c0,0,0,-21,-2,-36c0,0,-3,-14,-7,-23c0,0,-4,-9,-9,-12c0,0,-5,-4,-12,-4Z" 
id="f0_ry"
transform="scale(0.001,-0.001)" />

<path d="M259,-4c0,0,-39,0,-62,3c0,0,-23,1,-34,7c0,0,-11,6,-12,14c0,0,-1,9,5,21L498,796H92c0,0,-16,0,-24,20c0,0,-7,21,-7,65c0,0,0,22,2,38c0,0,2,16,6,27c0,0,4,10,10,15c0,0,6,4,13,4H666c0,0,13,0,22,-3c0,0,9,-2,14,-11c0,0,6,-9,8,-25c0,0,3,-17,3,-43c0,0,0,-22,-2,-38c0,0,-1,-16,-4,-30c0,0,-2,-13,-7,-26c0,0,-4,-12,-10,-26L372,26c0,0,-5,-10,-12,-16c0,0,-7,-6,-20,-9c0,0,-12,-3,-32,-4c0,0,-20,-1,-49,-1Z" 
id="f0_s4"
transform="scale(0.001,-0.001)" />

<path d="M589,371L453,782h-1L317,371ZM106,-4c0,0,-35,0,-54,2C52,-2,32,0,25,8c0,0,-7,9,-5,24c0,0,2,16,11,42L329,931c0,0,4,13,10,21c0,0,6,7,19,12c0,0,13,4,36,5c0,0,23,1,61,1c0,0,44,0,71,-1c0,0,26,-1,40,-5c0,0,15,-5,21,-13c0,0,6,-8,11,-22L896,73c0,0,9,-27,11,-43c0,0,3,-15,-6,-23c0,0,-8,-7,-29,-9c0,0,-21,-2,-57,-2c0,0,-38,0,-59,1c0,0,-22,1,-33,4c0,0,-11,3,-16,9c0,0,-4,6,-7,16L635,220H272L211,31c0,0,-2,-11,-7,-18c0,0,-5,-7,-16,-11c0,0,-11,-3,-31,-4c0,0,-19,-2,-51,-2Z" 
id="f0_5"
transform="scale(0.001,-0.001)" />

<path d="M198,-4c0,0,-27,0,-45,2c0,0,-18,2,-28,5c0,0,-11,4,-15,10c0,0,-4,6,-4,13V887c0,0,0,38,20,58c0,0,20,20,53,20H308c0,0,34,0,59,-6c0,0,24,-5,42,-18c0,0,18,-13,30,-35c0,0,12,-21,21,-52L669,279h3L889,852c0,0,9,32,21,53c0,0,11,22,27,35c0,0,15,14,36,19c0,0,21,6,48,6h132c0,0,21,0,35,-5c0,0,15,-5,24,-15c0,0,9,-11,14,-25c0,0,5,-15,5,-33V26c0,0,0,-7,-4,-13c0,0,-4,-6,-15,-10c0,0,-11,-3,-29,-5c0,0,-18,-2,-45,-2c0,0,-27,0,-45,2c0,0,-18,2,-28,5c0,0,-11,4,-15,10c0,0,-5,6,-5,13V813h-1L764,27c0,0,-3,-10,-10,-16c0,0,-6,-6,-18,-10c0,0,-12,-3,-29,-4c0,0,-18,-1,-44,-1c0,0,-25,0,-43,2c0,0,-18,2,-29,5c0,0,-12,4,-19,10c0,0,-6,6,-9,14L293,813h-2V26c0,0,0,-7,-4,-13c0,0,-4,-6,-15,-10c0,0,-11,-3,-29,-5c0,0,-17,-2,-45,-2Z" 
id="f0_1x"
transform="scale(0.001,-0.001)" />

<path d="M193,-4c0,0,-26,0,-43,2c0,0,-18,2,-27,6c0,0,-10,4,-14,10c0,0,-3,6,-3,13V895c0,0,0,35,20,53c0,0,21,17,50,17H282c0,0,28,0,47,-5c0,0,20,-5,35,-16c0,0,15,-11,29,-31c0,0,13,-20,27,-49L608,511c0,0,17,-32,33,-63c0,0,16,-31,31,-62c0,0,14,-31,29,-60c0,0,14,-30,27,-60h1c0,0,-2,52,-3,109c0,0,-1,57,-1,108V936c0,0,0,7,4,13c0,0,5,6,15,11c0,0,10,4,28,6c0,0,17,2,44,2c0,0,25,0,42,-2c0,0,17,-2,27,-6c0,0,9,-5,13,-11c0,0,4,-6,4,-13V68c0,0,0,-17,-6,-30c0,0,-6,-14,-17,-23C879,15,869,6,856,2c0,0,-14,-3,-28,-3H744c0,0,-26,0,-45,4c0,0,-19,5,-35,19c0,0,-16,14,-31,38c0,0,-15,23,-34,60L359,572c0,0,-21,40,-43,86c0,0,-21,47,-38,91h-2c0,0,3,-54,5,-107c0,0,2,-53,2,-110V27c0,0,0,-7,-5,-13c0,0,-4,-6,-14,-10c0,0,-10,-4,-27,-6c0,0,-17,-2,-44,-2Z" 
id="f0_1y"
transform="scale(0.001,-0.001)" />

<path d="M378,-4c0,0,-28,0,-47,2c0,0,-19,2,-31,5c0,0,-11,4,-16,10c0,0,-4,6,-4,13V805H38c0,0,-8,0,-13,4c0,0,-5,5,-9,14c0,0,-3,9,-5,25c0,0,-2,15,-2,37c0,0,0,22,2,38c0,0,2,15,5,25c0,0,4,9,9,13c0,0,5,4,13,4H718c0,0,7,0,12,-4c0,0,6,-4,10,-13c0,0,3,-10,5,-25c0,0,2,-16,2,-38c0,0,0,-22,-2,-37c0,0,-2,-16,-5,-25c0,0,-4,-9,-10,-14c0,0,-5,-4,-12,-4H476V26c0,0,0,-7,-5,-13c0,0,-5,-6,-16,-10c0,0,-11,-3,-30,-5c0,0,-19,-2,-47,-2Z" 
id="f0_2t"
transform="scale(0.001,-0.001)" />

<path d="M514,145c0,0,72,0,121,27c0,0,48,26,78,73c0,0,30,46,42,107c0,0,13,62,13,131c0,0,0,76,-12,139c0,0,-12,62,-41,106c0,0,-29,45,-76,69c0,0,-48,24,-120,24c0,0,-72,0,-120,-27c0,0,-49,-27,-79,-73c0,0,-29,-45,-42,-106c0,0,-12,-61,-12,-129c0,0,0,-79,12,-142c0,0,12,-63,40,-108c0,0,28,-44,76,-68c0,0,48,-23,120,-23ZM508,-17c0,0,-113,0,-196,29c0,0,-84,29,-140,90c0,0,-56,60,-84,154c0,0,-28,93,-28,221c0,0,0,117,29,210c0,0,30,94,89,160c0,0,59,65,146,101c0,0,87,35,202,35c0,0,110,0,194,-29c0,0,84,-30,140,-90c0,0,56,-60,85,-153c0,0,29,-92,29,-217c0,0,0,-120,-30,-215c0,0,-30,-95,-89,-161C855,118,796,52,709,17c0,0,-87,-34,-201,-34Z" 
id="f0_24"
transform="scale(0.001,-0.001)" />

<path d="M407,475c0,0,61,0,105,44c0,0,44,43,44,103c0,0,0,64,-43,108c0,0,-44,43,-109,43c0,0,-57,0,-99,-44c0,0,-42,-45,-42,-107c0,0,0,-62,42,-104c0,0,42,-43,102,-43ZM195,0L430,323c0,0,-67,-8,-85,-8c0,0,-126,0,-212,92c0,0,-87,92,-87,227c0,0,0,141,107,237c0,0,106,96,264,96c0,0,151,0,246,-97c0,0,95,-96,95,-250c0,0,0,-112,-56,-223c0,0,-55,-112,-94,-168L448,0Z" 
id="f1_t"
transform="scale(0.001,-0.001)" />

<path d="M44,-281L425,1053H537L156,-281Z" 
id="f1_j"
transform="scale(0.001,-0.001)" />

<path d="M75,0L400,413c0,0,71,91,101,149c0,0,30,58,30,109c0,0,0,55,-36,91c0,0,-36,36,-91,36c0,0,-63,0,-91,-45c0,0,-28,-46,-34,-142H67c0,0,0,173,102,268c0,0,102,95,253,95c0,0,140,0,229,-82c0,0,89,-82,89,-209c0,0,0,-125,-104,-276L580,324c0,0,-34,-50,-85,-114L468,178H740V0Z" 
id="f1_m"
transform="scale(0.001,-0.001)" />

<path d="M67,0V109L206,235c0,0,133,118,196,190c0,0,63,72,90,149c0,0,27,77,27,177c0,0,0,97,-44,148c0,0,-44,50,-144,50c0,0,-39,0,-81,-10c0,0,-42,-11,-74,-29L150,787H101V980c0,0,135,32,230,32c0,0,164,0,247,-68c0,0,82,-69,82,-193c0,0,0,-84,-32,-158c0,0,-33,-75,-100,-148c0,0,-67,-74,-222,-206c0,0,-67,-57,-141,-125H680V0Z" 
id="f2_m"
transform="scale(0.001,-0.001)" />

<path d="M350,-14c0,0,-142,0,-269,31L73,228h49L156,87c0,0,29,-16,82,-28c0,0,54,-12,100,-12c0,0,117,0,173,54c0,0,56,53,56,178c0,0,0,99,-52,150c0,0,-51,51,-159,56l-107,6v61l107,7c0,0,84,5,124,52c0,0,41,48,41,145c0,0,0,101,-44,147c0,0,-44,45,-139,45c0,0,-40,0,-83,-10c0,0,-43,-11,-76,-29L153,786H104V979c0,0,74,19,127,26c0,0,54,6,107,6c0,0,321,0,321,-246c0,0,0,-104,-57,-165c0,0,-57,-62,-162,-77c0,0,136,-16,200,-78c0,0,64,-62,64,-173c0,0,0,-135,-92,-211c0,0,-93,-75,-262,-75Z" 
id="f2_n"
transform="scale(0.001,-0.001)" />

<path d="M134,0V40L339,60V876L137,804v39l292,166h39V60L672,40V0Z" 
id="f2_l"
transform="scale(0.001,-0.001)" />

<path d="M460,-325c0,0,-148,79,-231,172c0,0,-84,93,-123,217c0,0,-39,126,-39,304c0,0,0,178,39,303c0,0,39,125,122,217c0,0,82,93,232,172V997c0,0,-91,-52,-145,-134c0,0,-54,-81,-79,-190c0,0,-25,-109,-25,-305c0,0,0,-194,26,-309c0,0,26,-114,82,-193c0,0,56,-79,141,-128v-63Z" 
id="f2_c"
transform="scale(0.001,-0.001)" />

<path d="M476,327V830h-4L114,327ZM476,0V220H30v99l488,686h86V327H740V220H604V0Z" 
id="f2_o"
transform="scale(0.001,-0.001)" />

<path d="M49,-325v63c0,0,85,49,140,128c0,0,56,79,83,194c0,0,26,115,26,308c0,0,0,196,-25,305c0,0,-25,109,-79,190c0,0,-54,82,-145,134v63c0,0,149,-80,232,-172c0,0,83,-92,122,-217c0,0,39,-125,39,-303c0,0,0,-177,-39,-303c0,0,-39,-125,-122,-217c0,0,-83,-93,-232,-173Z" 
id="f2_d"
transform="scale(0.001,-0.001)" />

<path d="M631,416L539,902L283,416ZM576,0l8,40L691,60L643,348H249L96,60L197,40L189,0H-83l8,40L7,60l509,949H659L845,60L938,40L930,0Z" 
id="f3_11"
transform="scale(0.001,-0.001)" />

<path d="M200,-14c0,0,-59,0,-93,35c0,0,-34,36,-34,100c0,0,0,22,4,51c0,0,4,30,82,467H67l6,33l99,29L275,860h47L295,701H455L443,639H283L210,230c0,0,-13,-69,-13,-99c0,0,0,-34,17,-51c0,0,17,-16,43,-16c0,0,54,0,113,21L386,50c0,0,-92,-64,-186,-64Z" 
id="f3_2g"
transform="scale(0.001,-0.001)" />

<path d="M459,63c0,0,143,0,210,55c0,0,67,56,67,185c0,0,0,101,-66,146c0,0,-66,46,-190,46H341L266,67c0,0,114,-4,193,-4Zm18,499c0,0,144,0,206,49c0,0,61,48,61,170c0,0,0,77,-48,115c0,0,-48,37,-160,37H419L353,562ZM459,-4L173,0H14l8,40l99,20L277,941L151,960l8,40H570c0,0,330,0,330,-210c0,0,0,-105,-66,-174c0,0,-66,-69,-184,-85c0,0,115,-9,179,-69c0,0,63,-59,63,-157c0,0,0,-160,-108,-235C784,70,675,-4,459,-4Z" 
id="f3_12"
transform="scale(0.001,-0.001)" />

<path d="M521,-14c0,0,-205,0,-320,107C201,93,85,200,85,390c0,0,0,185,77,326c0,0,77,142,220,219c0,0,142,76,324,76c0,0,158,0,327,-38L1000,755H951V884c0,0,-46,32,-112,50c0,0,-65,17,-137,17c0,0,-135,0,-242,-72c0,0,-107,-72,-166,-203c0,0,-60,-132,-60,-301c0,0,0,-160,78,-244c0,0,78,-84,222,-84c0,0,85,0,166,25c0,0,82,26,133,65l53,149h49L889,52C889,52,803,20,705,3c0,0,-99,-17,-184,-17Z" 
id="f3_13"
transform="scale(0.001,-0.001)" />

<path d="M463,65c0,0,220,0,340,135c0,0,121,135,121,385c0,0,0,348,-385,348H419L266,70c0,0,120,-5,197,-5Zm6,-67L110,0H-16l7,40L121,60L276,941L151,960l7,40H585c0,0,241,0,368,-105c0,0,127,-106,127,-304c0,0,0,-179,-75,-314c0,0,-75,-136,-214,-208C791,69,653,-2,469,-2Z" 
id="f3_14"
transform="scale(0.001,-0.001)" />

<path d="M355,0V355H0v72H355V784h72V427H782V355H427V0Z" 
id="f4_f"
transform="scale(0.001,-0.001)" />

<path d="M0,214v74H784V214ZM0,494v72H784V494Z" 
id="f4_x"
transform="scale(0.001,-0.001)" />

<path d="M377,45c0,0,99,0,145,108c0,0,46,109,46,352c0,0,0,240,-45,345c0,0,-46,106,-146,106c0,0,-97,0,-139,-100c0,0,-43,-99,-43,-351c0,0,0,-254,44,-357c0,0,43,-103,138,-103Zm0,-59c0,0,-158,0,-238,132c0,0,-81,133,-81,386c0,0,0,249,81,380c0,0,80,132,244,132c0,0,159,0,241,-130c0,0,82,-130,82,-382c0,0,0,-518,-329,-518Z" 
id="f2_k"
transform="scale(0.001,-0.001)" />

<path d="M945,-20c0,0,47,75,125,153H57v74H1147l108,91c0,0,23,19,95,72c0,0,-134,103,-203,166H57v72H1070c0,0,-78,78,-125,154h85c0,0,88,-107,217,-217c0,0,130,-110,206,-154V349c0,0,-101,-58,-219,-162c0,0,-118,-103,-204,-207Z" 
id="f4_4g"
transform="scale(0.001,-0.001)" />

<path d="M0,356v74H784V356Z" 
id="f4_h"
transform="scale(0.001,-0.001)" />

<path d="M536,63c0,0,127,0,191,54c0,0,63,54,63,168c0,0,0,105,-70,154c0,0,-70,49,-225,49H316V67c0,0,103,-4,220,-4ZM480,555c0,0,121,0,178,48c0,0,57,48,57,155c0,0,0,91,-58,133c0,0,-57,42,-186,42H316V555ZM554,-4L235,0H44V40L172,60V941L44,960v40H501c0,0,191,0,279,-56c0,0,88,-56,88,-179c0,0,0,-88,-55,-149c0,0,-54,-62,-151,-83c0,0,135,-14,209,-79c0,0,73,-65,73,-166c0,0,0,-144,-99,-219C845,69,745,-4,554,-4Z" 
id="f2_12"
transform="scale(0.001,-0.001)" />

<path d="M148,-329c0,0,-58,0,-114,13v151H69l24,-71c0,0,23,-17,64,-17c0,0,39,0,72,22c0,0,33,23,60,67c0,0,27,44,68,157L90,649L19,668v33H344V668L233,648L423,158L606,649L497,668v33H758V668L685,652L411,-43c0,0,-48,-124,-84,-177c0,0,-36,-54,-79,-82c0,0,-44,-27,-100,-27Z" 
id="f2_2l"
transform="scale(0.001,-0.001)" />

<path d="M278,-14c0,0,-52,0,-115,11c0,0,-63,10,-99,23V193H98L134,95c0,0,56,-50,146,-50c0,0,144,0,144,123c0,0,0,91,-114,130l-66,21c0,0,-75,25,-110,50c0,0,-34,26,-53,63c0,0,-18,36,-18,89c0,0,0,92,63,145c0,0,63,54,170,54c0,0,77,0,193,-23V544H454l-32,81c0,0,-39,35,-124,35c0,0,-61,0,-92,-30c0,0,-32,-30,-32,-80c0,0,0,-43,29,-72c0,0,28,-29,86,-48c0,0,110,-38,144,-55c0,0,33,-17,57,-42c0,0,23,-25,36,-57c0,0,13,-32,13,-79c0,0,0,-104,-66,-158c0,0,-66,-53,-195,-53Z" 
id="f2_2f"
transform="scale(0.001,-0.001)" />

<path d="M377,45c0,0,99,0,147,73c0,0,47,73,47,237c0,0,0,161,-47,233c0,0,-47,72,-147,72c0,0,-97,0,-141,-69c0,0,-44,-69,-44,-236c0,0,0,-169,45,-240c0,0,44,-70,140,-70Zm0,-59c0,0,-158,0,-238,94c0,0,-81,95,-81,274c0,0,0,178,81,272c0,0,80,94,244,94c0,0,160,0,241,-92c0,0,82,-92,82,-274c0,0,0,-368,-329,-368Z" 
id="f2_2b"
transform="scale(0.001,-0.001)" />

<path d="M31,0V33L150,52v956L31,1026v34H274V52L394,33V0Z" 
id="f2_28"
transform="scale(0.001,-0.001)" />

<path d="M360,-14L72,649L0,668v33H327V668L216,648L420,164L615,649L504,668v33H764V668L697,652L416,-14Z" 
id="f2_2i"
transform="scale(0.001,-0.001)" />

<path d="M32,0V33L151,52V649L52,668v33H275V52L395,33V0ZM201,850c0,0,-32,0,-56,24c0,0,-24,24,-24,56c0,0,0,34,24,58c0,0,24,24,56,24c0,0,34,0,58,-24c0,0,24,-24,24,-58c0,0,0,-32,-24,-56c0,0,-24,-24,-58,-24Z" 
id="f2_25"
transform="scale(0.001,-0.001)" />

<path d="M439,0V33l93,19V500c0,0,0,62,-30,97c0,0,-31,36,-94,36c0,0,-67,0,-165,-22V52L338,33V0H35V33l84,19V649L35,668v33H235l7,-57c0,0,57,33,122,54c0,0,65,22,108,22c0,0,91,0,137,-53c0,0,47,-53,47,-154V52L741,33V0Z" 
id="f2_2a"
transform="scale(0.001,-0.001)" />

<path d="M359,-270c0,0,124,0,192,46c0,0,67,47,67,129c0,0,0,43,-26,67c0,0,-26,24,-79,24H242c0,0,-32,-27,-51,-69c0,0,-20,-41,-20,-77c0,0,0,-64,46,-92c0,0,46,-28,142,-28Zm11,561c0,0,81,0,115,47c0,0,34,47,34,141c0,0,0,100,-35,142c0,0,-35,42,-113,42c0,0,-78,0,-114,-43c0,0,-37,-42,-37,-141c0,0,0,-98,36,-143c0,0,36,-45,114,-45ZM359,-329c0,0,-143,0,-218,44c0,0,-75,43,-75,125c0,0,0,39,27,78c0,0,26,38,98,89c0,0,-43,14,-72,48c0,0,-29,35,-29,74L208,262c0,0,-118,55,-118,217c0,0,0,115,73,178c0,0,73,63,211,63c0,0,28,0,71,-6c0,0,44,-6,67,-13l165,83l26,-32L599,644c0,0,50,-56,50,-165c0,0,0,-120,-72,-182c0,0,-73,-62,-208,-62c0,0,-62,0,-114,11L208,148c0,0,2,-13,29,-24c0,0,27,-12,67,-12H512c0,0,113,0,168,-49c0,0,55,-49,55,-134c0,0,0,-79,-44,-137c0,0,-43,-58,-128,-90c0,0,-84,-31,-204,-31Z" 
id="f2_23"
transform="scale(0.001,-0.001)" />

<path d="M327,-14L84,649L1,668v33H335V668L219,648L385,174L554,632h63L786,171L944,649L830,668v33h267V668l-78,-16L784,-14H726L553,448L382,-14Z" 
id="f2_2j"
transform="scale(0.001,-0.001)" />

<path d="M495,413c0,0,0,133,-34,190c0,0,-34,57,-105,57c0,0,-78,0,-119,-63c0,0,-42,-62,-42,-184ZM374,-14c0,0,-163,0,-239,87c0,0,-75,88,-75,283c0,0,0,183,77,273c0,0,76,91,219,91c0,0,269,0,269,-306V353H194V340c0,0,0,-103,23,-160c0,0,22,-57,70,-87c0,0,47,-29,124,-29c0,0,40,0,96,6c0,0,55,7,91,15V43C598,43,562,20,500,3c0,0,-61,-17,-126,-17Z" 
id="f2_21"
transform="scale(0.001,-0.001)" />

<path d="M249,-14c0,0,-71,0,-107,42c0,0,-35,42,-35,119V639H15v33l93,29l76,159h47V701H391V639H231V161c0,0,0,-48,22,-73c0,0,22,-24,57,-24c0,0,44,0,106,12V26C416,26,389,8,340,-2c0,0,-49,-12,-91,-12Z" 
id="f2_2g"
transform="scale(0.001,-0.001)" />

<path d="M681,416L504,902L333,416ZM669,0V40L803,60L704,348H310L210,60L344,40V0H15V40L128,60l341,949H611L965,60L1092,40V0Z" 
id="f2_11"
transform="scale(0.001,-0.001)" />

<path d="M76,316v76H787V316Zm0,306v76H787V622Z" 
id="f2_x"
transform="scale(0.001,-0.001)" />

<path d="M58,-234v58c0,0,131,42,131,125c0,0,0,15,-11,27c0,0,-11,12,-38,25C140,1,89,27,89,75c0,0,0,40,25,61c0,0,26,21,65,21c0,0,48,0,77,-34c0,0,30,-34,30,-86c0,0,0,-101,-60,-170c0,0,-59,-69,-168,-101Z" 
id="f2_g"
transform="scale(0.001,-0.001)" />

<path d="M350,-14c0,0,-142,0,-253,31L89,228h49L172,87c0,0,32,-18,78,-29c0,0,46,-11,88,-11c0,0,118,0,173,56c0,0,56,55,56,187c0,0,0,93,-24,140c0,0,-24,47,-76,70c0,0,-52,22,-140,22c0,0,-68,0,-133,-18H122v496H630V886H189V567c0,0,81,18,173,18c0,0,173,0,258,-71c0,0,84,-71,84,-216c0,0,0,-151,-92,-232c0,0,-91,-80,-262,-80Z" 
id="f2_p"
transform="scale(0.001,-0.001)" />

<path d="M392,152V469H76v77H392V863h77V546H787V469H469V152Z" 
id="f2_f"
transform="scale(0.001,-0.001)" />

<path d="M-5,0L0,40L131,60L286,941L162,960l6,40H568l-6,-40L430,941L275,60L399,40L393,0Z" 
id="f3_19"
transform="scale(0.001,-0.001)" />

<path d="M301,78c0,0,41,0,90,27c0,0,49,28,95,77l81,442c0,0,-26,18,-54,27c0,0,-27,10,-67,10c0,0,-70,0,-131,-55c0,0,-61,-55,-99,-152c0,0,-37,-97,-37,-201c0,0,0,-79,33,-127c0,0,33,-48,89,-48ZM245,-14c0,0,-91,0,-145,68c0,0,-54,69,-54,183c0,0,0,128,55,240c0,0,55,112,150,177c0,0,96,66,210,66c0,0,70,0,123,-18c0,0,3,36,51,306l-115,18l6,34H768L589,52L673,33L667,0H454l22,117C476,117,350,-14,245,-14Z" 
id="f3_20"
transform="scale(0.001,-0.001)" />

<path d="M83,0C83,0,48,0,24,24C24,24,0,49,0,83c0,0,0,34,24,58c0,0,24,24,59,24c0,0,34,0,58,-24c0,0,24,-24,24,-58c0,0,0,-34,-24,-59C141,24,117,0,83,0ZM695,0c0,0,-34,0,-58,24c0,0,-25,25,-25,59c0,0,0,34,25,58c0,0,24,24,58,24c0,0,34,0,58,-24c0,0,24,-24,24,-58c0,0,0,-34,-24,-59C753,24,729,0,695,0ZM388,594c0,0,-34,0,-59,23c0,0,-24,24,-24,59c0,0,0,34,24,58c0,0,25,25,59,25c0,0,34,0,58,-25c0,0,24,-24,24,-58c0,0,0,-35,-24,-59c0,0,-24,-23,-58,-23Z" 
id="f4_1s"
transform="scale(0.001,-0.001)" />

<path d="M52,62L0,114L278,390L0,667l52,52L330,442L608,719l51,-51L382,390L659,114L608,62L330,338L52,62Z" 
id="f4_3a"
transform="scale(0.001,-0.001)" />

<path d="M88,-163c0,0,-39,0,-63,25c0,0,-25,26,-25,65c0,0,0,34,19,54c0,0,19,19,48,19c0,0,30,0,51,-23c0,0,22,-24,37,-24c0,0,12,0,21,11c0,0,8,10,8,35c0,0,0,30,-7,88c0,0,-27,235,-27,620c0,0,13,411,17,446c0,0,17,139,60,188c0,0,43,48,98,48c0,0,37,0,65,-25c0,0,28,-25,28,-54c0,0,0,-35,-19,-57c0,0,-20,-21,-49,-21c0,0,-26,0,-57,27c0,0,-17,15,-30,15c0,0,-12,0,-21,-11c0,0,-8,-11,-8,-37c0,0,0,-31,6,-108c0,0,28,-306,28,-496c0,0,0,-50,-12,-439c0,0,-6,-219,-67,-296c0,0,-41,-50,-101,-50Z" 
id="f4_50"
transform="scale(0.001,-0.001)" />

<path d="M284,67c0,0,51,0,88,12c0,0,37,12,74,30V358l-98,-3c0,0,-100,-4,-135,-39c0,0,-35,-35,-35,-117c0,0,0,-132,106,-132ZM233,-14c0,0,-179,0,-179,208c0,0,0,70,27,116c0,0,27,46,87,70c0,0,60,24,173,27l105,3V519c0,0,0,72,-26,107c0,0,-27,34,-82,34c0,0,-75,0,-137,-35L176,538H134V691c0,0,121,26,213,26c0,0,115,0,169,-47c0,0,54,-47,54,-144V52L657,33V0H465L451,70c0,0,-85,-84,-218,-84Z" 
id="f2_1x"
transform="scale(0.001,-0.001)" />

<path d="M62,-123V268c0,0,0,230,56,452c0,0,47,190,134,334c0,0,87,144,204,242c0,0,85,73,194,119l18,-16c0,0,-211,-145,-335,-339c0,0,-98,-156,-149,-374c0,0,-50,-218,-50,-403V-123Z" 
id="f4_4o"
transform="scale(0.001,-0.001)" />

<path d="M617,-123V283c0,0,0,236,-63,459c0,0,-63,223,-188,392c0,0,-108,146,-282,265l17,16c0,0,180,-76,320,-248c0,0,139,-172,204,-417c0,0,64,-245,64,-482V-123Z" 
id="f4_54"
transform="scale(0.001,-0.001)" />

<path d="M62,-123V1415h72V-123Z" 
id="f4_4p"
transform="scale(0.001,-0.001)" />

<path d="M617,-123V1415h72V-123Z" 
id="f4_55"
transform="scale(0.001,-0.001)" />

<path d="M650,-123c0,0,-180,75,-319,246c0,0,-140,172,-205,418c0,0,-64,245,-64,481v393h72V1007c0,0,0,-236,63,-459c0,0,63,-223,189,-391c0,0,108,-145,282,-265l-18,-15Z" 
id="f4_4q"
transform="scale(0.001,-0.001)" />

<path d="M101,-123l-17,15c0,0,210,144,334,339c0,0,99,156,149,373c0,0,50,218,50,403v408h72V1022c0,0,0,-230,-56,-451c0,0,-48,-191,-134,-335C499,236,412,92,295,-5c0,0,-84,-73,-194,-118Z" 
id="f4_56"
transform="scale(0.001,-0.001)" />

<path d="M338,28c0,0,48,0,91,45c0,0,43,45,65,144c0,0,22,99,26,276H143c0,0,3,-133,20,-239c0,0,13,-80,44,-140c0,0,19,-36,54,-61c0,0,36,-25,77,-25ZM522,543c0,0,-1,194,-37,312c0,0,-29,90,-76,129c0,0,-34,28,-79,28c0,0,-51,0,-93,-39c0,0,-43,-40,-65,-132c0,0,-22,-93,-29,-298ZM329,-21c0,0,-68,0,-124,31c0,0,-56,33,-99,95c0,0,-43,62,-66,131C40,236,0,356,0,489c0,0,0,294,119,453c0,0,91,119,217,119c0,0,122,0,209,-115c0,0,121,-160,121,-436c0,0,0,-263,-119,-415C547,95,455,-21,329,-21Z" 
id="f4_2d"
transform="scale(0.001,-0.001)" />

<path d="M122,0V64L295,82V837L123,780v64l282,165H511V82L685,64V0Z" 
id="f5_l"
transform="scale(0.001,-0.001)" />

<path d="M160,0L581,834H186L152,715H87v285H727V941L338,0Z" 
id="f5_r"
transform="scale(0.001,-0.001)" />

<path d="M191,-20c0,0,-51,0,-88,34c0,0,-36,36,-36,88c0,0,0,52,36,88c0,0,36,36,88,36c0,0,51,0,88,-36c0,0,36,-36,36,-88c0,0,0,-51,-36,-87c0,0,-36,-35,-88,-35Z" 
id="f5_i"
transform="scale(0.001,-0.001)" />

<path d="M44,0V40L172,60V941L44,960v40H794V760H745L721,922c0,0,-83,11,-241,11H316V543H586l23,119h48V354H609L586,475H316V67H513c0,0,193,0,252,12l43,185h49L843,0Z" 
id="f2_15"
transform="scale(0.001,-0.001)" />

<path d="M289,-14c0,0,-179,0,-179,205V649L20,668v33H233V200c0,0,0,-128,120,-128c0,0,92,0,173,23V649L420,668v33H649V52L738,33V0H533l-6,57C527,57,474,28,405,7c0,0,-69,-21,-116,-21Z" 
id="f2_2h"
transform="scale(0.001,-0.001)" />

<path d="M211,-20c0,0,-39,0,-64,25c0,0,-26,27,-26,64c0,0,0,38,26,64c0,0,26,26,64,26c0,0,37,0,64,-25c0,0,26,-26,26,-65c0,0,0,-37,-26,-64c0,0,-26,-25,-64,-25Zm0,556c0,0,-38,0,-64,26c0,0,-26,26,-26,64c0,0,0,37,26,64c0,0,25,27,64,27c0,0,38,0,64,-27c0,0,26,-27,26,-64c0,0,0,-38,-26,-64c0,0,-27,-26,-64,-26Z" 
id="f2_u"
transform="scale(0.001,-0.001)" />

<path d="M399,-14c0,0,-341,0,-341,370c0,0,0,175,87,269c0,0,87,95,249,95c0,0,101,0,220,-23V501H573L541,625c0,0,-62,35,-149,35c0,0,-200,0,-200,-304c0,0,0,-158,61,-225c0,0,61,-67,189,-67c0,0,109,0,189,24V43C631,43,595,16,530,1c0,0,-64,-15,-131,-15Z" 
id="f2_1z"
transform="scale(0.001,-0.001)" />

<path d="M-6,0c0,0,-12,10,-12,32c0,0,0,21,23,51c0,0,23,31,79,82L287,354L159,649L79,668l6,33H270L378,434l93,88c0,0,47,46,67,72c0,0,19,26,19,44c0,0,0,8,-6,13c0,0,-7,6,-38,17l6,33H651c0,0,16,-12,16,-32c0,0,0,-44,-103,-142L404,377L548,49L634,33L628,0H437L313,298L185,176c0,0,-41,-40,-60,-65c0,0,-19,-26,-19,-48c0,0,0,-21,31,-29L131,0Z" 
id="f3_2k"
transform="scale(0.001,-0.001)" />

<path d="M140,-21c0,0,-26,0,-44,17C96,-4,79,13,79,40c0,0,0,19,6,33c0,0,8,20,34,55c0,0,46,60,64,126c0,0,32,114,41,321H190c0,0,-55,0,-81,-18c0,0,-44,-26,-80,-89H0c0,0,42,129,98,178c0,0,43,37,120,37H743V575H562c0,0,-27,-171,-27,-327c0,0,0,-77,27,-110c0,0,27,-33,67,-33c0,0,33,0,56,22c0,0,24,22,31,65h27C743,192,730,74,686,26c0,0,-44,-47,-98,-47c0,0,-58,0,-97,51c0,0,-39,53,-39,198c0,0,0,91,28,347H286c0,0,-23,-390,-56,-494c0,0,-33,-102,-90,-102Z" 
id="f4_2c"
transform="scale(0.001,-0.001)" />

<path d="M595,60c0,0,141,0,206,102c0,0,65,102,65,340c0,0,0,236,-65,335c0,0,-65,100,-206,100c0,0,-142,0,-207,-100c0,0,-66,-99,-66,-335c0,0,0,-239,66,-340c0,0,65,-102,207,-102Zm0,-74c0,0,-253,0,-387,130C208,116,75,246,75,501c0,0,0,510,520,510c0,0,256,0,387,-129c0,0,132,-130,132,-381c0,0,0,-254,-133,-385C981,116,848,-14,595,-14Z" 
id="f5_1f"
transform="scale(0.001,-0.001)" />

<path d="M498,506c0,0,115,0,164,47c0,0,48,48,48,166c0,0,0,112,-46,156c0,0,-46,43,-169,43H390V506ZM793,0L514,423H390V74L518,54V0H36V54L154,74V926L26,945v55H504c0,0,221,0,330,-68c0,0,109,-68,109,-212c0,0,0,-215,-201,-276L1009,74L1117,54V0Z" 
id="f5_1i"
transform="scale(0.001,-0.001)" />

<path d="M494,-203c0,0,-94,0,-145,57c0,0,-50,58,-50,161V235c0,0,0,87,-39,131c0,0,-39,44,-121,47v33c0,0,160,3,160,176V841c0,0,0,105,49,162c0,0,48,57,146,57H595v-35H548c0,0,-68,0,-96,-41c0,0,-29,-41,-29,-120V618c0,0,0,-71,-39,-122c0,0,-39,-51,-104,-65v-2c0,0,66,-16,105,-66c0,0,38,-50,38,-123V-8c0,0,0,-79,29,-120c0,0,28,-40,96,-40h47v-35Z" 
id="f2_2n"
transform="scale(0.001,-0.001)" />

<path d="M115,-329V1060h76V-329Z" 
id="f2_2o"
transform="scale(0.001,-0.001)" />

<path d="M139,-203v35h46c0,0,68,0,97,40c0,0,28,41,28,120V240c0,0,0,73,38,123c0,0,38,50,106,66v2c0,0,-66,14,-105,66c0,0,-39,51,-39,121V864c0,0,0,79,-28,120c0,0,-29,41,-97,41H139v35H240c0,0,97,0,146,-57c0,0,48,-57,48,-162V622c0,0,0,-173,161,-176V413c0,0,-81,-3,-121,-47c0,0,-40,-43,-40,-131V15c0,0,0,-103,-50,-161c0,0,-51,-57,-144,-57Z" 
id="f2_2p"
transform="scale(0.001,-0.001)" />

<path d="M410,-14c0,0,-86,0,-175,14C235,0,145,14,81,38V307h66L181,146c0,0,31,-37,94,-62c0,0,64,-24,132,-24c0,0,214,0,214,177c0,0,0,55,-41,93c0,0,-41,38,-128,68c0,0,-128,42,-185,68c0,0,-56,27,-95,63c0,0,-38,36,-62,87c0,0,-23,51,-23,125c0,0,0,132,90,201c0,0,90,69,263,69c0,0,125,0,278,-32V741H651L618,878c0,0,-76,56,-178,56c0,0,-92,0,-141,-34c0,0,-49,-34,-49,-104c0,0,0,-50,41,-86c0,0,41,-35,128,-63c0,0,171,-56,235,-97c0,0,64,-41,97,-103c0,0,34,-61,34,-143c0,0,0,-318,-375,-318Z" 
id="f5_1j"
transform="scale(0.001,-0.001)" />

<path d="M379,60c0,0,59,0,84,64c0,0,24,65,24,231c0,0,0,164,-24,227c0,0,-24,63,-84,63c0,0,-57,0,-80,-60c0,0,-22,-61,-22,-230c0,0,0,-173,23,-234c0,0,22,-61,79,-61Zm-2,-74c0,0,-161,0,-240,91c0,0,-79,91,-79,277c0,0,0,186,80,276c0,0,81,90,245,90c0,0,167,0,245,-93c0,0,78,-93,78,-273c0,0,0,-188,-81,-278c0,0,-81,-90,-248,-90Z" 
id="f5_2b"
transform="scale(0.001,-0.001)" />

<path d="M30,0V49l76,18V992l-72,18v50H322V67L398,49V0Z" 
id="f5_28"
transform="scale(0.001,-0.001)" />

<path d="M287,-18c0,0,-194,0,-194,206V634L23,652v49H309V217c0,0,0,-63,26,-98c0,0,27,-35,76,-35c0,0,57,0,113,25V634l-64,18v49H740V67L809,49V0H536L526,61L475,35c0,0,-104,-53,-188,-53Z" 
id="f5_2h"
transform="scale(0.001,-0.001)" />

<path d="M327,-14c0,0,-101,0,-156,45c0,0,-55,45,-55,131V624H25v48l108,29l87,159H332V701H480V624H332V176c0,0,0,-49,20,-73c0,0,20,-25,53,-25c0,0,40,0,97,12V26c0,0,-22,-15,-76,-27c0,0,-55,-13,-99,-13Z" 
id="f5_2g"
transform="scale(0.001,-0.001)" />

<path d="M34,0V49l76,18V634L38,652v49H325V67L402,49V0ZM217,831c0,0,-48,0,-81,33c0,0,-34,33,-34,82c0,0,0,48,34,81c0,0,34,33,81,33c0,0,48,0,81,-33c0,0,33,-33,33,-81c0,0,0,-47,-33,-81c0,0,-32,-34,-81,-34Z" 
id="f5_25"
transform="scale(0.001,-0.001)" />

<path d="M41,0V49l69,18V634L41,652v49H313l11,-61l50,26c0,0,105,54,188,54c0,0,194,0,194,-207V67L827,49V0H478V49l63,18V484c0,0,0,63,-27,98c0,0,-26,35,-75,35c0,0,-57,0,-114,-25V67L389,49V0Z" 
id="f5_2a"
transform="scale(0.001,-0.001)" />

<path d="M248,-20c0,0,-52,0,-87,34c0,0,-36,36,-36,88c0,0,0,52,36,88c0,0,35,36,87,36c0,0,52,0,88,-36c0,0,36,-36,36,-88c0,0,0,-51,-36,-87c0,0,-35,-35,-88,-35Zm0,488c0,0,-52,0,-87,36c0,0,-36,36,-36,88c0,0,0,52,35,88c0,0,35,36,88,36c0,0,53,0,89,-36c0,0,35,-37,35,-88c0,0,0,-51,-36,-87c0,0,-35,-37,-88,-37Z" 
id="f5_u"
transform="scale(0.001,-0.001)" />

<path d="M191,-20c0,0,-39,0,-65,25c0,0,-25,27,-25,64c0,0,0,38,26,64c0,0,26,26,64,26c0,0,38,0,64,-26c0,0,26,-26,26,-64c0,0,0,-37,-25,-64c0,0,-26,-25,-65,-25Z" 
id="f2_i"
transform="scale(0.001,-0.001)" />

<path d="M383,64c0,0,85,0,152,28V645c0,0,-67,13,-152,13c0,0,-194,0,-194,-314c0,0,0,-141,48,-211c0,0,48,-69,146,-69ZM342,-14c0,0,-287,0,-287,358c0,0,0,184,82,280c0,0,81,96,239,96c0,0,81,0,163,-18c0,0,-4,25,-4,124v182l-118,18v34H659V52L745,33V0H548l-9,52c0,0,-84,-66,-197,-66Z" 
id="f2_20"
transform="scale(0.001,-0.001)" />

<path d="M449,50c0,0,162,0,276,114L353,504c0,0,-78,-33,-114,-91c0,0,-35,-57,-35,-139c0,0,0,-108,63,-166c0,0,63,-58,182,-58ZM439,605c0,0,72,27,104,53c0,0,31,25,47,63c0,0,16,37,16,92c0,0,0,143,-135,143c0,0,-79,0,-113,-36c0,0,-34,-35,-34,-107c0,0,0,-121,115,-208ZM429,-14c0,0,-185,0,-278,71c0,0,-93,72,-93,209c0,0,0,72,27,124c0,0,27,52,73,89c0,0,46,37,146,75c0,0,-112,109,-112,244c0,0,0,107,71,162c0,0,72,56,208,56c0,0,130,0,198,-53c0,0,69,-53,69,-155c0,0,0,-58,-25,-101c0,0,-25,-42,-71,-75c0,0,-45,-32,-152,-74L805,272c0,0,72,147,77,271L776,563v39h341V563L1013,543c0,0,-57,-198,-145,-329L1038,59L1161,40V0H904L777,116C777,116,699,46,614,16c0,0,-84,-30,-185,-30Z" 
id="f2_a"
transform="scale(0.001,-0.001)" />


</defs>
</svg>