<?xml version="1.0" encoding="UTF-8" standalone="no"?>
<!DOCTYPE svg PUBLIC "-//W3C//DTD SVG 1.1//EN"
"http://www.w3.org/Graphics/SVG/1.1/DTD/svg11.dtd">
<svg viewBox="0 0 909 1286" version="1.1" xmlns="http://www.w3.org/2000/svg" xmlns:xlink="http://www.w3.org/1999/xlink">
<defs>
<clipPath id="c0_37"><path d="M55.2,316.3V162.7H195.1V316.3Z" /></clipPath>
<clipPath id="c1_37"><path d="M55.2,545.8V523.7h70.3v22.1Z" /></clipPath>
<clipPath id="c2_37"><path d="M55.2,655.8V560.4H258.6v95.4Z" /></clipPath>
<clipPath id="c3_37"><path d="M70.2,718.5V669.7h76.1v48.8Z" /></clipPath>
<clipPath id="c4_37"><path d="M55.2,781.9V733.2H133v48.7Z" /></clipPath>
<clipPath id="c5_37"><path d="M488.6,862.2V832.4H758v29.8Z" /></clipPath>
<clipPath id="c6_37"><path d="M55.2,894.1V864.3H155.3v29.8Z" /></clipPath>
<clipPath id="c7_37"><path d="M130,1011.4V981.7H238.7v29.7Z" /></clipPath>
<clipPath id="c8_37"><path d="M128.9,1055.4v-29.7H229v29.7Z" /></clipPath>
<clipPath id="c9_37"><path d="M55.2,1163.6v-93.5H204.4v93.5Z" /></clipPath>
<style type="text/css"><![CDATA[
.g0_37{
fill: #D9D9D9;
}
.g1_37{
fill: none;
stroke: #000000;
stroke-width: 0.7638889;
stroke-linecap: butt;
stroke-linejoin: miter;
}
.g2_37{
fill: none;
stroke: #000000;
stroke-width: 0.75816405;
stroke-linecap: butt;
stroke-linejoin: round;
}
.g3_37{
fill: none;
stroke: #000000;
stroke-width: 0.21257076;
stroke-linecap: square;
stroke-linejoin: round;
}
.g4_37{
}
.g5_37{
fill: none;
stroke: #000000;
stroke-width: 0.7817259;
stroke-linecap: butt;
stroke-linejoin: round;
}
.g6_37{
fill: none;
stroke: #000000;
stroke-width: 0.20874256;
stroke-linecap: square;
stroke-linejoin: round;
}
.g7_37{
fill: none;
stroke: #000000;
stroke-width: 0.7848813;
stroke-linecap: butt;
stroke-linejoin: round;
}
.g8_37{
fill: none;
stroke: #000000;
stroke-width: 0.20958513;
stroke-linecap: square;
stroke-linejoin: round;
}
]]></style>
</defs>
<image preserveAspectRatio="none" x="747" y="1196" width="96" height="59" xlink:href="img/1.png" />
<image preserveAspectRatio="none" x="336" y="41" width="259" height="51" xlink:href="img/2.png" />
<image preserveAspectRatio="none" x="342" y="50" width="247" height="27" xlink:href="img/3.png" />
<image preserveAspectRatio="none" x="341" y="45" width="239" height="42" xlink:href="img/4.png" />
<g fill="#FFFFFF" >
<use xlink:href="#f0_j" transform="matrix(11.5,0,0,11.5,355.1,70.1)" />
<use xlink:href="#f0_i" transform="matrix(11.5,0,0,11.5,364.3,70.1)" />
<use xlink:href="#f0_2n" transform="matrix(11.5,0,0,11.5,374.1,70.1)" />
<use xlink:href="#f0_t" transform="matrix(11.5,0,0,11.5,382.6,70.1)" />
<use xlink:href="#f0_oj" transform="matrix(11.5,0,0,11.5,391,70.1)" />
<use xlink:href="#f0_3e" transform="matrix(11.5,0,0,11.5,396.5,70.1)" />
<use xlink:href="#f0_1c" transform="matrix(11.5,0,0,11.5,406.1,70.1)" />
<use xlink:href="#f0_1c" transform="matrix(11.5,0,0,11.5,410.8,70.1)" />
<use xlink:href="#f0_oj" transform="matrix(11.5,0,0,11.5,415.6,70.1)" />
<use xlink:href="#f0_rz" transform="matrix(11.5,0,0,11.5,421.1,70.1)" />
<use xlink:href="#f0_rx" transform="matrix(11.5,0,0,11.5,429.9,70.1)" />
<use xlink:href="#f0_ry" transform="matrix(11.5,0,0,11.5,438.7,70.1)" />
<use xlink:href="#f0_s4" transform="matrix(11.5,0,0,11.5,447.5,70.1)" />
<use xlink:href="#f0_t" transform="matrix(11.5,0,0,11.5,460.4,70.1)" />
<use xlink:href="#f0_3e" transform="matrix(11.5,0,0,11.5,468.8,70.1)" />
<use xlink:href="#f0_5" transform="matrix(11.5,0,0,11.5,478.3,70.1)" />
<use xlink:href="#f0_1x" transform="matrix(11.5,0,0,11.5,489,70.1)" />
<use xlink:href="#f0_1c" transform="matrix(11.5,0,0,11.5,504.4,70.1)" />
<use xlink:href="#f0_1y" transform="matrix(11.5,0,0,11.5,509.1,70.1)" />
<use xlink:href="#f0_5" transform="matrix(11.5,0,0,11.5,520.8,70.1)" />
<use xlink:href="#f0_2t" transform="matrix(11.5,0,0,11.5,531.5,70.1)" />
<use xlink:href="#f0_1c" transform="matrix(11.5,0,0,11.5,540.2,70.1)" />
<use xlink:href="#f0_24" transform="matrix(11.5,0,0,11.5,545,70.1)" />
<use xlink:href="#f0_1y" transform="matrix(11.5,0,0,11.5,556.7,70.1)" />
</g>
<image preserveAspectRatio="none" x="554" y="45" width="36" height="42" xlink:href="img/5.png" />
<g fill="#FFFFFF" >
<use xlink:href="#f1_l" transform="matrix(11,0,0,11,770.3,1227.6)" />
<use xlink:href="#f1_m" transform="matrix(11,0,0,11,779.1,1227.6)" />
<use xlink:href="#f1_j" transform="matrix(11,0,0,11,792.3,1227.6)" />
<use xlink:href="#f1_m" transform="matrix(11,0,0,11,802.9,1227.6)" />
<use xlink:href="#f1_m" transform="matrix(11,0,0,11,811.7,1227.6)" />
</g>
<path fill-rule="evenodd" d="M52.8,1193.5H856.9v-.8H52.8v.8Z" class="g0_37" />
<path d="M37.9,99.4L873,98.5" class="g1_37" />
<g fill="#000000" >
<use xlink:href="#f2_1j" transform="matrix(12,0,0,12,55,144.1)" />
<use xlink:href="#f2_2b" transform="matrix(12,0,0,12,65.3,144.1)" />
<use xlink:href="#f2_28" transform="matrix(12,0,0,12,74.5,144.1)" />
<use xlink:href="#f2_2h" transform="matrix(12,0,0,12,79.2,144.1)" />
<use xlink:href="#f2_2g" transform="matrix(12,0,0,12,89.5,144.1)" />
<use xlink:href="#f2_25" transform="matrix(12,0,0,12,95.7,144.1)" />
<use xlink:href="#f2_2b" transform="matrix(12,0,0,12,100.8,144.1)" />
<use xlink:href="#f2_2a" transform="matrix(12,0,0,12,109.9,144.1)" />
<use xlink:href="#f2_u" transform="matrix(12,0,0,12,120.2,144.1)" />
</g>
<g clip-path="url(#c0_37)">
<g fill="#000000" >
<use xlink:href="#f3_5z" transform="matrix(12.1,0,0,12.2,184,179.5)" />
<use xlink:href="#f3_5z" transform="matrix(12.1,0,0,12.2,112.2,181)" />
<use xlink:href="#f3_5z" transform="matrix(12.1,0,0,12.2,148,181)" />
<use xlink:href="#f4_m" transform="matrix(12.1,0,0,12.2,135.7,185)" />
<use xlink:href="#f4_q" transform="matrix(12.1,0,0,12.2,171.4,185)" />
<use xlink:href="#f3_5z" transform="matrix(12.1,0,0,12.2,165.4,211.4)" />
<use xlink:href="#f3_5z" transform="matrix(12.1,0,0,12.2,111.9,212.8)" />
<use xlink:href="#f3_5z" transform="matrix(12.1,0,0,12.2,138.2,212.8)" />
<use xlink:href="#f4_m" transform="matrix(12.1,0,0,12.2,101.8,216.8)" />
<use xlink:href="#f3_5z" transform="matrix(12.1,0,0,12.2,170,243.2)" />
<use xlink:href="#f3_5z" transform="matrix(12.1,0,0,12.2,99.9,244.6)" />
<use xlink:href="#f3_5z" transform="matrix(12.1,0,0,12.2,134.5,244.6)" />
<use xlink:href="#f4_n" transform="matrix(12.1,0,0,12.2,122.8,248.6)" />
<use xlink:href="#f4_p" transform="matrix(12.1,0,0,12.2,157.7,248.6)" />
<use xlink:href="#f4_i" transform="matrix(12.1,0,0,12.2,82.3,279.9)" />
<use xlink:href="#f4_k" transform="matrix(12.1,0,0,12.2,127.3,279.9)" />
<use xlink:href="#f5_11" transform="matrix(12.1,0,0,12.2,59.4,185)" />
<use xlink:href="#f5_12" transform="matrix(12.1,0,0,12.2,70.5,185)" />
<use xlink:href="#f5_25" transform="matrix(12.1,0,0,12.2,110.9,185)" />
<use xlink:href="#f5_26" transform="matrix(12.1,0,0,12.2,148.5,185)" />
<use xlink:href="#f5_27" transform="matrix(12.1,0,0,12.2,180.8,185)" />
<use xlink:href="#f5_12" transform="matrix(12.1,0,0,12.2,58.5,216.8)" />
<use xlink:href="#f5_13" transform="matrix(12.1,0,0,12.2,69.7,216.8)" />
<use xlink:href="#f5_25" transform="matrix(12.1,0,0,12.2,110.6,216.8)" />
<use xlink:href="#f5_26" transform="matrix(12.1,0,0,12.2,138.8,216.8)" />
<use xlink:href="#f5_27" transform="matrix(12.1,0,0,12.2,162.2,216.8)" />
<use xlink:href="#f5_13" transform="matrix(12.1,0,0,12.2,57.4,248.6)" />
<use xlink:href="#f5_11" transform="matrix(12.1,0,0,12.2,69.7,248.6)" />
<use xlink:href="#f5_25" transform="matrix(12.1,0,0,12.2,98.6,248.6)" />
<use xlink:href="#f5_26" transform="matrix(12.1,0,0,12.2,135,248.6)" />
<use xlink:href="#f5_27" transform="matrix(12.1,0,0,12.2,166.7,248.6)" />
<use xlink:href="#f5_12" transform="matrix(12.1,0,0,12.2,58.5,279.9)" />
<use xlink:href="#f5_13" transform="matrix(12.1,0,0,12.2,69.7,279.9)" />
<use xlink:href="#f5_13" transform="matrix(12.1,0,0,12.2,85.7,279.9)" />
<use xlink:href="#f5_11" transform="matrix(12.1,0,0,12.2,98,279.9)" />
<use xlink:href="#f5_12" transform="matrix(12.1,0,0,12.2,58.5,311.2)" />
<use xlink:href="#f5_13" transform="matrix(12.1,0,0,12.2,69.7,311.2)" />
<use xlink:href="#f5_13" transform="matrix(12.1,0,0,12.2,103.2,311.2)" />
<use xlink:href="#f5_11" transform="matrix(12.1,0,0,12.2,115.5,311.2)" />
<use xlink:href="#f6_x" transform="matrix(12.1,0,0,12.2,86.4,185)" />
<use xlink:href="#f6_h" transform="matrix(12.1,0,0,12.2,100.9,185)" />
<use xlink:href="#f6_h" transform="matrix(12.1,0,0,12.2,121.9,185)" />
<use xlink:href="#f6_h" transform="matrix(12.1,0,0,12.2,157.9,185)" />
<use xlink:href="#f6_x" transform="matrix(12.1,0,0,12.2,87.3,216.8)" />
<use xlink:href="#f6_h" transform="matrix(12.1,0,0,12.2,121.6,216.8)" />
<use xlink:href="#f6_f" transform="matrix(12.1,0,0,12.2,148.2,216.8)" />
<use xlink:href="#f6_x" transform="matrix(12.1,0,0,12.2,84.7,248.6)" />
<use xlink:href="#f6_h" transform="matrix(12.1,0,0,12.2,109.6,248.6)" />
<use xlink:href="#f6_h" transform="matrix(12.1,0,0,12.2,144.5,248.6)" />
<use xlink:href="#f6_x" transform="matrix(12.1,0,0,12.2,113,279.9)" />
<use xlink:href="#f6_1u" transform="matrix(12.1,0,0,12.2,87.3,311.2)" />
</g>
</g>
<image preserveAspectRatio="none" x="58" y="147" width="66" height="33" xlink:href="img/6.png" />
<image preserveAspectRatio="none" x="58" y="179" width="67" height="32" xlink:href="img/7.png" />
<image preserveAspectRatio="none" x="58" y="211" width="63" height="32" xlink:href="img/8.png" />
<image preserveAspectRatio="none" x="58" y="242" width="89" height="33" xlink:href="img/9.png" />
<image preserveAspectRatio="none" x="58" y="274" width="109" height="32" xlink:href="img/10.png" />
<g clip-path="url(#c1_37)">
<g fill="#000000" >
<use xlink:href="#f4_11" transform="matrix(13,0,0,12,84.1,541.4)" />
<use xlink:href="#f4_12" transform="matrix(13,0,0,12,97,541.4)" />
<use xlink:href="#f4_13" transform="matrix(13,0,0,12,109.1,541.4)" />
<use xlink:href="#f6_1s" transform="matrix(13,0,0,12,55.1,541.4)" />
<use xlink:href="#f6_14" transform="matrix(13,0,0,12,72.8,541.4)" />
</g>
</g>
<g fill="#000000" >
<use xlink:href="#f4_25" transform="matrix(12,0,0,12,128.7,541)" />
<use xlink:href="#f4_2f" transform="matrix(12,0,0,12,133.5,541)" />
<use xlink:href="#f4_1x" transform="matrix(12,0,0,12,145.2,541)" />
<use xlink:href="#f4_2e" transform="matrix(12,0,0,12,158,541)" />
<use xlink:href="#f4_25" transform="matrix(12,0,0,12,164.6,541)" />
<use xlink:href="#f4_23" transform="matrix(12,0,0,12,169,541)" />
<use xlink:href="#f4_24" transform="matrix(12,0,0,12,178.5,541)" />
<use xlink:href="#f4_2g" transform="matrix(12,0,0,12,187.3,541)" />
<use xlink:href="#f4_1x" transform="matrix(12,0,0,12,197.6,541)" />
<use xlink:href="#f4_2a" transform="matrix(12,0,0,12,205.6,541)" />
<use xlink:href="#f4_23" transform="matrix(12,0,0,12,214.4,541)" />
<use xlink:href="#f4_28" transform="matrix(12,0,0,12,223.9,541)" />
<use xlink:href="#f4_21" transform="matrix(12,0,0,12,228.3,541)" />
<use xlink:href="#f4_20" transform="matrix(12,0,0,12,236.4,541)" />
<use xlink:href="#f4_2g" transform="matrix(12,0,0,12,250.3,541)" />
<use xlink:href="#f4_2e" transform="matrix(12,0,0,12,255.8,541)" />
<use xlink:href="#f4_25" transform="matrix(12,0,0,12,262,541)" />
<use xlink:href="#f4_1x" transform="matrix(12,0,0,12,266.4,541)" />
<use xlink:href="#f4_2a" transform="matrix(12,0,0,12,274.8,541)" />
<use xlink:href="#f4_23" transform="matrix(12,0,0,12,283.6,541)" />
<use xlink:href="#f4_28" transform="matrix(12,0,0,12,293.1,541)" />
<use xlink:href="#f4_21" transform="matrix(12,0,0,12,297.9,541)" />
</g>
<path d="M88.8,585.4H99.9m-11.1,49H99.9" class="g2_37" />
<path d="M103.9,635l1.8,-1m0,0l4.5,7.3m0,0l4.9,-19.2m0,0h57.1" class="g3_37" />
<path fill-rule="evenodd" d="M102.9,634.1l2.6,-1.4l4,5.9l4.4,-17.7h57.6v.9H114.6l-4.7,18.8H109l-4.5,-6.8l-1.2,.8l-.4,-.5Z" class="g4_37" />
<path d="M173.8,635.3l1.8,-1.1m.1,0l4.4,7.3m0,.1L185,622.1m0,0h69" class="g3_37" />
<path fill-rule="evenodd" d="M172.9,634.3l2.6,-1.4l3.9,6l4.5,-18h69.3v.9H184.6l-4.7,19.1H179l-4.6,-6.8l-1.2,.7l-.3,-.5Z" class="g4_37" />
<g clip-path="url(#c2_37)">
<g fill="#000000" >
<use xlink:href="#f4_l" transform="matrix(12.5,0,0,12.3,89.8,578.6)" />
<use xlink:href="#f4_2o" transform="matrix(12.5,0,0,12.3,103.8,590)" />
<use xlink:href="#f4_2o" transform="matrix(12.5,0,0,12.3,139.5,590)" />
<use xlink:href="#f4_2o" transform="matrix(12.5,0,0,12.3,143.2,590)" />
<use xlink:href="#f4_2o" transform="matrix(12.5,0,0,12.3,179.8,590)" />
<use xlink:href="#f4_m" transform="matrix(12.5,0,0,12.3,90,604.2)" />
<use xlink:href="#f4_l" transform="matrix(12.5,0,0,12.3,89.8,627.6)" />
<use xlink:href="#f4_o" transform="matrix(12.5,0,0,12.3,115.1,639)" />
<use xlink:href="#f4_l" transform="matrix(12.5,0,0,12.3,139.8,639)" />
<use xlink:href="#f4_l" transform="matrix(12.5,0,0,12.3,163,639)" />
<use xlink:href="#f4_l" transform="matrix(12.5,0,0,12.3,183,639)" />
<use xlink:href="#f4_t" transform="matrix(12.5,0,0,12.3,207.7,639)" />
<use xlink:href="#f4_m" transform="matrix(12.5,0,0,12.3,234.4,639)" />
<use xlink:href="#f4_p" transform="matrix(12.5,0,0,12.3,243.5,639)" />
<use xlink:href="#f4_m" transform="matrix(12.5,0,0,12.3,90,653.2)" />
<use xlink:href="#f5_12" transform="matrix(12.5,0,0,12.3,111.7,590)" />
<use xlink:href="#f5_13" transform="matrix(12.5,0,0,12.3,122.9,590)" />
<use xlink:href="#f5_11" transform="matrix(12.5,0,0,12.3,152,590)" />
<use xlink:href="#f5_13" transform="matrix(12.5,0,0,12.3,163.2,590)" />
<use xlink:href="#f6_14" transform="matrix(12.5,0,0,12.3,58,590)" />
<use xlink:href="#f6_x" transform="matrix(12.5,0,0,12.3,73.9,590)" />
<use xlink:href="#f6_14" transform="matrix(12.5,0,0,12.3,58,639)" />
<use xlink:href="#f6_x" transform="matrix(12.5,0,0,12.3,73.9,639)" />
<use xlink:href="#f6_f" transform="matrix(12.5,0,0,12.3,127.7,639)" />
<use xlink:href="#f6_f" transform="matrix(12.5,0,0,12.3,150.9,639)" />
<use xlink:href="#f6_f" transform="matrix(12.5,0,0,12.3,194.2,639)" />
<use xlink:href="#f6_f" transform="matrix(12.5,0,0,12.3,220.3,639)" />
</g>
</g>
<image preserveAspectRatio="none" x="111" y="552" width="106" height="33" xlink:href="img/11.png" />
<g fill="#000000" >
<use xlink:href="#f4_x" transform="matrix(12,0,0,12,55,700.1)" />
</g>
<path d="M73.3,695.6H84.4" class="g5_37" />
<path d="M88.4,696.5l1.8,-1.1m0,0l4.5,7.5m0,0l4.9,-19.7m0,-.1h10.3" class="g6_37" />
<path fill-rule="evenodd" d="M87.5,695.5L90,694.1l4,6.1L98.5,682h10.7v.9h-10l-4.8,19.2h-.9L89,695.3l-1.2,.7l-.3,-.5Z" class="g4_37" />
<path d="M111.5,696.5l1.9,-1.1m0,0l4.5,7.5m0,0l4.8,-19.7m0,-.1h19.1" class="g6_37" />
<path fill-rule="evenodd" d="M110.6,695.5l2.6,-1.4l3.9,6.1L121.6,682H141v.9H122.3l-4.7,19.2h-.9l-4.6,-6.8l-1.2,.7l-.3,-.5Z" class="g4_37" />
<g clip-path="url(#c3_37)">
<g fill="#000000" >
<use xlink:href="#f4_l" transform="matrix(12.5,0,0,12.4,74.3,688.7)" />
<use xlink:href="#f4_q" transform="matrix(12.5,0,0,12.4,99.3,700.3)" />
<use xlink:href="#f4_n" transform="matrix(12.5,0,0,12.4,122.2,700.3)" />
<use xlink:href="#f4_p" transform="matrix(12.5,0,0,12.4,131.4,700.3)" />
<use xlink:href="#f4_m" transform="matrix(12.5,0,0,12.4,74.6,714.6)" />
</g>
</g>
<path d="M72.9,759.1H84" class="g7_37" />
<path d="M88,759.9l1.8,-1m.1,0l4.4,7.4m0,0l5,-19.6m0,-.1h29.1" class="g8_37" />
<path fill-rule="evenodd" d="M87.1,758.9l2.5,-1.4l4,6.1l4.6,-18.2h29.5v.9H98.8l-4.7,19.3h-.9l-4.6,-6.8l-1.2,.7l-.3,-.6Z" class="g4_37" />
<g clip-path="url(#c4_37)">
<g fill="#000000" >
<use xlink:href="#f4_l" transform="matrix(12.5,0,0,12.4,73.8,752.2)" />
<use xlink:href="#f4_m" transform="matrix(12.5,0,0,12.4,99.3,763.7)" />
<use xlink:href="#f4_l" transform="matrix(12.5,0,0,12.4,108.5,763.7)" />
<use xlink:href="#f4_k" transform="matrix(12.5,0,0,12.4,117.7,763.7)" />
<use xlink:href="#f4_m" transform="matrix(12.5,0,0,12.4,74.1,778.1)" />
<use xlink:href="#f6_x" transform="matrix(12.5,0,0,12.4,58,763.7)" />
</g>
</g>
<g fill="#000000" >
<use xlink:href="#f2_m" transform="matrix(12,0,0,12,55,854.5)" />
<use xlink:href="#f2_k" transform="matrix(12,0,0,12,64.2,854.5)" />
<use xlink:href="#f2_i" transform="matrix(12,0,0,12,73.4,854.5)" />
<use xlink:href="#f3_16" transform="matrix(12,0,0,12,82.9,854.5)" />
<use xlink:href="#f3_25" transform="matrix(12,0,0,12,93.2,854.5)" />
<use xlink:href="#f3_2a" transform="matrix(12,0,0,12,97.9,854.5)" />
<use xlink:href="#f3_20" transform="matrix(12,0,0,12,106.7,854.5)" />
<use xlink:href="#f3_2g" transform="matrix(12,0,0,12,120.6,854.5)" />
<use xlink:href="#f3_24" transform="matrix(12,0,0,12,126.1,854.5)" />
<use xlink:href="#f3_21" transform="matrix(12,0,0,12,134.9,854.5)" />
<use xlink:href="#f3_2i" transform="matrix(12,0,0,12,147.7,854.5)" />
<use xlink:href="#f3_1x" transform="matrix(12,0,0,12,156.5,854.5)" />
<use xlink:href="#f3_28" transform="matrix(12,0,0,12,164.9,854.5)" />
<use xlink:href="#f3_2h" transform="matrix(12,0,0,12,169.7,854.5)" />
<use xlink:href="#f3_21" transform="matrix(12,0,0,12,178.9,854.5)" />
<use xlink:href="#f3_2b" transform="matrix(12,0,0,12,191.7,854.5)" />
<use xlink:href="#f3_22" transform="matrix(12,0,0,12,201.2,854.5)" />
<use xlink:href="#f3_f1" transform="matrix(12,0,0,12,211.5,854.5)" />
<use xlink:href="#f3_g" transform="matrix(12,0,0,12,220.3,854.5)" />
<use xlink:href="#f3_25" transform="matrix(12,0,0,12,230.1,854.5)" />
<use xlink:href="#f3_22" transform="matrix(12,0,0,12,234.9,854.5)" />
<use xlink:href="#f3_22" transform="matrix(12,0,0,12,245.5,854.5)" />
<use xlink:href="#f3_2b" transform="matrix(12,0,0,12,251,854.5)" />
<use xlink:href="#f3_2h" transform="matrix(12,0,0,12,260.5,854.5)" />
<use xlink:href="#f3_2e" transform="matrix(12,0,0,12,269.7,854.5)" />
<use xlink:href="#f3_2c" transform="matrix(12,0,0,12,280.6,854.5)" />
<use xlink:href="#f3_2b" transform="matrix(12,0,0,12,289.8,854.5)" />
<use xlink:href="#f3_25" transform="matrix(12,0,0,12,299.3,854.5)" />
<use xlink:href="#f3_2a" transform="matrix(12,0,0,12,304.1,854.5)" />
<use xlink:href="#f3_2g" transform="matrix(12,0,0,12,312.9,854.5)" />
<use xlink:href="#f3_2f" transform="matrix(12,0,0,12,318.4,854.5)" />
<use xlink:href="#f3_2j" transform="matrix(12,0,0,12,330.1,854.5)" />
<use xlink:href="#f3_25" transform="matrix(12,0,0,12,343.3,854.5)" />
<use xlink:href="#f3_2g" transform="matrix(12,0,0,12,347.7,854.5)" />
<use xlink:href="#f3_24" transform="matrix(12,0,0,12,353.2,854.5)" />
<use xlink:href="#f3_2c" transform="matrix(12,0,0,12,366.7,854.5)" />
<use xlink:href="#f3_2b" transform="matrix(12,0,0,12,375.9,854.5)" />
<use xlink:href="#f3_2f" transform="matrix(12,0,0,12,385.4,854.5)" />
<use xlink:href="#f3_25" transform="matrix(12,0,0,12,392.7,854.5)" />
<use xlink:href="#f3_2g" transform="matrix(12,0,0,12,397.1,854.5)" />
<use xlink:href="#f3_25" transform="matrix(12,0,0,12,403,854.5)" />
<use xlink:href="#f3_2b" transform="matrix(12,0,0,12,407.4,854.5)" />
<use xlink:href="#f3_2a" transform="matrix(12,0,0,12,416.9,854.5)" />
<use xlink:href="#f3_2i" transform="matrix(12,0,0,12,430.8,854.5)" />
<use xlink:href="#f3_21" transform="matrix(12,0,0,12,439.6,854.5)" />
<use xlink:href="#f3_1z" transform="matrix(12,0,0,12,447.7,854.5)" />
<use xlink:href="#f3_2g" transform="matrix(12,0,0,12,455.7,854.5)" />
<use xlink:href="#f3_2b" transform="matrix(12,0,0,12,461.2,854.5)" />
<use xlink:href="#f3_2e" transform="matrix(12,0,0,12,470.4,854.5)" />
<use xlink:href="#f3_2f" transform="matrix(12,0,0,12,476.6,854.5)" />
</g>
<g clip-path="url(#c5_37)">
<g fill="#000000" >
<use xlink:href="#f3_5z" transform="matrix(13,0,0,12.1,572.6,849.4)" />
<use xlink:href="#f3_5z" transform="matrix(13,0,0,12.1,660.2,849.4)" />
<use xlink:href="#f3_5z" transform="matrix(13,0,0,12.1,747.8,849.4)" />
<use xlink:href="#f3_5z" transform="matrix(13,0,0,12.1,500.4,850.9)" />
<use xlink:href="#f3_5z" transform="matrix(13,0,0,12.1,536.3,850.9)" />
<use xlink:href="#f3_5z" transform="matrix(13,0,0,12.1,588.3,850.9)" />
<use xlink:href="#f3_5z" transform="matrix(13,0,0,12.1,624.5,850.9)" />
<use xlink:href="#f3_5z" transform="matrix(13,0,0,12.1,685.4,850.9)" />
<use xlink:href="#f3_5z" transform="matrix(13,0,0,12.1,720.4,850.9)" />
<use xlink:href="#f4_n" transform="matrix(13,0,0,12.1,490.8,854.9)" />
<use xlink:href="#f4_q" transform="matrix(13,0,0,12.1,524,854.9)" />
<use xlink:href="#f4_t" transform="matrix(13,0,0,12.1,559.8,854.9)" />
<use xlink:href="#f4_g" transform="matrix(13,0,0,12.1,578.8,854.9)" />
<use xlink:href="#f4_m" transform="matrix(13,0,0,12.1,612.1,854.9)" />
<use xlink:href="#f4_n" transform="matrix(13,0,0,12.1,648,854.9)" />
<use xlink:href="#f4_g" transform="matrix(13,0,0,12.1,666.4,854.9)" />
<use xlink:href="#f4_m" transform="matrix(13,0,0,12.1,675.2,854.9)" />
<use xlink:href="#f4_n" transform="matrix(13,0,0,12.1,708.6,854.9)" />
<use xlink:href="#f5_25" transform="matrix(13,0,0,12.1,499.1,854.9)" />
<use xlink:href="#f5_26" transform="matrix(13,0,0,12.1,536.9,854.9)" />
<use xlink:href="#f5_27" transform="matrix(13,0,0,12.1,569.3,854.9)" />
<use xlink:href="#f5_25" transform="matrix(13,0,0,12.1,587,854.9)" />
<use xlink:href="#f5_26" transform="matrix(13,0,0,12.1,625,854.9)" />
<use xlink:href="#f5_27" transform="matrix(13,0,0,12.1,656.9,854.9)" />
<use xlink:href="#f5_25" transform="matrix(13,0,0,12.1,684.1,854.9)" />
<use xlink:href="#f5_26" transform="matrix(13,0,0,12.1,721,854.9)" />
<use xlink:href="#f5_27" transform="matrix(13,0,0,12.1,744.5,854.9)" />
<use xlink:href="#f6_f" transform="matrix(13,0,0,12.1,510.2,854.9)" />
<use xlink:href="#f6_f" transform="matrix(13,0,0,12.1,546.4,854.9)" />
<use xlink:href="#f6_f" transform="matrix(13,0,0,12.1,598.1,854.9)" />
<use xlink:href="#f6_f" transform="matrix(13,0,0,12.1,634.5,854.9)" />
<use xlink:href="#f6_f" transform="matrix(13,0,0,12.1,695.2,854.9)" />
<use xlink:href="#f6_f" transform="matrix(13,0,0,12.1,730.5,854.9)" />
</g>
</g>
<g fill="#000000" >
<use xlink:href="#f4_1x" transform="matrix(12,0,0,12,761.5,854.5)" />
<use xlink:href="#f4_2a" transform="matrix(12,0,0,12,769.6,854.5)" />
<use xlink:href="#f4_20" transform="matrix(12,0,0,12,778.4,854.5)" />
</g>
<g clip-path="url(#c6_37)">
<g fill="#000000" >
<use xlink:href="#f3_5z" transform="matrix(12.9,0,0,12.1,140.6,881.3)" />
<use xlink:href="#f3_5z" transform="matrix(12.9,0,0,12.1,68,882.8)" />
<use xlink:href="#f3_5z" transform="matrix(12.9,0,0,12.1,103.6,882.8)" />
<use xlink:href="#f4_o" transform="matrix(12.9,0,0,12.1,57.9,886.7)" />
<use xlink:href="#f4_q" transform="matrix(12.9,0,0,12.1,91.3,886.7)" />
<use xlink:href="#f4_g" transform="matrix(12.9,0,0,12.1,146.8,886.7)" />
<use xlink:href="#f5_25" transform="matrix(12.9,0,0,12.1,66.7,886.7)" />
<use xlink:href="#f5_26" transform="matrix(12.9,0,0,12.1,104.1,886.7)" />
<use xlink:href="#f5_27" transform="matrix(12.9,0,0,12.1,137.4,886.7)" />
<use xlink:href="#f6_f" transform="matrix(12.9,0,0,12.1,77.7,886.7)" />
<use xlink:href="#f6_f" transform="matrix(12.9,0,0,12.1,113.5,886.7)" />
<use xlink:href="#f6_28" transform="matrix(12.9,0,0,12.1,127.1,886.7)" />
</g>
</g>
<g fill="#000000" >
<use xlink:href="#f4_1x" transform="matrix(12,0,0,12,159.2,886.5)" />
<use xlink:href="#f4_2e" transform="matrix(12,0,0,12,167.3,886.5)" />
<use xlink:href="#f4_21" transform="matrix(12,0,0,12,173.5,886.5)" />
<use xlink:href="#f4_1z" transform="matrix(12,0,0,12,186.3,886.5)" />
<use xlink:href="#f4_2b" transform="matrix(12,0,0,12,194,886.5)" />
<use xlink:href="#f4_2c" transform="matrix(12,0,0,12,203.5,886.5)" />
<use xlink:href="#f4_28" transform="matrix(12,0,0,12,212.7,886.5)" />
<use xlink:href="#f4_1x" transform="matrix(12,0,0,12,217.1,886.5)" />
<use xlink:href="#f4_2a" transform="matrix(12,0,0,12,225.5,886.5)" />
<use xlink:href="#f4_1x" transform="matrix(12,0,0,12,234.3,886.5)" />
<use xlink:href="#f4_2e" transform="matrix(12,0,0,12,242.4,886.5)" />
<use xlink:href="#f4_i" transform="matrix(12,0,0,12,248.6,886.5)" />
<use xlink:href="#f2_1j" transform="matrix(12,0,0,12,55,927.2)" />
<use xlink:href="#f2_2b" transform="matrix(12,0,0,12,65.3,927.2)" />
<use xlink:href="#f2_28" transform="matrix(12,0,0,12,74.5,927.2)" />
<use xlink:href="#f2_2h" transform="matrix(12,0,0,12,79.2,927.2)" />
<use xlink:href="#f2_2g" transform="matrix(12,0,0,12,89.5,927.2)" />
<use xlink:href="#f2_25" transform="matrix(12,0,0,12,95.7,927.2)" />
<use xlink:href="#f2_2b" transform="matrix(12,0,0,12,100.8,927.2)" />
<use xlink:href="#f2_2a" transform="matrix(12,0,0,12,109.9,927.2)" />
<use xlink:href="#f2_u" transform="matrix(12,0,0,12,120.2,927.2)" />
<use xlink:href="#f4_1n" transform="matrix(12,0,0,12,55,963.5)" />
<use xlink:href="#f4_21" transform="matrix(12,0,0,12,71.9,963.5)" />
<use xlink:href="#f4_24" transform="matrix(12,0,0,12,85.1,963.5)" />
<use xlink:href="#f4_1x" transform="matrix(12,0,0,12,93.9,963.5)" />
<use xlink:href="#f4_2i" transform="matrix(12,0,0,12,102.3,963.5)" />
<use xlink:href="#f4_21" transform="matrix(12,0,0,12,111.1,963.5)" />
<use xlink:href="#f4_1g" transform="matrix(12,0,0,12,55,1003.8)" />
<use xlink:href="#f4_i" transform="matrix(12,0,0,12,65.3,1003.8)" />
<use xlink:href="#f4_1m" transform="matrix(12,0,0,12,70,1003.8)" />
<use xlink:href="#f4_i" transform="matrix(12,0,0,12,83.3,1003.8)" />
<use xlink:href="#f4_2b" transform="matrix(12,0,0,12,92,1003.8)" />
<use xlink:href="#f4_22" transform="matrix(12,0,0,12,101.5,1003.8)" />
<use xlink:href="#f4_11" transform="matrix(12,0,0,12,112.2,1003.8)" />
</g>
<g clip-path="url(#c7_37)">
<g fill="#000000" >
<use xlink:href="#f3_5z" transform="matrix(12.9,0,0,12.1,227.5,998.7)" />
<use xlink:href="#f3_5z" transform="matrix(12.9,0,0,12.1,156.1,1000.1)" />
<use xlink:href="#f3_5z" transform="matrix(12.9,0,0,12.1,191.6,1000.1)" />
<use xlink:href="#f4_n" transform="matrix(12.9,0,0,12.1,146.6,1004.1)" />
<use xlink:href="#f4_q" transform="matrix(12.9,0,0,12.1,179.3,1004.1)" />
<use xlink:href="#f4_t" transform="matrix(12.9,0,0,12.1,214.9,1004.1)" />
<use xlink:href="#f5_25" transform="matrix(12.9,0,0,12.1,154.8,1004.1)" />
<use xlink:href="#f5_26" transform="matrix(12.9,0,0,12.1,192.2,1004.1)" />
<use xlink:href="#f5_27" transform="matrix(12.9,0,0,12.1,224.3,1004.1)" />
<use xlink:href="#f6_x" transform="matrix(12.9,0,0,12.1,132.7,1004.1)" />
<use xlink:href="#f6_f" transform="matrix(12.9,0,0,12.1,165.7,1004.1)" />
<use xlink:href="#f6_f" transform="matrix(12.9,0,0,12.1,201.5,1004.1)" />
</g>
</g>
<g fill="#000000" >
<use xlink:href="#f4_1g" transform="matrix(12,0,0,12,55,1047.9)" />
<use xlink:href="#f4_i" transform="matrix(12,0,0,12,65.3,1047.9)" />
<use xlink:href="#f4_1m" transform="matrix(12,0,0,12,70,1047.9)" />
<use xlink:href="#f4_i" transform="matrix(12,0,0,12,83.3,1047.9)" />
<use xlink:href="#f4_2b" transform="matrix(12,0,0,12,92,1047.9)" />
<use xlink:href="#f4_22" transform="matrix(12,0,0,12,101.5,1047.9)" />
<use xlink:href="#f4_12" transform="matrix(12,0,0,12,111.8,1047.9)" />
</g>
<g clip-path="url(#c8_37)">
<g fill="#000000" >
<use xlink:href="#f3_5z" transform="matrix(12.9,0,0,12.1,217.9,1042.7)" />
<use xlink:href="#f3_5z" transform="matrix(12.9,0,0,12.1,146.8,1044.1)" />
<use xlink:href="#f3_5z" transform="matrix(12.9,0,0,12.1,182.6,1044.1)" />
<use xlink:href="#f4_m" transform="matrix(12.9,0,0,12.1,170.4,1048.1)" />
<use xlink:href="#f4_n" transform="matrix(12.9,0,0,12.1,205.9,1048.1)" />
<use xlink:href="#f5_25" transform="matrix(12.9,0,0,12.1,145.5,1048.1)" />
<use xlink:href="#f5_26" transform="matrix(12.9,0,0,12.1,183.1,1048.1)" />
<use xlink:href="#f5_27" transform="matrix(12.9,0,0,12.1,214.7,1048.1)" />
<use xlink:href="#f6_x" transform="matrix(12.9,0,0,12.1,131.7,1048.1)" />
<use xlink:href="#f6_f" transform="matrix(12.9,0,0,12.1,156.5,1048.1)" />
<use xlink:href="#f6_f" transform="matrix(12.9,0,0,12.1,192.6,1048.1)" />
</g>
</g>
<g clip-path="url(#c9_37)">
<g fill="#000000" >
<use xlink:href="#f3_5z" transform="matrix(12,0,0,12,193.5,1086.9)" />
<use xlink:href="#f3_5z" transform="matrix(12,0,0,12,121.4,1088.3)" />
<use xlink:href="#f3_5z" transform="matrix(12,0,0,12,157.3,1088.3)" />
<use xlink:href="#f4_m" transform="matrix(12,0,0,12,111.2,1092.2)" />
<use xlink:href="#f4_o" transform="matrix(12,0,0,12,144.9,1092.2)" />
<use xlink:href="#f4_q" transform="matrix(12,0,0,12,180.8,1092.2)" />
<use xlink:href="#f3_5z" transform="matrix(12,0,0,12,184.6,1118.2)" />
<use xlink:href="#f3_5z" transform="matrix(12,0,0,12,114.5,1119.6)" />
<use xlink:href="#f3_5z" transform="matrix(12,0,0,12,149.2,1119.6)" />
<use xlink:href="#f4_n" transform="matrix(12,0,0,12,137.4,1123.6)" />
<use xlink:href="#f4_s" transform="matrix(12,0,0,12,172.2,1123.6)" />
<use xlink:href="#f3_5z" transform="matrix(12,0,0,12,180,1149.6)" />
<use xlink:href="#f3_5z" transform="matrix(12,0,0,12,103.9,1151.1)" />
<use xlink:href="#f4_c" transform="matrix(12,0,0,12,127.4,1155)" />
<use xlink:href="#f4_t" transform="matrix(12,0,0,12,161,1155)" />
<use xlink:href="#f4_d" transform="matrix(12,0,0,12,170.2,1155)" />
<use xlink:href="#f5_11" transform="matrix(12,0,0,12,59.4,1092.2)" />
<use xlink:href="#f5_12" transform="matrix(12,0,0,12,70.6,1092.2)" />
<use xlink:href="#f5_25" transform="matrix(12,0,0,12,120.1,1092.2)" />
<use xlink:href="#f5_26" transform="matrix(12,0,0,12,157.8,1092.2)" />
<use xlink:href="#f5_27" transform="matrix(12,0,0,12,190.2,1092.2)" />
<use xlink:href="#f5_11" transform="matrix(12,0,0,12,59.4,1123.6)" />
<use xlink:href="#f5_14" transform="matrix(12,0,0,12,70.6,1123.6)" />
<use xlink:href="#f5_25" transform="matrix(12,0,0,12,113.2,1123.6)" />
<use xlink:href="#f5_26" transform="matrix(12,0,0,12,149.8,1123.6)" />
<use xlink:href="#f5_27" transform="matrix(12,0,0,12,181.3,1123.6)" />
<use xlink:href="#f5_11" transform="matrix(12,0,0,12,59.4,1155)" />
<use xlink:href="#f5_14" transform="matrix(12,0,0,12,70.6,1155)" />
<use xlink:href="#f5_25" transform="matrix(12,0,0,12,102.6,1155)" />
<use xlink:href="#f5_27" transform="matrix(12,0,0,12,176.8,1155)" />
<use xlink:href="#f6_x" transform="matrix(12,0,0,12,86.6,1092.2)" />
<use xlink:href="#f6_h" transform="matrix(12,0,0,12,101.1,1092.2)" />
<use xlink:href="#f6_h" transform="matrix(12,0,0,12,131.1,1092.2)" />
<use xlink:href="#f6_h" transform="matrix(12,0,0,12,167.3,1092.2)" />
<use xlink:href="#f6_x" transform="matrix(12,0,0,12,88.6,1123.6)" />
<use xlink:href="#f6_h" transform="matrix(12,0,0,12,103.1,1123.6)" />
<use xlink:href="#f6_h" transform="matrix(12,0,0,12,124.2,1123.6)" />
<use xlink:href="#f6_h" transform="matrix(12,0,0,12,159.3,1123.6)" />
<use xlink:href="#f6_x" transform="matrix(12,0,0,12,88.6,1155)" />
<use xlink:href="#f6_f" transform="matrix(12,0,0,12,113.6,1155)" />
<use xlink:href="#f6_28" transform="matrix(12,0,0,12,133.7,1155)" />
<use xlink:href="#f6_h" transform="matrix(12,0,0,12,147.7,1155)" />
</g>
</g>
<image preserveAspectRatio="none" x="58" y="1055" width="66" height="32" xlink:href="img/12.png" />
<image preserveAspectRatio="none" x="58" y="1087" width="68" height="31" xlink:href="img/13.png" />
<image preserveAspectRatio="none" x="58" y="1118" width="68" height="32" xlink:href="img/14.png" />
<image preserveAspectRatio="none" x="55" y="332" width="157" height="176" xlink:href="img/15.png" />
<path fill-rule="evenodd" d="M37.4,38.1h.7v-.7h-.7v.7Z" class="g4_37" />
<path fill-rule="evenodd" d="M37.4,38.1h.7v-.7h-.7v.7Z" class="g4_37" />
<path fill-rule="evenodd" d="M38.1,38.1H871.5v-.7H38.1v.7Z" class="g4_37" />
<path fill-rule="evenodd" d="M871.5,38.1h.8v-.7h-.8v.7Z" class="g4_37" />
<path fill-rule="evenodd" d="M871.5,38.1h.8v-.7h-.8v.7Z" class="g4_37" />
<path fill-rule="evenodd" d="M37.4,1248.5h.7V38.1h-.7V1248.5Z" class="g4_37" />
<path fill-rule="evenodd" d="M872.3,1248.5h.7V38.1h-.7V1248.5Z" class="g4_37" />
<path fill-rule="evenodd" d="M871.5,1248.5h.8V38.1h-.8V1248.5Z" class="g4_37" />
<path fill-rule="evenodd" d="M37.4,1249.2h.7v-.7h-.7v.7Z" class="g4_37" />
<path fill-rule="evenodd" d="M37.4,1249.2h.7v-.7h-.7v.7Z" class="g4_37" />
<path fill-rule="evenodd" d="M38.1,1249.9H871.5v-.7H38.1v.7Z" class="g4_37" />
<path fill-rule="evenodd" d="M38.1,1249.2H871.5v-.7H38.1v.7Z" class="g4_37" />
<path fill-rule="evenodd" d="M872.3,1249.9h.7v-1.4h-.7v1.4Z" class="g4_37" />
<path fill-rule="evenodd" d="M871.5,1249.9H873v-.7h-1.5v.7Z" class="g4_37" />
<path fill-rule="evenodd" d="M871.5,1249.2h.8v-.7h-.8v.7Z" class="g4_37" />
<path fill-rule="evenodd" d="M871.5,1249.2h.8v-.7h-.8v.7Z" class="g4_37" />
<defs>
<path d="M489,-15c0,0,-99,0,-179,30c0,0,-80,30,-136,91c0,0,-56,61,-85,152c0,0,-30,91,-30,212c0,0,0,123,32,218c0,0,33,96,92,161c0,0,59,65,142,98c0,0,82,34,181,34c0,0,40,0,78,-7c0,0,37,-7,69,-18c0,0,31,-11,57,-25c0,0,25,-14,35,-24c0,0,10,-10,14,-17c0,0,4,-7,6,-17c0,0,2,-11,3,-25c0,0,2,-14,2,-35c0,0,0,-22,-2,-38c0,0,-1,-15,-5,-25c0,0,-4,-10,-9,-14c0,0,-5,-5,-12,-5c0,0,-11,0,-28,13c0,0,-18,13,-45,29c0,0,-27,16,-65,29c0,0,-37,13,-89,13c0,0,-58,0,-103,-23c0,0,-45,-23,-77,-67c0,0,-31,-44,-48,-106c0,0,-16,-61,-16,-139c0,0,0,-85,17,-147c0,0,18,-62,50,-103c0,0,33,-40,79,-60c0,0,45,-19,103,-19c0,0,52,0,90,12c0,0,38,12,65,27c0,0,27,15,45,27c0,0,17,12,27,12c0,0,8,0,12,-3c0,0,4,-3,7,-12c0,0,3,-9,5,-25c0,0,1,-16,1,-43c0,0,0,-18,-1,-31c0,0,-1,-14,-3,-23c0,0,-2,-9,-6,-16c0,0,-4,-7,-12,-15c0,0,-8,-9,-32,-22c0,0,-23,-14,-57,-26C661,13,627,1,583,-6c0,0,-43,-9,-94,-9Z" 
id="f0_j"
transform="scale(0.001,-0.001)" />

<path d="M440,150c0,0,41,0,68,8c0,0,28,9,49,26c0,0,20,16,32,41c0,0,11,25,11,58c0,0,0,33,-11,60c0,0,-11,26,-33,44c0,0,-21,18,-55,28c0,0,-33,9,-87,9H298V150ZM407,567c0,0,42,0,68,10c0,0,25,10,42,28c0,0,16,17,24,41c0,0,9,24,9,50c0,0,0,29,-9,52c0,0,-9,23,-27,39c0,0,-18,15,-45,23c0,0,-27,8,-72,8H298V567ZM164,0c0,0,-25,0,-42,15c0,0,-16,14,-16,47V903c0,0,0,33,16,48c0,0,17,14,42,14H406c0,0,88,0,150,-15c0,0,61,-15,103,-45c0,0,42,-30,65,-77c0,0,22,-46,22,-108c0,0,0,-36,-9,-67c0,0,-9,-31,-26,-56c0,0,-17,-25,-42,-45c0,0,-25,-19,-57,-31c0,0,41,-7,76,-26c0,0,34,-19,60,-48c0,0,26,-30,41,-69c0,0,15,-40,15,-89c0,0,0,-51,-14,-93c0,0,-15,-42,-40,-74c0,0,-25,-32,-59,-55c0,0,-35,-23,-77,-38C614,29,573,14,525,7C525,7,478,0,420,0Z" 
id="f0_i"
transform="scale(0.001,-0.001)" />

<path d="M320,-17c0,0,-50,0,-93,9c0,0,-43,8,-76,19c0,0,-32,11,-54,24C97,35,75,48,65,58c0,0,-10,9,-14,28c0,0,-4,18,-4,52c0,0,0,23,1,39c0,0,2,15,5,25c0,0,4,10,9,14c0,0,6,4,13,4c0,0,11,0,30,-12c0,0,19,-13,49,-28c0,0,30,-15,71,-27c0,0,42,-12,96,-12c0,0,36,0,64,8c0,0,29,9,49,25c0,0,19,15,30,38c0,0,10,23,10,52c0,0,0,33,-18,56c0,0,-18,24,-46,42c0,0,-29,18,-66,34c0,0,-36,16,-75,34c0,0,-39,18,-76,41c0,0,-36,23,-65,54c0,0,-29,32,-47,75c0,0,-17,44,-17,104c0,0,0,70,25,122c0,0,26,53,70,88c0,0,43,34,103,51c0,0,59,18,125,18c0,0,35,0,69,-6c0,0,34,-5,64,-14c0,0,30,-9,53,-20c0,0,23,-11,31,-18c0,0,7,-8,10,-13c0,0,3,-5,4,-14c0,0,2,-8,3,-21c0,0,1,-13,1,-33c0,0,0,-21,-1,-36c0,0,-1,-15,-4,-25c0,0,-3,-9,-7,-14c0,0,-5,-4,-14,-4c0,0,-8,0,-26,10c0,0,-18,10,-44,23c0,0,-26,12,-60,22c0,0,-34,10,-75,10c0,0,-32,0,-56,-8c0,0,-24,-8,-40,-21c0,0,-16,-14,-24,-34c0,0,-8,-19,-8,-41c0,0,0,-32,18,-56c0,0,17,-23,46,-42c0,0,30,-18,67,-34c0,0,38,-16,76,-34c0,0,39,-18,76,-41c0,0,38,-22,67,-54c0,0,29,-32,47,-75c0,0,18,-43,18,-101c0,0,0,-76,-29,-133c0,0,-28,-58,-77,-96C572,60,524,21,459,2c0,0,-65,-19,-139,-19Z" 
id="f0_2n"
transform="scale(0.001,-0.001)" />

<path d="M164,0c0,0,-25,0,-42,15c0,0,-16,14,-16,47V903c0,0,0,33,16,48c0,0,17,14,42,14H645c0,0,7,0,12,-4c0,0,5,-3,9,-13c0,0,4,-9,6,-24c0,0,2,-14,2,-36c0,0,0,-21,-2,-36c0,0,-2,-14,-6,-23c0,0,-4,-9,-9,-13c0,0,-5,-4,-12,-4H301V576H593c0,0,6,0,12,-4c0,0,6,-4,9,-13c0,0,4,-8,6,-23c0,0,2,-14,2,-35c0,0,0,-22,-2,-36c0,0,-2,-14,-6,-23c0,0,-3,-8,-9,-12c0,0,-6,-4,-12,-4H301V154H649c0,0,6,0,12,-5c0,0,5,-4,9,-13c0,0,4,-9,6,-23c0,0,2,-15,2,-36c0,0,0,-22,-2,-36c0,0,-2,-15,-6,-24c0,0,-4,-9,-9,-13c0,0,-6,-4,-12,-4Z" 
id="f0_t"
transform="scale(0.001,-0.001)" />

<path d="M79,297c0,0,-19,0,-27,18c0,0,-8,17,-8,60c0,0,0,41,8,59c0,0,8,17,27,17H389c0,0,9,0,15,-4c0,0,7,-4,11,-13c0,0,5,-9,7,-23c0,0,1,-15,1,-36c0,0,0,-43,-8,-61c0,0,-8,-17,-26,-17Z" 
id="f0_oj"
transform="scale(0.001,-0.001)" />

<path d="M121,-4c0,0,-39,0,-60,2C61,-2,39,0,32,8c0,0,-8,8,-3,24c0,0,4,15,18,41L279,495L64,892c0,0,-14,26,-19,42c0,0,-5,17,4,24c0,0,9,8,32,10c0,0,23,2,65,2c0,0,35,0,56,-2c0,0,20,-1,32,-4c0,0,12,-4,17,-10c0,0,5,-6,9,-15L431,620L595,939c0,0,5,9,10,15c0,0,5,6,16,10c0,0,10,3,29,4c0,0,19,2,53,2c0,0,37,0,59,-2c0,0,22,-2,30,-10c0,0,8,-8,4,-24c0,0,-4,-16,-17,-42L564,497L793,73c0,0,14,-26,18,-41c0,0,4,-16,-5,-24c0,0,-9,-8,-32,-10c0,0,-24,-2,-65,-2c0,0,-36,0,-56,2c0,0,-20,1,-31,3c0,0,-12,4,-17,10c0,0,-5,6,-9,15L414,374L233,26c0,0,-4,-9,-9,-15c0,0,-6,-6,-17,-10c0,0,-12,-2,-32,-3c0,0,-21,-2,-54,-2Z" 
id="f0_3e"
transform="scale(0.001,-0.001)" />

<path d="M204,-4c0,0,-28,0,-47,2c0,0,-19,2,-31,5c0,0,-11,4,-16,10c0,0,-4,6,-4,13V939c0,0,0,7,4,13c0,0,5,6,17,10c0,0,11,3,30,6c0,0,19,2,47,2c0,0,29,0,48,-2c0,0,18,-3,29,-6c0,0,11,-4,16,-10c0,0,5,-6,5,-13V26c0,0,0,-7,-5,-13c0,0,-5,-6,-16,-10c0,0,-11,-3,-29,-5c0,0,-19,-2,-48,-2Z" 
id="f0_1c"
transform="scale(0.001,-0.001)" />

<path d="M127,0c0,0,-16,0,-28,3C99,3,87,6,80,15c0,0,-8,8,-11,25c0,0,-3,16,-3,42c0,0,0,25,2,42c0,0,2,18,8,32c0,0,6,14,15,27c0,0,9,13,24,29L282,390c0,0,50,53,81,95c0,0,30,43,47,79c0,0,17,35,24,65c0,0,6,30,6,57c0,0,0,24,-8,46c0,0,-8,22,-23,39c0,0,-15,16,-38,25c0,0,-23,10,-55,10c0,0,-44,0,-78,-12c0,0,-33,-11,-59,-25c0,0,-26,-13,-43,-25c0,0,-17,-12,-27,-12c0,0,-7,0,-11,5c0,0,-5,4,-8,15c0,0,-3,10,-5,28c0,0,-2,17,-2,42c0,0,0,18,1,29c0,0,1,12,4,20c0,0,2,9,6,15c0,0,3,6,13,15c0,0,9,9,34,23c0,0,25,14,61,27c0,0,37,14,81,23c0,0,44,9,92,9c0,0,75,0,131,-19c0,0,57,-19,94,-53c0,0,37,-34,55,-81c0,0,19,-47,19,-100c0,0,0,-47,-9,-93c0,0,-9,-45,-37,-98c0,0,-29,-52,-80,-116c0,0,-52,-64,-136,-148L299,159H679c0,0,8,0,14,-4c0,0,6,-5,11,-14c0,0,4,-9,7,-25c0,0,2,-15,2,-36c0,0,0,-22,-2,-37c0,0,-2,-15,-6,-25c0,0,-3,-10,-9,-14c0,0,-6,-4,-14,-4Z" 
id="f0_rz"
transform="scale(0.001,-0.001)" />

<path d="M385,138c0,0,29,0,52,9c0,0,22,10,39,28c0,0,17,19,28,47c0,0,11,29,19,66c0,0,7,37,9,84c0,0,3,47,3,104c0,0,0,69,-4,122c0,0,-4,52,-11,91c0,0,-8,39,-20,66c0,0,-12,27,-28,43c0,0,-16,16,-37,22c0,0,-21,7,-47,7c0,0,-44,0,-73,-21c0,0,-28,-21,-45,-64c0,0,-17,-42,-24,-106c0,0,-6,-63,-6,-148c0,0,0,-103,8,-171c0,0,8,-67,26,-107c0,0,17,-40,45,-56c0,0,27,-16,66,-16ZM378,-17c0,0,-99,0,-164,33c0,0,-65,34,-103,98c0,0,-38,64,-54,156c0,0,-15,92,-15,209c0,0,0,115,19,208c0,0,19,94,61,160c0,0,42,65,110,101c0,0,68,35,165,35c0,0,99,0,164,-34c0,0,65,-34,103,-98c0,0,39,-64,53,-156c0,0,15,-92,15,-209c0,0,0,-115,-18,-209c0,0,-19,-93,-61,-159C653,118,611,53,543,17c0,0,-67,-34,-165,-34Z" 
id="f0_rx"
transform="scale(0.001,-0.001)" />

<path d="M142,0c0,0,-6,0,-12,4c0,0,-5,3,-9,12c0,0,-4,9,-6,23c0,0,-3,15,-3,36c0,0,0,21,2,36c0,0,2,14,6,23c0,0,4,9,10,13c0,0,5,5,12,5H322V779L166,693c0,0,-17,-8,-28,-10c0,0,-1,0,-3,0c-4,0,-10,1,-14,5c0,0,-6,6,-8,22c0,0,-2,15,-2,44c0,0,0,18,0,29c0,0,1,12,4,20c0,0,3,8,8,14c0,0,5,5,14,11L345,962c0,0,4,3,9,5c0,0,6,2,15,3c0,0,9,1,23,2c0,0,15,0,38,0c0,0,28,0,46,-1c0,0,17,-1,26,-4c0,0,9,-3,12,-7c0,0,3,-4,3,-11V152H675c0,0,7,0,12,-5c0,0,6,-4,10,-13c0,0,4,-9,6,-23c0,0,2,-15,2,-36c0,0,0,-21,-2,-36c0,0,-3,-14,-7,-23c0,0,-4,-9,-9,-12c0,0,-5,-4,-12,-4Z" 
id="f0_ry"
transform="scale(0.001,-0.001)" />

<path d="M259,-4c0,0,-39,0,-62,3c0,0,-23,1,-34,7c0,0,-11,6,-12,14c0,0,-1,9,5,21L498,796H92c0,0,-16,0,-24,20c0,0,-7,21,-7,65c0,0,0,22,2,38c0,0,2,16,6,27c0,0,4,10,10,15c0,0,6,4,13,4H666c0,0,13,0,22,-3c0,0,9,-2,14,-11c0,0,6,-9,8,-25c0,0,3,-17,3,-43c0,0,0,-22,-2,-38c0,0,-1,-16,-4,-30c0,0,-2,-13,-7,-26c0,0,-4,-12,-10,-26L372,26c0,0,-5,-10,-12,-16c0,0,-7,-6,-20,-9c0,0,-12,-3,-32,-4c0,0,-20,-1,-49,-1Z" 
id="f0_s4"
transform="scale(0.001,-0.001)" />

<path d="M589,371L453,782h-1L317,371ZM106,-4c0,0,-35,0,-54,2C52,-2,32,0,25,8c0,0,-7,9,-5,24c0,0,2,16,11,42L329,931c0,0,4,13,10,21c0,0,6,7,19,12c0,0,13,4,36,5c0,0,23,1,61,1c0,0,44,0,71,-1c0,0,26,-1,40,-5c0,0,15,-5,21,-13c0,0,6,-8,11,-22L896,73c0,0,9,-27,11,-43c0,0,3,-15,-6,-23c0,0,-8,-7,-29,-9c0,0,-21,-2,-57,-2c0,0,-38,0,-59,1c0,0,-22,1,-33,4c0,0,-11,3,-16,9c0,0,-4,6,-7,16L635,220H272L211,31c0,0,-2,-11,-7,-18c0,0,-5,-7,-16,-11c0,0,-11,-3,-31,-4c0,0,-19,-2,-51,-2Z" 
id="f0_5"
transform="scale(0.001,-0.001)" />

<path d="M198,-4c0,0,-27,0,-45,2c0,0,-18,2,-28,5c0,0,-11,4,-15,10c0,0,-4,6,-4,13V887c0,0,0,38,20,58c0,0,20,20,53,20H308c0,0,34,0,59,-6c0,0,24,-5,42,-18c0,0,18,-13,30,-35c0,0,12,-21,21,-52L669,279h3L889,852c0,0,9,32,21,53c0,0,11,22,27,35c0,0,15,14,36,19c0,0,21,6,48,6h132c0,0,21,0,35,-5c0,0,15,-5,24,-15c0,0,9,-11,14,-25c0,0,5,-15,5,-33V26c0,0,0,-7,-4,-13c0,0,-4,-6,-15,-10c0,0,-11,-3,-29,-5c0,0,-18,-2,-45,-2c0,0,-27,0,-45,2c0,0,-18,2,-28,5c0,0,-11,4,-15,10c0,0,-5,6,-5,13V813h-1L764,27c0,0,-3,-10,-10,-16c0,0,-6,-6,-18,-10c0,0,-12,-3,-29,-4c0,0,-18,-1,-44,-1c0,0,-25,0,-43,2c0,0,-18,2,-29,5c0,0,-12,4,-19,10c0,0,-6,6,-9,14L293,813h-2V26c0,0,0,-7,-4,-13c0,0,-4,-6,-15,-10c0,0,-11,-3,-29,-5c0,0,-17,-2,-45,-2Z" 
id="f0_1x"
transform="scale(0.001,-0.001)" />

<path d="M193,-4c0,0,-26,0,-43,2c0,0,-18,2,-27,6c0,0,-10,4,-14,10c0,0,-3,6,-3,13V895c0,0,0,35,20,53c0,0,21,17,50,17H282c0,0,28,0,47,-5c0,0,20,-5,35,-16c0,0,15,-11,29,-31c0,0,13,-20,27,-49L608,511c0,0,17,-32,33,-63c0,0,16,-31,31,-62c0,0,14,-31,29,-60c0,0,14,-30,27,-60h1c0,0,-2,52,-3,109c0,0,-1,57,-1,108V936c0,0,0,7,4,13c0,0,5,6,15,11c0,0,10,4,28,6c0,0,17,2,44,2c0,0,25,0,42,-2c0,0,17,-2,27,-6c0,0,9,-5,13,-11c0,0,4,-6,4,-13V68c0,0,0,-17,-6,-30c0,0,-6,-14,-17,-23C879,15,869,6,856,2c0,0,-14,-3,-28,-3H744c0,0,-26,0,-45,4c0,0,-19,5,-35,19c0,0,-16,14,-31,38c0,0,-15,23,-34,60L359,572c0,0,-21,40,-43,86c0,0,-21,47,-38,91h-2c0,0,3,-54,5,-107c0,0,2,-53,2,-110V27c0,0,0,-7,-5,-13c0,0,-4,-6,-14,-10c0,0,-10,-4,-27,-6c0,0,-17,-2,-44,-2Z" 
id="f0_1y"
transform="scale(0.001,-0.001)" />

<path d="M378,-4c0,0,-28,0,-47,2c0,0,-19,2,-31,5c0,0,-11,4,-16,10c0,0,-4,6,-4,13V805H38c0,0,-8,0,-13,4c0,0,-5,5,-9,14c0,0,-3,9,-5,25c0,0,-2,15,-2,37c0,0,0,22,2,38c0,0,2,15,5,25c0,0,4,9,9,13c0,0,5,4,13,4H718c0,0,7,0,12,-4c0,0,6,-4,10,-13c0,0,3,-10,5,-25c0,0,2,-16,2,-38c0,0,0,-22,-2,-37c0,0,-2,-16,-5,-25c0,0,-4,-9,-10,-14c0,0,-5,-4,-12,-4H476V26c0,0,0,-7,-5,-13c0,0,-5,-6,-16,-10c0,0,-11,-3,-30,-5c0,0,-19,-2,-47,-2Z" 
id="f0_2t"
transform="scale(0.001,-0.001)" />

<path d="M514,145c0,0,72,0,121,27c0,0,48,26,78,73c0,0,30,46,42,107c0,0,13,62,13,131c0,0,0,76,-12,139c0,0,-12,62,-41,106c0,0,-29,45,-76,69c0,0,-48,24,-120,24c0,0,-72,0,-120,-27c0,0,-49,-27,-79,-73c0,0,-29,-45,-42,-106c0,0,-12,-61,-12,-129c0,0,0,-79,12,-142c0,0,12,-63,40,-108c0,0,28,-44,76,-68c0,0,48,-23,120,-23ZM508,-17c0,0,-113,0,-196,29c0,0,-84,29,-140,90c0,0,-56,60,-84,154c0,0,-28,93,-28,221c0,0,0,117,29,210c0,0,30,94,89,160c0,0,59,65,146,101c0,0,87,35,202,35c0,0,110,0,194,-29c0,0,84,-30,140,-90c0,0,56,-60,85,-153c0,0,29,-92,29,-217c0,0,0,-120,-30,-215c0,0,-30,-95,-89,-161C855,118,796,52,709,17c0,0,-87,-34,-201,-34Z" 
id="f0_24"
transform="scale(0.001,-0.001)" />

<path d="M299,0V777H162l36,173H508V0Z" 
id="f1_l"
transform="scale(0.001,-0.001)" />

<path d="M75,0L400,413c0,0,71,91,101,149c0,0,30,58,30,109c0,0,0,55,-36,91c0,0,-36,36,-91,36c0,0,-63,0,-91,-45c0,0,-28,-46,-34,-142H67c0,0,0,173,102,268c0,0,102,95,253,95c0,0,140,0,229,-82c0,0,89,-82,89,-209c0,0,0,-125,-104,-276L580,324c0,0,-34,-50,-85,-114L468,178H740V0Z" 
id="f1_m"
transform="scale(0.001,-0.001)" />

<path d="M44,-281L425,1053H537L156,-281Z" 
id="f1_j"
transform="scale(0.001,-0.001)" />

<path d="M410,-14c0,0,-86,0,-175,14C235,0,145,14,81,38V307h66L181,146c0,0,31,-37,94,-62c0,0,64,-24,132,-24c0,0,214,0,214,177c0,0,0,55,-41,93c0,0,-41,38,-128,68c0,0,-128,42,-185,68c0,0,-56,27,-95,63c0,0,-38,36,-62,87c0,0,-23,51,-23,125c0,0,0,132,90,201c0,0,90,69,263,69c0,0,125,0,278,-32V741H651L618,878c0,0,-76,56,-178,56c0,0,-92,0,-141,-34c0,0,-49,-34,-49,-104c0,0,0,-50,41,-86c0,0,41,-35,128,-63c0,0,171,-56,235,-97c0,0,64,-41,97,-103c0,0,34,-61,34,-143c0,0,0,-318,-375,-318Z" 
id="f2_1j"
transform="scale(0.001,-0.001)" />

<path d="M379,60c0,0,59,0,84,64c0,0,24,65,24,231c0,0,0,164,-24,227c0,0,-24,63,-84,63c0,0,-57,0,-80,-60c0,0,-22,-61,-22,-230c0,0,0,-173,23,-234c0,0,22,-61,79,-61Zm-2,-74c0,0,-161,0,-240,91c0,0,-79,91,-79,277c0,0,0,186,80,276c0,0,81,90,245,90c0,0,167,0,245,-93c0,0,78,-93,78,-273c0,0,0,-188,-81,-278c0,0,-81,-90,-248,-90Z" 
id="f2_2b"
transform="scale(0.001,-0.001)" />

<path d="M30,0V49l76,18V992l-72,18v50H322V67L398,49V0Z" 
id="f2_28"
transform="scale(0.001,-0.001)" />

<path d="M287,-18c0,0,-194,0,-194,206V634L23,652v49H309V217c0,0,0,-63,26,-98c0,0,27,-35,76,-35c0,0,57,0,113,25V634l-64,18v49H740V67L809,49V0H536L526,61L475,35c0,0,-104,-53,-188,-53Z" 
id="f2_2h"
transform="scale(0.001,-0.001)" />

<path d="M327,-14c0,0,-101,0,-156,45c0,0,-55,45,-55,131V624H25v48l108,29l87,159H332V701H480V624H332V176c0,0,0,-49,20,-73c0,0,20,-25,53,-25c0,0,40,0,97,12V26c0,0,-22,-15,-76,-27c0,0,-55,-13,-99,-13Z" 
id="f2_2g"
transform="scale(0.001,-0.001)" />

<path d="M34,0V49l76,18V634L38,652v49H325V67L402,49V0ZM217,831c0,0,-48,0,-81,33c0,0,-34,33,-34,82c0,0,0,48,34,81c0,0,34,33,81,33c0,0,48,0,81,-33c0,0,33,-33,33,-81c0,0,0,-47,-33,-81c0,0,-32,-34,-81,-34Z" 
id="f2_25"
transform="scale(0.001,-0.001)" />

<path d="M41,0V49l69,18V634L41,652v49H313l11,-61l50,26c0,0,105,54,188,54c0,0,194,0,194,-207V67L827,49V0H478V49l63,18V484c0,0,0,63,-27,98c0,0,-26,35,-75,35c0,0,-57,0,-114,-25V67L389,49V0Z" 
id="f2_2a"
transform="scale(0.001,-0.001)" />

<path d="M248,-20c0,0,-52,0,-87,34c0,0,-36,36,-36,88c0,0,0,52,36,88c0,0,35,36,87,36c0,0,52,0,88,-36c0,0,36,-36,36,-88c0,0,0,-51,-36,-87c0,0,-35,-35,-88,-35Zm0,488c0,0,-52,0,-87,36c0,0,-36,36,-36,88c0,0,0,52,35,88c0,0,35,36,88,36c0,0,53,0,89,-36c0,0,35,-37,35,-88c0,0,0,-51,-36,-87c0,0,-35,-37,-88,-37Z" 
id="f2_u"
transform="scale(0.001,-0.001)" />

<path d="M465,786H442L239,946L67,786H45l141,248H324L465,786Z" 
id="f3_5z"
transform="scale(0.001,-0.001)" />

<path d="M67,0V109L206,235c0,0,133,118,196,190c0,0,63,72,90,149c0,0,27,77,27,177c0,0,0,97,-44,148c0,0,-44,50,-144,50c0,0,-39,0,-81,-10c0,0,-42,-11,-74,-29L150,787H101V980c0,0,135,32,230,32c0,0,164,0,247,-68c0,0,82,-69,82,-193c0,0,0,-84,-32,-158c0,0,-33,-75,-100,-148c0,0,-67,-74,-222,-206c0,0,-67,-57,-141,-125H680V0Z" 
id="f4_m"
transform="scale(0.001,-0.001)" />

<path d="M410,45c0,0,90,0,130,58c0,0,40,59,40,193c0,0,0,122,-38,177c0,0,-38,54,-122,54c0,0,-102,0,-217,-37c0,0,0,-227,51,-336c0,0,52,-109,156,-109Zm3,-59c0,0,-169,0,-258,131c0,0,-89,131,-89,377c0,0,0,161,47,278c0,0,47,117,131,178c0,0,85,61,196,61c0,0,109,0,217,-26V813H608L582,915c0,0,-25,13,-67,23c0,0,-41,10,-75,10c0,0,-109,0,-170,-105c0,0,-60,-106,-66,-308c0,0,121,63,244,63c0,0,132,0,201,-74c0,0,69,-74,69,-214c0,0,0,-156,-78,-240c0,0,-79,-84,-227,-84Z" 
id="f4_q"
transform="scale(0.001,-0.001)" />

<path d="M350,-14c0,0,-142,0,-269,31L73,228h49L156,87c0,0,29,-16,82,-28c0,0,54,-12,100,-12c0,0,117,0,173,54c0,0,56,53,56,178c0,0,0,99,-52,150c0,0,-51,51,-159,56l-107,6v61l107,7c0,0,84,5,124,52c0,0,41,48,41,145c0,0,0,101,-44,147c0,0,-44,45,-139,45c0,0,-40,0,-83,-10c0,0,-43,-11,-76,-29L153,786H104V979c0,0,74,19,127,26c0,0,54,6,107,6c0,0,321,0,321,-246c0,0,0,-104,-57,-165c0,0,-57,-62,-162,-77c0,0,136,-16,200,-78c0,0,64,-62,64,-173c0,0,0,-135,-92,-211c0,0,-93,-75,-262,-75Z" 
id="f4_n"
transform="scale(0.001,-0.001)" />

<path d="M350,-14c0,0,-142,0,-253,31L89,228h49L172,87c0,0,32,-18,78,-29c0,0,46,-11,88,-11c0,0,118,0,173,56c0,0,56,55,56,187c0,0,0,93,-24,140c0,0,-24,47,-76,70c0,0,-52,22,-140,22c0,0,-68,0,-133,-18H122v496H630V886H189V567c0,0,81,18,173,18c0,0,173,0,258,-71c0,0,84,-71,84,-216c0,0,0,-151,-92,-232c0,0,-91,-80,-262,-80Z" 
id="f4_p"
transform="scale(0.001,-0.001)" />

<path d="M191,-20c0,0,-39,0,-65,25c0,0,-25,27,-25,64c0,0,0,38,26,64c0,0,26,26,64,26c0,0,38,0,64,-26c0,0,26,-26,26,-64c0,0,0,-37,-25,-64c0,0,-26,-25,-65,-25Z" 
id="f4_i"
transform="scale(0.001,-0.001)" />

<path d="M377,45c0,0,99,0,145,108c0,0,46,109,46,352c0,0,0,240,-45,345c0,0,-46,106,-146,106c0,0,-97,0,-139,-100c0,0,-43,-99,-43,-351c0,0,0,-254,44,-357c0,0,43,-103,138,-103Zm0,-59c0,0,-158,0,-238,132c0,0,-81,133,-81,386c0,0,0,249,81,380c0,0,80,132,244,132c0,0,159,0,241,-130c0,0,82,-130,82,-382c0,0,0,-518,-329,-518Z" 
id="f4_k"
transform="scale(0.001,-0.001)" />

<path d="M631,416L539,902L283,416ZM576,0l8,40L691,60L643,348H249L96,60L197,40L189,0H-83l8,40L7,60l509,949H659L845,60L938,40L930,0Z" 
id="f5_11"
transform="scale(0.001,-0.001)" />

<path d="M459,63c0,0,143,0,210,55c0,0,67,56,67,185c0,0,0,101,-66,146c0,0,-66,46,-190,46H341L266,67c0,0,114,-4,193,-4Zm18,499c0,0,144,0,206,49c0,0,61,48,61,170c0,0,0,77,-48,115c0,0,-48,37,-160,37H419L353,562ZM459,-4L173,0H14l8,40l99,20L277,941L151,960l8,40H570c0,0,330,0,330,-210c0,0,0,-105,-66,-174c0,0,-66,-69,-184,-85c0,0,115,-9,179,-69c0,0,63,-59,63,-157c0,0,0,-160,-108,-235C784,70,675,-4,459,-4Z" 
id="f5_12"
transform="scale(0.001,-0.001)" />

<path d="M85,0L199,649l-96,19l6,33H332L218,52L335,33L329,0ZM297,849c0,0,-33,0,-57,24c0,0,-24,24,-24,57c0,0,0,33,24,57c0,0,24,24,57,24c0,0,33,0,57,-24c0,0,24,-24,24,-57c0,0,0,-33,-24,-57c0,0,-24,-24,-57,-24Z" 
id="f5_25"
transform="scale(0.001,-0.001)" />

<path d="M-43,-325c0,0,-60,0,-119,23l24,140h35l12,-83c0,0,20,-20,52,-20c0,0,48,0,76,48c0,0,28,48,46,151L210,649L107,668l6,33H342L213,-28c0,0,-27,-151,-90,-224c0,0,-63,-73,-166,-73ZM306,849c0,0,-33,0,-57,24c0,0,-24,24,-24,57c0,0,0,33,24,57c0,0,24,24,57,24c0,0,33,0,57,-24c0,0,24,-24,24,-57c0,0,0,-33,-24,-57c0,0,-24,-24,-57,-24Z" 
id="f5_26"
transform="scale(0.001,-0.001)" />

<path d="M44,0L223,1008l-101,18l6,34H356L228,338L547,647l-70,20l6,34H700l-5,-34L634,650L415,441L596,51L669,34L663,0H487L324,357L214,254L168,0Z" 
id="f5_27"
transform="scale(0.001,-0.001)" />

<path d="M521,-14c0,0,-205,0,-320,107C201,93,85,200,85,390c0,0,0,185,77,326c0,0,77,142,220,219c0,0,142,76,324,76c0,0,158,0,327,-38L1000,755H951V884c0,0,-46,32,-112,50c0,0,-65,17,-137,17c0,0,-135,0,-242,-72c0,0,-107,-72,-166,-203c0,0,-60,-132,-60,-301c0,0,0,-160,78,-244c0,0,78,-84,222,-84c0,0,85,0,166,25c0,0,82,26,133,65l53,149h49L889,52C889,52,803,20,705,3c0,0,-99,-17,-184,-17Z" 
id="f5_13"
transform="scale(0.001,-0.001)" />

<path d="M0,214v74H784V214ZM0,494v72H784V494Z" 
id="f6_x"
transform="scale(0.001,-0.001)" />

<path d="M0,356v74H784V356Z" 
id="f6_h"
transform="scale(0.001,-0.001)" />

<path d="M355,0V355H0v72H355V784h72V427H782V355H427V0Z" 
id="f6_f"
transform="scale(0.001,-0.001)" />

<path d="M0,0V72H441v940h72V72H949V0Z" 
id="f6_1u"
transform="scale(0.001,-0.001)" />

<path d="M681,416L504,902L333,416ZM669,0V40L803,60L704,348H310L210,60L344,40V0H15V40L128,60l341,949H611L965,60L1092,40V0Z" 
id="f4_11"
transform="scale(0.001,-0.001)" />

<path d="M536,63c0,0,127,0,191,54c0,0,63,54,63,168c0,0,0,105,-70,154c0,0,-70,49,-225,49H316V67c0,0,103,-4,220,-4ZM480,555c0,0,121,0,178,48c0,0,57,48,57,155c0,0,0,91,-58,133c0,0,-57,42,-186,42H316V555ZM554,-4L235,0H44V40L172,60V941L44,960v40H501c0,0,191,0,279,-56c0,0,88,-56,88,-179c0,0,0,-88,-55,-149c0,0,-54,-62,-151,-83c0,0,135,-14,209,-79c0,0,73,-65,73,-166c0,0,0,-144,-99,-219C845,69,745,-4,554,-4Z" 
id="f4_12"
transform="scale(0.001,-0.001)" />

<path d="M577,-14c0,0,-243,0,-379,132C198,118,63,250,63,488c0,0,0,258,130,391c0,0,131,132,387,132c0,0,156,0,335,-38l5,-218H871L848,884c0,0,-52,32,-121,50c0,0,-69,17,-141,17c0,0,-191,0,-279,-112c0,0,-88,-113,-88,-349c0,0,0,-217,92,-332c0,0,92,-115,268,-115c0,0,85,0,160,20c0,0,76,21,120,55l27,149h49L930,32c0,0,-164,-46,-353,-46Z" 
id="f4_13"
transform="scale(0.001,-0.001)" />

<path d="M83,0C83,0,48,0,24,24C24,24,0,49,0,83c0,0,0,34,24,58c0,0,24,24,59,24c0,0,34,0,58,-24c0,0,24,-24,24,-58c0,0,0,-34,-24,-59C141,24,117,0,83,0ZM695,0c0,0,-34,0,-58,24c0,0,-25,25,-25,59c0,0,0,34,25,58c0,0,24,24,58,24c0,0,34,0,58,-24c0,0,24,-24,24,-58c0,0,0,-34,-24,-59C753,24,729,0,695,0ZM388,594c0,0,-34,0,-59,23c0,0,-24,24,-24,59c0,0,0,34,24,58c0,0,25,25,59,25c0,0,34,0,58,-25c0,0,24,-24,24,-58c0,0,0,-35,-24,-59c0,0,-24,-23,-58,-23Z" 
id="f6_1s"
transform="scale(0.001,-0.001)" />

<path d="M719,62L422,783L93,62ZM0,0L469,1034L896,0Z" 
id="f6_14"
transform="scale(0.001,-0.001)" />

<path d="M32,0V33L151,52V649L52,668v33H275V52L395,33V0ZM201,850c0,0,-32,0,-56,24c0,0,-24,24,-24,56c0,0,0,34,24,58c0,0,24,24,56,24c0,0,34,0,58,-24c0,0,24,-24,24,-58c0,0,0,-32,-24,-56c0,0,-24,-24,-58,-24Z" 
id="f4_25"
transform="scale(0.001,-0.001)" />

<path d="M278,-14c0,0,-52,0,-115,11c0,0,-63,10,-99,23V193H98L134,95c0,0,56,-50,146,-50c0,0,144,0,144,123c0,0,0,91,-114,130l-66,21c0,0,-75,25,-110,50c0,0,-34,26,-53,63c0,0,-18,36,-18,89c0,0,0,92,63,145c0,0,63,54,170,54c0,0,77,0,193,-23V544H454l-32,81c0,0,-39,35,-124,35c0,0,-61,0,-92,-30c0,0,-32,-30,-32,-80c0,0,0,-43,29,-72c0,0,28,-29,86,-48c0,0,110,-38,144,-55c0,0,33,-17,57,-42c0,0,23,-25,36,-57c0,0,13,-32,13,-79c0,0,0,-104,-66,-158c0,0,-66,-53,-195,-53Z" 
id="f4_2f"
transform="scale(0.001,-0.001)" />

<path d="M284,67c0,0,51,0,88,12c0,0,37,12,74,30V358l-98,-3c0,0,-100,-4,-135,-39c0,0,-35,-35,-35,-117c0,0,0,-132,106,-132ZM233,-14c0,0,-179,0,-179,208c0,0,0,70,27,116c0,0,27,46,87,70c0,0,60,24,173,27l105,3V519c0,0,0,72,-26,107c0,0,-27,34,-82,34c0,0,-75,0,-137,-35L176,538H134V691c0,0,121,26,213,26c0,0,115,0,169,-47c0,0,54,-47,54,-144V52L657,33V0H465L451,70c0,0,-85,-84,-218,-84Z" 
id="f4_1x"
transform="scale(0.001,-0.001)" />

<path d="M31,0V33l88,19V649L31,668v33H235l7,-87c0,0,44,37,121,71c0,0,76,35,121,35h11V530H463l-43,82c0,0,-37,0,-88,-10c0,0,-52,-10,-89,-26V52L363,33V0Z" 
id="f4_2e"
transform="scale(0.001,-0.001)" />

<path d="M359,-270c0,0,124,0,192,46c0,0,67,47,67,129c0,0,0,43,-26,67c0,0,-26,24,-79,24H242c0,0,-32,-27,-51,-69c0,0,-20,-41,-20,-77c0,0,0,-64,46,-92c0,0,46,-28,142,-28Zm11,561c0,0,81,0,115,47c0,0,34,47,34,141c0,0,0,100,-35,142c0,0,-35,42,-113,42c0,0,-78,0,-114,-43c0,0,-37,-42,-37,-141c0,0,0,-98,36,-143c0,0,36,-45,114,-45ZM359,-329c0,0,-143,0,-218,44c0,0,-75,43,-75,125c0,0,0,39,27,78c0,0,26,38,98,89c0,0,-43,14,-72,48c0,0,-29,35,-29,74L208,262c0,0,-118,55,-118,217c0,0,0,115,73,178c0,0,73,63,211,63c0,0,28,0,71,-6c0,0,44,-6,67,-13l165,83l26,-32L599,644c0,0,50,-56,50,-165c0,0,0,-120,-72,-182c0,0,-73,-62,-208,-62c0,0,-62,0,-114,11L208,148c0,0,2,-13,29,-24c0,0,27,-12,67,-12H512c0,0,113,0,168,-49c0,0,55,-49,55,-134c0,0,0,-79,-44,-137c0,0,-43,-58,-128,-90c0,0,-84,-31,-204,-31Z" 
id="f4_23"
transform="scale(0.001,-0.001)" />

<path d="M442,0V33l93,19V504c0,0,0,129,-124,129c0,0,-70,0,-168,-22V52L338,33V0H31V33l88,19v956L15,1026v34H243V756c0,0,0,-77,-5,-112c0,0,54,31,122,53c0,0,68,23,115,23c0,0,91,0,137,-53c0,0,47,-53,47,-154V52L744,33V0Z" 
id="f4_24"
transform="scale(0.001,-0.001)" />

<path d="M249,-14c0,0,-71,0,-107,42c0,0,-35,42,-35,119V639H15v33l93,29l76,159h47V701H391V639H231V161c0,0,0,-48,22,-73c0,0,22,-24,57,-24c0,0,44,0,106,12V26C416,26,389,8,340,-2c0,0,-49,-12,-91,-12Z" 
id="f4_2g"
transform="scale(0.001,-0.001)" />

<path d="M439,0V33l93,19V500c0,0,0,62,-30,97c0,0,-31,36,-94,36c0,0,-67,0,-165,-22V52L338,33V0H35V33l84,19V649L35,668v33H235l7,-57c0,0,57,33,122,54c0,0,65,22,108,22c0,0,91,0,137,-53c0,0,47,-53,47,-154V52L741,33V0Z" 
id="f4_2a"
transform="scale(0.001,-0.001)" />

<path d="M31,0V33L150,52v956L31,1026v34H274V52L394,33V0Z" 
id="f4_28"
transform="scale(0.001,-0.001)" />

<path d="M495,413c0,0,0,133,-34,190c0,0,-34,57,-105,57c0,0,-78,0,-119,-63c0,0,-42,-62,-42,-184ZM374,-14c0,0,-163,0,-239,87c0,0,-75,88,-75,283c0,0,0,183,77,273c0,0,76,91,219,91c0,0,269,0,269,-306V353H194V340c0,0,0,-103,23,-160c0,0,22,-57,70,-87c0,0,47,-29,124,-29c0,0,40,0,96,6c0,0,55,7,91,15V43C598,43,562,20,500,3c0,0,-61,-17,-126,-17Z" 
id="f4_21"
transform="scale(0.001,-0.001)" />

<path d="M383,64c0,0,85,0,152,28V645c0,0,-67,13,-152,13c0,0,-194,0,-194,-314c0,0,0,-141,48,-211c0,0,48,-69,146,-69ZM342,-14c0,0,-287,0,-287,358c0,0,0,184,82,280c0,0,81,96,239,96c0,0,81,0,163,-18c0,0,-4,25,-4,124v182l-118,18v34H659V52L745,33V0H548l-9,52c0,0,-84,-66,-197,-66Z" 
id="f4_20"
transform="scale(0.001,-0.001)" />

<path d="M134,0V40L339,60V876L137,804v39l292,166h39V60L672,40V0Z" 
id="f4_l"
transform="scale(0.001,-0.001)" />

<path d="M115,-329V1060h76V-329Z" 
id="f4_2o"
transform="scale(0.001,-0.001)" />

<path d="M476,327V830h-4L114,327ZM476,0V220H30v99l488,686h86V327H740V220H604V0Z" 
id="f4_o"
transform="scale(0.001,-0.001)" />

<path d="M370,468c0,0,96,0,194,40c0,0,0,229,-45,336c0,0,-45,107,-146,107c0,0,-187,0,-187,-259c0,0,0,-115,45,-169c0,0,45,-55,139,-55ZM312,-14c0,0,-122,0,-223,25V184h48L163,76c0,0,24,-11,65,-20c0,0,40,-9,81,-9c0,0,119,0,183,105c0,0,65,104,71,307c0,0,-113,-62,-230,-62c0,0,-132,0,-208,79c0,0,-76,78,-76,219c0,0,0,151,85,233c0,0,84,83,237,83c0,0,171,0,251,-123c0,0,79,-123,79,-385c0,0,0,-252,-102,-385C599,118,497,-14,312,-14Z" 
id="f4_t"
transform="scale(0.001,-0.001)" />

<path d="M76,316v76H787V316Zm0,306v76H787V622Z" 
id="f4_x"
transform="scale(0.001,-0.001)" />

<path d="M64,0V141c0,0,64,68,119,123c0,0,119,118,174,185c0,0,56,68,81,140c0,0,26,72,26,165c0,0,0,81,-40,131c0,0,-39,50,-105,50c0,0,-46,0,-74,-10c0,0,-27,-10,-50,-29L163,751H98V979c0,0,59,13,116,23c0,0,58,9,125,9c0,0,165,0,252,-68c0,0,88,-68,88,-193c0,0,0,-78,-26,-142c0,0,-26,-64,-83,-124c0,0,-56,-61,-224,-197c0,0,-64,-52,-139,-119H698V0Z" 
id="f2_m"
transform="scale(0.001,-0.001)" />

<path d="M379,60c0,0,55,0,82,103c0,0,26,104,26,342c0,0,0,233,-26,335c0,0,-26,102,-82,102c0,0,-55,0,-79,-99c0,0,-23,-99,-23,-338c0,0,0,-244,24,-345c0,0,24,-100,78,-100Zm-2,-74c0,0,-158,0,-238,132c0,0,-81,133,-81,386c0,0,0,249,81,380c0,0,80,132,244,132c0,0,159,0,241,-130c0,0,82,-130,82,-382c0,0,0,-518,-329,-518Z" 
id="f2_k"
transform="scale(0.001,-0.001)" />

<path d="M191,-20c0,0,-51,0,-88,34c0,0,-36,36,-36,88c0,0,0,52,36,88c0,0,36,36,88,36c0,0,51,0,88,-36c0,0,36,-36,36,-88c0,0,0,-51,-36,-87c0,0,-36,-35,-88,-35Z" 
id="f2_i"
transform="scale(0.001,-0.001)" />

<path d="M24,0V27H60c0,0,63,0,91,37c0,0,18,24,18,115V833c0,0,0,77,-10,102c0,0,-7,18,-30,32c0,0,-32,18,-69,18H24v27H776L787,790H761c0,0,-20,71,-45,104c0,0,-26,33,-64,48c0,0,-37,15,-117,15H312V558H497c0,0,63,0,93,28c0,0,29,28,39,111h27V355H629c0,0,-1,59,-16,87c0,0,-14,27,-40,41c0,0,-26,14,-76,14H312V179c0,0,0,-77,10,-102c0,0,7,-18,31,-32c0,0,33,-18,69,-18h37V0Z" 
id="f3_16"
transform="scale(0.001,-0.001)" />

<path d="M55,0V26c0,0,50,0,67,10c0,0,17,10,27,32c0,0,10,23,10,86V418c0,0,0,111,-6,144c0,0,-6,24,-17,33c0,0,-11,10,-30,10c0,0,-21,0,-51,-11L45,620l206,83h33V154c0,0,0,-64,9,-85c0,0,9,-22,27,-32c0,0,19,-11,67,-11V0ZM222,909c0,0,-32,0,-54,23c0,0,-22,22,-22,53c0,0,0,32,22,54c0,0,22,22,54,22c0,0,31,0,53,-22c0,0,22,-22,22,-54c0,0,0,-31,-22,-53c0,0,-22,-23,-53,-23Z" 
id="f3_25"
transform="scale(0.001,-0.001)" />

<path d="M21,0V26H35c0,0,53,0,71,27c0,0,18,27,18,101V408c0,0,0,123,-5,150c0,0,-6,27,-17,37c0,0,-12,10,-31,10c0,0,-21,0,-50,-11L10,620l206,83h32V558c0,0,120,145,229,145c0,0,56,0,96,-28c0,0,40,-28,64,-92c0,0,16,-45,16,-137V154c0,0,0,-65,11,-88c0,0,8,-19,26,-29c0,0,18,-11,68,-11V0H419V26h14c0,0,47,0,66,15c0,0,20,15,27,43c0,0,3,11,3,70V434c0,0,0,93,-24,135c0,0,-24,42,-81,42c0,0,-88,0,-176,-97V154c0,0,0,-69,9,-86c0,0,10,-21,28,-31c0,0,19,-11,75,-11V0Z" 
id="f3_2a"
transform="scale(0.001,-0.001)" />

<path d="M399,62c0,0,68,0,131,68V481c0,0,-5,51,-27,93c0,0,-22,42,-59,63c0,0,-37,21,-72,21c0,0,-65,0,-117,-59c0,0,-67,-77,-67,-226c0,0,0,-151,65,-231c0,0,66,-80,146,-80ZM330,-20c0,0,-112,0,-196,93c0,0,-83,94,-83,240c0,0,0,147,92,269c0,0,93,122,238,122c0,0,90,0,149,-58V773c0,0,0,117,-6,144c0,0,-5,27,-17,37c0,0,-12,9,-30,9c0,0,-20,0,-52,-12l-9,27l204,83h33V270c0,0,0,-120,6,-146c0,0,5,-27,18,-37c0,0,12,-11,28,-11c0,0,21,0,54,13l9,-26L564,-20H530V78C530,78,480,25,432,2c0,0,-47,-22,-102,-22Z" 
id="f3_20"
transform="scale(0.001,-0.001)" />

<path d="M255,-10c0,0,-35,0,-68,18c0,0,-32,19,-48,55c0,0,-16,35,-16,109V632H15v24c0,0,41,16,84,56c0,0,43,39,77,92c0,0,17,29,48,104h23V683H407V632H247V188c0,0,0,-66,19,-90c0,0,19,-23,49,-23c0,0,24,0,47,16c0,0,23,15,36,45h29c0,0,-26,-73,-74,-110c0,0,-47,-36,-98,-36Z" 
id="f3_2g"
transform="scale(0.001,-0.001)" />

<path d="M20,0V26c0,0,45,0,71,15c0,0,15,7,24,28c0,0,9,21,9,85V773c0,0,0,117,-5,144c0,0,-6,27,-17,37c0,0,-12,9,-31,9c0,0,-16,0,-51,-12L10,978l204,83h34V561c0,0,83,91,131,116c0,0,49,26,97,26c0,0,58,0,100,-32c0,0,42,-32,62,-101c0,0,14,-47,14,-174V154c0,0,0,-65,11,-89c0,0,7,-18,25,-28c0,0,18,-11,66,-11V0H418V26h15c0,0,48,0,67,15c0,0,18,15,26,43c0,0,2,12,2,70V396c0,0,0,112,-12,147c0,0,-11,35,-36,53c0,0,-26,17,-61,17c0,0,-37,0,-76,-19c0,0,-40,-20,-95,-79V154c0,0,0,-70,8,-87c0,0,8,-17,29,-29c0,0,22,-12,74,-12V0Z" 
id="f3_24"
transform="scale(0.001,-0.001)" />

<path d="M479,469c0,0,-4,66,-16,93c0,0,-18,42,-55,65c0,0,-37,24,-78,24c0,0,-62,0,-111,-48c0,0,-48,-48,-57,-134ZM355,-20c0,0,-123,0,-211,95c0,0,-87,96,-87,258c0,0,0,175,90,273c0,0,89,98,225,98c0,0,115,0,189,-76c0,0,74,-75,74,-202H162c0,0,0,-152,74,-239c0,0,75,-86,175,-86c0,0,67,0,117,36c0,0,50,37,83,127l24,-15c0,0,-16,-102,-91,-186c0,0,-76,-83,-189,-83Z" 
id="f3_21"
transform="scale(0.001,-0.001)" />

<path d="M376,-20L133,556c0,0,-17,41,-31,58c0,0,-15,18,-39,30c0,0,-12,7,-50,13v26H335V657H314c0,0,-29,0,-44,-14c0,0,-16,-14,-15,-38c0,0,-1,-26,15,-62L429,165L588,557c0,0,17,42,17,64c0,0,0,10,-6,17c0,0,-8,11,-21,15c0,0,-13,4,-52,4v26H750V657c0,0,-39,-3,-54,-16c0,0,-26,-23,-47,-76L409,-20Z" 
id="f3_2i"
transform="scale(0.001,-0.001)" />

<path d="M286,72c0,0,57,0,149,75V407c0,0,-113,-45,-145,-64c0,0,-59,-32,-85,-68c0,0,-25,-36,-25,-78c0,0,0,-54,32,-89c0,0,32,-36,74,-36ZM217,-13c0,0,-71,0,-116,48c0,0,-46,48,-46,127c0,0,0,50,22,87c0,0,31,50,106,95c0,0,76,45,252,109v26c0,0,0,102,-32,140c0,0,-32,38,-94,38c0,0,-47,0,-74,-25c0,0,-28,-25,-28,-58l1,-43c0,0,0,-34,-17,-53c0,0,-18,-18,-47,-18c0,0,-28,0,-45,19c0,0,-18,19,-18,53c0,0,0,64,66,117c0,0,65,54,184,54c0,0,91,0,149,-31c0,0,44,-23,65,-72c0,0,13,-32,13,-131V238c0,0,0,-98,4,-120c0,0,4,-22,12,-29c0,0,9,-8,20,-8c0,0,12,0,21,5c0,0,16,10,61,55V99C676,99,592,-12,516,-12c0,0,-37,0,-58,24c0,0,-22,26,-23,86C435,98,330,17,303,5c0,0,-40,-18,-86,-18Z" 
id="f3_1x"
transform="scale(0.001,-0.001)" />

<path d="M58,0V26c0,0,47,0,64,10c0,0,18,10,28,32c0,0,9,23,9,86V775c0,0,0,116,-5,142c0,0,-5,27,-17,37c0,0,-11,9,-29,9c0,0,-20,0,-49,-12L46,978l204,83h34V154c0,0,0,-64,9,-85c0,0,9,-21,29,-32c0,0,19,-11,72,-11V0Z" 
id="f3_28"
transform="scale(0.001,-0.001)" />

<path d="M292,-20c0,0,-57,0,-100,33c0,0,-42,33,-58,85c0,0,-17,52,-17,148V551c0,0,0,49,-10,68c0,0,-11,18,-31,29c0,0,-19,9,-68,9c-2,0,-4,0,-6,0v26H242V226c0,0,0,-95,33,-125c0,0,33,-30,80,-30c0,0,32,0,73,21c0,0,40,20,96,76V555c0,0,0,59,-21,80c0,0,-22,21,-89,22v26H647V269c0,0,0,-119,6,-145c0,0,6,-27,18,-37c0,0,12,-11,29,-11c0,0,23,0,52,13L763,63L558,-20H524V124C524,124,436,29,390,4c0,0,-47,-24,-98,-24Z" 
id="f3_2h"
transform="scale(0.001,-0.001)" />

<path d="M406,32c0,0,72,0,119,60c0,0,47,59,47,205c0,0,0,181,-78,286c0,0,-53,71,-135,71c0,0,-40,0,-79,-23c0,0,-40,-24,-65,-83c0,0,-24,-58,-24,-151c0,0,0,-149,59,-257c0,0,59,-108,156,-108ZM374,-20c0,0,-154,0,-245,122c0,0,-77,104,-77,233c0,0,0,94,46,187c0,0,47,92,123,137c0,0,76,44,161,44c0,0,155,0,249,-118c0,0,80,-100,80,-231c0,0,0,-91,-44,-185C667,169,623,75,546,27c0,0,-77,-47,-172,-47Z" 
id="f3_2b"
transform="scale(0.001,-0.001)" />

<path d="M63,0V26H93c0,0,30,0,54,15c0,0,25,15,34,41c0,0,10,25,10,99V630H58v53H191v45c0,0,0,102,33,173c0,0,32,71,100,114c0,0,68,44,152,44c0,0,79,0,145,-51c0,0,43,-33,43,-75c0,0,0,-22,-19,-42c0,0,-20,-20,-42,-20c0,0,-17,0,-36,12c0,0,-19,13,-47,53c0,0,-28,41,-51,55c0,0,-23,14,-51,14c0,0,-35,0,-58,-18c0,0,-24,-18,-35,-57c0,0,-10,-38,-10,-197V683H491V630H315V181c0,0,0,-96,21,-122c0,0,27,-33,73,-33h62V0Z" 
id="f3_22"
transform="scale(0.001,-0.001)" />

<path d="M614,-10c0,0,-47,0,-91,35c0,0,-43,35,-77,190L382,503L160,0H19L337,688c0,0,-25,134,-61,198c0,0,-36,64,-89,64c0,0,-42,0,-74,-32c0,0,-32,-33,-36,-101H51c0,0,2,110,44,176c0,0,42,66,105,66c0,0,40,0,76,-33c0,0,36,-34,63,-114c0,0,26,-80,82,-332L474,343c0,0,32,-147,67,-197c0,0,36,-49,85,-49c0,0,84,0,96,118h26c0,0,0,-118,-38,-172c0,0,-39,-53,-96,-53Z" 
id="f3_f1"
transform="scale(0.001,-0.001)" />

<path d="M82,-253v33c0,0,77,25,119,78c0,0,42,54,42,114c0,0,0,14,-7,23c0,0,-5,6,-11,6c0,0,-8,0,-35,-14c0,0,-14,-7,-28,-7c0,0,-37,0,-58,21C104,1,82,23,82,61c0,0,0,36,28,62c0,0,28,27,68,27c0,0,49,0,88,-43c0,0,38,-43,38,-113c0,0,0,-77,-53,-143c0,0,-53,-66,-169,-104Z" 
id="f3_g"
transform="scale(0.001,-0.001)" />

<path d="M17,0V26c0,0,52,0,77,17c0,0,19,12,26,38c0,0,4,13,4,73V419c0,0,0,119,-5,142c0,0,-4,23,-17,33c0,0,-13,11,-33,11c0,0,-23,0,-52,-11l-7,26l207,83h31V549c0,0,86,154,176,154c0,0,41,0,68,-25c0,0,27,-25,27,-58c0,0,0,-29,-20,-49c0,0,-19,-20,-46,-20c0,0,-26,0,-58,25c0,0,-33,26,-48,26c0,0,-14,0,-29,-15c0,0,-34,-30,-70,-101V159c0,0,0,-56,15,-85c0,0,9,-20,34,-34c0,0,24,-14,71,-14V0Z" 
id="f3_2e"
transform="scale(0.001,-0.001)" />

<path d="M398,24c0,0,74,0,120,58c0,0,61,76,61,214c0,0,0,156,-69,240c0,0,-47,59,-113,59c0,0,-36,0,-71,-18c0,0,-27,-14,-88,-81V242c0,0,0,-83,6,-109c0,0,11,-43,51,-76c0,0,41,-33,103,-33ZM-4,-326v27H15c5,0,42,0,69,16c0,0,14,8,22,26c0,0,7,19,7,94V481c0,0,0,67,-6,85c0,0,-5,18,-18,27c0,0,-13,9,-36,9c0,0,-18,0,-45,-10L0,615l209,85h29V540c0,0,53,91,106,127c0,0,53,36,112,36c0,0,103,0,172,-80c0,0,84,-99,84,-257c0,0,0,-176,-102,-292c0,0,-83,-94,-210,-94c0,0,-55,0,-95,16c0,0,-30,10,-67,44V-167c0,0,0,-71,8,-90c0,0,9,-20,30,-31c0,0,21,-11,77,-11v-27Z" 
id="f3_2c"
transform="scale(0.001,-0.001)" />

<path d="M312,-20c0,0,-62,0,-143,22c0,0,-25,8,-40,8c0,0,-18,0,-27,-19H77V234h25c0,0,21,-105,80,-158c0,0,59,-53,132,-53c0,0,51,0,84,31c0,0,32,30,32,72c0,0,0,52,-36,87c0,0,-36,35,-144,88c0,0,-109,54,-142,97c0,0,-34,43,-34,107c0,0,0,85,58,141c0,0,58,57,150,57c0,0,40,0,97,-17c0,0,38,-11,51,-11c0,0,12,0,19,5c0,0,7,5,15,23h25V470H464c0,0,-28,110,-72,149c0,0,-45,40,-113,40c0,0,-53,0,-85,-28c0,0,-32,-27,-32,-61c0,0,0,-41,24,-71c0,0,23,-31,94,-65L389,381c0,0,152,-74,152,-194c0,0,0,-94,-71,-151c0,0,-70,-56,-158,-56Z" 
id="f3_2f"
transform="scale(0.001,-0.001)" />

<path d="M336,-20L117,554c0,0,-21,55,-42,74c0,0,-21,19,-66,29v26H296V657c0,0,-40,-3,-52,-14c0,0,-13,-12,-13,-33c0,0,0,-23,13,-56L390,162L537,481L498,581c0,0,-18,46,-47,63c0,0,-17,11,-61,13v26H716V657c0,0,-54,-2,-77,-20c0,0,-15,-12,-15,-39c0,0,0,-15,6,-30L785,177L929,554c0,0,15,40,15,65c0,0,0,14,-15,25c0,0,-14,12,-57,13v26h216V657c0,0,-65,-10,-95,-89L764,-20H733L563,415L363,-20Z" 
id="f3_2j"
transform="scale(0.001,-0.001)" />

<path d="M342,-20c0,0,-116,0,-203,97c0,0,-86,98,-86,264c0,0,0,161,96,261c0,0,95,101,230,101c0,0,100,0,165,-53c0,0,65,-54,65,-111c0,0,0,-29,-18,-46c0,0,-18,-18,-51,-18c0,0,-44,0,-66,29c0,0,-13,15,-17,59c0,0,-4,45,-30,68c0,0,-26,22,-73,22c0,0,-74,0,-120,-55c0,0,-60,-73,-60,-193c0,0,0,-122,60,-216c0,0,60,-93,162,-93c0,0,73,0,131,49c0,0,41,35,80,126l22,-10C629,261,601,125,521,52c0,0,-81,-72,-179,-72Z" 
id="f3_1z"
transform="scale(0.001,-0.001)" />

<path d="M58,-234v58c0,0,131,42,131,125c0,0,0,15,-11,27c0,0,-11,12,-38,25C140,1,89,27,89,75c0,0,0,40,25,61c0,0,26,21,65,21c0,0,48,0,77,-34c0,0,30,-34,30,-86c0,0,0,-101,-60,-170c0,0,-59,-69,-168,-101Z" 
id="f4_g"
transform="scale(0.001,-0.001)" />

<path d="M620,-14c0,0,-52,0,-93,43c0,0,-41,45,-77,203L384,522L132,0H0L340,703l-12,66c0,0,-23,107,-61,146c0,0,-37,38,-83,38c0,0,-42,0,-74,-30c0,0,-31,-31,-41,-100H43c0,0,2,117,57,187c0,0,40,51,96,51c0,0,50,0,86,-40c0,0,54,-60,88,-213L489,283c0,0,27,-118,62,-153c0,0,33,-36,79,-36c0,0,43,0,71,29c0,0,28,29,33,94h30c0,0,1,-19,1,-29c0,0,0,-98,-49,-158c0,0,-37,-44,-96,-44Z" 
id="f6_28"
transform="scale(0.001,-0.001)" />

<path d="M399,-14c0,0,-341,0,-341,370c0,0,0,175,87,269c0,0,87,95,249,95c0,0,101,0,220,-23V501H573L541,625c0,0,-62,35,-149,35c0,0,-200,0,-200,-304c0,0,0,-158,61,-225c0,0,61,-67,189,-67c0,0,109,0,189,24V43C631,43,595,16,530,1c0,0,-64,-15,-131,-15Z" 
id="f4_1z"
transform="scale(0.001,-0.001)" />

<path d="M377,45c0,0,99,0,147,73c0,0,47,73,47,237c0,0,0,161,-47,233c0,0,-47,72,-147,72c0,0,-97,0,-141,-69c0,0,-44,-69,-44,-236c0,0,0,-169,45,-240c0,0,44,-70,140,-70Zm0,-59c0,0,-158,0,-238,94c0,0,-81,95,-81,274c0,0,0,178,81,272c0,0,80,94,244,94c0,0,160,0,241,-92c0,0,82,-92,82,-274c0,0,0,-368,-329,-368Z" 
id="f4_2b"
transform="scale(0.001,-0.001)" />

<path d="M382,45c0,0,188,0,188,314c0,0,0,143,-47,213c0,0,-46,69,-141,69c0,0,-87,0,-146,-24V58c0,0,67,-13,146,-13ZM25,-325v35l88,18V649L34,668v33H231l1,-41c0,0,31,27,84,43c0,0,53,17,107,17c0,0,134,0,208,-94c0,0,73,-93,73,-267c0,0,0,-178,-80,-276c0,0,-80,-97,-232,-97c0,0,-84,0,-160,16c0,0,4,-53,4,-84V-272l123,-18v-35Z" 
id="f4_2c"
transform="scale(0.001,-0.001)" />

<path d="M420,-22L89,941L1,960v40H383V960L236,941L474,236L744,930h33L1037,236l227,705l-156,19v40h331V960l-87,-19L1025,-22H985L726,666L460,-22Z" 
id="f4_1n"
transform="scale(0.001,-0.001)" />

<path d="M360,-14L72,649L0,668v33H327V668L216,648L420,164L615,649L504,668v33H764V668L697,652L416,-14Z" 
id="f4_2i"
transform="scale(0.001,-0.001)" />

<path d="M394,460c0,0,126,0,186,57c0,0,60,57,60,187c0,0,0,123,-57,176c0,0,-58,53,-194,53H316V460ZM54,0V40L172,60V941L44,960v40H421c0,0,368,0,368,-295c0,0,0,-153,-93,-233c0,0,-93,-80,-267,-80H316V60L475,40V0Z" 
id="f4_1g"
transform="scale(0.001,-0.001)" />

<path d="M536,-22L130,941L17,960v40H421V960L287,941L590,205L892,941L761,960v40h325V960L976,941L574,-22Z" 
id="f4_1m"
transform="scale(0.001,-0.001)" />

<path d="M64,0V34L168,59V639H47v36l121,29v49c0,0,0,155,61,239c0,0,62,84,173,84c0,0,58,0,107,-15V908H472l-33,92c0,0,-26,16,-62,16c0,0,-47,0,-66,-42c0,0,-19,-42,-19,-157V701H478V639H292V59L443,34V0Z" 
id="f4_22"
transform="scale(0.001,-0.001)" />

<path d="M377,45c0,0,100,0,147,52c0,0,47,52,47,174c0,0,0,119,-46,173c0,0,-47,54,-148,54c0,0,-98,0,-141,-51c0,0,-44,-51,-44,-176c0,0,0,-126,44,-176c0,0,44,-50,141,-50Zm2,518c0,0,84,0,123,46c0,0,39,46,39,148c0,0,0,102,-40,151c0,0,-41,48,-122,48c0,0,-79,0,-118,-47c0,0,-38,-47,-38,-152c0,0,0,-104,37,-149c0,0,38,-45,119,-45ZM377,-14c0,0,-319,0,-319,285c0,0,0,99,48,164c0,0,48,66,129,96c0,0,-65,30,-106,87c0,0,-40,56,-40,139c0,0,0,123,75,191c0,0,76,68,219,68c0,0,139,0,216,-67c0,0,76,-68,76,-192c0,0,0,-82,-40,-139c0,0,-40,-57,-108,-87c0,0,85,-31,132,-98c0,0,47,-67,47,-162c0,0,0,-142,-80,-214c0,0,-80,-71,-249,-71Z" 
id="f4_s"
transform="scale(0.001,-0.001)" />

<path d="M460,-325c0,0,-148,79,-231,172c0,0,-84,93,-123,217c0,0,-39,126,-39,304c0,0,0,178,39,303c0,0,39,125,122,217c0,0,82,93,232,172V997c0,0,-91,-52,-145,-134c0,0,-54,-81,-79,-190c0,0,-25,-109,-25,-305c0,0,0,-194,26,-309c0,0,26,-114,82,-193c0,0,56,-79,141,-128v-63Z" 
id="f4_c"
transform="scale(0.001,-0.001)" />

<path d="M49,-325v63c0,0,85,49,140,128c0,0,56,79,83,194c0,0,26,115,26,308c0,0,0,196,-25,305c0,0,-25,109,-79,190c0,0,-54,82,-145,134v63c0,0,149,-80,232,-172c0,0,83,-92,122,-217c0,0,39,-125,39,-303c0,0,0,-177,-39,-303c0,0,-39,-125,-122,-217c0,0,-83,-93,-232,-173Z" 
id="f4_d"
transform="scale(0.001,-0.001)" />

<path d="M463,65c0,0,220,0,340,135c0,0,121,135,121,385c0,0,0,348,-385,348H419L266,70c0,0,120,-5,197,-5Zm6,-67L110,0H-16l7,40L121,60L276,941L151,960l7,40H585c0,0,241,0,368,-105c0,0,127,-106,127,-304c0,0,0,-179,-75,-314c0,0,-75,-136,-214,-208C791,69,653,-2,469,-2Z" 
id="f5_14"
transform="scale(0.001,-0.001)" />


</defs>
</svg>