<?xml version="1.0" encoding="UTF-8" standalone="no"?>
<!DOCTYPE svg PUBLIC "-//W3C//DTD SVG 1.1//EN"
"http://www.w3.org/Graphics/SVG/1.1/DTD/svg11.dtd">
<svg viewBox="0 0 909 1286" version="1.1" xmlns="http://www.w3.org/2000/svg" xmlns:xlink="http://www.w3.org/1999/xlink">
<defs>
<clipPath id="c0_124"><path d="M55.2,178.8V125.6H300.5v53.2Z" /></clipPath>
<clipPath id="c1_124"><path d="M155.3,296.4V192H393.5V296.4Z" /></clipPath>
<clipPath id="c2_124"><path d="M55.2,371.6V309.4H403.9v62.2Z" /></clipPath>
<clipPath id="c3_124"><path d="M55.2,441.6V384.5H340.8v57.1Z" /></clipPath>
<clipPath id="c4_124"><path d="M55.2,506.6V454.5H285.5v52.1Z" /></clipPath>
<clipPath id="c5_124"><path d="M55.2,571.1V519H170.7v52.1Z" /></clipPath>
<clipPath id="c6_124"><path d="M55.2,646.3V584H250.3v62.3Z" /></clipPath>
<clipPath id="c7_124"><path d="M55.2,815.3V729.4h180v85.9Z" /></clipPath>
<clipPath id="c8_124"><path d="M131.1,949.1V863.2H311.2v85.9Z" /></clipPath>
<clipPath id="c9_124"><path d="M94.4,1048.1V962.2H335.8v85.9Z" /></clipPath>
<clipPath id="c10_124"><path d="M55.2,1147.1v-85.9H283.3v85.9Z" /></clipPath>
<style type="text/css"><![CDATA[
.g0_124{
fill: #D9D9D9;
}
.g1_124{
fill: none;
stroke: #000000;
stroke-width: 0.7638889;
stroke-linecap: butt;
stroke-linejoin: miter;
}
.g2_124{
fill: none;
stroke: #000000;
stroke-width: 0.9131147;
stroke-linecap: butt;
stroke-linejoin: round;
}
.g3_124{
fill: none;
stroke: #000000;
stroke-width: 0.41945836;
stroke-linecap: butt;
stroke-linejoin: round;
}
.g4_124{
fill: none;
stroke: #000000;
stroke-width: 0.91517764;
stroke-linecap: butt;
stroke-linejoin: round;
}
.g5_124{
fill: none;
stroke: #000000;
stroke-width: 0.9123466;
stroke-linecap: butt;
stroke-linejoin: round;
}
.g6_124{
fill: none;
stroke: #000000;
stroke-width: 0.91017693;
stroke-linecap: butt;
stroke-linejoin: round;
}
.g7_124{
fill: none;
stroke: #000000;
stroke-width: 0.90789765;
stroke-linecap: butt;
stroke-linejoin: round;
}
.g8_124{
fill: none;
stroke: #000000;
stroke-width: 0.9105951;
stroke-linecap: butt;
stroke-linejoin: round;
}
.g9_124{
fill: none;
stroke: #000000;
stroke-width: 0.2117702;
stroke-linecap: square;
stroke-linejoin: round;
}
.g10_124{
}
.g11_124{
fill: none;
stroke: #000000;
stroke-width: 0.9066266;
stroke-linecap: butt;
stroke-linejoin: round;
}
.g12_124{
fill: none;
stroke: #000000;
stroke-width: 0.90960765;
stroke-linecap: butt;
stroke-linejoin: round;
}
.g13_124{
fill: none;
stroke: #000000;
stroke-width: 0.90526366;
stroke-linecap: butt;
stroke-linejoin: round;
}
]]></style>
</defs>
<image preserveAspectRatio="none" x="747" y="1196" width="96" height="59" xlink:href="img/1.png" />
<image preserveAspectRatio="none" x="336" y="41" width="259" height="51" xlink:href="img/2.png" />
<image preserveAspectRatio="none" x="342" y="50" width="247" height="27" xlink:href="img/3.png" />
<image preserveAspectRatio="none" x="341" y="45" width="239" height="42" xlink:href="img/4.png" />
<g fill="#FFFFFF" >
<use xlink:href="#f0_j" transform="matrix(11.5,0,0,11.5,355.1,70.1)" />
<use xlink:href="#f0_i" transform="matrix(11.5,0,0,11.5,364.3,70.1)" />
<use xlink:href="#f0_2n" transform="matrix(11.5,0,0,11.5,374.1,70.1)" />
<use xlink:href="#f0_t" transform="matrix(11.5,0,0,11.5,382.6,70.1)" />
<use xlink:href="#f0_oj" transform="matrix(11.5,0,0,11.5,391,70.1)" />
<use xlink:href="#f0_3e" transform="matrix(11.5,0,0,11.5,396.5,70.1)" />
<use xlink:href="#f0_1c" transform="matrix(11.5,0,0,11.5,406.1,70.1)" />
<use xlink:href="#f0_1c" transform="matrix(11.5,0,0,11.5,410.8,70.1)" />
<use xlink:href="#f0_oj" transform="matrix(11.5,0,0,11.5,415.6,70.1)" />
<use xlink:href="#f0_rz" transform="matrix(11.5,0,0,11.5,421.1,70.1)" />
<use xlink:href="#f0_rx" transform="matrix(11.5,0,0,11.5,429.9,70.1)" />
<use xlink:href="#f0_ry" transform="matrix(11.5,0,0,11.5,438.7,70.1)" />
<use xlink:href="#f0_s6" transform="matrix(11.5,0,0,11.5,447.5,70.1)" />
<use xlink:href="#f0_t" transform="matrix(11.5,0,0,11.5,460.4,70.1)" />
<use xlink:href="#f0_3e" transform="matrix(11.5,0,0,11.5,468.8,70.1)" />
<use xlink:href="#f0_5" transform="matrix(11.5,0,0,11.5,478.3,70.1)" />
<use xlink:href="#f0_1x" transform="matrix(11.5,0,0,11.5,489,70.1)" />
<use xlink:href="#f0_1c" transform="matrix(11.5,0,0,11.5,504.4,70.1)" />
<use xlink:href="#f0_1y" transform="matrix(11.5,0,0,11.5,509.1,70.1)" />
<use xlink:href="#f0_5" transform="matrix(11.5,0,0,11.5,520.8,70.1)" />
<use xlink:href="#f0_2t" transform="matrix(11.5,0,0,11.5,531.5,70.1)" />
<use xlink:href="#f0_1c" transform="matrix(11.5,0,0,11.5,540.2,70.1)" />
<use xlink:href="#f0_24" transform="matrix(11.5,0,0,11.5,545,70.1)" />
<use xlink:href="#f0_1y" transform="matrix(11.5,0,0,11.5,556.7,70.1)" />
</g>
<image preserveAspectRatio="none" x="554" y="45" width="36" height="42" xlink:href="img/5.png" />
<g fill="#FFFFFF" >
<use xlink:href="#f1_q" transform="matrix(11,0,0,11,770.3,1227.6)" />
<use xlink:href="#f1_j" transform="matrix(11,0,0,11,783.5,1227.6)" />
<use xlink:href="#f1_m" transform="matrix(11,0,0,11,794.1,1227.6)" />
<use xlink:href="#f1_p" transform="matrix(11,0,0,11,802.9,1227.6)" />
</g>
<path fill-rule="evenodd" d="M52.8,1193.5H856.9v-.8H52.8v.8Z" class="g0_124" />
<path d="M37.9,99.4L873,98.5" class="g1_124" />
<path d="M105.2,152.9h37.5m74.5,0H255m28.9,0h11.7" class="g2_124" />
<g clip-path="url(#c0_124)">
<g fill="#000000" >
<use xlink:href="#f2_l" transform="matrix(7.3,0,0,7.1,87.6,149.3)" />
<use xlink:href="#f2_l" transform="matrix(7.3,0,0,7.1,199.7,149.3)" />
<use xlink:href="#f2_m" transform="matrix(12.7,0,0,12.3,133,145.7)" />
<use xlink:href="#f2_m" transform="matrix(12.7,0,0,12.3,245.3,145.7)" />
<use xlink:href="#f2_2g" transform="matrix(12.7,0,0,12.3,58.2,157.6)" />
<use xlink:href="#f2_1x" transform="matrix(12.7,0,0,12.3,63.4,157.6)" />
<use xlink:href="#f2_2a" transform="matrix(12.7,0,0,12.3,71.4,157.6)" />
<use xlink:href="#f2_2g" transform="matrix(12.7,0,0,12.3,170.3,157.6)" />
<use xlink:href="#f2_1x" transform="matrix(12.7,0,0,12.3,175.5,157.6)" />
<use xlink:href="#f2_2a" transform="matrix(12.7,0,0,12.3,183.5,157.6)" />
<use xlink:href="#f2_o" transform="matrix(12.7,0,0,12.3,133,172.2)" />
<use xlink:href="#f2_o" transform="matrix(12.7,0,0,12.3,245.3,172.2)" />
<use xlink:href="#f2_o" transform="matrix(12.7,0,0,12.3,285.4,172.2)" />
<use xlink:href="#f3_2k" transform="matrix(12.7,0,0,12.3,107.2,145.7)" />
<use xlink:href="#f3_2k" transform="matrix(12.7,0,0,12.3,219.2,145.7)" />
<use xlink:href="#f3_2k" transform="matrix(12.7,0,0,12.3,107.2,172.2)" />
<use xlink:href="#f3_2k" transform="matrix(12.7,0,0,12.3,219.2,172.2)" />
<use xlink:href="#f4_h" transform="matrix(7.3,0,0,7.1,81.9,149.3)" />
<use xlink:href="#f4_h" transform="matrix(7.3,0,0,7.1,193.9,149.3)" />
<use xlink:href="#f4_h" transform="matrix(12.7,0,0,12.3,119.2,145.7)" />
<use xlink:href="#f4_f" transform="matrix(12.7,0,0,12.3,231.2,145.7)" />
<use xlink:href="#f4_2c" transform="matrix(12.7,0,0,12.3,285,145.7)" />
<use xlink:href="#f4_4o" transform="matrix(12.7,0,0,12.3,95.3,147.2)" />
<use xlink:href="#f4_54" transform="matrix(12.7,0,0,12.3,145.3,147.2)" />
<use xlink:href="#f4_4o" transform="matrix(12.7,0,0,12.3,207.3,147.2)" />
<use xlink:href="#f4_54" transform="matrix(12.7,0,0,12.3,257.6,147.2)" />
<use xlink:href="#f4_f" transform="matrix(12.7,0,0,12.3,156,157.6)" />
<use xlink:href="#f4_x" transform="matrix(12.7,0,0,12.3,269.1,157.6)" />
<use xlink:href="#f4_4p" transform="matrix(12.7,0,0,12.3,95.3,162.7)" />
<use xlink:href="#f4_55" transform="matrix(12.7,0,0,12.3,145.3,162.7)" />
<use xlink:href="#f4_4p" transform="matrix(12.7,0,0,12.3,207.3,162.7)" />
<use xlink:href="#f4_55" transform="matrix(12.7,0,0,12.3,257.6,162.7)" />
<use xlink:href="#f4_h" transform="matrix(12.7,0,0,12.3,119.2,172.2)" />
<use xlink:href="#f4_f" transform="matrix(12.7,0,0,12.3,231.3,172.2)" />
<use xlink:href="#f4_4q" transform="matrix(12.7,0,0,12.3,95.3,174.4)" />
<use xlink:href="#f4_56" transform="matrix(12.7,0,0,12.3,145.3,174.4)" />
<use xlink:href="#f4_4q" transform="matrix(12.7,0,0,12.3,207.3,174.4)" />
<use xlink:href="#f4_56" transform="matrix(12.7,0,0,12.3,257.6,174.4)" />
</g>
</g>
<g fill="#000000" >
<use xlink:href="#f2_c" transform="matrix(12,0,0,12,304.8,157.3)" />
<use xlink:href="#f2_l" transform="matrix(12,0,0,12,311,157.3)" />
<use xlink:href="#f2_d" transform="matrix(12,0,0,12,320.2,157.3)" />
<use xlink:href="#f2_1l" transform="matrix(12,0,0,12,55,249)" />
<use xlink:href="#f2_2f" transform="matrix(12,0,0,12,68.3,249)" />
<use xlink:href="#f2_21" transform="matrix(12,0,0,12,75.2,249)" />
<use xlink:href="#f2_22" transform="matrix(12,0,0,12,88.4,249)" />
<use xlink:href="#f2_2b" transform="matrix(12,0,0,12,93.9,249)" />
<use xlink:href="#f2_2e" transform="matrix(12,0,0,12,103.4,249)" />
<use xlink:href="#f2_29" transform="matrix(12,0,0,12,109.6,249)" />
<use xlink:href="#f2_2h" transform="matrix(12,0,0,12,123.2,249)" />
<use xlink:href="#f2_28" transform="matrix(12,0,0,12,132.7,249)" />
<use xlink:href="#f2_1x" transform="matrix(12,0,0,12,137.5,249)" />
<use xlink:href="#f2_g" transform="matrix(12,0,0,12,145.5,249)" />
</g>
<path d="M229.7,223.1h37.6m18.6,0h37.9m-86,45.4h37.5m25.5,0h37.9" class="g3_124" />
<path d="M204.4,244.2H349.1m28.3,0h11.7" class="g4_124" />
<g clip-path="url(#c1_124)">
<g fill="#000000" >
<use xlink:href="#f2_l" transform="matrix(7.1,0,0,7,187.7,240.6)" />
<use xlink:href="#f2_m" transform="matrix(12.2,0,0,12.1,257.6,216.3)" />
<use xlink:href="#f2_m" transform="matrix(12.2,0,0,12.1,314,216.3)" />
<use xlink:href="#f2_o" transform="matrix(12.2,0,0,12.1,257.6,241.6)" />
<use xlink:href="#f2_o" transform="matrix(12.2,0,0,12.1,314,241.6)" />
<use xlink:href="#f2_2g" transform="matrix(12.2,0,0,12.1,158.3,248.8)" />
<use xlink:href="#f2_1x" transform="matrix(12.2,0,0,12.1,163.5,248.8)" />
<use xlink:href="#f2_2a" transform="matrix(12.2,0,0,12.1,171.5,248.8)" />
<use xlink:href="#f2_m" transform="matrix(12.2,0,0,12.1,265.6,261.8)" />
<use xlink:href="#f2_m" transform="matrix(12.2,0,0,12.1,328.9,261.8)" />
<use xlink:href="#f2_o" transform="matrix(12.2,0,0,12.1,378.9,263.2)" />
<use xlink:href="#f2_l" transform="matrix(12.2,0,0,12.1,203.6,273.1)" />
<use xlink:href="#f2_i" transform="matrix(12.2,0,0,12.1,285.9,273.1)" />
<use xlink:href="#f2_o" transform="matrix(12.2,0,0,12.1,265.6,287.1)" />
<use xlink:href="#f2_o" transform="matrix(12.2,0,0,12.1,328.9,287.1)" />
<use xlink:href="#f3_2k" transform="matrix(12.2,0,0,12.1,231.7,216.3)" />
<use xlink:href="#f3_2k" transform="matrix(12.2,0,0,12.1,287.9,216.3)" />
<use xlink:href="#f3_2k" transform="matrix(12.2,0,0,12.1,231.7,241.6)" />
<use xlink:href="#f3_2k" transform="matrix(12.2,0,0,12.1,287.9,241.6)" />
<use xlink:href="#f3_2k" transform="matrix(12.2,0,0,12.1,239.8,261.8)" />
<use xlink:href="#f3_2k" transform="matrix(12.2,0,0,12.1,302.8,261.8)" />
<use xlink:href="#f3_2k" transform="matrix(12.2,0,0,12.1,239.8,287.1)" />
<use xlink:href="#f3_2k" transform="matrix(12.2,0,0,12.1,302.8,287.1)" />
<use xlink:href="#f4_h" transform="matrix(7.1,0,0,7,181.9,240.6)" />
<use xlink:href="#f4_4r" transform="matrix(12.2,0,0,12.1,196.3,213.1)" />
<use xlink:href="#f4_57" transform="matrix(12.2,0,0,12.1,350.6,213.1)" />
<use xlink:href="#f4_h" transform="matrix(12.2,0,0,12.1,243.8,216.3)" />
<use xlink:href="#f4_f" transform="matrix(12.2,0,0,12.1,300,216.3)" />
<use xlink:href="#f4_f" transform="matrix(12.2,0,0,12.1,271.6,227.6)" />
<use xlink:href="#f4_4s" transform="matrix(12.2,0,0,12.1,196.3,230.6)" />
<use xlink:href="#f4_58" transform="matrix(12.2,0,0,12.1,350.6,230.6)" />
<use xlink:href="#f4_2c" transform="matrix(12.2,0,0,12.1,378.5,237.1)" />
<use xlink:href="#f4_h" transform="matrix(12.2,0,0,12.1,243.8,241.6)" />
<use xlink:href="#f4_f" transform="matrix(12.2,0,0,12.1,300,241.6)" />
<use xlink:href="#f4_4s" transform="matrix(12.2,0,0,12.1,196.3,248)" />
<use xlink:href="#f4_58" transform="matrix(12.2,0,0,12.1,350.6,248)" />
<use xlink:href="#f4_x" transform="matrix(12.2,0,0,12.1,362.6,248.8)" />
<use xlink:href="#f4_h" transform="matrix(12.2,0,0,12.1,251.8,261.8)" />
<use xlink:href="#f4_f" transform="matrix(12.2,0,0,12.1,314.9,261.8)" />
<use xlink:href="#f4_4o" transform="matrix(12.2,0,0,12.1,227.9,263.3)" />
<use xlink:href="#f4_54" transform="matrix(12.2,0,0,12.1,278,263.3)" />
<use xlink:href="#f4_4o" transform="matrix(12.2,0,0,12.1,291,263.3)" />
<use xlink:href="#f4_54" transform="matrix(12.2,0,0,12.1,341.3,263.3)" />
<use xlink:href="#f4_4s" transform="matrix(12.2,0,0,12.1,196.3,265.4)" />
<use xlink:href="#f4_58" transform="matrix(12.2,0,0,12.1,350.6,265.4)" />
<use xlink:href="#f4_h" transform="matrix(12.2,0,0,12.1,214.7,273.1)" />
<use xlink:href="#f4_4p" transform="matrix(12.2,0,0,12.1,227.9,277.8)" />
<use xlink:href="#f4_55" transform="matrix(12.2,0,0,12.1,278,277.8)" />
<use xlink:href="#f4_4p" transform="matrix(12.2,0,0,12.1,291,277.8)" />
<use xlink:href="#f4_55" transform="matrix(12.2,0,0,12.1,341.3,277.8)" />
<use xlink:href="#f4_4s" transform="matrix(12.2,0,0,12.1,196.3,282.8)" />
<use xlink:href="#f4_58" transform="matrix(12.2,0,0,12.1,350.6,282.8)" />
<use xlink:href="#f4_h" transform="matrix(12.2,0,0,12.1,251.8,287.1)" />
<use xlink:href="#f4_f" transform="matrix(12.2,0,0,12.1,314.9,287.1)" />
<use xlink:href="#f4_4q" transform="matrix(12.2,0,0,12.1,227.9,289.2)" />
<use xlink:href="#f4_56" transform="matrix(12.2,0,0,12.1,278,289.2)" />
<use xlink:href="#f4_4q" transform="matrix(12.2,0,0,12.1,291,289.2)" />
<use xlink:href="#f4_56" transform="matrix(12.2,0,0,12.1,341.3,289.2)" />
<use xlink:href="#f4_4t" transform="matrix(12.2,0,0,12.1,196.3,290.6)" />
<use xlink:href="#f4_59" transform="matrix(12.2,0,0,12.1,350.6,290.6)" />
</g>
</g>
<g clip-path="url(#c2_124)">
<g fill="#000000" >
<use xlink:href="#f4_c" transform="matrix(12.5,0,0,16.1,131.5,333.9)" />
<use xlink:href="#f4_d" transform="matrix(12.5,0,0,16.1,176,333.9)" />
<use xlink:href="#f4_c" transform="matrix(12.5,0,0,16.1,183.4,333.9)" />
<use xlink:href="#f4_d" transform="matrix(12.5,0,0,16.1,228.2,333.9)" />
<use xlink:href="#f4_c" transform="matrix(12.5,0,0,16.1,251.2,333.9)" />
<use xlink:href="#f4_d" transform="matrix(12.5,0,0,16.1,296,333.9)" />
<use xlink:href="#f4_c" transform="matrix(12.5,0,0,16.1,129.4,361.9)" />
<use xlink:href="#f4_d" transform="matrix(12.5,0,0,16.1,173.9,361.9)" />
<use xlink:href="#f4_c" transform="matrix(12.5,0,0,16.1,185.8,361.9)" />
<use xlink:href="#f4_d" transform="matrix(12.5,0,0,16.1,230.6,361.9)" />
<use xlink:href="#f4_c" transform="matrix(12.5,0,0,16.1,253.4,361.9)" />
<use xlink:href="#f4_d" transform="matrix(12.5,0,0,16.1,297.8,361.9)" />
</g>
</g>
<path d="M128.8,341.2H359m28.4,0h11.7" class="g5_124" />
<g clip-path="url(#c2_124)">
<g fill="#000000" >
<use xlink:href="#f2_l" transform="matrix(7.3,0,0,7.1,109.8,337.6)" />
<use xlink:href="#f2_m" transform="matrix(12.6,0,0,12.3,165.8,332.6)" />
<use xlink:href="#f2_o" transform="matrix(12.6,0,0,12.3,218,332.6)" />
<use xlink:href="#f2_m" transform="matrix(12.6,0,0,12.3,285.8,332.6)" />
<use xlink:href="#f2_i" transform="matrix(12.6,0,0,12.3,302.8,332.6)" />
<use xlink:href="#f2_c" transform="matrix(12.6,0,0,12.3,307.4,332.6)" />
<use xlink:href="#f2_o" transform="matrix(12.6,0,0,12.3,340.7,332.6)" />
<use xlink:href="#f2_d" transform="matrix(12.6,0,0,12.3,349.9,332.6)" />
<use xlink:href="#f2_2g" transform="matrix(12.6,0,0,12.3,80.3,345.9)" />
<use xlink:href="#f2_1x" transform="matrix(12.6,0,0,12.3,85.4,345.9)" />
<use xlink:href="#f2_2a" transform="matrix(12.6,0,0,12.3,93.5,345.9)" />
<use xlink:href="#f2_o" transform="matrix(12.6,0,0,12.3,163.7,360.5)" />
<use xlink:href="#f2_i" transform="matrix(12.6,0,0,12.3,180.7,360.5)" />
<use xlink:href="#f2_o" transform="matrix(12.6,0,0,12.3,220.4,360.5)" />
<use xlink:href="#f2_m" transform="matrix(12.6,0,0,12.3,287.6,360.5)" />
<use xlink:href="#f2_i" transform="matrix(12.6,0,0,12.3,304.6,360.5)" />
<use xlink:href="#f2_c" transform="matrix(12.6,0,0,12.3,309.2,360.5)" />
<use xlink:href="#f2_m" transform="matrix(12.6,0,0,12.3,342.8,360.5)" />
<use xlink:href="#f2_d" transform="matrix(12.6,0,0,12.3,352,360.5)" />
<use xlink:href="#f2_o" transform="matrix(12.6,0,0,12.3,388.8,360.5)" />
<use xlink:href="#f3_2k" transform="matrix(12.6,0,0,12.3,140,332.6)" />
<use xlink:href="#f3_2k" transform="matrix(12.6,0,0,12.3,191.9,332.6)" />
<use xlink:href="#f3_2k" transform="matrix(12.6,0,0,12.3,259.7,332.6)" />
<use xlink:href="#f3_2k" transform="matrix(12.6,0,0,12.3,314.9,332.6)" />
<use xlink:href="#f3_2k" transform="matrix(12.6,0,0,12.3,137.9,360.5)" />
<use xlink:href="#f3_2k" transform="matrix(12.6,0,0,12.3,194.3,360.5)" />
<use xlink:href="#f3_2k" transform="matrix(12.6,0,0,12.3,261.8,360.5)" />
<use xlink:href="#f3_2k" transform="matrix(12.6,0,0,12.3,316.7,360.5)" />
<use xlink:href="#f4_h" transform="matrix(7.3,0,0,7.1,104,337.6)" />
<use xlink:href="#f4_4r" transform="matrix(12.6,0,0,12.3,120.6,331.3)" />
<use xlink:href="#f4_57" transform="matrix(12.6,0,0,12.3,360.5,331.3)" />
<use xlink:href="#f4_h" transform="matrix(12.6,0,0,12.3,152,332.6)" />
<use xlink:href="#f4_f" transform="matrix(12.6,0,0,12.3,204,332.6)" />
<use xlink:href="#f4_f" transform="matrix(12.6,0,0,12.3,237.7,332.6)" />
<use xlink:href="#f4_f" transform="matrix(12.6,0,0,12.3,271.7,332.6)" />
<use xlink:href="#f4_h" transform="matrix(12.6,0,0,12.3,326.9,332.6)" />
<use xlink:href="#f4_2c" transform="matrix(12.6,0,0,12.3,388.5,334)" />
<use xlink:href="#f4_4g" transform="matrix(12.6,0,0,12.3,57.4,345.9)" />
<use xlink:href="#f4_x" transform="matrix(12.6,0,0,12.3,372.5,345.9)" />
<use xlink:href="#f4_4s" transform="matrix(12.6,0,0,12.3,120.6,349)" />
<use xlink:href="#f4_58" transform="matrix(12.6,0,0,12.3,360.5,349)" />
<use xlink:href="#f4_h" transform="matrix(12.6,0,0,12.3,149.9,360.5)" />
<use xlink:href="#f4_f" transform="matrix(12.6,0,0,12.3,206.3,360.5)" />
<use xlink:href="#f4_h" transform="matrix(12.6,0,0,12.3,240,360.5)" />
<use xlink:href="#f4_h" transform="matrix(12.6,0,0,12.3,273.8,360.5)" />
<use xlink:href="#f4_f" transform="matrix(12.6,0,0,12.3,328.7,360.5)" />
<use xlink:href="#f4_4s" transform="matrix(12.6,0,0,12.3,120.6,363.7)" />
<use xlink:href="#f4_58" transform="matrix(12.6,0,0,12.3,360.5,363.7)" />
<use xlink:href="#f4_4t" transform="matrix(12.6,0,0,12.3,120.6,366.8)" />
<use xlink:href="#f4_59" transform="matrix(12.6,0,0,12.3,360.5,366.8)" />
</g>
</g>
<g clip-path="url(#c3_124)">
<g fill="#000000" >
<use xlink:href="#f4_c" transform="matrix(12.4,0,0,16,82.9,405.9)" />
<use xlink:href="#f4_d" transform="matrix(12.4,0,0,16,127.4,405.9)" />
<use xlink:href="#f4_c" transform="matrix(12.4,0,0,16,134.9,405.9)" />
<use xlink:href="#f4_d" transform="matrix(12.4,0,0,16,179.7,405.9)" />
<use xlink:href="#f4_c" transform="matrix(12.4,0,0,16,202.7,405.9)" />
<use xlink:href="#f4_d" transform="matrix(12.4,0,0,16,247.5,405.9)" />
<use xlink:href="#f4_c" transform="matrix(12.4,0,0,16,259.4,405.9)" />
<use xlink:href="#f4_d" transform="matrix(12.4,0,0,16,303.8,405.9)" />
<use xlink:href="#f4_c" transform="matrix(12.4,0,0,16,80.9,433.5)" />
<use xlink:href="#f4_d" transform="matrix(12.4,0,0,16,125.3,433.5)" />
<use xlink:href="#f4_c" transform="matrix(12.4,0,0,16,137.3,433.5)" />
<use xlink:href="#f4_d" transform="matrix(12.4,0,0,16,182,433.5)" />
<use xlink:href="#f4_c" transform="matrix(12.4,0,0,16,204.8,433.5)" />
<use xlink:href="#f4_d" transform="matrix(12.4,0,0,16,249.3,433.5)" />
<use xlink:href="#f4_c" transform="matrix(12.4,0,0,16,261.2,433.5)" />
<use xlink:href="#f4_d" transform="matrix(12.4,0,0,16,306,433.5)" />
</g>
</g>
<path d="M80.3,413.1H312.6" class="g6_124" />
<g clip-path="url(#c3_124)">
<g fill="#000000" >
<use xlink:href="#f2_m" transform="matrix(12.6,0,0,12.2,117.3,404.5)" />
<use xlink:href="#f2_o" transform="matrix(12.6,0,0,12.2,169.5,404.5)" />
<use xlink:href="#f2_m" transform="matrix(12.6,0,0,12.2,237.3,404.5)" />
<use xlink:href="#f2_i" transform="matrix(12.6,0,0,12.2,254.2,404.5)" />
<use xlink:href="#f2_o" transform="matrix(12.6,0,0,12.2,293.6,404.5)" />
<use xlink:href="#f2_l" transform="matrix(12.6,0,0,12.2,330.2,417.6)" />
<use xlink:href="#f2_o" transform="matrix(12.6,0,0,12.2,115.2,432.2)" />
<use xlink:href="#f2_i" transform="matrix(12.6,0,0,12.2,132.1,432.2)" />
<use xlink:href="#f2_o" transform="matrix(12.6,0,0,12.2,171.8,432.2)" />
<use xlink:href="#f2_m" transform="matrix(12.6,0,0,12.2,239.1,432.2)" />
<use xlink:href="#f2_i" transform="matrix(12.6,0,0,12.2,256,432.2)" />
<use xlink:href="#f2_m" transform="matrix(12.6,0,0,12.2,295.7,432.2)" />
<use xlink:href="#f3_2k" transform="matrix(12.6,0,0,12.2,91.4,404.5)" />
<use xlink:href="#f3_2k" transform="matrix(12.6,0,0,12.2,143.3,404.5)" />
<use xlink:href="#f3_2k" transform="matrix(12.6,0,0,12.2,211.1,404.5)" />
<use xlink:href="#f3_2k" transform="matrix(12.6,0,0,12.2,267.8,404.5)" />
<use xlink:href="#f3_2k" transform="matrix(12.6,0,0,12.2,89.3,432.2)" />
<use xlink:href="#f3_2k" transform="matrix(12.6,0,0,12.2,145.7,432.2)" />
<use xlink:href="#f3_2k" transform="matrix(12.6,0,0,12.2,213.2,432.2)" />
<use xlink:href="#f3_2k" transform="matrix(12.6,0,0,12.2,269.6,432.2)" />
<use xlink:href="#f4_h" transform="matrix(12.6,0,0,12.2,103.5,404.5)" />
<use xlink:href="#f4_f" transform="matrix(12.6,0,0,12.2,155.4,404.5)" />
<use xlink:href="#f4_f" transform="matrix(12.6,0,0,12.2,189.1,404.5)" />
<use xlink:href="#f4_f" transform="matrix(12.6,0,0,12.2,223.2,404.5)" />
<use xlink:href="#f4_h" transform="matrix(12.6,0,0,12.2,279.9,404.5)" />
<use xlink:href="#f4_4g" transform="matrix(12.6,0,0,12.2,57.4,417.6)" />
<use xlink:href="#f4_x" transform="matrix(12.6,0,0,12.2,317.7,417.6)" />
<use xlink:href="#f4_h" transform="matrix(12.6,0,0,12.2,101.4,432.2)" />
<use xlink:href="#f4_f" transform="matrix(12.6,0,0,12.2,157.8,432.2)" />
<use xlink:href="#f4_h" transform="matrix(12.6,0,0,12.2,191.6,432.2)" />
<use xlink:href="#f4_h" transform="matrix(12.6,0,0,12.2,225.3,432.2)" />
<use xlink:href="#f4_f" transform="matrix(12.6,0,0,12.2,281.7,432.2)" />
</g>
</g>
<path d="M80.3,483.6H257.4" class="g7_124" />
<g clip-path="url(#c4_124)">
<g fill="#000000" >
<use xlink:href="#f2_m" transform="matrix(7.3,0,0,7.2,91.4,468)" />
<use xlink:href="#f2_m" transform="matrix(7.3,0,0,7.2,188,468)" />
<use xlink:href="#f2_m" transform="matrix(7.3,0,0,7.2,123.1,494.7)" />
<use xlink:href="#f2_m" transform="matrix(7.3,0,0,7.2,191.2,494.7)" />
<use xlink:href="#f2_s" transform="matrix(12.7,0,0,12.4,115,476.3)" />
<use xlink:href="#f2_m" transform="matrix(12.7,0,0,12.4,141.5,476.3)" />
<use xlink:href="#f2_s" transform="matrix(12.7,0,0,12.4,211.6,476.3)" />
<use xlink:href="#f2_m" transform="matrix(12.7,0,0,12.4,237.7,476.3)" />
<use xlink:href="#f2_l" transform="matrix(12.7,0,0,12.4,275,488.3)" />
<use xlink:href="#f2_l" transform="matrix(12.7,0,0,12.4,145.5,503.1)" />
<use xlink:href="#f2_q" transform="matrix(12.7,0,0,12.4,154.7,503.1)" />
<use xlink:href="#f2_o" transform="matrix(12.7,0,0,12.4,215.9,503.1)" />
<use xlink:href="#f3_2k" transform="matrix(12.7,0,0,12.4,82.3,476.3)" />
<use xlink:href="#f3_2k" transform="matrix(12.7,0,0,12.4,151.9,476.3)" />
<use xlink:href="#f3_2k" transform="matrix(12.7,0,0,12.4,178.9,476.3)" />
<use xlink:href="#f3_2k" transform="matrix(12.7,0,0,12.4,248.1,476.3)" />
<use xlink:href="#f3_2k" transform="matrix(12.7,0,0,12.4,114,503.1)" />
<use xlink:href="#f3_2k" transform="matrix(12.7,0,0,12.4,182.1,503.1)" />
<use xlink:href="#f4_h" transform="matrix(12.7,0,0,12.4,102.1,476.3)" />
<use xlink:href="#f4_f" transform="matrix(12.7,0,0,12.4,127.4,476.3)" />
<use xlink:href="#f4_f" transform="matrix(12.7,0,0,12.4,163.9,476.3)" />
<use xlink:href="#f4_h" transform="matrix(12.7,0,0,12.4,198.6,476.3)" />
<use xlink:href="#f4_h" transform="matrix(12.7,0,0,12.4,223.9,476.3)" />
<use xlink:href="#f4_4g" transform="matrix(12.7,0,0,12.4,57.4,488.3)" />
<use xlink:href="#f4_x" transform="matrix(12.7,0,0,12.4,262.4,488.3)" />
<use xlink:href="#f4_h" transform="matrix(12.7,0,0,12.4,133.7,503.1)" />
<use xlink:href="#f4_h" transform="matrix(12.7,0,0,12.4,167.4,503.1)" />
<use xlink:href="#f4_f" transform="matrix(12.7,0,0,12.4,201.7,503.1)" />
</g>
</g>
<path d="M80.2,548.2h61.9" class="g8_124" />
<g clip-path="url(#c5_124)">
<g fill="#000000" >
<use xlink:href="#f2_m" transform="matrix(7.4,0,0,7.2,100.8,532.5)" />
<use xlink:href="#f2_m" transform="matrix(12.7,0,0,12.4,81.4,540.8)" />
<use xlink:href="#f2_l" transform="matrix(12.7,0,0,12.4,123.1,540.8)" />
<use xlink:href="#f2_q" transform="matrix(12.7,0,0,12.4,132.3,540.8)" />
<use xlink:href="#f2_l" transform="matrix(12.7,0,0,12.4,159.7,552.8)" />
<use xlink:href="#f2_l" transform="matrix(12.7,0,0,12.4,107.3,567.7)" />
<use xlink:href="#f2_m" transform="matrix(12.7,0,0,12.4,116.5,567.7)" />
<use xlink:href="#f3_2k" transform="matrix(12.7,0,0,12.4,91.7,540.8)" />
<use xlink:href="#f4_h" transform="matrix(12.7,0,0,12.4,111.4,540.8)" />
<use xlink:href="#f4_4g" transform="matrix(12.7,0,0,12.4,57.4,552.8)" />
<use xlink:href="#f4_x" transform="matrix(12.7,0,0,12.4,147.2,552.8)" />
<use xlink:href="#f4_h" transform="matrix(12.7,0,0,12.4,97.2,567.7)" />
</g>
</g>
<path d="M225.2,633.9l1.8,-1m.1,0l4.4,7.2m0,0l4.8,-19.3m0,0h10.5" class="g9_124" />
<path fill-rule="evenodd" d="M224.3,632.9l2.5,-1.4l4,5.9l4.4,-17.8h10.9v1H235.9l-4.7,18.8h-.9l-4.5,-6.7l-1.2,.7l-.3,-.5Z" class="g10_124" />
<g clip-path="url(#c6_124)">
<g fill="#000000" >
<use xlink:href="#f2_m" transform="matrix(7.3,0,0,7.1,99.1,597.7)" />
<use xlink:href="#f2_m" transform="matrix(7.3,0,0,7.1,89.7,629.6)" />
<use xlink:href="#f2_m" transform="matrix(12.6,0,0,12.3,79.8,606)" />
<use xlink:href="#f2_l" transform="matrix(12.6,0,0,12.3,134.9,606)" />
<use xlink:href="#f2_m" transform="matrix(12.6,0,0,12.3,144.1,606)" />
<use xlink:href="#f2_l" transform="matrix(12.6,0,0,12.3,168.6,606)" />
<use xlink:href="#f2_q" transform="matrix(12.6,0,0,12.3,177.7,606)" />
<use xlink:href="#f2_o" transform="matrix(12.6,0,0,12.3,205.5,606)" />
<use xlink:href="#f2_m" transform="matrix(12.6,0,0,12.3,115.5,637.9)" />
<use xlink:href="#f2_m" transform="matrix(12.6,0,0,12.3,236.4,637.9)" />
<use xlink:href="#f3_2k" transform="matrix(12.6,0,0,12.3,90.2,606)" />
<use xlink:href="#f3_2k" transform="matrix(12.6,0,0,12.3,80.7,637.9)" />
<use xlink:href="#f3_2k" transform="matrix(12.6,0,0,12.3,185.9,637.9)" />
<use xlink:href="#f4_4g" transform="matrix(12.6,0,0,12.3,57.4,606)" />
<use xlink:href="#f4_x" transform="matrix(12.6,0,0,12.3,110.5,606)" />
<use xlink:href="#f4_h" transform="matrix(12.6,0,0,12.3,124.9,606)" />
<use xlink:href="#f4_f" transform="matrix(12.6,0,0,12.3,156.6,606)" />
<use xlink:href="#f4_x" transform="matrix(12.6,0,0,12.3,191.1,606)" />
<use xlink:href="#f4_4g" transform="matrix(12.6,0,0,12.3,57.4,637.9)" />
<use xlink:href="#f4_x" transform="matrix(12.6,0,0,12.3,101,637.9)" />
<use xlink:href="#f4_4g" transform="matrix(12.6,0,0,12.3,162.5,637.9)" />
<use xlink:href="#f4_x" transform="matrix(12.6,0,0,12.3,198.6,637.9)" />
<use xlink:href="#f4_37" transform="matrix(12.6,0,0,12.3,213.1,637.9)" />
</g>
</g>
<g fill="#000000" >
<use xlink:href="#f5_l" transform="matrix(12,0,0,12,55,712.3)" />
<use xlink:href="#f5_n" transform="matrix(12,0,0,12,64.2,712.3)" />
<use xlink:href="#f5_i" transform="matrix(12,0,0,12,73.4,712.3)" />
<use xlink:href="#f2_1l" transform="matrix(12,0,0,12,82.9,712.3)" />
<use xlink:href="#f2_2f" transform="matrix(12,0,0,12,96.1,712.3)" />
<use xlink:href="#f2_25" transform="matrix(12,0,0,12,103.1,712.3)" />
<use xlink:href="#f2_2a" transform="matrix(12,0,0,12,107.8,712.3)" />
<use xlink:href="#f2_23" transform="matrix(12,0,0,12,116.6,712.3)" />
<use xlink:href="#f2_2c" transform="matrix(12,0,0,12,130.6,712.3)" />
<use xlink:href="#f2_2e" transform="matrix(12,0,0,12,139.7,712.3)" />
<use xlink:href="#f2_2b" transform="matrix(12,0,0,12,145.9,712.3)" />
<use xlink:href="#f2_2c" transform="matrix(12,0,0,12,155.4,712.3)" />
<use xlink:href="#f2_21" transform="matrix(12,0,0,12,164.6,712.3)" />
<use xlink:href="#f2_2e" transform="matrix(12,0,0,12,172.7,712.3)" />
<use xlink:href="#f2_2g" transform="matrix(12,0,0,12,178.5,712.3)" />
<use xlink:href="#f2_25" transform="matrix(12,0,0,12,184,712.3)" />
<use xlink:href="#f2_21" transform="matrix(12,0,0,12,188.4,712.3)" />
<use xlink:href="#f2_2f" transform="matrix(12,0,0,12,196.8,712.3)" />
<use xlink:href="#f2_2b" transform="matrix(12,0,0,12,208.6,712.3)" />
<use xlink:href="#f2_22" transform="matrix(12,0,0,12,218.1,712.3)" />
<use xlink:href="#f2_20" transform="matrix(12,0,0,12,228.3,712.3)" />
<use xlink:href="#f2_21" transform="matrix(12,0,0,12,237.5,712.3)" />
<use xlink:href="#f2_2g" transform="matrix(12,0,0,12,245.6,712.3)" />
<use xlink:href="#f2_21" transform="matrix(12,0,0,12,251,712.3)" />
<use xlink:href="#f2_2e" transform="matrix(12,0,0,12,259.1,712.3)" />
<use xlink:href="#f2_29" transform="matrix(12,0,0,12,265.3,712.3)" />
<use xlink:href="#f2_25" transform="matrix(12,0,0,12,279.3,712.3)" />
<use xlink:href="#f2_2a" transform="matrix(12,0,0,12,284,712.3)" />
<use xlink:href="#f2_1x" transform="matrix(12,0,0,12,293.2,712.3)" />
<use xlink:href="#f2_2a" transform="matrix(12,0,0,12,301.6,712.3)" />
<use xlink:href="#f2_2g" transform="matrix(12,0,0,12,310.4,712.3)" />
<use xlink:href="#f2_2f" transform="matrix(12,0,0,12,315.9,712.3)" />
<use xlink:href="#f2_g" transform="matrix(12,0,0,12,322.8,712.3)" />
<use xlink:href="#f2_2c" transform="matrix(12,0,0,12,332.3,712.3)" />
<use xlink:href="#f2_2e" transform="matrix(12,0,0,12,341.5,712.3)" />
<use xlink:href="#f2_2b" transform="matrix(12,0,0,12,347.4,712.3)" />
<use xlink:href="#f2_2i" transform="matrix(12,0,0,12,356.9,712.3)" />
<use xlink:href="#f2_21" transform="matrix(12,0,0,12,365.7,712.3)" />
<use xlink:href="#f2_2g" transform="matrix(12,0,0,12,378.5,712.3)" />
<use xlink:href="#f2_24" transform="matrix(12,0,0,12,384,712.3)" />
<use xlink:href="#f2_1x" transform="matrix(12,0,0,12,392.8,712.3)" />
<use xlink:href="#f2_2g" transform="matrix(12,0,0,12,400.9,712.3)" />
</g>
<path d="M58.7,734.6v77m137.9,-77v77" class="g11_124" />
<g clip-path="url(#c7_124)">
<g fill="#000000" >
<use xlink:href="#f2_n" transform="matrix(7.2,0,0,7.1,226.6,769.5)" />
<use xlink:href="#f2_p" transform="matrix(12.5,0,0,12.2,64.1,777.7)" />
<use xlink:href="#f2_o" transform="matrix(12.5,0,0,12.2,100,777.7)" />
<use xlink:href="#f2_o" transform="matrix(12.5,0,0,12.2,140.4,777.7)" />
<use xlink:href="#f2_m" transform="matrix(12.5,0,0,12.2,176.3,777.7)" />
<use xlink:href="#f2_l" transform="matrix(12.5,0,0,12.2,59.3,805.3)" />
<use xlink:href="#f2_k" transform="matrix(12.5,0,0,12.2,68.4,805.3)" />
<use xlink:href="#f2_s" transform="matrix(12.5,0,0,12.2,103.7,805.3)" />
<use xlink:href="#f2_s" transform="matrix(12.5,0,0,12.2,140.1,805.3)" />
<use xlink:href="#f2_n" transform="matrix(12.5,0,0,12.2,176.3,805.3)" />
<use xlink:href="#f3_2k" transform="matrix(12.5,0,0,12.2,74.5,750.1)" />
<use xlink:href="#f3_2l" transform="matrix(12.5,0,0,12.2,102.2,750.1)" />
<use xlink:href="#f3_2k" transform="matrix(12.5,0,0,12.2,146,750.1)" />
<use xlink:href="#f3_2k" transform="matrix(12.5,0,0,12.2,181.9,750.1)" />
<use xlink:href="#f3_2k" transform="matrix(12.5,0,0,12.2,74.1,777.7)" />
<use xlink:href="#f3_2l" transform="matrix(12.5,0,0,12.2,111.1,777.7)" />
<use xlink:href="#f3_2k" transform="matrix(12.5,0,0,12.2,150.7,777.7)" />
<use xlink:href="#f3_2k" transform="matrix(12.5,0,0,12.2,186.6,777.7)" />
<use xlink:href="#f3_2k" transform="matrix(12.5,0,0,12.2,218,777.7)" />
<use xlink:href="#f3_2k" transform="matrix(12.5,0,0,12.2,78.6,805.3)" />
<use xlink:href="#f3_2l" transform="matrix(12.5,0,0,12.2,114.5,805.3)" />
<use xlink:href="#f3_2k" transform="matrix(12.5,0,0,12.2,150.1,805.3)" />
<use xlink:href="#f3_2k" transform="matrix(12.5,0,0,12.2,186,805.3)" />
<use xlink:href="#f4_f" transform="matrix(12.5,0,0,12.2,86.5,750.1)" />
<use xlink:href="#f4_f" transform="matrix(12.5,0,0,12.2,86,777.7)" />
<use xlink:href="#f4_x" transform="matrix(12.5,0,0,12.2,202.7,777.7)" />
<use xlink:href="#f4_f" transform="matrix(12.5,0,0,12.2,90.6,805.3)" />
</g>
</g>
<g fill="#000000" >
<use xlink:href="#f5_1j" transform="matrix(12,0,0,12,55,846.5)" />
<use xlink:href="#f5_2b" transform="matrix(12,0,0,12,65.3,846.5)" />
<use xlink:href="#f5_28" transform="matrix(12,0,0,12,74.5,846.5)" />
<use xlink:href="#f5_2h" transform="matrix(12,0,0,12,79.2,846.5)" />
<use xlink:href="#f5_2g" transform="matrix(12,0,0,12,89.5,846.5)" />
<use xlink:href="#f5_25" transform="matrix(12,0,0,12,95.7,846.5)" />
<use xlink:href="#f5_2b" transform="matrix(12,0,0,12,100.8,846.5)" />
<use xlink:href="#f5_2a" transform="matrix(12,0,0,12,109.9,846.5)" />
<use xlink:href="#f5_u" transform="matrix(12,0,0,12,120.2,846.5)" />
<use xlink:href="#f2_1k" transform="matrix(12,0,0,12,55,911.1)" />
<use xlink:href="#f2_2b" transform="matrix(12,0,0,12,66.4,911.1)" />
<use xlink:href="#f2_2c" transform="matrix(12,0,0,12,80.3,911.1)" />
<use xlink:href="#f2_2e" transform="matrix(12,0,0,12,89.5,911.1)" />
<use xlink:href="#f2_2b" transform="matrix(12,0,0,12,95.3,911.1)" />
<use xlink:href="#f2_2i" transform="matrix(12,0,0,12,104.8,911.1)" />
<use xlink:href="#f2_21" transform="matrix(12,0,0,12,113.6,911.1)" />
<use xlink:href="#f2_g" transform="matrix(12,0,0,12,121.7,911.1)" />
</g>
<path d="M134.6,868.5v76.9M272.5,868.5v76.9" class="g11_124" />
<g clip-path="url(#c8_124)">
<g fill="#000000" >
<use xlink:href="#f2_n" transform="matrix(7.2,0,0,7.1,302.6,903.3)" />
<use xlink:href="#f2_p" transform="matrix(12.5,0,0,12.2,140,911.5)" />
<use xlink:href="#f2_o" transform="matrix(12.5,0,0,12.2,175.9,911.5)" />
<use xlink:href="#f2_o" transform="matrix(12.5,0,0,12.2,216.4,911.5)" />
<use xlink:href="#f2_m" transform="matrix(12.5,0,0,12.2,252.3,911.5)" />
<use xlink:href="#f2_l" transform="matrix(12.5,0,0,12.2,135.2,939.1)" />
<use xlink:href="#f2_k" transform="matrix(12.5,0,0,12.2,144.3,939.1)" />
<use xlink:href="#f2_s" transform="matrix(12.5,0,0,12.2,179.6,939.1)" />
<use xlink:href="#f2_s" transform="matrix(12.5,0,0,12.2,216.1,939.1)" />
<use xlink:href="#f2_n" transform="matrix(12.5,0,0,12.2,252.2,939.1)" />
<use xlink:href="#f3_2k" transform="matrix(12.5,0,0,12.2,150.5,884)" />
<use xlink:href="#f3_2l" transform="matrix(12.5,0,0,12.2,178.1,884)" />
<use xlink:href="#f3_2k" transform="matrix(12.5,0,0,12.2,222,884)" />
<use xlink:href="#f3_2k" transform="matrix(12.5,0,0,12.2,257.9,884)" />
<use xlink:href="#f3_2k" transform="matrix(12.5,0,0,12.2,150,911.5)" />
<use xlink:href="#f3_2l" transform="matrix(12.5,0,0,12.2,187,911.5)" />
<use xlink:href="#f3_2k" transform="matrix(12.5,0,0,12.2,226.7,911.5)" />
<use xlink:href="#f3_2k" transform="matrix(12.5,0,0,12.2,262.6,911.5)" />
<use xlink:href="#f3_2k" transform="matrix(12.5,0,0,12.2,293.9,911.5)" />
<use xlink:href="#f3_2k" transform="matrix(12.5,0,0,12.2,154.6,939.1)" />
<use xlink:href="#f3_2l" transform="matrix(12.5,0,0,12.2,190.5,939.1)" />
<use xlink:href="#f3_2k" transform="matrix(12.5,0,0,12.2,226.1,939.1)" />
<use xlink:href="#f3_2k" transform="matrix(12.5,0,0,12.2,262,939.1)" />
<use xlink:href="#f4_f" transform="matrix(12.5,0,0,12.2,162.4,884)" />
<use xlink:href="#f4_f" transform="matrix(12.5,0,0,12.2,162,911.5)" />
<use xlink:href="#f4_x" transform="matrix(12.5,0,0,12.2,278.6,911.5)" />
<use xlink:href="#f4_f" transform="matrix(12.5,0,0,12.2,166.5,939.1)" />
</g>
</g>
<g fill="#000000" >
<use xlink:href="#f2_1c" transform="matrix(12,0,0,12,55,1010.1)" />
<use xlink:href="#f2_18" transform="matrix(12,0,0,12,66,1010.1)" />
<use xlink:href="#f2_1j" transform="matrix(12,0,0,12,79.3,1010.1)" />
</g>
<path d="M112.4,967.5v76.9M214.2,967.5v76.9m20.1,-76.9v76.9m95.8,-76.9v76.9" class="g12_124" />
<g clip-path="url(#c9_124)">
<g fill="#000000" >
<use xlink:href="#f2_p" transform="matrix(12.5,0,0,12.2,118.4,1010.5)" />
<use xlink:href="#f2_o" transform="matrix(12.5,0,0,12.2,158,1010.5)" />
<use xlink:href="#f2_m" transform="matrix(12.5,0,0,12.2,193.9,1010.5)" />
<use xlink:href="#f2_o" transform="matrix(12.5,0,0,12.2,236.8,1010.5)" />
<use xlink:href="#f2_o" transform="matrix(12.5,0,0,12.2,273.8,1010.5)" />
<use xlink:href="#f2_m" transform="matrix(12.5,0,0,12.2,309.7,1010.5)" />
<use xlink:href="#f2_l" transform="matrix(12.5,0,0,12.2,113,1038.1)" />
<use xlink:href="#f2_k" transform="matrix(12.5,0,0,12.2,122.1,1038.1)" />
<use xlink:href="#f2_s" transform="matrix(12.5,0,0,12.2,157.7,1038.1)" />
<use xlink:href="#f2_n" transform="matrix(12.5,0,0,12.2,194,1038.1)" />
<use xlink:href="#f2_s" transform="matrix(12.5,0,0,12.2,236.5,1038.1)" />
<use xlink:href="#f2_s" transform="matrix(12.5,0,0,12.2,273.6,1038.1)" />
<use xlink:href="#f2_n" transform="matrix(12.5,0,0,12.2,309.8,1038.1)" />
<use xlink:href="#f3_2k" transform="matrix(12.5,0,0,12.2,124.1,983)" />
<use xlink:href="#f3_2k" transform="matrix(12.5,0,0,12.2,163.6,983)" />
<use xlink:href="#f3_2k" transform="matrix(12.5,0,0,12.2,199.5,983)" />
<use xlink:href="#f3_2l" transform="matrix(12.5,0,0,12.2,243.2,983)" />
<use xlink:href="#f3_2k" transform="matrix(12.5,0,0,12.2,279.4,983)" />
<use xlink:href="#f3_2k" transform="matrix(12.5,0,0,12.2,315.3,983)" />
<use xlink:href="#f3_2k" transform="matrix(12.5,0,0,12.2,128.4,1010.5)" />
<use xlink:href="#f3_2k" transform="matrix(12.5,0,0,12.2,168.3,1010.5)" />
<use xlink:href="#f3_2k" transform="matrix(12.5,0,0,12.2,204.2,1010.5)" />
<use xlink:href="#f3_2l" transform="matrix(12.5,0,0,12.2,248,1010.5)" />
<use xlink:href="#f3_2k" transform="matrix(12.5,0,0,12.2,284.2,1010.5)" />
<use xlink:href="#f3_2k" transform="matrix(12.5,0,0,12.2,320.1,1010.5)" />
<use xlink:href="#f3_2k" transform="matrix(12.5,0,0,12.2,132.4,1038.1)" />
<use xlink:href="#f3_2k" transform="matrix(12.5,0,0,12.2,167.7,1038.1)" />
<use xlink:href="#f3_2k" transform="matrix(12.5,0,0,12.2,203.6,1038.1)" />
<use xlink:href="#f3_2l" transform="matrix(12.5,0,0,12.2,247.4,1038.1)" />
<use xlink:href="#f3_2k" transform="matrix(12.5,0,0,12.2,283.6,1038.1)" />
<use xlink:href="#f3_2k" transform="matrix(12.5,0,0,12.2,319.5,1038.1)" />
<use xlink:href="#f4_x" transform="matrix(12.5,0,0,12.2,97.2,1010.5)" />
<use xlink:href="#f4_f" transform="matrix(12.5,0,0,12.2,219.6,1010.5)" />
</g>
</g>
<path d="M91.5,1066.5v76.9m73.2,-76.9v76.9m48.1,-76.9v76.9m66,-76.9v76.9" class="g13_124" />
<g clip-path="url(#c10_124)">
<g fill="#000000" >
<use xlink:href="#f2_n" transform="matrix(7.2,0,0,7.1,82.1,1101.3)" />
<use xlink:href="#f2_m" transform="matrix(7.2,0,0,7.1,203,1101.3)" />
<use xlink:href="#f2_l" transform="matrix(12.5,0,0,12.2,97.5,1082)" />
<use xlink:href="#f2_l" transform="matrix(12.5,0,0,12.2,127.4,1082)" />
<use xlink:href="#f2_l" transform="matrix(12.5,0,0,12.2,153.8,1082)" />
<use xlink:href="#f2_l" transform="matrix(12.5,0,0,12.2,215.1,1082)" />
<use xlink:href="#f2_l" transform="matrix(12.5,0,0,12.2,241.4,1082)" />
<use xlink:href="#f2_l" transform="matrix(12.5,0,0,12.2,267.8,1082)" />
<use xlink:href="#f2_p" transform="matrix(12.5,0,0,12.2,97.6,1109.5)" />
<use xlink:href="#f2_o" transform="matrix(12.5,0,0,12.2,127.7,1109.5)" />
<use xlink:href="#f2_m" transform="matrix(12.5,0,0,12.2,154.1,1109.5)" />
<use xlink:href="#f2_o" transform="matrix(12.5,0,0,12.2,215.4,1109.5)" />
<use xlink:href="#f2_o" transform="matrix(12.5,0,0,12.2,241.7,1109.5)" />
<use xlink:href="#f2_m" transform="matrix(12.5,0,0,12.2,268.1,1109.5)" />
<use xlink:href="#f2_l" transform="matrix(12.5,0,0,12.2,92.1,1137.1)" />
<use xlink:href="#f2_k" transform="matrix(12.5,0,0,12.2,101.3,1137.1)" />
<use xlink:href="#f2_s" transform="matrix(12.5,0,0,12.2,127.4,1137.1)" />
<use xlink:href="#f2_n" transform="matrix(12.5,0,0,12.2,154.1,1137.1)" />
<use xlink:href="#f2_s" transform="matrix(12.5,0,0,12.2,215,1137.1)" />
<use xlink:href="#f2_s" transform="matrix(12.5,0,0,12.2,241.4,1137.1)" />
<use xlink:href="#f2_n" transform="matrix(12.5,0,0,12.2,268.1,1137.1)" />
<use xlink:href="#f3_2k" transform="matrix(12.5,0,0,12.2,73.4,1109.5)" />
<use xlink:href="#f3_2l" transform="matrix(12.5,0,0,12.2,185.9,1109.5)" />
<use xlink:href="#f3_2k" transform="matrix(12.5,0,0,12.2,193.9,1109.5)" />
<use xlink:href="#f4_x" transform="matrix(12.5,0,0,12.2,58,1109.5)" />
<use xlink:href="#f4_f" transform="matrix(12.5,0,0,12.2,170.1,1109.5)" />
</g>
</g>
<g fill="#000000" >
<use xlink:href="#f2_11" transform="matrix(12,0,0,12,55,1178.4)" />
<use xlink:href="#f2_2c" transform="matrix(12,0,0,12,67.9,1178.4)" />
<use xlink:href="#f2_2c" transform="matrix(12,0,0,12,77,1178.4)" />
<use xlink:href="#f2_28" transform="matrix(12,0,0,12,86.6,1178.4)" />
<use xlink:href="#f2_2l" transform="matrix(12,0,0,12,91.6,1178.4)" />
<use xlink:href="#f2_25" transform="matrix(12,0,0,12,100.8,1178.4)" />
<use xlink:href="#f2_2a" transform="matrix(12,0,0,12,105.6,1178.4)" />
<use xlink:href="#f2_23" transform="matrix(12,0,0,12,114.8,1178.4)" />
<use xlink:href="#f2_13" transform="matrix(12,0,0,12,128.7,1178.4)" />
<use xlink:href="#f2_l" transform="matrix(7.9,0,0,7.9,140.8,1179.9)" />
<use xlink:href="#f6_8r" transform="matrix(12,0,0,12,151.9,1178.4)" />
<use xlink:href="#f2_13" transform="matrix(12,0,0,12,175,1178.4)" />
<use xlink:href="#f2_l" transform="matrix(7.9,0,0,7.9,187.1,1179.9)" />
<use xlink:href="#f6_4y" transform="matrix(12,0,0,12,196.2,1178.4)" />
<use xlink:href="#f2_13" transform="matrix(12,0,0,12,210.2,1178.4)" />
<use xlink:href="#f2_m" transform="matrix(7.9,0,0,7.9,222.3,1179.9)" />
<use xlink:href="#f2_g" transform="matrix(12,0,0,12,228.5,1178.4)" />
<use xlink:href="#f2_13" transform="matrix(12,0,0,12,237.7,1178.4)" />
<use xlink:href="#f2_m" transform="matrix(7.9,0,0,7.9,249.8,1179.9)" />
<use xlink:href="#f6_8r" transform="matrix(12,0,0,12,260.8,1178.4)" />
<use xlink:href="#f2_13" transform="matrix(12,0,0,12,283.5,1178.4)" />
<use xlink:href="#f2_m" transform="matrix(7.9,0,0,7.9,295.6,1179.9)" />
<use xlink:href="#f6_4y" transform="matrix(12,0,0,12,306.6,1178.4)" />
<use xlink:href="#f2_13" transform="matrix(12,0,0,12,320.2,1178.4)" />
<use xlink:href="#f2_n" transform="matrix(7.9,0,0,7.9,332.3,1179.9)" />
<use xlink:href="#f2_25" transform="matrix(12,0,0,12,343.4,1178.4)" />
<use xlink:href="#f2_2a" transform="matrix(12,0,0,12,348.1,1178.4)" />
<use xlink:href="#f2_2g" transform="matrix(12,0,0,12,361.7,1178.4)" />
<use xlink:href="#f2_24" transform="matrix(12,0,0,12,367.1,1178.4)" />
<use xlink:href="#f2_21" transform="matrix(12,0,0,12,375.9,1178.4)" />
<use xlink:href="#f2_22" transform="matrix(12,0,0,12,388.8,1178.4)" />
<use xlink:href="#f2_25" transform="matrix(12,0,0,12,394.6,1178.4)" />
<use xlink:href="#f2_2e" transform="matrix(12,0,0,12,399.4,1178.4)" />
<use xlink:href="#f2_2f" transform="matrix(12,0,0,12,405.6,1178.4)" />
<use xlink:href="#f2_2g" transform="matrix(12,0,0,12,412.6,1178.4)" />
<use xlink:href="#f2_20" transform="matrix(12,0,0,12,422.8,1178.4)" />
<use xlink:href="#f2_21" transform="matrix(12,0,0,12,432,1178.4)" />
<use xlink:href="#f2_2g" transform="matrix(12,0,0,12,440,1178.4)" />
<use xlink:href="#f2_21" transform="matrix(12,0,0,12,445.5,1178.4)" />
<use xlink:href="#f2_2e" transform="matrix(12,0,0,12,453.6,1178.4)" />
<use xlink:href="#f2_29" transform="matrix(12,0,0,12,459.8,1178.4)" />
<use xlink:href="#f2_25" transform="matrix(12,0,0,12,473.7,1178.4)" />
<use xlink:href="#f2_2a" transform="matrix(12,0,0,12,478.5,1178.4)" />
<use xlink:href="#f2_1x" transform="matrix(12,0,0,12,487.7,1178.4)" />
<use xlink:href="#f2_2a" transform="matrix(12,0,0,12,496.1,1178.4)" />
<use xlink:href="#f2_2g" transform="matrix(12,0,0,12,504.9,1178.4)" />
</g>
<path fill-rule="evenodd" d="M37.4,38.1h.7v-.7h-.7v.7Z" class="g10_124" />
<path fill-rule="evenodd" d="M37.4,38.1h.7v-.7h-.7v.7Z" class="g10_124" />
<path fill-rule="evenodd" d="M38.1,38.1H871.5v-.7H38.1v.7Z" class="g10_124" />
<path fill-rule="evenodd" d="M871.5,38.1h.8v-.7h-.8v.7Z" class="g10_124" />
<path fill-rule="evenodd" d="M871.5,38.1h.8v-.7h-.8v.7Z" class="g10_124" />
<path fill-rule="evenodd" d="M37.4,1248.5h.7V38.1h-.7V1248.5Z" class="g10_124" />
<path fill-rule="evenodd" d="M872.3,1248.5h.7V38.1h-.7V1248.5Z" class="g10_124" />
<path fill-rule="evenodd" d="M871.5,1248.5h.8V38.1h-.8V1248.5Z" class="g10_124" />
<path fill-rule="evenodd" d="M37.4,1249.2h.7v-.7h-.7v.7Z" class="g10_124" />
<path fill-rule="evenodd" d="M37.4,1249.2h.7v-.7h-.7v.7Z" class="g10_124" />
<path fill-rule="evenodd" d="M38.1,1249.9H871.5v-.7H38.1v.7Z" class="g10_124" />
<path fill-rule="evenodd" d="M38.1,1249.2H871.5v-.7H38.1v.7Z" class="g10_124" />
<path fill-rule="evenodd" d="M872.3,1249.9h.7v-1.4h-.7v1.4Z" class="g10_124" />
<path fill-rule="evenodd" d="M871.5,1249.9H873v-.7h-1.5v.7Z" class="g10_124" />
<path fill-rule="evenodd" d="M871.5,1249.2h.8v-.7h-.8v.7Z" class="g10_124" />
<path fill-rule="evenodd" d="M871.5,1249.2h.8v-.7h-.8v.7Z" class="g10_124" />
<defs>
<path d="M489,-15c0,0,-99,0,-179,30c0,0,-80,30,-136,91c0,0,-56,61,-85,152c0,0,-30,91,-30,212c0,0,0,123,32,218c0,0,33,96,92,161c0,0,59,65,142,98c0,0,82,34,181,34c0,0,40,0,78,-7c0,0,37,-7,69,-18c0,0,31,-11,57,-25c0,0,25,-14,35,-24c0,0,10,-10,14,-17c0,0,4,-7,6,-17c0,0,2,-11,3,-25c0,0,2,-14,2,-35c0,0,0,-22,-2,-38c0,0,-1,-15,-5,-25c0,0,-4,-10,-9,-14c0,0,-5,-5,-12,-5c0,0,-11,0,-28,13c0,0,-18,13,-45,29c0,0,-27,16,-65,29c0,0,-37,13,-89,13c0,0,-58,0,-103,-23c0,0,-45,-23,-77,-67c0,0,-31,-44,-48,-106c0,0,-16,-61,-16,-139c0,0,0,-85,17,-147c0,0,18,-62,50,-103c0,0,33,-40,79,-60c0,0,45,-19,103,-19c0,0,52,0,90,12c0,0,38,12,65,27c0,0,27,15,45,27c0,0,17,12,27,12c0,0,8,0,12,-3c0,0,4,-3,7,-12c0,0,3,-9,5,-25c0,0,1,-16,1,-43c0,0,0,-18,-1,-31c0,0,-1,-14,-3,-23c0,0,-2,-9,-6,-16c0,0,-4,-7,-12,-15c0,0,-8,-9,-32,-22c0,0,-23,-14,-57,-26C661,13,627,1,583,-6c0,0,-43,-9,-94,-9Z" 
id="f0_j"
transform="scale(0.001,-0.001)" />

<path d="M440,150c0,0,41,0,68,8c0,0,28,9,49,26c0,0,20,16,32,41c0,0,11,25,11,58c0,0,0,33,-11,60c0,0,-11,26,-33,44c0,0,-21,18,-55,28c0,0,-33,9,-87,9H298V150ZM407,567c0,0,42,0,68,10c0,0,25,10,42,28c0,0,16,17,24,41c0,0,9,24,9,50c0,0,0,29,-9,52c0,0,-9,23,-27,39c0,0,-18,15,-45,23c0,0,-27,8,-72,8H298V567ZM164,0c0,0,-25,0,-42,15c0,0,-16,14,-16,47V903c0,0,0,33,16,48c0,0,17,14,42,14H406c0,0,88,0,150,-15c0,0,61,-15,103,-45c0,0,42,-30,65,-77c0,0,22,-46,22,-108c0,0,0,-36,-9,-67c0,0,-9,-31,-26,-56c0,0,-17,-25,-42,-45c0,0,-25,-19,-57,-31c0,0,41,-7,76,-26c0,0,34,-19,60,-48c0,0,26,-30,41,-69c0,0,15,-40,15,-89c0,0,0,-51,-14,-93c0,0,-15,-42,-40,-74c0,0,-25,-32,-59,-55c0,0,-35,-23,-77,-38C614,29,573,14,525,7C525,7,478,0,420,0Z" 
id="f0_i"
transform="scale(0.001,-0.001)" />

<path d="M320,-17c0,0,-50,0,-93,9c0,0,-43,8,-76,19c0,0,-32,11,-54,24C97,35,75,48,65,58c0,0,-10,9,-14,28c0,0,-4,18,-4,52c0,0,0,23,1,39c0,0,2,15,5,25c0,0,4,10,9,14c0,0,6,4,13,4c0,0,11,0,30,-12c0,0,19,-13,49,-28c0,0,30,-15,71,-27c0,0,42,-12,96,-12c0,0,36,0,64,8c0,0,29,9,49,25c0,0,19,15,30,38c0,0,10,23,10,52c0,0,0,33,-18,56c0,0,-18,24,-46,42c0,0,-29,18,-66,34c0,0,-36,16,-75,34c0,0,-39,18,-76,41c0,0,-36,23,-65,54c0,0,-29,32,-47,75c0,0,-17,44,-17,104c0,0,0,70,25,122c0,0,26,53,70,88c0,0,43,34,103,51c0,0,59,18,125,18c0,0,35,0,69,-6c0,0,34,-5,64,-14c0,0,30,-9,53,-20c0,0,23,-11,31,-18c0,0,7,-8,10,-13c0,0,3,-5,4,-14c0,0,2,-8,3,-21c0,0,1,-13,1,-33c0,0,0,-21,-1,-36c0,0,-1,-15,-4,-25c0,0,-3,-9,-7,-14c0,0,-5,-4,-14,-4c0,0,-8,0,-26,10c0,0,-18,10,-44,23c0,0,-26,12,-60,22c0,0,-34,10,-75,10c0,0,-32,0,-56,-8c0,0,-24,-8,-40,-21c0,0,-16,-14,-24,-34c0,0,-8,-19,-8,-41c0,0,0,-32,18,-56c0,0,17,-23,46,-42c0,0,30,-18,67,-34c0,0,38,-16,76,-34c0,0,39,-18,76,-41c0,0,38,-22,67,-54c0,0,29,-32,47,-75c0,0,18,-43,18,-101c0,0,0,-76,-29,-133c0,0,-28,-58,-77,-96C572,60,524,21,459,2c0,0,-65,-19,-139,-19Z" 
id="f0_2n"
transform="scale(0.001,-0.001)" />

<path d="M164,0c0,0,-25,0,-42,15c0,0,-16,14,-16,47V903c0,0,0,33,16,48c0,0,17,14,42,14H645c0,0,7,0,12,-4c0,0,5,-3,9,-13c0,0,4,-9,6,-24c0,0,2,-14,2,-36c0,0,0,-21,-2,-36c0,0,-2,-14,-6,-23c0,0,-4,-9,-9,-13c0,0,-5,-4,-12,-4H301V576H593c0,0,6,0,12,-4c0,0,6,-4,9,-13c0,0,4,-8,6,-23c0,0,2,-14,2,-35c0,0,0,-22,-2,-36c0,0,-2,-14,-6,-23c0,0,-3,-8,-9,-12c0,0,-6,-4,-12,-4H301V154H649c0,0,6,0,12,-5c0,0,5,-4,9,-13c0,0,4,-9,6,-23c0,0,2,-15,2,-36c0,0,0,-22,-2,-36c0,0,-2,-15,-6,-24c0,0,-4,-9,-9,-13c0,0,-6,-4,-12,-4Z" 
id="f0_t"
transform="scale(0.001,-0.001)" />

<path d="M79,297c0,0,-19,0,-27,18c0,0,-8,17,-8,60c0,0,0,41,8,59c0,0,8,17,27,17H389c0,0,9,0,15,-4c0,0,7,-4,11,-13c0,0,5,-9,7,-23c0,0,1,-15,1,-36c0,0,0,-43,-8,-61c0,0,-8,-17,-26,-17Z" 
id="f0_oj"
transform="scale(0.001,-0.001)" />

<path d="M121,-4c0,0,-39,0,-60,2C61,-2,39,0,32,8c0,0,-8,8,-3,24c0,0,4,15,18,41L279,495L64,892c0,0,-14,26,-19,42c0,0,-5,17,4,24c0,0,9,8,32,10c0,0,23,2,65,2c0,0,35,0,56,-2c0,0,20,-1,32,-4c0,0,12,-4,17,-10c0,0,5,-6,9,-15L431,620L595,939c0,0,5,9,10,15c0,0,5,6,16,10c0,0,10,3,29,4c0,0,19,2,53,2c0,0,37,0,59,-2c0,0,22,-2,30,-10c0,0,8,-8,4,-24c0,0,-4,-16,-17,-42L564,497L793,73c0,0,14,-26,18,-41c0,0,4,-16,-5,-24c0,0,-9,-8,-32,-10c0,0,-24,-2,-65,-2c0,0,-36,0,-56,2c0,0,-20,1,-31,3c0,0,-12,4,-17,10c0,0,-5,6,-9,15L414,374L233,26c0,0,-4,-9,-9,-15c0,0,-6,-6,-17,-10c0,0,-12,-2,-32,-3c0,0,-21,-2,-54,-2Z" 
id="f0_3e"
transform="scale(0.001,-0.001)" />

<path d="M204,-4c0,0,-28,0,-47,2c0,0,-19,2,-31,5c0,0,-11,4,-16,10c0,0,-4,6,-4,13V939c0,0,0,7,4,13c0,0,5,6,17,10c0,0,11,3,30,6c0,0,19,2,47,2c0,0,29,0,48,-2c0,0,18,-3,29,-6c0,0,11,-4,16,-10c0,0,5,-6,5,-13V26c0,0,0,-7,-5,-13c0,0,-5,-6,-16,-10c0,0,-11,-3,-29,-5c0,0,-19,-2,-48,-2Z" 
id="f0_1c"
transform="scale(0.001,-0.001)" />

<path d="M127,0c0,0,-16,0,-28,3C99,3,87,6,80,15c0,0,-8,8,-11,25c0,0,-3,16,-3,42c0,0,0,25,2,42c0,0,2,18,8,32c0,0,6,14,15,27c0,0,9,13,24,29L282,390c0,0,50,53,81,95c0,0,30,43,47,79c0,0,17,35,24,65c0,0,6,30,6,57c0,0,0,24,-8,46c0,0,-8,22,-23,39c0,0,-15,16,-38,25c0,0,-23,10,-55,10c0,0,-44,0,-78,-12c0,0,-33,-11,-59,-25c0,0,-26,-13,-43,-25c0,0,-17,-12,-27,-12c0,0,-7,0,-11,5c0,0,-5,4,-8,15c0,0,-3,10,-5,28c0,0,-2,17,-2,42c0,0,0,18,1,29c0,0,1,12,4,20c0,0,2,9,6,15c0,0,3,6,13,15c0,0,9,9,34,23c0,0,25,14,61,27c0,0,37,14,81,23c0,0,44,9,92,9c0,0,75,0,131,-19c0,0,57,-19,94,-53c0,0,37,-34,55,-81c0,0,19,-47,19,-100c0,0,0,-47,-9,-93c0,0,-9,-45,-37,-98c0,0,-29,-52,-80,-116c0,0,-52,-64,-136,-148L299,159H679c0,0,8,0,14,-4c0,0,6,-5,11,-14c0,0,4,-9,7,-25c0,0,2,-15,2,-36c0,0,0,-22,-2,-37c0,0,-2,-15,-6,-25c0,0,-3,-10,-9,-14c0,0,-6,-4,-14,-4Z" 
id="f0_rz"
transform="scale(0.001,-0.001)" />

<path d="M385,138c0,0,29,0,52,9c0,0,22,10,39,28c0,0,17,19,28,47c0,0,11,29,19,66c0,0,7,37,9,84c0,0,3,47,3,104c0,0,0,69,-4,122c0,0,-4,52,-11,91c0,0,-8,39,-20,66c0,0,-12,27,-28,43c0,0,-16,16,-37,22c0,0,-21,7,-47,7c0,0,-44,0,-73,-21c0,0,-28,-21,-45,-64c0,0,-17,-42,-24,-106c0,0,-6,-63,-6,-148c0,0,0,-103,8,-171c0,0,8,-67,26,-107c0,0,17,-40,45,-56c0,0,27,-16,66,-16ZM378,-17c0,0,-99,0,-164,33c0,0,-65,34,-103,98c0,0,-38,64,-54,156c0,0,-15,92,-15,209c0,0,0,115,19,208c0,0,19,94,61,160c0,0,42,65,110,101c0,0,68,35,165,35c0,0,99,0,164,-34c0,0,65,-34,103,-98c0,0,39,-64,53,-156c0,0,15,-92,15,-209c0,0,0,-115,-18,-209c0,0,-19,-93,-61,-159C653,118,611,53,543,17c0,0,-67,-34,-165,-34Z" 
id="f0_rx"
transform="scale(0.001,-0.001)" />

<path d="M142,0c0,0,-6,0,-12,4c0,0,-5,3,-9,12c0,0,-4,9,-6,23c0,0,-3,15,-3,36c0,0,0,21,2,36c0,0,2,14,6,23c0,0,4,9,10,13c0,0,5,5,12,5H322V779L166,693c0,0,-17,-8,-28,-10c0,0,-1,0,-3,0c-4,0,-10,1,-14,5c0,0,-6,6,-8,22c0,0,-2,15,-2,44c0,0,0,18,0,29c0,0,1,12,4,20c0,0,3,8,8,14c0,0,5,5,14,11L345,962c0,0,4,3,9,5c0,0,6,2,15,3c0,0,9,1,23,2c0,0,15,0,38,0c0,0,28,0,46,-1c0,0,17,-1,26,-4c0,0,9,-3,12,-7c0,0,3,-4,3,-11V152H675c0,0,7,0,12,-5c0,0,6,-4,10,-13c0,0,4,-9,6,-23c0,0,2,-15,2,-36c0,0,0,-21,-2,-36c0,0,-3,-14,-7,-23c0,0,-4,-9,-9,-12c0,0,-5,-4,-12,-4Z" 
id="f0_ry"
transform="scale(0.001,-0.001)" />

<path d="M439,356V801h-1L183,356ZM532,-4c0,0,-27,0,-45,2c0,0,-18,2,-29,5c0,0,-11,3,-15,9c0,0,-4,5,-4,13V199H70c0,0,-11,0,-19,3c0,0,-8,3,-14,12c0,0,-5,9,-8,27c0,0,-3,17,-3,46c0,0,0,24,2,42c0,0,1,17,3,31c0,0,3,15,8,27c0,0,5,13,12,27L351,944c0,0,4,7,13,11c0,0,9,5,25,9c0,0,16,3,40,4c0,0,25,2,60,2c0,0,38,0,65,-2c0,0,27,-2,43,-6c0,0,16,-4,23,-10c0,0,8,-6,8,-14V356h85c0,0,12,0,21,-18c0,0,8,-19,8,-61c0,0,0,-38,-8,-58c0,0,-7,-20,-21,-20H628V25c0,0,0,-8,-5,-13c0,0,-4,-6,-15,-9c0,0,-12,-3,-29,-5c0,0,-18,-2,-47,-2Z" 
id="f0_s6"
transform="scale(0.001,-0.001)" />

<path d="M589,371L453,782h-1L317,371ZM106,-4c0,0,-35,0,-54,2C52,-2,32,0,25,8c0,0,-7,9,-5,24c0,0,2,16,11,42L329,931c0,0,4,13,10,21c0,0,6,7,19,12c0,0,13,4,36,5c0,0,23,1,61,1c0,0,44,0,71,-1c0,0,26,-1,40,-5c0,0,15,-5,21,-13c0,0,6,-8,11,-22L896,73c0,0,9,-27,11,-43c0,0,3,-15,-6,-23c0,0,-8,-7,-29,-9c0,0,-21,-2,-57,-2c0,0,-38,0,-59,1c0,0,-22,1,-33,4c0,0,-11,3,-16,9c0,0,-4,6,-7,16L635,220H272L211,31c0,0,-2,-11,-7,-18c0,0,-5,-7,-16,-11c0,0,-11,-3,-31,-4c0,0,-19,-2,-51,-2Z" 
id="f0_5"
transform="scale(0.001,-0.001)" />

<path d="M198,-4c0,0,-27,0,-45,2c0,0,-18,2,-28,5c0,0,-11,4,-15,10c0,0,-4,6,-4,13V887c0,0,0,38,20,58c0,0,20,20,53,20H308c0,0,34,0,59,-6c0,0,24,-5,42,-18c0,0,18,-13,30,-35c0,0,12,-21,21,-52L669,279h3L889,852c0,0,9,32,21,53c0,0,11,22,27,35c0,0,15,14,36,19c0,0,21,6,48,6h132c0,0,21,0,35,-5c0,0,15,-5,24,-15c0,0,9,-11,14,-25c0,0,5,-15,5,-33V26c0,0,0,-7,-4,-13c0,0,-4,-6,-15,-10c0,0,-11,-3,-29,-5c0,0,-18,-2,-45,-2c0,0,-27,0,-45,2c0,0,-18,2,-28,5c0,0,-11,4,-15,10c0,0,-5,6,-5,13V813h-1L764,27c0,0,-3,-10,-10,-16c0,0,-6,-6,-18,-10c0,0,-12,-3,-29,-4c0,0,-18,-1,-44,-1c0,0,-25,0,-43,2c0,0,-18,2,-29,5c0,0,-12,4,-19,10c0,0,-6,6,-9,14L293,813h-2V26c0,0,0,-7,-4,-13c0,0,-4,-6,-15,-10c0,0,-11,-3,-29,-5c0,0,-17,-2,-45,-2Z" 
id="f0_1x"
transform="scale(0.001,-0.001)" />

<path d="M193,-4c0,0,-26,0,-43,2c0,0,-18,2,-27,6c0,0,-10,4,-14,10c0,0,-3,6,-3,13V895c0,0,0,35,20,53c0,0,21,17,50,17H282c0,0,28,0,47,-5c0,0,20,-5,35,-16c0,0,15,-11,29,-31c0,0,13,-20,27,-49L608,511c0,0,17,-32,33,-63c0,0,16,-31,31,-62c0,0,14,-31,29,-60c0,0,14,-30,27,-60h1c0,0,-2,52,-3,109c0,0,-1,57,-1,108V936c0,0,0,7,4,13c0,0,5,6,15,11c0,0,10,4,28,6c0,0,17,2,44,2c0,0,25,0,42,-2c0,0,17,-2,27,-6c0,0,9,-5,13,-11c0,0,4,-6,4,-13V68c0,0,0,-17,-6,-30c0,0,-6,-14,-17,-23C879,15,869,6,856,2c0,0,-14,-3,-28,-3H744c0,0,-26,0,-45,4c0,0,-19,5,-35,19c0,0,-16,14,-31,38c0,0,-15,23,-34,60L359,572c0,0,-21,40,-43,86c0,0,-21,47,-38,91h-2c0,0,3,-54,5,-107c0,0,2,-53,2,-110V27c0,0,0,-7,-5,-13c0,0,-4,-6,-14,-10c0,0,-10,-4,-27,-6c0,0,-17,-2,-44,-2Z" 
id="f0_1y"
transform="scale(0.001,-0.001)" />

<path d="M378,-4c0,0,-28,0,-47,2c0,0,-19,2,-31,5c0,0,-11,4,-16,10c0,0,-4,6,-4,13V805H38c0,0,-8,0,-13,4c0,0,-5,5,-9,14c0,0,-3,9,-5,25c0,0,-2,15,-2,37c0,0,0,22,2,38c0,0,2,15,5,25c0,0,4,9,9,13c0,0,5,4,13,4H718c0,0,7,0,12,-4c0,0,6,-4,10,-13c0,0,3,-10,5,-25c0,0,2,-16,2,-38c0,0,0,-22,-2,-37c0,0,-2,-16,-5,-25c0,0,-4,-9,-10,-14c0,0,-5,-4,-12,-4H476V26c0,0,0,-7,-5,-13c0,0,-5,-6,-16,-10c0,0,-11,-3,-30,-5c0,0,-19,-2,-47,-2Z" 
id="f0_2t"
transform="scale(0.001,-0.001)" />

<path d="M514,145c0,0,72,0,121,27c0,0,48,26,78,73c0,0,30,46,42,107c0,0,13,62,13,131c0,0,0,76,-12,139c0,0,-12,62,-41,106c0,0,-29,45,-76,69c0,0,-48,24,-120,24c0,0,-72,0,-120,-27c0,0,-49,-27,-79,-73c0,0,-29,-45,-42,-106c0,0,-12,-61,-12,-129c0,0,0,-79,12,-142c0,0,12,-63,40,-108c0,0,28,-44,76,-68c0,0,48,-23,120,-23ZM508,-17c0,0,-113,0,-196,29c0,0,-84,29,-140,90c0,0,-56,60,-84,154c0,0,-28,93,-28,221c0,0,0,117,29,210c0,0,30,94,89,160c0,0,59,65,146,101c0,0,87,35,202,35c0,0,110,0,194,-29c0,0,84,-30,140,-90c0,0,56,-60,85,-153c0,0,29,-92,29,-217c0,0,0,-120,-30,-215c0,0,-30,-95,-89,-161C855,118,796,52,709,17c0,0,-87,-34,-201,-34Z" 
id="f0_24"
transform="scale(0.001,-0.001)" />

<path d="M402,179c0,0,58,0,100,45c0,0,42,45,42,107c0,0,0,65,-41,108c0,0,-41,44,-101,44c0,0,-65,0,-110,-44c0,0,-45,-45,-45,-109c0,0,0,-64,45,-107c0,0,44,-44,110,-44ZM390,-11c0,0,-150,0,-247,94c0,0,-97,96,-97,243c0,0,0,106,48,217c0,0,49,111,108,194L356,952H605L372,631c0,0,48,9,88,9c0,0,123,0,212,-91c0,0,89,-92,89,-219c0,0,0,-148,-105,-245c0,0,-105,-96,-266,-96Z" 
id="f1_q"
transform="scale(0.001,-0.001)" />

<path d="M44,-281L425,1053H537L156,-281Z" 
id="f1_j"
transform="scale(0.001,-0.001)" />

<path d="M75,0L400,413c0,0,71,91,101,149c0,0,30,58,30,109c0,0,0,55,-36,91c0,0,-36,36,-91,36c0,0,-63,0,-91,-45c0,0,-28,-46,-34,-142H67c0,0,0,173,102,268c0,0,102,95,253,95c0,0,140,0,229,-82c0,0,89,-82,89,-209c0,0,0,-125,-104,-276L580,324c0,0,-34,-50,-85,-114L468,178H740V0Z" 
id="f1_m"
transform="scale(0.001,-0.001)" />

<path d="M340,-13c0,0,-73,0,-129,20C211,7,155,27,86,74l22,217c0,0,156,-103,245,-103c0,0,64,0,112,45c0,0,47,46,47,107c0,0,0,68,-47,113c0,0,-48,46,-121,46c0,0,-85,0,-184,-42l48,495H681V777H393L382,665c0,0,163,0,251,-95c0,0,88,-95,88,-224c0,0,0,-146,-113,-253C608,93,494,-13,340,-13Z" 
id="f1_p"
transform="scale(0.001,-0.001)" />

<path d="M134,0V40L339,60V876L137,804v39l292,166h39V60L672,40V0Z" 
id="f2_l"
transform="scale(0.001,-0.001)" />

<path d="M67,0V109L206,235c0,0,133,118,196,190c0,0,63,72,90,149c0,0,27,77,27,177c0,0,0,97,-44,148c0,0,-44,50,-144,50c0,0,-39,0,-81,-10c0,0,-42,-11,-74,-29L150,787H101V980c0,0,135,32,230,32c0,0,164,0,247,-68c0,0,82,-69,82,-193c0,0,0,-84,-32,-158c0,0,-33,-75,-100,-148c0,0,-67,-74,-222,-206c0,0,-67,-57,-141,-125H680V0Z" 
id="f2_m"
transform="scale(0.001,-0.001)" />

<path d="M249,-14c0,0,-71,0,-107,42c0,0,-35,42,-35,119V639H15v33l93,29l76,159h47V701H391V639H231V161c0,0,0,-48,22,-73c0,0,22,-24,57,-24c0,0,44,0,106,12V26C416,26,389,8,340,-2c0,0,-49,-12,-91,-12Z" 
id="f2_2g"
transform="scale(0.001,-0.001)" />

<path d="M284,67c0,0,51,0,88,12c0,0,37,12,74,30V358l-98,-3c0,0,-100,-4,-135,-39c0,0,-35,-35,-35,-117c0,0,0,-132,106,-132ZM233,-14c0,0,-179,0,-179,208c0,0,0,70,27,116c0,0,27,46,87,70c0,0,60,24,173,27l105,3V519c0,0,0,72,-26,107c0,0,-27,34,-82,34c0,0,-75,0,-137,-35L176,538H134V691c0,0,121,26,213,26c0,0,115,0,169,-47c0,0,54,-47,54,-144V52L657,33V0H465L451,70c0,0,-85,-84,-218,-84Z" 
id="f2_1x"
transform="scale(0.001,-0.001)" />

<path d="M439,0V33l93,19V500c0,0,0,62,-30,97c0,0,-31,36,-94,36c0,0,-67,0,-165,-22V52L338,33V0H35V33l84,19V649L35,668v33H235l7,-57c0,0,57,33,122,54c0,0,65,22,108,22c0,0,91,0,137,-53c0,0,47,-53,47,-154V52L741,33V0Z" 
id="f2_2a"
transform="scale(0.001,-0.001)" />

<path d="M476,327V830h-4L114,327ZM476,0V220H30v99l488,686h86V327H740V220H604V0Z" 
id="f2_o"
transform="scale(0.001,-0.001)" />

<path d="M-6,0c0,0,-12,10,-12,32c0,0,0,21,23,51c0,0,23,31,79,82L287,354L159,649L79,668l6,33H270L378,434l93,88c0,0,47,46,67,72c0,0,19,26,19,44c0,0,0,8,-6,13c0,0,-7,6,-38,17l6,33H651c0,0,16,-12,16,-32c0,0,0,-44,-103,-142L404,377L548,49L634,33L628,0H437L313,298L185,176c0,0,-41,-40,-60,-65c0,0,-19,-26,-19,-48c0,0,0,-21,31,-29L131,0Z" 
id="f3_2k"
transform="scale(0.001,-0.001)" />

<path d="M0,356v74H784V356Z" 
id="f4_h"
transform="scale(0.001,-0.001)" />

<path d="M355,0V355H0v72H355V784h72V427H782V355H427V0Z" 
id="f4_f"
transform="scale(0.001,-0.001)" />

<path d="M140,-21c0,0,-26,0,-44,17C96,-4,79,13,79,40c0,0,0,19,6,33c0,0,8,20,34,55c0,0,46,60,64,126c0,0,32,114,41,321H190c0,0,-55,0,-81,-18c0,0,-44,-26,-80,-89H0c0,0,42,129,98,178c0,0,43,37,120,37H743V575H562c0,0,-27,-171,-27,-327c0,0,0,-77,27,-110c0,0,27,-33,67,-33c0,0,33,0,56,22c0,0,24,22,31,65h27C743,192,730,74,686,26c0,0,-44,-47,-98,-47c0,0,-58,0,-97,51c0,0,-39,53,-39,198c0,0,0,91,28,347H286c0,0,-23,-390,-56,-494c0,0,-33,-102,-90,-102Z" 
id="f4_2c"
transform="scale(0.001,-0.001)" />

<path d="M62,-123V268c0,0,0,230,56,452c0,0,47,190,134,334c0,0,87,144,204,242c0,0,85,73,194,119l18,-16c0,0,-211,-145,-335,-339c0,0,-98,-156,-149,-374c0,0,-50,-218,-50,-403V-123Z" 
id="f4_4o"
transform="scale(0.001,-0.001)" />

<path d="M617,-123V283c0,0,0,236,-63,459c0,0,-63,223,-188,392c0,0,-108,146,-282,265l17,16c0,0,180,-76,320,-248c0,0,139,-172,204,-417c0,0,64,-245,64,-482V-123Z" 
id="f4_54"
transform="scale(0.001,-0.001)" />

<path d="M0,214v74H784V214ZM0,494v72H784V494Z" 
id="f4_x"
transform="scale(0.001,-0.001)" />

<path d="M62,-123V1415h72V-123Z" 
id="f4_4p"
transform="scale(0.001,-0.001)" />

<path d="M617,-123V1415h72V-123Z" 
id="f4_55"
transform="scale(0.001,-0.001)" />

<path d="M650,-123c0,0,-180,75,-319,246c0,0,-140,172,-205,418c0,0,-64,245,-64,481v393h72V1007c0,0,0,-236,63,-459c0,0,63,-223,189,-391c0,0,108,-145,282,-265l-18,-15Z" 
id="f4_4q"
transform="scale(0.001,-0.001)" />

<path d="M101,-123l-17,15c0,0,210,144,334,339c0,0,99,156,149,373c0,0,50,218,50,403v408h72V1022c0,0,0,-230,-56,-451c0,0,-48,-191,-134,-335C499,236,412,92,295,-5c0,0,-84,-73,-194,-118Z" 
id="f4_56"
transform="scale(0.001,-0.001)" />

<path d="M460,-325c0,0,-148,79,-231,172c0,0,-84,93,-123,217c0,0,-39,126,-39,304c0,0,0,178,39,303c0,0,39,125,122,217c0,0,82,93,232,172V997c0,0,-91,-52,-145,-134c0,0,-54,-81,-79,-190c0,0,-25,-109,-25,-305c0,0,0,-194,26,-309c0,0,26,-114,82,-193c0,0,56,-79,141,-128v-63Z" 
id="f2_c"
transform="scale(0.001,-0.001)" />

<path d="M49,-325v63c0,0,85,49,140,128c0,0,56,79,83,194c0,0,26,115,26,308c0,0,0,196,-25,305c0,0,-25,109,-79,190c0,0,-54,82,-145,134v63c0,0,149,-80,232,-172c0,0,83,-92,122,-217c0,0,39,-125,39,-303c0,0,0,-177,-39,-303c0,0,-39,-125,-122,-217c0,0,-83,-93,-232,-173Z" 
id="f2_d"
transform="scale(0.001,-0.001)" />

<path d="M557,-14c0,0,-199,0,-298,89c0,0,-99,90,-99,255V941L32,960v40H432V960L304,941V341c0,0,0,-273,264,-273c0,0,144,0,220,68c0,0,77,68,77,202V941L730,960v40h341V960L943,941V344c0,0,0,-180,-99,-269c0,0,-99,-89,-287,-89Z" 
id="f2_1l"
transform="scale(0.001,-0.001)" />

<path d="M278,-14c0,0,-52,0,-115,11c0,0,-63,10,-99,23V193H98L134,95c0,0,56,-50,146,-50c0,0,144,0,144,123c0,0,0,91,-114,130l-66,21c0,0,-75,25,-110,50c0,0,-34,26,-53,63c0,0,-18,36,-18,89c0,0,0,92,63,145c0,0,63,54,170,54c0,0,77,0,193,-23V544H454l-32,81c0,0,-39,35,-124,35c0,0,-61,0,-92,-30c0,0,-32,-30,-32,-80c0,0,0,-43,29,-72c0,0,28,-29,86,-48c0,0,110,-38,144,-55c0,0,33,-17,57,-42c0,0,23,-25,36,-57c0,0,13,-32,13,-79c0,0,0,-104,-66,-158c0,0,-66,-53,-195,-53Z" 
id="f2_2f"
transform="scale(0.001,-0.001)" />

<path d="M495,413c0,0,0,133,-34,190c0,0,-34,57,-105,57c0,0,-78,0,-119,-63c0,0,-42,-62,-42,-184ZM374,-14c0,0,-163,0,-239,87c0,0,-75,88,-75,283c0,0,0,183,77,273c0,0,76,91,219,91c0,0,269,0,269,-306V353H194V340c0,0,0,-103,23,-160c0,0,22,-57,70,-87c0,0,47,-29,124,-29c0,0,40,0,96,6c0,0,55,7,91,15V43C598,43,562,20,500,3c0,0,-61,-17,-126,-17Z" 
id="f2_21"
transform="scale(0.001,-0.001)" />

<path d="M64,0V34L168,59V639H47v36l121,29v49c0,0,0,155,61,239c0,0,62,84,173,84c0,0,58,0,107,-15V908H472l-33,92c0,0,-26,16,-62,16c0,0,-47,0,-66,-42c0,0,-19,-42,-19,-157V701H478V639H292V59L443,34V0Z" 
id="f2_22"
transform="scale(0.001,-0.001)" />

<path d="M377,45c0,0,99,0,147,73c0,0,47,73,47,237c0,0,0,161,-47,233c0,0,-47,72,-147,72c0,0,-97,0,-141,-69c0,0,-44,-69,-44,-236c0,0,0,-169,45,-240c0,0,44,-70,140,-70Zm0,-59c0,0,-158,0,-238,94c0,0,-81,95,-81,274c0,0,0,178,81,272c0,0,80,94,244,94c0,0,160,0,241,-92c0,0,82,-92,82,-274c0,0,0,-368,-329,-368Z" 
id="f2_2b"
transform="scale(0.001,-0.001)" />

<path d="M31,0V33l88,19V649L31,668v33H235l7,-87c0,0,44,37,121,71c0,0,76,35,121,35h11V530H463l-43,82c0,0,-37,0,-88,-10c0,0,-52,-10,-89,-26V52L363,33V0Z" 
id="f2_2e"
transform="scale(0.001,-0.001)" />

<path d="M431,0V33L535,52V499c0,0,0,62,-32,96c0,0,-32,33,-95,33c0,0,-66,0,-163,-22V52L350,33V0H32V33l89,19V649L32,668v33H237l6,-57c0,0,56,32,119,54c0,0,62,22,110,22c0,0,52,0,95,-20c0,0,44,-19,66,-62c0,0,57,32,134,57c0,0,77,25,128,25c0,0,179,0,179,-207V52l90,-19V0H846V33L950,52V499c0,0,0,129,-119,129c0,0,-19,0,-45,-3c0,0,-26,-3,-52,-7c0,0,-25,-4,-49,-8c0,0,-23,-5,-39,-8c0,0,13,-41,13,-89V52L764,33V0Z" 
id="f2_29"
transform="scale(0.001,-0.001)" />

<path d="M289,-14c0,0,-179,0,-179,205V649L20,668v33H233V200c0,0,0,-128,120,-128c0,0,92,0,173,23V649L420,668v33H649V52L738,33V0H533l-6,57C527,57,474,28,405,7c0,0,-69,-21,-116,-21Z" 
id="f2_2h"
transform="scale(0.001,-0.001)" />

<path d="M31,0V33L150,52v956L31,1026v34H274V52L394,33V0Z" 
id="f2_28"
transform="scale(0.001,-0.001)" />

<path d="M58,-234v58c0,0,131,42,131,125c0,0,0,15,-11,27c0,0,-11,12,-38,25C140,1,89,27,89,75c0,0,0,40,25,61c0,0,26,21,65,21c0,0,48,0,77,-34c0,0,30,-34,30,-86c0,0,0,-101,-60,-170c0,0,-59,-69,-168,-101Z" 
id="f2_g"
transform="scale(0.001,-0.001)" />

<path d="M191,-20c0,0,-39,0,-65,25c0,0,-25,27,-25,64c0,0,0,38,26,64c0,0,26,26,64,26c0,0,38,0,64,-26c0,0,26,-26,26,-64c0,0,0,-37,-25,-64c0,0,-26,-25,-65,-25Z" 
id="f2_i"
transform="scale(0.001,-0.001)" />

<path d="M0,-123V1415H525v-72H72V-123Z" 
id="f4_4r"
transform="scale(0.001,-0.001)" />

<path d="M478,-123V1343H26v72H550V-123Z" 
id="f4_57"
transform="scale(0.001,-0.001)" />

<path d="M0,-123V1415H72V-123Z" 
id="f4_4s"
transform="scale(0.001,-0.001)" />

<path d="M0,-123V1415H72V-123Z" 
id="f4_58"
transform="scale(0.001,-0.001)" />

<path d="M0,-123V1415H72V-51H525v-72Z" 
id="f4_4t"
transform="scale(0.001,-0.001)" />

<path d="M26,-123v72H478V1415h72V-123Z" 
id="f4_59"
transform="scale(0.001,-0.001)" />

<path d="M412,-328c0,0,-195,96,-303,284C109,-44,0,142,0,365c0,0,0,232,114,422c0,0,114,191,298,273v-31c0,0,-92,-51,-151,-139c0,0,-59,-88,-88,-223c0,0,-29,-136,-29,-282c0,0,0,-167,27,-301c0,0,26,-133,82,-221c0,0,55,-89,159,-159v-32Z" 
id="f4_c"
transform="scale(0.001,-0.001)" />

<path d="M34,-328v32c0,0,92,50,151,138c0,0,59,88,88,222c0,0,29,135,29,283c0,0,0,165,-27,300c0,0,-26,134,-82,222c0,0,-56,89,-159,160v31c0,0,194,-96,303,-284c0,0,108,-187,108,-410c0,0,0,-232,-114,-422c0,0,-114,-191,-297,-272Z" 
id="f4_d"
transform="scale(0.001,-0.001)" />

<path d="M945,-20c0,0,47,75,125,153H57v74H1147l108,91c0,0,23,19,95,72c0,0,-134,103,-203,166H57v72H1070c0,0,-78,78,-125,154h85c0,0,88,-107,217,-217c0,0,130,-110,206,-154V349c0,0,-101,-58,-219,-162c0,0,-118,-103,-204,-207Z" 
id="f4_4g"
transform="scale(0.001,-0.001)" />

<path d="M377,45c0,0,100,0,147,52c0,0,47,52,47,174c0,0,0,119,-46,173c0,0,-47,54,-148,54c0,0,-98,0,-141,-51c0,0,-44,-51,-44,-176c0,0,0,-126,44,-176c0,0,44,-50,141,-50Zm2,518c0,0,84,0,123,46c0,0,39,46,39,148c0,0,0,102,-40,151c0,0,-41,48,-122,48c0,0,-79,0,-118,-47c0,0,-38,-47,-38,-152c0,0,0,-104,37,-149c0,0,38,-45,119,-45ZM377,-14c0,0,-319,0,-319,285c0,0,0,99,48,164c0,0,48,66,129,96c0,0,-65,30,-106,87c0,0,-40,56,-40,139c0,0,0,123,75,191c0,0,76,68,219,68c0,0,139,0,216,-67c0,0,76,-68,76,-192c0,0,0,-82,-40,-139c0,0,-40,-57,-108,-87c0,0,85,-31,132,-98c0,0,47,-67,47,-162c0,0,0,-142,-80,-214c0,0,-80,-71,-249,-71Z" 
id="f2_s"
transform="scale(0.001,-0.001)" />

<path d="M410,45c0,0,90,0,130,58c0,0,40,59,40,193c0,0,0,122,-38,177c0,0,-38,54,-122,54c0,0,-102,0,-217,-37c0,0,0,-227,51,-336c0,0,52,-109,156,-109Zm3,-59c0,0,-169,0,-258,131c0,0,-89,131,-89,377c0,0,0,161,47,278c0,0,47,117,131,178c0,0,85,61,196,61c0,0,109,0,217,-26V813H608L582,915c0,0,-25,13,-67,23c0,0,-41,10,-75,10c0,0,-109,0,-170,-105c0,0,-60,-106,-66,-308c0,0,121,63,244,63c0,0,132,0,201,-74c0,0,69,-74,69,-214c0,0,0,-156,-78,-240c0,0,-79,-84,-227,-84Z" 
id="f2_q"
transform="scale(0.001,-0.001)" />

<path d="M0,0V74H784V0ZM357,164V519H0v73H357V948h72V592H784V519H429V164Z" 
id="f4_37"
transform="scale(0.001,-0.001)" />

<path d="M122,0V64L295,82V837L123,780v64l282,165H511V82L685,64V0Z" 
id="f5_l"
transform="scale(0.001,-0.001)" />

<path d="M342,-14c0,0,-138,0,-276,29L57,258h69L165,96c0,0,65,-36,136,-36c0,0,90,0,141,58c0,0,50,57,50,161c0,0,0,91,-40,139c0,0,-41,48,-132,54l-87,5v90l84,6c0,0,66,5,98,49c0,0,32,44,32,134c0,0,0,83,-38,131c0,0,-38,48,-107,48c0,0,-40,0,-66,-13c0,0,-26,-12,-49,-26L155,751H90V979c0,0,76,19,132,26c0,0,55,6,108,6c0,0,337,0,337,-246c0,0,0,-102,-54,-164c0,0,-54,-63,-153,-78c0,0,252,-30,252,-251c0,0,0,-136,-98,-211c0,0,-98,-75,-272,-75Z" 
id="f5_n"
transform="scale(0.001,-0.001)" />

<path d="M191,-20c0,0,-51,0,-88,34c0,0,-36,36,-36,88c0,0,0,52,36,88c0,0,36,36,88,36c0,0,51,0,88,-36c0,0,36,-36,36,-88c0,0,0,-51,-36,-87c0,0,-36,-35,-88,-35Z" 
id="f5_i"
transform="scale(0.001,-0.001)" />

<path d="M32,0V33L151,52V649L52,668v33H275V52L395,33V0ZM201,850c0,0,-32,0,-56,24c0,0,-24,24,-24,56c0,0,0,34,24,58c0,0,24,24,56,24c0,0,34,0,58,-24c0,0,24,-24,24,-58c0,0,0,-32,-24,-56c0,0,-24,-24,-58,-24Z" 
id="f2_25"
transform="scale(0.001,-0.001)" />

<path d="M359,-270c0,0,124,0,192,46c0,0,67,47,67,129c0,0,0,43,-26,67c0,0,-26,24,-79,24H242c0,0,-32,-27,-51,-69c0,0,-20,-41,-20,-77c0,0,0,-64,46,-92c0,0,46,-28,142,-28Zm11,561c0,0,81,0,115,47c0,0,34,47,34,141c0,0,0,100,-35,142c0,0,-35,42,-113,42c0,0,-78,0,-114,-43c0,0,-37,-42,-37,-141c0,0,0,-98,36,-143c0,0,36,-45,114,-45ZM359,-329c0,0,-143,0,-218,44c0,0,-75,43,-75,125c0,0,0,39,27,78c0,0,26,38,98,89c0,0,-43,14,-72,48c0,0,-29,35,-29,74L208,262c0,0,-118,55,-118,217c0,0,0,115,73,178c0,0,73,63,211,63c0,0,28,0,71,-6c0,0,44,-6,67,-13l165,83l26,-32L599,644c0,0,50,-56,50,-165c0,0,0,-120,-72,-182c0,0,-73,-62,-208,-62c0,0,-62,0,-114,11L208,148c0,0,2,-13,29,-24c0,0,27,-12,67,-12H512c0,0,113,0,168,-49c0,0,55,-49,55,-134c0,0,0,-79,-44,-137c0,0,-43,-58,-128,-90c0,0,-84,-31,-204,-31Z" 
id="f2_23"
transform="scale(0.001,-0.001)" />

<path d="M382,45c0,0,188,0,188,314c0,0,0,143,-47,213c0,0,-46,69,-141,69c0,0,-87,0,-146,-24V58c0,0,67,-13,146,-13ZM25,-325v35l88,18V649L34,668v33H231l1,-41c0,0,31,27,84,43c0,0,53,17,107,17c0,0,134,0,208,-94c0,0,73,-93,73,-267c0,0,0,-178,-80,-276c0,0,-80,-97,-232,-97c0,0,-84,0,-160,16c0,0,4,-53,4,-84V-272l123,-18v-35Z" 
id="f2_2c"
transform="scale(0.001,-0.001)" />

<path d="M383,64c0,0,85,0,152,28V645c0,0,-67,13,-152,13c0,0,-194,0,-194,-314c0,0,0,-141,48,-211c0,0,48,-69,146,-69ZM342,-14c0,0,-287,0,-287,358c0,0,0,184,82,280c0,0,81,96,239,96c0,0,81,0,163,-18c0,0,-4,25,-4,124v182l-118,18v34H659V52L745,33V0H548l-9,52c0,0,-84,-66,-197,-66Z" 
id="f2_20"
transform="scale(0.001,-0.001)" />

<path d="M360,-14L72,649L0,668v33H327V668L216,648L420,164L615,649L504,668v33H764V668L697,652L416,-14Z" 
id="f2_2i"
transform="scale(0.001,-0.001)" />

<path d="M442,0V33l93,19V504c0,0,0,129,-124,129c0,0,-70,0,-168,-22V52L338,33V0H31V33l88,19v956L15,1026v34H243V756c0,0,0,-77,-5,-112c0,0,54,31,122,53c0,0,68,23,115,23c0,0,91,0,137,-53c0,0,47,-53,47,-154V52L744,33V0Z" 
id="f2_24"
transform="scale(0.001,-0.001)" />

<path d="M350,-14c0,0,-142,0,-269,31L73,228h49L156,87c0,0,29,-16,82,-28c0,0,54,-12,100,-12c0,0,117,0,173,54c0,0,56,53,56,178c0,0,0,99,-52,150c0,0,-51,51,-159,56l-107,6v61l107,7c0,0,84,5,124,52c0,0,41,48,41,145c0,0,0,101,-44,147c0,0,-44,45,-139,45c0,0,-40,0,-83,-10c0,0,-43,-11,-76,-29L153,786H104V979c0,0,74,19,127,26c0,0,54,6,107,6c0,0,321,0,321,-246c0,0,0,-104,-57,-165c0,0,-57,-62,-162,-77c0,0,136,-16,200,-78c0,0,64,-62,64,-173c0,0,0,-135,-92,-211c0,0,-93,-75,-262,-75Z" 
id="f2_n"
transform="scale(0.001,-0.001)" />

<path d="M350,-14c0,0,-142,0,-253,31L89,228h49L172,87c0,0,32,-18,78,-29c0,0,46,-11,88,-11c0,0,118,0,173,56c0,0,56,55,56,187c0,0,0,93,-24,140c0,0,-24,47,-76,70c0,0,-52,22,-140,22c0,0,-68,0,-133,-18H122v496H630V886H189V567c0,0,81,18,173,18c0,0,173,0,258,-71c0,0,84,-71,84,-216c0,0,0,-151,-92,-232c0,0,-91,-80,-262,-80Z" 
id="f2_p"
transform="scale(0.001,-0.001)" />

<path d="M377,45c0,0,99,0,145,108c0,0,46,109,46,352c0,0,0,240,-45,345c0,0,-46,106,-146,106c0,0,-97,0,-139,-100c0,0,-43,-99,-43,-351c0,0,0,-254,44,-357c0,0,43,-103,138,-103Zm0,-59c0,0,-158,0,-238,132c0,0,-81,133,-81,386c0,0,0,249,81,380c0,0,80,132,244,132c0,0,159,0,241,-130c0,0,82,-130,82,-382c0,0,0,-518,-329,-518Z" 
id="f2_k"
transform="scale(0.001,-0.001)" />

<path d="M-15,-329c0,0,-61,0,-112,13l28,152h34l12,-72c0,0,18,-17,60,-17c0,0,100,0,212,202L253,9L116,649L33,668l6,33H230L338,155L513,458c0,0,48,83,48,144c0,0,0,27,-16,44c0,0,-15,16,-33,22l6,33H659c0,0,20,-17,20,-47c0,0,0,-59,-62,-164L322,-7c0,0,-86,-145,-135,-205c0,0,-50,-61,-98,-89c0,0,-49,-28,-104,-28Z" 
id="f3_2l"
transform="scale(0.001,-0.001)" />

<path d="M410,-14c0,0,-86,0,-175,14C235,0,145,14,81,38V307h66L181,146c0,0,31,-37,94,-62c0,0,64,-24,132,-24c0,0,214,0,214,177c0,0,0,55,-41,93c0,0,-41,38,-128,68c0,0,-128,42,-185,68c0,0,-56,27,-95,63c0,0,-38,36,-62,87c0,0,-23,51,-23,125c0,0,0,132,90,201c0,0,90,69,263,69c0,0,125,0,278,-32V741H651L618,878c0,0,-76,56,-178,56c0,0,-92,0,-141,-34c0,0,-49,-34,-49,-104c0,0,0,-50,41,-86c0,0,41,-35,128,-63c0,0,171,-56,235,-97c0,0,64,-41,97,-103c0,0,34,-61,34,-143c0,0,0,-318,-375,-318Z" 
id="f5_1j"
transform="scale(0.001,-0.001)" />

<path d="M379,60c0,0,59,0,84,64c0,0,24,65,24,231c0,0,0,164,-24,227c0,0,-24,63,-84,63c0,0,-57,0,-80,-60c0,0,-22,-61,-22,-230c0,0,0,-173,23,-234c0,0,22,-61,79,-61Zm-2,-74c0,0,-161,0,-240,91c0,0,-79,91,-79,277c0,0,0,186,80,276c0,0,81,90,245,90c0,0,167,0,245,-93c0,0,78,-93,78,-273c0,0,0,-188,-81,-278c0,0,-81,-90,-248,-90Z" 
id="f5_2b"
transform="scale(0.001,-0.001)" />

<path d="M30,0V49l76,18V992l-72,18v50H322V67L398,49V0Z" 
id="f5_28"
transform="scale(0.001,-0.001)" />

<path d="M287,-18c0,0,-194,0,-194,206V634L23,652v49H309V217c0,0,0,-63,26,-98c0,0,27,-35,76,-35c0,0,57,0,113,25V634l-64,18v49H740V67L809,49V0H536L526,61L475,35c0,0,-104,-53,-188,-53Z" 
id="f5_2h"
transform="scale(0.001,-0.001)" />

<path d="M327,-14c0,0,-101,0,-156,45c0,0,-55,45,-55,131V624H25v48l108,29l87,159H332V701H480V624H332V176c0,0,0,-49,20,-73c0,0,20,-25,53,-25c0,0,40,0,97,12V26c0,0,-22,-15,-76,-27c0,0,-55,-13,-99,-13Z" 
id="f5_2g"
transform="scale(0.001,-0.001)" />

<path d="M34,0V49l76,18V634L38,652v49H325V67L402,49V0ZM217,831c0,0,-48,0,-81,33c0,0,-34,33,-34,82c0,0,0,48,34,81c0,0,34,33,81,33c0,0,48,0,81,-33c0,0,33,-33,33,-81c0,0,0,-47,-33,-81c0,0,-32,-34,-81,-34Z" 
id="f5_25"
transform="scale(0.001,-0.001)" />

<path d="M41,0V49l69,18V634L41,652v49H313l11,-61l50,26c0,0,105,54,188,54c0,0,194,0,194,-207V67L827,49V0H478V49l63,18V484c0,0,0,63,-27,98c0,0,-26,35,-75,35c0,0,-57,0,-114,-25V67L389,49V0Z" 
id="f5_2a"
transform="scale(0.001,-0.001)" />

<path d="M248,-20c0,0,-52,0,-87,34c0,0,-36,36,-36,88c0,0,0,52,36,88c0,0,35,36,87,36c0,0,52,0,88,-36c0,0,36,-36,36,-88c0,0,0,-51,-36,-87c0,0,-35,-35,-88,-35Zm0,488c0,0,-52,0,-87,36c0,0,-36,36,-36,88c0,0,0,52,35,88c0,0,35,36,88,36c0,0,53,0,89,-36c0,0,35,-37,35,-88c0,0,0,-51,-36,-87c0,0,-35,-37,-88,-37Z" 
id="f5_u"
transform="scale(0.001,-0.001)" />

<path d="M235,0V40L394,60V936H356c0,0,-189,0,-258,-15L78,766H28v234H908V766H857L837,921c0,0,-22,5,-98,9c0,0,-75,4,-165,4H538V60L697,40V0Z" 
id="f2_1k"
transform="scale(0.001,-0.001)" />

<path d="M44,0V40L172,60V941L44,960v40H471V960L316,941V65H513c0,0,159,0,234,14l46,208h48L828,0Z" 
id="f2_1c"
transform="scale(0.001,-0.001)" />

<path d="M44,0V40L172,60V941L44,960v40H445V960L316,941V549H787V941L659,960v40h400V960L930,941V60L1059,40V0H659V40L787,60V481H316V60L445,40V0Z" 
id="f2_18"
transform="scale(0.001,-0.001)" />

<path d="M410,-14c0,0,-80,0,-162,14c0,0,-81,14,-144,38V270h48L178,134c0,0,28,-35,95,-62c0,0,68,-27,134,-27c0,0,104,0,163,53c0,0,58,54,58,148c0,0,0,54,-23,89c0,0,-22,35,-59,59c0,0,-37,24,-84,41c0,0,-47,17,-97,34c0,0,-49,17,-96,38c0,0,-47,21,-84,53c0,0,-37,32,-60,79c0,0,-23,48,-23,117c0,0,0,119,90,187c0,0,89,68,248,68c0,0,121,0,263,-32V771H654L628,893c0,0,-76,55,-188,55c0,0,-100,0,-156,-40c0,0,-56,-41,-56,-112c0,0,0,-49,22,-81c0,0,23,-32,60,-55c0,0,37,-22,84,-39c0,0,48,-16,97,-34c0,0,50,-17,97,-39c0,0,48,-22,85,-56c0,0,36,-34,59,-83c0,0,23,-49,23,-120c0,0,0,-145,-89,-224c0,0,-89,-79,-256,-79Z" 
id="f2_1j"
transform="scale(0.001,-0.001)" />

<path d="M681,416L504,902L333,416ZM669,0V40L803,60L704,348H310L210,60L344,40V0H15V40L128,60l341,949H611L965,60L1092,40V0Z" 
id="f2_11"
transform="scale(0.001,-0.001)" />

<path d="M148,-329c0,0,-58,0,-114,13v151H69l24,-71c0,0,23,-17,64,-17c0,0,39,0,72,22c0,0,33,23,60,67c0,0,27,44,68,157L90,649L19,668v33H344V668L233,648L423,158L606,649L497,668v33H758V668L685,652L411,-43c0,0,-48,-124,-84,-177c0,0,-36,-54,-79,-82c0,0,-44,-27,-100,-27Z" 
id="f2_2l"
transform="scale(0.001,-0.001)" />

<path d="M577,-14c0,0,-243,0,-379,132C198,118,63,250,63,488c0,0,0,258,130,391c0,0,131,132,387,132c0,0,156,0,335,-38l5,-218H871L848,884c0,0,-52,32,-121,50c0,0,-69,17,-141,17c0,0,-191,0,-279,-112c0,0,-88,-113,-88,-349c0,0,0,-217,92,-332c0,0,92,-115,268,-115c0,0,85,0,160,20c0,0,76,21,120,55l27,149h49L930,32c0,0,-164,-46,-353,-46Z" 
id="f2_13"
transform="scale(0.001,-0.001)" />

<path d="M1102,116c0,0,70,150,148,231H59v75H1250c0,0,-57,73,-80,108c0,0,-22,35,-66,123h57c0,0,99,-108,171,-164c0,0,72,-57,137,-84V371c0,0,-74,-36,-144,-91c0,0,-69,-56,-165,-164Z" 
id="f6_8r"
transform="scale(0.001,-0.001)" />

<path d="M-12,338v55H777V338Z" 
id="f6_4y"
transform="scale(0.001,-0.001)" />


</defs>
</svg>