<?xml version="1.0" encoding="UTF-8" standalone="no"?>
<!DOCTYPE svg PUBLIC "-//W3C//DTD SVG 1.1//EN"
"http://www.w3.org/Graphics/SVG/1.1/DTD/svg11.dtd">
<svg viewBox="0 0 909 1286" version="1.1" xmlns="http://www.w3.org/2000/svg" xmlns:xlink="http://www.w3.org/1999/xlink">
<defs>
<clipPath id="c0_67"><path d="M385.6,152V126.2H616.9V152Z" /></clipPath>
<clipPath id="c1_67"><path d="M55.2,226.8V178H305.6v48.8Z" /></clipPath>
<clipPath id="c2_67"><path d="M55.2,277.4V228.6H297.7v48.8Z" /></clipPath>
<clipPath id="c3_67"><path d="M55.2,331.3V279.2H298.7v52.1Z" /></clipPath>
<clipPath id="c4_67"><path d="M55.2,386.6V333.5h82.1v53.1Z" /></clipPath>
<clipPath id="c5_67"><path d="M242.2,438.7V412.9h45.5v25.8Z" /></clipPath>
<clipPath id="c6_67"><path d="M55.2,506.2V441H289.1v65.2Z" /></clipPath>
<clipPath id="c7_67"><path d="M55.2,529.3V512.2H73v17.1Z" /></clipPath>
<clipPath id="c8_67"><path d="M120.4,558.3V532.4h70v25.9Z" /></clipPath>
<clipPath id="c9_67"><path d="M55.2,660.6V611.8H236v48.8Z" /></clipPath>
<clipPath id="c10_67"><path d="M55.2,684V667H73v17Z" /></clipPath>
<clipPath id="c11_67"><path d="M55.2,710.1V690.5H79.1v19.6Z" /></clipPath>
<clipPath id="c12_67"><path d="M55.2,735V715.4H79.1V735Z" /></clipPath>
<clipPath id="c13_67"><path d="M55.2,785.2V736.5h82.1v48.7Z" /></clipPath>
<clipPath id="c14_67"><path d="M55.2,836.2V787.4H178.6v48.8Z" /></clipPath>
<clipPath id="c15_67"><path d="M55.2,1003.4V911H239.6v92.4Z" /></clipPath>
<clipPath id="c16_67"><path d="M55.2,1158.5V1054H213.7v104.5Z" /></clipPath>
<style type="text/css"><![CDATA[
.g0_67{
fill: #D9D9D9;
}
.g1_67{
fill: none;
stroke: #000000;
stroke-width: 0.7638889;
stroke-linecap: butt;
stroke-linejoin: miter;
}
.g2_67{
fill: none;
stroke: #000000;
stroke-width: 0.90928715;
stroke-linecap: butt;
stroke-linejoin: round;
}
.g3_67{
fill: none;
stroke: #000000;
stroke-width: 0.913928;
stroke-linecap: butt;
stroke-linejoin: round;
}
.g4_67{
fill: none;
stroke: #000000;
stroke-width: 0.9120712;
stroke-linecap: butt;
stroke-linejoin: round;
}
.g5_67{
fill: none;
stroke: #000000;
stroke-width: 0.89512545;
stroke-linecap: butt;
stroke-linejoin: round;
}
.g6_67{
fill: none;
stroke: #000000;
stroke-width: 0.91051215;
stroke-linecap: butt;
stroke-linejoin: round;
}
.g7_67{
fill: none;
stroke: #000000;
stroke-width: 0.90153813;
stroke-linecap: butt;
stroke-linejoin: round;
}
.g8_67{
fill: none;
stroke: #000000;
stroke-width: 0.38051578;
stroke-linecap: butt;
stroke-linejoin: round;
}
.g9_67{
fill: none;
stroke: #000000;
stroke-width: 0.7610468;
stroke-linecap: butt;
stroke-linejoin: round;
}
.g10_67{
fill: none;
stroke: #000000;
stroke-width: 0.41470218;
stroke-linecap: butt;
stroke-linejoin: round;
}
.g11_67{
fill: none;
stroke: #000000;
stroke-width: 0.9048006;
stroke-linecap: butt;
stroke-linejoin: round;
}
.g12_67{
}
]]></style>
</defs>
<image preserveAspectRatio="none" x="747" y="1196" width="96" height="59" xlink:href="img/1.png" />
<image preserveAspectRatio="none" x="336" y="41" width="259" height="51" xlink:href="img/2.png" />
<image preserveAspectRatio="none" x="342" y="50" width="247" height="27" xlink:href="img/3.png" />
<image preserveAspectRatio="none" x="341" y="45" width="239" height="42" xlink:href="img/4.png" />
<g fill="#FFFFFF" >
<use xlink:href="#f0_j" transform="matrix(11.5,0,0,11.5,355.1,70.1)" />
<use xlink:href="#f0_i" transform="matrix(11.5,0,0,11.5,364.3,70.1)" />
<use xlink:href="#f0_2n" transform="matrix(11.5,0,0,11.5,374.1,70.1)" />
<use xlink:href="#f0_t" transform="matrix(11.5,0,0,11.5,382.6,70.1)" />
<use xlink:href="#f0_oj" transform="matrix(11.5,0,0,11.5,391,70.1)" />
<use xlink:href="#f0_3e" transform="matrix(11.5,0,0,11.5,396.5,70.1)" />
<use xlink:href="#f0_1c" transform="matrix(11.5,0,0,11.5,406.1,70.1)" />
<use xlink:href="#f0_1c" transform="matrix(11.5,0,0,11.5,410.8,70.1)" />
<use xlink:href="#f0_oj" transform="matrix(11.5,0,0,11.5,415.6,70.1)" />
<use xlink:href="#f0_rz" transform="matrix(11.5,0,0,11.5,421.1,70.1)" />
<use xlink:href="#f0_rx" transform="matrix(11.5,0,0,11.5,429.9,70.1)" />
<use xlink:href="#f0_ry" transform="matrix(11.5,0,0,11.5,438.7,70.1)" />
<use xlink:href="#f0_s3" transform="matrix(11.5,0,0,11.5,447.5,70.1)" />
<use xlink:href="#f0_t" transform="matrix(11.5,0,0,11.5,460.4,70.1)" />
<use xlink:href="#f0_3e" transform="matrix(11.5,0,0,11.5,468.8,70.1)" />
<use xlink:href="#f0_5" transform="matrix(11.5,0,0,11.5,478.3,70.1)" />
<use xlink:href="#f0_1x" transform="matrix(11.5,0,0,11.5,489,70.1)" />
<use xlink:href="#f0_1c" transform="matrix(11.5,0,0,11.5,504.4,70.1)" />
<use xlink:href="#f0_1y" transform="matrix(11.5,0,0,11.5,509.1,70.1)" />
<use xlink:href="#f0_5" transform="matrix(11.5,0,0,11.5,520.8,70.1)" />
<use xlink:href="#f0_2t" transform="matrix(11.5,0,0,11.5,531.5,70.1)" />
<use xlink:href="#f0_1c" transform="matrix(11.5,0,0,11.5,540.2,70.1)" />
<use xlink:href="#f0_24" transform="matrix(11.5,0,0,11.5,545,70.1)" />
<use xlink:href="#f0_1y" transform="matrix(11.5,0,0,11.5,556.7,70.1)" />
</g>
<image preserveAspectRatio="none" x="554" y="45" width="36" height="42" xlink:href="img/5.png" />
<g fill="#FFFFFF" >
<use xlink:href="#f1_o" transform="matrix(11,0,0,11,770.3,1227.6)" />
<use xlink:href="#f1_j" transform="matrix(11,0,0,11,783.5,1227.6)" />
<use xlink:href="#f1_l" transform="matrix(11,0,0,11,794.1,1227.6)" />
<use xlink:href="#f1_r" transform="matrix(11,0,0,11,802.9,1227.6)" />
</g>
<path fill-rule="evenodd" d="M52.8,1193.5H856.9v-.8H52.8v.8Z" class="g0_67" />
<path d="M37.9,99.4L873,98.5" class="g1_67" />
<g fill="#000000" >
<use xlink:href="#f2_1m" transform="matrix(12,0,0,12,55,144.1)" />
<use xlink:href="#f2_21" transform="matrix(12,0,0,12,68.3,144.1)" />
<use xlink:href="#f2_2e" transform="matrix(12,0,0,12,76.3,144.1)" />
<use xlink:href="#f2_25" transform="matrix(12,0,0,12,82.9,144.1)" />
<use xlink:href="#f2_22" transform="matrix(12,0,0,12,87.7,144.1)" />
<use xlink:href="#f2_2l" transform="matrix(12,0,0,12,93.5,144.1)" />
<use xlink:href="#f2_1d" transform="matrix(12,0,0,12,107.1,144.1)" />
<use xlink:href="#f2_21" transform="matrix(12,0,0,12,123.5,144.1)" />
<use xlink:href="#f2_1x" transform="matrix(12,0,0,12,131.6,144.1)" />
<use xlink:href="#f2_2a" transform="matrix(12,0,0,12,140,144.1)" />
<use xlink:href="#f2_1m" transform="matrix(12,0,0,12,153.6,144.1)" />
<use xlink:href="#f2_1x" transform="matrix(12,0,0,12,166.8,144.1)" />
<use xlink:href="#f2_28" transform="matrix(12,0,0,12,175.2,144.1)" />
<use xlink:href="#f2_2h" transform="matrix(12,0,0,12,179.6,144.1)" />
<use xlink:href="#f2_21" transform="matrix(12,0,0,12,189.1,144.1)" />
<use xlink:href="#f2_2g" transform="matrix(12,0,0,12,201.9,144.1)" />
<use xlink:href="#f2_24" transform="matrix(12,0,0,12,207.4,144.1)" />
<use xlink:href="#f2_21" transform="matrix(12,0,0,12,216.2,144.1)" />
<use xlink:href="#f2_2b" transform="matrix(12,0,0,12,224.3,144.1)" />
<use xlink:href="#f2_2e" transform="matrix(12,0,0,12,233.8,144.1)" />
<use xlink:href="#f2_21" transform="matrix(12,0,0,12,240,144.1)" />
<use xlink:href="#f2_29" transform="matrix(12,0,0,12,248.1,144.1)" />
<use xlink:href="#f2_22" transform="matrix(12,0,0,12,266.8,144.1)" />
<use xlink:href="#f2_2b" transform="matrix(12,0,0,12,272.3,144.1)" />
<use xlink:href="#f2_2e" transform="matrix(12,0,0,12,281.8,144.1)" />
<use xlink:href="#f2_2g" transform="matrix(12,0,0,12,292.4,144.1)" />
<use xlink:href="#f2_24" transform="matrix(12,0,0,12,297.9,144.1)" />
<use xlink:href="#f2_21" transform="matrix(12,0,0,12,306.7,144.1)" />
<use xlink:href="#f2_22" transform="matrix(12,0,0,12,319.5,144.1)" />
<use xlink:href="#f2_2h" transform="matrix(12,0,0,12,325,144.1)" />
<use xlink:href="#f2_2a" transform="matrix(12,0,0,12,334.5,144.1)" />
<use xlink:href="#f2_1z" transform="matrix(12,0,0,12,343.7,144.1)" />
<use xlink:href="#f2_2g" transform="matrix(12,0,0,12,351.7,144.1)" />
<use xlink:href="#f2_25" transform="matrix(12,0,0,12,357.2,144.1)" />
<use xlink:href="#f2_2b" transform="matrix(12,0,0,12,361.6,144.1)" />
<use xlink:href="#f2_2a" transform="matrix(12,0,0,12,371.1,144.1)" />
</g>
<g clip-path="url(#c0_67)">
<g fill="#000000" >
<use xlink:href="#f2_c" transform="matrix(13.1,0,0,12.3,401.2,144.4)" />
<use xlink:href="#f2_d" transform="matrix(13.1,0,0,12.3,417.2,144.4)" />
<use xlink:href="#f2_m" transform="matrix(13.1,0,0,12.3,442.1,144.4)" />
<use xlink:href="#f2_2f" transform="matrix(13.1,0,0,12.3,452.5,144.4)" />
<use xlink:href="#f2_25" transform="matrix(13.1,0,0,12.3,459.7,144.4)" />
<use xlink:href="#f2_2a" transform="matrix(13.1,0,0,12.3,464.8,144.4)" />
<use xlink:href="#f2_2f" transform="matrix(13.1,0,0,12.3,502.9,144.4)" />
<use xlink:href="#f2_25" transform="matrix(13.1,0,0,12.3,510.1,144.4)" />
<use xlink:href="#f2_2a" transform="matrix(13.1,0,0,12.3,515.2,144.4)" />
<use xlink:href="#f2_m" transform="matrix(13.1,0,0,12.3,527.1,144.4)" />
<use xlink:href="#f2_2b" transform="matrix(13.1,0,0,12.3,549.8,144.4)" />
<use xlink:href="#f2_2a" transform="matrix(13.1,0,0,12.3,558.9,144.4)" />
<use xlink:href="#f2_1r" transform="matrix(13.1,0,0,12.3,571.7,144.4)" />
<use xlink:href="#f2_k" transform="matrix(13.1,0,0,12.3,578,144.4)" />
<use xlink:href="#f2_g" transform="matrix(13.1,0,0,12.3,586.8,144.4)" />
<use xlink:href="#f2_1t" transform="matrix(13.1,0,0,12.3,603.3,144.4)" />
<use xlink:href="#f2_i" transform="matrix(13.1,0,0,12.3,609.3,144.4)" />
<use xlink:href="#f3_22" transform="matrix(13.1,0,0,12.3,391.8,144.4)" />
<use xlink:href="#f3_2k" transform="matrix(13.1,0,0,12.3,408.6,144.4)" />
<use xlink:href="#f3_2k" transform="matrix(13.1,0,0,12.3,477.6,144.4)" />
<use xlink:href="#f3_2k" transform="matrix(13.1,0,0,12.3,537.4,144.4)" />
<use xlink:href="#f4_x" transform="matrix(13.1,0,0,12.3,427.6,144.4)" />
<use xlink:href="#f4_f" transform="matrix(13.1,0,0,12.3,489.6,144.4)" />
<use xlink:href="#f4_2c" transform="matrix(13.1,0,0,12.3,593.4,144.4)" />
</g>
</g>
<g fill="#000000" >
<use xlink:href="#f5_1j" transform="matrix(12,0,0,12,55,172)" />
<use xlink:href="#f5_2b" transform="matrix(12,0,0,12,65.3,172)" />
<use xlink:href="#f5_28" transform="matrix(12,0,0,12,74.5,172)" />
<use xlink:href="#f5_2h" transform="matrix(12,0,0,12,79.2,172)" />
<use xlink:href="#f5_2g" transform="matrix(12,0,0,12,89.5,172)" />
<use xlink:href="#f5_25" transform="matrix(12,0,0,12,95.7,172)" />
<use xlink:href="#f5_2b" transform="matrix(12,0,0,12,100.8,172)" />
<use xlink:href="#f5_2a" transform="matrix(12,0,0,12,109.9,172)" />
<use xlink:href="#f5_u" transform="matrix(12,0,0,12,120.2,172)" />
</g>
<path d="M58.2,203.9H77.7" class="g2_67" />
<g clip-path="url(#c1_67)">
<g fill="#000000" >
<use xlink:href="#f2_1z" transform="matrix(7.3,0,0,7.1,105.5,200.2)" />
<use xlink:href="#f2_2b" transform="matrix(7.3,0,0,7.1,110.1,200.2)" />
<use xlink:href="#f2_2f" transform="matrix(7.3,0,0,7.1,115.4,200.2)" />
<use xlink:href="#f2_m" transform="matrix(7.3,0,0,7.1,121.2,200.2)" />
<use xlink:href="#f2_c" transform="matrix(12.7,0,0,12.4,132.4,208.6)" />
<use xlink:href="#f2_m" transform="matrix(12.7,0,0,12.4,149,208.6)" />
<use xlink:href="#f2_2f" transform="matrix(12.7,0,0,12.4,159.4,208.6)" />
<use xlink:href="#f2_25" transform="matrix(12.7,0,0,12.4,166.5,208.6)" />
<use xlink:href="#f2_2a" transform="matrix(12.7,0,0,12.4,171.7,208.6)" />
<use xlink:href="#f2_m" transform="matrix(12.7,0,0,12.4,183.6,208.6)" />
<use xlink:href="#f2_d" transform="matrix(12.7,0,0,12.4,198.7,208.6)" />
<use xlink:href="#f2_2b" transform="matrix(12.7,0,0,12.4,208.8,208.6)" />
<use xlink:href="#f2_2e" transform="matrix(12.7,0,0,12.4,218,208.6)" />
<use xlink:href="#f2_m" transform="matrix(12.7,0,0,12.4,242.7,208.6)" />
<use xlink:href="#f2_2f" transform="matrix(12.7,0,0,12.4,262.9,208.6)" />
<use xlink:href="#f2_25" transform="matrix(12.7,0,0,12.4,270,208.6)" />
<use xlink:href="#f2_2a" transform="matrix(12.7,0,0,12.4,275.1,208.6)" />
<use xlink:href="#f2_m" transform="matrix(12.7,0,0,12.4,287,208.6)" />
<use xlink:href="#f3_2g" transform="matrix(7.3,0,0,7.1,126.9,200.2)" />
<use xlink:href="#f3_20" transform="matrix(12.7,0,0,12.4,59.4,196.6)" />
<use xlink:href="#f3_2k" transform="matrix(12.7,0,0,12.4,68.5,196.6)" />
<use xlink:href="#f3_21" transform="matrix(12.7,0,0,12.4,96.9,208.6)" />
<use xlink:href="#f3_2g" transform="matrix(12.7,0,0,12.4,192.5,208.6)" />
<use xlink:href="#f3_2k" transform="matrix(12.7,0,0,12.4,253.1,208.6)" />
<use xlink:href="#f3_2g" transform="matrix(12.7,0,0,12.4,296,208.6)" />
<use xlink:href="#f3_20" transform="matrix(12.7,0,0,12.4,60.5,223.3)" />
<use xlink:href="#f3_2g" transform="matrix(12.7,0,0,12.4,69.7,223.3)" />
<use xlink:href="#f4_x" transform="matrix(12.7,0,0,12.4,82.7,208.6)" />
<use xlink:href="#f4_h" transform="matrix(12.7,0,0,12.4,139,208.6)" />
<use xlink:href="#f4_h" transform="matrix(12.7,0,0,12.4,229.1,208.6)" />
</g>
</g>
<path d="M58.2,254.5H77.7" class="g3_67" />
<g clip-path="url(#c2_67)">
<g fill="#000000" >
<use xlink:href="#f2_1z" transform="matrix(7.4,0,0,7.1,105.6,250.9)" />
<use xlink:href="#f2_2b" transform="matrix(7.4,0,0,7.1,110.3,250.9)" />
<use xlink:href="#f2_2f" transform="matrix(7.4,0,0,7.1,115.6,250.9)" />
<use xlink:href="#f2_m" transform="matrix(7.4,0,0,7.1,121.5,250.9)" />
<use xlink:href="#f2_m" transform="matrix(12.8,0,0,12.4,133,259.2)" />
<use xlink:href="#f2_1z" transform="matrix(12.8,0,0,12.4,143.8,259.2)" />
<use xlink:href="#f2_2b" transform="matrix(12.8,0,0,12.4,151.9,259.2)" />
<use xlink:href="#f2_2f" transform="matrix(12.8,0,0,12.4,161,259.2)" />
<use xlink:href="#f2_m" transform="matrix(12.8,0,0,12.4,170.4,259.2)" />
<use xlink:href="#f2_d" transform="matrix(12.8,0,0,12.4,185.5,259.2)" />
<use xlink:href="#f2_2b" transform="matrix(12.8,0,0,12.4,195.8,259.2)" />
<use xlink:href="#f2_2e" transform="matrix(12.8,0,0,12.4,204.9,259.2)" />
<use xlink:href="#f2_m" transform="matrix(12.8,0,0,12.4,229.7,259.2)" />
<use xlink:href="#f2_1z" transform="matrix(12.8,0,0,12.4,251.4,259.2)" />
<use xlink:href="#f2_2b" transform="matrix(12.8,0,0,12.4,259.5,259.2)" />
<use xlink:href="#f2_2f" transform="matrix(12.8,0,0,12.4,268.6,259.2)" />
<use xlink:href="#f2_m" transform="matrix(12.8,0,0,12.4,278,259.2)" />
<use xlink:href="#f3_2g" transform="matrix(7.4,0,0,7.1,127.2,250.9)" />
<use xlink:href="#f3_20" transform="matrix(12.8,0,0,12.4,59.4,247.3)" />
<use xlink:href="#f3_2k" transform="matrix(12.8,0,0,12.4,68.6,247.3)" />
<use xlink:href="#f3_21" transform="matrix(12.8,0,0,12.4,97,259.2)" />
<use xlink:href="#f3_2g" transform="matrix(12.8,0,0,12.4,179.2,259.2)" />
<use xlink:href="#f3_2l" transform="matrix(12.8,0,0,12.4,240.9,259.2)" />
<use xlink:href="#f3_2g" transform="matrix(12.8,0,0,12.4,286.9,259.2)" />
<use xlink:href="#f3_20" transform="matrix(12.8,0,0,12.4,60.6,273.9)" />
<use xlink:href="#f3_2g" transform="matrix(12.8,0,0,12.4,69.7,273.9)" />
<use xlink:href="#f4_x" transform="matrix(12.8,0,0,12.4,82.8,259.2)" />
<use xlink:href="#f4_h" transform="matrix(12.8,0,0,12.4,216,259.2)" />
</g>
</g>
<path d="M58.2,308.3H77.7m19.8,0h98.8m39.1,0h12.2m3.1,0h43.1" class="g4_67" />
<g clip-path="url(#c3_67)">
<g fill="#000000" >
<use xlink:href="#f2_2f" transform="matrix(7.3,0,0,7.2,117.4,292.7)" />
<use xlink:href="#f2_25" transform="matrix(7.3,0,0,7.2,121.5,292.7)" />
<use xlink:href="#f2_2a" transform="matrix(7.3,0,0,7.2,124.4,292.7)" />
<use xlink:href="#f2_m" transform="matrix(7.3,0,0,7.2,131.9,292.7)" />
<use xlink:href="#f2_1z" transform="matrix(7.3,0,0,7.2,112.8,319.4)" />
<use xlink:href="#f2_2b" transform="matrix(7.3,0,0,7.2,117.4,319.4)" />
<use xlink:href="#f2_2f" transform="matrix(7.3,0,0,7.2,122.7,319.4)" />
<use xlink:href="#f2_m" transform="matrix(7.3,0,0,7.2,128.6,319.4)" />
<use xlink:href="#f2_m" transform="matrix(12.7,0,0,12.4,143.3,301)" />
<use xlink:href="#f2_1z" transform="matrix(12.7,0,0,12.4,154.1,301)" />
<use xlink:href="#f2_2b" transform="matrix(12.7,0,0,12.4,162.1,301)" />
<use xlink:href="#f2_2f" transform="matrix(12.7,0,0,12.4,171.3,301)" />
<use xlink:href="#f2_m" transform="matrix(12.7,0,0,12.4,180.6,301)" />
<use xlink:href="#f2_1z" transform="matrix(12.7,0,0,12.4,251.5,301)" />
<use xlink:href="#f2_2b" transform="matrix(12.7,0,0,12.4,259.6,301)" />
<use xlink:href="#f2_2f" transform="matrix(12.7,0,0,12.4,268.7,301)" />
<use xlink:href="#f2_m" transform="matrix(12.7,0,0,12.4,278,301)" />
<use xlink:href="#f2_2b" transform="matrix(12.7,0,0,12.4,201.1,313)" />
<use xlink:href="#f2_2e" transform="matrix(12.7,0,0,12.4,210.3,313)" />
<use xlink:href="#f2_m" transform="matrix(12.7,0,0,12.4,140.1,327.8)" />
<use xlink:href="#f2_2f" transform="matrix(12.7,0,0,12.4,150.5,327.8)" />
<use xlink:href="#f2_25" transform="matrix(12.7,0,0,12.4,157.7,327.8)" />
<use xlink:href="#f2_2a" transform="matrix(12.7,0,0,12.4,162.8,327.8)" />
<use xlink:href="#f2_m" transform="matrix(12.7,0,0,12.4,174.7,327.8)" />
<use xlink:href="#f2_2f" transform="matrix(12.7,0,0,12.4,252.5,327.8)" />
<use xlink:href="#f2_25" transform="matrix(12.7,0,0,12.4,259.6,327.8)" />
<use xlink:href="#f2_2a" transform="matrix(12.7,0,0,12.4,264.7,327.8)" />
<use xlink:href="#f2_m" transform="matrix(12.7,0,0,12.4,276.6,327.8)" />
<use xlink:href="#f3_2g" transform="matrix(7.3,0,0,7.2,137.6,292.7)" />
<use xlink:href="#f3_2g" transform="matrix(7.3,0,0,7.2,134.3,319.4)" />
<use xlink:href="#f3_20" transform="matrix(12.7,0,0,12.4,59.4,301)" />
<use xlink:href="#f3_2k" transform="matrix(12.7,0,0,12.4,68.5,301)" />
<use xlink:href="#f3_21" transform="matrix(12.7,0,0,12.4,108.9,301)" />
<use xlink:href="#f3_2g" transform="matrix(12.7,0,0,12.4,189.5,301)" />
<use xlink:href="#f3_2l" transform="matrix(12.7,0,0,12.4,238.2,301)" />
<use xlink:href="#f3_2g" transform="matrix(12.7,0,0,12.4,286.9,301)" />
<use xlink:href="#f3_20" transform="matrix(12.7,0,0,12.4,60.5,327.8)" />
<use xlink:href="#f3_2g" transform="matrix(12.7,0,0,12.4,69.7,327.8)" />
<use xlink:href="#f3_21" transform="matrix(12.7,0,0,12.4,104.2,327.8)" />
<use xlink:href="#f3_2g" transform="matrix(12.7,0,0,12.4,183.6,327.8)" />
<use xlink:href="#f3_2k" transform="matrix(12.7,0,0,12.4,237.9,327.8)" />
<use xlink:href="#f3_2g" transform="matrix(12.7,0,0,12.4,285.6,327.8)" />
<use xlink:href="#f4_h" transform="matrix(12.7,0,0,12.4,98.7,301)" />
<use xlink:href="#f4_x" transform="matrix(12.7,0,0,12.4,82.7,313)" />
<use xlink:href="#f4_h" transform="matrix(12.7,0,0,12.4,221.3,313)" />
</g>
</g>
<path d="M72.9,359.3h60" class="g5_67" />
<g clip-path="url(#c4_67)">
<g fill="#000000" >
<use xlink:href="#f2_28" transform="matrix(12.5,0,0,12.3,97,352.1)" />
<use xlink:href="#f2_2b" transform="matrix(12.5,0,0,12.3,101.9,352.1)" />
<use xlink:href="#f2_23" transform="matrix(12.5,0,0,12.3,111.1,352.1)" />
<use xlink:href="#f2_28" transform="matrix(12.5,0,0,12.3,90.5,378.6)" />
<use xlink:href="#f2_2b" transform="matrix(12.5,0,0,12.3,95.4,378.6)" />
<use xlink:href="#f2_23" transform="matrix(12.5,0,0,12.3,104.6,378.6)" />
<use xlink:href="#f3_2l" transform="matrix(12.5,0,0,12.3,86.4,352.1)" />
<use xlink:href="#f3_2k" transform="matrix(12.5,0,0,12.3,123.7,352.1)" />
<use xlink:href="#f3_2k" transform="matrix(12.5,0,0,12.3,80.2,378.6)" />
<use xlink:href="#f3_2l" transform="matrix(12.5,0,0,12.3,118.1,378.6)" />
<use xlink:href="#f4_h" transform="matrix(12.5,0,0,12.3,74,352.1)" />
<use xlink:href="#f4_x" transform="matrix(12.5,0,0,12.3,58,363.9)" />
</g>
</g>
<g fill="#000000" >
<use xlink:href="#f5_1f" transform="matrix(12,0,0,12,440.9,406.7)" />
<use xlink:href="#f5_1i" transform="matrix(12,0,0,12,455.2,406.7)" />
<use xlink:href="#f2_22" transform="matrix(12,0,0,12,55,430.9)" />
<use xlink:href="#f2_c" transform="matrix(12,0,0,12,60.5,430.9)" />
<use xlink:href="#f2_2k" transform="matrix(12,0,0,12,67.1,430.9)" />
<use xlink:href="#f2_d" transform="matrix(12,0,0,12,75.9,430.9)" />
<use xlink:href="#f2_x" transform="matrix(12,0,0,12,86.9,430.9)" />
<use xlink:href="#f2_m" transform="matrix(12,0,0,12,101.9,430.9)" />
<use xlink:href="#f2_2f" transform="matrix(12,0,0,12,115.8,430.9)" />
<use xlink:href="#f2_25" transform="matrix(12,0,0,12,123.1,430.9)" />
<use xlink:href="#f2_2a" transform="matrix(12,0,0,12,127.9,430.9)" />
<use xlink:href="#f2_2k" transform="matrix(12,0,0,12,141.4,430.9)" />
<use xlink:href="#f2_f" transform="matrix(12,0,0,12,155,430.9)" />
<use xlink:href="#f2_2f" transform="matrix(12,0,0,12,170,430.9)" />
<use xlink:href="#f2_25" transform="matrix(12,0,0,12,177.3,430.9)" />
<use xlink:href="#f2_2a" transform="matrix(12,0,0,12,182.1,430.9)" />
<use xlink:href="#f2_m" transform="matrix(12,0,0,12,195.6,430.9)" />
<use xlink:href="#f2_2k" transform="matrix(12,0,0,12,205.2,430.9)" />
<use xlink:href="#f2_2b" transform="matrix(12,0,0,12,218.7,430.9)" />
<use xlink:href="#f2_2a" transform="matrix(12,0,0,12,228.2,430.9)" />
</g>
<g clip-path="url(#c5_67)">
<g fill="#000000" >
<use xlink:href="#f2_1r" transform="matrix(13.1,0,0,12.4,243.5,431.2)" />
<use xlink:href="#f2_k" transform="matrix(13.1,0,0,12.4,249.8,431.2)" />
<use xlink:href="#f2_g" transform="matrix(13.1,0,0,12.4,258.8,431.2)" />
<use xlink:href="#f2_1t" transform="matrix(13.1,0,0,12.4,277.7,431.2)" />
<use xlink:href="#f4_2c" transform="matrix(13.1,0,0,12.4,267.7,431.2)" />
</g>
</g>
<g clip-path="url(#c6_67)">
<g fill="#000000" >
<use xlink:href="#f4_c" transform="matrix(12.4,0,0,16.1,67.8,464.8)" />
<use xlink:href="#f4_d" transform="matrix(12.4,0,0,16.1,86.6,464.8)" />
<use xlink:href="#f4_c" transform="matrix(12.4,0,0,16.1,67.8,495.9)" />
<use xlink:href="#f4_d" transform="matrix(12.4,0,0,16.1,86.6,495.9)" />
<use xlink:href="#f2_22" transform="matrix(12.6,0,0,12.3,57.6,463.5)" />
<use xlink:href="#f2_2k" transform="matrix(12.6,0,0,12.3,75.6,463.5)" />
<use xlink:href="#f2_25" transform="matrix(12.6,0,0,12.3,99.3,463.5)" />
<use xlink:href="#f2_2f" transform="matrix(12.6,0,0,12.3,104.4,463.5)" />
<use xlink:href="#f2_1z" transform="matrix(12.6,0,0,12.3,116.1,463.5)" />
<use xlink:href="#f2_2b" transform="matrix(12.6,0,0,12.3,124.1,463.5)" />
<use xlink:href="#f2_2a" transform="matrix(12.6,0,0,12.3,133.2,463.5)" />
<use xlink:href="#f2_2g" transform="matrix(12.6,0,0,12.3,142.3,463.5)" />
<use xlink:href="#f2_25" transform="matrix(12.6,0,0,12.3,147.4,463.5)" />
<use xlink:href="#f2_2a" transform="matrix(12.6,0,0,12.3,152.5,463.5)" />
<use xlink:href="#f2_2h" transform="matrix(12.6,0,0,12.3,161.6,463.5)" />
<use xlink:href="#f2_2b" transform="matrix(12.6,0,0,12.3,170.7,463.5)" />
<use xlink:href="#f2_2h" transform="matrix(12.6,0,0,12.3,179.8,463.5)" />
<use xlink:href="#f2_2f" transform="matrix(12.6,0,0,12.3,188.9,463.5)" />
<use xlink:href="#f2_25" transform="matrix(12.6,0,0,12.3,200.5,463.5)" />
<use xlink:href="#f2_2a" transform="matrix(12.6,0,0,12.3,205.7,463.5)" />
<use xlink:href="#f2_22" transform="matrix(12.6,0,0,12.3,57.6,494.5)" />
<use xlink:href="#f2_2k" transform="matrix(12.6,0,0,12.3,75.6,494.5)" />
<use xlink:href="#f2_25" transform="matrix(12.6,0,0,12.3,99.3,494.5)" />
<use xlink:href="#f2_2f" transform="matrix(12.6,0,0,12.3,104.4,494.5)" />
<use xlink:href="#f2_20" transform="matrix(12.6,0,0,12.3,116.1,494.5)" />
<use xlink:href="#f2_25" transform="matrix(12.6,0,0,12.3,125.2,494.5)" />
<use xlink:href="#f2_22" transform="matrix(12.6,0,0,12.3,130.3,494.5)" />
<use xlink:href="#f2_22" transform="matrix(12.6,0,0,12.3,136.3,494.5)" />
<use xlink:href="#f2_21" transform="matrix(12.6,0,0,12.3,142.3,494.5)" />
<use xlink:href="#f2_2e" transform="matrix(12.6,0,0,12.3,150.3,494.5)" />
<use xlink:href="#f2_21" transform="matrix(12.6,0,0,12.3,156.3,494.5)" />
<use xlink:href="#f2_2a" transform="matrix(12.6,0,0,12.3,164.2,494.5)" />
<use xlink:href="#f2_2g" transform="matrix(12.6,0,0,12.3,173.3,494.5)" />
<use xlink:href="#f2_25" transform="matrix(12.6,0,0,12.3,178.4,494.5)" />
<use xlink:href="#f2_1x" transform="matrix(12.6,0,0,12.3,183.6,494.5)" />
<use xlink:href="#f2_1y" transform="matrix(12.6,0,0,12.3,191.5,494.5)" />
<use xlink:href="#f2_28" transform="matrix(12.6,0,0,12.3,200.6,494.5)" />
<use xlink:href="#f2_21" transform="matrix(12.6,0,0,12.3,205.5,494.5)" />
<use xlink:href="#f2_25" transform="matrix(12.6,0,0,12.3,218,494.5)" />
<use xlink:href="#f2_2a" transform="matrix(12.6,0,0,12.3,223.1,494.5)" />
<use xlink:href="#f2_c" transform="matrix(12.6,0,0,12.3,236.9,494.5)" />
<use xlink:href="#f2_k" transform="matrix(12.6,0,0,12.3,243.2,494.5)" />
<use xlink:href="#f2_g" transform="matrix(12.6,0,0,12.3,252,494.5)" />
<use xlink:href="#f2_d" transform="matrix(12.6,0,0,12.3,268.4,494.5)" />
<use xlink:href="#f2_1r" transform="matrix(12.6,0,0,12.3,218.6,463.5)" />
<use xlink:href="#f2_k" transform="matrix(12.6,0,0,12.3,224.9,463.5)" />
<use xlink:href="#f2_g" transform="matrix(12.6,0,0,12.3,233.7,463.5)" />
<use xlink:href="#f2_1t" transform="matrix(12.6,0,0,12.3,252.4,463.5)" />
<use xlink:href="#f4_5a" transform="matrix(12.6,0,0,12.3,275.6,463.5)" />
<use xlink:href="#f4_2c" transform="matrix(12.6,0,0,12.3,258.7,494.5)" />
<use xlink:href="#f4_2c" transform="matrix(12.6,0,0,12.3,242.5,463.5)" />
<use xlink:href="#f4_4x" transform="matrix(12.6,0,0,12.3,275.6,468.3)" />
<use xlink:href="#f4_5b" transform="matrix(12.6,0,0,12.3,275.6,482.2)" />
<use xlink:href="#f4_4x" transform="matrix(12.6,0,0,12.3,275.6,498.1)" />
<use xlink:href="#f4_5c" transform="matrix(12.6,0,0,12.3,275.6,500.8)" />
</g>
</g>
<g clip-path="url(#c7_67)">
<g fill="#000000" >
<use xlink:href="#f4_1s" transform="matrix(12.3,0,0,12.7,55.1,526.2)" />
</g>
</g>
<g fill="#000000" >
<use xlink:href="#f2_1d" transform="matrix(12,0,0,12,76.7,526.3)" />
<use xlink:href="#f2_21" transform="matrix(12,0,0,12,92.8,526.3)" />
<use xlink:href="#f2_1x" transform="matrix(12,0,0,12,100.9,526.3)" />
<use xlink:href="#f2_2a" transform="matrix(12,0,0,12,108.9,526.3)" />
<use xlink:href="#f2_2i" transform="matrix(12,0,0,12,122.9,526.3)" />
<use xlink:href="#f2_1x" transform="matrix(12,0,0,12,131.7,526.3)" />
<use xlink:href="#f2_28" transform="matrix(12,0,0,12,140.1,526.3)" />
<use xlink:href="#f2_2h" transform="matrix(12,0,0,12,144.8,526.3)" />
<use xlink:href="#f2_21" transform="matrix(12,0,0,12,154,526.3)" />
<use xlink:href="#f2_2g" transform="matrix(12,0,0,12,166.8,526.3)" />
<use xlink:href="#f2_24" transform="matrix(12,0,0,12,172.3,526.3)" />
<use xlink:href="#f2_21" transform="matrix(12,0,0,12,181.1,526.3)" />
<use xlink:href="#f2_2b" transform="matrix(12,0,0,12,189.2,526.3)" />
<use xlink:href="#f2_2e" transform="matrix(12,0,0,12,198.7,526.3)" />
<use xlink:href="#f2_21" transform="matrix(12,0,0,12,204.9,526.3)" />
<use xlink:href="#f2_29" transform="matrix(12,0,0,12,213,526.3)" />
<use xlink:href="#f2_25" transform="matrix(12,0,0,12,231.6,526.3)" />
<use xlink:href="#f2_2f" transform="matrix(12,0,0,12,236.4,526.3)" />
<use xlink:href="#f2_1x" transform="matrix(12,0,0,12,248.1,526.3)" />
<use xlink:href="#f2_2c" transform="matrix(12,0,0,12,256.2,526.3)" />
<use xlink:href="#f2_2c" transform="matrix(12,0,0,12,265.4,526.3)" />
<use xlink:href="#f2_28" transform="matrix(12,0,0,12,274.9,526.3)" />
<use xlink:href="#f2_25" transform="matrix(12,0,0,12,280,526.3)" />
<use xlink:href="#f2_1z" transform="matrix(12,0,0,12,284.8,526.3)" />
<use xlink:href="#f2_1x" transform="matrix(12,0,0,12,292.8,526.3)" />
<use xlink:href="#f2_1y" transform="matrix(12,0,0,12,301.3,526.3)" />
<use xlink:href="#f2_28" transform="matrix(12,0,0,12,310.4,526.3)" />
<use xlink:href="#f2_21" transform="matrix(12,0,0,12,315.2,526.3)" />
<use xlink:href="#f2_22" transform="matrix(12,0,0,12,55,550.5)" />
<use xlink:href="#f2_c" transform="matrix(12,0,0,12,60.5,550.5)" />
<use xlink:href="#f2_k" transform="matrix(12,0,0,12,66.8,550.5)" />
<use xlink:href="#f2_d" transform="matrix(12,0,0,12,75.9,550.5)" />
<use xlink:href="#f2_x" transform="matrix(12,0,0,12,86.9,550.5)" />
<use xlink:href="#f2_k" transform="matrix(12,0,0,12,101.9,550.5)" />
<use xlink:href="#f2_g" transform="matrix(12,0,0,12,111.1,550.5)" />
</g>
<g clip-path="url(#c8_67)">
<g fill="#000000" >
<use xlink:href="#f2_c" transform="matrix(12.8,0,0,12.4,136.1,550.7)" />
<use xlink:href="#f2_d" transform="matrix(12.8,0,0,12.4,152.7,550.7)" />
<use xlink:href="#f2_k" transform="matrix(12.8,0,0,12.4,177.4,550.7)" />
<use xlink:href="#f3_22" transform="matrix(12.8,0,0,12.4,126.6,550.7)" />
<use xlink:href="#f4_2c" transform="matrix(12.8,0,0,12.4,142.7,550.7)" />
<use xlink:href="#f4_x" transform="matrix(12.8,0,0,12.4,163.2,550.7)" />
</g>
</g>
<g fill="#000000" >
<use xlink:href="#f2_22" transform="matrix(12,0,0,12,55,579.9)" />
<use xlink:href="#f4_2s" transform="matrix(12,0,0,12,65.3,579.9)" />
<use xlink:href="#f2_c" transform="matrix(12,0,0,12,70.1,579.9)" />
<use xlink:href="#f2_2k" transform="matrix(12,0,0,12,76.3,579.9)" />
<use xlink:href="#f2_d" transform="matrix(12,0,0,12,85.1,579.9)" />
<use xlink:href="#f2_x" transform="matrix(12,0,0,12,96,579.9)" />
<use xlink:href="#f2_m" transform="matrix(12,0,0,12,111.1,579.9)" />
<use xlink:href="#f2_1z" transform="matrix(12,0,0,12,125,579.9)" />
<use xlink:href="#f2_2b" transform="matrix(12,0,0,12,133,579.9)" />
<use xlink:href="#f2_2f" transform="matrix(12,0,0,12,142.6,579.9)" />
<use xlink:href="#f2_2k" transform="matrix(12,0,0,12,154.3,579.9)" />
<use xlink:href="#f2_f" transform="matrix(12,0,0,12,167.8,579.9)" />
<use xlink:href="#f2_m" transform="matrix(12,0,0,12,182.8,579.9)" />
<use xlink:href="#f2_1z" transform="matrix(12,0,0,12,196.4,579.9)" />
<use xlink:href="#f2_2b" transform="matrix(12,0,0,12,204.1,579.9)" />
<use xlink:href="#f2_2f" transform="matrix(12,0,0,12,213.6,579.9)" />
<use xlink:href="#f2_m" transform="matrix(12,0,0,12,225.3,579.9)" />
<use xlink:href="#f2_2k" transform="matrix(12,0,0,12,234.5,579.9)" />
<use xlink:href="#f2_22" transform="matrix(12,0,0,12,55,605.5)" />
<use xlink:href="#f4_2s" transform="matrix(12,0,0,12,60.5,605.5)" />
<use xlink:href="#f2_c" transform="matrix(12,0,0,12,65.3,605.5)" />
<use xlink:href="#f2_1z" transform="matrix(12,0,0,12,71.5,605.5)" />
<use xlink:href="#f2_d" transform="matrix(12,0,0,12,79.6,605.5)" />
<use xlink:href="#f2_x" transform="matrix(12,0,0,12,90.5,605.5)" />
<use xlink:href="#f2_m" transform="matrix(12,0,0,12,105.6,605.5)" />
<use xlink:href="#f2_1z" transform="matrix(12,0,0,12,119.5,605.5)" />
<use xlink:href="#f2_2b" transform="matrix(12,0,0,12,127.2,605.5)" />
<use xlink:href="#f2_2f" transform="matrix(12,0,0,12,136.7,605.5)" />
<use xlink:href="#f2_1z" transform="matrix(12,0,0,12,148.4,605.5)" />
<use xlink:href="#f2_f" transform="matrix(12,0,0,12,161.2,605.5)" />
<use xlink:href="#f2_m" transform="matrix(12,0,0,12,176.2,605.5)" />
<use xlink:href="#f2_1z" transform="matrix(12,0,0,12,189.8,605.5)" />
<use xlink:href="#f2_2b" transform="matrix(12,0,0,12,197.5,605.5)" />
<use xlink:href="#f2_2f" transform="matrix(12,0,0,12,207,605.5)" />
<use xlink:href="#f2_m" transform="matrix(12,0,0,12,218.7,605.5)" />
<use xlink:href="#f2_1z" transform="matrix(12,0,0,12,227.9,605.5)" />
</g>
<path d="M114.7,637.7H204" class="g6_67" />
<g clip-path="url(#c9_67)">
<g fill="#000000" >
<use xlink:href="#f2_c" transform="matrix(12.7,0,0,12.4,128.7,630.4)" />
<use xlink:href="#f2_d" transform="matrix(12.7,0,0,12.4,145.3,630.4)" />
<use xlink:href="#f2_c" transform="matrix(12.7,0,0,12.4,181.7,630.4)" />
<use xlink:href="#f2_k" transform="matrix(12.7,0,0,12.4,188,630.4)" />
<use xlink:href="#f2_d" transform="matrix(12.7,0,0,12.4,197.1,630.4)" />
<use xlink:href="#f2_c" transform="matrix(12.7,0,0,12.4,74.5,642.4)" />
<use xlink:href="#f2_d" transform="matrix(12.7,0,0,12.4,89.4,642.4)" />
<use xlink:href="#f2_k" transform="matrix(12.7,0,0,12.4,223.2,642.4)" />
<use xlink:href="#f2_k" transform="matrix(12.7,0,0,12.4,168.5,657.1)" />
<use xlink:href="#f3_22" transform="matrix(12.7,0,0,12.4,119.3,630.4)" />
<use xlink:href="#f3_22" transform="matrix(12.7,0,0,12.4,172.3,630.4)" />
<use xlink:href="#f3_22" transform="matrix(12.7,0,0,12.4,61.4,642.4)" />
<use xlink:href="#f3_1z" transform="matrix(12.7,0,0,12.4,80.8,642.4)" />
<use xlink:href="#f4_2c" transform="matrix(12.7,0,0,12.4,135.3,630.4)" />
<use xlink:href="#f4_h" transform="matrix(12.7,0,0,12.4,155.1,630.4)" />
<use xlink:href="#f4_2s" transform="matrix(12.7,0,0,12.4,70.2,642.4)" />
<use xlink:href="#f4_x" transform="matrix(12.7,0,0,12.4,99.9,642.4)" />
<use xlink:href="#f4_x" transform="matrix(12.7,0,0,12.4,209,642.4)" />
<use xlink:href="#f4_2c" transform="matrix(12.7,0,0,12.4,141.6,657.1)" />
<use xlink:href="#f4_h" transform="matrix(12.7,0,0,12.4,155.1,657.1)" />
</g>
</g>
<g clip-path="url(#c10_67)">
<g fill="#000000" >
<use xlink:href="#f4_1s" transform="matrix(12.3,0,0,12.7,55.1,681)" />
</g>
</g>
<g fill="#000000" >
<use xlink:href="#f2_m" transform="matrix(12,0,0,12,76.7,681.1)" />
<use xlink:href="#f2_1z" transform="matrix(12,0,0,12,90.6,681.1)" />
<use xlink:href="#f2_2b" transform="matrix(12,0,0,12,98.3,681.1)" />
<use xlink:href="#f2_2f" transform="matrix(12,0,0,12,107.8,681.1)" />
<use xlink:href="#f2_1z" transform="matrix(12,0,0,12,119.5,681.1)" />
<use xlink:href="#f2_f" transform="matrix(12,0,0,12,132.3,681.1)" />
<use xlink:href="#f2_m" transform="matrix(12,0,0,12,147.3,681.1)" />
<use xlink:href="#f2_1z" transform="matrix(12,0,0,12,160.9,681.1)" />
<use xlink:href="#f2_2b" transform="matrix(12,0,0,12,168.6,681.1)" />
<use xlink:href="#f2_2f" transform="matrix(12,0,0,12,178.1,681.1)" />
<use xlink:href="#f2_m" transform="matrix(12,0,0,12,189.8,681.1)" />
<use xlink:href="#f2_1z" transform="matrix(12,0,0,12,199,681.1)" />
<use xlink:href="#f2_x" transform="matrix(12,0,0,12,211.8,681.1)" />
<use xlink:href="#f2_k" transform="matrix(12,0,0,12,226.8,681.1)" />
</g>
<g clip-path="url(#c11_67)">
<g fill="#000000" >
<use xlink:href="#f4_4g" transform="matrix(12.4,0,0,12.3,57.4,705.6)" />
</g>
</g>
<g fill="#000000" >
<use xlink:href="#f2_1z" transform="matrix(12,0,0,12,82.9,705.3)" />
<use xlink:href="#f2_2b" transform="matrix(12,0,0,12,91,705.3)" />
<use xlink:href="#f2_2f" transform="matrix(12,0,0,12,100.5,705.3)" />
<use xlink:href="#f2_1z" transform="matrix(12,0,0,12,112.2,705.3)" />
<use xlink:href="#f2_f" transform="matrix(12,0,0,12,124.6,705.3)" />
<use xlink:href="#f2_m" transform="matrix(12,0,0,12,139.7,705.3)" />
<use xlink:href="#f2_1z" transform="matrix(12,0,0,12,153.6,705.3)" />
<use xlink:href="#f2_2b" transform="matrix(12,0,0,12,161.3,705.3)" />
<use xlink:href="#f2_2f" transform="matrix(12,0,0,12,170.8,705.3)" />
<use xlink:href="#f2_m" transform="matrix(12,0,0,12,177.8,705.3)" />
<use xlink:href="#f2_1z" transform="matrix(12,0,0,12,191.7,705.3)" />
<use xlink:href="#f6_4y" transform="matrix(12,0,0,12,204.3,705.3)" />
<use xlink:href="#f2_l" transform="matrix(12,0,0,12,218.2,705.3)" />
<use xlink:href="#f2_x" transform="matrix(12,0,0,12,231.8,705.3)" />
<use xlink:href="#f2_k" transform="matrix(12,0,0,12,246.8,705.3)" />
</g>
<g clip-path="url(#c12_67)">
<g fill="#000000" >
<use xlink:href="#f4_4g" transform="matrix(12.4,0,0,12.3,57.4,730.5)" />
</g>
</g>
<g fill="#000000" >
<use xlink:href="#f2_c" transform="matrix(12,0,0,12,82.9,730.2)" />
<use xlink:href="#f2_m" transform="matrix(12,0,0,12,89.1,730.2)" />
<use xlink:href="#f2_1z" transform="matrix(12,0,0,12,103.1,730.2)" />
<use xlink:href="#f2_2b" transform="matrix(12,0,0,12,110.8,730.2)" />
<use xlink:href="#f2_2f" transform="matrix(12,0,0,12,120.3,730.2)" />
<use xlink:href="#f2_1z" transform="matrix(12,0,0,12,132,730.2)" />
<use xlink:href="#f6_4y" transform="matrix(12,0,0,12,144.5,730.2)" />
<use xlink:href="#f2_l" transform="matrix(12,0,0,12,158.5,730.2)" />
<use xlink:href="#f2_d" transform="matrix(12,0,0,12,167.6,730.2)" />
<use xlink:href="#f2_c" transform="matrix(12,0,0,12,173.5,730.2)" />
<use xlink:href="#f2_1z" transform="matrix(12,0,0,12,179.7,730.2)" />
<use xlink:href="#f2_2b" transform="matrix(12,0,0,12,187.4,730.2)" />
<use xlink:href="#f2_2f" transform="matrix(12,0,0,12,196.9,730.2)" />
<use xlink:href="#f2_1z" transform="matrix(12,0,0,12,208.7,730.2)" />
<use xlink:href="#f2_f" transform="matrix(12,0,0,12,221.5,730.2)" />
<use xlink:href="#f2_l" transform="matrix(12,0,0,12,236.5,730.2)" />
<use xlink:href="#f2_d" transform="matrix(12,0,0,12,245.3,730.2)" />
<use xlink:href="#f2_x" transform="matrix(12,0,0,12,256.2,730.2)" />
<use xlink:href="#f2_k" transform="matrix(12,0,0,12,271.3,730.2)" />
</g>
<path d="M121.7,762.4h10.9" class="g5_67" />
<g clip-path="url(#c13_67)">
<g fill="#000000" >
<use xlink:href="#f2_l" transform="matrix(12.5,0,0,12.4,122.5,755.1)" />
<use xlink:href="#f2_1z" transform="matrix(12.5,0,0,12.4,79.8,767)" />
<use xlink:href="#f2_2b" transform="matrix(12.5,0,0,12.4,87.8,767)" />
<use xlink:href="#f2_2f" transform="matrix(12.5,0,0,12.4,97,767)" />
<use xlink:href="#f2_m" transform="matrix(12.5,0,0,12.4,122.8,781.7)" />
<use xlink:href="#f3_1z" transform="matrix(12.5,0,0,12.4,108.5,767)" />
<use xlink:href="#f4_4g" transform="matrix(12.5,0,0,12.4,57.4,767)" />
</g>
</g>
<path d="M106.9,813.3h11.7" class="g7_67" />
<g clip-path="url(#c14_67)">
<g fill="#000000" >
<use xlink:href="#f2_c" transform="matrix(12.6,0,0,12.4,137,818)" />
<use xlink:href="#f2_k" transform="matrix(12.6,0,0,12.4,143.2,818)" />
<use xlink:href="#f2_g" transform="matrix(12.6,0,0,12.4,152.1,818)" />
<use xlink:href="#f2_d" transform="matrix(12.6,0,0,12.4,168.5,818)" />
<use xlink:href="#f2_n" transform="matrix(12.6,0,0,12.4,108.5,832.7)" />
<use xlink:href="#f3_1z" transform="matrix(12.6,0,0,12.4,79.5,818)" />
<use xlink:href="#f4_2c" transform="matrix(12.6,0,0,12.4,108.1,806.1)" />
<use xlink:href="#f4_4g" transform="matrix(12.6,0,0,12.4,57.4,818)" />
<use xlink:href="#f4_x" transform="matrix(12.6,0,0,12.4,92.2,818)" />
<use xlink:href="#f4_40" transform="matrix(12.6,0,0,12.4,121.6,818)" />
<use xlink:href="#f4_2c" transform="matrix(12.6,0,0,12.4,158.5,818)" />
</g>
</g>
<g fill="#000000" >
<use xlink:href="#f2_18" transform="matrix(12,0,0,12,55,856.4)" />
<use xlink:href="#f2_21" transform="matrix(12,0,0,12,68.3,856.4)" />
<use xlink:href="#f2_2a" transform="matrix(12,0,0,12,76.3,856.4)" />
<use xlink:href="#f2_1z" transform="matrix(12,0,0,12,85.1,856.4)" />
<use xlink:href="#f2_21" transform="matrix(12,0,0,12,93.5,856.4)" />
<use xlink:href="#f2_29" transform="matrix(12,0,0,12,106.7,856.4)" />
<use xlink:href="#f2_21" transform="matrix(12,0,0,12,120.3,856.4)" />
<use xlink:href="#f2_1x" transform="matrix(12,0,0,12,128.3,856.4)" />
<use xlink:href="#f2_2a" transform="matrix(12,0,0,12,136.7,856.4)" />
<use xlink:href="#f2_2i" transform="matrix(12,0,0,12,150.7,856.4)" />
<use xlink:href="#f2_1x" transform="matrix(12,0,0,12,159.5,856.4)" />
<use xlink:href="#f2_28" transform="matrix(12,0,0,12,167.9,856.4)" />
<use xlink:href="#f2_2h" transform="matrix(12,0,0,12,172.6,856.4)" />
<use xlink:href="#f2_21" transform="matrix(12,0,0,12,181.8,856.4)" />
<use xlink:href="#f2_2g" transform="matrix(12,0,0,12,194.6,856.4)" />
<use xlink:href="#f2_24" transform="matrix(12,0,0,12,200.1,856.4)" />
<use xlink:href="#f2_21" transform="matrix(12,0,0,12,208.9,856.4)" />
<use xlink:href="#f2_2b" transform="matrix(12,0,0,12,217,856.4)" />
<use xlink:href="#f2_2e" transform="matrix(12,0,0,12,226.5,856.4)" />
<use xlink:href="#f2_21" transform="matrix(12,0,0,12,232.7,856.4)" />
<use xlink:href="#f2_29" transform="matrix(12,0,0,12,240.8,856.4)" />
<use xlink:href="#f2_25" transform="matrix(12,0,0,12,259.5,856.4)" />
<use xlink:href="#f2_2f" transform="matrix(12,0,0,12,264.2,856.4)" />
<use xlink:href="#f2_2i" transform="matrix(12,0,0,12,276.3,856.4)" />
<use xlink:href="#f2_21" transform="matrix(12,0,0,12,285.1,856.4)" />
<use xlink:href="#f2_2e" transform="matrix(12,0,0,12,293.2,856.4)" />
<use xlink:href="#f2_25" transform="matrix(12,0,0,12,299.8,856.4)" />
<use xlink:href="#f2_22" transform="matrix(12,0,0,12,304.5,856.4)" />
<use xlink:href="#f2_25" transform="matrix(12,0,0,12,310.7,856.4)" />
<use xlink:href="#f2_21" transform="matrix(12,0,0,12,315.5,856.4)" />
<use xlink:href="#f2_20" transform="matrix(12,0,0,12,323.6,856.4)" />
<use xlink:href="#f2_i" transform="matrix(12,0,0,12,332.7,856.4)" />
<use xlink:href="#f5_l" transform="matrix(12,0,0,12,55,904.8)" />
<use xlink:href="#f5_k" transform="matrix(12,0,0,12,64.2,904.8)" />
<use xlink:href="#f5_i" transform="matrix(12,0,0,12,73.4,904.8)" />
<use xlink:href="#f2_1j" transform="matrix(12,0,0,12,82.9,904.8)" />
<use xlink:href="#f2_24" transform="matrix(12,0,0,12,93.2,904.8)" />
<use xlink:href="#f2_2b" transform="matrix(12,0,0,12,102,904.8)" />
<use xlink:href="#f2_2j" transform="matrix(12,0,0,12,111.5,904.8)" />
<use xlink:href="#f2_2g" transform="matrix(12,0,0,12,128.7,904.8)" />
<use xlink:href="#f2_24" transform="matrix(12,0,0,12,134.2,904.8)" />
<use xlink:href="#f2_1x" transform="matrix(12,0,0,12,143,904.8)" />
<use xlink:href="#f2_2g" transform="matrix(12,0,0,12,151,904.8)" />
<use xlink:href="#f2_2g" transform="matrix(12,0,0,12,160.9,904.8)" />
<use xlink:href="#f2_24" transform="matrix(12,0,0,12,166.4,904.8)" />
<use xlink:href="#f2_21" transform="matrix(12,0,0,12,175.2,904.8)" />
<use xlink:href="#f2_22" transform="matrix(12,0,0,12,188,904.8)" />
<use xlink:href="#f2_2h" transform="matrix(12,0,0,12,193.5,904.8)" />
<use xlink:href="#f2_2a" transform="matrix(12,0,0,12,203,904.8)" />
<use xlink:href="#f2_1z" transform="matrix(12,0,0,12,211.8,904.8)" />
<use xlink:href="#f2_2g" transform="matrix(12,0,0,12,219.9,904.8)" />
<use xlink:href="#f2_25" transform="matrix(12,0,0,12,225.8,904.8)" />
<use xlink:href="#f2_2b" transform="matrix(12,0,0,12,230.2,904.8)" />
<use xlink:href="#f2_2a" transform="matrix(12,0,0,12,239.7,904.8)" />
<use xlink:href="#f3_22" transform="matrix(12,0,0,12,253.5,904.8)" />
<use xlink:href="#f2_23" transform="matrix(12,0,0,12,263.7,904.8)" />
<use xlink:href="#f2_25" transform="matrix(12,0,0,12,272.9,904.8)" />
<use xlink:href="#f2_2i" transform="matrix(12,0,0,12,277.7,904.8)" />
<use xlink:href="#f2_21" transform="matrix(12,0,0,12,286.5,904.8)" />
<use xlink:href="#f2_2a" transform="matrix(12,0,0,12,294.9,904.8)" />
<use xlink:href="#f2_1y" transform="matrix(12,0,0,12,308.4,904.8)" />
<use xlink:href="#f2_2l" transform="matrix(12,0,0,12,317.6,904.8)" />
<use xlink:href="#f2_u" transform="matrix(12,0,0,12,331.2,904.8)" />
</g>
<path d="M143.8,917.4L132.1,934m11.6,14.3l-11.8,16.6" class="g8_67" />
<path d="M121.9,946.4h48.3" class="g9_67" />
<g clip-path="url(#c15_67)">
<g fill="#000000" >
<use xlink:href="#f2_l" transform="matrix(7.3,0,0,7.2,133,925.6)" />
<use xlink:href="#f2_l" transform="matrix(7.3,0,0,7.2,132.8,956.6)" />
<use xlink:href="#f2_l" transform="matrix(12.6,0,0,12.3,161.7,939.6)" />
<use xlink:href="#f2_g" transform="matrix(12.6,0,0,12.3,172.4,951)" />
<use xlink:href="#f2_25" transform="matrix(12.6,0,0,12.3,180.6,951)" />
<use xlink:href="#f2_22" transform="matrix(12.6,0,0,12.3,185.8,951)" />
<use xlink:href="#f2_k" transform="matrix(12.6,0,0,12.3,227.1,951)" />
<use xlink:href="#f2_c" transform="matrix(12.6,0,0,12.3,70.9,962.6)" />
<use xlink:href="#f2_d" transform="matrix(12.6,0,0,12.3,87,962.6)" />
<use xlink:href="#f2_l" transform="matrix(12.6,0,0,12.3,161.8,970.5)" />
<use xlink:href="#f2_l" transform="matrix(12.6,0,0,12.3,144.1,994.2)" />
<use xlink:href="#f2_g" transform="matrix(12.6,0,0,12.3,171.5,994.2)" />
<use xlink:href="#f2_25" transform="matrix(12.6,0,0,12.3,179.7,994.2)" />
<use xlink:href="#f2_22" transform="matrix(12.6,0,0,12.3,184.9,994.2)" />
<use xlink:href="#f2_k" transform="matrix(12.6,0,0,12.3,226,994.2)" />
<use xlink:href="#f3_2k" transform="matrix(7.3,0,0,7.2,139.4,933.8)" />
<use xlink:href="#f3_2k" transform="matrix(7.3,0,0,7.2,139.2,964.8)" />
<use xlink:href="#f3_21" transform="matrix(12.6,0,0,12.3,123,939.6)" />
<use xlink:href="#f3_2k" transform="matrix(12.6,0,0,12.3,199.8,951)" />
<use xlink:href="#f3_22" transform="matrix(12.6,0,0,12.3,61.4,962.6)" />
<use xlink:href="#f3_2k" transform="matrix(12.6,0,0,12.3,78.3,962.6)" />
<use xlink:href="#f3_21" transform="matrix(12.6,0,0,12.3,122.8,970.5)" />
<use xlink:href="#f3_2k" transform="matrix(12.6,0,0,12.3,198.9,994.2)" />
<use xlink:href="#f4_4u" transform="matrix(12.6,0,0,12.3,112,932.9)" />
<use xlink:href="#f4_h" transform="matrix(12.6,0,0,12.3,149.9,939.6)" />
<use xlink:href="#f4_4x" transform="matrix(12.6,0,0,12.3,112,950.6)" />
<use xlink:href="#f4_3f" transform="matrix(12.6,0,0,12.3,212.6,951)" />
<use xlink:href="#f4_x" transform="matrix(12.6,0,0,12.3,97.5,962.6)" />
<use xlink:href="#f4_4v" transform="matrix(12.6,0,0,12.3,112,965.7)" />
<use xlink:href="#f4_f" transform="matrix(12.6,0,0,12.3,149.7,970.5)" />
<use xlink:href="#f4_4x" transform="matrix(12.6,0,0,12.3,112,983.5)" />
<use xlink:href="#f4_h" transform="matrix(12.6,0,0,12.3,132.3,994.2)" />
<use xlink:href="#f4_x" transform="matrix(12.6,0,0,12.3,211.7,994.2)" />
<use xlink:href="#f4_4w" transform="matrix(12.6,0,0,12.3,112,998.6)" />
</g>
</g>
<g fill="#000000" >
<use xlink:href="#f2_25" transform="matrix(12,0,0,12,55,1023.7)" />
<use xlink:href="#f2_2f" transform="matrix(12,0,0,12,59.8,1023.7)" />
<use xlink:href="#f2_20" transform="matrix(12,0,0,12,71.5,1023.7)" />
<use xlink:href="#f2_25" transform="matrix(12,0,0,12,81,1023.7)" />
<use xlink:href="#f2_2f" transform="matrix(12,0,0,12,85.8,1023.7)" />
<use xlink:href="#f2_1z" transform="matrix(12,0,0,12,92.8,1023.7)" />
<use xlink:href="#f2_2b" transform="matrix(12,0,0,12,100.8,1023.7)" />
<use xlink:href="#f2_2a" transform="matrix(12,0,0,12,110.3,1023.7)" />
<use xlink:href="#f2_2g" transform="matrix(12,0,0,12,119.1,1023.7)" />
<use xlink:href="#f2_25" transform="matrix(12,0,0,12,125,1023.7)" />
<use xlink:href="#f2_2a" transform="matrix(12,0,0,12,129.8,1023.7)" />
<use xlink:href="#f2_2h" transform="matrix(12,0,0,12,138.6,1023.7)" />
<use xlink:href="#f2_2b" transform="matrix(12,0,0,12,147.7,1023.7)" />
<use xlink:href="#f2_2h" transform="matrix(12,0,0,12,157.2,1023.7)" />
<use xlink:href="#f2_2f" transform="matrix(12,0,0,12,166.4,1023.7)" />
<use xlink:href="#f2_1x" transform="matrix(12,0,0,12,178.1,1023.7)" />
<use xlink:href="#f2_2g" transform="matrix(12,0,0,12,186.2,1023.7)" />
<use xlink:href="#f2_2k" transform="matrix(12,0,0,12,196.4,1023.7)" />
<use xlink:href="#f2_x" transform="matrix(12,0,0,12,210,1023.7)" />
<use xlink:href="#f2_k" transform="matrix(12,0,0,12,225,1023.7)" />
<use xlink:href="#f2_i" transform="matrix(12,0,0,12,233.8,1023.7)" />
<use xlink:href="#f5_1j" transform="matrix(12,0,0,12,55,1047.9)" />
<use xlink:href="#f5_2b" transform="matrix(12,0,0,12,65.3,1047.9)" />
<use xlink:href="#f5_28" transform="matrix(12,0,0,12,74.5,1047.9)" />
<use xlink:href="#f5_2h" transform="matrix(12,0,0,12,79.2,1047.9)" />
<use xlink:href="#f5_2g" transform="matrix(12,0,0,12,89.5,1047.9)" />
<use xlink:href="#f5_25" transform="matrix(12,0,0,12,95.7,1047.9)" />
<use xlink:href="#f5_2b" transform="matrix(12,0,0,12,100.8,1047.9)" />
<use xlink:href="#f5_2a" transform="matrix(12,0,0,12,109.9,1047.9)" />
<use xlink:href="#f5_u" transform="matrix(12,0,0,12,120.2,1047.9)" />
</g>
<path d="M122.5,1071.2h6.4m-6.6,38h6.4" class="g10_67" />
<path d="M112.5,1094.9h42.6" class="g11_67" />
<g clip-path="url(#c16_67)">
<g fill="#000000" >
<use xlink:href="#f2_l" transform="matrix(7,0,0,7,123,1067.2)" />
<use xlink:href="#f2_l" transform="matrix(7,0,0,7,122.9,1105.2)" />
<use xlink:href="#f2_l" transform="matrix(12.1,0,0,12.1,146.5,1087.8)" />
<use xlink:href="#f2_k" transform="matrix(12.1,0,0,12.1,201.5,1099.5)" />
<use xlink:href="#f2_c" transform="matrix(12.1,0,0,12.1,70.9,1110.8)" />
<use xlink:href="#f2_d" transform="matrix(12.1,0,0,12.1,87.1,1110.8)" />
<use xlink:href="#f2_l" transform="matrix(12.1,0,0,12.1,146.7,1125.8)" />
<use xlink:href="#f2_l" transform="matrix(12.1,0,0,12.1,135.2,1149.1)" />
<use xlink:href="#f2_k" transform="matrix(12.1,0,0,12.1,201.4,1149.1)" />
<use xlink:href="#f3_2k" transform="matrix(7,0,0,7,123.6,1082.1)" />
<use xlink:href="#f3_2k" transform="matrix(7,0,0,7,123.5,1120.1)" />
<use xlink:href="#f3_21" transform="matrix(12.1,0,0,12.1,113.5,1087.8)" />
<use xlink:href="#f3_2k" transform="matrix(12.1,0,0,12.1,174.1,1099.5)" />
<use xlink:href="#f3_22" transform="matrix(12.1,0,0,12.1,61.4,1110.8)" />
<use xlink:href="#f3_2k" transform="matrix(12.1,0,0,12.1,78.5,1110.8)" />
<use xlink:href="#f3_21" transform="matrix(12.1,0,0,12.1,113.4,1125.8)" />
<use xlink:href="#f3_2k" transform="matrix(12.1,0,0,12.1,174.2,1149.1)" />
<use xlink:href="#f4_h" transform="matrix(12.1,0,0,12.1,134.7,1087.8)" />
<use xlink:href="#f4_3f" transform="matrix(12.1,0,0,12.1,186.9,1099.5)" />
<use xlink:href="#f4_x" transform="matrix(12.1,0,0,12.1,97.6,1110.8)" />
<use xlink:href="#f4_f" transform="matrix(12.1,0,0,12.1,134.6,1125.8)" />
<use xlink:href="#f4_h" transform="matrix(12.1,0,0,12.1,125.1,1149.1)" />
<use xlink:href="#f4_x" transform="matrix(12.1,0,0,12.1,187.1,1149.1)" />
</g>
</g>
<path fill-rule="evenodd" d="M37.4,38.1h.7v-.7h-.7v.7Z" class="g12_67" />
<path fill-rule="evenodd" d="M37.4,38.1h.7v-.7h-.7v.7Z" class="g12_67" />
<path fill-rule="evenodd" d="M38.1,38.1H871.5v-.7H38.1v.7Z" class="g12_67" />
<path fill-rule="evenodd" d="M871.5,38.1h.8v-.7h-.8v.7Z" class="g12_67" />
<path fill-rule="evenodd" d="M871.5,38.1h.8v-.7h-.8v.7Z" class="g12_67" />
<path fill-rule="evenodd" d="M37.4,1248.5h.7V38.1h-.7V1248.5Z" class="g12_67" />
<path fill-rule="evenodd" d="M872.3,1248.5h.7V38.1h-.7V1248.5Z" class="g12_67" />
<path fill-rule="evenodd" d="M871.5,1248.5h.8V38.1h-.8V1248.5Z" class="g12_67" />
<path fill-rule="evenodd" d="M37.4,1249.2h.7v-.7h-.7v.7Z" class="g12_67" />
<path fill-rule="evenodd" d="M37.4,1249.2h.7v-.7h-.7v.7Z" class="g12_67" />
<path fill-rule="evenodd" d="M38.1,1249.9H871.5v-.7H38.1v.7Z" class="g12_67" />
<path fill-rule="evenodd" d="M38.1,1249.2H871.5v-.7H38.1v.7Z" class="g12_67" />
<path fill-rule="evenodd" d="M872.3,1249.9h.7v-1.4h-.7v1.4Z" class="g12_67" />
<path fill-rule="evenodd" d="M871.5,1249.9H873v-.7h-1.5v.7Z" class="g12_67" />
<path fill-rule="evenodd" d="M871.5,1249.2h.8v-.7h-.8v.7Z" class="g12_67" />
<path fill-rule="evenodd" d="M871.5,1249.2h.8v-.7h-.8v.7Z" class="g12_67" />
<defs>
<path d="M489,-15c0,0,-99,0,-179,30c0,0,-80,30,-136,91c0,0,-56,61,-85,152c0,0,-30,91,-30,212c0,0,0,123,32,218c0,0,33,96,92,161c0,0,59,65,142,98c0,0,82,34,181,34c0,0,40,0,78,-7c0,0,37,-7,69,-18c0,0,31,-11,57,-25c0,0,25,-14,35,-24c0,0,10,-10,14,-17c0,0,4,-7,6,-17c0,0,2,-11,3,-25c0,0,2,-14,2,-35c0,0,0,-22,-2,-38c0,0,-1,-15,-5,-25c0,0,-4,-10,-9,-14c0,0,-5,-5,-12,-5c0,0,-11,0,-28,13c0,0,-18,13,-45,29c0,0,-27,16,-65,29c0,0,-37,13,-89,13c0,0,-58,0,-103,-23c0,0,-45,-23,-77,-67c0,0,-31,-44,-48,-106c0,0,-16,-61,-16,-139c0,0,0,-85,17,-147c0,0,18,-62,50,-103c0,0,33,-40,79,-60c0,0,45,-19,103,-19c0,0,52,0,90,12c0,0,38,12,65,27c0,0,27,15,45,27c0,0,17,12,27,12c0,0,8,0,12,-3c0,0,4,-3,7,-12c0,0,3,-9,5,-25c0,0,1,-16,1,-43c0,0,0,-18,-1,-31c0,0,-1,-14,-3,-23c0,0,-2,-9,-6,-16c0,0,-4,-7,-12,-15c0,0,-8,-9,-32,-22c0,0,-23,-14,-57,-26C661,13,627,1,583,-6c0,0,-43,-9,-94,-9Z" 
id="f0_j"
transform="scale(0.001,-0.001)" />

<path d="M440,150c0,0,41,0,68,8c0,0,28,9,49,26c0,0,20,16,32,41c0,0,11,25,11,58c0,0,0,33,-11,60c0,0,-11,26,-33,44c0,0,-21,18,-55,28c0,0,-33,9,-87,9H298V150ZM407,567c0,0,42,0,68,10c0,0,25,10,42,28c0,0,16,17,24,41c0,0,9,24,9,50c0,0,0,29,-9,52c0,0,-9,23,-27,39c0,0,-18,15,-45,23c0,0,-27,8,-72,8H298V567ZM164,0c0,0,-25,0,-42,15c0,0,-16,14,-16,47V903c0,0,0,33,16,48c0,0,17,14,42,14H406c0,0,88,0,150,-15c0,0,61,-15,103,-45c0,0,42,-30,65,-77c0,0,22,-46,22,-108c0,0,0,-36,-9,-67c0,0,-9,-31,-26,-56c0,0,-17,-25,-42,-45c0,0,-25,-19,-57,-31c0,0,41,-7,76,-26c0,0,34,-19,60,-48c0,0,26,-30,41,-69c0,0,15,-40,15,-89c0,0,0,-51,-14,-93c0,0,-15,-42,-40,-74c0,0,-25,-32,-59,-55c0,0,-35,-23,-77,-38C614,29,573,14,525,7C525,7,478,0,420,0Z" 
id="f0_i"
transform="scale(0.001,-0.001)" />

<path d="M320,-17c0,0,-50,0,-93,9c0,0,-43,8,-76,19c0,0,-32,11,-54,24C97,35,75,48,65,58c0,0,-10,9,-14,28c0,0,-4,18,-4,52c0,0,0,23,1,39c0,0,2,15,5,25c0,0,4,10,9,14c0,0,6,4,13,4c0,0,11,0,30,-12c0,0,19,-13,49,-28c0,0,30,-15,71,-27c0,0,42,-12,96,-12c0,0,36,0,64,8c0,0,29,9,49,25c0,0,19,15,30,38c0,0,10,23,10,52c0,0,0,33,-18,56c0,0,-18,24,-46,42c0,0,-29,18,-66,34c0,0,-36,16,-75,34c0,0,-39,18,-76,41c0,0,-36,23,-65,54c0,0,-29,32,-47,75c0,0,-17,44,-17,104c0,0,0,70,25,122c0,0,26,53,70,88c0,0,43,34,103,51c0,0,59,18,125,18c0,0,35,0,69,-6c0,0,34,-5,64,-14c0,0,30,-9,53,-20c0,0,23,-11,31,-18c0,0,7,-8,10,-13c0,0,3,-5,4,-14c0,0,2,-8,3,-21c0,0,1,-13,1,-33c0,0,0,-21,-1,-36c0,0,-1,-15,-4,-25c0,0,-3,-9,-7,-14c0,0,-5,-4,-14,-4c0,0,-8,0,-26,10c0,0,-18,10,-44,23c0,0,-26,12,-60,22c0,0,-34,10,-75,10c0,0,-32,0,-56,-8c0,0,-24,-8,-40,-21c0,0,-16,-14,-24,-34c0,0,-8,-19,-8,-41c0,0,0,-32,18,-56c0,0,17,-23,46,-42c0,0,30,-18,67,-34c0,0,38,-16,76,-34c0,0,39,-18,76,-41c0,0,38,-22,67,-54c0,0,29,-32,47,-75c0,0,18,-43,18,-101c0,0,0,-76,-29,-133c0,0,-28,-58,-77,-96C572,60,524,21,459,2c0,0,-65,-19,-139,-19Z" 
id="f0_2n"
transform="scale(0.001,-0.001)" />

<path d="M164,0c0,0,-25,0,-42,15c0,0,-16,14,-16,47V903c0,0,0,33,16,48c0,0,17,14,42,14H645c0,0,7,0,12,-4c0,0,5,-3,9,-13c0,0,4,-9,6,-24c0,0,2,-14,2,-36c0,0,0,-21,-2,-36c0,0,-2,-14,-6,-23c0,0,-4,-9,-9,-13c0,0,-5,-4,-12,-4H301V576H593c0,0,6,0,12,-4c0,0,6,-4,9,-13c0,0,4,-8,6,-23c0,0,2,-14,2,-35c0,0,0,-22,-2,-36c0,0,-2,-14,-6,-23c0,0,-3,-8,-9,-12c0,0,-6,-4,-12,-4H301V154H649c0,0,6,0,12,-5c0,0,5,-4,9,-13c0,0,4,-9,6,-23c0,0,2,-15,2,-36c0,0,0,-22,-2,-36c0,0,-2,-15,-6,-24c0,0,-4,-9,-9,-13c0,0,-6,-4,-12,-4Z" 
id="f0_t"
transform="scale(0.001,-0.001)" />

<path d="M79,297c0,0,-19,0,-27,18c0,0,-8,17,-8,60c0,0,0,41,8,59c0,0,8,17,27,17H389c0,0,9,0,15,-4c0,0,7,-4,11,-13c0,0,5,-9,7,-23c0,0,1,-15,1,-36c0,0,0,-43,-8,-61c0,0,-8,-17,-26,-17Z" 
id="f0_oj"
transform="scale(0.001,-0.001)" />

<path d="M121,-4c0,0,-39,0,-60,2C61,-2,39,0,32,8c0,0,-8,8,-3,24c0,0,4,15,18,41L279,495L64,892c0,0,-14,26,-19,42c0,0,-5,17,4,24c0,0,9,8,32,10c0,0,23,2,65,2c0,0,35,0,56,-2c0,0,20,-1,32,-4c0,0,12,-4,17,-10c0,0,5,-6,9,-15L431,620L595,939c0,0,5,9,10,15c0,0,5,6,16,10c0,0,10,3,29,4c0,0,19,2,53,2c0,0,37,0,59,-2c0,0,22,-2,30,-10c0,0,8,-8,4,-24c0,0,-4,-16,-17,-42L564,497L793,73c0,0,14,-26,18,-41c0,0,4,-16,-5,-24c0,0,-9,-8,-32,-10c0,0,-24,-2,-65,-2c0,0,-36,0,-56,2c0,0,-20,1,-31,3c0,0,-12,4,-17,10c0,0,-5,6,-9,15L414,374L233,26c0,0,-4,-9,-9,-15c0,0,-6,-6,-17,-10c0,0,-12,-2,-32,-3c0,0,-21,-2,-54,-2Z" 
id="f0_3e"
transform="scale(0.001,-0.001)" />

<path d="M204,-4c0,0,-28,0,-47,2c0,0,-19,2,-31,5c0,0,-11,4,-16,10c0,0,-4,6,-4,13V939c0,0,0,7,4,13c0,0,5,6,17,10c0,0,11,3,30,6c0,0,19,2,47,2c0,0,29,0,48,-2c0,0,18,-3,29,-6c0,0,11,-4,16,-10c0,0,5,-6,5,-13V26c0,0,0,-7,-5,-13c0,0,-5,-6,-16,-10c0,0,-11,-3,-29,-5c0,0,-19,-2,-48,-2Z" 
id="f0_1c"
transform="scale(0.001,-0.001)" />

<path d="M127,0c0,0,-16,0,-28,3C99,3,87,6,80,15c0,0,-8,8,-11,25c0,0,-3,16,-3,42c0,0,0,25,2,42c0,0,2,18,8,32c0,0,6,14,15,27c0,0,9,13,24,29L282,390c0,0,50,53,81,95c0,0,30,43,47,79c0,0,17,35,24,65c0,0,6,30,6,57c0,0,0,24,-8,46c0,0,-8,22,-23,39c0,0,-15,16,-38,25c0,0,-23,10,-55,10c0,0,-44,0,-78,-12c0,0,-33,-11,-59,-25c0,0,-26,-13,-43,-25c0,0,-17,-12,-27,-12c0,0,-7,0,-11,5c0,0,-5,4,-8,15c0,0,-3,10,-5,28c0,0,-2,17,-2,42c0,0,0,18,1,29c0,0,1,12,4,20c0,0,2,9,6,15c0,0,3,6,13,15c0,0,9,9,34,23c0,0,25,14,61,27c0,0,37,14,81,23c0,0,44,9,92,9c0,0,75,0,131,-19c0,0,57,-19,94,-53c0,0,37,-34,55,-81c0,0,19,-47,19,-100c0,0,0,-47,-9,-93c0,0,-9,-45,-37,-98c0,0,-29,-52,-80,-116c0,0,-52,-64,-136,-148L299,159H679c0,0,8,0,14,-4c0,0,6,-5,11,-14c0,0,4,-9,7,-25c0,0,2,-15,2,-36c0,0,0,-22,-2,-37c0,0,-2,-15,-6,-25c0,0,-3,-10,-9,-14c0,0,-6,-4,-14,-4Z" 
id="f0_rz"
transform="scale(0.001,-0.001)" />

<path d="M385,138c0,0,29,0,52,9c0,0,22,10,39,28c0,0,17,19,28,47c0,0,11,29,19,66c0,0,7,37,9,84c0,0,3,47,3,104c0,0,0,69,-4,122c0,0,-4,52,-11,91c0,0,-8,39,-20,66c0,0,-12,27,-28,43c0,0,-16,16,-37,22c0,0,-21,7,-47,7c0,0,-44,0,-73,-21c0,0,-28,-21,-45,-64c0,0,-17,-42,-24,-106c0,0,-6,-63,-6,-148c0,0,0,-103,8,-171c0,0,8,-67,26,-107c0,0,17,-40,45,-56c0,0,27,-16,66,-16ZM378,-17c0,0,-99,0,-164,33c0,0,-65,34,-103,98c0,0,-38,64,-54,156c0,0,-15,92,-15,209c0,0,0,115,19,208c0,0,19,94,61,160c0,0,42,65,110,101c0,0,68,35,165,35c0,0,99,0,164,-34c0,0,65,-34,103,-98c0,0,39,-64,53,-156c0,0,15,-92,15,-209c0,0,0,-115,-18,-209c0,0,-19,-93,-61,-159C653,118,611,53,543,17c0,0,-67,-34,-165,-34Z" 
id="f0_rx"
transform="scale(0.001,-0.001)" />

<path d="M142,0c0,0,-6,0,-12,4c0,0,-5,3,-9,12c0,0,-4,9,-6,23c0,0,-3,15,-3,36c0,0,0,21,2,36c0,0,2,14,6,23c0,0,4,9,10,13c0,0,5,5,12,5H322V779L166,693c0,0,-17,-8,-28,-10c0,0,-1,0,-3,0c-4,0,-10,1,-14,5c0,0,-6,6,-8,22c0,0,-2,15,-2,44c0,0,0,18,0,29c0,0,1,12,4,20c0,0,3,8,8,14c0,0,5,5,14,11L345,962c0,0,4,3,9,5c0,0,6,2,15,3c0,0,9,1,23,2c0,0,15,0,38,0c0,0,28,0,46,-1c0,0,17,-1,26,-4c0,0,9,-3,12,-7c0,0,3,-4,3,-11V152H675c0,0,7,0,12,-5c0,0,6,-4,10,-13c0,0,4,-9,6,-23c0,0,2,-15,2,-36c0,0,0,-21,-2,-36c0,0,-3,-14,-7,-23c0,0,-4,-9,-9,-12c0,0,-5,-4,-12,-4Z" 
id="f0_ry"
transform="scale(0.001,-0.001)" />

<path d="M398,134c0,0,34,0,60,12c0,0,25,13,43,36c0,0,17,23,26,54c0,0,9,31,9,68c0,0,0,38,-7,66c0,0,-7,29,-22,49c0,0,-15,20,-39,30c0,0,-25,10,-60,10c0,0,-21,0,-41,-4c0,0,-20,-4,-40,-10c0,0,-19,-7,-37,-16c0,0,-18,-10,-33,-20c0,0,0,-80,9,-133c0,0,9,-54,26,-85c0,0,18,-31,44,-44c0,0,27,-13,62,-13ZM387,-16c0,0,-67,0,-117,15c0,0,-50,14,-86,43c0,0,-37,29,-60,70c0,0,-23,41,-37,92c0,0,-14,52,-19,112c0,0,-5,61,-5,129c0,0,0,56,5,118c0,0,6,62,22,122c0,0,16,59,45,114c0,0,29,54,75,94c0,0,46,41,111,65c0,0,65,24,155,24c0,0,28,0,57,-4c0,0,29,-3,53,-8c0,0,25,-5,42,-12c0,0,17,-7,23,-12c0,0,5,-5,8,-11c0,0,3,-5,5,-13c0,0,2,-7,3,-17c0,0,1,-11,1,-25c0,0,0,-24,-1,-39c0,0,-2,-15,-5,-24c0,0,-3,-8,-8,-12c0,0,-5,-4,-12,-4c0,0,-9,0,-24,5c0,0,-14,5,-34,11c0,0,-20,6,-47,10c0,0,-27,5,-63,5c0,0,-61,0,-102,-23c0,0,-42,-22,-68,-60c0,0,-26,-39,-38,-90c0,0,-12,-50,-13,-107c0,0,16,10,38,21c0,0,21,10,46,18c0,0,25,7,54,12c0,0,29,5,62,5c0,0,73,0,125,-20c0,0,52,-20,86,-58c0,0,33,-37,48,-90c0,0,16,-53,16,-118c0,0,0,-73,-22,-135c0,0,-23,-62,-66,-108C640,79,597,34,533,9c0,0,-63,-25,-146,-25Z" 
id="f0_s3"
transform="scale(0.001,-0.001)" />

<path d="M589,371L453,782h-1L317,371ZM106,-4c0,0,-35,0,-54,2C52,-2,32,0,25,8c0,0,-7,9,-5,24c0,0,2,16,11,42L329,931c0,0,4,13,10,21c0,0,6,7,19,12c0,0,13,4,36,5c0,0,23,1,61,1c0,0,44,0,71,-1c0,0,26,-1,40,-5c0,0,15,-5,21,-13c0,0,6,-8,11,-22L896,73c0,0,9,-27,11,-43c0,0,3,-15,-6,-23c0,0,-8,-7,-29,-9c0,0,-21,-2,-57,-2c0,0,-38,0,-59,1c0,0,-22,1,-33,4c0,0,-11,3,-16,9c0,0,-4,6,-7,16L635,220H272L211,31c0,0,-2,-11,-7,-18c0,0,-5,-7,-16,-11c0,0,-11,-3,-31,-4c0,0,-19,-2,-51,-2Z" 
id="f0_5"
transform="scale(0.001,-0.001)" />

<path d="M198,-4c0,0,-27,0,-45,2c0,0,-18,2,-28,5c0,0,-11,4,-15,10c0,0,-4,6,-4,13V887c0,0,0,38,20,58c0,0,20,20,53,20H308c0,0,34,0,59,-6c0,0,24,-5,42,-18c0,0,18,-13,30,-35c0,0,12,-21,21,-52L669,279h3L889,852c0,0,9,32,21,53c0,0,11,22,27,35c0,0,15,14,36,19c0,0,21,6,48,6h132c0,0,21,0,35,-5c0,0,15,-5,24,-15c0,0,9,-11,14,-25c0,0,5,-15,5,-33V26c0,0,0,-7,-4,-13c0,0,-4,-6,-15,-10c0,0,-11,-3,-29,-5c0,0,-18,-2,-45,-2c0,0,-27,0,-45,2c0,0,-18,2,-28,5c0,0,-11,4,-15,10c0,0,-5,6,-5,13V813h-1L764,27c0,0,-3,-10,-10,-16c0,0,-6,-6,-18,-10c0,0,-12,-3,-29,-4c0,0,-18,-1,-44,-1c0,0,-25,0,-43,2c0,0,-18,2,-29,5c0,0,-12,4,-19,10c0,0,-6,6,-9,14L293,813h-2V26c0,0,0,-7,-4,-13c0,0,-4,-6,-15,-10c0,0,-11,-3,-29,-5c0,0,-17,-2,-45,-2Z" 
id="f0_1x"
transform="scale(0.001,-0.001)" />

<path d="M193,-4c0,0,-26,0,-43,2c0,0,-18,2,-27,6c0,0,-10,4,-14,10c0,0,-3,6,-3,13V895c0,0,0,35,20,53c0,0,21,17,50,17H282c0,0,28,0,47,-5c0,0,20,-5,35,-16c0,0,15,-11,29,-31c0,0,13,-20,27,-49L608,511c0,0,17,-32,33,-63c0,0,16,-31,31,-62c0,0,14,-31,29,-60c0,0,14,-30,27,-60h1c0,0,-2,52,-3,109c0,0,-1,57,-1,108V936c0,0,0,7,4,13c0,0,5,6,15,11c0,0,10,4,28,6c0,0,17,2,44,2c0,0,25,0,42,-2c0,0,17,-2,27,-6c0,0,9,-5,13,-11c0,0,4,-6,4,-13V68c0,0,0,-17,-6,-30c0,0,-6,-14,-17,-23C879,15,869,6,856,2c0,0,-14,-3,-28,-3H744c0,0,-26,0,-45,4c0,0,-19,5,-35,19c0,0,-16,14,-31,38c0,0,-15,23,-34,60L359,572c0,0,-21,40,-43,86c0,0,-21,47,-38,91h-2c0,0,3,-54,5,-107c0,0,2,-53,2,-110V27c0,0,0,-7,-5,-13c0,0,-4,-6,-14,-10c0,0,-10,-4,-27,-6c0,0,-17,-2,-44,-2Z" 
id="f0_1y"
transform="scale(0.001,-0.001)" />

<path d="M378,-4c0,0,-28,0,-47,2c0,0,-19,2,-31,5c0,0,-11,4,-16,10c0,0,-4,6,-4,13V805H38c0,0,-8,0,-13,4c0,0,-5,5,-9,14c0,0,-3,9,-5,25c0,0,-2,15,-2,37c0,0,0,22,2,38c0,0,2,15,5,25c0,0,4,9,9,13c0,0,5,4,13,4H718c0,0,7,0,12,-4c0,0,6,-4,10,-13c0,0,3,-10,5,-25c0,0,2,-16,2,-38c0,0,0,-22,-2,-37c0,0,-2,-16,-5,-25c0,0,-4,-9,-10,-14c0,0,-5,-4,-12,-4H476V26c0,0,0,-7,-5,-13c0,0,-5,-6,-16,-10c0,0,-11,-3,-30,-5c0,0,-19,-2,-47,-2Z" 
id="f0_2t"
transform="scale(0.001,-0.001)" />

<path d="M514,145c0,0,72,0,121,27c0,0,48,26,78,73c0,0,30,46,42,107c0,0,13,62,13,131c0,0,0,76,-12,139c0,0,-12,62,-41,106c0,0,-29,45,-76,69c0,0,-48,24,-120,24c0,0,-72,0,-120,-27c0,0,-49,-27,-79,-73c0,0,-29,-45,-42,-106c0,0,-12,-61,-12,-129c0,0,0,-79,12,-142c0,0,12,-63,40,-108c0,0,28,-44,76,-68c0,0,48,-23,120,-23ZM508,-17c0,0,-113,0,-196,29c0,0,-84,29,-140,90c0,0,-56,60,-84,154c0,0,-28,93,-28,221c0,0,0,117,29,210c0,0,30,94,89,160c0,0,59,65,146,101c0,0,87,35,202,35c0,0,110,0,194,-29c0,0,84,-30,140,-90c0,0,56,-60,85,-153c0,0,29,-92,29,-217c0,0,0,-120,-30,-215c0,0,-30,-95,-89,-161C855,118,796,52,709,17c0,0,-87,-34,-201,-34Z" 
id="f0_24"
transform="scale(0.001,-0.001)" />

<path d="M441,402V711h-3L193,402ZM441,0V227H19V404L457,952H650V402h90V227H650V0Z" 
id="f1_o"
transform="scale(0.001,-0.001)" />

<path d="M44,-281L425,1053H537L156,-281Z" 
id="f1_j"
transform="scale(0.001,-0.001)" />

<path d="M299,0V777H162l36,173H508V0Z" 
id="f1_l"
transform="scale(0.001,-0.001)" />

<path d="M186,-28L17,77L450,779H39V952H793L186,-28Z" 
id="f1_r"
transform="scale(0.001,-0.001)" />

<path d="M536,-22L130,941L17,960v40H421V960L287,941L590,205L892,941L761,960v40h325V960L976,941L574,-22Z" 
id="f2_1m"
transform="scale(0.001,-0.001)" />

<path d="M495,413c0,0,0,133,-34,190c0,0,-34,57,-105,57c0,0,-78,0,-119,-63c0,0,-42,-62,-42,-184ZM374,-14c0,0,-163,0,-239,87c0,0,-75,88,-75,283c0,0,0,183,77,273c0,0,76,91,219,91c0,0,269,0,269,-306V353H194V340c0,0,0,-103,23,-160c0,0,22,-57,70,-87c0,0,47,-29,124,-29c0,0,40,0,96,6c0,0,55,7,91,15V43C598,43,562,20,500,3c0,0,-61,-17,-126,-17Z" 
id="f2_21"
transform="scale(0.001,-0.001)" />

<path d="M31,0V33l88,19V649L31,668v33H235l7,-87c0,0,44,37,121,71c0,0,76,35,121,35h11V530H463l-43,82c0,0,-37,0,-88,-10c0,0,-52,-10,-89,-26V52L363,33V0Z" 
id="f2_2e"
transform="scale(0.001,-0.001)" />

<path d="M32,0V33L151,52V649L52,668v33H275V52L395,33V0ZM201,850c0,0,-32,0,-56,24c0,0,-24,24,-24,56c0,0,0,34,24,58c0,0,24,24,56,24c0,0,34,0,58,-24c0,0,24,-24,24,-58c0,0,0,-32,-24,-56c0,0,-24,-24,-58,-24Z" 
id="f2_25"
transform="scale(0.001,-0.001)" />

<path d="M64,0V34L168,59V639H47v36l121,29v49c0,0,0,155,61,239c0,0,62,84,173,84c0,0,58,0,107,-15V908H472l-33,92c0,0,-26,16,-62,16c0,0,-47,0,-66,-42c0,0,-19,-42,-19,-157V701H478V639H292V59L443,34V0Z" 
id="f2_22"
transform="scale(0.001,-0.001)" />

<path d="M148,-329c0,0,-58,0,-114,13v151H69l24,-71c0,0,23,-17,64,-17c0,0,39,0,72,22c0,0,33,23,60,67c0,0,27,44,68,157L90,649L19,668v33H344V668L233,648L423,158L606,649L497,668v33H758V668L685,652L411,-43c0,0,-48,-124,-84,-177c0,0,-36,-54,-79,-82c0,0,-44,-27,-100,-27Z" 
id="f2_2l"
transform="scale(0.001,-0.001)" />

<path d="M617,0L251,860V60L385,40V0H44V40L172,60V941L44,960v40H347L672,239l355,761h287V960L1185,941V60L1314,40V0H908V40l134,20V859L643,0Z" 
id="f2_1d"
transform="scale(0.001,-0.001)" />

<path d="M284,67c0,0,51,0,88,12c0,0,37,12,74,30V358l-98,-3c0,0,-100,-4,-135,-39c0,0,-35,-35,-35,-117c0,0,0,-132,106,-132ZM233,-14c0,0,-179,0,-179,208c0,0,0,70,27,116c0,0,27,46,87,70c0,0,60,24,173,27l105,3V519c0,0,0,72,-26,107c0,0,-27,34,-82,34c0,0,-75,0,-137,-35L176,538H134V691c0,0,121,26,213,26c0,0,115,0,169,-47c0,0,54,-47,54,-144V52L657,33V0H465L451,70c0,0,-85,-84,-218,-84Z" 
id="f2_1x"
transform="scale(0.001,-0.001)" />

<path d="M439,0V33l93,19V500c0,0,0,62,-30,97c0,0,-31,36,-94,36c0,0,-67,0,-165,-22V52L338,33V0H35V33l84,19V649L35,668v33H235l7,-57c0,0,57,33,122,54c0,0,65,22,108,22c0,0,91,0,137,-53c0,0,47,-53,47,-154V52L741,33V0Z" 
id="f2_2a"
transform="scale(0.001,-0.001)" />

<path d="M31,0V33L150,52v956L31,1026v34H274V52L394,33V0Z" 
id="f2_28"
transform="scale(0.001,-0.001)" />

<path d="M289,-14c0,0,-179,0,-179,205V649L20,668v33H233V200c0,0,0,-128,120,-128c0,0,92,0,173,23V649L420,668v33H649V52L738,33V0H533l-6,57C527,57,474,28,405,7c0,0,-69,-21,-116,-21Z" 
id="f2_2h"
transform="scale(0.001,-0.001)" />

<path d="M249,-14c0,0,-71,0,-107,42c0,0,-35,42,-35,119V639H15v33l93,29l76,159h47V701H391V639H231V161c0,0,0,-48,22,-73c0,0,22,-24,57,-24c0,0,44,0,106,12V26C416,26,389,8,340,-2c0,0,-49,-12,-91,-12Z" 
id="f2_2g"
transform="scale(0.001,-0.001)" />

<path d="M442,0V33l93,19V504c0,0,0,129,-124,129c0,0,-70,0,-168,-22V52L338,33V0H31V33l88,19v956L15,1026v34H243V756c0,0,0,-77,-5,-112c0,0,54,31,122,53c0,0,68,23,115,23c0,0,91,0,137,-53c0,0,47,-53,47,-154V52L744,33V0Z" 
id="f2_24"
transform="scale(0.001,-0.001)" />

<path d="M377,45c0,0,99,0,147,73c0,0,47,73,47,237c0,0,0,161,-47,233c0,0,-47,72,-147,72c0,0,-97,0,-141,-69c0,0,-44,-69,-44,-236c0,0,0,-169,45,-240c0,0,44,-70,140,-70Zm0,-59c0,0,-158,0,-238,94c0,0,-81,95,-81,274c0,0,0,178,81,272c0,0,80,94,244,94c0,0,160,0,241,-92c0,0,82,-92,82,-274c0,0,0,-368,-329,-368Z" 
id="f2_2b"
transform="scale(0.001,-0.001)" />

<path d="M431,0V33L535,52V499c0,0,0,62,-32,96c0,0,-32,33,-95,33c0,0,-66,0,-163,-22V52L350,33V0H32V33l89,19V649L32,668v33H237l6,-57c0,0,56,32,119,54c0,0,62,22,110,22c0,0,52,0,95,-20c0,0,44,-19,66,-62c0,0,57,32,134,57c0,0,77,25,128,25c0,0,179,0,179,-207V52l90,-19V0H846V33L950,52V499c0,0,0,129,-119,129c0,0,-19,0,-45,-3c0,0,-26,-3,-52,-7c0,0,-25,-4,-49,-8c0,0,-23,-5,-39,-8c0,0,13,-41,13,-89V52L764,33V0Z" 
id="f2_29"
transform="scale(0.001,-0.001)" />

<path d="M399,-14c0,0,-341,0,-341,370c0,0,0,175,87,269c0,0,87,95,249,95c0,0,101,0,220,-23V501H573L541,625c0,0,-62,35,-149,35c0,0,-200,0,-200,-304c0,0,0,-158,61,-225c0,0,61,-67,189,-67c0,0,109,0,189,24V43C631,43,595,16,530,1c0,0,-64,-15,-131,-15Z" 
id="f2_1z"
transform="scale(0.001,-0.001)" />

<path d="M460,-325c0,0,-148,79,-231,172c0,0,-84,93,-123,217c0,0,-39,126,-39,304c0,0,0,178,39,303c0,0,39,125,122,217c0,0,82,93,232,172V997c0,0,-91,-52,-145,-134c0,0,-54,-81,-79,-190c0,0,-25,-109,-25,-305c0,0,0,-194,26,-309c0,0,26,-114,82,-193c0,0,56,-79,141,-128v-63Z" 
id="f2_c"
transform="scale(0.001,-0.001)" />

<path d="M49,-325v63c0,0,85,49,140,128c0,0,56,79,83,194c0,0,26,115,26,308c0,0,0,196,-25,305c0,0,-25,109,-79,190c0,0,-54,82,-145,134v63c0,0,149,-80,232,-172c0,0,83,-92,122,-217c0,0,39,-125,39,-303c0,0,0,-177,-39,-303c0,0,-39,-125,-122,-217c0,0,-83,-93,-232,-173Z" 
id="f2_d"
transform="scale(0.001,-0.001)" />

<path d="M67,0V109L206,235c0,0,133,118,196,190c0,0,63,72,90,149c0,0,27,77,27,177c0,0,0,97,-44,148c0,0,-44,50,-144,50c0,0,-39,0,-81,-10c0,0,-42,-11,-74,-29L150,787H101V980c0,0,135,32,230,32c0,0,164,0,247,-68c0,0,82,-69,82,-193c0,0,0,-84,-32,-158c0,0,-33,-75,-100,-148c0,0,-67,-74,-222,-206c0,0,-67,-57,-141,-125H680V0Z" 
id="f2_m"
transform="scale(0.001,-0.001)" />

<path d="M278,-14c0,0,-52,0,-115,11c0,0,-63,10,-99,23V193H98L134,95c0,0,56,-50,146,-50c0,0,144,0,144,123c0,0,0,91,-114,130l-66,21c0,0,-75,25,-110,50c0,0,-34,26,-53,63c0,0,-18,36,-18,89c0,0,0,92,63,145c0,0,63,54,170,54c0,0,77,0,193,-23V544H454l-32,81c0,0,-39,35,-124,35c0,0,-61,0,-92,-30c0,0,-32,-30,-32,-80c0,0,0,-43,29,-72c0,0,28,-29,86,-48c0,0,110,-38,144,-55c0,0,33,-17,57,-42c0,0,23,-25,36,-57c0,0,13,-32,13,-79c0,0,0,-104,-66,-158c0,0,-66,-53,-195,-53Z" 
id="f2_2f"
transform="scale(0.001,-0.001)" />

<path d="M113,-203V1060H454v-35L232,994V-138l222,-30v-35Z" 
id="f2_1r"
transform="scale(0.001,-0.001)" />

<path d="M377,45c0,0,99,0,145,108c0,0,46,109,46,352c0,0,0,240,-45,345c0,0,-46,106,-146,106c0,0,-97,0,-139,-100c0,0,-43,-99,-43,-351c0,0,0,-254,44,-357c0,0,43,-103,138,-103Zm0,-59c0,0,-158,0,-238,132c0,0,-81,133,-81,386c0,0,0,249,81,380c0,0,80,132,244,132c0,0,159,0,241,-130c0,0,82,-130,82,-382c0,0,0,-518,-329,-518Z" 
id="f2_k"
transform="scale(0.001,-0.001)" />

<path d="M58,-234v58c0,0,131,42,131,125c0,0,0,15,-11,27c0,0,-11,12,-38,25C140,1,89,27,89,75c0,0,0,40,25,61c0,0,26,21,65,21c0,0,48,0,77,-34c0,0,30,-34,30,-86c0,0,0,-101,-60,-170c0,0,-59,-69,-168,-101Z" 
id="f2_g"
transform="scale(0.001,-0.001)" />

<path d="M55,-203v35l222,30V994L55,1025v35H395V-203Z" 
id="f2_1t"
transform="scale(0.001,-0.001)" />

<path d="M191,-20c0,0,-39,0,-65,25c0,0,-25,27,-25,64c0,0,0,38,26,64c0,0,26,26,64,26c0,0,38,0,64,-26c0,0,26,-26,26,-64c0,0,0,-37,-25,-64c0,0,-26,-25,-65,-25Z" 
id="f2_i"
transform="scale(0.001,-0.001)" />

<path d="M17,-325L185,639H64l6,36l127,29l9,49c0,0,30,167,100,245c0,0,71,78,191,78c0,0,57,0,104,-15L574,915H538l-14,85c0,0,-22,16,-63,16c0,0,-45,0,-72,-39c0,0,-26,-39,-48,-160L319,701H475L465,639H309L141,-325Z" 
id="f3_22"
transform="scale(0.001,-0.001)" />

<path d="M-6,0c0,0,-12,10,-12,32c0,0,0,21,23,51c0,0,23,31,79,82L287,354L159,649L79,668l6,33H270L378,434l93,88c0,0,47,46,67,72c0,0,19,26,19,44c0,0,0,8,-6,13c0,0,-7,6,-38,17l6,33H651c0,0,16,-12,16,-32c0,0,0,-44,-103,-142L404,377L548,49L634,33L628,0H437L313,298L185,176c0,0,-41,-40,-60,-65c0,0,-19,-26,-19,-48c0,0,0,-21,31,-29L131,0Z" 
id="f3_2k"
transform="scale(0.001,-0.001)" />

<path d="M0,214v74H784V214ZM0,494v72H784V494Z" 
id="f4_x"
transform="scale(0.001,-0.001)" />

<path d="M355,0V355H0v72H355V784h72V427H782V355H427V0Z" 
id="f4_f"
transform="scale(0.001,-0.001)" />

<path d="M140,-21c0,0,-26,0,-44,17C96,-4,79,13,79,40c0,0,0,19,6,33c0,0,8,20,34,55c0,0,46,60,64,126c0,0,32,114,41,321H190c0,0,-55,0,-81,-18c0,0,-44,-26,-80,-89H0c0,0,42,129,98,178c0,0,43,37,120,37H743V575H562c0,0,-27,-171,-27,-327c0,0,0,-77,27,-110c0,0,27,-33,67,-33c0,0,33,0,56,22c0,0,24,22,31,65h27C743,192,730,74,686,26c0,0,-44,-47,-98,-47c0,0,-58,0,-97,51c0,0,-39,53,-39,198c0,0,0,91,28,347H286c0,0,-23,-390,-56,-494c0,0,-33,-102,-90,-102Z" 
id="f4_2c"
transform="scale(0.001,-0.001)" />

<path d="M410,-14c0,0,-86,0,-175,14C235,0,145,14,81,38V307h66L181,146c0,0,31,-37,94,-62c0,0,64,-24,132,-24c0,0,214,0,214,177c0,0,0,55,-41,93c0,0,-41,38,-128,68c0,0,-128,42,-185,68c0,0,-56,27,-95,63c0,0,-38,36,-62,87c0,0,-23,51,-23,125c0,0,0,132,90,201c0,0,90,69,263,69c0,0,125,0,278,-32V741H651L618,878c0,0,-76,56,-178,56c0,0,-92,0,-141,-34c0,0,-49,-34,-49,-104c0,0,0,-50,41,-86c0,0,41,-35,128,-63c0,0,171,-56,235,-97c0,0,64,-41,97,-103c0,0,34,-61,34,-143c0,0,0,-318,-375,-318Z" 
id="f5_1j"
transform="scale(0.001,-0.001)" />

<path d="M379,60c0,0,59,0,84,64c0,0,24,65,24,231c0,0,0,164,-24,227c0,0,-24,63,-84,63c0,0,-57,0,-80,-60c0,0,-22,-61,-22,-230c0,0,0,-173,23,-234c0,0,22,-61,79,-61Zm-2,-74c0,0,-161,0,-240,91c0,0,-79,91,-79,277c0,0,0,186,80,276c0,0,81,90,245,90c0,0,167,0,245,-93c0,0,78,-93,78,-273c0,0,0,-188,-81,-278c0,0,-81,-90,-248,-90Z" 
id="f5_2b"
transform="scale(0.001,-0.001)" />

<path d="M30,0V49l76,18V992l-72,18v50H322V67L398,49V0Z" 
id="f5_28"
transform="scale(0.001,-0.001)" />

<path d="M287,-18c0,0,-194,0,-194,206V634L23,652v49H309V217c0,0,0,-63,26,-98c0,0,27,-35,76,-35c0,0,57,0,113,25V634l-64,18v49H740V67L809,49V0H536L526,61L475,35c0,0,-104,-53,-188,-53Z" 
id="f5_2h"
transform="scale(0.001,-0.001)" />

<path d="M327,-14c0,0,-101,0,-156,45c0,0,-55,45,-55,131V624H25v48l108,29l87,159H332V701H480V624H332V176c0,0,0,-49,20,-73c0,0,20,-25,53,-25c0,0,40,0,97,12V26c0,0,-22,-15,-76,-27c0,0,-55,-13,-99,-13Z" 
id="f5_2g"
transform="scale(0.001,-0.001)" />

<path d="M34,0V49l76,18V634L38,652v49H325V67L402,49V0ZM217,831c0,0,-48,0,-81,33c0,0,-34,33,-34,82c0,0,0,48,34,81c0,0,34,33,81,33c0,0,48,0,81,-33c0,0,33,-33,33,-81c0,0,0,-47,-33,-81c0,0,-32,-34,-81,-34Z" 
id="f5_25"
transform="scale(0.001,-0.001)" />

<path d="M41,0V49l69,18V634L41,652v49H313l11,-61l50,26c0,0,105,54,188,54c0,0,194,0,194,-207V67L827,49V0H478V49l63,18V484c0,0,0,63,-27,98c0,0,-26,35,-75,35c0,0,-57,0,-114,-25V67L389,49V0Z" 
id="f5_2a"
transform="scale(0.001,-0.001)" />

<path d="M248,-20c0,0,-52,0,-87,34c0,0,-36,36,-36,88c0,0,0,52,36,88c0,0,35,36,87,36c0,0,52,0,88,-36c0,0,36,-36,36,-88c0,0,0,-51,-36,-87c0,0,-35,-35,-88,-35Zm0,488c0,0,-52,0,-87,36c0,0,-36,36,-36,88c0,0,0,52,35,88c0,0,35,36,88,36c0,0,53,0,89,-36c0,0,35,-37,35,-88c0,0,0,-51,-36,-87c0,0,-35,-37,-88,-37Z" 
id="f5_u"
transform="scale(0.001,-0.001)" />

<path d="M200,-14c0,0,-59,0,-93,35c0,0,-34,36,-34,100c0,0,0,22,4,51c0,0,4,30,82,467H67l6,33l99,29L275,860h47L295,701H455L443,639H283L210,230c0,0,-13,-69,-13,-99c0,0,0,-34,17,-51c0,0,17,-16,43,-16c0,0,54,0,113,21L386,50c0,0,-92,-64,-186,-64Z" 
id="f3_2g"
transform="scale(0.001,-0.001)" />

<path d="M301,78c0,0,41,0,90,27c0,0,49,28,95,77l81,442c0,0,-26,18,-54,27c0,0,-27,10,-67,10c0,0,-70,0,-131,-55c0,0,-61,-55,-99,-152c0,0,-37,-97,-37,-201c0,0,0,-79,33,-127c0,0,33,-48,89,-48ZM245,-14c0,0,-91,0,-145,68c0,0,-54,69,-54,183c0,0,0,128,55,240c0,0,55,112,150,177c0,0,96,66,210,66c0,0,70,0,123,-18c0,0,3,36,51,306l-115,18l6,34H768L589,52L673,33L667,0H454l22,117C476,117,350,-14,245,-14Z" 
id="f3_20"
transform="scale(0.001,-0.001)" />

<path d="M188,355c0,0,148,11,236,69c0,0,89,58,89,143c0,0,0,41,-23,68c0,0,-22,27,-66,27c0,0,-52,0,-101,-43c0,0,-49,-42,-85,-114c0,0,-36,-71,-50,-150ZM298,-14c0,0,-120,0,-186,67c0,0,-65,67,-65,193c0,0,0,125,53,232c0,0,52,108,145,175c0,0,94,67,196,67c0,0,92,0,147,-42c0,0,56,-43,56,-111c0,0,0,-102,-126,-173c0,0,-125,-72,-336,-86l-3,-54c0,0,0,-95,40,-143c0,0,40,-47,118,-47c0,0,67,0,124,22c0,0,57,23,106,52l22,-32c0,0,-69,-58,-146,-89c0,0,-76,-31,-145,-31Z" 
id="f3_21"
transform="scale(0.001,-0.001)" />

<path d="M0,356v74H784V356Z" 
id="f4_h"
transform="scale(0.001,-0.001)" />

<path d="M-15,-329c0,0,-61,0,-112,13l28,152h34l12,-72c0,0,18,-17,60,-17c0,0,100,0,212,202L253,9L116,649L33,668l6,33H230L338,155L513,458c0,0,48,83,48,144c0,0,0,27,-16,44c0,0,-15,16,-33,22l6,33H659c0,0,20,-17,20,-47c0,0,0,-59,-62,-164L322,-7c0,0,-86,-145,-135,-205c0,0,-50,-61,-98,-89c0,0,-49,-28,-104,-28Z" 
id="f3_2l"
transform="scale(0.001,-0.001)" />

<path d="M359,-270c0,0,124,0,192,46c0,0,67,47,67,129c0,0,0,43,-26,67c0,0,-26,24,-79,24H242c0,0,-32,-27,-51,-69c0,0,-20,-41,-20,-77c0,0,0,-64,46,-92c0,0,46,-28,142,-28Zm11,561c0,0,81,0,115,47c0,0,34,47,34,141c0,0,0,100,-35,142c0,0,-35,42,-113,42c0,0,-78,0,-114,-43c0,0,-37,-42,-37,-141c0,0,0,-98,36,-143c0,0,36,-45,114,-45ZM359,-329c0,0,-143,0,-218,44c0,0,-75,43,-75,125c0,0,0,39,27,78c0,0,26,38,98,89c0,0,-43,14,-72,48c0,0,-29,35,-29,74L208,262c0,0,-118,55,-118,217c0,0,0,115,73,178c0,0,73,63,211,63c0,0,28,0,71,-6c0,0,44,-6,67,-13l165,83l26,-32L599,644c0,0,50,-56,50,-165c0,0,0,-120,-72,-182c0,0,-73,-62,-208,-62c0,0,-62,0,-114,11L208,148c0,0,2,-13,29,-24c0,0,27,-12,67,-12H512c0,0,113,0,168,-49c0,0,55,-49,55,-134c0,0,0,-79,-44,-137c0,0,-43,-58,-128,-90c0,0,-84,-31,-204,-31Z" 
id="f2_23"
transform="scale(0.001,-0.001)" />

<path d="M595,60c0,0,141,0,206,102c0,0,65,102,65,340c0,0,0,236,-65,335c0,0,-65,100,-206,100c0,0,-142,0,-207,-100c0,0,-66,-99,-66,-335c0,0,0,-239,66,-340c0,0,65,-102,207,-102Zm0,-74c0,0,-253,0,-387,130C208,116,75,246,75,501c0,0,0,510,520,510c0,0,256,0,387,-129c0,0,132,-130,132,-381c0,0,0,-254,-133,-385C981,116,848,-14,595,-14Z" 
id="f5_1f"
transform="scale(0.001,-0.001)" />

<path d="M498,506c0,0,115,0,164,47c0,0,48,48,48,166c0,0,0,112,-46,156c0,0,-46,43,-169,43H390V506ZM793,0L514,423H390V74L518,54V0H36V54L154,74V926L26,945v55H504c0,0,221,0,330,-68c0,0,109,-68,109,-212c0,0,0,-215,-201,-276L1009,74L1117,54V0Z" 
id="f5_1i"
transform="scale(0.001,-0.001)" />

<path d="M13,0V34L95,46L325,350L122,649L40,668v33H357V668L264,648L399,446L554,649l-96,19v33H710V668L630,652L433,397L663,50L745,34V0H427V34l94,17L359,299L169,50L266,34V0Z" 
id="f2_2k"
transform="scale(0.001,-0.001)" />

<path d="M76,316v76H787V316Zm0,306v76H787V622Z" 
id="f2_x"
transform="scale(0.001,-0.001)" />

<path d="M392,152V469H76v77H392V863h77V546H787V469H469V152Z" 
id="f2_f"
transform="scale(0.001,-0.001)" />

<path d="M412,-328c0,0,-195,96,-303,284C109,-44,0,142,0,365c0,0,0,232,114,422c0,0,114,191,298,273v-31c0,0,-92,-51,-151,-139c0,0,-59,-88,-88,-223c0,0,-29,-136,-29,-282c0,0,0,-167,27,-301c0,0,26,-133,82,-221c0,0,55,-89,159,-159v-32Z" 
id="f4_c"
transform="scale(0.001,-0.001)" />

<path d="M34,-328v32c0,0,92,50,151,138c0,0,59,88,88,222c0,0,29,135,29,283c0,0,0,165,-27,300c0,0,-26,134,-82,222c0,0,-56,89,-159,160v31c0,0,194,-96,303,-284c0,0,108,-187,108,-410c0,0,0,-232,-114,-422c0,0,-114,-191,-297,-272Z" 
id="f4_d"
transform="scale(0.001,-0.001)" />

<path d="M383,64c0,0,85,0,152,28V645c0,0,-67,13,-152,13c0,0,-194,0,-194,-314c0,0,0,-141,48,-211c0,0,48,-69,146,-69ZM342,-14c0,0,-287,0,-287,358c0,0,0,184,82,280c0,0,81,96,239,96c0,0,81,0,163,-18c0,0,-4,25,-4,124v182l-118,18v34H659V52L745,33V0H548l-9,52c0,0,-84,-66,-197,-66Z" 
id="f2_20"
transform="scale(0.001,-0.001)" />

<path d="M376,50c0,0,103,0,149,80c0,0,46,81,46,240c0,0,0,137,-47,204c0,0,-48,67,-148,67c0,0,-44,0,-87,-7c0,0,-44,-8,-63,-17V62c0,0,63,-12,150,-12Zm3,-64c0,0,-64,0,-141,14c0,0,-78,14,-136,37v971L0,1026v34H226V809c0,0,0,-40,-4,-148c0,0,74,59,188,59c0,0,143,0,219,-87c0,0,77,-87,77,-263c0,0,0,-189,-84,-287c0,0,-84,-97,-243,-97Z" 
id="f2_1y"
transform="scale(0.001,-0.001)" />

<path d="M313,-123V908c0,0,0,111,-11,190c0,0,-11,80,-46,133c0,0,-35,54,-94,93c0,0,-59,39,-141,58v33c0,0,189,-25,276,-126c0,0,88,-101,88,-304V-123Z" 
id="f4_5a"
transform="scale(0.001,-0.001)" />

<path d="M0,-123V1415H73V-123Z" 
id="f4_4x"
transform="scale(0.001,-0.001)" />

<path d="M313,-123V203c0,0,0,108,22,188c0,0,23,81,62,127c0,0,39,47,95,76c0,0,56,29,153,50c0,0,-98,22,-158,53c0,0,-60,32,-99,82c0,0,-39,50,-57,124c0,0,-18,74,-18,181v331h72V1099c0,0,0,-200,67,-291c0,0,68,-92,227,-135V616c0,0,-159,-44,-227,-136c0,0,-67,-92,-67,-292V-123Z" 
id="f4_5b"
transform="scale(0.001,-0.001)" />

<path d="M21,-123v33c0,0,111,26,178,86c0,0,67,58,90,134c0,0,24,77,24,253V1415h72V306c0,0,0,-203,-88,-304C297,2,210,-99,21,-123Z" 
id="f4_5c"
transform="scale(0.001,-0.001)" />

<path d="M83,0C83,0,48,0,24,24C24,24,0,49,0,83c0,0,0,34,24,58c0,0,24,24,59,24c0,0,34,0,58,-24c0,0,24,-24,24,-58c0,0,0,-34,-24,-59C141,24,117,0,83,0ZM695,0c0,0,-34,0,-58,24c0,0,-25,25,-25,59c0,0,0,34,25,58c0,0,24,24,58,24c0,0,34,0,58,-24c0,0,24,-24,24,-58c0,0,0,-34,-24,-59C753,24,729,0,695,0ZM388,594c0,0,-34,0,-59,23c0,0,-24,24,-24,59c0,0,0,34,24,58c0,0,25,25,59,25c0,0,34,0,58,-25c0,0,24,-24,24,-58c0,0,0,-35,-24,-59c0,0,-24,-23,-58,-23Z" 
id="f4_1s"
transform="scale(0.001,-0.001)" />

<path d="M360,-14L72,649L0,668v33H327V668L216,648L420,164L615,649L504,668v33H764V668L697,652L416,-14Z" 
id="f2_2i"
transform="scale(0.001,-0.001)" />

<path d="M382,45c0,0,188,0,188,314c0,0,0,143,-47,213c0,0,-46,69,-141,69c0,0,-87,0,-146,-24V58c0,0,67,-13,146,-13ZM25,-325v35l88,18V649L34,668v33H231l1,-41c0,0,31,27,84,43c0,0,53,17,107,17c0,0,134,0,208,-94c0,0,73,-93,73,-267c0,0,0,-178,-80,-276c0,0,-80,-97,-232,-97c0,0,-84,0,-160,16c0,0,4,-53,4,-84V-272l123,-18v-35Z" 
id="f2_2c"
transform="scale(0.001,-0.001)" />

<path d="M0,598L23,819c0,0,10,95,20,127c0,0,14,47,39,68c0,0,26,20,58,20c0,0,27,0,43,-14c0,0,15,-15,15,-39c0,0,0,-17,-7,-38c0,0,-10,-28,-55,-124L33,598Z" 
id="f4_2s"
transform="scale(0.001,-0.001)" />

<path d="M298,-14c0,0,-120,0,-185,69c0,0,-66,69,-66,191c0,0,0,130,52,237c0,0,52,107,149,172c0,0,97,65,203,65c0,0,53,0,112,-12c0,0,60,-11,99,-27L628,485H587L575,615c0,0,-47,47,-125,47c0,0,-72,0,-134,-53c0,0,-62,-53,-100,-147c0,0,-37,-95,-37,-208c0,0,0,-190,154,-190c0,0,106,0,222,74l22,-32c0,0,-60,-56,-135,-88c0,0,-76,-32,-144,-32Z" 
id="f3_1z"
transform="scale(0.001,-0.001)" />

<path d="M945,-20c0,0,47,75,125,153H57v74H1147l108,91c0,0,23,19,95,72c0,0,-134,103,-203,166H57v72H1070c0,0,-78,78,-125,154h85c0,0,88,-107,217,-217c0,0,130,-110,206,-154V349c0,0,-101,-58,-219,-162c0,0,-118,-103,-204,-207Z" 
id="f4_4g"
transform="scale(0.001,-0.001)" />

<path d="M-12,338v55H777V338Z" 
id="f6_4y"
transform="scale(0.001,-0.001)" />

<path d="M134,0V40L339,60V876L137,804v39l292,166h39V60L672,40V0Z" 
id="f2_l"
transform="scale(0.001,-0.001)" />

<path d="M350,-14c0,0,-142,0,-269,31L73,228h49L156,87c0,0,29,-16,82,-28c0,0,54,-12,100,-12c0,0,117,0,173,54c0,0,56,53,56,178c0,0,0,99,-52,150c0,0,-51,51,-159,56l-107,6v61l107,7c0,0,84,5,124,52c0,0,41,48,41,145c0,0,0,101,-44,147c0,0,-44,45,-139,45c0,0,-40,0,-83,-10c0,0,-43,-11,-76,-29L153,786H104V979c0,0,74,19,127,26c0,0,54,6,107,6c0,0,321,0,321,-246c0,0,0,-104,-57,-165c0,0,-57,-62,-162,-77c0,0,136,-16,200,-78c0,0,64,-62,64,-173c0,0,0,-135,-92,-211c0,0,-93,-75,-262,-75Z" 
id="f2_n"
transform="scale(0.001,-0.001)" />

<path d="M398,0C398,0,266,0,185,39c0,0,-82,39,-133,124C52,163,0,248,0,342c0,0,0,144,103,243c0,0,103,98,292,98H694V611H387c0,0,-99,0,-166,-32c0,0,-68,-32,-105,-88c0,0,-26,-40,-41,-113H694V304H75c0,0,30,-120,103,-176c0,0,73,-56,210,-56H694V0Z" 
id="f4_40"
transform="scale(0.001,-0.001)" />

<path d="M44,0V40L172,60V941L44,960v40H445V960L316,941V549H787V941L659,960v40h400V960L930,941V60L1059,40V0H659V40L787,60V481H316V60L445,40V0Z" 
id="f2_18"
transform="scale(0.001,-0.001)" />

<path d="M122,0V64L295,82V837L123,780v64l282,165H511V82L685,64V0Z" 
id="f5_l"
transform="scale(0.001,-0.001)" />

<path d="M379,60c0,0,55,0,82,103c0,0,26,104,26,342c0,0,0,233,-26,335c0,0,-26,102,-82,102c0,0,-55,0,-79,-99c0,0,-23,-99,-23,-338c0,0,0,-244,24,-345c0,0,24,-100,78,-100Zm-2,-74c0,0,-158,0,-238,132c0,0,-81,133,-81,386c0,0,0,249,81,380c0,0,80,132,244,132c0,0,159,0,241,-130c0,0,82,-130,82,-382c0,0,0,-518,-329,-518Z" 
id="f5_k"
transform="scale(0.001,-0.001)" />

<path d="M191,-20c0,0,-51,0,-88,34c0,0,-36,36,-36,88c0,0,0,52,36,88c0,0,36,36,88,36c0,0,51,0,88,-36c0,0,36,-36,36,-88c0,0,0,-51,-36,-87c0,0,-36,-35,-88,-35Z" 
id="f5_i"
transform="scale(0.001,-0.001)" />

<path d="M410,-14c0,0,-80,0,-162,14c0,0,-81,14,-144,38V270h48L178,134c0,0,28,-35,95,-62c0,0,68,-27,134,-27c0,0,104,0,163,53c0,0,58,54,58,148c0,0,0,54,-23,89c0,0,-22,35,-59,59c0,0,-37,24,-84,41c0,0,-47,17,-97,34c0,0,-49,17,-96,38c0,0,-47,21,-84,53c0,0,-37,32,-60,79c0,0,-23,48,-23,117c0,0,0,119,90,187c0,0,89,68,248,68c0,0,121,0,263,-32V771H654L628,893c0,0,-76,55,-188,55c0,0,-100,0,-156,-40c0,0,-56,-41,-56,-112c0,0,0,-49,22,-81c0,0,23,-32,60,-55c0,0,37,-22,84,-39c0,0,48,-16,97,-34c0,0,50,-17,97,-39c0,0,48,-22,85,-56c0,0,36,-34,59,-83c0,0,23,-49,23,-120c0,0,0,-145,-89,-224c0,0,-89,-79,-256,-79Z" 
id="f2_1j"
transform="scale(0.001,-0.001)" />

<path d="M327,-14L84,649L1,668v33H335V668L219,648L385,174L554,632h63L786,171L944,649L830,668v33h267V668l-78,-16L784,-14H726L553,448L382,-14Z" 
id="f2_2j"
transform="scale(0.001,-0.001)" />

<path d="M211,-20c0,0,-39,0,-64,25c0,0,-26,27,-26,64c0,0,0,38,26,64c0,0,26,26,64,26c0,0,37,0,64,-25c0,0,26,-26,26,-65c0,0,0,-37,-26,-64c0,0,-26,-25,-64,-25Zm0,556c0,0,-38,0,-64,26c0,0,-26,26,-26,64c0,0,0,37,26,64c0,0,25,27,64,27c0,0,38,0,64,-27c0,0,26,-27,26,-64c0,0,0,-38,-26,-64c0,0,-27,-26,-64,-26Z" 
id="f2_u"
transform="scale(0.001,-0.001)" />

<path d="M0,-123V985c0,0,0,202,88,304c0,0,88,101,278,126v-33c0,0,-112,-27,-179,-86c0,0,-67,-59,-91,-136c0,0,-24,-76,-24,-252V-123Z" 
id="f4_4u"
transform="scale(0.001,-0.001)" />

<path d="M130,0L252,216H0v70H292L410,496H0v70H450L572,783h82L532,566H783V496H492L377,286H783V216H335L213,0Z" 
id="f4_3f"
transform="scale(0.001,-0.001)" />

<path d="M293,-123V191c0,0,0,200,-67,292c0,0,-67,92,-226,135v57c0,0,159,44,226,135c0,0,67,92,67,292v313h73V1088c0,0,0,-108,-23,-189c0,0,-22,-80,-61,-127c0,0,-39,-46,-95,-75c0,0,-56,-28,-153,-51c0,0,97,-21,157,-52c0,0,61,-31,99,-82c0,0,39,-51,57,-125c0,0,19,-74,19,-180V-123Z" 
id="f4_4v"
transform="scale(0.001,-0.001)" />

<path d="M679,-123c0,0,-190,24,-278,124c0,0,-88,101,-88,305V1415h72V383c0,0,0,-111,12,-191c0,0,11,-79,46,-133c0,0,35,-53,94,-91c0,0,59,-39,142,-58v-33Z" 
id="f4_4w"
transform="scale(0.001,-0.001)" />


</defs>
</svg>