<?xml version="1.0" encoding="UTF-8" standalone="no"?>
<!DOCTYPE svg PUBLIC "-//W3C//DTD SVG 1.1//EN"
"http://www.w3.org/Graphics/SVG/1.1/DTD/svg11.dtd">
<svg viewBox="0 0 909 1286" version="1.1" xmlns="http://www.w3.org/2000/svg" xmlns:xlink="http://www.w3.org/1999/xlink">
<defs>
<clipPath id="c0_4"><path d="M217.6,205.1V175.2h5.5v29.9Z" /></clipPath>
<clipPath id="c1_4"><path d="M150.3,389.2V361.1h6.6v28.1Z" /></clipPath>
<clipPath id="c2_4"><path d="M296.1,389.2V361.1h6.6v28.1Z" /></clipPath>
<clipPath id="c3_4"><path d="M183.5,622.5V595.8h4.6v26.7Z" /></clipPath>
<clipPath id="c4_4"><path d="M225,622.5V595.8h4.5v26.7Z" /></clipPath>
<clipPath id="c5_4"><path d="M266.6,622.5V595.8h4.5v26.7Z" /></clipPath>
<clipPath id="c6_4"><path d="M306.5,622.5V595.8h4.6v26.7Z" /></clipPath>
<clipPath id="c7_4"><path d="M346.7,622.5V595.8h4.6v26.7Z" /></clipPath>
<clipPath id="c8_4"><path d="M146.9,623.8v-28h5.8v28Z" /></clipPath>
<clipPath id="c9_4"><path d="M351.3,623.8v-28h5.8v28Z" /></clipPath>
<clipPath id="c10_4"><path d="M181.3,698.3V670.2h6.6v28.1Z" /></clipPath>
<clipPath id="c11_4"><path d="M272.2,698.3V670.2h6.7v28.1Z" /></clipPath>
<clipPath id="c12_4"><path d="M186.3,734.4V707.6h5.3v26.8Z" /></clipPath>
<clipPath id="c13_4"><path d="M422,954.9V927.8h6.5v27.1Z" /></clipPath>
<style type="text/css"><![CDATA[
.g0_4{
fill: none;
stroke: #FFFFFF;
stroke-width: 0.77000004;
stroke-linecap: round;
stroke-linejoin: round;
}
.g1_4{
fill: #FFFFFF;
}
.g2_4{
fill: none;
stroke: #000000;
stroke-width: 0.90444446;
stroke-linecap: round;
stroke-linejoin: round;
}
.g3_4{
fill: none;
stroke: #000000;
stroke-width: 0.9029167;
stroke-linecap: round;
stroke-linejoin: round;
}
.g4_4{
fill: none;
stroke: #000000;
stroke-width: 0.8998611;
stroke-linecap: round;
stroke-linejoin: round;
}
.g5_4{
fill: none;
stroke: #000000;
stroke-width: 0.9075001;
stroke-linecap: round;
stroke-linejoin: round;
}
.g6_4{
fill: none;
stroke: #000000;
stroke-width: 0.91208345;
stroke-linecap: round;
stroke-linejoin: round;
}
.g7_4{
fill: none;
stroke: #000000;
stroke-width: 0.18333334;
stroke-linecap: butt;
stroke-linejoin: miter;
stroke-miterlimit: 2;
}
.g8_4{
}
]]></style>
</defs>
<path d="M542.7,525.3l7.5,9.7l5.1,9.5l4.4,9.5l2,7.7l1.1,8.5l1,6.9l-1,7.5l-2.1,5.9l-2,5.6l-3.4,5.7l-3.1,4.8l-3,4.9l-7.5,6.7l-7.2,4.6L524,629.5l-8.5,5.9L505,642l-14.7,8.5l-8.2,5.9l-7.4,5.7l-6.2,6.6l-6.4,7.7l-4.1,6.7l-4.4,7.7l-3.1,7.7l-2,6.7l-3.1,-12.6l-2.1,-11.3L441,669.8V659.2l1.1,-8.7l2.3,-8.5l3,-4.8l2.1,-3.9l4.1,-3.8l4.4,-3.6l16.7,-12.6l16.7,-9.5L506,595.1l14.9,-8.5l6.2,-4.9l5.4,-6.6l4.1,-6.7l4.1,-7.7l2,-7.7l2.3,-8.5V535l-2.3,-9.7" class="g0_4" />
<path fill-rule="evenodd" d="M279.7,577.9L310,574l1.1,9.8v9.5l-1.1,1l-1,1.8l-2,1.8h-2.1l-2.1,1h-3.3l-2,-1l-2.1,-1.8l-2.1,-2.8l-11.5,9.5l-1,-9.5l11.5,-8.7l-11.5,1l-1.1,-7.7Zm16.7,5.9v1.8l1.1,2l1,1.8l1,1.1h3.3l1.1,-1.1l1,-1.8v-4.8l-8.5,1Zm2.1,36.2l2,8.7L310,622l1.1,-1h1l1,-1H298.5Zm-14.7,-7.7l32.7,1l3,10.5l-26.2,20l-2,-8.4l4.1,-2.8L292.3,620h-5.4l-3.1,-7.7ZM329,673.6l-2.3,.8l-3,1l-3.1,1l-3.1,-1l-3.3,-1l-3.1,-.8L309,670.8l-2,-2.1l-2.1,-3.8l-1,-2.8v-6.7l1,-2.8l2.1,-2.9l1,-3l3.1,-1.8l2,-1.8l3.4,-1.1h6.1l3.1,1.1l3.3,1.8l2.1,1.8l2.1,3l2,2.9l1,2.8v6.7l-1,3.8l-1,2.8l-2.1,2.1l-3.1,2.8Zm-16.9,-9.5l3.3,2.8l3.1,.8h3.1l3.1,-1.8l2,-2.8l2.3,-2.8v-3.9l-1,-2.8l-2.3,-2.1l-3.1,-1h-4.1l-3.1,1l-2.3,2.9l-2,2.8V661l1,3.1ZM343.7,709l18.7,-25.9l6.5,5.7l-19.1,25.9L343.7,709Zm20.8,15.2l14.9,-28.8l7.2,4.9L371.9,728l-7.4,-3.8Zm26.2,12.6l7.4,-23.1L392,710.8l3,-6.6l19.8,7.7l-2,6.6l-6.2,-2l-8.5,23.1l-7.4,-2.8Zm58.8,-1.1H458l-4.4,-10.5v-2.8l-1,-2.1v3.9l-1,1l-2.1,10.5Zm-11.6,11.6l9.5,-31.6H458l11.5,31.6H461l-2,-5.9H447.4l-1,5.9h-8.5ZM494.7,709l2.1,9.5l-2.1,-2h-5.4l-3.1,1l-2,2.8l-1.1,3.9l1.1,2.8l1,3.9l2.1,2l3,.8h3.1l2.3,-.8l1.1,-1l2,-1l1,-2.9l2.1,9.5l-1,1.1l-2.1,2l-2,.8h-2.1l-2.3,1h-4.1l-2.1,-1l-4.1,-1.8l-2.3,-2.8l-3.1,-3.1l-1,-3.6l-1,-3.9v-3l1,-3.6l1,-3.1l2.1,-2.8l2.3,-1.8l2,-1.1l3.1,-1.8h8.5Zm22.9,10.6l7.4,-4.9L517.6,707h-1.1v-1l-1,-.8l-1,-1v1l1,.8v2l2.1,11.6Zm-5.2,15.1l-4.1,-33.4l8.2,-4.8l24.2,23.8l-7.2,3.9l-4.4,-4.6l-10.5,5.6l1.3,5.7l-7.5,3.8Zm37.8,-22.1L529.1,689.8l5.4,-4.9l4.1,-4.6l3.1,-2.1l3.3,-1.8h6.2l3.1,1.1l3.1,.7l3.3,3.1l2.1,3.6l1,3.1l1,3.8v3.6l-1,2.1l-1,2.8l-3.1,2.8l-3.4,3.9l-1,1l-5.1,4.6Zm2,-11.3l1.1,-1l2,-2.8l1,-3.9v-2.8l-2,-2.8l-3.1,-3.1l-3.1,-.8l-3.1,.8l-3.3,3.1l-1,.8l11.5,12.5Zm28.3,-20L555.3,663.1l11.6,-16.4l5.4,3.8l-6.5,9.8l4.1,2.8l6.5,-8.7l5.1,3.8l-6.2,8.7l4.1,3.9l6.5,-9.8l6.1,4.9l-11.5,15.4Zm32.6,-63.1l-3.1,7.7L596.4,622h-1.3l-1,-1L592,620h-2l2,1l2.1,1.8l1,1l11.6,9.5l-2.1,4.9l-14.6,-1h-1l-3.1,-1.1h-2.1l2.1,1.1h1l2.1,1l1,1l11.5,7.5l-3,6.9L572.3,637.2l3,-7.7l16.7,1v1h4.4h-1.3l-1,-1l-1,-1l-1.1,-.8L579.4,618.2l3.1,-7.7l30.6,7.7Zm2.1,-21.1l-13.7,-2l-17.7,8.7l1,-9.5l8.3,-3.1l2,-.7h1.3l-1.3,-1.1h-1l-1,-1l-6.2,-4.6l1,-10.5l14.7,14.3l13.6,1.8l-1,7.7Z" class="g1_4" />
<path d="M179.7,111.2h10.9m47.6,0h10.9" class="g2_4" />
<g fill="#000000" >
<use xlink:href="#f0_n" transform="matrix(6.9,0,0,6.9,370.3,107.7)" />
<use xlink:href="#f0_l" transform="matrix(11.9,0,0,11.9,180.6,104.3)" />
<use xlink:href="#f0_l" transform="matrix(11.9,0,0,11.9,239,104.3)" />
<use xlink:href="#f0_11" transform="matrix(11.9,0,0,11.9,121.7,115.8)" />
<use xlink:href="#f0_28" transform="matrix(11.9,0,0,11.9,134.8,115.8)" />
<use xlink:href="#f0_2f" transform="matrix(11.9,0,0,11.9,139.5,115.8)" />
<use xlink:href="#f0_2b" transform="matrix(11.9,0,0,11.9,146.7,115.8)" />
<use xlink:href="#f0_g" transform="matrix(11.9,0,0,11.9,155.8,115.8)" />
<use xlink:href="#f0_2k" transform="matrix(11.9,0,0,11.9,209.9,115.8)" />
<use xlink:href="#f0_l" transform="matrix(11.9,0,0,11.9,290.4,115.8)" />
<use xlink:href="#f0_n" transform="matrix(11.9,0,0,11.9,315.7,115.8)" />
<use xlink:href="#f0_2k" transform="matrix(11.9,0,0,11.9,324.8,115.8)" />
<use xlink:href="#f0_o" transform="matrix(11.9,0,0,11.9,350.3,115.8)" />
<use xlink:href="#f0_2k" transform="matrix(11.9,0,0,11.9,360.2,115.8)" />
<use xlink:href="#f0_l" transform="matrix(11.9,0,0,11.9,391.5,115.8)" />
<use xlink:href="#f0_m" transform="matrix(11.9,0,0,11.9,180.9,129.9)" />
<use xlink:href="#f0_m" transform="matrix(11.9,0,0,11.9,239.4,129.9)" />
<use xlink:href="#f1_h" transform="matrix(11.9,0,0,11.9,166.3,115.8)" />
<use xlink:href="#f1_2t" transform="matrix(11.9,0,0,11.9,195.2,115.8)" />
<use xlink:href="#f1_2t" transform="matrix(11.9,0,0,11.9,223.7,115.8)" />
<use xlink:href="#f1_4g" transform="matrix(11.9,0,0,11.9,255.2,115.8)" />
<use xlink:href="#f1_h" transform="matrix(11.9,0,0,11.9,279.2,115.8)" />
<use xlink:href="#f1_2t" transform="matrix(11.9,0,0,11.9,301.9,115.8)" />
<use xlink:href="#f1_h" transform="matrix(11.9,0,0,11.9,337.1,115.8)" />
<use xlink:href="#f1_2t" transform="matrix(11.9,0,0,11.9,379.3,115.8)" />
<use xlink:href="#f0_n" transform="matrix(6.9,0,0,6.9,256.3,153.2)" />
<use xlink:href="#f0_2f" transform="matrix(12,0,0,12,141,161.3)" />
<use xlink:href="#f0_25" transform="matrix(12,0,0,12,148.1,161.3)" />
<use xlink:href="#f0_2a" transform="matrix(12,0,0,12,153.4,161.3)" />
<use xlink:href="#f0_n" transform="matrix(12,0,0,12,165.1,161.3)" />
<use xlink:href="#f0_n" transform="matrix(12,0,0,12,201,161.3)" />
<use xlink:href="#f0_2k" transform="matrix(12,0,0,12,210.2,161.3)" />
<use xlink:href="#f0_o" transform="matrix(12,0,0,12,236.2,161.3)" />
<use xlink:href="#f0_2k" transform="matrix(12,0,0,12,246.1,161.3)" />
<use xlink:href="#f1_1s" transform="matrix(12,0,0,12,119,161.3)" />
<use xlink:href="#f1_2d" transform="matrix(12,0,0,12,173.8,161.3)" />
<use xlink:href="#f1_x" transform="matrix(12,0,0,12,187.3,161.3)" />
<use xlink:href="#f1_h" transform="matrix(12,0,0,12,223.1,161.3)" />
</g>
<g clip-path="url(#c0_4)">
<g fill="#000000" >
<use xlink:href="#f1_c" transform="matrix(11.8,0,0,18.8,217.6,198.7)" />
</g>
</g>
<g fill="#000000" >
<use xlink:href="#f1_d" transform="matrix(11.8,0,0,18.8,287.7,198.7)" />
<use xlink:href="#f0_l" transform="matrix(6.9,0,0,6.9,209.2,188.2)" />
<use xlink:href="#f0_n" transform="matrix(6.9,0,0,6.9,279.8,188.2)" />
<use xlink:href="#f0_n" transform="matrix(11.9,0,0,11.9,144.7,196.5)" />
<use xlink:href="#f0_2f" transform="matrix(11.9,0,0,11.9,180.6,196.5)" />
<use xlink:href="#f0_25" transform="matrix(11.9,0,0,11.9,187.7,196.5)" />
<use xlink:href="#f0_2a" transform="matrix(11.9,0,0,11.9,193,196.5)" />
<use xlink:href="#f0_n" transform="matrix(11.9,0,0,11.9,224.5,196.5)" />
<use xlink:href="#f0_2k" transform="matrix(11.9,0,0,11.9,233.7,196.5)" />
<use xlink:href="#f0_o" transform="matrix(11.9,0,0,11.9,259.7,196.5)" />
<use xlink:href="#f0_2k" transform="matrix(11.9,0,0,11.9,269.6,196.5)" />
<use xlink:href="#f1_h" transform="matrix(6.9,0,0,6.9,203.5,188.2)" />
<use xlink:href="#f1_4g" transform="matrix(11.9,0,0,11.9,121.2,196.5)" />
<use xlink:href="#f1_2d" transform="matrix(11.9,0,0,11.9,153.3,196.5)" />
<use xlink:href="#f1_x" transform="matrix(11.9,0,0,11.9,166.8,196.5)" />
<use xlink:href="#f1_h" transform="matrix(11.9,0,0,11.9,246.5,196.5)" />
<use xlink:href="#f2_4g" transform="matrix(11.8,0,0,11.8,126.8,233.9)" />
<use xlink:href="#f0_n" transform="matrix(11.8,0,0,11.8,144.7,233.9)" />
<use xlink:href="#f0_2f" transform="matrix(11.8,0,0,11.8,154.9,233.9)" />
<use xlink:href="#f0_25" transform="matrix(11.8,0,0,11.8,162,233.9)" />
<use xlink:href="#f0_2a" transform="matrix(11.8,0,0,11.8,167,233.9)" />
<use xlink:href="#f2_h" transform="matrix(6.8,0,0,6.8,177.4,225.8)" />
<use xlink:href="#f0_l" transform="matrix(6.8,0,0,6.8,183.2,225.8)" />
<use xlink:href="#f0_2k" transform="matrix(11.8,0,0,11.8,192.3,233.9)" />
<use xlink:href="#f2_x" transform="matrix(11.8,0,0,11.8,210.1,233.9)" />
<use xlink:href="#f0_2f" transform="matrix(11.8,0,0,11.8,220,233.9)" />
<use xlink:href="#f0_25" transform="matrix(11.8,0,0,11.8,227,233.9)" />
<use xlink:href="#f0_2a" transform="matrix(11.8,0,0,11.8,232.1,233.9)" />
<use xlink:href="#f2_h" transform="matrix(6.8,0,0,6.8,242.6,225.8)" />
<use xlink:href="#f0_l" transform="matrix(6.8,0,0,6.8,248.3,225.8)" />
<use xlink:href="#f2_c" transform="matrix(11.8,0,0,18.7,256.6,236.3)" />
<use xlink:href="#f0_n" transform="matrix(11.8,0,0,11.8,262.6,233.9)" />
<use xlink:href="#f0_2k" transform="matrix(11.8,0,0,11.8,271.6,233.9)" />
<use xlink:href="#f2_h" transform="matrix(11.8,0,0,11.8,287.5,233.9)" />
<use xlink:href="#f0_o" transform="matrix(11.8,0,0,11.8,297.5,233.9)" />
<use xlink:href="#f0_2k" transform="matrix(11.8,0,0,11.8,306.5,233.9)" />
<use xlink:href="#f0_n" transform="matrix(6.8,0,0,6.8,316.8,225.8)" />
<use xlink:href="#f2_d" transform="matrix(11.8,0,0,18.7,324.7,236.3)" />
<use xlink:href="#f0_t" transform="matrix(12,0,0,12,64.9,319.7)" />
<use xlink:href="#f0_i" transform="matrix(12,0,0,12,74.1,319.7)" />
<use xlink:href="#f0_11" transform="matrix(12,0,0,12,121.9,319.7)" />
<use xlink:href="#f0_1y" transform="matrix(12,0,0,12,136.8,319.7)" />
<use xlink:href="#f0_28" transform="matrix(12,0,0,12,145.6,319.7)" />
<use xlink:href="#f0_1x" transform="matrix(12,0,0,12,150.3,319.7)" />
<use xlink:href="#f0_1z" transform="matrix(12,0,0,12,158,319.7)" />
<use xlink:href="#f0_27" transform="matrix(12,0,0,12,165.7,319.7)" />
<use xlink:href="#f0_1x" transform="matrix(12,0,0,12,177.5,319.7)" />
<use xlink:href="#f0_2a" transform="matrix(12,0,0,12,185.2,319.7)" />
<use xlink:href="#f0_20" transform="matrix(12,0,0,12,194,319.7)" />
<use xlink:href="#f0_1x" transform="matrix(12,0,0,12,205.9,319.7)" />
<use xlink:href="#f0_2e" transform="matrix(12,0,0,12,216.7,319.7)" />
<use xlink:href="#f0_21" transform="matrix(12,0,0,12,222.4,319.7)" />
<use xlink:href="#f0_20" transform="matrix(12,0,0,12,230.1,319.7)" />
<use xlink:href="#f0_20" transform="matrix(12,0,0,12,242,319.7)" />
<use xlink:href="#f0_25" transform="matrix(12,0,0,12,250.8,319.7)" />
<use xlink:href="#f0_21" transform="matrix(12,0,0,12,255.6,319.7)" />
<use xlink:href="#f0_1x" transform="matrix(12,0,0,12,266.2,319.7)" />
<use xlink:href="#f0_2e" transform="matrix(12,0,0,12,273.9,319.7)" />
<use xlink:href="#f0_21" transform="matrix(12,0,0,12,279.6,319.7)" />
<use xlink:href="#f0_2e" transform="matrix(12,0,0,12,290.4,319.7)" />
<use xlink:href="#f0_2b" transform="matrix(12,0,0,12,296.1,319.7)" />
<use xlink:href="#f0_28" transform="matrix(12,0,0,12,304.9,319.7)" />
<use xlink:href="#f0_28" transform="matrix(12,0,0,12,309.6,319.7)" />
<use xlink:href="#f0_21" transform="matrix(12,0,0,12,314.4,319.7)" />
<use xlink:href="#f0_20" transform="matrix(12,0,0,12,322.1,319.7)" />
<use xlink:href="#f0_2g" transform="matrix(12,0,0,12,334,319.7)" />
<use xlink:href="#f0_2b" transform="matrix(12,0,0,12,338.8,319.7)" />
<use xlink:href="#f0_23" transform="matrix(12,0,0,12,347.6,319.7)" />
<use xlink:href="#f0_21" transform="matrix(12,0,0,12,356.2,319.7)" />
<use xlink:href="#f0_2g" transform="matrix(12,0,0,12,363.9,319.7)" />
<use xlink:href="#f0_24" transform="matrix(12,0,0,12,368.7,319.7)" />
<use xlink:href="#f0_21" transform="matrix(12,0,0,12,377.5,319.7)" />
<use xlink:href="#f0_2e" transform="matrix(12,0,0,12,385.2,319.7)" />
<use xlink:href="#f0_i" transform="matrix(12,0,0,12,389.8,319.7)" />
<use xlink:href="#f0_16" transform="matrix(12,0,0,12,397.1,319.7)" />
<use xlink:href="#f0_25" transform="matrix(12,0,0,12,406.8,319.7)" />
<use xlink:href="#f0_2a" transform="matrix(12,0,0,12,411.6,319.7)" />
<use xlink:href="#f0_20" transform="matrix(12,0,0,12,420.4,319.7)" />
<use xlink:href="#f0_2g" transform="matrix(12,0,0,12,432.1,319.7)" />
<use xlink:href="#f0_24" transform="matrix(12,0,0,12,436.9,319.7)" />
<use xlink:href="#f0_21" transform="matrix(12,0,0,12,445.7,319.7)" />
<use xlink:href="#f0_1z" transform="matrix(12,0,0,12,456.5,319.7)" />
<use xlink:href="#f0_2b" transform="matrix(12,0,0,12,464.2,319.7)" />
<use xlink:href="#f0_2a" transform="matrix(12,0,0,12,473,319.7)" />
<use xlink:href="#f0_20" transform="matrix(12,0,0,12,481.6,319.7)" />
<use xlink:href="#f0_25" transform="matrix(12,0,0,12,490.4,319.7)" />
<use xlink:href="#f0_2g" transform="matrix(12,0,0,12,495.2,319.7)" />
<use xlink:href="#f0_25" transform="matrix(12,0,0,12,500,319.7)" />
<use xlink:href="#f0_2b" transform="matrix(12,0,0,12,504.7,319.7)" />
<use xlink:href="#f0_2a" transform="matrix(12,0,0,12,513.5,319.7)" />
<use xlink:href="#f0_1x" transform="matrix(12,0,0,12,522.3,319.7)" />
<use xlink:href="#f0_28" transform="matrix(12,0,0,12,530,319.7)" />
<use xlink:href="#f0_2c" transform="matrix(12,0,0,12,537.9,319.7)" />
<use xlink:href="#f0_2e" transform="matrix(12,0,0,12,546.7,319.7)" />
<use xlink:href="#f0_2b" transform="matrix(12,0,0,12,552.4,319.7)" />
<use xlink:href="#f0_1y" transform="matrix(12,0,0,12,561.2,319.7)" />
<use xlink:href="#f0_1x" transform="matrix(12,0,0,12,570,319.7)" />
<use xlink:href="#f0_1y" transform="matrix(12,0,0,12,577.7,319.7)" />
<use xlink:href="#f0_25" transform="matrix(12,0,0,12,586.5,319.7)" />
<use xlink:href="#f0_28" transform="matrix(12,0,0,12,591.3,319.7)" />
<use xlink:href="#f0_25" transform="matrix(12,0,0,12,596,319.7)" />
<use xlink:href="#f0_2g" transform="matrix(12,0,0,12,600.8,319.7)" />
<use xlink:href="#f0_2l" transform="matrix(12,0,0,12,605.6,319.7)" />
<use xlink:href="#f0_2b" transform="matrix(12,0,0,12,616.9,319.7)" />
<use xlink:href="#f0_22" transform="matrix(12,0,0,12,625.7,319.7)" />
<use xlink:href="#f0_2b" transform="matrix(12,0,0,12,634.3,319.7)" />
<use xlink:href="#f0_1y" transform="matrix(12,0,0,12,643.1,319.7)" />
<use xlink:href="#f0_2g" transform="matrix(12,0,0,12,651.9,319.7)" />
<use xlink:href="#f0_1x" transform="matrix(12,0,0,12,656.7,319.7)" />
<use xlink:href="#f0_25" transform="matrix(12,0,0,12,664.4,319.7)" />
<use xlink:href="#f0_2a" transform="matrix(12,0,0,12,669.2,319.7)" />
<use xlink:href="#f0_25" transform="matrix(12,0,0,12,678,319.7)" />
<use xlink:href="#f0_2a" transform="matrix(12,0,0,12,682.7,319.7)" />
<use xlink:href="#f0_23" transform="matrix(12,0,0,12,691.5,319.7)" />
<use xlink:href="#f0_2g" transform="matrix(12,0,0,12,703.3,319.7)" />
<use xlink:href="#f0_24" transform="matrix(12,0,0,12,708,319.7)" />
<use xlink:href="#f0_21" transform="matrix(12,0,0,12,716.8,319.7)" />
<use xlink:href="#f0_2f" transform="matrix(12,0,0,12,727.7,319.7)" />
<use xlink:href="#f0_2h" transform="matrix(12,0,0,12,734.4,319.7)" />
<use xlink:href="#f0_29" transform="matrix(12,0,0,12,743.2,319.7)" />
<use xlink:href="#f0_s" transform="matrix(12,0,0,12,760.3,319.7)" />
<use xlink:href="#f0_g" transform="matrix(12,0,0,12,769.1,319.7)" />
<use xlink:href="#f0_23" transform="matrix(12,0,0,12,776.2,319.7)" />
<use xlink:href="#f0_25" transform="matrix(12,0,0,12,784.9,319.7)" />
<use xlink:href="#f0_2i" transform="matrix(12,0,0,12,789.6,319.7)" />
<use xlink:href="#f0_21" transform="matrix(12,0,0,12,798.4,319.7)" />
<use xlink:href="#f0_2a" transform="matrix(12,0,0,12,806.1,319.7)" />
<use xlink:href="#f0_2g" transform="matrix(12,0,0,12,818,319.7)" />
<use xlink:href="#f0_24" transform="matrix(12,0,0,12,822.8,319.7)" />
<use xlink:href="#f0_1x" transform="matrix(12,0,0,12,831.6,319.7)" />
<use xlink:href="#f0_2g" transform="matrix(12,0,0,12,839.3,319.7)" />
<use xlink:href="#f0_2g" transform="matrix(12,0,0,12,121.2,341.7)" />
<use xlink:href="#f0_24" transform="matrix(12,0,0,12,126.1,341.7)" />
<use xlink:href="#f0_21" transform="matrix(12,0,0,12,134.9,341.7)" />
<use xlink:href="#f0_2e" transform="matrix(12,0,0,12,146.1,341.7)" />
<use xlink:href="#f0_21" transform="matrix(12,0,0,12,152,341.7)" />
<use xlink:href="#f0_20" transform="matrix(12,0,0,12,159.7,341.7)" />
<use xlink:href="#f0_20" transform="matrix(12,0,0,12,172,341.7)" />
<use xlink:href="#f0_25" transform="matrix(12,0,0,12,181,341.7)" />
<use xlink:href="#f0_21" transform="matrix(12,0,0,12,185.7,341.7)" />
<use xlink:href="#f0_2e" transform="matrix(12,0,0,12,196.7,341.7)" />
<use xlink:href="#f0_21" transform="matrix(12,0,0,12,202.6,341.7)" />
<use xlink:href="#f0_2f" transform="matrix(12,0,0,12,210.3,341.7)" />
<use xlink:href="#f0_2h" transform="matrix(12,0,0,12,217.3,341.7)" />
<use xlink:href="#f0_28" transform="matrix(12,0,0,12,226.2,341.7)" />
<use xlink:href="#f0_2g" transform="matrix(12,0,0,12,231.2,341.7)" />
<use xlink:href="#f0_21" transform="matrix(12,0,0,12,236,341.7)" />
<use xlink:href="#f0_20" transform="matrix(12,0,0,12,243.8,341.7)" />
<use xlink:href="#f0_25" transform="matrix(12,0,0,12,256.1,341.7)" />
<use xlink:href="#f0_2a" transform="matrix(12,0,0,12,260.9,341.7)" />
<use xlink:href="#f0_1x" transform="matrix(12,0,0,12,273.2,341.7)" />
<use xlink:href="#f0_2a" transform="matrix(12,0,0,12,284.2,341.7)" />
<use xlink:href="#f0_2h" transform="matrix(12,0,0,12,293.2,341.7)" />
<use xlink:href="#f0_29" transform="matrix(12,0,0,12,302.1,341.7)" />
<use xlink:href="#f0_1y" transform="matrix(12,0,0,12,316.3,341.7)" />
<use xlink:href="#f0_21" transform="matrix(12,0,0,12,325.1,341.7)" />
<use xlink:href="#f0_2e" transform="matrix(12,0,0,12,332.9,341.7)" />
<use xlink:href="#f0_28" transform="matrix(12,0,0,12,341.9,341.7)" />
<use xlink:href="#f0_21" transform="matrix(12,0,0,12,346.7,341.7)" />
<use xlink:href="#f0_2f" transform="matrix(12,0,0,12,354.6,341.7)" />
<use xlink:href="#f0_2f" transform="matrix(12,0,0,12,361.5,341.7)" />
<use xlink:href="#f0_2g" transform="matrix(12,0,0,12,371.6,341.7)" />
<use xlink:href="#f0_24" transform="matrix(12,0,0,12,376.6,341.7)" />
<use xlink:href="#f0_1x" transform="matrix(12,0,0,12,385.6,341.7)" />
<use xlink:href="#f0_2a" transform="matrix(12,0,0,12,393.4,341.7)" />
<use xlink:href="#f0_o" transform="matrix(12,0,0,12,405.5,341.7)" />
<use xlink:href="#f0_i" transform="matrix(12,0,0,12,414.5,341.7)" />
<use xlink:href="#f0_1j" transform="matrix(12,0,0,12,64.9,381.6)" />
<use xlink:href="#f0_2b" transform="matrix(12,0,0,12,74.1,381.6)" />
<use xlink:href="#f0_28" transform="matrix(12,0,0,12,82.1,381.6)" />
<use xlink:href="#f0_u" transform="matrix(12,0,0,12,86.2,381.6)" />
<use xlink:href="#f1_c" transform="matrix(11.8,0,0,15.8,158.6,382.6)" />
<use xlink:href="#f1_d" transform="matrix(11.8,0,0,15.8,184.8,382.6)" />
<use xlink:href="#f1_c" transform="matrix(11.8,0,0,15.8,198.2,382.6)" />
<use xlink:href="#f1_d" transform="matrix(11.8,0,0,15.8,227.9,382.6)" />
<use xlink:href="#f1_c" transform="matrix(11.8,0,0,15.8,258.3,382.6)" />
<use xlink:href="#f1_d" transform="matrix(11.8,0,0,15.8,290.8,382.6)" />
</g>
<g clip-path="url(#c1_4)">
<g fill="#000000" >
<use xlink:href="#f1_2n" transform="matrix(11.8,0,0,17.9,150.3,383.1)" />
</g>
</g>
<g clip-path="url(#c2_4)">
<g fill="#000000" >
<use xlink:href="#f1_2p" transform="matrix(11.8,0,0,17.9,296.1,383.1)" />
</g>
</g>
<g fill="#000000" >
<use xlink:href="#f0_1j" transform="matrix(12.1,0,0,12.1,123.8,381.1)" />
<use xlink:href="#f0_l" transform="matrix(12.1,0,0,12.1,164.1,381.1)" />
<use xlink:href="#f0_g" transform="matrix(12.1,0,0,12.1,171.4,381.1)" />
<use xlink:href="#f0_l" transform="matrix(12.1,0,0,12.1,176,381.1)" />
<use xlink:href="#f0_g" transform="matrix(12.1,0,0,12.1,192.1,381.1)" />
<use xlink:href="#f0_l" transform="matrix(12.1,0,0,12.1,203.8,381.1)" />
<use xlink:href="#f0_g" transform="matrix(12.1,0,0,12.1,211.2,381.1)" />
<use xlink:href="#f0_m" transform="matrix(12.1,0,0,12.1,217.8,381.1)" />
<use xlink:href="#f0_i" transform="matrix(12.1,0,0,12.1,234.8,381.1)" />
<use xlink:href="#f0_i" transform="matrix(12.1,0,0,12.1,239.4,381.1)" />
<use xlink:href="#f0_i" transform="matrix(12.1,0,0,12.1,244,381.1)" />
<use xlink:href="#f0_i" transform="matrix(12.1,0,0,12.1,248.6,381.1)" />
<use xlink:href="#f0_i" transform="matrix(12.1,0,0,12.1,253.2,381.1)" />
<use xlink:href="#f0_q" transform="matrix(12.1,0,0,12.1,265.5,381.1)" />
<use xlink:href="#f0_g" transform="matrix(12.1,0,0,12.1,274.5,381.1)" />
<use xlink:href="#f0_q" transform="matrix(12.1,0,0,12.1,280.7,381.1)" />
<use xlink:href="#f1_x" transform="matrix(12.1,0,0,12.1,137.5,381.1)" />
<use xlink:href="#f1_c" transform="matrix(11.9,0,0,15.9,149,424)" />
<use xlink:href="#f1_d" transform="matrix(11.9,0,0,15.9,164.6,424)" />
<use xlink:href="#f0_2a" transform="matrix(12.2,0,0,12.2,137.7,422.7)" />
<use xlink:href="#f0_2f" transform="matrix(12.2,0,0,12.2,156.2,422.7)" />
<use xlink:href="#f0_n" transform="matrix(12.2,0,0,12.2,188.5,422.7)" />
<use xlink:href="#f0_q" transform="matrix(12.2,0,0,12.2,197.8,422.7)" />
<use xlink:href="#f1_1s" transform="matrix(12.2,0,0,12.2,119,422.7)" />
<use xlink:href="#f1_x" transform="matrix(12.2,0,0,12.2,174.7,422.7)" />
<use xlink:href="#f0_11" transform="matrix(12,0,0,12,119,451.3)" />
<use xlink:href="#f0_x" transform="matrix(12,0,0,12,135.3,451.3)" />
<use xlink:href="#f0_1i" transform="matrix(12,0,0,12,148.5,451.3)" />
<use xlink:href="#f0_21" transform="matrix(12,0,0,12,160.6,451.3)" />
<use xlink:href="#f0_20" transform="matrix(12,0,0,12,168.5,451.3)" />
<use xlink:href="#f0_20" transform="matrix(12,0,0,12,180.6,451.3)" />
<use xlink:href="#f0_25" transform="matrix(12,0,0,12,189.6,451.3)" />
<use xlink:href="#f0_21" transform="matrix(12,0,0,12,194.3,451.3)" />
<use xlink:href="#f0_2e" transform="matrix(12,0,0,12,205.5,451.3)" />
<use xlink:href="#f0_21" transform="matrix(12,0,0,12,211.4,451.3)" />
<use xlink:href="#f0_2f" transform="matrix(12,0,0,12,219.3,451.3)" />
<use xlink:href="#f0_2h" transform="matrix(12,0,0,12,226.2,451.3)" />
<use xlink:href="#f0_28" transform="matrix(12,0,0,12,235,451.3)" />
<use xlink:href="#f0_2g" transform="matrix(12,0,0,12,240,451.3)" />
<use xlink:href="#f0_21" transform="matrix(12,0,0,12,244.9,451.3)" />
<use xlink:href="#f0_20" transform="matrix(12,0,0,12,252.8,451.3)" />
<use xlink:href="#f0_25" transform="matrix(12,0,0,12,265.1,451.3)" />
<use xlink:href="#f0_2a" transform="matrix(12,0,0,12,269.9,451.3)" />
<use xlink:href="#f0_1x" transform="matrix(12,0,0,12,282.2,451.3)" />
<use xlink:href="#f0_2a" transform="matrix(12,0,0,12,293.3,451.3)" />
<use xlink:href="#f0_2h" transform="matrix(12,0,0,12,302.3,451.3)" />
<use xlink:href="#f0_29" transform="matrix(12,0,0,12,311.3,451.3)" />
<use xlink:href="#f0_1y" transform="matrix(12,0,0,12,325.2,451.3)" />
<use xlink:href="#f0_21" transform="matrix(12,0,0,12,334.2,451.3)" />
<use xlink:href="#f0_2e" transform="matrix(12,0,0,12,342.1,451.3)" />
<use xlink:href="#f0_28" transform="matrix(12,0,0,12,351.1,451.3)" />
<use xlink:href="#f0_21" transform="matrix(12,0,0,12,356,451.3)" />
<use xlink:href="#f0_2f" transform="matrix(12,0,0,12,363.7,451.3)" />
<use xlink:href="#f0_2f" transform="matrix(12,0,0,12,370.7,451.3)" />
<use xlink:href="#f0_2g" transform="matrix(12,0,0,12,381,451.3)" />
<use xlink:href="#f0_24" transform="matrix(12,0,0,12,385.9,451.3)" />
<use xlink:href="#f0_1x" transform="matrix(12,0,0,12,394.9,451.3)" />
<use xlink:href="#f0_2a" transform="matrix(12,0,0,12,402.6,451.3)" />
<use xlink:href="#f0_o" transform="matrix(12,0,0,12,414.9,451.3)" />
<use xlink:href="#f0_i" transform="matrix(12,0,0,12,423.9,451.3)" />
<use xlink:href="#f1_c" transform="matrix(11.8,0,0,15.8,142.1,483.4)" />
<use xlink:href="#f1_d" transform="matrix(11.8,0,0,15.8,168.7,483.4)" />
<use xlink:href="#f1_c" transform="matrix(11.8,0,0,15.8,182.8,483.4)" />
<use xlink:href="#f1_d" transform="matrix(11.8,0,0,15.8,212.9,483.4)" />
<use xlink:href="#f1_c" transform="matrix(11.8,0,0,15.8,227,483.4)" />
<use xlink:href="#f1_d" transform="matrix(11.8,0,0,15.8,255.9,483.4)" />
<use xlink:href="#f1_c" transform="matrix(11.8,0,0,15.8,270,483.4)" />
<use xlink:href="#f1_d" transform="matrix(11.8,0,0,15.8,299.9,483.4)" />
<use xlink:href="#f1_c" transform="matrix(11.8,0,0,15.8,314,483.4)" />
<use xlink:href="#f1_d" transform="matrix(11.8,0,0,15.8,347.6,483.4)" />
<use xlink:href="#f1_c" transform="matrix(11.8,0,0,15.8,361.7,483.4)" />
<use xlink:href="#f1_d" transform="matrix(11.8,0,0,15.8,394,483.4)" />
<use xlink:href="#f1_c" transform="matrix(11.8,0,0,15.8,408.1,483.4)" />
<use xlink:href="#f1_d" transform="matrix(11.8,0,0,15.8,437.1,483.4)" />
<use xlink:href="#f1_c" transform="matrix(11.8,0,0,15.8,451.2,483.4)" />
<use xlink:href="#f1_d" transform="matrix(11.8,0,0,15.8,483.4,483.4)" />
<use xlink:href="#f1_c" transform="matrix(11.8,0,0,15.8,497.6,483.4)" />
<use xlink:href="#f1_d" transform="matrix(11.8,0,0,15.8,528.7,483.4)" />
<use xlink:href="#f1_c" transform="matrix(11.8,0,0,15.8,542.8,483.4)" />
<use xlink:href="#f1_d" transform="matrix(11.8,0,0,15.8,572.9,483.4)" />
<use xlink:href="#f1_c" transform="matrix(11.8,0,0,15.8,587,483.4)" />
<use xlink:href="#f1_d" transform="matrix(11.8,0,0,15.8,620.6,483.4)" />
<use xlink:href="#f1_c" transform="matrix(11.8,0,0,15.8,634.7,483.4)" />
<use xlink:href="#f1_d" transform="matrix(11.8,0,0,15.8,667,483.4)" />
<use xlink:href="#f0_2n" transform="matrix(12.1,0,0,12.1,134.4,481.9)" />
<use xlink:href="#f0_l" transform="matrix(12.1,0,0,12.1,147.8,481.9)" />
<use xlink:href="#f0_g" transform="matrix(12.1,0,0,12.1,155.1,481.9)" />
<use xlink:href="#f0_l" transform="matrix(12.1,0,0,12.1,160,481.9)" />
<use xlink:href="#f0_g" transform="matrix(12.1,0,0,12.1,176.5,481.9)" />
<use xlink:href="#f0_l" transform="matrix(12.1,0,0,12.1,188.4,481.9)" />
<use xlink:href="#f0_g" transform="matrix(12.1,0,0,12.1,195.8,481.9)" />
<use xlink:href="#f0_m" transform="matrix(12.1,0,0,12.1,202.7,481.9)" />
<use xlink:href="#f0_g" transform="matrix(12.1,0,0,12.1,220.7,481.9)" />
<use xlink:href="#f0_l" transform="matrix(12.1,0,0,12.1,232.6,481.9)" />
<use xlink:href="#f0_g" transform="matrix(12.1,0,0,12.1,239.9,481.9)" />
<use xlink:href="#f0_n" transform="matrix(12.1,0,0,12.1,246.3,481.9)" />
<use xlink:href="#f0_g" transform="matrix(12.1,0,0,12.1,263.5,481.9)" />
<use xlink:href="#f0_m" transform="matrix(12.1,0,0,12.1,277.5,481.9)" />
<use xlink:href="#f0_g" transform="matrix(12.1,0,0,12.1,286.5,481.9)" />
<use xlink:href="#f0_l" transform="matrix(12.1,0,0,12.1,291.2,481.9)" />
<use xlink:href="#f0_g" transform="matrix(12.1,0,0,12.1,307.7,481.9)" />
<use xlink:href="#f0_m" transform="matrix(12.1,0,0,12.1,321.6,481.9)" />
<use xlink:href="#f0_g" transform="matrix(12.1,0,0,12.1,330.4,481.9)" />
<use xlink:href="#f0_m" transform="matrix(12.1,0,0,12.1,337.4,481.9)" />
<use xlink:href="#f0_g" transform="matrix(12.1,0,0,12.1,355.3,481.9)" />
<use xlink:href="#f0_m" transform="matrix(12.1,0,0,12.1,369.1,481.9)" />
<use xlink:href="#f0_g" transform="matrix(12.1,0,0,12.1,378.1,481.9)" />
<use xlink:href="#f0_n" transform="matrix(12.1,0,0,12.1,384.3,481.9)" />
<use xlink:href="#f0_g" transform="matrix(12.1,0,0,12.1,401.7,481.9)" />
<use xlink:href="#f0_n" transform="matrix(12.1,0,0,12.1,415.1,481.9)" />
<use xlink:href="#f0_g" transform="matrix(12.1,0,0,12.1,423.4,481.9)" />
<use xlink:href="#f0_l" transform="matrix(12.1,0,0,12.1,428.3,481.9)" />
<use xlink:href="#f0_g" transform="matrix(12.1,0,0,12.1,444.6,481.9)" />
<use xlink:href="#f0_n" transform="matrix(12.1,0,0,12.1,458,481.9)" />
<use xlink:href="#f0_g" transform="matrix(12.1,0,0,12.1,466.2,481.9)" />
<use xlink:href="#f0_m" transform="matrix(12.1,0,0,12.1,473.2,481.9)" />
<use xlink:href="#f0_g" transform="matrix(12.1,0,0,12.1,491.1,481.9)" />
<use xlink:href="#f0_n" transform="matrix(12.1,0,0,12.1,504.3,481.9)" />
<use xlink:href="#f0_g" transform="matrix(12.1,0,0,12.1,512.8,481.9)" />
<use xlink:href="#f0_n" transform="matrix(12.1,0,0,12.1,519,481.9)" />
<use xlink:href="#f0_g" transform="matrix(12.1,0,0,12.1,536.4,481.9)" />
<use xlink:href="#f0_o" transform="matrix(12.1,0,0,12.1,550.3,481.9)" />
<use xlink:href="#f0_g" transform="matrix(12.1,0,0,12.1,559.1,481.9)" />
<use xlink:href="#f0_l" transform="matrix(12.1,0,0,12.1,564.1,481.9)" />
<use xlink:href="#f0_g" transform="matrix(12.1,0,0,12.1,580.8,481.9)" />
<use xlink:href="#f0_o" transform="matrix(12.1,0,0,12.1,594.5,481.9)" />
<use xlink:href="#f0_g" transform="matrix(12.1,0,0,12.1,603.5,481.9)" />
<use xlink:href="#f0_m" transform="matrix(12.1,0,0,12.1,610.3,481.9)" />
<use xlink:href="#f0_g" transform="matrix(12.1,0,0,12.1,628.3,481.9)" />
<use xlink:href="#f0_o" transform="matrix(12.1,0,0,12.1,642.2,481.9)" />
<use xlink:href="#f0_g" transform="matrix(12.1,0,0,12.1,651,481.9)" />
<use xlink:href="#f0_n" transform="matrix(12.1,0,0,12.1,657.4,481.9)" />
<use xlink:href="#f0_g" transform="matrix(12.1,0,0,12.1,674.7,481.9)" />
<use xlink:href="#f1_x" transform="matrix(12.1,0,0,12.1,121.7,481.9)" />
<use xlink:href="#f1_c" transform="matrix(11.8,0,0,15.8,153.6,520.6)" />
<use xlink:href="#f1_d" transform="matrix(11.8,0,0,15.8,182.8,520.6)" />
<use xlink:href="#f1_c" transform="matrix(11.8,0,0,15.8,196.9,520.6)" />
<use xlink:href="#f1_d" transform="matrix(11.8,0,0,15.8,229.3,520.6)" />
<use xlink:href="#f1_c" transform="matrix(11.8,0,0,15.8,243.5,520.6)" />
<use xlink:href="#f1_d" transform="matrix(11.8,0,0,15.8,274.8,520.6)" />
<use xlink:href="#f1_c" transform="matrix(11.8,0,0,15.8,288.9,520.6)" />
<use xlink:href="#f1_d" transform="matrix(11.8,0,0,15.8,318.6,520.6)" />
<use xlink:href="#f1_c" transform="matrix(11.8,0,0,15.8,332.7,520.6)" />
<use xlink:href="#f1_d" transform="matrix(11.8,0,0,15.8,365.7,520.6)" />
<use xlink:href="#f1_c" transform="matrix(11.8,0,0,15.8,379.9,520.6)" />
<use xlink:href="#f1_d" transform="matrix(11.8,0,0,15.8,411.8,520.6)" />
<use xlink:href="#f0_p" transform="matrix(12.1,0,0,12.1,160.6,519.1)" />
<use xlink:href="#f0_g" transform="matrix(12.1,0,0,12.1,169.2,519.1)" />
<use xlink:href="#f0_l" transform="matrix(12.1,0,0,12.1,174.2,519.1)" />
<use xlink:href="#f0_g" transform="matrix(12.1,0,0,12.1,190.5,519.1)" />
<use xlink:href="#f0_p" transform="matrix(12.1,0,0,12.1,203.8,519.1)" />
<use xlink:href="#f0_g" transform="matrix(12.1,0,0,12.1,212.5,519.1)" />
<use xlink:href="#f0_m" transform="matrix(12.1,0,0,12.1,219.3,519.1)" />
<use xlink:href="#f0_g" transform="matrix(12.1,0,0,12.1,237.2,519.1)" />
<use xlink:href="#f0_p" transform="matrix(12.1,0,0,12.1,250.4,519.1)" />
<use xlink:href="#f0_g" transform="matrix(12.1,0,0,12.1,259,519.1)" />
<use xlink:href="#f0_n" transform="matrix(12.1,0,0,12.1,265.3,519.1)" />
<use xlink:href="#f0_g" transform="matrix(12.1,0,0,12.1,282.7,519.1)" />
<use xlink:href="#f0_q" transform="matrix(12.1,0,0,12.1,296.2,519.1)" />
<use xlink:href="#f0_g" transform="matrix(12.1,0,0,12.1,305.1,519.1)" />
<use xlink:href="#f0_l" transform="matrix(12.1,0,0,12.1,310,519.1)" />
<use xlink:href="#f0_g" transform="matrix(12.1,0,0,12.1,326.3,519.1)" />
<use xlink:href="#f0_q" transform="matrix(12.1,0,0,12.1,339.9,519.1)" />
<use xlink:href="#f0_g" transform="matrix(12.1,0,0,12.1,348.9,519.1)" />
<use xlink:href="#f0_m" transform="matrix(12.1,0,0,12.1,355.6,519.1)" />
<use xlink:href="#f0_g" transform="matrix(12.1,0,0,12.1,373.6,519.1)" />
<use xlink:href="#f0_q" transform="matrix(12.1,0,0,12.1,387.2,519.1)" />
<use xlink:href="#f0_g" transform="matrix(12.1,0,0,12.1,396,519.1)" />
<use xlink:href="#f0_n" transform="matrix(12.1,0,0,12.1,402.2,519.1)" />
<use xlink:href="#f0_2p" transform="matrix(12.1,0,0,12.1,416.7,519.1)" />
<use xlink:href="#f1_c" transform="matrix(11.9,0,0,15.9,133.5,557.8)" />
<use xlink:href="#f1_d" transform="matrix(11.9,0,0,15.9,155.8,557.8)" />
<use xlink:href="#f0_l" transform="matrix(7,0,0,7,179.1,548.1)" />
<use xlink:href="#f0_s" transform="matrix(7,0,0,7,184.4,548.1)" />
<use xlink:href="#f0_l" transform="matrix(7,0,0,7,201.8,561.1)" />
<use xlink:href="#f0_2a" transform="matrix(12.2,0,0,12.2,121.7,556.5)" />
<use xlink:href="#f0_11" transform="matrix(12.2,0,0,12.2,141.2,556.5)" />
<use xlink:href="#f0_13" transform="matrix(12.2,0,0,12.2,190.3,556.5)" />
<use xlink:href="#f0_l" transform="matrix(12.2,0,0,12.2,224.7,556.5)" />
<use xlink:href="#f0_s" transform="matrix(12.2,0,0,12.2,233.9,556.5)" />
<use xlink:href="#f1_x" transform="matrix(12.2,0,0,12.2,166.1,556.5)" />
<use xlink:href="#f1_x" transform="matrix(12.2,0,0,12.2,212.5,556.5)" />
<use xlink:href="#f0_12" transform="matrix(12,0,0,12,119,585.1)" />
<use xlink:href="#f0_x" transform="matrix(12,0,0,12,134.2,585.1)" />
<use xlink:href="#f0_2f" transform="matrix(12,0,0,12,147.4,585.1)" />
<use xlink:href="#f0_2h" transform="matrix(12,0,0,12,154.4,585.1)" />
<use xlink:href="#f0_29" transform="matrix(12,0,0,12,163.4,585.1)" />
<use xlink:href="#f0_2b" transform="matrix(12,0,0,12,180.4,585.1)" />
<use xlink:href="#f0_22" transform="matrix(12,0,0,12,189.4,585.1)" />
<use xlink:href="#f0_2a" transform="matrix(12,0,0,12,198.4,585.1)" />
<use xlink:href="#f0_2h" transform="matrix(12,0,0,12,207.4,585.1)" />
<use xlink:href="#f0_29" transform="matrix(12,0,0,12,216.3,585.1)" />
<use xlink:href="#f0_1y" transform="matrix(12,0,0,12,230.5,585.1)" />
<use xlink:href="#f0_21" transform="matrix(12,0,0,12,239.3,585.1)" />
<use xlink:href="#f0_2e" transform="matrix(12,0,0,12,247.1,585.1)" />
<use xlink:href="#f0_25" transform="matrix(12,0,0,12,256.3,585.1)" />
<use xlink:href="#f0_2f" transform="matrix(12,0,0,12,261.1,585.1)" />
<use xlink:href="#f0_s" transform="matrix(12,0,0,12,271.3,585.1)" />
<use xlink:href="#f1_c" transform="matrix(10.4,0,0,15.8,154,617.2)" />
</g>
<g clip-path="url(#c3_4)">
<g fill="#000000" >
<use xlink:href="#f1_d" transform="matrix(10.4,0,0,15.8,183.5,617.2)" />
</g>
</g>
<g fill="#000000" >
<use xlink:href="#f1_c" transform="matrix(10.4,0,0,15.8,195.8,617.2)" />
</g>
<g clip-path="url(#c4_4)">
<g fill="#000000" >
<use xlink:href="#f1_d" transform="matrix(10.4,0,0,15.8,225,617.2)" />
</g>
</g>
<g fill="#000000" >
<use xlink:href="#f1_c" transform="matrix(10.4,0,0,15.8,237.4,617.2)" />
</g>
<g clip-path="url(#c5_4)">
<g fill="#000000" >
<use xlink:href="#f1_d" transform="matrix(10.4,0,0,15.8,266.6,617.2)" />
</g>
</g>
<g fill="#000000" >
<use xlink:href="#f1_c" transform="matrix(10.4,0,0,15.8,278.9,617.2)" />
</g>
<g clip-path="url(#c6_4)">
<g fill="#000000" >
<use xlink:href="#f1_d" transform="matrix(10.4,0,0,15.8,306.5,617.2)" />
</g>
</g>
<g fill="#000000" >
<use xlink:href="#f1_c" transform="matrix(10.4,0,0,15.8,319,617.2)" />
</g>
<g clip-path="url(#c7_4)">
<g fill="#000000" >
<use xlink:href="#f1_d" transform="matrix(10.4,0,0,15.8,346.7,617.2)" />
</g>
</g>
<g clip-path="url(#c8_4)">
<g fill="#000000" >
<use xlink:href="#f1_2n" transform="matrix(10.4,0,0,17.9,146.9,617.8)" />
</g>
</g>
<g clip-path="url(#c9_4)">
<g fill="#000000" >
<use xlink:href="#f1_2p" transform="matrix(10.4,0,0,17.9,351.3,617.8)" />
</g>
</g>
<g fill="#000000" >
<use xlink:href="#f0_12" transform="matrix(12.1,0,0,12.1,121.4,615.8)" />
<use xlink:href="#f0_o" transform="matrix(12.1,0,0,12.1,160.6,615.8)" />
<use xlink:href="#f0_g" transform="matrix(12.1,0,0,12.1,168.5,615.8)" />
<use xlink:href="#f0_o" transform="matrix(12.1,0,0,12.1,174.5,615.8)" />
<use xlink:href="#f0_g" transform="matrix(12.1,0,0,12.1,190.3,615.8)" />
<use xlink:href="#f0_q" transform="matrix(12.1,0,0,12.1,202.2,615.8)" />
<use xlink:href="#f0_g" transform="matrix(12.1,0,0,12.1,210.1,615.8)" />
<use xlink:href="#f0_m" transform="matrix(12.1,0,0,12.1,216.1,615.8)" />
<use xlink:href="#f0_g" transform="matrix(12.1,0,0,12.1,231.9,615.8)" />
<use xlink:href="#f0_m" transform="matrix(12.1,0,0,12.1,244,615.8)" />
<use xlink:href="#f0_g" transform="matrix(12.1,0,0,12.1,251.9,615.8)" />
<use xlink:href="#f0_q" transform="matrix(12.1,0,0,12.1,257.5,615.8)" />
<use xlink:href="#f0_g" transform="matrix(12.1,0,0,12.1,273.3,615.8)" />
<use xlink:href="#f0_p" transform="matrix(12.1,0,0,12.1,285,615.8)" />
<use xlink:href="#f0_g" transform="matrix(12.1,0,0,12.1,292.5,615.8)" />
<use xlink:href="#f0_n" transform="matrix(12.1,0,0,12.1,298.2,615.8)" />
<use xlink:href="#f0_g" transform="matrix(12.1,0,0,12.1,313.4,615.8)" />
<use xlink:href="#f0_n" transform="matrix(12.1,0,0,12.1,325.1,615.8)" />
<use xlink:href="#f0_g" transform="matrix(12.1,0,0,12.1,332.3,615.8)" />
<use xlink:href="#f0_p" transform="matrix(12.1,0,0,12.1,338,615.8)" />
<use xlink:href="#f1_x" transform="matrix(12.1,0,0,12.1,135.5,615.8)" />
<use xlink:href="#f1_c" transform="matrix(11.9,0,0,15.8,133.5,654.4)" />
<use xlink:href="#f1_d" transform="matrix(11.9,0,0,15.8,154.2,654.4)" />
<use xlink:href="#f0_p" transform="matrix(7,0,0,7,182.4,644.7)" />
<use xlink:href="#f0_l" transform="matrix(7,0,0,7,201.3,657.6)" />
<use xlink:href="#f0_2a" transform="matrix(12.1,0,0,12.1,121.7,653)" />
<use xlink:href="#f0_12" transform="matrix(12.1,0,0,12.1,141.2,653)" />
<use xlink:href="#f0_13" transform="matrix(12.1,0,0,12.1,189.7,653)" />
<use xlink:href="#f0_p" transform="matrix(12.1,0,0,12.1,225.6,653)" />
<use xlink:href="#f1_x" transform="matrix(12.1,0,0,12.1,164.3,653)" />
<use xlink:href="#f1_x" transform="matrix(12.1,0,0,12.1,211.9,653)" />
<use xlink:href="#f1_c" transform="matrix(11.8,0,0,15.9,189.4,691.7)" />
<use xlink:href="#f1_d" transform="matrix(11.8,0,0,15.9,220.5,691.7)" />
<use xlink:href="#f1_c" transform="matrix(11.8,0,0,15.9,234.1,691.7)" />
<use xlink:href="#f1_d" transform="matrix(11.8,0,0,15.9,267.1,691.7)" />
</g>
<g clip-path="url(#c10_4)">
<g fill="#000000" >
<use xlink:href="#f1_2n" transform="matrix(11.8,0,0,18,181.3,692.2)" />
</g>
</g>
<g clip-path="url(#c11_4)">
<g fill="#000000" >
<use xlink:href="#f1_2p" transform="matrix(11.8,0,0,18,272.3,692.2)" />
</g>
</g>
<g fill="#000000" >
<use xlink:href="#f0_11" transform="matrix(12.2,0,0,12.2,121.7,690.4)" />
<use xlink:href="#f0_12" transform="matrix(12.2,0,0,12.2,152.3,690.4)" />
<use xlink:href="#f0_p" transform="matrix(12.2,0,0,12.2,196.5,690.4)" />
<use xlink:href="#f0_g" transform="matrix(12.2,0,0,12.2,205.1,690.4)" />
<use xlink:href="#f0_n" transform="matrix(12.2,0,0,12.2,211,690.4)" />
<use xlink:href="#f0_g" transform="matrix(12.2,0,0,12.2,228,690.4)" />
<use xlink:href="#f0_q" transform="matrix(12.2,0,0,12.2,241.4,690.4)" />
<use xlink:href="#f0_g" transform="matrix(12.2,0,0,12.2,250.2,690.4)" />
<use xlink:href="#f0_m" transform="matrix(12.2,0,0,12.2,256.8,690.4)" />
<use xlink:href="#f1_x" transform="matrix(12.2,0,0,12.2,168.5,690.4)" />
<use xlink:href="#f3_w" transform="matrix(12.2,0,0,12.2,138.1,690.4)" />
<use xlink:href="#f1_c" transform="matrix(11.9,0,0,15.8,133.7,729.1)" />
</g>
<g clip-path="url(#c12_4)">
<g fill="#000000" >
<use xlink:href="#f1_d" transform="matrix(11.9,0,0,15.8,186.3,729.1)" />
</g>
</g>
<g fill="#000000" >
<use xlink:href="#f0_m" transform="matrix(7,0,0,7,210.8,719.3)" />
<use xlink:href="#f0_l" transform="matrix(7,0,0,7,228.4,732.2)" />
<use xlink:href="#f0_2a" transform="matrix(12.1,0,0,12.1,121.7,727.6)" />
<use xlink:href="#f0_11" transform="matrix(12.1,0,0,12.1,141.3,727.6)" />
<use xlink:href="#f0_12" transform="matrix(12.1,0,0,12.1,173.2,727.6)" />
<use xlink:href="#f0_13" transform="matrix(12.1,0,0,12.1,216.7,727.6)" />
<use xlink:href="#f0_m" transform="matrix(12.1,0,0,12.1,253.5,727.6)" />
<use xlink:href="#f1_x" transform="matrix(12.1,0,0,12.1,196.5,727.6)" />
<use xlink:href="#f1_x" transform="matrix(12.1,0,0,12.1,239.2,727.6)" />
<use xlink:href="#f3_w" transform="matrix(12.1,0,0,12.1,157.9,727.6)" />
</g>
<path d="M159.4,772.8h15.4" class="g3_4" />
<g fill="#000000" >
<use xlink:href="#f0_12" transform="matrix(11.9,0,0,11.9,161.3,765.9)" />
<use xlink:href="#f0_1g" transform="matrix(11.9,0,0,11.9,137.5,777.3)" />
<use xlink:href="#f0_11" transform="matrix(11.9,0,0,11.9,160.6,791.6)" />
<use xlink:href="#f1_4o" transform="matrix(11.9,0,0,11.9,149.6,767.4)" />
<use xlink:href="#f1_54" transform="matrix(11.9,0,0,11.9,177.5,767.4)" />
<use xlink:href="#f1_1s" transform="matrix(11.9,0,0,11.9,119,777.3)" />
<use xlink:href="#f1_x" transform="matrix(11.9,0,0,11.9,188.6,777.3)" />
<use xlink:href="#f1_4p" transform="matrix(11.9,0,0,11.9,149.6,782.2)" />
<use xlink:href="#f1_55" transform="matrix(11.9,0,0,11.9,177.5,782.2)" />
<use xlink:href="#f1_4q" transform="matrix(11.9,0,0,11.9,149.6,793.6)" />
<use xlink:href="#f1_56" transform="matrix(11.9,0,0,11.9,177.5,793.6)" />
<use xlink:href="#f0_1g" transform="matrix(12,0,0,12,202,781.3)" />
<use xlink:href="#f0_2e" transform="matrix(12,0,0,12,213,781.3)" />
<use xlink:href="#f0_2b" transform="matrix(12,0,0,12,219.8,781.3)" />
<use xlink:href="#f0_1y" transform="matrix(12,0,0,12,229.7,781.3)" />
<use xlink:href="#f0_1x" transform="matrix(12,0,0,12,239.5,781.3)" />
<use xlink:href="#f0_1y" transform="matrix(12,0,0,12,248.3,781.3)" />
<use xlink:href="#f0_25" transform="matrix(12,0,0,12,258,781.3)" />
<use xlink:href="#f0_28" transform="matrix(12,0,0,12,263.9,781.3)" />
<use xlink:href="#f0_25" transform="matrix(12,0,0,12,269.7,781.3)" />
<use xlink:href="#f0_2g" transform="matrix(12,0,0,12,275.6,781.3)" />
<use xlink:href="#f0_2l" transform="matrix(12,0,0,12,281.4,781.3)" />
<use xlink:href="#f0_2b" transform="matrix(12,0,0,12,298.2,781.3)" />
<use xlink:href="#f0_22" transform="matrix(12,0,0,12,308.1,781.3)" />
<use xlink:href="#f0_2f" transform="matrix(12,0,0,12,322.6,781.3)" />
<use xlink:href="#f0_2h" transform="matrix(12,0,0,12,330.3,781.3)" />
<use xlink:href="#f0_29" transform="matrix(12,0,0,12,340.1,781.3)" />
<use xlink:href="#f0_2b" transform="matrix(12,0,0,12,362.7,781.3)" />
<use xlink:href="#f0_22" transform="matrix(12,0,0,12,372.5,781.3)" />
<use xlink:href="#f0_2a" transform="matrix(12,0,0,12,387,781.3)" />
<use xlink:href="#f0_2h" transform="matrix(12,0,0,12,396.9,781.3)" />
<use xlink:href="#f0_29" transform="matrix(12,0,0,12,406.7,781.3)" />
<use xlink:href="#f0_1y" transform="matrix(12,0,0,12,421.8,781.3)" />
<use xlink:href="#f0_21" transform="matrix(12,0,0,12,431.6,781.3)" />
<use xlink:href="#f0_2e" transform="matrix(12,0,0,12,440.2,781.3)" />
<use xlink:href="#f0_s" transform="matrix(12,0,0,12,454.5,781.3)" />
<use xlink:href="#f0_2j" transform="matrix(12,0,0,12,472.1,781.3)" />
<use xlink:href="#f0_24" transform="matrix(12,0,0,12,486,781.3)" />
<use xlink:href="#f0_21" transform="matrix(12,0,0,12,495.9,781.3)" />
<use xlink:href="#f0_2a" transform="matrix(12,0,0,12,504.6,781.3)" />
<use xlink:href="#f0_1i" transform="matrix(12,0,0,12,522,781.3)" />
<use xlink:href="#f0_21" transform="matrix(12,0,0,12,534.8,781.3)" />
<use xlink:href="#f0_20" transform="matrix(12,0,0,12,543.6,781.3)" />
<use xlink:href="#f0_20" transform="matrix(12,0,0,12,561.2,781.3)" />
<use xlink:href="#f0_25" transform="matrix(12,0,0,12,571.1,781.3)" />
<use xlink:href="#f0_21" transform="matrix(12,0,0,12,576.9,781.3)" />
<use xlink:href="#f0_2e" transform="matrix(12,0,0,12,593.2,781.3)" />
<use xlink:href="#f0_21" transform="matrix(12,0,0,12,600,781.3)" />
<use xlink:href="#f0_2f" transform="matrix(12,0,0,12,608.7,781.3)" />
<use xlink:href="#f0_2h" transform="matrix(12,0,0,12,616.4,781.3)" />
<use xlink:href="#f0_28" transform="matrix(12,0,0,12,626.3,781.3)" />
<use xlink:href="#f0_2g" transform="matrix(12,0,0,12,632.2,781.3)" />
<use xlink:href="#f0_21" transform="matrix(12,0,0,12,638,781.3)" />
<use xlink:href="#f0_20" transform="matrix(12,0,0,12,646.8,781.3)" />
<use xlink:href="#f0_25" transform="matrix(12,0,0,12,664.3,781.3)" />
<use xlink:href="#f0_2a" transform="matrix(12,0,0,12,670.2,781.3)" />
<use xlink:href="#f0_1x" transform="matrix(12,0,0,12,687.6,781.3)" />
<use xlink:href="#f0_2a" transform="matrix(12,0,0,12,703.9,781.3)" />
<use xlink:href="#f0_2h" transform="matrix(12,0,0,12,713.7,781.3)" />
<use xlink:href="#f0_29" transform="matrix(12,0,0,12,723.6,781.3)" />
<use xlink:href="#f0_1y" transform="matrix(12,0,0,12,738.6,781.3)" />
<use xlink:href="#f0_21" transform="matrix(12,0,0,12,748.5,781.3)" />
<use xlink:href="#f0_2e" transform="matrix(12,0,0,12,757.3,781.3)" />
<use xlink:href="#f0_28" transform="matrix(12,0,0,12,771.6,781.3)" />
<use xlink:href="#f0_21" transform="matrix(12,0,0,12,777.4,781.3)" />
<use xlink:href="#f0_2f" transform="matrix(12,0,0,12,786.2,781.3)" />
<use xlink:href="#f0_2f" transform="matrix(12,0,0,12,793.9,781.3)" />
<use xlink:href="#f0_2g" transform="matrix(12,0,0,12,809.4,781.3)" />
<use xlink:href="#f0_24" transform="matrix(12,0,0,12,815.3,781.3)" />
<use xlink:href="#f0_1x" transform="matrix(12,0,0,12,825.1,781.3)" />
<use xlink:href="#f0_2a" transform="matrix(12,0,0,12,833.9,781.3)" />
<use xlink:href="#f1_c" transform="matrix(11.8,0,0,15.6,163.2,829.5)" />
<use xlink:href="#f1_d" transform="matrix(11.8,0,0,15.6,215.2,829.5)" />
<use xlink:href="#f1_c" transform="matrix(11.8,0,0,15.6,178,856.7)" />
<use xlink:href="#f1_d" transform="matrix(11.8,0,0,15.6,200.4,856.7)" />
</g>
<path d="M149.6,836.6h72.3" class="g2_4" />
<g fill="#000000" >
<use xlink:href="#f1_c" transform="matrix(11.8,0,0,15.6,254.3,829.5)" />
<use xlink:href="#f1_d" transform="matrix(11.8,0,0,15.6,306.5,829.5)" />
<use xlink:href="#f1_c" transform="matrix(11.8,0,0,15.6,269.3,856.7)" />
<use xlink:href="#f1_d" transform="matrix(11.8,0,0,15.6,291.5,856.7)" />
</g>
<path d="M241.4,836.6h71.7m19.5,0h17.8m19.5,0h10.4" class="g2_4" />
<g fill="#000000" >
<use xlink:href="#f0_1g" transform="matrix(11.9,0,0,11.9,150.7,828.2)" />
<use xlink:href="#f0_11" transform="matrix(11.9,0,0,11.9,170.7,828.2)" />
<use xlink:href="#f0_12" transform="matrix(11.9,0,0,11.9,202.2,828.2)" />
<use xlink:href="#f0_2a" transform="matrix(11.9,0,0,11.9,242.5,828.2)" />
<use xlink:href="#f0_11" transform="matrix(11.9,0,0,11.9,262,828.2)" />
<use xlink:href="#f0_12" transform="matrix(11.9,0,0,11.9,293.5,828.2)" />
<use xlink:href="#f0_m" transform="matrix(11.9,0,0,11.9,337.2,829.7)" />
<use xlink:href="#f0_l" transform="matrix(11.9,0,0,11.9,370.5,829.7)" />
<use xlink:href="#f0_o" transform="matrix(11.9,0,0,11.9,121.7,841.3)" />
<use xlink:href="#f0_1g" transform="matrix(11.9,0,0,11.9,165.7,855.4)" />
<use xlink:href="#f0_11" transform="matrix(11.9,0,0,11.9,185.5,855.4)" />
<use xlink:href="#f0_2a" transform="matrix(11.9,0,0,11.9,257.4,855.4)" />
<use xlink:href="#f0_11" transform="matrix(11.9,0,0,11.9,276.8,855.4)" />
<use xlink:href="#f0_l" transform="matrix(11.9,0,0,11.9,331.8,855.4)" />
<use xlink:href="#f0_s" transform="matrix(11.9,0,0,11.9,340.9,855.4)" />
<use xlink:href="#f0_t" transform="matrix(11.9,0,0,11.9,370.5,855.4)" />
<use xlink:href="#f1_x" transform="matrix(11.9,0,0,11.9,134.9,841.3)" />
<use xlink:href="#f1_x" transform="matrix(11.9,0,0,11.9,226.8,841.3)" />
<use xlink:href="#f1_x" transform="matrix(11.9,0,0,11.9,318.1,841.3)" />
<use xlink:href="#f1_x" transform="matrix(11.9,0,0,11.9,355.3,841.3)" />
<use xlink:href="#f3_w" transform="matrix(11.9,0,0,11.9,187,828.2)" />
<use xlink:href="#f3_w" transform="matrix(11.9,0,0,11.9,278.3,828.2)" />
<use xlink:href="#f0_l" transform="matrix(12,0,0,12,64.9,948.3)" />
<use xlink:href="#f0_k" transform="matrix(12,0,0,12,74.1,948.3)" />
<use xlink:href="#f0_i" transform="matrix(12,0,0,12,83.2,948.3)" />
<use xlink:href="#f0_19" transform="matrix(12,0,0,12,121.9,948.3)" />
<use xlink:href="#f0_22" transform="matrix(12,0,0,12,127.4,948.3)" />
<use xlink:href="#f4_2d" transform="matrix(12.2,0,-3.3,12.2,137.9,951.1)" />
<use xlink:href="#f0_25" transform="matrix(12,0,0,12,154.9,948.3)" />
<use xlink:href="#f0_2f" transform="matrix(12,0,0,12,160,948.3)" />
<use xlink:href="#f0_2g" transform="matrix(12,0,0,12,170.3,948.3)" />
<use xlink:href="#f0_24" transform="matrix(12,0,0,12,175.2,948.3)" />
<use xlink:href="#f0_21" transform="matrix(12,0,0,12,184.4,948.3)" />
<use xlink:href="#f0_1x" transform="matrix(12,0,0,12,195.6,948.3)" />
<use xlink:href="#f0_2a" transform="matrix(12,0,0,12,203.5,948.3)" />
<use xlink:href="#f0_23" transform="matrix(12,0,0,12,212.6,948.3)" />
<use xlink:href="#f0_28" transform="matrix(12,0,0,12,221.4,948.3)" />
<use xlink:href="#f0_21" transform="matrix(12,0,0,12,226.4,948.3)" />
<use xlink:href="#f0_1y" transform="matrix(12,0,0,12,237.6,948.3)" />
<use xlink:href="#f0_21" transform="matrix(12,0,0,12,246.6,948.3)" />
<use xlink:href="#f0_2g" transform="matrix(12,0,0,12,254.4,948.3)" />
<use xlink:href="#f0_2j" transform="matrix(12,0,0,12,259.4,948.3)" />
<use xlink:href="#f0_21" transform="matrix(12,0,0,12,272.6,948.3)" />
<use xlink:href="#f0_21" transform="matrix(12,0,0,12,280.5,948.3)" />
<use xlink:href="#f0_2a" transform="matrix(12,0,0,12,288.4,948.3)" />
<use xlink:href="#f0_2g" transform="matrix(12,0,0,12,300.8,948.3)" />
<use xlink:href="#f0_2j" transform="matrix(12,0,0,12,305.8,948.3)" />
<use xlink:href="#f0_2b" transform="matrix(12,0,0,12,318.8,948.3)" />
<use xlink:href="#f0_2i" transform="matrix(12,0,0,12,331.3,948.3)" />
<use xlink:href="#f0_21" transform="matrix(12,0,0,12,340.2,948.3)" />
<use xlink:href="#f0_1z" transform="matrix(12,0,0,12,348.1,948.3)" />
<use xlink:href="#f0_2g" transform="matrix(12,0,0,12,356.2,948.3)" />
<use xlink:href="#f0_2b" transform="matrix(12,0,0,12,361.1,948.3)" />
<use xlink:href="#f0_2e" transform="matrix(12,0,0,12,370.1,948.3)" />
<use xlink:href="#f0_2f" transform="matrix(12,0,0,12,376,948.3)" />
</g>
<g clip-path="url(#c13_4)">
<g fill="#000000" >
<use xlink:href="#f3_4" transform="matrix(13.1,0,0,12.1,422,944.5)" />
</g>
</g>
<g fill="#000000" >
<use xlink:href="#f3_4" transform="matrix(13.7,0,0,12.1,456.3,944.5)" />
<use xlink:href="#f0_m" transform="matrix(12.1,0,0,12.1,411.4,950.9)" />
<use xlink:href="#f0_n" transform="matrix(12.1,0,0,12.1,446.2,950.9)" />
<use xlink:href="#f5_25" transform="matrix(12.1,0,0,12.1,389.6,950.9)" />
<use xlink:href="#f5_26" transform="matrix(12.1,0,0,12.1,424.4,950.9)" />
<use xlink:href="#f5_27" transform="matrix(12.1,0,0,12.1,455.2,950.9)" />
<use xlink:href="#f1_h" transform="matrix(12.1,0,0,12.1,398.2,950.9)" />
<use xlink:href="#f1_f" transform="matrix(12.1,0,0,12.1,433.4,950.9)" />
<use xlink:href="#f3_4" transform="matrix(12.1,0,0,12.1,389.2,944.5)" />
<use xlink:href="#f0_1x" transform="matrix(12,0,0,12,471,948.3)" />
<use xlink:href="#f0_2a" transform="matrix(12,0,0,12,478.9,948.3)" />
<use xlink:href="#f0_20" transform="matrix(12,0,0,12,488,948.3)" />
<use xlink:href="#f3_4" transform="matrix(13,0,0,12.1,543,944.5)" />
<use xlink:href="#f3_4" transform="matrix(13.6,0,0,12.1,568.5,944.5)" />
<use xlink:href="#f0_n" transform="matrix(12.1,0,0,12.1,502.5,950.9)" />
<use xlink:href="#f0_m" transform="matrix(12.1,0,0,12.1,532.4,950.9)" />
<use xlink:href="#f5_25" transform="matrix(12.1,0,0,12.1,510.8,950.9)" />
<use xlink:href="#f5_26" transform="matrix(12.1,0,0,12.1,545.2,950.9)" />
<use xlink:href="#f5_27" transform="matrix(12.1,0,0,12.1,567.4,950.9)" />
<use xlink:href="#f1_h" transform="matrix(12.1,0,0,12.1,519.4,950.9)" />
<use xlink:href="#f1_f" transform="matrix(12.1,0,0,12.1,554,950.9)" />
<use xlink:href="#f3_4" transform="matrix(12.1,0,0,12.1,510.4,944.5)" />
<use xlink:href="#f0_22" transform="matrix(12,0,0,12,582.5,948.3)" />
<use xlink:href="#f0_25" transform="matrix(12,0,0,12,588.3,948.3)" />
<use xlink:href="#f0_2a" transform="matrix(12,0,0,12,593.3,948.3)" />
<use xlink:href="#f0_20" transform="matrix(12,0,0,12,602.4,948.3)" />
<use xlink:href="#f0_2f" transform="matrix(12.2,0,0,12.2,616.9,951.1)" />
<use xlink:href="#f0_25" transform="matrix(12.2,0,0,12.2,624.2,951.1)" />
<use xlink:href="#f0_2a" transform="matrix(12.2,0,0,12.2,629.4,951.1)" />
<use xlink:href="#f4_2d" transform="matrix(12.2,0,-3.3,12.2,640,951.1)" />
<use xlink:href="#f0_i" transform="matrix(12,0,0,12,654.7,948.3)" />
<use xlink:href="#f0_1j" transform="matrix(12,0,0,12,64.9,992.3)" />
<use xlink:href="#f0_2b" transform="matrix(12,0,0,12,74.1,992.3)" />
<use xlink:href="#f0_28" transform="matrix(12,0,0,12,82.1,992.3)" />
<use xlink:href="#f0_u" transform="matrix(12,0,0,12,86.2,992.3)" />
</g>
<path d="M125,982.9h9.1M235,978.7h9.2" class="g4_4" />
<g fill="#000000" >
<use xlink:href="#f0_5z" transform="matrix(11.8,0,0,11.8,152.9,989)" />
<use xlink:href="#f0_5z" transform="matrix(11.8,0,0,11.8,217.1,989)" />
<use xlink:href="#f0_5z" transform="matrix(11.8,0,0,11.8,271.3,989)" />
<use xlink:href="#f0_5z" transform="matrix(11.8,0,0,11.8,302.8,989)" />
<use xlink:href="#f0_5z" transform="matrix(11.8,0,0,11.8,327,989)" />
<use xlink:href="#f0_1x" transform="matrix(11.8,0,0,11.8,125,994.3)" />
<use xlink:href="#f0_25" transform="matrix(11.8,0,0,11.8,153.2,994.3)" />
<use xlink:href="#f0_m" transform="matrix(11.8,0,0,11.8,175.2,994.3)" />
<use xlink:href="#f0_26" transform="matrix(11.8,0,0,11.8,186.4,994.3)" />
<use xlink:href="#f0_n" transform="matrix(11.8,0,0,11.8,206.4,994.3)" />
<use xlink:href="#f0_27" transform="matrix(11.8,0,0,11.8,215.2,994.3)" />
<use xlink:href="#f0_g" transform="matrix(11.8,0,0,11.8,224.9,994.3)" />
<use xlink:href="#f0_1y" transform="matrix(11.8,0,0,11.8,235.2,994.3)" />
<use xlink:href="#f0_n" transform="matrix(11.8,0,0,11.8,262.7,994.3)" />
<use xlink:href="#f0_25" transform="matrix(11.8,0,0,11.8,271.7,994.3)" />
<use xlink:href="#f0_m" transform="matrix(11.8,0,0,11.8,293.6,994.3)" />
<use xlink:href="#f0_26" transform="matrix(11.8,0,0,11.8,304.8,994.3)" />
<use xlink:href="#f0_27" transform="matrix(11.8,0,0,11.8,325.3,994.3)" />
<use xlink:href="#f1_x" transform="matrix(11.8,0,0,11.8,139,994.3)" />
<use xlink:href="#f1_h" transform="matrix(11.8,0,0,11.8,162.1,994.3)" />
<use xlink:href="#f1_f" transform="matrix(11.8,0,0,11.8,193.6,994.3)" />
<use xlink:href="#f1_x" transform="matrix(11.8,0,0,11.8,248.9,994.3)" />
<use xlink:href="#f1_h" transform="matrix(11.8,0,0,11.8,280.5,994.3)" />
<use xlink:href="#f1_f" transform="matrix(11.8,0,0,11.8,312,994.3)" />
</g>
<path d="M122,1051.9h7.8m15.5,0h8.3m19.9,-30.2v85.4m75.4,-85.4v85.4" class="g5_4" />
<g fill="#000000" >
<use xlink:href="#f1_c" transform="matrix(11.8,0,0,15.7,268.2,1070.2)" />
<use xlink:href="#f1_d" transform="matrix(11.8,0,0,15.7,286,1070.2)" />
<use xlink:href="#f0_5z" transform="matrix(12,0,0,12,176.6,1036)" />
<use xlink:href="#f0_5z" transform="matrix(12,0,0,12,207.3,1036)" />
<use xlink:href="#f0_5z" transform="matrix(12,0,0,12,239.2,1036)" />
<use xlink:href="#f0_25" transform="matrix(12,0,0,12,176.7,1041.5)" />
<use xlink:href="#f0_26" transform="matrix(12,0,0,12,209.3,1041.5)" />
<use xlink:href="#f0_27" transform="matrix(12,0,0,12,237.4,1041.5)" />
<use xlink:href="#f0_5z" transform="matrix(12,0,0,12,294.1,1063.5)" />
<use xlink:href="#f0_5z" transform="matrix(12,0,0,12,324.8,1063.5)" />
<use xlink:href="#f0_5z" transform="matrix(12,0,0,12,358.6,1063.5)" />
<use xlink:href="#f0_1x" transform="matrix(12,0,0,12,121.6,1069)" />
<use xlink:href="#f0_1y" transform="matrix(12,0,0,12,145,1069)" />
<use xlink:href="#f0_l" transform="matrix(12,0,0,12,174.9,1069)" />
<use xlink:href="#f0_m" transform="matrix(12,0,0,12,211,1069)" />
<use xlink:href="#f0_n" transform="matrix(12,0,0,12,237.9,1069)" />
<use xlink:href="#f0_o" transform="matrix(12,0,0,12,275.8,1069)" />
<use xlink:href="#f0_25" transform="matrix(12,0,0,12,294.3,1069)" />
<use xlink:href="#f0_s" transform="matrix(12,0,0,12,315.8,1069)" />
<use xlink:href="#f0_26" transform="matrix(12,0,0,12,326.7,1069)" />
<use xlink:href="#f0_o" transform="matrix(12,0,0,12,347.3,1069)" />
<use xlink:href="#f0_27" transform="matrix(12,0,0,12,356.8,1069)" />
<use xlink:href="#f0_n" transform="matrix(12,0,0,12,175.3,1096.5)" />
<use xlink:href="#f0_m" transform="matrix(12,0,0,12,211,1096.5)" />
<use xlink:href="#f0_l" transform="matrix(12,0,0,12,237.6,1096.5)" />
<use xlink:href="#f1_3a" transform="matrix(12,0,0,12,132.4,1069)" />
<use xlink:href="#f1_x" transform="matrix(12,0,0,12,158.6,1069)" />
<use xlink:href="#f1_h" transform="matrix(12,0,0,12,201.1,1069)" />
<use xlink:href="#f1_x" transform="matrix(12,0,0,12,254.4,1069)" />
<use xlink:href="#f1_f" transform="matrix(12,0,0,12,303.2,1069)" />
<use xlink:href="#f1_f" transform="matrix(12,0,0,12,333.9,1069)" />
<use xlink:href="#f1_h" transform="matrix(12,0,0,12,201.1,1096.5)" />
</g>
<path d="M125,1139.5h9.1m15.5,-4.4h9.2m-36.3,-1.9v26.7M161,1133.2v26.7" class="g6_4" />
<g fill="#000000" >
<use xlink:href="#f1_c" transform="matrix(11.8,0,0,15.9,192.7,1152.6)" />
<use xlink:href="#f1_d" transform="matrix(11.8,0,0,15.9,210.5,1152.6)" />
<use xlink:href="#f1_c" transform="matrix(11.8,0,0,15.9,239.6,1152.6)" />
<use xlink:href="#f1_d" transform="matrix(11.8,0,0,15.9,256.3,1152.6)" />
<use xlink:href="#f1_c" transform="matrix(11.8,0,0,15.9,285.4,1152.6)" />
<use xlink:href="#f1_d" transform="matrix(11.8,0,0,15.9,303.2,1152.6)" />
</g>
<path d="M181.4,1148.9l1.8,-1.5m0,0l4.4,11.6m0,0l4.9,-30.7m0,0H317.3" class="g7_4" />
<path fill-rule="evenodd" d="M181.2,1148.7l2.5,-2.1l3.9,9.7l4.5,-28.4H317.3v.9H192.9l-4.8,30.2h-.9l-4.5,-10.8l-1.2,1l-.3,-.5Z" class="g8_4" />
<path d="M336.9,1146.6l1.9,-1m0,0l4.4,7.3m0,0l4.9,-19.5m0,0h84.6" class="g7_4" />
<path fill-rule="evenodd" d="M336.8,1146.4l2.5,-1.4l4,6l4.4,-18h85v.9H348.4l-4.7,19h-.9l-4.5,-6.8l-1.2,.8l-.3,-.5Z" class="g8_4" />
<path d="M452.3,1146.6l1.9,-1m0,0l4.4,7.3m0,0l4.9,-19.5m0,0h19.1" class="g7_4" />
<path fill-rule="evenodd" d="M452.2,1146.4l2.5,-1.4l4,6l4.4,-18h19.5v.9H463.8l-4.7,19h-.9l-4.5,-6.8l-1.2,.8l-.3,-.5Z" class="g8_4" />
<g fill="#000000" >
<use xlink:href="#f0_m" transform="matrix(7,0,0,7,216.9,1140.1)" />
<use xlink:href="#f0_m" transform="matrix(7,0,0,7,262.7,1140.1)" />
<use xlink:href="#f0_m" transform="matrix(7,0,0,7,309.6,1140.1)" />
<use xlink:href="#f0_1x" transform="matrix(12.1,0,0,12.1,125.2,1151.3)" />
<use xlink:href="#f0_1y" transform="matrix(12.1,0,0,12.1,149.8,1151.3)" />
<use xlink:href="#f0_o" transform="matrix(12.1,0,0,12.1,200.4,1151.3)" />
<use xlink:href="#f0_s" transform="matrix(12.1,0,0,12.1,246.4,1151.3)" />
<use xlink:href="#f0_o" transform="matrix(12.1,0,0,12.1,293.1,1151.3)" />
<use xlink:href="#f0_l" transform="matrix(12.1,0,0,12.1,346.8,1151.3)" />
<use xlink:href="#f0_q" transform="matrix(12.1,0,0,12.1,356,1151.3)" />
<use xlink:href="#f0_q" transform="matrix(12.1,0,0,12.1,381.1,1151.3)" />
<use xlink:href="#f0_o" transform="matrix(12.1,0,0,12.1,390.3,1151.3)" />
<use xlink:href="#f0_l" transform="matrix(12.1,0,0,12.1,413.7,1151.3)" />
<use xlink:href="#f0_q" transform="matrix(12.1,0,0,12.1,422.9,1151.3)" />
<use xlink:href="#f0_t" transform="matrix(12.1,0,0,12.1,463.6,1151.3)" />
<use xlink:href="#f0_q" transform="matrix(12.1,0,0,12.1,472.8,1151.3)" />
<use xlink:href="#f1_3a" transform="matrix(12.1,0,0,12.1,136.8,1151.3)" />
<use xlink:href="#f1_x" transform="matrix(12.1,0,0,12.1,166.6,1151.3)" />
<use xlink:href="#f1_f" transform="matrix(12.1,0,0,12.1,226.8,1151.3)" />
<use xlink:href="#f1_f" transform="matrix(12.1,0,0,12.1,272.6,1151.3)" />
<use xlink:href="#f1_x" transform="matrix(12.1,0,0,12.1,322.1,1151.3)" />
<use xlink:href="#f1_f" transform="matrix(12.1,0,0,12.1,368.1,1151.3)" />
<use xlink:href="#f1_f" transform="matrix(12.1,0,0,12.1,402.4,1151.3)" />
<use xlink:href="#f1_x" transform="matrix(12.1,0,0,12.1,437.6,1151.3)" />
<use xlink:href="#f6_o" transform="matrix(8,0,0,8,792.2,1264.3)" />
</g>
<defs>
<path d="M238,-17c0,0,-103,0,-139,25C99,8,62,33,62,62c0,0,0,22,17,38c0,0,18,16,42,16c0,0,19,0,38,-6c0,0,13,-3,58,-27c0,0,45,-23,62,-28c0,0,27,-8,59,-8c0,0,76,0,132,59c0,0,56,59,56,140c0,0,0,59,-26,115c0,0,-19,41,-42,63c0,0,-32,30,-88,54c0,0,-56,25,-114,25H232v22c0,0,59,8,118,42c0,0,59,35,86,85c0,0,27,49,27,108c0,0,0,76,-48,124c0,0,-48,47,-120,47c0,0,-116,0,-193,-124L77,819c0,0,44,102,110,158c0,0,66,56,164,56c0,0,122,0,187,-80c0,0,49,-58,49,-126c0,0,0,-110,-139,-228c0,0,93,-36,141,-104c0,0,48,-68,48,-160c0,0,0,-131,-84,-227C553,108,444,-17,238,-17Z" 
id="f0_n"
transform="scale(0.001,-0.001)" />

<path d="M197,0V27c0,0,71,2,92,13c0,0,21,10,29,29c0,0,9,18,9,109V725c0,0,0,110,-8,141c0,0,-5,24,-19,35c0,0,-14,11,-33,11c0,0,-28,0,-77,-23l-11,23l246,121h25V178c0,0,0,-85,7,-106c0,0,7,-21,29,-32c0,0,23,-11,91,-13V0Z" 
id="f0_l"
transform="scale(0.001,-0.001)" />

<path d="M678,393L506,802L330,393ZM11,0V27c0,0,63,12,82,30c0,0,38,35,84,145l356,832h27L912,193c0,0,43,-101,77,-132c0,0,35,-30,97,-34V0H687V27c0,0,60,3,82,21c0,0,21,17,21,41c0,0,0,33,-30,104L700,338H307L239,179c0,0,-26,-59,-26,-88c0,0,0,-23,22,-41c0,0,22,-17,95,-23V0Z" 
id="f0_11"
transform="scale(0.001,-0.001)" />

<path d="M58,0V26c0,0,47,0,64,10c0,0,18,10,28,32c0,0,9,23,9,86V775c0,0,0,116,-5,142c0,0,-5,27,-17,37c0,0,-11,9,-29,9c0,0,-20,0,-49,-12L46,978l204,83h34V154c0,0,0,-64,9,-85c0,0,9,-21,29,-32c0,0,19,-11,72,-11V0Z" 
id="f0_28"
transform="scale(0.001,-0.001)" />

<path d="M312,-20c0,0,-62,0,-143,22c0,0,-25,8,-40,8c0,0,-18,0,-27,-19H77V234h25c0,0,21,-105,80,-158c0,0,59,-53,132,-53c0,0,51,0,84,31c0,0,32,30,32,72c0,0,0,52,-36,87c0,0,-36,35,-144,88c0,0,-109,54,-142,97c0,0,-34,43,-34,107c0,0,0,85,58,141c0,0,58,57,150,57c0,0,40,0,97,-17c0,0,38,-11,51,-11c0,0,12,0,19,5c0,0,7,5,15,23h25V470H464c0,0,-28,110,-72,149c0,0,-45,40,-113,40c0,0,-53,0,-85,-28c0,0,-32,-27,-32,-61c0,0,0,-41,24,-71c0,0,23,-31,94,-65L389,381c0,0,152,-74,152,-194c0,0,0,-94,-71,-151c0,0,-70,-56,-158,-56Z" 
id="f0_2f"
transform="scale(0.001,-0.001)" />

<path d="M406,32c0,0,72,0,119,60c0,0,47,59,47,205c0,0,0,181,-78,286c0,0,-53,71,-135,71c0,0,-40,0,-79,-23c0,0,-40,-24,-65,-83c0,0,-24,-58,-24,-151c0,0,0,-149,59,-257c0,0,59,-108,156,-108ZM374,-20c0,0,-154,0,-245,122c0,0,-77,104,-77,233c0,0,0,94,46,187c0,0,47,92,123,137c0,0,76,44,161,44c0,0,155,0,249,-118c0,0,80,-100,80,-231c0,0,0,-91,-44,-185C667,169,623,75,546,27c0,0,-77,-47,-172,-47Z" 
id="f0_2b"
transform="scale(0.001,-0.001)" />

<path d="M82,-253v33c0,0,77,25,119,78c0,0,42,54,42,114c0,0,0,14,-7,23c0,0,-5,6,-11,6c0,0,-8,0,-35,-14c0,0,-14,-7,-28,-7c0,0,-37,0,-58,21C104,1,82,23,82,61c0,0,0,36,28,62c0,0,28,27,68,27c0,0,49,0,88,-43c0,0,38,-43,38,-113c0,0,0,-77,-53,-143c0,0,-53,-66,-169,-104Z" 
id="f0_g"
transform="scale(0.001,-0.001)" />

<path d="M25,0V26c0,0,27,4,47,19c0,0,29,22,96,111L311,346L182,535c0,0,-55,81,-86,102c0,0,-30,20,-75,20v26H341V657c0,0,-30,0,-42,-10c0,0,-13,-11,-13,-28c0,0,0,-19,27,-56c0,0,8,-12,25,-37l48,-78l56,77c0,0,55,74,55,94c0,0,0,16,0,27c0,0,0,11,0,11v26H674V657c0,0,-37,-2,-64,-20c0,0,-37,-26,-100,-111L416,402L587,156c0,0,63,-91,89,-109c0,0,27,-18,70,-21V0H423V26c0,0,34,0,53,15c0,0,14,11,14,28c0,0,0,17,-48,87L341,302L232,157c0,0,-50,-69,-50,-82c0,0,0,-18,17,-32c0,0,17,-15,50,-17V0Z" 
id="f0_2k"
transform="scale(0.001,-0.001)" />

<path d="M452,373V875L97,373ZM452,0V267H23v95l470,671h82V373H711V267H575V0Z" 
id="f0_o"
transform="scale(0.001,-0.001)" />

<path d="M33,0V27c0,0,264,241,371,393c0,0,108,152,108,278c0,0,0,96,-59,158c0,0,-59,62,-141,62c0,0,-75,0,-134,-43c0,0,-59,-44,-88,-128H63c0,0,18,138,95,212c0,0,77,74,193,74c0,0,123,0,205,-80c0,0,83,-79,83,-186c0,0,0,-77,-36,-154c0,0,-55,-121,-179,-256C424,357,238,154,191,112H455c0,0,81,0,114,6c0,0,32,6,58,25c0,0,27,18,46,52h27L630,0Z" 
id="f0_m"
transform="scale(0.001,-0.001)" />

<path d="M0,356v74H784V356Z" 
id="f1_h"
transform="scale(0.001,-0.001)" />

<path d="M0,0V72H751V0ZM751,166L0,538v38L751,949V868L123,559L751,247V166Z" 
id="f1_2t"
transform="scale(0.001,-0.001)" />

<path d="M945,-20c0,0,47,75,125,153H57v74H1147l108,91c0,0,23,19,95,72c0,0,-134,103,-203,166H57v72H1070c0,0,-78,78,-125,154h85c0,0,88,-107,217,-217c0,0,130,-110,206,-154V349c0,0,-101,-58,-219,-162c0,0,-118,-103,-204,-207Z" 
id="f1_4g"
transform="scale(0.001,-0.001)" />

<path d="M55,0V26c0,0,50,0,67,10c0,0,17,10,27,32c0,0,10,23,10,86V418c0,0,0,111,-6,144c0,0,-6,24,-17,33c0,0,-11,10,-30,10c0,0,-21,0,-51,-11L45,620l206,83h33V154c0,0,0,-64,9,-85c0,0,9,-22,27,-32c0,0,19,-11,67,-11V0ZM222,909c0,0,-32,0,-54,23c0,0,-22,22,-22,53c0,0,0,32,22,54c0,0,22,22,54,22c0,0,31,0,53,-22c0,0,22,-22,22,-54c0,0,0,-31,-22,-53c0,0,-22,-23,-53,-23Z" 
id="f0_25"
transform="scale(0.001,-0.001)" />

<path d="M21,0V26H35c0,0,53,0,71,27c0,0,18,27,18,101V408c0,0,0,123,-5,150c0,0,-6,27,-17,37c0,0,-12,10,-31,10c0,0,-21,0,-50,-11L10,620l206,83h32V558c0,0,120,145,229,145c0,0,56,0,96,-28c0,0,40,-28,64,-92c0,0,16,-45,16,-137V154c0,0,0,-65,11,-88c0,0,8,-19,26,-29c0,0,18,-11,68,-11V0H419V26h14c0,0,47,0,66,15c0,0,20,15,27,43c0,0,3,11,3,70V434c0,0,0,93,-24,135c0,0,-24,42,-81,42c0,0,-88,0,-176,-97V154c0,0,0,-69,9,-86c0,0,10,-21,28,-31c0,0,19,-11,75,-11V0Z" 
id="f0_2a"
transform="scale(0.001,-0.001)" />

<path d="M83,0C83,0,48,0,24,24C24,24,0,49,0,83c0,0,0,34,24,58c0,0,24,24,59,24c0,0,34,0,58,-24c0,0,24,-24,24,-58c0,0,0,-34,-24,-59C141,24,117,0,83,0ZM695,0c0,0,-34,0,-58,24c0,0,-25,25,-25,59c0,0,0,34,25,58c0,0,24,24,58,24c0,0,34,0,58,-24c0,0,24,-24,24,-58c0,0,0,-34,-24,-59C753,24,729,0,695,0ZM388,594c0,0,-34,0,-59,23c0,0,-24,24,-24,59c0,0,0,34,24,58c0,0,25,25,59,25c0,0,34,0,58,-25c0,0,24,-24,24,-58c0,0,0,-35,-24,-59c0,0,-24,-23,-58,-23Z" 
id="f1_1s"
transform="scale(0.001,-0.001)" />

<path d="M338,28c0,0,48,0,91,45c0,0,43,45,65,144c0,0,22,99,26,276H143c0,0,3,-133,20,-239c0,0,13,-80,44,-140c0,0,19,-36,54,-61c0,0,36,-25,77,-25ZM522,543c0,0,-1,194,-37,312c0,0,-29,90,-76,129c0,0,-34,28,-79,28c0,0,-51,0,-93,-39c0,0,-43,-40,-65,-132c0,0,-22,-93,-29,-298ZM329,-21c0,0,-68,0,-124,31c0,0,-56,33,-99,95c0,0,-43,62,-66,131C40,236,0,356,0,489c0,0,0,294,119,453c0,0,91,119,217,119c0,0,122,0,209,-115c0,0,121,-160,121,-436c0,0,0,-263,-119,-415C547,95,455,-21,329,-21Z" 
id="f1_2d"
transform="scale(0.001,-0.001)" />

<path d="M0,214v74H784V214ZM0,494v72H784V494Z" 
id="f1_x"
transform="scale(0.001,-0.001)" />

<path d="M412,-328c0,0,-195,96,-303,284C109,-44,0,142,0,365c0,0,0,232,114,422c0,0,114,191,298,273v-31c0,0,-92,-51,-151,-139c0,0,-59,-88,-88,-223c0,0,-29,-136,-29,-282c0,0,0,-167,27,-301c0,0,26,-133,82,-221c0,0,55,-89,159,-159v-32Z" 
id="f1_c"
transform="scale(0.001,-0.001)" />

<path d="M34,-328v32c0,0,92,50,151,138c0,0,59,88,88,222c0,0,29,135,29,283c0,0,0,165,-27,300c0,0,-26,134,-82,222c0,0,-56,89,-159,160v31c0,0,194,-96,303,-284c0,0,108,-187,108,-410c0,0,0,-232,-114,-422c0,0,-114,-191,-297,-272Z" 
id="f1_d"
transform="scale(0.001,-0.001)" />

<path d="M945,-20c0,0,47,75,125,153H57v74H1147l108,91c0,0,23,19,95,72c0,0,-134,103,-203,166H57v72H1070c0,0,-78,78,-125,154h85c0,0,88,-107,217,-217c0,0,130,-110,206,-154V349c0,0,-101,-58,-219,-162c0,0,-118,-103,-204,-207Z" 
id="f2_4g"
transform="scale(0.001,-0.001)" />

<path d="M0,356v74H784V356Z" 
id="f2_h"
transform="scale(0.001,-0.001)" />

<path d="M0,214v74H784V214ZM0,494v72H784V494Z" 
id="f2_x"
transform="scale(0.001,-0.001)" />

<path d="M412,-328c0,0,-195,96,-303,284C109,-44,0,142,0,365c0,0,0,232,114,422c0,0,114,191,298,273v-31c0,0,-92,-51,-151,-139c0,0,-59,-88,-88,-223c0,0,-29,-136,-29,-282c0,0,0,-167,27,-301c0,0,26,-133,82,-221c0,0,55,-89,159,-159v-32Z" 
id="f2_c"
transform="scale(0.001,-0.001)" />

<path d="M34,-328v32c0,0,92,50,151,138c0,0,59,88,88,222c0,0,29,135,29,283c0,0,0,165,-27,300c0,0,-26,134,-82,222c0,0,-56,89,-159,160v31c0,0,194,-96,303,-284c0,0,108,-187,108,-410c0,0,0,-232,-114,-422c0,0,-114,-191,-297,-272Z" 
id="f2_d"
transform="scale(0.001,-0.001)" />

<path d="M379,437c0,0,34,0,81,16c0,0,47,17,83,47c0,0,14,97,14,155c0,0,0,72,-25,156c0,0,-25,83,-70,128c0,0,-45,45,-103,45c0,0,-66,0,-116,-60c0,0,-50,-59,-50,-177c0,0,0,-157,66,-246c0,0,49,-64,120,-64ZM80,-20V7c0,0,97,1,181,45c0,0,83,44,161,153c0,0,78,109,109,240c0,0,-117,-75,-212,-75c0,0,-107,0,-183,82c0,0,-76,82,-76,219c0,0,0,132,76,236c0,0,92,126,240,126c0,0,124,0,213,-103c0,0,109,-128,109,-315c0,0,0,-169,-82,-314C616,301,533,155,385,59c0,0,-120,-79,-262,-79Z" 
id="f0_t"
transform="scale(0.001,-0.001)" />

<path d="M191,-20c0,0,-34,0,-58,24c0,0,-24,24,-24,58c0,0,0,35,24,59c0,0,24,24,58,24c0,0,35,0,59,-24c0,0,24,-25,24,-59c0,0,0,-34,-24,-58c0,0,-25,-24,-59,-24Z" 
id="f0_i"
transform="scale(0.001,-0.001)" />

<path d="M397,34c0,0,67,0,126,75c0,0,58,74,58,216c0,0,0,131,-58,201c0,0,-59,70,-133,70c0,0,-39,0,-79,-20c0,0,-29,-14,-75,-59V109c0,0,37,-37,78,-56c0,0,40,-19,83,-19ZM358,-20c0,0,-59,0,-121,21c0,0,-61,22,-126,65V773c0,0,0,117,-5,144c0,0,-6,27,-18,37c0,0,-12,9,-29,9c0,0,-21,0,-53,-12l-9,27l205,83h34V564c0,0,98,139,213,139c0,0,105,0,183,-90c0,0,78,-90,78,-245c0,0,0,-182,-121,-293c0,0,-103,-95,-231,-95Z" 
id="f0_1y"
transform="scale(0.001,-0.001)" />

<path d="M286,72c0,0,57,0,149,75V407c0,0,-113,-45,-145,-64c0,0,-59,-32,-85,-68c0,0,-25,-36,-25,-78c0,0,0,-54,32,-89c0,0,32,-36,74,-36ZM217,-13c0,0,-71,0,-116,48c0,0,-46,48,-46,127c0,0,0,50,22,87c0,0,31,50,106,95c0,0,76,45,252,109v26c0,0,0,102,-32,140c0,0,-32,38,-94,38c0,0,-47,0,-74,-25c0,0,-28,-25,-28,-58l1,-43c0,0,0,-34,-17,-53c0,0,-18,-18,-47,-18c0,0,-28,0,-45,19c0,0,-18,19,-18,53c0,0,0,64,66,117c0,0,65,54,184,54c0,0,91,0,149,-31c0,0,44,-23,65,-72c0,0,13,-32,13,-131V238c0,0,0,-98,4,-120c0,0,4,-22,12,-29c0,0,9,-8,20,-8c0,0,12,0,21,5c0,0,16,10,61,55V99C676,99,592,-12,516,-12c0,0,-37,0,-58,24c0,0,-22,26,-23,86C435,98,330,17,303,5c0,0,-40,-18,-86,-18Z" 
id="f0_1x"
transform="scale(0.001,-0.001)" />

<path d="M342,-20c0,0,-116,0,-203,97c0,0,-86,98,-86,264c0,0,0,161,96,261c0,0,95,101,230,101c0,0,100,0,165,-53c0,0,65,-54,65,-111c0,0,0,-29,-18,-46c0,0,-18,-18,-51,-18c0,0,-44,0,-66,29c0,0,-13,15,-17,59c0,0,-4,45,-30,68c0,0,-26,22,-73,22c0,0,-74,0,-120,-55c0,0,-60,-73,-60,-193c0,0,0,-122,60,-216c0,0,60,-93,162,-93c0,0,73,0,131,49c0,0,41,35,80,126l22,-10C629,261,601,125,521,52c0,0,-81,-72,-179,-72Z" 
id="f0_1z"
transform="scale(0.001,-0.001)" />

<path d="M13,0V26c0,0,52,0,78,13c0,0,16,8,24,25c0,0,11,25,11,86V773c0,0,0,118,-5,145c0,0,-5,26,-17,36c0,0,-12,10,-32,10c0,0,-15,0,-47,-13L13,978l203,83h34V381L424,540c0,0,55,50,64,64c0,0,6,9,6,18c0,0,0,15,-12,26c0,0,-13,11,-41,12v23H738V660c0,0,-61,-2,-102,-19c0,0,-40,-17,-89,-62L372,418L547,196c0,0,73,-92,98,-117c0,0,36,-35,63,-45c0,0,18,-8,65,-8V0H441V26c0,0,28,1,38,9c0,0,10,8,10,22c0,0,0,17,-29,56L250,381V154c0,0,0,-67,10,-88c0,0,9,-21,26,-30c0,0,17,-9,75,-10V0Z" 
id="f0_27"
transform="scale(0.001,-0.001)" />

<path d="M399,62c0,0,68,0,131,68V481c0,0,-5,51,-27,93c0,0,-22,42,-59,63c0,0,-37,21,-72,21c0,0,-65,0,-117,-59c0,0,-67,-77,-67,-226c0,0,0,-151,65,-231c0,0,66,-80,146,-80ZM330,-20c0,0,-112,0,-196,93c0,0,-83,94,-83,240c0,0,0,147,92,269c0,0,93,122,238,122c0,0,90,0,149,-58V773c0,0,0,117,-6,144c0,0,-5,27,-17,37c0,0,-12,9,-30,9c0,0,-20,0,-52,-12l-9,27l204,83h33V270c0,0,0,-120,6,-146c0,0,5,-27,18,-37c0,0,12,-11,28,-11c0,0,21,0,54,13l9,-26L564,-20H530V78C530,78,480,25,432,2c0,0,-47,-22,-102,-22Z" 
id="f0_20"
transform="scale(0.001,-0.001)" />

<path d="M17,0V26c0,0,52,0,77,17c0,0,19,12,26,38c0,0,4,13,4,73V419c0,0,0,119,-5,142c0,0,-4,23,-17,33c0,0,-13,11,-33,11c0,0,-23,0,-52,-11l-7,26l207,83h31V549c0,0,86,154,176,154c0,0,41,0,68,-25c0,0,27,-25,27,-58c0,0,0,-29,-20,-49c0,0,-19,-20,-46,-20c0,0,-26,0,-58,25c0,0,-33,26,-48,26c0,0,-14,0,-29,-15c0,0,-34,-30,-70,-101V159c0,0,0,-56,15,-85c0,0,9,-20,34,-34c0,0,24,-14,71,-14V0Z" 
id="f0_2e"
transform="scale(0.001,-0.001)" />

<path d="M479,469c0,0,-4,66,-16,93c0,0,-18,42,-55,65c0,0,-37,24,-78,24c0,0,-62,0,-111,-48c0,0,-48,-48,-57,-134ZM355,-20c0,0,-123,0,-211,95c0,0,-87,96,-87,258c0,0,0,175,90,273c0,0,89,98,225,98c0,0,115,0,189,-76c0,0,74,-75,74,-202H162c0,0,0,-152,74,-239c0,0,75,-86,175,-86c0,0,67,0,117,36c0,0,50,37,83,127l24,-15c0,0,-16,-102,-91,-186c0,0,-76,-83,-189,-83Z" 
id="f0_21"
transform="scale(0.001,-0.001)" />

<path d="M255,-10c0,0,-35,0,-68,18c0,0,-32,19,-48,55c0,0,-16,35,-16,109V632H15v24c0,0,41,16,84,56c0,0,43,39,77,92c0,0,17,29,48,104h23V683H407V632H247V188c0,0,0,-66,19,-90c0,0,19,-23,49,-23c0,0,24,0,47,16c0,0,23,15,36,45h29c0,0,-26,-73,-74,-110c0,0,-47,-36,-98,-36Z" 
id="f0_2g"
transform="scale(0.001,-0.001)" />

<path d="M411,-239c0,0,134,0,198,48c0,0,64,47,64,100c0,0,0,39,-38,55c0,0,-39,16,-154,19c0,0,-167,5,-258,17c0,0,-35,-37,-53,-70c0,0,-17,-32,-17,-60c0,0,0,-36,43,-62c0,0,74,-47,215,-47ZM380,257c0,0,56,0,93,43c0,0,36,42,36,133c0,0,0,118,-51,185c0,0,-38,49,-98,49c0,0,-55,0,-92,-44c0,0,-37,-44,-37,-135c0,0,0,-117,50,-182c0,0,39,-49,99,-49ZM345,-328c0,0,-144,0,-243,64c0,0,-56,38,-56,78c0,0,0,18,8,36c0,0,13,27,52,76c0,0,5,7,76,80c0,0,-39,23,-55,41c0,0,-16,19,-16,42c0,0,0,26,22,61c0,0,21,35,98,100c0,0,-63,30,-97,85c0,0,-33,55,-33,121c0,0,0,101,76,174c0,0,77,73,196,73c0,0,98,0,170,-48H688c0,0,32,0,37,-2c0,0,6,-2,8,-6c0,0,4,-7,4,-24c0,0,0,-20,-4,-27c0,0,-2,-4,-7,-6c0,0,-6,-2,-38,-2H599c0,0,41,-54,41,-137c0,0,0,-96,-73,-163c0,0,-73,-68,-196,-68c0,0,-51,0,-104,15c0,0,-33,-28,-44,-49c0,0,-12,-22,-12,-37c0,0,0,-12,13,-24c0,0,12,-12,48,-17c0,0,21,-4,104,-6c0,0,154,-4,199,-11c0,0,70,-10,111,-51c0,0,42,-41,42,-102c0,0,0,-84,-79,-158c0,0,-117,-108,-304,-108Z" 
id="f0_23"
transform="scale(0.001,-0.001)" />

<path d="M20,0V26c0,0,45,0,71,15c0,0,15,7,24,28c0,0,9,21,9,85V773c0,0,0,117,-5,144c0,0,-6,27,-17,37c0,0,-12,9,-31,9c0,0,-16,0,-51,-12L10,978l204,83h34V561c0,0,83,91,131,116c0,0,49,26,97,26c0,0,58,0,100,-32c0,0,42,-32,62,-101c0,0,14,-47,14,-174V154c0,0,0,-65,11,-89c0,0,7,-18,25,-28c0,0,18,-11,66,-11V0H418V26h15c0,0,48,0,67,15c0,0,18,15,26,43c0,0,2,12,2,70V396c0,0,0,112,-12,147c0,0,-11,35,-36,53c0,0,-26,17,-61,17c0,0,-37,0,-76,-19c0,0,-40,-20,-95,-79V154c0,0,0,-70,8,-87c0,0,8,-17,29,-29c0,0,22,-12,74,-12V0Z" 
id="f0_24"
transform="scale(0.001,-0.001)" />

<path d="M24,0V27H60c0,0,63,0,91,37c0,0,18,24,18,115V833c0,0,0,77,-10,102c0,0,-7,18,-30,32c0,0,-32,18,-69,18H24v27H776L787,790H761c0,0,-20,71,-45,104c0,0,-26,33,-64,48c0,0,-37,15,-117,15H312V558H497c0,0,63,0,93,28c0,0,29,28,39,111h27V355H629c0,0,-1,59,-16,87c0,0,-14,27,-40,41c0,0,-26,14,-76,14H312V179c0,0,0,-77,10,-102c0,0,7,-18,31,-32c0,0,33,-18,69,-18h37V0Z" 
id="f0_16"
transform="scale(0.001,-0.001)" />

<path d="M398,24c0,0,74,0,120,58c0,0,61,76,61,214c0,0,0,156,-69,240c0,0,-47,59,-113,59c0,0,-36,0,-71,-18c0,0,-27,-14,-88,-81V242c0,0,0,-83,6,-109c0,0,11,-43,51,-76c0,0,41,-33,103,-33ZM-4,-326v27H15c5,0,42,0,69,16c0,0,14,8,22,26c0,0,7,19,7,94V481c0,0,0,67,-6,85c0,0,-5,18,-18,27c0,0,-13,9,-36,9c0,0,-18,0,-45,-10L0,615l209,85h29V540c0,0,53,91,106,127c0,0,53,36,112,36c0,0,103,0,172,-80c0,0,84,-99,84,-257c0,0,0,-176,-102,-292c0,0,-83,-94,-210,-94c0,0,-55,0,-95,16c0,0,-30,10,-67,44V-167c0,0,0,-71,8,-90c0,0,9,-20,30,-31c0,0,21,-11,77,-11v-27Z" 
id="f0_2c"
transform="scale(0.001,-0.001)" />

<path d="M145,-328c0,0,-44,0,-73,25c0,0,-28,25,-28,58c0,0,0,31,21,50c0,0,20,19,56,19c0,0,25,0,67,-16c0,0,30,-11,38,-11c0,0,22,0,49,23c0,0,26,23,53,89L376,28L131,542c0,0,-11,24,-36,58c0,0,-19,27,-30,36c0,0,-18,12,-56,21v26H328V657H312c0,0,-33,0,-50,-15c0,0,-17,-14,-17,-36c0,0,0,-30,25,-81L437,179L589,557c0,0,12,31,12,62c0,0,0,13,-5,20c0,0,-6,8,-19,13c0,0,-12,5,-44,5v26H754V657c0,0,-27,-3,-42,-12c0,0,-15,-9,-33,-34c0,0,-7,-10,-25,-58L376,-128c0,0,-40,-99,-105,-150c0,0,-66,-50,-126,-50Z" 
id="f0_2l"
transform="scale(0.001,-0.001)" />

<path d="M63,0V26H93c0,0,30,0,54,15c0,0,25,15,34,41c0,0,10,25,10,99V630H58v53H191v45c0,0,0,102,33,173c0,0,32,71,100,114c0,0,68,44,152,44c0,0,79,0,145,-51c0,0,43,-33,43,-75c0,0,0,-22,-19,-42c0,0,-20,-20,-42,-20c0,0,-17,0,-36,12c0,0,-19,13,-47,53c0,0,-28,41,-51,55c0,0,-23,14,-51,14c0,0,-35,0,-58,-18c0,0,-24,-18,-35,-57c0,0,-10,-38,-10,-197V683H491V630H315V181c0,0,0,-96,21,-122c0,0,27,-33,73,-33h62V0Z" 
id="f0_22"
transform="scale(0.001,-0.001)" />

<path d="M292,-20c0,0,-57,0,-100,33c0,0,-42,33,-58,85c0,0,-17,52,-17,148V551c0,0,0,49,-10,68c0,0,-11,18,-31,29c0,0,-19,9,-68,9c-2,0,-4,0,-6,0v26H242V226c0,0,0,-95,33,-125c0,0,33,-30,80,-30c0,0,32,0,73,21c0,0,40,20,96,76V555c0,0,0,59,-21,80c0,0,-22,21,-89,22v26H647V269c0,0,0,-119,6,-145c0,0,6,-27,18,-37c0,0,12,-11,29,-11c0,0,23,0,52,13L763,63L558,-20H524V124C524,124,436,29,390,4c0,0,-47,-24,-98,-24Z" 
id="f0_2h"
transform="scale(0.001,-0.001)" />

<path d="M23,0V26c0,0,47,0,66,10c0,0,19,11,28,33c0,0,10,22,10,85V416c0,0,0,112,-7,145c0,0,-5,25,-16,34c0,0,-11,10,-31,10c0,0,-21,0,-50,-11L12,620l207,83h32V557c0,0,75,75,88,86c0,0,34,29,72,44c0,0,39,16,77,16c0,0,64,0,110,-37c0,0,47,-38,62,-109c0,0,77,90,130,118c0,0,53,28,109,28c0,0,54,0,96,-28c0,0,42,-28,67,-91c0,0,16,-43,16,-136V154c0,0,0,-64,10,-88c0,0,8,-16,28,-28c0,0,20,-12,65,-12V0H844V26h14c0,0,44,0,69,18c0,0,17,12,24,38c0,0,3,13,3,72V448c0,0,0,83,-20,117c0,0,-29,48,-93,48c0,0,-39,0,-79,-20c0,0,-40,-19,-97,-73l-1,-8l2,-32V154c0,0,0,-70,8,-87c0,0,7,-17,29,-29c0,0,21,-12,73,-12V0H431V26c0,0,57,0,78,14c0,0,21,13,29,40c0,0,4,13,4,74V448c0,0,0,83,-25,120c0,0,-33,48,-91,48c0,0,-40,0,-80,-22c0,0,-61,-33,-95,-74V154c0,0,0,-67,10,-87c0,0,9,-20,27,-30c0,0,18,-11,74,-11V0Z" 
id="f0_29"
transform="scale(0.001,-0.001)" />

<path d="M394,23c0,0,80,0,129,45c0,0,48,45,48,110c0,0,0,54,-28,97c0,0,-53,79,-214,206c0,0,-62,-52,-92,-114c0,0,-30,-61,-30,-133c0,0,0,-96,53,-154c0,0,52,-57,134,-57Zm17,566c0,0,90,81,114,128c0,0,24,46,24,105c0,0,0,79,-44,123c0,0,-44,45,-121,45c0,0,-76,0,-124,-45c0,0,-48,-44,-48,-103c0,0,0,-38,20,-77c0,0,20,-39,56,-74L411,589ZM382,-17c0,0,-144,0,-225,90c0,0,-64,72,-64,158c0,0,0,67,45,133c0,0,45,66,156,146c0,0,-121,98,-156,158c0,0,-34,59,-34,124c0,0,0,98,76,169c0,0,76,72,202,72c0,0,123,0,198,-67c0,0,74,-66,74,-151c0,0,0,-57,-40,-116c0,0,-40,-59,-168,-139c0,0,132,-101,174,-159c0,0,57,-76,57,-161c0,0,0,-106,-82,-182c0,0,-81,-75,-213,-75Z" 
id="f0_s"
transform="scale(0.001,-0.001)" />

<path d="M376,-20L133,556c0,0,-17,41,-31,58c0,0,-15,18,-39,30c0,0,-12,7,-50,13v26H335V657H314c0,0,-29,0,-44,-14c0,0,-16,-14,-15,-38c0,0,-1,-26,15,-62L429,165L588,557c0,0,17,42,17,64c0,0,0,10,-6,17c0,0,-8,11,-21,15c0,0,-13,4,-52,4v26H750V657c0,0,-39,-3,-54,-16c0,0,-26,-23,-47,-76L409,-20Z" 
id="f0_2i"
transform="scale(0.001,-0.001)" />

<path d="M107,-21V325h27c0,0,19,-109,52,-163c0,0,33,-54,100,-90c0,0,68,-36,148,-36c0,0,93,0,148,49c0,0,54,50,54,117c0,0,0,37,-21,75c0,0,-20,38,-64,71c0,0,-29,22,-159,95c0,0,-130,72,-185,115c0,0,-55,44,-83,96c0,0,-28,52,-28,114c0,0,0,109,83,188c0,0,84,78,213,78c0,0,81,0,171,-39c0,0,42,-19,59,-19c0,0,20,0,32,11c0,0,12,12,20,47h27V684H674c0,0,-14,101,-48,161c0,0,-35,60,-100,95c0,0,-64,35,-133,35c0,0,-77,0,-128,-47c0,0,-51,-48,-51,-108c0,0,0,-46,32,-84c0,0,47,-56,221,-149c0,0,142,-76,194,-117c0,0,51,-41,80,-96c0,0,28,-55,28,-115c0,0,0,-115,-90,-198c0,0,-89,-82,-229,-82c0,0,-44,0,-83,6c0,0,-23,4,-95,27c0,0,-73,24,-93,24c0,0,-18,0,-29,-11c0,0,-11,-12,-16,-46Z" 
id="f0_1j"
transform="scale(0.001,-0.001)" />

<path d="M213,-20c0,0,-34,0,-58,24c0,0,-24,24,-24,58c0,0,0,34,24,58c0,0,24,25,58,25c0,0,35,0,59,-25c0,0,24,-24,24,-58c0,0,0,-34,-24,-58c0,0,-25,-24,-59,-24Zm3,559c0,0,-35,0,-59,24c0,0,-24,24,-24,58c0,0,0,35,24,59c0,0,24,24,59,24c0,0,34,0,58,-24c0,0,24,-24,24,-59c0,0,0,-34,-24,-58c0,0,-24,-24,-58,-24Z" 
id="f0_u"
transform="scale(0.001,-0.001)" />

<path d="M417,-328c0,0,-125,17,-203,101c0,0,-78,83,-78,189c0,0,0,49,17,120c0,0,17,72,17,108c0,0,0,55,-42,100c0,0,-42,45,-128,61v29c0,0,80,15,125,59c0,0,44,45,44,98c0,0,0,39,-17,110c0,0,-18,71,-18,122c0,0,0,105,79,191c0,0,79,85,203,100v-28c0,0,-85,-15,-129,-65c0,0,-45,-49,-45,-114c0,0,0,-45,15,-117c0,0,15,-72,15,-120c0,0,0,-74,-53,-142c0,0,-53,-68,-158,-106c0,0,107,-44,160,-111c0,0,52,-67,52,-141c0,0,0,-45,-15,-117c0,0,-15,-73,-15,-117c0,0,0,-64,43,-113c0,0,42,-49,131,-71v-26Z" 
id="f1_2n"
transform="scale(0.001,-0.001)" />

<path d="M160,-328v29c0,0,85,15,129,64c0,0,44,48,44,114c0,0,0,45,-14,117c0,0,-15,71,-15,120c0,0,0,73,53,142c0,0,53,68,158,106c0,0,-108,43,-160,110c0,0,-52,67,-52,141c0,0,0,45,15,118c0,0,14,73,14,117c0,0,0,64,-42,113c0,0,-42,49,-131,71v26c0,0,125,-17,203,-101c0,0,78,-84,78,-188c0,0,0,-50,-17,-122c0,0,-17,-72,-17,-109c0,0,0,-54,42,-99c0,0,41,-45,128,-61V351c0,0,-81,-14,-125,-59c0,0,-44,-45,-44,-97c0,0,0,-39,17,-111c0,0,18,-71,18,-121c0,0,0,-105,-79,-190c0,0,-79,-86,-203,-101Z" 
id="f1_2p"
transform="scale(0.001,-0.001)" />

<path d="M405,24c0,0,65,0,116,62c0,0,51,61,51,174c0,0,0,128,-50,221c0,0,-51,93,-144,93c0,0,-29,0,-61,-12c0,0,-33,-12,-96,-51c0,0,-14,-101,-14,-163c0,0,0,-72,27,-155c0,0,26,-84,79,-134c0,0,38,-35,92,-35ZM384,-17c0,0,-104,0,-177,68C207,51,66,185,66,397c0,0,0,136,54,258c0,0,54,122,156,217c0,0,101,95,193,128c0,0,93,33,172,33h44v-28c0,0,-99,-10,-161,-39c0,0,-62,-29,-123,-90c0,0,-61,-60,-101,-135c0,0,-39,-74,-66,-176c0,0,107,73,215,73c0,0,104,0,180,-83c0,0,76,-84,76,-215c0,0,0,-126,-77,-231c0,0,-92,-126,-244,-126Z" 
id="f0_q"
transform="scale(0.001,-0.001)" />

<path d="M27,354v62H831V354Zm0,243v62H831V597Z" 
id="f0_x"
transform="scale(0.001,-0.001)" />

<path d="M356,519c0,0,145,0,218,63c0,0,74,63,74,160c0,0,0,95,-60,154c0,0,-59,59,-157,59c0,0,-43,0,-117,-13V520c0,0,14,0,25,0c0,0,10,-1,17,-1ZM26,0V27H64c0,0,64,0,92,42c0,0,15,23,15,110V833c0,0,0,96,-21,119c0,0,-29,33,-86,33H26v27H395c0,0,161,0,238,-24c0,0,76,-23,129,-86c0,0,54,-63,54,-151c0,0,0,-93,-61,-162c0,0,-61,-68,-189,-97L775,202c0,0,72,-100,123,-133c0,0,52,-33,134,-42V0H762L419,473c0,0,-38,-1,-61,-1c0,0,-10,0,-21,0c0,0,-11,0,-23,1V179c0,0,0,-96,21,-119c0,0,28,-33,84,-33h40V0Z" 
id="f0_1i"
transform="scale(0.001,-0.001)" />

<path d="M628,-328c0,0,-124,17,-202,101c0,0,-78,84,-78,186c0,0,0,52,17,124c0,0,16,71,16,111c0,0,0,53,-44,100c0,0,-45,47,-124,57v30c0,0,79,11,124,57c0,0,44,46,44,100c0,0,0,40,-16,111c0,0,-17,70,-17,125c0,0,0,101,78,185c0,0,78,85,202,101v-26c0,0,-87,-21,-128,-69c0,0,-40,-47,-40,-103c0,0,0,-44,16,-116c0,0,17,-72,17,-123c0,0,0,-75,-55,-146c0,0,-55,-70,-163,-109c0,0,106,-40,162,-112c0,0,56,-72,56,-147c0,0,0,-51,-17,-122c0,0,-16,-72,-16,-116c0,0,0,-57,40,-104c0,0,41,-47,128,-69v-26Z" 
id="f0_2n"
transform="scale(0.001,-0.001)" />

<path d="M247,-17c0,0,-91,0,-132,30c0,0,-42,31,-42,68c0,0,0,21,17,37c0,0,18,16,44,17c0,0,19,0,34,-6c0,0,14,-7,49,-31c0,0,56,-39,113,-39c0,0,88,0,154,66c0,0,66,66,66,161c0,0,0,92,-59,171c0,0,-59,80,-163,123c0,0,-81,34,-221,39l194,393H663L605,885H301L234,750c0,0,198,-29,313,-147c0,0,100,-102,100,-239c0,0,0,-80,-33,-148c0,0,-32,-68,-81,-116c0,0,-50,-47,-110,-77c0,0,-86,-40,-176,-40Z" 
id="f0_p"
transform="scale(0.001,-0.001)" />

<path d="M132,-328v26c0,0,87,21,128,68c0,0,40,47,40,105c0,0,0,44,-17,115c0,0,-17,71,-17,121c0,0,0,76,55,147c0,0,55,71,164,109c0,0,-107,40,-163,112c0,0,-56,72,-56,148c0,0,0,50,17,122c0,0,17,72,17,116c0,0,0,57,-40,104c0,0,-41,48,-128,69v26c0,0,124,-17,202,-100c0,0,78,-84,78,-187c0,0,0,-54,-17,-125c0,0,-18,-71,-18,-110c0,0,0,-54,45,-101c0,0,45,-46,125,-57V350c0,0,-80,-10,-125,-57c0,0,-45,-47,-45,-100c0,0,0,-40,18,-111c0,0,17,-71,17,-124c0,0,0,-101,-78,-185c0,0,-78,-84,-202,-101Z" 
id="f0_2p"
transform="scale(0.001,-0.001)" />

<path d="M548,-21c0,0,-251,0,-389,185C159,164,56,303,56,490c0,0,0,152,68,278c0,0,67,127,186,197c0,0,119,69,260,69c0,0,109,0,216,-53c0,0,31,-17,44,-17c0,0,20,0,35,14c0,0,20,21,28,56h26L943,690H919c0,0,-46,155,-131,224c0,0,-86,68,-206,68c0,0,-100,0,-181,-51c0,0,-81,-52,-128,-163c0,0,-46,-112,-46,-279c0,0,0,-137,44,-238c0,0,44,-101,132,-154c0,0,88,-54,201,-54c0,0,99,0,174,42c0,0,75,42,165,167l23,-14C966,238,890,103,789,40c0,0,-102,-61,-241,-61Z" 
id="f0_13"
transform="scale(0.001,-0.001)" />

<path d="M485,53c0,0,135,0,206,61c0,0,71,60,71,150c0,0,0,59,-32,114c0,0,-33,54,-105,85c0,0,-72,32,-179,32c0,0,-46,0,-79,-2c0,0,-33,-1,-53,-5V73c0,0,86,-20,171,-20ZM455,547c0,0,109,0,164,23c0,0,55,24,84,72c0,0,29,49,29,106c0,0,0,89,-72,151c0,0,-73,63,-212,63c0,0,-74,0,-134,-16V557c0,0,27,-5,63,-8c0,0,35,-2,78,-2ZM24,0V27H63c0,0,63,0,91,41c0,0,17,26,17,111V833c0,0,0,94,-22,119c0,0,-29,33,-86,33H24v27H462c0,0,122,0,196,-18c0,0,112,-27,171,-95c0,0,59,-68,59,-157c0,0,0,-76,-46,-136c0,0,-47,-60,-137,-89c0,0,105,-23,157,-72c0,0,73,-69,73,-168c0,0,0,-75,-48,-145C887,132,839,63,756,32C756,32,673,0,502,0Z" 
id="f0_12"
transform="scale(0.001,-0.001)" />

<path d="M46,-163V692c0,98,34,182,34,182c35,84,95,145,95,145c60,61,144,95,144,95c84,35,184,35,184,35c97,0,181,-34,181,-34c84,-33,145,-94,145,-94c61,-62,96,-145,96,-145c34,-83,34,-184,34,-184V-163H869V692c0,78,-28,146,-28,146c-28,68,-77,118,-77,118c-49,51,-116,80,-116,80c-68,29,-145,29,-145,29c-78,0,-146,-29,-146,-29C290,1007,241,956,241,956C191,906,163,838,163,838C136,770,136,692,136,692V-163Z" 
id="f3_w"
transform="scale(0.001,-0.001)" />

<path d="M435,502c0,0,78,0,134,60c0,0,57,60,57,155c0,0,0,66,-27,122c0,0,-27,56,-76,84c0,0,-50,28,-112,28c0,0,-38,0,-98,-14V517c0,0,39,-8,70,-12c0,0,31,-3,52,-3ZM25,0V27H63c0,0,65,0,92,42c0,0,15,23,15,110V833c0,0,0,96,-20,119c0,0,-29,33,-87,33H25v27H396c0,0,136,0,214,-28c0,0,78,-28,132,-94c0,0,54,-67,54,-158c0,0,0,-124,-82,-202c0,0,-82,-77,-231,-77c0,0,-36,0,-79,5c0,0,-43,5,-91,16V179c0,0,0,-96,21,-119c0,0,28,-33,85,-33h39V0Z" 
id="f0_1g"
transform="scale(0.001,-0.001)" />

<path d="M62,-123V268c0,0,0,230,56,452c0,0,47,190,134,334c0,0,87,144,204,242c0,0,85,73,194,119l18,-16c0,0,-211,-145,-335,-339c0,0,-98,-156,-149,-374c0,0,-50,-218,-50,-403V-123Z" 
id="f1_4o"
transform="scale(0.001,-0.001)" />

<path d="M617,-123V283c0,0,0,236,-63,459c0,0,-63,223,-188,392c0,0,-108,146,-282,265l17,16c0,0,180,-76,320,-248c0,0,139,-172,204,-417c0,0,64,-245,64,-482V-123Z" 
id="f1_54"
transform="scale(0.001,-0.001)" />

<path d="M62,-123V1415h72V-123Z" 
id="f1_4p"
transform="scale(0.001,-0.001)" />

<path d="M617,-123V1415h72V-123Z" 
id="f1_55"
transform="scale(0.001,-0.001)" />

<path d="M650,-123c0,0,-180,75,-319,246c0,0,-140,172,-205,418c0,0,-64,245,-64,481v393h72V1007c0,0,0,-236,63,-459c0,0,63,-223,189,-391c0,0,108,-145,282,-265l-18,-15Z" 
id="f1_4q"
transform="scale(0.001,-0.001)" />

<path d="M101,-123l-17,15c0,0,210,144,334,339c0,0,99,156,149,373c0,0,50,218,50,403v408h72V1022c0,0,0,-230,-56,-451c0,0,-48,-191,-134,-335C499,236,412,92,295,-5c0,0,-84,-73,-194,-118Z" 
id="f1_56"
transform="scale(0.001,-0.001)" />

<path d="M336,-20L117,554c0,0,-21,55,-42,74c0,0,-21,19,-66,29v26H296V657c0,0,-40,-3,-52,-14c0,0,-13,-12,-13,-33c0,0,0,-23,13,-56L390,162L537,481L498,581c0,0,-18,46,-47,63c0,0,-17,11,-61,13v26H716V657c0,0,-54,-2,-77,-20c0,0,-15,-12,-15,-39c0,0,0,-15,6,-30L785,177L929,554c0,0,15,40,15,65c0,0,0,14,-15,25c0,0,-14,12,-57,13v26h216V657c0,0,-65,-10,-95,-89L764,-20H733L563,415L363,-20Z" 
id="f0_2j"
transform="scale(0.001,-0.001)" />

<path d="M379,29c0,0,41,0,84,37c0,0,43,36,65,121c0,0,34,128,34,362c0,0,0,173,-35,288c0,0,-27,86,-69,122c0,0,-31,25,-74,25c0,0,-51,0,-90,-46c0,0,-54,-62,-73,-195c0,0,-20,-132,-20,-261c0,0,0,-209,52,-341c0,0,42,-112,126,-112Zm-2,-46c0,0,-145,0,-241,170c0,0,-81,144,-81,347c0,0,0,173,52,298c0,0,52,125,139,186c0,0,67,49,139,49c0,0,116,0,208,-119c0,0,116,-147,116,-398c0,0,0,-176,-51,-299C658,217,608,94,529,38c0,0,-79,-55,-152,-55Z" 
id="f0_k"
transform="scale(0.001,-0.001)" />

<path d="M38,0V27H74c0,0,63,0,91,37c0,0,18,24,18,115V833c0,0,0,77,-10,102c0,0,-7,18,-30,32c0,0,-33,18,-69,18H38v27H470V985H434c0,0,-62,0,-90,-37c0,0,-18,-24,-18,-115V179c0,0,0,-77,9,-102c0,0,8,-18,31,-32c0,0,32,-18,68,-18h36V0Z" 
id="f0_19"
transform="scale(0.001,-0.001)" />

<path d="M338,28c0,0,48,0,91,45c0,0,43,45,65,144c0,0,22,99,26,276H143c0,0,3,-133,20,-239c0,0,13,-80,44,-140c0,0,19,-36,54,-61c0,0,36,-25,77,-25ZM522,543c0,0,-1,194,-37,312c0,0,-29,90,-76,129c0,0,-34,28,-79,28c0,0,-51,0,-93,-39c0,0,-43,-40,-65,-132c0,0,-22,-93,-29,-298ZM329,-21c0,0,-68,0,-124,31c0,0,-56,33,-99,95c0,0,-43,62,-66,131C40,236,0,356,0,489c0,0,0,294,119,453c0,0,91,119,217,119c0,0,122,0,209,-115c0,0,121,-160,121,-436c0,0,0,-263,-119,-415C547,95,455,-21,329,-21Z" 
id="f4_2d"
transform="scale(0.001,-0.001)" />

<path d="M17,774l191,256h95L493,774H440L255,932L69,774Z" 
id="f3_4"
transform="scale(0.001,-0.001)" />

<path d="M145,-17c0,0,-29,0,-48,18C97,1,79,19,79,46c0,0,0,28,20,93L201,475c0,0,24,82,24,103c0,0,0,17,-11,27c0,0,-12,10,-32,10c0,0,-16,0,-68,-8v30l260,42L218,149c0,0,-16,-53,-16,-64c0,0,0,-11,6,-19c0,0,7,-7,15,-7c0,0,11,0,25,12c0,0,39,33,78,95l26,-17C352,149,304,72,238,20c0,0,-49,-37,-93,-37ZM342,825c0,0,-31,0,-53,22c0,0,-22,22,-22,53c0,0,0,31,22,53c0,0,21,22,53,22c0,0,31,0,53,-22c0,0,22,-22,22,-53c0,0,0,-31,-23,-53c0,0,-22,-22,-52,-22Z" 
id="f5_25"
transform="scale(0.001,-0.001)" />

<path d="M-163,-328c0,0,-47,0,-71,21c0,0,-24,22,-24,51c0,0,0,24,18,41c0,0,18,18,42,18c0,0,22,0,38,-15c0,0,13,-11,13,-25c0,0,0,-19,-18,-33c0,0,-10,-8,-10,-14l1,-3c0,0,3,-3,7,-5c0,0,5,-1,14,-1c0,0,60,0,103,38c0,0,42,38,75,153L189,469c0,0,25,85,25,94c0,0,0,18,-16,32c0,0,-16,14,-41,14c0,0,-10,0,-23,-2c0,0,-9,-2,-28,-5v27l256,46L171,8C171,8,120,-170,30,-249c0,0,-89,-79,-193,-79ZM353,819c0,0,-31,0,-53,22c0,0,-22,22,-22,54c0,0,0,31,22,53c0,0,22,22,53,22c0,0,31,0,53,-22c0,0,22,-22,22,-53c0,0,0,-32,-22,-54c0,0,-22,-22,-53,-22Z" 
id="f5_26"
transform="scale(0.001,-0.001)" />

<path d="M457,-17c0,0,-31,0,-48,24c0,0,-30,44,-99,346L206,264L131,0H15L258,852l21,72c0,0,4,19,4,33c0,0,0,17,-14,29c0,0,-13,12,-38,12c0,0,-16,0,-52,-7l-5,26l258,44L224,328l85,73c0,0,140,117,183,173c0,0,13,19,13,29c0,0,0,6,-4,12c0,0,-5,6,-18,10c0,0,-13,4,-46,4H411l8,28H745l-7,-28c0,0,-56,-3,-97,-18c0,0,-40,-14,-79,-43c0,0,-75,-56,-98,-77L399,434c0,0,16,-54,40,-150c0,0,40,-159,54,-189c0,0,14,-29,29,-29c0,0,13,0,30,12c0,0,39,28,83,90l26,-18C661,150,580,47,536,15c0,0,-43,-32,-79,-32Z" 
id="f5_27"
transform="scale(0.001,-0.001)" />

<path d="M355,0V355H0v72H355V784h72V427H782V355H427V0Z" 
id="f1_f"
transform="scale(0.001,-0.001)" />

<path d="M465,786H442L239,946L67,786H45l141,248H324L465,786Z" 
id="f0_5z"
transform="scale(0.001,-0.001)" />

<path d="M17,-328c0,0,-67,0,-100,24c0,0,-33,25,-33,51c0,0,0,26,18,45c0,0,18,18,43,18c0,0,19,0,40,-9c0,0,12,-6,48,-38c0,0,37,-33,61,-33c0,0,18,0,35,14c0,0,17,14,25,46c0,0,8,33,8,141V416c0,0,0,113,-6,145c0,0,-6,25,-17,34c0,0,-11,10,-31,10c0,0,-21,0,-51,-11L47,620l207,83h32V16c0,0,0,-175,-74,-260c0,0,-75,-84,-195,-84ZM223,908c0,0,-32,0,-54,23c0,0,-22,22,-22,53c0,0,0,32,22,55c0,0,22,22,54,22c0,0,32,0,54,-22c0,0,22,-23,22,-55c0,0,0,-31,-22,-53c0,0,-22,-23,-54,-23Z" 
id="f0_26"
transform="scale(0.001,-0.001)" />

<path d="M52,62L0,114L278,390L0,667l52,52L330,442L608,719l51,-51L382,390L659,114L608,62L330,338L52,62Z" 
id="f1_3a"
transform="scale(0.001,-0.001)" />

<path d="M494,385V878L152,385ZM494,0V262H20V385l498,708H628V385H775V262H628V0Z" 
id="f6_o"
transform="scale(0.001,-0.001)" />


</defs>
</svg>