<?xml version="1.0" encoding="UTF-8" standalone="no"?>
<!DOCTYPE svg PUBLIC "-//W3C//DTD SVG 1.1//EN"
"http://www.w3.org/Graphics/SVG/1.1/DTD/svg11.dtd">
<svg viewBox="0 0 909 1286" version="1.1" xmlns="http://www.w3.org/2000/svg" xmlns:xlink="http://www.w3.org/1999/xlink">
<defs>
<clipPath id="c0_12"><path d="M136.2,178.1v-21h227v21Z" /></clipPath>
<clipPath id="c1_12"><path d="M373.6,404.6V383.5h46.8v21.1Z" /></clipPath>
<clipPath id="c2_12"><path d="M137.9,748.3V712.2h5.5v36.1Z" /></clipPath>
<clipPath id="c3_12"><path d="M137.9,804.8V768.7h5.5v36.1Z" /></clipPath>
<clipPath id="c4_12"><path d="M159.7,807.3v-21h22.2v21Z" /></clipPath>
<clipPath id="c5_12"><path d="M330.7,857.8V823.3h5.5v34.5Z" /></clipPath>
<style type="text/css"><![CDATA[
.g0_12{
fill: #FFFFFF;
}
.g1_12{
fill: none;
stroke: #000000;
stroke-width: 0.9105556;
stroke-linecap: round;
stroke-linejoin: round;
}
.g2_12{
fill: none;
stroke: #000000;
stroke-width: 0.90444446;
stroke-linecap: round;
stroke-linejoin: round;
}
.g3_12{
fill: none;
stroke: #000000;
stroke-width: 0.9075001;
stroke-linecap: round;
stroke-linejoin: round;
}
.g4_12{
fill: none;
stroke: #000000;
stroke-width: 0.9090278;
stroke-linecap: round;
stroke-linejoin: round;
}
.g5_12{
fill: none;
stroke: #000000;
stroke-width: 0.90138894;
stroke-linecap: round;
stroke-linejoin: round;
}
.g6_12{
fill: none;
stroke: #000000;
stroke-width: 0.9029167;
stroke-linecap: round;
stroke-linejoin: round;
}
.g7_12{
fill: none;
stroke: #000000;
stroke-width: 0.9059723;
stroke-linecap: round;
stroke-linejoin: round;
}
.g8_12{
fill: none;
stroke: #000000;
stroke-width: 0.42930555;
stroke-linecap: round;
stroke-linejoin: round;
}
.g9_12{
fill: none;
stroke: #000000;
stroke-width: 0.43083334;
stroke-linecap: round;
stroke-linejoin: round;
}
.g10_12{
fill: none;
stroke: #000000;
stroke-width: 0.4277778;
stroke-linecap: round;
stroke-linejoin: round;
}
]]></style>
</defs>
<path fill-rule="evenodd" d="M279.7,577.9L310,574l1.1,9.8v9.5l-1.1,1l-1,1.8l-2,1.8h-2.1l-2.1,1h-3.3l-2,-1l-2.1,-1.8l-2.1,-2.8l-11.5,9.5l-1,-9.5l11.5,-8.7l-11.5,1l-1.1,-7.7Zm16.7,5.9v1.8l1.1,2l1,1.8l1,1.1h3.3l1.1,-1.1l1,-1.8v-4.8l-8.5,1Zm2.1,36.2l2,8.7L310,622l1.1,-1h1l1,-1H298.5Zm-14.7,-7.7l32.7,1l3,10.5l-26.2,20l-2,-8.4l4.1,-2.8L292.3,620h-5.4l-3.1,-7.7ZM329,673.6l-2.3,.8l-3,1l-3.1,1l-3.1,-1l-3.3,-1l-3.1,-.8L309,670.8l-2,-2.1l-2.1,-3.8l-1,-2.8v-6.7l1,-2.8l2.1,-2.9l1,-3l3.1,-1.8l2,-1.8l3.4,-1.1h6.1l3.1,1.1l3.3,1.8l2.1,1.8l2.1,3l2,2.9l1,2.8v6.7l-1,3.8l-1,2.8l-2.1,2.1l-3.1,2.8Zm-16.9,-9.5l3.3,2.8l3.1,.8h3.1l3.1,-1.8l2,-2.8l2.3,-2.8v-3.9l-1,-2.8l-2.3,-2.1l-3.1,-1h-4.1l-3.1,1l-2.3,2.9l-2,2.8V661l1,3.1ZM343.7,709l18.7,-25.9l6.5,5.7l-19.1,25.9L343.7,709Zm20.8,15.2l14.9,-28.8l7.2,4.9L371.9,728l-7.4,-3.8Zm26.2,12.6l7.4,-23.1L392,710.8l3,-6.6l19.8,7.7l-2,6.6l-6.2,-2l-8.5,23.1l-7.4,-2.8Zm58.8,-1.1H458l-4.4,-10.5v-2.8l-1,-2.1v3.9l-1,1l-2.1,10.5Zm-11.6,11.6l9.5,-31.6H458l11.5,31.6H461l-2,-5.9H447.4l-1,5.9h-8.5ZM494.7,709l2.1,9.5l-2.1,-2h-5.4l-3.1,1l-2,2.8l-1.1,3.9l1.1,2.8l1,3.9l2.1,2l3,.8h3.1l2.3,-.8l1.1,-1l2,-1l1,-2.9l2.1,9.5l-1,1.1l-2.1,2l-2,.8h-2.1l-2.3,1h-4.1l-2.1,-1l-4.1,-1.8l-2.3,-2.8l-3.1,-3.1l-1,-3.6l-1,-3.9v-3l1,-3.6l1,-3.1l2.1,-2.8l2.3,-1.8l2,-1.1l3.1,-1.8h8.5Zm22.9,10.6l7.4,-4.9L517.6,707h-1.1v-1l-1,-.8l-1,-1v1l1,.8v2l2.1,11.6Zm-5.2,15.1l-4.1,-33.4l8.2,-4.8l24.2,23.8l-7.2,3.9l-4.4,-4.6l-10.5,5.6l1.3,5.7l-7.5,3.8Zm37.8,-22.1L529.1,689.8l5.4,-4.9l4.1,-4.6l3.1,-2.1l3.3,-1.8h6.2l3.1,1.1l3.1,.7l3.3,3.1l2.1,3.6l1,3.1l1,3.8v3.6l-1,2.1l-1,2.8l-3.1,2.8l-3.4,3.9l-1,1l-5.1,4.6Zm2,-11.3l1.1,-1l2,-2.8l1,-3.9v-2.8l-2,-2.8l-3.1,-3.1l-3.1,-.8l-3.1,.8l-3.3,3.1l-1,.8l11.5,12.5Zm28.3,-20L555.3,663.1l11.6,-16.4l5.4,3.8l-6.5,9.8l4.1,2.8l6.5,-8.7l5.1,3.8l-6.2,8.7l4.1,3.9l6.5,-9.8l6.1,4.9l-11.5,15.4Zm32.6,-63.1l-3.1,7.7L596.4,622h-1.3l-1,-1L592,620h-2l2,1l2.1,1.8l1,1l11.6,9.5l-2.1,4.9l-14.6,-1h-1l-3.1,-1.1h-2.1l2.1,1.1h1l2.1,1l1,1l11.5,7.5l-3,6.9L572.3,637.2l3,-7.7l16.7,1v1h4.4h-1.3l-1,-1l-1,-1l-1.1,-.8L579.4,618.2l3.1,-7.7l30.6,7.7Zm2.1,-21.1l-13.7,-2l-17.7,8.7l1,-9.5l8.3,-3.1l2,-.7h1.3l-1.3,-1.1h-1l-1,-1l-6.2,-4.6l1,-10.5l14.7,14.3l13.6,1.8l-1,7.7Z" class="g0_12" />
<g fill="#000000" >
<use xlink:href="#f0_l" transform="matrix(11.9,0,0,11.9,144.7,115.8)" />
<use xlink:href="#f0_g" transform="matrix(11.9,0,0,11.9,152.2,115.8)" />
<use xlink:href="#f0_l" transform="matrix(11.9,0,0,11.9,187.6,115.8)" />
<use xlink:href="#f0_g" transform="matrix(11.9,0,0,11.9,194.9,115.8)" />
<use xlink:href="#f0_l" transform="matrix(11.9,0,0,11.9,230.8,115.8)" />
<use xlink:href="#f1_11" transform="matrix(11.9,0,0,11.9,121,115.8)" />
<use xlink:href="#f1_12" transform="matrix(11.9,0,0,11.9,163,115.8)" />
<use xlink:href="#f1_13" transform="matrix(11.9,0,0,11.9,204.6,115.8)" />
<use xlink:href="#f2_x" transform="matrix(11.9,0,0,11.9,134,115.8)" />
<use xlink:href="#f2_x" transform="matrix(11.9,0,0,11.9,176.9,115.8)" />
<use xlink:href="#f2_x" transform="matrix(11.9,0,0,11.9,220.3,115.8)" />
</g>
<path d="M179.8,169.1H209m16.4,0h58.3m16.3,0h36.3" class="g1_12" />
<g fill="#000000" >
<use xlink:href="#f0_m" transform="matrix(7,0,0,7,248.4,179.8)" />
<use xlink:href="#f0_m" transform="matrix(7,0,0,7,307.4,179.8)" />
<use xlink:href="#f0_l" transform="matrix(12.1,0,0,12.1,189.8,162)" />
<use xlink:href="#f0_m" transform="matrix(12.1,0,0,12.1,247.1,162)" />
<use xlink:href="#f0_l" transform="matrix(12.1,0,0,12.1,313.5,162)" />
<use xlink:href="#f0_l" transform="matrix(12.1,0,0,12.1,178.9,188)" />
<use xlink:href="#f0_m" transform="matrix(12.1,0,0,12.1,226.6,188)" />
<use xlink:href="#f0_c" transform="matrix(12.1,0,0,12.1,235.8,188)" />
<use xlink:href="#f0_l" transform="matrix(12.1,0,0,12.1,269.1,188)" />
<use xlink:href="#f0_d" transform="matrix(12.1,0,0,12.1,276.8,188)" />
<use xlink:href="#f0_l" transform="matrix(12.1,0,0,12.1,327.9,188)" />
<use xlink:href="#f1_2g" transform="matrix(12.1,0,0,12.1,256.1,162)" />
</g>
<g clip-path="url(#c0_12)">
<g fill="#000000" >
<use xlink:href="#f1_19" transform="matrix(12.1,0,0,12.1,136.6,173.7)" />
</g>
</g>
<g fill="#000000" >
<use xlink:href="#f1_20" transform="matrix(12.1,0,0,12.1,345,173.7)" />
<use xlink:href="#f1_2g" transform="matrix(12.1,0,0,12.1,354.2,173.7)" />
<use xlink:href="#f1_2g" transform="matrix(12.1,0,0,12.1,202.2,188)" />
<use xlink:href="#f1_2g" transform="matrix(12.1,0,0,12.1,241.8,188)" />
<use xlink:href="#f1_2g" transform="matrix(12.1,0,0,12.1,300.6,188)" />
<use xlink:href="#f2_4o" transform="matrix(12.1,0,0,12.1,170,161.3)" />
<use xlink:href="#f2_54" transform="matrix(12.1,0,0,12.1,339,161.3)" />
<use xlink:href="#f2_1s" transform="matrix(12.1,0,0,12.1,116.8,173.7)" />
<use xlink:href="#f2_x" transform="matrix(12.1,0,0,12.1,147,173.7)" />
<use xlink:href="#f2_f" transform="matrix(12.1,0,0,12.1,212.1,173.7)" />
<use xlink:href="#f2_f" transform="matrix(12.1,0,0,12.1,286.9,173.7)" />
<use xlink:href="#f2_4p" transform="matrix(12.1,0,0,12.1,170,178.1)" />
<use xlink:href="#f2_55" transform="matrix(12.1,0,0,12.1,339,178.1)" />
<use xlink:href="#f2_h" transform="matrix(12.1,0,0,12.1,189.6,188)" />
<use xlink:href="#f2_f" transform="matrix(12.1,0,0,12.1,258.1,188)" />
<use xlink:href="#f2_f" transform="matrix(12.1,0,0,12.1,317,188)" />
<use xlink:href="#f2_4q" transform="matrix(12.1,0,0,12.1,170,192.4)" />
<use xlink:href="#f2_56" transform="matrix(12.1,0,0,12.1,339,192.4)" />
<use xlink:href="#f2_50" transform="matrix(18.1,0,0,18.1,160.1,180.3)" />
</g>
<path d="M198.8,232.1v21.6M230,232.1v21.6m17.7,-10.8h10.9m29.7,-13v26m38.1,-26v26" class="g2_12" />
<g fill="#000000" >
<use xlink:href="#f0_m" transform="matrix(6.9,0,0,6.9,296.6,239.4)" />
<use xlink:href="#f0_l" transform="matrix(6.9,0,0,6.9,376.4,239.4)" />
<use xlink:href="#f0_l" transform="matrix(11.9,0,0,11.9,248.6,235.9)" />
<use xlink:href="#f0_28" transform="matrix(11.9,0,0,11.9,172,247.4)" />
<use xlink:href="#f0_2b" transform="matrix(11.9,0,0,11.9,176.9,247.4)" />
<use xlink:href="#f0_23" transform="matrix(11.9,0,0,11.9,186.1,247.4)" />
<use xlink:href="#f0_l" transform="matrix(11.9,0,0,11.9,199.1,247.4)" />
<use xlink:href="#f0_28" transform="matrix(11.9,0,0,11.9,261.4,247.4)" />
<use xlink:href="#f0_2b" transform="matrix(11.9,0,0,11.9,266.4,247.4)" />
<use xlink:href="#f0_23" transform="matrix(11.9,0,0,11.9,275.5,247.4)" />
<use xlink:href="#f0_l" transform="matrix(11.9,0,0,11.9,317.1,247.4)" />
<use xlink:href="#f0_2g" transform="matrix(11.9,0,0,11.9,346.8,247.4)" />
<use xlink:href="#f0_1x" transform="matrix(11.9,0,0,11.9,351.9,247.4)" />
<use xlink:href="#f0_2a" transform="matrix(11.9,0,0,11.9,360,247.4)" />
<use xlink:href="#f0_c" transform="matrix(11.9,0,0,11.9,382.7,247.4)" />
<use xlink:href="#f0_d" transform="matrix(11.9,0,0,11.9,395.2,247.4)" />
<use xlink:href="#f0_m" transform="matrix(11.9,0,0,11.9,248.8,261.6)" />
<use xlink:href="#f1_2g" transform="matrix(11.9,0,0,11.9,222.4,247.4)" />
<use xlink:href="#f1_2g" transform="matrix(11.9,0,0,11.9,289.8,247.4)" />
<use xlink:href="#f1_2g" transform="matrix(11.9,0,0,11.9,388.8,247.4)" />
<use xlink:href="#f1_13" transform="matrix(11.9,0,0,11.9,416.1,247.4)" />
<use xlink:href="#f2_h" transform="matrix(6.9,0,0,6.9,370.5,239.4)" />
<use xlink:href="#f2_x" transform="matrix(11.9,0,0,11.9,147,247.4)" />
<use xlink:href="#f2_h" transform="matrix(11.9,0,0,11.9,159.7,247.4)" />
<use xlink:href="#f2_h" transform="matrix(11.9,0,0,11.9,209.7,247.4)" />
<use xlink:href="#f2_f" transform="matrix(11.9,0,0,11.9,234.5,247.4)" />
<use xlink:href="#f2_f" transform="matrix(11.9,0,0,11.9,306.3,247.4)" />
<use xlink:href="#f2_f" transform="matrix(11.9,0,0,11.9,333.6,247.4)" />
<use xlink:href="#f2_f" transform="matrix(11.9,0,0,11.9,403.8,247.4)" />
</g>
<path d="M159.9,315.1h10.9m32.1,0h48.3M200.4,290.3v49.6m53.1,-49.6v49.6" class="g3_12" />
<g fill="#000000" >
<use xlink:href="#f0_m" transform="matrix(7,0,0,7,216.3,299.9)" />
<use xlink:href="#f0_l" transform="matrix(7,0,0,7,299.9,311.4)" />
<use xlink:href="#f0_m" transform="matrix(7,0,0,7,243.3,325.9)" />
<use xlink:href="#f0_l" transform="matrix(12.1,0,0,12.1,160.8,308.1)" />
<use xlink:href="#f0_l" transform="matrix(12.1,0,0,12.1,236.9,308.1)" />
<use xlink:href="#f0_28" transform="matrix(12.1,0,0,12.1,173.6,319.7)" />
<use xlink:href="#f0_2b" transform="matrix(12.1,0,0,12.1,178.6,319.7)" />
<use xlink:href="#f0_23" transform="matrix(12.1,0,0,12.1,187.7,319.7)" />
<use xlink:href="#f0_2g" transform="matrix(12.1,0,0,12.1,270.4,319.7)" />
<use xlink:href="#f0_1x" transform="matrix(12.1,0,0,12.1,275.7,319.7)" />
<use xlink:href="#f0_2a" transform="matrix(12.1,0,0,12.1,283.6,319.7)" />
<use xlink:href="#f0_c" transform="matrix(12.1,0,0,12.1,306.3,319.7)" />
<use xlink:href="#f0_d" transform="matrix(12.1,0,0,12.1,318.6,319.7)" />
<use xlink:href="#f0_m" transform="matrix(12.1,0,0,12.1,161.2,334.2)" />
<use xlink:href="#f0_c" transform="matrix(12.1,0,0,12.1,203.7,334.2)" />
<use xlink:href="#f0_l" transform="matrix(12.1,0,0,12.1,208.3,334.2)" />
<use xlink:href="#f0_d" transform="matrix(12.1,0,0,12.1,236.7,334.2)" />
<use xlink:href="#f1_2g" transform="matrix(12.1,0,0,12.1,209.6,308.1)" />
<use xlink:href="#f1_2g" transform="matrix(12.1,0,0,12.1,312.4,319.7)" />
<use xlink:href="#f1_13" transform="matrix(12.1,0,0,12.1,339.5,319.7)" />
<use xlink:href="#f1_2g" transform="matrix(12.1,0,0,12.1,230.3,334.2)" />
<use xlink:href="#f2_h" transform="matrix(7,0,0,7,294.1,311.4)" />
<use xlink:href="#f2_f" transform="matrix(12.1,0,0,12.1,225.9,308.1)" />
<use xlink:href="#f2_x" transform="matrix(12.1,0,0,12.1,147,319.7)" />
<use xlink:href="#f2_f" transform="matrix(12.1,0,0,12.1,257.4,319.7)" />
<use xlink:href="#f2_f" transform="matrix(12.1,0,0,12.1,327.2,319.7)" />
<use xlink:href="#f2_h" transform="matrix(12.1,0,0,12.1,218.4,334.2)" />
</g>
<path d="M164.5,395.5h10.9m32.1,0h77.3M205,370.6v49.7m82,-49.7v49.7" class="g4_12" />
<g fill="#000000" >
<use xlink:href="#f2_c" transform="matrix(11.8,0,0,15.8,341.6,401.4)" />
<use xlink:href="#f2_d" transform="matrix(11.8,0,0,15.8,383.7,401.4)" />
<use xlink:href="#f0_m" transform="matrix(7,0,0,7,237.6,380.2)" />
<use xlink:href="#f0_l" transform="matrix(7,0,0,7,333.5,391.9)" />
<use xlink:href="#f0_m" transform="matrix(7,0,0,7,276.8,406.2)" />
<use xlink:href="#f0_l" transform="matrix(12.1,0,0,12.1,165.4,388.4)" />
<use xlink:href="#f0_2f" transform="matrix(12.1,0,0,12.1,214.9,388.4)" />
<use xlink:href="#f0_25" transform="matrix(12.1,0,0,12.1,222,388.4)" />
<use xlink:href="#f0_2a" transform="matrix(12.1,0,0,12.1,227.2,388.4)" />
<use xlink:href="#f0_l" transform="matrix(12.1,0,0,12.1,269.7,388.4)" />
<use xlink:href="#f0_28" transform="matrix(12.1,0,0,12.1,178.2,400.2)" />
<use xlink:href="#f0_2b" transform="matrix(12.1,0,0,12.1,183.2,400.2)" />
<use xlink:href="#f0_23" transform="matrix(12.1,0,0,12.1,192.3,400.2)" />
<use xlink:href="#f0_2g" transform="matrix(12.1,0,0,12.1,304,400.2)" />
<use xlink:href="#f0_1x" transform="matrix(12.1,0,0,12.1,309.1,400.2)" />
<use xlink:href="#f0_2a" transform="matrix(12.1,0,0,12.1,317.2,400.2)" />
<use xlink:href="#f0_2f" transform="matrix(12.1,0,0,12.1,348.7,400.2)" />
<use xlink:href="#f0_25" transform="matrix(12.1,0,0,12.1,355.9,400.2)" />
<use xlink:href="#f0_2a" transform="matrix(12.1,0,0,12.1,361,400.2)" />
<use xlink:href="#f0_m" transform="matrix(12.1,0,0,12.1,165.7,414.5)" />
<use xlink:href="#f0_c" transform="matrix(12.1,0,0,12.1,208.2,414.5)" />
<use xlink:href="#f0_l" transform="matrix(12.1,0,0,12.1,212.8,414.5)" />
<use xlink:href="#f0_2f" transform="matrix(12.1,0,0,12.1,236.1,414.5)" />
<use xlink:href="#f0_25" transform="matrix(12.1,0,0,12.1,243.3,414.5)" />
<use xlink:href="#f0_2a" transform="matrix(12.1,0,0,12.1,248.4,414.5)" />
<use xlink:href="#f0_d" transform="matrix(12.1,0,0,12.1,270,414.5)" />
<use xlink:href="#f1_2k" transform="matrix(12.1,0,0,12.1,248.1,388.4)" />
</g>
<g clip-path="url(#c1_12)">
<g fill="#000000" >
<use xlink:href="#f1_2k" transform="matrix(12.1,0,0,12.1,374.2,400.2)" />
<use xlink:href="#f1_13" transform="matrix(12.1,0,0,12.1,404.2,400.2)" />
</g>
</g>
<g fill="#000000" >
<use xlink:href="#f1_2k" transform="matrix(12.1,0,0,12.1,261.6,414.5)" />
<use xlink:href="#f2_h" transform="matrix(7,0,0,7,327.6,391.9)" />
<use xlink:href="#f2_f" transform="matrix(12.1,0,0,12.1,258.9,388.4)" />
<use xlink:href="#f2_x" transform="matrix(12.1,0,0,12.1,151.6,400.2)" />
<use xlink:href="#f2_f" transform="matrix(12.1,0,0,12.1,290.9,400.2)" />
<use xlink:href="#f2_f" transform="matrix(12.1,0,0,12.1,391.9,400.2)" />
<use xlink:href="#f2_h" transform="matrix(12.1,0,0,12.1,223.5,414.5)" />
<use xlink:href="#f0_m" transform="matrix(12,0,0,12,64.9,481.4)" />
<use xlink:href="#f0_k" transform="matrix(12,0,0,12,74.1,481.4)" />
<use xlink:href="#f0_i" transform="matrix(12,0,0,12,83.2,481.4)" />
<use xlink:href="#f0_1j" transform="matrix(12,0,0,12,121.9,481.4)" />
<use xlink:href="#f0_2h" transform="matrix(12,0,0,12,132,481.4)" />
<use xlink:href="#f0_2c" transform="matrix(12,0,0,12,140.8,481.4)" />
<use xlink:href="#f0_2c" transform="matrix(12,0,0,12,149.8,481.4)" />
<use xlink:href="#f0_2b" transform="matrix(12,0,0,12,158.6,481.4)" />
<use xlink:href="#f0_2f" transform="matrix(12,0,0,12,167.6,481.4)" />
<use xlink:href="#f0_21" transform="matrix(12,0,0,12,174.3,481.4)" />
<use xlink:href="#f0_1x" transform="matrix(12,0,0,12,185.5,481.4)" />
<use xlink:href="#f0_23" transform="matrix(12,0,0,12,196.4,481.4)" />
<use xlink:href="#f0_25" transform="matrix(12,0,0,12,205,481.4)" />
<use xlink:href="#f0_2e" transform="matrix(12,0,0,12,209.9,481.4)" />
<use xlink:href="#f0_28" transform="matrix(12,0,0,12,215.6,481.4)" />
<use xlink:href="#f0_2g" transform="matrix(12,0,0,12,223.7,481.4)" />
<use xlink:href="#f0_24" transform="matrix(12,0,0,12,228.6,481.4)" />
<use xlink:href="#f0_2e" transform="matrix(12,0,0,12,237.6,481.4)" />
<use xlink:href="#f0_2b" transform="matrix(12,0,0,12,243.3,481.4)" />
<use xlink:href="#f0_2j" transform="matrix(12,0,0,12,252.3,481.4)" />
<use xlink:href="#f0_2f" transform="matrix(12,0,0,12,265.1,481.4)" />
<use xlink:href="#f0_1x" transform="matrix(12,0,0,12,275.2,481.4)" />
<use xlink:href="#f0_20" transform="matrix(12,0,0,12,286.4,481.4)" />
<use xlink:href="#f0_25" transform="matrix(12,0,0,12,295.2,481.4)" />
<use xlink:href="#f0_21" transform="matrix(12,0,0,12,300.1,481.4)" />
<use xlink:href="#f0_i" transform="matrix(12,0,0,12,307.8,481.4)" />
<use xlink:href="#f0_19" transform="matrix(12,0,0,12,315.2,481.4)" />
<use xlink:href="#f0_22" transform="matrix(12,0,0,12,320.7,481.4)" />
<use xlink:href="#f0_2f" transform="matrix(12,0,0,12,329.6,481.4)" />
<use xlink:href="#f0_24" transform="matrix(12,0,0,12,336.6,481.4)" />
<use xlink:href="#f0_21" transform="matrix(12,0,0,12,345.4,481.4)" />
<use xlink:href="#f0_23" transform="matrix(12,0,0,12,356.4,481.4)" />
<use xlink:href="#f0_21" transform="matrix(12,0,0,12,365.2,481.4)" />
<use xlink:href="#f0_2g" transform="matrix(12,0,0,12,372.9,481.4)" />
<use xlink:href="#f0_2f" transform="matrix(12,0,0,12,377.9,481.4)" />
<use xlink:href="#f0_l" transform="matrix(12,0,0,12,387.9,481.4)" />
<use xlink:href="#f0_2b" transform="matrix(12,0,0,12,399.9,481.4)" />
<use xlink:href="#f0_2e" transform="matrix(12,0,0,12,408.8,481.4)" />
<use xlink:href="#f0_m" transform="matrix(12,0,0,12,417.8,481.4)" />
<use xlink:href="#f0_2f" transform="matrix(12,0,0,12,429.9,481.4)" />
<use xlink:href="#f0_24" transform="matrix(12,0,0,12,436.9,481.4)" />
<use xlink:href="#f0_21" transform="matrix(12,0,0,12,445.7,481.4)" />
<use xlink:href="#f0_2g" transform="matrix(12,0,0,12,456.7,481.4)" />
<use xlink:href="#f0_2b" transform="matrix(12,0,0,12,461.6,481.4)" />
<use xlink:href="#f0_2f" transform="matrix(12,0,0,12,470.4,481.4)" />
<use xlink:href="#f0_2f" transform="matrix(12,0,0,12,477.4,481.4)" />
<use xlink:href="#f0_21" transform="matrix(12,0,0,12,484.4,481.4)" />
<use xlink:href="#f0_2f" transform="matrix(12,0,0,12,492.1,481.4)" />
<use xlink:href="#f0_1x" transform="matrix(12,0,0,12,502,481.4)" />
<use xlink:href="#f0_1z" transform="matrix(12,0,0,12,513,481.4)" />
<use xlink:href="#f0_2b" transform="matrix(12,0,0,12,520.9,481.4)" />
<use xlink:href="#f0_25" transform="matrix(12,0,0,12,529.8,481.4)" />
<use xlink:href="#f0_2a" transform="matrix(12,0,0,12,534.6,481.4)" />
<use xlink:href="#f0_2g" transform="matrix(12,0,0,12,546.7,481.4)" />
<use xlink:href="#f0_24" transform="matrix(12,0,0,12,551.7,481.4)" />
<use xlink:href="#f0_2e" transform="matrix(12,0,0,12,560.5,481.4)" />
<use xlink:href="#f0_21" transform="matrix(12,0,0,12,566.3,481.4)" />
<use xlink:href="#f0_21" transform="matrix(12,0,0,12,574,481.4)" />
<use xlink:href="#f0_2g" transform="matrix(12,0,0,12,585.2,481.4)" />
<use xlink:href="#f0_25" transform="matrix(12,0,0,12,590,481.4)" />
<use xlink:href="#f0_29" transform="matrix(12,0,0,12,594.9,481.4)" />
<use xlink:href="#f0_21" transform="matrix(12,0,0,12,608.9,481.4)" />
<use xlink:href="#f0_2f" transform="matrix(12,0,0,12,616.7,481.4)" />
<use xlink:href="#f0_1x" transform="matrix(12,0,0,12,626.6,481.4)" />
<use xlink:href="#f0_2a" transform="matrix(12,0,0,12,634.5,481.4)" />
<use xlink:href="#f0_20" transform="matrix(12,0,0,12,643.3,481.4)" />
<use xlink:href="#f0_2a" transform="matrix(12,0,0,12,655.4,481.4)" />
<use xlink:href="#f0_2b" transform="matrix(12,0,0,12,664.4,481.4)" />
<use xlink:href="#f0_2g" transform="matrix(12,0,0,12,673.2,481.4)" />
<use xlink:href="#f0_21" transform="matrix(12,0,0,12,678.2,481.4)" />
<use xlink:href="#f0_2f" transform="matrix(12,0,0,12,685.9,481.4)" />
<use xlink:href="#f0_2g" transform="matrix(12,0,0,12,696.1,481.4)" />
<use xlink:href="#f0_24" transform="matrix(12,0,0,12,700.9,481.4)" />
<use xlink:href="#f0_21" transform="matrix(12,0,0,12,709.9,481.4)" />
<use xlink:href="#f0_2a" transform="matrix(12,0,0,12,720.9,481.4)" />
<use xlink:href="#f0_2h" transform="matrix(12,0,0,12,729.7,481.4)" />
<use xlink:href="#f0_29" transform="matrix(12,0,0,12,738.7,481.4)" />
<use xlink:href="#f0_1y" transform="matrix(12,0,0,12,752.8,481.4)" />
<use xlink:href="#f0_21" transform="matrix(12,0,0,12,761.6,481.4)" />
<use xlink:href="#f0_2e" transform="matrix(12,0,0,12,769.5,481.4)" />
<use xlink:href="#f0_2b" transform="matrix(12,0,0,12,778.3,481.4)" />
<use xlink:href="#f0_22" transform="matrix(12,0,0,12,787.1,481.4)" />
<use xlink:href="#f0_2g" transform="matrix(12,0,0,12,796,481.4)" />
<use xlink:href="#f0_1x" transform="matrix(12,0,0,12,801,481.4)" />
<use xlink:href="#f0_25" transform="matrix(12,0,0,12,808.9,481.4)" />
<use xlink:href="#f0_28" transform="matrix(12,0,0,12,813.6,481.4)" />
<use xlink:href="#f0_2f" transform="matrix(12,0,0,12,818.6,481.4)" />
<use xlink:href="#f0_i" transform="matrix(12,0,0,12,825.4,481.4)" />
<use xlink:href="#f0_19" transform="matrix(12,0,0,12,832.9,481.4)" />
<use xlink:href="#f0_22" transform="matrix(12,0,0,12,838.4,481.4)" />
<use xlink:href="#f0_2f" transform="matrix(12,0,0,12,121.2,503.4)" />
<use xlink:href="#f0_24" transform="matrix(12,0,0,12,128.1,503.4)" />
<use xlink:href="#f0_21" transform="matrix(12,0,0,12,137.1,503.4)" />
<use xlink:href="#f0_23" transform="matrix(12,0,0,12,148.3,503.4)" />
<use xlink:href="#f0_21" transform="matrix(12,0,0,12,157.1,503.4)" />
<use xlink:href="#f0_2g" transform="matrix(12,0,0,12,165,503.4)" />
<use xlink:href="#f0_2f" transform="matrix(12,0,0,12,170,503.4)" />
<use xlink:href="#f0_n" transform="matrix(12,0,0,12,180.2,503.4)" />
<use xlink:href="#f0_g" transform="matrix(12,0,0,12,189.2,503.4)" />
<use xlink:href="#f0_o" transform="matrix(12,0,0,12,193.6,503.4)" />
<use xlink:href="#f0_g" transform="matrix(12,0,0,12,202.6,503.4)" />
<use xlink:href="#f0_p" transform="matrix(12,0,0,12,207,503.4)" />
<use xlink:href="#f0_2b" transform="matrix(12,0,0,12,219.3,503.4)" />
<use xlink:href="#f0_2e" transform="matrix(12,0,0,12,228.3,503.4)" />
<use xlink:href="#f0_q" transform="matrix(12,0,0,12,237.4,503.4)" />
<use xlink:href="#f0_g" transform="matrix(12,0,0,12,246.4,503.4)" />
<use xlink:href="#f0_2f" transform="matrix(12,0,0,12,254.1,503.4)" />
<use xlink:href="#f0_24" transform="matrix(12,0,0,12,261.1,503.4)" />
<use xlink:href="#f0_21" transform="matrix(12,0,0,12,270.1,503.4)" />
<use xlink:href="#f0_2g" transform="matrix(12,0,0,12,281.2,503.4)" />
<use xlink:href="#f0_2b" transform="matrix(12,0,0,12,286.2,503.4)" />
<use xlink:href="#f0_2f" transform="matrix(12,0,0,12,295.2,503.4)" />
<use xlink:href="#f0_2f" transform="matrix(12,0,0,12,302.1,503.4)" />
<use xlink:href="#f0_21" transform="matrix(12,0,0,12,309.1,503.4)" />
<use xlink:href="#f0_2f" transform="matrix(12,0,0,12,317,503.4)" />
<use xlink:href="#f0_1x" transform="matrix(12,0,0,12,327.1,503.4)" />
<use xlink:href="#f0_1z" transform="matrix(12,0,0,12,338.3,503.4)" />
<use xlink:href="#f0_2b" transform="matrix(12,0,0,12,346.1,503.4)" />
<use xlink:href="#f0_25" transform="matrix(12,0,0,12,355.1,503.4)" />
<use xlink:href="#f0_2a" transform="matrix(12,0,0,12,360.1,503.4)" />
<use xlink:href="#f0_2b" transform="matrix(12,0,0,12,372.4,503.4)" />
<use xlink:href="#f0_2a" transform="matrix(12,0,0,12,381.3,503.4)" />
<use xlink:href="#f0_1z" transform="matrix(12,0,0,12,390.5,503.4)" />
<use xlink:href="#f0_21" transform="matrix(12,0,0,12,398.4,503.4)" />
<use xlink:href="#f0_1x" transform="matrix(12,0,0,12,409.6,503.4)" />
<use xlink:href="#f0_2a" transform="matrix(12,0,0,12,417.5,503.4)" />
<use xlink:href="#f0_20" transform="matrix(12,0,0,12,426.4,503.4)" />
<use xlink:href="#f0_2a" transform="matrix(12,0,0,12,438.5,503.4)" />
<use xlink:href="#f0_2b" transform="matrix(12,0,0,12,447.5,503.4)" />
<use xlink:href="#f0_2g" transform="matrix(12,0,0,12,456.5,503.4)" />
<use xlink:href="#f0_21" transform="matrix(12,0,0,12,461.5,503.4)" />
<use xlink:href="#f0_2f" transform="matrix(12,0,0,12,469.3,503.4)" />
<use xlink:href="#f0_2j" transform="matrix(12,0,0,12,479.6,503.4)" />
<use xlink:href="#f0_24" transform="matrix(12,0,0,12,492.6,503.4)" />
<use xlink:href="#f0_21" transform="matrix(12,0,0,12,501.6,503.4)" />
<use xlink:href="#f0_2g" transform="matrix(12,0,0,12,509.5,503.4)" />
<use xlink:href="#f0_24" transform="matrix(12,0,0,12,514.4,503.4)" />
<use xlink:href="#f0_21" transform="matrix(12,0,0,12,523.4,503.4)" />
<use xlink:href="#f0_2e" transform="matrix(12,0,0,12,531.3,503.4)" />
<use xlink:href="#f0_1x" transform="matrix(12,0,0,12,540.5,503.4)" />
<use xlink:href="#f0_52" transform="matrix(12,0,0,12,551.7,503.4)" />
<use xlink:href="#f0_24" transform="matrix(12,0,0,12,557.5,503.4)" />
<use xlink:href="#f0_21" transform="matrix(12,0,0,12,566.5,503.4)" />
<use xlink:href="#f0_1x" transform="matrix(12,0,0,12,574.4,503.4)" />
<use xlink:href="#f0_20" transform="matrix(12,0,0,12,582.5,503.4)" />
<use xlink:href="#f0_53" transform="matrix(12,0,0,12,591.4,503.4)" />
<use xlink:href="#f0_2b" transform="matrix(12,0,0,12,600.4,503.4)" />
<use xlink:href="#f0_2e" transform="matrix(12,0,0,12,609.4,503.4)" />
<use xlink:href="#f0_52" transform="matrix(12,0,0,12,618.6,503.4)" />
<use xlink:href="#f0_2g" transform="matrix(12,0,0,12,624.4,503.4)" />
<use xlink:href="#f0_1x" transform="matrix(12,0,0,12,629.4,503.4)" />
<use xlink:href="#f0_25" transform="matrix(12,0,0,12,637.3,503.4)" />
<use xlink:href="#f0_28" transform="matrix(12,0,0,12,642.2,503.4)" />
<use xlink:href="#f0_53" transform="matrix(12,0,0,12,647.2,503.4)" />
<use xlink:href="#f0_25" transform="matrix(12,0,0,12,656.3,503.4)" />
<use xlink:href="#f0_2f" transform="matrix(12,0,0,12,661.3,503.4)" />
<use xlink:href="#f0_2b" transform="matrix(12,0,0,12,671.6,503.4)" />
<use xlink:href="#f0_1y" transform="matrix(12,0,0,12,680.5,503.4)" />
<use xlink:href="#f0_2g" transform="matrix(12,0,0,12,689.5,503.4)" />
<use xlink:href="#f0_1x" transform="matrix(12,0,0,12,694.5,503.4)" />
<use xlink:href="#f0_25" transform="matrix(12,0,0,12,702.4,503.4)" />
<use xlink:href="#f0_2a" transform="matrix(12,0,0,12,707.3,503.4)" />
<use xlink:href="#f0_21" transform="matrix(12,0,0,12,716.3,503.4)" />
<use xlink:href="#f0_20" transform="matrix(12,0,0,12,724.2,503.4)" />
<use xlink:href="#f0_i" transform="matrix(12,0,0,12,733.2,503.4)" />
<use xlink:href="#f0_19" transform="matrix(12,0,0,12,740.7,503.4)" />
<use xlink:href="#f0_22" transform="matrix(12,0,0,12,746.4,503.4)" />
<use xlink:href="#f0_2f" transform="matrix(12,0,0,12,755.5,503.4)" />
<use xlink:href="#f0_24" transform="matrix(12,0,0,12,762.5,503.4)" />
<use xlink:href="#f0_21" transform="matrix(12,0,0,12,771.5,503.4)" />
<use xlink:href="#f0_2b" transform="matrix(12,0,0,12,782.7,503.4)" />
<use xlink:href="#f0_1y" transform="matrix(12,0,0,12,791.6,503.4)" />
<use xlink:href="#f0_2g" transform="matrix(12,0,0,12,800.6,503.4)" />
<use xlink:href="#f0_1x" transform="matrix(12,0,0,12,805.6,503.4)" />
<use xlink:href="#f0_25" transform="matrix(12,0,0,12,813.5,503.4)" />
<use xlink:href="#f0_2a" transform="matrix(12,0,0,12,818.4,503.4)" />
<use xlink:href="#f0_21" transform="matrix(12,0,0,12,827.4,503.4)" />
<use xlink:href="#f0_20" transform="matrix(12,0,0,12,835.3,503.4)" />
<use xlink:href="#f0_21" transform="matrix(12,0,0,12,121.2,525.4)" />
<use xlink:href="#f0_2k" transform="matrix(12,0,0,12,129.1,525.4)" />
<use xlink:href="#f0_1x" transform="matrix(12,0,0,12,138,525.4)" />
<use xlink:href="#f0_1z" transform="matrix(12,0,0,12,145.9,525.4)" />
<use xlink:href="#f0_2g" transform="matrix(12,0,0,12,153.8,525.4)" />
<use xlink:href="#f0_28" transform="matrix(12,0,0,12,158.8,525.4)" />
<use xlink:href="#f0_2l" transform="matrix(12,0,0,12,163.5,525.4)" />
<use xlink:href="#f0_2b" transform="matrix(12,0,0,12,175.3,525.4)" />
<use xlink:href="#f0_2a" transform="matrix(12,0,0,12,184.3,525.4)" />
<use xlink:href="#f0_21" transform="matrix(12,0,0,12,193.1,525.4)" />
<use xlink:href="#f0_52" transform="matrix(12,0,0,12,204.1,525.4)" />
<use xlink:href="#f0_2g" transform="matrix(12,0,0,12,209.9,525.4)" />
<use xlink:href="#f0_1x" transform="matrix(12,0,0,12,214.7,525.4)" />
<use xlink:href="#f0_25" transform="matrix(12,0,0,12,222.6,525.4)" />
<use xlink:href="#f0_28" transform="matrix(12,0,0,12,227.5,525.4)" />
<use xlink:href="#f0_53" transform="matrix(12,0,0,12,232.5,525.4)" />
<use xlink:href="#f0_g" transform="matrix(12,0,0,12,238.2,525.4)" />
<use xlink:href="#f0_2j" transform="matrix(12,0,0,12,245.9,525.4)" />
<use xlink:href="#f0_24" transform="matrix(12,0,0,12,258.7,525.4)" />
<use xlink:href="#f0_1x" transform="matrix(12,0,0,12,267.7,525.4)" />
<use xlink:href="#f0_2g" transform="matrix(12,0,0,12,275.6,525.4)" />
<use xlink:href="#f0_25" transform="matrix(12,0,0,12,283.6,525.4)" />
<use xlink:href="#f0_2f" transform="matrix(12,0,0,12,288.6,525.4)" />
<use xlink:href="#f0_2g" transform="matrix(12,0,0,12,298.8,525.4)" />
<use xlink:href="#f0_24" transform="matrix(12,0,0,12,303.6,525.4)" />
<use xlink:href="#f0_21" transform="matrix(12,0,0,12,312.6,525.4)" />
<use xlink:href="#f0_2c" transform="matrix(12,0,0,12,323.6,525.4)" />
<use xlink:href="#f0_2e" transform="matrix(12,0,0,12,332.4,525.4)" />
<use xlink:href="#f0_2b" transform="matrix(12,0,0,12,338.3,525.4)" />
<use xlink:href="#f0_1y" transform="matrix(12,0,0,12,347.2,525.4)" />
<use xlink:href="#f0_1x" transform="matrix(12,0,0,12,356.2,525.4)" />
<use xlink:href="#f0_1y" transform="matrix(12,0,0,12,363.9,525.4)" />
<use xlink:href="#f0_25" transform="matrix(12,0,0,12,372.9,525.4)" />
<use xlink:href="#f0_28" transform="matrix(12,0,0,12,377.9,525.4)" />
<use xlink:href="#f0_25" transform="matrix(12,0,0,12,382.8,525.4)" />
<use xlink:href="#f0_2g" transform="matrix(12,0,0,12,387.6,525.4)" />
<use xlink:href="#f0_2l" transform="matrix(12,0,0,12,392.5,525.4)" />
<use xlink:href="#f0_2g" transform="matrix(12,0,0,12,404.1,525.4)" />
<use xlink:href="#f0_24" transform="matrix(12,0,0,12,409,525.4)" />
<use xlink:href="#f0_1x" transform="matrix(12,0,0,12,418,525.4)" />
<use xlink:href="#f0_2g" transform="matrix(12,0,0,12,425.9,525.4)" />
<use xlink:href="#f0_2f" transform="matrix(12,0,0,12,434,525.4)" />
<use xlink:href="#f0_24" transform="matrix(12,0,0,12,440.9,525.4)" />
<use xlink:href="#f0_21" transform="matrix(12,0,0,12,449.9,525.4)" />
<use xlink:href="#f0_2g" transform="matrix(12,0,0,12,460.9,525.4)" />
<use xlink:href="#f0_24" transform="matrix(12,0,0,12,465.9,525.4)" />
<use xlink:href="#f0_2e" transform="matrix(12,0,0,12,474.8,525.4)" />
<use xlink:href="#f0_21" transform="matrix(12,0,0,12,480.5,525.4)" />
<use xlink:href="#f0_2j" transform="matrix(12,0,0,12,488.4,525.4)" />
<use xlink:href="#f0_n" transform="matrix(12,0,0,12,504.5,525.4)" />
<use xlink:href="#f0_g" transform="matrix(12,0,0,12,513.3,525.4)" />
<use xlink:href="#f0_o" transform="matrix(12,0,0,12,517.7,525.4)" />
<use xlink:href="#f0_g" transform="matrix(12,0,0,12,526.7,525.4)" />
<use xlink:href="#f0_p" transform="matrix(12,0,0,12,530.9,525.4)" />
<use xlink:href="#f0_2b" transform="matrix(12,0,0,12,543.2,525.4)" />
<use xlink:href="#f0_2e" transform="matrix(12,0,0,12,552.2,525.4)" />
<use xlink:href="#f0_q" transform="matrix(12,0,0,12,561.2,525.4)" />
<use xlink:href="#f0_2j" transform="matrix(12,0,0,12,573.5,525.4)" />
<use xlink:href="#f0_25" transform="matrix(12,0,0,12,586.3,525.4)" />
<use xlink:href="#f0_2g" transform="matrix(12,0,0,12,591.3,525.4)" />
<use xlink:href="#f0_24" transform="matrix(12,0,0,12,596.2,525.4)" />
<use xlink:href="#f0_2g" transform="matrix(12,0,0,12,608.1,525.4)" />
<use xlink:href="#f0_24" transform="matrix(12,0,0,12,613.1,525.4)" />
<use xlink:href="#f0_21" transform="matrix(12,0,0,12,622.1,525.4)" />
<use xlink:href="#f0_2e" transform="matrix(12,0,0,12,633.1,525.4)" />
<use xlink:href="#f0_25" transform="matrix(12,0,0,12,638.9,525.4)" />
<use xlink:href="#f0_20" transform="matrix(12,0,0,12,643.9,525.4)" />
<use xlink:href="#f0_21" transform="matrix(12,0,0,12,652.9,525.4)" />
<use xlink:href="#f0_z" transform="matrix(12,0,0,12,663.9,525.4)" />
<use xlink:href="#f0_1j" transform="matrix(12,0,0,12,64.9,556)" />
<use xlink:href="#f0_2b" transform="matrix(12,0,0,12,74.1,556)" />
<use xlink:href="#f0_28" transform="matrix(12,0,0,12,82.1,556)" />
<use xlink:href="#f0_u" transform="matrix(12,0,0,12,86.2,556)" />
<use xlink:href="#f0_1c" transform="matrix(12,0,0,12,121.9,556)" />
<use xlink:href="#f0_21" transform="matrix(12,0,0,12,132.5,556)" />
<use xlink:href="#f0_2g" transform="matrix(12,0,0,12,140.4,556)" />
<use xlink:href="#f1_11" transform="matrix(12,0,0,12,148.7,556)" />
<use xlink:href="#f0_1y" transform="matrix(12,0,0,12,163,556)" />
<use xlink:href="#f0_21" transform="matrix(12,0,0,12,172,556)" />
<use xlink:href="#f0_2g" transform="matrix(12,0,0,12,183,556)" />
<use xlink:href="#f0_24" transform="matrix(12,0,0,12,187.9,556)" />
<use xlink:href="#f0_21" transform="matrix(12,0,0,12,196.9,556)" />
<use xlink:href="#f0_21" transform="matrix(12,0,0,12,207.9,556)" />
<use xlink:href="#f0_2i" transform="matrix(12,0,0,12,215.8,556)" />
<use xlink:href="#f0_21" transform="matrix(12,0,0,12,224.8,556)" />
<use xlink:href="#f0_2a" transform="matrix(12,0,0,12,232.7,556)" />
<use xlink:href="#f0_2g" transform="matrix(12,0,0,12,241.5,556)" />
<use xlink:href="#f0_2g" transform="matrix(12,0,0,12,249.7,556)" />
<use xlink:href="#f0_24" transform="matrix(12,0,0,12,254.7,556)" />
<use xlink:href="#f0_1x" transform="matrix(12,0,0,12,263.6,556)" />
<use xlink:href="#f0_2g" transform="matrix(12,0,0,12,271.5,556)" />
<use xlink:href="#f0_23" transform="matrix(12,0,0,12,279.6,556)" />
<use xlink:href="#f0_25" transform="matrix(12,0,0,12,288.4,556)" />
<use xlink:href="#f0_2e" transform="matrix(12,0,0,12,293.3,556)" />
<use xlink:href="#f0_28" transform="matrix(12,0,0,12,299.2,556)" />
<use xlink:href="#f0_2j" transform="matrix(12,0,0,12,307.5,556)" />
<use xlink:href="#f0_25" transform="matrix(12,0,0,12,320.5,556)" />
<use xlink:href="#f0_28" transform="matrix(12,0,0,12,325.4,556)" />
<use xlink:href="#f0_28" transform="matrix(12,0,0,12,330.2,556)" />
<use xlink:href="#f0_23" transform="matrix(12,0,0,12,338.4,556)" />
<use xlink:href="#f0_21" transform="matrix(12,0,0,12,347.2,556)" />
<use xlink:href="#f0_2g" transform="matrix(12,0,0,12,355.1,556)" />
<use xlink:href="#f0_l" transform="matrix(12,0,0,12,363.2,556)" />
<use xlink:href="#f0_2b" transform="matrix(12,0,0,12,375.3,556)" />
<use xlink:href="#f0_2e" transform="matrix(12,0,0,12,384.3,556)" />
<use xlink:href="#f0_m" transform="matrix(12,0,0,12,393.4,556)" />
<use xlink:href="#f2_c" transform="matrix(11.8,0,0,15.6,137.9,602.6)" />
<use xlink:href="#f2_d" transform="matrix(11.8,0,0,15.6,158.8,602.6)" />
</g>
<path d="M183.3,596.7h10.8m19.4,0h9.7" class="g5_12" />
<g fill="#000000" >
<use xlink:href="#f0_m" transform="matrix(11.9,0,0,11.9,184.4,589.7)" />
<use xlink:href="#f0_l" transform="matrix(11.9,0,0,11.9,213.8,589.7)" />
<use xlink:href="#f0_q" transform="matrix(11.9,0,0,11.9,184.3,615.4)" />
<use xlink:href="#f0_n" transform="matrix(11.9,0,0,11.9,214.1,615.4)" />
<use xlink:href="#f1_1g" transform="matrix(11.9,0,0,11.9,124.5,601.3)" />
<use xlink:href="#f1_11" transform="matrix(11.9,0,0,11.9,146.8,601.3)" />
<use xlink:href="#f2_x" transform="matrix(11.9,0,0,11.9,168.7,601.3)" />
<use xlink:href="#f2_x" transform="matrix(11.9,0,0,11.9,198.9,601.3)" />
<use xlink:href="#f0_1c" transform="matrix(12,0,0,12,121.2,638.9)" />
<use xlink:href="#f0_21" transform="matrix(12,0,0,12,131.8,638.9)" />
<use xlink:href="#f0_2g" transform="matrix(12,0,0,12,139.9,638.9)" />
<use xlink:href="#f1_12" transform="matrix(12,0,0,12,148.3,638.9)" />
<use xlink:href="#f0_1y" transform="matrix(12,0,0,12,162.6,638.9)" />
<use xlink:href="#f0_21" transform="matrix(12,0,0,12,171.8,638.9)" />
<use xlink:href="#f0_2g" transform="matrix(12,0,0,12,182.8,638.9)" />
<use xlink:href="#f0_24" transform="matrix(12,0,0,12,187.7,638.9)" />
<use xlink:href="#f0_21" transform="matrix(12,0,0,12,196.9,638.9)" />
<use xlink:href="#f0_21" transform="matrix(12,0,0,12,208.1,638.9)" />
<use xlink:href="#f0_2i" transform="matrix(12,0,0,12,216,638.9)" />
<use xlink:href="#f0_21" transform="matrix(12,0,0,12,225.1,638.9)" />
<use xlink:href="#f0_2a" transform="matrix(12,0,0,12,233,638.9)" />
<use xlink:href="#f0_2g" transform="matrix(12,0,0,12,242,638.9)" />
<use xlink:href="#f0_2g" transform="matrix(12,0,0,12,250.4,638.9)" />
<use xlink:href="#f0_24" transform="matrix(12,0,0,12,255.4,638.9)" />
<use xlink:href="#f0_1x" transform="matrix(12,0,0,12,264.3,638.9)" />
<use xlink:href="#f0_2g" transform="matrix(12,0,0,12,272.4,638.9)" />
<use xlink:href="#f0_23" transform="matrix(12,0,0,12,280.7,638.9)" />
<use xlink:href="#f0_25" transform="matrix(12,0,0,12,289.5,638.9)" />
<use xlink:href="#f0_2e" transform="matrix(12,0,0,12,294.6,638.9)" />
<use xlink:href="#f0_28" transform="matrix(12,0,0,12,300.4,638.9)" />
<use xlink:href="#f0_2j" transform="matrix(12,0,0,12,308.7,638.9)" />
<use xlink:href="#f0_25" transform="matrix(12,0,0,12,321.7,638.9)" />
<use xlink:href="#f0_28" transform="matrix(12,0,0,12,326.7,638.9)" />
<use xlink:href="#f0_28" transform="matrix(12,0,0,12,331.6,638.9)" />
<use xlink:href="#f0_23" transform="matrix(12,0,0,12,340,638.9)" />
<use xlink:href="#f0_21" transform="matrix(12,0,0,12,348.8,638.9)" />
<use xlink:href="#f0_2g" transform="matrix(12,0,0,12,356.7,638.9)" />
<use xlink:href="#f0_n" transform="matrix(12,0,0,12,365.1,638.9)" />
<use xlink:href="#f0_g" transform="matrix(12,0,0,12,374.1,638.9)" />
<use xlink:href="#f0_o" transform="matrix(12,0,0,12,382,638.9)" />
<use xlink:href="#f0_g" transform="matrix(12,0,0,12,391,638.9)" />
<use xlink:href="#f0_p" transform="matrix(12,0,0,12,398.7,638.9)" />
<use xlink:href="#f0_2b" transform="matrix(12,0,0,12,411,638.9)" />
<use xlink:href="#f0_2e" transform="matrix(12,0,0,12,419.9,638.9)" />
<use xlink:href="#f0_q" transform="matrix(12,0,0,12,429.3,638.9)" />
<use xlink:href="#f2_c" transform="matrix(11.8,0,0,15.6,137.9,681.2)" />
<use xlink:href="#f2_d" transform="matrix(11.8,0,0,15.6,158.8,681.2)" />
</g>
<path d="M183.3,675.4h10.8m19.4,0h10.9" class="g5_12" />
<g fill="#000000" >
<use xlink:href="#f0_o" transform="matrix(11.9,0,0,11.9,184.4,668.4)" />
<use xlink:href="#f0_m" transform="matrix(11.9,0,0,11.9,214.7,668.4)" />
<use xlink:href="#f0_q" transform="matrix(11.9,0,0,11.9,184.3,694)" />
<use xlink:href="#f0_n" transform="matrix(11.9,0,0,11.9,214.7,694)" />
<use xlink:href="#f1_1g" transform="matrix(11.9,0,0,11.9,124.5,679.9)" />
<use xlink:href="#f1_12" transform="matrix(11.9,0,0,11.9,146.1,679.9)" />
<use xlink:href="#f2_x" transform="matrix(11.9,0,0,11.9,168.7,679.9)" />
<use xlink:href="#f2_x" transform="matrix(11.9,0,0,11.9,198.9,679.9)" />
</g>
<path d="M167.7,718.1l-19.9,28.3" class="g4_12" />
<g clip-path="url(#c2_12)">
<g fill="#000000" >
<use xlink:href="#f2_c" transform="matrix(11.7,0,0,22.6,137.9,740.6)" />
</g>
</g>
<g fill="#000000" >
<use xlink:href="#f2_d" transform="matrix(11.7,0,0,22.6,172.5,740.6)" />
<use xlink:href="#f1_1k" transform="matrix(12.1,0,0,12.1,144.3,732.4)" />
<use xlink:href="#f1_1g" transform="matrix(12.1,0,0,12.1,124.5,736.9)" />
<use xlink:href="#f1_11" transform="matrix(12.1,0,0,12.1,160.8,746.5)" />
<use xlink:href="#f0_x" transform="matrix(12,0,0,12,181.7,739)" />
<use xlink:href="#f0_1g" transform="matrix(12,0,0,12,194.9,739)" />
<use xlink:href="#f0_2e" transform="matrix(12,0,0,12,204.8,739)" />
<use xlink:href="#f0_2b" transform="matrix(12,0,0,12,210.5,739)" />
<use xlink:href="#f0_1y" transform="matrix(12,0,0,12,219.5,739)" />
<use xlink:href="#f0_1x" transform="matrix(12,0,0,12,228.3,739)" />
<use xlink:href="#f0_1y" transform="matrix(12,0,0,12,236,739)" />
<use xlink:href="#f0_25" transform="matrix(12,0,0,12,244.9,739)" />
<use xlink:href="#f0_28" transform="matrix(12,0,0,12,249.7,739)" />
<use xlink:href="#f0_25" transform="matrix(12,0,0,12,254.5,739)" />
<use xlink:href="#f0_2g" transform="matrix(12,0,0,12,259.4,739)" />
<use xlink:href="#f0_2l" transform="matrix(12,0,0,12,264.2,739)" />
<use xlink:href="#f0_2b" transform="matrix(12,0,0,12,275.7,739)" />
<use xlink:href="#f0_22" transform="matrix(12,0,0,12,284.5,739)" />
<use xlink:href="#f0_21" transform="matrix(12,0,0,12,293.3,739)" />
<use xlink:href="#f0_2k" transform="matrix(12,0,0,12,301,739)" />
<use xlink:href="#f0_1x" transform="matrix(12,0,0,12,310.2,739)" />
<use xlink:href="#f0_1z" transform="matrix(12,0,0,12,317.9,739)" />
<use xlink:href="#f0_2g" transform="matrix(12,0,0,12,325.6,739)" />
<use xlink:href="#f0_28" transform="matrix(12,0,0,12,330.5,739)" />
<use xlink:href="#f0_2l" transform="matrix(12,0,0,12,335.3,739)" />
<use xlink:href="#f0_2b" transform="matrix(12,0,0,12,346.9,739)" />
<use xlink:href="#f0_2a" transform="matrix(12,0,0,12,355.7,739)" />
<use xlink:href="#f0_21" transform="matrix(12,0,0,12,364.5,739)" />
<use xlink:href="#f0_2g" transform="matrix(12,0,0,12,375.5,739)" />
<use xlink:href="#f0_25" transform="matrix(12,0,0,12,380.2,739)" />
<use xlink:href="#f0_28" transform="matrix(12,0,0,12,385.2,739)" />
<use xlink:href="#f0_28" transform="matrix(12,0,0,12,389.9,739)" />
<use xlink:href="#f0_23" transform="matrix(12,0,0,12,398,739)" />
<use xlink:href="#f0_25" transform="matrix(12,0,0,12,406.6,739)" />
<use xlink:href="#f0_2i" transform="matrix(12,0,0,12,411.6,739)" />
<use xlink:href="#f0_21" transform="matrix(12,0,0,12,420.4,739)" />
<use xlink:href="#f0_2a" transform="matrix(12,0,0,12,428.1,739)" />
<use xlink:href="#f0_2f" transform="matrix(12,0,0,12,440,739)" />
<use xlink:href="#f0_24" transform="matrix(12,0,0,12,446.8,739)" />
<use xlink:href="#f0_21" transform="matrix(12,0,0,12,455.8,739)" />
<use xlink:href="#f0_2j" transform="matrix(12,0,0,12,466.6,739)" />
<use xlink:href="#f0_25" transform="matrix(12,0,0,12,479.6,739)" />
<use xlink:href="#f0_28" transform="matrix(12,0,0,12,484.4,739)" />
<use xlink:href="#f0_28" transform="matrix(12,0,0,12,489.1,739)" />
<use xlink:href="#f0_23" transform="matrix(12,0,0,12,497.2,739)" />
<use xlink:href="#f0_21" transform="matrix(12,0,0,12,505.8,739)" />
<use xlink:href="#f0_2g" transform="matrix(12,0,0,12,513.7,739)" />
<use xlink:href="#f0_l" transform="matrix(12,0,0,12,521.8,739)" />
<use xlink:href="#f0_2b" transform="matrix(12,0,0,12,533.5,739)" />
<use xlink:href="#f0_2e" transform="matrix(12,0,0,12,542.5,739)" />
<use xlink:href="#f0_m" transform="matrix(12,0,0,12,551.3,739)" />
</g>
<path d="M581,731.8h9.9" class="g4_12" />
<g fill="#000000" >
<use xlink:href="#f0_n" transform="matrix(11.9,0,0,11.9,581.5,724.8)" />
<use xlink:href="#f0_s" transform="matrix(11.9,0,0,11.9,581.4,750.5)" />
<use xlink:href="#f2_x" transform="matrix(11.9,0,0,11.9,566.1,736.4)" />
</g>
<path d="M167.7,774.5l-19.9,28.4" class="g4_12" />
<g clip-path="url(#c3_12)">
<g fill="#000000" >
<use xlink:href="#f2_c" transform="matrix(11.7,0,0,22.6,137.9,797.1)" />
</g>
</g>
<g fill="#000000" >
<use xlink:href="#f2_d" transform="matrix(11.7,0,0,22.6,172.5,797.1)" />
<use xlink:href="#f1_1k" transform="matrix(12.1,0,0,12.1,144.3,788.8)" />
<use xlink:href="#f1_1g" transform="matrix(12.1,0,0,12.1,124.5,793.4)" />
</g>
<g clip-path="url(#c4_12)">
<g fill="#000000" >
<use xlink:href="#f1_12" transform="matrix(12.1,0,0,12.1,159.9,802.9)" />
</g>
</g>
<g fill="#000000" >
<use xlink:href="#f0_x" transform="matrix(12,0,0,12,185,795.4)" />
<use xlink:href="#f0_1g" transform="matrix(12,0,0,12,198,795.4)" />
<use xlink:href="#f0_2e" transform="matrix(12,0,0,12,208.1,795.4)" />
<use xlink:href="#f0_2b" transform="matrix(12,0,0,12,214,795.4)" />
<use xlink:href="#f0_1y" transform="matrix(12,0,0,12,222.9,795.4)" />
<use xlink:href="#f0_1x" transform="matrix(12,0,0,12,231.9,795.4)" />
<use xlink:href="#f0_1y" transform="matrix(12,0,0,12,239.8,795.4)" />
<use xlink:href="#f0_25" transform="matrix(12,0,0,12,248.6,795.4)" />
<use xlink:href="#f0_28" transform="matrix(12,0,0,12,253.6,795.4)" />
<use xlink:href="#f0_25" transform="matrix(12,0,0,12,258.5,795.4)" />
<use xlink:href="#f0_2g" transform="matrix(12,0,0,12,263.5,795.4)" />
<use xlink:href="#f0_2l" transform="matrix(12,0,0,12,268.4,795.4)" />
<use xlink:href="#f0_2b" transform="matrix(12,0,0,12,280,795.4)" />
<use xlink:href="#f0_22" transform="matrix(12,0,0,12,288.9,795.4)" />
<use xlink:href="#f0_21" transform="matrix(12,0,0,12,298.1,795.4)" />
<use xlink:href="#f0_2k" transform="matrix(12,0,0,12,306,795.4)" />
<use xlink:href="#f0_1x" transform="matrix(12,0,0,12,315,795.4)" />
<use xlink:href="#f0_1z" transform="matrix(12,0,0,12,322.9,795.4)" />
<use xlink:href="#f0_2g" transform="matrix(12,0,0,12,330.7,795.4)" />
<use xlink:href="#f0_28" transform="matrix(12,0,0,12,335.7,795.4)" />
<use xlink:href="#f0_2l" transform="matrix(12,0,0,12,340.6,795.4)" />
<use xlink:href="#f0_2b" transform="matrix(12,0,0,12,352.2,795.4)" />
<use xlink:href="#f0_2a" transform="matrix(12,0,0,12,361.2,795.4)" />
<use xlink:href="#f0_21" transform="matrix(12,0,0,12,370.2,795.4)" />
<use xlink:href="#f0_2g" transform="matrix(12,0,0,12,381.2,795.4)" />
<use xlink:href="#f0_25" transform="matrix(12,0,0,12,385.9,795.4)" />
<use xlink:href="#f0_28" transform="matrix(12,0,0,12,390.9,795.4)" />
<use xlink:href="#f0_28" transform="matrix(12,0,0,12,395.8,795.4)" />
<use xlink:href="#f0_23" transform="matrix(12,0,0,12,404.1,795.4)" />
<use xlink:href="#f0_25" transform="matrix(12,0,0,12,412.9,795.4)" />
<use xlink:href="#f0_2i" transform="matrix(12,0,0,12,417.6,795.4)" />
<use xlink:href="#f0_21" transform="matrix(12,0,0,12,426.6,795.4)" />
<use xlink:href="#f0_2a" transform="matrix(12,0,0,12,434.5,795.4)" />
<use xlink:href="#f0_2f" transform="matrix(12,0,0,12,446.8,795.4)" />
<use xlink:href="#f0_24" transform="matrix(12,0,0,12,453.6,795.4)" />
<use xlink:href="#f0_21" transform="matrix(12,0,0,12,462.6,795.4)" />
<use xlink:href="#f0_2j" transform="matrix(12,0,0,12,473.7,795.4)" />
<use xlink:href="#f0_25" transform="matrix(12,0,0,12,486.8,795.4)" />
<use xlink:href="#f0_28" transform="matrix(12,0,0,12,491.7,795.4)" />
<use xlink:href="#f0_28" transform="matrix(12,0,0,12,496.5,795.4)" />
<use xlink:href="#f0_23" transform="matrix(12,0,0,12,504.5,795.4)" />
<use xlink:href="#f0_21" transform="matrix(12,0,0,12,513.3,795.4)" />
<use xlink:href="#f0_2g" transform="matrix(12,0,0,12,521.2,795.4)" />
<use xlink:href="#f0_n" transform="matrix(12,0,0,12,529.3,795.4)" />
<use xlink:href="#f0_g" transform="matrix(12,0,0,12,538.3,795.4)" />
<use xlink:href="#f0_o" transform="matrix(12,0,0,12,546,795.4)" />
<use xlink:href="#f0_g" transform="matrix(12,0,0,12,555,795.4)" />
<use xlink:href="#f0_p" transform="matrix(12,0,0,12,562.5,795.4)" />
<use xlink:href="#f0_2b" transform="matrix(12,0,0,12,574.6,795.4)" />
<use xlink:href="#f0_2e" transform="matrix(12,0,0,12,583.6,795.4)" />
<use xlink:href="#f0_q" transform="matrix(12,0,0,12,592.5,795.4)" />
</g>
<path d="M622.2,788.3h10.9" class="g6_12" />
<g fill="#000000" >
<use xlink:href="#f0_l" transform="matrix(11.9,0,0,11.9,623.2,781.3)" />
<use xlink:href="#f0_m" transform="matrix(11.9,0,0,11.9,623.3,807)" />
<use xlink:href="#f2_x" transform="matrix(11.9,0,0,11.9,607.6,792.9)" />
</g>
<path d="M168.8,845.9l-20,28.1" class="g7_12" />
<g fill="#000000" >
<use xlink:href="#f2_c" transform="matrix(11.8,0,0,22.3,138,868.2)" />
<use xlink:href="#f2_d" transform="matrix(11.8,0,0,22.3,172.9,868.2)" />
<use xlink:href="#f2_c" transform="matrix(11.8,0,0,15.7,275.6,848)" />
<use xlink:href="#f2_d" transform="matrix(11.8,0,0,15.7,296.5,848)" />
</g>
<path d="M360.5,828l-20,28.1" class="g8_12" />
<g clip-path="url(#c5_12)">
<g fill="#000000" >
<use xlink:href="#f2_c" transform="matrix(11.8,0,0,22.3,330.7,850.2)" />
</g>
</g>
<g fill="#000000" >
<use xlink:href="#f2_d" transform="matrix(11.8,0,0,22.3,365.2,850.2)" />
<use xlink:href="#f2_c" transform="matrix(11.8,0,0,15.7,212.7,883.8)" />
<use xlink:href="#f2_d" transform="matrix(11.8,0,0,15.7,233.4,883.8)" />
</g>
<path d="M297.5,863.8l-20,28.1" class="g8_12" />
<g fill="#000000" >
<use xlink:href="#f2_c" transform="matrix(11.8,0,0,22.3,267.9,886)" />
<use xlink:href="#f2_d" transform="matrix(11.8,0,0,22.3,302.1,886)" />
<use xlink:href="#f2_c" transform="matrix(11.8,0,0,15.7,338.4,883.8)" />
<use xlink:href="#f2_d" transform="matrix(11.8,0,0,15.7,359.3,883.8)" />
</g>
<path d="M423.5,863.8l-20.1,28.1" class="g8_12" />
<g fill="#000000" >
<use xlink:href="#f2_c" transform="matrix(11.8,0,0,22.3,393.8,886)" />
<use xlink:href="#f2_d" transform="matrix(11.8,0,0,22.3,428.1,886)" />
</g>
<path d="M197.4,860H434.7" class="g7_12" />
<g fill="#000000" >
<use xlink:href="#f1_1k" transform="matrix(12,0,0,12,337.2,842)" />
<use xlink:href="#f1_1g" transform="matrix(12,0,0,12,262.2,846.6)" />
<use xlink:href="#f1_12" transform="matrix(12,0,0,12,283.8,846.6)" />
<use xlink:href="#f1_1g" transform="matrix(12,0,0,12,317.3,846.6)" />
<use xlink:href="#f1_12" transform="matrix(12,0,0,12,352.6,856.1)" />
<use xlink:href="#f1_12" transform="matrix(12,0,0,12,146.1,860)" />
<use xlink:href="#f1_1g" transform="matrix(12,0,0,12,124.5,864.5)" />
<use xlink:href="#f1_1k" transform="matrix(12,0,0,12,159.3,874.1)" />
<use xlink:href="#f1_1k" transform="matrix(12,0,0,12,274.3,877.9)" />
<use xlink:href="#f1_1k" transform="matrix(12,0,0,12,400,877.9)" />
<use xlink:href="#f1_1g" transform="matrix(12,0,0,12,199.1,882.5)" />
<use xlink:href="#f1_11" transform="matrix(12,0,0,12,221.6,882.5)" />
<use xlink:href="#f1_1g" transform="matrix(12,0,0,12,254.2,882.5)" />
<use xlink:href="#f1_1g" transform="matrix(12,0,0,12,325,882.5)" />
<use xlink:href="#f1_12" transform="matrix(12,0,0,12,346.6,882.5)" />
<use xlink:href="#f1_1g" transform="matrix(12,0,0,12,380.1,882.5)" />
<use xlink:href="#f1_11" transform="matrix(12,0,0,12,290.4,891.9)" />
<use xlink:href="#f1_12" transform="matrix(12,0,0,12,415.4,891.9)" />
<use xlink:href="#f2_3a" transform="matrix(12,0,0,12,304.2,846.6)" />
<use xlink:href="#f2_x" transform="matrix(12,0,0,12,182.8,864.5)" />
<use xlink:href="#f2_3a" transform="matrix(12,0,0,12,241.3,882.5)" />
<use xlink:href="#f2_f" transform="matrix(12,0,0,12,311.1,882.5)" />
<use xlink:href="#f2_3a" transform="matrix(12,0,0,12,367,882.5)" />
</g>
<path d="M214,937.8h11m15.5,0h10.9M187.7,982h9.8m15.5,0h9.8m17.6,0h10.9m15.5,0h10.9" class="g9_12" />
<path d="M186.3,959h92.9" class="g4_12" />
<g fill="#000000" >
<use xlink:href="#f0_m" transform="matrix(12,0,0,12,215.2,931.1)" />
<use xlink:href="#f0_l" transform="matrix(12,0,0,12,241.4,931.1)" />
<use xlink:href="#f0_n" transform="matrix(12,0,0,12,215.2,956.4)" />
<use xlink:href="#f0_m" transform="matrix(12,0,0,12,241.6,956.4)" />
<use xlink:href="#f0_l" transform="matrix(12,0,0,12,188.1,975.3)" />
<use xlink:href="#f0_n" transform="matrix(12,0,0,12,213.6,975.3)" />
<use xlink:href="#f0_m" transform="matrix(12,0,0,12,241.4,975.3)" />
<use xlink:href="#f0_l" transform="matrix(12,0,0,12,267.6,975.3)" />
<use xlink:href="#f0_n" transform="matrix(12,0,0,12,188.3,1000.6)" />
<use xlink:href="#f0_s" transform="matrix(12,0,0,12,213.4,1000.6)" />
<use xlink:href="#f0_n" transform="matrix(12,0,0,12,241.4,1000.6)" />
<use xlink:href="#f0_m" transform="matrix(12,0,0,12,268,1000.6)" />
<use xlink:href="#f2_3a" transform="matrix(12,0,0,12,227.5,942.3)" />
<use xlink:href="#f2_x" transform="matrix(12,0,0,12,171.6,963.5)" />
<use xlink:href="#f2_3a" transform="matrix(12,0,0,12,200,986.6)" />
<use xlink:href="#f2_f" transform="matrix(12,0,0,12,226.6,986.6)" />
<use xlink:href="#f2_3a" transform="matrix(12,0,0,12,253.9,986.6)" />
</g>
<path d="M201,1047.8h9.7M187.5,1092h9.7m17.4,0h9.6" class="g10_12" />
<path d="M186.1,1069h39.5" class="g2_12" />
<g fill="#000000" >
<use xlink:href="#f0_l" transform="matrix(12,0,0,12,201.3,1041.1)" />
<use xlink:href="#f0_n" transform="matrix(12,0,0,12,201.7,1066.4)" />
<use xlink:href="#f0_l" transform="matrix(12,0,0,12,187.7,1085.3)" />
<use xlink:href="#f0_l" transform="matrix(12,0,0,12,214.8,1085.3)" />
<use xlink:href="#f0_s" transform="matrix(12,0,0,12,187.7,1110.6)" />
<use xlink:href="#f0_n" transform="matrix(12,0,0,12,215,1110.6)" />
<use xlink:href="#f2_x" transform="matrix(12,0,0,12,171.6,1073.5)" />
<use xlink:href="#f2_f" transform="matrix(12,0,0,12,200.9,1096.6)" />
<use xlink:href="#f3_l" transform="matrix(8,0,0,8,785.4,1264.3)" />
<use xlink:href="#f3_m" transform="matrix(8,0,0,8,792.2,1264.3)" />
</g>
<defs>
<path d="M197,0V27c0,0,71,2,92,13c0,0,21,10,29,29c0,0,9,18,9,109V725c0,0,0,110,-8,141c0,0,-5,24,-19,35c0,0,-14,11,-33,11c0,0,-28,0,-77,-23l-11,23l246,121h25V178c0,0,0,-85,7,-106c0,0,7,-21,29,-32c0,0,23,-11,91,-13V0Z" 
id="f0_l"
transform="scale(0.001,-0.001)" />

<path d="M82,-253v33c0,0,77,25,119,78c0,0,42,54,42,114c0,0,0,14,-7,23c0,0,-5,6,-11,6c0,0,-8,0,-35,-14c0,0,-14,-7,-28,-7c0,0,-37,0,-58,21C104,1,82,23,82,61c0,0,0,36,28,62c0,0,28,27,68,27c0,0,49,0,88,-43c0,0,38,-43,38,-113c0,0,0,-77,-53,-143c0,0,-53,-66,-169,-104Z" 
id="f0_g"
transform="scale(0.001,-0.001)" />

<path d="M600,387l39,398L345,387ZM-74,0l8,26c0,0,55,3,97,37c0,0,42,35,125,149l605,822h26L710,193c0,0,-6,-59,-6,-78c0,0,0,-30,11,-46c0,0,14,-22,39,-32c0,0,24,-11,81,-11L827,0H429l8,26h17c0,0,49,0,79,21c0,0,22,15,34,48c0,0,8,23,15,109l13,128H305L202,193c0,0,-35,-47,-44,-68c0,0,-9,-20,-9,-38c0,0,0,-25,20,-42c0,0,19,-17,64,-19L225,0Z" 
id="f1_11"
transform="scale(0.001,-0.001)" />

<path d="M357,55c0,0,117,0,206,70c0,0,90,70,90,191c0,0,0,92,-56,144c0,0,-57,51,-182,51c0,0,-24,0,-59,-3L231,65c0,0,81,-10,126,-10Zm86,508c0,0,158,0,234,68c0,0,77,67,77,169c0,0,0,76,-48,119c0,0,-48,43,-153,43c0,0,-28,0,-71,-9L372,564c0,0,49,-1,71,-1ZM-34,0l10,26c0,0,57,2,78,12c0,0,30,12,42,33c0,0,18,29,48,131L318,816c0,0,23,78,23,109c0,0,0,28,-20,44c0,0,-21,16,-78,16c0,0,-13,0,-24,1l10,26H594c0,0,92,0,164,-28c0,0,72,-29,108,-79c0,0,36,-51,36,-108c0,0,0,-87,-66,-157c0,0,-66,-71,-216,-104c0,0,99,-35,146,-91c0,0,46,-57,46,-125c0,0,0,-76,-39,-144c0,0,-39,-69,-99,-107C674,69,613,31,527,13C527,13,466,0,336,0Z" 
id="f1_12"
transform="scale(0.001,-0.001)" />

<path d="M518,-21c0,0,-124,0,-220,50c0,0,-95,52,-145,146c0,0,-50,94,-50,202c0,0,0,166,88,322c0,0,89,157,244,246c0,0,155,89,312,89c0,0,74,0,166,-34c0,0,40,-15,58,-15c0,0,18,0,31,7c0,0,14,8,45,42h28L999,707H972l-3,82c0,0,-4,45,-17,80c0,0,-14,35,-40,61c0,0,-27,26,-68,40c0,0,-41,15,-91,15c0,0,-134,0,-234,-73c0,0,-127,-94,-199,-264c0,0,-60,-140,-60,-284c0,0,0,-147,86,-234c0,0,86,-88,223,-88c0,0,104,0,185,46c0,0,81,47,151,143h35C940,231,858,100,757,39c0,0,-100,-60,-239,-60Z" 
id="f1_13"
transform="scale(0.001,-0.001)" />

<path d="M0,214v74H784V214ZM0,494v72H784V494Z" 
id="f2_x"
transform="scale(0.001,-0.001)" />

<path d="M33,0V27c0,0,264,241,371,393c0,0,108,152,108,278c0,0,0,96,-59,158c0,0,-59,62,-141,62c0,0,-75,0,-134,-43c0,0,-59,-44,-88,-128H63c0,0,18,138,95,212c0,0,77,74,193,74c0,0,123,0,205,-80c0,0,83,-79,83,-186c0,0,0,-77,-36,-154c0,0,-55,-121,-179,-256C424,357,238,154,191,112H455c0,0,81,0,114,6c0,0,32,6,58,25c0,0,27,18,46,52h27L630,0Z" 
id="f0_m"
transform="scale(0.001,-0.001)" />

<path d="M474,-326c0,0,-112,57,-188,133c0,0,-107,108,-165,254c0,0,-58,147,-58,305c0,0,0,231,114,421c0,0,114,191,297,273v-31c0,0,-92,-51,-151,-139c0,0,-59,-88,-88,-223c0,0,-30,-135,-30,-281c0,0,0,-160,25,-290c0,0,20,-102,47,-164c0,0,28,-62,75,-120c0,0,47,-57,122,-109v-29Z" 
id="f0_c"
transform="scale(0.001,-0.001)" />

<path d="M35,-326v29c0,0,92,51,151,139c0,0,60,87,89,221c0,0,28,136,28,282c0,0,0,159,-24,290c0,0,-19,103,-47,165c0,0,-28,62,-75,119c0,0,-46,57,-122,110v31c0,0,113,-56,188,-132c0,0,107,-109,165,-255c0,0,58,-147,58,-306c0,0,0,-231,-114,-420c0,0,-113,-191,-297,-273Z" 
id="f0_d"
transform="scale(0.001,-0.001)" />

<path d="M133,-17c0,0,-31,0,-50,20C83,3,63,23,63,55c0,0,0,40,25,123L228,609H104l8,30c0,0,82,23,139,67c0,0,57,44,128,154h33L351,657H456L443,609H337L203,171c0,0,-25,-75,-25,-97c0,0,0,-12,5,-19c0,0,5,-6,13,-6c0,0,16,0,44,25c0,0,15,15,71,92l24,-19C335,147,270,48,213,9c0,0,-40,-26,-80,-26Z" 
id="f1_2g"
transform="scale(0.001,-0.001)" />

<path d="M-46,0l10,26c0,0,62,2,82,11c0,0,33,13,48,35c0,0,25,36,51,126L318,810c0,0,23,76,23,115c0,0,0,20,-10,33c0,0,-10,13,-29,21c0,0,-20,7,-78,7l9,26H619l-8,-26h-2c-8,0,-48,-1,-69,-12c0,0,-33,-16,-51,-46c0,0,-17,-30,-45,-132L271,185c0,0,-23,-78,-23,-100c0,0,0,-17,9,-29c0,0,9,-12,30,-19c0,0,20,-6,85,-11L364,0Z" 
id="f1_19"
transform="scale(0.001,-0.001)" />

<path d="M252,70c0,0,90,0,212,168c0,0,123,168,123,294c0,0,0,47,-30,76c0,0,-30,30,-77,30c0,0,-103,0,-214,-156C266,482,155,327,155,185c0,0,0,-56,28,-85c0,0,29,-30,69,-30ZM185,-17c0,0,-63,0,-109,50C76,33,29,83,29,169c0,0,0,111,77,237c0,0,77,126,203,205c0,0,99,64,182,64c0,0,44,0,75,-17c0,0,32,-16,62,-54l71,247c0,0,11,40,18,64c0,0,9,31,9,50c0,0,0,16,-11,27c0,0,-16,13,-40,13c0,0,-17,0,-57,-6v27l255,42L615,170c0,0,-21,-73,-21,-95c0,0,0,-7,4,-13c0,0,4,-6,8,-6c0,0,7,0,16,9c0,0,16,16,56,88l25,-16c0,0,-43,-73,-88,-114c0,0,-44,-40,-83,-40c0,0,-20,0,-35,17c0,0,-16,18,-16,51c0,0,0,42,22,114l29,94C532,259,413,91,315,27c0,0,-68,-44,-130,-44Z" 
id="f1_20"
transform="scale(0.001,-0.001)" />

<path d="M62,-123V268c0,0,0,230,56,452c0,0,47,190,134,334c0,0,87,144,204,242c0,0,85,73,194,119l18,-16c0,0,-211,-145,-335,-339c0,0,-98,-156,-149,-374c0,0,-50,-218,-50,-403V-123Z" 
id="f2_4o"
transform="scale(0.001,-0.001)" />

<path d="M617,-123V283c0,0,0,236,-63,459c0,0,-63,223,-188,392c0,0,-108,146,-282,265l17,16c0,0,180,-76,320,-248c0,0,139,-172,204,-417c0,0,64,-245,64,-482V-123Z" 
id="f2_54"
transform="scale(0.001,-0.001)" />

<path d="M83,0C83,0,48,0,24,24C24,24,0,49,0,83c0,0,0,34,24,58c0,0,24,24,59,24c0,0,34,0,58,-24c0,0,24,-24,24,-58c0,0,0,-34,-24,-59C141,24,117,0,83,0ZM695,0c0,0,-34,0,-58,24c0,0,-25,25,-25,59c0,0,0,34,25,58c0,0,24,24,58,24c0,0,34,0,58,-24c0,0,24,-24,24,-58c0,0,0,-34,-24,-59C753,24,729,0,695,0ZM388,594c0,0,-34,0,-59,23c0,0,-24,24,-24,59c0,0,0,34,24,58c0,0,25,25,59,25c0,0,34,0,58,-25c0,0,24,-24,24,-58c0,0,0,-35,-24,-59c0,0,-24,-23,-58,-23Z" 
id="f2_1s"
transform="scale(0.001,-0.001)" />

<path d="M355,0V355H0v72H355V784h72V427H782V355H427V0Z" 
id="f2_f"
transform="scale(0.001,-0.001)" />

<path d="M62,-123V1415h72V-123Z" 
id="f2_4p"
transform="scale(0.001,-0.001)" />

<path d="M617,-123V1415h72V-123Z" 
id="f2_55"
transform="scale(0.001,-0.001)" />

<path d="M0,356v74H784V356Z" 
id="f2_h"
transform="scale(0.001,-0.001)" />

<path d="M650,-123c0,0,-180,75,-319,246c0,0,-140,172,-205,418c0,0,-64,245,-64,481v393h72V1007c0,0,0,-236,63,-459c0,0,63,-223,189,-391c0,0,108,-145,282,-265l-18,-15Z" 
id="f2_4q"
transform="scale(0.001,-0.001)" />

<path d="M101,-123l-17,15c0,0,210,144,334,339c0,0,99,156,149,373c0,0,50,218,50,403v408h72V1022c0,0,0,-230,-56,-451c0,0,-48,-191,-134,-335C499,236,412,92,295,-5c0,0,-84,-73,-194,-118Z" 
id="f2_56"
transform="scale(0.001,-0.001)" />

<path d="M88,-163c0,0,-39,0,-63,25c0,0,-25,26,-25,65c0,0,0,34,19,54c0,0,19,19,48,19c0,0,30,0,51,-23c0,0,22,-24,37,-24c0,0,12,0,21,11c0,0,8,10,8,35c0,0,0,30,-7,88c0,0,-27,235,-27,620c0,0,13,411,17,446c0,0,17,139,60,188c0,0,43,48,98,48c0,0,37,0,65,-25c0,0,28,-25,28,-54c0,0,0,-35,-19,-57c0,0,-20,-21,-49,-21c0,0,-26,0,-57,27c0,0,-17,15,-30,15c0,0,-12,0,-21,-11c0,0,-8,-11,-8,-37c0,0,0,-31,6,-108c0,0,28,-306,28,-496c0,0,0,-50,-12,-439c0,0,-6,-219,-67,-296c0,0,-41,-50,-101,-50Z" 
id="f2_50"
transform="scale(0.001,-0.001)" />

<path d="M58,0V26c0,0,47,0,64,10c0,0,18,10,28,32c0,0,9,23,9,86V775c0,0,0,116,-5,142c0,0,-5,27,-17,37c0,0,-11,9,-29,9c0,0,-20,0,-49,-12L46,978l204,83h34V154c0,0,0,-64,9,-85c0,0,9,-21,29,-32c0,0,19,-11,72,-11V0Z" 
id="f0_28"
transform="scale(0.001,-0.001)" />

<path d="M406,32c0,0,72,0,119,60c0,0,47,59,47,205c0,0,0,181,-78,286c0,0,-53,71,-135,71c0,0,-40,0,-79,-23c0,0,-40,-24,-65,-83c0,0,-24,-58,-24,-151c0,0,0,-149,59,-257c0,0,59,-108,156,-108ZM374,-20c0,0,-154,0,-245,122c0,0,-77,104,-77,233c0,0,0,94,46,187c0,0,47,92,123,137c0,0,76,44,161,44c0,0,155,0,249,-118c0,0,80,-100,80,-231c0,0,0,-91,-44,-185C667,169,623,75,546,27c0,0,-77,-47,-172,-47Z" 
id="f0_2b"
transform="scale(0.001,-0.001)" />

<path d="M411,-239c0,0,134,0,198,48c0,0,64,47,64,100c0,0,0,39,-38,55c0,0,-39,16,-154,19c0,0,-167,5,-258,17c0,0,-35,-37,-53,-70c0,0,-17,-32,-17,-60c0,0,0,-36,43,-62c0,0,74,-47,215,-47ZM380,257c0,0,56,0,93,43c0,0,36,42,36,133c0,0,0,118,-51,185c0,0,-38,49,-98,49c0,0,-55,0,-92,-44c0,0,-37,-44,-37,-135c0,0,0,-117,50,-182c0,0,39,-49,99,-49ZM345,-328c0,0,-144,0,-243,64c0,0,-56,38,-56,78c0,0,0,18,8,36c0,0,13,27,52,76c0,0,5,7,76,80c0,0,-39,23,-55,41c0,0,-16,19,-16,42c0,0,0,26,22,61c0,0,21,35,98,100c0,0,-63,30,-97,85c0,0,-33,55,-33,121c0,0,0,101,76,174c0,0,77,73,196,73c0,0,98,0,170,-48H688c0,0,32,0,37,-2c0,0,6,-2,8,-6c0,0,4,-7,4,-24c0,0,0,-20,-4,-27c0,0,-2,-4,-7,-6c0,0,-6,-2,-38,-2H599c0,0,41,-54,41,-137c0,0,0,-96,-73,-163c0,0,-73,-68,-196,-68c0,0,-51,0,-104,15c0,0,-33,-28,-44,-49c0,0,-12,-22,-12,-37c0,0,0,-12,13,-24c0,0,12,-12,48,-17c0,0,21,-4,104,-6c0,0,154,-4,199,-11c0,0,70,-10,111,-51c0,0,42,-41,42,-102c0,0,0,-84,-79,-158c0,0,-117,-108,-304,-108Z" 
id="f0_23"
transform="scale(0.001,-0.001)" />

<path d="M255,-10c0,0,-35,0,-68,18c0,0,-32,19,-48,55c0,0,-16,35,-16,109V632H15v24c0,0,41,16,84,56c0,0,43,39,77,92c0,0,17,29,48,104h23V683H407V632H247V188c0,0,0,-66,19,-90c0,0,19,-23,49,-23c0,0,24,0,47,16c0,0,23,15,36,45h29c0,0,-26,-73,-74,-110c0,0,-47,-36,-98,-36Z" 
id="f0_2g"
transform="scale(0.001,-0.001)" />

<path d="M286,72c0,0,57,0,149,75V407c0,0,-113,-45,-145,-64c0,0,-59,-32,-85,-68c0,0,-25,-36,-25,-78c0,0,0,-54,32,-89c0,0,32,-36,74,-36ZM217,-13c0,0,-71,0,-116,48c0,0,-46,48,-46,127c0,0,0,50,22,87c0,0,31,50,106,95c0,0,76,45,252,109v26c0,0,0,102,-32,140c0,0,-32,38,-94,38c0,0,-47,0,-74,-25c0,0,-28,-25,-28,-58l1,-43c0,0,0,-34,-17,-53c0,0,-18,-18,-47,-18c0,0,-28,0,-45,19c0,0,-18,19,-18,53c0,0,0,64,66,117c0,0,65,54,184,54c0,0,91,0,149,-31c0,0,44,-23,65,-72c0,0,13,-32,13,-131V238c0,0,0,-98,4,-120c0,0,4,-22,12,-29c0,0,9,-8,20,-8c0,0,12,0,21,5c0,0,16,10,61,55V99C676,99,592,-12,516,-12c0,0,-37,0,-58,24c0,0,-22,26,-23,86C435,98,330,17,303,5c0,0,-40,-18,-86,-18Z" 
id="f0_1x"
transform="scale(0.001,-0.001)" />

<path d="M21,0V26H35c0,0,53,0,71,27c0,0,18,27,18,101V408c0,0,0,123,-5,150c0,0,-6,27,-17,37c0,0,-12,10,-31,10c0,0,-21,0,-50,-11L10,620l206,83h32V558c0,0,120,145,229,145c0,0,56,0,96,-28c0,0,40,-28,64,-92c0,0,16,-45,16,-137V154c0,0,0,-65,11,-88c0,0,8,-19,26,-29c0,0,18,-11,68,-11V0H419V26h14c0,0,47,0,66,15c0,0,20,15,27,43c0,0,3,11,3,70V434c0,0,0,93,-24,135c0,0,-24,42,-81,42c0,0,-88,0,-176,-97V154c0,0,0,-69,9,-86c0,0,10,-21,28,-31c0,0,19,-11,75,-11V0Z" 
id="f0_2a"
transform="scale(0.001,-0.001)" />

<path d="M412,-328c0,0,-195,96,-303,284C109,-44,0,142,0,365c0,0,0,232,114,422c0,0,114,191,298,273v-31c0,0,-92,-51,-151,-139c0,0,-59,-88,-88,-223c0,0,-29,-136,-29,-282c0,0,0,-167,27,-301c0,0,26,-133,82,-221c0,0,55,-89,159,-159v-32Z" 
id="f2_c"
transform="scale(0.001,-0.001)" />

<path d="M34,-328v32c0,0,92,50,151,138c0,0,59,88,88,222c0,0,29,135,29,283c0,0,0,165,-27,300c0,0,-26,134,-82,222c0,0,-56,89,-159,160v31c0,0,194,-96,303,-284c0,0,108,-187,108,-410c0,0,0,-232,-114,-422c0,0,-114,-191,-297,-272Z" 
id="f2_d"
transform="scale(0.001,-0.001)" />

<path d="M312,-20c0,0,-62,0,-143,22c0,0,-25,8,-40,8c0,0,-18,0,-27,-19H77V234h25c0,0,21,-105,80,-158c0,0,59,-53,132,-53c0,0,51,0,84,31c0,0,32,30,32,72c0,0,0,52,-36,87c0,0,-36,35,-144,88c0,0,-109,54,-142,97c0,0,-34,43,-34,107c0,0,0,85,58,141c0,0,58,57,150,57c0,0,40,0,97,-17c0,0,38,-11,51,-11c0,0,12,0,19,5c0,0,7,5,15,23h25V470H464c0,0,-28,110,-72,149c0,0,-45,40,-113,40c0,0,-53,0,-85,-28c0,0,-32,-27,-32,-61c0,0,0,-41,24,-71c0,0,23,-31,94,-65L389,381c0,0,152,-74,152,-194c0,0,0,-94,-71,-151c0,0,-70,-56,-158,-56Z" 
id="f0_2f"
transform="scale(0.001,-0.001)" />

<path d="M55,0V26c0,0,50,0,67,10c0,0,17,10,27,32c0,0,10,23,10,86V418c0,0,0,111,-6,144c0,0,-6,24,-17,33c0,0,-11,10,-30,10c0,0,-21,0,-51,-11L45,620l206,83h33V154c0,0,0,-64,9,-85c0,0,9,-22,27,-32c0,0,19,-11,67,-11V0ZM222,909c0,0,-32,0,-54,23c0,0,-22,22,-22,53c0,0,0,32,22,54c0,0,22,22,54,22c0,0,31,0,53,-22c0,0,22,-22,22,-54c0,0,0,-31,-22,-53c0,0,-22,-23,-53,-23Z" 
id="f0_25"
transform="scale(0.001,-0.001)" />

<path d="M22,-17c0,0,-29,0,-54,21c0,0,-18,16,-18,44c0,0,0,25,17,41c0,0,16,17,39,17c0,0,24,0,50,-24C56,82,76,65,86,65c0,0,9,0,23,11c0,0,35,28,95,122c0,0,61,93,79,134c0,0,-46,182,-49,193c0,0,-17,49,-45,69c0,0,-27,20,-81,20c0,0,-17,0,-40,-1v26l199,36c0,0,37,-39,55,-78c0,0,14,-26,44,-141l66,99c0,0,26,35,64,68c0,0,37,32,65,44c0,0,18,8,40,8c0,0,32,0,51,-17c0,0,19,-18,19,-42c0,0,0,-29,-11,-39c0,0,-21,-19,-48,-19c0,0,-16,0,-34,7c0,0,-35,12,-47,12c0,0,-18,0,-43,-21c0,0,-46,-39,-111,-150L439,150c0,0,14,-59,24,-71c0,0,10,-11,20,-11c0,0,15,0,37,17c0,0,41,34,70,89l27,-13C617,161,569,73,497,15c0,0,-41,-32,-70,-32c0,0,-42,0,-66,46c0,0,-16,29,-64,251C297,280,180,78,110,20c0,0,-46,-37,-88,-37Z" 
id="f1_2k"
transform="scale(0.001,-0.001)" />

<path d="M379,29c0,0,41,0,84,37c0,0,43,36,65,121c0,0,34,128,34,362c0,0,0,173,-35,288c0,0,-27,86,-69,122c0,0,-31,25,-74,25c0,0,-51,0,-90,-46c0,0,-54,-62,-73,-195c0,0,-20,-132,-20,-261c0,0,0,-209,52,-341c0,0,42,-112,126,-112Zm-2,-46c0,0,-145,0,-241,170c0,0,-81,144,-81,347c0,0,0,173,52,298c0,0,52,125,139,186c0,0,67,49,139,49c0,0,116,0,208,-119c0,0,116,-147,116,-398c0,0,0,-176,-51,-299C658,217,608,94,529,38c0,0,-79,-55,-152,-55Z" 
id="f0_k"
transform="scale(0.001,-0.001)" />

<path d="M191,-20c0,0,-34,0,-58,24c0,0,-24,24,-24,58c0,0,0,35,24,59c0,0,24,24,58,24c0,0,35,0,59,-24c0,0,24,-25,24,-59c0,0,0,-34,-24,-58c0,0,-25,-24,-59,-24Z" 
id="f0_i"
transform="scale(0.001,-0.001)" />

<path d="M107,-21V325h27c0,0,19,-109,52,-163c0,0,33,-54,100,-90c0,0,68,-36,148,-36c0,0,93,0,148,49c0,0,54,50,54,117c0,0,0,37,-21,75c0,0,-20,38,-64,71c0,0,-29,22,-159,95c0,0,-130,72,-185,115c0,0,-55,44,-83,96c0,0,-28,52,-28,114c0,0,0,109,83,188c0,0,84,78,213,78c0,0,81,0,171,-39c0,0,42,-19,59,-19c0,0,20,0,32,11c0,0,12,12,20,47h27V684H674c0,0,-14,101,-48,161c0,0,-35,60,-100,95c0,0,-64,35,-133,35c0,0,-77,0,-128,-47c0,0,-51,-48,-51,-108c0,0,0,-46,32,-84c0,0,47,-56,221,-149c0,0,142,-76,194,-117c0,0,51,-41,80,-96c0,0,28,-55,28,-115c0,0,0,-115,-90,-198c0,0,-89,-82,-229,-82c0,0,-44,0,-83,6c0,0,-23,4,-95,27c0,0,-73,24,-93,24c0,0,-18,0,-29,-11c0,0,-11,-12,-16,-46Z" 
id="f0_1j"
transform="scale(0.001,-0.001)" />

<path d="M292,-20c0,0,-57,0,-100,33c0,0,-42,33,-58,85c0,0,-17,52,-17,148V551c0,0,0,49,-10,68c0,0,-11,18,-31,29c0,0,-19,9,-68,9c-2,0,-4,0,-6,0v26H242V226c0,0,0,-95,33,-125c0,0,33,-30,80,-30c0,0,32,0,73,21c0,0,40,20,96,76V555c0,0,0,59,-21,80c0,0,-22,21,-89,22v26H647V269c0,0,0,-119,6,-145c0,0,6,-27,18,-37c0,0,12,-11,29,-11c0,0,23,0,52,13L763,63L558,-20H524V124C524,124,436,29,390,4c0,0,-47,-24,-98,-24Z" 
id="f0_2h"
transform="scale(0.001,-0.001)" />

<path d="M398,24c0,0,74,0,120,58c0,0,61,76,61,214c0,0,0,156,-69,240c0,0,-47,59,-113,59c0,0,-36,0,-71,-18c0,0,-27,-14,-88,-81V242c0,0,0,-83,6,-109c0,0,11,-43,51,-76c0,0,41,-33,103,-33ZM-4,-326v27H15c5,0,42,0,69,16c0,0,14,8,22,26c0,0,7,19,7,94V481c0,0,0,67,-6,85c0,0,-5,18,-18,27c0,0,-13,9,-36,9c0,0,-18,0,-45,-10L0,615l209,85h29V540c0,0,53,91,106,127c0,0,53,36,112,36c0,0,103,0,172,-80c0,0,84,-99,84,-257c0,0,0,-176,-102,-292c0,0,-83,-94,-210,-94c0,0,-55,0,-95,16c0,0,-30,10,-67,44V-167c0,0,0,-71,8,-90c0,0,9,-20,30,-31c0,0,21,-11,77,-11v-27Z" 
id="f0_2c"
transform="scale(0.001,-0.001)" />

<path d="M479,469c0,0,-4,66,-16,93c0,0,-18,42,-55,65c0,0,-37,24,-78,24c0,0,-62,0,-111,-48c0,0,-48,-48,-57,-134ZM355,-20c0,0,-123,0,-211,95c0,0,-87,96,-87,258c0,0,0,175,90,273c0,0,89,98,225,98c0,0,115,0,189,-76c0,0,74,-75,74,-202H162c0,0,0,-152,74,-239c0,0,75,-86,175,-86c0,0,67,0,117,36c0,0,50,37,83,127l24,-15c0,0,-16,-102,-91,-186c0,0,-76,-83,-189,-83Z" 
id="f0_21"
transform="scale(0.001,-0.001)" />

<path d="M17,0V26c0,0,52,0,77,17c0,0,19,12,26,38c0,0,4,13,4,73V419c0,0,0,119,-5,142c0,0,-4,23,-17,33c0,0,-13,11,-33,11c0,0,-23,0,-52,-11l-7,26l207,83h31V549c0,0,86,154,176,154c0,0,41,0,68,-25c0,0,27,-25,27,-58c0,0,0,-29,-20,-49c0,0,-19,-20,-46,-20c0,0,-26,0,-58,25c0,0,-33,26,-48,26c0,0,-14,0,-29,-15c0,0,-34,-30,-70,-101V159c0,0,0,-56,15,-85c0,0,9,-20,34,-34c0,0,24,-14,71,-14V0Z" 
id="f0_2e"
transform="scale(0.001,-0.001)" />

<path d="M20,0V26c0,0,45,0,71,15c0,0,15,7,24,28c0,0,9,21,9,85V773c0,0,0,117,-5,144c0,0,-6,27,-17,37c0,0,-12,9,-31,9c0,0,-16,0,-51,-12L10,978l204,83h34V561c0,0,83,91,131,116c0,0,49,26,97,26c0,0,58,0,100,-32c0,0,42,-32,62,-101c0,0,14,-47,14,-174V154c0,0,0,-65,11,-89c0,0,7,-18,25,-28c0,0,18,-11,66,-11V0H418V26h15c0,0,48,0,67,15c0,0,18,15,26,43c0,0,2,12,2,70V396c0,0,0,112,-12,147c0,0,-11,35,-36,53c0,0,-26,17,-61,17c0,0,-37,0,-76,-19c0,0,-40,-20,-95,-79V154c0,0,0,-70,8,-87c0,0,8,-17,29,-29c0,0,22,-12,74,-12V0Z" 
id="f0_24"
transform="scale(0.001,-0.001)" />

<path d="M336,-20L117,554c0,0,-21,55,-42,74c0,0,-21,19,-66,29v26H296V657c0,0,-40,-3,-52,-14c0,0,-13,-12,-13,-33c0,0,0,-23,13,-56L390,162L537,481L498,581c0,0,-18,46,-47,63c0,0,-17,11,-61,13v26H716V657c0,0,-54,-2,-77,-20c0,0,-15,-12,-15,-39c0,0,0,-15,6,-30L785,177L929,554c0,0,15,40,15,65c0,0,0,14,-15,25c0,0,-14,12,-57,13v26h216V657c0,0,-65,-10,-95,-89L764,-20H733L563,415L363,-20Z" 
id="f0_2j"
transform="scale(0.001,-0.001)" />

<path d="M399,62c0,0,68,0,131,68V481c0,0,-5,51,-27,93c0,0,-22,42,-59,63c0,0,-37,21,-72,21c0,0,-65,0,-117,-59c0,0,-67,-77,-67,-226c0,0,0,-151,65,-231c0,0,66,-80,146,-80ZM330,-20c0,0,-112,0,-196,93c0,0,-83,94,-83,240c0,0,0,147,92,269c0,0,93,122,238,122c0,0,90,0,149,-58V773c0,0,0,117,-6,144c0,0,-5,27,-17,37c0,0,-12,9,-30,9c0,0,-20,0,-52,-12l-9,27l204,83h33V270c0,0,0,-120,6,-146c0,0,5,-27,18,-37c0,0,12,-11,28,-11c0,0,21,0,54,13l9,-26L564,-20H530V78C530,78,480,25,432,2c0,0,-47,-22,-102,-22Z" 
id="f0_20"
transform="scale(0.001,-0.001)" />

<path d="M38,0V27H74c0,0,63,0,91,37c0,0,18,24,18,115V833c0,0,0,77,-10,102c0,0,-7,18,-30,32c0,0,-33,18,-69,18H38v27H470V985H434c0,0,-62,0,-90,-37c0,0,-18,-24,-18,-115V179c0,0,0,-77,9,-102c0,0,8,-18,31,-32c0,0,32,-18,68,-18h36V0Z" 
id="f0_19"
transform="scale(0.001,-0.001)" />

<path d="M63,0V26H93c0,0,30,0,54,15c0,0,25,15,34,41c0,0,10,25,10,99V630H58v53H191v45c0,0,0,102,33,173c0,0,32,71,100,114c0,0,68,44,152,44c0,0,79,0,145,-51c0,0,43,-33,43,-75c0,0,0,-22,-19,-42c0,0,-20,-20,-42,-20c0,0,-17,0,-36,12c0,0,-19,13,-47,53c0,0,-28,41,-51,55c0,0,-23,14,-51,14c0,0,-35,0,-58,-18c0,0,-24,-18,-35,-57c0,0,-10,-38,-10,-197V683H491V630H315V181c0,0,0,-96,21,-122c0,0,27,-33,73,-33h62V0Z" 
id="f0_22"
transform="scale(0.001,-0.001)" />

<path d="M342,-20c0,0,-116,0,-203,97c0,0,-86,98,-86,264c0,0,0,161,96,261c0,0,95,101,230,101c0,0,100,0,165,-53c0,0,65,-54,65,-111c0,0,0,-29,-18,-46c0,0,-18,-18,-51,-18c0,0,-44,0,-66,29c0,0,-13,15,-17,59c0,0,-4,45,-30,68c0,0,-26,22,-73,22c0,0,-74,0,-120,-55c0,0,-60,-73,-60,-193c0,0,0,-122,60,-216c0,0,60,-93,162,-93c0,0,73,0,131,49c0,0,41,35,80,126l22,-10C629,261,601,125,521,52c0,0,-81,-72,-179,-72Z" 
id="f0_1z"
transform="scale(0.001,-0.001)" />

<path d="M23,0V26c0,0,47,0,66,10c0,0,19,11,28,33c0,0,10,22,10,85V416c0,0,0,112,-7,145c0,0,-5,25,-16,34c0,0,-11,10,-31,10c0,0,-21,0,-50,-11L12,620l207,83h32V557c0,0,75,75,88,86c0,0,34,29,72,44c0,0,39,16,77,16c0,0,64,0,110,-37c0,0,47,-38,62,-109c0,0,77,90,130,118c0,0,53,28,109,28c0,0,54,0,96,-28c0,0,42,-28,67,-91c0,0,16,-43,16,-136V154c0,0,0,-64,10,-88c0,0,8,-16,28,-28c0,0,20,-12,65,-12V0H844V26h14c0,0,44,0,69,18c0,0,17,12,24,38c0,0,3,13,3,72V448c0,0,0,83,-20,117c0,0,-29,48,-93,48c0,0,-39,0,-79,-20c0,0,-40,-19,-97,-73l-1,-8l2,-32V154c0,0,0,-70,8,-87c0,0,7,-17,29,-29c0,0,21,-12,73,-12V0H431V26c0,0,57,0,78,14c0,0,21,13,29,40c0,0,4,13,4,74V448c0,0,0,83,-25,120c0,0,-33,48,-91,48c0,0,-40,0,-80,-22c0,0,-61,-33,-95,-74V154c0,0,0,-67,10,-87c0,0,9,-20,27,-30c0,0,18,-11,74,-11V0Z" 
id="f0_29"
transform="scale(0.001,-0.001)" />

<path d="M397,34c0,0,67,0,126,75c0,0,58,74,58,216c0,0,0,131,-58,201c0,0,-59,70,-133,70c0,0,-39,0,-79,-20c0,0,-29,-14,-75,-59V109c0,0,37,-37,78,-56c0,0,40,-19,83,-19ZM358,-20c0,0,-59,0,-121,21c0,0,-61,22,-126,65V773c0,0,0,117,-5,144c0,0,-6,27,-18,37c0,0,-12,9,-29,9c0,0,-21,0,-53,-12l-9,27l205,83h34V564c0,0,98,139,213,139c0,0,105,0,183,-90c0,0,78,-90,78,-245c0,0,0,-182,-121,-293c0,0,-103,-95,-231,-95Z" 
id="f0_1y"
transform="scale(0.001,-0.001)" />

<path d="M238,-17c0,0,-103,0,-139,25C99,8,62,33,62,62c0,0,0,22,17,38c0,0,18,16,42,16c0,0,19,0,38,-6c0,0,13,-3,58,-27c0,0,45,-23,62,-28c0,0,27,-8,59,-8c0,0,76,0,132,59c0,0,56,59,56,140c0,0,0,59,-26,115c0,0,-19,41,-42,63c0,0,-32,30,-88,54c0,0,-56,25,-114,25H232v22c0,0,59,8,118,42c0,0,59,35,86,85c0,0,27,49,27,108c0,0,0,76,-48,124c0,0,-48,47,-120,47c0,0,-116,0,-193,-124L77,819c0,0,44,102,110,158c0,0,66,56,164,56c0,0,122,0,187,-80c0,0,49,-58,49,-126c0,0,0,-110,-139,-228c0,0,93,-36,141,-104c0,0,48,-68,48,-160c0,0,0,-131,-84,-227C553,108,444,-17,238,-17Z" 
id="f0_n"
transform="scale(0.001,-0.001)" />

<path d="M452,373V875L97,373ZM452,0V267H23v95l470,671h82V373H711V267H575V0Z" 
id="f0_o"
transform="scale(0.001,-0.001)" />

<path d="M247,-17c0,0,-91,0,-132,30c0,0,-42,31,-42,68c0,0,0,21,17,37c0,0,18,16,44,17c0,0,19,0,34,-6c0,0,14,-7,49,-31c0,0,56,-39,113,-39c0,0,88,0,154,66c0,0,66,66,66,161c0,0,0,92,-59,171c0,0,-59,80,-163,123c0,0,-81,34,-221,39l194,393H663L605,885H301L234,750c0,0,198,-29,313,-147c0,0,100,-102,100,-239c0,0,0,-80,-33,-148c0,0,-32,-68,-81,-116c0,0,-50,-47,-110,-77c0,0,-86,-40,-176,-40Z" 
id="f0_p"
transform="scale(0.001,-0.001)" />

<path d="M405,24c0,0,65,0,116,62c0,0,51,61,51,174c0,0,0,128,-50,221c0,0,-51,93,-144,93c0,0,-29,0,-61,-12c0,0,-33,-12,-96,-51c0,0,-14,-101,-14,-163c0,0,0,-72,27,-155c0,0,26,-84,79,-134c0,0,38,-35,92,-35ZM384,-17c0,0,-104,0,-177,68C207,51,66,185,66,397c0,0,0,136,54,258c0,0,54,122,156,217c0,0,101,95,193,128c0,0,93,33,172,33h44v-28c0,0,-99,-10,-161,-39c0,0,-62,-29,-123,-90c0,0,-61,-60,-101,-135c0,0,-39,-74,-66,-176c0,0,107,73,215,73c0,0,104,0,180,-83c0,0,76,-84,76,-215c0,0,0,-126,-77,-231c0,0,-92,-126,-244,-126Z" 
id="f0_q"
transform="scale(0.001,-0.001)" />

<path d="M268,648c0,0,-51,0,-91,43c0,0,-39,42,-39,105c0,0,0,88,66,160c0,0,44,48,127,78v-32c0,0,-77,-46,-104,-85c0,0,-21,-30,-21,-69c0,0,0,-24,9,-35c0,0,9,-11,20,-11c0,0,7,0,21,5c0,0,20,7,33,7c0,0,30,0,53,-23c0,0,24,-22,24,-56c0,0,0,-38,-23,-58c0,0,-33,-29,-75,-29Z" 
id="f0_52"
transform="scale(0.001,-0.001)" />

<path d="M177,647v35c0,0,77,46,105,86c0,0,19,28,19,68c0,0,0,23,-8,34c0,0,-9,11,-19,11c0,0,-9,0,-22,-5c0,0,-19,-7,-32,-7c0,0,-30,0,-53,23c0,0,-23,22,-23,56c0,0,0,37,23,58c0,0,31,28,75,28c0,0,50,0,90,-42c0,0,40,-42,40,-105c0,0,0,-88,-67,-160c0,0,-44,-48,-128,-80Z" 
id="f0_53"
transform="scale(0.001,-0.001)" />

<path d="M25,0V26c0,0,27,4,47,19c0,0,29,22,96,111L311,346L182,535c0,0,-55,81,-86,102c0,0,-30,20,-75,20v26H341V657c0,0,-30,0,-42,-10c0,0,-13,-11,-13,-28c0,0,0,-19,27,-56c0,0,8,-12,25,-37l48,-78l56,77c0,0,55,74,55,94c0,0,0,16,0,27c0,0,0,11,0,11v26H674V657c0,0,-37,-2,-64,-20c0,0,-37,-26,-100,-111L416,402L587,156c0,0,63,-91,89,-109c0,0,27,-18,70,-21V0H423V26c0,0,34,0,53,15c0,0,14,11,14,28c0,0,0,17,-48,87L341,302L232,157c0,0,-50,-69,-50,-82c0,0,0,-18,17,-32c0,0,17,-15,50,-17V0Z" 
id="f0_2k"
transform="scale(0.001,-0.001)" />

<path d="M145,-328c0,0,-44,0,-73,25c0,0,-28,25,-28,58c0,0,0,31,21,50c0,0,20,19,56,19c0,0,25,0,67,-16c0,0,30,-11,38,-11c0,0,22,0,49,23c0,0,26,23,53,89L376,28L131,542c0,0,-11,24,-36,58c0,0,-19,27,-30,36c0,0,-18,12,-56,21v26H328V657H312c0,0,-33,0,-50,-15c0,0,-17,-14,-17,-36c0,0,0,-30,25,-81L437,179L589,557c0,0,12,31,12,62c0,0,0,13,-5,20c0,0,-6,8,-19,13c0,0,-12,5,-44,5v26H754V657c0,0,-27,-3,-42,-12c0,0,-15,-9,-33,-34c0,0,-7,-10,-25,-58L376,-128c0,0,-40,-99,-105,-150c0,0,-66,-50,-126,-50Z" 
id="f0_2l"
transform="scale(0.001,-0.001)" />

<path d="M328,-20c0,0,-34,0,-58,24c0,0,-25,24,-25,58c0,0,0,35,25,59c0,0,24,24,58,24c0,0,34,0,59,-24c0,0,24,-24,24,-59c0,0,0,-34,-25,-58c0,0,-24,-24,-58,-24ZM308,238c0,0,5,94,23,155c0,0,18,62,76,172c0,0,44,84,58,129c0,0,13,46,13,92c0,0,0,95,-50,150c0,0,-50,56,-123,56c0,0,-65,0,-102,-30c0,0,-38,-31,-38,-67c0,0,0,-27,23,-67c0,0,22,-41,22,-62c0,0,0,-26,-17,-45c0,0,-17,-18,-42,-18c0,0,-31,0,-57,31c0,0,-26,31,-26,86c0,0,0,85,73,150c0,0,72,64,196,64c0,0,153,0,225,-89c0,0,54,-66,54,-146c0,0,0,-54,-24,-112c0,0,-25,-57,-92,-135C500,552,391,430,367,378c0,0,-24,-51,-29,-140Z" 
id="f0_z"
transform="scale(0.001,-0.001)" />

<path d="M213,-20c0,0,-34,0,-58,24c0,0,-24,24,-24,58c0,0,0,34,24,58c0,0,24,25,58,25c0,0,35,0,59,-25c0,0,24,-24,24,-58c0,0,0,-34,-24,-58c0,0,-25,-24,-59,-24Zm3,559c0,0,-35,0,-59,24c0,0,-24,24,-24,58c0,0,0,35,24,59c0,0,24,24,59,24c0,0,34,0,58,-24c0,0,24,-24,24,-59c0,0,0,-34,-24,-58c0,0,-24,-24,-58,-24Z" 
id="f0_u"
transform="scale(0.001,-0.001)" />

<path d="M31,0V27H69c0,0,64,0,91,42c0,0,16,24,16,110V833c0,0,0,95,-21,119c0,0,-29,33,-86,33H31v27H488V985c0,0,-1,0,-2,0c-12,0,-81,-1,-111,-15c0,0,-32,-16,-44,-40c0,0,-12,-24,-12,-115V180c0,0,0,-62,12,-85c0,0,9,-16,27,-23c0,0,19,-7,117,-7h74c0,0,116,0,163,17c0,0,48,17,86,61c0,0,39,43,78,138l25,-6L814,0Z" 
id="f0_1c"
transform="scale(0.001,-0.001)" />

<path d="M376,-20L133,556c0,0,-17,41,-31,58c0,0,-15,18,-39,30c0,0,-12,7,-50,13v26H335V657H314c0,0,-29,0,-44,-14c0,0,-16,-14,-15,-38c0,0,-1,-26,15,-62L429,165L588,557c0,0,17,42,17,64c0,0,0,10,-6,17c0,0,-8,11,-21,15c0,0,-13,4,-52,4v26H750V657c0,0,-39,-3,-54,-16c0,0,-26,-23,-47,-76L409,-20Z" 
id="f0_2i"
transform="scale(0.001,-0.001)" />

<path d="M512,518c0,0,82,0,149,34c0,0,67,33,105,101c0,0,38,67,38,140c0,0,0,75,-47,119c0,0,-47,44,-142,44c0,0,-52,0,-125,-12L376,541c0,0,85,-23,136,-23ZM-35,0l8,26c0,0,78,0,109,28c0,0,31,27,67,151L312,782c0,0,30,104,30,139c0,0,0,26,-21,44c0,0,-21,17,-94,21l9,26H636c0,0,157,0,235,-68c0,0,78,-67,78,-164c0,0,0,-77,-50,-150c0,0,-49,-72,-147,-117c0,0,-97,-46,-210,-46c0,0,-71,0,-179,27L280,203c0,0,-28,-92,-28,-121c0,0,0,-22,20,-37c0,0,20,-14,96,-19L361,0Z" 
id="f1_1g"
transform="scale(0.001,-0.001)" />

<path d="M108,0l8,26h19c0,0,58,0,90,19c0,0,21,13,39,46c0,0,17,34,49,142L517,951H461c0,0,-88,0,-143,-22c0,0,-54,-22,-87,-65c0,0,-33,-42,-54,-121H149l71,269H988L905,743H877c0,0,14,59,14,105c0,0,0,55,-33,82c0,0,-24,21,-127,21H646L446,238c0,0,-38,-123,-38,-151c0,0,0,-27,24,-44c0,0,24,-17,84,-17h35L542,0Z" 
id="f1_1k"
transform="scale(0.001,-0.001)" />

<path d="M27,354v62H831V354Zm0,243v62H831V597Z" 
id="f0_x"
transform="scale(0.001,-0.001)" />

<path d="M435,502c0,0,78,0,134,60c0,0,57,60,57,155c0,0,0,66,-27,122c0,0,-27,56,-76,84c0,0,-50,28,-112,28c0,0,-38,0,-98,-14V517c0,0,39,-8,70,-12c0,0,31,-3,52,-3ZM25,0V27H63c0,0,65,0,92,42c0,0,15,23,15,110V833c0,0,0,96,-20,119c0,0,-29,33,-87,33H25v27H396c0,0,136,0,214,-28c0,0,78,-28,132,-94c0,0,54,-67,54,-158c0,0,0,-124,-82,-202c0,0,-82,-77,-231,-77c0,0,-36,0,-79,5c0,0,-43,5,-91,16V179c0,0,0,-96,21,-119c0,0,28,-33,85,-33h39V0Z" 
id="f0_1g"
transform="scale(0.001,-0.001)" />

<path d="M394,23c0,0,80,0,129,45c0,0,48,45,48,110c0,0,0,54,-28,97c0,0,-53,79,-214,206c0,0,-62,-52,-92,-114c0,0,-30,-61,-30,-133c0,0,0,-96,53,-154c0,0,52,-57,134,-57Zm17,566c0,0,90,81,114,128c0,0,24,46,24,105c0,0,0,79,-44,123c0,0,-44,45,-121,45c0,0,-76,0,-124,-45c0,0,-48,-44,-48,-103c0,0,0,-38,20,-77c0,0,20,-39,56,-74L411,589ZM382,-17c0,0,-144,0,-225,90c0,0,-64,72,-64,158c0,0,0,67,45,133c0,0,45,66,156,146c0,0,-121,98,-156,158c0,0,-34,59,-34,124c0,0,0,98,76,169c0,0,76,72,202,72c0,0,123,0,198,-67c0,0,74,-66,74,-151c0,0,0,-57,-40,-116c0,0,-40,-59,-168,-139c0,0,132,-101,174,-159c0,0,57,-76,57,-161c0,0,0,-106,-82,-182c0,0,-81,-75,-213,-75Z" 
id="f0_s"
transform="scale(0.001,-0.001)" />

<path d="M52,62L0,114L278,390L0,667l52,52L330,442L608,719l51,-51L382,390L659,114L608,62L330,338L52,62Z" 
id="f2_3a"
transform="scale(0.001,-0.001)" />

<path d="M435,0V856c0,0,-48,-47,-127,-93c0,0,-79,-46,-142,-69V824c0,0,113,52,197,128c0,0,85,75,120,146h86V0Z" 
id="f3_l"
transform="scale(0.001,-0.001)" />

<path d="M46,0c0,0,-2,48,16,93c0,0,27,74,88,146c0,0,61,71,176,165c0,0,178,146,241,232c0,0,63,85,63,161c0,0,0,80,-57,135c0,0,-58,55,-149,55c0,0,-98,0,-156,-59c0,0,-58,-58,-59,-160L71,782c0,0,15,154,107,235c0,0,93,81,249,81c0,0,157,0,249,-87c0,0,92,-88,92,-217c0,0,0,-65,-27,-129c0,0,-27,-63,-89,-133c0,0,-62,-70,-207,-193C445,339,324,238,290,202c0,0,-35,-36,-57,-73H770V0Z" 
id="f3_m"
transform="scale(0.001,-0.001)" />


</defs>
</svg>