<?xml version="1.0" encoding="UTF-8" standalone="no"?>
<!DOCTYPE svg PUBLIC "-//W3C//DTD SVG 1.1//EN"
"http://www.w3.org/Graphics/SVG/1.1/DTD/svg11.dtd">
<svg viewBox="0 0 909 1286" version="1.1" xmlns="http://www.w3.org/2000/svg" xmlns:xlink="http://www.w3.org/1999/xlink">
<defs>
<clipPath id="c0_150"><path d="M55.2,185.4V126H227.7v59.4Z" /></clipPath>
<clipPath id="c1_150"><path d="M55.2,417.4v-206H256.5v206Z" /></clipPath>
<clipPath id="c2_150"><path d="M55.2,527.4V419.7H275.1V527.4Z" /></clipPath>
<clipPath id="c3_150"><path d="M301.2,658.3V554.2H757.8V658.3Z" /></clipPath>
<clipPath id="c4_150"><path d="M432.1,736.4V684.8h103v51.6Z" /></clipPath>
<clipPath id="c5_150"><path d="M55.2,868.4v-104H355.5v104Z" /></clipPath>
<style type="text/css"><![CDATA[
.g0_150{
fill: #D9D9D9;
}
.g1_150{
fill: none;
stroke: #000000;
stroke-width: 0.7638889;
stroke-linecap: butt;
stroke-linejoin: miter;
}
.g2_150{
fill: none;
stroke: #000000;
stroke-width: 0.90679544;
stroke-linecap: butt;
stroke-linejoin: round;
}
.g3_150{
fill: none;
stroke: #000000;
stroke-width: 0.9068003;
stroke-linecap: butt;
stroke-linejoin: round;
}
.g4_150{
fill: none;
stroke: #000000;
stroke-width: 0.9088941;
stroke-linecap: butt;
stroke-linejoin: round;
}
.g5_150{
fill: none;
stroke: #000000;
stroke-width: 0.2130866;
stroke-linecap: square;
stroke-linejoin: round;
}
.g6_150{
}
.g7_150{
fill: none;
stroke: #000000;
stroke-width: 0.9119956;
stroke-linecap: butt;
stroke-linejoin: round;
}
.g8_150{
fill: none;
stroke: #000000;
stroke-width: 0.9078293;
stroke-linecap: butt;
stroke-linejoin: round;
}
.g9_150{
fill: none;
stroke: #000000;
stroke-width: 0.2134164;
stroke-linecap: square;
stroke-linejoin: round;
}
.g10_150{
fill: none;
stroke: #000000;
stroke-width: 0.91340697;
stroke-linecap: butt;
stroke-linejoin: round;
}
]]></style>
</defs>
<image preserveAspectRatio="none" x="747" y="1196" width="96" height="59" xlink:href="img/1.png" />
<image preserveAspectRatio="none" x="336" y="41" width="259" height="51" xlink:href="img/2.png" />
<image preserveAspectRatio="none" x="342" y="50" width="247" height="27" xlink:href="img/3.png" />
<image preserveAspectRatio="none" x="341" y="45" width="239" height="42" xlink:href="img/4.png" />
<g fill="#FFFFFF" >
<use xlink:href="#f0_j" transform="matrix(11.5,0,0,11.5,355.1,70.1)" />
<use xlink:href="#f0_i" transform="matrix(11.5,0,0,11.5,364.3,70.1)" />
<use xlink:href="#f0_2n" transform="matrix(11.5,0,0,11.5,374.1,70.1)" />
<use xlink:href="#f0_t" transform="matrix(11.5,0,0,11.5,382.6,70.1)" />
<use xlink:href="#f0_oj" transform="matrix(11.5,0,0,11.5,391,70.1)" />
<use xlink:href="#f0_3e" transform="matrix(11.5,0,0,11.5,396.5,70.1)" />
<use xlink:href="#f0_1c" transform="matrix(11.5,0,0,11.5,406.1,70.1)" />
<use xlink:href="#f0_1c" transform="matrix(11.5,0,0,11.5,410.8,70.1)" />
<use xlink:href="#f0_oj" transform="matrix(11.5,0,0,11.5,415.6,70.1)" />
<use xlink:href="#f0_rz" transform="matrix(11.5,0,0,11.5,421.1,70.1)" />
<use xlink:href="#f0_rx" transform="matrix(11.5,0,0,11.5,429.9,70.1)" />
<use xlink:href="#f0_ry" transform="matrix(11.5,0,0,11.5,438.7,70.1)" />
<use xlink:href="#f0_s7" transform="matrix(11.5,0,0,11.5,447.5,70.1)" />
<use xlink:href="#f0_t" transform="matrix(11.5,0,0,11.5,460.4,70.1)" />
<use xlink:href="#f0_3e" transform="matrix(11.5,0,0,11.5,468.8,70.1)" />
<use xlink:href="#f0_5" transform="matrix(11.5,0,0,11.5,478.3,70.1)" />
<use xlink:href="#f0_1x" transform="matrix(11.5,0,0,11.5,489,70.1)" />
<use xlink:href="#f0_1c" transform="matrix(11.5,0,0,11.5,504.4,70.1)" />
<use xlink:href="#f0_1y" transform="matrix(11.5,0,0,11.5,509.1,70.1)" />
<use xlink:href="#f0_5" transform="matrix(11.5,0,0,11.5,520.8,70.1)" />
<use xlink:href="#f0_2t" transform="matrix(11.5,0,0,11.5,531.5,70.1)" />
<use xlink:href="#f0_1c" transform="matrix(11.5,0,0,11.5,540.2,70.1)" />
<use xlink:href="#f0_24" transform="matrix(11.5,0,0,11.5,545,70.1)" />
<use xlink:href="#f0_1y" transform="matrix(11.5,0,0,11.5,556.7,70.1)" />
</g>
<image preserveAspectRatio="none" x="554" y="45" width="36" height="42" xlink:href="img/5.png" />
<g fill="#FFFFFF" >
<use xlink:href="#f1_r" transform="matrix(11,0,0,11,770.3,1227.6)" />
<use xlink:href="#f1_j" transform="matrix(11,0,0,11,783.5,1227.6)" />
<use xlink:href="#f1_l" transform="matrix(11,0,0,11,794.1,1227.6)" />
<use xlink:href="#f1_t" transform="matrix(11,0,0,11,802.9,1227.6)" />
</g>
<path fill-rule="evenodd" d="M52.8,1193.5H856.9v-.8H52.8v.8Z" class="g0_150" />
<path d="M37.9,99.4L873,98.5" class="g1_150" />
<path d="M150.9,156.4H214" class="g2_150" />
<g clip-path="url(#c0_150)">
<g fill="#000000" >
<use xlink:href="#f2_2k" transform="matrix(7.3,0,0,7.1,168.6,140.9)" />
<use xlink:href="#f2_l" transform="matrix(7.3,0,0,7.1,181.1,140.9)" />
<use xlink:href="#f2_2k" transform="matrix(7.3,0,0,7.1,198.7,140.9)" />
<use xlink:href="#f2_l" transform="matrix(7.3,0,0,7.1,133.5,152.8)" />
<use xlink:href="#f2_2k" transform="matrix(7.3,0,0,7.1,205.7,167.5)" />
<use xlink:href="#f2_m" transform="matrix(12.6,0,0,12.3,159,149.2)" />
<use xlink:href="#f2_i" transform="matrix(12.6,0,0,12.3,185.1,149.2)" />
<use xlink:href="#f2_n" transform="matrix(12.6,0,0,12.3,189.6,149.2)" />
<use xlink:href="#f2_2f" transform="matrix(12.6,0,0,12.3,105.1,161.1)" />
<use xlink:href="#f2_25" transform="matrix(12.6,0,0,12.3,112.2,161.1)" />
<use xlink:href="#f2_2a" transform="matrix(12.6,0,0,12.3,117.3,161.1)" />
<use xlink:href="#f2_l" transform="matrix(12.6,0,0,12.3,150,175.8)" />
<use xlink:href="#f2_c" transform="matrix(12.6,0,0,12.3,174.8,175.8)" />
<use xlink:href="#f2_n" transform="matrix(12.6,0,0,12.3,180.7,175.8)" />
<use xlink:href="#f2_q" transform="matrix(12.6,0,0,12.3,189.8,175.8)" />
<use xlink:href="#f2_d" transform="matrix(12.6,0,0,12.3,198.9,175.8)" />
<use xlink:href="#f3_f" transform="matrix(7.3,0,0,7.1,175.3,140.9)" />
<use xlink:href="#f3_h" transform="matrix(7.3,0,0,7.1,127.7,152.8)" />
<use xlink:href="#f3_4o" transform="matrix(12.6,0,0,12.3,141.1,148.4)" />
<use xlink:href="#f3_54" transform="matrix(12.6,0,0,12.3,216.6,148.4)" />
<use xlink:href="#f3_4p" transform="matrix(12.6,0,0,12.3,141.1,165.4)" />
<use xlink:href="#f3_55" transform="matrix(12.6,0,0,12.3,216.6,165.4)" />
<use xlink:href="#f3_f" transform="matrix(12.6,0,0,12.3,161.1,175.8)" />
<use xlink:href="#f3_4q" transform="matrix(12.6,0,0,12.3,141.1,180.2)" />
<use xlink:href="#f3_56" transform="matrix(12.6,0,0,12.3,216.6,180.2)" />
</g>
</g>
<g fill="#000000" >
<use xlink:href="#f2_1j" transform="matrix(12,0,0,12,55,205.4)" />
<use xlink:href="#f2_2b" transform="matrix(12,0,0,12,65.3,205.4)" />
<use xlink:href="#f2_28" transform="matrix(12,0,0,12,74.8,205.4)" />
<use xlink:href="#f2_2h" transform="matrix(12,0,0,12,79.2,205.4)" />
<use xlink:href="#f2_2g" transform="matrix(12,0,0,12,88.4,205.4)" />
<use xlink:href="#f2_25" transform="matrix(12,0,0,12,93.8,205.4)" />
<use xlink:href="#f2_2b" transform="matrix(12,0,0,12,98.2,205.4)" />
<use xlink:href="#f2_2a" transform="matrix(12,0,0,12,107.8,205.4)" />
<use xlink:href="#f2_u" transform="matrix(12,0,0,12,116.6,205.4)" />
</g>
<path d="M152.6,241.4h63.5m-36.8,58.9h63.5m-63.5,58.9H240" class="g3_150" />
<g clip-path="url(#c1_150)">
<g fill="#000000" >
<use xlink:href="#f2_2k" transform="matrix(7,0,0,7.1,170.5,226.1)" />
<use xlink:href="#f2_l" transform="matrix(7,0,0,7.1,183,226.1)" />
<use xlink:href="#f2_2k" transform="matrix(7,0,0,7.1,200.8,226.1)" />
<use xlink:href="#f2_l" transform="matrix(7,0,0,7.1,136,237.8)" />
<use xlink:href="#f2_2k" transform="matrix(7,0,0,7.1,207.8,252.3)" />
<use xlink:href="#f2_2k" transform="matrix(7,0,0,7.1,195.9,285)" />
<use xlink:href="#f2_2k" transform="matrix(7,0,0,7.1,228.8,285)" />
<use xlink:href="#f2_l" transform="matrix(7,0,0,7.1,162.7,296.7)" />
<use xlink:href="#f2_2k" transform="matrix(7,0,0,7.1,234.5,311.2)" />
<use xlink:href="#f2_2k" transform="matrix(7,0,0,7.1,224.1,343.8)" />
<use xlink:href="#f2_l" transform="matrix(7,0,0,7.1,162.7,355.6)" />
<use xlink:href="#f2_m" transform="matrix(7,0,0,7.1,225.5,370.1)" />
<use xlink:href="#f2_2k" transform="matrix(7,0,0,7.1,231.7,370.1)" />
<use xlink:href="#f2_l" transform="matrix(7,0,0,7.1,177.7,401.3)" />
<use xlink:href="#f2_2k" transform="matrix(7,0,0,7.1,206.4,401.3)" />
<use xlink:href="#f2_m" transform="matrix(12.2,0,0,12.2,160.8,234.3)" />
<use xlink:href="#f2_i" transform="matrix(12.2,0,0,12.2,187,234.3)" />
<use xlink:href="#f2_n" transform="matrix(12.2,0,0,12.2,191.6,234.3)" />
<use xlink:href="#f2_2l" transform="matrix(12.2,0,0,12.2,79.9,246)" />
<use xlink:href="#f2_2f" transform="matrix(12.2,0,0,12.2,107.4,246)" />
<use xlink:href="#f2_25" transform="matrix(12.2,0,0,12.2,114.6,246)" />
<use xlink:href="#f2_2a" transform="matrix(12.2,0,0,12.2,119.7,246)" />
<use xlink:href="#f2_l" transform="matrix(12.2,0,0,12.2,151.8,260.5)" />
<use xlink:href="#f2_c" transform="matrix(12.2,0,0,12.2,176.6,260.5)" />
<use xlink:href="#f2_n" transform="matrix(12.2,0,0,12.2,182.6,260.5)" />
<use xlink:href="#f2_q" transform="matrix(12.2,0,0,12.2,191.8,260.5)" />
<use xlink:href="#f2_d" transform="matrix(12.2,0,0,12.2,200.9,260.5)" />
<use xlink:href="#f2_m" transform="matrix(12.2,0,0,12.2,186.2,293.2)" />
<use xlink:href="#f2_i" transform="matrix(12.2,0,0,12.2,201.3,293.2)" />
<use xlink:href="#f2_m" transform="matrix(12.2,0,0,12.2,205.8,293.2)" />
<use xlink:href="#f2_i" transform="matrix(12.2,0,0,12.2,215,293.2)" />
<use xlink:href="#f2_n" transform="matrix(12.2,0,0,12.2,219.6,293.2)" />
<use xlink:href="#f2_2l" transform="matrix(12.2,0,0,12.2,106.6,304.9)" />
<use xlink:href="#f2_2f" transform="matrix(12.2,0,0,12.2,134.1,304.9)" />
<use xlink:href="#f2_25" transform="matrix(12.2,0,0,12.2,141.2,304.9)" />
<use xlink:href="#f2_2a" transform="matrix(12.2,0,0,12.2,146.4,304.9)" />
<use xlink:href="#f2_l" transform="matrix(12.2,0,0,12.2,178.4,319.4)" />
<use xlink:href="#f2_c" transform="matrix(12.2,0,0,12.2,203.3,319.4)" />
<use xlink:href="#f2_n" transform="matrix(12.2,0,0,12.2,209.3,319.4)" />
<use xlink:href="#f2_q" transform="matrix(12.2,0,0,12.2,218.5,319.4)" />
<use xlink:href="#f2_d" transform="matrix(12.2,0,0,12.2,227.6,319.4)" />
<use xlink:href="#f2_m" transform="matrix(12.2,0,0,12.2,188.1,352.1)" />
<use xlink:href="#f2_i" transform="matrix(12.2,0,0,12.2,197.2,352.1)" />
<use xlink:href="#f2_c" transform="matrix(12.2,0,0,12.2,201.8,352.1)" />
<use xlink:href="#f2_q" transform="matrix(12.2,0,0,12.2,208.1,352.1)" />
<use xlink:href="#f2_d" transform="matrix(12.2,0,0,12.2,217.2,352.1)" />
<use xlink:href="#f2_2l" transform="matrix(12.2,0,0,12.2,106.6,363.8)" />
<use xlink:href="#f2_2f" transform="matrix(12.2,0,0,12.2,134.1,363.8)" />
<use xlink:href="#f2_25" transform="matrix(12.2,0,0,12.2,141.2,363.8)" />
<use xlink:href="#f2_2a" transform="matrix(12.2,0,0,12.2,146.4,363.8)" />
<use xlink:href="#f2_l" transform="matrix(12.2,0,0,12.2,178.4,378.3)" />
<use xlink:href="#f2_c" transform="matrix(12.2,0,0,12.2,203.3,378.3)" />
<use xlink:href="#f2_q" transform="matrix(12.2,0,0,12.2,209.6,378.3)" />
<use xlink:href="#f2_d" transform="matrix(12.2,0,0,12.2,218.7,378.3)" />
<use xlink:href="#f2_2l" transform="matrix(12.2,0,0,12.2,106.6,409.5)" />
<use xlink:href="#f2_m" transform="matrix(12.2,0,0,12.2,134.7,409.5)" />
<use xlink:href="#f2_2g" transform="matrix(12.2,0,0,12.2,148.3,409.5)" />
<use xlink:href="#f2_1x" transform="matrix(12.2,0,0,12.2,153.5,409.5)" />
<use xlink:href="#f2_2a" transform="matrix(12.2,0,0,12.2,161.5,409.5)" />
<use xlink:href="#f2_c" transform="matrix(12.2,0,0,12.2,184,409.5)" />
<use xlink:href="#f2_q" transform="matrix(12.2,0,0,12.2,190.3,409.5)" />
<use xlink:href="#f2_d" transform="matrix(12.2,0,0,12.2,199.4,409.5)" />
<use xlink:href="#f3_f" transform="matrix(7,0,0,7.1,177.1,226.1)" />
<use xlink:href="#f3_h" transform="matrix(7,0,0,7.1,130.2,237.8)" />
<use xlink:href="#f3_h" transform="matrix(7,0,0,7.1,156.9,296.7)" />
<use xlink:href="#f3_h" transform="matrix(7,0,0,7.1,156.9,355.6)" />
<use xlink:href="#f3_h" transform="matrix(7,0,0,7.1,172,401.3)" />
<use xlink:href="#f3_4r" transform="matrix(12.2,0,0,12.2,144.5,233.5)" />
<use xlink:href="#f3_57" transform="matrix(12.2,0,0,12.2,217.6,233.5)" />
<use xlink:href="#f3_x" transform="matrix(12.2,0,0,12.2,93.5,246)" />
<use xlink:href="#f3_4s" transform="matrix(12.2,0,0,12.2,144.5,251)" />
<use xlink:href="#f3_58" transform="matrix(12.2,0,0,12.2,217.6,251)" />
<use xlink:href="#f3_f" transform="matrix(12.2,0,0,12.2,162.9,260.5)" />
<use xlink:href="#f3_4t" transform="matrix(12.2,0,0,12.2,144.5,264.9)" />
<use xlink:href="#f3_59" transform="matrix(12.2,0,0,12.2,217.6,264.9)" />
<use xlink:href="#f3_4r" transform="matrix(12.2,0,0,12.2,171.2,292.3)" />
<use xlink:href="#f3_57" transform="matrix(12.2,0,0,12.2,244.3,292.3)" />
<use xlink:href="#f3_x" transform="matrix(12.2,0,0,12.2,120.2,304.9)" />
<use xlink:href="#f3_4s" transform="matrix(12.2,0,0,12.2,171.2,309.9)" />
<use xlink:href="#f3_58" transform="matrix(12.2,0,0,12.2,244.3,309.9)" />
<use xlink:href="#f3_f" transform="matrix(12.2,0,0,12.2,189.6,319.4)" />
<use xlink:href="#f3_4t" transform="matrix(12.2,0,0,12.2,171.2,323.8)" />
<use xlink:href="#f3_59" transform="matrix(12.2,0,0,12.2,244.3,323.8)" />
<use xlink:href="#f3_4r" transform="matrix(12.2,0,0,12.2,171.2,351.3)" />
<use xlink:href="#f3_57" transform="matrix(12.2,0,0,12.2,241.5,351.3)" />
<use xlink:href="#f3_x" transform="matrix(12.2,0,0,12.2,120.2,363.8)" />
<use xlink:href="#f3_4s" transform="matrix(12.2,0,0,12.2,171.2,368.8)" />
<use xlink:href="#f3_58" transform="matrix(12.2,0,0,12.2,241.5,368.8)" />
<use xlink:href="#f3_f" transform="matrix(12.2,0,0,12.2,189.6,378.3)" />
<use xlink:href="#f3_4t" transform="matrix(12.2,0,0,12.2,171.2,382.7)" />
<use xlink:href="#f3_59" transform="matrix(12.2,0,0,12.2,241.5,382.7)" />
<use xlink:href="#f3_x" transform="matrix(12.2,0,0,12.2,120.2,409.5)" />
</g>
</g>
<path d="M110.1,445.1h20.7m19.5,0h60.1M110.1,500.2h20.7m19.5,0h70.4" class="g4_150" />
<g clip-path="url(#c2_150)">
<g fill="#000000" >
<use xlink:href="#f2_2k" transform="matrix(7,0,0,7,226.8,441.5)" />
<use xlink:href="#f2_m" transform="matrix(7,0,0,7,195.6,455.8)" />
<use xlink:href="#f2_2k" transform="matrix(7,0,0,7,201.9,455.8)" />
<use xlink:href="#f2_2k" transform="matrix(7,0,0,7,175.1,485.1)" />
<use xlink:href="#f2_2k" transform="matrix(7,0,0,7,208.4,510.8)" />
<use xlink:href="#f2_20" transform="matrix(12.1,0,0,12.1,111.2,438.2)" />
<use xlink:href="#f2_2l" transform="matrix(12.1,0,0,12.1,120.4,438.2)" />
<use xlink:href="#f2_m" transform="matrix(12.1,0,0,12.1,176,438.2)" />
<use xlink:href="#f2_i" transform="matrix(12.1,0,0,12.1,212.4,449.7)" />
<use xlink:href="#f2_q" transform="matrix(12.1,0,0,12.1,217,449.7)" />
<use xlink:href="#f2_28" transform="matrix(12.1,0,0,12.1,236.7,449.7)" />
<use xlink:href="#f2_2b" transform="matrix(12.1,0,0,12.1,241.6,449.7)" />
<use xlink:href="#f2_23" transform="matrix(12.1,0,0,12.1,250.8,449.7)" />
<use xlink:href="#f2_q" transform="matrix(12.1,0,0,12.1,262.5,449.7)" />
<use xlink:href="#f2_20" transform="matrix(12.1,0,0,12.1,110.9,463.9)" />
<use xlink:href="#f2_2k" transform="matrix(12.1,0,0,12.1,120.1,463.9)" />
<use xlink:href="#f2_l" transform="matrix(12.1,0,0,12.1,149.4,463.9)" />
<use xlink:href="#f2_c" transform="matrix(12.1,0,0,12.1,173.3,463.9)" />
<use xlink:href="#f2_q" transform="matrix(12.1,0,0,12.1,179.6,463.9)" />
<use xlink:href="#f2_d" transform="matrix(12.1,0,0,12.1,188.8,463.9)" />
<use xlink:href="#f2_20" transform="matrix(12.1,0,0,12.1,111.2,493.2)" />
<use xlink:href="#f2_2l" transform="matrix(12.1,0,0,12.1,120.4,493.2)" />
<use xlink:href="#f2_m" transform="matrix(12.1,0,0,12.1,151.5,493.2)" />
<use xlink:href="#f2_i" transform="matrix(12.1,0,0,12.1,160.7,493.2)" />
<use xlink:href="#f2_q" transform="matrix(12.1,0,0,12.1,165.3,493.2)" />
<use xlink:href="#f2_28" transform="matrix(12.1,0,0,12.1,185,493.2)" />
<use xlink:href="#f2_2b" transform="matrix(12.1,0,0,12.1,189.9,493.2)" />
<use xlink:href="#f2_23" transform="matrix(12.1,0,0,12.1,199.1,493.2)" />
<use xlink:href="#f2_q" transform="matrix(12.1,0,0,12.1,210.8,493.2)" />
<use xlink:href="#f2_20" transform="matrix(12.1,0,0,12.1,110.9,519)" />
<use xlink:href="#f2_2k" transform="matrix(12.1,0,0,12.1,120.1,519)" />
<use xlink:href="#f2_l" transform="matrix(12.1,0,0,12.1,153.2,519)" />
<use xlink:href="#f2_c" transform="matrix(12.1,0,0,12.1,177,519)" />
<use xlink:href="#f2_n" transform="matrix(12.1,0,0,12.1,183.1,519)" />
<use xlink:href="#f2_q" transform="matrix(12.1,0,0,12.1,192.3,519)" />
<use xlink:href="#f2_d" transform="matrix(12.1,0,0,12.1,201.5,519)" />
<use xlink:href="#f3_x" transform="matrix(12.1,0,0,12.1,135.7,449.7)" />
<use xlink:href="#f3_f" transform="matrix(12.1,0,0,12.1,160.1,463.9)" />
<use xlink:href="#f3_x" transform="matrix(12.1,0,0,12.1,135.7,504.7)" />
<use xlink:href="#f3_f" transform="matrix(12.1,0,0,12.1,163.8,519)" />
</g>
</g>
<g fill="#000000" >
<use xlink:href="#f2_l" transform="matrix(12,0,0,12,55,611)" />
<use xlink:href="#f2_q" transform="matrix(12,0,0,12,64.2,611)" />
<use xlink:href="#f2_i" transform="matrix(12,0,0,12,73.4,611)" />
<use xlink:href="#f2_16" transform="matrix(12,0,0,12,82.9,611)" />
<use xlink:href="#f2_25" transform="matrix(12,0,0,12,93.1,611)" />
<use xlink:href="#f2_2a" transform="matrix(12,0,0,12,97.9,611)" />
<use xlink:href="#f2_20" transform="matrix(12,0,0,12,106.7,611)" />
<use xlink:href="#f2_2g" transform="matrix(12,0,0,12,120.6,611)" />
<use xlink:href="#f2_24" transform="matrix(12,0,0,12,126.1,611)" />
<use xlink:href="#f2_21" transform="matrix(12,0,0,12,134.9,611)" />
<use xlink:href="#f2_2i" transform="matrix(12,0,0,12,147.7,611)" />
<use xlink:href="#f2_1x" transform="matrix(12,0,0,12,156.5,611)" />
<use xlink:href="#f2_28" transform="matrix(12,0,0,12,164.9,611)" />
<use xlink:href="#f2_2h" transform="matrix(12,0,0,12,169.7,611)" />
<use xlink:href="#f2_21" transform="matrix(12,0,0,12,178.8,611)" />
<use xlink:href="#f2_2b" transform="matrix(12,0,0,12,191.7,611)" />
<use xlink:href="#f2_22" transform="matrix(12,0,0,12,201.2,611)" />
<use xlink:href="#f2_27" transform="matrix(12,0,0,12,211.4,611)" />
<use xlink:href="#f2_g" transform="matrix(12,0,0,12,220.6,611)" />
<use xlink:href="#f2_22" transform="matrix(12,0,0,12,230.1,611)" />
<use xlink:href="#f2_2b" transform="matrix(12,0,0,12,235.6,611)" />
<use xlink:href="#f2_2e" transform="matrix(12,0,0,12,245.1,611)" />
<use xlink:href="#f2_2j" transform="matrix(12,0,0,12,256.1,611)" />
<use xlink:href="#f2_24" transform="matrix(12,0,0,12,269.3,611)" />
<use xlink:href="#f2_25" transform="matrix(12,0,0,12,278.5,611)" />
<use xlink:href="#f2_1z" transform="matrix(12,0,0,12,283.2,611)" />
<use xlink:href="#f2_24" transform="matrix(12,0,0,12,291.6,611)" />
</g>
<path d="M366.3,574.2l1.8,-1m.1,0l4.3,7.1m0,0l4.9,-18.8m0,0H420" class="g5_150" />
<path fill-rule="evenodd" d="M365.3,573.2l2.5,-1.3l4,5.8l4.5,-17.4h42.9v.9H377l-4.7,18.3h-1l-4.4,-6.4l-1.3,.7l-.3,-.6Z" class="g6_150" />
<path d="M437.3,574.2l1.9,-1m0,0l4.4,7.1m0,0l4.9,-18.8m0,0h42.2" class="g5_150" />
<path fill-rule="evenodd" d="M436.4,573.2l2.5,-1.3l4,5.8l4.5,-17.4H490v.9H448l-4.7,18.3h-.9L438,573.1l-1.3,.7l-.3,-.6Z" class="g6_150" />
<path d="M363.9,585H491.4m-88.6,48.6h43.5" class="g7_150" />
<g clip-path="url(#c3_150)">
<g fill="#000000" >
<use xlink:href="#f2_l" transform="matrix(12.2,0,0,12.1,375.4,578.1)" />
<use xlink:href="#f2_27" transform="matrix(12.2,0,0,12.1,399.5,578.1)" />
<use xlink:href="#f2_2k" transform="matrix(12.2,0,0,12.1,408.6,578.1)" />
<use xlink:href="#f2_l" transform="matrix(12.2,0,0,12.1,446.5,578.1)" />
<use xlink:href="#f2_27" transform="matrix(12.2,0,0,12.1,470.2,578.1)" />
<use xlink:href="#f2_2k" transform="matrix(12.2,0,0,12.1,479.4,578.1)" />
<use xlink:href="#f2_25" transform="matrix(12.2,0,0,12.1,500.3,583.6)" />
<use xlink:href="#f2_22" transform="matrix(12.2,0,0,12.1,505.5,583.6)" />
<use xlink:href="#f2_l" transform="matrix(12.2,0,0,12.1,529.5,583.6)" />
<use xlink:href="#f2_2k" transform="matrix(12.2,0,0,12.1,555.5,583.6)" />
<use xlink:href="#f2_k" transform="matrix(12.2,0,0,12.1,583.3,583.6)" />
<use xlink:href="#f2_2k" transform="matrix(12.2,0,0,12.1,423.1,603.7)" />
<use xlink:href="#f2_22" transform="matrix(12.2,0,0,12.1,303.7,610.8)" />
<use xlink:href="#f2_c" transform="matrix(12.2,0,0,12.1,312.5,610.8)" />
<use xlink:href="#f2_2k" transform="matrix(12.2,0,0,12.1,319.4,610.8)" />
<use xlink:href="#f2_d" transform="matrix(12.2,0,0,12.1,329.4,610.8)" />
<use xlink:href="#f2_g" transform="matrix(12.2,0,0,12.1,493.9,610.8)" />
<use xlink:href="#f2_25" transform="matrix(12.2,0,0,12.1,594.1,610.8)" />
<use xlink:href="#f2_2f" transform="matrix(12.2,0,0,12.1,599.3,610.8)" />
<use xlink:href="#f2_1z" transform="matrix(12.2,0,0,12.1,610.4,610.8)" />
<use xlink:href="#f2_2b" transform="matrix(12.2,0,0,12.1,618.4,610.8)" />
<use xlink:href="#f2_2a" transform="matrix(12.2,0,0,12.1,627.6,610.8)" />
<use xlink:href="#f2_2g" transform="matrix(12.2,0,0,12.1,636.7,610.8)" />
<use xlink:href="#f2_25" transform="matrix(12.2,0,0,12.1,641.9,610.8)" />
<use xlink:href="#f2_2a" transform="matrix(12.2,0,0,12.1,647.1,610.8)" />
<use xlink:href="#f2_2h" transform="matrix(12.2,0,0,12.1,656.2,610.8)" />
<use xlink:href="#f2_2b" transform="matrix(12.2,0,0,12.1,665.4,610.8)" />
<use xlink:href="#f2_2h" transform="matrix(12.2,0,0,12.1,674.6,610.8)" />
<use xlink:href="#f2_2f" transform="matrix(12.2,0,0,12.1,683.7,610.8)" />
<use xlink:href="#f2_1x" transform="matrix(12.2,0,0,12.1,694.9,610.8)" />
<use xlink:href="#f2_2g" transform="matrix(12.2,0,0,12.1,702.9,610.8)" />
<use xlink:href="#f2_2k" transform="matrix(12.2,0,0,12.1,713.2,610.8)" />
<use xlink:href="#f2_k" transform="matrix(12.2,0,0,12.1,741.2,610.8)" />
<use xlink:href="#f2_i" transform="matrix(12.2,0,0,12.1,750.3,610.8)" />
<use xlink:href="#f2_m" transform="matrix(12.2,0,0,12.1,403.9,626.7)" />
<use xlink:href="#f2_2k" transform="matrix(12.2,0,0,12.1,413.6,626.7)" />
<use xlink:href="#f2_l" transform="matrix(12.2,0,0,12.1,437.9,626.7)" />
<use xlink:href="#f2_25" transform="matrix(12.2,0,0,12.1,501.8,638)" />
<use xlink:href="#f2_22" transform="matrix(12.2,0,0,12.1,506.9,638)" />
<use xlink:href="#f2_k" transform="matrix(12.2,0,0,12.1,529.8,638)" />
<use xlink:href="#f2_2k" transform="matrix(12.2,0,0,12.1,557.2,638)" />
<use xlink:href="#f2_l" transform="matrix(12.2,0,0,12.1,583.3,638)" />
<use xlink:href="#f2_g" transform="matrix(12.2,0,0,12.1,448.9,638.1)" />
<use xlink:href="#f2_2k" transform="matrix(12.2,0,0,12.1,409.1,652.3)" />
<use xlink:href="#f2_l" transform="matrix(12.2,0,0,12.1,433.1,652.3)" />
<use xlink:href="#f3_4u" transform="matrix(12.2,0,0,12.1,354.1,575.6)" />
<use xlink:href="#f3_f" transform="matrix(12.2,0,0,12.1,386,578.1)" />
<use xlink:href="#f3_h" transform="matrix(12.2,0,0,12.1,422.9,578.1)" />
<use xlink:href="#f3_h" transform="matrix(12.2,0,0,12.1,457.1,578.1)" />
<use xlink:href="#f3_h" transform="matrix(12.2,0,0,12.1,518.3,583.6)" />
<use xlink:href="#f3_2t" transform="matrix(12.2,0,0,12.1,540.9,583.6)" />
<use xlink:href="#f3_w" transform="matrix(12.2,0,0,12.1,569.3,583.6)" />
<use xlink:href="#f3_4x" transform="matrix(12.2,0,0,12.1,354.1,593)" />
<use xlink:href="#f3_4x" transform="matrix(12.2,0,0,12.1,354.1,600.3)" />
<use xlink:href="#f3_x" transform="matrix(12.2,0,0,12.1,339.8,610.8)" />
<use xlink:href="#f3_x" transform="matrix(12.2,0,0,12.1,727.3,610.8)" />
<use xlink:href="#f3_4v" transform="matrix(12.2,0,0,12.1,354.1,613.9)" />
<use xlink:href="#f3_f" transform="matrix(12.2,0,0,12.1,426.5,626.7)" />
<use xlink:href="#f3_4x" transform="matrix(12.2,0,0,12.1,354.1,631.3)" />
<use xlink:href="#f3_2t" transform="matrix(12.2,0,0,12.1,542.6,638)" />
<use xlink:href="#f3_w" transform="matrix(12.2,0,0,12.1,571,638)" />
<use xlink:href="#f3_4x" transform="matrix(12.2,0,0,12.1,354.1,648.7)" />
<use xlink:href="#f3_4w" transform="matrix(12.2,0,0,12.1,354.1,652.3)" />
<use xlink:href="#f3_h" transform="matrix(12.2,0,0,12.1,422,652.3)" />
</g>
</g>
<g fill="#000000" >
<use xlink:href="#f4_1f" transform="matrix(12,0,0,12,442,678.5)" />
<use xlink:href="#f4_1i" transform="matrix(12,0,0,12,455.2,678.5)" />
<use xlink:href="#f2_19" transform="matrix(12,0,0,12,55,718.1)" />
<use xlink:href="#f2_22" transform="matrix(12,0,0,12,61.3,718.1)" />
<use xlink:href="#f2_2k" transform="matrix(12,0,0,12,71.9,718.1)" />
<use xlink:href="#f2_x" transform="matrix(12,0,0,12,85.4,718.1)" />
<use xlink:href="#f2_1x" transform="matrix(12,0,0,12,100.4,718.1)" />
<use xlink:href="#f2_1z" transform="matrix(12,0,0,12,113.2,718.1)" />
<use xlink:href="#f2_2b" transform="matrix(12,0,0,12,121.3,718.1)" />
<use xlink:href="#f2_2f" transform="matrix(12,0,0,12,130.8,718.1)" />
<use xlink:href="#f2_n" transform="matrix(7.9,0,0,7.9,137.9,711.1)" />
<use xlink:href="#f5_ey" transform="matrix(12,0,0,12,144.1,718.1)" />
<use xlink:href="#f5_1x" transform="matrix(12,0,0,12,157.3,718.1)" />
<use xlink:href="#f5_2a" transform="matrix(12,0,0,12,165.4,718.1)" />
<use xlink:href="#f5_20" transform="matrix(12,0,0,12,174.2,718.1)" />
<use xlink:href="#f5_2l" transform="matrix(12,0,0,12,188.5,718.1)" />
<use xlink:href="#f5_x" transform="matrix(12,0,0,12,201.6,718.1)" />
<use xlink:href="#f5_1x" transform="matrix(12,0,0,12,216.7,718.1)" />
<use xlink:href="#f5_2f" transform="matrix(12,0,0,12,229.5,718.1)" />
<use xlink:href="#f5_25" transform="matrix(12,0,0,12,236.8,718.1)" />
<use xlink:href="#f5_2a" transform="matrix(12,0,0,12,241.6,718.1)" />
<use xlink:href="#f2_n" transform="matrix(7.9,0,0,7.9,250.5,711.1)" />
<use xlink:href="#f5_ey" transform="matrix(12,0,0,12,256.8,718.1)" />
<use xlink:href="#f5_g" transform="matrix(12,0,0,12,265.6,718.1)" />
<use xlink:href="#f5_2g" transform="matrix(12,0,0,12,275.1,718.1)" />
<use xlink:href="#f5_24" transform="matrix(12,0,0,12,280.6,718.1)" />
<use xlink:href="#f5_21" transform="matrix(12,0,0,12,289.4,718.1)" />
<use xlink:href="#f5_2a" transform="matrix(12,0,0,12,297.4,718.1)" />
<use xlink:href="#f5_22" transform="matrix(12,0,0,12,311.3,718.1)" />
<use xlink:href="#f5_25" transform="matrix(12,0,0,12,317.2,718.1)" />
<use xlink:href="#f5_2a" transform="matrix(12,0,0,12,322,718.1)" />
<use xlink:href="#f5_20" transform="matrix(12,0,0,12,331.1,718.1)" />
<use xlink:href="#f5_2g" transform="matrix(12,0,0,12,345,718.1)" />
<use xlink:href="#f5_24" transform="matrix(12,0,0,12,350.5,718.1)" />
<use xlink:href="#f5_21" transform="matrix(12,0,0,12,359.3,718.1)" />
<use xlink:href="#f5_2i" transform="matrix(12,0,0,12,372.1,718.1)" />
<use xlink:href="#f5_1x" transform="matrix(12,0,0,12,380.9,718.1)" />
<use xlink:href="#f5_28" transform="matrix(12,0,0,12,389.4,718.1)" />
<use xlink:href="#f5_2h" transform="matrix(12,0,0,12,394.1,718.1)" />
<use xlink:href="#f5_21" transform="matrix(12,0,0,12,403.3,718.1)" />
<use xlink:href="#f5_2b" transform="matrix(12,0,0,12,416.1,718.1)" />
<use xlink:href="#f5_22" transform="matrix(12,0,0,12,425.6,718.1)" />
</g>
<path d="M435.1,713.7h28.1m50.8,0h11.7" class="g8_150" />
<g clip-path="url(#c4_150)">
<g fill="#000000" >
<use xlink:href="#f2_m" transform="matrix(7.3,0,0,7.1,446.4,698.1)" />
<use xlink:href="#f2_m" transform="matrix(7.3,0,0,7.1,455.5,724.7)" />
<use xlink:href="#f2_20" transform="matrix(12.7,0,0,12.3,436.2,706.4)" />
<use xlink:href="#f2_2l" transform="matrix(12.7,0,0,12.3,452.9,706.4)" />
<use xlink:href="#f2_1x" transform="matrix(12.7,0,0,12.3,467.9,718.3)" />
<use xlink:href="#f2_2g" transform="matrix(12.7,0,0,12.3,475.9,718.3)" />
<use xlink:href="#f2_i" transform="matrix(12.7,0,0,12.3,527.3,718.3)" />
<use xlink:href="#f2_20" transform="matrix(12.7,0,0,12.3,436,733)" />
<use xlink:href="#f2_2k" transform="matrix(12.7,0,0,12.3,445.1,733)" />
<use xlink:href="#f2_q" transform="matrix(12.7,0,0,12.3,515.4,733)" />
<use xlink:href="#f3_2c" transform="matrix(12.7,0,0,12.3,515.2,706.4)" />
<use xlink:href="#f3_2d" transform="matrix(12.7,0,0,12.3,485.8,718.3)" />
<use xlink:href="#f3_x" transform="matrix(12.7,0,0,12.3,499.3,718.3)" />
</g>
</g>
<g fill="#000000" >
<use xlink:href="#f2_1j" transform="matrix(12,0,0,12,55,758.1)" />
<use xlink:href="#f2_2b" transform="matrix(12,0,0,12,65.3,758.1)" />
<use xlink:href="#f2_28" transform="matrix(12,0,0,12,74.8,758.1)" />
<use xlink:href="#f2_2h" transform="matrix(12,0,0,12,79.2,758.1)" />
<use xlink:href="#f2_2g" transform="matrix(12,0,0,12,88.4,758.1)" />
<use xlink:href="#f2_25" transform="matrix(12,0,0,12,93.8,758.1)" />
<use xlink:href="#f2_2b" transform="matrix(12,0,0,12,98.2,758.1)" />
<use xlink:href="#f2_2a" transform="matrix(12,0,0,12,107.8,758.1)" />
<use xlink:href="#f2_u" transform="matrix(12,0,0,12,116.6,758.1)" />
</g>
<path d="M120.5,784l2,-1m0,0l4.3,7m0,.1l4.9,-18.9m0,0h43.6" class="g9_150" />
<path fill-rule="evenodd" d="M119.6,783l2.5,-1.4l4,5.8l4.5,-17.3h44v.9H131.2l-4.7,18.3h-.9l-4.4,-6.4l-1.3,.6l-.3,-.5Z" class="g6_150" />
<path d="M193.8,784l1.9,-1m0,0l4.4,7m0,.1L205,771.2m0,0h43.4" class="g9_150" />
<path fill-rule="evenodd" d="M192.9,783l2.5,-1.4l4,5.8l4.4,-17.3h43.8v.9H204.5l-4.7,18.3h-.9l-4.4,-6.4l-1.3,.6l-.3,-.5Z" class="g6_150" />
<path d="M118.2,795H249m-90.6,48.9H203" class="g10_150" />
<g clip-path="url(#c5_150)">
<g fill="#000000" >
<use xlink:href="#f2_l" transform="matrix(12.2,0,0,12.1,129.7,787.9)" />
<use xlink:href="#f2_27" transform="matrix(12.2,0,0,12.1,154.8,787.9)" />
<use xlink:href="#f2_2k" transform="matrix(12.2,0,0,12.1,164,787.9)" />
<use xlink:href="#f2_l" transform="matrix(12.2,0,0,12.1,202.9,787.9)" />
<use xlink:href="#f2_27" transform="matrix(12.2,0,0,12.1,227.8,787.9)" />
<use xlink:href="#f2_2k" transform="matrix(12.2,0,0,12.1,236.9,787.9)" />
<use xlink:href="#f2_25" transform="matrix(12.2,0,0,12.1,257.1,793.8)" />
<use xlink:href="#f2_22" transform="matrix(12.2,0,0,12.1,262.3,793.8)" />
<use xlink:href="#f2_l" transform="matrix(12.2,0,0,12.1,287,793.8)" />
<use xlink:href="#f2_2k" transform="matrix(12.2,0,0,12.1,313.4,793.8)" />
<use xlink:href="#f2_k" transform="matrix(12.2,0,0,12.1,341.5,793.8)" />
<use xlink:href="#f2_2k" transform="matrix(12.2,0,0,12.1,179,813.8)" />
<use xlink:href="#f2_22" transform="matrix(12.2,0,0,12.1,57.7,820.9)" />
<use xlink:href="#f2_c" transform="matrix(12.2,0,0,12.1,66.5,820.9)" />
<use xlink:href="#f2_2k" transform="matrix(12.2,0,0,12.1,73.3,820.9)" />
<use xlink:href="#f2_d" transform="matrix(12.2,0,0,12.1,83.3,820.9)" />
<use xlink:href="#f2_g" transform="matrix(12.2,0,0,12.1,251.1,820.9)" />
<use xlink:href="#f2_m" transform="matrix(12.2,0,0,12.1,159.5,836.8)" />
<use xlink:href="#f2_2k" transform="matrix(12.2,0,0,12.1,169.2,836.8)" />
<use xlink:href="#f2_l" transform="matrix(12.2,0,0,12.1,194.6,836.8)" />
<use xlink:href="#f2_25" transform="matrix(12.2,0,0,12.1,258.6,848.1)" />
<use xlink:href="#f2_22" transform="matrix(12.2,0,0,12.1,263.8,848.1)" />
<use xlink:href="#f2_k" transform="matrix(12.2,0,0,12.1,287.2,848.1)" />
<use xlink:href="#f2_2k" transform="matrix(12.2,0,0,12.1,315,848.1)" />
<use xlink:href="#f2_l" transform="matrix(12.2,0,0,12.1,341.4,848.1)" />
<use xlink:href="#f2_g" transform="matrix(12.2,0,0,12.1,205.1,848.4)" />
<use xlink:href="#f2_2k" transform="matrix(12.2,0,0,12.1,164.6,862.7)" />
<use xlink:href="#f2_l" transform="matrix(12.2,0,0,12.1,189.8,862.7)" />
<use xlink:href="#f3_4u" transform="matrix(12.2,0,0,12.1,108.4,785.3)" />
<use xlink:href="#f3_f" transform="matrix(12.2,0,0,12.1,140.9,787.9)" />
<use xlink:href="#f3_h" transform="matrix(12.2,0,0,12.1,178.9,787.9)" />
<use xlink:href="#f3_h" transform="matrix(12.2,0,0,12.1,214.1,787.9)" />
<use xlink:href="#f3_h" transform="matrix(12.2,0,0,12.1,275.4,793.8)" />
<use xlink:href="#f3_2t" transform="matrix(12.2,0,0,12.1,298.7,793.8)" />
<use xlink:href="#f3_w" transform="matrix(12.2,0,0,12.1,327.4,793.8)" />
<use xlink:href="#f3_4x" transform="matrix(12.2,0,0,12.1,108.4,802.7)" />
<use xlink:href="#f3_4x" transform="matrix(12.2,0,0,12.1,108.4,810.4)" />
<use xlink:href="#f3_x" transform="matrix(12.2,0,0,12.1,93.9,820.9)" />
<use xlink:href="#f3_4v" transform="matrix(12.2,0,0,12.1,108.4,824)" />
<use xlink:href="#f3_f" transform="matrix(12.2,0,0,12.1,182.6,836.8)" />
<use xlink:href="#f3_4x" transform="matrix(12.2,0,0,12.1,108.4,841.4)" />
<use xlink:href="#f3_2t" transform="matrix(12.2,0,0,12.1,300.3,848.1)" />
<use xlink:href="#f3_w" transform="matrix(12.2,0,0,12.1,329,848.1)" />
<use xlink:href="#f3_4x" transform="matrix(12.2,0,0,12.1,108.4,858.8)" />
<use xlink:href="#f3_4w" transform="matrix(12.2,0,0,12.1,108.4,862.7)" />
<use xlink:href="#f3_h" transform="matrix(12.2,0,0,12.1,178.1,862.7)" />
</g>
</g>
<g fill="#000000" >
<use xlink:href="#f2_22" transform="matrix(12,0,0,12,55,888.7)" />
<use xlink:href="#f2_2h" transform="matrix(12,0,0,12,60.9,888.7)" />
<use xlink:href="#f2_2a" transform="matrix(12,0,0,12,70.4,888.7)" />
<use xlink:href="#f2_1z" transform="matrix(12,0,0,12,79.2,888.7)" />
<use xlink:href="#f2_2g" transform="matrix(12,0,0,12,87.3,888.7)" />
<use xlink:href="#f2_25" transform="matrix(12,0,0,12,93.1,888.7)" />
<use xlink:href="#f2_2b" transform="matrix(12,0,0,12,97.5,888.7)" />
<use xlink:href="#f2_2a" transform="matrix(12,0,0,12,107,888.7)" />
<use xlink:href="#f2_22" transform="matrix(12,0,0,12,121,888.7)" />
<use xlink:href="#f2_c" transform="matrix(12,0,0,12,126.5,888.7)" />
<use xlink:href="#f2_2k" transform="matrix(12,0,0,12,132.7,888.7)" />
<use xlink:href="#f2_d" transform="matrix(12,0,0,12,141.5,888.7)" />
<use xlink:href="#f2_25" transform="matrix(12,0,0,12,152.8,888.7)" />
<use xlink:href="#f2_2f" transform="matrix(12,0,0,12,157.6,888.7)" />
<use xlink:href="#f2_1z" transform="matrix(12,0,0,12,169.3,888.7)" />
<use xlink:href="#f2_2b" transform="matrix(12,0,0,12,177.4,888.7)" />
<use xlink:href="#f2_2a" transform="matrix(12,0,0,12,186.9,888.7)" />
<use xlink:href="#f2_2g" transform="matrix(12,0,0,12,195.7,888.7)" />
<use xlink:href="#f2_25" transform="matrix(12,0,0,12,201.2,888.7)" />
<use xlink:href="#f2_2a" transform="matrix(12,0,0,12,205.9,888.7)" />
<use xlink:href="#f2_2h" transform="matrix(12,0,0,12,214.7,888.7)" />
<use xlink:href="#f2_2b" transform="matrix(12,0,0,12,223.9,888.7)" />
<use xlink:href="#f2_2h" transform="matrix(12,0,0,12,233.4,888.7)" />
<use xlink:href="#f2_2f" transform="matrix(12,0,0,12,242.6,888.7)" />
<use xlink:href="#f2_1x" transform="matrix(12,0,0,12,254.3,888.7)" />
<use xlink:href="#f2_2g" transform="matrix(12,0,0,12,262.3,888.7)" />
<use xlink:href="#f2_2k" transform="matrix(12,0,0,12,272.6,888.7)" />
<use xlink:href="#f2_x" transform="matrix(12,0,0,12,286.1,888.7)" />
<use xlink:href="#f2_k" transform="matrix(12,0,0,12,301.1,888.7)" />
</g>
<path fill-rule="evenodd" d="M37.4,38.1h.7v-.7h-.7v.7Z" class="g6_150" />
<path fill-rule="evenodd" d="M37.4,38.1h.7v-.7h-.7v.7Z" class="g6_150" />
<path fill-rule="evenodd" d="M38.1,38.1H871.5v-.7H38.1v.7Z" class="g6_150" />
<path fill-rule="evenodd" d="M871.5,38.1h.8v-.7h-.8v.7Z" class="g6_150" />
<path fill-rule="evenodd" d="M871.5,38.1h.8v-.7h-.8v.7Z" class="g6_150" />
<path fill-rule="evenodd" d="M37.4,1248.5h.7V38.1h-.7V1248.5Z" class="g6_150" />
<path fill-rule="evenodd" d="M872.3,1248.5h.7V38.1h-.7V1248.5Z" class="g6_150" />
<path fill-rule="evenodd" d="M871.5,1248.5h.8V38.1h-.8V1248.5Z" class="g6_150" />
<path fill-rule="evenodd" d="M37.4,1249.2h.7v-.7h-.7v.7Z" class="g6_150" />
<path fill-rule="evenodd" d="M37.4,1249.2h.7v-.7h-.7v.7Z" class="g6_150" />
<path fill-rule="evenodd" d="M38.1,1249.9H871.5v-.7H38.1v.7Z" class="g6_150" />
<path fill-rule="evenodd" d="M38.1,1249.2H871.5v-.7H38.1v.7Z" class="g6_150" />
<path fill-rule="evenodd" d="M872.3,1249.9h.7v-1.4h-.7v1.4Z" class="g6_150" />
<path fill-rule="evenodd" d="M871.5,1249.9H873v-.7h-1.5v.7Z" class="g6_150" />
<path fill-rule="evenodd" d="M871.5,1249.2h.8v-.7h-.8v.7Z" class="g6_150" />
<path fill-rule="evenodd" d="M871.5,1249.2h.8v-.7h-.8v.7Z" class="g6_150" />
<defs>
<path d="M489,-15c0,0,-99,0,-179,30c0,0,-80,30,-136,91c0,0,-56,61,-85,152c0,0,-30,91,-30,212c0,0,0,123,32,218c0,0,33,96,92,161c0,0,59,65,142,98c0,0,82,34,181,34c0,0,40,0,78,-7c0,0,37,-7,69,-18c0,0,31,-11,57,-25c0,0,25,-14,35,-24c0,0,10,-10,14,-17c0,0,4,-7,6,-17c0,0,2,-11,3,-25c0,0,2,-14,2,-35c0,0,0,-22,-2,-38c0,0,-1,-15,-5,-25c0,0,-4,-10,-9,-14c0,0,-5,-5,-12,-5c0,0,-11,0,-28,13c0,0,-18,13,-45,29c0,0,-27,16,-65,29c0,0,-37,13,-89,13c0,0,-58,0,-103,-23c0,0,-45,-23,-77,-67c0,0,-31,-44,-48,-106c0,0,-16,-61,-16,-139c0,0,0,-85,17,-147c0,0,18,-62,50,-103c0,0,33,-40,79,-60c0,0,45,-19,103,-19c0,0,52,0,90,12c0,0,38,12,65,27c0,0,27,15,45,27c0,0,17,12,27,12c0,0,8,0,12,-3c0,0,4,-3,7,-12c0,0,3,-9,5,-25c0,0,1,-16,1,-43c0,0,0,-18,-1,-31c0,0,-1,-14,-3,-23c0,0,-2,-9,-6,-16c0,0,-4,-7,-12,-15c0,0,-8,-9,-32,-22c0,0,-23,-14,-57,-26C661,13,627,1,583,-6c0,0,-43,-9,-94,-9Z" 
id="f0_j"
transform="scale(0.001,-0.001)" />

<path d="M440,150c0,0,41,0,68,8c0,0,28,9,49,26c0,0,20,16,32,41c0,0,11,25,11,58c0,0,0,33,-11,60c0,0,-11,26,-33,44c0,0,-21,18,-55,28c0,0,-33,9,-87,9H298V150ZM407,567c0,0,42,0,68,10c0,0,25,10,42,28c0,0,16,17,24,41c0,0,9,24,9,50c0,0,0,29,-9,52c0,0,-9,23,-27,39c0,0,-18,15,-45,23c0,0,-27,8,-72,8H298V567ZM164,0c0,0,-25,0,-42,15c0,0,-16,14,-16,47V903c0,0,0,33,16,48c0,0,17,14,42,14H406c0,0,88,0,150,-15c0,0,61,-15,103,-45c0,0,42,-30,65,-77c0,0,22,-46,22,-108c0,0,0,-36,-9,-67c0,0,-9,-31,-26,-56c0,0,-17,-25,-42,-45c0,0,-25,-19,-57,-31c0,0,41,-7,76,-26c0,0,34,-19,60,-48c0,0,26,-30,41,-69c0,0,15,-40,15,-89c0,0,0,-51,-14,-93c0,0,-15,-42,-40,-74c0,0,-25,-32,-59,-55c0,0,-35,-23,-77,-38C614,29,573,14,525,7C525,7,478,0,420,0Z" 
id="f0_i"
transform="scale(0.001,-0.001)" />

<path d="M320,-17c0,0,-50,0,-93,9c0,0,-43,8,-76,19c0,0,-32,11,-54,24C97,35,75,48,65,58c0,0,-10,9,-14,28c0,0,-4,18,-4,52c0,0,0,23,1,39c0,0,2,15,5,25c0,0,4,10,9,14c0,0,6,4,13,4c0,0,11,0,30,-12c0,0,19,-13,49,-28c0,0,30,-15,71,-27c0,0,42,-12,96,-12c0,0,36,0,64,8c0,0,29,9,49,25c0,0,19,15,30,38c0,0,10,23,10,52c0,0,0,33,-18,56c0,0,-18,24,-46,42c0,0,-29,18,-66,34c0,0,-36,16,-75,34c0,0,-39,18,-76,41c0,0,-36,23,-65,54c0,0,-29,32,-47,75c0,0,-17,44,-17,104c0,0,0,70,25,122c0,0,26,53,70,88c0,0,43,34,103,51c0,0,59,18,125,18c0,0,35,0,69,-6c0,0,34,-5,64,-14c0,0,30,-9,53,-20c0,0,23,-11,31,-18c0,0,7,-8,10,-13c0,0,3,-5,4,-14c0,0,2,-8,3,-21c0,0,1,-13,1,-33c0,0,0,-21,-1,-36c0,0,-1,-15,-4,-25c0,0,-3,-9,-7,-14c0,0,-5,-4,-14,-4c0,0,-8,0,-26,10c0,0,-18,10,-44,23c0,0,-26,12,-60,22c0,0,-34,10,-75,10c0,0,-32,0,-56,-8c0,0,-24,-8,-40,-21c0,0,-16,-14,-24,-34c0,0,-8,-19,-8,-41c0,0,0,-32,18,-56c0,0,17,-23,46,-42c0,0,30,-18,67,-34c0,0,38,-16,76,-34c0,0,39,-18,76,-41c0,0,38,-22,67,-54c0,0,29,-32,47,-75c0,0,18,-43,18,-101c0,0,0,-76,-29,-133c0,0,-28,-58,-77,-96C572,60,524,21,459,2c0,0,-65,-19,-139,-19Z" 
id="f0_2n"
transform="scale(0.001,-0.001)" />

<path d="M164,0c0,0,-25,0,-42,15c0,0,-16,14,-16,47V903c0,0,0,33,16,48c0,0,17,14,42,14H645c0,0,7,0,12,-4c0,0,5,-3,9,-13c0,0,4,-9,6,-24c0,0,2,-14,2,-36c0,0,0,-21,-2,-36c0,0,-2,-14,-6,-23c0,0,-4,-9,-9,-13c0,0,-5,-4,-12,-4H301V576H593c0,0,6,0,12,-4c0,0,6,-4,9,-13c0,0,4,-8,6,-23c0,0,2,-14,2,-35c0,0,0,-22,-2,-36c0,0,-2,-14,-6,-23c0,0,-3,-8,-9,-12c0,0,-6,-4,-12,-4H301V154H649c0,0,6,0,12,-5c0,0,5,-4,9,-13c0,0,4,-9,6,-23c0,0,2,-15,2,-36c0,0,0,-22,-2,-36c0,0,-2,-15,-6,-24c0,0,-4,-9,-9,-13c0,0,-6,-4,-12,-4Z" 
id="f0_t"
transform="scale(0.001,-0.001)" />

<path d="M79,297c0,0,-19,0,-27,18c0,0,-8,17,-8,60c0,0,0,41,8,59c0,0,8,17,27,17H389c0,0,9,0,15,-4c0,0,7,-4,11,-13c0,0,5,-9,7,-23c0,0,1,-15,1,-36c0,0,0,-43,-8,-61c0,0,-8,-17,-26,-17Z" 
id="f0_oj"
transform="scale(0.001,-0.001)" />

<path d="M121,-4c0,0,-39,0,-60,2C61,-2,39,0,32,8c0,0,-8,8,-3,24c0,0,4,15,18,41L279,495L64,892c0,0,-14,26,-19,42c0,0,-5,17,4,24c0,0,9,8,32,10c0,0,23,2,65,2c0,0,35,0,56,-2c0,0,20,-1,32,-4c0,0,12,-4,17,-10c0,0,5,-6,9,-15L431,620L595,939c0,0,5,9,10,15c0,0,5,6,16,10c0,0,10,3,29,4c0,0,19,2,53,2c0,0,37,0,59,-2c0,0,22,-2,30,-10c0,0,8,-8,4,-24c0,0,-4,-16,-17,-42L564,497L793,73c0,0,14,-26,18,-41c0,0,4,-16,-5,-24c0,0,-9,-8,-32,-10c0,0,-24,-2,-65,-2c0,0,-36,0,-56,2c0,0,-20,1,-31,3c0,0,-12,4,-17,10c0,0,-5,6,-9,15L414,374L233,26c0,0,-4,-9,-9,-15c0,0,-6,-6,-17,-10c0,0,-12,-2,-32,-3c0,0,-21,-2,-54,-2Z" 
id="f0_3e"
transform="scale(0.001,-0.001)" />

<path d="M204,-4c0,0,-28,0,-47,2c0,0,-19,2,-31,5c0,0,-11,4,-16,10c0,0,-4,6,-4,13V939c0,0,0,7,4,13c0,0,5,6,17,10c0,0,11,3,30,6c0,0,19,2,47,2c0,0,29,0,48,-2c0,0,18,-3,29,-6c0,0,11,-4,16,-10c0,0,5,-6,5,-13V26c0,0,0,-7,-5,-13c0,0,-5,-6,-16,-10c0,0,-11,-3,-29,-5c0,0,-19,-2,-48,-2Z" 
id="f0_1c"
transform="scale(0.001,-0.001)" />

<path d="M127,0c0,0,-16,0,-28,3C99,3,87,6,80,15c0,0,-8,8,-11,25c0,0,-3,16,-3,42c0,0,0,25,2,42c0,0,2,18,8,32c0,0,6,14,15,27c0,0,9,13,24,29L282,390c0,0,50,53,81,95c0,0,30,43,47,79c0,0,17,35,24,65c0,0,6,30,6,57c0,0,0,24,-8,46c0,0,-8,22,-23,39c0,0,-15,16,-38,25c0,0,-23,10,-55,10c0,0,-44,0,-78,-12c0,0,-33,-11,-59,-25c0,0,-26,-13,-43,-25c0,0,-17,-12,-27,-12c0,0,-7,0,-11,5c0,0,-5,4,-8,15c0,0,-3,10,-5,28c0,0,-2,17,-2,42c0,0,0,18,1,29c0,0,1,12,4,20c0,0,2,9,6,15c0,0,3,6,13,15c0,0,9,9,34,23c0,0,25,14,61,27c0,0,37,14,81,23c0,0,44,9,92,9c0,0,75,0,131,-19c0,0,57,-19,94,-53c0,0,37,-34,55,-81c0,0,19,-47,19,-100c0,0,0,-47,-9,-93c0,0,-9,-45,-37,-98c0,0,-29,-52,-80,-116c0,0,-52,-64,-136,-148L299,159H679c0,0,8,0,14,-4c0,0,6,-5,11,-14c0,0,4,-9,7,-25c0,0,2,-15,2,-36c0,0,0,-22,-2,-37c0,0,-2,-15,-6,-25c0,0,-3,-10,-9,-14c0,0,-6,-4,-14,-4Z" 
id="f0_rz"
transform="scale(0.001,-0.001)" />

<path d="M385,138c0,0,29,0,52,9c0,0,22,10,39,28c0,0,17,19,28,47c0,0,11,29,19,66c0,0,7,37,9,84c0,0,3,47,3,104c0,0,0,69,-4,122c0,0,-4,52,-11,91c0,0,-8,39,-20,66c0,0,-12,27,-28,43c0,0,-16,16,-37,22c0,0,-21,7,-47,7c0,0,-44,0,-73,-21c0,0,-28,-21,-45,-64c0,0,-17,-42,-24,-106c0,0,-6,-63,-6,-148c0,0,0,-103,8,-171c0,0,8,-67,26,-107c0,0,17,-40,45,-56c0,0,27,-16,66,-16ZM378,-17c0,0,-99,0,-164,33c0,0,-65,34,-103,98c0,0,-38,64,-54,156c0,0,-15,92,-15,209c0,0,0,115,19,208c0,0,19,94,61,160c0,0,42,65,110,101c0,0,68,35,165,35c0,0,99,0,164,-34c0,0,65,-34,103,-98c0,0,39,-64,53,-156c0,0,15,-92,15,-209c0,0,0,-115,-18,-209c0,0,-19,-93,-61,-159C653,118,611,53,543,17c0,0,-67,-34,-165,-34Z" 
id="f0_rx"
transform="scale(0.001,-0.001)" />

<path d="M142,0c0,0,-6,0,-12,4c0,0,-5,3,-9,12c0,0,-4,9,-6,23c0,0,-3,15,-3,36c0,0,0,21,2,36c0,0,2,14,6,23c0,0,4,9,10,13c0,0,5,5,12,5H322V779L166,693c0,0,-17,-8,-28,-10c0,0,-1,0,-3,0c-4,0,-10,1,-14,5c0,0,-6,6,-8,22c0,0,-2,15,-2,44c0,0,0,18,0,29c0,0,1,12,4,20c0,0,3,8,8,14c0,0,5,5,14,11L345,962c0,0,4,3,9,5c0,0,6,2,15,3c0,0,9,1,23,2c0,0,15,0,38,0c0,0,28,0,46,-1c0,0,17,-1,26,-4c0,0,9,-3,12,-7c0,0,3,-4,3,-11V152H675c0,0,7,0,12,-5c0,0,6,-4,10,-13c0,0,4,-9,6,-23c0,0,2,-15,2,-36c0,0,0,-21,-2,-36c0,0,-3,-14,-7,-23c0,0,-4,-9,-9,-12c0,0,-5,-4,-12,-4Z" 
id="f0_ry"
transform="scale(0.001,-0.001)" />

<path d="M337,-17c0,0,-50,0,-93,8c0,0,-43,7,-76,16c0,0,-34,11,-55,22c0,0,-22,11,-29,17c0,0,-6,6,-10,13c0,0,-3,8,-6,18c0,0,-2,10,-3,25c0,0,-1,16,-1,37c0,0,0,36,6,50c0,0,6,13,17,13c0,0,8,0,26,-10c0,0,18,-10,47,-21c0,0,28,-12,66,-22c0,0,38,-10,87,-10c0,0,41,0,72,10c0,0,31,9,53,27c0,0,22,17,33,42c0,0,11,25,11,56c0,0,0,34,-13,61c0,0,-13,26,-39,45c0,0,-26,20,-65,30c0,0,-39,10,-92,10H189c0,0,-9,0,-16,3c0,0,-7,3,-11,11c0,0,-5,8,-7,23c0,0,-1,14,-1,37c0,0,0,22,1,36c0,0,2,13,6,21c0,0,4,7,11,10c0,0,6,3,15,3h85c0,0,43,0,77,10c0,0,33,10,56,29c0,0,23,19,35,45c0,0,12,27,12,59c0,0,0,25,-8,47c0,0,-9,22,-25,38c0,0,-16,16,-41,26c0,0,-26,9,-60,9c0,0,-39,0,-73,-11c0,0,-34,-12,-62,-26c0,0,-27,-13,-46,-25c0,0,-19,-12,-28,-12c0,0,-6,0,-10,2c0,0,-5,3,-8,11c0,0,-3,7,-4,21c0,0,-2,14,-2,37c0,0,0,18,1,31c0,0,1,12,3,20c0,0,2,8,5,14c0,0,4,6,11,13c0,0,8,7,31,21c0,0,23,14,58,28c0,0,35,13,81,22c0,0,46,10,100,10c0,0,70,0,124,-17c0,0,54,-16,91,-47c0,0,37,-31,56,-76c0,0,19,-46,19,-102c0,0,0,-44,-11,-83c0,0,-12,-38,-33,-68c0,0,-22,-29,-54,-50c0,0,-33,-21,-75,-32v-2c0,0,50,-6,91,-26c0,0,40,-19,68,-49c0,0,28,-30,43,-68c0,0,15,-37,15,-81c0,0,0,-72,-28,-128c0,0,-27,-56,-77,-94C604,60,555,22,487,2c0,0,-69,-19,-150,-19Z" 
id="f0_s7"
transform="scale(0.001,-0.001)" />

<path d="M589,371L453,782h-1L317,371ZM106,-4c0,0,-35,0,-54,2C52,-2,32,0,25,8c0,0,-7,9,-5,24c0,0,2,16,11,42L329,931c0,0,4,13,10,21c0,0,6,7,19,12c0,0,13,4,36,5c0,0,23,1,61,1c0,0,44,0,71,-1c0,0,26,-1,40,-5c0,0,15,-5,21,-13c0,0,6,-8,11,-22L896,73c0,0,9,-27,11,-43c0,0,3,-15,-6,-23c0,0,-8,-7,-29,-9c0,0,-21,-2,-57,-2c0,0,-38,0,-59,1c0,0,-22,1,-33,4c0,0,-11,3,-16,9c0,0,-4,6,-7,16L635,220H272L211,31c0,0,-2,-11,-7,-18c0,0,-5,-7,-16,-11c0,0,-11,-3,-31,-4c0,0,-19,-2,-51,-2Z" 
id="f0_5"
transform="scale(0.001,-0.001)" />

<path d="M198,-4c0,0,-27,0,-45,2c0,0,-18,2,-28,5c0,0,-11,4,-15,10c0,0,-4,6,-4,13V887c0,0,0,38,20,58c0,0,20,20,53,20H308c0,0,34,0,59,-6c0,0,24,-5,42,-18c0,0,18,-13,30,-35c0,0,12,-21,21,-52L669,279h3L889,852c0,0,9,32,21,53c0,0,11,22,27,35c0,0,15,14,36,19c0,0,21,6,48,6h132c0,0,21,0,35,-5c0,0,15,-5,24,-15c0,0,9,-11,14,-25c0,0,5,-15,5,-33V26c0,0,0,-7,-4,-13c0,0,-4,-6,-15,-10c0,0,-11,-3,-29,-5c0,0,-18,-2,-45,-2c0,0,-27,0,-45,2c0,0,-18,2,-28,5c0,0,-11,4,-15,10c0,0,-5,6,-5,13V813h-1L764,27c0,0,-3,-10,-10,-16c0,0,-6,-6,-18,-10c0,0,-12,-3,-29,-4c0,0,-18,-1,-44,-1c0,0,-25,0,-43,2c0,0,-18,2,-29,5c0,0,-12,4,-19,10c0,0,-6,6,-9,14L293,813h-2V26c0,0,0,-7,-4,-13c0,0,-4,-6,-15,-10c0,0,-11,-3,-29,-5c0,0,-17,-2,-45,-2Z" 
id="f0_1x"
transform="scale(0.001,-0.001)" />

<path d="M193,-4c0,0,-26,0,-43,2c0,0,-18,2,-27,6c0,0,-10,4,-14,10c0,0,-3,6,-3,13V895c0,0,0,35,20,53c0,0,21,17,50,17H282c0,0,28,0,47,-5c0,0,20,-5,35,-16c0,0,15,-11,29,-31c0,0,13,-20,27,-49L608,511c0,0,17,-32,33,-63c0,0,16,-31,31,-62c0,0,14,-31,29,-60c0,0,14,-30,27,-60h1c0,0,-2,52,-3,109c0,0,-1,57,-1,108V936c0,0,0,7,4,13c0,0,5,6,15,11c0,0,10,4,28,6c0,0,17,2,44,2c0,0,25,0,42,-2c0,0,17,-2,27,-6c0,0,9,-5,13,-11c0,0,4,-6,4,-13V68c0,0,0,-17,-6,-30c0,0,-6,-14,-17,-23C879,15,869,6,856,2c0,0,-14,-3,-28,-3H744c0,0,-26,0,-45,4c0,0,-19,5,-35,19c0,0,-16,14,-31,38c0,0,-15,23,-34,60L359,572c0,0,-21,40,-43,86c0,0,-21,47,-38,91h-2c0,0,3,-54,5,-107c0,0,2,-53,2,-110V27c0,0,0,-7,-5,-13c0,0,-4,-6,-14,-10c0,0,-10,-4,-27,-6c0,0,-17,-2,-44,-2Z" 
id="f0_1y"
transform="scale(0.001,-0.001)" />

<path d="M378,-4c0,0,-28,0,-47,2c0,0,-19,2,-31,5c0,0,-11,4,-16,10c0,0,-4,6,-4,13V805H38c0,0,-8,0,-13,4c0,0,-5,5,-9,14c0,0,-3,9,-5,25c0,0,-2,15,-2,37c0,0,0,22,2,38c0,0,2,15,5,25c0,0,4,9,9,13c0,0,5,4,13,4H718c0,0,7,0,12,-4c0,0,6,-4,10,-13c0,0,3,-10,5,-25c0,0,2,-16,2,-38c0,0,0,-22,-2,-37c0,0,-2,-16,-5,-25c0,0,-4,-9,-10,-14c0,0,-5,-4,-12,-4H476V26c0,0,0,-7,-5,-13c0,0,-5,-6,-16,-10c0,0,-11,-3,-30,-5c0,0,-19,-2,-47,-2Z" 
id="f0_2t"
transform="scale(0.001,-0.001)" />

<path d="M514,145c0,0,72,0,121,27c0,0,48,26,78,73c0,0,30,46,42,107c0,0,13,62,13,131c0,0,0,76,-12,139c0,0,-12,62,-41,106c0,0,-29,45,-76,69c0,0,-48,24,-120,24c0,0,-72,0,-120,-27c0,0,-49,-27,-79,-73c0,0,-29,-45,-42,-106c0,0,-12,-61,-12,-129c0,0,0,-79,12,-142c0,0,12,-63,40,-108c0,0,28,-44,76,-68c0,0,48,-23,120,-23ZM508,-17c0,0,-113,0,-196,29c0,0,-84,29,-140,90c0,0,-56,60,-84,154c0,0,-28,93,-28,221c0,0,0,117,29,210c0,0,30,94,89,160c0,0,59,65,146,101c0,0,87,35,202,35c0,0,110,0,194,-29c0,0,84,-30,140,-90c0,0,56,-60,85,-153c0,0,29,-92,29,-217c0,0,0,-120,-30,-215c0,0,-30,-95,-89,-161C855,118,796,52,709,17c0,0,-87,-34,-201,-34Z" 
id="f0_24"
transform="scale(0.001,-0.001)" />

<path d="M186,-28L17,77L450,779H39V952H793L186,-28Z" 
id="f1_r"
transform="scale(0.001,-0.001)" />

<path d="M44,-281L425,1053H537L156,-281Z" 
id="f1_j"
transform="scale(0.001,-0.001)" />

<path d="M299,0V777H162l36,173H508V0Z" 
id="f1_l"
transform="scale(0.001,-0.001)" />

<path d="M407,475c0,0,61,0,105,44c0,0,44,43,44,103c0,0,0,64,-43,108c0,0,-44,43,-109,43c0,0,-57,0,-99,-44c0,0,-42,-45,-42,-107c0,0,0,-62,42,-104c0,0,42,-43,102,-43ZM195,0L430,323c0,0,-67,-8,-85,-8c0,0,-126,0,-212,92c0,0,-87,92,-87,227c0,0,0,141,107,237c0,0,106,96,264,96c0,0,151,0,246,-97c0,0,95,-96,95,-250c0,0,0,-112,-56,-223c0,0,-55,-112,-94,-168L448,0Z" 
id="f1_t"
transform="scale(0.001,-0.001)" />

<path d="M13,0V34L95,46L325,350L122,649L40,668v33H357V668L264,648L399,446L554,649l-96,19v33H710V668L630,652L433,397L663,50L745,34V0H427V34l94,17L359,299L169,50L266,34V0Z" 
id="f2_2k"
transform="scale(0.001,-0.001)" />

<path d="M134,0V40L339,60V876L137,804v39l292,166h39V60L672,40V0Z" 
id="f2_l"
transform="scale(0.001,-0.001)" />

<path d="M67,0V109L206,235c0,0,133,118,196,190c0,0,63,72,90,149c0,0,27,77,27,177c0,0,0,97,-44,148c0,0,-44,50,-144,50c0,0,-39,0,-81,-10c0,0,-42,-11,-74,-29L150,787H101V980c0,0,135,32,230,32c0,0,164,0,247,-68c0,0,82,-69,82,-193c0,0,0,-84,-32,-158c0,0,-33,-75,-100,-148c0,0,-67,-74,-222,-206c0,0,-67,-57,-141,-125H680V0Z" 
id="f2_m"
transform="scale(0.001,-0.001)" />

<path d="M191,-20c0,0,-39,0,-65,25c0,0,-25,27,-25,64c0,0,0,38,26,64c0,0,26,26,64,26c0,0,38,0,64,-26c0,0,26,-26,26,-64c0,0,0,-37,-25,-64c0,0,-26,-25,-65,-25Z" 
id="f2_i"
transform="scale(0.001,-0.001)" />

<path d="M350,-14c0,0,-142,0,-269,31L73,228h49L156,87c0,0,29,-16,82,-28c0,0,54,-12,100,-12c0,0,117,0,173,54c0,0,56,53,56,178c0,0,0,99,-52,150c0,0,-51,51,-159,56l-107,6v61l107,7c0,0,84,5,124,52c0,0,41,48,41,145c0,0,0,101,-44,147c0,0,-44,45,-139,45c0,0,-40,0,-83,-10c0,0,-43,-11,-76,-29L153,786H104V979c0,0,74,19,127,26c0,0,54,6,107,6c0,0,321,0,321,-246c0,0,0,-104,-57,-165c0,0,-57,-62,-162,-77c0,0,136,-16,200,-78c0,0,64,-62,64,-173c0,0,0,-135,-92,-211c0,0,-93,-75,-262,-75Z" 
id="f2_n"
transform="scale(0.001,-0.001)" />

<path d="M278,-14c0,0,-52,0,-115,11c0,0,-63,10,-99,23V193H98L134,95c0,0,56,-50,146,-50c0,0,144,0,144,123c0,0,0,91,-114,130l-66,21c0,0,-75,25,-110,50c0,0,-34,26,-53,63c0,0,-18,36,-18,89c0,0,0,92,63,145c0,0,63,54,170,54c0,0,77,0,193,-23V544H454l-32,81c0,0,-39,35,-124,35c0,0,-61,0,-92,-30c0,0,-32,-30,-32,-80c0,0,0,-43,29,-72c0,0,28,-29,86,-48c0,0,110,-38,144,-55c0,0,33,-17,57,-42c0,0,23,-25,36,-57c0,0,13,-32,13,-79c0,0,0,-104,-66,-158c0,0,-66,-53,-195,-53Z" 
id="f2_2f"
transform="scale(0.001,-0.001)" />

<path d="M32,0V33L151,52V649L52,668v33H275V52L395,33V0ZM201,850c0,0,-32,0,-56,24c0,0,-24,24,-24,56c0,0,0,34,24,58c0,0,24,24,56,24c0,0,34,0,58,-24c0,0,24,-24,24,-58c0,0,0,-32,-24,-56c0,0,-24,-24,-58,-24Z" 
id="f2_25"
transform="scale(0.001,-0.001)" />

<path d="M439,0V33l93,19V500c0,0,0,62,-30,97c0,0,-31,36,-94,36c0,0,-67,0,-165,-22V52L338,33V0H35V33l84,19V649L35,668v33H235l7,-57c0,0,57,33,122,54c0,0,65,22,108,22c0,0,91,0,137,-53c0,0,47,-53,47,-154V52L741,33V0Z" 
id="f2_2a"
transform="scale(0.001,-0.001)" />

<path d="M460,-325c0,0,-148,79,-231,172c0,0,-84,93,-123,217c0,0,-39,126,-39,304c0,0,0,178,39,303c0,0,39,125,122,217c0,0,82,93,232,172V997c0,0,-91,-52,-145,-134c0,0,-54,-81,-79,-190c0,0,-25,-109,-25,-305c0,0,0,-194,26,-309c0,0,26,-114,82,-193c0,0,56,-79,141,-128v-63Z" 
id="f2_c"
transform="scale(0.001,-0.001)" />

<path d="M410,45c0,0,90,0,130,58c0,0,40,59,40,193c0,0,0,122,-38,177c0,0,-38,54,-122,54c0,0,-102,0,-217,-37c0,0,0,-227,51,-336c0,0,52,-109,156,-109Zm3,-59c0,0,-169,0,-258,131c0,0,-89,131,-89,377c0,0,0,161,47,278c0,0,47,117,131,178c0,0,85,61,196,61c0,0,109,0,217,-26V813H608L582,915c0,0,-25,13,-67,23c0,0,-41,10,-75,10c0,0,-109,0,-170,-105c0,0,-60,-106,-66,-308c0,0,121,63,244,63c0,0,132,0,201,-74c0,0,69,-74,69,-214c0,0,0,-156,-78,-240c0,0,-79,-84,-227,-84Z" 
id="f2_q"
transform="scale(0.001,-0.001)" />

<path d="M49,-325v63c0,0,85,49,140,128c0,0,56,79,83,194c0,0,26,115,26,308c0,0,0,196,-25,305c0,0,-25,109,-79,190c0,0,-54,82,-145,134v63c0,0,149,-80,232,-172c0,0,83,-92,122,-217c0,0,39,-125,39,-303c0,0,0,-177,-39,-303c0,0,-39,-125,-122,-217c0,0,-83,-93,-232,-173Z" 
id="f2_d"
transform="scale(0.001,-0.001)" />

<path d="M355,0V355H0v72H355V784h72V427H782V355H427V0Z" 
id="f3_f"
transform="scale(0.001,-0.001)" />

<path d="M0,356v74H784V356Z" 
id="f3_h"
transform="scale(0.001,-0.001)" />

<path d="M62,-123V268c0,0,0,230,56,452c0,0,47,190,134,334c0,0,87,144,204,242c0,0,85,73,194,119l18,-16c0,0,-211,-145,-335,-339c0,0,-98,-156,-149,-374c0,0,-50,-218,-50,-403V-123Z" 
id="f3_4o"
transform="scale(0.001,-0.001)" />

<path d="M617,-123V283c0,0,0,236,-63,459c0,0,-63,223,-188,392c0,0,-108,146,-282,265l17,16c0,0,180,-76,320,-248c0,0,139,-172,204,-417c0,0,64,-245,64,-482V-123Z" 
id="f3_54"
transform="scale(0.001,-0.001)" />

<path d="M62,-123V1415h72V-123Z" 
id="f3_4p"
transform="scale(0.001,-0.001)" />

<path d="M617,-123V1415h72V-123Z" 
id="f3_55"
transform="scale(0.001,-0.001)" />

<path d="M650,-123c0,0,-180,75,-319,246c0,0,-140,172,-205,418c0,0,-64,245,-64,481v393h72V1007c0,0,0,-236,63,-459c0,0,63,-223,189,-391c0,0,108,-145,282,-265l-18,-15Z" 
id="f3_4q"
transform="scale(0.001,-0.001)" />

<path d="M101,-123l-17,15c0,0,210,144,334,339c0,0,99,156,149,373c0,0,50,218,50,403v408h72V1022c0,0,0,-230,-56,-451c0,0,-48,-191,-134,-335C499,236,412,92,295,-5c0,0,-84,-73,-194,-118Z" 
id="f3_56"
transform="scale(0.001,-0.001)" />

<path d="M410,-14c0,0,-80,0,-162,14c0,0,-81,14,-144,38V270h48L178,134c0,0,28,-35,95,-62c0,0,68,-27,134,-27c0,0,104,0,163,53c0,0,58,54,58,148c0,0,0,54,-23,89c0,0,-22,35,-59,59c0,0,-37,24,-84,41c0,0,-47,17,-97,34c0,0,-49,17,-96,38c0,0,-47,21,-84,53c0,0,-37,32,-60,79c0,0,-23,48,-23,117c0,0,0,119,90,187c0,0,89,68,248,68c0,0,121,0,263,-32V771H654L628,893c0,0,-76,55,-188,55c0,0,-100,0,-156,-40c0,0,-56,-41,-56,-112c0,0,0,-49,22,-81c0,0,23,-32,60,-55c0,0,37,-22,84,-39c0,0,48,-16,97,-34c0,0,50,-17,97,-39c0,0,48,-22,85,-56c0,0,36,-34,59,-83c0,0,23,-49,23,-120c0,0,0,-145,-89,-224c0,0,-89,-79,-256,-79Z" 
id="f2_1j"
transform="scale(0.001,-0.001)" />

<path d="M377,45c0,0,99,0,147,73c0,0,47,73,47,237c0,0,0,161,-47,233c0,0,-47,72,-147,72c0,0,-97,0,-141,-69c0,0,-44,-69,-44,-236c0,0,0,-169,45,-240c0,0,44,-70,140,-70Zm0,-59c0,0,-158,0,-238,94c0,0,-81,95,-81,274c0,0,0,178,81,272c0,0,80,94,244,94c0,0,160,0,241,-92c0,0,82,-92,82,-274c0,0,0,-368,-329,-368Z" 
id="f2_2b"
transform="scale(0.001,-0.001)" />

<path d="M31,0V33L150,52v956L31,1026v34H274V52L394,33V0Z" 
id="f2_28"
transform="scale(0.001,-0.001)" />

<path d="M289,-14c0,0,-179,0,-179,205V649L20,668v33H233V200c0,0,0,-128,120,-128c0,0,92,0,173,23V649L420,668v33H649V52L738,33V0H533l-6,57C527,57,474,28,405,7c0,0,-69,-21,-116,-21Z" 
id="f2_2h"
transform="scale(0.001,-0.001)" />

<path d="M249,-14c0,0,-71,0,-107,42c0,0,-35,42,-35,119V639H15v33l93,29l76,159h47V701H391V639H231V161c0,0,0,-48,22,-73c0,0,22,-24,57,-24c0,0,44,0,106,12V26C416,26,389,8,340,-2c0,0,-49,-12,-91,-12Z" 
id="f2_2g"
transform="scale(0.001,-0.001)" />

<path d="M211,-20c0,0,-39,0,-64,25c0,0,-26,27,-26,64c0,0,0,38,26,64c0,0,26,26,64,26c0,0,37,0,64,-25c0,0,26,-26,26,-65c0,0,0,-37,-26,-64c0,0,-26,-25,-64,-25Zm0,556c0,0,-38,0,-64,26c0,0,-26,26,-26,64c0,0,0,37,26,64c0,0,25,27,64,27c0,0,38,0,64,-27c0,0,26,-27,26,-64c0,0,0,-38,-26,-64c0,0,-27,-26,-64,-26Z" 
id="f2_u"
transform="scale(0.001,-0.001)" />

<path d="M148,-329c0,0,-58,0,-114,13v151H69l24,-71c0,0,23,-17,64,-17c0,0,39,0,72,22c0,0,33,23,60,67c0,0,27,44,68,157L90,649L19,668v33H344V668L233,648L423,158L606,649L497,668v33H758V668L685,652L411,-43c0,0,-48,-124,-84,-177c0,0,-36,-54,-79,-82c0,0,-44,-27,-100,-27Z" 
id="f2_2l"
transform="scale(0.001,-0.001)" />

<path d="M284,67c0,0,51,0,88,12c0,0,37,12,74,30V358l-98,-3c0,0,-100,-4,-135,-39c0,0,-35,-35,-35,-117c0,0,0,-132,106,-132ZM233,-14c0,0,-179,0,-179,208c0,0,0,70,27,116c0,0,27,46,87,70c0,0,60,24,173,27l105,3V519c0,0,0,72,-26,107c0,0,-27,34,-82,34c0,0,-75,0,-137,-35L176,538H134V691c0,0,121,26,213,26c0,0,115,0,169,-47c0,0,54,-47,54,-144V52L657,33V0H465L451,70c0,0,-85,-84,-218,-84Z" 
id="f2_1x"
transform="scale(0.001,-0.001)" />

<path d="M0,-123V1415H525v-72H72V-123Z" 
id="f3_4r"
transform="scale(0.001,-0.001)" />

<path d="M478,-123V1343H26v72H550V-123Z" 
id="f3_57"
transform="scale(0.001,-0.001)" />

<path d="M0,214v74H784V214ZM0,494v72H784V494Z" 
id="f3_x"
transform="scale(0.001,-0.001)" />

<path d="M0,-123V1415H72V-123Z" 
id="f3_4s"
transform="scale(0.001,-0.001)" />

<path d="M0,-123V1415H72V-123Z" 
id="f3_58"
transform="scale(0.001,-0.001)" />

<path d="M0,-123V1415H72V-51H525v-72Z" 
id="f3_4t"
transform="scale(0.001,-0.001)" />

<path d="M26,-123v72H478V1415h72V-123Z" 
id="f3_59"
transform="scale(0.001,-0.001)" />

<path d="M383,64c0,0,85,0,152,28V645c0,0,-67,13,-152,13c0,0,-194,0,-194,-314c0,0,0,-141,48,-211c0,0,48,-69,146,-69ZM342,-14c0,0,-287,0,-287,358c0,0,0,184,82,280c0,0,81,96,239,96c0,0,81,0,163,-18c0,0,-4,25,-4,124v182l-118,18v34H659V52L745,33V0H548l-9,52c0,0,-84,-66,-197,-66Z" 
id="f2_20"
transform="scale(0.001,-0.001)" />

<path d="M359,-270c0,0,124,0,192,46c0,0,67,47,67,129c0,0,0,43,-26,67c0,0,-26,24,-79,24H242c0,0,-32,-27,-51,-69c0,0,-20,-41,-20,-77c0,0,0,-64,46,-92c0,0,46,-28,142,-28Zm11,561c0,0,81,0,115,47c0,0,34,47,34,141c0,0,0,100,-35,142c0,0,-35,42,-113,42c0,0,-78,0,-114,-43c0,0,-37,-42,-37,-141c0,0,0,-98,36,-143c0,0,36,-45,114,-45ZM359,-329c0,0,-143,0,-218,44c0,0,-75,43,-75,125c0,0,0,39,27,78c0,0,26,38,98,89c0,0,-43,14,-72,48c0,0,-29,35,-29,74L208,262c0,0,-118,55,-118,217c0,0,0,115,73,178c0,0,73,63,211,63c0,0,28,0,71,-6c0,0,44,-6,67,-13l165,83l26,-32L599,644c0,0,50,-56,50,-165c0,0,0,-120,-72,-182c0,0,-73,-62,-208,-62c0,0,-62,0,-114,11L208,148c0,0,2,-13,29,-24c0,0,27,-12,67,-12H512c0,0,113,0,168,-49c0,0,55,-49,55,-134c0,0,0,-79,-44,-137c0,0,-43,-58,-128,-90c0,0,-84,-31,-204,-31Z" 
id="f2_23"
transform="scale(0.001,-0.001)" />

<path d="M54,0V40L172,60V941L44,960v40H794V760H745L721,922c0,0,-83,11,-241,11H316V516H611l23,120h46V328H634L611,449H316V60L483,40V0Z" 
id="f2_16"
transform="scale(0.001,-0.001)" />

<path d="M442,0V33l93,19V504c0,0,0,129,-124,129c0,0,-70,0,-168,-22V52L338,33V0H31V33l88,19v956L15,1026v34H243V756c0,0,0,-77,-5,-112c0,0,54,31,122,53c0,0,68,23,115,23c0,0,91,0,137,-53c0,0,47,-53,47,-154V52L744,33V0Z" 
id="f2_24"
transform="scale(0.001,-0.001)" />

<path d="M495,413c0,0,0,133,-34,190c0,0,-34,57,-105,57c0,0,-78,0,-119,-63c0,0,-42,-62,-42,-184ZM374,-14c0,0,-163,0,-239,87c0,0,-75,88,-75,283c0,0,0,183,77,273c0,0,76,91,219,91c0,0,269,0,269,-306V353H194V340c0,0,0,-103,23,-160c0,0,22,-57,70,-87c0,0,47,-29,124,-29c0,0,40,0,96,6c0,0,55,7,91,15V43C598,43,562,20,500,3c0,0,-61,-17,-126,-17Z" 
id="f2_21"
transform="scale(0.001,-0.001)" />

<path d="M360,-14L72,649L0,668v33H327V668L216,648L420,164L615,649L504,668v33H764V668L697,652L416,-14Z" 
id="f2_2i"
transform="scale(0.001,-0.001)" />

<path d="M64,0V34L168,59V639H47v36l121,29v49c0,0,0,155,61,239c0,0,62,84,173,84c0,0,58,0,107,-15V908H472l-33,92c0,0,-26,16,-62,16c0,0,-47,0,-66,-42c0,0,-19,-42,-19,-157V701H478V639H292V59L443,34V0Z" 
id="f2_22"
transform="scale(0.001,-0.001)" />

<path d="M477,0V33l64,19L348,354L257,254V52L331,33V0H44V33l89,19v956L29,1026v34H257V338L544,647l-73,20v34H718V667L631,650L431,446L688,50L764,33V0Z" 
id="f2_27"
transform="scale(0.001,-0.001)" />

<path d="M58,-234v58c0,0,131,42,131,125c0,0,0,15,-11,27c0,0,-11,12,-38,25C140,1,89,27,89,75c0,0,0,40,25,61c0,0,26,21,65,21c0,0,48,0,77,-34c0,0,30,-34,30,-86c0,0,0,-101,-60,-170c0,0,-59,-69,-168,-101Z" 
id="f2_g"
transform="scale(0.001,-0.001)" />

<path d="M31,0V33l88,19V649L31,668v33H235l7,-87c0,0,44,37,121,71c0,0,76,35,121,35h11V530H463l-43,82c0,0,-37,0,-88,-10c0,0,-52,-10,-89,-26V52L363,33V0Z" 
id="f2_2e"
transform="scale(0.001,-0.001)" />

<path d="M327,-14L84,649L1,668v33H335V668L219,648L385,174L554,632h63L786,171L944,649L830,668v33h267V668l-78,-16L784,-14H726L553,448L382,-14Z" 
id="f2_2j"
transform="scale(0.001,-0.001)" />

<path d="M399,-14c0,0,-341,0,-341,370c0,0,0,175,87,269c0,0,87,95,249,95c0,0,101,0,220,-23V501H573L541,625c0,0,-62,35,-149,35c0,0,-200,0,-200,-304c0,0,0,-158,61,-225c0,0,61,-67,189,-67c0,0,109,0,189,24V43C631,43,595,16,530,1c0,0,-64,-15,-131,-15Z" 
id="f2_1z"
transform="scale(0.001,-0.001)" />

<path d="M377,45c0,0,99,0,145,108c0,0,46,109,46,352c0,0,0,240,-45,345c0,0,-46,106,-146,106c0,0,-97,0,-139,-100c0,0,-43,-99,-43,-351c0,0,0,-254,44,-357c0,0,43,-103,138,-103Zm0,-59c0,0,-158,0,-238,132c0,0,-81,133,-81,386c0,0,0,249,81,380c0,0,80,132,244,132c0,0,159,0,241,-130c0,0,82,-130,82,-382c0,0,0,-518,-329,-518Z" 
id="f2_k"
transform="scale(0.001,-0.001)" />

<path d="M0,-123V985c0,0,0,202,88,304c0,0,88,101,278,126v-33c0,0,-112,-27,-179,-86c0,0,-67,-59,-91,-136c0,0,-24,-76,-24,-252V-123Z" 
id="f3_4u"
transform="scale(0.001,-0.001)" />

<path d="M0,0V72H751V0ZM751,166L0,538v38L751,949V868L123,559L751,247V166Z" 
id="f3_2t"
transform="scale(0.001,-0.001)" />

<path d="M751,0L0,371v39L751,783V702L122,392L751,80V0Z" 
id="f3_w"
transform="scale(0.001,-0.001)" />

<path d="M0,-123V1415H73V-123Z" 
id="f3_4x"
transform="scale(0.001,-0.001)" />

<path d="M293,-123V191c0,0,0,200,-67,292c0,0,-67,92,-226,135v57c0,0,159,44,226,135c0,0,67,92,67,292v313h73V1088c0,0,0,-108,-23,-189c0,0,-22,-80,-61,-127c0,0,-39,-46,-95,-75c0,0,-56,-28,-153,-51c0,0,97,-21,157,-52c0,0,61,-31,99,-82c0,0,39,-51,57,-125c0,0,19,-74,19,-180V-123Z" 
id="f3_4v"
transform="scale(0.001,-0.001)" />

<path d="M679,-123c0,0,-190,24,-278,124c0,0,-88,101,-88,305V1415h72V383c0,0,0,-111,12,-191c0,0,11,-79,46,-133c0,0,35,-53,94,-91c0,0,59,-39,142,-58v-33Z" 
id="f3_4w"
transform="scale(0.001,-0.001)" />

<path d="M490,63c0,0,93,0,170,73c0,0,77,74,126,213c0,0,50,138,50,280c0,0,0,141,-57,223c0,0,-57,81,-158,81c0,0,-91,0,-168,-75c0,0,-76,-74,-125,-215c0,0,-48,-142,-48,-281c0,0,0,-140,55,-220c0,0,55,-79,155,-79ZM477,-14c0,0,-124,0,-220,50c0,0,-96,51,-149,144c0,0,-53,93,-53,211c0,0,0,180,73,323c0,0,73,143,206,220c0,0,132,77,305,77c0,0,123,0,219,-51c0,0,96,-51,149,-144c0,0,53,-93,53,-210c0,0,0,-179,-75,-326C985,280,910,134,780,60c0,0,-130,-74,-303,-74Z" 
id="f4_1f"
transform="scale(0.001,-0.001)" />

<path d="M467,506c0,0,122,0,192,60c0,0,69,61,69,170c0,0,0,97,-45,140c0,0,-45,42,-132,42H499L426,506ZM653,0L498,423H412L350,74L474,54L465,0H-1L7,54L129,74L279,926L154,945l10,55H563c0,0,196,0,290,-62c0,0,94,-62,94,-190c0,0,0,-116,-63,-194c0,0,-63,-78,-183,-110L851,74L961,54L952,0Z" 
id="f4_1i"
transform="scale(0.001,-0.001)" />

<path d="M55,0V40L184,60V941L55,960v40H455V960L327,941V60L455,40V0Z" 
id="f2_19"
transform="scale(0.001,-0.001)" />

<path d="M76,316v76H787V316Zm0,306v76H787V622Z" 
id="f2_x"
transform="scale(0.001,-0.001)" />

<path d="M366,23c0,0,166,0,168,476H198c0,0,0,-244,45,-360c0,0,46,-116,123,-116ZM534,545c0,0,0,471,-166,471c0,0,-170,0,-170,-471ZM364,-20c0,0,-121,0,-212,142c0,0,-91,143,-91,387c0,0,0,246,90,398c0,0,91,152,222,152c0,0,127,0,213,-147c0,0,87,-148,87,-384c0,0,0,-255,-94,-402c0,0,-93,-146,-215,-146Z" 
id="f5_ey"
transform="scale(0.001,-0.001)" />

<path d="M286,72c0,0,57,0,149,75V407c0,0,-113,-45,-145,-64c0,0,-59,-32,-85,-68c0,0,-25,-36,-25,-78c0,0,0,-54,32,-89c0,0,32,-36,74,-36ZM217,-13c0,0,-71,0,-116,48c0,0,-46,48,-46,127c0,0,0,50,22,87c0,0,31,50,106,95c0,0,76,45,252,109v26c0,0,0,102,-32,140c0,0,-32,38,-94,38c0,0,-47,0,-74,-25c0,0,-28,-25,-28,-58l1,-43c0,0,0,-34,-17,-53c0,0,-18,-18,-47,-18c0,0,-28,0,-45,19c0,0,-18,19,-18,53c0,0,0,64,66,117c0,0,65,54,184,54c0,0,91,0,149,-31c0,0,44,-23,65,-72c0,0,13,-32,13,-131V238c0,0,0,-98,4,-120c0,0,4,-22,12,-29c0,0,9,-8,20,-8c0,0,12,0,21,5c0,0,16,10,61,55V99C676,99,592,-12,516,-12c0,0,-37,0,-58,24c0,0,-22,26,-23,86C435,98,330,17,303,5c0,0,-40,-18,-86,-18Z" 
id="f5_1x"
transform="scale(0.001,-0.001)" />

<path d="M21,0V26H35c0,0,53,0,71,27c0,0,18,27,18,101V408c0,0,0,123,-5,150c0,0,-6,27,-17,37c0,0,-12,10,-31,10c0,0,-21,0,-50,-11L10,620l206,83h32V558c0,0,120,145,229,145c0,0,56,0,96,-28c0,0,40,-28,64,-92c0,0,16,-45,16,-137V154c0,0,0,-65,11,-88c0,0,8,-19,26,-29c0,0,18,-11,68,-11V0H419V26h14c0,0,47,0,66,15c0,0,20,15,27,43c0,0,3,11,3,70V434c0,0,0,93,-24,135c0,0,-24,42,-81,42c0,0,-88,0,-176,-97V154c0,0,0,-69,9,-86c0,0,10,-21,28,-31c0,0,19,-11,75,-11V0Z" 
id="f5_2a"
transform="scale(0.001,-0.001)" />

<path d="M399,62c0,0,68,0,131,68V481c0,0,-5,51,-27,93c0,0,-22,42,-59,63c0,0,-37,21,-72,21c0,0,-65,0,-117,-59c0,0,-67,-77,-67,-226c0,0,0,-151,65,-231c0,0,66,-80,146,-80ZM330,-20c0,0,-112,0,-196,93c0,0,-83,94,-83,240c0,0,0,147,92,269c0,0,93,122,238,122c0,0,90,0,149,-58V773c0,0,0,117,-6,144c0,0,-5,27,-17,37c0,0,-12,9,-30,9c0,0,-20,0,-52,-12l-9,27l204,83h33V270c0,0,0,-120,6,-146c0,0,5,-27,18,-37c0,0,12,-11,28,-11c0,0,21,0,54,13l9,-26L564,-20H530V78C530,78,480,25,432,2c0,0,-47,-22,-102,-22Z" 
id="f5_20"
transform="scale(0.001,-0.001)" />

<path d="M145,-328c0,0,-44,0,-73,25c0,0,-28,25,-28,58c0,0,0,31,21,50c0,0,20,19,56,19c0,0,25,0,67,-16c0,0,30,-11,38,-11c0,0,22,0,49,23c0,0,26,23,53,89L376,28L131,542c0,0,-11,24,-36,58c0,0,-19,27,-30,36c0,0,-18,12,-56,21v26H328V657H312c0,0,-33,0,-50,-15c0,0,-17,-14,-17,-36c0,0,0,-30,25,-81L437,179L589,557c0,0,12,31,12,62c0,0,0,13,-5,20c0,0,-6,8,-19,13c0,0,-12,5,-44,5v26H754V657c0,0,-27,-3,-42,-12c0,0,-15,-9,-33,-34c0,0,-7,-10,-25,-58L376,-128c0,0,-40,-99,-105,-150c0,0,-66,-50,-126,-50Z" 
id="f5_2l"
transform="scale(0.001,-0.001)" />

<path d="M27,354v62H831V354Zm0,243v62H831V597Z" 
id="f5_x"
transform="scale(0.001,-0.001)" />

<path d="M312,-20c0,0,-62,0,-143,22c0,0,-25,8,-40,8c0,0,-18,0,-27,-19H77V234h25c0,0,21,-105,80,-158c0,0,59,-53,132,-53c0,0,51,0,84,31c0,0,32,30,32,72c0,0,0,52,-36,87c0,0,-36,35,-144,88c0,0,-109,54,-142,97c0,0,-34,43,-34,107c0,0,0,85,58,141c0,0,58,57,150,57c0,0,40,0,97,-17c0,0,38,-11,51,-11c0,0,12,0,19,5c0,0,7,5,15,23h25V470H464c0,0,-28,110,-72,149c0,0,-45,40,-113,40c0,0,-53,0,-85,-28c0,0,-32,-27,-32,-61c0,0,0,-41,24,-71c0,0,23,-31,94,-65L389,381c0,0,152,-74,152,-194c0,0,0,-94,-71,-151c0,0,-70,-56,-158,-56Z" 
id="f5_2f"
transform="scale(0.001,-0.001)" />

<path d="M55,0V26c0,0,50,0,67,10c0,0,17,10,27,32c0,0,10,23,10,86V418c0,0,0,111,-6,144c0,0,-6,24,-17,33c0,0,-11,10,-30,10c0,0,-21,0,-51,-11L45,620l206,83h33V154c0,0,0,-64,9,-85c0,0,9,-22,27,-32c0,0,19,-11,67,-11V0ZM222,909c0,0,-32,0,-54,23c0,0,-22,22,-22,53c0,0,0,32,22,54c0,0,22,22,54,22c0,0,31,0,53,-22c0,0,22,-22,22,-54c0,0,0,-31,-22,-53c0,0,-22,-23,-53,-23Z" 
id="f5_25"
transform="scale(0.001,-0.001)" />

<path d="M82,-253v33c0,0,77,25,119,78c0,0,42,54,42,114c0,0,0,14,-7,23c0,0,-5,6,-11,6c0,0,-8,0,-35,-14c0,0,-14,-7,-28,-7c0,0,-37,0,-58,21C104,1,82,23,82,61c0,0,0,36,28,62c0,0,28,27,68,27c0,0,49,0,88,-43c0,0,38,-43,38,-113c0,0,0,-77,-53,-143c0,0,-53,-66,-169,-104Z" 
id="f5_g"
transform="scale(0.001,-0.001)" />

<path d="M255,-10c0,0,-35,0,-68,18c0,0,-32,19,-48,55c0,0,-16,35,-16,109V632H15v24c0,0,41,16,84,56c0,0,43,39,77,92c0,0,17,29,48,104h23V683H407V632H247V188c0,0,0,-66,19,-90c0,0,19,-23,49,-23c0,0,24,0,47,16c0,0,23,15,36,45h29c0,0,-26,-73,-74,-110c0,0,-47,-36,-98,-36Z" 
id="f5_2g"
transform="scale(0.001,-0.001)" />

<path d="M20,0V26c0,0,45,0,71,15c0,0,15,7,24,28c0,0,9,21,9,85V773c0,0,0,117,-5,144c0,0,-6,27,-17,37c0,0,-12,9,-31,9c0,0,-16,0,-51,-12L10,978l204,83h34V561c0,0,83,91,131,116c0,0,49,26,97,26c0,0,58,0,100,-32c0,0,42,-32,62,-101c0,0,14,-47,14,-174V154c0,0,0,-65,11,-89c0,0,7,-18,25,-28c0,0,18,-11,66,-11V0H418V26h15c0,0,48,0,67,15c0,0,18,15,26,43c0,0,2,12,2,70V396c0,0,0,112,-12,147c0,0,-11,35,-36,53c0,0,-26,17,-61,17c0,0,-37,0,-76,-19c0,0,-40,-20,-95,-79V154c0,0,0,-70,8,-87c0,0,8,-17,29,-29c0,0,22,-12,74,-12V0Z" 
id="f5_24"
transform="scale(0.001,-0.001)" />

<path d="M479,469c0,0,-4,66,-16,93c0,0,-18,42,-55,65c0,0,-37,24,-78,24c0,0,-62,0,-111,-48c0,0,-48,-48,-57,-134ZM355,-20c0,0,-123,0,-211,95c0,0,-87,96,-87,258c0,0,0,175,90,273c0,0,89,98,225,98c0,0,115,0,189,-76c0,0,74,-75,74,-202H162c0,0,0,-152,74,-239c0,0,75,-86,175,-86c0,0,67,0,117,36c0,0,50,37,83,127l24,-15c0,0,-16,-102,-91,-186c0,0,-76,-83,-189,-83Z" 
id="f5_21"
transform="scale(0.001,-0.001)" />

<path d="M63,0V26H93c0,0,30,0,54,15c0,0,25,15,34,41c0,0,10,25,10,99V630H58v53H191v45c0,0,0,102,33,173c0,0,32,71,100,114c0,0,68,44,152,44c0,0,79,0,145,-51c0,0,43,-33,43,-75c0,0,0,-22,-19,-42c0,0,-20,-20,-42,-20c0,0,-17,0,-36,12c0,0,-19,13,-47,53c0,0,-28,41,-51,55c0,0,-23,14,-51,14c0,0,-35,0,-58,-18c0,0,-24,-18,-35,-57c0,0,-10,-38,-10,-197V683H491V630H315V181c0,0,0,-96,21,-122c0,0,27,-33,73,-33h62V0Z" 
id="f5_22"
transform="scale(0.001,-0.001)" />

<path d="M376,-20L133,556c0,0,-17,41,-31,58c0,0,-15,18,-39,30c0,0,-12,7,-50,13v26H335V657H314c0,0,-29,0,-44,-14c0,0,-16,-14,-15,-38c0,0,-1,-26,15,-62L429,165L588,557c0,0,17,42,17,64c0,0,0,10,-6,17c0,0,-8,11,-21,15c0,0,-13,4,-52,4v26H750V657c0,0,-39,-3,-54,-16c0,0,-26,-23,-47,-76L409,-20Z" 
id="f5_2i"
transform="scale(0.001,-0.001)" />

<path d="M58,0V26c0,0,47,0,64,10c0,0,18,10,28,32c0,0,9,23,9,86V775c0,0,0,116,-5,142c0,0,-5,27,-17,37c0,0,-11,9,-29,9c0,0,-20,0,-49,-12L46,978l204,83h34V154c0,0,0,-64,9,-85c0,0,9,-21,29,-32c0,0,19,-11,72,-11V0Z" 
id="f5_28"
transform="scale(0.001,-0.001)" />

<path d="M292,-20c0,0,-57,0,-100,33c0,0,-42,33,-58,85c0,0,-17,52,-17,148V551c0,0,0,49,-10,68c0,0,-11,18,-31,29c0,0,-19,9,-68,9c-2,0,-4,0,-6,0v26H242V226c0,0,0,-95,33,-125c0,0,33,-30,80,-30c0,0,32,0,73,21c0,0,40,20,96,76V555c0,0,0,59,-21,80c0,0,-22,21,-89,22v26H647V269c0,0,0,-119,6,-145c0,0,6,-27,18,-37c0,0,12,-11,29,-11c0,0,23,0,52,13L763,63L558,-20H524V124C524,124,436,29,390,4c0,0,-47,-24,-98,-24Z" 
id="f5_2h"
transform="scale(0.001,-0.001)" />

<path d="M406,32c0,0,72,0,119,60c0,0,47,59,47,205c0,0,0,181,-78,286c0,0,-53,71,-135,71c0,0,-40,0,-79,-23c0,0,-40,-24,-65,-83c0,0,-24,-58,-24,-151c0,0,0,-149,59,-257c0,0,59,-108,156,-108ZM374,-20c0,0,-154,0,-245,122c0,0,-77,104,-77,233c0,0,0,94,46,187c0,0,47,92,123,137c0,0,76,44,161,44c0,0,155,0,249,-118c0,0,80,-100,80,-231c0,0,0,-91,-44,-185C667,169,623,75,546,27c0,0,-77,-47,-172,-47Z" 
id="f5_2b"
transform="scale(0.001,-0.001)" />

<path d="M140,-21c0,0,-26,0,-44,17C96,-4,79,13,79,40c0,0,0,19,6,33c0,0,8,20,34,55c0,0,46,60,64,126c0,0,32,114,41,321H190c0,0,-55,0,-81,-18c0,0,-44,-26,-80,-89H0c0,0,42,129,98,178c0,0,43,37,120,37H743V575H562c0,0,-27,-171,-27,-327c0,0,0,-77,27,-110c0,0,27,-33,67,-33c0,0,33,0,56,22c0,0,24,22,31,65h27C743,192,730,74,686,26c0,0,-44,-47,-98,-47c0,0,-58,0,-97,51c0,0,-39,53,-39,198c0,0,0,91,28,347H286c0,0,-23,-390,-56,-494c0,0,-33,-102,-90,-102Z" 
id="f3_2c"
transform="scale(0.001,-0.001)" />

<path d="M338,28c0,0,48,0,91,45c0,0,43,45,65,144c0,0,22,99,26,276H143c0,0,3,-133,20,-239c0,0,13,-80,44,-140c0,0,19,-36,54,-61c0,0,36,-25,77,-25ZM522,543c0,0,-1,194,-37,312c0,0,-29,90,-76,129c0,0,-34,28,-79,28c0,0,-51,0,-93,-39c0,0,-43,-40,-65,-132c0,0,-22,-93,-29,-298ZM329,-21c0,0,-68,0,-124,31c0,0,-56,33,-99,95c0,0,-43,62,-66,131C40,236,0,356,0,489c0,0,0,294,119,453c0,0,91,119,217,119c0,0,122,0,209,-115c0,0,121,-160,121,-436c0,0,0,-263,-119,-415C547,95,455,-21,329,-21Z" 
id="f3_2d"
transform="scale(0.001,-0.001)" />


</defs>
</svg>