<?xml version="1.0" encoding="UTF-8" standalone="no"?>
<!DOCTYPE svg PUBLIC "-//W3C//DTD SVG 1.1//EN"
"http://www.w3.org/Graphics/SVG/1.1/DTD/svg11.dtd">
<svg viewBox="0 0 909 1286" version="1.1" xmlns="http://www.w3.org/2000/svg" xmlns:xlink="http://www.w3.org/1999/xlink">
<defs>
<clipPath id="c0_152"><path d="M55.2,234.1V126.4h316V234.1Z" /></clipPath>
<clipPath id="c1_152"><path d="M55.2,354.8V236.5H349.7V354.8Z" /></clipPath>
<clipPath id="c2_152"><path d="M55.2,583.2V380.8H471.3V583.2Z" /></clipPath>
<clipPath id="c3_152"><path d="M55.2,752.6V585.9H308.8V752.6Z" /></clipPath>
<clipPath id="c4_152"><path d="M55.2,905.1V755.6H505V905.1Z" /></clipPath>
<clipPath id="c5_152"><path d="M55.2,1008.5V955.7H162.8v52.8Z" /></clipPath>
<style type="text/css"><![CDATA[
.g0_152{
fill: #D9D9D9;
}
.g1_152{
fill: none;
stroke: #000000;
stroke-width: 0.7638889;
stroke-linecap: butt;
stroke-linejoin: miter;
}
.g2_152{
fill: none;
stroke: #000000;
stroke-width: 0.9103587;
stroke-linecap: butt;
stroke-linejoin: round;
}
.g3_152{
fill: none;
stroke: #000000;
stroke-width: 0.90966606;
stroke-linecap: butt;
stroke-linejoin: round;
}
.g4_152{
fill: none;
stroke: #000000;
stroke-width: 0.21263061;
stroke-linecap: square;
stroke-linejoin: round;
}
.g5_152{
}
.g6_152{
fill: none;
stroke: #000000;
stroke-width: 0.9100439;
stroke-linecap: butt;
stroke-linejoin: round;
}
.g7_152{
fill: none;
stroke: #000000;
stroke-width: 0.90994245;
stroke-linecap: butt;
stroke-linejoin: round;
}
.g8_152{
fill: none;
stroke: #000000;
stroke-width: 0.2126069;
stroke-linecap: square;
stroke-linejoin: round;
}
.g9_152{
fill: none;
stroke: #000000;
stroke-width: 0.2134866;
stroke-linecap: square;
stroke-linejoin: round;
}
.g10_152{
fill: none;
stroke: #000000;
stroke-width: 0.91370755;
stroke-linecap: butt;
stroke-linejoin: round;
}
.g11_152{
fill: none;
stroke: #000000;
stroke-width: 0.90856177;
stroke-linecap: butt;
stroke-linejoin: round;
}
]]></style>
</defs>
<image preserveAspectRatio="none" x="747" y="1196" width="96" height="59" xlink:href="img/1.png" />
<image preserveAspectRatio="none" x="336" y="41" width="259" height="51" xlink:href="img/2.png" />
<image preserveAspectRatio="none" x="342" y="50" width="247" height="27" xlink:href="img/3.png" />
<image preserveAspectRatio="none" x="341" y="45" width="239" height="42" xlink:href="img/4.png" />
<g fill="#FFFFFF" >
<use xlink:href="#f0_j" transform="matrix(11.5,0,0,11.5,355.1,70.1)" />
<use xlink:href="#f0_i" transform="matrix(11.5,0,0,11.5,364.3,70.1)" />
<use xlink:href="#f0_2n" transform="matrix(11.5,0,0,11.5,374.1,70.1)" />
<use xlink:href="#f0_t" transform="matrix(11.5,0,0,11.5,382.6,70.1)" />
<use xlink:href="#f0_oj" transform="matrix(11.5,0,0,11.5,391,70.1)" />
<use xlink:href="#f0_3e" transform="matrix(11.5,0,0,11.5,396.5,70.1)" />
<use xlink:href="#f0_1c" transform="matrix(11.5,0,0,11.5,406.1,70.1)" />
<use xlink:href="#f0_1c" transform="matrix(11.5,0,0,11.5,410.8,70.1)" />
<use xlink:href="#f0_oj" transform="matrix(11.5,0,0,11.5,415.6,70.1)" />
<use xlink:href="#f0_rz" transform="matrix(11.5,0,0,11.5,421.1,70.1)" />
<use xlink:href="#f0_rx" transform="matrix(11.5,0,0,11.5,429.9,70.1)" />
<use xlink:href="#f0_ry" transform="matrix(11.5,0,0,11.5,438.7,70.1)" />
<use xlink:href="#f0_s7" transform="matrix(11.5,0,0,11.5,447.5,70.1)" />
<use xlink:href="#f0_t" transform="matrix(11.5,0,0,11.5,460.4,70.1)" />
<use xlink:href="#f0_3e" transform="matrix(11.5,0,0,11.5,468.8,70.1)" />
<use xlink:href="#f0_5" transform="matrix(11.5,0,0,11.5,478.3,70.1)" />
<use xlink:href="#f0_1x" transform="matrix(11.5,0,0,11.5,489,70.1)" />
<use xlink:href="#f0_1c" transform="matrix(11.5,0,0,11.5,504.4,70.1)" />
<use xlink:href="#f0_1y" transform="matrix(11.5,0,0,11.5,509.1,70.1)" />
<use xlink:href="#f0_5" transform="matrix(11.5,0,0,11.5,520.8,70.1)" />
<use xlink:href="#f0_2t" transform="matrix(11.5,0,0,11.5,531.5,70.1)" />
<use xlink:href="#f0_1c" transform="matrix(11.5,0,0,11.5,540.2,70.1)" />
<use xlink:href="#f0_24" transform="matrix(11.5,0,0,11.5,545,70.1)" />
<use xlink:href="#f0_1y" transform="matrix(11.5,0,0,11.5,556.7,70.1)" />
</g>
<image preserveAspectRatio="none" x="554" y="45" width="36" height="42" xlink:href="img/5.png" />
<g fill="#FFFFFF" >
<use xlink:href="#f1_t" transform="matrix(11,0,0,11,770.3,1227.6)" />
<use xlink:href="#f1_j" transform="matrix(11,0,0,11,783.5,1227.6)" />
<use xlink:href="#f1_l" transform="matrix(11,0,0,11,794.1,1227.6)" />
<use xlink:href="#f1_t" transform="matrix(11,0,0,11,802.9,1227.6)" />
</g>
<path fill-rule="evenodd" d="M52.8,1193.5H856.9v-.8H52.8v.8Z" class="g0_152" />
<path d="M37.9,99.4L873,98.5" class="g1_152" />
<path d="M100.6,151.3h112M141.7,207H343" class="g2_152" />
<g clip-path="url(#c0_152)">
<g fill="#000000" >
<use xlink:href="#f2_m" transform="matrix(7,0,0,7,184.9,191.7)" />
<use xlink:href="#f2_m" transform="matrix(7,0,0,7,292.5,191.7)" />
<use xlink:href="#f2_1z" transform="matrix(12.1,0,0,12.1,101.4,144.2)" />
<use xlink:href="#f2_2b" transform="matrix(12.1,0,0,12.1,109.4,144.2)" />
<use xlink:href="#f2_2f" transform="matrix(12.1,0,0,12.1,118.6,144.2)" />
<use xlink:href="#f2_m" transform="matrix(12.1,0,0,12.1,127.9,144.2)" />
<use xlink:href="#f2_2k" transform="matrix(12.1,0,0,12.1,137.6,144.2)" />
<use xlink:href="#f2_1z" transform="matrix(12.1,0,0,12.1,164.4,144.2)" />
<use xlink:href="#f2_2b" transform="matrix(12.1,0,0,12.1,172.4,144.2)" />
<use xlink:href="#f2_2f" transform="matrix(12.1,0,0,12.1,181.6,144.2)" />
<use xlink:href="#f2_m" transform="matrix(12.1,0,0,12.1,190.9,144.2)" />
<use xlink:href="#f2_20" transform="matrix(12.1,0,0,12.1,217.4,155.9)" />
<use xlink:href="#f2_2k" transform="matrix(12.1,0,0,12.1,226.5,155.9)" />
<use xlink:href="#f2_1z" transform="matrix(12.1,0,0,12.1,109.7,170.3)" />
<use xlink:href="#f2_2b" transform="matrix(12.1,0,0,12.1,117.7,170.3)" />
<use xlink:href="#f2_2f" transform="matrix(12.1,0,0,12.1,126.8,170.3)" />
<use xlink:href="#f2_2k" transform="matrix(12.1,0,0,12.1,138.7,170.3)" />
<use xlink:href="#f2_1z" transform="matrix(12.1,0,0,12.1,165.6,170.3)" />
<use xlink:href="#f2_2b" transform="matrix(12.1,0,0,12.1,173.6,170.3)" />
<use xlink:href="#f2_2f" transform="matrix(12.1,0,0,12.1,182.7,170.3)" />
<use xlink:href="#f2_c" transform="matrix(12.1,0,0,12.1,142.5,199.9)" />
<use xlink:href="#f2_m" transform="matrix(12.1,0,0,12.1,149.1,199.9)" />
<use xlink:href="#f2_1z" transform="matrix(12.1,0,0,12.1,159.8,199.9)" />
<use xlink:href="#f2_2b" transform="matrix(12.1,0,0,12.1,167.8,199.9)" />
<use xlink:href="#f2_2f" transform="matrix(12.1,0,0,12.1,177,199.9)" />
<use xlink:href="#f2_2k" transform="matrix(12.1,0,0,12.1,194.1,199.9)" />
<use xlink:href="#f2_l" transform="matrix(12.1,0,0,12.1,219.3,199.9)" />
<use xlink:href="#f2_d" transform="matrix(12.1,0,0,12.1,227,199.9)" />
<use xlink:href="#f2_c" transform="matrix(12.1,0,0,12.1,250.1,199.9)" />
<use xlink:href="#f2_m" transform="matrix(12.1,0,0,12.1,256.6,199.9)" />
<use xlink:href="#f2_1z" transform="matrix(12.1,0,0,12.1,267.4,199.9)" />
<use xlink:href="#f2_2b" transform="matrix(12.1,0,0,12.1,275.4,199.9)" />
<use xlink:href="#f2_2f" transform="matrix(12.1,0,0,12.1,284.5,199.9)" />
<use xlink:href="#f2_l" transform="matrix(12.1,0,0,12.1,328.3,199.9)" />
<use xlink:href="#f2_d" transform="matrix(12.1,0,0,12.1,336,199.9)" />
<use xlink:href="#f2_20" transform="matrix(12.1,0,0,12.1,347.8,211.6)" />
<use xlink:href="#f2_2k" transform="matrix(12.1,0,0,12.1,356.9,211.6)" />
<use xlink:href="#f2_1z" transform="matrix(12.1,0,0,12.1,195.5,226)" />
<use xlink:href="#f2_2b" transform="matrix(12.1,0,0,12.1,203.5,226)" />
<use xlink:href="#f2_2f" transform="matrix(12.1,0,0,12.1,212.6,226)" />
<use xlink:href="#f2_2k" transform="matrix(12.1,0,0,12.1,224.5,226)" />
<use xlink:href="#f2_1z" transform="matrix(12.1,0,0,12.1,251.3,226)" />
<use xlink:href="#f2_2b" transform="matrix(12.1,0,0,12.1,259.3,226)" />
<use xlink:href="#f2_2f" transform="matrix(12.1,0,0,12.1,268.5,226)" />
<use xlink:href="#f3_h" transform="matrix(12.1,0,0,12.1,151,144.2)" />
<use xlink:href="#f3_1x" transform="matrix(12.1,0,0,12.1,200.1,144.2)" />
<use xlink:href="#f3_h" transform="matrix(12.1,0,0,12.1,152.2,170.3)" />
<use xlink:href="#f3_1x" transform="matrix(12.1,0,0,12.1,191.8,170.3)" />
<use xlink:href="#f3_h" transform="matrix(12.1,0,0,12.1,207.6,199.9)" />
<use xlink:href="#f3_h" transform="matrix(12.1,0,0,12.1,236.8,199.9)" />
<use xlink:href="#f3_1x" transform="matrix(12.1,0,0,12.1,301.3,199.9)" />
<use xlink:href="#f3_h" transform="matrix(12.1,0,0,12.1,316.7,199.9)" />
<use xlink:href="#f3_x" transform="matrix(12.1,0,0,12.1,116.6,211.6)" />
<use xlink:href="#f3_h" transform="matrix(12.1,0,0,12.1,237.9,226)" />
<use xlink:href="#f3_1x" transform="matrix(12.1,0,0,12.1,277.5,226)" />
<use xlink:href="#f3_50" transform="matrix(18.2,0,0,18.2,90.2,162.4)" />
<use xlink:href="#f3_50" transform="matrix(18.2,0,0,18.2,131.4,218.1)" />
</g>
</g>
<path d="M140.3,264.2H323" class="g3_152" />
<g clip-path="url(#c1_152)">
<g fill="#000000" >
<use xlink:href="#f2_m" transform="matrix(7,0,0,7,181.9,249)" />
<use xlink:href="#f2_m" transform="matrix(7,0,0,7,272.8,249)" />
<use xlink:href="#f2_m" transform="matrix(12.2,0,0,12.1,141.5,257.2)" />
<use xlink:href="#f2_c" transform="matrix(12.2,0,0,12.1,150.7,257.2)" />
<use xlink:href="#f2_1z" transform="matrix(12.2,0,0,12.1,156.7,257.2)" />
<use xlink:href="#f2_2b" transform="matrix(12.2,0,0,12.1,164.8,257.2)" />
<use xlink:href="#f2_2f" transform="matrix(12.2,0,0,12.1,174,257.2)" />
<use xlink:href="#f2_2k" transform="matrix(12.2,0,0,12.1,191.8,257.2)" />
<use xlink:href="#f2_l" transform="matrix(12.2,0,0,12.1,216,257.2)" />
<use xlink:href="#f2_d" transform="matrix(12.2,0,0,12.1,223.7,257.2)" />
<use xlink:href="#f2_c" transform="matrix(12.2,0,0,12.1,229.7,257.2)" />
<use xlink:href="#f2_m" transform="matrix(12.2,0,0,12.1,236.3,257.2)" />
<use xlink:href="#f2_1z" transform="matrix(12.2,0,0,12.1,247.5,257.2)" />
<use xlink:href="#f2_2b" transform="matrix(12.2,0,0,12.1,255.6,257.2)" />
<use xlink:href="#f2_2f" transform="matrix(12.2,0,0,12.1,264.8,257.2)" />
<use xlink:href="#f2_l" transform="matrix(12.2,0,0,12.1,308.2,257.2)" />
<use xlink:href="#f2_d" transform="matrix(12.2,0,0,12.1,316,257.2)" />
<use xlink:href="#f2_20" transform="matrix(12.2,0,0,12.1,327.6,268.7)" />
<use xlink:href="#f2_2k" transform="matrix(12.2,0,0,12.1,336.8,268.7)" />
<use xlink:href="#f2_1z" transform="matrix(12.2,0,0,12.1,184.9,283)" />
<use xlink:href="#f2_2b" transform="matrix(12.2,0,0,12.1,193,283)" />
<use xlink:href="#f2_2f" transform="matrix(12.2,0,0,12.1,202.2,283)" />
<use xlink:href="#f2_2k" transform="matrix(12.2,0,0,12.1,214,283)" />
<use xlink:href="#f2_1z" transform="matrix(12.2,0,0,12.1,239.8,283)" />
<use xlink:href="#f2_2b" transform="matrix(12.2,0,0,12.1,247.9,283)" />
<use xlink:href="#f2_2f" transform="matrix(12.2,0,0,12.1,257.1,283)" />
<use xlink:href="#f2_m" transform="matrix(12.2,0,0,12.1,129.2,314.6)" />
<use xlink:href="#f2_c" transform="matrix(12.2,0,0,12.1,149.2,314.6)" />
<use xlink:href="#f2_1z" transform="matrix(12.2,0,0,12.1,155.2,314.6)" />
<use xlink:href="#f2_2b" transform="matrix(12.2,0,0,12.1,163.3,314.6)" />
<use xlink:href="#f2_2f" transform="matrix(12.2,0,0,12.1,172.5,314.6)" />
<use xlink:href="#f2_2k" transform="matrix(12.2,0,0,12.1,184.3,314.6)" />
<use xlink:href="#f2_1z" transform="matrix(12.2,0,0,12.1,210.4,314.6)" />
<use xlink:href="#f2_2b" transform="matrix(12.2,0,0,12.1,218.4,314.6)" />
<use xlink:href="#f2_2f" transform="matrix(12.2,0,0,12.1,227.6,314.6)" />
<use xlink:href="#f2_d" transform="matrix(12.2,0,0,12.1,250.9,314.6)" />
<use xlink:href="#f2_20" transform="matrix(12.2,0,0,12.1,257.2,314.6)" />
<use xlink:href="#f2_2k" transform="matrix(12.2,0,0,12.1,266.4,314.6)" />
<use xlink:href="#f2_m" transform="matrix(12.2,0,0,12.1,129.2,346.9)" />
<use xlink:href="#f2_c" transform="matrix(12.2,0,0,12.1,138.5,346.9)" />
<use xlink:href="#f2_2f" transform="matrix(12.2,0,0,12.1,144.5,346.9)" />
<use xlink:href="#f2_25" transform="matrix(12.2,0,0,12.1,151.7,346.9)" />
<use xlink:href="#f2_2a" transform="matrix(12.2,0,0,12.1,156.9,346.9)" />
<use xlink:href="#f2_2k" transform="matrix(12.2,0,0,12.1,171.2,346.9)" />
<use xlink:href="#f2_2k" transform="matrix(12.2,0,0,12.1,197.9,346.9)" />
<use xlink:href="#f2_1z" transform="matrix(12.2,0,0,12.1,211.7,346.9)" />
<use xlink:href="#f2_2b" transform="matrix(12.2,0,0,12.1,219.8,346.9)" />
<use xlink:href="#f2_2f" transform="matrix(12.2,0,0,12.1,229,346.9)" />
<use xlink:href="#f2_d" transform="matrix(12.2,0,0,12.1,252.2,346.9)" />
<use xlink:href="#f2_1z" transform="matrix(12.2,0,0,12.1,274.6,346.9)" />
<use xlink:href="#f3_h" transform="matrix(12.2,0,0,12.1,204.8,257.2)" />
<use xlink:href="#f3_1x" transform="matrix(12.2,0,0,12.1,282.2,257.2)" />
<use xlink:href="#f3_h" transform="matrix(12.2,0,0,12.1,297.1,257.2)" />
<use xlink:href="#f3_x" transform="matrix(12.2,0,0,12.1,114.9,268.7)" />
<use xlink:href="#f3_h" transform="matrix(12.2,0,0,12.1,226.9,283)" />
<use xlink:href="#f3_1x" transform="matrix(12.2,0,0,12.1,266.6,283)" />
<use xlink:href="#f3_x" transform="matrix(12.2,0,0,12.1,114.9,314.6)" />
<use xlink:href="#f3_f" transform="matrix(12.2,0,0,12.1,197.2,314.6)" />
<use xlink:href="#f3_1x" transform="matrix(12.2,0,0,12.1,238.9,314.6)" />
<use xlink:href="#f3_x" transform="matrix(12.2,0,0,12.1,114.9,346.9)" />
<use xlink:href="#f3_f" transform="matrix(12.2,0,0,12.1,184.2,346.9)" />
<use xlink:href="#f3_1x" transform="matrix(12.2,0,0,12.1,240.2,346.9)" />
<use xlink:href="#f3_f" transform="matrix(12.2,0,0,12.1,261.4,346.9)" />
<use xlink:href="#f3_50" transform="matrix(18.2,0,0,18.2,129.5,275.3)" />
<use xlink:href="#f3_50" transform="matrix(18.2,0,0,18.2,139,321.2)" />
</g>
</g>
<g fill="#000000" >
<use xlink:href="#f4_1f" transform="matrix(12,0,0,12,442,375.2)" />
<use xlink:href="#f4_1i" transform="matrix(12,0,0,12,455.2,375.2)" />
</g>
<path d="M178.5,424.8l1.8,-1.2m0,0l4.5,8.2m0,0l4.8,-21.5m0,-.1h79.9" class="g4_152" />
<path fill-rule="evenodd" d="M177.5,423.8l2.6,-1.5l3.9,6.8l4.5,-20h80.3v.9H189.2l-4.7,21h-.9l-4.5,-7.5l-1.3,.8l-.3,-.5Z" class="g5_152" />
<path d="M176.1,406.8h94.1" class="g6_152" />
<path d="M188,483.8l1.8,-1.2m.1,0l4.4,8.1m0,.1l4.9,-21.5m0,0h79.9" class="g4_152" />
<path fill-rule="evenodd" d="M187.1,482.8l2.5,-1.6l3.9,6.9l4.6,-20h80.2v.9H198.7L194,490h-.9l-4.5,-7.5l-1.2,.8l-.3,-.5Z" class="g5_152" />
<path d="M185.7,465.8h94.1" class="g6_152" />
<path d="M188,544.2l1.8,-1.2m.1,0l4.4,8.1m0,.1l4.9,-21.5m0,0h79.9" class="g4_152" />
<path fill-rule="evenodd" d="M187.1,543.2l2.5,-1.5l3.9,6.8l4.6,-20h80.2v.9H198.7l-4.7,21h-.9l-4.5,-7.5l-1.2,.8l-.3,-.5Z" class="g5_152" />
<path d="M185.7,526.2h94.1" class="g6_152" />
<path d="M347.2,544.2l1.9,-1.2m0,0l4.4,8.1m0,.1l4.9,-21.5m0,0h79.8" class="g4_152" />
<path fill-rule="evenodd" d="M346.3,543.2l2.5,-1.5l3.9,6.8l4.5,-20h80.3v.9H357.9l-4.7,21h-.9l-4.5,-7.5l-1.3,.8l-.2,-.5Z" class="g5_152" />
<path d="M344.8,526.2h94.1" class="g6_152" />
<g clip-path="url(#c2_152)">
<g fill="#000000" >
<use xlink:href="#f2_m" transform="matrix(7.1,0,0,7,200.4,421.1)" />
<use xlink:href="#f2_m" transform="matrix(7.1,0,0,7,210,480.1)" />
<use xlink:href="#f2_m" transform="matrix(7.1,0,0,7,210,540.5)" />
<use xlink:href="#f2_m" transform="matrix(7.1,0,0,7,369.1,540.5)" />
<use xlink:href="#f2_l" transform="matrix(7.1,0,0,7,170.7,579.7)" />
<use xlink:href="#f2_m" transform="matrix(7.1,0,0,7,200.3,579.7)" />
<use xlink:href="#f2_2k" transform="matrix(12.2,0,0,12.1,205.8,399.8)" />
<use xlink:href="#f2_m" transform="matrix(12.2,0,0,12.1,232.2,399.8)" />
<use xlink:href="#f2_19" transform="matrix(12.2,0,0,12.1,140.5,411.3)" />
<use xlink:href="#f2_20" transform="matrix(12.2,0,0,12.1,274.8,411.3)" />
<use xlink:href="#f2_2k" transform="matrix(12.2,0,0,12.1,284,411.3)" />
<use xlink:href="#f2_2k" transform="matrix(12.2,0,0,12.1,189.9,429.3)" />
<use xlink:href="#f2_m" transform="matrix(12.2,0,0,12.1,224,429.3)" />
<use xlink:href="#f2_2k" transform="matrix(12.2,0,0,12.1,233.8,429.3)" />
<use xlink:href="#f2_n" transform="matrix(12.2,0,0,12.1,259.5,429.3)" />
<use xlink:href="#f2_c" transform="matrix(12.2,0,0,12.1,199.2,458.8)" />
<use xlink:href="#f2_2k" transform="matrix(12.2,0,0,12.1,206,458.8)" />
<use xlink:href="#f2_l" transform="matrix(12.2,0,0,12.1,230.3,458.8)" />
<use xlink:href="#f2_d" transform="matrix(12.2,0,0,12.1,238.1,458.8)" />
<use xlink:href="#f2_l" transform="matrix(12.2,0,0,12.1,258.7,458.8)" />
<use xlink:href="#f2_19" transform="matrix(12.2,0,0,12.1,140.5,470.3)" />
<use xlink:href="#f2_20" transform="matrix(12.2,0,0,12.1,288.7,470.3)" />
<use xlink:href="#f2_2k" transform="matrix(12.2,0,0,12.1,297.9,470.3)" />
<use xlink:href="#f2_2k" transform="matrix(12.2,0,0,12.1,199.5,488.3)" />
<use xlink:href="#f2_m" transform="matrix(12.2,0,0,12.1,233.6,488.3)" />
<use xlink:href="#f2_2k" transform="matrix(12.2,0,0,12.1,243.3,488.3)" />
<use xlink:href="#f2_n" transform="matrix(12.2,0,0,12.1,269.1,488.3)" />
<use xlink:href="#f2_c" transform="matrix(12.2,0,0,12.1,210.2,519.3)" />
<use xlink:href="#f2_2k" transform="matrix(12.2,0,0,12.1,217,519.3)" />
<use xlink:href="#f2_l" transform="matrix(12.2,0,0,12.1,241.4,519.3)" />
<use xlink:href="#f2_d" transform="matrix(12.2,0,0,12.1,249.1,519.3)" />
<use xlink:href="#f2_l" transform="matrix(12.2,0,0,12.1,387.2,519.3)" />
<use xlink:href="#f2_19" transform="matrix(12.2,0,0,12.1,140.5,530.8)" />
<use xlink:href="#f2_20" transform="matrix(12.2,0,0,12.1,288.7,530.8)" />
<use xlink:href="#f2_2k" transform="matrix(12.2,0,0,12.1,297.9,530.8)" />
<use xlink:href="#f2_20" transform="matrix(12.2,0,0,12.1,447.9,530.8)" />
<use xlink:href="#f2_2k" transform="matrix(12.2,0,0,12.1,457.1,530.8)" />
<use xlink:href="#f2_2k" transform="matrix(12.2,0,0,12.1,199.5,548.7)" />
<use xlink:href="#f2_m" transform="matrix(12.2,0,0,12.1,233.6,548.7)" />
<use xlink:href="#f2_2k" transform="matrix(12.2,0,0,12.1,243.3,548.7)" />
<use xlink:href="#f2_n" transform="matrix(12.2,0,0,12.1,269.1,548.7)" />
<use xlink:href="#f2_2k" transform="matrix(12.2,0,0,12.1,358.6,548.7)" />
<use xlink:href="#f2_m" transform="matrix(12.2,0,0,12.1,392.7,548.7)" />
<use xlink:href="#f2_2k" transform="matrix(12.2,0,0,12.1,402.4,548.7)" />
<use xlink:href="#f2_n" transform="matrix(12.2,0,0,12.1,428.2,548.7)" />
<use xlink:href="#f2_19" transform="matrix(12.2,0,0,12.1,140.5,575)" />
<use xlink:href="#f2_19" transform="matrix(12.2,0,0,12.1,165.1,575)" />
<use xlink:href="#f2_19" transform="matrix(12.2,0,0,12.1,193.5,575)" />
<use xlink:href="#f3_f" transform="matrix(12.2,0,0,12.1,218.7,399.8)" />
<use xlink:href="#f3_x" transform="matrix(12.2,0,0,12.1,150.8,411.3)" />
<use xlink:href="#f3_f" transform="matrix(12.2,0,0,12.1,210.6,429.3)" />
<use xlink:href="#f3_f" transform="matrix(12.2,0,0,12.1,246.7,429.3)" />
<use xlink:href="#f3_4u" transform="matrix(12.2,0,0,12.1,175.8,457)" />
<use xlink:href="#f3_5a" transform="matrix(12.2,0,0,12.1,281.3,457)" />
<use xlink:href="#f3_f" transform="matrix(12.2,0,0,12.1,219,458.8)" />
<use xlink:href="#f3_f" transform="matrix(12.2,0,0,12.1,247.3,458.8)" />
<use xlink:href="#f3_x" transform="matrix(12.2,0,0,12.1,150.8,470.3)" />
<use xlink:href="#f3_4v" transform="matrix(12.2,0,0,12.1,175.8,473.5)" />
<use xlink:href="#f3_5b" transform="matrix(12.2,0,0,12.1,281.3,473.5)" />
<use xlink:href="#f3_f" transform="matrix(12.2,0,0,12.1,220.2,488.3)" />
<use xlink:href="#f3_f" transform="matrix(12.2,0,0,12.1,256.3,488.3)" />
<use xlink:href="#f3_4w" transform="matrix(12.2,0,0,12.1,175.8,490)" />
<use xlink:href="#f3_5c" transform="matrix(12.2,0,0,12.1,281.3,490)" />
<use xlink:href="#f3_4u" transform="matrix(12.2,0,0,12.1,175.8,517.4)" />
<use xlink:href="#f3_5a" transform="matrix(12.2,0,0,12.1,281.3,517.4)" />
<use xlink:href="#f3_4u" transform="matrix(12.2,0,0,12.1,334.9,517.4)" />
<use xlink:href="#f3_5a" transform="matrix(12.2,0,0,12.1,440.4,517.4)" />
<use xlink:href="#f3_f" transform="matrix(12.2,0,0,12.1,230,519.3)" />
<use xlink:href="#f3_x" transform="matrix(12.2,0,0,12.1,150.8,530.8)" />
<use xlink:href="#f3_f" transform="matrix(12.2,0,0,12.1,310.8,530.8)" />
<use xlink:href="#f3_4v" transform="matrix(12.2,0,0,12.1,175.8,533.9)" />
<use xlink:href="#f3_5b" transform="matrix(12.2,0,0,12.1,281.3,533.9)" />
<use xlink:href="#f3_4v" transform="matrix(12.2,0,0,12.1,334.9,533.9)" />
<use xlink:href="#f3_5b" transform="matrix(12.2,0,0,12.1,440.4,533.9)" />
<use xlink:href="#f3_f" transform="matrix(12.2,0,0,12.1,220.2,548.7)" />
<use xlink:href="#f3_f" transform="matrix(12.2,0,0,12.1,256.2,548.7)" />
<use xlink:href="#f3_f" transform="matrix(12.2,0,0,12.1,379.3,548.7)" />
<use xlink:href="#f3_f" transform="matrix(12.2,0,0,12.1,415.4,548.7)" />
<use xlink:href="#f3_4w" transform="matrix(12.2,0,0,12.1,175.8,550.4)" />
<use xlink:href="#f3_5c" transform="matrix(12.2,0,0,12.1,281.3,550.4)" />
<use xlink:href="#f3_4w" transform="matrix(12.2,0,0,12.1,334.9,550.4)" />
<use xlink:href="#f3_5c" transform="matrix(12.2,0,0,12.1,440.4,550.4)" />
<use xlink:href="#f3_x" transform="matrix(12.2,0,0,12.1,150.8,575)" />
<use xlink:href="#f3_f" transform="matrix(12.2,0,0,12.1,180.1,575)" />
<use xlink:href="#f3_50" transform="matrix(18.3,0,0,18.2,165.4,417.9)" />
<use xlink:href="#f3_50" transform="matrix(18.3,0,0,18.2,165.4,476.9)" />
<use xlink:href="#f3_50" transform="matrix(18.3,0,0,18.2,165.4,537.3)" />
<use xlink:href="#f3_50" transform="matrix(18.3,0,0,18.2,324.6,537.3)" />
</g>
</g>
<path d="M206.6,695.3h26" class="g7_152" />
<path d="M171.9,739.3l1.8,-1.1m.1,0l4.4,8.1m0,0L183,724.8m0,0h79.8" class="g8_152" />
<path fill-rule="evenodd" d="M171,738.3l2.5,-1.5l3.9,6.9l4.5,-20.1H262v.9H182.6l-4.7,21.1H177L172.5,738l-1.2,.9l-.3,-.6Z" class="g5_152" />
<g clip-path="url(#c3_152)">
<g fill="#000000" >
<use xlink:href="#f2_m" transform="matrix(7,0,0,7,204.3,597.3)" />
<use xlink:href="#f2_m" transform="matrix(7,0,0,7,260.9,597.3)" />
<use xlink:href="#f2_l" transform="matrix(7,0,0,7,165.6,610.2)" />
<use xlink:href="#f2_l" transform="matrix(7,0,0,7,170.7,704.6)" />
<use xlink:href="#f2_m" transform="matrix(7,0,0,7,193.8,735.7)" />
<use xlink:href="#f2_l" transform="matrix(7,0,0,7,145.9,748.6)" />
<use xlink:href="#f2_19" transform="matrix(12.2,0,0,12.2,140.3,605.5)" />
<use xlink:href="#f2_2a" transform="matrix(12.2,0,0,12.2,146,605.5)" />
<use xlink:href="#f2_19" transform="matrix(12.2,0,0,12.2,160.1,605.5)" />
<use xlink:href="#f2_28" transform="matrix(12.2,0,0,12.2,170.7,605.5)" />
<use xlink:href="#f2_21" transform="matrix(12.2,0,0,12.2,175.6,605.5)" />
<use xlink:href="#f2_2g" transform="matrix(12.2,0,0,12.2,183.6,605.5)" />
<use xlink:href="#f2_2k" transform="matrix(12.2,0,0,12.2,193.8,605.5)" />
<use xlink:href="#f2_n" transform="matrix(12.2,0,0,12.2,227.3,605.5)" />
<use xlink:href="#f2_2g" transform="matrix(12.2,0,0,12.2,254.5,605.5)" />
<use xlink:href="#f2_c" transform="matrix(12.2,0,0,12.2,175.2,633.4)" />
<use xlink:href="#f2_m" transform="matrix(12.2,0,0,12.2,181.7,633.4)" />
<use xlink:href="#f2_2k" transform="matrix(12.2,0,0,12.2,191.4,633.4)" />
<use xlink:href="#f2_m" transform="matrix(12.2,0,0,12.2,217.7,633.4)" />
<use xlink:href="#f2_d" transform="matrix(12.2,0,0,12.2,226.8,633.4)" />
<use xlink:href="#f2_20" transform="matrix(12.2,0,0,12.2,233.1,633.4)" />
<use xlink:href="#f2_2k" transform="matrix(12.2,0,0,12.2,242.2,633.4)" />
<use xlink:href="#f2_m" transform="matrix(12.2,0,0,12.2,270.5,633.4)" />
<use xlink:href="#f2_2g" transform="matrix(12.2,0,0,12.2,280.2,633.4)" />
<use xlink:href="#f2_m" transform="matrix(12.2,0,0,12.2,290.2,633.4)" />
<use xlink:href="#f2_2g" transform="matrix(12.2,0,0,12.2,299.9,633.4)" />
<use xlink:href="#f2_c" transform="matrix(12.2,0,0,12.2,166.9,660.8)" />
<use xlink:href="#f2_2k" transform="matrix(12.2,0,0,12.2,173.7,660.8)" />
<use xlink:href="#f2_l" transform="matrix(12.2,0,0,12.2,198,660.8)" />
<use xlink:href="#f2_d" transform="matrix(12.2,0,0,12.2,205.7,660.8)" />
<use xlink:href="#f2_20" transform="matrix(12.2,0,0,12.2,212,660.8)" />
<use xlink:href="#f2_2k" transform="matrix(12.2,0,0,12.2,221.1,660.8)" />
<use xlink:href="#f2_2g" transform="matrix(12.2,0,0,12.2,249.7,660.8)" />
<use xlink:href="#f2_20" transform="matrix(12.2,0,0,12.2,254.9,660.8)" />
<use xlink:href="#f2_2g" transform="matrix(12.2,0,0,12.2,264,660.8)" />
<use xlink:href="#f2_2g" transform="matrix(12.2,0,0,12.2,208,688.3)" />
<use xlink:href="#f2_i" transform="matrix(12.2,0,0,12.2,213.2,688.3)" />
<use xlink:href="#f2_20" transform="matrix(12.2,0,0,12.2,216.9,688.3)" />
<use xlink:href="#f2_2g" transform="matrix(12.2,0,0,12.2,226,688.3)" />
<use xlink:href="#f2_19" transform="matrix(12.2,0,0,12.2,165.2,699.8)" />
<use xlink:href="#f2_2g" transform="matrix(12.2,0,0,12.2,252,699.8)" />
<use xlink:href="#f2_2g" transform="matrix(12.2,0,0,12.2,217,714.2)" />
<use xlink:href="#f2_19" transform="matrix(12.2,0,0,12.2,140.3,743.9)" />
<use xlink:href="#f2_2k" transform="matrix(12.2,0,0,12.2,183.4,743.9)" />
<use xlink:href="#f2_m" transform="matrix(12.2,0,0,12.2,217.4,743.9)" />
<use xlink:href="#f2_2k" transform="matrix(12.2,0,0,12.2,227.1,743.9)" />
<use xlink:href="#f2_n" transform="matrix(12.2,0,0,12.2,252.8,743.9)" />
<use xlink:href="#f3_f" transform="matrix(12.2,0,0,12.2,214.5,605.5)" />
<use xlink:href="#f3_x" transform="matrix(12.2,0,0,12.2,239.9,605.5)" />
<use xlink:href="#f3_1s" transform="matrix(12.2,0,0,12.2,137.4,633.4)" />
<use xlink:href="#f3_f" transform="matrix(12.2,0,0,12.2,204.3,633.4)" />
<use xlink:href="#f3_x" transform="matrix(12.2,0,0,12.2,256.3,633.4)" />
<use xlink:href="#f3_4g" transform="matrix(12.2,0,0,12.2,139.7,660.8)" />
<use xlink:href="#f3_f" transform="matrix(12.2,0,0,12.2,186.6,660.8)" />
<use xlink:href="#f3_x" transform="matrix(12.2,0,0,12.2,235.2,660.8)" />
<use xlink:href="#f3_1s" transform="matrix(12.2,0,0,12.2,137.4,699.8)" />
<use xlink:href="#f3_x" transform="matrix(12.2,0,0,12.2,181.2,699.8)" />
<use xlink:href="#f3_x" transform="matrix(12.2,0,0,12.2,237.4,699.8)" />
<use xlink:href="#f3_x" transform="matrix(12.2,0,0,12.2,156.4,743.9)" />
<use xlink:href="#f3_f" transform="matrix(12.2,0,0,12.2,204,743.9)" />
<use xlink:href="#f3_f" transform="matrix(12.2,0,0,12.2,240,743.9)" />
<use xlink:href="#f3_50" transform="matrix(18.3,0,0,18.3,195.8,706.4)" />
</g>
</g>
<path d="M244.2,798.2l1.8,-1.1m.1,0l4.4,8m0,.1l4.9,-21.4m0,-.1h79.9" class="g9_152" />
<path fill-rule="evenodd" d="M243.2,797.2l2.6,-1.5l3.9,6.8l4.6,-20h80.2v.9H254.9l-4.7,21h-.9l-4.5,-7.5l-1.2,.8l-.4,-.5Z" class="g5_152" />
<path d="M241.8,780.3H336" class="g10_152" />
<path d="M392.9,798.2l1.8,-1.1m.1,0l4.4,8m0,.1l4.9,-21.4m0,-.1H484" class="g9_152" />
<path fill-rule="evenodd" d="M392,797.2l2.5,-1.5l3.9,6.8l4.6,-20h80.2v.9H403.6l-4.7,21H398l-4.5,-7.5l-1.2,.8l-.3,-.5Z" class="g5_152" />
<path d="M390.6,780.3h94.1" class="g10_152" />
<path d="M272.4,831.7l1.8,-1.3m.1,-.1l4.4,9.5m0,.1l4.9,-25.1m0,-.1h79.6" class="g9_152" />
<path fill-rule="evenodd" d="M271.5,830.7l2.5,-1.8l3.9,8l4.6,-23.4h80v.9H283.2l-4.8,24.7h-.9L273,830.2l-1.2,1l-.3,-.5Z" class="g5_152" />
<path d="M188.1,891.6l1.8,-1.1m0,0l4.5,8.1m0,0l4.9,-21.5m0,0h79.9" class="g9_152" />
<path fill-rule="evenodd" d="M187.2,890.6l2.5,-1.5l3.9,6.9l4.5,-20h80.3v.9H198.8l-4.7,20.9h-.9l-4.5,-7.5l-1.3,.9l-.2,-.6Z" class="g5_152" />
<path d="M375,894l1.9,-1.4m0,0l4.4,9.4m0,0l4.9,-24.9m0,0h84.5" class="g9_152" />
<path fill-rule="evenodd" d="M374.1,893l2.6,-1.8l3.8,7.8l4.6,-23h84.8v.9H385.8L381,901.3h-.9l-4.5,-8.8l-1.1,.9l-.4,-.4Z" class="g5_152" />
<g clip-path="url(#c4_152)">
<g fill="#000000" >
<use xlink:href="#f2_l" transform="matrix(7.1,0,0,7,205.9,789.5)" />
<use xlink:href="#f2_m" transform="matrix(7.1,0,0,7,266.1,794.5)" />
<use xlink:href="#f2_m" transform="matrix(7.1,0,0,7,414.8,794.5)" />
<use xlink:href="#f2_m" transform="matrix(7.1,0,0,7,247.5,825.5)" />
<use xlink:href="#f2_m" transform="matrix(7.1,0,0,7,329,825.5)" />
<use xlink:href="#f2_m" transform="matrix(7.1,0,0,7,147.2,838.4)" />
<use xlink:href="#f2_l" transform="matrix(7.1,0,0,7,217.1,866.9)" />
<use xlink:href="#f2_m" transform="matrix(7.1,0,0,7,246.7,866.9)" />
<use xlink:href="#f2_m" transform="matrix(7.1,0,0,7,210.1,888)" />
<use xlink:href="#f2_m" transform="matrix(7.1,0,0,7,397,888)" />
<use xlink:href="#f2_l" transform="matrix(12.2,0,0,12.1,284.3,773.3)" />
<use xlink:href="#f2_20" transform="matrix(12.2,0,0,12.1,428.1,773.3)" />
<use xlink:href="#f2_2k" transform="matrix(12.2,0,0,12.1,437.3,773.3)" />
<use xlink:href="#f2_1e" transform="matrix(12.2,0,0,12.1,141,784.8)" />
<use xlink:href="#f2_2b" transform="matrix(12.2,0,0,12.1,154.2,784.8)" />
<use xlink:href="#f2_2j" transform="matrix(12.2,0,0,12.1,163.4,784.8)" />
<use xlink:href="#f2_25" transform="matrix(12.2,0,0,12.1,181.1,784.8)" />
<use xlink:href="#f2_2a" transform="matrix(12.2,0,0,12.1,186.3,784.8)" />
<use xlink:href="#f2_19" transform="matrix(12.2,0,0,12.1,200.3,784.8)" />
<use xlink:href="#f2_20" transform="matrix(12.2,0,0,12.1,345.7,784.8)" />
<use xlink:href="#f2_2k" transform="matrix(12.2,0,0,12.1,354.8,784.8)" />
<use xlink:href="#f2_2k" transform="matrix(12.2,0,0,12.1,255.7,802.7)" />
<use xlink:href="#f2_m" transform="matrix(12.2,0,0,12.1,289.8,802.7)" />
<use xlink:href="#f2_2k" transform="matrix(12.2,0,0,12.1,299.6,802.7)" />
<use xlink:href="#f2_n" transform="matrix(12.2,0,0,12.1,325.3,802.7)" />
<use xlink:href="#f2_2k" transform="matrix(12.2,0,0,12.1,404.3,802.7)" />
<use xlink:href="#f2_m" transform="matrix(12.2,0,0,12.1,438.5,802.7)" />
<use xlink:href="#f2_2k" transform="matrix(12.2,0,0,12.1,448.2,802.7)" />
<use xlink:href="#f2_n" transform="matrix(12.2,0,0,12.1,473.9,802.7)" />
<use xlink:href="#f2_19" transform="matrix(12.2,0,0,12.1,140.5,833.7)" />
<use xlink:href="#f2_28" transform="matrix(12.2,0,0,12.1,172.6,833.7)" />
<use xlink:href="#f2_2b" transform="matrix(12.2,0,0,12.1,177.5,833.7)" />
<use xlink:href="#f2_23" transform="matrix(12.2,0,0,12.1,186.6,833.7)" />
<use xlink:href="#f2_1r" transform="matrix(12.2,0,0,12.1,195.8,833.7)" />
<use xlink:href="#f2_c" transform="matrix(12.2,0,0,12.1,201.8,833.7)" />
<use xlink:href="#f2_2k" transform="matrix(12.2,0,0,12.1,208.7,833.7)" />
<use xlink:href="#f2_l" transform="matrix(12.2,0,0,12.1,233,833.7)" />
<use xlink:href="#f2_d" transform="matrix(12.2,0,0,12.1,240.8,833.7)" />
<use xlink:href="#f2_c" transform="matrix(12.2,0,0,12.1,283.3,833.7)" />
<use xlink:href="#f2_2k" transform="matrix(12.2,0,0,12.1,290.2,833.7)" />
<use xlink:href="#f2_l" transform="matrix(12.2,0,0,12.1,314.5,833.7)" />
<use xlink:href="#f2_d" transform="matrix(12.2,0,0,12.1,322.2,833.7)" />
<use xlink:href="#f2_m" transform="matrix(12.2,0,0,12.1,352.6,833.7)" />
<use xlink:href="#f2_1t" transform="matrix(12.2,0,0,12.1,363.2,833.7)" />
<use xlink:href="#f2_1e" transform="matrix(12.2,0,0,12.1,141,862.2)" />
<use xlink:href="#f2_2b" transform="matrix(12.2,0,0,12.1,154.2,862.2)" />
<use xlink:href="#f2_2j" transform="matrix(12.2,0,0,12.1,163.4,862.2)" />
<use xlink:href="#f2_19" transform="matrix(12.2,0,0,12.1,186.9,862.2)" />
<use xlink:href="#f2_19" transform="matrix(12.2,0,0,12.1,211.5,862.2)" />
<use xlink:href="#f2_19" transform="matrix(12.2,0,0,12.1,239.9,862.2)" />
<use xlink:href="#f2_19" transform="matrix(12.2,0,0,12.1,162.2,896.1)" />
<use xlink:href="#f2_2k" transform="matrix(12.2,0,0,12.1,199.6,896.1)" />
<use xlink:href="#f2_m" transform="matrix(12.2,0,0,12.1,233.7,896.1)" />
<use xlink:href="#f2_2k" transform="matrix(12.2,0,0,12.1,243.4,896.1)" />
<use xlink:href="#f2_n" transform="matrix(12.2,0,0,12.1,269.2,896.1)" />
<use xlink:href="#f2_28" transform="matrix(12.2,0,0,12.1,295.2,896.1)" />
<use xlink:href="#f2_2b" transform="matrix(12.2,0,0,12.1,300.1,896.1)" />
<use xlink:href="#f2_23" transform="matrix(12.2,0,0,12.1,309.3,896.1)" />
<use xlink:href="#f2_c" transform="matrix(12.2,0,0,12.1,318.5,896.1)" />
<use xlink:href="#f2_2k" transform="matrix(12.2,0,0,12.1,325.3,896.1)" />
<use xlink:href="#f2_l" transform="matrix(12.2,0,0,12.1,349.7,896.1)" />
<use xlink:href="#f2_2k" transform="matrix(12.2,0,0,12.1,386.4,896.1)" />
<use xlink:href="#f2_m" transform="matrix(12.2,0,0,12.1,420.6,896.1)" />
<use xlink:href="#f2_2k" transform="matrix(12.2,0,0,12.1,430.3,896.1)" />
<use xlink:href="#f2_2o" transform="matrix(12.2,0,0,12.1,454.1,896.1)" />
<use xlink:href="#f2_n" transform="matrix(12.2,0,0,12.1,460.6,896.1)" />
<use xlink:href="#f2_d" transform="matrix(12.2,0,0,12.1,470.6,896.1)" />
<use xlink:href="#f2_1z" transform="matrix(12.2,0,0,12.1,493,896.1)" />
<use xlink:href="#f3_x" transform="matrix(12.2,0,0,12.1,216.5,784.8)" />
<use xlink:href="#f3_x" transform="matrix(12.2,0,0,12.1,368.9,784.8)" />
<use xlink:href="#f3_f" transform="matrix(12.2,0,0,12.1,276.4,802.7)" />
<use xlink:href="#f3_f" transform="matrix(12.2,0,0,12.1,312.4,802.7)" />
<use xlink:href="#f3_f" transform="matrix(12.2,0,0,12.1,425,802.7)" />
<use xlink:href="#f3_f" transform="matrix(12.2,0,0,12.1,461.1,802.7)" />
<use xlink:href="#f3_x" transform="matrix(12.2,0,0,12.1,158.5,833.7)" />
<use xlink:href="#f3_f" transform="matrix(12.2,0,0,12.1,221.6,833.7)" />
<use xlink:href="#f3_f" transform="matrix(12.2,0,0,12.1,257.7,833.7)" />
<use xlink:href="#f3_f" transform="matrix(12.2,0,0,12.1,303.1,833.7)" />
<use xlink:href="#f3_f" transform="matrix(12.2,0,0,12.1,339.2,833.7)" />
<use xlink:href="#f3_x" transform="matrix(12.2,0,0,12.1,197.2,862.2)" />
<use xlink:href="#f3_f" transform="matrix(12.2,0,0,12.1,226.5,862.2)" />
<use xlink:href="#f3_4g" transform="matrix(12.2,0,0,12.1,139.9,896.1)" />
<use xlink:href="#f3_x" transform="matrix(12.2,0,0,12.1,172.5,896.1)" />
<use xlink:href="#f3_f" transform="matrix(12.2,0,0,12.1,220.2,896.1)" />
<use xlink:href="#f3_f" transform="matrix(12.2,0,0,12.1,256.3,896.1)" />
<use xlink:href="#f3_f" transform="matrix(12.2,0,0,12.1,282,896.1)" />
<use xlink:href="#f3_f" transform="matrix(12.2,0,0,12.1,338.2,896.1)" />
<use xlink:href="#f3_f" transform="matrix(12.2,0,0,12.1,360.2,896.1)" />
<use xlink:href="#f3_f" transform="matrix(12.2,0,0,12.1,407,896.1)" />
<use xlink:href="#f3_f" transform="matrix(12.2,0,0,12.1,440.5,896.1)" />
<use xlink:href="#f3_f" transform="matrix(12.2,0,0,12.1,479.7,896.1)" />
<use xlink:href="#f3_50" transform="matrix(18.3,0,0,18.2,231.1,791.4)" />
<use xlink:href="#f3_50" transform="matrix(18.3,0,0,18.2,379.8,791.4)" />
</g>
</g>
<g fill="#000000" >
<use xlink:href="#f2_l" transform="matrix(12,0,0,12,55,949.6)" />
<use xlink:href="#f2_s" transform="matrix(12,0,0,12,64.2,949.6)" />
<use xlink:href="#f2_i" transform="matrix(12,0,0,12,73.4,949.6)" />
<use xlink:href="#f2_15" transform="matrix(12,0,0,12,82.9,949.6)" />
<use xlink:href="#f2_2i" transform="matrix(12,0,0,12,94.2,949.6)" />
<use xlink:href="#f2_1x" transform="matrix(12,0,0,12,103,949.6)" />
<use xlink:href="#f2_28" transform="matrix(12,0,0,12,111.4,949.6)" />
<use xlink:href="#f2_2h" transform="matrix(12,0,0,12,115.8,949.6)" />
<use xlink:href="#f2_1x" transform="matrix(12,0,0,12,125,949.6)" />
<use xlink:href="#f2_2g" transform="matrix(12,0,0,12,133.1,949.6)" />
<use xlink:href="#f2_21" transform="matrix(12,0,0,12,138.5,949.6)" />
<use xlink:href="#f2_u" transform="matrix(12,0,0,12,151.4,949.6)" />
</g>
<path d="M89.9,981.3h67.6" class="g11_152" />
<g clip-path="url(#c5_152)">
<g fill="#000000" >
<use xlink:href="#f2_p" transform="matrix(7.3,0,0,7.1,118.2,992.3)" />
<use xlink:href="#f2_20" transform="matrix(12.7,0,0,12.2,114.2,974.2)" />
<use xlink:href="#f2_2k" transform="matrix(12.7,0,0,12.2,123.3,974.2)" />
<use xlink:href="#f2_2k" transform="matrix(12.7,0,0,12.2,91.3,1000.6)" />
<use xlink:href="#f2_c" transform="matrix(12.7,0,0,12.2,101.3,1000.6)" />
<use xlink:href="#f2_2k" transform="matrix(12.7,0,0,12.2,108.1,1000.6)" />
<use xlink:href="#f2_n" transform="matrix(12.7,0,0,12.2,142,1000.6)" />
<use xlink:href="#f2_d" transform="matrix(12.7,0,0,12.2,150.6,1000.6)" />
<use xlink:href="#f3_f" transform="matrix(12.7,0,0,12.2,128.6,1000.6)" />
<use xlink:href="#f3_50" transform="matrix(19,0,0,18.4,79.5,992.6)" />
</g>
</g>
<g fill="#000000" >
<use xlink:href="#f2_1j" transform="matrix(12,0,0,12,55,1028.8)" />
<use xlink:href="#f2_2b" transform="matrix(12,0,0,12,65.3,1028.8)" />
<use xlink:href="#f2_28" transform="matrix(12,0,0,12,74.8,1028.8)" />
<use xlink:href="#f2_2h" transform="matrix(12,0,0,12,79.2,1028.8)" />
<use xlink:href="#f2_2g" transform="matrix(12,0,0,12,88.4,1028.8)" />
<use xlink:href="#f2_25" transform="matrix(12,0,0,12,93.8,1028.8)" />
<use xlink:href="#f2_2b" transform="matrix(12,0,0,12,98.2,1028.8)" />
<use xlink:href="#f2_2a" transform="matrix(12,0,0,12,107.8,1028.8)" />
<use xlink:href="#f2_u" transform="matrix(12,0,0,12,116.6,1028.8)" />
</g>
<path fill-rule="evenodd" d="M37.4,38.1h.7v-.7h-.7v.7Z" class="g5_152" />
<path fill-rule="evenodd" d="M37.4,38.1h.7v-.7h-.7v.7Z" class="g5_152" />
<path fill-rule="evenodd" d="M38.1,38.1H871.5v-.7H38.1v.7Z" class="g5_152" />
<path fill-rule="evenodd" d="M871.5,38.1h.8v-.7h-.8v.7Z" class="g5_152" />
<path fill-rule="evenodd" d="M871.5,38.1h.8v-.7h-.8v.7Z" class="g5_152" />
<path fill-rule="evenodd" d="M37.4,1248.5h.7V38.1h-.7V1248.5Z" class="g5_152" />
<path fill-rule="evenodd" d="M872.3,1248.5h.7V38.1h-.7V1248.5Z" class="g5_152" />
<path fill-rule="evenodd" d="M871.5,1248.5h.8V38.1h-.8V1248.5Z" class="g5_152" />
<path fill-rule="evenodd" d="M37.4,1249.2h.7v-.7h-.7v.7Z" class="g5_152" />
<path fill-rule="evenodd" d="M37.4,1249.2h.7v-.7h-.7v.7Z" class="g5_152" />
<path fill-rule="evenodd" d="M38.1,1249.9H871.5v-.7H38.1v.7Z" class="g5_152" />
<path fill-rule="evenodd" d="M38.1,1249.2H871.5v-.7H38.1v.7Z" class="g5_152" />
<path fill-rule="evenodd" d="M872.3,1249.9h.7v-1.4h-.7v1.4Z" class="g5_152" />
<path fill-rule="evenodd" d="M871.5,1249.9H873v-.7h-1.5v.7Z" class="g5_152" />
<path fill-rule="evenodd" d="M871.5,1249.2h.8v-.7h-.8v.7Z" class="g5_152" />
<path fill-rule="evenodd" d="M871.5,1249.2h.8v-.7h-.8v.7Z" class="g5_152" />
<defs>
<path d="M489,-15c0,0,-99,0,-179,30c0,0,-80,30,-136,91c0,0,-56,61,-85,152c0,0,-30,91,-30,212c0,0,0,123,32,218c0,0,33,96,92,161c0,0,59,65,142,98c0,0,82,34,181,34c0,0,40,0,78,-7c0,0,37,-7,69,-18c0,0,31,-11,57,-25c0,0,25,-14,35,-24c0,0,10,-10,14,-17c0,0,4,-7,6,-17c0,0,2,-11,3,-25c0,0,2,-14,2,-35c0,0,0,-22,-2,-38c0,0,-1,-15,-5,-25c0,0,-4,-10,-9,-14c0,0,-5,-5,-12,-5c0,0,-11,0,-28,13c0,0,-18,13,-45,29c0,0,-27,16,-65,29c0,0,-37,13,-89,13c0,0,-58,0,-103,-23c0,0,-45,-23,-77,-67c0,0,-31,-44,-48,-106c0,0,-16,-61,-16,-139c0,0,0,-85,17,-147c0,0,18,-62,50,-103c0,0,33,-40,79,-60c0,0,45,-19,103,-19c0,0,52,0,90,12c0,0,38,12,65,27c0,0,27,15,45,27c0,0,17,12,27,12c0,0,8,0,12,-3c0,0,4,-3,7,-12c0,0,3,-9,5,-25c0,0,1,-16,1,-43c0,0,0,-18,-1,-31c0,0,-1,-14,-3,-23c0,0,-2,-9,-6,-16c0,0,-4,-7,-12,-15c0,0,-8,-9,-32,-22c0,0,-23,-14,-57,-26C661,13,627,1,583,-6c0,0,-43,-9,-94,-9Z" 
id="f0_j"
transform="scale(0.001,-0.001)" />

<path d="M440,150c0,0,41,0,68,8c0,0,28,9,49,26c0,0,20,16,32,41c0,0,11,25,11,58c0,0,0,33,-11,60c0,0,-11,26,-33,44c0,0,-21,18,-55,28c0,0,-33,9,-87,9H298V150ZM407,567c0,0,42,0,68,10c0,0,25,10,42,28c0,0,16,17,24,41c0,0,9,24,9,50c0,0,0,29,-9,52c0,0,-9,23,-27,39c0,0,-18,15,-45,23c0,0,-27,8,-72,8H298V567ZM164,0c0,0,-25,0,-42,15c0,0,-16,14,-16,47V903c0,0,0,33,16,48c0,0,17,14,42,14H406c0,0,88,0,150,-15c0,0,61,-15,103,-45c0,0,42,-30,65,-77c0,0,22,-46,22,-108c0,0,0,-36,-9,-67c0,0,-9,-31,-26,-56c0,0,-17,-25,-42,-45c0,0,-25,-19,-57,-31c0,0,41,-7,76,-26c0,0,34,-19,60,-48c0,0,26,-30,41,-69c0,0,15,-40,15,-89c0,0,0,-51,-14,-93c0,0,-15,-42,-40,-74c0,0,-25,-32,-59,-55c0,0,-35,-23,-77,-38C614,29,573,14,525,7C525,7,478,0,420,0Z" 
id="f0_i"
transform="scale(0.001,-0.001)" />

<path d="M320,-17c0,0,-50,0,-93,9c0,0,-43,8,-76,19c0,0,-32,11,-54,24C97,35,75,48,65,58c0,0,-10,9,-14,28c0,0,-4,18,-4,52c0,0,0,23,1,39c0,0,2,15,5,25c0,0,4,10,9,14c0,0,6,4,13,4c0,0,11,0,30,-12c0,0,19,-13,49,-28c0,0,30,-15,71,-27c0,0,42,-12,96,-12c0,0,36,0,64,8c0,0,29,9,49,25c0,0,19,15,30,38c0,0,10,23,10,52c0,0,0,33,-18,56c0,0,-18,24,-46,42c0,0,-29,18,-66,34c0,0,-36,16,-75,34c0,0,-39,18,-76,41c0,0,-36,23,-65,54c0,0,-29,32,-47,75c0,0,-17,44,-17,104c0,0,0,70,25,122c0,0,26,53,70,88c0,0,43,34,103,51c0,0,59,18,125,18c0,0,35,0,69,-6c0,0,34,-5,64,-14c0,0,30,-9,53,-20c0,0,23,-11,31,-18c0,0,7,-8,10,-13c0,0,3,-5,4,-14c0,0,2,-8,3,-21c0,0,1,-13,1,-33c0,0,0,-21,-1,-36c0,0,-1,-15,-4,-25c0,0,-3,-9,-7,-14c0,0,-5,-4,-14,-4c0,0,-8,0,-26,10c0,0,-18,10,-44,23c0,0,-26,12,-60,22c0,0,-34,10,-75,10c0,0,-32,0,-56,-8c0,0,-24,-8,-40,-21c0,0,-16,-14,-24,-34c0,0,-8,-19,-8,-41c0,0,0,-32,18,-56c0,0,17,-23,46,-42c0,0,30,-18,67,-34c0,0,38,-16,76,-34c0,0,39,-18,76,-41c0,0,38,-22,67,-54c0,0,29,-32,47,-75c0,0,18,-43,18,-101c0,0,0,-76,-29,-133c0,0,-28,-58,-77,-96C572,60,524,21,459,2c0,0,-65,-19,-139,-19Z" 
id="f0_2n"
transform="scale(0.001,-0.001)" />

<path d="M164,0c0,0,-25,0,-42,15c0,0,-16,14,-16,47V903c0,0,0,33,16,48c0,0,17,14,42,14H645c0,0,7,0,12,-4c0,0,5,-3,9,-13c0,0,4,-9,6,-24c0,0,2,-14,2,-36c0,0,0,-21,-2,-36c0,0,-2,-14,-6,-23c0,0,-4,-9,-9,-13c0,0,-5,-4,-12,-4H301V576H593c0,0,6,0,12,-4c0,0,6,-4,9,-13c0,0,4,-8,6,-23c0,0,2,-14,2,-35c0,0,0,-22,-2,-36c0,0,-2,-14,-6,-23c0,0,-3,-8,-9,-12c0,0,-6,-4,-12,-4H301V154H649c0,0,6,0,12,-5c0,0,5,-4,9,-13c0,0,4,-9,6,-23c0,0,2,-15,2,-36c0,0,0,-22,-2,-36c0,0,-2,-15,-6,-24c0,0,-4,-9,-9,-13c0,0,-6,-4,-12,-4Z" 
id="f0_t"
transform="scale(0.001,-0.001)" />

<path d="M79,297c0,0,-19,0,-27,18c0,0,-8,17,-8,60c0,0,0,41,8,59c0,0,8,17,27,17H389c0,0,9,0,15,-4c0,0,7,-4,11,-13c0,0,5,-9,7,-23c0,0,1,-15,1,-36c0,0,0,-43,-8,-61c0,0,-8,-17,-26,-17Z" 
id="f0_oj"
transform="scale(0.001,-0.001)" />

<path d="M121,-4c0,0,-39,0,-60,2C61,-2,39,0,32,8c0,0,-8,8,-3,24c0,0,4,15,18,41L279,495L64,892c0,0,-14,26,-19,42c0,0,-5,17,4,24c0,0,9,8,32,10c0,0,23,2,65,2c0,0,35,0,56,-2c0,0,20,-1,32,-4c0,0,12,-4,17,-10c0,0,5,-6,9,-15L431,620L595,939c0,0,5,9,10,15c0,0,5,6,16,10c0,0,10,3,29,4c0,0,19,2,53,2c0,0,37,0,59,-2c0,0,22,-2,30,-10c0,0,8,-8,4,-24c0,0,-4,-16,-17,-42L564,497L793,73c0,0,14,-26,18,-41c0,0,4,-16,-5,-24c0,0,-9,-8,-32,-10c0,0,-24,-2,-65,-2c0,0,-36,0,-56,2c0,0,-20,1,-31,3c0,0,-12,4,-17,10c0,0,-5,6,-9,15L414,374L233,26c0,0,-4,-9,-9,-15c0,0,-6,-6,-17,-10c0,0,-12,-2,-32,-3c0,0,-21,-2,-54,-2Z" 
id="f0_3e"
transform="scale(0.001,-0.001)" />

<path d="M204,-4c0,0,-28,0,-47,2c0,0,-19,2,-31,5c0,0,-11,4,-16,10c0,0,-4,6,-4,13V939c0,0,0,7,4,13c0,0,5,6,17,10c0,0,11,3,30,6c0,0,19,2,47,2c0,0,29,0,48,-2c0,0,18,-3,29,-6c0,0,11,-4,16,-10c0,0,5,-6,5,-13V26c0,0,0,-7,-5,-13c0,0,-5,-6,-16,-10c0,0,-11,-3,-29,-5c0,0,-19,-2,-48,-2Z" 
id="f0_1c"
transform="scale(0.001,-0.001)" />

<path d="M127,0c0,0,-16,0,-28,3C99,3,87,6,80,15c0,0,-8,8,-11,25c0,0,-3,16,-3,42c0,0,0,25,2,42c0,0,2,18,8,32c0,0,6,14,15,27c0,0,9,13,24,29L282,390c0,0,50,53,81,95c0,0,30,43,47,79c0,0,17,35,24,65c0,0,6,30,6,57c0,0,0,24,-8,46c0,0,-8,22,-23,39c0,0,-15,16,-38,25c0,0,-23,10,-55,10c0,0,-44,0,-78,-12c0,0,-33,-11,-59,-25c0,0,-26,-13,-43,-25c0,0,-17,-12,-27,-12c0,0,-7,0,-11,5c0,0,-5,4,-8,15c0,0,-3,10,-5,28c0,0,-2,17,-2,42c0,0,0,18,1,29c0,0,1,12,4,20c0,0,2,9,6,15c0,0,3,6,13,15c0,0,9,9,34,23c0,0,25,14,61,27c0,0,37,14,81,23c0,0,44,9,92,9c0,0,75,0,131,-19c0,0,57,-19,94,-53c0,0,37,-34,55,-81c0,0,19,-47,19,-100c0,0,0,-47,-9,-93c0,0,-9,-45,-37,-98c0,0,-29,-52,-80,-116c0,0,-52,-64,-136,-148L299,159H679c0,0,8,0,14,-4c0,0,6,-5,11,-14c0,0,4,-9,7,-25c0,0,2,-15,2,-36c0,0,0,-22,-2,-37c0,0,-2,-15,-6,-25c0,0,-3,-10,-9,-14c0,0,-6,-4,-14,-4Z" 
id="f0_rz"
transform="scale(0.001,-0.001)" />

<path d="M385,138c0,0,29,0,52,9c0,0,22,10,39,28c0,0,17,19,28,47c0,0,11,29,19,66c0,0,7,37,9,84c0,0,3,47,3,104c0,0,0,69,-4,122c0,0,-4,52,-11,91c0,0,-8,39,-20,66c0,0,-12,27,-28,43c0,0,-16,16,-37,22c0,0,-21,7,-47,7c0,0,-44,0,-73,-21c0,0,-28,-21,-45,-64c0,0,-17,-42,-24,-106c0,0,-6,-63,-6,-148c0,0,0,-103,8,-171c0,0,8,-67,26,-107c0,0,17,-40,45,-56c0,0,27,-16,66,-16ZM378,-17c0,0,-99,0,-164,33c0,0,-65,34,-103,98c0,0,-38,64,-54,156c0,0,-15,92,-15,209c0,0,0,115,19,208c0,0,19,94,61,160c0,0,42,65,110,101c0,0,68,35,165,35c0,0,99,0,164,-34c0,0,65,-34,103,-98c0,0,39,-64,53,-156c0,0,15,-92,15,-209c0,0,0,-115,-18,-209c0,0,-19,-93,-61,-159C653,118,611,53,543,17c0,0,-67,-34,-165,-34Z" 
id="f0_rx"
transform="scale(0.001,-0.001)" />

<path d="M142,0c0,0,-6,0,-12,4c0,0,-5,3,-9,12c0,0,-4,9,-6,23c0,0,-3,15,-3,36c0,0,0,21,2,36c0,0,2,14,6,23c0,0,4,9,10,13c0,0,5,5,12,5H322V779L166,693c0,0,-17,-8,-28,-10c0,0,-1,0,-3,0c-4,0,-10,1,-14,5c0,0,-6,6,-8,22c0,0,-2,15,-2,44c0,0,0,18,0,29c0,0,1,12,4,20c0,0,3,8,8,14c0,0,5,5,14,11L345,962c0,0,4,3,9,5c0,0,6,2,15,3c0,0,9,1,23,2c0,0,15,0,38,0c0,0,28,0,46,-1c0,0,17,-1,26,-4c0,0,9,-3,12,-7c0,0,3,-4,3,-11V152H675c0,0,7,0,12,-5c0,0,6,-4,10,-13c0,0,4,-9,6,-23c0,0,2,-15,2,-36c0,0,0,-21,-2,-36c0,0,-3,-14,-7,-23c0,0,-4,-9,-9,-12c0,0,-5,-4,-12,-4Z" 
id="f0_ry"
transform="scale(0.001,-0.001)" />

<path d="M337,-17c0,0,-50,0,-93,8c0,0,-43,7,-76,16c0,0,-34,11,-55,22c0,0,-22,11,-29,17c0,0,-6,6,-10,13c0,0,-3,8,-6,18c0,0,-2,10,-3,25c0,0,-1,16,-1,37c0,0,0,36,6,50c0,0,6,13,17,13c0,0,8,0,26,-10c0,0,18,-10,47,-21c0,0,28,-12,66,-22c0,0,38,-10,87,-10c0,0,41,0,72,10c0,0,31,9,53,27c0,0,22,17,33,42c0,0,11,25,11,56c0,0,0,34,-13,61c0,0,-13,26,-39,45c0,0,-26,20,-65,30c0,0,-39,10,-92,10H189c0,0,-9,0,-16,3c0,0,-7,3,-11,11c0,0,-5,8,-7,23c0,0,-1,14,-1,37c0,0,0,22,1,36c0,0,2,13,6,21c0,0,4,7,11,10c0,0,6,3,15,3h85c0,0,43,0,77,10c0,0,33,10,56,29c0,0,23,19,35,45c0,0,12,27,12,59c0,0,0,25,-8,47c0,0,-9,22,-25,38c0,0,-16,16,-41,26c0,0,-26,9,-60,9c0,0,-39,0,-73,-11c0,0,-34,-12,-62,-26c0,0,-27,-13,-46,-25c0,0,-19,-12,-28,-12c0,0,-6,0,-10,2c0,0,-5,3,-8,11c0,0,-3,7,-4,21c0,0,-2,14,-2,37c0,0,0,18,1,31c0,0,1,12,3,20c0,0,2,8,5,14c0,0,4,6,11,13c0,0,8,7,31,21c0,0,23,14,58,28c0,0,35,13,81,22c0,0,46,10,100,10c0,0,70,0,124,-17c0,0,54,-16,91,-47c0,0,37,-31,56,-76c0,0,19,-46,19,-102c0,0,0,-44,-11,-83c0,0,-12,-38,-33,-68c0,0,-22,-29,-54,-50c0,0,-33,-21,-75,-32v-2c0,0,50,-6,91,-26c0,0,40,-19,68,-49c0,0,28,-30,43,-68c0,0,15,-37,15,-81c0,0,0,-72,-28,-128c0,0,-27,-56,-77,-94C604,60,555,22,487,2c0,0,-69,-19,-150,-19Z" 
id="f0_s7"
transform="scale(0.001,-0.001)" />

<path d="M589,371L453,782h-1L317,371ZM106,-4c0,0,-35,0,-54,2C52,-2,32,0,25,8c0,0,-7,9,-5,24c0,0,2,16,11,42L329,931c0,0,4,13,10,21c0,0,6,7,19,12c0,0,13,4,36,5c0,0,23,1,61,1c0,0,44,0,71,-1c0,0,26,-1,40,-5c0,0,15,-5,21,-13c0,0,6,-8,11,-22L896,73c0,0,9,-27,11,-43c0,0,3,-15,-6,-23c0,0,-8,-7,-29,-9c0,0,-21,-2,-57,-2c0,0,-38,0,-59,1c0,0,-22,1,-33,4c0,0,-11,3,-16,9c0,0,-4,6,-7,16L635,220H272L211,31c0,0,-2,-11,-7,-18c0,0,-5,-7,-16,-11c0,0,-11,-3,-31,-4c0,0,-19,-2,-51,-2Z" 
id="f0_5"
transform="scale(0.001,-0.001)" />

<path d="M198,-4c0,0,-27,0,-45,2c0,0,-18,2,-28,5c0,0,-11,4,-15,10c0,0,-4,6,-4,13V887c0,0,0,38,20,58c0,0,20,20,53,20H308c0,0,34,0,59,-6c0,0,24,-5,42,-18c0,0,18,-13,30,-35c0,0,12,-21,21,-52L669,279h3L889,852c0,0,9,32,21,53c0,0,11,22,27,35c0,0,15,14,36,19c0,0,21,6,48,6h132c0,0,21,0,35,-5c0,0,15,-5,24,-15c0,0,9,-11,14,-25c0,0,5,-15,5,-33V26c0,0,0,-7,-4,-13c0,0,-4,-6,-15,-10c0,0,-11,-3,-29,-5c0,0,-18,-2,-45,-2c0,0,-27,0,-45,2c0,0,-18,2,-28,5c0,0,-11,4,-15,10c0,0,-5,6,-5,13V813h-1L764,27c0,0,-3,-10,-10,-16c0,0,-6,-6,-18,-10c0,0,-12,-3,-29,-4c0,0,-18,-1,-44,-1c0,0,-25,0,-43,2c0,0,-18,2,-29,5c0,0,-12,4,-19,10c0,0,-6,6,-9,14L293,813h-2V26c0,0,0,-7,-4,-13c0,0,-4,-6,-15,-10c0,0,-11,-3,-29,-5c0,0,-17,-2,-45,-2Z" 
id="f0_1x"
transform="scale(0.001,-0.001)" />

<path d="M193,-4c0,0,-26,0,-43,2c0,0,-18,2,-27,6c0,0,-10,4,-14,10c0,0,-3,6,-3,13V895c0,0,0,35,20,53c0,0,21,17,50,17H282c0,0,28,0,47,-5c0,0,20,-5,35,-16c0,0,15,-11,29,-31c0,0,13,-20,27,-49L608,511c0,0,17,-32,33,-63c0,0,16,-31,31,-62c0,0,14,-31,29,-60c0,0,14,-30,27,-60h1c0,0,-2,52,-3,109c0,0,-1,57,-1,108V936c0,0,0,7,4,13c0,0,5,6,15,11c0,0,10,4,28,6c0,0,17,2,44,2c0,0,25,0,42,-2c0,0,17,-2,27,-6c0,0,9,-5,13,-11c0,0,4,-6,4,-13V68c0,0,0,-17,-6,-30c0,0,-6,-14,-17,-23C879,15,869,6,856,2c0,0,-14,-3,-28,-3H744c0,0,-26,0,-45,4c0,0,-19,5,-35,19c0,0,-16,14,-31,38c0,0,-15,23,-34,60L359,572c0,0,-21,40,-43,86c0,0,-21,47,-38,91h-2c0,0,3,-54,5,-107c0,0,2,-53,2,-110V27c0,0,0,-7,-5,-13c0,0,-4,-6,-14,-10c0,0,-10,-4,-27,-6c0,0,-17,-2,-44,-2Z" 
id="f0_1y"
transform="scale(0.001,-0.001)" />

<path d="M378,-4c0,0,-28,0,-47,2c0,0,-19,2,-31,5c0,0,-11,4,-16,10c0,0,-4,6,-4,13V805H38c0,0,-8,0,-13,4c0,0,-5,5,-9,14c0,0,-3,9,-5,25c0,0,-2,15,-2,37c0,0,0,22,2,38c0,0,2,15,5,25c0,0,4,9,9,13c0,0,5,4,13,4H718c0,0,7,0,12,-4c0,0,6,-4,10,-13c0,0,3,-10,5,-25c0,0,2,-16,2,-38c0,0,0,-22,-2,-37c0,0,-2,-16,-5,-25c0,0,-4,-9,-10,-14c0,0,-5,-4,-12,-4H476V26c0,0,0,-7,-5,-13c0,0,-5,-6,-16,-10c0,0,-11,-3,-30,-5c0,0,-19,-2,-47,-2Z" 
id="f0_2t"
transform="scale(0.001,-0.001)" />

<path d="M514,145c0,0,72,0,121,27c0,0,48,26,78,73c0,0,30,46,42,107c0,0,13,62,13,131c0,0,0,76,-12,139c0,0,-12,62,-41,106c0,0,-29,45,-76,69c0,0,-48,24,-120,24c0,0,-72,0,-120,-27c0,0,-49,-27,-79,-73c0,0,-29,-45,-42,-106c0,0,-12,-61,-12,-129c0,0,0,-79,12,-142c0,0,12,-63,40,-108c0,0,28,-44,76,-68c0,0,48,-23,120,-23ZM508,-17c0,0,-113,0,-196,29c0,0,-84,29,-140,90c0,0,-56,60,-84,154c0,0,-28,93,-28,221c0,0,0,117,29,210c0,0,30,94,89,160c0,0,59,65,146,101c0,0,87,35,202,35c0,0,110,0,194,-29c0,0,84,-30,140,-90c0,0,56,-60,85,-153c0,0,29,-92,29,-217c0,0,0,-120,-30,-215c0,0,-30,-95,-89,-161C855,118,796,52,709,17c0,0,-87,-34,-201,-34Z" 
id="f0_24"
transform="scale(0.001,-0.001)" />

<path d="M407,475c0,0,61,0,105,44c0,0,44,43,44,103c0,0,0,64,-43,108c0,0,-44,43,-109,43c0,0,-57,0,-99,-44c0,0,-42,-45,-42,-107c0,0,0,-62,42,-104c0,0,42,-43,102,-43ZM195,0L430,323c0,0,-67,-8,-85,-8c0,0,-126,0,-212,92c0,0,-87,92,-87,227c0,0,0,141,107,237c0,0,106,96,264,96c0,0,151,0,246,-97c0,0,95,-96,95,-250c0,0,0,-112,-56,-223c0,0,-55,-112,-94,-168L448,0Z" 
id="f1_t"
transform="scale(0.001,-0.001)" />

<path d="M44,-281L425,1053H537L156,-281Z" 
id="f1_j"
transform="scale(0.001,-0.001)" />

<path d="M299,0V777H162l36,173H508V0Z" 
id="f1_l"
transform="scale(0.001,-0.001)" />

<path d="M67,0V109L206,235c0,0,133,118,196,190c0,0,63,72,90,149c0,0,27,77,27,177c0,0,0,97,-44,148c0,0,-44,50,-144,50c0,0,-39,0,-81,-10c0,0,-42,-11,-74,-29L150,787H101V980c0,0,135,32,230,32c0,0,164,0,247,-68c0,0,82,-69,82,-193c0,0,0,-84,-32,-158c0,0,-33,-75,-100,-148c0,0,-67,-74,-222,-206c0,0,-67,-57,-141,-125H680V0Z" 
id="f2_m"
transform="scale(0.001,-0.001)" />

<path d="M399,-14c0,0,-341,0,-341,370c0,0,0,175,87,269c0,0,87,95,249,95c0,0,101,0,220,-23V501H573L541,625c0,0,-62,35,-149,35c0,0,-200,0,-200,-304c0,0,0,-158,61,-225c0,0,61,-67,189,-67c0,0,109,0,189,24V43C631,43,595,16,530,1c0,0,-64,-15,-131,-15Z" 
id="f2_1z"
transform="scale(0.001,-0.001)" />

<path d="M377,45c0,0,99,0,147,73c0,0,47,73,47,237c0,0,0,161,-47,233c0,0,-47,72,-147,72c0,0,-97,0,-141,-69c0,0,-44,-69,-44,-236c0,0,0,-169,45,-240c0,0,44,-70,140,-70Zm0,-59c0,0,-158,0,-238,94c0,0,-81,95,-81,274c0,0,0,178,81,272c0,0,80,94,244,94c0,0,160,0,241,-92c0,0,82,-92,82,-274c0,0,0,-368,-329,-368Z" 
id="f2_2b"
transform="scale(0.001,-0.001)" />

<path d="M278,-14c0,0,-52,0,-115,11c0,0,-63,10,-99,23V193H98L134,95c0,0,56,-50,146,-50c0,0,144,0,144,123c0,0,0,91,-114,130l-66,21c0,0,-75,25,-110,50c0,0,-34,26,-53,63c0,0,-18,36,-18,89c0,0,0,92,63,145c0,0,63,54,170,54c0,0,77,0,193,-23V544H454l-32,81c0,0,-39,35,-124,35c0,0,-61,0,-92,-30c0,0,-32,-30,-32,-80c0,0,0,-43,29,-72c0,0,28,-29,86,-48c0,0,110,-38,144,-55c0,0,33,-17,57,-42c0,0,23,-25,36,-57c0,0,13,-32,13,-79c0,0,0,-104,-66,-158c0,0,-66,-53,-195,-53Z" 
id="f2_2f"
transform="scale(0.001,-0.001)" />

<path d="M13,0V34L95,46L325,350L122,649L40,668v33H357V668L264,648L399,446L554,649l-96,19v33H710V668L630,652L433,397L663,50L745,34V0H427V34l94,17L359,299L169,50L266,34V0Z" 
id="f2_2k"
transform="scale(0.001,-0.001)" />

<path d="M383,64c0,0,85,0,152,28V645c0,0,-67,13,-152,13c0,0,-194,0,-194,-314c0,0,0,-141,48,-211c0,0,48,-69,146,-69ZM342,-14c0,0,-287,0,-287,358c0,0,0,184,82,280c0,0,81,96,239,96c0,0,81,0,163,-18c0,0,-4,25,-4,124v182l-118,18v34H659V52L745,33V0H548l-9,52c0,0,-84,-66,-197,-66Z" 
id="f2_20"
transform="scale(0.001,-0.001)" />

<path d="M460,-325c0,0,-148,79,-231,172c0,0,-84,93,-123,217c0,0,-39,126,-39,304c0,0,0,178,39,303c0,0,39,125,122,217c0,0,82,93,232,172V997c0,0,-91,-52,-145,-134c0,0,-54,-81,-79,-190c0,0,-25,-109,-25,-305c0,0,0,-194,26,-309c0,0,26,-114,82,-193c0,0,56,-79,141,-128v-63Z" 
id="f2_c"
transform="scale(0.001,-0.001)" />

<path d="M134,0V40L339,60V876L137,804v39l292,166h39V60L672,40V0Z" 
id="f2_l"
transform="scale(0.001,-0.001)" />

<path d="M49,-325v63c0,0,85,49,140,128c0,0,56,79,83,194c0,0,26,115,26,308c0,0,0,196,-25,305c0,0,-25,109,-79,190c0,0,-54,82,-145,134v63c0,0,149,-80,232,-172c0,0,83,-92,122,-217c0,0,39,-125,39,-303c0,0,0,-177,-39,-303c0,0,-39,-125,-122,-217c0,0,-83,-93,-232,-173Z" 
id="f2_d"
transform="scale(0.001,-0.001)" />

<path d="M0,356v74H784V356Z" 
id="f3_h"
transform="scale(0.001,-0.001)" />

<path d="M316,27c0,0,57,0,105,53c0,0,65,72,125,295c0,0,-40,153,-104,214c0,0,-63,61,-129,61c0,0,-73,0,-122,-80c0,0,-48,-80,-48,-255c0,0,0,-104,20,-163c0,0,21,-60,64,-92c0,0,42,-33,89,-33Zm4,-49c0,0,-165,0,-243,108C77,86,0,196,0,336c0,0,0,164,91,265c0,0,91,102,213,102c0,0,85,0,150,-52c0,0,65,-51,118,-192l65,224H760L662,344c0,0,-9,-32,-30,-100c0,0,29,-115,43,-137c0,0,27,-41,68,-41c0,0,30,0,55,24c0,0,26,25,34,77h30C862,167,852,60,817,19c0,0,-35,-40,-81,-40c0,0,-42,0,-77,34c0,0,-35,36,-62,154c0,0,-33,-65,-65,-99C532,68,488,22,437,0c0,0,-52,-22,-117,-22Z" 
id="f3_1x"
transform="scale(0.001,-0.001)" />

<path d="M0,214v74H784V214ZM0,494v72H784V494Z" 
id="f3_x"
transform="scale(0.001,-0.001)" />

<path d="M88,-163c0,0,-39,0,-63,25c0,0,-25,26,-25,65c0,0,0,34,19,54c0,0,19,19,48,19c0,0,30,0,51,-23c0,0,22,-24,37,-24c0,0,12,0,21,11c0,0,8,10,8,35c0,0,0,30,-7,88c0,0,-27,235,-27,620c0,0,13,411,17,446c0,0,17,139,60,188c0,0,43,48,98,48c0,0,37,0,65,-25c0,0,28,-25,28,-54c0,0,0,-35,-19,-57c0,0,-20,-21,-49,-21c0,0,-26,0,-57,27c0,0,-17,15,-30,15c0,0,-12,0,-21,-11c0,0,-8,-11,-8,-37c0,0,0,-31,6,-108c0,0,28,-306,28,-496c0,0,0,-50,-12,-439c0,0,-6,-219,-67,-296c0,0,-41,-50,-101,-50Z" 
id="f3_50"
transform="scale(0.001,-0.001)" />

<path d="M32,0V33L151,52V649L52,668v33H275V52L395,33V0ZM201,850c0,0,-32,0,-56,24c0,0,-24,24,-24,56c0,0,0,34,24,58c0,0,24,24,56,24c0,0,34,0,58,-24c0,0,24,-24,24,-58c0,0,0,-32,-24,-56c0,0,-24,-24,-58,-24Z" 
id="f2_25"
transform="scale(0.001,-0.001)" />

<path d="M439,0V33l93,19V500c0,0,0,62,-30,97c0,0,-31,36,-94,36c0,0,-67,0,-165,-22V52L338,33V0H35V33l84,19V649L35,668v33H235l7,-57c0,0,57,33,122,54c0,0,65,22,108,22c0,0,91,0,137,-53c0,0,47,-53,47,-154V52L741,33V0Z" 
id="f2_2a"
transform="scale(0.001,-0.001)" />

<path d="M355,0V355H0v72H355V784h72V427H782V355H427V0Z" 
id="f3_f"
transform="scale(0.001,-0.001)" />

<path d="M490,63c0,0,93,0,170,73c0,0,77,74,126,213c0,0,50,138,50,280c0,0,0,141,-57,223c0,0,-57,81,-158,81c0,0,-91,0,-168,-75c0,0,-76,-74,-125,-215c0,0,-48,-142,-48,-281c0,0,0,-140,55,-220c0,0,55,-79,155,-79ZM477,-14c0,0,-124,0,-220,50c0,0,-96,51,-149,144c0,0,-53,93,-53,211c0,0,0,180,73,323c0,0,73,143,206,220c0,0,132,77,305,77c0,0,123,0,219,-51c0,0,96,-51,149,-144c0,0,53,-93,53,-210c0,0,0,-179,-75,-326C985,280,910,134,780,60c0,0,-130,-74,-303,-74Z" 
id="f4_1f"
transform="scale(0.001,-0.001)" />

<path d="M467,506c0,0,122,0,192,60c0,0,69,61,69,170c0,0,0,97,-45,140c0,0,-45,42,-132,42H499L426,506ZM653,0L498,423H412L350,74L474,54L465,0H-1L7,54L129,74L279,926L154,945l10,55H563c0,0,196,0,290,-62c0,0,94,-62,94,-190c0,0,0,-116,-63,-194c0,0,-63,-78,-183,-110L851,74L961,54L952,0Z" 
id="f4_1i"
transform="scale(0.001,-0.001)" />

<path d="M55,0V40L184,60V941L55,960v40H455V960L327,941V60L455,40V0Z" 
id="f2_19"
transform="scale(0.001,-0.001)" />

<path d="M350,-14c0,0,-142,0,-269,31L73,228h49L156,87c0,0,29,-16,82,-28c0,0,54,-12,100,-12c0,0,117,0,173,54c0,0,56,53,56,178c0,0,0,99,-52,150c0,0,-51,51,-159,56l-107,6v61l107,7c0,0,84,5,124,52c0,0,41,48,41,145c0,0,0,101,-44,147c0,0,-44,45,-139,45c0,0,-40,0,-83,-10c0,0,-43,-11,-76,-29L153,786H104V979c0,0,74,19,127,26c0,0,54,6,107,6c0,0,321,0,321,-246c0,0,0,-104,-57,-165c0,0,-57,-62,-162,-77c0,0,136,-16,200,-78c0,0,64,-62,64,-173c0,0,0,-135,-92,-211c0,0,-93,-75,-262,-75Z" 
id="f2_n"
transform="scale(0.001,-0.001)" />

<path d="M0,-123V985c0,0,0,202,88,304c0,0,88,101,278,126v-33c0,0,-112,-27,-179,-86c0,0,-67,-59,-91,-136c0,0,-24,-76,-24,-252V-123Z" 
id="f3_4u"
transform="scale(0.001,-0.001)" />

<path d="M313,-123V908c0,0,0,111,-11,190c0,0,-11,80,-46,133c0,0,-35,54,-94,93c0,0,-59,39,-141,58v33c0,0,189,-25,276,-126c0,0,88,-101,88,-304V-123Z" 
id="f3_5a"
transform="scale(0.001,-0.001)" />

<path d="M293,-123V191c0,0,0,200,-67,292c0,0,-67,92,-226,135v57c0,0,159,44,226,135c0,0,67,92,67,292v313h73V1088c0,0,0,-108,-23,-189c0,0,-22,-80,-61,-127c0,0,-39,-46,-95,-75c0,0,-56,-28,-153,-51c0,0,97,-21,157,-52c0,0,61,-31,99,-82c0,0,39,-51,57,-125c0,0,19,-74,19,-180V-123Z" 
id="f3_4v"
transform="scale(0.001,-0.001)" />

<path d="M313,-123V203c0,0,0,108,22,188c0,0,23,81,62,127c0,0,39,47,95,76c0,0,56,29,153,50c0,0,-98,22,-158,53c0,0,-60,32,-99,82c0,0,-39,50,-57,124c0,0,-18,74,-18,181v331h72V1099c0,0,0,-200,67,-291c0,0,68,-92,227,-135V616c0,0,-159,-44,-227,-136c0,0,-67,-92,-67,-292V-123Z" 
id="f3_5b"
transform="scale(0.001,-0.001)" />

<path d="M679,-123c0,0,-190,24,-278,124c0,0,-88,101,-88,305V1415h72V383c0,0,0,-111,12,-191c0,0,11,-79,46,-133c0,0,35,-53,94,-91c0,0,59,-39,142,-58v-33Z" 
id="f3_4w"
transform="scale(0.001,-0.001)" />

<path d="M21,-123v33c0,0,111,26,178,86c0,0,67,58,90,134c0,0,24,77,24,253V1415h72V306c0,0,0,-203,-88,-304C297,2,210,-99,21,-123Z" 
id="f3_5c"
transform="scale(0.001,-0.001)" />

<path d="M31,0V33L150,52v956L31,1026v34H274V52L394,33V0Z" 
id="f2_28"
transform="scale(0.001,-0.001)" />

<path d="M495,413c0,0,0,133,-34,190c0,0,-34,57,-105,57c0,0,-78,0,-119,-63c0,0,-42,-62,-42,-184ZM374,-14c0,0,-163,0,-239,87c0,0,-75,88,-75,283c0,0,0,183,77,273c0,0,76,91,219,91c0,0,269,0,269,-306V353H194V340c0,0,0,-103,23,-160c0,0,22,-57,70,-87c0,0,47,-29,124,-29c0,0,40,0,96,6c0,0,55,7,91,15V43C598,43,562,20,500,3c0,0,-61,-17,-126,-17Z" 
id="f2_21"
transform="scale(0.001,-0.001)" />

<path d="M249,-14c0,0,-71,0,-107,42c0,0,-35,42,-35,119V639H15v33l93,29l76,159h47V701H391V639H231V161c0,0,0,-48,22,-73c0,0,22,-24,57,-24c0,0,44,0,106,12V26C416,26,389,8,340,-2c0,0,-49,-12,-91,-12Z" 
id="f2_2g"
transform="scale(0.001,-0.001)" />

<path d="M191,-20c0,0,-39,0,-65,25c0,0,-25,27,-25,64c0,0,0,38,26,64c0,0,26,26,64,26c0,0,38,0,64,-26c0,0,26,-26,26,-64c0,0,0,-37,-25,-64c0,0,-26,-25,-65,-25Z" 
id="f2_i"
transform="scale(0.001,-0.001)" />

<path d="M83,0C83,0,48,0,24,24C24,24,0,49,0,83c0,0,0,34,24,58c0,0,24,24,59,24c0,0,34,0,58,-24c0,0,24,-24,24,-58c0,0,0,-34,-24,-59C141,24,117,0,83,0ZM695,0c0,0,-34,0,-58,24c0,0,-25,25,-25,59c0,0,0,34,25,58c0,0,24,24,58,24c0,0,34,0,58,-24c0,0,24,-24,24,-58c0,0,0,-34,-24,-59C753,24,729,0,695,0ZM388,594c0,0,-34,0,-59,23c0,0,-24,24,-24,59c0,0,0,34,24,58c0,0,25,25,59,25c0,0,34,0,58,-25c0,0,24,-24,24,-58c0,0,0,-35,-24,-59c0,0,-24,-23,-58,-23Z" 
id="f3_1s"
transform="scale(0.001,-0.001)" />

<path d="M945,-20c0,0,47,75,125,153H57v74H1147l108,91c0,0,23,19,95,72c0,0,-134,103,-203,166H57v72H1070c0,0,-78,78,-125,154h85c0,0,88,-107,217,-217c0,0,130,-110,206,-154V349c0,0,-101,-58,-219,-162c0,0,-118,-103,-204,-207Z" 
id="f3_4g"
transform="scale(0.001,-0.001)" />

<path d="M868,0L251,900V60L385,40V0H44V40L172,60V941L44,960v40H347L862,259V941L727,960v40h341V960L940,941V0Z" 
id="f2_1e"
transform="scale(0.001,-0.001)" />

<path d="M327,-14L84,649L1,668v33H335V668L219,648L385,174L554,632h63L786,171L944,649L830,668v33h267V668l-78,-16L784,-14H726L553,448L382,-14Z" 
id="f2_2j"
transform="scale(0.001,-0.001)" />

<path d="M359,-270c0,0,124,0,192,46c0,0,67,47,67,129c0,0,0,43,-26,67c0,0,-26,24,-79,24H242c0,0,-32,-27,-51,-69c0,0,-20,-41,-20,-77c0,0,0,-64,46,-92c0,0,46,-28,142,-28Zm11,561c0,0,81,0,115,47c0,0,34,47,34,141c0,0,0,100,-35,142c0,0,-35,42,-113,42c0,0,-78,0,-114,-43c0,0,-37,-42,-37,-141c0,0,0,-98,36,-143c0,0,36,-45,114,-45ZM359,-329c0,0,-143,0,-218,44c0,0,-75,43,-75,125c0,0,0,39,27,78c0,0,26,38,98,89c0,0,-43,14,-72,48c0,0,-29,35,-29,74L208,262c0,0,-118,55,-118,217c0,0,0,115,73,178c0,0,73,63,211,63c0,0,28,0,71,-6c0,0,44,-6,67,-13l165,83l26,-32L599,644c0,0,50,-56,50,-165c0,0,0,-120,-72,-182c0,0,-73,-62,-208,-62c0,0,-62,0,-114,11L208,148c0,0,2,-13,29,-24c0,0,27,-12,67,-12H512c0,0,113,0,168,-49c0,0,55,-49,55,-134c0,0,0,-79,-44,-137c0,0,-43,-58,-128,-90c0,0,-84,-31,-204,-31Z" 
id="f2_23"
transform="scale(0.001,-0.001)" />

<path d="M113,-203V1060H454v-35L232,994V-138l222,-30v-35Z" 
id="f2_1r"
transform="scale(0.001,-0.001)" />

<path d="M55,-203v35l222,30V994L55,1025v35H395V-203Z" 
id="f2_1t"
transform="scale(0.001,-0.001)" />

<path d="M115,-329V1060h76V-329Z" 
id="f2_2o"
transform="scale(0.001,-0.001)" />

<path d="M377,45c0,0,100,0,147,52c0,0,47,52,47,174c0,0,0,119,-46,173c0,0,-47,54,-148,54c0,0,-98,0,-141,-51c0,0,-44,-51,-44,-176c0,0,0,-126,44,-176c0,0,44,-50,141,-50Zm2,518c0,0,84,0,123,46c0,0,39,46,39,148c0,0,0,102,-40,151c0,0,-41,48,-122,48c0,0,-79,0,-118,-47c0,0,-38,-47,-38,-152c0,0,0,-104,37,-149c0,0,38,-45,119,-45ZM377,-14c0,0,-319,0,-319,285c0,0,0,99,48,164c0,0,48,66,129,96c0,0,-65,30,-106,87c0,0,-40,56,-40,139c0,0,0,123,75,191c0,0,76,68,219,68c0,0,139,0,216,-67c0,0,76,-68,76,-192c0,0,0,-82,-40,-139c0,0,-40,-57,-108,-87c0,0,85,-31,132,-98c0,0,47,-67,47,-162c0,0,0,-142,-80,-214c0,0,-80,-71,-249,-71Z" 
id="f2_s"
transform="scale(0.001,-0.001)" />

<path d="M44,0V40L172,60V941L44,960v40H794V760H745L721,922c0,0,-83,11,-241,11H316V543H586l23,119h48V354H609L586,475H316V67H513c0,0,193,0,252,12l43,185h49L843,0Z" 
id="f2_15"
transform="scale(0.001,-0.001)" />

<path d="M360,-14L72,649L0,668v33H327V668L216,648L420,164L615,649L504,668v33H764V668L697,652L416,-14Z" 
id="f2_2i"
transform="scale(0.001,-0.001)" />

<path d="M284,67c0,0,51,0,88,12c0,0,37,12,74,30V358l-98,-3c0,0,-100,-4,-135,-39c0,0,-35,-35,-35,-117c0,0,0,-132,106,-132ZM233,-14c0,0,-179,0,-179,208c0,0,0,70,27,116c0,0,27,46,87,70c0,0,60,24,173,27l105,3V519c0,0,0,72,-26,107c0,0,-27,34,-82,34c0,0,-75,0,-137,-35L176,538H134V691c0,0,121,26,213,26c0,0,115,0,169,-47c0,0,54,-47,54,-144V52L657,33V0H465L451,70c0,0,-85,-84,-218,-84Z" 
id="f2_1x"
transform="scale(0.001,-0.001)" />

<path d="M289,-14c0,0,-179,0,-179,205V649L20,668v33H233V200c0,0,0,-128,120,-128c0,0,92,0,173,23V649L420,668v33H649V52L738,33V0H533l-6,57C527,57,474,28,405,7c0,0,-69,-21,-116,-21Z" 
id="f2_2h"
transform="scale(0.001,-0.001)" />

<path d="M211,-20c0,0,-39,0,-64,25c0,0,-26,27,-26,64c0,0,0,38,26,64c0,0,26,26,64,26c0,0,37,0,64,-25c0,0,26,-26,26,-65c0,0,0,-37,-26,-64c0,0,-26,-25,-64,-25Zm0,556c0,0,-38,0,-64,26c0,0,-26,26,-26,64c0,0,0,37,26,64c0,0,25,27,64,27c0,0,38,0,64,-27c0,0,26,-27,26,-64c0,0,0,-38,-26,-64c0,0,-27,-26,-64,-26Z" 
id="f2_u"
transform="scale(0.001,-0.001)" />

<path d="M350,-14c0,0,-142,0,-253,31L89,228h49L172,87c0,0,32,-18,78,-29c0,0,46,-11,88,-11c0,0,118,0,173,56c0,0,56,55,56,187c0,0,0,93,-24,140c0,0,-24,47,-76,70c0,0,-52,22,-140,22c0,0,-68,0,-133,-18H122v496H630V886H189V567c0,0,81,18,173,18c0,0,173,0,258,-71c0,0,84,-71,84,-216c0,0,0,-151,-92,-232c0,0,-91,-80,-262,-80Z" 
id="f2_p"
transform="scale(0.001,-0.001)" />

<path d="M410,-14c0,0,-80,0,-162,14c0,0,-81,14,-144,38V270h48L178,134c0,0,28,-35,95,-62c0,0,68,-27,134,-27c0,0,104,0,163,53c0,0,58,54,58,148c0,0,0,54,-23,89c0,0,-22,35,-59,59c0,0,-37,24,-84,41c0,0,-47,17,-97,34c0,0,-49,17,-96,38c0,0,-47,21,-84,53c0,0,-37,32,-60,79c0,0,-23,48,-23,117c0,0,0,119,90,187c0,0,89,68,248,68c0,0,121,0,263,-32V771H654L628,893c0,0,-76,55,-188,55c0,0,-100,0,-156,-40c0,0,-56,-41,-56,-112c0,0,0,-49,22,-81c0,0,23,-32,60,-55c0,0,37,-22,84,-39c0,0,48,-16,97,-34c0,0,50,-17,97,-39c0,0,48,-22,85,-56c0,0,36,-34,59,-83c0,0,23,-49,23,-120c0,0,0,-145,-89,-224c0,0,-89,-79,-256,-79Z" 
id="f2_1j"
transform="scale(0.001,-0.001)" />


</defs>
</svg>