<?xml version="1.0" encoding="UTF-8" standalone="no"?>
<!DOCTYPE svg PUBLIC "-//W3C//DTD SVG 1.1//EN"
"http://www.w3.org/Graphics/SVG/1.1/DTD/svg11.dtd">
<svg viewBox="0 0 909 1286" version="1.1" xmlns="http://www.w3.org/2000/svg" xmlns:xlink="http://www.w3.org/1999/xlink">
<defs>
<clipPath id="c0_128"><path d="M55.2,218V161.2H187.9V218Z" /></clipPath>
<clipPath id="c1_128"><path d="M55.2,323.6V266.1H189.7v57.5Z" /></clipPath>
<clipPath id="c2_128"><path d="M55.2,394V336.5H482.8V394Z" /></clipPath>
<clipPath id="c3_128"><path d="M55.2,464.4V406.9H298.7v57.5Z" /></clipPath>
<clipPath id="c4_128"><path d="M55.2,570V512.5H214.5V570Z" /></clipPath>
<clipPath id="c5_128"><path d="M55.2,640.4V582.9H217.7v57.5Z" /></clipPath>
<clipPath id="c6_128"><path d="M55.2,712.3V652.9H507.5v59.4Z" /></clipPath>
<clipPath id="c7_128"><path d="M55.2,783V725.5H217V783Z" /></clipPath>
<clipPath id="c8_128"><path d="M150.5,818.6V796.1H273.9v22.5Z" /></clipPath>
<clipPath id="c9_128"><path d="M184.3,857.1V831.3h56.6v25.8Z" /></clipPath>
<clipPath id="c10_128"><path d="M55.2,961.9V905.2H172.8v56.7Z" /></clipPath>
<clipPath id="c11_128"><path d="M55.2,1033.8V974.5H341.8v59.3Z" /></clipPath>
<clipPath id="c12_128"><path d="M55.2,1081.5v-34.9H234.5v34.9Z" /></clipPath>
<clipPath id="c13_128"><path d="M55.2,1143.1v-48.8H162.5v48.8Z" /></clipPath>
<style type="text/css"><![CDATA[
.g0_128{
fill: #D9D9D9;
}
.g1_128{
fill: none;
stroke: #000000;
stroke-width: 0.7638889;
stroke-linecap: butt;
stroke-linejoin: miter;
}
.g2_128{
fill: none;
stroke: #000000;
stroke-width: 0.211173;
stroke-linecap: square;
stroke-linejoin: round;
}
.g3_128{
}
.g4_128{
fill: none;
stroke: #000000;
stroke-width: 0.9038054;
stroke-linecap: butt;
stroke-linejoin: round;
}
.g5_128{
fill: none;
stroke: #000000;
stroke-width: 0.90572715;
stroke-linecap: butt;
stroke-linejoin: round;
}
.g6_128{
fill: none;
stroke: #000000;
stroke-width: 0.911776;
stroke-linecap: butt;
stroke-linejoin: round;
}
.g7_128{
fill: none;
stroke: #000000;
stroke-width: 0.9120712;
stroke-linecap: butt;
stroke-linejoin: round;
}
.g8_128{
fill: none;
stroke: #000000;
stroke-width: 0.9003986;
stroke-linecap: butt;
stroke-linejoin: round;
}
.g9_128{
fill: none;
stroke: #000000;
stroke-width: 0.90151954;
stroke-linecap: butt;
stroke-linejoin: round;
}
.g10_128{
fill: none;
stroke: #000000;
stroke-width: 0.91250706;
stroke-linecap: butt;
stroke-linejoin: round;
}
.g11_128{
fill: none;
stroke: #000000;
stroke-width: 0.9059143;
stroke-linecap: butt;
stroke-linejoin: round;
}
.g12_128{
fill: none;
stroke: #000000;
stroke-width: 0.90374976;
stroke-linecap: butt;
stroke-linejoin: round;
}
.g13_128{
fill: none;
stroke: #000000;
stroke-width: 0.90862215;
stroke-linecap: butt;
stroke-linejoin: round;
}
.g14_128{
fill: none;
stroke: #000000;
stroke-width: 0.90532357;
stroke-linecap: butt;
stroke-linejoin: round;
}
]]></style>
</defs>
<image preserveAspectRatio="none" x="747" y="1196" width="96" height="59" xlink:href="img/1.png" />
<image preserveAspectRatio="none" x="336" y="41" width="259" height="51" xlink:href="img/2.png" />
<image preserveAspectRatio="none" x="342" y="50" width="247" height="27" xlink:href="img/3.png" />
<image preserveAspectRatio="none" x="341" y="45" width="239" height="42" xlink:href="img/4.png" />
<g fill="#FFFFFF" >
<use xlink:href="#f0_j" transform="matrix(11.5,0,0,11.5,355.1,70.1)" />
<use xlink:href="#f0_i" transform="matrix(11.5,0,0,11.5,364.3,70.1)" />
<use xlink:href="#f0_2n" transform="matrix(11.5,0,0,11.5,374.1,70.1)" />
<use xlink:href="#f0_t" transform="matrix(11.5,0,0,11.5,382.6,70.1)" />
<use xlink:href="#f0_oj" transform="matrix(11.5,0,0,11.5,391,70.1)" />
<use xlink:href="#f0_3e" transform="matrix(11.5,0,0,11.5,396.5,70.1)" />
<use xlink:href="#f0_1c" transform="matrix(11.5,0,0,11.5,406.1,70.1)" />
<use xlink:href="#f0_1c" transform="matrix(11.5,0,0,11.5,410.8,70.1)" />
<use xlink:href="#f0_oj" transform="matrix(11.5,0,0,11.5,415.6,70.1)" />
<use xlink:href="#f0_rz" transform="matrix(11.5,0,0,11.5,421.1,70.1)" />
<use xlink:href="#f0_rx" transform="matrix(11.5,0,0,11.5,429.9,70.1)" />
<use xlink:href="#f0_ry" transform="matrix(11.5,0,0,11.5,438.7,70.1)" />
<use xlink:href="#f0_s6" transform="matrix(11.5,0,0,11.5,447.5,70.1)" />
<use xlink:href="#f0_t" transform="matrix(11.5,0,0,11.5,460.4,70.1)" />
<use xlink:href="#f0_3e" transform="matrix(11.5,0,0,11.5,468.8,70.1)" />
<use xlink:href="#f0_5" transform="matrix(11.5,0,0,11.5,478.3,70.1)" />
<use xlink:href="#f0_1x" transform="matrix(11.5,0,0,11.5,489,70.1)" />
<use xlink:href="#f0_1c" transform="matrix(11.5,0,0,11.5,504.4,70.1)" />
<use xlink:href="#f0_1y" transform="matrix(11.5,0,0,11.5,509.1,70.1)" />
<use xlink:href="#f0_5" transform="matrix(11.5,0,0,11.5,520.8,70.1)" />
<use xlink:href="#f0_2t" transform="matrix(11.5,0,0,11.5,531.5,70.1)" />
<use xlink:href="#f0_1c" transform="matrix(11.5,0,0,11.5,540.2,70.1)" />
<use xlink:href="#f0_24" transform="matrix(11.5,0,0,11.5,545,70.1)" />
<use xlink:href="#f0_1y" transform="matrix(11.5,0,0,11.5,556.7,70.1)" />
</g>
<image preserveAspectRatio="none" x="554" y="45" width="36" height="42" xlink:href="img/5.png" />
<g fill="#FFFFFF" >
<use xlink:href="#f1_l" transform="matrix(11,0,0,11,770.3,1227.6)" />
<use xlink:href="#f1_k" transform="matrix(11,0,0,11,779.1,1227.6)" />
<use xlink:href="#f1_j" transform="matrix(11,0,0,11,792.3,1227.6)" />
<use xlink:href="#f1_m" transform="matrix(11,0,0,11,802.9,1227.6)" />
<use xlink:href="#f1_p" transform="matrix(11,0,0,11,811.7,1227.6)" />
</g>
<path fill-rule="evenodd" d="M52.8,1193.5H856.9v-.8H52.8v.8Z" class="g0_128" />
<path d="M37.9,99.4L873,98.5" class="g1_128" />
<g fill="#000000" >
<use xlink:href="#f2_15" transform="matrix(12,0,0,12,55,144.1)" />
<use xlink:href="#f2_2i" transform="matrix(12,0,0,12,66.4,144.1)" />
<use xlink:href="#f2_1x" transform="matrix(12,0,0,12,75.2,144.1)" />
<use xlink:href="#f2_28" transform="matrix(12,0,0,12,83.6,144.1)" />
<use xlink:href="#f2_2h" transform="matrix(12,0,0,12,88.4,144.1)" />
<use xlink:href="#f2_1x" transform="matrix(12,0,0,12,97.5,144.1)" />
<use xlink:href="#f2_2g" transform="matrix(12,0,0,12,105.6,144.1)" />
<use xlink:href="#f2_21" transform="matrix(12,0,0,12,111.1,144.1)" />
<use xlink:href="#f2_u" transform="matrix(12,0,0,12,123.9,144.1)" />
</g>
<path d="M70.9,208.7l1.9,-1.1m0,0l4.4,8.3m0,0l4.9,-22m0,0h80.2" class="g2_128" />
<path fill-rule="evenodd" d="M70,207.7l2.5,-1.5l4,7L81,192.7h80.5v.9H81.7L77,215.1H76l-4.5,-7.7l-1.2,.9l-.3,-.6Z" class="g3_128" />
<path d="M68.6,190.3H163" class="g4_128" />
<g clip-path="url(#c0_128)">
<g fill="#000000" >
<use xlink:href="#f2_m" transform="matrix(7.3,0,0,7.2,92,205)" />
<use xlink:href="#f2_m" transform="matrix(12.6,0,0,12.4,124.9,183)" />
<use xlink:href="#f2_p" transform="matrix(12.6,0,0,12.4,116,213.4)" />
<use xlink:href="#f2_q" transform="matrix(12.6,0,0,12.4,151.8,213.4)" />
<use xlink:href="#f3_2k" transform="matrix(12.6,0,0,12.4,98.9,183)" />
<use xlink:href="#f3_20" transform="matrix(12.6,0,0,12.4,165.7,195)" />
<use xlink:href="#f3_2k" transform="matrix(12.6,0,0,12.4,174.9,195)" />
<use xlink:href="#f3_2k" transform="matrix(12.6,0,0,12.4,83,213.4)" />
<use xlink:href="#f3_2k" transform="matrix(12.6,0,0,12.4,126.1,213.4)" />
<use xlink:href="#f4_f" transform="matrix(12.6,0,0,12.4,110.9,183)" />
<use xlink:href="#f4_f" transform="matrix(12.6,0,0,12.4,102.6,213.4)" />
<use xlink:href="#f4_f" transform="matrix(12.6,0,0,12.4,138.1,213.4)" />
<use xlink:href="#f4_50" transform="matrix(18.8,0,0,18.6,58.2,201.7)" />
</g>
</g>
<g fill="#000000" >
<use xlink:href="#f5_1j" transform="matrix(12,0,0,12,55,248.7)" />
<use xlink:href="#f5_2b" transform="matrix(12,0,0,12,65.3,248.7)" />
<use xlink:href="#f5_28" transform="matrix(12,0,0,12,74.5,248.7)" />
<use xlink:href="#f5_2h" transform="matrix(12,0,0,12,79.2,248.7)" />
<use xlink:href="#f5_2g" transform="matrix(12,0,0,12,89.5,248.7)" />
<use xlink:href="#f5_25" transform="matrix(12,0,0,12,95.7,248.7)" />
<use xlink:href="#f5_2b" transform="matrix(12,0,0,12,100.8,248.7)" />
<use xlink:href="#f5_2a" transform="matrix(12,0,0,12,110,248.7)" />
<use xlink:href="#f5_u" transform="matrix(12,0,0,12,120.2,248.7)" />
</g>
<path d="M96.2,294.8h68.4" class="g5_128" />
<g clip-path="url(#c1_128)">
<g fill="#000000" >
<use xlink:href="#f2_m" transform="matrix(7.3,0,0,7.1,145.5,305.8)" />
<use xlink:href="#f2_k" transform="matrix(7.3,0,0,7.1,87,319.4)" />
<use xlink:href="#f2_o" transform="matrix(12.6,0,0,12.3,103.6,287.6)" />
<use xlink:href="#f2_2f" transform="matrix(12.6,0,0,12.3,123.9,287.6)" />
<use xlink:href="#f2_25" transform="matrix(12.6,0,0,12.3,131.1,287.6)" />
<use xlink:href="#f2_2a" transform="matrix(12.6,0,0,12.3,136.2,287.6)" />
<use xlink:href="#f2_l" transform="matrix(12.6,0,0,12.3,95.4,314.1)" />
<use xlink:href="#f2_1z" transform="matrix(12.6,0,0,12.3,120.3,314.1)" />
<use xlink:href="#f2_2b" transform="matrix(12.6,0,0,12.3,128.3,314.1)" />
<use xlink:href="#f2_2f" transform="matrix(12.6,0,0,12.3,137.5,314.1)" />
<use xlink:href="#f3_2k" transform="matrix(12.6,0,0,12.3,114,287.6)" />
<use xlink:href="#f3_2k" transform="matrix(12.6,0,0,12.3,149.1,287.6)" />
<use xlink:href="#f3_19" transform="matrix(12.6,0,0,12.3,58.5,299.4)" />
<use xlink:href="#f3_20" transform="matrix(12.6,0,0,12.3,167.3,299.4)" />
<use xlink:href="#f3_2k" transform="matrix(12.6,0,0,12.3,176.5,299.4)" />
<use xlink:href="#f3_2k" transform="matrix(12.6,0,0,12.3,155.4,314.1)" />
<use xlink:href="#f4_2c" transform="matrix(7.3,0,0,7.1,86.8,278.3)" />
<use xlink:href="#f4_x" transform="matrix(12.6,0,0,12.3,71.1,299.4)" />
<use xlink:href="#f4_f" transform="matrix(12.6,0,0,12.3,106.6,314.1)" />
<use xlink:href="#f4_50" transform="matrix(18.9,0,0,18.4,85.9,306.1)" />
</g>
</g>
<path d="M96.3,365.2H229.5" class="g6_128" />
<g clip-path="url(#c2_128)">
<g fill="#000000" >
<use xlink:href="#f4_2n" transform="matrix(12.5,0,0,22.4,260.6,373.3)" />
<use xlink:href="#f2_m" transform="matrix(7.3,0,0,7.1,158.9,376.2)" />
<use xlink:href="#f2_k" transform="matrix(7.3,0,0,7.1,87,389.7)" />
<use xlink:href="#f2_o" transform="matrix(12.7,0,0,12.3,97.5,358)" />
<use xlink:href="#f2_c" transform="matrix(12.7,0,0,12.3,106.7,358)" />
<use xlink:href="#f2_d" transform="matrix(12.7,0,0,12.3,150,358)" />
<use xlink:href="#f2_2f" transform="matrix(12.7,0,0,12.3,157.7,358)" />
<use xlink:href="#f2_25" transform="matrix(12.7,0,0,12.3,164.9,358)" />
<use xlink:href="#f2_2a" transform="matrix(12.7,0,0,12.3,170,358)" />
<use xlink:href="#f2_c" transform="matrix(12.7,0,0,12.3,179.2,358)" />
<use xlink:href="#f2_d" transform="matrix(12.7,0,0,12.3,222.6,358)" />
<use xlink:href="#f2_c" transform="matrix(12.7,0,0,12.3,366.1,369.8)" />
<use xlink:href="#f2_d" transform="matrix(12.7,0,0,12.3,409.2,369.8)" />
<use xlink:href="#f2_c" transform="matrix(12.7,0,0,12.3,457.5,369.8)" />
<use xlink:href="#f2_d" transform="matrix(12.7,0,0,12.3,473.6,369.8)" />
<use xlink:href="#f2_l" transform="matrix(12.7,0,0,12.3,108.7,384.4)" />
<use xlink:href="#f2_1z" transform="matrix(12.7,0,0,12.3,133.7,384.4)" />
<use xlink:href="#f2_2b" transform="matrix(12.7,0,0,12.3,141.8,384.4)" />
<use xlink:href="#f2_2f" transform="matrix(12.7,0,0,12.3,150.9,384.4)" />
<use xlink:href="#f2_c" transform="matrix(12.7,0,0,12.3,166,384.4)" />
<use xlink:href="#f2_d" transform="matrix(12.7,0,0,12.3,209.4,384.4)" />
<use xlink:href="#f3_2k" transform="matrix(12.7,0,0,12.3,141.4,358)" />
<use xlink:href="#f3_2k" transform="matrix(12.7,0,0,12.3,214,358)" />
<use xlink:href="#f3_19" transform="matrix(12.7,0,0,12.3,58.5,369.8)" />
<use xlink:href="#f3_20" transform="matrix(12.7,0,0,12.3,229.2,369.8)" />
<use xlink:href="#f3_2k" transform="matrix(12.7,0,0,12.3,238.4,369.8)" />
<use xlink:href="#f3_11" transform="matrix(12.7,0,0,12.3,270.7,369.8)" />
<use xlink:href="#f3_2c" transform="matrix(12.7,0,0,12.3,281.9,369.8)" />
<use xlink:href="#f3_2c" transform="matrix(12.7,0,0,12.3,291.1,369.8)" />
<use xlink:href="#f3_28" transform="matrix(12.7,0,0,12.3,300.3,369.8)" />
<use xlink:href="#f3_2l" transform="matrix(12.7,0,0,12.3,305.4,369.8)" />
<use xlink:href="#f3_25" transform="matrix(12.7,0,0,12.3,313.5,369.8)" />
<use xlink:href="#f3_2a" transform="matrix(12.7,0,0,12.3,318.7,369.8)" />
<use xlink:href="#f3_23" transform="matrix(12.7,0,0,12.3,327.9,369.8)" />
<use xlink:href="#f3_22" transform="matrix(12.7,0,0,12.3,356.5,369.8)" />
<use xlink:href="#f3_1x" transform="matrix(12.7,0,0,12.3,372.6,369.8)" />
<use xlink:href="#f3_2k" transform="matrix(12.7,0,0,12.3,400.4,369.8)" />
<use xlink:href="#f3_22" transform="matrix(12.7,0,0,12.3,448,369.8)" />
<use xlink:href="#f3_2k" transform="matrix(12.7,0,0,12.3,464.9,369.8)" />
<use xlink:href="#f3_2k" transform="matrix(12.7,0,0,12.3,200.8,384.4)" />
<use xlink:href="#f4_2c" transform="matrix(7.3,0,0,7.1,86.8,348.7)" />
<use xlink:href="#f4_2c" transform="matrix(12.7,0,0,12.3,113.3,358)" />
<use xlink:href="#f4_h" transform="matrix(12.7,0,0,12.3,126.7,358)" />
<use xlink:href="#f4_2c" transform="matrix(12.7,0,0,12.3,185.8,358)" />
<use xlink:href="#f4_h" transform="matrix(12.7,0,0,12.3,199.2,358)" />
<use xlink:href="#f4_x" transform="matrix(12.7,0,0,12.3,71.1,369.8)" />
<use xlink:href="#f4_h" transform="matrix(12.7,0,0,12.3,385.9,369.8)" />
<use xlink:href="#f4_x" transform="matrix(12.7,0,0,12.3,419.7,369.8)" />
<use xlink:href="#f4_f" transform="matrix(12.7,0,0,12.3,119.9,384.4)" />
<use xlink:href="#f4_2c" transform="matrix(12.7,0,0,12.3,172.6,384.4)" />
<use xlink:href="#f4_h" transform="matrix(12.7,0,0,12.3,186.1,384.4)" />
<use xlink:href="#f4_50" transform="matrix(19,0,0,18.4,85.9,376.4)" />
<use xlink:href="#f4_50" transform="matrix(19,0,0,18.4,343,376.4)" />
<use xlink:href="#f4_50" transform="matrix(19,0,0,18.4,434.5,376.4)" />
</g>
</g>
<path d="M96.2,435.6h68.1m45.2,0h68.1" class="g7_128" />
<g clip-path="url(#c3_128)">
<g fill="#000000" >
<use xlink:href="#f2_m" transform="matrix(7.3,0,0,7.1,145.2,446.6)" />
<use xlink:href="#f2_m" transform="matrix(7.3,0,0,7.1,258.5,446.6)" />
<use xlink:href="#f2_k" transform="matrix(7.3,0,0,7.1,86.9,460.2)" />
<use xlink:href="#f2_k" transform="matrix(7.3,0,0,7.1,200.2,460.2)" />
<use xlink:href="#f2_o" transform="matrix(12.7,0,0,12.3,103.2,428.4)" />
<use xlink:href="#f2_2f" transform="matrix(12.7,0,0,12.3,124,428.4)" />
<use xlink:href="#f2_25" transform="matrix(12.7,0,0,12.3,131.1,428.4)" />
<use xlink:href="#f2_2a" transform="matrix(12.7,0,0,12.3,136.3,428.4)" />
<use xlink:href="#f2_o" transform="matrix(12.7,0,0,12.3,216.8,428.4)" />
<use xlink:href="#f2_2f" transform="matrix(12.7,0,0,12.3,237,428.4)" />
<use xlink:href="#f2_25" transform="matrix(12.7,0,0,12.3,244.1,428.4)" />
<use xlink:href="#f2_2a" transform="matrix(12.7,0,0,12.3,249.3,428.4)" />
<use xlink:href="#f2_l" transform="matrix(12.7,0,0,12.3,95.3,454.9)" />
<use xlink:href="#f2_1z" transform="matrix(12.7,0,0,12.3,120.2,454.9)" />
<use xlink:href="#f2_2b" transform="matrix(12.7,0,0,12.3,128.2,454.9)" />
<use xlink:href="#f2_2f" transform="matrix(12.7,0,0,12.3,137.3,454.9)" />
<use xlink:href="#f2_l" transform="matrix(12.7,0,0,12.3,208.7,454.9)" />
<use xlink:href="#f2_1z" transform="matrix(12.7,0,0,12.3,233.5,454.9)" />
<use xlink:href="#f2_2b" transform="matrix(12.7,0,0,12.3,241.6,454.9)" />
<use xlink:href="#f2_2f" transform="matrix(12.7,0,0,12.3,250.7,454.9)" />
<use xlink:href="#f3_2k" transform="matrix(12.7,0,0,12.3,149.1,428.4)" />
<use xlink:href="#f3_2k" transform="matrix(12.7,0,0,12.3,227.2,428.4)" />
<use xlink:href="#f3_2k" transform="matrix(12.7,0,0,12.3,262.1,428.4)" />
<use xlink:href="#f3_19" transform="matrix(12.7,0,0,12.3,58.5,440.2)" />
<use xlink:href="#f3_20" transform="matrix(12.7,0,0,12.3,164,440.2)" />
<use xlink:href="#f3_2k" transform="matrix(12.7,0,0,12.3,173.1,440.2)" />
<use xlink:href="#f3_20" transform="matrix(12.7,0,0,12.3,277.3,440.2)" />
<use xlink:href="#f3_2k" transform="matrix(12.7,0,0,12.3,286.5,440.2)" />
<use xlink:href="#f3_2k" transform="matrix(12.7,0,0,12.3,155.1,454.9)" />
<use xlink:href="#f3_2k" transform="matrix(12.7,0,0,12.3,268.5,454.9)" />
<use xlink:href="#f4_2c" transform="matrix(7.3,0,0,7.1,86.7,419.1)" />
<use xlink:href="#f4_2c" transform="matrix(7.3,0,0,7.1,200.1,419.1)" />
<use xlink:href="#f4_2c" transform="matrix(12.7,0,0,12.3,112.7,428.4)" />
<use xlink:href="#f4_x" transform="matrix(12.7,0,0,12.3,71,440.2)" />
<use xlink:href="#f4_h" transform="matrix(12.7,0,0,12.3,185.1,440.2)" />
<use xlink:href="#f4_f" transform="matrix(12.7,0,0,12.3,106.5,454.9)" />
<use xlink:href="#f4_f" transform="matrix(12.7,0,0,12.3,219.8,454.9)" />
<use xlink:href="#f4_50" transform="matrix(19,0,0,18.4,85.8,446.9)" />
<use xlink:href="#f4_50" transform="matrix(19,0,0,18.4,199.1,446.9)" />
</g>
</g>
<g fill="#000000" >
<use xlink:href="#f2_1f" transform="matrix(12,0,0,12,55,495.2)" />
<use xlink:href="#f2_2e" transform="matrix(12,0,0,12,68.3,495.2)" />
<use xlink:href="#f2_g" transform="matrix(12,0,0,12,74.5,495.2)" />
</g>
<path d="M96.3,541.2h68.3" class="g8_128" />
<g clip-path="url(#c4_128)">
<g fill="#000000" >
<use xlink:href="#f2_m" transform="matrix(7.2,0,0,7.1,145.4,552.2)" />
<use xlink:href="#f2_k" transform="matrix(7.2,0,0,7.1,87,565.8)" />
<use xlink:href="#f2_o" transform="matrix(12.5,0,0,12.3,103.4,534)" />
<use xlink:href="#f2_2f" transform="matrix(12.5,0,0,12.3,124.2,534)" />
<use xlink:href="#f2_25" transform="matrix(12.5,0,0,12.3,131.4,534)" />
<use xlink:href="#f2_2a" transform="matrix(12.5,0,0,12.3,136.6,534)" />
<use xlink:href="#f2_l" transform="matrix(12.5,0,0,12.3,95.4,560.5)" />
<use xlink:href="#f2_1z" transform="matrix(12.5,0,0,12.3,120.3,560.5)" />
<use xlink:href="#f2_2b" transform="matrix(12.5,0,0,12.3,128.4,560.5)" />
<use xlink:href="#f2_2f" transform="matrix(12.5,0,0,12.3,137.6,560.5)" />
<use xlink:href="#f3_2k" transform="matrix(12.5,0,0,12.3,149.4,534)" />
<use xlink:href="#f3_19" transform="matrix(12.5,0,0,12.3,58.5,545.8)" />
<use xlink:href="#f3_20" transform="matrix(12.5,0,0,12.3,167.3,545.8)" />
<use xlink:href="#f3_2k" transform="matrix(12.5,0,0,12.3,176.5,545.8)" />
<use xlink:href="#f3_19" transform="matrix(12.5,0,0,12.3,202.9,545.8)" />
<use xlink:href="#f3_2k" transform="matrix(12.5,0,0,12.3,155.4,560.5)" />
<use xlink:href="#f4_2c" transform="matrix(7.2,0,0,7.1,86.8,524.7)" />
<use xlink:href="#f4_2c" transform="matrix(12.5,0,0,12.3,112.8,534)" />
<use xlink:href="#f4_x" transform="matrix(12.5,0,0,12.3,71.1,545.8)" />
<use xlink:href="#f4_h" transform="matrix(12.5,0,0,12.3,188.6,545.8)" />
<use xlink:href="#f4_f" transform="matrix(12.5,0,0,12.3,106.6,560.5)" />
<use xlink:href="#f4_50" transform="matrix(18.8,0,0,18.4,85.9,552.5)" />
</g>
</g>
<path d="M125.6,611.6h68.5" class="g9_128" />
<g clip-path="url(#c5_128)">
<g fill="#000000" >
<use xlink:href="#f2_m" transform="matrix(7.2,0,0,7.1,174.9,622.6)" />
<use xlink:href="#f2_k" transform="matrix(7.2,0,0,7.1,116.3,636.2)" />
<use xlink:href="#f2_2f" transform="matrix(12.5,0,0,12.3,142.9,604.4)" />
<use xlink:href="#f2_25" transform="matrix(12.5,0,0,12.3,150.1,604.4)" />
<use xlink:href="#f2_2a" transform="matrix(12.5,0,0,12.3,155.2,604.4)" />
<use xlink:href="#f2_m" transform="matrix(12.5,0,0,12.3,58,616.2)" />
<use xlink:href="#f2_o" transform="matrix(12.5,0,0,12.3,95.1,616.2)" />
<use xlink:href="#f2_l" transform="matrix(12.5,0,0,12.3,124.8,630.9)" />
<use xlink:href="#f2_1z" transform="matrix(12.5,0,0,12.3,149.7,630.9)" />
<use xlink:href="#f2_2b" transform="matrix(12.5,0,0,12.3,157.7,630.9)" />
<use xlink:href="#f2_2f" transform="matrix(12.5,0,0,12.3,166.9,630.9)" />
<use xlink:href="#f3_2k" transform="matrix(12.5,0,0,12.3,168.1,604.4)" />
<use xlink:href="#f3_19" transform="matrix(12.5,0,0,12.3,68,616.2)" />
<use xlink:href="#f3_20" transform="matrix(12.5,0,0,12.3,196.8,616.2)" />
<use xlink:href="#f3_2k" transform="matrix(12.5,0,0,12.3,206,616.2)" />
<use xlink:href="#f3_2k" transform="matrix(12.5,0,0,12.3,184.9,630.9)" />
<use xlink:href="#f4_2c" transform="matrix(7.2,0,0,7.1,116.1,595.1)" />
<use xlink:href="#f4_x" transform="matrix(12.5,0,0,12.3,80.6,616.2)" />
<use xlink:href="#f4_2c" transform="matrix(12.5,0,0,12.3,104.6,616.2)" />
<use xlink:href="#f4_f" transform="matrix(12.5,0,0,12.3,136,630.9)" />
<use xlink:href="#f4_50" transform="matrix(18.8,0,0,18.4,115.2,622.9)" />
</g>
</g>
<path d="M161.9,683.3H230" class="g10_128" />
<g clip-path="url(#c6_128)">
<g fill="#000000" >
<use xlink:href="#f2_j" transform="matrix(7.3,0,0,7.1,149.7,666.7)" />
<use xlink:href="#f2_m" transform="matrix(7.3,0,0,7.1,154.1,666.7)" />
<use xlink:href="#f2_m" transform="matrix(7.3,0,0,7.1,339.6,666.7)" />
<use xlink:href="#f2_m" transform="matrix(7.3,0,0,7.1,436.4,666.7)" />
<use xlink:href="#f2_m" transform="matrix(7.3,0,0,7.1,211,694.4)" />
<use xlink:href="#f2_k" transform="matrix(7.3,0,0,7.1,148.4,708)" />
<use xlink:href="#f2_k" transform="matrix(7.3,0,0,7.1,342.7,708)" />
<use xlink:href="#f2_k" transform="matrix(7.3,0,0,7.1,436.2,708)" />
<use xlink:href="#f2_2f" transform="matrix(12.7,0,0,12.3,179.1,676.1)" />
<use xlink:href="#f2_25" transform="matrix(12.7,0,0,12.3,186.2,676.1)" />
<use xlink:href="#f2_2a" transform="matrix(12.7,0,0,12.3,191.4,676.1)" />
<use xlink:href="#f2_m" transform="matrix(12.7,0,0,12.3,58,688)" />
<use xlink:href="#f2_o" transform="matrix(12.7,0,0,12.3,95,688)" />
<use xlink:href="#f2_i" transform="matrix(12.7,0,0,12.3,113.6,688)" />
<use xlink:href="#f2_m" transform="matrix(12.7,0,0,12.3,118.1,688)" />
<use xlink:href="#f2_11" transform="matrix(12.7,0,0,12.3,266.5,688)" />
<use xlink:href="#f2_2c" transform="matrix(12.7,0,0,12.3,279.4,688)" />
<use xlink:href="#f2_2c" transform="matrix(12.7,0,0,12.3,288.6,688)" />
<use xlink:href="#f2_28" transform="matrix(12.7,0,0,12.3,297.7,688)" />
<use xlink:href="#f2_2l" transform="matrix(12.7,0,0,12.3,302.6,688)" />
<use xlink:href="#f2_25" transform="matrix(12.7,0,0,12.3,311.2,688)" />
<use xlink:href="#f2_2a" transform="matrix(12.7,0,0,12.3,316.3,688)" />
<use xlink:href="#f2_23" transform="matrix(12.7,0,0,12.3,325.5,688)" />
<use xlink:href="#f2_c" transform="matrix(12.7,0,0,12.3,366.3,688)" />
<use xlink:href="#f2_d" transform="matrix(12.7,0,0,12.3,382.4,688)" />
<use xlink:href="#f2_m" transform="matrix(12.7,0,0,12.3,425.4,688)" />
<use xlink:href="#f2_c" transform="matrix(12.7,0,0,12.3,458,688)" />
<use xlink:href="#f2_d" transform="matrix(12.7,0,0,12.3,474,688)" />
<use xlink:href="#f2_l" transform="matrix(12.7,0,0,12.3,161,702.7)" />
<use xlink:href="#f2_1z" transform="matrix(12.7,0,0,12.3,185.9,702.7)" />
<use xlink:href="#f2_2b" transform="matrix(12.7,0,0,12.3,194,702.7)" />
<use xlink:href="#f2_2f" transform="matrix(12.7,0,0,12.3,203.1,702.7)" />
<use xlink:href="#f3_1x" transform="matrix(7.3,0,0,7.1,345.7,666.7)" />
<use xlink:href="#f3_2k" transform="matrix(12.7,0,0,12.3,204.2,676.1)" />
<use xlink:href="#f3_19" transform="matrix(12.7,0,0,12.3,68,688)" />
<use xlink:href="#f3_20" transform="matrix(12.7,0,0,12.3,229.7,688)" />
<use xlink:href="#f3_2k" transform="matrix(12.7,0,0,12.3,238.9,688)" />
<use xlink:href="#f3_22" transform="matrix(12.7,0,0,12.3,356.9,688)" />
<use xlink:href="#f3_2k" transform="matrix(12.7,0,0,12.3,373.8,688)" />
<use xlink:href="#f3_20" transform="matrix(12.7,0,0,12.3,388.9,688)" />
<use xlink:href="#f3_2k" transform="matrix(12.7,0,0,12.3,398.1,688)" />
<use xlink:href="#f3_22" transform="matrix(12.7,0,0,12.3,448.6,688)" />
<use xlink:href="#f3_2k" transform="matrix(12.7,0,0,12.3,465.5,688)" />
<use xlink:href="#f3_20" transform="matrix(12.7,0,0,12.3,480.6,688)" />
<use xlink:href="#f3_2k" transform="matrix(12.7,0,0,12.3,489.8,688)" />
<use xlink:href="#f3_2k" transform="matrix(12.7,0,0,12.3,220.9,702.7)" />
<use xlink:href="#f4_2c" transform="matrix(7.3,0,0,7.1,142.9,666.7)" />
<use xlink:href="#f4_4u" transform="matrix(12.7,0,0,12.3,257,674.2)" />
<use xlink:href="#f4_x" transform="matrix(12.7,0,0,12.3,80.5,688)" />
<use xlink:href="#f4_2c" transform="matrix(12.7,0,0,12.3,104.4,688)" />
<use xlink:href="#f4_3a" transform="matrix(12.7,0,0,12.3,129.6,688)" />
<use xlink:href="#f4_x" transform="matrix(12.7,0,0,12.3,410.9,688)" />
<use xlink:href="#f4_4v" transform="matrix(12.7,0,0,12.3,257,691.2)" />
<use xlink:href="#f4_f" transform="matrix(12.7,0,0,12.3,172.2,702.7)" />
<use xlink:href="#f4_4w" transform="matrix(12.7,0,0,12.3,257,708.2)" />
<use xlink:href="#f4_50" transform="matrix(19,0,0,18.5,147.3,694.7)" />
<use xlink:href="#f4_50" transform="matrix(19,0,0,18.5,341.6,694.7)" />
<use xlink:href="#f4_50" transform="matrix(19,0,0,18.5,435.1,694.7)" />
</g>
</g>
<g fill="#000000" >
<use xlink:href="#f2_25" transform="matrix(12,0,0,12,512.1,687.7)" />
<use xlink:href="#f2_22" transform="matrix(12,0,0,12,516.8,687.7)" />
<use xlink:href="#f2_22" transform="matrix(12,0,0,12,527.8,687.7)" />
<use xlink:href="#f2_c" transform="matrix(12,0,0,12,538,687.7)" />
<use xlink:href="#f2_m" transform="matrix(12,0,0,12,544.3,687.7)" />
<use xlink:href="#f2_1x" transform="matrix(12,0,0,12,553.4,687.7)" />
<use xlink:href="#f6_4y" transform="matrix(12,0,0,12,566.3,687.7)" />
<use xlink:href="#f2_2k" transform="matrix(12,0,0,12,580.3,687.7)" />
<use xlink:href="#f2_d" transform="matrix(12,0,0,12,589.1,687.7)" />
<use xlink:href="#f2_x" transform="matrix(12,0,0,12,595.3,687.7)" />
<use xlink:href="#f2_22" transform="matrix(12,0,0,12,610.3,687.7)" />
<use xlink:href="#f2_c" transform="matrix(12,0,0,12,620.6,687.7)" />
<use xlink:href="#f2_2k" transform="matrix(12,0,0,12,627.2,687.7)" />
<use xlink:href="#f2_d" transform="matrix(12,0,0,12,636,687.7)" />
</g>
<path d="M125,754.2h68.7" class="g11_128" />
<g clip-path="url(#c7_128)">
<g fill="#000000" >
<use xlink:href="#f2_j" transform="matrix(7.3,0,0,7.1,112.7,737.8)" />
<use xlink:href="#f2_m" transform="matrix(7.3,0,0,7.1,117.1,737.8)" />
<use xlink:href="#f2_m" transform="matrix(7.3,0,0,7.1,174.5,765.2)" />
<use xlink:href="#f2_k" transform="matrix(7.3,0,0,7.1,111.4,778.8)" />
<use xlink:href="#f2_2f" transform="matrix(12.6,0,0,12.3,142.3,747)" />
<use xlink:href="#f2_25" transform="matrix(12.6,0,0,12.3,149.5,747)" />
<use xlink:href="#f2_2a" transform="matrix(12.6,0,0,12.3,154.8,747)" />
<use xlink:href="#f2_o" transform="matrix(12.6,0,0,12.3,85.8,758.9)" />
<use xlink:href="#f2_l" transform="matrix(12.6,0,0,12.3,124.1,773.5)" />
<use xlink:href="#f2_1z" transform="matrix(12.6,0,0,12.3,149.2,773.5)" />
<use xlink:href="#f2_2b" transform="matrix(12.6,0,0,12.3,157.3,773.5)" />
<use xlink:href="#f2_2f" transform="matrix(12.6,0,0,12.3,166.5,773.5)" />
<use xlink:href="#f3_2k" transform="matrix(12.6,0,0,12.3,167.6,747)" />
<use xlink:href="#f3_19" transform="matrix(12.6,0,0,12.3,58.5,758.9)" />
<use xlink:href="#f3_20" transform="matrix(12.6,0,0,12.3,196.5,758.9)" />
<use xlink:href="#f3_2k" transform="matrix(12.6,0,0,12.3,205.7,758.9)" />
<use xlink:href="#f3_2k" transform="matrix(12.6,0,0,12.3,184.5,773.5)" />
<use xlink:href="#f4_2c" transform="matrix(7.3,0,0,7.1,105.8,737.8)" />
<use xlink:href="#f4_x" transform="matrix(12.6,0,0,12.3,71.2,758.9)" />
<use xlink:href="#f4_2c" transform="matrix(12.6,0,0,12.3,95.3,758.9)" />
<use xlink:href="#f4_f" transform="matrix(12.6,0,0,12.3,135.4,773.5)" />
<use xlink:href="#f4_50" transform="matrix(18.9,0,0,18.4,110.3,765.5)" />
</g>
</g>
<g fill="#000000" >
<use xlink:href="#f2_2c" transform="matrix(12,0,0,12,55,813.8)" />
<use xlink:href="#f2_2h" transform="matrix(12,0,0,12,64.2,813.8)" />
<use xlink:href="#f2_2g" transform="matrix(12,0,0,12,73.4,813.8)" />
<use xlink:href="#f2_1z" transform="matrix(12,0,0,12,83.3,813.8)" />
<use xlink:href="#f2_2b" transform="matrix(12,0,0,12,91.3,813.8)" />
<use xlink:href="#f2_2f" transform="matrix(12,0,0,12,100.8,813.8)" />
<use xlink:href="#f2_2k" transform="matrix(12,0,0,12,112.5,813.8)" />
<use xlink:href="#f2_x" transform="matrix(12,0,0,12,126.1,813.8)" />
<use xlink:href="#f2_2g" transform="matrix(12,0,0,12,140.8,813.8)" />
</g>
<g clip-path="url(#c8_128)">
<g fill="#000000" >
<use xlink:href="#f2_2f" transform="matrix(13.1,0,0,12.3,186.7,814.2)" />
<use xlink:href="#f2_25" transform="matrix(13.1,0,0,12.3,193.8,814.2)" />
<use xlink:href="#f2_2a" transform="matrix(13.1,0,0,12.3,199,814.2)" />
<use xlink:href="#f3_2k" transform="matrix(13.1,0,0,12.3,211.7,814.2)" />
<use xlink:href="#f3_20" transform="matrix(13.1,0,0,12.3,219.6,814.2)" />
<use xlink:href="#f3_2k" transform="matrix(13.1,0,0,12.3,228.8,814.2)" />
<use xlink:href="#f3_20" transform="matrix(13.1,0,0,12.3,255.9,814.2)" />
<use xlink:href="#f3_2g" transform="matrix(13.1,0,0,12.3,265,814.2)" />
<use xlink:href="#f4_4g" transform="matrix(13.1,0,0,12.3,152.7,814.2)" />
<use xlink:href="#f4_h" transform="matrix(13.1,0,0,12.3,175.1,814.2)" />
<use xlink:href="#f4_x" transform="matrix(13.1,0,0,12.3,241.4,814.2)" />
</g>
</g>
<g fill="#000000" >
<use xlink:href="#f2_1x" transform="matrix(12,0,0,12,55,849.4)" />
<use xlink:href="#f2_2f" transform="matrix(12,0,0,12,63.1,849.4)" />
<use xlink:href="#f2_2j" transform="matrix(12,0,0,12,74.8,849.4)" />
<use xlink:href="#f2_21" transform="matrix(12,0,0,12,88.1,849.4)" />
<use xlink:href="#f2_28" transform="matrix(12,0,0,12,96.4,849.4)" />
<use xlink:href="#f2_28" transform="matrix(12,0,0,12,101.2,849.4)" />
<use xlink:href="#f2_22" transform="matrix(12,0,0,12,111.1,849.4)" />
<use xlink:href="#f2_2b" transform="matrix(12,0,0,12,116.6,849.4)" />
<use xlink:href="#f2_2e" transform="matrix(12,0,0,12,126.1,849.4)" />
<use xlink:href="#f2_2k" transform="matrix(12,0,0,12,137.1,849.4)" />
<use xlink:href="#f2_x" transform="matrix(12,0,0,12,150.6,849.4)" />
<use xlink:href="#f2_k" transform="matrix(12,0,0,12,165.6,849.4)" />
<use xlink:href="#f2_g" transform="matrix(12,0,0,12,174.8,849.4)" />
</g>
<g clip-path="url(#c9_128)">
<g fill="#000000" >
<use xlink:href="#f2_j" transform="matrix(12.8,0,0,12.4,224.2,849.6)" />
<use xlink:href="#f2_m" transform="matrix(12.8,0,0,12.4,229,849.6)" />
<use xlink:href="#f3_2k" transform="matrix(12.8,0,0,12.4,187.9,849.6)" />
<use xlink:href="#f4_x" transform="matrix(12.8,0,0,12.4,200.6,849.6)" />
<use xlink:href="#f4_2c" transform="matrix(12.8,0,0,12.4,215,849.6)" />
</g>
</g>
<g fill="#000000" >
<use xlink:href="#f2_2g" transform="matrix(12,0,0,12,55,888)" />
<use xlink:href="#f2_x" transform="matrix(12,0,0,12,64.9,888)" />
<use xlink:href="#f2_l" transform="matrix(12,0,0,12,79.9,888)" />
<use xlink:href="#f2_2g" transform="matrix(12,0,0,12,110,888)" />
<use xlink:href="#f2_x" transform="matrix(12,0,0,12,119.9,888)" />
<use xlink:href="#f2_k" transform="matrix(12,0,0,12,134.9,888)" />
</g>
<path d="M130.3,934.3h38.1" class="g12_128" />
<g clip-path="url(#c10_128)">
<g fill="#000000" >
<use xlink:href="#f2_k" transform="matrix(7.3,0,0,7.2,121.2,917.6)" />
<use xlink:href="#f2_m" transform="matrix(7.3,0,0,7.2,160.7,945.4)" />
<use xlink:href="#f2_l" transform="matrix(7.3,0,0,7.2,121,959.1)" />
<use xlink:href="#f2_o" transform="matrix(12.6,0,0,12.4,100.1,939)" />
<use xlink:href="#f2_l" transform="matrix(12.6,0,0,12.4,129.5,953.8)" />
<use xlink:href="#f3_20" transform="matrix(12.6,0,0,12.4,147.2,927)" />
<use xlink:href="#f3_2g" transform="matrix(12.6,0,0,12.4,156.3,927)" />
<use xlink:href="#f3_19" transform="matrix(12.6,0,0,12.4,73.2,939)" />
<use xlink:href="#f3_2g" transform="matrix(12.6,0,0,12.4,154,953.8)" />
<use xlink:href="#f4_h" transform="matrix(12.6,0,0,12.4,136.7,927)" />
<use xlink:href="#f4_1s" transform="matrix(12.6,0,0,12.4,55.1,939)" />
<use xlink:href="#f4_x" transform="matrix(12.6,0,0,12.4,85.7,939)" />
<use xlink:href="#f4_2c" transform="matrix(12.6,0,0,12.4,109.5,939)" />
<use xlink:href="#f4_f" transform="matrix(12.6,0,0,12.4,140.6,953.8)" />
<use xlink:href="#f4_50" transform="matrix(18.8,0,0,18.6,120.1,945.7)" />
</g>
</g>
<path d="M116.1,1004.9h38.3" class="g13_128" />
<g clip-path="url(#c11_128)">
<g fill="#000000" >
<use xlink:href="#f2_l" transform="matrix(7.3,0,0,7.1,106.7,988.3)" />
<use xlink:href="#f2_m" transform="matrix(7.3,0,0,7.1,146.6,1015.9)" />
<use xlink:href="#f2_k" transform="matrix(7.3,0,0,7.1,106.8,1029.5)" />
<use xlink:href="#f2_o" transform="matrix(12.6,0,0,12.3,85.6,1009.5)" />
<use xlink:href="#f2_c" transform="matrix(12.6,0,0,12.3,205.2,1009.5)" />
<use xlink:href="#f2_d" transform="matrix(12.6,0,0,12.3,221.3,1009.5)" />
<use xlink:href="#f2_c" transform="matrix(12.6,0,0,12.3,298.3,1009.5)" />
<use xlink:href="#f2_d" transform="matrix(12.6,0,0,12.3,314.3,1009.5)" />
<use xlink:href="#f2_l" transform="matrix(12.6,0,0,12.3,115.2,1024.2)" />
<use xlink:href="#f3_1y" transform="matrix(7.3,0,0,7.1,183.2,988.3)" />
<use xlink:href="#f3_1x" transform="matrix(7.3,0,0,7.1,276.4,988.3)" />
<use xlink:href="#f3_1x" transform="matrix(7.3,0,0,7.1,183.3,1029.5)" />
<use xlink:href="#f3_1y" transform="matrix(7.3,0,0,7.1,276.3,1029.5)" />
<use xlink:href="#f3_20" transform="matrix(12.6,0,0,12.3,127.7,997.6)" />
<use xlink:href="#f3_2g" transform="matrix(12.6,0,0,12.3,136.9,997.6)" />
<use xlink:href="#f3_19" transform="matrix(12.6,0,0,12.3,58.5,1009.5)" />
<use xlink:href="#f3_22" transform="matrix(12.6,0,0,12.3,195.8,1009.5)" />
<use xlink:href="#f3_2k" transform="matrix(12.6,0,0,12.3,212.7,1009.5)" />
<use xlink:href="#f3_20" transform="matrix(12.6,0,0,12.3,227.9,1009.5)" />
<use xlink:href="#f3_2k" transform="matrix(12.6,0,0,12.3,237.1,1009.5)" />
<use xlink:href="#f3_22" transform="matrix(12.6,0,0,12.3,288.9,1009.5)" />
<use xlink:href="#f3_2k" transform="matrix(12.6,0,0,12.3,305.8,1009.5)" />
<use xlink:href="#f3_20" transform="matrix(12.6,0,0,12.3,321,1009.5)" />
<use xlink:href="#f3_2k" transform="matrix(12.6,0,0,12.3,330.2,1009.5)" />
<use xlink:href="#f3_2g" transform="matrix(12.6,0,0,12.3,139.9,1024.2)" />
<use xlink:href="#f4_4u" transform="matrix(12.6,0,0,12.3,172.4,995.8)" />
<use xlink:href="#f4_x" transform="matrix(12.6,0,0,12.3,71,1009.5)" />
<use xlink:href="#f4_2c" transform="matrix(12.6,0,0,12.3,95,1009.5)" />
<use xlink:href="#f4_x" transform="matrix(12.6,0,0,12.3,249.9,1009.5)" />
<use xlink:href="#f4_h" transform="matrix(12.6,0,0,12.3,264.4,1009.5)" />
<use xlink:href="#f4_4v" transform="matrix(12.6,0,0,12.3,172.4,1012.7)" />
<use xlink:href="#f4_f" transform="matrix(12.6,0,0,12.3,126.4,1024.2)" />
<use xlink:href="#f4_4w" transform="matrix(12.6,0,0,12.3,172.4,1029.7)" />
<use xlink:href="#f4_50" transform="matrix(18.9,0,0,18.5,105.7,1016.2)" />
<use xlink:href="#f4_50" transform="matrix(18.9,0,0,18.5,182.2,1016.2)" />
<use xlink:href="#f4_50" transform="matrix(18.9,0,0,18.5,275.3,1016.2)" />
</g>
</g>
<g clip-path="url(#c12_128)">
<g fill="#000000" >
<use xlink:href="#f2_l" transform="matrix(7.5,0,0,7.1,144.6,1061.1)" />
<use xlink:href="#f2_l" transform="matrix(7.5,0,0,7.1,205.4,1061.1)" />
<use xlink:href="#f2_o" transform="matrix(12.9,0,0,12.3,85.5,1069.4)" />
<use xlink:href="#f2_2g" transform="matrix(12.9,0,0,12.3,115.2,1069.4)" />
<use xlink:href="#f2_1x" transform="matrix(12.9,0,0,12.3,120.4,1069.4)" />
<use xlink:href="#f2_2a" transform="matrix(12.9,0,0,12.3,128.4,1069.4)" />
<use xlink:href="#f2_l" transform="matrix(12.9,0,0,12.3,150.9,1069.4)" />
<use xlink:href="#f2_2g" transform="matrix(12.9,0,0,12.3,176,1069.4)" />
<use xlink:href="#f2_1x" transform="matrix(12.9,0,0,12.3,181.2,1069.4)" />
<use xlink:href="#f2_2a" transform="matrix(12.9,0,0,12.3,189.2,1069.4)" />
<use xlink:href="#f2_k" transform="matrix(12.9,0,0,12.3,213.3,1069.4)" />
<use xlink:href="#f3_19" transform="matrix(12.9,0,0,12.3,58.5,1069.4)" />
<use xlink:href="#f4_h" transform="matrix(7.5,0,0,7.1,138.8,1061.1)" />
<use xlink:href="#f4_h" transform="matrix(7.5,0,0,7.1,199.6,1061.1)" />
<use xlink:href="#f4_4r" transform="matrix(12.9,0,0,12.3,107.1,1068.6)" />
<use xlink:href="#f4_57" transform="matrix(12.9,0,0,12.3,223.2,1068.6)" />
<use xlink:href="#f4_x" transform="matrix(12.9,0,0,12.3,71,1069.4)" />
<use xlink:href="#f4_2c" transform="matrix(12.9,0,0,12.3,94.9,1069.4)" />
<use xlink:href="#f4_h" transform="matrix(12.9,0,0,12.3,162,1069.4)" />
<use xlink:href="#f4_4t" transform="matrix(12.9,0,0,12.3,107.1,1076.6)" />
<use xlink:href="#f4_59" transform="matrix(12.9,0,0,12.3,223.2,1076.6)" />
</g>
</g>
<path d="M107.3,1120.3H119" class="g14_128" />
<g clip-path="url(#c13_128)">
<g fill="#000000" >
<use xlink:href="#f2_m" transform="matrix(7.3,0,0,7.1,148.8,1116.6)" />
<use xlink:href="#f2_o" transform="matrix(12.6,0,0,12.4,72.3,1124.9)" />
<use xlink:href="#f2_i" transform="matrix(12.6,0,0,12.4,155.1,1124.9)" />
<use xlink:href="#f2_o" transform="matrix(12.6,0,0,12.4,108.9,1139.6)" />
<use xlink:href="#f4_2c" transform="matrix(12.6,0,0,12.4,108.4,1113)" />
<use xlink:href="#f4_x" transform="matrix(12.6,0,0,12.4,57.9,1124.9)" />
<use xlink:href="#f4_2c" transform="matrix(12.6,0,0,12.4,81.7,1124.9)" />
<use xlink:href="#f4_3a" transform="matrix(12.6,0,0,12.4,93.9,1124.9)" />
<use xlink:href="#f4_x" transform="matrix(12.6,0,0,12.4,124,1124.9)" />
<use xlink:href="#f4_2c" transform="matrix(12.6,0,0,12.4,138.4,1124.9)" />
</g>
</g>
<g fill="#000000" >
<use xlink:href="#f5_1f" transform="matrix(12,0,0,12,440.9,1174)" />
<use xlink:href="#f5_1i" transform="matrix(12,0,0,12,455.2,1174)" />
</g>
<path fill-rule="evenodd" d="M37.4,38.1h.7v-.7h-.7v.7Z" class="g3_128" />
<path fill-rule="evenodd" d="M37.4,38.1h.7v-.7h-.7v.7Z" class="g3_128" />
<path fill-rule="evenodd" d="M38.1,38.1H871.5v-.7H38.1v.7Z" class="g3_128" />
<path fill-rule="evenodd" d="M871.5,38.1h.8v-.7h-.8v.7Z" class="g3_128" />
<path fill-rule="evenodd" d="M871.5,38.1h.8v-.7h-.8v.7Z" class="g3_128" />
<path fill-rule="evenodd" d="M37.4,1248.5h.7V38.1h-.7V1248.5Z" class="g3_128" />
<path fill-rule="evenodd" d="M872.3,1248.5h.7V38.1h-.7V1248.5Z" class="g3_128" />
<path fill-rule="evenodd" d="M871.5,1248.5h.8V38.1h-.8V1248.5Z" class="g3_128" />
<path fill-rule="evenodd" d="M37.4,1249.2h.7v-.7h-.7v.7Z" class="g3_128" />
<path fill-rule="evenodd" d="M37.4,1249.2h.7v-.7h-.7v.7Z" class="g3_128" />
<path fill-rule="evenodd" d="M38.1,1249.9H871.5v-.7H38.1v.7Z" class="g3_128" />
<path fill-rule="evenodd" d="M38.1,1249.2H871.5v-.7H38.1v.7Z" class="g3_128" />
<path fill-rule="evenodd" d="M872.3,1249.9h.7v-1.4h-.7v1.4Z" class="g3_128" />
<path fill-rule="evenodd" d="M871.5,1249.9H873v-.7h-1.5v.7Z" class="g3_128" />
<path fill-rule="evenodd" d="M871.5,1249.2h.8v-.7h-.8v.7Z" class="g3_128" />
<path fill-rule="evenodd" d="M871.5,1249.2h.8v-.7h-.8v.7Z" class="g3_128" />
<defs>
<path d="M489,-15c0,0,-99,0,-179,30c0,0,-80,30,-136,91c0,0,-56,61,-85,152c0,0,-30,91,-30,212c0,0,0,123,32,218c0,0,33,96,92,161c0,0,59,65,142,98c0,0,82,34,181,34c0,0,40,0,78,-7c0,0,37,-7,69,-18c0,0,31,-11,57,-25c0,0,25,-14,35,-24c0,0,10,-10,14,-17c0,0,4,-7,6,-17c0,0,2,-11,3,-25c0,0,2,-14,2,-35c0,0,0,-22,-2,-38c0,0,-1,-15,-5,-25c0,0,-4,-10,-9,-14c0,0,-5,-5,-12,-5c0,0,-11,0,-28,13c0,0,-18,13,-45,29c0,0,-27,16,-65,29c0,0,-37,13,-89,13c0,0,-58,0,-103,-23c0,0,-45,-23,-77,-67c0,0,-31,-44,-48,-106c0,0,-16,-61,-16,-139c0,0,0,-85,17,-147c0,0,18,-62,50,-103c0,0,33,-40,79,-60c0,0,45,-19,103,-19c0,0,52,0,90,12c0,0,38,12,65,27c0,0,27,15,45,27c0,0,17,12,27,12c0,0,8,0,12,-3c0,0,4,-3,7,-12c0,0,3,-9,5,-25c0,0,1,-16,1,-43c0,0,0,-18,-1,-31c0,0,-1,-14,-3,-23c0,0,-2,-9,-6,-16c0,0,-4,-7,-12,-15c0,0,-8,-9,-32,-22c0,0,-23,-14,-57,-26C661,13,627,1,583,-6c0,0,-43,-9,-94,-9Z" 
id="f0_j"
transform="scale(0.001,-0.001)" />

<path d="M440,150c0,0,41,0,68,8c0,0,28,9,49,26c0,0,20,16,32,41c0,0,11,25,11,58c0,0,0,33,-11,60c0,0,-11,26,-33,44c0,0,-21,18,-55,28c0,0,-33,9,-87,9H298V150ZM407,567c0,0,42,0,68,10c0,0,25,10,42,28c0,0,16,17,24,41c0,0,9,24,9,50c0,0,0,29,-9,52c0,0,-9,23,-27,39c0,0,-18,15,-45,23c0,0,-27,8,-72,8H298V567ZM164,0c0,0,-25,0,-42,15c0,0,-16,14,-16,47V903c0,0,0,33,16,48c0,0,17,14,42,14H406c0,0,88,0,150,-15c0,0,61,-15,103,-45c0,0,42,-30,65,-77c0,0,22,-46,22,-108c0,0,0,-36,-9,-67c0,0,-9,-31,-26,-56c0,0,-17,-25,-42,-45c0,0,-25,-19,-57,-31c0,0,41,-7,76,-26c0,0,34,-19,60,-48c0,0,26,-30,41,-69c0,0,15,-40,15,-89c0,0,0,-51,-14,-93c0,0,-15,-42,-40,-74c0,0,-25,-32,-59,-55c0,0,-35,-23,-77,-38C614,29,573,14,525,7C525,7,478,0,420,0Z" 
id="f0_i"
transform="scale(0.001,-0.001)" />

<path d="M320,-17c0,0,-50,0,-93,9c0,0,-43,8,-76,19c0,0,-32,11,-54,24C97,35,75,48,65,58c0,0,-10,9,-14,28c0,0,-4,18,-4,52c0,0,0,23,1,39c0,0,2,15,5,25c0,0,4,10,9,14c0,0,6,4,13,4c0,0,11,0,30,-12c0,0,19,-13,49,-28c0,0,30,-15,71,-27c0,0,42,-12,96,-12c0,0,36,0,64,8c0,0,29,9,49,25c0,0,19,15,30,38c0,0,10,23,10,52c0,0,0,33,-18,56c0,0,-18,24,-46,42c0,0,-29,18,-66,34c0,0,-36,16,-75,34c0,0,-39,18,-76,41c0,0,-36,23,-65,54c0,0,-29,32,-47,75c0,0,-17,44,-17,104c0,0,0,70,25,122c0,0,26,53,70,88c0,0,43,34,103,51c0,0,59,18,125,18c0,0,35,0,69,-6c0,0,34,-5,64,-14c0,0,30,-9,53,-20c0,0,23,-11,31,-18c0,0,7,-8,10,-13c0,0,3,-5,4,-14c0,0,2,-8,3,-21c0,0,1,-13,1,-33c0,0,0,-21,-1,-36c0,0,-1,-15,-4,-25c0,0,-3,-9,-7,-14c0,0,-5,-4,-14,-4c0,0,-8,0,-26,10c0,0,-18,10,-44,23c0,0,-26,12,-60,22c0,0,-34,10,-75,10c0,0,-32,0,-56,-8c0,0,-24,-8,-40,-21c0,0,-16,-14,-24,-34c0,0,-8,-19,-8,-41c0,0,0,-32,18,-56c0,0,17,-23,46,-42c0,0,30,-18,67,-34c0,0,38,-16,76,-34c0,0,39,-18,76,-41c0,0,38,-22,67,-54c0,0,29,-32,47,-75c0,0,18,-43,18,-101c0,0,0,-76,-29,-133c0,0,-28,-58,-77,-96C572,60,524,21,459,2c0,0,-65,-19,-139,-19Z" 
id="f0_2n"
transform="scale(0.001,-0.001)" />

<path d="M164,0c0,0,-25,0,-42,15c0,0,-16,14,-16,47V903c0,0,0,33,16,48c0,0,17,14,42,14H645c0,0,7,0,12,-4c0,0,5,-3,9,-13c0,0,4,-9,6,-24c0,0,2,-14,2,-36c0,0,0,-21,-2,-36c0,0,-2,-14,-6,-23c0,0,-4,-9,-9,-13c0,0,-5,-4,-12,-4H301V576H593c0,0,6,0,12,-4c0,0,6,-4,9,-13c0,0,4,-8,6,-23c0,0,2,-14,2,-35c0,0,0,-22,-2,-36c0,0,-2,-14,-6,-23c0,0,-3,-8,-9,-12c0,0,-6,-4,-12,-4H301V154H649c0,0,6,0,12,-5c0,0,5,-4,9,-13c0,0,4,-9,6,-23c0,0,2,-15,2,-36c0,0,0,-22,-2,-36c0,0,-2,-15,-6,-24c0,0,-4,-9,-9,-13c0,0,-6,-4,-12,-4Z" 
id="f0_t"
transform="scale(0.001,-0.001)" />

<path d="M79,297c0,0,-19,0,-27,18c0,0,-8,17,-8,60c0,0,0,41,8,59c0,0,8,17,27,17H389c0,0,9,0,15,-4c0,0,7,-4,11,-13c0,0,5,-9,7,-23c0,0,1,-15,1,-36c0,0,0,-43,-8,-61c0,0,-8,-17,-26,-17Z" 
id="f0_oj"
transform="scale(0.001,-0.001)" />

<path d="M121,-4c0,0,-39,0,-60,2C61,-2,39,0,32,8c0,0,-8,8,-3,24c0,0,4,15,18,41L279,495L64,892c0,0,-14,26,-19,42c0,0,-5,17,4,24c0,0,9,8,32,10c0,0,23,2,65,2c0,0,35,0,56,-2c0,0,20,-1,32,-4c0,0,12,-4,17,-10c0,0,5,-6,9,-15L431,620L595,939c0,0,5,9,10,15c0,0,5,6,16,10c0,0,10,3,29,4c0,0,19,2,53,2c0,0,37,0,59,-2c0,0,22,-2,30,-10c0,0,8,-8,4,-24c0,0,-4,-16,-17,-42L564,497L793,73c0,0,14,-26,18,-41c0,0,4,-16,-5,-24c0,0,-9,-8,-32,-10c0,0,-24,-2,-65,-2c0,0,-36,0,-56,2c0,0,-20,1,-31,3c0,0,-12,4,-17,10c0,0,-5,6,-9,15L414,374L233,26c0,0,-4,-9,-9,-15c0,0,-6,-6,-17,-10c0,0,-12,-2,-32,-3c0,0,-21,-2,-54,-2Z" 
id="f0_3e"
transform="scale(0.001,-0.001)" />

<path d="M204,-4c0,0,-28,0,-47,2c0,0,-19,2,-31,5c0,0,-11,4,-16,10c0,0,-4,6,-4,13V939c0,0,0,7,4,13c0,0,5,6,17,10c0,0,11,3,30,6c0,0,19,2,47,2c0,0,29,0,48,-2c0,0,18,-3,29,-6c0,0,11,-4,16,-10c0,0,5,-6,5,-13V26c0,0,0,-7,-5,-13c0,0,-5,-6,-16,-10c0,0,-11,-3,-29,-5c0,0,-19,-2,-48,-2Z" 
id="f0_1c"
transform="scale(0.001,-0.001)" />

<path d="M127,0c0,0,-16,0,-28,3C99,3,87,6,80,15c0,0,-8,8,-11,25c0,0,-3,16,-3,42c0,0,0,25,2,42c0,0,2,18,8,32c0,0,6,14,15,27c0,0,9,13,24,29L282,390c0,0,50,53,81,95c0,0,30,43,47,79c0,0,17,35,24,65c0,0,6,30,6,57c0,0,0,24,-8,46c0,0,-8,22,-23,39c0,0,-15,16,-38,25c0,0,-23,10,-55,10c0,0,-44,0,-78,-12c0,0,-33,-11,-59,-25c0,0,-26,-13,-43,-25c0,0,-17,-12,-27,-12c0,0,-7,0,-11,5c0,0,-5,4,-8,15c0,0,-3,10,-5,28c0,0,-2,17,-2,42c0,0,0,18,1,29c0,0,1,12,4,20c0,0,2,9,6,15c0,0,3,6,13,15c0,0,9,9,34,23c0,0,25,14,61,27c0,0,37,14,81,23c0,0,44,9,92,9c0,0,75,0,131,-19c0,0,57,-19,94,-53c0,0,37,-34,55,-81c0,0,19,-47,19,-100c0,0,0,-47,-9,-93c0,0,-9,-45,-37,-98c0,0,-29,-52,-80,-116c0,0,-52,-64,-136,-148L299,159H679c0,0,8,0,14,-4c0,0,6,-5,11,-14c0,0,4,-9,7,-25c0,0,2,-15,2,-36c0,0,0,-22,-2,-37c0,0,-2,-15,-6,-25c0,0,-3,-10,-9,-14c0,0,-6,-4,-14,-4Z" 
id="f0_rz"
transform="scale(0.001,-0.001)" />

<path d="M385,138c0,0,29,0,52,9c0,0,22,10,39,28c0,0,17,19,28,47c0,0,11,29,19,66c0,0,7,37,9,84c0,0,3,47,3,104c0,0,0,69,-4,122c0,0,-4,52,-11,91c0,0,-8,39,-20,66c0,0,-12,27,-28,43c0,0,-16,16,-37,22c0,0,-21,7,-47,7c0,0,-44,0,-73,-21c0,0,-28,-21,-45,-64c0,0,-17,-42,-24,-106c0,0,-6,-63,-6,-148c0,0,0,-103,8,-171c0,0,8,-67,26,-107c0,0,17,-40,45,-56c0,0,27,-16,66,-16ZM378,-17c0,0,-99,0,-164,33c0,0,-65,34,-103,98c0,0,-38,64,-54,156c0,0,-15,92,-15,209c0,0,0,115,19,208c0,0,19,94,61,160c0,0,42,65,110,101c0,0,68,35,165,35c0,0,99,0,164,-34c0,0,65,-34,103,-98c0,0,39,-64,53,-156c0,0,15,-92,15,-209c0,0,0,-115,-18,-209c0,0,-19,-93,-61,-159C653,118,611,53,543,17c0,0,-67,-34,-165,-34Z" 
id="f0_rx"
transform="scale(0.001,-0.001)" />

<path d="M142,0c0,0,-6,0,-12,4c0,0,-5,3,-9,12c0,0,-4,9,-6,23c0,0,-3,15,-3,36c0,0,0,21,2,36c0,0,2,14,6,23c0,0,4,9,10,13c0,0,5,5,12,5H322V779L166,693c0,0,-17,-8,-28,-10c0,0,-1,0,-3,0c-4,0,-10,1,-14,5c0,0,-6,6,-8,22c0,0,-2,15,-2,44c0,0,0,18,0,29c0,0,1,12,4,20c0,0,3,8,8,14c0,0,5,5,14,11L345,962c0,0,4,3,9,5c0,0,6,2,15,3c0,0,9,1,23,2c0,0,15,0,38,0c0,0,28,0,46,-1c0,0,17,-1,26,-4c0,0,9,-3,12,-7c0,0,3,-4,3,-11V152H675c0,0,7,0,12,-5c0,0,6,-4,10,-13c0,0,4,-9,6,-23c0,0,2,-15,2,-36c0,0,0,-21,-2,-36c0,0,-3,-14,-7,-23c0,0,-4,-9,-9,-12c0,0,-5,-4,-12,-4Z" 
id="f0_ry"
transform="scale(0.001,-0.001)" />

<path d="M439,356V801h-1L183,356ZM532,-4c0,0,-27,0,-45,2c0,0,-18,2,-29,5c0,0,-11,3,-15,9c0,0,-4,5,-4,13V199H70c0,0,-11,0,-19,3c0,0,-8,3,-14,12c0,0,-5,9,-8,27c0,0,-3,17,-3,46c0,0,0,24,2,42c0,0,1,17,3,31c0,0,3,15,8,27c0,0,5,13,12,27L351,944c0,0,4,7,13,11c0,0,9,5,25,9c0,0,16,3,40,4c0,0,25,2,60,2c0,0,38,0,65,-2c0,0,27,-2,43,-6c0,0,16,-4,23,-10c0,0,8,-6,8,-14V356h85c0,0,12,0,21,-18c0,0,8,-19,8,-61c0,0,0,-38,-8,-58c0,0,-7,-20,-21,-20H628V25c0,0,0,-8,-5,-13c0,0,-4,-6,-15,-9c0,0,-12,-3,-29,-5c0,0,-18,-2,-47,-2Z" 
id="f0_s6"
transform="scale(0.001,-0.001)" />

<path d="M589,371L453,782h-1L317,371ZM106,-4c0,0,-35,0,-54,2C52,-2,32,0,25,8c0,0,-7,9,-5,24c0,0,2,16,11,42L329,931c0,0,4,13,10,21c0,0,6,7,19,12c0,0,13,4,36,5c0,0,23,1,61,1c0,0,44,0,71,-1c0,0,26,-1,40,-5c0,0,15,-5,21,-13c0,0,6,-8,11,-22L896,73c0,0,9,-27,11,-43c0,0,3,-15,-6,-23c0,0,-8,-7,-29,-9c0,0,-21,-2,-57,-2c0,0,-38,0,-59,1c0,0,-22,1,-33,4c0,0,-11,3,-16,9c0,0,-4,6,-7,16L635,220H272L211,31c0,0,-2,-11,-7,-18c0,0,-5,-7,-16,-11c0,0,-11,-3,-31,-4c0,0,-19,-2,-51,-2Z" 
id="f0_5"
transform="scale(0.001,-0.001)" />

<path d="M198,-4c0,0,-27,0,-45,2c0,0,-18,2,-28,5c0,0,-11,4,-15,10c0,0,-4,6,-4,13V887c0,0,0,38,20,58c0,0,20,20,53,20H308c0,0,34,0,59,-6c0,0,24,-5,42,-18c0,0,18,-13,30,-35c0,0,12,-21,21,-52L669,279h3L889,852c0,0,9,32,21,53c0,0,11,22,27,35c0,0,15,14,36,19c0,0,21,6,48,6h132c0,0,21,0,35,-5c0,0,15,-5,24,-15c0,0,9,-11,14,-25c0,0,5,-15,5,-33V26c0,0,0,-7,-4,-13c0,0,-4,-6,-15,-10c0,0,-11,-3,-29,-5c0,0,-18,-2,-45,-2c0,0,-27,0,-45,2c0,0,-18,2,-28,5c0,0,-11,4,-15,10c0,0,-5,6,-5,13V813h-1L764,27c0,0,-3,-10,-10,-16c0,0,-6,-6,-18,-10c0,0,-12,-3,-29,-4c0,0,-18,-1,-44,-1c0,0,-25,0,-43,2c0,0,-18,2,-29,5c0,0,-12,4,-19,10c0,0,-6,6,-9,14L293,813h-2V26c0,0,0,-7,-4,-13c0,0,-4,-6,-15,-10c0,0,-11,-3,-29,-5c0,0,-17,-2,-45,-2Z" 
id="f0_1x"
transform="scale(0.001,-0.001)" />

<path d="M193,-4c0,0,-26,0,-43,2c0,0,-18,2,-27,6c0,0,-10,4,-14,10c0,0,-3,6,-3,13V895c0,0,0,35,20,53c0,0,21,17,50,17H282c0,0,28,0,47,-5c0,0,20,-5,35,-16c0,0,15,-11,29,-31c0,0,13,-20,27,-49L608,511c0,0,17,-32,33,-63c0,0,16,-31,31,-62c0,0,14,-31,29,-60c0,0,14,-30,27,-60h1c0,0,-2,52,-3,109c0,0,-1,57,-1,108V936c0,0,0,7,4,13c0,0,5,6,15,11c0,0,10,4,28,6c0,0,17,2,44,2c0,0,25,0,42,-2c0,0,17,-2,27,-6c0,0,9,-5,13,-11c0,0,4,-6,4,-13V68c0,0,0,-17,-6,-30c0,0,-6,-14,-17,-23C879,15,869,6,856,2c0,0,-14,-3,-28,-3H744c0,0,-26,0,-45,4c0,0,-19,5,-35,19c0,0,-16,14,-31,38c0,0,-15,23,-34,60L359,572c0,0,-21,40,-43,86c0,0,-21,47,-38,91h-2c0,0,3,-54,5,-107c0,0,2,-53,2,-110V27c0,0,0,-7,-5,-13c0,0,-4,-6,-14,-10c0,0,-10,-4,-27,-6c0,0,-17,-2,-44,-2Z" 
id="f0_1y"
transform="scale(0.001,-0.001)" />

<path d="M378,-4c0,0,-28,0,-47,2c0,0,-19,2,-31,5c0,0,-11,4,-16,10c0,0,-4,6,-4,13V805H38c0,0,-8,0,-13,4c0,0,-5,5,-9,14c0,0,-3,9,-5,25c0,0,-2,15,-2,37c0,0,0,22,2,38c0,0,2,15,5,25c0,0,4,9,9,13c0,0,5,4,13,4H718c0,0,7,0,12,-4c0,0,6,-4,10,-13c0,0,3,-10,5,-25c0,0,2,-16,2,-38c0,0,0,-22,-2,-37c0,0,-2,-16,-5,-25c0,0,-4,-9,-10,-14c0,0,-5,-4,-12,-4H476V26c0,0,0,-7,-5,-13c0,0,-5,-6,-16,-10c0,0,-11,-3,-30,-5c0,0,-19,-2,-47,-2Z" 
id="f0_2t"
transform="scale(0.001,-0.001)" />

<path d="M514,145c0,0,72,0,121,27c0,0,48,26,78,73c0,0,30,46,42,107c0,0,13,62,13,131c0,0,0,76,-12,139c0,0,-12,62,-41,106c0,0,-29,45,-76,69c0,0,-48,24,-120,24c0,0,-72,0,-120,-27c0,0,-49,-27,-79,-73c0,0,-29,-45,-42,-106c0,0,-12,-61,-12,-129c0,0,0,-79,12,-142c0,0,12,-63,40,-108c0,0,28,-44,76,-68c0,0,48,-23,120,-23ZM508,-17c0,0,-113,0,-196,29c0,0,-84,29,-140,90c0,0,-56,60,-84,154c0,0,-28,93,-28,221c0,0,0,117,29,210c0,0,30,94,89,160c0,0,59,65,146,101c0,0,87,35,202,35c0,0,110,0,194,-29c0,0,84,-30,140,-90c0,0,56,-60,85,-153c0,0,29,-92,29,-217c0,0,0,-120,-30,-215c0,0,-30,-95,-89,-161C855,118,796,52,709,17c0,0,-87,-34,-201,-34Z" 
id="f0_24"
transform="scale(0.001,-0.001)" />

<path d="M299,0V777H162l36,173H508V0Z" 
id="f1_l"
transform="scale(0.001,-0.001)" />

<path d="M403,172c0,0,80,0,127,81c0,0,48,80,48,218c0,0,0,145,-47,227c0,0,-46,83,-125,83c0,0,-82,0,-129,-83c0,0,-47,-82,-47,-230c0,0,0,-135,48,-215c0,0,48,-81,125,-81Zm3,-182c0,0,-167,0,-272,130C134,120,30,251,30,464c0,0,0,227,102,364c0,0,102,137,268,137h6c0,0,170,0,271,-130c0,0,100,-130,100,-347c0,0,0,-253,-112,-376C665,112,553,-10,406,-10Z" 
id="f1_k"
transform="scale(0.001,-0.001)" />

<path d="M44,-281L425,1053H537L156,-281Z" 
id="f1_j"
transform="scale(0.001,-0.001)" />

<path d="M75,0L400,413c0,0,71,91,101,149c0,0,30,58,30,109c0,0,0,55,-36,91c0,0,-36,36,-91,36c0,0,-63,0,-91,-45c0,0,-28,-46,-34,-142H67c0,0,0,173,102,268c0,0,102,95,253,95c0,0,140,0,229,-82c0,0,89,-82,89,-209c0,0,0,-125,-104,-276L580,324c0,0,-34,-50,-85,-114L468,178H740V0Z" 
id="f1_m"
transform="scale(0.001,-0.001)" />

<path d="M340,-13c0,0,-73,0,-129,20C211,7,155,27,86,74l22,217c0,0,156,-103,245,-103c0,0,64,0,112,45c0,0,47,46,47,107c0,0,0,68,-47,113c0,0,-48,46,-121,46c0,0,-85,0,-184,-42l48,495H681V777H393L382,665c0,0,163,0,251,-95c0,0,88,-95,88,-224c0,0,0,-146,-113,-253C608,93,494,-13,340,-13Z" 
id="f1_p"
transform="scale(0.001,-0.001)" />

<path d="M44,0V40L172,60V941L44,960v40H794V760H745L721,922c0,0,-83,11,-241,11H316V543H586l23,119h48V354H609L586,475H316V67H513c0,0,193,0,252,12l43,185h49L843,0Z" 
id="f2_15"
transform="scale(0.001,-0.001)" />

<path d="M360,-14L72,649L0,668v33H327V668L216,648L420,164L615,649L504,668v33H764V668L697,652L416,-14Z" 
id="f2_2i"
transform="scale(0.001,-0.001)" />

<path d="M284,67c0,0,51,0,88,12c0,0,37,12,74,30V358l-98,-3c0,0,-100,-4,-135,-39c0,0,-35,-35,-35,-117c0,0,0,-132,106,-132ZM233,-14c0,0,-179,0,-179,208c0,0,0,70,27,116c0,0,27,46,87,70c0,0,60,24,173,27l105,3V519c0,0,0,72,-26,107c0,0,-27,34,-82,34c0,0,-75,0,-137,-35L176,538H134V691c0,0,121,26,213,26c0,0,115,0,169,-47c0,0,54,-47,54,-144V52L657,33V0H465L451,70c0,0,-85,-84,-218,-84Z" 
id="f2_1x"
transform="scale(0.001,-0.001)" />

<path d="M31,0V33L150,52v956L31,1026v34H274V52L394,33V0Z" 
id="f2_28"
transform="scale(0.001,-0.001)" />

<path d="M289,-14c0,0,-179,0,-179,205V649L20,668v33H233V200c0,0,0,-128,120,-128c0,0,92,0,173,23V649L420,668v33H649V52L738,33V0H533l-6,57C527,57,474,28,405,7c0,0,-69,-21,-116,-21Z" 
id="f2_2h"
transform="scale(0.001,-0.001)" />

<path d="M249,-14c0,0,-71,0,-107,42c0,0,-35,42,-35,119V639H15v33l93,29l76,159h47V701H391V639H231V161c0,0,0,-48,22,-73c0,0,22,-24,57,-24c0,0,44,0,106,12V26C416,26,389,8,340,-2c0,0,-49,-12,-91,-12Z" 
id="f2_2g"
transform="scale(0.001,-0.001)" />

<path d="M495,413c0,0,0,133,-34,190c0,0,-34,57,-105,57c0,0,-78,0,-119,-63c0,0,-42,-62,-42,-184ZM374,-14c0,0,-163,0,-239,87c0,0,-75,88,-75,283c0,0,0,183,77,273c0,0,76,91,219,91c0,0,269,0,269,-306V353H194V340c0,0,0,-103,23,-160c0,0,22,-57,70,-87c0,0,47,-29,124,-29c0,0,40,0,96,6c0,0,55,7,91,15V43C598,43,562,20,500,3c0,0,-61,-17,-126,-17Z" 
id="f2_21"
transform="scale(0.001,-0.001)" />

<path d="M211,-20c0,0,-39,0,-64,25c0,0,-26,27,-26,64c0,0,0,38,26,64c0,0,26,26,64,26c0,0,37,0,64,-25c0,0,26,-26,26,-65c0,0,0,-37,-26,-64c0,0,-26,-25,-64,-25Zm0,556c0,0,-38,0,-64,26c0,0,-26,26,-26,64c0,0,0,37,26,64c0,0,25,27,64,27c0,0,38,0,64,-27c0,0,26,-27,26,-64c0,0,0,-38,-26,-64c0,0,-27,-26,-64,-26Z" 
id="f2_u"
transform="scale(0.001,-0.001)" />

<path d="M67,0V109L206,235c0,0,133,118,196,190c0,0,63,72,90,149c0,0,27,77,27,177c0,0,0,97,-44,148c0,0,-44,50,-144,50c0,0,-39,0,-81,-10c0,0,-42,-11,-74,-29L150,787H101V980c0,0,135,32,230,32c0,0,164,0,247,-68c0,0,82,-69,82,-193c0,0,0,-84,-32,-158c0,0,-33,-75,-100,-148c0,0,-67,-74,-222,-206c0,0,-67,-57,-141,-125H680V0Z" 
id="f2_m"
transform="scale(0.001,-0.001)" />

<path d="M350,-14c0,0,-142,0,-253,31L89,228h49L172,87c0,0,32,-18,78,-29c0,0,46,-11,88,-11c0,0,118,0,173,56c0,0,56,55,56,187c0,0,0,93,-24,140c0,0,-24,47,-76,70c0,0,-52,22,-140,22c0,0,-68,0,-133,-18H122v496H630V886H189V567c0,0,81,18,173,18c0,0,173,0,258,-71c0,0,84,-71,84,-216c0,0,0,-151,-92,-232c0,0,-91,-80,-262,-80Z" 
id="f2_p"
transform="scale(0.001,-0.001)" />

<path d="M410,45c0,0,90,0,130,58c0,0,40,59,40,193c0,0,0,122,-38,177c0,0,-38,54,-122,54c0,0,-102,0,-217,-37c0,0,0,-227,51,-336c0,0,52,-109,156,-109Zm3,-59c0,0,-169,0,-258,131c0,0,-89,131,-89,377c0,0,0,161,47,278c0,0,47,117,131,178c0,0,85,61,196,61c0,0,109,0,217,-26V813H608L582,915c0,0,-25,13,-67,23c0,0,-41,10,-75,10c0,0,-109,0,-170,-105c0,0,-60,-106,-66,-308c0,0,121,63,244,63c0,0,132,0,201,-74c0,0,69,-74,69,-214c0,0,0,-156,-78,-240c0,0,-79,-84,-227,-84Z" 
id="f2_q"
transform="scale(0.001,-0.001)" />

<path d="M-6,0c0,0,-12,10,-12,32c0,0,0,21,23,51c0,0,23,31,79,82L287,354L159,649L79,668l6,33H270L378,434l93,88c0,0,47,46,67,72c0,0,19,26,19,44c0,0,0,8,-6,13c0,0,-7,6,-38,17l6,33H651c0,0,16,-12,16,-32c0,0,0,-44,-103,-142L404,377L548,49L634,33L628,0H437L313,298L185,176c0,0,-41,-40,-60,-65c0,0,-19,-26,-19,-48c0,0,0,-21,31,-29L131,0Z" 
id="f3_2k"
transform="scale(0.001,-0.001)" />

<path d="M301,78c0,0,41,0,90,27c0,0,49,28,95,77l81,442c0,0,-26,18,-54,27c0,0,-27,10,-67,10c0,0,-70,0,-131,-55c0,0,-61,-55,-99,-152c0,0,-37,-97,-37,-201c0,0,0,-79,33,-127c0,0,33,-48,89,-48ZM245,-14c0,0,-91,0,-145,68c0,0,-54,69,-54,183c0,0,0,128,55,240c0,0,55,112,150,177c0,0,96,66,210,66c0,0,70,0,123,-18c0,0,3,36,51,306l-115,18l6,34H768L589,52L673,33L667,0H454l22,117C476,117,350,-14,245,-14Z" 
id="f3_20"
transform="scale(0.001,-0.001)" />

<path d="M355,0V355H0v72H355V784h72V427H782V355H427V0Z" 
id="f4_f"
transform="scale(0.001,-0.001)" />

<path d="M88,-163c0,0,-39,0,-63,25c0,0,-25,26,-25,65c0,0,0,34,19,54c0,0,19,19,48,19c0,0,30,0,51,-23c0,0,22,-24,37,-24c0,0,12,0,21,11c0,0,8,10,8,35c0,0,0,30,-7,88c0,0,-27,235,-27,620c0,0,13,411,17,446c0,0,17,139,60,188c0,0,43,48,98,48c0,0,37,0,65,-25c0,0,28,-25,28,-54c0,0,0,-35,-19,-57c0,0,-20,-21,-49,-21c0,0,-26,0,-57,27c0,0,-17,15,-30,15c0,0,-12,0,-21,-11c0,0,-8,-11,-8,-37c0,0,0,-31,6,-108c0,0,28,-306,28,-496c0,0,0,-50,-12,-439c0,0,-6,-219,-67,-296c0,0,-41,-50,-101,-50Z" 
id="f4_50"
transform="scale(0.001,-0.001)" />

<path d="M410,-14c0,0,-86,0,-175,14C235,0,145,14,81,38V307h66L181,146c0,0,31,-37,94,-62c0,0,64,-24,132,-24c0,0,214,0,214,177c0,0,0,55,-41,93c0,0,-41,38,-128,68c0,0,-128,42,-185,68c0,0,-56,27,-95,63c0,0,-38,36,-62,87c0,0,-23,51,-23,125c0,0,0,132,90,201c0,0,90,69,263,69c0,0,125,0,278,-32V741H651L618,878c0,0,-76,56,-178,56c0,0,-92,0,-141,-34c0,0,-49,-34,-49,-104c0,0,0,-50,41,-86c0,0,41,-35,128,-63c0,0,171,-56,235,-97c0,0,64,-41,97,-103c0,0,34,-61,34,-143c0,0,0,-318,-375,-318Z" 
id="f5_1j"
transform="scale(0.001,-0.001)" />

<path d="M379,60c0,0,59,0,84,64c0,0,24,65,24,231c0,0,0,164,-24,227c0,0,-24,63,-84,63c0,0,-57,0,-80,-60c0,0,-22,-61,-22,-230c0,0,0,-173,23,-234c0,0,22,-61,79,-61Zm-2,-74c0,0,-161,0,-240,91c0,0,-79,91,-79,277c0,0,0,186,80,276c0,0,81,90,245,90c0,0,167,0,245,-93c0,0,78,-93,78,-273c0,0,0,-188,-81,-278c0,0,-81,-90,-248,-90Z" 
id="f5_2b"
transform="scale(0.001,-0.001)" />

<path d="M30,0V49l76,18V992l-72,18v50H322V67L398,49V0Z" 
id="f5_28"
transform="scale(0.001,-0.001)" />

<path d="M287,-18c0,0,-194,0,-194,206V634L23,652v49H309V217c0,0,0,-63,26,-98c0,0,27,-35,76,-35c0,0,57,0,113,25V634l-64,18v49H740V67L809,49V0H536L526,61L475,35c0,0,-104,-53,-188,-53Z" 
id="f5_2h"
transform="scale(0.001,-0.001)" />

<path d="M327,-14c0,0,-101,0,-156,45c0,0,-55,45,-55,131V624H25v48l108,29l87,159H332V701H480V624H332V176c0,0,0,-49,20,-73c0,0,20,-25,53,-25c0,0,40,0,97,12V26c0,0,-22,-15,-76,-27c0,0,-55,-13,-99,-13Z" 
id="f5_2g"
transform="scale(0.001,-0.001)" />

<path d="M34,0V49l76,18V634L38,652v49H325V67L402,49V0ZM217,831c0,0,-48,0,-81,33c0,0,-34,33,-34,82c0,0,0,48,34,81c0,0,34,33,81,33c0,0,48,0,81,-33c0,0,33,-33,33,-81c0,0,0,-47,-33,-81c0,0,-32,-34,-81,-34Z" 
id="f5_25"
transform="scale(0.001,-0.001)" />

<path d="M41,0V49l69,18V634L41,652v49H313l11,-61l50,26c0,0,105,54,188,54c0,0,194,0,194,-207V67L827,49V0H478V49l63,18V484c0,0,0,63,-27,98c0,0,-26,35,-75,35c0,0,-57,0,-114,-25V67L389,49V0Z" 
id="f5_2a"
transform="scale(0.001,-0.001)" />

<path d="M248,-20c0,0,-52,0,-87,34c0,0,-36,36,-36,88c0,0,0,52,36,88c0,0,35,36,87,36c0,0,52,0,88,-36c0,0,36,-36,36,-88c0,0,0,-51,-36,-87c0,0,-35,-35,-88,-35Zm0,488c0,0,-52,0,-87,36c0,0,-36,36,-36,88c0,0,0,52,35,88c0,0,35,36,88,36c0,0,53,0,89,-36c0,0,35,-37,35,-88c0,0,0,-51,-36,-87c0,0,-35,-37,-88,-37Z" 
id="f5_u"
transform="scale(0.001,-0.001)" />

<path d="M377,45c0,0,99,0,145,108c0,0,46,109,46,352c0,0,0,240,-45,345c0,0,-46,106,-146,106c0,0,-97,0,-139,-100c0,0,-43,-99,-43,-351c0,0,0,-254,44,-357c0,0,43,-103,138,-103Zm0,-59c0,0,-158,0,-238,132c0,0,-81,133,-81,386c0,0,0,249,81,380c0,0,80,132,244,132c0,0,159,0,241,-130c0,0,82,-130,82,-382c0,0,0,-518,-329,-518Z" 
id="f2_k"
transform="scale(0.001,-0.001)" />

<path d="M476,327V830h-4L114,327ZM476,0V220H30v99l488,686h86V327H740V220H604V0Z" 
id="f2_o"
transform="scale(0.001,-0.001)" />

<path d="M278,-14c0,0,-52,0,-115,11c0,0,-63,10,-99,23V193H98L134,95c0,0,56,-50,146,-50c0,0,144,0,144,123c0,0,0,91,-114,130l-66,21c0,0,-75,25,-110,50c0,0,-34,26,-53,63c0,0,-18,36,-18,89c0,0,0,92,63,145c0,0,63,54,170,54c0,0,77,0,193,-23V544H454l-32,81c0,0,-39,35,-124,35c0,0,-61,0,-92,-30c0,0,-32,-30,-32,-80c0,0,0,-43,29,-72c0,0,28,-29,86,-48c0,0,110,-38,144,-55c0,0,33,-17,57,-42c0,0,23,-25,36,-57c0,0,13,-32,13,-79c0,0,0,-104,-66,-158c0,0,-66,-53,-195,-53Z" 
id="f2_2f"
transform="scale(0.001,-0.001)" />

<path d="M32,0V33L151,52V649L52,668v33H275V52L395,33V0ZM201,850c0,0,-32,0,-56,24c0,0,-24,24,-24,56c0,0,0,34,24,58c0,0,24,24,56,24c0,0,34,0,58,-24c0,0,24,-24,24,-58c0,0,0,-32,-24,-56c0,0,-24,-24,-58,-24Z" 
id="f2_25"
transform="scale(0.001,-0.001)" />

<path d="M439,0V33l93,19V500c0,0,0,62,-30,97c0,0,-31,36,-94,36c0,0,-67,0,-165,-22V52L338,33V0H35V33l84,19V649L35,668v33H235l7,-57c0,0,57,33,122,54c0,0,65,22,108,22c0,0,91,0,137,-53c0,0,47,-53,47,-154V52L741,33V0Z" 
id="f2_2a"
transform="scale(0.001,-0.001)" />

<path d="M134,0V40L339,60V876L137,804v39l292,166h39V60L672,40V0Z" 
id="f2_l"
transform="scale(0.001,-0.001)" />

<path d="M399,-14c0,0,-341,0,-341,370c0,0,0,175,87,269c0,0,87,95,249,95c0,0,101,0,220,-23V501H573L541,625c0,0,-62,35,-149,35c0,0,-200,0,-200,-304c0,0,0,-158,61,-225c0,0,61,-67,189,-67c0,0,109,0,189,24V43C631,43,595,16,530,1c0,0,-64,-15,-131,-15Z" 
id="f2_1z"
transform="scale(0.001,-0.001)" />

<path d="M377,45c0,0,99,0,147,73c0,0,47,73,47,237c0,0,0,161,-47,233c0,0,-47,72,-147,72c0,0,-97,0,-141,-69c0,0,-44,-69,-44,-236c0,0,0,-169,45,-240c0,0,44,-70,140,-70Zm0,-59c0,0,-158,0,-238,94c0,0,-81,95,-81,274c0,0,0,178,81,272c0,0,80,94,244,94c0,0,160,0,241,-92c0,0,82,-92,82,-274c0,0,0,-368,-329,-368Z" 
id="f2_2b"
transform="scale(0.001,-0.001)" />

<path d="M-5,0L0,40L131,60L286,941L162,960l6,40H568l-6,-40L430,941L275,60L399,40L393,0Z" 
id="f3_19"
transform="scale(0.001,-0.001)" />

<path d="M140,-21c0,0,-26,0,-44,17C96,-4,79,13,79,40c0,0,0,19,6,33c0,0,8,20,34,55c0,0,46,60,64,126c0,0,32,114,41,321H190c0,0,-55,0,-81,-18c0,0,-44,-26,-80,-89H0c0,0,42,129,98,178c0,0,43,37,120,37H743V575H562c0,0,-27,-171,-27,-327c0,0,0,-77,27,-110c0,0,27,-33,67,-33c0,0,33,0,56,22c0,0,24,22,31,65h27C743,192,730,74,686,26c0,0,-44,-47,-98,-47c0,0,-58,0,-97,51c0,0,-39,53,-39,198c0,0,0,91,28,347H286c0,0,-23,-390,-56,-494c0,0,-33,-102,-90,-102Z" 
id="f4_2c"
transform="scale(0.001,-0.001)" />

<path d="M0,214v74H784V214ZM0,494v72H784V494Z" 
id="f4_x"
transform="scale(0.001,-0.001)" />

<path d="M417,-328c0,0,-125,17,-203,101c0,0,-78,83,-78,189c0,0,0,49,17,120c0,0,17,72,17,108c0,0,0,55,-42,100c0,0,-42,45,-128,61v29c0,0,80,15,125,59c0,0,44,45,44,98c0,0,0,39,-17,110c0,0,-18,71,-18,122c0,0,0,105,79,191c0,0,79,85,203,100v-28c0,0,-85,-15,-129,-65c0,0,-45,-49,-45,-114c0,0,0,-45,15,-117c0,0,15,-72,15,-120c0,0,0,-74,-53,-142c0,0,-53,-68,-158,-106c0,0,107,-44,160,-111c0,0,52,-67,52,-141c0,0,0,-45,-15,-117c0,0,-15,-73,-15,-117c0,0,0,-64,43,-113c0,0,42,-49,131,-71v-26Z" 
id="f4_2n"
transform="scale(0.001,-0.001)" />

<path d="M460,-325c0,0,-148,79,-231,172c0,0,-84,93,-123,217c0,0,-39,126,-39,304c0,0,0,178,39,303c0,0,39,125,122,217c0,0,82,93,232,172V997c0,0,-91,-52,-145,-134c0,0,-54,-81,-79,-190c0,0,-25,-109,-25,-305c0,0,0,-194,26,-309c0,0,26,-114,82,-193c0,0,56,-79,141,-128v-63Z" 
id="f2_c"
transform="scale(0.001,-0.001)" />

<path d="M49,-325v63c0,0,85,49,140,128c0,0,56,79,83,194c0,0,26,115,26,308c0,0,0,196,-25,305c0,0,-25,109,-79,190c0,0,-54,82,-145,134v63c0,0,149,-80,232,-172c0,0,83,-92,122,-217c0,0,39,-125,39,-303c0,0,0,-177,-39,-303c0,0,-39,-125,-122,-217c0,0,-83,-93,-232,-173Z" 
id="f2_d"
transform="scale(0.001,-0.001)" />

<path d="M631,416L539,902L283,416ZM576,0l8,40L691,60L643,348H249L96,60L197,40L189,0H-83l8,40L7,60l509,949H659L845,60L938,40L930,0Z" 
id="f3_11"
transform="scale(0.001,-0.001)" />

<path d="M317,45c0,0,74,0,134,54c0,0,60,55,97,153c0,0,36,98,36,200c0,0,0,82,-33,129c0,0,-33,46,-89,46c0,0,-40,0,-93,-29c0,0,-54,-29,-96,-75L192,81c0,0,46,-36,125,-36ZM-88,-325l5,35l90,17L170,649L93,668l6,33H297L283,588c0,0,130,132,235,132c0,0,90,0,145,-67c0,0,55,-66,55,-182c0,0,0,-132,-56,-244C662,227,606,114,510,49c0,0,-97,-63,-209,-63c0,0,-35,0,-72,5c0,0,-37,5,-55,11l-8,-67L130,-273l119,-17l-6,-35Z" 
id="f3_2c"
transform="scale(0.001,-0.001)" />

<path d="M81,0L258,1008l-96,18l6,34H391L214,52L331,33L325,0Z" 
id="f3_28"
transform="scale(0.001,-0.001)" />

<path d="M-15,-329c0,0,-61,0,-112,13l28,152h34l12,-72c0,0,18,-17,60,-17c0,0,100,0,212,202L253,9L116,649L33,668l6,33H230L338,155L513,458c0,0,48,83,48,144c0,0,0,27,-16,44c0,0,-15,16,-33,22l6,33H659c0,0,20,-17,20,-47c0,0,0,-59,-62,-164L322,-7c0,0,-86,-145,-135,-205c0,0,-50,-61,-98,-89c0,0,-49,-28,-104,-28Z" 
id="f3_2l"
transform="scale(0.001,-0.001)" />

<path d="M85,0L199,649l-96,19l6,33H332L218,52L335,33L329,0ZM297,849c0,0,-33,0,-57,24c0,0,-24,24,-24,57c0,0,0,33,24,57c0,0,24,24,57,24c0,0,33,0,57,-24c0,0,24,-24,24,-57c0,0,0,-33,-24,-57c0,0,-24,-24,-57,-24Z" 
id="f3_25"
transform="scale(0.001,-0.001)" />

<path d="M54,0L169,649L81,668l6,33H294L274,558c0,0,62,81,130,121c0,0,67,41,132,41c0,0,75,0,113,-41c0,0,38,-41,38,-117c0,0,0,-10,-3,-32c0,0,-3,-21,-81,-478L700,34L695,0H470l76,434c0,0,17,94,17,123c0,0,0,34,-18,55c0,0,-18,21,-56,21c0,0,-56,0,-121,-47c0,0,-65,-47,-108,-117L178,0Z" 
id="f3_2a"
transform="scale(0.001,-0.001)" />

<path d="M312,78c0,0,42,0,93,28c0,0,51,27,99,76l82,460c0,0,-18,5,-32,9c0,0,-14,3,-28,6c0,0,-14,2,-29,3c0,0,-16,1,-36,1c0,0,-75,0,-139,-56c0,0,-64,-56,-100,-150c0,0,-37,-95,-37,-202c0,0,0,-80,33,-127c0,0,33,-48,94,-48ZM249,-325c0,0,-65,0,-136,16c0,0,-70,15,-112,37l13,170H48l27,-93c0,0,60,-59,173,-59c0,0,91,0,145,47c0,0,54,48,72,152l29,175c0,0,-54,-59,-120,-97c0,0,-66,-37,-119,-37c0,0,-95,0,-149,66c0,0,-55,67,-55,182c0,0,0,131,58,243c0,0,57,112,154,177c0,0,97,66,211,66c0,0,45,0,117,-9c0,0,72,-9,128,-22L594,-25c0,0,-28,-158,-108,-229c0,0,-80,-71,-237,-71Z" 
id="f3_23"
transform="scale(0.001,-0.001)" />

<path d="M17,-325L185,639H64l6,36l127,29l9,49c0,0,30,167,100,245c0,0,71,78,191,78c0,0,57,0,104,-15L574,915H538l-14,85c0,0,-22,16,-63,16c0,0,-45,0,-72,-39c0,0,-26,-39,-48,-160L319,701H475L465,639H309L141,-325Z" 
id="f3_22"
transform="scale(0.001,-0.001)" />

<path d="M301,78c0,0,85,0,185,104l81,442c0,0,-29,20,-55,28c0,0,-25,8,-62,8c0,0,-75,0,-137,-56c0,0,-62,-56,-98,-152c0,0,-36,-95,-36,-199c0,0,0,-79,33,-127c0,0,33,-48,89,-48ZM245,-14c0,0,-90,0,-145,66c0,0,-54,66,-54,182c0,0,0,131,57,244c0,0,57,114,152,178c0,0,96,64,208,64c0,0,90,0,170,-33l33,26h40L589,52L673,33L667,0H454l22,117C476,117,350,-14,245,-14Z" 
id="f3_1x"
transform="scale(0.001,-0.001)" />

<path d="M0,356v74H784V356Z" 
id="f4_h"
transform="scale(0.001,-0.001)" />

<path d="M551,45c0,0,171,0,252,108c0,0,82,108,82,349c0,0,0,239,-81,344c0,0,-81,105,-253,105c0,0,-172,0,-252,-105c0,0,-80,-105,-80,-344c0,0,0,-241,80,-349c0,0,81,-108,252,-108Zm0,-59c0,0,-238,0,-363,129C188,115,63,245,63,501c0,0,0,510,488,510c0,0,242,0,366,-129c0,0,124,-130,124,-381c0,0,0,-255,-126,-385C915,116,790,-14,551,-14Z" 
id="f2_1f"
transform="scale(0.001,-0.001)" />

<path d="M31,0V33l88,19V649L31,668v33H235l7,-87c0,0,44,37,121,71c0,0,76,35,121,35h11V530H463l-43,82c0,0,-37,0,-88,-10c0,0,-52,-10,-89,-26V52L363,33V0Z" 
id="f2_2e"
transform="scale(0.001,-0.001)" />

<path d="M58,-234v58c0,0,131,42,131,125c0,0,0,15,-11,27c0,0,-11,12,-38,25C140,1,89,27,89,75c0,0,0,40,25,61c0,0,26,21,65,21c0,0,48,0,77,-34c0,0,30,-34,30,-86c0,0,0,-101,-60,-170c0,0,-59,-69,-168,-101Z" 
id="f2_g"
transform="scale(0.001,-0.001)" />

<path d="M0,-14L351,1007h73L75,-14Z" 
id="f2_j"
transform="scale(0.001,-0.001)" />

<path d="M191,-20c0,0,-39,0,-65,25c0,0,-25,27,-25,64c0,0,0,38,26,64c0,0,26,26,64,26c0,0,38,0,64,-26c0,0,26,-26,26,-64c0,0,0,-37,-25,-64c0,0,-26,-25,-65,-25Z" 
id="f2_i"
transform="scale(0.001,-0.001)" />

<path d="M681,416L504,902L333,416ZM669,0V40L803,60L704,348H310L210,60L344,40V0H15V40L128,60l341,949H611L965,60L1092,40V0Z" 
id="f2_11"
transform="scale(0.001,-0.001)" />

<path d="M382,45c0,0,188,0,188,314c0,0,0,143,-47,213c0,0,-46,69,-141,69c0,0,-87,0,-146,-24V58c0,0,67,-13,146,-13ZM25,-325v35l88,18V649L34,668v33H231l1,-41c0,0,31,27,84,43c0,0,53,17,107,17c0,0,134,0,208,-94c0,0,73,-93,73,-267c0,0,0,-178,-80,-276c0,0,-80,-97,-232,-97c0,0,-84,0,-160,16c0,0,4,-53,4,-84V-272l123,-18v-35Z" 
id="f2_2c"
transform="scale(0.001,-0.001)" />

<path d="M148,-329c0,0,-58,0,-114,13v151H69l24,-71c0,0,23,-17,64,-17c0,0,39,0,72,22c0,0,33,23,60,67c0,0,27,44,68,157L90,649L19,668v33H344V668L233,648L423,158L606,649L497,668v33H758V668L685,652L411,-43c0,0,-48,-124,-84,-177c0,0,-36,-54,-79,-82c0,0,-44,-27,-100,-27Z" 
id="f2_2l"
transform="scale(0.001,-0.001)" />

<path d="M359,-270c0,0,124,0,192,46c0,0,67,47,67,129c0,0,0,43,-26,67c0,0,-26,24,-79,24H242c0,0,-32,-27,-51,-69c0,0,-20,-41,-20,-77c0,0,0,-64,46,-92c0,0,46,-28,142,-28Zm11,561c0,0,81,0,115,47c0,0,34,47,34,141c0,0,0,100,-35,142c0,0,-35,42,-113,42c0,0,-78,0,-114,-43c0,0,-37,-42,-37,-141c0,0,0,-98,36,-143c0,0,36,-45,114,-45ZM359,-329c0,0,-143,0,-218,44c0,0,-75,43,-75,125c0,0,0,39,27,78c0,0,26,38,98,89c0,0,-43,14,-72,48c0,0,-29,35,-29,74L208,262c0,0,-118,55,-118,217c0,0,0,115,73,178c0,0,73,63,211,63c0,0,28,0,71,-6c0,0,44,-6,67,-13l165,83l26,-32L599,644c0,0,50,-56,50,-165c0,0,0,-120,-72,-182c0,0,-73,-62,-208,-62c0,0,-62,0,-114,11L208,148c0,0,2,-13,29,-24c0,0,27,-12,67,-12H512c0,0,113,0,168,-49c0,0,55,-49,55,-134c0,0,0,-79,-44,-137c0,0,-43,-58,-128,-90c0,0,-84,-31,-204,-31Z" 
id="f2_23"
transform="scale(0.001,-0.001)" />

<path d="M0,-123V985c0,0,0,202,88,304c0,0,88,101,278,126v-33c0,0,-112,-27,-179,-86c0,0,-67,-59,-91,-136c0,0,-24,-76,-24,-252V-123Z" 
id="f4_4u"
transform="scale(0.001,-0.001)" />

<path d="M52,62L0,114L278,390L0,667l52,52L330,442L608,719l51,-51L382,390L659,114L608,62L330,338L52,62Z" 
id="f4_3a"
transform="scale(0.001,-0.001)" />

<path d="M293,-123V191c0,0,0,200,-67,292c0,0,-67,92,-226,135v57c0,0,159,44,226,135c0,0,67,92,67,292v313h73V1088c0,0,0,-108,-23,-189c0,0,-22,-80,-61,-127c0,0,-39,-46,-95,-75c0,0,-56,-28,-153,-51c0,0,97,-21,157,-52c0,0,61,-31,99,-82c0,0,39,-51,57,-125c0,0,19,-74,19,-180V-123Z" 
id="f4_4v"
transform="scale(0.001,-0.001)" />

<path d="M679,-123c0,0,-190,24,-278,124c0,0,-88,101,-88,305V1415h72V383c0,0,0,-111,12,-191c0,0,11,-79,46,-133c0,0,35,-53,94,-91c0,0,59,-39,142,-58v-33Z" 
id="f4_4w"
transform="scale(0.001,-0.001)" />

<path d="M64,0V34L168,59V639H47v36l121,29v49c0,0,0,155,61,239c0,0,62,84,173,84c0,0,58,0,107,-15V908H472l-33,92c0,0,-26,16,-62,16c0,0,-47,0,-66,-42c0,0,-19,-42,-19,-157V701H478V639H292V59L443,34V0Z" 
id="f2_22"
transform="scale(0.001,-0.001)" />

<path d="M-12,338v55H777V338Z" 
id="f6_4y"
transform="scale(0.001,-0.001)" />

<path d="M13,0V34L95,46L325,350L122,649L40,668v33H357V668L264,648L399,446L554,649l-96,19v33H710V668L630,652L433,397L663,50L745,34V0H427V34l94,17L359,299L169,50L266,34V0Z" 
id="f2_2k"
transform="scale(0.001,-0.001)" />

<path d="M76,316v76H787V316Zm0,306v76H787V622Z" 
id="f2_x"
transform="scale(0.001,-0.001)" />

<path d="M200,-14c0,0,-59,0,-93,35c0,0,-34,36,-34,100c0,0,0,22,4,51c0,0,4,30,82,467H67l6,33l99,29L275,860h47L295,701H455L443,639H283L210,230c0,0,-13,-69,-13,-99c0,0,0,-34,17,-51c0,0,17,-16,43,-16c0,0,54,0,113,21L386,50c0,0,-92,-64,-186,-64Z" 
id="f3_2g"
transform="scale(0.001,-0.001)" />

<path d="M945,-20c0,0,47,75,125,153H57v74H1147l108,91c0,0,23,19,95,72c0,0,-134,103,-203,166H57v72H1070c0,0,-78,78,-125,154h85c0,0,88,-107,217,-217c0,0,130,-110,206,-154V349c0,0,-101,-58,-219,-162c0,0,-118,-103,-204,-207Z" 
id="f4_4g"
transform="scale(0.001,-0.001)" />

<path d="M327,-14L84,649L1,668v33H335V668L219,648L385,174L554,632h63L786,171L944,649L830,668v33h267V668l-78,-16L784,-14H726L553,448L382,-14Z" 
id="f2_2j"
transform="scale(0.001,-0.001)" />

<path d="M83,0C83,0,48,0,24,24C24,24,0,49,0,83c0,0,0,34,24,58c0,0,24,24,59,24c0,0,34,0,58,-24c0,0,24,-24,24,-58c0,0,0,-34,-24,-59C141,24,117,0,83,0ZM695,0c0,0,-34,0,-58,24c0,0,-25,25,-25,59c0,0,0,34,25,58c0,0,24,24,58,24c0,0,34,0,58,-24c0,0,24,-24,24,-58c0,0,0,-34,-24,-59C753,24,729,0,695,0ZM388,594c0,0,-34,0,-59,23c0,0,-24,24,-24,59c0,0,0,34,24,58c0,0,25,25,59,25c0,0,34,0,58,-25c0,0,24,-24,24,-58c0,0,0,-35,-24,-59c0,0,-24,-23,-58,-23Z" 
id="f4_1s"
transform="scale(0.001,-0.001)" />

<path d="M305,45c0,0,76,0,141,56c0,0,64,56,101,151c0,0,37,95,37,200c0,0,0,83,-35,129c0,0,-34,46,-92,46c0,0,-44,0,-96,-29c0,0,-51,-29,-97,-75L185,81c0,0,43,-36,120,-36ZM295,-14c0,0,-65,0,-128,16C167,2,104,19,57,48l171,960l-100,18l6,34H358L303,731c0,0,-13,-85,-29,-144c0,0,59,61,122,97c0,0,64,36,116,36c0,0,94,0,150,-67c0,0,56,-67,56,-182c0,0,0,-129,-56,-242C662,229,606,115,509,50c0,0,-98,-64,-214,-64Z" 
id="f3_1y"
transform="scale(0.001,-0.001)" />

<path d="M0,-123V1415H525v-72H72V-123Z" 
id="f4_4r"
transform="scale(0.001,-0.001)" />

<path d="M478,-123V1343H26v72H550V-123Z" 
id="f4_57"
transform="scale(0.001,-0.001)" />

<path d="M0,-123V1415H72V-51H525v-72Z" 
id="f4_4t"
transform="scale(0.001,-0.001)" />

<path d="M26,-123v72H478V1415h72V-123Z" 
id="f4_59"
transform="scale(0.001,-0.001)" />

<path d="M595,60c0,0,141,0,206,102c0,0,65,102,65,340c0,0,0,236,-65,335c0,0,-65,100,-206,100c0,0,-142,0,-207,-100c0,0,-66,-99,-66,-335c0,0,0,-239,66,-340c0,0,65,-102,207,-102Zm0,-74c0,0,-253,0,-387,130C208,116,75,246,75,501c0,0,0,510,520,510c0,0,256,0,387,-129c0,0,132,-130,132,-381c0,0,0,-254,-133,-385C981,116,848,-14,595,-14Z" 
id="f5_1f"
transform="scale(0.001,-0.001)" />

<path d="M498,506c0,0,115,0,164,47c0,0,48,48,48,166c0,0,0,112,-46,156c0,0,-46,43,-169,43H390V506ZM793,0L514,423H390V74L518,54V0H36V54L154,74V926L26,945v55H504c0,0,221,0,330,-68c0,0,109,-68,109,-212c0,0,0,-215,-201,-276L1009,74L1117,54V0Z" 
id="f5_1i"
transform="scale(0.001,-0.001)" />


</defs>
</svg>