<?xml version="1.0" encoding="UTF-8" standalone="no"?>
<!DOCTYPE svg PUBLIC "-//W3C//DTD SVG 1.1//EN"
"http://www.w3.org/Graphics/SVG/1.1/DTD/svg11.dtd">
<svg viewBox="0 0 909 1286" version="1.1" xmlns="http://www.w3.org/2000/svg" xmlns:xlink="http://www.w3.org/1999/xlink">
<defs>
<clipPath id="c0_74"><path d="M55.2,212.1V125.9H240.3v86.2Z" /></clipPath>
<clipPath id="c1_74"><path d="M128.9,242.6V214.2H266.6v28.4Z" /></clipPath>
<clipPath id="c2_74"><path d="M55.2,330.9V244.6H283.7v86.3Z" /></clipPath>
<clipPath id="c3_74"><path d="M55.2,419.3V333H302.7v86.3Z" /></clipPath>
<clipPath id="c4_74"><path d="M128.9,449.7V421.4h193v28.3Z" /></clipPath>
<clipPath id="c5_74"><path d="M55.2,538.1V451.8H306.3v86.3Z" /></clipPath>
<clipPath id="c6_74"><path d="M55.2,566.7V544.5H97.1v22.2Z" /></clipPath>
<clipPath id="c7_74"><path d="M55.2,594.6V572.4H97.1v22.2Z" /></clipPath>
<clipPath id="c8_74"><path d="M55.2,642.6V621.2h70v21.4Z" /></clipPath>
<clipPath id="c9_74"><path d="M55.2,730.9V644.7H295.9v86.2Z" /></clipPath>
<clipPath id="c10_74"><path d="M128.9,761.4V733.1H229v28.3Z" /></clipPath>
<clipPath id="c11_74"><path d="M55.2,849.8V763.5H304.5v86.3Z" /></clipPath>
<clipPath id="c12_74"><path d="M128.9,880.6V852.2H239.4v28.4Z" /></clipPath>
<clipPath id="c13_74"><path d="M55.2,968.9V882.6H280.5v86.3Z" /></clipPath>
<clipPath id="c14_74"><path d="M128.9,999.3V971H241.2v28.3Z" /></clipPath>
<clipPath id="c15_74"><path d="M55.2,1087.7v-86.3H289.8v86.3Z" /></clipPath>
<clipPath id="c16_74"><path d="M128.9,1118.1v-28.3H230.8v28.3Z" /></clipPath>
<style type="text/css"><![CDATA[
.g0_74{
fill: #D9D9D9;
}
.g1_74{
fill: none;
stroke: #000000;
stroke-width: 0.7638889;
stroke-linecap: butt;
stroke-linejoin: miter;
}
.g2_74{
fill: none;
stroke: #000000;
stroke-width: 0.9089803;
stroke-linecap: butt;
stroke-linejoin: round;
}
.g3_74{
fill: none;
stroke: #000000;
stroke-width: 0.906753;
stroke-linecap: butt;
stroke-linejoin: round;
}
.g4_74{
fill: none;
stroke: #000000;
stroke-width: 0.9097597;
stroke-linecap: butt;
stroke-linejoin: round;
}
.g5_74{
fill: none;
stroke: #000000;
stroke-width: 0.9118067;
stroke-linecap: butt;
stroke-linejoin: round;
}
.g6_74{
}
]]></style>
</defs>
<image preserveAspectRatio="none" x="747" y="1196" width="96" height="59" xlink:href="img/1.png" />
<image preserveAspectRatio="none" x="336" y="41" width="259" height="51" xlink:href="img/2.png" />
<image preserveAspectRatio="none" x="342" y="50" width="247" height="27" xlink:href="img/3.png" />
<image preserveAspectRatio="none" x="341" y="45" width="239" height="42" xlink:href="img/4.png" />
<g fill="#FFFFFF" >
<use xlink:href="#f0_j" transform="matrix(11.5,0,0,11.5,355.1,70.1)" />
<use xlink:href="#f0_i" transform="matrix(11.5,0,0,11.5,364.3,70.1)" />
<use xlink:href="#f0_2n" transform="matrix(11.5,0,0,11.5,374.1,70.1)" />
<use xlink:href="#f0_t" transform="matrix(11.5,0,0,11.5,382.6,70.1)" />
<use xlink:href="#f0_oj" transform="matrix(11.5,0,0,11.5,391,70.1)" />
<use xlink:href="#f0_3e" transform="matrix(11.5,0,0,11.5,396.5,70.1)" />
<use xlink:href="#f0_1c" transform="matrix(11.5,0,0,11.5,406.1,70.1)" />
<use xlink:href="#f0_1c" transform="matrix(11.5,0,0,11.5,410.8,70.1)" />
<use xlink:href="#f0_oj" transform="matrix(11.5,0,0,11.5,415.6,70.1)" />
<use xlink:href="#f0_rz" transform="matrix(11.5,0,0,11.5,421.1,70.1)" />
<use xlink:href="#f0_rx" transform="matrix(11.5,0,0,11.5,429.9,70.1)" />
<use xlink:href="#f0_ry" transform="matrix(11.5,0,0,11.5,438.7,70.1)" />
<use xlink:href="#f0_s3" transform="matrix(11.5,0,0,11.5,447.5,70.1)" />
<use xlink:href="#f0_t" transform="matrix(11.5,0,0,11.5,460.4,70.1)" />
<use xlink:href="#f0_3e" transform="matrix(11.5,0,0,11.5,468.8,70.1)" />
<use xlink:href="#f0_5" transform="matrix(11.5,0,0,11.5,478.3,70.1)" />
<use xlink:href="#f0_1x" transform="matrix(11.5,0,0,11.5,489,70.1)" />
<use xlink:href="#f0_1c" transform="matrix(11.5,0,0,11.5,504.4,70.1)" />
<use xlink:href="#f0_1y" transform="matrix(11.5,0,0,11.5,509.1,70.1)" />
<use xlink:href="#f0_5" transform="matrix(11.5,0,0,11.5,520.8,70.1)" />
<use xlink:href="#f0_2t" transform="matrix(11.5,0,0,11.5,531.5,70.1)" />
<use xlink:href="#f0_1c" transform="matrix(11.5,0,0,11.5,540.2,70.1)" />
<use xlink:href="#f0_24" transform="matrix(11.5,0,0,11.5,545,70.1)" />
<use xlink:href="#f0_1y" transform="matrix(11.5,0,0,11.5,556.7,70.1)" />
</g>
<image preserveAspectRatio="none" x="554" y="45" width="36" height="42" xlink:href="img/5.png" />
<g fill="#FFFFFF" >
<use xlink:href="#f1_l" transform="matrix(11,0,0,11,770.3,1227.6)" />
<use xlink:href="#f1_l" transform="matrix(11,0,0,11,779.1,1227.6)" />
<use xlink:href="#f1_j" transform="matrix(11,0,0,11,792.3,1227.6)" />
<use xlink:href="#f1_l" transform="matrix(11,0,0,11,802.9,1227.6)" />
<use xlink:href="#f1_r" transform="matrix(11,0,0,11,811.7,1227.6)" />
</g>
<path fill-rule="evenodd" d="M52.8,1193.5H856.9v-.8H52.8v.8Z" class="g0_74" />
<path d="M37.9,99.4L873,98.5" class="g1_74" />
<path d="M58.7,131.1v77.3M206.8,131.1v77.3" class="g2_74" />
<g clip-path="url(#c0_74)">
<g fill="#000000" >
<use xlink:href="#f2_k" transform="matrix(12.5,0,0,12.3,227.1,174.3)" />
<use xlink:href="#f3_1x" transform="matrix(12.5,0,0,12.3,61.3,146.7)" />
<use xlink:href="#f3_2k" transform="matrix(12.5,0,0,12.3,89.3,146.7)" />
<use xlink:href="#f3_1x" transform="matrix(12.5,0,0,12.3,115.1,146.7)" />
<use xlink:href="#f3_2k" transform="matrix(12.5,0,0,12.3,142.8,146.7)" />
<use xlink:href="#f3_1x" transform="matrix(12.5,0,0,12.3,168.8,146.7)" />
<use xlink:href="#f3_2k" transform="matrix(12.5,0,0,12.3,196.5,146.7)" />
<use xlink:href="#f3_1x" transform="matrix(12.5,0,0,12.3,61.4,174.3)" />
<use xlink:href="#f3_2k" transform="matrix(12.5,0,0,12.3,89.1,174.3)" />
<use xlink:href="#f3_1x" transform="matrix(12.5,0,0,12.3,115,174.3)" />
<use xlink:href="#f3_2k" transform="matrix(12.5,0,0,12.3,143,174.3)" />
<use xlink:href="#f3_1x" transform="matrix(12.5,0,0,12.3,168.8,174.3)" />
<use xlink:href="#f3_2k" transform="matrix(12.5,0,0,12.3,196.5,174.3)" />
<use xlink:href="#f3_1x" transform="matrix(12.5,0,0,12.3,61.3,202)" />
<use xlink:href="#f3_2k" transform="matrix(12.5,0,0,12.3,89.3,202)" />
<use xlink:href="#f3_1x" transform="matrix(12.5,0,0,12.3,115.1,202)" />
<use xlink:href="#f3_2k" transform="matrix(12.5,0,0,12.3,142.8,202)" />
<use xlink:href="#f3_1x" transform="matrix(12.5,0,0,12.3,168.7,202)" />
<use xlink:href="#f3_2k" transform="matrix(12.5,0,0,12.3,196.7,202)" />
<use xlink:href="#f4_f" transform="matrix(12.5,0,0,12.3,74.4,146.7)" />
<use xlink:href="#f4_h" transform="matrix(12.5,0,0,12.3,128.3,146.7)" />
<use xlink:href="#f4_h" transform="matrix(12.5,0,0,12.3,182,146.7)" />
<use xlink:href="#f4_h" transform="matrix(12.5,0,0,12.3,74.6,174.3)" />
<use xlink:href="#f4_f" transform="matrix(12.5,0,0,12.3,128.1,174.3)" />
<use xlink:href="#f4_h" transform="matrix(12.5,0,0,12.3,182,174.3)" />
<use xlink:href="#f4_x" transform="matrix(12.5,0,0,12.3,212.8,174.3)" />
<use xlink:href="#f4_f" transform="matrix(12.5,0,0,12.3,74.4,202)" />
<use xlink:href="#f4_h" transform="matrix(12.5,0,0,12.3,128.3,202)" />
<use xlink:href="#f4_f" transform="matrix(12.5,0,0,12.3,181.9,202)" />
</g>
</g>
<g fill="#000000" >
<use xlink:href="#f2_11" transform="matrix(12,0,0,12,55,233.3)" />
<use xlink:href="#f2_2c" transform="matrix(12,0,0,12,67.9,233.3)" />
<use xlink:href="#f2_2c" transform="matrix(12,0,0,12,77,233.3)" />
<use xlink:href="#f2_28" transform="matrix(12,0,0,12,86.6,233.3)" />
<use xlink:href="#f2_2l" transform="matrix(12,0,0,12,91.6,233.3)" />
<use xlink:href="#f2_25" transform="matrix(12,0,0,12,100.8,233.3)" />
<use xlink:href="#f2_2a" transform="matrix(12,0,0,12,105.6,233.3)" />
<use xlink:href="#f2_23" transform="matrix(12,0,0,12,114.8,233.3)" />
</g>
<g clip-path="url(#c1_74)">
<g fill="#000000" >
<use xlink:href="#f2_l" transform="matrix(7.5,0,0,7,142.3,238.4)" />
<use xlink:href="#f2_l" transform="matrix(7.5,0,0,7,185.6,238.4)" />
<use xlink:href="#f2_m" transform="matrix(7.5,0,0,7,221.3,238.4)" />
<use xlink:href="#f2_n" transform="matrix(7.5,0,0,7,257.4,238.4)" />
<use xlink:href="#f3_13" transform="matrix(12.9,0,0,12.1,131.1,233.7)" />
<use xlink:href="#f3_13" transform="matrix(12.9,0,0,12.1,174.3,233.7)" />
<use xlink:href="#f3_13" transform="matrix(12.9,0,0,12.1,208.9,233.7)" />
<use xlink:href="#f3_13" transform="matrix(12.9,0,0,12.1,245.4,233.7)" />
<use xlink:href="#f4_34" transform="matrix(12.9,0,0,12.1,152.6,233.7)" />
<use xlink:href="#f4_f" transform="matrix(12.9,0,0,12.1,195.4,233.7)" />
<use xlink:href="#f4_f" transform="matrix(12.9,0,0,12.1,231.9,233.7)" />
</g>
</g>
<path d="M93.8,249.9v77.3M250.7,249.9v77.3" class="g3_74" />
<g clip-path="url(#c2_74)">
<g fill="#000000" >
<use xlink:href="#f2_n" transform="matrix(12.5,0,0,12.3,95.8,265.5)" />
<use xlink:href="#f2_n" transform="matrix(12.5,0,0,12.3,95.8,293.2)" />
<use xlink:href="#f2_k" transform="matrix(12.5,0,0,12.3,271.2,293.2)" />
<use xlink:href="#f2_n" transform="matrix(12.5,0,0,12.3,95.8,320.9)" />
<use xlink:href="#f3_1x" transform="matrix(12.5,0,0,12.3,104.7,265.5)" />
<use xlink:href="#f3_2k" transform="matrix(12.5,0,0,12.3,132.6,265.5)" />
<use xlink:href="#f3_1x" transform="matrix(12.5,0,0,12.3,158.5,265.5)" />
<use xlink:href="#f3_2k" transform="matrix(12.5,0,0,12.3,186.4,265.5)" />
<use xlink:href="#f3_1x" transform="matrix(12.5,0,0,12.3,212.5,265.5)" />
<use xlink:href="#f3_2k" transform="matrix(12.5,0,0,12.3,240.4,265.5)" />
<use xlink:href="#f3_1x" transform="matrix(12.5,0,0,12.3,104.7,293.2)" />
<use xlink:href="#f3_2k" transform="matrix(12.5,0,0,12.3,132.6,293.2)" />
<use xlink:href="#f3_1x" transform="matrix(12.5,0,0,12.3,158.4,293.2)" />
<use xlink:href="#f3_2k" transform="matrix(12.5,0,0,12.3,186.6,293.2)" />
<use xlink:href="#f3_1x" transform="matrix(12.5,0,0,12.3,212.6,293.2)" />
<use xlink:href="#f3_2k" transform="matrix(12.5,0,0,12.3,240.4,293.2)" />
<use xlink:href="#f3_1x" transform="matrix(12.5,0,0,12.3,104.7,320.9)" />
<use xlink:href="#f3_2k" transform="matrix(12.5,0,0,12.3,132.6,320.9)" />
<use xlink:href="#f3_1x" transform="matrix(12.5,0,0,12.3,158.5,320.9)" />
<use xlink:href="#f3_2k" transform="matrix(12.5,0,0,12.3,186.4,320.9)" />
<use xlink:href="#f3_1x" transform="matrix(12.5,0,0,12.3,212.4,320.9)" />
<use xlink:href="#f3_2k" transform="matrix(12.5,0,0,12.3,240.5,320.9)" />
<use xlink:href="#f4_h" transform="matrix(12.5,0,0,12.3,117.9,265.5)" />
<use xlink:href="#f4_h" transform="matrix(12.5,0,0,12.3,171.8,265.5)" />
<use xlink:href="#f4_h" transform="matrix(12.5,0,0,12.3,225.8,265.5)" />
<use xlink:href="#f4_4g" transform="matrix(12.5,0,0,12.3,57.4,293.2)" />
<use xlink:href="#f4_h" transform="matrix(12.5,0,0,12.3,117.9,293.2)" />
<use xlink:href="#f4_f" transform="matrix(12.5,0,0,12.3,171.7,293.2)" />
<use xlink:href="#f4_h" transform="matrix(12.5,0,0,12.3,225.8,293.2)" />
<use xlink:href="#f4_x" transform="matrix(12.5,0,0,12.3,256.8,293.2)" />
<use xlink:href="#f4_h" transform="matrix(12.5,0,0,12.3,117.9,320.9)" />
<use xlink:href="#f4_h" transform="matrix(12.5,0,0,12.3,171.8,320.9)" />
<use xlink:href="#f4_f" transform="matrix(12.5,0,0,12.3,225.7,320.9)" />
</g>
</g>
<path d="M152.5,338.3v77.2M269.6,338.3v77.2" class="g4_74" />
<g clip-path="url(#c3_74)">
<g fill="#000000" >
<use xlink:href="#f2_l" transform="matrix(12.5,0,0,12.3,153.1,353.8)" />
<use xlink:href="#f2_c" transform="matrix(12.5,0,0,12.3,92.5,381.5)" />
<use xlink:href="#f2_n" transform="matrix(12.5,0,0,12.3,98.5,381.5)" />
<use xlink:href="#f2_d" transform="matrix(12.5,0,0,12.3,143.6,381.5)" />
<use xlink:href="#f2_l" transform="matrix(12.5,0,0,12.3,153.1,381.5)" />
<use xlink:href="#f2_k" transform="matrix(12.5,0,0,12.3,289.8,381.5)" />
<use xlink:href="#f2_l" transform="matrix(12.5,0,0,12.3,153.1,409.2)" />
<use xlink:href="#f3_1x" transform="matrix(12.5,0,0,12.3,178.1,353.8)" />
<use xlink:href="#f3_2k" transform="matrix(12.5,0,0,12.3,205.8,353.8)" />
<use xlink:href="#f3_1x" transform="matrix(12.5,0,0,12.3,231.8,353.8)" />
<use xlink:href="#f3_2k" transform="matrix(12.5,0,0,12.3,259.5,353.8)" />
<use xlink:href="#f3_1x" transform="matrix(12.5,0,0,12.3,107.3,381.5)" />
<use xlink:href="#f3_2k" transform="matrix(12.5,0,0,12.3,135,381.5)" />
<use xlink:href="#f3_1x" transform="matrix(12.5,0,0,12.3,177.9,381.5)" />
<use xlink:href="#f3_2k" transform="matrix(12.5,0,0,12.3,205.9,381.5)" />
<use xlink:href="#f3_1x" transform="matrix(12.5,0,0,12.3,231.7,381.5)" />
<use xlink:href="#f3_2k" transform="matrix(12.5,0,0,12.3,259.4,381.5)" />
<use xlink:href="#f3_1x" transform="matrix(12.5,0,0,12.3,178.1,409.2)" />
<use xlink:href="#f3_2k" transform="matrix(12.5,0,0,12.3,205.8,409.2)" />
<use xlink:href="#f3_1x" transform="matrix(12.5,0,0,12.3,231.6,409.2)" />
<use xlink:href="#f3_2k" transform="matrix(12.5,0,0,12.3,259.6,409.2)" />
<use xlink:href="#f4_h" transform="matrix(12.5,0,0,12.3,191.2,353.8)" />
<use xlink:href="#f4_h" transform="matrix(12.5,0,0,12.3,244.9,353.8)" />
<use xlink:href="#f4_4g" transform="matrix(12.5,0,0,12.3,57.4,381.5)" />
<use xlink:href="#f4_h" transform="matrix(12.5,0,0,12.3,120.5,381.5)" />
<use xlink:href="#f4_f" transform="matrix(12.5,0,0,12.3,191.1,381.5)" />
<use xlink:href="#f4_h" transform="matrix(12.5,0,0,12.3,244.9,381.5)" />
<use xlink:href="#f4_x" transform="matrix(12.5,0,0,12.3,275.6,381.5)" />
<use xlink:href="#f4_h" transform="matrix(12.5,0,0,12.3,191.2,409.2)" />
<use xlink:href="#f4_f" transform="matrix(12.5,0,0,12.3,244.8,409.2)" />
</g>
</g>
<g fill="#000000" >
<use xlink:href="#f2_11" transform="matrix(12,0,0,12,55,440.5)" />
<use xlink:href="#f2_2c" transform="matrix(12,0,0,12,67.9,440.5)" />
<use xlink:href="#f2_2c" transform="matrix(12,0,0,12,77,440.5)" />
<use xlink:href="#f2_28" transform="matrix(12,0,0,12,86.6,440.5)" />
<use xlink:href="#f2_2l" transform="matrix(12,0,0,12,91.6,440.5)" />
<use xlink:href="#f2_25" transform="matrix(12,0,0,12,100.8,440.5)" />
<use xlink:href="#f2_2a" transform="matrix(12,0,0,12,105.6,440.5)" />
<use xlink:href="#f2_23" transform="matrix(12,0,0,12,114.8,440.5)" />
</g>
<g clip-path="url(#c4_74)">
<g fill="#000000" >
<use xlink:href="#f2_m" transform="matrix(7.5,0,0,7,142.9,445.5)" />
<use xlink:href="#f2_m" transform="matrix(7.5,0,0,7,187.4,445.5)" />
<use xlink:href="#f2_l" transform="matrix(7.5,0,0,7,221.8,445.5)" />
<use xlink:href="#f2_n" transform="matrix(7.5,0,0,7,259.9,445.5)" />
<use xlink:href="#f2_l" transform="matrix(7.5,0,0,7,313.6,445.5)" />
<use xlink:href="#f2_a" transform="matrix(13,0,0,12.1,231.3,440.8)" />
<use xlink:href="#f3_1i" transform="matrix(13,0,0,12.1,132.2,440.8)" />
<use xlink:href="#f3_1i" transform="matrix(13,0,0,12.1,176.8,440.8)" />
<use xlink:href="#f3_1i" transform="matrix(13,0,0,12.1,212.3,440.8)" />
<use xlink:href="#f3_1i" transform="matrix(13,0,0,12.1,249.6,440.8)" />
<use xlink:href="#f3_1i" transform="matrix(13,0,0,12.1,304.1,440.8)" />
<use xlink:href="#f4_34" transform="matrix(13,0,0,12.1,153.9,440.8)" />
<use xlink:href="#f4_h" transform="matrix(13,0,0,12.1,198,440.8)" />
<use xlink:href="#f4_34" transform="matrix(13,0,0,12.1,270.7,440.8)" />
<use xlink:href="#f4_h" transform="matrix(13,0,0,12.1,292.9,440.8)" />
</g>
</g>
<path d="M152.8,457.1v77.3m120,-77.3v77.3" class="g5_74" />
<g clip-path="url(#c5_74)">
<g fill="#000000" >
<use xlink:href="#f2_l" transform="matrix(12.6,0,0,12.3,155,472.6)" />
<use xlink:href="#f2_c" transform="matrix(12.6,0,0,12.3,92.6,500.3)" />
<use xlink:href="#f2_n" transform="matrix(12.6,0,0,12.3,98.6,500.3)" />
<use xlink:href="#f2_d" transform="matrix(12.6,0,0,12.3,143.8,500.3)" />
<use xlink:href="#f2_k" transform="matrix(12.6,0,0,12.3,155.1,500.3)" />
<use xlink:href="#f2_m" transform="matrix(12.6,0,0,12.3,190.1,500.3)" />
<use xlink:href="#f2_k" transform="matrix(12.6,0,0,12.3,248.4,500.3)" />
<use xlink:href="#f2_k" transform="matrix(12.6,0,0,12.3,293,500.3)" />
<use xlink:href="#f2_k" transform="matrix(12.6,0,0,12.3,155.1,528.1)" />
<use xlink:href="#f2_k" transform="matrix(12.6,0,0,12.3,194.9,528.1)" />
<use xlink:href="#f2_m" transform="matrix(12.6,0,0,12.3,243.7,528.1)" />
<use xlink:href="#f3_1x" transform="matrix(12.6,0,0,12.3,181.5,472.6)" />
<use xlink:href="#f3_2k" transform="matrix(12.6,0,0,12.3,209.2,472.6)" />
<use xlink:href="#f3_1x" transform="matrix(12.6,0,0,12.3,235,472.6)" />
<use xlink:href="#f3_2k" transform="matrix(12.6,0,0,12.3,262.7,472.6)" />
<use xlink:href="#f3_1x" transform="matrix(12.6,0,0,12.3,107.5,500.3)" />
<use xlink:href="#f3_2k" transform="matrix(12.6,0,0,12.3,135.3,500.3)" />
<use xlink:href="#f3_2k" transform="matrix(12.6,0,0,12.3,200.5,500.3)" />
<use xlink:href="#f3_2k" transform="matrix(12.6,0,0,12.3,254.1,528.1)" />
<use xlink:href="#f4_h" transform="matrix(12.6,0,0,12.3,194.7,472.6)" />
<use xlink:href="#f4_h" transform="matrix(12.6,0,0,12.3,248.2,472.6)" />
<use xlink:href="#f4_4g" transform="matrix(12.6,0,0,12.3,57.4,500.3)" />
<use xlink:href="#f4_h" transform="matrix(12.6,0,0,12.3,120.7,500.3)" />
<use xlink:href="#f4_x" transform="matrix(12.6,0,0,12.3,278.9,500.3)" />
</g>
</g>
<g clip-path="url(#c6_74)">
<g fill="#000000" >
<use xlink:href="#f4_4g" transform="matrix(13,0,0,12,57.4,559.3)" />
</g>
</g>
<g fill="#000000" >
<use xlink:href="#f2_c" transform="matrix(12,0,0,12,101.2,559)" />
<use xlink:href="#f2_n" transform="matrix(12,0,0,12,107.5,559)" />
<use xlink:href="#f2_1x" transform="matrix(12,0,0,12,116.6,559)" />
<use xlink:href="#f5_4y" transform="matrix(12,0,0,12,129.5,559)" />
<use xlink:href="#f2_2k" transform="matrix(12,0,0,12,143,559)" />
<use xlink:href="#f2_d" transform="matrix(12,0,0,12,151.8,559)" />
<use xlink:href="#f2_c" transform="matrix(12,0,0,12,158.1,559)" />
<use xlink:href="#f2_o" transform="matrix(12,0,0,12,164.3,559)" />
<use xlink:href="#f2_2k" transform="matrix(12,0,0,12,173.4,559)" />
<use xlink:href="#f2_m" transform="matrix(7.9,0,0,7.9,182.3,552)" />
<use xlink:href="#f2_d" transform="matrix(12,0,0,12,188.5,559)" />
<use xlink:href="#f2_x" transform="matrix(12,0,0,12,199.5,559)" />
<use xlink:href="#f2_k" transform="matrix(12,0,0,12,214.5,559)" />
</g>
<g clip-path="url(#c7_74)">
<g fill="#000000" >
<use xlink:href="#f4_4g" transform="matrix(13,0,0,12,57.4,587.2)" />
</g>
</g>
<g fill="#000000" >
<use xlink:href="#f2_2k" transform="matrix(12,0,0,12,96.5,586.8)" />
<use xlink:href="#f2_x" transform="matrix(12,0,0,12,110,586.8)" />
<use xlink:href="#f2_k" transform="matrix(12,0,0,12,125,586.8)" />
<use xlink:href="#f2_2b" transform="matrix(12,0,0,12,138.9,586.8)" />
<use xlink:href="#f2_2e" transform="matrix(12,0,0,12,148.1,586.8)" />
<use xlink:href="#f2_n" transform="matrix(12,0,0,12,159.1,586.8)" />
<use xlink:href="#f2_1x" transform="matrix(12,0,0,12,168.2,586.8)" />
<use xlink:href="#f6_1f" transform="matrix(12,0,0,12,440.9,614.7)" />
<use xlink:href="#f6_1i" transform="matrix(12,0,0,12,455.2,614.7)" />
</g>
<g clip-path="url(#c8_74)">
<g fill="#000000" >
<use xlink:href="#f2_11" transform="matrix(13,0,0,12.5,57.9,639.7)" />
<use xlink:href="#f2_19" transform="matrix(13,0,0,12.5,90.4,639.7)" />
<use xlink:href="#f2_11" transform="matrix(13,0,0,12.5,106.7,639.7)" />
<use xlink:href="#f4_x" transform="matrix(13,0,0,12.5,75.9,639.7)" />
<use xlink:href="#f4_49" transform="matrix(13,0,0,12.5,99.3,639.7)" />
</g>
</g>
<g clip-path="url(#c9_74)">
<g fill="#000000" >
<use xlink:href="#f2_n" transform="matrix(12.6,0,0,12.3,101,665.5)" />
<use xlink:href="#f2_n" transform="matrix(12.6,0,0,12.3,137.3,665.5)" />
<use xlink:href="#f2_o" transform="matrix(12.6,0,0,12.3,163,665.5)" />
<use xlink:href="#f2_l" transform="matrix(12.6,0,0,12.3,206.9,665.5)" />
<use xlink:href="#f2_k" transform="matrix(12.6,0,0,12.3,233.1,665.5)" />
<use xlink:href="#f2_k" transform="matrix(12.6,0,0,12.3,259.1,665.5)" />
<use xlink:href="#f2_m" transform="matrix(12.6,0,0,12.3,101,693.2)" />
<use xlink:href="#f2_n" transform="matrix(12.6,0,0,12.3,137.3,693.2)" />
<use xlink:href="#f2_o" transform="matrix(12.6,0,0,12.3,163,693.2)" />
<use xlink:href="#f2_k" transform="matrix(12.6,0,0,12.3,207.1,693.2)" />
<use xlink:href="#f2_l" transform="matrix(12.6,0,0,12.3,233,693.2)" />
<use xlink:href="#f2_k" transform="matrix(12.6,0,0,12.3,259.1,693.2)" />
<use xlink:href="#f2_11" transform="matrix(12.6,0,0,12.3,278.6,693.2)" />
<use xlink:href="#f2_k" transform="matrix(12.6,0,0,12.3,100.8,720.9)" />
<use xlink:href="#f2_l" transform="matrix(12.6,0,0,12.3,137.7,720.9)" />
<use xlink:href="#f2_l" transform="matrix(12.6,0,0,12.3,162.7,720.9)" />
<use xlink:href="#f2_k" transform="matrix(12.6,0,0,12.3,207,720.9)" />
<use xlink:href="#f2_k" transform="matrix(12.6,0,0,12.3,233.1,720.9)" />
<use xlink:href="#f2_l" transform="matrix(12.6,0,0,12.3,259,720.9)" />
<use xlink:href="#f4_h" transform="matrix(12.6,0,0,12.3,127.3,665.5)" />
<use xlink:href="#f4_4r" transform="matrix(12.6,0,0,12.3,93.1,666.9)" />
<use xlink:href="#f4_57" transform="matrix(12.6,0,0,12.3,172.8,666.9)" />
<use xlink:href="#f4_4r" transform="matrix(12.6,0,0,12.3,199.5,666.9)" />
<use xlink:href="#f4_57" transform="matrix(12.6,0,0,12.3,269,666.9)" />
<use xlink:href="#f4_4s" transform="matrix(12.6,0,0,12.3,93.1,684.6)" />
<use xlink:href="#f4_58" transform="matrix(12.6,0,0,12.3,172.8,684.6)" />
<use xlink:href="#f4_4s" transform="matrix(12.6,0,0,12.3,199.5,684.6)" />
<use xlink:href="#f4_58" transform="matrix(12.6,0,0,12.3,269,684.6)" />
<use xlink:href="#f4_4g" transform="matrix(12.6,0,0,12.3,57.4,693.2)" />
<use xlink:href="#f4_h" transform="matrix(12.6,0,0,12.3,127.3,693.2)" />
<use xlink:href="#f4_x" transform="matrix(12.6,0,0,12.3,184.8,693.2)" />
<use xlink:href="#f4_4s" transform="matrix(12.6,0,0,12.3,93.1,702.3)" />
<use xlink:href="#f4_58" transform="matrix(12.6,0,0,12.3,172.8,702.3)" />
<use xlink:href="#f4_4s" transform="matrix(12.6,0,0,12.3,199.5,702.3)" />
<use xlink:href="#f4_58" transform="matrix(12.6,0,0,12.3,269,702.3)" />
<use xlink:href="#f4_4s" transform="matrix(12.6,0,0,12.3,93.1,720)" />
<use xlink:href="#f4_58" transform="matrix(12.6,0,0,12.3,172.8,720)" />
<use xlink:href="#f4_4s" transform="matrix(12.6,0,0,12.3,199.5,720)" />
<use xlink:href="#f4_58" transform="matrix(12.6,0,0,12.3,269,720)" />
<use xlink:href="#f4_h" transform="matrix(12.6,0,0,12.3,127.7,720.9)" />
<use xlink:href="#f4_4t" transform="matrix(12.6,0,0,12.3,93.1,725.8)" />
<use xlink:href="#f4_59" transform="matrix(12.6,0,0,12.3,172.8,725.8)" />
<use xlink:href="#f4_4t" transform="matrix(12.6,0,0,12.3,199.5,725.8)" />
<use xlink:href="#f4_59" transform="matrix(12.6,0,0,12.3,269,725.8)" />
</g>
</g>
<g fill="#000000" >
<use xlink:href="#f2_11" transform="matrix(12,0,0,12,55,752.2)" />
<use xlink:href="#f2_2c" transform="matrix(12,0,0,12,67.9,752.2)" />
<use xlink:href="#f2_2c" transform="matrix(12,0,0,12,77,752.2)" />
<use xlink:href="#f2_28" transform="matrix(12,0,0,12,86.6,752.2)" />
<use xlink:href="#f2_2l" transform="matrix(12,0,0,12,91.6,752.2)" />
<use xlink:href="#f2_25" transform="matrix(12,0,0,12,100.8,752.2)" />
<use xlink:href="#f2_2a" transform="matrix(12,0,0,12,105.6,752.2)" />
<use xlink:href="#f2_23" transform="matrix(12,0,0,12,114.8,752.2)" />
</g>
<g clip-path="url(#c10_74)">
<g fill="#000000" >
<use xlink:href="#f2_l" transform="matrix(7.5,0,0,7,141.6,757.2)" />
<use xlink:href="#f2_l" transform="matrix(7.5,0,0,7,183.8,757.2)" />
<use xlink:href="#f2_m" transform="matrix(7.5,0,0,7,218.3,757.2)" />
<use xlink:href="#f3_1i" transform="matrix(13,0,0,12.1,132.2,752.5)" />
<use xlink:href="#f3_1i" transform="matrix(13,0,0,12.1,174.4,752.5)" />
<use xlink:href="#f3_1i" transform="matrix(13,0,0,12.1,207.8,752.5)" />
<use xlink:href="#f4_34" transform="matrix(13,0,0,12.1,151.8,752.5)" />
<use xlink:href="#f4_h" transform="matrix(13,0,0,12.1,193.6,752.5)" />
</g>
</g>
<g clip-path="url(#c11_74)">
<g fill="#000000" >
<use xlink:href="#f2_l" transform="matrix(12.5,0,0,12.3,100.6,784.3)" />
<use xlink:href="#f2_k" transform="matrix(12.5,0,0,12.3,131.8,784.3)" />
<use xlink:href="#f2_k" transform="matrix(12.5,0,0,12.3,162.8,784.3)" />
<use xlink:href="#f2_l" transform="matrix(12.5,0,0,12.3,206.8,784.3)" />
<use xlink:href="#f2_l" transform="matrix(12.5,0,0,12.3,243.3,784.3)" />
<use xlink:href="#f2_k" transform="matrix(12.5,0,0,12.3,267.8,784.3)" />
<use xlink:href="#f2_m" transform="matrix(12.5,0,0,12.3,101,812)" />
<use xlink:href="#f2_n" transform="matrix(12.5,0,0,12.3,137.2,812)" />
<use xlink:href="#f2_o" transform="matrix(12.5,0,0,12.3,163,812)" />
<use xlink:href="#f2_k" transform="matrix(12.5,0,0,12.3,207,812)" />
<use xlink:href="#f2_l" transform="matrix(12.5,0,0,12.3,237.3,812)" />
<use xlink:href="#f2_k" transform="matrix(12.5,0,0,12.3,267.8,812)" />
<use xlink:href="#f2_11" transform="matrix(12.5,0,0,12.3,287.3,812)" />
<use xlink:href="#f2_k" transform="matrix(12.5,0,0,12.3,100.8,839.7)" />
<use xlink:href="#f2_l" transform="matrix(12.5,0,0,12.3,137.7,839.7)" />
<use xlink:href="#f2_l" transform="matrix(12.5,0,0,12.3,162.7,839.7)" />
<use xlink:href="#f2_k" transform="matrix(12.5,0,0,12.3,207,839.7)" />
<use xlink:href="#f2_k" transform="matrix(12.5,0,0,12.3,237.4,839.7)" />
<use xlink:href="#f2_l" transform="matrix(12.5,0,0,12.3,267.7,839.7)" />
<use xlink:href="#f4_h" transform="matrix(12.5,0,0,12.3,233.3,784.3)" />
<use xlink:href="#f4_4r" transform="matrix(12.5,0,0,12.3,93.1,785.7)" />
<use xlink:href="#f4_57" transform="matrix(12.5,0,0,12.3,172.8,785.7)" />
<use xlink:href="#f4_4r" transform="matrix(12.5,0,0,12.3,199.5,785.7)" />
<use xlink:href="#f4_57" transform="matrix(12.5,0,0,12.3,277.7,785.7)" />
<use xlink:href="#f4_4s" transform="matrix(12.5,0,0,12.3,93.1,803.4)" />
<use xlink:href="#f4_58" transform="matrix(12.5,0,0,12.3,172.8,803.4)" />
<use xlink:href="#f4_4s" transform="matrix(12.5,0,0,12.3,199.5,803.4)" />
<use xlink:href="#f4_58" transform="matrix(12.5,0,0,12.3,277.7,803.4)" />
<use xlink:href="#f4_4g" transform="matrix(12.5,0,0,12.3,57.4,812)" />
<use xlink:href="#f4_h" transform="matrix(12.5,0,0,12.3,127.2,812)" />
<use xlink:href="#f4_x" transform="matrix(12.5,0,0,12.3,184.7,812)" />
<use xlink:href="#f4_4s" transform="matrix(12.5,0,0,12.3,93.1,821.1)" />
<use xlink:href="#f4_58" transform="matrix(12.5,0,0,12.3,172.8,821.1)" />
<use xlink:href="#f4_4s" transform="matrix(12.5,0,0,12.3,199.5,821.1)" />
<use xlink:href="#f4_58" transform="matrix(12.5,0,0,12.3,277.7,821.1)" />
<use xlink:href="#f4_4s" transform="matrix(12.5,0,0,12.3,93.1,838.8)" />
<use xlink:href="#f4_58" transform="matrix(12.5,0,0,12.3,172.8,838.8)" />
<use xlink:href="#f4_4s" transform="matrix(12.5,0,0,12.3,199.5,838.8)" />
<use xlink:href="#f4_58" transform="matrix(12.5,0,0,12.3,277.7,838.8)" />
<use xlink:href="#f4_h" transform="matrix(12.5,0,0,12.3,127.7,839.7)" />
<use xlink:href="#f4_4t" transform="matrix(12.5,0,0,12.3,93.1,844.6)" />
<use xlink:href="#f4_59" transform="matrix(12.5,0,0,12.3,172.8,844.6)" />
<use xlink:href="#f4_4t" transform="matrix(12.5,0,0,12.3,199.5,844.6)" />
<use xlink:href="#f4_59" transform="matrix(12.5,0,0,12.3,277.7,844.6)" />
</g>
</g>
<g fill="#000000" >
<use xlink:href="#f2_11" transform="matrix(12,0,0,12,55,871.4)" />
<use xlink:href="#f2_2c" transform="matrix(12,0,0,12,67.9,871.4)" />
<use xlink:href="#f2_2c" transform="matrix(12,0,0,12,77,871.4)" />
<use xlink:href="#f2_28" transform="matrix(12,0,0,12,86.6,871.4)" />
<use xlink:href="#f2_2l" transform="matrix(12,0,0,12,91.6,871.4)" />
<use xlink:href="#f2_25" transform="matrix(12,0,0,12,100.8,871.4)" />
<use xlink:href="#f2_2a" transform="matrix(12,0,0,12,105.6,871.4)" />
<use xlink:href="#f2_23" transform="matrix(12,0,0,12,114.8,871.4)" />
</g>
<g clip-path="url(#c12_74)">
<g fill="#000000" >
<use xlink:href="#f2_m" transform="matrix(7.5,0,0,7,142.8,876.4)" />
<use xlink:href="#f2_m" transform="matrix(7.5,0,0,7,187,876.4)" />
<use xlink:href="#f2_l" transform="matrix(7.5,0,0,7,230.6,876.4)" />
<use xlink:href="#f2_m" transform="matrix(12.9,0,0,12.1,211.3,871.7)" />
<use xlink:href="#f3_1i" transform="matrix(12.9,0,0,12.1,132.2,871.7)" />
<use xlink:href="#f3_1i" transform="matrix(12.9,0,0,12.1,176.5,871.7)" />
<use xlink:href="#f3_1i" transform="matrix(12.9,0,0,12.1,221.2,871.7)" />
<use xlink:href="#f4_34" transform="matrix(12.9,0,0,12.1,153.8,871.7)" />
<use xlink:href="#f4_h" transform="matrix(12.9,0,0,12.1,197.6,871.7)" />
</g>
</g>
<g clip-path="url(#c13_74)">
<g fill="#000000" >
<use xlink:href="#f2_l" transform="matrix(12.5,0,0,12.3,65.7,903.5)" />
<use xlink:href="#f2_k" transform="matrix(12.5,0,0,12.3,96.8,903.5)" />
<use xlink:href="#f2_k" transform="matrix(12.5,0,0,12.3,127.9,903.5)" />
<use xlink:href="#f2_l" transform="matrix(12.5,0,0,12.3,177.3,903.5)" />
<use xlink:href="#f2_l" transform="matrix(12.5,0,0,12.3,219.1,903.5)" />
<use xlink:href="#f2_k" transform="matrix(12.5,0,0,12.3,243.7,903.5)" />
<use xlink:href="#f2_k" transform="matrix(12.5,0,0,12.3,65.8,931.2)" />
<use xlink:href="#f2_n" transform="matrix(12.5,0,0,12.3,102.2,931.2)" />
<use xlink:href="#f2_o" transform="matrix(12.5,0,0,12.3,128,931.2)" />
<use xlink:href="#f2_m" transform="matrix(12.5,0,0,12.3,182.6,931.2)" />
<use xlink:href="#f2_n" transform="matrix(12.5,0,0,12.3,213.3,931.2)" />
<use xlink:href="#f2_k" transform="matrix(12.5,0,0,12.3,243.7,931.2)" />
<use xlink:href="#f2_11" transform="matrix(12.5,0,0,12.3,263.2,931.2)" />
<use xlink:href="#f2_k" transform="matrix(12.5,0,0,12.3,65.8,958.9)" />
<use xlink:href="#f2_l" transform="matrix(12.5,0,0,12.3,102.7,958.9)" />
<use xlink:href="#f2_l" transform="matrix(12.5,0,0,12.3,127.8,958.9)" />
<use xlink:href="#f2_k" transform="matrix(12.5,0,0,12.3,177.4,958.9)" />
<use xlink:href="#f2_k" transform="matrix(12.5,0,0,12.3,213.1,958.9)" />
<use xlink:href="#f2_l" transform="matrix(12.5,0,0,12.3,243.5,958.9)" />
<use xlink:href="#f4_h" transform="matrix(12.5,0,0,12.3,209.1,903.5)" />
<use xlink:href="#f4_4r" transform="matrix(12.5,0,0,12.3,58.2,904.9)" />
<use xlink:href="#f4_57" transform="matrix(12.5,0,0,12.3,137.9,904.9)" />
<use xlink:href="#f4_4r" transform="matrix(12.5,0,0,12.3,164.7,904.9)" />
<use xlink:href="#f4_57" transform="matrix(12.5,0,0,12.3,253.6,904.9)" />
<use xlink:href="#f4_4s" transform="matrix(12.5,0,0,12.3,58.2,922.6)" />
<use xlink:href="#f4_58" transform="matrix(12.5,0,0,12.3,137.9,922.6)" />
<use xlink:href="#f4_4s" transform="matrix(12.5,0,0,12.3,164.7,922.6)" />
<use xlink:href="#f4_58" transform="matrix(12.5,0,0,12.3,253.6,922.6)" />
<use xlink:href="#f4_h" transform="matrix(12.5,0,0,12.3,92.2,931.2)" />
<use xlink:href="#f4_x" transform="matrix(12.5,0,0,12.3,149.9,931.2)" />
<use xlink:href="#f4_h" transform="matrix(12.5,0,0,12.3,172.6,931.2)" />
<use xlink:href="#f4_4s" transform="matrix(12.5,0,0,12.3,58.2,940.3)" />
<use xlink:href="#f4_58" transform="matrix(12.5,0,0,12.3,137.9,940.3)" />
<use xlink:href="#f4_4s" transform="matrix(12.5,0,0,12.3,164.7,940.3)" />
<use xlink:href="#f4_58" transform="matrix(12.5,0,0,12.3,253.6,940.3)" />
<use xlink:href="#f4_4s" transform="matrix(12.5,0,0,12.3,58.2,958)" />
<use xlink:href="#f4_58" transform="matrix(12.5,0,0,12.3,137.9,958)" />
<use xlink:href="#f4_4s" transform="matrix(12.5,0,0,12.3,164.7,958)" />
<use xlink:href="#f4_58" transform="matrix(12.5,0,0,12.3,253.6,958)" />
<use xlink:href="#f4_h" transform="matrix(12.5,0,0,12.3,92.6,958.9)" />
<use xlink:href="#f4_4t" transform="matrix(12.5,0,0,12.3,58.2,963.8)" />
<use xlink:href="#f4_59" transform="matrix(12.5,0,0,12.3,137.9,963.8)" />
<use xlink:href="#f4_4t" transform="matrix(12.5,0,0,12.3,164.7,963.8)" />
<use xlink:href="#f4_59" transform="matrix(12.5,0,0,12.3,253.6,963.8)" />
</g>
</g>
<g fill="#000000" >
<use xlink:href="#f2_11" transform="matrix(12,0,0,12,55,990.3)" />
<use xlink:href="#f2_2c" transform="matrix(12,0,0,12,67.9,990.3)" />
<use xlink:href="#f2_2c" transform="matrix(12,0,0,12,77,990.3)" />
<use xlink:href="#f2_28" transform="matrix(12,0,0,12,86.6,990.3)" />
<use xlink:href="#f2_2l" transform="matrix(12,0,0,12,91.6,990.3)" />
<use xlink:href="#f2_25" transform="matrix(12,0,0,12,100.8,990.3)" />
<use xlink:href="#f2_2a" transform="matrix(12,0,0,12,105.6,990.3)" />
<use xlink:href="#f2_23" transform="matrix(12,0,0,12,114.8,990.3)" />
</g>
<g clip-path="url(#c14_74)">
<g fill="#000000" >
<use xlink:href="#f2_m" transform="matrix(7.5,0,0,7,142.8,995.1)" />
<use xlink:href="#f2_m" transform="matrix(7.5,0,0,7,187.2,995.1)" />
<use xlink:href="#f2_n" transform="matrix(7.5,0,0,7,231.8,995.1)" />
<use xlink:href="#f2_o" transform="matrix(13,0,0,12.1,211.6,990.4)" />
<use xlink:href="#f3_1i" transform="matrix(13,0,0,12.1,132.2,990.4)" />
<use xlink:href="#f3_1i" transform="matrix(13,0,0,12.1,176.7,990.4)" />
<use xlink:href="#f3_1i" transform="matrix(13,0,0,12.1,221.5,990.4)" />
<use xlink:href="#f4_34" transform="matrix(13,0,0,12.1,153.9,990.4)" />
<use xlink:href="#f4_h" transform="matrix(13,0,0,12.1,197.8,990.4)" />
</g>
</g>
<g clip-path="url(#c15_74)">
<g fill="#000000" >
<use xlink:href="#f2_l" transform="matrix(12.6,0,0,12.3,65.6,1022.3)" />
<use xlink:href="#f2_k" transform="matrix(12.6,0,0,12.3,96.2,1022.3)" />
<use xlink:href="#f2_k" transform="matrix(12.6,0,0,12.3,126.6,1022.3)" />
<use xlink:href="#f2_l" transform="matrix(12.6,0,0,12.3,175.6,1022.3)" />
<use xlink:href="#f2_l" transform="matrix(12.6,0,0,12.3,217.1,1022.3)" />
<use xlink:href="#f2_k" transform="matrix(12.6,0,0,12.3,246.8,1022.3)" />
<use xlink:href="#f2_k" transform="matrix(12.6,0,0,12.3,65.8,1049.9)" />
<use xlink:href="#f2_l" transform="matrix(12.6,0,0,12.3,96,1049.9)" />
<use xlink:href="#f2_k" transform="matrix(12.6,0,0,12.3,126.6,1049.9)" />
<use xlink:href="#f2_m" transform="matrix(12.6,0,0,12.3,180.9,1049.9)" />
<use xlink:href="#f2_n" transform="matrix(12.6,0,0,12.3,211.4,1049.9)" />
<use xlink:href="#f2_o" transform="matrix(12.6,0,0,12.3,252,1049.9)" />
<use xlink:href="#f2_11" transform="matrix(12.6,0,0,12.3,271.4,1049.9)" />
<use xlink:href="#f2_k" transform="matrix(12.6,0,0,12.3,65.8,1077.7)" />
<use xlink:href="#f2_l" transform="matrix(12.6,0,0,12.3,102,1077.7)" />
<use xlink:href="#f2_l" transform="matrix(12.6,0,0,12.3,126.4,1077.7)" />
<use xlink:href="#f2_k" transform="matrix(12.6,0,0,12.3,175.7,1077.7)" />
<use xlink:href="#f2_k" transform="matrix(12.6,0,0,12.3,211.2,1077.7)" />
<use xlink:href="#f2_l" transform="matrix(12.6,0,0,12.3,246.6,1077.7)" />
<use xlink:href="#f4_h" transform="matrix(12.6,0,0,12.3,207.2,1022.3)" />
<use xlink:href="#f4_4r" transform="matrix(12.6,0,0,12.3,58.2,1023.7)" />
<use xlink:href="#f4_57" transform="matrix(12.6,0,0,12.3,136.4,1023.7)" />
<use xlink:href="#f4_4r" transform="matrix(12.6,0,0,12.3,163,1023.7)" />
<use xlink:href="#f4_57" transform="matrix(12.6,0,0,12.3,261.8,1023.7)" />
<use xlink:href="#f4_4s" transform="matrix(12.6,0,0,12.3,58.2,1041.4)" />
<use xlink:href="#f4_58" transform="matrix(12.6,0,0,12.3,136.4,1041.4)" />
<use xlink:href="#f4_4s" transform="matrix(12.6,0,0,12.3,163,1041.4)" />
<use xlink:href="#f4_58" transform="matrix(12.6,0,0,12.3,261.8,1041.4)" />
<use xlink:href="#f4_x" transform="matrix(12.6,0,0,12.3,148.3,1049.9)" />
<use xlink:href="#f4_h" transform="matrix(12.6,0,0,12.3,170.9,1049.9)" />
<use xlink:href="#f4_h" transform="matrix(12.6,0,0,12.3,242,1049.9)" />
<use xlink:href="#f4_4s" transform="matrix(12.6,0,0,12.3,58.2,1059.1)" />
<use xlink:href="#f4_58" transform="matrix(12.6,0,0,12.3,136.4,1059.1)" />
<use xlink:href="#f4_4s" transform="matrix(12.6,0,0,12.3,163,1059.1)" />
<use xlink:href="#f4_58" transform="matrix(12.6,0,0,12.3,261.8,1059.1)" />
<use xlink:href="#f4_4s" transform="matrix(12.6,0,0,12.3,58.2,1076.8)" />
<use xlink:href="#f4_58" transform="matrix(12.6,0,0,12.3,136.4,1076.8)" />
<use xlink:href="#f4_4s" transform="matrix(12.6,0,0,12.3,163,1076.8)" />
<use xlink:href="#f4_58" transform="matrix(12.6,0,0,12.3,261.8,1076.8)" />
<use xlink:href="#f4_h" transform="matrix(12.6,0,0,12.3,92,1077.7)" />
<use xlink:href="#f4_4t" transform="matrix(12.6,0,0,12.3,58.2,1082.6)" />
<use xlink:href="#f4_59" transform="matrix(12.6,0,0,12.3,136.4,1082.6)" />
<use xlink:href="#f4_4t" transform="matrix(12.6,0,0,12.3,163,1082.6)" />
<use xlink:href="#f4_59" transform="matrix(12.6,0,0,12.3,261.8,1082.6)" />
</g>
</g>
<g fill="#000000" >
<use xlink:href="#f2_11" transform="matrix(12,0,0,12,55,1109.1)" />
<use xlink:href="#f2_2c" transform="matrix(12,0,0,12,67.9,1109.1)" />
<use xlink:href="#f2_2c" transform="matrix(12,0,0,12,77,1109.1)" />
<use xlink:href="#f2_28" transform="matrix(12,0,0,12,86.6,1109.1)" />
<use xlink:href="#f2_2l" transform="matrix(12,0,0,12,91.6,1109.1)" />
<use xlink:href="#f2_25" transform="matrix(12,0,0,12,100.8,1109.1)" />
<use xlink:href="#f2_2a" transform="matrix(12,0,0,12,105.6,1109.1)" />
<use xlink:href="#f2_23" transform="matrix(12,0,0,12,114.8,1109.1)" />
</g>
<g clip-path="url(#c16_74)">
<g fill="#000000" >
<use xlink:href="#f2_n" transform="matrix(7.5,0,0,7,142.5,1113.9)" />
<use xlink:href="#f2_n" transform="matrix(7.5,0,0,7,186.1,1113.9)" />
<use xlink:href="#f2_m" transform="matrix(7.5,0,0,7,221.5,1113.9)" />
<use xlink:href="#f3_1i" transform="matrix(13,0,0,12.1,132.2,1109.2)" />
<use xlink:href="#f3_1i" transform="matrix(13,0,0,12.1,175.9,1109.2)" />
<use xlink:href="#f3_1i" transform="matrix(13,0,0,12.1,210.9,1109.2)" />
<use xlink:href="#f4_34" transform="matrix(13,0,0,12.1,153.2,1109.2)" />
<use xlink:href="#f4_f" transform="matrix(13,0,0,12.1,196.3,1109.2)" />
</g>
</g>
<path fill-rule="evenodd" d="M37.4,38.1h.7v-.7h-.7v.7Z" class="g6_74" />
<path fill-rule="evenodd" d="M37.4,38.1h.7v-.7h-.7v.7Z" class="g6_74" />
<path fill-rule="evenodd" d="M38.1,38.1H871.5v-.7H38.1v.7Z" class="g6_74" />
<path fill-rule="evenodd" d="M871.5,38.1h.8v-.7h-.8v.7Z" class="g6_74" />
<path fill-rule="evenodd" d="M871.5,38.1h.8v-.7h-.8v.7Z" class="g6_74" />
<path fill-rule="evenodd" d="M37.4,1248.5h.7V38.1h-.7V1248.5Z" class="g6_74" />
<path fill-rule="evenodd" d="M872.3,1248.5h.7V38.1h-.7V1248.5Z" class="g6_74" />
<path fill-rule="evenodd" d="M871.5,1248.5h.8V38.1h-.8V1248.5Z" class="g6_74" />
<path fill-rule="evenodd" d="M37.4,1249.2h.7v-.7h-.7v.7Z" class="g6_74" />
<path fill-rule="evenodd" d="M37.4,1249.2h.7v-.7h-.7v.7Z" class="g6_74" />
<path fill-rule="evenodd" d="M38.1,1249.9H871.5v-.7H38.1v.7Z" class="g6_74" />
<path fill-rule="evenodd" d="M38.1,1249.2H871.5v-.7H38.1v.7Z" class="g6_74" />
<path fill-rule="evenodd" d="M872.3,1249.9h.7v-1.4h-.7v1.4Z" class="g6_74" />
<path fill-rule="evenodd" d="M871.5,1249.9H873v-.7h-1.5v.7Z" class="g6_74" />
<path fill-rule="evenodd" d="M871.5,1249.2h.8v-.7h-.8v.7Z" class="g6_74" />
<path fill-rule="evenodd" d="M871.5,1249.2h.8v-.7h-.8v.7Z" class="g6_74" />
<defs>
<path d="M489,-15c0,0,-99,0,-179,30c0,0,-80,30,-136,91c0,0,-56,61,-85,152c0,0,-30,91,-30,212c0,0,0,123,32,218c0,0,33,96,92,161c0,0,59,65,142,98c0,0,82,34,181,34c0,0,40,0,78,-7c0,0,37,-7,69,-18c0,0,31,-11,57,-25c0,0,25,-14,35,-24c0,0,10,-10,14,-17c0,0,4,-7,6,-17c0,0,2,-11,3,-25c0,0,2,-14,2,-35c0,0,0,-22,-2,-38c0,0,-1,-15,-5,-25c0,0,-4,-10,-9,-14c0,0,-5,-5,-12,-5c0,0,-11,0,-28,13c0,0,-18,13,-45,29c0,0,-27,16,-65,29c0,0,-37,13,-89,13c0,0,-58,0,-103,-23c0,0,-45,-23,-77,-67c0,0,-31,-44,-48,-106c0,0,-16,-61,-16,-139c0,0,0,-85,17,-147c0,0,18,-62,50,-103c0,0,33,-40,79,-60c0,0,45,-19,103,-19c0,0,52,0,90,12c0,0,38,12,65,27c0,0,27,15,45,27c0,0,17,12,27,12c0,0,8,0,12,-3c0,0,4,-3,7,-12c0,0,3,-9,5,-25c0,0,1,-16,1,-43c0,0,0,-18,-1,-31c0,0,-1,-14,-3,-23c0,0,-2,-9,-6,-16c0,0,-4,-7,-12,-15c0,0,-8,-9,-32,-22c0,0,-23,-14,-57,-26C661,13,627,1,583,-6c0,0,-43,-9,-94,-9Z" 
id="f0_j"
transform="scale(0.001,-0.001)" />

<path d="M440,150c0,0,41,0,68,8c0,0,28,9,49,26c0,0,20,16,32,41c0,0,11,25,11,58c0,0,0,33,-11,60c0,0,-11,26,-33,44c0,0,-21,18,-55,28c0,0,-33,9,-87,9H298V150ZM407,567c0,0,42,0,68,10c0,0,25,10,42,28c0,0,16,17,24,41c0,0,9,24,9,50c0,0,0,29,-9,52c0,0,-9,23,-27,39c0,0,-18,15,-45,23c0,0,-27,8,-72,8H298V567ZM164,0c0,0,-25,0,-42,15c0,0,-16,14,-16,47V903c0,0,0,33,16,48c0,0,17,14,42,14H406c0,0,88,0,150,-15c0,0,61,-15,103,-45c0,0,42,-30,65,-77c0,0,22,-46,22,-108c0,0,0,-36,-9,-67c0,0,-9,-31,-26,-56c0,0,-17,-25,-42,-45c0,0,-25,-19,-57,-31c0,0,41,-7,76,-26c0,0,34,-19,60,-48c0,0,26,-30,41,-69c0,0,15,-40,15,-89c0,0,0,-51,-14,-93c0,0,-15,-42,-40,-74c0,0,-25,-32,-59,-55c0,0,-35,-23,-77,-38C614,29,573,14,525,7C525,7,478,0,420,0Z" 
id="f0_i"
transform="scale(0.001,-0.001)" />

<path d="M320,-17c0,0,-50,0,-93,9c0,0,-43,8,-76,19c0,0,-32,11,-54,24C97,35,75,48,65,58c0,0,-10,9,-14,28c0,0,-4,18,-4,52c0,0,0,23,1,39c0,0,2,15,5,25c0,0,4,10,9,14c0,0,6,4,13,4c0,0,11,0,30,-12c0,0,19,-13,49,-28c0,0,30,-15,71,-27c0,0,42,-12,96,-12c0,0,36,0,64,8c0,0,29,9,49,25c0,0,19,15,30,38c0,0,10,23,10,52c0,0,0,33,-18,56c0,0,-18,24,-46,42c0,0,-29,18,-66,34c0,0,-36,16,-75,34c0,0,-39,18,-76,41c0,0,-36,23,-65,54c0,0,-29,32,-47,75c0,0,-17,44,-17,104c0,0,0,70,25,122c0,0,26,53,70,88c0,0,43,34,103,51c0,0,59,18,125,18c0,0,35,0,69,-6c0,0,34,-5,64,-14c0,0,30,-9,53,-20c0,0,23,-11,31,-18c0,0,7,-8,10,-13c0,0,3,-5,4,-14c0,0,2,-8,3,-21c0,0,1,-13,1,-33c0,0,0,-21,-1,-36c0,0,-1,-15,-4,-25c0,0,-3,-9,-7,-14c0,0,-5,-4,-14,-4c0,0,-8,0,-26,10c0,0,-18,10,-44,23c0,0,-26,12,-60,22c0,0,-34,10,-75,10c0,0,-32,0,-56,-8c0,0,-24,-8,-40,-21c0,0,-16,-14,-24,-34c0,0,-8,-19,-8,-41c0,0,0,-32,18,-56c0,0,17,-23,46,-42c0,0,30,-18,67,-34c0,0,38,-16,76,-34c0,0,39,-18,76,-41c0,0,38,-22,67,-54c0,0,29,-32,47,-75c0,0,18,-43,18,-101c0,0,0,-76,-29,-133c0,0,-28,-58,-77,-96C572,60,524,21,459,2c0,0,-65,-19,-139,-19Z" 
id="f0_2n"
transform="scale(0.001,-0.001)" />

<path d="M164,0c0,0,-25,0,-42,15c0,0,-16,14,-16,47V903c0,0,0,33,16,48c0,0,17,14,42,14H645c0,0,7,0,12,-4c0,0,5,-3,9,-13c0,0,4,-9,6,-24c0,0,2,-14,2,-36c0,0,0,-21,-2,-36c0,0,-2,-14,-6,-23c0,0,-4,-9,-9,-13c0,0,-5,-4,-12,-4H301V576H593c0,0,6,0,12,-4c0,0,6,-4,9,-13c0,0,4,-8,6,-23c0,0,2,-14,2,-35c0,0,0,-22,-2,-36c0,0,-2,-14,-6,-23c0,0,-3,-8,-9,-12c0,0,-6,-4,-12,-4H301V154H649c0,0,6,0,12,-5c0,0,5,-4,9,-13c0,0,4,-9,6,-23c0,0,2,-15,2,-36c0,0,0,-22,-2,-36c0,0,-2,-15,-6,-24c0,0,-4,-9,-9,-13c0,0,-6,-4,-12,-4Z" 
id="f0_t"
transform="scale(0.001,-0.001)" />

<path d="M79,297c0,0,-19,0,-27,18c0,0,-8,17,-8,60c0,0,0,41,8,59c0,0,8,17,27,17H389c0,0,9,0,15,-4c0,0,7,-4,11,-13c0,0,5,-9,7,-23c0,0,1,-15,1,-36c0,0,0,-43,-8,-61c0,0,-8,-17,-26,-17Z" 
id="f0_oj"
transform="scale(0.001,-0.001)" />

<path d="M121,-4c0,0,-39,0,-60,2C61,-2,39,0,32,8c0,0,-8,8,-3,24c0,0,4,15,18,41L279,495L64,892c0,0,-14,26,-19,42c0,0,-5,17,4,24c0,0,9,8,32,10c0,0,23,2,65,2c0,0,35,0,56,-2c0,0,20,-1,32,-4c0,0,12,-4,17,-10c0,0,5,-6,9,-15L431,620L595,939c0,0,5,9,10,15c0,0,5,6,16,10c0,0,10,3,29,4c0,0,19,2,53,2c0,0,37,0,59,-2c0,0,22,-2,30,-10c0,0,8,-8,4,-24c0,0,-4,-16,-17,-42L564,497L793,73c0,0,14,-26,18,-41c0,0,4,-16,-5,-24c0,0,-9,-8,-32,-10c0,0,-24,-2,-65,-2c0,0,-36,0,-56,2c0,0,-20,1,-31,3c0,0,-12,4,-17,10c0,0,-5,6,-9,15L414,374L233,26c0,0,-4,-9,-9,-15c0,0,-6,-6,-17,-10c0,0,-12,-2,-32,-3c0,0,-21,-2,-54,-2Z" 
id="f0_3e"
transform="scale(0.001,-0.001)" />

<path d="M204,-4c0,0,-28,0,-47,2c0,0,-19,2,-31,5c0,0,-11,4,-16,10c0,0,-4,6,-4,13V939c0,0,0,7,4,13c0,0,5,6,17,10c0,0,11,3,30,6c0,0,19,2,47,2c0,0,29,0,48,-2c0,0,18,-3,29,-6c0,0,11,-4,16,-10c0,0,5,-6,5,-13V26c0,0,0,-7,-5,-13c0,0,-5,-6,-16,-10c0,0,-11,-3,-29,-5c0,0,-19,-2,-48,-2Z" 
id="f0_1c"
transform="scale(0.001,-0.001)" />

<path d="M127,0c0,0,-16,0,-28,3C99,3,87,6,80,15c0,0,-8,8,-11,25c0,0,-3,16,-3,42c0,0,0,25,2,42c0,0,2,18,8,32c0,0,6,14,15,27c0,0,9,13,24,29L282,390c0,0,50,53,81,95c0,0,30,43,47,79c0,0,17,35,24,65c0,0,6,30,6,57c0,0,0,24,-8,46c0,0,-8,22,-23,39c0,0,-15,16,-38,25c0,0,-23,10,-55,10c0,0,-44,0,-78,-12c0,0,-33,-11,-59,-25c0,0,-26,-13,-43,-25c0,0,-17,-12,-27,-12c0,0,-7,0,-11,5c0,0,-5,4,-8,15c0,0,-3,10,-5,28c0,0,-2,17,-2,42c0,0,0,18,1,29c0,0,1,12,4,20c0,0,2,9,6,15c0,0,3,6,13,15c0,0,9,9,34,23c0,0,25,14,61,27c0,0,37,14,81,23c0,0,44,9,92,9c0,0,75,0,131,-19c0,0,57,-19,94,-53c0,0,37,-34,55,-81c0,0,19,-47,19,-100c0,0,0,-47,-9,-93c0,0,-9,-45,-37,-98c0,0,-29,-52,-80,-116c0,0,-52,-64,-136,-148L299,159H679c0,0,8,0,14,-4c0,0,6,-5,11,-14c0,0,4,-9,7,-25c0,0,2,-15,2,-36c0,0,0,-22,-2,-37c0,0,-2,-15,-6,-25c0,0,-3,-10,-9,-14c0,0,-6,-4,-14,-4Z" 
id="f0_rz"
transform="scale(0.001,-0.001)" />

<path d="M385,138c0,0,29,0,52,9c0,0,22,10,39,28c0,0,17,19,28,47c0,0,11,29,19,66c0,0,7,37,9,84c0,0,3,47,3,104c0,0,0,69,-4,122c0,0,-4,52,-11,91c0,0,-8,39,-20,66c0,0,-12,27,-28,43c0,0,-16,16,-37,22c0,0,-21,7,-47,7c0,0,-44,0,-73,-21c0,0,-28,-21,-45,-64c0,0,-17,-42,-24,-106c0,0,-6,-63,-6,-148c0,0,0,-103,8,-171c0,0,8,-67,26,-107c0,0,17,-40,45,-56c0,0,27,-16,66,-16ZM378,-17c0,0,-99,0,-164,33c0,0,-65,34,-103,98c0,0,-38,64,-54,156c0,0,-15,92,-15,209c0,0,0,115,19,208c0,0,19,94,61,160c0,0,42,65,110,101c0,0,68,35,165,35c0,0,99,0,164,-34c0,0,65,-34,103,-98c0,0,39,-64,53,-156c0,0,15,-92,15,-209c0,0,0,-115,-18,-209c0,0,-19,-93,-61,-159C653,118,611,53,543,17c0,0,-67,-34,-165,-34Z" 
id="f0_rx"
transform="scale(0.001,-0.001)" />

<path d="M142,0c0,0,-6,0,-12,4c0,0,-5,3,-9,12c0,0,-4,9,-6,23c0,0,-3,15,-3,36c0,0,0,21,2,36c0,0,2,14,6,23c0,0,4,9,10,13c0,0,5,5,12,5H322V779L166,693c0,0,-17,-8,-28,-10c0,0,-1,0,-3,0c-4,0,-10,1,-14,5c0,0,-6,6,-8,22c0,0,-2,15,-2,44c0,0,0,18,0,29c0,0,1,12,4,20c0,0,3,8,8,14c0,0,5,5,14,11L345,962c0,0,4,3,9,5c0,0,6,2,15,3c0,0,9,1,23,2c0,0,15,0,38,0c0,0,28,0,46,-1c0,0,17,-1,26,-4c0,0,9,-3,12,-7c0,0,3,-4,3,-11V152H675c0,0,7,0,12,-5c0,0,6,-4,10,-13c0,0,4,-9,6,-23c0,0,2,-15,2,-36c0,0,0,-21,-2,-36c0,0,-3,-14,-7,-23c0,0,-4,-9,-9,-12c0,0,-5,-4,-12,-4Z" 
id="f0_ry"
transform="scale(0.001,-0.001)" />

<path d="M398,134c0,0,34,0,60,12c0,0,25,13,43,36c0,0,17,23,26,54c0,0,9,31,9,68c0,0,0,38,-7,66c0,0,-7,29,-22,49c0,0,-15,20,-39,30c0,0,-25,10,-60,10c0,0,-21,0,-41,-4c0,0,-20,-4,-40,-10c0,0,-19,-7,-37,-16c0,0,-18,-10,-33,-20c0,0,0,-80,9,-133c0,0,9,-54,26,-85c0,0,18,-31,44,-44c0,0,27,-13,62,-13ZM387,-16c0,0,-67,0,-117,15c0,0,-50,14,-86,43c0,0,-37,29,-60,70c0,0,-23,41,-37,92c0,0,-14,52,-19,112c0,0,-5,61,-5,129c0,0,0,56,5,118c0,0,6,62,22,122c0,0,16,59,45,114c0,0,29,54,75,94c0,0,46,41,111,65c0,0,65,24,155,24c0,0,28,0,57,-4c0,0,29,-3,53,-8c0,0,25,-5,42,-12c0,0,17,-7,23,-12c0,0,5,-5,8,-11c0,0,3,-5,5,-13c0,0,2,-7,3,-17c0,0,1,-11,1,-25c0,0,0,-24,-1,-39c0,0,-2,-15,-5,-24c0,0,-3,-8,-8,-12c0,0,-5,-4,-12,-4c0,0,-9,0,-24,5c0,0,-14,5,-34,11c0,0,-20,6,-47,10c0,0,-27,5,-63,5c0,0,-61,0,-102,-23c0,0,-42,-22,-68,-60c0,0,-26,-39,-38,-90c0,0,-12,-50,-13,-107c0,0,16,10,38,21c0,0,21,10,46,18c0,0,25,7,54,12c0,0,29,5,62,5c0,0,73,0,125,-20c0,0,52,-20,86,-58c0,0,33,-37,48,-90c0,0,16,-53,16,-118c0,0,0,-73,-22,-135c0,0,-23,-62,-66,-108C640,79,597,34,533,9c0,0,-63,-25,-146,-25Z" 
id="f0_s3"
transform="scale(0.001,-0.001)" />

<path d="M589,371L453,782h-1L317,371ZM106,-4c0,0,-35,0,-54,2C52,-2,32,0,25,8c0,0,-7,9,-5,24c0,0,2,16,11,42L329,931c0,0,4,13,10,21c0,0,6,7,19,12c0,0,13,4,36,5c0,0,23,1,61,1c0,0,44,0,71,-1c0,0,26,-1,40,-5c0,0,15,-5,21,-13c0,0,6,-8,11,-22L896,73c0,0,9,-27,11,-43c0,0,3,-15,-6,-23c0,0,-8,-7,-29,-9c0,0,-21,-2,-57,-2c0,0,-38,0,-59,1c0,0,-22,1,-33,4c0,0,-11,3,-16,9c0,0,-4,6,-7,16L635,220H272L211,31c0,0,-2,-11,-7,-18c0,0,-5,-7,-16,-11c0,0,-11,-3,-31,-4c0,0,-19,-2,-51,-2Z" 
id="f0_5"
transform="scale(0.001,-0.001)" />

<path d="M198,-4c0,0,-27,0,-45,2c0,0,-18,2,-28,5c0,0,-11,4,-15,10c0,0,-4,6,-4,13V887c0,0,0,38,20,58c0,0,20,20,53,20H308c0,0,34,0,59,-6c0,0,24,-5,42,-18c0,0,18,-13,30,-35c0,0,12,-21,21,-52L669,279h3L889,852c0,0,9,32,21,53c0,0,11,22,27,35c0,0,15,14,36,19c0,0,21,6,48,6h132c0,0,21,0,35,-5c0,0,15,-5,24,-15c0,0,9,-11,14,-25c0,0,5,-15,5,-33V26c0,0,0,-7,-4,-13c0,0,-4,-6,-15,-10c0,0,-11,-3,-29,-5c0,0,-18,-2,-45,-2c0,0,-27,0,-45,2c0,0,-18,2,-28,5c0,0,-11,4,-15,10c0,0,-5,6,-5,13V813h-1L764,27c0,0,-3,-10,-10,-16c0,0,-6,-6,-18,-10c0,0,-12,-3,-29,-4c0,0,-18,-1,-44,-1c0,0,-25,0,-43,2c0,0,-18,2,-29,5c0,0,-12,4,-19,10c0,0,-6,6,-9,14L293,813h-2V26c0,0,0,-7,-4,-13c0,0,-4,-6,-15,-10c0,0,-11,-3,-29,-5c0,0,-17,-2,-45,-2Z" 
id="f0_1x"
transform="scale(0.001,-0.001)" />

<path d="M193,-4c0,0,-26,0,-43,2c0,0,-18,2,-27,6c0,0,-10,4,-14,10c0,0,-3,6,-3,13V895c0,0,0,35,20,53c0,0,21,17,50,17H282c0,0,28,0,47,-5c0,0,20,-5,35,-16c0,0,15,-11,29,-31c0,0,13,-20,27,-49L608,511c0,0,17,-32,33,-63c0,0,16,-31,31,-62c0,0,14,-31,29,-60c0,0,14,-30,27,-60h1c0,0,-2,52,-3,109c0,0,-1,57,-1,108V936c0,0,0,7,4,13c0,0,5,6,15,11c0,0,10,4,28,6c0,0,17,2,44,2c0,0,25,0,42,-2c0,0,17,-2,27,-6c0,0,9,-5,13,-11c0,0,4,-6,4,-13V68c0,0,0,-17,-6,-30c0,0,-6,-14,-17,-23C879,15,869,6,856,2c0,0,-14,-3,-28,-3H744c0,0,-26,0,-45,4c0,0,-19,5,-35,19c0,0,-16,14,-31,38c0,0,-15,23,-34,60L359,572c0,0,-21,40,-43,86c0,0,-21,47,-38,91h-2c0,0,3,-54,5,-107c0,0,2,-53,2,-110V27c0,0,0,-7,-5,-13c0,0,-4,-6,-14,-10c0,0,-10,-4,-27,-6c0,0,-17,-2,-44,-2Z" 
id="f0_1y"
transform="scale(0.001,-0.001)" />

<path d="M378,-4c0,0,-28,0,-47,2c0,0,-19,2,-31,5c0,0,-11,4,-16,10c0,0,-4,6,-4,13V805H38c0,0,-8,0,-13,4c0,0,-5,5,-9,14c0,0,-3,9,-5,25c0,0,-2,15,-2,37c0,0,0,22,2,38c0,0,2,15,5,25c0,0,4,9,9,13c0,0,5,4,13,4H718c0,0,7,0,12,-4c0,0,6,-4,10,-13c0,0,3,-10,5,-25c0,0,2,-16,2,-38c0,0,0,-22,-2,-37c0,0,-2,-16,-5,-25c0,0,-4,-9,-10,-14c0,0,-5,-4,-12,-4H476V26c0,0,0,-7,-5,-13c0,0,-5,-6,-16,-10c0,0,-11,-3,-30,-5c0,0,-19,-2,-47,-2Z" 
id="f0_2t"
transform="scale(0.001,-0.001)" />

<path d="M514,145c0,0,72,0,121,27c0,0,48,26,78,73c0,0,30,46,42,107c0,0,13,62,13,131c0,0,0,76,-12,139c0,0,-12,62,-41,106c0,0,-29,45,-76,69c0,0,-48,24,-120,24c0,0,-72,0,-120,-27c0,0,-49,-27,-79,-73c0,0,-29,-45,-42,-106c0,0,-12,-61,-12,-129c0,0,0,-79,12,-142c0,0,12,-63,40,-108c0,0,28,-44,76,-68c0,0,48,-23,120,-23ZM508,-17c0,0,-113,0,-196,29c0,0,-84,29,-140,90c0,0,-56,60,-84,154c0,0,-28,93,-28,221c0,0,0,117,29,210c0,0,30,94,89,160c0,0,59,65,146,101c0,0,87,35,202,35c0,0,110,0,194,-29c0,0,84,-30,140,-90c0,0,56,-60,85,-153c0,0,29,-92,29,-217c0,0,0,-120,-30,-215c0,0,-30,-95,-89,-161C855,118,796,52,709,17c0,0,-87,-34,-201,-34Z" 
id="f0_24"
transform="scale(0.001,-0.001)" />

<path d="M299,0V777H162l36,173H508V0Z" 
id="f1_l"
transform="scale(0.001,-0.001)" />

<path d="M44,-281L425,1053H537L156,-281Z" 
id="f1_j"
transform="scale(0.001,-0.001)" />

<path d="M186,-28L17,77L450,779H39V952H793L186,-28Z" 
id="f1_r"
transform="scale(0.001,-0.001)" />

<path d="M377,45c0,0,99,0,145,108c0,0,46,109,46,352c0,0,0,240,-45,345c0,0,-46,106,-146,106c0,0,-97,0,-139,-100c0,0,-43,-99,-43,-351c0,0,0,-254,44,-357c0,0,43,-103,138,-103Zm0,-59c0,0,-158,0,-238,132c0,0,-81,133,-81,386c0,0,0,249,81,380c0,0,80,132,244,132c0,0,159,0,241,-130c0,0,82,-130,82,-382c0,0,0,-518,-329,-518Z" 
id="f2_k"
transform="scale(0.001,-0.001)" />

<path d="M301,78c0,0,85,0,185,104l81,442c0,0,-29,20,-55,28c0,0,-25,8,-62,8c0,0,-75,0,-137,-56c0,0,-62,-56,-98,-152c0,0,-36,-95,-36,-199c0,0,0,-79,33,-127c0,0,33,-48,89,-48ZM245,-14c0,0,-90,0,-145,66c0,0,-54,66,-54,182c0,0,0,131,57,244c0,0,57,114,152,178c0,0,96,64,208,64c0,0,90,0,170,-33l33,26h40L589,52L673,33L667,0H454l22,117C476,117,350,-14,245,-14Z" 
id="f3_1x"
transform="scale(0.001,-0.001)" />

<path d="M-6,0c0,0,-12,10,-12,32c0,0,0,21,23,51c0,0,23,31,79,82L287,354L159,649L79,668l6,33H270L378,434l93,88c0,0,47,46,67,72c0,0,19,26,19,44c0,0,0,8,-6,13c0,0,-7,6,-38,17l6,33H651c0,0,16,-12,16,-32c0,0,0,-44,-103,-142L404,377L548,49L634,33L628,0H437L313,298L185,176c0,0,-41,-40,-60,-65c0,0,-19,-26,-19,-48c0,0,0,-21,31,-29L131,0Z" 
id="f3_2k"
transform="scale(0.001,-0.001)" />

<path d="M355,0V355H0v72H355V784h72V427H782V355H427V0Z" 
id="f4_f"
transform="scale(0.001,-0.001)" />

<path d="M0,356v74H784V356Z" 
id="f4_h"
transform="scale(0.001,-0.001)" />

<path d="M0,214v74H784V214ZM0,494v72H784V494Z" 
id="f4_x"
transform="scale(0.001,-0.001)" />

<path d="M681,416L504,902L333,416ZM669,0V40L803,60L704,348H310L210,60L344,40V0H15V40L128,60l341,949H611L965,60L1092,40V0Z" 
id="f2_11"
transform="scale(0.001,-0.001)" />

<path d="M382,45c0,0,188,0,188,314c0,0,0,143,-47,213c0,0,-46,69,-141,69c0,0,-87,0,-146,-24V58c0,0,67,-13,146,-13ZM25,-325v35l88,18V649L34,668v33H231l1,-41c0,0,31,27,84,43c0,0,53,17,107,17c0,0,134,0,208,-94c0,0,73,-93,73,-267c0,0,0,-178,-80,-276c0,0,-80,-97,-232,-97c0,0,-84,0,-160,16c0,0,4,-53,4,-84V-272l123,-18v-35Z" 
id="f2_2c"
transform="scale(0.001,-0.001)" />

<path d="M31,0V33L150,52v956L31,1026v34H274V52L394,33V0Z" 
id="f2_28"
transform="scale(0.001,-0.001)" />

<path d="M148,-329c0,0,-58,0,-114,13v151H69l24,-71c0,0,23,-17,64,-17c0,0,39,0,72,22c0,0,33,23,60,67c0,0,27,44,68,157L90,649L19,668v33H344V668L233,648L423,158L606,649L497,668v33H758V668L685,652L411,-43c0,0,-48,-124,-84,-177c0,0,-36,-54,-79,-82c0,0,-44,-27,-100,-27Z" 
id="f2_2l"
transform="scale(0.001,-0.001)" />

<path d="M32,0V33L151,52V649L52,668v33H275V52L395,33V0ZM201,850c0,0,-32,0,-56,24c0,0,-24,24,-24,56c0,0,0,34,24,58c0,0,24,24,56,24c0,0,34,0,58,-24c0,0,24,-24,24,-58c0,0,0,-32,-24,-56c0,0,-24,-24,-58,-24Z" 
id="f2_25"
transform="scale(0.001,-0.001)" />

<path d="M439,0V33l93,19V500c0,0,0,62,-30,97c0,0,-31,36,-94,36c0,0,-67,0,-165,-22V52L338,33V0H35V33l84,19V649L35,668v33H235l7,-57c0,0,57,33,122,54c0,0,65,22,108,22c0,0,91,0,137,-53c0,0,47,-53,47,-154V52L741,33V0Z" 
id="f2_2a"
transform="scale(0.001,-0.001)" />

<path d="M359,-270c0,0,124,0,192,46c0,0,67,47,67,129c0,0,0,43,-26,67c0,0,-26,24,-79,24H242c0,0,-32,-27,-51,-69c0,0,-20,-41,-20,-77c0,0,0,-64,46,-92c0,0,46,-28,142,-28Zm11,561c0,0,81,0,115,47c0,0,34,47,34,141c0,0,0,100,-35,142c0,0,-35,42,-113,42c0,0,-78,0,-114,-43c0,0,-37,-42,-37,-141c0,0,0,-98,36,-143c0,0,36,-45,114,-45ZM359,-329c0,0,-143,0,-218,44c0,0,-75,43,-75,125c0,0,0,39,27,78c0,0,26,38,98,89c0,0,-43,14,-72,48c0,0,-29,35,-29,74L208,262c0,0,-118,55,-118,217c0,0,0,115,73,178c0,0,73,63,211,63c0,0,28,0,71,-6c0,0,44,-6,67,-13l165,83l26,-32L599,644c0,0,50,-56,50,-165c0,0,0,-120,-72,-182c0,0,-73,-62,-208,-62c0,0,-62,0,-114,11L208,148c0,0,2,-13,29,-24c0,0,27,-12,67,-12H512c0,0,113,0,168,-49c0,0,55,-49,55,-134c0,0,0,-79,-44,-137c0,0,-43,-58,-128,-90c0,0,-84,-31,-204,-31Z" 
id="f2_23"
transform="scale(0.001,-0.001)" />

<path d="M134,0V40L339,60V876L137,804v39l292,166h39V60L672,40V0Z" 
id="f2_l"
transform="scale(0.001,-0.001)" />

<path d="M67,0V109L206,235c0,0,133,118,196,190c0,0,63,72,90,149c0,0,27,77,27,177c0,0,0,97,-44,148c0,0,-44,50,-144,50c0,0,-39,0,-81,-10c0,0,-42,-11,-74,-29L150,787H101V980c0,0,135,32,230,32c0,0,164,0,247,-68c0,0,82,-69,82,-193c0,0,0,-84,-32,-158c0,0,-33,-75,-100,-148c0,0,-67,-74,-222,-206c0,0,-67,-57,-141,-125H680V0Z" 
id="f2_m"
transform="scale(0.001,-0.001)" />

<path d="M350,-14c0,0,-142,0,-269,31L73,228h49L156,87c0,0,29,-16,82,-28c0,0,54,-12,100,-12c0,0,117,0,173,54c0,0,56,53,56,178c0,0,0,99,-52,150c0,0,-51,51,-159,56l-107,6v61l107,7c0,0,84,5,124,52c0,0,41,48,41,145c0,0,0,101,-44,147c0,0,-44,45,-139,45c0,0,-40,0,-83,-10c0,0,-43,-11,-76,-29L153,786H104V979c0,0,74,19,127,26c0,0,54,6,107,6c0,0,321,0,321,-246c0,0,0,-104,-57,-165c0,0,-57,-62,-162,-77c0,0,136,-16,200,-78c0,0,64,-62,64,-173c0,0,0,-135,-92,-211c0,0,-93,-75,-262,-75Z" 
id="f2_n"
transform="scale(0.001,-0.001)" />

<path d="M521,-14c0,0,-205,0,-320,107C201,93,85,200,85,390c0,0,0,185,77,326c0,0,77,142,220,219c0,0,142,76,324,76c0,0,158,0,327,-38L1000,755H951V884c0,0,-46,32,-112,50c0,0,-65,17,-137,17c0,0,-135,0,-242,-72c0,0,-107,-72,-166,-203c0,0,-60,-132,-60,-301c0,0,0,-160,78,-244c0,0,78,-84,222,-84c0,0,85,0,166,25c0,0,82,26,133,65l53,149h49L889,52C889,52,803,20,705,3c0,0,-99,-17,-184,-17Z" 
id="f3_13"
transform="scale(0.001,-0.001)" />

<path d="M968,-20c0,0,42,100,87,170c0,0,45,70,144,184H56v73H1199c0,0,-106,122,-148,189c0,0,-43,67,-83,166h60c0,0,87,-108,217,-218c0,0,130,-110,206,-154V349c0,0,-99,-56,-217,-159c0,0,-117,-102,-206,-210Z" 
id="f4_34"
transform="scale(0.001,-0.001)" />

<path d="M945,-20c0,0,47,75,125,153H57v74H1147l108,91c0,0,23,19,95,72c0,0,-134,103,-203,166H57v72H1070c0,0,-78,78,-125,154h85c0,0,88,-107,217,-217c0,0,130,-110,206,-154V349c0,0,-101,-58,-219,-162c0,0,-118,-103,-204,-207Z" 
id="f4_4g"
transform="scale(0.001,-0.001)" />

<path d="M460,-325c0,0,-148,79,-231,172c0,0,-84,93,-123,217c0,0,-39,126,-39,304c0,0,0,178,39,303c0,0,39,125,122,217c0,0,82,93,232,172V997c0,0,-91,-52,-145,-134c0,0,-54,-81,-79,-190c0,0,-25,-109,-25,-305c0,0,0,-194,26,-309c0,0,26,-114,82,-193c0,0,56,-79,141,-128v-63Z" 
id="f2_c"
transform="scale(0.001,-0.001)" />

<path d="M49,-325v63c0,0,85,49,140,128c0,0,56,79,83,194c0,0,26,115,26,308c0,0,0,196,-25,305c0,0,-25,109,-79,190c0,0,-54,82,-145,134v63c0,0,149,-80,232,-172c0,0,83,-92,122,-217c0,0,39,-125,39,-303c0,0,0,-177,-39,-303c0,0,-39,-125,-122,-217c0,0,-83,-93,-232,-173Z" 
id="f2_d"
transform="scale(0.001,-0.001)" />

<path d="M449,50c0,0,162,0,276,114L353,504c0,0,-78,-33,-114,-91c0,0,-35,-57,-35,-139c0,0,0,-108,63,-166c0,0,63,-58,182,-58ZM439,605c0,0,72,27,104,53c0,0,31,25,47,63c0,0,16,37,16,92c0,0,0,143,-135,143c0,0,-79,0,-113,-36c0,0,-34,-35,-34,-107c0,0,0,-121,115,-208ZM429,-14c0,0,-185,0,-278,71c0,0,-93,72,-93,209c0,0,0,72,27,124c0,0,27,52,73,89c0,0,46,37,146,75c0,0,-112,109,-112,244c0,0,0,107,71,162c0,0,72,56,208,56c0,0,130,0,198,-53c0,0,69,-53,69,-155c0,0,0,-58,-25,-101c0,0,-25,-42,-71,-75c0,0,-45,-32,-152,-74L805,272c0,0,72,147,77,271L776,563v39h341V563L1013,543c0,0,-57,-198,-145,-329L1038,59L1161,40V0H904L777,116C777,116,699,46,614,16c0,0,-84,-30,-185,-30Z" 
id="f2_a"
transform="scale(0.001,-0.001)" />

<path d="M460,506c0,0,135,0,209,64c0,0,73,65,73,183c0,0,0,180,-213,180H419L343,506ZM671,0L487,438H331L264,60L398,40L390,0H-7L0,40L120,60L276,941L151,960l7,40H555c0,0,163,0,249,-62c0,0,86,-62,86,-180c0,0,0,-236,-261,-299L798,60L908,40L900,0Z" 
id="f3_1i"
transform="scale(0.001,-0.001)" />

<path d="M284,67c0,0,51,0,88,12c0,0,37,12,74,30V358l-98,-3c0,0,-100,-4,-135,-39c0,0,-35,-35,-35,-117c0,0,0,-132,106,-132ZM233,-14c0,0,-179,0,-179,208c0,0,0,70,27,116c0,0,27,46,87,70c0,0,60,24,173,27l105,3V519c0,0,0,72,-26,107c0,0,-27,34,-82,34c0,0,-75,0,-137,-35L176,538H134V691c0,0,121,26,213,26c0,0,115,0,169,-47c0,0,54,-47,54,-144V52L657,33V0H465L451,70c0,0,-85,-84,-218,-84Z" 
id="f2_1x"
transform="scale(0.001,-0.001)" />

<path d="M-12,338v55H777V338Z" 
id="f5_4y"
transform="scale(0.001,-0.001)" />

<path d="M13,0V34L95,46L325,350L122,649L40,668v33H357V668L264,648L399,446L554,649l-96,19v33H710V668L630,652L433,397L663,50L745,34V0H427V34l94,17L359,299L169,50L266,34V0Z" 
id="f2_2k"
transform="scale(0.001,-0.001)" />

<path d="M476,327V830h-4L114,327ZM476,0V220H30v99l488,686h86V327H740V220H604V0Z" 
id="f2_o"
transform="scale(0.001,-0.001)" />

<path d="M76,316v76H787V316Zm0,306v76H787V622Z" 
id="f2_x"
transform="scale(0.001,-0.001)" />

<path d="M377,45c0,0,99,0,147,73c0,0,47,73,47,237c0,0,0,161,-47,233c0,0,-47,72,-147,72c0,0,-97,0,-141,-69c0,0,-44,-69,-44,-236c0,0,0,-169,45,-240c0,0,44,-70,140,-70Zm0,-59c0,0,-158,0,-238,94c0,0,-81,95,-81,274c0,0,0,178,81,272c0,0,80,94,244,94c0,0,160,0,241,-92c0,0,82,-92,82,-274c0,0,0,-368,-329,-368Z" 
id="f2_2b"
transform="scale(0.001,-0.001)" />

<path d="M31,0V33l88,19V649L31,668v33H235l7,-87c0,0,44,37,121,71c0,0,76,35,121,35h11V530H463l-43,82c0,0,-37,0,-88,-10c0,0,-52,-10,-89,-26V52L363,33V0Z" 
id="f2_2e"
transform="scale(0.001,-0.001)" />

<path d="M595,60c0,0,141,0,206,102c0,0,65,102,65,340c0,0,0,236,-65,335c0,0,-65,100,-206,100c0,0,-142,0,-207,-100c0,0,-66,-99,-66,-335c0,0,0,-239,66,-340c0,0,65,-102,207,-102Zm0,-74c0,0,-253,0,-387,130C208,116,75,246,75,501c0,0,0,510,520,510c0,0,256,0,387,-129c0,0,132,-130,132,-381c0,0,0,-254,-133,-385C981,116,848,-14,595,-14Z" 
id="f6_1f"
transform="scale(0.001,-0.001)" />

<path d="M498,506c0,0,115,0,164,47c0,0,48,48,48,166c0,0,0,112,-46,156c0,0,-46,43,-169,43H390V506ZM793,0L514,423H390V74L518,54V0H36V54L154,74V926L26,945v55H504c0,0,221,0,330,-68c0,0,109,-68,109,-212c0,0,0,-215,-201,-276L1009,74L1117,54V0Z" 
id="f6_1i"
transform="scale(0.001,-0.001)" />

<path d="M55,0V40L184,60V941L55,960v40H455V960L327,941V60L455,40V0Z" 
id="f2_19"
transform="scale(0.001,-0.001)" />

<path d="M83,308c0,0,-35,0,-59,24c0,0,-24,24,-24,59c0,0,0,34,24,58c0,0,24,24,59,24c0,0,33,0,58,-24c0,0,24,-24,24,-58c0,0,0,-35,-24,-59c0,0,-25,-24,-58,-24Z" 
id="f4_49"
transform="scale(0.001,-0.001)" />

<path d="M0,-123V1415H525v-72H72V-123Z" 
id="f4_4r"
transform="scale(0.001,-0.001)" />

<path d="M478,-123V1343H26v72H550V-123Z" 
id="f4_57"
transform="scale(0.001,-0.001)" />

<path d="M0,-123V1415H72V-123Z" 
id="f4_4s"
transform="scale(0.001,-0.001)" />

<path d="M0,-123V1415H72V-123Z" 
id="f4_58"
transform="scale(0.001,-0.001)" />

<path d="M0,-123V1415H72V-51H525v-72Z" 
id="f4_4t"
transform="scale(0.001,-0.001)" />

<path d="M26,-123v72H478V1415h72V-123Z" 
id="f4_59"
transform="scale(0.001,-0.001)" />


</defs>
</svg>