<?xml version="1.0" encoding="UTF-8" standalone="no"?>
<!DOCTYPE svg PUBLIC "-//W3C//DTD SVG 1.1//EN"
"http://www.w3.org/Graphics/SVG/1.1/DTD/svg11.dtd">
<svg viewBox="0 0 909 1286" version="1.1" xmlns="http://www.w3.org/2000/svg" xmlns:xlink="http://www.w3.org/1999/xlink">
<defs>
<clipPath id="c0_23"><path d="M146.3,1149.8v-20.9h40.5v20.9Z" /></clipPath>
<style type="text/css"><![CDATA[
.g0_23{
fill: none;
stroke: #FFFFFF;
stroke-width: 0.77000004;
stroke-linecap: round;
stroke-linejoin: round;
}
.g1_23{
fill: none;
stroke: #000000;
stroke-width: 0.9090278;
stroke-linecap: round;
stroke-linejoin: round;
}
.g2_23{
fill: none;
stroke: #000000;
stroke-width: 0.9105556;
stroke-linecap: round;
stroke-linejoin: round;
}
]]></style>
</defs>
<path d="M512.4,487l6.2,9.8l5.4,8.4l4.1,8.8l2,8.4l1.1,7.7l1.3,6.7l-1.3,6.7l-2.1,6.7l-2,4.8l-3.1,5.7l-3.1,4.9l-3.3,3.8l-7.2,6.7l-6.5,4.6l-11.5,6.9l-10.3,6.7L470.6,600L459,606.6l-6.4,3.9l-6.2,4.9L441,620l-5.1,5.9l-4.1,6.7l-3.4,7.4l-1,9.7l-1,10.6l-6.2,-10.6l-5.4,-10.5l-3.1,-10.5l-1,-10.5v-4.9l1,-4.9l1.1,-4.6l2,-3.8l2.1,-4.9l3.3,-3.9l3.1,-3.6l4.1,-3.8l17,-11.6L461,562.7L475.7,554l13.6,-7.7l6.4,-4.6l5.2,-6.7l4.1,-6.7l3.3,-7.7l2.1,-8.7l2,-7.7V487m30.3,38.3l7.5,9.7l5.1,9.5l4.4,9.5l2,7.7l1.1,8.5l1,6.9l-1,7.5l-2.1,5.9l-2,5.6l-3.4,5.7l-3.1,4.8l-3,4.9l-7.5,6.7l-7.2,4.6L524,629.5l-8.5,5.9L505,642l-14.7,8.5l-8.2,5.9l-7.4,5.7l-6.2,6.6l-6.4,7.7l-4.1,6.7l-4.4,7.7l-3.1,7.7l-2,6.7l-3.1,-12.6l-2.1,-11.3L441,669.8V659.2l1.1,-8.7l2.3,-8.5l3,-4.8l2.1,-3.9l4.1,-3.8l4.4,-3.6l16.7,-12.6l16.7,-9.5L506,595.1l14.9,-8.5l6.2,-4.9l5.4,-6.6l4.1,-6.7l4.1,-7.7l2,-7.7l2.3,-8.5V535l-2.3,-9.7" class="g0_23" />
<g fill="#000000" >
<use xlink:href="#f0_l" transform="matrix(6.9,0,0,6.9,181.7,108.1)" />
<use xlink:href="#f0_l" transform="matrix(6.9,0,0,6.9,187,108.1)" />
<use xlink:href="#f0_l" transform="matrix(6.9,0,0,6.9,242.9,108.1)" />
<use xlink:href="#f0_m" transform="matrix(6.9,0,0,6.9,248.2,108.1)" />
<use xlink:href="#f0_l" transform="matrix(6.9,0,0,6.9,302.3,108.1)" />
<use xlink:href="#f0_m" transform="matrix(6.9,0,0,6.9,307.6,108.1)" />
<use xlink:href="#f0_1e" transform="matrix(12,0,0,12,122.3,103.3)" />
<use xlink:href="#f0_2b" transform="matrix(12,0,0,12,135.5,103.3)" />
<use xlink:href="#f0_2j" transform="matrix(12,0,0,12,144.7,103.3)" />
<use xlink:href="#f0_g" transform="matrix(12,0,0,12,158.7,103.3)" />
<use xlink:href="#f0_11" transform="matrix(12,0,0,12,168.4,103.3)" />
<use xlink:href="#f0_k" transform="matrix(12,0,0,12,211.1,103.3)" />
<use xlink:href="#f0_g" transform="matrix(12,0,0,12,220.1,103.3)" />
<use xlink:href="#f0_11" transform="matrix(12,0,0,12,229.8,103.3)" />
<use xlink:href="#f0_m" transform="matrix(12,0,0,12,273.6,103.3)" />
<use xlink:href="#f0_g" transform="matrix(12,0,0,12,282.6,103.3)" />
<use xlink:href="#f0_11" transform="matrix(12,0,0,12,289.2,103.3)" />
<use xlink:href="#f0_l" transform="matrix(12,0,0,12,331,103.3)" />
<use xlink:href="#f1_x" transform="matrix(12,0,0,12,197.3,103.3)" />
<use xlink:href="#f1_x" transform="matrix(12,0,0,12,259.4,103.3)" />
<use xlink:href="#f1_x" transform="matrix(12,0,0,12,318.6,103.3)" />
<use xlink:href="#f0_m" transform="matrix(6.9,0,0,6.9,135.8,141.1)" />
<use xlink:href="#f0_l" transform="matrix(6.9,0,0,6.9,141.2,141.1)" />
<use xlink:href="#f0_m" transform="matrix(6.9,0,0,6.9,203.9,141.1)" />
<use xlink:href="#f0_m" transform="matrix(6.9,0,0,6.9,209.2,141.1)" />
<use xlink:href="#f0_m" transform="matrix(6.9,0,0,6.9,274.1,141.1)" />
<use xlink:href="#f0_n" transform="matrix(6.9,0,0,6.9,279.4,141.1)" />
<use xlink:href="#f0_11" transform="matrix(12,0,0,12,121.7,136.3)" />
<use xlink:href="#f0_l" transform="matrix(12,0,0,12,175.8,136.3)" />
<use xlink:href="#f0_g" transform="matrix(12,0,0,12,183.1,136.3)" />
<use xlink:href="#f0_11" transform="matrix(12,0,0,12,189.7,136.3)" />
<use xlink:href="#f0_t" transform="matrix(12,0,0,12,244.5,136.3)" />
<use xlink:href="#f0_g" transform="matrix(12,0,0,12,253.3,136.3)" />
<use xlink:href="#f0_11" transform="matrix(12,0,0,12,259.9,136.3)" />
<use xlink:href="#f0_p" transform="matrix(12,0,0,12,314.3,136.3)" />
<use xlink:href="#f1_x" transform="matrix(12,0,0,12,151.4,136.3)" />
<use xlink:href="#f1_h" transform="matrix(12,0,0,12,165.7,136.3)" />
<use xlink:href="#f1_x" transform="matrix(12,0,0,12,220.1,136.3)" />
<use xlink:href="#f1_h" transform="matrix(12,0,0,12,234.4,136.3)" />
<use xlink:href="#f1_x" transform="matrix(12,0,0,12,290.1,136.3)" />
<use xlink:href="#f1_h" transform="matrix(12,0,0,12,304.4,136.3)" />
<use xlink:href="#f0_n" transform="matrix(6.9,0,0,6.9,135.5,174.1)" />
<use xlink:href="#f0_l" transform="matrix(6.9,0,0,6.9,140.8,174.1)" />
<use xlink:href="#f0_n" transform="matrix(6.9,0,0,6.9,194.7,174.1)" />
<use xlink:href="#f0_m" transform="matrix(6.9,0,0,6.9,200,174.1)" />
<use xlink:href="#f0_n" transform="matrix(6.9,0,0,6.9,263.1,174.1)" />
<use xlink:href="#f0_n" transform="matrix(6.9,0,0,6.9,268.4,174.1)" />
<use xlink:href="#f0_11" transform="matrix(12,0,0,12,121.7,169.3)" />
<use xlink:href="#f0_m" transform="matrix(12,0,0,12,165.3,169.3)" />
<use xlink:href="#f0_g" transform="matrix(12,0,0,12,174.1,169.3)" />
<use xlink:href="#f0_11" transform="matrix(12,0,0,12,180.7,169.3)" />
<use xlink:href="#f0_m" transform="matrix(12,0,0,12,225.3,169.3)" />
<use xlink:href="#f0_n" transform="matrix(12,0,0,12,234.4,169.3)" />
<use xlink:href="#f0_g" transform="matrix(12,0,0,12,242.7,169.3)" />
<use xlink:href="#f0_11" transform="matrix(12,0,0,12,249.3,169.3)" />
<use xlink:href="#f0_l" transform="matrix(12,0,0,12,291.2,169.3)" />
<use xlink:href="#f0_n" transform="matrix(12,0,0,12,300.4,169.3)" />
<use xlink:href="#f1_x" transform="matrix(12,0,0,12,151.1,169.3)" />
<use xlink:href="#f1_x" transform="matrix(12,0,0,12,211,169.3)" />
<use xlink:href="#f1_x" transform="matrix(12,0,0,12,279,169.3)" />
</g>
<path d="M187.4,236.3v21.9m17.3,-21.9v21.9M185.5,232.9h21.4" class="g1_23" />
<g fill="#000000" >
<use xlink:href="#f1_c" transform="matrix(11.8,0,0,15.8,209.2,238.8)" />
<use xlink:href="#f1_d" transform="matrix(11.8,0,0,15.8,254.6,238.8)" />
<use xlink:href="#f1_c" transform="matrix(11.8,0,0,15.8,636,238.8)" />
<use xlink:href="#f1_d" transform="matrix(11.8,0,0,15.8,650.3,238.8)" />
<use xlink:href="#f0_l" transform="matrix(7,0,0,7,160.6,229.3)" />
<use xlink:href="#f0_k" transform="matrix(12.1,0,0,12.1,299.4,209.9)" />
<use xlink:href="#f0_l" transform="matrix(12.1,0,0,12.1,336.6,209.9)" />
<use xlink:href="#f0_m" transform="matrix(12.1,0,0,12.1,366.5,209.9)" />
<use xlink:href="#f0_k" transform="matrix(12.1,0,0,12.1,419.6,209.9)" />
<use xlink:href="#f0_l" transform="matrix(12.1,0,0,12.1,450.6,209.9)" />
<use xlink:href="#f0_m" transform="matrix(12.1,0,0,12.1,491.3,209.9)" />
<use xlink:href="#f0_l" transform="matrix(12.1,0,0,12.1,191.6,225.8)" />
<use xlink:href="#f0_11" transform="matrix(12.1,0,0,12.1,140.6,237.5)" />
<use xlink:href="#f0_1x" transform="matrix(12.1,0,0,12.1,216.5,237.5)" />
<use xlink:href="#f0_20" transform="matrix(12.1,0,0,12.1,224.6,237.5)" />
<use xlink:href="#f0_26" transform="matrix(12.1,0,0,12.1,233.8,237.5)" />
<use xlink:href="#f0_11" transform="matrix(12.1,0,0,12.1,240,237.5)" />
<use xlink:href="#f0_m" transform="matrix(12.1,0,0,12.1,299.6,237.5)" />
<use xlink:href="#f0_t" transform="matrix(12.1,0,0,12.1,335.8,237.5)" />
<use xlink:href="#f0_m" transform="matrix(12.1,0,0,12.1,362.2,237.5)" />
<use xlink:href="#f0_n" transform="matrix(12.1,0,0,12.1,371.4,237.5)" />
<use xlink:href="#f0_m" transform="matrix(12.1,0,0,12.1,424.9,237.5)" />
<use xlink:href="#f0_t" transform="matrix(12.1,0,0,12.1,450.6,237.5)" />
<use xlink:href="#f0_m" transform="matrix(12.1,0,0,12.1,487.1,237.5)" />
<use xlink:href="#f0_n" transform="matrix(12.1,0,0,12.1,496.2,237.5)" />
<use xlink:href="#f0_i" transform="matrix(12.1,0,0,12.1,617,237.5)" />
<use xlink:href="#f0_i" transform="matrix(12.1,0,0,12.1,621.6,237.5)" />
<use xlink:href="#f0_i" transform="matrix(12.1,0,0,12.1,626.2,237.5)" />
<use xlink:href="#f0_i" transform="matrix(12.1,0,0,12.1,630.8,237.5)" />
<use xlink:href="#f0_l" transform="matrix(12.1,0,0,12.1,641.4,237.5)" />
<use xlink:href="#f0_11" transform="matrix(12.1,0,0,12.1,189.6,251.8)" />
<use xlink:href="#f0_l" transform="matrix(12.1,0,0,12.1,299.2,265)" />
<use xlink:href="#f0_p" transform="matrix(12.1,0,0,12.1,336,265)" />
<use xlink:href="#f0_l" transform="matrix(12.1,0,0,12.1,361.1,265)" />
<use xlink:href="#f0_n" transform="matrix(12.1,0,0,12.1,370.3,265)" />
<use xlink:href="#f0_l" transform="matrix(12.1,0,0,12.1,425.5,265)" />
<use xlink:href="#f0_p" transform="matrix(12.1,0,0,12.1,450.8,265)" />
<use xlink:href="#f0_l" transform="matrix(12.1,0,0,12.1,487.1,265)" />
<use xlink:href="#f0_n" transform="matrix(12.1,0,0,12.1,496.3,265)" />
<use xlink:href="#f1_h" transform="matrix(7,0,0,7,154.9,229.3)" />
<use xlink:href="#f1_h" transform="matrix(12.1,0,0,12.1,326.5,209.9)" />
<use xlink:href="#f1_h" transform="matrix(12.1,0,0,12.1,481.2,209.9)" />
<use xlink:href="#f1_4r" transform="matrix(12.1,0,0,12.1,291.7,211.3)" />
<use xlink:href="#f1_57" transform="matrix(12.1,0,0,12.1,380.6,211.3)" />
<use xlink:href="#f1_4r" transform="matrix(12.1,0,0,12.1,407,211.3)" />
<use xlink:href="#f1_57" transform="matrix(12.1,0,0,12.1,505.4,211.3)" />
<use xlink:href="#f1_4s" transform="matrix(12.1,0,0,12.1,291.7,228.9)" />
<use xlink:href="#f1_58" transform="matrix(12.1,0,0,12.1,380.6,228.9)" />
<use xlink:href="#f1_4s" transform="matrix(12.1,0,0,12.1,407,228.9)" />
<use xlink:href="#f1_58" transform="matrix(12.1,0,0,12.1,505.4,228.9)" />
<use xlink:href="#f1_1s" transform="matrix(12.1,0,0,12.1,119,237.5)" />
<use xlink:href="#f1_x" transform="matrix(12.1,0,0,12.1,170.8,237.5)" />
<use xlink:href="#f1_x" transform="matrix(12.1,0,0,12.1,264.7,237.5)" />
<use xlink:href="#f1_h" transform="matrix(12.1,0,0,12.1,279,237.5)" />
<use xlink:href="#f1_h" transform="matrix(12.1,0,0,12.1,325.7,237.5)" />
<use xlink:href="#f1_x" transform="matrix(12.1,0,0,12.1,392.3,237.5)" />
<use xlink:href="#f1_h" transform="matrix(12.1,0,0,12.1,414.8,237.5)" />
<use xlink:href="#f1_h" transform="matrix(12.1,0,0,12.1,477,237.5)" />
<use xlink:href="#f1_4s" transform="matrix(12.1,0,0,12.1,291.7,246.5)" />
<use xlink:href="#f1_58" transform="matrix(12.1,0,0,12.1,380.6,246.5)" />
<use xlink:href="#f1_4s" transform="matrix(12.1,0,0,12.1,407,246.5)" />
<use xlink:href="#f1_58" transform="matrix(12.1,0,0,12.1,505.4,246.5)" />
<use xlink:href="#f1_4s" transform="matrix(12.1,0,0,12.1,291.7,264.3)" />
<use xlink:href="#f1_58" transform="matrix(12.1,0,0,12.1,380.6,264.3)" />
<use xlink:href="#f1_4s" transform="matrix(12.1,0,0,12.1,407,264.3)" />
<use xlink:href="#f1_58" transform="matrix(12.1,0,0,12.1,505.4,264.3)" />
<use xlink:href="#f1_h" transform="matrix(12.1,0,0,12.1,326,265)" />
<use xlink:href="#f1_h" transform="matrix(12.1,0,0,12.1,415.6,265)" />
<use xlink:href="#f1_h" transform="matrix(12.1,0,0,12.1,477,265)" />
<use xlink:href="#f1_4t" transform="matrix(12.1,0,0,12.1,291.7,270)" />
<use xlink:href="#f1_59" transform="matrix(12.1,0,0,12.1,380.6,270)" />
<use xlink:href="#f1_4t" transform="matrix(12.1,0,0,12.1,407,270)" />
<use xlink:href="#f1_59" transform="matrix(12.1,0,0,12.1,505.4,270)" />
<use xlink:href="#f0_1e" transform="matrix(12,0,0,12,119,303)" />
<use xlink:href="#f0_2b" transform="matrix(12,0,0,12,132,303)" />
<use xlink:href="#f0_2j" transform="matrix(12,0,0,12,140.8,303)" />
<use xlink:href="#f0_g" transform="matrix(12,0,0,12,152.7,303)" />
<use xlink:href="#f0_2g" transform="matrix(12,0,0,12,160.2,303)" />
<use xlink:href="#f0_24" transform="matrix(12,0,0,12,165.2,303)" />
<use xlink:href="#f0_21" transform="matrix(12,0,0,12,174,303)" />
<use xlink:href="#f0_23" transform="matrix(12,0,0,12,185,303)" />
<use xlink:href="#f0_25" transform="matrix(12,0,0,12,193.8,303)" />
<use xlink:href="#f0_2i" transform="matrix(12,0,0,12,198.6,303)" />
<use xlink:href="#f0_21" transform="matrix(12,0,0,12,207.5,303)" />
<use xlink:href="#f0_2a" transform="matrix(12,0,0,12,215.4,303)" />
<use xlink:href="#f0_2f" transform="matrix(12,0,0,12,227.5,303)" />
<use xlink:href="#f0_2l" transform="matrix(12,0,0,12,234.3,303)" />
<use xlink:href="#f0_2f" transform="matrix(12,0,0,12,242.7,303)" />
<use xlink:href="#f0_2g" transform="matrix(12,0,0,12,249.7,303)" />
<use xlink:href="#f0_21" transform="matrix(12,0,0,12,254.5,303)" />
<use xlink:href="#f0_29" transform="matrix(12,0,0,12,262.4,303)" />
<use xlink:href="#f0_2b" transform="matrix(12,0,0,12,279.4,303)" />
<use xlink:href="#f0_22" transform="matrix(12,0,0,12,288.2,303)" />
<use xlink:href="#f0_21" transform="matrix(12,0,0,12,297.4,303)" />
<use xlink:href="#f0_2d" transform="matrix(12,0,0,12,305.1,303)" />
<use xlink:href="#f0_2h" transform="matrix(12,0,0,12,314.1,303)" />
<use xlink:href="#f0_1x" transform="matrix(12,0,0,12,322.9,303)" />
<use xlink:href="#f0_2g" transform="matrix(12,0,0,12,330.7,303)" />
<use xlink:href="#f0_25" transform="matrix(12,0,0,12,335.7,303)" />
<use xlink:href="#f0_2b" transform="matrix(12,0,0,12,340.5,303)" />
<use xlink:href="#f0_2a" transform="matrix(12,0,0,12,349.4,303)" />
<use xlink:href="#f0_2f" transform="matrix(12,0,0,12,358.2,303)" />
<use xlink:href="#f0_1z" transform="matrix(12,0,0,12,368.3,303)" />
<use xlink:href="#f0_1x" transform="matrix(12,0,0,12,376.2,303)" />
<use xlink:href="#f0_2a" transform="matrix(12,0,0,12,384.1,303)" />
<use xlink:href="#f0_1y" transform="matrix(12,0,0,12,396.2,303)" />
<use xlink:href="#f0_21" transform="matrix(12,0,0,12,405,303)" />
<use xlink:href="#f0_2j" transform="matrix(12,0,0,12,416.2,303)" />
<use xlink:href="#f0_2e" transform="matrix(12,0,0,12,429,303)" />
<use xlink:href="#f0_25" transform="matrix(12,0,0,12,434.9,303)" />
<use xlink:href="#f0_2g" transform="matrix(12,0,0,12,439.6,303)" />
<use xlink:href="#f0_2g" transform="matrix(12,0,0,12,444.6,303)" />
<use xlink:href="#f0_21" transform="matrix(12,0,0,12,449.4,303)" />
<use xlink:href="#f0_2a" transform="matrix(12,0,0,12,457.2,303)" />
<use xlink:href="#f0_25" transform="matrix(12,0,0,12,469.3,303)" />
<use xlink:href="#f0_2a" transform="matrix(12,0,0,12,474.3,303)" />
<use xlink:href="#f0_2g" transform="matrix(12,0,0,12,486.2,303)" />
<use xlink:href="#f0_24" transform="matrix(12,0,0,12,491.2,303)" />
<use xlink:href="#f0_21" transform="matrix(12,0,0,12,500,303)" />
<use xlink:href="#f0_22" transform="matrix(12,0,0,12,511,303)" />
<use xlink:href="#f0_2b" transform="matrix(12,0,0,12,516.8,303)" />
<use xlink:href="#f0_2e" transform="matrix(12,0,0,12,525.6,303)" />
<use xlink:href="#f0_29" transform="matrix(12,0,0,12,531.5,303)" />
<use xlink:href="#f0_2b" transform="matrix(12,0,0,12,548.7,303)" />
<use xlink:href="#f0_22" transform="matrix(12,0,0,12,557.7,303)" />
<use xlink:href="#f0_11" transform="matrix(11.9,0,0,11.9,569.4,303.5)" />
<use xlink:href="#f0_1o" transform="matrix(11.9,0,0,11.9,582.5,303.5)" />
<use xlink:href="#f0_12" transform="matrix(11.9,0,0,11.9,614.7,303.5)" />
<use xlink:href="#f0_g" transform="matrix(11.9,0,0,11.9,626.6,303.5)" />
<use xlink:href="#f1_x" transform="matrix(11.9,0,0,11.9,600.2,303.5)" />
<use xlink:href="#f0_2j" transform="matrix(12,0,0,12,637.1,303)" />
<use xlink:href="#f0_24" transform="matrix(12,0,0,12,650.1,303)" />
<use xlink:href="#f0_21" transform="matrix(12,0,0,12,658.9,303)" />
<use xlink:href="#f0_2e" transform="matrix(12,0,0,12,666.8,303)" />
<use xlink:href="#f0_21" transform="matrix(12,0,0,12,672.5,303)" />
<use xlink:href="#f0_m" transform="matrix(12,0,0,12,161.9,342.2)" />
<use xlink:href="#f0_n" transform="matrix(12,0,0,12,198.2,342.2)" />
<use xlink:href="#f0_p" transform="matrix(12,0,0,12,228.8,342.2)" />
<use xlink:href="#f0_2k" transform="matrix(12,0,0,12,303,342.2)" />
<use xlink:href="#f0_l" transform="matrix(12,0,0,12,394.9,342.2)" />
<use xlink:href="#f0_l" transform="matrix(12,0,0,12,404,342.2)" />
<use xlink:href="#f0_11" transform="matrix(12,0,0,12,121.7,369.7)" />
<use xlink:href="#f0_n" transform="matrix(12,0,0,12,161.9,369.7)" />
<use xlink:href="#f0_m" transform="matrix(12,0,0,12,192.8,369.7)" />
<use xlink:href="#f0_o" transform="matrix(12,0,0,12,233.9,369.7)" />
<use xlink:href="#f0_g" transform="matrix(12,0,0,12,252.9,369.7)" />
<use xlink:href="#f0_1o" transform="matrix(12,0,0,12,262.7,369.7)" />
<use xlink:href="#f0_2l" transform="matrix(12,0,0,12,303.3,369.7)" />
<use xlink:href="#f0_1x" transform="matrix(12,0,0,12,326.3,369.7)" />
<use xlink:href="#f0_2a" transform="matrix(12,0,0,12,334.3,369.7)" />
<use xlink:href="#f0_20" transform="matrix(12,0,0,12,343.5,369.7)" />
<use xlink:href="#f0_12" transform="matrix(12,0,0,12,358.3,369.7)" />
<use xlink:href="#f0_p" transform="matrix(12,0,0,12,406.7,369.7)" />
<use xlink:href="#f0_l" transform="matrix(12,0,0,12,161.7,397.4)" />
<use xlink:href="#f0_l" transform="matrix(12,0,0,12,192.7,397.4)" />
<use xlink:href="#f0_m" transform="matrix(12,0,0,12,233.9,397.4)" />
<use xlink:href="#f0_2k" transform="matrix(12,0,0,12,303,397.4)" />
<use xlink:href="#f0_n" transform="matrix(12,0,0,12,406.8,397.4)" />
<use xlink:href="#f1_h" transform="matrix(12,0,0,12,188.3,342.2)" />
<use xlink:href="#f1_4r" transform="matrix(12,0,0,12,154,343.7)" />
<use xlink:href="#f1_57" transform="matrix(12,0,0,12,243.8,343.7)" />
<use xlink:href="#f1_4r" transform="matrix(12,0,0,12,294.9,343.7)" />
<use xlink:href="#f1_57" transform="matrix(12,0,0,12,313.8,343.7)" />
<use xlink:href="#f1_4r" transform="matrix(12,0,0,12,389,343.7)" />
<use xlink:href="#f1_57" transform="matrix(12,0,0,12,416.3,343.7)" />
<use xlink:href="#f1_4s" transform="matrix(12,0,0,12,154,361.3)" />
<use xlink:href="#f1_58" transform="matrix(12,0,0,12,243.8,361.3)" />
<use xlink:href="#f1_4s" transform="matrix(12,0,0,12,294.9,361.3)" />
<use xlink:href="#f1_58" transform="matrix(12,0,0,12,313.8,361.3)" />
<use xlink:href="#f1_4s" transform="matrix(12,0,0,12,389,361.3)" />
<use xlink:href="#f1_58" transform="matrix(12,0,0,12,416.3,361.3)" />
<use xlink:href="#f1_x" transform="matrix(12,0,0,12,139.5,369.7)" />
<use xlink:href="#f1_h" transform="matrix(12,0,0,12,224,369.7)" />
<use xlink:href="#f1_x" transform="matrix(12,0,0,12,280.5,369.7)" />
<use xlink:href="#f1_x" transform="matrix(12,0,0,12,374.3,369.7)" />
<use xlink:href="#f1_h" transform="matrix(12,0,0,12,396.9,369.7)" />
<use xlink:href="#f1_4s" transform="matrix(12,0,0,12,154,378.9)" />
<use xlink:href="#f1_58" transform="matrix(12,0,0,12,243.8,378.9)" />
<use xlink:href="#f1_4s" transform="matrix(12,0,0,12,294.9,378.9)" />
<use xlink:href="#f1_58" transform="matrix(12,0,0,12,313.8,378.9)" />
<use xlink:href="#f1_4s" transform="matrix(12,0,0,12,389,378.9)" />
<use xlink:href="#f1_58" transform="matrix(12,0,0,12,416.3,378.9)" />
<use xlink:href="#f1_4s" transform="matrix(12,0,0,12,154,396.5)" />
<use xlink:href="#f1_58" transform="matrix(12,0,0,12,243.8,396.5)" />
<use xlink:href="#f1_4s" transform="matrix(12,0,0,12,294.9,396.5)" />
<use xlink:href="#f1_58" transform="matrix(12,0,0,12,313.8,396.5)" />
<use xlink:href="#f1_4s" transform="matrix(12,0,0,12,389,396.5)" />
<use xlink:href="#f1_58" transform="matrix(12,0,0,12,416.3,396.5)" />
<use xlink:href="#f1_h" transform="matrix(12,0,0,12,224,397.4)" />
<use xlink:href="#f1_h" transform="matrix(12,0,0,12,396.9,397.4)" />
<use xlink:href="#f1_4t" transform="matrix(12,0,0,12,154,402.2)" />
<use xlink:href="#f1_59" transform="matrix(12,0,0,12,243.8,402.2)" />
<use xlink:href="#f1_4t" transform="matrix(12,0,0,12,294.9,402.2)" />
<use xlink:href="#f1_59" transform="matrix(12,0,0,12,313.8,402.2)" />
<use xlink:href="#f1_4t" transform="matrix(12,0,0,12,389,402.2)" />
<use xlink:href="#f1_59" transform="matrix(12,0,0,12,416.3,402.2)" />
<use xlink:href="#f0_1k" transform="matrix(12,0,0,12,119,437.9)" />
<use xlink:href="#f0_24" transform="matrix(12,0,0,12,129.8,437.9)" />
<use xlink:href="#f0_21" transform="matrix(12,0,0,12,138.6,437.9)" />
<use xlink:href="#f0_2f" transform="matrix(12,0,0,12,149.4,437.9)" />
<use xlink:href="#f0_2b" transform="matrix(12,0,0,12,156.2,437.9)" />
<use xlink:href="#f0_28" transform="matrix(12,0,0,12,165,437.9)" />
<use xlink:href="#f0_2h" transform="matrix(12,0,0,12,169.8,437.9)" />
<use xlink:href="#f0_2g" transform="matrix(12,0,0,12,178.6,437.9)" />
<use xlink:href="#f0_25" transform="matrix(12,0,0,12,183.3,437.9)" />
<use xlink:href="#f0_2b" transform="matrix(12,0,0,12,188.1,437.9)" />
<use xlink:href="#f0_2a" transform="matrix(12,0,0,12,196.9,437.9)" />
<use xlink:href="#f0_2b" transform="matrix(12,0,0,12,208.8,437.9)" />
<use xlink:href="#f0_22" transform="matrix(12,0,0,12,217.6,437.9)" />
<use xlink:href="#f0_2g" transform="matrix(12,0,0,12,226.2,437.9)" />
<use xlink:href="#f0_24" transform="matrix(12,0,0,12,231,437.9)" />
<use xlink:href="#f0_21" transform="matrix(12,0,0,12,239.8,437.9)" />
<use xlink:href="#f0_2f" transform="matrix(12,0,0,12,250.6,437.9)" />
<use xlink:href="#f0_2l" transform="matrix(12,0,0,12,257.4,437.9)" />
<use xlink:href="#f0_2f" transform="matrix(12,0,0,12,265.7,437.9)" />
<use xlink:href="#f0_2g" transform="matrix(12,0,0,12,272.4,437.9)" />
<use xlink:href="#f0_21" transform="matrix(12,0,0,12,277.2,437.9)" />
<use xlink:href="#f0_29" transform="matrix(12,0,0,12,284.9,437.9)" />
<use xlink:href="#f0_2b" transform="matrix(12,0,0,12,298.7,437.9)" />
<use xlink:href="#f0_22" transform="matrix(12,0,0,12,307.5,437.9)" />
<use xlink:href="#f0_21" transform="matrix(12,0,0,12,316.3,437.9)" />
<use xlink:href="#f0_2d" transform="matrix(12,0,0,12,323.9,437.9)" />
<use xlink:href="#f0_2h" transform="matrix(12,0,0,12,332.7,437.9)" />
<use xlink:href="#f0_1x" transform="matrix(12,0,0,12,341.6,437.9)" />
<use xlink:href="#f0_2g" transform="matrix(12,0,0,12,349.2,437.9)" />
<use xlink:href="#f0_25" transform="matrix(12,0,0,12,354,437.9)" />
<use xlink:href="#f0_2b" transform="matrix(12,0,0,12,358.8,437.9)" />
<use xlink:href="#f0_2a" transform="matrix(12,0,0,12,367.6,437.9)" />
<use xlink:href="#f0_2f" transform="matrix(12,0,0,12,376.4,437.9)" />
<use xlink:href="#f0_25" transform="matrix(12,0,0,12,386.3,437.9)" />
<use xlink:href="#f0_2f" transform="matrix(12,0,0,12,391,437.9)" />
<use xlink:href="#f0_23" transform="matrix(12,0,0,12,400.8,437.9)" />
<use xlink:href="#f0_25" transform="matrix(12,0,0,12,409.4,437.9)" />
<use xlink:href="#f0_2i" transform="matrix(12,0,0,12,414.1,437.9)" />
<use xlink:href="#f0_21" transform="matrix(12,0,0,12,422.9,437.9)" />
<use xlink:href="#f0_2a" transform="matrix(12,0,0,12,430.6,437.9)" />
<use xlink:href="#f0_1y" transform="matrix(12,0,0,12,442.6,437.9)" />
<use xlink:href="#f0_2l" transform="matrix(12,0,0,12,451.4,437.9)" />
<use xlink:href="#f0_l" transform="matrix(6.9,0,0,6.9,517.2,431.3)" />
<use xlink:href="#f0_1o" transform="matrix(12,0,0,12,465.5,439.4)" />
<use xlink:href="#f0_11" transform="matrix(12,0,0,12,497.4,439.4)" />
<use xlink:href="#f0_12" transform="matrix(12,0,0,12,522.3,439.4)" />
<use xlink:href="#f0_g" transform="matrix(12,0,0,12,534,439.4)" />
<use xlink:href="#f1_h" transform="matrix(6.9,0,0,6.9,511.5,431.3)" />
<use xlink:href="#f1_x" transform="matrix(12,0,0,12,483.1,439.4)" />
<use xlink:href="#f0_l" transform="matrix(6.9,0,0,6.9,173.4,464)" />
<use xlink:href="#f0_1o" transform="matrix(12,0,0,12,121.7,472)" />
<use xlink:href="#f0_11" transform="matrix(12,0,0,12,153.6,472)" />
<use xlink:href="#f0_12" transform="matrix(12,0,0,12,178.5,472)" />
<use xlink:href="#f1_h" transform="matrix(6.9,0,0,6.9,167.8,464)" />
<use xlink:href="#f1_x" transform="matrix(12,0,0,12,139.3,472)" />
<use xlink:href="#f1_c" transform="matrix(11.8,0,0,15.8,452.8,534.9)" />
<use xlink:href="#f1_d" transform="matrix(11.8,0,0,15.8,467.1,534.9)" />
<use xlink:href="#f0_2k" transform="matrix(12.1,0,0,12.1,153.1,505.9)" />
<use xlink:href="#f0_k" transform="matrix(12.1,0,0,12.1,202.9,505.9)" />
<use xlink:href="#f0_l" transform="matrix(12.1,0,0,12.1,233.9,505.9)" />
<use xlink:href="#f0_m" transform="matrix(12.1,0,0,12.1,274.6,505.9)" />
<use xlink:href="#f0_l" transform="matrix(12.1,0,0,12.1,304.6,505.9)" />
<use xlink:href="#f0_l" transform="matrix(12.1,0,0,12.1,313.8,505.9)" />
<use xlink:href="#f0_2l" transform="matrix(12.1,0,0,12.1,153.5,533.6)" />
<use xlink:href="#f0_m" transform="matrix(12.1,0,0,12.1,208.1,533.6)" />
<use xlink:href="#f0_t" transform="matrix(12.1,0,0,12.1,233.9,533.6)" />
<use xlink:href="#f0_m" transform="matrix(12.1,0,0,12.1,270.4,533.6)" />
<use xlink:href="#f0_n" transform="matrix(12.1,0,0,12.1,279.6,533.6)" />
<use xlink:href="#f0_p" transform="matrix(12.1,0,0,12.1,316.6,533.6)" />
<use xlink:href="#f0_1l" transform="matrix(12.1,0,0,12.1,407,533.6)" />
<use xlink:href="#f0_2f" transform="matrix(12.1,0,0,12.1,420.2,533.6)" />
<use xlink:href="#f0_25" transform="matrix(12.1,0,0,12.1,427.3,533.6)" />
<use xlink:href="#f0_2a" transform="matrix(12.1,0,0,12.1,432.5,533.6)" />
<use xlink:href="#f0_23" transform="matrix(12.1,0,0,12.1,441.6,533.6)" />
<use xlink:href="#f0_l" transform="matrix(12.1,0,0,12.1,458.3,533.6)" />
<use xlink:href="#f0_2m" transform="matrix(12.1,0,0,12.1,152.9,561.1)" />
<use xlink:href="#f0_l" transform="matrix(12.1,0,0,12.1,208.8,561.1)" />
<use xlink:href="#f0_p" transform="matrix(12.1,0,0,12.1,234.1,561.1)" />
<use xlink:href="#f0_l" transform="matrix(12.1,0,0,12.1,270.2,561.1)" />
<use xlink:href="#f0_n" transform="matrix(12.1,0,0,12.1,279.6,561.1)" />
<use xlink:href="#f0_n" transform="matrix(12.1,0,0,12.1,316.6,561.1)" />
<use xlink:href="#f1_h" transform="matrix(12.1,0,0,12.1,264.6,505.9)" />
<use xlink:href="#f1_4r" transform="matrix(12.1,0,0,12.1,145,507.4)" />
<use xlink:href="#f1_57" transform="matrix(12.1,0,0,12.1,163.9,507.4)" />
<use xlink:href="#f1_4r" transform="matrix(12.1,0,0,12.1,190.1,507.4)" />
<use xlink:href="#f1_57" transform="matrix(12.1,0,0,12.1,288.7,507.4)" />
<use xlink:href="#f1_4r" transform="matrix(12.1,0,0,12.1,298.8,507.4)" />
<use xlink:href="#f1_57" transform="matrix(12.1,0,0,12.1,326.3,507.4)" />
<use xlink:href="#f1_4s" transform="matrix(12.1,0,0,12.1,145,525)" />
<use xlink:href="#f1_58" transform="matrix(12.1,0,0,12.1,163.9,525)" />
<use xlink:href="#f1_4s" transform="matrix(12.1,0,0,12.1,190.1,525)" />
<use xlink:href="#f1_58" transform="matrix(12.1,0,0,12.1,288.7,525)" />
<use xlink:href="#f1_4s" transform="matrix(12.1,0,0,12.1,298.8,525)" />
<use xlink:href="#f1_58" transform="matrix(12.1,0,0,12.1,326.3,525)" />
<use xlink:href="#f1_4g" transform="matrix(12.1,0,0,12.1,121.2,533.6)" />
<use xlink:href="#f1_x" transform="matrix(12.1,0,0,12.1,175.6,533.6)" />
<use xlink:href="#f1_h" transform="matrix(12.1,0,0,12.1,198,533.6)" />
<use xlink:href="#f1_h" transform="matrix(12.1,0,0,12.1,260.3,533.6)" />
<use xlink:href="#f1_h" transform="matrix(12.1,0,0,12.1,306.7,533.6)" />
<use xlink:href="#f1_4r" transform="matrix(12.1,0,0,12.1,398.8,533.6)" />
<use xlink:href="#f1_57" transform="matrix(12.1,0,0,12.1,473.9,533.6)" />
<use xlink:href="#f1_4t" transform="matrix(12.1,0,0,12.1,398.8,539.9)" />
<use xlink:href="#f1_59" transform="matrix(12.1,0,0,12.1,473.9,539.9)" />
<use xlink:href="#f1_4s" transform="matrix(12.1,0,0,12.1,145,542.6)" />
<use xlink:href="#f1_58" transform="matrix(12.1,0,0,12.1,163.9,542.6)" />
<use xlink:href="#f1_4s" transform="matrix(12.1,0,0,12.1,190.1,542.6)" />
<use xlink:href="#f1_58" transform="matrix(12.1,0,0,12.1,288.7,542.6)" />
<use xlink:href="#f1_4s" transform="matrix(12.1,0,0,12.1,298.8,542.6)" />
<use xlink:href="#f1_58" transform="matrix(12.1,0,0,12.1,326.3,542.6)" />
<use xlink:href="#f1_4s" transform="matrix(12.1,0,0,12.1,145,560.4)" />
<use xlink:href="#f1_58" transform="matrix(12.1,0,0,12.1,163.9,560.4)" />
<use xlink:href="#f1_4s" transform="matrix(12.1,0,0,12.1,190.1,560.4)" />
<use xlink:href="#f1_58" transform="matrix(12.1,0,0,12.1,288.7,560.4)" />
<use xlink:href="#f1_4s" transform="matrix(12.1,0,0,12.1,298.8,560.4)" />
<use xlink:href="#f1_58" transform="matrix(12.1,0,0,12.1,326.3,560.4)" />
<use xlink:href="#f1_h" transform="matrix(12.1,0,0,12.1,198.7,561.1)" />
<use xlink:href="#f1_h" transform="matrix(12.1,0,0,12.1,260.3,561.1)" />
<use xlink:href="#f1_h" transform="matrix(12.1,0,0,12.1,306.7,561.1)" />
<use xlink:href="#f1_4t" transform="matrix(12.1,0,0,12.1,145,566.1)" />
<use xlink:href="#f1_59" transform="matrix(12.1,0,0,12.1,163.9,566.1)" />
<use xlink:href="#f1_4t" transform="matrix(12.1,0,0,12.1,190.1,566.1)" />
<use xlink:href="#f1_59" transform="matrix(12.1,0,0,12.1,288.7,566.1)" />
<use xlink:href="#f1_4t" transform="matrix(12.1,0,0,12.1,298.8,566.1)" />
<use xlink:href="#f1_59" transform="matrix(12.1,0,0,12.1,326.3,566.1)" />
<use xlink:href="#f0_k" transform="matrix(12,0,0,12,143.9,609.3)" />
<use xlink:href="#f0_p" transform="matrix(12,0,0,12,168.7,609.3)" />
<use xlink:href="#f0_q" transform="matrix(12,0,0,12,193.6,609.3)" />
<use xlink:href="#f0_l" transform="matrix(12,0,0,12,273.9,609.3)" />
<use xlink:href="#f0_m" transform="matrix(12,0,0,12,154.4,636.8)" />
<use xlink:href="#f0_m" transform="matrix(12,0,0,12,163.5,636.8)" />
<use xlink:href="#f0_o" transform="matrix(12,0,0,12,188.8,636.8)" />
<use xlink:href="#f0_p" transform="matrix(12,0,0,12,198,636.8)" />
<use xlink:href="#f0_n" transform="matrix(12,0,0,12,222.6,636.8)" />
<use xlink:href="#f0_t" transform="matrix(12,0,0,12,231.9,636.8)" />
<use xlink:href="#f0_m" transform="matrix(12,0,0,12,275.9,636.8)" />
<use xlink:href="#f0_l" transform="matrix(12,0,0,12,154.4,664.5)" />
<use xlink:href="#f0_l" transform="matrix(12,0,0,12,163.5,664.5)" />
<use xlink:href="#f0_m" transform="matrix(12,0,0,12,187.4,664.5)" />
<use xlink:href="#f0_p" transform="matrix(12,0,0,12,196.5,664.5)" />
<use xlink:href="#f0_n" transform="matrix(12,0,0,12,221.3,664.5)" />
<use xlink:href="#f0_t" transform="matrix(12,0,0,12,230.5,664.5)" />
<use xlink:href="#f0_n" transform="matrix(12,0,0,12,275.4,664.5)" />
<use xlink:href="#f1_h" transform="matrix(12,0,0,12,156,609.3)" />
<use xlink:href="#f1_f" transform="matrix(12,0,0,12,180.4,609.3)" />
<use xlink:href="#f1_4r" transform="matrix(12,0,0,12,136.4,610.8)" />
<use xlink:href="#f1_57" transform="matrix(12,0,0,12,241.6,610.8)" />
<use xlink:href="#f1_4r" transform="matrix(12,0,0,12,268,610.8)" />
<use xlink:href="#f1_57" transform="matrix(12,0,0,12,285.8,610.8)" />
<use xlink:href="#f1_4s" transform="matrix(12,0,0,12,136.4,628.4)" />
<use xlink:href="#f1_58" transform="matrix(12,0,0,12,241.6,628.4)" />
<use xlink:href="#f1_4s" transform="matrix(12,0,0,12,268,628.4)" />
<use xlink:href="#f1_58" transform="matrix(12,0,0,12,285.8,628.4)" />
<use xlink:href="#f1_x" transform="matrix(12,0,0,12,121.7,636.8)" />
<use xlink:href="#f1_h" transform="matrix(12,0,0,12,144.3,636.8)" />
<use xlink:href="#f1_h" transform="matrix(12,0,0,12,175.6,636.8)" />
<use xlink:href="#f1_f" transform="matrix(12,0,0,12,209.7,636.8)" />
<use xlink:href="#f1_x" transform="matrix(12,0,0,12,253.5,636.8)" />
<use xlink:href="#f1_4s" transform="matrix(12,0,0,12,136.4,646)" />
<use xlink:href="#f1_58" transform="matrix(12,0,0,12,241.6,646)" />
<use xlink:href="#f1_4s" transform="matrix(12,0,0,12,268,646)" />
<use xlink:href="#f1_58" transform="matrix(12,0,0,12,285.8,646)" />
<use xlink:href="#f1_4s" transform="matrix(12,0,0,12,136.4,663.6)" />
<use xlink:href="#f1_58" transform="matrix(12,0,0,12,241.6,663.6)" />
<use xlink:href="#f1_4s" transform="matrix(12,0,0,12,268,663.6)" />
<use xlink:href="#f1_58" transform="matrix(12,0,0,12,285.8,663.6)" />
<use xlink:href="#f1_h" transform="matrix(12,0,0,12,144.3,664.5)" />
<use xlink:href="#f1_h" transform="matrix(12,0,0,12,174.2,664.5)" />
<use xlink:href="#f1_f" transform="matrix(12,0,0,12,208.2,664.5)" />
<use xlink:href="#f1_4t" transform="matrix(12,0,0,12,136.4,669.3)" />
<use xlink:href="#f1_59" transform="matrix(12,0,0,12,241.6,669.3)" />
<use xlink:href="#f1_4t" transform="matrix(12,0,0,12,268,669.3)" />
<use xlink:href="#f1_59" transform="matrix(12,0,0,12,285.8,669.3)" />
<use xlink:href="#f0_18" transform="matrix(12,0,0,12,119,702)" />
<use xlink:href="#f0_21" transform="matrix(12,0,0,12,132.2,702)" />
<use xlink:href="#f0_2a" transform="matrix(12,0,0,12,140.4,702)" />
<use xlink:href="#f0_1z" transform="matrix(12,0,0,12,149.5,702)" />
<use xlink:href="#f0_21" transform="matrix(12,0,0,12,157.7,702)" />
<use xlink:href="#f0_g" transform="matrix(12,0,0,12,165.8,702)" />
<use xlink:href="#f0_2k" transform="matrix(11.8,0,0,11.8,176.8,702.6)" />
<use xlink:href="#f2_x" transform="matrix(11.8,0,0,11.8,193.3,702.6)" />
<use xlink:href="#f0_l" transform="matrix(11.8,0,0,11.8,203.2,702.6)" />
<use xlink:href="#f0_g" transform="matrix(11.8,0,0,11.8,210.7,702.6)" />
<use xlink:href="#f0_2l" transform="matrix(11.8,0,0,11.8,217.8,702.6)" />
<use xlink:href="#f2_x" transform="matrix(11.8,0,0,11.8,235.8,702.6)" />
<use xlink:href="#f0_m" transform="matrix(11.8,0,0,11.8,245.7,702.6)" />
<use xlink:href="#f0_g" transform="matrix(11.8,0,0,11.8,254.7,702.6)" />
<use xlink:href="#f0_1x" transform="matrix(11.8,0,0,11.8,261.1,702.6)" />
<use xlink:href="#f0_2a" transform="matrix(11.8,0,0,11.8,269.1,702.6)" />
<use xlink:href="#f0_20" transform="matrix(11.8,0,0,11.8,278.1,702.6)" />
<use xlink:href="#f0_2m" transform="matrix(11.8,0,0,11.8,289.9,702.6)" />
<use xlink:href="#f2_x" transform="matrix(11.8,0,0,11.8,306.4,702.6)" />
<use xlink:href="#f0_n" transform="matrix(11.8,0,0,11.8,316.2,702.6)" />
<use xlink:href="#f3_c" transform="matrix(12,0,0,12,435.2,756.4)" />
<use xlink:href="#f3_1f" transform="matrix(12,0,0,12,441.1,756.4)" />
<use xlink:href="#f3_1i" transform="matrix(12,0,0,12,455.2,756.4)" />
<use xlink:href="#f3_d" transform="matrix(12,0,0,12,468.2,756.4)" />
<use xlink:href="#f0_1l" transform="matrix(12,0,0,12,121.9,829.3)" />
<use xlink:href="#f0_2f" transform="matrix(12,0,0,12,134.8,829.3)" />
<use xlink:href="#f0_25" transform="matrix(12,0,0,12,141.4,829.3)" />
<use xlink:href="#f0_2a" transform="matrix(12,0,0,12,146.1,829.3)" />
<use xlink:href="#f0_23" transform="matrix(12,0,0,12,154.9,829.3)" />
<use xlink:href="#f0_21" transform="matrix(12,0,0,12,166.5,829.3)" />
<use xlink:href="#f0_28" transform="matrix(12,0,0,12,174.2,829.3)" />
<use xlink:href="#f0_21" transform="matrix(12,0,0,12,178.8,829.3)" />
<use xlink:href="#f0_29" transform="matrix(12,0,0,12,186.5,829.3)" />
<use xlink:href="#f0_21" transform="matrix(12,0,0,12,200.4,829.3)" />
<use xlink:href="#f0_2a" transform="matrix(12,0,0,12,207.9,829.3)" />
<use xlink:href="#f0_2g" transform="matrix(12,0,0,12,216.7,829.3)" />
<use xlink:href="#f0_1x" transform="matrix(12,0,0,12,221.5,829.3)" />
<use xlink:href="#f0_2e" transform="matrix(12,0,0,12,229,829.3)" />
<use xlink:href="#f0_2l" transform="matrix(12,0,0,12,234.7,829.3)" />
<use xlink:href="#f0_2e" transform="matrix(12,0,0,12,245.8,829.3)" />
<use xlink:href="#f0_2b" transform="matrix(12,0,0,12,251.5,829.3)" />
<use xlink:href="#f0_2j" transform="matrix(12,0,0,12,260.3,829.3)" />
<use xlink:href="#f0_2g" transform="matrix(12,0,0,12,275.9,829.3)" />
<use xlink:href="#f0_2e" transform="matrix(12,0,0,12,280.7,829.3)" />
<use xlink:href="#f0_1x" transform="matrix(12,0,0,12,286.2,829.3)" />
<use xlink:href="#f0_2a" transform="matrix(12,0,0,12,293.9,829.3)" />
<use xlink:href="#f0_2f" transform="matrix(12,0,0,12,302.7,829.3)" />
<use xlink:href="#f0_22" transform="matrix(12,0,0,12,309.3,829.3)" />
<use xlink:href="#f0_2b" transform="matrix(12,0,0,12,315,829.3)" />
<use xlink:href="#f0_2e" transform="matrix(12,0,0,12,323.8,829.3)" />
<use xlink:href="#f0_29" transform="matrix(12,0,0,12,329.3,829.3)" />
<use xlink:href="#f0_1x" transform="matrix(12,0,0,12,343.2,829.3)" />
<use xlink:href="#f0_2g" transform="matrix(12,0,0,12,350.9,829.3)" />
<use xlink:href="#f0_25" transform="matrix(12,0,0,12,355.5,829.3)" />
<use xlink:href="#f0_2b" transform="matrix(12,0,0,12,360.2,829.3)" />
<use xlink:href="#f0_2a" transform="matrix(12,0,0,12,369,829.3)" />
<use xlink:href="#f0_2f" transform="matrix(12,0,0,12,377.7,829.3)" />
<use xlink:href="#f0_g" transform="matrix(12,0,0,12,384.4,829.3)" />
<use xlink:href="#f0_22" transform="matrix(12,0,0,12,391.6,829.3)" />
<use xlink:href="#f0_25" transform="matrix(12,0,0,12,397.3,829.3)" />
<use xlink:href="#f0_2a" transform="matrix(12,0,0,12,402,829.3)" />
<use xlink:href="#f0_20" transform="matrix(12,0,0,12,410.7,829.3)" />
<use xlink:href="#f0_2g" transform="matrix(12,0,0,12,422.6,829.3)" />
<use xlink:href="#f0_24" transform="matrix(12,0,0,12,427.2,829.3)" />
<use xlink:href="#f0_21" transform="matrix(12,0,0,12,436,829.3)" />
<use xlink:href="#f0_25" transform="matrix(12,0,0,12,446.6,829.3)" />
<use xlink:href="#f0_2a" transform="matrix(12,0,0,12,451.4,829.3)" />
<use xlink:href="#f0_2i" transform="matrix(12,0,0,12,460.2,829.3)" />
<use xlink:href="#f0_21" transform="matrix(12,0,0,12,468.8,829.3)" />
<use xlink:href="#f0_2e" transform="matrix(12,0,0,12,476.5,829.3)" />
<use xlink:href="#f0_2f" transform="matrix(12,0,0,12,482.2,829.3)" />
<use xlink:href="#f0_21" transform="matrix(12,0,0,12,488.8,829.3)" />
<use xlink:href="#f0_2b" transform="matrix(12,0,0,12,499.6,829.3)" />
<use xlink:href="#f0_22" transform="matrix(12,0,0,12,508.2,829.3)" />
<use xlink:href="#f0_2g" transform="matrix(12,0,0,12,516.8,829.3)" />
<use xlink:href="#f0_24" transform="matrix(12,0,0,12,521.4,829.3)" />
<use xlink:href="#f0_21" transform="matrix(12,0,0,12,530.2,829.3)" />
<use xlink:href="#f0_29" transform="matrix(12,0,0,12,540.8,829.3)" />
<use xlink:href="#f0_1x" transform="matrix(12,0,0,12,554.8,829.3)" />
<use xlink:href="#f0_2g" transform="matrix(12,0,0,12,562.5,829.3)" />
<use xlink:href="#f0_2e" transform="matrix(12,0,0,12,567.1,829.3)" />
<use xlink:href="#f0_25" transform="matrix(12,0,0,12,572.7,829.3)" />
<use xlink:href="#f0_2k" transform="matrix(12,0,0,12,577.5,829.3)" />
<use xlink:href="#f0_l" transform="matrix(12,0,0,12,635.8,801.1)" />
<use xlink:href="#f0_m" transform="matrix(12,0,0,12,672.6,801.1)" />
<use xlink:href="#f0_n" transform="matrix(12,0,0,12,708.9,801.1)" />
<use xlink:href="#f0_m" transform="matrix(12,0,0,12,636.2,828.6)" />
<use xlink:href="#f0_p" transform="matrix(12,0,0,12,672.5,828.6)" />
<use xlink:href="#f0_r" transform="matrix(12,0,0,12,708.6,828.6)" />
<use xlink:href="#f0_m" transform="matrix(12,0,0,12,641.1,856.3)" />
<use xlink:href="#f0_o" transform="matrix(12,0,0,12,677.6,856.3)" />
<use xlink:href="#f0_p" transform="matrix(12,0,0,12,714.1,856.3)" />
<use xlink:href="#f4_11" transform="matrix(12,0,0,12,593.6,828.6)" />
<use xlink:href="#f1_4r" transform="matrix(12,0,0,12,623.1,802.6)" />
<use xlink:href="#f1_57" transform="matrix(12,0,0,12,723.6,802.6)" />
<use xlink:href="#f1_4s" transform="matrix(12,0,0,12,623.1,820.2)" />
<use xlink:href="#f1_58" transform="matrix(12,0,0,12,723.6,820.2)" />
<use xlink:href="#f1_x" transform="matrix(12,0,0,12,608.7,828.6)" />
<use xlink:href="#f1_4s" transform="matrix(12,0,0,12,623.1,837.8)" />
<use xlink:href="#f1_58" transform="matrix(12,0,0,12,723.6,837.8)" />
<use xlink:href="#f1_4s" transform="matrix(12,0,0,12,623.1,855.4)" />
<use xlink:href="#f1_58" transform="matrix(12,0,0,12,723.6,855.4)" />
<use xlink:href="#f1_h" transform="matrix(12,0,0,12,631,856.3)" />
<use xlink:href="#f1_h" transform="matrix(12,0,0,12,667.5,856.3)" />
<use xlink:href="#f1_h" transform="matrix(12,0,0,12,704,856.3)" />
<use xlink:href="#f1_4t" transform="matrix(12,0,0,12,623.1,861.1)" />
<use xlink:href="#f1_59" transform="matrix(12,0,0,12,723.6,861.1)" />
<use xlink:href="#f0_1j" transform="matrix(12,0,0,12,64.9,941.4)" />
<use xlink:href="#f0_2b" transform="matrix(12,0,0,12,74.1,941.4)" />
<use xlink:href="#f0_28" transform="matrix(12,0,0,12,82.1,941.4)" />
<use xlink:href="#f0_u" transform="matrix(12,0,0,12,86.2,941.4)" />
<use xlink:href="#f0_l" transform="matrix(12.1,0,0,12.1,168.3,913.1)" />
<use xlink:href="#f0_m" transform="matrix(12.1,0,0,12.1,205.1,913.1)" />
<use xlink:href="#f0_n" transform="matrix(12.1,0,0,12.1,241.4,913.1)" />
<use xlink:href="#f0_m" transform="matrix(12.1,0,0,12.1,168.7,940.8)" />
<use xlink:href="#f0_p" transform="matrix(12.1,0,0,12.1,205,940.8)" />
<use xlink:href="#f0_r" transform="matrix(12.1,0,0,12.1,241.1,940.8)" />
<use xlink:href="#f0_m" transform="matrix(12.1,0,0,12.1,173.6,968.3)" />
<use xlink:href="#f0_o" transform="matrix(12.1,0,0,12.1,210.1,968.3)" />
<use xlink:href="#f0_p" transform="matrix(12.1,0,0,12.1,246.6,968.3)" />
<use xlink:href="#f4_11" transform="matrix(12.1,0,0,12.1,126.1,940.8)" />
<use xlink:href="#f1_4r" transform="matrix(12.1,0,0,12.1,155.6,914.6)" />
<use xlink:href="#f1_57" transform="matrix(12.1,0,0,12.1,256.1,914.6)" />
<use xlink:href="#f1_4s" transform="matrix(12.1,0,0,12.1,155.6,932.2)" />
<use xlink:href="#f1_58" transform="matrix(12.1,0,0,12.1,256.1,932.2)" />
<use xlink:href="#f1_x" transform="matrix(12.1,0,0,12.1,141.2,940.8)" />
<use xlink:href="#f1_4s" transform="matrix(12.1,0,0,12.1,155.6,949.8)" />
<use xlink:href="#f1_58" transform="matrix(12.1,0,0,12.1,256.1,949.8)" />
<use xlink:href="#f1_4s" transform="matrix(12.1,0,0,12.1,155.6,967.6)" />
<use xlink:href="#f1_58" transform="matrix(12.1,0,0,12.1,256.1,967.6)" />
<use xlink:href="#f1_h" transform="matrix(12.1,0,0,12.1,163.5,968.3)" />
<use xlink:href="#f1_h" transform="matrix(12.1,0,0,12.1,200,968.3)" />
<use xlink:href="#f1_h" transform="matrix(12.1,0,0,12.1,236.5,968.3)" />
<use xlink:href="#f1_4t" transform="matrix(12.1,0,0,12.1,155.6,973.3)" />
<use xlink:href="#f1_59" transform="matrix(12.1,0,0,12.1,256.1,973.3)" />
</g>
<path d="M125.4,1004.1V1026m15.9,-21.9V1026" class="g2_23" />
<g fill="#000000" >
<use xlink:href="#f1_c" transform="matrix(11.8,0,0,15.8,168.7,1021.1)" />
<use xlink:href="#f1_d" transform="matrix(11.8,0,0,15.8,239.6,1021.1)" />
<use xlink:href="#f1_c" transform="matrix(11.8,0,0,15.8,272.6,1021.1)" />
<use xlink:href="#f1_d" transform="matrix(11.8,0,0,15.8,342.3,1021.1)" />
<use xlink:href="#f1_c" transform="matrix(11.8,0,0,15.8,374.4,1021.1)" />
<use xlink:href="#f1_d" transform="matrix(11.8,0,0,15.8,434.5,1021.1)" />
<use xlink:href="#f0_l" transform="matrix(12.1,0,0,12.1,159.3,1019.6)" />
<use xlink:href="#f0_m" transform="matrix(12.1,0,0,12.1,186.3,1019.6)" />
<use xlink:href="#f0_p" transform="matrix(12.1,0,0,12.1,195.4,1019.6)" />
<use xlink:href="#f0_m" transform="matrix(12.1,0,0,12.1,220.7,1019.6)" />
<use xlink:href="#f0_s" transform="matrix(12.1,0,0,12.1,229.9,1019.6)" />
<use xlink:href="#f0_m" transform="matrix(12.1,0,0,12.1,261.8,1019.6)" />
<use xlink:href="#f0_l" transform="matrix(12.1,0,0,12.1,290.4,1019.6)" />
<use xlink:href="#f0_k" transform="matrix(12.1,0,0,12.1,299.6,1019.6)" />
<use xlink:href="#f0_l" transform="matrix(12.1,0,0,12.1,323,1019.6)" />
<use xlink:href="#f0_o" transform="matrix(12.1,0,0,12.1,332.2,1019.6)" />
<use xlink:href="#f0_n" transform="matrix(12.1,0,0,12.1,364.1,1019.6)" />
<use xlink:href="#f0_s" transform="matrix(12.1,0,0,12.1,392,1019.6)" />
<use xlink:href="#f0_l" transform="matrix(12.1,0,0,12.1,415.2,1019.6)" />
<use xlink:href="#f0_k" transform="matrix(12.1,0,0,12.1,424.4,1019.6)" />
<use xlink:href="#f4_11" transform="matrix(12.1,0,0,12.1,129.1,1019.6)" />
<use xlink:href="#f1_x" transform="matrix(12.1,0,0,12.1,146.8,1019.6)" />
<use xlink:href="#f1_h" transform="matrix(12.1,0,0,12.1,176.4,1019.6)" />
<use xlink:href="#f1_f" transform="matrix(12.1,0,0,12.1,207.2,1019.6)" />
<use xlink:href="#f1_h" transform="matrix(12.1,0,0,12.1,248.6,1019.6)" />
<use xlink:href="#f1_h" transform="matrix(12.1,0,0,12.1,280.3,1019.6)" />
<use xlink:href="#f1_f" transform="matrix(12.1,0,0,12.1,311.4,1019.6)" />
<use xlink:href="#f1_f" transform="matrix(12.1,0,0,12.1,351.2,1019.6)" />
<use xlink:href="#f1_h" transform="matrix(12.1,0,0,12.1,382,1019.6)" />
<use xlink:href="#f1_f" transform="matrix(12.1,0,0,12.1,403.6,1019.6)" />
<use xlink:href="#f1_c" transform="matrix(11.8,0,0,15.9,173.8,1066.9)" />
<use xlink:href="#f1_d" transform="matrix(11.8,0,0,15.9,191.6,1066.9)" />
<use xlink:href="#f1_c" transform="matrix(11.8,0,0,15.9,223.7,1066.9)" />
<use xlink:href="#f1_d" transform="matrix(11.8,0,0,15.9,241.3,1066.9)" />
<use xlink:href="#f0_n" transform="matrix(12.2,0,0,12.2,138.4,1065.7)" />
<use xlink:href="#f0_m" transform="matrix(12.2,0,0,12.2,163,1065.7)" />
<use xlink:href="#f0_o" transform="matrix(12.2,0,0,12.2,181.5,1065.7)" />
<use xlink:href="#f0_n" transform="matrix(12.2,0,0,12.2,213.4,1065.7)" />
<use xlink:href="#f0_m" transform="matrix(12.2,0,0,12.2,231.1,1065.7)" />
<use xlink:href="#f0_t" transform="matrix(12.2,0,0,12.2,265.1,1065.7)" />
<use xlink:href="#f0_s" transform="matrix(12.2,0,0,12.2,289.2,1065.7)" />
<use xlink:href="#f0_l" transform="matrix(12.2,0,0,12.2,314.5,1065.7)" />
<use xlink:href="#f0_k" transform="matrix(12.2,0,0,12.2,340.5,1065.7)" />
<use xlink:href="#f1_x" transform="matrix(12.2,0,0,12.2,124.7,1065.7)" />
<use xlink:href="#f1_h" transform="matrix(12.2,0,0,12.2,149.8,1065.7)" />
<use xlink:href="#f1_f" transform="matrix(12.2,0,0,12.2,200.4,1065.7)" />
<use xlink:href="#f1_x" transform="matrix(12.2,0,0,12.2,251.3,1065.7)" />
<use xlink:href="#f1_h" transform="matrix(12.2,0,0,12.2,277,1065.7)" />
<use xlink:href="#f1_x" transform="matrix(12.2,0,0,12.2,302.3,1065.7)" />
<use xlink:href="#f1_3f" transform="matrix(12.2,0,0,12.2,326.3,1065.7)" />
<use xlink:href="#f0_l" transform="matrix(6.9,0,0,6.9,142.8,1102.5)" />
<use xlink:href="#f4_11" transform="matrix(12,0,0,12,126.1,1110.6)" />
<use xlink:href="#f1_h" transform="matrix(6.9,0,0,6.9,137.1,1102.5)" />
<use xlink:href="#f0_21" transform="matrix(12,0,0,12,153.3,1106)" />
<use xlink:href="#f0_2k" transform="matrix(12,0,0,12,161,1106)" />
<use xlink:href="#f0_25" transform="matrix(12,0,0,12,170,1106)" />
<use xlink:href="#f0_2f" transform="matrix(12,0,0,12,174.7,1106)" />
<use xlink:href="#f0_2g" transform="matrix(12,0,0,12,181.5,1106)" />
<use xlink:href="#f0_2f" transform="matrix(12,0,0,12,186.3,1106)" />
<use xlink:href="#f0_i" transform="matrix(12,0,0,12,193.1,1106)" />
<use xlink:href="#f0_l" transform="matrix(6.9,0,0,6.9,165,1138.6)" />
<use xlink:href="#f4_11" transform="matrix(12,0,0,12,126.1,1146.7)" />
<use xlink:href="#f4_19" transform="matrix(12,0,0,12,190.5,1146.7)" />
</g>
<g clip-path="url(#c0_23)">
<g fill="#000000" >
<use xlink:href="#f4_11" transform="matrix(13,0,0,13,147.2,1146.7)" />
</g>
</g>
<g fill="#000000" >
<use xlink:href="#f1_h" transform="matrix(6.9,0,0,6.9,159.3,1138.6)" />
<use xlink:href="#f1_49" transform="matrix(12,0,0,12,139,1146.7)" />
<use xlink:href="#f1_x" transform="matrix(12,0,0,12,175.6,1146.7)" />
<use xlink:href="#f5_m" transform="matrix(8,0,0,8,785.4,1264.3)" />
<use xlink:href="#f5_n" transform="matrix(8,0,0,8,792.2,1264.3)" />
</g>
<defs>
<path d="M197,0V27c0,0,71,2,92,13c0,0,21,10,29,29c0,0,9,18,9,109V725c0,0,0,110,-8,141c0,0,-5,24,-19,35c0,0,-14,11,-33,11c0,0,-28,0,-77,-23l-11,23l246,121h25V178c0,0,0,-85,7,-106c0,0,7,-21,29,-32c0,0,23,-11,91,-13V0Z" 
id="f0_l"
transform="scale(0.001,-0.001)" />

<path d="M33,0V27c0,0,264,241,371,393c0,0,108,152,108,278c0,0,0,96,-59,158c0,0,-59,62,-141,62c0,0,-75,0,-134,-43c0,0,-59,-44,-88,-128H63c0,0,18,138,95,212c0,0,77,74,193,74c0,0,123,0,205,-80c0,0,83,-79,83,-186c0,0,0,-77,-36,-154c0,0,-55,-121,-179,-256C424,357,238,154,191,112H455c0,0,81,0,114,6c0,0,32,6,58,25c0,0,27,18,46,52h27L630,0Z" 
id="f0_m"
transform="scale(0.001,-0.001)" />

<path d="M911,-16L244,799V175c0,0,0,-93,21,-116c0,0,28,-32,86,-32h36V0H36V27H71c0,0,65,0,92,39c0,0,16,24,16,109V879c0,0,-44,52,-67,68c0,0,-23,17,-67,31c0,0,-21,7,-64,7v27H253L873,253V837c0,0,0,93,-21,116c0,0,-28,32,-87,32H730v27h351V985h-36c0,0,-64,0,-91,-39c0,0,-16,-24,-16,-109V-16Z" 
id="f0_1e"
transform="scale(0.001,-0.001)" />

<path d="M406,32c0,0,72,0,119,60c0,0,47,59,47,205c0,0,0,181,-78,286c0,0,-53,71,-135,71c0,0,-40,0,-79,-23c0,0,-40,-24,-65,-83c0,0,-24,-58,-24,-151c0,0,0,-149,59,-257c0,0,59,-108,156,-108ZM374,-20c0,0,-154,0,-245,122c0,0,-77,104,-77,233c0,0,0,94,46,187c0,0,47,92,123,137c0,0,76,44,161,44c0,0,155,0,249,-118c0,0,80,-100,80,-231c0,0,0,-91,-44,-185C667,169,623,75,546,27c0,0,-77,-47,-172,-47Z" 
id="f0_2b"
transform="scale(0.001,-0.001)" />

<path d="M336,-20L117,554c0,0,-21,55,-42,74c0,0,-21,19,-66,29v26H296V657c0,0,-40,-3,-52,-14c0,0,-13,-12,-13,-33c0,0,0,-23,13,-56L390,162L537,481L498,581c0,0,-18,46,-47,63c0,0,-17,11,-61,13v26H716V657c0,0,-54,-2,-77,-20c0,0,-15,-12,-15,-39c0,0,0,-15,6,-30L785,177L929,554c0,0,15,40,15,65c0,0,0,14,-15,25c0,0,-14,12,-57,13v26h216V657c0,0,-65,-10,-95,-89L764,-20H733L563,415L363,-20Z" 
id="f0_2j"
transform="scale(0.001,-0.001)" />

<path d="M82,-253v33c0,0,77,25,119,78c0,0,42,54,42,114c0,0,0,14,-7,23c0,0,-5,6,-11,6c0,0,-8,0,-35,-14c0,0,-14,-7,-28,-7c0,0,-37,0,-58,21C104,1,82,23,82,61c0,0,0,36,28,62c0,0,28,27,68,27c0,0,49,0,88,-43c0,0,38,-43,38,-113c0,0,0,-77,-53,-143c0,0,-53,-66,-169,-104Z" 
id="f0_g"
transform="scale(0.001,-0.001)" />

<path d="M678,393L506,802L330,393ZM11,0V27c0,0,63,12,82,30c0,0,38,35,84,145l356,832h27L912,193c0,0,43,-101,77,-132c0,0,35,-30,97,-34V0H687V27c0,0,60,3,82,21c0,0,21,17,21,41c0,0,0,33,-30,104L700,338H307L239,179c0,0,-26,-59,-26,-88c0,0,0,-23,22,-41c0,0,22,-17,95,-23V0Z" 
id="f0_11"
transform="scale(0.001,-0.001)" />

<path d="M379,29c0,0,41,0,84,37c0,0,43,36,65,121c0,0,34,128,34,362c0,0,0,173,-35,288c0,0,-27,86,-69,122c0,0,-31,25,-74,25c0,0,-51,0,-90,-46c0,0,-54,-62,-73,-195c0,0,-20,-132,-20,-261c0,0,0,-209,52,-341c0,0,42,-112,126,-112Zm-2,-46c0,0,-145,0,-241,170c0,0,-81,144,-81,347c0,0,0,173,52,298c0,0,52,125,139,186c0,0,67,49,139,49c0,0,116,0,208,-119c0,0,116,-147,116,-398c0,0,0,-176,-51,-299C658,217,608,94,529,38c0,0,-79,-55,-152,-55Z" 
id="f0_k"
transform="scale(0.001,-0.001)" />

<path d="M0,214v74H784V214ZM0,494v72H784V494Z" 
id="f1_x"
transform="scale(0.001,-0.001)" />

<path d="M238,-17c0,0,-103,0,-139,25C99,8,62,33,62,62c0,0,0,22,17,38c0,0,18,16,42,16c0,0,19,0,38,-6c0,0,13,-3,58,-27c0,0,45,-23,62,-28c0,0,27,-8,59,-8c0,0,76,0,132,59c0,0,56,59,56,140c0,0,0,59,-26,115c0,0,-19,41,-42,63c0,0,-32,30,-88,54c0,0,-56,25,-114,25H232v22c0,0,59,8,118,42c0,0,59,35,86,85c0,0,27,49,27,108c0,0,0,76,-48,124c0,0,-48,47,-120,47c0,0,-116,0,-193,-124L77,819c0,0,44,102,110,158c0,0,66,56,164,56c0,0,122,0,187,-80c0,0,49,-58,49,-126c0,0,0,-110,-139,-228c0,0,93,-36,141,-104c0,0,48,-68,48,-160c0,0,0,-131,-84,-227C553,108,444,-17,238,-17Z" 
id="f0_n"
transform="scale(0.001,-0.001)" />

<path d="M379,437c0,0,34,0,81,16c0,0,47,17,83,47c0,0,14,97,14,155c0,0,0,72,-25,156c0,0,-25,83,-70,128c0,0,-45,45,-103,45c0,0,-66,0,-116,-60c0,0,-50,-59,-50,-177c0,0,0,-157,66,-246c0,0,49,-64,120,-64ZM80,-20V7c0,0,97,1,181,45c0,0,83,44,161,153c0,0,78,109,109,240c0,0,-117,-75,-212,-75c0,0,-107,0,-183,82c0,0,-76,82,-76,219c0,0,0,132,76,236c0,0,92,126,240,126c0,0,124,0,213,-103c0,0,109,-128,109,-315c0,0,0,-169,-82,-314C616,301,533,155,385,59c0,0,-120,-79,-262,-79Z" 
id="f0_t"
transform="scale(0.001,-0.001)" />

<path d="M247,-17c0,0,-91,0,-132,30c0,0,-42,31,-42,68c0,0,0,21,17,37c0,0,18,16,44,17c0,0,19,0,34,-6c0,0,14,-7,49,-31c0,0,56,-39,113,-39c0,0,88,0,154,66c0,0,66,66,66,161c0,0,0,92,-59,171c0,0,-59,80,-163,123c0,0,-81,34,-221,39l194,393H663L605,885H301L234,750c0,0,198,-29,313,-147c0,0,100,-102,100,-239c0,0,0,-80,-33,-148c0,0,-32,-68,-81,-116c0,0,-50,-47,-110,-77c0,0,-86,-40,-176,-40Z" 
id="f0_p"
transform="scale(0.001,-0.001)" />

<path d="M0,356v74H784V356Z" 
id="f1_h"
transform="scale(0.001,-0.001)" />

<path d="M412,-328c0,0,-195,96,-303,284C109,-44,0,142,0,365c0,0,0,232,114,422c0,0,114,191,298,273v-31c0,0,-92,-51,-151,-139c0,0,-59,-88,-88,-223c0,0,-29,-136,-29,-282c0,0,0,-167,27,-301c0,0,26,-133,82,-221c0,0,55,-89,159,-159v-32Z" 
id="f1_c"
transform="scale(0.001,-0.001)" />

<path d="M34,-328v32c0,0,92,50,151,138c0,0,59,88,88,222c0,0,29,135,29,283c0,0,0,165,-27,300c0,0,-26,134,-82,222c0,0,-56,89,-159,160v31c0,0,194,-96,303,-284c0,0,108,-187,108,-410c0,0,0,-232,-114,-422c0,0,-114,-191,-297,-272Z" 
id="f1_d"
transform="scale(0.001,-0.001)" />

<path d="M286,72c0,0,57,0,149,75V407c0,0,-113,-45,-145,-64c0,0,-59,-32,-85,-68c0,0,-25,-36,-25,-78c0,0,0,-54,32,-89c0,0,32,-36,74,-36ZM217,-13c0,0,-71,0,-116,48c0,0,-46,48,-46,127c0,0,0,50,22,87c0,0,31,50,106,95c0,0,76,45,252,109v26c0,0,0,102,-32,140c0,0,-32,38,-94,38c0,0,-47,0,-74,-25c0,0,-28,-25,-28,-58l1,-43c0,0,0,-34,-17,-53c0,0,-18,-18,-47,-18c0,0,-28,0,-45,19c0,0,-18,19,-18,53c0,0,0,64,66,117c0,0,65,54,184,54c0,0,91,0,149,-31c0,0,44,-23,65,-72c0,0,13,-32,13,-131V238c0,0,0,-98,4,-120c0,0,4,-22,12,-29c0,0,9,-8,20,-8c0,0,12,0,21,5c0,0,16,10,61,55V99C676,99,592,-12,516,-12c0,0,-37,0,-58,24c0,0,-22,26,-23,86C435,98,330,17,303,5c0,0,-40,-18,-86,-18Z" 
id="f0_1x"
transform="scale(0.001,-0.001)" />

<path d="M399,62c0,0,68,0,131,68V481c0,0,-5,51,-27,93c0,0,-22,42,-59,63c0,0,-37,21,-72,21c0,0,-65,0,-117,-59c0,0,-67,-77,-67,-226c0,0,0,-151,65,-231c0,0,66,-80,146,-80ZM330,-20c0,0,-112,0,-196,93c0,0,-83,94,-83,240c0,0,0,147,92,269c0,0,93,122,238,122c0,0,90,0,149,-58V773c0,0,0,117,-6,144c0,0,-5,27,-17,37c0,0,-12,9,-30,9c0,0,-20,0,-52,-12l-9,27l204,83h33V270c0,0,0,-120,6,-146c0,0,5,-27,18,-37c0,0,12,-11,28,-11c0,0,21,0,54,13l9,-26L564,-20H530V78C530,78,480,25,432,2c0,0,-47,-22,-102,-22Z" 
id="f0_20"
transform="scale(0.001,-0.001)" />

<path d="M17,-328c0,0,-67,0,-100,24c0,0,-33,25,-33,51c0,0,0,26,18,45c0,0,18,18,43,18c0,0,19,0,40,-9c0,0,12,-6,48,-38c0,0,37,-33,61,-33c0,0,18,0,35,14c0,0,17,14,25,46c0,0,8,33,8,141V416c0,0,0,113,-6,145c0,0,-6,25,-17,34c0,0,-11,10,-31,10c0,0,-21,0,-51,-11L47,620l207,83h32V16c0,0,0,-175,-74,-260c0,0,-75,-84,-195,-84ZM223,908c0,0,-32,0,-54,23c0,0,-22,22,-22,53c0,0,0,32,22,55c0,0,22,22,54,22c0,0,32,0,54,-22c0,0,22,-23,22,-55c0,0,0,-31,-22,-53c0,0,-22,-23,-54,-23Z" 
id="f0_26"
transform="scale(0.001,-0.001)" />

<path d="M191,-20c0,0,-34,0,-58,24c0,0,-24,24,-24,58c0,0,0,35,24,59c0,0,24,24,58,24c0,0,35,0,59,-24c0,0,24,-25,24,-59c0,0,0,-34,-24,-58c0,0,-25,-24,-59,-24Z" 
id="f0_i"
transform="scale(0.001,-0.001)" />

<path d="M0,-123V1415H525v-72H72V-123Z" 
id="f1_4r"
transform="scale(0.001,-0.001)" />

<path d="M478,-123V1343H26v72H550V-123Z" 
id="f1_57"
transform="scale(0.001,-0.001)" />

<path d="M0,-123V1415H72V-123Z" 
id="f1_4s"
transform="scale(0.001,-0.001)" />

<path d="M0,-123V1415H72V-123Z" 
id="f1_58"
transform="scale(0.001,-0.001)" />

<path d="M83,0C83,0,48,0,24,24C24,24,0,49,0,83c0,0,0,34,24,58c0,0,24,24,59,24c0,0,34,0,58,-24c0,0,24,-24,24,-58c0,0,0,-34,-24,-59C141,24,117,0,83,0ZM695,0c0,0,-34,0,-58,24c0,0,-25,25,-25,59c0,0,0,34,25,58c0,0,24,24,58,24c0,0,34,0,58,-24c0,0,24,-24,24,-58c0,0,0,-34,-24,-59C753,24,729,0,695,0ZM388,594c0,0,-34,0,-59,23c0,0,-24,24,-24,59c0,0,0,34,24,58c0,0,25,25,59,25c0,0,34,0,58,-25c0,0,24,-24,24,-58c0,0,0,-35,-24,-59c0,0,-24,-23,-58,-23Z" 
id="f1_1s"
transform="scale(0.001,-0.001)" />

<path d="M0,-123V1415H72V-51H525v-72Z" 
id="f1_4t"
transform="scale(0.001,-0.001)" />

<path d="M26,-123v72H478V1415h72V-123Z" 
id="f1_59"
transform="scale(0.001,-0.001)" />

<path d="M255,-10c0,0,-35,0,-68,18c0,0,-32,19,-48,55c0,0,-16,35,-16,109V632H15v24c0,0,41,16,84,56c0,0,43,39,77,92c0,0,17,29,48,104h23V683H407V632H247V188c0,0,0,-66,19,-90c0,0,19,-23,49,-23c0,0,24,0,47,16c0,0,23,15,36,45h29c0,0,-26,-73,-74,-110c0,0,-47,-36,-98,-36Z" 
id="f0_2g"
transform="scale(0.001,-0.001)" />

<path d="M20,0V26c0,0,45,0,71,15c0,0,15,7,24,28c0,0,9,21,9,85V773c0,0,0,117,-5,144c0,0,-6,27,-17,37c0,0,-12,9,-31,9c0,0,-16,0,-51,-12L10,978l204,83h34V561c0,0,83,91,131,116c0,0,49,26,97,26c0,0,58,0,100,-32c0,0,42,-32,62,-101c0,0,14,-47,14,-174V154c0,0,0,-65,11,-89c0,0,7,-18,25,-28c0,0,18,-11,66,-11V0H418V26h15c0,0,48,0,67,15c0,0,18,15,26,43c0,0,2,12,2,70V396c0,0,0,112,-12,147c0,0,-11,35,-36,53c0,0,-26,17,-61,17c0,0,-37,0,-76,-19c0,0,-40,-20,-95,-79V154c0,0,0,-70,8,-87c0,0,8,-17,29,-29c0,0,22,-12,74,-12V0Z" 
id="f0_24"
transform="scale(0.001,-0.001)" />

<path d="M479,469c0,0,-4,66,-16,93c0,0,-18,42,-55,65c0,0,-37,24,-78,24c0,0,-62,0,-111,-48c0,0,-48,-48,-57,-134ZM355,-20c0,0,-123,0,-211,95c0,0,-87,96,-87,258c0,0,0,175,90,273c0,0,89,98,225,98c0,0,115,0,189,-76c0,0,74,-75,74,-202H162c0,0,0,-152,74,-239c0,0,75,-86,175,-86c0,0,67,0,117,36c0,0,50,37,83,127l24,-15c0,0,-16,-102,-91,-186c0,0,-76,-83,-189,-83Z" 
id="f0_21"
transform="scale(0.001,-0.001)" />

<path d="M411,-239c0,0,134,0,198,48c0,0,64,47,64,100c0,0,0,39,-38,55c0,0,-39,16,-154,19c0,0,-167,5,-258,17c0,0,-35,-37,-53,-70c0,0,-17,-32,-17,-60c0,0,0,-36,43,-62c0,0,74,-47,215,-47ZM380,257c0,0,56,0,93,43c0,0,36,42,36,133c0,0,0,118,-51,185c0,0,-38,49,-98,49c0,0,-55,0,-92,-44c0,0,-37,-44,-37,-135c0,0,0,-117,50,-182c0,0,39,-49,99,-49ZM345,-328c0,0,-144,0,-243,64c0,0,-56,38,-56,78c0,0,0,18,8,36c0,0,13,27,52,76c0,0,5,7,76,80c0,0,-39,23,-55,41c0,0,-16,19,-16,42c0,0,0,26,22,61c0,0,21,35,98,100c0,0,-63,30,-97,85c0,0,-33,55,-33,121c0,0,0,101,76,174c0,0,77,73,196,73c0,0,98,0,170,-48H688c0,0,32,0,37,-2c0,0,6,-2,8,-6c0,0,4,-7,4,-24c0,0,0,-20,-4,-27c0,0,-2,-4,-7,-6c0,0,-6,-2,-38,-2H599c0,0,41,-54,41,-137c0,0,0,-96,-73,-163c0,0,-73,-68,-196,-68c0,0,-51,0,-104,15c0,0,-33,-28,-44,-49c0,0,-12,-22,-12,-37c0,0,0,-12,13,-24c0,0,12,-12,48,-17c0,0,21,-4,104,-6c0,0,154,-4,199,-11c0,0,70,-10,111,-51c0,0,42,-41,42,-102c0,0,0,-84,-79,-158c0,0,-117,-108,-304,-108Z" 
id="f0_23"
transform="scale(0.001,-0.001)" />

<path d="M55,0V26c0,0,50,0,67,10c0,0,17,10,27,32c0,0,10,23,10,86V418c0,0,0,111,-6,144c0,0,-6,24,-17,33c0,0,-11,10,-30,10c0,0,-21,0,-51,-11L45,620l206,83h33V154c0,0,0,-64,9,-85c0,0,9,-22,27,-32c0,0,19,-11,67,-11V0ZM222,909c0,0,-32,0,-54,23c0,0,-22,22,-22,53c0,0,0,32,22,54c0,0,22,22,54,22c0,0,31,0,53,-22c0,0,22,-22,22,-54c0,0,0,-31,-22,-53c0,0,-22,-23,-53,-23Z" 
id="f0_25"
transform="scale(0.001,-0.001)" />

<path d="M376,-20L133,556c0,0,-17,41,-31,58c0,0,-15,18,-39,30c0,0,-12,7,-50,13v26H335V657H314c0,0,-29,0,-44,-14c0,0,-16,-14,-15,-38c0,0,-1,-26,15,-62L429,165L588,557c0,0,17,42,17,64c0,0,0,10,-6,17c0,0,-8,11,-21,15c0,0,-13,4,-52,4v26H750V657c0,0,-39,-3,-54,-16c0,0,-26,-23,-47,-76L409,-20Z" 
id="f0_2i"
transform="scale(0.001,-0.001)" />

<path d="M21,0V26H35c0,0,53,0,71,27c0,0,18,27,18,101V408c0,0,0,123,-5,150c0,0,-6,27,-17,37c0,0,-12,10,-31,10c0,0,-21,0,-50,-11L10,620l206,83h32V558c0,0,120,145,229,145c0,0,56,0,96,-28c0,0,40,-28,64,-92c0,0,16,-45,16,-137V154c0,0,0,-65,11,-88c0,0,8,-19,26,-29c0,0,18,-11,68,-11V0H419V26h14c0,0,47,0,66,15c0,0,20,15,27,43c0,0,3,11,3,70V434c0,0,0,93,-24,135c0,0,-24,42,-81,42c0,0,-88,0,-176,-97V154c0,0,0,-69,9,-86c0,0,10,-21,28,-31c0,0,19,-11,75,-11V0Z" 
id="f0_2a"
transform="scale(0.001,-0.001)" />

<path d="M312,-20c0,0,-62,0,-143,22c0,0,-25,8,-40,8c0,0,-18,0,-27,-19H77V234h25c0,0,21,-105,80,-158c0,0,59,-53,132,-53c0,0,51,0,84,31c0,0,32,30,32,72c0,0,0,52,-36,87c0,0,-36,35,-144,88c0,0,-109,54,-142,97c0,0,-34,43,-34,107c0,0,0,85,58,141c0,0,58,57,150,57c0,0,40,0,97,-17c0,0,38,-11,51,-11c0,0,12,0,19,5c0,0,7,5,15,23h25V470H464c0,0,-28,110,-72,149c0,0,-45,40,-113,40c0,0,-53,0,-85,-28c0,0,-32,-27,-32,-61c0,0,0,-41,24,-71c0,0,23,-31,94,-65L389,381c0,0,152,-74,152,-194c0,0,0,-94,-71,-151c0,0,-70,-56,-158,-56Z" 
id="f0_2f"
transform="scale(0.001,-0.001)" />

<path d="M145,-328c0,0,-44,0,-73,25c0,0,-28,25,-28,58c0,0,0,31,21,50c0,0,20,19,56,19c0,0,25,0,67,-16c0,0,30,-11,38,-11c0,0,22,0,49,23c0,0,26,23,53,89L376,28L131,542c0,0,-11,24,-36,58c0,0,-19,27,-30,36c0,0,-18,12,-56,21v26H328V657H312c0,0,-33,0,-50,-15c0,0,-17,-14,-17,-36c0,0,0,-30,25,-81L437,179L589,557c0,0,12,31,12,62c0,0,0,13,-5,20c0,0,-6,8,-19,13c0,0,-12,5,-44,5v26H754V657c0,0,-27,-3,-42,-12c0,0,-15,-9,-33,-34c0,0,-7,-10,-25,-58L376,-128c0,0,-40,-99,-105,-150c0,0,-66,-50,-126,-50Z" 
id="f0_2l"
transform="scale(0.001,-0.001)" />

<path d="M23,0V26c0,0,47,0,66,10c0,0,19,11,28,33c0,0,10,22,10,85V416c0,0,0,112,-7,145c0,0,-5,25,-16,34c0,0,-11,10,-31,10c0,0,-21,0,-50,-11L12,620l207,83h32V557c0,0,75,75,88,86c0,0,34,29,72,44c0,0,39,16,77,16c0,0,64,0,110,-37c0,0,47,-38,62,-109c0,0,77,90,130,118c0,0,53,28,109,28c0,0,54,0,96,-28c0,0,42,-28,67,-91c0,0,16,-43,16,-136V154c0,0,0,-64,10,-88c0,0,8,-16,28,-28c0,0,20,-12,65,-12V0H844V26h14c0,0,44,0,69,18c0,0,17,12,24,38c0,0,3,13,3,72V448c0,0,0,83,-20,117c0,0,-29,48,-93,48c0,0,-39,0,-79,-20c0,0,-40,-19,-97,-73l-1,-8l2,-32V154c0,0,0,-70,8,-87c0,0,7,-17,29,-29c0,0,21,-12,73,-12V0H431V26c0,0,57,0,78,14c0,0,21,13,29,40c0,0,4,13,4,74V448c0,0,0,83,-25,120c0,0,-33,48,-91,48c0,0,-40,0,-80,-22c0,0,-61,-33,-95,-74V154c0,0,0,-67,10,-87c0,0,9,-20,27,-30c0,0,18,-11,74,-11V0Z" 
id="f0_29"
transform="scale(0.001,-0.001)" />

<path d="M63,0V26H93c0,0,30,0,54,15c0,0,25,15,34,41c0,0,10,25,10,99V630H58v53H191v45c0,0,0,102,33,173c0,0,32,71,100,114c0,0,68,44,152,44c0,0,79,0,145,-51c0,0,43,-33,43,-75c0,0,0,-22,-19,-42c0,0,-20,-20,-42,-20c0,0,-17,0,-36,12c0,0,-19,13,-47,53c0,0,-28,41,-51,55c0,0,-23,14,-51,14c0,0,-35,0,-58,-18c0,0,-24,-18,-35,-57c0,0,-10,-38,-10,-197V683H491V630H315V181c0,0,0,-96,21,-122c0,0,27,-33,73,-33h62V0Z" 
id="f0_22"
transform="scale(0.001,-0.001)" />

<path d="M384,85c0,0,44,0,78,19c0,0,35,19,68,62V487c0,0,0,55,-15,87c0,0,-14,33,-51,55c0,0,-38,22,-85,22c0,0,-84,0,-143,-71c0,0,-60,-70,-60,-214c0,0,0,-138,61,-209c0,0,61,-72,147,-72Zm35,-411v27h15c0,0,41,0,63,12c0,0,15,8,24,30c0,0,9,21,9,83V119C530,119,462,39,411,9c0,0,-50,-29,-105,-29c0,0,-99,0,-177,90c0,0,-78,90,-78,241c0,0,0,174,103,283c0,0,103,109,248,109c0,0,43,0,78,-12c0,0,36,-12,65,-35c0,0,43,20,83,47h25V-174c0,0,0,-66,9,-85c0,0,9,-19,28,-30c0,0,19,-10,74,-10v-27Z" 
id="f0_2d"
transform="scale(0.001,-0.001)" />

<path d="M292,-20c0,0,-57,0,-100,33c0,0,-42,33,-58,85c0,0,-17,52,-17,148V551c0,0,0,49,-10,68c0,0,-11,18,-31,29c0,0,-19,9,-68,9c-2,0,-4,0,-6,0v26H242V226c0,0,0,-95,33,-125c0,0,33,-30,80,-30c0,0,32,0,73,21c0,0,40,20,96,76V555c0,0,0,59,-21,80c0,0,-22,21,-89,22v26H647V269c0,0,0,-119,6,-145c0,0,6,-27,18,-37c0,0,12,-11,29,-11c0,0,23,0,52,13L763,63L558,-20H524V124C524,124,436,29,390,4c0,0,-47,-24,-98,-24Z" 
id="f0_2h"
transform="scale(0.001,-0.001)" />

<path d="M342,-20c0,0,-116,0,-203,97c0,0,-86,98,-86,264c0,0,0,161,96,261c0,0,95,101,230,101c0,0,100,0,165,-53c0,0,65,-54,65,-111c0,0,0,-29,-18,-46c0,0,-18,-18,-51,-18c0,0,-44,0,-66,29c0,0,-13,15,-17,59c0,0,-4,45,-30,68c0,0,-26,22,-73,22c0,0,-74,0,-120,-55c0,0,-60,-73,-60,-193c0,0,0,-122,60,-216c0,0,60,-93,162,-93c0,0,73,0,131,49c0,0,41,35,80,126l22,-10C629,261,601,125,521,52c0,0,-81,-72,-179,-72Z" 
id="f0_1z"
transform="scale(0.001,-0.001)" />

<path d="M397,34c0,0,67,0,126,75c0,0,58,74,58,216c0,0,0,131,-58,201c0,0,-59,70,-133,70c0,0,-39,0,-79,-20c0,0,-29,-14,-75,-59V109c0,0,37,-37,78,-56c0,0,40,-19,83,-19ZM358,-20c0,0,-59,0,-121,21c0,0,-61,22,-126,65V773c0,0,0,117,-5,144c0,0,-6,27,-18,37c0,0,-12,9,-29,9c0,0,-21,0,-53,-12l-9,27l205,83h34V564c0,0,98,139,213,139c0,0,105,0,183,-90c0,0,78,-90,78,-245c0,0,0,-182,-121,-293c0,0,-103,-95,-231,-95Z" 
id="f0_1y"
transform="scale(0.001,-0.001)" />

<path d="M17,0V26c0,0,52,0,77,17c0,0,19,12,26,38c0,0,4,13,4,73V419c0,0,0,119,-5,142c0,0,-4,23,-17,33c0,0,-13,11,-33,11c0,0,-23,0,-52,-11l-7,26l207,83h31V549c0,0,86,154,176,154c0,0,41,0,68,-25c0,0,27,-25,27,-58c0,0,0,-29,-20,-49c0,0,-19,-20,-46,-20c0,0,-26,0,-58,25c0,0,-33,26,-48,26c0,0,-14,0,-29,-15c0,0,-34,-30,-70,-101V159c0,0,0,-56,15,-85c0,0,9,-20,34,-34c0,0,24,-14,71,-14V0Z" 
id="f0_2e"
transform="scale(0.001,-0.001)" />

<path d="M12,0V27c0,0,38,4,66,16c0,0,46,19,88,52c0,0,41,33,95,101L496,496L300,789c0,0,-81,119,-138,156c0,0,-57,37,-130,40v27H499V985c0,0,-59,-3,-81,-20c0,0,-22,-17,-22,-38c0,0,0,-28,35,-81L588,613L767,841c0,0,31,41,38,56c0,0,7,15,7,31c0,0,0,15,-9,27c0,0,-11,16,-28,22c0,0,-17,7,-71,8v27h359V985c0,0,-42,-3,-69,-14c0,0,-40,-17,-74,-46c0,0,-34,-29,-95,-108L624,560L842,236c0,0,90,-134,134,-169c0,0,43,-36,111,-40V0H652V27c0,0,43,1,64,9c0,0,16,7,26,21c0,0,10,14,10,28c0,0,0,17,-7,35c0,0,-5,12,-41,66L532,443L320,173c0,0,-33,-44,-40,-58c0,0,-7,-15,-7,-30c0,0,0,-24,21,-40c0,0,20,-15,76,-18V0Z" 
id="f0_1o"
transform="scale(0.001,-0.001)" />

<path d="M485,53c0,0,135,0,206,61c0,0,71,60,71,150c0,0,0,59,-32,114c0,0,-33,54,-105,85c0,0,-72,32,-179,32c0,0,-46,0,-79,-2c0,0,-33,-1,-53,-5V73c0,0,86,-20,171,-20ZM455,547c0,0,109,0,164,23c0,0,55,24,84,72c0,0,29,49,29,106c0,0,0,89,-72,151c0,0,-73,63,-212,63c0,0,-74,0,-134,-16V557c0,0,27,-5,63,-8c0,0,35,-2,78,-2ZM24,0V27H63c0,0,63,0,91,41c0,0,17,26,17,111V833c0,0,0,94,-22,119c0,0,-29,33,-86,33H24v27H462c0,0,122,0,196,-18c0,0,112,-27,171,-95c0,0,59,-68,59,-157c0,0,0,-76,-46,-136c0,0,-47,-60,-137,-89c0,0,105,-23,157,-72c0,0,73,-69,73,-168c0,0,0,-75,-48,-145C887,132,839,63,756,32C756,32,673,0,502,0Z" 
id="f0_12"
transform="scale(0.001,-0.001)" />

<path d="M25,0V26c0,0,27,4,47,19c0,0,29,22,96,111L311,346L182,535c0,0,-55,81,-86,102c0,0,-30,20,-75,20v26H341V657c0,0,-30,0,-42,-10c0,0,-13,-11,-13,-28c0,0,0,-19,27,-56c0,0,8,-12,25,-37l48,-78l56,77c0,0,55,74,55,94c0,0,0,16,0,27c0,0,0,11,0,11v26H674V657c0,0,-37,-2,-64,-20c0,0,-37,-26,-100,-111L416,402L587,156c0,0,63,-91,89,-109c0,0,27,-18,70,-21V0H423V26c0,0,34,0,53,15c0,0,14,11,14,28c0,0,0,17,-48,87L341,302L232,157c0,0,-50,-69,-50,-82c0,0,0,-18,17,-32c0,0,17,-15,50,-17V0Z" 
id="f0_2k"
transform="scale(0.001,-0.001)" />

<path d="M452,373V875L97,373ZM452,0V267H23v95l470,671h82V373H711V267H575V0Z" 
id="f0_o"
transform="scale(0.001,-0.001)" />

<path d="M253,0V27h36c0,0,64,0,91,39c0,0,16,24,16,109V948H274c0,0,-71,0,-100,-10c0,0,-39,-14,-67,-54c0,0,-27,-41,-33,-109H46l12,237H883L894,775H865c0,0,-8,62,-22,89c0,0,-23,43,-61,64c0,0,-39,20,-101,20H539V175c0,0,0,-93,20,-116c0,0,28,-32,87,-32h36V0Z" 
id="f0_1k"
transform="scale(0.001,-0.001)" />

<path d="M58,0V26c0,0,47,0,64,10c0,0,18,10,28,32c0,0,9,23,9,86V775c0,0,0,116,-5,142c0,0,-5,27,-17,37c0,0,-11,9,-29,9c0,0,-20,0,-49,-12L46,978l204,83h34V154c0,0,0,-64,9,-85c0,0,9,-21,29,-32c0,0,19,-11,72,-11V0Z" 
id="f0_28"
transform="scale(0.001,-0.001)" />

<path d="M551,-22c0,0,-165,0,-251,56c0,0,-86,57,-122,154c0,0,-24,67,-24,250V833c0,0,0,93,-25,123c0,0,-26,29,-83,29H8v27H444V985H405c0,0,-62,0,-89,-40c0,0,-19,-27,-19,-112V392c0,0,0,-59,11,-135c0,0,11,-76,39,-118c0,0,29,-43,82,-70c0,0,53,-28,131,-28c0,0,99,0,178,43c0,0,78,44,107,111c0,0,29,68,29,229V833c0,0,0,95,-21,119c0,0,-29,33,-86,33H729v27h357V985h-38c0,0,-59,0,-91,-50c0,0,-16,-23,-16,-108V417c0,0,0,-152,-30,-236C911,181,881,97,792,37c0,0,-88,-59,-241,-59Z" 
id="f0_1l"
transform="scale(0.001,-0.001)" />

<path d="M30,0V27L485,632H260c0,0,-72,0,-94,-10c0,0,-22,-9,-36,-35c0,0,-20,-37,-23,-92H76l5,188H654V656L196,51H445c0,0,79,0,106,13c0,0,28,13,45,46c0,0,12,23,21,100h25L634,0Z" 
id="f0_2m"
transform="scale(0.001,-0.001)" />

<path d="M945,-20c0,0,47,75,125,153H57v74H1147l108,91c0,0,23,19,95,72c0,0,-134,103,-203,166H57v72H1070c0,0,-78,78,-125,154h85c0,0,88,-107,217,-217c0,0,130,-110,206,-154V349c0,0,-101,-58,-219,-162c0,0,-118,-103,-204,-207Z" 
id="f1_4g"
transform="scale(0.001,-0.001)" />

<path d="M405,24c0,0,65,0,116,62c0,0,51,61,51,174c0,0,0,128,-50,221c0,0,-51,93,-144,93c0,0,-29,0,-61,-12c0,0,-33,-12,-96,-51c0,0,-14,-101,-14,-163c0,0,0,-72,27,-155c0,0,26,-84,79,-134c0,0,38,-35,92,-35ZM384,-17c0,0,-104,0,-177,68C207,51,66,185,66,397c0,0,0,136,54,258c0,0,54,122,156,217c0,0,101,95,193,128c0,0,93,33,172,33h44v-28c0,0,-99,-10,-161,-39c0,0,-62,-29,-123,-90c0,0,-61,-60,-101,-135c0,0,-39,-74,-66,-176c0,0,107,73,215,73c0,0,104,0,180,-83c0,0,76,-84,76,-215c0,0,0,-126,-77,-231c0,0,-92,-126,-244,-126Z" 
id="f0_q"
transform="scale(0.001,-0.001)" />

<path d="M355,0V355H0v72H355V784h72V427H782V355H427V0Z" 
id="f1_f"
transform="scale(0.001,-0.001)" />

<path d="M26,0V27H62c0,0,63,0,91,37c0,0,18,24,18,115V833c0,0,0,77,-10,102c0,0,-7,18,-30,32c0,0,-33,18,-69,18H26v27H459V985H422c0,0,-35,0,-67,-17c0,0,-23,-12,-32,-36c0,0,-9,-25,-9,-99V542H784V833c0,0,0,77,-10,102c0,0,-8,18,-31,32c0,0,-33,18,-68,18H639v27h432V985h-36c0,0,-36,0,-68,-17c0,0,-24,-12,-32,-36c0,0,-9,-25,-9,-99V179c0,0,0,-77,10,-102c0,0,7,-18,31,-32c0,0,32,-18,68,-18h36V0H639V27h36c0,0,62,0,90,37c0,0,19,24,19,115V487H314V179c0,0,0,-77,9,-102c0,0,8,-18,32,-32c0,0,32,-18,67,-18h37V0Z" 
id="f0_18"
transform="scale(0.001,-0.001)" />

<path d="M0,214v74H784V214ZM0,494v72H784V494Z" 
id="f2_x"
transform="scale(0.001,-0.001)" />

<path d="M491,-305c0,0,-180,60,-305,247C186,-58,61,127,61,368c0,0,0,239,124,423c0,0,125,184,306,243v-34c0,0,-78,-50,-115,-99c0,0,-50,-67,-79,-172c0,0,-36,-131,-36,-365c0,0,0,-221,33,-343c0,0,32,-122,88,-197c0,0,39,-52,109,-92v-37Z" 
id="f3_c"
transform="scale(0.001,-0.001)" />

<path d="M597,33c0,0,77,0,129,38c0,0,65,47,102,152c0,0,36,105,36,273c0,0,0,201,-37,300c0,0,-37,100,-95,141c0,0,-58,41,-133,41c0,0,-139,0,-211,-142c0,0,-59,-116,-59,-334c0,0,0,-259,91,-382c0,0,63,-87,177,-87Zm3,-54c0,0,-273,0,-423,183C177,162,60,309,60,509c0,0,0,225,153,375c0,0,144,142,358,142c6,0,12,0,19,0c0,0,3,0,8,0c42,0,250,-7,385,-141c0,0,151,-150,151,-375c0,0,0,-193,-113,-339c0,0,-149,-192,-421,-192Z" 
id="f3_1f"
transform="scale(0.001,-0.001)" />

<path d="M448,514c0,0,104,0,155,19c0,0,52,19,81,69c0,0,30,50,30,129c0,0,0,116,-54,171c0,0,-54,55,-174,55H406V514ZM28,0V27c0,0,70,0,95,13c0,0,25,14,35,35c0,0,10,21,10,103V834c0,0,0,82,-10,104c0,0,-10,21,-35,34c0,0,-25,13,-95,13v27H498c0,0,184,0,269,-25c0,0,85,-26,138,-94c0,0,54,-68,54,-160c0,0,0,-112,-80,-185c0,0,-52,-46,-145,-69L977,135c0,0,48,-66,68,-82c0,0,31,-23,72,-26V0H798L472,462H406V178c0,0,0,-82,10,-104c0,0,10,-21,35,-34c0,0,25,-13,95,-13V0Z" 
id="f3_1i"
transform="scale(0.001,-0.001)" />

<path d="M19,-305v34c0,0,77,52,114,100c0,0,50,67,79,171c0,0,36,131,36,365c0,0,0,221,-33,343c0,0,-32,122,-88,198c0,0,-39,52,-108,91v37c0,0,179,-60,304,-246c0,0,125,-186,125,-428c0,0,0,-238,-125,-421c0,0,-125,-184,-304,-244Z" 
id="f3_d"
transform="scale(0.001,-0.001)" />

<path d="M275,-20L578,891H299c0,0,-84,0,-120,-20c0,0,-63,-35,-101,-106l-21,8l97,239H696V983L359,-20Z" 
id="f0_r"
transform="scale(0.001,-0.001)" />

<path d="M600,387l39,398L345,387ZM-74,0l8,26c0,0,55,3,97,37c0,0,42,35,125,149l605,822h26L710,193c0,0,-6,-59,-6,-78c0,0,0,-30,11,-46c0,0,14,-22,39,-32c0,0,24,-11,81,-11L827,0H429l8,26h17c0,0,49,0,79,21c0,0,22,15,34,48c0,0,8,23,15,109l13,128H305L202,193c0,0,-35,-47,-44,-68c0,0,-9,-20,-9,-38c0,0,0,-25,20,-42c0,0,19,-17,64,-19L225,0Z" 
id="f4_11"
transform="scale(0.001,-0.001)" />

<path d="M107,-21V325h27c0,0,19,-109,52,-163c0,0,33,-54,100,-90c0,0,68,-36,148,-36c0,0,93,0,148,49c0,0,54,50,54,117c0,0,0,37,-21,75c0,0,-20,38,-64,71c0,0,-29,22,-159,95c0,0,-130,72,-185,115c0,0,-55,44,-83,96c0,0,-28,52,-28,114c0,0,0,109,83,188c0,0,84,78,213,78c0,0,81,0,171,-39c0,0,42,-19,59,-19c0,0,20,0,32,11c0,0,12,12,20,47h27V684H674c0,0,-14,101,-48,161c0,0,-35,60,-100,95c0,0,-64,35,-133,35c0,0,-77,0,-128,-47c0,0,-51,-48,-51,-108c0,0,0,-46,32,-84c0,0,47,-56,221,-149c0,0,142,-76,194,-117c0,0,51,-41,80,-96c0,0,28,-55,28,-115c0,0,0,-115,-90,-198c0,0,-89,-82,-229,-82c0,0,-44,0,-83,6c0,0,-23,4,-95,27c0,0,-73,24,-93,24c0,0,-18,0,-29,-11c0,0,-11,-12,-16,-46Z" 
id="f0_1j"
transform="scale(0.001,-0.001)" />

<path d="M213,-20c0,0,-34,0,-58,24c0,0,-24,24,-24,58c0,0,0,34,24,58c0,0,24,25,58,25c0,0,35,0,59,-25c0,0,24,-24,24,-58c0,0,0,-34,-24,-58c0,0,-25,-24,-59,-24Zm3,559c0,0,-35,0,-59,24c0,0,-24,24,-24,58c0,0,0,35,24,59c0,0,24,24,59,24c0,0,34,0,58,-24c0,0,24,-24,24,-59c0,0,0,-34,-24,-58c0,0,-24,-24,-58,-24Z" 
id="f0_u"
transform="scale(0.001,-0.001)" />

<path d="M394,23c0,0,80,0,129,45c0,0,48,45,48,110c0,0,0,54,-28,97c0,0,-53,79,-214,206c0,0,-62,-52,-92,-114c0,0,-30,-61,-30,-133c0,0,0,-96,53,-154c0,0,52,-57,134,-57Zm17,566c0,0,90,81,114,128c0,0,24,46,24,105c0,0,0,79,-44,123c0,0,-44,45,-121,45c0,0,-76,0,-124,-45c0,0,-48,-44,-48,-103c0,0,0,-38,20,-77c0,0,20,-39,56,-74L411,589ZM382,-17c0,0,-144,0,-225,90c0,0,-64,72,-64,158c0,0,0,67,45,133c0,0,45,66,156,146c0,0,-121,98,-156,158c0,0,-34,59,-34,124c0,0,0,98,76,169c0,0,76,72,202,72c0,0,123,0,198,-67c0,0,74,-66,74,-151c0,0,0,-57,-40,-116c0,0,-40,-59,-168,-139c0,0,132,-101,174,-159c0,0,57,-76,57,-161c0,0,0,-106,-82,-182c0,0,-81,-75,-213,-75Z" 
id="f0_s"
transform="scale(0.001,-0.001)" />

<path d="M130,0L252,216H0v70H292L410,496H0v70H450L572,783h82L532,566H783V496H492L377,286H783V216H335L213,0Z" 
id="f1_3f"
transform="scale(0.001,-0.001)" />

<path d="M-46,0l10,26c0,0,62,2,82,11c0,0,33,13,48,35c0,0,25,36,51,126L318,810c0,0,23,76,23,115c0,0,0,20,-10,33c0,0,-10,13,-29,21c0,0,-20,7,-78,7l9,26H619l-8,-26h-2c-8,0,-48,-1,-69,-12c0,0,-33,-16,-51,-46c0,0,-17,-30,-45,-132L271,185c0,0,-23,-78,-23,-100c0,0,0,-17,9,-29c0,0,9,-12,30,-19c0,0,20,-6,85,-11L364,0Z" 
id="f4_19"
transform="scale(0.001,-0.001)" />

<path d="M83,308c0,0,-35,0,-59,24c0,0,-24,24,-24,59c0,0,0,34,24,58c0,0,24,24,59,24c0,0,33,0,58,-24c0,0,24,-24,24,-58c0,0,0,-35,-24,-59c0,0,-25,-24,-58,-24Z" 
id="f1_49"
transform="scale(0.001,-0.001)" />

<path d="M46,0c0,0,-2,48,16,93c0,0,27,74,88,146c0,0,61,71,176,165c0,0,178,146,241,232c0,0,63,85,63,161c0,0,0,80,-57,135c0,0,-58,55,-149,55c0,0,-98,0,-156,-59c0,0,-58,-58,-59,-160L71,782c0,0,15,154,107,235c0,0,93,81,249,81c0,0,157,0,249,-87c0,0,92,-88,92,-217c0,0,0,-65,-27,-129c0,0,-27,-63,-89,-133c0,0,-62,-70,-207,-193C445,339,324,238,290,202c0,0,-35,-36,-57,-73H770V0Z" 
id="f5_m"
transform="scale(0.001,-0.001)" />

<path d="M412,-18c0,0,-144,0,-239,85c0,0,-95,86,-108,222l133,18c0,0,24,-114,79,-164c0,0,55,-50,135,-50c0,0,96,0,161,65c0,0,65,66,65,163c0,0,0,92,-61,152c0,0,-60,60,-153,60c0,0,-38,0,-95,-15l15,119c0,0,13,-2,21,-2c0,0,86,0,155,45c0,0,69,44,69,137c0,0,0,74,-50,122c0,0,-50,49,-129,49c0,0,-79,0,-131,-50c0,0,-52,-49,-67,-147L78,815c0,0,25,135,112,209c0,0,87,74,217,74c0,0,89,0,164,-38c0,0,76,-39,116,-105c0,0,40,-66,40,-141c0,0,0,-70,-39,-129c0,0,-38,-58,-112,-92c0,0,97,-22,151,-93c0,0,53,-70,53,-176c0,0,0,-143,-104,-243c0,0,-105,-99,-264,-99Z" 
id="f5_n"
transform="scale(0.001,-0.001)" />


</defs>
</svg>