<?xml version="1.0" encoding="UTF-8" standalone="no"?>
<!DOCTYPE svg PUBLIC "-//W3C//DTD SVG 1.1//EN"
"http://www.w3.org/Graphics/SVG/1.1/DTD/svg11.dtd">
<svg viewBox="0 0 909 1286" version="1.1" xmlns="http://www.w3.org/2000/svg" xmlns:xlink="http://www.w3.org/1999/xlink">
<defs>
<clipPath id="c0_65"><path d="M736.4,152.7V125.9h52.4v26.8Z" /></clipPath>
<clipPath id="c1_65"><path d="M55.2,181.3V154.4H98.6v26.9Z" /></clipPath>
<clipPath id="c2_65"><path d="M55.2,260.5V207.3h156v53.2Z" /></clipPath>
<clipPath id="c3_65"><path d="M55.2,288.8V261.1h68.2v27.7Z" /></clipPath>
<clipPath id="c4_65"><path d="M90.4,350.7V313.6H190.5v37.1Z" /></clipPath>
<clipPath id="c5_65"><path d="M225.3,345.9v-32h92.5v32Z" /></clipPath>
<clipPath id="c6_65"><path d="M483.1,350.7V313.6h52.3v37.1Z" /></clipPath>
<clipPath id="c7_65"><path d="M116.8,429.9V376.8h84.6v53.1Z" /></clipPath>
<clipPath id="c8_65"><path d="M55.2,461.8V431.6h78.5v30.2Z" /></clipPath>
<clipPath id="c9_65"><path d="M164.8,589.8V536.7H400.5v53.1Z" /></clipPath>
<clipPath id="c10_65"><path d="M134.8,669V615.9H346V669Z" /></clipPath>
<clipPath id="c11_65"><path d="M55.2,748.2V695H239.6v53.2Z" /></clipPath>
<clipPath id="c12_65"><path d="M55.2,803.6V750.4H260.1v53.2Z" /></clipPath>
<clipPath id="c13_65"><path d="M55.2,910.6V806.1H280.5V910.6Z" /></clipPath>
<clipPath id="c14_65"><path d="M55.2,964.9v-52H236v52Z" /></clipPath>
<clipPath id="c15_65"><path d="M55.2,1019.1v-52H161.4v52Z" /></clipPath>
<clipPath id="c16_65"><path d="M55.2,1073.1V1021H205.8v52.1Z" /></clipPath>
<clipPath id="c17_65"><path d="M55.2,1152.3v-53.2H229.9v53.2Z" /></clipPath>
<style type="text/css"><![CDATA[
.g0_65{
fill: #D9D9D9;
}
.g1_65{
fill: none;
stroke: #000000;
stroke-width: 0.7638889;
stroke-linecap: butt;
stroke-linejoin: miter;
}
.g2_65{
fill: none;
stroke: #000000;
stroke-width: 0.90769833;
stroke-linecap: butt;
stroke-linejoin: round;
}
.g3_65{
fill: none;
stroke: #000000;
stroke-width: 0.7574592;
stroke-linecap: butt;
stroke-linejoin: round;
}
.g4_65{
fill: none;
stroke: #000000;
stroke-width: 0.20895079;
stroke-linecap: square;
stroke-linejoin: round;
}
.g5_65{
}
.g6_65{
fill: none;
stroke: #000000;
stroke-width: 0.7463698;
stroke-linecap: butt;
stroke-linejoin: round;
}
.g7_65{
fill: none;
stroke: #000000;
stroke-width: 0.2080072;
stroke-linecap: square;
stroke-linejoin: round;
}
.g8_65{
fill: none;
stroke: #000000;
stroke-width: 0.8902561;
stroke-linecap: butt;
stroke-linejoin: round;
}
.g9_65{
fill: none;
stroke: #000000;
stroke-width: 0.75932884;
stroke-linecap: butt;
stroke-linejoin: round;
}
.g10_65{
fill: none;
stroke: #000000;
stroke-width: 0.7534651;
stroke-linecap: butt;
stroke-linejoin: round;
}
.g11_65{
fill: none;
stroke: #000000;
stroke-width: 0.9132471;
stroke-linecap: butt;
stroke-linejoin: round;
}
.g12_65{
fill: none;
stroke: #000000;
stroke-width: 0.9093145;
stroke-linecap: butt;
stroke-linejoin: round;
}
.g13_65{
fill: none;
stroke: #000000;
stroke-width: 0.41526428;
stroke-linecap: butt;
stroke-linejoin: round;
}
.g14_65{
fill: none;
stroke: #000000;
stroke-width: 0.90602696;
stroke-linecap: butt;
stroke-linejoin: round;
}
.g15_65{
fill: none;
stroke: #000000;
stroke-width: 0.91051215;
stroke-linecap: butt;
stroke-linejoin: round;
}
.g16_65{
fill: none;
stroke: #000000;
stroke-width: 0.90877813;
stroke-linecap: butt;
stroke-linejoin: round;
}
.g17_65{
fill: none;
stroke: #000000;
stroke-width: 0.21088862;
stroke-linecap: square;
stroke-linejoin: round;
}
.g18_65{
fill: none;
stroke: #000000;
stroke-width: 0.9025883;
stroke-linecap: butt;
stroke-linejoin: round;
}
.g19_65{
fill: none;
stroke: #000000;
stroke-width: 0.91025174;
stroke-linecap: butt;
stroke-linejoin: round;
}
]]></style>
</defs>
<image preserveAspectRatio="none" x="747" y="1196" width="96" height="59" xlink:href="img/1.png" />
<image preserveAspectRatio="none" x="336" y="41" width="259" height="51" xlink:href="img/2.png" />
<image preserveAspectRatio="none" x="342" y="50" width="247" height="27" xlink:href="img/3.png" />
<image preserveAspectRatio="none" x="341" y="45" width="239" height="42" xlink:href="img/4.png" />
<g fill="#FFFFFF" >
<use xlink:href="#f0_j" transform="matrix(11.5,0,0,11.5,355.1,70.1)" />
<use xlink:href="#f0_i" transform="matrix(11.5,0,0,11.5,364.3,70.1)" />
<use xlink:href="#f0_2n" transform="matrix(11.5,0,0,11.5,374.1,70.1)" />
<use xlink:href="#f0_t" transform="matrix(11.5,0,0,11.5,382.6,70.1)" />
<use xlink:href="#f0_oj" transform="matrix(11.5,0,0,11.5,391,70.1)" />
<use xlink:href="#f0_3e" transform="matrix(11.5,0,0,11.5,396.5,70.1)" />
<use xlink:href="#f0_1c" transform="matrix(11.5,0,0,11.5,406.1,70.1)" />
<use xlink:href="#f0_1c" transform="matrix(11.5,0,0,11.5,410.8,70.1)" />
<use xlink:href="#f0_oj" transform="matrix(11.5,0,0,11.5,415.6,70.1)" />
<use xlink:href="#f0_rz" transform="matrix(11.5,0,0,11.5,421.1,70.1)" />
<use xlink:href="#f0_rx" transform="matrix(11.5,0,0,11.5,429.9,70.1)" />
<use xlink:href="#f0_ry" transform="matrix(11.5,0,0,11.5,438.7,70.1)" />
<use xlink:href="#f0_s3" transform="matrix(11.5,0,0,11.5,447.5,70.1)" />
<use xlink:href="#f0_t" transform="matrix(11.5,0,0,11.5,460.4,70.1)" />
<use xlink:href="#f0_3e" transform="matrix(11.5,0,0,11.5,468.8,70.1)" />
<use xlink:href="#f0_5" transform="matrix(11.5,0,0,11.5,478.3,70.1)" />
<use xlink:href="#f0_1x" transform="matrix(11.5,0,0,11.5,489,70.1)" />
<use xlink:href="#f0_1c" transform="matrix(11.5,0,0,11.5,504.4,70.1)" />
<use xlink:href="#f0_1y" transform="matrix(11.5,0,0,11.5,509.1,70.1)" />
<use xlink:href="#f0_5" transform="matrix(11.5,0,0,11.5,520.8,70.1)" />
<use xlink:href="#f0_2t" transform="matrix(11.5,0,0,11.5,531.5,70.1)" />
<use xlink:href="#f0_1c" transform="matrix(11.5,0,0,11.5,540.2,70.1)" />
<use xlink:href="#f0_24" transform="matrix(11.5,0,0,11.5,545,70.1)" />
<use xlink:href="#f0_1y" transform="matrix(11.5,0,0,11.5,556.7,70.1)" />
</g>
<image preserveAspectRatio="none" x="554" y="45" width="36" height="42" xlink:href="img/5.png" />
<g fill="#FFFFFF" >
<use xlink:href="#f1_m" transform="matrix(11,0,0,11,770.3,1227.6)" />
<use xlink:href="#f1_j" transform="matrix(11,0,0,11,783.5,1227.6)" />
<use xlink:href="#f1_l" transform="matrix(11,0,0,11,794.1,1227.6)" />
<use xlink:href="#f1_r" transform="matrix(11,0,0,11,802.9,1227.6)" />
</g>
<path fill-rule="evenodd" d="M52.8,1193.5H856.9v-.8H52.8v.8Z" class="g0_65" />
<path d="M37.9,99.4L873,98.5" class="g1_65" />
<g fill="#000000" >
<use xlink:href="#f2_p" transform="matrix(12,0,0,12,55,147.8)" />
<use xlink:href="#f2_i" transform="matrix(12,0,0,12,64.2,147.8)" />
<use xlink:href="#f3_16" transform="matrix(12,0,0,12,73.7,147.8)" />
<use xlink:href="#f3_25" transform="matrix(12,0,0,12,84,147.8)" />
<use xlink:href="#f3_2a" transform="matrix(12,0,0,12,88.8,147.8)" />
<use xlink:href="#f3_20" transform="matrix(12,0,0,12,97.6,147.8)" />
<use xlink:href="#f3_2g" transform="matrix(12,0,0,12,111.5,147.8)" />
<use xlink:href="#f3_24" transform="matrix(12,0,0,12,116.9,147.8)" />
<use xlink:href="#f3_21" transform="matrix(12,0,0,12,125.7,147.8)" />
<use xlink:href="#f3_2c" transform="matrix(12,0,0,12,138.6,147.8)" />
<use xlink:href="#f3_2b" transform="matrix(12,0,0,12,147.7,147.8)" />
<use xlink:href="#f3_2f" transform="matrix(12,0,0,12,157.2,147.8)" />
<use xlink:href="#f3_25" transform="matrix(12,0,0,12,164.2,147.8)" />
<use xlink:href="#f3_2g" transform="matrix(12,0,0,12,168.6,147.8)" />
<use xlink:href="#f3_25" transform="matrix(12,0,0,12,174.5,147.8)" />
<use xlink:href="#f3_2b" transform="matrix(12,0,0,12,178.9,147.8)" />
<use xlink:href="#f3_2a" transform="matrix(12,0,0,12,188.4,147.8)" />
<use xlink:href="#f3_2i" transform="matrix(12,0,0,12,201.9,147.8)" />
<use xlink:href="#f3_21" transform="matrix(12,0,0,12,211.1,147.8)" />
<use xlink:href="#f3_1z" transform="matrix(12,0,0,12,219.2,147.8)" />
<use xlink:href="#f3_2g" transform="matrix(12,0,0,12,227.2,147.8)" />
<use xlink:href="#f3_2b" transform="matrix(12,0,0,12,232.7,147.8)" />
<use xlink:href="#f3_2e" transform="matrix(12,0,0,12,241.9,147.8)" />
<use xlink:href="#f3_2b" transform="matrix(12,0,0,12,252.5,147.8)" />
<use xlink:href="#f3_22" transform="matrix(12,0,0,12,262,147.8)" />
<use xlink:href="#f3_2g" transform="matrix(12,0,0,12,272.2,147.8)" />
<use xlink:href="#f3_24" transform="matrix(12,0,0,12,277.7,147.8)" />
<use xlink:href="#f3_21" transform="matrix(12,0,0,12,286.5,147.8)" />
<use xlink:href="#f3_2c" transform="matrix(12,0,0,12,299.3,147.8)" />
<use xlink:href="#f3_2b" transform="matrix(12,0,0,12,308.1,147.8)" />
<use xlink:href="#f3_25" transform="matrix(12,0,0,12,317.7,147.8)" />
<use xlink:href="#f3_2a" transform="matrix(12,0,0,12,322.4,147.8)" />
<use xlink:href="#f3_2g" transform="matrix(12,0,0,12,331.2,147.8)" />
<use xlink:href="#f3_2j" transform="matrix(12,0,0,12,341.5,147.8)" />
<use xlink:href="#f3_24" transform="matrix(12,0,0,12,354.7,147.8)" />
<use xlink:href="#f3_25" transform="matrix(12,0,0,12,363.9,147.8)" />
<use xlink:href="#f3_1z" transform="matrix(12,0,0,12,368.6,147.8)" />
<use xlink:href="#f3_24" transform="matrix(12,0,0,12,377,147.8)" />
<use xlink:href="#f3_20" transform="matrix(12,0,0,12,390.6,147.8)" />
<use xlink:href="#f3_25" transform="matrix(12,0,0,12,400.1,147.8)" />
<use xlink:href="#f3_2i" transform="matrix(12,0,0,12,404.8,147.8)" />
<use xlink:href="#f3_25" transform="matrix(12,0,0,12,414,147.8)" />
<use xlink:href="#f3_20" transform="matrix(12,0,0,12,418.8,147.8)" />
<use xlink:href="#f3_21" transform="matrix(12,0,0,12,428.3,147.8)" />
<use xlink:href="#f3_2f" transform="matrix(12,0,0,12,436.4,147.8)" />
<use xlink:href="#f3_2g" transform="matrix(12,0,0,12,448.1,147.8)" />
<use xlink:href="#f3_24" transform="matrix(12,0,0,12,453.5,147.8)" />
<use xlink:href="#f3_21" transform="matrix(12,0,0,12,462.3,147.8)" />
<use xlink:href="#f3_26" transform="matrix(12,0,0,12,475.5,147.8)" />
<use xlink:href="#f3_2b" transform="matrix(12,0,0,12,479.9,147.8)" />
<use xlink:href="#f3_25" transform="matrix(12,0,0,12,489.4,147.8)" />
<use xlink:href="#f3_2a" transform="matrix(12,0,0,12,494.2,147.8)" />
<use xlink:href="#f3_2b" transform="matrix(12,0,0,12,507.8,147.8)" />
<use xlink:href="#f3_22" transform="matrix(12,0,0,12,517.6,147.8)" />
<use xlink:href="#f3_2c" transform="matrix(12,0,0,12,527.9,147.8)" />
<use xlink:href="#f3_2b" transform="matrix(12,0,0,12,537.1,147.8)" />
<use xlink:href="#f3_25" transform="matrix(12,0,0,12,546.6,147.8)" />
<use xlink:href="#f3_2a" transform="matrix(12,0,0,12,551.3,147.8)" />
<use xlink:href="#f3_2g" transform="matrix(12,0,0,12,560.1,147.8)" />
<use xlink:href="#f3_2f" transform="matrix(12,0,0,12,565.6,147.8)" />
<use xlink:href="#f3_2j" transform="matrix(12,0,0,12,577.3,147.8)" />
<use xlink:href="#f3_25" transform="matrix(12,0,0,12,590.9,147.8)" />
<use xlink:href="#f3_2g" transform="matrix(12,0,0,12,595.3,147.8)" />
<use xlink:href="#f3_24" transform="matrix(12,0,0,12,600.8,147.8)" />
<use xlink:href="#f3_2c" transform="matrix(12,0,0,12,614.3,147.8)" />
<use xlink:href="#f3_2b" transform="matrix(12,0,0,12,623.5,147.8)" />
<use xlink:href="#f3_2f" transform="matrix(12,0,0,12,633,147.8)" />
<use xlink:href="#f3_25" transform="matrix(12,0,0,12,640.3,147.8)" />
<use xlink:href="#f3_2g" transform="matrix(12,0,0,12,644.7,147.8)" />
<use xlink:href="#f3_25" transform="matrix(12,0,0,12,650.2,147.8)" />
<use xlink:href="#f3_2b" transform="matrix(12,0,0,12,654.6,147.8)" />
<use xlink:href="#f3_2a" transform="matrix(12,0,0,12,664.1,147.8)" />
<use xlink:href="#f3_2i" transform="matrix(12,0,0,12,678,147.8)" />
<use xlink:href="#f3_21" transform="matrix(12,0,0,12,686.8,147.8)" />
<use xlink:href="#f3_1z" transform="matrix(12,0,0,12,694.9,147.8)" />
<use xlink:href="#f3_2g" transform="matrix(12,0,0,12,703,147.8)" />
<use xlink:href="#f3_2b" transform="matrix(12,0,0,12,708.4,147.8)" />
<use xlink:href="#f3_2e" transform="matrix(12,0,0,12,718,147.8)" />
<use xlink:href="#f3_2f" transform="matrix(12,0,0,12,724.2,147.8)" />
</g>
<g clip-path="url(#c0_65)">
<g fill="#000000" >
<use xlink:href="#f3_n" transform="matrix(12.9,0,0,12.2,766.2,148.4)" />
<use xlink:href="#f4_1x" transform="matrix(12.9,0,0,12.2,739.2,148.4)" />
<use xlink:href="#f4_1y" transform="matrix(12.9,0,0,12.2,774.5,148.4)" />
<use xlink:href="#f5_f" transform="matrix(12.9,0,0,12.2,752.8,148.4)" />
</g>
</g>
<image preserveAspectRatio="none" x="777" y="111" width="73" height="32" xlink:href="img/6.png" />
<image preserveAspectRatio="none" x="741" y="116" width="73" height="32" xlink:href="img/7.png" />
<g fill="#000000" >
<use xlink:href="#f3_1x" transform="matrix(12,0,0,12,793.4,147.8)" />
<use xlink:href="#f3_2a" transform="matrix(12,0,0,12,801.5,147.8)" />
<use xlink:href="#f3_20" transform="matrix(12,0,0,12,810.3,147.8)" />
</g>
<g clip-path="url(#c1_65)">
<g fill="#000000" >
<use xlink:href="#f4_1x" transform="matrix(12.9,0,0,12.2,57.9,177)" />
<use xlink:href="#f4_1y" transform="matrix(12.9,0,0,12.2,84.5,177)" />
<use xlink:href="#f5_h" transform="matrix(12.9,0,0,12.2,71.5,177)" />
</g>
</g>
<image preserveAspectRatio="none" x="87" y="140" width="73" height="32" xlink:href="img/8.png" />
<image preserveAspectRatio="none" x="60" y="144" width="73" height="32" xlink:href="img/9.png" />
<g fill="#000000" >
<use xlink:href="#f3_25" transform="matrix(12,0,0,12,102.7,176.4)" />
<use xlink:href="#f3_2a" transform="matrix(12,0,0,12,107.5,176.4)" />
<use xlink:href="#f3_2g" transform="matrix(12,0,0,12,116.3,176.4)" />
<use xlink:href="#f3_21" transform="matrix(12,0,0,12,121.8,176.4)" />
<use xlink:href="#f3_2e" transform="matrix(12,0,0,12,129.8,176.4)" />
<use xlink:href="#f3_2a" transform="matrix(12,0,0,12,136,176.4)" />
<use xlink:href="#f3_1x" transform="matrix(12,0,0,12,144.8,176.4)" />
<use xlink:href="#f3_28" transform="matrix(12,0,0,12,153.2,176.4)" />
<use xlink:href="#f3_28" transform="matrix(12,0,0,12,158.3,176.4)" />
<use xlink:href="#f3_2l" transform="matrix(12,0,0,12,163.5,176.4)" />
<use xlink:href="#f3_25" transform="matrix(12,0,0,12,177.4,176.4)" />
<use xlink:href="#f3_2a" transform="matrix(12,0,0,12,182.2,176.4)" />
<use xlink:href="#f3_2g" transform="matrix(12,0,0,12,195.7,176.4)" />
<use xlink:href="#f3_24" transform="matrix(12,0,0,12,201.2,176.4)" />
<use xlink:href="#f3_21" transform="matrix(12,0,0,12,210,176.4)" />
<use xlink:href="#f3_2e" transform="matrix(12,0,0,12,222.8,176.4)" />
<use xlink:href="#f3_1x" transform="matrix(12,0,0,12,229,176.4)" />
<use xlink:href="#f3_2g" transform="matrix(12,0,0,12,237.1,176.4)" />
<use xlink:href="#f3_25" transform="matrix(12,0,0,12,242.6,176.4)" />
<use xlink:href="#f3_2b" transform="matrix(12,0,0,12,247,176.4)" />
<use xlink:href="#f3_l" transform="matrix(12,0,0,12,261.3,176.4)" />
<use xlink:href="#f3_u" transform="matrix(12,0,0,12,275.2,176.4)" />
<use xlink:href="#f3_n" transform="matrix(12,0,0,12,285,176.4)" />
<use xlink:href="#f3_i" transform="matrix(12,0,0,12,293.8,176.4)" />
<use xlink:href="#f2_1j" transform="matrix(12,0,0,12,55,201.3)" />
<use xlink:href="#f2_2b" transform="matrix(12,0,0,12,65.3,201.3)" />
<use xlink:href="#f2_28" transform="matrix(12,0,0,12,74.5,201.3)" />
<use xlink:href="#f2_2h" transform="matrix(12,0,0,12,79.2,201.3)" />
<use xlink:href="#f2_2g" transform="matrix(12,0,0,12,89.5,201.3)" />
<use xlink:href="#f2_25" transform="matrix(12,0,0,12,95.7,201.3)" />
<use xlink:href="#f2_2b" transform="matrix(12,0,0,12,100.8,201.3)" />
<use xlink:href="#f2_2a" transform="matrix(12,0,0,12,109.9,201.3)" />
<use xlink:href="#f2_u" transform="matrix(12,0,0,12,120.2,201.3)" />
</g>
<path d="M58.2,237.8H202.3" class="g2_65" />
<g clip-path="url(#c2_65)">
<g fill="#000000" >
<use xlink:href="#f3_l" transform="matrix(12.7,0,0,12.3,57.4,230.5)" />
<use xlink:href="#f3_c" transform="matrix(12.7,0,0,12.3,65.2,230.5)" />
<use xlink:href="#f3_d" transform="matrix(12.7,0,0,12.3,109.9,230.5)" />
<use xlink:href="#f3_n" transform="matrix(12.7,0,0,12.3,133.3,230.5)" />
<use xlink:href="#f3_c" transform="matrix(12.7,0,0,12.3,141.9,230.5)" />
<use xlink:href="#f3_n" transform="matrix(12.7,0,0,12.3,175.9,230.5)" />
<use xlink:href="#f3_d" transform="matrix(12.7,0,0,12.3,195.3,230.5)" />
<use xlink:href="#f3_o" transform="matrix(12.7,0,0,12.3,125.9,257.1)" />
<use xlink:href="#f4_1x" transform="matrix(12.7,0,0,12.3,71.8,230.5)" />
<use xlink:href="#f4_1y" transform="matrix(12.7,0,0,12.3,98.8,230.5)" />
<use xlink:href="#f4_1x" transform="matrix(12.7,0,0,12.3,148.6,230.5)" />
<use xlink:href="#f4_1y" transform="matrix(12.7,0,0,12.3,184.2,230.5)" />
<use xlink:href="#f5_h" transform="matrix(12.7,0,0,12.3,85.6,230.5)" />
<use xlink:href="#f5_f" transform="matrix(12.7,0,0,12.3,119.7,230.5)" />
<use xlink:href="#f5_f" transform="matrix(12.7,0,0,12.3,162.3,230.5)" />
</g>
</g>
<image preserveAspectRatio="none" x="102" y="193" width="183" height="32" xlink:href="img/10.png" />
<image preserveAspectRatio="none" x="74" y="198" width="170" height="32" xlink:href="img/11.png" />
<g fill="#000000" >
<use xlink:href="#f3_c" transform="matrix(12,0,0,12,214.9,242.1)" />
<use xlink:href="#f3_25" transform="matrix(12,0,0,12,221.2,242.1)" />
<use xlink:href="#f3_i" transform="matrix(12,0,0,12,225.6,242.1)" />
<use xlink:href="#f3_21" transform="matrix(12,0,0,12,230.3,242.1)" />
<use xlink:href="#f3_i" transform="matrix(12,0,0,12,238.4,242.1)" />
<use xlink:href="#f3_g" transform="matrix(12,0,0,12,243.1,242.1)" />
<use xlink:href="#f3_2h" transform="matrix(12,0,0,12,252.6,242.1)" />
<use xlink:href="#f3_2f" transform="matrix(12,0,0,12,261.8,242.1)" />
<use xlink:href="#f3_25" transform="matrix(12,0,0,12,269.1,242.1)" />
<use xlink:href="#f3_2a" transform="matrix(12,0,0,12,273.9,242.1)" />
<use xlink:href="#f3_23" transform="matrix(12,0,0,12,282.7,242.1)" />
<use xlink:href="#f3_1z" transform="matrix(12,0,0,12,296.6,242.1)" />
<use xlink:href="#f3_2b" transform="matrix(12,0,0,12,304.6,242.1)" />
<use xlink:href="#f3_2e" transform="matrix(12,0,0,12,314.2,242.1)" />
<use xlink:href="#f3_2e" transform="matrix(12,0,0,12,320.4,242.1)" />
<use xlink:href="#f3_21" transform="matrix(12,0,0,12,326.6,242.1)" />
<use xlink:href="#f3_1z" transform="matrix(12,0,0,12,334.7,242.1)" />
<use xlink:href="#f3_2g" transform="matrix(12,0,0,12,342.4,242.1)" />
<use xlink:href="#f3_22" transform="matrix(12,0,0,12,352.2,242.1)" />
<use xlink:href="#f3_2b" transform="matrix(12,0,0,12,357.7,242.1)" />
<use xlink:href="#f3_2e" transform="matrix(12,0,0,12,367.3,242.1)" />
<use xlink:href="#f3_29" transform="matrix(12,0,0,12,373.5,242.1)" />
<use xlink:href="#f3_2h" transform="matrix(12,0,0,12,387,242.1)" />
<use xlink:href="#f3_28" transform="matrix(12,0,0,12,396.6,242.1)" />
<use xlink:href="#f3_1x" transform="matrix(12,0,0,12,401.3,242.1)" />
<use xlink:href="#f3_d" transform="matrix(12,0,0,12,409.4,242.1)" />
</g>
<g clip-path="url(#c3_65)">
<g fill="#000000" >
<use xlink:href="#f3_m" transform="matrix(12.7,0,0,12.5,99.9,284.3)" />
<use xlink:href="#f4_1x" transform="matrix(12.7,0,0,12.5,72.4,284.3)" />
<use xlink:href="#f4_1y" transform="matrix(12.7,0,0,12.5,108.7,284.3)" />
<use xlink:href="#f5_x" transform="matrix(12.7,0,0,12.5,57.9,284.3)" />
<use xlink:href="#f5_f" transform="matrix(12.7,0,0,12.5,85.9,284.3)" />
</g>
</g>
<image preserveAspectRatio="none" x="111" y="246" width="73" height="33" xlink:href="img/12.png" />
<image preserveAspectRatio="none" x="74" y="251" width="73" height="33" xlink:href="img/13.png" />
<g fill="#000000" >
<use xlink:href="#f2_q" transform="matrix(12,0,0,12,55,336.7)" />
<use xlink:href="#f2_i" transform="matrix(12,0,0,12,64.2,336.7)" />
<use xlink:href="#f3_19" transform="matrix(12,0,0,12,73.7,336.7)" />
<use xlink:href="#f3_22" transform="matrix(12,0,0,12,80,336.7)" />
</g>
<path d="M93.8,322v21.8M107.2,322v21.8m38,-25.2v28.6m13.5,-28.6v28.6" class="g3_65" />
<g clip-path="url(#c4_65)">
<g fill="#000000" >
<use xlink:href="#f3_o" transform="matrix(12.8,0,0,12.1,127,337.4)" />
<use xlink:href="#f3_g" transform="matrix(12.8,0,0,12.1,135.9,337.4)" />
<use xlink:href="#f3_n" transform="matrix(12.8,0,0,12.1,178,337.4)" />
<use xlink:href="#f4_1x" transform="matrix(12.8,0,0,12.1,95.7,337.4)" />
<use xlink:href="#f4_1y" transform="matrix(12.8,0,0,12.1,146.5,337.4)" />
<use xlink:href="#f5_x" transform="matrix(12.8,0,0,12.1,112.6,337.4)" />
<use xlink:href="#f5_x" transform="matrix(12.8,0,0,12.1,164.1,337.4)" />
</g>
</g>
<image preserveAspectRatio="none" x="149" y="301" width="73" height="31" xlink:href="img/14.png" />
<image preserveAspectRatio="none" x="98" y="305" width="72" height="32" xlink:href="img/15.png" />
<g fill="#000000" >
<use xlink:href="#f3_1x" transform="matrix(12,0,0,12,194.4,336.7)" />
<use xlink:href="#f3_2a" transform="matrix(12,0,0,12,202.5,336.7)" />
<use xlink:href="#f3_20" transform="matrix(12,0,0,12,211.3,336.7)" />
</g>
<path d="M289.2,335l1.8,-1.2m.1,0l4.4,8.5m0,.1l4.9,-22.6m0,-.1h13.9" class="g4_65" />
<path fill-rule="evenodd" d="M288.2,334l2.6,-1.6l4,7.2l4.5,-21.1h14.2v1H300l-4.8,22.1h-.9l-4.5,-7.9l-1.3,.8l-.3,-.5Z" class="g5_65" />
<g clip-path="url(#c5_65)">
<g fill="#000000" >
<use xlink:href="#f3_i" transform="matrix(12.7,0,0,12.4,241.5,336.9)" />
<use xlink:href="#f3_q" transform="matrix(12.7,0,0,12.4,278.5,336.9)" />
<use xlink:href="#f3_n" transform="matrix(12.7,0,0,12.4,299.9,336.9)" />
<use xlink:href="#f3_g" transform="matrix(12.7,0,0,12.4,308.3,336.9)" />
<use xlink:href="#f4_1x" transform="matrix(12.7,0,0,12.4,228.1,336.9)" />
<use xlink:href="#f4_1y" transform="matrix(12.7,0,0,12.4,248.9,336.9)" />
<use xlink:href="#f5_x" transform="matrix(12.7,0,0,12.4,264.1,336.9)" />
</g>
</g>
<image preserveAspectRatio="none" x="251" y="299" width="74" height="33" xlink:href="img/16.png" />
<image preserveAspectRatio="none" x="230" y="304" width="74" height="32" xlink:href="img/17.png" />
<g fill="#000000" >
<use xlink:href="#f3_2g" transform="matrix(12,0,0,12,321.3,336.7)" />
<use xlink:href="#f3_24" transform="matrix(12,0,0,12,326.8,336.7)" />
<use xlink:href="#f3_21" transform="matrix(12,0,0,12,335.6,336.7)" />
<use xlink:href="#f3_2a" transform="matrix(12,0,0,12,344,336.7)" />
<use xlink:href="#f3_22" transform="matrix(12,0,0,12,357.9,336.7)" />
<use xlink:href="#f3_25" transform="matrix(12,0,0,12,363.8,336.7)" />
<use xlink:href="#f3_2a" transform="matrix(12,0,0,12,368.6,336.7)" />
<use xlink:href="#f3_20" transform="matrix(12,0,0,12,377.7,336.7)" />
<use xlink:href="#f3_2g" transform="matrix(12,0,0,12,391.6,336.7)" />
<use xlink:href="#f3_24" transform="matrix(12,0,0,12,397.1,336.7)" />
<use xlink:href="#f3_21" transform="matrix(12,0,0,12,405.9,336.7)" />
<use xlink:href="#f3_2i" transform="matrix(12,0,0,12,418.7,336.7)" />
<use xlink:href="#f3_1x" transform="matrix(12,0,0,12,427.5,336.7)" />
<use xlink:href="#f3_28" transform="matrix(12,0,0,12,435.9,336.7)" />
<use xlink:href="#f3_2h" transform="matrix(12,0,0,12,440.7,336.7)" />
<use xlink:href="#f3_21" transform="matrix(12,0,0,12,449.9,336.7)" />
<use xlink:href="#f3_2b" transform="matrix(12,0,0,12,462.7,336.7)" />
<use xlink:href="#f3_22" transform="matrix(12,0,0,12,472.2,336.7)" />
</g>
<path d="M486.5,318.6v28.6m39.2,-28.6v28.6" class="g6_65" />
<g clip-path="url(#c6_65)">
<g fill="#000000" >
<use xlink:href="#f3_i" transform="matrix(12.6,0,0,12.1,527.7,337.4)" />
<use xlink:href="#f4_1x" transform="matrix(12.6,0,0,12.1,488.5,337.4)" />
<use xlink:href="#f4_1y" transform="matrix(12.6,0,0,12.1,513.4,337.4)" />
<use xlink:href="#f5_3a" transform="matrix(12.6,0,0,12.1,500.9,337.4)" />
</g>
</g>
<image preserveAspectRatio="none" x="516" y="301" width="73" height="31" xlink:href="img/18.png" />
<image preserveAspectRatio="none" x="490" y="305" width="73" height="32" xlink:href="img/19.png" />
<g fill="#000000" >
<use xlink:href="#f2_1j" transform="matrix(12,0,0,12,55,370.8)" />
<use xlink:href="#f2_2b" transform="matrix(12,0,0,12,65.3,370.8)" />
<use xlink:href="#f2_28" transform="matrix(12,0,0,12,74.5,370.8)" />
<use xlink:href="#f2_2h" transform="matrix(12,0,0,12,79.2,370.8)" />
<use xlink:href="#f2_2g" transform="matrix(12,0,0,12,89.5,370.8)" />
<use xlink:href="#f2_25" transform="matrix(12,0,0,12,95.7,370.8)" />
<use xlink:href="#f2_2b" transform="matrix(12,0,0,12,100.8,370.8)" />
<use xlink:href="#f2_2a" transform="matrix(12,0,0,12,109.9,370.8)" />
<use xlink:href="#f2_u" transform="matrix(12,0,0,12,120.2,370.8)" />
<use xlink:href="#f3_16" transform="matrix(12,0,0,12,55,411.5)" />
<use xlink:href="#f3_25" transform="matrix(12,0,0,12,65.3,411.5)" />
<use xlink:href="#f3_2a" transform="matrix(12,0,0,12,70.1,411.5)" />
<use xlink:href="#f3_20" transform="matrix(12,0,0,12,79.2,411.5)" />
<use xlink:href="#f3_25" transform="matrix(12,0,0,12,88.7,411.5)" />
<use xlink:href="#f3_2a" transform="matrix(12,0,0,12,93.5,411.5)" />
<use xlink:href="#f3_23" transform="matrix(12,0,0,12,102.7,411.5)" />
</g>
<path d="M176.3,396.1l1.9,-1m0,0l4.5,7.3m0,0l4.8,-19.5m0,0H197" class="g7_65" />
<path fill-rule="evenodd" d="M175.4,395.1l2.6,-1.3l4,6l4.5,-18.1h9.7v.9h-9.1l-4.7,19.1h-.9L177,394.9l-1.3,.8l-.3,-.6Z" class="g5_65" />
<path d="M174,407.2h23.6" class="g8_65" />
<g clip-path="url(#c7_65)">
<g fill="#000000" >
<use xlink:href="#f3_n" transform="matrix(12.4,0,0,12.3,187,400)" />
<use xlink:href="#f3_1z" transform="matrix(12.4,0,0,12.3,119.2,411.9)" />
<use xlink:href="#f3_2b" transform="matrix(12.4,0,0,12.3,127.3,411.9)" />
<use xlink:href="#f3_2f" transform="matrix(12.4,0,0,12.3,136.4,411.9)" />
<use xlink:href="#f3_m" transform="matrix(12.4,0,0,12.3,181.5,426.6)" />
<use xlink:href="#f5_2d" transform="matrix(12.4,0,0,12.3,145.5,411.9)" />
<use xlink:href="#f5_x" transform="matrix(12.4,0,0,12.3,159.2,411.9)" />
</g>
</g>
<g clip-path="url(#c8_65)">
<g fill="#000000" >
<use xlink:href="#f3_2o" transform="matrix(12.6,0,0,12.3,56.8,454.4)" />
<use xlink:href="#f3_2o" transform="matrix(12.6,0,0,12.3,103.1,454.4)" />
<use xlink:href="#f3_q" transform="matrix(12.6,0,0,12.3,120.7,454.4)" />
<use xlink:href="#f4_1x" transform="matrix(12.6,0,0,12.3,64.1,454.4)" />
<use xlink:href="#f4_1y" transform="matrix(12.6,0,0,12.3,89.2,454.4)" />
<use xlink:href="#f5_3a" transform="matrix(12.6,0,0,12.3,76.6,454.4)" />
<use xlink:href="#f5_x" transform="matrix(12.6,0,0,12.3,106.5,454.4)" />
</g>
</g>
<image preserveAspectRatio="none" x="92" y="417" width="73" height="32" xlink:href="img/20.png" />
<image preserveAspectRatio="none" x="66" y="422" width="73" height="32" xlink:href="img/21.png" />
<g fill="#000000" >
<use xlink:href="#f2_1j" transform="matrix(12,0,0,12,398.4,482.3)" />
<use xlink:href="#f2_15" transform="matrix(12,0,0,12,408.6,482.3)" />
<use xlink:href="#f2_13" transform="matrix(12,0,0,12,420.7,482.3)" />
<use xlink:href="#f2_1k" transform="matrix(12,0,0,12,433.9,482.3)" />
<use xlink:href="#f2_19" transform="matrix(12,0,0,12,446,482.3)" />
<use xlink:href="#f2_1f" transform="matrix(12,0,0,12,453,482.3)" />
<use xlink:href="#f2_1e" transform="matrix(12,0,0,12,467.2,482.3)" />
<use xlink:href="#f6_4y" transform="matrix(12,0,0,12,485.3,482.3)" />
<use xlink:href="#f2_12" transform="matrix(12,0,0,12,499.2,482.3)" />
<use xlink:href="#f2_1h" transform="matrix(12,0,0,12,274.4,506.5)" />
<use xlink:href="#f2_2h" transform="matrix(12,0,0,12,288.6,506.5)" />
<use xlink:href="#f2_21" transform="matrix(12,0,0,12,298.9,506.5)" />
<use xlink:href="#f2_2f" transform="matrix(12,0,0,12,307,506.5)" />
<use xlink:href="#f2_2g" transform="matrix(12,0,0,12,314,506.5)" />
<use xlink:href="#f2_25" transform="matrix(12,0,0,12,320.2,506.5)" />
<use xlink:href="#f2_2b" transform="matrix(12,0,0,12,325.3,506.5)" />
<use xlink:href="#f2_2a" transform="matrix(12,0,0,12,334.4,506.5)" />
<use xlink:href="#f2_2a" transform="matrix(12,0,0,12,349.5,506.5)" />
<use xlink:href="#f2_2h" transform="matrix(12,0,0,12,359.7,506.5)" />
<use xlink:href="#f2_29" transform="matrix(12,0,0,12,370,506.5)" />
<use xlink:href="#f2_1y" transform="matrix(12,0,0,12,385,506.5)" />
<use xlink:href="#f2_21" transform="matrix(12,0,0,12,395.2,506.5)" />
<use xlink:href="#f2_2e" transform="matrix(12,0,0,12,403.3,506.5)" />
<use xlink:href="#f2_2f" transform="matrix(12,0,0,12,411,506.5)" />
<use xlink:href="#f2_r" transform="matrix(12,0,0,12,422.7,506.5)" />
<use xlink:href="#f2_2g" transform="matrix(12,0,0,12,436.6,506.5)" />
<use xlink:href="#f2_2b" transform="matrix(12,0,0,12,442.9,506.5)" />
<use xlink:href="#f2_l" transform="matrix(12,0,0,12,456.8,506.5)" />
<use xlink:href="#f2_t" transform="matrix(12,0,0,12,465.9,506.5)" />
<use xlink:href="#f2_1z" transform="matrix(12,0,0,12,479.9,506.5)" />
<use xlink:href="#f2_1x" transform="matrix(12,0,0,12,487.9,506.5)" />
<use xlink:href="#f2_2e" transform="matrix(12,0,0,12,497.1,506.5)" />
<use xlink:href="#f2_2e" transform="matrix(12,0,0,12,504.8,506.5)" />
<use xlink:href="#f2_2l" transform="matrix(12,0,0,12,512.5,506.5)" />
<use xlink:href="#f2_o" transform="matrix(12,0,0,12,526.4,506.5)" />
<use xlink:href="#f2_29" transform="matrix(12,0,0,12,540.3,506.5)" />
<use xlink:href="#f2_1x" transform="matrix(12,0,0,12,555.4,506.5)" />
<use xlink:href="#f2_2e" transform="matrix(12,0,0,12,564.9,506.5)" />
<use xlink:href="#f2_27" transform="matrix(12,0,0,12,572.9,506.5)" />
<use xlink:href="#f2_2f" transform="matrix(12,0,0,12,582.8,506.5)" />
<use xlink:href="#f2_21" transform="matrix(12,0,0,12,594.5,506.5)" />
<use xlink:href="#f2_1x" transform="matrix(12,0,0,12,602.6,506.5)" />
<use xlink:href="#f2_1z" transform="matrix(12,0,0,12,611.8,506.5)" />
<use xlink:href="#f2_24" transform="matrix(12,0,0,12,619.8,506.5)" />
<use xlink:href="#f2_i" transform="matrix(12,0,0,12,630.1,506.5)" />
<use xlink:href="#f2_r" transform="matrix(12,0,0,12,55,568.5)" />
<use xlink:href="#f2_i" transform="matrix(12,0,0,12,64.2,568.5)" />
<use xlink:href="#f3_1j" transform="matrix(12,0,0,12,73.7,568.5)" />
<use xlink:href="#f3_2b" transform="matrix(12,0,0,12,83.6,568.5)" />
<use xlink:href="#f3_28" transform="matrix(12,0,0,12,93.2,568.5)" />
<use xlink:href="#f3_2i" transform="matrix(12,0,0,12,97.9,568.5)" />
<use xlink:href="#f3_21" transform="matrix(12,0,0,12,106.7,568.5)" />
<use xlink:href="#f3_22" transform="matrix(12,0,0,12,119.9,568.5)" />
<use xlink:href="#f3_2b" transform="matrix(12,0,0,12,125.4,568.5)" />
<use xlink:href="#f3_2e" transform="matrix(12,0,0,12,134.9,568.5)" />
<use xlink:href="#f3_2k" transform="matrix(12,0,0,12,145.9,568.5)" />
<use xlink:href="#f3_u" transform="matrix(12,0,0,12,154.7,568.5)" />
</g>
<path d="M214.7,563.9h37.8m28.8,0h11m41,0h11.3" class="g9_65" />
<g clip-path="url(#c9_65)">
<g fill="#000000" >
<use xlink:href="#f3_l" transform="matrix(7.4,0,0,7.2,197.2,560.3)" />
<use xlink:href="#f3_l" transform="matrix(7.4,0,0,7.2,324.7,560.3)" />
<use xlink:href="#f3_m" transform="matrix(12.7,0,0,12.3,216.1,557.1)" />
<use xlink:href="#f3_l" transform="matrix(12.7,0,0,12.3,282.2,557.1)" />
<use xlink:href="#f3_2g" transform="matrix(12.7,0,0,12.3,167.8,568.6)" />
<use xlink:href="#f3_1x" transform="matrix(12.7,0,0,12.3,173,568.6)" />
<use xlink:href="#f3_2a" transform="matrix(12.7,0,0,12.3,180.9,568.6)" />
<use xlink:href="#f3_2g" transform="matrix(12.7,0,0,12.3,295.3,568.6)" />
<use xlink:href="#f3_1x" transform="matrix(12.7,0,0,12.3,300.4,568.6)" />
<use xlink:href="#f3_2a" transform="matrix(12.7,0,0,12.3,308.4,568.6)" />
<use xlink:href="#f3_g" transform="matrix(12.7,0,0,12.3,346.7,568.6)" />
<use xlink:href="#f3_k" transform="matrix(12.7,0,0,12.3,383.2,568.6)" />
<use xlink:href="#f3_i" transform="matrix(12.7,0,0,12.3,392.3,568.6)" />
<use xlink:href="#f3_m" transform="matrix(12.7,0,0,12.3,215.9,582.9)" />
<use xlink:href="#f3_m" transform="matrix(12.7,0,0,12.3,282.5,582.9)" />
<use xlink:href="#f3_m" transform="matrix(12.7,0,0,12.3,334.6,582.9)" />
<use xlink:href="#f4_2k" transform="matrix(12.7,0,0,12.3,243.2,557.1)" />
<use xlink:href="#f4_2k" transform="matrix(12.7,0,0,12.3,335.4,557.1)" />
<use xlink:href="#f4_2k" transform="matrix(12.7,0,0,12.3,356.4,568.6)" />
<use xlink:href="#f4_2k" transform="matrix(12.7,0,0,12.3,243.3,582.9)" />
<use xlink:href="#f5_h" transform="matrix(7.4,0,0,7.2,191.4,560.3)" />
<use xlink:href="#f5_h" transform="matrix(7.4,0,0,7.2,318.9,560.3)" />
<use xlink:href="#f5_h" transform="matrix(12.7,0,0,12.3,228.6,557.1)" />
<use xlink:href="#f5_4o" transform="matrix(12.7,0,0,12.3,204.9,558.5)" />
<use xlink:href="#f5_54" transform="matrix(12.7,0,0,12.3,255.2,558.5)" />
<use xlink:href="#f5_x" transform="matrix(12.7,0,0,12.3,266.6,568.6)" />
<use xlink:href="#f5_y" transform="matrix(12.7,0,0,12.3,369.1,568.6)" />
<use xlink:href="#f5_4p" transform="matrix(12.7,0,0,12.3,204.9,573.4)" />
<use xlink:href="#f5_55" transform="matrix(12.7,0,0,12.3,255.2,573.4)" />
<use xlink:href="#f5_f" transform="matrix(12.7,0,0,12.3,228.5,582.9)" />
<use xlink:href="#f5_4q" transform="matrix(12.7,0,0,12.3,204.9,585.1)" />
<use xlink:href="#f5_56" transform="matrix(12.7,0,0,12.3,255.2,585.1)" />
</g>
</g>
<g fill="#000000" >
<use xlink:href="#f2_1f" transform="matrix(12,0,0,12,440.9,610.3)" />
<use xlink:href="#f2_1i" transform="matrix(12,0,0,12,455.2,610.3)" />
<use xlink:href="#f3_1g" transform="matrix(12,0,0,12,55,647.7)" />
<use xlink:href="#f3_2e" transform="matrix(12,0,0,12,65.3,647.7)" />
<use xlink:href="#f3_2b" transform="matrix(12,0,0,12,71.2,647.7)" />
<use xlink:href="#f3_2i" transform="matrix(12,0,0,12,80.7,647.7)" />
<use xlink:href="#f3_21" transform="matrix(12,0,0,12,89.5,647.7)" />
<use xlink:href="#f3_2g" transform="matrix(12,0,0,12,102.3,647.7)" />
<use xlink:href="#f3_24" transform="matrix(12,0,0,12,107.8,647.7)" />
<use xlink:href="#f3_1x" transform="matrix(12,0,0,12,116.6,647.7)" />
<use xlink:href="#f3_2g" transform="matrix(12,0,0,12,124.6,647.7)" />
</g>
<path d="M194.1,643.2h10.2m74.2,0h18.4m28.8,0h11.9" class="g10_65" />
<g clip-path="url(#c10_65)">
<g fill="#000000" >
<use xlink:href="#f3_l" transform="matrix(7.3,0,0,7.2,176.6,639.5)" />
<use xlink:href="#f3_l" transform="matrix(7.3,0,0,7.2,260.9,639.5)" />
<use xlink:href="#f3_n" transform="matrix(12.6,0,0,12.3,194.9,636.3)" />
<use xlink:href="#f3_l" transform="matrix(12.6,0,0,12.3,277.7,636.3)" />
<use xlink:href="#f3_r" transform="matrix(12.6,0,0,12.3,286.9,636.3)" />
<use xlink:href="#f3_m" transform="matrix(12.6,0,0,12.3,137.5,647.8)" />
<use xlink:href="#f3_2f" transform="matrix(12.6,0,0,12.3,148,647.8)" />
<use xlink:href="#f3_25" transform="matrix(12.6,0,0,12.3,155.1,647.8)" />
<use xlink:href="#f3_2a" transform="matrix(12.6,0,0,12.3,160.3,647.8)" />
<use xlink:href="#f3_2g" transform="matrix(12.6,0,0,12.3,231.5,647.8)" />
<use xlink:href="#f3_1x" transform="matrix(12.6,0,0,12.3,236.7,647.8)" />
<use xlink:href="#f3_2a" transform="matrix(12.6,0,0,12.3,244.6,647.8)" />
<use xlink:href="#f3_i" transform="matrix(12.6,0,0,12.3,339.2,647.8)" />
<use xlink:href="#f3_p" transform="matrix(12.6,0,0,12.3,194.8,662.1)" />
<use xlink:href="#f3_n" transform="matrix(12.6,0,0,12.3,279.2,662.1)" />
<use xlink:href="#f3_l" transform="matrix(12.6,0,0,12.3,288.4,662.1)" />
<use xlink:href="#f3_o" transform="matrix(12.6,0,0,12.3,327.3,662.1)" />
<use xlink:href="#f5_h" transform="matrix(7.3,0,0,7.2,170.8,639.5)" />
<use xlink:href="#f5_h" transform="matrix(7.3,0,0,7.2,255.1,639.5)" />
<use xlink:href="#f5_2c" transform="matrix(12.6,0,0,12.3,326.9,636.3)" />
<use xlink:href="#f5_4o" transform="matrix(12.6,0,0,12.3,184.3,637.7)" />
<use xlink:href="#f5_54" transform="matrix(12.6,0,0,12.3,206.9,637.7)" />
<use xlink:href="#f5_4o" transform="matrix(12.6,0,0,12.3,268.6,637.7)" />
<use xlink:href="#f5_54" transform="matrix(12.6,0,0,12.3,299.6,637.7)" />
<use xlink:href="#f5_h" transform="matrix(12.6,0,0,12.3,217.5,647.8)" />
<use xlink:href="#f5_x" transform="matrix(12.6,0,0,12.3,310.9,647.8)" />
<use xlink:href="#f5_4p" transform="matrix(12.6,0,0,12.3,184.3,652.7)" />
<use xlink:href="#f5_55" transform="matrix(12.6,0,0,12.3,206.9,652.7)" />
<use xlink:href="#f5_4p" transform="matrix(12.6,0,0,12.3,268.6,652.7)" />
<use xlink:href="#f5_55" transform="matrix(12.6,0,0,12.3,299.6,652.7)" />
<use xlink:href="#f5_4q" transform="matrix(12.6,0,0,12.3,184.3,664.3)" />
<use xlink:href="#f5_56" transform="matrix(12.6,0,0,12.3,206.9,664.3)" />
<use xlink:href="#f5_4q" transform="matrix(12.6,0,0,12.3,268.6,664.3)" />
<use xlink:href="#f5_56" transform="matrix(12.6,0,0,12.3,299.6,664.3)" />
</g>
</g>
<g fill="#000000" >
<use xlink:href="#f2_1j" transform="matrix(12,0,0,12,55,689.5)" />
<use xlink:href="#f2_2b" transform="matrix(12,0,0,12,65.3,689.5)" />
<use xlink:href="#f2_28" transform="matrix(12,0,0,12,74.5,689.5)" />
<use xlink:href="#f2_2h" transform="matrix(12,0,0,12,79.2,689.5)" />
<use xlink:href="#f2_2g" transform="matrix(12,0,0,12,89.5,689.5)" />
<use xlink:href="#f2_25" transform="matrix(12,0,0,12,95.7,689.5)" />
<use xlink:href="#f2_2b" transform="matrix(12,0,0,12,100.8,689.5)" />
<use xlink:href="#f2_2a" transform="matrix(12,0,0,12,109.9,689.5)" />
<use xlink:href="#f2_u" transform="matrix(12,0,0,12,120.2,689.5)" />
</g>
<path d="M105.3,722.3h37.9m28.9,0H183m41.1,0h11.2" class="g11_65" />
<g clip-path="url(#c11_65)">
<g fill="#000000" >
<use xlink:href="#f3_l" transform="matrix(7.3,0,0,7.1,87.7,718.7)" />
<use xlink:href="#f3_l" transform="matrix(7.3,0,0,7.1,215.5,718.7)" />
<use xlink:href="#f3_m" transform="matrix(12.7,0,0,12.3,106.6,715.1)" />
<use xlink:href="#f3_l" transform="matrix(12.7,0,0,12.3,173,715.1)" />
<use xlink:href="#f3_2g" transform="matrix(12.7,0,0,12.3,58.2,727)" />
<use xlink:href="#f3_1x" transform="matrix(12.7,0,0,12.3,63.4,727)" />
<use xlink:href="#f3_2a" transform="matrix(12.7,0,0,12.3,71.4,727)" />
<use xlink:href="#f3_2g" transform="matrix(12.7,0,0,12.3,186,727)" />
<use xlink:href="#f3_1x" transform="matrix(12.7,0,0,12.3,191.2,727)" />
<use xlink:href="#f3_2a" transform="matrix(12.7,0,0,12.3,199.2,727)" />
<use xlink:href="#f3_m" transform="matrix(12.7,0,0,12.3,106.4,741.6)" />
<use xlink:href="#f3_m" transform="matrix(12.7,0,0,12.3,173.2,741.6)" />
<use xlink:href="#f3_m" transform="matrix(12.7,0,0,12.3,225.3,741.6)" />
<use xlink:href="#f4_2k" transform="matrix(12.7,0,0,12.3,133.8,715.1)" />
<use xlink:href="#f4_2k" transform="matrix(12.7,0,0,12.3,226.1,715.1)" />
<use xlink:href="#f4_2k" transform="matrix(12.7,0,0,12.3,134,741.6)" />
<use xlink:href="#f5_h" transform="matrix(7.3,0,0,7.1,81.9,718.7)" />
<use xlink:href="#f5_h" transform="matrix(7.3,0,0,7.1,209.8,718.7)" />
<use xlink:href="#f5_h" transform="matrix(12.7,0,0,12.3,119.2,715.1)" />
<use xlink:href="#f5_4o" transform="matrix(12.7,0,0,12.3,95.4,716.6)" />
<use xlink:href="#f5_54" transform="matrix(12.7,0,0,12.3,145.9,716.6)" />
<use xlink:href="#f5_x" transform="matrix(12.7,0,0,12.3,157.2,727)" />
<use xlink:href="#f5_4p" transform="matrix(12.7,0,0,12.3,95.4,732.1)" />
<use xlink:href="#f5_55" transform="matrix(12.7,0,0,12.3,145.9,732.1)" />
<use xlink:href="#f5_f" transform="matrix(12.7,0,0,12.3,119.1,741.6)" />
<use xlink:href="#f5_4q" transform="matrix(12.7,0,0,12.3,95.4,743.8)" />
<use xlink:href="#f5_56" transform="matrix(12.7,0,0,12.3,145.9,743.8)" />
</g>
</g>
<path d="M138.4,777.8h38m66.9,0h11.2" class="g12_65" />
<g clip-path="url(#c12_65)">
<g fill="#000000" >
<use xlink:href="#f3_l" transform="matrix(7.3,0,0,7.1,120.8,774.1)" />
<use xlink:href="#f3_l" transform="matrix(7.3,0,0,7.1,234.7,774.1)" />
<use xlink:href="#f3_m" transform="matrix(12.7,0,0,12.3,139.7,770.5)" />
<use xlink:href="#f3_m" transform="matrix(12.7,0,0,12.3,80,782.4)" />
<use xlink:href="#f3_2g" transform="matrix(12.7,0,0,12.3,91.3,782.4)" />
<use xlink:href="#f3_1x" transform="matrix(12.7,0,0,12.3,96.5,782.4)" />
<use xlink:href="#f3_2a" transform="matrix(12.7,0,0,12.3,104.5,782.4)" />
<use xlink:href="#f3_2g" transform="matrix(12.7,0,0,12.3,205.2,782.4)" />
<use xlink:href="#f3_1x" transform="matrix(12.7,0,0,12.3,210.3,782.4)" />
<use xlink:href="#f3_2a" transform="matrix(12.7,0,0,12.3,218.4,782.4)" />
<use xlink:href="#f3_m" transform="matrix(12.7,0,0,12.3,139.6,797.1)" />
<use xlink:href="#f3_m" transform="matrix(12.7,0,0,12.3,244.6,797.1)" />
<use xlink:href="#f4_2k" transform="matrix(12.7,0,0,12.3,167,770.5)" />
<use xlink:href="#f4_2k" transform="matrix(12.7,0,0,12.3,245.3,770.5)" />
<use xlink:href="#f4_2k" transform="matrix(12.7,0,0,12.3,167.1,797.1)" />
<use xlink:href="#f5_h" transform="matrix(7.3,0,0,7.1,115.1,774.1)" />
<use xlink:href="#f5_h" transform="matrix(7.3,0,0,7.1,229,774.1)" />
<use xlink:href="#f5_h" transform="matrix(12.7,0,0,12.3,152.4,770.5)" />
<use xlink:href="#f5_4o" transform="matrix(12.7,0,0,12.3,128.6,771.9)" />
<use xlink:href="#f5_54" transform="matrix(12.7,0,0,12.3,179,771.9)" />
<use xlink:href="#f5_4g" transform="matrix(12.7,0,0,12.3,57.4,782.4)" />
<use xlink:href="#f5_x" transform="matrix(12.7,0,0,12.3,190.4,782.4)" />
<use xlink:href="#f5_4p" transform="matrix(12.7,0,0,12.3,128.6,787.6)" />
<use xlink:href="#f5_55" transform="matrix(12.7,0,0,12.3,179,787.6)" />
<use xlink:href="#f5_f" transform="matrix(12.7,0,0,12.3,152.2,797.1)" />
<use xlink:href="#f5_4q" transform="matrix(12.7,0,0,12.3,128.6,799.2)" />
<use xlink:href="#f5_56" transform="matrix(12.7,0,0,12.3,179,799.2)" />
</g>
</g>
<path d="M149.6,832.5h37.9m-35.8,52.3h38" class="g13_65" />
<path d="M118.3,856.9h89.4m58,0h11.2" class="g14_65" />
<g clip-path="url(#c13_65)">
<g fill="#000000" >
<use xlink:href="#f3_l" transform="matrix(7,0,0,7,109.7,853.3)" />
<use xlink:href="#f3_l" transform="matrix(7,0,0,7,257.1,853.3)" />
<use xlink:href="#f3_m" transform="matrix(7,0,0,7,199.9,867.2)" />
<use xlink:href="#f3_m" transform="matrix(12.1,0,0,12.1,150.9,825.8)" />
<use xlink:href="#f3_m" transform="matrix(12.1,0,0,12.1,129.2,837.1)" />
<use xlink:href="#f3_m" transform="matrix(12.1,0,0,12.1,150.7,851.1)" />
<use xlink:href="#f3_2g" transform="matrix(12.1,0,0,12.1,80.3,861.4)" />
<use xlink:href="#f3_1x" transform="matrix(12.1,0,0,12.1,85.4,861.4)" />
<use xlink:href="#f3_2a" transform="matrix(12.1,0,0,12.1,93.5,861.4)" />
<use xlink:href="#f3_2g" transform="matrix(12.1,0,0,12.1,227.6,861.4)" />
<use xlink:href="#f3_1x" transform="matrix(12.1,0,0,12.1,232.7,861.4)" />
<use xlink:href="#f3_2a" transform="matrix(12.1,0,0,12.1,240.8,861.4)" />
<use xlink:href="#f3_m" transform="matrix(12.1,0,0,12.1,266.9,875.8)" />
<use xlink:href="#f3_m" transform="matrix(12.1,0,0,12.1,153,878.1)" />
<use xlink:href="#f3_l" transform="matrix(12.1,0,0,12.1,117.5,889.4)" />
<use xlink:href="#f3_m" transform="matrix(12.1,0,0,12.1,152.9,903.4)" />
<use xlink:href="#f4_2k" transform="matrix(12.1,0,0,12.1,178.1,825.8)" />
<use xlink:href="#f4_2k" transform="matrix(12.1,0,0,12.1,267.6,849.8)" />
<use xlink:href="#f4_2k" transform="matrix(12.1,0,0,12.1,178.3,851.1)" />
<use xlink:href="#f4_2k" transform="matrix(12.1,0,0,12.1,180.3,878.1)" />
<use xlink:href="#f4_2k" transform="matrix(12.1,0,0,12.1,180.4,903.4)" />
<use xlink:href="#f5_h" transform="matrix(7,0,0,7,104,853.3)" />
<use xlink:href="#f5_h" transform="matrix(7,0,0,7,251.3,853.3)" />
<use xlink:href="#f5_h" transform="matrix(12.1,0,0,12.1,163.5,825.8)" />
<use xlink:href="#f5_4o" transform="matrix(12.1,0,0,12.1,139.7,827.2)" />
<use xlink:href="#f5_54" transform="matrix(12.1,0,0,12.1,190.1,827.2)" />
<use xlink:href="#f5_4p" transform="matrix(12.1,0,0,12.1,139.7,841.7)" />
<use xlink:href="#f5_55" transform="matrix(12.1,0,0,12.1,190.1,841.7)" />
<use xlink:href="#f5_f" transform="matrix(12.1,0,0,12.1,163.4,851.1)" />
<use xlink:href="#f5_4q" transform="matrix(12.1,0,0,12.1,139.7,853.2)" />
<use xlink:href="#f5_56" transform="matrix(12.1,0,0,12.1,190.1,853.2)" />
<use xlink:href="#f5_4g" transform="matrix(12.1,0,0,12.1,57.4,861.4)" />
<use xlink:href="#f5_x" transform="matrix(12.1,0,0,12.1,212.8,861.4)" />
<use xlink:href="#f5_h" transform="matrix(12.1,0,0,12.1,165.6,878.1)" />
<use xlink:href="#f5_4o" transform="matrix(12.1,0,0,12.1,141.9,879.5)" />
<use xlink:href="#f5_54" transform="matrix(12.1,0,0,12.1,192.3,879.5)" />
<use xlink:href="#f5_h" transform="matrix(12.1,0,0,12.1,128.6,889.4)" />
<use xlink:href="#f5_4p" transform="matrix(12.1,0,0,12.1,141.9,894.1)" />
<use xlink:href="#f5_55" transform="matrix(12.1,0,0,12.1,192.3,894.1)" />
<use xlink:href="#f5_f" transform="matrix(12.1,0,0,12.1,165.5,903.4)" />
<use xlink:href="#f5_4q" transform="matrix(12.1,0,0,12.1,141.9,905.5)" />
<use xlink:href="#f5_56" transform="matrix(12.1,0,0,12.1,192.3,905.5)" />
</g>
</g>
<path d="M118.1,941.9h45m57.8,0H232" class="g15_65" />
<g clip-path="url(#c14_65)">
<g fill="#000000" >
<use xlink:href="#f3_m" transform="matrix(7.3,0,0,7.2,155.4,926.3)" />
<use xlink:href="#f3_l" transform="matrix(7.3,0,0,7.2,109.5,938.3)" />
<use xlink:href="#f3_l" transform="matrix(7.3,0,0,7.2,212.4,938.3)" />
<use xlink:href="#f3_o" transform="matrix(12.7,0,0,12.4,119.2,934.7)" />
<use xlink:href="#f3_2g" transform="matrix(12.7,0,0,12.4,80.2,946.6)" />
<use xlink:href="#f3_1x" transform="matrix(12.7,0,0,12.4,85.3,946.6)" />
<use xlink:href="#f3_2a" transform="matrix(12.7,0,0,12.4,93.3,946.6)" />
<use xlink:href="#f3_2g" transform="matrix(12.7,0,0,12.4,183,946.6)" />
<use xlink:href="#f3_1x" transform="matrix(12.7,0,0,12.4,188.1,946.6)" />
<use xlink:href="#f3_2a" transform="matrix(12.7,0,0,12.4,196.1,946.6)" />
<use xlink:href="#f3_o" transform="matrix(12.7,0,0,12.4,131.4,961.4)" />
<use xlink:href="#f3_m" transform="matrix(12.7,0,0,12.4,222.2,961.4)" />
<use xlink:href="#f4_2k" transform="matrix(12.7,0,0,12.4,146.4,934.7)" />
<use xlink:href="#f4_2k" transform="matrix(12.7,0,0,12.4,222.9,934.7)" />
<use xlink:href="#f4_2k" transform="matrix(12.7,0,0,12.4,141.7,961.4)" />
<use xlink:href="#f5_h" transform="matrix(7.3,0,0,7.2,103.8,938.3)" />
<use xlink:href="#f5_h" transform="matrix(7.3,0,0,7.2,206.6,938.3)" />
<use xlink:href="#f5_h" transform="matrix(12.7,0,0,12.4,131.8,934.7)" />
<use xlink:href="#f5_4g" transform="matrix(12.7,0,0,12.4,57.4,946.6)" />
<use xlink:href="#f5_x" transform="matrix(12.7,0,0,12.4,168.2,946.6)" />
</g>
</g>
<path d="M80.1,996.2H125m19.8,0h11.1" class="g16_65" />
<g clip-path="url(#c15_65)">
<g fill="#000000" >
<use xlink:href="#f3_m" transform="matrix(7.3,0,0,7.2,117.3,980.5)" />
<use xlink:href="#f3_o" transform="matrix(12.7,0,0,12.4,81.2,988.9)" />
<use xlink:href="#f3_o" transform="matrix(12.7,0,0,12.4,93.4,1015.7)" />
<use xlink:href="#f3_m" transform="matrix(12.7,0,0,12.4,146.1,1015.7)" />
<use xlink:href="#f4_2k" transform="matrix(12.7,0,0,12.4,108.3,988.9)" />
<use xlink:href="#f4_2k" transform="matrix(12.7,0,0,12.4,146.7,988.9)" />
<use xlink:href="#f4_2k" transform="matrix(12.7,0,0,12.4,103.7,1015.7)" />
<use xlink:href="#f5_h" transform="matrix(12.7,0,0,12.4,93.8,988.9)" />
<use xlink:href="#f5_4g" transform="matrix(12.7,0,0,12.4,57.4,1000.9)" />
<use xlink:href="#f5_x" transform="matrix(12.7,0,0,12.4,130,1000.9)" />
</g>
</g>
<path d="M110.8,1063.9l1.8,-1.1m.1,0l4.4,7.4m0,0l4.9,-19.6m0,-.1h9.4" class="g17_65" />
<path fill-rule="evenodd" d="M109.9,1062.9l2.5,-1.4l4,6l4.5,-18.2h9.8v1h-9.1l-4.8,19.2h-.9l-4.5,-6.9l-1.2,.8l-.3,-.5Z" class="g5_65" />
<path d="M108.5,1047h23.6" class="g18_65" />
<g clip-path="url(#c16_65)">
<g fill="#000000" >
<use xlink:href="#f3_m" transform="matrix(12.6,0,0,12.4,116,1039.7)" />
<use xlink:href="#f3_c" transform="matrix(12.6,0,0,12.4,136.9,1051.7)" />
<use xlink:href="#f3_k" transform="matrix(12.6,0,0,12.4,186.2,1051.7)" />
<use xlink:href="#f3_d" transform="matrix(12.6,0,0,12.4,195.4,1051.7)" />
<use xlink:href="#f3_n" transform="matrix(12.6,0,0,12.4,121.5,1067.7)" />
<use xlink:href="#f4_2k" transform="matrix(12.6,0,0,12.4,80.8,1051.7)" />
<use xlink:href="#f4_2k" transform="matrix(12.6,0,0,12.4,159.2,1051.7)" />
<use xlink:href="#f5_4g" transform="matrix(12.6,0,0,12.4,57.4,1051.7)" />
<use xlink:href="#f5_x" transform="matrix(12.6,0,0,12.4,93.6,1051.7)" />
<use xlink:href="#f5_y" transform="matrix(12.6,0,0,12.4,171.9,1051.7)" />
</g>
</g>
<image preserveAspectRatio="none" x="140" y="1030" width="74" height="33" xlink:href="img/22.png" />
<g fill="#000000" >
<use xlink:href="#f2_1f" transform="matrix(12,0,0,12,440.9,1093.7)" />
<use xlink:href="#f2_1i" transform="matrix(12,0,0,12,455.2,1093.7)" />
</g>
<path d="M114.4,1126.4h9.9m74,0h18.3" class="g19_65" />
<g clip-path="url(#c17_65)">
<g fill="#000000" >
<use xlink:href="#f3_l" transform="matrix(7.3,0,0,7.1,96.9,1122.8)" />
<use xlink:href="#f3_l" transform="matrix(7.3,0,0,7.1,180.9,1122.8)" />
<use xlink:href="#f3_n" transform="matrix(12.7,0,0,12.3,115.1,1119.2)" />
<use xlink:href="#f3_l" transform="matrix(12.7,0,0,12.3,197.5,1119.2)" />
<use xlink:href="#f3_r" transform="matrix(12.7,0,0,12.3,206.6,1119.2)" />
<use xlink:href="#f3_m" transform="matrix(12.7,0,0,12.3,58,1131.1)" />
<use xlink:href="#f3_2f" transform="matrix(12.7,0,0,12.3,68.4,1131.1)" />
<use xlink:href="#f3_25" transform="matrix(12.7,0,0,12.3,75.5,1131.1)" />
<use xlink:href="#f3_2a" transform="matrix(12.7,0,0,12.3,80.7,1131.1)" />
<use xlink:href="#f3_2g" transform="matrix(12.7,0,0,12.3,151.5,1131.1)" />
<use xlink:href="#f3_1x" transform="matrix(12.7,0,0,12.3,156.7,1131.1)" />
<use xlink:href="#f3_2a" transform="matrix(12.7,0,0,12.3,164.7,1131.1)" />
<use xlink:href="#f3_p" transform="matrix(12.7,0,0,12.3,114.9,1145.7)" />
<use xlink:href="#f3_n" transform="matrix(12.7,0,0,12.3,199,1145.7)" />
<use xlink:href="#f3_l" transform="matrix(12.7,0,0,12.3,208.2,1145.7)" />
<use xlink:href="#f5_h" transform="matrix(7.3,0,0,7.1,91.1,1122.8)" />
<use xlink:href="#f5_h" transform="matrix(7.3,0,0,7.1,175.1,1122.8)" />
<use xlink:href="#f5_4o" transform="matrix(12.7,0,0,12.3,104.5,1120.7)" />
<use xlink:href="#f5_54" transform="matrix(12.7,0,0,12.3,127,1120.7)" />
<use xlink:href="#f5_4o" transform="matrix(12.7,0,0,12.3,188.5,1120.7)" />
<use xlink:href="#f5_54" transform="matrix(12.7,0,0,12.3,219.2,1120.7)" />
<use xlink:href="#f5_h" transform="matrix(12.7,0,0,12.3,137.6,1131.1)" />
<use xlink:href="#f5_4p" transform="matrix(12.7,0,0,12.3,104.5,1136.2)" />
<use xlink:href="#f5_55" transform="matrix(12.7,0,0,12.3,127,1136.2)" />
<use xlink:href="#f5_4p" transform="matrix(12.7,0,0,12.3,188.5,1136.2)" />
<use xlink:href="#f5_55" transform="matrix(12.7,0,0,12.3,219.2,1136.2)" />
<use xlink:href="#f5_4q" transform="matrix(12.7,0,0,12.3,104.5,1147.9)" />
<use xlink:href="#f5_56" transform="matrix(12.7,0,0,12.3,127,1147.9)" />
<use xlink:href="#f5_4q" transform="matrix(12.7,0,0,12.3,188.5,1147.9)" />
<use xlink:href="#f5_56" transform="matrix(12.7,0,0,12.3,219.2,1147.9)" />
</g>
</g>
<path fill-rule="evenodd" d="M37.4,38.1h.7v-.7h-.7v.7Z" class="g5_65" />
<path fill-rule="evenodd" d="M37.4,38.1h.7v-.7h-.7v.7Z" class="g5_65" />
<path fill-rule="evenodd" d="M38.1,38.1H871.5v-.7H38.1v.7Z" class="g5_65" />
<path fill-rule="evenodd" d="M871.5,38.1h.8v-.7h-.8v.7Z" class="g5_65" />
<path fill-rule="evenodd" d="M871.5,38.1h.8v-.7h-.8v.7Z" class="g5_65" />
<path fill-rule="evenodd" d="M37.4,1248.5h.7V38.1h-.7V1248.5Z" class="g5_65" />
<path fill-rule="evenodd" d="M872.3,1248.5h.7V38.1h-.7V1248.5Z" class="g5_65" />
<path fill-rule="evenodd" d="M871.5,1248.5h.8V38.1h-.8V1248.5Z" class="g5_65" />
<path fill-rule="evenodd" d="M37.4,1249.2h.7v-.7h-.7v.7Z" class="g5_65" />
<path fill-rule="evenodd" d="M37.4,1249.2h.7v-.7h-.7v.7Z" class="g5_65" />
<path fill-rule="evenodd" d="M38.1,1249.9H871.5v-.7H38.1v.7Z" class="g5_65" />
<path fill-rule="evenodd" d="M38.1,1249.2H871.5v-.7H38.1v.7Z" class="g5_65" />
<path fill-rule="evenodd" d="M872.3,1249.9h.7v-1.4h-.7v1.4Z" class="g5_65" />
<path fill-rule="evenodd" d="M871.5,1249.9H873v-.7h-1.5v.7Z" class="g5_65" />
<path fill-rule="evenodd" d="M871.5,1249.2h.8v-.7h-.8v.7Z" class="g5_65" />
<path fill-rule="evenodd" d="M871.5,1249.2h.8v-.7h-.8v.7Z" class="g5_65" />
<defs>
<path d="M489,-15c0,0,-99,0,-179,30c0,0,-80,30,-136,91c0,0,-56,61,-85,152c0,0,-30,91,-30,212c0,0,0,123,32,218c0,0,33,96,92,161c0,0,59,65,142,98c0,0,82,34,181,34c0,0,40,0,78,-7c0,0,37,-7,69,-18c0,0,31,-11,57,-25c0,0,25,-14,35,-24c0,0,10,-10,14,-17c0,0,4,-7,6,-17c0,0,2,-11,3,-25c0,0,2,-14,2,-35c0,0,0,-22,-2,-38c0,0,-1,-15,-5,-25c0,0,-4,-10,-9,-14c0,0,-5,-5,-12,-5c0,0,-11,0,-28,13c0,0,-18,13,-45,29c0,0,-27,16,-65,29c0,0,-37,13,-89,13c0,0,-58,0,-103,-23c0,0,-45,-23,-77,-67c0,0,-31,-44,-48,-106c0,0,-16,-61,-16,-139c0,0,0,-85,17,-147c0,0,18,-62,50,-103c0,0,33,-40,79,-60c0,0,45,-19,103,-19c0,0,52,0,90,12c0,0,38,12,65,27c0,0,27,15,45,27c0,0,17,12,27,12c0,0,8,0,12,-3c0,0,4,-3,7,-12c0,0,3,-9,5,-25c0,0,1,-16,1,-43c0,0,0,-18,-1,-31c0,0,-1,-14,-3,-23c0,0,-2,-9,-6,-16c0,0,-4,-7,-12,-15c0,0,-8,-9,-32,-22c0,0,-23,-14,-57,-26C661,13,627,1,583,-6c0,0,-43,-9,-94,-9Z" 
id="f0_j"
transform="scale(0.001,-0.001)" />

<path d="M440,150c0,0,41,0,68,8c0,0,28,9,49,26c0,0,20,16,32,41c0,0,11,25,11,58c0,0,0,33,-11,60c0,0,-11,26,-33,44c0,0,-21,18,-55,28c0,0,-33,9,-87,9H298V150ZM407,567c0,0,42,0,68,10c0,0,25,10,42,28c0,0,16,17,24,41c0,0,9,24,9,50c0,0,0,29,-9,52c0,0,-9,23,-27,39c0,0,-18,15,-45,23c0,0,-27,8,-72,8H298V567ZM164,0c0,0,-25,0,-42,15c0,0,-16,14,-16,47V903c0,0,0,33,16,48c0,0,17,14,42,14H406c0,0,88,0,150,-15c0,0,61,-15,103,-45c0,0,42,-30,65,-77c0,0,22,-46,22,-108c0,0,0,-36,-9,-67c0,0,-9,-31,-26,-56c0,0,-17,-25,-42,-45c0,0,-25,-19,-57,-31c0,0,41,-7,76,-26c0,0,34,-19,60,-48c0,0,26,-30,41,-69c0,0,15,-40,15,-89c0,0,0,-51,-14,-93c0,0,-15,-42,-40,-74c0,0,-25,-32,-59,-55c0,0,-35,-23,-77,-38C614,29,573,14,525,7C525,7,478,0,420,0Z" 
id="f0_i"
transform="scale(0.001,-0.001)" />

<path d="M320,-17c0,0,-50,0,-93,9c0,0,-43,8,-76,19c0,0,-32,11,-54,24C97,35,75,48,65,58c0,0,-10,9,-14,28c0,0,-4,18,-4,52c0,0,0,23,1,39c0,0,2,15,5,25c0,0,4,10,9,14c0,0,6,4,13,4c0,0,11,0,30,-12c0,0,19,-13,49,-28c0,0,30,-15,71,-27c0,0,42,-12,96,-12c0,0,36,0,64,8c0,0,29,9,49,25c0,0,19,15,30,38c0,0,10,23,10,52c0,0,0,33,-18,56c0,0,-18,24,-46,42c0,0,-29,18,-66,34c0,0,-36,16,-75,34c0,0,-39,18,-76,41c0,0,-36,23,-65,54c0,0,-29,32,-47,75c0,0,-17,44,-17,104c0,0,0,70,25,122c0,0,26,53,70,88c0,0,43,34,103,51c0,0,59,18,125,18c0,0,35,0,69,-6c0,0,34,-5,64,-14c0,0,30,-9,53,-20c0,0,23,-11,31,-18c0,0,7,-8,10,-13c0,0,3,-5,4,-14c0,0,2,-8,3,-21c0,0,1,-13,1,-33c0,0,0,-21,-1,-36c0,0,-1,-15,-4,-25c0,0,-3,-9,-7,-14c0,0,-5,-4,-14,-4c0,0,-8,0,-26,10c0,0,-18,10,-44,23c0,0,-26,12,-60,22c0,0,-34,10,-75,10c0,0,-32,0,-56,-8c0,0,-24,-8,-40,-21c0,0,-16,-14,-24,-34c0,0,-8,-19,-8,-41c0,0,0,-32,18,-56c0,0,17,-23,46,-42c0,0,30,-18,67,-34c0,0,38,-16,76,-34c0,0,39,-18,76,-41c0,0,38,-22,67,-54c0,0,29,-32,47,-75c0,0,18,-43,18,-101c0,0,0,-76,-29,-133c0,0,-28,-58,-77,-96C572,60,524,21,459,2c0,0,-65,-19,-139,-19Z" 
id="f0_2n"
transform="scale(0.001,-0.001)" />

<path d="M164,0c0,0,-25,0,-42,15c0,0,-16,14,-16,47V903c0,0,0,33,16,48c0,0,17,14,42,14H645c0,0,7,0,12,-4c0,0,5,-3,9,-13c0,0,4,-9,6,-24c0,0,2,-14,2,-36c0,0,0,-21,-2,-36c0,0,-2,-14,-6,-23c0,0,-4,-9,-9,-13c0,0,-5,-4,-12,-4H301V576H593c0,0,6,0,12,-4c0,0,6,-4,9,-13c0,0,4,-8,6,-23c0,0,2,-14,2,-35c0,0,0,-22,-2,-36c0,0,-2,-14,-6,-23c0,0,-3,-8,-9,-12c0,0,-6,-4,-12,-4H301V154H649c0,0,6,0,12,-5c0,0,5,-4,9,-13c0,0,4,-9,6,-23c0,0,2,-15,2,-36c0,0,0,-22,-2,-36c0,0,-2,-15,-6,-24c0,0,-4,-9,-9,-13c0,0,-6,-4,-12,-4Z" 
id="f0_t"
transform="scale(0.001,-0.001)" />

<path d="M79,297c0,0,-19,0,-27,18c0,0,-8,17,-8,60c0,0,0,41,8,59c0,0,8,17,27,17H389c0,0,9,0,15,-4c0,0,7,-4,11,-13c0,0,5,-9,7,-23c0,0,1,-15,1,-36c0,0,0,-43,-8,-61c0,0,-8,-17,-26,-17Z" 
id="f0_oj"
transform="scale(0.001,-0.001)" />

<path d="M121,-4c0,0,-39,0,-60,2C61,-2,39,0,32,8c0,0,-8,8,-3,24c0,0,4,15,18,41L279,495L64,892c0,0,-14,26,-19,42c0,0,-5,17,4,24c0,0,9,8,32,10c0,0,23,2,65,2c0,0,35,0,56,-2c0,0,20,-1,32,-4c0,0,12,-4,17,-10c0,0,5,-6,9,-15L431,620L595,939c0,0,5,9,10,15c0,0,5,6,16,10c0,0,10,3,29,4c0,0,19,2,53,2c0,0,37,0,59,-2c0,0,22,-2,30,-10c0,0,8,-8,4,-24c0,0,-4,-16,-17,-42L564,497L793,73c0,0,14,-26,18,-41c0,0,4,-16,-5,-24c0,0,-9,-8,-32,-10c0,0,-24,-2,-65,-2c0,0,-36,0,-56,2c0,0,-20,1,-31,3c0,0,-12,4,-17,10c0,0,-5,6,-9,15L414,374L233,26c0,0,-4,-9,-9,-15c0,0,-6,-6,-17,-10c0,0,-12,-2,-32,-3c0,0,-21,-2,-54,-2Z" 
id="f0_3e"
transform="scale(0.001,-0.001)" />

<path d="M204,-4c0,0,-28,0,-47,2c0,0,-19,2,-31,5c0,0,-11,4,-16,10c0,0,-4,6,-4,13V939c0,0,0,7,4,13c0,0,5,6,17,10c0,0,11,3,30,6c0,0,19,2,47,2c0,0,29,0,48,-2c0,0,18,-3,29,-6c0,0,11,-4,16,-10c0,0,5,-6,5,-13V26c0,0,0,-7,-5,-13c0,0,-5,-6,-16,-10c0,0,-11,-3,-29,-5c0,0,-19,-2,-48,-2Z" 
id="f0_1c"
transform="scale(0.001,-0.001)" />

<path d="M127,0c0,0,-16,0,-28,3C99,3,87,6,80,15c0,0,-8,8,-11,25c0,0,-3,16,-3,42c0,0,0,25,2,42c0,0,2,18,8,32c0,0,6,14,15,27c0,0,9,13,24,29L282,390c0,0,50,53,81,95c0,0,30,43,47,79c0,0,17,35,24,65c0,0,6,30,6,57c0,0,0,24,-8,46c0,0,-8,22,-23,39c0,0,-15,16,-38,25c0,0,-23,10,-55,10c0,0,-44,0,-78,-12c0,0,-33,-11,-59,-25c0,0,-26,-13,-43,-25c0,0,-17,-12,-27,-12c0,0,-7,0,-11,5c0,0,-5,4,-8,15c0,0,-3,10,-5,28c0,0,-2,17,-2,42c0,0,0,18,1,29c0,0,1,12,4,20c0,0,2,9,6,15c0,0,3,6,13,15c0,0,9,9,34,23c0,0,25,14,61,27c0,0,37,14,81,23c0,0,44,9,92,9c0,0,75,0,131,-19c0,0,57,-19,94,-53c0,0,37,-34,55,-81c0,0,19,-47,19,-100c0,0,0,-47,-9,-93c0,0,-9,-45,-37,-98c0,0,-29,-52,-80,-116c0,0,-52,-64,-136,-148L299,159H679c0,0,8,0,14,-4c0,0,6,-5,11,-14c0,0,4,-9,7,-25c0,0,2,-15,2,-36c0,0,0,-22,-2,-37c0,0,-2,-15,-6,-25c0,0,-3,-10,-9,-14c0,0,-6,-4,-14,-4Z" 
id="f0_rz"
transform="scale(0.001,-0.001)" />

<path d="M385,138c0,0,29,0,52,9c0,0,22,10,39,28c0,0,17,19,28,47c0,0,11,29,19,66c0,0,7,37,9,84c0,0,3,47,3,104c0,0,0,69,-4,122c0,0,-4,52,-11,91c0,0,-8,39,-20,66c0,0,-12,27,-28,43c0,0,-16,16,-37,22c0,0,-21,7,-47,7c0,0,-44,0,-73,-21c0,0,-28,-21,-45,-64c0,0,-17,-42,-24,-106c0,0,-6,-63,-6,-148c0,0,0,-103,8,-171c0,0,8,-67,26,-107c0,0,17,-40,45,-56c0,0,27,-16,66,-16ZM378,-17c0,0,-99,0,-164,33c0,0,-65,34,-103,98c0,0,-38,64,-54,156c0,0,-15,92,-15,209c0,0,0,115,19,208c0,0,19,94,61,160c0,0,42,65,110,101c0,0,68,35,165,35c0,0,99,0,164,-34c0,0,65,-34,103,-98c0,0,39,-64,53,-156c0,0,15,-92,15,-209c0,0,0,-115,-18,-209c0,0,-19,-93,-61,-159C653,118,611,53,543,17c0,0,-67,-34,-165,-34Z" 
id="f0_rx"
transform="scale(0.001,-0.001)" />

<path d="M142,0c0,0,-6,0,-12,4c0,0,-5,3,-9,12c0,0,-4,9,-6,23c0,0,-3,15,-3,36c0,0,0,21,2,36c0,0,2,14,6,23c0,0,4,9,10,13c0,0,5,5,12,5H322V779L166,693c0,0,-17,-8,-28,-10c0,0,-1,0,-3,0c-4,0,-10,1,-14,5c0,0,-6,6,-8,22c0,0,-2,15,-2,44c0,0,0,18,0,29c0,0,1,12,4,20c0,0,3,8,8,14c0,0,5,5,14,11L345,962c0,0,4,3,9,5c0,0,6,2,15,3c0,0,9,1,23,2c0,0,15,0,38,0c0,0,28,0,46,-1c0,0,17,-1,26,-4c0,0,9,-3,12,-7c0,0,3,-4,3,-11V152H675c0,0,7,0,12,-5c0,0,6,-4,10,-13c0,0,4,-9,6,-23c0,0,2,-15,2,-36c0,0,0,-21,-2,-36c0,0,-3,-14,-7,-23c0,0,-4,-9,-9,-12c0,0,-5,-4,-12,-4Z" 
id="f0_ry"
transform="scale(0.001,-0.001)" />

<path d="M398,134c0,0,34,0,60,12c0,0,25,13,43,36c0,0,17,23,26,54c0,0,9,31,9,68c0,0,0,38,-7,66c0,0,-7,29,-22,49c0,0,-15,20,-39,30c0,0,-25,10,-60,10c0,0,-21,0,-41,-4c0,0,-20,-4,-40,-10c0,0,-19,-7,-37,-16c0,0,-18,-10,-33,-20c0,0,0,-80,9,-133c0,0,9,-54,26,-85c0,0,18,-31,44,-44c0,0,27,-13,62,-13ZM387,-16c0,0,-67,0,-117,15c0,0,-50,14,-86,43c0,0,-37,29,-60,70c0,0,-23,41,-37,92c0,0,-14,52,-19,112c0,0,-5,61,-5,129c0,0,0,56,5,118c0,0,6,62,22,122c0,0,16,59,45,114c0,0,29,54,75,94c0,0,46,41,111,65c0,0,65,24,155,24c0,0,28,0,57,-4c0,0,29,-3,53,-8c0,0,25,-5,42,-12c0,0,17,-7,23,-12c0,0,5,-5,8,-11c0,0,3,-5,5,-13c0,0,2,-7,3,-17c0,0,1,-11,1,-25c0,0,0,-24,-1,-39c0,0,-2,-15,-5,-24c0,0,-3,-8,-8,-12c0,0,-5,-4,-12,-4c0,0,-9,0,-24,5c0,0,-14,5,-34,11c0,0,-20,6,-47,10c0,0,-27,5,-63,5c0,0,-61,0,-102,-23c0,0,-42,-22,-68,-60c0,0,-26,-39,-38,-90c0,0,-12,-50,-13,-107c0,0,16,10,38,21c0,0,21,10,46,18c0,0,25,7,54,12c0,0,29,5,62,5c0,0,73,0,125,-20c0,0,52,-20,86,-58c0,0,33,-37,48,-90c0,0,16,-53,16,-118c0,0,0,-73,-22,-135c0,0,-23,-62,-66,-108C640,79,597,34,533,9c0,0,-63,-25,-146,-25Z" 
id="f0_s3"
transform="scale(0.001,-0.001)" />

<path d="M589,371L453,782h-1L317,371ZM106,-4c0,0,-35,0,-54,2C52,-2,32,0,25,8c0,0,-7,9,-5,24c0,0,2,16,11,42L329,931c0,0,4,13,10,21c0,0,6,7,19,12c0,0,13,4,36,5c0,0,23,1,61,1c0,0,44,0,71,-1c0,0,26,-1,40,-5c0,0,15,-5,21,-13c0,0,6,-8,11,-22L896,73c0,0,9,-27,11,-43c0,0,3,-15,-6,-23c0,0,-8,-7,-29,-9c0,0,-21,-2,-57,-2c0,0,-38,0,-59,1c0,0,-22,1,-33,4c0,0,-11,3,-16,9c0,0,-4,6,-7,16L635,220H272L211,31c0,0,-2,-11,-7,-18c0,0,-5,-7,-16,-11c0,0,-11,-3,-31,-4c0,0,-19,-2,-51,-2Z" 
id="f0_5"
transform="scale(0.001,-0.001)" />

<path d="M198,-4c0,0,-27,0,-45,2c0,0,-18,2,-28,5c0,0,-11,4,-15,10c0,0,-4,6,-4,13V887c0,0,0,38,20,58c0,0,20,20,53,20H308c0,0,34,0,59,-6c0,0,24,-5,42,-18c0,0,18,-13,30,-35c0,0,12,-21,21,-52L669,279h3L889,852c0,0,9,32,21,53c0,0,11,22,27,35c0,0,15,14,36,19c0,0,21,6,48,6h132c0,0,21,0,35,-5c0,0,15,-5,24,-15c0,0,9,-11,14,-25c0,0,5,-15,5,-33V26c0,0,0,-7,-4,-13c0,0,-4,-6,-15,-10c0,0,-11,-3,-29,-5c0,0,-18,-2,-45,-2c0,0,-27,0,-45,2c0,0,-18,2,-28,5c0,0,-11,4,-15,10c0,0,-5,6,-5,13V813h-1L764,27c0,0,-3,-10,-10,-16c0,0,-6,-6,-18,-10c0,0,-12,-3,-29,-4c0,0,-18,-1,-44,-1c0,0,-25,0,-43,2c0,0,-18,2,-29,5c0,0,-12,4,-19,10c0,0,-6,6,-9,14L293,813h-2V26c0,0,0,-7,-4,-13c0,0,-4,-6,-15,-10c0,0,-11,-3,-29,-5c0,0,-17,-2,-45,-2Z" 
id="f0_1x"
transform="scale(0.001,-0.001)" />

<path d="M193,-4c0,0,-26,0,-43,2c0,0,-18,2,-27,6c0,0,-10,4,-14,10c0,0,-3,6,-3,13V895c0,0,0,35,20,53c0,0,21,17,50,17H282c0,0,28,0,47,-5c0,0,20,-5,35,-16c0,0,15,-11,29,-31c0,0,13,-20,27,-49L608,511c0,0,17,-32,33,-63c0,0,16,-31,31,-62c0,0,14,-31,29,-60c0,0,14,-30,27,-60h1c0,0,-2,52,-3,109c0,0,-1,57,-1,108V936c0,0,0,7,4,13c0,0,5,6,15,11c0,0,10,4,28,6c0,0,17,2,44,2c0,0,25,0,42,-2c0,0,17,-2,27,-6c0,0,9,-5,13,-11c0,0,4,-6,4,-13V68c0,0,0,-17,-6,-30c0,0,-6,-14,-17,-23C879,15,869,6,856,2c0,0,-14,-3,-28,-3H744c0,0,-26,0,-45,4c0,0,-19,5,-35,19c0,0,-16,14,-31,38c0,0,-15,23,-34,60L359,572c0,0,-21,40,-43,86c0,0,-21,47,-38,91h-2c0,0,3,-54,5,-107c0,0,2,-53,2,-110V27c0,0,0,-7,-5,-13c0,0,-4,-6,-14,-10c0,0,-10,-4,-27,-6c0,0,-17,-2,-44,-2Z" 
id="f0_1y"
transform="scale(0.001,-0.001)" />

<path d="M378,-4c0,0,-28,0,-47,2c0,0,-19,2,-31,5c0,0,-11,4,-16,10c0,0,-4,6,-4,13V805H38c0,0,-8,0,-13,4c0,0,-5,5,-9,14c0,0,-3,9,-5,25c0,0,-2,15,-2,37c0,0,0,22,2,38c0,0,2,15,5,25c0,0,4,9,9,13c0,0,5,4,13,4H718c0,0,7,0,12,-4c0,0,6,-4,10,-13c0,0,3,-10,5,-25c0,0,2,-16,2,-38c0,0,0,-22,-2,-37c0,0,-2,-16,-5,-25c0,0,-4,-9,-10,-14c0,0,-5,-4,-12,-4H476V26c0,0,0,-7,-5,-13c0,0,-5,-6,-16,-10c0,0,-11,-3,-30,-5c0,0,-19,-2,-47,-2Z" 
id="f0_2t"
transform="scale(0.001,-0.001)" />

<path d="M514,145c0,0,72,0,121,27c0,0,48,26,78,73c0,0,30,46,42,107c0,0,13,62,13,131c0,0,0,76,-12,139c0,0,-12,62,-41,106c0,0,-29,45,-76,69c0,0,-48,24,-120,24c0,0,-72,0,-120,-27c0,0,-49,-27,-79,-73c0,0,-29,-45,-42,-106c0,0,-12,-61,-12,-129c0,0,0,-79,12,-142c0,0,12,-63,40,-108c0,0,28,-44,76,-68c0,0,48,-23,120,-23ZM508,-17c0,0,-113,0,-196,29c0,0,-84,29,-140,90c0,0,-56,60,-84,154c0,0,-28,93,-28,221c0,0,0,117,29,210c0,0,30,94,89,160c0,0,59,65,146,101c0,0,87,35,202,35c0,0,110,0,194,-29c0,0,84,-30,140,-90c0,0,56,-60,85,-153c0,0,29,-92,29,-217c0,0,0,-120,-30,-215c0,0,-30,-95,-89,-161C855,118,796,52,709,17c0,0,-87,-34,-201,-34Z" 
id="f0_24"
transform="scale(0.001,-0.001)" />

<path d="M75,0L400,413c0,0,71,91,101,149c0,0,30,58,30,109c0,0,0,55,-36,91c0,0,-36,36,-91,36c0,0,-63,0,-91,-45c0,0,-28,-46,-34,-142H67c0,0,0,173,102,268c0,0,102,95,253,95c0,0,140,0,229,-82c0,0,89,-82,89,-209c0,0,0,-125,-104,-276L580,324c0,0,-34,-50,-85,-114L468,178H740V0Z" 
id="f1_m"
transform="scale(0.001,-0.001)" />

<path d="M44,-281L425,1053H537L156,-281Z" 
id="f1_j"
transform="scale(0.001,-0.001)" />

<path d="M299,0V777H162l36,173H508V0Z" 
id="f1_l"
transform="scale(0.001,-0.001)" />

<path d="M186,-28L17,77L450,779H39V952H793L186,-28Z" 
id="f1_r"
transform="scale(0.001,-0.001)" />

<path d="M346,-14c0,0,-139,0,-276,29L61,258h69L169,96c0,0,29,-16,71,-26c0,0,43,-10,77,-10c0,0,172,0,172,230c0,0,0,120,-44,174c0,0,-44,53,-139,53c0,0,-53,0,-97,-19L186,488H111v512H633V834H194V571c0,0,91,21,164,21c0,0,178,0,264,-74c0,0,86,-73,86,-220c0,0,0,-151,-94,-232c0,0,-93,-80,-268,-80Z" 
id="f2_p"
transform="scale(0.001,-0.001)" />

<path d="M191,-20c0,0,-51,0,-88,34c0,0,-36,36,-36,88c0,0,0,52,36,88c0,0,36,36,88,36c0,0,51,0,88,-36c0,0,36,-36,36,-88c0,0,0,-51,-36,-87c0,0,-36,-35,-88,-35Z" 
id="f2_i"
transform="scale(0.001,-0.001)" />

<path d="M54,0V40L172,60V941L44,960v40H794V760H745L721,922c0,0,-83,11,-241,11H316V516H611l23,120h46V328H634L611,449H316V60L483,40V0Z" 
id="f3_16"
transform="scale(0.001,-0.001)" />

<path d="M32,0V33L151,52V649L52,668v33H275V52L395,33V0ZM201,850c0,0,-32,0,-56,24c0,0,-24,24,-24,56c0,0,0,34,24,58c0,0,24,24,56,24c0,0,34,0,58,-24c0,0,24,-24,24,-58c0,0,0,-32,-24,-56c0,0,-24,-24,-58,-24Z" 
id="f3_25"
transform="scale(0.001,-0.001)" />

<path d="M439,0V33l93,19V500c0,0,0,62,-30,97c0,0,-31,36,-94,36c0,0,-67,0,-165,-22V52L338,33V0H35V33l84,19V649L35,668v33H235l7,-57c0,0,57,33,122,54c0,0,65,22,108,22c0,0,91,0,137,-53c0,0,47,-53,47,-154V52L741,33V0Z" 
id="f3_2a"
transform="scale(0.001,-0.001)" />

<path d="M383,64c0,0,85,0,152,28V645c0,0,-67,13,-152,13c0,0,-194,0,-194,-314c0,0,0,-141,48,-211c0,0,48,-69,146,-69ZM342,-14c0,0,-287,0,-287,358c0,0,0,184,82,280c0,0,81,96,239,96c0,0,81,0,163,-18c0,0,-4,25,-4,124v182l-118,18v34H659V52L745,33V0H548l-9,52c0,0,-84,-66,-197,-66Z" 
id="f3_20"
transform="scale(0.001,-0.001)" />

<path d="M249,-14c0,0,-71,0,-107,42c0,0,-35,42,-35,119V639H15v33l93,29l76,159h47V701H391V639H231V161c0,0,0,-48,22,-73c0,0,22,-24,57,-24c0,0,44,0,106,12V26C416,26,389,8,340,-2c0,0,-49,-12,-91,-12Z" 
id="f3_2g"
transform="scale(0.001,-0.001)" />

<path d="M442,0V33l93,19V504c0,0,0,129,-124,129c0,0,-70,0,-168,-22V52L338,33V0H31V33l88,19v956L15,1026v34H243V756c0,0,0,-77,-5,-112c0,0,54,31,122,53c0,0,68,23,115,23c0,0,91,0,137,-53c0,0,47,-53,47,-154V52L744,33V0Z" 
id="f3_24"
transform="scale(0.001,-0.001)" />

<path d="M495,413c0,0,0,133,-34,190c0,0,-34,57,-105,57c0,0,-78,0,-119,-63c0,0,-42,-62,-42,-184ZM374,-14c0,0,-163,0,-239,87c0,0,-75,88,-75,283c0,0,0,183,77,273c0,0,76,91,219,91c0,0,269,0,269,-306V353H194V340c0,0,0,-103,23,-160c0,0,22,-57,70,-87c0,0,47,-29,124,-29c0,0,40,0,96,6c0,0,55,7,91,15V43C598,43,562,20,500,3c0,0,-61,-17,-126,-17Z" 
id="f3_21"
transform="scale(0.001,-0.001)" />

<path d="M382,45c0,0,188,0,188,314c0,0,0,143,-47,213c0,0,-46,69,-141,69c0,0,-87,0,-146,-24V58c0,0,67,-13,146,-13ZM25,-325v35l88,18V649L34,668v33H231l1,-41c0,0,31,27,84,43c0,0,53,17,107,17c0,0,134,0,208,-94c0,0,73,-93,73,-267c0,0,0,-178,-80,-276c0,0,-80,-97,-232,-97c0,0,-84,0,-160,16c0,0,4,-53,4,-84V-272l123,-18v-35Z" 
id="f3_2c"
transform="scale(0.001,-0.001)" />

<path d="M377,45c0,0,99,0,147,73c0,0,47,73,47,237c0,0,0,161,-47,233c0,0,-47,72,-147,72c0,0,-97,0,-141,-69c0,0,-44,-69,-44,-236c0,0,0,-169,45,-240c0,0,44,-70,140,-70Zm0,-59c0,0,-158,0,-238,94c0,0,-81,95,-81,274c0,0,0,178,81,272c0,0,80,94,244,94c0,0,160,0,241,-92c0,0,82,-92,82,-274c0,0,0,-368,-329,-368Z" 
id="f3_2b"
transform="scale(0.001,-0.001)" />

<path d="M278,-14c0,0,-52,0,-115,11c0,0,-63,10,-99,23V193H98L134,95c0,0,56,-50,146,-50c0,0,144,0,144,123c0,0,0,91,-114,130l-66,21c0,0,-75,25,-110,50c0,0,-34,26,-53,63c0,0,-18,36,-18,89c0,0,0,92,63,145c0,0,63,54,170,54c0,0,77,0,193,-23V544H454l-32,81c0,0,-39,35,-124,35c0,0,-61,0,-92,-30c0,0,-32,-30,-32,-80c0,0,0,-43,29,-72c0,0,28,-29,86,-48c0,0,110,-38,144,-55c0,0,33,-17,57,-42c0,0,23,-25,36,-57c0,0,13,-32,13,-79c0,0,0,-104,-66,-158c0,0,-66,-53,-195,-53Z" 
id="f3_2f"
transform="scale(0.001,-0.001)" />

<path d="M360,-14L72,649L0,668v33H327V668L216,648L420,164L615,649L504,668v33H764V668L697,652L416,-14Z" 
id="f3_2i"
transform="scale(0.001,-0.001)" />

<path d="M399,-14c0,0,-341,0,-341,370c0,0,0,175,87,269c0,0,87,95,249,95c0,0,101,0,220,-23V501H573L541,625c0,0,-62,35,-149,35c0,0,-200,0,-200,-304c0,0,0,-158,61,-225c0,0,61,-67,189,-67c0,0,109,0,189,24V43C631,43,595,16,530,1c0,0,-64,-15,-131,-15Z" 
id="f3_1z"
transform="scale(0.001,-0.001)" />

<path d="M31,0V33l88,19V649L31,668v33H235l7,-87c0,0,44,37,121,71c0,0,76,35,121,35h11V530H463l-43,82c0,0,-37,0,-88,-10c0,0,-52,-10,-89,-26V52L363,33V0Z" 
id="f3_2e"
transform="scale(0.001,-0.001)" />

<path d="M64,0V34L168,59V639H47v36l121,29v49c0,0,0,155,61,239c0,0,62,84,173,84c0,0,58,0,107,-15V908H472l-33,92c0,0,-26,16,-62,16c0,0,-47,0,-66,-42c0,0,-19,-42,-19,-157V701H478V639H292V59L443,34V0Z" 
id="f3_22"
transform="scale(0.001,-0.001)" />

<path d="M327,-14L84,649L1,668v33H335V668L219,648L385,174L554,632h63L786,171L944,649L830,668v33h267V668l-78,-16L784,-14H726L553,448L382,-14Z" 
id="f3_2j"
transform="scale(0.001,-0.001)" />

<path d="M64,-325c0,0,-46,0,-107,14v148H-8l19,-81c0,0,25,-21,62,-21c0,0,44,0,67,47c0,0,22,47,22,152V649L57,668v33H286V-28c0,0,0,-146,-57,-221c0,0,-56,-76,-165,-76ZM213,850c0,0,-34,0,-58,24c0,0,-24,24,-24,56c0,0,0,34,24,58c0,0,24,24,58,24c0,0,32,0,56,-24c0,0,24,-24,24,-58c0,0,0,-32,-24,-56c0,0,-24,-24,-56,-24Z" 
id="f3_26"
transform="scale(0.001,-0.001)" />

<path d="M350,-14c0,0,-142,0,-269,31L73,228h49L156,87c0,0,29,-16,82,-28c0,0,54,-12,100,-12c0,0,117,0,173,54c0,0,56,53,56,178c0,0,0,99,-52,150c0,0,-51,51,-159,56l-107,6v61l107,7c0,0,84,5,124,52c0,0,41,48,41,145c0,0,0,101,-44,147c0,0,-44,45,-139,45c0,0,-40,0,-83,-10c0,0,-43,-11,-76,-29L153,786H104V979c0,0,74,19,127,26c0,0,54,6,107,6c0,0,321,0,321,-246c0,0,0,-104,-57,-165c0,0,-57,-62,-162,-77c0,0,136,-16,200,-78c0,0,64,-62,64,-173c0,0,0,-135,-92,-211c0,0,-93,-75,-262,-75Z" 
id="f3_n"
transform="scale(0.001,-0.001)" />

<path d="M301,78c0,0,85,0,185,104l81,442c0,0,-29,20,-55,28c0,0,-25,8,-62,8c0,0,-75,0,-137,-56c0,0,-62,-56,-98,-152c0,0,-36,-95,-36,-199c0,0,0,-79,33,-127c0,0,33,-48,89,-48ZM245,-14c0,0,-90,0,-145,66c0,0,-54,66,-54,182c0,0,0,131,57,244c0,0,57,114,152,178c0,0,96,64,208,64c0,0,90,0,170,-33l33,26h40L589,52L673,33L667,0H454l22,117C476,117,350,-14,245,-14Z" 
id="f4_1x"
transform="scale(0.001,-0.001)" />

<path d="M305,45c0,0,76,0,141,56c0,0,64,56,101,151c0,0,37,95,37,200c0,0,0,83,-35,129c0,0,-34,46,-92,46c0,0,-44,0,-96,-29c0,0,-51,-29,-97,-75L185,81c0,0,43,-36,120,-36ZM295,-14c0,0,-65,0,-128,16C167,2,104,19,57,48l171,960l-100,18l6,34H358L303,731c0,0,-13,-85,-29,-144c0,0,59,61,122,97c0,0,64,36,116,36c0,0,94,0,150,-67c0,0,56,-67,56,-182c0,0,0,-129,-56,-242C662,229,606,115,509,50c0,0,-98,-64,-214,-64Z" 
id="f4_1y"
transform="scale(0.001,-0.001)" />

<path d="M355,0V355H0v72H355V784h72V427H782V355H427V0Z" 
id="f5_f"
transform="scale(0.001,-0.001)" />

<path d="M284,67c0,0,51,0,88,12c0,0,37,12,74,30V358l-98,-3c0,0,-100,-4,-135,-39c0,0,-35,-35,-35,-117c0,0,0,-132,106,-132ZM233,-14c0,0,-179,0,-179,208c0,0,0,70,27,116c0,0,27,46,87,70c0,0,60,24,173,27l105,3V519c0,0,0,72,-26,107c0,0,-27,34,-82,34c0,0,-75,0,-137,-35L176,538H134V691c0,0,121,26,213,26c0,0,115,0,169,-47c0,0,54,-47,54,-144V52L657,33V0H465L451,70c0,0,-85,-84,-218,-84Z" 
id="f3_1x"
transform="scale(0.001,-0.001)" />

<path d="M0,356v74H784V356Z" 
id="f5_h"
transform="scale(0.001,-0.001)" />

<path d="M31,0V33L150,52v956L31,1026v34H274V52L394,33V0Z" 
id="f3_28"
transform="scale(0.001,-0.001)" />

<path d="M148,-329c0,0,-58,0,-114,13v151H69l24,-71c0,0,23,-17,64,-17c0,0,39,0,72,22c0,0,33,23,60,67c0,0,27,44,68,157L90,649L19,668v33H344V668L233,648L423,158L606,649L497,668v33H758V668L685,652L411,-43c0,0,-48,-124,-84,-177c0,0,-36,-54,-79,-82c0,0,-44,-27,-100,-27Z" 
id="f3_2l"
transform="scale(0.001,-0.001)" />

<path d="M134,0V40L339,60V876L137,804v39l292,166h39V60L672,40V0Z" 
id="f3_l"
transform="scale(0.001,-0.001)" />

<path d="M211,-20c0,0,-39,0,-64,25c0,0,-26,27,-26,64c0,0,0,38,26,64c0,0,26,26,64,26c0,0,37,0,64,-25c0,0,26,-26,26,-65c0,0,0,-37,-26,-64c0,0,-26,-25,-64,-25Zm0,556c0,0,-38,0,-64,26c0,0,-26,26,-26,64c0,0,0,37,26,64c0,0,25,27,64,27c0,0,38,0,64,-27c0,0,26,-27,26,-64c0,0,0,-38,-26,-64c0,0,-27,-26,-64,-26Z" 
id="f3_u"
transform="scale(0.001,-0.001)" />

<path d="M191,-20c0,0,-39,0,-65,25c0,0,-25,27,-25,64c0,0,0,38,26,64c0,0,26,26,64,26c0,0,38,0,64,-26c0,0,26,-26,26,-64c0,0,0,-37,-25,-64c0,0,-26,-25,-65,-25Z" 
id="f3_i"
transform="scale(0.001,-0.001)" />

<path d="M410,-14c0,0,-86,0,-175,14C235,0,145,14,81,38V307h66L181,146c0,0,31,-37,94,-62c0,0,64,-24,132,-24c0,0,214,0,214,177c0,0,0,55,-41,93c0,0,-41,38,-128,68c0,0,-128,42,-185,68c0,0,-56,27,-95,63c0,0,-38,36,-62,87c0,0,-23,51,-23,125c0,0,0,132,90,201c0,0,90,69,263,69c0,0,125,0,278,-32V741H651L618,878c0,0,-76,56,-178,56c0,0,-92,0,-141,-34c0,0,-49,-34,-49,-104c0,0,0,-50,41,-86c0,0,41,-35,128,-63c0,0,171,-56,235,-97c0,0,64,-41,97,-103c0,0,34,-61,34,-143c0,0,0,-318,-375,-318Z" 
id="f2_1j"
transform="scale(0.001,-0.001)" />

<path d="M379,60c0,0,59,0,84,64c0,0,24,65,24,231c0,0,0,164,-24,227c0,0,-24,63,-84,63c0,0,-57,0,-80,-60c0,0,-22,-61,-22,-230c0,0,0,-173,23,-234c0,0,22,-61,79,-61Zm-2,-74c0,0,-161,0,-240,91c0,0,-79,91,-79,277c0,0,0,186,80,276c0,0,81,90,245,90c0,0,167,0,245,-93c0,0,78,-93,78,-273c0,0,0,-188,-81,-278c0,0,-81,-90,-248,-90Z" 
id="f2_2b"
transform="scale(0.001,-0.001)" />

<path d="M30,0V49l76,18V992l-72,18v50H322V67L398,49V0Z" 
id="f2_28"
transform="scale(0.001,-0.001)" />

<path d="M287,-18c0,0,-194,0,-194,206V634L23,652v49H309V217c0,0,0,-63,26,-98c0,0,27,-35,76,-35c0,0,57,0,113,25V634l-64,18v49H740V67L809,49V0H536L526,61L475,35c0,0,-104,-53,-188,-53Z" 
id="f2_2h"
transform="scale(0.001,-0.001)" />

<path d="M327,-14c0,0,-101,0,-156,45c0,0,-55,45,-55,131V624H25v48l108,29l87,159H332V701H480V624H332V176c0,0,0,-49,20,-73c0,0,20,-25,53,-25c0,0,40,0,97,12V26c0,0,-22,-15,-76,-27c0,0,-55,-13,-99,-13Z" 
id="f2_2g"
transform="scale(0.001,-0.001)" />

<path d="M34,0V49l76,18V634L38,652v49H325V67L402,49V0ZM217,831c0,0,-48,0,-81,33c0,0,-34,33,-34,82c0,0,0,48,34,81c0,0,34,33,81,33c0,0,48,0,81,-33c0,0,33,-33,33,-81c0,0,0,-47,-33,-81c0,0,-32,-34,-81,-34Z" 
id="f2_25"
transform="scale(0.001,-0.001)" />

<path d="M41,0V49l69,18V634L41,652v49H313l11,-61l50,26c0,0,105,54,188,54c0,0,194,0,194,-207V67L827,49V0H478V49l63,18V484c0,0,0,63,-27,98c0,0,-26,35,-75,35c0,0,-57,0,-114,-25V67L389,49V0Z" 
id="f2_2a"
transform="scale(0.001,-0.001)" />

<path d="M248,-20c0,0,-52,0,-87,34c0,0,-36,36,-36,88c0,0,0,52,36,88c0,0,35,36,87,36c0,0,52,0,88,-36c0,0,36,-36,36,-88c0,0,0,-51,-36,-87c0,0,-35,-35,-88,-35Zm0,488c0,0,-52,0,-87,36c0,0,-36,36,-36,88c0,0,0,52,35,88c0,0,35,36,88,36c0,0,53,0,89,-36c0,0,35,-37,35,-88c0,0,0,-51,-36,-87c0,0,-35,-37,-88,-37Z" 
id="f2_u"
transform="scale(0.001,-0.001)" />

<path d="M460,-325c0,0,-148,79,-231,172c0,0,-84,93,-123,217c0,0,-39,126,-39,304c0,0,0,178,39,303c0,0,39,125,122,217c0,0,82,93,232,172V997c0,0,-91,-52,-145,-134c0,0,-54,-81,-79,-190c0,0,-25,-109,-25,-305c0,0,0,-194,26,-309c0,0,26,-114,82,-193c0,0,56,-79,141,-128v-63Z" 
id="f3_c"
transform="scale(0.001,-0.001)" />

<path d="M49,-325v63c0,0,85,49,140,128c0,0,56,79,83,194c0,0,26,115,26,308c0,0,0,196,-25,305c0,0,-25,109,-79,190c0,0,-54,82,-145,134v63c0,0,149,-80,232,-172c0,0,83,-92,122,-217c0,0,39,-125,39,-303c0,0,0,-177,-39,-303c0,0,-39,-125,-122,-217c0,0,-83,-93,-232,-173Z" 
id="f3_d"
transform="scale(0.001,-0.001)" />

<path d="M476,327V830h-4L114,327ZM476,0V220H30v99l488,686h86V327H740V220H604V0Z" 
id="f3_o"
transform="scale(0.001,-0.001)" />

<path d="M58,-234v58c0,0,131,42,131,125c0,0,0,15,-11,27c0,0,-11,12,-38,25C140,1,89,27,89,75c0,0,0,40,25,61c0,0,26,21,65,21c0,0,48,0,77,-34c0,0,30,-34,30,-86c0,0,0,-101,-60,-170c0,0,-59,-69,-168,-101Z" 
id="f3_g"
transform="scale(0.001,-0.001)" />

<path d="M289,-14c0,0,-179,0,-179,205V649L20,668v33H233V200c0,0,0,-128,120,-128c0,0,92,0,173,23V649L420,668v33H649V52L738,33V0H533l-6,57C527,57,474,28,405,7c0,0,-69,-21,-116,-21Z" 
id="f3_2h"
transform="scale(0.001,-0.001)" />

<path d="M359,-270c0,0,124,0,192,46c0,0,67,47,67,129c0,0,0,43,-26,67c0,0,-26,24,-79,24H242c0,0,-32,-27,-51,-69c0,0,-20,-41,-20,-77c0,0,0,-64,46,-92c0,0,46,-28,142,-28Zm11,561c0,0,81,0,115,47c0,0,34,47,34,141c0,0,0,100,-35,142c0,0,-35,42,-113,42c0,0,-78,0,-114,-43c0,0,-37,-42,-37,-141c0,0,0,-98,36,-143c0,0,36,-45,114,-45ZM359,-329c0,0,-143,0,-218,44c0,0,-75,43,-75,125c0,0,0,39,27,78c0,0,26,38,98,89c0,0,-43,14,-72,48c0,0,-29,35,-29,74L208,262c0,0,-118,55,-118,217c0,0,0,115,73,178c0,0,73,63,211,63c0,0,28,0,71,-6c0,0,44,-6,67,-13l165,83l26,-32L599,644c0,0,50,-56,50,-165c0,0,0,-120,-72,-182c0,0,-73,-62,-208,-62c0,0,-62,0,-114,11L208,148c0,0,2,-13,29,-24c0,0,27,-12,67,-12H512c0,0,113,0,168,-49c0,0,55,-49,55,-134c0,0,0,-79,-44,-137c0,0,-43,-58,-128,-90c0,0,-84,-31,-204,-31Z" 
id="f3_23"
transform="scale(0.001,-0.001)" />

<path d="M431,0V33L535,52V499c0,0,0,62,-32,96c0,0,-32,33,-95,33c0,0,-66,0,-163,-22V52L350,33V0H32V33l89,19V649L32,668v33H237l6,-57c0,0,56,32,119,54c0,0,62,22,110,22c0,0,52,0,95,-20c0,0,44,-19,66,-62c0,0,57,32,134,57c0,0,77,25,128,25c0,0,179,0,179,-207V52l90,-19V0H846V33L950,52V499c0,0,0,129,-119,129c0,0,-19,0,-45,-3c0,0,-26,-3,-52,-7c0,0,-25,-4,-49,-8c0,0,-23,-5,-39,-8c0,0,13,-41,13,-89V52L764,33V0Z" 
id="f3_29"
transform="scale(0.001,-0.001)" />

<path d="M67,0V109L206,235c0,0,133,118,196,190c0,0,63,72,90,149c0,0,27,77,27,177c0,0,0,97,-44,148c0,0,-44,50,-144,50c0,0,-39,0,-81,-10c0,0,-42,-11,-74,-29L150,787H101V980c0,0,135,32,230,32c0,0,164,0,247,-68c0,0,82,-69,82,-193c0,0,0,-84,-32,-158c0,0,-33,-75,-100,-148c0,0,-67,-74,-222,-206c0,0,-67,-57,-141,-125H680V0Z" 
id="f3_m"
transform="scale(0.001,-0.001)" />

<path d="M0,214v74H784V214ZM0,494v72H784V494Z" 
id="f5_x"
transform="scale(0.001,-0.001)" />

<path d="M404,60c0,0,54,0,75,59c0,0,21,59,21,177c0,0,0,106,-29,162c0,0,-29,57,-87,57c0,0,-55,0,-112,-17v-4c0,0,0,-434,132,-434Zm3,-74c0,0,-172,0,-263,130c0,0,-92,130,-92,378c0,0,0,161,48,278c0,0,48,117,135,178c0,0,87,61,199,61c0,0,117,0,225,-32V751H594L562,896c0,0,-52,39,-113,39c0,0,-75,0,-121,-95c0,0,-47,-96,-55,-267c0,0,81,35,161,35c0,0,137,0,211,-77c0,0,74,-77,74,-220c0,0,0,-158,-81,-242c0,0,-81,-83,-231,-83Z" 
id="f2_q"
transform="scale(0.001,-0.001)" />

<path d="M55,0V40L184,60V941L55,960v40H455V960L327,941V60L455,40V0Z" 
id="f3_19"
transform="scale(0.001,-0.001)" />

<path d="M410,45c0,0,90,0,130,58c0,0,40,59,40,193c0,0,0,122,-38,177c0,0,-38,54,-122,54c0,0,-102,0,-217,-37c0,0,0,-227,51,-336c0,0,52,-109,156,-109Zm3,-59c0,0,-169,0,-258,131c0,0,-89,131,-89,377c0,0,0,161,47,278c0,0,47,117,131,178c0,0,85,61,196,61c0,0,109,0,217,-26V813H608L582,915c0,0,-25,13,-67,23c0,0,-41,10,-75,10c0,0,-109,0,-170,-105c0,0,-60,-106,-66,-308c0,0,121,63,244,63c0,0,132,0,201,-74c0,0,69,-74,69,-214c0,0,0,-156,-78,-240c0,0,-79,-84,-227,-84Z" 
id="f3_q"
transform="scale(0.001,-0.001)" />

<path d="M52,62L0,114L278,390L0,667l52,52L330,442L608,719l51,-51L382,390L659,114L608,62L330,338L52,62Z" 
id="f5_3a"
transform="scale(0.001,-0.001)" />

<path d="M338,28c0,0,48,0,91,45c0,0,43,45,65,144c0,0,22,99,26,276H143c0,0,3,-133,20,-239c0,0,13,-80,44,-140c0,0,19,-36,54,-61c0,0,36,-25,77,-25ZM522,543c0,0,-1,194,-37,312c0,0,-29,90,-76,129c0,0,-34,28,-79,28c0,0,-51,0,-93,-39c0,0,-43,-40,-65,-132c0,0,-22,-93,-29,-298ZM329,-21c0,0,-68,0,-124,31c0,0,-56,33,-99,95c0,0,-43,62,-66,131C40,236,0,356,0,489c0,0,0,294,119,453c0,0,91,119,217,119c0,0,122,0,209,-115c0,0,121,-160,121,-436c0,0,0,-263,-119,-415C547,95,455,-21,329,-21Z" 
id="f5_2d"
transform="scale(0.001,-0.001)" />

<path d="M115,-329V1060h76V-329Z" 
id="f3_2o"
transform="scale(0.001,-0.001)" />

<path d="M26,0V54L154,74V926L26,945v55H878V746H810L786,908c0,0,-83,10,-241,10H389V551H651l23,111h67V355H674L651,468H389V82H578c0,0,193,0,252,12l43,185h68L927,0Z" 
id="f2_15"
transform="scale(0.001,-0.001)" />

<path d="M608,-14c0,0,-251,0,-392,133C216,119,75,252,75,488c0,0,0,257,134,390c0,0,135,133,398,133c0,0,174,0,361,-50l4,-240H905L884,866c0,0,-98,67,-229,67c0,0,-173,0,-253,-108c0,0,-80,-108,-80,-334c0,0,0,-209,84,-319c0,0,83,-109,243,-109c0,0,84,0,147,22c0,0,63,22,99,53l24,164h68L982,48C982,48,915,22,808,4C808,4,700,-14,608,-14Z" 
id="f2_13"
transform="scale(0.001,-0.001)" />

<path d="M231,0V54L390,74V921H352c0,0,-171,0,-240,-15L92,721H24v279H996V721H927L907,906c0,0,-62,14,-245,14H626V74L785,54V0Z" 
id="f2_1k"
transform="scale(0.001,-0.001)" />

<path d="M51,0V55L180,74V926L51,946v54H543V946L415,926V74L543,55V0Z" 
id="f2_19"
transform="scale(0.001,-0.001)" />

<path d="M595,60c0,0,141,0,206,102c0,0,65,102,65,340c0,0,0,236,-65,335c0,0,-65,100,-206,100c0,0,-142,0,-207,-100c0,0,-66,-99,-66,-335c0,0,0,-239,66,-340c0,0,65,-102,207,-102Zm0,-74c0,0,-253,0,-387,130C208,116,75,246,75,501c0,0,0,510,520,510c0,0,256,0,387,-129c0,0,132,-130,132,-381c0,0,0,-254,-133,-385C981,116,848,-14,595,-14Z" 
id="f2_1f"
transform="scale(0.001,-0.001)" />

<path d="M868,0L251,804V74L385,54V0H29V54L157,74V926L29,945v55H371L862,361V926L727,945v55h356V945L955,926V0Z" 
id="f2_1e"
transform="scale(0.001,-0.001)" />

<path d="M-12,307v90H776V307Z" 
id="f6_4y"
transform="scale(0.001,-0.001)" />

<path d="M559,77c0,0,87,0,129,53c0,0,42,53,42,162c0,0,0,99,-49,147c0,0,-50,49,-163,49H389V82c0,0,108,-5,170,-5ZM499,570c0,0,80,0,118,42c0,0,38,42,38,141c0,0,0,88,-38,126c0,0,-37,39,-124,39H389V570ZM561,-3L221,0H25V54L154,74V926L25,945v55H511c0,0,199,0,294,-53c0,0,95,-53,95,-173c0,0,0,-89,-56,-154c0,0,-56,-65,-150,-85c0,0,139,-14,211,-76c0,0,71,-61,71,-167c0,0,0,-146,-107,-221C869,71,762,-3,561,-3Z" 
id="f2_12"
transform="scale(0.001,-0.001)" />

<path d="M595,60c0,0,141,0,206,102c0,0,65,102,65,340c0,0,0,236,-65,335c0,0,-65,100,-206,100c0,0,-142,0,-207,-100c0,0,-66,-99,-66,-335c0,0,0,-239,66,-340c0,0,65,-102,207,-102ZM945,-246c0,0,-54,0,-96,10c0,0,-43,10,-79,31c0,0,-36,21,-71,56c0,0,-34,35,-113,135c0,0,-249,2,-380,132C206,118,75,250,75,501c0,0,0,510,520,510c0,0,256,0,387,-129c0,0,132,-130,132,-381c0,0,0,-370,-279,-477l37,-44c0,0,110,-138,188,-138c0,0,39,0,61,6v-64c0,0,-15,-7,-73,-19c0,0,-57,-11,-103,-11Z" 
id="f2_1h"
transform="scale(0.001,-0.001)" />

<path d="M434,423c0,0,0,101,-7,142c0,0,-6,40,-22,60c0,0,-16,19,-45,19c0,0,-44,0,-66,-48c0,0,-22,-49,-22,-173ZM389,-14c0,0,-172,0,-254,89c0,0,-83,90,-83,279c0,0,0,184,79,274c0,0,79,91,238,91c0,0,142,0,206,-76c0,0,64,-76,64,-237V345H271V333c0,0,0,-111,18,-158c0,0,18,-47,58,-72c0,0,40,-25,110,-25c0,0,66,0,166,22V42C623,42,582,18,517,1c0,0,-66,-15,-128,-15Z" 
id="f2_21"
transform="scale(0.001,-0.001)" />

<path d="M276,-14c0,0,-57,0,-125,13C151,-1,83,10,48,23V214H97l28,-98c0,0,26,-26,69,-44c0,0,42,-17,86,-17c0,0,65,0,97,28c0,0,32,28,32,71c0,0,0,41,-31,65c0,0,-30,25,-133,57c0,0,-108,34,-154,92c0,0,-45,58,-45,143c0,0,0,95,71,152c0,0,71,57,183,57c0,0,77,0,207,-22V518H457l-24,82c0,0,-21,22,-60,35c0,0,-40,14,-75,14c0,0,-53,0,-79,-22c0,0,-26,-22,-26,-59c0,0,0,-40,32,-65c0,0,32,-26,132,-55c0,0,109,-34,155,-89c0,0,45,-55,45,-137c0,0,0,-117,-72,-177c0,0,-72,-59,-209,-59Z" 
id="f2_2f"
transform="scale(0.001,-0.001)" />

<path d="M41,0V49l69,18V634L41,652v49H313l11,-61l50,26c0,0,105,54,188,54c0,0,125,0,167,-91c0,0,153,91,258,91c0,0,189,0,189,-207V67l71,-17V0H898V50l63,17V484c0,0,0,63,-24,98c0,0,-25,35,-74,35c0,0,-55,0,-119,-31c0,0,7,-32,7,-73V67L821,50V0H473V50l63,17V484c0,0,0,63,-25,98c0,0,-24,35,-73,35c0,0,-49,0,-113,-29V67L389,49V0Z" 
id="f2_29"
transform="scale(0.001,-0.001)" />

<path d="M424,64c0,0,74,0,109,71c0,0,36,72,36,236c0,0,0,137,-34,201c0,0,-34,65,-111,65c0,0,-29,0,-62,-7c0,0,-34,-6,-55,-19V76c0,0,47,-12,117,-12Zm21,-78c0,0,-121,0,-354,50V994l-72,18v48H307V802c0,0,0,-69,-8,-141c0,0,30,25,86,42c0,0,57,17,110,17c0,0,153,0,223,-84c0,0,70,-83,70,-266c0,0,0,-180,-90,-283C698,87,608,-14,445,-14Z" 
id="f2_1y"
transform="scale(0.001,-0.001)" />

<path d="M41,0V49l91,18V634L41,652v49H336l8,-145c0,0,80,89,144,128c0,0,64,40,117,40h40V468H604l-45,94c0,0,-47,0,-106,-21c0,0,-60,-20,-105,-48V67L460,49V0Z" 
id="f2_2e"
transform="scale(0.001,-0.001)" />

<path d="M160,0L581,834H186L152,715H87v285H727V941L338,0Z" 
id="f2_r"
transform="scale(0.001,-0.001)" />

<path d="M122,0V64L295,82V837L123,780v64l282,165H511V82L685,64V0Z" 
id="f2_l"
transform="scale(0.001,-0.001)" />

<path d="M377,478c0,0,57,0,112,14v10c0,0,0,216,-25,325c0,0,-26,110,-91,110c0,0,-112,0,-112,-245c0,0,0,-214,116,-214ZM312,-14c0,0,-124,0,-232,31V245h65L177,99c0,0,26,-18,62,-29c0,0,36,-10,70,-10c0,0,80,0,126,91c0,0,45,92,52,265c0,0,-77,-28,-154,-28c0,0,-135,0,-213,81c0,0,-78,80,-78,226c0,0,0,152,87,234c0,0,87,82,242,82c0,0,176,0,257,-123c0,0,81,-123,81,-385c0,0,0,-169,-48,-284C661,219,614,103,525,44c0,0,-89,-58,-213,-58Z" 
id="f2_t"
transform="scale(0.001,-0.001)" />

<path d="M425,-14c0,0,-187,0,-280,90c0,0,-93,90,-93,276c0,0,0,115,42,198c0,0,43,82,121,126c0,0,78,44,182,44c0,0,104,0,227,-26V486H571L539,609c0,0,-25,19,-50,26c0,0,-24,7,-65,7c0,0,-44,0,-79,-35c0,0,-36,-35,-56,-98c0,0,-20,-64,-20,-153c0,0,0,-150,47,-214c0,0,47,-64,148,-64c0,0,103,0,176,21V42C640,42,606,15,547,0c0,0,-59,-14,-122,-14Z" 
id="f2_1z"
transform="scale(0.001,-0.001)" />

<path d="M345,75c0,0,50,0,110,26V351l-63,-2c0,0,-72,-3,-100,-38c0,0,-28,-35,-28,-113c0,0,0,-63,22,-93c0,0,23,-30,59,-30ZM266,-14c0,0,-217,0,-217,208c0,0,0,79,32,126c0,0,32,48,93,71c0,0,60,22,190,25l91,2V521c0,0,0,126,-104,126c0,0,-62,0,-140,-39L183,521H134V691c0,0,112,17,165,21c0,0,53,5,108,5c0,0,264,0,264,-194V67L741,49V0H483L466,54C466,54,408,14,361,0c0,0,-47,-14,-95,-14Z" 
id="f2_1x"
transform="scale(0.001,-0.001)" />

<path d="M159,-329c0,0,-61,0,-123,14v180H81l32,-94c0,0,21,-17,55,-17c0,0,28,0,50,13c0,0,21,14,40,39c0,0,20,25,37,62c0,0,17,37,50,110L64,634L15,652v49H374V652L290,632L455,244L602,634l-82,18v49H749V652L698,637L421,-44c0,0,-47,-121,-83,-176c0,0,-36,-55,-80,-82c0,0,-43,-27,-99,-27Z" 
id="f2_2l"
transform="scale(0.001,-0.001)" />

<path d="M435,350V646c0,0,0,84,7,158L145,350ZM435,0V198H21V319l450,686H636V350H736V198H636V0Z" 
id="f2_o"
transform="scale(0.001,-0.001)" />

<path d="M43,0V49l67,18V992l-72,18v50H325V336L599,635l-75,17v49H791V652L711,636L544,460L785,67L847,50V0H510V50l41,17L411,313L325,253V67L395,49V0Z" 
id="f2_27"
transform="scale(0.001,-0.001)" />

<path d="M41,0V49l69,18V992l-72,18v50H325V756c0,0,0,-49,-4,-116l51,26c0,0,106,54,190,54c0,0,194,0,194,-207V67L827,49V0H478V49l63,18V484c0,0,0,63,-27,98c0,0,-26,35,-75,35c0,0,-57,0,-114,-25V67L389,49V0Z" 
id="f2_24"
transform="scale(0.001,-0.001)" />

<path d="M410,-14c0,0,-80,0,-162,14c0,0,-81,14,-144,38V270h48L178,134c0,0,28,-35,95,-62c0,0,68,-27,134,-27c0,0,104,0,163,53c0,0,58,54,58,148c0,0,0,54,-23,89c0,0,-22,35,-59,59c0,0,-37,24,-84,41c0,0,-47,17,-97,34c0,0,-49,17,-96,38c0,0,-47,21,-84,53c0,0,-37,32,-60,79c0,0,-23,48,-23,117c0,0,0,119,90,187c0,0,89,68,248,68c0,0,121,0,263,-32V771H654L628,893c0,0,-76,55,-188,55c0,0,-100,0,-156,-40c0,0,-56,-41,-56,-112c0,0,0,-49,22,-81c0,0,23,-32,60,-55c0,0,37,-22,84,-39c0,0,48,-16,97,-34c0,0,50,-17,97,-39c0,0,48,-22,85,-56c0,0,36,-34,59,-83c0,0,23,-49,23,-120c0,0,0,-145,-89,-224c0,0,-89,-79,-256,-79Z" 
id="f3_1j"
transform="scale(0.001,-0.001)" />

<path d="M13,0V34L95,46L325,350L122,649L40,668v33H357V668L264,648L399,446L554,649l-96,19v33H710V668L630,652L433,397L663,50L745,34V0H427V34l94,17L359,299L169,50L266,34V0Z" 
id="f3_2k"
transform="scale(0.001,-0.001)" />

<path d="M377,45c0,0,99,0,145,108c0,0,46,109,46,352c0,0,0,240,-45,345c0,0,-46,106,-146,106c0,0,-97,0,-139,-100c0,0,-43,-99,-43,-351c0,0,0,-254,44,-357c0,0,43,-103,138,-103Zm0,-59c0,0,-158,0,-238,132c0,0,-81,133,-81,386c0,0,0,249,81,380c0,0,80,132,244,132c0,0,159,0,241,-130c0,0,82,-130,82,-382c0,0,0,-518,-329,-518Z" 
id="f3_k"
transform="scale(0.001,-0.001)" />

<path d="M-6,0c0,0,-12,10,-12,32c0,0,0,21,23,51c0,0,23,31,79,82L287,354L159,649L79,668l6,33H270L378,434l93,88c0,0,47,46,67,72c0,0,19,26,19,44c0,0,0,8,-6,13c0,0,-7,6,-38,17l6,33H651c0,0,16,-12,16,-32c0,0,0,-44,-103,-142L404,377L548,49L634,33L628,0H437L313,298L185,176c0,0,-41,-40,-60,-65c0,0,-19,-26,-19,-48c0,0,0,-21,31,-29L131,0Z" 
id="f4_2k"
transform="scale(0.001,-0.001)" />

<path d="M62,-123V268c0,0,0,230,56,452c0,0,47,190,134,334c0,0,87,144,204,242c0,0,85,73,194,119l18,-16c0,0,-211,-145,-335,-339c0,0,-98,-156,-149,-374c0,0,-50,-218,-50,-403V-123Z" 
id="f5_4o"
transform="scale(0.001,-0.001)" />

<path d="M617,-123V283c0,0,0,236,-63,459c0,0,-63,223,-188,392c0,0,-108,146,-282,265l17,16c0,0,180,-76,320,-248c0,0,139,-172,204,-417c0,0,64,-245,64,-482V-123Z" 
id="f5_54"
transform="scale(0.001,-0.001)" />

<path d="M45,0V81L673,391L45,704v80L795,412V374L45,0Z" 
id="f5_y"
transform="scale(0.001,-0.001)" />

<path d="M62,-123V1415h72V-123Z" 
id="f5_4p"
transform="scale(0.001,-0.001)" />

<path d="M617,-123V1415h72V-123Z" 
id="f5_55"
transform="scale(0.001,-0.001)" />

<path d="M650,-123c0,0,-180,75,-319,246c0,0,-140,172,-205,418c0,0,-64,245,-64,481v393h72V1007c0,0,0,-236,63,-459c0,0,63,-223,189,-391c0,0,108,-145,282,-265l-18,-15Z" 
id="f5_4q"
transform="scale(0.001,-0.001)" />

<path d="M101,-123l-17,15c0,0,210,144,334,339c0,0,99,156,149,373c0,0,50,218,50,403v408h72V1022c0,0,0,-230,-56,-451c0,0,-48,-191,-134,-335C499,236,412,92,295,-5c0,0,-84,-73,-194,-118Z" 
id="f5_56"
transform="scale(0.001,-0.001)" />

<path d="M498,506c0,0,115,0,164,47c0,0,48,48,48,166c0,0,0,112,-46,156c0,0,-46,43,-169,43H390V506ZM793,0L514,423H390V74L518,54V0H36V54L154,74V926L26,945v55H504c0,0,221,0,330,-68c0,0,109,-68,109,-212c0,0,0,-215,-201,-276L1009,74L1117,54V0Z" 
id="f2_1i"
transform="scale(0.001,-0.001)" />

<path d="M394,460c0,0,126,0,186,57c0,0,60,57,60,187c0,0,0,123,-57,176c0,0,-58,53,-194,53H316V460ZM54,0V40L172,60V941L44,960v40H421c0,0,368,0,368,-295c0,0,0,-153,-93,-233c0,0,-93,-80,-267,-80H316V60L475,40V0Z" 
id="f3_1g"
transform="scale(0.001,-0.001)" />

<path d="M178,0L615,886H176L150,764H101v236H720V943L274,0Z" 
id="f3_r"
transform="scale(0.001,-0.001)" />

<path d="M350,-14c0,0,-142,0,-253,31L89,228h49L172,87c0,0,32,-18,78,-29c0,0,46,-11,88,-11c0,0,118,0,173,56c0,0,56,55,56,187c0,0,0,93,-24,140c0,0,-24,47,-76,70c0,0,-52,22,-140,22c0,0,-68,0,-133,-18H122v496H630V886H189V567c0,0,81,18,173,18c0,0,173,0,258,-71c0,0,84,-71,84,-216c0,0,0,-151,-92,-232c0,0,-91,-80,-262,-80Z" 
id="f3_p"
transform="scale(0.001,-0.001)" />

<path d="M140,-21c0,0,-26,0,-44,17C96,-4,79,13,79,40c0,0,0,19,6,33c0,0,8,20,34,55c0,0,46,60,64,126c0,0,32,114,41,321H190c0,0,-55,0,-81,-18c0,0,-44,-26,-80,-89H0c0,0,42,129,98,178c0,0,43,37,120,37H743V575H562c0,0,-27,-171,-27,-327c0,0,0,-77,27,-110c0,0,27,-33,67,-33c0,0,33,0,56,22c0,0,24,22,31,65h27C743,192,730,74,686,26c0,0,-44,-47,-98,-47c0,0,-58,0,-97,51c0,0,-39,53,-39,198c0,0,0,91,28,347H286c0,0,-23,-390,-56,-494c0,0,-33,-102,-90,-102Z" 
id="f5_2c"
transform="scale(0.001,-0.001)" />

<path d="M945,-20c0,0,47,75,125,153H57v74H1147l108,91c0,0,23,19,95,72c0,0,-134,103,-203,166H57v72H1070c0,0,-78,78,-125,154h85c0,0,88,-107,217,-217c0,0,130,-110,206,-154V349c0,0,-101,-58,-219,-162c0,0,-118,-103,-204,-207Z" 
id="f5_4g"
transform="scale(0.001,-0.001)" />


</defs>
</svg>