<?xml version="1.0" encoding="UTF-8" standalone="no"?>
<!DOCTYPE svg PUBLIC "-//W3C//DTD SVG 1.1//EN"
"http://www.w3.org/Graphics/SVG/1.1/DTD/svg11.dtd">
<svg viewBox="0 0 909 1286" version="1.1" xmlns="http://www.w3.org/2000/svg" xmlns:xlink="http://www.w3.org/1999/xlink">
<defs>
<clipPath id="c0_97"><path d="M55.2,183.5V126H268.6v57.5Z" /></clipPath>
<clipPath id="c1_97"><path d="M55.2,236.7V185.3H280.5v51.4Z" /></clipPath>
<clipPath id="c2_97"><path d="M55.2,273V238.4h358V273Z" /></clipPath>
<clipPath id="c3_97"><path d="M55.2,300.8V275H371.6v25.8Z" /></clipPath>
<clipPath id="c4_97"><path d="M125.9,378.9V325.8H339.4v53.1Z" /></clipPath>
<clipPath id="c5_97"><path d="M55.2,460.4V403.9H282.3v56.5Z" /></clipPath>
<clipPath id="c6_97"><path d="M55.2,513.1V461.9H295.9v51.2Z" /></clipPath>
<clipPath id="c7_97"><path d="M55.2,566.7V515.3H382.7v51.4Z" /></clipPath>
<clipPath id="c8_97"><path d="M55.2,625.7V569.3H489.6v56.4Z" /></clipPath>
<clipPath id="c9_97"><path d="M55.2,678.5V627.2H243.9v51.3Z" /></clipPath>
<clipPath id="c10_97"><path d="M152,769.1V704H291.6v65.1Z" /></clipPath>
<clipPath id="c11_97"><path d="M128.9,852.7V795.2H277.7v57.5Z" /></clipPath>
<clipPath id="c12_97"><path d="M55.2,936.6V877.7H302.7v58.9Z" /></clipPath>
<clipPath id="c13_97"><path d="M55.2,997.9v-59H567.8v59Z" /></clipPath>
<clipPath id="c14_97"><path d="M55.2,1137.9V1000.4H503.6v137.5Z" /></clipPath>
<style type="text/css"><![CDATA[
.g0_97{
fill: #D9D9D9;
}
.g1_97{
fill: none;
stroke: #000000;
stroke-width: 0.7638889;
stroke-linecap: butt;
stroke-linejoin: miter;
}
.g2_97{
fill: none;
stroke: #000000;
stroke-width: 0.7558846;
stroke-linecap: butt;
stroke-linejoin: round;
}
.g3_97{
fill: none;
stroke: #000000;
stroke-width: 0.75503;
stroke-linecap: butt;
stroke-linejoin: round;
}
.g4_97{
fill: none;
stroke: #000000;
stroke-width: 0.90738153;
stroke-linecap: butt;
stroke-linejoin: round;
}
.g5_97{
fill: none;
stroke: #000000;
stroke-width: 0.75596344;
stroke-linecap: butt;
stroke-linejoin: round;
}
.g6_97{
fill: none;
stroke: #000000;
stroke-width: 0.7607297;
stroke-linecap: butt;
stroke-linejoin: round;
}
.g7_97{
fill: none;
stroke: #000000;
stroke-width: 0.76053494;
stroke-linecap: butt;
stroke-linejoin: round;
}
.g8_97{
fill: none;
stroke: #000000;
stroke-width: 0.76109785;
stroke-linecap: butt;
stroke-linejoin: round;
}
.g9_97{
fill: none;
stroke: #000000;
stroke-width: 0.75973773;
stroke-linecap: butt;
stroke-linejoin: round;
}
.g10_97{
fill: none;
stroke: #000000;
stroke-width: 0.9093446;
stroke-linecap: butt;
stroke-linejoin: round;
}
.g11_97{
fill: none;
stroke: #000000;
stroke-width: 0.41678488;
stroke-linecap: butt;
stroke-linejoin: round;
}
.g12_97{
fill: none;
stroke: #000000;
stroke-width: 0.7581406;
stroke-linecap: butt;
stroke-linejoin: round;
}
.g13_97{
fill: none;
stroke: #000000;
stroke-width: 0.7618524;
stroke-linecap: butt;
stroke-linejoin: round;
}
.g14_97{
fill: none;
stroke: #000000;
stroke-width: 0.7616126;
stroke-linecap: butt;
stroke-linejoin: round;
}
.g15_97{
fill: none;
stroke: #000000;
stroke-width: 0.21353766;
stroke-linecap: square;
stroke-linejoin: round;
}
.g16_97{
}
.g17_97{
fill: none;
stroke: #000000;
stroke-width: 0.38079867;
stroke-linecap: butt;
stroke-linejoin: round;
}
]]></style>
</defs>
<image preserveAspectRatio="none" x="747" y="1196" width="96" height="59" xlink:href="img/1.png" />
<image preserveAspectRatio="none" x="336" y="41" width="259" height="51" xlink:href="img/2.png" />
<image preserveAspectRatio="none" x="342" y="50" width="247" height="27" xlink:href="img/3.png" />
<image preserveAspectRatio="none" x="341" y="45" width="239" height="42" xlink:href="img/4.png" />
<g fill="#FFFFFF" >
<use xlink:href="#f0_j" transform="matrix(11.5,0,0,11.5,355.1,70.1)" />
<use xlink:href="#f0_i" transform="matrix(11.5,0,0,11.5,364.3,70.1)" />
<use xlink:href="#f0_2n" transform="matrix(11.5,0,0,11.5,374.1,70.1)" />
<use xlink:href="#f0_t" transform="matrix(11.5,0,0,11.5,382.6,70.1)" />
<use xlink:href="#f0_oj" transform="matrix(11.5,0,0,11.5,391,70.1)" />
<use xlink:href="#f0_3e" transform="matrix(11.5,0,0,11.5,396.5,70.1)" />
<use xlink:href="#f0_1c" transform="matrix(11.5,0,0,11.5,406.1,70.1)" />
<use xlink:href="#f0_1c" transform="matrix(11.5,0,0,11.5,410.8,70.1)" />
<use xlink:href="#f0_oj" transform="matrix(11.5,0,0,11.5,415.6,70.1)" />
<use xlink:href="#f0_rz" transform="matrix(11.5,0,0,11.5,421.1,70.1)" />
<use xlink:href="#f0_rx" transform="matrix(11.5,0,0,11.5,429.9,70.1)" />
<use xlink:href="#f0_ry" transform="matrix(11.5,0,0,11.5,438.7,70.1)" />
<use xlink:href="#f0_s3" transform="matrix(11.5,0,0,11.5,447.5,70.1)" />
<use xlink:href="#f0_t" transform="matrix(11.5,0,0,11.5,460.4,70.1)" />
<use xlink:href="#f0_3e" transform="matrix(11.5,0,0,11.5,468.8,70.1)" />
<use xlink:href="#f0_5" transform="matrix(11.5,0,0,11.5,478.3,70.1)" />
<use xlink:href="#f0_1x" transform="matrix(11.5,0,0,11.5,489,70.1)" />
<use xlink:href="#f0_1c" transform="matrix(11.5,0,0,11.5,504.4,70.1)" />
<use xlink:href="#f0_1y" transform="matrix(11.5,0,0,11.5,509.1,70.1)" />
<use xlink:href="#f0_5" transform="matrix(11.5,0,0,11.5,520.8,70.1)" />
<use xlink:href="#f0_2t" transform="matrix(11.5,0,0,11.5,531.5,70.1)" />
<use xlink:href="#f0_1c" transform="matrix(11.5,0,0,11.5,540.2,70.1)" />
<use xlink:href="#f0_24" transform="matrix(11.5,0,0,11.5,545,70.1)" />
<use xlink:href="#f0_1y" transform="matrix(11.5,0,0,11.5,556.7,70.1)" />
</g>
<image preserveAspectRatio="none" x="554" y="45" width="36" height="42" xlink:href="img/5.png" />
<g fill="#FFFFFF" >
<use xlink:href="#f1_o" transform="matrix(11,0,0,11,770.3,1227.6)" />
<use xlink:href="#f1_j" transform="matrix(11,0,0,11,783.5,1227.6)" />
<use xlink:href="#f1_l" transform="matrix(11,0,0,11,794.1,1227.6)" />
<use xlink:href="#f1_n" transform="matrix(11,0,0,11,802.9,1227.6)" />
</g>
<path fill-rule="evenodd" d="M52.8,1193.5H856.9v-.8H52.8v.8Z" class="g0_97" />
<path d="M37.9,99.4L873,98.5" class="g1_97" />
<path d="M83.2,156.3h35m57.9,0h71" class="g2_97" />
<g clip-path="url(#c0_97)">
<g fill="#000000" >
<use xlink:href="#f2_l" transform="matrix(12.6,0,0,12.3,96.1,149.5)" />
<use xlink:href="#f2_l" transform="matrix(12.6,0,0,12.3,207,149.5)" />
<use xlink:href="#f2_m" transform="matrix(12.6,0,0,12.3,156,160.9)" />
<use xlink:href="#f2_2f" transform="matrix(12.6,0,0,12.3,83.8,175.1)" />
<use xlink:href="#f2_25" transform="matrix(12.6,0,0,12.3,91,175.1)" />
<use xlink:href="#f2_2a" transform="matrix(12.6,0,0,12.3,96.2,175.1)" />
<use xlink:href="#f2_c" transform="matrix(12.6,0,0,12.3,177.1,175.1)" />
<use xlink:href="#f2_l" transform="matrix(12.6,0,0,12.3,181.7,175.1)" />
<use xlink:href="#f2_2f" transform="matrix(12.6,0,0,12.3,206.3,175.1)" />
<use xlink:href="#f2_25" transform="matrix(12.6,0,0,12.3,213.5,175.1)" />
<use xlink:href="#f2_2a" transform="matrix(12.6,0,0,12.3,218.7,175.1)" />
<use xlink:href="#f2_d" transform="matrix(12.6,0,0,12.3,240.1,175.1)" />
<use xlink:href="#f3_20" transform="matrix(12.6,0,0,12.3,121,160.9)" />
<use xlink:href="#f3_2k" transform="matrix(12.6,0,0,12.3,130.2,160.9)" />
<use xlink:href="#f3_20" transform="matrix(12.6,0,0,12.3,246.8,160.9)" />
<use xlink:href="#f3_2k" transform="matrix(12.6,0,0,12.3,256,160.9)" />
<use xlink:href="#f3_2k" transform="matrix(12.6,0,0,12.3,109,175.1)" />
<use xlink:href="#f3_2k" transform="matrix(12.6,0,0,12.3,231.5,175.1)" />
<use xlink:href="#f4_x" transform="matrix(12.6,0,0,12.3,57.9,160.9)" />
<use xlink:href="#f4_h" transform="matrix(12.6,0,0,12.3,142.2,160.9)" />
<use xlink:href="#f4_f" transform="matrix(12.6,0,0,12.3,192.9,175.1)" />
<use xlink:href="#f4_50" transform="matrix(18.9,0,0,18.4,72.8,167.5)" />
<use xlink:href="#f4_50" transform="matrix(18.9,0,0,18.4,165.7,167.5)" />
</g>
</g>
<g clip-path="url(#c1_97)">
<g fill="#000000" >
<use xlink:href="#f4_c" transform="matrix(12.5,0,0,16.2,183.4,207)" />
<use xlink:href="#f4_d" transform="matrix(12.5,0,0,16.2,248.1,207)" />
</g>
</g>
<path d="M182.7,214h72.1" class="g3_97" />
<g clip-path="url(#c1_97)">
<g fill="#000000" >
<use xlink:href="#f2_l" transform="matrix(12.6,0,0,12.2,189,205.6)" />
<use xlink:href="#f2_2f" transform="matrix(12.6,0,0,12.2,213.3,205.6)" />
<use xlink:href="#f2_25" transform="matrix(12.6,0,0,12.2,220.5,205.6)" />
<use xlink:href="#f2_2a" transform="matrix(12.6,0,0,12.2,225.7,205.6)" />
<use xlink:href="#f2_1z" transform="matrix(12.6,0,0,12.2,82.6,218.7)" />
<use xlink:href="#f2_2b" transform="matrix(12.6,0,0,12.2,90.6,218.7)" />
<use xlink:href="#f2_2f" transform="matrix(12.6,0,0,12.2,99.8,218.7)" />
<use xlink:href="#f2_21" transform="matrix(12.6,0,0,12.2,107,218.7)" />
<use xlink:href="#f2_1z" transform="matrix(12.6,0,0,12.2,115,218.7)" />
<use xlink:href="#f2_m" transform="matrix(12.6,0,0,12.2,162.6,218.7)" />
<use xlink:href="#f2_1z" transform="matrix(12.6,0,0,12.2,196.1,232.9)" />
<use xlink:href="#f2_2b" transform="matrix(12.6,0,0,12.2,204.2,232.9)" />
<use xlink:href="#f2_2f" transform="matrix(12.6,0,0,12.2,213.4,232.9)" />
<use xlink:href="#f2_m" transform="matrix(12.6,0,0,12.2,222.7,232.9)" />
<use xlink:href="#f3_2k" transform="matrix(12.6,0,0,12.2,238.5,205.6)" />
<use xlink:href="#f3_20" transform="matrix(12.6,0,0,12.2,127.6,218.7)" />
<use xlink:href="#f3_2k" transform="matrix(12.6,0,0,12.2,136.8,218.7)" />
<use xlink:href="#f3_20" transform="matrix(12.6,0,0,12.2,259.9,218.7)" />
<use xlink:href="#f3_2k" transform="matrix(12.6,0,0,12.2,269.1,218.7)" />
<use xlink:href="#f3_2k" transform="matrix(12.6,0,0,12.2,233.1,232.9)" />
<use xlink:href="#f4_h" transform="matrix(12.6,0,0,12.2,200.1,205.6)" />
<use xlink:href="#f4_x" transform="matrix(12.6,0,0,12.2,58,218.7)" />
<use xlink:href="#f4_h" transform="matrix(12.6,0,0,12.2,148.8,218.7)" />
<use xlink:href="#f4_50" transform="matrix(18.9,0,0,18.4,72.8,225.3)" />
<use xlink:href="#f4_50" transform="matrix(18.9,0,0,18.4,172.4,225.3)" />
</g>
</g>
<g clip-path="url(#c2_97)">
<g fill="#000000" >
<use xlink:href="#f2_m" transform="matrix(7.5,0,0,7.1,279.6,252.8)" />
<use xlink:href="#f2_28" transform="matrix(12.8,0,0,12.2,72.2,261)" />
<use xlink:href="#f2_2b" transform="matrix(12.8,0,0,12.2,77.1,261)" />
<use xlink:href="#f2_23" transform="matrix(12.8,0,0,12.2,86.2,261)" />
<use xlink:href="#f2_2o" transform="matrix(12.8,0,0,12.2,99,261)" />
<use xlink:href="#f2_1z" transform="matrix(12.8,0,0,12.2,106.1,261)" />
<use xlink:href="#f2_2b" transform="matrix(12.8,0,0,12.2,114.1,261)" />
<use xlink:href="#f2_2f" transform="matrix(12.8,0,0,12.2,123.3,261)" />
<use xlink:href="#f2_21" transform="matrix(12.8,0,0,12.2,130.4,261)" />
<use xlink:href="#f2_1z" transform="matrix(12.8,0,0,12.2,138.5,261)" />
<use xlink:href="#f2_1z" transform="matrix(12.8,0,0,12.2,175,261)" />
<use xlink:href="#f2_2b" transform="matrix(12.8,0,0,12.2,183,261)" />
<use xlink:href="#f2_2g" transform="matrix(12.8,0,0,12.2,192.2,261)" />
<use xlink:href="#f2_2o" transform="matrix(12.8,0,0,12.2,212.6,261)" />
<use xlink:href="#f2_m" transform="matrix(12.8,0,0,12.2,230,261)" />
<use xlink:href="#f2_c" transform="matrix(12.8,0,0,12.2,249.5,261)" />
<use xlink:href="#f2_2f" transform="matrix(12.8,0,0,12.2,255.5,261)" />
<use xlink:href="#f2_21" transform="matrix(12.8,0,0,12.2,262.7,261)" />
<use xlink:href="#f2_1z" transform="matrix(12.8,0,0,12.2,270.7,261)" />
<use xlink:href="#f2_2f" transform="matrix(12.8,0,0,12.2,314.7,261)" />
<use xlink:href="#f2_21" transform="matrix(12.8,0,0,12.2,321.8,261)" />
<use xlink:href="#f2_1z" transform="matrix(12.8,0,0,12.2,329.8,261)" />
<use xlink:href="#f2_2g" transform="matrix(12.8,0,0,12.2,351.7,261)" />
<use xlink:href="#f2_1x" transform="matrix(12.8,0,0,12.2,356.9,261)" />
<use xlink:href="#f2_2a" transform="matrix(12.8,0,0,12.2,364.9,261)" />
<use xlink:href="#f2_d" transform="matrix(12.8,0,0,12.2,386.3,261)" />
<use xlink:href="#f3_2k" transform="matrix(12.8,0,0,12.2,149.6,261)" />
<use xlink:href="#f3_2k" transform="matrix(12.8,0,0,12.2,201.1,261)" />
<use xlink:href="#f3_2k" transform="matrix(12.8,0,0,12.2,289.6,261)" />
<use xlink:href="#f3_2k" transform="matrix(12.8,0,0,12.2,341.1,261)" />
<use xlink:href="#f3_2k" transform="matrix(12.8,0,0,12.2,377.8,261)" />
<use xlink:href="#f3_20" transform="matrix(12.8,0,0,12.2,391.6,261)" />
<use xlink:href="#f3_2k" transform="matrix(12.8,0,0,12.2,400.7,261)" />
<use xlink:href="#f4_x" transform="matrix(12.8,0,0,12.2,57.9,261)" />
<use xlink:href="#f4_h" transform="matrix(12.8,0,0,12.2,161.6,261)" />
<use xlink:href="#f4_h" transform="matrix(12.8,0,0,12.2,220.1,261)" />
<use xlink:href="#f4_h" transform="matrix(12.8,0,0,12.2,301.6,261)" />
<use xlink:href="#f4_50" transform="matrix(19.3,0,0,18.3,239.9,267.6)" />
</g>
</g>
<g clip-path="url(#c3_97)">
<g fill="#000000" >
<use xlink:href="#f2_28" transform="matrix(13.1,0,0,12.4,72.2,293.3)" />
<use xlink:href="#f2_2b" transform="matrix(13.1,0,0,12.4,77,293.3)" />
<use xlink:href="#f2_23" transform="matrix(13.1,0,0,12.4,86.2,293.3)" />
<use xlink:href="#f2_2o" transform="matrix(13.1,0,0,12.4,98.9,293.3)" />
<use xlink:href="#f2_1z" transform="matrix(13.1,0,0,12.4,106,293.3)" />
<use xlink:href="#f2_2b" transform="matrix(13.1,0,0,12.4,114,293.3)" />
<use xlink:href="#f2_2f" transform="matrix(13.1,0,0,12.4,123.1,293.3)" />
<use xlink:href="#f2_21" transform="matrix(13.1,0,0,12.4,130.3,293.3)" />
<use xlink:href="#f2_1z" transform="matrix(13.1,0,0,12.4,138.3,293.3)" />
<use xlink:href="#f2_1z" transform="matrix(13.1,0,0,12.4,174.8,293.3)" />
<use xlink:href="#f2_2b" transform="matrix(13.1,0,0,12.4,182.8,293.3)" />
<use xlink:href="#f2_2g" transform="matrix(13.1,0,0,12.4,191.9,293.3)" />
<use xlink:href="#f2_2o" transform="matrix(13.1,0,0,12.4,212.3,293.3)" />
<use xlink:href="#f2_m" transform="matrix(13.1,0,0,12.4,229.6,293.3)" />
<use xlink:href="#f2_c" transform="matrix(13.1,0,0,12.4,238.8,293.3)" />
<use xlink:href="#f2_2g" transform="matrix(13.1,0,0,12.4,244.8,293.3)" />
<use xlink:href="#f2_1x" transform="matrix(13.1,0,0,12.4,249.9,293.3)" />
<use xlink:href="#f2_2a" transform="matrix(13.1,0,0,12.4,257.9,293.3)" />
<use xlink:href="#f2_2f" transform="matrix(13.1,0,0,12.4,295.9,293.3)" />
<use xlink:href="#f2_21" transform="matrix(13.1,0,0,12.4,303,293.3)" />
<use xlink:href="#f2_1z" transform="matrix(13.1,0,0,12.4,311,293.3)" />
<use xlink:href="#f2_d" transform="matrix(13.1,0,0,12.4,330.6,293.3)" />
<use xlink:href="#f3_2k" transform="matrix(13.1,0,0,12.4,149.4,293.3)" />
<use xlink:href="#f3_2k" transform="matrix(13.1,0,0,12.4,200.7,293.3)" />
<use xlink:href="#f3_2k" transform="matrix(13.1,0,0,12.4,270.8,293.3)" />
<use xlink:href="#f3_2k" transform="matrix(13.1,0,0,12.4,322.1,293.3)" />
<use xlink:href="#f3_13" transform="matrix(13.1,0,0,12.4,353.9,293.3)" />
<use xlink:href="#f4_x" transform="matrix(13.1,0,0,12.4,58,293.3)" />
<use xlink:href="#f4_h" transform="matrix(13.1,0,0,12.4,161.4,293.3)" />
<use xlink:href="#f4_h" transform="matrix(13.1,0,0,12.4,219.7,293.3)" />
<use xlink:href="#f4_h" transform="matrix(13.1,0,0,12.4,282.8,293.3)" />
<use xlink:href="#f4_f" transform="matrix(13.1,0,0,12.4,340.5,293.3)" />
</g>
</g>
<g fill="#000000" >
<use xlink:href="#f5_l" transform="matrix(12,0,0,12,55,355.8)" />
<use xlink:href="#f5_l" transform="matrix(12,0,0,12,64.2,355.8)" />
<use xlink:href="#f5_i" transform="matrix(12,0,0,12,73.4,355.8)" />
<use xlink:href="#f2_16" transform="matrix(12,0,0,12,82.9,355.8)" />
<use xlink:href="#f2_25" transform="matrix(12,0,0,12,93.2,355.8)" />
<use xlink:href="#f2_2a" transform="matrix(12,0,0,12,97.9,355.8)" />
<use xlink:href="#f2_20" transform="matrix(12,0,0,12,106.7,355.8)" />
<use xlink:href="#f2_u" transform="matrix(12,0,0,12,115.9,355.8)" />
</g>
<g clip-path="url(#c4_97)">
<g fill="#000000" >
<use xlink:href="#f4_1r" transform="matrix(12.4,0,0,16.7,138.3,357.7)" />
</g>
</g>
<path d="M239.5,351.6h58.8" class="g4_97" />
<g clip-path="url(#c4_97)">
<g fill="#000000" >
<use xlink:href="#f4_1t" transform="matrix(12.4,0,0,16.7,310,357.7)" />
<use xlink:href="#f2_m" transform="matrix(7.3,0,0,7.1,290.4,362.4)" />
<use xlink:href="#f2_l" transform="matrix(12.6,0,0,12.3,264.3,344.6)" />
<use xlink:href="#f2_28" transform="matrix(12.6,0,0,12.3,145.1,356.2)" />
<use xlink:href="#f2_2b" transform="matrix(12.6,0,0,12.3,149.9,356.2)" />
<use xlink:href="#f2_23" transform="matrix(12.6,0,0,12.3,159.1,356.2)" />
<use xlink:href="#f2_c" transform="matrix(12.6,0,0,12.3,172.6,356.2)" />
<use xlink:href="#f2_28" transform="matrix(12.6,0,0,12.3,178.6,356.2)" />
<use xlink:href="#f2_2b" transform="matrix(12.6,0,0,12.3,183.5,356.2)" />
<use xlink:href="#f2_23" transform="matrix(12.6,0,0,12.3,192.7,356.2)" />
<use xlink:href="#f2_d" transform="matrix(12.6,0,0,12.3,215.9,356.2)" />
<use xlink:href="#f2_c" transform="matrix(12.6,0,0,12.3,240.3,370.7)" />
<use xlink:href="#f2_28" transform="matrix(12.6,0,0,12.3,246.3,370.7)" />
<use xlink:href="#f2_2b" transform="matrix(12.6,0,0,12.3,251.2,370.7)" />
<use xlink:href="#f2_23" transform="matrix(12.6,0,0,12.3,260.4,370.7)" />
<use xlink:href="#f2_d" transform="matrix(12.6,0,0,12.3,283.6,370.7)" />
<use xlink:href="#f3_2k" transform="matrix(12.6,0,0,12.3,207.3,356.2)" />
<use xlink:href="#f3_20" transform="matrix(12.6,0,0,12.3,317.8,356.2)" />
<use xlink:href="#f3_2k" transform="matrix(12.6,0,0,12.3,327,356.2)" />
<use xlink:href="#f3_2k" transform="matrix(12.6,0,0,12.3,275,370.7)" />
<use xlink:href="#f4_f" transform="matrix(12.6,0,0,12.3,226.3,356.2)" />
<use xlink:href="#f4_50" transform="matrix(19,0,0,18.5,129,362.9)" />
</g>
</g>
<g fill="#000000" >
<use xlink:href="#f5_1j" transform="matrix(12,0,0,12,55,399)" />
<use xlink:href="#f5_2b" transform="matrix(12,0,0,12,65.3,399)" />
<use xlink:href="#f5_28" transform="matrix(12,0,0,12,74.5,399)" />
<use xlink:href="#f5_2h" transform="matrix(12,0,0,12,79.2,399)" />
<use xlink:href="#f5_2g" transform="matrix(12,0,0,12,89.5,399)" />
<use xlink:href="#f5_25" transform="matrix(12,0,0,12,95.7,399)" />
<use xlink:href="#f5_2b" transform="matrix(12,0,0,12,100.8,399)" />
<use xlink:href="#f5_2a" transform="matrix(12,0,0,12,109.9,399)" />
<use xlink:href="#f5_u" transform="matrix(12,0,0,12,120.2,399)" />
</g>
<path d="M192.7,432.9h56.9" class="g5_97" />
<g clip-path="url(#c5_97)">
<g fill="#000000" >
<use xlink:href="#f2_m" transform="matrix(7.3,0,0,7.2,241.6,443.5)" />
<use xlink:href="#f2_l" transform="matrix(12.6,0,0,12.4,216.5,426)" />
<use xlink:href="#f2_28" transform="matrix(12.6,0,0,12.4,103.9,437.5)" />
<use xlink:href="#f2_2b" transform="matrix(12.6,0,0,12.4,108.8,437.5)" />
<use xlink:href="#f2_23" transform="matrix(12.6,0,0,12.4,118,437.5)" />
<use xlink:href="#f2_c" transform="matrix(12.6,0,0,12.4,127.1,437.5)" />
<use xlink:href="#f2_28" transform="matrix(12.6,0,0,12.4,133.2,437.5)" />
<use xlink:href="#f2_2b" transform="matrix(12.6,0,0,12.4,138.1,437.5)" />
<use xlink:href="#f2_23" transform="matrix(12.6,0,0,12.4,147.2,437.5)" />
<use xlink:href="#f2_d" transform="matrix(12.6,0,0,12.4,168.4,437.5)" />
<use xlink:href="#f2_c" transform="matrix(12.6,0,0,12.4,193.6,451.9)" />
<use xlink:href="#f2_28" transform="matrix(12.6,0,0,12.4,199.7,451.9)" />
<use xlink:href="#f2_2b" transform="matrix(12.6,0,0,12.4,204.5,451.9)" />
<use xlink:href="#f2_23" transform="matrix(12.6,0,0,12.4,213.7,451.9)" />
<use xlink:href="#f2_d" transform="matrix(12.6,0,0,12.4,234.9,451.9)" />
<use xlink:href="#f3_19" transform="matrix(12.6,0,0,12.4,58.5,437.5)" />
<use xlink:href="#f3_2k" transform="matrix(12.6,0,0,12.4,159.9,437.5)" />
<use xlink:href="#f3_20" transform="matrix(12.6,0,0,12.4,260.8,437.5)" />
<use xlink:href="#f3_2k" transform="matrix(12.6,0,0,12.4,269.9,437.5)" />
<use xlink:href="#f3_2k" transform="matrix(12.6,0,0,12.4,226.3,451.9)" />
<use xlink:href="#f4_4r" transform="matrix(12.6,0,0,12.4,96.3,425.4)" />
<use xlink:href="#f4_57" transform="matrix(12.6,0,0,12.4,251.1,425.4)" />
<use xlink:href="#f4_x" transform="matrix(12.6,0,0,12.4,71.1,437.5)" />
<use xlink:href="#f4_f" transform="matrix(12.6,0,0,12.4,178.3,437.5)" />
<use xlink:href="#f4_4s" transform="matrix(12.6,0,0,12.4,96.3,443.2)" />
<use xlink:href="#f4_58" transform="matrix(12.6,0,0,12.4,251.1,443.2)" />
<use xlink:href="#f4_4t" transform="matrix(12.6,0,0,12.4,96.3,456)" />
<use xlink:href="#f4_59" transform="matrix(12.6,0,0,12.4,251.1,456)" />
<use xlink:href="#f4_50" transform="matrix(18.9,0,0,18.5,86,444.2)" />
</g>
</g>
<path d="M215.1,487.5h56.7" class="g6_97" />
<g clip-path="url(#c6_97)">
<g fill="#000000" >
<use xlink:href="#f2_m" transform="matrix(7.4,0,0,7.1,263.9,498)" />
<use xlink:href="#f2_l" transform="matrix(12.7,0,0,12.2,238.9,480.7)" />
<use xlink:href="#f2_28" transform="matrix(12.7,0,0,12.2,82.5,492.1)" />
<use xlink:href="#f2_2b" transform="matrix(12.7,0,0,12.2,87.4,492.1)" />
<use xlink:href="#f2_23" transform="matrix(12.7,0,0,12.2,96.5,492.1)" />
<use xlink:href="#f2_c" transform="matrix(12.7,0,0,12.2,105.7,492.1)" />
<use xlink:href="#f2_28" transform="matrix(12.7,0,0,12.2,111.7,492.1)" />
<use xlink:href="#f2_2b" transform="matrix(12.7,0,0,12.2,116.6,492.1)" />
<use xlink:href="#f2_23" transform="matrix(12.7,0,0,12.2,125.7,492.1)" />
<use xlink:href="#f2_d" transform="matrix(12.7,0,0,12.2,146.8,492.1)" />
<use xlink:href="#f2_i" transform="matrix(12.7,0,0,12.2,152.8,492.1)" />
<use xlink:href="#f2_l" transform="matrix(12.7,0,0,12.2,157.4,492.1)" />
<use xlink:href="#f2_c" transform="matrix(12.7,0,0,12.2,216.1,506.3)" />
<use xlink:href="#f2_28" transform="matrix(12.7,0,0,12.2,222.1,506.3)" />
<use xlink:href="#f2_2b" transform="matrix(12.7,0,0,12.2,226.9,506.3)" />
<use xlink:href="#f2_23" transform="matrix(12.7,0,0,12.2,236.1,506.3)" />
<use xlink:href="#f2_d" transform="matrix(12.7,0,0,12.2,257.2,506.3)" />
<use xlink:href="#f3_2k" transform="matrix(12.7,0,0,12.2,138.2,492.1)" />
<use xlink:href="#f3_20" transform="matrix(12.7,0,0,12.2,169.3,492.1)" />
<use xlink:href="#f3_2k" transform="matrix(12.7,0,0,12.2,178.5,492.1)" />
<use xlink:href="#f3_20" transform="matrix(12.7,0,0,12.2,274.5,492.1)" />
<use xlink:href="#f3_2k" transform="matrix(12.7,0,0,12.2,283.7,492.1)" />
<use xlink:href="#f3_2k" transform="matrix(12.7,0,0,12.2,248.6,506.3)" />
<use xlink:href="#f4_x" transform="matrix(12.7,0,0,12.2,58,492.1)" />
<use xlink:href="#f4_f" transform="matrix(12.7,0,0,12.2,190.5,492.1)" />
<use xlink:href="#f4_50" transform="matrix(19.1,0,0,18.3,72.7,498.7)" />
<use xlink:href="#f4_50" transform="matrix(19.1,0,0,18.3,204.8,498.7)" />
</g>
</g>
<path d="M184,541h36.8m7.6,0h11.3m63,0h56.8" class="g7_97" />
<g clip-path="url(#c7_97)">
<g fill="#000000" >
<use xlink:href="#f2_m" transform="matrix(7.4,0,0,7.1,351.6,551.5)" />
<use xlink:href="#f2_l" transform="matrix(12.7,0,0,12.2,197.8,534.2)" />
<use xlink:href="#f2_l" transform="matrix(12.7,0,0,12.2,229.4,534.2)" />
<use xlink:href="#f2_l" transform="matrix(12.7,0,0,12.2,326.5,534.2)" />
<use xlink:href="#f2_28" transform="matrix(12.7,0,0,12.2,72.2,545.6)" />
<use xlink:href="#f2_2b" transform="matrix(12.7,0,0,12.2,77,545.6)" />
<use xlink:href="#f2_23" transform="matrix(12.7,0,0,12.2,86.2,545.6)" />
<use xlink:href="#f2_c" transform="matrix(12.7,0,0,12.2,95.4,545.6)" />
<use xlink:href="#f2_28" transform="matrix(12.7,0,0,12.2,101.4,545.6)" />
<use xlink:href="#f2_2b" transform="matrix(12.7,0,0,12.2,106.2,545.6)" />
<use xlink:href="#f2_23" transform="matrix(12.7,0,0,12.2,115.4,545.6)" />
<use xlink:href="#f2_d" transform="matrix(12.7,0,0,12.2,136.5,545.6)" />
<use xlink:href="#f2_i" transform="matrix(12.7,0,0,12.2,142.5,545.6)" />
<use xlink:href="#f2_i" transform="matrix(12.7,0,0,12.2,222.3,545.6)" />
<use xlink:href="#f2_i" transform="matrix(12.7,0,0,12.2,241.2,545.6)" />
<use xlink:href="#f2_28" transform="matrix(12.7,0,0,12.2,185,559.8)" />
<use xlink:href="#f2_2b" transform="matrix(12.7,0,0,12.2,189.8,559.8)" />
<use xlink:href="#f2_23" transform="matrix(12.7,0,0,12.2,199,559.8)" />
<use xlink:href="#f2_c" transform="matrix(12.7,0,0,12.2,303.6,559.8)" />
<use xlink:href="#f2_28" transform="matrix(12.7,0,0,12.2,309.6,559.8)" />
<use xlink:href="#f2_2b" transform="matrix(12.7,0,0,12.2,314.5,559.8)" />
<use xlink:href="#f2_23" transform="matrix(12.7,0,0,12.2,323.7,559.8)" />
<use xlink:href="#f2_d" transform="matrix(12.7,0,0,12.2,344.8,559.8)" />
<use xlink:href="#f3_2k" transform="matrix(12.7,0,0,12.2,128,545.6)" />
<use xlink:href="#f3_2k" transform="matrix(12.7,0,0,12.2,147.5,545.6)" />
<use xlink:href="#f3_2k" transform="matrix(12.7,0,0,12.2,246.2,545.6)" />
<use xlink:href="#f3_20" transform="matrix(12.7,0,0,12.2,256.7,545.6)" />
<use xlink:href="#f3_2k" transform="matrix(12.7,0,0,12.2,265.9,545.6)" />
<use xlink:href="#f3_20" transform="matrix(12.7,0,0,12.2,362.2,545.6)" />
<use xlink:href="#f3_2k" transform="matrix(12.7,0,0,12.2,371.4,545.6)" />
<use xlink:href="#f3_2k" transform="matrix(12.7,0,0,12.2,211.5,559.8)" />
<use xlink:href="#f3_2k" transform="matrix(12.7,0,0,12.2,230.5,559.8)" />
<use xlink:href="#f3_2k" transform="matrix(12.7,0,0,12.2,336.2,559.8)" />
<use xlink:href="#f4_x" transform="matrix(12.7,0,0,12.2,58,545.6)" />
<use xlink:href="#f4_h" transform="matrix(12.7,0,0,12.2,159.5,545.6)" />
<use xlink:href="#f4_f" transform="matrix(12.7,0,0,12.2,277.9,545.6)" />
<use xlink:href="#f4_50" transform="matrix(19.1,0,0,18.4,173.6,552.2)" />
<use xlink:href="#f4_50" transform="matrix(19.1,0,0,18.4,292.3,552.2)" />
</g>
</g>
<path d="M182.4,598.2h36.7m42.9,0h56.6m7.5,0h11.3m71.2,0h56.6" class="g8_97" />
<g clip-path="url(#c8_97)">
<g fill="#000000" >
<use xlink:href="#f2_m" transform="matrix(7.4,0,0,7.2,310.7,608.9)" />
<use xlink:href="#f2_m" transform="matrix(7.4,0,0,7.2,457.3,608.9)" />
<use xlink:href="#f2_l" transform="matrix(12.7,0,0,12.4,196.2,591.4)" />
<use xlink:href="#f2_l" transform="matrix(12.7,0,0,12.4,291.7,591.4)" />
<use xlink:href="#f2_l" transform="matrix(12.7,0,0,12.4,327.2,591.4)" />
<use xlink:href="#f2_l" transform="matrix(12.7,0,0,12.4,432.3,591.4)" />
<use xlink:href="#f2_i" transform="matrix(12.7,0,0,12.4,81,602.9)" />
<use xlink:href="#f2_28" transform="matrix(12.7,0,0,12.4,86.3,602.9)" />
<use xlink:href="#f2_2b" transform="matrix(12.7,0,0,12.4,91.2,602.9)" />
<use xlink:href="#f2_23" transform="matrix(12.7,0,0,12.4,100.4,602.9)" />
<use xlink:href="#f2_c" transform="matrix(12.7,0,0,12.4,109.5,602.9)" />
<use xlink:href="#f2_28" transform="matrix(12.7,0,0,12.4,115.5,602.9)" />
<use xlink:href="#f2_2b" transform="matrix(12.7,0,0,12.4,120.4,602.9)" />
<use xlink:href="#f2_23" transform="matrix(12.7,0,0,12.4,129.5,602.9)" />
<use xlink:href="#f2_d" transform="matrix(12.7,0,0,12.4,150.6,602.9)" />
<use xlink:href="#f2_i" transform="matrix(12.7,0,0,12.4,220.7,602.9)" />
<use xlink:href="#f2_i" transform="matrix(12.7,0,0,12.4,320.1,602.9)" />
<use xlink:href="#f2_i" transform="matrix(12.7,0,0,12.4,339,602.9)" />
<use xlink:href="#f2_28" transform="matrix(12.7,0,0,12.4,183.4,617.3)" />
<use xlink:href="#f2_2b" transform="matrix(12.7,0,0,12.4,188.3,617.3)" />
<use xlink:href="#f2_23" transform="matrix(12.7,0,0,12.4,197.4,617.3)" />
<use xlink:href="#f2_c" transform="matrix(12.7,0,0,12.4,262.9,617.3)" />
<use xlink:href="#f2_28" transform="matrix(12.7,0,0,12.4,268.9,617.3)" />
<use xlink:href="#f2_2b" transform="matrix(12.7,0,0,12.4,273.8,617.3)" />
<use xlink:href="#f2_23" transform="matrix(12.7,0,0,12.4,282.9,617.3)" />
<use xlink:href="#f2_d" transform="matrix(12.7,0,0,12.4,304,617.3)" />
<use xlink:href="#f2_c" transform="matrix(12.7,0,0,12.4,409.5,617.3)" />
<use xlink:href="#f2_28" transform="matrix(12.7,0,0,12.4,415.6,617.3)" />
<use xlink:href="#f2_2b" transform="matrix(12.7,0,0,12.4,420.4,617.3)" />
<use xlink:href="#f2_23" transform="matrix(12.7,0,0,12.4,429.6,617.3)" />
<use xlink:href="#f2_d" transform="matrix(12.7,0,0,12.4,450.6,617.3)" />
<use xlink:href="#f3_2k" transform="matrix(12.7,0,0,12.4,73.3,602.9)" />
<use xlink:href="#f3_2k" transform="matrix(12.7,0,0,12.4,142,602.9)" />
<use xlink:href="#f3_2k" transform="matrix(12.7,0,0,12.4,225.6,602.9)" />
<use xlink:href="#f3_2k" transform="matrix(12.7,0,0,12.4,343.8,602.9)" />
<use xlink:href="#f3_20" transform="matrix(12.7,0,0,12.4,354.3,602.9)" />
<use xlink:href="#f3_2k" transform="matrix(12.7,0,0,12.4,363.5,602.9)" />
<use xlink:href="#f3_20" transform="matrix(12.7,0,0,12.4,467.9,602.9)" />
<use xlink:href="#f3_2k" transform="matrix(12.7,0,0,12.4,477,602.9)" />
<use xlink:href="#f3_2k" transform="matrix(12.7,0,0,12.4,209.9,617.3)" />
<use xlink:href="#f3_2k" transform="matrix(12.7,0,0,12.4,295.4,617.3)" />
<use xlink:href="#f3_2k" transform="matrix(12.7,0,0,12.4,328.2,617.3)" />
<use xlink:href="#f3_2k" transform="matrix(12.7,0,0,12.4,442,617.3)" />
<use xlink:href="#f4_4r" transform="matrix(12.7,0,0,12.4,174.3,590.8)" />
<use xlink:href="#f4_57" transform="matrix(12.7,0,0,12.4,372.8,590.8)" />
<use xlink:href="#f4_h" transform="matrix(12.7,0,0,12.4,281.7,591.4)" />
<use xlink:href="#f4_x" transform="matrix(12.7,0,0,12.4,58,602.9)" />
<use xlink:href="#f4_h" transform="matrix(12.7,0,0,12.4,160.3,602.9)" />
<use xlink:href="#f4_h" transform="matrix(12.7,0,0,12.4,237.6,602.9)" />
<use xlink:href="#f4_f" transform="matrix(12.7,0,0,12.4,383.9,602.9)" />
<use xlink:href="#f4_4s" transform="matrix(12.7,0,0,12.4,174.3,608.6)" />
<use xlink:href="#f4_58" transform="matrix(12.7,0,0,12.4,372.8,608.6)" />
<use xlink:href="#f4_4t" transform="matrix(12.7,0,0,12.4,174.3,621.4)" />
<use xlink:href="#f4_59" transform="matrix(12.7,0,0,12.4,372.8,621.4)" />
<use xlink:href="#f4_50" transform="matrix(19,0,0,18.5,251.6,609.6)" />
<use xlink:href="#f4_50" transform="matrix(19,0,0,18.5,398.3,609.6)" />
</g>
</g>
<path d="M171.8,652.8h36.9" class="g9_97" />
<g clip-path="url(#c9_97)">
<g fill="#000000" >
<use xlink:href="#f2_28" transform="matrix(12.7,0,0,12.2,83.6,657.4)" />
<use xlink:href="#f2_2b" transform="matrix(12.7,0,0,12.2,88.5,657.4)" />
<use xlink:href="#f2_23" transform="matrix(12.7,0,0,12.2,97.7,657.4)" />
<use xlink:href="#f2_c" transform="matrix(12.7,0,0,12.2,106.9,657.4)" />
<use xlink:href="#f2_28" transform="matrix(12.7,0,0,12.2,112.9,657.4)" />
<use xlink:href="#f2_2b" transform="matrix(12.7,0,0,12.2,117.7,657.4)" />
<use xlink:href="#f2_23" transform="matrix(12.7,0,0,12.2,126.9,657.4)" />
<use xlink:href="#f2_d" transform="matrix(12.7,0,0,12.2,148,657.4)" />
<use xlink:href="#f2_28" transform="matrix(12.7,0,0,12.2,172.8,671.6)" />
<use xlink:href="#f2_2b" transform="matrix(12.7,0,0,12.2,177.7,671.6)" />
<use xlink:href="#f2_23" transform="matrix(12.7,0,0,12.2,186.9,671.6)" />
<use xlink:href="#f3_2k" transform="matrix(12.7,0,0,12.2,186.7,646)" />
<use xlink:href="#f3_2k" transform="matrix(12.7,0,0,12.2,73.3,657.4)" />
<use xlink:href="#f3_2k" transform="matrix(12.7,0,0,12.2,139.4,657.4)" />
<use xlink:href="#f3_13" transform="matrix(12.7,0,0,12.2,226.4,657.4)" />
<use xlink:href="#f3_2k" transform="matrix(12.7,0,0,12.2,199.4,671.6)" />
<use xlink:href="#f4_x" transform="matrix(12.7,0,0,12.2,58,657.4)" />
<use xlink:href="#f4_h" transform="matrix(12.7,0,0,12.2,157.8,657.4)" />
<use xlink:href="#f4_f" transform="matrix(12.7,0,0,12.2,212.9,657.4)" />
</g>
</g>
<g fill="#000000" >
<use xlink:href="#f5_l" transform="matrix(12,0,0,12,55,744.5)" />
<use xlink:href="#f5_m" transform="matrix(12,0,0,12,64.2,744.5)" />
<use xlink:href="#f5_i" transform="matrix(12,0,0,12,73.4,744.5)" />
<use xlink:href="#f2_15" transform="matrix(12,0,0,12,82.9,744.5)" />
<use xlink:href="#f2_2i" transform="matrix(12,0,0,12,94.3,744.5)" />
<use xlink:href="#f2_1x" transform="matrix(12,0,0,12,103.1,744.5)" />
<use xlink:href="#f2_28" transform="matrix(12,0,0,12,111.5,744.5)" />
<use xlink:href="#f2_2h" transform="matrix(12,0,0,12,115.9,744.5)" />
<use xlink:href="#f2_1x" transform="matrix(12,0,0,12,125,744.5)" />
<use xlink:href="#f2_2g" transform="matrix(12,0,0,12,133.1,744.5)" />
<use xlink:href="#f2_21" transform="matrix(12,0,0,12,138.6,744.5)" />
<use xlink:href="#f2_u" transform="matrix(12,0,0,12,146.6,744.5)" />
</g>
<path d="M171.4,740.4h93.2" class="g10_97" />
<path d="M168.1,708.6L156.4,725" class="g11_97" />
<g clip-path="url(#c10_97)">
<g fill="#000000" >
<use xlink:href="#f2_m" transform="matrix(7.3,0,0,7.1,220.1,724.9)" />
<use xlink:href="#f2_m" transform="matrix(7.3,0,0,7.1,163.1,725)" />
<use xlink:href="#f2_k" transform="matrix(7.3,0,0,7.1,159.1,764.9)" />
<use xlink:href="#f2_2f" transform="matrix(12.6,0,0,12.3,197.2,733.2)" />
<use xlink:href="#f2_25" transform="matrix(12.6,0,0,12.3,204.4,733.2)" />
<use xlink:href="#f2_2a" transform="matrix(12.6,0,0,12.3,209.6,733.2)" />
<use xlink:href="#f2_2f" transform="matrix(12.6,0,0,12.3,172,759.7)" />
<use xlink:href="#f2_25" transform="matrix(12.6,0,0,12.3,179.2,759.7)" />
<use xlink:href="#f2_2a" transform="matrix(12.6,0,0,12.3,184.4,759.7)" />
<use xlink:href="#f2_1z" transform="matrix(12.6,0,0,12.3,225.5,759.7)" />
<use xlink:href="#f2_2b" transform="matrix(12.6,0,0,12.3,233.6,759.7)" />
<use xlink:href="#f2_2f" transform="matrix(12.6,0,0,12.3,242.8,759.7)" />
<use xlink:href="#f3_2k" transform="matrix(12.6,0,0,12.3,230.1,733.2)" />
<use xlink:href="#f3_20" transform="matrix(12.6,0,0,12.3,269.7,745)" />
<use xlink:href="#f3_2k" transform="matrix(12.6,0,0,12.3,278.9,745)" />
<use xlink:href="#f3_2k" transform="matrix(12.6,0,0,12.3,199.5,759.7)" />
<use xlink:href="#f3_2k" transform="matrix(12.6,0,0,12.3,255.4,759.7)" />
<use xlink:href="#f4_2c" transform="matrix(7.3,0,-2.4,7.1,154.2,716.7)" />
<use xlink:href="#f4_f" transform="matrix(12.6,0,0,12.3,211.6,759.7)" />
<use xlink:href="#f4_50" transform="matrix(18.9,0,0,18.4,158,751.6)" />
</g>
</g>
<g fill="#000000" >
<use xlink:href="#f5_1f" transform="matrix(12,0,0,12,440.9,789.3)" />
<use xlink:href="#f5_1i" transform="matrix(12,0,0,12,455.2,789.3)" />
<use xlink:href="#f2_15" transform="matrix(12,0,0,12,55,828.1)" />
<use xlink:href="#f2_2i" transform="matrix(12,0,0,12,66.4,828.1)" />
<use xlink:href="#f2_1x" transform="matrix(12,0,0,12,75.2,828.1)" />
<use xlink:href="#f2_28" transform="matrix(12,0,0,12,83.6,828.1)" />
<use xlink:href="#f2_2h" transform="matrix(12,0,0,12,88.4,828.1)" />
<use xlink:href="#f2_1x" transform="matrix(12,0,0,12,97.5,828.1)" />
<use xlink:href="#f2_2g" transform="matrix(12,0,0,12,105.6,828.1)" />
<use xlink:href="#f2_21" transform="matrix(12,0,0,12,111.1,828.1)" />
<use xlink:href="#f2_u" transform="matrix(12,0,0,12,119.1,828.1)" />
</g>
<g clip-path="url(#c11_97)">
<g fill="#000000" >
<use xlink:href="#f2_l" transform="matrix(7.2,0,0,7.1,133,807.4)" />
<use xlink:href="#f2_l" transform="matrix(7.2,0,0,7.1,171.5,820.3)" />
<use xlink:href="#f2_m" transform="matrix(7.2,0,0,7.1,242.1,820.3)" />
<use xlink:href="#f2_k" transform="matrix(7.2,0,0,7.1,133.1,848.5)" />
<use xlink:href="#f2_1z" transform="matrix(12.5,0,0,12.3,142.1,828.6)" />
<use xlink:href="#f2_2b" transform="matrix(12.5,0,0,12.3,150.2,828.6)" />
<use xlink:href="#f2_2g" transform="matrix(12.5,0,0,12.3,159.3,828.6)" />
<use xlink:href="#f2_c" transform="matrix(12.5,0,0,12.3,178,828.6)" />
<use xlink:href="#f2_l" transform="matrix(12.5,0,0,12.3,182.6,828.6)" />
<use xlink:href="#f2_d" transform="matrix(12.5,0,0,12.3,249.4,828.6)" />
<use xlink:href="#f3_2k" transform="matrix(12.5,0,0,12.3,207.3,828.6)" />
<use xlink:href="#f3_2k" transform="matrix(12.5,0,0,12.3,233.1,828.6)" />
<use xlink:href="#f3_20" transform="matrix(12.5,0,0,12.3,256,828.6)" />
<use xlink:href="#f3_2k" transform="matrix(12.5,0,0,12.3,265.2,828.6)" />
<use xlink:href="#f4_h" transform="matrix(7.2,0,0,7.1,165.8,820.3)" />
<use xlink:href="#f4_h" transform="matrix(12.5,0,0,12.3,193.3,828.6)" />
<use xlink:href="#f4_f" transform="matrix(12.5,0,0,12.3,218.8,828.6)" />
<use xlink:href="#f4_50" transform="matrix(18.8,0,0,18.4,131.9,835.2)" />
</g>
</g>
<g fill="#000000" >
<use xlink:href="#f5_1j" transform="matrix(12,0,0,12,55,872.9)" />
<use xlink:href="#f5_2b" transform="matrix(12,0,0,12,65.3,872.9)" />
<use xlink:href="#f5_28" transform="matrix(12,0,0,12,74.5,872.9)" />
<use xlink:href="#f5_2h" transform="matrix(12,0,0,12,79.2,872.9)" />
<use xlink:href="#f5_2g" transform="matrix(12,0,0,12,89.5,872.9)" />
<use xlink:href="#f5_25" transform="matrix(12,0,0,12,95.7,872.9)" />
<use xlink:href="#f5_2b" transform="matrix(12,0,0,12,100.8,872.9)" />
<use xlink:href="#f5_2a" transform="matrix(12,0,0,12,109.9,872.9)" />
<use xlink:href="#f5_u" transform="matrix(12,0,0,12,120.2,872.9)" />
</g>
<path d="M101.6,907.9h88" class="g12_97" />
<g clip-path="url(#c12_97)">
<g fill="#000000" >
<use xlink:href="#f2_j" transform="matrix(7.4,0,0,7.1,90.9,890.1)" />
<use xlink:href="#f2_m" transform="matrix(7.4,0,0,7.1,93.8,890.1)" />
<use xlink:href="#f2_m" transform="matrix(7.4,0,0,7.1,147.7,892.9)" />
<use xlink:href="#f2_k" transform="matrix(7.4,0,0,7.1,89.6,932.5)" />
<use xlink:href="#f2_2f" transform="matrix(12.6,0,0,12.3,125,901.1)" />
<use xlink:href="#f2_25" transform="matrix(12.6,0,0,12.3,132.1,901.1)" />
<use xlink:href="#f2_2a" transform="matrix(12.6,0,0,12.3,137.3,901.1)" />
<use xlink:href="#f2_i" transform="matrix(12.6,0,0,12.3,262.6,912.5)" />
<use xlink:href="#f2_i" transform="matrix(12.6,0,0,12.3,267.2,912.5)" />
<use xlink:href="#f2_i" transform="matrix(12.6,0,0,12.3,271.8,912.5)" />
<use xlink:href="#f2_i" transform="matrix(12.6,0,0,12.3,276.3,912.5)" />
<use xlink:href="#f2_c" transform="matrix(12.6,0,0,12.3,280.9,912.5)" />
<use xlink:href="#f2_d" transform="matrix(12.6,0,0,12.3,292.6,912.5)" />
<use xlink:href="#f2_2f" transform="matrix(12.6,0,0,12.3,102.3,926.7)" />
<use xlink:href="#f2_25" transform="matrix(12.6,0,0,12.3,109.4,926.7)" />
<use xlink:href="#f2_2a" transform="matrix(12.6,0,0,12.3,114.6,926.7)" />
<use xlink:href="#f2_1z" transform="matrix(12.6,0,0,12.3,153,926.7)" />
<use xlink:href="#f2_2b" transform="matrix(12.6,0,0,12.3,161,926.7)" />
<use xlink:href="#f2_2f" transform="matrix(12.6,0,0,12.3,170.1,926.7)" />
<use xlink:href="#f3_2k" transform="matrix(12.6,0,0,12.3,157.6,901.1)" />
<use xlink:href="#f3_19" transform="matrix(12.6,0,0,12.3,58.5,912.5)" />
<use xlink:href="#f3_20" transform="matrix(12.6,0,0,12.3,192.3,912.5)" />
<use xlink:href="#f3_2k" transform="matrix(12.6,0,0,12.3,201.4,912.5)" />
<use xlink:href="#f3_25" transform="matrix(12.6,0,0,12.3,286.8,912.5)" />
<use xlink:href="#f3_2k" transform="matrix(12.6,0,0,12.3,127.3,926.7)" />
<use xlink:href="#f3_2k" transform="matrix(12.6,0,0,12.3,180.4,926.7)" />
<use xlink:href="#f4_2c" transform="matrix(7.4,0,0,7.1,85.6,890.1)" />
<use xlink:href="#f4_x" transform="matrix(12.6,0,0,12.3,71,912.5)" />
<use xlink:href="#f4_f" transform="matrix(12.6,0,0,12.3,139.3,926.7)" />
<use xlink:href="#f4_50" transform="matrix(19,0,0,18.4,88.5,919.1)" />
</g>
</g>
<path d="M101.8,969.1H291.6m55.5,0h88.2" class="g13_97" />
<g clip-path="url(#c13_97)">
<g fill="#000000" >
<use xlink:href="#f2_j" transform="matrix(7.4,0,0,7.2,91,951.3)" />
<use xlink:href="#f2_m" transform="matrix(7.4,0,0,7.2,93.9,951.3)" />
<use xlink:href="#f2_j" transform="matrix(7.4,0,0,7.2,336.3,951.3)" />
<use xlink:href="#f2_m" transform="matrix(7.4,0,0,7.2,339.2,951.3)" />
<use xlink:href="#f2_m" transform="matrix(7.4,0,0,7.2,173.1,954.1)" />
<use xlink:href="#f2_m" transform="matrix(7.4,0,0,7.2,394.6,954.1)" />
<use xlink:href="#f2_k" transform="matrix(7.4,0,0,7.2,89.7,993.8)" />
<use xlink:href="#f2_k" transform="matrix(7.4,0,0,7.2,335,993.8)" />
<use xlink:href="#f2_2f" transform="matrix(12.7,0,0,12.3,150.3,962.3)" />
<use xlink:href="#f2_25" transform="matrix(12.7,0,0,12.3,157.5,962.3)" />
<use xlink:href="#f2_2a" transform="matrix(12.7,0,0,12.3,162.6,962.3)" />
<use xlink:href="#f2_c" transform="matrix(12.7,0,0,12.3,180.3,962.3)" />
<use xlink:href="#f2_j" transform="matrix(12.7,0,0,12.3,196,962.3)" />
<use xlink:href="#f2_m" transform="matrix(12.7,0,0,12.3,200.9,962.3)" />
<use xlink:href="#f2_d" transform="matrix(12.7,0,0,12.3,236.7,962.3)" />
<use xlink:href="#f2_1z" transform="matrix(12.7,0,0,12.3,369.5,962.3)" />
<use xlink:href="#f2_2b" transform="matrix(12.7,0,0,12.3,377.5,962.3)" />
<use xlink:href="#f2_2f" transform="matrix(12.7,0,0,12.3,386.7,962.3)" />
<use xlink:href="#f2_i" transform="matrix(12.7,0,0,12.3,523.1,973.7)" />
<use xlink:href="#f2_i" transform="matrix(12.7,0,0,12.3,527.7,973.7)" />
<use xlink:href="#f2_i" transform="matrix(12.7,0,0,12.3,532.3,973.7)" />
<use xlink:href="#f2_i" transform="matrix(12.7,0,0,12.3,536.8,973.7)" />
<use xlink:href="#f2_c" transform="matrix(12.7,0,0,12.3,541.4,973.7)" />
<use xlink:href="#f2_d" transform="matrix(12.7,0,0,12.3,558.3,973.7)" />
<use xlink:href="#f2_2f" transform="matrix(12.7,0,0,12.3,102.5,988)" />
<use xlink:href="#f2_25" transform="matrix(12.7,0,0,12.3,109.6,988)" />
<use xlink:href="#f2_2a" transform="matrix(12.7,0,0,12.3,114.7,988)" />
<use xlink:href="#f2_c" transform="matrix(12.7,0,0,12.3,123.9,988)" />
<use xlink:href="#f2_j" transform="matrix(12.7,0,0,12.3,139.7,988)" />
<use xlink:href="#f2_m" transform="matrix(12.7,0,0,12.3,144.5,988)" />
<use xlink:href="#f2_d" transform="matrix(12.7,0,0,12.3,180.3,988)" />
<use xlink:href="#f2_1z" transform="matrix(12.7,0,0,12.3,203.8,988)" />
<use xlink:href="#f2_2b" transform="matrix(12.7,0,0,12.3,211.8,988)" />
<use xlink:href="#f2_2f" transform="matrix(12.7,0,0,12.3,221,988)" />
<use xlink:href="#f2_c" transform="matrix(12.7,0,0,12.3,228.2,988)" />
<use xlink:href="#f2_j" transform="matrix(12.7,0,0,12.3,243.9,988)" />
<use xlink:href="#f2_m" transform="matrix(12.7,0,0,12.3,248.8,988)" />
<use xlink:href="#f2_d" transform="matrix(12.7,0,0,12.3,284.6,988)" />
<use xlink:href="#f2_1z" transform="matrix(12.7,0,0,12.3,348,988)" />
<use xlink:href="#f2_2b" transform="matrix(12.7,0,0,12.3,356,988)" />
<use xlink:href="#f2_2f" transform="matrix(12.7,0,0,12.3,365.2,988)" />
<use xlink:href="#f2_2f" transform="matrix(12.7,0,0,12.3,400.9,988)" />
<use xlink:href="#f2_25" transform="matrix(12.7,0,0,12.3,408.1,988)" />
<use xlink:href="#f2_2a" transform="matrix(12.7,0,0,12.3,413.2,988)" />
<use xlink:href="#f3_2k" transform="matrix(12.7,0,0,12.3,228.2,962.3)" />
<use xlink:href="#f3_2k" transform="matrix(12.7,0,0,12.3,404.6,962.3)" />
<use xlink:href="#f3_19" transform="matrix(12.7,0,0,12.3,58.5,973.7)" />
<use xlink:href="#f3_20" transform="matrix(12.7,0,0,12.3,294.4,973.7)" />
<use xlink:href="#f3_2k" transform="matrix(12.7,0,0,12.3,303.6,973.7)" />
<use xlink:href="#f3_20" transform="matrix(12.7,0,0,12.3,438.1,973.7)" />
<use xlink:href="#f3_2k" transform="matrix(12.7,0,0,12.3,447.3,973.7)" />
<use xlink:href="#f3_25" transform="matrix(12.7,0,0,12.3,547.4,973.7)" />
<use xlink:href="#f3_25" transform="matrix(12.7,0,0,12.3,552.6,973.7)" />
<use xlink:href="#f3_2k" transform="matrix(12.7,0,0,12.3,171.8,988)" />
<use xlink:href="#f3_2k" transform="matrix(12.7,0,0,12.3,276.1,988)" />
<use xlink:href="#f3_2k" transform="matrix(12.7,0,0,12.3,375.5,988)" />
<use xlink:href="#f3_2k" transform="matrix(12.7,0,0,12.3,426.1,988)" />
<use xlink:href="#f4_2c" transform="matrix(7.4,0,0,7.2,85.7,951.3)" />
<use xlink:href="#f4_2c" transform="matrix(7.4,0,0,7.2,331,951.3)" />
<use xlink:href="#f4_2c" transform="matrix(12.7,0,0,12.3,186.9,962.3)" />
<use xlink:href="#f4_h" transform="matrix(12.7,0,0,12.3,213.5,962.3)" />
<use xlink:href="#f4_x" transform="matrix(12.7,0,0,12.3,71,973.7)" />
<use xlink:href="#f4_x" transform="matrix(12.7,0,0,12.3,316.3,973.7)" />
<use xlink:href="#f4_x" transform="matrix(12.7,0,0,12.3,460,973.7)" />
<use xlink:href="#f4_2c" transform="matrix(12.7,0,0,12.3,130.5,988)" />
<use xlink:href="#f4_h" transform="matrix(12.7,0,0,12.3,157.1,988)" />
<use xlink:href="#f4_f" transform="matrix(12.7,0,0,12.3,190.1,988)" />
<use xlink:href="#f4_2c" transform="matrix(12.7,0,0,12.3,234.7,988)" />
<use xlink:href="#f4_h" transform="matrix(12.7,0,0,12.3,261.3,988)" />
<use xlink:href="#f4_f" transform="matrix(12.7,0,0,12.3,387.4,988)" />
<use xlink:href="#f4_50" transform="matrix(19,0,0,18.4,88.7,980.4)" />
<use xlink:href="#f4_50" transform="matrix(19,0,0,18.4,334,980.4)" />
</g>
</g>
<path d="M111.2,1030.4h88.3" class="g14_97" />
<path d="M119.7,1105.7l1.8,-1.1m.1,0l4.4,7.2m0,.1l4.9,-19m0,-.1h10.6" class="g15_97" />
<path fill-rule="evenodd" d="M118.8,1104.7l2.5,-1.4l4,5.9l4.5,-17.6h10.9v.9H130.4l-4.7,18.6h-.9l-4.5,-6.7l-1.2,.8l-.3,-.5Z" class="g16_97" />
<path d="M107.8,1089.7h34.5" class="g14_97" />
<path d="M202.9,1128.3l1.9,-1.1m0,0l4.4,7.2m0,0l4.9,-19m0,0h10.6" class="g15_97" />
<path fill-rule="evenodd" d="M202,1127.3l2.5,-1.4l4,5.9l4.5,-17.6h11v.9H213.6l-4.7,18.6H208l-4.5,-6.7l-1.3,.8l-.2,-.5Z" class="g16_97" />
<path d="M200.5,1112.3h25" class="g17_97" />
<path d="M281.6,1128.3l1.8,-1.1m.1,0l4.4,7.2m0,0l4.9,-19m0,0h10.6" class="g15_97" />
<path fill-rule="evenodd" d="M280.7,1127.3l2.5,-1.4l4,5.9l4.5,-17.6h10.9v.9H292.3l-4.7,18.6h-.9l-4.5,-6.7l-1.2,.8l-.3,-.5Z" class="g16_97" />
<path d="M279.1,1112.3h25.1" class="g17_97" />
<path d="M161.3,1089.7H305.7" class="g14_97" />
<path d="M357.1,1105.7l1.9,-1.1m0,0l4.5,7.2m0,.1l4.8,-19m0,-.1h10.6" class="g15_97" />
<path fill-rule="evenodd" d="M356.2,1104.7l2.6,-1.4l3.9,5.9l4.5,-17.6h11v.9H367.9l-4.8,18.6h-.9l-4.5,-6.7l-1.2,.8l-.3,-.5Z" class="g16_97" />
<path d="M345.2,1089.7h34.5m79.5,0h11.9" class="g14_97" />
<g clip-path="url(#c14_97)">
<g fill="#000000" >
<use xlink:href="#f2_j" transform="matrix(7.1,0,0,7.1,100.5,1012.8)" />
<use xlink:href="#f2_m" transform="matrix(7.1,0,0,7.1,103.4,1012.8)" />
<use xlink:href="#f2_k" transform="matrix(7.1,0,0,7.1,99.2,1054.7)" />
<use xlink:href="#f2_j" transform="matrix(7.1,0,0,7.1,150.5,1072.1)" />
<use xlink:href="#f2_m" transform="matrix(7.1,0,0,7.1,153.4,1072.1)" />
<use xlink:href="#f2_j" transform="matrix(7.1,0,0,7.1,388,1072.1)" />
<use xlink:href="#f2_m" transform="matrix(7.1,0,0,7.1,390.8,1072.1)" />
<use xlink:href="#f2_k" transform="matrix(7.1,0,0,7.1,149.2,1114)" />
<use xlink:href="#f2_k" transform="matrix(7.1,0,0,7.1,386.6,1114)" />
<use xlink:href="#f2_l" transform="matrix(12.2,0,0,12.1,150.8,1023.7)" />
<use xlink:href="#f2_m" transform="matrix(12.2,0,0,12.1,58,1035)" />
<use xlink:href="#f2_2f" transform="matrix(12.2,0,0,12.1,111.9,1049)" />
<use xlink:href="#f2_25" transform="matrix(12.2,0,0,12.1,119.1,1049)" />
<use xlink:href="#f2_2a" transform="matrix(12.2,0,0,12.1,124.3,1049)" />
<use xlink:href="#f2_1z" transform="matrix(12.2,0,0,12.1,162.8,1049)" />
<use xlink:href="#f2_2b" transform="matrix(12.2,0,0,12.1,170.8,1049)" />
<use xlink:href="#f2_2f" transform="matrix(12.2,0,0,12.1,180,1049)" />
<use xlink:href="#f2_l" transform="matrix(12.2,0,0,12.1,120.5,1083)" />
<use xlink:href="#f2_l" transform="matrix(12.2,0,0,12.1,228.9,1083)" />
<use xlink:href="#f2_l" transform="matrix(12.2,0,0,12.1,357.8,1083)" />
<use xlink:href="#f2_2f" transform="matrix(12.2,0,0,12.1,397.9,1094.3)" />
<use xlink:href="#f2_21" transform="matrix(12.2,0,0,12.1,405,1094.3)" />
<use xlink:href="#f2_1z" transform="matrix(12.2,0,0,12.1,413.1,1094.3)" />
<use xlink:href="#f2_l" transform="matrix(12.2,0,0,12.1,208.4,1105.6)" />
<use xlink:href="#f2_l" transform="matrix(12.2,0,0,12.1,287.1,1105.6)" />
<use xlink:href="#f2_o" transform="matrix(12.2,0,0,12.1,460.9,1108.3)" />
<use xlink:href="#f2_m" transform="matrix(12.2,0,0,12.1,109.1,1109.6)" />
<use xlink:href="#f2_m" transform="matrix(12.2,0,0,12.1,130.9,1109.6)" />
<use xlink:href="#f2_m" transform="matrix(12.2,0,0,12.1,346.5,1109.6)" />
<use xlink:href="#f2_m" transform="matrix(12.2,0,0,12.1,368.3,1109.6)" />
<use xlink:href="#f2_1z" transform="matrix(12.2,0,0,12.1,162.3,1116.9)" />
<use xlink:href="#f2_2b" transform="matrix(12.2,0,0,12.1,170.3,1116.9)" />
<use xlink:href="#f2_2f" transform="matrix(12.2,0,0,12.1,179.5,1116.9)" />
<use xlink:href="#f2_2f" transform="matrix(12.2,0,0,12.1,243.3,1116.9)" />
<use xlink:href="#f2_25" transform="matrix(12.2,0,0,12.1,250.4,1116.9)" />
<use xlink:href="#f2_2a" transform="matrix(12.2,0,0,12.1,255.6,1116.9)" />
<use xlink:href="#f2_m" transform="matrix(12.2,0,0,12.1,214.1,1132.2)" />
<use xlink:href="#f2_m" transform="matrix(12.2,0,0,12.1,292.8,1132.2)" />
<use xlink:href="#f3_19" transform="matrix(12.2,0,0,12.1,68,1035)" />
<use xlink:href="#f3_20" transform="matrix(12.2,0,0,12.1,202.2,1035)" />
<use xlink:href="#f3_2k" transform="matrix(12.2,0,0,12.1,211.4,1035)" />
<use xlink:href="#f3_2k" transform="matrix(12.2,0,0,12.1,137,1049)" />
<use xlink:href="#f3_2k" transform="matrix(12.2,0,0,12.1,190.2,1049)" />
<use xlink:href="#f3_19" transform="matrix(12.2,0,0,12.1,80.5,1094.3)" />
<use xlink:href="#f3_20" transform="matrix(12.2,0,0,12.1,308.5,1094.3)" />
<use xlink:href="#f3_2k" transform="matrix(12.2,0,0,12.1,317.7,1094.3)" />
<use xlink:href="#f3_2k" transform="matrix(12.2,0,0,12.1,433.1,1094.3)" />
<use xlink:href="#f3_20" transform="matrix(12.2,0,0,12.1,482.9,1094.3)" />
<use xlink:href="#f3_2k" transform="matrix(12.2,0,0,12.1,492,1094.3)" />
<use xlink:href="#f3_2k" transform="matrix(12.2,0,0,12.1,189.6,1116.9)" />
<use xlink:href="#f3_2k" transform="matrix(12.2,0,0,12.1,268.4,1116.9)" />
<use xlink:href="#f4_2c" transform="matrix(7.1,0,0,7.1,95.2,1012.8)" />
<use xlink:href="#f4_2c" transform="matrix(7.1,0,0,7.1,145.2,1072.1)" />
<use xlink:href="#f4_2c" transform="matrix(7.1,0,0,7.1,382.6,1072.1)" />
<use xlink:href="#f4_x" transform="matrix(12.2,0,0,12.1,80.5,1035)" />
<use xlink:href="#f4_f" transform="matrix(12.2,0,0,12.1,149.1,1049)" />
<use xlink:href="#f4_2c" transform="matrix(12.2,0,0,12.1,460.4,1083)" />
<use xlink:href="#f4_4o" transform="matrix(12.2,0,0,12.1,422.7,1084.3)" />
<use xlink:href="#f4_54" transform="matrix(12.2,0,0,12.1,473.8,1084.3)" />
<use xlink:href="#f4_4g" transform="matrix(12.2,0,0,12.1,57.4,1094.3)" />
<use xlink:href="#f4_x" transform="matrix(12.2,0,0,12.1,93,1094.3)" />
<use xlink:href="#f4_x" transform="matrix(12.2,0,0,12.1,330.4,1094.3)" />
<use xlink:href="#f4_h" transform="matrix(12.2,0,0,12.1,445.1,1094.3)" />
<use xlink:href="#f4_4p" transform="matrix(12.2,0,0,12.1,422.7,1099.1)" />
<use xlink:href="#f4_55" transform="matrix(12.2,0,0,12.1,473.8,1099.1)" />
<use xlink:href="#f4_4q" transform="matrix(12.2,0,0,12.1,422.7,1110.5)" />
<use xlink:href="#f4_56" transform="matrix(12.2,0,0,12.1,473.8,1110.5)" />
<use xlink:href="#f4_f" transform="matrix(12.2,0,0,12.1,229.8,1116.9)" />
<use xlink:href="#f4_50" transform="matrix(18.3,0,0,18.2,98.1,1041.5)" />
<use xlink:href="#f4_50" transform="matrix(18.3,0,0,18.2,148.2,1100.8)" />
<use xlink:href="#f4_50" transform="matrix(18.3,0,0,18.2,385.6,1100.8)" />
</g>
</g>
<path fill-rule="evenodd" d="M37.4,38.1h.7v-.7h-.7v.7Z" class="g16_97" />
<path fill-rule="evenodd" d="M37.4,38.1h.7v-.7h-.7v.7Z" class="g16_97" />
<path fill-rule="evenodd" d="M38.1,38.1H871.5v-.7H38.1v.7Z" class="g16_97" />
<path fill-rule="evenodd" d="M871.5,38.1h.8v-.7h-.8v.7Z" class="g16_97" />
<path fill-rule="evenodd" d="M871.5,38.1h.8v-.7h-.8v.7Z" class="g16_97" />
<path fill-rule="evenodd" d="M37.4,1248.5h.7V38.1h-.7V1248.5Z" class="g16_97" />
<path fill-rule="evenodd" d="M872.3,1248.5h.7V38.1h-.7V1248.5Z" class="g16_97" />
<path fill-rule="evenodd" d="M871.5,1248.5h.8V38.1h-.8V1248.5Z" class="g16_97" />
<path fill-rule="evenodd" d="M37.4,1249.2h.7v-.7h-.7v.7Z" class="g16_97" />
<path fill-rule="evenodd" d="M37.4,1249.2h.7v-.7h-.7v.7Z" class="g16_97" />
<path fill-rule="evenodd" d="M38.1,1249.9H871.5v-.7H38.1v.7Z" class="g16_97" />
<path fill-rule="evenodd" d="M38.1,1249.2H871.5v-.7H38.1v.7Z" class="g16_97" />
<path fill-rule="evenodd" d="M872.3,1249.9h.7v-1.4h-.7v1.4Z" class="g16_97" />
<path fill-rule="evenodd" d="M871.5,1249.9H873v-.7h-1.5v.7Z" class="g16_97" />
<path fill-rule="evenodd" d="M871.5,1249.2h.8v-.7h-.8v.7Z" class="g16_97" />
<path fill-rule="evenodd" d="M871.5,1249.2h.8v-.7h-.8v.7Z" class="g16_97" />
<defs>
<path d="M489,-15c0,0,-99,0,-179,30c0,0,-80,30,-136,91c0,0,-56,61,-85,152c0,0,-30,91,-30,212c0,0,0,123,32,218c0,0,33,96,92,161c0,0,59,65,142,98c0,0,82,34,181,34c0,0,40,0,78,-7c0,0,37,-7,69,-18c0,0,31,-11,57,-25c0,0,25,-14,35,-24c0,0,10,-10,14,-17c0,0,4,-7,6,-17c0,0,2,-11,3,-25c0,0,2,-14,2,-35c0,0,0,-22,-2,-38c0,0,-1,-15,-5,-25c0,0,-4,-10,-9,-14c0,0,-5,-5,-12,-5c0,0,-11,0,-28,13c0,0,-18,13,-45,29c0,0,-27,16,-65,29c0,0,-37,13,-89,13c0,0,-58,0,-103,-23c0,0,-45,-23,-77,-67c0,0,-31,-44,-48,-106c0,0,-16,-61,-16,-139c0,0,0,-85,17,-147c0,0,18,-62,50,-103c0,0,33,-40,79,-60c0,0,45,-19,103,-19c0,0,52,0,90,12c0,0,38,12,65,27c0,0,27,15,45,27c0,0,17,12,27,12c0,0,8,0,12,-3c0,0,4,-3,7,-12c0,0,3,-9,5,-25c0,0,1,-16,1,-43c0,0,0,-18,-1,-31c0,0,-1,-14,-3,-23c0,0,-2,-9,-6,-16c0,0,-4,-7,-12,-15c0,0,-8,-9,-32,-22c0,0,-23,-14,-57,-26C661,13,627,1,583,-6c0,0,-43,-9,-94,-9Z" 
id="f0_j"
transform="scale(0.001,-0.001)" />

<path d="M440,150c0,0,41,0,68,8c0,0,28,9,49,26c0,0,20,16,32,41c0,0,11,25,11,58c0,0,0,33,-11,60c0,0,-11,26,-33,44c0,0,-21,18,-55,28c0,0,-33,9,-87,9H298V150ZM407,567c0,0,42,0,68,10c0,0,25,10,42,28c0,0,16,17,24,41c0,0,9,24,9,50c0,0,0,29,-9,52c0,0,-9,23,-27,39c0,0,-18,15,-45,23c0,0,-27,8,-72,8H298V567ZM164,0c0,0,-25,0,-42,15c0,0,-16,14,-16,47V903c0,0,0,33,16,48c0,0,17,14,42,14H406c0,0,88,0,150,-15c0,0,61,-15,103,-45c0,0,42,-30,65,-77c0,0,22,-46,22,-108c0,0,0,-36,-9,-67c0,0,-9,-31,-26,-56c0,0,-17,-25,-42,-45c0,0,-25,-19,-57,-31c0,0,41,-7,76,-26c0,0,34,-19,60,-48c0,0,26,-30,41,-69c0,0,15,-40,15,-89c0,0,0,-51,-14,-93c0,0,-15,-42,-40,-74c0,0,-25,-32,-59,-55c0,0,-35,-23,-77,-38C614,29,573,14,525,7C525,7,478,0,420,0Z" 
id="f0_i"
transform="scale(0.001,-0.001)" />

<path d="M320,-17c0,0,-50,0,-93,9c0,0,-43,8,-76,19c0,0,-32,11,-54,24C97,35,75,48,65,58c0,0,-10,9,-14,28c0,0,-4,18,-4,52c0,0,0,23,1,39c0,0,2,15,5,25c0,0,4,10,9,14c0,0,6,4,13,4c0,0,11,0,30,-12c0,0,19,-13,49,-28c0,0,30,-15,71,-27c0,0,42,-12,96,-12c0,0,36,0,64,8c0,0,29,9,49,25c0,0,19,15,30,38c0,0,10,23,10,52c0,0,0,33,-18,56c0,0,-18,24,-46,42c0,0,-29,18,-66,34c0,0,-36,16,-75,34c0,0,-39,18,-76,41c0,0,-36,23,-65,54c0,0,-29,32,-47,75c0,0,-17,44,-17,104c0,0,0,70,25,122c0,0,26,53,70,88c0,0,43,34,103,51c0,0,59,18,125,18c0,0,35,0,69,-6c0,0,34,-5,64,-14c0,0,30,-9,53,-20c0,0,23,-11,31,-18c0,0,7,-8,10,-13c0,0,3,-5,4,-14c0,0,2,-8,3,-21c0,0,1,-13,1,-33c0,0,0,-21,-1,-36c0,0,-1,-15,-4,-25c0,0,-3,-9,-7,-14c0,0,-5,-4,-14,-4c0,0,-8,0,-26,10c0,0,-18,10,-44,23c0,0,-26,12,-60,22c0,0,-34,10,-75,10c0,0,-32,0,-56,-8c0,0,-24,-8,-40,-21c0,0,-16,-14,-24,-34c0,0,-8,-19,-8,-41c0,0,0,-32,18,-56c0,0,17,-23,46,-42c0,0,30,-18,67,-34c0,0,38,-16,76,-34c0,0,39,-18,76,-41c0,0,38,-22,67,-54c0,0,29,-32,47,-75c0,0,18,-43,18,-101c0,0,0,-76,-29,-133c0,0,-28,-58,-77,-96C572,60,524,21,459,2c0,0,-65,-19,-139,-19Z" 
id="f0_2n"
transform="scale(0.001,-0.001)" />

<path d="M164,0c0,0,-25,0,-42,15c0,0,-16,14,-16,47V903c0,0,0,33,16,48c0,0,17,14,42,14H645c0,0,7,0,12,-4c0,0,5,-3,9,-13c0,0,4,-9,6,-24c0,0,2,-14,2,-36c0,0,0,-21,-2,-36c0,0,-2,-14,-6,-23c0,0,-4,-9,-9,-13c0,0,-5,-4,-12,-4H301V576H593c0,0,6,0,12,-4c0,0,6,-4,9,-13c0,0,4,-8,6,-23c0,0,2,-14,2,-35c0,0,0,-22,-2,-36c0,0,-2,-14,-6,-23c0,0,-3,-8,-9,-12c0,0,-6,-4,-12,-4H301V154H649c0,0,6,0,12,-5c0,0,5,-4,9,-13c0,0,4,-9,6,-23c0,0,2,-15,2,-36c0,0,0,-22,-2,-36c0,0,-2,-15,-6,-24c0,0,-4,-9,-9,-13c0,0,-6,-4,-12,-4Z" 
id="f0_t"
transform="scale(0.001,-0.001)" />

<path d="M79,297c0,0,-19,0,-27,18c0,0,-8,17,-8,60c0,0,0,41,8,59c0,0,8,17,27,17H389c0,0,9,0,15,-4c0,0,7,-4,11,-13c0,0,5,-9,7,-23c0,0,1,-15,1,-36c0,0,0,-43,-8,-61c0,0,-8,-17,-26,-17Z" 
id="f0_oj"
transform="scale(0.001,-0.001)" />

<path d="M121,-4c0,0,-39,0,-60,2C61,-2,39,0,32,8c0,0,-8,8,-3,24c0,0,4,15,18,41L279,495L64,892c0,0,-14,26,-19,42c0,0,-5,17,4,24c0,0,9,8,32,10c0,0,23,2,65,2c0,0,35,0,56,-2c0,0,20,-1,32,-4c0,0,12,-4,17,-10c0,0,5,-6,9,-15L431,620L595,939c0,0,5,9,10,15c0,0,5,6,16,10c0,0,10,3,29,4c0,0,19,2,53,2c0,0,37,0,59,-2c0,0,22,-2,30,-10c0,0,8,-8,4,-24c0,0,-4,-16,-17,-42L564,497L793,73c0,0,14,-26,18,-41c0,0,4,-16,-5,-24c0,0,-9,-8,-32,-10c0,0,-24,-2,-65,-2c0,0,-36,0,-56,2c0,0,-20,1,-31,3c0,0,-12,4,-17,10c0,0,-5,6,-9,15L414,374L233,26c0,0,-4,-9,-9,-15c0,0,-6,-6,-17,-10c0,0,-12,-2,-32,-3c0,0,-21,-2,-54,-2Z" 
id="f0_3e"
transform="scale(0.001,-0.001)" />

<path d="M204,-4c0,0,-28,0,-47,2c0,0,-19,2,-31,5c0,0,-11,4,-16,10c0,0,-4,6,-4,13V939c0,0,0,7,4,13c0,0,5,6,17,10c0,0,11,3,30,6c0,0,19,2,47,2c0,0,29,0,48,-2c0,0,18,-3,29,-6c0,0,11,-4,16,-10c0,0,5,-6,5,-13V26c0,0,0,-7,-5,-13c0,0,-5,-6,-16,-10c0,0,-11,-3,-29,-5c0,0,-19,-2,-48,-2Z" 
id="f0_1c"
transform="scale(0.001,-0.001)" />

<path d="M127,0c0,0,-16,0,-28,3C99,3,87,6,80,15c0,0,-8,8,-11,25c0,0,-3,16,-3,42c0,0,0,25,2,42c0,0,2,18,8,32c0,0,6,14,15,27c0,0,9,13,24,29L282,390c0,0,50,53,81,95c0,0,30,43,47,79c0,0,17,35,24,65c0,0,6,30,6,57c0,0,0,24,-8,46c0,0,-8,22,-23,39c0,0,-15,16,-38,25c0,0,-23,10,-55,10c0,0,-44,0,-78,-12c0,0,-33,-11,-59,-25c0,0,-26,-13,-43,-25c0,0,-17,-12,-27,-12c0,0,-7,0,-11,5c0,0,-5,4,-8,15c0,0,-3,10,-5,28c0,0,-2,17,-2,42c0,0,0,18,1,29c0,0,1,12,4,20c0,0,2,9,6,15c0,0,3,6,13,15c0,0,9,9,34,23c0,0,25,14,61,27c0,0,37,14,81,23c0,0,44,9,92,9c0,0,75,0,131,-19c0,0,57,-19,94,-53c0,0,37,-34,55,-81c0,0,19,-47,19,-100c0,0,0,-47,-9,-93c0,0,-9,-45,-37,-98c0,0,-29,-52,-80,-116c0,0,-52,-64,-136,-148L299,159H679c0,0,8,0,14,-4c0,0,6,-5,11,-14c0,0,4,-9,7,-25c0,0,2,-15,2,-36c0,0,0,-22,-2,-37c0,0,-2,-15,-6,-25c0,0,-3,-10,-9,-14c0,0,-6,-4,-14,-4Z" 
id="f0_rz"
transform="scale(0.001,-0.001)" />

<path d="M385,138c0,0,29,0,52,9c0,0,22,10,39,28c0,0,17,19,28,47c0,0,11,29,19,66c0,0,7,37,9,84c0,0,3,47,3,104c0,0,0,69,-4,122c0,0,-4,52,-11,91c0,0,-8,39,-20,66c0,0,-12,27,-28,43c0,0,-16,16,-37,22c0,0,-21,7,-47,7c0,0,-44,0,-73,-21c0,0,-28,-21,-45,-64c0,0,-17,-42,-24,-106c0,0,-6,-63,-6,-148c0,0,0,-103,8,-171c0,0,8,-67,26,-107c0,0,17,-40,45,-56c0,0,27,-16,66,-16ZM378,-17c0,0,-99,0,-164,33c0,0,-65,34,-103,98c0,0,-38,64,-54,156c0,0,-15,92,-15,209c0,0,0,115,19,208c0,0,19,94,61,160c0,0,42,65,110,101c0,0,68,35,165,35c0,0,99,0,164,-34c0,0,65,-34,103,-98c0,0,39,-64,53,-156c0,0,15,-92,15,-209c0,0,0,-115,-18,-209c0,0,-19,-93,-61,-159C653,118,611,53,543,17c0,0,-67,-34,-165,-34Z" 
id="f0_rx"
transform="scale(0.001,-0.001)" />

<path d="M142,0c0,0,-6,0,-12,4c0,0,-5,3,-9,12c0,0,-4,9,-6,23c0,0,-3,15,-3,36c0,0,0,21,2,36c0,0,2,14,6,23c0,0,4,9,10,13c0,0,5,5,12,5H322V779L166,693c0,0,-17,-8,-28,-10c0,0,-1,0,-3,0c-4,0,-10,1,-14,5c0,0,-6,6,-8,22c0,0,-2,15,-2,44c0,0,0,18,0,29c0,0,1,12,4,20c0,0,3,8,8,14c0,0,5,5,14,11L345,962c0,0,4,3,9,5c0,0,6,2,15,3c0,0,9,1,23,2c0,0,15,0,38,0c0,0,28,0,46,-1c0,0,17,-1,26,-4c0,0,9,-3,12,-7c0,0,3,-4,3,-11V152H675c0,0,7,0,12,-5c0,0,6,-4,10,-13c0,0,4,-9,6,-23c0,0,2,-15,2,-36c0,0,0,-21,-2,-36c0,0,-3,-14,-7,-23c0,0,-4,-9,-9,-12c0,0,-5,-4,-12,-4Z" 
id="f0_ry"
transform="scale(0.001,-0.001)" />

<path d="M398,134c0,0,34,0,60,12c0,0,25,13,43,36c0,0,17,23,26,54c0,0,9,31,9,68c0,0,0,38,-7,66c0,0,-7,29,-22,49c0,0,-15,20,-39,30c0,0,-25,10,-60,10c0,0,-21,0,-41,-4c0,0,-20,-4,-40,-10c0,0,-19,-7,-37,-16c0,0,-18,-10,-33,-20c0,0,0,-80,9,-133c0,0,9,-54,26,-85c0,0,18,-31,44,-44c0,0,27,-13,62,-13ZM387,-16c0,0,-67,0,-117,15c0,0,-50,14,-86,43c0,0,-37,29,-60,70c0,0,-23,41,-37,92c0,0,-14,52,-19,112c0,0,-5,61,-5,129c0,0,0,56,5,118c0,0,6,62,22,122c0,0,16,59,45,114c0,0,29,54,75,94c0,0,46,41,111,65c0,0,65,24,155,24c0,0,28,0,57,-4c0,0,29,-3,53,-8c0,0,25,-5,42,-12c0,0,17,-7,23,-12c0,0,5,-5,8,-11c0,0,3,-5,5,-13c0,0,2,-7,3,-17c0,0,1,-11,1,-25c0,0,0,-24,-1,-39c0,0,-2,-15,-5,-24c0,0,-3,-8,-8,-12c0,0,-5,-4,-12,-4c0,0,-9,0,-24,5c0,0,-14,5,-34,11c0,0,-20,6,-47,10c0,0,-27,5,-63,5c0,0,-61,0,-102,-23c0,0,-42,-22,-68,-60c0,0,-26,-39,-38,-90c0,0,-12,-50,-13,-107c0,0,16,10,38,21c0,0,21,10,46,18c0,0,25,7,54,12c0,0,29,5,62,5c0,0,73,0,125,-20c0,0,52,-20,86,-58c0,0,33,-37,48,-90c0,0,16,-53,16,-118c0,0,0,-73,-22,-135c0,0,-23,-62,-66,-108C640,79,597,34,533,9c0,0,-63,-25,-146,-25Z" 
id="f0_s3"
transform="scale(0.001,-0.001)" />

<path d="M589,371L453,782h-1L317,371ZM106,-4c0,0,-35,0,-54,2C52,-2,32,0,25,8c0,0,-7,9,-5,24c0,0,2,16,11,42L329,931c0,0,4,13,10,21c0,0,6,7,19,12c0,0,13,4,36,5c0,0,23,1,61,1c0,0,44,0,71,-1c0,0,26,-1,40,-5c0,0,15,-5,21,-13c0,0,6,-8,11,-22L896,73c0,0,9,-27,11,-43c0,0,3,-15,-6,-23c0,0,-8,-7,-29,-9c0,0,-21,-2,-57,-2c0,0,-38,0,-59,1c0,0,-22,1,-33,4c0,0,-11,3,-16,9c0,0,-4,6,-7,16L635,220H272L211,31c0,0,-2,-11,-7,-18c0,0,-5,-7,-16,-11c0,0,-11,-3,-31,-4c0,0,-19,-2,-51,-2Z" 
id="f0_5"
transform="scale(0.001,-0.001)" />

<path d="M198,-4c0,0,-27,0,-45,2c0,0,-18,2,-28,5c0,0,-11,4,-15,10c0,0,-4,6,-4,13V887c0,0,0,38,20,58c0,0,20,20,53,20H308c0,0,34,0,59,-6c0,0,24,-5,42,-18c0,0,18,-13,30,-35c0,0,12,-21,21,-52L669,279h3L889,852c0,0,9,32,21,53c0,0,11,22,27,35c0,0,15,14,36,19c0,0,21,6,48,6h132c0,0,21,0,35,-5c0,0,15,-5,24,-15c0,0,9,-11,14,-25c0,0,5,-15,5,-33V26c0,0,0,-7,-4,-13c0,0,-4,-6,-15,-10c0,0,-11,-3,-29,-5c0,0,-18,-2,-45,-2c0,0,-27,0,-45,2c0,0,-18,2,-28,5c0,0,-11,4,-15,10c0,0,-5,6,-5,13V813h-1L764,27c0,0,-3,-10,-10,-16c0,0,-6,-6,-18,-10c0,0,-12,-3,-29,-4c0,0,-18,-1,-44,-1c0,0,-25,0,-43,2c0,0,-18,2,-29,5c0,0,-12,4,-19,10c0,0,-6,6,-9,14L293,813h-2V26c0,0,0,-7,-4,-13c0,0,-4,-6,-15,-10c0,0,-11,-3,-29,-5c0,0,-17,-2,-45,-2Z" 
id="f0_1x"
transform="scale(0.001,-0.001)" />

<path d="M193,-4c0,0,-26,0,-43,2c0,0,-18,2,-27,6c0,0,-10,4,-14,10c0,0,-3,6,-3,13V895c0,0,0,35,20,53c0,0,21,17,50,17H282c0,0,28,0,47,-5c0,0,20,-5,35,-16c0,0,15,-11,29,-31c0,0,13,-20,27,-49L608,511c0,0,17,-32,33,-63c0,0,16,-31,31,-62c0,0,14,-31,29,-60c0,0,14,-30,27,-60h1c0,0,-2,52,-3,109c0,0,-1,57,-1,108V936c0,0,0,7,4,13c0,0,5,6,15,11c0,0,10,4,28,6c0,0,17,2,44,2c0,0,25,0,42,-2c0,0,17,-2,27,-6c0,0,9,-5,13,-11c0,0,4,-6,4,-13V68c0,0,0,-17,-6,-30c0,0,-6,-14,-17,-23C879,15,869,6,856,2c0,0,-14,-3,-28,-3H744c0,0,-26,0,-45,4c0,0,-19,5,-35,19c0,0,-16,14,-31,38c0,0,-15,23,-34,60L359,572c0,0,-21,40,-43,86c0,0,-21,47,-38,91h-2c0,0,3,-54,5,-107c0,0,2,-53,2,-110V27c0,0,0,-7,-5,-13c0,0,-4,-6,-14,-10c0,0,-10,-4,-27,-6c0,0,-17,-2,-44,-2Z" 
id="f0_1y"
transform="scale(0.001,-0.001)" />

<path d="M378,-4c0,0,-28,0,-47,2c0,0,-19,2,-31,5c0,0,-11,4,-16,10c0,0,-4,6,-4,13V805H38c0,0,-8,0,-13,4c0,0,-5,5,-9,14c0,0,-3,9,-5,25c0,0,-2,15,-2,37c0,0,0,22,2,38c0,0,2,15,5,25c0,0,4,9,9,13c0,0,5,4,13,4H718c0,0,7,0,12,-4c0,0,6,-4,10,-13c0,0,3,-10,5,-25c0,0,2,-16,2,-38c0,0,0,-22,-2,-37c0,0,-2,-16,-5,-25c0,0,-4,-9,-10,-14c0,0,-5,-4,-12,-4H476V26c0,0,0,-7,-5,-13c0,0,-5,-6,-16,-10c0,0,-11,-3,-30,-5c0,0,-19,-2,-47,-2Z" 
id="f0_2t"
transform="scale(0.001,-0.001)" />

<path d="M514,145c0,0,72,0,121,27c0,0,48,26,78,73c0,0,30,46,42,107c0,0,13,62,13,131c0,0,0,76,-12,139c0,0,-12,62,-41,106c0,0,-29,45,-76,69c0,0,-48,24,-120,24c0,0,-72,0,-120,-27c0,0,-49,-27,-79,-73c0,0,-29,-45,-42,-106c0,0,-12,-61,-12,-129c0,0,0,-79,12,-142c0,0,12,-63,40,-108c0,0,28,-44,76,-68c0,0,48,-23,120,-23ZM508,-17c0,0,-113,0,-196,29c0,0,-84,29,-140,90c0,0,-56,60,-84,154c0,0,-28,93,-28,221c0,0,0,117,29,210c0,0,30,94,89,160c0,0,59,65,146,101c0,0,87,35,202,35c0,0,110,0,194,-29c0,0,84,-30,140,-90c0,0,56,-60,85,-153c0,0,29,-92,29,-217c0,0,0,-120,-30,-215c0,0,-30,-95,-89,-161C855,118,796,52,709,17c0,0,-87,-34,-201,-34Z" 
id="f0_24"
transform="scale(0.001,-0.001)" />

<path d="M441,402V711h-3L193,402ZM441,0V227H19V404L457,952H650V402h90V227H650V0Z" 
id="f1_o"
transform="scale(0.001,-0.001)" />

<path d="M44,-281L425,1053H537L156,-281Z" 
id="f1_j"
transform="scale(0.001,-0.001)" />

<path d="M299,0V777H162l36,173H508V0Z" 
id="f1_l"
transform="scale(0.001,-0.001)" />

<path d="M404,-11c0,0,-136,0,-225,76c0,0,-90,78,-111,215H265c0,0,35,-136,135,-136c0,0,50,0,85,35c0,0,34,36,34,88c0,0,0,64,-41,105c0,0,-42,41,-107,41H336V573h21c0,0,68,0,109,33c0,0,41,34,41,89c0,0,0,50,-32,85c0,0,-32,35,-79,35c0,0,-110,0,-127,-135H76c0,0,9,130,96,209c0,0,87,79,208,79c0,0,134,0,227,-76c0,0,94,-75,94,-182c0,0,0,-116,-115,-210c0,0,73,-46,107,-96c0,0,34,-51,34,-121c0,0,0,-134,-88,-214c0,0,-89,-80,-235,-80Z" 
id="f1_n"
transform="scale(0.001,-0.001)" />

<path d="M134,0V40L339,60V876L137,804v39l292,166h39V60L672,40V0Z" 
id="f2_l"
transform="scale(0.001,-0.001)" />

<path d="M67,0V109L206,235c0,0,133,118,196,190c0,0,63,72,90,149c0,0,27,77,27,177c0,0,0,97,-44,148c0,0,-44,50,-144,50c0,0,-39,0,-81,-10c0,0,-42,-11,-74,-29L150,787H101V980c0,0,135,32,230,32c0,0,164,0,247,-68c0,0,82,-69,82,-193c0,0,0,-84,-32,-158c0,0,-33,-75,-100,-148c0,0,-67,-74,-222,-206c0,0,-67,-57,-141,-125H680V0Z" 
id="f2_m"
transform="scale(0.001,-0.001)" />

<path d="M278,-14c0,0,-52,0,-115,11c0,0,-63,10,-99,23V193H98L134,95c0,0,56,-50,146,-50c0,0,144,0,144,123c0,0,0,91,-114,130l-66,21c0,0,-75,25,-110,50c0,0,-34,26,-53,63c0,0,-18,36,-18,89c0,0,0,92,63,145c0,0,63,54,170,54c0,0,77,0,193,-23V544H454l-32,81c0,0,-39,35,-124,35c0,0,-61,0,-92,-30c0,0,-32,-30,-32,-80c0,0,0,-43,29,-72c0,0,28,-29,86,-48c0,0,110,-38,144,-55c0,0,33,-17,57,-42c0,0,23,-25,36,-57c0,0,13,-32,13,-79c0,0,0,-104,-66,-158c0,0,-66,-53,-195,-53Z" 
id="f2_2f"
transform="scale(0.001,-0.001)" />

<path d="M32,0V33L151,52V649L52,668v33H275V52L395,33V0ZM201,850c0,0,-32,0,-56,24c0,0,-24,24,-24,56c0,0,0,34,24,58c0,0,24,24,56,24c0,0,34,0,58,-24c0,0,24,-24,24,-58c0,0,0,-32,-24,-56c0,0,-24,-24,-58,-24Z" 
id="f2_25"
transform="scale(0.001,-0.001)" />

<path d="M439,0V33l93,19V500c0,0,0,62,-30,97c0,0,-31,36,-94,36c0,0,-67,0,-165,-22V52L338,33V0H35V33l84,19V649L35,668v33H235l7,-57c0,0,57,33,122,54c0,0,65,22,108,22c0,0,91,0,137,-53c0,0,47,-53,47,-154V52L741,33V0Z" 
id="f2_2a"
transform="scale(0.001,-0.001)" />

<path d="M460,-325c0,0,-148,79,-231,172c0,0,-84,93,-123,217c0,0,-39,126,-39,304c0,0,0,178,39,303c0,0,39,125,122,217c0,0,82,93,232,172V997c0,0,-91,-52,-145,-134c0,0,-54,-81,-79,-190c0,0,-25,-109,-25,-305c0,0,0,-194,26,-309c0,0,26,-114,82,-193c0,0,56,-79,141,-128v-63Z" 
id="f2_c"
transform="scale(0.001,-0.001)" />

<path d="M49,-325v63c0,0,85,49,140,128c0,0,56,79,83,194c0,0,26,115,26,308c0,0,0,196,-25,305c0,0,-25,109,-79,190c0,0,-54,82,-145,134v63c0,0,149,-80,232,-172c0,0,83,-92,122,-217c0,0,39,-125,39,-303c0,0,0,-177,-39,-303c0,0,-39,-125,-122,-217c0,0,-83,-93,-232,-173Z" 
id="f2_d"
transform="scale(0.001,-0.001)" />

<path d="M301,78c0,0,41,0,90,27c0,0,49,28,95,77l81,442c0,0,-26,18,-54,27c0,0,-27,10,-67,10c0,0,-70,0,-131,-55c0,0,-61,-55,-99,-152c0,0,-37,-97,-37,-201c0,0,0,-79,33,-127c0,0,33,-48,89,-48ZM245,-14c0,0,-91,0,-145,68c0,0,-54,69,-54,183c0,0,0,128,55,240c0,0,55,112,150,177c0,0,96,66,210,66c0,0,70,0,123,-18c0,0,3,36,51,306l-115,18l6,34H768L589,52L673,33L667,0H454l22,117C476,117,350,-14,245,-14Z" 
id="f3_20"
transform="scale(0.001,-0.001)" />

<path d="M-6,0c0,0,-12,10,-12,32c0,0,0,21,23,51c0,0,23,31,79,82L287,354L159,649L79,668l6,33H270L378,434l93,88c0,0,47,46,67,72c0,0,19,26,19,44c0,0,0,8,-6,13c0,0,-7,6,-38,17l6,33H651c0,0,16,-12,16,-32c0,0,0,-44,-103,-142L404,377L548,49L634,33L628,0H437L313,298L185,176c0,0,-41,-40,-60,-65c0,0,-19,-26,-19,-48c0,0,0,-21,31,-29L131,0Z" 
id="f3_2k"
transform="scale(0.001,-0.001)" />

<path d="M0,214v74H784V214ZM0,494v72H784V494Z" 
id="f4_x"
transform="scale(0.001,-0.001)" />

<path d="M0,356v74H784V356Z" 
id="f4_h"
transform="scale(0.001,-0.001)" />

<path d="M355,0V355H0v72H355V784h72V427H782V355H427V0Z" 
id="f4_f"
transform="scale(0.001,-0.001)" />

<path d="M88,-163c0,0,-39,0,-63,25c0,0,-25,26,-25,65c0,0,0,34,19,54c0,0,19,19,48,19c0,0,30,0,51,-23c0,0,22,-24,37,-24c0,0,12,0,21,11c0,0,8,10,8,35c0,0,0,30,-7,88c0,0,-27,235,-27,620c0,0,13,411,17,446c0,0,17,139,60,188c0,0,43,48,98,48c0,0,37,0,65,-25c0,0,28,-25,28,-54c0,0,0,-35,-19,-57c0,0,-20,-21,-49,-21c0,0,-26,0,-57,27c0,0,-17,15,-30,15c0,0,-12,0,-21,-11c0,0,-8,-11,-8,-37c0,0,0,-31,6,-108c0,0,28,-306,28,-496c0,0,0,-50,-12,-439c0,0,-6,-219,-67,-296c0,0,-41,-50,-101,-50Z" 
id="f4_50"
transform="scale(0.001,-0.001)" />

<path d="M412,-328c0,0,-195,96,-303,284C109,-44,0,142,0,365c0,0,0,232,114,422c0,0,114,191,298,273v-31c0,0,-92,-51,-151,-139c0,0,-59,-88,-88,-223c0,0,-29,-136,-29,-282c0,0,0,-167,27,-301c0,0,26,-133,82,-221c0,0,55,-89,159,-159v-32Z" 
id="f4_c"
transform="scale(0.001,-0.001)" />

<path d="M34,-328v32c0,0,92,50,151,138c0,0,59,88,88,222c0,0,29,135,29,283c0,0,0,165,-27,300c0,0,-26,134,-82,222c0,0,-56,89,-159,160v31c0,0,194,-96,303,-284c0,0,108,-187,108,-410c0,0,0,-232,-114,-422c0,0,-114,-191,-297,-272Z" 
id="f4_d"
transform="scale(0.001,-0.001)" />

<path d="M399,-14c0,0,-341,0,-341,370c0,0,0,175,87,269c0,0,87,95,249,95c0,0,101,0,220,-23V501H573L541,625c0,0,-62,35,-149,35c0,0,-200,0,-200,-304c0,0,0,-158,61,-225c0,0,61,-67,189,-67c0,0,109,0,189,24V43C631,43,595,16,530,1c0,0,-64,-15,-131,-15Z" 
id="f2_1z"
transform="scale(0.001,-0.001)" />

<path d="M377,45c0,0,99,0,147,73c0,0,47,73,47,237c0,0,0,161,-47,233c0,0,-47,72,-147,72c0,0,-97,0,-141,-69c0,0,-44,-69,-44,-236c0,0,0,-169,45,-240c0,0,44,-70,140,-70Zm0,-59c0,0,-158,0,-238,94c0,0,-81,95,-81,274c0,0,0,178,81,272c0,0,80,94,244,94c0,0,160,0,241,-92c0,0,82,-92,82,-274c0,0,0,-368,-329,-368Z" 
id="f2_2b"
transform="scale(0.001,-0.001)" />

<path d="M495,413c0,0,0,133,-34,190c0,0,-34,57,-105,57c0,0,-78,0,-119,-63c0,0,-42,-62,-42,-184ZM374,-14c0,0,-163,0,-239,87c0,0,-75,88,-75,283c0,0,0,183,77,273c0,0,76,91,219,91c0,0,269,0,269,-306V353H194V340c0,0,0,-103,23,-160c0,0,22,-57,70,-87c0,0,47,-29,124,-29c0,0,40,0,96,6c0,0,55,7,91,15V43C598,43,562,20,500,3c0,0,-61,-17,-126,-17Z" 
id="f2_21"
transform="scale(0.001,-0.001)" />

<path d="M31,0V33L150,52v956L31,1026v34H274V52L394,33V0Z" 
id="f2_28"
transform="scale(0.001,-0.001)" />

<path d="M359,-270c0,0,124,0,192,46c0,0,67,47,67,129c0,0,0,43,-26,67c0,0,-26,24,-79,24H242c0,0,-32,-27,-51,-69c0,0,-20,-41,-20,-77c0,0,0,-64,46,-92c0,0,46,-28,142,-28Zm11,561c0,0,81,0,115,47c0,0,34,47,34,141c0,0,0,100,-35,142c0,0,-35,42,-113,42c0,0,-78,0,-114,-43c0,0,-37,-42,-37,-141c0,0,0,-98,36,-143c0,0,36,-45,114,-45ZM359,-329c0,0,-143,0,-218,44c0,0,-75,43,-75,125c0,0,0,39,27,78c0,0,26,38,98,89c0,0,-43,14,-72,48c0,0,-29,35,-29,74L208,262c0,0,-118,55,-118,217c0,0,0,115,73,178c0,0,73,63,211,63c0,0,28,0,71,-6c0,0,44,-6,67,-13l165,83l26,-32L599,644c0,0,50,-56,50,-165c0,0,0,-120,-72,-182c0,0,-73,-62,-208,-62c0,0,-62,0,-114,11L208,148c0,0,2,-13,29,-24c0,0,27,-12,67,-12H512c0,0,113,0,168,-49c0,0,55,-49,55,-134c0,0,0,-79,-44,-137c0,0,-43,-58,-128,-90c0,0,-84,-31,-204,-31Z" 
id="f2_23"
transform="scale(0.001,-0.001)" />

<path d="M115,-329V1060h76V-329Z" 
id="f2_2o"
transform="scale(0.001,-0.001)" />

<path d="M249,-14c0,0,-71,0,-107,42c0,0,-35,42,-35,119V639H15v33l93,29l76,159h47V701H391V639H231V161c0,0,0,-48,22,-73c0,0,22,-24,57,-24c0,0,44,0,106,12V26C416,26,389,8,340,-2c0,0,-49,-12,-91,-12Z" 
id="f2_2g"
transform="scale(0.001,-0.001)" />

<path d="M284,67c0,0,51,0,88,12c0,0,37,12,74,30V358l-98,-3c0,0,-100,-4,-135,-39c0,0,-35,-35,-35,-117c0,0,0,-132,106,-132ZM233,-14c0,0,-179,0,-179,208c0,0,0,70,27,116c0,0,27,46,87,70c0,0,60,24,173,27l105,3V519c0,0,0,72,-26,107c0,0,-27,34,-82,34c0,0,-75,0,-137,-35L176,538H134V691c0,0,121,26,213,26c0,0,115,0,169,-47c0,0,54,-47,54,-144V52L657,33V0H465L451,70c0,0,-85,-84,-218,-84Z" 
id="f2_1x"
transform="scale(0.001,-0.001)" />

<path d="M521,-14c0,0,-205,0,-320,107C201,93,85,200,85,390c0,0,0,185,77,326c0,0,77,142,220,219c0,0,142,76,324,76c0,0,158,0,327,-38L1000,755H951V884c0,0,-46,32,-112,50c0,0,-65,17,-137,17c0,0,-135,0,-242,-72c0,0,-107,-72,-166,-203c0,0,-60,-132,-60,-301c0,0,0,-160,78,-244c0,0,78,-84,222,-84c0,0,85,0,166,25c0,0,82,26,133,65l53,149h49L889,52C889,52,803,20,705,3c0,0,-99,-17,-184,-17Z" 
id="f3_13"
transform="scale(0.001,-0.001)" />

<path d="M122,0V64L295,82V837L123,780v64l282,165H511V82L685,64V0Z" 
id="f5_l"
transform="scale(0.001,-0.001)" />

<path d="M191,-20c0,0,-51,0,-88,34c0,0,-36,36,-36,88c0,0,0,52,36,88c0,0,36,36,88,36c0,0,51,0,88,-36c0,0,36,-36,36,-88c0,0,0,-51,-36,-87c0,0,-36,-35,-88,-35Z" 
id="f5_i"
transform="scale(0.001,-0.001)" />

<path d="M54,0V40L172,60V941L44,960v40H794V760H745L721,922c0,0,-83,11,-241,11H316V516H611l23,120h46V328H634L611,449H316V60L483,40V0Z" 
id="f2_16"
transform="scale(0.001,-0.001)" />

<path d="M383,64c0,0,85,0,152,28V645c0,0,-67,13,-152,13c0,0,-194,0,-194,-314c0,0,0,-141,48,-211c0,0,48,-69,146,-69ZM342,-14c0,0,-287,0,-287,358c0,0,0,184,82,280c0,0,81,96,239,96c0,0,81,0,163,-18c0,0,-4,25,-4,124v182l-118,18v34H659V52L745,33V0H548l-9,52c0,0,-84,-66,-197,-66Z" 
id="f2_20"
transform="scale(0.001,-0.001)" />

<path d="M211,-20c0,0,-39,0,-64,25c0,0,-26,27,-26,64c0,0,0,38,26,64c0,0,26,26,64,26c0,0,37,0,64,-25c0,0,26,-26,26,-65c0,0,0,-37,-26,-64c0,0,-26,-25,-64,-25Zm0,556c0,0,-38,0,-64,26c0,0,-26,26,-26,64c0,0,0,37,26,64c0,0,25,27,64,27c0,0,38,0,64,-27c0,0,26,-27,26,-64c0,0,0,-38,-26,-64c0,0,-27,-26,-64,-26Z" 
id="f2_u"
transform="scale(0.001,-0.001)" />

<path d="M0,-302V1034H328V970H119V-238H328v-64Z" 
id="f4_1r"
transform="scale(0.001,-0.001)" />

<path d="M56,-302v64H265V970H56v64H384V-302Z" 
id="f4_1t"
transform="scale(0.001,-0.001)" />

<path d="M410,-14c0,0,-86,0,-175,14C235,0,145,14,81,38V307h66L181,146c0,0,31,-37,94,-62c0,0,64,-24,132,-24c0,0,214,0,214,177c0,0,0,55,-41,93c0,0,-41,38,-128,68c0,0,-128,42,-185,68c0,0,-56,27,-95,63c0,0,-38,36,-62,87c0,0,-23,51,-23,125c0,0,0,132,90,201c0,0,90,69,263,69c0,0,125,0,278,-32V741H651L618,878c0,0,-76,56,-178,56c0,0,-92,0,-141,-34c0,0,-49,-34,-49,-104c0,0,0,-50,41,-86c0,0,41,-35,128,-63c0,0,171,-56,235,-97c0,0,64,-41,97,-103c0,0,34,-61,34,-143c0,0,0,-318,-375,-318Z" 
id="f5_1j"
transform="scale(0.001,-0.001)" />

<path d="M379,60c0,0,59,0,84,64c0,0,24,65,24,231c0,0,0,164,-24,227c0,0,-24,63,-84,63c0,0,-57,0,-80,-60c0,0,-22,-61,-22,-230c0,0,0,-173,23,-234c0,0,22,-61,79,-61Zm-2,-74c0,0,-161,0,-240,91c0,0,-79,91,-79,277c0,0,0,186,80,276c0,0,81,90,245,90c0,0,167,0,245,-93c0,0,78,-93,78,-273c0,0,0,-188,-81,-278c0,0,-81,-90,-248,-90Z" 
id="f5_2b"
transform="scale(0.001,-0.001)" />

<path d="M30,0V49l76,18V992l-72,18v50H322V67L398,49V0Z" 
id="f5_28"
transform="scale(0.001,-0.001)" />

<path d="M287,-18c0,0,-194,0,-194,206V634L23,652v49H309V217c0,0,0,-63,26,-98c0,0,27,-35,76,-35c0,0,57,0,113,25V634l-64,18v49H740V67L809,49V0H536L526,61L475,35c0,0,-104,-53,-188,-53Z" 
id="f5_2h"
transform="scale(0.001,-0.001)" />

<path d="M327,-14c0,0,-101,0,-156,45c0,0,-55,45,-55,131V624H25v48l108,29l87,159H332V701H480V624H332V176c0,0,0,-49,20,-73c0,0,20,-25,53,-25c0,0,40,0,97,12V26c0,0,-22,-15,-76,-27c0,0,-55,-13,-99,-13Z" 
id="f5_2g"
transform="scale(0.001,-0.001)" />

<path d="M34,0V49l76,18V634L38,652v49H325V67L402,49V0ZM217,831c0,0,-48,0,-81,33c0,0,-34,33,-34,82c0,0,0,48,34,81c0,0,34,33,81,33c0,0,48,0,81,-33c0,0,33,-33,33,-81c0,0,0,-47,-33,-81c0,0,-32,-34,-81,-34Z" 
id="f5_25"
transform="scale(0.001,-0.001)" />

<path d="M41,0V49l69,18V634L41,652v49H313l11,-61l50,26c0,0,105,54,188,54c0,0,194,0,194,-207V67L827,49V0H478V49l63,18V484c0,0,0,63,-27,98c0,0,-26,35,-75,35c0,0,-57,0,-114,-25V67L389,49V0Z" 
id="f5_2a"
transform="scale(0.001,-0.001)" />

<path d="M248,-20c0,0,-52,0,-87,34c0,0,-36,36,-36,88c0,0,0,52,36,88c0,0,35,36,87,36c0,0,52,0,88,-36c0,0,36,-36,36,-88c0,0,0,-51,-36,-87c0,0,-35,-35,-88,-35Zm0,488c0,0,-52,0,-87,36c0,0,-36,36,-36,88c0,0,0,52,35,88c0,0,35,36,88,36c0,0,53,0,89,-36c0,0,35,-37,35,-88c0,0,0,-51,-36,-87c0,0,-35,-37,-88,-37Z" 
id="f5_u"
transform="scale(0.001,-0.001)" />

<path d="M-5,0L0,40L131,60L286,941L162,960l6,40H568l-6,-40L430,941L275,60L399,40L393,0Z" 
id="f3_19"
transform="scale(0.001,-0.001)" />

<path d="M0,-123V1415H525v-72H72V-123Z" 
id="f4_4r"
transform="scale(0.001,-0.001)" />

<path d="M478,-123V1343H26v72H550V-123Z" 
id="f4_57"
transform="scale(0.001,-0.001)" />

<path d="M0,-123V1415H72V-123Z" 
id="f4_4s"
transform="scale(0.001,-0.001)" />

<path d="M0,-123V1415H72V-123Z" 
id="f4_58"
transform="scale(0.001,-0.001)" />

<path d="M0,-123V1415H72V-51H525v-72Z" 
id="f4_4t"
transform="scale(0.001,-0.001)" />

<path d="M26,-123v72H478V1415h72V-123Z" 
id="f4_59"
transform="scale(0.001,-0.001)" />

<path d="M191,-20c0,0,-39,0,-65,25c0,0,-25,27,-25,64c0,0,0,38,26,64c0,0,26,26,64,26c0,0,38,0,64,-26c0,0,26,-26,26,-64c0,0,0,-37,-25,-64c0,0,-26,-25,-65,-25Z" 
id="f2_i"
transform="scale(0.001,-0.001)" />

<path d="M64,0V141c0,0,64,68,119,123c0,0,119,118,174,185c0,0,56,68,81,140c0,0,26,72,26,165c0,0,0,81,-40,131c0,0,-39,50,-105,50c0,0,-46,0,-74,-10c0,0,-27,-10,-50,-29L163,751H98V979c0,0,59,13,116,23c0,0,58,9,125,9c0,0,165,0,252,-68c0,0,88,-68,88,-193c0,0,0,-78,-26,-142c0,0,-26,-64,-83,-124c0,0,-56,-61,-224,-197c0,0,-64,-52,-139,-119H698V0Z" 
id="f5_m"
transform="scale(0.001,-0.001)" />

<path d="M44,0V40L172,60V941L44,960v40H794V760H745L721,922c0,0,-83,11,-241,11H316V543H586l23,119h48V354H609L586,475H316V67H513c0,0,193,0,252,12l43,185h49L843,0Z" 
id="f2_15"
transform="scale(0.001,-0.001)" />

<path d="M360,-14L72,649L0,668v33H327V668L216,648L420,164L615,649L504,668v33H764V668L697,652L416,-14Z" 
id="f2_2i"
transform="scale(0.001,-0.001)" />

<path d="M289,-14c0,0,-179,0,-179,205V649L20,668v33H233V200c0,0,0,-128,120,-128c0,0,92,0,173,23V649L420,668v33H649V52L738,33V0H533l-6,57C527,57,474,28,405,7c0,0,-69,-21,-116,-21Z" 
id="f2_2h"
transform="scale(0.001,-0.001)" />

<path d="M377,45c0,0,99,0,145,108c0,0,46,109,46,352c0,0,0,240,-45,345c0,0,-46,106,-146,106c0,0,-97,0,-139,-100c0,0,-43,-99,-43,-351c0,0,0,-254,44,-357c0,0,43,-103,138,-103Zm0,-59c0,0,-158,0,-238,132c0,0,-81,133,-81,386c0,0,0,249,81,380c0,0,80,132,244,132c0,0,159,0,241,-130c0,0,82,-130,82,-382c0,0,0,-518,-329,-518Z" 
id="f2_k"
transform="scale(0.001,-0.001)" />

<path d="M140,-21c0,0,-26,0,-44,17C96,-4,79,13,79,40c0,0,0,19,6,33c0,0,8,20,34,55c0,0,46,60,64,126c0,0,32,114,41,321H190c0,0,-55,0,-81,-18c0,0,-44,-26,-80,-89H0c0,0,42,129,98,178c0,0,43,37,120,37H743V575H562c0,0,-27,-171,-27,-327c0,0,0,-77,27,-110c0,0,27,-33,67,-33c0,0,33,0,56,22c0,0,24,22,31,65h27C743,192,730,74,686,26c0,0,-44,-47,-98,-47c0,0,-58,0,-97,51c0,0,-39,53,-39,198c0,0,0,91,28,347H286c0,0,-23,-390,-56,-494c0,0,-33,-102,-90,-102Z" 
id="f4_2c"
transform="scale(0.001,-0.001)" />

<path d="M595,60c0,0,141,0,206,102c0,0,65,102,65,340c0,0,0,236,-65,335c0,0,-65,100,-206,100c0,0,-142,0,-207,-100c0,0,-66,-99,-66,-335c0,0,0,-239,66,-340c0,0,65,-102,207,-102Zm0,-74c0,0,-253,0,-387,130C208,116,75,246,75,501c0,0,0,510,520,510c0,0,256,0,387,-129c0,0,132,-130,132,-381c0,0,0,-254,-133,-385C981,116,848,-14,595,-14Z" 
id="f5_1f"
transform="scale(0.001,-0.001)" />

<path d="M498,506c0,0,115,0,164,47c0,0,48,48,48,166c0,0,0,112,-46,156c0,0,-46,43,-169,43H390V506ZM793,0L514,423H390V74L518,54V0H36V54L154,74V926L26,945v55H504c0,0,221,0,330,-68c0,0,109,-68,109,-212c0,0,0,-215,-201,-276L1009,74L1117,54V0Z" 
id="f5_1i"
transform="scale(0.001,-0.001)" />

<path d="M0,-14L351,1007h73L75,-14Z" 
id="f2_j"
transform="scale(0.001,-0.001)" />

<path d="M85,0L199,649l-96,19l6,33H332L218,52L335,33L329,0ZM297,849c0,0,-33,0,-57,24c0,0,-24,24,-24,57c0,0,0,33,24,57c0,0,24,24,57,24c0,0,33,0,57,-24c0,0,24,-24,24,-57c0,0,0,-33,-24,-57c0,0,-24,-24,-57,-24Z" 
id="f3_25"
transform="scale(0.001,-0.001)" />

<path d="M476,327V830h-4L114,327ZM476,0V220H30v99l488,686h86V327H740V220H604V0Z" 
id="f2_o"
transform="scale(0.001,-0.001)" />

<path d="M62,-123V268c0,0,0,230,56,452c0,0,47,190,134,334c0,0,87,144,204,242c0,0,85,73,194,119l18,-16c0,0,-211,-145,-335,-339c0,0,-98,-156,-149,-374c0,0,-50,-218,-50,-403V-123Z" 
id="f4_4o"
transform="scale(0.001,-0.001)" />

<path d="M617,-123V283c0,0,0,236,-63,459c0,0,-63,223,-188,392c0,0,-108,146,-282,265l17,16c0,0,180,-76,320,-248c0,0,139,-172,204,-417c0,0,64,-245,64,-482V-123Z" 
id="f4_54"
transform="scale(0.001,-0.001)" />

<path d="M945,-20c0,0,47,75,125,153H57v74H1147l108,91c0,0,23,19,95,72c0,0,-134,103,-203,166H57v72H1070c0,0,-78,78,-125,154h85c0,0,88,-107,217,-217c0,0,130,-110,206,-154V349c0,0,-101,-58,-219,-162c0,0,-118,-103,-204,-207Z" 
id="f4_4g"
transform="scale(0.001,-0.001)" />

<path d="M62,-123V1415h72V-123Z" 
id="f4_4p"
transform="scale(0.001,-0.001)" />

<path d="M617,-123V1415h72V-123Z" 
id="f4_55"
transform="scale(0.001,-0.001)" />

<path d="M650,-123c0,0,-180,75,-319,246c0,0,-140,172,-205,418c0,0,-64,245,-64,481v393h72V1007c0,0,0,-236,63,-459c0,0,63,-223,189,-391c0,0,108,-145,282,-265l-18,-15Z" 
id="f4_4q"
transform="scale(0.001,-0.001)" />

<path d="M101,-123l-17,15c0,0,210,144,334,339c0,0,99,156,149,373c0,0,50,218,50,403v408h72V1022c0,0,0,-230,-56,-451c0,0,-48,-191,-134,-335C499,236,412,92,295,-5c0,0,-84,-73,-194,-118Z" 
id="f4_56"
transform="scale(0.001,-0.001)" />


</defs>
</svg>