<?xml version="1.0" encoding="UTF-8" standalone="no"?>
<!DOCTYPE svg PUBLIC "-//W3C//DTD SVG 1.1//EN"
"http://www.w3.org/Graphics/SVG/1.1/DTD/svg11.dtd">
<svg viewBox="0 0 909 1286" version="1.1" xmlns="http://www.w3.org/2000/svg" xmlns:xlink="http://www.w3.org/1999/xlink">
<defs>
<clipPath id="c0_98"><path d="M55.2,191.2V126.1H358.7v65.1Z" /></clipPath>
<clipPath id="c1_98"><path d="M55.2,255V193.1h288V255Z" /></clipPath>
<clipPath id="c2_98"><path d="M55.2,340.8V281.9H407.1v58.9Z" /></clipPath>
<clipPath id="c3_98"><path d="M55.2,402.1v-59h391v59Z" /></clipPath>
<clipPath id="c4_98"><path d="M55.2,463.3v-59H159.5v59Z" /></clipPath>
<clipPath id="c5_98"><path d="M55.2,517.9V464.8H282.3v53.1Z" /></clipPath>
<clipPath id="c6_98"><path d="M55.2,579.5V520.6H280.5v58.9Z" /></clipPath>
<clipPath id="c7_98"><path d="M55.2,634.1V581H274.4v53.1Z" /></clipPath>
<clipPath id="c8_98"><path d="M314.8,709.3V660.5H509.2v48.8Z" /></clipPath>
<clipPath id="c9_98"><path d="M55.2,807.2V758.5H242v48.7Z" /></clipPath>
<clipPath id="c10_98"><path d="M246.2,860.4V809.1H361v51.3Z" /></clipPath>
<clipPath id="c11_98"><path d="M55.2,895.6V879.3H73v16.3Z" /></clipPath>
<clipPath id="c12_98"><path d="M160.1,911V862.2H327.2V911Z" /></clipPath>
<clipPath id="c13_98"><path d="M55.2,949.1V932.9H73v16.2Z" /></clipPath>
<clipPath id="c14_98"><path d="M76.4,967.4V912.9H282.8v54.5Z" /></clipPath>
<clipPath id="c15_98"><path d="M75,1022.8V969.7H344.8v53.1Z" /></clipPath>
<clipPath id="c16_98"><path d="M314.8,1098v-50.2H550.5V1098Z" /></clipPath>
<style type="text/css"><![CDATA[
.g0_98{
fill: #D9D9D9;
}
.g1_98{
fill: none;
stroke: #000000;
stroke-width: 0.7638889;
stroke-linecap: butt;
stroke-linejoin: miter;
}
.g2_98{
fill: none;
stroke: #000000;
stroke-width: 0.2135331;
stroke-linecap: square;
stroke-linejoin: round;
}
.g3_98{
}
.g4_98{
fill: none;
stroke: #000000;
stroke-width: 0.7615963;
stroke-linecap: butt;
stroke-linejoin: round;
}
.g5_98{
fill: none;
stroke: #000000;
stroke-width: 0.21222784;
stroke-linecap: square;
stroke-linejoin: round;
}
.g6_98{
fill: none;
stroke: #000000;
stroke-width: 0.75694096;
stroke-linecap: butt;
stroke-linejoin: round;
}
.g7_98{
fill: none;
stroke: #000000;
stroke-width: 0.75746197;
stroke-linecap: butt;
stroke-linejoin: round;
}
.g8_98{
fill: none;
stroke: #000000;
stroke-width: 0.7596593;
stroke-linecap: butt;
stroke-linejoin: round;
}
.g9_98{
fill: none;
stroke: #000000;
stroke-width: 0.75596344;
stroke-linecap: butt;
stroke-linejoin: round;
}
.g10_98{
fill: none;
stroke: #000000;
stroke-width: 0.75503;
stroke-linecap: butt;
stroke-linejoin: round;
}
.g11_98{
fill: none;
stroke: #000000;
stroke-width: 0.75475544;
stroke-linecap: butt;
stroke-linejoin: round;
}
.g12_98{
fill: none;
stroke: #000000;
stroke-width: 0.9100646;
stroke-linecap: butt;
stroke-linejoin: round;
}
.g13_98{
fill: none;
stroke: #000000;
stroke-width: 0.75859594;
stroke-linecap: butt;
stroke-linejoin: round;
}
.g14_98{
fill: none;
stroke: #000000;
stroke-width: 0.3769092;
stroke-linecap: butt;
stroke-linejoin: round;
}
.g15_98{
fill: none;
stroke: #000000;
stroke-width: 0.7538335;
stroke-linecap: butt;
stroke-linejoin: round;
}
.g16_98{
fill: none;
stroke: #000000;
stroke-width: 0.7588468;
stroke-linecap: butt;
stroke-linejoin: round;
}
.g17_98{
fill: none;
stroke: #000000;
stroke-width: 0.7576902;
stroke-linecap: butt;
stroke-linejoin: round;
}
.g18_98{
fill: none;
stroke: #000000;
stroke-width: 0.75689757;
stroke-linecap: butt;
stroke-linejoin: round;
}
.g19_98{
fill: none;
stroke: #000000;
stroke-width: 0.41762862;
stroke-linecap: butt;
stroke-linejoin: round;
}
]]></style>
</defs>
<image preserveAspectRatio="none" x="747" y="1196" width="96" height="59" xlink:href="img/1.png" />
<image preserveAspectRatio="none" x="336" y="41" width="259" height="51" xlink:href="img/2.png" />
<image preserveAspectRatio="none" x="342" y="50" width="247" height="27" xlink:href="img/3.png" />
<image preserveAspectRatio="none" x="341" y="45" width="239" height="42" xlink:href="img/4.png" />
<g fill="#FFFFFF" >
<use xlink:href="#f0_j" transform="matrix(11.5,0,0,11.5,355.1,70.1)" />
<use xlink:href="#f0_i" transform="matrix(11.5,0,0,11.5,364.3,70.1)" />
<use xlink:href="#f0_2n" transform="matrix(11.5,0,0,11.5,374.1,70.1)" />
<use xlink:href="#f0_t" transform="matrix(11.5,0,0,11.5,382.6,70.1)" />
<use xlink:href="#f0_oj" transform="matrix(11.5,0,0,11.5,391,70.1)" />
<use xlink:href="#f0_3e" transform="matrix(11.5,0,0,11.5,396.5,70.1)" />
<use xlink:href="#f0_1c" transform="matrix(11.5,0,0,11.5,406.1,70.1)" />
<use xlink:href="#f0_1c" transform="matrix(11.5,0,0,11.5,410.8,70.1)" />
<use xlink:href="#f0_oj" transform="matrix(11.5,0,0,11.5,415.6,70.1)" />
<use xlink:href="#f0_rz" transform="matrix(11.5,0,0,11.5,421.1,70.1)" />
<use xlink:href="#f0_rx" transform="matrix(11.5,0,0,11.5,429.9,70.1)" />
<use xlink:href="#f0_ry" transform="matrix(11.5,0,0,11.5,438.7,70.1)" />
<use xlink:href="#f0_s3" transform="matrix(11.5,0,0,11.5,447.5,70.1)" />
<use xlink:href="#f0_t" transform="matrix(11.5,0,0,11.5,460.4,70.1)" />
<use xlink:href="#f0_3e" transform="matrix(11.5,0,0,11.5,468.8,70.1)" />
<use xlink:href="#f0_5" transform="matrix(11.5,0,0,11.5,478.3,70.1)" />
<use xlink:href="#f0_1x" transform="matrix(11.5,0,0,11.5,489,70.1)" />
<use xlink:href="#f0_1c" transform="matrix(11.5,0,0,11.5,504.4,70.1)" />
<use xlink:href="#f0_1y" transform="matrix(11.5,0,0,11.5,509.1,70.1)" />
<use xlink:href="#f0_5" transform="matrix(11.5,0,0,11.5,520.8,70.1)" />
<use xlink:href="#f0_2t" transform="matrix(11.5,0,0,11.5,531.5,70.1)" />
<use xlink:href="#f0_1c" transform="matrix(11.5,0,0,11.5,540.2,70.1)" />
<use xlink:href="#f0_24" transform="matrix(11.5,0,0,11.5,545,70.1)" />
<use xlink:href="#f0_1y" transform="matrix(11.5,0,0,11.5,556.7,70.1)" />
</g>
<image preserveAspectRatio="none" x="554" y="45" width="36" height="42" xlink:href="img/5.png" />
<g fill="#FFFFFF" >
<use xlink:href="#f1_p" transform="matrix(11,0,0,11,770.3,1227.6)" />
<use xlink:href="#f1_j" transform="matrix(11,0,0,11,783.5,1227.6)" />
<use xlink:href="#f1_l" transform="matrix(11,0,0,11,794.1,1227.6)" />
<use xlink:href="#f1_n" transform="matrix(11,0,0,11,802.9,1227.6)" />
</g>
<path fill-rule="evenodd" d="M52.8,1193.5H856.9v-.8H52.8v.8Z" class="g0_98" />
<path d="M37.9,99.4L873,98.5" class="g1_98" />
<path d="M84.6,177.1L86.4,176m.1,0l4.4,7.3m0,.1l4.9,-19.3m0,0h10.6" class="g2_98" />
<path fill-rule="evenodd" d="M83.7,176.1l2.5,-1.4l4,6l4.5,-17.8h10.9v.9H95.4l-4.8,18.8h-.9l-4.5,-6.7l-1.2,.7l-.3,-.5Z" class="g3_98" />
<path d="M72.7,161h34.5m99.5,0h11.9m88.5,0H319M144.1,136.9V185M330.2,136.9V185" class="g4_98" />
<g clip-path="url(#c0_98)">
<g fill="#000000" >
<use xlink:href="#f2_j" transform="matrix(7.4,0,0,7.2,345.6,139.9)" />
<use xlink:href="#f2_m" transform="matrix(7.4,0,0,7.2,348.5,139.9)" />
<use xlink:href="#f2_k" transform="matrix(7.4,0,0,7.2,340.1,187.4)" />
<use xlink:href="#f2_l" transform="matrix(12.7,0,0,12.3,85.4,154.1)" />
<use xlink:href="#f2_28" transform="matrix(12.7,0,0,12.3,117.7,165.6)" />
<use xlink:href="#f2_2b" transform="matrix(12.7,0,0,12.3,122.6,165.6)" />
<use xlink:href="#f2_23" transform="matrix(12.7,0,0,12.3,131.8,165.6)" />
<use xlink:href="#f2_2f" transform="matrix(12.7,0,0,12.3,145.4,165.6)" />
<use xlink:href="#f2_21" transform="matrix(12.7,0,0,12.3,152.5,165.6)" />
<use xlink:href="#f2_1z" transform="matrix(12.7,0,0,12.3,160.5,165.6)" />
<use xlink:href="#f2_2g" transform="matrix(12.7,0,0,12.3,246.1,165.6)" />
<use xlink:href="#f2_1x" transform="matrix(12.7,0,0,12.3,251.2,165.6)" />
<use xlink:href="#f2_2a" transform="matrix(12.7,0,0,12.3,259.2,165.6)" />
<use xlink:href="#f2_o" transform="matrix(12.7,0,0,12.3,208.3,179.8)" />
<use xlink:href="#f2_o" transform="matrix(12.7,0,0,12.3,308.8,179.8)" />
<use xlink:href="#f2_m" transform="matrix(12.7,0,0,12.3,74,181.1)" />
<use xlink:href="#f2_m" transform="matrix(12.7,0,0,12.3,95.9,181.1)" />
<use xlink:href="#f3_2k" transform="matrix(12.7,0,0,12.3,180.6,165.6)" />
<use xlink:href="#f3_2k" transform="matrix(12.7,0,0,12.3,281.1,165.6)" />
<use xlink:href="#f4_2c" transform="matrix(7.4,0,0,7.2,340.3,139.9)" />
<use xlink:href="#f4_4r" transform="matrix(12.7,0,0,12.3,110.2,152.4)" />
<use xlink:href="#f4_57" transform="matrix(12.7,0,0,12.3,332.1,152.4)" />
<use xlink:href="#f4_2c" transform="matrix(12.7,0,0,12.3,207.9,154.1)" />
<use xlink:href="#f4_2c" transform="matrix(12.7,0,0,12.3,308.4,154.1)" />
<use xlink:href="#f4_4o" transform="matrix(12.7,0,0,12.3,170.2,155.5)" />
<use xlink:href="#f4_54" transform="matrix(12.7,0,0,12.3,221.2,155.5)" />
<use xlink:href="#f4_4o" transform="matrix(12.7,0,0,12.3,270.6,155.5)" />
<use xlink:href="#f4_54" transform="matrix(12.7,0,0,12.3,321.7,155.5)" />
<use xlink:href="#f4_x" transform="matrix(12.7,0,0,12.3,58,165.6)" />
<use xlink:href="#f4_h" transform="matrix(12.7,0,0,12.3,192.6,165.6)" />
<use xlink:href="#f4_f" transform="matrix(12.7,0,0,12.3,231.9,165.6)" />
<use xlink:href="#f4_h" transform="matrix(12.7,0,0,12.3,293.1,165.6)" />
<use xlink:href="#f4_4s" transform="matrix(12.7,0,0,12.3,110.2,170.1)" />
<use xlink:href="#f4_58" transform="matrix(12.7,0,0,12.3,332.1,170.1)" />
<use xlink:href="#f4_4p" transform="matrix(12.7,0,0,12.3,170.2,170.5)" />
<use xlink:href="#f4_55" transform="matrix(12.7,0,0,12.3,221.2,170.5)" />
<use xlink:href="#f4_4p" transform="matrix(12.7,0,0,12.3,270.6,170.5)" />
<use xlink:href="#f4_55" transform="matrix(12.7,0,0,12.3,321.7,170.5)" />
<use xlink:href="#f4_4q" transform="matrix(12.7,0,0,12.3,170.2,182.1)" />
<use xlink:href="#f4_56" transform="matrix(12.7,0,0,12.3,221.2,182.1)" />
<use xlink:href="#f4_4q" transform="matrix(12.7,0,0,12.3,270.6,182.1)" />
<use xlink:href="#f4_56" transform="matrix(12.7,0,0,12.3,321.7,182.1)" />
<use xlink:href="#f4_4t" transform="matrix(12.7,0,0,12.3,110.2,185.1)" />
<use xlink:href="#f4_59" transform="matrix(12.7,0,0,12.3,332.1,185.1)" />
</g>
</g>
<path d="M84.7,240.9l1.8,-1m0,0l4.5,7.2m0,0l4.9,-19.2m0,0h10.6" class="g5_98" />
<path fill-rule="evenodd" d="M83.8,239.9l2.5,-1.4l4,6l4.5,-17.8h10.9v.9H95.5l-4.8,18.8h-.9l-4.5,-6.7l-1.2,.8l-.3,-.6Z" class="g3_98" />
<path d="M72.8,224.8h34.5" class="g6_98" />
<path d="M140.8,214l1.8,-1m.1,0l4.4,7.3m0,0L152,201.1m0,0h10.6" class="g5_98" />
<path fill-rule="evenodd" d="M139.9,213.1l2.5,-1.4l4,5.9l4.5,-17.7h11v.9H151.6l-4.8,18.8h-.9l-4.5,-6.8l-1.2,.8l-.3,-.5Z" class="g3_98" />
<path d="M141,240.9l1.8,-1m0,0l4.5,7.2m0,0l4.8,-19.2m0,0h10.7" class="g5_98" />
<path fill-rule="evenodd" d="M140,239.9l2.6,-1.4l3.9,6L151,226.7h11v.9H151.7L147,246.4h-.9l-4.5,-6.7l-1.3,.8l-.3,-.6Z" class="g3_98" />
<path d="M138.4,224.8h48.3M136.2,198.3v53m52.7,-53v53" class="g6_98" />
<path d="M227.7,240.9l1.9,-1m0,0l4.4,7.2m0,0l4.9,-19.2m0,0h10.6" class="g5_98" />
<path fill-rule="evenodd" d="M226.8,239.9l2.6,-1.4l3.9,6l4.5,-17.8h11v.9H238.5l-4.8,18.8h-.9l-4.5,-6.7l-1.2,.8l-.3,-.6Z" class="g3_98" />
<path d="M225.3,224.8h25" class="g6_98" />
<path d="M288.3,225.5l1.8,-1.1m0,0l4.4,7.3m0,0l4.9,-19.2m0,0h10.7" class="g5_98" />
<path fill-rule="evenodd" d="M287.3,224.5l2.6,-1.4l3.9,5.9l4.5,-17.7h11v.9H299L294.3,231h-1l-4.5,-6.8l-1.2,.8l-.3,-.5Z" class="g3_98" />
<g clip-path="url(#c1_98)">
<g fill="#000000" >
<use xlink:href="#f2_l" transform="matrix(12.6,0,0,12.2,85.5,218)" />
<use xlink:href="#f2_m" transform="matrix(12.6,0,0,12.2,152.1,218)" />
<use xlink:href="#f2_l" transform="matrix(12.6,0,0,12.2,178.2,218)" />
<use xlink:href="#f2_l" transform="matrix(12.6,0,0,12.2,233.2,218)" />
<use xlink:href="#f2_28" transform="matrix(12.6,0,0,12.2,109.8,229.4)" />
<use xlink:href="#f2_2b" transform="matrix(12.6,0,0,12.2,114.7,229.4)" />
<use xlink:href="#f2_23" transform="matrix(12.6,0,0,12.2,123.9,229.4)" />
<use xlink:href="#f2_2b" transform="matrix(12.6,0,0,12.2,199.4,229.4)" />
<use xlink:href="#f2_2e" transform="matrix(12.6,0,0,12.2,208.6,229.4)" />
<use xlink:href="#f2_28" transform="matrix(12.6,0,0,12.2,252.8,229.4)" />
<use xlink:href="#f2_2b" transform="matrix(12.6,0,0,12.2,257.7,229.4)" />
<use xlink:href="#f2_23" transform="matrix(12.6,0,0,12.2,266.9,229.4)" />
<use xlink:href="#f2_2o" transform="matrix(12.6,0,0,12.2,279.7,229.4)" />
<use xlink:href="#f2_m" transform="matrix(12.6,0,0,12.2,299.5,229.4)" />
<use xlink:href="#f2_l" transform="matrix(12.6,0,0,12.2,325.7,229.4)" />
<use xlink:href="#f2_2o" transform="matrix(12.6,0,0,12.2,336.4,229.4)" />
<use xlink:href="#f2_m" transform="matrix(12.6,0,0,12.2,74,244.9)" />
<use xlink:href="#f2_m" transform="matrix(12.6,0,0,12.2,95.9,244.9)" />
<use xlink:href="#f2_m" transform="matrix(12.6,0,0,12.2,152.2,244.9)" />
<use xlink:href="#f2_l" transform="matrix(12.6,0,0,12.2,178.1,244.9)" />
<use xlink:href="#f2_m" transform="matrix(12.6,0,0,12.2,238.9,244.9)" />
<use xlink:href="#f4_f" transform="matrix(12.6,0,0,12.2,166.2,218)" />
<use xlink:href="#f4_x" transform="matrix(12.6,0,0,12.2,57.9,229.4)" />
<use xlink:href="#f4_f" transform="matrix(12.6,0,0,12.2,313.6,229.4)" />
<use xlink:href="#f4_h" transform="matrix(12.6,0,0,12.2,166.3,244.9)" />
</g>
</g>
<g fill="#000000" >
<use xlink:href="#f5_1f" transform="matrix(12,0,0,12,440.9,275.4)" />
<use xlink:href="#f5_1i" transform="matrix(12,0,0,12,455.2,275.4)" />
</g>
<path d="M305.8,312.1h68.8" class="g7_98" />
<g clip-path="url(#c2_98)">
<g fill="#000000" >
<use xlink:href="#f2_l" transform="matrix(7.4,0,0,7.1,86.8,295.6)" />
<use xlink:href="#f2_l" transform="matrix(7.4,0,0,7.1,249.4,295.6)" />
<use xlink:href="#f2_l" transform="matrix(7.4,0,0,7.1,125.1,308.4)" />
<use xlink:href="#f2_m" transform="matrix(7.4,0,0,7.1,197.8,308.4)" />
<use xlink:href="#f2_l" transform="matrix(7.4,0,0,7.1,288.2,308.4)" />
<use xlink:href="#f2_m" transform="matrix(7.4,0,0,7.1,366.8,322.7)" />
<use xlink:href="#f2_k" transform="matrix(7.4,0,0,7.1,86.9,336.7)" />
<use xlink:href="#f2_k" transform="matrix(7.4,0,0,7.1,249.4,336.7)" />
<use xlink:href="#f2_l" transform="matrix(12.6,0,0,12.3,335.6,305.3)" />
<use xlink:href="#f2_1z" transform="matrix(12.6,0,0,12.3,95.6,316.7)" />
<use xlink:href="#f2_2b" transform="matrix(12.6,0,0,12.3,103.7,316.7)" />
<use xlink:href="#f2_2g" transform="matrix(12.6,0,0,12.3,112.8,316.7)" />
<use xlink:href="#f2_c" transform="matrix(12.6,0,0,12.3,131.5,316.7)" />
<use xlink:href="#f2_l" transform="matrix(12.6,0,0,12.3,136.1,316.7)" />
<use xlink:href="#f2_d" transform="matrix(12.6,0,0,12.3,205,316.7)" />
<use xlink:href="#f2_2g" transform="matrix(12.6,0,0,12.3,258.7,316.7)" />
<use xlink:href="#f2_1x" transform="matrix(12.6,0,0,12.3,263.9,316.7)" />
<use xlink:href="#f2_2a" transform="matrix(12.6,0,0,12.3,271.9,316.7)" />
<use xlink:href="#f2_l" transform="matrix(12.6,0,0,12.3,305,330.9)" />
<use xlink:href="#f3_19" transform="matrix(12.6,0,0,12.3,58.5,316.7)" />
<use xlink:href="#f3_2k" transform="matrix(12.6,0,0,12.3,161.8,316.7)" />
<use xlink:href="#f3_2k" transform="matrix(12.6,0,0,12.3,188.7,316.7)" />
<use xlink:href="#f3_20" transform="matrix(12.6,0,0,12.3,211.6,316.7)" />
<use xlink:href="#f3_2k" transform="matrix(12.6,0,0,12.3,220.7,316.7)" />
<use xlink:href="#f3_20" transform="matrix(12.6,0,0,12.3,386.3,316.7)" />
<use xlink:href="#f3_2k" transform="matrix(12.6,0,0,12.3,395.5,316.7)" />
<use xlink:href="#f3_2k" transform="matrix(12.6,0,0,12.3,330.8,330.9)" />
<use xlink:href="#f3_2k" transform="matrix(12.6,0,0,12.3,357.8,330.9)" />
<use xlink:href="#f4_h" transform="matrix(7.4,0,0,7.1,119.3,308.4)" />
<use xlink:href="#f4_h" transform="matrix(7.4,0,0,7.1,282.4,308.4)" />
<use xlink:href="#f4_4o" transform="matrix(12.6,0,0,12.3,295.9,306.6)" />
<use xlink:href="#f4_54" transform="matrix(12.6,0,0,12.3,377.3,306.6)" />
<use xlink:href="#f4_x" transform="matrix(12.6,0,0,12.3,71.1,316.7)" />
<use xlink:href="#f4_h" transform="matrix(12.6,0,0,12.3,147.2,316.7)" />
<use xlink:href="#f4_f" transform="matrix(12.6,0,0,12.3,173.9,316.7)" />
<use xlink:href="#f4_x" transform="matrix(12.6,0,0,12.3,233.5,316.7)" />
<use xlink:href="#f4_4p" transform="matrix(12.6,0,0,12.3,295.9,321.5)" />
<use xlink:href="#f4_55" transform="matrix(12.6,0,0,12.3,377.3,321.5)" />
<use xlink:href="#f4_h" transform="matrix(12.6,0,0,12.3,316.2,330.9)" />
<use xlink:href="#f4_f" transform="matrix(12.6,0,0,12.3,342.9,330.9)" />
<use xlink:href="#f4_4q" transform="matrix(12.6,0,0,12.3,295.9,333.1)" />
<use xlink:href="#f4_56" transform="matrix(12.6,0,0,12.3,377.3,333.1)" />
<use xlink:href="#f4_50" transform="matrix(18.9,0,0,18.4,85.8,323.3)" />
<use xlink:href="#f4_50" transform="matrix(18.9,0,0,18.4,248.4,323.3)" />
</g>
</g>
<path d="M121.1,373.3h79.5" class="g8_98" />
<g clip-path="url(#c3_98)">
<g fill="#000000" >
<use xlink:href="#f2_l" transform="matrix(7.4,0,0,7.2,73.7,356.8)" />
<use xlink:href="#f2_l" transform="matrix(7.4,0,0,7.2,241,356.8)" />
<use xlink:href="#f2_l" transform="matrix(7.4,0,0,7.2,332.9,356.8)" />
<use xlink:href="#f2_l" transform="matrix(7.4,0,0,7.2,112.5,369.6)" />
<use xlink:href="#f2_l" transform="matrix(7.4,0,0,7.2,279.8,369.6)" />
<use xlink:href="#f2_l" transform="matrix(7.4,0,0,7.2,371.7,369.6)" />
<use xlink:href="#f2_k" transform="matrix(7.4,0,0,7.2,73.8,397.9)" />
<use xlink:href="#f2_k" transform="matrix(7.4,0,0,7.2,241.1,397.9)" />
<use xlink:href="#f2_k" transform="matrix(7.4,0,0,7.2,333,397.9)" />
<use xlink:href="#f2_c" transform="matrix(12.7,0,0,12.3,151.8,366.5)" />
<use xlink:href="#f2_l" transform="matrix(12.7,0,0,12.3,156.4,366.5)" />
<use xlink:href="#f2_d" transform="matrix(12.7,0,0,12.3,190.7,366.5)" />
<use xlink:href="#f2_2g" transform="matrix(12.7,0,0,12.3,83.1,377.9)" />
<use xlink:href="#f2_1x" transform="matrix(12.7,0,0,12.3,88.3,377.9)" />
<use xlink:href="#f2_2a" transform="matrix(12.7,0,0,12.3,96.3,377.9)" />
<use xlink:href="#f2_2g" transform="matrix(12.7,0,0,12.3,250.4,377.9)" />
<use xlink:href="#f2_1x" transform="matrix(12.7,0,0,12.3,255.6,377.9)" />
<use xlink:href="#f2_2a" transform="matrix(12.7,0,0,12.3,263.6,377.9)" />
<use xlink:href="#f2_2g" transform="matrix(12.7,0,0,12.3,342.3,377.9)" />
<use xlink:href="#f2_1x" transform="matrix(12.7,0,0,12.3,347.5,377.9)" />
<use xlink:href="#f2_2a" transform="matrix(12.7,0,0,12.3,355.5,377.9)" />
<use xlink:href="#f2_c" transform="matrix(12.7,0,0,12.3,378.1,377.9)" />
<use xlink:href="#f2_l" transform="matrix(12.7,0,0,12.3,382.7,377.9)" />
<use xlink:href="#f2_d" transform="matrix(12.7,0,0,12.3,417,377.9)" />
<use xlink:href="#f2_l" transform="matrix(12.7,0,0,12.3,120.3,392.2)" />
<use xlink:href="#f2_c" transform="matrix(12.7,0,0,12.3,154.6,392.2)" />
<use xlink:href="#f2_l" transform="matrix(12.7,0,0,12.3,159.2,392.2)" />
<use xlink:href="#f2_d" transform="matrix(12.7,0,0,12.3,193.6,392.2)" />
<use xlink:href="#f3_2k" transform="matrix(12.7,0,0,12.3,126.1,366.5)" />
<use xlink:href="#f3_2k" transform="matrix(12.7,0,0,12.3,182.2,366.5)" />
<use xlink:href="#f3_20" transform="matrix(12.7,0,0,12.3,203.3,377.9)" />
<use xlink:href="#f3_2k" transform="matrix(12.7,0,0,12.3,212.5,377.9)" />
<use xlink:href="#f3_2k" transform="matrix(12.7,0,0,12.3,285.9,377.9)" />
<use xlink:href="#f3_20" transform="matrix(12.7,0,0,12.3,296.4,377.9)" />
<use xlink:href="#f3_2k" transform="matrix(12.7,0,0,12.3,305.5,377.9)" />
<use xlink:href="#f3_2k" transform="matrix(12.7,0,0,12.3,408.3,377.9)" />
<use xlink:href="#f3_20" transform="matrix(12.7,0,0,12.3,425.1,377.9)" />
<use xlink:href="#f3_2k" transform="matrix(12.7,0,0,12.3,434.2,377.9)" />
<use xlink:href="#f3_2k" transform="matrix(12.7,0,0,12.3,146.1,392.2)" />
<use xlink:href="#f3_2k" transform="matrix(12.7,0,0,12.3,185,392.2)" />
<use xlink:href="#f4_h" transform="matrix(7.4,0,0,7.2,106.7,369.6)" />
<use xlink:href="#f4_h" transform="matrix(7.4,0,0,7.2,274,369.6)" />
<use xlink:href="#f4_h" transform="matrix(7.4,0,0,7.2,365.9,369.6)" />
<use xlink:href="#f4_f" transform="matrix(12.7,0,0,12.3,138.1,366.5)" />
<use xlink:href="#f4_h" transform="matrix(12.7,0,0,12.3,167.6,366.5)" />
<use xlink:href="#f4_x" transform="matrix(12.7,0,0,12.3,58,377.9)" />
<use xlink:href="#f4_x" transform="matrix(12.7,0,0,12.3,225.2,377.9)" />
<use xlink:href="#f4_f" transform="matrix(12.7,0,0,12.3,317.6,377.9)" />
<use xlink:href="#f4_h" transform="matrix(12.7,0,0,12.3,393.8,377.9)" />
<use xlink:href="#f4_h" transform="matrix(12.7,0,0,12.3,131.5,392.2)" />
<use xlink:href="#f4_h" transform="matrix(12.7,0,0,12.3,170.4,392.2)" />
<use xlink:href="#f4_50" transform="matrix(19,0,0,18.4,72.7,384.6)" />
<use xlink:href="#f4_50" transform="matrix(19,0,0,18.4,240,384.6)" />
<use xlink:href="#f4_50" transform="matrix(19,0,0,18.4,331.9,384.6)" />
</g>
</g>
<g clip-path="url(#c4_98)">
<g fill="#000000" >
<use xlink:href="#f2_l" transform="matrix(7.3,0,0,7.1,83,418)" />
<use xlink:href="#f2_l" transform="matrix(7.3,0,0,7.1,121.5,430.9)" />
<use xlink:href="#f2_k" transform="matrix(7.3,0,0,7.1,83.1,459.2)" />
<use xlink:href="#f2_m" transform="matrix(12.6,0,0,12.3,72.3,439.2)" />
<use xlink:href="#f2_2g" transform="matrix(12.6,0,0,12.3,92.2,439.2)" />
<use xlink:href="#f2_1x" transform="matrix(12.6,0,0,12.3,97.4,439.2)" />
<use xlink:href="#f2_2a" transform="matrix(12.6,0,0,12.3,105.4,439.2)" />
<use xlink:href="#f3_2k" transform="matrix(12.6,0,0,12.3,127.6,439.2)" />
<use xlink:href="#f3_20" transform="matrix(12.6,0,0,12.3,138,439.2)" />
<use xlink:href="#f3_2k" transform="matrix(12.6,0,0,12.3,147.1,439.2)" />
<use xlink:href="#f4_h" transform="matrix(7.3,0,0,7.1,115.8,430.9)" />
<use xlink:href="#f4_x" transform="matrix(12.6,0,0,12.3,57.9,439.2)" />
<use xlink:href="#f4_50" transform="matrix(18.9,0,0,18.4,82,445.8)" />
</g>
</g>
<path d="M204.3,492.1h42.3" class="g9_98" />
<g clip-path="url(#c5_98)">
<g fill="#000000" >
<use xlink:href="#f2_l" transform="matrix(7.4,0,0,7.2,197.2,482.7)" />
<use xlink:href="#f2_l" transform="matrix(7.4,0,0,7.2,127.1,488.4)" />
<use xlink:href="#f2_l" transform="matrix(7.4,0,0,7.2,163.1,488.4)" />
<use xlink:href="#f2_k" transform="matrix(7.4,0,0,7.2,164.2,501.5)" />
<use xlink:href="#f2_m" transform="matrix(7.4,0,0,7.2,238.7,502.7)" />
<use xlink:href="#f2_k" transform="matrix(7.4,0,0,7.2,195.5,506.9)" />
<use xlink:href="#f2_m" transform="matrix(12.6,0,0,12.3,72.5,496.7)" />
<use xlink:href="#f2_c" transform="matrix(12.6,0,0,12.3,91.5,496.7)" />
<use xlink:href="#f2_2g" transform="matrix(12.6,0,0,12.3,97.5,496.7)" />
<use xlink:href="#f2_1x" transform="matrix(12.6,0,0,12.3,102.7,496.7)" />
<use xlink:href="#f2_2a" transform="matrix(12.6,0,0,12.3,110.8,496.7)" />
<use xlink:href="#f2_i" transform="matrix(12.6,0,0,12.3,144,496.7)" />
<use xlink:href="#f2_d" transform="matrix(12.6,0,0,12.3,157.5,496.7)" />
<use xlink:href="#f2_l" transform="matrix(12.6,0,0,12.3,203.5,511)" />
<use xlink:href="#f3_2k" transform="matrix(12.6,0,0,12.3,221.9,485.3)" />
<use xlink:href="#f3_2k" transform="matrix(12.6,0,0,12.3,136.3,496.7)" />
<use xlink:href="#f3_2k" transform="matrix(12.6,0,0,12.3,148.9,496.7)" />
<use xlink:href="#f3_20" transform="matrix(12.6,0,0,12.3,252.5,496.7)" />
<use xlink:href="#f3_2k" transform="matrix(12.6,0,0,12.3,261.7,496.7)" />
<use xlink:href="#f3_2k" transform="matrix(12.6,0,0,12.3,229.7,511)" />
<use xlink:href="#f4_h" transform="matrix(7.4,0,0,7.2,121.3,488.4)" />
<use xlink:href="#f4_4r" transform="matrix(12.6,0,0,12.3,83.9,486.6)" />
<use xlink:href="#f4_57" transform="matrix(12.6,0,0,12.3,271,486.6)" />
<use xlink:href="#f4_x" transform="matrix(12.6,0,0,12.3,58,496.7)" />
<use xlink:href="#f4_h" transform="matrix(12.6,0,0,12.3,174.8,496.7)" />
<use xlink:href="#f4_4s" transform="matrix(12.6,0,0,12.3,83.9,504.4)" />
<use xlink:href="#f4_58" transform="matrix(12.6,0,0,12.3,271,504.4)" />
<use xlink:href="#f4_f" transform="matrix(12.6,0,0,12.3,214.7,511)" />
<use xlink:href="#f4_4t" transform="matrix(12.6,0,0,12.3,83.9,513.3)" />
<use xlink:href="#f4_59" transform="matrix(12.6,0,0,12.3,271,513.3)" />
<use xlink:href="#f4_50" transform="matrix(19,0,0,18.5,188.9,503.4)" />
</g>
</g>
<path d="M168.2,552.4h11.1" class="g10_98" />
<g clip-path="url(#c6_98)">
<g fill="#000000" >
<use xlink:href="#f2_l" transform="matrix(7.3,0,0,7.1,270.4,534.4)" />
<use xlink:href="#f2_l" transform="matrix(7.3,0,0,7.1,133,548.7)" />
<use xlink:href="#f2_m" transform="matrix(7.3,0,0,7.1,249.3,548.7)" />
<use xlink:href="#f2_k" transform="matrix(7.3,0,0,7.1,271.4,575.7)" />
<use xlink:href="#f2_l" transform="matrix(12.6,0,0,12.3,169.2,545.5)" />
<use xlink:href="#f2_m" transform="matrix(12.6,0,0,12.3,72.5,557)" />
<use xlink:href="#f2_2g" transform="matrix(12.6,0,0,12.3,103.4,557)" />
<use xlink:href="#f2_1x" transform="matrix(12.6,0,0,12.3,108.6,557)" />
<use xlink:href="#f2_2a" transform="matrix(12.6,0,0,12.3,116.6,557)" />
<use xlink:href="#f2_28" transform="matrix(12.6,0,0,12.3,181.8,557)" />
<use xlink:href="#f2_2b" transform="matrix(12.6,0,0,12.3,186.7,557)" />
<use xlink:href="#f2_23" transform="matrix(12.6,0,0,12.3,195.9,557)" />
<use xlink:href="#f2_2o" transform="matrix(12.6,0,0,12.3,208.7,557)" />
<use xlink:href="#f2_l" transform="matrix(12.6,0,0,12.3,214,557)" />
<use xlink:href="#f2_2o" transform="matrix(12.6,0,0,12.3,259.4,557)" />
<use xlink:href="#f2_m" transform="matrix(12.6,0,0,12.3,169.5,571.2)" />
<use xlink:href="#f3_2k" transform="matrix(12.6,0,0,12.3,92.6,557)" />
<use xlink:href="#f3_2k" transform="matrix(12.6,0,0,12.3,142.1,557)" />
<use xlink:href="#f3_2k" transform="matrix(12.6,0,0,12.3,240.2,557)" />
<use xlink:href="#f4_h" transform="matrix(7.3,0,0,7.1,127.1,548.7)" />
<use xlink:href="#f4_4r" transform="matrix(12.6,0,0,12.3,83.9,546.9)" />
<use xlink:href="#f4_57" transform="matrix(12.6,0,0,12.3,263.3,546.9)" />
<use xlink:href="#f4_x" transform="matrix(12.6,0,0,12.3,58,557)" />
<use xlink:href="#f4_h" transform="matrix(12.6,0,0,12.3,154.2,557)" />
<use xlink:href="#f4_f" transform="matrix(12.6,0,0,12.3,225.2,557)" />
<use xlink:href="#f4_4s" transform="matrix(12.6,0,0,12.3,83.9,564.5)" />
<use xlink:href="#f4_58" transform="matrix(12.6,0,0,12.3,263.3,564.5)" />
<use xlink:href="#f4_4t" transform="matrix(12.6,0,0,12.3,83.9,573.4)" />
<use xlink:href="#f4_59" transform="matrix(12.6,0,0,12.3,263.3,573.4)" />
</g>
</g>
<path d="M92,608.3h11.9m18.4,0h11.1m73.3,0h11.9" class="g11_98" />
<g clip-path="url(#c7_98)">
<g fill="#000000" >
<use xlink:href="#f2_l" transform="matrix(12.6,0,0,12.3,123.2,601.5)" />
<use xlink:href="#f2_m" transform="matrix(12.6,0,0,12.3,72.5,613)" />
<use xlink:href="#f2_28" transform="matrix(12.6,0,0,12.3,135.8,613)" />
<use xlink:href="#f2_2b" transform="matrix(12.6,0,0,12.3,140.7,613)" />
<use xlink:href="#f2_23" transform="matrix(12.6,0,0,12.3,149.9,613)" />
<use xlink:href="#f2_m" transform="matrix(12.6,0,0,12.3,161.5,613)" />
<use xlink:href="#f2_2b" transform="matrix(12.6,0,0,12.3,186.1,613)" />
<use xlink:href="#f2_2e" transform="matrix(12.6,0,0,12.3,195.2,613)" />
<use xlink:href="#f2_28" transform="matrix(12.6,0,0,12.3,236.3,613)" />
<use xlink:href="#f2_2b" transform="matrix(12.6,0,0,12.3,241.2,613)" />
<use xlink:href="#f2_23" transform="matrix(12.6,0,0,12.3,250.3,613)" />
<use xlink:href="#f2_m" transform="matrix(12.6,0,0,12.3,262,613)" />
<use xlink:href="#f2_o" transform="matrix(12.6,0,0,12.3,93.6,627.2)" />
<use xlink:href="#f2_m" transform="matrix(12.6,0,0,12.3,123.5,627.2)" />
<use xlink:href="#f2_m" transform="matrix(12.6,0,0,12.3,208.3,627.2)" />
<use xlink:href="#f4_2c" transform="matrix(12.6,0,0,12.3,93.2,601.5)" />
<use xlink:href="#f4_2c" transform="matrix(12.6,0,0,12.3,207.9,601.5)" />
<use xlink:href="#f4_4r" transform="matrix(12.6,0,0,12.3,83.9,602.8)" />
<use xlink:href="#f4_57" transform="matrix(12.6,0,0,12.3,171.4,602.8)" />
<use xlink:href="#f4_x" transform="matrix(12.6,0,0,12.3,57.9,613)" />
<use xlink:href="#f4_h" transform="matrix(12.6,0,0,12.3,108.2,613)" />
<use xlink:href="#f4_h" transform="matrix(12.6,0,0,12.3,222.9,613)" />
<use xlink:href="#f4_4s" transform="matrix(12.6,0,0,12.3,83.9,620.6)" />
<use xlink:href="#f4_58" transform="matrix(12.6,0,0,12.3,171.4,620.6)" />
<use xlink:href="#f4_4t" transform="matrix(12.6,0,0,12.3,83.9,629.5)" />
<use xlink:href="#f4_59" transform="matrix(12.6,0,0,12.3,171.4,629.5)" />
</g>
</g>
<g fill="#000000" >
<use xlink:href="#f5_l" transform="matrix(12,0,0,12,55,691)" />
<use xlink:href="#f5_n" transform="matrix(12,0,0,12,64.2,691)" />
<use xlink:href="#f5_i" transform="matrix(12,0,0,12,73.4,691)" />
<use xlink:href="#f2_1j" transform="matrix(12,0,0,12,82.9,691)" />
<use xlink:href="#f2_2b" transform="matrix(12,0,0,12,92.8,691)" />
<use xlink:href="#f2_28" transform="matrix(12,0,0,12,102.3,691)" />
<use xlink:href="#f2_2i" transform="matrix(12,0,0,12,107.1,691)" />
<use xlink:href="#f2_21" transform="matrix(12,0,0,12,115.9,691)" />
<use xlink:href="#f2_2g" transform="matrix(12,0,0,12,128.7,691)" />
<use xlink:href="#f2_24" transform="matrix(12,0,0,12,134.2,691)" />
<use xlink:href="#f2_21" transform="matrix(12,0,0,12,143,691)" />
<use xlink:href="#f2_20" transform="matrix(12,0,0,12,155.8,691)" />
<use xlink:href="#f2_25" transform="matrix(12,0,0,12,165.3,691)" />
<use xlink:href="#f2_22" transform="matrix(12,0,0,12,170.1,691)" />
<use xlink:href="#f2_22" transform="matrix(12,0,0,12,175.9,691)" />
<use xlink:href="#f2_21" transform="matrix(12,0,0,12,181.8,691)" />
<use xlink:href="#f2_2e" transform="matrix(12,0,0,12,189.9,691)" />
<use xlink:href="#f2_21" transform="matrix(12,0,0,12,196.1,691)" />
<use xlink:href="#f2_2a" transform="matrix(12,0,0,12,204.5,691)" />
<use xlink:href="#f2_2g" transform="matrix(12,0,0,12,213.3,691)" />
<use xlink:href="#f2_25" transform="matrix(12,0,0,12,219.2,691)" />
<use xlink:href="#f2_1x" transform="matrix(12,0,0,12,223.6,691)" />
<use xlink:href="#f2_28" transform="matrix(12,0,0,12,232,691)" />
<use xlink:href="#f2_21" transform="matrix(12,0,0,12,241.5,691)" />
<use xlink:href="#f2_2d" transform="matrix(12,0,0,12,249.6,691)" />
<use xlink:href="#f2_2h" transform="matrix(12,0,0,12,258.7,691)" />
<use xlink:href="#f2_1x" transform="matrix(12,0,0,12,267.9,691)" />
<use xlink:href="#f2_2g" transform="matrix(12,0,0,12,276,691)" />
<use xlink:href="#f2_25" transform="matrix(12,0,0,12,281.8,691)" />
<use xlink:href="#f2_2b" transform="matrix(12,0,0,12,286.2,691)" />
<use xlink:href="#f2_2a" transform="matrix(12,0,0,12,295.7,691)" />
<use xlink:href="#f2_u" transform="matrix(12,0,0,12,304.5,691)" />
</g>
<path d="M366,686.4h19.8" class="g12_98" />
<g clip-path="url(#c8_98)">
<g fill="#000000" >
<use xlink:href="#f2_n" transform="matrix(7.3,0,0,7.1,439.8,682.8)" />
<use xlink:href="#f2_n" transform="matrix(7.3,0,0,7.1,501.2,682.8)" />
<use xlink:href="#f2_c" transform="matrix(12.7,0,0,12.4,317.3,691.1)" />
<use xlink:href="#f2_l" transform="matrix(12.7,0,0,12.4,347.6,691.1)" />
<use xlink:href="#f2_d" transform="matrix(12.7,0,0,12.4,355.4,691.1)" />
<use xlink:href="#f2_c" transform="matrix(12.7,0,0,12.4,456.7,691.1)" />
<use xlink:href="#f2_l" transform="matrix(12.7,0,0,12.4,487.1,691.1)" />
<use xlink:href="#f2_d" transform="matrix(12.7,0,0,12.4,494.8,691.1)" />
<use xlink:href="#f3_2k" transform="matrix(7.3,0,0,7.1,446,682.8)" />
<use xlink:href="#f3_20" transform="matrix(12.7,0,0,12.4,367.1,679.4)" />
<use xlink:href="#f3_2l" transform="matrix(12.7,0,0,12.4,376.3,679.4)" />
<use xlink:href="#f3_2k" transform="matrix(12.7,0,0,12.4,324.7,691.1)" />
<use xlink:href="#f3_2l" transform="matrix(12.7,0,0,12.4,404.4,691.1)" />
<use xlink:href="#f3_21" transform="matrix(12.7,0,0,12.4,431.3,691.1)" />
<use xlink:href="#f3_2k" transform="matrix(12.7,0,0,12.4,464.1,691.1)" />
<use xlink:href="#f3_20" transform="matrix(12.7,0,0,12.4,367.3,705.6)" />
<use xlink:href="#f3_2k" transform="matrix(12.7,0,0,12.4,376.4,705.6)" />
<use xlink:href="#f4_f" transform="matrix(12.7,0,0,12.4,336.2,691.1)" />
<use xlink:href="#f4_h" transform="matrix(12.7,0,0,12.4,389.5,691.1)" />
<use xlink:href="#f4_x" transform="matrix(12.7,0,0,12.4,417.3,691.1)" />
<use xlink:href="#f4_f" transform="matrix(12.7,0,0,12.4,475.6,691.1)" />
</g>
</g>
<g fill="#000000" >
<use xlink:href="#f5_1j" transform="matrix(12,0,0,12,55,729.9)" />
<use xlink:href="#f5_2b" transform="matrix(12,0,0,12,65.3,729.9)" />
<use xlink:href="#f5_28" transform="matrix(12,0,0,12,74.5,729.9)" />
<use xlink:href="#f5_2h" transform="matrix(12,0,0,12,79.2,729.9)" />
<use xlink:href="#f5_2g" transform="matrix(12,0,0,12,89.5,729.9)" />
<use xlink:href="#f5_25" transform="matrix(12,0,0,12,95.7,729.9)" />
<use xlink:href="#f5_2b" transform="matrix(12,0,0,12,100.8,729.9)" />
<use xlink:href="#f5_2a" transform="matrix(12,0,0,12,109.9,729.9)" />
<use xlink:href="#f5_u" transform="matrix(12,0,0,12,120.2,729.9)" />
<use xlink:href="#f2_1k" transform="matrix(12,0,0,12,55,752.6)" />
<use xlink:href="#f2_24" transform="matrix(12,0,0,12,66.4,752.6)" />
<use xlink:href="#f2_21" transform="matrix(12,0,0,12,75.2,752.6)" />
<use xlink:href="#f2_23" transform="matrix(12,0,0,12,88,752.6)" />
<use xlink:href="#f2_25" transform="matrix(12,0,0,12,97.5,752.6)" />
<use xlink:href="#f2_2i" transform="matrix(12,0,0,12,102.3,752.6)" />
<use xlink:href="#f2_21" transform="matrix(12,0,0,12,111.1,752.6)" />
<use xlink:href="#f2_2a" transform="matrix(12,0,0,12,119.5,752.6)" />
<use xlink:href="#f2_20" transform="matrix(12,0,0,12,133,752.6)" />
<use xlink:href="#f2_25" transform="matrix(12,0,0,12,142.6,752.6)" />
<use xlink:href="#f2_22" transform="matrix(12,0,0,12,147.3,752.6)" />
<use xlink:href="#f2_22" transform="matrix(12,0,0,12,153.5,752.6)" />
<use xlink:href="#f2_21" transform="matrix(12,0,0,12,159.4,752.6)" />
<use xlink:href="#f2_2e" transform="matrix(12,0,0,12,167.5,752.6)" />
<use xlink:href="#f2_21" transform="matrix(12,0,0,12,173.7,752.6)" />
<use xlink:href="#f2_2a" transform="matrix(12,0,0,12,182.1,752.6)" />
<use xlink:href="#f2_2g" transform="matrix(12,0,0,12,190.9,752.6)" />
<use xlink:href="#f2_25" transform="matrix(12,0,0,12,196.8,752.6)" />
<use xlink:href="#f2_1x" transform="matrix(12,0,0,12,201.2,752.6)" />
<use xlink:href="#f2_28" transform="matrix(12,0,0,12,209.6,752.6)" />
<use xlink:href="#f2_21" transform="matrix(12,0,0,12,219.1,752.6)" />
<use xlink:href="#f2_2d" transform="matrix(12,0,0,12,227.2,752.6)" />
<use xlink:href="#f2_2h" transform="matrix(12,0,0,12,236.3,752.6)" />
<use xlink:href="#f2_1x" transform="matrix(12,0,0,12,245.5,752.6)" />
<use xlink:href="#f2_2g" transform="matrix(12,0,0,12,253.6,752.6)" />
<use xlink:href="#f2_25" transform="matrix(12,0,0,12,259,752.6)" />
<use xlink:href="#f2_2b" transform="matrix(12,0,0,12,263.4,752.6)" />
<use xlink:href="#f2_2a" transform="matrix(12,0,0,12,272.9,752.6)" />
<use xlink:href="#f2_1z" transform="matrix(12,0,0,12,286.5,752.6)" />
<use xlink:href="#f2_1x" transform="matrix(12,0,0,12,294.6,752.6)" />
<use xlink:href="#f2_2a" transform="matrix(12,0,0,12,303,752.6)" />
<use xlink:href="#f2_1y" transform="matrix(12,0,0,12,316.9,752.6)" />
<use xlink:href="#f2_21" transform="matrix(12,0,0,12,325.7,752.6)" />
<use xlink:href="#f2_2j" transform="matrix(12,0,0,12,338.5,752.6)" />
<use xlink:href="#f2_2e" transform="matrix(12,0,0,12,351.7,752.6)" />
<use xlink:href="#f2_25" transform="matrix(12,0,0,12,358.3,752.6)" />
<use xlink:href="#f2_2g" transform="matrix(12,0,0,12,362.7,752.6)" />
<use xlink:href="#f2_2g" transform="matrix(12,0,0,12,368.2,752.6)" />
<use xlink:href="#f2_21" transform="matrix(12,0,0,12,373.7,752.6)" />
<use xlink:href="#f2_2a" transform="matrix(12,0,0,12,381.7,752.6)" />
<use xlink:href="#f2_1x" transform="matrix(12,0,0,12,395.3,752.6)" />
<use xlink:href="#f2_2f" transform="matrix(12,0,0,12,403.3,752.6)" />
</g>
<path d="M58.3,784.4H78.2m18.3,0h34.6" class="g13_98" />
<g clip-path="url(#c9_98)">
<g fill="#000000" >
<use xlink:href="#f2_m" transform="matrix(7.4,0,0,7.2,208.9,780.7)" />
<use xlink:href="#f2_n" transform="matrix(7.4,0,0,7.2,227.3,780.7)" />
<use xlink:href="#f2_l" transform="matrix(12.7,0,0,12.4,109.2,777.5)" />
<use xlink:href="#f2_c" transform="matrix(12.7,0,0,12.4,162.9,789)" />
<use xlink:href="#f2_l" transform="matrix(12.7,0,0,12.4,194.4,789)" />
<use xlink:href="#f2_d" transform="matrix(12.7,0,0,12.4,202.1,789)" />
<use xlink:href="#f2_i" transform="matrix(12.7,0,0,12.4,215.2,789)" />
<use xlink:href="#f2_l" transform="matrix(12.7,0,0,12.4,122.7,803.4)" />
<use xlink:href="#f3_2k" transform="matrix(7.4,0,0,7.2,233.6,780.7)" />
<use xlink:href="#f3_20" transform="matrix(12.7,0,0,12.4,59.5,777.5)" />
<use xlink:href="#f3_2l" transform="matrix(12.7,0,0,12.4,68.6,777.5)" />
<use xlink:href="#f3_2l" transform="matrix(12.7,0,0,12.4,135.6,789)" />
<use xlink:href="#f3_2k" transform="matrix(12.7,0,0,12.4,170.3,789)" />
<use xlink:href="#f3_21" transform="matrix(12.7,0,0,12.4,218.9,789)" />
<use xlink:href="#f3_20" transform="matrix(12.7,0,0,12.4,59.6,803.4)" />
<use xlink:href="#f3_2k" transform="matrix(12.7,0,0,12.4,68.8,803.4)" />
<use xlink:href="#f3_2k" transform="matrix(12.7,0,0,12.4,98.6,803.4)" />
<use xlink:href="#f4_h" transform="matrix(12.7,0,0,12.4,82.5,789)" />
<use xlink:href="#f4_x" transform="matrix(12.7,0,0,12.4,148.7,789)" />
<use xlink:href="#f4_f" transform="matrix(12.7,0,0,12.4,182.4,789)" />
<use xlink:href="#f4_f" transform="matrix(12.7,0,0,12.4,110.7,803.4)" />
</g>
</g>
<g fill="#000000" >
<use xlink:href="#f2_18" transform="matrix(12,0,0,12,55,842.1)" />
<use xlink:href="#f2_21" transform="matrix(12,0,0,12,68.3,842.1)" />
<use xlink:href="#f2_2e" transform="matrix(12,0,0,12,76.3,842.1)" />
<use xlink:href="#f2_21" transform="matrix(12,0,0,12,82.5,842.1)" />
<use xlink:href="#f2_g" transform="matrix(12,0,0,12,90.6,842.1)" />
<use xlink:href="#f2_25" transform="matrix(12,0,0,12,100.1,842.1)" />
<use xlink:href="#f2_2a" transform="matrix(12,0,0,12,104.8,842.1)" />
<use xlink:href="#f2_2g" transform="matrix(12,0,0,12,113.6,842.1)" />
<use xlink:href="#f2_21" transform="matrix(12,0,0,12,119.1,842.1)" />
<use xlink:href="#f2_23" transform="matrix(12,0,0,12,127.2,842.1)" />
<use xlink:href="#f2_2e" transform="matrix(12,0,0,12,136.4,842.1)" />
<use xlink:href="#f2_1x" transform="matrix(12,0,0,12,142.6,842.1)" />
<use xlink:href="#f2_2g" transform="matrix(12,0,0,12,150.6,842.1)" />
<use xlink:href="#f2_25" transform="matrix(12,0,0,12,156.1,842.1)" />
<use xlink:href="#f2_2a" transform="matrix(12,0,0,12,160.9,842.1)" />
<use xlink:href="#f2_23" transform="matrix(12,0,0,12,169.7,842.1)" />
<use xlink:href="#f2_22" transform="matrix(12,0,0,12,184,842.1)" />
<use xlink:href="#f2_1x" transform="matrix(12,0,0,12,189.5,842.1)" />
<use xlink:href="#f2_1z" transform="matrix(12,0,0,12,197.5,842.1)" />
<use xlink:href="#f2_2g" transform="matrix(12,0,0,12,205.6,842.1)" />
<use xlink:href="#f2_2b" transform="matrix(12,0,0,12,211.1,842.1)" />
<use xlink:href="#f2_2e" transform="matrix(12,0,0,12,220.6,842.1)" />
<use xlink:href="#f2_x" transform="matrix(12,0,0,12,231.2,842.1)" />
</g>
<path d="M271.5,825.6h17.7" class="g14_98" />
<path d="M321.7,837.8h34.4" class="g15_98" />
<g clip-path="url(#c10_98)">
<g fill="#000000" >
<use xlink:href="#f2_l" transform="matrix(7.4,0,0,7.1,277.7,821.4)" />
<use xlink:href="#f2_l" transform="matrix(7.4,0,0,7.1,284.4,836.7)" />
<use xlink:href="#f2_l" transform="matrix(12.6,0,0,12.2,334.3,831)" />
<use xlink:href="#f2_l" transform="matrix(12.6,0,0,12.2,347.7,856.6)" />
<use xlink:href="#f3_20" transform="matrix(7.4,0,0,7.1,290.6,828.2)" />
<use xlink:href="#f3_2k" transform="matrix(7.4,0,0,7.1,295.9,828.2)" />
<use xlink:href="#f3_2k" transform="matrix(7.4,0,0,7.1,272.7,836.7)" />
<use xlink:href="#f3_21" transform="matrix(12.6,0,0,12.2,248.7,842.4)" />
<use xlink:href="#f3_2k" transform="matrix(12.6,0,0,12.2,323.8,856.6)" />
<use xlink:href="#f4_h" transform="matrix(7.4,0,0,7.1,264.5,828.2)" />
<use xlink:href="#f4_f" transform="matrix(7.4,0,0,7.1,278.5,836.7)" />
<use xlink:href="#f4_50" transform="matrix(12.6,0,0,12.2,257.5,833)" />
<use xlink:href="#f4_x" transform="matrix(12.6,0,0,12.2,307,842.4)" />
<use xlink:href="#f4_f" transform="matrix(12.6,0,0,12.2,335.7,856.6)" />
</g>
</g>
<g clip-path="url(#c11_98)">
<g fill="#000000" >
<use xlink:href="#f4_1s" transform="matrix(12.3,0,0,12.1,55.1,892.7)" />
</g>
</g>
<g fill="#000000" >
<use xlink:href="#f2_1j" transform="matrix(12,0,0,12,76.7,892.7)" />
<use xlink:href="#f2_2b" transform="matrix(12,0,0,12,86.6,892.7)" />
<use xlink:href="#f2_28" transform="matrix(12,0,0,12,96.1,892.7)" />
<use xlink:href="#f2_2h" transform="matrix(12,0,0,12,100.5,892.7)" />
<use xlink:href="#f2_2g" transform="matrix(12,0,0,12,109.7,892.7)" />
<use xlink:href="#f2_25" transform="matrix(12,0,0,12,115.5,892.7)" />
<use xlink:href="#f2_2b" transform="matrix(12,0,0,12,119.9,892.7)" />
<use xlink:href="#f2_2a" transform="matrix(12,0,0,12,129.4,892.7)" />
<use xlink:href="#f2_25" transform="matrix(12,0,0,12,143.3,892.7)" />
<use xlink:href="#f2_2f" transform="matrix(12,0,0,12,148.1,892.7)" />
</g>
<path d="M175.5,888.1H210" class="g16_98" />
<g clip-path="url(#c12_98)">
<g fill="#000000" >
<use xlink:href="#f2_n" transform="matrix(7.4,0,0,7.2,293.1,884.4)" />
<use xlink:href="#f2_l" transform="matrix(12.7,0,0,12.4,188.2,881.2)" />
<use xlink:href="#f2_c" transform="matrix(12.7,0,0,12.4,239.4,892.8)" />
<use xlink:href="#f2_l" transform="matrix(12.7,0,0,12.4,270.8,892.8)" />
<use xlink:href="#f2_d" transform="matrix(12.7,0,0,12.4,278.4,892.8)" />
<use xlink:href="#f2_l" transform="matrix(12.7,0,0,12.4,201.6,907.1)" />
<use xlink:href="#f3_2k" transform="matrix(7.4,0,0,7.2,299.4,884.4)" />
<use xlink:href="#f3_2l" transform="matrix(12.7,0,0,12.4,164.5,892.8)" />
<use xlink:href="#f3_2k" transform="matrix(12.7,0,0,12.4,246.9,892.8)" />
<use xlink:href="#f3_21" transform="matrix(12.7,0,0,12.4,284.7,892.8)" />
<use xlink:href="#f3_20" transform="matrix(12.7,0,0,12.4,305,892.8)" />
<use xlink:href="#f3_2k" transform="matrix(12.7,0,0,12.4,314.1,892.8)" />
<use xlink:href="#f3_2k" transform="matrix(12.7,0,0,12.4,177.6,907.1)" />
<use xlink:href="#f4_x" transform="matrix(12.7,0,0,12.4,215,892.8)" />
<use xlink:href="#f4_f" transform="matrix(12.7,0,0,12.4,258.8,892.8)" />
<use xlink:href="#f4_f" transform="matrix(12.7,0,0,12.4,189.6,907.1)" />
<use xlink:href="#f4_50" transform="matrix(19.1,0,0,18.5,229.7,899.5)" />
</g>
</g>
<g clip-path="url(#c13_98)">
<g fill="#000000" >
<use xlink:href="#f4_1s" transform="matrix(12.3,0,0,12.1,55.1,946.2)" />
</g>
</g>
<path d="M79.5,941.7h35.8m67.2,0h23.2m18.4,0h23.1" class="g17_98" />
<g clip-path="url(#c14_98)">
<g fill="#000000" >
<use xlink:href="#f2_n" transform="matrix(7.4,0,0,7.2,191.9,926.6)" />
<use xlink:href="#f2_n" transform="matrix(7.4,0,0,7.2,233.4,926.6)" />
<use xlink:href="#f2_c" transform="matrix(12.6,0,0,12.3,134.6,946.3)" />
<use xlink:href="#f2_l" transform="matrix(12.6,0,0,12.3,166.2,946.3)" />
<use xlink:href="#f2_d" transform="matrix(12.6,0,0,12.3,173.9,946.3)" />
<use xlink:href="#f2_l" transform="matrix(12.6,0,0,12.3,106.8,960.5)" />
<use xlink:href="#f2_n" transform="matrix(12.6,0,0,12.3,189.7,960.5)" />
<use xlink:href="#f2_t" transform="matrix(12.6,0,0,12.3,231,960.5)" />
<use xlink:href="#f3_2k" transform="matrix(7.4,0,0,7.2,198.1,926.6)" />
<use xlink:href="#f3_2k" transform="matrix(7.4,0,0,7.2,239.7,926.6)" />
<use xlink:href="#f3_2l" transform="matrix(12.6,0,0,12.3,94.1,934.9)" />
<use xlink:href="#f3_21" transform="matrix(12.6,0,0,12.3,183.4,934.9)" />
<use xlink:href="#f3_21" transform="matrix(12.6,0,0,12.3,225,934.9)" />
<use xlink:href="#f3_2k" transform="matrix(12.6,0,0,12.3,142.1,946.3)" />
<use xlink:href="#f3_13" transform="matrix(12.6,0,0,12.3,265,946.3)" />
<use xlink:href="#f3_2l" transform="matrix(12.6,0,0,12.3,82.4,960.5)" />
<use xlink:href="#f4_x" transform="matrix(12.6,0,0,12.3,120.4,946.3)" />
<use xlink:href="#f4_f" transform="matrix(12.6,0,0,12.3,154.1,946.3)" />
<use xlink:href="#f4_h" transform="matrix(12.6,0,0,12.3,210,946.3)" />
<use xlink:href="#f4_f" transform="matrix(12.6,0,0,12.3,251.5,946.3)" />
<use xlink:href="#f4_f" transform="matrix(12.6,0,0,12.3,94.8,960.5)" />
</g>
</g>
<g fill="#000000" >
<use xlink:href="#f2_2b" transform="matrix(12,0,0,12,55,1001.6)" />
<use xlink:href="#f2_2e" transform="matrix(12,0,0,12,64.6,1001.6)" />
</g>
<path d="M115.4,997h9.9m73.1,0h34.5" class="g18_98" />
<g clip-path="url(#c15_98)">
<g fill="#000000" >
<use xlink:href="#f2_m" transform="matrix(7.4,0,0,7.2,173.7,993.3)" />
<use xlink:href="#f2_n" transform="matrix(7.4,0,0,7.2,252.2,993.3)" />
<use xlink:href="#f2_l" transform="matrix(12.7,0,0,12.3,115.8,990.2)" />
<use xlink:href="#f2_l" transform="matrix(12.7,0,0,12.3,224.5,990.2)" />
<use xlink:href="#f2_c" transform="matrix(12.7,0,0,12.3,127.8,1001.6)" />
<use xlink:href="#f2_l" transform="matrix(12.7,0,0,12.3,159.3,1001.6)" />
<use xlink:href="#f2_d" transform="matrix(12.7,0,0,12.3,167,1001.6)" />
<use xlink:href="#f2_c" transform="matrix(12.7,0,0,12.3,295.6,1001.6)" />
<use xlink:href="#f2_l" transform="matrix(12.7,0,0,12.3,327,1001.6)" />
<use xlink:href="#f2_d" transform="matrix(12.7,0,0,12.3,334.7,1001.6)" />
<use xlink:href="#f2_n" transform="matrix(12.7,0,0,12.3,116.1,1015.9)" />
<use xlink:href="#f2_t" transform="matrix(12.7,0,0,12.3,211.1,1015.9)" />
<use xlink:href="#f3_2k" transform="matrix(7.4,0,0,7.2,258.4,993.3)" />
<use xlink:href="#f3_2k" transform="matrix(12.7,0,0,12.3,200.5,990.2)" />
<use xlink:href="#f3_2l" transform="matrix(12.7,0,0,12.3,79.4,1001.6)" />
<use xlink:href="#f3_2k" transform="matrix(12.7,0,0,12.3,135.2,1001.6)" />
<use xlink:href="#f3_21" transform="matrix(12.7,0,0,12.3,243.7,1001.6)" />
<use xlink:href="#f3_13" transform="matrix(12.7,0,0,12.3,282.1,1001.6)" />
<use xlink:href="#f3_2k" transform="matrix(12.7,0,0,12.3,303,1001.6)" />
<use xlink:href="#f4_f" transform="matrix(12.7,0,0,12.3,212.5,990.2)" />
<use xlink:href="#f4_4r" transform="matrix(12.7,0,0,12.3,107.3,991.5)" />
<use xlink:href="#f4_57" transform="matrix(12.7,0,0,12.3,234.4,991.5)" />
<use xlink:href="#f4_x" transform="matrix(12.7,0,0,12.3,92.5,1001.6)" />
<use xlink:href="#f4_f" transform="matrix(12.7,0,0,12.3,147.3,1001.6)" />
<use xlink:href="#f4_h" transform="matrix(12.7,0,0,12.3,184.3,1001.6)" />
<use xlink:href="#f4_f" transform="matrix(12.7,0,0,12.3,268.7,1001.6)" />
<use xlink:href="#f4_f" transform="matrix(12.7,0,0,12.3,315,1001.6)" />
<use xlink:href="#f4_4s" transform="matrix(12.7,0,0,12.3,107.3,1009.2)" />
<use xlink:href="#f4_58" transform="matrix(12.7,0,0,12.3,234.4,1009.2)" />
<use xlink:href="#f4_4t" transform="matrix(12.7,0,0,12.3,107.3,1018.1)" />
<use xlink:href="#f4_59" transform="matrix(12.7,0,0,12.3,234.4,1018.1)" />
</g>
</g>
<g fill="#000000" >
<use xlink:href="#f5_l" transform="matrix(12,0,0,12,55,1078.3)" />
<use xlink:href="#f5_o" transform="matrix(12,0,0,12,64.2,1078.3)" />
<use xlink:href="#f5_i" transform="matrix(12,0,0,12,73.4,1078.3)" />
<use xlink:href="#f2_1j" transform="matrix(12,0,0,12,82.9,1078.3)" />
<use xlink:href="#f2_2b" transform="matrix(12,0,0,12,92.8,1078.3)" />
<use xlink:href="#f2_28" transform="matrix(12,0,0,12,102.3,1078.3)" />
<use xlink:href="#f2_2i" transform="matrix(12,0,0,12,107.1,1078.3)" />
<use xlink:href="#f2_21" transform="matrix(12,0,0,12,115.9,1078.3)" />
<use xlink:href="#f2_2g" transform="matrix(12,0,0,12,128.7,1078.3)" />
<use xlink:href="#f2_24" transform="matrix(12,0,0,12,134.2,1078.3)" />
<use xlink:href="#f2_21" transform="matrix(12,0,0,12,143,1078.3)" />
<use xlink:href="#f2_20" transform="matrix(12,0,0,12,155.8,1078.3)" />
<use xlink:href="#f2_25" transform="matrix(12,0,0,12,165.3,1078.3)" />
<use xlink:href="#f2_22" transform="matrix(12,0,0,12,170.1,1078.3)" />
<use xlink:href="#f2_22" transform="matrix(12,0,0,12,175.9,1078.3)" />
<use xlink:href="#f2_21" transform="matrix(12,0,0,12,181.8,1078.3)" />
<use xlink:href="#f2_2e" transform="matrix(12,0,0,12,189.9,1078.3)" />
<use xlink:href="#f2_21" transform="matrix(12,0,0,12,196.1,1078.3)" />
<use xlink:href="#f2_2a" transform="matrix(12,0,0,12,204.5,1078.3)" />
<use xlink:href="#f2_2g" transform="matrix(12,0,0,12,213.3,1078.3)" />
<use xlink:href="#f2_25" transform="matrix(12,0,0,12,219.2,1078.3)" />
<use xlink:href="#f2_1x" transform="matrix(12,0,0,12,223.6,1078.3)" />
<use xlink:href="#f2_28" transform="matrix(12,0,0,12,232,1078.3)" />
<use xlink:href="#f2_21" transform="matrix(12,0,0,12,241.5,1078.3)" />
<use xlink:href="#f2_2d" transform="matrix(12,0,0,12,249.6,1078.3)" />
<use xlink:href="#f2_2h" transform="matrix(12,0,0,12,258.7,1078.3)" />
<use xlink:href="#f2_1x" transform="matrix(12,0,0,12,267.9,1078.3)" />
<use xlink:href="#f2_2g" transform="matrix(12,0,0,12,276,1078.3)" />
<use xlink:href="#f2_25" transform="matrix(12,0,0,12,281.8,1078.3)" />
<use xlink:href="#f2_2b" transform="matrix(12,0,0,12,286.2,1078.3)" />
<use xlink:href="#f2_2a" transform="matrix(12,0,0,12,295.7,1078.3)" />
<use xlink:href="#f2_u" transform="matrix(12,0,0,12,304.5,1078.3)" />
</g>
<path d="M363.6,1053.8l-13.2,18.8m137.1,-18.8l-13.2,18.8" class="g19_98" />
<g clip-path="url(#c16_98)">
<g fill="#000000" >
<use xlink:href="#f2_m" transform="matrix(12.7,0,0,12.4,317.5,1078.3)" />
<use xlink:href="#f2_m" transform="matrix(12.7,0,0,12.4,442.5,1078.3)" />
<use xlink:href="#f2_k" transform="matrix(12.7,0,0,12.4,537.7,1078.3)" />
<use xlink:href="#f3_2k" transform="matrix(7.4,0,0,7.1,352.4,1062)" />
<use xlink:href="#f3_2k" transform="matrix(7.4,0,0,7.1,476.3,1062)" />
<use xlink:href="#f3_2l" transform="matrix(7.4,0,0,7.1,359.6,1070.3)" />
<use xlink:href="#f3_2l" transform="matrix(7.4,0,0,7.1,483.5,1070.3)" />
<use xlink:href="#f3_2l" transform="matrix(12.7,0,0,12.4,328.6,1078.3)" />
<use xlink:href="#f3_21" transform="matrix(12.7,0,0,12.4,341.4,1078.3)" />
<use xlink:href="#f3_20" transform="matrix(12.7,0,0,12.4,370.8,1078.3)" />
<use xlink:href="#f3_2k" transform="matrix(12.7,0,0,12.4,379.9,1078.3)" />
<use xlink:href="#f3_2l" transform="matrix(12.7,0,0,12.4,416.5,1078.3)" />
<use xlink:href="#f3_2k" transform="matrix(12.7,0,0,12.4,452.8,1078.3)" />
<use xlink:href="#f3_21" transform="matrix(12.7,0,0,12.4,465.2,1078.3)" />
<use xlink:href="#f3_20" transform="matrix(12.7,0,0,12.4,501.2,1078.3)" />
<use xlink:href="#f3_2l" transform="matrix(12.7,0,0,12.4,510.4,1078.3)" />
<use xlink:href="#f4_4o" transform="matrix(12.7,0,0,12.4,405.3,1069.5)" />
<use xlink:href="#f4_54" transform="matrix(12.7,0,0,12.4,492.3,1069.5)" />
<use xlink:href="#f4_f" transform="matrix(12.7,0,0,12.4,391.9,1078.3)" />
<use xlink:href="#f4_h" transform="matrix(12.7,0,0,12.4,428.8,1078.3)" />
<use xlink:href="#f4_x" transform="matrix(12.7,0,0,12.4,523.5,1078.3)" />
<use xlink:href="#f4_4p" transform="matrix(12.7,0,0,12.4,405.3,1081.8)" />
<use xlink:href="#f4_55" transform="matrix(12.7,0,0,12.4,492.3,1081.8)" />
<use xlink:href="#f4_4q" transform="matrix(12.7,0,0,12.4,405.3,1093.5)" />
<use xlink:href="#f4_56" transform="matrix(12.7,0,0,12.4,492.3,1093.5)" />
</g>
</g>
<g fill="#000000" >
<use xlink:href="#f5_1j" transform="matrix(12,0,0,12,55,1118.6)" />
<use xlink:href="#f5_2b" transform="matrix(12,0,0,12,65.3,1118.6)" />
<use xlink:href="#f5_28" transform="matrix(12,0,0,12,74.5,1118.6)" />
<use xlink:href="#f5_2h" transform="matrix(12,0,0,12,79.2,1118.6)" />
<use xlink:href="#f5_2g" transform="matrix(12,0,0,12,89.5,1118.6)" />
<use xlink:href="#f5_25" transform="matrix(12,0,0,12,95.7,1118.6)" />
<use xlink:href="#f5_2b" transform="matrix(12,0,0,12,100.8,1118.6)" />
<use xlink:href="#f5_2a" transform="matrix(12,0,0,12,109.9,1118.6)" />
<use xlink:href="#f5_u" transform="matrix(12,0,0,12,120.2,1118.6)" />
<use xlink:href="#f2_16" transform="matrix(12,0,0,12,55,1141.4)" />
<use xlink:href="#f2_2e" transform="matrix(12,0,0,12,64.9,1141.4)" />
<use xlink:href="#f2_2b" transform="matrix(12,0,0,12,71.2,1141.4)" />
<use xlink:href="#f2_29" transform="matrix(12,0,0,12,80.7,1141.4)" />
<use xlink:href="#f2_2g" transform="matrix(12,0,0,12,99,1141.4)" />
<use xlink:href="#f2_24" transform="matrix(12,0,0,12,104.5,1141.4)" />
<use xlink:href="#f2_21" transform="matrix(12,0,0,12,113.3,1141.4)" />
<use xlink:href="#f2_23" transform="matrix(12,0,0,12,126.1,1141.4)" />
<use xlink:href="#f2_25" transform="matrix(12,0,0,12,135.6,1141.4)" />
<use xlink:href="#f2_2i" transform="matrix(12,0,0,12,140.4,1141.4)" />
<use xlink:href="#f2_21" transform="matrix(12,0,0,12,149.2,1141.4)" />
<use xlink:href="#f2_2a" transform="matrix(12,0,0,12,157.6,1141.4)" />
<use xlink:href="#f2_20" transform="matrix(12,0,0,12,171.1,1141.4)" />
<use xlink:href="#f2_25" transform="matrix(12,0,0,12,180.6,1141.4)" />
<use xlink:href="#f2_22" transform="matrix(12,0,0,12,185.7,1141.4)" />
<use xlink:href="#f2_22" transform="matrix(12,0,0,12,191.6,1141.4)" />
<use xlink:href="#f2_21" transform="matrix(12,0,0,12,197.5,1141.4)" />
<use xlink:href="#f2_2e" transform="matrix(12,0,0,12,205.6,1141.4)" />
<use xlink:href="#f2_21" transform="matrix(12,0,0,12,211.8,1141.4)" />
<use xlink:href="#f2_2a" transform="matrix(12,0,0,12,220.2,1141.4)" />
<use xlink:href="#f2_2g" transform="matrix(12,0,0,12,229,1141.4)" />
<use xlink:href="#f2_25" transform="matrix(12,0,0,12,234.8,1141.4)" />
<use xlink:href="#f2_1x" transform="matrix(12,0,0,12,239.2,1141.4)" />
<use xlink:href="#f2_28" transform="matrix(12,0,0,12,247.7,1141.4)" />
<use xlink:href="#f2_21" transform="matrix(12,0,0,12,257.5,1141.4)" />
<use xlink:href="#f2_2d" transform="matrix(12,0,0,12,265.6,1141.4)" />
<use xlink:href="#f2_2h" transform="matrix(12,0,0,12,274.7,1141.4)" />
<use xlink:href="#f2_1x" transform="matrix(12,0,0,12,283.9,1141.4)" />
<use xlink:href="#f2_2g" transform="matrix(12,0,0,12,292,1141.4)" />
<use xlink:href="#f2_25" transform="matrix(12,0,0,12,297.8,1141.4)" />
<use xlink:href="#f2_2b" transform="matrix(12,0,0,12,302.2,1141.4)" />
<use xlink:href="#f2_2a" transform="matrix(12,0,0,12,311.7,1141.4)" />
<use xlink:href="#f2_g" transform="matrix(12,0,0,12,320.5,1141.4)" />
<use xlink:href="#f2_2j" transform="matrix(12,0,0,12,330,1141.4)" />
<use xlink:href="#f2_21" transform="matrix(12,0,0,12,343.3,1141.4)" />
<use xlink:href="#f2_1z" transform="matrix(12,0,0,12,356,1141.4)" />
<use xlink:href="#f2_1x" transform="matrix(12,0,0,12,364.1,1141.4)" />
<use xlink:href="#f2_2a" transform="matrix(12,0,0,12,372.2,1141.4)" />
<use xlink:href="#f2_2j" transform="matrix(12,0,0,12,385.7,1141.4)" />
<use xlink:href="#f2_2e" transform="matrix(12,0,0,12,399,1141.4)" />
<use xlink:href="#f2_25" transform="matrix(12,0,0,12,405.5,1141.4)" />
<use xlink:href="#f2_2g" transform="matrix(12,0,0,12,409.9,1141.4)" />
<use xlink:href="#f2_21" transform="matrix(12,0,0,12,415.4,1141.4)" />
</g>
<path fill-rule="evenodd" d="M37.4,38.1h.7v-.7h-.7v.7Z" class="g3_98" />
<path fill-rule="evenodd" d="M37.4,38.1h.7v-.7h-.7v.7Z" class="g3_98" />
<path fill-rule="evenodd" d="M38.1,38.1H871.5v-.7H38.1v.7Z" class="g3_98" />
<path fill-rule="evenodd" d="M871.5,38.1h.8v-.7h-.8v.7Z" class="g3_98" />
<path fill-rule="evenodd" d="M871.5,38.1h.8v-.7h-.8v.7Z" class="g3_98" />
<path fill-rule="evenodd" d="M37.4,1248.5h.7V38.1h-.7V1248.5Z" class="g3_98" />
<path fill-rule="evenodd" d="M872.3,1248.5h.7V38.1h-.7V1248.5Z" class="g3_98" />
<path fill-rule="evenodd" d="M871.5,1248.5h.8V38.1h-.8V1248.5Z" class="g3_98" />
<path fill-rule="evenodd" d="M37.4,1249.2h.7v-.7h-.7v.7Z" class="g3_98" />
<path fill-rule="evenodd" d="M37.4,1249.2h.7v-.7h-.7v.7Z" class="g3_98" />
<path fill-rule="evenodd" d="M38.1,1249.9H871.5v-.7H38.1v.7Z" class="g3_98" />
<path fill-rule="evenodd" d="M38.1,1249.2H871.5v-.7H38.1v.7Z" class="g3_98" />
<path fill-rule="evenodd" d="M872.3,1249.9h.7v-1.4h-.7v1.4Z" class="g3_98" />
<path fill-rule="evenodd" d="M871.5,1249.9H873v-.7h-1.5v.7Z" class="g3_98" />
<path fill-rule="evenodd" d="M871.5,1249.2h.8v-.7h-.8v.7Z" class="g3_98" />
<path fill-rule="evenodd" d="M871.5,1249.2h.8v-.7h-.8v.7Z" class="g3_98" />
<defs>
<path d="M489,-15c0,0,-99,0,-179,30c0,0,-80,30,-136,91c0,0,-56,61,-85,152c0,0,-30,91,-30,212c0,0,0,123,32,218c0,0,33,96,92,161c0,0,59,65,142,98c0,0,82,34,181,34c0,0,40,0,78,-7c0,0,37,-7,69,-18c0,0,31,-11,57,-25c0,0,25,-14,35,-24c0,0,10,-10,14,-17c0,0,4,-7,6,-17c0,0,2,-11,3,-25c0,0,2,-14,2,-35c0,0,0,-22,-2,-38c0,0,-1,-15,-5,-25c0,0,-4,-10,-9,-14c0,0,-5,-5,-12,-5c0,0,-11,0,-28,13c0,0,-18,13,-45,29c0,0,-27,16,-65,29c0,0,-37,13,-89,13c0,0,-58,0,-103,-23c0,0,-45,-23,-77,-67c0,0,-31,-44,-48,-106c0,0,-16,-61,-16,-139c0,0,0,-85,17,-147c0,0,18,-62,50,-103c0,0,33,-40,79,-60c0,0,45,-19,103,-19c0,0,52,0,90,12c0,0,38,12,65,27c0,0,27,15,45,27c0,0,17,12,27,12c0,0,8,0,12,-3c0,0,4,-3,7,-12c0,0,3,-9,5,-25c0,0,1,-16,1,-43c0,0,0,-18,-1,-31c0,0,-1,-14,-3,-23c0,0,-2,-9,-6,-16c0,0,-4,-7,-12,-15c0,0,-8,-9,-32,-22c0,0,-23,-14,-57,-26C661,13,627,1,583,-6c0,0,-43,-9,-94,-9Z" 
id="f0_j"
transform="scale(0.001,-0.001)" />

<path d="M440,150c0,0,41,0,68,8c0,0,28,9,49,26c0,0,20,16,32,41c0,0,11,25,11,58c0,0,0,33,-11,60c0,0,-11,26,-33,44c0,0,-21,18,-55,28c0,0,-33,9,-87,9H298V150ZM407,567c0,0,42,0,68,10c0,0,25,10,42,28c0,0,16,17,24,41c0,0,9,24,9,50c0,0,0,29,-9,52c0,0,-9,23,-27,39c0,0,-18,15,-45,23c0,0,-27,8,-72,8H298V567ZM164,0c0,0,-25,0,-42,15c0,0,-16,14,-16,47V903c0,0,0,33,16,48c0,0,17,14,42,14H406c0,0,88,0,150,-15c0,0,61,-15,103,-45c0,0,42,-30,65,-77c0,0,22,-46,22,-108c0,0,0,-36,-9,-67c0,0,-9,-31,-26,-56c0,0,-17,-25,-42,-45c0,0,-25,-19,-57,-31c0,0,41,-7,76,-26c0,0,34,-19,60,-48c0,0,26,-30,41,-69c0,0,15,-40,15,-89c0,0,0,-51,-14,-93c0,0,-15,-42,-40,-74c0,0,-25,-32,-59,-55c0,0,-35,-23,-77,-38C614,29,573,14,525,7C525,7,478,0,420,0Z" 
id="f0_i"
transform="scale(0.001,-0.001)" />

<path d="M320,-17c0,0,-50,0,-93,9c0,0,-43,8,-76,19c0,0,-32,11,-54,24C97,35,75,48,65,58c0,0,-10,9,-14,28c0,0,-4,18,-4,52c0,0,0,23,1,39c0,0,2,15,5,25c0,0,4,10,9,14c0,0,6,4,13,4c0,0,11,0,30,-12c0,0,19,-13,49,-28c0,0,30,-15,71,-27c0,0,42,-12,96,-12c0,0,36,0,64,8c0,0,29,9,49,25c0,0,19,15,30,38c0,0,10,23,10,52c0,0,0,33,-18,56c0,0,-18,24,-46,42c0,0,-29,18,-66,34c0,0,-36,16,-75,34c0,0,-39,18,-76,41c0,0,-36,23,-65,54c0,0,-29,32,-47,75c0,0,-17,44,-17,104c0,0,0,70,25,122c0,0,26,53,70,88c0,0,43,34,103,51c0,0,59,18,125,18c0,0,35,0,69,-6c0,0,34,-5,64,-14c0,0,30,-9,53,-20c0,0,23,-11,31,-18c0,0,7,-8,10,-13c0,0,3,-5,4,-14c0,0,2,-8,3,-21c0,0,1,-13,1,-33c0,0,0,-21,-1,-36c0,0,-1,-15,-4,-25c0,0,-3,-9,-7,-14c0,0,-5,-4,-14,-4c0,0,-8,0,-26,10c0,0,-18,10,-44,23c0,0,-26,12,-60,22c0,0,-34,10,-75,10c0,0,-32,0,-56,-8c0,0,-24,-8,-40,-21c0,0,-16,-14,-24,-34c0,0,-8,-19,-8,-41c0,0,0,-32,18,-56c0,0,17,-23,46,-42c0,0,30,-18,67,-34c0,0,38,-16,76,-34c0,0,39,-18,76,-41c0,0,38,-22,67,-54c0,0,29,-32,47,-75c0,0,18,-43,18,-101c0,0,0,-76,-29,-133c0,0,-28,-58,-77,-96C572,60,524,21,459,2c0,0,-65,-19,-139,-19Z" 
id="f0_2n"
transform="scale(0.001,-0.001)" />

<path d="M164,0c0,0,-25,0,-42,15c0,0,-16,14,-16,47V903c0,0,0,33,16,48c0,0,17,14,42,14H645c0,0,7,0,12,-4c0,0,5,-3,9,-13c0,0,4,-9,6,-24c0,0,2,-14,2,-36c0,0,0,-21,-2,-36c0,0,-2,-14,-6,-23c0,0,-4,-9,-9,-13c0,0,-5,-4,-12,-4H301V576H593c0,0,6,0,12,-4c0,0,6,-4,9,-13c0,0,4,-8,6,-23c0,0,2,-14,2,-35c0,0,0,-22,-2,-36c0,0,-2,-14,-6,-23c0,0,-3,-8,-9,-12c0,0,-6,-4,-12,-4H301V154H649c0,0,6,0,12,-5c0,0,5,-4,9,-13c0,0,4,-9,6,-23c0,0,2,-15,2,-36c0,0,0,-22,-2,-36c0,0,-2,-15,-6,-24c0,0,-4,-9,-9,-13c0,0,-6,-4,-12,-4Z" 
id="f0_t"
transform="scale(0.001,-0.001)" />

<path d="M79,297c0,0,-19,0,-27,18c0,0,-8,17,-8,60c0,0,0,41,8,59c0,0,8,17,27,17H389c0,0,9,0,15,-4c0,0,7,-4,11,-13c0,0,5,-9,7,-23c0,0,1,-15,1,-36c0,0,0,-43,-8,-61c0,0,-8,-17,-26,-17Z" 
id="f0_oj"
transform="scale(0.001,-0.001)" />

<path d="M121,-4c0,0,-39,0,-60,2C61,-2,39,0,32,8c0,0,-8,8,-3,24c0,0,4,15,18,41L279,495L64,892c0,0,-14,26,-19,42c0,0,-5,17,4,24c0,0,9,8,32,10c0,0,23,2,65,2c0,0,35,0,56,-2c0,0,20,-1,32,-4c0,0,12,-4,17,-10c0,0,5,-6,9,-15L431,620L595,939c0,0,5,9,10,15c0,0,5,6,16,10c0,0,10,3,29,4c0,0,19,2,53,2c0,0,37,0,59,-2c0,0,22,-2,30,-10c0,0,8,-8,4,-24c0,0,-4,-16,-17,-42L564,497L793,73c0,0,14,-26,18,-41c0,0,4,-16,-5,-24c0,0,-9,-8,-32,-10c0,0,-24,-2,-65,-2c0,0,-36,0,-56,2c0,0,-20,1,-31,3c0,0,-12,4,-17,10c0,0,-5,6,-9,15L414,374L233,26c0,0,-4,-9,-9,-15c0,0,-6,-6,-17,-10c0,0,-12,-2,-32,-3c0,0,-21,-2,-54,-2Z" 
id="f0_3e"
transform="scale(0.001,-0.001)" />

<path d="M204,-4c0,0,-28,0,-47,2c0,0,-19,2,-31,5c0,0,-11,4,-16,10c0,0,-4,6,-4,13V939c0,0,0,7,4,13c0,0,5,6,17,10c0,0,11,3,30,6c0,0,19,2,47,2c0,0,29,0,48,-2c0,0,18,-3,29,-6c0,0,11,-4,16,-10c0,0,5,-6,5,-13V26c0,0,0,-7,-5,-13c0,0,-5,-6,-16,-10c0,0,-11,-3,-29,-5c0,0,-19,-2,-48,-2Z" 
id="f0_1c"
transform="scale(0.001,-0.001)" />

<path d="M127,0c0,0,-16,0,-28,3C99,3,87,6,80,15c0,0,-8,8,-11,25c0,0,-3,16,-3,42c0,0,0,25,2,42c0,0,2,18,8,32c0,0,6,14,15,27c0,0,9,13,24,29L282,390c0,0,50,53,81,95c0,0,30,43,47,79c0,0,17,35,24,65c0,0,6,30,6,57c0,0,0,24,-8,46c0,0,-8,22,-23,39c0,0,-15,16,-38,25c0,0,-23,10,-55,10c0,0,-44,0,-78,-12c0,0,-33,-11,-59,-25c0,0,-26,-13,-43,-25c0,0,-17,-12,-27,-12c0,0,-7,0,-11,5c0,0,-5,4,-8,15c0,0,-3,10,-5,28c0,0,-2,17,-2,42c0,0,0,18,1,29c0,0,1,12,4,20c0,0,2,9,6,15c0,0,3,6,13,15c0,0,9,9,34,23c0,0,25,14,61,27c0,0,37,14,81,23c0,0,44,9,92,9c0,0,75,0,131,-19c0,0,57,-19,94,-53c0,0,37,-34,55,-81c0,0,19,-47,19,-100c0,0,0,-47,-9,-93c0,0,-9,-45,-37,-98c0,0,-29,-52,-80,-116c0,0,-52,-64,-136,-148L299,159H679c0,0,8,0,14,-4c0,0,6,-5,11,-14c0,0,4,-9,7,-25c0,0,2,-15,2,-36c0,0,0,-22,-2,-37c0,0,-2,-15,-6,-25c0,0,-3,-10,-9,-14c0,0,-6,-4,-14,-4Z" 
id="f0_rz"
transform="scale(0.001,-0.001)" />

<path d="M385,138c0,0,29,0,52,9c0,0,22,10,39,28c0,0,17,19,28,47c0,0,11,29,19,66c0,0,7,37,9,84c0,0,3,47,3,104c0,0,0,69,-4,122c0,0,-4,52,-11,91c0,0,-8,39,-20,66c0,0,-12,27,-28,43c0,0,-16,16,-37,22c0,0,-21,7,-47,7c0,0,-44,0,-73,-21c0,0,-28,-21,-45,-64c0,0,-17,-42,-24,-106c0,0,-6,-63,-6,-148c0,0,0,-103,8,-171c0,0,8,-67,26,-107c0,0,17,-40,45,-56c0,0,27,-16,66,-16ZM378,-17c0,0,-99,0,-164,33c0,0,-65,34,-103,98c0,0,-38,64,-54,156c0,0,-15,92,-15,209c0,0,0,115,19,208c0,0,19,94,61,160c0,0,42,65,110,101c0,0,68,35,165,35c0,0,99,0,164,-34c0,0,65,-34,103,-98c0,0,39,-64,53,-156c0,0,15,-92,15,-209c0,0,0,-115,-18,-209c0,0,-19,-93,-61,-159C653,118,611,53,543,17c0,0,-67,-34,-165,-34Z" 
id="f0_rx"
transform="scale(0.001,-0.001)" />

<path d="M142,0c0,0,-6,0,-12,4c0,0,-5,3,-9,12c0,0,-4,9,-6,23c0,0,-3,15,-3,36c0,0,0,21,2,36c0,0,2,14,6,23c0,0,4,9,10,13c0,0,5,5,12,5H322V779L166,693c0,0,-17,-8,-28,-10c0,0,-1,0,-3,0c-4,0,-10,1,-14,5c0,0,-6,6,-8,22c0,0,-2,15,-2,44c0,0,0,18,0,29c0,0,1,12,4,20c0,0,3,8,8,14c0,0,5,5,14,11L345,962c0,0,4,3,9,5c0,0,6,2,15,3c0,0,9,1,23,2c0,0,15,0,38,0c0,0,28,0,46,-1c0,0,17,-1,26,-4c0,0,9,-3,12,-7c0,0,3,-4,3,-11V152H675c0,0,7,0,12,-5c0,0,6,-4,10,-13c0,0,4,-9,6,-23c0,0,2,-15,2,-36c0,0,0,-21,-2,-36c0,0,-3,-14,-7,-23c0,0,-4,-9,-9,-12c0,0,-5,-4,-12,-4Z" 
id="f0_ry"
transform="scale(0.001,-0.001)" />

<path d="M398,134c0,0,34,0,60,12c0,0,25,13,43,36c0,0,17,23,26,54c0,0,9,31,9,68c0,0,0,38,-7,66c0,0,-7,29,-22,49c0,0,-15,20,-39,30c0,0,-25,10,-60,10c0,0,-21,0,-41,-4c0,0,-20,-4,-40,-10c0,0,-19,-7,-37,-16c0,0,-18,-10,-33,-20c0,0,0,-80,9,-133c0,0,9,-54,26,-85c0,0,18,-31,44,-44c0,0,27,-13,62,-13ZM387,-16c0,0,-67,0,-117,15c0,0,-50,14,-86,43c0,0,-37,29,-60,70c0,0,-23,41,-37,92c0,0,-14,52,-19,112c0,0,-5,61,-5,129c0,0,0,56,5,118c0,0,6,62,22,122c0,0,16,59,45,114c0,0,29,54,75,94c0,0,46,41,111,65c0,0,65,24,155,24c0,0,28,0,57,-4c0,0,29,-3,53,-8c0,0,25,-5,42,-12c0,0,17,-7,23,-12c0,0,5,-5,8,-11c0,0,3,-5,5,-13c0,0,2,-7,3,-17c0,0,1,-11,1,-25c0,0,0,-24,-1,-39c0,0,-2,-15,-5,-24c0,0,-3,-8,-8,-12c0,0,-5,-4,-12,-4c0,0,-9,0,-24,5c0,0,-14,5,-34,11c0,0,-20,6,-47,10c0,0,-27,5,-63,5c0,0,-61,0,-102,-23c0,0,-42,-22,-68,-60c0,0,-26,-39,-38,-90c0,0,-12,-50,-13,-107c0,0,16,10,38,21c0,0,21,10,46,18c0,0,25,7,54,12c0,0,29,5,62,5c0,0,73,0,125,-20c0,0,52,-20,86,-58c0,0,33,-37,48,-90c0,0,16,-53,16,-118c0,0,0,-73,-22,-135c0,0,-23,-62,-66,-108C640,79,597,34,533,9c0,0,-63,-25,-146,-25Z" 
id="f0_s3"
transform="scale(0.001,-0.001)" />

<path d="M589,371L453,782h-1L317,371ZM106,-4c0,0,-35,0,-54,2C52,-2,32,0,25,8c0,0,-7,9,-5,24c0,0,2,16,11,42L329,931c0,0,4,13,10,21c0,0,6,7,19,12c0,0,13,4,36,5c0,0,23,1,61,1c0,0,44,0,71,-1c0,0,26,-1,40,-5c0,0,15,-5,21,-13c0,0,6,-8,11,-22L896,73c0,0,9,-27,11,-43c0,0,3,-15,-6,-23c0,0,-8,-7,-29,-9c0,0,-21,-2,-57,-2c0,0,-38,0,-59,1c0,0,-22,1,-33,4c0,0,-11,3,-16,9c0,0,-4,6,-7,16L635,220H272L211,31c0,0,-2,-11,-7,-18c0,0,-5,-7,-16,-11c0,0,-11,-3,-31,-4c0,0,-19,-2,-51,-2Z" 
id="f0_5"
transform="scale(0.001,-0.001)" />

<path d="M198,-4c0,0,-27,0,-45,2c0,0,-18,2,-28,5c0,0,-11,4,-15,10c0,0,-4,6,-4,13V887c0,0,0,38,20,58c0,0,20,20,53,20H308c0,0,34,0,59,-6c0,0,24,-5,42,-18c0,0,18,-13,30,-35c0,0,12,-21,21,-52L669,279h3L889,852c0,0,9,32,21,53c0,0,11,22,27,35c0,0,15,14,36,19c0,0,21,6,48,6h132c0,0,21,0,35,-5c0,0,15,-5,24,-15c0,0,9,-11,14,-25c0,0,5,-15,5,-33V26c0,0,0,-7,-4,-13c0,0,-4,-6,-15,-10c0,0,-11,-3,-29,-5c0,0,-18,-2,-45,-2c0,0,-27,0,-45,2c0,0,-18,2,-28,5c0,0,-11,4,-15,10c0,0,-5,6,-5,13V813h-1L764,27c0,0,-3,-10,-10,-16c0,0,-6,-6,-18,-10c0,0,-12,-3,-29,-4c0,0,-18,-1,-44,-1c0,0,-25,0,-43,2c0,0,-18,2,-29,5c0,0,-12,4,-19,10c0,0,-6,6,-9,14L293,813h-2V26c0,0,0,-7,-4,-13c0,0,-4,-6,-15,-10c0,0,-11,-3,-29,-5c0,0,-17,-2,-45,-2Z" 
id="f0_1x"
transform="scale(0.001,-0.001)" />

<path d="M193,-4c0,0,-26,0,-43,2c0,0,-18,2,-27,6c0,0,-10,4,-14,10c0,0,-3,6,-3,13V895c0,0,0,35,20,53c0,0,21,17,50,17H282c0,0,28,0,47,-5c0,0,20,-5,35,-16c0,0,15,-11,29,-31c0,0,13,-20,27,-49L608,511c0,0,17,-32,33,-63c0,0,16,-31,31,-62c0,0,14,-31,29,-60c0,0,14,-30,27,-60h1c0,0,-2,52,-3,109c0,0,-1,57,-1,108V936c0,0,0,7,4,13c0,0,5,6,15,11c0,0,10,4,28,6c0,0,17,2,44,2c0,0,25,0,42,-2c0,0,17,-2,27,-6c0,0,9,-5,13,-11c0,0,4,-6,4,-13V68c0,0,0,-17,-6,-30c0,0,-6,-14,-17,-23C879,15,869,6,856,2c0,0,-14,-3,-28,-3H744c0,0,-26,0,-45,4c0,0,-19,5,-35,19c0,0,-16,14,-31,38c0,0,-15,23,-34,60L359,572c0,0,-21,40,-43,86c0,0,-21,47,-38,91h-2c0,0,3,-54,5,-107c0,0,2,-53,2,-110V27c0,0,0,-7,-5,-13c0,0,-4,-6,-14,-10c0,0,-10,-4,-27,-6c0,0,-17,-2,-44,-2Z" 
id="f0_1y"
transform="scale(0.001,-0.001)" />

<path d="M378,-4c0,0,-28,0,-47,2c0,0,-19,2,-31,5c0,0,-11,4,-16,10c0,0,-4,6,-4,13V805H38c0,0,-8,0,-13,4c0,0,-5,5,-9,14c0,0,-3,9,-5,25c0,0,-2,15,-2,37c0,0,0,22,2,38c0,0,2,15,5,25c0,0,4,9,9,13c0,0,5,4,13,4H718c0,0,7,0,12,-4c0,0,6,-4,10,-13c0,0,3,-10,5,-25c0,0,2,-16,2,-38c0,0,0,-22,-2,-37c0,0,-2,-16,-5,-25c0,0,-4,-9,-10,-14c0,0,-5,-4,-12,-4H476V26c0,0,0,-7,-5,-13c0,0,-5,-6,-16,-10c0,0,-11,-3,-30,-5c0,0,-19,-2,-47,-2Z" 
id="f0_2t"
transform="scale(0.001,-0.001)" />

<path d="M514,145c0,0,72,0,121,27c0,0,48,26,78,73c0,0,30,46,42,107c0,0,13,62,13,131c0,0,0,76,-12,139c0,0,-12,62,-41,106c0,0,-29,45,-76,69c0,0,-48,24,-120,24c0,0,-72,0,-120,-27c0,0,-49,-27,-79,-73c0,0,-29,-45,-42,-106c0,0,-12,-61,-12,-129c0,0,0,-79,12,-142c0,0,12,-63,40,-108c0,0,28,-44,76,-68c0,0,48,-23,120,-23ZM508,-17c0,0,-113,0,-196,29c0,0,-84,29,-140,90c0,0,-56,60,-84,154c0,0,-28,93,-28,221c0,0,0,117,29,210c0,0,30,94,89,160c0,0,59,65,146,101c0,0,87,35,202,35c0,0,110,0,194,-29c0,0,84,-30,140,-90c0,0,56,-60,85,-153c0,0,29,-92,29,-217c0,0,0,-120,-30,-215c0,0,-30,-95,-89,-161C855,118,796,52,709,17c0,0,-87,-34,-201,-34Z" 
id="f0_24"
transform="scale(0.001,-0.001)" />

<path d="M340,-13c0,0,-73,0,-129,20C211,7,155,27,86,74l22,217c0,0,156,-103,245,-103c0,0,64,0,112,45c0,0,47,46,47,107c0,0,0,68,-47,113c0,0,-48,46,-121,46c0,0,-85,0,-184,-42l48,495H681V777H393L382,665c0,0,163,0,251,-95c0,0,88,-95,88,-224c0,0,0,-146,-113,-253C608,93,494,-13,340,-13Z" 
id="f1_p"
transform="scale(0.001,-0.001)" />

<path d="M44,-281L425,1053H537L156,-281Z" 
id="f1_j"
transform="scale(0.001,-0.001)" />

<path d="M299,0V777H162l36,173H508V0Z" 
id="f1_l"
transform="scale(0.001,-0.001)" />

<path d="M404,-11c0,0,-136,0,-225,76c0,0,-90,78,-111,215H265c0,0,35,-136,135,-136c0,0,50,0,85,35c0,0,34,36,34,88c0,0,0,64,-41,105c0,0,-42,41,-107,41H336V573h21c0,0,68,0,109,33c0,0,41,34,41,89c0,0,0,50,-32,85c0,0,-32,35,-79,35c0,0,-110,0,-127,-135H76c0,0,9,130,96,209c0,0,87,79,208,79c0,0,134,0,227,-76c0,0,94,-75,94,-182c0,0,0,-116,-115,-210c0,0,73,-46,107,-96c0,0,34,-51,34,-121c0,0,0,-134,-88,-214c0,0,-89,-80,-235,-80Z" 
id="f1_n"
transform="scale(0.001,-0.001)" />

<path d="M0,-14L351,1007h73L75,-14Z" 
id="f2_j"
transform="scale(0.001,-0.001)" />

<path d="M67,0V109L206,235c0,0,133,118,196,190c0,0,63,72,90,149c0,0,27,77,27,177c0,0,0,97,-44,148c0,0,-44,50,-144,50c0,0,-39,0,-81,-10c0,0,-42,-11,-74,-29L150,787H101V980c0,0,135,32,230,32c0,0,164,0,247,-68c0,0,82,-69,82,-193c0,0,0,-84,-32,-158c0,0,-33,-75,-100,-148c0,0,-67,-74,-222,-206c0,0,-67,-57,-141,-125H680V0Z" 
id="f2_m"
transform="scale(0.001,-0.001)" />

<path d="M377,45c0,0,99,0,145,108c0,0,46,109,46,352c0,0,0,240,-45,345c0,0,-46,106,-146,106c0,0,-97,0,-139,-100c0,0,-43,-99,-43,-351c0,0,0,-254,44,-357c0,0,43,-103,138,-103Zm0,-59c0,0,-158,0,-238,132c0,0,-81,133,-81,386c0,0,0,249,81,380c0,0,80,132,244,132c0,0,159,0,241,-130c0,0,82,-130,82,-382c0,0,0,-518,-329,-518Z" 
id="f2_k"
transform="scale(0.001,-0.001)" />

<path d="M134,0V40L339,60V876L137,804v39l292,166h39V60L672,40V0Z" 
id="f2_l"
transform="scale(0.001,-0.001)" />

<path d="M31,0V33L150,52v956L31,1026v34H274V52L394,33V0Z" 
id="f2_28"
transform="scale(0.001,-0.001)" />

<path d="M377,45c0,0,99,0,147,73c0,0,47,73,47,237c0,0,0,161,-47,233c0,0,-47,72,-147,72c0,0,-97,0,-141,-69c0,0,-44,-69,-44,-236c0,0,0,-169,45,-240c0,0,44,-70,140,-70Zm0,-59c0,0,-158,0,-238,94c0,0,-81,95,-81,274c0,0,0,178,81,272c0,0,80,94,244,94c0,0,160,0,241,-92c0,0,82,-92,82,-274c0,0,0,-368,-329,-368Z" 
id="f2_2b"
transform="scale(0.001,-0.001)" />

<path d="M359,-270c0,0,124,0,192,46c0,0,67,47,67,129c0,0,0,43,-26,67c0,0,-26,24,-79,24H242c0,0,-32,-27,-51,-69c0,0,-20,-41,-20,-77c0,0,0,-64,46,-92c0,0,46,-28,142,-28Zm11,561c0,0,81,0,115,47c0,0,34,47,34,141c0,0,0,100,-35,142c0,0,-35,42,-113,42c0,0,-78,0,-114,-43c0,0,-37,-42,-37,-141c0,0,0,-98,36,-143c0,0,36,-45,114,-45ZM359,-329c0,0,-143,0,-218,44c0,0,-75,43,-75,125c0,0,0,39,27,78c0,0,26,38,98,89c0,0,-43,14,-72,48c0,0,-29,35,-29,74L208,262c0,0,-118,55,-118,217c0,0,0,115,73,178c0,0,73,63,211,63c0,0,28,0,71,-6c0,0,44,-6,67,-13l165,83l26,-32L599,644c0,0,50,-56,50,-165c0,0,0,-120,-72,-182c0,0,-73,-62,-208,-62c0,0,-62,0,-114,11L208,148c0,0,2,-13,29,-24c0,0,27,-12,67,-12H512c0,0,113,0,168,-49c0,0,55,-49,55,-134c0,0,0,-79,-44,-137c0,0,-43,-58,-128,-90c0,0,-84,-31,-204,-31Z" 
id="f2_23"
transform="scale(0.001,-0.001)" />

<path d="M278,-14c0,0,-52,0,-115,11c0,0,-63,10,-99,23V193H98L134,95c0,0,56,-50,146,-50c0,0,144,0,144,123c0,0,0,91,-114,130l-66,21c0,0,-75,25,-110,50c0,0,-34,26,-53,63c0,0,-18,36,-18,89c0,0,0,92,63,145c0,0,63,54,170,54c0,0,77,0,193,-23V544H454l-32,81c0,0,-39,35,-124,35c0,0,-61,0,-92,-30c0,0,-32,-30,-32,-80c0,0,0,-43,29,-72c0,0,28,-29,86,-48c0,0,110,-38,144,-55c0,0,33,-17,57,-42c0,0,23,-25,36,-57c0,0,13,-32,13,-79c0,0,0,-104,-66,-158c0,0,-66,-53,-195,-53Z" 
id="f2_2f"
transform="scale(0.001,-0.001)" />

<path d="M495,413c0,0,0,133,-34,190c0,0,-34,57,-105,57c0,0,-78,0,-119,-63c0,0,-42,-62,-42,-184ZM374,-14c0,0,-163,0,-239,87c0,0,-75,88,-75,283c0,0,0,183,77,273c0,0,76,91,219,91c0,0,269,0,269,-306V353H194V340c0,0,0,-103,23,-160c0,0,22,-57,70,-87c0,0,47,-29,124,-29c0,0,40,0,96,6c0,0,55,7,91,15V43C598,43,562,20,500,3c0,0,-61,-17,-126,-17Z" 
id="f2_21"
transform="scale(0.001,-0.001)" />

<path d="M399,-14c0,0,-341,0,-341,370c0,0,0,175,87,269c0,0,87,95,249,95c0,0,101,0,220,-23V501H573L541,625c0,0,-62,35,-149,35c0,0,-200,0,-200,-304c0,0,0,-158,61,-225c0,0,61,-67,189,-67c0,0,109,0,189,24V43C631,43,595,16,530,1c0,0,-64,-15,-131,-15Z" 
id="f2_1z"
transform="scale(0.001,-0.001)" />

<path d="M249,-14c0,0,-71,0,-107,42c0,0,-35,42,-35,119V639H15v33l93,29l76,159h47V701H391V639H231V161c0,0,0,-48,22,-73c0,0,22,-24,57,-24c0,0,44,0,106,12V26C416,26,389,8,340,-2c0,0,-49,-12,-91,-12Z" 
id="f2_2g"
transform="scale(0.001,-0.001)" />

<path d="M284,67c0,0,51,0,88,12c0,0,37,12,74,30V358l-98,-3c0,0,-100,-4,-135,-39c0,0,-35,-35,-35,-117c0,0,0,-132,106,-132ZM233,-14c0,0,-179,0,-179,208c0,0,0,70,27,116c0,0,27,46,87,70c0,0,60,24,173,27l105,3V519c0,0,0,72,-26,107c0,0,-27,34,-82,34c0,0,-75,0,-137,-35L176,538H134V691c0,0,121,26,213,26c0,0,115,0,169,-47c0,0,54,-47,54,-144V52L657,33V0H465L451,70c0,0,-85,-84,-218,-84Z" 
id="f2_1x"
transform="scale(0.001,-0.001)" />

<path d="M439,0V33l93,19V500c0,0,0,62,-30,97c0,0,-31,36,-94,36c0,0,-67,0,-165,-22V52L338,33V0H35V33l84,19V649L35,668v33H235l7,-57c0,0,57,33,122,54c0,0,65,22,108,22c0,0,91,0,137,-53c0,0,47,-53,47,-154V52L741,33V0Z" 
id="f2_2a"
transform="scale(0.001,-0.001)" />

<path d="M476,327V830h-4L114,327ZM476,0V220H30v99l488,686h86V327H740V220H604V0Z" 
id="f2_o"
transform="scale(0.001,-0.001)" />

<path d="M-6,0c0,0,-12,10,-12,32c0,0,0,21,23,51c0,0,23,31,79,82L287,354L159,649L79,668l6,33H270L378,434l93,88c0,0,47,46,67,72c0,0,19,26,19,44c0,0,0,8,-6,13c0,0,-7,6,-38,17l6,33H651c0,0,16,-12,16,-32c0,0,0,-44,-103,-142L404,377L548,49L634,33L628,0H437L313,298L185,176c0,0,-41,-40,-60,-65c0,0,-19,-26,-19,-48c0,0,0,-21,31,-29L131,0Z" 
id="f3_2k"
transform="scale(0.001,-0.001)" />

<path d="M140,-21c0,0,-26,0,-44,17C96,-4,79,13,79,40c0,0,0,19,6,33c0,0,8,20,34,55c0,0,46,60,64,126c0,0,32,114,41,321H190c0,0,-55,0,-81,-18c0,0,-44,-26,-80,-89H0c0,0,42,129,98,178c0,0,43,37,120,37H743V575H562c0,0,-27,-171,-27,-327c0,0,0,-77,27,-110c0,0,27,-33,67,-33c0,0,33,0,56,22c0,0,24,22,31,65h27C743,192,730,74,686,26c0,0,-44,-47,-98,-47c0,0,-58,0,-97,51c0,0,-39,53,-39,198c0,0,0,91,28,347H286c0,0,-23,-390,-56,-494c0,0,-33,-102,-90,-102Z" 
id="f4_2c"
transform="scale(0.001,-0.001)" />

<path d="M0,-123V1415H525v-72H72V-123Z" 
id="f4_4r"
transform="scale(0.001,-0.001)" />

<path d="M478,-123V1343H26v72H550V-123Z" 
id="f4_57"
transform="scale(0.001,-0.001)" />

<path d="M62,-123V268c0,0,0,230,56,452c0,0,47,190,134,334c0,0,87,144,204,242c0,0,85,73,194,119l18,-16c0,0,-211,-145,-335,-339c0,0,-98,-156,-149,-374c0,0,-50,-218,-50,-403V-123Z" 
id="f4_4o"
transform="scale(0.001,-0.001)" />

<path d="M617,-123V283c0,0,0,236,-63,459c0,0,-63,223,-188,392c0,0,-108,146,-282,265l17,16c0,0,180,-76,320,-248c0,0,139,-172,204,-417c0,0,64,-245,64,-482V-123Z" 
id="f4_54"
transform="scale(0.001,-0.001)" />

<path d="M0,214v74H784V214ZM0,494v72H784V494Z" 
id="f4_x"
transform="scale(0.001,-0.001)" />

<path d="M0,356v74H784V356Z" 
id="f4_h"
transform="scale(0.001,-0.001)" />

<path d="M355,0V355H0v72H355V784h72V427H782V355H427V0Z" 
id="f4_f"
transform="scale(0.001,-0.001)" />

<path d="M0,-123V1415H72V-123Z" 
id="f4_4s"
transform="scale(0.001,-0.001)" />

<path d="M0,-123V1415H72V-123Z" 
id="f4_58"
transform="scale(0.001,-0.001)" />

<path d="M62,-123V1415h72V-123Z" 
id="f4_4p"
transform="scale(0.001,-0.001)" />

<path d="M617,-123V1415h72V-123Z" 
id="f4_55"
transform="scale(0.001,-0.001)" />

<path d="M650,-123c0,0,-180,75,-319,246c0,0,-140,172,-205,418c0,0,-64,245,-64,481v393h72V1007c0,0,0,-236,63,-459c0,0,63,-223,189,-391c0,0,108,-145,282,-265l-18,-15Z" 
id="f4_4q"
transform="scale(0.001,-0.001)" />

<path d="M101,-123l-17,15c0,0,210,144,334,339c0,0,99,156,149,373c0,0,50,218,50,403v408h72V1022c0,0,0,-230,-56,-451c0,0,-48,-191,-134,-335C499,236,412,92,295,-5c0,0,-84,-73,-194,-118Z" 
id="f4_56"
transform="scale(0.001,-0.001)" />

<path d="M0,-123V1415H72V-51H525v-72Z" 
id="f4_4t"
transform="scale(0.001,-0.001)" />

<path d="M26,-123v72H478V1415h72V-123Z" 
id="f4_59"
transform="scale(0.001,-0.001)" />

<path d="M31,0V33l88,19V649L31,668v33H235l7,-87c0,0,44,37,121,71c0,0,76,35,121,35h11V530H463l-43,82c0,0,-37,0,-88,-10c0,0,-52,-10,-89,-26V52L363,33V0Z" 
id="f2_2e"
transform="scale(0.001,-0.001)" />

<path d="M115,-329V1060h76V-329Z" 
id="f2_2o"
transform="scale(0.001,-0.001)" />

<path d="M595,60c0,0,141,0,206,102c0,0,65,102,65,340c0,0,0,236,-65,335c0,0,-65,100,-206,100c0,0,-142,0,-207,-100c0,0,-66,-99,-66,-335c0,0,0,-239,66,-340c0,0,65,-102,207,-102Zm0,-74c0,0,-253,0,-387,130C208,116,75,246,75,501c0,0,0,510,520,510c0,0,256,0,387,-129c0,0,132,-130,132,-381c0,0,0,-254,-133,-385C981,116,848,-14,595,-14Z" 
id="f5_1f"
transform="scale(0.001,-0.001)" />

<path d="M498,506c0,0,115,0,164,47c0,0,48,48,48,166c0,0,0,112,-46,156c0,0,-46,43,-169,43H390V506ZM793,0L514,423H390V74L518,54V0H36V54L154,74V926L26,945v55H504c0,0,221,0,330,-68c0,0,109,-68,109,-212c0,0,0,-215,-201,-276L1009,74L1117,54V0Z" 
id="f5_1i"
transform="scale(0.001,-0.001)" />

<path d="M460,-325c0,0,-148,79,-231,172c0,0,-84,93,-123,217c0,0,-39,126,-39,304c0,0,0,178,39,303c0,0,39,125,122,217c0,0,82,93,232,172V997c0,0,-91,-52,-145,-134c0,0,-54,-81,-79,-190c0,0,-25,-109,-25,-305c0,0,0,-194,26,-309c0,0,26,-114,82,-193c0,0,56,-79,141,-128v-63Z" 
id="f2_c"
transform="scale(0.001,-0.001)" />

<path d="M49,-325v63c0,0,85,49,140,128c0,0,56,79,83,194c0,0,26,115,26,308c0,0,0,196,-25,305c0,0,-25,109,-79,190c0,0,-54,82,-145,134v63c0,0,149,-80,232,-172c0,0,83,-92,122,-217c0,0,39,-125,39,-303c0,0,0,-177,-39,-303c0,0,-39,-125,-122,-217c0,0,-83,-93,-232,-173Z" 
id="f2_d"
transform="scale(0.001,-0.001)" />

<path d="M-5,0L0,40L131,60L286,941L162,960l6,40H568l-6,-40L430,941L275,60L399,40L393,0Z" 
id="f3_19"
transform="scale(0.001,-0.001)" />

<path d="M301,78c0,0,41,0,90,27c0,0,49,28,95,77l81,442c0,0,-26,18,-54,27c0,0,-27,10,-67,10c0,0,-70,0,-131,-55c0,0,-61,-55,-99,-152c0,0,-37,-97,-37,-201c0,0,0,-79,33,-127c0,0,33,-48,89,-48ZM245,-14c0,0,-91,0,-145,68c0,0,-54,69,-54,183c0,0,0,128,55,240c0,0,55,112,150,177c0,0,96,66,210,66c0,0,70,0,123,-18c0,0,3,36,51,306l-115,18l6,34H768L589,52L673,33L667,0H454l22,117C476,117,350,-14,245,-14Z" 
id="f3_20"
transform="scale(0.001,-0.001)" />

<path d="M88,-163c0,0,-39,0,-63,25c0,0,-25,26,-25,65c0,0,0,34,19,54c0,0,19,19,48,19c0,0,30,0,51,-23c0,0,22,-24,37,-24c0,0,12,0,21,11c0,0,8,10,8,35c0,0,0,30,-7,88c0,0,-27,235,-27,620c0,0,13,411,17,446c0,0,17,139,60,188c0,0,43,48,98,48c0,0,37,0,65,-25c0,0,28,-25,28,-54c0,0,0,-35,-19,-57c0,0,-20,-21,-49,-21c0,0,-26,0,-57,27c0,0,-17,15,-30,15c0,0,-12,0,-21,-11c0,0,-8,-11,-8,-37c0,0,0,-31,6,-108c0,0,28,-306,28,-496c0,0,0,-50,-12,-439c0,0,-6,-219,-67,-296c0,0,-41,-50,-101,-50Z" 
id="f4_50"
transform="scale(0.001,-0.001)" />

<path d="M191,-20c0,0,-39,0,-65,25c0,0,-25,27,-25,64c0,0,0,38,26,64c0,0,26,26,64,26c0,0,38,0,64,-26c0,0,26,-26,26,-64c0,0,0,-37,-25,-64c0,0,-26,-25,-65,-25Z" 
id="f2_i"
transform="scale(0.001,-0.001)" />

<path d="M122,0V64L295,82V837L123,780v64l282,165H511V82L685,64V0Z" 
id="f5_l"
transform="scale(0.001,-0.001)" />

<path d="M342,-14c0,0,-138,0,-276,29L57,258h69L165,96c0,0,65,-36,136,-36c0,0,90,0,141,58c0,0,50,57,50,161c0,0,0,91,-40,139c0,0,-41,48,-132,54l-87,5v90l84,6c0,0,66,5,98,49c0,0,32,44,32,134c0,0,0,83,-38,131c0,0,-38,48,-107,48c0,0,-40,0,-66,-13c0,0,-26,-12,-49,-26L155,751H90V979c0,0,76,19,132,26c0,0,55,6,108,6c0,0,337,0,337,-246c0,0,0,-102,-54,-164c0,0,-54,-63,-153,-78c0,0,252,-30,252,-251c0,0,0,-136,-98,-211c0,0,-98,-75,-272,-75Z" 
id="f5_n"
transform="scale(0.001,-0.001)" />

<path d="M191,-20c0,0,-51,0,-88,34c0,0,-36,36,-36,88c0,0,0,52,36,88c0,0,36,36,88,36c0,0,51,0,88,-36c0,0,36,-36,36,-88c0,0,0,-51,-36,-87c0,0,-36,-35,-88,-35Z" 
id="f5_i"
transform="scale(0.001,-0.001)" />

<path d="M410,-14c0,0,-80,0,-162,14c0,0,-81,14,-144,38V270h48L178,134c0,0,28,-35,95,-62c0,0,68,-27,134,-27c0,0,104,0,163,53c0,0,58,54,58,148c0,0,0,54,-23,89c0,0,-22,35,-59,59c0,0,-37,24,-84,41c0,0,-47,17,-97,34c0,0,-49,17,-96,38c0,0,-47,21,-84,53c0,0,-37,32,-60,79c0,0,-23,48,-23,117c0,0,0,119,90,187c0,0,89,68,248,68c0,0,121,0,263,-32V771H654L628,893c0,0,-76,55,-188,55c0,0,-100,0,-156,-40c0,0,-56,-41,-56,-112c0,0,0,-49,22,-81c0,0,23,-32,60,-55c0,0,37,-22,84,-39c0,0,48,-16,97,-34c0,0,50,-17,97,-39c0,0,48,-22,85,-56c0,0,36,-34,59,-83c0,0,23,-49,23,-120c0,0,0,-145,-89,-224c0,0,-89,-79,-256,-79Z" 
id="f2_1j"
transform="scale(0.001,-0.001)" />

<path d="M360,-14L72,649L0,668v33H327V668L216,648L420,164L615,649L504,668v33H764V668L697,652L416,-14Z" 
id="f2_2i"
transform="scale(0.001,-0.001)" />

<path d="M442,0V33l93,19V504c0,0,0,129,-124,129c0,0,-70,0,-168,-22V52L338,33V0H31V33l88,19v956L15,1026v34H243V756c0,0,0,-77,-5,-112c0,0,54,31,122,53c0,0,68,23,115,23c0,0,91,0,137,-53c0,0,47,-53,47,-154V52L744,33V0Z" 
id="f2_24"
transform="scale(0.001,-0.001)" />

<path d="M383,64c0,0,85,0,152,28V645c0,0,-67,13,-152,13c0,0,-194,0,-194,-314c0,0,0,-141,48,-211c0,0,48,-69,146,-69ZM342,-14c0,0,-287,0,-287,358c0,0,0,184,82,280c0,0,81,96,239,96c0,0,81,0,163,-18c0,0,-4,25,-4,124v182l-118,18v34H659V52L745,33V0H548l-9,52c0,0,-84,-66,-197,-66Z" 
id="f2_20"
transform="scale(0.001,-0.001)" />

<path d="M32,0V33L151,52V649L52,668v33H275V52L395,33V0ZM201,850c0,0,-32,0,-56,24c0,0,-24,24,-24,56c0,0,0,34,24,58c0,0,24,24,56,24c0,0,34,0,58,-24c0,0,24,-24,24,-58c0,0,0,-32,-24,-56c0,0,-24,-24,-58,-24Z" 
id="f2_25"
transform="scale(0.001,-0.001)" />

<path d="M64,0V34L168,59V639H47v36l121,29v49c0,0,0,155,61,239c0,0,62,84,173,84c0,0,58,0,107,-15V908H472l-33,92c0,0,-26,16,-62,16c0,0,-47,0,-66,-42c0,0,-19,-42,-19,-157V701H478V639H292V59L443,34V0Z" 
id="f2_22"
transform="scale(0.001,-0.001)" />

<path d="M383,64c0,0,44,0,87,7c0,0,43,7,65,17V645c0,0,-67,13,-152,13c0,0,-194,0,-194,-309c0,0,0,-143,48,-214c0,0,47,-71,146,-71Zm56,-389v35l96,18V-77c0,0,0,73,7,124c0,0,-79,-61,-200,-61c0,0,-287,0,-287,362c0,0,0,180,81,276c0,0,81,96,237,96c0,0,84,0,166,-18l67,33h53V-272l77,-18v-35Z" 
id="f2_2d"
transform="scale(0.001,-0.001)" />

<path d="M289,-14c0,0,-179,0,-179,205V649L20,668v33H233V200c0,0,0,-128,120,-128c0,0,92,0,173,23V649L420,668v33H649V52L738,33V0H533l-6,57C527,57,474,28,405,7c0,0,-69,-21,-116,-21Z" 
id="f2_2h"
transform="scale(0.001,-0.001)" />

<path d="M211,-20c0,0,-39,0,-64,25c0,0,-26,27,-26,64c0,0,0,38,26,64c0,0,26,26,64,26c0,0,37,0,64,-25c0,0,26,-26,26,-65c0,0,0,-37,-26,-64c0,0,-26,-25,-64,-25Zm0,556c0,0,-38,0,-64,26c0,0,-26,26,-26,64c0,0,0,37,26,64c0,0,25,27,64,27c0,0,38,0,64,-27c0,0,26,-27,26,-64c0,0,0,-38,-26,-64c0,0,-27,-26,-64,-26Z" 
id="f2_u"
transform="scale(0.001,-0.001)" />

<path d="M350,-14c0,0,-142,0,-269,31L73,228h49L156,87c0,0,29,-16,82,-28c0,0,54,-12,100,-12c0,0,117,0,173,54c0,0,56,53,56,178c0,0,0,99,-52,150c0,0,-51,51,-159,56l-107,6v61l107,7c0,0,84,5,124,52c0,0,41,48,41,145c0,0,0,101,-44,147c0,0,-44,45,-139,45c0,0,-40,0,-83,-10c0,0,-43,-11,-76,-29L153,786H104V979c0,0,74,19,127,26c0,0,54,6,107,6c0,0,321,0,321,-246c0,0,0,-104,-57,-165c0,0,-57,-62,-162,-77c0,0,136,-16,200,-78c0,0,64,-62,64,-173c0,0,0,-135,-92,-211c0,0,-93,-75,-262,-75Z" 
id="f2_n"
transform="scale(0.001,-0.001)" />

<path d="M-15,-329c0,0,-61,0,-112,13l28,152h34l12,-72c0,0,18,-17,60,-17c0,0,100,0,212,202L253,9L116,649L33,668l6,33H230L338,155L513,458c0,0,48,83,48,144c0,0,0,27,-16,44c0,0,-15,16,-33,22l6,33H659c0,0,20,-17,20,-47c0,0,0,-59,-62,-164L322,-7c0,0,-86,-145,-135,-205c0,0,-50,-61,-98,-89c0,0,-49,-28,-104,-28Z" 
id="f3_2l"
transform="scale(0.001,-0.001)" />

<path d="M188,355c0,0,148,11,236,69c0,0,89,58,89,143c0,0,0,41,-23,68c0,0,-22,27,-66,27c0,0,-52,0,-101,-43c0,0,-49,-42,-85,-114c0,0,-36,-71,-50,-150ZM298,-14c0,0,-120,0,-186,67c0,0,-65,67,-65,193c0,0,0,125,53,232c0,0,52,108,145,175c0,0,94,67,196,67c0,0,92,0,147,-42c0,0,56,-43,56,-111c0,0,0,-102,-126,-173c0,0,-125,-72,-336,-86l-3,-54c0,0,0,-95,40,-143c0,0,40,-47,118,-47c0,0,67,0,124,22c0,0,57,23,106,52l22,-32c0,0,-69,-58,-146,-89c0,0,-76,-31,-145,-31Z" 
id="f3_21"
transform="scale(0.001,-0.001)" />

<path d="M410,-14c0,0,-86,0,-175,14C235,0,145,14,81,38V307h66L181,146c0,0,31,-37,94,-62c0,0,64,-24,132,-24c0,0,214,0,214,177c0,0,0,55,-41,93c0,0,-41,38,-128,68c0,0,-128,42,-185,68c0,0,-56,27,-95,63c0,0,-38,36,-62,87c0,0,-23,51,-23,125c0,0,0,132,90,201c0,0,90,69,263,69c0,0,125,0,278,-32V741H651L618,878c0,0,-76,56,-178,56c0,0,-92,0,-141,-34c0,0,-49,-34,-49,-104c0,0,0,-50,41,-86c0,0,41,-35,128,-63c0,0,171,-56,235,-97c0,0,64,-41,97,-103c0,0,34,-61,34,-143c0,0,0,-318,-375,-318Z" 
id="f5_1j"
transform="scale(0.001,-0.001)" />

<path d="M379,60c0,0,59,0,84,64c0,0,24,65,24,231c0,0,0,164,-24,227c0,0,-24,63,-84,63c0,0,-57,0,-80,-60c0,0,-22,-61,-22,-230c0,0,0,-173,23,-234c0,0,22,-61,79,-61Zm-2,-74c0,0,-161,0,-240,91c0,0,-79,91,-79,277c0,0,0,186,80,276c0,0,81,90,245,90c0,0,167,0,245,-93c0,0,78,-93,78,-273c0,0,0,-188,-81,-278c0,0,-81,-90,-248,-90Z" 
id="f5_2b"
transform="scale(0.001,-0.001)" />

<path d="M30,0V49l76,18V992l-72,18v50H322V67L398,49V0Z" 
id="f5_28"
transform="scale(0.001,-0.001)" />

<path d="M287,-18c0,0,-194,0,-194,206V634L23,652v49H309V217c0,0,0,-63,26,-98c0,0,27,-35,76,-35c0,0,57,0,113,25V634l-64,18v49H740V67L809,49V0H536L526,61L475,35c0,0,-104,-53,-188,-53Z" 
id="f5_2h"
transform="scale(0.001,-0.001)" />

<path d="M327,-14c0,0,-101,0,-156,45c0,0,-55,45,-55,131V624H25v48l108,29l87,159H332V701H480V624H332V176c0,0,0,-49,20,-73c0,0,20,-25,53,-25c0,0,40,0,97,12V26c0,0,-22,-15,-76,-27c0,0,-55,-13,-99,-13Z" 
id="f5_2g"
transform="scale(0.001,-0.001)" />

<path d="M34,0V49l76,18V634L38,652v49H325V67L402,49V0ZM217,831c0,0,-48,0,-81,33c0,0,-34,33,-34,82c0,0,0,48,34,81c0,0,34,33,81,33c0,0,48,0,81,-33c0,0,33,-33,33,-81c0,0,0,-47,-33,-81c0,0,-32,-34,-81,-34Z" 
id="f5_25"
transform="scale(0.001,-0.001)" />

<path d="M41,0V49l69,18V634L41,652v49H313l11,-61l50,26c0,0,105,54,188,54c0,0,194,0,194,-207V67L827,49V0H478V49l63,18V484c0,0,0,63,-27,98c0,0,-26,35,-75,35c0,0,-57,0,-114,-25V67L389,49V0Z" 
id="f5_2a"
transform="scale(0.001,-0.001)" />

<path d="M248,-20c0,0,-52,0,-87,34c0,0,-36,36,-36,88c0,0,0,52,36,88c0,0,35,36,87,36c0,0,52,0,88,-36c0,0,36,-36,36,-88c0,0,0,-51,-36,-87c0,0,-35,-35,-88,-35Zm0,488c0,0,-52,0,-87,36c0,0,-36,36,-36,88c0,0,0,52,35,88c0,0,35,36,88,36c0,0,53,0,89,-36c0,0,35,-37,35,-88c0,0,0,-51,-36,-87c0,0,-35,-37,-88,-37Z" 
id="f5_u"
transform="scale(0.001,-0.001)" />

<path d="M235,0V40L394,60V936H356c0,0,-189,0,-258,-15L78,766H28v234H908V766H857L837,921c0,0,-22,5,-98,9c0,0,-75,4,-165,4H538V60L697,40V0Z" 
id="f2_1k"
transform="scale(0.001,-0.001)" />

<path d="M376,50c0,0,103,0,149,80c0,0,46,81,46,240c0,0,0,137,-47,204c0,0,-48,67,-148,67c0,0,-44,0,-87,-7c0,0,-44,-8,-63,-17V62c0,0,63,-12,150,-12Zm3,-64c0,0,-64,0,-141,14c0,0,-78,14,-136,37v971L0,1026v34H226V809c0,0,0,-40,-4,-148c0,0,74,59,188,59c0,0,143,0,219,-87c0,0,77,-87,77,-263c0,0,0,-189,-84,-287c0,0,-84,-97,-243,-97Z" 
id="f2_1y"
transform="scale(0.001,-0.001)" />

<path d="M327,-14L84,649L1,668v33H335V668L219,648L385,174L554,632h63L786,171L944,649L830,668v33h267V668l-78,-16L784,-14H726L553,448L382,-14Z" 
id="f2_2j"
transform="scale(0.001,-0.001)" />

<path d="M44,0V40L172,60V941L44,960v40H445V960L316,941V549H787V941L659,960v40h400V960L930,941V60L1059,40V0H659V40L787,60V481H316V60L445,40V0Z" 
id="f2_18"
transform="scale(0.001,-0.001)" />

<path d="M58,-234v58c0,0,131,42,131,125c0,0,0,15,-11,27c0,0,-11,12,-38,25C140,1,89,27,89,75c0,0,0,40,25,61c0,0,26,21,65,21c0,0,48,0,77,-34c0,0,30,-34,30,-86c0,0,0,-101,-60,-170c0,0,-59,-69,-168,-101Z" 
id="f2_g"
transform="scale(0.001,-0.001)" />

<path d="M76,316v76H787V316Zm0,306v76H787V622Z" 
id="f2_x"
transform="scale(0.001,-0.001)" />

<path d="M83,0C83,0,48,0,24,24C24,24,0,49,0,83c0,0,0,34,24,58c0,0,24,24,59,24c0,0,34,0,58,-24c0,0,24,-24,24,-58c0,0,0,-34,-24,-59C141,24,117,0,83,0ZM695,0c0,0,-34,0,-58,24c0,0,-25,25,-25,59c0,0,0,34,25,58c0,0,24,24,58,24c0,0,34,0,58,-24c0,0,24,-24,24,-58c0,0,0,-34,-24,-59C753,24,729,0,695,0ZM388,594c0,0,-34,0,-59,23c0,0,-24,24,-24,59c0,0,0,34,24,58c0,0,25,25,59,25c0,0,34,0,58,-25c0,0,24,-24,24,-58c0,0,0,-35,-24,-59c0,0,-24,-23,-58,-23Z" 
id="f4_1s"
transform="scale(0.001,-0.001)" />

<path d="M370,468c0,0,96,0,194,40c0,0,0,229,-45,336c0,0,-45,107,-146,107c0,0,-187,0,-187,-259c0,0,0,-115,45,-169c0,0,45,-55,139,-55ZM312,-14c0,0,-122,0,-223,25V184h48L163,76c0,0,24,-11,65,-20c0,0,40,-9,81,-9c0,0,119,0,183,105c0,0,65,104,71,307c0,0,-113,-62,-230,-62c0,0,-132,0,-208,79c0,0,-76,78,-76,219c0,0,0,151,85,233c0,0,84,83,237,83c0,0,171,0,251,-123c0,0,79,-123,79,-385c0,0,0,-252,-102,-385C599,118,497,-14,312,-14Z" 
id="f2_t"
transform="scale(0.001,-0.001)" />

<path d="M521,-14c0,0,-205,0,-320,107C201,93,85,200,85,390c0,0,0,185,77,326c0,0,77,142,220,219c0,0,142,76,324,76c0,0,158,0,327,-38L1000,755H951V884c0,0,-46,32,-112,50c0,0,-65,17,-137,17c0,0,-135,0,-242,-72c0,0,-107,-72,-166,-203c0,0,-60,-132,-60,-301c0,0,0,-160,78,-244c0,0,78,-84,222,-84c0,0,85,0,166,25c0,0,82,26,133,65l53,149h49L889,52C889,52,803,20,705,3c0,0,-99,-17,-184,-17Z" 
id="f3_13"
transform="scale(0.001,-0.001)" />

<path d="M435,350V646c0,0,0,84,7,158L145,350ZM435,0V198H21V319l450,686H636V350H736V198H636V0Z" 
id="f5_o"
transform="scale(0.001,-0.001)" />

<path d="M54,0V40L172,60V941L44,960v40H794V760H745L721,922c0,0,-83,11,-241,11H316V516H611l23,120h46V328H634L611,449H316V60L483,40V0Z" 
id="f2_16"
transform="scale(0.001,-0.001)" />

<path d="M431,0V33L535,52V499c0,0,0,62,-32,96c0,0,-32,33,-95,33c0,0,-66,0,-163,-22V52L350,33V0H32V33l89,19V649L32,668v33H237l6,-57c0,0,56,32,119,54c0,0,62,22,110,22c0,0,52,0,95,-20c0,0,44,-19,66,-62c0,0,57,32,134,57c0,0,77,25,128,25c0,0,179,0,179,-207V52l90,-19V0H846V33L950,52V499c0,0,0,129,-119,129c0,0,-19,0,-45,-3c0,0,-26,-3,-52,-7c0,0,-25,-4,-49,-8c0,0,-23,-5,-39,-8c0,0,13,-41,13,-89V52L764,33V0Z" 
id="f2_29"
transform="scale(0.001,-0.001)" />


</defs>
</svg>