<?xml version="1.0" encoding="UTF-8" standalone="no"?>
<!DOCTYPE svg PUBLIC "-//W3C//DTD SVG 1.1//EN"
"http://www.w3.org/Graphics/SVG/1.1/DTD/svg11.dtd">
<svg viewBox="0 0 909 1286" version="1.1" xmlns="http://www.w3.org/2000/svg" xmlns:xlink="http://www.w3.org/1999/xlink">
<defs>
<clipPath id="c0_9"><path d="M523.4,112.1V92.2h8.1v19.9Z" /></clipPath>
<clipPath id="c1_9"><path d="M202,489.4v-33h5.5v33Z" /></clipPath>
<clipPath id="c2_9"><path d="M338.8,797.6V776.5h15v21.1Z" /></clipPath>
<clipPath id="c3_9"><path d="M256.3,933.8v-21H277v21Z" /></clipPath>
<clipPath id="c4_9"><path d="M160.6,989V967.9H277V989Z" /></clipPath>
<clipPath id="c5_9"><path d="M286,1037.4v-20.9h19.6v20.9Z" /></clipPath>
<clipPath id="c6_9"><path d="M198.9,1092.6v-20.9H305.6v20.9Z" /></clipPath>
<clipPath id="c7_9"><path d="M156.4,1175.1V1154H301v21.1Z" /></clipPath>
<style type="text/css"><![CDATA[
.g0_9{
fill: none;
stroke: #FFFFFF;
stroke-width: 0.77000004;
stroke-linecap: round;
stroke-linejoin: round;
}
.g1_9{
fill: none;
stroke: #FFFFFF;
stroke-width: 0.5133334;
stroke-linecap: round;
stroke-linejoin: round;
}
.g2_9{
fill: #FFFFFF;
}
.g3_9{
fill: none;
stroke: #000000;
stroke-width: 0.18333334;
stroke-linecap: butt;
stroke-linejoin: miter;
stroke-miterlimit: 2;
}
.g4_9{
}
.g5_9{
fill: none;
stroke: #000000;
stroke-width: 1.5338888;
stroke-linecap: round;
stroke-linejoin: round;
}
.g6_9{
fill: none;
stroke: #000000;
stroke-width: 0.9029167;
stroke-linecap: round;
stroke-linejoin: round;
}
.g7_9{
fill: none;
stroke: #000000;
stroke-width: 0.8998611;
stroke-linecap: round;
stroke-linejoin: round;
}
.g8_9{
fill: none;
stroke: #000000;
stroke-width: 0.9090278;
stroke-linecap: round;
stroke-linejoin: round;
}
.g9_9{
fill: none;
stroke: #000000;
stroke-width: 0.9105556;
stroke-linecap: round;
stroke-linejoin: round;
}
.g10_9{
fill: none;
stroke: #000000;
stroke-width: 0.9075001;
stroke-linecap: round;
stroke-linejoin: round;
}
]]></style>
</defs>
<path d="M512.4,487l6.2,9.8l5.4,8.4l4.1,8.8l2,8.4l1.1,7.7l1.3,6.7l-1.3,6.7l-2.1,6.7l-2,4.8l-3.1,5.7l-3.1,4.9l-3.3,3.8l-7.2,6.7l-6.5,4.6l-11.5,6.9l-10.3,6.7L470.6,600L459,606.6l-6.4,3.9l-6.2,4.9L441,620l-5.1,5.9l-4.1,6.7l-3.4,7.4l-1,9.7l-1,10.6l-6.2,-10.6l-5.4,-10.5l-3.1,-10.5l-1,-10.5v-4.9l1,-4.9l1.1,-4.6l2,-3.8l2.1,-4.9l3.3,-3.9l3.1,-3.6l4.1,-3.8l17,-11.6L461,562.7L475.7,554l13.6,-7.7l6.4,-4.6l5.2,-6.7l4.1,-6.7l3.3,-7.7l2.1,-8.7l2,-7.7V487m30.3,38.3l7.5,9.7l5.1,9.5l4.4,9.5l2,7.7l1.1,8.5l1,6.9l-1,7.5l-2.1,5.9l-2,5.6l-3.4,5.7l-3.1,4.8l-3,4.9l-7.5,6.7l-7.2,4.6L524,629.5l-8.5,5.9L505,642l-14.7,8.5l-8.2,5.9l-7.4,5.7l-6.2,6.6l-6.4,7.7l-4.1,6.7l-4.4,7.7l-3.1,7.7l-2,6.7l-3.1,-12.6l-2.1,-11.3L441,669.8V659.2l1.1,-8.7l2.3,-8.5l3,-4.8l2.1,-3.9l4.1,-3.8l4.4,-3.6l16.7,-12.6l16.7,-9.5L506,595.1l14.9,-8.5l6.2,-4.9l5.4,-6.6l4.1,-6.7l4.1,-7.7l2,-7.7l2.3,-8.5V535l-2.3,-9.7" class="g0_9" />
<path d="M454.6,618.9l4.4,3.9l3.1,3.8l2,3.9l2.1,4.9l2.3,5.6l1,5.7l1.1,5.9v7.7l5.1,-8.8l4.1,-7.7l3.3,-7.7l2.1,-7.4l1,-7.7v-6.7l-1,-7.7L483.1,600l-28.5,18.9" class="g1_9" />
<path fill-rule="evenodd" d="M279.7,577.9L310,574l1.1,9.8v9.5l-1.1,1l-1,1.8l-2,1.8h-2.1l-2.1,1h-3.3l-2,-1l-2.1,-1.8l-2.1,-2.8l-11.5,9.5l-1,-9.5l11.5,-8.7l-11.5,1l-1.1,-7.7Zm16.7,5.9v1.8l1.1,2l1,1.8l1,1.1h3.3l1.1,-1.1l1,-1.8v-4.8l-8.5,1Zm2.1,36.2l2,8.7L310,622l1.1,-1h1l1,-1H298.5Zm-14.7,-7.7l32.7,1l3,10.5l-26.2,20l-2,-8.4l4.1,-2.8L292.3,620h-5.4l-3.1,-7.7ZM329,673.6l-2.3,.8l-3,1l-3.1,1l-3.1,-1l-3.3,-1l-3.1,-.8L309,670.8l-2,-2.1l-2.1,-3.8l-1,-2.8v-6.7l1,-2.8l2.1,-2.9l1,-3l3.1,-1.8l2,-1.8l3.4,-1.1h6.1l3.1,1.1l3.3,1.8l2.1,1.8l2.1,3l2,2.9l1,2.8v6.7l-1,3.8l-1,2.8l-2.1,2.1l-3.1,2.8Zm-16.9,-9.5l3.3,2.8l3.1,.8h3.1l3.1,-1.8l2,-2.8l2.3,-2.8v-3.9l-1,-2.8l-2.3,-2.1l-3.1,-1h-4.1l-3.1,1l-2.3,2.9l-2,2.8V661l1,3.1ZM343.7,709l18.7,-25.9l6.5,5.7l-19.1,25.9L343.7,709Zm20.8,15.2l14.9,-28.8l7.2,4.9L371.9,728l-7.4,-3.8Zm26.2,12.6l7.4,-23.1L392,710.8l3,-6.6l19.8,7.7l-2,6.6l-6.2,-2l-8.5,23.1l-7.4,-2.8Zm58.8,-1.1H458l-4.4,-10.5v-2.8l-1,-2.1v3.9l-1,1l-2.1,10.5Zm-11.6,11.6l9.5,-31.6H458l11.5,31.6H461l-2,-5.9H447.4l-1,5.9h-8.5ZM494.7,709l2.1,9.5l-2.1,-2h-5.4l-3.1,1l-2,2.8l-1.1,3.9l1.1,2.8l1,3.9l2.1,2l3,.8h3.1l2.3,-.8l1.1,-1l2,-1l1,-2.9l2.1,9.5l-1,1.1l-2.1,2l-2,.8h-2.1l-2.3,1h-4.1l-2.1,-1l-4.1,-1.8l-2.3,-2.8l-3.1,-3.1l-1,-3.6l-1,-3.9v-3l1,-3.6l1,-3.1l2.1,-2.8l2.3,-1.8l2,-1.1l3.1,-1.8h8.5Zm22.9,10.6l7.4,-4.9L517.6,707h-1.1v-1l-1,-.8l-1,-1v1l1,.8v2l2.1,11.6Zm-5.2,15.1l-4.1,-33.4l8.2,-4.8l24.2,23.8l-7.2,3.9l-4.4,-4.6l-10.5,5.6l1.3,5.7l-7.5,3.8Zm37.8,-22.1L529.1,689.8l5.4,-4.9l4.1,-4.6l3.1,-2.1l3.3,-1.8h6.2l3.1,1.1l3.1,.7l3.3,3.1l2.1,3.6l1,3.1l1,3.8v3.6l-1,2.1l-1,2.8l-3.1,2.8l-3.4,3.9l-1,1l-5.1,4.6Zm2,-11.3l1.1,-1l2,-2.8l1,-3.9v-2.8l-2,-2.8l-3.1,-3.1l-3.1,-.8l-3.1,.8l-3.3,3.1l-1,.8l11.5,12.5Zm28.3,-20L555.3,663.1l11.6,-16.4l5.4,3.8l-6.5,9.8l4.1,2.8l6.5,-8.7l5.1,3.8l-6.2,8.7l4.1,3.9l6.5,-9.8l6.1,4.9l-11.5,15.4Zm32.6,-63.1l-3.1,7.7L596.4,622h-1.3l-1,-1L592,620h-2l2,1l2.1,1.8l1,1l11.6,9.5l-2.1,4.9l-14.6,-1h-1l-3.1,-1.1h-2.1l2.1,1.1h1l2.1,1l1,1l11.5,7.5l-3,6.9L572.3,637.2l3,-7.7l16.7,1v1h4.4h-1.3l-1,-1l-1,-1l-1.1,-.8L579.4,618.2l3.1,-7.7l30.6,7.7Zm2.1,-21.1l-13.7,-2l-17.7,8.7l1,-9.5l8.3,-3.1l2,-.7h1.3l-1.3,-1.1h-1l-1,-1l-6.2,-4.6l1,-10.5l14.7,14.3l13.6,1.8l-1,7.7Z" class="g2_9" />
<g fill="#000000" >
<use xlink:href="#f0_3e" transform="matrix(11.1,0,0,11.1,353.8,107.6)" />
<use xlink:href="#f0_rz" transform="matrix(11.1,0,0,11.1,418,107.6)" />
<use xlink:href="#f0_s0" transform="matrix(11.1,0,0,11.1,470.1,107.6)" />
</g>
<g clip-path="url(#c0_9)">
<g fill="#000000" >
<use xlink:href="#f0_s1" transform="matrix(11.1,0,0,11.1,523.4,107.6)" />
</g>
</g>
<g fill="#000000" >
<use xlink:href="#f0_s2" transform="matrix(11.1,0,0,11.1,575.5,107.6)" />
</g>
<path d="M320.2,90.7h74.9m0,0h1.5M396.6,90.7h52M448.6,90.7h52M500.6,90.7h51.9m0,0h1.6M554.1,90.7h52M320.2,90.7v21.6" class="g3_9" />
<path d="M395.1,112.3h1.4V90.7h-1.4v21.6Z" class="g4_9" />
<path d="M395.1,90.7v21.6M448.6,90.7v21.6m52,-21.6v21.6" class="g3_9" />
<path d="M552.6,112.3H554V90.7h-1.4v21.6Z" class="g4_9" />
<path d="M552.5,90.7v21.6M606.1,90.7v21.6" class="g3_9" />
<g fill="#000000" >
<use xlink:href="#f1_c" transform="matrix(11.7,0,0,16.1,349.3,133.8)" />
<use xlink:href="#f1_d" transform="matrix(11.7,0,0,16.1,373.6,133.8)" />
<use xlink:href="#f2_1g" transform="matrix(12.1,0,0,12.1,337,133.8)" />
<use xlink:href="#f2_1o" transform="matrix(12.1,0,0,12.1,358.4,133.8)" />
</g>
<path d="M411.9,136.9h19.9" class="g5_9" />
<g fill="#000000" >
<use xlink:href="#f3_m" transform="matrix(12.1,0,0,12.1,416.5,130.7)" />
<use xlink:href="#f3_m" transform="matrix(12.1,0,0,12.1,412,156.9)" />
<use xlink:href="#f3_k" transform="matrix(12.1,0,0,12.1,421.1,156.9)" />
</g>
<path d="M463.9,136.9h19.9" class="g5_9" />
<g fill="#000000" >
<use xlink:href="#f3_o" transform="matrix(12.1,0,0,12.1,470.1,130.7)" />
<use xlink:href="#f3_m" transform="matrix(12.1,0,0,12.1,465.5,156.9)" />
<use xlink:href="#f3_k" transform="matrix(12.1,0,0,12.1,474.7,156.9)" />
</g>
<path d="M517.4,136.9h19.9" class="g5_9" />
<g fill="#000000" >
<use xlink:href="#f3_q" transform="matrix(12.1,0,0,12.1,522,130.7)" />
<use xlink:href="#f3_m" transform="matrix(12.1,0,0,12.1,517.4,156.9)" />
<use xlink:href="#f3_k" transform="matrix(12.1,0,0,12.1,526.6,156.9)" />
</g>
<path d="M569.4,136.9h19.8" class="g5_9" />
<g fill="#000000" >
<use xlink:href="#f3_s" transform="matrix(12.1,0,0,12.1,574,130.7)" />
<use xlink:href="#f3_m" transform="matrix(12.1,0,0,12.1,569.4,156.9)" />
<use xlink:href="#f3_k" transform="matrix(12.1,0,0,12.1,580.1,156.9)" />
</g>
<path d="M320.2,112.3h74.9m0,0h1.5M396.6,112.3h52M448.6,112.3h52M500.6,112.3h51.9m0,0h1.6M554.1,112.3h52M320.2,112.3v49.2M320.2,161.5h74.9" class="g3_9" />
<path d="M395.1,161.5h1.4V112.3h-1.4v49.2Z" class="g4_9" />
<path d="M395.1,112.3v49.2m0,0h1.5M396.6,161.5h52m0,-49.2v49.2M448.6,161.5h52m0,-49.2v49.2M500.6,161.5h51.9" class="g3_9" />
<path d="M552.6,161.5H554V112.3h-1.4v49.2Z" class="g4_9" />
<path d="M552.5,112.3v49.2m0,0h1.6M554.1,161.5h52m0,-49.2v49.2" class="g3_9" />
<g fill="#000000" >
<use xlink:href="#f1_c" transform="matrix(11.8,0,0,15.6,139.3,226.5)" />
<use xlink:href="#f1_d" transform="matrix(11.8,0,0,15.6,163.5,226.5)" />
</g>
<path d="M211.6,220.7h20.1m39.7,0h20m40.9,0h20.1m40,0h20" class="g6_9" />
<g fill="#000000" >
<use xlink:href="#f3_m" transform="matrix(11.9,0,0,11.9,217.4,213.7)" />
<use xlink:href="#f3_o" transform="matrix(11.9,0,0,11.9,277.2,213.7)" />
<use xlink:href="#f3_q" transform="matrix(11.9,0,0,11.9,337.9,213.7)" />
<use xlink:href="#f3_s" transform="matrix(11.9,0,0,11.9,397.8,213.7)" />
<use xlink:href="#f3_m" transform="matrix(11.9,0,0,11.9,187.9,225.3)" />
<use xlink:href="#f3_n" transform="matrix(11.9,0,0,11.9,248.2,225.3)" />
<use xlink:href="#f3_o" transform="matrix(11.9,0,0,11.9,308.5,225.3)" />
<use xlink:href="#f3_p" transform="matrix(11.9,0,0,11.9,369,225.3)" />
<use xlink:href="#f3_m" transform="matrix(11.9,0,0,11.9,212.9,239.4)" />
<use xlink:href="#f3_k" transform="matrix(11.9,0,0,11.9,222,239.4)" />
<use xlink:href="#f3_m" transform="matrix(11.9,0,0,11.9,272.6,239.4)" />
<use xlink:href="#f3_k" transform="matrix(11.9,0,0,11.9,281.8,239.4)" />
<use xlink:href="#f3_m" transform="matrix(11.9,0,0,11.9,333.5,239.4)" />
<use xlink:href="#f3_k" transform="matrix(11.9,0,0,11.9,342.6,239.4)" />
<use xlink:href="#f3_m" transform="matrix(11.9,0,0,11.9,393.6,239.4)" />
<use xlink:href="#f3_k" transform="matrix(11.9,0,0,11.9,402.7,239.4)" />
<use xlink:href="#f2_15" transform="matrix(11.9,0,0,11.9,125.2,225.3)" />
<use xlink:href="#f2_1o" transform="matrix(11.9,0,0,11.9,148.3,225.3)" />
<use xlink:href="#f1_x" transform="matrix(11.9,0,0,11.9,173.6,225.3)" />
<use xlink:href="#f1_3a" transform="matrix(11.9,0,0,11.9,198.7,225.3)" />
<use xlink:href="#f1_f" transform="matrix(11.9,0,0,11.9,235.4,225.3)" />
<use xlink:href="#f1_3a" transform="matrix(11.9,0,0,11.9,258.5,225.3)" />
<use xlink:href="#f1_f" transform="matrix(11.9,0,0,11.9,295.1,225.3)" />
<use xlink:href="#f1_3a" transform="matrix(11.9,0,0,11.9,319.5,225.3)" />
<use xlink:href="#f1_f" transform="matrix(11.9,0,0,11.9,356,225.3)" />
<use xlink:href="#f1_3a" transform="matrix(11.9,0,0,11.9,379.5,225.3)" />
</g>
<path d="M139.3,286h20.1" class="g6_9" />
<g fill="#000000" >
<use xlink:href="#f3_s" transform="matrix(11.9,0,0,11.9,140.1,279)" />
<use xlink:href="#f3_k" transform="matrix(11.9,0,0,11.9,149.2,279)" />
<use xlink:href="#f3_o" transform="matrix(11.9,0,0,11.9,178.6,290.5)" />
<use xlink:href="#f3_m" transform="matrix(11.9,0,0,11.9,140.4,304.6)" />
<use xlink:href="#f3_k" transform="matrix(11.9,0,0,11.9,149.6,304.6)" />
<use xlink:href="#f1_x" transform="matrix(11.9,0,0,11.9,124.7,290.5)" />
<use xlink:href="#f1_x" transform="matrix(11.9,0,0,11.9,164.3,290.5)" />
<use xlink:href="#f1_c" transform="matrix(11.8,0,0,18.8,139.3,358)" />
<use xlink:href="#f1_d" transform="matrix(11.8,0,0,18.8,171.4,358)" />
</g>
<path d="M219.6,351.2h20.1m40.4,0h20.1m48.2,0h20.1m49.9,0h20" class="g6_9" />
<g fill="#000000" >
<use xlink:href="#f3_m" transform="matrix(6.9,0,0,6.9,163.2,347.7)" />
<use xlink:href="#f3_m" transform="matrix(11.9,0,0,11.9,225.3,344.2)" />
<use xlink:href="#f3_o" transform="matrix(11.9,0,0,11.9,285.8,344.2)" />
<use xlink:href="#f3_q" transform="matrix(11.9,0,0,11.9,354,344.2)" />
<use xlink:href="#f3_s" transform="matrix(11.9,0,0,11.9,423.8,344.2)" />
<use xlink:href="#f3_o" transform="matrix(11.9,0,0,11.9,195.8,355.8)" />
<use xlink:href="#f3_t" transform="matrix(11.9,0,0,11.9,256.3,355.8)" />
<use xlink:href="#f3_l" transform="matrix(11.9,0,0,11.9,315.3,355.8)" />
<use xlink:href="#f3_q" transform="matrix(11.9,0,0,11.9,324.5,355.8)" />
<use xlink:href="#f3_m" transform="matrix(11.9,0,0,11.9,385.7,355.8)" />
<use xlink:href="#f3_p" transform="matrix(11.9,0,0,11.9,394.9,355.8)" />
<use xlink:href="#f3_m" transform="matrix(11.9,0,0,11.9,220.7,369.9)" />
<use xlink:href="#f3_k" transform="matrix(11.9,0,0,11.9,229.9,369.9)" />
<use xlink:href="#f3_m" transform="matrix(11.9,0,0,11.9,281.2,369.9)" />
<use xlink:href="#f3_k" transform="matrix(11.9,0,0,11.9,290.4,369.9)" />
<use xlink:href="#f3_m" transform="matrix(11.9,0,0,11.9,349.6,369.9)" />
<use xlink:href="#f3_k" transform="matrix(11.9,0,0,11.9,358.7,369.9)" />
<use xlink:href="#f3_m" transform="matrix(11.9,0,0,11.9,419.4,369.9)" />
<use xlink:href="#f3_k" transform="matrix(11.9,0,0,11.9,428.6,369.9)" />
<use xlink:href="#f2_15" transform="matrix(11.9,0,0,11.9,125.2,355.8)" />
<use xlink:href="#f2_1o" transform="matrix(11.9,0,0,11.9,148.3,355.8)" />
<use xlink:href="#f1_x" transform="matrix(11.9,0,0,11.9,181.5,355.8)" />
<use xlink:href="#f1_3a" transform="matrix(11.9,0,0,11.9,206.6,355.8)" />
<use xlink:href="#f1_f" transform="matrix(11.9,0,0,11.9,243.5,355.8)" />
<use xlink:href="#f1_3a" transform="matrix(11.9,0,0,11.9,267.1,355.8)" />
<use xlink:href="#f1_f" transform="matrix(11.9,0,0,11.9,303.9,355.8)" />
<use xlink:href="#f1_3a" transform="matrix(11.9,0,0,11.9,335.5,355.8)" />
<use xlink:href="#f1_f" transform="matrix(11.9,0,0,11.9,372.1,355.8)" />
<use xlink:href="#f1_3a" transform="matrix(11.9,0,0,11.9,405.5,355.8)" />
</g>
<path d="M139.2,416.5h28.5" class="g7_9" />
<g fill="#000000" >
<use xlink:href="#f3_n" transform="matrix(11.9,0,0,11.9,139.7,409.5)" />
<use xlink:href="#f3_o" transform="matrix(11.9,0,0,11.9,148.9,409.5)" />
<use xlink:href="#f3_k" transform="matrix(11.9,0,0,11.9,158,409.5)" />
<use xlink:href="#f3_l" transform="matrix(11.9,0,0,11.9,184.8,421.1)" />
<use xlink:href="#f3_r" transform="matrix(11.9,0,0,11.9,194,421.1)" />
<use xlink:href="#f3_m" transform="matrix(11.9,0,0,11.9,144.7,435.2)" />
<use xlink:href="#f3_k" transform="matrix(11.9,0,0,11.9,153.8,435.2)" />
<use xlink:href="#f1_x" transform="matrix(11.9,0,0,11.9,124.7,421.1)" />
<use xlink:href="#f1_x" transform="matrix(11.9,0,0,11.9,172.5,421.1)" />
<use xlink:href="#f1_c" transform="matrix(11.8,0,0,15.7,138.8,482.3)" />
<use xlink:href="#f1_d" transform="matrix(11.8,0,0,15.7,163,482.3)" />
</g>
<g clip-path="url(#c1_9)">
<g fill="#000000" >
<use xlink:href="#f1_c" transform="matrix(11.8,0,0,18.9,202,483.2)" />
</g>
</g>
<g fill="#000000" >
<use xlink:href="#f1_d" transform="matrix(11.8,0,0,18.9,234.1,483.2)" />
<use xlink:href="#f1_c" transform="matrix(11.8,0,0,15.7,277.8,482.3)" />
<use xlink:href="#f1_d" transform="matrix(11.8,0,0,15.7,302,482.3)" />
<use xlink:href="#f1_c" transform="matrix(11.8,0,0,17.7,255.6,482.8)" />
<use xlink:href="#f1_d" transform="matrix(11.8,0,0,17.7,309.1,482.8)" />
<use xlink:href="#f3_m" transform="matrix(6.9,0,0,6.9,315.5,468.5)" />
<use xlink:href="#f3_m" transform="matrix(6.9,0,0,6.9,225.7,472.8)" />
<use xlink:href="#f2_1m" transform="matrix(12,0,0,12,123,480.8)" />
<use xlink:href="#f2_1o" transform="matrix(12,0,0,12,147.7,480.8)" />
<use xlink:href="#f2_15" transform="matrix(12,0,0,12,187.9,480.8)" />
<use xlink:href="#f2_1o" transform="matrix(12,0,0,12,211,480.8)" />
<use xlink:href="#f2_15" transform="matrix(12,0,0,12,263.6,480.8)" />
<use xlink:href="#f2_1o" transform="matrix(12,0,0,12,286.6,480.8)" />
<use xlink:href="#f1_x" transform="matrix(12,0,0,12,173.1,480.8)" />
<use xlink:href="#f1_h" transform="matrix(12,0,0,12,242.9,480.8)" />
<use xlink:href="#f4_x" transform="matrix(12.1,0,0,12.1,124.7,524.8)" />
<use xlink:href="#f3_l" transform="matrix(12.1,0,0,12.1,134.8,524.8)" />
<use xlink:href="#f3_r" transform="matrix(12.1,0,0,12.1,144.1,524.8)" />
<use xlink:href="#f4_h" transform="matrix(12.1,0,0,12.1,156.6,524.8)" />
<use xlink:href="#f3_l" transform="matrix(12.1,0,0,12.1,166.7,524.8)" />
<use xlink:href="#f3_q" transform="matrix(12.1,0,0,12.1,176,524.8)" />
<use xlink:href="#f3_x" transform="matrix(12,0,0,12,125.2,553.6)" />
<use xlink:href="#f3_l" transform="matrix(12,0,0,12,140,553.6)" />
<use xlink:href="#f3_l" transform="matrix(12,0,0,12,64.9,582.1)" />
<use xlink:href="#f3_r" transform="matrix(12,0,0,12,74.1,582.1)" />
<use xlink:href="#f3_i" transform="matrix(12,0,0,12,83.2,582.1)" />
<use xlink:href="#f3_1l" transform="matrix(12,0,0,12,121.9,582.1)" />
<use xlink:href="#f3_2f" transform="matrix(12,0,0,12,135.2,582.1)" />
<use xlink:href="#f3_25" transform="matrix(12,0,0,12,142.3,582.1)" />
<use xlink:href="#f3_2a" transform="matrix(12,0,0,12,147.4,582.1)" />
<use xlink:href="#f3_23" transform="matrix(12,0,0,12,156.5,582.1)" />
<use xlink:href="#f3_2c" transform="matrix(12,0,0,12,168.5,582.1)" />
<use xlink:href="#f3_2e" transform="matrix(12,0,0,12,177.6,582.1)" />
<use xlink:href="#f3_2b" transform="matrix(12,0,0,12,183.7,582.1)" />
<use xlink:href="#f3_2c" transform="matrix(12,0,0,12,192.9,582.1)" />
<use xlink:href="#f3_21" transform="matrix(12,0,0,12,202.1,582.1)" />
<use xlink:href="#f3_2g" transform="matrix(12,0,0,12,210.2,582.1)" />
<use xlink:href="#f3_25" transform="matrix(12,0,0,12,215.3,582.1)" />
<use xlink:href="#f3_21" transform="matrix(12,0,0,12,220.4,582.1)" />
<use xlink:href="#f3_2f" transform="matrix(12,0,0,12,228.5,582.1)" />
<use xlink:href="#f3_2b" transform="matrix(12,0,0,12,238.6,582.1)" />
<use xlink:href="#f3_22" transform="matrix(12,0,0,12,247.8,582.1)" />
<use xlink:href="#f3_20" transform="matrix(12,0,0,12,256.4,582.1)" />
<use xlink:href="#f3_21" transform="matrix(12,0,0,12,265.6,582.1)" />
<use xlink:href="#f3_2g" transform="matrix(12,0,0,12,273.7,582.1)" />
<use xlink:href="#f3_21" transform="matrix(12,0,0,12,278.8,582.1)" />
<use xlink:href="#f3_2e" transform="matrix(12,0,0,12,286.9,582.1)" />
<use xlink:href="#f3_29" transform="matrix(12,0,0,12,293.1,582.1)" />
<use xlink:href="#f3_25" transform="matrix(12,0,0,12,307.3,582.1)" />
<use xlink:href="#f3_2a" transform="matrix(12,0,0,12,312.4,582.1)" />
<use xlink:href="#f3_1x" transform="matrix(12,0,0,12,321.6,582.1)" />
<use xlink:href="#f3_2a" transform="matrix(12,0,0,12,329.7,582.1)" />
<use xlink:href="#f3_2g" transform="matrix(12,0,0,12,338.9,582.1)" />
<use xlink:href="#f3_2f" transform="matrix(12,0,0,12,344,582.1)" />
<use xlink:href="#f3_g" transform="matrix(12,0,0,12,351.1,582.1)" />
<use xlink:href="#f3_2c" transform="matrix(12,0,0,12,358.4,582.1)" />
<use xlink:href="#f3_2e" transform="matrix(12,0,0,12,367.6,582.1)" />
<use xlink:href="#f3_2b" transform="matrix(12,0,0,12,373.7,582.1)" />
<use xlink:href="#f3_2i" transform="matrix(12,0,0,12,382.9,582.1)" />
<use xlink:href="#f3_21" transform="matrix(12,0,0,12,392,582.1)" />
<use xlink:href="#f3_2g" transform="matrix(12,0,0,12,402.8,582.1)" />
<use xlink:href="#f3_24" transform="matrix(12,0,0,12,407.9,582.1)" />
<use xlink:href="#f3_1x" transform="matrix(12,0,0,12,417.1,582.1)" />
<use xlink:href="#f3_2g" transform="matrix(12,0,0,12,425.3,582.1)" />
</g>
<path d="M125.4,639.2v77.2m158,-77.2v77.2" class="g8_9" />
<g fill="#000000" >
<use xlink:href="#f1_c" transform="matrix(11.8,0,0,15.8,313.7,683.8)" />
<use xlink:href="#f1_d" transform="matrix(11.8,0,0,15.8,456.5,683.8)" />
<use xlink:href="#f3_l" transform="matrix(12.1,0,0,12.1,143.2,654.8)" />
<use xlink:href="#f3_l" transform="matrix(12.1,0,0,12.1,200.6,654.8)" />
<use xlink:href="#f3_l" transform="matrix(12.1,0,0,12.1,240.2,654.8)" />
<use xlink:href="#f3_n" transform="matrix(12.1,0,0,12.1,263.6,654.8)" />
<use xlink:href="#f3_l" transform="matrix(12.1,0,0,12.1,125.6,682.5)" />
<use xlink:href="#f3_n" transform="matrix(12.1,0,0,12.1,149,682.5)" />
<use xlink:href="#f3_l" transform="matrix(12.1,0,0,12.1,200.5,682.5)" />
<use xlink:href="#f3_l" transform="matrix(12.1,0,0,12.1,257.2,682.5)" />
<use xlink:href="#f3_t" transform="matrix(12.1,0,0,12.1,302.6,682.5)" />
<use xlink:href="#f3_n" transform="matrix(12.1,0,0,12.1,320.6,682.5)" />
<use xlink:href="#f3_l" transform="matrix(12.1,0,0,12.1,143.2,710)" />
<use xlink:href="#f3_l" transform="matrix(12.1,0,0,12.1,183.7,710)" />
<use xlink:href="#f3_n" transform="matrix(12.1,0,0,12.1,207.3,710)" />
<use xlink:href="#f3_l" transform="matrix(12.1,0,0,12.1,257.2,710)" />
<use xlink:href="#f2_2k" transform="matrix(12.1,0,0,12.1,273.5,654.8)" />
<use xlink:href="#f2_2l" transform="matrix(12.1,0,0,12.1,159.7,682.5)" />
<use xlink:href="#f2_2k" transform="matrix(12.1,0,0,12.1,330.4,682.5)" />
<use xlink:href="#f2_2l" transform="matrix(12.1,0,0,12.1,338.4,682.5)" />
<use xlink:href="#f2_2m" transform="matrix(12.1,0,0,12.1,346.5,682.5)" />
<use xlink:href="#f2_2k" transform="matrix(12.1,0,0,12.1,371.6,682.5)" />
<use xlink:href="#f2_2l" transform="matrix(12.1,0,0,12.1,379.7,682.5)" />
<use xlink:href="#f2_2l" transform="matrix(12.1,0,0,12.1,406.6,682.5)" />
<use xlink:href="#f2_2m" transform="matrix(12.1,0,0,12.1,414.7,682.5)" />
<use xlink:href="#f2_2m" transform="matrix(12.1,0,0,12.1,439.8,682.5)" />
<use xlink:href="#f2_2k" transform="matrix(12.1,0,0,12.1,447,682.5)" />
<use xlink:href="#f2_2m" transform="matrix(12.1,0,0,12.1,217.1,710)" />
<use xlink:href="#f1_f" transform="matrix(12.1,0,0,12.1,250.8,654.8)" />
<use xlink:href="#f1_f" transform="matrix(12.1,0,0,12.1,136.2,682.5)" />
<use xlink:href="#f1_x" transform="matrix(12.1,0,0,12.1,288.9,682.5)" />
<use xlink:href="#f1_f" transform="matrix(12.1,0,0,12.1,357.3,682.5)" />
<use xlink:href="#f1_f" transform="matrix(12.1,0,0,12.1,391.4,682.5)" />
<use xlink:href="#f1_f" transform="matrix(12.1,0,0,12.1,425.5,682.5)" />
<use xlink:href="#f1_f" transform="matrix(12.1,0,0,12.1,194.3,710)" />
<use xlink:href="#f3_1j" transform="matrix(12,0,0,12,64.9,752.9)" />
<use xlink:href="#f3_2b" transform="matrix(12,0,0,12,74.1,752.9)" />
<use xlink:href="#f3_28" transform="matrix(12,0,0,12,82.1,752.9)" />
<use xlink:href="#f3_u" transform="matrix(12,0,0,12,86.2,752.9)" />
</g>
<path d="M191,777.6v77.2M349.3,777.6v77.2" class="g9_9" />
<g fill="#000000" >
<use xlink:href="#f3_l" transform="matrix(12.1,0,0,12.1,208.8,793.2)" />
<use xlink:href="#f3_l" transform="matrix(12.1,0,0,12.1,266.2,793.2)" />
<use xlink:href="#f3_l" transform="matrix(12.1,0,0,12.1,306,793.2)" />
<use xlink:href="#f3_n" transform="matrix(12.1,0,0,12.1,329.6,793.2)" />
<use xlink:href="#f3_i" transform="matrix(12.1,0,0,12.1,134.4,820.9)" />
<use xlink:href="#f3_i" transform="matrix(12.1,0,0,12.1,153.8,820.9)" />
<use xlink:href="#f3_i" transform="matrix(12.1,0,0,12.1,168.1,820.9)" />
<use xlink:href="#f3_l" transform="matrix(12.1,0,0,12.1,191.2,820.9)" />
<use xlink:href="#f3_n" transform="matrix(12.1,0,0,12.1,214.6,820.9)" />
<use xlink:href="#f3_l" transform="matrix(12.1,0,0,12.1,266.1,820.9)" />
<use xlink:href="#f3_l" transform="matrix(12.1,0,0,12.1,323,820.9)" />
<use xlink:href="#f3_l" transform="matrix(12.1,0,0,12.1,208.8,848.4)" />
<use xlink:href="#f3_l" transform="matrix(12.1,0,0,12.1,249.5,848.4)" />
<use xlink:href="#f3_n" transform="matrix(12.1,0,0,12.1,273,848.4)" />
<use xlink:href="#f3_l" transform="matrix(12.1,0,0,12.1,323,848.4)" />
</g>
<g clip-path="url(#c2_9)">
<g fill="#000000" >
<use xlink:href="#f2_2k" transform="matrix(12.1,0,0,12.1,339.4,793.2)" />
</g>
</g>
<g fill="#000000" >
<use xlink:href="#f2_1c" transform="matrix(12.1,0,0,12.1,124.5,820.9)" />
<use xlink:href="#f2_18" transform="matrix(12.1,0,0,12.1,139,820.9)" />
<use xlink:href="#f2_1j" transform="matrix(12.1,0,0,12.1,158,820.9)" />
<use xlink:href="#f2_2l" transform="matrix(12.1,0,0,12.1,225.3,820.9)" />
<use xlink:href="#f2_2m" transform="matrix(12.1,0,0,12.1,282.7,848.4)" />
<use xlink:href="#f1_f" transform="matrix(12.1,0,0,12.1,316.6,793.2)" />
<use xlink:href="#f1_x" transform="matrix(12.1,0,0,12.1,175.8,820.9)" />
<use xlink:href="#f1_f" transform="matrix(12.1,0,0,12.1,201.8,820.9)" />
<use xlink:href="#f1_f" transform="matrix(12.1,0,0,12.1,260.2,848.4)" />
<use xlink:href="#f3_l" transform="matrix(6.9,0,0,6.9,134.6,893.5)" />
<use xlink:href="#f3_l" transform="matrix(6.9,0,0,6.9,177.3,893.5)" />
<use xlink:href="#f3_m" transform="matrix(6.9,0,0,6.9,211.6,893.5)" />
<use xlink:href="#f3_n" transform="matrix(6.9,0,0,6.9,245.8,893.5)" />
<use xlink:href="#f3_n" transform="matrix(6.9,0,0,6.9,289.8,893.5)" />
<use xlink:href="#f3_m" transform="matrix(6.9,0,0,6.9,324.6,893.5)" />
<use xlink:href="#f3_v" transform="matrix(12,0,0,12,224,888.9)" />
<use xlink:href="#f2_13" transform="matrix(12,0,0,12,123.4,888.9)" />
<use xlink:href="#f2_13" transform="matrix(12,0,0,12,166.3,888.9)" />
<use xlink:href="#f2_13" transform="matrix(12,0,0,12,199.2,888.9)" />
<use xlink:href="#f2_13" transform="matrix(12,0,0,12,233.7,888.9)" />
<use xlink:href="#f2_13" transform="matrix(12,0,0,12,277.9,888.9)" />
<use xlink:href="#f2_13" transform="matrix(12,0,0,12,312.3,888.9)" />
<use xlink:href="#f1_34" transform="matrix(12,0,0,12,144.8,888.9)" />
<use xlink:href="#f1_h" transform="matrix(12,0,0,12,186.8,888.9)" />
<use xlink:href="#f1_34" transform="matrix(12,0,0,12,256.4,888.9)" />
<use xlink:href="#f1_h" transform="matrix(12,0,0,12,299.7,888.9)" />
</g>
<path d="M139,913.9V991M271.8,913.9V991" class="g8_9" />
<g fill="#000000" >
<use xlink:href="#f3_k" transform="matrix(12.1,0,0,12.1,150.3,929.4)" />
<use xlink:href="#f3_l" transform="matrix(12.1,0,0,12.1,200.9,929.4)" />
<use xlink:href="#f3_n" transform="matrix(12.1,0,0,12.1,247.1,929.4)" />
<use xlink:href="#f3_n" transform="matrix(12.1,0,0,12.1,145.2,957.1)" />
<use xlink:href="#f3_l" transform="matrix(12.1,0,0,12.1,200.9,957.1)" />
<use xlink:href="#f3_k" transform="matrix(12.1,0,0,12.1,251.9,957.1)" />
<use xlink:href="#f3_n" transform="matrix(12.1,0,0,12.1,151.3,984.6)" />
<use xlink:href="#f3_l" transform="matrix(12.1,0,0,12.1,184.2,984.6)" />
<use xlink:href="#f3_n" transform="matrix(12.1,0,0,12.1,207.7,984.6)" />
<use xlink:href="#f3_n" transform="matrix(12.1,0,0,12.1,252.6,984.6)" />
</g>
<g clip-path="url(#c3_9)">
<g fill="#000000" >
<use xlink:href="#f2_2k" transform="matrix(12.1,0,0,12.1,256.9,929.4)" />
</g>
</g>
<g fill="#000000" >
<use xlink:href="#f2_2l" transform="matrix(12.1,0,0,12.1,155.7,957.1)" />
</g>
<g clip-path="url(#c4_9)">
<g fill="#000000" >
<use xlink:href="#f2_2m" transform="matrix(12.1,0,0,12.1,161,984.6)" />
<use xlink:href="#f2_2m" transform="matrix(12.1,0,0,12.1,217.4,984.6)" />
<use xlink:href="#f2_2m" transform="matrix(12.1,0,0,12.1,262.3,984.6)" />
</g>
</g>
<g fill="#000000" >
<use xlink:href="#f1_x" transform="matrix(12.1,0,0,12.1,123.9,957.1)" />
<use xlink:href="#f1_h" transform="matrix(12.1,0,0,12.1,141.2,984.6)" />
<use xlink:href="#f1_f" transform="matrix(12.1,0,0,12.1,194.9,984.6)" />
<use xlink:href="#f1_h" transform="matrix(12.1,0,0,12.1,242.7,984.6)" />
<use xlink:href="#f1_c" transform="matrix(11.8,0,0,15.8,137.7,1061.8)" />
<use xlink:href="#f1_d" transform="matrix(11.8,0,0,15.8,176.5,1061.8)" />
</g>
<path d="M185.5,1017.4v77m116,-77v77" class="g10_9" />
<g fill="#000000" >
<use xlink:href="#f3_k" transform="matrix(12,0,0,12,192.9,1033)" />
<use xlink:href="#f3_l" transform="matrix(12,0,0,12,239.1,1033)" />
<use xlink:href="#f3_n" transform="matrix(12,0,0,12,144.7,1060.5)" />
<use xlink:href="#f3_n" transform="matrix(12,0,0,12,167,1060.5)" />
<use xlink:href="#f3_l" transform="matrix(12,0,0,12,239,1060.5)" />
<use xlink:href="#f3_k" transform="matrix(12,0,0,12,285.6,1060.5)" />
<use xlink:href="#f3_l" transform="matrix(12,0,0,12,222.4,1088.2)" />
<use xlink:href="#f3_n" transform="matrix(12,0,0,12,245.8,1088.2)" />
</g>
<g clip-path="url(#c5_9)">
<g fill="#000000" >
<use xlink:href="#f2_2k" transform="matrix(12,0,0,12,286.6,1033)" />
</g>
</g>
<g fill="#000000" >
<use xlink:href="#f2_2l" transform="matrix(12,0,0,12,194,1060.5)" />
</g>
<g clip-path="url(#c6_9)">
<g fill="#000000" >
<use xlink:href="#f2_2m" transform="matrix(12,0,0,12,199.3,1088.2)" />
<use xlink:href="#f2_2m" transform="matrix(12,0,0,12,255.6,1088.2)" />
<use xlink:href="#f2_2m" transform="matrix(12,0,0,12,292,1088.2)" />
</g>
</g>
<g fill="#000000" >
<use xlink:href="#f1_x" transform="matrix(12,0,0,12,123.9,1060.5)" />
<use xlink:href="#f1_3a" transform="matrix(12,0,0,12,154.9,1060.5)" />
<use xlink:href="#f1_h" transform="matrix(12,0,0,12,187.7,1088.2)" />
<use xlink:href="#f1_f" transform="matrix(12,0,0,12,233,1088.2)" />
<use xlink:href="#f1_h" transform="matrix(12,0,0,12,280.7,1088.2)" />
<use xlink:href="#f1_c" transform="matrix(11.8,0,0,15.5,176.7,1133.3)" />
<use xlink:href="#f1_d" transform="matrix(11.8,0,0,15.5,238.3,1133.3)" />
<use xlink:href="#f1_c" transform="matrix(11.8,0,0,15.5,271.9,1133.3)" />
<use xlink:href="#f1_d" transform="matrix(11.8,0,0,15.5,357.7,1133.3)" />
<use xlink:href="#f3_t" transform="matrix(11.8,0,0,11.8,137.7,1132)" />
<use xlink:href="#f3_l" transform="matrix(11.8,0,0,11.8,167.2,1132)" />
<use xlink:href="#f3_k" transform="matrix(11.8,0,0,11.8,228.2,1132)" />
<use xlink:href="#f3_n" transform="matrix(11.8,0,0,11.8,305.8,1132)" />
<use xlink:href="#f2_2l" transform="matrix(11.8,0,0,11.8,196.5,1132)" />
<use xlink:href="#f2_2m" transform="matrix(11.8,0,0,11.8,204.6,1132)" />
<use xlink:href="#f2_2k" transform="matrix(11.8,0,0,11.8,261.6,1132)" />
<use xlink:href="#f2_2l" transform="matrix(11.8,0,0,11.8,281.2,1132)" />
<use xlink:href="#f2_2m" transform="matrix(11.8,0,0,11.8,315.5,1132)" />
<use xlink:href="#f2_2l" transform="matrix(11.8,0,0,11.8,322.6,1132)" />
<use xlink:href="#f2_2m" transform="matrix(11.8,0,0,11.8,348.6,1132)" />
<use xlink:href="#f1_x" transform="matrix(11.8,0,0,11.8,123.9,1132)" />
<use xlink:href="#f1_h" transform="matrix(11.8,0,0,11.8,157.3,1132)" />
<use xlink:href="#f1_h" transform="matrix(11.8,0,0,11.8,184.2,1132)" />
<use xlink:href="#f1_h" transform="matrix(11.8,0,0,11.8,215.4,1132)" />
<use xlink:href="#f1_f" transform="matrix(11.8,0,0,11.8,247.3,1132)" />
<use xlink:href="#f1_f" transform="matrix(11.8,0,0,11.8,292.9,1132)" />
<use xlink:href="#f1_f" transform="matrix(11.8,0,0,11.8,334.3,1132)" />
<use xlink:href="#f1_4r" transform="matrix(11.8,0,0,11.8,149.4,1132)" />
<use xlink:href="#f1_57" transform="matrix(11.8,0,0,11.8,364.3,1132)" />
<use xlink:href="#f1_4t" transform="matrix(11.8,0,0,11.8,149.4,1138.3)" />
<use xlink:href="#f1_59" transform="matrix(11.8,0,0,11.8,364.3,1138.3)" />
<use xlink:href="#f1_c" transform="matrix(11.8,0,0,15.9,148.5,1172)" />
<use xlink:href="#f1_d" transform="matrix(11.8,0,0,15.9,291.3,1172)" />
<use xlink:href="#f3_t" transform="matrix(12.2,0,0,12.2,137.7,1170.7)" />
<use xlink:href="#f3_n" transform="matrix(12.2,0,0,12.2,223.5,1170.7)" />
</g>
<g clip-path="url(#c7_9)">
<g fill="#000000" >
<use xlink:href="#f2_2l" transform="matrix(12.2,0,0,12.2,157.9,1170.7)" />
<use xlink:href="#f2_2m" transform="matrix(12.2,0,0,12.2,165.8,1170.7)" />
<use xlink:href="#f2_2k" transform="matrix(12.2,0,0,12.2,191,1170.7)" />
<use xlink:href="#f2_2l" transform="matrix(12.2,0,0,12.2,198.9,1170.7)" />
<use xlink:href="#f2_2k" transform="matrix(12.2,0,0,12.2,233.2,1170.7)" />
<use xlink:href="#f2_2l" transform="matrix(12.2,0,0,12.2,241.3,1170.7)" />
<use xlink:href="#f2_2m" transform="matrix(12.2,0,0,12.2,249.3,1170.7)" />
<use xlink:href="#f2_2k" transform="matrix(12.2,0,0,12.2,274.5,1170.7)" />
<use xlink:href="#f2_2m" transform="matrix(12.2,0,0,12.2,282.4,1170.7)" />
</g>
</g>
<g fill="#000000" >
<use xlink:href="#f1_x" transform="matrix(12.2,0,0,12.2,123.9,1170.7)" />
<use xlink:href="#f1_f" transform="matrix(12.2,0,0,12.2,176.7,1170.7)" />
<use xlink:href="#f1_f" transform="matrix(12.2,0,0,12.2,210.6,1170.7)" />
<use xlink:href="#f1_f" transform="matrix(12.2,0,0,12.2,260.1,1170.7)" />
<use xlink:href="#f5_t" transform="matrix(8,0,0,8,792.2,1264.3)" />
</g>
<defs>
<path d="M100,-4c0,0,-25,0,-39,2C61,-2,47,0,41,4c0,0,-5,6,-3,16c0,0,2,9,11,26L313,490L61,919c0,0,-9,17,-11,27c0,0,-3,10,3,15c0,0,6,6,21,7c0,0,15,2,41,2c0,0,22,0,36,-1c0,0,15,-1,23,-4c0,0,8,-3,12,-7c0,0,3,-5,8,-11L401,586L607,947c0,0,4,6,8,11c0,0,3,4,11,7c0,0,7,3,19,4c0,0,13,1,35,1c0,0,23,0,37,-2c0,0,15,-2,21,-7c0,0,6,-5,5,-15c0,0,-1,-10,-10,-27L482,493L743,46c0,0,10,-17,12,-26c0,0,1,-10,-5,-16c0,0,-7,-4,-22,-6c0,0,-16,-2,-41,-2c0,0,-24,0,-37,1c0,0,-14,1,-22,3c0,0,-7,3,-11,7c0,0,-5,5,-8,11L395,403L178,18c0,0,-4,-6,-9,-11c0,0,-4,-4,-12,-7c0,0,-8,-2,-21,-3c0,0,-14,-1,-36,-1Z" 
id="f0_3e"
transform="scale(0.001,-0.001)" />

<path d="M128,0c0,0,-11,0,-19,3c0,0,-8,2,-13,8c0,0,-6,6,-8,17c0,0,-3,11,-3,28c0,0,0,15,1,26c0,0,1,11,5,20c0,0,4,8,9,17c0,0,6,8,15,18L302,336c0,0,65,68,104,123c0,0,39,54,61,99c0,0,21,45,28,81c0,0,6,37,6,69c0,0,0,32,-10,61c0,0,-11,29,-30,50c0,0,-20,22,-50,35c0,0,-30,12,-69,12c0,0,-45,0,-81,-12c0,0,-37,-13,-64,-28c0,0,-27,-15,-45,-27c0,0,-19,-13,-28,-13c0,0,-5,0,-9,3c0,0,-4,3,-7,10c0,0,-2,6,-4,18c0,0,-1,11,-1,26c0,0,0,12,0,20c0,0,1,8,3,14c0,0,2,6,5,11c0,0,3,5,12,13c0,0,9,8,31,21c0,0,22,14,55,27c0,0,33,13,73,22c0,0,40,9,84,9c0,0,70,0,123,-20c0,0,53,-20,87,-54c0,0,35,-34,52,-80c0,0,17,-46,17,-97c0,0,0,-46,-8,-92c0,0,-8,-46,-35,-99c0,0,-26,-54,-76,-119c0,0,-50,-65,-133,-151L240,109H660c0,0,6,0,12,-4c0,0,5,-3,9,-10c0,0,5,-7,6,-17c0,0,2,-10,2,-23c0,0,0,-13,-2,-24c0,0,-1,-10,-5,-17c0,0,-3,-7,-9,-11c0,0,-5,-3,-12,-3Z" 
id="f0_rz"
transform="scale(0.001,-0.001)" />

<path d="M343,-13c0,0,-49,0,-91,8c0,0,-42,7,-75,18c0,0,-33,11,-54,22c0,0,-22,12,-27,17c0,0,-6,5,-9,10c0,0,-3,5,-5,13c0,0,-3,7,-4,18c0,0,-1,11,-1,27c0,0,0,26,5,37c0,0,6,10,15,10c0,0,7,0,27,-12c0,0,20,-12,51,-25c0,0,31,-14,72,-26c0,0,41,-12,92,-12c0,0,49,0,87,13c0,0,37,12,62,35c0,0,26,24,39,55c0,0,12,32,12,69c0,0,0,41,-16,74c0,0,-16,33,-47,57c0,0,-31,24,-76,36c0,0,-45,13,-103,13H206c0,0,-6,0,-12,3c0,0,-6,2,-10,8c0,0,-4,6,-6,16c0,0,-3,10,-3,25c0,0,0,14,2,24c0,0,2,9,7,15c0,0,4,5,9,8c0,0,5,3,12,3h84c0,0,49,0,89,12c0,0,39,13,66,37c0,0,27,24,42,57c0,0,14,33,14,74c0,0,0,30,-9,57c0,0,-10,28,-30,48c0,0,-19,20,-49,32c0,0,-31,11,-70,11c0,0,-43,0,-80,-13c0,0,-36,-13,-64,-28c0,0,-29,-15,-47,-28c0,0,-19,-13,-26,-13c0,0,-6,0,-10,2c0,0,-4,2,-6,7c0,0,-3,6,-4,16c0,0,-1,10,-1,26c0,0,0,12,0,20c0,0,1,9,3,15c0,0,3,6,6,12c0,0,3,5,10,12c0,0,7,7,28,20c0,0,22,14,54,27c0,0,32,13,73,22c0,0,41,9,89,9c0,0,67,0,118,-17c0,0,51,-18,85,-49c0,0,34,-31,51,-75c0,0,17,-44,17,-97c0,0,0,-45,-12,-84c0,0,-12,-39,-35,-70c0,0,-24,-30,-57,-51c0,0,-34,-21,-78,-30v-1c0,0,50,-5,92,-25c0,0,41,-20,71,-50c0,0,30,-29,47,-69c0,0,16,-40,16,-86c0,0,0,-66,-23,-119c0,0,-23,-54,-66,-92C593,65,550,27,486,7c0,0,-63,-20,-143,-20Z" 
id="f0_s0"
transform="scale(0.001,-0.001)" />

<path d="M469,327V857h-2L153,327ZM530,-4c0,0,-18,0,-30,2c0,0,-12,1,-19,3c0,0,-7,3,-9,7c0,0,-3,4,-3,10V221H71c0,0,-9,0,-15,2c0,0,-6,2,-11,8c0,0,-5,6,-7,17c0,0,-2,12,-2,30c0,0,0,14,1,25c0,0,1,11,3,20c0,0,2,10,6,18c0,0,4,9,9,18L403,947c0,0,3,6,10,10c0,0,7,5,19,8c0,0,11,3,27,4c0,0,17,1,39,1c0,0,25,0,43,-2c0,0,18,-2,29,-5c0,0,12,-3,18,-8c0,0,6,-4,6,-11V327H702c0,0,13,0,21,-13c0,0,8,-13,8,-40c0,0,0,-25,-8,-39c0,0,-7,-14,-21,-14H594V18c0,0,0,-6,-3,-10c0,0,-3,-4,-11,-7c0,0,-7,-2,-19,-3c0,0,-12,-2,-31,-2Z" 
id="f0_s1"
transform="scale(0.001,-0.001)" />

<path d="M324,-13c0,0,-44,0,-85,7c0,0,-40,6,-71,14c0,0,-32,10,-52,18c0,0,-20,9,-25,15c0,0,-6,5,-8,9c0,0,-3,5,-4,11c0,0,-2,6,-3,16c0,0,-1,10,-1,23c0,0,0,13,1,23c0,0,1,10,4,16c0,0,3,7,8,10c0,0,4,3,9,3c0,0,7,0,23,-10c0,0,16,-9,42,-20c0,0,27,-11,66,-20c0,0,39,-10,93,-10c0,0,49,0,91,12c0,0,42,12,72,37c0,0,30,26,47,64c0,0,18,38,18,94c0,0,0,46,-15,81c0,0,-14,36,-45,59c0,0,-30,24,-76,35c0,0,-46,12,-111,12c0,0,-45,0,-78,-5c0,0,-33,-4,-61,-4c0,0,-21,0,-30,10c0,0,-9,9,-9,37V917c0,0,0,24,12,36c0,0,11,12,33,12H596c0,0,6,0,12,-3c0,0,6,-4,9,-10c0,0,4,-7,6,-17c0,0,2,-11,2,-25c0,0,0,-27,-8,-42c0,0,-7,-14,-21,-14H236V583c0,0,26,4,53,5c0,0,28,1,63,1c0,0,83,0,145,-20c0,0,62,-20,103,-56c0,0,42,-36,63,-88c0,0,21,-51,21,-114c0,0,0,-78,-26,-138c0,0,-26,-61,-74,-102C584,71,537,30,471,8c0,0,-66,-21,-147,-21Z" 
id="f0_s2"
transform="scale(0.001,-0.001)" />

<path d="M412,-328c0,0,-195,96,-303,284C109,-44,0,142,0,365c0,0,0,232,114,422c0,0,114,191,298,273v-31c0,0,-92,-51,-151,-139c0,0,-59,-88,-88,-223c0,0,-29,-136,-29,-282c0,0,0,-167,27,-301c0,0,26,-133,82,-221c0,0,55,-89,159,-159v-32Z" 
id="f1_c"
transform="scale(0.001,-0.001)" />

<path d="M34,-328v32c0,0,92,50,151,138c0,0,59,88,88,222c0,0,29,135,29,283c0,0,0,165,-27,300c0,0,-26,134,-82,222c0,0,-56,89,-159,160v31c0,0,194,-96,303,-284c0,0,108,-187,108,-410c0,0,0,-232,-114,-422c0,0,-114,-191,-297,-272Z" 
id="f1_d"
transform="scale(0.001,-0.001)" />

<path d="M512,518c0,0,82,0,149,34c0,0,67,33,105,101c0,0,38,67,38,140c0,0,0,75,-47,119c0,0,-47,44,-142,44c0,0,-52,0,-125,-12L376,541c0,0,85,-23,136,-23ZM-35,0l8,26c0,0,78,0,109,28c0,0,31,27,67,151L312,782c0,0,30,104,30,139c0,0,0,26,-21,44c0,0,-21,17,-94,21l9,26H636c0,0,157,0,235,-68c0,0,78,-67,78,-164c0,0,0,-77,-50,-150c0,0,-49,-72,-147,-117c0,0,-97,-46,-210,-46c0,0,-71,0,-179,27L280,203c0,0,-28,-92,-28,-121c0,0,0,-22,20,-37c0,0,20,-14,96,-19L361,0Z" 
id="f2_1g"
transform="scale(0.001,-0.001)" />

<path d="M-102,0l8,27c0,0,64,6,103,29c0,0,59,36,163,140L467,492L386,784c0,0,-37,135,-64,166c0,0,-27,31,-95,36l7,26H596l-9,-26c0,0,-50,0,-67,-7c0,0,-18,-6,-27,-19c0,0,-9,-14,-9,-30c0,0,0,-18,18,-84L571,596L729,755c0,0,94,94,129,151c0,0,13,20,13,36c0,0,0,18,-15,28c0,0,-20,13,-75,16l8,26h343l-8,-26c0,0,-73,-11,-127,-44c0,0,-54,-34,-147,-134L588,541L662,269c0,0,10,-39,38,-120c0,0,18,-53,36,-75c0,0,17,-22,45,-34c0,0,27,-11,82,-14L855,0H458l8,26c0,0,61,3,88,24c0,0,20,15,20,39c0,0,0,21,-19,92L483,436L247,196c0,0,-69,-71,-83,-94c0,0,-8,-13,-8,-26c0,0,0,-23,22,-37c0,0,11,-6,64,-13L234,0Z" 
id="f2_1o"
transform="scale(0.001,-0.001)" />

<path d="M33,0V27c0,0,264,241,371,393c0,0,108,152,108,278c0,0,0,96,-59,158c0,0,-59,62,-141,62c0,0,-75,0,-134,-43c0,0,-59,-44,-88,-128H63c0,0,18,138,95,212c0,0,77,74,193,74c0,0,123,0,205,-80c0,0,83,-79,83,-186c0,0,0,-77,-36,-154c0,0,-55,-121,-179,-256C424,357,238,154,191,112H455c0,0,81,0,114,6c0,0,32,6,58,25c0,0,27,18,46,52h27L630,0Z" 
id="f3_m"
transform="scale(0.001,-0.001)" />

<path d="M379,29c0,0,41,0,84,37c0,0,43,36,65,121c0,0,34,128,34,362c0,0,0,173,-35,288c0,0,-27,86,-69,122c0,0,-31,25,-74,25c0,0,-51,0,-90,-46c0,0,-54,-62,-73,-195c0,0,-20,-132,-20,-261c0,0,0,-209,52,-341c0,0,42,-112,126,-112Zm-2,-46c0,0,-145,0,-241,170c0,0,-81,144,-81,347c0,0,0,173,52,298c0,0,52,125,139,186c0,0,67,49,139,49c0,0,116,0,208,-119c0,0,116,-147,116,-398c0,0,0,-176,-51,-299C658,217,608,94,529,38c0,0,-79,-55,-152,-55Z" 
id="f3_k"
transform="scale(0.001,-0.001)" />

<path d="M452,373V875L97,373ZM452,0V267H23v95l470,671h82V373H711V267H575V0Z" 
id="f3_o"
transform="scale(0.001,-0.001)" />

<path d="M405,24c0,0,65,0,116,62c0,0,51,61,51,174c0,0,0,128,-50,221c0,0,-51,93,-144,93c0,0,-29,0,-61,-12c0,0,-33,-12,-96,-51c0,0,-14,-101,-14,-163c0,0,0,-72,27,-155c0,0,26,-84,79,-134c0,0,38,-35,92,-35ZM384,-17c0,0,-104,0,-177,68C207,51,66,185,66,397c0,0,0,136,54,258c0,0,54,122,156,217c0,0,101,95,193,128c0,0,93,33,172,33h44v-28c0,0,-99,-10,-161,-39c0,0,-62,-29,-123,-90c0,0,-61,-60,-101,-135c0,0,-39,-74,-66,-176c0,0,107,73,215,73c0,0,104,0,180,-83c0,0,76,-84,76,-215c0,0,0,-126,-77,-231c0,0,-92,-126,-244,-126Z" 
id="f3_q"
transform="scale(0.001,-0.001)" />

<path d="M394,23c0,0,80,0,129,45c0,0,48,45,48,110c0,0,0,54,-28,97c0,0,-53,79,-214,206c0,0,-62,-52,-92,-114c0,0,-30,-61,-30,-133c0,0,0,-96,53,-154c0,0,52,-57,134,-57Zm17,566c0,0,90,81,114,128c0,0,24,46,24,105c0,0,0,79,-44,123c0,0,-44,45,-121,45c0,0,-76,0,-124,-45c0,0,-48,-44,-48,-103c0,0,0,-38,20,-77c0,0,20,-39,56,-74L411,589ZM382,-17c0,0,-144,0,-225,90c0,0,-64,72,-64,158c0,0,0,67,45,133c0,0,45,66,156,146c0,0,-121,98,-156,158c0,0,-34,59,-34,124c0,0,0,98,76,169c0,0,76,72,202,72c0,0,123,0,198,-67c0,0,74,-66,74,-151c0,0,0,-57,-40,-116c0,0,-40,-59,-168,-139c0,0,132,-101,174,-159c0,0,57,-76,57,-161c0,0,0,-106,-82,-182c0,0,-81,-75,-213,-75Z" 
id="f3_s"
transform="scale(0.001,-0.001)" />

<path d="M238,-17c0,0,-103,0,-139,25C99,8,62,33,62,62c0,0,0,22,17,38c0,0,18,16,42,16c0,0,19,0,38,-6c0,0,13,-3,58,-27c0,0,45,-23,62,-28c0,0,27,-8,59,-8c0,0,76,0,132,59c0,0,56,59,56,140c0,0,0,59,-26,115c0,0,-19,41,-42,63c0,0,-32,30,-88,54c0,0,-56,25,-114,25H232v22c0,0,59,8,118,42c0,0,59,35,86,85c0,0,27,49,27,108c0,0,0,76,-48,124c0,0,-48,47,-120,47c0,0,-116,0,-193,-124L77,819c0,0,44,102,110,158c0,0,66,56,164,56c0,0,122,0,187,-80c0,0,49,-58,49,-126c0,0,0,-110,-139,-228c0,0,93,-36,141,-104c0,0,48,-68,48,-160c0,0,0,-131,-84,-227C553,108,444,-17,238,-17Z" 
id="f3_n"
transform="scale(0.001,-0.001)" />

<path d="M247,-17c0,0,-91,0,-132,30c0,0,-42,31,-42,68c0,0,0,21,17,37c0,0,18,16,44,17c0,0,19,0,34,-6c0,0,14,-7,49,-31c0,0,56,-39,113,-39c0,0,88,0,154,66c0,0,66,66,66,161c0,0,0,92,-59,171c0,0,-59,80,-163,123c0,0,-81,34,-221,39l194,393H663L605,885H301L234,750c0,0,198,-29,313,-147c0,0,100,-102,100,-239c0,0,0,-80,-33,-148c0,0,-32,-68,-81,-116c0,0,-50,-47,-110,-77c0,0,-86,-40,-176,-40Z" 
id="f3_p"
transform="scale(0.001,-0.001)" />

<path d="M-33,0l9,26c0,0,58,2,78,11c0,0,30,13,43,34c0,0,20,31,48,130L318,812c0,0,21,74,21,113c0,0,0,28,-20,45c0,0,-20,16,-77,16H226l9,26H966L904,769H878c0,0,5,34,5,57c0,0,0,39,-20,66c0,0,-25,34,-74,52c0,0,-36,13,-166,13H488L374,557h99c0,0,102,0,148,31c0,0,46,31,79,115h26L623,336H593c0,0,13,46,13,79c0,0,0,32,-13,52c0,0,-13,19,-36,28c0,0,-23,10,-95,10H361L263,156c0,0,-14,-43,-14,-66c0,0,0,-17,19,-30c0,0,13,-9,65,-9h93c0,0,145,0,233,51c0,0,87,52,157,180h27L747,0Z" 
id="f2_15"
transform="scale(0.001,-0.001)" />

<path d="M0,214v74H784V214ZM0,494v72H784V494Z" 
id="f1_x"
transform="scale(0.001,-0.001)" />

<path d="M52,62L0,114L278,390L0,667l52,52L330,442L608,719l51,-51L382,390L659,114L608,62L330,338L52,62Z" 
id="f1_3a"
transform="scale(0.001,-0.001)" />

<path d="M355,0V355H0v72H355V784h72V427H782V355H427V0Z" 
id="f1_f"
transform="scale(0.001,-0.001)" />

<path d="M379,437c0,0,34,0,81,16c0,0,47,17,83,47c0,0,14,97,14,155c0,0,0,72,-25,156c0,0,-25,83,-70,128c0,0,-45,45,-103,45c0,0,-66,0,-116,-60c0,0,-50,-59,-50,-177c0,0,0,-157,66,-246c0,0,49,-64,120,-64ZM80,-20V7c0,0,97,1,181,45c0,0,83,44,161,153c0,0,78,109,109,240c0,0,-117,-75,-212,-75c0,0,-107,0,-183,82c0,0,-76,82,-76,219c0,0,0,132,76,236c0,0,92,126,240,126c0,0,124,0,213,-103c0,0,109,-128,109,-315c0,0,0,-169,-82,-314C616,301,533,155,385,59c0,0,-120,-79,-262,-79Z" 
id="f3_t"
transform="scale(0.001,-0.001)" />

<path d="M197,0V27c0,0,71,2,92,13c0,0,21,10,29,29c0,0,9,18,9,109V725c0,0,0,110,-8,141c0,0,-5,24,-19,35c0,0,-14,11,-33,11c0,0,-28,0,-77,-23l-11,23l246,121h25V178c0,0,0,-85,7,-106c0,0,7,-21,29,-32c0,0,23,-11,91,-13V0Z" 
id="f3_l"
transform="scale(0.001,-0.001)" />

<path d="M275,-20L578,891H299c0,0,-84,0,-120,-20c0,0,-63,-35,-101,-106l-21,8l97,239H696V983L359,-20Z" 
id="f3_r"
transform="scale(0.001,-0.001)" />

<path d="M232,-21l84,842c0,0,6,64,6,86c0,0,0,34,-25,56c0,0,-25,23,-79,23H191l7,26H598l-9,-26c0,0,-64,-1,-89,-14c0,0,-24,-13,-38,-44c0,0,-8,-16,-16,-94L387,231L781,769c0,0,65,88,81,123c0,0,11,23,11,40c0,0,0,20,-17,36c0,0,-17,15,-64,18l9,26h304l-8,-26c0,0,-36,-3,-58,-15c0,0,-41,-19,-82,-59c0,0,-40,-39,-128,-159L259,-21Z" 
id="f2_1m"
transform="scale(0.001,-0.001)" />

<path d="M0,356v74H784V356Z" 
id="f1_h"
transform="scale(0.001,-0.001)" />

<path d="M0,214v74H784V214ZM0,494v72H784V494Z" 
id="f4_x"
transform="scale(0.001,-0.001)" />

<path d="M0,356v74H784V356Z" 
id="f4_h"
transform="scale(0.001,-0.001)" />

<path d="M27,354v62H831V354Zm0,243v62H831V597Z" 
id="f3_x"
transform="scale(0.001,-0.001)" />

<path d="M191,-20c0,0,-34,0,-58,24c0,0,-24,24,-24,58c0,0,0,35,24,59c0,0,24,24,58,24c0,0,35,0,59,-24c0,0,24,-25,24,-59c0,0,0,-34,-24,-58c0,0,-25,-24,-59,-24Z" 
id="f3_i"
transform="scale(0.001,-0.001)" />

<path d="M551,-22c0,0,-165,0,-251,56c0,0,-86,57,-122,154c0,0,-24,67,-24,250V833c0,0,0,93,-25,123c0,0,-26,29,-83,29H8v27H444V985H405c0,0,-62,0,-89,-40c0,0,-19,-27,-19,-112V392c0,0,0,-59,11,-135c0,0,11,-76,39,-118c0,0,29,-43,82,-70c0,0,53,-28,131,-28c0,0,99,0,178,43c0,0,78,44,107,111c0,0,29,68,29,229V833c0,0,0,95,-21,119c0,0,-29,33,-86,33H729v27h357V985h-38c0,0,-59,0,-91,-50c0,0,-16,-23,-16,-108V417c0,0,0,-152,-30,-236C911,181,881,97,792,37c0,0,-88,-59,-241,-59Z" 
id="f3_1l"
transform="scale(0.001,-0.001)" />

<path d="M312,-20c0,0,-62,0,-143,22c0,0,-25,8,-40,8c0,0,-18,0,-27,-19H77V234h25c0,0,21,-105,80,-158c0,0,59,-53,132,-53c0,0,51,0,84,31c0,0,32,30,32,72c0,0,0,52,-36,87c0,0,-36,35,-144,88c0,0,-109,54,-142,97c0,0,-34,43,-34,107c0,0,0,85,58,141c0,0,58,57,150,57c0,0,40,0,97,-17c0,0,38,-11,51,-11c0,0,12,0,19,5c0,0,7,5,15,23h25V470H464c0,0,-28,110,-72,149c0,0,-45,40,-113,40c0,0,-53,0,-85,-28c0,0,-32,-27,-32,-61c0,0,0,-41,24,-71c0,0,23,-31,94,-65L389,381c0,0,152,-74,152,-194c0,0,0,-94,-71,-151c0,0,-70,-56,-158,-56Z" 
id="f3_2f"
transform="scale(0.001,-0.001)" />

<path d="M55,0V26c0,0,50,0,67,10c0,0,17,10,27,32c0,0,10,23,10,86V418c0,0,0,111,-6,144c0,0,-6,24,-17,33c0,0,-11,10,-30,10c0,0,-21,0,-51,-11L45,620l206,83h33V154c0,0,0,-64,9,-85c0,0,9,-22,27,-32c0,0,19,-11,67,-11V0ZM222,909c0,0,-32,0,-54,23c0,0,-22,22,-22,53c0,0,0,32,22,54c0,0,22,22,54,22c0,0,31,0,53,-22c0,0,22,-22,22,-54c0,0,0,-31,-22,-53c0,0,-22,-23,-53,-23Z" 
id="f3_25"
transform="scale(0.001,-0.001)" />

<path d="M21,0V26H35c0,0,53,0,71,27c0,0,18,27,18,101V408c0,0,0,123,-5,150c0,0,-6,27,-17,37c0,0,-12,10,-31,10c0,0,-21,0,-50,-11L10,620l206,83h32V558c0,0,120,145,229,145c0,0,56,0,96,-28c0,0,40,-28,64,-92c0,0,16,-45,16,-137V154c0,0,0,-65,11,-88c0,0,8,-19,26,-29c0,0,18,-11,68,-11V0H419V26h14c0,0,47,0,66,15c0,0,20,15,27,43c0,0,3,11,3,70V434c0,0,0,93,-24,135c0,0,-24,42,-81,42c0,0,-88,0,-176,-97V154c0,0,0,-69,9,-86c0,0,10,-21,28,-31c0,0,19,-11,75,-11V0Z" 
id="f3_2a"
transform="scale(0.001,-0.001)" />

<path d="M411,-239c0,0,134,0,198,48c0,0,64,47,64,100c0,0,0,39,-38,55c0,0,-39,16,-154,19c0,0,-167,5,-258,17c0,0,-35,-37,-53,-70c0,0,-17,-32,-17,-60c0,0,0,-36,43,-62c0,0,74,-47,215,-47ZM380,257c0,0,56,0,93,43c0,0,36,42,36,133c0,0,0,118,-51,185c0,0,-38,49,-98,49c0,0,-55,0,-92,-44c0,0,-37,-44,-37,-135c0,0,0,-117,50,-182c0,0,39,-49,99,-49ZM345,-328c0,0,-144,0,-243,64c0,0,-56,38,-56,78c0,0,0,18,8,36c0,0,13,27,52,76c0,0,5,7,76,80c0,0,-39,23,-55,41c0,0,-16,19,-16,42c0,0,0,26,22,61c0,0,21,35,98,100c0,0,-63,30,-97,85c0,0,-33,55,-33,121c0,0,0,101,76,174c0,0,77,73,196,73c0,0,98,0,170,-48H688c0,0,32,0,37,-2c0,0,6,-2,8,-6c0,0,4,-7,4,-24c0,0,0,-20,-4,-27c0,0,-2,-4,-7,-6c0,0,-6,-2,-38,-2H599c0,0,41,-54,41,-137c0,0,0,-96,-73,-163c0,0,-73,-68,-196,-68c0,0,-51,0,-104,15c0,0,-33,-28,-44,-49c0,0,-12,-22,-12,-37c0,0,0,-12,13,-24c0,0,12,-12,48,-17c0,0,21,-4,104,-6c0,0,154,-4,199,-11c0,0,70,-10,111,-51c0,0,42,-41,42,-102c0,0,0,-84,-79,-158c0,0,-117,-108,-304,-108Z" 
id="f3_23"
transform="scale(0.001,-0.001)" />

<path d="M398,24c0,0,74,0,120,58c0,0,61,76,61,214c0,0,0,156,-69,240c0,0,-47,59,-113,59c0,0,-36,0,-71,-18c0,0,-27,-14,-88,-81V242c0,0,0,-83,6,-109c0,0,11,-43,51,-76c0,0,41,-33,103,-33ZM-4,-326v27H15c5,0,42,0,69,16c0,0,14,8,22,26c0,0,7,19,7,94V481c0,0,0,67,-6,85c0,0,-5,18,-18,27c0,0,-13,9,-36,9c0,0,-18,0,-45,-10L0,615l209,85h29V540c0,0,53,91,106,127c0,0,53,36,112,36c0,0,103,0,172,-80c0,0,84,-99,84,-257c0,0,0,-176,-102,-292c0,0,-83,-94,-210,-94c0,0,-55,0,-95,16c0,0,-30,10,-67,44V-167c0,0,0,-71,8,-90c0,0,9,-20,30,-31c0,0,21,-11,77,-11v-27Z" 
id="f3_2c"
transform="scale(0.001,-0.001)" />

<path d="M17,0V26c0,0,52,0,77,17c0,0,19,12,26,38c0,0,4,13,4,73V419c0,0,0,119,-5,142c0,0,-4,23,-17,33c0,0,-13,11,-33,11c0,0,-23,0,-52,-11l-7,26l207,83h31V549c0,0,86,154,176,154c0,0,41,0,68,-25c0,0,27,-25,27,-58c0,0,0,-29,-20,-49c0,0,-19,-20,-46,-20c0,0,-26,0,-58,25c0,0,-33,26,-48,26c0,0,-14,0,-29,-15c0,0,-34,-30,-70,-101V159c0,0,0,-56,15,-85c0,0,9,-20,34,-34c0,0,24,-14,71,-14V0Z" 
id="f3_2e"
transform="scale(0.001,-0.001)" />

<path d="M406,32c0,0,72,0,119,60c0,0,47,59,47,205c0,0,0,181,-78,286c0,0,-53,71,-135,71c0,0,-40,0,-79,-23c0,0,-40,-24,-65,-83c0,0,-24,-58,-24,-151c0,0,0,-149,59,-257c0,0,59,-108,156,-108ZM374,-20c0,0,-154,0,-245,122c0,0,-77,104,-77,233c0,0,0,94,46,187c0,0,47,92,123,137c0,0,76,44,161,44c0,0,155,0,249,-118c0,0,80,-100,80,-231c0,0,0,-91,-44,-185C667,169,623,75,546,27c0,0,-77,-47,-172,-47Z" 
id="f3_2b"
transform="scale(0.001,-0.001)" />

<path d="M479,469c0,0,-4,66,-16,93c0,0,-18,42,-55,65c0,0,-37,24,-78,24c0,0,-62,0,-111,-48c0,0,-48,-48,-57,-134ZM355,-20c0,0,-123,0,-211,95c0,0,-87,96,-87,258c0,0,0,175,90,273c0,0,89,98,225,98c0,0,115,0,189,-76c0,0,74,-75,74,-202H162c0,0,0,-152,74,-239c0,0,75,-86,175,-86c0,0,67,0,117,36c0,0,50,37,83,127l24,-15c0,0,-16,-102,-91,-186c0,0,-76,-83,-189,-83Z" 
id="f3_21"
transform="scale(0.001,-0.001)" />

<path d="M255,-10c0,0,-35,0,-68,18c0,0,-32,19,-48,55c0,0,-16,35,-16,109V632H15v24c0,0,41,16,84,56c0,0,43,39,77,92c0,0,17,29,48,104h23V683H407V632H247V188c0,0,0,-66,19,-90c0,0,19,-23,49,-23c0,0,24,0,47,16c0,0,23,15,36,45h29c0,0,-26,-73,-74,-110c0,0,-47,-36,-98,-36Z" 
id="f3_2g"
transform="scale(0.001,-0.001)" />

<path d="M63,0V26H93c0,0,30,0,54,15c0,0,25,15,34,41c0,0,10,25,10,99V630H58v53H191v45c0,0,0,102,33,173c0,0,32,71,100,114c0,0,68,44,152,44c0,0,79,0,145,-51c0,0,43,-33,43,-75c0,0,0,-22,-19,-42c0,0,-20,-20,-42,-20c0,0,-17,0,-36,12c0,0,-19,13,-47,53c0,0,-28,41,-51,55c0,0,-23,14,-51,14c0,0,-35,0,-58,-18c0,0,-24,-18,-35,-57c0,0,-10,-38,-10,-197V683H491V630H315V181c0,0,0,-96,21,-122c0,0,27,-33,73,-33h62V0Z" 
id="f3_22"
transform="scale(0.001,-0.001)" />

<path d="M399,62c0,0,68,0,131,68V481c0,0,-5,51,-27,93c0,0,-22,42,-59,63c0,0,-37,21,-72,21c0,0,-65,0,-117,-59c0,0,-67,-77,-67,-226c0,0,0,-151,65,-231c0,0,66,-80,146,-80ZM330,-20c0,0,-112,0,-196,93c0,0,-83,94,-83,240c0,0,0,147,92,269c0,0,93,122,238,122c0,0,90,0,149,-58V773c0,0,0,117,-6,144c0,0,-5,27,-17,37c0,0,-12,9,-30,9c0,0,-20,0,-52,-12l-9,27l204,83h33V270c0,0,0,-120,6,-146c0,0,5,-27,18,-37c0,0,12,-11,28,-11c0,0,21,0,54,13l9,-26L564,-20H530V78C530,78,480,25,432,2c0,0,-47,-22,-102,-22Z" 
id="f3_20"
transform="scale(0.001,-0.001)" />

<path d="M23,0V26c0,0,47,0,66,10c0,0,19,11,28,33c0,0,10,22,10,85V416c0,0,0,112,-7,145c0,0,-5,25,-16,34c0,0,-11,10,-31,10c0,0,-21,0,-50,-11L12,620l207,83h32V557c0,0,75,75,88,86c0,0,34,29,72,44c0,0,39,16,77,16c0,0,64,0,110,-37c0,0,47,-38,62,-109c0,0,77,90,130,118c0,0,53,28,109,28c0,0,54,0,96,-28c0,0,42,-28,67,-91c0,0,16,-43,16,-136V154c0,0,0,-64,10,-88c0,0,8,-16,28,-28c0,0,20,-12,65,-12V0H844V26h14c0,0,44,0,69,18c0,0,17,12,24,38c0,0,3,13,3,72V448c0,0,0,83,-20,117c0,0,-29,48,-93,48c0,0,-39,0,-79,-20c0,0,-40,-19,-97,-73l-1,-8l2,-32V154c0,0,0,-70,8,-87c0,0,7,-17,29,-29c0,0,21,-12,73,-12V0H431V26c0,0,57,0,78,14c0,0,21,13,29,40c0,0,4,13,4,74V448c0,0,0,83,-25,120c0,0,-33,48,-91,48c0,0,-40,0,-80,-22c0,0,-61,-33,-95,-74V154c0,0,0,-67,10,-87c0,0,9,-20,27,-30c0,0,18,-11,74,-11V0Z" 
id="f3_29"
transform="scale(0.001,-0.001)" />

<path d="M286,72c0,0,57,0,149,75V407c0,0,-113,-45,-145,-64c0,0,-59,-32,-85,-68c0,0,-25,-36,-25,-78c0,0,0,-54,32,-89c0,0,32,-36,74,-36ZM217,-13c0,0,-71,0,-116,48c0,0,-46,48,-46,127c0,0,0,50,22,87c0,0,31,50,106,95c0,0,76,45,252,109v26c0,0,0,102,-32,140c0,0,-32,38,-94,38c0,0,-47,0,-74,-25c0,0,-28,-25,-28,-58l1,-43c0,0,0,-34,-17,-53c0,0,-18,-18,-47,-18c0,0,-28,0,-45,19c0,0,-18,19,-18,53c0,0,0,64,66,117c0,0,65,54,184,54c0,0,91,0,149,-31c0,0,44,-23,65,-72c0,0,13,-32,13,-131V238c0,0,0,-98,4,-120c0,0,4,-22,12,-29c0,0,9,-8,20,-8c0,0,12,0,21,5c0,0,16,10,61,55V99C676,99,592,-12,516,-12c0,0,-37,0,-58,24c0,0,-22,26,-23,86C435,98,330,17,303,5c0,0,-40,-18,-86,-18Z" 
id="f3_1x"
transform="scale(0.001,-0.001)" />

<path d="M82,-253v33c0,0,77,25,119,78c0,0,42,54,42,114c0,0,0,14,-7,23c0,0,-5,6,-11,6c0,0,-8,0,-35,-14c0,0,-14,-7,-28,-7c0,0,-37,0,-58,21C104,1,82,23,82,61c0,0,0,36,28,62c0,0,28,27,68,27c0,0,49,0,88,-43c0,0,38,-43,38,-113c0,0,0,-77,-53,-143c0,0,-53,-66,-169,-104Z" 
id="f3_g"
transform="scale(0.001,-0.001)" />

<path d="M376,-20L133,556c0,0,-17,41,-31,58c0,0,-15,18,-39,30c0,0,-12,7,-50,13v26H335V657H314c0,0,-29,0,-44,-14c0,0,-16,-14,-15,-38c0,0,-1,-26,15,-62L429,165L588,557c0,0,17,42,17,64c0,0,0,10,-6,17c0,0,-8,11,-21,15c0,0,-13,4,-52,4v26H750V657c0,0,-39,-3,-54,-16c0,0,-26,-23,-47,-76L409,-20Z" 
id="f3_2i"
transform="scale(0.001,-0.001)" />

<path d="M20,0V26c0,0,45,0,71,15c0,0,15,7,24,28c0,0,9,21,9,85V773c0,0,0,117,-5,144c0,0,-6,27,-17,37c0,0,-12,9,-31,9c0,0,-16,0,-51,-12L10,978l204,83h34V561c0,0,83,91,131,116c0,0,49,26,97,26c0,0,58,0,100,-32c0,0,42,-32,62,-101c0,0,14,-47,14,-174V154c0,0,0,-65,11,-89c0,0,7,-18,25,-28c0,0,18,-11,66,-11V0H418V26h15c0,0,48,0,67,15c0,0,18,15,26,43c0,0,2,12,2,70V396c0,0,0,112,-12,147c0,0,-11,35,-36,53c0,0,-26,17,-61,17c0,0,-37,0,-76,-19c0,0,-40,-20,-95,-79V154c0,0,0,-70,8,-87c0,0,8,-17,29,-29c0,0,22,-12,74,-12V0Z" 
id="f3_24"
transform="scale(0.001,-0.001)" />

<path d="M22,-17c0,0,-29,0,-54,21c0,0,-18,16,-18,44c0,0,0,25,17,41c0,0,16,17,39,17c0,0,24,0,50,-24C56,82,76,65,86,65c0,0,9,0,23,11c0,0,35,28,95,122c0,0,61,93,79,134c0,0,-46,182,-49,193c0,0,-17,49,-45,69c0,0,-27,20,-81,20c0,0,-17,0,-40,-1v26l199,36c0,0,37,-39,55,-78c0,0,14,-26,44,-141l66,99c0,0,26,35,64,68c0,0,37,32,65,44c0,0,18,8,40,8c0,0,32,0,51,-17c0,0,19,-18,19,-42c0,0,0,-29,-11,-39c0,0,-21,-19,-48,-19c0,0,-16,0,-34,7c0,0,-35,12,-47,12c0,0,-18,0,-43,-21c0,0,-46,-39,-111,-150L439,150c0,0,14,-59,24,-71c0,0,10,-11,20,-11c0,0,15,0,37,17c0,0,41,34,70,89l27,-13C617,161,569,73,497,15c0,0,-41,-32,-70,-32c0,0,-42,0,-66,46c0,0,-16,29,-64,251C297,280,180,78,110,20c0,0,-46,-37,-88,-37Z" 
id="f2_2k"
transform="scale(0.001,-0.001)" />

<path d="M-60,-328c0,0,-23,0,-41,17c0,0,-17,18,-17,41c0,0,0,29,24,53c0,0,24,23,53,23c0,0,15,0,24,-6c0,0,6,-4,13,-21c0,0,6,-18,12,-24c0,0,4,-3,9,-3c0,0,5,0,16,7c0,0,41,25,96,81c0,0,71,72,106,119L193,430c0,0,-11,117,-32,142c0,0,-20,25,-70,25c0,0,-15,0,-56,-4l-7,28l219,54c0,0,25,-43,35,-81c0,0,10,-38,20,-148L334,80c0,0,45,54,130,170c0,0,41,56,102,154c0,0,36,59,45,83c0,0,4,12,4,25c0,0,0,8,-5,13c0,0,-6,5,-28,12c0,0,-21,7,-36,26c0,0,-15,19,-15,44c0,0,0,30,18,49c0,0,18,19,45,19c0,0,33,0,56,-28c0,0,23,-27,23,-74c0,0,0,-59,-40,-135c0,0,-40,-76,-155,-232C478,206,363,49,200,-135c0,0,-113,-127,-168,-160c0,0,-53,-33,-92,-33Z" 
id="f2_2l"
transform="scale(0.001,-0.001)" />

<path d="M-41,0V22L474,558H259c0,0,-68,0,-82,-3c0,0,-21,-5,-41,-24c0,0,-21,-19,-42,-63H66l63,189H602V639L86,102H306c0,0,78,0,99,6c0,0,21,6,39,25c0,0,17,20,39,70h26L444,0Z" 
id="f2_2m"
transform="scale(0.001,-0.001)" />

<path d="M107,-21V325h27c0,0,19,-109,52,-163c0,0,33,-54,100,-90c0,0,68,-36,148,-36c0,0,93,0,148,49c0,0,54,50,54,117c0,0,0,37,-21,75c0,0,-20,38,-64,71c0,0,-29,22,-159,95c0,0,-130,72,-185,115c0,0,-55,44,-83,96c0,0,-28,52,-28,114c0,0,0,109,83,188c0,0,84,78,213,78c0,0,81,0,171,-39c0,0,42,-19,59,-19c0,0,20,0,32,11c0,0,12,12,20,47h27V684H674c0,0,-14,101,-48,161c0,0,-35,60,-100,95c0,0,-64,35,-133,35c0,0,-77,0,-128,-47c0,0,-51,-48,-51,-108c0,0,0,-46,32,-84c0,0,47,-56,221,-149c0,0,142,-76,194,-117c0,0,51,-41,80,-96c0,0,28,-55,28,-115c0,0,0,-115,-90,-198c0,0,-89,-82,-229,-82c0,0,-44,0,-83,6c0,0,-23,4,-95,27c0,0,-73,24,-93,24c0,0,-18,0,-29,-11c0,0,-11,-12,-16,-46Z" 
id="f3_1j"
transform="scale(0.001,-0.001)" />

<path d="M58,0V26c0,0,47,0,64,10c0,0,18,10,28,32c0,0,9,23,9,86V775c0,0,0,116,-5,142c0,0,-5,27,-17,37c0,0,-11,9,-29,9c0,0,-20,0,-49,-12L46,978l204,83h34V154c0,0,0,-64,9,-85c0,0,9,-21,29,-32c0,0,19,-11,72,-11V0Z" 
id="f3_28"
transform="scale(0.001,-0.001)" />

<path d="M213,-20c0,0,-34,0,-58,24c0,0,-24,24,-24,58c0,0,0,34,24,58c0,0,24,25,58,25c0,0,35,0,59,-25c0,0,24,-24,24,-58c0,0,0,-34,-24,-58c0,0,-25,-24,-59,-24Zm3,559c0,0,-35,0,-59,24c0,0,-24,24,-24,58c0,0,0,35,24,59c0,0,24,24,59,24c0,0,34,0,58,-24c0,0,24,-24,24,-59c0,0,0,-34,-24,-58c0,0,-24,-24,-58,-24Z" 
id="f3_u"
transform="scale(0.001,-0.001)" />

<path d="M-47,0l10,26c0,0,59,2,79,10c0,0,31,14,46,35c0,0,23,35,49,125L312,813c0,0,22,76,22,112c0,0,0,28,-20,44c0,0,-21,16,-77,16c0,0,-13,0,-20,1l9,26H637l-6,-26c0,0,-69,0,-98,-14c0,0,-29,-13,-49,-44c0,0,-13,-20,-44,-126L264,183c0,0,-20,-63,-20,-87c0,0,0,-16,20,-31c0,0,13,-10,59,-10h98c0,0,108,0,172,27c0,0,46,20,85,60c0,0,21,23,74,112l19,33h28L700,0Z" 
id="f2_1c"
transform="scale(0.001,-0.001)" />

<path d="M-39,0l10,26c0,0,58,2,77,11c0,0,30,13,44,34c0,0,20,31,48,128L314,811c0,0,21,75,21,114c0,0,0,20,-9,33c0,0,-9,14,-29,21c0,0,-20,7,-77,7l9,26H626l-8,-26c0,0,-1,0,-2,0c-9,0,-51,-1,-72,-11c0,0,-35,-15,-51,-39c0,0,-23,-33,-50,-124L372,560H843l72,251c0,0,21,74,21,114c0,0,0,19,-9,33c0,0,-10,14,-29,21c0,0,-20,7,-76,7l7,26h405l-9,-26h-2c-9,0,-52,-1,-74,-11c0,0,-36,-16,-53,-40c0,0,-25,-35,-50,-124L867,186c0,0,-22,-71,-22,-101c0,0,0,-27,19,-40c0,0,20,-14,95,-19L950,0H563l10,26c0,0,58,2,78,11c0,0,29,13,43,34c0,0,19,30,48,128l88,309H357L266,186c0,0,-22,-70,-22,-101c0,0,0,-27,19,-40c0,0,20,-14,94,-19L351,0Z" 
id="f2_18"
transform="scale(0.001,-0.001)" />

<path d="M11,-21L94,353h25c0,0,-5,-54,-5,-90c0,0,0,-102,65,-167c0,0,66,-64,171,-64c0,0,98,0,149,60c0,0,51,60,51,138c0,0,0,51,-23,93c0,0,-36,62,-188,217c0,0,-74,75,-95,111c0,0,-35,61,-35,127c0,0,0,106,80,181c0,0,79,75,203,75c0,0,42,0,79,-8c0,0,24,-4,85,-30c0,0,43,-17,48,-19c0,0,10,-2,23,-2c0,0,22,0,37,11c0,0,16,12,37,48h27L751,699H726c0,0,3,45,3,72c0,0,0,90,-60,148c0,0,-60,57,-158,57c0,0,-77,0,-126,-46c0,0,-49,-45,-49,-105c0,0,0,-52,31,-99c0,0,31,-47,143,-154c0,0,112,-107,145,-167c0,0,33,-60,33,-128c0,0,0,-77,-41,-149C647,128,606,57,530,17c0,0,-76,-38,-167,-38c0,0,-45,0,-83,8c0,0,-39,8,-125,39c0,0,-29,11,-48,11c0,0,-44,0,-69,-58Z" 
id="f2_1j"
transform="scale(0.001,-0.001)" />

<path d="M106,-253v33c0,0,76,25,118,78c0,0,42,54,42,113c0,0,0,15,-7,24c0,0,-5,6,-10,6c0,0,-8,0,-36,-14c0,0,-13,-7,-28,-7c0,0,-36,0,-58,21c0,0,-21,22,-21,60c0,0,0,36,28,62c0,0,27,27,68,27c0,0,49,0,87,-43c0,0,39,-43,39,-113c0,0,0,-77,-54,-143c0,0,-53,-66,-168,-104ZM210,540c0,0,-35,0,-59,24c0,0,-24,24,-24,59c0,0,0,34,24,58c0,0,24,24,59,24c0,0,34,0,58,-24c0,0,24,-24,24,-58c0,0,0,-35,-24,-59c0,0,-24,-24,-58,-24Z" 
id="f3_v"
transform="scale(0.001,-0.001)" />

<path d="M518,-21c0,0,-124,0,-220,50c0,0,-95,52,-145,146c0,0,-50,94,-50,202c0,0,0,166,88,322c0,0,89,157,244,246c0,0,155,89,312,89c0,0,74,0,166,-34c0,0,40,-15,58,-15c0,0,18,0,31,7c0,0,14,8,45,42h28L999,707H972l-3,82c0,0,-4,45,-17,80c0,0,-14,35,-40,61c0,0,-27,26,-68,40c0,0,-41,15,-91,15c0,0,-134,0,-234,-73c0,0,-127,-94,-199,-264c0,0,-60,-140,-60,-284c0,0,0,-147,86,-234c0,0,86,-88,223,-88c0,0,104,0,185,46c0,0,81,47,151,143h35C940,231,858,100,757,39c0,0,-100,-60,-239,-60Z" 
id="f2_13"
transform="scale(0.001,-0.001)" />

<path d="M968,-20c0,0,42,100,87,170c0,0,45,70,144,184H56v73H1199c0,0,-106,122,-148,189c0,0,-43,67,-83,166h60c0,0,87,-108,217,-218c0,0,130,-110,206,-154V349c0,0,-99,-56,-217,-159c0,0,-117,-102,-206,-210Z" 
id="f1_34"
transform="scale(0.001,-0.001)" />

<path d="M0,-123V1415H525v-72H72V-123Z" 
id="f1_4r"
transform="scale(0.001,-0.001)" />

<path d="M478,-123V1343H26v72H550V-123Z" 
id="f1_57"
transform="scale(0.001,-0.001)" />

<path d="M0,-123V1415H72V-51H525v-72Z" 
id="f1_4t"
transform="scale(0.001,-0.001)" />

<path d="M26,-123v72H478V1415h72V-123Z" 
id="f1_59"
transform="scale(0.001,-0.001)" />

<path d="M420,489c0,0,93,0,153,65c0,0,60,65,60,181c0,0,0,116,-62,184c0,0,-61,68,-148,68c0,0,-90,0,-156,-74c0,0,-66,-73,-66,-189c0,0,0,-105,63,-170c0,0,63,-65,156,-65ZM391,-18c0,0,-128,0,-209,71c0,0,-82,71,-98,200l129,12c0,0,17,-91,63,-132c0,0,46,-41,118,-41c0,0,62,0,109,28c0,0,47,29,76,76c0,0,30,47,50,128c0,0,20,80,20,164c0,0,0,9,-1,27c0,0,-40,-65,-110,-105c0,0,-69,-39,-151,-39c0,0,-135,0,-229,98c0,0,-94,99,-94,260c0,0,0,166,98,268c0,0,98,101,245,101c0,0,107,0,195,-57c0,0,89,-58,134,-164c0,0,46,-106,46,-308c0,0,0,-209,-45,-334C737,235,691,111,602,46c0,0,-90,-64,-211,-64Z" 
id="f5_t"
transform="scale(0.001,-0.001)" />


</defs>
</svg>