<?xml version="1.0" encoding="UTF-8" standalone="no"?>
<!DOCTYPE svg PUBLIC "-//W3C//DTD SVG 1.1//EN"
"http://www.w3.org/Graphics/SVG/1.1/DTD/svg11.dtd">
<svg viewBox="0 0 909 1286" version="1.1" xmlns="http://www.w3.org/2000/svg" xmlns:xlink="http://www.w3.org/1999/xlink">
<defs>
<clipPath id="c0_21"><path d="M200.4,111.8V90.9h27.7v20.9Z" /></clipPath>
<clipPath id="c1_21"><path d="M119.9,182.2V161.3H223.3v20.9Z" /></clipPath>
<clipPath id="c2_21"><path d="M208.3,511.4V490.9h13.9v20.5Z" /></clipPath>
<clipPath id="c3_21"><path d="M119.9,663.1V642.2H305.8v20.9Z" /></clipPath>
<clipPath id="c4_21"><path d="M120.1,718.1V697.7h180v20.4Z" /></clipPath>
<clipPath id="c5_21"><path d="M200.9,997.5V977.3h80.3v20.2Z" /></clipPath>
<style type="text/css"><![CDATA[
.g0_21{
fill: #FFFFFF;
}
.g1_21{
fill: none;
stroke: #000000;
stroke-width: 0.9075001;
stroke-linecap: round;
stroke-linejoin: round;
}
.g2_21{
fill: none;
stroke: #000000;
stroke-width: 0.90444446;
stroke-linecap: round;
stroke-linejoin: round;
}
.g3_21{
fill: none;
stroke: #000000;
stroke-width: 0.9029167;
stroke-linecap: round;
stroke-linejoin: round;
}
]]></style>
</defs>
<path fill-rule="evenodd" d="M279.7,577.9L310,574l1.1,9.8v9.5l-1.1,1l-1,1.8l-2,1.8h-2.1l-2.1,1h-3.3l-2,-1l-2.1,-1.8l-2.1,-2.8l-11.5,9.5l-1,-9.5l11.5,-8.7l-11.5,1l-1.1,-7.7Zm16.7,5.9v1.8l1.1,2l1,1.8l1,1.1h3.3l1.1,-1.1l1,-1.8v-4.8l-8.5,1Zm2.1,36.2l2,8.7L310,622l1.1,-1h1l1,-1H298.5Zm-14.7,-7.7l32.7,1l3,10.5l-26.2,20l-2,-8.4l4.1,-2.8L292.3,620h-5.4l-3.1,-7.7ZM329,673.6l-2.3,.8l-3,1l-3.1,1l-3.1,-1l-3.3,-1l-3.1,-.8L309,670.8l-2,-2.1l-2.1,-3.8l-1,-2.8v-6.7l1,-2.8l2.1,-2.9l1,-3l3.1,-1.8l2,-1.8l3.4,-1.1h6.1l3.1,1.1l3.3,1.8l2.1,1.8l2.1,3l2,2.9l1,2.8v6.7l-1,3.8l-1,2.8l-2.1,2.1l-3.1,2.8Zm-16.9,-9.5l3.3,2.8l3.1,.8h3.1l3.1,-1.8l2,-2.8l2.3,-2.8v-3.9l-1,-2.8l-2.3,-2.1l-3.1,-1h-4.1l-3.1,1l-2.3,2.9l-2,2.8V661l1,3.1ZM343.7,709l18.7,-25.9l6.5,5.7l-19.1,25.9L343.7,709Zm20.8,15.2l14.9,-28.8l7.2,4.9L371.9,728l-7.4,-3.8Zm26.2,12.6l7.4,-23.1L392,710.8l3,-6.6l19.8,7.7l-2,6.6l-6.2,-2l-8.5,23.1l-7.4,-2.8Zm58.8,-1.1H458l-4.4,-10.5v-2.8l-1,-2.1v3.9l-1,1l-2.1,10.5Zm-11.6,11.6l9.5,-31.6H458l11.5,31.6H461l-2,-5.9H447.4l-1,5.9h-8.5ZM494.7,709l2.1,9.5l-2.1,-2h-5.4l-3.1,1l-2,2.8l-1.1,3.9l1.1,2.8l1,3.9l2.1,2l3,.8h3.1l2.3,-.8l1.1,-1l2,-1l1,-2.9l2.1,9.5l-1,1.1l-2.1,2l-2,.8h-2.1l-2.3,1h-4.1l-2.1,-1l-4.1,-1.8l-2.3,-2.8l-3.1,-3.1l-1,-3.6l-1,-3.9v-3l1,-3.6l1,-3.1l2.1,-2.8l2.3,-1.8l2,-1.1l3.1,-1.8h8.5Zm22.9,10.6l7.4,-4.9L517.6,707h-1.1v-1l-1,-.8l-1,-1v1l1,.8v2l2.1,11.6Zm-5.2,15.1l-4.1,-33.4l8.2,-4.8l24.2,23.8l-7.2,3.9l-4.4,-4.6l-10.5,5.6l1.3,5.7l-7.5,3.8Zm37.8,-22.1L529.1,689.8l5.4,-4.9l4.1,-4.6l3.1,-2.1l3.3,-1.8h6.2l3.1,1.1l3.1,.7l3.3,3.1l2.1,3.6l1,3.1l1,3.8v3.6l-1,2.1l-1,2.8l-3.1,2.8l-3.4,3.9l-1,1l-5.1,4.6Zm2,-11.3l1.1,-1l2,-2.8l1,-3.9v-2.8l-2,-2.8l-3.1,-3.1l-3.1,-.8l-3.1,.8l-3.3,3.1l-1,.8l11.5,12.5Zm28.3,-20L555.3,663.1l11.6,-16.4l5.4,3.8l-6.5,9.8l4.1,2.8l6.5,-8.7l5.1,3.8l-6.2,8.7l4.1,3.9l6.5,-9.8l6.1,4.9l-11.5,15.4Zm32.6,-63.1l-3.1,7.7L596.4,622h-1.3l-1,-1L592,620h-2l2,1l2.1,1.8l1,1l11.6,9.5l-2.1,4.9l-14.6,-1h-1l-3.1,-1.1h-2.1l2.1,1.1h1l2.1,1l1,1l11.5,7.5l-3,6.9L572.3,637.2l3,-7.7l16.7,1v1h4.4h-1.3l-1,-1l-1,-1l-1.1,-.8L579.4,618.2l3.1,-7.7l30.6,7.7Zm2.1,-21.1l-13.7,-2l-17.7,8.7l1,-9.5l8.3,-3.1l2,-.7h1.3l-1.3,-1.1h-1l-1,-1l-6.2,-4.6l1,-10.5l14.7,14.3l13.6,1.8l-1,7.7Z" class="g0_21" />
<g fill="#000000" >
<use xlink:href="#f0_1x" transform="matrix(12,0,0,12,116.8,124.4)" />
<use xlink:href="#f0_28" transform="matrix(12,0,0,12,124.1,124.4)" />
<use xlink:href="#f0_2f" transform="matrix(12,0,0,12,128.7,124.4)" />
<use xlink:href="#f0_2b" transform="matrix(12,0,0,12,135.1,124.4)" />
</g>
<path d="M184.6,114.3h40.1" class="g1_21" />
<g fill="#000000" >
<use xlink:href="#f0_m" transform="matrix(6.9,0,0,6.9,195.6,125)" />
<use xlink:href="#f0_l" transform="matrix(11.9,0,0,11.9,216.3,133)" />
</g>
<g clip-path="url(#c0_21)">
<g fill="#000000" >
<use xlink:href="#f1_2k" transform="matrix(11.9,0,0,11.9,200.9,107.4)" />
</g>
</g>
<g fill="#000000" >
<use xlink:href="#f1_2l" transform="matrix(11.9,0,0,11.9,160.4,118.9)" />
<use xlink:href="#f1_2k" transform="matrix(11.9,0,0,11.9,186.6,133)" />
<use xlink:href="#f2_x" transform="matrix(11.9,0,0,11.9,171.6,118.9)" />
<use xlink:href="#f2_f" transform="matrix(11.9,0,0,11.9,205.3,133)" />
<use xlink:href="#f0_m" transform="matrix(6.9,0,0,6.9,129.4,169.7)" />
<use xlink:href="#f0_k" transform="matrix(12,0,0,12,210.7,177.8)" />
</g>
<g clip-path="url(#c1_21)">
<g fill="#000000" >
<use xlink:href="#f1_2k" transform="matrix(12,0,0,12,120.5,177.8)" />
<use xlink:href="#f1_2l" transform="matrix(12,0,0,12,137.3,177.8)" />
<use xlink:href="#f1_2k" transform="matrix(12,0,0,12,161.8,177.8)" />
<use xlink:href="#f1_2l" transform="matrix(12,0,0,12,187.1,177.8)" />
</g>
</g>
<g fill="#000000" >
<use xlink:href="#f2_h" transform="matrix(12,0,0,12,148.5,177.8)" />
<use xlink:href="#f2_f" transform="matrix(12,0,0,12,172.7,177.8)" />
<use xlink:href="#f2_x" transform="matrix(12,0,0,12,198.3,177.8)" />
<use xlink:href="#f0_k" transform="matrix(11.9,0,0,11.9,145.6,214.3)" />
<use xlink:href="#f0_25" transform="matrix(11.9,0,0,11.9,166.6,214.3)" />
<use xlink:href="#f0_22" transform="matrix(11.9,0,0,11.9,171.8,214.3)" />
<use xlink:href="#f0_25" transform="matrix(11.9,0,0,11.9,197.4,214.3)" />
<use xlink:href="#f0_2f" transform="matrix(11.9,0,0,11.9,202.5,214.3)" />
<use xlink:href="#f0_2e" transform="matrix(11.9,0,0,11.9,215.7,214.3)" />
<use xlink:href="#f0_21" transform="matrix(11.9,0,0,11.9,221.8,214.3)" />
<use xlink:href="#f0_1x" transform="matrix(11.9,0,0,11.9,229.7,214.3)" />
<use xlink:href="#f0_28" transform="matrix(11.9,0,0,11.9,237.7,214.3)" />
<use xlink:href="#f1_2k" transform="matrix(11.9,0,0,11.9,187.2,214.3)" />
<use xlink:href="#f2_14" transform="matrix(11.9,0,0,11.9,119.5,214.3)" />
<use xlink:href="#f2_39" transform="matrix(11.9,0,0,11.9,133.3,214.3)" />
<use xlink:href="#f0_m" transform="matrix(6.9,0,0,6.9,148.5,245.4)" />
<use xlink:href="#f0_o" transform="matrix(12,0,0,12,170.7,253.5)" />
<use xlink:href="#f0_k" transform="matrix(12,0,0,12,220.3,253.5)" />
<use xlink:href="#f1_12" transform="matrix(12,0,0,12,136.4,253.5)" />
<use xlink:href="#f1_11" transform="matrix(12,0,0,12,181.5,253.5)" />
<use xlink:href="#f1_13" transform="matrix(12,0,0,12,192.7,253.5)" />
<use xlink:href="#f2_1s" transform="matrix(12,0,0,12,116.8,253.5)" />
<use xlink:href="#f2_h" transform="matrix(12,0,0,12,158.2,253.5)" />
<use xlink:href="#f2_39" transform="matrix(12,0,0,12,208,253.5)" />
<use xlink:href="#f0_m" transform="matrix(6.9,0,0,6.9,150.3,285.6)" />
<use xlink:href="#f0_c" transform="matrix(12,0,0,12,119.4,293.6)" />
<use xlink:href="#f0_l" transform="matrix(12,0,0,12,135.8,293.6)" />
<use xlink:href="#f0_d" transform="matrix(12,0,0,12,143.5,293.6)" />
<use xlink:href="#f0_o" transform="matrix(12,0,0,12,172.5,293.6)" />
<use xlink:href="#f0_k" transform="matrix(12,0,0,12,243.2,293.6)" />
<use xlink:href="#f1_2l" transform="matrix(12,0,0,12,196.4,293.6)" />
<use xlink:href="#f1_2l" transform="matrix(12,0,0,12,220.2,293.6)" />
<use xlink:href="#f2_h" transform="matrix(12,0,0,12,125.8,293.6)" />
<use xlink:href="#f2_h" transform="matrix(12,0,0,12,159.8,293.6)" />
<use xlink:href="#f2_3a" transform="matrix(12,0,0,12,182.7,293.6)" />
<use xlink:href="#f2_3a" transform="matrix(12,0,0,12,206.4,293.6)" />
<use xlink:href="#f2_39" transform="matrix(12,0,0,12,230.9,293.6)" />
<use xlink:href="#f0_m" transform="matrix(6.9,0,0,6.9,160.6,325.7)" />
<use xlink:href="#f0_l" transform="matrix(12,0,0,12,117.5,333.8)" />
<use xlink:href="#f0_o" transform="matrix(12,0,0,12,140.2,333.8)" />
<use xlink:href="#f0_k" transform="matrix(12,0,0,12,182.4,333.8)" />
<use xlink:href="#f1_2l" transform="matrix(12,0,0,12,151.4,333.8)" />
<use xlink:href="#f2_h" transform="matrix(12,0,0,12,127.6,333.8)" />
<use xlink:href="#f2_39" transform="matrix(12,0,0,12,169.9,333.8)" />
<use xlink:href="#f0_c" transform="matrix(11.9,0,0,11.9,119.4,370.1)" />
<use xlink:href="#f0_l" transform="matrix(11.9,0,0,11.9,123.9,370.1)" />
<use xlink:href="#f0_m" transform="matrix(11.9,0,0,11.9,147.8,370.1)" />
<use xlink:href="#f0_d" transform="matrix(11.9,0,0,11.9,167.7,370.1)" />
<use xlink:href="#f0_c" transform="matrix(11.9,0,0,11.9,176.2,370.1)" />
<use xlink:href="#f0_l" transform="matrix(11.9,0,0,11.9,180.8,370.1)" />
<use xlink:href="#f0_m" transform="matrix(11.9,0,0,11.9,204.9,370.1)" />
<use xlink:href="#f0_d" transform="matrix(11.9,0,0,11.9,224.9,370.1)" />
<use xlink:href="#f0_k" transform="matrix(11.9,0,0,11.9,245.6,370.1)" />
<use xlink:href="#f1_2l" transform="matrix(11.9,0,0,11.9,159,370.1)" />
<use xlink:href="#f1_2l" transform="matrix(11.9,0,0,11.9,216.1,370.1)" />
<use xlink:href="#f2_h" transform="matrix(11.9,0,0,11.9,134.6,370.1)" />
<use xlink:href="#f2_f" transform="matrix(11.9,0,0,11.9,191.4,370.1)" />
<use xlink:href="#f2_39" transform="matrix(11.9,0,0,11.9,233.4,370.1)" />
<use xlink:href="#f0_c" transform="matrix(11.9,0,0,11.9,119.4,405.8)" />
<use xlink:href="#f0_m" transform="matrix(11.9,0,0,11.9,125.8,405.8)" />
<use xlink:href="#f0_l" transform="matrix(11.9,0,0,11.9,159.8,405.8)" />
<use xlink:href="#f0_d" transform="matrix(11.9,0,0,11.9,167.6,405.8)" />
<use xlink:href="#f0_c" transform="matrix(11.9,0,0,11.9,175.8,405.8)" />
<use xlink:href="#f0_m" transform="matrix(11.9,0,0,11.9,182.4,405.8)" />
<use xlink:href="#f0_l" transform="matrix(11.9,0,0,11.9,215.4,405.8)" />
<use xlink:href="#f0_d" transform="matrix(11.9,0,0,11.9,223.3,405.8)" />
<use xlink:href="#f0_k" transform="matrix(11.9,0,0,11.9,243.8,405.8)" />
<use xlink:href="#f1_2l" transform="matrix(11.9,0,0,11.9,137,405.8)" />
<use xlink:href="#f1_2l" transform="matrix(11.9,0,0,11.9,193.6,405.8)" />
<use xlink:href="#f2_h" transform="matrix(11.9,0,0,11.9,148.7,405.8)" />
<use xlink:href="#f2_f" transform="matrix(11.9,0,0,11.9,204.6,405.8)" />
<use xlink:href="#f2_2t" transform="matrix(11.9,0,0,11.9,231.5,405.8)" />
</g>
<path d="M149.5,452.6h10.9m41.2,0h10.9" class="g2_21" />
<g fill="#000000" >
<use xlink:href="#f0_l" transform="matrix(11.9,0,0,11.9,150.3,445.6)" />
<use xlink:href="#f0_l" transform="matrix(11.9,0,0,11.9,202.4,445.6)" />
<use xlink:href="#f0_m" transform="matrix(11.9,0,0,11.9,150.7,471.3)" />
<use xlink:href="#f0_m" transform="matrix(11.9,0,0,11.9,202.8,471.3)" />
<use xlink:href="#f1_2l" transform="matrix(11.9,0,0,11.9,177.7,457.2)" />
<use xlink:href="#f2_1s" transform="matrix(11.9,0,0,11.9,116.8,457.2)" />
<use xlink:href="#f2_h" transform="matrix(11.9,0,0,11.9,136,457.2)" />
<use xlink:href="#f2_2t" transform="matrix(11.9,0,0,11.9,163.3,457.2)" />
<use xlink:href="#f2_2t" transform="matrix(11.9,0,0,11.9,188.6,457.2)" />
<use xlink:href="#f0_13" transform="matrix(12,0,0,12,116.8,506.5)" />
<use xlink:href="#f0_2b" transform="matrix(12,0,0,12,128.7,506.5)" />
<use xlink:href="#f0_20" transform="matrix(12,0,0,12,137.5,506.5)" />
<use xlink:href="#f0_2b" transform="matrix(12,0,0,12,146.3,506.5)" />
<use xlink:href="#f0_29" transform="matrix(12,0,0,12,155.1,506.5)" />
<use xlink:href="#f0_1x" transform="matrix(12,0,0,12,169.2,506.5)" />
<use xlink:href="#f0_25" transform="matrix(12,0,0,12,176.9,506.5)" />
<use xlink:href="#f0_2a" transform="matrix(12,0,0,12,181.7,506.5)" />
</g>
<g clip-path="url(#c2_21)">
<g fill="#000000" >
<use xlink:href="#f1_1i" transform="matrix(11.9,0,0,11.9,208.5,507)" />
</g>
</g>
<g fill="#000000" >
<use xlink:href="#f2_40" transform="matrix(11.9,0,0,11.9,194.3,507)" />
<use xlink:href="#f0_12" transform="matrix(12,0,0,12,116.8,564.4)" />
<use xlink:href="#f0_2h" transform="matrix(12,0,0,12,128.7,564.4)" />
<use xlink:href="#f0_2g" transform="matrix(12,0,0,12,137.5,564.4)" />
<use xlink:href="#f0_2e" transform="matrix(12,0,0,12,145.6,564.4)" />
<use xlink:href="#f0_1x" transform="matrix(12,0,0,12,151.4,564.4)" />
<use xlink:href="#f0_2a" transform="matrix(12,0,0,12,159.3,564.4)" />
<use xlink:href="#f0_23" transform="matrix(12,0,0,12,168.1,564.4)" />
<use xlink:href="#f0_21" transform="matrix(12,0,0,12,176.9,564.4)" />
</g>
<path d="M223.4,555.8h10.9m13.2,0h10.9" class="g2_21" />
<g fill="#000000" >
<use xlink:href="#f0_l" transform="matrix(11.9,0,0,11.9,224.2,548.8)" />
<use xlink:href="#f0_l" transform="matrix(11.9,0,0,11.9,248.4,548.8)" />
<use xlink:href="#f0_g" transform="matrix(11.9,0,0,11.9,236.9,560.4)" />
<use xlink:href="#f0_m" transform="matrix(11.9,0,0,11.9,224.6,574.7)" />
<use xlink:href="#f0_m" transform="matrix(11.9,0,0,11.9,248.6,574.7)" />
<use xlink:href="#f2_4r" transform="matrix(11.9,0,0,11.9,202.8,550.3)" />
<use xlink:href="#f2_57" transform="matrix(11.9,0,0,11.9,260,550.3)" />
<use xlink:href="#f2_40" transform="matrix(11.9,0,0,11.9,188.7,560.4)" />
<use xlink:href="#f2_h" transform="matrix(11.9,0,0,11.9,210.5,560.4)" />
<use xlink:href="#f2_4s" transform="matrix(11.9,0,0,11.9,202.8,567.7)" />
<use xlink:href="#f2_58" transform="matrix(11.9,0,0,11.9,260,567.7)" />
<use xlink:href="#f2_4t" transform="matrix(11.9,0,0,11.9,202.8,576.7)" />
<use xlink:href="#f2_59" transform="matrix(11.9,0,0,11.9,260,576.7)" />
<use xlink:href="#f2_1s" transform="matrix(11.7,0,0,11.7,116.6,611.7)" />
<use xlink:href="#f0_16" transform="matrix(12,0,0,12,137,609.7)" />
<use xlink:href="#f0_2h" transform="matrix(12,0,0,12,146.9,609.7)" />
<use xlink:href="#f0_2a" transform="matrix(12,0,0,12,155.7,609.7)" />
<use xlink:href="#f0_1z" transform="matrix(12,0,0,12,164.5,609.7)" />
<use xlink:href="#f0_2g" transform="matrix(12,0,0,12,172.3,609.7)" />
<use xlink:href="#f0_25" transform="matrix(12,0,0,12,177.1,609.7)" />
<use xlink:href="#f0_2b" transform="matrix(12,0,0,12,181.9,609.7)" />
<use xlink:href="#f0_2a" transform="matrix(12,0,0,12,190.9,609.7)" />
<use xlink:href="#f0_25" transform="matrix(12,0,0,12,202.6,609.7)" />
<use xlink:href="#f0_2f" transform="matrix(12,0,0,12,207.5,609.7)" />
<use xlink:href="#f0_2a" transform="matrix(12,0,0,12,217.6,609.7)" />
<use xlink:href="#f0_2b" transform="matrix(12,0,0,12,226.4,609.7)" />
<use xlink:href="#f0_2g" transform="matrix(12,0,0,12,235.2,609.7)" />
<use xlink:href="#f0_2b" transform="matrix(12,0,0,12,243.3,609.7)" />
<use xlink:href="#f0_2a" transform="matrix(12,0,0,12,252.1,609.7)" />
<use xlink:href="#f0_2g" transform="matrix(12,0,0,12,261.1,609.7)" />
<use xlink:href="#f0_2b" transform="matrix(12,0,0,12,265.8,609.7)" />
</g>
<path d="M169.8,654h39.8" class="g2_21" />
<g fill="#000000" >
<use xlink:href="#f0_m" transform="matrix(6.9,0,0,6.9,181,664.7)" />
<use xlink:href="#f0_c" transform="matrix(11.9,0,0,11.9,132.4,658.7)" />
<use xlink:href="#f0_d" transform="matrix(11.9,0,0,11.9,148.5,658.7)" />
<use xlink:href="#f0_1x" transform="matrix(11.9,0,0,11.9,212.5,658.7)" />
<use xlink:href="#f0_2f" transform="matrix(11.9,0,0,11.9,220.6,658.7)" />
<use xlink:href="#f0_u" transform="matrix(11.9,0,0,11.9,249.1,658.7)" />
<use xlink:href="#f0_l" transform="matrix(11.9,0,0,11.9,201.3,672.8)" />
<use xlink:href="#f1_2k" transform="matrix(11.9,0,0,11.9,186.1,647.1)" />
</g>
<g clip-path="url(#c3_21)">
<g fill="#000000" >
<use xlink:href="#f1_22" transform="matrix(11.9,0,0,11.9,123,658.7)" />
<use xlink:href="#f1_2k" transform="matrix(11.9,0,0,11.9,139.9,658.7)" />
<use xlink:href="#f1_22" transform="matrix(11.9,0,0,11.9,237,658.7)" />
<use xlink:href="#f1_1i" transform="matrix(11.9,0,0,11.9,255.9,658.7)" />
<use xlink:href="#f1_1i" transform="matrix(11.9,0,0,11.9,290.5,658.7)" />
</g>
</g>
<g fill="#000000" >
<use xlink:href="#f1_2k" transform="matrix(11.9,0,0,11.9,171.8,672.8)" />
<use xlink:href="#f2_x" transform="matrix(11.9,0,0,11.9,156.9,658.7)" />
<use xlink:href="#f2_34" transform="matrix(11.9,0,0,11.9,269.7,658.7)" />
<use xlink:href="#f2_f" transform="matrix(11.9,0,0,11.9,190.5,672.8)" />
<use xlink:href="#f0_c" transform="matrix(11.8,0,0,11.8,131.1,713.7)" />
<use xlink:href="#f0_d" transform="matrix(11.8,0,0,11.8,147,713.7)" />
<use xlink:href="#f0_m" transform="matrix(11.8,0,0,11.8,168.3,713.7)" />
<use xlink:href="#f0_l" transform="matrix(11.8,0,0,11.8,200,713.7)" />
<use xlink:href="#f0_1x" transform="matrix(11.8,0,0,11.8,209.7,713.7)" />
<use xlink:href="#f0_2f" transform="matrix(11.8,0,0,11.8,217.7,713.7)" />
<use xlink:href="#f0_u" transform="matrix(11.8,0,0,11.8,243.2,713.7)" />
</g>
<g clip-path="url(#c4_21)">
<g fill="#000000" >
<use xlink:href="#f1_23" transform="matrix(11.8,0,0,11.8,120.5,713.7)" />
<use xlink:href="#f1_2k" transform="matrix(11.8,0,0,11.8,138.4,713.7)" />
<use xlink:href="#f1_2k" transform="matrix(11.8,0,0,11.8,178.5,713.7)" />
<use xlink:href="#f1_23" transform="matrix(11.8,0,0,11.8,231.9,713.7)" />
<use xlink:href="#f1_1i" transform="matrix(11.8,0,0,11.8,250.2,713.7)" />
<use xlink:href="#f1_1i" transform="matrix(11.8,0,0,11.8,284.8,713.7)" />
</g>
</g>
<g fill="#000000" >
<use xlink:href="#f2_x" transform="matrix(11.8,0,0,11.8,155.7,713.7)" />
<use xlink:href="#f2_h" transform="matrix(11.8,0,0,11.8,189.4,713.7)" />
<use xlink:href="#f2_34" transform="matrix(11.8,0,0,11.8,264,713.7)" />
</g>
<path d="M274.2,761.2h76.9" class="g3_21" />
<g fill="#000000" >
<use xlink:href="#f0_m" transform="matrix(6.9,0,0,6.9,315.9,771.8)" />
<use xlink:href="#f0_c" transform="matrix(11.9,0,0,11.9,307.4,754.4)" />
<use xlink:href="#f0_d" transform="matrix(11.9,0,0,11.9,323.6,754.4)" />
<use xlink:href="#f0_c" transform="matrix(11.9,0,0,11.9,119.3,765.7)" />
<use xlink:href="#f0_d" transform="matrix(11.9,0,0,11.9,154.2,765.7)" />
<use xlink:href="#f0_c" transform="matrix(11.9,0,0,11.9,162.6,765.7)" />
<use xlink:href="#f0_d" transform="matrix(11.9,0,0,11.9,178.5,765.7)" />
<use xlink:href="#f0_c" transform="matrix(11.9,0,0,11.9,212.6,765.7)" />
<use xlink:href="#f0_c" transform="matrix(11.9,0,0,11.9,230.6,765.7)" />
<use xlink:href="#f0_d" transform="matrix(11.9,0,0,11.9,246.7,765.7)" />
<use xlink:href="#f0_d" transform="matrix(11.9,0,0,11.9,252.8,765.7)" />
<use xlink:href="#f0_c" transform="matrix(11.9,0,0,11.9,275.2,780)" />
<use xlink:href="#f0_c" transform="matrix(11.9,0,0,11.9,293.1,780)" />
<use xlink:href="#f0_d" transform="matrix(11.9,0,0,11.9,309.3,780)" />
<use xlink:href="#f0_l" transform="matrix(11.9,0,0,11.9,336.4,780)" />
<use xlink:href="#f0_d" transform="matrix(11.9,0,0,11.9,344.1,780)" />
<use xlink:href="#f1_23" transform="matrix(11.9,0,0,11.9,296.8,754.4)" />
<use xlink:href="#f1_2k" transform="matrix(11.9,0,0,11.9,315,754.4)" />
<use xlink:href="#f1_22" transform="matrix(11.9,0,0,11.9,129.3,765.7)" />
<use xlink:href="#f1_2b" transform="matrix(11.9,0,0,11.9,134.4,765.7)" />
<use xlink:href="#f1_23" transform="matrix(11.9,0,0,11.9,143.5,765.7)" />
<use xlink:href="#f1_2k" transform="matrix(11.9,0,0,11.9,169.9,765.7)" />
<use xlink:href="#f1_22" transform="matrix(11.9,0,0,11.9,203.1,765.7)" />
<use xlink:href="#f1_23" transform="matrix(11.9,0,0,11.9,220.1,765.7)" />
<use xlink:href="#f1_2k" transform="matrix(11.9,0,0,11.9,238.1,765.7)" />
<use xlink:href="#f1_23" transform="matrix(11.9,0,0,11.9,282.5,780)" />
<use xlink:href="#f1_2k" transform="matrix(11.9,0,0,11.9,300.7,780)" />
<use xlink:href="#f2_x" transform="matrix(11.9,0,0,11.9,187.2,765.7)" />
<use xlink:href="#f2_x" transform="matrix(11.9,0,0,11.9,261.4,765.7)" />
<use xlink:href="#f2_f" transform="matrix(11.9,0,0,11.9,325.6,780)" />
</g>
<path d="M198.3,832.4H282" class="g2_21" />
<g fill="#000000" >
<use xlink:href="#f0_m" transform="matrix(6.9,0,0,6.9,253.2,843.1)" />
<use xlink:href="#f0_m" transform="matrix(11.9,0,0,11.9,220.2,825.5)" />
<use xlink:href="#f0_l" transform="matrix(11.9,0,0,11.9,253,825.5)" />
<use xlink:href="#f0_c" transform="matrix(11.9,0,0,11.9,199.3,851.2)" />
<use xlink:href="#f0_m" transform="matrix(11.9,0,0,11.9,205.7,851.2)" />
<use xlink:href="#f0_l" transform="matrix(11.9,0,0,11.9,238.7,851.2)" />
<use xlink:href="#f0_d" transform="matrix(11.9,0,0,11.9,246.4,851.2)" />
<use xlink:href="#f0_l" transform="matrix(11.9,0,0,11.9,273.7,851.2)" />
<use xlink:href="#f1_2k" transform="matrix(11.9,0,0,11.9,230.5,825.5)" />
<use xlink:href="#f1_2k" transform="matrix(11.9,0,0,11.9,216.2,851.2)" />
<use xlink:href="#f2_h" transform="matrix(11.9,0,0,11.9,241.8,825.5)" />
<use xlink:href="#f2_x" transform="matrix(11.9,0,0,11.9,183.7,837)" />
<use xlink:href="#f2_h" transform="matrix(11.9,0,0,11.9,227.5,851.2)" />
<use xlink:href="#f2_f" transform="matrix(11.9,0,0,11.9,262.9,851.2)" />
</g>
<path d="M189.8,903.9H293.9" class="g2_21" />
<g fill="#000000" >
<use xlink:href="#f0_m" transform="matrix(6.9,0,0,6.9,210.3,914.6)" />
<use xlink:href="#f0_m" transform="matrix(11.9,0,0,11.9,222.4,897)" />
<use xlink:href="#f0_l" transform="matrix(11.9,0,0,11.9,254.1,897)" />
<use xlink:href="#f0_o" transform="matrix(11.9,0,0,11.9,191,922.7)" />
<use xlink:href="#f0_o" transform="matrix(11.9,0,0,11.9,232.6,922.7)" />
<use xlink:href="#f0_l" transform="matrix(11.9,0,0,11.9,264.7,922.7)" />
<use xlink:href="#f0_l" transform="matrix(11.9,0,0,11.9,285.6,922.7)" />
<use xlink:href="#f1_2k" transform="matrix(11.9,0,0,11.9,232.7,897)" />
<use xlink:href="#f1_2k" transform="matrix(11.9,0,0,11.9,201.3,922.7)" />
<use xlink:href="#f1_2k" transform="matrix(11.9,0,0,11.9,242.9,922.7)" />
<use xlink:href="#f2_h" transform="matrix(11.9,0,0,11.9,243.5,897)" />
<use xlink:href="#f2_x" transform="matrix(11.9,0,0,11.9,176.9,908.5)" />
<use xlink:href="#f2_h" transform="matrix(11.9,0,0,11.9,220,922.7)" />
<use xlink:href="#f2_f" transform="matrix(11.9,0,0,11.9,253.7,922.7)" />
<use xlink:href="#f2_f" transform="matrix(11.9,0,0,11.9,274.6,922.7)" />
</g>
<path d="M189.9,974.7h89.2" class="g2_21" />
<g fill="#000000" >
<use xlink:href="#f0_m" transform="matrix(6.9,0,0,6.9,210.5,985.4)" />
<use xlink:href="#f0_m" transform="matrix(11.9,0,0,11.9,214.9,967.8)" />
<use xlink:href="#f0_l" transform="matrix(11.9,0,0,11.9,246.8,967.8)" />
<use xlink:href="#f0_o" transform="matrix(11.9,0,0,11.9,191,993.4)" />
<use xlink:href="#f0_o" transform="matrix(11.9,0,0,11.9,233.9,993.4)" />
<use xlink:href="#f0_m" transform="matrix(11.9,0,0,11.9,269.3,993.4)" />
<use xlink:href="#f1_2k" transform="matrix(11.9,0,0,11.9,225.3,967.8)" />
</g>
<g clip-path="url(#c5_21)">
<g fill="#000000" >
<use xlink:href="#f1_2k" transform="matrix(11.9,0,0,11.9,201.5,993.4)" />
<use xlink:href="#f1_2k" transform="matrix(11.9,0,0,11.9,244.4,993.4)" />
</g>
</g>
<g fill="#000000" >
<use xlink:href="#f2_h" transform="matrix(11.9,0,0,11.9,236.1,967.8)" />
<use xlink:href="#f2_x" transform="matrix(11.9,0,0,11.9,176.9,979.3)" />
<use xlink:href="#f2_h" transform="matrix(11.9,0,0,11.9,220.7,993.4)" />
<use xlink:href="#f2_f" transform="matrix(11.9,0,0,11.9,255.7,993.4)" />
<use xlink:href="#f0_m" transform="matrix(12,0,0,12,64.9,1052.6)" />
<use xlink:href="#f0_r" transform="matrix(12,0,0,12,74.1,1052.6)" />
<use xlink:href="#f0_i" transform="matrix(12,0,0,12,83.2,1052.6)" />
<use xlink:href="#f0_1l" transform="matrix(12,0,0,12,121.9,1052.6)" />
<use xlink:href="#f0_2f" transform="matrix(12,0,0,12,134.8,1052.6)" />
<use xlink:href="#f0_25" transform="matrix(12,0,0,12,141.7,1052.6)" />
<use xlink:href="#f0_2a" transform="matrix(12,0,0,12,146.5,1052.6)" />
<use xlink:href="#f0_23" transform="matrix(12,0,0,12,155.3,1052.6)" />
<use xlink:href="#f0_25" transform="matrix(12,0,0,12,167.2,1052.6)" />
<use xlink:href="#f0_2a" transform="matrix(12,0,0,12,172,1052.6)" />
<use xlink:href="#f0_2g" transform="matrix(12,0,0,12,180.8,1052.6)" />
<use xlink:href="#f0_21" transform="matrix(12,0,0,12,185.7,1052.6)" />
<use xlink:href="#f0_23" transform="matrix(12,0,0,12,193.4,1052.6)" />
<use xlink:href="#f0_2e" transform="matrix(12,0,0,12,202,1052.6)" />
<use xlink:href="#f0_1x" transform="matrix(12,0,0,12,207.7,1052.6)" />
<use xlink:href="#f0_2g" transform="matrix(12,0,0,12,215.6,1052.6)" />
<use xlink:href="#f0_25" transform="matrix(12,0,0,12,220.4,1052.6)" />
<use xlink:href="#f0_2b" transform="matrix(12,0,0,12,225.1,1052.6)" />
<use xlink:href="#f0_2a" transform="matrix(12,0,0,12,234.1,1052.6)" />
<use xlink:href="#f0_g" transform="matrix(12,0,0,12,242.9,1052.6)" />
<use xlink:href="#f0_22" transform="matrix(12,0,0,12,250.1,1052.6)" />
<use xlink:href="#f0_25" transform="matrix(12,0,0,12,255.9,1052.6)" />
<use xlink:href="#f0_2a" transform="matrix(12,0,0,12,260.7,1052.6)" />
<use xlink:href="#f0_20" transform="matrix(12,0,0,12,269.5,1052.6)" />
<use xlink:href="#f0_2g" transform="matrix(12,0,0,12,281.6,1052.6)" />
<use xlink:href="#f0_24" transform="matrix(12,0,0,12,286.4,1052.6)" />
<use xlink:href="#f0_21" transform="matrix(12,0,0,12,295.2,1052.6)" />
<use xlink:href="#f0_1x" transform="matrix(12,0,0,12,306.2,1052.6)" />
<use xlink:href="#f0_2e" transform="matrix(12,0,0,12,313.9,1052.6)" />
<use xlink:href="#f0_21" transform="matrix(12,0,0,12,319.7,1052.6)" />
<use xlink:href="#f0_1x" transform="matrix(12,0,0,12,327.4,1052.6)" />
<use xlink:href="#f0_2b" transform="matrix(12,0,0,12,338.4,1052.6)" />
<use xlink:href="#f0_22" transform="matrix(12,0,0,12,347.2,1052.6)" />
<use xlink:href="#f0_2g" transform="matrix(12,0,0,12,355.8,1052.6)" />
<use xlink:href="#f0_24" transform="matrix(12,0,0,12,360.8,1052.6)" />
<use xlink:href="#f0_21" transform="matrix(12,0,0,12,369.6,1052.6)" />
<use xlink:href="#f0_2e" transform="matrix(12,0,0,12,380.6,1052.6)" />
<use xlink:href="#f0_21" transform="matrix(12,0,0,12,386.3,1052.6)" />
<use xlink:href="#f0_23" transform="matrix(12,0,0,12,394,1052.6)" />
<use xlink:href="#f0_25" transform="matrix(12,0,0,12,402.6,1052.6)" />
<use xlink:href="#f0_2b" transform="matrix(12,0,0,12,407.5,1052.6)" />
<use xlink:href="#f0_2a" transform="matrix(12,0,0,12,416.3,1052.6)" />
<use xlink:href="#f0_25" transform="matrix(12,0,0,12,428.4,1052.6)" />
<use xlink:href="#f0_2a" transform="matrix(12,0,0,12,433.2,1052.6)" />
<use xlink:href="#f0_2g" transform="matrix(12,0,0,12,445.1,1052.6)" />
<use xlink:href="#f0_24" transform="matrix(12,0,0,12,450.1,1052.6)" />
<use xlink:href="#f0_21" transform="matrix(12,0,0,12,458.9,1052.6)" />
<use xlink:href="#f0_22" transform="matrix(12,0,0,12,469.7,1052.6)" />
<use xlink:href="#f0_25" transform="matrix(12,0,0,12,475.4,1052.6)" />
<use xlink:href="#f0_2e" transform="matrix(12,0,0,12,480.2,1052.6)" />
<use xlink:href="#f0_2f" transform="matrix(12,0,0,12,485.8,1052.6)" />
<use xlink:href="#f0_2g" transform="matrix(12,0,0,12,492.8,1052.6)" />
<use xlink:href="#f0_2d" transform="matrix(12,0,0,12,500.7,1052.6)" />
<use xlink:href="#f0_2h" transform="matrix(12,0,0,12,509.7,1052.6)" />
<use xlink:href="#f0_1x" transform="matrix(12,0,0,12,518.5,1052.6)" />
<use xlink:href="#f0_20" transform="matrix(12,0,0,12,526.2,1052.6)" />
<use xlink:href="#f0_2e" transform="matrix(12,0,0,12,535,1052.6)" />
<use xlink:href="#f0_1x" transform="matrix(12,0,0,12,540.8,1052.6)" />
<use xlink:href="#f0_2a" transform="matrix(12,0,0,12,548.5,1052.6)" />
<use xlink:href="#f0_2g" transform="matrix(12,0,0,12,557.3,1052.6)" />
<use xlink:href="#f0_21" transform="matrix(12,0,0,12,565.4,1052.6)" />
<use xlink:href="#f0_2a" transform="matrix(12,0,0,12,573.1,1052.6)" />
<use xlink:href="#f0_1z" transform="matrix(12,0,0,12,581.9,1052.6)" />
<use xlink:href="#f0_28" transform="matrix(12,0,0,12,589.8,1052.6)" />
<use xlink:href="#f0_2b" transform="matrix(12,0,0,12,594.6,1052.6)" />
<use xlink:href="#f0_2f" transform="matrix(12,0,0,12,603.4,1052.6)" />
<use xlink:href="#f0_21" transform="matrix(12,0,0,12,610.3,1052.6)" />
<use xlink:href="#f0_20" transform="matrix(12,0,0,12,618,1052.6)" />
<use xlink:href="#f0_1y" transform="matrix(12,0,0,12,629.9,1052.6)" />
<use xlink:href="#f0_2l" transform="matrix(12,0,0,12,638.9,1052.6)" />
<use xlink:href="#f0_2g" transform="matrix(12,0,0,12,650.1,1052.6)" />
<use xlink:href="#f0_24" transform="matrix(12,0,0,12,655.1,1052.6)" />
<use xlink:href="#f0_21" transform="matrix(12,0,0,12,663.9,1052.6)" />
<use xlink:href="#f0_2k" transform="matrix(12,0,0,12,674.9,1052.6)" />
<use xlink:href="#f0_4y" transform="matrix(12,0,0,12,687,1052.6)" />
<use xlink:href="#f0_1x" transform="matrix(12,0,0,12,699.1,1052.6)" />
<use xlink:href="#f0_2k" transform="matrix(12,0,0,12,706.8,1052.6)" />
<use xlink:href="#f0_25" transform="matrix(12,0,0,12,715.7,1052.6)" />
<use xlink:href="#f0_2f" transform="matrix(12,0,0,12,720.7,1052.6)" />
<use xlink:href="#f0_g" transform="matrix(12,0,0,12,727.5,1052.6)" />
<use xlink:href="#f0_2g" transform="matrix(12,0,0,12,734.6,1052.6)" />
<use xlink:href="#f0_24" transform="matrix(12,0,0,12,739.6,1052.6)" />
<use xlink:href="#f0_21" transform="matrix(12,0,0,12,748.4,1052.6)" />
<use xlink:href="#f0_28" transform="matrix(12,0,0,12,759.4,1052.6)" />
<use xlink:href="#f0_25" transform="matrix(12,0,0,12,764.1,1052.6)" />
<use xlink:href="#f0_2a" transform="matrix(12,0,0,12,768.9,1052.6)" />
<use xlink:href="#f0_21" transform="matrix(12,0,0,12,777.7,1052.6)" />
<use xlink:href="#f1_2l" transform="matrix(11.9,0,0,11.9,793.3,1051.7)" />
<use xlink:href="#f1_2k" transform="matrix(11.9,0,0,11.9,821.5,1051.7)" />
<use xlink:href="#f2_x" transform="matrix(11.9,0,0,11.9,806.3,1051.7)" />
<use xlink:href="#f0_1x" transform="matrix(12,0,0,12,121.2,1082.2)" />
<use xlink:href="#f0_2a" transform="matrix(12,0,0,12,129.1,1082.2)" />
<use xlink:href="#f0_20" transform="matrix(12,0,0,12,138.1,1082.2)" />
<use xlink:href="#f0_2g" transform="matrix(12,0,0,12,150.2,1082.2)" />
<use xlink:href="#f0_24" transform="matrix(12,0,0,12,155.1,1082.2)" />
<use xlink:href="#f0_21" transform="matrix(12,0,0,12,164.1,1082.2)" />
<use xlink:href="#f0_1z" transform="matrix(12,0,0,12,174.9,1082.2)" />
<use xlink:href="#f0_25" transform="matrix(12,0,0,12,182.8,1082.2)" />
<use xlink:href="#f0_2e" transform="matrix(12,0,0,12,187.7,1082.2)" />
<use xlink:href="#f0_1z" transform="matrix(12,0,0,12,193.6,1082.2)" />
<use xlink:href="#f0_28" transform="matrix(12,0,0,12,201.5,1082.2)" />
<use xlink:href="#f0_21" transform="matrix(12,0,0,12,206.3,1082.2)" />
<use xlink:href="#f0_m" transform="matrix(6.9,0,0,6.9,230.1,1075.6)" />
<use xlink:href="#f0_m" transform="matrix(6.9,0,0,6.9,264.5,1075.6)" />
<use xlink:href="#f0_n" transform="matrix(12,0,0,12,289.7,1083.6)" />
<use xlink:href="#f0_m" transform="matrix(12,0,0,12,298.7,1083.6)" />
<use xlink:href="#f1_2k" transform="matrix(12,0,0,12,221.1,1083.6)" />
<use xlink:href="#f1_2l" transform="matrix(12,0,0,12,255.4,1083.6)" />
<use xlink:href="#f2_f" transform="matrix(12,0,0,12,240.2,1083.6)" />
<use xlink:href="#f2_x" transform="matrix(12,0,0,12,275.9,1083.6)" />
<use xlink:href="#f0_1j" transform="matrix(12,0,0,12,64.9,1124)" />
<use xlink:href="#f0_2b" transform="matrix(12,0,0,12,74.1,1124)" />
<use xlink:href="#f0_28" transform="matrix(12,0,0,12,82.1,1124)" />
<use xlink:href="#f0_u" transform="matrix(12,0,0,12,86.2,1124)" />
<use xlink:href="#f0_1g" transform="matrix(12,0,0,12,121.9,1124)" />
<use xlink:href="#f0_2h" transform="matrix(12,0,0,12,132,1124)" />
<use xlink:href="#f0_2g" transform="matrix(12,0,0,12,141,1124)" />
<use xlink:href="#f0_m" transform="matrix(6.9,0,0,6.9,223.3,1117.4)" />
<use xlink:href="#f0_m" transform="matrix(6.9,0,0,6.9,257,1117.4)" />
<use xlink:href="#f0_25" transform="matrix(12,0,0,12,192.5,1125.4)" />
<use xlink:href="#f0_2a" transform="matrix(12,0,0,12,197.6,1125.4)" />
<use xlink:href="#f0_n" transform="matrix(12,0,0,12,278.6,1125.4)" />
<use xlink:href="#f0_m" transform="matrix(12,0,0,12,287.8,1125.4)" />
<use xlink:href="#f1_2l" transform="matrix(12,0,0,12,154,1125.4)" />
<use xlink:href="#f1_2k" transform="matrix(12,0,0,12,178.5,1125.4)" />
<use xlink:href="#f1_2k" transform="matrix(12,0,0,12,214.3,1125.4)" />
<use xlink:href="#f1_2l" transform="matrix(12,0,0,12,247.6,1125.4)" />
<use xlink:href="#f2_x" transform="matrix(12,0,0,12,165.2,1125.4)" />
<use xlink:href="#f2_f" transform="matrix(12,0,0,12,233,1125.4)" />
<use xlink:href="#f2_x" transform="matrix(12,0,0,12,266.5,1125.4)" />
<use xlink:href="#f0_m" transform="matrix(6.9,0,0,6.9,145.9,1156)" />
<use xlink:href="#f0_m" transform="matrix(6.9,0,0,6.9,178.4,1156)" />
<use xlink:href="#f0_n" transform="matrix(12,0,0,12,200.2,1164.1)" />
<use xlink:href="#f0_m" transform="matrix(12,0,0,12,209.4,1164.1)" />
<use xlink:href="#f1_2k" transform="matrix(12,0,0,12,136.8,1164.1)" />
<use xlink:href="#f1_2k" transform="matrix(12,0,0,12,169.4,1164.1)" />
<use xlink:href="#f2_1s" transform="matrix(12,0,0,12,116.8,1164.1)" />
<use xlink:href="#f2_f" transform="matrix(12,0,0,12,155.6,1164.1)" />
<use xlink:href="#f2_x" transform="matrix(12,0,0,12,188.1,1164.1)" />
<use xlink:href="#f3_m" transform="matrix(8,0,0,8,785.4,1264.3)" />
<use xlink:href="#f3_l" transform="matrix(8,0,0,8,792.2,1264.3)" />
</g>
<defs>
<path d="M286,72c0,0,57,0,149,75V407c0,0,-113,-45,-145,-64c0,0,-59,-32,-85,-68c0,0,-25,-36,-25,-78c0,0,0,-54,32,-89c0,0,32,-36,74,-36ZM217,-13c0,0,-71,0,-116,48c0,0,-46,48,-46,127c0,0,0,50,22,87c0,0,31,50,106,95c0,0,76,45,252,109v26c0,0,0,102,-32,140c0,0,-32,38,-94,38c0,0,-47,0,-74,-25c0,0,-28,-25,-28,-58l1,-43c0,0,0,-34,-17,-53c0,0,-18,-18,-47,-18c0,0,-28,0,-45,19c0,0,-18,19,-18,53c0,0,0,64,66,117c0,0,65,54,184,54c0,0,91,0,149,-31c0,0,44,-23,65,-72c0,0,13,-32,13,-131V238c0,0,0,-98,4,-120c0,0,4,-22,12,-29c0,0,9,-8,20,-8c0,0,12,0,21,5c0,0,16,10,61,55V99C676,99,592,-12,516,-12c0,0,-37,0,-58,24c0,0,-22,26,-23,86C435,98,330,17,303,5c0,0,-40,-18,-86,-18Z" 
id="f0_1x"
transform="scale(0.001,-0.001)" />

<path d="M58,0V26c0,0,47,0,64,10c0,0,18,10,28,32c0,0,9,23,9,86V775c0,0,0,116,-5,142c0,0,-5,27,-17,37c0,0,-11,9,-29,9c0,0,-20,0,-49,-12L46,978l204,83h34V154c0,0,0,-64,9,-85c0,0,9,-21,29,-32c0,0,19,-11,72,-11V0Z" 
id="f0_28"
transform="scale(0.001,-0.001)" />

<path d="M312,-20c0,0,-62,0,-143,22c0,0,-25,8,-40,8c0,0,-18,0,-27,-19H77V234h25c0,0,21,-105,80,-158c0,0,59,-53,132,-53c0,0,51,0,84,31c0,0,32,30,32,72c0,0,0,52,-36,87c0,0,-36,35,-144,88c0,0,-109,54,-142,97c0,0,-34,43,-34,107c0,0,0,85,58,141c0,0,58,57,150,57c0,0,40,0,97,-17c0,0,38,-11,51,-11c0,0,12,0,19,5c0,0,7,5,15,23h25V470H464c0,0,-28,110,-72,149c0,0,-45,40,-113,40c0,0,-53,0,-85,-28c0,0,-32,-27,-32,-61c0,0,0,-41,24,-71c0,0,23,-31,94,-65L389,381c0,0,152,-74,152,-194c0,0,0,-94,-71,-151c0,0,-70,-56,-158,-56Z" 
id="f0_2f"
transform="scale(0.001,-0.001)" />

<path d="M406,32c0,0,72,0,119,60c0,0,47,59,47,205c0,0,0,181,-78,286c0,0,-53,71,-135,71c0,0,-40,0,-79,-23c0,0,-40,-24,-65,-83c0,0,-24,-58,-24,-151c0,0,0,-149,59,-257c0,0,59,-108,156,-108ZM374,-20c0,0,-154,0,-245,122c0,0,-77,104,-77,233c0,0,0,94,46,187c0,0,47,92,123,137c0,0,76,44,161,44c0,0,155,0,249,-118c0,0,80,-100,80,-231c0,0,0,-91,-44,-185C667,169,623,75,546,27c0,0,-77,-47,-172,-47Z" 
id="f0_2b"
transform="scale(0.001,-0.001)" />

<path d="M33,0V27c0,0,264,241,371,393c0,0,108,152,108,278c0,0,0,96,-59,158c0,0,-59,62,-141,62c0,0,-75,0,-134,-43c0,0,-59,-44,-88,-128H63c0,0,18,138,95,212c0,0,77,74,193,74c0,0,123,0,205,-80c0,0,83,-79,83,-186c0,0,0,-77,-36,-154c0,0,-55,-121,-179,-256C424,357,238,154,191,112H455c0,0,81,0,114,6c0,0,32,6,58,25c0,0,27,18,46,52h27L630,0Z" 
id="f0_m"
transform="scale(0.001,-0.001)" />

<path d="M197,0V27c0,0,71,2,92,13c0,0,21,10,29,29c0,0,9,18,9,109V725c0,0,0,110,-8,141c0,0,-5,24,-19,35c0,0,-14,11,-33,11c0,0,-28,0,-77,-23l-11,23l246,121h25V178c0,0,0,-85,7,-106c0,0,7,-21,29,-32c0,0,23,-11,91,-13V0Z" 
id="f0_l"
transform="scale(0.001,-0.001)" />

<path d="M22,-17c0,0,-29,0,-54,21c0,0,-18,16,-18,44c0,0,0,25,17,41c0,0,16,17,39,17c0,0,24,0,50,-24C56,82,76,65,86,65c0,0,9,0,23,11c0,0,35,28,95,122c0,0,61,93,79,134c0,0,-46,182,-49,193c0,0,-17,49,-45,69c0,0,-27,20,-81,20c0,0,-17,0,-40,-1v26l199,36c0,0,37,-39,55,-78c0,0,14,-26,44,-141l66,99c0,0,26,35,64,68c0,0,37,32,65,44c0,0,18,8,40,8c0,0,32,0,51,-17c0,0,19,-18,19,-42c0,0,0,-29,-11,-39c0,0,-21,-19,-48,-19c0,0,-16,0,-34,7c0,0,-35,12,-47,12c0,0,-18,0,-43,-21c0,0,-46,-39,-111,-150L439,150c0,0,14,-59,24,-71c0,0,10,-11,20,-11c0,0,15,0,37,17c0,0,41,34,70,89l27,-13C617,161,569,73,497,15c0,0,-41,-32,-70,-32c0,0,-42,0,-66,46c0,0,-16,29,-64,251C297,280,180,78,110,20c0,0,-46,-37,-88,-37Z" 
id="f1_2k"
transform="scale(0.001,-0.001)" />

<path d="M-60,-328c0,0,-23,0,-41,17c0,0,-17,18,-17,41c0,0,0,29,24,53c0,0,24,23,53,23c0,0,15,0,24,-6c0,0,6,-4,13,-21c0,0,6,-18,12,-24c0,0,4,-3,9,-3c0,0,5,0,16,7c0,0,41,25,96,81c0,0,71,72,106,119L193,430c0,0,-11,117,-32,142c0,0,-20,25,-70,25c0,0,-15,0,-56,-4l-7,28l219,54c0,0,25,-43,35,-81c0,0,10,-38,20,-148L334,80c0,0,45,54,130,170c0,0,41,56,102,154c0,0,36,59,45,83c0,0,4,12,4,25c0,0,0,8,-5,13c0,0,-6,5,-28,12c0,0,-21,7,-36,26c0,0,-15,19,-15,44c0,0,0,30,18,49c0,0,18,19,45,19c0,0,33,0,56,-28c0,0,23,-27,23,-74c0,0,0,-59,-40,-135c0,0,-40,-76,-155,-232C478,206,363,49,200,-135c0,0,-113,-127,-168,-160c0,0,-53,-33,-92,-33Z" 
id="f1_2l"
transform="scale(0.001,-0.001)" />

<path d="M0,214v74H784V214ZM0,494v72H784V494Z" 
id="f2_x"
transform="scale(0.001,-0.001)" />

<path d="M355,0V355H0v72H355V784h72V427H782V355H427V0Z" 
id="f2_f"
transform="scale(0.001,-0.001)" />

<path d="M379,29c0,0,41,0,84,37c0,0,43,36,65,121c0,0,34,128,34,362c0,0,0,173,-35,288c0,0,-27,86,-69,122c0,0,-31,25,-74,25c0,0,-51,0,-90,-46c0,0,-54,-62,-73,-195c0,0,-20,-132,-20,-261c0,0,0,-209,52,-341c0,0,42,-112,126,-112Zm-2,-46c0,0,-145,0,-241,170c0,0,-81,144,-81,347c0,0,0,173,52,298c0,0,52,125,139,186c0,0,67,49,139,49c0,0,116,0,208,-119c0,0,116,-147,116,-398c0,0,0,-176,-51,-299C658,217,608,94,529,38c0,0,-79,-55,-152,-55Z" 
id="f0_k"
transform="scale(0.001,-0.001)" />

<path d="M0,356v74H784V356Z" 
id="f2_h"
transform="scale(0.001,-0.001)" />

<path d="M55,0V26c0,0,50,0,67,10c0,0,17,10,27,32c0,0,10,23,10,86V418c0,0,0,111,-6,144c0,0,-6,24,-17,33c0,0,-11,10,-30,10c0,0,-21,0,-51,-11L45,620l206,83h33V154c0,0,0,-64,9,-85c0,0,9,-22,27,-32c0,0,19,-11,67,-11V0ZM222,909c0,0,-32,0,-54,23c0,0,-22,22,-22,53c0,0,0,32,22,54c0,0,22,22,54,22c0,0,31,0,53,-22c0,0,22,-22,22,-54c0,0,0,-31,-22,-53c0,0,-22,-23,-53,-23Z" 
id="f0_25"
transform="scale(0.001,-0.001)" />

<path d="M63,0V26H93c0,0,30,0,54,15c0,0,25,15,34,41c0,0,10,25,10,99V630H58v53H191v45c0,0,0,102,33,173c0,0,32,71,100,114c0,0,68,44,152,44c0,0,79,0,145,-51c0,0,43,-33,43,-75c0,0,0,-22,-19,-42c0,0,-20,-20,-42,-20c0,0,-17,0,-36,12c0,0,-19,13,-47,53c0,0,-28,41,-51,55c0,0,-23,14,-51,14c0,0,-35,0,-58,-18c0,0,-24,-18,-35,-57c0,0,-10,-38,-10,-197V683H491V630H315V181c0,0,0,-96,21,-122c0,0,27,-33,73,-33h62V0Z" 
id="f0_22"
transform="scale(0.001,-0.001)" />

<path d="M17,0V26c0,0,52,0,77,17c0,0,19,12,26,38c0,0,4,13,4,73V419c0,0,0,119,-5,142c0,0,-4,23,-17,33c0,0,-13,11,-33,11c0,0,-23,0,-52,-11l-7,26l207,83h31V549c0,0,86,154,176,154c0,0,41,0,68,-25c0,0,27,-25,27,-58c0,0,0,-29,-20,-49c0,0,-19,-20,-46,-20c0,0,-26,0,-58,25c0,0,-33,26,-48,26c0,0,-14,0,-29,-15c0,0,-34,-30,-70,-101V159c0,0,0,-56,15,-85c0,0,9,-20,34,-34c0,0,24,-14,71,-14V0Z" 
id="f0_2e"
transform="scale(0.001,-0.001)" />

<path d="M479,469c0,0,-4,66,-16,93c0,0,-18,42,-55,65c0,0,-37,24,-78,24c0,0,-62,0,-111,-48c0,0,-48,-48,-57,-134ZM355,-20c0,0,-123,0,-211,95c0,0,-87,96,-87,258c0,0,0,175,90,273c0,0,89,98,225,98c0,0,115,0,189,-76c0,0,74,-75,74,-202H162c0,0,0,-152,74,-239c0,0,75,-86,175,-86c0,0,67,0,117,36c0,0,50,37,83,127l24,-15c0,0,-16,-102,-91,-186c0,0,-76,-83,-189,-83Z" 
id="f0_21"
transform="scale(0.001,-0.001)" />

<path d="M719,62L422,783L93,62ZM0,0L469,1034L896,0Z" 
id="f2_14"
transform="scale(0.001,-0.001)" />

<path d="M45,0V72H795V0Zm0,166v82L673,558L45,870v81L795,578V540L45,166Z" 
id="f2_39"
transform="scale(0.001,-0.001)" />

<path d="M452,373V875L97,373ZM452,0V267H23v95l470,671h82V373H711V267H575V0Z" 
id="f0_o"
transform="scale(0.001,-0.001)" />

<path d="M357,55c0,0,117,0,206,70c0,0,90,70,90,191c0,0,0,92,-56,144c0,0,-57,51,-182,51c0,0,-24,0,-59,-3L231,65c0,0,81,-10,126,-10Zm86,508c0,0,158,0,234,68c0,0,77,67,77,169c0,0,0,76,-48,119c0,0,-48,43,-153,43c0,0,-28,0,-71,-9L372,564c0,0,49,-1,71,-1ZM-34,0l10,26c0,0,57,2,78,12c0,0,30,12,42,33c0,0,18,29,48,131L318,816c0,0,23,78,23,109c0,0,0,28,-20,44c0,0,-21,16,-78,16c0,0,-13,0,-24,1l10,26H594c0,0,92,0,164,-28c0,0,72,-29,108,-79c0,0,36,-51,36,-108c0,0,0,-87,-66,-157c0,0,-66,-71,-216,-104c0,0,99,-35,146,-91c0,0,46,-57,46,-125c0,0,0,-76,-39,-144c0,0,-39,-69,-99,-107C674,69,613,31,527,13C527,13,466,0,336,0Z" 
id="f1_12"
transform="scale(0.001,-0.001)" />

<path d="M600,387l39,398L345,387ZM-74,0l8,26c0,0,55,3,97,37c0,0,42,35,125,149l605,822h26L710,193c0,0,-6,-59,-6,-78c0,0,0,-30,11,-46c0,0,14,-22,39,-32c0,0,24,-11,81,-11L827,0H429l8,26h17c0,0,49,0,79,21c0,0,22,15,34,48c0,0,8,23,15,109l13,128H305L202,193c0,0,-35,-47,-44,-68c0,0,-9,-20,-9,-38c0,0,0,-25,20,-42c0,0,19,-17,64,-19L225,0Z" 
id="f1_11"
transform="scale(0.001,-0.001)" />

<path d="M518,-21c0,0,-124,0,-220,50c0,0,-95,52,-145,146c0,0,-50,94,-50,202c0,0,0,166,88,322c0,0,89,157,244,246c0,0,155,89,312,89c0,0,74,0,166,-34c0,0,40,-15,58,-15c0,0,18,0,31,7c0,0,14,8,45,42h28L999,707H972l-3,82c0,0,-4,45,-17,80c0,0,-14,35,-40,61c0,0,-27,26,-68,40c0,0,-41,15,-91,15c0,0,-134,0,-234,-73c0,0,-127,-94,-199,-264c0,0,-60,-140,-60,-284c0,0,0,-147,86,-234c0,0,86,-88,223,-88c0,0,104,0,185,46c0,0,81,47,151,143h35C940,231,858,100,757,39c0,0,-100,-60,-239,-60Z" 
id="f1_13"
transform="scale(0.001,-0.001)" />

<path d="M83,0C83,0,48,0,24,24C24,24,0,49,0,83c0,0,0,34,24,58c0,0,24,24,59,24c0,0,34,0,58,-24c0,0,24,-24,24,-58c0,0,0,-34,-24,-59C141,24,117,0,83,0ZM695,0c0,0,-34,0,-58,24c0,0,-25,25,-25,59c0,0,0,34,25,58c0,0,24,24,58,24c0,0,34,0,58,-24c0,0,24,-24,24,-58c0,0,0,-34,-24,-59C753,24,729,0,695,0ZM388,594c0,0,-34,0,-59,23c0,0,-24,24,-24,59c0,0,0,34,24,58c0,0,25,25,59,25c0,0,34,0,58,-25c0,0,24,-24,24,-58c0,0,0,-35,-24,-59c0,0,-24,-23,-58,-23Z" 
id="f2_1s"
transform="scale(0.001,-0.001)" />

<path d="M474,-326c0,0,-112,57,-188,133c0,0,-107,108,-165,254c0,0,-58,147,-58,305c0,0,0,231,114,421c0,0,114,191,297,273v-31c0,0,-92,-51,-151,-139c0,0,-59,-88,-88,-223c0,0,-30,-135,-30,-281c0,0,0,-160,25,-290c0,0,20,-102,47,-164c0,0,28,-62,75,-120c0,0,47,-57,122,-109v-29Z" 
id="f0_c"
transform="scale(0.001,-0.001)" />

<path d="M35,-326v29c0,0,92,51,151,139c0,0,60,87,89,221c0,0,28,136,28,282c0,0,0,159,-24,290c0,0,-19,103,-47,165c0,0,-28,62,-75,119c0,0,-46,57,-122,110v31c0,0,113,-56,188,-132c0,0,107,-109,165,-255c0,0,58,-147,58,-306c0,0,0,-231,-114,-420c0,0,-113,-191,-297,-273Z" 
id="f0_d"
transform="scale(0.001,-0.001)" />

<path d="M52,62L0,114L278,390L0,667l52,52L330,442L608,719l51,-51L382,390L659,114L608,62L330,338L52,62Z" 
id="f2_3a"
transform="scale(0.001,-0.001)" />

<path d="M0,0V72H751V0ZM751,166L0,538v38L751,949V868L123,559L751,247V166Z" 
id="f2_2t"
transform="scale(0.001,-0.001)" />

<path d="M548,-21c0,0,-251,0,-389,185C159,164,56,303,56,490c0,0,0,152,68,278c0,0,67,127,186,197c0,0,119,69,260,69c0,0,109,0,216,-53c0,0,31,-17,44,-17c0,0,20,0,35,14c0,0,20,21,28,56h26L943,690H919c0,0,-46,155,-131,224c0,0,-86,68,-206,68c0,0,-100,0,-181,-51c0,0,-81,-52,-128,-163c0,0,-46,-112,-46,-279c0,0,0,-137,44,-238c0,0,44,-101,132,-154c0,0,88,-54,201,-54c0,0,99,0,174,42c0,0,75,42,165,167l23,-14C966,238,890,103,789,40c0,0,-102,-61,-241,-61Z" 
id="f0_13"
transform="scale(0.001,-0.001)" />

<path d="M399,62c0,0,68,0,131,68V481c0,0,-5,51,-27,93c0,0,-22,42,-59,63c0,0,-37,21,-72,21c0,0,-65,0,-117,-59c0,0,-67,-77,-67,-226c0,0,0,-151,65,-231c0,0,66,-80,146,-80ZM330,-20c0,0,-112,0,-196,93c0,0,-83,94,-83,240c0,0,0,147,92,269c0,0,93,122,238,122c0,0,90,0,149,-58V773c0,0,0,117,-6,144c0,0,-5,27,-17,37c0,0,-12,9,-30,9c0,0,-20,0,-52,-12l-9,27l204,83h33V270c0,0,0,-120,6,-146c0,0,5,-27,18,-37c0,0,12,-11,28,-11c0,0,21,0,54,13l9,-26L564,-20H530V78C530,78,480,25,432,2c0,0,-47,-22,-102,-22Z" 
id="f0_20"
transform="scale(0.001,-0.001)" />

<path d="M23,0V26c0,0,47,0,66,10c0,0,19,11,28,33c0,0,10,22,10,85V416c0,0,0,112,-7,145c0,0,-5,25,-16,34c0,0,-11,10,-31,10c0,0,-21,0,-50,-11L12,620l207,83h32V557c0,0,75,75,88,86c0,0,34,29,72,44c0,0,39,16,77,16c0,0,64,0,110,-37c0,0,47,-38,62,-109c0,0,77,90,130,118c0,0,53,28,109,28c0,0,54,0,96,-28c0,0,42,-28,67,-91c0,0,16,-43,16,-136V154c0,0,0,-64,10,-88c0,0,8,-16,28,-28c0,0,20,-12,65,-12V0H844V26h14c0,0,44,0,69,18c0,0,17,12,24,38c0,0,3,13,3,72V448c0,0,0,83,-20,117c0,0,-29,48,-93,48c0,0,-39,0,-79,-20c0,0,-40,-19,-97,-73l-1,-8l2,-32V154c0,0,0,-70,8,-87c0,0,7,-17,29,-29c0,0,21,-12,73,-12V0H431V26c0,0,57,0,78,14c0,0,21,13,29,40c0,0,4,13,4,74V448c0,0,0,83,-25,120c0,0,-33,48,-91,48c0,0,-40,0,-80,-22c0,0,-61,-33,-95,-74V154c0,0,0,-67,10,-87c0,0,9,-20,27,-30c0,0,18,-11,74,-11V0Z" 
id="f0_29"
transform="scale(0.001,-0.001)" />

<path d="M21,0V26H35c0,0,53,0,71,27c0,0,18,27,18,101V408c0,0,0,123,-5,150c0,0,-6,27,-17,37c0,0,-12,10,-31,10c0,0,-21,0,-50,-11L10,620l206,83h32V558c0,0,120,145,229,145c0,0,56,0,96,-28c0,0,40,-28,64,-92c0,0,16,-45,16,-137V154c0,0,0,-65,11,-88c0,0,8,-19,26,-29c0,0,18,-11,68,-11V0H419V26h14c0,0,47,0,66,15c0,0,20,15,27,43c0,0,3,11,3,70V434c0,0,0,93,-24,135c0,0,-24,42,-81,42c0,0,-88,0,-176,-97V154c0,0,0,-69,9,-86c0,0,10,-21,28,-31c0,0,19,-11,75,-11V0Z" 
id="f0_2a"
transform="scale(0.001,-0.001)" />

<path d="M453,539c0,0,129,0,204,71c0,0,75,72,75,178c0,0,0,83,-48,127c0,0,-48,44,-144,44c0,0,-24,0,-58,-6L367,545c0,0,48,-6,86,-6ZM-34,0l8,26c0,0,54,3,74,12c0,0,30,12,45,34c0,0,24,36,50,125L316,809c0,0,18,61,18,95c0,0,0,35,-28,58c0,0,-27,24,-78,24q-1,0,-2,0l9,26H566c0,0,167,0,240,-63c0,0,73,-62,73,-164c0,0,0,-98,-74,-179c0,0,-75,-81,-204,-102L698,207c0,0,36,-110,72,-143c0,0,36,-33,116,-38L877,0H635L473,492c0,0,-1,0,-2,0c-12,0,-63,0,-117,11L265,184c0,0,-18,-56,-18,-94c0,0,0,-29,22,-46c0,0,16,-12,90,-18L352,0Z" 
id="f1_1i"
transform="scale(0.001,-0.001)" />

<path d="M398,0C398,0,266,0,185,39c0,0,-82,39,-133,124C52,163,0,248,0,342c0,0,0,144,103,243c0,0,103,98,292,98H694V611H387c0,0,-99,0,-166,-32c0,0,-68,-32,-105,-88c0,0,-26,-40,-41,-113H694V304H75c0,0,30,-120,103,-176c0,0,73,-56,210,-56H694V0Z" 
id="f2_40"
transform="scale(0.001,-0.001)" />

<path d="M485,53c0,0,135,0,206,61c0,0,71,60,71,150c0,0,0,59,-32,114c0,0,-33,54,-105,85c0,0,-72,32,-179,32c0,0,-46,0,-79,-2c0,0,-33,-1,-53,-5V73c0,0,86,-20,171,-20ZM455,547c0,0,109,0,164,23c0,0,55,24,84,72c0,0,29,49,29,106c0,0,0,89,-72,151c0,0,-73,63,-212,63c0,0,-74,0,-134,-16V557c0,0,27,-5,63,-8c0,0,35,-2,78,-2ZM24,0V27H63c0,0,63,0,91,41c0,0,17,26,17,111V833c0,0,0,94,-22,119c0,0,-29,33,-86,33H24v27H462c0,0,122,0,196,-18c0,0,112,-27,171,-95c0,0,59,-68,59,-157c0,0,0,-76,-46,-136c0,0,-47,-60,-137,-89c0,0,105,-23,157,-72c0,0,73,-69,73,-168c0,0,0,-75,-48,-145C887,132,839,63,756,32C756,32,673,0,502,0Z" 
id="f0_12"
transform="scale(0.001,-0.001)" />

<path d="M292,-20c0,0,-57,0,-100,33c0,0,-42,33,-58,85c0,0,-17,52,-17,148V551c0,0,0,49,-10,68c0,0,-11,18,-31,29c0,0,-19,9,-68,9c-2,0,-4,0,-6,0v26H242V226c0,0,0,-95,33,-125c0,0,33,-30,80,-30c0,0,32,0,73,21c0,0,40,20,96,76V555c0,0,0,59,-21,80c0,0,-22,21,-89,22v26H647V269c0,0,0,-119,6,-145c0,0,6,-27,18,-37c0,0,12,-11,29,-11c0,0,23,0,52,13L763,63L558,-20H524V124C524,124,436,29,390,4c0,0,-47,-24,-98,-24Z" 
id="f0_2h"
transform="scale(0.001,-0.001)" />

<path d="M255,-10c0,0,-35,0,-68,18c0,0,-32,19,-48,55c0,0,-16,35,-16,109V632H15v24c0,0,41,16,84,56c0,0,43,39,77,92c0,0,17,29,48,104h23V683H407V632H247V188c0,0,0,-66,19,-90c0,0,19,-23,49,-23c0,0,24,0,47,16c0,0,23,15,36,45h29c0,0,-26,-73,-74,-110c0,0,-47,-36,-98,-36Z" 
id="f0_2g"
transform="scale(0.001,-0.001)" />

<path d="M411,-239c0,0,134,0,198,48c0,0,64,47,64,100c0,0,0,39,-38,55c0,0,-39,16,-154,19c0,0,-167,5,-258,17c0,0,-35,-37,-53,-70c0,0,-17,-32,-17,-60c0,0,0,-36,43,-62c0,0,74,-47,215,-47ZM380,257c0,0,56,0,93,43c0,0,36,42,36,133c0,0,0,118,-51,185c0,0,-38,49,-98,49c0,0,-55,0,-92,-44c0,0,-37,-44,-37,-135c0,0,0,-117,50,-182c0,0,39,-49,99,-49ZM345,-328c0,0,-144,0,-243,64c0,0,-56,38,-56,78c0,0,0,18,8,36c0,0,13,27,52,76c0,0,5,7,76,80c0,0,-39,23,-55,41c0,0,-16,19,-16,42c0,0,0,26,22,61c0,0,21,35,98,100c0,0,-63,30,-97,85c0,0,-33,55,-33,121c0,0,0,101,76,174c0,0,77,73,196,73c0,0,98,0,170,-48H688c0,0,32,0,37,-2c0,0,6,-2,8,-6c0,0,4,-7,4,-24c0,0,0,-20,-4,-27c0,0,-2,-4,-7,-6c0,0,-6,-2,-38,-2H599c0,0,41,-54,41,-137c0,0,0,-96,-73,-163c0,0,-73,-68,-196,-68c0,0,-51,0,-104,15c0,0,-33,-28,-44,-49c0,0,-12,-22,-12,-37c0,0,0,-12,13,-24c0,0,12,-12,48,-17c0,0,21,-4,104,-6c0,0,154,-4,199,-11c0,0,70,-10,111,-51c0,0,42,-41,42,-102c0,0,0,-84,-79,-158c0,0,-117,-108,-304,-108Z" 
id="f0_23"
transform="scale(0.001,-0.001)" />

<path d="M82,-253v33c0,0,77,25,119,78c0,0,42,54,42,114c0,0,0,14,-7,23c0,0,-5,6,-11,6c0,0,-8,0,-35,-14c0,0,-14,-7,-28,-7c0,0,-37,0,-58,21C104,1,82,23,82,61c0,0,0,36,28,62c0,0,28,27,68,27c0,0,49,0,88,-43c0,0,38,-43,38,-113c0,0,0,-77,-53,-143c0,0,-53,-66,-169,-104Z" 
id="f0_g"
transform="scale(0.001,-0.001)" />

<path d="M0,-123V1415H525v-72H72V-123Z" 
id="f2_4r"
transform="scale(0.001,-0.001)" />

<path d="M478,-123V1343H26v72H550V-123Z" 
id="f2_57"
transform="scale(0.001,-0.001)" />

<path d="M0,-123V1415H72V-123Z" 
id="f2_4s"
transform="scale(0.001,-0.001)" />

<path d="M0,-123V1415H72V-123Z" 
id="f2_58"
transform="scale(0.001,-0.001)" />

<path d="M0,-123V1415H72V-51H525v-72Z" 
id="f2_4t"
transform="scale(0.001,-0.001)" />

<path d="M26,-123v72H478V1415h72V-123Z" 
id="f2_59"
transform="scale(0.001,-0.001)" />

<path d="M24,0V27H60c0,0,63,0,91,37c0,0,18,24,18,115V833c0,0,0,77,-10,102c0,0,-7,18,-30,32c0,0,-32,18,-69,18H24v27H776L787,790H761c0,0,-20,71,-45,104c0,0,-26,33,-64,48c0,0,-37,15,-117,15H312V558H497c0,0,63,0,93,28c0,0,29,28,39,111h27V355H629c0,0,-1,59,-16,87c0,0,-14,27,-40,41c0,0,-26,14,-76,14H312V179c0,0,0,-77,10,-102c0,0,7,-18,31,-32c0,0,33,-18,69,-18h37V0Z" 
id="f0_16"
transform="scale(0.001,-0.001)" />

<path d="M342,-20c0,0,-116,0,-203,97c0,0,-86,98,-86,264c0,0,0,161,96,261c0,0,95,101,230,101c0,0,100,0,165,-53c0,0,65,-54,65,-111c0,0,0,-29,-18,-46c0,0,-18,-18,-51,-18c0,0,-44,0,-66,29c0,0,-13,15,-17,59c0,0,-4,45,-30,68c0,0,-26,22,-73,22c0,0,-74,0,-120,-55c0,0,-60,-73,-60,-193c0,0,0,-122,60,-216c0,0,60,-93,162,-93c0,0,73,0,131,49c0,0,41,35,80,126l22,-10C629,261,601,125,521,52c0,0,-81,-72,-179,-72Z" 
id="f0_1z"
transform="scale(0.001,-0.001)" />

<path d="M213,-20c0,0,-34,0,-58,24c0,0,-24,24,-24,58c0,0,0,34,24,58c0,0,24,25,58,25c0,0,35,0,59,-25c0,0,24,-24,24,-58c0,0,0,-34,-24,-58c0,0,-25,-24,-59,-24Zm3,559c0,0,-35,0,-59,24c0,0,-24,24,-24,58c0,0,0,35,24,59c0,0,24,24,59,24c0,0,34,0,58,-24c0,0,24,-24,24,-59c0,0,0,-34,-24,-58c0,0,-24,-24,-58,-24Z" 
id="f0_u"
transform="scale(0.001,-0.001)" />

<path d="M-162,-328c0,0,-45,0,-77,26c0,0,-23,19,-23,49c0,0,0,23,19,41c0,0,19,17,47,17c0,0,20,0,34,-12c0,0,13,-13,13,-29c0,0,0,-17,-15,-31c0,0,-12,-10,-12,-16c0,0,0,-6,5,-10c0,0,7,-5,21,-5c0,0,32,0,67,20c0,0,36,20,63,60c0,0,27,40,52,115c0,0,10,32,58,205L233,608H89l10,49c0,0,69,0,96,9c0,0,28,8,50,32c0,0,23,25,55,91c0,0,42,90,81,139c0,0,53,66,112,100c0,0,58,33,110,33c0,0,54,0,88,-29c0,0,33,-28,33,-62c0,0,0,-26,-18,-44c0,0,-17,-18,-44,-18c0,0,-23,0,-37,14c0,0,-15,13,-15,32c0,0,0,12,10,29c0,0,10,18,10,24c0,0,0,10,-6,15c0,0,-9,8,-27,8c0,0,-43,0,-77,-31c0,0,-46,-41,-83,-127c0,0,-18,-45,-74,-215H473L460,608H350L260,279C260,279,201,65,145,-51c0,0,-79,-166,-169,-229c0,0,-69,-48,-138,-48Z" 
id="f1_22"
transform="scale(0.001,-0.001)" />

<path d="M968,-20c0,0,42,100,87,170c0,0,45,70,144,184H56v73H1199c0,0,-106,122,-148,189c0,0,-43,67,-83,166h60c0,0,87,-108,217,-218c0,0,130,-110,206,-154V349c0,0,-99,-56,-217,-159c0,0,-117,-102,-206,-210Z" 
id="f2_34"
transform="scale(0.001,-0.001)" />

<path d="M290,-283c0,0,107,0,183,37c0,0,76,36,76,93c0,0,0,29,-28,55c0,0,-28,27,-109,43c0,0,-44,9,-232,55c0,0,-60,-27,-91,-70c0,0,-31,-43,-31,-85c0,0,0,-49,44,-81c0,0,65,-47,188,-47Zm53,531c0,0,39,0,76,22c0,0,37,22,63,60c0,0,25,38,40,96c0,0,15,59,15,85c0,0,0,60,-33,94c0,0,-33,34,-87,34c0,0,-85,0,-139,-84c0,0,-55,-85,-55,-176c0,0,0,-58,35,-94c0,0,35,-37,85,-37ZM269,-328c0,0,-92,0,-168,21c0,0,-76,22,-108,60c0,0,-33,37,-33,76c0,0,0,32,21,67c0,0,21,35,53,57c0,0,20,14,114,66c0,0,-35,27,-35,59c0,0,0,30,31,63c0,0,30,34,127,74c0,0,-82,16,-130,69c0,0,-48,53,-48,118c0,0,0,106,93,189c0,0,93,84,247,84c0,0,56,0,92,-11c0,0,36,-12,70,-35H796L774,551H650c0,0,14,-40,14,-75c0,0,0,-99,-84,-176c0,0,-84,-77,-231,-85c0,0,-79,-24,-118,-57c0,0,-15,-12,-15,-25c0,0,0,-14,13,-27c0,0,14,-12,68,-25L442,48c0,0,120,-28,159,-66c0,0,38,-39,38,-91c0,0,0,-61,-46,-111c0,0,-45,-51,-132,-80c0,0,-87,-28,-192,-28Z" 
id="f1_23"
transform="scale(0.001,-0.001)" />

<path d="M293,20c0,0,105,0,197,156c0,0,92,156,92,317c0,0,0,69,-34,106c0,0,-33,37,-87,37c0,0,-110,0,-202,-157c0,0,-92,-157,-92,-312c0,0,0,-71,36,-109c0,0,36,-38,90,-38ZM276,-17c0,0,-102,0,-167,65c0,0,-64,65,-64,168c0,0,0,110,63,220c0,0,63,111,168,175c0,0,106,64,204,64c0,0,99,0,162,-65c0,0,64,-65,64,-169c0,0,0,-111,-59,-221C647,220,588,111,482,46c0,0,-106,-63,-206,-63Z" 
id="f1_2b"
transform="scale(0.001,-0.001)" />

<path d="M275,-20L578,891H299c0,0,-84,0,-120,-20c0,0,-63,-35,-101,-106l-21,8l97,239H696V983L359,-20Z" 
id="f0_r"
transform="scale(0.001,-0.001)" />

<path d="M191,-20c0,0,-34,0,-58,24c0,0,-24,24,-24,58c0,0,0,35,24,59c0,0,24,24,58,24c0,0,35,0,59,-24c0,0,24,-25,24,-59c0,0,0,-34,-24,-58c0,0,-25,-24,-59,-24Z" 
id="f0_i"
transform="scale(0.001,-0.001)" />

<path d="M551,-22c0,0,-165,0,-251,56c0,0,-86,57,-122,154c0,0,-24,67,-24,250V833c0,0,0,93,-25,123c0,0,-26,29,-83,29H8v27H444V985H405c0,0,-62,0,-89,-40c0,0,-19,-27,-19,-112V392c0,0,0,-59,11,-135c0,0,11,-76,39,-118c0,0,29,-43,82,-70c0,0,53,-28,131,-28c0,0,99,0,178,43c0,0,78,44,107,111c0,0,29,68,29,229V833c0,0,0,95,-21,119c0,0,-29,33,-86,33H729v27h357V985h-38c0,0,-59,0,-91,-50c0,0,-16,-23,-16,-108V417c0,0,0,-152,-30,-236C911,181,881,97,792,37c0,0,-88,-59,-241,-59Z" 
id="f0_1l"
transform="scale(0.001,-0.001)" />

<path d="M20,0V26c0,0,45,0,71,15c0,0,15,7,24,28c0,0,9,21,9,85V773c0,0,0,117,-5,144c0,0,-6,27,-17,37c0,0,-12,9,-31,9c0,0,-16,0,-51,-12L10,978l204,83h34V561c0,0,83,91,131,116c0,0,49,26,97,26c0,0,58,0,100,-32c0,0,42,-32,62,-101c0,0,14,-47,14,-174V154c0,0,0,-65,11,-89c0,0,7,-18,25,-28c0,0,18,-11,66,-11V0H418V26h15c0,0,48,0,67,15c0,0,18,15,26,43c0,0,2,12,2,70V396c0,0,0,112,-12,147c0,0,-11,35,-36,53c0,0,-26,17,-61,17c0,0,-37,0,-76,-19c0,0,-40,-20,-95,-79V154c0,0,0,-70,8,-87c0,0,8,-17,29,-29c0,0,22,-12,74,-12V0Z" 
id="f0_24"
transform="scale(0.001,-0.001)" />

<path d="M384,85c0,0,44,0,78,19c0,0,35,19,68,62V487c0,0,0,55,-15,87c0,0,-14,33,-51,55c0,0,-38,22,-85,22c0,0,-84,0,-143,-71c0,0,-60,-70,-60,-214c0,0,0,-138,61,-209c0,0,61,-72,147,-72Zm35,-411v27h15c0,0,41,0,63,12c0,0,15,8,24,30c0,0,9,21,9,83V119C530,119,462,39,411,9c0,0,-50,-29,-105,-29c0,0,-99,0,-177,90c0,0,-78,90,-78,241c0,0,0,174,103,283c0,0,103,109,248,109c0,0,43,0,78,-12c0,0,36,-12,65,-35c0,0,43,20,83,47h25V-174c0,0,0,-66,9,-85c0,0,9,-19,28,-30c0,0,19,-10,74,-10v-27Z" 
id="f0_2d"
transform="scale(0.001,-0.001)" />

<path d="M397,34c0,0,67,0,126,75c0,0,58,74,58,216c0,0,0,131,-58,201c0,0,-59,70,-133,70c0,0,-39,0,-79,-20c0,0,-29,-14,-75,-59V109c0,0,37,-37,78,-56c0,0,40,-19,83,-19ZM358,-20c0,0,-59,0,-121,21c0,0,-61,22,-126,65V773c0,0,0,117,-5,144c0,0,-6,27,-18,37c0,0,-12,9,-29,9c0,0,-21,0,-53,-12l-9,27l205,83h34V564c0,0,98,139,213,139c0,0,105,0,183,-90c0,0,78,-90,78,-245c0,0,0,-182,-121,-293c0,0,-103,-95,-231,-95Z" 
id="f0_1y"
transform="scale(0.001,-0.001)" />

<path d="M145,-328c0,0,-44,0,-73,25c0,0,-28,25,-28,58c0,0,0,31,21,50c0,0,20,19,56,19c0,0,25,0,67,-16c0,0,30,-11,38,-11c0,0,22,0,49,23c0,0,26,23,53,89L376,28L131,542c0,0,-11,24,-36,58c0,0,-19,27,-30,36c0,0,-18,12,-56,21v26H328V657H312c0,0,-33,0,-50,-15c0,0,-17,-14,-17,-36c0,0,0,-30,25,-81L437,179L589,557c0,0,12,31,12,62c0,0,0,13,-5,20c0,0,-6,8,-19,13c0,0,-12,5,-44,5v26H754V657c0,0,-27,-3,-42,-12c0,0,-15,-9,-33,-34c0,0,-7,-10,-25,-58L376,-128c0,0,-40,-99,-105,-150c0,0,-66,-50,-126,-50Z" 
id="f0_2l"
transform="scale(0.001,-0.001)" />

<path d="M25,0V26c0,0,27,4,47,19c0,0,29,22,96,111L311,346L182,535c0,0,-55,81,-86,102c0,0,-30,20,-75,20v26H341V657c0,0,-30,0,-42,-10c0,0,-13,-11,-13,-28c0,0,0,-19,27,-56c0,0,8,-12,25,-37l48,-78l56,77c0,0,55,74,55,94c0,0,0,16,0,27c0,0,0,11,0,11v26H674V657c0,0,-37,-2,-64,-20c0,0,-37,-26,-100,-111L416,402L587,156c0,0,63,-91,89,-109c0,0,27,-18,70,-21V0H423V26c0,0,34,0,53,15c0,0,14,11,14,28c0,0,0,17,-48,87L341,302L232,157c0,0,-50,-69,-50,-82c0,0,0,-18,17,-32c0,0,17,-15,50,-17V0Z" 
id="f0_2k"
transform="scale(0.001,-0.001)" />

<path d="M-12,338v55H777V338Z" 
id="f0_4y"
transform="scale(0.001,-0.001)" />

<path d="M238,-17c0,0,-103,0,-139,25C99,8,62,33,62,62c0,0,0,22,17,38c0,0,18,16,42,16c0,0,19,0,38,-6c0,0,13,-3,58,-27c0,0,45,-23,62,-28c0,0,27,-8,59,-8c0,0,76,0,132,59c0,0,56,59,56,140c0,0,0,59,-26,115c0,0,-19,41,-42,63c0,0,-32,30,-88,54c0,0,-56,25,-114,25H232v22c0,0,59,8,118,42c0,0,59,35,86,85c0,0,27,49,27,108c0,0,0,76,-48,124c0,0,-48,47,-120,47c0,0,-116,0,-193,-124L77,819c0,0,44,102,110,158c0,0,66,56,164,56c0,0,122,0,187,-80c0,0,49,-58,49,-126c0,0,0,-110,-139,-228c0,0,93,-36,141,-104c0,0,48,-68,48,-160c0,0,0,-131,-84,-227C553,108,444,-17,238,-17Z" 
id="f0_n"
transform="scale(0.001,-0.001)" />

<path d="M107,-21V325h27c0,0,19,-109,52,-163c0,0,33,-54,100,-90c0,0,68,-36,148,-36c0,0,93,0,148,49c0,0,54,50,54,117c0,0,0,37,-21,75c0,0,-20,38,-64,71c0,0,-29,22,-159,95c0,0,-130,72,-185,115c0,0,-55,44,-83,96c0,0,-28,52,-28,114c0,0,0,109,83,188c0,0,84,78,213,78c0,0,81,0,171,-39c0,0,42,-19,59,-19c0,0,20,0,32,11c0,0,12,12,20,47h27V684H674c0,0,-14,101,-48,161c0,0,-35,60,-100,95c0,0,-64,35,-133,35c0,0,-77,0,-128,-47c0,0,-51,-48,-51,-108c0,0,0,-46,32,-84c0,0,47,-56,221,-149c0,0,142,-76,194,-117c0,0,51,-41,80,-96c0,0,28,-55,28,-115c0,0,0,-115,-90,-198c0,0,-89,-82,-229,-82c0,0,-44,0,-83,6c0,0,-23,4,-95,27c0,0,-73,24,-93,24c0,0,-18,0,-29,-11c0,0,-11,-12,-16,-46Z" 
id="f0_1j"
transform="scale(0.001,-0.001)" />

<path d="M435,502c0,0,78,0,134,60c0,0,57,60,57,155c0,0,0,66,-27,122c0,0,-27,56,-76,84c0,0,-50,28,-112,28c0,0,-38,0,-98,-14V517c0,0,39,-8,70,-12c0,0,31,-3,52,-3ZM25,0V27H63c0,0,65,0,92,42c0,0,15,23,15,110V833c0,0,0,96,-20,119c0,0,-29,33,-87,33H25v27H396c0,0,136,0,214,-28c0,0,78,-28,132,-94c0,0,54,-67,54,-158c0,0,0,-124,-82,-202c0,0,-82,-77,-231,-77c0,0,-36,0,-79,5c0,0,-43,5,-91,16V179c0,0,0,-96,21,-119c0,0,28,-33,85,-33h39V0Z" 
id="f0_1g"
transform="scale(0.001,-0.001)" />

<path d="M46,0c0,0,-2,48,16,93c0,0,27,74,88,146c0,0,61,71,176,165c0,0,178,146,241,232c0,0,63,85,63,161c0,0,0,80,-57,135c0,0,-58,55,-149,55c0,0,-98,0,-156,-59c0,0,-58,-58,-59,-160L71,782c0,0,15,154,107,235c0,0,93,81,249,81c0,0,157,0,249,-87c0,0,92,-88,92,-217c0,0,0,-65,-27,-129c0,0,-27,-63,-89,-133c0,0,-62,-70,-207,-193C445,339,324,238,290,202c0,0,-35,-36,-57,-73H770V0Z" 
id="f3_m"
transform="scale(0.001,-0.001)" />

<path d="M435,0V856c0,0,-48,-47,-127,-93c0,0,-79,-46,-142,-69V824c0,0,113,52,197,128c0,0,85,75,120,146h86V0Z" 
id="f3_l"
transform="scale(0.001,-0.001)" />


</defs>
</svg>