<?xml version="1.0" encoding="UTF-8" standalone="no"?>
<!DOCTYPE svg PUBLIC "-//W3C//DTD SVG 1.1//EN"
"http://www.w3.org/Graphics/SVG/1.1/DTD/svg11.dtd">
<svg viewBox="0 0 909 1286" version="1.1" xmlns="http://www.w3.org/2000/svg" xmlns:xlink="http://www.w3.org/1999/xlink">
<defs>
<clipPath id="c0_137"><path d="M123.4,398V349.2h55.9V398Z" /></clipPath>
<clipPath id="c1_137"><path d="M55.2,469.9V421.1H96.8v48.8Z" /></clipPath>
<clipPath id="c2_137"><path d="M75,496.6V470.9H218.8v25.7Z" /></clipPath>
<clipPath id="c3_137"><path d="M55.2,549.1V520H209.1v29.1Z" /></clipPath>
<clipPath id="c4_137"><path d="M187.6,598.6V549.8h87.8v48.8Z" /></clipPath>
<clipPath id="c5_137"><path d="M79.8,647.7V599H251.2v48.7Z" /></clipPath>
<clipPath id="c6_137"><path d="M55.2,696.8V648.1H264.4v48.7Z" /></clipPath>
<clipPath id="c7_137"><path d="M55.2,746.3V697.6H194.4v48.7Z" /></clipPath>
<clipPath id="c8_137"><path d="M233.8,795.5V746.7h59.1v48.8Z" /></clipPath>
<clipPath id="c9_137"><path d="M99.9,845V796.2H255.2V845Z" /></clipPath>
<clipPath id="c10_137"><path d="M117.1,894.1V845.3h59.2v48.8Z" /></clipPath>
<clipPath id="c11_137"><path d="M55.2,966V917.2h77.4V966Z" /></clipPath>
<clipPath id="c12_137"><path d="M55.2,1018.8V966.7H201.6v52.1Z" /></clipPath>
<clipPath id="c13_137"><path d="M141.3,1067.9v-48.7h26.1v48.7Z" /></clipPath>
<clipPath id="c14_137"><path d="M55.2,1122.6V1068H224.9v54.6Z" /></clipPath>
<clipPath id="c15_137"><path d="M55.2,1172.4v-48.7H141v48.7Z" /></clipPath>
<style type="text/css"><![CDATA[
.g0_137{
fill: #D9D9D9;
}
.g1_137{
fill: none;
stroke: #000000;
stroke-width: 0.7638889;
stroke-linecap: butt;
stroke-linejoin: miter;
}
.g2_137{
fill: none;
stroke: #000000;
stroke-width: 0.7545586;
stroke-linecap: butt;
stroke-linejoin: round;
}
.g3_137{
fill: none;
stroke: #000000;
stroke-width: 0.7424903;
stroke-linecap: butt;
stroke-linejoin: round;
}
.g4_137{
fill: none;
stroke: #000000;
stroke-width: 0.7804463;
stroke-linecap: butt;
stroke-linejoin: round;
}
.g5_137{
fill: none;
stroke: #000000;
stroke-width: 0.757466;
stroke-linecap: butt;
stroke-linejoin: round;
}
.g6_137{
fill: none;
stroke: #000000;
stroke-width: 0.75694346;
stroke-linecap: butt;
stroke-linejoin: round;
}
.g7_137{
fill: none;
stroke: #000000;
stroke-width: 0.7557448;
stroke-linecap: butt;
stroke-linejoin: round;
}
.g8_137{
fill: none;
stroke: #000000;
stroke-width: 0.7376358;
stroke-linecap: butt;
stroke-linejoin: round;
}
.g9_137{
fill: none;
stroke: #000000;
stroke-width: 0.75272036;
stroke-linecap: butt;
stroke-linejoin: round;
}
.g10_137{
fill: none;
stroke: #000000;
stroke-width: 0.73859894;
stroke-linecap: butt;
stroke-linejoin: round;
}
.g11_137{
fill: none;
stroke: #000000;
stroke-width: 0.78097117;
stroke-linecap: butt;
stroke-linejoin: round;
}
.g12_137{
fill: none;
stroke: #000000;
stroke-width: 0.75356174;
stroke-linecap: butt;
stroke-linejoin: round;
}
.g13_137{
fill: none;
stroke: #000000;
stroke-width: 0.7537422;
stroke-linecap: butt;
stroke-linejoin: round;
}
.g14_137{
fill: none;
stroke: #000000;
stroke-width: 0.756543;
stroke-linecap: butt;
stroke-linejoin: round;
}
.g15_137{
fill: none;
stroke: #000000;
stroke-width: 0.7889292;
stroke-linecap: butt;
stroke-linejoin: round;
}
.g16_137{
}
]]></style>
</defs>
<image preserveAspectRatio="none" x="747" y="1196" width="96" height="59" xlink:href="img/1.png" />
<image preserveAspectRatio="none" x="336" y="41" width="259" height="51" xlink:href="img/2.png" />
<image preserveAspectRatio="none" x="342" y="50" width="247" height="27" xlink:href="img/3.png" />
<image preserveAspectRatio="none" x="341" y="45" width="239" height="42" xlink:href="img/4.png" />
<g fill="#FFFFFF" >
<use xlink:href="#f0_j" transform="matrix(11.5,0,0,11.5,355.1,70.1)" />
<use xlink:href="#f0_i" transform="matrix(11.5,0,0,11.5,364.3,70.1)" />
<use xlink:href="#f0_2n" transform="matrix(11.5,0,0,11.5,374.1,70.1)" />
<use xlink:href="#f0_t" transform="matrix(11.5,0,0,11.5,382.6,70.1)" />
<use xlink:href="#f0_oj" transform="matrix(11.5,0,0,11.5,391,70.1)" />
<use xlink:href="#f0_3e" transform="matrix(11.5,0,0,11.5,396.5,70.1)" />
<use xlink:href="#f0_1c" transform="matrix(11.5,0,0,11.5,406.1,70.1)" />
<use xlink:href="#f0_1c" transform="matrix(11.5,0,0,11.5,410.8,70.1)" />
<use xlink:href="#f0_oj" transform="matrix(11.5,0,0,11.5,415.6,70.1)" />
<use xlink:href="#f0_rz" transform="matrix(11.5,0,0,11.5,421.1,70.1)" />
<use xlink:href="#f0_rx" transform="matrix(11.5,0,0,11.5,429.9,70.1)" />
<use xlink:href="#f0_ry" transform="matrix(11.5,0,0,11.5,438.7,70.1)" />
<use xlink:href="#f0_s6" transform="matrix(11.5,0,0,11.5,447.5,70.1)" />
<use xlink:href="#f0_t" transform="matrix(11.5,0,0,11.5,460.4,70.1)" />
<use xlink:href="#f0_3e" transform="matrix(11.5,0,0,11.5,468.8,70.1)" />
<use xlink:href="#f0_5" transform="matrix(11.5,0,0,11.5,478.3,70.1)" />
<use xlink:href="#f0_1x" transform="matrix(11.5,0,0,11.5,489,70.1)" />
<use xlink:href="#f0_1c" transform="matrix(11.5,0,0,11.5,504.4,70.1)" />
<use xlink:href="#f0_1y" transform="matrix(11.5,0,0,11.5,509.1,70.1)" />
<use xlink:href="#f0_5" transform="matrix(11.5,0,0,11.5,520.8,70.1)" />
<use xlink:href="#f0_2t" transform="matrix(11.5,0,0,11.5,531.5,70.1)" />
<use xlink:href="#f0_1c" transform="matrix(11.5,0,0,11.5,540.2,70.1)" />
<use xlink:href="#f0_24" transform="matrix(11.5,0,0,11.5,545,70.1)" />
<use xlink:href="#f0_1y" transform="matrix(11.5,0,0,11.5,556.7,70.1)" />
</g>
<image preserveAspectRatio="none" x="554" y="45" width="36" height="42" xlink:href="img/5.png" />
<g fill="#FFFFFF" >
<use xlink:href="#f1_l" transform="matrix(11,0,0,11,770.3,1227.6)" />
<use xlink:href="#f1_t" transform="matrix(11,0,0,11,779.1,1227.6)" />
<use xlink:href="#f1_j" transform="matrix(11,0,0,11,792.3,1227.6)" />
<use xlink:href="#f1_m" transform="matrix(11,0,0,11,802.9,1227.6)" />
<use xlink:href="#f1_p" transform="matrix(11,0,0,11,811.7,1227.6)" />
</g>
<path fill-rule="evenodd" d="M52.8,1193.5H856.9v-.8H52.8v.8Z" class="g0_137" />
<path d="M37.9,99.4L873,98.5" class="g1_137" />
<g fill="#000000" >
<use xlink:href="#f2_1j" transform="matrix(12,0,0,12,55,144.1)" />
<use xlink:href="#f2_2b" transform="matrix(12,0,0,12,65.3,144.1)" />
<use xlink:href="#f2_28" transform="matrix(12,0,0,12,74.5,144.1)" />
<use xlink:href="#f2_2h" transform="matrix(12,0,0,12,79.2,144.1)" />
<use xlink:href="#f2_2g" transform="matrix(12,0,0,12,89.5,144.1)" />
<use xlink:href="#f2_25" transform="matrix(12,0,0,12,95.7,144.1)" />
<use xlink:href="#f2_2b" transform="matrix(12,0,0,12,100.8,144.1)" />
<use xlink:href="#f2_2a" transform="matrix(12,0,0,12,109.9,144.1)" />
<use xlink:href="#f2_u" transform="matrix(12,0,0,12,120.2,144.1)" />
<use xlink:href="#f3_1c" transform="matrix(12,0,0,12,55,166.9)" />
<use xlink:href="#f3_21" transform="matrix(12,0,0,12,66,166.9)" />
<use xlink:href="#f3_2g" transform="matrix(12,0,0,12,74.1,166.9)" />
<use xlink:href="#f3_1i" transform="matrix(12,0,0,12,84.3,166.9)" />
<use xlink:href="#f3_1x" transform="matrix(12,0,0,12,101.2,166.9)" />
<use xlink:href="#f3_2a" transform="matrix(12,0,0,12,109.2,166.9)" />
<use xlink:href="#f3_20" transform="matrix(12,0,0,12,118,166.9)" />
<use xlink:href="#f3_24" transform="matrix(12,0,0,12,132,166.9)" />
<use xlink:href="#f3_1y" transform="matrix(12,0,0,12,145.6,166.9)" />
<use xlink:href="#f3_21" transform="matrix(12,0,0,12,154.4,166.9)" />
<use xlink:href="#f3_2g" transform="matrix(12,0,0,12,167.3,166.9)" />
<use xlink:href="#f3_24" transform="matrix(12,0,0,12,172.7,166.9)" />
<use xlink:href="#f3_21" transform="matrix(12,0,0,12,181.5,166.9)" />
<use xlink:href="#f3_2e" transform="matrix(12,0,0,12,194.4,166.9)" />
<use xlink:href="#f3_1x" transform="matrix(12,0,0,12,200.6,166.9)" />
<use xlink:href="#f3_20" transform="matrix(12,0,0,12,208.6,166.9)" />
<use xlink:href="#f3_25" transform="matrix(12,0,0,12,218.1,166.9)" />
<use xlink:href="#f3_2h" transform="matrix(12,0,0,12,222.5,166.9)" />
<use xlink:href="#f3_2f" transform="matrix(12,0,0,12,232.1,166.9)" />
<use xlink:href="#f3_1x" transform="matrix(12,0,0,12,243.8,166.9)" />
<use xlink:href="#f3_2a" transform="matrix(12,0,0,12,251.8,166.9)" />
<use xlink:href="#f3_20" transform="matrix(12,0,0,12,260.6,166.9)" />
<use xlink:href="#f3_24" transform="matrix(12,0,0,12,274.9,166.9)" />
<use xlink:href="#f3_21" transform="matrix(12,0,0,12,283.7,166.9)" />
<use xlink:href="#f3_25" transform="matrix(12,0,0,12,292.1,166.9)" />
<use xlink:href="#f3_23" transform="matrix(12,0,0,12,296.9,166.9)" />
<use xlink:href="#f3_24" transform="matrix(12,0,0,12,306.4,166.9)" />
<use xlink:href="#f3_2g" transform="matrix(12,0,0,12,315.2,166.9)" />
<use xlink:href="#f3_2b" transform="matrix(12,0,0,12,325.1,166.9)" />
<use xlink:href="#f3_22" transform="matrix(12,0,0,12,334.6,166.9)" />
<use xlink:href="#f3_2g" transform="matrix(12,0,0,12,344.9,166.9)" />
<use xlink:href="#f3_24" transform="matrix(12,0,0,12,350.3,166.9)" />
<use xlink:href="#f3_21" transform="matrix(12,0,0,12,359.1,166.9)" />
<use xlink:href="#f3_1z" transform="matrix(12,0,0,12,372,166.9)" />
<use xlink:href="#f3_2b" transform="matrix(12,0,0,12,380,166.9)" />
<use xlink:href="#f3_2a" transform="matrix(12,0,0,12,389.5,166.9)" />
<use xlink:href="#f3_21" transform="matrix(12,0,0,12,398.3,166.9)" />
<use xlink:href="#f3_i" transform="matrix(12,0,0,12,406.4,166.9)" />
<use xlink:href="#f3_2e" transform="matrix(12,0,0,12,55,189.6)" />
<use xlink:href="#f3_1y" transform="matrix(12,0,0,12,66,189.6)" />
<use xlink:href="#f3_21" transform="matrix(12,0,0,12,74.8,189.6)" />
<use xlink:href="#f3_2g" transform="matrix(12,0,0,12,87.6,189.6)" />
<use xlink:href="#f3_24" transform="matrix(12,0,0,12,93.1,189.6)" />
<use xlink:href="#f3_21" transform="matrix(12,0,0,12,101.9,189.6)" />
<use xlink:href="#f3_2e" transform="matrix(12,0,0,12,114.7,189.6)" />
<use xlink:href="#f3_1x" transform="matrix(12,0,0,12,120.9,189.6)" />
<use xlink:href="#f3_20" transform="matrix(12,0,0,12,129,189.6)" />
<use xlink:href="#f3_25" transform="matrix(12,0,0,12,138.2,189.6)" />
<use xlink:href="#f3_2h" transform="matrix(12,0,0,12,142.6,189.6)" />
<use xlink:href="#f3_2f" transform="matrix(12,0,0,12,152.1,189.6)" />
<use xlink:href="#f3_2b" transform="matrix(12,0,0,12,163.8,189.6)" />
<use xlink:href="#f3_22" transform="matrix(12,0,0,12,173.3,189.6)" />
<use xlink:href="#f3_2f" transform="matrix(12,0,0,12,183.6,189.6)" />
<use xlink:href="#f3_2c" transform="matrix(12,0,0,12,190.5,189.6)" />
<use xlink:href="#f3_24" transform="matrix(12,0,0,12,200,189.6)" />
<use xlink:href="#f3_21" transform="matrix(12,0,0,12,208.8,189.6)" />
<use xlink:href="#f3_2e" transform="matrix(12,0,0,12,216.9,189.6)" />
<use xlink:href="#f3_21" transform="matrix(12,0,0,12,223.1,189.6)" />
<use xlink:href="#f3_i" transform="matrix(12,0,0,12,231.2,189.6)" />
<use xlink:href="#f3_1k" transform="matrix(12,0,0,12,55,379.6)" />
<use xlink:href="#f3_2b" transform="matrix(12,0,0,12,66.4,379.6)" />
<use xlink:href="#f3_2f" transform="matrix(12,0,0,12,80.3,379.6)" />
<use xlink:href="#f3_24" transform="matrix(12,0,0,12,87.3,379.6)" />
<use xlink:href="#f3_2b" transform="matrix(12,0,0,12,96.1,379.6)" />
<use xlink:href="#f3_2j" transform="matrix(12,0,0,12,105.6,379.6)" />
</g>
<path d="M154.9,375.2h19.8" class="g2_137" />
<g clip-path="url(#c0_137)">
<g fill="#000000" >
<use xlink:href="#f3_o" transform="matrix(12.6,0,0,12.4,156.1,368.3)" />
<use xlink:href="#f3_n" transform="matrix(12.6,0,0,12.4,160.5,394.2)" />
<use xlink:href="#f4_2e" transform="matrix(12.6,0,0,12.4,165.7,368.3)" />
<use xlink:href="#f4_24" transform="matrix(12.6,0,0,12.4,126.2,379.8)" />
<use xlink:href="#f5_x" transform="matrix(12.6,0,0,12.4,140,379.8)" />
</g>
</g>
<g fill="#000000" >
<use xlink:href="#f3_1x" transform="matrix(12,0,0,12,55,416.6)" />
<use xlink:href="#f3_2a" transform="matrix(12,0,0,12,63.1,416.6)" />
<use xlink:href="#f3_20" transform="matrix(12,0,0,12,71.9,416.6)" />
<use xlink:href="#f3_1d" transform="matrix(12,0,0,12,85.8,416.6)" />
<use xlink:href="#f3_1x" transform="matrix(12,0,0,12,102,416.6)" />
<use xlink:href="#f3_2k" transform="matrix(12,0,0,12,110.4,416.6)" />
<use xlink:href="#f3_25" transform="matrix(12,0,0,12,119.5,416.6)" />
<use xlink:href="#f3_29" transform="matrix(12,0,0,12,124.6,416.6)" />
<use xlink:href="#f3_2h" transform="matrix(12,0,0,12,138.6,416.6)" />
<use xlink:href="#f3_29" transform="matrix(12,0,0,12,148.1,416.6)" />
<use xlink:href="#f3_1m" transform="matrix(12,0,0,12,166.8,416.6)" />
<use xlink:href="#f3_2b" transform="matrix(12,0,0,12,180,416.6)" />
<use xlink:href="#f3_28" transform="matrix(12,0,0,12,189.5,416.6)" />
<use xlink:href="#f3_2h" transform="matrix(12,0,0,12,193.9,416.6)" />
<use xlink:href="#f3_29" transform="matrix(12,0,0,12,203.4,416.6)" />
<use xlink:href="#f3_21" transform="matrix(12,0,0,12,217.4,416.6)" />
<use xlink:href="#f3_2b" transform="matrix(12,0,0,12,230.2,416.6)" />
<use xlink:href="#f3_22" transform="matrix(12,0,0,12,240.1,416.6)" />
<use xlink:href="#f3_1j" transform="matrix(12,0,0,12,250.3,416.6)" />
<use xlink:href="#f3_2c" transform="matrix(12,0,0,12,260.6,416.6)" />
<use xlink:href="#f3_24" transform="matrix(12,0,0,12,269.7,416.6)" />
<use xlink:href="#f3_21" transform="matrix(12,0,0,12,278.5,416.6)" />
<use xlink:href="#f3_2e" transform="matrix(12,0,0,12,286.6,416.6)" />
<use xlink:href="#f3_21" transform="matrix(12,0,0,12,292.8,416.6)" />
</g>
<path d="M72.4,447H92.6" class="g3_137" />
<g clip-path="url(#c1_137)">
<g fill="#000000" >
<use xlink:href="#f3_s" transform="matrix(12.4,0,0,12.4,78,440.1)" />
<use xlink:href="#f3_m" transform="matrix(12.4,0,0,12.4,73.7,466)" />
<use xlink:href="#f3_r" transform="matrix(12.4,0,0,12.4,82.7,466)" />
<use xlink:href="#f5_x" transform="matrix(12.4,0,0,12.4,57.9,451.7)" />
</g>
</g>
<g fill="#000000" >
<use xlink:href="#f3_1m" transform="matrix(12,0,0,12,100.9,451.5)" />
<use xlink:href="#f3_2b" transform="matrix(12,0,0,12,114.1,451.5)" />
<use xlink:href="#f3_28" transform="matrix(12,0,0,12,123.6,451.5)" />
<use xlink:href="#f3_2h" transform="matrix(12,0,0,12,128,451.5)" />
<use xlink:href="#f3_29" transform="matrix(12,0,0,12,137.5,451.5)" />
<use xlink:href="#f3_21" transform="matrix(12,0,0,12,151.4,451.5)" />
<use xlink:href="#f3_2b" transform="matrix(12,0,0,12,164.2,451.5)" />
<use xlink:href="#f3_22" transform="matrix(12,0,0,12,173.8,451.5)" />
<use xlink:href="#f3_1j" transform="matrix(12,0,0,12,184,451.5)" />
<use xlink:href="#f3_2c" transform="matrix(12,0,0,12,194.3,451.5)" />
<use xlink:href="#f3_24" transform="matrix(12,0,0,12,203.4,451.5)" />
<use xlink:href="#f3_21" transform="matrix(12,0,0,12,212.2,451.5)" />
<use xlink:href="#f3_2e" transform="matrix(12,0,0,12,220.3,451.5)" />
<use xlink:href="#f3_21" transform="matrix(12,0,0,12,226.5,451.5)" />
<use xlink:href="#f3_19" transform="matrix(12,0,0,12,55,488.9)" />
<use xlink:href="#f3_2a" transform="matrix(12,0,0,12,61.3,488.9)" />
</g>
<g clip-path="url(#c2_137)">
<g fill="#000000" >
<use xlink:href="#f3_13" transform="matrix(13,0,0,12.3,150,489.1)" />
<use xlink:href="#f3_24" transform="matrix(13,0,0,12.3,181.2,489.1)" />
<use xlink:href="#f3_2e" transform="matrix(13,0,0,12.3,208.5,489.1)" />
<use xlink:href="#f5_14" transform="matrix(13,0,0,12.3,77.8,489.1)" />
<use xlink:href="#f5_11" transform="matrix(13,0,0,12.3,89,489.1)" />
<use xlink:href="#f5_12" transform="matrix(13,0,0,12.3,102,489.1)" />
<use xlink:href="#f5_13" transform="matrix(13,0,0,12.3,114.6,489.1)" />
<use xlink:href="#f5_g" transform="matrix(13,0,0,12.3,127.9,489.1)" />
<use xlink:href="#f5_11" transform="matrix(13,0,0,12.3,137,489.1)" />
<use xlink:href="#f5_x" transform="matrix(13,0,0,12.3,166.6,489.1)" />
<use xlink:href="#f5_h" transform="matrix(13,0,0,12.3,194.7,489.1)" />
</g>
</g>
<g fill="#000000" >
<use xlink:href="#f6_16e" transform="matrix(12,0,0,12,55,515.7)" />
<use xlink:href="#f3_c" transform="matrix(12,0,0,12,70.4,515.7)" />
<use xlink:href="#f3_24" transform="matrix(12,0,0,12,76.7,515.7)" />
<use xlink:href="#f7_4y" transform="matrix(12,0,0,12,90.2,515.7)" />
<use xlink:href="#f3_2e" transform="matrix(12,0,0,12,103.8,515.7)" />
<use xlink:href="#f3_d" transform="matrix(12,0,0,12,110,515.7)" />
<use xlink:href="#f3_m" transform="matrix(7.9,0,0,7.9,116.3,508.7)" />
<use xlink:href="#f3_f" transform="matrix(12,0,0,12,122.5,515.7)" />
<use xlink:href="#f3_1i" transform="matrix(12,0,0,12,137.2,515.7)" />
<use xlink:href="#f3_m" transform="matrix(7.9,0,0,7.9,149.3,508.7)" />
<use xlink:href="#f3_x" transform="matrix(12,0,0,12,160.3,515.7)" />
<use xlink:href="#f3_2e" transform="matrix(12,0,0,12,175,515.7)" />
<use xlink:href="#f3_m" transform="matrix(7.9,0,0,7.9,181.2,508.7)" />
<use xlink:href="#f3_2n" transform="matrix(12,0,0,12,191.8,515.7)" />
<use xlink:href="#f3_1g" transform="matrix(12,0,0,12,200.6,515.7)" />
<use xlink:href="#f3_2l" transform="matrix(12,0,0,12,210.9,515.7)" />
<use xlink:href="#f3_2g" transform="matrix(12,0,0,12,219.3,515.7)" />
<use xlink:href="#f3_24" transform="matrix(12,0,0,12,224.8,515.7)" />
<use xlink:href="#f3_1x" transform="matrix(12,0,0,12,233.6,515.7)" />
<use xlink:href="#f3_23" transform="matrix(12,0,0,12,241.7,515.7)" />
<use xlink:href="#f3_2b" transform="matrix(12,0,0,12,250.8,515.7)" />
<use xlink:href="#f3_2e" transform="matrix(12,0,0,12,260.4,515.7)" />
<use xlink:href="#f3_2h" transform="matrix(12,0,0,12,266.6,515.7)" />
<use xlink:href="#f3_2f" transform="matrix(12,0,0,12,275.7,515.7)" />
<use xlink:href="#f3_1k" transform="matrix(12,0,0,12,287.5,515.7)" />
<use xlink:href="#f3_24" transform="matrix(12,0,0,12,298.8,515.7)" />
<use xlink:href="#f3_21" transform="matrix(12,0,0,12,307.6,515.7)" />
<use xlink:href="#f3_2b" transform="matrix(12,0,0,12,315.7,515.7)" />
<use xlink:href="#f3_2e" transform="matrix(12,0,0,12,325.2,515.7)" />
<use xlink:href="#f3_21" transform="matrix(12,0,0,12,331.4,515.7)" />
<use xlink:href="#f3_29" transform="matrix(12,0,0,12,339.5,515.7)" />
<use xlink:href="#f3_2p" transform="matrix(12,0,0,12,353,515.7)" />
</g>
<g clip-path="url(#c3_137)">
<g fill="#000000" >
<use xlink:href="#f3_m" transform="matrix(7.5,0,0,7.3,92.8,533.2)" />
<use xlink:href="#f3_m" transform="matrix(7.5,0,0,7.3,127.6,533.2)" />
<use xlink:href="#f3_m" transform="matrix(7.5,0,0,7.3,200.3,533.2)" />
<use xlink:href="#f3_c" transform="matrix(12.9,0,0,12.4,151.9,541.5)" />
<use xlink:href="#f3_d" transform="matrix(12.9,0,0,12.4,193.6,541.5)" />
<use xlink:href="#f4_1i" transform="matrix(12.9,0,0,12.4,80.6,541.5)" />
<use xlink:href="#f4_2e" transform="matrix(12.9,0,0,12.4,118.9,541.5)" />
<use xlink:href="#f4_24" transform="matrix(12.9,0,0,12.4,158.5,541.5)" />
<use xlink:href="#f4_2e" transform="matrix(12.9,0,0,12.4,185.2,541.5)" />
<use xlink:href="#f5_4g" transform="matrix(12.9,0,0,12.4,57.4,541.5)" />
<use xlink:href="#f5_x" transform="matrix(12.9,0,0,12.4,104.3,541.5)" />
<use xlink:href="#f5_h" transform="matrix(12.9,0,0,12.4,138.3,541.5)" />
<use xlink:href="#f5_h" transform="matrix(12.9,0,0,12.4,171.4,541.5)" />
</g>
</g>
<g fill="#000000" >
<use xlink:href="#f3_1m" transform="matrix(12,0,0,12,55,580.2)" />
<use xlink:href="#f3_2b" transform="matrix(12,0,0,12,68.3,580.2)" />
<use xlink:href="#f3_28" transform="matrix(12,0,0,12,77.8,580.2)" />
<use xlink:href="#f3_2h" transform="matrix(12,0,0,12,82.2,580.2)" />
<use xlink:href="#f3_29" transform="matrix(12,0,0,12,91.7,580.2)" />
<use xlink:href="#f3_21" transform="matrix(12,0,0,12,105.6,580.2)" />
<use xlink:href="#f3_2b" transform="matrix(12,0,0,12,118.4,580.2)" />
<use xlink:href="#f3_22" transform="matrix(12,0,0,12,127.9,580.2)" />
<use xlink:href="#f3_1z" transform="matrix(12,0,0,12,138.2,580.2)" />
<use xlink:href="#f3_2b" transform="matrix(12,0,0,12,146.2,580.2)" />
<use xlink:href="#f3_2a" transform="matrix(12,0,0,12,155.8,580.2)" />
<use xlink:href="#f3_21" transform="matrix(12,0,0,12,164.6,580.2)" />
<use xlink:href="#f3_u" transform="matrix(12,0,0,12,177.4,580.2)" />
</g>
<path d="M221.8,575.8h10" class="g4_137" />
<g clip-path="url(#c4_137)">
<g fill="#000000" >
<use xlink:href="#f3_m" transform="matrix(7.3,0,0,7.2,256.5,572.1)" />
<use xlink:href="#f3_l" transform="matrix(12.5,0,0,12.4,222.2,568.9)" />
<use xlink:href="#f3_n" transform="matrix(12.5,0,0,12.4,222.5,594.8)" />
<use xlink:href="#f4_1m" transform="matrix(12.5,0,0,12.4,188.6,580.4)" />
<use xlink:href="#f4_1i" transform="matrix(12.5,0,0,12.4,244.3,580.4)" />
<use xlink:href="#f4_24" transform="matrix(12.5,0,0,12.4,262.6,580.4)" />
<use xlink:href="#f5_x" transform="matrix(12.5,0,0,12.4,206.9,580.4)" />
<use xlink:href="#f5_2c" transform="matrix(12.5,0,0,12.4,234.5,580.4)" />
</g>
</g>
<g fill="#000000" >
<use xlink:href="#f3_2b" transform="matrix(12,0,0,12,55,629.4)" />
<use xlink:href="#f3_2e" transform="matrix(12,0,0,12,64.6,629.4)" />
<use xlink:href="#f3_g" transform="matrix(12,0,0,12,70.4,629.4)" />
</g>
<path d="M113.7,624.9h9.9" class="g5_137" />
<g clip-path="url(#c5_137)">
<g fill="#000000" >
<use xlink:href="#f3_m" transform="matrix(7.4,0,0,7.2,151.5,621.2)" />
<use xlink:href="#f3_m" transform="matrix(7.4,0,0,7.2,223.5,621.2)" />
<use xlink:href="#f3_l" transform="matrix(12.7,0,0,12.4,114.1,618)" />
<use xlink:href="#f3_c" transform="matrix(12.7,0,0,12.4,136.3,629.5)" />
<use xlink:href="#f3_c" transform="matrix(12.7,0,0,12.4,175.5,629.5)" />
<use xlink:href="#f3_d" transform="matrix(12.7,0,0,12.4,216.8,629.5)" />
<use xlink:href="#f3_d" transform="matrix(12.7,0,0,12.4,230.6,629.5)" />
<use xlink:href="#f3_n" transform="matrix(12.7,0,0,12.4,114.4,643.9)" />
<use xlink:href="#f4_1m" transform="matrix(12.7,0,0,12.4,80.8,629.5)" />
<use xlink:href="#f4_2e" transform="matrix(12.7,0,0,12.4,142.8,629.5)" />
<use xlink:href="#f4_24" transform="matrix(12.7,0,0,12.4,182,629.5)" />
<use xlink:href="#f4_2e" transform="matrix(12.7,0,0,12.4,208.5,629.5)" />
<use xlink:href="#f4_24" transform="matrix(12.7,0,0,12.4,237.1,629.5)" />
<use xlink:href="#f5_x" transform="matrix(12.7,0,0,12.4,98.9,629.5)" />
<use xlink:href="#f5_2c" transform="matrix(12.7,0,0,12.4,126.3,629.5)" />
<use xlink:href="#f5_h" transform="matrix(12.7,0,0,12.4,162,629.5)" />
<use xlink:href="#f5_h" transform="matrix(12.7,0,0,12.4,194.8,629.5)" />
</g>
</g>
<path d="M89.4,674h9.9" class="g6_137" />
<g clip-path="url(#c6_137)">
<g fill="#000000" >
<use xlink:href="#f3_m" transform="matrix(7.4,0,0,7.2,126.3,670.3)" />
<use xlink:href="#f3_m" transform="matrix(7.4,0,0,7.2,160.7,670.3)" />
<use xlink:href="#f3_m" transform="matrix(7.4,0,0,7.2,193.9,670.3)" />
<use xlink:href="#f3_l" transform="matrix(12.7,0,0,12.4,89.7,667.1)" />
<use xlink:href="#f3_1r" transform="matrix(12.7,0,0,12.4,111,678.6)" />
<use xlink:href="#f3_m" transform="matrix(12.7,0,0,12.4,218.6,678.6)" />
<use xlink:href="#f3_1t" transform="matrix(12.7,0,0,12.4,245.6,678.6)" />
<use xlink:href="#f3_n" transform="matrix(12.7,0,0,12.4,90,693)" />
<use xlink:href="#f4_1m" transform="matrix(12.7,0,0,12.4,56.2,678.6)" />
<use xlink:href="#f4_2e" transform="matrix(12.7,0,0,12.4,117.6,678.6)" />
<use xlink:href="#f4_24" transform="matrix(12.7,0,0,12.4,150.8,678.6)" />
<use xlink:href="#f4_2e" transform="matrix(12.7,0,0,12.4,185.1,678.6)" />
<use xlink:href="#f4_24" transform="matrix(12.7,0,0,12.4,228.1,678.6)" />
<use xlink:href="#f4_2e" transform="matrix(12.7,0,0,12.4,237.3,678.6)" />
<use xlink:href="#f4_24" transform="matrix(12.7,0,0,12.4,251.3,678.6)" />
<use xlink:href="#f5_x" transform="matrix(12.7,0,0,12.4,74.5,678.6)" />
<use xlink:href="#f5_2c" transform="matrix(12.7,0,0,12.4,102.1,678.6)" />
<use xlink:href="#f5_h" transform="matrix(12.7,0,0,12.4,137,678.6)" />
<use xlink:href="#f5_h" transform="matrix(12.7,0,0,12.4,171.3,678.6)" />
<use xlink:href="#f5_f" transform="matrix(12.7,0,0,12.4,204.5,678.6)" />
</g>
</g>
<path d="M89.4,723.5h10" class="g7_137" />
<g clip-path="url(#c7_137)">
<g fill="#000000" >
<use xlink:href="#f3_m" transform="matrix(7.4,0,0,7.2,137.1,719.8)" />
<use xlink:href="#f3_n" transform="matrix(7.4,0,0,7.2,178.3,719.8)" />
<use xlink:href="#f3_l" transform="matrix(12.7,0,0,12.4,89.8,716.6)" />
<use xlink:href="#f3_1r" transform="matrix(12.7,0,0,12.4,111.1,728.1)" />
<use xlink:href="#f3_m" transform="matrix(12.7,0,0,12.4,117.7,728.1)" />
<use xlink:href="#f3_1t" transform="matrix(12.7,0,0,12.4,185.2,728.1)" />
<use xlink:href="#f3_n" transform="matrix(12.7,0,0,12.4,90.1,742.5)" />
<use xlink:href="#f4_1m" transform="matrix(12.7,0,0,12.4,56.2,728.1)" />
<use xlink:href="#f4_24" transform="matrix(12.7,0,0,12.4,127.1,728.1)" />
<use xlink:href="#f4_2e" transform="matrix(12.7,0,0,12.4,143.1,728.1)" />
<use xlink:href="#f4_24" transform="matrix(12.7,0,0,12.4,168.7,728.1)" />
<use xlink:href="#f5_x" transform="matrix(12.7,0,0,12.4,74.5,728.1)" />
<use xlink:href="#f5_2c" transform="matrix(12.7,0,0,12.4,102.1,728.1)" />
<use xlink:href="#f5_h" transform="matrix(12.7,0,0,12.4,154.9,728.1)" />
</g>
</g>
<g fill="#000000" >
<use xlink:href="#f3_16" transform="matrix(12,0,0,12,55,777.2)" />
<use xlink:href="#f3_2b" transform="matrix(12,0,0,12,64.9,777.2)" />
<use xlink:href="#f3_2e" transform="matrix(12,0,0,12,74.5,777.2)" />
<use xlink:href="#f3_29" transform="matrix(12,0,0,12,85.4,777.2)" />
<use xlink:href="#f3_1x" transform="matrix(12,0,0,12,99,777.2)" />
<use xlink:href="#f3_2k" transform="matrix(12,0,0,12,107.4,777.2)" />
<use xlink:href="#f3_25" transform="matrix(12,0,0,12,116.6,777.2)" />
<use xlink:href="#f3_29" transform="matrix(12,0,0,12,121.7,777.2)" />
<use xlink:href="#f3_1x" transform="matrix(12,0,0,12,135.6,777.2)" />
<use xlink:href="#f3_2b" transform="matrix(12,0,0,12,148.4,777.2)" />
<use xlink:href="#f3_2e" transform="matrix(12,0,0,12,158,777.2)" />
<use xlink:href="#f3_29" transform="matrix(12,0,0,12,168.9,777.2)" />
<use xlink:href="#f3_25" transform="matrix(12,0,0,12,182.9,777.2)" />
<use xlink:href="#f3_2a" transform="matrix(12,0,0,12,187.6,777.2)" />
<use xlink:href="#f3_25" transform="matrix(12,0,0,12,196.8,777.2)" />
<use xlink:href="#f3_29" transform="matrix(12,0,0,12,201.9,777.2)" />
<use xlink:href="#f3_1x" transform="matrix(12,0,0,12,215.9,777.2)" />
<use xlink:href="#f3_g" transform="matrix(12,0,0,12,223.9,777.2)" />
</g>
<path d="M236.8,772.6h24.8" class="g8_137" />
<g clip-path="url(#c8_137)">
<g fill="#000000" >
<use xlink:href="#f3_k" transform="matrix(12.4,0,0,12.4,280.7,777.3)" />
<use xlink:href="#f4_20" transform="matrix(12.4,0,0,12.4,238,765.7)" />
<use xlink:href="#f4_1m" transform="matrix(12.4,0,0,12.4,247.1,765.7)" />
<use xlink:href="#f4_20" transform="matrix(12.4,0,0,12.4,240.3,791.6)" />
<use xlink:href="#f4_24" transform="matrix(12.4,0,0,12.4,249.3,791.6)" />
<use xlink:href="#f5_x" transform="matrix(12.4,0,0,12.4,266.6,777.3)" />
</g>
</g>
<g fill="#000000" >
<use xlink:href="#f3_1e" transform="matrix(12,0,0,12,55,826.7)" />
<use xlink:href="#f3_2b" transform="matrix(12,0,0,12,68.3,826.7)" />
<use xlink:href="#f3_2j" transform="matrix(12,0,0,12,77.8,826.7)" />
<use xlink:href="#f3_g" transform="matrix(12,0,0,12,91,826.7)" />
</g>
<path d="M103,822.1h25.2m19.9,0h10" class="g9_137" />
<g clip-path="url(#c9_137)">
<g fill="#000000" >
<use xlink:href="#f3_m" transform="matrix(7.4,0,0,7.2,238.9,818.4)" />
<use xlink:href="#f3_l" transform="matrix(12.6,0,0,12.4,148.5,815.2)" />
<use xlink:href="#f3_1r" transform="matrix(12.6,0,0,12.4,169.8,826.8)" />
<use xlink:href="#f3_o" transform="matrix(12.6,0,0,12.4,176.4,826.8)" />
<use xlink:href="#f3_n" transform="matrix(12.6,0,0,12.4,220.1,826.8)" />
<use xlink:href="#f3_1t" transform="matrix(12.6,0,0,12.4,246.1,826.8)" />
<use xlink:href="#f3_n" transform="matrix(12.6,0,0,12.4,148.8,841.1)" />
<use xlink:href="#f4_20" transform="matrix(12.6,0,0,12.4,104.3,815.2)" />
<use xlink:href="#f4_1m" transform="matrix(12.6,0,0,12.4,113.5,815.2)" />
<use xlink:href="#f4_24" transform="matrix(12.6,0,0,12.4,185.9,826.8)" />
<use xlink:href="#f4_2e" transform="matrix(12.6,0,0,12.4,195.1,826.8)" />
<use xlink:href="#f4_24" transform="matrix(12.6,0,0,12.4,229,826.8)" />
<use xlink:href="#f4_20" transform="matrix(12.6,0,0,12.4,106.6,841.1)" />
<use xlink:href="#f4_24" transform="matrix(12.6,0,0,12.4,115.8,841.1)" />
<use xlink:href="#f5_x" transform="matrix(12.6,0,0,12.4,133.3,826.8)" />
<use xlink:href="#f5_2c" transform="matrix(12.6,0,0,12.4,160.9,826.8)" />
<use xlink:href="#f5_h" transform="matrix(12.6,0,0,12.4,206.8,826.8)" />
</g>
</g>
<g fill="#000000" >
<use xlink:href="#f3_1g" transform="matrix(12,0,0,12,55,875.8)" />
<use xlink:href="#f3_2h" transform="matrix(12,0,0,12,65.3,875.8)" />
<use xlink:href="#f3_2g" transform="matrix(12,0,0,12,74.5,875.8)" />
<use xlink:href="#f3_2g" transform="matrix(12,0,0,12,79.5,875.8)" />
<use xlink:href="#f3_25" transform="matrix(12,0,0,12,85.1,875.8)" />
<use xlink:href="#f3_2a" transform="matrix(12,0,0,12,89.5,875.8)" />
<use xlink:href="#f3_23" transform="matrix(12,0,0,12,98.3,875.8)" />
<use xlink:href="#f3_g" transform="matrix(12,0,0,12,107.4,875.8)" />
</g>
<path d="M120.2,871.2H145" class="g10_137" />
<g clip-path="url(#c10_137)">
<g fill="#000000" >
<use xlink:href="#f3_k" transform="matrix(12.4,0,0,12.4,164.1,875.9)" />
<use xlink:href="#f4_20" transform="matrix(12.4,0,0,12.4,121.4,864.3)" />
<use xlink:href="#f4_1m" transform="matrix(12.4,0,0,12.4,130.5,864.3)" />
<use xlink:href="#f4_20" transform="matrix(12.4,0,0,12.4,123.6,890.2)" />
<use xlink:href="#f4_24" transform="matrix(12.4,0,0,12.4,132.7,890.2)" />
<use xlink:href="#f5_x" transform="matrix(12.4,0,0,12.4,150,875.9)" />
</g>
</g>
<g fill="#000000" >
<use xlink:href="#f3_1n" transform="matrix(12,0,0,12,55,912.9)" />
<use xlink:href="#f3_21" transform="matrix(12,0,0,12,71.9,912.9)" />
<use xlink:href="#f3_23" transform="matrix(12,0,0,12,84.7,912.9)" />
<use xlink:href="#f3_21" transform="matrix(12,0,0,12,93.9,912.9)" />
<use xlink:href="#f3_2g" transform="matrix(12,0,0,12,102,912.9)" />
<use xlink:href="#f3_o" transform="matrix(12,0,0,12,112.2,912.9)" />
<use xlink:href="#f3_24" transform="matrix(12,0,0,12,121.3,912.9)" />
<use xlink:href="#f3_2e" transform="matrix(12,0,0,12,130.1,912.9)" />
<use xlink:href="#f3_x" transform="matrix(12,0,0,12,141.1,912.9)" />
<use xlink:href="#f3_n" transform="matrix(12,0,0,12,156.1,912.9)" />
<use xlink:href="#f3_24" transform="matrix(12,0,0,12,165.3,912.9)" />
<use xlink:href="#f3_m" transform="matrix(7.9,0,0,7.9,174.2,905.9)" />
</g>
<path d="M108.5,943.1h19.6" class="g11_137" />
<g clip-path="url(#c11_137)">
<g fill="#000000" >
<use xlink:href="#f3_o" transform="matrix(12.5,0,0,12.4,109.7,936.2)" />
<use xlink:href="#f3_n" transform="matrix(12.5,0,0,12.4,114,962.1)" />
<use xlink:href="#f4_2e" transform="matrix(12.5,0,0,12.4,119.2,936.2)" />
<use xlink:href="#f4_24" transform="matrix(12.5,0,0,12.4,80,947.8)" />
<use xlink:href="#f5_4g" transform="matrix(12.5,0,0,12.4,57.4,947.8)" />
<use xlink:href="#f5_x" transform="matrix(12.5,0,0,12.4,93.6,947.8)" />
</g>
</g>
<path d="M58.2,995.8h32m20,0h9.9" class="g12_137" />
<g clip-path="url(#c12_137)">
<g fill="#000000" >
<use xlink:href="#f3_m" transform="matrix(7.3,0,0,7.2,71.1,980.6)" />
<use xlink:href="#f3_m" transform="matrix(7.3,0,0,7.2,80.5,1006.5)" />
<use xlink:href="#f3_l" transform="matrix(12.6,0,0,12.4,110.5,988.9)" />
<use xlink:href="#f3_1r" transform="matrix(12.6,0,0,12.4,131.8,1000.5)" />
<use xlink:href="#f3_o" transform="matrix(12.6,0,0,12.4,138.3,1000.5)" />
<use xlink:href="#f3_q" transform="matrix(12.6,0,0,12.4,173.1,1000.5)" />
<use xlink:href="#f3_1t" transform="matrix(12.6,0,0,12.4,192,1000.5)" />
<use xlink:href="#f3_n" transform="matrix(12.6,0,0,12.4,110.8,1014.9)" />
<use xlink:href="#f4_20" transform="matrix(12.6,0,0,12.4,59.5,988.9)" />
<use xlink:href="#f4_1m" transform="matrix(12.6,0,0,12.4,75.5,988.9)" />
<use xlink:href="#f4_2e" transform="matrix(12.6,0,0,12.4,147.9,1000.5)" />
<use xlink:href="#f4_24" transform="matrix(12.6,0,0,12.4,182.6,1000.5)" />
<use xlink:href="#f4_20" transform="matrix(12.6,0,0,12.4,61.4,1014.9)" />
<use xlink:href="#f4_24" transform="matrix(12.6,0,0,12.4,70.6,1014.9)" />
<use xlink:href="#f5_x" transform="matrix(12.6,0,0,12.4,95.3,1000.5)" />
<use xlink:href="#f5_2c" transform="matrix(12.6,0,0,12.4,122.9,1000.5)" />
<use xlink:href="#f5_h" transform="matrix(12.6,0,0,12.4,159.6,1000.5)" />
</g>
</g>
<g fill="#000000" >
<use xlink:href="#f3_1g" transform="matrix(12,0,0,12,55,1049.7)" />
<use xlink:href="#f3_2h" transform="matrix(12,0,0,12,65.3,1049.7)" />
<use xlink:href="#f3_2g" transform="matrix(12,0,0,12,74.5,1049.7)" />
<use xlink:href="#f3_2g" transform="matrix(12,0,0,12,79.5,1049.7)" />
<use xlink:href="#f3_25" transform="matrix(12,0,0,12,85.1,1049.7)" />
<use xlink:href="#f3_2a" transform="matrix(12,0,0,12,89.5,1049.7)" />
<use xlink:href="#f3_23" transform="matrix(12,0,0,12,98.3,1049.7)" />
<use xlink:href="#f3_24" transform="matrix(12,0,0,12,112.5,1049.7)" />
<use xlink:href="#f3_x" transform="matrix(12,0,0,12,126.1,1049.7)" />
</g>
<path d="M144.4,1045.1H164" class="g13_137" />
<g clip-path="url(#c13_137)">
<g fill="#000000" >
<use xlink:href="#f3_o" transform="matrix(11.5,0,0,12.4,145.6,1038.2)" />
<use xlink:href="#f3_n" transform="matrix(11.5,0,0,12.4,149.9,1064.1)" />
<use xlink:href="#f4_2e" transform="matrix(11.5,0,0,12.4,155.1,1038.2)" />
</g>
</g>
<path d="M58.2,1096.8H89.9m19.7,0h9.9m58.5,0h32.9" class="g14_137" />
<g clip-path="url(#c14_137)">
<g fill="#000000" >
<use xlink:href="#f3_m" transform="matrix(7.4,0,0,7.2,71,1081.6)" />
<use xlink:href="#f3_m" transform="matrix(7.4,0,0,7.2,80.2,1107.4)" />
<use xlink:href="#f3_l" transform="matrix(12.6,0,0,12.3,110,1090)" />
<use xlink:href="#f3_q" transform="matrix(12.6,0,0,12.3,178.9,1090)" />
<use xlink:href="#f3_i" transform="matrix(12.6,0,0,12.3,188.1,1090)" />
<use xlink:href="#f3_o" transform="matrix(12.6,0,0,12.3,192.6,1090)" />
<use xlink:href="#f3_o" transform="matrix(12.6,0,0,12.3,143,1101.4)" />
<use xlink:href="#f3_n" transform="matrix(12.6,0,0,12.3,110.3,1115.7)" />
<use xlink:href="#f3_n" transform="matrix(12.6,0,0,12.3,190.2,1115.7)" />
<use xlink:href="#f4_20" transform="matrix(12.6,0,0,12.3,59.5,1090)" />
<use xlink:href="#f4_1m" transform="matrix(12.6,0,0,12.3,75.3,1090)" />
<use xlink:href="#f4_2e" transform="matrix(12.6,0,0,12.3,202,1090)" />
<use xlink:href="#f4_2e" transform="matrix(12.6,0,0,12.3,152.4,1101.4)" />
<use xlink:href="#f4_20" transform="matrix(12.6,0,0,12.3,61.3,1115.7)" />
<use xlink:href="#f4_24" transform="matrix(12.6,0,0,12.3,70.4,1115.7)" />
<use xlink:href="#f5_4o" transform="matrix(12.6,0,0,12.3,133.5,1091.3)" />
<use xlink:href="#f5_54" transform="matrix(12.6,0,0,12.3,213.6,1091.3)" />
<use xlink:href="#f5_x" transform="matrix(12.6,0,0,12.3,94.9,1101.4)" />
<use xlink:href="#f5_2c" transform="matrix(12.6,0,0,12.3,122.2,1101.4)" />
<use xlink:href="#f5_h" transform="matrix(12.6,0,0,12.3,164.1,1101.4)" />
<use xlink:href="#f5_4p" transform="matrix(12.6,0,0,12.3,133.5,1106.3)" />
<use xlink:href="#f5_55" transform="matrix(12.6,0,0,12.3,213.6,1106.3)" />
<use xlink:href="#f5_4q" transform="matrix(12.6,0,0,12.3,133.5,1117.9)" />
<use xlink:href="#f5_56" transform="matrix(12.6,0,0,12.3,213.6,1117.9)" />
</g>
</g>
<path d="M85.4,1149.6H95.5" class="g15_137" />
<g clip-path="url(#c15_137)">
<g fill="#000000" >
<use xlink:href="#f3_l" transform="matrix(12.6,0,0,12.4,85.8,1142.7)" />
<use xlink:href="#f3_1r" transform="matrix(12.6,0,0,12.4,107.3,1154.2)" />
<use xlink:href="#f3_o" transform="matrix(12.6,0,0,12.4,113.9,1154.2)" />
<use xlink:href="#f3_1t" transform="matrix(12.6,0,0,12.4,131.9,1154.2)" />
<use xlink:href="#f3_n" transform="matrix(12.6,0,0,12.4,86.1,1168.6)" />
<use xlink:href="#f4_2e" transform="matrix(12.6,0,0,12.4,123.5,1154.2)" />
<use xlink:href="#f5_x" transform="matrix(12.6,0,0,12.4,58,1154.2)" />
<use xlink:href="#f5_h" transform="matrix(12.6,0,0,12.4,72.7,1154.2)" />
<use xlink:href="#f5_2c" transform="matrix(12.6,0,0,12.4,98.2,1154.2)" />
</g>
</g>
<image preserveAspectRatio="none" x="55" y="195" width="188" height="154" xlink:href="img/6.png" />
<path fill-rule="evenodd" d="M37.4,38.1h.7v-.7h-.7v.7Z" class="g16_137" />
<path fill-rule="evenodd" d="M37.4,38.1h.7v-.7h-.7v.7Z" class="g16_137" />
<path fill-rule="evenodd" d="M38.1,38.1H871.5v-.7H38.1v.7Z" class="g16_137" />
<path fill-rule="evenodd" d="M871.5,38.1h.8v-.7h-.8v.7Z" class="g16_137" />
<path fill-rule="evenodd" d="M871.5,38.1h.8v-.7h-.8v.7Z" class="g16_137" />
<path fill-rule="evenodd" d="M37.4,1248.5h.7V38.1h-.7V1248.5Z" class="g16_137" />
<path fill-rule="evenodd" d="M872.3,1248.5h.7V38.1h-.7V1248.5Z" class="g16_137" />
<path fill-rule="evenodd" d="M871.5,1248.5h.8V38.1h-.8V1248.5Z" class="g16_137" />
<path fill-rule="evenodd" d="M37.4,1249.2h.7v-.7h-.7v.7Z" class="g16_137" />
<path fill-rule="evenodd" d="M37.4,1249.2h.7v-.7h-.7v.7Z" class="g16_137" />
<path fill-rule="evenodd" d="M38.1,1249.9H871.5v-.7H38.1v.7Z" class="g16_137" />
<path fill-rule="evenodd" d="M38.1,1249.2H871.5v-.7H38.1v.7Z" class="g16_137" />
<path fill-rule="evenodd" d="M872.3,1249.9h.7v-1.4h-.7v1.4Z" class="g16_137" />
<path fill-rule="evenodd" d="M871.5,1249.9H873v-.7h-1.5v.7Z" class="g16_137" />
<path fill-rule="evenodd" d="M871.5,1249.2h.8v-.7h-.8v.7Z" class="g16_137" />
<path fill-rule="evenodd" d="M871.5,1249.2h.8v-.7h-.8v.7Z" class="g16_137" />
<defs>
<path d="M489,-15c0,0,-99,0,-179,30c0,0,-80,30,-136,91c0,0,-56,61,-85,152c0,0,-30,91,-30,212c0,0,0,123,32,218c0,0,33,96,92,161c0,0,59,65,142,98c0,0,82,34,181,34c0,0,40,0,78,-7c0,0,37,-7,69,-18c0,0,31,-11,57,-25c0,0,25,-14,35,-24c0,0,10,-10,14,-17c0,0,4,-7,6,-17c0,0,2,-11,3,-25c0,0,2,-14,2,-35c0,0,0,-22,-2,-38c0,0,-1,-15,-5,-25c0,0,-4,-10,-9,-14c0,0,-5,-5,-12,-5c0,0,-11,0,-28,13c0,0,-18,13,-45,29c0,0,-27,16,-65,29c0,0,-37,13,-89,13c0,0,-58,0,-103,-23c0,0,-45,-23,-77,-67c0,0,-31,-44,-48,-106c0,0,-16,-61,-16,-139c0,0,0,-85,17,-147c0,0,18,-62,50,-103c0,0,33,-40,79,-60c0,0,45,-19,103,-19c0,0,52,0,90,12c0,0,38,12,65,27c0,0,27,15,45,27c0,0,17,12,27,12c0,0,8,0,12,-3c0,0,4,-3,7,-12c0,0,3,-9,5,-25c0,0,1,-16,1,-43c0,0,0,-18,-1,-31c0,0,-1,-14,-3,-23c0,0,-2,-9,-6,-16c0,0,-4,-7,-12,-15c0,0,-8,-9,-32,-22c0,0,-23,-14,-57,-26C661,13,627,1,583,-6c0,0,-43,-9,-94,-9Z" 
id="f0_j"
transform="scale(0.001,-0.001)" />

<path d="M440,150c0,0,41,0,68,8c0,0,28,9,49,26c0,0,20,16,32,41c0,0,11,25,11,58c0,0,0,33,-11,60c0,0,-11,26,-33,44c0,0,-21,18,-55,28c0,0,-33,9,-87,9H298V150ZM407,567c0,0,42,0,68,10c0,0,25,10,42,28c0,0,16,17,24,41c0,0,9,24,9,50c0,0,0,29,-9,52c0,0,-9,23,-27,39c0,0,-18,15,-45,23c0,0,-27,8,-72,8H298V567ZM164,0c0,0,-25,0,-42,15c0,0,-16,14,-16,47V903c0,0,0,33,16,48c0,0,17,14,42,14H406c0,0,88,0,150,-15c0,0,61,-15,103,-45c0,0,42,-30,65,-77c0,0,22,-46,22,-108c0,0,0,-36,-9,-67c0,0,-9,-31,-26,-56c0,0,-17,-25,-42,-45c0,0,-25,-19,-57,-31c0,0,41,-7,76,-26c0,0,34,-19,60,-48c0,0,26,-30,41,-69c0,0,15,-40,15,-89c0,0,0,-51,-14,-93c0,0,-15,-42,-40,-74c0,0,-25,-32,-59,-55c0,0,-35,-23,-77,-38C614,29,573,14,525,7C525,7,478,0,420,0Z" 
id="f0_i"
transform="scale(0.001,-0.001)" />

<path d="M320,-17c0,0,-50,0,-93,9c0,0,-43,8,-76,19c0,0,-32,11,-54,24C97,35,75,48,65,58c0,0,-10,9,-14,28c0,0,-4,18,-4,52c0,0,0,23,1,39c0,0,2,15,5,25c0,0,4,10,9,14c0,0,6,4,13,4c0,0,11,0,30,-12c0,0,19,-13,49,-28c0,0,30,-15,71,-27c0,0,42,-12,96,-12c0,0,36,0,64,8c0,0,29,9,49,25c0,0,19,15,30,38c0,0,10,23,10,52c0,0,0,33,-18,56c0,0,-18,24,-46,42c0,0,-29,18,-66,34c0,0,-36,16,-75,34c0,0,-39,18,-76,41c0,0,-36,23,-65,54c0,0,-29,32,-47,75c0,0,-17,44,-17,104c0,0,0,70,25,122c0,0,26,53,70,88c0,0,43,34,103,51c0,0,59,18,125,18c0,0,35,0,69,-6c0,0,34,-5,64,-14c0,0,30,-9,53,-20c0,0,23,-11,31,-18c0,0,7,-8,10,-13c0,0,3,-5,4,-14c0,0,2,-8,3,-21c0,0,1,-13,1,-33c0,0,0,-21,-1,-36c0,0,-1,-15,-4,-25c0,0,-3,-9,-7,-14c0,0,-5,-4,-14,-4c0,0,-8,0,-26,10c0,0,-18,10,-44,23c0,0,-26,12,-60,22c0,0,-34,10,-75,10c0,0,-32,0,-56,-8c0,0,-24,-8,-40,-21c0,0,-16,-14,-24,-34c0,0,-8,-19,-8,-41c0,0,0,-32,18,-56c0,0,17,-23,46,-42c0,0,30,-18,67,-34c0,0,38,-16,76,-34c0,0,39,-18,76,-41c0,0,38,-22,67,-54c0,0,29,-32,47,-75c0,0,18,-43,18,-101c0,0,0,-76,-29,-133c0,0,-28,-58,-77,-96C572,60,524,21,459,2c0,0,-65,-19,-139,-19Z" 
id="f0_2n"
transform="scale(0.001,-0.001)" />

<path d="M164,0c0,0,-25,0,-42,15c0,0,-16,14,-16,47V903c0,0,0,33,16,48c0,0,17,14,42,14H645c0,0,7,0,12,-4c0,0,5,-3,9,-13c0,0,4,-9,6,-24c0,0,2,-14,2,-36c0,0,0,-21,-2,-36c0,0,-2,-14,-6,-23c0,0,-4,-9,-9,-13c0,0,-5,-4,-12,-4H301V576H593c0,0,6,0,12,-4c0,0,6,-4,9,-13c0,0,4,-8,6,-23c0,0,2,-14,2,-35c0,0,0,-22,-2,-36c0,0,-2,-14,-6,-23c0,0,-3,-8,-9,-12c0,0,-6,-4,-12,-4H301V154H649c0,0,6,0,12,-5c0,0,5,-4,9,-13c0,0,4,-9,6,-23c0,0,2,-15,2,-36c0,0,0,-22,-2,-36c0,0,-2,-15,-6,-24c0,0,-4,-9,-9,-13c0,0,-6,-4,-12,-4Z" 
id="f0_t"
transform="scale(0.001,-0.001)" />

<path d="M79,297c0,0,-19,0,-27,18c0,0,-8,17,-8,60c0,0,0,41,8,59c0,0,8,17,27,17H389c0,0,9,0,15,-4c0,0,7,-4,11,-13c0,0,5,-9,7,-23c0,0,1,-15,1,-36c0,0,0,-43,-8,-61c0,0,-8,-17,-26,-17Z" 
id="f0_oj"
transform="scale(0.001,-0.001)" />

<path d="M121,-4c0,0,-39,0,-60,2C61,-2,39,0,32,8c0,0,-8,8,-3,24c0,0,4,15,18,41L279,495L64,892c0,0,-14,26,-19,42c0,0,-5,17,4,24c0,0,9,8,32,10c0,0,23,2,65,2c0,0,35,0,56,-2c0,0,20,-1,32,-4c0,0,12,-4,17,-10c0,0,5,-6,9,-15L431,620L595,939c0,0,5,9,10,15c0,0,5,6,16,10c0,0,10,3,29,4c0,0,19,2,53,2c0,0,37,0,59,-2c0,0,22,-2,30,-10c0,0,8,-8,4,-24c0,0,-4,-16,-17,-42L564,497L793,73c0,0,14,-26,18,-41c0,0,4,-16,-5,-24c0,0,-9,-8,-32,-10c0,0,-24,-2,-65,-2c0,0,-36,0,-56,2c0,0,-20,1,-31,3c0,0,-12,4,-17,10c0,0,-5,6,-9,15L414,374L233,26c0,0,-4,-9,-9,-15c0,0,-6,-6,-17,-10c0,0,-12,-2,-32,-3c0,0,-21,-2,-54,-2Z" 
id="f0_3e"
transform="scale(0.001,-0.001)" />

<path d="M204,-4c0,0,-28,0,-47,2c0,0,-19,2,-31,5c0,0,-11,4,-16,10c0,0,-4,6,-4,13V939c0,0,0,7,4,13c0,0,5,6,17,10c0,0,11,3,30,6c0,0,19,2,47,2c0,0,29,0,48,-2c0,0,18,-3,29,-6c0,0,11,-4,16,-10c0,0,5,-6,5,-13V26c0,0,0,-7,-5,-13c0,0,-5,-6,-16,-10c0,0,-11,-3,-29,-5c0,0,-19,-2,-48,-2Z" 
id="f0_1c"
transform="scale(0.001,-0.001)" />

<path d="M127,0c0,0,-16,0,-28,3C99,3,87,6,80,15c0,0,-8,8,-11,25c0,0,-3,16,-3,42c0,0,0,25,2,42c0,0,2,18,8,32c0,0,6,14,15,27c0,0,9,13,24,29L282,390c0,0,50,53,81,95c0,0,30,43,47,79c0,0,17,35,24,65c0,0,6,30,6,57c0,0,0,24,-8,46c0,0,-8,22,-23,39c0,0,-15,16,-38,25c0,0,-23,10,-55,10c0,0,-44,0,-78,-12c0,0,-33,-11,-59,-25c0,0,-26,-13,-43,-25c0,0,-17,-12,-27,-12c0,0,-7,0,-11,5c0,0,-5,4,-8,15c0,0,-3,10,-5,28c0,0,-2,17,-2,42c0,0,0,18,1,29c0,0,1,12,4,20c0,0,2,9,6,15c0,0,3,6,13,15c0,0,9,9,34,23c0,0,25,14,61,27c0,0,37,14,81,23c0,0,44,9,92,9c0,0,75,0,131,-19c0,0,57,-19,94,-53c0,0,37,-34,55,-81c0,0,19,-47,19,-100c0,0,0,-47,-9,-93c0,0,-9,-45,-37,-98c0,0,-29,-52,-80,-116c0,0,-52,-64,-136,-148L299,159H679c0,0,8,0,14,-4c0,0,6,-5,11,-14c0,0,4,-9,7,-25c0,0,2,-15,2,-36c0,0,0,-22,-2,-37c0,0,-2,-15,-6,-25c0,0,-3,-10,-9,-14c0,0,-6,-4,-14,-4Z" 
id="f0_rz"
transform="scale(0.001,-0.001)" />

<path d="M385,138c0,0,29,0,52,9c0,0,22,10,39,28c0,0,17,19,28,47c0,0,11,29,19,66c0,0,7,37,9,84c0,0,3,47,3,104c0,0,0,69,-4,122c0,0,-4,52,-11,91c0,0,-8,39,-20,66c0,0,-12,27,-28,43c0,0,-16,16,-37,22c0,0,-21,7,-47,7c0,0,-44,0,-73,-21c0,0,-28,-21,-45,-64c0,0,-17,-42,-24,-106c0,0,-6,-63,-6,-148c0,0,0,-103,8,-171c0,0,8,-67,26,-107c0,0,17,-40,45,-56c0,0,27,-16,66,-16ZM378,-17c0,0,-99,0,-164,33c0,0,-65,34,-103,98c0,0,-38,64,-54,156c0,0,-15,92,-15,209c0,0,0,115,19,208c0,0,19,94,61,160c0,0,42,65,110,101c0,0,68,35,165,35c0,0,99,0,164,-34c0,0,65,-34,103,-98c0,0,39,-64,53,-156c0,0,15,-92,15,-209c0,0,0,-115,-18,-209c0,0,-19,-93,-61,-159C653,118,611,53,543,17c0,0,-67,-34,-165,-34Z" 
id="f0_rx"
transform="scale(0.001,-0.001)" />

<path d="M142,0c0,0,-6,0,-12,4c0,0,-5,3,-9,12c0,0,-4,9,-6,23c0,0,-3,15,-3,36c0,0,0,21,2,36c0,0,2,14,6,23c0,0,4,9,10,13c0,0,5,5,12,5H322V779L166,693c0,0,-17,-8,-28,-10c0,0,-1,0,-3,0c-4,0,-10,1,-14,5c0,0,-6,6,-8,22c0,0,-2,15,-2,44c0,0,0,18,0,29c0,0,1,12,4,20c0,0,3,8,8,14c0,0,5,5,14,11L345,962c0,0,4,3,9,5c0,0,6,2,15,3c0,0,9,1,23,2c0,0,15,0,38,0c0,0,28,0,46,-1c0,0,17,-1,26,-4c0,0,9,-3,12,-7c0,0,3,-4,3,-11V152H675c0,0,7,0,12,-5c0,0,6,-4,10,-13c0,0,4,-9,6,-23c0,0,2,-15,2,-36c0,0,0,-21,-2,-36c0,0,-3,-14,-7,-23c0,0,-4,-9,-9,-12c0,0,-5,-4,-12,-4Z" 
id="f0_ry"
transform="scale(0.001,-0.001)" />

<path d="M439,356V801h-1L183,356ZM532,-4c0,0,-27,0,-45,2c0,0,-18,2,-29,5c0,0,-11,3,-15,9c0,0,-4,5,-4,13V199H70c0,0,-11,0,-19,3c0,0,-8,3,-14,12c0,0,-5,9,-8,27c0,0,-3,17,-3,46c0,0,0,24,2,42c0,0,1,17,3,31c0,0,3,15,8,27c0,0,5,13,12,27L351,944c0,0,4,7,13,11c0,0,9,5,25,9c0,0,16,3,40,4c0,0,25,2,60,2c0,0,38,0,65,-2c0,0,27,-2,43,-6c0,0,16,-4,23,-10c0,0,8,-6,8,-14V356h85c0,0,12,0,21,-18c0,0,8,-19,8,-61c0,0,0,-38,-8,-58c0,0,-7,-20,-21,-20H628V25c0,0,0,-8,-5,-13c0,0,-4,-6,-15,-9c0,0,-12,-3,-29,-5c0,0,-18,-2,-47,-2Z" 
id="f0_s6"
transform="scale(0.001,-0.001)" />

<path d="M589,371L453,782h-1L317,371ZM106,-4c0,0,-35,0,-54,2C52,-2,32,0,25,8c0,0,-7,9,-5,24c0,0,2,16,11,42L329,931c0,0,4,13,10,21c0,0,6,7,19,12c0,0,13,4,36,5c0,0,23,1,61,1c0,0,44,0,71,-1c0,0,26,-1,40,-5c0,0,15,-5,21,-13c0,0,6,-8,11,-22L896,73c0,0,9,-27,11,-43c0,0,3,-15,-6,-23c0,0,-8,-7,-29,-9c0,0,-21,-2,-57,-2c0,0,-38,0,-59,1c0,0,-22,1,-33,4c0,0,-11,3,-16,9c0,0,-4,6,-7,16L635,220H272L211,31c0,0,-2,-11,-7,-18c0,0,-5,-7,-16,-11c0,0,-11,-3,-31,-4c0,0,-19,-2,-51,-2Z" 
id="f0_5"
transform="scale(0.001,-0.001)" />

<path d="M198,-4c0,0,-27,0,-45,2c0,0,-18,2,-28,5c0,0,-11,4,-15,10c0,0,-4,6,-4,13V887c0,0,0,38,20,58c0,0,20,20,53,20H308c0,0,34,0,59,-6c0,0,24,-5,42,-18c0,0,18,-13,30,-35c0,0,12,-21,21,-52L669,279h3L889,852c0,0,9,32,21,53c0,0,11,22,27,35c0,0,15,14,36,19c0,0,21,6,48,6h132c0,0,21,0,35,-5c0,0,15,-5,24,-15c0,0,9,-11,14,-25c0,0,5,-15,5,-33V26c0,0,0,-7,-4,-13c0,0,-4,-6,-15,-10c0,0,-11,-3,-29,-5c0,0,-18,-2,-45,-2c0,0,-27,0,-45,2c0,0,-18,2,-28,5c0,0,-11,4,-15,10c0,0,-5,6,-5,13V813h-1L764,27c0,0,-3,-10,-10,-16c0,0,-6,-6,-18,-10c0,0,-12,-3,-29,-4c0,0,-18,-1,-44,-1c0,0,-25,0,-43,2c0,0,-18,2,-29,5c0,0,-12,4,-19,10c0,0,-6,6,-9,14L293,813h-2V26c0,0,0,-7,-4,-13c0,0,-4,-6,-15,-10c0,0,-11,-3,-29,-5c0,0,-17,-2,-45,-2Z" 
id="f0_1x"
transform="scale(0.001,-0.001)" />

<path d="M193,-4c0,0,-26,0,-43,2c0,0,-18,2,-27,6c0,0,-10,4,-14,10c0,0,-3,6,-3,13V895c0,0,0,35,20,53c0,0,21,17,50,17H282c0,0,28,0,47,-5c0,0,20,-5,35,-16c0,0,15,-11,29,-31c0,0,13,-20,27,-49L608,511c0,0,17,-32,33,-63c0,0,16,-31,31,-62c0,0,14,-31,29,-60c0,0,14,-30,27,-60h1c0,0,-2,52,-3,109c0,0,-1,57,-1,108V936c0,0,0,7,4,13c0,0,5,6,15,11c0,0,10,4,28,6c0,0,17,2,44,2c0,0,25,0,42,-2c0,0,17,-2,27,-6c0,0,9,-5,13,-11c0,0,4,-6,4,-13V68c0,0,0,-17,-6,-30c0,0,-6,-14,-17,-23C879,15,869,6,856,2c0,0,-14,-3,-28,-3H744c0,0,-26,0,-45,4c0,0,-19,5,-35,19c0,0,-16,14,-31,38c0,0,-15,23,-34,60L359,572c0,0,-21,40,-43,86c0,0,-21,47,-38,91h-2c0,0,3,-54,5,-107c0,0,2,-53,2,-110V27c0,0,0,-7,-5,-13c0,0,-4,-6,-14,-10c0,0,-10,-4,-27,-6c0,0,-17,-2,-44,-2Z" 
id="f0_1y"
transform="scale(0.001,-0.001)" />

<path d="M378,-4c0,0,-28,0,-47,2c0,0,-19,2,-31,5c0,0,-11,4,-16,10c0,0,-4,6,-4,13V805H38c0,0,-8,0,-13,4c0,0,-5,5,-9,14c0,0,-3,9,-5,25c0,0,-2,15,-2,37c0,0,0,22,2,38c0,0,2,15,5,25c0,0,4,9,9,13c0,0,5,4,13,4H718c0,0,7,0,12,-4c0,0,6,-4,10,-13c0,0,3,-10,5,-25c0,0,2,-16,2,-38c0,0,0,-22,-2,-37c0,0,-2,-16,-5,-25c0,0,-4,-9,-10,-14c0,0,-5,-4,-12,-4H476V26c0,0,0,-7,-5,-13c0,0,-5,-6,-16,-10c0,0,-11,-3,-30,-5c0,0,-19,-2,-47,-2Z" 
id="f0_2t"
transform="scale(0.001,-0.001)" />

<path d="M514,145c0,0,72,0,121,27c0,0,48,26,78,73c0,0,30,46,42,107c0,0,13,62,13,131c0,0,0,76,-12,139c0,0,-12,62,-41,106c0,0,-29,45,-76,69c0,0,-48,24,-120,24c0,0,-72,0,-120,-27c0,0,-49,-27,-79,-73c0,0,-29,-45,-42,-106c0,0,-12,-61,-12,-129c0,0,0,-79,12,-142c0,0,12,-63,40,-108c0,0,28,-44,76,-68c0,0,48,-23,120,-23ZM508,-17c0,0,-113,0,-196,29c0,0,-84,29,-140,90c0,0,-56,60,-84,154c0,0,-28,93,-28,221c0,0,0,117,29,210c0,0,30,94,89,160c0,0,59,65,146,101c0,0,87,35,202,35c0,0,110,0,194,-29c0,0,84,-30,140,-90c0,0,56,-60,85,-153c0,0,29,-92,29,-217c0,0,0,-120,-30,-215c0,0,-30,-95,-89,-161C855,118,796,52,709,17c0,0,-87,-34,-201,-34Z" 
id="f0_24"
transform="scale(0.001,-0.001)" />

<path d="M299,0V777H162l36,173H508V0Z" 
id="f1_l"
transform="scale(0.001,-0.001)" />

<path d="M407,475c0,0,61,0,105,44c0,0,44,43,44,103c0,0,0,64,-43,108c0,0,-44,43,-109,43c0,0,-57,0,-99,-44c0,0,-42,-45,-42,-107c0,0,0,-62,42,-104c0,0,42,-43,102,-43ZM195,0L430,323c0,0,-67,-8,-85,-8c0,0,-126,0,-212,92c0,0,-87,92,-87,227c0,0,0,141,107,237c0,0,106,96,264,96c0,0,151,0,246,-97c0,0,95,-96,95,-250c0,0,0,-112,-56,-223c0,0,-55,-112,-94,-168L448,0Z" 
id="f1_t"
transform="scale(0.001,-0.001)" />

<path d="M44,-281L425,1053H537L156,-281Z" 
id="f1_j"
transform="scale(0.001,-0.001)" />

<path d="M75,0L400,413c0,0,71,91,101,149c0,0,30,58,30,109c0,0,0,55,-36,91c0,0,-36,36,-91,36c0,0,-63,0,-91,-45c0,0,-28,-46,-34,-142H67c0,0,0,173,102,268c0,0,102,95,253,95c0,0,140,0,229,-82c0,0,89,-82,89,-209c0,0,0,-125,-104,-276L580,324c0,0,-34,-50,-85,-114L468,178H740V0Z" 
id="f1_m"
transform="scale(0.001,-0.001)" />

<path d="M340,-13c0,0,-73,0,-129,20C211,7,155,27,86,74l22,217c0,0,156,-103,245,-103c0,0,64,0,112,45c0,0,47,46,47,107c0,0,0,68,-47,113c0,0,-48,46,-121,46c0,0,-85,0,-184,-42l48,495H681V777H393L382,665c0,0,163,0,251,-95c0,0,88,-95,88,-224c0,0,0,-146,-113,-253C608,93,494,-13,340,-13Z" 
id="f1_p"
transform="scale(0.001,-0.001)" />

<path d="M410,-14c0,0,-86,0,-175,14C235,0,145,14,81,38V307h66L181,146c0,0,31,-37,94,-62c0,0,64,-24,132,-24c0,0,214,0,214,177c0,0,0,55,-41,93c0,0,-41,38,-128,68c0,0,-128,42,-185,68c0,0,-56,27,-95,63c0,0,-38,36,-62,87c0,0,-23,51,-23,125c0,0,0,132,90,201c0,0,90,69,263,69c0,0,125,0,278,-32V741H651L618,878c0,0,-76,56,-178,56c0,0,-92,0,-141,-34c0,0,-49,-34,-49,-104c0,0,0,-50,41,-86c0,0,41,-35,128,-63c0,0,171,-56,235,-97c0,0,64,-41,97,-103c0,0,34,-61,34,-143c0,0,0,-318,-375,-318Z" 
id="f2_1j"
transform="scale(0.001,-0.001)" />

<path d="M379,60c0,0,59,0,84,64c0,0,24,65,24,231c0,0,0,164,-24,227c0,0,-24,63,-84,63c0,0,-57,0,-80,-60c0,0,-22,-61,-22,-230c0,0,0,-173,23,-234c0,0,22,-61,79,-61Zm-2,-74c0,0,-161,0,-240,91c0,0,-79,91,-79,277c0,0,0,186,80,276c0,0,81,90,245,90c0,0,167,0,245,-93c0,0,78,-93,78,-273c0,0,0,-188,-81,-278c0,0,-81,-90,-248,-90Z" 
id="f2_2b"
transform="scale(0.001,-0.001)" />

<path d="M30,0V49l76,18V992l-72,18v50H322V67L398,49V0Z" 
id="f2_28"
transform="scale(0.001,-0.001)" />

<path d="M287,-18c0,0,-194,0,-194,206V634L23,652v49H309V217c0,0,0,-63,26,-98c0,0,27,-35,76,-35c0,0,57,0,113,25V634l-64,18v49H740V67L809,49V0H536L526,61L475,35c0,0,-104,-53,-188,-53Z" 
id="f2_2h"
transform="scale(0.001,-0.001)" />

<path d="M327,-14c0,0,-101,0,-156,45c0,0,-55,45,-55,131V624H25v48l108,29l87,159H332V701H480V624H332V176c0,0,0,-49,20,-73c0,0,20,-25,53,-25c0,0,40,0,97,12V26c0,0,-22,-15,-76,-27c0,0,-55,-13,-99,-13Z" 
id="f2_2g"
transform="scale(0.001,-0.001)" />

<path d="M34,0V49l76,18V634L38,652v49H325V67L402,49V0ZM217,831c0,0,-48,0,-81,33c0,0,-34,33,-34,82c0,0,0,48,34,81c0,0,34,33,81,33c0,0,48,0,81,-33c0,0,33,-33,33,-81c0,0,0,-47,-33,-81c0,0,-32,-34,-81,-34Z" 
id="f2_25"
transform="scale(0.001,-0.001)" />

<path d="M41,0V49l69,18V634L41,652v49H313l11,-61l50,26c0,0,105,54,188,54c0,0,194,0,194,-207V67L827,49V0H478V49l63,18V484c0,0,0,63,-27,98c0,0,-26,35,-75,35c0,0,-57,0,-114,-25V67L389,49V0Z" 
id="f2_2a"
transform="scale(0.001,-0.001)" />

<path d="M248,-20c0,0,-52,0,-87,34c0,0,-36,36,-36,88c0,0,0,52,36,88c0,0,35,36,87,36c0,0,52,0,88,-36c0,0,36,-36,36,-88c0,0,0,-51,-36,-87c0,0,-35,-35,-88,-35Zm0,488c0,0,-52,0,-87,36c0,0,-36,36,-36,88c0,0,0,52,35,88c0,0,35,36,88,36c0,0,53,0,89,-36c0,0,35,-37,35,-88c0,0,0,-51,-36,-87c0,0,-35,-37,-88,-37Z" 
id="f2_u"
transform="scale(0.001,-0.001)" />

<path d="M44,0V40L172,60V941L44,960v40H471V960L316,941V65H513c0,0,159,0,234,14l46,208h48L828,0Z" 
id="f3_1c"
transform="scale(0.001,-0.001)" />

<path d="M495,413c0,0,0,133,-34,190c0,0,-34,57,-105,57c0,0,-78,0,-119,-63c0,0,-42,-62,-42,-184ZM374,-14c0,0,-163,0,-239,87c0,0,-75,88,-75,283c0,0,0,183,77,273c0,0,76,91,219,91c0,0,269,0,269,-306V353H194V340c0,0,0,-103,23,-160c0,0,22,-57,70,-87c0,0,47,-29,124,-29c0,0,40,0,96,6c0,0,55,7,91,15V43C598,43,562,20,500,3c0,0,-61,-17,-126,-17Z" 
id="f3_21"
transform="scale(0.001,-0.001)" />

<path d="M249,-14c0,0,-71,0,-107,42c0,0,-35,42,-35,119V639H15v33l93,29l76,159h47V701H391V639H231V161c0,0,0,-48,22,-73c0,0,22,-24,57,-24c0,0,44,0,106,12V26C416,26,389,8,340,-2c0,0,-49,-12,-91,-12Z" 
id="f3_2g"
transform="scale(0.001,-0.001)" />

<path d="M448,506c0,0,134,0,190,49c0,0,57,50,57,168c0,0,0,114,-56,162c0,0,-56,48,-195,48H316V506ZM777,0L496,438H316V60L468,40V0H54V40L172,60V941L44,960v40H476c0,0,188,0,277,-63c0,0,90,-64,90,-204c0,0,0,-100,-54,-173c0,0,-55,-73,-151,-101L909,60L1017,40V0Z" 
id="f3_1i"
transform="scale(0.001,-0.001)" />

<path d="M284,67c0,0,51,0,88,12c0,0,37,12,74,30V358l-98,-3c0,0,-100,-4,-135,-39c0,0,-35,-35,-35,-117c0,0,0,-132,106,-132ZM233,-14c0,0,-179,0,-179,208c0,0,0,70,27,116c0,0,27,46,87,70c0,0,60,24,173,27l105,3V519c0,0,0,72,-26,107c0,0,-27,34,-82,34c0,0,-75,0,-137,-35L176,538H134V691c0,0,121,26,213,26c0,0,115,0,169,-47c0,0,54,-47,54,-144V52L657,33V0H465L451,70c0,0,-85,-84,-218,-84Z" 
id="f3_1x"
transform="scale(0.001,-0.001)" />

<path d="M439,0V33l93,19V500c0,0,0,62,-30,97c0,0,-31,36,-94,36c0,0,-67,0,-165,-22V52L338,33V0H35V33l84,19V649L35,668v33H235l7,-57c0,0,57,33,122,54c0,0,65,22,108,22c0,0,91,0,137,-53c0,0,47,-53,47,-154V52L741,33V0Z" 
id="f3_2a"
transform="scale(0.001,-0.001)" />

<path d="M383,64c0,0,85,0,152,28V645c0,0,-67,13,-152,13c0,0,-194,0,-194,-314c0,0,0,-141,48,-211c0,0,48,-69,146,-69ZM342,-14c0,0,-287,0,-287,358c0,0,0,184,82,280c0,0,81,96,239,96c0,0,81,0,163,-18c0,0,-4,25,-4,124v182l-118,18v34H659V52L745,33V0H548l-9,52c0,0,-84,-66,-197,-66Z" 
id="f3_20"
transform="scale(0.001,-0.001)" />

<path d="M442,0V33l93,19V504c0,0,0,129,-124,129c0,0,-70,0,-168,-22V52L338,33V0H31V33l88,19v956L15,1026v34H243V756c0,0,0,-77,-5,-112c0,0,54,31,122,53c0,0,68,23,115,23c0,0,91,0,137,-53c0,0,47,-53,47,-154V52L744,33V0Z" 
id="f3_24"
transform="scale(0.001,-0.001)" />

<path d="M376,50c0,0,103,0,149,80c0,0,46,81,46,240c0,0,0,137,-47,204c0,0,-48,67,-148,67c0,0,-44,0,-87,-7c0,0,-44,-8,-63,-17V62c0,0,63,-12,150,-12Zm3,-64c0,0,-64,0,-141,14c0,0,-78,14,-136,37v971L0,1026v34H226V809c0,0,0,-40,-4,-148c0,0,74,59,188,59c0,0,143,0,219,-87c0,0,77,-87,77,-263c0,0,0,-189,-84,-287c0,0,-84,-97,-243,-97Z" 
id="f3_1y"
transform="scale(0.001,-0.001)" />

<path d="M31,0V33l88,19V649L31,668v33H235l7,-87c0,0,44,37,121,71c0,0,76,35,121,35h11V530H463l-43,82c0,0,-37,0,-88,-10c0,0,-52,-10,-89,-26V52L363,33V0Z" 
id="f3_2e"
transform="scale(0.001,-0.001)" />

<path d="M32,0V33L151,52V649L52,668v33H275V52L395,33V0ZM201,850c0,0,-32,0,-56,24c0,0,-24,24,-24,56c0,0,0,34,24,58c0,0,24,24,56,24c0,0,34,0,58,-24c0,0,24,-24,24,-58c0,0,0,-32,-24,-56c0,0,-24,-24,-58,-24Z" 
id="f3_25"
transform="scale(0.001,-0.001)" />

<path d="M289,-14c0,0,-179,0,-179,205V649L20,668v33H233V200c0,0,0,-128,120,-128c0,0,92,0,173,23V649L420,668v33H649V52L738,33V0H533l-6,57C527,57,474,28,405,7c0,0,-69,-21,-116,-21Z" 
id="f3_2h"
transform="scale(0.001,-0.001)" />

<path d="M278,-14c0,0,-52,0,-115,11c0,0,-63,10,-99,23V193H98L134,95c0,0,56,-50,146,-50c0,0,144,0,144,123c0,0,0,91,-114,130l-66,21c0,0,-75,25,-110,50c0,0,-34,26,-53,63c0,0,-18,36,-18,89c0,0,0,92,63,145c0,0,63,54,170,54c0,0,77,0,193,-23V544H454l-32,81c0,0,-39,35,-124,35c0,0,-61,0,-92,-30c0,0,-32,-30,-32,-80c0,0,0,-43,29,-72c0,0,28,-29,86,-48c0,0,110,-38,144,-55c0,0,33,-17,57,-42c0,0,23,-25,36,-57c0,0,13,-32,13,-79c0,0,0,-104,-66,-158c0,0,-66,-53,-195,-53Z" 
id="f3_2f"
transform="scale(0.001,-0.001)" />

<path d="M359,-270c0,0,124,0,192,46c0,0,67,47,67,129c0,0,0,43,-26,67c0,0,-26,24,-79,24H242c0,0,-32,-27,-51,-69c0,0,-20,-41,-20,-77c0,0,0,-64,46,-92c0,0,46,-28,142,-28Zm11,561c0,0,81,0,115,47c0,0,34,47,34,141c0,0,0,100,-35,142c0,0,-35,42,-113,42c0,0,-78,0,-114,-43c0,0,-37,-42,-37,-141c0,0,0,-98,36,-143c0,0,36,-45,114,-45ZM359,-329c0,0,-143,0,-218,44c0,0,-75,43,-75,125c0,0,0,39,27,78c0,0,26,38,98,89c0,0,-43,14,-72,48c0,0,-29,35,-29,74L208,262c0,0,-118,55,-118,217c0,0,0,115,73,178c0,0,73,63,211,63c0,0,28,0,71,-6c0,0,44,-6,67,-13l165,83l26,-32L599,644c0,0,50,-56,50,-165c0,0,0,-120,-72,-182c0,0,-73,-62,-208,-62c0,0,-62,0,-114,11L208,148c0,0,2,-13,29,-24c0,0,27,-12,67,-12H512c0,0,113,0,168,-49c0,0,55,-49,55,-134c0,0,0,-79,-44,-137c0,0,-43,-58,-128,-90c0,0,-84,-31,-204,-31Z" 
id="f3_23"
transform="scale(0.001,-0.001)" />

<path d="M377,45c0,0,99,0,147,73c0,0,47,73,47,237c0,0,0,161,-47,233c0,0,-47,72,-147,72c0,0,-97,0,-141,-69c0,0,-44,-69,-44,-236c0,0,0,-169,45,-240c0,0,44,-70,140,-70Zm0,-59c0,0,-158,0,-238,94c0,0,-81,95,-81,274c0,0,0,178,81,272c0,0,80,94,244,94c0,0,160,0,241,-92c0,0,82,-92,82,-274c0,0,0,-368,-329,-368Z" 
id="f3_2b"
transform="scale(0.001,-0.001)" />

<path d="M64,0V34L168,59V639H47v36l121,29v49c0,0,0,155,61,239c0,0,62,84,173,84c0,0,58,0,107,-15V908H472l-33,92c0,0,-26,16,-62,16c0,0,-47,0,-66,-42c0,0,-19,-42,-19,-157V701H478V639H292V59L443,34V0Z" 
id="f3_22"
transform="scale(0.001,-0.001)" />

<path d="M399,-14c0,0,-341,0,-341,370c0,0,0,175,87,269c0,0,87,95,249,95c0,0,101,0,220,-23V501H573L541,625c0,0,-62,35,-149,35c0,0,-200,0,-200,-304c0,0,0,-158,61,-225c0,0,61,-67,189,-67c0,0,109,0,189,24V43C631,43,595,16,530,1c0,0,-64,-15,-131,-15Z" 
id="f3_1z"
transform="scale(0.001,-0.001)" />

<path d="M191,-20c0,0,-39,0,-65,25c0,0,-25,27,-25,64c0,0,0,38,26,64c0,0,26,26,64,26c0,0,38,0,64,-26c0,0,26,-26,26,-64c0,0,0,-37,-25,-64c0,0,-26,-25,-65,-25Z" 
id="f3_i"
transform="scale(0.001,-0.001)" />

<path d="M382,45c0,0,188,0,188,314c0,0,0,143,-47,213c0,0,-46,69,-141,69c0,0,-87,0,-146,-24V58c0,0,67,-13,146,-13ZM25,-325v35l88,18V649L34,668v33H231l1,-41c0,0,31,27,84,43c0,0,53,17,107,17c0,0,134,0,208,-94c0,0,73,-93,73,-267c0,0,0,-178,-80,-276c0,0,-80,-97,-232,-97c0,0,-84,0,-160,16c0,0,4,-53,4,-84V-272l123,-18v-35Z" 
id="f3_2c"
transform="scale(0.001,-0.001)" />

<path d="M235,0V40L394,60V936H356c0,0,-189,0,-258,-15L78,766H28v234H908V766H857L837,921c0,0,-22,5,-98,9c0,0,-75,4,-165,4H538V60L697,40V0Z" 
id="f3_1k"
transform="scale(0.001,-0.001)" />

<path d="M327,-14L84,649L1,668v33H335V668L219,648L385,174L554,632h63L786,171L944,649L830,668v33h267V668l-78,-16L784,-14H726L553,448L382,-14Z" 
id="f3_2j"
transform="scale(0.001,-0.001)" />

<path d="M476,327V830h-4L114,327ZM476,0V220H30v99l488,686h86V327H740V220H604V0Z" 
id="f3_o"
transform="scale(0.001,-0.001)" />

<path d="M350,-14c0,0,-142,0,-269,31L73,228h49L156,87c0,0,29,-16,82,-28c0,0,54,-12,100,-12c0,0,117,0,173,54c0,0,56,53,56,178c0,0,0,99,-52,150c0,0,-51,51,-159,56l-107,6v61l107,7c0,0,84,5,124,52c0,0,41,48,41,145c0,0,0,101,-44,147c0,0,-44,45,-139,45c0,0,-40,0,-83,-10c0,0,-43,-11,-76,-29L153,786H104V979c0,0,74,19,127,26c0,0,54,6,107,6c0,0,321,0,321,-246c0,0,0,-104,-57,-165c0,0,-57,-62,-162,-77c0,0,136,-16,200,-78c0,0,64,-62,64,-173c0,0,0,-135,-92,-211c0,0,-93,-75,-262,-75Z" 
id="f3_n"
transform="scale(0.001,-0.001)" />

<path d="M62,0L176,649L88,668l6,33H301L278,543c0,0,55,84,124,130c0,0,69,47,138,47c0,0,37,0,59,-6L566,530H534l-28,95c0,0,-60,0,-124,-46c0,0,-63,-45,-116,-120L186,0Z" 
id="f4_2e"
transform="scale(0.001,-0.001)" />

<path d="M55,0L232,1008l-88,18l6,34H365L286,615L274,558c0,0,59,79,128,120c0,0,68,42,134,42c0,0,75,0,113,-41c0,0,38,-41,38,-117c0,0,0,-10,-3,-32c0,0,-3,-21,-81,-478L700,34L695,0H470l76,434c0,0,17,94,17,123c0,0,0,34,-18,55c0,0,-18,21,-56,21c0,0,-56,0,-121,-47c0,0,-65,-47,-107,-114L178,0Z" 
id="f4_24"
transform="scale(0.001,-0.001)" />

<path d="M0,214v74H784V214ZM0,494v72H784V494Z" 
id="f5_x"
transform="scale(0.001,-0.001)" />

<path d="M617,0L251,860V60L385,40V0H44V40L172,60V941L44,960v40H347L672,239l355,761h287V960L1185,941V60L1314,40V0H908V40l134,20V859L643,0Z" 
id="f3_1d"
transform="scale(0.001,-0.001)" />

<path d="M13,0V34L95,46L325,350L122,649L40,668v33H357V668L264,648L399,446L554,649l-96,19v33H710V668L630,652L433,397L663,50L745,34V0H427V34l94,17L359,299L169,50L266,34V0Z" 
id="f3_2k"
transform="scale(0.001,-0.001)" />

<path d="M431,0V33L535,52V499c0,0,0,62,-32,96c0,0,-32,33,-95,33c0,0,-66,0,-163,-22V52L350,33V0H32V33l89,19V649L32,668v33H237l6,-57c0,0,56,32,119,54c0,0,62,22,110,22c0,0,52,0,95,-20c0,0,44,-19,66,-62c0,0,57,32,134,57c0,0,77,25,128,25c0,0,179,0,179,-207V52l90,-19V0H846V33L950,52V499c0,0,0,129,-119,129c0,0,-19,0,-45,-3c0,0,-26,-3,-52,-7c0,0,-25,-4,-49,-8c0,0,-23,-5,-39,-8c0,0,13,-41,13,-89V52L764,33V0Z" 
id="f3_29"
transform="scale(0.001,-0.001)" />

<path d="M536,-22L130,941L17,960v40H421V960L287,941L590,205L892,941L761,960v40h325V960L976,941L574,-22Z" 
id="f3_1m"
transform="scale(0.001,-0.001)" />

<path d="M31,0V33L150,52v956L31,1026v34H274V52L394,33V0Z" 
id="f3_28"
transform="scale(0.001,-0.001)" />

<path d="M410,-14c0,0,-80,0,-162,14c0,0,-81,14,-144,38V270h48L178,134c0,0,28,-35,95,-62c0,0,68,-27,134,-27c0,0,104,0,163,53c0,0,58,54,58,148c0,0,0,54,-23,89c0,0,-22,35,-59,59c0,0,-37,24,-84,41c0,0,-47,17,-97,34c0,0,-49,17,-96,38c0,0,-47,21,-84,53c0,0,-37,32,-60,79c0,0,-23,48,-23,117c0,0,0,119,90,187c0,0,89,68,248,68c0,0,121,0,263,-32V771H654L628,893c0,0,-76,55,-188,55c0,0,-100,0,-156,-40c0,0,-56,-41,-56,-112c0,0,0,-49,22,-81c0,0,23,-32,60,-55c0,0,37,-22,84,-39c0,0,48,-16,97,-34c0,0,50,-17,97,-39c0,0,48,-22,85,-56c0,0,36,-34,59,-83c0,0,23,-49,23,-120c0,0,0,-145,-89,-224c0,0,-89,-79,-256,-79Z" 
id="f3_1j"
transform="scale(0.001,-0.001)" />

<path d="M377,45c0,0,100,0,147,52c0,0,47,52,47,174c0,0,0,119,-46,173c0,0,-47,54,-148,54c0,0,-98,0,-141,-51c0,0,-44,-51,-44,-176c0,0,0,-126,44,-176c0,0,44,-50,141,-50Zm2,518c0,0,84,0,123,46c0,0,39,46,39,148c0,0,0,102,-40,151c0,0,-41,48,-122,48c0,0,-79,0,-118,-47c0,0,-38,-47,-38,-152c0,0,0,-104,37,-149c0,0,38,-45,119,-45ZM377,-14c0,0,-319,0,-319,285c0,0,0,99,48,164c0,0,48,66,129,96c0,0,-65,30,-106,87c0,0,-40,56,-40,139c0,0,0,123,75,191c0,0,76,68,219,68c0,0,139,0,216,-67c0,0,76,-68,76,-192c0,0,0,-82,-40,-139c0,0,-40,-57,-108,-87c0,0,85,-31,132,-98c0,0,47,-67,47,-162c0,0,0,-142,-80,-214c0,0,-80,-71,-249,-71Z" 
id="f3_s"
transform="scale(0.001,-0.001)" />

<path d="M67,0V109L206,235c0,0,133,118,196,190c0,0,63,72,90,149c0,0,27,77,27,177c0,0,0,97,-44,148c0,0,-44,50,-144,50c0,0,-39,0,-81,-10c0,0,-42,-11,-74,-29L150,787H101V980c0,0,135,32,230,32c0,0,164,0,247,-68c0,0,82,-69,82,-193c0,0,0,-84,-32,-158c0,0,-33,-75,-100,-148c0,0,-67,-74,-222,-206c0,0,-67,-57,-141,-125H680V0Z" 
id="f3_m"
transform="scale(0.001,-0.001)" />

<path d="M178,0L615,886H176L150,764H101v236H720V943L274,0Z" 
id="f3_r"
transform="scale(0.001,-0.001)" />

<path d="M55,0V40L184,60V941L55,960v40H455V960L327,941V60L455,40V0Z" 
id="f3_19"
transform="scale(0.001,-0.001)" />

<path d="M577,-14c0,0,-243,0,-379,132C198,118,63,250,63,488c0,0,0,258,130,391c0,0,131,132,387,132c0,0,156,0,335,-38l5,-218H871L848,884c0,0,-52,32,-121,50c0,0,-69,17,-141,17c0,0,-191,0,-279,-112c0,0,-88,-113,-88,-349c0,0,0,-217,92,-332c0,0,92,-115,268,-115c0,0,85,0,160,20c0,0,76,21,120,55l27,149h49L930,32c0,0,-164,-46,-353,-46Z" 
id="f3_13"
transform="scale(0.001,-0.001)" />

<path d="M719,62L422,783L93,62ZM0,0L469,1034L896,0Z" 
id="f5_14"
transform="scale(0.001,-0.001)" />

<path d="M664,394L494,803L318,394ZM0,0V27c0,0,63,12,82,30c0,0,38,35,84,146l356,831h26L900,193c0,0,41,-101,76,-132c0,0,36,-30,97,-34V0H674V27c0,0,62,3,82,21c0,0,21,17,21,51c0,0,0,27,-30,96L687,339H295L226,179c0,0,-25,-59,-25,-83c0,0,0,-28,22,-46c0,0,21,-17,95,-23V0Z" 
id="f5_11"
transform="scale(0.001,-0.001)" />

<path d="M458,53c0,0,137,0,208,61c0,0,71,60,71,150c0,0,0,58,-31,113c0,0,-32,55,-104,86c0,0,-73,32,-186,32c0,0,-87,0,-127,-7V73c0,0,87,-20,169,-20ZM428,547c0,0,111,0,166,23c0,0,55,24,85,72c0,0,29,49,29,106c0,0,0,89,-73,151c0,0,-72,63,-212,63c0,0,-74,0,-134,-16V557c0,0,56,-10,139,-10ZM0,0V27H38c0,0,64,0,91,41c0,0,17,26,17,111V833c0,0,0,94,-21,119c0,0,-29,33,-87,33H0v27H437c0,0,122,0,196,-18c0,0,112,-27,171,-95c0,0,59,-68,59,-157c0,0,0,-76,-46,-136c0,0,-47,-60,-136,-89c0,0,105,-23,157,-72c0,0,72,-69,72,-167c0,0,0,-76,-48,-146C862,132,815,63,731,32C731,32,648,0,477,0Z" 
id="f5_12"
transform="scale(0.001,-0.001)" />

<path d="M0,0V27c0,0,38,4,66,16c0,0,46,20,88,52c0,0,42,33,95,101L487,497L289,790c0,0,-81,118,-138,155c0,0,-57,37,-131,40v27H488V985c0,0,-60,-3,-82,-20c0,0,-22,-17,-22,-39c0,0,0,-27,36,-80L576,614L755,842c0,0,31,40,38,55c0,0,7,15,7,30c0,0,0,17,-9,28c0,0,-11,16,-28,23c0,0,-16,6,-71,7v27h359V985c0,0,-42,-3,-69,-14c0,0,-40,-17,-74,-46c0,0,-34,-29,-95,-108L612,560L829,237c0,0,91,-135,134,-170c0,0,44,-36,111,-40V0H640V27c0,0,43,1,64,9c0,0,17,7,26,21c0,0,10,14,10,29c0,0,0,16,-7,34c0,0,-6,12,-41,65L521,444L309,173c0,0,-34,-43,-40,-58c0,0,-7,-14,-7,-30c0,0,0,-24,20,-40c0,0,20,-15,77,-18V0Z" 
id="f5_13"
transform="scale(0.001,-0.001)" />

<path d="M0,-253v33c0,0,76,25,118,78c0,0,42,53,42,112c0,0,0,16,-6,24c0,0,-5,6,-14,6c0,0,-5,0,-32,-13c0,0,-14,-7,-30,-7c0,0,-35,0,-56,21C22,1,0,23,0,61c0,0,0,36,28,62c0,0,28,27,68,27c0,0,49,0,88,-43c0,0,38,-43,38,-113c0,0,0,-77,-53,-143c0,0,-54,-66,-169,-104Z" 
id="f5_g"
transform="scale(0.001,-0.001)" />

<path d="M0,356v74H784V356Z" 
id="f5_h"
transform="scale(0.001,-0.001)" />

<path d="M210,132c0,0,-41,0,-68,29c0,0,-27,28,-27,72c0,0,0,45,27,73c0,0,27,29,68,29c0,0,41,0,69,-29c0,0,27,-28,27,-73c0,0,0,-44,-27,-72c0,0,-28,-29,-69,-29Zm455,0c0,0,-41,0,-68,29c0,0,-27,28,-27,72c0,0,0,45,27,73c0,0,27,29,68,29c0,0,41,0,69,-29c0,0,27,-28,27,-73c0,0,0,-44,-27,-72c0,0,-28,-29,-69,-29ZM438,539c0,0,-41,0,-68,28c0,0,-28,29,-28,73c0,0,0,44,28,73c0,0,27,29,68,29c0,0,41,0,68,-29c0,0,27,-29,27,-73c0,0,0,-44,-27,-73c0,0,-27,-28,-68,-28Z" 
id="f6_16e"
transform="scale(0.001,-0.001)" />

<path d="M460,-325c0,0,-148,79,-231,172c0,0,-84,93,-123,217c0,0,-39,126,-39,304c0,0,0,178,39,303c0,0,39,125,122,217c0,0,82,93,232,172V997c0,0,-91,-52,-145,-134c0,0,-54,-81,-79,-190c0,0,-25,-109,-25,-305c0,0,0,-194,26,-309c0,0,26,-114,82,-193c0,0,56,-79,141,-128v-63Z" 
id="f3_c"
transform="scale(0.001,-0.001)" />

<path d="M-12,338v55H777V338Z" 
id="f7_4y"
transform="scale(0.001,-0.001)" />

<path d="M49,-325v63c0,0,85,49,140,128c0,0,56,79,83,194c0,0,26,115,26,308c0,0,0,196,-25,305c0,0,-25,109,-79,190c0,0,-54,82,-145,134v63c0,0,149,-80,232,-172c0,0,83,-92,122,-217c0,0,39,-125,39,-303c0,0,0,-177,-39,-303c0,0,-39,-125,-122,-217c0,0,-83,-93,-232,-173Z" 
id="f3_d"
transform="scale(0.001,-0.001)" />

<path d="M392,152V469H76v77H392V863h77V546H787V469H469V152Z" 
id="f3_f"
transform="scale(0.001,-0.001)" />

<path d="M76,316v76H787V316Zm0,306v76H787V622Z" 
id="f3_x"
transform="scale(0.001,-0.001)" />

<path d="M494,-203c0,0,-94,0,-145,57c0,0,-50,58,-50,161V235c0,0,0,87,-39,131c0,0,-39,44,-121,47v33c0,0,160,3,160,176V841c0,0,0,105,49,162c0,0,48,57,146,57H595v-35H548c0,0,-68,0,-96,-41c0,0,-29,-41,-29,-120V618c0,0,0,-71,-39,-122c0,0,-39,-51,-104,-65v-2c0,0,66,-16,105,-66c0,0,38,-50,38,-123V-8c0,0,0,-79,29,-120c0,0,28,-40,96,-40h47v-35Z" 
id="f3_2n"
transform="scale(0.001,-0.001)" />

<path d="M394,460c0,0,126,0,186,57c0,0,60,57,60,187c0,0,0,123,-57,176c0,0,-58,53,-194,53H316V460ZM54,0V40L172,60V941L44,960v40H421c0,0,368,0,368,-295c0,0,0,-153,-93,-233c0,0,-93,-80,-267,-80H316V60L475,40V0Z" 
id="f3_1g"
transform="scale(0.001,-0.001)" />

<path d="M148,-329c0,0,-58,0,-114,13v151H69l24,-71c0,0,23,-17,64,-17c0,0,39,0,72,22c0,0,33,23,60,67c0,0,27,44,68,157L90,649L19,668v33H344V668L233,648L423,158L606,649L497,668v33H758V668L685,652L411,-43c0,0,-48,-124,-84,-177c0,0,-36,-54,-79,-82c0,0,-44,-27,-100,-27Z" 
id="f3_2l"
transform="scale(0.001,-0.001)" />

<path d="M139,-203v35h46c0,0,68,0,97,40c0,0,28,41,28,120V240c0,0,0,73,38,123c0,0,38,50,106,66v2c0,0,-66,14,-105,66c0,0,-39,51,-39,121V864c0,0,0,79,-28,120c0,0,-29,41,-97,41H139v35H240c0,0,97,0,146,-57c0,0,48,-57,48,-162V622c0,0,0,-173,161,-176V413c0,0,-81,-3,-121,-47c0,0,-40,-43,-40,-131V15c0,0,0,-103,-50,-161c0,0,-51,-57,-144,-57Z" 
id="f3_2p"
transform="scale(0.001,-0.001)" />

<path d="M460,506c0,0,135,0,209,64c0,0,73,65,73,183c0,0,0,180,-213,180H419L343,506ZM671,0L487,438H331L264,60L398,40L390,0H-7L0,40L120,60L276,941L151,960l7,40H555c0,0,163,0,249,-62c0,0,86,-62,86,-180c0,0,0,-236,-261,-299L798,60L908,40L900,0Z" 
id="f4_1i"
transform="scale(0.001,-0.001)" />

<path d="M945,-20c0,0,47,75,125,153H57v74H1147l108,91c0,0,23,19,95,72c0,0,-134,103,-203,166H57v72H1070c0,0,-78,78,-125,154h85c0,0,88,-107,217,-217c0,0,130,-110,206,-154V349c0,0,-101,-58,-219,-162c0,0,-118,-103,-204,-207Z" 
id="f5_4g"
transform="scale(0.001,-0.001)" />

<path d="M211,-20c0,0,-39,0,-64,25c0,0,-26,27,-26,64c0,0,0,38,26,64c0,0,26,26,64,26c0,0,37,0,64,-25c0,0,26,-26,26,-65c0,0,0,-37,-26,-64c0,0,-26,-25,-64,-25Zm0,556c0,0,-38,0,-64,26c0,0,-26,26,-26,64c0,0,0,37,26,64c0,0,25,27,64,27c0,0,38,0,64,-27c0,0,26,-27,26,-64c0,0,0,-38,-26,-64c0,0,-27,-26,-64,-26Z" 
id="f3_u"
transform="scale(0.001,-0.001)" />

<path d="M134,0V40L339,60V876L137,804v39l292,166h39V60L672,40V0Z" 
id="f3_l"
transform="scale(0.001,-0.001)" />

<path d="M395,-22L175,941L80,960l7,40H455l-7,-40L322,941L484,211L885,941L771,960l9,40h300l-7,-40L975,941L433,-22Z" 
id="f4_1m"
transform="scale(0.001,-0.001)" />

<path d="M140,-21c0,0,-26,0,-44,17C96,-4,79,13,79,40c0,0,0,19,6,33c0,0,8,20,34,55c0,0,46,60,64,126c0,0,32,114,41,321H190c0,0,-55,0,-81,-18c0,0,-44,-26,-80,-89H0c0,0,42,129,98,178c0,0,43,37,120,37H743V575H562c0,0,-27,-171,-27,-327c0,0,0,-77,27,-110c0,0,27,-33,67,-33c0,0,33,0,56,22c0,0,24,22,31,65h27C743,192,730,74,686,26c0,0,-44,-47,-98,-47c0,0,-58,0,-97,51c0,0,-39,53,-39,198c0,0,0,91,28,347H286c0,0,-23,-390,-56,-494c0,0,-33,-102,-90,-102Z" 
id="f5_2c"
transform="scale(0.001,-0.001)" />

<path d="M58,-234v58c0,0,131,42,131,125c0,0,0,15,-11,27c0,0,-11,12,-38,25C140,1,89,27,89,75c0,0,0,40,25,61c0,0,26,21,65,21c0,0,48,0,77,-34c0,0,30,-34,30,-86c0,0,0,-101,-60,-170c0,0,-59,-69,-168,-101Z" 
id="f3_g"
transform="scale(0.001,-0.001)" />

<path d="M113,-203V1060H454v-35L232,994V-138l222,-30v-35Z" 
id="f3_1r"
transform="scale(0.001,-0.001)" />

<path d="M55,-203v35l222,30V994L55,1025v35H395V-203Z" 
id="f3_1t"
transform="scale(0.001,-0.001)" />

<path d="M355,0V355H0v72H355V784h72V427H782V355H427V0Z" 
id="f5_f"
transform="scale(0.001,-0.001)" />

<path d="M54,0V40L172,60V941L44,960v40H794V760H745L721,922c0,0,-83,11,-241,11H316V516H611l23,120h46V328H634L611,449H316V60L483,40V0Z" 
id="f3_16"
transform="scale(0.001,-0.001)" />

<path d="M377,45c0,0,99,0,145,108c0,0,46,109,46,352c0,0,0,240,-45,345c0,0,-46,106,-146,106c0,0,-97,0,-139,-100c0,0,-43,-99,-43,-351c0,0,0,-254,44,-357c0,0,43,-103,138,-103Zm0,-59c0,0,-158,0,-238,132c0,0,-81,133,-81,386c0,0,0,249,81,380c0,0,80,132,244,132c0,0,159,0,241,-130c0,0,82,-130,82,-382c0,0,0,-518,-329,-518Z" 
id="f3_k"
transform="scale(0.001,-0.001)" />

<path d="M301,78c0,0,41,0,90,27c0,0,49,28,95,77l81,442c0,0,-26,18,-54,27c0,0,-27,10,-67,10c0,0,-70,0,-131,-55c0,0,-61,-55,-99,-152c0,0,-37,-97,-37,-201c0,0,0,-79,33,-127c0,0,33,-48,89,-48ZM245,-14c0,0,-91,0,-145,68c0,0,-54,69,-54,183c0,0,0,128,55,240c0,0,55,112,150,177c0,0,96,66,210,66c0,0,70,0,123,-18c0,0,3,36,51,306l-115,18l6,34H768L589,52L673,33L667,0H454l22,117C476,117,350,-14,245,-14Z" 
id="f4_20"
transform="scale(0.001,-0.001)" />

<path d="M868,0L251,900V60L385,40V0H44V40L172,60V941L44,960v40H347L862,259V941L727,960v40h341V960L940,941V0Z" 
id="f3_1e"
transform="scale(0.001,-0.001)" />

<path d="M420,-22L89,941L1,960v40H383V960L236,941L474,236L744,930h33L1037,236l227,705l-156,19v40h331V960l-87,-19L1025,-22H985L726,666L460,-22Z" 
id="f3_1n"
transform="scale(0.001,-0.001)" />

<path d="M410,45c0,0,90,0,130,58c0,0,40,59,40,193c0,0,0,122,-38,177c0,0,-38,54,-122,54c0,0,-102,0,-217,-37c0,0,0,-227,51,-336c0,0,52,-109,156,-109Zm3,-59c0,0,-169,0,-258,131c0,0,-89,131,-89,377c0,0,0,161,47,278c0,0,47,117,131,178c0,0,85,61,196,61c0,0,109,0,217,-26V813H608L582,915c0,0,-25,13,-67,23c0,0,-41,10,-75,10c0,0,-109,0,-170,-105c0,0,-60,-106,-66,-308c0,0,121,63,244,63c0,0,132,0,201,-74c0,0,69,-74,69,-214c0,0,0,-156,-78,-240c0,0,-79,-84,-227,-84Z" 
id="f3_q"
transform="scale(0.001,-0.001)" />

<path d="M62,-123V268c0,0,0,230,56,452c0,0,47,190,134,334c0,0,87,144,204,242c0,0,85,73,194,119l18,-16c0,0,-211,-145,-335,-339c0,0,-98,-156,-149,-374c0,0,-50,-218,-50,-403V-123Z" 
id="f5_4o"
transform="scale(0.001,-0.001)" />

<path d="M617,-123V283c0,0,0,236,-63,459c0,0,-63,223,-188,392c0,0,-108,146,-282,265l17,16c0,0,180,-76,320,-248c0,0,139,-172,204,-417c0,0,64,-245,64,-482V-123Z" 
id="f5_54"
transform="scale(0.001,-0.001)" />

<path d="M62,-123V1415h72V-123Z" 
id="f5_4p"
transform="scale(0.001,-0.001)" />

<path d="M617,-123V1415h72V-123Z" 
id="f5_55"
transform="scale(0.001,-0.001)" />

<path d="M650,-123c0,0,-180,75,-319,246c0,0,-140,172,-205,418c0,0,-64,245,-64,481v393h72V1007c0,0,0,-236,63,-459c0,0,63,-223,189,-391c0,0,108,-145,282,-265l-18,-15Z" 
id="f5_4q"
transform="scale(0.001,-0.001)" />

<path d="M101,-123l-17,15c0,0,210,144,334,339c0,0,99,156,149,373c0,0,50,218,50,403v408h72V1022c0,0,0,-230,-56,-451c0,0,-48,-191,-134,-335C499,236,412,92,295,-5c0,0,-84,-73,-194,-118Z" 
id="f5_56"
transform="scale(0.001,-0.001)" />


</defs>
</svg>