<?xml version="1.0" encoding="UTF-8" standalone="no"?>
<!DOCTYPE svg PUBLIC "-//W3C//DTD SVG 1.1//EN"
"http://www.w3.org/Graphics/SVG/1.1/DTD/svg11.dtd">
<svg viewBox="0 0 909 1286" version="1.1" xmlns="http://www.w3.org/2000/svg" xmlns:xlink="http://www.w3.org/1999/xlink">
<defs>
<clipPath id="c0_43"><path d="M154.6,147.2V130.5h16.3v16.7Z" /></clipPath>
<clipPath id="c1_43"><path d="M127.4,171.4V154.7h16.4v16.7Z" /></clipPath>
<clipPath id="c2_43"><path d="M55.2,434.7v-162H345.7v162Z" /></clipPath>
<clipPath id="c3_43"><path d="M116.8,582.8V534h77.9v48.8Z" /></clipPath>
<clipPath id="c4_43"><path d="M55.2,714.4V609.6H283.7V714.4Z" /></clipPath>
<clipPath id="c5_43"><path d="M55.2,792.6V740.8H335.8v51.8Z" /></clipPath>
<clipPath id="c6_43"><path d="M95.5,843.5V794.7H242.3v48.8Z" /></clipPath>
<clipPath id="c7_43"><path d="M55.2,871.8V845.5H211.9v26.3Z" /></clipPath>
<clipPath id="c8_43"><path d="M139.5,922.7V874h70.3v48.7Z" /></clipPath>
<clipPath id="c9_43"><path d="M55.2,948V928.4H79.1V948Z" /></clipPath>
<clipPath id="c10_43"><path d="M86.4,998.3V949.5H302.7v48.8Z" /></clipPath>
<clipPath id="c11_43"><path d="M55.2,1023.9v-22.1h67.5v22.1Z" /></clipPath>
<style type="text/css"><![CDATA[
.g0_43{
fill: #D9D9D9;
}
.g1_43{
fill: none;
stroke: #000000;
stroke-width: 0.7638889;
stroke-linecap: butt;
stroke-linejoin: miter;
}
.g2_43{
fill: none;
stroke: #000000;
stroke-width: 0.906723;
stroke-linecap: butt;
stroke-linejoin: round;
}
.g3_43{
fill: none;
stroke: #000000;
stroke-width: 0.89789814;
stroke-linecap: butt;
stroke-linejoin: round;
}
.g4_43{
fill: none;
stroke: #000000;
stroke-width: 0.906753;
stroke-linecap: butt;
stroke-linejoin: round;
}
.g5_43{
fill: none;
stroke: #000000;
stroke-width: 0.9087219;
stroke-linecap: butt;
stroke-linejoin: round;
}
.g6_43{
fill: none;
stroke: #000000;
stroke-width: 0.9066626;
stroke-linecap: butt;
stroke-linejoin: round;
}
.g7_43{
fill: none;
stroke: #000000;
stroke-width: 0.8963062;
stroke-linecap: butt;
stroke-linejoin: round;
}
.g8_43{
fill: none;
stroke: #000000;
stroke-width: 0.90650386;
stroke-linecap: butt;
stroke-linejoin: round;
}
.g9_43{
}
]]></style>
</defs>
<image preserveAspectRatio="none" x="747" y="1196" width="96" height="59" xlink:href="img/1.png" />
<image preserveAspectRatio="none" x="336" y="41" width="259" height="51" xlink:href="img/2.png" />
<image preserveAspectRatio="none" x="342" y="50" width="247" height="27" xlink:href="img/3.png" />
<image preserveAspectRatio="none" x="341" y="45" width="239" height="42" xlink:href="img/4.png" />
<g fill="#FFFFFF" >
<use xlink:href="#f0_j" transform="matrix(11.5,0,0,11.5,355.1,70.1)" />
<use xlink:href="#f0_i" transform="matrix(11.5,0,0,11.5,364.3,70.1)" />
<use xlink:href="#f0_2n" transform="matrix(11.5,0,0,11.5,374.1,70.1)" />
<use xlink:href="#f0_t" transform="matrix(11.5,0,0,11.5,382.6,70.1)" />
<use xlink:href="#f0_oj" transform="matrix(11.5,0,0,11.5,391,70.1)" />
<use xlink:href="#f0_3e" transform="matrix(11.5,0,0,11.5,396.5,70.1)" />
<use xlink:href="#f0_1c" transform="matrix(11.5,0,0,11.5,406.1,70.1)" />
<use xlink:href="#f0_1c" transform="matrix(11.5,0,0,11.5,410.8,70.1)" />
<use xlink:href="#f0_oj" transform="matrix(11.5,0,0,11.5,415.6,70.1)" />
<use xlink:href="#f0_rz" transform="matrix(11.5,0,0,11.5,421.1,70.1)" />
<use xlink:href="#f0_rx" transform="matrix(11.5,0,0,11.5,429.9,70.1)" />
<use xlink:href="#f0_ry" transform="matrix(11.5,0,0,11.5,438.7,70.1)" />
<use xlink:href="#f0_s4" transform="matrix(11.5,0,0,11.5,447.5,70.1)" />
<use xlink:href="#f0_t" transform="matrix(11.5,0,0,11.5,460.4,70.1)" />
<use xlink:href="#f0_3e" transform="matrix(11.5,0,0,11.5,468.8,70.1)" />
<use xlink:href="#f0_5" transform="matrix(11.5,0,0,11.5,478.3,70.1)" />
<use xlink:href="#f0_1x" transform="matrix(11.5,0,0,11.5,489,70.1)" />
<use xlink:href="#f0_1c" transform="matrix(11.5,0,0,11.5,504.4,70.1)" />
<use xlink:href="#f0_1y" transform="matrix(11.5,0,0,11.5,509.1,70.1)" />
<use xlink:href="#f0_5" transform="matrix(11.5,0,0,11.5,520.8,70.1)" />
<use xlink:href="#f0_2t" transform="matrix(11.5,0,0,11.5,531.5,70.1)" />
<use xlink:href="#f0_1c" transform="matrix(11.5,0,0,11.5,540.2,70.1)" />
<use xlink:href="#f0_24" transform="matrix(11.5,0,0,11.5,545,70.1)" />
<use xlink:href="#f0_1y" transform="matrix(11.5,0,0,11.5,556.7,70.1)" />
</g>
<image preserveAspectRatio="none" x="554" y="45" width="36" height="42" xlink:href="img/5.png" />
<g fill="#FFFFFF" >
<use xlink:href="#f1_l" transform="matrix(11,0,0,11,770.3,1227.6)" />
<use xlink:href="#f1_s" transform="matrix(11,0,0,11,779.1,1227.6)" />
<use xlink:href="#f1_j" transform="matrix(11,0,0,11,792.3,1227.6)" />
<use xlink:href="#f1_m" transform="matrix(11,0,0,11,802.9,1227.6)" />
<use xlink:href="#f1_m" transform="matrix(11,0,0,11,811.7,1227.6)" />
</g>
<path fill-rule="evenodd" d="M52.8,1193.5H856.9v-.8H52.8v.8Z" class="g0_43" />
<path d="M37.9,99.4L873,98.5" class="g1_43" />
<g fill="#000000" >
<use xlink:href="#f2_c" transform="matrix(12,0,0,12,55,144.1)" />
<use xlink:href="#f2_25" transform="matrix(12,0,0,12,61.6,144.1)" />
<use xlink:href="#f2_25" transform="matrix(12,0,0,12,66.4,144.1)" />
<use xlink:href="#f2_d" transform="matrix(12,0,0,12,70.8,144.1)" />
<use xlink:href="#f2_1c" transform="matrix(12,0,0,12,81.7,144.1)" />
<use xlink:href="#f2_21" transform="matrix(12,0,0,12,92.7,144.1)" />
<use xlink:href="#f2_2g" transform="matrix(12,0,0,12,100.8,144.1)" />
<use xlink:href="#f2_c" transform="matrix(12,0,0,12,111,144.1)" />
<use xlink:href="#f2_1x" transform="matrix(12,0,0,12,117.3,144.1)" />
<use xlink:href="#f2_g" transform="matrix(12,0,0,12,125.3,144.1)" />
<use xlink:href="#f2_1y" transform="matrix(12,0,0,12,134.8,144.1)" />
<use xlink:href="#f2_d" transform="matrix(12,0,0,12,143.6,144.1)" />
</g>
<g clip-path="url(#c0_43)">
<g fill="#000000" >
<use xlink:href="#f3_40" transform="matrix(12.2,0,0,12.4,155.3,144.3)" />
</g>
</g>
<g fill="#000000" >
<use xlink:href="#f2_1h" transform="matrix(12,0,0,12,174.6,144.1)" />
<use xlink:href="#f2_4a" transform="matrix(12,0,0,12,192.6,144.1)" />
<use xlink:href="#f2_1h" transform="matrix(12,0,0,12,207.2,144.1)" />
<use xlink:href="#f2_1c" transform="matrix(12,0,0,12,55,168.3)" />
<use xlink:href="#f2_21" transform="matrix(12,0,0,12,66,168.3)" />
<use xlink:href="#f2_2g" transform="matrix(12,0,0,12,74.1,168.3)" />
<use xlink:href="#f2_c" transform="matrix(12,0,0,12,84.3,168.3)" />
<use xlink:href="#f2_1z" transform="matrix(12,0,0,12,90.5,168.3)" />
<use xlink:href="#f2_g" transform="matrix(12,0,0,12,98.2,168.3)" />
<use xlink:href="#f2_20" transform="matrix(12,0,0,12,107.7,168.3)" />
<use xlink:href="#f2_d" transform="matrix(12,0,0,12,116.9,168.3)" />
</g>
<g clip-path="url(#c1_43)">
<g fill="#000000" >
<use xlink:href="#f3_40" transform="matrix(12.2,0,0,12.4,128.2,168.5)" />
</g>
</g>
<g fill="#000000" >
<use xlink:href="#f2_1h" transform="matrix(12,0,0,12,147.5,168.3)" />
<use xlink:href="#f2_4a" transform="matrix(12,0,0,12,165.4,168.3)" />
<use xlink:href="#f2_1h" transform="matrix(12,0,0,12,180.4,168.3)" />
<use xlink:href="#f2_2f" transform="matrix(12,0,0,12,55,192.5)" />
<use xlink:href="#f2_2h" transform="matrix(12,0,0,12,62,192.5)" />
<use xlink:href="#f2_1z" transform="matrix(12,0,0,12,71.2,192.5)" />
<use xlink:href="#f2_24" transform="matrix(12,0,0,12,79.6,192.5)" />
<use xlink:href="#f2_2g" transform="matrix(12,0,0,12,93.1,192.5)" />
<use xlink:href="#f2_24" transform="matrix(12,0,0,12,98.6,192.5)" />
<use xlink:href="#f2_1x" transform="matrix(12,0,0,12,107.4,192.5)" />
<use xlink:href="#f2_2g" transform="matrix(12,0,0,12,115.5,192.5)" />
<use xlink:href="#f2_c" transform="matrix(12,0,0,12,55,216.8)" />
<use xlink:href="#f2_1x" transform="matrix(12,0,0,12,61.3,216.8)" />
<use xlink:href="#f2_g" transform="matrix(12,0,0,12,69.3,216.8)" />
<use xlink:href="#f2_1y" transform="matrix(12,0,0,12,78.8,216.8)" />
<use xlink:href="#f2_d" transform="matrix(12,0,0,12,87.6,216.8)" />
<use xlink:href="#f2_e" transform="matrix(12,0,0,12,98.6,216.8)" />
<use xlink:href="#f2_c" transform="matrix(12,0,0,12,112.1,216.8)" />
<use xlink:href="#f2_1z" transform="matrix(12,0,0,12,118.3,216.8)" />
<use xlink:href="#f2_g" transform="matrix(12,0,0,12,126.4,216.8)" />
<use xlink:href="#f2_20" transform="matrix(12,0,0,12,135.6,216.8)" />
<use xlink:href="#f2_d" transform="matrix(12,0,0,12,144.7,216.8)" />
<use xlink:href="#f2_x" transform="matrix(12,0,0,12,155.3,216.8)" />
<use xlink:href="#f2_c" transform="matrix(12,0,0,12,170.4,216.8)" />
<use xlink:href="#f2_l" transform="matrix(12,0,0,12,176.6,216.8)" />
<use xlink:href="#f2_g" transform="matrix(12,0,0,12,185.4,216.8)" />
<use xlink:href="#f2_k" transform="matrix(12,0,0,12,194.9,216.8)" />
<use xlink:href="#f2_d" transform="matrix(12,0,0,12,203.7,216.8)" />
<use xlink:href="#f2_x" transform="matrix(12,0,0,12,214.6,216.8)" />
<use xlink:href="#f2_c" transform="matrix(12,0,0,12,229.3,216.8)" />
<use xlink:href="#f2_1z" transform="matrix(12,0,0,12,235.5,216.8)" />
<use xlink:href="#f2_g" transform="matrix(12,0,0,12,243.6,216.8)" />
<use xlink:href="#f2_20" transform="matrix(12,0,0,12,252.7,216.8)" />
<use xlink:href="#f2_d" transform="matrix(12,0,0,12,261.9,216.8)" />
<use xlink:href="#f2_e" transform="matrix(12,0,0,12,272.9,216.8)" />
<use xlink:href="#f2_c" transform="matrix(12,0,0,12,286.4,216.8)" />
<use xlink:href="#f2_1x" transform="matrix(12,0,0,12,292.6,216.8)" />
<use xlink:href="#f2_g" transform="matrix(12,0,0,12,300.3,216.8)" />
<use xlink:href="#f2_1y" transform="matrix(12,0,0,12,309.8,216.8)" />
<use xlink:href="#f2_d" transform="matrix(12,0,0,12,318.6,216.8)" />
<use xlink:href="#f4_13x" transform="matrix(12,0,0,12,55,241.3)" />
<use xlink:href="#f2_c" transform="matrix(12,0,0,12,75.6,241.3)" />
<use xlink:href="#f2_1x" transform="matrix(12,0,0,12,81.8,241.3)" />
<use xlink:href="#f2_1z" transform="matrix(12,0,0,12,89.9,241.3)" />
<use xlink:href="#f2_g" transform="matrix(12,0,0,12,97.9,241.3)" />
<use xlink:href="#f2_1x" transform="matrix(12,0,0,12,107.4,241.3)" />
<use xlink:href="#f2_20" transform="matrix(12,0,0,12,115.5,241.3)" />
<use xlink:href="#f2_f" transform="matrix(12,0,0,12,129,241.3)" />
<use xlink:href="#f2_1y" transform="matrix(12,0,0,12,144,241.3)" />
<use xlink:href="#f2_d" transform="matrix(12,0,0,12,152.8,241.3)" />
<use xlink:href="#f2_x" transform="matrix(12,0,0,12,163.8,241.3)" />
<use xlink:href="#f2_c" transform="matrix(12,0,0,12,178.8,241.3)" />
<use xlink:href="#f2_l" transform="matrix(12,0,0,12,185,241.3)" />
<use xlink:href="#f2_g" transform="matrix(12,0,0,12,193.8,241.3)" />
<use xlink:href="#f2_k" transform="matrix(12,0,0,12,203.3,241.3)" />
<use xlink:href="#f2_d" transform="matrix(12,0,0,12,212.1,241.3)" />
<use xlink:href="#f2_x" transform="matrix(12,0,0,12,223.1,241.3)" />
<use xlink:href="#f2_c" transform="matrix(12,0,0,12,237.7,241.3)" />
<use xlink:href="#f2_1z" transform="matrix(12,0,0,12,244,241.3)" />
<use xlink:href="#f2_1x" transform="matrix(12,0,0,12,252,241.3)" />
<use xlink:href="#f2_g" transform="matrix(12,0,0,12,260.1,241.3)" />
<use xlink:href="#f2_1z" transform="matrix(12,0,0,12,269.6,241.3)" />
<use xlink:href="#f2_1y" transform="matrix(12,0,0,12,277.7,241.3)" />
<use xlink:href="#f2_f" transform="matrix(12,0,0,12,291.2,241.3)" />
<use xlink:href="#f2_20" transform="matrix(12,0,0,12,306.2,241.3)" />
<use xlink:href="#f2_d" transform="matrix(12,0,0,12,315.4,241.3)" />
<use xlink:href="#f4_13x" transform="matrix(12,0,0,12,55,266.3)" />
<use xlink:href="#f2_1x" transform="matrix(12,0,0,12,75.6,266.3)" />
<use xlink:href="#f2_1z" transform="matrix(12,0,0,12,83.6,266.3)" />
<use xlink:href="#f2_x" transform="matrix(12,0,0,12,96.5,266.3)" />
<use xlink:href="#f2_l" transform="matrix(12,0,0,12,111.5,266.3)" />
<use xlink:href="#f2_g" transform="matrix(12,0,0,12,120.7,266.3)" />
<use xlink:href="#f2_1x" transform="matrix(12,0,0,12,129.8,266.3)" />
<use xlink:href="#f2_20" transform="matrix(12,0,0,12,137.9,266.3)" />
<use xlink:href="#f2_f" transform="matrix(12,0,0,12,151.8,266.3)" />
<use xlink:href="#f2_1y" transform="matrix(12,0,0,12,166.8,266.3)" />
<use xlink:href="#f2_x" transform="matrix(12,0,0,12,180.3,266.3)" />
<use xlink:href="#f2_k" transform="matrix(12,0,0,12,195.4,266.3)" />
<use xlink:href="#f2_g" transform="matrix(12,0,0,12,204.2,266.3)" />
<use xlink:href="#f2_1z" transform="matrix(12,0,0,12,213.7,266.3)" />
<use xlink:href="#f2_1x" transform="matrix(12,0,0,12,221.7,266.3)" />
<use xlink:href="#f2_x" transform="matrix(12,0,0,12,234.5,266.3)" />
<use xlink:href="#f2_l" transform="matrix(12,0,0,12,249.2,266.3)" />
<use xlink:href="#f2_g" transform="matrix(12,0,0,12,258.4,266.3)" />
<use xlink:href="#f2_1z" transform="matrix(12,0,0,12,267.5,266.3)" />
<use xlink:href="#f2_1y" transform="matrix(12,0,0,12,275.6,266.3)" />
<use xlink:href="#f2_f" transform="matrix(12,0,0,12,289.1,266.3)" />
<use xlink:href="#f2_20" transform="matrix(12,0,0,12,304.1,266.3)" />
<use xlink:href="#f2_x" transform="matrix(12,0,0,12,318,266.3)" />
<use xlink:href="#f2_k" transform="matrix(12,0,0,12,333.1,266.3)" />
</g>
<path d="M107.2,299.4h11.5m53.4,0h11.4m20.3,0h11.4M139,353.7h11.5m16.6,0h21.2M228.2,408h11.4m11.3,0h21.2" class="g2_43" />
<g clip-path="url(#c2_43)">
<g fill="#000000" >
<use xlink:href="#f2_l" transform="matrix(7,0,0,7,193.8,404.4)" />
<use xlink:href="#f2_l" transform="matrix(12.1,0,0,12.1,108.4,292.3)" />
<use xlink:href="#f2_l" transform="matrix(12.1,0,0,12.1,204.9,292.3)" />
<use xlink:href="#f2_g" transform="matrix(12.1,0,0,12.1,120.9,304)" />
<use xlink:href="#f2_g" transform="matrix(12.1,0,0,12.1,185.7,304)" />
<use xlink:href="#f2_k" transform="matrix(12.1,0,0,12.1,282.9,304)" />
<use xlink:href="#f2_c" transform="matrix(12.1,0,0,12.1,292.1,304)" />
<use xlink:href="#f2_k" transform="matrix(12.1,0,0,12.1,327.1,304)" />
<use xlink:href="#f2_d" transform="matrix(12.1,0,0,12.1,336.3,304)" />
<use xlink:href="#f2_l" transform="matrix(12.1,0,0,12.1,140.2,346.6)" />
<use xlink:href="#f2_c" transform="matrix(12.1,0,0,12.1,72.4,358.3)" />
<use xlink:href="#f2_g" transform="matrix(12.1,0,0,12.1,87,358.3)" />
<use xlink:href="#f2_d" transform="matrix(12.1,0,0,12.1,104.7,358.3)" />
<use xlink:href="#f2_g" transform="matrix(12.1,0,0,12.1,152.6,358.3)" />
<use xlink:href="#f2_c" transform="matrix(12.1,0,0,12.1,199.7,358.3)" />
<use xlink:href="#f2_k" transform="matrix(12.1,0,0,12.1,234.7,358.3)" />
<use xlink:href="#f2_d" transform="matrix(12.1,0,0,12.1,243.9,358.3)" />
<use xlink:href="#f2_l" transform="matrix(12.1,0,0,12.1,229.3,400.8)" />
<use xlink:href="#f2_22" transform="matrix(12.1,0,0,12.1,72.4,412.5)" />
<use xlink:href="#f2_2b" transform="matrix(12.1,0,0,12.1,78.5,412.5)" />
<use xlink:href="#f2_2e" transform="matrix(12.1,0,0,12.1,87.6,412.5)" />
<use xlink:href="#f2_k" transform="matrix(12.1,0,0,12.1,132.5,412.5)" />
<use xlink:href="#f2_g" transform="matrix(12.1,0,0,12.1,141.4,412.5)" />
<use xlink:href="#f2_c" transform="matrix(12.1,0,0,12.1,149.9,412.5)" />
<use xlink:href="#f2_g" transform="matrix(12.1,0,0,12.1,165.9,412.5)" />
<use xlink:href="#f2_d" transform="matrix(12.1,0,0,12.1,181.3,412.5)" />
<use xlink:href="#f2_g" transform="matrix(12.1,0,0,12.1,241.7,412.5)" />
<use xlink:href="#f5_1y" transform="matrix(12.1,0,0,12.1,173.1,292.3)" />
<use xlink:href="#f5_1z" transform="matrix(12.1,0,0,12.1,79.6,304)" />
<use xlink:href="#f5_20" transform="matrix(12.1,0,0,12.1,129.6,304)" />
<use xlink:href="#f5_1y" transform="matrix(12.1,0,0,12.1,226.3,304)" />
<use xlink:href="#f5_20" transform="matrix(12.1,0,0,12.1,253.2,304)" />
<use xlink:href="#f5_1x" transform="matrix(12.1,0,0,12.1,298.6,304)" />
<use xlink:href="#f5_1x" transform="matrix(12.1,0,0,12.1,108.4,318.5)" />
<use xlink:href="#f5_1x" transform="matrix(12.1,0,0,12.1,173.2,318.5)" />
<use xlink:href="#f5_1x" transform="matrix(12.1,0,0,12.1,204.9,318.5)" />
<use xlink:href="#f5_1y" transform="matrix(12.1,0,0,12.1,178.3,346.6)" />
<use xlink:href="#f5_1z" transform="matrix(12.1,0,0,12.1,78.8,358.3)" />
<use xlink:href="#f5_20" transform="matrix(12.1,0,0,12.1,93.5,358.3)" />
<use xlink:href="#f5_1x" transform="matrix(12.1,0,0,12.1,206.3,358.3)" />
<use xlink:href="#f5_1x" transform="matrix(12.1,0,0,12.1,140.2,372.7)" />
<use xlink:href="#f5_1x" transform="matrix(12.1,0,0,12.1,173.1,372.7)" />
<use xlink:href="#f5_1y" transform="matrix(12.1,0,0,12.1,262.1,400.8)" />
<use xlink:href="#f5_1x" transform="matrix(12.1,0,0,12.1,104.1,412.5)" />
<use xlink:href="#f5_1x" transform="matrix(12.1,0,0,12.1,156.5,412.5)" />
<use xlink:href="#f5_1y" transform="matrix(12.1,0,0,12.1,171.9,412.5)" />
<use xlink:href="#f5_1x" transform="matrix(12.1,0,0,12.1,229.3,427)" />
<use xlink:href="#f5_1x" transform="matrix(12.1,0,0,12.1,256.9,427)" />
<use xlink:href="#f3_h" transform="matrix(7,0,0,7,188.1,404.4)" />
<use xlink:href="#f3_4o" transform="matrix(12.1,0,0,12.1,194,293.7)" />
<use xlink:href="#f3_54" transform="matrix(12.1,0,0,12.1,217.9,293.7)" />
<use xlink:href="#f3_4g" transform="matrix(12.1,0,0,12.1,57.4,304)" />
<use xlink:href="#f3_x" transform="matrix(12.1,0,0,12.1,92.4,304)" />
<use xlink:href="#f3_x" transform="matrix(12.1,0,0,12.1,145,304)" />
<use xlink:href="#f3_h" transform="matrix(12.1,0,0,12.1,159.5,304)" />
<use xlink:href="#f3_f" transform="matrix(12.1,0,0,12.1,239.2,304)" />
<use xlink:href="#f3_x" transform="matrix(12.1,0,0,12.1,268.6,304)" />
<use xlink:href="#f3_3f" transform="matrix(12.1,0,0,12.1,312.5,304)" />
<use xlink:href="#f3_4p" transform="matrix(12.1,0,0,12.1,194,309.1)" />
<use xlink:href="#f3_55" transform="matrix(12.1,0,0,12.1,217.9,309.1)" />
<use xlink:href="#f3_4q" transform="matrix(12.1,0,0,12.1,194,320.6)" />
<use xlink:href="#f3_56" transform="matrix(12.1,0,0,12.1,217.9,320.6)" />
<use xlink:href="#f3_h" transform="matrix(12.1,0,0,12.1,168.3,346.6)" />
<use xlink:href="#f3_4o" transform="matrix(12.1,0,0,12.1,129.2,348)" />
<use xlink:href="#f3_54" transform="matrix(12.1,0,0,12.1,191,348)" />
<use xlink:href="#f3_1s" transform="matrix(12.1,0,0,12.1,55.1,358.3)" />
<use xlink:href="#f3_x" transform="matrix(12.1,0,0,12.1,115.2,358.3)" />
<use xlink:href="#f3_3f" transform="matrix(12.1,0,0,12.1,220.2,358.3)" />
<use xlink:href="#f3_4p" transform="matrix(12.1,0,0,12.1,129.2,363.4)" />
<use xlink:href="#f3_55" transform="matrix(12.1,0,0,12.1,191,363.4)" />
<use xlink:href="#f3_4q" transform="matrix(12.1,0,0,12.1,129.2,374.9)" />
<use xlink:href="#f3_56" transform="matrix(12.1,0,0,12.1,191,374.9)" />
<use xlink:href="#f3_h" transform="matrix(12.1,0,0,12.1,252.1,400.8)" />
<use xlink:href="#f3_4o" transform="matrix(12.1,0,0,12.1,218.3,402.3)" />
<use xlink:href="#f3_54" transform="matrix(12.1,0,0,12.1,274.8,402.3)" />
<use xlink:href="#f3_1s" transform="matrix(12.1,0,0,12.1,55.1,412.5)" />
<use xlink:href="#f3_3f" transform="matrix(12.1,0,0,12.1,118,412.5)" />
<use xlink:href="#f3_x" transform="matrix(12.1,0,0,12.1,204.4,412.5)" />
<use xlink:href="#f3_4p" transform="matrix(12.1,0,0,12.1,218.3,417.6)" />
<use xlink:href="#f3_55" transform="matrix(12.1,0,0,12.1,274.8,417.6)" />
<use xlink:href="#f3_4q" transform="matrix(12.1,0,0,12.1,218.3,429.1)" />
<use xlink:href="#f3_56" transform="matrix(12.1,0,0,12.1,274.8,429.1)" />
</g>
</g>
<g fill="#000000" >
<use xlink:href="#f6_m" transform="matrix(12,0,0,12,55,479.4)" />
<use xlink:href="#f6_q" transform="matrix(12,0,0,12,64.2,479.4)" />
<use xlink:href="#f6_i" transform="matrix(12,0,0,12,73.4,479.4)" />
<use xlink:href="#f2_1j" transform="matrix(12,0,0,12,82.9,479.4)" />
<use xlink:href="#f2_24" transform="matrix(12,0,0,12,93.2,479.4)" />
<use xlink:href="#f2_2b" transform="matrix(12,0,0,12,102,479.4)" />
<use xlink:href="#f2_2j" transform="matrix(12,0,0,12,111.5,479.4)" />
<use xlink:href="#f2_2g" transform="matrix(12,0,0,12,129.4,479.4)" />
<use xlink:href="#f2_24" transform="matrix(12,0,0,12,134.9,479.4)" />
<use xlink:href="#f2_1x" transform="matrix(12,0,0,12,143.7,479.4)" />
<use xlink:href="#f2_2g" transform="matrix(12,0,0,12,151.4,479.4)" />
<use xlink:href="#f2_2g" transform="matrix(12,0,0,12,161.6,479.4)" />
<use xlink:href="#f2_24" transform="matrix(12,0,0,12,167.1,479.4)" />
<use xlink:href="#f2_21" transform="matrix(12,0,0,12,175.9,479.4)" />
<use xlink:href="#f2_2f" transform="matrix(12,0,0,12,189.1,479.4)" />
<use xlink:href="#f2_2h" transform="matrix(12,0,0,12,196.1,479.4)" />
<use xlink:href="#f2_2e" transform="matrix(12,0,0,12,205.2,479.4)" />
<use xlink:href="#f2_22" transform="matrix(12,0,0,12,211.4,479.4)" />
<use xlink:href="#f2_1x" transform="matrix(12,0,0,12,216.9,479.4)" />
<use xlink:href="#f2_1z" transform="matrix(12,0,0,12,225,479.4)" />
<use xlink:href="#f2_21" transform="matrix(12,0,0,12,233.1,479.4)" />
<use xlink:href="#f2_1x" transform="matrix(12,0,0,12,246.3,479.4)" />
<use xlink:href="#f2_2e" transform="matrix(12,0,0,12,254.3,479.4)" />
<use xlink:href="#f2_21" transform="matrix(12,0,0,12,260.5,479.4)" />
<use xlink:href="#f2_1x" transform="matrix(12,0,0,12,268.6,479.4)" />
<use xlink:href="#f2_2b" transform="matrix(12,0,0,12,281.4,479.4)" />
<use xlink:href="#f2_22" transform="matrix(12,0,0,12,290.9,479.4)" />
<use xlink:href="#f2_1x" transform="matrix(12,0,0,12,301.5,479.4)" />
<use xlink:href="#f2_1z" transform="matrix(12,0,0,12,314.7,479.4)" />
<use xlink:href="#f2_28" transform="matrix(12,0,0,12,322.8,479.4)" />
<use xlink:href="#f2_2b" transform="matrix(12,0,0,12,327.2,479.4)" />
<use xlink:href="#f2_2f" transform="matrix(12,0,0,12,336.7,479.4)" />
<use xlink:href="#f2_21" transform="matrix(12,0,0,12,343.7,479.4)" />
<use xlink:href="#f2_20" transform="matrix(12,0,0,12,351.7,479.4)" />
<use xlink:href="#f2_1z" transform="matrix(12,0,0,12,366,479.4)" />
<use xlink:href="#f2_2h" transform="matrix(12,0,0,12,374.1,479.4)" />
<use xlink:href="#f2_1y" transform="matrix(12,0,0,12,383.3,479.4)" />
<use xlink:href="#f2_2b" transform="matrix(12,0,0,12,392.1,479.4)" />
<use xlink:href="#f2_25" transform="matrix(12,0,0,12,401.9,479.4)" />
<use xlink:href="#f2_20" transform="matrix(12,0,0,12,406.3,479.4)" />
<use xlink:href="#f2_2j" transform="matrix(12,0,0,12,420.6,479.4)" />
<use xlink:href="#f2_25" transform="matrix(12,0,0,12,434.2,479.4)" />
<use xlink:href="#f2_2g" transform="matrix(12,0,0,12,438.6,479.4)" />
<use xlink:href="#f2_24" transform="matrix(12,0,0,12,444.1,479.4)" />
<use xlink:href="#f2_2f" transform="matrix(12,0,0,12,458,479.4)" />
<use xlink:href="#f2_2d" transform="matrix(12,0,0,12,464.9,479.4)" />
<use xlink:href="#f2_2h" transform="matrix(12,0,0,12,474.1,479.4)" />
<use xlink:href="#f2_1x" transform="matrix(12,0,0,12,483.3,479.4)" />
<use xlink:href="#f2_2e" transform="matrix(12,0,0,12,491.3,479.4)" />
<use xlink:href="#f2_21" transform="matrix(12,0,0,12,497.5,479.4)" />
<use xlink:href="#f2_1y" transform="matrix(12,0,0,12,510.7,479.4)" />
<use xlink:href="#f2_1x" transform="matrix(12,0,0,12,519.5,479.4)" />
<use xlink:href="#f2_2f" transform="matrix(12,0,0,12,527.6,479.4)" />
<use xlink:href="#f2_21" transform="matrix(12,0,0,12,534.6,479.4)" />
<use xlink:href="#f2_1x" transform="matrix(12,0,0,12,547.7,479.4)" />
<use xlink:href="#f2_2a" transform="matrix(12,0,0,12,556.2,479.4)" />
<use xlink:href="#f2_20" transform="matrix(12,0,0,12,565,479.4)" />
<use xlink:href="#f2_23" transform="matrix(12,0,0,12,579.2,479.4)" />
<use xlink:href="#f2_25" transform="matrix(12,0,0,12,588.8,479.4)" />
<use xlink:href="#f2_2i" transform="matrix(12,0,0,12,593.5,479.4)" />
<use xlink:href="#f2_21" transform="matrix(12,0,0,12,602.3,479.4)" />
<use xlink:href="#f2_2a" transform="matrix(12,0,0,12,610.7,479.4)" />
<use xlink:href="#f2_2i" transform="matrix(12,0,0,12,624.7,479.4)" />
<use xlink:href="#f2_2b" transform="matrix(12,0,0,12,633.5,479.4)" />
<use xlink:href="#f2_28" transform="matrix(12,0,0,12,643.3,479.4)" />
<use xlink:href="#f2_2h" transform="matrix(12,0,0,12,647.7,479.4)" />
<use xlink:href="#f2_29" transform="matrix(12,0,0,12,657.3,479.4)" />
<use xlink:href="#f2_21" transform="matrix(12,0,0,12,671.2,479.4)" />
<use xlink:href="#f2_25" transform="matrix(12,0,0,12,684.7,479.4)" />
<use xlink:href="#f2_2f" transform="matrix(12,0,0,12,689.1,479.4)" />
<use xlink:href="#f2_29" transform="matrix(12,0,0,12,701.6,479.4)" />
<use xlink:href="#f2_25" transform="matrix(12,0,0,12,715.5,479.4)" />
<use xlink:href="#f2_2a" transform="matrix(12,0,0,12,720.3,479.4)" />
<use xlink:href="#f2_25" transform="matrix(12,0,0,12,729.8,479.4)" />
<use xlink:href="#f2_29" transform="matrix(12,0,0,12,734.9,479.4)" />
<use xlink:href="#f2_2h" transform="matrix(12,0,0,12,748.9,479.4)" />
<use xlink:href="#f2_29" transform="matrix(12,0,0,12,758.4,479.4)" />
<use xlink:href="#f2_g" transform="matrix(12,0,0,12,771.9,479.4)" />
<use xlink:href="#f2_2j" transform="matrix(12,0,0,12,781.8,479.4)" />
<use xlink:href="#f2_24" transform="matrix(12,0,0,12,795,479.4)" />
<use xlink:href="#f2_21" transform="matrix(12,0,0,12,803.8,479.4)" />
<use xlink:href="#f2_2a" transform="matrix(12,0,0,12,812.2,479.4)" />
<use xlink:href="#f2_25" transform="matrix(12,0,0,12,826.5,479.4)" />
<use xlink:href="#f2_2g" transform="matrix(12,0,0,12,830.9,479.4)" />
<use xlink:href="#f2_25" transform="matrix(12,0,0,12,841.5,479.4)" />
<use xlink:href="#f2_2f" transform="matrix(12,0,0,12,846.3,479.4)" />
<use xlink:href="#f2_1x" transform="matrix(12,0,0,12,55,504)" />
<use xlink:href="#f2_1z" transform="matrix(12,0,0,12,67.9,504)" />
<use xlink:href="#f2_2h" transform="matrix(12,0,0,12,75.9,504)" />
<use xlink:href="#f2_1y" transform="matrix(12,0,0,12,85.1,504)" />
<use xlink:href="#f2_21" transform="matrix(12,0,0,12,93.9,504)" />
<use xlink:href="#f2_i" transform="matrix(12,0,0,12,102,504)" />
<use xlink:href="#f6_1j" transform="matrix(12,0,0,12,55,528.2)" />
<use xlink:href="#f6_2b" transform="matrix(12,0,0,12,65.3,528.2)" />
<use xlink:href="#f6_28" transform="matrix(12,0,0,12,74.5,528.2)" />
<use xlink:href="#f6_2h" transform="matrix(12,0,0,12,79.2,528.2)" />
<use xlink:href="#f6_2g" transform="matrix(12,0,0,12,89.5,528.2)" />
<use xlink:href="#f6_25" transform="matrix(12,0,0,12,95.7,528.2)" />
<use xlink:href="#f6_2b" transform="matrix(12,0,0,12,100.8,528.2)" />
<use xlink:href="#f6_2a" transform="matrix(12,0,0,12,109.9,528.2)" />
<use xlink:href="#f6_u" transform="matrix(12,0,0,12,120.2,528.2)" />
<use xlink:href="#f2_19" transform="matrix(12,0,0,12,131.3,528.2)" />
<use xlink:href="#f2_22" transform="matrix(12,0,0,12,137.5,528.2)" />
<use xlink:href="#f2_21" transform="matrix(12,0,0,12,147.8,528.2)" />
<use xlink:href="#f2_1x" transform="matrix(12,0,0,12,155.8,528.2)" />
<use xlink:href="#f2_1z" transform="matrix(12,0,0,12,163.9,528.2)" />
<use xlink:href="#f2_24" transform="matrix(12,0,0,12,172,528.2)" />
<use xlink:href="#f2_2f" transform="matrix(12,0,0,12,185.5,528.2)" />
<use xlink:href="#f2_25" transform="matrix(12,0,0,12,192.8,528.2)" />
<use xlink:href="#f2_20" transform="matrix(12,0,0,12,197.6,528.2)" />
<use xlink:href="#f2_21" transform="matrix(12,0,0,12,206.8,528.2)" />
<use xlink:href="#f2_2b" transform="matrix(12,0,0,12,219.6,528.2)" />
<use xlink:href="#f2_22" transform="matrix(12,0,0,12,229.5,528.2)" />
<use xlink:href="#f2_2f" transform="matrix(12,0,0,12,239.7,528.2)" />
<use xlink:href="#f2_2d" transform="matrix(12,0,0,12,246.7,528.2)" />
<use xlink:href="#f2_2h" transform="matrix(12,0,0,12,255.8,528.2)" />
<use xlink:href="#f2_1x" transform="matrix(12,0,0,12,265,528.2)" />
<use xlink:href="#f2_2e" transform="matrix(12,0,0,12,273.1,528.2)" />
<use xlink:href="#f2_21" transform="matrix(12,0,0,12,279.3,528.2)" />
<use xlink:href="#f2_1y" transform="matrix(12,0,0,12,292.1,528.2)" />
<use xlink:href="#f2_1x" transform="matrix(12,0,0,12,300.9,528.2)" />
<use xlink:href="#f2_2f" transform="matrix(12,0,0,12,309.3,528.2)" />
<use xlink:href="#f2_21" transform="matrix(12,0,0,12,316.3,528.2)" />
<use xlink:href="#f2_25" transform="matrix(12,0,0,12,329.5,528.2)" />
<use xlink:href="#f2_2f" transform="matrix(12,0,0,12,334.2,528.2)" />
<use xlink:href="#f2_2k" transform="matrix(12,0,0,12,346,528.2)" />
<use xlink:href="#f2_1x" transform="matrix(12,0,0,12,359.5,528.2)" />
<use xlink:href="#f2_2a" transform="matrix(12,0,0,12,367.9,528.2)" />
<use xlink:href="#f2_20" transform="matrix(12,0,0,12,376.7,528.2)" />
<use xlink:href="#f2_24" transform="matrix(12,0,0,12,390.6,528.2)" />
<use xlink:href="#f2_21" transform="matrix(12,0,0,12,399.4,528.2)" />
<use xlink:href="#f2_25" transform="matrix(12,0,0,12,407.8,528.2)" />
<use xlink:href="#f2_23" transform="matrix(12,0,0,12,412.6,528.2)" />
<use xlink:href="#f2_24" transform="matrix(12,0,0,12,422.1,528.2)" />
<use xlink:href="#f2_2g" transform="matrix(12,0,0,12,430.9,528.2)" />
<use xlink:href="#f2_25" transform="matrix(12,0,0,12,441.2,528.2)" />
<use xlink:href="#f2_2f" transform="matrix(12,0,0,12,445.9,528.2)" />
<use xlink:href="#f2_24" transform="matrix(12,0,0,12,457.6,528.2)" />
<use xlink:href="#f2_2g" transform="matrix(12,0,0,12,471.2,528.2)" />
<use xlink:href="#f2_24" transform="matrix(12,0,0,12,476.7,528.2)" />
<use xlink:href="#f2_21" transform="matrix(12,0,0,12,485.5,528.2)" />
<use xlink:href="#f2_2a" transform="matrix(12,0,0,12,493.9,528.2)" />
<use xlink:href="#f2_2i" transform="matrix(12,0,0,12,507.4,528.2)" />
<use xlink:href="#f2_2b" transform="matrix(12,0,0,12,516.2,528.2)" />
<use xlink:href="#f2_28" transform="matrix(12,0,0,12,526.1,528.2)" />
<use xlink:href="#f2_2h" transform="matrix(12,0,0,12,530.5,528.2)" />
<use xlink:href="#f2_29" transform="matrix(12,0,0,12,540,528.2)" />
<use xlink:href="#f2_21" transform="matrix(12,0,0,12,554,528.2)" />
<use xlink:href="#f2_1m" transform="matrix(12,0,0,12,55,564.5)" />
<use xlink:href="#f2_x" transform="matrix(12,0,0,12,73,564.5)" />
<use xlink:href="#f2_2k" transform="matrix(12,0,0,12,88,564.5)" />
<use xlink:href="#f2_m" transform="matrix(7.9,0,0,7.9,96.8,557.5)" />
<use xlink:href="#f2_24" transform="matrix(12,0,0,12,103.1,564.5)" />
</g>
<path d="M170.4,559.9h18.9" class="g3_43" />
<g clip-path="url(#c3_43)">
<g fill="#000000" >
<use xlink:href="#f2_m" transform="matrix(7.2,0,0,7.1,181.5,571)" />
<use xlink:href="#f5_1m" transform="matrix(12.5,0,0,12.4,172.1,552.7)" />
<use xlink:href="#f5_24" transform="matrix(12.5,0,0,12.4,141.7,564.6)" />
<use xlink:href="#f5_2k" transform="matrix(12.5,0,0,12.4,172.4,579.3)" />
<use xlink:href="#f3_4g" transform="matrix(12.5,0,0,12.4,119,564.6)" />
<use xlink:href="#f3_x" transform="matrix(12.5,0,0,12.4,155.4,564.6)" />
</g>
</g>
<g fill="#000000" >
<use xlink:href="#f2_1j" transform="matrix(12,0,0,12,55,603.3)" />
<use xlink:href="#f2_25" transform="matrix(12,0,0,12,70,603.3)" />
<use xlink:href="#f2_2f" transform="matrix(12,0,0,12,74.8,603.3)" />
<use xlink:href="#f2_2f" transform="matrix(12,0,0,12,86.5,603.3)" />
<use xlink:href="#f2_2h" transform="matrix(12,0,0,12,93.5,603.3)" />
<use xlink:href="#f2_2e" transform="matrix(12,0,0,12,102.6,603.3)" />
<use xlink:href="#f2_22" transform="matrix(12,0,0,12,109.2,603.3)" />
<use xlink:href="#f2_1x" transform="matrix(12,0,0,12,114.7,603.3)" />
<use xlink:href="#f2_1z" transform="matrix(12,0,0,12,122.8,603.3)" />
<use xlink:href="#f2_21" transform="matrix(12,0,0,12,130.9,603.3)" />
<use xlink:href="#f2_1x" transform="matrix(12,0,0,12,143.7,603.3)" />
<use xlink:href="#f2_2e" transform="matrix(12,0,0,12,151.7,603.3)" />
<use xlink:href="#f2_21" transform="matrix(12,0,0,12,158,603.3)" />
<use xlink:href="#f2_1x" transform="matrix(12,0,0,12,166,603.3)" />
<use xlink:href="#f2_2g" transform="matrix(12,0,0,12,178.8,603.3)" />
<use xlink:href="#f2_24" transform="matrix(12,0,0,12,184.3,603.3)" />
<use xlink:href="#f2_21" transform="matrix(12,0,0,12,193.1,603.3)" />
<use xlink:href="#f2_2a" transform="matrix(12,0,0,12,201.5,603.3)" />
</g>
<path d="M198.6,637.3h18.8M110.3,690h23.5" class="g4_43" />
<g clip-path="url(#c4_43)">
<g fill="#000000" >
<use xlink:href="#f2_m" transform="matrix(7,0,0,7,152.2,633.6)" />
<use xlink:href="#f2_m" transform="matrix(7,0,0,7,275.6,633.6)" />
<use xlink:href="#f2_m" transform="matrix(7,0,0,7,209.6,648.1)" />
<use xlink:href="#f2_m" transform="matrix(7,0,0,7,171.6,686.4)" />
<use xlink:href="#f2_o" transform="matrix(12.1,0,0,12.1,87.9,641.8)" />
<use xlink:href="#f2_m" transform="matrix(12.1,0,0,12.1,132.8,641.8)" />
<use xlink:href="#f2_o" transform="matrix(12.1,0,0,12.1,178.1,641.8)" />
<use xlink:href="#f2_m" transform="matrix(12.1,0,0,12.1,256.1,641.8)" />
<use xlink:href="#f2_o" transform="matrix(12.1,0,0,12.1,111.4,682.9)" />
<use xlink:href="#f2_m" transform="matrix(12.1,0,0,12.1,152.2,694.6)" />
<use xlink:href="#f5_1m" transform="matrix(12.1,0,0,12.1,200.3,630.1)" />
<use xlink:href="#f5_1j" transform="matrix(12.1,0,0,12.1,58.2,641.8)" />
<use xlink:href="#f5_24" transform="matrix(12.1,0,0,12.1,97.4,641.8)" />
<use xlink:href="#f5_2k" transform="matrix(12.1,0,0,12.1,106.6,641.8)" />
<use xlink:href="#f5_2k" transform="matrix(12.1,0,0,12.1,143.1,641.8)" />
<use xlink:href="#f5_2k" transform="matrix(12.1,0,0,12.1,229.9,641.8)" />
<use xlink:href="#f5_2k" transform="matrix(12.1,0,0,12.1,266.4,641.8)" />
<use xlink:href="#f5_2k" transform="matrix(12.1,0,0,12.1,200.6,656.3)" />
<use xlink:href="#f5_1m" transform="matrix(12.1,0,0,12.1,119.2,682.9)" />
<use xlink:href="#f5_1j" transform="matrix(12.1,0,0,12.1,80.3,694.6)" />
<use xlink:href="#f5_2k" transform="matrix(12.1,0,0,12.1,162.6,694.6)" />
<use xlink:href="#f5_2k" transform="matrix(12.1,0,0,12.1,118.5,709)" />
<use xlink:href="#f3_4o" transform="matrix(12.1,0,0,12.1,188.7,631.5)" />
<use xlink:href="#f3_54" transform="matrix(12.1,0,0,12.1,220.1,631.5)" />
<use xlink:href="#f3_x" transform="matrix(12.1,0,0,12.1,73.4,641.8)" />
<use xlink:href="#f3_f" transform="matrix(12.1,0,0,12.1,118.7,641.8)" />
<use xlink:href="#f3_x" transform="matrix(12.1,0,0,12.1,163.5,641.8)" />
<use xlink:href="#f3_f" transform="matrix(12.1,0,0,12.1,242,641.8)" />
<use xlink:href="#f3_4p" transform="matrix(12.1,0,0,12.1,188.7,646.9)" />
<use xlink:href="#f3_55" transform="matrix(12.1,0,0,12.1,220.1,646.9)" />
<use xlink:href="#f3_4q" transform="matrix(12.1,0,0,12.1,188.7,658.4)" />
<use xlink:href="#f3_56" transform="matrix(12.1,0,0,12.1,220.1,658.4)" />
<use xlink:href="#f3_4g" transform="matrix(12.1,0,0,12.1,57.4,694.6)" />
<use xlink:href="#f3_x" transform="matrix(12.1,0,0,12.1,95.4,694.6)" />
<use xlink:href="#f3_f" transform="matrix(12.1,0,0,12.1,138.1,694.6)" />
</g>
</g>
<g fill="#000000" >
<use xlink:href="#f2_14" transform="matrix(12,0,0,12,55,735)" />
<use xlink:href="#f2_25" transform="matrix(12,0,0,12,68.6,735)" />
<use xlink:href="#f2_22" transform="matrix(12,0,0,12,73.4,735)" />
<use xlink:href="#f2_22" transform="matrix(12,0,0,12,79.2,735)" />
<use xlink:href="#f2_i" transform="matrix(12,0,0,12,85.1,735)" />
<use xlink:href="#f2_2j" transform="matrix(12,0,0,12,94.6,735)" />
<use xlink:href="#f2_i" transform="matrix(12,0,0,12,107.8,735)" />
<use xlink:href="#f2_2e" transform="matrix(12,0,0,12,117.3,735)" />
<use xlink:href="#f2_i" transform="matrix(12,0,0,12,123.5,735)" />
<use xlink:href="#f2_2g" transform="matrix(12,0,0,12,132.3,735)" />
<use xlink:href="#f2_2b" transform="matrix(12,0,0,12,137.4,735)" />
<use xlink:href="#f2_2k" transform="matrix(12,0,0,12,151.3,735)" />
</g>
<path d="M58.3,769.7H80m32.1,0h23.5m83.4,0h30.5m32.4,0h22.4" class="g5_43" />
<g clip-path="url(#c5_43)">
<g fill="#000000" >
<use xlink:href="#f2_m" transform="matrix(7.3,0,0,7.1,231.7,754.2)" />
<use xlink:href="#f2_m" transform="matrix(7.3,0,0,7.1,125.6,780.8)" />
<use xlink:href="#f2_m" transform="matrix(7.3,0,0,7.1,240.1,780.8)" />
<use xlink:href="#f2_n" transform="matrix(7.3,0,0,7.1,294.8,780.8)" />
<use xlink:href="#f2_o" transform="matrix(12.7,0,0,12.3,113.3,762.5)" />
<use xlink:href="#f2_s" transform="matrix(12.7,0,0,12.3,282.2,762.5)" />
<use xlink:href="#f2_o" transform="matrix(12.7,0,0,12.3,154,774.4)" />
<use xlink:href="#f2_1x" transform="matrix(12.7,0,0,12.3,182.2,774.4)" />
<use xlink:href="#f2_2a" transform="matrix(12.7,0,0,12.3,190.2,774.4)" />
<use xlink:href="#f2_20" transform="matrix(12.7,0,0,12.3,199.4,774.4)" />
<use xlink:href="#f2_o" transform="matrix(12.7,0,0,12.3,322.6,774.4)" />
<use xlink:href="#f5_20" transform="matrix(12.7,0,0,12.3,59.4,762.5)" />
<use xlink:href="#f5_1j" transform="matrix(12.7,0,0,12.3,68.6,762.5)" />
<use xlink:href="#f5_1m" transform="matrix(12.7,0,0,12.3,121,762.5)" />
<use xlink:href="#f5_20" transform="matrix(12.7,0,0,12.3,220.1,762.5)" />
<use xlink:href="#f5_1j" transform="matrix(12.7,0,0,12.3,238,762.5)" />
<use xlink:href="#f5_1m" transform="matrix(12.7,0,0,12.3,289.6,762.5)" />
<use xlink:href="#f5_2k" transform="matrix(12.7,0,0,12.3,164.3,774.4)" />
<use xlink:href="#f5_20" transform="matrix(12.7,0,0,12.3,60.5,789.1)" />
<use xlink:href="#f5_2k" transform="matrix(12.7,0,0,12.3,69.7,789.1)" />
<use xlink:href="#f5_2k" transform="matrix(12.7,0,0,12.3,116.5,789.1)" />
<use xlink:href="#f5_20" transform="matrix(12.7,0,0,12.3,221.8,789.1)" />
<use xlink:href="#f5_2k" transform="matrix(12.7,0,0,12.3,231,789.1)" />
<use xlink:href="#f5_2k" transform="matrix(12.7,0,0,12.3,286,789.1)" />
<use xlink:href="#f3_x" transform="matrix(12.7,0,0,12.3,85.1,774.4)" />
<use xlink:href="#f3_h" transform="matrix(12.7,0,0,12.3,99.6,774.4)" />
<use xlink:href="#f3_f" transform="matrix(12.7,0,0,12.3,139.9,774.4)" />
<use xlink:href="#f3_x" transform="matrix(12.7,0,0,12.3,254.5,774.4)" />
<use xlink:href="#f3_f" transform="matrix(12.7,0,0,12.3,269,774.4)" />
<use xlink:href="#f3_f" transform="matrix(12.7,0,0,12.3,308.5,774.4)" />
</g>
</g>
<g fill="#000000" >
<use xlink:href="#f2_1e" transform="matrix(12,0,0,12,55,825.2)" />
<use xlink:href="#f2_2b" transform="matrix(12,0,0,12,68.3,825.2)" />
<use xlink:href="#f2_2j" transform="matrix(12,0,0,12,77.8,825.2)" />
</g>
<path d="M98.6,820.7h21.9m93.1,0h23.6" class="g6_43" />
<g clip-path="url(#c6_43)">
<g fill="#000000" >
<use xlink:href="#f2_m" transform="matrix(7.3,0,0,7.1,227.1,831.7)" />
<use xlink:href="#f2_o" transform="matrix(12.7,0,0,12.4,214.7,813.4)" />
<use xlink:href="#f2_k" transform="matrix(12.7,0,0,12.4,139.9,825.3)" />
<use xlink:href="#f2_o" transform="matrix(12.7,0,0,12.4,175.5,825.3)" />
<use xlink:href="#f5_20" transform="matrix(12.7,0,0,12.4,99.7,813.4)" />
<use xlink:href="#f5_1j" transform="matrix(12.7,0,0,12.4,109,813.4)" />
<use xlink:href="#f5_1m" transform="matrix(12.7,0,0,12.4,222.5,813.4)" />
<use xlink:href="#f5_2k" transform="matrix(12.7,0,0,12.4,185.8,825.3)" />
<use xlink:href="#f5_20" transform="matrix(12.7,0,0,12.4,100.9,840)" />
<use xlink:href="#f5_2k" transform="matrix(12.7,0,0,12.4,110.1,840)" />
<use xlink:href="#f5_2k" transform="matrix(12.7,0,0,12.4,217.9,840)" />
<use xlink:href="#f3_x" transform="matrix(12.7,0,0,12.4,125.6,825.3)" />
<use xlink:href="#f3_4g" transform="matrix(12.7,0,0,12.4,152.8,825.3)" />
<use xlink:href="#f3_x" transform="matrix(12.7,0,0,12.4,198.6,825.3)" />
</g>
</g>
<g clip-path="url(#c7_43)">
<g fill="#000000" >
<use xlink:href="#f2_n" transform="matrix(7.5,0,0,7.3,89.6,858.8)" />
<use xlink:href="#f2_l" transform="matrix(7.5,0,0,7.3,193.7,858.8)" />
<use xlink:href="#f2_j" transform="matrix(7.5,0,0,7.3,199.2,858.8)" />
<use xlink:href="#f2_n" transform="matrix(7.5,0,0,7.3,203.2,858.8)" />
<use xlink:href="#f5_2k" transform="matrix(13,0,0,12.6,80.8,867.3)" />
<use xlink:href="#f5_1m" transform="matrix(13,0,0,12.6,113.5,867.3)" />
<use xlink:href="#f5_2k" transform="matrix(13,0,0,12.6,154.6,867.3)" />
<use xlink:href="#f5_1m" transform="matrix(13,0,0,12.6,180.3,867.3)" />
<use xlink:href="#f3_4g" transform="matrix(13,0,0,12.6,57.4,867.3)" />
<use xlink:href="#f3_x" transform="matrix(13,0,0,12.6,100.7,867.3)" />
<use xlink:href="#f3_4g" transform="matrix(13,0,0,12.6,131.2,867.3)" />
<use xlink:href="#f3_x" transform="matrix(13,0,0,12.6,167.5,867.3)" />
</g>
</g>
<g fill="#000000" >
<use xlink:href="#f2_1x" transform="matrix(12,0,0,12,55,904.5)" />
<use xlink:href="#f2_2g" transform="matrix(12,0,0,12,63.1,904.5)" />
<use xlink:href="#f2_2k" transform="matrix(12,0,0,12,73.3,904.5)" />
<use xlink:href="#f2_x" transform="matrix(12,0,0,12,86.9,904.5)" />
<use xlink:href="#f2_1m" transform="matrix(12,0,0,12,101.9,904.5)" />
<use xlink:href="#f2_l" transform="matrix(7.9,0,0,7.9,115.2,897.5)" />
<use xlink:href="#f2_j" transform="matrix(7.9,0,0,7.9,121.4,897.5)" />
<use xlink:href="#f2_n" transform="matrix(7.9,0,0,7.9,124.3,897.5)" />
<use xlink:href="#f2_g" transform="matrix(12,0,0,12,130.6,904.5)" />
</g>
<path d="M142.6,899.9h33.9" class="g7_43" />
<g clip-path="url(#c8_43)">
<g fill="#000000" >
<use xlink:href="#f2_m" transform="matrix(7.2,0,0,7.1,165.4,910.9)" />
<use xlink:href="#f2_m" transform="matrix(12.5,0,0,12.4,155.2,892.6)" />
<use xlink:href="#f2_k" transform="matrix(12.5,0,0,12.4,195.9,904.5)" />
<use xlink:href="#f5_20" transform="matrix(12.5,0,0,12.4,143.7,892.6)" />
<use xlink:href="#f5_1j" transform="matrix(12.5,0,0,12.4,165,892.6)" />
<use xlink:href="#f5_20" transform="matrix(12.5,0,0,12.4,147.1,919.2)" />
<use xlink:href="#f5_2k" transform="matrix(12.5,0,0,12.4,156.3,919.2)" />
<use xlink:href="#f3_y" transform="matrix(12.5,0,0,12.4,181.6,904.5)" />
</g>
</g>
<g clip-path="url(#c9_43)">
<g fill="#000000" >
<use xlink:href="#f3_4g" transform="matrix(12.4,0,0,12.3,57.4,943.5)" />
</g>
</g>
<g fill="#000000" >
<use xlink:href="#f2_1j" transform="matrix(12,0,0,12,82.9,943.3)" />
<use xlink:href="#f2_25" transform="matrix(12,0,0,12,97.9,943.3)" />
<use xlink:href="#f2_2f" transform="matrix(12,0,0,12,102.3,943.3)" />
<use xlink:href="#f2_29" transform="matrix(12,0,0,12,114.4,943.3)" />
<use xlink:href="#f2_25" transform="matrix(12,0,0,12,128.3,943.3)" />
<use xlink:href="#f2_2a" transform="matrix(12,0,0,12,133.1,943.3)" />
<use xlink:href="#f2_25" transform="matrix(12,0,0,12,142.6,943.3)" />
<use xlink:href="#f2_29" transform="matrix(12,0,0,12,147.7,943.3)" />
<use xlink:href="#f2_2h" transform="matrix(12,0,0,12,161.7,943.3)" />
<use xlink:href="#f2_29" transform="matrix(12,0,0,12,171.2,943.3)" />
<use xlink:href="#f2_2j" transform="matrix(12,0,0,12,189.9,943.3)" />
<use xlink:href="#f2_24" transform="matrix(12,0,0,12,203.4,943.3)" />
<use xlink:href="#f2_21" transform="matrix(12,0,0,12,212.2,943.3)" />
<use xlink:href="#f2_2a" transform="matrix(12,0,0,12,220.6,943.3)" />
<use xlink:href="#f2_2k" transform="matrix(12,0,0,12,234.2,943.3)" />
<use xlink:href="#f2_x" transform="matrix(12,0,0,12,247.7,943.3)" />
<use xlink:href="#f2_1m" transform="matrix(12,0,0,12,262.7,943.3)" />
<use xlink:href="#f2_l" transform="matrix(7.9,0,0,7.9,276.2,936.4)" />
<use xlink:href="#f2_j" transform="matrix(7.9,0,0,7.9,282.4,936.4)" />
<use xlink:href="#f2_n" transform="matrix(7.9,0,0,7.9,285.7,936.4)" />
<use xlink:href="#f2_1x" transform="matrix(12,0,0,12,55,980)" />
<use xlink:href="#f2_2a" transform="matrix(12,0,0,12,63.1,980)" />
<use xlink:href="#f2_20" transform="matrix(12,0,0,12,71.9,980)" />
</g>
<path d="M117.6,975.4h18.8m19.9,0h31.6" class="g8_43" />
<g clip-path="url(#c10_43)">
<g fill="#000000" >
<use xlink:href="#f2_l" transform="matrix(7.3,0,0,7.1,219.1,971.8)" />
<use xlink:href="#f2_j" transform="matrix(7.3,0,0,7.1,224.6,971.8)" />
<use xlink:href="#f2_n" transform="matrix(7.3,0,0,7.1,228.6,971.8)" />
<use xlink:href="#f2_m" transform="matrix(7.3,0,0,7.1,128.7,986.5)" />
<use xlink:href="#f2_m" transform="matrix(7.3,0,0,7.1,170.2,986.5)" />
<use xlink:href="#f2_j" transform="matrix(7.3,0,0,7.1,176.5,986.5)" />
<use xlink:href="#f2_n" transform="matrix(7.3,0,0,7.1,180.5,986.5)" />
<use xlink:href="#f5_1m" transform="matrix(12.7,0,0,12.4,119.4,968.2)" />
<use xlink:href="#f5_1m" transform="matrix(12.7,0,0,12.4,164.5,968.2)" />
<use xlink:href="#f5_24" transform="matrix(12.7,0,0,12.4,89.1,980.1)" />
<use xlink:href="#f5_1m" transform="matrix(12.7,0,0,12.4,205.8,980.1)" />
<use xlink:href="#f5_2k" transform="matrix(12.7,0,0,12.4,262.5,980.1)" />
<use xlink:href="#f5_24" transform="matrix(12.7,0,0,12.4,289.8,980.1)" />
<use xlink:href="#f5_2k" transform="matrix(12.7,0,0,12.4,119.6,994.8)" />
<use xlink:href="#f5_1m" transform="matrix(12.7,0,0,12.4,155.7,994.8)" />
<use xlink:href="#f3_x" transform="matrix(12.7,0,0,12.4,102.8,980.1)" />
<use xlink:href="#f3_x" transform="matrix(12.7,0,0,12.4,141.4,980.1)" />
<use xlink:href="#f3_x" transform="matrix(12.7,0,0,12.4,192.9,980.1)" />
<use xlink:href="#f3_4g" transform="matrix(12.7,0,0,12.4,239,980.1)" />
<use xlink:href="#f3_x" transform="matrix(12.7,0,0,12.4,275.2,980.1)" />
</g>
</g>
<g clip-path="url(#c11_43)">
<g fill="#000000" >
<use xlink:href="#f5_2k" transform="matrix(13,0,0,12,80.9,1019.6)" />
<use xlink:href="#f5_24" transform="matrix(13,0,0,12,108.4,1019.6)" />
<use xlink:href="#f3_4g" transform="matrix(13,0,0,12,57.4,1019.6)" />
<use xlink:href="#f3_x" transform="matrix(13,0,0,12,93.8,1019.6)" />
</g>
</g>
<g fill="#000000" >
<use xlink:href="#f2_29" transform="matrix(12,0,0,12,125.8,1019.2)" />
<use xlink:href="#f2_21" transform="matrix(12,0,0,12,139.7,1019.2)" />
<use xlink:href="#f2_1x" transform="matrix(12,0,0,12,147.8,1019.2)" />
<use xlink:href="#f2_2a" transform="matrix(12,0,0,12,156.2,1019.2)" />
<use xlink:href="#f2_2f" transform="matrix(12,0,0,12,165,1019.2)" />
<use xlink:href="#f2_25" transform="matrix(12,0,0,12,177.1,1019.2)" />
<use xlink:href="#f2_2g" transform="matrix(12,0,0,12,181.5,1019.2)" />
<use xlink:href="#f2_25" transform="matrix(12,0,0,12,192.1,1019.2)" />
<use xlink:href="#f2_2f" transform="matrix(12,0,0,12,196.5,1019.2)" />
<use xlink:href="#f2_1x" transform="matrix(12,0,0,12,208.2,1019.2)" />
<use xlink:href="#f2_1z" transform="matrix(12,0,0,12,221,1019.2)" />
<use xlink:href="#f2_2h" transform="matrix(12,0,0,12,229.1,1019.2)" />
<use xlink:href="#f2_1y" transform="matrix(12,0,0,12,238.6,1019.2)" />
<use xlink:href="#f2_21" transform="matrix(12,0,0,12,247.4,1019.2)" />
<use xlink:href="#f6_m" transform="matrix(12,0,0,12,55,1068)" />
<use xlink:href="#f6_r" transform="matrix(12,0,0,12,64.2,1068)" />
<use xlink:href="#f6_i" transform="matrix(12,0,0,12,73.4,1068)" />
<use xlink:href="#f2_1l" transform="matrix(12,0,0,12,83.6,1068)" />
<use xlink:href="#f2_2f" transform="matrix(12,0,0,12,96.9,1068)" />
<use xlink:href="#f2_25" transform="matrix(12,0,0,12,104.2,1068)" />
<use xlink:href="#f2_2a" transform="matrix(12,0,0,12,108.9,1068)" />
<use xlink:href="#f2_23" transform="matrix(12,0,0,12,117.7,1068)" />
<use xlink:href="#f2_2g" transform="matrix(12,0,0,12,132.4,1068)" />
<use xlink:href="#f2_24" transform="matrix(12,0,0,12,137.8,1068)" />
<use xlink:href="#f2_21" transform="matrix(12,0,0,12,146.6,1068)" />
<use xlink:href="#f2_29" transform="matrix(12,0,0,12,160.6,1068)" />
<use xlink:href="#f2_21" transform="matrix(12,0,0,12,174.5,1068)" />
<use xlink:href="#f2_2g" transform="matrix(12,0,0,12,182.6,1068)" />
<use xlink:href="#f2_24" transform="matrix(12,0,0,12,188,1068)" />
<use xlink:href="#f2_2b" transform="matrix(12,0,0,12,196.8,1068)" />
<use xlink:href="#f2_20" transform="matrix(12,0,0,12,206.4,1068)" />
<use xlink:href="#f2_2b" transform="matrix(12,0,0,12,221,1068)" />
<use xlink:href="#f2_22" transform="matrix(12,0,0,12,230.5,1068)" />
<use xlink:href="#f2_25" transform="matrix(12,0,0,12,241.9,1068)" />
<use xlink:href="#f2_2a" transform="matrix(12,0,0,12,246.6,1068)" />
<use xlink:href="#f2_2g" transform="matrix(12,0,0,12,255.4,1068)" />
<use xlink:href="#f2_21" transform="matrix(12,0,0,12,260.9,1068)" />
<use xlink:href="#f2_23" transform="matrix(12,0,0,12,269,1068)" />
<use xlink:href="#f2_2e" transform="matrix(12,0,0,12,278.2,1068)" />
<use xlink:href="#f2_1x" transform="matrix(12,0,0,12,284.4,1068)" />
<use xlink:href="#f2_2g" transform="matrix(12,0,0,12,292.4,1068)" />
<use xlink:href="#f2_25" transform="matrix(12,0,0,12,297.9,1068)" />
<use xlink:href="#f2_2b" transform="matrix(12,0,0,12,302.3,1068)" />
<use xlink:href="#f2_2a" transform="matrix(12,0,0,12,311.8,1068)" />
<use xlink:href="#f2_g" transform="matrix(12,0,0,12,320.6,1068)" />
<use xlink:href="#f2_22" transform="matrix(12,0,0,12,331.2,1068)" />
<use xlink:href="#f2_25" transform="matrix(12,0,0,12,337.1,1068)" />
<use xlink:href="#f2_2a" transform="matrix(12,0,0,12,341.9,1068)" />
<use xlink:href="#f2_20" transform="matrix(12,0,0,12,351,1068)" />
<use xlink:href="#f2_2g" transform="matrix(12,0,0,12,365.7,1068)" />
<use xlink:href="#f2_24" transform="matrix(12,0,0,12,371.2,1068)" />
<use xlink:href="#f2_21" transform="matrix(12,0,0,12,380,1068)" />
<use xlink:href="#f2_1x" transform="matrix(12,0,0,12,393.5,1068)" />
<use xlink:href="#f2_2e" transform="matrix(12,0,0,12,401.6,1068)" />
<use xlink:href="#f2_21" transform="matrix(12,0,0,12,407.8,1068)" />
<use xlink:href="#f2_1x" transform="matrix(12,0,0,12,415.9,1068)" />
<use xlink:href="#f2_2b" transform="matrix(12,0,0,12,429.8,1068)" />
<use xlink:href="#f2_22" transform="matrix(12,0,0,12,439.3,1068)" />
<use xlink:href="#f2_2g" transform="matrix(12,0,0,12,450.3,1068)" />
<use xlink:href="#f2_24" transform="matrix(12,0,0,12,455.7,1068)" />
<use xlink:href="#f2_21" transform="matrix(12,0,0,12,464.5,1068)" />
<use xlink:href="#f2_2g" transform="matrix(12,0,0,12,478.1,1068)" />
<use xlink:href="#f2_2e" transform="matrix(12,0,0,12,483.6,1068)" />
<use xlink:href="#f2_25" transform="matrix(12,0,0,12,489.8,1068)" />
<use xlink:href="#f2_1x" transform="matrix(12,0,0,12,494.2,1068)" />
<use xlink:href="#f2_2a" transform="matrix(12,0,0,12,502.6,1068)" />
<use xlink:href="#f2_23" transform="matrix(12,0,0,12,511.4,1068)" />
<use xlink:href="#f2_28" transform="matrix(12,0,0,12,520.9,1068)" />
<use xlink:href="#f2_21" transform="matrix(12,0,0,12,525.7,1068)" />
<use xlink:href="#f2_11" transform="matrix(12,0,0,12,539.6,1068)" />
<use xlink:href="#f2_12" transform="matrix(12,0,0,12,552.8,1068)" />
<use xlink:href="#f2_13" transform="matrix(12,0,0,12,564.9,1068)" />
<use xlink:href="#f2_g" transform="matrix(12,0,0,12,577,1068)" />
<use xlink:href="#f2_1z" transform="matrix(12,0,0,12,587.2,1068)" />
<use xlink:href="#f2_2b" transform="matrix(12,0,0,12,595.3,1068)" />
<use xlink:href="#f2_2b" transform="matrix(12,0,0,12,604.8,1068)" />
<use xlink:href="#f2_2e" transform="matrix(12,0,0,12,614,1068)" />
<use xlink:href="#f2_20" transform="matrix(12,0,0,12,620.2,1068)" />
<use xlink:href="#f2_25" transform="matrix(12,0,0,12,629.4,1068)" />
<use xlink:href="#f2_2a" transform="matrix(12,0,0,12,634.1,1068)" />
<use xlink:href="#f2_1x" transform="matrix(12,0,0,12,642.9,1068)" />
<use xlink:href="#f2_2g" transform="matrix(12,0,0,12,651,1068)" />
<use xlink:href="#f2_21" transform="matrix(12,0,0,12,656.5,1068)" />
<use xlink:href="#f2_2f" transform="matrix(12,0,0,12,664.5,1068)" />
<use xlink:href="#f2_2b" transform="matrix(12,0,0,12,677,1068)" />
<use xlink:href="#f2_22" transform="matrix(12,0,0,12,686.5,1068)" />
<use xlink:href="#f2_2j" transform="matrix(12,0,0,12,697.5,1068)" />
<use xlink:href="#f2_24" transform="matrix(12,0,0,12,711,1068)" />
<use xlink:href="#f2_2b" transform="matrix(12,0,0,12,719.8,1068)" />
<use xlink:href="#f2_2f" transform="matrix(12,0,0,12,729.4,1068)" />
<use xlink:href="#f2_21" transform="matrix(12,0,0,12,736.3,1068)" />
<use xlink:href="#f2_2i" transform="matrix(12,0,0,12,750.2,1068)" />
<use xlink:href="#f2_21" transform="matrix(12,0,0,12,759,1068)" />
<use xlink:href="#f2_2e" transform="matrix(12,0,0,12,767.1,1068)" />
<use xlink:href="#f2_2g" transform="matrix(12,0,0,12,773.3,1068)" />
<use xlink:href="#f2_25" transform="matrix(12,0,0,12,779.2,1068)" />
<use xlink:href="#f2_1z" transform="matrix(12,0,0,12,783.6,1068)" />
<use xlink:href="#f2_21" transform="matrix(12,0,0,12,791.6,1068)" />
<use xlink:href="#f2_2f" transform="matrix(12,0,0,12,800,1068)" />
<use xlink:href="#f2_1x" transform="matrix(12,0,0,12,812.5,1068)" />
<use xlink:href="#f2_2e" transform="matrix(12,0,0,12,820.6,1068)" />
<use xlink:href="#f2_21" transform="matrix(12,0,0,12,826.8,1068)" />
<use xlink:href="#f2_11" transform="matrix(12,0,0,12,840.3,1068)" />
<use xlink:href="#f2_c" transform="matrix(12,0,0,12,55,1092.6)" />
<use xlink:href="#f2_o" transform="matrix(12,0,0,12,61.3,1092.6)" />
<use xlink:href="#f2_g" transform="matrix(12,0,0,12,70.4,1092.6)" />
<use xlink:href="#f2_l" transform="matrix(12,0,0,12,79.9,1092.6)" />
<use xlink:href="#f2_d" transform="matrix(12,0,0,12,88.7,1092.6)" />
<use xlink:href="#f2_g" transform="matrix(12,0,0,12,94.9,1092.6)" />
<use xlink:href="#f2_12" transform="matrix(12,0,0,12,104.1,1092.6)" />
<use xlink:href="#f2_c" transform="matrix(12,0,0,12,120.9,1092.6)" />
<use xlink:href="#f2_q" transform="matrix(12,0,0,12,127.1,1092.6)" />
<use xlink:href="#f2_g" transform="matrix(12,0,0,12,135.9,1092.6)" />
<use xlink:href="#f2_q" transform="matrix(12,0,0,12,145.4,1092.6)" />
<use xlink:href="#f2_d" transform="matrix(12,0,0,12,154.2,1092.6)" />
<use xlink:href="#f2_1x" transform="matrix(12,0,0,12,165.2,1092.6)" />
<use xlink:href="#f2_2a" transform="matrix(12,0,0,12,173.3,1092.6)" />
<use xlink:href="#f2_20" transform="matrix(12,0,0,12,182.1,1092.6)" />
<use xlink:href="#f2_13" transform="matrix(12,0,0,12,196,1092.6)" />
<use xlink:href="#f2_c" transform="matrix(12,0,0,12,212.8,1092.6)" />
<use xlink:href="#f2_s" transform="matrix(12,0,0,12,219,1092.6)" />
<use xlink:href="#f2_g" transform="matrix(12,0,0,12,228.2,1092.6)" />
<use xlink:href="#f2_o" transform="matrix(12,0,0,12,237.4,1092.6)" />
<use xlink:href="#f2_d" transform="matrix(12,0,0,12,246.5,1092.6)" />
<use xlink:href="#f2_i" transform="matrix(12,0,0,12,252.4,1092.6)" />
<use xlink:href="#f6_1f" transform="matrix(12,0,0,12,468.4,1116.8)" />
<use xlink:href="#f6_1i" transform="matrix(12,0,0,12,482.7,1116.8)" />
<use xlink:href="#f2_16" transform="matrix(12,0,0,12,55,1141)" />
<use xlink:href="#f2_25" transform="matrix(12,0,0,12,65.3,1141)" />
<use xlink:href="#f2_2a" transform="matrix(12,0,0,12,70.1,1141)" />
<use xlink:href="#f2_20" transform="matrix(12,0,0,12,79.2,1141)" />
<use xlink:href="#f2_2g" transform="matrix(12,0,0,12,93.2,1141)" />
<use xlink:href="#f2_24" transform="matrix(12,0,0,12,98.7,1141)" />
<use xlink:href="#f2_21" transform="matrix(12,0,0,12,107.5,1141)" />
<use xlink:href="#f2_1x" transform="matrix(12,0,0,12,120.3,1141)" />
<use xlink:href="#f2_2e" transform="matrix(12,0,0,12,128.3,1141)" />
<use xlink:href="#f2_21" transform="matrix(12,0,0,12,134.5,1141)" />
<use xlink:href="#f2_1x" transform="matrix(12,0,0,12,142.6,1141)" />
<use xlink:href="#f2_21" transform="matrix(12,0,0,12,155.4,1141)" />
<use xlink:href="#f2_2a" transform="matrix(12,0,0,12,163.5,1141)" />
<use xlink:href="#f2_1z" transform="matrix(12,0,0,12,172.3,1141)" />
<use xlink:href="#f2_28" transform="matrix(12,0,0,12,180.7,1141)" />
<use xlink:href="#f2_2b" transform="matrix(12,0,0,12,185.1,1141)" />
<use xlink:href="#f2_2f" transform="matrix(12,0,0,12,194.6,1141)" />
<use xlink:href="#f2_21" transform="matrix(12,0,0,12,201.6,1141)" />
<use xlink:href="#f2_20" transform="matrix(12,0,0,12,209.7,1141)" />
<use xlink:href="#f2_1y" transform="matrix(12,0,0,12,223.9,1141)" />
<use xlink:href="#f2_21" transform="matrix(12,0,0,12,232.7,1141)" />
<use xlink:href="#f2_2g" transform="matrix(12,0,0,12,240.8,1141)" />
<use xlink:href="#f2_2j" transform="matrix(12,0,0,12,246.3,1141)" />
<use xlink:href="#f2_21" transform="matrix(12,0,0,12,259.5,1141)" />
<use xlink:href="#f2_21" transform="matrix(12,0,0,12,267.6,1141)" />
<use xlink:href="#f2_2a" transform="matrix(12,0,0,12,275.6,1141)" />
<use xlink:href="#f2_2g" transform="matrix(12,0,0,12,289.2,1141)" />
<use xlink:href="#f2_24" transform="matrix(12,0,0,12,294.7,1141)" />
<use xlink:href="#f2_21" transform="matrix(12,0,0,12,303.5,1141)" />
<use xlink:href="#f2_2c" transform="matrix(12,0,0,12,316.3,1141)" />
<use xlink:href="#f2_1x" transform="matrix(12,0,0,12,325.4,1141)" />
<use xlink:href="#f2_2e" transform="matrix(12,0,0,12,333.5,1141)" />
<use xlink:href="#f2_1x" transform="matrix(12,0,0,12,339.7,1141)" />
<use xlink:href="#f2_1y" transform="matrix(12,0,0,12,348.1,1141)" />
<use xlink:href="#f2_2b" transform="matrix(12,0,0,12,356.9,1141)" />
<use xlink:href="#f2_28" transform="matrix(12,0,0,12,366.4,1141)" />
<use xlink:href="#f2_1x" transform="matrix(12,0,0,12,371.2,1141)" />
<use xlink:href="#f2_o" transform="matrix(12,0,0,12,384,1141)" />
<use xlink:href="#f2_2l" transform="matrix(12,0,0,12,393.5,1141)" />
<use xlink:href="#f2_x" transform="matrix(12,0,0,12,406.7,1141)" />
<use xlink:href="#f2_n" transform="matrix(12,0,0,12,421.7,1141)" />
<use xlink:href="#f2_2k" transform="matrix(12,0,0,12,430.9,1141)" />
<use xlink:href="#f2_m" transform="matrix(7.9,0,0,7.9,440.2,1134)" />
<use xlink:href="#f2_1x" transform="matrix(12,0,0,12,451.2,1141)" />
<use xlink:href="#f2_2a" transform="matrix(12,0,0,12,459.3,1141)" />
<use xlink:href="#f2_20" transform="matrix(12,0,0,12,468.1,1141)" />
<use xlink:href="#f2_2g" transform="matrix(12,0,0,12,482,1141)" />
<use xlink:href="#f2_24" transform="matrix(12,0,0,12,487.4,1141)" />
<use xlink:href="#f2_21" transform="matrix(12,0,0,12,496.2,1141)" />
<use xlink:href="#f2_2f" transform="matrix(12,0,0,12,509.1,1141)" />
<use xlink:href="#f2_2g" transform="matrix(12,0,0,12,516,1141)" />
<use xlink:href="#f2_2e" transform="matrix(12,0,0,12,521.5,1141)" />
<use xlink:href="#f2_1x" transform="matrix(12,0,0,12,527.7,1141)" />
<use xlink:href="#f2_25" transform="matrix(12,0,0,12,535.8,1141)" />
<use xlink:href="#f2_23" transform="matrix(12,0,0,12,540.2,1141)" />
<use xlink:href="#f2_24" transform="matrix(12,0,0,12,549.7,1141)" />
<use xlink:href="#f2_2g" transform="matrix(12,0,0,12,558.5,1141)" />
<use xlink:href="#f2_28" transform="matrix(12,0,0,12,569.1,1141)" />
<use xlink:href="#f2_25" transform="matrix(12,0,0,12,573.9,1141)" />
<use xlink:href="#f2_2a" transform="matrix(12,0,0,12,578.6,1141)" />
<use xlink:href="#f2_21" transform="matrix(12,0,0,12,587.8,1141)" />
<use xlink:href="#f2_n" transform="matrix(12,0,0,12,600.6,1141)" />
<use xlink:href="#f2_2k" transform="matrix(12,0,0,12,609.8,1141)" />
<use xlink:href="#f7_4y" transform="matrix(12,0,0,12,623.5,1141)" />
<use xlink:href="#f2_m" transform="matrix(12,0,0,12,637.5,1141)" />
<use xlink:href="#f2_2l" transform="matrix(12,0,0,12,647,1141)" />
<use xlink:href="#f2_f" transform="matrix(12,0,0,12,660.2,1141)" />
<use xlink:href="#f2_l" transform="matrix(12,0,0,12,675.2,1141)" />
<use xlink:href="#f2_m" transform="matrix(12,0,0,12,684.4,1141)" />
<use xlink:href="#f2_x" transform="matrix(12,0,0,12,698.3,1141)" />
<use xlink:href="#f2_k" transform="matrix(12,0,0,12,713.3,1141)" />
<use xlink:href="#f2_i" transform="matrix(12,0,0,12,722.5,1141)" />
<use xlink:href="#f6_1j" transform="matrix(12,0,0,12,55,1165.2)" />
<use xlink:href="#f6_2b" transform="matrix(12,0,0,12,65.3,1165.2)" />
<use xlink:href="#f6_28" transform="matrix(12,0,0,12,74.5,1165.2)" />
<use xlink:href="#f6_2h" transform="matrix(12,0,0,12,79.2,1165.2)" />
<use xlink:href="#f6_2g" transform="matrix(12,0,0,12,89.5,1165.2)" />
<use xlink:href="#f6_25" transform="matrix(12,0,0,12,95.7,1165.2)" />
<use xlink:href="#f6_2b" transform="matrix(12,0,0,12,100.8,1165.2)" />
<use xlink:href="#f6_2a" transform="matrix(12,0,0,12,109.9,1165.2)" />
<use xlink:href="#f6_u" transform="matrix(12,0,0,12,120.2,1165.2)" />
</g>
<path fill-rule="evenodd" d="M37.4,38.1h.7v-.7h-.7v.7Z" class="g9_43" />
<path fill-rule="evenodd" d="M37.4,38.1h.7v-.7h-.7v.7Z" class="g9_43" />
<path fill-rule="evenodd" d="M38.1,38.1H871.5v-.7H38.1v.7Z" class="g9_43" />
<path fill-rule="evenodd" d="M871.5,38.1h.8v-.7h-.8v.7Z" class="g9_43" />
<path fill-rule="evenodd" d="M871.5,38.1h.8v-.7h-.8v.7Z" class="g9_43" />
<path fill-rule="evenodd" d="M37.4,1248.5h.7V38.1h-.7V1248.5Z" class="g9_43" />
<path fill-rule="evenodd" d="M872.3,1248.5h.7V38.1h-.7V1248.5Z" class="g9_43" />
<path fill-rule="evenodd" d="M871.5,1248.5h.8V38.1h-.8V1248.5Z" class="g9_43" />
<path fill-rule="evenodd" d="M37.4,1249.2h.7v-.7h-.7v.7Z" class="g9_43" />
<path fill-rule="evenodd" d="M37.4,1249.2h.7v-.7h-.7v.7Z" class="g9_43" />
<path fill-rule="evenodd" d="M38.1,1249.9H871.5v-.7H38.1v.7Z" class="g9_43" />
<path fill-rule="evenodd" d="M38.1,1249.2H871.5v-.7H38.1v.7Z" class="g9_43" />
<path fill-rule="evenodd" d="M872.3,1249.9h.7v-1.4h-.7v1.4Z" class="g9_43" />
<path fill-rule="evenodd" d="M871.5,1249.9H873v-.7h-1.5v.7Z" class="g9_43" />
<path fill-rule="evenodd" d="M871.5,1249.2h.8v-.7h-.8v.7Z" class="g9_43" />
<path fill-rule="evenodd" d="M871.5,1249.2h.8v-.7h-.8v.7Z" class="g9_43" />
<defs>
<path d="M489,-15c0,0,-99,0,-179,30c0,0,-80,30,-136,91c0,0,-56,61,-85,152c0,0,-30,91,-30,212c0,0,0,123,32,218c0,0,33,96,92,161c0,0,59,65,142,98c0,0,82,34,181,34c0,0,40,0,78,-7c0,0,37,-7,69,-18c0,0,31,-11,57,-25c0,0,25,-14,35,-24c0,0,10,-10,14,-17c0,0,4,-7,6,-17c0,0,2,-11,3,-25c0,0,2,-14,2,-35c0,0,0,-22,-2,-38c0,0,-1,-15,-5,-25c0,0,-4,-10,-9,-14c0,0,-5,-5,-12,-5c0,0,-11,0,-28,13c0,0,-18,13,-45,29c0,0,-27,16,-65,29c0,0,-37,13,-89,13c0,0,-58,0,-103,-23c0,0,-45,-23,-77,-67c0,0,-31,-44,-48,-106c0,0,-16,-61,-16,-139c0,0,0,-85,17,-147c0,0,18,-62,50,-103c0,0,33,-40,79,-60c0,0,45,-19,103,-19c0,0,52,0,90,12c0,0,38,12,65,27c0,0,27,15,45,27c0,0,17,12,27,12c0,0,8,0,12,-3c0,0,4,-3,7,-12c0,0,3,-9,5,-25c0,0,1,-16,1,-43c0,0,0,-18,-1,-31c0,0,-1,-14,-3,-23c0,0,-2,-9,-6,-16c0,0,-4,-7,-12,-15c0,0,-8,-9,-32,-22c0,0,-23,-14,-57,-26C661,13,627,1,583,-6c0,0,-43,-9,-94,-9Z" 
id="f0_j"
transform="scale(0.001,-0.001)" />

<path d="M440,150c0,0,41,0,68,8c0,0,28,9,49,26c0,0,20,16,32,41c0,0,11,25,11,58c0,0,0,33,-11,60c0,0,-11,26,-33,44c0,0,-21,18,-55,28c0,0,-33,9,-87,9H298V150ZM407,567c0,0,42,0,68,10c0,0,25,10,42,28c0,0,16,17,24,41c0,0,9,24,9,50c0,0,0,29,-9,52c0,0,-9,23,-27,39c0,0,-18,15,-45,23c0,0,-27,8,-72,8H298V567ZM164,0c0,0,-25,0,-42,15c0,0,-16,14,-16,47V903c0,0,0,33,16,48c0,0,17,14,42,14H406c0,0,88,0,150,-15c0,0,61,-15,103,-45c0,0,42,-30,65,-77c0,0,22,-46,22,-108c0,0,0,-36,-9,-67c0,0,-9,-31,-26,-56c0,0,-17,-25,-42,-45c0,0,-25,-19,-57,-31c0,0,41,-7,76,-26c0,0,34,-19,60,-48c0,0,26,-30,41,-69c0,0,15,-40,15,-89c0,0,0,-51,-14,-93c0,0,-15,-42,-40,-74c0,0,-25,-32,-59,-55c0,0,-35,-23,-77,-38C614,29,573,14,525,7C525,7,478,0,420,0Z" 
id="f0_i"
transform="scale(0.001,-0.001)" />

<path d="M320,-17c0,0,-50,0,-93,9c0,0,-43,8,-76,19c0,0,-32,11,-54,24C97,35,75,48,65,58c0,0,-10,9,-14,28c0,0,-4,18,-4,52c0,0,0,23,1,39c0,0,2,15,5,25c0,0,4,10,9,14c0,0,6,4,13,4c0,0,11,0,30,-12c0,0,19,-13,49,-28c0,0,30,-15,71,-27c0,0,42,-12,96,-12c0,0,36,0,64,8c0,0,29,9,49,25c0,0,19,15,30,38c0,0,10,23,10,52c0,0,0,33,-18,56c0,0,-18,24,-46,42c0,0,-29,18,-66,34c0,0,-36,16,-75,34c0,0,-39,18,-76,41c0,0,-36,23,-65,54c0,0,-29,32,-47,75c0,0,-17,44,-17,104c0,0,0,70,25,122c0,0,26,53,70,88c0,0,43,34,103,51c0,0,59,18,125,18c0,0,35,0,69,-6c0,0,34,-5,64,-14c0,0,30,-9,53,-20c0,0,23,-11,31,-18c0,0,7,-8,10,-13c0,0,3,-5,4,-14c0,0,2,-8,3,-21c0,0,1,-13,1,-33c0,0,0,-21,-1,-36c0,0,-1,-15,-4,-25c0,0,-3,-9,-7,-14c0,0,-5,-4,-14,-4c0,0,-8,0,-26,10c0,0,-18,10,-44,23c0,0,-26,12,-60,22c0,0,-34,10,-75,10c0,0,-32,0,-56,-8c0,0,-24,-8,-40,-21c0,0,-16,-14,-24,-34c0,0,-8,-19,-8,-41c0,0,0,-32,18,-56c0,0,17,-23,46,-42c0,0,30,-18,67,-34c0,0,38,-16,76,-34c0,0,39,-18,76,-41c0,0,38,-22,67,-54c0,0,29,-32,47,-75c0,0,18,-43,18,-101c0,0,0,-76,-29,-133c0,0,-28,-58,-77,-96C572,60,524,21,459,2c0,0,-65,-19,-139,-19Z" 
id="f0_2n"
transform="scale(0.001,-0.001)" />

<path d="M164,0c0,0,-25,0,-42,15c0,0,-16,14,-16,47V903c0,0,0,33,16,48c0,0,17,14,42,14H645c0,0,7,0,12,-4c0,0,5,-3,9,-13c0,0,4,-9,6,-24c0,0,2,-14,2,-36c0,0,0,-21,-2,-36c0,0,-2,-14,-6,-23c0,0,-4,-9,-9,-13c0,0,-5,-4,-12,-4H301V576H593c0,0,6,0,12,-4c0,0,6,-4,9,-13c0,0,4,-8,6,-23c0,0,2,-14,2,-35c0,0,0,-22,-2,-36c0,0,-2,-14,-6,-23c0,0,-3,-8,-9,-12c0,0,-6,-4,-12,-4H301V154H649c0,0,6,0,12,-5c0,0,5,-4,9,-13c0,0,4,-9,6,-23c0,0,2,-15,2,-36c0,0,0,-22,-2,-36c0,0,-2,-15,-6,-24c0,0,-4,-9,-9,-13c0,0,-6,-4,-12,-4Z" 
id="f0_t"
transform="scale(0.001,-0.001)" />

<path d="M79,297c0,0,-19,0,-27,18c0,0,-8,17,-8,60c0,0,0,41,8,59c0,0,8,17,27,17H389c0,0,9,0,15,-4c0,0,7,-4,11,-13c0,0,5,-9,7,-23c0,0,1,-15,1,-36c0,0,0,-43,-8,-61c0,0,-8,-17,-26,-17Z" 
id="f0_oj"
transform="scale(0.001,-0.001)" />

<path d="M121,-4c0,0,-39,0,-60,2C61,-2,39,0,32,8c0,0,-8,8,-3,24c0,0,4,15,18,41L279,495L64,892c0,0,-14,26,-19,42c0,0,-5,17,4,24c0,0,9,8,32,10c0,0,23,2,65,2c0,0,35,0,56,-2c0,0,20,-1,32,-4c0,0,12,-4,17,-10c0,0,5,-6,9,-15L431,620L595,939c0,0,5,9,10,15c0,0,5,6,16,10c0,0,10,3,29,4c0,0,19,2,53,2c0,0,37,0,59,-2c0,0,22,-2,30,-10c0,0,8,-8,4,-24c0,0,-4,-16,-17,-42L564,497L793,73c0,0,14,-26,18,-41c0,0,4,-16,-5,-24c0,0,-9,-8,-32,-10c0,0,-24,-2,-65,-2c0,0,-36,0,-56,2c0,0,-20,1,-31,3c0,0,-12,4,-17,10c0,0,-5,6,-9,15L414,374L233,26c0,0,-4,-9,-9,-15c0,0,-6,-6,-17,-10c0,0,-12,-2,-32,-3c0,0,-21,-2,-54,-2Z" 
id="f0_3e"
transform="scale(0.001,-0.001)" />

<path d="M204,-4c0,0,-28,0,-47,2c0,0,-19,2,-31,5c0,0,-11,4,-16,10c0,0,-4,6,-4,13V939c0,0,0,7,4,13c0,0,5,6,17,10c0,0,11,3,30,6c0,0,19,2,47,2c0,0,29,0,48,-2c0,0,18,-3,29,-6c0,0,11,-4,16,-10c0,0,5,-6,5,-13V26c0,0,0,-7,-5,-13c0,0,-5,-6,-16,-10c0,0,-11,-3,-29,-5c0,0,-19,-2,-48,-2Z" 
id="f0_1c"
transform="scale(0.001,-0.001)" />

<path d="M127,0c0,0,-16,0,-28,3C99,3,87,6,80,15c0,0,-8,8,-11,25c0,0,-3,16,-3,42c0,0,0,25,2,42c0,0,2,18,8,32c0,0,6,14,15,27c0,0,9,13,24,29L282,390c0,0,50,53,81,95c0,0,30,43,47,79c0,0,17,35,24,65c0,0,6,30,6,57c0,0,0,24,-8,46c0,0,-8,22,-23,39c0,0,-15,16,-38,25c0,0,-23,10,-55,10c0,0,-44,0,-78,-12c0,0,-33,-11,-59,-25c0,0,-26,-13,-43,-25c0,0,-17,-12,-27,-12c0,0,-7,0,-11,5c0,0,-5,4,-8,15c0,0,-3,10,-5,28c0,0,-2,17,-2,42c0,0,0,18,1,29c0,0,1,12,4,20c0,0,2,9,6,15c0,0,3,6,13,15c0,0,9,9,34,23c0,0,25,14,61,27c0,0,37,14,81,23c0,0,44,9,92,9c0,0,75,0,131,-19c0,0,57,-19,94,-53c0,0,37,-34,55,-81c0,0,19,-47,19,-100c0,0,0,-47,-9,-93c0,0,-9,-45,-37,-98c0,0,-29,-52,-80,-116c0,0,-52,-64,-136,-148L299,159H679c0,0,8,0,14,-4c0,0,6,-5,11,-14c0,0,4,-9,7,-25c0,0,2,-15,2,-36c0,0,0,-22,-2,-37c0,0,-2,-15,-6,-25c0,0,-3,-10,-9,-14c0,0,-6,-4,-14,-4Z" 
id="f0_rz"
transform="scale(0.001,-0.001)" />

<path d="M385,138c0,0,29,0,52,9c0,0,22,10,39,28c0,0,17,19,28,47c0,0,11,29,19,66c0,0,7,37,9,84c0,0,3,47,3,104c0,0,0,69,-4,122c0,0,-4,52,-11,91c0,0,-8,39,-20,66c0,0,-12,27,-28,43c0,0,-16,16,-37,22c0,0,-21,7,-47,7c0,0,-44,0,-73,-21c0,0,-28,-21,-45,-64c0,0,-17,-42,-24,-106c0,0,-6,-63,-6,-148c0,0,0,-103,8,-171c0,0,8,-67,26,-107c0,0,17,-40,45,-56c0,0,27,-16,66,-16ZM378,-17c0,0,-99,0,-164,33c0,0,-65,34,-103,98c0,0,-38,64,-54,156c0,0,-15,92,-15,209c0,0,0,115,19,208c0,0,19,94,61,160c0,0,42,65,110,101c0,0,68,35,165,35c0,0,99,0,164,-34c0,0,65,-34,103,-98c0,0,39,-64,53,-156c0,0,15,-92,15,-209c0,0,0,-115,-18,-209c0,0,-19,-93,-61,-159C653,118,611,53,543,17c0,0,-67,-34,-165,-34Z" 
id="f0_rx"
transform="scale(0.001,-0.001)" />

<path d="M142,0c0,0,-6,0,-12,4c0,0,-5,3,-9,12c0,0,-4,9,-6,23c0,0,-3,15,-3,36c0,0,0,21,2,36c0,0,2,14,6,23c0,0,4,9,10,13c0,0,5,5,12,5H322V779L166,693c0,0,-17,-8,-28,-10c0,0,-1,0,-3,0c-4,0,-10,1,-14,5c0,0,-6,6,-8,22c0,0,-2,15,-2,44c0,0,0,18,0,29c0,0,1,12,4,20c0,0,3,8,8,14c0,0,5,5,14,11L345,962c0,0,4,3,9,5c0,0,6,2,15,3c0,0,9,1,23,2c0,0,15,0,38,0c0,0,28,0,46,-1c0,0,17,-1,26,-4c0,0,9,-3,12,-7c0,0,3,-4,3,-11V152H675c0,0,7,0,12,-5c0,0,6,-4,10,-13c0,0,4,-9,6,-23c0,0,2,-15,2,-36c0,0,0,-21,-2,-36c0,0,-3,-14,-7,-23c0,0,-4,-9,-9,-12c0,0,-5,-4,-12,-4Z" 
id="f0_ry"
transform="scale(0.001,-0.001)" />

<path d="M259,-4c0,0,-39,0,-62,3c0,0,-23,1,-34,7c0,0,-11,6,-12,14c0,0,-1,9,5,21L498,796H92c0,0,-16,0,-24,20c0,0,-7,21,-7,65c0,0,0,22,2,38c0,0,2,16,6,27c0,0,4,10,10,15c0,0,6,4,13,4H666c0,0,13,0,22,-3c0,0,9,-2,14,-11c0,0,6,-9,8,-25c0,0,3,-17,3,-43c0,0,0,-22,-2,-38c0,0,-1,-16,-4,-30c0,0,-2,-13,-7,-26c0,0,-4,-12,-10,-26L372,26c0,0,-5,-10,-12,-16c0,0,-7,-6,-20,-9c0,0,-12,-3,-32,-4c0,0,-20,-1,-49,-1Z" 
id="f0_s4"
transform="scale(0.001,-0.001)" />

<path d="M589,371L453,782h-1L317,371ZM106,-4c0,0,-35,0,-54,2C52,-2,32,0,25,8c0,0,-7,9,-5,24c0,0,2,16,11,42L329,931c0,0,4,13,10,21c0,0,6,7,19,12c0,0,13,4,36,5c0,0,23,1,61,1c0,0,44,0,71,-1c0,0,26,-1,40,-5c0,0,15,-5,21,-13c0,0,6,-8,11,-22L896,73c0,0,9,-27,11,-43c0,0,3,-15,-6,-23c0,0,-8,-7,-29,-9c0,0,-21,-2,-57,-2c0,0,-38,0,-59,1c0,0,-22,1,-33,4c0,0,-11,3,-16,9c0,0,-4,6,-7,16L635,220H272L211,31c0,0,-2,-11,-7,-18c0,0,-5,-7,-16,-11c0,0,-11,-3,-31,-4c0,0,-19,-2,-51,-2Z" 
id="f0_5"
transform="scale(0.001,-0.001)" />

<path d="M198,-4c0,0,-27,0,-45,2c0,0,-18,2,-28,5c0,0,-11,4,-15,10c0,0,-4,6,-4,13V887c0,0,0,38,20,58c0,0,20,20,53,20H308c0,0,34,0,59,-6c0,0,24,-5,42,-18c0,0,18,-13,30,-35c0,0,12,-21,21,-52L669,279h3L889,852c0,0,9,32,21,53c0,0,11,22,27,35c0,0,15,14,36,19c0,0,21,6,48,6h132c0,0,21,0,35,-5c0,0,15,-5,24,-15c0,0,9,-11,14,-25c0,0,5,-15,5,-33V26c0,0,0,-7,-4,-13c0,0,-4,-6,-15,-10c0,0,-11,-3,-29,-5c0,0,-18,-2,-45,-2c0,0,-27,0,-45,2c0,0,-18,2,-28,5c0,0,-11,4,-15,10c0,0,-5,6,-5,13V813h-1L764,27c0,0,-3,-10,-10,-16c0,0,-6,-6,-18,-10c0,0,-12,-3,-29,-4c0,0,-18,-1,-44,-1c0,0,-25,0,-43,2c0,0,-18,2,-29,5c0,0,-12,4,-19,10c0,0,-6,6,-9,14L293,813h-2V26c0,0,0,-7,-4,-13c0,0,-4,-6,-15,-10c0,0,-11,-3,-29,-5c0,0,-17,-2,-45,-2Z" 
id="f0_1x"
transform="scale(0.001,-0.001)" />

<path d="M193,-4c0,0,-26,0,-43,2c0,0,-18,2,-27,6c0,0,-10,4,-14,10c0,0,-3,6,-3,13V895c0,0,0,35,20,53c0,0,21,17,50,17H282c0,0,28,0,47,-5c0,0,20,-5,35,-16c0,0,15,-11,29,-31c0,0,13,-20,27,-49L608,511c0,0,17,-32,33,-63c0,0,16,-31,31,-62c0,0,14,-31,29,-60c0,0,14,-30,27,-60h1c0,0,-2,52,-3,109c0,0,-1,57,-1,108V936c0,0,0,7,4,13c0,0,5,6,15,11c0,0,10,4,28,6c0,0,17,2,44,2c0,0,25,0,42,-2c0,0,17,-2,27,-6c0,0,9,-5,13,-11c0,0,4,-6,4,-13V68c0,0,0,-17,-6,-30c0,0,-6,-14,-17,-23C879,15,869,6,856,2c0,0,-14,-3,-28,-3H744c0,0,-26,0,-45,4c0,0,-19,5,-35,19c0,0,-16,14,-31,38c0,0,-15,23,-34,60L359,572c0,0,-21,40,-43,86c0,0,-21,47,-38,91h-2c0,0,3,-54,5,-107c0,0,2,-53,2,-110V27c0,0,0,-7,-5,-13c0,0,-4,-6,-14,-10c0,0,-10,-4,-27,-6c0,0,-17,-2,-44,-2Z" 
id="f0_1y"
transform="scale(0.001,-0.001)" />

<path d="M378,-4c0,0,-28,0,-47,2c0,0,-19,2,-31,5c0,0,-11,4,-16,10c0,0,-4,6,-4,13V805H38c0,0,-8,0,-13,4c0,0,-5,5,-9,14c0,0,-3,9,-5,25c0,0,-2,15,-2,37c0,0,0,22,2,38c0,0,2,15,5,25c0,0,4,9,9,13c0,0,5,4,13,4H718c0,0,7,0,12,-4c0,0,6,-4,10,-13c0,0,3,-10,5,-25c0,0,2,-16,2,-38c0,0,0,-22,-2,-37c0,0,-2,-16,-5,-25c0,0,-4,-9,-10,-14c0,0,-5,-4,-12,-4H476V26c0,0,0,-7,-5,-13c0,0,-5,-6,-16,-10c0,0,-11,-3,-30,-5c0,0,-19,-2,-47,-2Z" 
id="f0_2t"
transform="scale(0.001,-0.001)" />

<path d="M514,145c0,0,72,0,121,27c0,0,48,26,78,73c0,0,30,46,42,107c0,0,13,62,13,131c0,0,0,76,-12,139c0,0,-12,62,-41,106c0,0,-29,45,-76,69c0,0,-48,24,-120,24c0,0,-72,0,-120,-27c0,0,-49,-27,-79,-73c0,0,-29,-45,-42,-106c0,0,-12,-61,-12,-129c0,0,0,-79,12,-142c0,0,12,-63,40,-108c0,0,28,-44,76,-68c0,0,48,-23,120,-23ZM508,-17c0,0,-113,0,-196,29c0,0,-84,29,-140,90c0,0,-56,60,-84,154c0,0,-28,93,-28,221c0,0,0,117,29,210c0,0,30,94,89,160c0,0,59,65,146,101c0,0,87,35,202,35c0,0,110,0,194,-29c0,0,84,-30,140,-90c0,0,56,-60,85,-153c0,0,29,-92,29,-217c0,0,0,-120,-30,-215c0,0,-30,-95,-89,-161C855,118,796,52,709,17c0,0,-87,-34,-201,-34Z" 
id="f0_24"
transform="scale(0.001,-0.001)" />

<path d="M299,0V777H162l36,173H508V0Z" 
id="f1_l"
transform="scale(0.001,-0.001)" />

<path d="M403,168c0,0,50,0,85,37c0,0,35,36,35,89c0,0,0,50,-35,85c0,0,-35,36,-85,36c0,0,-47,0,-81,-37c0,0,-35,-37,-35,-89c0,0,0,-47,36,-84c0,0,35,-37,80,-37Zm3,426c0,0,39,0,70,28c0,0,31,29,31,65c0,0,0,46,-28,77c0,0,-29,31,-73,31c0,0,-42,0,-71,-29c0,0,-28,-29,-28,-70c0,0,0,-44,28,-73c0,0,29,-29,71,-29Zm2,-605c0,0,-145,0,-234,75c0,0,-90,76,-90,197c0,0,0,150,140,239c0,0,-59,52,-87,101c0,0,-27,49,-27,112c0,0,0,103,77,179c0,0,77,75,216,75c0,0,136,0,217,-68c0,0,81,-68,81,-180c0,0,0,-130,-115,-217c0,0,140,-90,140,-237c0,0,0,-124,-89,-200c0,0,-88,-76,-229,-76Z" 
id="f1_s"
transform="scale(0.001,-0.001)" />

<path d="M44,-281L425,1053H537L156,-281Z" 
id="f1_j"
transform="scale(0.001,-0.001)" />

<path d="M75,0L400,413c0,0,71,91,101,149c0,0,30,58,30,109c0,0,0,55,-36,91c0,0,-36,36,-91,36c0,0,-63,0,-91,-45c0,0,-28,-46,-34,-142H67c0,0,0,173,102,268c0,0,102,95,253,95c0,0,140,0,229,-82c0,0,89,-82,89,-209c0,0,0,-125,-104,-276L580,324c0,0,-34,-50,-85,-114L468,178H740V0Z" 
id="f1_m"
transform="scale(0.001,-0.001)" />

<path d="M460,-325c0,0,-148,79,-231,172c0,0,-84,93,-123,217c0,0,-39,126,-39,304c0,0,0,178,39,303c0,0,39,125,122,217c0,0,82,93,232,172V997c0,0,-91,-52,-145,-134c0,0,-54,-81,-79,-190c0,0,-25,-109,-25,-305c0,0,0,-194,26,-309c0,0,26,-114,82,-193c0,0,56,-79,141,-128v-63Z" 
id="f2_c"
transform="scale(0.001,-0.001)" />

<path d="M32,0V33L151,52V649L52,668v33H275V52L395,33V0ZM201,850c0,0,-32,0,-56,24c0,0,-24,24,-24,56c0,0,0,34,24,58c0,0,24,24,56,24c0,0,34,0,58,-24c0,0,24,-24,24,-58c0,0,0,-32,-24,-56c0,0,-24,-24,-58,-24Z" 
id="f2_25"
transform="scale(0.001,-0.001)" />

<path d="M49,-325v63c0,0,85,49,140,128c0,0,56,79,83,194c0,0,26,115,26,308c0,0,0,196,-25,305c0,0,-25,109,-79,190c0,0,-54,82,-145,134v63c0,0,149,-80,232,-172c0,0,83,-92,122,-217c0,0,39,-125,39,-303c0,0,0,-177,-39,-303c0,0,-39,-125,-122,-217c0,0,-83,-93,-232,-173Z" 
id="f2_d"
transform="scale(0.001,-0.001)" />

<path d="M44,0V40L172,60V941L44,960v40H471V960L316,941V65H513c0,0,159,0,234,14l46,208h48L828,0Z" 
id="f2_1c"
transform="scale(0.001,-0.001)" />

<path d="M495,413c0,0,0,133,-34,190c0,0,-34,57,-105,57c0,0,-78,0,-119,-63c0,0,-42,-62,-42,-184ZM374,-14c0,0,-163,0,-239,87c0,0,-75,88,-75,283c0,0,0,183,77,273c0,0,76,91,219,91c0,0,269,0,269,-306V353H194V340c0,0,0,-103,23,-160c0,0,22,-57,70,-87c0,0,47,-29,124,-29c0,0,40,0,96,6c0,0,55,7,91,15V43C598,43,562,20,500,3c0,0,-61,-17,-126,-17Z" 
id="f2_21"
transform="scale(0.001,-0.001)" />

<path d="M249,-14c0,0,-71,0,-107,42c0,0,-35,42,-35,119V639H15v33l93,29l76,159h47V701H391V639H231V161c0,0,0,-48,22,-73c0,0,22,-24,57,-24c0,0,44,0,106,12V26C416,26,389,8,340,-2c0,0,-49,-12,-91,-12Z" 
id="f2_2g"
transform="scale(0.001,-0.001)" />

<path d="M284,67c0,0,51,0,88,12c0,0,37,12,74,30V358l-98,-3c0,0,-100,-4,-135,-39c0,0,-35,-35,-35,-117c0,0,0,-132,106,-132ZM233,-14c0,0,-179,0,-179,208c0,0,0,70,27,116c0,0,27,46,87,70c0,0,60,24,173,27l105,3V519c0,0,0,72,-26,107c0,0,-27,34,-82,34c0,0,-75,0,-137,-35L176,538H134V691c0,0,121,26,213,26c0,0,115,0,169,-47c0,0,54,-47,54,-144V52L657,33V0H465L451,70c0,0,-85,-84,-218,-84Z" 
id="f2_1x"
transform="scale(0.001,-0.001)" />

<path d="M58,-234v58c0,0,131,42,131,125c0,0,0,15,-11,27c0,0,-11,12,-38,25C140,1,89,27,89,75c0,0,0,40,25,61c0,0,26,21,65,21c0,0,48,0,77,-34c0,0,30,-34,30,-86c0,0,0,-101,-60,-170c0,0,-59,-69,-168,-101Z" 
id="f2_g"
transform="scale(0.001,-0.001)" />

<path d="M376,50c0,0,103,0,149,80c0,0,46,81,46,240c0,0,0,137,-47,204c0,0,-48,67,-148,67c0,0,-44,0,-87,-7c0,0,-44,-8,-63,-17V62c0,0,63,-12,150,-12Zm3,-64c0,0,-64,0,-141,14c0,0,-78,14,-136,37v971L0,1026v34H226V809c0,0,0,-40,-4,-148c0,0,74,59,188,59c0,0,143,0,219,-87c0,0,77,-87,77,-263c0,0,0,-189,-84,-287c0,0,-84,-97,-243,-97Z" 
id="f2_1y"
transform="scale(0.001,-0.001)" />

<path d="M398,0C398,0,266,0,185,39c0,0,-82,39,-133,124C52,163,0,248,0,342c0,0,0,144,103,243c0,0,103,98,292,98H694V611H387c0,0,-99,0,-166,-32c0,0,-68,-32,-105,-88c0,0,-26,-40,-41,-113H694V304H75c0,0,30,-120,103,-176c0,0,73,-56,210,-56H694V0Z" 
id="f3_40"
transform="scale(0.001,-0.001)" />

<path d="M551,45c0,0,171,0,252,106c0,0,82,107,82,349c0,0,0,241,-82,346c0,0,-82,105,-252,105c0,0,-171,0,-252,-106c0,0,-80,-106,-80,-345c0,0,0,-241,80,-348c0,0,81,-107,252,-107ZM930,-246c0,0,-53,0,-94,17c0,0,-41,18,-83,56c0,0,-41,39,-139,162c0,0,-27,-3,-63,-3c0,0,-239,0,-364,130C187,116,63,247,63,500c0,0,0,511,488,511c0,0,240,0,365,-129c0,0,125,-130,125,-382c0,0,0,-366,-265,-475l37,-45c0,0,66,-82,112,-117c0,0,46,-35,91,-35l61,2v-49c0,0,-17,-7,-64,-17c0,0,-48,-10,-83,-10Z" 
id="f2_1h"
transform="scale(0.001,-0.001)" />

<path d="M174,197l-53,54L377,509L121,764l55,55L431,563L689,819l53,-53L486,509L742,251L689,197L431,454L174,197Z" 
id="f2_4a"
transform="scale(0.001,-0.001)" />

<path d="M399,-14c0,0,-341,0,-341,370c0,0,0,175,87,269c0,0,87,95,249,95c0,0,101,0,220,-23V501H573L541,625c0,0,-62,35,-149,35c0,0,-200,0,-200,-304c0,0,0,-158,61,-225c0,0,61,-67,189,-67c0,0,109,0,189,24V43C631,43,595,16,530,1c0,0,-64,-15,-131,-15Z" 
id="f2_1z"
transform="scale(0.001,-0.001)" />

<path d="M383,64c0,0,85,0,152,28V645c0,0,-67,13,-152,13c0,0,-194,0,-194,-314c0,0,0,-141,48,-211c0,0,48,-69,146,-69ZM342,-14c0,0,-287,0,-287,358c0,0,0,184,82,280c0,0,81,96,239,96c0,0,81,0,163,-18c0,0,-4,25,-4,124v182l-118,18v34H659V52L745,33V0H548l-9,52c0,0,-84,-66,-197,-66Z" 
id="f2_20"
transform="scale(0.001,-0.001)" />

<path d="M278,-14c0,0,-52,0,-115,11c0,0,-63,10,-99,23V193H98L134,95c0,0,56,-50,146,-50c0,0,144,0,144,123c0,0,0,91,-114,130l-66,21c0,0,-75,25,-110,50c0,0,-34,26,-53,63c0,0,-18,36,-18,89c0,0,0,92,63,145c0,0,63,54,170,54c0,0,77,0,193,-23V544H454l-32,81c0,0,-39,35,-124,35c0,0,-61,0,-92,-30c0,0,-32,-30,-32,-80c0,0,0,-43,29,-72c0,0,28,-29,86,-48c0,0,110,-38,144,-55c0,0,33,-17,57,-42c0,0,23,-25,36,-57c0,0,13,-32,13,-79c0,0,0,-104,-66,-158c0,0,-66,-53,-195,-53Z" 
id="f2_2f"
transform="scale(0.001,-0.001)" />

<path d="M289,-14c0,0,-179,0,-179,205V649L20,668v33H233V200c0,0,0,-128,120,-128c0,0,92,0,173,23V649L420,668v33H649V52L738,33V0H533l-6,57C527,57,474,28,405,7c0,0,-69,-21,-116,-21Z" 
id="f2_2h"
transform="scale(0.001,-0.001)" />

<path d="M442,0V33l93,19V504c0,0,0,129,-124,129c0,0,-70,0,-168,-22V52L338,33V0H31V33l88,19v956L15,1026v34H243V756c0,0,0,-77,-5,-112c0,0,54,31,122,53c0,0,68,23,115,23c0,0,91,0,137,-53c0,0,47,-53,47,-154V52L744,33V0Z" 
id="f2_24"
transform="scale(0.001,-0.001)" />

<path d="M325,440l32,245L122,539L75,646l244,74L75,794l47,107L357,756l-32,244H442L407,756L643,898L691,793L443,720L691,647L643,542L407,682L442,440Z" 
id="f2_e"
transform="scale(0.001,-0.001)" />

<path d="M76,316v76H787V316Zm0,306v76H787V622Z" 
id="f2_x"
transform="scale(0.001,-0.001)" />

<path d="M134,0V40L339,60V876L137,804v39l292,166h39V60L672,40V0Z" 
id="f2_l"
transform="scale(0.001,-0.001)" />

<path d="M377,45c0,0,99,0,145,108c0,0,46,109,46,352c0,0,0,240,-45,345c0,0,-46,106,-146,106c0,0,-97,0,-139,-100c0,0,-43,-99,-43,-351c0,0,0,-254,44,-357c0,0,43,-103,138,-103Zm0,-59c0,0,-158,0,-238,132c0,0,-81,133,-81,386c0,0,0,249,81,380c0,0,80,132,244,132c0,0,159,0,241,-130c0,0,82,-130,82,-382c0,0,0,-518,-329,-518Z" 
id="f2_k"
transform="scale(0.001,-0.001)" />

<path d="M872,47L824,88L944,232H91v99h930l84,105l-86,106H91v99H943L824,783l48,41L1237,460V412L872,47Z" 
id="f4_13x"
transform="scale(0.001,-0.001)" />

<path d="M392,152V469H76v77H392V863h77V546H787V469H469V152Z" 
id="f2_f"
transform="scale(0.001,-0.001)" />

<path d="M64,0V34L168,59V639H47v36l121,29v49c0,0,0,155,61,239c0,0,62,84,173,84c0,0,58,0,107,-15V908H472l-33,92c0,0,-26,16,-62,16c0,0,-47,0,-66,-42c0,0,-19,-42,-19,-157V701H478V639H292V59L443,34V0Z" 
id="f2_22"
transform="scale(0.001,-0.001)" />

<path d="M377,45c0,0,99,0,147,73c0,0,47,73,47,237c0,0,0,161,-47,233c0,0,-47,72,-147,72c0,0,-97,0,-141,-69c0,0,-44,-69,-44,-236c0,0,0,-169,45,-240c0,0,44,-70,140,-70Zm0,-59c0,0,-158,0,-238,94c0,0,-81,95,-81,274c0,0,0,178,81,272c0,0,80,94,244,94c0,0,160,0,241,-92c0,0,82,-92,82,-274c0,0,0,-368,-329,-368Z" 
id="f2_2b"
transform="scale(0.001,-0.001)" />

<path d="M31,0V33l88,19V649L31,668v33H235l7,-87c0,0,44,37,121,71c0,0,76,35,121,35h11V530H463l-43,82c0,0,-37,0,-88,-10c0,0,-52,-10,-89,-26V52L363,33V0Z" 
id="f2_2e"
transform="scale(0.001,-0.001)" />

<path d="M305,45c0,0,76,0,141,56c0,0,64,56,101,151c0,0,37,95,37,200c0,0,0,83,-35,129c0,0,-34,46,-92,46c0,0,-44,0,-96,-29c0,0,-51,-29,-97,-75L185,81c0,0,43,-36,120,-36ZM295,-14c0,0,-65,0,-128,16C167,2,104,19,57,48l171,960l-100,18l6,34H358L303,731c0,0,-13,-85,-29,-144c0,0,59,61,122,97c0,0,64,36,116,36c0,0,94,0,150,-67c0,0,56,-67,56,-182c0,0,0,-129,-56,-242C662,229,606,115,509,50c0,0,-98,-64,-214,-64Z" 
id="f5_1y"
transform="scale(0.001,-0.001)" />

<path d="M298,-14c0,0,-120,0,-185,69c0,0,-66,69,-66,191c0,0,0,130,52,237c0,0,52,107,149,172c0,0,97,65,203,65c0,0,53,0,112,-12c0,0,60,-11,99,-27L628,485H587L575,615c0,0,-47,47,-125,47c0,0,-72,0,-134,-53c0,0,-62,-53,-100,-147c0,0,-37,-95,-37,-208c0,0,0,-190,154,-190c0,0,106,0,222,74l22,-32c0,0,-60,-56,-135,-88c0,0,-76,-32,-144,-32Z" 
id="f5_1z"
transform="scale(0.001,-0.001)" />

<path d="M301,78c0,0,41,0,90,27c0,0,49,28,95,77l81,442c0,0,-26,18,-54,27c0,0,-27,10,-67,10c0,0,-70,0,-131,-55c0,0,-61,-55,-99,-152c0,0,-37,-97,-37,-201c0,0,0,-79,33,-127c0,0,33,-48,89,-48ZM245,-14c0,0,-91,0,-145,68c0,0,-54,69,-54,183c0,0,0,128,55,240c0,0,55,112,150,177c0,0,96,66,210,66c0,0,70,0,123,-18c0,0,3,36,51,306l-115,18l6,34H768L589,52L673,33L667,0H454l22,117C476,117,350,-14,245,-14Z" 
id="f5_20"
transform="scale(0.001,-0.001)" />

<path d="M301,78c0,0,85,0,185,104l81,442c0,0,-29,20,-55,28c0,0,-25,8,-62,8c0,0,-75,0,-137,-56c0,0,-62,-56,-98,-152c0,0,-36,-95,-36,-199c0,0,0,-79,33,-127c0,0,33,-48,89,-48ZM245,-14c0,0,-90,0,-145,66c0,0,-54,66,-54,182c0,0,0,131,57,244c0,0,57,114,152,178c0,0,96,64,208,64c0,0,90,0,170,-33l33,26h40L589,52L673,33L667,0H454l22,117C476,117,350,-14,245,-14Z" 
id="f5_1x"
transform="scale(0.001,-0.001)" />

<path d="M0,356v74H784V356Z" 
id="f3_h"
transform="scale(0.001,-0.001)" />

<path d="M62,-123V268c0,0,0,230,56,452c0,0,47,190,134,334c0,0,87,144,204,242c0,0,85,73,194,119l18,-16c0,0,-211,-145,-335,-339c0,0,-98,-156,-149,-374c0,0,-50,-218,-50,-403V-123Z" 
id="f3_4o"
transform="scale(0.001,-0.001)" />

<path d="M617,-123V283c0,0,0,236,-63,459c0,0,-63,223,-188,392c0,0,-108,146,-282,265l17,16c0,0,180,-76,320,-248c0,0,139,-172,204,-417c0,0,64,-245,64,-482V-123Z" 
id="f3_54"
transform="scale(0.001,-0.001)" />

<path d="M945,-20c0,0,47,75,125,153H57v74H1147l108,91c0,0,23,19,95,72c0,0,-134,103,-203,166H57v72H1070c0,0,-78,78,-125,154h85c0,0,88,-107,217,-217c0,0,130,-110,206,-154V349c0,0,-101,-58,-219,-162c0,0,-118,-103,-204,-207Z" 
id="f3_4g"
transform="scale(0.001,-0.001)" />

<path d="M0,214v74H784V214ZM0,494v72H784V494Z" 
id="f3_x"
transform="scale(0.001,-0.001)" />

<path d="M355,0V355H0v72H355V784h72V427H782V355H427V0Z" 
id="f3_f"
transform="scale(0.001,-0.001)" />

<path d="M130,0L252,216H0v70H292L410,496H0v70H450L572,783h82L532,566H783V496H492L377,286H783V216H335L213,0Z" 
id="f3_3f"
transform="scale(0.001,-0.001)" />

<path d="M62,-123V1415h72V-123Z" 
id="f3_4p"
transform="scale(0.001,-0.001)" />

<path d="M617,-123V1415h72V-123Z" 
id="f3_55"
transform="scale(0.001,-0.001)" />

<path d="M650,-123c0,0,-180,75,-319,246c0,0,-140,172,-205,418c0,0,-64,245,-64,481v393h72V1007c0,0,0,-236,63,-459c0,0,63,-223,189,-391c0,0,108,-145,282,-265l-18,-15Z" 
id="f3_4q"
transform="scale(0.001,-0.001)" />

<path d="M101,-123l-17,15c0,0,210,144,334,339c0,0,99,156,149,373c0,0,50,218,50,403v408h72V1022c0,0,0,-230,-56,-451c0,0,-48,-191,-134,-335C499,236,412,92,295,-5c0,0,-84,-73,-194,-118Z" 
id="f3_56"
transform="scale(0.001,-0.001)" />

<path d="M83,0C83,0,48,0,24,24C24,24,0,49,0,83c0,0,0,34,24,58c0,0,24,24,59,24c0,0,34,0,58,-24c0,0,24,-24,24,-58c0,0,0,-34,-24,-59C141,24,117,0,83,0ZM695,0c0,0,-34,0,-58,24c0,0,-25,25,-25,59c0,0,0,34,25,58c0,0,24,24,58,24c0,0,34,0,58,-24c0,0,24,-24,24,-58c0,0,0,-34,-24,-59C753,24,729,0,695,0ZM388,594c0,0,-34,0,-59,23c0,0,-24,24,-24,59c0,0,0,34,24,58c0,0,25,25,59,25c0,0,34,0,58,-25c0,0,24,-24,24,-58c0,0,0,-35,-24,-59c0,0,-24,-23,-58,-23Z" 
id="f3_1s"
transform="scale(0.001,-0.001)" />

<path d="M64,0V141c0,0,64,68,119,123c0,0,119,118,174,185c0,0,56,68,81,140c0,0,26,72,26,165c0,0,0,81,-40,131c0,0,-39,50,-105,50c0,0,-46,0,-74,-10c0,0,-27,-10,-50,-29L163,751H98V979c0,0,59,13,116,23c0,0,58,9,125,9c0,0,165,0,252,-68c0,0,88,-68,88,-193c0,0,0,-78,-26,-142c0,0,-26,-64,-83,-124c0,0,-56,-61,-224,-197c0,0,-64,-52,-139,-119H698V0Z" 
id="f6_m"
transform="scale(0.001,-0.001)" />

<path d="M404,60c0,0,54,0,75,59c0,0,21,59,21,177c0,0,0,106,-29,162c0,0,-29,57,-87,57c0,0,-55,0,-112,-17v-4c0,0,0,-434,132,-434Zm3,-74c0,0,-172,0,-263,130c0,0,-92,130,-92,378c0,0,0,161,48,278c0,0,48,117,135,178c0,0,87,61,199,61c0,0,117,0,225,-32V751H594L562,896c0,0,-52,39,-113,39c0,0,-75,0,-121,-95c0,0,-47,-96,-55,-267c0,0,81,35,161,35c0,0,137,0,211,-77c0,0,74,-77,74,-220c0,0,0,-158,-81,-242c0,0,-81,-83,-231,-83Z" 
id="f6_q"
transform="scale(0.001,-0.001)" />

<path d="M191,-20c0,0,-51,0,-88,34c0,0,-36,36,-36,88c0,0,0,52,36,88c0,0,36,36,88,36c0,0,51,0,88,-36c0,0,36,-36,36,-88c0,0,0,-51,-36,-87c0,0,-36,-35,-88,-35Z" 
id="f6_i"
transform="scale(0.001,-0.001)" />

<path d="M410,-14c0,0,-80,0,-162,14c0,0,-81,14,-144,38V270h48L178,134c0,0,28,-35,95,-62c0,0,68,-27,134,-27c0,0,104,0,163,53c0,0,58,54,58,148c0,0,0,54,-23,89c0,0,-22,35,-59,59c0,0,-37,24,-84,41c0,0,-47,17,-97,34c0,0,-49,17,-96,38c0,0,-47,21,-84,53c0,0,-37,32,-60,79c0,0,-23,48,-23,117c0,0,0,119,90,187c0,0,89,68,248,68c0,0,121,0,263,-32V771H654L628,893c0,0,-76,55,-188,55c0,0,-100,0,-156,-40c0,0,-56,-41,-56,-112c0,0,0,-49,22,-81c0,0,23,-32,60,-55c0,0,37,-22,84,-39c0,0,48,-16,97,-34c0,0,50,-17,97,-39c0,0,48,-22,85,-56c0,0,36,-34,59,-83c0,0,23,-49,23,-120c0,0,0,-145,-89,-224c0,0,-89,-79,-256,-79Z" 
id="f2_1j"
transform="scale(0.001,-0.001)" />

<path d="M327,-14L84,649L1,668v33H335V668L219,648L385,174L554,632h63L786,171L944,649L830,668v33h267V668l-78,-16L784,-14H726L553,448L382,-14Z" 
id="f2_2j"
transform="scale(0.001,-0.001)" />

<path d="M31,0V33L150,52v956L31,1026v34H274V52L394,33V0Z" 
id="f2_28"
transform="scale(0.001,-0.001)" />

<path d="M383,64c0,0,44,0,87,7c0,0,43,7,65,17V645c0,0,-67,13,-152,13c0,0,-194,0,-194,-309c0,0,0,-143,48,-214c0,0,47,-71,146,-71Zm56,-389v35l96,18V-77c0,0,0,73,7,124c0,0,-79,-61,-200,-61c0,0,-287,0,-287,362c0,0,0,180,81,276c0,0,81,96,237,96c0,0,84,0,166,-18l67,33h53V-272l77,-18v-35Z" 
id="f2_2d"
transform="scale(0.001,-0.001)" />

<path d="M439,0V33l93,19V500c0,0,0,62,-30,97c0,0,-31,36,-94,36c0,0,-67,0,-165,-22V52L338,33V0H35V33l84,19V649L35,668v33H235l7,-57c0,0,57,33,122,54c0,0,65,22,108,22c0,0,91,0,137,-53c0,0,47,-53,47,-154V52L741,33V0Z" 
id="f2_2a"
transform="scale(0.001,-0.001)" />

<path d="M359,-270c0,0,124,0,192,46c0,0,67,47,67,129c0,0,0,43,-26,67c0,0,-26,24,-79,24H242c0,0,-32,-27,-51,-69c0,0,-20,-41,-20,-77c0,0,0,-64,46,-92c0,0,46,-28,142,-28Zm11,561c0,0,81,0,115,47c0,0,34,47,34,141c0,0,0,100,-35,142c0,0,-35,42,-113,42c0,0,-78,0,-114,-43c0,0,-37,-42,-37,-141c0,0,0,-98,36,-143c0,0,36,-45,114,-45ZM359,-329c0,0,-143,0,-218,44c0,0,-75,43,-75,125c0,0,0,39,27,78c0,0,26,38,98,89c0,0,-43,14,-72,48c0,0,-29,35,-29,74L208,262c0,0,-118,55,-118,217c0,0,0,115,73,178c0,0,73,63,211,63c0,0,28,0,71,-6c0,0,44,-6,67,-13l165,83l26,-32L599,644c0,0,50,-56,50,-165c0,0,0,-120,-72,-182c0,0,-73,-62,-208,-62c0,0,-62,0,-114,11L208,148c0,0,2,-13,29,-24c0,0,27,-12,67,-12H512c0,0,113,0,168,-49c0,0,55,-49,55,-134c0,0,0,-79,-44,-137c0,0,-43,-58,-128,-90c0,0,-84,-31,-204,-31Z" 
id="f2_23"
transform="scale(0.001,-0.001)" />

<path d="M360,-14L72,649L0,668v33H327V668L216,648L420,164L615,649L504,668v33H764V668L697,652L416,-14Z" 
id="f2_2i"
transform="scale(0.001,-0.001)" />

<path d="M431,0V33L535,52V499c0,0,0,62,-32,96c0,0,-32,33,-95,33c0,0,-66,0,-163,-22V52L350,33V0H32V33l89,19V649L32,668v33H237l6,-57c0,0,56,32,119,54c0,0,62,22,110,22c0,0,52,0,95,-20c0,0,44,-19,66,-62c0,0,57,32,134,57c0,0,77,25,128,25c0,0,179,0,179,-207V52l90,-19V0H846V33L950,52V499c0,0,0,129,-119,129c0,0,-19,0,-45,-3c0,0,-26,-3,-52,-7c0,0,-25,-4,-49,-8c0,0,-23,-5,-39,-8c0,0,13,-41,13,-89V52L764,33V0Z" 
id="f2_29"
transform="scale(0.001,-0.001)" />

<path d="M191,-20c0,0,-39,0,-65,25c0,0,-25,27,-25,64c0,0,0,38,26,64c0,0,26,26,64,26c0,0,38,0,64,-26c0,0,26,-26,26,-64c0,0,0,-37,-25,-64c0,0,-26,-25,-65,-25Z" 
id="f2_i"
transform="scale(0.001,-0.001)" />

<path d="M410,-14c0,0,-86,0,-175,14C235,0,145,14,81,38V307h66L181,146c0,0,31,-37,94,-62c0,0,64,-24,132,-24c0,0,214,0,214,177c0,0,0,55,-41,93c0,0,-41,38,-128,68c0,0,-128,42,-185,68c0,0,-56,27,-95,63c0,0,-38,36,-62,87c0,0,-23,51,-23,125c0,0,0,132,90,201c0,0,90,69,263,69c0,0,125,0,278,-32V741H651L618,878c0,0,-76,56,-178,56c0,0,-92,0,-141,-34c0,0,-49,-34,-49,-104c0,0,0,-50,41,-86c0,0,41,-35,128,-63c0,0,171,-56,235,-97c0,0,64,-41,97,-103c0,0,34,-61,34,-143c0,0,0,-318,-375,-318Z" 
id="f6_1j"
transform="scale(0.001,-0.001)" />

<path d="M379,60c0,0,59,0,84,64c0,0,24,65,24,231c0,0,0,164,-24,227c0,0,-24,63,-84,63c0,0,-57,0,-80,-60c0,0,-22,-61,-22,-230c0,0,0,-173,23,-234c0,0,22,-61,79,-61Zm-2,-74c0,0,-161,0,-240,91c0,0,-79,91,-79,277c0,0,0,186,80,276c0,0,81,90,245,90c0,0,167,0,245,-93c0,0,78,-93,78,-273c0,0,0,-188,-81,-278c0,0,-81,-90,-248,-90Z" 
id="f6_2b"
transform="scale(0.001,-0.001)" />

<path d="M30,0V49l76,18V992l-72,18v50H322V67L398,49V0Z" 
id="f6_28"
transform="scale(0.001,-0.001)" />

<path d="M287,-18c0,0,-194,0,-194,206V634L23,652v49H309V217c0,0,0,-63,26,-98c0,0,27,-35,76,-35c0,0,57,0,113,25V634l-64,18v49H740V67L809,49V0H536L526,61L475,35c0,0,-104,-53,-188,-53Z" 
id="f6_2h"
transform="scale(0.001,-0.001)" />

<path d="M327,-14c0,0,-101,0,-156,45c0,0,-55,45,-55,131V624H25v48l108,29l87,159H332V701H480V624H332V176c0,0,0,-49,20,-73c0,0,20,-25,53,-25c0,0,40,0,97,12V26c0,0,-22,-15,-76,-27c0,0,-55,-13,-99,-13Z" 
id="f6_2g"
transform="scale(0.001,-0.001)" />

<path d="M34,0V49l76,18V634L38,652v49H325V67L402,49V0ZM217,831c0,0,-48,0,-81,33c0,0,-34,33,-34,82c0,0,0,48,34,81c0,0,34,33,81,33c0,0,48,0,81,-33c0,0,33,-33,33,-81c0,0,0,-47,-33,-81c0,0,-32,-34,-81,-34Z" 
id="f6_25"
transform="scale(0.001,-0.001)" />

<path d="M41,0V49l69,18V634L41,652v49H313l11,-61l50,26c0,0,105,54,188,54c0,0,194,0,194,-207V67L827,49V0H478V49l63,18V484c0,0,0,63,-27,98c0,0,-26,35,-75,35c0,0,-57,0,-114,-25V67L389,49V0Z" 
id="f6_2a"
transform="scale(0.001,-0.001)" />

<path d="M248,-20c0,0,-52,0,-87,34c0,0,-36,36,-36,88c0,0,0,52,36,88c0,0,35,36,87,36c0,0,52,0,88,-36c0,0,36,-36,36,-88c0,0,0,-51,-36,-87c0,0,-35,-35,-88,-35Zm0,488c0,0,-52,0,-87,36c0,0,-36,36,-36,88c0,0,0,52,35,88c0,0,35,36,88,36c0,0,53,0,89,-36c0,0,35,-37,35,-88c0,0,0,-51,-36,-87c0,0,-35,-37,-88,-37Z" 
id="f6_u"
transform="scale(0.001,-0.001)" />

<path d="M55,0V40L184,60V941L55,960v40H455V960L327,941V60L455,40V0Z" 
id="f2_19"
transform="scale(0.001,-0.001)" />

<path d="M13,0V34L95,46L325,350L122,649L40,668v33H357V668L264,648L399,446L554,649l-96,19v33H710V668L630,652L433,397L663,50L745,34V0H427V34l94,17L359,299L169,50L266,34V0Z" 
id="f2_2k"
transform="scale(0.001,-0.001)" />

<path d="M536,-22L130,941L17,960v40H421V960L287,941L590,205L892,941L761,960v40h325V960L976,941L574,-22Z" 
id="f2_1m"
transform="scale(0.001,-0.001)" />

<path d="M67,0V109L206,235c0,0,133,118,196,190c0,0,63,72,90,149c0,0,27,77,27,177c0,0,0,97,-44,148c0,0,-44,50,-144,50c0,0,-39,0,-81,-10c0,0,-42,-11,-74,-29L150,787H101V980c0,0,135,32,230,32c0,0,164,0,247,-68c0,0,82,-69,82,-193c0,0,0,-84,-32,-158c0,0,-33,-75,-100,-148c0,0,-67,-74,-222,-206c0,0,-67,-57,-141,-125H680V0Z" 
id="f2_m"
transform="scale(0.001,-0.001)" />

<path d="M395,-22L175,941L80,960l7,40H455l-7,-40L322,941L484,211L885,941L771,960l9,40h300l-7,-40L975,941L433,-22Z" 
id="f5_1m"
transform="scale(0.001,-0.001)" />

<path d="M55,0L232,1008l-88,18l6,34H365L286,615L274,558c0,0,59,79,128,120c0,0,68,42,134,42c0,0,75,0,113,-41c0,0,38,-41,38,-117c0,0,0,-10,-3,-32c0,0,-3,-21,-81,-478L700,34L695,0H470l76,434c0,0,17,94,17,123c0,0,0,34,-18,55c0,0,-18,21,-56,21c0,0,-56,0,-121,-47c0,0,-65,-47,-107,-114L178,0Z" 
id="f5_24"
transform="scale(0.001,-0.001)" />

<path d="M-6,0c0,0,-12,10,-12,32c0,0,0,21,23,51c0,0,23,31,79,82L287,354L159,649L79,668l6,33H270L378,434l93,88c0,0,47,46,67,72c0,0,19,26,19,44c0,0,0,8,-6,13c0,0,-7,6,-38,17l6,33H651c0,0,16,-12,16,-32c0,0,0,-44,-103,-142L404,377L548,49L634,33L628,0H437L313,298L185,176c0,0,-41,-40,-60,-65c0,0,-19,-26,-19,-48c0,0,0,-21,31,-29L131,0Z" 
id="f5_2k"
transform="scale(0.001,-0.001)" />

<path d="M476,327V830h-4L114,327ZM476,0V220H30v99l488,686h86V327H740V220H604V0Z" 
id="f2_o"
transform="scale(0.001,-0.001)" />

<path d="M311,-14c0,0,-94,0,-169,18C142,4,67,23,18,55L57,277h48l1,-143c0,0,25,-37,84,-63c0,0,59,-26,126,-26c0,0,122,0,188,58c0,0,66,58,66,162c0,0,0,40,-18,70c0,0,-18,30,-48,54c0,0,-30,23,-67,44c0,0,-38,20,-77,40c0,0,-40,21,-78,44c0,0,-37,24,-67,55c0,0,-30,31,-48,71c0,0,-18,40,-18,94c0,0,0,133,90,204c0,0,91,70,259,70c0,0,128,0,241,-28L703,774H654l-4,128c0,0,-23,20,-66,33c0,0,-42,13,-98,13c0,0,-99,0,-153,-48c0,0,-53,-48,-53,-136c0,0,0,-47,33,-85c0,0,34,-39,100,-73c0,0,102,-53,146,-80c0,0,45,-28,75,-59c0,0,31,-31,49,-72c0,0,18,-40,18,-92c0,0,0,-154,-100,-236c0,0,-100,-81,-290,-81Z" 
id="f5_1j"
transform="scale(0.001,-0.001)" />

<path d="M529,65c0,0,183,0,270,108c0,0,87,108,87,334c0,0,0,210,-113,318c0,0,-113,108,-322,108H316V71c0,0,90,-6,213,-6Zm0,-67L172,0H44V40L172,60V941L44,960v40H498c0,0,277,0,411,-123c0,0,133,-124,133,-371c0,0,0,-251,-129,-380C913,126,785,-2,529,-2Z" 
id="f2_14"
transform="scale(0.001,-0.001)" />

<path d="M350,-14c0,0,-142,0,-269,31L73,228h49L156,87c0,0,29,-16,82,-28c0,0,54,-12,100,-12c0,0,117,0,173,54c0,0,56,53,56,178c0,0,0,99,-52,150c0,0,-51,51,-159,56l-107,6v61l107,7c0,0,84,5,124,52c0,0,41,48,41,145c0,0,0,101,-44,147c0,0,-44,45,-139,45c0,0,-40,0,-83,-10c0,0,-43,-11,-76,-29L153,786H104V979c0,0,74,19,127,26c0,0,54,6,107,6c0,0,321,0,321,-246c0,0,0,-104,-57,-165c0,0,-57,-62,-162,-77c0,0,136,-16,200,-78c0,0,64,-62,64,-173c0,0,0,-135,-92,-211c0,0,-93,-75,-262,-75Z" 
id="f2_n"
transform="scale(0.001,-0.001)" />

<path d="M377,45c0,0,100,0,147,52c0,0,47,52,47,174c0,0,0,119,-46,173c0,0,-47,54,-148,54c0,0,-98,0,-141,-51c0,0,-44,-51,-44,-176c0,0,0,-126,44,-176c0,0,44,-50,141,-50Zm2,518c0,0,84,0,123,46c0,0,39,46,39,148c0,0,0,102,-40,151c0,0,-41,48,-122,48c0,0,-79,0,-118,-47c0,0,-38,-47,-38,-152c0,0,0,-104,37,-149c0,0,38,-45,119,-45ZM377,-14c0,0,-319,0,-319,285c0,0,0,99,48,164c0,0,48,66,129,96c0,0,-65,30,-106,87c0,0,-40,56,-40,139c0,0,0,123,75,191c0,0,76,68,219,68c0,0,139,0,216,-67c0,0,76,-68,76,-192c0,0,0,-82,-40,-139c0,0,-40,-57,-108,-87c0,0,85,-31,132,-98c0,0,47,-67,47,-162c0,0,0,-142,-80,-214c0,0,-80,-71,-249,-71Z" 
id="f2_s"
transform="scale(0.001,-0.001)" />

<path d="M868,0L251,900V60L385,40V0H44V40L172,60V941L44,960v40H347L862,259V941L727,960v40h341V960L940,941V0Z" 
id="f2_1e"
transform="scale(0.001,-0.001)" />

<path d="M0,-14L351,1007h73L75,-14Z" 
id="f2_j"
transform="scale(0.001,-0.001)" />

<path d="M45,0V81L673,391L45,704v80L795,412V374L45,0Z" 
id="f3_y"
transform="scale(0.001,-0.001)" />

<path d="M160,0L581,834H186L152,715H87v285H727V941L338,0Z" 
id="f6_r"
transform="scale(0.001,-0.001)" />

<path d="M557,-14c0,0,-199,0,-298,89c0,0,-99,90,-99,255V941L32,960v40H432V960L304,941V341c0,0,0,-273,264,-273c0,0,144,0,220,68c0,0,77,68,77,202V941L730,960v40h341V960L943,941V344c0,0,0,-180,-99,-269c0,0,-99,-89,-287,-89Z" 
id="f2_1l"
transform="scale(0.001,-0.001)" />

<path d="M681,416L504,902L333,416ZM669,0V40L803,60L704,348H310L210,60L344,40V0H15V40L128,60l341,949H611L965,60L1092,40V0Z" 
id="f2_11"
transform="scale(0.001,-0.001)" />

<path d="M536,63c0,0,127,0,191,54c0,0,63,54,63,168c0,0,0,105,-70,154c0,0,-70,49,-225,49H316V67c0,0,103,-4,220,-4ZM480,555c0,0,121,0,178,48c0,0,57,48,57,155c0,0,0,91,-58,133c0,0,-57,42,-186,42H316V555ZM554,-4L235,0H44V40L172,60V941L44,960v40H501c0,0,191,0,279,-56c0,0,88,-56,88,-179c0,0,0,-88,-55,-149c0,0,-54,-62,-151,-83c0,0,135,-14,209,-79c0,0,73,-65,73,-166c0,0,0,-144,-99,-219C845,69,745,-4,554,-4Z" 
id="f2_12"
transform="scale(0.001,-0.001)" />

<path d="M577,-14c0,0,-243,0,-379,132C198,118,63,250,63,488c0,0,0,258,130,391c0,0,131,132,387,132c0,0,156,0,335,-38l5,-218H871L848,884c0,0,-52,32,-121,50c0,0,-69,17,-141,17c0,0,-191,0,-279,-112c0,0,-88,-113,-88,-349c0,0,0,-217,92,-332c0,0,92,-115,268,-115c0,0,85,0,160,20c0,0,76,21,120,55l27,149h49L930,32c0,0,-164,-46,-353,-46Z" 
id="f2_13"
transform="scale(0.001,-0.001)" />

<path d="M410,45c0,0,90,0,130,58c0,0,40,59,40,193c0,0,0,122,-38,177c0,0,-38,54,-122,54c0,0,-102,0,-217,-37c0,0,0,-227,51,-336c0,0,52,-109,156,-109Zm3,-59c0,0,-169,0,-258,131c0,0,-89,131,-89,377c0,0,0,161,47,278c0,0,47,117,131,178c0,0,85,61,196,61c0,0,109,0,217,-26V813H608L582,915c0,0,-25,13,-67,23c0,0,-41,10,-75,10c0,0,-109,0,-170,-105c0,0,-60,-106,-66,-308c0,0,121,63,244,63c0,0,132,0,201,-74c0,0,69,-74,69,-214c0,0,0,-156,-78,-240c0,0,-79,-84,-227,-84Z" 
id="f2_q"
transform="scale(0.001,-0.001)" />

<path d="M595,60c0,0,141,0,206,102c0,0,65,102,65,340c0,0,0,236,-65,335c0,0,-65,100,-206,100c0,0,-142,0,-207,-100c0,0,-66,-99,-66,-335c0,0,0,-239,66,-340c0,0,65,-102,207,-102Zm0,-74c0,0,-253,0,-387,130C208,116,75,246,75,501c0,0,0,510,520,510c0,0,256,0,387,-129c0,0,132,-130,132,-381c0,0,0,-254,-133,-385C981,116,848,-14,595,-14Z" 
id="f6_1f"
transform="scale(0.001,-0.001)" />

<path d="M498,506c0,0,115,0,164,47c0,0,48,48,48,166c0,0,0,112,-46,156c0,0,-46,43,-169,43H390V506ZM793,0L514,423H390V74L518,54V0H36V54L154,74V926L26,945v55H504c0,0,221,0,330,-68c0,0,109,-68,109,-212c0,0,0,-215,-201,-276L1009,74L1117,54V0Z" 
id="f6_1i"
transform="scale(0.001,-0.001)" />

<path d="M54,0V40L172,60V941L44,960v40H794V760H745L721,922c0,0,-83,11,-241,11H316V516H611l23,120h46V328H634L611,449H316V60L483,40V0Z" 
id="f2_16"
transform="scale(0.001,-0.001)" />

<path d="M382,45c0,0,188,0,188,314c0,0,0,143,-47,213c0,0,-46,69,-141,69c0,0,-87,0,-146,-24V58c0,0,67,-13,146,-13ZM25,-325v35l88,18V649L34,668v33H231l1,-41c0,0,31,27,84,43c0,0,53,17,107,17c0,0,134,0,208,-94c0,0,73,-93,73,-267c0,0,0,-178,-80,-276c0,0,-80,-97,-232,-97c0,0,-84,0,-160,16c0,0,4,-53,4,-84V-272l123,-18v-35Z" 
id="f2_2c"
transform="scale(0.001,-0.001)" />

<path d="M148,-329c0,0,-58,0,-114,13v151H69l24,-71c0,0,23,-17,64,-17c0,0,39,0,72,22c0,0,33,23,60,67c0,0,27,44,68,157L90,649L19,668v33H344V668L233,648L423,158L606,649L497,668v33H758V668L685,652L411,-43c0,0,-48,-124,-84,-177c0,0,-36,-54,-79,-82c0,0,-44,-27,-100,-27Z" 
id="f2_2l"
transform="scale(0.001,-0.001)" />

<path d="M-12,338v55H777V338Z" 
id="f7_4y"
transform="scale(0.001,-0.001)" />


</defs>
</svg>