<?xml version="1.0" encoding="UTF-8" standalone="no"?>
<!DOCTYPE svg PUBLIC "-//W3C//DTD SVG 1.1//EN"
"http://www.w3.org/Graphics/SVG/1.1/DTD/svg11.dtd">
<svg viewBox="0 0 909 1286" version="1.1" xmlns="http://www.w3.org/2000/svg" xmlns:xlink="http://www.w3.org/1999/xlink">
<defs>
<clipPath id="c0_11"><path d="M516.5,130.3V109.4H622.2v20.9Z" /></clipPath>
<clipPath id="c1_11"><path d="M453.8,144.2V123.7h36.6v20.5Z" /></clipPath>
<clipPath id="c2_11"><path d="M434,129.9V107.6H622.2v22.3Z" /></clipPath>
<clipPath id="c3_11"><path d="M144.1,218.5V191.7H150v26.8Z" /></clipPath>
<clipPath id="c4_11"><path d="M162.1,218.5V191.7h5.3v26.8Z" /></clipPath>
<clipPath id="c5_11"><path d="M139.5,216.3V195.2H324.7v21.1Z" /></clipPath>
<clipPath id="c6_11"><path d="M172.2,215.9V193.2H324.7v22.7Z" /></clipPath>
<clipPath id="c7_11"><path d="M144.1,264.7V237.9H150v26.8Z" /></clipPath>
<clipPath id="c8_11"><path d="M162.1,264.7V237.9h5.3v26.8Z" /></clipPath>
<clipPath id="c9_11"><path d="M185.9,264.7V237.9h5.9v26.8Z" /></clipPath>
<clipPath id="c10_11"><path d="M228.1,264.7V237.9h5.3v26.8Z" /></clipPath>
<clipPath id="c11_11"><path d="M236,264.7V237.9h5.8v26.8Z" /></clipPath>
<clipPath id="c12_11"><path d="M279,264.7V237.9h5.3v26.8Z" /></clipPath>
<clipPath id="c13_11"><path d="M286.7,264.7V237.9h5.9v26.8Z" /></clipPath>
<clipPath id="c14_11"><path d="M330,264.7V237.9h5.3v26.8Z" /></clipPath>
<clipPath id="c15_11"><path d="M139.5,262.3V241.2H338.4v21.1Z" /></clipPath>
<clipPath id="c16_11"><path d="M172.2,261.9V239.2H338.4v22.7Z" /></clipPath>
<clipPath id="c17_11"><path d="M139.5,310.5V283.7h6.1v26.8Z" /></clipPath>
<clipPath id="c18_11"><path d="M157.7,310.5V283.7H163v26.8Z" /></clipPath>
<clipPath id="c19_11"><path d="M125,308.3V287.2h41.6v21.1Z" /></clipPath>
<clipPath id="c20_11"><path d="M156.9,356.7V329.9h5.9v26.8Z" /></clipPath>
<clipPath id="c21_11"><path d="M175.1,356.7V329.9h5.3v26.8Z" /></clipPath>
<clipPath id="c22_11"><path d="M152.4,354.3V333.2h59v21.1Z" /></clipPath>
<clipPath id="c23_11"><path d="M185.2,354V331.2h26.2V354Z" /></clipPath>
<clipPath id="c24_11"><path d="M332.9,422V402.9h8.5V422Z" /></clipPath>
<clipPath id="c25_11"><path d="M444,422V402.2h8.5V422Z" /></clipPath>
<clipPath id="c26_11"><path d="M279,394.1V377.2H557.3v16.9Z" /></clipPath>
<clipPath id="c27_11"><path d="M510.6,397.4V377.2H570v20.2Z" /></clipPath>
<clipPath id="c28_11"><path d="M167.4,464.9V438.1h5.8v26.8Z" /></clipPath>
<clipPath id="c29_11"><path d="M210.3,464.9V438.1h5.3v26.8Z" /></clipPath>
<clipPath id="c30_11"><path d="M235.2,464.9V438.1h5.9v26.8Z" /></clipPath>
<clipPath id="c31_11"><path d="M272.8,464.9V438.1h5.3v26.8Z" /></clipPath>
<clipPath id="c32_11"><path d="M185,462.7V441.6h97.3v21.1Z" /></clipPath>
<clipPath id="c33_11"><path d="M121.9,462.3V439.6H282.3v22.7Z" /></clipPath>
<clipPath id="c34_11"><path d="M139.5,510.9V484.1h6.1v26.8Z" /></clipPath>
<clipPath id="c35_11"><path d="M157.7,510.9V484.1H163v26.8Z" /></clipPath>
<clipPath id="c36_11"><path d="M125,508.7V487.6h41.6v21.1Z" /></clipPath>
<clipPath id="c37_11"><path d="M348.2,510.9V484.1H354v26.8Z" /></clipPath>
<clipPath id="c38_11"><path d="M366.3,510.9V484.1h5.3v26.8Z" /></clipPath>
<clipPath id="c39_11"><path d="M343.6,508.7V487.6h59v21.1Z" /></clipPath>
<clipPath id="c40_11"><path d="M376,508.3V485.6h26.6v22.7Z" /></clipPath>
<clipPath id="c41_11"><path d="M167.4,557.1V530.3h5.8v26.8Z" /></clipPath>
<clipPath id="c42_11"><path d="M224.6,557.1V530.3h5.3v26.8Z" /></clipPath>
<clipPath id="c43_11"><path d="M249.5,557.1V530.3h5.9v26.8Z" /></clipPath>
<clipPath id="c44_11"><path d="M283.1,557.1V530.3h5.3v26.8Z" /></clipPath>
<clipPath id="c45_11"><path d="M198.2,554.7V533.6h93.3v21.1Z" /></clipPath>
<clipPath id="c46_11"><path d="M329.3,660.9V640.3H350v20.6Z" /></clipPath>
<clipPath id="c47_11"><path d="M233.6,676.3V655.7H350v20.6Z" /></clipPath>
<clipPath id="c48_11"><path d="M187.9,750.9V730.3H355.7v20.6Z" /></clipPath>
<clipPath id="c49_11"><path d="M152.5,736.6V716H355.7v20.6Z" /></clipPath>
<clipPath id="c50_11"><path d="M183,789.4V768.8h32.4v20.6Z" /></clipPath>
<clipPath id="c51_11"><path d="M194.3,788.8V768.3h21.1v20.5Z" /></clipPath>
<clipPath id="c52_11"><path d="M185.4,824.9V804.6h51.8v20.3Z" /></clipPath>
<clipPath id="c53_11"><path d="M205.5,824.4V804h31.7v20.4Z" /></clipPath>
<clipPath id="c54_11"><path d="M168.1,891.3V870.8H277.2v20.5Z" /></clipPath>
<clipPath id="c55_11"><path d="M132.9,877V856.5H277.2V877Z" /></clipPath>
<clipPath id="c56_11"><path d="M120.6,990.9V970.3H324.1v20.6Z" /></clipPath>
<clipPath id="c57_11"><path d="M234.9,965.2V944.7h89.2v20.5Z" /></clipPath>
<clipPath id="c58_11"><path d="M293.2,964.6V943.4h30.9v21.2Z" /></clipPath>
<clipPath id="c59_11"><path d="M135.8,990.3v-22H324.1v22Z" /></clipPath>
<clipPath id="c60_11"><path d="M240,1040.2v-20.9H406.8v20.9Z" /></clipPath>
<clipPath id="c61_11"><path d="M228.1,1040.2v-20.9H406.8v20.9Z" /></clipPath>
<clipPath id="c62_11"><path d="M262.5,1039.8v-22.4H406.8v22.4Z" /></clipPath>
<clipPath id="c63_11"><path d="M156.9,1111.1v-20.9H349.4v20.9Z" /></clipPath>
<clipPath id="c64_11"><path d="M116.8,1110.8v-22.4H349.4v22.4Z" /></clipPath>
<clipPath id="c65_11"><path d="M131.8,1151.3v-20.9H347.1v20.9Z" /></clipPath>
<clipPath id="c66_11"><path d="M138.8,1151.3v-20.9H347.1v20.9Z" /></clipPath>
<clipPath id="c67_11"><path d="M119.5,1150.9v-22.4H347.1v22.4Z" /></clipPath>
<clipPath id="c68_11"><path d="M190.5,1187.8v-20.4H360.8v20.4Z" /></clipPath>
<clipPath id="c69_11"><path d="M116.8,1187.2v-20.3h244v20.3Z" /></clipPath>
<style type="text/css"><![CDATA[
.g0_11{
fill: none;
stroke: #FFFFFF;
stroke-width: 0.77000004;
stroke-linecap: round;
stroke-linejoin: round;
}
.g1_11{
fill: none;
stroke: #000000;
stroke-width: 0.9075001;
stroke-linecap: round;
stroke-linejoin: round;
}
.g2_11{
fill: #373435;
}
.g3_11{
}
.g4_11{
fill: none;
stroke: #000000;
stroke-width: 0.9029167;
stroke-linecap: round;
stroke-linejoin: round;
}
]]></style>
</defs>
<path d="M512.4,487l6.2,9.8l5.4,8.4l4.1,8.8l2,8.4l1.1,7.7l1.3,6.7l-1.3,6.7l-2.1,6.7l-2,4.8l-3.1,5.7l-3.1,4.9l-3.3,3.8l-7.2,6.7l-6.5,4.6l-11.5,6.9l-10.3,6.7L470.6,600L459,606.6l-6.4,3.9l-6.2,4.9L441,620l-5.1,5.9l-4.1,6.7l-3.4,7.4l-1,9.7l-1,10.6l-6.2,-10.6l-5.4,-10.5l-3.1,-10.5l-1,-10.5v-4.9l1,-4.9l1.1,-4.6l2,-3.8l2.1,-4.9l3.3,-3.9l3.1,-3.6l4.1,-3.8l17,-11.6L461,562.7L475.7,554l13.6,-7.7l6.4,-4.6l5.2,-6.7l4.1,-6.7l3.3,-7.7l2.1,-8.7l2,-7.7V487m30.3,38.3l7.5,9.7l5.1,9.5l4.4,9.5l2,7.7l1.1,8.5l1,6.9l-1,7.5l-2.1,5.9l-2,5.6l-3.4,5.7l-3.1,4.8l-3,4.9l-7.5,6.7l-7.2,4.6L524,629.5l-8.5,5.9L505,642l-14.7,8.5l-8.2,5.9l-7.4,5.7l-6.2,6.6l-6.4,7.7l-4.1,6.7l-4.4,7.7l-3.1,7.7l-2,6.7l-3.1,-12.6l-2.1,-11.3L441,669.8V659.2l1.1,-8.7l2.3,-8.5l3,-4.8l2.1,-3.9l4.1,-3.8l4.4,-3.6l16.7,-12.6l16.7,-9.5L506,595.1l14.9,-8.5l6.2,-4.9l5.4,-6.6l4.1,-6.7l4.1,-7.7l2,-7.7l2.3,-8.5V535l-2.3,-9.7" class="g0_11" />
<g fill="#000000" >
<use xlink:href="#f0_16" transform="matrix(12,0,0,12,121.9,125.7)" />
<use xlink:href="#f0_25" transform="matrix(12,0,0,12,131.5,125.7)" />
<use xlink:href="#f0_2a" transform="matrix(12,0,0,12,136.2,125.7)" />
<use xlink:href="#f0_20" transform="matrix(12,0,0,12,144.8,125.7)" />
<use xlink:href="#f0_2g" transform="matrix(12,0,0,12,156.6,125.7)" />
<use xlink:href="#f0_24" transform="matrix(12,0,0,12,161.3,125.7)" />
<use xlink:href="#f0_21" transform="matrix(12,0,0,12,170,125.7)" />
<use xlink:href="#f0_25" transform="matrix(12,0,0,12,180.6,125.7)" />
<use xlink:href="#f0_2a" transform="matrix(12,0,0,12,185.4,125.7)" />
<use xlink:href="#f0_2g" transform="matrix(12,0,0,12,194,125.7)" />
<use xlink:href="#f0_21" transform="matrix(12,0,0,12,198.7,125.7)" />
<use xlink:href="#f0_2e" transform="matrix(12,0,0,12,206.3,125.7)" />
<use xlink:href="#f0_2i" transform="matrix(12,0,0,12,211.8,125.7)" />
<use xlink:href="#f0_1x" transform="matrix(12,0,0,12,220.6,125.7)" />
<use xlink:href="#f0_28" transform="matrix(12,0,0,12,228.1,125.7)" />
<use xlink:href="#f0_2f" transform="matrix(12,0,0,12,232.8,125.7)" />
<use xlink:href="#f0_25" transform="matrix(12,0,0,12,242.6,125.7)" />
<use xlink:href="#f0_2a" transform="matrix(12,0,0,12,247.1,125.7)" />
<use xlink:href="#f0_2j" transform="matrix(12,0,0,12,258.7,125.7)" />
<use xlink:href="#f0_24" transform="matrix(12,0,0,12,271.5,125.7)" />
<use xlink:href="#f0_25" transform="matrix(12,0,0,12,280.1,125.7)" />
<use xlink:href="#f0_1z" transform="matrix(12,0,0,12,284.9,125.7)" />
<use xlink:href="#f0_24" transform="matrix(12,0,0,12,292.4,125.7)" />
<use xlink:href="#f0_2g" transform="matrix(12,0,0,12,304.1,125.7)" />
<use xlink:href="#f0_24" transform="matrix(12,0,0,12,308.7,125.7)" />
<use xlink:href="#f0_21" transform="matrix(12,0,0,12,317.5,125.7)" />
<use xlink:href="#f0_22" transform="matrix(12,0,0,12,328.2,125.7)" />
<use xlink:href="#f0_2h" transform="matrix(12,0,0,12,333.7,125.7)" />
<use xlink:href="#f0_2a" transform="matrix(12,0,0,12,342.5,125.7)" />
<use xlink:href="#f0_1z" transform="matrix(12,0,0,12,351.1,125.7)" />
<use xlink:href="#f0_2g" transform="matrix(12,0,0,12,358.8,125.7)" />
<use xlink:href="#f0_25" transform="matrix(12,0,0,12,363.4,125.7)" />
<use xlink:href="#f0_2b" transform="matrix(12,0,0,12,368.1,125.7)" />
<use xlink:href="#f0_2a" transform="matrix(12,0,0,12,376.7,125.7)" />
<use xlink:href="#f1_c" transform="matrix(11.8,0,0,15.7,405.9,127.2)" />
<use xlink:href="#f1_d" transform="matrix(11.8,0,0,15.7,423.9,127.2)" />
</g>
<path d="M448.5,121.3h19" class="g1_11" />
<g fill="#000000" >
<use xlink:href="#f0_o" transform="matrix(6.9,0,0,6.9,459.6,106.1)" />
<use xlink:href="#f0_n" transform="matrix(6.9,0,0,6.9,493.9,117.6)" />
<use xlink:href="#f0_m" transform="matrix(6.9,0,0,6.9,535.5,117.6)" />
</g>
<g clip-path="url(#c0_11)">
<g fill="#000000" >
<use xlink:href="#f0_p" transform="matrix(12,0,0,12,516.5,125.9)" />
<use xlink:href="#f0_m" transform="matrix(12,0,0,12,559.1,125.9)" />
<use xlink:href="#f0_o" transform="matrix(12,0,0,12,568.3,125.9)" />
<use xlink:href="#f0_l" transform="matrix(12,0,0,12,601.5,125.9)" />
<use xlink:href="#f0_m" transform="matrix(12,0,0,12,610.6,125.9)" />
</g>
</g>
<g clip-path="url(#c1_11)">
<g fill="#000000" >
<use xlink:href="#f0_o" transform="matrix(12,0,0,12,453.8,140.2)" />
</g>
</g>
<g fill="#000000" >
<use xlink:href="#f2_2k" transform="matrix(12,0,0,12,450.6,114.3)" />
<use xlink:href="#f2_22" transform="matrix(12,0,0,12,394.7,125.9)" />
<use xlink:href="#f2_2k" transform="matrix(12,0,0,12,414.3,125.9)" />
<use xlink:href="#f2_2k" transform="matrix(12,0,0,12,485.2,125.9)" />
<use xlink:href="#f2_2k" transform="matrix(12,0,0,12,526.5,125.9)" />
<use xlink:href="#f2_2k" transform="matrix(12,0,0,12,578.5,125.9)" />
</g>
<g clip-path="url(#c2_11)">
<g fill="#000000" >
<use xlink:href="#f1_x" transform="matrix(12,0,0,12,434,125.9)" />
<use xlink:href="#f1_h" transform="matrix(12,0,0,12,471.1,125.9)" />
<use xlink:href="#f1_h" transform="matrix(12,0,0,12,503.8,125.9)" />
<use xlink:href="#f1_f" transform="matrix(12,0,0,12,545.7,125.9)" />
<use xlink:href="#f1_f" transform="matrix(12,0,0,12,590.1,125.9)" />
</g>
</g>
<g fill="#000000" >
<use xlink:href="#f0_25" transform="matrix(12,0,0,12,624.6,125.7)" />
<use xlink:href="#f0_2f" transform="matrix(12,0,0,12,629.2,125.7)" />
<use xlink:href="#f0_c" transform="matrix(12,0,0,12,121.9,172.6)" />
<use xlink:href="#f0_1x" transform="matrix(12,0,0,12,127.6,172.6)" />
<use xlink:href="#f0_d" transform="matrix(12,0,0,12,135.3,172.6)" />
<use xlink:href="#f0_2f" transform="matrix(12,0,0,12,143.9,172.6)" />
<use xlink:href="#f0_2g" transform="matrix(12,0,0,12,150.7,172.6)" />
<use xlink:href="#f0_2e" transform="matrix(12,0,0,12,155.5,172.6)" />
<use xlink:href="#f0_25" transform="matrix(12,0,0,12,161.2,172.6)" />
<use xlink:href="#f0_1z" transform="matrix(12,0,0,12,165.9,172.6)" />
<use xlink:href="#f0_2g" transform="matrix(12,0,0,12,173.4,172.6)" />
<use xlink:href="#f0_28" transform="matrix(12,0,0,12,178.2,172.6)" />
<use xlink:href="#f0_2l" transform="matrix(12,0,0,12,183,172.6)" />
<use xlink:href="#f0_25" transform="matrix(12,0,0,12,194.3,172.6)" />
<use xlink:href="#f0_2a" transform="matrix(12,0,0,12,199.1,172.6)" />
<use xlink:href="#f0_1z" transform="matrix(12,0,0,12,207.7,172.6)" />
<use xlink:href="#f0_2e" transform="matrix(12,0,0,12,215.4,172.6)" />
<use xlink:href="#f0_21" transform="matrix(12,0,0,12,221.1,172.6)" />
<use xlink:href="#f0_1x" transform="matrix(12,0,0,12,228.8,172.6)" />
<use xlink:href="#f0_2f" transform="matrix(12,0,0,12,236.5,172.6)" />
<use xlink:href="#f0_25" transform="matrix(12,0,0,12,243.3,172.6)" />
<use xlink:href="#f0_2a" transform="matrix(12,0,0,12,247.9,172.6)" />
<use xlink:href="#f0_23" transform="matrix(12,0,0,12,256.7,172.6)" />
<use xlink:href="#f0_g" transform="matrix(12,0,0,12,265.3,172.6)" />
<use xlink:href="#f0_c" transform="matrix(12,0,0,12,272.4,172.6)" />
<use xlink:href="#f0_1y" transform="matrix(12,0,0,12,278.1,172.6)" />
<use xlink:href="#f0_d" transform="matrix(12,0,0,12,286.7,172.6)" />
<use xlink:href="#f0_2f" transform="matrix(12,0,0,12,295.5,172.6)" />
<use xlink:href="#f0_2g" transform="matrix(12,0,0,12,302.3,172.6)" />
<use xlink:href="#f0_2e" transform="matrix(12,0,0,12,307.1,172.6)" />
<use xlink:href="#f0_25" transform="matrix(12,0,0,12,312.8,172.6)" />
<use xlink:href="#f0_1z" transform="matrix(12,0,0,12,317.4,172.6)" />
<use xlink:href="#f0_2g" transform="matrix(12,0,0,12,325.1,172.6)" />
<use xlink:href="#f0_28" transform="matrix(12,0,0,12,329.8,172.6)" />
<use xlink:href="#f0_2l" transform="matrix(12,0,0,12,334.6,172.6)" />
<use xlink:href="#f0_20" transform="matrix(12,0,0,12,345.9,172.6)" />
<use xlink:href="#f0_21" transform="matrix(12,0,0,12,354.6,172.6)" />
<use xlink:href="#f0_1z" transform="matrix(12,0,0,12,362.3,172.6)" />
<use xlink:href="#f0_2e" transform="matrix(12,0,0,12,370,172.6)" />
<use xlink:href="#f0_21" transform="matrix(12,0,0,12,375.6,172.6)" />
<use xlink:href="#f0_1x" transform="matrix(12,0,0,12,383.3,172.6)" />
<use xlink:href="#f0_2f" transform="matrix(12,0,0,12,391,172.6)" />
<use xlink:href="#f0_25" transform="matrix(12,0,0,12,397.6,172.6)" />
<use xlink:href="#f0_2a" transform="matrix(12,0,0,12,402.4,172.6)" />
<use xlink:href="#f0_23" transform="matrix(12,0,0,12,411.2,172.6)" />
<use xlink:href="#f0_i" transform="matrix(12,0,0,12,419.8,172.6)" />
<use xlink:href="#f0_1j" transform="matrix(12,0,0,12,64.9,212.4)" />
<use xlink:href="#f0_2b" transform="matrix(12,0,0,12,74.1,212.4)" />
<use xlink:href="#f0_28" transform="matrix(12,0,0,12,82.1,212.4)" />
<use xlink:href="#f0_u" transform="matrix(12,0,0,12,86.2,212.4)" />
</g>
<g clip-path="url(#c3_11)">
<g fill="#000000" >
<use xlink:href="#f1_c" transform="matrix(11.8,0,0,15.9,144.1,213.2)" />
</g>
</g>
<g clip-path="url(#c4_11)">
<g fill="#000000" >
<use xlink:href="#f1_d" transform="matrix(11.8,0,0,15.9,162.1,213.2)" />
</g>
</g>
<g fill="#000000" >
<use xlink:href="#f0_n" transform="matrix(7,0,0,7,196,203.4)" />
<use xlink:href="#f0_m" transform="matrix(7,0,0,7,237,203.4)" />
</g>
<g clip-path="url(#c5_11)">
<g fill="#000000" >
<use xlink:href="#f0_b" transform="matrix(12.2,0,0,12.2,139.5,211.9)" />
<use xlink:href="#f0_n" transform="matrix(12.2,0,0,12.2,218.3,211.9)" />
<use xlink:href="#f0_l" transform="matrix(12.2,0,0,12.2,258.5,211.9)" />
<use xlink:href="#f0_k" transform="matrix(12.2,0,0,12.2,267.7,211.9)" />
<use xlink:href="#f0_m" transform="matrix(12.2,0,0,12.2,302.7,211.9)" />
<use xlink:href="#f0_o" transform="matrix(12.2,0,0,12.2,311.8,211.9)" />
</g>
</g>
<g fill="#000000" >
<use xlink:href="#f2_22" transform="matrix(12.2,0,0,12.2,128.2,211.9)" />
<use xlink:href="#f2_2k" transform="matrix(12.2,0,0,12.2,152.5,211.9)" />
<use xlink:href="#f2_2k" transform="matrix(12.2,0,0,12.2,187.3,211.9)" />
<use xlink:href="#f2_2k" transform="matrix(12.2,0,0,12.2,228,211.9)" />
<use xlink:href="#f2_2k" transform="matrix(12.2,0,0,12.2,277.9,211.9)" />
</g>
<g clip-path="url(#c6_11)">
<g fill="#000000" >
<use xlink:href="#f1_x" transform="matrix(12.2,0,0,12.2,172.2,211.9)" />
<use xlink:href="#f1_h" transform="matrix(12.2,0,0,12.2,205.9,211.9)" />
<use xlink:href="#f1_h" transform="matrix(12.2,0,0,12.2,247.3,211.9)" />
<use xlink:href="#f1_f" transform="matrix(12.2,0,0,12.2,289.3,211.9)" />
</g>
</g>
<g clip-path="url(#c7_11)">
<g fill="#000000" >
<use xlink:href="#f1_c" transform="matrix(11.8,0,0,15.8,144.1,259.4)" />
</g>
</g>
<g clip-path="url(#c8_11)">
<g fill="#000000" >
<use xlink:href="#f1_d" transform="matrix(11.8,0,0,15.8,162.1,259.4)" />
</g>
</g>
<g clip-path="url(#c9_11)">
<g fill="#000000" >
<use xlink:href="#f1_c" transform="matrix(11.8,0,0,15.8,185.9,259.4)" />
</g>
</g>
<g clip-path="url(#c10_11)">
<g fill="#000000" >
<use xlink:href="#f1_d" transform="matrix(11.8,0,0,15.8,228.1,259.4)" />
</g>
</g>
<g clip-path="url(#c11_11)">
<g fill="#000000" >
<use xlink:href="#f1_c" transform="matrix(11.8,0,0,15.8,236,259.4)" />
</g>
</g>
<g clip-path="url(#c12_11)">
<g fill="#000000" >
<use xlink:href="#f1_d" transform="matrix(11.8,0,0,15.8,279,259.4)" />
</g>
</g>
<g clip-path="url(#c13_11)">
<g fill="#000000" >
<use xlink:href="#f1_c" transform="matrix(11.8,0,0,15.8,286.7,259.4)" />
</g>
</g>
<g clip-path="url(#c14_11)">
<g fill="#000000" >
<use xlink:href="#f1_d" transform="matrix(11.8,0,0,15.8,330,259.4)" />
</g>
</g>
<g clip-path="url(#c15_11)">
<g fill="#000000" >
<use xlink:href="#f0_b" transform="matrix(12.1,0,0,12.1,139.5,257.9)" />
<use xlink:href="#f0_n" transform="matrix(12.1,0,0,12.1,218.5,257.9)" />
<use xlink:href="#f0_m" transform="matrix(12.1,0,0,12.1,268.9,257.9)" />
<use xlink:href="#f0_o" transform="matrix(12.1,0,0,12.1,319.7,257.9)" />
</g>
</g>
<g fill="#000000" >
<use xlink:href="#f2_22" transform="matrix(12.1,0,0,12.1,128.2,257.9)" />
<use xlink:href="#f2_2k" transform="matrix(12.1,0,0,12.1,152.5,257.9)" />
<use xlink:href="#f2_2k" transform="matrix(12.1,0,0,12.1,194.3,257.9)" />
<use xlink:href="#f2_2k" transform="matrix(12.1,0,0,12.1,244.4,257.9)" />
<use xlink:href="#f2_2k" transform="matrix(12.1,0,0,12.1,295.1,257.9)" />
</g>
<g clip-path="url(#c16_11)">
<g fill="#000000" >
<use xlink:href="#f1_x" transform="matrix(12.1,0,0,12.1,172.2,257.9)" />
<use xlink:href="#f1_f" transform="matrix(12.1,0,0,12.1,205.7,257.9)" />
<use xlink:href="#f1_h" transform="matrix(12.1,0,0,12.1,255.7,257.9)" />
<use xlink:href="#f1_h" transform="matrix(12.1,0,0,12.1,306.7,257.9)" />
</g>
</g>
<g clip-path="url(#c17_11)">
<g fill="#000000" >
<use xlink:href="#f1_c" transform="matrix(11.9,0,0,15.9,139.5,305.2)" />
</g>
</g>
<g clip-path="url(#c18_11)">
<g fill="#000000" >
<use xlink:href="#f1_d" transform="matrix(11.9,0,0,15.9,157.7,305.2)" />
</g>
</g>
<g clip-path="url(#c19_11)">
<g fill="#000000" >
<use xlink:href="#f2_22" transform="matrix(12.2,0,0,12.2,128.2,303.9)" />
<use xlink:href="#f2_2k" transform="matrix(12.2,0,0,12.2,147.9,303.9)" />
</g>
</g>
<g fill="#000000" >
<use xlink:href="#f0_25" transform="matrix(12,0,0,12,169.2,304.5)" />
<use xlink:href="#f0_2f" transform="matrix(12,0,0,12,173.8,304.5)" />
<use xlink:href="#f0_2f" transform="matrix(12,0,0,12,183.3,304.5)" />
<use xlink:href="#f0_2g" transform="matrix(12,0,0,12,189.9,304.5)" />
<use xlink:href="#f0_2e" transform="matrix(12,0,0,12,194.5,304.5)" />
<use xlink:href="#f0_25" transform="matrix(12,0,0,12,200.2,304.5)" />
<use xlink:href="#f0_1z" transform="matrix(12,0,0,12,204.8,304.5)" />
<use xlink:href="#f0_2g" transform="matrix(12,0,0,12,212.3,304.5)" />
<use xlink:href="#f0_28" transform="matrix(12,0,0,12,216.9,304.5)" />
<use xlink:href="#f0_2l" transform="matrix(12,0,0,12,221.5,304.5)" />
<use xlink:href="#f0_25" transform="matrix(12,0,0,12,232.6,304.5)" />
<use xlink:href="#f0_2a" transform="matrix(12,0,0,12,237.2,304.5)" />
<use xlink:href="#f0_1z" transform="matrix(12,0,0,12,245.8,304.5)" />
<use xlink:href="#f0_2e" transform="matrix(12,0,0,12,253.5,304.5)" />
<use xlink:href="#f0_21" transform="matrix(12,0,0,12,259.1,304.5)" />
<use xlink:href="#f0_1x" transform="matrix(12,0,0,12,266.6,304.5)" />
<use xlink:href="#f0_2f" transform="matrix(12,0,0,12,274.1,304.5)" />
<use xlink:href="#f0_25" transform="matrix(12,0,0,12,280.9,304.5)" />
<use xlink:href="#f0_2a" transform="matrix(12,0,0,12,285.4,304.5)" />
<use xlink:href="#f0_23" transform="matrix(12,0,0,12,294.1,304.5)" />
<use xlink:href="#f0_25" transform="matrix(12,0,0,12,121.9,350.5)" />
<use xlink:href="#f0_22" transform="matrix(12,0,0,12,126.3,350.5)" />
</g>
<g clip-path="url(#c20_11)">
<g fill="#000000" >
<use xlink:href="#f1_c" transform="matrix(11.9,0,0,15.8,156.9,351.4)" />
</g>
</g>
<g clip-path="url(#c21_11)">
<g fill="#000000" >
<use xlink:href="#f1_d" transform="matrix(11.9,0,0,15.8,175.1,351.4)" />
</g>
</g>
<g clip-path="url(#c22_11)">
<g fill="#000000" >
<use xlink:href="#f0_b" transform="matrix(12.1,0,0,12.1,152.4,349.9)" />
<use xlink:href="#f0_k" transform="matrix(12.1,0,0,12.1,199.3,349.9)" />
</g>
</g>
<g fill="#000000" >
<use xlink:href="#f2_22" transform="matrix(12.1,0,0,12.1,140.8,349.9)" />
<use xlink:href="#f2_2k" transform="matrix(12.1,0,0,12.1,165.4,349.9)" />
</g>
<g clip-path="url(#c23_11)">
<g fill="#000000" >
<use xlink:href="#f1_y" transform="matrix(12.1,0,0,12.1,185.2,349.9)" />
</g>
</g>
<path d="M131.8,395.2l11,-4.8v.4h-.3v.7h-.4v1.1l-.4,.4v4.4l.4,.4v.7l.4,.4v.7h.3v.4l-11,-4.8Zm425.3,.7H137.3v-1.4H557.1v1.4Zm5.2,-.7L551.6,400v-.8h.4v-.7h.4V397h.3v-3.6l-.3,-.4v-1.1H552v-.7h-.4v-.8l10.7,4.8Z" class="g2_11" />
<path fill-rule="evenodd" d="M219.5,393h.8l.7,.7l.4,.4v1.8l-.4,.8l-.7,.7h-1.5l-.7,-.7l-.4,-.8v-1.8l.4,-.4l.7,-.7h.7Z" class="g2_11" />
<path d="M222.1,395.2h-1.5v-.7l-.3,-.4v-.4h-.8v-1.4h1.1l.4,.3l.4,.4l.3,.4l.4,.7v1.1Zm-2.6,2.9v-1.4h.4l.4,-.4v-.4h.3v-.7h1.5v1.1l-.4,.4l-.3,.7l-.4,.4l-.4,.3h-1.1ZM217,395.2h1.4v.7l.4,.4l.4,.4h.3v1.4h-1.1l-.3,-.3l-.4,-.4l-.4,-.7l-.3,-.4v-1.1Zm2.5,-2.9v1.4h-.7v.4h-.4v1.1H217v-1.1l.3,-.7l.4,-.4l.4,-.4l.3,-.3h1.1Z" class="g2_11" />
<path fill-rule="evenodd" d="M336.6,393h.7l.8,.7l.3,.4v1.8l-.3,.8l-.8,.7h-1.4l-.8,-.7l-.3,-.8v-1.8l.3,-.4l.8,-.7h.7Z" class="g2_11" />
<path d="M339.2,395.2h-1.5v-.7l-.4,-.4l-.3,-.4h-.4v-1.4h1.1l.4,.3l.3,.4l.4,.4l.4,.7v1.1Zm-2.6,2.9v-1.4h.4v-.4h.3v-.4h.4v-.7h1.5v1.1l-.4,.4l-.4,.7l-.3,.4l-.4,.3h-1.1ZM334,395.2h1.5v.7l.4,.4l.3,.4h.4v1.4h-1.1l-.4,-.3l-.3,-.4l-.4,-.7l-.4,-.4v-1.1Zm2.6,-2.9v1.4h-.7v.4h-.4v1.1H334v-1.1l.4,-.7l.4,-.4l.3,-.4l.4,-.3h1.1Z" class="g2_11" />
<path fill-rule="evenodd" d="M449.2,393h.8l.7,.7l.4,.4v1.8l-.4,.8l-.7,.7h-1.5l-.7,-.7l-.4,-.8v-1.8l.4,-.4l.7,-.7h.7Z" class="g2_11" />
<path d="M451.8,395.2h-1.5v-.7l-.3,-.4v-.4h-.8v-1.4h1.1l.4,.3l.4,.4l.4,.4l.3,.7v1.1Zm-2.6,2.9v-1.4h.4l.4,-.4v-.4h.3v-.7h1.5v1.1l-.3,.4l-.4,.7l-.4,.4l-.4,.3h-1.1Zm-2.5,-2.9h1.4v.7l.4,.4l.4,.4h.3v1.4h-1.1l-.3,-.3l-.4,-.4l-.4,-.7l-.3,-.4v-1.1Zm2.5,-2.9v1.4h-.7v.4h-.4v1.1h-1.4v-1.1l.3,-.7l.4,-.4l.4,-.4l.3,-.3h1.1Z" class="g2_11" />
<path fill-rule="evenodd" d="M126.7,408.4h9.5v1.1h-9.5v-1.1Z" class="g3_11" />
<path fill-rule="evenodd" d="M142.1,407.7l.7,-1.1l.8,-.8l.7,-.3l1.1,-.4l1.5,.4l1.1,.7l.7,1.1l.4,1.8l-.4,1.5l-.7,1.1l-1.1,.7l-1.1,.4l-.8,-.4l-.7,-.3l-.7,-.8l-.8,-1.1l-.7,.8l-.4,.7l-1.1,.4l-.7,.3l-1.1,-.3l-1.1,-.8l-.7,-1.1v-2.5l.7,-1.1l.7,-.8h1.9l.7,.4l.7,.4l.4,1.1Zm1.1,1.8l.4,1.1l.7,.7l.7,.4l.8,.4l1.1,-.4l.7,-.7l.7,-.8v-2.5l-.7,-.8l-.7,-.7l-1.1,-.4l-.4,.4h-.7l-.4,.4l-.4,.7l-.3,.7l-.4,1.5Zm-1.1,-1.1l-.7,-.7l-.4,-.8l-.7,-.3h-1.5l-.7,.7l-.4,.7l-.4,1.1l.4,.8l.4,1.1l.7,.3l.7,.4l.8,-.4l.7,-.3l.4,-1.1l.7,-1.5Z" class="g3_11" />
<g fill="#373435" >
<use xlink:href="#f0_h" transform="matrix(12,0,0,12,210.3,413.2)" />
<use xlink:href="#f0_n" transform="matrix(12,0,0,12,216.5,413.2)" />
</g>
<g clip-path="url(#c24_11)">
<g fill="#373435" >
<use xlink:href="#f0_m" transform="matrix(12,0,0,12,332.9,419.4)" />
</g>
</g>
<g clip-path="url(#c25_11)">
<g fill="#373435" >
<use xlink:href="#f0_o" transform="matrix(12,0,0,12,444,418.7)" />
</g>
</g>
<path fill-rule="evenodd" d="M546.9,407.7h.7v4.4H552v.7h-4.4v4.4h-.7v-4.4h-4.4v-.7h4.4v-4.4Z" class="g3_11" />
<path fill-rule="evenodd" d="M558.2,411.3l.4,-1.4l.7,-.8l1.1,-.3h2.2l1.2,1.1l.7,1.1l.4,1.4l-.4,1.5l-.7,1.1l-.8,.7l-1.1,.4h-1.1l-.7,-.7l-.8,-.4l-.7,-1.5l-.4,1.1l-.7,.8l-.7,.3h-1.1l-1.1,-.3l-1.1,-.8l-.4,-.7l-.4,-1.5l.4,-1.4l.4,-1.1l1.1,-.4l1.1,-.4h.7l.4,.4l.7,.7l.7,1.1Zm.8,1.5l.7,1.5l.7,.7l.8,.4h.7l.7,-.4l1.2,-.4l.3,-1.1l.4,-1.1l-.4,-1.1l-.3,-1.1l-1.2,-.7h-1.4l-.4,.4l-.4,.3l-.3,.4l-.4,.7l-.7,1.5Zm-1.1,-1.1l-.4,-.7l-.7,-.8h-.4l-1.1,-.3l-.7,.3l-.8,.4l-.3,.7l-.4,1.1l.4,1.1l.3,.8l.8,.7H556l.8,-.7l.3,-.8l.8,-1.8Z" class="g3_11" />
<path d="M156,387.5h-6.9V386H156v1.5Z" class="g2_11" />
<path d="M400.1,387.1h-7.4v-1.4h7.4v1.4Z" class="g2_11" />
<g clip-path="url(#c26_11)">
<g fill="#373435" >
<use xlink:href="#f0_f" transform="matrix(12,0,0,12,279,389.7)" />
</g>
</g>
<g clip-path="url(#c27_11)">
<g fill="#373435" >
<use xlink:href="#f0_f" transform="matrix(12,0,0,12,510.6,393)" />
</g>
</g>
<g clip-path="url(#c28_11)">
<g fill="#000000" >
<use xlink:href="#f1_c" transform="matrix(11.8,0,0,15.9,167.4,459.6)" />
</g>
</g>
<g clip-path="url(#c29_11)">
<g fill="#000000" >
<use xlink:href="#f1_d" transform="matrix(11.8,0,0,15.9,210.3,459.6)" />
</g>
</g>
<g clip-path="url(#c30_11)">
<g fill="#000000" >
<use xlink:href="#f1_c" transform="matrix(11.8,0,0,15.9,235.2,459.6)" />
</g>
</g>
<g clip-path="url(#c31_11)">
<g fill="#000000" >
<use xlink:href="#f1_d" transform="matrix(11.8,0,0,15.9,272.8,459.6)" />
</g>
</g>
<g clip-path="url(#c32_11)">
<g fill="#000000" >
<use xlink:href="#f0_n" transform="matrix(12.2,0,0,12.2,185,458.3)" />
<use xlink:href="#f0_g" transform="matrix(12.2,0,0,12.2,193.2,458.3)" />
<use xlink:href="#f0_m" transform="matrix(12.2,0,0,12.2,200.2,458.3)" />
<use xlink:href="#f0_o" transform="matrix(12.2,0,0,12.2,242.9,458.3)" />
<use xlink:href="#f0_g" transform="matrix(12.2,0,0,12.2,251.7,458.3)" />
</g>
</g>
<g fill="#000000" >
<use xlink:href="#f2_2k" transform="matrix(12.2,0,0,12.2,141.9,458.3)" />
</g>
<g clip-path="url(#c33_11)">
<g fill="#000000" >
<use xlink:href="#f1_1s" transform="matrix(12.2,0,0,12.2,121.9,458.3)" />
<use xlink:href="#f1_40" transform="matrix(12.2,0,0,12.2,152.5,458.3)" />
<use xlink:href="#f1_h" transform="matrix(12.2,0,0,12.2,174.9,458.3)" />
<use xlink:href="#f1_3u" transform="matrix(12.2,0,0,12.2,218.9,458.3)" />
<use xlink:href="#f1_2v" transform="matrix(12.2,0,0,12.2,258.3,458.3)" />
</g>
</g>
<g clip-path="url(#c34_11)">
<g fill="#000000" >
<use xlink:href="#f1_c" transform="matrix(11.9,0,0,15.9,139.5,505.6)" />
</g>
</g>
<g clip-path="url(#c35_11)">
<g fill="#000000" >
<use xlink:href="#f1_d" transform="matrix(11.9,0,0,15.9,157.7,505.6)" />
</g>
</g>
<g clip-path="url(#c36_11)">
<g fill="#000000" >
<use xlink:href="#f2_22" transform="matrix(12.2,0,0,12.2,128.2,504.3)" />
<use xlink:href="#f2_2k" transform="matrix(12.2,0,0,12.2,147.9,504.3)" />
</g>
</g>
<g fill="#000000" >
<use xlink:href="#f0_25" transform="matrix(12,0,0,12,169.6,504.8)" />
<use xlink:href="#f0_2f" transform="matrix(12,0,0,12,174.4,504.8)" />
<use xlink:href="#f0_2f" transform="matrix(12,0,0,12,184.3,504.8)" />
<use xlink:href="#f0_2g" transform="matrix(12,0,0,12,191,504.8)" />
<use xlink:href="#f0_2e" transform="matrix(12,0,0,12,195.8,504.8)" />
<use xlink:href="#f0_25" transform="matrix(12,0,0,12,201.5,504.8)" />
<use xlink:href="#f0_1z" transform="matrix(12,0,0,12,206.3,504.8)" />
<use xlink:href="#f0_2g" transform="matrix(12,0,0,12,214,504.8)" />
<use xlink:href="#f0_28" transform="matrix(12,0,0,12,218.7,504.8)" />
<use xlink:href="#f0_2l" transform="matrix(12,0,0,12,223.5,504.8)" />
<use xlink:href="#f0_20" transform="matrix(12,0,0,12,234.7,504.8)" />
<use xlink:href="#f0_21" transform="matrix(12,0,0,12,243.6,504.8)" />
<use xlink:href="#f0_1z" transform="matrix(12,0,0,12,251.3,504.8)" />
<use xlink:href="#f0_2e" transform="matrix(12,0,0,12,259,504.8)" />
<use xlink:href="#f0_21" transform="matrix(12,0,0,12,264.7,504.8)" />
<use xlink:href="#f0_1x" transform="matrix(12,0,0,12,272.4,504.8)" />
<use xlink:href="#f0_2f" transform="matrix(12,0,0,12,280.1,504.8)" />
<use xlink:href="#f0_25" transform="matrix(12,0,0,12,286.9,504.8)" />
<use xlink:href="#f0_2a" transform="matrix(12,0,0,12,291.7,504.8)" />
<use xlink:href="#f0_23" transform="matrix(12,0,0,12,300.5,504.8)" />
<use xlink:href="#f0_25" transform="matrix(12,0,0,12,312.2,504.8)" />
<use xlink:href="#f0_22" transform="matrix(12,0,0,12,317,504.8)" />
</g>
<g clip-path="url(#c37_11)">
<g fill="#000000" >
<use xlink:href="#f1_c" transform="matrix(11.9,0,0,15.9,348.2,505.6)" />
</g>
</g>
<g clip-path="url(#c38_11)">
<g fill="#000000" >
<use xlink:href="#f1_d" transform="matrix(11.9,0,0,15.9,366.3,505.6)" />
</g>
</g>
<g clip-path="url(#c39_11)">
<g fill="#000000" >
<use xlink:href="#f0_b" transform="matrix(12.2,0,0,12.2,343.6,504.3)" />
<use xlink:href="#f0_k" transform="matrix(12.2,0,0,12.2,390.1,504.3)" />
</g>
</g>
<g fill="#000000" >
<use xlink:href="#f2_22" transform="matrix(12.2,0,0,12.2,332,504.3)" />
<use xlink:href="#f2_2k" transform="matrix(12.2,0,0,12.2,356.6,504.3)" />
</g>
<g clip-path="url(#c40_11)">
<g fill="#000000" >
<use xlink:href="#f1_w" transform="matrix(12.2,0,0,12.2,376,504.3)" />
</g>
</g>
<g clip-path="url(#c41_11)">
<g fill="#000000" >
<use xlink:href="#f1_c" transform="matrix(11.8,0,0,15.8,167.4,551.8)" />
</g>
</g>
<g clip-path="url(#c42_11)">
<g fill="#000000" >
<use xlink:href="#f1_d" transform="matrix(11.8,0,0,15.8,224.6,551.8)" />
</g>
</g>
<g clip-path="url(#c43_11)">
<g fill="#000000" >
<use xlink:href="#f1_c" transform="matrix(11.8,0,0,15.8,249.5,551.8)" />
</g>
</g>
<g clip-path="url(#c44_11)">
<g fill="#000000" >
<use xlink:href="#f1_d" transform="matrix(11.8,0,0,15.8,283.1,551.8)" />
</g>
</g>
<g clip-path="url(#c45_11)">
<g fill="#000000" >
<use xlink:href="#f0_g" transform="matrix(12.1,0,0,12.1,198.2,550.3)" />
<use xlink:href="#f0_n" transform="matrix(12.1,0,0,12.1,215,550.3)" />
<use xlink:href="#f0_m" transform="matrix(12.1,0,0,12.1,257.2,550.3)" />
<use xlink:href="#f0_g" transform="matrix(12.1,0,0,12.1,266,550.3)" />
<use xlink:href="#f0_o" transform="matrix(12.1,0,0,12.1,273,550.3)" />
</g>
</g>
<g fill="#000000" >
<use xlink:href="#f2_2k" transform="matrix(12.1,0,0,12.1,141.9,550.3)" />
<use xlink:href="#f1_1s" transform="matrix(12.1,0,0,12.1,121.9,550.3)" />
<use xlink:href="#f1_40" transform="matrix(12.1,0,0,12.1,152.5,550.3)" />
<use xlink:href="#f1_h" transform="matrix(12.1,0,0,12.1,174.9,550.3)" />
<use xlink:href="#f1_2v" transform="matrix(12.1,0,0,12.1,185,550.3)" />
<use xlink:href="#f1_h" transform="matrix(12.1,0,0,12.1,204.9,550.3)" />
<use xlink:href="#f1_3u" transform="matrix(12.1,0,0,12.1,233.2,550.3)" />
<use xlink:href="#f0_l" transform="matrix(12,0,0,12,64.9,665.1)" />
<use xlink:href="#f0_t" transform="matrix(12,0,0,12,74.1,665.1)" />
<use xlink:href="#f0_i" transform="matrix(12,0,0,12,83.2,665.1)" />
<use xlink:href="#f0_16" transform="matrix(12,0,0,12,121.9,665.1)" />
<use xlink:href="#f0_25" transform="matrix(12,0,0,12,131.6,665.1)" />
<use xlink:href="#f0_2a" transform="matrix(12,0,0,12,136.6,665.1)" />
<use xlink:href="#f0_20" transform="matrix(12,0,0,12,145.4,665.1)" />
<use xlink:href="#f0_u" transform="matrix(12,0,0,12,157.5,665.1)" />
<use xlink:href="#f1_c" transform="matrix(11.8,0,0,15.6,179.9,673.1)" />
<use xlink:href="#f1_d" transform="matrix(11.8,0,0,15.6,243.6,673.1)" />
<use xlink:href="#f1_c" transform="matrix(11.8,0,0,18.8,251.4,674.1)" />
<use xlink:href="#f1_d" transform="matrix(11.8,0,0,18.8,323,674.1)" />
</g>
<path d="M179.3,651.9H329.6" class="g4_11" />
<g fill="#000000" >
<use xlink:href="#f0_m" transform="matrix(6.9,0,0,6.9,303.1,663.6)" />
<use xlink:href="#f0_m" transform="matrix(11.9,0,0,11.9,231,645.1)" />
<use xlink:href="#f0_1z" transform="matrix(11.9,0,0,11.9,242.2,645.1)" />
<use xlink:href="#f0_2b" transform="matrix(11.9,0,0,11.9,250.1,645.1)" />
<use xlink:href="#f0_2f" transform="matrix(11.9,0,0,11.9,259.2,645.1)" />
<use xlink:href="#f0_l" transform="matrix(11.9,0,0,11.9,185.5,671.9)" />
<use xlink:href="#f0_2f" transform="matrix(11.9,0,0,11.9,208.6,671.9)" />
<use xlink:href="#f0_25" transform="matrix(11.9,0,0,11.9,215.8,671.9)" />
<use xlink:href="#f0_2a" transform="matrix(11.9,0,0,11.9,220.9,671.9)" />
<use xlink:href="#f0_l" transform="matrix(11.9,0,0,11.9,256.8,671.9)" />
<use xlink:href="#f0_2f" transform="matrix(11.9,0,0,11.9,280.3,671.9)" />
<use xlink:href="#f0_25" transform="matrix(11.9,0,0,11.9,287.4,671.9)" />
<use xlink:href="#f0_2a" transform="matrix(11.9,0,0,11.9,292.5,671.9)" />
<use xlink:href="#f2_2k" transform="matrix(11.9,0,0,11.9,269.9,645.1)" />
</g>
<g clip-path="url(#c46_11)">
<g fill="#000000" >
<use xlink:href="#f2_20" transform="matrix(11.9,0,0,11.9,329.3,656.5)" />
<use xlink:href="#f2_2k" transform="matrix(11.9,0,0,11.9,338.4,656.5)" />
</g>
</g>
<g clip-path="url(#c47_11)">
<g fill="#000000" >
<use xlink:href="#f2_2k" transform="matrix(11.9,0,0,11.9,234.1,671.9)" />
<use xlink:href="#f2_2k" transform="matrix(11.9,0,0,11.9,313.5,671.9)" />
</g>
</g>
<g fill="#000000" >
<use xlink:href="#f1_h" transform="matrix(11.9,0,0,11.9,196,671.9)" />
<use xlink:href="#f1_f" transform="matrix(11.9,0,0,11.9,267.5,671.9)" />
<use xlink:href="#f1_50" transform="matrix(17.9,0,0,17.9,168.7,663.1)" />
<use xlink:href="#f0_1j" transform="matrix(12,0,0,12,64.9,732)" />
<use xlink:href="#f0_2b" transform="matrix(12,0,0,12,74.1,732)" />
<use xlink:href="#f0_28" transform="matrix(12,0,0,12,82.1,732)" />
<use xlink:href="#f0_u" transform="matrix(12,0,0,12,86.2,732)" />
<use xlink:href="#f0_1c" transform="matrix(12,0,0,12,121.9,732)" />
<use xlink:href="#f0_21" transform="matrix(12,0,0,12,132.7,732)" />
<use xlink:href="#f0_2g" transform="matrix(12,0,0,12,140.8,732)" />
</g>
<path d="M187,727.6H332.6" class="g4_11" />
<g fill="#000000" >
<use xlink:href="#f0_m" transform="matrix(6.9,0,0,6.9,306.5,738.2)" />
<use xlink:href="#f0_m" transform="matrix(11.9,0,0,11.9,236.3,720.8)" />
<use xlink:href="#f0_1z" transform="matrix(11.9,0,0,11.9,247.5,720.8)" />
<use xlink:href="#f0_2b" transform="matrix(11.9,0,0,11.9,255.4,720.8)" />
<use xlink:href="#f0_2f" transform="matrix(11.9,0,0,11.9,264.6,720.8)" />
</g>
<g clip-path="url(#c48_11)">
<g fill="#000000" >
<use xlink:href="#f0_c" transform="matrix(11.9,0,0,11.9,187.9,746.5)" />
<use xlink:href="#f0_l" transform="matrix(11.9,0,0,11.9,192.5,746.5)" />
<use xlink:href="#f0_2f" transform="matrix(11.9,0,0,11.9,214.5,746.5)" />
<use xlink:href="#f0_25" transform="matrix(11.9,0,0,11.9,221.6,746.5)" />
<use xlink:href="#f0_2a" transform="matrix(11.9,0,0,11.9,226.8,746.5)" />
<use xlink:href="#f0_d" transform="matrix(11.9,0,0,11.9,248.6,746.5)" />
<use xlink:href="#f0_c" transform="matrix(11.9,0,0,11.9,256.8,746.5)" />
<use xlink:href="#f0_l" transform="matrix(11.9,0,0,11.9,261.4,746.5)" />
<use xlink:href="#f0_2f" transform="matrix(11.9,0,0,11.9,283.8,746.5)" />
<use xlink:href="#f0_25" transform="matrix(11.9,0,0,11.9,290.9,746.5)" />
<use xlink:href="#f0_2a" transform="matrix(11.9,0,0,11.9,296,746.5)" />
<use xlink:href="#f0_d" transform="matrix(11.9,0,0,11.9,325.6,746.5)" />
</g>
</g>
<g fill="#000000" >
<use xlink:href="#f2_2k" transform="matrix(11.9,0,0,11.9,275.2,720.8)" />
</g>
<g clip-path="url(#c49_11)">
<g fill="#000000" >
<use xlink:href="#f2_19" transform="matrix(11.9,0,0,11.9,152.7,732.2)" />
<use xlink:href="#f2_20" transform="matrix(11.9,0,0,11.9,335.7,732.2)" />
<use xlink:href="#f2_2k" transform="matrix(11.9,0,0,11.9,344.8,732.2)" />
</g>
</g>
<g fill="#000000" >
<use xlink:href="#f2_2k" transform="matrix(11.9,0,0,11.9,240,746.5)" />
<use xlink:href="#f2_2k" transform="matrix(11.9,0,0,11.9,317.1,746.5)" />
<use xlink:href="#f1_x" transform="matrix(11.9,0,0,11.9,163.4,732.2)" />
<use xlink:href="#f1_h" transform="matrix(11.9,0,0,11.9,202.4,746.5)" />
<use xlink:href="#f1_f" transform="matrix(11.9,0,0,11.9,271.5,746.5)" />
<use xlink:href="#f1_50" transform="matrix(17.9,0,0,17.9,176.2,738.8)" />
<use xlink:href="#f0_1c" transform="matrix(12,0,0,12,116.8,784.4)" />
<use xlink:href="#f0_21" transform="matrix(12,0,0,12,127,784.4)" />
<use xlink:href="#f0_2g" transform="matrix(12,0,0,12,134.6,784.4)" />
<use xlink:href="#f0_2f" transform="matrix(11.9,0,0,11.9,158,785)" />
<use xlink:href="#f0_25" transform="matrix(11.9,0,0,11.9,165.2,785)" />
<use xlink:href="#f0_2a" transform="matrix(11.9,0,0,11.9,170.3,785)" />
</g>
<g clip-path="url(#c50_11)">
<g fill="#000000" >
<use xlink:href="#f2_2k" transform="matrix(11.9,0,0,11.9,183.5,785)" />
<use xlink:href="#f2_2g" transform="matrix(11.9,0,0,11.9,206.4,785)" />
</g>
</g>
<g clip-path="url(#c51_11)">
<g fill="#000000" >
<use xlink:href="#f1_x" transform="matrix(11.9,0,0,11.9,194.3,785)" />
</g>
</g>
<g fill="#000000" >
<use xlink:href="#f0_1z" transform="matrix(11.8,0,0,11.8,158.4,820.5)" />
<use xlink:href="#f0_2b" transform="matrix(11.8,0,0,11.8,166.5,820.5)" />
<use xlink:href="#f0_2f" transform="matrix(11.8,0,0,11.8,175.6,820.5)" />
</g>
<g clip-path="url(#c52_11)">
<g fill="#000000" >
<use xlink:href="#f2_20" transform="matrix(11.8,0,0,11.8,185.4,820.5)" />
<use xlink:href="#f2_2k" transform="matrix(11.8,0,0,11.8,194.7,820.5)" />
<use xlink:href="#f2_20" transform="matrix(11.8,0,0,11.8,218.2,820.5)" />
<use xlink:href="#f2_2g" transform="matrix(11.8,0,0,11.8,227.5,820.5)" />
</g>
</g>
<g clip-path="url(#c53_11)">
<g fill="#000000" >
<use xlink:href="#f1_x" transform="matrix(11.8,0,0,11.8,205.5,820.5)" />
</g>
</g>
<path d="M167.2,868.1h92.3" class="g4_11" />
<g fill="#000000" >
<use xlink:href="#f0_m" transform="matrix(6.9,0,0,6.9,245.3,878.7)" />
<use xlink:href="#f0_m" transform="matrix(11.9,0,0,11.9,209,861.2)" />
</g>
<g clip-path="url(#c54_11)">
<g fill="#000000" >
<use xlink:href="#f0_c" transform="matrix(11.9,0,0,11.9,168.1,886.9)" />
<use xlink:href="#f0_l" transform="matrix(11.9,0,0,11.9,172.7,886.9)" />
<use xlink:href="#f0_d" transform="matrix(11.9,0,0,11.9,202.2,886.9)" />
<use xlink:href="#f0_c" transform="matrix(11.9,0,0,11.9,210.5,886.9)" />
<use xlink:href="#f0_l" transform="matrix(11.9,0,0,11.9,215.1,886.9)" />
<use xlink:href="#f0_d" transform="matrix(11.9,0,0,11.9,252.6,886.9)" />
</g>
</g>
<g clip-path="url(#c55_11)">
<g fill="#000000" >
<use xlink:href="#f2_19" transform="matrix(11.9,0,0,11.9,133.1,872.6)" />
<use xlink:href="#f2_20" transform="matrix(11.9,0,0,11.9,259.2,872.6)" />
<use xlink:href="#f2_2g" transform="matrix(11.9,0,0,11.9,268.4,872.6)" />
</g>
</g>
<g fill="#000000" >
<use xlink:href="#f2_2g" transform="matrix(11.9,0,0,11.9,196,886.9)" />
<use xlink:href="#f2_2g" transform="matrix(11.9,0,0,11.9,238.5,886.9)" />
<use xlink:href="#f1_1s" transform="matrix(11.9,0,0,11.9,116.8,872.6)" />
<use xlink:href="#f1_x" transform="matrix(11.9,0,0,11.9,143.5,872.6)" />
<use xlink:href="#f1_h" transform="matrix(11.9,0,0,11.9,183.3,886.9)" />
<use xlink:href="#f1_f" transform="matrix(11.9,0,0,11.9,225.7,886.9)" />
<use xlink:href="#f1_50" transform="matrix(17.9,0,0,17.9,156.6,879.2)" />
<use xlink:href="#f0_13" transform="matrix(12,0,0,12,116.8,923.2)" />
<use xlink:href="#f0_2b" transform="matrix(12,0,0,12,128.7,923.2)" />
<use xlink:href="#f0_2a" transform="matrix(12,0,0,12,137.3,923.2)" />
<use xlink:href="#f0_2f" transform="matrix(12,0,0,12,146.1,923.2)" />
<use xlink:href="#f0_25" transform="matrix(12,0,0,12,152.7,923.2)" />
<use xlink:href="#f0_20" transform="matrix(12,0,0,12,157.5,923.2)" />
<use xlink:href="#f0_21" transform="matrix(12,0,0,12,166.1,923.2)" />
<use xlink:href="#f0_2e" transform="matrix(12,0,0,12,173.8,923.2)" />
</g>
<path d="M119.8,967.6h89.8m16,0h29.2m16.9,0H320" class="g4_11" />
<g fill="#000000" >
<use xlink:href="#f0_m" transform="matrix(6.9,0,0,6.9,195.4,978.2)" />
<use xlink:href="#f0_m" transform="matrix(6.9,0,0,6.9,285.1,978.2)" />
<use xlink:href="#f0_m" transform="matrix(11.9,0,0,11.9,160.4,960.8)" />
</g>
<g clip-path="url(#c56_11)">
<g fill="#000000" >
<use xlink:href="#f0_c" transform="matrix(11.9,0,0,11.9,120.6,986.5)" />
<use xlink:href="#f0_l" transform="matrix(11.9,0,0,11.9,125.2,986.5)" />
<use xlink:href="#f0_d" transform="matrix(11.9,0,0,11.9,154.7,986.5)" />
<use xlink:href="#f0_c" transform="matrix(11.9,0,0,11.9,160.8,986.5)" />
<use xlink:href="#f0_l" transform="matrix(11.9,0,0,11.9,165.4,986.5)" />
<use xlink:href="#f0_d" transform="matrix(11.9,0,0,11.9,202.8,986.5)" />
<use xlink:href="#f0_l" transform="matrix(11.9,0,0,11.9,224.8,986.5)" />
<use xlink:href="#f0_l" transform="matrix(11.9,0,0,11.9,305.6,986.5)" />
</g>
</g>
<g clip-path="url(#c57_11)">
<g fill="#000000" >
<use xlink:href="#f2_11" transform="matrix(11.9,0,0,11.9,235.8,960.8)" />
<use xlink:href="#f2_12" transform="matrix(11.9,0,0,11.9,273.3,960.8)" />
<use xlink:href="#f2_2g" transform="matrix(11.9,0,0,11.9,284.5,960.8)" />
<use xlink:href="#f2_13" transform="matrix(11.9,0,0,11.9,305.9,960.8)" />
</g>
</g>
<g fill="#000000" >
<use xlink:href="#f2_2g" transform="matrix(11.9,0,0,11.9,148.5,986.5)" />
<use xlink:href="#f2_2g" transform="matrix(11.9,0,0,11.9,188.6,986.5)" />
<use xlink:href="#f2_2g" transform="matrix(11.9,0,0,11.9,247.8,986.5)" />
<use xlink:href="#f2_2g" transform="matrix(11.9,0,0,11.9,278.4,986.5)" />
</g>
<g clip-path="url(#c58_11)">
<g fill="#000000" >
<use xlink:href="#f1_f" transform="matrix(11.9,0,0,11.9,293.2,960.8)" />
</g>
</g>
<g fill="#000000" >
<use xlink:href="#f1_x" transform="matrix(11.9,0,0,11.9,212.9,972.2)" />
<use xlink:href="#f1_f" transform="matrix(11.9,0,0,11.9,257.9,972.2)" />
</g>
<g clip-path="url(#c59_11)">
<g fill="#000000" >
<use xlink:href="#f1_h" transform="matrix(11.9,0,0,11.9,135.8,986.5)" />
<use xlink:href="#f1_f" transform="matrix(11.9,0,0,11.9,175.8,986.5)" />
<use xlink:href="#f1_h" transform="matrix(11.9,0,0,11.9,235.4,986.5)" />
<use xlink:href="#f1_f" transform="matrix(11.9,0,0,11.9,294.8,986.5)" />
</g>
</g>
<path d="M226.5,1042.7H403.4" class="g1_11" />
<g fill="#000000" >
<use xlink:href="#f0_m" transform="matrix(6.9,0,0,6.9,252.8,1027.5)" />
<use xlink:href="#f0_m" transform="matrix(6.9,0,0,6.9,325.2,1053.4)" />
</g>
<g clip-path="url(#c60_11)">
<g fill="#000000" >
<use xlink:href="#f0_c" transform="matrix(12,0,0,12,240,1035.8)" />
<use xlink:href="#f0_l" transform="matrix(12,0,0,12,273.3,1035.8)" />
<use xlink:href="#f0_d" transform="matrix(12,0,0,12,281,1035.8)" />
<use xlink:href="#f0_c" transform="matrix(12,0,0,12,302.3,1035.8)" />
<use xlink:href="#f0_d" transform="matrix(12,0,0,12,355.1,1035.8)" />
<use xlink:href="#f0_c" transform="matrix(12,0,0,12,363.5,1035.8)" />
<use xlink:href="#f0_l" transform="matrix(12,0,0,12,368.1,1035.8)" />
<use xlink:href="#f0_d" transform="matrix(12,0,0,12,396.5,1035.8)" />
</g>
</g>
<g fill="#000000" >
<use xlink:href="#f0_c" transform="matrix(12,0,0,12,270.4,1061.6)" />
<use xlink:href="#f0_l" transform="matrix(12,0,0,12,275,1061.6)" />
<use xlink:href="#f0_d" transform="matrix(12,0,0,12,303.9,1061.6)" />
<use xlink:href="#f0_c" transform="matrix(12,0,0,12,312.4,1061.6)" />
<use xlink:href="#f0_l" transform="matrix(12,0,0,12,345.7,1061.6)" />
<use xlink:href="#f0_d" transform="matrix(12,0,0,12,353.4,1061.6)" />
</g>
<g clip-path="url(#c61_11)">
<g fill="#000000" >
<use xlink:href="#f2_11" transform="matrix(12,0,0,12,229.2,1035.8)" />
<use xlink:href="#f2_2g" transform="matrix(12,0,0,12,246,1035.8)" />
<use xlink:href="#f2_12" transform="matrix(12,0,0,12,309.4,1035.8)" />
<use xlink:href="#f2_2g" transform="matrix(12,0,0,12,320.8,1035.8)" />
<use xlink:href="#f2_13" transform="matrix(12,0,0,12,341.7,1035.8)" />
<use xlink:href="#f2_2g" transform="matrix(12,0,0,12,390,1035.8)" />
</g>
</g>
<g fill="#000000" >
<use xlink:href="#f2_2g" transform="matrix(12,0,0,12,297.7,1061.6)" />
<use xlink:href="#f2_2g" transform="matrix(12,0,0,12,318.4,1061.6)" />
</g>
<g clip-path="url(#c62_11)">
<g fill="#000000" >
<use xlink:href="#f1_f" transform="matrix(12,0,0,12,262.5,1035.8)" />
<use xlink:href="#f1_f" transform="matrix(12,0,0,12,289.6,1035.8)" />
<use xlink:href="#f1_f" transform="matrix(12,0,0,12,329.4,1035.8)" />
<use xlink:href="#f1_h" transform="matrix(12,0,0,12,378.2,1035.8)" />
</g>
</g>
<g fill="#000000" >
<use xlink:href="#f1_x" transform="matrix(12,0,0,12,213.6,1047.3)" />
<use xlink:href="#f1_h" transform="matrix(12,0,0,12,285.1,1061.6)" />
<use xlink:href="#f1_f" transform="matrix(12,0,0,12,334.7,1061.6)" />
<use xlink:href="#f0_m" transform="matrix(6.9,0,0,6.9,176,1098.7)" />
<use xlink:href="#f0_m" transform="matrix(6.9,0,0,6.9,305.8,1098.7)" />
<use xlink:href="#f0_m" transform="matrix(12,0,0,12,132.6,1106.7)" />
</g>
<g clip-path="url(#c63_11)">
<g fill="#000000" >
<use xlink:href="#f2_11" transform="matrix(12,0,0,12,158,1106.7)" />
<use xlink:href="#f2_2g" transform="matrix(12,0,0,12,169.2,1106.7)" />
<use xlink:href="#f2_11" transform="matrix(12,0,0,12,200,1106.7)" />
<use xlink:href="#f2_12" transform="matrix(12,0,0,12,226.6,1106.7)" />
<use xlink:href="#f2_2g" transform="matrix(12,0,0,12,237.7,1106.7)" />
<use xlink:href="#f2_13" transform="matrix(12,0,0,12,258.8,1106.7)" />
<use xlink:href="#f2_12" transform="matrix(12,0,0,12,287.8,1106.7)" />
<use xlink:href="#f2_2g" transform="matrix(12,0,0,12,298.9,1106.7)" />
<use xlink:href="#f2_13" transform="matrix(12,0,0,12,327.3,1106.7)" />
<use xlink:href="#f2_2g" transform="matrix(12,0,0,12,339.6,1106.7)" />
</g>
</g>
<g clip-path="url(#c64_11)">
<g fill="#000000" >
<use xlink:href="#f1_1s" transform="matrix(12,0,0,12,116.8,1106.7)" />
<use xlink:href="#f1_x" transform="matrix(12,0,0,12,143.9,1106.7)" />
<use xlink:href="#f1_f" transform="matrix(12,0,0,12,185.5,1106.7)" />
<use xlink:href="#f1_f" transform="matrix(12,0,0,12,213.2,1106.7)" />
<use xlink:href="#f1_f" transform="matrix(12,0,0,12,246.3,1106.7)" />
<use xlink:href="#f1_h" transform="matrix(12,0,0,12,274.5,1106.7)" />
<use xlink:href="#f1_h" transform="matrix(12,0,0,12,315.2,1106.7)" />
</g>
</g>
<g fill="#000000" >
<use xlink:href="#f0_m" transform="matrix(6.9,0,0,6.9,193.8,1138.8)" />
</g>
<g clip-path="url(#c65_11)">
<g fill="#000000" >
<use xlink:href="#f0_c" transform="matrix(12,0,0,12,131.8,1146.9)" />
<use xlink:href="#f0_d" transform="matrix(12,0,0,12,178.9,1146.9)" />
<use xlink:href="#f0_c" transform="matrix(12,0,0,12,215.9,1146.9)" />
<use xlink:href="#f0_d" transform="matrix(12,0,0,12,263.6,1146.9)" />
<use xlink:href="#f0_c" transform="matrix(12,0,0,12,290.9,1146.9)" />
<use xlink:href="#f0_d" transform="matrix(12,0,0,12,337.6,1146.9)" />
</g>
</g>
<g clip-path="url(#c66_11)">
<g fill="#000000" >
<use xlink:href="#f2_11" transform="matrix(12,0,0,12,139.9,1146.9)" />
<use xlink:href="#f2_12" transform="matrix(12,0,0,12,167.4,1146.9)" />
<use xlink:href="#f2_2g" transform="matrix(12,0,0,12,187,1146.9)" />
<use xlink:href="#f2_12" transform="matrix(12,0,0,12,223.1,1146.9)" />
<use xlink:href="#f2_13" transform="matrix(12,0,0,12,250.2,1146.9)" />
<use xlink:href="#f2_2g" transform="matrix(12,0,0,12,269.6,1146.9)" />
<use xlink:href="#f2_11" transform="matrix(12,0,0,12,298.7,1146.9)" />
<use xlink:href="#f2_13" transform="matrix(12,0,0,12,324.2,1146.9)" />
</g>
</g>
<g clip-path="url(#c67_11)">
<g fill="#000000" >
<use xlink:href="#f1_x" transform="matrix(12,0,0,12,119.5,1146.9)" />
<use xlink:href="#f1_h" transform="matrix(12,0,0,12,153.6,1146.9)" />
<use xlink:href="#f1_f" transform="matrix(12,0,0,12,203.3,1146.9)" />
<use xlink:href="#f1_h" transform="matrix(12,0,0,12,237.5,1146.9)" />
<use xlink:href="#f1_f" transform="matrix(12,0,0,12,278.2,1146.9)" />
<use xlink:href="#f1_f" transform="matrix(12,0,0,12,311.9,1146.9)" />
</g>
</g>
<g clip-path="url(#c68_11)">
<g fill="#000000" >
<use xlink:href="#f0_k" transform="matrix(11.8,0,0,11.8,190.5,1183.4)" />
<use xlink:href="#f0_g" transform="matrix(11.8,0,0,11.8,199.3,1183.4)" />
<use xlink:href="#f0_k" transform="matrix(11.8,0,0,11.8,264.2,1183.4)" />
<use xlink:href="#f0_m" transform="matrix(11.8,0,0,11.8,347.9,1183.4)" />
</g>
</g>
<g fill="#000000" >
<use xlink:href="#f2_11" transform="matrix(11.8,0,0,11.8,137.3,1183.4)" />
<use xlink:href="#f2_12" transform="matrix(11.8,0,0,11.8,164.1,1183.4)" />
<use xlink:href="#f2_12" transform="matrix(11.8,0,0,11.8,210.2,1183.4)" />
<use xlink:href="#f2_13" transform="matrix(11.8,0,0,11.8,236.3,1183.4)" />
<use xlink:href="#f2_11" transform="matrix(11.8,0,0,11.8,294.2,1183.4)" />
<use xlink:href="#f2_13" transform="matrix(11.8,0,0,11.8,319.7,1183.4)" />
</g>
<g clip-path="url(#c69_11)">
<g fill="#000000" >
<use xlink:href="#f1_1s" transform="matrix(11.8,0,0,11.8,116.8,1183.4)" />
<use xlink:href="#f1_h" transform="matrix(11.8,0,0,11.8,150.5,1183.4)" />
<use xlink:href="#f1_x" transform="matrix(11.8,0,0,11.8,178.2,1183.4)" />
<use xlink:href="#f1_h" transform="matrix(11.8,0,0,11.8,224.2,1183.4)" />
<use xlink:href="#f1_x" transform="matrix(11.8,0,0,11.8,251.8,1183.4)" />
<use xlink:href="#f1_f" transform="matrix(11.8,0,0,11.8,307.4,1183.4)" />
<use xlink:href="#f1_x" transform="matrix(11.8,0,0,11.8,335.4,1183.4)" />
</g>
</g>
<g fill="#000000" >
<use xlink:href="#f3_l" transform="matrix(8,0,0,8,785.4,1264.3)" />
<use xlink:href="#f3_l" transform="matrix(8,0,0,8,792.2,1264.3)" />
</g>
<defs>
<path d="M24,0V27H60c0,0,63,0,91,37c0,0,18,24,18,115V833c0,0,0,77,-10,102c0,0,-7,18,-30,32c0,0,-32,18,-69,18H24v27H776L787,790H761c0,0,-20,71,-45,104c0,0,-26,33,-64,48c0,0,-37,15,-117,15H312V558H497c0,0,63,0,93,28c0,0,29,28,39,111h27V355H629c0,0,-1,59,-16,87c0,0,-14,27,-40,41c0,0,-26,14,-76,14H312V179c0,0,0,-77,10,-102c0,0,7,-18,31,-32c0,0,33,-18,69,-18h37V0Z" 
id="f0_16"
transform="scale(0.001,-0.001)" />

<path d="M55,0V26c0,0,50,0,67,10c0,0,17,10,27,32c0,0,10,23,10,86V418c0,0,0,111,-6,144c0,0,-6,24,-17,33c0,0,-11,10,-30,10c0,0,-21,0,-51,-11L45,620l206,83h33V154c0,0,0,-64,9,-85c0,0,9,-22,27,-32c0,0,19,-11,67,-11V0ZM222,909c0,0,-32,0,-54,23c0,0,-22,22,-22,53c0,0,0,32,22,54c0,0,22,22,54,22c0,0,31,0,53,-22c0,0,22,-22,22,-54c0,0,0,-31,-22,-53c0,0,-22,-23,-53,-23Z" 
id="f0_25"
transform="scale(0.001,-0.001)" />

<path d="M21,0V26H35c0,0,53,0,71,27c0,0,18,27,18,101V408c0,0,0,123,-5,150c0,0,-6,27,-17,37c0,0,-12,10,-31,10c0,0,-21,0,-50,-11L10,620l206,83h32V558c0,0,120,145,229,145c0,0,56,0,96,-28c0,0,40,-28,64,-92c0,0,16,-45,16,-137V154c0,0,0,-65,11,-88c0,0,8,-19,26,-29c0,0,18,-11,68,-11V0H419V26h14c0,0,47,0,66,15c0,0,20,15,27,43c0,0,3,11,3,70V434c0,0,0,93,-24,135c0,0,-24,42,-81,42c0,0,-88,0,-176,-97V154c0,0,0,-69,9,-86c0,0,10,-21,28,-31c0,0,19,-11,75,-11V0Z" 
id="f0_2a"
transform="scale(0.001,-0.001)" />

<path d="M399,62c0,0,68,0,131,68V481c0,0,-5,51,-27,93c0,0,-22,42,-59,63c0,0,-37,21,-72,21c0,0,-65,0,-117,-59c0,0,-67,-77,-67,-226c0,0,0,-151,65,-231c0,0,66,-80,146,-80ZM330,-20c0,0,-112,0,-196,93c0,0,-83,94,-83,240c0,0,0,147,92,269c0,0,93,122,238,122c0,0,90,0,149,-58V773c0,0,0,117,-6,144c0,0,-5,27,-17,37c0,0,-12,9,-30,9c0,0,-20,0,-52,-12l-9,27l204,83h33V270c0,0,0,-120,6,-146c0,0,5,-27,18,-37c0,0,12,-11,28,-11c0,0,21,0,54,13l9,-26L564,-20H530V78C530,78,480,25,432,2c0,0,-47,-22,-102,-22Z" 
id="f0_20"
transform="scale(0.001,-0.001)" />

<path d="M255,-10c0,0,-35,0,-68,18c0,0,-32,19,-48,55c0,0,-16,35,-16,109V632H15v24c0,0,41,16,84,56c0,0,43,39,77,92c0,0,17,29,48,104h23V683H407V632H247V188c0,0,0,-66,19,-90c0,0,19,-23,49,-23c0,0,24,0,47,16c0,0,23,15,36,45h29c0,0,-26,-73,-74,-110c0,0,-47,-36,-98,-36Z" 
id="f0_2g"
transform="scale(0.001,-0.001)" />

<path d="M20,0V26c0,0,45,0,71,15c0,0,15,7,24,28c0,0,9,21,9,85V773c0,0,0,117,-5,144c0,0,-6,27,-17,37c0,0,-12,9,-31,9c0,0,-16,0,-51,-12L10,978l204,83h34V561c0,0,83,91,131,116c0,0,49,26,97,26c0,0,58,0,100,-32c0,0,42,-32,62,-101c0,0,14,-47,14,-174V154c0,0,0,-65,11,-89c0,0,7,-18,25,-28c0,0,18,-11,66,-11V0H418V26h15c0,0,48,0,67,15c0,0,18,15,26,43c0,0,2,12,2,70V396c0,0,0,112,-12,147c0,0,-11,35,-36,53c0,0,-26,17,-61,17c0,0,-37,0,-76,-19c0,0,-40,-20,-95,-79V154c0,0,0,-70,8,-87c0,0,8,-17,29,-29c0,0,22,-12,74,-12V0Z" 
id="f0_24"
transform="scale(0.001,-0.001)" />

<path d="M479,469c0,0,-4,66,-16,93c0,0,-18,42,-55,65c0,0,-37,24,-78,24c0,0,-62,0,-111,-48c0,0,-48,-48,-57,-134ZM355,-20c0,0,-123,0,-211,95c0,0,-87,96,-87,258c0,0,0,175,90,273c0,0,89,98,225,98c0,0,115,0,189,-76c0,0,74,-75,74,-202H162c0,0,0,-152,74,-239c0,0,75,-86,175,-86c0,0,67,0,117,36c0,0,50,37,83,127l24,-15c0,0,-16,-102,-91,-186c0,0,-76,-83,-189,-83Z" 
id="f0_21"
transform="scale(0.001,-0.001)" />

<path d="M17,0V26c0,0,52,0,77,17c0,0,19,12,26,38c0,0,4,13,4,73V419c0,0,0,119,-5,142c0,0,-4,23,-17,33c0,0,-13,11,-33,11c0,0,-23,0,-52,-11l-7,26l207,83h31V549c0,0,86,154,176,154c0,0,41,0,68,-25c0,0,27,-25,27,-58c0,0,0,-29,-20,-49c0,0,-19,-20,-46,-20c0,0,-26,0,-58,25c0,0,-33,26,-48,26c0,0,-14,0,-29,-15c0,0,-34,-30,-70,-101V159c0,0,0,-56,15,-85c0,0,9,-20,34,-34c0,0,24,-14,71,-14V0Z" 
id="f0_2e"
transform="scale(0.001,-0.001)" />

<path d="M376,-20L133,556c0,0,-17,41,-31,58c0,0,-15,18,-39,30c0,0,-12,7,-50,13v26H335V657H314c0,0,-29,0,-44,-14c0,0,-16,-14,-15,-38c0,0,-1,-26,15,-62L429,165L588,557c0,0,17,42,17,64c0,0,0,10,-6,17c0,0,-8,11,-21,15c0,0,-13,4,-52,4v26H750V657c0,0,-39,-3,-54,-16c0,0,-26,-23,-47,-76L409,-20Z" 
id="f0_2i"
transform="scale(0.001,-0.001)" />

<path d="M286,72c0,0,57,0,149,75V407c0,0,-113,-45,-145,-64c0,0,-59,-32,-85,-68c0,0,-25,-36,-25,-78c0,0,0,-54,32,-89c0,0,32,-36,74,-36ZM217,-13c0,0,-71,0,-116,48c0,0,-46,48,-46,127c0,0,0,50,22,87c0,0,31,50,106,95c0,0,76,45,252,109v26c0,0,0,102,-32,140c0,0,-32,38,-94,38c0,0,-47,0,-74,-25c0,0,-28,-25,-28,-58l1,-43c0,0,0,-34,-17,-53c0,0,-18,-18,-47,-18c0,0,-28,0,-45,19c0,0,-18,19,-18,53c0,0,0,64,66,117c0,0,65,54,184,54c0,0,91,0,149,-31c0,0,44,-23,65,-72c0,0,13,-32,13,-131V238c0,0,0,-98,4,-120c0,0,4,-22,12,-29c0,0,9,-8,20,-8c0,0,12,0,21,5c0,0,16,10,61,55V99C676,99,592,-12,516,-12c0,0,-37,0,-58,24c0,0,-22,26,-23,86C435,98,330,17,303,5c0,0,-40,-18,-86,-18Z" 
id="f0_1x"
transform="scale(0.001,-0.001)" />

<path d="M58,0V26c0,0,47,0,64,10c0,0,18,10,28,32c0,0,9,23,9,86V775c0,0,0,116,-5,142c0,0,-5,27,-17,37c0,0,-11,9,-29,9c0,0,-20,0,-49,-12L46,978l204,83h34V154c0,0,0,-64,9,-85c0,0,9,-21,29,-32c0,0,19,-11,72,-11V0Z" 
id="f0_28"
transform="scale(0.001,-0.001)" />

<path d="M312,-20c0,0,-62,0,-143,22c0,0,-25,8,-40,8c0,0,-18,0,-27,-19H77V234h25c0,0,21,-105,80,-158c0,0,59,-53,132,-53c0,0,51,0,84,31c0,0,32,30,32,72c0,0,0,52,-36,87c0,0,-36,35,-144,88c0,0,-109,54,-142,97c0,0,-34,43,-34,107c0,0,0,85,58,141c0,0,58,57,150,57c0,0,40,0,97,-17c0,0,38,-11,51,-11c0,0,12,0,19,5c0,0,7,5,15,23h25V470H464c0,0,-28,110,-72,149c0,0,-45,40,-113,40c0,0,-53,0,-85,-28c0,0,-32,-27,-32,-61c0,0,0,-41,24,-71c0,0,23,-31,94,-65L389,381c0,0,152,-74,152,-194c0,0,0,-94,-71,-151c0,0,-70,-56,-158,-56Z" 
id="f0_2f"
transform="scale(0.001,-0.001)" />

<path d="M336,-20L117,554c0,0,-21,55,-42,74c0,0,-21,19,-66,29v26H296V657c0,0,-40,-3,-52,-14c0,0,-13,-12,-13,-33c0,0,0,-23,13,-56L390,162L537,481L498,581c0,0,-18,46,-47,63c0,0,-17,11,-61,13v26H716V657c0,0,-54,-2,-77,-20c0,0,-15,-12,-15,-39c0,0,0,-15,6,-30L785,177L929,554c0,0,15,40,15,65c0,0,0,14,-15,25c0,0,-14,12,-57,13v26h216V657c0,0,-65,-10,-95,-89L764,-20H733L563,415L363,-20Z" 
id="f0_2j"
transform="scale(0.001,-0.001)" />

<path d="M342,-20c0,0,-116,0,-203,97c0,0,-86,98,-86,264c0,0,0,161,96,261c0,0,95,101,230,101c0,0,100,0,165,-53c0,0,65,-54,65,-111c0,0,0,-29,-18,-46c0,0,-18,-18,-51,-18c0,0,-44,0,-66,29c0,0,-13,15,-17,59c0,0,-4,45,-30,68c0,0,-26,22,-73,22c0,0,-74,0,-120,-55c0,0,-60,-73,-60,-193c0,0,0,-122,60,-216c0,0,60,-93,162,-93c0,0,73,0,131,49c0,0,41,35,80,126l22,-10C629,261,601,125,521,52c0,0,-81,-72,-179,-72Z" 
id="f0_1z"
transform="scale(0.001,-0.001)" />

<path d="M63,0V26H93c0,0,30,0,54,15c0,0,25,15,34,41c0,0,10,25,10,99V630H58v53H191v45c0,0,0,102,33,173c0,0,32,71,100,114c0,0,68,44,152,44c0,0,79,0,145,-51c0,0,43,-33,43,-75c0,0,0,-22,-19,-42c0,0,-20,-20,-42,-20c0,0,-17,0,-36,12c0,0,-19,13,-47,53c0,0,-28,41,-51,55c0,0,-23,14,-51,14c0,0,-35,0,-58,-18c0,0,-24,-18,-35,-57c0,0,-10,-38,-10,-197V683H491V630H315V181c0,0,0,-96,21,-122c0,0,27,-33,73,-33h62V0Z" 
id="f0_22"
transform="scale(0.001,-0.001)" />

<path d="M292,-20c0,0,-57,0,-100,33c0,0,-42,33,-58,85c0,0,-17,52,-17,148V551c0,0,0,49,-10,68c0,0,-11,18,-31,29c0,0,-19,9,-68,9c-2,0,-4,0,-6,0v26H242V226c0,0,0,-95,33,-125c0,0,33,-30,80,-30c0,0,32,0,73,21c0,0,40,20,96,76V555c0,0,0,59,-21,80c0,0,-22,21,-89,22v26H647V269c0,0,0,-119,6,-145c0,0,6,-27,18,-37c0,0,12,-11,29,-11c0,0,23,0,52,13L763,63L558,-20H524V124C524,124,436,29,390,4c0,0,-47,-24,-98,-24Z" 
id="f0_2h"
transform="scale(0.001,-0.001)" />

<path d="M406,32c0,0,72,0,119,60c0,0,47,59,47,205c0,0,0,181,-78,286c0,0,-53,71,-135,71c0,0,-40,0,-79,-23c0,0,-40,-24,-65,-83c0,0,-24,-58,-24,-151c0,0,0,-149,59,-257c0,0,59,-108,156,-108ZM374,-20c0,0,-154,0,-245,122c0,0,-77,104,-77,233c0,0,0,94,46,187c0,0,47,92,123,137c0,0,76,44,161,44c0,0,155,0,249,-118c0,0,80,-100,80,-231c0,0,0,-91,-44,-185C667,169,623,75,546,27c0,0,-77,-47,-172,-47Z" 
id="f0_2b"
transform="scale(0.001,-0.001)" />

<path d="M412,-328c0,0,-195,96,-303,284C109,-44,0,142,0,365c0,0,0,232,114,422c0,0,114,191,298,273v-31c0,0,-92,-51,-151,-139c0,0,-59,-88,-88,-223c0,0,-29,-136,-29,-282c0,0,0,-167,27,-301c0,0,26,-133,82,-221c0,0,55,-89,159,-159v-32Z" 
id="f1_c"
transform="scale(0.001,-0.001)" />

<path d="M34,-328v32c0,0,92,50,151,138c0,0,59,88,88,222c0,0,29,135,29,283c0,0,0,165,-27,300c0,0,-26,134,-82,222c0,0,-56,89,-159,160v31c0,0,194,-96,303,-284c0,0,108,-187,108,-410c0,0,0,-232,-114,-422c0,0,-114,-191,-297,-272Z" 
id="f1_d"
transform="scale(0.001,-0.001)" />

<path d="M452,373V875L97,373ZM452,0V267H23v95l470,671h82V373H711V267H575V0Z" 
id="f0_o"
transform="scale(0.001,-0.001)" />

<path d="M238,-17c0,0,-103,0,-139,25C99,8,62,33,62,62c0,0,0,22,17,38c0,0,18,16,42,16c0,0,19,0,38,-6c0,0,13,-3,58,-27c0,0,45,-23,62,-28c0,0,27,-8,59,-8c0,0,76,0,132,59c0,0,56,59,56,140c0,0,0,59,-26,115c0,0,-19,41,-42,63c0,0,-32,30,-88,54c0,0,-56,25,-114,25H232v22c0,0,59,8,118,42c0,0,59,35,86,85c0,0,27,49,27,108c0,0,0,76,-48,124c0,0,-48,47,-120,47c0,0,-116,0,-193,-124L77,819c0,0,44,102,110,158c0,0,66,56,164,56c0,0,122,0,187,-80c0,0,49,-58,49,-126c0,0,0,-110,-139,-228c0,0,93,-36,141,-104c0,0,48,-68,48,-160c0,0,0,-131,-84,-227C553,108,444,-17,238,-17Z" 
id="f0_n"
transform="scale(0.001,-0.001)" />

<path d="M33,0V27c0,0,264,241,371,393c0,0,108,152,108,278c0,0,0,96,-59,158c0,0,-59,62,-141,62c0,0,-75,0,-134,-43c0,0,-59,-44,-88,-128H63c0,0,18,138,95,212c0,0,77,74,193,74c0,0,123,0,205,-80c0,0,83,-79,83,-186c0,0,0,-77,-36,-154c0,0,-55,-121,-179,-256C424,357,238,154,191,112H455c0,0,81,0,114,6c0,0,32,6,58,25c0,0,27,18,46,52h27L630,0Z" 
id="f0_m"
transform="scale(0.001,-0.001)" />

<path d="M247,-17c0,0,-91,0,-132,30c0,0,-42,31,-42,68c0,0,0,21,17,37c0,0,18,16,44,17c0,0,19,0,34,-6c0,0,14,-7,49,-31c0,0,56,-39,113,-39c0,0,88,0,154,66c0,0,66,66,66,161c0,0,0,92,-59,171c0,0,-59,80,-163,123c0,0,-81,34,-221,39l194,393H663L605,885H301L234,750c0,0,198,-29,313,-147c0,0,100,-102,100,-239c0,0,0,-80,-33,-148c0,0,-32,-68,-81,-116c0,0,-50,-47,-110,-77c0,0,-86,-40,-176,-40Z" 
id="f0_p"
transform="scale(0.001,-0.001)" />

<path d="M197,0V27c0,0,71,2,92,13c0,0,21,10,29,29c0,0,9,18,9,109V725c0,0,0,110,-8,141c0,0,-5,24,-19,35c0,0,-14,11,-33,11c0,0,-28,0,-77,-23l-11,23l246,121h25V178c0,0,0,-85,7,-106c0,0,7,-21,29,-32c0,0,23,-11,91,-13V0Z" 
id="f0_l"
transform="scale(0.001,-0.001)" />

<path d="M22,-17c0,0,-29,0,-54,21c0,0,-18,16,-18,44c0,0,0,25,17,41c0,0,16,17,39,17c0,0,24,0,50,-24C56,82,76,65,86,65c0,0,9,0,23,11c0,0,35,28,95,122c0,0,61,93,79,134c0,0,-46,182,-49,193c0,0,-17,49,-45,69c0,0,-27,20,-81,20c0,0,-17,0,-40,-1v26l199,36c0,0,37,-39,55,-78c0,0,14,-26,44,-141l66,99c0,0,26,35,64,68c0,0,37,32,65,44c0,0,18,8,40,8c0,0,32,0,51,-17c0,0,19,-18,19,-42c0,0,0,-29,-11,-39c0,0,-21,-19,-48,-19c0,0,-16,0,-34,7c0,0,-35,12,-47,12c0,0,-18,0,-43,-21c0,0,-46,-39,-111,-150L439,150c0,0,14,-59,24,-71c0,0,10,-11,20,-11c0,0,15,0,37,17c0,0,41,34,70,89l27,-13C617,161,569,73,497,15c0,0,-41,-32,-70,-32c0,0,-42,0,-66,46c0,0,-16,29,-64,251C297,280,180,78,110,20c0,0,-46,-37,-88,-37Z" 
id="f2_2k"
transform="scale(0.001,-0.001)" />

<path d="M-162,-328c0,0,-45,0,-77,26c0,0,-23,19,-23,49c0,0,0,23,19,41c0,0,19,17,47,17c0,0,20,0,34,-12c0,0,13,-13,13,-29c0,0,0,-17,-15,-31c0,0,-12,-10,-12,-16c0,0,0,-6,5,-10c0,0,7,-5,21,-5c0,0,32,0,67,20c0,0,36,20,63,60c0,0,27,40,52,115c0,0,10,32,58,205L233,608H89l10,49c0,0,69,0,96,9c0,0,28,8,50,32c0,0,23,25,55,91c0,0,42,90,81,139c0,0,53,66,112,100c0,0,58,33,110,33c0,0,54,0,88,-29c0,0,33,-28,33,-62c0,0,0,-26,-18,-44c0,0,-17,-18,-44,-18c0,0,-23,0,-37,14c0,0,-15,13,-15,32c0,0,0,12,10,29c0,0,10,18,10,24c0,0,0,10,-6,15c0,0,-9,8,-27,8c0,0,-43,0,-77,-31c0,0,-46,-41,-83,-127c0,0,-18,-45,-74,-215H473L460,608H350L260,279C260,279,201,65,145,-51c0,0,-79,-166,-169,-229c0,0,-69,-48,-138,-48Z" 
id="f2_22"
transform="scale(0.001,-0.001)" />

<path d="M0,214v74H784V214ZM0,494v72H784V494Z" 
id="f1_x"
transform="scale(0.001,-0.001)" />

<path d="M0,356v74H784V356Z" 
id="f1_h"
transform="scale(0.001,-0.001)" />

<path d="M355,0V355H0v72H355V784h72V427H782V355H427V0Z" 
id="f1_f"
transform="scale(0.001,-0.001)" />

<path d="M474,-326c0,0,-112,57,-188,133c0,0,-107,108,-165,254c0,0,-58,147,-58,305c0,0,0,231,114,421c0,0,114,191,297,273v-31c0,0,-92,-51,-151,-139c0,0,-59,-88,-88,-223c0,0,-30,-135,-30,-281c0,0,0,-160,25,-290c0,0,20,-102,47,-164c0,0,28,-62,75,-120c0,0,47,-57,122,-109v-29Z" 
id="f0_c"
transform="scale(0.001,-0.001)" />

<path d="M35,-326v29c0,0,92,51,151,139c0,0,60,87,89,221c0,0,28,136,28,282c0,0,0,159,-24,290c0,0,-19,103,-47,165c0,0,-28,62,-75,119c0,0,-46,57,-122,110v31c0,0,113,-56,188,-132c0,0,107,-109,165,-255c0,0,58,-147,58,-306c0,0,0,-231,-114,-420c0,0,-113,-191,-297,-273Z" 
id="f0_d"
transform="scale(0.001,-0.001)" />

<path d="M145,-328c0,0,-44,0,-73,25c0,0,-28,25,-28,58c0,0,0,31,21,50c0,0,20,19,56,19c0,0,25,0,67,-16c0,0,30,-11,38,-11c0,0,22,0,49,23c0,0,26,23,53,89L376,28L131,542c0,0,-11,24,-36,58c0,0,-19,27,-30,36c0,0,-18,12,-56,21v26H328V657H312c0,0,-33,0,-50,-15c0,0,-17,-14,-17,-36c0,0,0,-30,25,-81L437,179L589,557c0,0,12,31,12,62c0,0,0,13,-5,20c0,0,-6,8,-19,13c0,0,-12,5,-44,5v26H754V657c0,0,-27,-3,-42,-12c0,0,-15,-9,-33,-34c0,0,-7,-10,-25,-58L376,-128c0,0,-40,-99,-105,-150c0,0,-66,-50,-126,-50Z" 
id="f0_2l"
transform="scale(0.001,-0.001)" />

<path d="M411,-239c0,0,134,0,198,48c0,0,64,47,64,100c0,0,0,39,-38,55c0,0,-39,16,-154,19c0,0,-167,5,-258,17c0,0,-35,-37,-53,-70c0,0,-17,-32,-17,-60c0,0,0,-36,43,-62c0,0,74,-47,215,-47ZM380,257c0,0,56,0,93,43c0,0,36,42,36,133c0,0,0,118,-51,185c0,0,-38,49,-98,49c0,0,-55,0,-92,-44c0,0,-37,-44,-37,-135c0,0,0,-117,50,-182c0,0,39,-49,99,-49ZM345,-328c0,0,-144,0,-243,64c0,0,-56,38,-56,78c0,0,0,18,8,36c0,0,13,27,52,76c0,0,5,7,76,80c0,0,-39,23,-55,41c0,0,-16,19,-16,42c0,0,0,26,22,61c0,0,21,35,98,100c0,0,-63,30,-97,85c0,0,-33,55,-33,121c0,0,0,101,76,174c0,0,77,73,196,73c0,0,98,0,170,-48H688c0,0,32,0,37,-2c0,0,6,-2,8,-6c0,0,4,-7,4,-24c0,0,0,-20,-4,-27c0,0,-2,-4,-7,-6c0,0,-6,-2,-38,-2H599c0,0,41,-54,41,-137c0,0,0,-96,-73,-163c0,0,-73,-68,-196,-68c0,0,-51,0,-104,15c0,0,-33,-28,-44,-49c0,0,-12,-22,-12,-37c0,0,0,-12,13,-24c0,0,12,-12,48,-17c0,0,21,-4,104,-6c0,0,154,-4,199,-11c0,0,70,-10,111,-51c0,0,42,-41,42,-102c0,0,0,-84,-79,-158c0,0,-117,-108,-304,-108Z" 
id="f0_23"
transform="scale(0.001,-0.001)" />

<path d="M82,-253v33c0,0,77,25,119,78c0,0,42,54,42,114c0,0,0,14,-7,23c0,0,-5,6,-11,6c0,0,-8,0,-35,-14c0,0,-14,-7,-28,-7c0,0,-37,0,-58,21C104,1,82,23,82,61c0,0,0,36,28,62c0,0,28,27,68,27c0,0,49,0,88,-43c0,0,38,-43,38,-113c0,0,0,-77,-53,-143c0,0,-53,-66,-169,-104Z" 
id="f0_g"
transform="scale(0.001,-0.001)" />

<path d="M397,34c0,0,67,0,126,75c0,0,58,74,58,216c0,0,0,131,-58,201c0,0,-59,70,-133,70c0,0,-39,0,-79,-20c0,0,-29,-14,-75,-59V109c0,0,37,-37,78,-56c0,0,40,-19,83,-19ZM358,-20c0,0,-59,0,-121,21c0,0,-61,22,-126,65V773c0,0,0,117,-5,144c0,0,-6,27,-18,37c0,0,-12,9,-29,9c0,0,-21,0,-53,-12l-9,27l205,83h34V564c0,0,98,139,213,139c0,0,105,0,183,-90c0,0,78,-90,78,-245c0,0,0,-182,-121,-293c0,0,-103,-95,-231,-95Z" 
id="f0_1y"
transform="scale(0.001,-0.001)" />

<path d="M191,-20c0,0,-34,0,-58,24c0,0,-24,24,-24,58c0,0,0,35,24,59c0,0,24,24,58,24c0,0,35,0,59,-24c0,0,24,-25,24,-59c0,0,0,-34,-24,-58c0,0,-25,-24,-59,-24Z" 
id="f0_i"
transform="scale(0.001,-0.001)" />

<path d="M107,-21V325h27c0,0,19,-109,52,-163c0,0,33,-54,100,-90c0,0,68,-36,148,-36c0,0,93,0,148,49c0,0,54,50,54,117c0,0,0,37,-21,75c0,0,-20,38,-64,71c0,0,-29,22,-159,95c0,0,-130,72,-185,115c0,0,-55,44,-83,96c0,0,-28,52,-28,114c0,0,0,109,83,188c0,0,84,78,213,78c0,0,81,0,171,-39c0,0,42,-19,59,-19c0,0,20,0,32,11c0,0,12,12,20,47h27V684H674c0,0,-14,101,-48,161c0,0,-35,60,-100,95c0,0,-64,35,-133,35c0,0,-77,0,-128,-47c0,0,-51,-48,-51,-108c0,0,0,-46,32,-84c0,0,47,-56,221,-149c0,0,142,-76,194,-117c0,0,51,-41,80,-96c0,0,28,-55,28,-115c0,0,0,-115,-90,-198c0,0,-89,-82,-229,-82c0,0,-44,0,-83,6c0,0,-23,4,-95,27c0,0,-73,24,-93,24c0,0,-18,0,-29,-11c0,0,-11,-12,-16,-46Z" 
id="f0_1j"
transform="scale(0.001,-0.001)" />

<path d="M213,-20c0,0,-34,0,-58,24c0,0,-24,24,-24,58c0,0,0,34,24,58c0,0,24,25,58,25c0,0,35,0,59,-25c0,0,24,-24,24,-58c0,0,0,-34,-24,-58c0,0,-25,-24,-59,-24Zm3,559c0,0,-35,0,-59,24c0,0,-24,24,-24,58c0,0,0,35,24,59c0,0,24,24,59,24c0,0,34,0,58,-24c0,0,24,-24,24,-59c0,0,0,-34,-24,-58c0,0,-24,-24,-58,-24Z" 
id="f0_u"
transform="scale(0.001,-0.001)" />

<path d="M118,598L78,819c0,0,-17,92,-17,124c0,0,0,48,19,70c0,0,20,21,53,21c0,0,34,0,56,-22c0,0,22,-22,22,-57c0,0,0,-28,-19,-136L152,598Z" 
id="f0_b"
transform="scale(0.001,-0.001)" />

<path d="M379,29c0,0,41,0,84,37c0,0,43,36,65,121c0,0,34,128,34,362c0,0,0,173,-35,288c0,0,-27,86,-69,122c0,0,-31,25,-74,25c0,0,-51,0,-90,-46c0,0,-54,-62,-73,-195c0,0,-20,-132,-20,-261c0,0,0,-209,52,-341c0,0,42,-112,126,-112Zm-2,-46c0,0,-145,0,-241,170c0,0,-81,144,-81,347c0,0,0,173,52,298c0,0,52,125,139,186c0,0,67,49,139,49c0,0,116,0,208,-119c0,0,116,-147,116,-398c0,0,0,-176,-51,-299C658,217,608,94,529,38c0,0,-79,-55,-152,-55Z" 
id="f0_k"
transform="scale(0.001,-0.001)" />

<path d="M45,0V81L673,391L45,704v80L795,412V374L45,0Z" 
id="f1_y"
transform="scale(0.001,-0.001)" />

<path d="M62,286V399H448V286Z" 
id="f0_h"
transform="scale(0.001,-0.001)" />

<path d="M399,105V477H27v62H399V909h60V539H831V477H459V105Z" 
id="f0_f"
transform="scale(0.001,-0.001)" />

<path d="M83,0C83,0,48,0,24,24C24,24,0,49,0,83c0,0,0,34,24,58c0,0,24,24,59,24c0,0,34,0,58,-24c0,0,24,-24,24,-58c0,0,0,-34,-24,-59C141,24,117,0,83,0ZM695,0c0,0,-34,0,-58,24c0,0,-25,25,-25,59c0,0,0,34,25,58c0,0,24,24,58,24c0,0,34,0,58,-24c0,0,24,-24,24,-58c0,0,0,-34,-24,-59C753,24,729,0,695,0ZM388,594c0,0,-34,0,-59,23c0,0,-24,24,-24,59c0,0,0,34,24,58c0,0,25,25,59,25c0,0,34,0,58,-25c0,0,24,-24,24,-58c0,0,0,-35,-24,-59c0,0,-24,-23,-58,-23Z" 
id="f1_1s"
transform="scale(0.001,-0.001)" />

<path d="M398,0C398,0,266,0,185,39c0,0,-82,39,-133,124C52,163,0,248,0,342c0,0,0,144,103,243c0,0,103,98,292,98H694V611H387c0,0,-99,0,-166,-32c0,0,-68,-32,-105,-88c0,0,-26,-40,-41,-113H694V304H75c0,0,30,-120,103,-176c0,0,73,-56,210,-56H694V0Z" 
id="f1_40"
transform="scale(0.001,-0.001)" />

<path d="M585,0C585,0,458,0,354,54c0,0,-105,55,-171,131c0,0,-66,75,-95,170c0,0,-30,94,-30,187V763h70V563c0,0,0,-71,17,-149c0,0,17,-77,50,-127c0,0,47,-72,111,-120c0,0,64,-49,135,-73c0,0,70,-24,145,-24c0,0,190,0,333,145c0,0,124,125,124,346V763h72V543c0,0,0,-111,-39,-208c0,0,-38,-98,-109,-171C967,164,896,91,801,46C801,46,705,0,585,0Z" 
id="f1_3u"
transform="scale(0.001,-0.001)" />

<path d="M213,177c0,0,71,0,125,63c0,0,35,42,88,200c0,0,-37,82,-84,121c0,0,-47,38,-115,38c0,0,-79,0,-133,-55C94,544,41,488,41,395c0,0,0,-99,53,-159c0,0,52,-59,119,-59ZM752,150c0,0,92,0,153,66c0,0,62,66,62,177c0,0,0,109,-65,181c0,0,-65,71,-145,71c0,0,-52,0,-90,-26c0,0,-39,-26,-70,-83c0,0,-18,-34,-78,-190c0,0,56,-117,111,-156c0,0,54,-40,122,-40ZM749,79c0,0,-74,0,-137,54c0,0,-42,36,-114,159c0,0,-48,-92,-105,-133c0,0,-57,-41,-137,-41c0,0,-108,0,-182,77C74,195,0,272,0,394c0,0,0,123,69,198c0,0,68,76,160,76c0,0,64,0,113,-33c0,0,50,-34,106,-138c0,0,50,116,111,162c0,0,60,45,164,45c0,0,121,0,203,-87c0,0,83,-86,83,-224c0,0,0,-137,-81,-225c0,0,-80,-89,-179,-89Z" 
id="f1_2v"
transform="scale(0.001,-0.001)" />

<path d="M751,0L0,371v39L751,783V702L122,392L751,80V0Z" 
id="f1_w"
transform="scale(0.001,-0.001)" />

<path d="M379,437c0,0,34,0,81,16c0,0,47,17,83,47c0,0,14,97,14,155c0,0,0,72,-25,156c0,0,-25,83,-70,128c0,0,-45,45,-103,45c0,0,-66,0,-116,-60c0,0,-50,-59,-50,-177c0,0,0,-157,66,-246c0,0,49,-64,120,-64ZM80,-20V7c0,0,97,1,181,45c0,0,83,44,161,153c0,0,78,109,109,240c0,0,-117,-75,-212,-75c0,0,-107,0,-183,82c0,0,-76,82,-76,219c0,0,0,132,76,236c0,0,92,126,240,126c0,0,124,0,213,-103c0,0,109,-128,109,-315c0,0,0,-169,-82,-314C616,301,533,155,385,59c0,0,-120,-79,-262,-79Z" 
id="f0_t"
transform="scale(0.001,-0.001)" />

<path d="M252,70c0,0,90,0,212,168c0,0,123,168,123,294c0,0,0,47,-30,76c0,0,-30,30,-77,30c0,0,-103,0,-214,-156C266,482,155,327,155,185c0,0,0,-56,28,-85c0,0,29,-30,69,-30ZM185,-17c0,0,-63,0,-109,50C76,33,29,83,29,169c0,0,0,111,77,237c0,0,77,126,203,205c0,0,99,64,182,64c0,0,44,0,75,-17c0,0,32,-16,62,-54l71,247c0,0,11,40,18,64c0,0,9,31,9,50c0,0,0,16,-11,27c0,0,-16,13,-40,13c0,0,-17,0,-57,-6v27l255,42L615,170c0,0,-21,-73,-21,-95c0,0,0,-7,4,-13c0,0,4,-6,8,-6c0,0,7,0,16,9c0,0,16,16,56,88l25,-16c0,0,-43,-73,-88,-114c0,0,-44,-40,-83,-40c0,0,-20,0,-35,17c0,0,-16,18,-16,51c0,0,0,42,22,114l29,94C532,259,413,91,315,27c0,0,-68,-44,-130,-44Z" 
id="f2_20"
transform="scale(0.001,-0.001)" />

<path d="M88,-163c0,0,-39,0,-63,25c0,0,-25,26,-25,65c0,0,0,34,19,54c0,0,19,19,48,19c0,0,30,0,51,-23c0,0,22,-24,37,-24c0,0,12,0,21,11c0,0,8,10,8,35c0,0,0,30,-7,88c0,0,-27,235,-27,620c0,0,13,411,17,446c0,0,17,139,60,188c0,0,43,48,98,48c0,0,37,0,65,-25c0,0,28,-25,28,-54c0,0,0,-35,-19,-57c0,0,-20,-21,-49,-21c0,0,-26,0,-57,27c0,0,-17,15,-30,15c0,0,-12,0,-21,-11c0,0,-8,-11,-8,-37c0,0,0,-31,6,-108c0,0,28,-306,28,-496c0,0,0,-50,-12,-439c0,0,-6,-219,-67,-296c0,0,-41,-50,-101,-50Z" 
id="f1_50"
transform="scale(0.001,-0.001)" />

<path d="M31,0V27H69c0,0,64,0,91,42c0,0,16,24,16,110V833c0,0,0,95,-21,119c0,0,-29,33,-86,33H31v27H488V985c0,0,-1,0,-2,0c-12,0,-81,-1,-111,-15c0,0,-32,-16,-44,-40c0,0,-12,-24,-12,-115V180c0,0,0,-62,12,-85c0,0,9,-16,27,-23c0,0,19,-7,117,-7h74c0,0,116,0,163,17c0,0,48,17,86,61c0,0,39,43,78,138l25,-6L814,0Z" 
id="f0_1c"
transform="scale(0.001,-0.001)" />

<path d="M-46,0l10,26c0,0,62,2,82,11c0,0,33,13,48,35c0,0,25,36,51,126L318,810c0,0,23,76,23,115c0,0,0,20,-10,33c0,0,-10,13,-29,21c0,0,-20,7,-78,7l9,26H619l-8,-26h-2c-8,0,-48,-1,-69,-12c0,0,-33,-16,-51,-46c0,0,-17,-30,-45,-132L271,185c0,0,-23,-78,-23,-100c0,0,0,-17,9,-29c0,0,9,-12,30,-19c0,0,20,-6,85,-11L364,0Z" 
id="f2_19"
transform="scale(0.001,-0.001)" />

<path d="M133,-17c0,0,-31,0,-50,20C83,3,63,23,63,55c0,0,0,40,25,123L228,609H104l8,30c0,0,82,23,139,67c0,0,57,44,128,154h33L351,657H456L443,609H337L203,171c0,0,-25,-75,-25,-97c0,0,0,-12,5,-19c0,0,5,-6,13,-6c0,0,16,0,44,25c0,0,15,15,71,92l24,-19C335,147,270,48,213,9c0,0,-40,-26,-80,-26Z" 
id="f2_2g"
transform="scale(0.001,-0.001)" />

<path d="M548,-21c0,0,-251,0,-389,185C159,164,56,303,56,490c0,0,0,152,68,278c0,0,67,127,186,197c0,0,119,69,260,69c0,0,109,0,216,-53c0,0,31,-17,44,-17c0,0,20,0,35,14c0,0,20,21,28,56h26L943,690H919c0,0,-46,155,-131,224c0,0,-86,68,-206,68c0,0,-100,0,-181,-51c0,0,-81,-52,-128,-163c0,0,-46,-112,-46,-279c0,0,0,-137,44,-238c0,0,44,-101,132,-154c0,0,88,-54,201,-54c0,0,99,0,174,42c0,0,75,42,165,167l23,-14C966,238,890,103,789,40c0,0,-102,-61,-241,-61Z" 
id="f0_13"
transform="scale(0.001,-0.001)" />

<path d="M600,387l39,398L345,387ZM-74,0l8,26c0,0,55,3,97,37c0,0,42,35,125,149l605,822h26L710,193c0,0,-6,-59,-6,-78c0,0,0,-30,11,-46c0,0,14,-22,39,-32c0,0,24,-11,81,-11L827,0H429l8,26h17c0,0,49,0,79,21c0,0,22,15,34,48c0,0,8,23,15,109l13,128H305L202,193c0,0,-35,-47,-44,-68c0,0,-9,-20,-9,-38c0,0,0,-25,20,-42c0,0,19,-17,64,-19L225,0Z" 
id="f2_11"
transform="scale(0.001,-0.001)" />

<path d="M357,55c0,0,117,0,206,70c0,0,90,70,90,191c0,0,0,92,-56,144c0,0,-57,51,-182,51c0,0,-24,0,-59,-3L231,65c0,0,81,-10,126,-10Zm86,508c0,0,158,0,234,68c0,0,77,67,77,169c0,0,0,76,-48,119c0,0,-48,43,-153,43c0,0,-28,0,-71,-9L372,564c0,0,49,-1,71,-1ZM-34,0l10,26c0,0,57,2,78,12c0,0,30,12,42,33c0,0,18,29,48,131L318,816c0,0,23,78,23,109c0,0,0,28,-20,44c0,0,-21,16,-78,16c0,0,-13,0,-24,1l10,26H594c0,0,92,0,164,-28c0,0,72,-29,108,-79c0,0,36,-51,36,-108c0,0,0,-87,-66,-157c0,0,-66,-71,-216,-104c0,0,99,-35,146,-91c0,0,46,-57,46,-125c0,0,0,-76,-39,-144c0,0,-39,-69,-99,-107C674,69,613,31,527,13C527,13,466,0,336,0Z" 
id="f2_12"
transform="scale(0.001,-0.001)" />

<path d="M518,-21c0,0,-124,0,-220,50c0,0,-95,52,-145,146c0,0,-50,94,-50,202c0,0,0,166,88,322c0,0,89,157,244,246c0,0,155,89,312,89c0,0,74,0,166,-34c0,0,40,-15,58,-15c0,0,18,0,31,7c0,0,14,8,45,42h28L999,707H972l-3,82c0,0,-4,45,-17,80c0,0,-14,35,-40,61c0,0,-27,26,-68,40c0,0,-41,15,-91,15c0,0,-134,0,-234,-73c0,0,-127,-94,-199,-264c0,0,-60,-140,-60,-284c0,0,0,-147,86,-234c0,0,86,-88,223,-88c0,0,104,0,185,46c0,0,81,47,151,143h35C940,231,858,100,757,39c0,0,-100,-60,-239,-60Z" 
id="f2_13"
transform="scale(0.001,-0.001)" />

<path d="M435,0V856c0,0,-48,-47,-127,-93c0,0,-79,-46,-142,-69V824c0,0,113,52,197,128c0,0,85,75,120,146h86V0Z" 
id="f3_l"
transform="scale(0.001,-0.001)" />


</defs>
</svg>