<?xml version="1.0" encoding="UTF-8" standalone="no"?>
<!DOCTYPE svg PUBLIC "-//W3C//DTD SVG 1.1//EN"
"http://www.w3.org/Graphics/SVG/1.1/DTD/svg11.dtd">
<svg viewBox="0 0 909 1286" version="1.1" xmlns="http://www.w3.org/2000/svg" xmlns:xlink="http://www.w3.org/1999/xlink">
<defs>
<clipPath id="c0_126"><path d="M55.2,178V126H258.6v52Z" /></clipPath>
<clipPath id="c1_126"><path d="M55.2,309.3V260.5H273.6v48.8Z" /></clipPath>
<clipPath id="c2_126"><path d="M55.2,370.9V322.1H298.7v48.8Z" /></clipPath>
<clipPath id="c3_126"><path d="M117.1,512.8V464h554v48.8Z" /></clipPath>
<clipPath id="c4_126"><path d="M79.8,574.4V525.6H461.1v48.8Z" /></clipPath>
<clipPath id="c5_126"><path d="M79.8,638.9V586.8H277v52.1Z" /></clipPath>
<clipPath id="c6_126"><path d="M479.1,784.1V732h89.6v52.1Z" /></clipPath>
<clipPath id="c7_126"><path d="M659.4,779.7V742.3h76.1v37.4Z" /></clipPath>
<clipPath id="c8_126"><path d="M367.6,893V867.2h72.8V893Z" /></clipPath>
<clipPath id="c9_126"><path d="M55.2,958.3V905.6H316.3v52.7Z" /></clipPath>
<clipPath id="c10_126"><path d="M83.8,1019.9V971.1H316.6v48.8Z" /></clipPath>
<clipPath id="c11_126"><path d="M85.3,1116.3v-25.8h72.8v25.8Z" /></clipPath>
<clipPath id="c12_126"><path d="M212.1,1150.4v-19.2h16.8v19.2Z" /></clipPath>
<style type="text/css"><![CDATA[
.g0_126{
fill: #D9D9D9;
}
.g1_126{
fill: none;
stroke: #000000;
stroke-width: 0.7638889;
stroke-linecap: butt;
stroke-linejoin: miter;
}
.g2_126{
fill: none;
stroke: #000000;
stroke-width: 0.90978783;
stroke-linecap: butt;
stroke-linejoin: round;
}
.g3_126{
fill: none;
stroke: #000000;
stroke-width: 0.9090056;
stroke-linecap: butt;
stroke-linejoin: round;
}
.g4_126{
fill: none;
stroke: #000000;
stroke-width: 0.9120712;
stroke-linecap: butt;
stroke-linejoin: round;
}
.g5_126{
fill: none;
stroke: #000000;
stroke-width: 0.91183126;
stroke-linecap: butt;
stroke-linejoin: round;
}
.g6_126{
fill: none;
stroke: #000000;
stroke-width: 0.9139066;
stroke-linecap: butt;
stroke-linejoin: round;
}
.g7_126{
fill: none;
stroke: #000000;
stroke-width: 0.9091206;
stroke-linecap: butt;
stroke-linejoin: round;
}
.g8_126{
fill: none;
stroke: #000000;
stroke-width: 0.8950512;
stroke-linecap: butt;
stroke-linejoin: round;
}
.g9_126{
fill: none;
stroke: #000000;
stroke-width: 0.20895746;
stroke-linecap: square;
stroke-linejoin: round;
}
.g10_126{
}
.g11_126{
fill: none;
stroke: #000000;
stroke-width: 0.9097342;
stroke-linecap: butt;
stroke-linejoin: round;
}
.g12_126{
fill: none;
stroke: #000000;
stroke-width: 0.9120024;
stroke-linecap: butt;
stroke-linejoin: round;
}
]]></style>
</defs>
<image preserveAspectRatio="none" x="747" y="1196" width="96" height="59" xlink:href="img/1.png" />
<image preserveAspectRatio="none" x="336" y="41" width="259" height="51" xlink:href="img/2.png" />
<image preserveAspectRatio="none" x="342" y="50" width="247" height="27" xlink:href="img/3.png" />
<image preserveAspectRatio="none" x="341" y="45" width="239" height="42" xlink:href="img/4.png" />
<g fill="#FFFFFF" >
<use xlink:href="#f0_j" transform="matrix(11.5,0,0,11.5,355.1,70.1)" />
<use xlink:href="#f0_i" transform="matrix(11.5,0,0,11.5,364.3,70.1)" />
<use xlink:href="#f0_2n" transform="matrix(11.5,0,0,11.5,374.1,70.1)" />
<use xlink:href="#f0_t" transform="matrix(11.5,0,0,11.5,382.6,70.1)" />
<use xlink:href="#f0_oj" transform="matrix(11.5,0,0,11.5,391,70.1)" />
<use xlink:href="#f0_3e" transform="matrix(11.5,0,0,11.5,396.5,70.1)" />
<use xlink:href="#f0_1c" transform="matrix(11.5,0,0,11.5,406.1,70.1)" />
<use xlink:href="#f0_1c" transform="matrix(11.5,0,0,11.5,410.8,70.1)" />
<use xlink:href="#f0_oj" transform="matrix(11.5,0,0,11.5,415.6,70.1)" />
<use xlink:href="#f0_rz" transform="matrix(11.5,0,0,11.5,421.1,70.1)" />
<use xlink:href="#f0_rx" transform="matrix(11.5,0,0,11.5,429.9,70.1)" />
<use xlink:href="#f0_ry" transform="matrix(11.5,0,0,11.5,438.7,70.1)" />
<use xlink:href="#f0_s6" transform="matrix(11.5,0,0,11.5,447.5,70.1)" />
<use xlink:href="#f0_t" transform="matrix(11.5,0,0,11.5,460.4,70.1)" />
<use xlink:href="#f0_3e" transform="matrix(11.5,0,0,11.5,468.8,70.1)" />
<use xlink:href="#f0_5" transform="matrix(11.5,0,0,11.5,478.3,70.1)" />
<use xlink:href="#f0_1x" transform="matrix(11.5,0,0,11.5,489,70.1)" />
<use xlink:href="#f0_1c" transform="matrix(11.5,0,0,11.5,504.4,70.1)" />
<use xlink:href="#f0_1y" transform="matrix(11.5,0,0,11.5,509.1,70.1)" />
<use xlink:href="#f0_5" transform="matrix(11.5,0,0,11.5,520.8,70.1)" />
<use xlink:href="#f0_2t" transform="matrix(11.5,0,0,11.5,531.5,70.1)" />
<use xlink:href="#f0_1c" transform="matrix(11.5,0,0,11.5,540.2,70.1)" />
<use xlink:href="#f0_24" transform="matrix(11.5,0,0,11.5,545,70.1)" />
<use xlink:href="#f0_1y" transform="matrix(11.5,0,0,11.5,556.7,70.1)" />
</g>
<image preserveAspectRatio="none" x="554" y="45" width="36" height="42" xlink:href="img/5.png" />
<g fill="#FFFFFF" >
<use xlink:href="#f1_s" transform="matrix(11,0,0,11,770.3,1227.6)" />
<use xlink:href="#f1_j" transform="matrix(11,0,0,11,783.5,1227.6)" />
<use xlink:href="#f1_m" transform="matrix(11,0,0,11,794.1,1227.6)" />
<use xlink:href="#f1_p" transform="matrix(11,0,0,11,802.9,1227.6)" />
</g>
<path fill-rule="evenodd" d="M52.8,1193.5H856.9v-.8H52.8v.8Z" class="g0_126" />
<path d="M37.9,99.4L873,98.5" class="g1_126" />
<path d="M58.3,155.1H88.2m69.1,0h19.9" class="g2_126" />
<g clip-path="url(#c0_126)">
<g fill="#000000" >
<use xlink:href="#f2_m" transform="matrix(7.3,0,0,7.2,71,139.4)" />
<use xlink:href="#f2_m" transform="matrix(7.3,0,0,7.2,79.1,166.2)" />
<use xlink:href="#f2_c" transform="matrix(12.7,0,0,12.4,106.1,159.7)" />
<use xlink:href="#f2_d" transform="matrix(12.7,0,0,12.4,148.8,159.7)" />
<use xlink:href="#f2_k" transform="matrix(12.7,0,0,12.4,241.3,159.7)" />
<use xlink:href="#f2_i" transform="matrix(12.7,0,0,12.4,250.4,159.7)" />
<use xlink:href="#f3_20" transform="matrix(12.7,0,0,12.4,59.4,147.8)" />
<use xlink:href="#f3_2l" transform="matrix(12.7,0,0,12.4,78.7,147.8)" />
<use xlink:href="#f3_20" transform="matrix(12.7,0,0,12.4,158.4,147.8)" />
<use xlink:href="#f3_2l" transform="matrix(12.7,0,0,12.4,167.6,147.8)" />
<use xlink:href="#f3_1x" transform="matrix(12.7,0,0,12.4,112.7,159.7)" />
<use xlink:href="#f3_1y" transform="matrix(12.7,0,0,12.4,139.3,159.7)" />
<use xlink:href="#f3_1x" transform="matrix(12.7,0,0,12.4,195.5,159.7)" />
<use xlink:href="#f3_1y" transform="matrix(12.7,0,0,12.4,204.7,159.7)" />
<use xlink:href="#f3_2l" transform="matrix(12.7,0,0,12.4,213.8,159.7)" />
<use xlink:href="#f3_20" transform="matrix(12.7,0,0,12.4,60.8,174.5)" />
<use xlink:href="#f3_2k" transform="matrix(12.7,0,0,12.4,70,174.5)" />
<use xlink:href="#f3_20" transform="matrix(12.7,0,0,12.4,158.6,174.5)" />
<use xlink:href="#f3_2k" transform="matrix(12.7,0,0,12.4,167.8,174.5)" />
<use xlink:href="#f4_h" transform="matrix(12.7,0,0,12.4,92.6,159.7)" />
<use xlink:href="#f4_f" transform="matrix(12.7,0,0,12.4,125.9,159.7)" />
<use xlink:href="#f4_f" transform="matrix(12.7,0,0,12.4,181.5,159.7)" />
<use xlink:href="#f4_x" transform="matrix(12.7,0,0,12.4,227,159.7)" />
</g>
</g>
<g fill="#000000" >
<use xlink:href="#f5_1j" transform="matrix(12,0,0,12,55,208.7)" />
<use xlink:href="#f5_2b" transform="matrix(12,0,0,12,65.3,208.7)" />
<use xlink:href="#f5_28" transform="matrix(12,0,0,12,74.5,208.7)" />
<use xlink:href="#f5_2h" transform="matrix(12,0,0,12,79.2,208.7)" />
<use xlink:href="#f5_2g" transform="matrix(12,0,0,12,89.5,208.7)" />
<use xlink:href="#f5_25" transform="matrix(12,0,0,12,95.7,208.7)" />
<use xlink:href="#f5_2b" transform="matrix(12,0,0,12,100.8,208.7)" />
<use xlink:href="#f5_2a" transform="matrix(12,0,0,12,109.9,208.7)" />
<use xlink:href="#f5_u" transform="matrix(12,0,0,12,120.2,208.7)" />
<use xlink:href="#f2_19" transform="matrix(12,0,0,12,55,243.9)" />
<use xlink:href="#f2_22" transform="matrix(12,0,0,12,61.3,243.9)" />
<use xlink:href="#f2_2l" transform="matrix(12,0,0,12,71.9,243.9)" />
<use xlink:href="#f2_x" transform="matrix(12,0,0,12,85,243.9)" />
<use xlink:href="#f2_1g" transform="matrix(12,0,0,12,100.1,243.9)" />
<use xlink:href="#f2_21" transform="matrix(12,0,0,12,110.3,243.9)" />
<use xlink:href="#f2_1x" transform="matrix(7.9,0,0,7.9,118.5,236.9)" />
<use xlink:href="#f2_2k" transform="matrix(7.9,0,0,7.9,124,236.9)" />
<use xlink:href="#f2_f" transform="matrix(12,0,0,12,134.6,243.9)" />
<use xlink:href="#f2_1h" transform="matrix(12,0,0,12,149.6,243.9)" />
<use xlink:href="#f2_21" transform="matrix(12,0,0,12,162.9,243.9)" />
<use xlink:href="#f2_1y" transform="matrix(7.9,0,0,7.9,171.3,236.9)" />
<use xlink:href="#f2_2k" transform="matrix(7.9,0,0,7.9,177.2,236.9)" />
<use xlink:href="#f6_4s" transform="matrix(12,0,0,12,220.1,243.9)" />
<use xlink:href="#f6_c" transform="matrix(12,0,0,12,238.4,243.9)" />
<use xlink:href="#f6_l" transform="matrix(12,0,0,12,244.6,243.9)" />
<use xlink:href="#f6_d" transform="matrix(12,0,0,12,253.8,243.9)" />
</g>
<path d="M58.3,286.4H78.1" class="g3_126" />
<g clip-path="url(#c1_126)">
<g fill="#000000" >
<use xlink:href="#f2_i" transform="matrix(12.7,0,0,12.4,233.7,291.1)" />
<use xlink:href="#f2_i" transform="matrix(12.7,0,0,12.4,238.3,291.1)" />
<use xlink:href="#f2_i" transform="matrix(12.7,0,0,12.4,242.9,291.1)" />
<use xlink:href="#f2_c" transform="matrix(12.7,0,0,12.4,247.5,291.1)" />
<use xlink:href="#f2_m" transform="matrix(12.7,0,0,12.4,254.2,291.1)" />
<use xlink:href="#f2_d" transform="matrix(12.7,0,0,12.4,263.4,291.1)" />
<use xlink:href="#f3_1x" transform="matrix(7.3,0,0,7.1,127,282.7)" />
<use xlink:href="#f3_2k" transform="matrix(7.3,0,0,7.1,132.3,282.7)" />
<use xlink:href="#f3_1y" transform="matrix(7.3,0,0,7.1,187,282.7)" />
<use xlink:href="#f3_2k" transform="matrix(7.3,0,0,7.1,192.3,282.7)" />
<use xlink:href="#f3_20" transform="matrix(12.7,0,0,12.4,59.4,279.1)" />
<use xlink:href="#f3_2l" transform="matrix(12.7,0,0,12.4,68.6,279.1)" />
<use xlink:href="#f3_1x" transform="matrix(12.7,0,0,12.4,97.8,291.1)" />
<use xlink:href="#f3_1g" transform="matrix(12.7,0,0,12.4,107,291.1)" />
<use xlink:href="#f3_21" transform="matrix(12.7,0,0,12.4,118.2,291.1)" />
<use xlink:href="#f3_1y" transform="matrix(12.7,0,0,12.4,156.1,291.1)" />
<use xlink:href="#f3_1h" transform="matrix(12.7,0,0,12.4,165.3,291.1)" />
<use xlink:href="#f3_21" transform="matrix(12.7,0,0,12.4,178.5,291.1)" />
<use xlink:href="#f3_20" transform="matrix(12.7,0,0,12.4,59.5,305.8)" />
<use xlink:href="#f3_2k" transform="matrix(12.7,0,0,12.4,68.7,305.8)" />
<use xlink:href="#f4_x" transform="matrix(12.7,0,0,12.4,83.2,291.1)" />
<use xlink:href="#f4_f" transform="matrix(12.7,0,0,12.4,142.6,291.1)" />
</g>
</g>
<path d="M58.2,348H91.4" class="g4_126" />
<g clip-path="url(#c2_126)">
<g fill="#000000" >
<use xlink:href="#f2_m" transform="matrix(7.4,0,0,7.1,121.1,344.4)" />
<use xlink:href="#f2_m" transform="matrix(7.4,0,0,7.1,186.4,344.4)" />
<use xlink:href="#f2_m" transform="matrix(7.4,0,0,7.1,80.6,359.1)" />
<use xlink:href="#f2_m" transform="matrix(12.7,0,0,12.4,70.8,340.8)" />
<use xlink:href="#f2_i" transform="matrix(12.7,0,0,12.4,259.8,352.7)" />
<use xlink:href="#f2_i" transform="matrix(12.7,0,0,12.4,264.4,352.7)" />
<use xlink:href="#f2_i" transform="matrix(12.7,0,0,12.4,268.9,352.7)" />
<use xlink:href="#f2_c" transform="matrix(12.7,0,0,12.4,273.5,352.7)" />
<use xlink:href="#f2_n" transform="matrix(12.7,0,0,12.4,279.5,352.7)" />
<use xlink:href="#f2_d" transform="matrix(12.7,0,0,12.4,288.1,352.7)" />
<use xlink:href="#f3_1x" transform="matrix(7.4,0,0,7.1,147.6,344.4)" />
<use xlink:href="#f3_2k" transform="matrix(7.4,0,0,7.1,152.9,344.4)" />
<use xlink:href="#f3_1y" transform="matrix(7.4,0,0,7.1,213.4,344.4)" />
<use xlink:href="#f3_2k" transform="matrix(7.4,0,0,7.1,218.7,344.4)" />
<use xlink:href="#f3_20" transform="matrix(12.7,0,0,12.4,59.4,340.8)" />
<use xlink:href="#f3_2l" transform="matrix(12.7,0,0,12.4,82,340.8)" />
<use xlink:href="#f3_1x" transform="matrix(12.7,0,0,12.4,111,352.7)" />
<use xlink:href="#f3_1g" transform="matrix(12.7,0,0,12.4,127.7,352.7)" />
<use xlink:href="#f3_21" transform="matrix(12.7,0,0,12.4,138.8,352.7)" />
<use xlink:href="#f3_1y" transform="matrix(12.7,0,0,12.4,176.5,352.7)" />
<use xlink:href="#f3_1h" transform="matrix(12.7,0,0,12.4,191.8,352.7)" />
<use xlink:href="#f3_21" transform="matrix(12.7,0,0,12.4,205,352.7)" />
<use xlink:href="#f3_20" transform="matrix(12.7,0,0,12.4,62.5,367.4)" />
<use xlink:href="#f3_2k" transform="matrix(12.7,0,0,12.4,71.6,367.4)" />
<use xlink:href="#f4_x" transform="matrix(12.7,0,0,12.4,96.5,352.7)" />
<use xlink:href="#f4_f" transform="matrix(12.7,0,0,12.4,163.1,352.7)" />
</g>
</g>
<g fill="#000000" >
<use xlink:href="#f6_29" transform="matrix(12,0,0,12,55,401.6)" />
<use xlink:href="#f6_2h" transform="matrix(12,0,0,12,69,401.6)" />
<use xlink:href="#f6_28" transform="matrix(12,0,0,12,78.5,401.6)" />
<use xlink:href="#f6_2g" transform="matrix(12,0,0,12,82.9,401.6)" />
<use xlink:href="#f6_25" transform="matrix(12,0,0,12,88.7,401.6)" />
<use xlink:href="#f6_2c" transform="matrix(12,0,0,12,93.5,401.6)" />
<use xlink:href="#f6_28" transform="matrix(12,0,0,12,103,401.6)" />
<use xlink:href="#f6_2l" transform="matrix(12,0,0,12,107.8,401.6)" />
<use xlink:href="#f6_25" transform="matrix(12,0,0,12,116.9,401.6)" />
<use xlink:href="#f6_2a" transform="matrix(12,0,0,12,121.7,401.6)" />
<use xlink:href="#f6_23" transform="matrix(12,0,0,12,130.9,401.6)" />
<use xlink:href="#f6_4s" transform="matrix(12,0,0,12,144.8,401.6)" />
<use xlink:href="#f6_c" transform="matrix(12,0,0,12,167.9,401.6)" />
<use xlink:href="#f6_l" transform="matrix(12,0,0,12,174.1,401.6)" />
<use xlink:href="#f6_d" transform="matrix(12,0,0,12,183.3,401.6)" />
<use xlink:href="#f6_1y" transform="matrix(12,0,0,12,194.2,401.6)" />
<use xlink:href="#f6_2l" transform="matrix(12,0,0,12,203.4,401.6)" />
<use xlink:href="#f6_1x" transform="matrix(12,0,0,12,216.6,401.6)" />
<use xlink:href="#f6_1y" transform="matrix(12,0,0,12,225,401.6)" />
<use xlink:href="#f2_2j" transform="matrix(12,0,0,12,55,424.3)" />
<use xlink:href="#f2_21" transform="matrix(12,0,0,12,68.3,424.3)" />
<use xlink:href="#f2_23" transform="matrix(12,0,0,12,81.1,424.3)" />
<use xlink:href="#f2_21" transform="matrix(12,0,0,12,90.2,424.3)" />
<use xlink:href="#f2_2g" transform="matrix(12,0,0,12,98.3,424.3)" />
<use xlink:href="#f2_g" transform="matrix(12,0,0,12,103.4,424.3)" />
<use xlink:href="#f2_1x" transform="matrix(12,0,0,12,112.9,424.3)" />
<use xlink:href="#f2_1y" transform="matrix(12,0,0,12,121,424.3)" />
<use xlink:href="#f2_2l" transform="matrix(12,0,0,12,130.1,424.3)" />
<use xlink:href="#f2_x" transform="matrix(12,0,0,12,143.3,424.3)" />
<use xlink:href="#f2_1x" transform="matrix(12,0,0,12,158.3,424.3)" />
<use xlink:href="#f2_1y" transform="matrix(12,0,0,12,166.4,424.3)" />
<use xlink:href="#f2_1g" transform="matrix(12,0,0,12,175.2,424.3)" />
<use xlink:href="#f2_21" transform="matrix(12,0,0,12,185.5,424.3)" />
<use xlink:href="#f2_1x" transform="matrix(7.9,0,0,7.9,193.7,417.4)" />
<use xlink:href="#f2_2k" transform="matrix(7.9,0,0,7.9,199.5,417.4)" />
<use xlink:href="#f2_f" transform="matrix(12,0,0,12,210.2,424.3)" />
<use xlink:href="#f2_1x" transform="matrix(12,0,0,12,225.2,424.3)" />
<use xlink:href="#f2_1y" transform="matrix(12,0,0,12,233.3,424.3)" />
<use xlink:href="#f2_1h" transform="matrix(12,0,0,12,242.1,424.3)" />
<use xlink:href="#f2_21" transform="matrix(12,0,0,12,255.6,424.3)" />
<use xlink:href="#f2_1y" transform="matrix(7.9,0,0,7.9,263.7,417.4)" />
<use xlink:href="#f2_2k" transform="matrix(7.9,0,0,7.9,270,417.4)" />
<use xlink:href="#f6_4s" transform="matrix(12,0,0,12,280.6,424.3)" />
<use xlink:href="#f6_c" transform="matrix(12,0,0,12,303.7,424.3)" />
<use xlink:href="#f6_o" transform="matrix(12,0,0,12,309.9,424.3)" />
<use xlink:href="#f6_d" transform="matrix(12,0,0,12,319.1,424.3)" />
<use xlink:href="#f2_29" transform="matrix(12,0,0,12,55,447.1)" />
<use xlink:href="#f2_2h" transform="matrix(12,0,0,12,69,447.1)" />
<use xlink:href="#f2_28" transform="matrix(12,0,0,12,78.5,447.1)" />
<use xlink:href="#f2_2g" transform="matrix(12,0,0,12,82.9,447.1)" />
<use xlink:href="#f2_25" transform="matrix(12,0,0,12,88.7,447.1)" />
<use xlink:href="#f2_2c" transform="matrix(12,0,0,12,93.5,447.1)" />
<use xlink:href="#f2_28" transform="matrix(12,0,0,12,103,447.1)" />
<use xlink:href="#f2_2l" transform="matrix(12,0,0,12,107.8,447.1)" />
<use xlink:href="#f2_25" transform="matrix(12,0,0,12,116.9,447.1)" />
<use xlink:href="#f2_2a" transform="matrix(12,0,0,12,121.7,447.1)" />
<use xlink:href="#f2_23" transform="matrix(12,0,0,12,130.9,447.1)" />
<use xlink:href="#f2_c" transform="matrix(12,0,0,12,144.8,447.1)" />
<use xlink:href="#f2_m" transform="matrix(12,0,0,12,151,447.1)" />
<use xlink:href="#f2_d" transform="matrix(12,0,0,12,160.2,447.1)" />
<use xlink:href="#f2_1y" transform="matrix(12,0,0,12,171.1,447.1)" />
<use xlink:href="#f2_2l" transform="matrix(12,0,0,12,180.3,447.1)" />
<use xlink:href="#f2_c" transform="matrix(12,0,0,12,193.5,447.1)" />
<use xlink:href="#f2_1x" transform="matrix(12,0,0,12,199.7,447.1)" />
<use xlink:href="#f2_f" transform="matrix(12,0,0,12,212.5,447.1)" />
<use xlink:href="#f2_1y" transform="matrix(12,0,0,12,227.5,447.1)" />
<use xlink:href="#f2_d" transform="matrix(12,0,0,12,236.3,447.1)" />
<use xlink:href="#f2_2j" transform="matrix(12,0,0,12,55,494.4)" />
<use xlink:href="#f2_21" transform="matrix(12,0,0,12,68.3,494.4)" />
<use xlink:href="#f2_23" transform="matrix(12,0,0,12,81.1,494.4)" />
<use xlink:href="#f2_21" transform="matrix(12,0,0,12,90.2,494.4)" />
<use xlink:href="#f2_2g" transform="matrix(12,0,0,12,98.3,494.4)" />
<use xlink:href="#f2_g" transform="matrix(12,0,0,12,103.4,494.4)" />
<use xlink:href="#f2_g" transform="matrix(12,0,0,12,108.2,494.4)" />
</g>
<path d="M170.9,489.9h19.7" class="g5_126" />
<g clip-path="url(#c3_126)">
<g fill="#000000" >
<use xlink:href="#f2_m" transform="matrix(7.4,0,0,7.1,407.9,486.2)" />
<use xlink:href="#f2_m" transform="matrix(7.4,0,0,7.1,473.3,486.2)" />
<use xlink:href="#f2_c" transform="matrix(12.7,0,0,12.4,119.6,494.6)" />
<use xlink:href="#f2_d" transform="matrix(12.7,0,0,12.4,162.3,494.6)" />
<use xlink:href="#f2_c" transform="matrix(12.7,0,0,12.4,209.9,494.6)" />
<use xlink:href="#f2_d" transform="matrix(12.7,0,0,12.4,252.5,494.6)" />
<use xlink:href="#f2_c" transform="matrix(12.7,0,0,12.4,258.6,494.6)" />
<use xlink:href="#f2_d" transform="matrix(12.7,0,0,12.4,366.2,494.6)" />
<use xlink:href="#f2_c" transform="matrix(12.7,0,0,12.4,391,494.6)" />
<use xlink:href="#f2_d" transform="matrix(12.7,0,0,12.4,511.5,494.6)" />
<use xlink:href="#f2_c" transform="matrix(12.7,0,0,12.4,535,494.6)" />
<use xlink:href="#f2_d" transform="matrix(12.7,0,0,12.4,661.6,494.6)" />
<use xlink:href="#f3_1x" transform="matrix(7.4,0,0,7.1,294.4,486.2)" />
<use xlink:href="#f3_2k" transform="matrix(7.4,0,0,7.1,299.7,486.2)" />
<use xlink:href="#f3_1y" transform="matrix(7.4,0,0,7.1,354.2,486.2)" />
<use xlink:href="#f3_2k" transform="matrix(7.4,0,0,7.1,359.5,486.2)" />
<use xlink:href="#f3_1x" transform="matrix(7.4,0,0,7.1,434.4,486.2)" />
<use xlink:href="#f3_2k" transform="matrix(7.4,0,0,7.1,439.7,486.2)" />
<use xlink:href="#f3_1y" transform="matrix(7.4,0,0,7.1,499.5,486.2)" />
<use xlink:href="#f3_2k" transform="matrix(7.4,0,0,7.1,504.9,486.2)" />
<use xlink:href="#f3_1x" transform="matrix(7.4,0,0,7.1,580.1,486.2)" />
<use xlink:href="#f3_2k" transform="matrix(7.4,0,0,7.1,585.4,486.2)" />
<use xlink:href="#f3_1y" transform="matrix(7.4,0,0,7.1,649.7,486.2)" />
<use xlink:href="#f3_2k" transform="matrix(7.4,0,0,7.1,655,486.2)" />
<use xlink:href="#f3_20" transform="matrix(12.7,0,0,12.4,172,482.6)" />
<use xlink:href="#f3_2l" transform="matrix(12.7,0,0,12.4,181.2,482.6)" />
<use xlink:href="#f3_1x" transform="matrix(12.7,0,0,12.4,126.2,494.6)" />
<use xlink:href="#f3_1y" transform="matrix(12.7,0,0,12.4,152.9,494.6)" />
<use xlink:href="#f3_1x" transform="matrix(12.7,0,0,12.4,216.5,494.6)" />
<use xlink:href="#f3_1y" transform="matrix(12.7,0,0,12.4,243.1,494.6)" />
<use xlink:href="#f3_1x" transform="matrix(12.7,0,0,12.4,265.2,494.6)" />
<use xlink:href="#f3_1g" transform="matrix(12.7,0,0,12.4,274.3,494.6)" />
<use xlink:href="#f3_21" transform="matrix(12.7,0,0,12.4,285.5,494.6)" />
<use xlink:href="#f3_1y" transform="matrix(12.7,0,0,12.4,323.3,494.6)" />
<use xlink:href="#f3_1h" transform="matrix(12.7,0,0,12.4,332.5,494.6)" />
<use xlink:href="#f3_21" transform="matrix(12.7,0,0,12.4,345.6,494.6)" />
<use xlink:href="#f3_1x" transform="matrix(12.7,0,0,12.4,397.5,494.6)" />
<use xlink:href="#f3_1g" transform="matrix(12.7,0,0,12.4,414.3,494.6)" />
<use xlink:href="#f3_21" transform="matrix(12.7,0,0,12.4,425.4,494.6)" />
<use xlink:href="#f3_1y" transform="matrix(12.7,0,0,12.4,463.2,494.6)" />
<use xlink:href="#f3_1g" transform="matrix(12.7,0,0,12.4,479.7,494.6)" />
<use xlink:href="#f3_21" transform="matrix(12.7,0,0,12.4,490.8,494.6)" />
<use xlink:href="#f3_1x" transform="matrix(12.7,0,0,12.4,541.5,494.6)" />
<use xlink:href="#f3_1y" transform="matrix(12.7,0,0,12.4,550.6,494.6)" />
<use xlink:href="#f3_1g" transform="matrix(12.7,0,0,12.4,559.8,494.6)" />
<use xlink:href="#f3_21" transform="matrix(12.7,0,0,12.4,571,494.6)" />
<use xlink:href="#f3_1x" transform="matrix(12.7,0,0,12.4,609.3,494.6)" />
<use xlink:href="#f3_1y" transform="matrix(12.7,0,0,12.4,618.5,494.6)" />
<use xlink:href="#f3_1h" transform="matrix(12.7,0,0,12.4,627.7,494.6)" />
<use xlink:href="#f3_21" transform="matrix(12.7,0,0,12.4,640.8,494.6)" />
<use xlink:href="#f3_20" transform="matrix(12.7,0,0,12.4,172.1,509.3)" />
<use xlink:href="#f3_2k" transform="matrix(12.7,0,0,12.4,181.3,509.3)" />
<use xlink:href="#f4_f" transform="matrix(12.7,0,0,12.4,139.4,494.6)" />
<use xlink:href="#f4_x" transform="matrix(12.7,0,0,12.4,195.7,494.6)" />
<use xlink:href="#f4_f" transform="matrix(12.7,0,0,12.4,229.7,494.6)" />
<use xlink:href="#f4_f" transform="matrix(12.7,0,0,12.4,309.9,494.6)" />
<use xlink:href="#f4_x" transform="matrix(12.7,0,0,12.4,376.8,494.6)" />
<use xlink:href="#f4_f" transform="matrix(12.7,0,0,12.4,449.9,494.6)" />
<use xlink:href="#f4_f" transform="matrix(12.7,0,0,12.4,521.3,494.6)" />
<use xlink:href="#f4_f" transform="matrix(12.7,0,0,12.4,595.5,494.6)" />
</g>
</g>
<g fill="#000000" >
<use xlink:href="#f2_2b" transform="matrix(12,0,0,12,55,556)" />
<use xlink:href="#f2_2e" transform="matrix(12,0,0,12,64.6,556)" />
<use xlink:href="#f2_g" transform="matrix(12,0,0,12,70.4,556)" />
</g>
<path d="M286.1,551.5h19.7" class="g6_126" />
<g clip-path="url(#c4_126)">
<g fill="#000000" >
<use xlink:href="#f2_m" transform="matrix(7.4,0,0,7.1,99,547.9)" />
<use xlink:href="#f2_m" transform="matrix(7.4,0,0,7.1,172.5,547.9)" />
<use xlink:href="#f2_c" transform="matrix(12.8,0,0,12.4,82.3,556.2)" />
<use xlink:href="#f2_d" transform="matrix(12.8,0,0,12.4,211.6,556.2)" />
<use xlink:href="#f2_c" transform="matrix(12.8,0,0,12.4,234.8,556.2)" />
<use xlink:href="#f2_d" transform="matrix(12.8,0,0,12.4,277.5,556.2)" />
<use xlink:href="#f2_c" transform="matrix(12.8,0,0,12.4,323.8,556.2)" />
<use xlink:href="#f2_d" transform="matrix(12.8,0,0,12.4,450.3,556.2)" />
<use xlink:href="#f3_1x" transform="matrix(7.4,0,0,7.1,133.5,547.9)" />
<use xlink:href="#f3_2k" transform="matrix(7.4,0,0,7.1,138.8,547.9)" />
<use xlink:href="#f3_1y" transform="matrix(7.4,0,0,7.1,199.5,547.9)" />
<use xlink:href="#f3_2k" transform="matrix(7.4,0,0,7.1,204.8,547.9)" />
<use xlink:href="#f3_1x" transform="matrix(7.4,0,0,7.1,368.7,547.9)" />
<use xlink:href="#f3_2k" transform="matrix(7.4,0,0,7.1,374,547.9)" />
<use xlink:href="#f3_1y" transform="matrix(7.4,0,0,7.1,438.2,547.9)" />
<use xlink:href="#f3_2k" transform="matrix(7.4,0,0,7.1,443.5,547.9)" />
<use xlink:href="#f3_20" transform="matrix(12.8,0,0,12.4,287.2,544.3)" />
<use xlink:href="#f3_2l" transform="matrix(12.8,0,0,12.4,296.4,544.3)" />
<use xlink:href="#f3_1x" transform="matrix(12.8,0,0,12.4,88.8,556.2)" />
<use xlink:href="#f3_1y" transform="matrix(12.8,0,0,12.4,104.4,556.2)" />
<use xlink:href="#f3_1g" transform="matrix(12.8,0,0,12.4,113.6,556.2)" />
<use xlink:href="#f3_21" transform="matrix(12.8,0,0,12.4,124.8,556.2)" />
<use xlink:href="#f3_1y" transform="matrix(12.8,0,0,12.4,162.5,556.2)" />
<use xlink:href="#f3_1h" transform="matrix(12.8,0,0,12.4,177.9,556.2)" />
<use xlink:href="#f3_21" transform="matrix(12.8,0,0,12.4,191,556.2)" />
<use xlink:href="#f3_1x" transform="matrix(12.8,0,0,12.4,241.4,556.2)" />
<use xlink:href="#f3_1y" transform="matrix(12.8,0,0,12.4,268,556.2)" />
<use xlink:href="#f3_1x" transform="matrix(12.8,0,0,12.4,330.4,556.2)" />
<use xlink:href="#f3_1y" transform="matrix(12.8,0,0,12.4,339.5,556.2)" />
<use xlink:href="#f3_1g" transform="matrix(12.8,0,0,12.4,348.7,556.2)" />
<use xlink:href="#f3_21" transform="matrix(12.8,0,0,12.4,359.9,556.2)" />
<use xlink:href="#f3_1x" transform="matrix(12.8,0,0,12.4,398.2,556.2)" />
<use xlink:href="#f3_1y" transform="matrix(12.8,0,0,12.4,407.4,556.2)" />
<use xlink:href="#f3_1h" transform="matrix(12.8,0,0,12.4,416.6,556.2)" />
<use xlink:href="#f3_21" transform="matrix(12.8,0,0,12.4,429.8,556.2)" />
<use xlink:href="#f3_20" transform="matrix(12.8,0,0,12.4,287.4,570.9)" />
<use xlink:href="#f3_2k" transform="matrix(12.8,0,0,12.4,296.5,570.9)" />
<use xlink:href="#f4_f" transform="matrix(12.8,0,0,12.4,149.1,556.2)" />
<use xlink:href="#f4_h" transform="matrix(12.8,0,0,12.4,221.4,556.2)" />
<use xlink:href="#f4_f" transform="matrix(12.8,0,0,12.4,254.6,556.2)" />
<use xlink:href="#f4_f" transform="matrix(12.8,0,0,12.4,310.1,556.2)" />
<use xlink:href="#f4_f" transform="matrix(12.8,0,0,12.4,384.2,556.2)" />
</g>
</g>
<g fill="#000000" >
<use xlink:href="#f2_2b" transform="matrix(12,0,0,12,55,620.6)" />
<use xlink:href="#f2_2e" transform="matrix(12,0,0,12,64.6,620.6)" />
<use xlink:href="#f2_g" transform="matrix(12,0,0,12,70.4,620.6)" />
</g>
<path d="M82.8,616h30m69,0h19.8" class="g7_126" />
<g clip-path="url(#c5_126)">
<g fill="#000000" >
<use xlink:href="#f2_m" transform="matrix(7.3,0,0,7.2,95.6,600.3)" />
<use xlink:href="#f2_m" transform="matrix(7.3,0,0,7.2,103.6,627.1)" />
<use xlink:href="#f2_c" transform="matrix(12.7,0,0,12.4,130.6,620.6)" />
<use xlink:href="#f2_d" transform="matrix(12.7,0,0,12.4,173.3,620.6)" />
<use xlink:href="#f2_k" transform="matrix(12.7,0,0,12.4,265.6,620.6)" />
<use xlink:href="#f3_20" transform="matrix(12.7,0,0,12.4,84,608.7)" />
<use xlink:href="#f3_2l" transform="matrix(12.7,0,0,12.4,103.3,608.7)" />
<use xlink:href="#f3_20" transform="matrix(12.7,0,0,12.4,182.9,608.7)" />
<use xlink:href="#f3_2l" transform="matrix(12.7,0,0,12.4,192.1,608.7)" />
<use xlink:href="#f3_1x" transform="matrix(12.7,0,0,12.4,137.2,620.6)" />
<use xlink:href="#f3_1y" transform="matrix(12.7,0,0,12.4,163.8,620.6)" />
<use xlink:href="#f3_1x" transform="matrix(12.7,0,0,12.4,219.9,620.6)" />
<use xlink:href="#f3_1y" transform="matrix(12.7,0,0,12.4,229.1,620.6)" />
<use xlink:href="#f3_2l" transform="matrix(12.7,0,0,12.4,238.3,620.6)" />
<use xlink:href="#f3_20" transform="matrix(12.7,0,0,12.4,85.4,635.5)" />
<use xlink:href="#f3_2k" transform="matrix(12.7,0,0,12.4,94.6,635.5)" />
<use xlink:href="#f3_20" transform="matrix(12.7,0,0,12.4,183.1,635.5)" />
<use xlink:href="#f3_2k" transform="matrix(12.7,0,0,12.4,192.2,635.5)" />
<use xlink:href="#f4_h" transform="matrix(12.7,0,0,12.4,117.1,620.6)" />
<use xlink:href="#f4_f" transform="matrix(12.7,0,0,12.4,150.3,620.6)" />
<use xlink:href="#f4_f" transform="matrix(12.7,0,0,12.4,205.8,620.6)" />
<use xlink:href="#f4_x" transform="matrix(12.7,0,0,12.4,251.3,620.6)" />
</g>
</g>
<g fill="#000000" >
<use xlink:href="#f5_l" transform="matrix(12,0,0,12,55,704.9)" />
<use xlink:href="#f5_q" transform="matrix(12,0,0,12,64.2,704.9)" />
<use xlink:href="#f5_i" transform="matrix(12,0,0,12,73.4,704.9)" />
<use xlink:href="#f2_16" transform="matrix(12,0,0,12,82.9,704.9)" />
<use xlink:href="#f2_25" transform="matrix(12,0,0,12,93.2,704.9)" />
<use xlink:href="#f2_2a" transform="matrix(12,0,0,12,97.9,704.9)" />
<use xlink:href="#f2_20" transform="matrix(12,0,0,12,106.7,704.9)" />
<use xlink:href="#f2_2g" transform="matrix(12,0,0,12,120.6,704.9)" />
<use xlink:href="#f2_24" transform="matrix(12,0,0,12,126.1,704.9)" />
<use xlink:href="#f2_21" transform="matrix(12,0,0,12,134.9,704.9)" />
<use xlink:href="#f2_2i" transform="matrix(12,0,0,12,147.7,704.9)" />
<use xlink:href="#f2_1x" transform="matrix(12,0,0,12,156.5,704.9)" />
<use xlink:href="#f2_28" transform="matrix(12,0,0,12,164.9,704.9)" />
<use xlink:href="#f2_2h" transform="matrix(12,0,0,12,169.7,704.9)" />
<use xlink:href="#f2_21" transform="matrix(12,0,0,12,178.9,704.9)" />
<use xlink:href="#f2_c" transform="matrix(12,0,0,12,186.9,704.9)" />
<use xlink:href="#f2_2f" transform="matrix(12,0,0,12,193.2,704.9)" />
<use xlink:href="#f2_d" transform="matrix(12,0,0,12,200.1,704.9)" />
<use xlink:href="#f2_2b" transform="matrix(12,0,0,12,211.1,704.9)" />
<use xlink:href="#f2_22" transform="matrix(12,0,0,12,220.6,704.9)" />
<use xlink:href="#f2_2k" transform="matrix(12,0,0,12,230.9,704.9)" />
<use xlink:href="#f2_22" transform="matrix(12,0,0,12,244.8,704.9)" />
<use xlink:href="#f2_2b" transform="matrix(12,0,0,12,250.3,704.9)" />
<use xlink:href="#f2_2e" transform="matrix(12,0,0,12,259.8,704.9)" />
<use xlink:href="#f2_2j" transform="matrix(12,0,0,12,270.7,704.9)" />
<use xlink:href="#f2_24" transform="matrix(12,0,0,12,284,704.9)" />
<use xlink:href="#f2_25" transform="matrix(12,0,0,12,293.2,704.9)" />
<use xlink:href="#f2_1z" transform="matrix(12,0,0,12,297.9,704.9)" />
<use xlink:href="#f2_24" transform="matrix(12,0,0,12,306.3,704.9)" />
<use xlink:href="#f2_2l" transform="matrix(12,0,0,12,320.2,704.9)" />
<use xlink:href="#f2_x" transform="matrix(12,0,0,12,333.4,704.9)" />
<use xlink:href="#f2_1r" transform="matrix(12,0,0,12,348.4,704.9)" />
<use xlink:href="#f2_2k" transform="matrix(12,0,0,12,354.6,704.9)" />
<use xlink:href="#f2_c" transform="matrix(12,0,0,12,368.2,704.9)" />
<use xlink:href="#f2_2k" transform="matrix(12,0,0,12,374.4,704.9)" />
<use xlink:href="#f6_4y" transform="matrix(12,0,0,12,388.5,704.9)" />
<use xlink:href="#f2_m" transform="matrix(12,0,0,12,402.4,704.9)" />
<use xlink:href="#f2_d" transform="matrix(12,0,0,12,411.6,704.9)" />
<use xlink:href="#f2_1t" transform="matrix(12,0,0,12,417.8,704.9)" />
<use xlink:href="#f2_m" transform="matrix(7.9,0,0,7.9,424,697.9)" />
<use xlink:href="#f2_25" transform="matrix(12,0,0,12,434.7,704.9)" />
<use xlink:href="#f2_2f" transform="matrix(12,0,0,12,439.5,704.9)" />
<use xlink:href="#f2_1x" transform="matrix(12,0,0,12,451.2,704.9)" />
<use xlink:href="#f2_2a" transform="matrix(12,0,0,12,459.6,704.9)" />
<use xlink:href="#f2_25" transform="matrix(12,0,0,12,473.5,704.9)" />
<use xlink:href="#f2_2a" transform="matrix(12,0,0,12,478.3,704.9)" />
<use xlink:href="#f2_1z" transform="matrix(12,0,0,12,487.1,704.9)" />
<use xlink:href="#f2_2e" transform="matrix(12,0,0,12,495.1,704.9)" />
<use xlink:href="#f2_21" transform="matrix(12,0,0,12,501.3,704.9)" />
<use xlink:href="#f2_1x" transform="matrix(12,0,0,12,509.4,704.9)" />
<use xlink:href="#f2_2f" transform="matrix(12,0,0,12,517.8,704.9)" />
<use xlink:href="#f2_25" transform="matrix(12,0,0,12,525.1,704.9)" />
<use xlink:href="#f2_2a" transform="matrix(12,0,0,12,529.9,704.9)" />
<use xlink:href="#f2_23" transform="matrix(12,0,0,12,538.7,704.9)" />
<use xlink:href="#f2_22" transform="matrix(12,0,0,12,553,704.9)" />
<use xlink:href="#f2_2h" transform="matrix(12,0,0,12,558.9,704.9)" />
<use xlink:href="#f2_2a" transform="matrix(12,0,0,12,568.4,704.9)" />
<use xlink:href="#f2_1z" transform="matrix(12,0,0,12,577.2,704.9)" />
<use xlink:href="#f2_2g" transform="matrix(12,0,0,12,585.2,704.9)" />
<use xlink:href="#f2_25" transform="matrix(12,0,0,12,591.1,704.9)" />
<use xlink:href="#f2_2b" transform="matrix(12,0,0,12,595.5,704.9)" />
<use xlink:href="#f2_2a" transform="matrix(12,0,0,12,605,704.9)" />
<use xlink:href="#f2_i" transform="matrix(12,0,0,12,613.8,704.9)" />
<use xlink:href="#f5_1f" transform="matrix(12,0,0,12,440.9,727.6)" />
<use xlink:href="#f5_1i" transform="matrix(12,0,0,12,455.2,727.6)" />
<use xlink:href="#f2_16" transform="matrix(12,0,0,12,55,765.8)" />
<use xlink:href="#f2_25" transform="matrix(12,0,0,12,65.3,765.8)" />
<use xlink:href="#f2_2a" transform="matrix(12,0,0,12,70.1,765.8)" />
<use xlink:href="#f2_20" transform="matrix(12,0,0,12,79.2,765.8)" />
<use xlink:href="#f2_2g" transform="matrix(12,0,0,12,93.1,765.8)" />
<use xlink:href="#f2_24" transform="matrix(12,0,0,12,98.6,765.8)" />
<use xlink:href="#f2_21" transform="matrix(12,0,0,12,107.4,765.8)" />
<use xlink:href="#f2_21" transform="matrix(12,0,0,12,120.2,765.8)" />
<use xlink:href="#f2_2d" transform="matrix(12,0,0,12,128.3,765.8)" />
<use xlink:href="#f2_2h" transform="matrix(12,0,0,12,137.5,765.8)" />
<use xlink:href="#f2_1x" transform="matrix(12,0,0,12,146.6,765.8)" />
<use xlink:href="#f2_2g" transform="matrix(12,0,0,12,154.7,765.8)" />
<use xlink:href="#f2_25" transform="matrix(12,0,0,12,160.2,765.8)" />
<use xlink:href="#f2_2b" transform="matrix(12,0,0,12,164.6,765.8)" />
<use xlink:href="#f2_2a" transform="matrix(12,0,0,12,174.1,765.8)" />
<use xlink:href="#f2_2f" transform="matrix(12,0,0,12,182.9,765.8)" />
<use xlink:href="#f2_2b" transform="matrix(12,0,0,12,194.6,765.8)" />
<use xlink:href="#f2_22" transform="matrix(12,0,0,12,204.1,765.8)" />
<use xlink:href="#f2_2g" transform="matrix(12,0,0,12,214.4,765.8)" />
<use xlink:href="#f2_24" transform="matrix(12,0,0,12,219.9,765.8)" />
<use xlink:href="#f2_21" transform="matrix(12,0,0,12,228.7,765.8)" />
<use xlink:href="#f2_2g" transform="matrix(12,0,0,12,241.5,765.8)" />
<use xlink:href="#f2_1x" transform="matrix(12,0,0,12,247,765.8)" />
<use xlink:href="#f2_2a" transform="matrix(12,0,0,12,255,765.8)" />
<use xlink:href="#f2_23" transform="matrix(12,0,0,12,263.8,765.8)" />
<use xlink:href="#f2_21" transform="matrix(12,0,0,12,273,765.8)" />
<use xlink:href="#f2_2a" transform="matrix(12,0,0,12,281.4,765.8)" />
<use xlink:href="#f2_2g" transform="matrix(12,0,0,12,290.2,765.8)" />
<use xlink:href="#f2_1x" transform="matrix(12,0,0,12,300.4,765.8)" />
<use xlink:href="#f2_2a" transform="matrix(12,0,0,12,308.5,765.8)" />
<use xlink:href="#f2_20" transform="matrix(12,0,0,12,317.3,765.8)" />
<use xlink:href="#f2_2a" transform="matrix(12,0,0,12,331.2,765.8)" />
<use xlink:href="#f2_2b" transform="matrix(12,0,0,12,340,765.8)" />
<use xlink:href="#f2_2e" transform="matrix(12,0,0,12,349.5,765.8)" />
<use xlink:href="#f2_29" transform="matrix(12,0,0,12,355.7,765.8)" />
<use xlink:href="#f2_1x" transform="matrix(12,0,0,12,369.7,765.8)" />
<use xlink:href="#f2_28" transform="matrix(12,0,0,12,378.1,765.8)" />
<use xlink:href="#f2_2g" transform="matrix(12,0,0,12,387.2,765.8)" />
<use xlink:href="#f2_2b" transform="matrix(12,0,0,12,392.7,765.8)" />
<use xlink:href="#f2_2g" transform="matrix(12,0,0,12,406.3,765.8)" />
<use xlink:href="#f2_24" transform="matrix(12,0,0,12,411.8,765.8)" />
<use xlink:href="#f2_21" transform="matrix(12,0,0,12,420.6,765.8)" />
<use xlink:href="#f2_1z" transform="matrix(12,0,0,12,433.4,765.8)" />
<use xlink:href="#f2_2h" transform="matrix(12,0,0,12,441.4,765.8)" />
<use xlink:href="#f2_2e" transform="matrix(12,0,0,12,450.6,765.8)" />
<use xlink:href="#f2_2i" transform="matrix(12,0,0,12,456.8,765.8)" />
<use xlink:href="#f2_21" transform="matrix(12,0,0,12,465.6,765.8)" />
</g>
<path d="M482.1,761.1h19.2m18.5,0h20" class="g8_126" />
<g clip-path="url(#c6_126)">
<g fill="#000000" >
<use xlink:href="#f2_m" transform="matrix(7.2,0,0,7.2,493.4,745.5)" />
<use xlink:href="#f2_m" transform="matrix(7.2,0,0,7.2,532,745.5)" />
<use xlink:href="#f2_m" transform="matrix(7.2,0,0,7.2,493.5,772.2)" />
<use xlink:href="#f2_m" transform="matrix(7.2,0,0,7.2,531.2,772.2)" />
<use xlink:href="#f2_l" transform="matrix(12.5,0,0,12.4,557.5,765.8)" />
<use xlink:href="#f3_2k" transform="matrix(12.5,0,0,12.4,484.3,753.9)" />
<use xlink:href="#f3_2l" transform="matrix(12.5,0,0,12.4,522.7,753.9)" />
<use xlink:href="#f3_1x" transform="matrix(12.5,0,0,12.4,483.3,780.6)" />
<use xlink:href="#f3_1y" transform="matrix(12.5,0,0,12.4,521.2,780.6)" />
<use xlink:href="#f4_h" transform="matrix(12.5,0,0,12.4,505.7,765.8)" />
<use xlink:href="#f4_x" transform="matrix(12.5,0,0,12.4,544.9,765.8)" />
</g>
</g>
<g fill="#000000" >
<use xlink:href="#f2_1x" transform="matrix(12,0,0,12,572.6,765.8)" />
<use xlink:href="#f2_2g" transform="matrix(12,0,0,12,580.6,765.8)" />
<use xlink:href="#f2_2g" transform="matrix(12,0,0,12,590.2,765.8)" />
<use xlink:href="#f2_24" transform="matrix(12,0,0,12,595.7,765.8)" />
<use xlink:href="#f2_21" transform="matrix(12,0,0,12,604.5,765.8)" />
<use xlink:href="#f2_2c" transform="matrix(12,0,0,12,617.3,765.8)" />
<use xlink:href="#f2_2b" transform="matrix(12,0,0,12,626.4,765.8)" />
<use xlink:href="#f2_25" transform="matrix(12,0,0,12,636,765.8)" />
<use xlink:href="#f2_2a" transform="matrix(12,0,0,12,640.7,765.8)" />
<use xlink:href="#f2_2g" transform="matrix(12,0,0,12,649.5,765.8)" />
</g>
<path d="M670.4,762.5l1.8,-1m.1,0l4.4,7.3m0,0l4.9,-19.4m0,0h20.6" class="g9_126" />
<path fill-rule="evenodd" d="M669.5,761.6l2.5,-1.4l4,5.9l4.5,-17.8h21v.9H681.2l-4.8,18.9h-.9L671,761.3l-1.2,.8l-.3,-.5Z" class="g10_126" />
<g clip-path="url(#c7_126)">
<g fill="#000000" >
<use xlink:href="#f4_c" transform="matrix(12.4,0,0,21.8,661.6,769.6)" />
<use xlink:href="#f4_d" transform="matrix(12.4,0,0,21.8,720.8,769.6)" />
<use xlink:href="#f2_m" transform="matrix(12.6,0,0,12.2,681.7,766.3)" />
<use xlink:href="#f2_g" transform="matrix(12.6,0,0,12.2,702.1,766.3)" />
<use xlink:href="#f2_i" transform="matrix(12.6,0,0,12.2,727.5,766.3)" />
<use xlink:href="#f3_1x" transform="matrix(12.6,0,0,12.2,691.1,766.3)" />
<use xlink:href="#f3_1y" transform="matrix(12.6,0,0,12.2,710.3,766.3)" />
</g>
</g>
<g fill="#000000" >
<use xlink:href="#f5_1j" transform="matrix(12,0,0,12,55,815.3)" />
<use xlink:href="#f5_2b" transform="matrix(12,0,0,12,65.3,815.3)" />
<use xlink:href="#f5_28" transform="matrix(12,0,0,12,74.5,815.3)" />
<use xlink:href="#f5_2h" transform="matrix(12,0,0,12,79.2,815.3)" />
<use xlink:href="#f5_2g" transform="matrix(12,0,0,12,89.5,815.3)" />
<use xlink:href="#f5_25" transform="matrix(12,0,0,12,95.7,815.3)" />
<use xlink:href="#f5_2b" transform="matrix(12,0,0,12,100.8,815.3)" />
<use xlink:href="#f5_2a" transform="matrix(12,0,0,12,109.9,815.3)" />
<use xlink:href="#f5_u" transform="matrix(12,0,0,12,120.2,815.3)" />
<use xlink:href="#f2_2l" transform="matrix(12,0,0,12,55,850.1)" />
<use xlink:href="#f2_x" transform="matrix(12,0,0,12,68.6,850.1)" />
<use xlink:href="#f2_1r" transform="matrix(12,0,0,12,83.6,850.1)" />
<use xlink:href="#f2_2k" transform="matrix(12,0,0,12,89.8,850.1)" />
<use xlink:href="#f2_c" transform="matrix(12,0,0,12,103.4,850.1)" />
<use xlink:href="#f2_2k" transform="matrix(12,0,0,12,109.6,850.1)" />
<use xlink:href="#f6_4y" transform="matrix(12,0,0,12,123.2,850.1)" />
<use xlink:href="#f2_m" transform="matrix(12,0,0,12,137.2,850.1)" />
<use xlink:href="#f2_d" transform="matrix(12,0,0,12,146.3,850.1)" />
<use xlink:href="#f2_1t" transform="matrix(12,0,0,12,152.6,850.1)" />
<use xlink:href="#f2_m" transform="matrix(7.9,0,0,7.9,158.8,843.2)" />
<use xlink:href="#f2_2j" transform="matrix(12,0,0,12,55,885.4)" />
<use xlink:href="#f2_21" transform="matrix(12,0,0,12,68.3,885.4)" />
<use xlink:href="#f2_27" transform="matrix(12,0,0,12,81.1,885.4)" />
<use xlink:href="#f2_2a" transform="matrix(12,0,0,12,90.2,885.4)" />
<use xlink:href="#f2_2b" transform="matrix(12,0,0,12,99,885.4)" />
<use xlink:href="#f2_2j" transform="matrix(12,0,0,12,108.5,885.4)" />
<use xlink:href="#f2_g" transform="matrix(12,0,0,12,121.8,885.4)" />
<use xlink:href="#f2_22" transform="matrix(12,0,0,12,131.2,885.4)" />
<use xlink:href="#f2_2b" transform="matrix(12,0,0,12,136.7,885.4)" />
<use xlink:href="#f2_2e" transform="matrix(12,0,0,12,146.2,885.4)" />
<use xlink:href="#f2_25" transform="matrix(12,0,0,12,157.2,885.4)" />
<use xlink:href="#f2_2a" transform="matrix(12,0,0,12,162,885.4)" />
<use xlink:href="#f2_1z" transform="matrix(12,0,0,12,170.8,885.4)" />
<use xlink:href="#f2_2e" transform="matrix(12,0,0,12,178.8,885.4)" />
<use xlink:href="#f2_21" transform="matrix(12,0,0,12,185.1,885.4)" />
<use xlink:href="#f2_1x" transform="matrix(12,0,0,12,193.1,885.4)" />
<use xlink:href="#f2_2f" transform="matrix(12,0,0,12,201.2,885.4)" />
<use xlink:href="#f2_25" transform="matrix(12,0,0,12,208.5,885.4)" />
<use xlink:href="#f2_2a" transform="matrix(12,0,0,12,213.3,885.4)" />
<use xlink:href="#f2_23" transform="matrix(12,0,0,12,222.4,885.4)" />
<use xlink:href="#f2_22" transform="matrix(12,0,0,12,236.7,885.4)" />
<use xlink:href="#f2_2h" transform="matrix(12,0,0,12,242.2,885.4)" />
<use xlink:href="#f2_2a" transform="matrix(12,0,0,12,251.7,885.4)" />
<use xlink:href="#f2_1z" transform="matrix(12,0,0,12,260.5,885.4)" />
<use xlink:href="#f2_2g" transform="matrix(12,0,0,12,268.6,885.4)" />
<use xlink:href="#f2_25" transform="matrix(12,0,0,12,274.5,885.4)" />
<use xlink:href="#f2_2b" transform="matrix(12,0,0,12,278.9,885.4)" />
<use xlink:href="#f2_2a" transform="matrix(12,0,0,12,288.4,885.4)" />
<use xlink:href="#f2_2j" transform="matrix(12,0,0,12,301.9,885.4)" />
<use xlink:href="#f2_21" transform="matrix(12,0,0,12,315.2,885.4)" />
<use xlink:href="#f2_24" transform="matrix(12,0,0,12,327.9,885.4)" />
<use xlink:href="#f2_1x" transform="matrix(12,0,0,12,337.1,885.4)" />
<use xlink:href="#f2_2i" transform="matrix(12,0,0,12,345.5,885.4)" />
<use xlink:href="#f2_21" transform="matrix(12,0,0,12,354.3,885.4)" />
</g>
<g clip-path="url(#c8_126)">
<g fill="#000000" >
<use xlink:href="#f2_b" transform="matrix(12.8,0,0,12.4,384.9,885.5)" />
<use xlink:href="#f2_c" transform="matrix(12.8,0,0,12.4,387.4,885.5)" />
<use xlink:href="#f2_d" transform="matrix(12.8,0,0,12.4,403.4,885.5)" />
<use xlink:href="#f2_k" transform="matrix(12.8,0,0,12.4,427.8,885.5)" />
<use xlink:href="#f3_22" transform="matrix(12.8,0,0,12.4,373.8,885.5)" />
<use xlink:href="#f3_2k" transform="matrix(12.8,0,0,12.4,394.9,885.5)" />
<use xlink:href="#f4_39" transform="matrix(12.8,0,0,12.4,413.7,885.5)" />
</g>
</g>
<path d="M224.4,932.6h19.4" class="g11_126" />
<g clip-path="url(#c9_126)">
<g fill="#000000" >
<use xlink:href="#f2_b" transform="matrix(12.7,0,0,12.2,92.6,937.2)" />
<use xlink:href="#f2_c" transform="matrix(12.7,0,0,12.2,95.2,937.2)" />
<use xlink:href="#f2_d" transform="matrix(12.7,0,0,12.2,111.2,937.2)" />
<use xlink:href="#f2_m" transform="matrix(12.7,0,0,12.2,136.2,937.2)" />
<use xlink:href="#f2_1r" transform="matrix(12.7,0,0,12.2,144.2,937.2)" />
<use xlink:href="#f2_c" transform="matrix(12.7,0,0,12.2,160.2,937.2)" />
<use xlink:href="#f2_m" transform="matrix(12.7,0,0,12.2,193.4,937.2)" />
<use xlink:href="#f2_d" transform="matrix(12.7,0,0,12.2,202.5,937.2)" />
<use xlink:href="#f2_1t" transform="matrix(12.7,0,0,12.2,208.6,937.2)" />
<use xlink:href="#f2_c" transform="matrix(12.7,0,0,12.2,256,937.2)" />
<use xlink:href="#f2_m" transform="matrix(12.7,0,0,12.2,289.1,937.2)" />
<use xlink:href="#f2_d" transform="matrix(12.7,0,0,12.2,298.3,937.2)" />
<use xlink:href="#f3_20" transform="matrix(12.7,0,0,12.2,228.8,925.5)" />
<use xlink:href="#f3_22" transform="matrix(12.7,0,0,12.2,81.5,937.2)" />
<use xlink:href="#f3_2k" transform="matrix(12.7,0,0,12.2,102.6,937.2)" />
<use xlink:href="#f3_2k" transform="matrix(12.7,0,0,12.2,151.6,937.2)" />
<use xlink:href="#f3_2k" transform="matrix(12.7,0,0,12.2,167.6,937.2)" />
<use xlink:href="#f3_2k" transform="matrix(12.7,0,0,12.2,247.4,937.2)" />
<use xlink:href="#f3_2k" transform="matrix(12.7,0,0,12.2,263.4,937.2)" />
<use xlink:href="#f3_20" transform="matrix(12.7,0,0,12.2,225.5,951.8)" />
<use xlink:href="#f3_2k" transform="matrix(12.7,0,0,12.2,234.7,951.8)" />
<use xlink:href="#f4_4r" transform="matrix(12.7,0,0,12.2,216.2,926.9)" />
<use xlink:href="#f4_57" transform="matrix(12.7,0,0,12.2,305.4,926.9)" />
<use xlink:href="#f4_1s" transform="matrix(12.7,0,0,12.2,55.1,937.2)" />
<use xlink:href="#f4_x" transform="matrix(12.7,0,0,12.2,121.7,937.2)" />
<use xlink:href="#f4_h" transform="matrix(12.7,0,0,12.2,179.7,937.2)" />
<use xlink:href="#f4_h" transform="matrix(12.7,0,0,12.2,275.4,937.2)" />
<use xlink:href="#f4_4s" transform="matrix(12.7,0,0,12.2,216.2,944.5)" />
<use xlink:href="#f4_58" transform="matrix(12.7,0,0,12.2,305.4,944.5)" />
<use xlink:href="#f4_4t" transform="matrix(12.7,0,0,12.2,216.2,953.9)" />
<use xlink:href="#f4_59" transform="matrix(12.7,0,0,12.2,305.4,953.9)" />
</g>
</g>
<g fill="#000000" >
<use xlink:href="#f2_1f" transform="matrix(12,0,0,12,55,1001.6)" />
<use xlink:href="#f2_2e" transform="matrix(12,0,0,12,68.3,1001.6)" />
<use xlink:href="#f2_g" transform="matrix(12,0,0,12,74.5,1001.6)" />
</g>
<path d="M224.3,997h19.4" class="g12_126" />
<g clip-path="url(#c10_126)">
<g fill="#000000" >
<use xlink:href="#f2_m" transform="matrix(7.4,0,0,7.1,262.6,993.4)" />
<use xlink:href="#f2_b" transform="matrix(12.7,0,0,12.4,101,1001.7)" />
<use xlink:href="#f2_c" transform="matrix(12.7,0,0,12.4,103.6,1001.7)" />
<use xlink:href="#f2_d" transform="matrix(12.7,0,0,12.4,119.5,1001.7)" />
<use xlink:href="#f2_m" transform="matrix(12.7,0,0,12.4,144.4,1001.7)" />
<use xlink:href="#f2_1r" transform="matrix(12.7,0,0,12.4,152.4,1001.7)" />
<use xlink:href="#f2_c" transform="matrix(12.7,0,0,12.4,168.4,1001.7)" />
<use xlink:href="#f2_m" transform="matrix(12.7,0,0,12.4,201.5,1001.7)" />
<use xlink:href="#f2_d" transform="matrix(12.7,0,0,12.4,210.6,1001.7)" />
<use xlink:href="#f2_1t" transform="matrix(12.7,0,0,12.4,216.6,1001.7)" />
<use xlink:href="#f2_c" transform="matrix(12.7,0,0,12.4,246.1,1001.7)" />
<use xlink:href="#f2_m" transform="matrix(12.7,0,0,12.4,286.7,1001.7)" />
<use xlink:href="#f2_d" transform="matrix(12.7,0,0,12.4,305.6,1001.7)" />
<use xlink:href="#f3_20" transform="matrix(12.7,0,0,12.4,228.7,989.8)" />
<use xlink:href="#f3_22" transform="matrix(12.7,0,0,12.4,89.9,1001.7)" />
<use xlink:href="#f3_2k" transform="matrix(12.7,0,0,12.4,110.9,1001.7)" />
<use xlink:href="#f3_2k" transform="matrix(12.7,0,0,12.4,159.8,1001.7)" />
<use xlink:href="#f3_2k" transform="matrix(12.7,0,0,12.4,175.8,1001.7)" />
<use xlink:href="#f3_2k" transform="matrix(12.7,0,0,12.4,253.5,1001.7)" />
<use xlink:href="#f3_2k" transform="matrix(12.7,0,0,12.4,297,1001.7)" />
<use xlink:href="#f3_20" transform="matrix(12.7,0,0,12.4,225.4,1016.4)" />
<use xlink:href="#f3_2k" transform="matrix(12.7,0,0,12.4,234.5,1016.4)" />
<use xlink:href="#f4_x" transform="matrix(12.7,0,0,12.4,130,1001.7)" />
<use xlink:href="#f4_h" transform="matrix(12.7,0,0,12.4,187.8,1001.7)" />
<use xlink:href="#f4_h" transform="matrix(12.7,0,0,12.4,273.1,1001.7)" />
</g>
</g>
<g fill="#000000" >
<use xlink:href="#f2_x" transform="matrix(12,0,0,12,55,1051.2)" />
<use xlink:href="#f2_m" transform="matrix(12,0,0,12,70.1,1051.2)" />
<use xlink:href="#f2_2k" transform="matrix(12,0,0,12,79.2,1051.2)" />
<use xlink:href="#f2_c" transform="matrix(12,0,0,12,88,1051.2)" />
<use xlink:href="#f2_2k" transform="matrix(12,0,0,12,94.2,1051.2)" />
<use xlink:href="#f6_4y" transform="matrix(12,0,0,12,107.8,1051.2)" />
<use xlink:href="#f2_m" transform="matrix(12,0,0,12,121.8,1051.2)" />
<use xlink:href="#f2_d" transform="matrix(12,0,0,12,130.9,1051.2)" />
<use xlink:href="#f2_c" transform="matrix(12,0,0,12,141.9,1051.2)" />
<use xlink:href="#f2_m" transform="matrix(12,0,0,12,148.1,1051.2)" />
<use xlink:href="#f2_2k" transform="matrix(12,0,0,12,157.3,1051.2)" />
<use xlink:href="#f6_4y" transform="matrix(12,0,0,12,170.9,1051.2)" />
<use xlink:href="#f2_m" transform="matrix(12,0,0,12,184.9,1051.2)" />
<use xlink:href="#f2_d" transform="matrix(12,0,0,12,194,1051.2)" />
<use xlink:href="#f2_x" transform="matrix(12,0,0,12,55,1073.9)" />
<use xlink:href="#f2_o" transform="matrix(12,0,0,12,70.1,1073.9)" />
<use xlink:href="#f2_2k" transform="matrix(12,0,0,12,79.2,1073.9)" />
<use xlink:href="#f2_c" transform="matrix(12,0,0,12,88,1073.9)" />
<use xlink:href="#f2_2k" transform="matrix(12,0,0,12,94.2,1073.9)" />
<use xlink:href="#f6_4y" transform="matrix(12,0,0,12,107.8,1073.9)" />
<use xlink:href="#f2_m" transform="matrix(12,0,0,12,121.8,1073.9)" />
<use xlink:href="#f2_d" transform="matrix(12,0,0,12,130.9,1073.9)" />
<use xlink:href="#f2_c" transform="matrix(12,0,0,12,141.9,1073.9)" />
<use xlink:href="#f2_2k" transform="matrix(12,0,0,12,148.1,1073.9)" />
<use xlink:href="#f6_4y" transform="matrix(12,0,0,12,161.8,1073.9)" />
<use xlink:href="#f2_l" transform="matrix(12,0,0,12,175.7,1073.9)" />
<use xlink:href="#f2_d" transform="matrix(12,0,0,12,184.9,1073.9)" />
<use xlink:href="#f2_16" transform="matrix(12,0,0,12,55,1108.7)" />
<use xlink:href="#f2_2b" transform="matrix(12,0,0,12,64.9,1108.7)" />
<use xlink:href="#f2_2e" transform="matrix(12,0,0,12,74.5,1108.7)" />
</g>
<g clip-path="url(#c11_126)">
<g fill="#000000" >
<use xlink:href="#f2_b" transform="matrix(12.8,0,0,12.3,102.5,1108.8)" />
<use xlink:href="#f2_c" transform="matrix(12.8,0,0,12.3,105.1,1108.8)" />
<use xlink:href="#f2_d" transform="matrix(12.8,0,0,12.3,121.1,1108.8)" />
<use xlink:href="#f2_k" transform="matrix(12.8,0,0,12.3,145.5,1108.8)" />
<use xlink:href="#f3_22" transform="matrix(12.8,0,0,12.3,91.5,1108.8)" />
<use xlink:href="#f3_2k" transform="matrix(12.8,0,0,12.3,112.5,1108.8)" />
<use xlink:href="#f4_39" transform="matrix(12.8,0,0,12.3,131.3,1108.8)" />
</g>
</g>
<g fill="#000000" >
<use xlink:href="#f2_25" transform="matrix(12,0,0,12,55,1147.6)" />
<use xlink:href="#f2_i" transform="matrix(12,0,0,12,59.4,1147.6)" />
<use xlink:href="#f2_21" transform="matrix(12,0,0,12,64.6,1147.6)" />
<use xlink:href="#f2_i" transform="matrix(12,0,0,12,72.6,1147.6)" />
<use xlink:href="#f2_g" transform="matrix(12,0,0,12,77.4,1147.6)" />
<use xlink:href="#f2_o" transform="matrix(12,0,0,12,86.9,1147.6)" />
<use xlink:href="#f2_2k" transform="matrix(12,0,0,12,96,1147.6)" />
<use xlink:href="#f2_c" transform="matrix(12,0,0,12,104.8,1147.6)" />
<use xlink:href="#f2_2k" transform="matrix(12,0,0,12,111,1147.6)" />
<use xlink:href="#f6_4y" transform="matrix(12,0,0,12,124.7,1147.6)" />
<use xlink:href="#f2_l" transform="matrix(12,0,0,12,138.6,1147.6)" />
<use xlink:href="#f2_d" transform="matrix(12,0,0,12,147.8,1147.6)" />
<use xlink:href="#f2_c" transform="matrix(12,0,0,12,158.4,1147.6)" />
<use xlink:href="#f2_2k" transform="matrix(12,0,0,12,164.6,1147.6)" />
<use xlink:href="#f6_4y" transform="matrix(12,0,0,12,178.3,1147.6)" />
<use xlink:href="#f2_m" transform="matrix(12,0,0,12,192.2,1147.6)" />
<use xlink:href="#f2_d" transform="matrix(12,0,0,12,201.4,1147.6)" />
</g>
<g clip-path="url(#c12_126)">
<g fill="#000000" >
<use xlink:href="#f4_39" transform="matrix(12.4,0,0,12.1,214.7,1147.6)" />
</g>
</g>
<g fill="#000000" >
<use xlink:href="#f2_k" transform="matrix(12,0,0,12,232.5,1147.6)" />
<use xlink:href="#f2_2g" transform="matrix(12,0,0,12,55,1182.5)" />
<use xlink:href="#f2_24" transform="matrix(12,0,0,12,60.5,1182.5)" />
<use xlink:href="#f2_21" transform="matrix(12,0,0,12,69.3,1182.5)" />
<use xlink:href="#f2_2i" transform="matrix(12,0,0,12,82.1,1182.5)" />
<use xlink:href="#f2_1x" transform="matrix(12,0,0,12,90.9,1182.5)" />
<use xlink:href="#f2_28" transform="matrix(12,0,0,12,99.3,1182.5)" />
<use xlink:href="#f2_2h" transform="matrix(12,0,0,12,104.1,1182.5)" />
<use xlink:href="#f2_21" transform="matrix(12,0,0,12,113.3,1182.5)" />
<use xlink:href="#f2_2f" transform="matrix(12,0,0,12,121.3,1182.5)" />
<use xlink:href="#f2_2b" transform="matrix(12,0,0,12,133.1,1182.5)" />
<use xlink:href="#f2_22" transform="matrix(12,0,0,12,142.6,1182.5)" />
<use xlink:href="#f2_2k" transform="matrix(12,0,0,12,153.2,1182.5)" />
<use xlink:href="#f2_1x" transform="matrix(12,0,0,12,166.7,1182.5)" />
<use xlink:href="#f2_2e" transform="matrix(12,0,0,12,174.8,1182.5)" />
<use xlink:href="#f2_21" transform="matrix(12,0,0,12,181,1182.5)" />
<use xlink:href="#f2_u" transform="matrix(12,0,0,12,193.8,1182.5)" />
</g>
<path fill-rule="evenodd" d="M37.4,38.1h.7v-.7h-.7v.7Z" class="g10_126" />
<path fill-rule="evenodd" d="M37.4,38.1h.7v-.7h-.7v.7Z" class="g10_126" />
<path fill-rule="evenodd" d="M38.1,38.1H871.5v-.7H38.1v.7Z" class="g10_126" />
<path fill-rule="evenodd" d="M871.5,38.1h.8v-.7h-.8v.7Z" class="g10_126" />
<path fill-rule="evenodd" d="M871.5,38.1h.8v-.7h-.8v.7Z" class="g10_126" />
<path fill-rule="evenodd" d="M37.4,1248.5h.7V38.1h-.7V1248.5Z" class="g10_126" />
<path fill-rule="evenodd" d="M872.3,1248.5h.7V38.1h-.7V1248.5Z" class="g10_126" />
<path fill-rule="evenodd" d="M871.5,1248.5h.8V38.1h-.8V1248.5Z" class="g10_126" />
<path fill-rule="evenodd" d="M37.4,1249.2h.7v-.7h-.7v.7Z" class="g10_126" />
<path fill-rule="evenodd" d="M37.4,1249.2h.7v-.7h-.7v.7Z" class="g10_126" />
<path fill-rule="evenodd" d="M38.1,1249.9H871.5v-.7H38.1v.7Z" class="g10_126" />
<path fill-rule="evenodd" d="M38.1,1249.2H871.5v-.7H38.1v.7Z" class="g10_126" />
<path fill-rule="evenodd" d="M872.3,1249.9h.7v-1.4h-.7v1.4Z" class="g10_126" />
<path fill-rule="evenodd" d="M871.5,1249.9H873v-.7h-1.5v.7Z" class="g10_126" />
<path fill-rule="evenodd" d="M871.5,1249.2h.8v-.7h-.8v.7Z" class="g10_126" />
<path fill-rule="evenodd" d="M871.5,1249.2h.8v-.7h-.8v.7Z" class="g10_126" />
<defs>
<path d="M489,-15c0,0,-99,0,-179,30c0,0,-80,30,-136,91c0,0,-56,61,-85,152c0,0,-30,91,-30,212c0,0,0,123,32,218c0,0,33,96,92,161c0,0,59,65,142,98c0,0,82,34,181,34c0,0,40,0,78,-7c0,0,37,-7,69,-18c0,0,31,-11,57,-25c0,0,25,-14,35,-24c0,0,10,-10,14,-17c0,0,4,-7,6,-17c0,0,2,-11,3,-25c0,0,2,-14,2,-35c0,0,0,-22,-2,-38c0,0,-1,-15,-5,-25c0,0,-4,-10,-9,-14c0,0,-5,-5,-12,-5c0,0,-11,0,-28,13c0,0,-18,13,-45,29c0,0,-27,16,-65,29c0,0,-37,13,-89,13c0,0,-58,0,-103,-23c0,0,-45,-23,-77,-67c0,0,-31,-44,-48,-106c0,0,-16,-61,-16,-139c0,0,0,-85,17,-147c0,0,18,-62,50,-103c0,0,33,-40,79,-60c0,0,45,-19,103,-19c0,0,52,0,90,12c0,0,38,12,65,27c0,0,27,15,45,27c0,0,17,12,27,12c0,0,8,0,12,-3c0,0,4,-3,7,-12c0,0,3,-9,5,-25c0,0,1,-16,1,-43c0,0,0,-18,-1,-31c0,0,-1,-14,-3,-23c0,0,-2,-9,-6,-16c0,0,-4,-7,-12,-15c0,0,-8,-9,-32,-22c0,0,-23,-14,-57,-26C661,13,627,1,583,-6c0,0,-43,-9,-94,-9Z" 
id="f0_j"
transform="scale(0.001,-0.001)" />

<path d="M440,150c0,0,41,0,68,8c0,0,28,9,49,26c0,0,20,16,32,41c0,0,11,25,11,58c0,0,0,33,-11,60c0,0,-11,26,-33,44c0,0,-21,18,-55,28c0,0,-33,9,-87,9H298V150ZM407,567c0,0,42,0,68,10c0,0,25,10,42,28c0,0,16,17,24,41c0,0,9,24,9,50c0,0,0,29,-9,52c0,0,-9,23,-27,39c0,0,-18,15,-45,23c0,0,-27,8,-72,8H298V567ZM164,0c0,0,-25,0,-42,15c0,0,-16,14,-16,47V903c0,0,0,33,16,48c0,0,17,14,42,14H406c0,0,88,0,150,-15c0,0,61,-15,103,-45c0,0,42,-30,65,-77c0,0,22,-46,22,-108c0,0,0,-36,-9,-67c0,0,-9,-31,-26,-56c0,0,-17,-25,-42,-45c0,0,-25,-19,-57,-31c0,0,41,-7,76,-26c0,0,34,-19,60,-48c0,0,26,-30,41,-69c0,0,15,-40,15,-89c0,0,0,-51,-14,-93c0,0,-15,-42,-40,-74c0,0,-25,-32,-59,-55c0,0,-35,-23,-77,-38C614,29,573,14,525,7C525,7,478,0,420,0Z" 
id="f0_i"
transform="scale(0.001,-0.001)" />

<path d="M320,-17c0,0,-50,0,-93,9c0,0,-43,8,-76,19c0,0,-32,11,-54,24C97,35,75,48,65,58c0,0,-10,9,-14,28c0,0,-4,18,-4,52c0,0,0,23,1,39c0,0,2,15,5,25c0,0,4,10,9,14c0,0,6,4,13,4c0,0,11,0,30,-12c0,0,19,-13,49,-28c0,0,30,-15,71,-27c0,0,42,-12,96,-12c0,0,36,0,64,8c0,0,29,9,49,25c0,0,19,15,30,38c0,0,10,23,10,52c0,0,0,33,-18,56c0,0,-18,24,-46,42c0,0,-29,18,-66,34c0,0,-36,16,-75,34c0,0,-39,18,-76,41c0,0,-36,23,-65,54c0,0,-29,32,-47,75c0,0,-17,44,-17,104c0,0,0,70,25,122c0,0,26,53,70,88c0,0,43,34,103,51c0,0,59,18,125,18c0,0,35,0,69,-6c0,0,34,-5,64,-14c0,0,30,-9,53,-20c0,0,23,-11,31,-18c0,0,7,-8,10,-13c0,0,3,-5,4,-14c0,0,2,-8,3,-21c0,0,1,-13,1,-33c0,0,0,-21,-1,-36c0,0,-1,-15,-4,-25c0,0,-3,-9,-7,-14c0,0,-5,-4,-14,-4c0,0,-8,0,-26,10c0,0,-18,10,-44,23c0,0,-26,12,-60,22c0,0,-34,10,-75,10c0,0,-32,0,-56,-8c0,0,-24,-8,-40,-21c0,0,-16,-14,-24,-34c0,0,-8,-19,-8,-41c0,0,0,-32,18,-56c0,0,17,-23,46,-42c0,0,30,-18,67,-34c0,0,38,-16,76,-34c0,0,39,-18,76,-41c0,0,38,-22,67,-54c0,0,29,-32,47,-75c0,0,18,-43,18,-101c0,0,0,-76,-29,-133c0,0,-28,-58,-77,-96C572,60,524,21,459,2c0,0,-65,-19,-139,-19Z" 
id="f0_2n"
transform="scale(0.001,-0.001)" />

<path d="M164,0c0,0,-25,0,-42,15c0,0,-16,14,-16,47V903c0,0,0,33,16,48c0,0,17,14,42,14H645c0,0,7,0,12,-4c0,0,5,-3,9,-13c0,0,4,-9,6,-24c0,0,2,-14,2,-36c0,0,0,-21,-2,-36c0,0,-2,-14,-6,-23c0,0,-4,-9,-9,-13c0,0,-5,-4,-12,-4H301V576H593c0,0,6,0,12,-4c0,0,6,-4,9,-13c0,0,4,-8,6,-23c0,0,2,-14,2,-35c0,0,0,-22,-2,-36c0,0,-2,-14,-6,-23c0,0,-3,-8,-9,-12c0,0,-6,-4,-12,-4H301V154H649c0,0,6,0,12,-5c0,0,5,-4,9,-13c0,0,4,-9,6,-23c0,0,2,-15,2,-36c0,0,0,-22,-2,-36c0,0,-2,-15,-6,-24c0,0,-4,-9,-9,-13c0,0,-6,-4,-12,-4Z" 
id="f0_t"
transform="scale(0.001,-0.001)" />

<path d="M79,297c0,0,-19,0,-27,18c0,0,-8,17,-8,60c0,0,0,41,8,59c0,0,8,17,27,17H389c0,0,9,0,15,-4c0,0,7,-4,11,-13c0,0,5,-9,7,-23c0,0,1,-15,1,-36c0,0,0,-43,-8,-61c0,0,-8,-17,-26,-17Z" 
id="f0_oj"
transform="scale(0.001,-0.001)" />

<path d="M121,-4c0,0,-39,0,-60,2C61,-2,39,0,32,8c0,0,-8,8,-3,24c0,0,4,15,18,41L279,495L64,892c0,0,-14,26,-19,42c0,0,-5,17,4,24c0,0,9,8,32,10c0,0,23,2,65,2c0,0,35,0,56,-2c0,0,20,-1,32,-4c0,0,12,-4,17,-10c0,0,5,-6,9,-15L431,620L595,939c0,0,5,9,10,15c0,0,5,6,16,10c0,0,10,3,29,4c0,0,19,2,53,2c0,0,37,0,59,-2c0,0,22,-2,30,-10c0,0,8,-8,4,-24c0,0,-4,-16,-17,-42L564,497L793,73c0,0,14,-26,18,-41c0,0,4,-16,-5,-24c0,0,-9,-8,-32,-10c0,0,-24,-2,-65,-2c0,0,-36,0,-56,2c0,0,-20,1,-31,3c0,0,-12,4,-17,10c0,0,-5,6,-9,15L414,374L233,26c0,0,-4,-9,-9,-15c0,0,-6,-6,-17,-10c0,0,-12,-2,-32,-3c0,0,-21,-2,-54,-2Z" 
id="f0_3e"
transform="scale(0.001,-0.001)" />

<path d="M204,-4c0,0,-28,0,-47,2c0,0,-19,2,-31,5c0,0,-11,4,-16,10c0,0,-4,6,-4,13V939c0,0,0,7,4,13c0,0,5,6,17,10c0,0,11,3,30,6c0,0,19,2,47,2c0,0,29,0,48,-2c0,0,18,-3,29,-6c0,0,11,-4,16,-10c0,0,5,-6,5,-13V26c0,0,0,-7,-5,-13c0,0,-5,-6,-16,-10c0,0,-11,-3,-29,-5c0,0,-19,-2,-48,-2Z" 
id="f0_1c"
transform="scale(0.001,-0.001)" />

<path d="M127,0c0,0,-16,0,-28,3C99,3,87,6,80,15c0,0,-8,8,-11,25c0,0,-3,16,-3,42c0,0,0,25,2,42c0,0,2,18,8,32c0,0,6,14,15,27c0,0,9,13,24,29L282,390c0,0,50,53,81,95c0,0,30,43,47,79c0,0,17,35,24,65c0,0,6,30,6,57c0,0,0,24,-8,46c0,0,-8,22,-23,39c0,0,-15,16,-38,25c0,0,-23,10,-55,10c0,0,-44,0,-78,-12c0,0,-33,-11,-59,-25c0,0,-26,-13,-43,-25c0,0,-17,-12,-27,-12c0,0,-7,0,-11,5c0,0,-5,4,-8,15c0,0,-3,10,-5,28c0,0,-2,17,-2,42c0,0,0,18,1,29c0,0,1,12,4,20c0,0,2,9,6,15c0,0,3,6,13,15c0,0,9,9,34,23c0,0,25,14,61,27c0,0,37,14,81,23c0,0,44,9,92,9c0,0,75,0,131,-19c0,0,57,-19,94,-53c0,0,37,-34,55,-81c0,0,19,-47,19,-100c0,0,0,-47,-9,-93c0,0,-9,-45,-37,-98c0,0,-29,-52,-80,-116c0,0,-52,-64,-136,-148L299,159H679c0,0,8,0,14,-4c0,0,6,-5,11,-14c0,0,4,-9,7,-25c0,0,2,-15,2,-36c0,0,0,-22,-2,-37c0,0,-2,-15,-6,-25c0,0,-3,-10,-9,-14c0,0,-6,-4,-14,-4Z" 
id="f0_rz"
transform="scale(0.001,-0.001)" />

<path d="M385,138c0,0,29,0,52,9c0,0,22,10,39,28c0,0,17,19,28,47c0,0,11,29,19,66c0,0,7,37,9,84c0,0,3,47,3,104c0,0,0,69,-4,122c0,0,-4,52,-11,91c0,0,-8,39,-20,66c0,0,-12,27,-28,43c0,0,-16,16,-37,22c0,0,-21,7,-47,7c0,0,-44,0,-73,-21c0,0,-28,-21,-45,-64c0,0,-17,-42,-24,-106c0,0,-6,-63,-6,-148c0,0,0,-103,8,-171c0,0,8,-67,26,-107c0,0,17,-40,45,-56c0,0,27,-16,66,-16ZM378,-17c0,0,-99,0,-164,33c0,0,-65,34,-103,98c0,0,-38,64,-54,156c0,0,-15,92,-15,209c0,0,0,115,19,208c0,0,19,94,61,160c0,0,42,65,110,101c0,0,68,35,165,35c0,0,99,0,164,-34c0,0,65,-34,103,-98c0,0,39,-64,53,-156c0,0,15,-92,15,-209c0,0,0,-115,-18,-209c0,0,-19,-93,-61,-159C653,118,611,53,543,17c0,0,-67,-34,-165,-34Z" 
id="f0_rx"
transform="scale(0.001,-0.001)" />

<path d="M142,0c0,0,-6,0,-12,4c0,0,-5,3,-9,12c0,0,-4,9,-6,23c0,0,-3,15,-3,36c0,0,0,21,2,36c0,0,2,14,6,23c0,0,4,9,10,13c0,0,5,5,12,5H322V779L166,693c0,0,-17,-8,-28,-10c0,0,-1,0,-3,0c-4,0,-10,1,-14,5c0,0,-6,6,-8,22c0,0,-2,15,-2,44c0,0,0,18,0,29c0,0,1,12,4,20c0,0,3,8,8,14c0,0,5,5,14,11L345,962c0,0,4,3,9,5c0,0,6,2,15,3c0,0,9,1,23,2c0,0,15,0,38,0c0,0,28,0,46,-1c0,0,17,-1,26,-4c0,0,9,-3,12,-7c0,0,3,-4,3,-11V152H675c0,0,7,0,12,-5c0,0,6,-4,10,-13c0,0,4,-9,6,-23c0,0,2,-15,2,-36c0,0,0,-21,-2,-36c0,0,-3,-14,-7,-23c0,0,-4,-9,-9,-12c0,0,-5,-4,-12,-4Z" 
id="f0_ry"
transform="scale(0.001,-0.001)" />

<path d="M439,356V801h-1L183,356ZM532,-4c0,0,-27,0,-45,2c0,0,-18,2,-29,5c0,0,-11,3,-15,9c0,0,-4,5,-4,13V199H70c0,0,-11,0,-19,3c0,0,-8,3,-14,12c0,0,-5,9,-8,27c0,0,-3,17,-3,46c0,0,0,24,2,42c0,0,1,17,3,31c0,0,3,15,8,27c0,0,5,13,12,27L351,944c0,0,4,7,13,11c0,0,9,5,25,9c0,0,16,3,40,4c0,0,25,2,60,2c0,0,38,0,65,-2c0,0,27,-2,43,-6c0,0,16,-4,23,-10c0,0,8,-6,8,-14V356h85c0,0,12,0,21,-18c0,0,8,-19,8,-61c0,0,0,-38,-8,-58c0,0,-7,-20,-21,-20H628V25c0,0,0,-8,-5,-13c0,0,-4,-6,-15,-9c0,0,-12,-3,-29,-5c0,0,-18,-2,-47,-2Z" 
id="f0_s6"
transform="scale(0.001,-0.001)" />

<path d="M589,371L453,782h-1L317,371ZM106,-4c0,0,-35,0,-54,2C52,-2,32,0,25,8c0,0,-7,9,-5,24c0,0,2,16,11,42L329,931c0,0,4,13,10,21c0,0,6,7,19,12c0,0,13,4,36,5c0,0,23,1,61,1c0,0,44,0,71,-1c0,0,26,-1,40,-5c0,0,15,-5,21,-13c0,0,6,-8,11,-22L896,73c0,0,9,-27,11,-43c0,0,3,-15,-6,-23c0,0,-8,-7,-29,-9c0,0,-21,-2,-57,-2c0,0,-38,0,-59,1c0,0,-22,1,-33,4c0,0,-11,3,-16,9c0,0,-4,6,-7,16L635,220H272L211,31c0,0,-2,-11,-7,-18c0,0,-5,-7,-16,-11c0,0,-11,-3,-31,-4c0,0,-19,-2,-51,-2Z" 
id="f0_5"
transform="scale(0.001,-0.001)" />

<path d="M198,-4c0,0,-27,0,-45,2c0,0,-18,2,-28,5c0,0,-11,4,-15,10c0,0,-4,6,-4,13V887c0,0,0,38,20,58c0,0,20,20,53,20H308c0,0,34,0,59,-6c0,0,24,-5,42,-18c0,0,18,-13,30,-35c0,0,12,-21,21,-52L669,279h3L889,852c0,0,9,32,21,53c0,0,11,22,27,35c0,0,15,14,36,19c0,0,21,6,48,6h132c0,0,21,0,35,-5c0,0,15,-5,24,-15c0,0,9,-11,14,-25c0,0,5,-15,5,-33V26c0,0,0,-7,-4,-13c0,0,-4,-6,-15,-10c0,0,-11,-3,-29,-5c0,0,-18,-2,-45,-2c0,0,-27,0,-45,2c0,0,-18,2,-28,5c0,0,-11,4,-15,10c0,0,-5,6,-5,13V813h-1L764,27c0,0,-3,-10,-10,-16c0,0,-6,-6,-18,-10c0,0,-12,-3,-29,-4c0,0,-18,-1,-44,-1c0,0,-25,0,-43,2c0,0,-18,2,-29,5c0,0,-12,4,-19,10c0,0,-6,6,-9,14L293,813h-2V26c0,0,0,-7,-4,-13c0,0,-4,-6,-15,-10c0,0,-11,-3,-29,-5c0,0,-17,-2,-45,-2Z" 
id="f0_1x"
transform="scale(0.001,-0.001)" />

<path d="M193,-4c0,0,-26,0,-43,2c0,0,-18,2,-27,6c0,0,-10,4,-14,10c0,0,-3,6,-3,13V895c0,0,0,35,20,53c0,0,21,17,50,17H282c0,0,28,0,47,-5c0,0,20,-5,35,-16c0,0,15,-11,29,-31c0,0,13,-20,27,-49L608,511c0,0,17,-32,33,-63c0,0,16,-31,31,-62c0,0,14,-31,29,-60c0,0,14,-30,27,-60h1c0,0,-2,52,-3,109c0,0,-1,57,-1,108V936c0,0,0,7,4,13c0,0,5,6,15,11c0,0,10,4,28,6c0,0,17,2,44,2c0,0,25,0,42,-2c0,0,17,-2,27,-6c0,0,9,-5,13,-11c0,0,4,-6,4,-13V68c0,0,0,-17,-6,-30c0,0,-6,-14,-17,-23C879,15,869,6,856,2c0,0,-14,-3,-28,-3H744c0,0,-26,0,-45,4c0,0,-19,5,-35,19c0,0,-16,14,-31,38c0,0,-15,23,-34,60L359,572c0,0,-21,40,-43,86c0,0,-21,47,-38,91h-2c0,0,3,-54,5,-107c0,0,2,-53,2,-110V27c0,0,0,-7,-5,-13c0,0,-4,-6,-14,-10c0,0,-10,-4,-27,-6c0,0,-17,-2,-44,-2Z" 
id="f0_1y"
transform="scale(0.001,-0.001)" />

<path d="M378,-4c0,0,-28,0,-47,2c0,0,-19,2,-31,5c0,0,-11,4,-16,10c0,0,-4,6,-4,13V805H38c0,0,-8,0,-13,4c0,0,-5,5,-9,14c0,0,-3,9,-5,25c0,0,-2,15,-2,37c0,0,0,22,2,38c0,0,2,15,5,25c0,0,4,9,9,13c0,0,5,4,13,4H718c0,0,7,0,12,-4c0,0,6,-4,10,-13c0,0,3,-10,5,-25c0,0,2,-16,2,-38c0,0,0,-22,-2,-37c0,0,-2,-16,-5,-25c0,0,-4,-9,-10,-14c0,0,-5,-4,-12,-4H476V26c0,0,0,-7,-5,-13c0,0,-5,-6,-16,-10c0,0,-11,-3,-30,-5c0,0,-19,-2,-47,-2Z" 
id="f0_2t"
transform="scale(0.001,-0.001)" />

<path d="M514,145c0,0,72,0,121,27c0,0,48,26,78,73c0,0,30,46,42,107c0,0,13,62,13,131c0,0,0,76,-12,139c0,0,-12,62,-41,106c0,0,-29,45,-76,69c0,0,-48,24,-120,24c0,0,-72,0,-120,-27c0,0,-49,-27,-79,-73c0,0,-29,-45,-42,-106c0,0,-12,-61,-12,-129c0,0,0,-79,12,-142c0,0,12,-63,40,-108c0,0,28,-44,76,-68c0,0,48,-23,120,-23ZM508,-17c0,0,-113,0,-196,29c0,0,-84,29,-140,90c0,0,-56,60,-84,154c0,0,-28,93,-28,221c0,0,0,117,29,210c0,0,30,94,89,160c0,0,59,65,146,101c0,0,87,35,202,35c0,0,110,0,194,-29c0,0,84,-30,140,-90c0,0,56,-60,85,-153c0,0,29,-92,29,-217c0,0,0,-120,-30,-215c0,0,-30,-95,-89,-161C855,118,796,52,709,17c0,0,-87,-34,-201,-34Z" 
id="f0_24"
transform="scale(0.001,-0.001)" />

<path d="M403,168c0,0,50,0,85,37c0,0,35,36,35,89c0,0,0,50,-35,85c0,0,-35,36,-85,36c0,0,-47,0,-81,-37c0,0,-35,-37,-35,-89c0,0,0,-47,36,-84c0,0,35,-37,80,-37Zm3,426c0,0,39,0,70,28c0,0,31,29,31,65c0,0,0,46,-28,77c0,0,-29,31,-73,31c0,0,-42,0,-71,-29c0,0,-28,-29,-28,-70c0,0,0,-44,28,-73c0,0,29,-29,71,-29Zm2,-605c0,0,-145,0,-234,75c0,0,-90,76,-90,197c0,0,0,150,140,239c0,0,-59,52,-87,101c0,0,-27,49,-27,112c0,0,0,103,77,179c0,0,77,75,216,75c0,0,136,0,217,-68c0,0,81,-68,81,-180c0,0,0,-130,-115,-217c0,0,140,-90,140,-237c0,0,0,-124,-89,-200c0,0,-88,-76,-229,-76Z" 
id="f1_s"
transform="scale(0.001,-0.001)" />

<path d="M44,-281L425,1053H537L156,-281Z" 
id="f1_j"
transform="scale(0.001,-0.001)" />

<path d="M75,0L400,413c0,0,71,91,101,149c0,0,30,58,30,109c0,0,0,55,-36,91c0,0,-36,36,-91,36c0,0,-63,0,-91,-45c0,0,-28,-46,-34,-142H67c0,0,0,173,102,268c0,0,102,95,253,95c0,0,140,0,229,-82c0,0,89,-82,89,-209c0,0,0,-125,-104,-276L580,324c0,0,-34,-50,-85,-114L468,178H740V0Z" 
id="f1_m"
transform="scale(0.001,-0.001)" />

<path d="M340,-13c0,0,-73,0,-129,20C211,7,155,27,86,74l22,217c0,0,156,-103,245,-103c0,0,64,0,112,45c0,0,47,46,47,107c0,0,0,68,-47,113c0,0,-48,46,-121,46c0,0,-85,0,-184,-42l48,495H681V777H393L382,665c0,0,163,0,251,-95c0,0,88,-95,88,-224c0,0,0,-146,-113,-253C608,93,494,-13,340,-13Z" 
id="f1_p"
transform="scale(0.001,-0.001)" />

<path d="M67,0V109L206,235c0,0,133,118,196,190c0,0,63,72,90,149c0,0,27,77,27,177c0,0,0,97,-44,148c0,0,-44,50,-144,50c0,0,-39,0,-81,-10c0,0,-42,-11,-74,-29L150,787H101V980c0,0,135,32,230,32c0,0,164,0,247,-68c0,0,82,-69,82,-193c0,0,0,-84,-32,-158c0,0,-33,-75,-100,-148c0,0,-67,-74,-222,-206c0,0,-67,-57,-141,-125H680V0Z" 
id="f2_m"
transform="scale(0.001,-0.001)" />

<path d="M460,-325c0,0,-148,79,-231,172c0,0,-84,93,-123,217c0,0,-39,126,-39,304c0,0,0,178,39,303c0,0,39,125,122,217c0,0,82,93,232,172V997c0,0,-91,-52,-145,-134c0,0,-54,-81,-79,-190c0,0,-25,-109,-25,-305c0,0,0,-194,26,-309c0,0,26,-114,82,-193c0,0,56,-79,141,-128v-63Z" 
id="f2_c"
transform="scale(0.001,-0.001)" />

<path d="M49,-325v63c0,0,85,49,140,128c0,0,56,79,83,194c0,0,26,115,26,308c0,0,0,196,-25,305c0,0,-25,109,-79,190c0,0,-54,82,-145,134v63c0,0,149,-80,232,-172c0,0,83,-92,122,-217c0,0,39,-125,39,-303c0,0,0,-177,-39,-303c0,0,-39,-125,-122,-217c0,0,-83,-93,-232,-173Z" 
id="f2_d"
transform="scale(0.001,-0.001)" />

<path d="M377,45c0,0,99,0,145,108c0,0,46,109,46,352c0,0,0,240,-45,345c0,0,-46,106,-146,106c0,0,-97,0,-139,-100c0,0,-43,-99,-43,-351c0,0,0,-254,44,-357c0,0,43,-103,138,-103Zm0,-59c0,0,-158,0,-238,132c0,0,-81,133,-81,386c0,0,0,249,81,380c0,0,80,132,244,132c0,0,159,0,241,-130c0,0,82,-130,82,-382c0,0,0,-518,-329,-518Z" 
id="f2_k"
transform="scale(0.001,-0.001)" />

<path d="M191,-20c0,0,-39,0,-65,25c0,0,-25,27,-25,64c0,0,0,38,26,64c0,0,26,26,64,26c0,0,38,0,64,-26c0,0,26,-26,26,-64c0,0,0,-37,-25,-64c0,0,-26,-25,-65,-25Z" 
id="f2_i"
transform="scale(0.001,-0.001)" />

<path d="M301,78c0,0,41,0,90,27c0,0,49,28,95,77l81,442c0,0,-26,18,-54,27c0,0,-27,10,-67,10c0,0,-70,0,-131,-55c0,0,-61,-55,-99,-152c0,0,-37,-97,-37,-201c0,0,0,-79,33,-127c0,0,33,-48,89,-48ZM245,-14c0,0,-91,0,-145,68c0,0,-54,69,-54,183c0,0,0,128,55,240c0,0,55,112,150,177c0,0,96,66,210,66c0,0,70,0,123,-18c0,0,3,36,51,306l-115,18l6,34H768L589,52L673,33L667,0H454l22,117C476,117,350,-14,245,-14Z" 
id="f3_20"
transform="scale(0.001,-0.001)" />

<path d="M-15,-329c0,0,-61,0,-112,13l28,152h34l12,-72c0,0,18,-17,60,-17c0,0,100,0,212,202L253,9L116,649L33,668l6,33H230L338,155L513,458c0,0,48,83,48,144c0,0,0,27,-16,44c0,0,-15,16,-33,22l6,33H659c0,0,20,-17,20,-47c0,0,0,-59,-62,-164L322,-7c0,0,-86,-145,-135,-205c0,0,-50,-61,-98,-89c0,0,-49,-28,-104,-28Z" 
id="f3_2l"
transform="scale(0.001,-0.001)" />

<path d="M301,78c0,0,85,0,185,104l81,442c0,0,-29,20,-55,28c0,0,-25,8,-62,8c0,0,-75,0,-137,-56c0,0,-62,-56,-98,-152c0,0,-36,-95,-36,-199c0,0,0,-79,33,-127c0,0,33,-48,89,-48ZM245,-14c0,0,-90,0,-145,66c0,0,-54,66,-54,182c0,0,0,131,57,244c0,0,57,114,152,178c0,0,96,64,208,64c0,0,90,0,170,-33l33,26h40L589,52L673,33L667,0H454l22,117C476,117,350,-14,245,-14Z" 
id="f3_1x"
transform="scale(0.001,-0.001)" />

<path d="M305,45c0,0,76,0,141,56c0,0,64,56,101,151c0,0,37,95,37,200c0,0,0,83,-35,129c0,0,-34,46,-92,46c0,0,-44,0,-96,-29c0,0,-51,-29,-97,-75L185,81c0,0,43,-36,120,-36ZM295,-14c0,0,-65,0,-128,16C167,2,104,19,57,48l171,960l-100,18l6,34H358L303,731c0,0,-13,-85,-29,-144c0,0,59,61,122,97c0,0,64,36,116,36c0,0,94,0,150,-67c0,0,56,-67,56,-182c0,0,0,-129,-56,-242C662,229,606,115,509,50c0,0,-98,-64,-214,-64Z" 
id="f3_1y"
transform="scale(0.001,-0.001)" />

<path d="M-6,0c0,0,-12,10,-12,32c0,0,0,21,23,51c0,0,23,31,79,82L287,354L159,649L79,668l6,33H270L378,434l93,88c0,0,47,46,67,72c0,0,19,26,19,44c0,0,0,8,-6,13c0,0,-7,6,-38,17l6,33H651c0,0,16,-12,16,-32c0,0,0,-44,-103,-142L404,377L548,49L634,33L628,0H437L313,298L185,176c0,0,-41,-40,-60,-65c0,0,-19,-26,-19,-48c0,0,0,-21,31,-29L131,0Z" 
id="f3_2k"
transform="scale(0.001,-0.001)" />

<path d="M0,356v74H784V356Z" 
id="f4_h"
transform="scale(0.001,-0.001)" />

<path d="M355,0V355H0v72H355V784h72V427H782V355H427V0Z" 
id="f4_f"
transform="scale(0.001,-0.001)" />

<path d="M0,214v74H784V214ZM0,494v72H784V494Z" 
id="f4_x"
transform="scale(0.001,-0.001)" />

<path d="M410,-14c0,0,-86,0,-175,14C235,0,145,14,81,38V307h66L181,146c0,0,31,-37,94,-62c0,0,64,-24,132,-24c0,0,214,0,214,177c0,0,0,55,-41,93c0,0,-41,38,-128,68c0,0,-128,42,-185,68c0,0,-56,27,-95,63c0,0,-38,36,-62,87c0,0,-23,51,-23,125c0,0,0,132,90,201c0,0,90,69,263,69c0,0,125,0,278,-32V741H651L618,878c0,0,-76,56,-178,56c0,0,-92,0,-141,-34c0,0,-49,-34,-49,-104c0,0,0,-50,41,-86c0,0,41,-35,128,-63c0,0,171,-56,235,-97c0,0,64,-41,97,-103c0,0,34,-61,34,-143c0,0,0,-318,-375,-318Z" 
id="f5_1j"
transform="scale(0.001,-0.001)" />

<path d="M379,60c0,0,59,0,84,64c0,0,24,65,24,231c0,0,0,164,-24,227c0,0,-24,63,-84,63c0,0,-57,0,-80,-60c0,0,-22,-61,-22,-230c0,0,0,-173,23,-234c0,0,22,-61,79,-61Zm-2,-74c0,0,-161,0,-240,91c0,0,-79,91,-79,277c0,0,0,186,80,276c0,0,81,90,245,90c0,0,167,0,245,-93c0,0,78,-93,78,-273c0,0,0,-188,-81,-278c0,0,-81,-90,-248,-90Z" 
id="f5_2b"
transform="scale(0.001,-0.001)" />

<path d="M30,0V49l76,18V992l-72,18v50H322V67L398,49V0Z" 
id="f5_28"
transform="scale(0.001,-0.001)" />

<path d="M287,-18c0,0,-194,0,-194,206V634L23,652v49H309V217c0,0,0,-63,26,-98c0,0,27,-35,76,-35c0,0,57,0,113,25V634l-64,18v49H740V67L809,49V0H536L526,61L475,35c0,0,-104,-53,-188,-53Z" 
id="f5_2h"
transform="scale(0.001,-0.001)" />

<path d="M327,-14c0,0,-101,0,-156,45c0,0,-55,45,-55,131V624H25v48l108,29l87,159H332V701H480V624H332V176c0,0,0,-49,20,-73c0,0,20,-25,53,-25c0,0,40,0,97,12V26c0,0,-22,-15,-76,-27c0,0,-55,-13,-99,-13Z" 
id="f5_2g"
transform="scale(0.001,-0.001)" />

<path d="M34,0V49l76,18V634L38,652v49H325V67L402,49V0ZM217,831c0,0,-48,0,-81,33c0,0,-34,33,-34,82c0,0,0,48,34,81c0,0,34,33,81,33c0,0,48,0,81,-33c0,0,33,-33,33,-81c0,0,0,-47,-33,-81c0,0,-32,-34,-81,-34Z" 
id="f5_25"
transform="scale(0.001,-0.001)" />

<path d="M41,0V49l69,18V634L41,652v49H313l11,-61l50,26c0,0,105,54,188,54c0,0,194,0,194,-207V67L827,49V0H478V49l63,18V484c0,0,0,63,-27,98c0,0,-26,35,-75,35c0,0,-57,0,-114,-25V67L389,49V0Z" 
id="f5_2a"
transform="scale(0.001,-0.001)" />

<path d="M248,-20c0,0,-52,0,-87,34c0,0,-36,36,-36,88c0,0,0,52,36,88c0,0,35,36,87,36c0,0,52,0,88,-36c0,0,36,-36,36,-88c0,0,0,-51,-36,-87c0,0,-35,-35,-88,-35Zm0,488c0,0,-52,0,-87,36c0,0,-36,36,-36,88c0,0,0,52,35,88c0,0,35,36,88,36c0,0,53,0,89,-36c0,0,35,-37,35,-88c0,0,0,-51,-36,-87c0,0,-35,-37,-88,-37Z" 
id="f5_u"
transform="scale(0.001,-0.001)" />

<path d="M55,0V40L184,60V941L55,960v40H455V960L327,941V60L455,40V0Z" 
id="f2_19"
transform="scale(0.001,-0.001)" />

<path d="M64,0V34L168,59V639H47v36l121,29v49c0,0,0,155,61,239c0,0,62,84,173,84c0,0,58,0,107,-15V908H472l-33,92c0,0,-26,16,-62,16c0,0,-47,0,-66,-42c0,0,-19,-42,-19,-157V701H478V639H292V59L443,34V0Z" 
id="f2_22"
transform="scale(0.001,-0.001)" />

<path d="M148,-329c0,0,-58,0,-114,13v151H69l24,-71c0,0,23,-17,64,-17c0,0,39,0,72,22c0,0,33,23,60,67c0,0,27,44,68,157L90,649L19,668v33H344V668L233,648L423,158L606,649L497,668v33H758V668L685,652L411,-43c0,0,-48,-124,-84,-177c0,0,-36,-54,-79,-82c0,0,-44,-27,-100,-27Z" 
id="f2_2l"
transform="scale(0.001,-0.001)" />

<path d="M76,316v76H787V316Zm0,306v76H787V622Z" 
id="f2_x"
transform="scale(0.001,-0.001)" />

<path d="M394,460c0,0,126,0,186,57c0,0,60,57,60,187c0,0,0,123,-57,176c0,0,-58,53,-194,53H316V460ZM54,0V40L172,60V941L44,960v40H421c0,0,368,0,368,-295c0,0,0,-153,-93,-233c0,0,-93,-80,-267,-80H316V60L475,40V0Z" 
id="f2_1g"
transform="scale(0.001,-0.001)" />

<path d="M495,413c0,0,0,133,-34,190c0,0,-34,57,-105,57c0,0,-78,0,-119,-63c0,0,-42,-62,-42,-184ZM374,-14c0,0,-163,0,-239,87c0,0,-75,88,-75,283c0,0,0,183,77,273c0,0,76,91,219,91c0,0,269,0,269,-306V353H194V340c0,0,0,-103,23,-160c0,0,22,-57,70,-87c0,0,47,-29,124,-29c0,0,40,0,96,6c0,0,55,7,91,15V43C598,43,562,20,500,3c0,0,-61,-17,-126,-17Z" 
id="f2_21"
transform="scale(0.001,-0.001)" />

<path d="M284,67c0,0,51,0,88,12c0,0,37,12,74,30V358l-98,-3c0,0,-100,-4,-135,-39c0,0,-35,-35,-35,-117c0,0,0,-132,106,-132ZM233,-14c0,0,-179,0,-179,208c0,0,0,70,27,116c0,0,27,46,87,70c0,0,60,24,173,27l105,3V519c0,0,0,72,-26,107c0,0,-27,34,-82,34c0,0,-75,0,-137,-35L176,538H134V691c0,0,121,26,213,26c0,0,115,0,169,-47c0,0,54,-47,54,-144V52L657,33V0H465L451,70c0,0,-85,-84,-218,-84Z" 
id="f2_1x"
transform="scale(0.001,-0.001)" />

<path d="M13,0V34L95,46L325,350L122,649L40,668v33H357V668L264,648L399,446L554,649l-96,19v33H710V668L630,652L433,397L663,50L745,34V0H427V34l94,17L359,299L169,50L266,34V0Z" 
id="f2_2k"
transform="scale(0.001,-0.001)" />

<path d="M392,152V469H76v77H392V863h77V546H787V469H469V152Z" 
id="f2_f"
transform="scale(0.001,-0.001)" />

<path d="M551,45c0,0,171,0,252,106c0,0,82,107,82,349c0,0,0,241,-82,346c0,0,-82,105,-252,105c0,0,-171,0,-252,-106c0,0,-80,-106,-80,-345c0,0,0,-241,80,-348c0,0,81,-107,252,-107ZM930,-246c0,0,-53,0,-94,17c0,0,-41,18,-83,56c0,0,-41,39,-139,162c0,0,-27,-3,-63,-3c0,0,-239,0,-364,130C187,116,63,247,63,500c0,0,0,511,488,511c0,0,240,0,365,-129c0,0,125,-130,125,-382c0,0,0,-366,-265,-475l37,-45c0,0,66,-82,112,-117c0,0,46,-35,91,-35l61,2v-49c0,0,-17,-7,-64,-17c0,0,-48,-10,-83,-10Z" 
id="f2_1h"
transform="scale(0.001,-0.001)" />

<path d="M376,50c0,0,103,0,149,80c0,0,46,81,46,240c0,0,0,137,-47,204c0,0,-48,67,-148,67c0,0,-44,0,-87,-7c0,0,-44,-8,-63,-17V62c0,0,63,-12,150,-12Zm3,-64c0,0,-64,0,-141,14c0,0,-78,14,-136,37v971L0,1026v34H226V809c0,0,0,-40,-4,-148c0,0,74,59,188,59c0,0,143,0,219,-87c0,0,77,-87,77,-263c0,0,0,-189,-84,-287c0,0,-84,-97,-243,-97Z" 
id="f2_1y"
transform="scale(0.001,-0.001)" />

<path d="M254,-20c0,0,-35,0,-59,24c0,0,-24,24,-24,58c0,0,0,35,24,59c0,0,24,24,59,24c0,0,35,0,59,-24c0,0,23,-25,23,-59c0,0,0,-34,-24,-58c0,0,-24,-24,-58,-24Zm509,0c0,0,-34,0,-58,24c0,0,-24,24,-24,58c0,0,0,35,24,59c0,0,24,24,58,24c0,0,34,0,59,-24c0,0,24,-25,24,-59c0,0,0,-34,-24,-58c0,0,-25,-24,-59,-24Zm510,0c0,0,-35,0,-59,24c0,0,-24,24,-24,58c0,0,0,35,24,59c0,0,24,24,59,24c0,0,34,0,58,-24c0,0,24,-25,24,-59c0,0,0,-34,-24,-58c0,0,-24,-24,-58,-24Z" 
id="f6_4s"
transform="scale(0.001,-0.001)" />

<path d="M474,-326c0,0,-112,57,-188,133c0,0,-107,108,-165,254c0,0,-58,147,-58,305c0,0,0,231,114,421c0,0,114,191,297,273v-31c0,0,-92,-51,-151,-139c0,0,-59,-88,-88,-223c0,0,-30,-135,-30,-281c0,0,0,-160,25,-290c0,0,20,-102,47,-164c0,0,28,-62,75,-120c0,0,47,-57,122,-109v-29Z" 
id="f6_c"
transform="scale(0.001,-0.001)" />

<path d="M197,0V27c0,0,71,2,92,13c0,0,21,10,29,29c0,0,9,18,9,109V725c0,0,0,110,-8,141c0,0,-5,24,-19,35c0,0,-14,11,-33,11c0,0,-28,0,-77,-23l-11,23l246,121h25V178c0,0,0,-85,7,-106c0,0,7,-21,29,-32c0,0,23,-11,91,-13V0Z" 
id="f6_l"
transform="scale(0.001,-0.001)" />

<path d="M35,-326v29c0,0,92,51,151,139c0,0,60,87,89,221c0,0,28,136,28,282c0,0,0,159,-24,290c0,0,-19,103,-47,165c0,0,-28,62,-75,119c0,0,-46,57,-122,110v31c0,0,113,-56,188,-132c0,0,107,-109,165,-255c0,0,58,-147,58,-306c0,0,0,-231,-114,-420c0,0,-113,-191,-297,-273Z" 
id="f6_d"
transform="scale(0.001,-0.001)" />

<path d="M457,460c0,0,289,0,289,266c0,0,0,106,-54,157c0,0,-54,50,-163,50H419L335,460ZM-7,0L0,40L120,60L276,941L151,960l7,40H559c0,0,161,0,248,-67c0,0,87,-66,87,-198c0,0,0,-167,-109,-255c0,0,-109,-88,-312,-88H323L264,60L427,40L420,0Z" 
id="f3_1g"
transform="scale(0.001,-0.001)" />

<path d="M188,355c0,0,148,11,236,69c0,0,89,58,89,143c0,0,0,41,-23,68c0,0,-22,27,-66,27c0,0,-52,0,-101,-43c0,0,-49,-42,-85,-114c0,0,-36,-71,-50,-150ZM298,-14c0,0,-120,0,-186,67c0,0,-65,67,-65,193c0,0,0,125,53,232c0,0,52,108,145,175c0,0,94,67,196,67c0,0,92,0,147,-42c0,0,56,-43,56,-111c0,0,0,-102,-126,-173c0,0,-125,-72,-336,-86l-3,-54c0,0,0,-95,40,-143c0,0,40,-47,118,-47c0,0,67,0,124,22c0,0,57,23,106,52l22,-32c0,0,-69,-58,-146,-89c0,0,-76,-31,-145,-31Z" 
id="f3_21"
transform="scale(0.001,-0.001)" />

<path d="M507,49c0,0,111,0,206,75c0,0,94,75,153,216c0,0,60,140,60,280c0,0,0,150,-77,240c0,0,-76,91,-201,91c0,0,-112,0,-205,-75c0,0,-92,-76,-151,-217c0,0,-59,-141,-59,-284c0,0,0,-147,75,-237c0,0,75,-89,199,-89ZM770,-246c0,0,-76,0,-128,39c0,0,-51,39,-124,158l-22,35c0,0,-119,1,-214,51c0,0,-94,51,-146,142c0,0,-52,90,-52,204c0,0,0,180,75,326c0,0,74,145,204,224c0,0,129,78,294,78c0,0,120,0,216,-50c0,0,96,-51,149,-142c0,0,53,-91,53,-206c0,0,0,-148,-53,-278c0,0,-53,-131,-148,-216C874,119,778,33,650,2c0,0,64,-91,92,-120c0,0,29,-28,59,-41c0,0,30,-13,67,-13l62,3l-9,-50c0,0,-18,-7,-67,-17c0,0,-49,-10,-84,-10Z" 
id="f3_1h"
transform="scale(0.001,-0.001)" />

<path d="M350,-14c0,0,-142,0,-269,31L73,228h49L156,87c0,0,29,-16,82,-28c0,0,54,-12,100,-12c0,0,117,0,173,54c0,0,56,53,56,178c0,0,0,99,-52,150c0,0,-51,51,-159,56l-107,6v61l107,7c0,0,84,5,124,52c0,0,41,48,41,145c0,0,0,101,-44,147c0,0,-44,45,-139,45c0,0,-40,0,-83,-10c0,0,-43,-11,-76,-29L153,786H104V979c0,0,74,19,127,26c0,0,54,6,107,6c0,0,321,0,321,-246c0,0,0,-104,-57,-165c0,0,-57,-62,-162,-77c0,0,136,-16,200,-78c0,0,64,-62,64,-173c0,0,0,-135,-92,-211c0,0,-93,-75,-262,-75Z" 
id="f2_n"
transform="scale(0.001,-0.001)" />

<path d="M23,0V26c0,0,47,0,66,10c0,0,19,11,28,33c0,0,10,22,10,85V416c0,0,0,112,-7,145c0,0,-5,25,-16,34c0,0,-11,10,-31,10c0,0,-21,0,-50,-11L12,620l207,83h32V557c0,0,75,75,88,86c0,0,34,29,72,44c0,0,39,16,77,16c0,0,64,0,110,-37c0,0,47,-38,62,-109c0,0,77,90,130,118c0,0,53,28,109,28c0,0,54,0,96,-28c0,0,42,-28,67,-91c0,0,16,-43,16,-136V154c0,0,0,-64,10,-88c0,0,8,-16,28,-28c0,0,20,-12,65,-12V0H844V26h14c0,0,44,0,69,18c0,0,17,12,24,38c0,0,3,13,3,72V448c0,0,0,83,-20,117c0,0,-29,48,-93,48c0,0,-39,0,-79,-20c0,0,-40,-19,-97,-73l-1,-8l2,-32V154c0,0,0,-70,8,-87c0,0,7,-17,29,-29c0,0,21,-12,73,-12V0H431V26c0,0,57,0,78,14c0,0,21,13,29,40c0,0,4,13,4,74V448c0,0,0,83,-25,120c0,0,-33,48,-91,48c0,0,-40,0,-80,-22c0,0,-61,-33,-95,-74V154c0,0,0,-67,10,-87c0,0,9,-20,27,-30c0,0,18,-11,74,-11V0Z" 
id="f6_29"
transform="scale(0.001,-0.001)" />

<path d="M292,-20c0,0,-57,0,-100,33c0,0,-42,33,-58,85c0,0,-17,52,-17,148V551c0,0,0,49,-10,68c0,0,-11,18,-31,29c0,0,-19,9,-68,9c-2,0,-4,0,-6,0v26H242V226c0,0,0,-95,33,-125c0,0,33,-30,80,-30c0,0,32,0,73,21c0,0,40,20,96,76V555c0,0,0,59,-21,80c0,0,-22,21,-89,22v26H647V269c0,0,0,-119,6,-145c0,0,6,-27,18,-37c0,0,12,-11,29,-11c0,0,23,0,52,13L763,63L558,-20H524V124C524,124,436,29,390,4c0,0,-47,-24,-98,-24Z" 
id="f6_2h"
transform="scale(0.001,-0.001)" />

<path d="M58,0V26c0,0,47,0,64,10c0,0,18,10,28,32c0,0,9,23,9,86V775c0,0,0,116,-5,142c0,0,-5,27,-17,37c0,0,-11,9,-29,9c0,0,-20,0,-49,-12L46,978l204,83h34V154c0,0,0,-64,9,-85c0,0,9,-21,29,-32c0,0,19,-11,72,-11V0Z" 
id="f6_28"
transform="scale(0.001,-0.001)" />

<path d="M255,-10c0,0,-35,0,-68,18c0,0,-32,19,-48,55c0,0,-16,35,-16,109V632H15v24c0,0,41,16,84,56c0,0,43,39,77,92c0,0,17,29,48,104h23V683H407V632H247V188c0,0,0,-66,19,-90c0,0,19,-23,49,-23c0,0,24,0,47,16c0,0,23,15,36,45h29c0,0,-26,-73,-74,-110c0,0,-47,-36,-98,-36Z" 
id="f6_2g"
transform="scale(0.001,-0.001)" />

<path d="M55,0V26c0,0,50,0,67,10c0,0,17,10,27,32c0,0,10,23,10,86V418c0,0,0,111,-6,144c0,0,-6,24,-17,33c0,0,-11,10,-30,10c0,0,-21,0,-51,-11L45,620l206,83h33V154c0,0,0,-64,9,-85c0,0,9,-22,27,-32c0,0,19,-11,67,-11V0ZM222,909c0,0,-32,0,-54,23c0,0,-22,22,-22,53c0,0,0,32,22,54c0,0,22,22,54,22c0,0,31,0,53,-22c0,0,22,-22,22,-54c0,0,0,-31,-22,-53c0,0,-22,-23,-53,-23Z" 
id="f6_25"
transform="scale(0.001,-0.001)" />

<path d="M398,24c0,0,74,0,120,58c0,0,61,76,61,214c0,0,0,156,-69,240c0,0,-47,59,-113,59c0,0,-36,0,-71,-18c0,0,-27,-14,-88,-81V242c0,0,0,-83,6,-109c0,0,11,-43,51,-76c0,0,41,-33,103,-33ZM-4,-326v27H15c5,0,42,0,69,16c0,0,14,8,22,26c0,0,7,19,7,94V481c0,0,0,67,-6,85c0,0,-5,18,-18,27c0,0,-13,9,-36,9c0,0,-18,0,-45,-10L0,615l209,85h29V540c0,0,53,91,106,127c0,0,53,36,112,36c0,0,103,0,172,-80c0,0,84,-99,84,-257c0,0,0,-176,-102,-292c0,0,-83,-94,-210,-94c0,0,-55,0,-95,16c0,0,-30,10,-67,44V-167c0,0,0,-71,8,-90c0,0,9,-20,30,-31c0,0,21,-11,77,-11v-27Z" 
id="f6_2c"
transform="scale(0.001,-0.001)" />

<path d="M145,-328c0,0,-44,0,-73,25c0,0,-28,25,-28,58c0,0,0,31,21,50c0,0,20,19,56,19c0,0,25,0,67,-16c0,0,30,-11,38,-11c0,0,22,0,49,23c0,0,26,23,53,89L376,28L131,542c0,0,-11,24,-36,58c0,0,-19,27,-30,36c0,0,-18,12,-56,21v26H328V657H312c0,0,-33,0,-50,-15c0,0,-17,-14,-17,-36c0,0,0,-30,25,-81L437,179L589,557c0,0,12,31,12,62c0,0,0,13,-5,20c0,0,-6,8,-19,13c0,0,-12,5,-44,5v26H754V657c0,0,-27,-3,-42,-12c0,0,-15,-9,-33,-34c0,0,-7,-10,-25,-58L376,-128c0,0,-40,-99,-105,-150c0,0,-66,-50,-126,-50Z" 
id="f6_2l"
transform="scale(0.001,-0.001)" />

<path d="M21,0V26H35c0,0,53,0,71,27c0,0,18,27,18,101V408c0,0,0,123,-5,150c0,0,-6,27,-17,37c0,0,-12,10,-31,10c0,0,-21,0,-50,-11L10,620l206,83h32V558c0,0,120,145,229,145c0,0,56,0,96,-28c0,0,40,-28,64,-92c0,0,16,-45,16,-137V154c0,0,0,-65,11,-88c0,0,8,-19,26,-29c0,0,18,-11,68,-11V0H419V26h14c0,0,47,0,66,15c0,0,20,15,27,43c0,0,3,11,3,70V434c0,0,0,93,-24,135c0,0,-24,42,-81,42c0,0,-88,0,-176,-97V154c0,0,0,-69,9,-86c0,0,10,-21,28,-31c0,0,19,-11,75,-11V0Z" 
id="f6_2a"
transform="scale(0.001,-0.001)" />

<path d="M411,-239c0,0,134,0,198,48c0,0,64,47,64,100c0,0,0,39,-38,55c0,0,-39,16,-154,19c0,0,-167,5,-258,17c0,0,-35,-37,-53,-70c0,0,-17,-32,-17,-60c0,0,0,-36,43,-62c0,0,74,-47,215,-47ZM380,257c0,0,56,0,93,43c0,0,36,42,36,133c0,0,0,118,-51,185c0,0,-38,49,-98,49c0,0,-55,0,-92,-44c0,0,-37,-44,-37,-135c0,0,0,-117,50,-182c0,0,39,-49,99,-49ZM345,-328c0,0,-144,0,-243,64c0,0,-56,38,-56,78c0,0,0,18,8,36c0,0,13,27,52,76c0,0,5,7,76,80c0,0,-39,23,-55,41c0,0,-16,19,-16,42c0,0,0,26,22,61c0,0,21,35,98,100c0,0,-63,30,-97,85c0,0,-33,55,-33,121c0,0,0,101,76,174c0,0,77,73,196,73c0,0,98,0,170,-48H688c0,0,32,0,37,-2c0,0,6,-2,8,-6c0,0,4,-7,4,-24c0,0,0,-20,-4,-27c0,0,-2,-4,-7,-6c0,0,-6,-2,-38,-2H599c0,0,41,-54,41,-137c0,0,0,-96,-73,-163c0,0,-73,-68,-196,-68c0,0,-51,0,-104,15c0,0,-33,-28,-44,-49c0,0,-12,-22,-12,-37c0,0,0,-12,13,-24c0,0,12,-12,48,-17c0,0,21,-4,104,-6c0,0,154,-4,199,-11c0,0,70,-10,111,-51c0,0,42,-41,42,-102c0,0,0,-84,-79,-158c0,0,-117,-108,-304,-108Z" 
id="f6_23"
transform="scale(0.001,-0.001)" />

<path d="M397,34c0,0,67,0,126,75c0,0,58,74,58,216c0,0,0,131,-58,201c0,0,-59,70,-133,70c0,0,-39,0,-79,-20c0,0,-29,-14,-75,-59V109c0,0,37,-37,78,-56c0,0,40,-19,83,-19ZM358,-20c0,0,-59,0,-121,21c0,0,-61,22,-126,65V773c0,0,0,117,-5,144c0,0,-6,27,-18,37c0,0,-12,9,-29,9c0,0,-21,0,-53,-12l-9,27l205,83h34V564c0,0,98,139,213,139c0,0,105,0,183,-90c0,0,78,-90,78,-245c0,0,0,-182,-121,-293c0,0,-103,-95,-231,-95Z" 
id="f6_1y"
transform="scale(0.001,-0.001)" />

<path d="M286,72c0,0,57,0,149,75V407c0,0,-113,-45,-145,-64c0,0,-59,-32,-85,-68c0,0,-25,-36,-25,-78c0,0,0,-54,32,-89c0,0,32,-36,74,-36ZM217,-13c0,0,-71,0,-116,48c0,0,-46,48,-46,127c0,0,0,50,22,87c0,0,31,50,106,95c0,0,76,45,252,109v26c0,0,0,102,-32,140c0,0,-32,38,-94,38c0,0,-47,0,-74,-25c0,0,-28,-25,-28,-58l1,-43c0,0,0,-34,-17,-53c0,0,-18,-18,-47,-18c0,0,-28,0,-45,19c0,0,-18,19,-18,53c0,0,0,64,66,117c0,0,65,54,184,54c0,0,91,0,149,-31c0,0,44,-23,65,-72c0,0,13,-32,13,-131V238c0,0,0,-98,4,-120c0,0,4,-22,12,-29c0,0,9,-8,20,-8c0,0,12,0,21,5c0,0,16,10,61,55V99C676,99,592,-12,516,-12c0,0,-37,0,-58,24c0,0,-22,26,-23,86C435,98,330,17,303,5c0,0,-40,-18,-86,-18Z" 
id="f6_1x"
transform="scale(0.001,-0.001)" />

<path d="M327,-14L84,649L1,668v33H335V668L219,648L385,174L554,632h63L786,171L944,649L830,668v33h267V668l-78,-16L784,-14H726L553,448L382,-14Z" 
id="f2_2j"
transform="scale(0.001,-0.001)" />

<path d="M359,-270c0,0,124,0,192,46c0,0,67,47,67,129c0,0,0,43,-26,67c0,0,-26,24,-79,24H242c0,0,-32,-27,-51,-69c0,0,-20,-41,-20,-77c0,0,0,-64,46,-92c0,0,46,-28,142,-28Zm11,561c0,0,81,0,115,47c0,0,34,47,34,141c0,0,0,100,-35,142c0,0,-35,42,-113,42c0,0,-78,0,-114,-43c0,0,-37,-42,-37,-141c0,0,0,-98,36,-143c0,0,36,-45,114,-45ZM359,-329c0,0,-143,0,-218,44c0,0,-75,43,-75,125c0,0,0,39,27,78c0,0,26,38,98,89c0,0,-43,14,-72,48c0,0,-29,35,-29,74L208,262c0,0,-118,55,-118,217c0,0,0,115,73,178c0,0,73,63,211,63c0,0,28,0,71,-6c0,0,44,-6,67,-13l165,83l26,-32L599,644c0,0,50,-56,50,-165c0,0,0,-120,-72,-182c0,0,-73,-62,-208,-62c0,0,-62,0,-114,11L208,148c0,0,2,-13,29,-24c0,0,27,-12,67,-12H512c0,0,113,0,168,-49c0,0,55,-49,55,-134c0,0,0,-79,-44,-137c0,0,-43,-58,-128,-90c0,0,-84,-31,-204,-31Z" 
id="f2_23"
transform="scale(0.001,-0.001)" />

<path d="M249,-14c0,0,-71,0,-107,42c0,0,-35,42,-35,119V639H15v33l93,29l76,159h47V701H391V639H231V161c0,0,0,-48,22,-73c0,0,22,-24,57,-24c0,0,44,0,106,12V26C416,26,389,8,340,-2c0,0,-49,-12,-91,-12Z" 
id="f2_2g"
transform="scale(0.001,-0.001)" />

<path d="M58,-234v58c0,0,131,42,131,125c0,0,0,15,-11,27c0,0,-11,12,-38,25C140,1,89,27,89,75c0,0,0,40,25,61c0,0,26,21,65,21c0,0,48,0,77,-34c0,0,30,-34,30,-86c0,0,0,-101,-60,-170c0,0,-59,-69,-168,-101Z" 
id="f2_g"
transform="scale(0.001,-0.001)" />

<path d="M452,373V875L97,373ZM452,0V267H23v95l470,671h82V373H711V267H575V0Z" 
id="f6_o"
transform="scale(0.001,-0.001)" />

<path d="M431,0V33L535,52V499c0,0,0,62,-32,96c0,0,-32,33,-95,33c0,0,-66,0,-163,-22V52L350,33V0H32V33l89,19V649L32,668v33H237l6,-57c0,0,56,32,119,54c0,0,62,22,110,22c0,0,52,0,95,-20c0,0,44,-19,66,-62c0,0,57,32,134,57c0,0,77,25,128,25c0,0,179,0,179,-207V52l90,-19V0H846V33L950,52V499c0,0,0,129,-119,129c0,0,-19,0,-45,-3c0,0,-26,-3,-52,-7c0,0,-25,-4,-49,-8c0,0,-23,-5,-39,-8c0,0,13,-41,13,-89V52L764,33V0Z" 
id="f2_29"
transform="scale(0.001,-0.001)" />

<path d="M289,-14c0,0,-179,0,-179,205V649L20,668v33H233V200c0,0,0,-128,120,-128c0,0,92,0,173,23V649L420,668v33H649V52L738,33V0H533l-6,57C527,57,474,28,405,7c0,0,-69,-21,-116,-21Z" 
id="f2_2h"
transform="scale(0.001,-0.001)" />

<path d="M31,0V33L150,52v956L31,1026v34H274V52L394,33V0Z" 
id="f2_28"
transform="scale(0.001,-0.001)" />

<path d="M32,0V33L151,52V649L52,668v33H275V52L395,33V0ZM201,850c0,0,-32,0,-56,24c0,0,-24,24,-24,56c0,0,0,34,24,58c0,0,24,24,56,24c0,0,34,0,58,-24c0,0,24,-24,24,-58c0,0,0,-32,-24,-56c0,0,-24,-24,-58,-24Z" 
id="f2_25"
transform="scale(0.001,-0.001)" />

<path d="M382,45c0,0,188,0,188,314c0,0,0,143,-47,213c0,0,-46,69,-141,69c0,0,-87,0,-146,-24V58c0,0,67,-13,146,-13ZM25,-325v35l88,18V649L34,668v33H231l1,-41c0,0,31,27,84,43c0,0,53,17,107,17c0,0,134,0,208,-94c0,0,73,-93,73,-267c0,0,0,-178,-80,-276c0,0,-80,-97,-232,-97c0,0,-84,0,-160,16c0,0,4,-53,4,-84V-272l123,-18v-35Z" 
id="f2_2c"
transform="scale(0.001,-0.001)" />

<path d="M439,0V33l93,19V500c0,0,0,62,-30,97c0,0,-31,36,-94,36c0,0,-67,0,-165,-22V52L338,33V0H35V33l84,19V649L35,668v33H235l7,-57c0,0,57,33,122,54c0,0,65,22,108,22c0,0,91,0,137,-53c0,0,47,-53,47,-154V52L741,33V0Z" 
id="f2_2a"
transform="scale(0.001,-0.001)" />

<path d="M377,45c0,0,99,0,147,73c0,0,47,73,47,237c0,0,0,161,-47,233c0,0,-47,72,-147,72c0,0,-97,0,-141,-69c0,0,-44,-69,-44,-236c0,0,0,-169,45,-240c0,0,44,-70,140,-70Zm0,-59c0,0,-158,0,-238,94c0,0,-81,95,-81,274c0,0,0,178,81,272c0,0,80,94,244,94c0,0,160,0,241,-92c0,0,82,-92,82,-274c0,0,0,-368,-329,-368Z" 
id="f2_2b"
transform="scale(0.001,-0.001)" />

<path d="M31,0V33l88,19V649L31,668v33H235l7,-87c0,0,44,37,121,71c0,0,76,35,121,35h11V530H463l-43,82c0,0,-37,0,-88,-10c0,0,-52,-10,-89,-26V52L363,33V0Z" 
id="f2_2e"
transform="scale(0.001,-0.001)" />

<path d="M122,0V64L295,82V837L123,780v64l282,165H511V82L685,64V0Z" 
id="f5_l"
transform="scale(0.001,-0.001)" />

<path d="M404,60c0,0,54,0,75,59c0,0,21,59,21,177c0,0,0,106,-29,162c0,0,-29,57,-87,57c0,0,-55,0,-112,-17v-4c0,0,0,-434,132,-434Zm3,-74c0,0,-172,0,-263,130c0,0,-92,130,-92,378c0,0,0,161,48,278c0,0,48,117,135,178c0,0,87,61,199,61c0,0,117,0,225,-32V751H594L562,896c0,0,-52,39,-113,39c0,0,-75,0,-121,-95c0,0,-47,-96,-55,-267c0,0,81,35,161,35c0,0,137,0,211,-77c0,0,74,-77,74,-220c0,0,0,-158,-81,-242c0,0,-81,-83,-231,-83Z" 
id="f5_q"
transform="scale(0.001,-0.001)" />

<path d="M191,-20c0,0,-51,0,-88,34c0,0,-36,36,-36,88c0,0,0,52,36,88c0,0,36,36,88,36c0,0,51,0,88,-36c0,0,36,-36,36,-88c0,0,0,-51,-36,-87c0,0,-36,-35,-88,-35Z" 
id="f5_i"
transform="scale(0.001,-0.001)" />

<path d="M54,0V40L172,60V941L44,960v40H794V760H745L721,922c0,0,-83,11,-241,11H316V516H611l23,120h46V328H634L611,449H316V60L483,40V0Z" 
id="f2_16"
transform="scale(0.001,-0.001)" />

<path d="M383,64c0,0,85,0,152,28V645c0,0,-67,13,-152,13c0,0,-194,0,-194,-314c0,0,0,-141,48,-211c0,0,48,-69,146,-69ZM342,-14c0,0,-287,0,-287,358c0,0,0,184,82,280c0,0,81,96,239,96c0,0,81,0,163,-18c0,0,-4,25,-4,124v182l-118,18v34H659V52L745,33V0H548l-9,52c0,0,-84,-66,-197,-66Z" 
id="f2_20"
transform="scale(0.001,-0.001)" />

<path d="M442,0V33l93,19V504c0,0,0,129,-124,129c0,0,-70,0,-168,-22V52L338,33V0H31V33l88,19v956L15,1026v34H243V756c0,0,0,-77,-5,-112c0,0,54,31,122,53c0,0,68,23,115,23c0,0,91,0,137,-53c0,0,47,-53,47,-154V52L744,33V0Z" 
id="f2_24"
transform="scale(0.001,-0.001)" />

<path d="M360,-14L72,649L0,668v33H327V668L216,648L420,164L615,649L504,668v33H764V668L697,652L416,-14Z" 
id="f2_2i"
transform="scale(0.001,-0.001)" />

<path d="M278,-14c0,0,-52,0,-115,11c0,0,-63,10,-99,23V193H98L134,95c0,0,56,-50,146,-50c0,0,144,0,144,123c0,0,0,91,-114,130l-66,21c0,0,-75,25,-110,50c0,0,-34,26,-53,63c0,0,-18,36,-18,89c0,0,0,92,63,145c0,0,63,54,170,54c0,0,77,0,193,-23V544H454l-32,81c0,0,-39,35,-124,35c0,0,-61,0,-92,-30c0,0,-32,-30,-32,-80c0,0,0,-43,29,-72c0,0,28,-29,86,-48c0,0,110,-38,144,-55c0,0,33,-17,57,-42c0,0,23,-25,36,-57c0,0,13,-32,13,-79c0,0,0,-104,-66,-158c0,0,-66,-53,-195,-53Z" 
id="f2_2f"
transform="scale(0.001,-0.001)" />

<path d="M399,-14c0,0,-341,0,-341,370c0,0,0,175,87,269c0,0,87,95,249,95c0,0,101,0,220,-23V501H573L541,625c0,0,-62,35,-149,35c0,0,-200,0,-200,-304c0,0,0,-158,61,-225c0,0,61,-67,189,-67c0,0,109,0,189,24V43C631,43,595,16,530,1c0,0,-64,-15,-131,-15Z" 
id="f2_1z"
transform="scale(0.001,-0.001)" />

<path d="M113,-203V1060H454v-35L232,994V-138l222,-30v-35Z" 
id="f2_1r"
transform="scale(0.001,-0.001)" />

<path d="M-12,338v55H777V338Z" 
id="f6_4y"
transform="scale(0.001,-0.001)" />

<path d="M55,-203v35l222,30V994L55,1025v35H395V-203Z" 
id="f2_1t"
transform="scale(0.001,-0.001)" />

<path d="M595,60c0,0,141,0,206,102c0,0,65,102,65,340c0,0,0,236,-65,335c0,0,-65,100,-206,100c0,0,-142,0,-207,-100c0,0,-66,-99,-66,-335c0,0,0,-239,66,-340c0,0,65,-102,207,-102Zm0,-74c0,0,-253,0,-387,130C208,116,75,246,75,501c0,0,0,510,520,510c0,0,256,0,387,-129c0,0,132,-130,132,-381c0,0,0,-254,-133,-385C981,116,848,-14,595,-14Z" 
id="f5_1f"
transform="scale(0.001,-0.001)" />

<path d="M498,506c0,0,115,0,164,47c0,0,48,48,48,166c0,0,0,112,-46,156c0,0,-46,43,-169,43H390V506ZM793,0L514,423H390V74L518,54V0H36V54L154,74V926L26,945v55H504c0,0,221,0,330,-68c0,0,109,-68,109,-212c0,0,0,-215,-201,-276L1009,74L1117,54V0Z" 
id="f5_1i"
transform="scale(0.001,-0.001)" />

<path d="M383,64c0,0,44,0,87,7c0,0,43,7,65,17V645c0,0,-67,13,-152,13c0,0,-194,0,-194,-309c0,0,0,-143,48,-214c0,0,47,-71,146,-71Zm56,-389v35l96,18V-77c0,0,0,73,7,124c0,0,-79,-61,-200,-61c0,0,-287,0,-287,362c0,0,0,180,81,276c0,0,81,96,237,96c0,0,84,0,166,-18l67,33h53V-272l77,-18v-35Z" 
id="f2_2d"
transform="scale(0.001,-0.001)" />

<path d="M134,0V40L339,60V876L137,804v39l292,166h39V60L672,40V0Z" 
id="f2_l"
transform="scale(0.001,-0.001)" />

<path d="M412,-328c0,0,-195,96,-303,284C109,-44,0,142,0,365c0,0,0,232,114,422c0,0,114,191,298,273v-31c0,0,-92,-51,-151,-139c0,0,-59,-88,-88,-223c0,0,-29,-136,-29,-282c0,0,0,-167,27,-301c0,0,26,-133,82,-221c0,0,55,-89,159,-159v-32Z" 
id="f4_c"
transform="scale(0.001,-0.001)" />

<path d="M34,-328v32c0,0,92,50,151,138c0,0,59,88,88,222c0,0,29,135,29,283c0,0,0,165,-27,300c0,0,-26,134,-82,222c0,0,-56,89,-159,160v31c0,0,194,-96,303,-284c0,0,108,-187,108,-410c0,0,0,-232,-114,-422c0,0,-114,-191,-297,-272Z" 
id="f4_d"
transform="scale(0.001,-0.001)" />

<path d="M477,0V33l64,19L348,354L257,254V52L331,33V0H44V33l89,19v956L29,1026v34H257V338L544,647l-73,20v34H718V667L631,650L431,446L688,50L764,33V0Z" 
id="f2_27"
transform="scale(0.001,-0.001)" />

<path d="M110,641L64,1000H211L165,641Z" 
id="f2_b"
transform="scale(0.001,-0.001)" />

<path d="M17,-325L185,639H64l6,36l127,29l9,49c0,0,30,167,100,245c0,0,71,78,191,78c0,0,57,0,104,-15L574,915H538l-14,85c0,0,-22,16,-63,16c0,0,-45,0,-72,-39c0,0,-26,-39,-48,-160L319,701H475L465,639H309L141,-325Z" 
id="f3_22"
transform="scale(0.001,-0.001)" />

<path d="M45,0V72H795V0Zm0,166v82L673,558L45,870v81L795,578V540L45,166Z" 
id="f4_39"
transform="scale(0.001,-0.001)" />

<path d="M0,-123V1415H525v-72H72V-123Z" 
id="f4_4r"
transform="scale(0.001,-0.001)" />

<path d="M478,-123V1343H26v72H550V-123Z" 
id="f4_57"
transform="scale(0.001,-0.001)" />

<path d="M83,0C83,0,48,0,24,24C24,24,0,49,0,83c0,0,0,34,24,58c0,0,24,24,59,24c0,0,34,0,58,-24c0,0,24,-24,24,-58c0,0,0,-34,-24,-59C141,24,117,0,83,0ZM695,0c0,0,-34,0,-58,24c0,0,-25,25,-25,59c0,0,0,34,25,58c0,0,24,24,58,24c0,0,34,0,58,-24c0,0,24,-24,24,-58c0,0,0,-34,-24,-59C753,24,729,0,695,0ZM388,594c0,0,-34,0,-59,23c0,0,-24,24,-24,59c0,0,0,34,24,58c0,0,25,25,59,25c0,0,34,0,58,-25c0,0,24,-24,24,-58c0,0,0,-35,-24,-59c0,0,-24,-23,-58,-23Z" 
id="f4_1s"
transform="scale(0.001,-0.001)" />

<path d="M0,-123V1415H72V-123Z" 
id="f4_4s"
transform="scale(0.001,-0.001)" />

<path d="M0,-123V1415H72V-123Z" 
id="f4_58"
transform="scale(0.001,-0.001)" />

<path d="M0,-123V1415H72V-51H525v-72Z" 
id="f4_4t"
transform="scale(0.001,-0.001)" />

<path d="M26,-123v72H478V1415h72V-123Z" 
id="f4_59"
transform="scale(0.001,-0.001)" />

<path d="M551,45c0,0,171,0,252,108c0,0,82,108,82,349c0,0,0,239,-81,344c0,0,-81,105,-253,105c0,0,-172,0,-252,-105c0,0,-80,-105,-80,-344c0,0,0,-241,80,-349c0,0,81,-108,252,-108Zm0,-59c0,0,-238,0,-363,129C188,115,63,245,63,501c0,0,0,510,488,510c0,0,242,0,366,-129c0,0,124,-130,124,-381c0,0,0,-255,-126,-385C915,116,790,-14,551,-14Z" 
id="f2_1f"
transform="scale(0.001,-0.001)" />

<path d="M476,327V830h-4L114,327ZM476,0V220H30v99l488,686h86V327H740V220H604V0Z" 
id="f2_o"
transform="scale(0.001,-0.001)" />

<path d="M211,-20c0,0,-39,0,-64,25c0,0,-26,27,-26,64c0,0,0,38,26,64c0,0,26,26,64,26c0,0,37,0,64,-25c0,0,26,-26,26,-65c0,0,0,-37,-26,-64c0,0,-26,-25,-64,-25Zm0,556c0,0,-38,0,-64,26c0,0,-26,26,-26,64c0,0,0,37,26,64c0,0,25,27,64,27c0,0,38,0,64,-27c0,0,26,-27,26,-64c0,0,0,-38,-26,-64c0,0,-27,-26,-64,-26Z" 
id="f2_u"
transform="scale(0.001,-0.001)" />


</defs>
</svg>