<?xml version="1.0" encoding="UTF-8" standalone="no"?>
<!DOCTYPE svg PUBLIC "-//W3C//DTD SVG 1.1//EN"
"http://www.w3.org/Graphics/SVG/1.1/DTD/svg11.dtd">
<svg viewBox="0 0 909 1286" version="1.1" xmlns="http://www.w3.org/2000/svg" xmlns:xlink="http://www.w3.org/1999/xlink">
<defs>
<clipPath id="c0_36"><path d="M55.2,298.3V126.9H280.8V298.3Z" /></clipPath>
<clipPath id="c1_36"><path d="M55.2,467.7V301H392.4V467.7Z" /></clipPath>
<clipPath id="c2_36"><path d="M55.2,799.5V602.9H252.4V799.5Z" /></clipPath>
<clipPath id="c3_36"><path d="M108.7,839.8V813.7h40.9v26.1Z" /></clipPath>
<clipPath id="c4_36"><path d="M55.2,902.9V854.2h83.2v48.7Z" /></clipPath>
<clipPath id="c5_36"><path d="M55.2,952.1V917.5H165.7v34.6Z" /></clipPath>
<clipPath id="c6_36"><path d="M55.2,1062.1V966.7H283.7v95.4Z" /></clipPath>
<clipPath id="c7_36"><path d="M456.7,1142.7v-29.8H619.2v29.8Z" /></clipPath>
<clipPath id="c8_36"><path d="M653.9,1142.7v-29.8h93.7v29.8Z" /></clipPath>
<style type="text/css"><![CDATA[
.g0_36{
fill: #D9D9D9;
}
.g1_36{
fill: none;
stroke: #000000;
stroke-width: 0.7638889;
stroke-linecap: butt;
stroke-linejoin: miter;
}
.g2_36{
fill: none;
stroke: #000000;
stroke-width: 0.91024953;
stroke-linecap: butt;
stroke-linejoin: round;
}
.g3_36{
fill: none;
stroke: #000000;
stroke-width: 0.75760806;
stroke-linecap: butt;
stroke-linejoin: round;
}
.g4_36{
fill: none;
stroke: #000000;
stroke-width: 0.37879643;
stroke-linecap: butt;
stroke-linejoin: round;
}
.g5_36{
fill: none;
stroke: #000000;
stroke-width: 0.77891505;
stroke-linecap: butt;
stroke-linejoin: round;
}
.g6_36{
}
]]></style>
</defs>
<image preserveAspectRatio="none" x="747" y="1196" width="96" height="59" xlink:href="img/1.png" />
<image preserveAspectRatio="none" x="336" y="41" width="259" height="51" xlink:href="img/2.png" />
<image preserveAspectRatio="none" x="342" y="50" width="247" height="27" xlink:href="img/3.png" />
<image preserveAspectRatio="none" x="341" y="45" width="239" height="42" xlink:href="img/4.png" />
<g fill="#FFFFFF" >
<use xlink:href="#f0_j" transform="matrix(11.5,0,0,11.5,355.1,70.1)" />
<use xlink:href="#f0_i" transform="matrix(11.5,0,0,11.5,364.3,70.1)" />
<use xlink:href="#f0_2n" transform="matrix(11.5,0,0,11.5,374.1,70.1)" />
<use xlink:href="#f0_t" transform="matrix(11.5,0,0,11.5,382.6,70.1)" />
<use xlink:href="#f0_oj" transform="matrix(11.5,0,0,11.5,391,70.1)" />
<use xlink:href="#f0_3e" transform="matrix(11.5,0,0,11.5,396.5,70.1)" />
<use xlink:href="#f0_1c" transform="matrix(11.5,0,0,11.5,406.1,70.1)" />
<use xlink:href="#f0_1c" transform="matrix(11.5,0,0,11.5,410.8,70.1)" />
<use xlink:href="#f0_oj" transform="matrix(11.5,0,0,11.5,415.6,70.1)" />
<use xlink:href="#f0_rz" transform="matrix(11.5,0,0,11.5,421.1,70.1)" />
<use xlink:href="#f0_rx" transform="matrix(11.5,0,0,11.5,429.9,70.1)" />
<use xlink:href="#f0_ry" transform="matrix(11.5,0,0,11.5,438.7,70.1)" />
<use xlink:href="#f0_s4" transform="matrix(11.5,0,0,11.5,447.5,70.1)" />
<use xlink:href="#f0_t" transform="matrix(11.5,0,0,11.5,460.4,70.1)" />
<use xlink:href="#f0_3e" transform="matrix(11.5,0,0,11.5,468.8,70.1)" />
<use xlink:href="#f0_5" transform="matrix(11.5,0,0,11.5,478.3,70.1)" />
<use xlink:href="#f0_1x" transform="matrix(11.5,0,0,11.5,489,70.1)" />
<use xlink:href="#f0_1c" transform="matrix(11.5,0,0,11.5,504.4,70.1)" />
<use xlink:href="#f0_1y" transform="matrix(11.5,0,0,11.5,509.1,70.1)" />
<use xlink:href="#f0_5" transform="matrix(11.5,0,0,11.5,520.8,70.1)" />
<use xlink:href="#f0_2t" transform="matrix(11.5,0,0,11.5,531.5,70.1)" />
<use xlink:href="#f0_1c" transform="matrix(11.5,0,0,11.5,540.2,70.1)" />
<use xlink:href="#f0_24" transform="matrix(11.5,0,0,11.5,545,70.1)" />
<use xlink:href="#f0_1y" transform="matrix(11.5,0,0,11.5,556.7,70.1)" />
</g>
<image preserveAspectRatio="none" x="554" y="45" width="36" height="42" xlink:href="img/5.png" />
<g fill="#FFFFFF" >
<use xlink:href="#f1_l" transform="matrix(11,0,0,11,770.3,1227.6)" />
<use xlink:href="#f1_l" transform="matrix(11,0,0,11,779.1,1227.6)" />
<use xlink:href="#f1_j" transform="matrix(11,0,0,11,792.3,1227.6)" />
<use xlink:href="#f1_m" transform="matrix(11,0,0,11,802.9,1227.6)" />
<use xlink:href="#f1_m" transform="matrix(11,0,0,11,811.7,1227.6)" />
</g>
<path fill-rule="evenodd" d="M52.8,1193.5H856.9v-.8H52.8v.8Z" class="g0_36" />
<path d="M37.9,99.4L873,98.5" class="g1_36" />
<g clip-path="url(#c0_36)">
<g fill="#000000" >
<use xlink:href="#f2_o" transform="matrix(7,0,0,7,102,138.3)" />
<use xlink:href="#f2_l" transform="matrix(7,0,0,7,101.8,179)" />
<use xlink:href="#f2_m" transform="matrix(7,0,0,7,102,196.2)" />
<use xlink:href="#f2_o" transform="matrix(7,0,0,7,183.4,196.2)" />
<use xlink:href="#f2_l" transform="matrix(7,0,0,7,101.8,236.9)" />
<use xlink:href="#f2_m" transform="matrix(7,0,0,7,183.4,236.9)" />
<use xlink:href="#f2_m" transform="matrix(7,0,0,7,102,254.1)" />
<use xlink:href="#f2_o" transform="matrix(7,0,0,7,206.7,254.1)" />
<use xlink:href="#f2_l" transform="matrix(7,0,0,7,101.8,294.8)" />
<use xlink:href="#f2_m" transform="matrix(7,0,0,7,206.7,294.8)" />
<use xlink:href="#f2_c" transform="matrix(12.1,0,0,12.2,123.8,159.2)" />
<use xlink:href="#f2_d" transform="matrix(12.1,0,0,12.2,139.9,159.2)" />
<use xlink:href="#f2_c" transform="matrix(12.1,0,0,12.2,123.8,217.1)" />
<use xlink:href="#f2_d" transform="matrix(12.1,0,0,12.2,139.9,217.1)" />
<use xlink:href="#f2_c" transform="matrix(12.1,0,0,12.2,205.2,217.1)" />
<use xlink:href="#f2_l" transform="matrix(12.1,0,0,12.2,236.8,217.1)" />
<use xlink:href="#f2_d" transform="matrix(12.1,0,0,12.2,244.6,217.1)" />
<use xlink:href="#f2_c" transform="matrix(12.1,0,0,12.2,110.6,275.1)" />
<use xlink:href="#f2_p" transform="matrix(12.1,0,0,12.2,154.3,275.1)" />
<use xlink:href="#f2_d" transform="matrix(12.1,0,0,12.2,163.2,275.1)" />
<use xlink:href="#f2_c" transform="matrix(12.1,0,0,12.2,215.3,275.1)" />
<use xlink:href="#f2_l" transform="matrix(12.1,0,0,12.2,246.9,275.1)" />
<use xlink:href="#f2_d" transform="matrix(12.1,0,0,12.2,254.7,275.1)" />
<use xlink:href="#f3_19" transform="matrix(12.1,0,0,12.2,73.4,159.2)" />
<use xlink:href="#f3_22" transform="matrix(12.1,0,0,12.2,114.4,159.2)" />
<use xlink:href="#f3_2k" transform="matrix(12.1,0,0,12.2,131.3,159.2)" />
<use xlink:href="#f3_20" transform="matrix(12.1,0,0,12.2,145.1,159.2)" />
<use xlink:href="#f3_2k" transform="matrix(12.1,0,0,12.2,154.3,159.2)" />
<use xlink:href="#f3_19" transform="matrix(12.1,0,0,12.2,73.4,217.1)" />
<use xlink:href="#f3_22" transform="matrix(12.1,0,0,12.2,114.4,217.1)" />
<use xlink:href="#f3_2k" transform="matrix(12.1,0,0,12.2,131.3,217.1)" />
<use xlink:href="#f3_20" transform="matrix(12.1,0,0,12.2,146.5,217.1)" />
<use xlink:href="#f3_2k" transform="matrix(12.1,0,0,12.2,155.7,217.1)" />
<use xlink:href="#f3_22" transform="matrix(12.1,0,0,12.2,195.7,217.1)" />
<use xlink:href="#f3_2k" transform="matrix(12.1,0,0,12.2,212.6,217.1)" />
<use xlink:href="#f3_20" transform="matrix(12.1,0,0,12.2,249.7,217.1)" />
<use xlink:href="#f3_2k" transform="matrix(12.1,0,0,12.2,258.9,217.1)" />
<use xlink:href="#f3_19" transform="matrix(12.1,0,0,12.2,73.4,275.1)" />
<use xlink:href="#f3_2k" transform="matrix(12.1,0,0,12.2,128.7,275.1)" />
<use xlink:href="#f3_20" transform="matrix(12.1,0,0,12.2,169.8,275.1)" />
<use xlink:href="#f3_2k" transform="matrix(12.1,0,0,12.2,179,275.1)" />
<use xlink:href="#f3_2k" transform="matrix(12.1,0,0,12.2,222.7,275.1)" />
<use xlink:href="#f3_20" transform="matrix(12.1,0,0,12.2,259.8,275.1)" />
<use xlink:href="#f3_2k" transform="matrix(12.1,0,0,12.2,269,275.1)" />
<use xlink:href="#f4_1s" transform="matrix(12.1,0,0,12.2,55.1,159.2)" />
<use xlink:href="#f4_x" transform="matrix(12.1,0,0,12.2,85.9,159.2)" />
<use xlink:href="#f4_1s" transform="matrix(12.1,0,0,12.2,55.1,217.1)" />
<use xlink:href="#f4_x" transform="matrix(12.1,0,0,12.2,85.9,217.1)" />
<use xlink:href="#f4_f" transform="matrix(12.1,0,0,12.2,167.8,217.1)" />
<use xlink:href="#f4_f" transform="matrix(12.1,0,0,12.2,224.7,217.1)" />
<use xlink:href="#f4_1s" transform="matrix(12.1,0,0,12.2,55.1,275.1)" />
<use xlink:href="#f4_x" transform="matrix(12.1,0,0,12.2,85.9,275.1)" />
<use xlink:href="#f4_h" transform="matrix(12.1,0,0,12.2,117.2,275.1)" />
<use xlink:href="#f4_f" transform="matrix(12.1,0,0,12.2,140.8,275.1)" />
<use xlink:href="#f4_f" transform="matrix(12.1,0,0,12.2,191.1,275.1)" />
<use xlink:href="#f4_f" transform="matrix(12.1,0,0,12.2,234.8,275.1)" />
<use xlink:href="#f4_50" transform="matrix(18.2,0,0,18.3,100.8,165.8)" />
<use xlink:href="#f4_50" transform="matrix(18.2,0,0,18.3,100.8,223.7)" />
<use xlink:href="#f4_50" transform="matrix(18.2,0,0,18.3,182.2,223.7)" />
<use xlink:href="#f4_50" transform="matrix(18.2,0,0,18.3,100.8,281.7)" />
<use xlink:href="#f4_50" transform="matrix(18.2,0,0,18.3,205.5,281.7)" />
</g>
</g>
<path d="M93.1,333.8h18.7m78.3,0h18.7M93.9,391.2h10.9m82.3,0H198m62.3,0h18m63,0h10.9M98,444.1h10.8m80,0h19.5" class="g2_36" />
<g clip-path="url(#c1_36)">
<g fill="#000000" >
<use xlink:href="#f2_m" transform="matrix(7.1,0,0,7,157,313.4)" />
<use xlink:href="#f2_o" transform="matrix(7.1,0,0,7,245.4,313.4)" />
<use xlink:href="#f2_m" transform="matrix(7.1,0,0,7,104.1,318.5)" />
<use xlink:href="#f2_m" transform="matrix(7.1,0,0,7,201.1,318.5)" />
<use xlink:href="#f2_l" transform="matrix(7.1,0,0,7,155.9,359.5)" />
<use xlink:href="#f2_m" transform="matrix(7.1,0,0,7,245.4,359.5)" />
<use xlink:href="#f2_p" transform="matrix(12.2,0,0,12.2,129.6,338.4)" />
<use xlink:href="#f2_m" transform="matrix(12.2,0,0,12.2,98.2,352.9)" />
<use xlink:href="#f2_m" transform="matrix(12.2,0,0,12.2,195.1,352.9)" />
<use xlink:href="#f2_o" transform="matrix(12.2,0,0,12.2,95.1,384.1)" />
<use xlink:href="#f2_l" transform="matrix(12.2,0,0,12.2,187.9,384.1)" />
<use xlink:href="#f2_l" transform="matrix(12.2,0,0,12.2,259.4,384.1)" />
<use xlink:href="#f2_q" transform="matrix(12.2,0,0,12.2,268.6,384.1)" />
<use xlink:href="#f2_o" transform="matrix(12.2,0,0,12.2,342.4,384.1)" />
<use xlink:href="#f2_l" transform="matrix(12.2,0,0,12.2,121.1,395.8)" />
<use xlink:href="#f2_k" transform="matrix(12.2,0,0,12.2,130.3,395.8)" />
<use xlink:href="#f2_p" transform="matrix(12.2,0,0,12.2,215.8,395.8)" />
<use xlink:href="#f2_o" transform="matrix(12.2,0,0,12.2,296.7,395.8)" />
<use xlink:href="#f2_m" transform="matrix(12.2,0,0,12.2,370.4,395.8)" />
<use xlink:href="#f2_m" transform="matrix(12.2,0,0,12.2,95.1,410.3)" />
<use xlink:href="#f2_m" transform="matrix(12.2,0,0,12.2,188.2,410.3)" />
<use xlink:href="#f2_m" transform="matrix(12.2,0,0,12.2,265,410.3)" />
<use xlink:href="#f2_m" transform="matrix(12.2,0,0,12.2,342.3,410.3)" />
<use xlink:href="#f2_t" transform="matrix(12.2,0,0,12.2,98.8,437)" />
<use xlink:href="#f2_m" transform="matrix(12.2,0,0,12.2,190,437)" />
<use xlink:href="#f2_n" transform="matrix(12.2,0,0,12.2,199.1,437)" />
<use xlink:href="#f2_s" transform="matrix(12.2,0,0,12.2,71.6,448.7)" />
<use xlink:href="#f2_l" transform="matrix(12.2,0,0,12.2,125.1,448.7)" />
<use xlink:href="#f2_m" transform="matrix(12.2,0,0,12.2,134.3,448.7)" />
<use xlink:href="#f2_o" transform="matrix(12.2,0,0,12.2,160.7,448.7)" />
<use xlink:href="#f2_m" transform="matrix(12.2,0,0,12.2,99.1,463.2)" />
<use xlink:href="#f2_m" transform="matrix(12.2,0,0,12.2,194.3,463.2)" />
<use xlink:href="#f3_2k" transform="matrix(12.2,0,0,12.2,95.1,326.7)" />
<use xlink:href="#f3_2k" transform="matrix(12.2,0,0,12.2,192.1,326.7)" />
<use xlink:href="#f3_2k" transform="matrix(12.2,0,0,12.2,139.6,338.4)" />
<use xlink:href="#f3_2k" transform="matrix(12.2,0,0,12.2,228,338.4)" />
<use xlink:href="#f4_4r" transform="matrix(12.2,0,0,12.2,72.7,325.9)" />
<use xlink:href="#f4_57" transform="matrix(12.2,0,0,12.2,148.8,325.9)" />
<use xlink:href="#f4_4r" transform="matrix(12.2,0,0,12.2,181.9,325.9)" />
<use xlink:href="#f4_57" transform="matrix(12.2,0,0,12.2,237.2,325.9)" />
<use xlink:href="#f4_x" transform="matrix(12.2,0,0,12.2,58,338.4)" />
<use xlink:href="#f4_h" transform="matrix(12.2,0,0,12.2,80.5,338.4)" />
<use xlink:href="#f4_f" transform="matrix(12.2,0,0,12.2,116.1,338.4)" />
<use xlink:href="#f4_f" transform="matrix(12.2,0,0,12.2,167.6,338.4)" />
<use xlink:href="#f4_f" transform="matrix(12.2,0,0,12.2,213,338.4)" />
<use xlink:href="#f4_4s" transform="matrix(12.2,0,0,12.2,72.7,343.4)" />
<use xlink:href="#f4_58" transform="matrix(12.2,0,0,12.2,148.8,343.4)" />
<use xlink:href="#f4_4s" transform="matrix(12.2,0,0,12.2,181.9,343.4)" />
<use xlink:href="#f4_58" transform="matrix(12.2,0,0,12.2,237.2,343.4)" />
<use xlink:href="#f4_4t" transform="matrix(12.2,0,0,12.2,72.7,357.2)" />
<use xlink:href="#f4_59" transform="matrix(12.2,0,0,12.2,148.8,357.2)" />
<use xlink:href="#f4_4t" transform="matrix(12.2,0,0,12.2,181.9,357.2)" />
<use xlink:href="#f4_59" transform="matrix(12.2,0,0,12.2,237.2,357.2)" />
<use xlink:href="#f4_4o" transform="matrix(12.2,0,0,12.2,71.9,385.5)" />
<use xlink:href="#f4_54" transform="matrix(12.2,0,0,12.2,141.3,385.5)" />
<use xlink:href="#f4_4o" transform="matrix(12.2,0,0,12.2,165,385.5)" />
<use xlink:href="#f4_54" transform="matrix(12.2,0,0,12.2,226.4,385.5)" />
<use xlink:href="#f4_4o" transform="matrix(12.2,0,0,12.2,250.4,385.5)" />
<use xlink:href="#f4_54" transform="matrix(12.2,0,0,12.2,307.5,385.5)" />
<use xlink:href="#f4_4o" transform="matrix(12.2,0,0,12.2,331.3,385.5)" />
<use xlink:href="#f4_54" transform="matrix(12.2,0,0,12.2,381.3,385.5)" />
<use xlink:href="#f4_x" transform="matrix(12.2,0,0,12.2,58,395.8)" />
<use xlink:href="#f4_h" transform="matrix(12.2,0,0,12.2,81.4,395.8)" />
<use xlink:href="#f4_f" transform="matrix(12.2,0,0,12.2,109.1,395.8)" />
<use xlink:href="#f4_h" transform="matrix(12.2,0,0,12.2,151.8,395.8)" />
<use xlink:href="#f4_h" transform="matrix(12.2,0,0,12.2,174.5,395.8)" />
<use xlink:href="#f4_f" transform="matrix(12.2,0,0,12.2,202.2,395.8)" />
<use xlink:href="#f4_f" transform="matrix(12.2,0,0,12.2,236.9,395.8)" />
<use xlink:href="#f4_f" transform="matrix(12.2,0,0,12.2,282.5,395.8)" />
<use xlink:href="#f4_h" transform="matrix(12.2,0,0,12.2,318.1,395.8)" />
<use xlink:href="#f4_f" transform="matrix(12.2,0,0,12.2,356.3,395.8)" />
<use xlink:href="#f4_4p" transform="matrix(12.2,0,0,12.2,71.9,400.9)" />
<use xlink:href="#f4_55" transform="matrix(12.2,0,0,12.2,141.3,400.9)" />
<use xlink:href="#f4_4p" transform="matrix(12.2,0,0,12.2,165,400.9)" />
<use xlink:href="#f4_55" transform="matrix(12.2,0,0,12.2,226.4,400.9)" />
<use xlink:href="#f4_4p" transform="matrix(12.2,0,0,12.2,250.4,400.9)" />
<use xlink:href="#f4_55" transform="matrix(12.2,0,0,12.2,307.5,400.9)" />
<use xlink:href="#f4_4p" transform="matrix(12.2,0,0,12.2,331.3,400.9)" />
<use xlink:href="#f4_55" transform="matrix(12.2,0,0,12.2,381.3,400.9)" />
<use xlink:href="#f4_4q" transform="matrix(12.2,0,0,12.2,71.9,412.4)" />
<use xlink:href="#f4_56" transform="matrix(12.2,0,0,12.2,141.3,412.4)" />
<use xlink:href="#f4_4q" transform="matrix(12.2,0,0,12.2,165,412.4)" />
<use xlink:href="#f4_56" transform="matrix(12.2,0,0,12.2,226.4,412.4)" />
<use xlink:href="#f4_4q" transform="matrix(12.2,0,0,12.2,250.4,412.4)" />
<use xlink:href="#f4_56" transform="matrix(12.2,0,0,12.2,307.5,412.4)" />
<use xlink:href="#f4_4q" transform="matrix(12.2,0,0,12.2,331.3,412.4)" />
<use xlink:href="#f4_56" transform="matrix(12.2,0,0,12.2,381.3,412.4)" />
<use xlink:href="#f4_x" transform="matrix(12.2,0,0,12.2,58,448.7)" />
<use xlink:href="#f4_h" transform="matrix(12.2,0,0,12.2,83.9,448.7)" />
<use xlink:href="#f4_f" transform="matrix(12.2,0,0,12.2,113.1,448.7)" />
<use xlink:href="#f4_h" transform="matrix(12.2,0,0,12.2,146.9,448.7)" />
<use xlink:href="#f4_x" transform="matrix(12.2,0,0,12.2,174,448.7)" />
</g>
</g>
<g fill="#000000" >
<use xlink:href="#f5_l" transform="matrix(12,0,0,12,55,512.4)" />
<use xlink:href="#f5_s" transform="matrix(12,0,0,12,64.2,512.4)" />
<use xlink:href="#f5_i" transform="matrix(12,0,0,12,73.4,512.4)" />
<use xlink:href="#f2_1j" transform="matrix(12,0,0,12,82.9,512.4)" />
<use xlink:href="#f2_2b" transform="matrix(12,0,0,12,92.8,512.4)" />
<use xlink:href="#f2_28" transform="matrix(12,0,0,12,102.3,512.4)" />
<use xlink:href="#f2_2i" transform="matrix(12,0,0,12,107.1,512.4)" />
<use xlink:href="#f2_21" transform="matrix(12,0,0,12,115.9,512.4)" />
<use xlink:href="#f2_2g" transform="matrix(12,0,0,12,128.7,512.4)" />
<use xlink:href="#f2_24" transform="matrix(12,0,0,12,134.2,512.4)" />
<use xlink:href="#f2_21" transform="matrix(12,0,0,12,143,512.4)" />
<use xlink:href="#f2_20" transform="matrix(12,0,0,12,155.8,512.4)" />
<use xlink:href="#f2_25" transform="matrix(12,0,0,12,165.3,512.4)" />
<use xlink:href="#f2_22" transform="matrix(12,0,0,12,170.1,512.4)" />
<use xlink:href="#f2_22" transform="matrix(12,0,0,12,175.9,512.4)" />
<use xlink:href="#f2_21" transform="matrix(12,0,0,12,181.8,512.4)" />
<use xlink:href="#f2_2e" transform="matrix(12,0,0,12,189.9,512.4)" />
<use xlink:href="#f2_21" transform="matrix(12,0,0,12,196.1,512.4)" />
<use xlink:href="#f2_2a" transform="matrix(12,0,0,12,204.5,512.4)" />
<use xlink:href="#f2_2g" transform="matrix(12,0,0,12,213.3,512.4)" />
<use xlink:href="#f2_25" transform="matrix(12,0,0,12,219.2,512.4)" />
<use xlink:href="#f2_1x" transform="matrix(12,0,0,12,223.6,512.4)" />
<use xlink:href="#f2_28" transform="matrix(12,0,0,12,232,512.4)" />
<use xlink:href="#f2_21" transform="matrix(12,0,0,12,241.5,512.4)" />
<use xlink:href="#f2_2d" transform="matrix(12,0,0,12,249.6,512.4)" />
<use xlink:href="#f2_2h" transform="matrix(12,0,0,12,258.7,512.4)" />
<use xlink:href="#f2_1x" transform="matrix(12,0,0,12,267.9,512.4)" />
<use xlink:href="#f2_2g" transform="matrix(12,0,0,12,276,512.4)" />
<use xlink:href="#f2_25" transform="matrix(12,0,0,12,281.8,512.4)" />
<use xlink:href="#f2_2b" transform="matrix(12,0,0,12,286.2,512.4)" />
<use xlink:href="#f2_2a" transform="matrix(12,0,0,12,295.7,512.4)" />
<use xlink:href="#f2_c" transform="matrix(12,0,0,12,309.3,512.4)" />
<use xlink:href="#f2_2g" transform="matrix(12,0,0,12,315.5,512.4)" />
<use xlink:href="#f2_1x" transform="matrix(12,0,0,12,321,512.4)" />
<use xlink:href="#f2_2a" transform="matrix(12,0,0,12,329,512.4)" />
<use xlink:href="#f6_4y" transform="matrix(7.9,0,0,7.9,338.2,505.4)" />
<use xlink:href="#f2_l" transform="matrix(7.9,0,0,7.9,344.5,505.4)" />
<use xlink:href="#f2_2k" transform="matrix(12,0,0,12,355.5,512.4)" />
<use xlink:href="#f6_4y" transform="matrix(12,0,0,12,369,512.4)" />
<use xlink:href="#f2_2l" transform="matrix(12,0,0,12,383,512.4)" />
<use xlink:href="#f2_d" transform="matrix(12,0,0,12,391.4,512.4)" />
<use xlink:href="#f2_20" transform="matrix(12,0,0,12,397.6,512.4)" />
<use xlink:href="#f2_2k" transform="matrix(12,0,0,12,406.8,512.4)" />
<use xlink:href="#f2_x" transform="matrix(12,0,0,12,420.7,512.4)" />
<use xlink:href="#f2_c" transform="matrix(12,0,0,12,435.7,512.4)" />
<use xlink:href="#f2_l" transform="matrix(12,0,0,12,441.9,512.4)" />
<use xlink:href="#f2_f" transform="matrix(12,0,0,12,455.8,512.4)" />
<use xlink:href="#f2_2k" transform="matrix(12,0,0,12,470.8,512.4)" />
<use xlink:href="#f2_m" transform="matrix(7.9,0,0,7.9,479.8,505.4)" />
<use xlink:href="#f2_d" transform="matrix(12,0,0,12,486,512.4)" />
<use xlink:href="#f2_20" transform="matrix(12,0,0,12,496.6,512.4)" />
<use xlink:href="#f2_2l" transform="matrix(12,0,0,12,505.8,512.4)" />
<use xlink:href="#f2_i" transform="matrix(12,0,0,12,514.2,512.4)" />
<use xlink:href="#f5_1j" transform="matrix(12,0,0,12,55,548.7)" />
<use xlink:href="#f5_2b" transform="matrix(12,0,0,12,65.3,548.7)" />
<use xlink:href="#f5_28" transform="matrix(12,0,0,12,74.5,548.7)" />
<use xlink:href="#f5_2h" transform="matrix(12,0,0,12,79.2,548.7)" />
<use xlink:href="#f5_2g" transform="matrix(12,0,0,12,89.5,548.7)" />
<use xlink:href="#f5_25" transform="matrix(12,0,0,12,95.7,548.7)" />
<use xlink:href="#f5_2b" transform="matrix(12,0,0,12,100.8,548.7)" />
<use xlink:href="#f5_2a" transform="matrix(12,0,0,12,109.9,548.7)" />
<use xlink:href="#f5_u" transform="matrix(12,0,0,12,120.2,548.7)" />
<use xlink:href="#f2_1n" transform="matrix(12,0,0,12,55,585.4)" />
<use xlink:href="#f2_21" transform="matrix(12,0,0,12,71.9,585.4)" />
<use xlink:href="#f2_24" transform="matrix(12,0,0,12,85.1,585.4)" />
<use xlink:href="#f2_1x" transform="matrix(12,0,0,12,93.9,585.4)" />
<use xlink:href="#f2_2i" transform="matrix(12,0,0,12,102.3,585.4)" />
<use xlink:href="#f2_21" transform="matrix(12,0,0,12,111.1,585.4)" />
</g>
<path d="M58.3,631H78.2m19.9,0h77.2m-117,51.2H78.2m18.7,0h42.2m19.9,0h49.4" class="g3_36" />
<path d="M121.1,722.5h23.5" class="g4_36" />
<path d="M134.4,777.2h49.5" class="g3_36" />
<g clip-path="url(#c2_36)">
<g fill="#000000" >
<use xlink:href="#f2_l" transform="matrix(5.1,0,0,5.1,203.5,727.7)" />
<use xlink:href="#f2_m" transform="matrix(5.1,0,0,5.1,138.8,730.2)" />
<use xlink:href="#f2_l" transform="matrix(5.1,0,0,5.1,98.3,768.8)" />
<use xlink:href="#f2_l" transform="matrix(5.1,0,0,5.1,226.7,768.8)" />
<use xlink:href="#f2_l" transform="matrix(7.1,0,0,7.1,129.1,616)" />
<use xlink:href="#f2_m" transform="matrix(7.1,0,0,7.1,149.9,641.5)" />
<use xlink:href="#f2_l" transform="matrix(7.1,0,0,7.1,190,667.2)" />
<use xlink:href="#f2_m" transform="matrix(7.1,0,0,7.1,131.2,692.6)" />
<use xlink:href="#f2_m" transform="matrix(7.1,0,0,7.1,196.9,692.6)" />
<use xlink:href="#f2_l" transform="matrix(7.1,0,0,7.1,130.2,718.4)" />
<use xlink:href="#f2_2g" transform="matrix(7.1,0,0,7.1,185.6,732.5)" />
<use xlink:href="#f2_1x" transform="matrix(7.1,0,0,7.1,188.6,732.5)" />
<use xlink:href="#f2_2a" transform="matrix(7.1,0,0,7.1,193.3,732.5)" />
<use xlink:href="#f2_l" transform="matrix(7.1,0,0,7.1,120.6,735)" />
<use xlink:href="#f2_l" transform="matrix(7.1,0,0,7.1,165.4,762.2)" />
<use xlink:href="#f2_2g" transform="matrix(7.1,0,0,7.1,80.3,773.6)" />
<use xlink:href="#f2_1x" transform="matrix(7.1,0,0,7.1,83.3,773.6)" />
<use xlink:href="#f2_2a" transform="matrix(7.1,0,0,7.1,88,773.6)" />
<use xlink:href="#f2_2g" transform="matrix(7.1,0,0,7.1,208.8,773.6)" />
<use xlink:href="#f2_1x" transform="matrix(7.1,0,0,7.1,211.8,773.6)" />
<use xlink:href="#f2_2a" transform="matrix(7.1,0,0,7.1,216.5,773.6)" />
<use xlink:href="#f2_m" transform="matrix(7.1,0,0,7.1,172.3,787.7)" />
<use xlink:href="#f2_2g" transform="matrix(12.2,0,0,12.2,99.6,624.2)" />
<use xlink:href="#f2_1x" transform="matrix(12.2,0,0,12.2,104.8,624.2)" />
<use xlink:href="#f2_2a" transform="matrix(12.2,0,0,12.2,112.8,624.2)" />
<use xlink:href="#f2_l" transform="matrix(12.2,0,0,12.2,114.8,649.6)" />
<use xlink:href="#f2_2g" transform="matrix(12.2,0,0,12.2,160.5,675.4)" />
<use xlink:href="#f2_1x" transform="matrix(12.2,0,0,12.2,165.7,675.4)" />
<use xlink:href="#f2_2a" transform="matrix(12.2,0,0,12.2,173.7,675.4)" />
<use xlink:href="#f2_l" transform="matrix(12.2,0,0,12.2,96.1,700.9)" />
<use xlink:href="#f2_l" transform="matrix(12.2,0,0,12.2,161.8,700.9)" />
<use xlink:href="#f2_i" transform="matrix(12.2,0,0,12.2,66,740.7)" />
<use xlink:href="#f2_i" transform="matrix(12.2,0,0,12.2,82.9,740.7)" />
<use xlink:href="#f2_2g" transform="matrix(12.2,0,0,12.2,135.9,770.4)" />
<use xlink:href="#f2_1x" transform="matrix(12.2,0,0,12.2,141.1,770.4)" />
<use xlink:href="#f2_2a" transform="matrix(12.2,0,0,12.2,149.1,770.4)" />
<use xlink:href="#f2_i" transform="matrix(12.2,0,0,12.2,67.7,781.8)" />
<use xlink:href="#f2_l" transform="matrix(12.2,0,0,12.2,137.2,795.9)" />
<use xlink:href="#f3_20" transform="matrix(7.1,0,0,7.1,146,725.2)" />
<use xlink:href="#f3_2k" transform="matrix(7.1,0,0,7.1,151.4,725.2)" />
<use xlink:href="#f3_2k" transform="matrix(7.1,0,0,7.1,209.7,732.5)" />
<use xlink:href="#f3_2k" transform="matrix(7.1,0,0,7.1,133.6,735)" />
<use xlink:href="#f3_20" transform="matrix(12.2,0,0,12.2,59.5,624.2)" />
<use xlink:href="#f3_2l" transform="matrix(12.2,0,0,12.2,68.7,624.2)" />
<use xlink:href="#f3_2k" transform="matrix(12.2,0,0,12.2,138.3,624.2)" />
<use xlink:href="#f3_2l" transform="matrix(12.2,0,0,12.2,165.8,624.2)" />
<use xlink:href="#f3_20" transform="matrix(12.2,0,0,12.2,59.6,649.6)" />
<use xlink:href="#f3_2k" transform="matrix(12.2,0,0,12.2,68.8,649.6)" />
<use xlink:href="#f3_2k" transform="matrix(12.2,0,0,12.2,140.9,649.6)" />
<use xlink:href="#f3_20" transform="matrix(12.2,0,0,12.2,59.5,675.4)" />
<use xlink:href="#f3_2l" transform="matrix(12.2,0,0,12.2,68.7,675.4)" />
<use xlink:href="#f3_2l" transform="matrix(12.2,0,0,12.2,114.7,675.4)" />
<use xlink:href="#f3_2k" transform="matrix(12.2,0,0,12.2,199.1,675.4)" />
<use xlink:href="#f3_20" transform="matrix(12.2,0,0,12.2,59.6,700.9)" />
<use xlink:href="#f3_2k" transform="matrix(12.2,0,0,12.2,68.8,700.9)" />
<use xlink:href="#f3_2k" transform="matrix(12.2,0,0,12.2,122.1,700.9)" />
<use xlink:href="#f3_2k" transform="matrix(12.2,0,0,12.2,187.8,700.9)" />
<use xlink:href="#f3_19" transform="matrix(12.2,0,0,12.2,58.5,740.7)" />
<use xlink:href="#f3_16" transform="matrix(12.2,0,0,12.2,70.5,740.7)" />
<use xlink:href="#f3_21" transform="matrix(12.2,0,0,12.2,105,740.7)" />
<use xlink:href="#f3_21" transform="matrix(12.2,0,0,12.2,176.6,740.7)" />
<use xlink:href="#f3_2k" transform="matrix(12.2,0,0,12.2,174.6,770.4)" />
<use xlink:href="#f3_2l" transform="matrix(12.2,0,0,12.2,59.7,781.8)" />
<use xlink:href="#f3_21" transform="matrix(12.2,0,0,12.2,71.4,781.8)" />
<use xlink:href="#f3_21" transform="matrix(12.2,0,0,12.2,199.9,781.8)" />
<use xlink:href="#f3_20" transform="matrix(12.2,0,0,12.2,232.3,781.8)" />
<use xlink:href="#f3_2k" transform="matrix(12.2,0,0,12.2,241.5,781.8)" />
<use xlink:href="#f3_2k" transform="matrix(12.2,0,0,12.2,163.3,795.9)" />
<use xlink:href="#f4_h" transform="matrix(5.1,0,0,5.1,199.4,727.7)" />
<use xlink:href="#f4_h" transform="matrix(5.1,0,0,5.1,94.1,768.8)" />
<use xlink:href="#f4_h" transform="matrix(5.1,0,0,5.1,222.6,768.8)" />
<use xlink:href="#f4_h" transform="matrix(7.1,0,0,7.1,123.3,616)" />
<use xlink:href="#f4_h" transform="matrix(7.1,0,0,7.1,184.1,667.2)" />
<use xlink:href="#f4_f" transform="matrix(7.1,0,0,7.1,126.1,735)" />
<use xlink:href="#f4_h" transform="matrix(7.1,0,0,7.1,159.6,762.2)" />
<use xlink:href="#f4_h" transform="matrix(12.2,0,0,12.2,150.3,624.2)" />
<use xlink:href="#f4_x" transform="matrix(12.2,0,0,12.2,83.3,635.5)" />
<use xlink:href="#f4_f" transform="matrix(12.2,0,0,12.2,126,649.6)" />
<use xlink:href="#f4_f" transform="matrix(12.2,0,0,12.2,82.5,686.7)" />
<use xlink:href="#f4_x" transform="matrix(12.2,0,0,12.2,144.2,686.7)" />
<use xlink:href="#f4_f" transform="matrix(12.2,0,0,12.2,107.3,700.9)" />
<use xlink:href="#f4_f" transform="matrix(12.2,0,0,12.2,173,700.9)" />
<use xlink:href="#f4_50" transform="matrix(12.2,0,0,12.2,114,730)" />
<use xlink:href="#f4_x" transform="matrix(12.2,0,0,12.2,90.8,740.7)" />
<use xlink:href="#f4_x" transform="matrix(12.2,0,0,12.2,162.5,740.7)" />
<use xlink:href="#f4_x" transform="matrix(12.2,0,0,12.2,109.2,781.8)" />
<use xlink:href="#f4_3a" transform="matrix(12.2,0,0,12.2,187,781.8)" />
<use xlink:href="#f4_f" transform="matrix(12.2,0,0,12.2,148.4,795.9)" />
<use xlink:href="#f4_50" transform="matrix(18.3,0,0,18.2,124,788.4)" />
</g>
</g>
<g fill="#000000" >
<use xlink:href="#f2_1g" transform="matrix(12,0,0,12,55,835.1)" />
<use xlink:href="#f2_2h" transform="matrix(12,0,0,12,65.3,835.1)" />
<use xlink:href="#f2_2g" transform="matrix(12,0,0,12,74.5,835.1)" />
<use xlink:href="#f2_2g" transform="matrix(12,0,0,12,84,835.1)" />
<use xlink:href="#f2_x" transform="matrix(12,0,0,12,94.2,835.1)" />
</g>
<g clip-path="url(#c3_36)">
<g fill="#000000" >
<use xlink:href="#f2_l" transform="matrix(7.6,0,0,7.3,141.3,826.9)" />
<use xlink:href="#f2_2g" transform="matrix(13.1,0,0,12.5,111.8,835.3)" />
<use xlink:href="#f2_1x" transform="matrix(13.1,0,0,12.5,116.9,835.3)" />
<use xlink:href="#f2_2a" transform="matrix(13.1,0,0,12.5,125,835.3)" />
<use xlink:href="#f4_h" transform="matrix(7.6,0,0,7.3,135.4,826.9)" />
</g>
</g>
<path d="M92.4,880.1h42.2" class="g5_36" />
<g clip-path="url(#c4_36)">
<g fill="#000000" >
<use xlink:href="#f2_m" transform="matrix(7.3,0,0,7.2,126.8,890.7)" />
<use xlink:href="#f2_l" transform="matrix(12.4,0,0,12.4,97.4,873.2)" />
<use xlink:href="#f2_i" transform="matrix(12.4,0,0,12.4,106.5,873.2)" />
<use xlink:href="#f2_l" transform="matrix(12.4,0,0,12.4,91.6,899.1)" />
<use xlink:href="#f3_20" transform="matrix(12.4,0,0,12.4,110.5,873.2)" />
<use xlink:href="#f3_2k" transform="matrix(12.4,0,0,12.4,119.7,873.2)" />
<use xlink:href="#f3_20" transform="matrix(12.4,0,0,12.4,58,884.7)" />
<use xlink:href="#f3_2g" transform="matrix(12.4,0,0,12.4,67.1,884.7)" />
<use xlink:href="#f3_2k" transform="matrix(12.4,0,0,12.4,117.7,899.1)" />
<use xlink:href="#f4_x" transform="matrix(12.4,0,0,12.4,77.6,884.7)" />
<use xlink:href="#f4_f" transform="matrix(12.4,0,0,12.4,102.8,899.1)" />
</g>
</g>
<g clip-path="url(#c5_36)">
<g fill="#000000" >
<use xlink:href="#f2_i" transform="matrix(12.8,0,0,12.2,77.2,940.1)" />
<use xlink:href="#f2_l" transform="matrix(12.8,0,0,12.2,120.2,940.1)" />
<use xlink:href="#f2_i" transform="matrix(12.8,0,0,12.2,129.3,940.1)" />
<use xlink:href="#f3_2g" transform="matrix(7.5,0,0,7.1,89.3,931.9)" />
<use xlink:href="#f3_2g" transform="matrix(7.5,0,0,7.1,141.4,931.9)" />
<use xlink:href="#f3_2g" transform="matrix(12.8,0,0,12.2,71.8,940.1)" />
<use xlink:href="#f3_21" transform="matrix(12.8,0,0,12.2,80.9,940.1)" />
<use xlink:href="#f3_21" transform="matrix(12.8,0,0,12.2,133,940.1)" />
<use xlink:href="#f3_20" transform="matrix(12.8,0,0,12.2,145.7,940.1)" />
<use xlink:href="#f3_2g" transform="matrix(12.8,0,0,12.2,154.8,940.1)" />
<use xlink:href="#f4_x" transform="matrix(12.8,0,0,12.2,57.9,940.1)" />
<use xlink:href="#f4_h" transform="matrix(12.8,0,0,12.2,98.2,940.1)" />
<use xlink:href="#f4_50" transform="matrix(19.2,0,0,18.3,112.2,946.7)" />
</g>
</g>
<g clip-path="url(#c6_36)">
<g fill="#000000" >
<use xlink:href="#f2_l" transform="matrix(5.2,0,0,5.1,98.3,977.2)" />
<use xlink:href="#f2_l" transform="matrix(5.2,0,0,5.1,98.3,1009.7)" />
<use xlink:href="#f2_l" transform="matrix(5.2,0,0,5.1,241.6,1009.7)" />
<use xlink:href="#f2_l" transform="matrix(5.2,0,0,5.1,210.2,1042.2)" />
<use xlink:href="#f2_2g" transform="matrix(7.3,0,0,7.2,80.4,982)" />
<use xlink:href="#f2_1x" transform="matrix(7.3,0,0,7.2,83.4,982)" />
<use xlink:href="#f2_2a" transform="matrix(7.3,0,0,7.2,88.1,982)" />
<use xlink:href="#f2_2g" transform="matrix(7.3,0,0,7.2,80.4,1014.5)" />
<use xlink:href="#f2_1x" transform="matrix(7.3,0,0,7.2,83.4,1014.5)" />
<use xlink:href="#f2_2a" transform="matrix(7.3,0,0,7.2,88.1,1014.5)" />
<use xlink:href="#f2_l" transform="matrix(7.3,0,0,7.2,167.6,1014.5)" />
<use xlink:href="#f2_2g" transform="matrix(7.3,0,0,7.2,223.6,1014.5)" />
<use xlink:href="#f2_1x" transform="matrix(7.3,0,0,7.2,226.7,1014.5)" />
<use xlink:href="#f2_2a" transform="matrix(7.3,0,0,7.2,231.3,1014.5)" />
<use xlink:href="#f2_l" transform="matrix(7.3,0,0,7.2,117.2,1047)" />
<use xlink:href="#f2_2g" transform="matrix(7.3,0,0,7.2,192.2,1047)" />
<use xlink:href="#f2_1x" transform="matrix(7.3,0,0,7.2,195.3,1047)" />
<use xlink:href="#f2_2a" transform="matrix(7.3,0,0,7.2,200,1047)" />
<use xlink:href="#f2_i" transform="matrix(12.5,0,0,12.3,67.7,990.3)" />
<use xlink:href="#f2_i" transform="matrix(12.5,0,0,12.3,67.7,1022.8)" />
<use xlink:href="#f2_c" transform="matrix(12.5,0,0,12.3,131.9,1022.8)" />
<use xlink:href="#f2_2g" transform="matrix(12.5,0,0,12.3,138,1022.8)" />
<use xlink:href="#f2_1x" transform="matrix(12.5,0,0,12.3,143.2,1022.8)" />
<use xlink:href="#f2_2a" transform="matrix(12.5,0,0,12.3,151.2,1022.8)" />
<use xlink:href="#f2_l" transform="matrix(12.5,0,0,12.3,200.6,1022.8)" />
<use xlink:href="#f2_d" transform="matrix(12.5,0,0,12.3,208.3,1022.8)" />
<use xlink:href="#f2_2g" transform="matrix(12.5,0,0,12.3,87.7,1055.3)" />
<use xlink:href="#f2_1x" transform="matrix(12.5,0,0,12.3,92.9,1055.3)" />
<use xlink:href="#f2_2a" transform="matrix(12.5,0,0,12.3,100.9,1055.3)" />
<use xlink:href="#f2_l" transform="matrix(12.5,0,0,12.3,150.3,1055.3)" />
<use xlink:href="#f3_2g" transform="matrix(7.3,0,0,7.2,145.3,982)" />
<use xlink:href="#f3_2g" transform="matrix(7.3,0,0,7.2,176.2,982)" />
<use xlink:href="#f3_2k" transform="matrix(7.3,0,0,7.2,247.8,1014.5)" />
<use xlink:href="#f3_2k" transform="matrix(7.3,0,0,7.2,217.2,1047)" />
<use xlink:href="#f3_2l" transform="matrix(12.5,0,0,12.3,59.7,990.3)" />
<use xlink:href="#f3_21" transform="matrix(12.5,0,0,12.3,71.4,990.3)" />
<use xlink:href="#f3_2k" transform="matrix(12.5,0,0,12.3,104.8,990.3)" />
<use xlink:href="#f3_2g" transform="matrix(12.5,0,0,12.3,131.6,990.3)" />
<use xlink:href="#f3_21" transform="matrix(12.5,0,0,12.3,136.8,990.3)" />
<use xlink:href="#f3_21" transform="matrix(12.5,0,0,12.3,167.7,990.3)" />
<use xlink:href="#f3_1z" transform="matrix(12.5,0,0,12.3,199,990.3)" />
<use xlink:href="#f3_2l" transform="matrix(12.5,0,0,12.3,59.7,1022.8)" />
<use xlink:href="#f3_21" transform="matrix(12.5,0,0,12.3,71.4,1022.8)" />
<use xlink:href="#f3_2k" transform="matrix(12.5,0,0,12.3,104.8,1022.8)" />
<use xlink:href="#f3_2k" transform="matrix(12.5,0,0,12.3,176.7,1022.8)" />
<use xlink:href="#f3_21" transform="matrix(12.5,0,0,12.3,214.6,1022.8)" />
<use xlink:href="#f3_1z" transform="matrix(12.5,0,0,12.3,271.8,1022.8)" />
<use xlink:href="#f3_2l" transform="matrix(12.5,0,0,12.3,59.7,1055.3)" />
<use xlink:href="#f3_2k" transform="matrix(12.5,0,0,12.3,126.4,1055.3)" />
<use xlink:href="#f3_1z" transform="matrix(12.5,0,0,12.3,175.2,1055.3)" />
<use xlink:href="#f3_21" transform="matrix(12.5,0,0,12.3,183.3,1055.3)" />
<use xlink:href="#f4_h" transform="matrix(5.2,0,0,5.1,94.2,977.2)" />
<use xlink:href="#f4_h" transform="matrix(5.2,0,0,5.1,94.2,1009.7)" />
<use xlink:href="#f4_h" transform="matrix(5.2,0,0,5.1,237.4,1009.7)" />
<use xlink:href="#f4_h" transform="matrix(5.2,0,0,5.1,206,1042.2)" />
<use xlink:href="#f4_h" transform="matrix(7.3,0,0,7.2,161.7,1014.5)" />
<use xlink:href="#f4_h" transform="matrix(7.3,0,0,7.2,111.4,1047)" />
<use xlink:href="#f4_x" transform="matrix(12.5,0,0,12.3,117.7,990.3)" />
<use xlink:href="#f4_h" transform="matrix(12.5,0,0,12.3,154.3,990.3)" />
<use xlink:href="#f4_f" transform="matrix(12.5,0,0,12.3,185.2,990.3)" />
<use xlink:href="#f4_x" transform="matrix(12.5,0,0,12.3,117.7,1022.8)" />
<use xlink:href="#f4_h" transform="matrix(12.5,0,0,12.3,188.8,1022.8)" />
<use xlink:href="#f4_f" transform="matrix(12.5,0,0,12.3,258.1,1022.8)" />
<use xlink:href="#f4_x" transform="matrix(12.5,0,0,12.3,72.8,1055.3)" />
<use xlink:href="#f4_h" transform="matrix(12.5,0,0,12.3,138.5,1055.3)" />
<use xlink:href="#f4_f" transform="matrix(12.5,0,0,12.3,161.4,1055.3)" />
</g>
</g>
<g fill="#000000" >
<use xlink:href="#f5_l" transform="matrix(12,0,0,12,55,1135.1)" />
<use xlink:href="#f5_t" transform="matrix(12,0,0,12,64.2,1135.1)" />
<use xlink:href="#f5_i" transform="matrix(12,0,0,12,73.4,1135.1)" />
<use xlink:href="#f2_1j" transform="matrix(12,0,0,12,82.9,1135.1)" />
<use xlink:href="#f2_24" transform="matrix(12,0,0,12,93.2,1135.1)" />
<use xlink:href="#f2_2b" transform="matrix(12,0,0,12,102,1135.1)" />
<use xlink:href="#f2_2j" transform="matrix(12,0,0,12,111.5,1135.1)" />
<use xlink:href="#f2_2g" transform="matrix(12,0,0,12,128.7,1135.1)" />
<use xlink:href="#f2_24" transform="matrix(12,0,0,12,134.2,1135.1)" />
<use xlink:href="#f2_1x" transform="matrix(12,0,0,12,143,1135.1)" />
<use xlink:href="#f2_2g" transform="matrix(12,0,0,12,151,1135.1)" />
<use xlink:href="#f2_2g" transform="matrix(12,0,0,12,160.9,1135.1)" />
<use xlink:href="#f2_24" transform="matrix(12,0,0,12,166.4,1135.1)" />
<use xlink:href="#f2_21" transform="matrix(12,0,0,12,175.2,1135.1)" />
<use xlink:href="#f2_2c" transform="matrix(12,0,0,12,188,1135.1)" />
<use xlink:href="#f2_2b" transform="matrix(12,0,0,12,196.8,1135.1)" />
<use xlink:href="#f2_25" transform="matrix(12,0,0,12,206.3,1135.1)" />
<use xlink:href="#f2_2a" transform="matrix(12,0,0,12,211.1,1135.1)" />
<use xlink:href="#f2_2g" transform="matrix(12,0,0,12,219.9,1135.1)" />
<use xlink:href="#f2_2f" transform="matrix(12,0,0,12,225.4,1135.1)" />
<use xlink:href="#f2_11" transform="matrix(12,0,0,12,237.1,1135.1)" />
<use xlink:href="#f2_g" transform="matrix(12,0,0,12,249.9,1135.1)" />
<use xlink:href="#f2_12" transform="matrix(12,0,0,12,259.4,1135.1)" />
<use xlink:href="#f2_g" transform="matrix(12,0,0,12,271.5,1135.1)" />
<use xlink:href="#f2_13" transform="matrix(12,0,0,12,281,1135.1)" />
<use xlink:href="#f2_2j" transform="matrix(12,0,0,12,297.9,1135.1)" />
<use xlink:href="#f2_25" transform="matrix(12,0,0,12,311.1,1135.1)" />
<use xlink:href="#f2_2g" transform="matrix(12,0,0,12,315.5,1135.1)" />
<use xlink:href="#f2_24" transform="matrix(12,0,0,12,321,1135.1)" />
<use xlink:href="#f2_2c" transform="matrix(12,0,0,12,334.5,1135.1)" />
<use xlink:href="#f2_2b" transform="matrix(12,0,0,12,343.7,1135.1)" />
<use xlink:href="#f2_2f" transform="matrix(12,0,0,12,353.2,1135.1)" />
<use xlink:href="#f2_25" transform="matrix(12,0,0,12,360.5,1135.1)" />
<use xlink:href="#f2_2g" transform="matrix(12,0,0,12,364.9,1135.1)" />
<use xlink:href="#f2_25" transform="matrix(12,0,0,12,370.8,1135.1)" />
<use xlink:href="#f2_2b" transform="matrix(12,0,0,12,375.2,1135.1)" />
<use xlink:href="#f2_2a" transform="matrix(12,0,0,12,384.7,1135.1)" />
<use xlink:href="#f2_2i" transform="matrix(12,0,0,12,398.2,1135.1)" />
<use xlink:href="#f2_21" transform="matrix(12,0,0,12,407.4,1135.1)" />
<use xlink:href="#f2_1z" transform="matrix(12,0,0,12,415.5,1135.1)" />
<use xlink:href="#f2_2g" transform="matrix(12,0,0,12,423.5,1135.1)" />
<use xlink:href="#f2_2b" transform="matrix(12,0,0,12,429,1135.1)" />
<use xlink:href="#f2_2e" transform="matrix(12,0,0,12,438.5,1135.1)" />
<use xlink:href="#f2_2f" transform="matrix(12,0,0,12,444.7,1135.1)" />
</g>
<g clip-path="url(#c7_36)">
<g fill="#000000" >
<use xlink:href="#f6_5z" transform="matrix(12.8,0,0,12.1,523.4,1129.9)" />
<use xlink:href="#f6_5z" transform="matrix(12.8,0,0,12.1,609.7,1129.9)" />
<use xlink:href="#f6_5z" transform="matrix(12.8,0,0,12.1,469.6,1131.4)" />
<use xlink:href="#f6_5z" transform="matrix(12.8,0,0,12.1,496.1,1131.4)" />
<use xlink:href="#f6_5z" transform="matrix(12.8,0,0,12.1,539.2,1131.4)" />
<use xlink:href="#f6_5z" transform="matrix(12.8,0,0,12.1,573.9,1131.4)" />
<use xlink:href="#f2_m" transform="matrix(12.8,0,0,12.1,459.5,1135.4)" />
<use xlink:href="#f2_g" transform="matrix(12.8,0,0,12.1,529.7,1135.4)" />
<use xlink:href="#f2_n" transform="matrix(12.8,0,0,12.1,562.2,1135.4)" />
<use xlink:href="#f2_p" transform="matrix(12.8,0,0,12.1,597.2,1135.4)" />
<use xlink:href="#f3_25" transform="matrix(12.8,0,0,12.1,468.4,1135.4)" />
<use xlink:href="#f3_26" transform="matrix(12.8,0,0,12.1,496.6,1135.4)" />
<use xlink:href="#f3_27" transform="matrix(12.8,0,0,12.1,520.2,1135.4)" />
<use xlink:href="#f3_25" transform="matrix(12.8,0,0,12.1,537.9,1135.4)" />
<use xlink:href="#f3_26" transform="matrix(12.8,0,0,12.1,574.5,1135.4)" />
<use xlink:href="#f3_27" transform="matrix(12.8,0,0,12.1,606.3,1135.4)" />
<use xlink:href="#f4_h" transform="matrix(12.8,0,0,12.1,479.4,1135.4)" />
<use xlink:href="#f4_f" transform="matrix(12.8,0,0,12.1,506.1,1135.4)" />
<use xlink:href="#f4_h" transform="matrix(12.8,0,0,12.1,549,1135.4)" />
<use xlink:href="#f4_h" transform="matrix(12.8,0,0,12.1,584,1135.4)" />
</g>
</g>
<g fill="#000000" >
<use xlink:href="#f2_1x" transform="matrix(12,0,0,12,623.2,1135.1)" />
<use xlink:href="#f2_2a" transform="matrix(12,0,0,12,631.2,1135.1)" />
<use xlink:href="#f2_20" transform="matrix(12,0,0,12,640,1135.1)" />
</g>
<g clip-path="url(#c8_36)">
<g fill="#000000" >
<use xlink:href="#f6_5z" transform="matrix(12.7,0,0,12.1,738.2,1130)" />
<use xlink:href="#f6_5z" transform="matrix(12.7,0,0,12.1,665.8,1131.4)" />
<use xlink:href="#f6_5z" transform="matrix(12.7,0,0,12.1,701.7,1131.4)" />
<use xlink:href="#f2_n" transform="matrix(12.7,0,0,12.1,656.1,1135.4)" />
<use xlink:href="#f2_o" transform="matrix(12.7,0,0,12.1,689.3,1135.4)" />
<use xlink:href="#f2_o" transform="matrix(12.7,0,0,12.1,725.5,1135.4)" />
<use xlink:href="#f3_25" transform="matrix(12.7,0,0,12.1,664.5,1135.4)" />
<use xlink:href="#f3_26" transform="matrix(12.7,0,0,12.1,702.2,1135.4)" />
<use xlink:href="#f3_27" transform="matrix(12.7,0,0,12.1,734.9,1135.4)" />
<use xlink:href="#f4_h" transform="matrix(12.7,0,0,12.1,675.5,1135.4)" />
<use xlink:href="#f4_h" transform="matrix(12.7,0,0,12.1,711.7,1135.4)" />
</g>
</g>
<g fill="#000000" >
<use xlink:href="#f2_2e" transform="matrix(12,0,0,12,751.6,1135.1)" />
<use xlink:href="#f2_21" transform="matrix(12,0,0,12,757.8,1135.1)" />
<use xlink:href="#f2_2f" transform="matrix(12,0,0,12,765.9,1135.1)" />
<use xlink:href="#f2_2c" transform="matrix(12,0,0,12,772.8,1135.1)" />
<use xlink:href="#f2_21" transform="matrix(12,0,0,12,782,1135.1)" />
<use xlink:href="#f2_1z" transform="matrix(12,0,0,12,790.1,1135.1)" />
<use xlink:href="#f2_2g" transform="matrix(12,0,0,12,798.1,1135.1)" />
<use xlink:href="#f2_25" transform="matrix(12,0,0,12,803.6,1135.1)" />
<use xlink:href="#f2_2i" transform="matrix(12,0,0,12,808.4,1135.1)" />
<use xlink:href="#f2_21" transform="matrix(12,0,0,12,817.2,1135.1)" />
<use xlink:href="#f2_28" transform="matrix(12,0,0,12,825.6,1135.1)" />
<use xlink:href="#f2_2l" transform="matrix(12,0,0,12,830.7,1135.1)" />
<use xlink:href="#f2_g" transform="matrix(12,0,0,12,839.2,1135.1)" />
<use xlink:href="#f2_1x" transform="matrix(12,0,0,12,55,1163.4)" />
<use xlink:href="#f2_2e" transform="matrix(12,0,0,12,63.1,1163.4)" />
<use xlink:href="#f2_21" transform="matrix(12,0,0,12,69.3,1163.4)" />
<use xlink:href="#f2_2g" transform="matrix(12,0,0,12,81.8,1163.4)" />
<use xlink:href="#f2_24" transform="matrix(12,0,0,12,87.3,1163.4)" />
<use xlink:href="#f2_21" transform="matrix(12,0,0,12,96.1,1163.4)" />
<use xlink:href="#f2_2i" transform="matrix(12,0,0,12,108.9,1163.4)" />
<use xlink:href="#f2_21" transform="matrix(12,0,0,12,117.7,1163.4)" />
<use xlink:href="#f2_2e" transform="matrix(12,0,0,12,125.7,1163.4)" />
<use xlink:href="#f2_2g" transform="matrix(12,0,0,12,132,1163.4)" />
<use xlink:href="#f2_25" transform="matrix(12,0,0,12,137.8,1163.4)" />
<use xlink:href="#f2_1z" transform="matrix(12,0,0,12,142.2,1163.4)" />
<use xlink:href="#f2_21" transform="matrix(12,0,0,12,150.3,1163.4)" />
<use xlink:href="#f2_2f" transform="matrix(12,0,0,12,158.7,1163.4)" />
<use xlink:href="#f2_2b" transform="matrix(12,0,0,12,170.4,1163.4)" />
<use xlink:href="#f2_22" transform="matrix(12,0,0,12,179.9,1163.4)" />
<use xlink:href="#f2_1x" transform="matrix(12,0,0,12,190.2,1163.4)" />
<use xlink:href="#f2_2e" transform="matrix(12,0,0,12,203,1163.4)" />
<use xlink:href="#f2_25" transform="matrix(12,0,0,12,209.2,1163.4)" />
<use xlink:href="#f2_23" transform="matrix(12,0,0,12,213.6,1163.4)" />
<use xlink:href="#f2_24" transform="matrix(12,0,0,12,223.1,1163.4)" />
<use xlink:href="#f2_2g" transform="matrix(12,0,0,12,231.9,1163.4)" />
<use xlink:href="#f2_h" transform="matrix(12,0,0,12,237.7,1163.4)" />
<use xlink:href="#f2_1x" transform="matrix(12,0,0,12,243.9,1163.4)" />
<use xlink:href="#f2_2a" transform="matrix(12,0,0,12,252,1163.4)" />
<use xlink:href="#f2_23" transform="matrix(12,0,0,12,260.8,1163.4)" />
<use xlink:href="#f2_28" transform="matrix(12,0,0,12,270.3,1163.4)" />
<use xlink:href="#f2_21" transform="matrix(12,0,0,12,275.1,1163.4)" />
<use xlink:href="#f2_20" transform="matrix(12,0,0,12,283.2,1163.4)" />
<use xlink:href="#f2_2g" transform="matrix(12,0,0,12,297.1,1163.4)" />
<use xlink:href="#f2_2e" transform="matrix(12,0,0,12,302.6,1163.4)" />
<use xlink:href="#f2_25" transform="matrix(12,0,0,12,308.8,1163.4)" />
<use xlink:href="#f2_1x" transform="matrix(12,0,0,12,313.2,1163.4)" />
<use xlink:href="#f2_2a" transform="matrix(12,0,0,12,321.6,1163.4)" />
<use xlink:href="#f2_23" transform="matrix(12,0,0,12,330.4,1163.4)" />
<use xlink:href="#f2_28" transform="matrix(12,0,0,12,339.9,1163.4)" />
<use xlink:href="#f2_21" transform="matrix(12,0,0,12,344.7,1163.4)" />
<use xlink:href="#f2_g" transform="matrix(12,0,0,12,352.7,1163.4)" />
<use xlink:href="#f2_18" transform="matrix(12,0,0,12,362.2,1163.4)" />
<use xlink:href="#f2_21" transform="matrix(12,0,0,12,375.5,1163.4)" />
<use xlink:href="#f2_2a" transform="matrix(12,0,0,12,383.8,1163.4)" />
<use xlink:href="#f2_1z" transform="matrix(12,0,0,12,392.6,1163.4)" />
<use xlink:href="#f2_21" transform="matrix(12,0,0,12,400.7,1163.4)" />
<use xlink:href="#f2_22" transform="matrix(12,0,0,12,413.9,1163.4)" />
<use xlink:href="#f2_25" transform="matrix(12,0,0,12,419.8,1163.4)" />
<use xlink:href="#f2_2a" transform="matrix(12,0,0,12,424.9,1163.4)" />
<use xlink:href="#f2_20" transform="matrix(12,0,0,12,433.7,1163.4)" />
<use xlink:href="#f2_2g" transform="matrix(12,0,0,12,447.6,1163.4)" />
<use xlink:href="#f2_24" transform="matrix(12,0,0,12,453.1,1163.4)" />
<use xlink:href="#f2_21" transform="matrix(12,0,0,12,461.9,1163.4)" />
<use xlink:href="#f2_1x" transform="matrix(12,0,0,12,474.7,1163.4)" />
<use xlink:href="#f2_2e" transform="matrix(12,0,0,12,482.8,1163.4)" />
<use xlink:href="#f2_21" transform="matrix(12,0,0,12,489,1163.4)" />
<use xlink:href="#f2_1x" transform="matrix(12,0,0,12,497.1,1163.4)" />
<use xlink:href="#f2_2b" transform="matrix(12,0,0,12,509.9,1163.4)" />
<use xlink:href="#f2_22" transform="matrix(12,0,0,12,519.4,1163.4)" />
<use xlink:href="#f2_2g" transform="matrix(12,0,0,12,529.6,1163.4)" />
<use xlink:href="#f2_24" transform="matrix(12,0,0,12,535.1,1163.4)" />
<use xlink:href="#f2_21" transform="matrix(12,0,0,12,543.9,1163.4)" />
<use xlink:href="#f2_2g" transform="matrix(12,0,0,12,556.4,1163.4)" />
<use xlink:href="#f2_2e" transform="matrix(12,0,0,12,561.9,1163.4)" />
<use xlink:href="#f2_25" transform="matrix(12,0,0,12,568.1,1163.4)" />
<use xlink:href="#f2_1x" transform="matrix(12,0,0,12,572.5,1163.4)" />
<use xlink:href="#f2_2a" transform="matrix(12,0,0,12,580.9,1163.4)" />
<use xlink:href="#f2_23" transform="matrix(12,0,0,12,589.7,1163.4)" />
<use xlink:href="#f2_28" transform="matrix(12,0,0,12,599.2,1163.4)" />
<use xlink:href="#f2_21" transform="matrix(12,0,0,12,604,1163.4)" />
<use xlink:href="#f2_i" transform="matrix(12,0,0,12,612,1163.4)" />
</g>
<path fill-rule="evenodd" d="M37.4,38.1h.7v-.7h-.7v.7Z" class="g6_36" />
<path fill-rule="evenodd" d="M37.4,38.1h.7v-.7h-.7v.7Z" class="g6_36" />
<path fill-rule="evenodd" d="M38.1,38.1H871.5v-.7H38.1v.7Z" class="g6_36" />
<path fill-rule="evenodd" d="M871.5,38.1h.8v-.7h-.8v.7Z" class="g6_36" />
<path fill-rule="evenodd" d="M871.5,38.1h.8v-.7h-.8v.7Z" class="g6_36" />
<path fill-rule="evenodd" d="M37.4,1248.5h.7V38.1h-.7V1248.5Z" class="g6_36" />
<path fill-rule="evenodd" d="M872.3,1248.5h.7V38.1h-.7V1248.5Z" class="g6_36" />
<path fill-rule="evenodd" d="M871.5,1248.5h.8V38.1h-.8V1248.5Z" class="g6_36" />
<path fill-rule="evenodd" d="M37.4,1249.2h.7v-.7h-.7v.7Z" class="g6_36" />
<path fill-rule="evenodd" d="M37.4,1249.2h.7v-.7h-.7v.7Z" class="g6_36" />
<path fill-rule="evenodd" d="M38.1,1249.9H871.5v-.7H38.1v.7Z" class="g6_36" />
<path fill-rule="evenodd" d="M38.1,1249.2H871.5v-.7H38.1v.7Z" class="g6_36" />
<path fill-rule="evenodd" d="M872.3,1249.9h.7v-1.4h-.7v1.4Z" class="g6_36" />
<path fill-rule="evenodd" d="M871.5,1249.9H873v-.7h-1.5v.7Z" class="g6_36" />
<path fill-rule="evenodd" d="M871.5,1249.2h.8v-.7h-.8v.7Z" class="g6_36" />
<path fill-rule="evenodd" d="M871.5,1249.2h.8v-.7h-.8v.7Z" class="g6_36" />
<defs>
<path d="M489,-15c0,0,-99,0,-179,30c0,0,-80,30,-136,91c0,0,-56,61,-85,152c0,0,-30,91,-30,212c0,0,0,123,32,218c0,0,33,96,92,161c0,0,59,65,142,98c0,0,82,34,181,34c0,0,40,0,78,-7c0,0,37,-7,69,-18c0,0,31,-11,57,-25c0,0,25,-14,35,-24c0,0,10,-10,14,-17c0,0,4,-7,6,-17c0,0,2,-11,3,-25c0,0,2,-14,2,-35c0,0,0,-22,-2,-38c0,0,-1,-15,-5,-25c0,0,-4,-10,-9,-14c0,0,-5,-5,-12,-5c0,0,-11,0,-28,13c0,0,-18,13,-45,29c0,0,-27,16,-65,29c0,0,-37,13,-89,13c0,0,-58,0,-103,-23c0,0,-45,-23,-77,-67c0,0,-31,-44,-48,-106c0,0,-16,-61,-16,-139c0,0,0,-85,17,-147c0,0,18,-62,50,-103c0,0,33,-40,79,-60c0,0,45,-19,103,-19c0,0,52,0,90,12c0,0,38,12,65,27c0,0,27,15,45,27c0,0,17,12,27,12c0,0,8,0,12,-3c0,0,4,-3,7,-12c0,0,3,-9,5,-25c0,0,1,-16,1,-43c0,0,0,-18,-1,-31c0,0,-1,-14,-3,-23c0,0,-2,-9,-6,-16c0,0,-4,-7,-12,-15c0,0,-8,-9,-32,-22c0,0,-23,-14,-57,-26C661,13,627,1,583,-6c0,0,-43,-9,-94,-9Z" 
id="f0_j"
transform="scale(0.001,-0.001)" />

<path d="M440,150c0,0,41,0,68,8c0,0,28,9,49,26c0,0,20,16,32,41c0,0,11,25,11,58c0,0,0,33,-11,60c0,0,-11,26,-33,44c0,0,-21,18,-55,28c0,0,-33,9,-87,9H298V150ZM407,567c0,0,42,0,68,10c0,0,25,10,42,28c0,0,16,17,24,41c0,0,9,24,9,50c0,0,0,29,-9,52c0,0,-9,23,-27,39c0,0,-18,15,-45,23c0,0,-27,8,-72,8H298V567ZM164,0c0,0,-25,0,-42,15c0,0,-16,14,-16,47V903c0,0,0,33,16,48c0,0,17,14,42,14H406c0,0,88,0,150,-15c0,0,61,-15,103,-45c0,0,42,-30,65,-77c0,0,22,-46,22,-108c0,0,0,-36,-9,-67c0,0,-9,-31,-26,-56c0,0,-17,-25,-42,-45c0,0,-25,-19,-57,-31c0,0,41,-7,76,-26c0,0,34,-19,60,-48c0,0,26,-30,41,-69c0,0,15,-40,15,-89c0,0,0,-51,-14,-93c0,0,-15,-42,-40,-74c0,0,-25,-32,-59,-55c0,0,-35,-23,-77,-38C614,29,573,14,525,7C525,7,478,0,420,0Z" 
id="f0_i"
transform="scale(0.001,-0.001)" />

<path d="M320,-17c0,0,-50,0,-93,9c0,0,-43,8,-76,19c0,0,-32,11,-54,24C97,35,75,48,65,58c0,0,-10,9,-14,28c0,0,-4,18,-4,52c0,0,0,23,1,39c0,0,2,15,5,25c0,0,4,10,9,14c0,0,6,4,13,4c0,0,11,0,30,-12c0,0,19,-13,49,-28c0,0,30,-15,71,-27c0,0,42,-12,96,-12c0,0,36,0,64,8c0,0,29,9,49,25c0,0,19,15,30,38c0,0,10,23,10,52c0,0,0,33,-18,56c0,0,-18,24,-46,42c0,0,-29,18,-66,34c0,0,-36,16,-75,34c0,0,-39,18,-76,41c0,0,-36,23,-65,54c0,0,-29,32,-47,75c0,0,-17,44,-17,104c0,0,0,70,25,122c0,0,26,53,70,88c0,0,43,34,103,51c0,0,59,18,125,18c0,0,35,0,69,-6c0,0,34,-5,64,-14c0,0,30,-9,53,-20c0,0,23,-11,31,-18c0,0,7,-8,10,-13c0,0,3,-5,4,-14c0,0,2,-8,3,-21c0,0,1,-13,1,-33c0,0,0,-21,-1,-36c0,0,-1,-15,-4,-25c0,0,-3,-9,-7,-14c0,0,-5,-4,-14,-4c0,0,-8,0,-26,10c0,0,-18,10,-44,23c0,0,-26,12,-60,22c0,0,-34,10,-75,10c0,0,-32,0,-56,-8c0,0,-24,-8,-40,-21c0,0,-16,-14,-24,-34c0,0,-8,-19,-8,-41c0,0,0,-32,18,-56c0,0,17,-23,46,-42c0,0,30,-18,67,-34c0,0,38,-16,76,-34c0,0,39,-18,76,-41c0,0,38,-22,67,-54c0,0,29,-32,47,-75c0,0,18,-43,18,-101c0,0,0,-76,-29,-133c0,0,-28,-58,-77,-96C572,60,524,21,459,2c0,0,-65,-19,-139,-19Z" 
id="f0_2n"
transform="scale(0.001,-0.001)" />

<path d="M164,0c0,0,-25,0,-42,15c0,0,-16,14,-16,47V903c0,0,0,33,16,48c0,0,17,14,42,14H645c0,0,7,0,12,-4c0,0,5,-3,9,-13c0,0,4,-9,6,-24c0,0,2,-14,2,-36c0,0,0,-21,-2,-36c0,0,-2,-14,-6,-23c0,0,-4,-9,-9,-13c0,0,-5,-4,-12,-4H301V576H593c0,0,6,0,12,-4c0,0,6,-4,9,-13c0,0,4,-8,6,-23c0,0,2,-14,2,-35c0,0,0,-22,-2,-36c0,0,-2,-14,-6,-23c0,0,-3,-8,-9,-12c0,0,-6,-4,-12,-4H301V154H649c0,0,6,0,12,-5c0,0,5,-4,9,-13c0,0,4,-9,6,-23c0,0,2,-15,2,-36c0,0,0,-22,-2,-36c0,0,-2,-15,-6,-24c0,0,-4,-9,-9,-13c0,0,-6,-4,-12,-4Z" 
id="f0_t"
transform="scale(0.001,-0.001)" />

<path d="M79,297c0,0,-19,0,-27,18c0,0,-8,17,-8,60c0,0,0,41,8,59c0,0,8,17,27,17H389c0,0,9,0,15,-4c0,0,7,-4,11,-13c0,0,5,-9,7,-23c0,0,1,-15,1,-36c0,0,0,-43,-8,-61c0,0,-8,-17,-26,-17Z" 
id="f0_oj"
transform="scale(0.001,-0.001)" />

<path d="M121,-4c0,0,-39,0,-60,2C61,-2,39,0,32,8c0,0,-8,8,-3,24c0,0,4,15,18,41L279,495L64,892c0,0,-14,26,-19,42c0,0,-5,17,4,24c0,0,9,8,32,10c0,0,23,2,65,2c0,0,35,0,56,-2c0,0,20,-1,32,-4c0,0,12,-4,17,-10c0,0,5,-6,9,-15L431,620L595,939c0,0,5,9,10,15c0,0,5,6,16,10c0,0,10,3,29,4c0,0,19,2,53,2c0,0,37,0,59,-2c0,0,22,-2,30,-10c0,0,8,-8,4,-24c0,0,-4,-16,-17,-42L564,497L793,73c0,0,14,-26,18,-41c0,0,4,-16,-5,-24c0,0,-9,-8,-32,-10c0,0,-24,-2,-65,-2c0,0,-36,0,-56,2c0,0,-20,1,-31,3c0,0,-12,4,-17,10c0,0,-5,6,-9,15L414,374L233,26c0,0,-4,-9,-9,-15c0,0,-6,-6,-17,-10c0,0,-12,-2,-32,-3c0,0,-21,-2,-54,-2Z" 
id="f0_3e"
transform="scale(0.001,-0.001)" />

<path d="M204,-4c0,0,-28,0,-47,2c0,0,-19,2,-31,5c0,0,-11,4,-16,10c0,0,-4,6,-4,13V939c0,0,0,7,4,13c0,0,5,6,17,10c0,0,11,3,30,6c0,0,19,2,47,2c0,0,29,0,48,-2c0,0,18,-3,29,-6c0,0,11,-4,16,-10c0,0,5,-6,5,-13V26c0,0,0,-7,-5,-13c0,0,-5,-6,-16,-10c0,0,-11,-3,-29,-5c0,0,-19,-2,-48,-2Z" 
id="f0_1c"
transform="scale(0.001,-0.001)" />

<path d="M127,0c0,0,-16,0,-28,3C99,3,87,6,80,15c0,0,-8,8,-11,25c0,0,-3,16,-3,42c0,0,0,25,2,42c0,0,2,18,8,32c0,0,6,14,15,27c0,0,9,13,24,29L282,390c0,0,50,53,81,95c0,0,30,43,47,79c0,0,17,35,24,65c0,0,6,30,6,57c0,0,0,24,-8,46c0,0,-8,22,-23,39c0,0,-15,16,-38,25c0,0,-23,10,-55,10c0,0,-44,0,-78,-12c0,0,-33,-11,-59,-25c0,0,-26,-13,-43,-25c0,0,-17,-12,-27,-12c0,0,-7,0,-11,5c0,0,-5,4,-8,15c0,0,-3,10,-5,28c0,0,-2,17,-2,42c0,0,0,18,1,29c0,0,1,12,4,20c0,0,2,9,6,15c0,0,3,6,13,15c0,0,9,9,34,23c0,0,25,14,61,27c0,0,37,14,81,23c0,0,44,9,92,9c0,0,75,0,131,-19c0,0,57,-19,94,-53c0,0,37,-34,55,-81c0,0,19,-47,19,-100c0,0,0,-47,-9,-93c0,0,-9,-45,-37,-98c0,0,-29,-52,-80,-116c0,0,-52,-64,-136,-148L299,159H679c0,0,8,0,14,-4c0,0,6,-5,11,-14c0,0,4,-9,7,-25c0,0,2,-15,2,-36c0,0,0,-22,-2,-37c0,0,-2,-15,-6,-25c0,0,-3,-10,-9,-14c0,0,-6,-4,-14,-4Z" 
id="f0_rz"
transform="scale(0.001,-0.001)" />

<path d="M385,138c0,0,29,0,52,9c0,0,22,10,39,28c0,0,17,19,28,47c0,0,11,29,19,66c0,0,7,37,9,84c0,0,3,47,3,104c0,0,0,69,-4,122c0,0,-4,52,-11,91c0,0,-8,39,-20,66c0,0,-12,27,-28,43c0,0,-16,16,-37,22c0,0,-21,7,-47,7c0,0,-44,0,-73,-21c0,0,-28,-21,-45,-64c0,0,-17,-42,-24,-106c0,0,-6,-63,-6,-148c0,0,0,-103,8,-171c0,0,8,-67,26,-107c0,0,17,-40,45,-56c0,0,27,-16,66,-16ZM378,-17c0,0,-99,0,-164,33c0,0,-65,34,-103,98c0,0,-38,64,-54,156c0,0,-15,92,-15,209c0,0,0,115,19,208c0,0,19,94,61,160c0,0,42,65,110,101c0,0,68,35,165,35c0,0,99,0,164,-34c0,0,65,-34,103,-98c0,0,39,-64,53,-156c0,0,15,-92,15,-209c0,0,0,-115,-18,-209c0,0,-19,-93,-61,-159C653,118,611,53,543,17c0,0,-67,-34,-165,-34Z" 
id="f0_rx"
transform="scale(0.001,-0.001)" />

<path d="M142,0c0,0,-6,0,-12,4c0,0,-5,3,-9,12c0,0,-4,9,-6,23c0,0,-3,15,-3,36c0,0,0,21,2,36c0,0,2,14,6,23c0,0,4,9,10,13c0,0,5,5,12,5H322V779L166,693c0,0,-17,-8,-28,-10c0,0,-1,0,-3,0c-4,0,-10,1,-14,5c0,0,-6,6,-8,22c0,0,-2,15,-2,44c0,0,0,18,0,29c0,0,1,12,4,20c0,0,3,8,8,14c0,0,5,5,14,11L345,962c0,0,4,3,9,5c0,0,6,2,15,3c0,0,9,1,23,2c0,0,15,0,38,0c0,0,28,0,46,-1c0,0,17,-1,26,-4c0,0,9,-3,12,-7c0,0,3,-4,3,-11V152H675c0,0,7,0,12,-5c0,0,6,-4,10,-13c0,0,4,-9,6,-23c0,0,2,-15,2,-36c0,0,0,-21,-2,-36c0,0,-3,-14,-7,-23c0,0,-4,-9,-9,-12c0,0,-5,-4,-12,-4Z" 
id="f0_ry"
transform="scale(0.001,-0.001)" />

<path d="M259,-4c0,0,-39,0,-62,3c0,0,-23,1,-34,7c0,0,-11,6,-12,14c0,0,-1,9,5,21L498,796H92c0,0,-16,0,-24,20c0,0,-7,21,-7,65c0,0,0,22,2,38c0,0,2,16,6,27c0,0,4,10,10,15c0,0,6,4,13,4H666c0,0,13,0,22,-3c0,0,9,-2,14,-11c0,0,6,-9,8,-25c0,0,3,-17,3,-43c0,0,0,-22,-2,-38c0,0,-1,-16,-4,-30c0,0,-2,-13,-7,-26c0,0,-4,-12,-10,-26L372,26c0,0,-5,-10,-12,-16c0,0,-7,-6,-20,-9c0,0,-12,-3,-32,-4c0,0,-20,-1,-49,-1Z" 
id="f0_s4"
transform="scale(0.001,-0.001)" />

<path d="M589,371L453,782h-1L317,371ZM106,-4c0,0,-35,0,-54,2C52,-2,32,0,25,8c0,0,-7,9,-5,24c0,0,2,16,11,42L329,931c0,0,4,13,10,21c0,0,6,7,19,12c0,0,13,4,36,5c0,0,23,1,61,1c0,0,44,0,71,-1c0,0,26,-1,40,-5c0,0,15,-5,21,-13c0,0,6,-8,11,-22L896,73c0,0,9,-27,11,-43c0,0,3,-15,-6,-23c0,0,-8,-7,-29,-9c0,0,-21,-2,-57,-2c0,0,-38,0,-59,1c0,0,-22,1,-33,4c0,0,-11,3,-16,9c0,0,-4,6,-7,16L635,220H272L211,31c0,0,-2,-11,-7,-18c0,0,-5,-7,-16,-11c0,0,-11,-3,-31,-4c0,0,-19,-2,-51,-2Z" 
id="f0_5"
transform="scale(0.001,-0.001)" />

<path d="M198,-4c0,0,-27,0,-45,2c0,0,-18,2,-28,5c0,0,-11,4,-15,10c0,0,-4,6,-4,13V887c0,0,0,38,20,58c0,0,20,20,53,20H308c0,0,34,0,59,-6c0,0,24,-5,42,-18c0,0,18,-13,30,-35c0,0,12,-21,21,-52L669,279h3L889,852c0,0,9,32,21,53c0,0,11,22,27,35c0,0,15,14,36,19c0,0,21,6,48,6h132c0,0,21,0,35,-5c0,0,15,-5,24,-15c0,0,9,-11,14,-25c0,0,5,-15,5,-33V26c0,0,0,-7,-4,-13c0,0,-4,-6,-15,-10c0,0,-11,-3,-29,-5c0,0,-18,-2,-45,-2c0,0,-27,0,-45,2c0,0,-18,2,-28,5c0,0,-11,4,-15,10c0,0,-5,6,-5,13V813h-1L764,27c0,0,-3,-10,-10,-16c0,0,-6,-6,-18,-10c0,0,-12,-3,-29,-4c0,0,-18,-1,-44,-1c0,0,-25,0,-43,2c0,0,-18,2,-29,5c0,0,-12,4,-19,10c0,0,-6,6,-9,14L293,813h-2V26c0,0,0,-7,-4,-13c0,0,-4,-6,-15,-10c0,0,-11,-3,-29,-5c0,0,-17,-2,-45,-2Z" 
id="f0_1x"
transform="scale(0.001,-0.001)" />

<path d="M193,-4c0,0,-26,0,-43,2c0,0,-18,2,-27,6c0,0,-10,4,-14,10c0,0,-3,6,-3,13V895c0,0,0,35,20,53c0,0,21,17,50,17H282c0,0,28,0,47,-5c0,0,20,-5,35,-16c0,0,15,-11,29,-31c0,0,13,-20,27,-49L608,511c0,0,17,-32,33,-63c0,0,16,-31,31,-62c0,0,14,-31,29,-60c0,0,14,-30,27,-60h1c0,0,-2,52,-3,109c0,0,-1,57,-1,108V936c0,0,0,7,4,13c0,0,5,6,15,11c0,0,10,4,28,6c0,0,17,2,44,2c0,0,25,0,42,-2c0,0,17,-2,27,-6c0,0,9,-5,13,-11c0,0,4,-6,4,-13V68c0,0,0,-17,-6,-30c0,0,-6,-14,-17,-23C879,15,869,6,856,2c0,0,-14,-3,-28,-3H744c0,0,-26,0,-45,4c0,0,-19,5,-35,19c0,0,-16,14,-31,38c0,0,-15,23,-34,60L359,572c0,0,-21,40,-43,86c0,0,-21,47,-38,91h-2c0,0,3,-54,5,-107c0,0,2,-53,2,-110V27c0,0,0,-7,-5,-13c0,0,-4,-6,-14,-10c0,0,-10,-4,-27,-6c0,0,-17,-2,-44,-2Z" 
id="f0_1y"
transform="scale(0.001,-0.001)" />

<path d="M378,-4c0,0,-28,0,-47,2c0,0,-19,2,-31,5c0,0,-11,4,-16,10c0,0,-4,6,-4,13V805H38c0,0,-8,0,-13,4c0,0,-5,5,-9,14c0,0,-3,9,-5,25c0,0,-2,15,-2,37c0,0,0,22,2,38c0,0,2,15,5,25c0,0,4,9,9,13c0,0,5,4,13,4H718c0,0,7,0,12,-4c0,0,6,-4,10,-13c0,0,3,-10,5,-25c0,0,2,-16,2,-38c0,0,0,-22,-2,-37c0,0,-2,-16,-5,-25c0,0,-4,-9,-10,-14c0,0,-5,-4,-12,-4H476V26c0,0,0,-7,-5,-13c0,0,-5,-6,-16,-10c0,0,-11,-3,-30,-5c0,0,-19,-2,-47,-2Z" 
id="f0_2t"
transform="scale(0.001,-0.001)" />

<path d="M514,145c0,0,72,0,121,27c0,0,48,26,78,73c0,0,30,46,42,107c0,0,13,62,13,131c0,0,0,76,-12,139c0,0,-12,62,-41,106c0,0,-29,45,-76,69c0,0,-48,24,-120,24c0,0,-72,0,-120,-27c0,0,-49,-27,-79,-73c0,0,-29,-45,-42,-106c0,0,-12,-61,-12,-129c0,0,0,-79,12,-142c0,0,12,-63,40,-108c0,0,28,-44,76,-68c0,0,48,-23,120,-23ZM508,-17c0,0,-113,0,-196,29c0,0,-84,29,-140,90c0,0,-56,60,-84,154c0,0,-28,93,-28,221c0,0,0,117,29,210c0,0,30,94,89,160c0,0,59,65,146,101c0,0,87,35,202,35c0,0,110,0,194,-29c0,0,84,-30,140,-90c0,0,56,-60,85,-153c0,0,29,-92,29,-217c0,0,0,-120,-30,-215c0,0,-30,-95,-89,-161C855,118,796,52,709,17c0,0,-87,-34,-201,-34Z" 
id="f0_24"
transform="scale(0.001,-0.001)" />

<path d="M299,0V777H162l36,173H508V0Z" 
id="f1_l"
transform="scale(0.001,-0.001)" />

<path d="M44,-281L425,1053H537L156,-281Z" 
id="f1_j"
transform="scale(0.001,-0.001)" />

<path d="M75,0L400,413c0,0,71,91,101,149c0,0,30,58,30,109c0,0,0,55,-36,91c0,0,-36,36,-91,36c0,0,-63,0,-91,-45c0,0,-28,-46,-34,-142H67c0,0,0,173,102,268c0,0,102,95,253,95c0,0,140,0,229,-82c0,0,89,-82,89,-209c0,0,0,-125,-104,-276L580,324c0,0,-34,-50,-85,-114L468,178H740V0Z" 
id="f1_m"
transform="scale(0.001,-0.001)" />

<path d="M476,327V830h-4L114,327ZM476,0V220H30v99l488,686h86V327H740V220H604V0Z" 
id="f2_o"
transform="scale(0.001,-0.001)" />

<path d="M134,0V40L339,60V876L137,804v39l292,166h39V60L672,40V0Z" 
id="f2_l"
transform="scale(0.001,-0.001)" />

<path d="M67,0V109L206,235c0,0,133,118,196,190c0,0,63,72,90,149c0,0,27,77,27,177c0,0,0,97,-44,148c0,0,-44,50,-144,50c0,0,-39,0,-81,-10c0,0,-42,-11,-74,-29L150,787H101V980c0,0,135,32,230,32c0,0,164,0,247,-68c0,0,82,-69,82,-193c0,0,0,-84,-32,-158c0,0,-33,-75,-100,-148c0,0,-67,-74,-222,-206c0,0,-67,-57,-141,-125H680V0Z" 
id="f2_m"
transform="scale(0.001,-0.001)" />

<path d="M460,-325c0,0,-148,79,-231,172c0,0,-84,93,-123,217c0,0,-39,126,-39,304c0,0,0,178,39,303c0,0,39,125,122,217c0,0,82,93,232,172V997c0,0,-91,-52,-145,-134c0,0,-54,-81,-79,-190c0,0,-25,-109,-25,-305c0,0,0,-194,26,-309c0,0,26,-114,82,-193c0,0,56,-79,141,-128v-63Z" 
id="f2_c"
transform="scale(0.001,-0.001)" />

<path d="M49,-325v63c0,0,85,49,140,128c0,0,56,79,83,194c0,0,26,115,26,308c0,0,0,196,-25,305c0,0,-25,109,-79,190c0,0,-54,82,-145,134v63c0,0,149,-80,232,-172c0,0,83,-92,122,-217c0,0,39,-125,39,-303c0,0,0,-177,-39,-303c0,0,-39,-125,-122,-217c0,0,-83,-93,-232,-173Z" 
id="f2_d"
transform="scale(0.001,-0.001)" />

<path d="M350,-14c0,0,-142,0,-253,31L89,228h49L172,87c0,0,32,-18,78,-29c0,0,46,-11,88,-11c0,0,118,0,173,56c0,0,56,55,56,187c0,0,0,93,-24,140c0,0,-24,47,-76,70c0,0,-52,22,-140,22c0,0,-68,0,-133,-18H122v496H630V886H189V567c0,0,81,18,173,18c0,0,173,0,258,-71c0,0,84,-71,84,-216c0,0,0,-151,-92,-232c0,0,-91,-80,-262,-80Z" 
id="f2_p"
transform="scale(0.001,-0.001)" />

<path d="M-5,0L0,40L131,60L286,941L162,960l6,40H568l-6,-40L430,941L275,60L399,40L393,0Z" 
id="f3_19"
transform="scale(0.001,-0.001)" />

<path d="M17,-325L185,639H64l6,36l127,29l9,49c0,0,30,167,100,245c0,0,71,78,191,78c0,0,57,0,104,-15L574,915H538l-14,85c0,0,-22,16,-63,16c0,0,-45,0,-72,-39c0,0,-26,-39,-48,-160L319,701H475L465,639H309L141,-325Z" 
id="f3_22"
transform="scale(0.001,-0.001)" />

<path d="M-6,0c0,0,-12,10,-12,32c0,0,0,21,23,51c0,0,23,31,79,82L287,354L159,649L79,668l6,33H270L378,434l93,88c0,0,47,46,67,72c0,0,19,26,19,44c0,0,0,8,-6,13c0,0,-7,6,-38,17l6,33H651c0,0,16,-12,16,-32c0,0,0,-44,-103,-142L404,377L548,49L634,33L628,0H437L313,298L185,176c0,0,-41,-40,-60,-65c0,0,-19,-26,-19,-48c0,0,0,-21,31,-29L131,0Z" 
id="f3_2k"
transform="scale(0.001,-0.001)" />

<path d="M301,78c0,0,41,0,90,27c0,0,49,28,95,77l81,442c0,0,-26,18,-54,27c0,0,-27,10,-67,10c0,0,-70,0,-131,-55c0,0,-61,-55,-99,-152c0,0,-37,-97,-37,-201c0,0,0,-79,33,-127c0,0,33,-48,89,-48ZM245,-14c0,0,-91,0,-145,68c0,0,-54,69,-54,183c0,0,0,128,55,240c0,0,55,112,150,177c0,0,96,66,210,66c0,0,70,0,123,-18c0,0,3,36,51,306l-115,18l6,34H768L589,52L673,33L667,0H454l22,117C476,117,350,-14,245,-14Z" 
id="f3_20"
transform="scale(0.001,-0.001)" />

<path d="M83,0C83,0,48,0,24,24C24,24,0,49,0,83c0,0,0,34,24,58c0,0,24,24,59,24c0,0,34,0,58,-24c0,0,24,-24,24,-58c0,0,0,-34,-24,-59C141,24,117,0,83,0ZM695,0c0,0,-34,0,-58,24c0,0,-25,25,-25,59c0,0,0,34,25,58c0,0,24,24,58,24c0,0,34,0,58,-24c0,0,24,-24,24,-58c0,0,0,-34,-24,-59C753,24,729,0,695,0ZM388,594c0,0,-34,0,-59,23c0,0,-24,24,-24,59c0,0,0,34,24,58c0,0,25,25,59,25c0,0,34,0,58,-25c0,0,24,-24,24,-58c0,0,0,-35,-24,-59c0,0,-24,-23,-58,-23Z" 
id="f4_1s"
transform="scale(0.001,-0.001)" />

<path d="M0,214v74H784V214ZM0,494v72H784V494Z" 
id="f4_x"
transform="scale(0.001,-0.001)" />

<path d="M355,0V355H0v72H355V784h72V427H782V355H427V0Z" 
id="f4_f"
transform="scale(0.001,-0.001)" />

<path d="M0,356v74H784V356Z" 
id="f4_h"
transform="scale(0.001,-0.001)" />

<path d="M88,-163c0,0,-39,0,-63,25c0,0,-25,26,-25,65c0,0,0,34,19,54c0,0,19,19,48,19c0,0,30,0,51,-23c0,0,22,-24,37,-24c0,0,12,0,21,11c0,0,8,10,8,35c0,0,0,30,-7,88c0,0,-27,235,-27,620c0,0,13,411,17,446c0,0,17,139,60,188c0,0,43,48,98,48c0,0,37,0,65,-25c0,0,28,-25,28,-54c0,0,0,-35,-19,-57c0,0,-20,-21,-49,-21c0,0,-26,0,-57,27c0,0,-17,15,-30,15c0,0,-12,0,-21,-11c0,0,-8,-11,-8,-37c0,0,0,-31,6,-108c0,0,28,-306,28,-496c0,0,0,-50,-12,-439c0,0,-6,-219,-67,-296c0,0,-41,-50,-101,-50Z" 
id="f4_50"
transform="scale(0.001,-0.001)" />

<path d="M410,45c0,0,90,0,130,58c0,0,40,59,40,193c0,0,0,122,-38,177c0,0,-38,54,-122,54c0,0,-102,0,-217,-37c0,0,0,-227,51,-336c0,0,52,-109,156,-109Zm3,-59c0,0,-169,0,-258,131c0,0,-89,131,-89,377c0,0,0,161,47,278c0,0,47,117,131,178c0,0,85,61,196,61c0,0,109,0,217,-26V813H608L582,915c0,0,-25,13,-67,23c0,0,-41,10,-75,10c0,0,-109,0,-170,-105c0,0,-60,-106,-66,-308c0,0,121,63,244,63c0,0,132,0,201,-74c0,0,69,-74,69,-214c0,0,0,-156,-78,-240c0,0,-79,-84,-227,-84Z" 
id="f2_q"
transform="scale(0.001,-0.001)" />

<path d="M377,45c0,0,99,0,145,108c0,0,46,109,46,352c0,0,0,240,-45,345c0,0,-46,106,-146,106c0,0,-97,0,-139,-100c0,0,-43,-99,-43,-351c0,0,0,-254,44,-357c0,0,43,-103,138,-103Zm0,-59c0,0,-158,0,-238,132c0,0,-81,133,-81,386c0,0,0,249,81,380c0,0,80,132,244,132c0,0,159,0,241,-130c0,0,82,-130,82,-382c0,0,0,-518,-329,-518Z" 
id="f2_k"
transform="scale(0.001,-0.001)" />

<path d="M370,468c0,0,96,0,194,40c0,0,0,229,-45,336c0,0,-45,107,-146,107c0,0,-187,0,-187,-259c0,0,0,-115,45,-169c0,0,45,-55,139,-55ZM312,-14c0,0,-122,0,-223,25V184h48L163,76c0,0,24,-11,65,-20c0,0,40,-9,81,-9c0,0,119,0,183,105c0,0,65,104,71,307c0,0,-113,-62,-230,-62c0,0,-132,0,-208,79c0,0,-76,78,-76,219c0,0,0,151,85,233c0,0,84,83,237,83c0,0,171,0,251,-123c0,0,79,-123,79,-385c0,0,0,-252,-102,-385C599,118,497,-14,312,-14Z" 
id="f2_t"
transform="scale(0.001,-0.001)" />

<path d="M350,-14c0,0,-142,0,-269,31L73,228h49L156,87c0,0,29,-16,82,-28c0,0,54,-12,100,-12c0,0,117,0,173,54c0,0,56,53,56,178c0,0,0,99,-52,150c0,0,-51,51,-159,56l-107,6v61l107,7c0,0,84,5,124,52c0,0,41,48,41,145c0,0,0,101,-44,147c0,0,-44,45,-139,45c0,0,-40,0,-83,-10c0,0,-43,-11,-76,-29L153,786H104V979c0,0,74,19,127,26c0,0,54,6,107,6c0,0,321,0,321,-246c0,0,0,-104,-57,-165c0,0,-57,-62,-162,-77c0,0,136,-16,200,-78c0,0,64,-62,64,-173c0,0,0,-135,-92,-211c0,0,-93,-75,-262,-75Z" 
id="f2_n"
transform="scale(0.001,-0.001)" />

<path d="M377,45c0,0,100,0,147,52c0,0,47,52,47,174c0,0,0,119,-46,173c0,0,-47,54,-148,54c0,0,-98,0,-141,-51c0,0,-44,-51,-44,-176c0,0,0,-126,44,-176c0,0,44,-50,141,-50Zm2,518c0,0,84,0,123,46c0,0,39,46,39,148c0,0,0,102,-40,151c0,0,-41,48,-122,48c0,0,-79,0,-118,-47c0,0,-38,-47,-38,-152c0,0,0,-104,37,-149c0,0,38,-45,119,-45ZM377,-14c0,0,-319,0,-319,285c0,0,0,99,48,164c0,0,48,66,129,96c0,0,-65,30,-106,87c0,0,-40,56,-40,139c0,0,0,123,75,191c0,0,76,68,219,68c0,0,139,0,216,-67c0,0,76,-68,76,-192c0,0,0,-82,-40,-139c0,0,-40,-57,-108,-87c0,0,85,-31,132,-98c0,0,47,-67,47,-162c0,0,0,-142,-80,-214c0,0,-80,-71,-249,-71Z" 
id="f2_s"
transform="scale(0.001,-0.001)" />

<path d="M0,-123V1415H525v-72H72V-123Z" 
id="f4_4r"
transform="scale(0.001,-0.001)" />

<path d="M478,-123V1343H26v72H550V-123Z" 
id="f4_57"
transform="scale(0.001,-0.001)" />

<path d="M0,-123V1415H72V-123Z" 
id="f4_4s"
transform="scale(0.001,-0.001)" />

<path d="M0,-123V1415H72V-123Z" 
id="f4_58"
transform="scale(0.001,-0.001)" />

<path d="M0,-123V1415H72V-51H525v-72Z" 
id="f4_4t"
transform="scale(0.001,-0.001)" />

<path d="M26,-123v72H478V1415h72V-123Z" 
id="f4_59"
transform="scale(0.001,-0.001)" />

<path d="M62,-123V268c0,0,0,230,56,452c0,0,47,190,134,334c0,0,87,144,204,242c0,0,85,73,194,119l18,-16c0,0,-211,-145,-335,-339c0,0,-98,-156,-149,-374c0,0,-50,-218,-50,-403V-123Z" 
id="f4_4o"
transform="scale(0.001,-0.001)" />

<path d="M617,-123V283c0,0,0,236,-63,459c0,0,-63,223,-188,392c0,0,-108,146,-282,265l17,16c0,0,180,-76,320,-248c0,0,139,-172,204,-417c0,0,64,-245,64,-482V-123Z" 
id="f4_54"
transform="scale(0.001,-0.001)" />

<path d="M62,-123V1415h72V-123Z" 
id="f4_4p"
transform="scale(0.001,-0.001)" />

<path d="M617,-123V1415h72V-123Z" 
id="f4_55"
transform="scale(0.001,-0.001)" />

<path d="M650,-123c0,0,-180,75,-319,246c0,0,-140,172,-205,418c0,0,-64,245,-64,481v393h72V1007c0,0,0,-236,63,-459c0,0,63,-223,189,-391c0,0,108,-145,282,-265l-18,-15Z" 
id="f4_4q"
transform="scale(0.001,-0.001)" />

<path d="M101,-123l-17,15c0,0,210,144,334,339c0,0,99,156,149,373c0,0,50,218,50,403v408h72V1022c0,0,0,-230,-56,-451c0,0,-48,-191,-134,-335C499,236,412,92,295,-5c0,0,-84,-73,-194,-118Z" 
id="f4_56"
transform="scale(0.001,-0.001)" />

<path d="M122,0V64L295,82V837L123,780v64l282,165H511V82L685,64V0Z" 
id="f5_l"
transform="scale(0.001,-0.001)" />

<path d="M377,60c0,0,65,0,94,49c0,0,30,49,30,160c0,0,0,115,-30,168c0,0,-29,52,-94,52c0,0,-61,0,-88,-51c0,0,-26,-51,-26,-169c0,0,0,-115,27,-162c0,0,27,-47,87,-47Zm2,509c0,0,51,0,75,43c0,0,24,43,24,143c0,0,0,98,-24,142c0,0,-25,45,-75,45c0,0,-48,0,-71,-45c0,0,-22,-44,-22,-142c0,0,0,-102,22,-144c0,0,22,-42,71,-42ZM377,-14c0,0,-326,0,-326,284c0,0,0,95,46,162c0,0,46,68,128,98c0,0,-72,28,-112,85c0,0,-39,58,-39,141c0,0,0,123,81,191c0,0,81,69,228,69c0,0,145,0,226,-70c0,0,81,-70,81,-192c0,0,0,-82,-40,-140c0,0,-41,-58,-114,-84c0,0,86,-32,132,-99c0,0,45,-67,45,-161c0,0,0,-142,-82,-213c0,0,-81,-71,-254,-71Z" 
id="f5_s"
transform="scale(0.001,-0.001)" />

<path d="M191,-20c0,0,-51,0,-88,34c0,0,-36,36,-36,88c0,0,0,52,36,88c0,0,36,36,88,36c0,0,51,0,88,-36c0,0,36,-36,36,-88c0,0,0,-51,-36,-87c0,0,-36,-35,-88,-35Z" 
id="f5_i"
transform="scale(0.001,-0.001)" />

<path d="M410,-14c0,0,-80,0,-162,14c0,0,-81,14,-144,38V270h48L178,134c0,0,28,-35,95,-62c0,0,68,-27,134,-27c0,0,104,0,163,53c0,0,58,54,58,148c0,0,0,54,-23,89c0,0,-22,35,-59,59c0,0,-37,24,-84,41c0,0,-47,17,-97,34c0,0,-49,17,-96,38c0,0,-47,21,-84,53c0,0,-37,32,-60,79c0,0,-23,48,-23,117c0,0,0,119,90,187c0,0,89,68,248,68c0,0,121,0,263,-32V771H654L628,893c0,0,-76,55,-188,55c0,0,-100,0,-156,-40c0,0,-56,-41,-56,-112c0,0,0,-49,22,-81c0,0,23,-32,60,-55c0,0,37,-22,84,-39c0,0,48,-16,97,-34c0,0,50,-17,97,-39c0,0,48,-22,85,-56c0,0,36,-34,59,-83c0,0,23,-49,23,-120c0,0,0,-145,-89,-224c0,0,-89,-79,-256,-79Z" 
id="f2_1j"
transform="scale(0.001,-0.001)" />

<path d="M377,45c0,0,99,0,147,73c0,0,47,73,47,237c0,0,0,161,-47,233c0,0,-47,72,-147,72c0,0,-97,0,-141,-69c0,0,-44,-69,-44,-236c0,0,0,-169,45,-240c0,0,44,-70,140,-70Zm0,-59c0,0,-158,0,-238,94c0,0,-81,95,-81,274c0,0,0,178,81,272c0,0,80,94,244,94c0,0,160,0,241,-92c0,0,82,-92,82,-274c0,0,0,-368,-329,-368Z" 
id="f2_2b"
transform="scale(0.001,-0.001)" />

<path d="M31,0V33L150,52v956L31,1026v34H274V52L394,33V0Z" 
id="f2_28"
transform="scale(0.001,-0.001)" />

<path d="M360,-14L72,649L0,668v33H327V668L216,648L420,164L615,649L504,668v33H764V668L697,652L416,-14Z" 
id="f2_2i"
transform="scale(0.001,-0.001)" />

<path d="M495,413c0,0,0,133,-34,190c0,0,-34,57,-105,57c0,0,-78,0,-119,-63c0,0,-42,-62,-42,-184ZM374,-14c0,0,-163,0,-239,87c0,0,-75,88,-75,283c0,0,0,183,77,273c0,0,76,91,219,91c0,0,269,0,269,-306V353H194V340c0,0,0,-103,23,-160c0,0,22,-57,70,-87c0,0,47,-29,124,-29c0,0,40,0,96,6c0,0,55,7,91,15V43C598,43,562,20,500,3c0,0,-61,-17,-126,-17Z" 
id="f2_21"
transform="scale(0.001,-0.001)" />

<path d="M249,-14c0,0,-71,0,-107,42c0,0,-35,42,-35,119V639H15v33l93,29l76,159h47V701H391V639H231V161c0,0,0,-48,22,-73c0,0,22,-24,57,-24c0,0,44,0,106,12V26C416,26,389,8,340,-2c0,0,-49,-12,-91,-12Z" 
id="f2_2g"
transform="scale(0.001,-0.001)" />

<path d="M442,0V33l93,19V504c0,0,0,129,-124,129c0,0,-70,0,-168,-22V52L338,33V0H31V33l88,19v956L15,1026v34H243V756c0,0,0,-77,-5,-112c0,0,54,31,122,53c0,0,68,23,115,23c0,0,91,0,137,-53c0,0,47,-53,47,-154V52L744,33V0Z" 
id="f2_24"
transform="scale(0.001,-0.001)" />

<path d="M383,64c0,0,85,0,152,28V645c0,0,-67,13,-152,13c0,0,-194,0,-194,-314c0,0,0,-141,48,-211c0,0,48,-69,146,-69ZM342,-14c0,0,-287,0,-287,358c0,0,0,184,82,280c0,0,81,96,239,96c0,0,81,0,163,-18c0,0,-4,25,-4,124v182l-118,18v34H659V52L745,33V0H548l-9,52c0,0,-84,-66,-197,-66Z" 
id="f2_20"
transform="scale(0.001,-0.001)" />

<path d="M32,0V33L151,52V649L52,668v33H275V52L395,33V0ZM201,850c0,0,-32,0,-56,24c0,0,-24,24,-24,56c0,0,0,34,24,58c0,0,24,24,56,24c0,0,34,0,58,-24c0,0,24,-24,24,-58c0,0,0,-32,-24,-56c0,0,-24,-24,-58,-24Z" 
id="f2_25"
transform="scale(0.001,-0.001)" />

<path d="M64,0V34L168,59V639H47v36l121,29v49c0,0,0,155,61,239c0,0,62,84,173,84c0,0,58,0,107,-15V908H472l-33,92c0,0,-26,16,-62,16c0,0,-47,0,-66,-42c0,0,-19,-42,-19,-157V701H478V639H292V59L443,34V0Z" 
id="f2_22"
transform="scale(0.001,-0.001)" />

<path d="M31,0V33l88,19V649L31,668v33H235l7,-87c0,0,44,37,121,71c0,0,76,35,121,35h11V530H463l-43,82c0,0,-37,0,-88,-10c0,0,-52,-10,-89,-26V52L363,33V0Z" 
id="f2_2e"
transform="scale(0.001,-0.001)" />

<path d="M439,0V33l93,19V500c0,0,0,62,-30,97c0,0,-31,36,-94,36c0,0,-67,0,-165,-22V52L338,33V0H35V33l84,19V649L35,668v33H235l7,-57c0,0,57,33,122,54c0,0,65,22,108,22c0,0,91,0,137,-53c0,0,47,-53,47,-154V52L741,33V0Z" 
id="f2_2a"
transform="scale(0.001,-0.001)" />

<path d="M284,67c0,0,51,0,88,12c0,0,37,12,74,30V358l-98,-3c0,0,-100,-4,-135,-39c0,0,-35,-35,-35,-117c0,0,0,-132,106,-132ZM233,-14c0,0,-179,0,-179,208c0,0,0,70,27,116c0,0,27,46,87,70c0,0,60,24,173,27l105,3V519c0,0,0,72,-26,107c0,0,-27,34,-82,34c0,0,-75,0,-137,-35L176,538H134V691c0,0,121,26,213,26c0,0,115,0,169,-47c0,0,54,-47,54,-144V52L657,33V0H465L451,70c0,0,-85,-84,-218,-84Z" 
id="f2_1x"
transform="scale(0.001,-0.001)" />

<path d="M383,64c0,0,44,0,87,7c0,0,43,7,65,17V645c0,0,-67,13,-152,13c0,0,-194,0,-194,-309c0,0,0,-143,48,-214c0,0,47,-71,146,-71Zm56,-389v35l96,18V-77c0,0,0,73,7,124c0,0,-79,-61,-200,-61c0,0,-287,0,-287,362c0,0,0,180,81,276c0,0,81,96,237,96c0,0,84,0,166,-18l67,33h53V-272l77,-18v-35Z" 
id="f2_2d"
transform="scale(0.001,-0.001)" />

<path d="M289,-14c0,0,-179,0,-179,205V649L20,668v33H233V200c0,0,0,-128,120,-128c0,0,92,0,173,23V649L420,668v33H649V52L738,33V0H533l-6,57C527,57,474,28,405,7c0,0,-69,-21,-116,-21Z" 
id="f2_2h"
transform="scale(0.001,-0.001)" />

<path d="M-12,338v55H777V338Z" 
id="f6_4y"
transform="scale(0.001,-0.001)" />

<path d="M13,0V34L95,46L325,350L122,649L40,668v33H357V668L264,648L399,446L554,649l-96,19v33H710V668L630,652L433,397L663,50L745,34V0H427V34l94,17L359,299L169,50L266,34V0Z" 
id="f2_2k"
transform="scale(0.001,-0.001)" />

<path d="M148,-329c0,0,-58,0,-114,13v151H69l24,-71c0,0,23,-17,64,-17c0,0,39,0,72,22c0,0,33,23,60,67c0,0,27,44,68,157L90,649L19,668v33H344V668L233,648L423,158L606,649L497,668v33H758V668L685,652L411,-43c0,0,-48,-124,-84,-177c0,0,-36,-54,-79,-82c0,0,-44,-27,-100,-27Z" 
id="f2_2l"
transform="scale(0.001,-0.001)" />

<path d="M76,316v76H787V316Zm0,306v76H787V622Z" 
id="f2_x"
transform="scale(0.001,-0.001)" />

<path d="M392,152V469H76v77H392V863h77V546H787V469H469V152Z" 
id="f2_f"
transform="scale(0.001,-0.001)" />

<path d="M191,-20c0,0,-39,0,-65,25c0,0,-25,27,-25,64c0,0,0,38,26,64c0,0,26,26,64,26c0,0,38,0,64,-26c0,0,26,-26,26,-64c0,0,0,-37,-25,-64c0,0,-26,-25,-65,-25Z" 
id="f2_i"
transform="scale(0.001,-0.001)" />

<path d="M410,-14c0,0,-86,0,-175,14C235,0,145,14,81,38V307h66L181,146c0,0,31,-37,94,-62c0,0,64,-24,132,-24c0,0,214,0,214,177c0,0,0,55,-41,93c0,0,-41,38,-128,68c0,0,-128,42,-185,68c0,0,-56,27,-95,63c0,0,-38,36,-62,87c0,0,-23,51,-23,125c0,0,0,132,90,201c0,0,90,69,263,69c0,0,125,0,278,-32V741H651L618,878c0,0,-76,56,-178,56c0,0,-92,0,-141,-34c0,0,-49,-34,-49,-104c0,0,0,-50,41,-86c0,0,41,-35,128,-63c0,0,171,-56,235,-97c0,0,64,-41,97,-103c0,0,34,-61,34,-143c0,0,0,-318,-375,-318Z" 
id="f5_1j"
transform="scale(0.001,-0.001)" />

<path d="M379,60c0,0,59,0,84,64c0,0,24,65,24,231c0,0,0,164,-24,227c0,0,-24,63,-84,63c0,0,-57,0,-80,-60c0,0,-22,-61,-22,-230c0,0,0,-173,23,-234c0,0,22,-61,79,-61Zm-2,-74c0,0,-161,0,-240,91c0,0,-79,91,-79,277c0,0,0,186,80,276c0,0,81,90,245,90c0,0,167,0,245,-93c0,0,78,-93,78,-273c0,0,0,-188,-81,-278c0,0,-81,-90,-248,-90Z" 
id="f5_2b"
transform="scale(0.001,-0.001)" />

<path d="M30,0V49l76,18V992l-72,18v50H322V67L398,49V0Z" 
id="f5_28"
transform="scale(0.001,-0.001)" />

<path d="M287,-18c0,0,-194,0,-194,206V634L23,652v49H309V217c0,0,0,-63,26,-98c0,0,27,-35,76,-35c0,0,57,0,113,25V634l-64,18v49H740V67L809,49V0H536L526,61L475,35c0,0,-104,-53,-188,-53Z" 
id="f5_2h"
transform="scale(0.001,-0.001)" />

<path d="M327,-14c0,0,-101,0,-156,45c0,0,-55,45,-55,131V624H25v48l108,29l87,159H332V701H480V624H332V176c0,0,0,-49,20,-73c0,0,20,-25,53,-25c0,0,40,0,97,12V26c0,0,-22,-15,-76,-27c0,0,-55,-13,-99,-13Z" 
id="f5_2g"
transform="scale(0.001,-0.001)" />

<path d="M34,0V49l76,18V634L38,652v49H325V67L402,49V0ZM217,831c0,0,-48,0,-81,33c0,0,-34,33,-34,82c0,0,0,48,34,81c0,0,34,33,81,33c0,0,48,0,81,-33c0,0,33,-33,33,-81c0,0,0,-47,-33,-81c0,0,-32,-34,-81,-34Z" 
id="f5_25"
transform="scale(0.001,-0.001)" />

<path d="M41,0V49l69,18V634L41,652v49H313l11,-61l50,26c0,0,105,54,188,54c0,0,194,0,194,-207V67L827,49V0H478V49l63,18V484c0,0,0,63,-27,98c0,0,-26,35,-75,35c0,0,-57,0,-114,-25V67L389,49V0Z" 
id="f5_2a"
transform="scale(0.001,-0.001)" />

<path d="M248,-20c0,0,-52,0,-87,34c0,0,-36,36,-36,88c0,0,0,52,36,88c0,0,35,36,87,36c0,0,52,0,88,-36c0,0,36,-36,36,-88c0,0,0,-51,-36,-87c0,0,-35,-35,-88,-35Zm0,488c0,0,-52,0,-87,36c0,0,-36,36,-36,88c0,0,0,52,35,88c0,0,35,36,88,36c0,0,53,0,89,-36c0,0,35,-37,35,-88c0,0,0,-51,-36,-87c0,0,-35,-37,-88,-37Z" 
id="f5_u"
transform="scale(0.001,-0.001)" />

<path d="M420,-22L89,941L1,960v40H383V960L236,941L474,236L744,930h33L1037,236l227,705l-156,19v40h331V960l-87,-19L1025,-22H985L726,666L460,-22Z" 
id="f2_1n"
transform="scale(0.001,-0.001)" />

<path d="M-15,-329c0,0,-61,0,-112,13l28,152h34l12,-72c0,0,18,-17,60,-17c0,0,100,0,212,202L253,9L116,649L33,668l6,33H230L338,155L513,458c0,0,48,83,48,144c0,0,0,27,-16,44c0,0,-15,16,-33,22l6,33H659c0,0,20,-17,20,-47c0,0,0,-59,-62,-164L322,-7c0,0,-86,-145,-135,-205c0,0,-50,-61,-98,-89c0,0,-49,-28,-104,-28Z" 
id="f3_2l"
transform="scale(0.001,-0.001)" />

<path d="M-7,0L0,40L120,60L276,941L151,960l7,40H946L903,761H854l5,161c0,0,-81,11,-240,11H419L345,516H677l44,120h45L712,328H667l-2,121H333L264,60L427,40L420,0Z" 
id="f3_16"
transform="scale(0.001,-0.001)" />

<path d="M188,355c0,0,148,11,236,69c0,0,89,58,89,143c0,0,0,41,-23,68c0,0,-22,27,-66,27c0,0,-52,0,-101,-43c0,0,-49,-42,-85,-114c0,0,-36,-71,-50,-150ZM298,-14c0,0,-120,0,-186,67c0,0,-65,67,-65,193c0,0,0,125,53,232c0,0,52,108,145,175c0,0,94,67,196,67c0,0,92,0,147,-42c0,0,56,-43,56,-111c0,0,0,-102,-126,-173c0,0,-125,-72,-336,-86l-3,-54c0,0,0,-95,40,-143c0,0,40,-47,118,-47c0,0,67,0,124,22c0,0,57,23,106,52l22,-32c0,0,-69,-58,-146,-89c0,0,-76,-31,-145,-31Z" 
id="f3_21"
transform="scale(0.001,-0.001)" />

<path d="M52,62L0,114L278,390L0,667l52,52L330,442L608,719l51,-51L382,390L659,114L608,62L330,338L52,62Z" 
id="f4_3a"
transform="scale(0.001,-0.001)" />

<path d="M394,460c0,0,126,0,186,57c0,0,60,57,60,187c0,0,0,123,-57,176c0,0,-58,53,-194,53H316V460ZM54,0V40L172,60V941L44,960v40H421c0,0,368,0,368,-295c0,0,0,-153,-93,-233c0,0,-93,-80,-267,-80H316V60L475,40V0Z" 
id="f2_1g"
transform="scale(0.001,-0.001)" />

<path d="M200,-14c0,0,-59,0,-93,35c0,0,-34,36,-34,100c0,0,0,22,4,51c0,0,4,30,82,467H67l6,33l99,29L275,860h47L295,701H455L443,639H283L210,230c0,0,-13,-69,-13,-99c0,0,0,-34,17,-51c0,0,17,-16,43,-16c0,0,54,0,113,21L386,50c0,0,-92,-64,-186,-64Z" 
id="f3_2g"
transform="scale(0.001,-0.001)" />

<path d="M298,-14c0,0,-120,0,-185,69c0,0,-66,69,-66,191c0,0,0,130,52,237c0,0,52,107,149,172c0,0,97,65,203,65c0,0,53,0,112,-12c0,0,60,-11,99,-27L628,485H587L575,615c0,0,-47,47,-125,47c0,0,-72,0,-134,-53c0,0,-62,-53,-100,-147c0,0,-37,-95,-37,-208c0,0,0,-190,154,-190c0,0,106,0,222,74l22,-32c0,0,-60,-56,-135,-88c0,0,-76,-32,-144,-32Z" 
id="f3_1z"
transform="scale(0.001,-0.001)" />

<path d="M377,478c0,0,57,0,112,14v10c0,0,0,216,-25,325c0,0,-26,110,-91,110c0,0,-112,0,-112,-245c0,0,0,-214,116,-214ZM312,-14c0,0,-124,0,-232,31V245h65L177,99c0,0,26,-18,62,-29c0,0,36,-10,70,-10c0,0,80,0,126,91c0,0,45,92,52,265c0,0,-77,-28,-154,-28c0,0,-135,0,-213,81c0,0,-78,80,-78,226c0,0,0,152,87,234c0,0,87,82,242,82c0,0,176,0,257,-123c0,0,81,-123,81,-385c0,0,0,-169,-48,-284C661,219,614,103,525,44c0,0,-89,-58,-213,-58Z" 
id="f5_t"
transform="scale(0.001,-0.001)" />

<path d="M327,-14L84,649L1,668v33H335V668L219,648L385,174L554,632h63L786,171L944,649L830,668v33h267V668l-78,-16L784,-14H726L553,448L382,-14Z" 
id="f2_2j"
transform="scale(0.001,-0.001)" />

<path d="M382,45c0,0,188,0,188,314c0,0,0,143,-47,213c0,0,-46,69,-141,69c0,0,-87,0,-146,-24V58c0,0,67,-13,146,-13ZM25,-325v35l88,18V649L34,668v33H231l1,-41c0,0,31,27,84,43c0,0,53,17,107,17c0,0,134,0,208,-94c0,0,73,-93,73,-267c0,0,0,-178,-80,-276c0,0,-80,-97,-232,-97c0,0,-84,0,-160,16c0,0,4,-53,4,-84V-272l123,-18v-35Z" 
id="f2_2c"
transform="scale(0.001,-0.001)" />

<path d="M278,-14c0,0,-52,0,-115,11c0,0,-63,10,-99,23V193H98L134,95c0,0,56,-50,146,-50c0,0,144,0,144,123c0,0,0,91,-114,130l-66,21c0,0,-75,25,-110,50c0,0,-34,26,-53,63c0,0,-18,36,-18,89c0,0,0,92,63,145c0,0,63,54,170,54c0,0,77,0,193,-23V544H454l-32,81c0,0,-39,35,-124,35c0,0,-61,0,-92,-30c0,0,-32,-30,-32,-80c0,0,0,-43,29,-72c0,0,28,-29,86,-48c0,0,110,-38,144,-55c0,0,33,-17,57,-42c0,0,23,-25,36,-57c0,0,13,-32,13,-79c0,0,0,-104,-66,-158c0,0,-66,-53,-195,-53Z" 
id="f2_2f"
transform="scale(0.001,-0.001)" />

<path d="M681,416L504,902L333,416ZM669,0V40L803,60L704,348H310L210,60L344,40V0H15V40L128,60l341,949H611L965,60L1092,40V0Z" 
id="f2_11"
transform="scale(0.001,-0.001)" />

<path d="M58,-234v58c0,0,131,42,131,125c0,0,0,15,-11,27c0,0,-11,12,-38,25C140,1,89,27,89,75c0,0,0,40,25,61c0,0,26,21,65,21c0,0,48,0,77,-34c0,0,30,-34,30,-86c0,0,0,-101,-60,-170c0,0,-59,-69,-168,-101Z" 
id="f2_g"
transform="scale(0.001,-0.001)" />

<path d="M536,63c0,0,127,0,191,54c0,0,63,54,63,168c0,0,0,105,-70,154c0,0,-70,49,-225,49H316V67c0,0,103,-4,220,-4ZM480,555c0,0,121,0,178,48c0,0,57,48,57,155c0,0,0,91,-58,133c0,0,-57,42,-186,42H316V555ZM554,-4L235,0H44V40L172,60V941L44,960v40H501c0,0,191,0,279,-56c0,0,88,-56,88,-179c0,0,0,-88,-55,-149c0,0,-54,-62,-151,-83c0,0,135,-14,209,-79c0,0,73,-65,73,-166c0,0,0,-144,-99,-219C845,69,745,-4,554,-4Z" 
id="f2_12"
transform="scale(0.001,-0.001)" />

<path d="M577,-14c0,0,-243,0,-379,132C198,118,63,250,63,488c0,0,0,258,130,391c0,0,131,132,387,132c0,0,156,0,335,-38l5,-218H871L848,884c0,0,-52,32,-121,50c0,0,-69,17,-141,17c0,0,-191,0,-279,-112c0,0,-88,-113,-88,-349c0,0,0,-217,92,-332c0,0,92,-115,268,-115c0,0,85,0,160,20c0,0,76,21,120,55l27,149h49L930,32c0,0,-164,-46,-353,-46Z" 
id="f2_13"
transform="scale(0.001,-0.001)" />

<path d="M399,-14c0,0,-341,0,-341,370c0,0,0,175,87,269c0,0,87,95,249,95c0,0,101,0,220,-23V501H573L541,625c0,0,-62,35,-149,35c0,0,-200,0,-200,-304c0,0,0,-158,61,-225c0,0,61,-67,189,-67c0,0,109,0,189,24V43C631,43,595,16,530,1c0,0,-64,-15,-131,-15Z" 
id="f2_1z"
transform="scale(0.001,-0.001)" />

<path d="M465,786H442L239,946L67,786H45l141,248H324L465,786Z" 
id="f6_5z"
transform="scale(0.001,-0.001)" />

<path d="M85,0L199,649l-96,19l6,33H332L218,52L335,33L329,0ZM297,849c0,0,-33,0,-57,24c0,0,-24,24,-24,57c0,0,0,33,24,57c0,0,24,24,57,24c0,0,33,0,57,-24c0,0,24,-24,24,-57c0,0,0,-33,-24,-57c0,0,-24,-24,-57,-24Z" 
id="f3_25"
transform="scale(0.001,-0.001)" />

<path d="M-43,-325c0,0,-60,0,-119,23l24,140h35l12,-83c0,0,20,-20,52,-20c0,0,48,0,76,48c0,0,28,48,46,151L210,649L107,668l6,33H342L213,-28c0,0,-27,-151,-90,-224c0,0,-63,-73,-166,-73ZM306,849c0,0,-33,0,-57,24c0,0,-24,24,-24,57c0,0,0,33,24,57c0,0,24,24,57,24c0,0,33,0,57,-24c0,0,24,-24,24,-57c0,0,0,-33,-24,-57c0,0,-24,-24,-57,-24Z" 
id="f3_26"
transform="scale(0.001,-0.001)" />

<path d="M44,0L223,1008l-101,18l6,34H356L228,338L547,647l-70,20l6,34H700l-5,-34L634,650L415,441L596,51L669,34L663,0H487L324,357L214,254L168,0Z" 
id="f3_27"
transform="scale(0.001,-0.001)" />

<path d="M359,-270c0,0,124,0,192,46c0,0,67,47,67,129c0,0,0,43,-26,67c0,0,-26,24,-79,24H242c0,0,-32,-27,-51,-69c0,0,-20,-41,-20,-77c0,0,0,-64,46,-92c0,0,46,-28,142,-28Zm11,561c0,0,81,0,115,47c0,0,34,47,34,141c0,0,0,100,-35,142c0,0,-35,42,-113,42c0,0,-78,0,-114,-43c0,0,-37,-42,-37,-141c0,0,0,-98,36,-143c0,0,36,-45,114,-45ZM359,-329c0,0,-143,0,-218,44c0,0,-75,43,-75,125c0,0,0,39,27,78c0,0,26,38,98,89c0,0,-43,14,-72,48c0,0,-29,35,-29,74L208,262c0,0,-118,55,-118,217c0,0,0,115,73,178c0,0,73,63,211,63c0,0,28,0,71,-6c0,0,44,-6,67,-13l165,83l26,-32L599,644c0,0,50,-56,50,-165c0,0,0,-120,-72,-182c0,0,-73,-62,-208,-62c0,0,-62,0,-114,11L208,148c0,0,2,-13,29,-24c0,0,27,-12,67,-12H512c0,0,113,0,168,-49c0,0,55,-49,55,-134c0,0,0,-79,-44,-137c0,0,-43,-58,-128,-90c0,0,-84,-31,-204,-31Z" 
id="f2_23"
transform="scale(0.001,-0.001)" />

<path d="M57,302V417H454V302Z" 
id="f2_h"
transform="scale(0.001,-0.001)" />

<path d="M44,0V40L172,60V941L44,960v40H445V960L316,941V549H787V941L659,960v40h400V960L930,941V60L1059,40V0H659V40L787,60V481H316V60L445,40V0Z" 
id="f2_18"
transform="scale(0.001,-0.001)" />


</defs>
</svg>