<?xml version="1.0" encoding="UTF-8" standalone="no"?>
<!DOCTYPE svg PUBLIC "-//W3C//DTD SVG 1.1//EN"
"http://www.w3.org/Graphics/SVG/1.1/DTD/svg11.dtd">
<svg viewBox="0 0 909 1286" version="1.1" xmlns="http://www.w3.org/2000/svg" xmlns:xlink="http://www.w3.org/1999/xlink">
<defs>
<clipPath id="c0_24"><path d="M125,225.4V204.2H230.8v21.2Z" /></clipPath>
<clipPath id="c1_24"><path d="M247.7,224.2V203.3H353.5v20.9Z" /></clipPath>
<clipPath id="c2_24"><path d="M125,378.3V357.1H228.4v21.2Z" /></clipPath>
<clipPath id="c3_24"><path d="M125,530.3V509.4H322.5v20.9Z" /></clipPath>
<clipPath id="c4_24"><path d="M182.6,865.3v-29H189v29Z" /></clipPath>
<clipPath id="c5_24"><path d="M303.8,865.3v-29h6.4v29Z" /></clipPath>
<clipPath id="c6_24"><path d="M255.7,872.4V836.3h5.6v36.1Z" /></clipPath>
<clipPath id="c7_24"><path d="M478.7,873.2V837h5.5v36.2Z" /></clipPath>
<clipPath id="c8_24"><path d="M172,1036.7V1014h60.3v22.7Z" /></clipPath>
<clipPath id="c9_24"><path d="M123.9,1072.4v-21H276.1v21Z" /></clipPath>
<clipPath id="c10_24"><path d="M122.5,1126.2v-20.6H360.6v20.6Z" /></clipPath>
<clipPath id="c11_24"><path d="M154.6,1155.1v-20.3h94.6v20.3Z" /></clipPath>
<style type="text/css"><![CDATA[
.g0_24{
fill: none;
stroke: #FFFFFF;
stroke-width: 0.77000004;
stroke-linecap: round;
stroke-linejoin: round;
}
.g1_24{
fill: none;
stroke: #000000;
stroke-width: 0.90444446;
stroke-linecap: round;
stroke-linejoin: round;
}
.g2_24{
fill: none;
stroke: #000000;
stroke-width: 0.9029167;
stroke-linecap: round;
stroke-linejoin: round;
}
]]></style>
</defs>
<path d="M512.4,487l6.2,9.8l5.4,8.4l4.1,8.8l2,8.4l1.1,7.7l1.3,6.7l-1.3,6.7l-2.1,6.7l-2,4.8l-3.1,5.7l-3.1,4.9l-3.3,3.8l-7.2,6.7l-6.5,4.6l-11.5,6.9l-10.3,6.7L470.6,600L459,606.6l-6.4,3.9l-6.2,4.9L441,620l-5.1,5.9l-4.1,6.7l-3.4,7.4l-1,9.7l-1,10.6l-6.2,-10.6l-5.4,-10.5l-3.1,-10.5l-1,-10.5v-4.9l1,-4.9l1.1,-4.6l2,-3.8l2.1,-4.9l3.3,-3.9l3.1,-3.6l4.1,-3.8l17,-11.6L461,562.7L475.7,554l13.6,-7.7l6.4,-4.6l5.2,-6.7l4.1,-6.7l3.3,-7.7l2.1,-8.7l2,-7.7V487" class="g0_24" />
<g fill="#000000" >
<use xlink:href="#f0_l" transform="matrix(7,0,0,7,253.9,134.7)" />
<use xlink:href="#f0_l" transform="matrix(12.1,0,0,12.1,137.5,115.3)" />
<use xlink:href="#f0_m" transform="matrix(12.1,0,0,12.1,174.3,115.3)" />
<use xlink:href="#f0_n" transform="matrix(12.1,0,0,12.1,210.6,115.3)" />
<use xlink:href="#f0_l" transform="matrix(12.1,0,0,12.1,286.5,115.3)" />
<use xlink:href="#f0_k" transform="matrix(12.1,0,0,12.1,312.7,115.3)" />
<use xlink:href="#f0_k" transform="matrix(12.1,0,0,12.1,338.9,115.3)" />
<use xlink:href="#f0_m" transform="matrix(12.1,0,0,12.1,137.9,142.9)" />
<use xlink:href="#f0_p" transform="matrix(12.1,0,0,12.1,174.2,142.9)" />
<use xlink:href="#f0_r" transform="matrix(12.1,0,0,12.1,210.3,142.9)" />
<use xlink:href="#f0_k" transform="matrix(12.1,0,0,12.1,286.7,142.9)" />
<use xlink:href="#f0_l" transform="matrix(12.1,0,0,12.1,312.6,142.9)" />
<use xlink:href="#f0_k" transform="matrix(12.1,0,0,12.1,338.9,142.9)" />
<use xlink:href="#f0_m" transform="matrix(12.1,0,0,12.1,142.8,170.4)" />
<use xlink:href="#f0_o" transform="matrix(12.1,0,0,12.1,179.3,170.4)" />
<use xlink:href="#f0_p" transform="matrix(12.1,0,0,12.1,215.8,170.4)" />
<use xlink:href="#f0_k" transform="matrix(12.1,0,0,12.1,286.7,170.4)" />
<use xlink:href="#f0_k" transform="matrix(12.1,0,0,12.1,312.7,170.4)" />
<use xlink:href="#f0_l" transform="matrix(12.1,0,0,12.1,338.7,170.4)" />
<use xlink:href="#f1_11" transform="matrix(12.1,0,0,12.1,236.9,142.9)" />
<use xlink:href="#f2_h" transform="matrix(7,0,0,7,248.2,134.7)" />
<use xlink:href="#f2_4r" transform="matrix(12.1,0,0,12.1,125,116.7)" />
<use xlink:href="#f2_57" transform="matrix(12.1,0,0,12.1,225.3,116.7)" />
<use xlink:href="#f2_4r" transform="matrix(12.1,0,0,12.1,279.2,116.7)" />
<use xlink:href="#f2_57" transform="matrix(12.1,0,0,12.1,348.7,116.7)" />
<use xlink:href="#f2_4s" transform="matrix(12.1,0,0,12.1,125,134.3)" />
<use xlink:href="#f2_58" transform="matrix(12.1,0,0,12.1,225.3,134.3)" />
<use xlink:href="#f2_4s" transform="matrix(12.1,0,0,12.1,279.2,134.3)" />
<use xlink:href="#f2_58" transform="matrix(12.1,0,0,12.1,348.7,134.3)" />
<use xlink:href="#f2_x" transform="matrix(12.1,0,0,12.1,264.6,142.9)" />
<use xlink:href="#f2_4s" transform="matrix(12.1,0,0,12.1,125,151.9)" />
<use xlink:href="#f2_58" transform="matrix(12.1,0,0,12.1,225.3,151.9)" />
<use xlink:href="#f2_4s" transform="matrix(12.1,0,0,12.1,279.2,151.9)" />
<use xlink:href="#f2_58" transform="matrix(12.1,0,0,12.1,348.7,151.9)" />
<use xlink:href="#f2_4s" transform="matrix(12.1,0,0,12.1,125,169.7)" />
<use xlink:href="#f2_58" transform="matrix(12.1,0,0,12.1,225.3,169.7)" />
<use xlink:href="#f2_4s" transform="matrix(12.1,0,0,12.1,279.2,169.7)" />
<use xlink:href="#f2_58" transform="matrix(12.1,0,0,12.1,348.7,169.7)" />
<use xlink:href="#f2_h" transform="matrix(12.1,0,0,12.1,132.9,170.4)" />
<use xlink:href="#f2_h" transform="matrix(12.1,0,0,12.1,169.2,170.4)" />
<use xlink:href="#f2_h" transform="matrix(12.1,0,0,12.1,205.7,170.4)" />
<use xlink:href="#f2_4t" transform="matrix(12.1,0,0,12.1,125,175.4)" />
<use xlink:href="#f2_59" transform="matrix(12.1,0,0,12.1,225.3,175.4)" />
<use xlink:href="#f2_4t" transform="matrix(12.1,0,0,12.1,279.2,175.4)" />
<use xlink:href="#f2_59" transform="matrix(12.1,0,0,12.1,348.7,175.4)" />
<use xlink:href="#f0_m" transform="matrix(7.1,0,0,7.1,135.8,225.4)" />
<use xlink:href="#f0_m" transform="matrix(7.1,0,0,7.1,180.4,225.4)" />
<use xlink:href="#f0_l" transform="matrix(7.1,0,0,7.1,223.5,225.4)" />
<use xlink:href="#f0_m" transform="matrix(12.2,0,0,12.2,203.9,220.9)" />
</g>
<g clip-path="url(#c0_24)">
<g fill="#000000" >
<use xlink:href="#f1_1i" transform="matrix(12.2,0,0,12.2,125.2,220.9)" />
<use xlink:href="#f1_1i" transform="matrix(12.2,0,0,12.2,169.8,220.9)" />
<use xlink:href="#f1_1i" transform="matrix(12.2,0,0,12.2,213.9,220.9)" />
</g>
</g>
<g fill="#000000" >
<use xlink:href="#f2_4g" transform="matrix(12.2,0,0,12.2,146.7,220.9)" />
<use xlink:href="#f2_h" transform="matrix(12.2,0,0,12.2,190.7,220.9)" />
<use xlink:href="#f0_v" transform="matrix(12,0,0,12,235,219.8)" />
<use xlink:href="#f0_n" transform="matrix(6.9,0,0,6.9,258.3,224.3)" />
<use xlink:href="#f0_n" transform="matrix(6.9,0,0,6.9,301.9,224.3)" />
<use xlink:href="#f0_l" transform="matrix(6.9,0,0,6.9,345,224.3)" />
<use xlink:href="#f0_m" transform="matrix(12,0,0,12,325.4,219.8)" />
</g>
<g clip-path="url(#c1_24)">
<g fill="#000000" >
<use xlink:href="#f1_1i" transform="matrix(12,0,0,12,247.9,219.8)" />
<use xlink:href="#f1_1i" transform="matrix(12,0,0,12,291.7,219.8)" />
<use xlink:href="#f1_1i" transform="matrix(12,0,0,12,335.5,219.8)" />
</g>
</g>
<g fill="#000000" >
<use xlink:href="#f2_4g" transform="matrix(12,0,0,12,268.8,219.8)" />
<use xlink:href="#f2_f" transform="matrix(12,0,0,12,312,219.8)" />
<use xlink:href="#f0_l" transform="matrix(7,0,0,7,222.2,288.3)" />
<use xlink:href="#f0_l" transform="matrix(12.1,0,0,12.1,132.4,268.9)" />
<use xlink:href="#f0_m" transform="matrix(12.1,0,0,12.1,158.8,268.9)" />
<use xlink:href="#f0_n" transform="matrix(12.1,0,0,12.1,184.6,268.9)" />
<use xlink:href="#f0_l" transform="matrix(12.1,0,0,12.1,259.9,268.9)" />
<use xlink:href="#f0_k" transform="matrix(12.1,0,0,12.1,291.1,268.9)" />
<use xlink:href="#f0_k" transform="matrix(12.1,0,0,12.1,317.1,268.9)" />
<use xlink:href="#f0_k" transform="matrix(12.1,0,0,12.1,132.6,296.6)" />
<use xlink:href="#f0_l" transform="matrix(12.1,0,0,12.1,158.6,296.6)" />
<use xlink:href="#f0_l" transform="matrix(12.1,0,0,12.1,184.2,296.6)" />
<use xlink:href="#f0_m" transform="matrix(12.1,0,0,12.1,265.2,296.6)" />
<use xlink:href="#f0_l" transform="matrix(12.1,0,0,12.1,291.1,296.6)" />
<use xlink:href="#f0_k" transform="matrix(12.1,0,0,12.1,317.1,296.6)" />
<use xlink:href="#f0_k" transform="matrix(12.1,0,0,12.1,132.6,324.1)" />
<use xlink:href="#f0_k" transform="matrix(12.1,0,0,12.1,158.6,324.1)" />
<use xlink:href="#f0_l" transform="matrix(12.1,0,0,12.1,184.2,324.1)" />
<use xlink:href="#f0_m" transform="matrix(12.1,0,0,12.1,260.1,324.1)" />
<use xlink:href="#f0_k" transform="matrix(12.1,0,0,12.1,291.1,324.1)" />
<use xlink:href="#f0_l" transform="matrix(12.1,0,0,12.1,317.1,324.1)" />
<use xlink:href="#f1_11" transform="matrix(12.1,0,0,12.1,205.2,296.6)" />
<use xlink:href="#f2_h" transform="matrix(7,0,0,7,216.5,288.3)" />
<use xlink:href="#f2_4r" transform="matrix(12.1,0,0,12.1,125,270.4)" />
<use xlink:href="#f2_57" transform="matrix(12.1,0,0,12.1,193.8,270.4)" />
<use xlink:href="#f2_4r" transform="matrix(12.1,0,0,12.1,247.3,270.4)" />
<use xlink:href="#f2_57" transform="matrix(12.1,0,0,12.1,327,270.4)" />
<use xlink:href="#f2_4s" transform="matrix(12.1,0,0,12.1,125,288)" />
<use xlink:href="#f2_58" transform="matrix(12.1,0,0,12.1,193.8,288)" />
<use xlink:href="#f2_4s" transform="matrix(12.1,0,0,12.1,247.3,288)" />
<use xlink:href="#f2_58" transform="matrix(12.1,0,0,12.1,327,288)" />
<use xlink:href="#f2_x" transform="matrix(12.1,0,0,12.1,232.8,296.6)" />
<use xlink:href="#f2_h" transform="matrix(12.1,0,0,12.1,255.2,296.6)" />
<use xlink:href="#f2_4s" transform="matrix(12.1,0,0,12.1,125,305.6)" />
<use xlink:href="#f2_58" transform="matrix(12.1,0,0,12.1,193.8,305.6)" />
<use xlink:href="#f2_4s" transform="matrix(12.1,0,0,12.1,247.3,305.6)" />
<use xlink:href="#f2_58" transform="matrix(12.1,0,0,12.1,327,305.6)" />
<use xlink:href="#f2_4s" transform="matrix(12.1,0,0,12.1,125,323.3)" />
<use xlink:href="#f2_58" transform="matrix(12.1,0,0,12.1,193.8,323.3)" />
<use xlink:href="#f2_4s" transform="matrix(12.1,0,0,12.1,247.3,323.3)" />
<use xlink:href="#f2_58" transform="matrix(12.1,0,0,12.1,327,323.3)" />
<use xlink:href="#f2_4t" transform="matrix(12.1,0,0,12.1,125,329)" />
<use xlink:href="#f2_59" transform="matrix(12.1,0,0,12.1,193.8,329)" />
<use xlink:href="#f2_4t" transform="matrix(12.1,0,0,12.1,247.3,329)" />
<use xlink:href="#f2_59" transform="matrix(12.1,0,0,12.1,327,329)" />
<use xlink:href="#f0_l" transform="matrix(7.1,0,0,7.1,134.8,378.3)" />
<use xlink:href="#f0_l" transform="matrix(7.1,0,0,7.1,176.9,378.3)" />
<use xlink:href="#f0_m" transform="matrix(7.1,0,0,7.1,219.8,378.3)" />
<use xlink:href="#f0_m" transform="matrix(12.2,0,0,12.2,199.3,373.8)" />
</g>
<g clip-path="url(#c2_24)">
<g fill="#000000" >
<use xlink:href="#f1_1i" transform="matrix(12.2,0,0,12.2,125.2,373.8)" />
<use xlink:href="#f1_1i" transform="matrix(12.2,0,0,12.2,167.4,373.8)" />
<use xlink:href="#f1_1i" transform="matrix(12.2,0,0,12.2,209.3,373.8)" />
</g>
</g>
<g fill="#000000" >
<use xlink:href="#f2_4g" transform="matrix(12.2,0,0,12.2,144.7,373.8)" />
<use xlink:href="#f2_h" transform="matrix(12.2,0,0,12.2,186.3,373.8)" />
<use xlink:href="#f0_l" transform="matrix(7,0,0,7,219.8,440.9)" />
<use xlink:href="#f0_l" transform="matrix(12.1,0,0,12.1,132.4,421.4)" />
<use xlink:href="#f0_k" transform="matrix(12.1,0,0,12.1,158.6,421.4)" />
<use xlink:href="#f0_l" transform="matrix(12.1,0,0,12.1,182.9,421.4)" />
<use xlink:href="#f0_p" transform="matrix(12.1,0,0,12.1,257.7,421.4)" />
<use xlink:href="#f0_m" transform="matrix(12.1,0,0,12.1,299.1,421.4)" />
<use xlink:href="#f0_k" transform="matrix(12.1,0,0,12.1,325.4,421.4)" />
<use xlink:href="#f0_k" transform="matrix(12.1,0,0,12.1,132.6,449.1)" />
<use xlink:href="#f0_l" transform="matrix(12.1,0,0,12.1,158.4,449.1)" />
<use xlink:href="#f0_l" transform="matrix(12.1,0,0,12.1,182.9,449.1)" />
<use xlink:href="#f0_m" transform="matrix(12.1,0,0,12.1,262.9,449.1)" />
<use xlink:href="#f0_l" transform="matrix(12.1,0,0,12.1,294,449.1)" />
<use xlink:href="#f0_k" transform="matrix(12.1,0,0,12.1,325.4,449.1)" />
<use xlink:href="#f0_k" transform="matrix(12.1,0,0,12.1,132.6,476.6)" />
<use xlink:href="#f0_k" transform="matrix(12.1,0,0,12.1,158.6,476.6)" />
<use xlink:href="#f0_l" transform="matrix(12.1,0,0,12.1,182.9,476.6)" />
<use xlink:href="#f0_m" transform="matrix(12.1,0,0,12.1,257.9,476.6)" />
<use xlink:href="#f0_k" transform="matrix(12.1,0,0,12.1,294,476.6)" />
<use xlink:href="#f0_l" transform="matrix(12.1,0,0,12.1,325.2,476.6)" />
<use xlink:href="#f1_11" transform="matrix(12.1,0,0,12.1,202.8,449.1)" />
<use xlink:href="#f2_h" transform="matrix(7,0,0,7,214.1,440.9)" />
<use xlink:href="#f2_h" transform="matrix(12.1,0,0,12.1,289.3,421.4)" />
<use xlink:href="#f2_4r" transform="matrix(12.1,0,0,12.1,125,422.9)" />
<use xlink:href="#f2_57" transform="matrix(12.1,0,0,12.1,191.4,422.9)" />
<use xlink:href="#f2_4r" transform="matrix(12.1,0,0,12.1,245.1,422.9)" />
<use xlink:href="#f2_57" transform="matrix(12.1,0,0,12.1,335.1,422.9)" />
<use xlink:href="#f2_4s" transform="matrix(12.1,0,0,12.1,125,440.5)" />
<use xlink:href="#f2_58" transform="matrix(12.1,0,0,12.1,191.4,440.5)" />
<use xlink:href="#f2_4s" transform="matrix(12.1,0,0,12.1,245.1,440.5)" />
<use xlink:href="#f2_58" transform="matrix(12.1,0,0,12.1,335.1,440.5)" />
<use xlink:href="#f2_x" transform="matrix(12.1,0,0,12.1,230.5,449.1)" />
<use xlink:href="#f2_h" transform="matrix(12.1,0,0,12.1,252.8,449.1)" />
<use xlink:href="#f2_4s" transform="matrix(12.1,0,0,12.1,125,458.1)" />
<use xlink:href="#f2_58" transform="matrix(12.1,0,0,12.1,191.4,458.1)" />
<use xlink:href="#f2_4s" transform="matrix(12.1,0,0,12.1,245.1,458.1)" />
<use xlink:href="#f2_58" transform="matrix(12.1,0,0,12.1,335.1,458.1)" />
<use xlink:href="#f2_4s" transform="matrix(12.1,0,0,12.1,125,475.9)" />
<use xlink:href="#f2_58" transform="matrix(12.1,0,0,12.1,191.4,475.9)" />
<use xlink:href="#f2_4s" transform="matrix(12.1,0,0,12.1,245.1,475.9)" />
<use xlink:href="#f2_58" transform="matrix(12.1,0,0,12.1,335.1,475.9)" />
<use xlink:href="#f2_4t" transform="matrix(12.1,0,0,12.1,125,481.6)" />
<use xlink:href="#f2_59" transform="matrix(12.1,0,0,12.1,191.4,481.6)" />
<use xlink:href="#f2_4t" transform="matrix(12.1,0,0,12.1,245.1,481.6)" />
<use xlink:href="#f2_59" transform="matrix(12.1,0,0,12.1,335.1,481.6)" />
<use xlink:href="#f0_l" transform="matrix(6.9,0,0,6.9,134.8,530.5)" />
<use xlink:href="#f0_l" transform="matrix(6.9,0,0,6.9,177.1,530.5)" />
<use xlink:href="#f0_n" transform="matrix(6.9,0,0,6.9,210.6,530.5)" />
<use xlink:href="#f0_m" transform="matrix(6.9,0,0,6.9,235.6,530.5)" />
<use xlink:href="#f0_m" transform="matrix(6.9,0,0,6.9,279.9,530.5)" />
<use xlink:href="#f0_n" transform="matrix(6.9,0,0,6.9,314.2,530.5)" />
<use xlink:href="#f0_v" transform="matrix(12,0,0,12,217.1,525.9)" />
</g>
<g clip-path="url(#c3_24)">
<g fill="#000000" >
<use xlink:href="#f1_1i" transform="matrix(12,0,0,12,125.2,525.9)" />
<use xlink:href="#f1_1i" transform="matrix(12,0,0,12,167.7,525.9)" />
<use xlink:href="#f1_1i" transform="matrix(12,0,0,12,200.3,525.9)" />
<use xlink:href="#f1_1i" transform="matrix(12,0,0,12,224.9,525.9)" />
<use xlink:href="#f1_1i" transform="matrix(12,0,0,12,269.2,525.9)" />
<use xlink:href="#f1_1i" transform="matrix(12,0,0,12,303.9,525.9)" />
</g>
</g>
<g fill="#000000" >
<use xlink:href="#f2_4g" transform="matrix(12,0,0,12,144.8,525.9)" />
<use xlink:href="#f2_h" transform="matrix(12,0,0,12,186.6,525.9)" />
<use xlink:href="#f2_4g" transform="matrix(12,0,0,12,246.4,525.9)" />
<use xlink:href="#f2_h" transform="matrix(12,0,0,12,290.2,525.9)" />
<use xlink:href="#f0_l" transform="matrix(7,0,0,7,222.9,594.5)" />
<use xlink:href="#f0_l" transform="matrix(12.1,0,0,12.1,132.4,575.1)" />
<use xlink:href="#f0_k" transform="matrix(12.1,0,0,12.1,158.6,575.1)" />
<use xlink:href="#f0_k" transform="matrix(12.1,0,0,12.1,184.6,575.1)" />
<use xlink:href="#f0_n" transform="matrix(12.1,0,0,12.1,260.8,575.1)" />
<use xlink:href="#f0_m" transform="matrix(12.1,0,0,12.1,302.1,575.1)" />
<use xlink:href="#f0_l" transform="matrix(12.1,0,0,12.1,338.4,575.1)" />
<use xlink:href="#f0_k" transform="matrix(12.1,0,0,12.1,132.6,602.7)" />
<use xlink:href="#f0_l" transform="matrix(12.1,0,0,12.1,158.4,602.7)" />
<use xlink:href="#f0_k" transform="matrix(12.1,0,0,12.1,184.6,602.7)" />
<use xlink:href="#f0_o" transform="matrix(12.1,0,0,12.1,265.8,602.7)" />
<use xlink:href="#f0_l" transform="matrix(12.1,0,0,12.1,296.8,602.7)" />
<use xlink:href="#f0_l" transform="matrix(12.1,0,0,12.1,338.4,602.7)" />
<use xlink:href="#f0_k" transform="matrix(12.1,0,0,12.1,132.6,630.2)" />
<use xlink:href="#f0_k" transform="matrix(12.1,0,0,12.1,158.6,630.2)" />
<use xlink:href="#f0_l" transform="matrix(12.1,0,0,12.1,184.4,630.2)" />
<use xlink:href="#f0_m" transform="matrix(12.1,0,0,12.1,260.7,630.2)" />
<use xlink:href="#f0_k" transform="matrix(12.1,0,0,12.1,297,630.2)" />
<use xlink:href="#f0_l" transform="matrix(12.1,0,0,12.1,332.3,630.2)" />
<use xlink:href="#f1_11" transform="matrix(12.1,0,0,12.1,205.9,602.7)" />
<use xlink:href="#f2_h" transform="matrix(7,0,0,7,217.1,594.5)" />
<use xlink:href="#f2_h" transform="matrix(12.1,0,0,12.1,292.1,575.1)" />
<use xlink:href="#f2_h" transform="matrix(12.1,0,0,12.1,328.3,575.1)" />
<use xlink:href="#f2_4r" transform="matrix(12.1,0,0,12.1,125,576.5)" />
<use xlink:href="#f2_57" transform="matrix(12.1,0,0,12.1,194.3,576.5)" />
<use xlink:href="#f2_4r" transform="matrix(12.1,0,0,12.1,248,576.5)" />
<use xlink:href="#f2_57" transform="matrix(12.1,0,0,12.1,346.8,576.5)" />
<use xlink:href="#f2_4s" transform="matrix(12.1,0,0,12.1,125,594.1)" />
<use xlink:href="#f2_58" transform="matrix(12.1,0,0,12.1,194.3,594.1)" />
<use xlink:href="#f2_4s" transform="matrix(12.1,0,0,12.1,248,594.1)" />
<use xlink:href="#f2_58" transform="matrix(12.1,0,0,12.1,346.8,594.1)" />
<use xlink:href="#f2_x" transform="matrix(12.1,0,0,12.1,233.4,602.7)" />
<use xlink:href="#f2_h" transform="matrix(12.1,0,0,12.1,255.7,602.7)" />
<use xlink:href="#f2_h" transform="matrix(12.1,0,0,12.1,328.3,602.7)" />
<use xlink:href="#f2_4s" transform="matrix(12.1,0,0,12.1,125,611.7)" />
<use xlink:href="#f2_58" transform="matrix(12.1,0,0,12.1,194.3,611.7)" />
<use xlink:href="#f2_4s" transform="matrix(12.1,0,0,12.1,248,611.7)" />
<use xlink:href="#f2_58" transform="matrix(12.1,0,0,12.1,346.8,611.7)" />
<use xlink:href="#f2_4s" transform="matrix(12.1,0,0,12.1,125,629.5)" />
<use xlink:href="#f2_58" transform="matrix(12.1,0,0,12.1,194.3,629.5)" />
<use xlink:href="#f2_4s" transform="matrix(12.1,0,0,12.1,248,629.5)" />
<use xlink:href="#f2_58" transform="matrix(12.1,0,0,12.1,346.8,629.5)" />
<use xlink:href="#f2_4t" transform="matrix(12.1,0,0,12.1,125,635.2)" />
<use xlink:href="#f2_59" transform="matrix(12.1,0,0,12.1,194.3,635.2)" />
<use xlink:href="#f2_4t" transform="matrix(12.1,0,0,12.1,248,635.2)" />
<use xlink:href="#f2_59" transform="matrix(12.1,0,0,12.1,346.8,635.2)" />
<use xlink:href="#f0_l" transform="matrix(7,0,0,7,161,706.5)" />
<use xlink:href="#f0_l" transform="matrix(7,0,0,7,204.2,706.5)" />
<use xlink:href="#f0_n" transform="matrix(12,0,0,12,242.2,687.3)" />
<use xlink:href="#f0_m" transform="matrix(12,0,0,12,283.4,687.3)" />
<use xlink:href="#f0_l" transform="matrix(12,0,0,12,319.7,687.3)" />
<use xlink:href="#f0_o" transform="matrix(12,0,0,12,247.1,714.8)" />
<use xlink:href="#f0_l" transform="matrix(12,0,0,12,278.1,714.8)" />
<use xlink:href="#f0_l" transform="matrix(12,0,0,12,319.7,714.8)" />
<use xlink:href="#f0_m" transform="matrix(12,0,0,12,242.2,742.4)" />
<use xlink:href="#f0_k" transform="matrix(12,0,0,12,278.3,742.4)" />
<use xlink:href="#f0_l" transform="matrix(12,0,0,12,313.7,742.4)" />
<use xlink:href="#f1_19" transform="matrix(12,0,0,12,125.2,714.8)" />
<use xlink:href="#f1_11" transform="matrix(12,0,0,12,143.9,714.8)" />
<use xlink:href="#f1_11" transform="matrix(12,0,0,12,187.2,714.8)" />
<use xlink:href="#f2_h" transform="matrix(7,0,0,7,155.1,706.5)" />
<use xlink:href="#f2_h" transform="matrix(7,0,0,7,198.4,706.5)" />
<use xlink:href="#f2_h" transform="matrix(12,0,0,12,273.5,687.3)" />
<use xlink:href="#f2_h" transform="matrix(12,0,0,12,309.8,687.3)" />
<use xlink:href="#f2_4r" transform="matrix(12,0,0,12,229.4,688.7)" />
<use xlink:href="#f2_57" transform="matrix(12,0,0,12,328.2,688.7)" />
<use xlink:href="#f2_4s" transform="matrix(12,0,0,12,229.4,706.3)" />
<use xlink:href="#f2_58" transform="matrix(12,0,0,12,328.2,706.3)" />
<use xlink:href="#f2_49" transform="matrix(12,0,0,12,135.5,714.8)" />
<use xlink:href="#f2_x" transform="matrix(12,0,0,12,171.4,714.8)" />
<use xlink:href="#f2_x" transform="matrix(12,0,0,12,214.7,714.8)" />
<use xlink:href="#f2_h" transform="matrix(12,0,0,12,237,714.8)" />
<use xlink:href="#f2_h" transform="matrix(12,0,0,12,309.8,714.8)" />
<use xlink:href="#f2_4s" transform="matrix(12,0,0,12,229.4,723.9)" />
<use xlink:href="#f2_58" transform="matrix(12,0,0,12,328.2,723.9)" />
<use xlink:href="#f2_4s" transform="matrix(12,0,0,12,229.4,741.5)" />
<use xlink:href="#f2_58" transform="matrix(12,0,0,12,328.2,741.5)" />
<use xlink:href="#f2_4t" transform="matrix(12,0,0,12,229.4,747.2)" />
<use xlink:href="#f2_59" transform="matrix(12,0,0,12,328.2,747.2)" />
<use xlink:href="#f0_m" transform="matrix(12,0,0,12,64.9,818.7)" />
<use xlink:href="#f0_t" transform="matrix(12,0,0,12,74.1,818.7)" />
<use xlink:href="#f0_i" transform="matrix(12,0,0,12,83.2,818.7)" />
<use xlink:href="#f0_16" transform="matrix(12,0,0,12,121.9,818.7)" />
<use xlink:href="#f0_25" transform="matrix(12,0,0,12,132.1,818.7)" />
<use xlink:href="#f0_2a" transform="matrix(12,0,0,12,137.2,818.7)" />
<use xlink:href="#f0_20" transform="matrix(12,0,0,12,146.4,818.7)" />
<use xlink:href="#f0_2g" transform="matrix(12,0,0,12,158.3,818.7)" />
<use xlink:href="#f0_24" transform="matrix(12,0,0,12,163.4,818.7)" />
<use xlink:href="#f0_21" transform="matrix(12,0,0,12,172.6,818.7)" />
<use xlink:href="#f0_20" transform="matrix(12,0,0,12,183.4,818.7)" />
<use xlink:href="#f0_25" transform="matrix(12,0,0,12,192.5,818.7)" />
<use xlink:href="#f0_2f" transform="matrix(12,0,0,12,197.6,818.7)" />
<use xlink:href="#f0_2g" transform="matrix(12,0,0,12,204.8,818.7)" />
<use xlink:href="#f0_1x" transform="matrix(12,0,0,12,209.9,818.7)" />
<use xlink:href="#f0_2a" transform="matrix(12,0,0,12,218,818.7)" />
<use xlink:href="#f0_1z" transform="matrix(12,0,0,12,227.2,818.7)" />
<use xlink:href="#f0_21" transform="matrix(12,0,0,12,235.3,818.7)" />
<use xlink:href="#f0_2b" transform="matrix(12,0,0,12,245.9,818.7)" />
<use xlink:href="#f0_22" transform="matrix(12,0,0,12,255.1,818.7)" />
<use xlink:href="#f0_2g" transform="matrix(12,0,0,12,264.1,818.7)" />
<use xlink:href="#f0_24" transform="matrix(12,0,0,12,269.2,818.7)" />
<use xlink:href="#f0_21" transform="matrix(12,0,0,12,278.3,818.7)" />
<use xlink:href="#f0_2c" transform="matrix(12,0,0,12,289.3,818.7)" />
<use xlink:href="#f0_2b" transform="matrix(12,0,0,12,298.5,818.7)" />
<use xlink:href="#f0_25" transform="matrix(12,0,0,12,307.7,818.7)" />
<use xlink:href="#f0_2a" transform="matrix(12,0,0,12,312.8,818.7)" />
<use xlink:href="#f0_2g" transform="matrix(12,0,0,12,321.9,818.7)" />
<use xlink:href="#f3_c" transform="matrix(12,0,0,12,332,818.7)" />
<use xlink:href="#f4_h" transform="matrix(12.2,0,0,12.2,338.1,818.2)" />
<use xlink:href="#f0_l" transform="matrix(12.2,0,0,12.2,348.3,818.2)" />
<use xlink:href="#f3_g" transform="matrix(12.2,0,0,12.2,355.7,818.2)" />
<use xlink:href="#f4_h" transform="matrix(12.2,0,0,12.2,361,818.2)" />
<use xlink:href="#f0_p" transform="matrix(12.2,0,0,12.2,371.3,818.2)" />
<use xlink:href="#f3_g" transform="matrix(12.2,0,0,12.2,380.6,818.2)" />
<use xlink:href="#f4_h" transform="matrix(12.2,0,0,12.2,389.8,818.2)" />
<use xlink:href="#f0_l" transform="matrix(12.2,0,0,12.2,400.1,818.2)" />
<use xlink:href="#f0_k" transform="matrix(12.2,0,0,12.2,409.3,818.2)" />
<use xlink:href="#f4_d" transform="matrix(11.8,0,0,15.9,418.6,819.4)" />
<use xlink:href="#f0_22" transform="matrix(12,0,0,12,430.5,818.7)" />
<use xlink:href="#f0_2e" transform="matrix(12,0,0,12,436.6,818.7)" />
<use xlink:href="#f0_2b" transform="matrix(12,0,0,12,442.7,818.7)" />
<use xlink:href="#f0_29" transform="matrix(12,0,0,12,451.8,818.7)" />
<use xlink:href="#f0_2g" transform="matrix(12,0,0,12,468.7,818.7)" />
<use xlink:href="#f0_24" transform="matrix(12,0,0,12,473.8,818.7)" />
<use xlink:href="#f0_21" transform="matrix(12,0,0,12,483,818.7)" />
<use xlink:href="#f0_2c" transform="matrix(12,0,0,12,493.8,818.7)" />
<use xlink:href="#f0_2b" transform="matrix(12,0,0,12,503,818.7)" />
<use xlink:href="#f0_25" transform="matrix(12,0,0,12,512.1,818.7)" />
<use xlink:href="#f0_2a" transform="matrix(12,0,0,12,517.2,818.7)" />
<use xlink:href="#f0_2g" transform="matrix(12,0,0,12,526.4,818.7)" />
<use xlink:href="#f0_2b" transform="matrix(12,0,0,12,534.3,818.7)" />
<use xlink:href="#f0_22" transform="matrix(12,0,0,12,543.4,818.7)" />
<use xlink:href="#f0_25" transform="matrix(12,0,0,12,552.2,818.7)" />
<use xlink:href="#f0_2a" transform="matrix(12,0,0,12,557.3,818.7)" />
<use xlink:href="#f0_2g" transform="matrix(12,0,0,12,566.5,818.7)" />
<use xlink:href="#f0_21" transform="matrix(12,0,0,12,571.6,818.7)" />
<use xlink:href="#f0_2e" transform="matrix(12,0,0,12,579.7,818.7)" />
<use xlink:href="#f0_2f" transform="matrix(12,0,0,12,585.8,818.7)" />
<use xlink:href="#f0_21" transform="matrix(12,0,0,12,593,818.7)" />
<use xlink:href="#f0_1z" transform="matrix(12,0,0,12,601.1,818.7)" />
<use xlink:href="#f0_2g" transform="matrix(12,0,0,12,609.2,818.7)" />
<use xlink:href="#f0_25" transform="matrix(12,0,0,12,614.3,818.7)" />
<use xlink:href="#f0_2b" transform="matrix(12,0,0,12,619.4,818.7)" />
<use xlink:href="#f0_2a" transform="matrix(12,0,0,12,628.6,818.7)" />
<use xlink:href="#f0_2b" transform="matrix(12,0,0,12,640.5,818.7)" />
<use xlink:href="#f0_22" transform="matrix(12,0,0,12,649.7,818.7)" />
<use xlink:href="#f0_2g" transform="matrix(12,0,0,12,658.5,818.7)" />
<use xlink:href="#f0_24" transform="matrix(12,0,0,12,663.6,818.7)" />
<use xlink:href="#f0_21" transform="matrix(12,0,0,12,672.7,818.7)" />
<use xlink:href="#f0_28" transform="matrix(12,0,0,12,683.5,818.7)" />
<use xlink:href="#f0_25" transform="matrix(12,0,0,12,688.6,818.7)" />
<use xlink:href="#f0_2a" transform="matrix(12,0,0,12,693.7,818.7)" />
<use xlink:href="#f0_21" transform="matrix(12,0,0,12,702.9,818.7)" />
</g>
<g clip-path="url(#c4_24)">
<g fill="#000000" >
<use xlink:href="#f5_4" transform="matrix(13.1,0,0,12.1,182.6,854.6)" />
</g>
</g>
<g fill="#000000" >
<use xlink:href="#f5_4" transform="matrix(13.7,0,0,12.1,218,854.6)" />
</g>
<g clip-path="url(#c5_24)">
<g fill="#000000" >
<use xlink:href="#f5_4" transform="matrix(13.1,0,0,12.1,303.8,854.6)" />
</g>
</g>
<g fill="#000000" >
<use xlink:href="#f5_4" transform="matrix(13.7,0,0,12.1,339.2,854.6)" />
</g>
<g clip-path="url(#c6_24)">
<g fill="#000000" >
<use xlink:href="#f2_c" transform="matrix(11.8,0,0,22.6,255.8,864.7)" />
</g>
</g>
<g fill="#000000" >
<use xlink:href="#f2_d" transform="matrix(11.8,0,0,22.6,348.7,864.7)" />
<use xlink:href="#f0_m" transform="matrix(12.1,0,0,12.1,150.9,861.1)" />
<use xlink:href="#f0_m" transform="matrix(12.1,0,0,12.1,207.3,861.1)" />
<use xlink:href="#f0_n" transform="matrix(12.1,0,0,12.1,262.9,861.1)" />
<use xlink:href="#f0_o" transform="matrix(12.1,0,0,12.1,293.1,861.1)" />
<use xlink:href="#f0_m" transform="matrix(12.1,0,0,12.1,328.5,861.1)" />
<use xlink:href="#f1_2e" transform="matrix(12.1,0,0,12.1,124.1,861.1)" />
<use xlink:href="#f1_25" transform="matrix(12.1,0,0,12.1,159.7,861.1)" />
<use xlink:href="#f1_26" transform="matrix(12.1,0,0,12.1,185,861.1)" />
<use xlink:href="#f1_27" transform="matrix(12.1,0,0,12.1,216.9,861.1)" />
<use xlink:href="#f1_25" transform="matrix(12.1,0,0,12.1,271.1,861.1)" />
<use xlink:href="#f1_26" transform="matrix(12.1,0,0,12.1,306.1,861.1)" />
<use xlink:href="#f1_27" transform="matrix(12.1,0,0,12.1,338,861.1)" />
<use xlink:href="#f6_28" transform="matrix(12.1,0,-3.3,12.1,242.6,861.1)" />
<use xlink:href="#f2_x" transform="matrix(12.1,0,0,12.1,136.4,861.1)" />
<use xlink:href="#f2_h" transform="matrix(12.1,0,0,12.1,168.3,861.1)" />
<use xlink:href="#f2_f" transform="matrix(12.1,0,0,12.1,193.8,861.1)" />
<use xlink:href="#f2_f" transform="matrix(12.1,0,0,12.1,229.3,861.1)" />
<use xlink:href="#f2_f" transform="matrix(12.1,0,0,12.1,279.7,861.1)" />
<use xlink:href="#f2_f" transform="matrix(12.1,0,0,12.1,314.9,861.1)" />
<use xlink:href="#f5_20" transform="matrix(12.1,0,0,12.1,124.3,844.6)" />
<use xlink:href="#f5_4" transform="matrix(12.1,0,0,12.1,159.3,854.6)" />
<use xlink:href="#f5_4" transform="matrix(12.1,0,0,12.1,270.8,854.6)" />
<use xlink:href="#f0_1x" transform="matrix(12,0,0,12,361.9,863.1)" />
<use xlink:href="#f0_2a" transform="matrix(12,0,0,12,369.8,863.1)" />
<use xlink:href="#f0_20" transform="matrix(12,0,0,12,379,863.1)" />
<use xlink:href="#f0_2g" transform="matrix(12,0,0,12,391.2,863.1)" />
<use xlink:href="#f0_24" transform="matrix(12,0,0,12,396.2,863.1)" />
<use xlink:href="#f0_21" transform="matrix(12,0,0,12,405.4,863.1)" />
<use xlink:href="#f0_2c" transform="matrix(12,0,0,12,416.7,863.1)" />
<use xlink:href="#f0_28" transform="matrix(12,0,0,12,425.7,863.1)" />
<use xlink:href="#f0_1x" transform="matrix(12,0,0,12,430.8,863.1)" />
<use xlink:href="#f0_2a" transform="matrix(12,0,0,12,438.7,863.1)" />
<use xlink:href="#f0_21" transform="matrix(12,0,0,12,447.9,863.1)" />
<use xlink:href="#f5_4" transform="matrix(13,0,0,12.1,508.6,855.4)" />
<use xlink:href="#f5_4" transform="matrix(13.6,0,0,12.1,534.2,855.4)" />
</g>
<g clip-path="url(#c7_24)">
<g fill="#000000" >
<use xlink:href="#f2_c" transform="matrix(11.8,0,0,22.6,478.7,865.5)" />
</g>
</g>
<g fill="#000000" >
<use xlink:href="#f2_d" transform="matrix(11.8,0,0,22.6,543.8,865.5)" />
<use xlink:href="#f0_p" transform="matrix(12.1,0,0,12.1,567.4,861.8)" />
<use xlink:href="#f1_2e" transform="matrix(12.1,0,0,12.1,462.2,861.8)" />
<use xlink:href="#f1_25" transform="matrix(12.1,0,0,12.1,485.6,861.8)" />
<use xlink:href="#f1_26" transform="matrix(12.1,0,0,12.1,510.8,861.8)" />
<use xlink:href="#f1_27" transform="matrix(12.1,0,0,12.1,532.9,861.8)" />
<use xlink:href="#f2_49" transform="matrix(12.1,0,0,12.1,472.5,861.8)" />
<use xlink:href="#f2_h" transform="matrix(12.1,0,0,12.1,494.3,861.8)" />
<use xlink:href="#f2_f" transform="matrix(12.1,0,0,12.1,519.6,861.8)" />
<use xlink:href="#f2_x" transform="matrix(12.1,0,0,12.1,553.7,861.8)" />
<use xlink:href="#f5_20" transform="matrix(12.1,0,0,12.1,462.4,845.3)" />
<use xlink:href="#f5_4" transform="matrix(12.1,0,0,12.1,485.3,855.4)" />
<use xlink:href="#f0_1j" transform="matrix(12,0,0,12,64.9,904)" />
<use xlink:href="#f0_2b" transform="matrix(12,0,0,12,74.1,904)" />
<use xlink:href="#f0_28" transform="matrix(12,0,0,12,82.1,904)" />
<use xlink:href="#f0_u" transform="matrix(12,0,0,12,86.2,904)" />
<use xlink:href="#f0_13" transform="matrix(12,0,0,12,121.9,904)" />
<use xlink:href="#f0_1x" transform="matrix(12,0,0,12,133.8,904)" />
<use xlink:href="#f0_2e" transform="matrix(12,0,0,12,141.5,904)" />
<use xlink:href="#f0_2g" transform="matrix(12,0,0,12,147.2,904)" />
<use xlink:href="#f0_21" transform="matrix(12,0,0,12,152,904)" />
<use xlink:href="#f0_2f" transform="matrix(12,0,0,12,159.7,904)" />
<use xlink:href="#f0_25" transform="matrix(12,0,0,12,166.5,904)" />
<use xlink:href="#f0_1x" transform="matrix(12,0,0,12,171.2,904)" />
<use xlink:href="#f0_2a" transform="matrix(12,0,0,12,178.9,904)" />
<use xlink:href="#f0_21" transform="matrix(12,0,0,12,191,904)" />
<use xlink:href="#f0_2d" transform="matrix(12,0,0,12,198.7,904)" />
<use xlink:href="#f0_2h" transform="matrix(12,0,0,12,207.5,904)" />
<use xlink:href="#f0_1x" transform="matrix(12,0,0,12,216.3,904)" />
<use xlink:href="#f0_2g" transform="matrix(12,0,0,12,224,904)" />
<use xlink:href="#f0_25" transform="matrix(12,0,0,12,228.8,904)" />
<use xlink:href="#f0_2b" transform="matrix(12,0,0,12,233.6,904)" />
<use xlink:href="#f0_2a" transform="matrix(12,0,0,12,242.4,904)" />
<use xlink:href="#f0_2b" transform="matrix(12,0,0,12,254.3,904)" />
<use xlink:href="#f0_22" transform="matrix(12,0,0,12,263.1,904)" />
<use xlink:href="#f0_28" transform="matrix(12,0,0,12,271.7,904)" />
<use xlink:href="#f0_25" transform="matrix(12,0,0,12,276.5,904)" />
<use xlink:href="#f0_2a" transform="matrix(12,0,0,12,281.2,904)" />
<use xlink:href="#f0_21" transform="matrix(12,0,0,12,290,904)" />
<use xlink:href="#f0_1x" transform="matrix(12,0,0,12,300.8,904)" />
<use xlink:href="#f0_2a" transform="matrix(12,0,0,12,308.7,904)" />
<use xlink:href="#f0_20" transform="matrix(12,0,0,12,317.5,904)" />
<use xlink:href="#f0_2c" transform="matrix(12,0,0,12,329.4,904)" />
<use xlink:href="#f0_28" transform="matrix(12,0,0,12,338.2,904)" />
<use xlink:href="#f0_1x" transform="matrix(12,0,0,12,343,904)" />
<use xlink:href="#f0_2a" transform="matrix(12,0,0,12,350.7,904)" />
<use xlink:href="#f0_21" transform="matrix(12,0,0,12,359.5,904)" />
<use xlink:href="#f0_g" transform="matrix(12,0,0,12,367.2,904)" />
</g>
<path d="M124.2,944.5h36.5m19.5,0h34.4m19.5,0H270" class="g1_24" />
<g fill="#000000" >
<use xlink:href="#f2_c" transform="matrix(11.8,0,0,15.6,320.5,950.3)" />
<use xlink:href="#f2_d" transform="matrix(11.8,0,0,15.6,362.6,950.3)" />
<use xlink:href="#f0_m" transform="matrix(11.9,0,0,11.9,150.9,937.5)" />
<use xlink:href="#f0_l" transform="matrix(11.9,0,0,11.9,206.2,937.5)" />
<use xlink:href="#f0_m" transform="matrix(11.9,0,0,11.9,260.3,937.5)" />
<use xlink:href="#f0_u" transform="matrix(11.9,0,0,11.9,313.1,949.1)" />
<use xlink:href="#f0_1c" transform="matrix(11.9,0,0,11.9,328.2,949.1)" />
<use xlink:href="#f0_25" transform="matrix(11.9,0,0,11.9,339,949.1)" />
<use xlink:href="#f0_2a" transform="matrix(11.9,0,0,11.9,344.1,949.1)" />
<use xlink:href="#f0_21" transform="matrix(11.9,0,0,11.9,353.3,949.1)" />
<use xlink:href="#f0_n" transform="matrix(11.9,0,0,11.9,138.2,963.2)" />
<use xlink:href="#f0_o" transform="matrix(11.9,0,0,11.9,193,963.2)" />
<use xlink:href="#f0_m" transform="matrix(11.9,0,0,11.9,247.9,963.2)" />
<use xlink:href="#f1_2k" transform="matrix(11.9,0,0,11.9,126.3,937.5)" />
<use xlink:href="#f1_2l" transform="matrix(11.9,0,0,11.9,183.1,937.5)" />
<use xlink:href="#f1_2m" transform="matrix(11.9,0,0,11.9,236.1,937.5)" />
<use xlink:href="#f2_h" transform="matrix(11.9,0,0,11.9,137.7,937.5)" />
<use xlink:href="#f2_f" transform="matrix(11.9,0,0,11.9,194.9,937.5)" />
<use xlink:href="#f2_h" transform="matrix(11.9,0,0,11.9,247.1,937.5)" />
<use xlink:href="#f2_x" transform="matrix(11.9,0,0,11.9,165.5,949.1)" />
<use xlink:href="#f2_x" transform="matrix(11.9,0,0,11.9,219.4,949.1)" />
<use xlink:href="#f2_c" transform="matrix(11.8,0,0,15.8,300.7,996.9)" />
<use xlink:href="#f2_d" transform="matrix(11.8,0,0,15.8,350,996.9)" />
<use xlink:href="#f0_p" transform="matrix(12.1,0,0,12.1,200.9,995.4)" />
<use xlink:href="#f0_k" transform="matrix(12.1,0,0,12.1,227.9,995.4)" />
<use xlink:href="#f0_u" transform="matrix(12.1,0,0,12.1,288.7,995.4)" />
<use xlink:href="#f0_1g" transform="matrix(12.1,0,0,12.1,308.3,995.4)" />
<use xlink:href="#f0_28" transform="matrix(12.1,0,0,12.1,318.6,995.4)" />
<use xlink:href="#f0_1x" transform="matrix(12.1,0,0,12.1,323.5,995.4)" />
<use xlink:href="#f0_2a" transform="matrix(12.1,0,0,12.1,331.6,995.4)" />
<use xlink:href="#f0_21" transform="matrix(12.1,0,0,12.1,340.8,995.4)" />
<use xlink:href="#f1_2k" transform="matrix(12.1,0,0,12.1,124.9,995.4)" />
<use xlink:href="#f1_2l" transform="matrix(12.1,0,0,12.1,151.2,995.4)" />
<use xlink:href="#f1_2m" transform="matrix(12.1,0,0,12.1,177.3,995.4)" />
<use xlink:href="#f2_h" transform="matrix(12.1,0,0,12.1,136.2,995.4)" />
<use xlink:href="#f2_f" transform="matrix(12.1,0,0,12.1,163,995.4)" />
<use xlink:href="#f2_h" transform="matrix(12.1,0,0,12.1,188.3,995.4)" />
<use xlink:href="#f2_x" transform="matrix(12.1,0,0,12.1,213.7,995.4)" />
<use xlink:href="#f0_1c" transform="matrix(12,0,0,12,121.2,1033.2)" />
<use xlink:href="#f0_21" transform="matrix(12,0,0,12,131.6,1033.2)" />
<use xlink:href="#f0_2g" transform="matrix(12,0,0,12,139.5,1033.2)" />
<use xlink:href="#f0_1h" transform="matrix(12,0,0,12,147.4,1033.2)" />
<use xlink:href="#f2_c" transform="matrix(11.8,0,0,15.9,165.7,1033.9)" />
<use xlink:href="#f2_d" transform="matrix(11.8,0,0,15.9,222.8,1033.9)" />
<use xlink:href="#f0_g" transform="matrix(12.2,0,0,12.2,185.4,1032.7)" />
<use xlink:href="#f0_g" transform="matrix(12.2,0,0,12.2,204.8,1032.7)" />
</g>
<g clip-path="url(#c8_24)">
<g fill="#000000" >
<use xlink:href="#f6_1x" transform="matrix(12.2,0,-3.3,12.2,172,1032.7)" />
<use xlink:href="#f6_1y" transform="matrix(12.2,0,-3.3,12.2,192.5,1032.7)" />
<use xlink:href="#f6_23" transform="matrix(12.2,0,-3.3,12.2,210.8,1032.7)" />
</g>
</g>
<g fill="#000000" >
<use xlink:href="#f0_1y" transform="matrix(12,0,0,12,235,1033.2)" />
<use xlink:href="#f0_21" transform="matrix(12,0,0,12,243.8,1033.2)" />
<use xlink:href="#f0_2c" transform="matrix(12,0,0,12,254.8,1033.2)" />
<use xlink:href="#f0_2b" transform="matrix(12,0,0,12,263.6,1033.2)" />
<use xlink:href="#f0_25" transform="matrix(12,0,0,12,272.4,1033.2)" />
<use xlink:href="#f0_2a" transform="matrix(12,0,0,12,277.2,1033.2)" />
<use xlink:href="#f0_2g" transform="matrix(12,0,0,12,286,1033.2)" />
<use xlink:href="#f0_2b" transform="matrix(12,0,0,12,293.9,1033.2)" />
<use xlink:href="#f0_22" transform="matrix(12,0,0,12,302.7,1033.2)" />
<use xlink:href="#f0_25" transform="matrix(12,0,0,12,311.5,1033.2)" />
<use xlink:href="#f0_2a" transform="matrix(12,0,0,12,316.2,1033.2)" />
<use xlink:href="#f0_2g" transform="matrix(12,0,0,12,325.2,1033.2)" />
<use xlink:href="#f0_21" transform="matrix(12,0,0,12,330,1033.2)" />
<use xlink:href="#f0_2e" transform="matrix(12,0,0,12,337.7,1033.2)" />
<use xlink:href="#f0_2f" transform="matrix(12,0,0,12,343.4,1033.2)" />
<use xlink:href="#f0_21" transform="matrix(12,0,0,12,350.2,1033.2)" />
<use xlink:href="#f0_1z" transform="matrix(12,0,0,12,357.9,1033.2)" />
<use xlink:href="#f0_2g" transform="matrix(12,0,0,12,365.7,1033.2)" />
<use xlink:href="#f0_25" transform="matrix(12,0,0,12,370.5,1033.2)" />
<use xlink:href="#f0_2b" transform="matrix(12,0,0,12,375.3,1033.2)" />
<use xlink:href="#f0_2a" transform="matrix(12,0,0,12,384.1,1033.2)" />
<use xlink:href="#f0_2b" transform="matrix(12,0,0,12,396,1033.2)" />
<use xlink:href="#f0_22" transform="matrix(12,0,0,12,405,1033.2)" />
<use xlink:href="#f0_28" transform="matrix(12,0,0,12,413.8,1033.2)" />
<use xlink:href="#f0_25" transform="matrix(12,0,0,12,418.5,1033.2)" />
<use xlink:href="#f0_2a" transform="matrix(12,0,0,12,423.3,1033.2)" />
<use xlink:href="#f0_21" transform="matrix(12,0,0,12,432.1,1033.2)" />
<use xlink:href="#f0_1x" transform="matrix(12,0,0,12,442.9,1033.2)" />
<use xlink:href="#f0_2a" transform="matrix(12,0,0,12,450.6,1033.2)" />
<use xlink:href="#f0_20" transform="matrix(12,0,0,12,459.4,1033.2)" />
<use xlink:href="#f0_2c" transform="matrix(12,0,0,12,471.4,1033.2)" />
<use xlink:href="#f0_28" transform="matrix(12,0,0,12,480.3,1033.2)" />
<use xlink:href="#f0_1x" transform="matrix(12,0,0,12,485.1,1033.2)" />
<use xlink:href="#f0_2a" transform="matrix(12,0,0,12,492.8,1033.2)" />
<use xlink:href="#f0_21" transform="matrix(12,0,0,12,501.6,1033.2)" />
<use xlink:href="#f0_2j" transform="matrix(12,0,0,12,512.6,1033.2)" />
<use xlink:href="#f0_24" transform="matrix(12,0,0,12,525.4,1033.2)" />
<use xlink:href="#f0_25" transform="matrix(12,0,0,12,534.2,1033.2)" />
<use xlink:href="#f0_1z" transform="matrix(12,0,0,12,539,1033.2)" />
<use xlink:href="#f0_24" transform="matrix(12,0,0,12,546.7,1033.2)" />
<use xlink:href="#f0_2j" transform="matrix(12,0,0,12,558.8,1033.2)" />
<use xlink:href="#f0_25" transform="matrix(12,0,0,12,571.6,1033.2)" />
<use xlink:href="#f0_28" transform="matrix(12,0,0,12,576.4,1033.2)" />
<use xlink:href="#f0_28" transform="matrix(12,0,0,12,581.2,1033.2)" />
<use xlink:href="#f0_2f" transform="matrix(12,0,0,12,588.9,1033.2)" />
<use xlink:href="#f0_1x" transform="matrix(12,0,0,12,595.8,1033.2)" />
<use xlink:href="#f0_2g" transform="matrix(12,0,0,12,603.5,1033.2)" />
<use xlink:href="#f0_25" transform="matrix(12,0,0,12,608.3,1033.2)" />
<use xlink:href="#f0_2f" transform="matrix(12,0,0,12,613.1,1033.2)" />
<use xlink:href="#f0_22" transform="matrix(12,0,0,12,619.9,1033.2)" />
<use xlink:href="#f0_2l" transform="matrix(12,0,0,12,625.5,1033.2)" />
<use xlink:href="#f0_1y" transform="matrix(12,0,0,12,637.1,1033.2)" />
<use xlink:href="#f0_2b" transform="matrix(12,0,0,12,645.9,1033.2)" />
<use xlink:href="#f0_2g" transform="matrix(12,0,0,12,654.7,1033.2)" />
<use xlink:href="#f0_24" transform="matrix(12,0,0,12,659.5,1033.2)" />
<use xlink:href="#f0_21" transform="matrix(12,0,0,12,671.6,1033.2)" />
<use xlink:href="#f0_2d" transform="matrix(12,0,0,12,679.3,1033.2)" />
<use xlink:href="#f0_2h" transform="matrix(12,0,0,12,688.1,1033.2)" />
<use xlink:href="#f0_1x" transform="matrix(12,0,0,12,696.9,1033.2)" />
<use xlink:href="#f0_2g" transform="matrix(12,0,0,12,704.6,1033.2)" />
<use xlink:href="#f0_25" transform="matrix(12,0,0,12,709.3,1033.2)" />
<use xlink:href="#f0_2b" transform="matrix(12,0,0,12,714.3,1033.2)" />
<use xlink:href="#f0_2a" transform="matrix(12,0,0,12,723.1,1033.2)" />
<use xlink:href="#f0_i" transform="matrix(12,0,0,12,731.9,1033.2)" />
</g>
<path d="M124.2,1075.6h39.3m19.5,0h36.6m19.5,0h37" class="g2_24" />
<g fill="#000000" >
<use xlink:href="#f0_m" transform="matrix(11.9,0,0,11.9,153.8,1068.6)" />
<use xlink:href="#f0_l" transform="matrix(11.9,0,0,11.9,211.4,1068.6)" />
<use xlink:href="#f0_m" transform="matrix(11.9,0,0,11.9,266.4,1068.6)" />
<use xlink:href="#f0_c" transform="matrix(11.9,0,0,11.9,311.7,1080.1)" />
<use xlink:href="#f0_2f" transform="matrix(11.9,0,0,11.9,317.5,1080.1)" />
<use xlink:href="#f0_1x" transform="matrix(11.9,0,0,11.9,324.7,1080.1)" />
<use xlink:href="#f0_2l" transform="matrix(11.9,0,0,11.9,332.7,1080.1)" />
<use xlink:href="#f0_d" transform="matrix(11.9,0,0,11.9,341.4,1080.1)" />
<use xlink:href="#f0_n" transform="matrix(11.9,0,0,11.9,139.5,1094.3)" />
<use xlink:href="#f0_o" transform="matrix(11.9,0,0,11.9,197.1,1094.3)" />
<use xlink:href="#f0_m" transform="matrix(11.9,0,0,11.9,253.3,1094.3)" />
</g>
<g clip-path="url(#c9_24)">
<g fill="#000000" >
<use xlink:href="#f6_1x" transform="matrix(11.9,0,-3.2,11.9,123.9,1068.6)" />
<use xlink:href="#f6_1y" transform="matrix(11.9,0,-3.2,11.9,184.4,1068.6)" />
<use xlink:href="#f6_23" transform="matrix(11.9,0,-3.2,11.9,239.4,1068.6)" />
</g>
</g>
<g fill="#000000" >
<use xlink:href="#f6_28" transform="matrix(11.9,0,-3.2,11.9,295,1080.1)" />
<use xlink:href="#f2_h" transform="matrix(11.9,0,0,11.9,140.6,1068.6)" />
<use xlink:href="#f2_f" transform="matrix(11.9,0,0,11.9,199.8,1068.6)" />
<use xlink:href="#f2_h" transform="matrix(11.9,0,0,11.9,253.2,1068.6)" />
<use xlink:href="#f2_x" transform="matrix(11.9,0,0,11.9,168.3,1080.1)" />
<use xlink:href="#f2_x" transform="matrix(11.9,0,0,11.9,224.6,1080.1)" />
<use xlink:href="#f2_x" transform="matrix(11.9,0,0,11.9,280.8,1080.1)" />
<use xlink:href="#f0_n" transform="matrix(11.9,0,0,11.9,154,1122.3)" />
<use xlink:href="#f0_m" transform="matrix(11.9,0,0,11.9,190.5,1122.3)" />
<use xlink:href="#f0_g" transform="matrix(11.9,0,0,11.9,199.3,1122.3)" />
<use xlink:href="#f0_o" transform="matrix(11.9,0,0,11.9,237.4,1122.3)" />
<use xlink:href="#f0_l" transform="matrix(11.9,0,0,11.9,272,1122.3)" />
<use xlink:href="#f0_g" transform="matrix(11.9,0,0,11.9,279.6,1122.3)" />
<use xlink:href="#f0_m" transform="matrix(11.9,0,0,11.9,314.8,1122.3)" />
<use xlink:href="#f0_m" transform="matrix(11.9,0,0,11.9,351.6,1122.3)" />
</g>
<g clip-path="url(#c10_24)">
<g fill="#000000" >
<use xlink:href="#f6_1x" transform="matrix(11.9,0,-3.2,11.9,122.5,1122.3)" />
<use xlink:href="#f6_28" transform="matrix(11.9,0,-3.2,11.9,162.6,1122.3)" />
<use xlink:href="#f6_1y" transform="matrix(11.9,0,-3.2,11.9,206.4,1122.3)" />
<use xlink:href="#f6_28" transform="matrix(11.9,0,-3.2,11.9,246.6,1122.3)" />
<use xlink:href="#f6_23" transform="matrix(11.9,0,-3.2,11.9,285.4,1122.3)" />
<use xlink:href="#f6_28" transform="matrix(11.9,0,-3.2,11.9,323.9,1122.3)" />
</g>
</g>
<g fill="#000000" >
<use xlink:href="#f2_x" transform="matrix(11.9,0,0,11.9,140.3,1122.3)" />
<use xlink:href="#f2_f" transform="matrix(11.9,0,0,11.9,176.9,1122.3)" />
<use xlink:href="#f2_x" transform="matrix(11.9,0,0,11.9,223.1,1122.3)" />
<use xlink:href="#f2_h" transform="matrix(11.9,0,0,11.9,260.9,1122.3)" />
<use xlink:href="#f2_x" transform="matrix(11.9,0,0,11.9,300.4,1122.3)" />
<use xlink:href="#f2_f" transform="matrix(11.9,0,0,11.9,338.2,1122.3)" />
<use xlink:href="#f0_1x" transform="matrix(12,0,0,12,121.2,1150.7)" />
<use xlink:href="#f0_28" transform="matrix(12,0,0,12,129.1,1150.7)" />
<use xlink:href="#f0_2f" transform="matrix(12,0,0,12,134,1150.7)" />
<use xlink:href="#f0_2b" transform="matrix(12,0,0,12,141,1150.7)" />
<use xlink:href="#f0_p" transform="matrix(11.8,0,0,11.8,238.9,1151.3)" />
<use xlink:href="#f0_k" transform="matrix(11.8,0,0,11.8,265.6,1151.3)" />
</g>
<g clip-path="url(#c11_24)">
<g fill="#000000" >
<use xlink:href="#f6_1x" transform="matrix(11.8,0,-3.2,11.8,154.6,1151.3)" />
<use xlink:href="#f6_1y" transform="matrix(11.8,0,-3.2,11.8,184.6,1151.3)" />
<use xlink:href="#f6_23" transform="matrix(11.8,0,-3.2,11.8,212.5,1151.3)" />
</g>
</g>
<g fill="#000000" >
<use xlink:href="#f2_h" transform="matrix(11.8,0,0,11.8,171.2,1151.3)" />
<use xlink:href="#f2_f" transform="matrix(11.8,0,0,11.8,200,1151.3)" />
<use xlink:href="#f2_h" transform="matrix(11.8,0,0,11.8,226.2,1151.3)" />
<use xlink:href="#f2_x" transform="matrix(11.8,0,0,11.8,251.7,1151.3)" />
<use xlink:href="#f0_n" transform="matrix(12.2,0,0,12.2,123.4,1180.8)" />
<use xlink:href="#f0_m" transform="matrix(12.2,0,0,12.2,159.8,1180.8)" />
<use xlink:href="#f0_o" transform="matrix(12.2,0,0,12.2,185.1,1180.8)" />
<use xlink:href="#f0_l" transform="matrix(12.2,0,0,12.2,220.1,1180.8)" />
<use xlink:href="#f0_m" transform="matrix(12.2,0,0,12.2,244.1,1180.8)" />
<use xlink:href="#f0_m" transform="matrix(12.2,0,0,12.2,281.2,1180.8)" />
<use xlink:href="#f0_p" transform="matrix(12.2,0,0,12.2,305.9,1180.8)" />
<use xlink:href="#f0_k" transform="matrix(12.2,0,0,12.2,332.9,1180.8)" />
<use xlink:href="#f6_28" transform="matrix(12.2,0,-3.3,12.2,132,1180.8)" />
<use xlink:href="#f6_28" transform="matrix(12.2,0,-3.3,12.2,194.3,1180.8)" />
<use xlink:href="#f6_28" transform="matrix(12.2,0,-3.3,12.2,253.3,1180.8)" />
<use xlink:href="#f2_f" transform="matrix(12.2,0,0,12.2,146.3,1180.8)" />
<use xlink:href="#f2_h" transform="matrix(12.2,0,0,12.2,172,1180.8)" />
<use xlink:href="#f2_f" transform="matrix(12.2,0,0,12.2,208.6,1180.8)" />
<use xlink:href="#f2_f" transform="matrix(12.2,0,0,12.2,230.8,1180.8)" />
<use xlink:href="#f2_f" transform="matrix(12.2,0,0,12.2,267.6,1180.8)" />
<use xlink:href="#f2_h" transform="matrix(12.2,0,0,12.2,293.3,1180.8)" />
<use xlink:href="#f2_x" transform="matrix(12.2,0,0,12.2,318.8,1180.8)" />
<use xlink:href="#f7_m" transform="matrix(8,0,0,8,785.4,1264.3)" />
<use xlink:href="#f7_o" transform="matrix(8,0,0,8,792.2,1264.3)" />
</g>
<defs>
<path d="M197,0V27c0,0,71,2,92,13c0,0,21,10,29,29c0,0,9,18,9,109V725c0,0,0,110,-8,141c0,0,-5,24,-19,35c0,0,-14,11,-33,11c0,0,-28,0,-77,-23l-11,23l246,121h25V178c0,0,0,-85,7,-106c0,0,7,-21,29,-32c0,0,23,-11,91,-13V0Z" 
id="f0_l"
transform="scale(0.001,-0.001)" />

<path d="M33,0V27c0,0,264,241,371,393c0,0,108,152,108,278c0,0,0,96,-59,158c0,0,-59,62,-141,62c0,0,-75,0,-134,-43c0,0,-59,-44,-88,-128H63c0,0,18,138,95,212c0,0,77,74,193,74c0,0,123,0,205,-80c0,0,83,-79,83,-186c0,0,0,-77,-36,-154c0,0,-55,-121,-179,-256C424,357,238,154,191,112H455c0,0,81,0,114,6c0,0,32,6,58,25c0,0,27,18,46,52h27L630,0Z" 
id="f0_m"
transform="scale(0.001,-0.001)" />

<path d="M238,-17c0,0,-103,0,-139,25C99,8,62,33,62,62c0,0,0,22,17,38c0,0,18,16,42,16c0,0,19,0,38,-6c0,0,13,-3,58,-27c0,0,45,-23,62,-28c0,0,27,-8,59,-8c0,0,76,0,132,59c0,0,56,59,56,140c0,0,0,59,-26,115c0,0,-19,41,-42,63c0,0,-32,30,-88,54c0,0,-56,25,-114,25H232v22c0,0,59,8,118,42c0,0,59,35,86,85c0,0,27,49,27,108c0,0,0,76,-48,124c0,0,-48,47,-120,47c0,0,-116,0,-193,-124L77,819c0,0,44,102,110,158c0,0,66,56,164,56c0,0,122,0,187,-80c0,0,49,-58,49,-126c0,0,0,-110,-139,-228c0,0,93,-36,141,-104c0,0,48,-68,48,-160c0,0,0,-131,-84,-227C553,108,444,-17,238,-17Z" 
id="f0_n"
transform="scale(0.001,-0.001)" />

<path d="M379,29c0,0,41,0,84,37c0,0,43,36,65,121c0,0,34,128,34,362c0,0,0,173,-35,288c0,0,-27,86,-69,122c0,0,-31,25,-74,25c0,0,-51,0,-90,-46c0,0,-54,-62,-73,-195c0,0,-20,-132,-20,-261c0,0,0,-209,52,-341c0,0,42,-112,126,-112Zm-2,-46c0,0,-145,0,-241,170c0,0,-81,144,-81,347c0,0,0,173,52,298c0,0,52,125,139,186c0,0,67,49,139,49c0,0,116,0,208,-119c0,0,116,-147,116,-398c0,0,0,-176,-51,-299C658,217,608,94,529,38c0,0,-79,-55,-152,-55Z" 
id="f0_k"
transform="scale(0.001,-0.001)" />

<path d="M247,-17c0,0,-91,0,-132,30c0,0,-42,31,-42,68c0,0,0,21,17,37c0,0,18,16,44,17c0,0,19,0,34,-6c0,0,14,-7,49,-31c0,0,56,-39,113,-39c0,0,88,0,154,66c0,0,66,66,66,161c0,0,0,92,-59,171c0,0,-59,80,-163,123c0,0,-81,34,-221,39l194,393H663L605,885H301L234,750c0,0,198,-29,313,-147c0,0,100,-102,100,-239c0,0,0,-80,-33,-148c0,0,-32,-68,-81,-116c0,0,-50,-47,-110,-77c0,0,-86,-40,-176,-40Z" 
id="f0_p"
transform="scale(0.001,-0.001)" />

<path d="M275,-20L578,891H299c0,0,-84,0,-120,-20c0,0,-63,-35,-101,-106l-21,8l97,239H696V983L359,-20Z" 
id="f0_r"
transform="scale(0.001,-0.001)" />

<path d="M452,373V875L97,373ZM452,0V267H23v95l470,671h82V373H711V267H575V0Z" 
id="f0_o"
transform="scale(0.001,-0.001)" />

<path d="M600,387l39,398L345,387ZM-74,0l8,26c0,0,55,3,97,37c0,0,42,35,125,149l605,822h26L710,193c0,0,-6,-59,-6,-78c0,0,0,-30,11,-46c0,0,14,-22,39,-32c0,0,24,-11,81,-11L827,0H429l8,26h17c0,0,49,0,79,21c0,0,22,15,34,48c0,0,8,23,15,109l13,128H305L202,193c0,0,-35,-47,-44,-68c0,0,-9,-20,-9,-38c0,0,0,-25,20,-42c0,0,19,-17,64,-19L225,0Z" 
id="f1_11"
transform="scale(0.001,-0.001)" />

<path d="M0,356v74H784V356Z" 
id="f2_h"
transform="scale(0.001,-0.001)" />

<path d="M0,-123V1415H525v-72H72V-123Z" 
id="f2_4r"
transform="scale(0.001,-0.001)" />

<path d="M478,-123V1343H26v72H550V-123Z" 
id="f2_57"
transform="scale(0.001,-0.001)" />

<path d="M0,-123V1415H72V-123Z" 
id="f2_4s"
transform="scale(0.001,-0.001)" />

<path d="M0,-123V1415H72V-123Z" 
id="f2_58"
transform="scale(0.001,-0.001)" />

<path d="M0,214v74H784V214ZM0,494v72H784V494Z" 
id="f2_x"
transform="scale(0.001,-0.001)" />

<path d="M0,-123V1415H72V-51H525v-72Z" 
id="f2_4t"
transform="scale(0.001,-0.001)" />

<path d="M26,-123v72H478V1415h72V-123Z" 
id="f2_59"
transform="scale(0.001,-0.001)" />

<path d="M453,539c0,0,129,0,204,71c0,0,75,72,75,178c0,0,0,83,-48,127c0,0,-48,44,-144,44c0,0,-24,0,-58,-6L367,545c0,0,48,-6,86,-6ZM-34,0l8,26c0,0,54,3,74,12c0,0,30,12,45,34c0,0,24,36,50,125L316,809c0,0,18,61,18,95c0,0,0,35,-28,58c0,0,-27,24,-78,24q-1,0,-2,0l9,26H566c0,0,167,0,240,-63c0,0,73,-62,73,-164c0,0,0,-98,-74,-179c0,0,-75,-81,-204,-102L698,207c0,0,36,-110,72,-143c0,0,36,-33,116,-38L877,0H635L473,492c0,0,-1,0,-2,0c-12,0,-63,0,-117,11L265,184c0,0,-18,-56,-18,-94c0,0,0,-29,22,-46c0,0,16,-12,90,-18L352,0Z" 
id="f1_1i"
transform="scale(0.001,-0.001)" />

<path d="M945,-20c0,0,47,75,125,153H57v74H1147l108,91c0,0,23,19,95,72c0,0,-134,103,-203,166H57v72H1070c0,0,-78,78,-125,154h85c0,0,88,-107,217,-217c0,0,130,-110,206,-154V349c0,0,-101,-58,-219,-162c0,0,-118,-103,-204,-207Z" 
id="f2_4g"
transform="scale(0.001,-0.001)" />

<path d="M106,-253v33c0,0,76,25,118,78c0,0,42,54,42,113c0,0,0,15,-7,24c0,0,-5,6,-10,6c0,0,-8,0,-36,-14c0,0,-13,-7,-28,-7c0,0,-36,0,-58,21c0,0,-21,22,-21,60c0,0,0,36,28,62c0,0,27,27,68,27c0,0,49,0,87,-43c0,0,39,-43,39,-113c0,0,0,-77,-54,-143c0,0,-53,-66,-168,-104ZM210,540c0,0,-35,0,-59,24c0,0,-24,24,-24,59c0,0,0,34,24,58c0,0,24,24,59,24c0,0,34,0,58,-24c0,0,24,-24,24,-58c0,0,0,-35,-24,-59c0,0,-24,-24,-58,-24Z" 
id="f0_v"
transform="scale(0.001,-0.001)" />

<path d="M355,0V355H0v72H355V784h72V427H782V355H427V0Z" 
id="f2_f"
transform="scale(0.001,-0.001)" />

<path d="M-46,0l10,26c0,0,62,2,82,11c0,0,33,13,48,35c0,0,25,36,51,126L318,810c0,0,23,76,23,115c0,0,0,20,-10,33c0,0,-10,13,-29,21c0,0,-20,7,-78,7l9,26H619l-8,-26h-2c-8,0,-48,-1,-69,-12c0,0,-33,-16,-51,-46c0,0,-17,-30,-45,-132L271,185c0,0,-23,-78,-23,-100c0,0,0,-17,9,-29c0,0,9,-12,30,-19c0,0,20,-6,85,-11L364,0Z" 
id="f1_19"
transform="scale(0.001,-0.001)" />

<path d="M83,308c0,0,-35,0,-59,24c0,0,-24,24,-24,59c0,0,0,34,24,58c0,0,24,24,59,24c0,0,33,0,58,-24c0,0,24,-24,24,-58c0,0,0,-35,-24,-59c0,0,-25,-24,-58,-24Z" 
id="f2_49"
transform="scale(0.001,-0.001)" />

<path d="M379,437c0,0,34,0,81,16c0,0,47,17,83,47c0,0,14,97,14,155c0,0,0,72,-25,156c0,0,-25,83,-70,128c0,0,-45,45,-103,45c0,0,-66,0,-116,-60c0,0,-50,-59,-50,-177c0,0,0,-157,66,-246c0,0,49,-64,120,-64ZM80,-20V7c0,0,97,1,181,45c0,0,83,44,161,153c0,0,78,109,109,240c0,0,-117,-75,-212,-75c0,0,-107,0,-183,82c0,0,-76,82,-76,219c0,0,0,132,76,236c0,0,92,126,240,126c0,0,124,0,213,-103c0,0,109,-128,109,-315c0,0,0,-169,-82,-314C616,301,533,155,385,59c0,0,-120,-79,-262,-79Z" 
id="f0_t"
transform="scale(0.001,-0.001)" />

<path d="M191,-20c0,0,-34,0,-58,24c0,0,-24,24,-24,58c0,0,0,35,24,59c0,0,24,24,58,24c0,0,35,0,59,-24c0,0,24,-25,24,-59c0,0,0,-34,-24,-58c0,0,-25,-24,-59,-24Z" 
id="f0_i"
transform="scale(0.001,-0.001)" />

<path d="M24,0V27H60c0,0,63,0,91,37c0,0,18,24,18,115V833c0,0,0,77,-10,102c0,0,-7,18,-30,32c0,0,-32,18,-69,18H24v27H776L787,790H761c0,0,-20,71,-45,104c0,0,-26,33,-64,48c0,0,-37,15,-117,15H312V558H497c0,0,63,0,93,28c0,0,29,28,39,111h27V355H629c0,0,-1,59,-16,87c0,0,-14,27,-40,41c0,0,-26,14,-76,14H312V179c0,0,0,-77,10,-102c0,0,7,-18,31,-32c0,0,33,-18,69,-18h37V0Z" 
id="f0_16"
transform="scale(0.001,-0.001)" />

<path d="M55,0V26c0,0,50,0,67,10c0,0,17,10,27,32c0,0,10,23,10,86V418c0,0,0,111,-6,144c0,0,-6,24,-17,33c0,0,-11,10,-30,10c0,0,-21,0,-51,-11L45,620l206,83h33V154c0,0,0,-64,9,-85c0,0,9,-22,27,-32c0,0,19,-11,67,-11V0ZM222,909c0,0,-32,0,-54,23c0,0,-22,22,-22,53c0,0,0,32,22,54c0,0,22,22,54,22c0,0,31,0,53,-22c0,0,22,-22,22,-54c0,0,0,-31,-22,-53c0,0,-22,-23,-53,-23Z" 
id="f0_25"
transform="scale(0.001,-0.001)" />

<path d="M21,0V26H35c0,0,53,0,71,27c0,0,18,27,18,101V408c0,0,0,123,-5,150c0,0,-6,27,-17,37c0,0,-12,10,-31,10c0,0,-21,0,-50,-11L10,620l206,83h32V558c0,0,120,145,229,145c0,0,56,0,96,-28c0,0,40,-28,64,-92c0,0,16,-45,16,-137V154c0,0,0,-65,11,-88c0,0,8,-19,26,-29c0,0,18,-11,68,-11V0H419V26h14c0,0,47,0,66,15c0,0,20,15,27,43c0,0,3,11,3,70V434c0,0,0,93,-24,135c0,0,-24,42,-81,42c0,0,-88,0,-176,-97V154c0,0,0,-69,9,-86c0,0,10,-21,28,-31c0,0,19,-11,75,-11V0Z" 
id="f0_2a"
transform="scale(0.001,-0.001)" />

<path d="M399,62c0,0,68,0,131,68V481c0,0,-5,51,-27,93c0,0,-22,42,-59,63c0,0,-37,21,-72,21c0,0,-65,0,-117,-59c0,0,-67,-77,-67,-226c0,0,0,-151,65,-231c0,0,66,-80,146,-80ZM330,-20c0,0,-112,0,-196,93c0,0,-83,94,-83,240c0,0,0,147,92,269c0,0,93,122,238,122c0,0,90,0,149,-58V773c0,0,0,117,-6,144c0,0,-5,27,-17,37c0,0,-12,9,-30,9c0,0,-20,0,-52,-12l-9,27l204,83h33V270c0,0,0,-120,6,-146c0,0,5,-27,18,-37c0,0,12,-11,28,-11c0,0,21,0,54,13l9,-26L564,-20H530V78C530,78,480,25,432,2c0,0,-47,-22,-102,-22Z" 
id="f0_20"
transform="scale(0.001,-0.001)" />

<path d="M255,-10c0,0,-35,0,-68,18c0,0,-32,19,-48,55c0,0,-16,35,-16,109V632H15v24c0,0,41,16,84,56c0,0,43,39,77,92c0,0,17,29,48,104h23V683H407V632H247V188c0,0,0,-66,19,-90c0,0,19,-23,49,-23c0,0,24,0,47,16c0,0,23,15,36,45h29c0,0,-26,-73,-74,-110c0,0,-47,-36,-98,-36Z" 
id="f0_2g"
transform="scale(0.001,-0.001)" />

<path d="M20,0V26c0,0,45,0,71,15c0,0,15,7,24,28c0,0,9,21,9,85V773c0,0,0,117,-5,144c0,0,-6,27,-17,37c0,0,-12,9,-31,9c0,0,-16,0,-51,-12L10,978l204,83h34V561c0,0,83,91,131,116c0,0,49,26,97,26c0,0,58,0,100,-32c0,0,42,-32,62,-101c0,0,14,-47,14,-174V154c0,0,0,-65,11,-89c0,0,7,-18,25,-28c0,0,18,-11,66,-11V0H418V26h15c0,0,48,0,67,15c0,0,18,15,26,43c0,0,2,12,2,70V396c0,0,0,112,-12,147c0,0,-11,35,-36,53c0,0,-26,17,-61,17c0,0,-37,0,-76,-19c0,0,-40,-20,-95,-79V154c0,0,0,-70,8,-87c0,0,8,-17,29,-29c0,0,22,-12,74,-12V0Z" 
id="f0_24"
transform="scale(0.001,-0.001)" />

<path d="M479,469c0,0,-4,66,-16,93c0,0,-18,42,-55,65c0,0,-37,24,-78,24c0,0,-62,0,-111,-48c0,0,-48,-48,-57,-134ZM355,-20c0,0,-123,0,-211,95c0,0,-87,96,-87,258c0,0,0,175,90,273c0,0,89,98,225,98c0,0,115,0,189,-76c0,0,74,-75,74,-202H162c0,0,0,-152,74,-239c0,0,75,-86,175,-86c0,0,67,0,117,36c0,0,50,37,83,127l24,-15c0,0,-16,-102,-91,-186c0,0,-76,-83,-189,-83Z" 
id="f0_21"
transform="scale(0.001,-0.001)" />

<path d="M312,-20c0,0,-62,0,-143,22c0,0,-25,8,-40,8c0,0,-18,0,-27,-19H77V234h25c0,0,21,-105,80,-158c0,0,59,-53,132,-53c0,0,51,0,84,31c0,0,32,30,32,72c0,0,0,52,-36,87c0,0,-36,35,-144,88c0,0,-109,54,-142,97c0,0,-34,43,-34,107c0,0,0,85,58,141c0,0,58,57,150,57c0,0,40,0,97,-17c0,0,38,-11,51,-11c0,0,12,0,19,5c0,0,7,5,15,23h25V470H464c0,0,-28,110,-72,149c0,0,-45,40,-113,40c0,0,-53,0,-85,-28c0,0,-32,-27,-32,-61c0,0,0,-41,24,-71c0,0,23,-31,94,-65L389,381c0,0,152,-74,152,-194c0,0,0,-94,-71,-151c0,0,-70,-56,-158,-56Z" 
id="f0_2f"
transform="scale(0.001,-0.001)" />

<path d="M286,72c0,0,57,0,149,75V407c0,0,-113,-45,-145,-64c0,0,-59,-32,-85,-68c0,0,-25,-36,-25,-78c0,0,0,-54,32,-89c0,0,32,-36,74,-36ZM217,-13c0,0,-71,0,-116,48c0,0,-46,48,-46,127c0,0,0,50,22,87c0,0,31,50,106,95c0,0,76,45,252,109v26c0,0,0,102,-32,140c0,0,-32,38,-94,38c0,0,-47,0,-74,-25c0,0,-28,-25,-28,-58l1,-43c0,0,0,-34,-17,-53c0,0,-18,-18,-47,-18c0,0,-28,0,-45,19c0,0,-18,19,-18,53c0,0,0,64,66,117c0,0,65,54,184,54c0,0,91,0,149,-31c0,0,44,-23,65,-72c0,0,13,-32,13,-131V238c0,0,0,-98,4,-120c0,0,4,-22,12,-29c0,0,9,-8,20,-8c0,0,12,0,21,5c0,0,16,10,61,55V99C676,99,592,-12,516,-12c0,0,-37,0,-58,24c0,0,-22,26,-23,86C435,98,330,17,303,5c0,0,-40,-18,-86,-18Z" 
id="f0_1x"
transform="scale(0.001,-0.001)" />

<path d="M342,-20c0,0,-116,0,-203,97c0,0,-86,98,-86,264c0,0,0,161,96,261c0,0,95,101,230,101c0,0,100,0,165,-53c0,0,65,-54,65,-111c0,0,0,-29,-18,-46c0,0,-18,-18,-51,-18c0,0,-44,0,-66,29c0,0,-13,15,-17,59c0,0,-4,45,-30,68c0,0,-26,22,-73,22c0,0,-74,0,-120,-55c0,0,-60,-73,-60,-193c0,0,0,-122,60,-216c0,0,60,-93,162,-93c0,0,73,0,131,49c0,0,41,35,80,126l22,-10C629,261,601,125,521,52c0,0,-81,-72,-179,-72Z" 
id="f0_1z"
transform="scale(0.001,-0.001)" />

<path d="M406,32c0,0,72,0,119,60c0,0,47,59,47,205c0,0,0,181,-78,286c0,0,-53,71,-135,71c0,0,-40,0,-79,-23c0,0,-40,-24,-65,-83c0,0,-24,-58,-24,-151c0,0,0,-149,59,-257c0,0,59,-108,156,-108ZM374,-20c0,0,-154,0,-245,122c0,0,-77,104,-77,233c0,0,0,94,46,187c0,0,47,92,123,137c0,0,76,44,161,44c0,0,155,0,249,-118c0,0,80,-100,80,-231c0,0,0,-91,-44,-185C667,169,623,75,546,27c0,0,-77,-47,-172,-47Z" 
id="f0_2b"
transform="scale(0.001,-0.001)" />

<path d="M63,0V26H93c0,0,30,0,54,15c0,0,25,15,34,41c0,0,10,25,10,99V630H58v53H191v45c0,0,0,102,33,173c0,0,32,71,100,114c0,0,68,44,152,44c0,0,79,0,145,-51c0,0,43,-33,43,-75c0,0,0,-22,-19,-42c0,0,-20,-20,-42,-20c0,0,-17,0,-36,12c0,0,-19,13,-47,53c0,0,-28,41,-51,55c0,0,-23,14,-51,14c0,0,-35,0,-58,-18c0,0,-24,-18,-35,-57c0,0,-10,-38,-10,-197V683H491V630H315V181c0,0,0,-96,21,-122c0,0,27,-33,73,-33h62V0Z" 
id="f0_22"
transform="scale(0.001,-0.001)" />

<path d="M398,24c0,0,74,0,120,58c0,0,61,76,61,214c0,0,0,156,-69,240c0,0,-47,59,-113,59c0,0,-36,0,-71,-18c0,0,-27,-14,-88,-81V242c0,0,0,-83,6,-109c0,0,11,-43,51,-76c0,0,41,-33,103,-33ZM-4,-326v27H15c5,0,42,0,69,16c0,0,14,8,22,26c0,0,7,19,7,94V481c0,0,0,67,-6,85c0,0,-5,18,-18,27c0,0,-13,9,-36,9c0,0,-18,0,-45,-10L0,615l209,85h29V540c0,0,53,91,106,127c0,0,53,36,112,36c0,0,103,0,172,-80c0,0,84,-99,84,-257c0,0,0,-176,-102,-292c0,0,-83,-94,-210,-94c0,0,-55,0,-95,16c0,0,-30,10,-67,44V-167c0,0,0,-71,8,-90c0,0,9,-20,30,-31c0,0,21,-11,77,-11v-27Z" 
id="f0_2c"
transform="scale(0.001,-0.001)" />

<path d="M474,-326c0,0,-112,57,-188,133c0,0,-107,108,-165,254c0,0,-58,147,-58,305c0,0,0,231,114,421c0,0,114,191,297,273v-31c0,0,-92,-51,-151,-139c0,0,-59,-88,-88,-223c0,0,-30,-135,-30,-281c0,0,0,-160,25,-290c0,0,20,-102,47,-164c0,0,28,-62,75,-120c0,0,47,-57,122,-109v-29Z" 
id="f3_c"
transform="scale(0.001,-0.001)" />

<path d="M0,356v74H784V356Z" 
id="f4_h"
transform="scale(0.001,-0.001)" />

<path d="M82,-253v33c0,0,77,25,119,78c0,0,42,54,42,114c0,0,0,14,-7,23c0,0,-5,6,-11,6c0,0,-8,0,-35,-14c0,0,-14,-7,-28,-7c0,0,-37,0,-58,21C104,1,82,23,82,61c0,0,0,36,28,62c0,0,28,27,68,27c0,0,49,0,88,-43c0,0,38,-43,38,-113c0,0,0,-77,-53,-143c0,0,-53,-66,-169,-104Z" 
id="f3_g"
transform="scale(0.001,-0.001)" />

<path d="M34,-328v32c0,0,92,50,151,138c0,0,59,88,88,222c0,0,29,135,29,283c0,0,0,165,-27,300c0,0,-26,134,-82,222c0,0,-56,89,-159,160v31c0,0,194,-96,303,-284c0,0,108,-187,108,-410c0,0,0,-232,-114,-422c0,0,-114,-191,-297,-272Z" 
id="f4_d"
transform="scale(0.001,-0.001)" />

<path d="M17,0V26c0,0,52,0,77,17c0,0,19,12,26,38c0,0,4,13,4,73V419c0,0,0,119,-5,142c0,0,-4,23,-17,33c0,0,-13,11,-33,11c0,0,-23,0,-52,-11l-7,26l207,83h31V549c0,0,86,154,176,154c0,0,41,0,68,-25c0,0,27,-25,27,-58c0,0,0,-29,-20,-49c0,0,-19,-20,-46,-20c0,0,-26,0,-58,25c0,0,-33,26,-48,26c0,0,-14,0,-29,-15c0,0,-34,-30,-70,-101V159c0,0,0,-56,15,-85c0,0,9,-20,34,-34c0,0,24,-14,71,-14V0Z" 
id="f0_2e"
transform="scale(0.001,-0.001)" />

<path d="M23,0V26c0,0,47,0,66,10c0,0,19,11,28,33c0,0,10,22,10,85V416c0,0,0,112,-7,145c0,0,-5,25,-16,34c0,0,-11,10,-31,10c0,0,-21,0,-50,-11L12,620l207,83h32V557c0,0,75,75,88,86c0,0,34,29,72,44c0,0,39,16,77,16c0,0,64,0,110,-37c0,0,47,-38,62,-109c0,0,77,90,130,118c0,0,53,28,109,28c0,0,54,0,96,-28c0,0,42,-28,67,-91c0,0,16,-43,16,-136V154c0,0,0,-64,10,-88c0,0,8,-16,28,-28c0,0,20,-12,65,-12V0H844V26h14c0,0,44,0,69,18c0,0,17,12,24,38c0,0,3,13,3,72V448c0,0,0,83,-20,117c0,0,-29,48,-93,48c0,0,-39,0,-79,-20c0,0,-40,-19,-97,-73l-1,-8l2,-32V154c0,0,0,-70,8,-87c0,0,7,-17,29,-29c0,0,21,-12,73,-12V0H431V26c0,0,57,0,78,14c0,0,21,13,29,40c0,0,4,13,4,74V448c0,0,0,83,-25,120c0,0,-33,48,-91,48c0,0,-40,0,-80,-22c0,0,-61,-33,-95,-74V154c0,0,0,-67,10,-87c0,0,9,-20,27,-30c0,0,18,-11,74,-11V0Z" 
id="f0_29"
transform="scale(0.001,-0.001)" />

<path d="M58,0V26c0,0,47,0,64,10c0,0,18,10,28,32c0,0,9,23,9,86V775c0,0,0,116,-5,142c0,0,-5,27,-17,37c0,0,-11,9,-29,9c0,0,-20,0,-49,-12L46,978l204,83h34V154c0,0,0,-64,9,-85c0,0,9,-21,29,-32c0,0,19,-11,72,-11V0Z" 
id="f0_28"
transform="scale(0.001,-0.001)" />

<path d="M17,774l191,256h95L493,774H440L255,932L69,774Z" 
id="f5_4"
transform="scale(0.001,-0.001)" />

<path d="M412,-328c0,0,-195,96,-303,284C109,-44,0,142,0,365c0,0,0,232,114,422c0,0,114,191,298,273v-31c0,0,-92,-51,-151,-139c0,0,-59,-88,-88,-223c0,0,-29,-136,-29,-282c0,0,0,-167,27,-301c0,0,26,-133,82,-221c0,0,55,-89,159,-159v-32Z" 
id="f2_c"
transform="scale(0.001,-0.001)" />

<path d="M34,-328v32c0,0,92,50,151,138c0,0,59,88,88,222c0,0,29,135,29,283c0,0,0,165,-27,300c0,0,-26,134,-82,222c0,0,-56,89,-159,160v31c0,0,194,-96,303,-284c0,0,108,-187,108,-410c0,0,0,-232,-114,-422c0,0,-114,-191,-297,-272Z" 
id="f2_d"
transform="scale(0.001,-0.001)" />

<path d="M31,0L164,463c0,0,24,81,24,115c0,0,0,14,-12,23c0,0,-14,12,-37,12c0,0,-15,0,-54,-7L74,633l255,42L220,312c0,0,134,223,243,312c0,0,62,51,102,51c0,0,25,0,39,-15c0,0,15,-15,15,-42c0,0,0,-50,-25,-94c0,0,-18,-34,-52,-34c0,0,-17,0,-30,11c0,0,-12,11,-15,35c0,0,-1,14,-7,18c0,0,-6,6,-14,6c0,0,-13,0,-24,-6c0,0,-19,-10,-59,-58c0,0,-62,-73,-134,-189c0,0,-32,-49,-54,-111c0,0,-32,-85,-36,-102L145,0Z" 
id="f1_2e"
transform="scale(0.001,-0.001)" />

<path d="M145,-17c0,0,-29,0,-48,18C97,1,79,19,79,46c0,0,0,28,20,93L201,475c0,0,24,82,24,103c0,0,0,17,-11,27c0,0,-12,10,-32,10c0,0,-16,0,-68,-8v30l260,42L218,149c0,0,-16,-53,-16,-64c0,0,0,-11,6,-19c0,0,7,-7,15,-7c0,0,11,0,25,12c0,0,39,33,78,95l26,-17C352,149,304,72,238,20c0,0,-49,-37,-93,-37ZM342,825c0,0,-31,0,-53,22c0,0,-22,22,-22,53c0,0,0,31,22,53c0,0,21,22,53,22c0,0,31,0,53,-22c0,0,22,-22,22,-53c0,0,0,-31,-23,-53c0,0,-22,-22,-52,-22Z" 
id="f1_25"
transform="scale(0.001,-0.001)" />

<path d="M-163,-328c0,0,-47,0,-71,21c0,0,-24,22,-24,51c0,0,0,24,18,41c0,0,18,18,42,18c0,0,22,0,38,-15c0,0,13,-11,13,-25c0,0,0,-19,-18,-33c0,0,-10,-8,-10,-14l1,-3c0,0,3,-3,7,-5c0,0,5,-1,14,-1c0,0,60,0,103,38c0,0,42,38,75,153L189,469c0,0,25,85,25,94c0,0,0,18,-16,32c0,0,-16,14,-41,14c0,0,-10,0,-23,-2c0,0,-9,-2,-28,-5v27l256,46L171,8C171,8,120,-170,30,-249c0,0,-89,-79,-193,-79ZM353,819c0,0,-31,0,-53,22c0,0,-22,22,-22,54c0,0,0,31,22,53c0,0,22,22,53,22c0,0,31,0,53,-22c0,0,22,-22,22,-53c0,0,0,-32,-22,-54c0,0,-22,-22,-53,-22Z" 
id="f1_26"
transform="scale(0.001,-0.001)" />

<path d="M457,-17c0,0,-31,0,-48,24c0,0,-30,44,-99,346L206,264L131,0H15L258,852l21,72c0,0,4,19,4,33c0,0,0,17,-14,29c0,0,-13,12,-38,12c0,0,-16,0,-52,-7l-5,26l258,44L224,328l85,73c0,0,140,117,183,173c0,0,13,19,13,29c0,0,0,6,-4,12c0,0,-5,6,-18,10c0,0,-13,4,-46,4H411l8,28H745l-7,-28c0,0,-56,-3,-97,-18c0,0,-40,-14,-79,-43c0,0,-75,-56,-98,-77L399,434c0,0,16,-54,40,-150c0,0,40,-159,54,-189c0,0,14,-29,29,-29c0,0,13,0,30,12c0,0,39,28,83,90l26,-18C661,150,580,47,536,15c0,0,-43,-32,-79,-32Z" 
id="f1_27"
transform="scale(0.001,-0.001)" />

<path d="M620,-14c0,0,-52,0,-93,43c0,0,-41,45,-77,203L384,522L132,0H0L340,703l-12,66c0,0,-23,107,-61,146c0,0,-37,38,-83,38c0,0,-42,0,-74,-30c0,0,-31,-31,-41,-100H43c0,0,2,117,57,187c0,0,40,51,96,51c0,0,50,0,86,-40c0,0,54,-60,88,-213L489,283c0,0,27,-118,62,-153c0,0,33,-36,79,-36c0,0,43,0,71,29c0,0,28,29,33,94h30c0,0,1,-19,1,-29c0,0,0,-98,-49,-158c0,0,-37,-44,-96,-44Z" 
id="f6_28"
transform="scale(0.001,-0.001)" />

<path d="M413,-106l30,80H0V27H443l-30,80L626,0L413,-106Z" 
id="f5_20"
transform="scale(0.001,-0.001)" />

<path d="M107,-21V325h27c0,0,19,-109,52,-163c0,0,33,-54,100,-90c0,0,68,-36,148,-36c0,0,93,0,148,49c0,0,54,50,54,117c0,0,0,37,-21,75c0,0,-20,38,-64,71c0,0,-29,22,-159,95c0,0,-130,72,-185,115c0,0,-55,44,-83,96c0,0,-28,52,-28,114c0,0,0,109,83,188c0,0,84,78,213,78c0,0,81,0,171,-39c0,0,42,-19,59,-19c0,0,20,0,32,11c0,0,12,12,20,47h27V684H674c0,0,-14,101,-48,161c0,0,-35,60,-100,95c0,0,-64,35,-133,35c0,0,-77,0,-128,-47c0,0,-51,-48,-51,-108c0,0,0,-46,32,-84c0,0,47,-56,221,-149c0,0,142,-76,194,-117c0,0,51,-41,80,-96c0,0,28,-55,28,-115c0,0,0,-115,-90,-198c0,0,-89,-82,-229,-82c0,0,-44,0,-83,6c0,0,-23,4,-95,27c0,0,-73,24,-93,24c0,0,-18,0,-29,-11c0,0,-11,-12,-16,-46Z" 
id="f0_1j"
transform="scale(0.001,-0.001)" />

<path d="M213,-20c0,0,-34,0,-58,24c0,0,-24,24,-24,58c0,0,0,34,24,58c0,0,24,25,58,25c0,0,35,0,59,-25c0,0,24,-24,24,-58c0,0,0,-34,-24,-58c0,0,-25,-24,-59,-24Zm3,559c0,0,-35,0,-59,24c0,0,-24,24,-24,58c0,0,0,35,24,59c0,0,24,24,59,24c0,0,34,0,58,-24c0,0,24,-24,24,-59c0,0,0,-34,-24,-58c0,0,-24,-24,-58,-24Z" 
id="f0_u"
transform="scale(0.001,-0.001)" />

<path d="M548,-21c0,0,-251,0,-389,185C159,164,56,303,56,490c0,0,0,152,68,278c0,0,67,127,186,197c0,0,119,69,260,69c0,0,109,0,216,-53c0,0,31,-17,44,-17c0,0,20,0,35,14c0,0,20,21,28,56h26L943,690H919c0,0,-46,155,-131,224c0,0,-86,68,-206,68c0,0,-100,0,-181,-51c0,0,-81,-52,-128,-163c0,0,-46,-112,-46,-279c0,0,0,-137,44,-238c0,0,44,-101,132,-154c0,0,88,-54,201,-54c0,0,99,0,174,42c0,0,75,42,165,167l23,-14C966,238,890,103,789,40c0,0,-102,-61,-241,-61Z" 
id="f0_13"
transform="scale(0.001,-0.001)" />

<path d="M384,85c0,0,44,0,78,19c0,0,35,19,68,62V487c0,0,0,55,-15,87c0,0,-14,33,-51,55c0,0,-38,22,-85,22c0,0,-84,0,-143,-71c0,0,-60,-70,-60,-214c0,0,0,-138,61,-209c0,0,61,-72,147,-72Zm35,-411v27h15c0,0,41,0,63,12c0,0,15,8,24,30c0,0,9,21,9,83V119C530,119,462,39,411,9c0,0,-50,-29,-105,-29c0,0,-99,0,-177,90c0,0,-78,90,-78,241c0,0,0,174,103,283c0,0,103,109,248,109c0,0,43,0,78,-12c0,0,36,-12,65,-35c0,0,43,20,83,47h25V-174c0,0,0,-66,9,-85c0,0,9,-19,28,-30c0,0,19,-10,74,-10v-27Z" 
id="f0_2d"
transform="scale(0.001,-0.001)" />

<path d="M292,-20c0,0,-57,0,-100,33c0,0,-42,33,-58,85c0,0,-17,52,-17,148V551c0,0,0,49,-10,68c0,0,-11,18,-31,29c0,0,-19,9,-68,9c-2,0,-4,0,-6,0v26H242V226c0,0,0,-95,33,-125c0,0,33,-30,80,-30c0,0,32,0,73,21c0,0,40,20,96,76V555c0,0,0,59,-21,80c0,0,-22,21,-89,22v26H647V269c0,0,0,-119,6,-145c0,0,6,-27,18,-37c0,0,12,-11,29,-11c0,0,23,0,52,13L763,63L558,-20H524V124C524,124,436,29,390,4c0,0,-47,-24,-98,-24Z" 
id="f0_2h"
transform="scale(0.001,-0.001)" />

<path d="M82,-253v33c0,0,77,25,119,78c0,0,42,54,42,114c0,0,0,14,-7,23c0,0,-5,6,-11,6c0,0,-8,0,-35,-14c0,0,-14,-7,-28,-7c0,0,-37,0,-58,21C104,1,82,23,82,61c0,0,0,36,28,62c0,0,28,27,68,27c0,0,49,0,88,-43c0,0,38,-43,38,-113c0,0,0,-77,-53,-143c0,0,-53,-66,-169,-104Z" 
id="f0_g"
transform="scale(0.001,-0.001)" />

<path d="M31,0V27H69c0,0,64,0,91,42c0,0,16,24,16,110V833c0,0,0,95,-21,119c0,0,-29,33,-86,33H31v27H488V985c0,0,-1,0,-2,0c-12,0,-81,-1,-111,-15c0,0,-32,-16,-44,-40c0,0,-12,-24,-12,-115V180c0,0,0,-62,12,-85c0,0,9,-16,27,-23c0,0,19,-7,117,-7h74c0,0,116,0,163,17c0,0,48,17,86,61c0,0,39,43,78,138l25,-6L814,0Z" 
id="f0_1c"
transform="scale(0.001,-0.001)" />

<path d="M22,-17c0,0,-29,0,-54,21c0,0,-18,16,-18,44c0,0,0,25,17,41c0,0,16,17,39,17c0,0,24,0,50,-24C56,82,76,65,86,65c0,0,9,0,23,11c0,0,35,28,95,122c0,0,61,93,79,134c0,0,-46,182,-49,193c0,0,-17,49,-45,69c0,0,-27,20,-81,20c0,0,-17,0,-40,-1v26l199,36c0,0,37,-39,55,-78c0,0,14,-26,44,-141l66,99c0,0,26,35,64,68c0,0,37,32,65,44c0,0,18,8,40,8c0,0,32,0,51,-17c0,0,19,-18,19,-42c0,0,0,-29,-11,-39c0,0,-21,-19,-48,-19c0,0,-16,0,-34,7c0,0,-35,12,-47,12c0,0,-18,0,-43,-21c0,0,-46,-39,-111,-150L439,150c0,0,14,-59,24,-71c0,0,10,-11,20,-11c0,0,15,0,37,17c0,0,41,34,70,89l27,-13C617,161,569,73,497,15c0,0,-41,-32,-70,-32c0,0,-42,0,-66,46c0,0,-16,29,-64,251C297,280,180,78,110,20c0,0,-46,-37,-88,-37Z" 
id="f1_2k"
transform="scale(0.001,-0.001)" />

<path d="M-60,-328c0,0,-23,0,-41,17c0,0,-17,18,-17,41c0,0,0,29,24,53c0,0,24,23,53,23c0,0,15,0,24,-6c0,0,6,-4,13,-21c0,0,6,-18,12,-24c0,0,4,-3,9,-3c0,0,5,0,16,7c0,0,41,25,96,81c0,0,71,72,106,119L193,430c0,0,-11,117,-32,142c0,0,-20,25,-70,25c0,0,-15,0,-56,-4l-7,28l219,54c0,0,25,-43,35,-81c0,0,10,-38,20,-148L334,80c0,0,45,54,130,170c0,0,41,56,102,154c0,0,36,59,45,83c0,0,4,12,4,25c0,0,0,8,-5,13c0,0,-6,5,-28,12c0,0,-21,7,-36,26c0,0,-15,19,-15,44c0,0,0,30,18,49c0,0,18,19,45,19c0,0,33,0,56,-28c0,0,23,-27,23,-74c0,0,0,-59,-40,-135c0,0,-40,-76,-155,-232C478,206,363,49,200,-135c0,0,-113,-127,-168,-160c0,0,-53,-33,-92,-33Z" 
id="f1_2l"
transform="scale(0.001,-0.001)" />

<path d="M-41,0V22L474,558H259c0,0,-68,0,-82,-3c0,0,-21,-5,-41,-24c0,0,-21,-19,-42,-63H66l63,189H602V639L86,102H306c0,0,78,0,99,6c0,0,21,6,39,25c0,0,17,20,39,70h26L444,0Z" 
id="f1_2m"
transform="scale(0.001,-0.001)" />

<path d="M435,502c0,0,78,0,134,60c0,0,57,60,57,155c0,0,0,66,-27,122c0,0,-27,56,-76,84c0,0,-50,28,-112,28c0,0,-38,0,-98,-14V517c0,0,39,-8,70,-12c0,0,31,-3,52,-3ZM25,0V27H63c0,0,65,0,92,42c0,0,15,23,15,110V833c0,0,0,96,-20,119c0,0,-29,33,-87,33H25v27H396c0,0,136,0,214,-28c0,0,78,-28,132,-94c0,0,54,-67,54,-158c0,0,0,-124,-82,-202c0,0,-82,-77,-231,-77c0,0,-36,0,-79,5c0,0,-43,5,-91,16V179c0,0,0,-96,21,-119c0,0,28,-33,85,-33h39V0Z" 
id="f0_1g"
transform="scale(0.001,-0.001)" />

<path d="M547,28c0,0,140,0,226,102c0,0,101,121,101,357c0,0,0,181,-56,304c0,0,-42,96,-112,141c0,0,-71,45,-159,45c0,0,-135,0,-218,-97C329,880,225,758,225,508c0,0,0,-245,106,-378c0,0,82,-102,216,-102Zm491,-326c0,0,-103,4,-220,41c0,0,-117,38,-222,105c0,0,-104,67,-180,142c0,0,-108,42,-171,91c0,0,-91,72,-141,178c0,0,-50,105,-50,249c0,0,0,227,147,377c0,0,147,149,355,149c0,0,199,0,344,-150c0,0,145,-150,145,-379c0,0,0,-185,-104,-326C941,179,838,39,673,-10c0,0,76,-131,164,-194c0,0,88,-62,201,-71v-23Z" 
id="f0_1h"
transform="scale(0.001,-0.001)" />

<path d="M316,27c0,0,57,0,105,53c0,0,65,72,125,295c0,0,-40,153,-104,214c0,0,-63,61,-129,61c0,0,-73,0,-122,-80c0,0,-48,-80,-48,-255c0,0,0,-104,20,-163c0,0,21,-60,64,-92c0,0,42,-33,89,-33Zm4,-49c0,0,-165,0,-243,108C77,86,0,196,0,336c0,0,0,164,91,265c0,0,91,102,213,102c0,0,85,0,150,-52c0,0,65,-51,118,-192l65,224H760L662,344c0,0,-9,-32,-30,-100c0,0,29,-115,43,-137c0,0,27,-41,68,-41c0,0,30,0,55,24c0,0,26,25,34,77h30C862,167,852,60,817,19c0,0,-35,-40,-81,-40c0,0,-42,0,-77,34c0,0,-35,36,-62,154c0,0,-33,-65,-65,-99C532,68,488,22,437,0c0,0,-52,-22,-117,-22Z" 
id="f6_1x"
transform="scale(0.001,-0.001)" />

<path d="M363,28c0,0,75,0,126,63c0,0,51,62,51,197c0,0,0,85,-24,149c0,0,-24,63,-86,139c0,0,-51,-17,-89,-17c0,0,-44,0,-63,14c0,0,-18,13,-18,29c0,0,0,14,14,25c0,0,14,11,46,11c0,0,36,0,110,-19c0,0,53,104,53,196c0,0,0,94,-47,146c0,0,-46,51,-115,51c0,0,-86,0,-134,-73c0,0,-31,-49,-31,-156V118c0,0,72,-51,126,-73c0,0,40,-17,81,-17ZM0,-328c0,0,20,92,24,126c0,0,10,104,10,152V712c0,0,0,133,26,198c0,0,27,64,96,108c0,0,69,43,165,43c0,0,133,0,213,-72c0,0,80,-71,80,-170c0,0,0,-63,-33,-120c0,0,-32,-57,-100,-99c0,0,200,-95,200,-297c0,0,0,-89,-42,-167C639,136,598,59,524,18c0,0,-73,-39,-150,-39c0,0,-50,0,-99,17c0,0,-49,16,-119,63V-66c0,0,0,-121,-30,-262Z" 
id="f6_1y"
transform="scale(0.001,-0.001)" />

<path d="M263,-328c0,0,-25,0,-44,20c0,0,-19,21,-19,54c0,0,0,57,23,132c0,0,23,75,69,168c0,0,-55,382,-87,461c0,0,-32,79,-90,79c0,0,-35,0,-55,-22c0,0,-20,-21,-31,-96H0c0,0,0,23,0,34c0,0,0,103,39,155c0,0,31,39,83,39c0,0,44,0,73,-27c0,0,39,-38,69,-165c0,0,39,-166,61,-361l65,222c0,0,44,149,114,318H628c0,0,-12,-26,-123,-255c0,0,-46,-95,-66,-144c0,0,-9,-21,-20,-44L333,56c0,0,5,-48,7,-87c0,0,3,-40,3,-73c0,0,0,-101,-15,-157c0,0,-11,-38,-28,-53c0,0,-17,-14,-37,-14Z" 
id="f6_23"
transform="scale(0.001,-0.001)" />

<path d="M397,34c0,0,67,0,126,75c0,0,58,74,58,216c0,0,0,131,-58,201c0,0,-59,70,-133,70c0,0,-39,0,-79,-20c0,0,-29,-14,-75,-59V109c0,0,37,-37,78,-56c0,0,40,-19,83,-19ZM358,-20c0,0,-59,0,-121,21c0,0,-61,22,-126,65V773c0,0,0,117,-5,144c0,0,-6,27,-18,37c0,0,-12,9,-29,9c0,0,-21,0,-53,-12l-9,27l205,83h34V564c0,0,98,139,213,139c0,0,105,0,183,-90c0,0,78,-90,78,-245c0,0,0,-182,-121,-293c0,0,-103,-95,-231,-95Z" 
id="f0_1y"
transform="scale(0.001,-0.001)" />

<path d="M336,-20L117,554c0,0,-21,55,-42,74c0,0,-21,19,-66,29v26H296V657c0,0,-40,-3,-52,-14c0,0,-13,-12,-13,-33c0,0,0,-23,13,-56L390,162L537,481L498,581c0,0,-18,46,-47,63c0,0,-17,11,-61,13v26H716V657c0,0,-54,-2,-77,-20c0,0,-15,-12,-15,-39c0,0,0,-15,6,-30L785,177L929,554c0,0,15,40,15,65c0,0,0,14,-15,25c0,0,-14,12,-57,13v26h216V657c0,0,-65,-10,-95,-89L764,-20H733L563,415L363,-20Z" 
id="f0_2j"
transform="scale(0.001,-0.001)" />

<path d="M145,-328c0,0,-44,0,-73,25c0,0,-28,25,-28,58c0,0,0,31,21,50c0,0,20,19,56,19c0,0,25,0,67,-16c0,0,30,-11,38,-11c0,0,22,0,49,23c0,0,26,23,53,89L376,28L131,542c0,0,-11,24,-36,58c0,0,-19,27,-30,36c0,0,-18,12,-56,21v26H328V657H312c0,0,-33,0,-50,-15c0,0,-17,-14,-17,-36c0,0,0,-30,25,-81L437,179L589,557c0,0,12,31,12,62c0,0,0,13,-5,20c0,0,-6,8,-19,13c0,0,-12,5,-44,5v26H754V657c0,0,-27,-3,-42,-12c0,0,-15,-9,-33,-34c0,0,-7,-10,-25,-58L376,-128c0,0,-40,-99,-105,-150c0,0,-66,-50,-126,-50Z" 
id="f0_2l"
transform="scale(0.001,-0.001)" />

<path d="M474,-326c0,0,-112,57,-188,133c0,0,-107,108,-165,254c0,0,-58,147,-58,305c0,0,0,231,114,421c0,0,114,191,297,273v-31c0,0,-92,-51,-151,-139c0,0,-59,-88,-88,-223c0,0,-30,-135,-30,-281c0,0,0,-160,25,-290c0,0,20,-102,47,-164c0,0,28,-62,75,-120c0,0,47,-57,122,-109v-29Z" 
id="f0_c"
transform="scale(0.001,-0.001)" />

<path d="M35,-326v29c0,0,92,51,151,139c0,0,60,87,89,221c0,0,28,136,28,282c0,0,0,159,-24,290c0,0,-19,103,-47,165c0,0,-28,62,-75,119c0,0,-46,57,-122,110v31c0,0,113,-56,188,-132c0,0,107,-109,165,-255c0,0,58,-147,58,-306c0,0,0,-231,-114,-420c0,0,-113,-191,-297,-273Z" 
id="f0_d"
transform="scale(0.001,-0.001)" />

<path d="M46,0c0,0,-2,48,16,93c0,0,27,74,88,146c0,0,61,71,176,165c0,0,178,146,241,232c0,0,63,85,63,161c0,0,0,80,-57,135c0,0,-58,55,-149,55c0,0,-98,0,-156,-59c0,0,-58,-58,-59,-160L71,782c0,0,15,154,107,235c0,0,93,81,249,81c0,0,157,0,249,-87c0,0,92,-88,92,-217c0,0,0,-65,-27,-129c0,0,-27,-63,-89,-133c0,0,-62,-70,-207,-193C445,339,324,238,290,202c0,0,-35,-36,-57,-73H770V0Z" 
id="f7_m"
transform="scale(0.001,-0.001)" />

<path d="M494,385V878L152,385ZM494,0V262H20V385l498,708H628V385H775V262H628V0Z" 
id="f7_o"
transform="scale(0.001,-0.001)" />


</defs>
</svg>