<?xml version="1.0" encoding="UTF-8" standalone="no"?>
<!DOCTYPE svg PUBLIC "-//W3C//DTD SVG 1.1//EN"
"http://www.w3.org/Graphics/SVG/1.1/DTD/svg11.dtd">
<svg viewBox="0 0 909 1286" version="1.1" xmlns="http://www.w3.org/2000/svg" xmlns:xlink="http://www.w3.org/1999/xlink">
<defs>
<clipPath id="c0_27"><path d="M116.8,177.6V126H256v51.6Z" /></clipPath>
<clipPath id="c1_27"><path d="M55.2,255.8V204.1H194.4v51.7Z" /></clipPath>
<clipPath id="c2_27"><path d="M55.2,420.4v-162H213.7v162Z" /></clipPath>
<clipPath id="c3_27"><path d="M55.2,780.8V721.5H260.4v59.3Z" /></clipPath>
<clipPath id="c4_27"><path d="M116.8,1014.8V928.9H223.7v85.9Z" /></clipPath>
<clipPath id="c5_27"><path d="M55.2,1131V1017.4H265.8V1131Z" /></clipPath>
<style type="text/css"><![CDATA[
.g0_27{
fill: #D9D9D9;
}
.g1_27{
fill: none;
stroke: #000000;
stroke-width: 0.7638889;
stroke-linecap: butt;
stroke-linejoin: miter;
}
.g2_27{
fill: none;
stroke: #000000;
stroke-width: 0.9068848;
stroke-linecap: butt;
stroke-linejoin: round;
}
.g3_27{
fill: none;
stroke: #000000;
stroke-width: 0.9048006;
stroke-linecap: butt;
stroke-linejoin: round;
}
.g4_27{
fill: none;
stroke: #000000;
stroke-width: 0.21286213;
stroke-linecap: square;
stroke-linejoin: round;
}
.g5_27{
}
.g6_27{
fill: none;
stroke: #000000;
stroke-width: 0.9110348;
stroke-linecap: butt;
stroke-linejoin: round;
}
]]></style>
</defs>
<image preserveAspectRatio="none" x="747" y="1196" width="96" height="59" xlink:href="img/1.png" />
<image preserveAspectRatio="none" x="336" y="41" width="259" height="51" xlink:href="img/2.png" />
<image preserveAspectRatio="none" x="342" y="50" width="247" height="27" xlink:href="img/3.png" />
<image preserveAspectRatio="none" x="341" y="45" width="239" height="42" xlink:href="img/4.png" />
<g fill="#FFFFFF" >
<use xlink:href="#f0_j" transform="matrix(11.5,0,0,11.5,355.1,70.1)" />
<use xlink:href="#f0_i" transform="matrix(11.5,0,0,11.5,364.3,70.1)" />
<use xlink:href="#f0_2n" transform="matrix(11.5,0,0,11.5,374.1,70.1)" />
<use xlink:href="#f0_t" transform="matrix(11.5,0,0,11.5,382.6,70.1)" />
<use xlink:href="#f0_oj" transform="matrix(11.5,0,0,11.5,391,70.1)" />
<use xlink:href="#f0_3e" transform="matrix(11.5,0,0,11.5,396.5,70.1)" />
<use xlink:href="#f0_1c" transform="matrix(11.5,0,0,11.5,406.1,70.1)" />
<use xlink:href="#f0_1c" transform="matrix(11.5,0,0,11.5,410.8,70.1)" />
<use xlink:href="#f0_oj" transform="matrix(11.5,0,0,11.5,415.6,70.1)" />
<use xlink:href="#f0_rz" transform="matrix(11.5,0,0,11.5,421.1,70.1)" />
<use xlink:href="#f0_rx" transform="matrix(11.5,0,0,11.5,429.9,70.1)" />
<use xlink:href="#f0_ry" transform="matrix(11.5,0,0,11.5,438.7,70.1)" />
<use xlink:href="#f0_s4" transform="matrix(11.5,0,0,11.5,447.5,70.1)" />
<use xlink:href="#f0_t" transform="matrix(11.5,0,0,11.5,460.4,70.1)" />
<use xlink:href="#f0_3e" transform="matrix(11.5,0,0,11.5,468.8,70.1)" />
<use xlink:href="#f0_5" transform="matrix(11.5,0,0,11.5,478.3,70.1)" />
<use xlink:href="#f0_1x" transform="matrix(11.5,0,0,11.5,489,70.1)" />
<use xlink:href="#f0_1c" transform="matrix(11.5,0,0,11.5,504.4,70.1)" />
<use xlink:href="#f0_1y" transform="matrix(11.5,0,0,11.5,509.1,70.1)" />
<use xlink:href="#f0_5" transform="matrix(11.5,0,0,11.5,520.8,70.1)" />
<use xlink:href="#f0_2t" transform="matrix(11.5,0,0,11.5,531.5,70.1)" />
<use xlink:href="#f0_1c" transform="matrix(11.5,0,0,11.5,540.2,70.1)" />
<use xlink:href="#f0_24" transform="matrix(11.5,0,0,11.5,545,70.1)" />
<use xlink:href="#f0_1y" transform="matrix(11.5,0,0,11.5,556.7,70.1)" />
</g>
<image preserveAspectRatio="none" x="554" y="45" width="36" height="42" xlink:href="img/5.png" />
<g fill="#FFFFFF" >
<use xlink:href="#f1_m" transform="matrix(11,0,0,11,770.3,1227.6)" />
<use xlink:href="#f1_j" transform="matrix(11,0,0,11,783.5,1227.6)" />
<use xlink:href="#f1_m" transform="matrix(11,0,0,11,794.1,1227.6)" />
<use xlink:href="#f1_m" transform="matrix(11,0,0,11,802.9,1227.6)" />
</g>
<path fill-rule="evenodd" d="M52.8,1193.5H856.9v-.8H52.8v.8Z" class="g0_27" />
<path d="M37.9,99.4L873,98.5" class="g1_27" />
<g fill="#000000" >
<use xlink:href="#f2_n" transform="matrix(12,0,0,12,55,159.2)" />
<use xlink:href="#f2_i" transform="matrix(12,0,0,12,64.2,159.2)" />
<use xlink:href="#f3_16" transform="matrix(12,0,0,12,73.7,159.2)" />
<use xlink:href="#f3_25" transform="matrix(12,0,0,12,84,159.2)" />
<use xlink:href="#f3_2a" transform="matrix(12,0,0,12,88.8,159.2)" />
<use xlink:href="#f3_20" transform="matrix(12,0,0,12,97.6,159.2)" />
<use xlink:href="#f3_u" transform="matrix(12,0,0,12,106.7,159.2)" />
</g>
<path d="M130.2,154.9H233.5" class="g2_27" />
<g clip-path="url(#c0_27)">
<g fill="#000000" >
<use xlink:href="#f3_m" transform="matrix(7.3,0,0,7.1,153.6,139.3)" />
<use xlink:href="#f3_m" transform="matrix(7.3,0,0,7.1,214.4,139.3)" />
<use xlink:href="#f3_2f" transform="matrix(12.6,0,0,12.3,130.8,147.6)" />
<use xlink:href="#f3_25" transform="matrix(12.6,0,0,12.3,138,147.6)" />
<use xlink:href="#f3_2a" transform="matrix(12.6,0,0,12.3,143.2,147.6)" />
<use xlink:href="#f3_1z" transform="matrix(12.6,0,0,12.3,189.2,147.6)" />
<use xlink:href="#f3_2b" transform="matrix(12.6,0,0,12.3,197.3,147.6)" />
<use xlink:href="#f3_2f" transform="matrix(12.6,0,0,12.3,206.5,147.6)" />
<use xlink:href="#f3_2f" transform="matrix(12.6,0,0,12.3,146.1,174.2)" />
<use xlink:href="#f3_25" transform="matrix(12.6,0,0,12.3,153.3,174.2)" />
<use xlink:href="#f3_2a" transform="matrix(12.6,0,0,12.3,158.4,174.2)" />
<use xlink:href="#f3_1z" transform="matrix(12.6,0,0,12.3,181.5,174.2)" />
<use xlink:href="#f3_2b" transform="matrix(12.6,0,0,12.3,189.6,174.2)" />
<use xlink:href="#f3_2f" transform="matrix(12.6,0,0,12.3,198.8,174.2)" />
<use xlink:href="#f4_2k" transform="matrix(12.6,0,0,12.3,163.6,147.6)" />
<use xlink:href="#f4_2k" transform="matrix(12.6,0,0,12.3,224.3,147.6)" />
<use xlink:href="#f4_20" transform="matrix(12.6,0,0,12.3,233.2,159.5)" />
<use xlink:href="#f4_2k" transform="matrix(12.6,0,0,12.3,242.4,159.5)" />
<use xlink:href="#f4_2k" transform="matrix(12.6,0,0,12.3,171.3,174.2)" />
<use xlink:href="#f4_2k" transform="matrix(12.6,0,0,12.3,209,174.2)" />
<use xlink:href="#f5_h" transform="matrix(12.6,0,0,12.3,175.7,147.6)" />
<use xlink:href="#f5_50" transform="matrix(18.9,0,0,18.5,119.8,166.2)" />
</g>
</g>
<g fill="#000000" >
<use xlink:href="#f2_1j" transform="matrix(12,0,0,12,55,198)" />
<use xlink:href="#f2_2b" transform="matrix(12,0,0,12,65.3,198)" />
<use xlink:href="#f2_28" transform="matrix(12,0,0,12,74.5,198)" />
<use xlink:href="#f2_2h" transform="matrix(12,0,0,12,79.2,198)" />
<use xlink:href="#f2_2g" transform="matrix(12,0,0,12,89.5,198)" />
<use xlink:href="#f2_25" transform="matrix(12,0,0,12,95.7,198)" />
<use xlink:href="#f2_2b" transform="matrix(12,0,0,12,100.8,198)" />
<use xlink:href="#f2_2a" transform="matrix(12,0,0,12,109.9,198)" />
<use xlink:href="#f2_u" transform="matrix(12,0,0,12,120.2,198)" />
</g>
<path d="M68.6,233H171.9" class="g2_27" />
<g clip-path="url(#c1_27)">
<g fill="#000000" >
<use xlink:href="#f3_m" transform="matrix(7.3,0,0,7.1,92.1,217.4)" />
<use xlink:href="#f3_m" transform="matrix(7.3,0,0,7.1,152.8,217.4)" />
<use xlink:href="#f3_2f" transform="matrix(12.6,0,0,12.3,69.2,225.7)" />
<use xlink:href="#f3_25" transform="matrix(12.6,0,0,12.3,76.4,225.7)" />
<use xlink:href="#f3_2a" transform="matrix(12.6,0,0,12.3,81.6,225.7)" />
<use xlink:href="#f3_1z" transform="matrix(12.6,0,0,12.3,127.7,225.7)" />
<use xlink:href="#f3_2b" transform="matrix(12.6,0,0,12.3,135.7,225.7)" />
<use xlink:href="#f3_2f" transform="matrix(12.6,0,0,12.3,144.9,225.7)" />
<use xlink:href="#f3_2f" transform="matrix(12.6,0,0,12.3,84.5,252.3)" />
<use xlink:href="#f3_25" transform="matrix(12.6,0,0,12.3,91.7,252.3)" />
<use xlink:href="#f3_2a" transform="matrix(12.6,0,0,12.3,96.9,252.3)" />
<use xlink:href="#f3_1z" transform="matrix(12.6,0,0,12.3,119.9,252.3)" />
<use xlink:href="#f3_2b" transform="matrix(12.6,0,0,12.3,128,252.3)" />
<use xlink:href="#f3_2f" transform="matrix(12.6,0,0,12.3,137.2,252.3)" />
<use xlink:href="#f4_2k" transform="matrix(12.6,0,0,12.3,102,225.7)" />
<use xlink:href="#f4_2k" transform="matrix(12.6,0,0,12.3,162.8,225.7)" />
<use xlink:href="#f4_20" transform="matrix(12.6,0,0,12.3,171.7,237.6)" />
<use xlink:href="#f4_2k" transform="matrix(12.6,0,0,12.3,180.9,237.6)" />
<use xlink:href="#f4_2k" transform="matrix(12.6,0,0,12.3,109.7,252.3)" />
<use xlink:href="#f4_2k" transform="matrix(12.6,0,0,12.3,147.5,252.3)" />
<use xlink:href="#f5_h" transform="matrix(12.6,0,0,12.3,114.1,225.7)" />
<use xlink:href="#f5_50" transform="matrix(18.9,0,0,18.5,58.2,244.3)" />
</g>
</g>
<path d="M92.8,283.8h59.4M72.9,370H179" class="g3_27" />
<g clip-path="url(#c2_27)">
<g fill="#000000" >
<use xlink:href="#f3_1z" transform="matrix(12.1,0,0,12.1,105.9,276.7)" />
<use xlink:href="#f3_2b" transform="matrix(12.1,0,0,12.1,114,276.7)" />
<use xlink:href="#f3_2f" transform="matrix(12.1,0,0,12.1,123.3,276.7)" />
<use xlink:href="#f3_m" transform="matrix(12.1,0,0,12.1,132.6,276.7)" />
<use xlink:href="#f3_m" transform="matrix(12.1,0,0,12.1,72.6,288.4)" />
<use xlink:href="#f3_2f" transform="matrix(12.1,0,0,12.1,105.6,302.9)" />
<use xlink:href="#f3_25" transform="matrix(12.1,0,0,12.1,112.8,302.9)" />
<use xlink:href="#f3_2a" transform="matrix(12.1,0,0,12.1,117.9,302.9)" />
<use xlink:href="#f3_m" transform="matrix(12.1,0,0,12.1,82.7,330.6)" />
<use xlink:href="#f3_1z" transform="matrix(12.1,0,0,12.1,102.3,330.6)" />
<use xlink:href="#f3_2b" transform="matrix(12.1,0,0,12.1,110.4,330.6)" />
<use xlink:href="#f3_2g" transform="matrix(12.1,0,0,12.1,119.6,330.6)" />
<use xlink:href="#f3_m" transform="matrix(12.1,0,0,12.1,127.5,330.6)" />
<use xlink:href="#f3_m" transform="matrix(12.1,0,0,12.1,84.1,362.8)" />
<use xlink:href="#f3_28" transform="matrix(12.1,0,0,12.1,94.9,362.8)" />
<use xlink:href="#f3_2b" transform="matrix(12.1,0,0,12.1,99.9,362.8)" />
<use xlink:href="#f3_23" transform="matrix(12.1,0,0,12.1,109.1,362.8)" />
<use xlink:href="#f3_2o" transform="matrix(12.1,0,0,12.1,121.9,362.8)" />
<use xlink:href="#f3_2f" transform="matrix(12.1,0,0,12.1,128.7,362.8)" />
<use xlink:href="#f3_25" transform="matrix(12.1,0,0,12.1,135.9,362.8)" />
<use xlink:href="#f3_2a" transform="matrix(12.1,0,0,12.1,141.1,362.8)" />
<use xlink:href="#f3_m" transform="matrix(12.1,0,0,12.1,153.1,362.8)" />
<use xlink:href="#f3_2o" transform="matrix(12.1,0,0,12.1,175.2,362.8)" />
<use xlink:href="#f3_m" transform="matrix(12.1,0,0,12.1,121.6,389)" />
<use xlink:href="#f3_28" transform="matrix(12.1,0,0,12.1,84.6,412.1)" />
<use xlink:href="#f3_2b" transform="matrix(12.1,0,0,12.1,89.5,412.1)" />
<use xlink:href="#f3_23" transform="matrix(12.1,0,0,12.1,98.8,412.1)" />
<use xlink:href="#f3_2o" transform="matrix(12.1,0,0,12.1,111.6,412.1)" />
<use xlink:href="#f3_2f" transform="matrix(12.1,0,0,12.1,118.4,412.1)" />
<use xlink:href="#f3_25" transform="matrix(12.1,0,0,12.1,125.6,412.1)" />
<use xlink:href="#f3_2a" transform="matrix(12.1,0,0,12.1,130.8,412.1)" />
<use xlink:href="#f3_m" transform="matrix(12.1,0,0,12.1,142.7,412.1)" />
<use xlink:href="#f3_2o" transform="matrix(12.1,0,0,12.1,164.8,412.1)" />
<use xlink:href="#f4_2k" transform="matrix(12.1,0,0,12.1,143,276.7)" />
<use xlink:href="#f4_20" transform="matrix(12.1,0,0,12.1,155,288.4)" />
<use xlink:href="#f4_2k" transform="matrix(12.1,0,0,12.1,164.2,288.4)" />
<use xlink:href="#f4_2k" transform="matrix(12.1,0,0,12.1,130.8,302.9)" />
<use xlink:href="#f4_2k" transform="matrix(12.1,0,0,12.1,137.9,330.6)" />
<use xlink:href="#f4_20" transform="matrix(12.1,0,0,12.1,148.5,330.6)" />
<use xlink:href="#f4_2k" transform="matrix(12.1,0,0,12.1,157.7,330.6)" />
<use xlink:href="#f4_2k" transform="matrix(12.1,0,0,12.1,163.5,362.8)" />
<use xlink:href="#f4_13" transform="matrix(12.1,0,0,12.1,196.9,374.6)" />
<use xlink:href="#f4_2k" transform="matrix(12.1,0,0,12.1,153.2,412.1)" />
<use xlink:href="#f4_13" transform="matrix(12.1,0,0,12.1,182.6,412.1)" />
<use xlink:href="#f5_h" transform="matrix(12.1,0,0,12.1,93.9,276.7)" />
<use xlink:href="#f5_x" transform="matrix(12.1,0,0,12.1,58,288.4)" />
<use xlink:href="#f5_x" transform="matrix(12.1,0,0,12.1,58,330.6)" />
<use xlink:href="#f5_h" transform="matrix(12.1,0,0,12.1,72.6,330.6)" />
<use xlink:href="#f5_h" transform="matrix(12.1,0,0,12.1,74,362.8)" />
<use xlink:href="#f5_x" transform="matrix(12.1,0,0,12.1,58,374.6)" />
<use xlink:href="#f5_f" transform="matrix(12.1,0,0,12.1,183.3,374.6)" />
<use xlink:href="#f5_x" transform="matrix(12.1,0,0,12.1,58,412.1)" />
<use xlink:href="#f5_h" transform="matrix(12.1,0,0,12.1,72.5,412.1)" />
<use xlink:href="#f5_f" transform="matrix(12.1,0,0,12.1,172.2,412.1)" />
<use xlink:href="#f5_50" transform="matrix(18.2,0,0,18.2,82.4,295)" />
<use xlink:href="#f5_50" transform="matrix(18.2,0,0,18.2,92.4,337.1)" />
</g>
</g>
<g fill="#000000" >
<use xlink:href="#f2_o" transform="matrix(12,0,0,12,55,465.4)" />
<use xlink:href="#f2_i" transform="matrix(12,0,0,12,64.2,465.4)" />
<use xlink:href="#f3_16" transform="matrix(12,0,0,12,73.7,465.4)" />
<use xlink:href="#f3_25" transform="matrix(12,0,0,12,84,465.4)" />
<use xlink:href="#f3_2a" transform="matrix(12,0,0,12,88.8,465.4)" />
<use xlink:href="#f3_20" transform="matrix(12,0,0,12,97.6,465.4)" />
<use xlink:href="#f3_2g" transform="matrix(12,0,0,12,111.5,465.4)" />
<use xlink:href="#f3_24" transform="matrix(12,0,0,12,116.9,465.4)" />
<use xlink:href="#f3_21" transform="matrix(12,0,0,12,125.7,465.4)" />
<use xlink:href="#f3_20" transform="matrix(12,0,0,12,138.6,465.4)" />
<use xlink:href="#f3_25" transform="matrix(12,0,0,12,148.1,465.4)" />
<use xlink:href="#f3_2f" transform="matrix(12,0,0,12,152.5,465.4)" />
<use xlink:href="#f3_2g" transform="matrix(12,0,0,12,159.4,465.4)" />
<use xlink:href="#f3_1x" transform="matrix(12,0,0,12,164.9,465.4)" />
<use xlink:href="#f3_2a" transform="matrix(12,0,0,12,173,465.4)" />
<use xlink:href="#f3_1z" transform="matrix(12,0,0,12,181.8,465.4)" />
<use xlink:href="#f3_21" transform="matrix(12,0,0,12,190.2,465.4)" />
<use xlink:href="#f3_1y" transform="matrix(12,0,0,12,203,465.4)" />
<use xlink:href="#f3_21" transform="matrix(12,0,0,12,211.8,465.4)" />
<use xlink:href="#f3_2g" transform="matrix(12,0,0,12,219.9,465.4)" />
<use xlink:href="#f3_2j" transform="matrix(12,0,0,12,225.4,465.4)" />
<use xlink:href="#f3_21" transform="matrix(12,0,0,12,238.6,465.4)" />
<use xlink:href="#f3_21" transform="matrix(12,0,0,12,246.6,465.4)" />
<use xlink:href="#f3_2a" transform="matrix(12,0,0,12,255.1,465.4)" />
<use xlink:href="#f3_2g" transform="matrix(12,0,0,12,268.6,465.4)" />
<use xlink:href="#f3_24" transform="matrix(12,0,0,12,274.1,465.4)" />
<use xlink:href="#f3_21" transform="matrix(12,0,0,12,282.9,465.4)" />
<use xlink:href="#f3_2c" transform="matrix(12,0,0,12,295.7,465.4)" />
<use xlink:href="#f3_28" transform="matrix(12,0,0,12,305.2,465.4)" />
<use xlink:href="#f3_1x" transform="matrix(12,0,0,12,309.6,465.4)" />
<use xlink:href="#f3_2a" transform="matrix(12,0,0,12,318,465.4)" />
<use xlink:href="#f3_21" transform="matrix(12,0,0,12,326.8,465.4)" />
<use xlink:href="#f3_2f" transform="matrix(12,0,0,12,334.9,465.4)" />
<use xlink:href="#f3_m" transform="matrix(12,0,0,12,346.6,465.4)" />
<use xlink:href="#f3_2k" transform="matrix(12,0,0,12,356.1,465.4)" />
<use xlink:href="#f6_4y" transform="matrix(12,0,0,12,370.1,465.4)" />
<use xlink:href="#f3_2l" transform="matrix(12,0,0,12,384.4,465.4)" />
<use xlink:href="#f3_f" transform="matrix(12,0,0,12,397.6,465.4)" />
<use xlink:href="#f3_m" transform="matrix(12,0,0,12,412.6,465.4)" />
<use xlink:href="#f3_2m" transform="matrix(12,0,0,12,421.8,465.4)" />
<use xlink:href="#f3_x" transform="matrix(12,0,0,12,434.6,465.4)" />
<use xlink:href="#f3_p" transform="matrix(12,0,0,12,449.6,465.4)" />
<use xlink:href="#f3_1x" transform="matrix(12,0,0,12,463.5,465.4)" />
<use xlink:href="#f3_2a" transform="matrix(12,0,0,12,471.6,465.4)" />
<use xlink:href="#f3_20" transform="matrix(12,0,0,12,480.4,465.4)" />
<use xlink:href="#f3_p" transform="matrix(12,0,0,12,494.3,465.4)" />
<use xlink:href="#f3_2k" transform="matrix(12,0,0,12,503.5,465.4)" />
<use xlink:href="#f6_4y" transform="matrix(12,0,0,12,517.2,465.4)" />
<use xlink:href="#f3_m" transform="matrix(12,0,0,12,531.1,465.4)" />
<use xlink:href="#f7_1ad" transform="matrix(12,0,0,12,540.3,465.4)" />
<use xlink:href="#f3_p" transform="matrix(12,0,0,12,545.4,465.4)" />
<use xlink:href="#f3_2l" transform="matrix(12,0,0,12,554.6,465.4)" />
<use xlink:href="#f3_f" transform="matrix(12,0,0,12,567.8,465.4)" />
<use xlink:href="#f3_p" transform="matrix(12,0,0,12,582.8,465.4)" />
<use xlink:href="#f3_2m" transform="matrix(12,0,0,12,592,465.4)" />
<use xlink:href="#f3_x" transform="matrix(12,0,0,12,604.8,465.4)" />
<use xlink:href="#f3_m" transform="matrix(12,0,0,12,619.8,465.4)" />
<use xlink:href="#f3_k" transform="matrix(12,0,0,12,629,465.4)" />
<use xlink:href="#f3_i" transform="matrix(12,0,0,12,638.1,465.4)" />
<use xlink:href="#f2_1j" transform="matrix(12,0,0,12,55,511.3)" />
<use xlink:href="#f2_2b" transform="matrix(12,0,0,12,65.3,511.3)" />
<use xlink:href="#f2_28" transform="matrix(12,0,0,12,74.5,511.3)" />
<use xlink:href="#f2_2h" transform="matrix(12,0,0,12,79.2,511.3)" />
<use xlink:href="#f2_2g" transform="matrix(12,0,0,12,89.5,511.3)" />
<use xlink:href="#f2_25" transform="matrix(12,0,0,12,95.7,511.3)" />
<use xlink:href="#f2_2b" transform="matrix(12,0,0,12,100.8,511.3)" />
<use xlink:href="#f2_2a" transform="matrix(12,0,0,12,109.9,511.3)" />
<use xlink:href="#f2_u" transform="matrix(12,0,0,12,120.2,511.3)" />
<use xlink:href="#f3_m" transform="matrix(12,0,0,12,55,556.8)" />
<use xlink:href="#f3_2k" transform="matrix(12,0,0,12,64.2,556.8)" />
<use xlink:href="#f6_4y" transform="matrix(12,0,0,12,77.8,556.8)" />
<use xlink:href="#f6_2l" transform="matrix(12,0,0,12,92.1,556.8)" />
<use xlink:href="#f6_f" transform="matrix(12,0,0,12,105.3,556.8)" />
<use xlink:href="#f6_m" transform="matrix(12,0,0,12,120.3,556.8)" />
<use xlink:href="#f6_2m" transform="matrix(12,0,0,12,129.4,556.8)" />
<use xlink:href="#f6_x" transform="matrix(12,0,0,12,142.2,556.8)" />
<use xlink:href="#f6_p" transform="matrix(12,0,0,12,157.3,556.8)" />
<use xlink:href="#f6_4s" transform="matrix(12,0,0,12,171.2,556.8)" />
<use xlink:href="#f6_c" transform="matrix(12,0,0,12,189.5,556.8)" />
<use xlink:href="#f6_l" transform="matrix(12,0,0,12,195.7,556.8)" />
<use xlink:href="#f6_d" transform="matrix(12,0,0,12,204.5,556.8)" />
<use xlink:href="#f3_p" transform="matrix(12,0,0,12,55,602.6)" />
<use xlink:href="#f3_2k" transform="matrix(12,0,0,12,64.2,602.6)" />
<use xlink:href="#f6_4y" transform="matrix(12,0,0,12,77.8,602.6)" />
<use xlink:href="#f3_m" transform="matrix(12,0,0,12,91.7,602.6)" />
<use xlink:href="#f7_1ad" transform="matrix(12,0,0,12,100.9,602.6)" />
<use xlink:href="#f3_p" transform="matrix(12,0,0,12,106,602.6)" />
<use xlink:href="#f3_2l" transform="matrix(12,0,0,12,120.3,602.6)" />
<use xlink:href="#f3_f" transform="matrix(12,0,0,12,133.5,602.6)" />
<use xlink:href="#f3_p" transform="matrix(12,0,0,12,148.5,602.6)" />
<use xlink:href="#f3_2m" transform="matrix(12,0,0,12,157.6,602.6)" />
<use xlink:href="#f3_x" transform="matrix(12,0,0,12,170.5,602.6)" />
<use xlink:href="#f3_m" transform="matrix(12,0,0,12,185.5,602.6)" />
<use xlink:href="#f3_k" transform="matrix(12,0,0,12,194.6,602.6)" />
<use xlink:href="#f3_2b" transform="matrix(12,0,0,12,55,648.5)" />
<use xlink:href="#f3_2e" transform="matrix(12,0,0,12,64.6,648.5)" />
<use xlink:href="#f3_m" transform="matrix(12,0,0,12,75.2,648.5)" />
<use xlink:href="#f3_2k" transform="matrix(12,0,0,12,84.3,648.5)" />
<use xlink:href="#f6_4y" transform="matrix(12,0,0,12,97.9,648.5)" />
<use xlink:href="#f6_2l" transform="matrix(12,0,0,12,111.9,648.5)" />
<use xlink:href="#f6_f" transform="matrix(12,0,0,12,125.1,648.5)" />
<use xlink:href="#f6_m" transform="matrix(12,0,0,12,140.1,648.5)" />
<use xlink:href="#f6_2m" transform="matrix(12,0,0,12,149.2,648.5)" />
<use xlink:href="#f6_x" transform="matrix(12,0,0,12,162,648.5)" />
<use xlink:href="#f6_s" transform="matrix(12,0,0,12,177.1,648.5)" />
<use xlink:href="#f6_4s" transform="matrix(12,0,0,12,191,648.5)" />
<use xlink:href="#f6_c" transform="matrix(12,0,0,12,209.3,648.5)" />
<use xlink:href="#f6_m" transform="matrix(12,0,0,12,215.5,648.5)" />
<use xlink:href="#f6_d" transform="matrix(12,0,0,12,224.3,648.5)" />
<use xlink:href="#f3_14" transform="matrix(12,0,0,12,55,694.3)" />
<use xlink:href="#f3_25" transform="matrix(12,0,0,12,68.6,694.3)" />
<use xlink:href="#f3_2f" transform="matrix(12,0,0,12,73,694.3)" />
<use xlink:href="#f3_2g" transform="matrix(12,0,0,12,80,694.3)" />
<use xlink:href="#f3_1x" transform="matrix(12,0,0,12,85.4,694.3)" />
<use xlink:href="#f3_2a" transform="matrix(12,0,0,12,93.8,694.3)" />
<use xlink:href="#f3_1z" transform="matrix(12,0,0,12,102.6,694.3)" />
<use xlink:href="#f3_21" transform="matrix(12,0,0,12,110.7,694.3)" />
<use xlink:href="#f3_1y" transform="matrix(12,0,0,12,123.5,694.3)" />
<use xlink:href="#f3_21" transform="matrix(12,0,0,12,132.7,694.3)" />
<use xlink:href="#f3_2g" transform="matrix(12,0,0,12,140.8,694.3)" />
<use xlink:href="#f3_2j" transform="matrix(12,0,0,12,146.2,694.3)" />
<use xlink:href="#f3_21" transform="matrix(12,0,0,12,159.5,694.3)" />
<use xlink:href="#f3_21" transform="matrix(12,0,0,12,167.5,694.3)" />
<use xlink:href="#f3_2a" transform="matrix(12,0,0,12,175.6,694.3)" />
<use xlink:href="#f3_2c" transform="matrix(12,0,0,12,189.1,694.3)" />
<use xlink:href="#f3_28" transform="matrix(12,0,0,12,198.6,694.3)" />
<use xlink:href="#f3_1x" transform="matrix(12,0,0,12,203.4,694.3)" />
<use xlink:href="#f3_2a" transform="matrix(12,0,0,12,211.8,694.3)" />
<use xlink:href="#f3_21" transform="matrix(12,0,0,12,220.6,694.3)" />
<use xlink:href="#f3_c" transform="matrix(12,0,0,12,233.4,694.3)" />
<use xlink:href="#f3_l" transform="matrix(12,0,0,12,239.7,694.3)" />
<use xlink:href="#f3_d" transform="matrix(12,0,0,12,248.8,694.3)" />
<use xlink:href="#f3_a" transform="matrix(12,0,0,12,259.8,694.3)" />
<use xlink:href="#f3_c" transform="matrix(12,0,0,12,278.5,694.3)" />
<use xlink:href="#f3_m" transform="matrix(12,0,0,12,284.7,694.3)" />
<use xlink:href="#f3_d" transform="matrix(12,0,0,12,293.8,694.3)" />
</g>
<path d="M78.5,770.2L80.4,769m0,0l4.5,8.2m0,.1l4.9,-21.9m0,0h86.3" class="g4_27" />
<path fill-rule="evenodd" d="M77.6,769.2l2.6,-1.6l3.9,7l4.6,-20.4h86.7v1H89.3l-4.7,21.3h-.9l-4.5,-7.6l-1.3,.8l-.3,-.5Z" class="g5_27" />
<path d="M76.2,751.9H176.8M73.3,725.9V778M179.1,725.9V778" class="g6_27" />
<path d="M205.9,768.7l1.8,-1.1m.1,0l4.4,7.4m0,0l4.9,-19.6m0,0h10" class="g4_27" />
<path fill-rule="evenodd" d="M205,767.7l2.5,-1.4l4,6L216,754.2h10.3v1h-9.6l-4.8,19.1H211l-4.5,-6.8l-1.3,.7l-.2,-.5Z" class="g5_27" />
<path d="M203.5,751.9h24.3M200.6,728.1v47.6m29.5,-47.6v47.6" class="g6_27" />
<g clip-path="url(#c3_27)">
<g fill="#000000" >
<use xlink:href="#f3_l" transform="matrix(7.3,0,0,7.1,110.8,749.5)" />
<use xlink:href="#f3_m" transform="matrix(7.3,0,0,7.1,144.5,749.5)" />
<use xlink:href="#f3_m" transform="matrix(7.3,0,0,7.1,100,766.5)" />
<use xlink:href="#f3_m" transform="matrix(7.3,0,0,7.1,134.1,766.5)" />
<use xlink:href="#f3_m" transform="matrix(7.3,0,0,7.1,167.6,766.5)" />
<use xlink:href="#f3_n" transform="matrix(12.7,0,0,12.4,211.3,744.7)" />
<use xlink:href="#f3_l" transform="matrix(12.7,0,0,12.4,248.8,756.6)" />
<use xlink:href="#f3_t" transform="matrix(12.7,0,0,12.4,216.6,772.5)" />
<use xlink:href="#f4_20" transform="matrix(12.7,0,0,12.4,102,744.7)" />
<use xlink:href="#f4_20" transform="matrix(12.7,0,0,12.4,134.5,744.7)" />
<use xlink:href="#f4_1x" transform="matrix(12.7,0,0,12.4,89.8,774.8)" />
<use xlink:href="#f4_1y" transform="matrix(12.7,0,0,12.4,124.2,774.8)" />
<use xlink:href="#f4_1z" transform="matrix(12.7,0,0,12.4,158.6,774.8)" />
<use xlink:href="#f5_h" transform="matrix(12.7,0,0,12.4,120.7,744.7)" />
<use xlink:href="#f5_x" transform="matrix(12.7,0,0,12.4,58,756.6)" />
<use xlink:href="#f5_x" transform="matrix(12.7,0,0,12.4,185.2,756.6)" />
<use xlink:href="#f5_x" transform="matrix(12.7,0,0,12.4,236.2,756.6)" />
<use xlink:href="#f5_f" transform="matrix(12.7,0,0,12.4,110.7,774.8)" />
<use xlink:href="#f5_f" transform="matrix(12.7,0,0,12.4,144.8,774.8)" />
</g>
</g>
<g fill="#000000" >
<use xlink:href="#f2_1j" transform="matrix(12,0,0,12,399.8,825.6)" />
<use xlink:href="#f2_15" transform="matrix(12,0,0,12,410.1,825.6)" />
<use xlink:href="#f2_13" transform="matrix(12,0,0,12,422.2,825.6)" />
<use xlink:href="#f2_1k" transform="matrix(12,0,0,12,435.4,825.6)" />
<use xlink:href="#f2_19" transform="matrix(12,0,0,12,447.5,825.6)" />
<use xlink:href="#f2_1f" transform="matrix(12,0,0,12,454.4,825.6)" />
<use xlink:href="#f2_1e" transform="matrix(12,0,0,12,468.7,825.6)" />
<use xlink:href="#f2_h" transform="matrix(12,0,0,12,486.8,825.6)" />
<use xlink:href="#f2_12" transform="matrix(12,0,0,12,497.8,825.6)" />
<use xlink:href="#f8_1h" transform="matrix(12,0,0,12,55,849.8)" />
<use xlink:href="#f8_2h" transform="matrix(12,0,0,12,68.3,849.8)" />
<use xlink:href="#f8_21" transform="matrix(12,0,0,12,78.5,849.8)" />
<use xlink:href="#f8_2f" transform="matrix(12,0,0,12,86.6,849.8)" />
<use xlink:href="#f8_2g" transform="matrix(12,0,0,12,93.5,849.8)" />
<use xlink:href="#f8_25" transform="matrix(12,0,0,12,98.6,849.8)" />
<use xlink:href="#f8_2b" transform="matrix(12,0,0,12,103.8,849.8)" />
<use xlink:href="#f8_2a" transform="matrix(12,0,0,12,113,849.8)" />
<use xlink:href="#f8_2a" transform="matrix(12,0,0,12,127.9,849.8)" />
<use xlink:href="#f8_2h" transform="matrix(12,0,0,12,138.2,849.8)" />
<use xlink:href="#f8_29" transform="matrix(12,0,0,12,148.1,849.8)" />
<use xlink:href="#f8_1y" transform="matrix(12,0,0,12,162.7,849.8)" />
<use xlink:href="#f8_21" transform="matrix(12,0,0,12,171.9,849.8)" />
<use xlink:href="#f8_2e" transform="matrix(12,0,0,12,180,849.8)" />
<use xlink:href="#f8_2f" transform="matrix(12,0,0,12,186.9,849.8)" />
<use xlink:href="#f8_p" transform="matrix(12,0,0,12,198.7,849.8)" />
<use xlink:href="#f8_2g" transform="matrix(12,0,0,12,212.6,849.8)" />
<use xlink:href="#f8_2b" transform="matrix(12,0,0,12,217.7,849.8)" />
<use xlink:href="#f8_l" transform="matrix(12,0,0,12,231.6,849.8)" />
<use xlink:href="#f8_m" transform="matrix(12,0,0,12,240.8,849.8)" />
<use xlink:href="#f8_1z" transform="matrix(12,0,0,12,254.3,849.8)" />
<use xlink:href="#f8_1x" transform="matrix(12,0,0,12,262.4,849.8)" />
<use xlink:href="#f8_2e" transform="matrix(12,0,0,12,271.6,849.8)" />
<use xlink:href="#f8_2e" transform="matrix(12,0,0,12,278.5,849.8)" />
<use xlink:href="#f8_2l" transform="matrix(12,0,0,12,285.5,849.8)" />
<use xlink:href="#f8_m" transform="matrix(12,0,0,12,298.3,849.8)" />
<use xlink:href="#f8_29" transform="matrix(12,0,0,12,311.9,849.8)" />
<use xlink:href="#f8_1x" transform="matrix(12,0,0,12,326.5,849.8)" />
<use xlink:href="#f8_2e" transform="matrix(12,0,0,12,335.7,849.8)" />
<use xlink:href="#f8_27" transform="matrix(12,0,0,12,342.7,849.8)" />
<use xlink:href="#f8_2f" transform="matrix(12,0,0,12,351.8,849.8)" />
<use xlink:href="#f8_21" transform="matrix(12,0,0,12,363.6,849.8)" />
<use xlink:href="#f8_1x" transform="matrix(12,0,0,12,371.6,849.8)" />
<use xlink:href="#f8_1z" transform="matrix(12,0,0,12,380.8,849.8)" />
<use xlink:href="#f8_24" transform="matrix(12,0,0,12,388.8,849.8)" />
<use xlink:href="#f2_p" transform="matrix(12,0,0,12,55,898.6)" />
<use xlink:href="#f2_i" transform="matrix(12,0,0,12,64.2,898.6)" />
<use xlink:href="#f3_19" transform="matrix(12,0,0,12,73.7,898.6)" />
<use xlink:href="#f3_22" transform="matrix(12,0,0,12,80,898.6)" />
<use xlink:href="#f3_11" transform="matrix(12,0,0,12,90.2,898.6)" />
<use xlink:href="#f3_25" transform="matrix(12,0,0,12,108.1,898.6)" />
<use xlink:href="#f3_2f" transform="matrix(12,0,0,12,112.9,898.6)" />
<use xlink:href="#f3_1x" transform="matrix(12,0,0,12,124.6,898.6)" />
<use xlink:href="#f3_2f" transform="matrix(12,0,0,12,137.4,898.6)" />
<use xlink:href="#f3_27" transform="matrix(12,0,0,12,144.4,898.6)" />
<use xlink:href="#f3_21" transform="matrix(12,0,0,12,153.6,898.6)" />
<use xlink:href="#f3_2j" transform="matrix(12,0,0,12,161.6,898.6)" />
<use xlink:href="#f3_h" transform="matrix(12,0,0,12,175,898.6)" />
<use xlink:href="#f3_2f" transform="matrix(12,0,0,12,181.2,898.6)" />
<use xlink:href="#f3_2l" transform="matrix(12,0,0,12,188.5,898.6)" />
<use xlink:href="#f3_29" transform="matrix(12,0,0,12,197.7,898.6)" />
<use xlink:href="#f3_29" transform="matrix(12,0,0,12,212,898.6)" />
<use xlink:href="#f3_21" transform="matrix(12,0,0,12,225.9,898.6)" />
<use xlink:href="#f3_2g" transform="matrix(12,0,0,12,234,898.6)" />
<use xlink:href="#f3_2e" transform="matrix(12,0,0,12,239.5,898.6)" />
<use xlink:href="#f3_25" transform="matrix(12,0,0,12,245.7,898.6)" />
<use xlink:href="#f3_1z" transform="matrix(12,0,0,12,250.1,898.6)" />
<use xlink:href="#f3_29" transform="matrix(12,0,0,12,263.3,898.6)" />
<use xlink:href="#f3_1x" transform="matrix(12,0,0,12,277.2,898.6)" />
<use xlink:href="#f3_2g" transform="matrix(12,0,0,12,285.3,898.6)" />
<use xlink:href="#f3_2e" transform="matrix(12,0,0,12,290.8,898.6)" />
<use xlink:href="#f3_25" transform="matrix(12,0,0,12,297,898.6)" />
<use xlink:href="#f3_2k" transform="matrix(12,0,0,12,301.7,898.6)" />
<use xlink:href="#f3_2b" transform="matrix(12,0,0,12,315.3,898.6)" />
<use xlink:href="#f3_22" transform="matrix(12,0,0,12,324.8,898.6)" />
<use xlink:href="#f3_2b" transform="matrix(12,0,0,12,335,898.6)" />
<use xlink:href="#f3_2e" transform="matrix(12,0,0,12,344.6,898.6)" />
<use xlink:href="#f3_20" transform="matrix(12,0,0,12,350.8,898.6)" />
<use xlink:href="#f3_21" transform="matrix(12,0,0,12,359.9,898.6)" />
<use xlink:href="#f3_2e" transform="matrix(12,0,0,12,368,898.6)" />
<use xlink:href="#f3_n" transform="matrix(12,0,0,12,379,898.6)" />
<use xlink:href="#f3_g" transform="matrix(12,0,0,12,387.8,898.6)" />
<use xlink:href="#f3_2g" transform="matrix(12,0,0,12,396.9,898.6)" />
<use xlink:href="#f3_24" transform="matrix(12,0,0,12,402.4,898.6)" />
<use xlink:href="#f3_21" transform="matrix(12,0,0,12,411.2,898.6)" />
<use xlink:href="#f3_2a" transform="matrix(12,0,0,12,419.3,898.6)" />
<use xlink:href="#f3_2c" transform="matrix(12,0,0,12,433.2,898.6)" />
<use xlink:href="#f3_2e" transform="matrix(12,0,0,12,442.3,898.6)" />
<use xlink:href="#f3_2b" transform="matrix(12,0,0,12,448.2,898.6)" />
<use xlink:href="#f3_2i" transform="matrix(12,0,0,12,457.7,898.6)" />
<use xlink:href="#f3_21" transform="matrix(12,0,0,12,466.5,898.6)" />
<use xlink:href="#f3_2g" transform="matrix(12,0,0,12,479.3,898.6)" />
<use xlink:href="#f3_24" transform="matrix(12,0,0,12,484.8,898.6)" />
<use xlink:href="#f3_1x" transform="matrix(12,0,0,12,493.6,898.6)" />
<use xlink:href="#f3_2g" transform="matrix(12,0,0,12,501.7,898.6)" />
<use xlink:href="#f3_20" transform="matrix(12,0,0,12,511.6,898.6)" />
<use xlink:href="#f3_21" transform="matrix(12,0,0,12,520.7,898.6)" />
<use xlink:href="#f3_2g" transform="matrix(12,0,0,12,528.4,898.6)" />
<use xlink:href="#f3_11" transform="matrix(12,0,0,12,538.7,898.6)" />
<use xlink:href="#f3_x" transform="matrix(12,0,0,12,556.3,898.6)" />
<use xlink:href="#f3_k" transform="matrix(12,0,0,12,571.3,898.6)" />
<use xlink:href="#f3_i" transform="matrix(12,0,0,12,580.4,898.6)" />
<use xlink:href="#f2_1j" transform="matrix(12,0,0,12,55,922.8)" />
<use xlink:href="#f2_2b" transform="matrix(12,0,0,12,65.3,922.8)" />
<use xlink:href="#f2_28" transform="matrix(12,0,0,12,74.5,922.8)" />
<use xlink:href="#f2_2h" transform="matrix(12,0,0,12,79.2,922.8)" />
<use xlink:href="#f2_2g" transform="matrix(12,0,0,12,89.5,922.8)" />
<use xlink:href="#f2_25" transform="matrix(12,0,0,12,95.7,922.8)" />
<use xlink:href="#f2_2b" transform="matrix(12,0,0,12,100.8,922.8)" />
<use xlink:href="#f2_2a" transform="matrix(12,0,0,12,109.9,922.8)" />
<use xlink:href="#f2_u" transform="matrix(12,0,0,12,120.2,922.8)" />
<use xlink:href="#f3_1c" transform="matrix(12,0,0,12,55,976.7)" />
<use xlink:href="#f3_21" transform="matrix(12,0,0,12,66,976.7)" />
<use xlink:href="#f3_2g" transform="matrix(12,0,0,12,74.1,976.7)" />
<use xlink:href="#f3_11" transform="matrix(12,0,0,12,84.3,976.7)" />
<use xlink:href="#f3_x" transform="matrix(12,0,0,12,101.9,976.7)" />
</g>
<g clip-path="url(#c4_27)">
<g fill="#000000" >
<use xlink:href="#f3_k" transform="matrix(12.6,0,0,12.2,133.1,949.6)" />
<use xlink:href="#f3_k" transform="matrix(12.6,0,0,12.2,170,977.2)" />
<use xlink:href="#f3_k" transform="matrix(12.6,0,0,12.2,201.2,1004.8)" />
<use xlink:href="#f4_1x" transform="matrix(12.6,0,0,12.2,169.9,949.6)" />
<use xlink:href="#f4_1y" transform="matrix(12.6,0,0,12.2,200.9,949.6)" />
<use xlink:href="#f4_1x" transform="matrix(12.6,0,0,12.2,138.3,977.2)" />
<use xlink:href="#f4_1z" transform="matrix(12.6,0,0,12.2,201.5,977.2)" />
<use xlink:href="#f4_1y" transform="matrix(12.6,0,0,12.2,138.1,1004.8)" />
<use xlink:href="#f4_1z" transform="matrix(12.6,0,0,12.2,175.6,1004.8)" />
<use xlink:href="#f5_4r" transform="matrix(12.6,0,0,12.2,119.8,951)" />
<use xlink:href="#f5_57" transform="matrix(12.6,0,0,12.2,211,951)" />
<use xlink:href="#f5_4s" transform="matrix(12.6,0,0,12.2,119.8,968.6)" />
<use xlink:href="#f5_58" transform="matrix(12.6,0,0,12.2,211,968.6)" />
<use xlink:href="#f5_h" transform="matrix(12.6,0,0,12.2,127.7,977.2)" />
<use xlink:href="#f5_4s" transform="matrix(12.6,0,0,12.2,119.8,986.3)" />
<use xlink:href="#f5_58" transform="matrix(12.6,0,0,12.2,211,986.3)" />
<use xlink:href="#f5_4s" transform="matrix(12.6,0,0,12.2,119.8,1003.9)" />
<use xlink:href="#f5_58" transform="matrix(12.6,0,0,12.2,211,1003.9)" />
<use xlink:href="#f5_h" transform="matrix(12.6,0,0,12.2,128.1,1004.8)" />
<use xlink:href="#f5_h" transform="matrix(12.6,0,0,12.2,165.3,1004.8)" />
<use xlink:href="#f5_4t" transform="matrix(12.6,0,0,12.2,119.8,1009.6)" />
<use xlink:href="#f5_59" transform="matrix(12.6,0,0,12.2,211,1009.6)" />
</g>
</g>
<g fill="#000000" >
<use xlink:href="#f3_1y" transform="matrix(12,0,0,12,227.8,976.7)" />
<use xlink:href="#f3_21" transform="matrix(12,0,0,12,236.6,976.7)" />
<use xlink:href="#f3_1x" transform="matrix(12,0,0,12,249.4,976.7)" />
<use xlink:href="#f3_2f" transform="matrix(12,0,0,12,262.2,976.7)" />
<use xlink:href="#f3_27" transform="matrix(12,0,0,12,269.2,976.7)" />
<use xlink:href="#f3_21" transform="matrix(12,0,0,12,278.3,976.7)" />
<use xlink:href="#f3_2j" transform="matrix(12,0,0,12,286.4,976.7)" />
<use xlink:href="#f3_2f" transform="matrix(12,0,0,12,304.4,976.7)" />
<use xlink:href="#f3_2l" transform="matrix(12,0,0,12,311.7,976.7)" />
<use xlink:href="#f3_29" transform="matrix(12,0,0,12,320.8,976.7)" />
<use xlink:href="#f3_29" transform="matrix(12,0,0,12,335.1,976.7)" />
<use xlink:href="#f3_21" transform="matrix(12,0,0,12,349.1,976.7)" />
<use xlink:href="#f3_2g" transform="matrix(12,0,0,12,357.1,976.7)" />
<use xlink:href="#f3_2e" transform="matrix(12,0,0,12,362.6,976.7)" />
<use xlink:href="#f3_25" transform="matrix(12,0,0,12,368.8,976.7)" />
<use xlink:href="#f3_1z" transform="matrix(12,0,0,12,373.6,976.7)" />
<use xlink:href="#f3_29" transform="matrix(12,0,0,12,386.8,976.7)" />
<use xlink:href="#f3_1x" transform="matrix(12,0,0,12,400.3,976.7)" />
<use xlink:href="#f3_2g" transform="matrix(12,0,0,12,408.4,976.7)" />
<use xlink:href="#f3_2e" transform="matrix(12,0,0,12,413.9,976.7)" />
<use xlink:href="#f3_25" transform="matrix(12,0,0,12,420.5,976.7)" />
<use xlink:href="#f3_2k" transform="matrix(12,0,0,12,425.2,976.7)" />
<use xlink:href="#f3_2b" transform="matrix(12,0,0,12,438.8,976.7)" />
<use xlink:href="#f3_22" transform="matrix(12,0,0,12,448.3,976.7)" />
<use xlink:href="#f3_2b" transform="matrix(12,0,0,12,458.6,976.7)" />
<use xlink:href="#f3_2e" transform="matrix(12,0,0,12,468.1,976.7)" />
<use xlink:href="#f3_20" transform="matrix(12,0,0,12,474.3,976.7)" />
<use xlink:href="#f3_21" transform="matrix(12,0,0,12,483.5,976.7)" />
<use xlink:href="#f3_2e" transform="matrix(12,0,0,12,491.5,976.7)" />
<use xlink:href="#f3_n" transform="matrix(12,0,0,12,502.1,976.7)" />
</g>
<g clip-path="url(#c5_27)">
<g fill="#000000" >
<use xlink:href="#f3_k" transform="matrix(12.1,0,0,12.1,131.3,1037.8)" />
<use xlink:href="#f3_2o" transform="matrix(12.1,0,0,12.1,77,1065.1)" />
<use xlink:href="#f3_2o" transform="matrix(12.1,0,0,12.1,99.7,1065.1)" />
<use xlink:href="#f3_k" transform="matrix(12.1,0,0,12.1,168.1,1065.1)" />
<use xlink:href="#f3_k" transform="matrix(12.1,0,0,12.1,199.3,1092.4)" />
<use xlink:href="#f3_2o" transform="matrix(12.1,0,0,12.1,56.8,1121.7)" />
<use xlink:href="#f3_2o" transform="matrix(12.1,0,0,12.1,79.6,1121.7)" />
<use xlink:href="#f3_c" transform="matrix(12.1,0,0,12.1,121.8,1121.7)" />
<use xlink:href="#f3_k" transform="matrix(12.1,0,0,12.1,128.1,1121.7)" />
<use xlink:href="#f3_d" transform="matrix(12.1,0,0,12.1,172,1121.7)" />
<use xlink:href="#f3_c" transform="matrix(12.1,0,0,12.1,204.7,1121.7)" />
<use xlink:href="#f3_k" transform="matrix(12.1,0,0,12.1,246,1121.7)" />
<use xlink:href="#f3_d" transform="matrix(12.1,0,0,12.1,255.2,1121.7)" />
<use xlink:href="#f4_1x" transform="matrix(12.1,0,0,12.1,168,1037.8)" />
<use xlink:href="#f4_1y" transform="matrix(12.1,0,0,12.1,199,1037.8)" />
<use xlink:href="#f4_11" transform="matrix(12.1,0,0,12.1,85.8,1065.1)" />
<use xlink:href="#f4_1x" transform="matrix(12.1,0,0,12.1,136.5,1065.1)" />
<use xlink:href="#f4_1z" transform="matrix(12.1,0,0,12.1,199.6,1065.1)" />
<use xlink:href="#f4_1y" transform="matrix(12.1,0,0,12.1,136.3,1092.4)" />
<use xlink:href="#f4_1z" transform="matrix(12.1,0,0,12.1,173.8,1092.4)" />
<use xlink:href="#f4_11" transform="matrix(12.1,0,0,12.1,65.6,1121.7)" />
<use xlink:href="#f4_1x" transform="matrix(12.1,0,0,12.1,112.1,1121.7)" />
<use xlink:href="#f4_1y" transform="matrix(12.1,0,0,12.1,154.3,1121.7)" />
<use xlink:href="#f4_1z" transform="matrix(12.1,0,0,12.1,163.4,1121.7)" />
<use xlink:href="#f4_1y" transform="matrix(12.1,0,0,12.1,195.3,1121.7)" />
<use xlink:href="#f4_1x" transform="matrix(12.1,0,0,12.1,211.3,1121.7)" />
<use xlink:href="#f4_1z" transform="matrix(12.1,0,0,12.1,220.5,1121.7)" />
<use xlink:href="#f5_4r" transform="matrix(12.1,0,0,12.1,118,1039.2)" />
<use xlink:href="#f5_57" transform="matrix(12.1,0,0,12.1,209.2,1039.2)" />
<use xlink:href="#f5_4s" transform="matrix(12.1,0,0,12.1,118,1056.7)" />
<use xlink:href="#f5_58" transform="matrix(12.1,0,0,12.1,209.2,1056.7)" />
<use xlink:href="#f5_1s" transform="matrix(12.1,0,0,12.1,55.1,1065.1)" />
<use xlink:href="#f5_x" transform="matrix(12.1,0,0,12.1,103.2,1065.1)" />
<use xlink:href="#f5_h" transform="matrix(12.1,0,0,12.1,125.8,1065.1)" />
<use xlink:href="#f5_4s" transform="matrix(12.1,0,0,12.1,118,1074.1)" />
<use xlink:href="#f5_58" transform="matrix(12.1,0,0,12.1,209.2,1074.1)" />
<use xlink:href="#f5_4s" transform="matrix(12.1,0,0,12.1,118,1091.6)" />
<use xlink:href="#f5_58" transform="matrix(12.1,0,0,12.1,209.2,1091.6)" />
<use xlink:href="#f5_h" transform="matrix(12.1,0,0,12.1,126.3,1092.4)" />
<use xlink:href="#f5_h" transform="matrix(12.1,0,0,12.1,163.4,1092.4)" />
<use xlink:href="#f5_4t" transform="matrix(12.1,0,0,12.1,118,1097.3)" />
<use xlink:href="#f5_59" transform="matrix(12.1,0,0,12.1,209.2,1097.3)" />
<use xlink:href="#f5_x" transform="matrix(12.1,0,0,12.1,86.9,1121.7)" />
<use xlink:href="#f5_h" transform="matrix(12.1,0,0,12.1,101.4,1121.7)" />
<use xlink:href="#f5_f" transform="matrix(12.1,0,0,12.1,140.7,1121.7)" />
<use xlink:href="#f5_f" transform="matrix(12.1,0,0,12.1,181.8,1121.7)" />
<use xlink:href="#f5_h" transform="matrix(12.1,0,0,12.1,232.5,1121.7)" />
</g>
</g>
<g fill="#000000" >
<use xlink:href="#f3_x" transform="matrix(12,0,0,12,55,1151.3)" />
<use xlink:href="#f6_4y" transform="matrix(12,0,0,12,70.1,1151.3)" />
<use xlink:href="#f3_1x" transform="matrix(12,0,0,12,84,1151.3)" />
<use xlink:href="#f3_1y" transform="matrix(12,0,0,12,92.1,1151.3)" />
<use xlink:href="#f3_1z" transform="matrix(12,0,0,12,100.9,1151.3)" />
<use xlink:href="#f3_f" transform="matrix(12,0,0,12,113.7,1151.3)" />
<use xlink:href="#f3_1x" transform="matrix(12,0,0,12,128.7,1151.3)" />
<use xlink:href="#f3_1y" transform="matrix(12,0,0,12,136.8,1151.3)" />
<use xlink:href="#f3_1z" transform="matrix(12,0,0,12,145.6,1151.3)" />
<use xlink:href="#f3_x" transform="matrix(12,0,0,12,158.4,1151.3)" />
<use xlink:href="#f3_k" transform="matrix(12,0,0,12,173.4,1151.3)" />
<use xlink:href="#f3_1g" transform="matrix(12,0,0,12,187.3,1151.3)" />
<use xlink:href="#f3_2e" transform="matrix(12,0,0,12,197.6,1151.3)" />
<use xlink:href="#f3_2b" transform="matrix(12,0,0,12,203.4,1151.3)" />
<use xlink:href="#f3_2i" transform="matrix(12,0,0,12,212.9,1151.3)" />
<use xlink:href="#f3_21" transform="matrix(12,0,0,12,221.7,1151.3)" />
<use xlink:href="#f3_20" transform="matrix(12,0,0,12,229.8,1151.3)" />
</g>
<path fill-rule="evenodd" d="M37.4,38.1h.7v-.7h-.7v.7Z" class="g5_27" />
<path fill-rule="evenodd" d="M37.4,38.1h.7v-.7h-.7v.7Z" class="g5_27" />
<path fill-rule="evenodd" d="M38.1,38.1H871.5v-.7H38.1v.7Z" class="g5_27" />
<path fill-rule="evenodd" d="M871.5,38.1h.8v-.7h-.8v.7Z" class="g5_27" />
<path fill-rule="evenodd" d="M871.5,38.1h.8v-.7h-.8v.7Z" class="g5_27" />
<path fill-rule="evenodd" d="M37.4,1248.5h.7V38.1h-.7V1248.5Z" class="g5_27" />
<path fill-rule="evenodd" d="M872.3,1248.5h.7V38.1h-.7V1248.5Z" class="g5_27" />
<path fill-rule="evenodd" d="M871.5,1248.5h.8V38.1h-.8V1248.5Z" class="g5_27" />
<path fill-rule="evenodd" d="M37.4,1249.2h.7v-.7h-.7v.7Z" class="g5_27" />
<path fill-rule="evenodd" d="M37.4,1249.2h.7v-.7h-.7v.7Z" class="g5_27" />
<path fill-rule="evenodd" d="M38.1,1249.9H871.5v-.7H38.1v.7Z" class="g5_27" />
<path fill-rule="evenodd" d="M38.1,1249.2H871.5v-.7H38.1v.7Z" class="g5_27" />
<path fill-rule="evenodd" d="M872.3,1249.9h.7v-1.4h-.7v1.4Z" class="g5_27" />
<path fill-rule="evenodd" d="M871.5,1249.9H873v-.7h-1.5v.7Z" class="g5_27" />
<path fill-rule="evenodd" d="M871.5,1249.2h.8v-.7h-.8v.7Z" class="g5_27" />
<path fill-rule="evenodd" d="M871.5,1249.2h.8v-.7h-.8v.7Z" class="g5_27" />
<defs>
<path d="M489,-15c0,0,-99,0,-179,30c0,0,-80,30,-136,91c0,0,-56,61,-85,152c0,0,-30,91,-30,212c0,0,0,123,32,218c0,0,33,96,92,161c0,0,59,65,142,98c0,0,82,34,181,34c0,0,40,0,78,-7c0,0,37,-7,69,-18c0,0,31,-11,57,-25c0,0,25,-14,35,-24c0,0,10,-10,14,-17c0,0,4,-7,6,-17c0,0,2,-11,3,-25c0,0,2,-14,2,-35c0,0,0,-22,-2,-38c0,0,-1,-15,-5,-25c0,0,-4,-10,-9,-14c0,0,-5,-5,-12,-5c0,0,-11,0,-28,13c0,0,-18,13,-45,29c0,0,-27,16,-65,29c0,0,-37,13,-89,13c0,0,-58,0,-103,-23c0,0,-45,-23,-77,-67c0,0,-31,-44,-48,-106c0,0,-16,-61,-16,-139c0,0,0,-85,17,-147c0,0,18,-62,50,-103c0,0,33,-40,79,-60c0,0,45,-19,103,-19c0,0,52,0,90,12c0,0,38,12,65,27c0,0,27,15,45,27c0,0,17,12,27,12c0,0,8,0,12,-3c0,0,4,-3,7,-12c0,0,3,-9,5,-25c0,0,1,-16,1,-43c0,0,0,-18,-1,-31c0,0,-1,-14,-3,-23c0,0,-2,-9,-6,-16c0,0,-4,-7,-12,-15c0,0,-8,-9,-32,-22c0,0,-23,-14,-57,-26C661,13,627,1,583,-6c0,0,-43,-9,-94,-9Z" 
id="f0_j"
transform="scale(0.001,-0.001)" />

<path d="M440,150c0,0,41,0,68,8c0,0,28,9,49,26c0,0,20,16,32,41c0,0,11,25,11,58c0,0,0,33,-11,60c0,0,-11,26,-33,44c0,0,-21,18,-55,28c0,0,-33,9,-87,9H298V150ZM407,567c0,0,42,0,68,10c0,0,25,10,42,28c0,0,16,17,24,41c0,0,9,24,9,50c0,0,0,29,-9,52c0,0,-9,23,-27,39c0,0,-18,15,-45,23c0,0,-27,8,-72,8H298V567ZM164,0c0,0,-25,0,-42,15c0,0,-16,14,-16,47V903c0,0,0,33,16,48c0,0,17,14,42,14H406c0,0,88,0,150,-15c0,0,61,-15,103,-45c0,0,42,-30,65,-77c0,0,22,-46,22,-108c0,0,0,-36,-9,-67c0,0,-9,-31,-26,-56c0,0,-17,-25,-42,-45c0,0,-25,-19,-57,-31c0,0,41,-7,76,-26c0,0,34,-19,60,-48c0,0,26,-30,41,-69c0,0,15,-40,15,-89c0,0,0,-51,-14,-93c0,0,-15,-42,-40,-74c0,0,-25,-32,-59,-55c0,0,-35,-23,-77,-38C614,29,573,14,525,7C525,7,478,0,420,0Z" 
id="f0_i"
transform="scale(0.001,-0.001)" />

<path d="M320,-17c0,0,-50,0,-93,9c0,0,-43,8,-76,19c0,0,-32,11,-54,24C97,35,75,48,65,58c0,0,-10,9,-14,28c0,0,-4,18,-4,52c0,0,0,23,1,39c0,0,2,15,5,25c0,0,4,10,9,14c0,0,6,4,13,4c0,0,11,0,30,-12c0,0,19,-13,49,-28c0,0,30,-15,71,-27c0,0,42,-12,96,-12c0,0,36,0,64,8c0,0,29,9,49,25c0,0,19,15,30,38c0,0,10,23,10,52c0,0,0,33,-18,56c0,0,-18,24,-46,42c0,0,-29,18,-66,34c0,0,-36,16,-75,34c0,0,-39,18,-76,41c0,0,-36,23,-65,54c0,0,-29,32,-47,75c0,0,-17,44,-17,104c0,0,0,70,25,122c0,0,26,53,70,88c0,0,43,34,103,51c0,0,59,18,125,18c0,0,35,0,69,-6c0,0,34,-5,64,-14c0,0,30,-9,53,-20c0,0,23,-11,31,-18c0,0,7,-8,10,-13c0,0,3,-5,4,-14c0,0,2,-8,3,-21c0,0,1,-13,1,-33c0,0,0,-21,-1,-36c0,0,-1,-15,-4,-25c0,0,-3,-9,-7,-14c0,0,-5,-4,-14,-4c0,0,-8,0,-26,10c0,0,-18,10,-44,23c0,0,-26,12,-60,22c0,0,-34,10,-75,10c0,0,-32,0,-56,-8c0,0,-24,-8,-40,-21c0,0,-16,-14,-24,-34c0,0,-8,-19,-8,-41c0,0,0,-32,18,-56c0,0,17,-23,46,-42c0,0,30,-18,67,-34c0,0,38,-16,76,-34c0,0,39,-18,76,-41c0,0,38,-22,67,-54c0,0,29,-32,47,-75c0,0,18,-43,18,-101c0,0,0,-76,-29,-133c0,0,-28,-58,-77,-96C572,60,524,21,459,2c0,0,-65,-19,-139,-19Z" 
id="f0_2n"
transform="scale(0.001,-0.001)" />

<path d="M164,0c0,0,-25,0,-42,15c0,0,-16,14,-16,47V903c0,0,0,33,16,48c0,0,17,14,42,14H645c0,0,7,0,12,-4c0,0,5,-3,9,-13c0,0,4,-9,6,-24c0,0,2,-14,2,-36c0,0,0,-21,-2,-36c0,0,-2,-14,-6,-23c0,0,-4,-9,-9,-13c0,0,-5,-4,-12,-4H301V576H593c0,0,6,0,12,-4c0,0,6,-4,9,-13c0,0,4,-8,6,-23c0,0,2,-14,2,-35c0,0,0,-22,-2,-36c0,0,-2,-14,-6,-23c0,0,-3,-8,-9,-12c0,0,-6,-4,-12,-4H301V154H649c0,0,6,0,12,-5c0,0,5,-4,9,-13c0,0,4,-9,6,-23c0,0,2,-15,2,-36c0,0,0,-22,-2,-36c0,0,-2,-15,-6,-24c0,0,-4,-9,-9,-13c0,0,-6,-4,-12,-4Z" 
id="f0_t"
transform="scale(0.001,-0.001)" />

<path d="M79,297c0,0,-19,0,-27,18c0,0,-8,17,-8,60c0,0,0,41,8,59c0,0,8,17,27,17H389c0,0,9,0,15,-4c0,0,7,-4,11,-13c0,0,5,-9,7,-23c0,0,1,-15,1,-36c0,0,0,-43,-8,-61c0,0,-8,-17,-26,-17Z" 
id="f0_oj"
transform="scale(0.001,-0.001)" />

<path d="M121,-4c0,0,-39,0,-60,2C61,-2,39,0,32,8c0,0,-8,8,-3,24c0,0,4,15,18,41L279,495L64,892c0,0,-14,26,-19,42c0,0,-5,17,4,24c0,0,9,8,32,10c0,0,23,2,65,2c0,0,35,0,56,-2c0,0,20,-1,32,-4c0,0,12,-4,17,-10c0,0,5,-6,9,-15L431,620L595,939c0,0,5,9,10,15c0,0,5,6,16,10c0,0,10,3,29,4c0,0,19,2,53,2c0,0,37,0,59,-2c0,0,22,-2,30,-10c0,0,8,-8,4,-24c0,0,-4,-16,-17,-42L564,497L793,73c0,0,14,-26,18,-41c0,0,4,-16,-5,-24c0,0,-9,-8,-32,-10c0,0,-24,-2,-65,-2c0,0,-36,0,-56,2c0,0,-20,1,-31,3c0,0,-12,4,-17,10c0,0,-5,6,-9,15L414,374L233,26c0,0,-4,-9,-9,-15c0,0,-6,-6,-17,-10c0,0,-12,-2,-32,-3c0,0,-21,-2,-54,-2Z" 
id="f0_3e"
transform="scale(0.001,-0.001)" />

<path d="M204,-4c0,0,-28,0,-47,2c0,0,-19,2,-31,5c0,0,-11,4,-16,10c0,0,-4,6,-4,13V939c0,0,0,7,4,13c0,0,5,6,17,10c0,0,11,3,30,6c0,0,19,2,47,2c0,0,29,0,48,-2c0,0,18,-3,29,-6c0,0,11,-4,16,-10c0,0,5,-6,5,-13V26c0,0,0,-7,-5,-13c0,0,-5,-6,-16,-10c0,0,-11,-3,-29,-5c0,0,-19,-2,-48,-2Z" 
id="f0_1c"
transform="scale(0.001,-0.001)" />

<path d="M127,0c0,0,-16,0,-28,3C99,3,87,6,80,15c0,0,-8,8,-11,25c0,0,-3,16,-3,42c0,0,0,25,2,42c0,0,2,18,8,32c0,0,6,14,15,27c0,0,9,13,24,29L282,390c0,0,50,53,81,95c0,0,30,43,47,79c0,0,17,35,24,65c0,0,6,30,6,57c0,0,0,24,-8,46c0,0,-8,22,-23,39c0,0,-15,16,-38,25c0,0,-23,10,-55,10c0,0,-44,0,-78,-12c0,0,-33,-11,-59,-25c0,0,-26,-13,-43,-25c0,0,-17,-12,-27,-12c0,0,-7,0,-11,5c0,0,-5,4,-8,15c0,0,-3,10,-5,28c0,0,-2,17,-2,42c0,0,0,18,1,29c0,0,1,12,4,20c0,0,2,9,6,15c0,0,3,6,13,15c0,0,9,9,34,23c0,0,25,14,61,27c0,0,37,14,81,23c0,0,44,9,92,9c0,0,75,0,131,-19c0,0,57,-19,94,-53c0,0,37,-34,55,-81c0,0,19,-47,19,-100c0,0,0,-47,-9,-93c0,0,-9,-45,-37,-98c0,0,-29,-52,-80,-116c0,0,-52,-64,-136,-148L299,159H679c0,0,8,0,14,-4c0,0,6,-5,11,-14c0,0,4,-9,7,-25c0,0,2,-15,2,-36c0,0,0,-22,-2,-37c0,0,-2,-15,-6,-25c0,0,-3,-10,-9,-14c0,0,-6,-4,-14,-4Z" 
id="f0_rz"
transform="scale(0.001,-0.001)" />

<path d="M385,138c0,0,29,0,52,9c0,0,22,10,39,28c0,0,17,19,28,47c0,0,11,29,19,66c0,0,7,37,9,84c0,0,3,47,3,104c0,0,0,69,-4,122c0,0,-4,52,-11,91c0,0,-8,39,-20,66c0,0,-12,27,-28,43c0,0,-16,16,-37,22c0,0,-21,7,-47,7c0,0,-44,0,-73,-21c0,0,-28,-21,-45,-64c0,0,-17,-42,-24,-106c0,0,-6,-63,-6,-148c0,0,0,-103,8,-171c0,0,8,-67,26,-107c0,0,17,-40,45,-56c0,0,27,-16,66,-16ZM378,-17c0,0,-99,0,-164,33c0,0,-65,34,-103,98c0,0,-38,64,-54,156c0,0,-15,92,-15,209c0,0,0,115,19,208c0,0,19,94,61,160c0,0,42,65,110,101c0,0,68,35,165,35c0,0,99,0,164,-34c0,0,65,-34,103,-98c0,0,39,-64,53,-156c0,0,15,-92,15,-209c0,0,0,-115,-18,-209c0,0,-19,-93,-61,-159C653,118,611,53,543,17c0,0,-67,-34,-165,-34Z" 
id="f0_rx"
transform="scale(0.001,-0.001)" />

<path d="M142,0c0,0,-6,0,-12,4c0,0,-5,3,-9,12c0,0,-4,9,-6,23c0,0,-3,15,-3,36c0,0,0,21,2,36c0,0,2,14,6,23c0,0,4,9,10,13c0,0,5,5,12,5H322V779L166,693c0,0,-17,-8,-28,-10c0,0,-1,0,-3,0c-4,0,-10,1,-14,5c0,0,-6,6,-8,22c0,0,-2,15,-2,44c0,0,0,18,0,29c0,0,1,12,4,20c0,0,3,8,8,14c0,0,5,5,14,11L345,962c0,0,4,3,9,5c0,0,6,2,15,3c0,0,9,1,23,2c0,0,15,0,38,0c0,0,28,0,46,-1c0,0,17,-1,26,-4c0,0,9,-3,12,-7c0,0,3,-4,3,-11V152H675c0,0,7,0,12,-5c0,0,6,-4,10,-13c0,0,4,-9,6,-23c0,0,2,-15,2,-36c0,0,0,-21,-2,-36c0,0,-3,-14,-7,-23c0,0,-4,-9,-9,-12c0,0,-5,-4,-12,-4Z" 
id="f0_ry"
transform="scale(0.001,-0.001)" />

<path d="M259,-4c0,0,-39,0,-62,3c0,0,-23,1,-34,7c0,0,-11,6,-12,14c0,0,-1,9,5,21L498,796H92c0,0,-16,0,-24,20c0,0,-7,21,-7,65c0,0,0,22,2,38c0,0,2,16,6,27c0,0,4,10,10,15c0,0,6,4,13,4H666c0,0,13,0,22,-3c0,0,9,-2,14,-11c0,0,6,-9,8,-25c0,0,3,-17,3,-43c0,0,0,-22,-2,-38c0,0,-1,-16,-4,-30c0,0,-2,-13,-7,-26c0,0,-4,-12,-10,-26L372,26c0,0,-5,-10,-12,-16c0,0,-7,-6,-20,-9c0,0,-12,-3,-32,-4c0,0,-20,-1,-49,-1Z" 
id="f0_s4"
transform="scale(0.001,-0.001)" />

<path d="M589,371L453,782h-1L317,371ZM106,-4c0,0,-35,0,-54,2C52,-2,32,0,25,8c0,0,-7,9,-5,24c0,0,2,16,11,42L329,931c0,0,4,13,10,21c0,0,6,7,19,12c0,0,13,4,36,5c0,0,23,1,61,1c0,0,44,0,71,-1c0,0,26,-1,40,-5c0,0,15,-5,21,-13c0,0,6,-8,11,-22L896,73c0,0,9,-27,11,-43c0,0,3,-15,-6,-23c0,0,-8,-7,-29,-9c0,0,-21,-2,-57,-2c0,0,-38,0,-59,1c0,0,-22,1,-33,4c0,0,-11,3,-16,9c0,0,-4,6,-7,16L635,220H272L211,31c0,0,-2,-11,-7,-18c0,0,-5,-7,-16,-11c0,0,-11,-3,-31,-4c0,0,-19,-2,-51,-2Z" 
id="f0_5"
transform="scale(0.001,-0.001)" />

<path d="M198,-4c0,0,-27,0,-45,2c0,0,-18,2,-28,5c0,0,-11,4,-15,10c0,0,-4,6,-4,13V887c0,0,0,38,20,58c0,0,20,20,53,20H308c0,0,34,0,59,-6c0,0,24,-5,42,-18c0,0,18,-13,30,-35c0,0,12,-21,21,-52L669,279h3L889,852c0,0,9,32,21,53c0,0,11,22,27,35c0,0,15,14,36,19c0,0,21,6,48,6h132c0,0,21,0,35,-5c0,0,15,-5,24,-15c0,0,9,-11,14,-25c0,0,5,-15,5,-33V26c0,0,0,-7,-4,-13c0,0,-4,-6,-15,-10c0,0,-11,-3,-29,-5c0,0,-18,-2,-45,-2c0,0,-27,0,-45,2c0,0,-18,2,-28,5c0,0,-11,4,-15,10c0,0,-5,6,-5,13V813h-1L764,27c0,0,-3,-10,-10,-16c0,0,-6,-6,-18,-10c0,0,-12,-3,-29,-4c0,0,-18,-1,-44,-1c0,0,-25,0,-43,2c0,0,-18,2,-29,5c0,0,-12,4,-19,10c0,0,-6,6,-9,14L293,813h-2V26c0,0,0,-7,-4,-13c0,0,-4,-6,-15,-10c0,0,-11,-3,-29,-5c0,0,-17,-2,-45,-2Z" 
id="f0_1x"
transform="scale(0.001,-0.001)" />

<path d="M193,-4c0,0,-26,0,-43,2c0,0,-18,2,-27,6c0,0,-10,4,-14,10c0,0,-3,6,-3,13V895c0,0,0,35,20,53c0,0,21,17,50,17H282c0,0,28,0,47,-5c0,0,20,-5,35,-16c0,0,15,-11,29,-31c0,0,13,-20,27,-49L608,511c0,0,17,-32,33,-63c0,0,16,-31,31,-62c0,0,14,-31,29,-60c0,0,14,-30,27,-60h1c0,0,-2,52,-3,109c0,0,-1,57,-1,108V936c0,0,0,7,4,13c0,0,5,6,15,11c0,0,10,4,28,6c0,0,17,2,44,2c0,0,25,0,42,-2c0,0,17,-2,27,-6c0,0,9,-5,13,-11c0,0,4,-6,4,-13V68c0,0,0,-17,-6,-30c0,0,-6,-14,-17,-23C879,15,869,6,856,2c0,0,-14,-3,-28,-3H744c0,0,-26,0,-45,4c0,0,-19,5,-35,19c0,0,-16,14,-31,38c0,0,-15,23,-34,60L359,572c0,0,-21,40,-43,86c0,0,-21,47,-38,91h-2c0,0,3,-54,5,-107c0,0,2,-53,2,-110V27c0,0,0,-7,-5,-13c0,0,-4,-6,-14,-10c0,0,-10,-4,-27,-6c0,0,-17,-2,-44,-2Z" 
id="f0_1y"
transform="scale(0.001,-0.001)" />

<path d="M378,-4c0,0,-28,0,-47,2c0,0,-19,2,-31,5c0,0,-11,4,-16,10c0,0,-4,6,-4,13V805H38c0,0,-8,0,-13,4c0,0,-5,5,-9,14c0,0,-3,9,-5,25c0,0,-2,15,-2,37c0,0,0,22,2,38c0,0,2,15,5,25c0,0,4,9,9,13c0,0,5,4,13,4H718c0,0,7,0,12,-4c0,0,6,-4,10,-13c0,0,3,-10,5,-25c0,0,2,-16,2,-38c0,0,0,-22,-2,-37c0,0,-2,-16,-5,-25c0,0,-4,-9,-10,-14c0,0,-5,-4,-12,-4H476V26c0,0,0,-7,-5,-13c0,0,-5,-6,-16,-10c0,0,-11,-3,-30,-5c0,0,-19,-2,-47,-2Z" 
id="f0_2t"
transform="scale(0.001,-0.001)" />

<path d="M514,145c0,0,72,0,121,27c0,0,48,26,78,73c0,0,30,46,42,107c0,0,13,62,13,131c0,0,0,76,-12,139c0,0,-12,62,-41,106c0,0,-29,45,-76,69c0,0,-48,24,-120,24c0,0,-72,0,-120,-27c0,0,-49,-27,-79,-73c0,0,-29,-45,-42,-106c0,0,-12,-61,-12,-129c0,0,0,-79,12,-142c0,0,12,-63,40,-108c0,0,28,-44,76,-68c0,0,48,-23,120,-23ZM508,-17c0,0,-113,0,-196,29c0,0,-84,29,-140,90c0,0,-56,60,-84,154c0,0,-28,93,-28,221c0,0,0,117,29,210c0,0,30,94,89,160c0,0,59,65,146,101c0,0,87,35,202,35c0,0,110,0,194,-29c0,0,84,-30,140,-90c0,0,56,-60,85,-153c0,0,29,-92,29,-217c0,0,0,-120,-30,-215c0,0,-30,-95,-89,-161C855,118,796,52,709,17c0,0,-87,-34,-201,-34Z" 
id="f0_24"
transform="scale(0.001,-0.001)" />

<path d="M75,0L400,413c0,0,71,91,101,149c0,0,30,58,30,109c0,0,0,55,-36,91c0,0,-36,36,-91,36c0,0,-63,0,-91,-45c0,0,-28,-46,-34,-142H67c0,0,0,173,102,268c0,0,102,95,253,95c0,0,140,0,229,-82c0,0,89,-82,89,-209c0,0,0,-125,-104,-276L580,324c0,0,-34,-50,-85,-114L468,178H740V0Z" 
id="f1_m"
transform="scale(0.001,-0.001)" />

<path d="M44,-281L425,1053H537L156,-281Z" 
id="f1_j"
transform="scale(0.001,-0.001)" />

<path d="M342,-14c0,0,-138,0,-276,29L57,258h69L165,96c0,0,65,-36,136,-36c0,0,90,0,141,58c0,0,50,57,50,161c0,0,0,91,-40,139c0,0,-41,48,-132,54l-87,5v90l84,6c0,0,66,5,98,49c0,0,32,44,32,134c0,0,0,83,-38,131c0,0,-38,48,-107,48c0,0,-40,0,-66,-13c0,0,-26,-12,-49,-26L155,751H90V979c0,0,76,19,132,26c0,0,55,6,108,6c0,0,337,0,337,-246c0,0,0,-102,-54,-164c0,0,-54,-63,-153,-78c0,0,252,-30,252,-251c0,0,0,-136,-98,-211c0,0,-98,-75,-272,-75Z" 
id="f2_n"
transform="scale(0.001,-0.001)" />

<path d="M191,-20c0,0,-51,0,-88,34c0,0,-36,36,-36,88c0,0,0,52,36,88c0,0,36,36,88,36c0,0,51,0,88,-36c0,0,36,-36,36,-88c0,0,0,-51,-36,-87c0,0,-36,-35,-88,-35Z" 
id="f2_i"
transform="scale(0.001,-0.001)" />

<path d="M54,0V40L172,60V941L44,960v40H794V760H745L721,922c0,0,-83,11,-241,11H316V516H611l23,120h46V328H634L611,449H316V60L483,40V0Z" 
id="f3_16"
transform="scale(0.001,-0.001)" />

<path d="M32,0V33L151,52V649L52,668v33H275V52L395,33V0ZM201,850c0,0,-32,0,-56,24c0,0,-24,24,-24,56c0,0,0,34,24,58c0,0,24,24,56,24c0,0,34,0,58,-24c0,0,24,-24,24,-58c0,0,0,-32,-24,-56c0,0,-24,-24,-58,-24Z" 
id="f3_25"
transform="scale(0.001,-0.001)" />

<path d="M439,0V33l93,19V500c0,0,0,62,-30,97c0,0,-31,36,-94,36c0,0,-67,0,-165,-22V52L338,33V0H35V33l84,19V649L35,668v33H235l7,-57c0,0,57,33,122,54c0,0,65,22,108,22c0,0,91,0,137,-53c0,0,47,-53,47,-154V52L741,33V0Z" 
id="f3_2a"
transform="scale(0.001,-0.001)" />

<path d="M383,64c0,0,85,0,152,28V645c0,0,-67,13,-152,13c0,0,-194,0,-194,-314c0,0,0,-141,48,-211c0,0,48,-69,146,-69ZM342,-14c0,0,-287,0,-287,358c0,0,0,184,82,280c0,0,81,96,239,96c0,0,81,0,163,-18c0,0,-4,25,-4,124v182l-118,18v34H659V52L745,33V0H548l-9,52c0,0,-84,-66,-197,-66Z" 
id="f3_20"
transform="scale(0.001,-0.001)" />

<path d="M211,-20c0,0,-39,0,-64,25c0,0,-26,27,-26,64c0,0,0,38,26,64c0,0,26,26,64,26c0,0,37,0,64,-25c0,0,26,-26,26,-65c0,0,0,-37,-26,-64c0,0,-26,-25,-64,-25Zm0,556c0,0,-38,0,-64,26c0,0,-26,26,-26,64c0,0,0,37,26,64c0,0,25,27,64,27c0,0,38,0,64,-27c0,0,26,-27,26,-64c0,0,0,-38,-26,-64c0,0,-27,-26,-64,-26Z" 
id="f3_u"
transform="scale(0.001,-0.001)" />

<path d="M67,0V109L206,235c0,0,133,118,196,190c0,0,63,72,90,149c0,0,27,77,27,177c0,0,0,97,-44,148c0,0,-44,50,-144,50c0,0,-39,0,-81,-10c0,0,-42,-11,-74,-29L150,787H101V980c0,0,135,32,230,32c0,0,164,0,247,-68c0,0,82,-69,82,-193c0,0,0,-84,-32,-158c0,0,-33,-75,-100,-148c0,0,-67,-74,-222,-206c0,0,-67,-57,-141,-125H680V0Z" 
id="f3_m"
transform="scale(0.001,-0.001)" />

<path d="M278,-14c0,0,-52,0,-115,11c0,0,-63,10,-99,23V193H98L134,95c0,0,56,-50,146,-50c0,0,144,0,144,123c0,0,0,91,-114,130l-66,21c0,0,-75,25,-110,50c0,0,-34,26,-53,63c0,0,-18,36,-18,89c0,0,0,92,63,145c0,0,63,54,170,54c0,0,77,0,193,-23V544H454l-32,81c0,0,-39,35,-124,35c0,0,-61,0,-92,-30c0,0,-32,-30,-32,-80c0,0,0,-43,29,-72c0,0,28,-29,86,-48c0,0,110,-38,144,-55c0,0,33,-17,57,-42c0,0,23,-25,36,-57c0,0,13,-32,13,-79c0,0,0,-104,-66,-158c0,0,-66,-53,-195,-53Z" 
id="f3_2f"
transform="scale(0.001,-0.001)" />

<path d="M399,-14c0,0,-341,0,-341,370c0,0,0,175,87,269c0,0,87,95,249,95c0,0,101,0,220,-23V501H573L541,625c0,0,-62,35,-149,35c0,0,-200,0,-200,-304c0,0,0,-158,61,-225c0,0,61,-67,189,-67c0,0,109,0,189,24V43C631,43,595,16,530,1c0,0,-64,-15,-131,-15Z" 
id="f3_1z"
transform="scale(0.001,-0.001)" />

<path d="M377,45c0,0,99,0,147,73c0,0,47,73,47,237c0,0,0,161,-47,233c0,0,-47,72,-147,72c0,0,-97,0,-141,-69c0,0,-44,-69,-44,-236c0,0,0,-169,45,-240c0,0,44,-70,140,-70Zm0,-59c0,0,-158,0,-238,94c0,0,-81,95,-81,274c0,0,0,178,81,272c0,0,80,94,244,94c0,0,160,0,241,-92c0,0,82,-92,82,-274c0,0,0,-368,-329,-368Z" 
id="f3_2b"
transform="scale(0.001,-0.001)" />

<path d="M-6,0c0,0,-12,10,-12,32c0,0,0,21,23,51c0,0,23,31,79,82L287,354L159,649L79,668l6,33H270L378,434l93,88c0,0,47,46,67,72c0,0,19,26,19,44c0,0,0,8,-6,13c0,0,-7,6,-38,17l6,33H651c0,0,16,-12,16,-32c0,0,0,-44,-103,-142L404,377L548,49L634,33L628,0H437L313,298L185,176c0,0,-41,-40,-60,-65c0,0,-19,-26,-19,-48c0,0,0,-21,31,-29L131,0Z" 
id="f4_2k"
transform="scale(0.001,-0.001)" />

<path d="M301,78c0,0,41,0,90,27c0,0,49,28,95,77l81,442c0,0,-26,18,-54,27c0,0,-27,10,-67,10c0,0,-70,0,-131,-55c0,0,-61,-55,-99,-152c0,0,-37,-97,-37,-201c0,0,0,-79,33,-127c0,0,33,-48,89,-48ZM245,-14c0,0,-91,0,-145,68c0,0,-54,69,-54,183c0,0,0,128,55,240c0,0,55,112,150,177c0,0,96,66,210,66c0,0,70,0,123,-18c0,0,3,36,51,306l-115,18l6,34H768L589,52L673,33L667,0H454l22,117C476,117,350,-14,245,-14Z" 
id="f4_20"
transform="scale(0.001,-0.001)" />

<path d="M0,356v74H784V356Z" 
id="f5_h"
transform="scale(0.001,-0.001)" />

<path d="M88,-163c0,0,-39,0,-63,25c0,0,-25,26,-25,65c0,0,0,34,19,54c0,0,19,19,48,19c0,0,30,0,51,-23c0,0,22,-24,37,-24c0,0,12,0,21,11c0,0,8,10,8,35c0,0,0,30,-7,88c0,0,-27,235,-27,620c0,0,13,411,17,446c0,0,17,139,60,188c0,0,43,48,98,48c0,0,37,0,65,-25c0,0,28,-25,28,-54c0,0,0,-35,-19,-57c0,0,-20,-21,-49,-21c0,0,-26,0,-57,27c0,0,-17,15,-30,15c0,0,-12,0,-21,-11c0,0,-8,-11,-8,-37c0,0,0,-31,6,-108c0,0,28,-306,28,-496c0,0,0,-50,-12,-439c0,0,-6,-219,-67,-296c0,0,-41,-50,-101,-50Z" 
id="f5_50"
transform="scale(0.001,-0.001)" />

<path d="M410,-14c0,0,-86,0,-175,14C235,0,145,14,81,38V307h66L181,146c0,0,31,-37,94,-62c0,0,64,-24,132,-24c0,0,214,0,214,177c0,0,0,55,-41,93c0,0,-41,38,-128,68c0,0,-128,42,-185,68c0,0,-56,27,-95,63c0,0,-38,36,-62,87c0,0,-23,51,-23,125c0,0,0,132,90,201c0,0,90,69,263,69c0,0,125,0,278,-32V741H651L618,878c0,0,-76,56,-178,56c0,0,-92,0,-141,-34c0,0,-49,-34,-49,-104c0,0,0,-50,41,-86c0,0,41,-35,128,-63c0,0,171,-56,235,-97c0,0,64,-41,97,-103c0,0,34,-61,34,-143c0,0,0,-318,-375,-318Z" 
id="f2_1j"
transform="scale(0.001,-0.001)" />

<path d="M379,60c0,0,59,0,84,64c0,0,24,65,24,231c0,0,0,164,-24,227c0,0,-24,63,-84,63c0,0,-57,0,-80,-60c0,0,-22,-61,-22,-230c0,0,0,-173,23,-234c0,0,22,-61,79,-61Zm-2,-74c0,0,-161,0,-240,91c0,0,-79,91,-79,277c0,0,0,186,80,276c0,0,81,90,245,90c0,0,167,0,245,-93c0,0,78,-93,78,-273c0,0,0,-188,-81,-278c0,0,-81,-90,-248,-90Z" 
id="f2_2b"
transform="scale(0.001,-0.001)" />

<path d="M30,0V49l76,18V992l-72,18v50H322V67L398,49V0Z" 
id="f2_28"
transform="scale(0.001,-0.001)" />

<path d="M287,-18c0,0,-194,0,-194,206V634L23,652v49H309V217c0,0,0,-63,26,-98c0,0,27,-35,76,-35c0,0,57,0,113,25V634l-64,18v49H740V67L809,49V0H536L526,61L475,35c0,0,-104,-53,-188,-53Z" 
id="f2_2h"
transform="scale(0.001,-0.001)" />

<path d="M327,-14c0,0,-101,0,-156,45c0,0,-55,45,-55,131V624H25v48l108,29l87,159H332V701H480V624H332V176c0,0,0,-49,20,-73c0,0,20,-25,53,-25c0,0,40,0,97,12V26c0,0,-22,-15,-76,-27c0,0,-55,-13,-99,-13Z" 
id="f2_2g"
transform="scale(0.001,-0.001)" />

<path d="M34,0V49l76,18V634L38,652v49H325V67L402,49V0ZM217,831c0,0,-48,0,-81,33c0,0,-34,33,-34,82c0,0,0,48,34,81c0,0,34,33,81,33c0,0,48,0,81,-33c0,0,33,-33,33,-81c0,0,0,-47,-33,-81c0,0,-32,-34,-81,-34Z" 
id="f2_25"
transform="scale(0.001,-0.001)" />

<path d="M41,0V49l69,18V634L41,652v49H313l11,-61l50,26c0,0,105,54,188,54c0,0,194,0,194,-207V67L827,49V0H478V49l63,18V484c0,0,0,63,-27,98c0,0,-26,35,-75,35c0,0,-57,0,-114,-25V67L389,49V0Z" 
id="f2_2a"
transform="scale(0.001,-0.001)" />

<path d="M248,-20c0,0,-52,0,-87,34c0,0,-36,36,-36,88c0,0,0,52,36,88c0,0,35,36,87,36c0,0,52,0,88,-36c0,0,36,-36,36,-88c0,0,0,-51,-36,-87c0,0,-35,-35,-88,-35Zm0,488c0,0,-52,0,-87,36c0,0,-36,36,-36,88c0,0,0,52,35,88c0,0,35,36,88,36c0,0,53,0,89,-36c0,0,35,-37,35,-88c0,0,0,-51,-36,-87c0,0,-35,-37,-88,-37Z" 
id="f2_u"
transform="scale(0.001,-0.001)" />

<path d="M249,-14c0,0,-71,0,-107,42c0,0,-35,42,-35,119V639H15v33l93,29l76,159h47V701H391V639H231V161c0,0,0,-48,22,-73c0,0,22,-24,57,-24c0,0,44,0,106,12V26C416,26,389,8,340,-2c0,0,-49,-12,-91,-12Z" 
id="f3_2g"
transform="scale(0.001,-0.001)" />

<path d="M31,0V33L150,52v956L31,1026v34H274V52L394,33V0Z" 
id="f3_28"
transform="scale(0.001,-0.001)" />

<path d="M359,-270c0,0,124,0,192,46c0,0,67,47,67,129c0,0,0,43,-26,67c0,0,-26,24,-79,24H242c0,0,-32,-27,-51,-69c0,0,-20,-41,-20,-77c0,0,0,-64,46,-92c0,0,46,-28,142,-28Zm11,561c0,0,81,0,115,47c0,0,34,47,34,141c0,0,0,100,-35,142c0,0,-35,42,-113,42c0,0,-78,0,-114,-43c0,0,-37,-42,-37,-141c0,0,0,-98,36,-143c0,0,36,-45,114,-45ZM359,-329c0,0,-143,0,-218,44c0,0,-75,43,-75,125c0,0,0,39,27,78c0,0,26,38,98,89c0,0,-43,14,-72,48c0,0,-29,35,-29,74L208,262c0,0,-118,55,-118,217c0,0,0,115,73,178c0,0,73,63,211,63c0,0,28,0,71,-6c0,0,44,-6,67,-13l165,83l26,-32L599,644c0,0,50,-56,50,-165c0,0,0,-120,-72,-182c0,0,-73,-62,-208,-62c0,0,-62,0,-114,11L208,148c0,0,2,-13,29,-24c0,0,27,-12,67,-12H512c0,0,113,0,168,-49c0,0,55,-49,55,-134c0,0,0,-79,-44,-137c0,0,-43,-58,-128,-90c0,0,-84,-31,-204,-31Z" 
id="f3_23"
transform="scale(0.001,-0.001)" />

<path d="M115,-329V1060h76V-329Z" 
id="f3_2o"
transform="scale(0.001,-0.001)" />

<path d="M521,-14c0,0,-205,0,-320,107C201,93,85,200,85,390c0,0,0,185,77,326c0,0,77,142,220,219c0,0,142,76,324,76c0,0,158,0,327,-38L1000,755H951V884c0,0,-46,32,-112,50c0,0,-65,17,-137,17c0,0,-135,0,-242,-72c0,0,-107,-72,-166,-203c0,0,-60,-132,-60,-301c0,0,0,-160,78,-244c0,0,78,-84,222,-84c0,0,85,0,166,25c0,0,82,26,133,65l53,149h49L889,52C889,52,803,20,705,3c0,0,-99,-17,-184,-17Z" 
id="f4_13"
transform="scale(0.001,-0.001)" />

<path d="M0,214v74H784V214ZM0,494v72H784V494Z" 
id="f5_x"
transform="scale(0.001,-0.001)" />

<path d="M355,0V355H0v72H355V784h72V427H782V355H427V0Z" 
id="f5_f"
transform="scale(0.001,-0.001)" />

<path d="M435,350V646c0,0,0,84,7,158L145,350ZM435,0V198H21V319l450,686H636V350H736V198H636V0Z" 
id="f2_o"
transform="scale(0.001,-0.001)" />

<path d="M442,0V33l93,19V504c0,0,0,129,-124,129c0,0,-70,0,-168,-22V52L338,33V0H31V33l88,19v956L15,1026v34H243V756c0,0,0,-77,-5,-112c0,0,54,31,122,53c0,0,68,23,115,23c0,0,91,0,137,-53c0,0,47,-53,47,-154V52L744,33V0Z" 
id="f3_24"
transform="scale(0.001,-0.001)" />

<path d="M495,413c0,0,0,133,-34,190c0,0,-34,57,-105,57c0,0,-78,0,-119,-63c0,0,-42,-62,-42,-184ZM374,-14c0,0,-163,0,-239,87c0,0,-75,88,-75,283c0,0,0,183,77,273c0,0,76,91,219,91c0,0,269,0,269,-306V353H194V340c0,0,0,-103,23,-160c0,0,22,-57,70,-87c0,0,47,-29,124,-29c0,0,40,0,96,6c0,0,55,7,91,15V43C598,43,562,20,500,3c0,0,-61,-17,-126,-17Z" 
id="f3_21"
transform="scale(0.001,-0.001)" />

<path d="M284,67c0,0,51,0,88,12c0,0,37,12,74,30V358l-98,-3c0,0,-100,-4,-135,-39c0,0,-35,-35,-35,-117c0,0,0,-132,106,-132ZM233,-14c0,0,-179,0,-179,208c0,0,0,70,27,116c0,0,27,46,87,70c0,0,60,24,173,27l105,3V519c0,0,0,72,-26,107c0,0,-27,34,-82,34c0,0,-75,0,-137,-35L176,538H134V691c0,0,121,26,213,26c0,0,115,0,169,-47c0,0,54,-47,54,-144V52L657,33V0H465L451,70c0,0,-85,-84,-218,-84Z" 
id="f3_1x"
transform="scale(0.001,-0.001)" />

<path d="M376,50c0,0,103,0,149,80c0,0,46,81,46,240c0,0,0,137,-47,204c0,0,-48,67,-148,67c0,0,-44,0,-87,-7c0,0,-44,-8,-63,-17V62c0,0,63,-12,150,-12Zm3,-64c0,0,-64,0,-141,14c0,0,-78,14,-136,37v971L0,1026v34H226V809c0,0,0,-40,-4,-148c0,0,74,59,188,59c0,0,143,0,219,-87c0,0,77,-87,77,-263c0,0,0,-189,-84,-287c0,0,-84,-97,-243,-97Z" 
id="f3_1y"
transform="scale(0.001,-0.001)" />

<path d="M327,-14L84,649L1,668v33H335V668L219,648L385,174L554,632h63L786,171L944,649L830,668v33h267V668l-78,-16L784,-14H726L553,448L382,-14Z" 
id="f3_2j"
transform="scale(0.001,-0.001)" />

<path d="M382,45c0,0,188,0,188,314c0,0,0,143,-47,213c0,0,-46,69,-141,69c0,0,-87,0,-146,-24V58c0,0,67,-13,146,-13ZM25,-325v35l88,18V649L34,668v33H231l1,-41c0,0,31,27,84,43c0,0,53,17,107,17c0,0,134,0,208,-94c0,0,73,-93,73,-267c0,0,0,-178,-80,-276c0,0,-80,-97,-232,-97c0,0,-84,0,-160,16c0,0,4,-53,4,-84V-272l123,-18v-35Z" 
id="f3_2c"
transform="scale(0.001,-0.001)" />

<path d="M13,0V34L95,46L325,350L122,649L40,668v33H357V668L264,648L399,446L554,649l-96,19v33H710V668L630,652L433,397L663,50L745,34V0H427V34l94,17L359,299L169,50L266,34V0Z" 
id="f3_2k"
transform="scale(0.001,-0.001)" />

<path d="M-12,338v55H777V338Z" 
id="f6_4y"
transform="scale(0.001,-0.001)" />

<path d="M148,-329c0,0,-58,0,-114,13v151H69l24,-71c0,0,23,-17,64,-17c0,0,39,0,72,22c0,0,33,23,60,67c0,0,27,44,68,157L90,649L19,668v33H344V668L233,648L423,158L606,649L497,668v33H758V668L685,652L411,-43c0,0,-48,-124,-84,-177c0,0,-36,-54,-79,-82c0,0,-44,-27,-100,-27Z" 
id="f3_2l"
transform="scale(0.001,-0.001)" />

<path d="M392,152V469H76v77H392V863h77V546H787V469H469V152Z" 
id="f3_f"
transform="scale(0.001,-0.001)" />

<path d="M41,0V34L426,641H261c0,0,-42,0,-80,-7c0,0,-39,-7,-54,-19L104,515H69V701H586V665L201,60H407c0,0,42,0,89,10c0,0,47,10,66,25l39,147h35L617,0Z" 
id="f3_2m"
transform="scale(0.001,-0.001)" />

<path d="M76,316v76H787V316Zm0,306v76H787V622Z" 
id="f3_x"
transform="scale(0.001,-0.001)" />

<path d="M350,-14c0,0,-142,0,-253,31L89,228h49L172,87c0,0,32,-18,78,-29c0,0,46,-11,88,-11c0,0,118,0,173,56c0,0,56,55,56,187c0,0,0,93,-24,140c0,0,-24,47,-76,70c0,0,-52,22,-140,22c0,0,-68,0,-133,-18H122v496H630V886H189V567c0,0,81,18,173,18c0,0,173,0,258,-71c0,0,84,-71,84,-216c0,0,0,-151,-92,-232c0,0,-91,-80,-262,-80Z" 
id="f3_p"
transform="scale(0.001,-0.001)" />

<path d="M216,345c0,0,-38,0,-63,26c0,0,-24,25,-24,65c0,0,0,41,24,66c0,0,25,25,63,25c0,0,38,0,62,-25c0,0,24,-25,24,-66c0,0,0,-40,-24,-65c0,0,-24,-26,-62,-26Z" 
id="f7_1ad"
transform="scale(0.001,-0.001)" />

<path d="M377,45c0,0,99,0,145,108c0,0,46,109,46,352c0,0,0,240,-45,345c0,0,-46,106,-146,106c0,0,-97,0,-139,-100c0,0,-43,-99,-43,-351c0,0,0,-254,44,-357c0,0,43,-103,138,-103Zm0,-59c0,0,-158,0,-238,132c0,0,-81,133,-81,386c0,0,0,249,81,380c0,0,80,132,244,132c0,0,159,0,241,-130c0,0,82,-130,82,-382c0,0,0,-518,-329,-518Z" 
id="f3_k"
transform="scale(0.001,-0.001)" />

<path d="M191,-20c0,0,-39,0,-65,25c0,0,-25,27,-25,64c0,0,0,38,26,64c0,0,26,26,64,26c0,0,38,0,64,-26c0,0,26,-26,26,-64c0,0,0,-37,-25,-64c0,0,-26,-25,-65,-25Z" 
id="f3_i"
transform="scale(0.001,-0.001)" />

<path d="M145,-328c0,0,-44,0,-73,25c0,0,-28,25,-28,58c0,0,0,31,21,50c0,0,20,19,56,19c0,0,25,0,67,-16c0,0,30,-11,38,-11c0,0,22,0,49,23c0,0,26,23,53,89L376,28L131,542c0,0,-11,24,-36,58c0,0,-19,27,-30,36c0,0,-18,12,-56,21v26H328V657H312c0,0,-33,0,-50,-15c0,0,-17,-14,-17,-36c0,0,0,-30,25,-81L437,179L589,557c0,0,12,31,12,62c0,0,0,13,-5,20c0,0,-6,8,-19,13c0,0,-12,5,-44,5v26H754V657c0,0,-27,-3,-42,-12c0,0,-15,-9,-33,-34c0,0,-7,-10,-25,-58L376,-128c0,0,-40,-99,-105,-150c0,0,-66,-50,-126,-50Z" 
id="f6_2l"
transform="scale(0.001,-0.001)" />

<path d="M399,105V477H27v62H399V909h60V539H831V477H459V105Z" 
id="f6_f"
transform="scale(0.001,-0.001)" />

<path d="M33,0V27c0,0,264,241,371,393c0,0,108,152,108,278c0,0,0,96,-59,158c0,0,-59,62,-141,62c0,0,-75,0,-134,-43c0,0,-59,-44,-88,-128H63c0,0,18,138,95,212c0,0,77,74,193,74c0,0,123,0,205,-80c0,0,83,-79,83,-186c0,0,0,-77,-36,-154c0,0,-55,-121,-179,-256C424,357,238,154,191,112H455c0,0,81,0,114,6c0,0,32,6,58,25c0,0,27,18,46,52h27L630,0Z" 
id="f6_m"
transform="scale(0.001,-0.001)" />

<path d="M30,0V27L485,632H260c0,0,-72,0,-94,-10c0,0,-22,-9,-36,-35c0,0,-20,-37,-23,-92H76l5,188H654V656L196,51H445c0,0,79,0,106,13c0,0,28,13,45,46c0,0,12,23,21,100h25L634,0Z" 
id="f6_2m"
transform="scale(0.001,-0.001)" />

<path d="M27,354v62H831V354Zm0,243v62H831V597Z" 
id="f6_x"
transform="scale(0.001,-0.001)" />

<path d="M247,-17c0,0,-91,0,-132,30c0,0,-42,31,-42,68c0,0,0,21,17,37c0,0,18,16,44,17c0,0,19,0,34,-6c0,0,14,-7,49,-31c0,0,56,-39,113,-39c0,0,88,0,154,66c0,0,66,66,66,161c0,0,0,92,-59,171c0,0,-59,80,-163,123c0,0,-81,34,-221,39l194,393H663L605,885H301L234,750c0,0,198,-29,313,-147c0,0,100,-102,100,-239c0,0,0,-80,-33,-148c0,0,-32,-68,-81,-116c0,0,-50,-47,-110,-77c0,0,-86,-40,-176,-40Z" 
id="f6_p"
transform="scale(0.001,-0.001)" />

<path d="M254,-20c0,0,-35,0,-59,24c0,0,-24,24,-24,58c0,0,0,35,24,59c0,0,24,24,59,24c0,0,35,0,59,-24c0,0,23,-25,23,-59c0,0,0,-34,-24,-58c0,0,-24,-24,-58,-24Zm509,0c0,0,-34,0,-58,24c0,0,-24,24,-24,58c0,0,0,35,24,59c0,0,24,24,58,24c0,0,34,0,59,-24c0,0,24,-25,24,-59c0,0,0,-34,-24,-58c0,0,-25,-24,-59,-24Zm510,0c0,0,-35,0,-59,24c0,0,-24,24,-24,58c0,0,0,35,24,59c0,0,24,24,59,24c0,0,34,0,58,-24c0,0,24,-25,24,-59c0,0,0,-34,-24,-58c0,0,-24,-24,-58,-24Z" 
id="f6_4s"
transform="scale(0.001,-0.001)" />

<path d="M474,-326c0,0,-112,57,-188,133c0,0,-107,108,-165,254c0,0,-58,147,-58,305c0,0,0,231,114,421c0,0,114,191,297,273v-31c0,0,-92,-51,-151,-139c0,0,-59,-88,-88,-223c0,0,-30,-135,-30,-281c0,0,0,-160,25,-290c0,0,20,-102,47,-164c0,0,28,-62,75,-120c0,0,47,-57,122,-109v-29Z" 
id="f6_c"
transform="scale(0.001,-0.001)" />

<path d="M197,0V27c0,0,71,2,92,13c0,0,21,10,29,29c0,0,9,18,9,109V725c0,0,0,110,-8,141c0,0,-5,24,-19,35c0,0,-14,11,-33,11c0,0,-28,0,-77,-23l-11,23l246,121h25V178c0,0,0,-85,7,-106c0,0,7,-21,29,-32c0,0,23,-11,91,-13V0Z" 
id="f6_l"
transform="scale(0.001,-0.001)" />

<path d="M35,-326v29c0,0,92,51,151,139c0,0,60,87,89,221c0,0,28,136,28,282c0,0,0,159,-24,290c0,0,-19,103,-47,165c0,0,-28,62,-75,119c0,0,-46,57,-122,110v31c0,0,113,-56,188,-132c0,0,107,-109,165,-255c0,0,58,-147,58,-306c0,0,0,-231,-114,-420c0,0,-113,-191,-297,-273Z" 
id="f6_d"
transform="scale(0.001,-0.001)" />

<path d="M31,0V33l88,19V649L31,668v33H235l7,-87c0,0,44,37,121,71c0,0,76,35,121,35h11V530H463l-43,82c0,0,-37,0,-88,-10c0,0,-52,-10,-89,-26V52L363,33V0Z" 
id="f3_2e"
transform="scale(0.001,-0.001)" />

<path d="M394,23c0,0,80,0,129,45c0,0,48,45,48,110c0,0,0,54,-28,97c0,0,-53,79,-214,206c0,0,-62,-52,-92,-114c0,0,-30,-61,-30,-133c0,0,0,-96,53,-154c0,0,52,-57,134,-57Zm17,566c0,0,90,81,114,128c0,0,24,46,24,105c0,0,0,79,-44,123c0,0,-44,45,-121,45c0,0,-76,0,-124,-45c0,0,-48,-44,-48,-103c0,0,0,-38,20,-77c0,0,20,-39,56,-74L411,589ZM382,-17c0,0,-144,0,-225,90c0,0,-64,72,-64,158c0,0,0,67,45,133c0,0,45,66,156,146c0,0,-121,98,-156,158c0,0,-34,59,-34,124c0,0,0,98,76,169c0,0,76,72,202,72c0,0,123,0,198,-67c0,0,74,-66,74,-151c0,0,0,-57,-40,-116c0,0,-40,-59,-168,-139c0,0,132,-101,174,-159c0,0,57,-76,57,-161c0,0,0,-106,-82,-182c0,0,-81,-75,-213,-75Z" 
id="f6_s"
transform="scale(0.001,-0.001)" />

<path d="M529,65c0,0,183,0,270,108c0,0,87,108,87,334c0,0,0,210,-113,318c0,0,-113,108,-322,108H316V71c0,0,90,-6,213,-6Zm0,-67L172,0H44V40L172,60V941L44,960v40H498c0,0,277,0,411,-123c0,0,133,-124,133,-371c0,0,0,-251,-129,-380C913,126,785,-2,529,-2Z" 
id="f3_14"
transform="scale(0.001,-0.001)" />

<path d="M460,-325c0,0,-148,79,-231,172c0,0,-84,93,-123,217c0,0,-39,126,-39,304c0,0,0,178,39,303c0,0,39,125,122,217c0,0,82,93,232,172V997c0,0,-91,-52,-145,-134c0,0,-54,-81,-79,-190c0,0,-25,-109,-25,-305c0,0,0,-194,26,-309c0,0,26,-114,82,-193c0,0,56,-79,141,-128v-63Z" 
id="f3_c"
transform="scale(0.001,-0.001)" />

<path d="M134,0V40L339,60V876L137,804v39l292,166h39V60L672,40V0Z" 
id="f3_l"
transform="scale(0.001,-0.001)" />

<path d="M49,-325v63c0,0,85,49,140,128c0,0,56,79,83,194c0,0,26,115,26,308c0,0,0,196,-25,305c0,0,-25,109,-79,190c0,0,-54,82,-145,134v63c0,0,149,-80,232,-172c0,0,83,-92,122,-217c0,0,39,-125,39,-303c0,0,0,-177,-39,-303c0,0,-39,-125,-122,-217c0,0,-83,-93,-232,-173Z" 
id="f3_d"
transform="scale(0.001,-0.001)" />

<path d="M449,50c0,0,162,0,276,114L353,504c0,0,-78,-33,-114,-91c0,0,-35,-57,-35,-139c0,0,0,-108,63,-166c0,0,63,-58,182,-58ZM439,605c0,0,72,27,104,53c0,0,31,25,47,63c0,0,16,37,16,92c0,0,0,143,-135,143c0,0,-79,0,-113,-36c0,0,-34,-35,-34,-107c0,0,0,-121,115,-208ZM429,-14c0,0,-185,0,-278,71c0,0,-93,72,-93,209c0,0,0,72,27,124c0,0,27,52,73,89c0,0,46,37,146,75c0,0,-112,109,-112,244c0,0,0,107,71,162c0,0,72,56,208,56c0,0,130,0,198,-53c0,0,69,-53,69,-155c0,0,0,-58,-25,-101c0,0,-25,-42,-71,-75c0,0,-45,-32,-152,-74L805,272c0,0,72,147,77,271L776,563v39h341V563L1013,543c0,0,-57,-198,-145,-329L1038,59L1161,40V0H904L777,116C777,116,699,46,614,16c0,0,-84,-30,-185,-30Z" 
id="f3_a"
transform="scale(0.001,-0.001)" />

<path d="M350,-14c0,0,-142,0,-269,31L73,228h49L156,87c0,0,29,-16,82,-28c0,0,54,-12,100,-12c0,0,117,0,173,54c0,0,56,53,56,178c0,0,0,99,-52,150c0,0,-51,51,-159,56l-107,6v61l107,7c0,0,84,5,124,52c0,0,41,48,41,145c0,0,0,101,-44,147c0,0,-44,45,-139,45c0,0,-40,0,-83,-10c0,0,-43,-11,-76,-29L153,786H104V979c0,0,74,19,127,26c0,0,54,6,107,6c0,0,321,0,321,-246c0,0,0,-104,-57,-165c0,0,-57,-62,-162,-77c0,0,136,-16,200,-78c0,0,64,-62,64,-173c0,0,0,-135,-92,-211c0,0,-93,-75,-262,-75Z" 
id="f3_n"
transform="scale(0.001,-0.001)" />

<path d="M370,468c0,0,96,0,194,40c0,0,0,229,-45,336c0,0,-45,107,-146,107c0,0,-187,0,-187,-259c0,0,0,-115,45,-169c0,0,45,-55,139,-55ZM312,-14c0,0,-122,0,-223,25V184h48L163,76c0,0,24,-11,65,-20c0,0,40,-9,81,-9c0,0,119,0,183,105c0,0,65,104,71,307c0,0,-113,-62,-230,-62c0,0,-132,0,-208,79c0,0,-76,78,-76,219c0,0,0,151,85,233c0,0,84,83,237,83c0,0,171,0,251,-123c0,0,79,-123,79,-385c0,0,0,-252,-102,-385C599,118,497,-14,312,-14Z" 
id="f3_t"
transform="scale(0.001,-0.001)" />

<path d="M301,78c0,0,85,0,185,104l81,442c0,0,-29,20,-55,28c0,0,-25,8,-62,8c0,0,-75,0,-137,-56c0,0,-62,-56,-98,-152c0,0,-36,-95,-36,-199c0,0,0,-79,33,-127c0,0,33,-48,89,-48ZM245,-14c0,0,-90,0,-145,66c0,0,-54,66,-54,182c0,0,0,131,57,244c0,0,57,114,152,178c0,0,96,64,208,64c0,0,90,0,170,-33l33,26h40L589,52L673,33L667,0H454l22,117C476,117,350,-14,245,-14Z" 
id="f4_1x"
transform="scale(0.001,-0.001)" />

<path d="M305,45c0,0,76,0,141,56c0,0,64,56,101,151c0,0,37,95,37,200c0,0,0,83,-35,129c0,0,-34,46,-92,46c0,0,-44,0,-96,-29c0,0,-51,-29,-97,-75L185,81c0,0,43,-36,120,-36ZM295,-14c0,0,-65,0,-128,16C167,2,104,19,57,48l171,960l-100,18l6,34H358L303,731c0,0,-13,-85,-29,-144c0,0,59,61,122,97c0,0,64,36,116,36c0,0,94,0,150,-67c0,0,56,-67,56,-182c0,0,0,-129,-56,-242C662,229,606,115,509,50c0,0,-98,-64,-214,-64Z" 
id="f4_1y"
transform="scale(0.001,-0.001)" />

<path d="M298,-14c0,0,-120,0,-185,69c0,0,-66,69,-66,191c0,0,0,130,52,237c0,0,52,107,149,172c0,0,97,65,203,65c0,0,53,0,112,-12c0,0,60,-11,99,-27L628,485H587L575,615c0,0,-47,47,-125,47c0,0,-72,0,-134,-53c0,0,-62,-53,-100,-147c0,0,-37,-95,-37,-208c0,0,0,-190,154,-190c0,0,106,0,222,74l22,-32c0,0,-60,-56,-135,-88c0,0,-76,-32,-144,-32Z" 
id="f4_1z"
transform="scale(0.001,-0.001)" />

<path d="M26,0V54L154,74V926L26,945v55H878V746H810L786,908c0,0,-83,10,-241,10H389V551H651l23,111h67V355H674L651,468H389V82H578c0,0,193,0,252,12l43,185h68L927,0Z" 
id="f2_15"
transform="scale(0.001,-0.001)" />

<path d="M608,-14c0,0,-251,0,-392,133C216,119,75,252,75,488c0,0,0,257,134,390c0,0,135,133,398,133c0,0,174,0,361,-50l4,-240H905L884,866c0,0,-98,67,-229,67c0,0,-173,0,-253,-108c0,0,-80,-108,-80,-334c0,0,0,-209,84,-319c0,0,83,-109,243,-109c0,0,84,0,147,22c0,0,63,22,99,53l24,164h68L982,48C982,48,915,22,808,4C808,4,700,-14,608,-14Z" 
id="f2_13"
transform="scale(0.001,-0.001)" />

<path d="M231,0V54L390,74V921H352c0,0,-171,0,-240,-15L92,721H24v279H996V721H927L907,906c0,0,-62,14,-245,14H626V74L785,54V0Z" 
id="f2_1k"
transform="scale(0.001,-0.001)" />

<path d="M51,0V55L180,74V926L51,946v54H543V946L415,926V74L543,55V0Z" 
id="f2_19"
transform="scale(0.001,-0.001)" />

<path d="M595,60c0,0,141,0,206,102c0,0,65,102,65,340c0,0,0,236,-65,335c0,0,-65,100,-206,100c0,0,-142,0,-207,-100c0,0,-66,-99,-66,-335c0,0,0,-239,66,-340c0,0,65,-102,207,-102Zm0,-74c0,0,-253,0,-387,130C208,116,75,246,75,501c0,0,0,510,520,510c0,0,256,0,387,-129c0,0,132,-130,132,-381c0,0,0,-254,-133,-385C981,116,848,-14,595,-14Z" 
id="f2_1f"
transform="scale(0.001,-0.001)" />

<path d="M868,0L251,804V74L385,54V0H29V54L157,74V926L29,945v55H371L862,361V926L727,945v55h356V945L955,926V0Z" 
id="f2_1e"
transform="scale(0.001,-0.001)" />

<path d="M56,294V424H453V294Z" 
id="f2_h"
transform="scale(0.001,-0.001)" />

<path d="M559,77c0,0,87,0,129,53c0,0,42,53,42,162c0,0,0,99,-49,147c0,0,-50,49,-163,49H389V82c0,0,108,-5,170,-5ZM499,570c0,0,80,0,118,42c0,0,38,42,38,141c0,0,0,88,-38,126c0,0,-37,39,-124,39H389V570ZM561,-3L221,0H25V54L154,74V926L25,945v55H511c0,0,199,0,294,-53c0,0,95,-53,95,-173c0,0,0,-89,-56,-154c0,0,-56,-65,-150,-85c0,0,139,-14,211,-76c0,0,71,-61,71,-167c0,0,0,-146,-107,-221C869,71,762,-3,561,-3Z" 
id="f2_12"
transform="scale(0.001,-0.001)" />

<path d="M490,61c0,0,93,0,170,74c0,0,77,73,126,212c0,0,50,139,50,281c0,0,0,142,-57,223c0,0,-57,82,-158,82c0,0,-91,0,-168,-75c0,0,-76,-75,-125,-216c0,0,-48,-142,-48,-281c0,0,0,-141,55,-220c0,0,55,-80,155,-80ZM751,-246c0,0,-65,0,-112,18c0,0,-47,18,-87,58c0,0,-40,40,-110,157c0,0,-115,7,-203,59c0,0,-88,53,-136,144c0,0,-48,90,-48,201c0,0,0,180,73,323c0,0,73,143,206,220c0,0,132,77,305,77c0,0,123,0,219,-51c0,0,96,-51,149,-144c0,0,53,-93,53,-211c0,0,0,-138,-45,-259c0,0,-46,-121,-132,-207C883,139,797,53,679,15l24,-36c0,0,86,-136,167,-136c0,0,15,0,66,6l10,-59c0,0,-33,-13,-94,-25c0,0,-62,-11,-101,-11Z" 
id="f8_1h"
transform="scale(0.001,-0.001)" />

<path d="M219,-17c0,0,-75,0,-118,40c0,0,-42,41,-42,117c0,0,0,14,5,48c0,0,5,34,78,446L56,652l10,49H354L278,278c0,0,-17,-86,-17,-117c0,0,0,-72,68,-72c0,0,48,0,107,53c0,0,60,54,86,117l79,442H800L689,67L771,49L761,0H497l6,132C503,132,387,-17,219,-17Z" 
id="f8_2h"
transform="scale(0.001,-0.001)" />

<path d="M254,378c0,0,91,10,150,67c0,0,59,56,59,132c0,0,0,31,-16,47c0,0,-15,15,-36,15c0,0,-51,0,-96,-76c0,0,-44,-76,-61,-185ZM307,-14c0,0,-132,0,-202,66c0,0,-69,66,-69,194c0,0,0,128,54,238c0,0,55,110,144,173c0,0,90,63,186,63c0,0,103,0,164,-42c0,0,61,-41,61,-111c0,0,0,-67,-50,-124c0,0,-49,-57,-142,-93c0,0,-93,-37,-211,-46c0,0,-3,-15,-3,-50c0,0,0,-176,135,-176c0,0,55,0,102,21c0,0,47,22,88,49l33,-47c0,0,-66,-55,-143,-85c0,0,-77,-30,-147,-30Z" 
id="f8_21"
transform="scale(0.001,-0.001)" />

<path d="M213,-14c0,0,-57,0,-123,13C90,-1,24,11,-7,26L26,220H75L87,122c0,0,47,-67,132,-67c0,0,61,0,97,32c0,0,37,33,37,81c0,0,0,29,-20,53c0,0,-20,24,-61,48l-50,29c0,0,-82,46,-117,96c0,0,-34,51,-34,113c0,0,0,213,281,213c0,0,88,0,196,-24L515,516H466l-9,82c0,0,-16,19,-47,35c0,0,-30,16,-68,16c0,0,-57,0,-84,-25c0,0,-26,-25,-26,-66c0,0,0,-29,22,-55c0,0,22,-25,97,-67c0,0,70,-39,101,-68c0,0,31,-29,48,-64c0,0,17,-35,17,-82c0,0,0,-114,-76,-175c0,0,-76,-61,-228,-61Z" 
id="f8_2f"
transform="scale(0.001,-0.001)" />

<path d="M221,-14c0,0,-82,0,-127,38C94,24,50,64,50,138c0,0,0,35,13,108l69,378H46l8,48l106,29L264,860H373L345,701H463L449,624H331L263,244c0,0,-12,-61,-12,-89c0,0,0,-40,20,-58c0,0,20,-18,48,-18c0,0,26,0,82,20L421,46C421,46,384,20,328,3c0,0,-56,-17,-107,-17Z" 
id="f8_2g"
transform="scale(0.001,-0.001)" />

<path d="M39,0L151,634L83,652l8,49H363L251,67L340,49L332,0ZM304,831c0,0,-48,0,-82,33c0,0,-33,33,-33,82c0,0,0,48,34,81c0,0,34,33,81,33c0,0,47,0,81,-33c0,0,33,-33,33,-81c0,0,0,-47,-33,-81c0,0,-33,-34,-81,-34Z" 
id="f8_25"
transform="scale(0.001,-0.001)" />

<path d="M320,60c0,0,48,0,93,55c0,0,44,55,70,149c0,0,27,93,27,202c0,0,0,179,-94,179c0,0,-47,0,-93,-56c0,0,-45,-57,-73,-152c0,0,-28,-95,-28,-199c0,0,0,-85,27,-132c0,0,28,-46,71,-46ZM303,-14c0,0,-127,0,-203,79c0,0,-76,80,-76,214c0,0,0,121,52,222c0,0,52,102,146,160c0,0,94,59,211,59c0,0,126,0,203,-80c0,0,76,-80,76,-214c0,0,0,-121,-53,-222C659,204,607,102,514,44c0,0,-94,-58,-211,-58Z" 
id="f8_2b"
transform="scale(0.001,-0.001)" />

<path d="M31,0L142,634L75,652l10,49H334L328,571c0,0,116,149,284,149c0,0,74,0,117,-40c0,0,43,-39,43,-111c0,0,0,-39,-19,-136L689,67L775,49L765,0H477l77,424c0,0,16,87,16,117c0,0,0,72,-68,72c0,0,-47,0,-106,-52c0,0,-59,-52,-87,-118L230,0Z" 
id="f8_2a"
transform="scale(0.001,-0.001)" />

<path d="M29,0L140,634L73,652l10,49H327L325,576c0,0,54,73,114,108c0,0,61,36,135,36c0,0,67,0,104,-40c0,0,38,-39,39,-108c0,0,105,148,252,148c0,0,66,0,104,-42c0,0,39,-41,39,-116c0,0,0,-27,-12,-98L1029,67l86,-18L1106,0H818l76,424c0,0,16,87,16,117c0,0,0,72,-54,72c0,0,-26,0,-61,-30c0,0,-36,-30,-64,-76c0,0,-28,-46,-35,-87L622,0H423l76,424c0,0,16,87,16,117c0,0,0,72,-55,72c0,0,-36,0,-81,-50c0,0,-46,-49,-72,-120L228,0Z" 
id="f8_29"
transform="scale(0.001,-0.001)" />

<path d="M326,57c0,0,51,0,97,53c0,0,45,54,72,144c0,0,27,90,27,184c0,0,0,78,-25,123c0,0,-25,45,-65,45c0,0,-27,0,-62,-28c0,0,-36,-29,-68,-75L230,93c0,0,15,-14,44,-25c0,0,29,-11,52,-11Zm9,-74c0,0,-81,0,-166,14C169,-3,84,9,20,35L189,994l-68,18l8,48H401L345,739c0,0,-15,-87,-32,-145c0,0,46,61,100,93c0,0,54,33,110,33c0,0,89,0,142,-67c0,0,53,-67,53,-183c0,0,0,-131,-51,-245C667,225,616,110,529,46c0,0,-87,-63,-194,-63Z" 
id="f8_1y"
transform="scale(0.001,-0.001)" />

<path d="M31,0L143,634L56,652l8,49H344L327,550c0,0,41,80,99,125c0,0,59,45,118,45c0,0,36,0,62,-8L562,461H521L489,563c0,0,-56,0,-98,-28c0,0,-42,-28,-81,-90L232,0Z" 
id="f8_2e"
transform="scale(0.001,-0.001)" />

<path d="M254,-14c0,0,-56,0,-102,5c0,0,-45,4,-135,24L51,257h68L130,96c0,0,21,-17,58,-27c0,0,37,-9,76,-9c0,0,102,0,157,70c0,0,56,71,56,202c0,0,0,181,-147,181c0,0,-30,0,-70,-7c0,0,-41,-8,-74,-22H117l91,516H724L697,849H275L228,577c0,0,67,18,157,18c0,0,144,0,220,-67c0,0,76,-67,76,-192c0,0,0,-167,-111,-259c0,0,-111,-91,-316,-91Z" 
id="f8_p"
transform="scale(0.001,-0.001)" />

<path d="M36,0L47,64L231,82L363,833L174,780l11,64l311,165h99L431,82L609,64L598,0Z" 
id="f8_l"
transform="scale(0.001,-0.001)" />

<path d="M-18,0L6,140c0,0,289,223,403,370c0,0,114,146,114,273c0,0,0,80,-37,116c0,0,-38,37,-98,37c0,0,-66,0,-119,-39L212,753H147l40,227c0,0,63,13,121,23c0,0,59,9,126,9c0,0,140,0,217,-58c0,0,78,-57,78,-158c0,0,0,-73,-29,-143c0,0,-29,-69,-86,-136c0,0,-56,-66,-152,-143c0,0,-96,-76,-319,-221H645L615,0Z" 
id="f8_m"
transform="scale(0.001,-0.001)" />

<path d="M292,-14c0,0,-129,0,-199,69c0,0,-71,69,-71,191c0,0,0,138,55,246c0,0,55,108,151,168c0,0,97,60,208,60c0,0,54,0,117,-10c0,0,63,-10,103,-24L619,471H565L555,599c0,0,-40,44,-109,44c0,0,-59,0,-111,-52c0,0,-53,-53,-83,-142c0,0,-30,-90,-30,-195c0,0,0,-83,33,-130c0,0,33,-46,96,-46c0,0,56,0,102,20c0,0,46,21,89,51l32,-48c0,0,-61,-54,-136,-85c0,0,-75,-30,-146,-30Z" 
id="f8_1z"
transform="scale(0.001,-0.001)" />

<path d="M304,96c0,0,30,0,67,30c0,0,36,30,65,74l74,420c0,0,-33,25,-92,25c0,0,-55,0,-102,-52c0,0,-47,-53,-75,-143c0,0,-27,-90,-27,-187c0,0,0,-77,26,-122c0,0,26,-45,64,-45ZM215,-14c0,0,-93,0,-145,66c0,0,-52,68,-52,187c0,0,0,130,54,242c0,0,55,111,152,175c0,0,98,64,215,64c0,0,103,0,187,-35l61,28h40L614,67L695,43L689,0H430l-3,104c0,0,-44,-55,-99,-87c0,0,-56,-31,-113,-31Z" 
id="f8_1x"
transform="scale(0.001,-0.001)" />

<path d="M-32,-329c0,0,-38,0,-61,2c0,0,-22,3,-59,12l31,180h45l15,-94c0,0,19,-17,52,-17c0,0,44,0,97,51c0,0,53,52,136,192L64,634L19,652l8,49H253L366,224L501,448c0,0,20,33,34,72c0,0,14,39,14,62c0,0,0,20,-6,32c0,0,-7,12,-17,20c0,0,-11,9,-44,18l9,49H663c0,0,20,-17,20,-47c0,0,0,-67,-61,-164L295,-43c0,0,-72,-118,-121,-173c0,0,-49,-56,-99,-85c0,0,-51,-28,-107,-28Z" 
id="f8_2l"
transform="scale(0.001,-0.001)" />

<path d="M21,0L196,992l-68,18l9,50H409L289,378L551,634l-64,17l8,50H752l-8,-50L675,634L494,468L659,67L719,49L711,0H477L353,338L272,286L222,0Z" 
id="f8_27"
transform="scale(0.001,-0.001)" />

<path d="M30,0L204,992l-67,18l8,50H417L354,714L330,595l-5,-21c0,0,115,146,285,146c0,0,73,0,117,-40c0,0,44,-40,44,-109c0,0,0,-38,-13,-108L687,67L774,49L764,0H476l76,424c0,0,16,87,16,117c0,0,0,72,-67,72c0,0,-47,0,-106,-52c0,0,-59,-52,-88,-118L228,0Z" 
id="f8_24"
transform="scale(0.001,-0.001)" />

<path d="M346,-14c0,0,-139,0,-276,29L61,258h69L169,96c0,0,29,-16,71,-26c0,0,43,-10,77,-10c0,0,172,0,172,230c0,0,0,120,-44,174c0,0,-44,53,-139,53c0,0,-53,0,-97,-19L186,488H111v512H633V834H194V571c0,0,91,21,164,21c0,0,178,0,264,-74c0,0,86,-73,86,-220c0,0,0,-151,-94,-232c0,0,-93,-80,-268,-80Z" 
id="f2_p"
transform="scale(0.001,-0.001)" />

<path d="M55,0V40L184,60V941L55,960v40H455V960L327,941V60L455,40V0Z" 
id="f3_19"
transform="scale(0.001,-0.001)" />

<path d="M64,0V34L168,59V639H47v36l121,29v49c0,0,0,155,61,239c0,0,62,84,173,84c0,0,58,0,107,-15V908H472l-33,92c0,0,-26,16,-62,16c0,0,-47,0,-66,-42c0,0,-19,-42,-19,-157V701H478V639H292V59L443,34V0Z" 
id="f3_22"
transform="scale(0.001,-0.001)" />

<path d="M681,416L504,902L333,416ZM669,0V40L803,60L704,348H310L210,60L344,40V0H15V40L128,60l341,949H611L965,60L1092,40V0Z" 
id="f3_11"
transform="scale(0.001,-0.001)" />

<path d="M477,0V33l64,19L348,354L257,254V52L331,33V0H44V33l89,19v956L29,1026v34H257V338L544,647l-73,20v34H718V667L631,650L431,446L688,50L764,33V0Z" 
id="f3_27"
transform="scale(0.001,-0.001)" />

<path d="M57,302V417H454V302Z" 
id="f3_h"
transform="scale(0.001,-0.001)" />

<path d="M431,0V33L535,52V499c0,0,0,62,-32,96c0,0,-32,33,-95,33c0,0,-66,0,-163,-22V52L350,33V0H32V33l89,19V649L32,668v33H237l6,-57c0,0,56,32,119,54c0,0,62,22,110,22c0,0,52,0,95,-20c0,0,44,-19,66,-62c0,0,57,32,134,57c0,0,77,25,128,25c0,0,179,0,179,-207V52l90,-19V0H846V33L950,52V499c0,0,0,129,-119,129c0,0,-19,0,-45,-3c0,0,-26,-3,-52,-7c0,0,-25,-4,-49,-8c0,0,-23,-5,-39,-8c0,0,13,-41,13,-89V52L764,33V0Z" 
id="f3_29"
transform="scale(0.001,-0.001)" />

<path d="M58,-234v58c0,0,131,42,131,125c0,0,0,15,-11,27c0,0,-11,12,-38,25C140,1,89,27,89,75c0,0,0,40,25,61c0,0,26,21,65,21c0,0,48,0,77,-34c0,0,30,-34,30,-86c0,0,0,-101,-60,-170c0,0,-59,-69,-168,-101Z" 
id="f3_g"
transform="scale(0.001,-0.001)" />

<path d="M360,-14L72,649L0,668v33H327V668L216,648L420,164L615,649L504,668v33H764V668L697,652L416,-14Z" 
id="f3_2i"
transform="scale(0.001,-0.001)" />

<path d="M44,0V40L172,60V941L44,960v40H471V960L316,941V65H513c0,0,159,0,234,14l46,208h48L828,0Z" 
id="f3_1c"
transform="scale(0.001,-0.001)" />

<path d="M0,-123V1415H525v-72H72V-123Z" 
id="f5_4r"
transform="scale(0.001,-0.001)" />

<path d="M478,-123V1343H26v72H550V-123Z" 
id="f5_57"
transform="scale(0.001,-0.001)" />

<path d="M0,-123V1415H72V-123Z" 
id="f5_4s"
transform="scale(0.001,-0.001)" />

<path d="M0,-123V1415H72V-123Z" 
id="f5_58"
transform="scale(0.001,-0.001)" />

<path d="M0,-123V1415H72V-51H525v-72Z" 
id="f5_4t"
transform="scale(0.001,-0.001)" />

<path d="M26,-123v72H478V1415h72V-123Z" 
id="f5_59"
transform="scale(0.001,-0.001)" />

<path d="M631,416L539,902L283,416ZM576,0l8,40L691,60L643,348H249L96,60L197,40L189,0H-83l8,40L7,60l509,949H659L845,60L938,40L930,0Z" 
id="f4_11"
transform="scale(0.001,-0.001)" />

<path d="M83,0C83,0,48,0,24,24C24,24,0,49,0,83c0,0,0,34,24,58c0,0,24,24,59,24c0,0,34,0,58,-24c0,0,24,-24,24,-58c0,0,0,-34,-24,-59C141,24,117,0,83,0ZM695,0c0,0,-34,0,-58,24c0,0,-25,25,-25,59c0,0,0,34,25,58c0,0,24,24,58,24c0,0,34,0,58,-24c0,0,24,-24,24,-58c0,0,0,-34,-24,-59C753,24,729,0,695,0ZM388,594c0,0,-34,0,-59,23c0,0,-24,24,-24,59c0,0,0,34,24,58c0,0,25,25,59,25c0,0,34,0,58,-25c0,0,24,-24,24,-58c0,0,0,-35,-24,-59c0,0,-24,-23,-58,-23Z" 
id="f5_1s"
transform="scale(0.001,-0.001)" />

<path d="M394,460c0,0,126,0,186,57c0,0,60,57,60,187c0,0,0,123,-57,176c0,0,-58,53,-194,53H316V460ZM54,0V40L172,60V941L44,960v40H421c0,0,368,0,368,-295c0,0,0,-153,-93,-233c0,0,-93,-80,-267,-80H316V60L475,40V0Z" 
id="f3_1g"
transform="scale(0.001,-0.001)" />


</defs>
</svg>