<?xml version="1.0" encoding="UTF-8" standalone="no"?>
<!DOCTYPE svg PUBLIC "-//W3C//DTD SVG 1.1//EN"
"http://www.w3.org/Graphics/SVG/1.1/DTD/svg11.dtd">
<svg viewBox="0 0 909 1286" version="1.1" xmlns="http://www.w3.org/2000/svg" xmlns:xlink="http://www.w3.org/1999/xlink">
<defs>
<clipPath id="c0_132"><path d="M55.2,178.8V126H238.5v52.8Z" /></clipPath>
<clipPath id="c1_132"><path d="M55.2,244.4V191.6H236.3v52.8Z" /></clipPath>
<clipPath id="c2_132"><path d="M55.2,344.8V292.1H228.1v52.7Z" /></clipPath>
<clipPath id="c3_132"><path d="M540.3,422.2V392.4H780.7v29.8Z" /></clipPath>
<clipPath id="c4_132"><path d="M55.2,452.6V422.9H155.3v29.7Z" /></clipPath>
<clipPath id="c5_132"><path d="M293.5,530.4V500.6h96.9v29.8Z" /></clipPath>
<clipPath id="c6_132"><path d="M711.9,530.4V500.6H836v29.8Z" /></clipPath>
<clipPath id="c7_132"><path d="M86.4,561.6V531.7h124v29.9Z" /></clipPath>
<clipPath id="c8_132"><path d="M459.6,558.6V536.1h16.8v22.5Z" /></clipPath>
<clipPath id="c9_132"><path d="M748.2,558.6V531h46.3v27.6Z" /></clipPath>
<clipPath id="c10_132"><path d="M124.5,638.9V609.1H240.7v29.8Z" /></clipPath>
<clipPath id="c11_132"><path d="M55.2,681.4V651.7h84.6v29.7Z" /></clipPath>
<clipPath id="c12_132"><path d="M55.2,724V694.2H180.7V724Z" /></clipPath>
<clipPath id="c13_132"><path d="M55.2,766.5V736.8H189.7v29.7Z" /></clipPath>
<clipPath id="c14_132"><path d="M105.8,811.6V781.8h83.9v29.8Z" /></clipPath>
<clipPath id="c15_132"><path d="M303.4,817.8V779.6h193v38.2Z" /></clipPath>
<clipPath id="c16_132"><path d="M83.8,860V830.3H422.4V860Z" /></clipPath>
<clipPath id="c17_132"><path d="M55.2,902.6V872.7H386.7v29.9Z" /></clipPath>
<clipPath id="c18_132"><path d="M55.2,945.4V915.7H388.1v29.7Z" /></clipPath>
<clipPath id="c19_132"><path d="M130.7,996.4V958.2H238v38.2Z" /></clipPath>
<clipPath id="c20_132"><path d="M55.2,1095.8v-86.3H172.8v86.3Z" /></clipPath>
<clipPath id="c21_132"><path d="M179.5,1132.8v-18.5h24v18.5Z" /></clipPath>
<style type="text/css"><![CDATA[
.g0_132{
fill: #D9D9D9;
}
.g1_132{
fill: none;
stroke: #000000;
stroke-width: 0.7638889;
stroke-linecap: butt;
stroke-linejoin: miter;
}
.g2_132{
fill: none;
stroke: #000000;
stroke-width: 0.75631756;
stroke-linecap: butt;
stroke-linejoin: round;
}
.g3_132{
fill: none;
stroke: #000000;
stroke-width: 0.76006293;
stroke-linecap: butt;
stroke-linejoin: round;
}
.g4_132{
fill: none;
stroke: #000000;
stroke-width: 0.7573623;
stroke-linecap: butt;
stroke-linejoin: round;
}
.g5_132{
fill: none;
stroke: #000000;
stroke-width: 0.7531323;
stroke-linecap: butt;
stroke-linejoin: round;
}
.g6_132{
}
]]></style>
</defs>
<image preserveAspectRatio="none" x="747" y="1196" width="96" height="59" xlink:href="img/1.png" />
<image preserveAspectRatio="none" x="336" y="41" width="259" height="51" xlink:href="img/2.png" />
<image preserveAspectRatio="none" x="342" y="50" width="247" height="27" xlink:href="img/3.png" />
<image preserveAspectRatio="none" x="341" y="45" width="239" height="42" xlink:href="img/4.png" />
<g fill="#FFFFFF" >
<use xlink:href="#f0_j" transform="matrix(11.5,0,0,11.5,355.1,70.1)" />
<use xlink:href="#f0_i" transform="matrix(11.5,0,0,11.5,364.3,70.1)" />
<use xlink:href="#f0_2n" transform="matrix(11.5,0,0,11.5,374.1,70.1)" />
<use xlink:href="#f0_t" transform="matrix(11.5,0,0,11.5,382.6,70.1)" />
<use xlink:href="#f0_oj" transform="matrix(11.5,0,0,11.5,391,70.1)" />
<use xlink:href="#f0_3e" transform="matrix(11.5,0,0,11.5,396.5,70.1)" />
<use xlink:href="#f0_1c" transform="matrix(11.5,0,0,11.5,406.1,70.1)" />
<use xlink:href="#f0_1c" transform="matrix(11.5,0,0,11.5,410.8,70.1)" />
<use xlink:href="#f0_oj" transform="matrix(11.5,0,0,11.5,415.6,70.1)" />
<use xlink:href="#f0_rz" transform="matrix(11.5,0,0,11.5,421.1,70.1)" />
<use xlink:href="#f0_rx" transform="matrix(11.5,0,0,11.5,429.9,70.1)" />
<use xlink:href="#f0_ry" transform="matrix(11.5,0,0,11.5,438.7,70.1)" />
<use xlink:href="#f0_s6" transform="matrix(11.5,0,0,11.5,447.5,70.1)" />
<use xlink:href="#f0_t" transform="matrix(11.5,0,0,11.5,460.4,70.1)" />
<use xlink:href="#f0_3e" transform="matrix(11.5,0,0,11.5,468.8,70.1)" />
<use xlink:href="#f0_5" transform="matrix(11.5,0,0,11.5,478.3,70.1)" />
<use xlink:href="#f0_1x" transform="matrix(11.5,0,0,11.5,489,70.1)" />
<use xlink:href="#f0_1c" transform="matrix(11.5,0,0,11.5,504.4,70.1)" />
<use xlink:href="#f0_1y" transform="matrix(11.5,0,0,11.5,509.1,70.1)" />
<use xlink:href="#f0_5" transform="matrix(11.5,0,0,11.5,520.8,70.1)" />
<use xlink:href="#f0_2t" transform="matrix(11.5,0,0,11.5,531.5,70.1)" />
<use xlink:href="#f0_1c" transform="matrix(11.5,0,0,11.5,540.2,70.1)" />
<use xlink:href="#f0_24" transform="matrix(11.5,0,0,11.5,545,70.1)" />
<use xlink:href="#f0_1y" transform="matrix(11.5,0,0,11.5,556.7,70.1)" />
</g>
<image preserveAspectRatio="none" x="554" y="45" width="36" height="42" xlink:href="img/5.png" />
<g fill="#FFFFFF" >
<use xlink:href="#f1_l" transform="matrix(11,0,0,11,770.3,1227.6)" />
<use xlink:href="#f1_o" transform="matrix(11,0,0,11,779.1,1227.6)" />
<use xlink:href="#f1_j" transform="matrix(11,0,0,11,792.3,1227.6)" />
<use xlink:href="#f1_m" transform="matrix(11,0,0,11,802.9,1227.6)" />
<use xlink:href="#f1_p" transform="matrix(11,0,0,11,811.7,1227.6)" />
</g>
<path fill-rule="evenodd" d="M52.8,1193.5H856.9v-.8H52.8v.8Z" class="g0_132" />
<path d="M37.9,99.4L873,98.5" class="g1_132" />
<path d="M83.3,156.2h85.5" class="g2_132" />
<g clip-path="url(#c0_132)">
<g fill="#000000" >
<use xlink:href="#f2_l" transform="matrix(5.3,0,0,5.1,110.9,136.4)" />
<use xlink:href="#f2_l" transform="matrix(5.3,0,0,5.1,154.3,136.4)" />
<use xlink:href="#f2_2g" transform="matrix(7.4,0,0,7.1,93.1,141.2)" />
<use xlink:href="#f2_1x" transform="matrix(7.4,0,0,7.1,96.1,141.2)" />
<use xlink:href="#f2_2a" transform="matrix(7.4,0,0,7.1,100.7,141.2)" />
<use xlink:href="#f2_2g" transform="matrix(7.4,0,0,7.1,136.4,141.2)" />
<use xlink:href="#f2_1x" transform="matrix(7.4,0,0,7.1,139.4,141.2)" />
<use xlink:href="#f2_2a" transform="matrix(7.4,0,0,7.1,144,141.2)" />
<use xlink:href="#f2_m" transform="matrix(7.4,0,0,7.1,139.2,166.7)" />
<use xlink:href="#f2_i" transform="matrix(12.6,0,0,12.2,123.9,149.4)" />
<use xlink:href="#f2_l" transform="matrix(12.6,0,0,12.2,104.3,175)" />
<use xlink:href="#f3_2k" transform="matrix(7.4,0,0,7.1,117.9,141.2)" />
<use xlink:href="#f3_2k" transform="matrix(7.4,0,0,7.1,161.3,141.2)" />
<use xlink:href="#f3_21" transform="matrix(12.6,0,0,12.2,84.2,149.4)" />
<use xlink:href="#f3_21" transform="matrix(12.6,0,0,12.2,127.6,149.4)" />
<use xlink:href="#f3_20" transform="matrix(12.6,0,0,12.2,168.5,160.8)" />
<use xlink:href="#f3_2k" transform="matrix(12.6,0,0,12.2,177.6,160.8)" />
<use xlink:href="#f3_2g" transform="matrix(12.6,0,0,12.2,214.6,160.8)" />
<use xlink:href="#f3_20" transform="matrix(12.6,0,0,12.2,219.7,160.8)" />
<use xlink:href="#f3_2g" transform="matrix(12.6,0,0,12.2,228.8,160.8)" />
<use xlink:href="#f3_2k" transform="matrix(12.6,0,0,12.2,130.2,175)" />
<use xlink:href="#f4_h" transform="matrix(5.3,0,0,5.1,106.8,136.4)" />
<use xlink:href="#f4_h" transform="matrix(5.3,0,0,5.1,150.1,136.4)" />
<use xlink:href="#f4_1s" transform="matrix(12.6,0,0,12.2,55.1,160.8)" />
<use xlink:href="#f4_x" transform="matrix(12.6,0,0,12.2,190.4,160.8)" />
<use xlink:href="#f4_f" transform="matrix(12.6,0,0,12.2,115.4,175)" />
<use xlink:href="#f4_50" transform="matrix(19,0,0,18.4,73,167.4)" />
<use xlink:href="#f4_50" transform="matrix(19,0,0,18.4,205.1,167.4)" />
</g>
</g>
<path d="M72.8,221.8H88.1m50.2,0h62.6" class="g3_132" />
<g clip-path="url(#c1_132)">
<g fill="#000000" >
<use xlink:href="#f2_l" transform="matrix(5.3,0,0,5.1,172.4,202)" />
<use xlink:href="#f2_m" transform="matrix(7.4,0,0,7.1,80.2,206.8)" />
<use xlink:href="#f2_2g" transform="matrix(7.4,0,0,7.1,154.5,206.8)" />
<use xlink:href="#f2_1x" transform="matrix(7.4,0,0,7.1,157.5,206.8)" />
<use xlink:href="#f2_2a" transform="matrix(7.4,0,0,7.1,162.1,206.8)" />
<use xlink:href="#f2_m" transform="matrix(7.4,0,0,7.1,193,206.8)" />
<use xlink:href="#f2_c" transform="matrix(12.7,0,0,12.2,139.3,215)" />
<use xlink:href="#f2_d" transform="matrix(12.7,0,0,12.2,186.3,215)" />
<use xlink:href="#f2_m" transform="matrix(12.7,0,0,12.2,76.1,240.7)" />
<use xlink:href="#f2_m" transform="matrix(12.7,0,0,12.2,165.3,240.7)" />
<use xlink:href="#f3_2k" transform="matrix(7.4,0,0,7.1,179.4,206.8)" />
<use xlink:href="#f3_2g" transform="matrix(12.7,0,0,12.2,73.4,215)" />
<use xlink:href="#f3_21" transform="matrix(12.7,0,0,12.2,145.6,215)" />
<use xlink:href="#f3_13" transform="matrix(12.7,0,0,12.2,105.8,226.5)" />
<use xlink:href="#f3_13" transform="matrix(12.7,0,0,12.2,218.7,226.5)" />
<use xlink:href="#f4_h" transform="matrix(5.3,0,0,5.1,168.2,202)" />
<use xlink:href="#f4_x" transform="matrix(12.7,0,0,12.2,58,226.5)" />
<use xlink:href="#f4_f" transform="matrix(12.7,0,0,12.2,92.3,226.5)" />
<use xlink:href="#f4_x" transform="matrix(12.7,0,0,12.2,123.5,226.5)" />
<use xlink:href="#f4_f" transform="matrix(12.7,0,0,12.2,205.2,226.5)" />
</g>
</g>
<g fill="#000000" >
<use xlink:href="#f2_1j" transform="matrix(12,0,0,12,55,275.4)" />
<use xlink:href="#f2_2h" transform="matrix(12,0,0,12,65.3,275.4)" />
<use xlink:href="#f2_1y" transform="matrix(12,0,0,12,74.5,275.4)" />
<use xlink:href="#f2_2f" transform="matrix(12,0,0,12,83.3,275.4)" />
<use xlink:href="#f2_2g" transform="matrix(12,0,0,12,90.2,275.4)" />
<use xlink:href="#f2_25" transform="matrix(12,0,0,12,96.1,275.4)" />
<use xlink:href="#f2_2g" transform="matrix(12,0,0,12,100.5,275.4)" />
<use xlink:href="#f2_2h" transform="matrix(12,0,0,12,105.9,275.4)" />
<use xlink:href="#f2_2g" transform="matrix(12,0,0,12,115.1,275.4)" />
<use xlink:href="#f2_25" transform="matrix(12,0,0,12,120.6,275.4)" />
<use xlink:href="#f2_2a" transform="matrix(12,0,0,12,125.4,275.4)" />
<use xlink:href="#f2_23" transform="matrix(12,0,0,12,134.2,275.4)" />
<use xlink:href="#f2_25" transform="matrix(12,0,0,12,148.4,275.4)" />
<use xlink:href="#f2_2a" transform="matrix(12,0,0,12,153.2,275.4)" />
<use xlink:href="#f2_c" transform="matrix(12,0,0,12,166.8,275.4)" />
<use xlink:href="#f2_l" transform="matrix(12,0,0,12,173,275.4)" />
<use xlink:href="#f2_d" transform="matrix(12,0,0,12,182.1,275.4)" />
</g>
<path d="M130.7,322.3h62.2" class="g4_132" />
<g clip-path="url(#c2_132)">
<g fill="#000000" >
<use xlink:href="#f2_l" transform="matrix(5.3,0,0,5.1,164.5,302.4)" />
<use xlink:href="#f2_l" transform="matrix(5.3,0,0,5.1,98,313.8)" />
<use xlink:href="#f2_2g" transform="matrix(7.4,0,0,7.1,146.7,307.2)" />
<use xlink:href="#f2_1x" transform="matrix(7.4,0,0,7.1,149.7,307.2)" />
<use xlink:href="#f2_2a" transform="matrix(7.4,0,0,7.1,154.4,307.2)" />
<use xlink:href="#f2_m" transform="matrix(7.4,0,0,7.1,185.1,307.2)" />
<use xlink:href="#f2_2g" transform="matrix(7.4,0,0,7.1,80.2,318.6)" />
<use xlink:href="#f2_1x" transform="matrix(7.4,0,0,7.1,83.2,318.6)" />
<use xlink:href="#f2_2a" transform="matrix(7.4,0,0,7.1,87.8,318.6)" />
<use xlink:href="#f2_c" transform="matrix(12.7,0,0,12.2,131.6,315.5)" />
<use xlink:href="#f2_d" transform="matrix(12.7,0,0,12.2,178.4,315.5)" />
<use xlink:href="#f2_i" transform="matrix(12.7,0,0,12.2,67.6,326.9)" />
<use xlink:href="#f2_m" transform="matrix(12.7,0,0,12.2,157.5,341.1)" />
<use xlink:href="#f3_2k" transform="matrix(7.4,0,0,7.1,171.6,307.2)" />
<use xlink:href="#f3_2k" transform="matrix(7.4,0,0,7.1,104.9,318.6)" />
<use xlink:href="#f3_21" transform="matrix(12.7,0,0,12.2,137.9,315.5)" />
<use xlink:href="#f3_2l" transform="matrix(12.7,0,0,12.2,59.7,326.9)" />
<use xlink:href="#f3_21" transform="matrix(12.7,0,0,12.2,71.3,326.9)" />
<use xlink:href="#f3_13" transform="matrix(12.7,0,0,12.2,210.6,326.9)" />
<use xlink:href="#f4_h" transform="matrix(5.3,0,0,5.1,160.4,302.4)" />
<use xlink:href="#f4_h" transform="matrix(5.3,0,0,5.1,93.8,313.8)" />
<use xlink:href="#f4_x" transform="matrix(12.7,0,0,12.2,116,326.9)" />
<use xlink:href="#f4_f" transform="matrix(12.7,0,0,12.2,197.2,326.9)" />
</g>
</g>
<g fill="#000000" >
<use xlink:href="#f5_m" transform="matrix(12,0,0,12,55,414.4)" />
<use xlink:href="#f5_k" transform="matrix(12,0,0,12,64.2,414.4)" />
<use xlink:href="#f5_i" transform="matrix(12,0,0,12,73.4,414.4)" />
<use xlink:href="#f2_1j" transform="matrix(12,0,0,12,82.9,414.4)" />
<use xlink:href="#f2_24" transform="matrix(12,0,0,12,93.2,414.4)" />
<use xlink:href="#f2_2b" transform="matrix(12,0,0,12,102,414.4)" />
<use xlink:href="#f2_2j" transform="matrix(12,0,0,12,111.5,414.4)" />
<use xlink:href="#f2_2g" transform="matrix(12,0,0,12,128.7,414.4)" />
<use xlink:href="#f2_24" transform="matrix(12,0,0,12,134.2,414.4)" />
<use xlink:href="#f2_1x" transform="matrix(12,0,0,12,143,414.4)" />
<use xlink:href="#f2_2g" transform="matrix(12,0,0,12,151,414.4)" />
<use xlink:href="#f2_2g" transform="matrix(12,0,0,12,160.9,414.4)" />
<use xlink:href="#f2_24" transform="matrix(12,0,0,12,166.4,414.4)" />
<use xlink:href="#f2_21" transform="matrix(12,0,0,12,175.2,414.4)" />
<use xlink:href="#f2_22" transform="matrix(12,0,0,12,188,414.4)" />
<use xlink:href="#f2_2b" transform="matrix(12,0,0,12,193.5,414.4)" />
<use xlink:href="#f2_2h" transform="matrix(12,0,0,12,203,414.4)" />
<use xlink:href="#f2_2e" transform="matrix(12,0,0,12,212.2,414.4)" />
<use xlink:href="#f2_2c" transform="matrix(12,0,0,12,223.2,414.4)" />
<use xlink:href="#f2_2b" transform="matrix(12,0,0,12,232,414.4)" />
<use xlink:href="#f2_25" transform="matrix(12,0,0,12,241.5,414.4)" />
<use xlink:href="#f2_2a" transform="matrix(12,0,0,12,246.3,414.4)" />
<use xlink:href="#f2_2g" transform="matrix(12,0,0,12,255.1,414.4)" />
<use xlink:href="#f2_2f" transform="matrix(12,0,0,12,260.5,414.4)" />
<use xlink:href="#f2_11" transform="matrix(12,0,0,12,272.2,414.4)" />
<use xlink:href="#f2_g" transform="matrix(12,0,0,12,285.1,414.4)" />
<use xlink:href="#f2_12" transform="matrix(12,0,0,12,294.6,414.4)" />
<use xlink:href="#f2_g" transform="matrix(12,0,0,12,306.7,414.4)" />
<use xlink:href="#f2_13" transform="matrix(12,0,0,12,316.2,414.4)" />
<use xlink:href="#f2_1x" transform="matrix(12,0,0,12,333,414.4)" />
<use xlink:href="#f2_2a" transform="matrix(12,0,0,12,341.1,414.4)" />
<use xlink:href="#f2_20" transform="matrix(12,0,0,12,349.9,414.4)" />
<use xlink:href="#f2_14" transform="matrix(12,0,0,12,363.8,414.4)" />
<use xlink:href="#f2_2j" transform="matrix(12,0,0,12,381.8,414.4)" />
<use xlink:href="#f2_25" transform="matrix(12,0,0,12,395,414.4)" />
<use xlink:href="#f2_2g" transform="matrix(12,0,0,12,399.4,414.4)" />
<use xlink:href="#f2_24" transform="matrix(12,0,0,12,404.8,414.4)" />
<use xlink:href="#f2_2c" transform="matrix(12,0,0,12,418.4,414.4)" />
<use xlink:href="#f2_2b" transform="matrix(12,0,0,12,427.9,414.4)" />
<use xlink:href="#f2_2f" transform="matrix(12,0,0,12,437.4,414.4)" />
<use xlink:href="#f2_25" transform="matrix(12,0,0,12,444.4,414.4)" />
<use xlink:href="#f2_2g" transform="matrix(12,0,0,12,448.8,414.4)" />
<use xlink:href="#f2_25" transform="matrix(12,0,0,12,454.6,414.4)" />
<use xlink:href="#f2_2b" transform="matrix(12,0,0,12,459,414.4)" />
<use xlink:href="#f2_2a" transform="matrix(12,0,0,12,468.5,414.4)" />
<use xlink:href="#f2_2i" transform="matrix(12,0,0,12,482.5,414.4)" />
<use xlink:href="#f2_21" transform="matrix(12,0,0,12,491.3,414.4)" />
<use xlink:href="#f2_1z" transform="matrix(12,0,0,12,499.3,414.4)" />
<use xlink:href="#f2_2g" transform="matrix(12,0,0,12,507.4,414.4)" />
<use xlink:href="#f2_2b" transform="matrix(12,0,0,12,512.9,414.4)" />
<use xlink:href="#f2_2e" transform="matrix(12,0,0,12,522.4,414.4)" />
<use xlink:href="#f2_2f" transform="matrix(12,0,0,12,528.6,414.4)" />
</g>
<g clip-path="url(#c3_132)">
<g fill="#000000" >
<use xlink:href="#f6_5z" transform="matrix(13,0,0,12.1,615.5,409.4)" />
<use xlink:href="#f6_5z" transform="matrix(13,0,0,12.1,674,409.4)" />
<use xlink:href="#f6_5z" transform="matrix(13,0,0,12.1,770,409.4)" />
<use xlink:href="#f6_5z" transform="matrix(13,0,0,12.1,553.2,410.9)" />
<use xlink:href="#f6_5z" transform="matrix(13,0,0,12.1,588.3,410.9)" />
<use xlink:href="#f6_5z" transform="matrix(13,0,0,12.1,647,410.9)" />
<use xlink:href="#f6_5z" transform="matrix(13,0,0,12.1,697.9,410.9)" />
<use xlink:href="#f6_5z" transform="matrix(13,0,0,12.1,733.3,410.9)" />
<use xlink:href="#f2_o" transform="matrix(13,0,0,12.1,543,414.9)" />
<use xlink:href="#f2_p" transform="matrix(13,0,0,12.1,576.3,414.9)" />
<use xlink:href="#f2_g" transform="matrix(13,0,0,12.1,621.7,414.9)" />
<use xlink:href="#f2_g" transform="matrix(13,0,0,12.1,680.2,414.9)" />
<use xlink:href="#f2_n" transform="matrix(13,0,0,12.1,688.4,414.9)" />
<use xlink:href="#f2_t" transform="matrix(13,0,0,12.1,721,414.9)" />
<use xlink:href="#f2_o" transform="matrix(13,0,0,12.1,757.3,414.9)" />
<use xlink:href="#f3_25" transform="matrix(13,0,0,12.1,551.9,414.9)" />
<use xlink:href="#f3_26" transform="matrix(13,0,0,12.1,588.9,414.9)" />
<use xlink:href="#f3_27" transform="matrix(13,0,0,12.1,612.3,414.9)" />
<use xlink:href="#f3_26" transform="matrix(13,0,0,12.1,647.6,414.9)" />
<use xlink:href="#f3_27" transform="matrix(13,0,0,12.1,670.7,414.9)" />
<use xlink:href="#f3_25" transform="matrix(13,0,0,12.1,696.6,414.9)" />
<use xlink:href="#f3_26" transform="matrix(13,0,0,12.1,733.9,414.9)" />
<use xlink:href="#f3_27" transform="matrix(13,0,0,12.1,766.7,414.9)" />
<use xlink:href="#f4_f" transform="matrix(13,0,0,12.1,562.9,414.9)" />
<use xlink:href="#f4_f" transform="matrix(13,0,0,12.1,598.3,414.9)" />
<use xlink:href="#f4_h" transform="matrix(13,0,0,12.1,630.5,414.9)" />
<use xlink:href="#f4_h" transform="matrix(13,0,0,12.1,657.1,414.9)" />
<use xlink:href="#f4_f" transform="matrix(13,0,0,12.1,707.7,414.9)" />
<use xlink:href="#f4_f" transform="matrix(13,0,0,12.1,743.4,414.9)" />
</g>
</g>
<g fill="#000000" >
<use xlink:href="#f2_1x" transform="matrix(12,0,0,12,785,414.4)" />
<use xlink:href="#f2_2a" transform="matrix(12,0,0,12,793,414.4)" />
<use xlink:href="#f2_20" transform="matrix(12,0,0,12,801.8,414.4)" />
</g>
<g clip-path="url(#c4_132)">
<g fill="#000000" >
<use xlink:href="#f6_5z" transform="matrix(12.9,0,0,12.1,138.3,439.9)" />
<use xlink:href="#f6_5z" transform="matrix(12.9,0,0,12.1,84.8,441.3)" />
<use xlink:href="#f6_5z" transform="matrix(12.9,0,0,12.1,111.2,441.3)" />
<use xlink:href="#f2_o" transform="matrix(12.9,0,0,12.1,57.9,445.3)" />
<use xlink:href="#f2_c" transform="matrix(12.9,0,0,12.1,67,445.3)" />
<use xlink:href="#f2_d" transform="matrix(12.9,0,0,12.1,144.8,445.3)" />
<use xlink:href="#f3_25" transform="matrix(12.9,0,0,12.1,83.5,445.3)" />
<use xlink:href="#f3_26" transform="matrix(12.9,0,0,12.1,111.8,445.3)" />
<use xlink:href="#f3_27" transform="matrix(12.9,0,0,12.1,135.1,445.3)" />
<use xlink:href="#f4_h" transform="matrix(12.9,0,0,12.1,73.6,445.3)" />
<use xlink:href="#f4_f" transform="matrix(12.9,0,0,12.1,94.5,445.3)" />
<use xlink:href="#f4_f" transform="matrix(12.9,0,0,12.1,121.2,445.3)" />
</g>
</g>
<g fill="#000000" >
<use xlink:href="#f2_2e" transform="matrix(12,0,0,12,159.2,444.9)" />
<use xlink:href="#f2_21" transform="matrix(12,0,0,12,165.4,444.9)" />
<use xlink:href="#f2_2f" transform="matrix(12,0,0,12,173.5,444.9)" />
<use xlink:href="#f2_2c" transform="matrix(12,0,0,12,180.5,444.9)" />
<use xlink:href="#f2_21" transform="matrix(12,0,0,12,189.6,444.9)" />
<use xlink:href="#f2_1z" transform="matrix(12,0,0,12,197.7,444.9)" />
<use xlink:href="#f2_2g" transform="matrix(12,0,0,12,205.8,444.9)" />
<use xlink:href="#f2_25" transform="matrix(12,0,0,12,211.2,444.9)" />
<use xlink:href="#f2_2i" transform="matrix(12,0,0,12,216,444.9)" />
<use xlink:href="#f2_21" transform="matrix(12,0,0,12,224.8,444.9)" />
<use xlink:href="#f2_28" transform="matrix(12,0,0,12,233.2,444.9)" />
<use xlink:href="#f2_2l" transform="matrix(12,0,0,12,238.3,444.9)" />
<use xlink:href="#f2_1x" transform="matrix(12,0,0,12,251.9,444.9)" />
<use xlink:href="#f2_2e" transform="matrix(12,0,0,12,260,444.9)" />
<use xlink:href="#f2_21" transform="matrix(12,0,0,12,266.2,444.9)" />
<use xlink:href="#f2_1z" transform="matrix(12,0,0,12,279,444.9)" />
<use xlink:href="#f2_2b" transform="matrix(12,0,0,12,287.1,444.9)" />
<use xlink:href="#f2_2c" transform="matrix(12,0,0,12,296.6,444.9)" />
<use xlink:href="#f2_28" transform="matrix(12,0,0,12,305.7,444.9)" />
<use xlink:href="#f2_1x" transform="matrix(12,0,0,12,310.1,444.9)" />
<use xlink:href="#f2_2a" transform="matrix(12,0,0,12,318.6,444.9)" />
<use xlink:href="#f2_1x" transform="matrix(12,0,0,12,327.4,444.9)" />
<use xlink:href="#f2_2e" transform="matrix(12,0,0,12,335.4,444.9)" />
<use xlink:href="#f2_i" transform="matrix(12,0,0,12,341.6,444.9)" />
<use xlink:href="#f2_1f" transform="matrix(12,0,0,12,442,483.8)" />
<use xlink:href="#f2_1i" transform="matrix(12,0,0,12,455.2,483.8)" />
<use xlink:href="#f2_1k" transform="matrix(12,0,0,12,55,522.7)" />
<use xlink:href="#f2_24" transform="matrix(12,0,0,12,66.4,522.7)" />
<use xlink:href="#f2_21" transform="matrix(12,0,0,12,75.2,522.7)" />
<use xlink:href="#f2_2f" transform="matrix(12,0,0,12,88,522.7)" />
<use xlink:href="#f2_1z" transform="matrix(12,0,0,12,95,522.7)" />
<use xlink:href="#f2_1x" transform="matrix(12,0,0,12,103,522.7)" />
<use xlink:href="#f2_28" transform="matrix(12,0,0,12,111.4,522.7)" />
<use xlink:href="#f2_1x" transform="matrix(12,0,0,12,116.2,522.7)" />
<use xlink:href="#f2_2e" transform="matrix(12,0,0,12,124.3,522.7)" />
<use xlink:href="#f2_2c" transform="matrix(12,0,0,12,135.2,522.7)" />
<use xlink:href="#f2_2e" transform="matrix(12,0,0,12,144.4,522.7)" />
<use xlink:href="#f2_2b" transform="matrix(12,0,0,12,150.6,522.7)" />
<use xlink:href="#f2_20" transform="matrix(12,0,0,12,160.1,522.7)" />
<use xlink:href="#f2_2h" transform="matrix(12,0,0,12,169.3,522.7)" />
<use xlink:href="#f2_1z" transform="matrix(12,0,0,12,178.5,522.7)" />
<use xlink:href="#f2_2g" transform="matrix(12,0,0,12,186.2,522.7)" />
<use xlink:href="#f2_2b" transform="matrix(12,0,0,12,195.7,522.7)" />
<use xlink:href="#f2_22" transform="matrix(12,0,0,12,205.2,522.7)" />
<use xlink:href="#f2_2g" transform="matrix(12,0,0,12,215.5,522.7)" />
<use xlink:href="#f2_24" transform="matrix(12,0,0,12,221,522.7)" />
<use xlink:href="#f2_21" transform="matrix(12,0,0,12,229.8,522.7)" />
<use xlink:href="#f2_2i" transform="matrix(12,0,0,12,242.6,522.7)" />
<use xlink:href="#f2_21" transform="matrix(12,0,0,12,251.4,522.7)" />
<use xlink:href="#f2_1z" transform="matrix(12,0,0,12,259.8,522.7)" />
<use xlink:href="#f2_2g" transform="matrix(12,0,0,12,267.9,522.7)" />
<use xlink:href="#f2_2b" transform="matrix(12,0,0,12,272.9,522.7)" />
<use xlink:href="#f2_2e" transform="matrix(12,0,0,12,282.5,522.7)" />
</g>
<g clip-path="url(#c5_132)">
<g fill="#000000" >
<use xlink:href="#f6_5z" transform="matrix(12.7,0,0,12.1,380.4,517.6)" />
<use xlink:href="#f6_5z" transform="matrix(12.7,0,0,12.1,326.1,519.1)" />
<use xlink:href="#f6_5z" transform="matrix(12.7,0,0,12.1,353,519.1)" />
<use xlink:href="#f3_1x" transform="matrix(12.7,0,0,12.1,296.3,523.1)" />
<use xlink:href="#f3_25" transform="matrix(12.7,0,0,12.1,324.8,523.1)" />
<use xlink:href="#f3_26" transform="matrix(12.7,0,0,12.1,353.5,523.1)" />
<use xlink:href="#f3_27" transform="matrix(12.7,0,0,12.1,377.1,523.1)" />
<use xlink:href="#f4_x" transform="matrix(12.7,0,0,12.1,310.8,523.1)" />
<use xlink:href="#f4_f" transform="matrix(12.7,0,0,12.1,335.9,523.1)" />
<use xlink:href="#f4_f" transform="matrix(12.7,0,0,12.1,363,523.1)" />
</g>
</g>
<image preserveAspectRatio="none" x="298" y="491" width="74" height="32" xlink:href="img/6.png" />
<g fill="#000000" >
<use xlink:href="#f2_2j" transform="matrix(12,0,0,12,394.3,522.7)" />
<use xlink:href="#f2_25" transform="matrix(12,0,0,12,407.6,522.7)" />
<use xlink:href="#f2_2g" transform="matrix(12,0,0,12,411.9,522.7)" />
<use xlink:href="#f2_24" transform="matrix(12,0,0,12,417.4,522.7)" />
<use xlink:href="#f2_1x" transform="matrix(12,0,0,12,430.9,522.7)" />
<use xlink:href="#f2_2h" transform="matrix(12,0,0,12,443.8,522.7)" />
<use xlink:href="#f2_2a" transform="matrix(12,0,0,12,452.9,522.7)" />
<use xlink:href="#f2_25" transform="matrix(12,0,0,12,462.1,522.7)" />
<use xlink:href="#f2_2g" transform="matrix(12,0,0,12,466.5,522.7)" />
<use xlink:href="#f2_2i" transform="matrix(12,0,0,12,476.7,522.7)" />
<use xlink:href="#f2_21" transform="matrix(12,0,0,12,485.9,522.7)" />
<use xlink:href="#f2_1z" transform="matrix(12,0,0,12,494,522.7)" />
<use xlink:href="#f2_2g" transform="matrix(12,0,0,12,502,522.7)" />
<use xlink:href="#f2_2b" transform="matrix(12,0,0,12,507.5,522.7)" />
<use xlink:href="#f2_2e" transform="matrix(12,0,0,12,516.7,522.7)" />
<use xlink:href="#f2_1x" transform="matrix(12,0,0,12,527.3,522.7)" />
<use xlink:href="#f2_28" transform="matrix(12,0,0,12,535.7,522.7)" />
<use xlink:href="#f2_2b" transform="matrix(12,0,0,12,540.1,522.7)" />
<use xlink:href="#f2_2a" transform="matrix(12,0,0,12,549.6,522.7)" />
<use xlink:href="#f2_23" transform="matrix(12,0,0,12,558.4,522.7)" />
<use xlink:href="#f2_2g" transform="matrix(12,0,0,12,572.3,522.7)" />
<use xlink:href="#f2_24" transform="matrix(12,0,0,12,577.8,522.7)" />
<use xlink:href="#f2_21" transform="matrix(12,0,0,12,586.6,522.7)" />
<use xlink:href="#f2_2f" transform="matrix(12,0,0,12,599.4,522.7)" />
<use xlink:href="#f2_2h" transform="matrix(12,0,0,12,606.4,522.7)" />
<use xlink:href="#f2_29" transform="matrix(12,0,0,12,615.9,522.7)" />
<use xlink:href="#f2_2b" transform="matrix(12,0,0,12,634.2,522.7)" />
<use xlink:href="#f2_22" transform="matrix(12,0,0,12,643.7,522.7)" />
<use xlink:href="#f2_2i" transform="matrix(12,0,0,12,654.4,522.7)" />
<use xlink:href="#f2_21" transform="matrix(12,0,0,12,663.2,522.7)" />
<use xlink:href="#f2_1z" transform="matrix(12,0,0,12,671.2,522.7)" />
<use xlink:href="#f2_2g" transform="matrix(12,0,0,12,679.3,522.7)" />
<use xlink:href="#f2_2b" transform="matrix(12,0,0,12,684.8,522.7)" />
<use xlink:href="#f2_2e" transform="matrix(12,0,0,12,694.3,522.7)" />
<use xlink:href="#f2_2f" transform="matrix(12,0,0,12,700.5,522.7)" />
</g>
<g clip-path="url(#c6_132)">
<g fill="#000000" >
<use xlink:href="#f6_5z" transform="matrix(12.9,0,0,12.1,825.6,517.6)" />
<use xlink:href="#f6_5z" transform="matrix(12.9,0,0,12.1,753.9,519.1)" />
<use xlink:href="#f6_5z" transform="matrix(12.9,0,0,12.1,790,519.1)" />
<use xlink:href="#f2_m" transform="matrix(12.9,0,0,12.1,743.7,523.1)" />
<use xlink:href="#f2_o" transform="matrix(12.9,0,0,12.1,777.7,523.1)" />
<use xlink:href="#f2_p" transform="matrix(12.9,0,0,12.1,813.2,523.1)" />
<use xlink:href="#f3_1y" transform="matrix(12.9,0,0,12.1,714.1,523.1)" />
<use xlink:href="#f3_25" transform="matrix(12.9,0,0,12.1,752.6,523.1)" />
<use xlink:href="#f3_26" transform="matrix(12.9,0,0,12.1,790.5,523.1)" />
<use xlink:href="#f3_27" transform="matrix(12.9,0,0,12.1,822.3,523.1)" />
<use xlink:href="#f4_x" transform="matrix(12.9,0,0,12.1,729.2,523.1)" />
<use xlink:href="#f4_f" transform="matrix(12.9,0,0,12.1,763.6,523.1)" />
<use xlink:href="#f4_h" transform="matrix(12.9,0,0,12.1,800,523.1)" />
</g>
</g>
<image preserveAspectRatio="none" x="717" y="486" width="73" height="32" xlink:href="img/7.png" />
<g fill="#000000" >
<use xlink:href="#f2_1x" transform="matrix(12,0,0,12,55,553.8)" />
<use xlink:href="#f2_2a" transform="matrix(12,0,0,12,63.1,553.8)" />
<use xlink:href="#f2_20" transform="matrix(12,0,0,12,71.9,553.8)" />
</g>
<g clip-path="url(#c7_132)">
<g fill="#000000" >
<use xlink:href="#f6_5z" transform="matrix(12.9,0,0,12.1,200.3,548.8)" />
<use xlink:href="#f6_5z" transform="matrix(12.9,0,0,12.1,128.7,550.2)" />
<use xlink:href="#f6_5z" transform="matrix(12.9,0,0,12.1,164.8,550.2)" />
<use xlink:href="#f2_m" transform="matrix(12.9,0,0,12.1,152.4,554.2)" />
<use xlink:href="#f2_n" transform="matrix(12.9,0,0,12.1,188.2,554.2)" />
<use xlink:href="#f3_1z" transform="matrix(12.9,0,0,12.1,88.8,554.2)" />
<use xlink:href="#f3_25" transform="matrix(12.9,0,0,12.1,127.3,554.2)" />
<use xlink:href="#f3_26" transform="matrix(12.9,0,0,12.1,165.3,554.2)" />
<use xlink:href="#f3_27" transform="matrix(12.9,0,0,12.1,197.1,554.2)" />
<use xlink:href="#f4_x" transform="matrix(12.9,0,0,12.1,102.8,554.2)" />
<use xlink:href="#f4_28" transform="matrix(12.9,0,0,12.1,117,554.2)" />
<use xlink:href="#f4_f" transform="matrix(12.9,0,0,12.1,138.4,554.2)" />
<use xlink:href="#f4_f" transform="matrix(12.9,0,0,12.1,174.7,554.2)" />
</g>
</g>
<image preserveAspectRatio="none" x="90" y="522" width="74" height="32" xlink:href="img/8.png" />
<g fill="#000000" >
<use xlink:href="#f2_25" transform="matrix(12,0,0,12,214.9,553.8)" />
<use xlink:href="#f2_2f" transform="matrix(12,0,0,12,219.7,553.8)" />
<use xlink:href="#f2_21" transform="matrix(12,0,0,12,231.4,553.8)" />
<use xlink:href="#f2_2d" transform="matrix(12,0,0,12,239.5,553.8)" />
<use xlink:href="#f2_2h" transform="matrix(12,0,0,12,248.7,553.8)" />
<use xlink:href="#f2_1x" transform="matrix(12,0,0,12,257.8,553.8)" />
<use xlink:href="#f2_28" transform="matrix(12,0,0,12,266.2,553.8)" />
<use xlink:href="#f2_2g" transform="matrix(12,0,0,12,275.4,553.8)" />
<use xlink:href="#f2_2b" transform="matrix(12,0,0,12,280.9,553.8)" />
<use xlink:href="#f2_2b" transform="matrix(12,0,0,12,294.4,553.8)" />
<use xlink:href="#f2_2a" transform="matrix(12,0,0,12,304,553.8)" />
<use xlink:href="#f2_21" transform="matrix(12,0,0,12,312.8,553.8)" />
<use xlink:href="#f2_i" transform="matrix(12,0,0,12,320.8,553.8)" />
<use xlink:href="#f2_16" transform="matrix(12,0,0,12,330.3,553.8)" />
<use xlink:href="#f2_25" transform="matrix(12,0,0,12,340.6,553.8)" />
<use xlink:href="#f2_2a" transform="matrix(12,0,0,12,345.3,553.8)" />
<use xlink:href="#f2_20" transform="matrix(12,0,0,12,354.1,553.8)" />
<use xlink:href="#f2_2g" transform="matrix(12,0,0,12,368,553.8)" />
<use xlink:href="#f2_24" transform="matrix(12,0,0,12,373.5,553.8)" />
<use xlink:href="#f2_21" transform="matrix(12,0,0,12,382.3,553.8)" />
<use xlink:href="#f2_2i" transform="matrix(12,0,0,12,395.1,553.8)" />
<use xlink:href="#f2_1x" transform="matrix(12,0,0,12,403.9,553.8)" />
<use xlink:href="#f2_28" transform="matrix(12,0,0,12,412.4,553.8)" />
<use xlink:href="#f2_2h" transform="matrix(12,0,0,12,417.1,553.8)" />
<use xlink:href="#f2_21" transform="matrix(12,0,0,12,426.3,553.8)" />
<use xlink:href="#f2_2b" transform="matrix(12,0,0,12,439.1,553.8)" />
<use xlink:href="#f2_22" transform="matrix(12,0,0,12,448.6,553.8)" />
</g>
<g clip-path="url(#c8_132)">
<g fill="#000000" >
<use xlink:href="#f4_28" transform="matrix(12.2,0,0,12.2,462.2,554.2)" />
</g>
</g>
<g fill="#000000" >
<use xlink:href="#f2_1x" transform="matrix(12,0,0,12,480.2,553.8)" />
<use xlink:href="#f2_2a" transform="matrix(12,0,0,12,488.2,553.8)" />
<use xlink:href="#f2_20" transform="matrix(12,0,0,12,497,553.8)" />
<use xlink:href="#f2_24" transform="matrix(12,0,0,12,510.9,553.8)" />
<use xlink:href="#f2_21" transform="matrix(12,0,0,12,519.7,553.8)" />
<use xlink:href="#f2_2a" transform="matrix(12,0,0,12,528.1,553.8)" />
<use xlink:href="#f2_1z" transform="matrix(12,0,0,12,537.3,553.8)" />
<use xlink:href="#f2_21" transform="matrix(12,0,0,12,545.4,553.8)" />
<use xlink:href="#f2_22" transform="matrix(12,0,0,12,558.6,553.8)" />
<use xlink:href="#f2_25" transform="matrix(12,0,0,12,564.4,553.8)" />
<use xlink:href="#f2_2a" transform="matrix(12,0,0,12,569.5,553.8)" />
<use xlink:href="#f2_20" transform="matrix(12,0,0,12,578.4,553.8)" />
<use xlink:href="#f2_2g" transform="matrix(12,0,0,12,592.3,553.8)" />
<use xlink:href="#f2_24" transform="matrix(12,0,0,12,597.8,553.8)" />
<use xlink:href="#f2_21" transform="matrix(12,0,0,12,606.6,553.8)" />
<use xlink:href="#f2_2h" transform="matrix(12,0,0,12,619.4,553.8)" />
<use xlink:href="#f2_2a" transform="matrix(12,0,0,12,628.5,553.8)" />
<use xlink:href="#f2_25" transform="matrix(12,0,0,12,637.7,553.8)" />
<use xlink:href="#f2_2g" transform="matrix(12,0,0,12,642.1,553.8)" />
<use xlink:href="#f2_2i" transform="matrix(12,0,0,12,652.3,553.8)" />
<use xlink:href="#f2_21" transform="matrix(12,0,0,12,661.5,553.8)" />
<use xlink:href="#f2_1z" transform="matrix(12,0,0,12,669.6,553.8)" />
<use xlink:href="#f2_2g" transform="matrix(12,0,0,12,677.6,553.8)" />
<use xlink:href="#f2_2b" transform="matrix(12,0,0,12,683.1,553.8)" />
<use xlink:href="#f2_2e" transform="matrix(12,0,0,12,692.3,553.8)" />
<use xlink:href="#f2_1x" transform="matrix(12,0,0,12,703.2,553.8)" />
<use xlink:href="#f2_28" transform="matrix(12,0,0,12,711.3,553.8)" />
<use xlink:href="#f2_2b" transform="matrix(12,0,0,12,715.7,553.8)" />
<use xlink:href="#f2_2a" transform="matrix(12,0,0,12,725.2,553.8)" />
<use xlink:href="#f2_23" transform="matrix(12,0,0,12,734,553.8)" />
</g>
<g clip-path="url(#c9_132)">
<g fill="#000000" >
<use xlink:href="#f2_i" transform="matrix(12.8,0,0,12.5,787,554.1)" />
<use xlink:href="#f3_1y" transform="matrix(12.8,0,0,12.5,750.3,554.1)" />
<use xlink:href="#f3_1z" transform="matrix(12.8,0,0,12.5,778.2,554.1)" />
<use xlink:href="#f4_f" transform="matrix(12.8,0,0,12.5,764.6,554.1)" />
</g>
</g>
<image preserveAspectRatio="none" x="753" y="516" width="73" height="33" xlink:href="img/9.png" />
<image preserveAspectRatio="none" x="780" y="521" width="72" height="33" xlink:href="img/10.png" />
<g fill="#000000" >
<use xlink:href="#f5_1j" transform="matrix(12,0,0,12,55,592.3)" />
<use xlink:href="#f5_2b" transform="matrix(12,0,0,12,65.3,592.3)" />
<use xlink:href="#f5_28" transform="matrix(12,0,0,12,74.5,592.3)" />
<use xlink:href="#f5_2h" transform="matrix(12,0,0,12,79.2,592.3)" />
<use xlink:href="#f5_2g" transform="matrix(12,0,0,12,89.5,592.3)" />
<use xlink:href="#f5_25" transform="matrix(12,0,0,12,95.7,592.3)" />
<use xlink:href="#f5_2b" transform="matrix(12,0,0,12,100.8,592.3)" />
<use xlink:href="#f5_2a" transform="matrix(12,0,0,12,110,592.3)" />
<use xlink:href="#f5_u" transform="matrix(12,0,0,12,120.2,592.3)" />
<use xlink:href="#f2_19" transform="matrix(12,0,0,12,55,631.2)" />
<use xlink:href="#f2_22" transform="matrix(12,0,0,12,61.3,631.2)" />
<use xlink:href="#f2_1g" transform="matrix(12,0,0,12,71.5,631.2)" />
<use xlink:href="#f2_i" transform="matrix(12,0,0,12,81.7,631.2)" />
<use xlink:href="#f2_1m" transform="matrix(12,0,0,12,86.5,631.2)" />
<use xlink:href="#f2_2b" transform="matrix(12,0,0,12,104.4,631.2)" />
<use xlink:href="#f2_22" transform="matrix(12,0,0,12,114,631.2)" />
</g>
<g clip-path="url(#c10_132)">
<g fill="#000000" >
<use xlink:href="#f6_5z" transform="matrix(12.9,0,0,12.1,230.4,626.2)" />
<use xlink:href="#f6_5z" transform="matrix(12.9,0,0,12.1,168.2,627.6)" />
<use xlink:href="#f6_5z" transform="matrix(12.9,0,0,12.1,203.3,627.6)" />
<use xlink:href="#f2_o" transform="matrix(12.9,0,0,12.1,158.1,631.6)" />
<use xlink:href="#f2_p" transform="matrix(12.9,0,0,12.1,191.3,631.6)" />
<use xlink:href="#f3_11" transform="matrix(12.9,0,0,12.1,128.7,631.6)" />
<use xlink:href="#f3_25" transform="matrix(12.9,0,0,12.1,166.9,631.6)" />
<use xlink:href="#f3_26" transform="matrix(12.9,0,0,12.1,203.8,631.6)" />
<use xlink:href="#f3_27" transform="matrix(12.9,0,0,12.1,227.1,631.6)" />
<use xlink:href="#f4_x" transform="matrix(12.9,0,0,12.1,143.7,631.6)" />
<use xlink:href="#f4_f" transform="matrix(12.9,0,0,12.1,177.9,631.6)" />
<use xlink:href="#f4_f" transform="matrix(12.9,0,0,12.1,213.2,631.6)" />
</g>
</g>
<image preserveAspectRatio="none" x="131" y="595" width="73" height="32" xlink:href="img/11.png" />
<g clip-path="url(#c11_132)">
<g fill="#000000" >
<use xlink:href="#f6_5z" transform="matrix(12.7,0,0,12.1,129.4,668.7)" />
<use xlink:href="#f6_5z" transform="matrix(12.7,0,0,12.1,102.4,670.1)" />
<use xlink:href="#f3_12" transform="matrix(12.7,0,0,12.1,58.5,674.1)" />
<use xlink:href="#f3_26" transform="matrix(12.7,0,0,12.1,103,674.1)" />
<use xlink:href="#f3_27" transform="matrix(12.7,0,0,12.1,126.1,674.1)" />
<use xlink:href="#f4_x" transform="matrix(12.7,0,0,12.1,74.5,674.1)" />
<use xlink:href="#f4_h" transform="matrix(12.7,0,0,12.1,89,674.1)" />
<use xlink:href="#f4_h" transform="matrix(12.7,0,0,12.1,112.4,674.1)" />
</g>
</g>
<image preserveAspectRatio="none" x="62" y="638" width="73" height="32" xlink:href="img/12.png" />
<g clip-path="url(#c12_132)">
<g fill="#000000" >
<use xlink:href="#f6_5z" transform="matrix(12.9,0,0,12.1,170.9,711.3)" />
<use xlink:href="#f6_5z" transform="matrix(12.9,0,0,12.1,98.6,712.7)" />
<use xlink:href="#f6_5z" transform="matrix(12.9,0,0,12.1,134.2,712.7)" />
<use xlink:href="#f2_n" transform="matrix(12.9,0,0,12.1,89,716.7)" />
<use xlink:href="#f2_t" transform="matrix(12.9,0,0,12.1,121.8,716.7)" />
<use xlink:href="#f2_o" transform="matrix(12.9,0,0,12.1,158.2,716.7)" />
<use xlink:href="#f3_13" transform="matrix(12.9,0,0,12.1,57.4,716.7)" />
<use xlink:href="#f3_25" transform="matrix(12.9,0,0,12.1,97.3,716.7)" />
<use xlink:href="#f3_26" transform="matrix(12.9,0,0,12.1,134.6,716.7)" />
<use xlink:href="#f3_27" transform="matrix(12.9,0,0,12.1,167.6,716.7)" />
<use xlink:href="#f4_x" transform="matrix(12.9,0,0,12.1,75,716.7)" />
<use xlink:href="#f4_f" transform="matrix(12.9,0,0,12.1,108.3,716.7)" />
<use xlink:href="#f4_f" transform="matrix(12.9,0,0,12.1,144.1,716.7)" />
</g>
</g>
<image preserveAspectRatio="none" x="62" y="680" width="73" height="32" xlink:href="img/13.png" />
<g clip-path="url(#c13_132)">
<g fill="#000000" >
<use xlink:href="#f6_5z" transform="matrix(12.9,0,0,12.1,172.1,753.8)" />
<use xlink:href="#f6_5z" transform="matrix(12.9,0,0,12.1,118.1,755.2)" />
<use xlink:href="#f6_5z" transform="matrix(12.9,0,0,12.1,144.8,755.2)" />
<use xlink:href="#f2_o" transform="matrix(12.9,0,0,12.1,91,759.2)" />
<use xlink:href="#f2_c" transform="matrix(12.9,0,0,12.1,100.2,759.2)" />
<use xlink:href="#f2_d" transform="matrix(12.9,0,0,12.1,178.7,759.2)" />
<use xlink:href="#f3_14" transform="matrix(12.9,0,0,12.1,58.5,759.2)" />
<use xlink:href="#f3_25" transform="matrix(12.9,0,0,12.1,116.8,759.2)" />
<use xlink:href="#f3_26" transform="matrix(12.9,0,0,12.1,145.3,759.2)" />
<use xlink:href="#f3_27" transform="matrix(12.9,0,0,12.1,168.8,759.2)" />
<use xlink:href="#f4_x" transform="matrix(12.9,0,0,12.1,76.5,759.2)" />
<use xlink:href="#f4_h" transform="matrix(12.9,0,0,12.1,106.8,759.2)" />
<use xlink:href="#f4_f" transform="matrix(12.9,0,0,12.1,127.9,759.2)" />
<use xlink:href="#f4_f" transform="matrix(12.9,0,0,12.1,154.8,759.2)" />
</g>
</g>
<image preserveAspectRatio="none" x="63" y="723" width="73" height="32" xlink:href="img/14.png" />
<g fill="#000000" >
<use xlink:href="#f2_1g" transform="matrix(12,0,0,12,55,803.9)" />
<use xlink:href="#f2_2b" transform="matrix(12,0,0,12,65.3,803.9)" />
<use xlink:href="#f2_25" transform="matrix(12,0,0,12,74.8,803.9)" />
<use xlink:href="#f2_2a" transform="matrix(12,0,0,12,79.6,803.9)" />
<use xlink:href="#f2_2g" transform="matrix(12,0,0,12,88.4,803.9)" />
<use xlink:href="#f2_2f" transform="matrix(12,0,0,12,93.8,803.9)" />
</g>
<g clip-path="url(#c14_132)">
<g fill="#000000" >
<use xlink:href="#f2_g" transform="matrix(12.8,0,0,12.1,120.7,804.2)" />
<use xlink:href="#f2_g" transform="matrix(12.8,0,0,12.1,141.7,804.2)" />
<use xlink:href="#f2_g" transform="matrix(12.8,0,0,12.1,163.3,804.2)" />
<use xlink:href="#f3_11" transform="matrix(12.8,0,0,12.1,110,804.2)" />
<use xlink:href="#f3_12" transform="matrix(12.8,0,0,12.1,130.1,804.2)" />
<use xlink:href="#f3_13" transform="matrix(12.8,0,0,12.1,149.9,804.2)" />
<use xlink:href="#f3_14" transform="matrix(12.8,0,0,12.1,172.7,804.2)" />
</g>
</g>
<image preserveAspectRatio="none" x="112" y="768" width="119" height="31" xlink:href="img/15.png" />
<image preserveAspectRatio="none" x="133" y="768" width="121" height="32" xlink:href="img/16.png" />
<g fill="#000000" >
<use xlink:href="#f2_1x" transform="matrix(12,0,0,12,193.3,803.9)" />
<use xlink:href="#f2_28" transform="matrix(12,0,0,12,201.4,803.9)" />
<use xlink:href="#f2_28" transform="matrix(12,0,0,12,206.1,803.9)" />
<use xlink:href="#f2_13" transform="matrix(12,0,0,12,215.7,803.9)" />
<use xlink:href="#f2_2b" transform="matrix(12,0,0,12,227.8,803.9)" />
<use xlink:href="#f2_2c" transform="matrix(12,0,0,12,237.3,803.9)" />
<use xlink:href="#f2_28" transform="matrix(12,0,0,12,246.8,803.9)" />
<use xlink:href="#f2_1x" transform="matrix(12,0,0,12,251.2,803.9)" />
<use xlink:href="#f2_2a" transform="matrix(12,0,0,12,259.6,803.9)" />
<use xlink:href="#f2_1x" transform="matrix(12,0,0,12,268.4,803.9)" />
<use xlink:href="#f2_2e" transform="matrix(12,0,0,12,276.5,803.9)" />
<use xlink:href="#f2_25" transform="matrix(12,0,0,12,287.8,803.9)" />
<use xlink:href="#f2_22" transform="matrix(12,0,0,12,292.6,803.9)" />
</g>
<g clip-path="url(#c15_132)">
<g fill="#000000" >
<use xlink:href="#f2_k" transform="matrix(12.8,0,0,12.4,426.4,804.2)" />
<use xlink:href="#f2_c" transform="matrix(12.8,0,0,12.4,474.5,804.2)" />
<use xlink:href="#f2_l" transform="matrix(12.8,0,0,12.4,479.1,804.2)" />
<use xlink:href="#f2_d" transform="matrix(12.8,0,0,12.4,486.8,804.2)" />
<use xlink:href="#f3_11" transform="matrix(12.8,0,0,12.4,315.8,804.2)" />
<use xlink:href="#f3_12" transform="matrix(12.8,0,0,12.4,327,804.2)" />
<use xlink:href="#f3_11" transform="matrix(12.8,0,0,12.4,344.4,804.2)" />
<use xlink:href="#f3_13" transform="matrix(12.8,0,0,12.4,355.6,804.2)" />
<use xlink:href="#f3_11" transform="matrix(12.8,0,0,12.4,374.7,804.2)" />
<use xlink:href="#f3_14" transform="matrix(12.8,0,0,12.4,385.9,804.2)" />
<use xlink:href="#f4_4r" transform="matrix(12.8,0,0,12.4,306.5,801.7)" />
<use xlink:href="#f4_57" transform="matrix(12.8,0,0,12.4,400.3,801.7)" />
<use xlink:href="#f4_x" transform="matrix(12.8,0,0,12.4,412.2,804.2)" />
<use xlink:href="#f4_4g" transform="matrix(12.8,0,0,12.4,452.3,804.2)" />
<use xlink:href="#f4_4t" transform="matrix(12.8,0,0,12.4,306.5,813)" />
<use xlink:href="#f4_59" transform="matrix(12.8,0,0,12.4,400.3,813)" />
</g>
</g>
<image preserveAspectRatio="none" x="315" y="766" width="122" height="33" xlink:href="img/17.png" />
<g fill="#000000" >
<use xlink:href="#f2_1j" transform="matrix(12,0,0,12,55,852.3)" />
<use xlink:href="#f2_2b" transform="matrix(12,0,0,12,65.3,852.3)" />
<use xlink:href="#f2_g" transform="matrix(12,0,0,12,74.5,852.3)" />
</g>
<g clip-path="url(#c16_132)">
<g fill="#000000" >
<use xlink:href="#f6_5z" transform="matrix(13,0,0,12.1,412.5,847.3)" />
<use xlink:href="#f6_5z" transform="matrix(13,0,0,12.1,340.6,848.7)" />
<use xlink:href="#f6_5z" transform="matrix(13,0,0,12.1,376.1,848.7)" />
<use xlink:href="#f2_i" transform="matrix(13,0,0,12.1,141,852.7)" />
<use xlink:href="#f2_i" transform="matrix(13,0,0,12.1,156.5,852.7)" />
<use xlink:href="#f2_2b" transform="matrix(13,0,0,12.1,164.1,852.7)" />
<use xlink:href="#f2_22" transform="matrix(13,0,0,12.1,173.2,852.7)" />
<use xlink:href="#f2_i" transform="matrix(13,0,0,12.1,227.3,852.7)" />
<use xlink:href="#f2_i" transform="matrix(13,0,0,12.1,242.7,852.7)" />
<use xlink:href="#f2_2b" transform="matrix(13,0,0,12.1,250.3,852.7)" />
<use xlink:href="#f2_22" transform="matrix(13,0,0,12.1,259.5,852.7)" />
<use xlink:href="#f2_o" transform="matrix(13,0,0,12.1,330.3,852.7)" />
<use xlink:href="#f2_q" transform="matrix(13,0,0,12.1,363.7,852.7)" />
<use xlink:href="#f2_m" transform="matrix(13,0,0,12.1,399.7,852.7)" />
<use xlink:href="#f3_11" transform="matrix(13,0,0,12.1,88,852.7)" />
<use xlink:href="#f3_12" transform="matrix(13,0,0,12.1,99.1,852.7)" />
<use xlink:href="#f3_1g" transform="matrix(13,0,0,12.1,130.1,852.7)" />
<use xlink:href="#f3_1m" transform="matrix(13,0,0,12.1,143.3,852.7)" />
<use xlink:href="#f3_12" transform="matrix(13,0,0,12.1,186.9,852.7)" />
<use xlink:href="#f3_1g" transform="matrix(13,0,0,12.1,216.3,852.7)" />
<use xlink:href="#f3_1m" transform="matrix(13,0,0,12.1,229.5,852.7)" />
<use xlink:href="#f3_11" transform="matrix(13,0,0,12.1,273.9,852.7)" />
<use xlink:href="#f3_25" transform="matrix(13,0,0,12.1,339.1,852.7)" />
<use xlink:href="#f3_26" transform="matrix(13,0,0,12.1,376.4,852.7)" />
<use xlink:href="#f3_27" transform="matrix(13,0,0,12.1,409.1,852.7)" />
<use xlink:href="#f4_x" transform="matrix(13,0,0,12.1,115.1,852.7)" />
<use xlink:href="#f4_h" transform="matrix(13,0,0,12.1,202.1,852.7)" />
<use xlink:href="#f4_x" transform="matrix(13,0,0,12.1,289.1,852.7)" />
<use xlink:href="#f4_h" transform="matrix(13,0,0,12.1,316.6,852.7)" />
<use xlink:href="#f4_h" transform="matrix(13,0,0,12.1,350.2,852.7)" />
<use xlink:href="#f4_h" transform="matrix(13,0,0,12.1,386,852.7)" />
</g>
</g>
<image preserveAspectRatio="none" x="87" y="815" width="65" height="32" xlink:href="img/18.png" />
<image preserveAspectRatio="none" x="276" y="816" width="74" height="32" xlink:href="img/19.png" />
<image preserveAspectRatio="none" x="190" y="816" width="73" height="32" xlink:href="img/20.png" />
<g clip-path="url(#c17_132)">
<g fill="#000000" >
<use xlink:href="#f6_5z" transform="matrix(13,0,0,12.1,376.3,889.8)" />
<use xlink:href="#f6_5z" transform="matrix(13,0,0,12.1,304.9,891.2)" />
<use xlink:href="#f6_5z" transform="matrix(13,0,0,12.1,340.7,891.2)" />
<use xlink:href="#f2_i" transform="matrix(13,0,0,12.1,114.2,895.2)" />
<use xlink:href="#f2_i" transform="matrix(13,0,0,12.1,129.6,895.2)" />
<use xlink:href="#f2_2b" transform="matrix(13,0,0,12.1,137.2,895.2)" />
<use xlink:href="#f2_22" transform="matrix(13,0,0,12.1,146.4,895.2)" />
<use xlink:href="#f2_i" transform="matrix(13,0,0,12.1,201,895.2)" />
<use xlink:href="#f2_i" transform="matrix(13,0,0,12.1,216.4,895.2)" />
<use xlink:href="#f2_2b" transform="matrix(13,0,0,12.1,224.1,895.2)" />
<use xlink:href="#f2_22" transform="matrix(13,0,0,12.1,233.2,895.2)" />
<use xlink:href="#f2_o" transform="matrix(13,0,0,12.1,328.3,895.2)" />
<use xlink:href="#f2_n" transform="matrix(13,0,0,12.1,364,895.2)" />
<use xlink:href="#f3_11" transform="matrix(13,0,0,12.1,59.4,895.2)" />
<use xlink:href="#f3_13" transform="matrix(13,0,0,12.1,70.6,895.2)" />
<use xlink:href="#f3_1g" transform="matrix(13,0,0,12.1,103.3,895.2)" />
<use xlink:href="#f3_1m" transform="matrix(13,0,0,12.1,116.5,895.2)" />
<use xlink:href="#f3_13" transform="matrix(13,0,0,12.1,158.9,895.2)" />
<use xlink:href="#f3_1g" transform="matrix(13,0,0,12.1,190.1,895.2)" />
<use xlink:href="#f3_1m" transform="matrix(13,0,0,12.1,203.3,895.2)" />
<use xlink:href="#f3_11" transform="matrix(13,0,0,12.1,247.7,895.2)" />
<use xlink:href="#f3_25" transform="matrix(13,0,0,12.1,303.5,895.2)" />
<use xlink:href="#f3_26" transform="matrix(13,0,0,12.1,341.1,895.2)" />
<use xlink:href="#f3_27" transform="matrix(13,0,0,12.1,372.9,895.2)" />
<use xlink:href="#f4_x" transform="matrix(13,0,0,12.1,88.2,895.2)" />
<use xlink:href="#f4_h" transform="matrix(13,0,0,12.1,175.8,895.2)" />
<use xlink:href="#f4_x" transform="matrix(13,0,0,12.1,262.9,895.2)" />
<use xlink:href="#f4_h" transform="matrix(13,0,0,12.1,290.4,895.2)" />
<use xlink:href="#f4_h" transform="matrix(13,0,0,12.1,314.6,895.2)" />
<use xlink:href="#f4_f" transform="matrix(13,0,0,12.1,350.7,895.2)" />
</g>
</g>
<image preserveAspectRatio="none" x="58" y="858" width="68" height="32" xlink:href="img/21.png" />
<image preserveAspectRatio="none" x="164" y="858" width="184" height="32" xlink:href="img/22.png" />
<g clip-path="url(#c18_132)">
<g fill="#000000" >
<use xlink:href="#f6_5z" transform="matrix(13,0,0,12.1,376.8,932.7)" />
<use xlink:href="#f6_5z" transform="matrix(13,0,0,12.1,314.9,934.1)" />
<use xlink:href="#f6_5z" transform="matrix(13,0,0,12.1,341.3,934.1)" />
<use xlink:href="#f2_i" transform="matrix(13,0,0,12.1,114.5,938.1)" />
<use xlink:href="#f2_i" transform="matrix(13,0,0,12.1,129.9,938.1)" />
<use xlink:href="#f2_2b" transform="matrix(13,0,0,12.1,137.5,938.1)" />
<use xlink:href="#f2_22" transform="matrix(13,0,0,12.1,146.7,938.1)" />
<use xlink:href="#f2_i" transform="matrix(13,0,0,12.1,202.7,938.1)" />
<use xlink:href="#f2_i" transform="matrix(13,0,0,12.1,218.2,938.1)" />
<use xlink:href="#f2_2b" transform="matrix(13,0,0,12.1,225.8,938.1)" />
<use xlink:href="#f2_22" transform="matrix(13,0,0,12.1,235,938.1)" />
<use xlink:href="#f2_s" transform="matrix(13,0,0,12.1,305,938.1)" />
<use xlink:href="#f2_n" transform="matrix(13,0,0,12.1,364.6,938.1)" />
<use xlink:href="#f3_11" transform="matrix(13,0,0,12.1,59.4,938.1)" />
<use xlink:href="#f3_14" transform="matrix(13,0,0,12.1,70.6,938.1)" />
<use xlink:href="#f3_1g" transform="matrix(13,0,0,12.1,103.6,938.1)" />
<use xlink:href="#f3_1m" transform="matrix(13,0,0,12.1,116.7,938.1)" />
<use xlink:href="#f3_14" transform="matrix(13,0,0,12.1,160.3,938.1)" />
<use xlink:href="#f3_1g" transform="matrix(13,0,0,12.1,191.8,938.1)" />
<use xlink:href="#f3_1m" transform="matrix(13,0,0,12.1,205,938.1)" />
<use xlink:href="#f3_11" transform="matrix(13,0,0,12.1,249.4,938.1)" />
<use xlink:href="#f3_25" transform="matrix(13,0,0,12.1,313.5,938.1)" />
<use xlink:href="#f3_26" transform="matrix(13,0,0,12.1,341.6,938.1)" />
<use xlink:href="#f3_27" transform="matrix(13,0,0,12.1,373.4,938.1)" />
<use xlink:href="#f4_x" transform="matrix(13,0,0,12.1,88.5,938.1)" />
<use xlink:href="#f4_h" transform="matrix(13,0,0,12.1,177.6,938.1)" />
<use xlink:href="#f4_x" transform="matrix(13,0,0,12.1,264.6,938.1)" />
<use xlink:href="#f4_h" transform="matrix(13,0,0,12.1,292.1,938.1)" />
<use xlink:href="#f4_h" transform="matrix(13,0,0,12.1,324.6,938.1)" />
<use xlink:href="#f4_f" transform="matrix(13,0,0,12.1,351.2,938.1)" />
</g>
</g>
<image preserveAspectRatio="none" x="58" y="901" width="68" height="32" xlink:href="img/23.png" />
<image preserveAspectRatio="none" x="252" y="901" width="73" height="32" xlink:href="img/24.png" />
<image preserveAspectRatio="none" x="165" y="902" width="73" height="32" xlink:href="img/25.png" />
<g fill="#000000" >
<use xlink:href="#f2_1j" transform="matrix(12,0,0,12,55,982.6)" />
<use xlink:href="#f2_2b" transform="matrix(12,0,0,12,65.3,982.6)" />
<use xlink:href="#f2_g" transform="matrix(12,0,0,12,74.5,982.6)" />
<use xlink:href="#f2_2f" transform="matrix(12,0,0,12,83.9,982.6)" />
<use xlink:href="#f2_2b" transform="matrix(12,0,0,12,90.5,982.6)" />
<use xlink:href="#f2_22" transform="matrix(12,0,0,12,104.8,982.6)" />
<use xlink:href="#f2_2b" transform="matrix(12,0,0,12,110.3,982.6)" />
<use xlink:href="#f2_2e" transform="matrix(12,0,0,12,119.8,982.6)" />
</g>
<g clip-path="url(#c19_132)">
<g fill="#000000" >
<use xlink:href="#f3_11" transform="matrix(12.8,0,0,12.4,143,982.7)" />
<use xlink:href="#f3_12" transform="matrix(12.8,0,0,12.4,154.1,982.7)" />
<use xlink:href="#f3_11" transform="matrix(12.8,0,0,12.4,171.3,982.7)" />
<use xlink:href="#f3_13" transform="matrix(12.8,0,0,12.4,182.4,982.7)" />
<use xlink:href="#f3_11" transform="matrix(12.8,0,0,12.4,201.3,982.7)" />
<use xlink:href="#f3_14" transform="matrix(12.8,0,0,12.4,212.4,982.7)" />
<use xlink:href="#f4_4r" transform="matrix(12.8,0,0,12.4,133.7,980.3)" />
<use xlink:href="#f4_57" transform="matrix(12.8,0,0,12.4,226.7,980.3)" />
<use xlink:href="#f4_4t" transform="matrix(12.8,0,0,12.4,133.7,991.6)" />
<use xlink:href="#f4_59" transform="matrix(12.8,0,0,12.4,226.7,991.6)" />
</g>
</g>
<image preserveAspectRatio="none" x="142" y="945" width="122" height="32" xlink:href="img/26.png" />
<path d="M73,1014.7v77.4m94.7,-77.4v77.4" class="g5_132" />
<g clip-path="url(#c20_132)">
<g fill="#000000" >
<use xlink:href="#f2_o" transform="matrix(12.4,0,0,12.3,84.9,1030.3)" />
<use xlink:href="#f2_q" transform="matrix(12.4,0,0,12.3,121.1,1030.3)" />
<use xlink:href="#f2_m" transform="matrix(12.4,0,0,12.3,157.3,1030.3)" />
<use xlink:href="#f2_l" transform="matrix(12.4,0,0,12.3,85.6,1058)" />
<use xlink:href="#f2_o" transform="matrix(12.4,0,0,12.3,116.1,1058)" />
<use xlink:href="#f2_n" transform="matrix(12.4,0,0,12.3,152.3,1058)" />
<use xlink:href="#f2_s" transform="matrix(12.4,0,0,12.3,85,1085.7)" />
<use xlink:href="#f2_l" transform="matrix(12.4,0,0,12.3,121.8,1085.7)" />
<use xlink:href="#f2_n" transform="matrix(12.4,0,0,12.3,152.3,1085.7)" />
<use xlink:href="#f4_h" transform="matrix(12.4,0,0,12.3,75,1030.3)" />
<use xlink:href="#f4_h" transform="matrix(12.4,0,0,12.3,111.1,1030.3)" />
<use xlink:href="#f4_h" transform="matrix(12.4,0,0,12.3,147.3,1030.3)" />
<use xlink:href="#f4_x" transform="matrix(12.4,0,0,12.3,57.9,1058)" />
<use xlink:href="#f4_h" transform="matrix(12.4,0,0,12.3,75.6,1058)" />
<use xlink:href="#f4_h" transform="matrix(12.4,0,0,12.3,75.1,1085.7)" />
<use xlink:href="#f4_h" transform="matrix(12.4,0,0,12.3,111.8,1085.7)" />
</g>
</g>
<g fill="#000000" >
<use xlink:href="#f2_21" transform="matrix(12,0,0,12,55,1126.7)" />
<use xlink:href="#f2_2k" transform="matrix(12,0,0,12,63.1,1126.7)" />
<use xlink:href="#f2_2c" transform="matrix(12,0,0,12,71.9,1126.7)" />
<use xlink:href="#f2_1x" transform="matrix(12,0,0,12,81.1,1126.7)" />
<use xlink:href="#f2_2a" transform="matrix(12,0,0,12,89.5,1126.7)" />
<use xlink:href="#f2_20" transform="matrix(12,0,0,12,98.3,1126.7)" />
<use xlink:href="#f2_1x" transform="matrix(12,0,0,12,112.2,1126.7)" />
<use xlink:href="#f2_28" transform="matrix(12,0,0,12,120.6,1126.7)" />
<use xlink:href="#f2_2b" transform="matrix(12,0,0,12,125,1126.7)" />
<use xlink:href="#f2_2a" transform="matrix(12,0,0,12,134.9,1126.7)" />
<use xlink:href="#f2_23" transform="matrix(12,0,0,12,143.7,1126.7)" />
<use xlink:href="#f2_1i" transform="matrix(12,0,0,12,157.6,1126.7)" />
<use xlink:href="#f2_l" transform="matrix(7.9,0,0,7.9,169.8,1128.2)" />
</g>
<g clip-path="url(#c21_132)">
<g fill="#000000" >
<use xlink:href="#f4_34" transform="matrix(12.5,0,0,12.6,182,1128.3)" />
</g>
</g>
<g fill="#000000" >
<use xlink:href="#f6_4y" transform="matrix(12,0,0,12,55,1162.3)" />
<use xlink:href="#f2_o" transform="matrix(12,0,0,12,69,1162.3)" />
<use xlink:href="#f2_1r" transform="matrix(12,0,0,12,78.1,1162.3)" />
<use xlink:href="#f2_l" transform="matrix(12,0,0,12,84.4,1162.3)" />
<use xlink:href="#f2_m" transform="matrix(12,0,0,12,93.5,1162.3)" />
<use xlink:href="#f2_f" transform="matrix(12,0,0,12,107.4,1162.3)" />
<use xlink:href="#f2_n" transform="matrix(12,0,0,12,122.1,1162.3)" />
<use xlink:href="#f2_1t" transform="matrix(12,0,0,12,131.2,1162.3)" />
<use xlink:href="#f2_f" transform="matrix(12,0,0,12,141.9,1162.3)" />
<use xlink:href="#f2_q" transform="matrix(12,0,0,12,156.9,1162.3)" />
<use xlink:href="#f2_1r" transform="matrix(12,0,0,12,166,1162.3)" />
<use xlink:href="#f6_4y" transform="matrix(12,0,0,12,172.4,1162.3)" />
<use xlink:href="#f2_n" transform="matrix(12,0,0,12,181.6,1162.3)" />
<use xlink:href="#f2_f" transform="matrix(12,0,0,12,195.1,1162.3)" />
<use xlink:href="#f2_m" transform="matrix(12,0,0,12,210.1,1162.3)" />
<use xlink:href="#f2_o" transform="matrix(12,0,0,12,219.3,1162.3)" />
<use xlink:href="#f2_1t" transform="matrix(12,0,0,12,228.5,1162.3)" />
<use xlink:href="#f6_4y" transform="matrix(12,0,0,12,239.1,1162.3)" />
<use xlink:href="#f2_m" transform="matrix(12,0,0,12,253.1,1162.3)" />
<use xlink:href="#f2_1r" transform="matrix(12,0,0,12,261.9,1162.3)" />
<use xlink:href="#f2_l" transform="matrix(12,0,0,12,268.1,1162.3)" />
<use xlink:href="#f2_f" transform="matrix(12,0,0,12,282,1162.3)" />
<use xlink:href="#f2_n" transform="matrix(12,0,0,12,292.3,1162.3)" />
<use xlink:href="#f2_m" transform="matrix(12,0,0,12,301.5,1162.3)" />
<use xlink:href="#f2_1t" transform="matrix(12,0,0,12,310.6,1162.3)" />
<use xlink:href="#f2_x" transform="matrix(12,0,0,12,55,1185)" />
<use xlink:href="#f6_4y" transform="matrix(12,0,0,12,70.1,1185)" />
<use xlink:href="#f2_q" transform="matrix(12,0,0,12,84,1185)" />
<use xlink:href="#f2_k" transform="matrix(12,0,0,12,93.2,1185)" />
<use xlink:href="#f2_f" transform="matrix(12,0,0,12,107.1,1185)" />
<use xlink:href="#f2_l" transform="matrix(12,0,0,12,121.7,1185)" />
<use xlink:href="#f2_m" transform="matrix(12,0,0,12,130.9,1185)" />
<use xlink:href="#f2_q" transform="matrix(12,0,0,12,140.1,1185)" />
<use xlink:href="#f6_4y" transform="matrix(12,0,0,12,154.1,1185)" />
<use xlink:href="#f2_q" transform="matrix(12,0,0,12,167.6,1185)" />
<use xlink:href="#f2_q" transform="matrix(12,0,0,12,176.8,1185)" />
</g>
<path fill-rule="evenodd" d="M37.4,38.1h.7v-.7h-.7v.7Z" class="g6_132" />
<path fill-rule="evenodd" d="M37.4,38.1h.7v-.7h-.7v.7Z" class="g6_132" />
<path fill-rule="evenodd" d="M38.1,38.1H871.5v-.7H38.1v.7Z" class="g6_132" />
<path fill-rule="evenodd" d="M871.5,38.1h.8v-.7h-.8v.7Z" class="g6_132" />
<path fill-rule="evenodd" d="M871.5,38.1h.8v-.7h-.8v.7Z" class="g6_132" />
<path fill-rule="evenodd" d="M37.4,1248.5h.7V38.1h-.7V1248.5Z" class="g6_132" />
<path fill-rule="evenodd" d="M872.3,1248.5h.7V38.1h-.7V1248.5Z" class="g6_132" />
<path fill-rule="evenodd" d="M871.5,1248.5h.8V38.1h-.8V1248.5Z" class="g6_132" />
<path fill-rule="evenodd" d="M37.4,1249.2h.7v-.7h-.7v.7Z" class="g6_132" />
<path fill-rule="evenodd" d="M37.4,1249.2h.7v-.7h-.7v.7Z" class="g6_132" />
<path fill-rule="evenodd" d="M38.1,1249.9H871.5v-.7H38.1v.7Z" class="g6_132" />
<path fill-rule="evenodd" d="M38.1,1249.2H871.5v-.7H38.1v.7Z" class="g6_132" />
<path fill-rule="evenodd" d="M872.3,1249.9h.7v-1.4h-.7v1.4Z" class="g6_132" />
<path fill-rule="evenodd" d="M871.5,1249.9H873v-.7h-1.5v.7Z" class="g6_132" />
<path fill-rule="evenodd" d="M871.5,1249.2h.8v-.7h-.8v.7Z" class="g6_132" />
<path fill-rule="evenodd" d="M871.5,1249.2h.8v-.7h-.8v.7Z" class="g6_132" />
<defs>
<path d="M489,-15c0,0,-99,0,-179,30c0,0,-80,30,-136,91c0,0,-56,61,-85,152c0,0,-30,91,-30,212c0,0,0,123,32,218c0,0,33,96,92,161c0,0,59,65,142,98c0,0,82,34,181,34c0,0,40,0,78,-7c0,0,37,-7,69,-18c0,0,31,-11,57,-25c0,0,25,-14,35,-24c0,0,10,-10,14,-17c0,0,4,-7,6,-17c0,0,2,-11,3,-25c0,0,2,-14,2,-35c0,0,0,-22,-2,-38c0,0,-1,-15,-5,-25c0,0,-4,-10,-9,-14c0,0,-5,-5,-12,-5c0,0,-11,0,-28,13c0,0,-18,13,-45,29c0,0,-27,16,-65,29c0,0,-37,13,-89,13c0,0,-58,0,-103,-23c0,0,-45,-23,-77,-67c0,0,-31,-44,-48,-106c0,0,-16,-61,-16,-139c0,0,0,-85,17,-147c0,0,18,-62,50,-103c0,0,33,-40,79,-60c0,0,45,-19,103,-19c0,0,52,0,90,12c0,0,38,12,65,27c0,0,27,15,45,27c0,0,17,12,27,12c0,0,8,0,12,-3c0,0,4,-3,7,-12c0,0,3,-9,5,-25c0,0,1,-16,1,-43c0,0,0,-18,-1,-31c0,0,-1,-14,-3,-23c0,0,-2,-9,-6,-16c0,0,-4,-7,-12,-15c0,0,-8,-9,-32,-22c0,0,-23,-14,-57,-26C661,13,627,1,583,-6c0,0,-43,-9,-94,-9Z" 
id="f0_j"
transform="scale(0.001,-0.001)" />

<path d="M440,150c0,0,41,0,68,8c0,0,28,9,49,26c0,0,20,16,32,41c0,0,11,25,11,58c0,0,0,33,-11,60c0,0,-11,26,-33,44c0,0,-21,18,-55,28c0,0,-33,9,-87,9H298V150ZM407,567c0,0,42,0,68,10c0,0,25,10,42,28c0,0,16,17,24,41c0,0,9,24,9,50c0,0,0,29,-9,52c0,0,-9,23,-27,39c0,0,-18,15,-45,23c0,0,-27,8,-72,8H298V567ZM164,0c0,0,-25,0,-42,15c0,0,-16,14,-16,47V903c0,0,0,33,16,48c0,0,17,14,42,14H406c0,0,88,0,150,-15c0,0,61,-15,103,-45c0,0,42,-30,65,-77c0,0,22,-46,22,-108c0,0,0,-36,-9,-67c0,0,-9,-31,-26,-56c0,0,-17,-25,-42,-45c0,0,-25,-19,-57,-31c0,0,41,-7,76,-26c0,0,34,-19,60,-48c0,0,26,-30,41,-69c0,0,15,-40,15,-89c0,0,0,-51,-14,-93c0,0,-15,-42,-40,-74c0,0,-25,-32,-59,-55c0,0,-35,-23,-77,-38C614,29,573,14,525,7C525,7,478,0,420,0Z" 
id="f0_i"
transform="scale(0.001,-0.001)" />

<path d="M320,-17c0,0,-50,0,-93,9c0,0,-43,8,-76,19c0,0,-32,11,-54,24C97,35,75,48,65,58c0,0,-10,9,-14,28c0,0,-4,18,-4,52c0,0,0,23,1,39c0,0,2,15,5,25c0,0,4,10,9,14c0,0,6,4,13,4c0,0,11,0,30,-12c0,0,19,-13,49,-28c0,0,30,-15,71,-27c0,0,42,-12,96,-12c0,0,36,0,64,8c0,0,29,9,49,25c0,0,19,15,30,38c0,0,10,23,10,52c0,0,0,33,-18,56c0,0,-18,24,-46,42c0,0,-29,18,-66,34c0,0,-36,16,-75,34c0,0,-39,18,-76,41c0,0,-36,23,-65,54c0,0,-29,32,-47,75c0,0,-17,44,-17,104c0,0,0,70,25,122c0,0,26,53,70,88c0,0,43,34,103,51c0,0,59,18,125,18c0,0,35,0,69,-6c0,0,34,-5,64,-14c0,0,30,-9,53,-20c0,0,23,-11,31,-18c0,0,7,-8,10,-13c0,0,3,-5,4,-14c0,0,2,-8,3,-21c0,0,1,-13,1,-33c0,0,0,-21,-1,-36c0,0,-1,-15,-4,-25c0,0,-3,-9,-7,-14c0,0,-5,-4,-14,-4c0,0,-8,0,-26,10c0,0,-18,10,-44,23c0,0,-26,12,-60,22c0,0,-34,10,-75,10c0,0,-32,0,-56,-8c0,0,-24,-8,-40,-21c0,0,-16,-14,-24,-34c0,0,-8,-19,-8,-41c0,0,0,-32,18,-56c0,0,17,-23,46,-42c0,0,30,-18,67,-34c0,0,38,-16,76,-34c0,0,39,-18,76,-41c0,0,38,-22,67,-54c0,0,29,-32,47,-75c0,0,18,-43,18,-101c0,0,0,-76,-29,-133c0,0,-28,-58,-77,-96C572,60,524,21,459,2c0,0,-65,-19,-139,-19Z" 
id="f0_2n"
transform="scale(0.001,-0.001)" />

<path d="M164,0c0,0,-25,0,-42,15c0,0,-16,14,-16,47V903c0,0,0,33,16,48c0,0,17,14,42,14H645c0,0,7,0,12,-4c0,0,5,-3,9,-13c0,0,4,-9,6,-24c0,0,2,-14,2,-36c0,0,0,-21,-2,-36c0,0,-2,-14,-6,-23c0,0,-4,-9,-9,-13c0,0,-5,-4,-12,-4H301V576H593c0,0,6,0,12,-4c0,0,6,-4,9,-13c0,0,4,-8,6,-23c0,0,2,-14,2,-35c0,0,0,-22,-2,-36c0,0,-2,-14,-6,-23c0,0,-3,-8,-9,-12c0,0,-6,-4,-12,-4H301V154H649c0,0,6,0,12,-5c0,0,5,-4,9,-13c0,0,4,-9,6,-23c0,0,2,-15,2,-36c0,0,0,-22,-2,-36c0,0,-2,-15,-6,-24c0,0,-4,-9,-9,-13c0,0,-6,-4,-12,-4Z" 
id="f0_t"
transform="scale(0.001,-0.001)" />

<path d="M79,297c0,0,-19,0,-27,18c0,0,-8,17,-8,60c0,0,0,41,8,59c0,0,8,17,27,17H389c0,0,9,0,15,-4c0,0,7,-4,11,-13c0,0,5,-9,7,-23c0,0,1,-15,1,-36c0,0,0,-43,-8,-61c0,0,-8,-17,-26,-17Z" 
id="f0_oj"
transform="scale(0.001,-0.001)" />

<path d="M121,-4c0,0,-39,0,-60,2C61,-2,39,0,32,8c0,0,-8,8,-3,24c0,0,4,15,18,41L279,495L64,892c0,0,-14,26,-19,42c0,0,-5,17,4,24c0,0,9,8,32,10c0,0,23,2,65,2c0,0,35,0,56,-2c0,0,20,-1,32,-4c0,0,12,-4,17,-10c0,0,5,-6,9,-15L431,620L595,939c0,0,5,9,10,15c0,0,5,6,16,10c0,0,10,3,29,4c0,0,19,2,53,2c0,0,37,0,59,-2c0,0,22,-2,30,-10c0,0,8,-8,4,-24c0,0,-4,-16,-17,-42L564,497L793,73c0,0,14,-26,18,-41c0,0,4,-16,-5,-24c0,0,-9,-8,-32,-10c0,0,-24,-2,-65,-2c0,0,-36,0,-56,2c0,0,-20,1,-31,3c0,0,-12,4,-17,10c0,0,-5,6,-9,15L414,374L233,26c0,0,-4,-9,-9,-15c0,0,-6,-6,-17,-10c0,0,-12,-2,-32,-3c0,0,-21,-2,-54,-2Z" 
id="f0_3e"
transform="scale(0.001,-0.001)" />

<path d="M204,-4c0,0,-28,0,-47,2c0,0,-19,2,-31,5c0,0,-11,4,-16,10c0,0,-4,6,-4,13V939c0,0,0,7,4,13c0,0,5,6,17,10c0,0,11,3,30,6c0,0,19,2,47,2c0,0,29,0,48,-2c0,0,18,-3,29,-6c0,0,11,-4,16,-10c0,0,5,-6,5,-13V26c0,0,0,-7,-5,-13c0,0,-5,-6,-16,-10c0,0,-11,-3,-29,-5c0,0,-19,-2,-48,-2Z" 
id="f0_1c"
transform="scale(0.001,-0.001)" />

<path d="M127,0c0,0,-16,0,-28,3C99,3,87,6,80,15c0,0,-8,8,-11,25c0,0,-3,16,-3,42c0,0,0,25,2,42c0,0,2,18,8,32c0,0,6,14,15,27c0,0,9,13,24,29L282,390c0,0,50,53,81,95c0,0,30,43,47,79c0,0,17,35,24,65c0,0,6,30,6,57c0,0,0,24,-8,46c0,0,-8,22,-23,39c0,0,-15,16,-38,25c0,0,-23,10,-55,10c0,0,-44,0,-78,-12c0,0,-33,-11,-59,-25c0,0,-26,-13,-43,-25c0,0,-17,-12,-27,-12c0,0,-7,0,-11,5c0,0,-5,4,-8,15c0,0,-3,10,-5,28c0,0,-2,17,-2,42c0,0,0,18,1,29c0,0,1,12,4,20c0,0,2,9,6,15c0,0,3,6,13,15c0,0,9,9,34,23c0,0,25,14,61,27c0,0,37,14,81,23c0,0,44,9,92,9c0,0,75,0,131,-19c0,0,57,-19,94,-53c0,0,37,-34,55,-81c0,0,19,-47,19,-100c0,0,0,-47,-9,-93c0,0,-9,-45,-37,-98c0,0,-29,-52,-80,-116c0,0,-52,-64,-136,-148L299,159H679c0,0,8,0,14,-4c0,0,6,-5,11,-14c0,0,4,-9,7,-25c0,0,2,-15,2,-36c0,0,0,-22,-2,-37c0,0,-2,-15,-6,-25c0,0,-3,-10,-9,-14c0,0,-6,-4,-14,-4Z" 
id="f0_rz"
transform="scale(0.001,-0.001)" />

<path d="M385,138c0,0,29,0,52,9c0,0,22,10,39,28c0,0,17,19,28,47c0,0,11,29,19,66c0,0,7,37,9,84c0,0,3,47,3,104c0,0,0,69,-4,122c0,0,-4,52,-11,91c0,0,-8,39,-20,66c0,0,-12,27,-28,43c0,0,-16,16,-37,22c0,0,-21,7,-47,7c0,0,-44,0,-73,-21c0,0,-28,-21,-45,-64c0,0,-17,-42,-24,-106c0,0,-6,-63,-6,-148c0,0,0,-103,8,-171c0,0,8,-67,26,-107c0,0,17,-40,45,-56c0,0,27,-16,66,-16ZM378,-17c0,0,-99,0,-164,33c0,0,-65,34,-103,98c0,0,-38,64,-54,156c0,0,-15,92,-15,209c0,0,0,115,19,208c0,0,19,94,61,160c0,0,42,65,110,101c0,0,68,35,165,35c0,0,99,0,164,-34c0,0,65,-34,103,-98c0,0,39,-64,53,-156c0,0,15,-92,15,-209c0,0,0,-115,-18,-209c0,0,-19,-93,-61,-159C653,118,611,53,543,17c0,0,-67,-34,-165,-34Z" 
id="f0_rx"
transform="scale(0.001,-0.001)" />

<path d="M142,0c0,0,-6,0,-12,4c0,0,-5,3,-9,12c0,0,-4,9,-6,23c0,0,-3,15,-3,36c0,0,0,21,2,36c0,0,2,14,6,23c0,0,4,9,10,13c0,0,5,5,12,5H322V779L166,693c0,0,-17,-8,-28,-10c0,0,-1,0,-3,0c-4,0,-10,1,-14,5c0,0,-6,6,-8,22c0,0,-2,15,-2,44c0,0,0,18,0,29c0,0,1,12,4,20c0,0,3,8,8,14c0,0,5,5,14,11L345,962c0,0,4,3,9,5c0,0,6,2,15,3c0,0,9,1,23,2c0,0,15,0,38,0c0,0,28,0,46,-1c0,0,17,-1,26,-4c0,0,9,-3,12,-7c0,0,3,-4,3,-11V152H675c0,0,7,0,12,-5c0,0,6,-4,10,-13c0,0,4,-9,6,-23c0,0,2,-15,2,-36c0,0,0,-21,-2,-36c0,0,-3,-14,-7,-23c0,0,-4,-9,-9,-12c0,0,-5,-4,-12,-4Z" 
id="f0_ry"
transform="scale(0.001,-0.001)" />

<path d="M439,356V801h-1L183,356ZM532,-4c0,0,-27,0,-45,2c0,0,-18,2,-29,5c0,0,-11,3,-15,9c0,0,-4,5,-4,13V199H70c0,0,-11,0,-19,3c0,0,-8,3,-14,12c0,0,-5,9,-8,27c0,0,-3,17,-3,46c0,0,0,24,2,42c0,0,1,17,3,31c0,0,3,15,8,27c0,0,5,13,12,27L351,944c0,0,4,7,13,11c0,0,9,5,25,9c0,0,16,3,40,4c0,0,25,2,60,2c0,0,38,0,65,-2c0,0,27,-2,43,-6c0,0,16,-4,23,-10c0,0,8,-6,8,-14V356h85c0,0,12,0,21,-18c0,0,8,-19,8,-61c0,0,0,-38,-8,-58c0,0,-7,-20,-21,-20H628V25c0,0,0,-8,-5,-13c0,0,-4,-6,-15,-9c0,0,-12,-3,-29,-5c0,0,-18,-2,-47,-2Z" 
id="f0_s6"
transform="scale(0.001,-0.001)" />

<path d="M589,371L453,782h-1L317,371ZM106,-4c0,0,-35,0,-54,2C52,-2,32,0,25,8c0,0,-7,9,-5,24c0,0,2,16,11,42L329,931c0,0,4,13,10,21c0,0,6,7,19,12c0,0,13,4,36,5c0,0,23,1,61,1c0,0,44,0,71,-1c0,0,26,-1,40,-5c0,0,15,-5,21,-13c0,0,6,-8,11,-22L896,73c0,0,9,-27,11,-43c0,0,3,-15,-6,-23c0,0,-8,-7,-29,-9c0,0,-21,-2,-57,-2c0,0,-38,0,-59,1c0,0,-22,1,-33,4c0,0,-11,3,-16,9c0,0,-4,6,-7,16L635,220H272L211,31c0,0,-2,-11,-7,-18c0,0,-5,-7,-16,-11c0,0,-11,-3,-31,-4c0,0,-19,-2,-51,-2Z" 
id="f0_5"
transform="scale(0.001,-0.001)" />

<path d="M198,-4c0,0,-27,0,-45,2c0,0,-18,2,-28,5c0,0,-11,4,-15,10c0,0,-4,6,-4,13V887c0,0,0,38,20,58c0,0,20,20,53,20H308c0,0,34,0,59,-6c0,0,24,-5,42,-18c0,0,18,-13,30,-35c0,0,12,-21,21,-52L669,279h3L889,852c0,0,9,32,21,53c0,0,11,22,27,35c0,0,15,14,36,19c0,0,21,6,48,6h132c0,0,21,0,35,-5c0,0,15,-5,24,-15c0,0,9,-11,14,-25c0,0,5,-15,5,-33V26c0,0,0,-7,-4,-13c0,0,-4,-6,-15,-10c0,0,-11,-3,-29,-5c0,0,-18,-2,-45,-2c0,0,-27,0,-45,2c0,0,-18,2,-28,5c0,0,-11,4,-15,10c0,0,-5,6,-5,13V813h-1L764,27c0,0,-3,-10,-10,-16c0,0,-6,-6,-18,-10c0,0,-12,-3,-29,-4c0,0,-18,-1,-44,-1c0,0,-25,0,-43,2c0,0,-18,2,-29,5c0,0,-12,4,-19,10c0,0,-6,6,-9,14L293,813h-2V26c0,0,0,-7,-4,-13c0,0,-4,-6,-15,-10c0,0,-11,-3,-29,-5c0,0,-17,-2,-45,-2Z" 
id="f0_1x"
transform="scale(0.001,-0.001)" />

<path d="M193,-4c0,0,-26,0,-43,2c0,0,-18,2,-27,6c0,0,-10,4,-14,10c0,0,-3,6,-3,13V895c0,0,0,35,20,53c0,0,21,17,50,17H282c0,0,28,0,47,-5c0,0,20,-5,35,-16c0,0,15,-11,29,-31c0,0,13,-20,27,-49L608,511c0,0,17,-32,33,-63c0,0,16,-31,31,-62c0,0,14,-31,29,-60c0,0,14,-30,27,-60h1c0,0,-2,52,-3,109c0,0,-1,57,-1,108V936c0,0,0,7,4,13c0,0,5,6,15,11c0,0,10,4,28,6c0,0,17,2,44,2c0,0,25,0,42,-2c0,0,17,-2,27,-6c0,0,9,-5,13,-11c0,0,4,-6,4,-13V68c0,0,0,-17,-6,-30c0,0,-6,-14,-17,-23C879,15,869,6,856,2c0,0,-14,-3,-28,-3H744c0,0,-26,0,-45,4c0,0,-19,5,-35,19c0,0,-16,14,-31,38c0,0,-15,23,-34,60L359,572c0,0,-21,40,-43,86c0,0,-21,47,-38,91h-2c0,0,3,-54,5,-107c0,0,2,-53,2,-110V27c0,0,0,-7,-5,-13c0,0,-4,-6,-14,-10c0,0,-10,-4,-27,-6c0,0,-17,-2,-44,-2Z" 
id="f0_1y"
transform="scale(0.001,-0.001)" />

<path d="M378,-4c0,0,-28,0,-47,2c0,0,-19,2,-31,5c0,0,-11,4,-16,10c0,0,-4,6,-4,13V805H38c0,0,-8,0,-13,4c0,0,-5,5,-9,14c0,0,-3,9,-5,25c0,0,-2,15,-2,37c0,0,0,22,2,38c0,0,2,15,5,25c0,0,4,9,9,13c0,0,5,4,13,4H718c0,0,7,0,12,-4c0,0,6,-4,10,-13c0,0,3,-10,5,-25c0,0,2,-16,2,-38c0,0,0,-22,-2,-37c0,0,-2,-16,-5,-25c0,0,-4,-9,-10,-14c0,0,-5,-4,-12,-4H476V26c0,0,0,-7,-5,-13c0,0,-5,-6,-16,-10c0,0,-11,-3,-30,-5c0,0,-19,-2,-47,-2Z" 
id="f0_2t"
transform="scale(0.001,-0.001)" />

<path d="M514,145c0,0,72,0,121,27c0,0,48,26,78,73c0,0,30,46,42,107c0,0,13,62,13,131c0,0,0,76,-12,139c0,0,-12,62,-41,106c0,0,-29,45,-76,69c0,0,-48,24,-120,24c0,0,-72,0,-120,-27c0,0,-49,-27,-79,-73c0,0,-29,-45,-42,-106c0,0,-12,-61,-12,-129c0,0,0,-79,12,-142c0,0,12,-63,40,-108c0,0,28,-44,76,-68c0,0,48,-23,120,-23ZM508,-17c0,0,-113,0,-196,29c0,0,-84,29,-140,90c0,0,-56,60,-84,154c0,0,-28,93,-28,221c0,0,0,117,29,210c0,0,30,94,89,160c0,0,59,65,146,101c0,0,87,35,202,35c0,0,110,0,194,-29c0,0,84,-30,140,-90c0,0,56,-60,85,-153c0,0,29,-92,29,-217c0,0,0,-120,-30,-215c0,0,-30,-95,-89,-161C855,118,796,52,709,17c0,0,-87,-34,-201,-34Z" 
id="f0_24"
transform="scale(0.001,-0.001)" />

<path d="M299,0V777H162l36,173H508V0Z" 
id="f1_l"
transform="scale(0.001,-0.001)" />

<path d="M441,402V711h-3L193,402ZM441,0V227H19V404L457,952H650V402h90V227H650V0Z" 
id="f1_o"
transform="scale(0.001,-0.001)" />

<path d="M44,-281L425,1053H537L156,-281Z" 
id="f1_j"
transform="scale(0.001,-0.001)" />

<path d="M75,0L400,413c0,0,71,91,101,149c0,0,30,58,30,109c0,0,0,55,-36,91c0,0,-36,36,-91,36c0,0,-63,0,-91,-45c0,0,-28,-46,-34,-142H67c0,0,0,173,102,268c0,0,102,95,253,95c0,0,140,0,229,-82c0,0,89,-82,89,-209c0,0,0,-125,-104,-276L580,324c0,0,-34,-50,-85,-114L468,178H740V0Z" 
id="f1_m"
transform="scale(0.001,-0.001)" />

<path d="M340,-13c0,0,-73,0,-129,20C211,7,155,27,86,74l22,217c0,0,156,-103,245,-103c0,0,64,0,112,45c0,0,47,46,47,107c0,0,0,68,-47,113c0,0,-48,46,-121,46c0,0,-85,0,-184,-42l48,495H681V777H393L382,665c0,0,163,0,251,-95c0,0,88,-95,88,-224c0,0,0,-146,-113,-253C608,93,494,-13,340,-13Z" 
id="f1_p"
transform="scale(0.001,-0.001)" />

<path d="M134,0V40L339,60V876L137,804v39l292,166h39V60L672,40V0Z" 
id="f2_l"
transform="scale(0.001,-0.001)" />

<path d="M249,-14c0,0,-71,0,-107,42c0,0,-35,42,-35,119V639H15v33l93,29l76,159h47V701H391V639H231V161c0,0,0,-48,22,-73c0,0,22,-24,57,-24c0,0,44,0,106,12V26C416,26,389,8,340,-2c0,0,-49,-12,-91,-12Z" 
id="f2_2g"
transform="scale(0.001,-0.001)" />

<path d="M284,67c0,0,51,0,88,12c0,0,37,12,74,30V358l-98,-3c0,0,-100,-4,-135,-39c0,0,-35,-35,-35,-117c0,0,0,-132,106,-132ZM233,-14c0,0,-179,0,-179,208c0,0,0,70,27,116c0,0,27,46,87,70c0,0,60,24,173,27l105,3V519c0,0,0,72,-26,107c0,0,-27,34,-82,34c0,0,-75,0,-137,-35L176,538H134V691c0,0,121,26,213,26c0,0,115,0,169,-47c0,0,54,-47,54,-144V52L657,33V0H465L451,70c0,0,-85,-84,-218,-84Z" 
id="f2_1x"
transform="scale(0.001,-0.001)" />

<path d="M439,0V33l93,19V500c0,0,0,62,-30,97c0,0,-31,36,-94,36c0,0,-67,0,-165,-22V52L338,33V0H35V33l84,19V649L35,668v33H235l7,-57c0,0,57,33,122,54c0,0,65,22,108,22c0,0,91,0,137,-53c0,0,47,-53,47,-154V52L741,33V0Z" 
id="f2_2a"
transform="scale(0.001,-0.001)" />

<path d="M67,0V109L206,235c0,0,133,118,196,190c0,0,63,72,90,149c0,0,27,77,27,177c0,0,0,97,-44,148c0,0,-44,50,-144,50c0,0,-39,0,-81,-10c0,0,-42,-11,-74,-29L150,787H101V980c0,0,135,32,230,32c0,0,164,0,247,-68c0,0,82,-69,82,-193c0,0,0,-84,-32,-158c0,0,-33,-75,-100,-148c0,0,-67,-74,-222,-206c0,0,-67,-57,-141,-125H680V0Z" 
id="f2_m"
transform="scale(0.001,-0.001)" />

<path d="M191,-20c0,0,-39,0,-65,25c0,0,-25,27,-25,64c0,0,0,38,26,64c0,0,26,26,64,26c0,0,38,0,64,-26c0,0,26,-26,26,-64c0,0,0,-37,-25,-64c0,0,-26,-25,-65,-25Z" 
id="f2_i"
transform="scale(0.001,-0.001)" />

<path d="M-6,0c0,0,-12,10,-12,32c0,0,0,21,23,51c0,0,23,31,79,82L287,354L159,649L79,668l6,33H270L378,434l93,88c0,0,47,46,67,72c0,0,19,26,19,44c0,0,0,8,-6,13c0,0,-7,6,-38,17l6,33H651c0,0,16,-12,16,-32c0,0,0,-44,-103,-142L404,377L548,49L634,33L628,0H437L313,298L185,176c0,0,-41,-40,-60,-65c0,0,-19,-26,-19,-48c0,0,0,-21,31,-29L131,0Z" 
id="f3_2k"
transform="scale(0.001,-0.001)" />

<path d="M188,355c0,0,148,11,236,69c0,0,89,58,89,143c0,0,0,41,-23,68c0,0,-22,27,-66,27c0,0,-52,0,-101,-43c0,0,-49,-42,-85,-114c0,0,-36,-71,-50,-150ZM298,-14c0,0,-120,0,-186,67c0,0,-65,67,-65,193c0,0,0,125,53,232c0,0,52,108,145,175c0,0,94,67,196,67c0,0,92,0,147,-42c0,0,56,-43,56,-111c0,0,0,-102,-126,-173c0,0,-125,-72,-336,-86l-3,-54c0,0,0,-95,40,-143c0,0,40,-47,118,-47c0,0,67,0,124,22c0,0,57,23,106,52l22,-32c0,0,-69,-58,-146,-89c0,0,-76,-31,-145,-31Z" 
id="f3_21"
transform="scale(0.001,-0.001)" />

<path d="M301,78c0,0,41,0,90,27c0,0,49,28,95,77l81,442c0,0,-26,18,-54,27c0,0,-27,10,-67,10c0,0,-70,0,-131,-55c0,0,-61,-55,-99,-152c0,0,-37,-97,-37,-201c0,0,0,-79,33,-127c0,0,33,-48,89,-48ZM245,-14c0,0,-91,0,-145,68c0,0,-54,69,-54,183c0,0,0,128,55,240c0,0,55,112,150,177c0,0,96,66,210,66c0,0,70,0,123,-18c0,0,3,36,51,306l-115,18l6,34H768L589,52L673,33L667,0H454l22,117C476,117,350,-14,245,-14Z" 
id="f3_20"
transform="scale(0.001,-0.001)" />

<path d="M200,-14c0,0,-59,0,-93,35c0,0,-34,36,-34,100c0,0,0,22,4,51c0,0,4,30,82,467H67l6,33l99,29L275,860h47L295,701H455L443,639H283L210,230c0,0,-13,-69,-13,-99c0,0,0,-34,17,-51c0,0,17,-16,43,-16c0,0,54,0,113,21L386,50c0,0,-92,-64,-186,-64Z" 
id="f3_2g"
transform="scale(0.001,-0.001)" />

<path d="M0,356v74H784V356Z" 
id="f4_h"
transform="scale(0.001,-0.001)" />

<path d="M83,0C83,0,48,0,24,24C24,24,0,49,0,83c0,0,0,34,24,58c0,0,24,24,59,24c0,0,34,0,58,-24c0,0,24,-24,24,-58c0,0,0,-34,-24,-59C141,24,117,0,83,0ZM695,0c0,0,-34,0,-58,24c0,0,-25,25,-25,59c0,0,0,34,25,58c0,0,24,24,58,24c0,0,34,0,58,-24c0,0,24,-24,24,-58c0,0,0,-34,-24,-59C753,24,729,0,695,0ZM388,594c0,0,-34,0,-59,23c0,0,-24,24,-24,59c0,0,0,34,24,58c0,0,25,25,59,25c0,0,34,0,58,-25c0,0,24,-24,24,-58c0,0,0,-35,-24,-59c0,0,-24,-23,-58,-23Z" 
id="f4_1s"
transform="scale(0.001,-0.001)" />

<path d="M0,214v74H784V214ZM0,494v72H784V494Z" 
id="f4_x"
transform="scale(0.001,-0.001)" />

<path d="M355,0V355H0v72H355V784h72V427H782V355H427V0Z" 
id="f4_f"
transform="scale(0.001,-0.001)" />

<path d="M88,-163c0,0,-39,0,-63,25c0,0,-25,26,-25,65c0,0,0,34,19,54c0,0,19,19,48,19c0,0,30,0,51,-23c0,0,22,-24,37,-24c0,0,12,0,21,11c0,0,8,10,8,35c0,0,0,30,-7,88c0,0,-27,235,-27,620c0,0,13,411,17,446c0,0,17,139,60,188c0,0,43,48,98,48c0,0,37,0,65,-25c0,0,28,-25,28,-54c0,0,0,-35,-19,-57c0,0,-20,-21,-49,-21c0,0,-26,0,-57,27c0,0,-17,15,-30,15c0,0,-12,0,-21,-11c0,0,-8,-11,-8,-37c0,0,0,-31,6,-108c0,0,28,-306,28,-496c0,0,0,-50,-12,-439c0,0,-6,-219,-67,-296c0,0,-41,-50,-101,-50Z" 
id="f4_50"
transform="scale(0.001,-0.001)" />

<path d="M460,-325c0,0,-148,79,-231,172c0,0,-84,93,-123,217c0,0,-39,126,-39,304c0,0,0,178,39,303c0,0,39,125,122,217c0,0,82,93,232,172V997c0,0,-91,-52,-145,-134c0,0,-54,-81,-79,-190c0,0,-25,-109,-25,-305c0,0,0,-194,26,-309c0,0,26,-114,82,-193c0,0,56,-79,141,-128v-63Z" 
id="f2_c"
transform="scale(0.001,-0.001)" />

<path d="M49,-325v63c0,0,85,49,140,128c0,0,56,79,83,194c0,0,26,115,26,308c0,0,0,196,-25,305c0,0,-25,109,-79,190c0,0,-54,82,-145,134v63c0,0,149,-80,232,-172c0,0,83,-92,122,-217c0,0,39,-125,39,-303c0,0,0,-177,-39,-303c0,0,-39,-125,-122,-217c0,0,-83,-93,-232,-173Z" 
id="f2_d"
transform="scale(0.001,-0.001)" />

<path d="M521,-14c0,0,-205,0,-320,107C201,93,85,200,85,390c0,0,0,185,77,326c0,0,77,142,220,219c0,0,142,76,324,76c0,0,158,0,327,-38L1000,755H951V884c0,0,-46,32,-112,50c0,0,-65,17,-137,17c0,0,-135,0,-242,-72c0,0,-107,-72,-166,-203c0,0,-60,-132,-60,-301c0,0,0,-160,78,-244c0,0,78,-84,222,-84c0,0,85,0,166,25c0,0,82,26,133,65l53,149h49L889,52C889,52,803,20,705,3c0,0,-99,-17,-184,-17Z" 
id="f3_13"
transform="scale(0.001,-0.001)" />

<path d="M410,-14c0,0,-80,0,-162,14c0,0,-81,14,-144,38V270h48L178,134c0,0,28,-35,95,-62c0,0,68,-27,134,-27c0,0,104,0,163,53c0,0,58,54,58,148c0,0,0,54,-23,89c0,0,-22,35,-59,59c0,0,-37,24,-84,41c0,0,-47,17,-97,34c0,0,-49,17,-96,38c0,0,-47,21,-84,53c0,0,-37,32,-60,79c0,0,-23,48,-23,117c0,0,0,119,90,187c0,0,89,68,248,68c0,0,121,0,263,-32V771H654L628,893c0,0,-76,55,-188,55c0,0,-100,0,-156,-40c0,0,-56,-41,-56,-112c0,0,0,-49,22,-81c0,0,23,-32,60,-55c0,0,37,-22,84,-39c0,0,48,-16,97,-34c0,0,50,-17,97,-39c0,0,48,-22,85,-56c0,0,36,-34,59,-83c0,0,23,-49,23,-120c0,0,0,-145,-89,-224c0,0,-89,-79,-256,-79Z" 
id="f2_1j"
transform="scale(0.001,-0.001)" />

<path d="M289,-14c0,0,-179,0,-179,205V649L20,668v33H233V200c0,0,0,-128,120,-128c0,0,92,0,173,23V649L420,668v33H649V52L738,33V0H533l-6,57C527,57,474,28,405,7c0,0,-69,-21,-116,-21Z" 
id="f2_2h"
transform="scale(0.001,-0.001)" />

<path d="M376,50c0,0,103,0,149,80c0,0,46,81,46,240c0,0,0,137,-47,204c0,0,-48,67,-148,67c0,0,-44,0,-87,-7c0,0,-44,-8,-63,-17V62c0,0,63,-12,150,-12Zm3,-64c0,0,-64,0,-141,14c0,0,-78,14,-136,37v971L0,1026v34H226V809c0,0,0,-40,-4,-148c0,0,74,59,188,59c0,0,143,0,219,-87c0,0,77,-87,77,-263c0,0,0,-189,-84,-287c0,0,-84,-97,-243,-97Z" 
id="f2_1y"
transform="scale(0.001,-0.001)" />

<path d="M278,-14c0,0,-52,0,-115,11c0,0,-63,10,-99,23V193H98L134,95c0,0,56,-50,146,-50c0,0,144,0,144,123c0,0,0,91,-114,130l-66,21c0,0,-75,25,-110,50c0,0,-34,26,-53,63c0,0,-18,36,-18,89c0,0,0,92,63,145c0,0,63,54,170,54c0,0,77,0,193,-23V544H454l-32,81c0,0,-39,35,-124,35c0,0,-61,0,-92,-30c0,0,-32,-30,-32,-80c0,0,0,-43,29,-72c0,0,28,-29,86,-48c0,0,110,-38,144,-55c0,0,33,-17,57,-42c0,0,23,-25,36,-57c0,0,13,-32,13,-79c0,0,0,-104,-66,-158c0,0,-66,-53,-195,-53Z" 
id="f2_2f"
transform="scale(0.001,-0.001)" />

<path d="M32,0V33L151,52V649L52,668v33H275V52L395,33V0ZM201,850c0,0,-32,0,-56,24c0,0,-24,24,-24,56c0,0,0,34,24,58c0,0,24,24,56,24c0,0,34,0,58,-24c0,0,24,-24,24,-58c0,0,0,-32,-24,-56c0,0,-24,-24,-58,-24Z" 
id="f2_25"
transform="scale(0.001,-0.001)" />

<path d="M359,-270c0,0,124,0,192,46c0,0,67,47,67,129c0,0,0,43,-26,67c0,0,-26,24,-79,24H242c0,0,-32,-27,-51,-69c0,0,-20,-41,-20,-77c0,0,0,-64,46,-92c0,0,46,-28,142,-28Zm11,561c0,0,81,0,115,47c0,0,34,47,34,141c0,0,0,100,-35,142c0,0,-35,42,-113,42c0,0,-78,0,-114,-43c0,0,-37,-42,-37,-141c0,0,0,-98,36,-143c0,0,36,-45,114,-45ZM359,-329c0,0,-143,0,-218,44c0,0,-75,43,-75,125c0,0,0,39,27,78c0,0,26,38,98,89c0,0,-43,14,-72,48c0,0,-29,35,-29,74L208,262c0,0,-118,55,-118,217c0,0,0,115,73,178c0,0,73,63,211,63c0,0,28,0,71,-6c0,0,44,-6,67,-13l165,83l26,-32L599,644c0,0,50,-56,50,-165c0,0,0,-120,-72,-182c0,0,-73,-62,-208,-62c0,0,-62,0,-114,11L208,148c0,0,2,-13,29,-24c0,0,27,-12,67,-12H512c0,0,113,0,168,-49c0,0,55,-49,55,-134c0,0,0,-79,-44,-137c0,0,-43,-58,-128,-90c0,0,-84,-31,-204,-31Z" 
id="f2_23"
transform="scale(0.001,-0.001)" />

<path d="M-15,-329c0,0,-61,0,-112,13l28,152h34l12,-72c0,0,18,-17,60,-17c0,0,100,0,212,202L253,9L116,649L33,668l6,33H230L338,155L513,458c0,0,48,83,48,144c0,0,0,27,-16,44c0,0,-15,16,-33,22l6,33H659c0,0,20,-17,20,-47c0,0,0,-59,-62,-164L322,-7c0,0,-86,-145,-135,-205c0,0,-50,-61,-98,-89c0,0,-49,-28,-104,-28Z" 
id="f3_2l"
transform="scale(0.001,-0.001)" />

<path d="M64,0V141c0,0,64,68,119,123c0,0,119,118,174,185c0,0,56,68,81,140c0,0,26,72,26,165c0,0,0,81,-40,131c0,0,-39,50,-105,50c0,0,-46,0,-74,-10c0,0,-27,-10,-50,-29L163,751H98V979c0,0,59,13,116,23c0,0,58,9,125,9c0,0,165,0,252,-68c0,0,88,-68,88,-193c0,0,0,-78,-26,-142c0,0,-26,-64,-83,-124c0,0,-56,-61,-224,-197c0,0,-64,-52,-139,-119H698V0Z" 
id="f5_m"
transform="scale(0.001,-0.001)" />

<path d="M379,60c0,0,55,0,82,103c0,0,26,104,26,342c0,0,0,233,-26,335c0,0,-26,102,-82,102c0,0,-55,0,-79,-99c0,0,-23,-99,-23,-338c0,0,0,-244,24,-345c0,0,24,-100,78,-100Zm-2,-74c0,0,-158,0,-238,132c0,0,-81,133,-81,386c0,0,0,249,81,380c0,0,80,132,244,132c0,0,159,0,241,-130c0,0,82,-130,82,-382c0,0,0,-518,-329,-518Z" 
id="f5_k"
transform="scale(0.001,-0.001)" />

<path d="M191,-20c0,0,-51,0,-88,34c0,0,-36,36,-36,88c0,0,0,52,36,88c0,0,36,36,88,36c0,0,51,0,88,-36c0,0,36,-36,36,-88c0,0,0,-51,-36,-87c0,0,-36,-35,-88,-35Z" 
id="f5_i"
transform="scale(0.001,-0.001)" />

<path d="M442,0V33l93,19V504c0,0,0,129,-124,129c0,0,-70,0,-168,-22V52L338,33V0H31V33l88,19v956L15,1026v34H243V756c0,0,0,-77,-5,-112c0,0,54,31,122,53c0,0,68,23,115,23c0,0,91,0,137,-53c0,0,47,-53,47,-154V52L744,33V0Z" 
id="f2_24"
transform="scale(0.001,-0.001)" />

<path d="M377,45c0,0,99,0,147,73c0,0,47,73,47,237c0,0,0,161,-47,233c0,0,-47,72,-147,72c0,0,-97,0,-141,-69c0,0,-44,-69,-44,-236c0,0,0,-169,45,-240c0,0,44,-70,140,-70Zm0,-59c0,0,-158,0,-238,94c0,0,-81,95,-81,274c0,0,0,178,81,272c0,0,80,94,244,94c0,0,160,0,241,-92c0,0,82,-92,82,-274c0,0,0,-368,-329,-368Z" 
id="f2_2b"
transform="scale(0.001,-0.001)" />

<path d="M327,-14L84,649L1,668v33H335V668L219,648L385,174L554,632h63L786,171L944,649L830,668v33h267V668l-78,-16L784,-14H726L553,448L382,-14Z" 
id="f2_2j"
transform="scale(0.001,-0.001)" />

<path d="M495,413c0,0,0,133,-34,190c0,0,-34,57,-105,57c0,0,-78,0,-119,-63c0,0,-42,-62,-42,-184ZM374,-14c0,0,-163,0,-239,87c0,0,-75,88,-75,283c0,0,0,183,77,273c0,0,76,91,219,91c0,0,269,0,269,-306V353H194V340c0,0,0,-103,23,-160c0,0,22,-57,70,-87c0,0,47,-29,124,-29c0,0,40,0,96,6c0,0,55,7,91,15V43C598,43,562,20,500,3c0,0,-61,-17,-126,-17Z" 
id="f2_21"
transform="scale(0.001,-0.001)" />

<path d="M64,0V34L168,59V639H47v36l121,29v49c0,0,0,155,61,239c0,0,62,84,173,84c0,0,58,0,107,-15V908H472l-33,92c0,0,-26,16,-62,16c0,0,-47,0,-66,-42c0,0,-19,-42,-19,-157V701H478V639H292V59L443,34V0Z" 
id="f2_22"
transform="scale(0.001,-0.001)" />

<path d="M31,0V33l88,19V649L31,668v33H235l7,-87c0,0,44,37,121,71c0,0,76,35,121,35h11V530H463l-43,82c0,0,-37,0,-88,-10c0,0,-52,-10,-89,-26V52L363,33V0Z" 
id="f2_2e"
transform="scale(0.001,-0.001)" />

<path d="M382,45c0,0,188,0,188,314c0,0,0,143,-47,213c0,0,-46,69,-141,69c0,0,-87,0,-146,-24V58c0,0,67,-13,146,-13ZM25,-325v35l88,18V649L34,668v33H231l1,-41c0,0,31,27,84,43c0,0,53,17,107,17c0,0,134,0,208,-94c0,0,73,-93,73,-267c0,0,0,-178,-80,-276c0,0,-80,-97,-232,-97c0,0,-84,0,-160,16c0,0,4,-53,4,-84V-272l123,-18v-35Z" 
id="f2_2c"
transform="scale(0.001,-0.001)" />

<path d="M681,416L504,902L333,416ZM669,0V40L803,60L704,348H310L210,60L344,40V0H15V40L128,60l341,949H611L965,60L1092,40V0Z" 
id="f2_11"
transform="scale(0.001,-0.001)" />

<path d="M58,-234v58c0,0,131,42,131,125c0,0,0,15,-11,27c0,0,-11,12,-38,25C140,1,89,27,89,75c0,0,0,40,25,61c0,0,26,21,65,21c0,0,48,0,77,-34c0,0,30,-34,30,-86c0,0,0,-101,-60,-170c0,0,-59,-69,-168,-101Z" 
id="f2_g"
transform="scale(0.001,-0.001)" />

<path d="M536,63c0,0,127,0,191,54c0,0,63,54,63,168c0,0,0,105,-70,154c0,0,-70,49,-225,49H316V67c0,0,103,-4,220,-4ZM480,555c0,0,121,0,178,48c0,0,57,48,57,155c0,0,0,91,-58,133c0,0,-57,42,-186,42H316V555ZM554,-4L235,0H44V40L172,60V941L44,960v40H501c0,0,191,0,279,-56c0,0,88,-56,88,-179c0,0,0,-88,-55,-149c0,0,-54,-62,-151,-83c0,0,135,-14,209,-79c0,0,73,-65,73,-166c0,0,0,-144,-99,-219C845,69,745,-4,554,-4Z" 
id="f2_12"
transform="scale(0.001,-0.001)" />

<path d="M577,-14c0,0,-243,0,-379,132C198,118,63,250,63,488c0,0,0,258,130,391c0,0,131,132,387,132c0,0,156,0,335,-38l5,-218H871L848,884c0,0,-52,32,-121,50c0,0,-69,17,-141,17c0,0,-191,0,-279,-112c0,0,-88,-113,-88,-349c0,0,0,-217,92,-332c0,0,92,-115,268,-115c0,0,85,0,160,20c0,0,76,21,120,55l27,149h49L930,32c0,0,-164,-46,-353,-46Z" 
id="f2_13"
transform="scale(0.001,-0.001)" />

<path d="M383,64c0,0,85,0,152,28V645c0,0,-67,13,-152,13c0,0,-194,0,-194,-314c0,0,0,-141,48,-211c0,0,48,-69,146,-69ZM342,-14c0,0,-287,0,-287,358c0,0,0,184,82,280c0,0,81,96,239,96c0,0,81,0,163,-18c0,0,-4,25,-4,124v182l-118,18v34H659V52L745,33V0H548l-9,52c0,0,-84,-66,-197,-66Z" 
id="f2_20"
transform="scale(0.001,-0.001)" />

<path d="M529,65c0,0,183,0,270,108c0,0,87,108,87,334c0,0,0,210,-113,318c0,0,-113,108,-322,108H316V71c0,0,90,-6,213,-6Zm0,-67L172,0H44V40L172,60V941L44,960v40H498c0,0,277,0,411,-123c0,0,133,-124,133,-371c0,0,0,-251,-129,-380C913,126,785,-2,529,-2Z" 
id="f2_14"
transform="scale(0.001,-0.001)" />

<path d="M360,-14L72,649L0,668v33H327V668L216,648L420,164L615,649L504,668v33H764V668L697,652L416,-14Z" 
id="f2_2i"
transform="scale(0.001,-0.001)" />

<path d="M399,-14c0,0,-341,0,-341,370c0,0,0,175,87,269c0,0,87,95,249,95c0,0,101,0,220,-23V501H573L541,625c0,0,-62,35,-149,35c0,0,-200,0,-200,-304c0,0,0,-158,61,-225c0,0,61,-67,189,-67c0,0,109,0,189,24V43C631,43,595,16,530,1c0,0,-64,-15,-131,-15Z" 
id="f2_1z"
transform="scale(0.001,-0.001)" />

<path d="M465,786H442L239,946L67,786H45l141,248H324L465,786Z" 
id="f6_5z"
transform="scale(0.001,-0.001)" />

<path d="M476,327V830h-4L114,327ZM476,0V220H30v99l488,686h86V327H740V220H604V0Z" 
id="f2_o"
transform="scale(0.001,-0.001)" />

<path d="M350,-14c0,0,-142,0,-253,31L89,228h49L172,87c0,0,32,-18,78,-29c0,0,46,-11,88,-11c0,0,118,0,173,56c0,0,56,55,56,187c0,0,0,93,-24,140c0,0,-24,47,-76,70c0,0,-52,22,-140,22c0,0,-68,0,-133,-18H122v496H630V886H189V567c0,0,81,18,173,18c0,0,173,0,258,-71c0,0,84,-71,84,-216c0,0,0,-151,-92,-232c0,0,-91,-80,-262,-80Z" 
id="f2_p"
transform="scale(0.001,-0.001)" />

<path d="M350,-14c0,0,-142,0,-269,31L73,228h49L156,87c0,0,29,-16,82,-28c0,0,54,-12,100,-12c0,0,117,0,173,54c0,0,56,53,56,178c0,0,0,99,-52,150c0,0,-51,51,-159,56l-107,6v61l107,7c0,0,84,5,124,52c0,0,41,48,41,145c0,0,0,101,-44,147c0,0,-44,45,-139,45c0,0,-40,0,-83,-10c0,0,-43,-11,-76,-29L153,786H104V979c0,0,74,19,127,26c0,0,54,6,107,6c0,0,321,0,321,-246c0,0,0,-104,-57,-165c0,0,-57,-62,-162,-77c0,0,136,-16,200,-78c0,0,64,-62,64,-173c0,0,0,-135,-92,-211c0,0,-93,-75,-262,-75Z" 
id="f2_n"
transform="scale(0.001,-0.001)" />

<path d="M370,468c0,0,96,0,194,40c0,0,0,229,-45,336c0,0,-45,107,-146,107c0,0,-187,0,-187,-259c0,0,0,-115,45,-169c0,0,45,-55,139,-55ZM312,-14c0,0,-122,0,-223,25V184h48L163,76c0,0,24,-11,65,-20c0,0,40,-9,81,-9c0,0,119,0,183,105c0,0,65,104,71,307c0,0,-113,-62,-230,-62c0,0,-132,0,-208,79c0,0,-76,78,-76,219c0,0,0,151,85,233c0,0,84,83,237,83c0,0,171,0,251,-123c0,0,79,-123,79,-385c0,0,0,-252,-102,-385C599,118,497,-14,312,-14Z" 
id="f2_t"
transform="scale(0.001,-0.001)" />

<path d="M85,0L199,649l-96,19l6,33H332L218,52L335,33L329,0ZM297,849c0,0,-33,0,-57,24c0,0,-24,24,-24,57c0,0,0,33,24,57c0,0,24,24,57,24c0,0,33,0,57,-24c0,0,24,-24,24,-57c0,0,0,-33,-24,-57c0,0,-24,-24,-57,-24Z" 
id="f3_25"
transform="scale(0.001,-0.001)" />

<path d="M-43,-325c0,0,-60,0,-119,23l24,140h35l12,-83c0,0,20,-20,52,-20c0,0,48,0,76,48c0,0,28,48,46,151L210,649L107,668l6,33H342L213,-28c0,0,-27,-151,-90,-224c0,0,-63,-73,-166,-73ZM306,849c0,0,-33,0,-57,24c0,0,-24,24,-24,57c0,0,0,33,24,57c0,0,24,24,57,24c0,0,33,0,57,-24c0,0,24,-24,24,-57c0,0,0,-33,-24,-57c0,0,-24,-24,-57,-24Z" 
id="f3_26"
transform="scale(0.001,-0.001)" />

<path d="M44,0L223,1008l-101,18l6,34H356L228,338L547,647l-70,20l6,34H700l-5,-34L634,650L415,441L596,51L669,34L663,0H487L324,357L214,254L168,0Z" 
id="f3_27"
transform="scale(0.001,-0.001)" />

<path d="M31,0V33L150,52v956L31,1026v34H274V52L394,33V0Z" 
id="f2_28"
transform="scale(0.001,-0.001)" />

<path d="M148,-329c0,0,-58,0,-114,13v151H69l24,-71c0,0,23,-17,64,-17c0,0,39,0,72,22c0,0,33,23,60,67c0,0,27,44,68,157L90,649L19,668v33H344V668L233,648L423,158L606,649L497,668v33H758V668L685,652L411,-43c0,0,-48,-124,-84,-177c0,0,-36,-54,-79,-82c0,0,-44,-27,-100,-27Z" 
id="f2_2l"
transform="scale(0.001,-0.001)" />

<path d="M551,45c0,0,171,0,252,108c0,0,82,108,82,349c0,0,0,239,-81,344c0,0,-81,105,-253,105c0,0,-172,0,-252,-105c0,0,-80,-105,-80,-344c0,0,0,-241,80,-349c0,0,81,-108,252,-108Zm0,-59c0,0,-238,0,-363,129C188,115,63,245,63,501c0,0,0,510,488,510c0,0,242,0,366,-129c0,0,124,-130,124,-381c0,0,0,-255,-126,-385C915,116,790,-14,551,-14Z" 
id="f2_1f"
transform="scale(0.001,-0.001)" />

<path d="M448,506c0,0,134,0,190,49c0,0,57,50,57,168c0,0,0,114,-56,162c0,0,-56,48,-195,48H316V506ZM777,0L496,438H316V60L468,40V0H54V40L172,60V941L44,960v40H476c0,0,188,0,277,-63c0,0,90,-64,90,-204c0,0,0,-100,-54,-173c0,0,-55,-73,-151,-101L909,60L1017,40V0Z" 
id="f2_1i"
transform="scale(0.001,-0.001)" />

<path d="M235,0V40L394,60V936H356c0,0,-189,0,-258,-15L78,766H28v234H908V766H857L837,921c0,0,-22,5,-98,9c0,0,-75,4,-165,4H538V60L697,40V0Z" 
id="f2_1k"
transform="scale(0.001,-0.001)" />

<path d="M301,78c0,0,85,0,185,104l81,442c0,0,-29,20,-55,28c0,0,-25,8,-62,8c0,0,-75,0,-137,-56c0,0,-62,-56,-98,-152c0,0,-36,-95,-36,-199c0,0,0,-79,33,-127c0,0,33,-48,89,-48ZM245,-14c0,0,-90,0,-145,66c0,0,-54,66,-54,182c0,0,0,131,57,244c0,0,57,114,152,178c0,0,96,64,208,64c0,0,90,0,170,-33l33,26h40L589,52L673,33L667,0H454l22,117C476,117,350,-14,245,-14Z" 
id="f3_1x"
transform="scale(0.001,-0.001)" />

<path d="M431,0V33L535,52V499c0,0,0,62,-32,96c0,0,-32,33,-95,33c0,0,-66,0,-163,-22V52L350,33V0H32V33l89,19V649L32,668v33H237l6,-57c0,0,56,32,119,54c0,0,62,22,110,22c0,0,52,0,95,-20c0,0,44,-19,66,-62c0,0,57,32,134,57c0,0,77,25,128,25c0,0,179,0,179,-207V52l90,-19V0H846V33L950,52V499c0,0,0,129,-119,129c0,0,-19,0,-45,-3c0,0,-26,-3,-52,-7c0,0,-25,-4,-49,-8c0,0,-23,-5,-39,-8c0,0,13,-41,13,-89V52L764,33V0Z" 
id="f2_29"
transform="scale(0.001,-0.001)" />

<path d="M305,45c0,0,76,0,141,56c0,0,64,56,101,151c0,0,37,95,37,200c0,0,0,83,-35,129c0,0,-34,46,-92,46c0,0,-44,0,-96,-29c0,0,-51,-29,-97,-75L185,81c0,0,43,-36,120,-36ZM295,-14c0,0,-65,0,-128,16C167,2,104,19,57,48l171,960l-100,18l6,34H358L303,731c0,0,-13,-85,-29,-144c0,0,59,61,122,97c0,0,64,36,116,36c0,0,94,0,150,-67c0,0,56,-67,56,-182c0,0,0,-129,-56,-242C662,229,606,115,509,50c0,0,-98,-64,-214,-64Z" 
id="f3_1y"
transform="scale(0.001,-0.001)" />

<path d="M298,-14c0,0,-120,0,-185,69c0,0,-66,69,-66,191c0,0,0,130,52,237c0,0,52,107,149,172c0,0,97,65,203,65c0,0,53,0,112,-12c0,0,60,-11,99,-27L628,485H587L575,615c0,0,-47,47,-125,47c0,0,-72,0,-134,-53c0,0,-62,-53,-100,-147c0,0,-37,-95,-37,-208c0,0,0,-190,154,-190c0,0,106,0,222,74l22,-32c0,0,-60,-56,-135,-88c0,0,-76,-32,-144,-32Z" 
id="f3_1z"
transform="scale(0.001,-0.001)" />

<path d="M620,-14c0,0,-52,0,-93,43c0,0,-41,45,-77,203L384,522L132,0H0L340,703l-12,66c0,0,-23,107,-61,146c0,0,-37,38,-83,38c0,0,-42,0,-74,-30c0,0,-31,-31,-41,-100H43c0,0,2,117,57,187c0,0,40,51,96,51c0,0,50,0,86,-40c0,0,54,-60,88,-213L489,283c0,0,27,-118,62,-153c0,0,33,-36,79,-36c0,0,43,0,71,29c0,0,28,29,33,94h30c0,0,1,-19,1,-29c0,0,0,-98,-49,-158c0,0,-37,-44,-96,-44Z" 
id="f4_28"
transform="scale(0.001,-0.001)" />

<path d="M383,64c0,0,44,0,87,7c0,0,43,7,65,17V645c0,0,-67,13,-152,13c0,0,-194,0,-194,-309c0,0,0,-143,48,-214c0,0,47,-71,146,-71Zm56,-389v35l96,18V-77c0,0,0,73,7,124c0,0,-79,-61,-200,-61c0,0,-287,0,-287,362c0,0,0,180,81,276c0,0,81,96,237,96c0,0,84,0,166,-18l67,33h53V-272l77,-18v-35Z" 
id="f2_2d"
transform="scale(0.001,-0.001)" />

<path d="M54,0V40L172,60V941L44,960v40H794V760H745L721,922c0,0,-83,11,-241,11H316V516H611l23,120h46V328H634L611,449H316V60L483,40V0Z" 
id="f2_16"
transform="scale(0.001,-0.001)" />

<path d="M410,-14c0,0,-86,0,-175,14C235,0,145,14,81,38V307h66L181,146c0,0,31,-37,94,-62c0,0,64,-24,132,-24c0,0,214,0,214,177c0,0,0,55,-41,93c0,0,-41,38,-128,68c0,0,-128,42,-185,68c0,0,-56,27,-95,63c0,0,-38,36,-62,87c0,0,-23,51,-23,125c0,0,0,132,90,201c0,0,90,69,263,69c0,0,125,0,278,-32V741H651L618,878c0,0,-76,56,-178,56c0,0,-92,0,-141,-34c0,0,-49,-34,-49,-104c0,0,0,-50,41,-86c0,0,41,-35,128,-63c0,0,171,-56,235,-97c0,0,64,-41,97,-103c0,0,34,-61,34,-143c0,0,0,-318,-375,-318Z" 
id="f5_1j"
transform="scale(0.001,-0.001)" />

<path d="M379,60c0,0,59,0,84,64c0,0,24,65,24,231c0,0,0,164,-24,227c0,0,-24,63,-84,63c0,0,-57,0,-80,-60c0,0,-22,-61,-22,-230c0,0,0,-173,23,-234c0,0,22,-61,79,-61Zm-2,-74c0,0,-161,0,-240,91c0,0,-79,91,-79,277c0,0,0,186,80,276c0,0,81,90,245,90c0,0,167,0,245,-93c0,0,78,-93,78,-273c0,0,0,-188,-81,-278c0,0,-81,-90,-248,-90Z" 
id="f5_2b"
transform="scale(0.001,-0.001)" />

<path d="M30,0V49l76,18V992l-72,18v50H322V67L398,49V0Z" 
id="f5_28"
transform="scale(0.001,-0.001)" />

<path d="M287,-18c0,0,-194,0,-194,206V634L23,652v49H309V217c0,0,0,-63,26,-98c0,0,27,-35,76,-35c0,0,57,0,113,25V634l-64,18v49H740V67L809,49V0H536L526,61L475,35c0,0,-104,-53,-188,-53Z" 
id="f5_2h"
transform="scale(0.001,-0.001)" />

<path d="M327,-14c0,0,-101,0,-156,45c0,0,-55,45,-55,131V624H25v48l108,29l87,159H332V701H480V624H332V176c0,0,0,-49,20,-73c0,0,20,-25,53,-25c0,0,40,0,97,12V26c0,0,-22,-15,-76,-27c0,0,-55,-13,-99,-13Z" 
id="f5_2g"
transform="scale(0.001,-0.001)" />

<path d="M34,0V49l76,18V634L38,652v49H325V67L402,49V0ZM217,831c0,0,-48,0,-81,33c0,0,-34,33,-34,82c0,0,0,48,34,81c0,0,34,33,81,33c0,0,48,0,81,-33c0,0,33,-33,33,-81c0,0,0,-47,-33,-81c0,0,-32,-34,-81,-34Z" 
id="f5_25"
transform="scale(0.001,-0.001)" />

<path d="M41,0V49l69,18V634L41,652v49H313l11,-61l50,26c0,0,105,54,188,54c0,0,194,0,194,-207V67L827,49V0H478V49l63,18V484c0,0,0,63,-27,98c0,0,-26,35,-75,35c0,0,-57,0,-114,-25V67L389,49V0Z" 
id="f5_2a"
transform="scale(0.001,-0.001)" />

<path d="M248,-20c0,0,-52,0,-87,34c0,0,-36,36,-36,88c0,0,0,52,36,88c0,0,35,36,87,36c0,0,52,0,88,-36c0,0,36,-36,36,-88c0,0,0,-51,-36,-87c0,0,-35,-35,-88,-35Zm0,488c0,0,-52,0,-87,36c0,0,-36,36,-36,88c0,0,0,52,35,88c0,0,35,36,88,36c0,0,53,0,89,-36c0,0,35,-37,35,-88c0,0,0,-51,-36,-87c0,0,-35,-37,-88,-37Z" 
id="f5_u"
transform="scale(0.001,-0.001)" />

<path d="M55,0V40L184,60V941L55,960v40H455V960L327,941V60L455,40V0Z" 
id="f2_19"
transform="scale(0.001,-0.001)" />

<path d="M394,460c0,0,126,0,186,57c0,0,60,57,60,187c0,0,0,123,-57,176c0,0,-58,53,-194,53H316V460ZM54,0V40L172,60V941L44,960v40H421c0,0,368,0,368,-295c0,0,0,-153,-93,-233c0,0,-93,-80,-267,-80H316V60L475,40V0Z" 
id="f2_1g"
transform="scale(0.001,-0.001)" />

<path d="M536,-22L130,941L17,960v40H421V960L287,941L590,205L892,941L761,960v40h325V960L976,941L574,-22Z" 
id="f2_1m"
transform="scale(0.001,-0.001)" />

<path d="M631,416L539,902L283,416ZM576,0l8,40L691,60L643,348H249L96,60L197,40L189,0H-83l8,40L7,60l509,949H659L845,60L938,40L930,0Z" 
id="f3_11"
transform="scale(0.001,-0.001)" />

<path d="M459,63c0,0,143,0,210,55c0,0,67,56,67,185c0,0,0,101,-66,146c0,0,-66,46,-190,46H341L266,67c0,0,114,-4,193,-4Zm18,499c0,0,144,0,206,49c0,0,61,48,61,170c0,0,0,77,-48,115c0,0,-48,37,-160,37H419L353,562ZM459,-4L173,0H14l8,40l99,20L277,941L151,960l8,40H570c0,0,330,0,330,-210c0,0,0,-105,-66,-174c0,0,-66,-69,-184,-85c0,0,115,-9,179,-69c0,0,63,-59,63,-157c0,0,0,-160,-108,-235C784,70,675,-4,459,-4Z" 
id="f3_12"
transform="scale(0.001,-0.001)" />

<path d="M463,65c0,0,220,0,340,135c0,0,121,135,121,385c0,0,0,348,-385,348H419L266,70c0,0,120,-5,197,-5Zm6,-67L110,0H-16l7,40L121,60L276,941L151,960l7,40H585c0,0,241,0,368,-105c0,0,127,-106,127,-304c0,0,0,-179,-75,-314c0,0,-75,-136,-214,-208C791,69,653,-2,469,-2Z" 
id="f3_14"
transform="scale(0.001,-0.001)" />

<path d="M377,45c0,0,99,0,145,108c0,0,46,109,46,352c0,0,0,240,-45,345c0,0,-46,106,-146,106c0,0,-97,0,-139,-100c0,0,-43,-99,-43,-351c0,0,0,-254,44,-357c0,0,43,-103,138,-103Zm0,-59c0,0,-158,0,-238,132c0,0,-81,133,-81,386c0,0,0,249,81,380c0,0,80,132,244,132c0,0,159,0,241,-130c0,0,82,-130,82,-382c0,0,0,-518,-329,-518Z" 
id="f2_k"
transform="scale(0.001,-0.001)" />

<path d="M0,-123V1415H525v-72H72V-123Z" 
id="f4_4r"
transform="scale(0.001,-0.001)" />

<path d="M478,-123V1343H26v72H550V-123Z" 
id="f4_57"
transform="scale(0.001,-0.001)" />

<path d="M945,-20c0,0,47,75,125,153H57v74H1147l108,91c0,0,23,19,95,72c0,0,-134,103,-203,166H57v72H1070c0,0,-78,78,-125,154h85c0,0,88,-107,217,-217c0,0,130,-110,206,-154V349c0,0,-101,-58,-219,-162c0,0,-118,-103,-204,-207Z" 
id="f4_4g"
transform="scale(0.001,-0.001)" />

<path d="M0,-123V1415H72V-51H525v-72Z" 
id="f4_4t"
transform="scale(0.001,-0.001)" />

<path d="M26,-123v72H478V1415h72V-123Z" 
id="f4_59"
transform="scale(0.001,-0.001)" />

<path d="M410,45c0,0,90,0,130,58c0,0,40,59,40,193c0,0,0,122,-38,177c0,0,-38,54,-122,54c0,0,-102,0,-217,-37c0,0,0,-227,51,-336c0,0,52,-109,156,-109Zm3,-59c0,0,-169,0,-258,131c0,0,-89,131,-89,377c0,0,0,161,47,278c0,0,47,117,131,178c0,0,85,61,196,61c0,0,109,0,217,-26V813H608L582,915c0,0,-25,13,-67,23c0,0,-41,10,-75,10c0,0,-109,0,-170,-105c0,0,-60,-106,-66,-308c0,0,121,63,244,63c0,0,132,0,201,-74c0,0,69,-74,69,-214c0,0,0,-156,-78,-240c0,0,-79,-84,-227,-84Z" 
id="f2_q"
transform="scale(0.001,-0.001)" />

<path d="M457,460c0,0,289,0,289,266c0,0,0,106,-54,157c0,0,-54,50,-163,50H419L335,460ZM-7,0L0,40L120,60L276,941L151,960l7,40H559c0,0,161,0,248,-67c0,0,87,-66,87,-198c0,0,0,-167,-109,-255c0,0,-109,-88,-312,-88H323L264,60L427,40L420,0Z" 
id="f3_1g"
transform="scale(0.001,-0.001)" />

<path d="M395,-22L175,941L80,960l7,40H455l-7,-40L322,941L484,211L885,941L771,960l9,40h300l-7,-40L975,941L433,-22Z" 
id="f3_1m"
transform="scale(0.001,-0.001)" />

<path d="M377,45c0,0,100,0,147,52c0,0,47,52,47,174c0,0,0,119,-46,173c0,0,-47,54,-148,54c0,0,-98,0,-141,-51c0,0,-44,-51,-44,-176c0,0,0,-126,44,-176c0,0,44,-50,141,-50Zm2,518c0,0,84,0,123,46c0,0,39,46,39,148c0,0,0,102,-40,151c0,0,-41,48,-122,48c0,0,-79,0,-118,-47c0,0,-38,-47,-38,-152c0,0,0,-104,37,-149c0,0,38,-45,119,-45ZM377,-14c0,0,-319,0,-319,285c0,0,0,99,48,164c0,0,48,66,129,96c0,0,-65,30,-106,87c0,0,-40,56,-40,139c0,0,0,123,75,191c0,0,76,68,219,68c0,0,139,0,216,-67c0,0,76,-68,76,-192c0,0,0,-82,-40,-139c0,0,-40,-57,-108,-87c0,0,85,-31,132,-98c0,0,47,-67,47,-162c0,0,0,-142,-80,-214c0,0,-80,-71,-249,-71Z" 
id="f2_s"
transform="scale(0.001,-0.001)" />

<path d="M13,0V34L95,46L325,350L122,649L40,668v33H357V668L264,648L399,446L554,649l-96,19v33H710V668L630,652L433,397L663,50L745,34V0H427V34l94,17L359,299L169,50L266,34V0Z" 
id="f2_2k"
transform="scale(0.001,-0.001)" />

<path d="M968,-20c0,0,42,100,87,170c0,0,45,70,144,184H56v73H1199c0,0,-106,122,-148,189c0,0,-43,67,-83,166h60c0,0,87,-108,217,-218c0,0,130,-110,206,-154V349c0,0,-99,-56,-217,-159c0,0,-117,-102,-206,-210Z" 
id="f4_34"
transform="scale(0.001,-0.001)" />

<path d="M-12,338v55H777V338Z" 
id="f6_4y"
transform="scale(0.001,-0.001)" />

<path d="M113,-203V1060H454v-35L232,994V-138l222,-30v-35Z" 
id="f2_1r"
transform="scale(0.001,-0.001)" />

<path d="M392,152V469H76v77H392V863h77V546H787V469H469V152Z" 
id="f2_f"
transform="scale(0.001,-0.001)" />

<path d="M55,-203v35l222,30V994L55,1025v35H395V-203Z" 
id="f2_1t"
transform="scale(0.001,-0.001)" />

<path d="M76,316v76H787V316Zm0,306v76H787V622Z" 
id="f2_x"
transform="scale(0.001,-0.001)" />


</defs>
</svg>