<?xml version="1.0" encoding="UTF-8" standalone="no"?>
<!DOCTYPE svg PUBLIC "-//W3C//DTD SVG 1.1//EN"
"http://www.w3.org/Graphics/SVG/1.1/DTD/svg11.dtd">
<svg viewBox="0 0 909 1286" version="1.1" xmlns="http://www.w3.org/2000/svg" xmlns:xlink="http://www.w3.org/1999/xlink">
<defs>
<clipPath id="c0_161"><path d="M55.2,502.9V417H229.9v85.9Z" /></clipPath>
<clipPath id="c1_161"><path d="M55.2,654.3V602.7H175v51.6Z" /></clipPath>
<clipPath id="c2_161"><path d="M55.2,742.7V656.8H199.1v85.9Z" /></clipPath>
<clipPath id="c3_161"><path d="M55.2,903.6V817.8H256.5v85.8Z" /></clipPath>
<clipPath id="c4_161"><path d="M55.2,992V906.1H340.4V992Z" /></clipPath>
<clipPath id="c5_161"><path d="M55.2,1080V994.1H197.3V1080Z" /></clipPath>
<clipPath id="c6_161"><path d="M55.2,1133.9v-51.7H205.5v51.7Z" /></clipPath>
<style type="text/css"><![CDATA[
.g0_161{
fill: #D9D9D9;
}
.g1_161{
fill: none;
stroke: #000000;
stroke-width: 0.7638889;
stroke-linecap: butt;
stroke-linejoin: miter;
}
.g2_161{
fill: none;
stroke: #000000;
stroke-width: 0.9088207;
stroke-linecap: butt;
stroke-linejoin: round;
}
.g3_161{
fill: none;
stroke: #000000;
stroke-width: 0.90072966;
stroke-linecap: butt;
stroke-linejoin: round;
}
.g4_161{
}
]]></style>
</defs>
<image preserveAspectRatio="none" x="747" y="1196" width="96" height="59" xlink:href="img/1.png" />
<image preserveAspectRatio="none" x="336" y="41" width="259" height="51" xlink:href="img/2.png" />
<image preserveAspectRatio="none" x="342" y="50" width="247" height="27" xlink:href="img/3.png" />
<image preserveAspectRatio="none" x="341" y="45" width="239" height="42" xlink:href="img/4.png" />
<g fill="#FFFFFF" >
<use xlink:href="#f0_j" transform="matrix(11.5,0,0,11.5,355.1,70.1)" />
<use xlink:href="#f0_i" transform="matrix(11.5,0,0,11.5,364.3,70.1)" />
<use xlink:href="#f0_2n" transform="matrix(11.5,0,0,11.5,374.1,70.1)" />
<use xlink:href="#f0_t" transform="matrix(11.5,0,0,11.5,382.6,70.1)" />
<use xlink:href="#f0_oj" transform="matrix(11.5,0,0,11.5,391,70.1)" />
<use xlink:href="#f0_3e" transform="matrix(11.5,0,0,11.5,396.5,70.1)" />
<use xlink:href="#f0_1c" transform="matrix(11.5,0,0,11.5,406.1,70.1)" />
<use xlink:href="#f0_1c" transform="matrix(11.5,0,0,11.5,410.8,70.1)" />
<use xlink:href="#f0_oj" transform="matrix(11.5,0,0,11.5,415.6,70.1)" />
<use xlink:href="#f0_rz" transform="matrix(11.5,0,0,11.5,421.1,70.1)" />
<use xlink:href="#f0_rx" transform="matrix(11.5,0,0,11.5,429.9,70.1)" />
<use xlink:href="#f0_ry" transform="matrix(11.5,0,0,11.5,438.7,70.1)" />
<use xlink:href="#f0_s7" transform="matrix(11.5,0,0,11.5,447.5,70.1)" />
<use xlink:href="#f0_t" transform="matrix(11.5,0,0,11.5,460.4,70.1)" />
<use xlink:href="#f0_3e" transform="matrix(11.5,0,0,11.5,468.8,70.1)" />
<use xlink:href="#f0_5" transform="matrix(11.5,0,0,11.5,478.3,70.1)" />
<use xlink:href="#f0_1x" transform="matrix(11.5,0,0,11.5,489,70.1)" />
<use xlink:href="#f0_1c" transform="matrix(11.5,0,0,11.5,504.4,70.1)" />
<use xlink:href="#f0_1y" transform="matrix(11.5,0,0,11.5,509.1,70.1)" />
<use xlink:href="#f0_5" transform="matrix(11.5,0,0,11.5,520.8,70.1)" />
<use xlink:href="#f0_2t" transform="matrix(11.5,0,0,11.5,531.5,70.1)" />
<use xlink:href="#f0_1c" transform="matrix(11.5,0,0,11.5,540.2,70.1)" />
<use xlink:href="#f0_24" transform="matrix(11.5,0,0,11.5,545,70.1)" />
<use xlink:href="#f0_1y" transform="matrix(11.5,0,0,11.5,556.7,70.1)" />
</g>
<image preserveAspectRatio="none" x="554" y="45" width="36" height="42" xlink:href="img/5.png" />
<g fill="#FFFFFF" >
<use xlink:href="#f1_l" transform="matrix(11,0,0,11,770.3,1227.6)" />
<use xlink:href="#f1_s" transform="matrix(11,0,0,11,779.1,1227.6)" />
<use xlink:href="#f1_j" transform="matrix(11,0,0,11,792.3,1227.6)" />
<use xlink:href="#f1_l" transform="matrix(11,0,0,11,802.9,1227.6)" />
<use xlink:href="#f1_t" transform="matrix(11,0,0,11,811.7,1227.6)" />
</g>
<path fill-rule="evenodd" d="M52.8,1193.5H856.9v-.8H52.8v.8Z" class="g0_161" />
<path d="M37.9,99.4L873,98.5" class="g1_161" />
<g fill="#000000" >
<use xlink:href="#f2_1x" transform="matrix(12,0,0,12,55,144.1)" />
<use xlink:href="#f2_2a" transform="matrix(12,0,0,12,63.1,144.1)" />
<use xlink:href="#f2_20" transform="matrix(12,0,0,12,71.9,144.1)" />
<use xlink:href="#f2_2f" transform="matrix(12,0,0,12,86.9,144.1)" />
<use xlink:href="#f2_2h" transform="matrix(12,0,0,12,93.9,144.1)" />
<use xlink:href="#f2_2c" transform="matrix(12,0,0,12,103.1,144.1)" />
<use xlink:href="#f2_21" transform="matrix(12,0,0,12,112.2,144.1)" />
<use xlink:href="#f2_2e" transform="matrix(12,0,0,12,120.3,144.1)" />
<use xlink:href="#f2_2i" transform="matrix(12,0,0,12,126.9,144.1)" />
<use xlink:href="#f2_25" transform="matrix(12,0,0,12,136,144.1)" />
<use xlink:href="#f2_2f" transform="matrix(12,0,0,12,140.8,144.1)" />
<use xlink:href="#f2_25" transform="matrix(12,0,0,12,148.1,144.1)" />
<use xlink:href="#f2_2b" transform="matrix(12,0,0,12,152.5,144.1)" />
<use xlink:href="#f2_2a" transform="matrix(12,0,0,12,162.4,144.1)" />
<use xlink:href="#f2_1x" transform="matrix(12,0,0,12,177,144.1)" />
<use xlink:href="#f2_20" transform="matrix(12,0,0,12,185.1,144.1)" />
<use xlink:href="#f2_20" transform="matrix(12,0,0,12,194.3,144.1)" />
<use xlink:href="#f2_21" transform="matrix(12,0,0,12,203.4,144.1)" />
<use xlink:href="#f2_20" transform="matrix(12,0,0,12,211.5,144.1)" />
<use xlink:href="#f2_2g" transform="matrix(12,0,0,12,226.5,144.1)" />
<use xlink:href="#f2_2b" transform="matrix(12,0,0,12,231.6,144.1)" />
<use xlink:href="#f2_2g" transform="matrix(12,0,0,12,246.7,144.1)" />
<use xlink:href="#f2_2j" transform="matrix(12,0,0,12,252.1,144.1)" />
<use xlink:href="#f2_2b" transform="matrix(12,0,0,12,265,144.1)" />
<use xlink:href="#f2_2g" transform="matrix(12,0,0,12,279.6,144.1)" />
<use xlink:href="#f2_25" transform="matrix(12,0,0,12,285.1,144.1)" />
<use xlink:href="#f2_29" transform="matrix(12,0,0,12,289.9,144.1)" />
<use xlink:href="#f2_21" transform="matrix(12,0,0,12,303.8,144.1)" />
<use xlink:href="#f2_2f" transform="matrix(12,0,0,12,312.2,144.1)" />
<use xlink:href="#f2_2g" transform="matrix(12,0,0,12,325,144.1)" />
<use xlink:href="#f2_24" transform="matrix(12,0,0,12,330.5,144.1)" />
<use xlink:href="#f2_21" transform="matrix(12,0,0,12,339.3,144.1)" />
<use xlink:href="#f2_2a" transform="matrix(12,0,0,12,353.2,144.1)" />
<use xlink:href="#f2_2h" transform="matrix(12,0,0,12,362,144.1)" />
<use xlink:href="#f2_29" transform="matrix(12,0,0,12,371.5,144.1)" />
<use xlink:href="#f2_1y" transform="matrix(12,0,0,12,385.5,144.1)" />
<use xlink:href="#f2_21" transform="matrix(12,0,0,12,394.6,144.1)" />
<use xlink:href="#f2_2e" transform="matrix(12,0,0,12,402.7,144.1)" />
<use xlink:href="#f2_2b" transform="matrix(12,0,0,12,414.8,144.1)" />
<use xlink:href="#f2_22" transform="matrix(12,0,0,12,423.9,144.1)" />
<use xlink:href="#f2_1x" transform="matrix(12,0,0,12,435.3,144.1)" />
<use xlink:href="#f2_2j" transform="matrix(12,0,0,12,443.4,144.1)" />
<use xlink:href="#f2_1x" transform="matrix(12,0,0,12,456.9,144.1)" />
<use xlink:href="#f2_2e" transform="matrix(12,0,0,12,465,144.1)" />
<use xlink:href="#f2_20" transform="matrix(12,0,0,12,471.2,144.1)" />
<use xlink:href="#f2_21" transform="matrix(12,0,0,12,480.4,144.1)" />
<use xlink:href="#f2_21" transform="matrix(12,0,0,12,488.4,144.1)" />
<use xlink:href="#f2_2f" transform="matrix(12,0,0,12,496.5,144.1)" />
<use xlink:href="#f2_22" transform="matrix(12,0,0,12,509.7,144.1)" />
<use xlink:href="#f2_2b" transform="matrix(12,0,0,12,515.2,144.1)" />
<use xlink:href="#f2_2e" transform="matrix(12,0,0,12,524.7,144.1)" />
<use xlink:href="#f2_24" transform="matrix(12,0,0,12,536.7,144.1)" />
<use xlink:href="#f2_2b" transform="matrix(12,0,0,12,545.5,144.1)" />
<use xlink:href="#f2_2a" transform="matrix(12,0,0,12,555.1,144.1)" />
<use xlink:href="#f2_21" transform="matrix(12,0,0,12,563.9,144.1)" />
<use xlink:href="#f2_2f" transform="matrix(12,0,0,12,571.9,144.1)" />
<use xlink:href="#f2_2g" transform="matrix(12,0,0,12,578.9,144.1)" />
<use xlink:href="#f2_2l" transform="matrix(12,0,0,12,584.7,144.1)" />
<use xlink:href="#f2_25" transform="matrix(12,0,0,12,599.4,144.1)" />
<use xlink:href="#f2_2f" transform="matrix(12,0,0,12,604.2,144.1)" />
<use xlink:href="#f2_n" transform="matrix(12,0,0,12,617,144.1)" />
<use xlink:href="#f2_n" transform="matrix(12,0,0,12,626.1,144.1)" />
<use xlink:href="#f2_i" transform="matrix(12,0,0,12,635.3,144.1)" />
<use xlink:href="#f2_19" transform="matrix(12,0,0,12,645.9,144.1)" />
<use xlink:href="#f2_22" transform="matrix(12,0,0,12,652.1,144.1)" />
<use xlink:href="#f2_2g" transform="matrix(12,0,0,12,663.5,144.1)" />
<use xlink:href="#f2_24" transform="matrix(12,0,0,12,668.9,144.1)" />
<use xlink:href="#f2_21" transform="matrix(12,0,0,12,677.7,144.1)" />
<use xlink:href="#f2_2f" transform="matrix(12,0,0,12,691.7,144.1)" />
<use xlink:href="#f2_2h" transform="matrix(12,0,0,12,698.6,144.1)" />
<use xlink:href="#f2_29" transform="matrix(12,0,0,12,708.1,144.1)" />
<use xlink:href="#f2_2b" transform="matrix(12,0,0,12,727.6,144.1)" />
<use xlink:href="#f2_22" transform="matrix(12,0,0,12,737.1,144.1)" />
<use xlink:href="#f2_2g" transform="matrix(12,0,0,12,748.4,144.1)" />
<use xlink:href="#f2_24" transform="matrix(12,0,0,12,753.9,144.1)" />
<use xlink:href="#f2_21" transform="matrix(12,0,0,12,762.7,144.1)" />
<use xlink:href="#f2_2a" transform="matrix(12,0,0,12,776.6,144.1)" />
<use xlink:href="#f2_2h" transform="matrix(12,0,0,12,785.4,144.1)" />
<use xlink:href="#f2_29" transform="matrix(12,0,0,12,794.9,144.1)" />
<use xlink:href="#f2_1y" transform="matrix(12,0,0,12,808.9,144.1)" />
<use xlink:href="#f2_21" transform="matrix(12,0,0,12,818,144.1)" />
<use xlink:href="#f2_2e" transform="matrix(12,0,0,12,826.1,144.1)" />
<use xlink:href="#f2_2b" transform="matrix(12,0,0,12,838.2,144.1)" />
<use xlink:href="#f2_22" transform="matrix(12,0,0,12,847.7,144.1)" />
<use xlink:href="#f2_1x" transform="matrix(12,0,0,12,55,168.3)" />
<use xlink:href="#f2_2j" transform="matrix(12,0,0,12,63.1,168.3)" />
<use xlink:href="#f2_1x" transform="matrix(12,0,0,12,76.3,168.3)" />
<use xlink:href="#f2_2e" transform="matrix(12,0,0,12,84.4,168.3)" />
<use xlink:href="#f2_20" transform="matrix(12,0,0,12,90.6,168.3)" />
<use xlink:href="#f2_21" transform="matrix(12,0,0,12,99.8,168.3)" />
<use xlink:href="#f2_21" transform="matrix(12,0,0,12,107.8,168.3)" />
<use xlink:href="#f2_2f" transform="matrix(12,0,0,12,115.9,168.3)" />
<use xlink:href="#f2_22" transform="matrix(12,0,0,12,130.9,168.3)" />
<use xlink:href="#f2_2b" transform="matrix(12,0,0,12,136.4,168.3)" />
<use xlink:href="#f2_2e" transform="matrix(12,0,0,12,145.9,168.3)" />
<use xlink:href="#f2_24" transform="matrix(12,0,0,12,159.8,168.3)" />
<use xlink:href="#f2_2b" transform="matrix(12,0,0,12,168.6,168.3)" />
<use xlink:href="#f2_2a" transform="matrix(12,0,0,12,178.1,168.3)" />
<use xlink:href="#f2_21" transform="matrix(12,0,0,12,186.9,168.3)" />
<use xlink:href="#f2_2f" transform="matrix(12,0,0,12,195.3,168.3)" />
<use xlink:href="#f2_2g" transform="matrix(12,0,0,12,202.3,168.3)" />
<use xlink:href="#f2_2l" transform="matrix(12,0,0,12,207.8,168.3)" />
<use xlink:href="#f2_1x" transform="matrix(12,0,0,12,224.3,168.3)" />
<use xlink:href="#f2_2a" transform="matrix(12,0,0,12,232.7,168.3)" />
<use xlink:href="#f2_20" transform="matrix(12,0,0,12,241.5,168.3)" />
<use xlink:href="#f2_2f" transform="matrix(12,0,0,12,258.3,168.3)" />
<use xlink:href="#f2_2h" transform="matrix(12,0,0,12,265.3,168.3)" />
<use xlink:href="#f2_2c" transform="matrix(12,0,0,12,274.5,168.3)" />
<use xlink:href="#f2_21" transform="matrix(12,0,0,12,283.6,168.3)" />
<use xlink:href="#f2_2e" transform="matrix(12,0,0,12,291.7,168.3)" />
<use xlink:href="#f2_2i" transform="matrix(12,0,0,12,298.3,168.3)" />
<use xlink:href="#f2_25" transform="matrix(12,0,0,12,307.4,168.3)" />
<use xlink:href="#f2_2f" transform="matrix(12,0,0,12,312.2,168.3)" />
<use xlink:href="#f2_25" transform="matrix(12,0,0,12,319.5,168.3)" />
<use xlink:href="#f2_2b" transform="matrix(12,0,0,12,323.9,168.3)" />
<use xlink:href="#f2_2a" transform="matrix(12,0,0,12,333.8,168.3)" />
<use xlink:href="#f2_25" transform="matrix(12,0,0,12,350.7,168.3)" />
<use xlink:href="#f2_2f" transform="matrix(12,0,0,12,355.4,168.3)" />
<use xlink:href="#f2_2g" transform="matrix(12,0,0,12,370.1,168.3)" />
<use xlink:href="#f2_2j" transform="matrix(12,0,0,12,375.6,168.3)" />
<use xlink:href="#f2_25" transform="matrix(12,0,0,12,389.1,168.3)" />
<use xlink:href="#f2_1z" transform="matrix(12,0,0,12,393.5,168.3)" />
<use xlink:href="#f2_21" transform="matrix(12,0,0,12,401.6,168.3)" />
<use xlink:href="#f2_2g" transform="matrix(12,0,0,12,417.3,168.3)" />
<use xlink:href="#f2_24" transform="matrix(12,0,0,12,422.8,168.3)" />
<use xlink:href="#f2_21" transform="matrix(12,0,0,12,431.6,168.3)" />
<use xlink:href="#f2_2a" transform="matrix(12,0,0,12,447.7,168.3)" />
<use xlink:href="#f2_2h" transform="matrix(12,0,0,12,456.5,168.3)" />
<use xlink:href="#f2_29" transform="matrix(12,0,0,12,466,168.3)" />
<use xlink:href="#f2_1y" transform="matrix(12,0,0,12,480,168.3)" />
<use xlink:href="#f2_21" transform="matrix(12,0,0,12,489.1,168.3)" />
<use xlink:href="#f2_2e" transform="matrix(12,0,0,12,497.2,168.3)" />
<use xlink:href="#f2_2b" transform="matrix(12,0,0,12,511.1,168.3)" />
<use xlink:href="#f2_22" transform="matrix(12,0,0,12,520.6,168.3)" />
<use xlink:href="#f2_1x" transform="matrix(12,0,0,12,533.8,168.3)" />
<use xlink:href="#f2_2j" transform="matrix(12,0,0,12,541.9,168.3)" />
<use xlink:href="#f2_1x" transform="matrix(12,0,0,12,555.4,168.3)" />
<use xlink:href="#f2_2e" transform="matrix(12,0,0,12,563.5,168.3)" />
<use xlink:href="#f2_20" transform="matrix(12,0,0,12,569.7,168.3)" />
<use xlink:href="#f2_21" transform="matrix(12,0,0,12,578.9,168.3)" />
<use xlink:href="#f2_21" transform="matrix(12,0,0,12,586.9,168.3)" />
<use xlink:href="#f2_2f" transform="matrix(12,0,0,12,595,168.3)" />
<use xlink:href="#f2_22" transform="matrix(12,0,0,12,610,168.3)" />
<use xlink:href="#f2_2b" transform="matrix(12,0,0,12,615.5,168.3)" />
<use xlink:href="#f2_2e" transform="matrix(12,0,0,12,625,168.3)" />
<use xlink:href="#f2_24" transform="matrix(12,0,0,12,638.9,168.3)" />
<use xlink:href="#f2_21" transform="matrix(12,0,0,12,647.7,168.3)" />
<use xlink:href="#f2_28" transform="matrix(12,0,0,12,656.1,168.3)" />
<use xlink:href="#f2_2c" transform="matrix(12,0,0,12,660.9,168.3)" />
<use xlink:href="#f2_25" transform="matrix(12,0,0,12,670.4,168.3)" />
<use xlink:href="#f2_2a" transform="matrix(12,0,0,12,675.2,168.3)" />
<use xlink:href="#f2_23" transform="matrix(12,0,0,12,684.3,168.3)" />
<use xlink:href="#f2_2b" transform="matrix(12,0,0,12,701.2,168.3)" />
<use xlink:href="#f2_2g" transform="matrix(12,0,0,12,710.7,168.3)" />
<use xlink:href="#f2_24" transform="matrix(12,0,0,12,716.2,168.3)" />
<use xlink:href="#f2_21" transform="matrix(12,0,0,12,725,168.3)" />
<use xlink:href="#f2_2e" transform="matrix(12,0,0,12,733.1,168.3)" />
<use xlink:href="#f2_2f" transform="matrix(12,0,0,12,739.3,168.3)" />
<use xlink:href="#f2_g" transform="matrix(12,0,0,12,746.2,168.3)" />
<use xlink:href="#f2_2h" transform="matrix(12,0,0,12,758.7,168.3)" />
<use xlink:href="#f2_2f" transform="matrix(12,0,0,12,767.8,168.3)" />
<use xlink:href="#f2_25" transform="matrix(12,0,0,12,775.2,168.3)" />
<use xlink:href="#f2_2a" transform="matrix(12,0,0,12,779.9,168.3)" />
<use xlink:href="#f2_23" transform="matrix(12,0,0,12,789.1,168.3)" />
<use xlink:href="#f2_29" transform="matrix(12,0,0,12,806.3,168.3)" />
<use xlink:href="#f2_1x" transform="matrix(12,0,0,12,819.9,168.3)" />
<use xlink:href="#f2_2g" transform="matrix(12,0,0,12,827.9,168.3)" />
<use xlink:href="#f2_2e" transform="matrix(12,0,0,12,833.4,168.3)" />
<use xlink:href="#f2_25" transform="matrix(12,0,0,12,839.6,168.3)" />
<use xlink:href="#f2_2k" transform="matrix(12,0,0,12,844.4,168.3)" />
<use xlink:href="#f2_29" transform="matrix(12,0,0,12,55,192.5)" />
<use xlink:href="#f2_21" transform="matrix(12,0,0,12,69,192.5)" />
<use xlink:href="#f2_2g" transform="matrix(12,0,0,12,77,192.5)" />
<use xlink:href="#f2_24" transform="matrix(12,0,0,12,82.5,192.5)" />
<use xlink:href="#f2_2b" transform="matrix(12,0,0,12,91.3,192.5)" />
<use xlink:href="#f2_20" transform="matrix(12,0,0,12,100.8,192.5)" />
<use xlink:href="#f2_g" transform="matrix(12,0,0,12,110,192.5)" />
<use xlink:href="#f2_22" transform="matrix(12,0,0,12,125.7,192.5)" />
<use xlink:href="#f2_25" transform="matrix(12,0,0,12,131.6,192.5)" />
<use xlink:href="#f2_2a" transform="matrix(12,0,0,12,136.4,192.5)" />
<use xlink:href="#f2_20" transform="matrix(12,0,0,12,145.5,192.5)" />
<use xlink:href="#f2_2g" transform="matrix(12,0,0,12,165.7,192.5)" />
<use xlink:href="#f2_24" transform="matrix(12,0,0,12,171.2,192.5)" />
<use xlink:href="#f2_21" transform="matrix(12,0,0,12,180,192.5)" />
<use xlink:href="#f2_2a" transform="matrix(12,0,0,12,199,192.5)" />
<use xlink:href="#f2_2h" transform="matrix(12,0,0,12,207.8,192.5)" />
<use xlink:href="#f2_29" transform="matrix(12,0,0,12,217.3,192.5)" />
<use xlink:href="#f2_1y" transform="matrix(12,0,0,12,231.3,192.5)" />
<use xlink:href="#f2_21" transform="matrix(12,0,0,12,240.4,192.5)" />
<use xlink:href="#f2_2e" transform="matrix(12,0,0,12,248.5,192.5)" />
<use xlink:href="#f2_2b" transform="matrix(12,0,0,12,265.7,192.5)" />
<use xlink:href="#f2_22" transform="matrix(12,0,0,12,275.2,192.5)" />
<use xlink:href="#f2_1x" transform="matrix(12,0,0,12,291.7,192.5)" />
<use xlink:href="#f2_2j" transform="matrix(12,0,0,12,299.7,192.5)" />
<use xlink:href="#f2_1x" transform="matrix(12,0,0,12,313,192.5)" />
<use xlink:href="#f2_2e" transform="matrix(12,0,0,12,321,192.5)" />
<use xlink:href="#f2_20" transform="matrix(12,0,0,12,327.2,192.5)" />
<use xlink:href="#f2_21" transform="matrix(12,0,0,12,336.4,192.5)" />
<use xlink:href="#f2_21" transform="matrix(12,0,0,12,344.5,192.5)" />
<use xlink:href="#f2_2f" transform="matrix(12,0,0,12,352.9,192.5)" />
<use xlink:href="#f2_2b" transform="matrix(12,0,0,12,370.8,192.5)" />
<use xlink:href="#f2_22" transform="matrix(12,0,0,12,380.3,192.5)" />
<use xlink:href="#f2_21" transform="matrix(12,0,0,12,396.8,192.5)" />
<use xlink:href="#f2_1x" transform="matrix(12,0,0,12,404.9,192.5)" />
<use xlink:href="#f2_1z" transform="matrix(12,0,0,12,413,192.5)" />
<use xlink:href="#f2_24" transform="matrix(12,0,0,12,421.4,192.5)" />
<use xlink:href="#f2_1z" transform="matrix(12,0,0,12,441.2,192.5)" />
<use xlink:href="#f2_1x" transform="matrix(12,0,0,12,449.2,192.5)" />
<use xlink:href="#f2_2g" transform="matrix(12,0,0,12,457.3,192.5)" />
<use xlink:href="#f2_21" transform="matrix(12,0,0,12,462.8,192.5)" />
<use xlink:href="#f2_23" transform="matrix(12,0,0,12,470.8,192.5)" />
<use xlink:href="#f2_2b" transform="matrix(12,0,0,12,480,192.5)" />
<use xlink:href="#f2_2e" transform="matrix(12,0,0,12,489.5,192.5)" />
<use xlink:href="#f2_2l" transform="matrix(12,0,0,12,495.7,192.5)" />
<use xlink:href="#f2_i" transform="matrix(12,0,0,12,504.2,192.5)" />
<use xlink:href="#f2_11" transform="matrix(12,0,0,12,519.9,192.5)" />
<use xlink:href="#f2_2c" transform="matrix(12,0,0,12,532.7,192.5)" />
<use xlink:href="#f2_1x" transform="matrix(12,0,0,12,541.9,192.5)" />
<use xlink:href="#f2_2e" transform="matrix(12,0,0,12,550,192.5)" />
<use xlink:href="#f2_2g" transform="matrix(12,0,0,12,556.2,192.5)" />
<use xlink:href="#f2_22" transform="matrix(12,0,0,12,572.6,192.5)" />
<use xlink:href="#f2_2e" transform="matrix(12,0,0,12,578.1,192.5)" />
<use xlink:href="#f2_2b" transform="matrix(12,0,0,12,584.4,192.5)" />
<use xlink:href="#f2_29" transform="matrix(12,0,0,12,594.2,192.5)" />
<use xlink:href="#f2_2g" transform="matrix(12,0,0,12,618.8,192.5)" />
<use xlink:href="#f2_24" transform="matrix(12,0,0,12,624.3,192.5)" />
<use xlink:href="#f2_21" transform="matrix(12,0,0,12,633.1,192.5)" />
<use xlink:href="#f2_2f" transform="matrix(12,0,0,12,641.1,192.5)" />
<use xlink:href="#f2_21" transform="matrix(12,0,0,12,648.1,192.5)" />
<use xlink:href="#f2_2i" transform="matrix(12,0,0,12,667.5,192.5)" />
<use xlink:href="#f2_1x" transform="matrix(12,0,0,12,676.3,192.5)" />
<use xlink:href="#f2_28" transform="matrix(12,0,0,12,684.7,192.5)" />
<use xlink:href="#f2_2h" transform="matrix(12,0,0,12,689.5,192.5)" />
<use xlink:href="#f2_21" transform="matrix(12,0,0,12,698.7,192.5)" />
<use xlink:href="#f2_g" transform="matrix(12,0,0,12,706.7,192.5)" />
<use xlink:href="#f2_2a" transform="matrix(12,0,0,12,722.5,192.5)" />
<use xlink:href="#f2_1x" transform="matrix(12,0,0,12,731.3,192.5)" />
<use xlink:href="#f2_29" transform="matrix(12,0,0,12,739.7,192.5)" />
<use xlink:href="#f2_21" transform="matrix(12,0,0,12,753.6,192.5)" />
<use xlink:href="#f2_28" transform="matrix(12,0,0,12,762,192.5)" />
<use xlink:href="#f2_2l" transform="matrix(12,0,0,12,767.1,192.5)" />
<use xlink:href="#f2_g" transform="matrix(12,0,0,12,776,192.5)" />
<use xlink:href="#f2_24" transform="matrix(12,0,0,12,792.1,192.5)" />
<use xlink:href="#f2_2b" transform="matrix(12,0,0,12,800.9,192.5)" />
<use xlink:href="#f2_2a" transform="matrix(12,0,0,12,810.4,192.5)" />
<use xlink:href="#f2_21" transform="matrix(12,0,0,12,819.2,192.5)" />
<use xlink:href="#f2_2f" transform="matrix(12,0,0,12,827.6,192.5)" />
<use xlink:href="#f2_2g" transform="matrix(12,0,0,12,834.6,192.5)" />
<use xlink:href="#f2_2l" transform="matrix(12,0,0,12,840.4,192.5)" />
<use xlink:href="#f2_g" transform="matrix(12,0,0,12,848.8,192.5)" />
<use xlink:href="#f2_1z" transform="matrix(12,0,0,12,55,216.8)" />
<use xlink:href="#f2_2b" transform="matrix(12,0,0,12,63.1,216.8)" />
<use xlink:href="#f2_2b" transform="matrix(12,0,0,12,72.3,216.8)" />
<use xlink:href="#f2_2c" transform="matrix(12,0,0,12,81.8,216.8)" />
<use xlink:href="#f2_21" transform="matrix(12,0,0,12,91,216.8)" />
<use xlink:href="#f2_2e" transform="matrix(12,0,0,12,99,216.8)" />
<use xlink:href="#f2_1x" transform="matrix(12,0,0,12,105.2,216.8)" />
<use xlink:href="#f2_2g" transform="matrix(12,0,0,12,112.9,216.8)" />
<use xlink:href="#f2_25" transform="matrix(12,0,0,12,118.4,216.8)" />
<use xlink:href="#f2_2b" transform="matrix(12,0,0,12,122.8,216.8)" />
<use xlink:href="#f2_2a" transform="matrix(12,0,0,12,132.3,216.8)" />
<use xlink:href="#f2_1x" transform="matrix(12,0,0,12,146.7,216.8)" />
<use xlink:href="#f2_2a" transform="matrix(12,0,0,12,155.2,216.8)" />
<use xlink:href="#f2_20" transform="matrix(12,0,0,12,164,216.8)" />
<use xlink:href="#f2_2f" transform="matrix(12,0,0,12,178.6,216.8)" />
<use xlink:href="#f2_2h" transform="matrix(12,0,0,12,185.6,216.8)" />
<use xlink:href="#f2_2c" transform="matrix(12,0,0,12,194.7,216.8)" />
<use xlink:href="#f2_21" transform="matrix(12,0,0,12,203.9,216.8)" />
<use xlink:href="#f2_2e" transform="matrix(12,0,0,12,212,216.8)" />
<use xlink:href="#f2_2i" transform="matrix(12,0,0,12,218.2,216.8)" />
<use xlink:href="#f2_25" transform="matrix(12,0,0,12,227.4,216.8)" />
<use xlink:href="#f2_2f" transform="matrix(12,0,0,12,232.1,216.8)" />
<use xlink:href="#f2_25" transform="matrix(12,0,0,12,239.4,216.8)" />
<use xlink:href="#f2_2b" transform="matrix(12,0,0,12,243.8,216.8)" />
<use xlink:href="#f2_2a" transform="matrix(12,0,0,12,253.7,216.8)" />
<use xlink:href="#f2_g" transform="matrix(12,0,0,12,262.5,216.8)" />
<use xlink:href="#f2_2f" transform="matrix(12,0,0,12,272.7,216.8)" />
<use xlink:href="#f2_2h" transform="matrix(12,0,0,12,279.7,216.8)" />
<use xlink:href="#f2_23" transform="matrix(12,0,0,12,288.9,216.8)" />
<use xlink:href="#f2_23" transform="matrix(12,0,0,12,298,216.8)" />
<use xlink:href="#f2_21" transform="matrix(12,0,0,12,307.2,216.8)" />
<use xlink:href="#f2_2f" transform="matrix(12,0,0,12,315.3,216.8)" />
<use xlink:href="#f2_2g" transform="matrix(12,0,0,12,322.2,216.8)" />
<use xlink:href="#f2_2b" transform="matrix(12,0,0,12,333.2,216.8)" />
<use xlink:href="#f2_2a" transform="matrix(12,0,0,12,342.7,216.8)" />
<use xlink:href="#f2_21" transform="matrix(12,0,0,12,351.5,216.8)" />
<use xlink:href="#f2_29" transform="matrix(12,0,0,12,365.1,216.8)" />
<use xlink:href="#f2_2b" transform="matrix(12,0,0,12,378.6,216.8)" />
<use xlink:href="#f2_2e" transform="matrix(12,0,0,12,388.2,216.8)" />
<use xlink:href="#f2_21" transform="matrix(12,0,0,12,394.4,216.8)" />
<use xlink:href="#f2_2i" transform="matrix(12,0,0,12,407.9,216.8)" />
<use xlink:href="#f2_1x" transform="matrix(12,0,0,12,416.7,216.8)" />
<use xlink:href="#f2_28" transform="matrix(12,0,0,12,425.1,216.8)" />
<use xlink:href="#f2_2h" transform="matrix(12,0,0,12,429.9,216.8)" />
<use xlink:href="#f2_21" transform="matrix(12,0,0,12,439.1,216.8)" />
<use xlink:href="#f2_2j" transform="matrix(12,0,0,12,452.6,216.8)" />
<use xlink:href="#f2_24" transform="matrix(12,0,0,12,465.9,216.8)" />
<use xlink:href="#f2_25" transform="matrix(12,0,0,12,475,216.8)" />
<use xlink:href="#f2_1z" transform="matrix(12,0,0,12,479.7,216.8)" />
<use xlink:href="#f2_24" transform="matrix(12,0,0,12,488.2,216.8)" />
<use xlink:href="#f2_2g" transform="matrix(12,0,0,12,502.4,216.8)" />
<use xlink:href="#f2_24" transform="matrix(12,0,0,12,507.9,216.8)" />
<use xlink:href="#f2_21" transform="matrix(12,0,0,12,516.7,216.8)" />
<use xlink:href="#f2_29" transform="matrix(12,0,0,12,530.8,216.8)" />
<use xlink:href="#f2_1x" transform="matrix(12,0,0,12,544.7,216.8)" />
<use xlink:href="#f2_2a" transform="matrix(12,0,0,12,553.1,216.8)" />
<use xlink:href="#f2_1x" transform="matrix(12,0,0,12,561.9,216.8)" />
<use xlink:href="#f2_23" transform="matrix(12,0,0,12,570,216.8)" />
<use xlink:href="#f2_21" transform="matrix(12,0,0,12,579.2,216.8)" />
<use xlink:href="#f2_29" transform="matrix(12,0,0,12,587.6,216.8)" />
<use xlink:href="#f2_21" transform="matrix(12,0,0,12,601.5,216.8)" />
<use xlink:href="#f2_2a" transform="matrix(12,0,0,12,609.9,216.8)" />
<use xlink:href="#f2_2g" transform="matrix(12,0,0,12,618.7,216.8)" />
<use xlink:href="#f2_2b" transform="matrix(12,0,0,12,629.3,216.8)" />
<use xlink:href="#f2_22" transform="matrix(12,0,0,12,638.8,216.8)" />
<use xlink:href="#f2_2g" transform="matrix(12,0,0,12,649.8,216.8)" />
<use xlink:href="#f2_24" transform="matrix(12,0,0,12,655.3,216.8)" />
<use xlink:href="#f2_21" transform="matrix(12,0,0,12,664.1,216.8)" />
<use xlink:href="#f2_1z" transform="matrix(12,0,0,12,677.6,216.8)" />
<use xlink:href="#f2_2b" transform="matrix(12,0,0,12,685.7,216.8)" />
<use xlink:href="#f2_28" transform="matrix(12,0,0,12,695.2,216.8)" />
<use xlink:href="#f2_2b" transform="matrix(12,0,0,12,699.6,216.8)" />
<use xlink:href="#f2_2a" transform="matrix(12,0,0,12,709.1,216.8)" />
<use xlink:href="#f2_2l" transform="matrix(12,0,0,12,718.3,216.8)" />
<use xlink:href="#f2_29" transform="matrix(12,0,0,12,732.6,216.8)" />
<use xlink:href="#f2_2h" transform="matrix(12,0,0,12,746.5,216.8)" />
<use xlink:href="#f2_2f" transform="matrix(12,0,0,12,756,216.8)" />
<use xlink:href="#f2_2g" transform="matrix(12,0,0,12,763,216.8)" />
<use xlink:href="#f2_25" transform="matrix(12,0,0,12,774,216.8)" />
<use xlink:href="#f2_2a" transform="matrix(12,0,0,12,778.7,216.8)" />
<use xlink:href="#f2_1z" transform="matrix(12,0,0,12,787.5,216.8)" />
<use xlink:href="#f2_28" transform="matrix(12,0,0,12,796,216.8)" />
<use xlink:href="#f2_2h" transform="matrix(12,0,0,12,801.1,216.8)" />
<use xlink:href="#f2_20" transform="matrix(12,0,0,12,810.2,216.8)" />
<use xlink:href="#f2_21" transform="matrix(12,0,0,12,819.4,216.8)" />
<use xlink:href="#f2_22" transform="matrix(12,0,0,12,833,216.8)" />
<use xlink:href="#f2_2b" transform="matrix(12,0,0,12,838.5,216.8)" />
<use xlink:href="#f2_2e" transform="matrix(12,0,0,12,848,216.8)" />
<use xlink:href="#f2_1x" transform="matrix(12,0,0,12,55,241)" />
<use xlink:href="#f2_2j" transform="matrix(12,0,0,12,63.1,241)" />
<use xlink:href="#f2_1x" transform="matrix(12,0,0,12,76.3,241)" />
<use xlink:href="#f2_2e" transform="matrix(12,0,0,12,84.4,241)" />
<use xlink:href="#f2_20" transform="matrix(12,0,0,12,90.6,241)" />
<use xlink:href="#f2_2f" transform="matrix(12,0,0,12,99.8,241)" />
<use xlink:href="#f2_i" transform="matrix(12,0,0,12,106.7,241)" />
<use xlink:href="#f2_1j" transform="matrix(12,0,0,12,55,265.2)" />
<use xlink:href="#f2_2b" transform="matrix(12,0,0,12,65.3,265.2)" />
<use xlink:href="#f2_28" transform="matrix(12,0,0,12,74.8,265.2)" />
<use xlink:href="#f2_i" transform="matrix(12,0,0,12,79.2,265.2)" />
<use xlink:href="#f2_17" transform="matrix(12,0,0,12,88.7,265.2)" />
<use xlink:href="#f2_25" transform="matrix(12,0,0,12,102.2,265.2)" />
<use xlink:href="#f2_2i" transform="matrix(12,0,0,12,107,265.2)" />
<use xlink:href="#f2_21" transform="matrix(12,0,0,12,115.8,265.2)" />
<use xlink:href="#f2_2a" transform="matrix(12,0,0,12,124.2,265.2)" />
<use xlink:href="#f3_2k" transform="matrix(12,0,0,12,55,289.4)" />
<use xlink:href="#f3_f" transform="matrix(12,0,0,12,68.6,289.4)" />
<use xlink:href="#f3_2l" transform="matrix(12,0,0,12,84,289.4)" />
<use xlink:href="#f3_f" transform="matrix(12,0,0,12,97.1,289.4)" />
<use xlink:href="#f3_2m" transform="matrix(12,0,0,12,112.2,289.4)" />
<use xlink:href="#f3_x" transform="matrix(12,0,0,12,125,289.4)" />
<use xlink:href="#f3_l" transform="matrix(12,0,0,12,140,289.4)" />
<use xlink:href="#f3_m" transform="matrix(12,0,0,12,149.2,289.4)" />
<use xlink:href="#f3_4s" transform="matrix(12,0,0,12,163.1,289.4)" />
<use xlink:href="#f3_i" transform="matrix(12,0,0,12,181.4,289.4)" />
<use xlink:href="#f3_i" transform="matrix(12,0,0,12,185.8,289.4)" />
<use xlink:href="#f3_c" transform="matrix(12,0,0,12,190.6,289.4)" />
<use xlink:href="#f3_l" transform="matrix(12,0,0,12,196.8,289.4)" />
<use xlink:href="#f3_d" transform="matrix(12,0,0,12,205.9,289.4)" />
<use xlink:href="#f3_n" transform="matrix(12,0,0,12,55,313.6)" />
<use xlink:href="#f3_c" transform="matrix(12,0,0,12,64.2,313.6)" />
<use xlink:href="#f3_2l" transform="matrix(12,0,0,12,70.8,313.6)" />
<use xlink:href="#f3_f" transform="matrix(12,0,0,12,84,313.6)" />
<use xlink:href="#f3_2m" transform="matrix(12,0,0,12,99,313.6)" />
<use xlink:href="#f3_d" transform="matrix(12,0,0,12,107,313.6)" />
<use xlink:href="#f3_f" transform="matrix(12,0,0,12,118,313.6)" />
<use xlink:href="#f3_m" transform="matrix(12,0,0,12,133,313.6)" />
<use xlink:href="#f3_2k" transform="matrix(12,0,0,12,142.2,313.6)" />
<use xlink:href="#f3_x" transform="matrix(12,0,0,12,155.7,313.6)" />
<use xlink:href="#f3_n" transform="matrix(12,0,0,12,170.8,313.6)" />
<use xlink:href="#f3_n" transform="matrix(12,0,0,12,179.9,313.6)" />
<use xlink:href="#f3_4s" transform="matrix(12,0,0,12,193.8,313.6)" />
<use xlink:href="#f3_i" transform="matrix(12,0,0,12,211.8,313.6)" />
<use xlink:href="#f3_i" transform="matrix(12,0,0,12,216.6,313.6)" />
<use xlink:href="#f3_c" transform="matrix(12,0,0,12,221,313.6)" />
<use xlink:href="#f3_m" transform="matrix(12,0,0,12,227.2,313.6)" />
<use xlink:href="#f3_d" transform="matrix(12,0,0,12,236.3,313.6)" />
<use xlink:href="#f3_c" transform="matrix(12,0,0,12,55,338.1)" />
<use xlink:href="#f3_2k" transform="matrix(12,0,0,12,61.3,338.1)" />
<use xlink:href="#f3_f" transform="matrix(12,0,0,12,74.8,338.1)" />
<use xlink:href="#f3_2m" transform="matrix(12,0,0,12,89.8,338.1)" />
<use xlink:href="#f3_d" transform="matrix(12,0,0,12,97.9,338.1)" />
<use xlink:href="#f3_x" transform="matrix(12,0,0,12,108.8,338.1)" />
<use xlink:href="#f3_m" transform="matrix(12,0,0,12,123.9,338.1)" />
<use xlink:href="#f3_2l" transform="matrix(12,0,0,12,133,338.1)" />
<use xlink:href="#f3_4s" transform="matrix(12,0,0,12,146.2,338.1)" />
<use xlink:href="#f3_i" transform="matrix(12,0,0,12,164.5,338.1)" />
<use xlink:href="#f3_i" transform="matrix(12,0,0,12,169.3,338.1)" />
<use xlink:href="#f3_c" transform="matrix(12,0,0,12,174,338.1)" />
<use xlink:href="#f3_n" transform="matrix(12,0,0,12,180.3,338.1)" />
<use xlink:href="#f3_d" transform="matrix(12,0,0,12,189.4,338.1)" />
<use xlink:href="#f2_2k" transform="matrix(12,0,0,12,55,362.4)" />
<use xlink:href="#f2_f" transform="matrix(12,0,0,12,68.6,362.4)" />
<use xlink:href="#f2_2l" transform="matrix(12,0,0,12,84,362.4)" />
<use xlink:href="#f2_f" transform="matrix(12,0,0,12,97.1,362.4)" />
<use xlink:href="#f2_2m" transform="matrix(12,0,0,12,112.2,362.4)" />
<use xlink:href="#f2_x" transform="matrix(12,0,0,12,125,362.4)" />
<use xlink:href="#f2_l" transform="matrix(12,0,0,12,140,362.4)" />
<use xlink:href="#f2_m" transform="matrix(12,0,0,12,149.2,362.4)" />
<use xlink:href="#f2_m" transform="matrix(12,0,0,12,55,386.6)" />
<use xlink:href="#f2_2k" transform="matrix(12,0,0,12,64.2,386.6)" />
<use xlink:href="#f2_f" transform="matrix(12,0,0,12,77.8,386.6)" />
<use xlink:href="#f2_n" transform="matrix(12,0,0,12,92.8,386.6)" />
<use xlink:href="#f2_2l" transform="matrix(12,0,0,12,102.3,386.6)" />
<use xlink:href="#f2_f" transform="matrix(12,0,0,12,115.5,386.6)" />
<use xlink:href="#f2_n" transform="matrix(12,0,0,12,130.5,386.6)" />
<use xlink:href="#f2_2m" transform="matrix(12,0,0,12,139.6,386.6)" />
<use xlink:href="#f2_x" transform="matrix(12,0,0,12,152.5,386.6)" />
<use xlink:href="#f2_n" transform="matrix(12,0,0,12,167.5,386.6)" />
<use xlink:href="#f2_n" transform="matrix(12,0,0,12,176.6,386.6)" />
<use xlink:href="#f2_2k" transform="matrix(12,0,0,12,55,410.8)" />
<use xlink:href="#f3_4y" transform="matrix(12,0,0,12,68.6,410.8)" />
<use xlink:href="#f2_m" transform="matrix(12,0,0,12,82.5,410.8)" />
<use xlink:href="#f2_2l" transform="matrix(12,0,0,12,92.1,410.8)" />
<use xlink:href="#f2_f" transform="matrix(12,0,0,12,105.2,410.8)" />
<use xlink:href="#f2_2m" transform="matrix(12,0,0,12,120.2,410.8)" />
<use xlink:href="#f2_x" transform="matrix(12,0,0,12,133.1,410.8)" />
</g>
<g clip-path="url(#c0_161)">
<g fill="#000000" >
<use xlink:href="#f2_l" transform="matrix(12.5,0,0,12.2,65.8,437.7)" />
<use xlink:href="#f2_l" transform="matrix(12.5,0,0,12.2,97,437.7)" />
<use xlink:href="#f2_l" transform="matrix(12.5,0,0,12.2,127.7,437.7)" />
<use xlink:href="#f2_2k" transform="matrix(12.5,0,0,12.2,155.5,437.7)" />
<use xlink:href="#f2_l" transform="matrix(12.5,0,0,12.2,198.7,437.7)" />
<use xlink:href="#f2_m" transform="matrix(12.5,0,0,12.2,207.8,437.7)" />
<use xlink:href="#f2_m" transform="matrix(12.5,0,0,12.2,66,465.3)" />
<use xlink:href="#f2_n" transform="matrix(12.5,0,0,12.2,97.3,465.3)" />
<use xlink:href="#f2_n" transform="matrix(12.5,0,0,12.2,127.9,465.3)" />
<use xlink:href="#f2_2l" transform="matrix(12.5,0,0,12.2,155.9,465.3)" />
<use xlink:href="#f2_n" transform="matrix(12.5,0,0,12.2,199.6,465.3)" />
<use xlink:href="#f2_n" transform="matrix(12.5,0,0,12.2,208.8,465.3)" />
<use xlink:href="#f2_l" transform="matrix(12.5,0,0,12.2,65.8,492.9)" />
<use xlink:href="#f2_m" transform="matrix(12.5,0,0,12.2,102.3,492.9)" />
<use xlink:href="#f2_l" transform="matrix(12.5,0,0,12.2,127.7,492.9)" />
<use xlink:href="#f2_2m" transform="matrix(12.5,0,0,12.2,156.1,492.9)" />
<use xlink:href="#f2_k" transform="matrix(12.5,0,0,12.2,204.1,492.9)" />
<use xlink:href="#f4_4r" transform="matrix(12.5,0,0,12.2,58.2,439.1)" />
<use xlink:href="#f4_57" transform="matrix(12.5,0,0,12.2,137.2,439.1)" />
<use xlink:href="#f4_4r" transform="matrix(12.5,0,0,12.2,147.5,439.1)" />
<use xlink:href="#f4_57" transform="matrix(12.5,0,0,12.2,166.2,439.1)" />
<use xlink:href="#f4_4r" transform="matrix(12.5,0,0,12.2,192.4,439.1)" />
<use xlink:href="#f4_57" transform="matrix(12.5,0,0,12.2,218,439.1)" />
<use xlink:href="#f4_4s" transform="matrix(12.5,0,0,12.2,58.2,456.8)" />
<use xlink:href="#f4_58" transform="matrix(12.5,0,0,12.2,137.2,456.8)" />
<use xlink:href="#f4_4s" transform="matrix(12.5,0,0,12.2,147.5,456.8)" />
<use xlink:href="#f4_58" transform="matrix(12.5,0,0,12.2,166.2,456.8)" />
<use xlink:href="#f4_4s" transform="matrix(12.5,0,0,12.2,192.4,456.8)" />
<use xlink:href="#f4_58" transform="matrix(12.5,0,0,12.2,218,456.8)" />
<use xlink:href="#f4_x" transform="matrix(12.5,0,0,12.2,178,465.3)" />
<use xlink:href="#f4_4s" transform="matrix(12.5,0,0,12.2,58.2,474.4)" />
<use xlink:href="#f4_58" transform="matrix(12.5,0,0,12.2,137.2,474.4)" />
<use xlink:href="#f4_4s" transform="matrix(12.5,0,0,12.2,147.5,474.4)" />
<use xlink:href="#f4_58" transform="matrix(12.5,0,0,12.2,166.2,474.4)" />
<use xlink:href="#f4_4s" transform="matrix(12.5,0,0,12.2,192.4,474.4)" />
<use xlink:href="#f4_58" transform="matrix(12.5,0,0,12.2,218,474.4)" />
<use xlink:href="#f4_4s" transform="matrix(12.5,0,0,12.2,58.2,492)" />
<use xlink:href="#f4_58" transform="matrix(12.5,0,0,12.2,137.2,492)" />
<use xlink:href="#f4_4s" transform="matrix(12.5,0,0,12.2,147.5,492)" />
<use xlink:href="#f4_58" transform="matrix(12.5,0,0,12.2,166.2,492)" />
<use xlink:href="#f4_4s" transform="matrix(12.5,0,0,12.2,192.4,492)" />
<use xlink:href="#f4_58" transform="matrix(12.5,0,0,12.2,218,492)" />
<use xlink:href="#f4_h" transform="matrix(12.5,0,0,12.2,92.3,492.9)" />
<use xlink:href="#f4_4t" transform="matrix(12.5,0,0,12.2,58.2,497.8)" />
<use xlink:href="#f4_59" transform="matrix(12.5,0,0,12.2,137.2,497.8)" />
<use xlink:href="#f4_4t" transform="matrix(12.5,0,0,12.2,147.5,497.8)" />
<use xlink:href="#f4_59" transform="matrix(12.5,0,0,12.2,166.2,497.8)" />
<use xlink:href="#f4_4t" transform="matrix(12.5,0,0,12.2,192.4,497.8)" />
<use xlink:href="#f4_59" transform="matrix(12.5,0,0,12.2,218,497.8)" />
</g>
</g>
<g fill="#000000" >
<use xlink:href="#f2_11" transform="matrix(12,0,0,12,55,523.4)" />
<use xlink:href="#f2_1o" transform="matrix(12,0,0,12,67.9,523.4)" />
<use xlink:href="#f2_x" transform="matrix(12,0,0,12,85.8,523.4)" />
<use xlink:href="#f2_12" transform="matrix(12,0,0,12,100.8,523.4)" />
<use xlink:href="#f2_11" transform="matrix(12,0,0,12,55,547.6)" />
<use xlink:href="#f3_4y" transform="matrix(12,0,0,12,67.9,547.6)" />
<use xlink:href="#f2_l" transform="matrix(12,0,0,12,77,547.6)" />
<use xlink:href="#f2_c" transform="matrix(12,0,0,12,86.2,547.6)" />
<use xlink:href="#f2_11" transform="matrix(12,0,0,12,92.8,547.6)" />
<use xlink:href="#f2_1o" transform="matrix(12,0,0,12,105.6,547.6)" />
<use xlink:href="#f2_d" transform="matrix(12,0,0,12,118.9,547.6)" />
<use xlink:href="#f2_x" transform="matrix(12,0,0,12,129.8,547.6)" />
<use xlink:href="#f2_11" transform="matrix(12,0,0,12,144.8,547.6)" />
<use xlink:href="#f3_4y" transform="matrix(12,0,0,12,157.7,547.6)" />
<use xlink:href="#f2_l" transform="matrix(12,0,0,12,166.9,547.6)" />
<use xlink:href="#f2_c" transform="matrix(12,0,0,12,176.1,547.6)" />
<use xlink:href="#f2_12" transform="matrix(12,0,0,12,182.3,547.6)" />
<use xlink:href="#f2_d" transform="matrix(12,0,0,12,194.4,547.6)" />
<use xlink:href="#f2_19" transform="matrix(12,0,0,12,55,572.2)" />
<use xlink:href="#f5_1ad" transform="matrix(12,0,0,12,66,572.2)" />
<use xlink:href="#f2_1o" transform="matrix(12,0,0,12,75.9,572.2)" />
<use xlink:href="#f2_x" transform="matrix(12,0,0,12,93.5,572.2)" />
<use xlink:href="#f2_11" transform="matrix(12,0,0,12,108.5,572.2)" />
<use xlink:href="#f3_4y" transform="matrix(12,0,0,12,121.4,572.2)" />
<use xlink:href="#f2_l" transform="matrix(12,0,0,12,130.6,572.2)" />
<use xlink:href="#f5_1ad" transform="matrix(12,0,0,12,139.7,572.2)" />
<use xlink:href="#f2_12" transform="matrix(12,0,0,12,144.9,572.2)" />
<use xlink:href="#f2_1o" transform="matrix(12,0,0,12,55,596.4)" />
<use xlink:href="#f2_x" transform="matrix(12,0,0,12,73,596.4)" />
<use xlink:href="#f2_11" transform="matrix(12,0,0,12,88,596.4)" />
<use xlink:href="#f3_4y" transform="matrix(12,0,0,12,100.9,596.4)" />
<use xlink:href="#f2_l" transform="matrix(12,0,0,12,110,596.4)" />
<use xlink:href="#f2_i" transform="matrix(12,0,0,12,119.2,596.4)" />
<use xlink:href="#f2_12" transform="matrix(12,0,0,12,124,596.4)" />
</g>
<path d="M90.4,628.4h80.2" class="g2_161" />
<g clip-path="url(#c1_161)">
<g fill="#000000" >
<use xlink:href="#f2_c" transform="matrix(12.7,0,0,12.3,91.2,621.4)" />
<use xlink:href="#f2_11" transform="matrix(12.7,0,0,12.3,97.8,621.4)" />
<use xlink:href="#f2_20" transform="matrix(12.7,0,0,12.3,110.7,621.4)" />
<use xlink:href="#f2_26" transform="matrix(12.7,0,0,12.3,119.9,621.4)" />
<use xlink:href="#f2_i" transform="matrix(12.7,0,0,12.3,123.3,621.4)" />
<use xlink:href="#f2_11" transform="matrix(12.7,0,0,12.3,127.3,621.4)" />
<use xlink:href="#f2_d" transform="matrix(12.7,0,0,12.3,141,621.4)" />
<use xlink:href="#f2_i" transform="matrix(12.7,0,0,12.3,150.2,621.4)" />
<use xlink:href="#f2_12" transform="matrix(12.7,0,0,12.3,157.9,621.4)" />
<use xlink:href="#f2_1o" transform="matrix(12.7,0,0,12.3,57.9,633.1)" />
<use xlink:href="#f2_2o" transform="matrix(12.7,0,0,12.3,116.7,647.6)" />
<use xlink:href="#f2_11" transform="matrix(12.7,0,0,12.3,123.9,647.6)" />
<use xlink:href="#f2_2o" transform="matrix(12.7,0,0,12.3,140.5,647.6)" />
<use xlink:href="#f4_x" transform="matrix(12.7,0,0,12.3,75.7,633.1)" />
</g>
</g>
<g clip-path="url(#c2_161)">
<g fill="#000000" >
<use xlink:href="#f2_l" transform="matrix(12.5,0,0,12.2,115.4,677.5)" />
<use xlink:href="#f2_l" transform="matrix(12.5,0,0,12.2,147,677.5)" />
<use xlink:href="#f2_l" transform="matrix(12.5,0,0,12.2,177.9,677.5)" />
<use xlink:href="#f2_2o" transform="matrix(12.5,0,0,12.2,56.8,705.1)" />
<use xlink:href="#f2_11" transform="matrix(12.5,0,0,12.2,64,705.1)" />
<use xlink:href="#f2_2o" transform="matrix(12.5,0,0,12.2,80.7,705.1)" />
<use xlink:href="#f2_m" transform="matrix(12.5,0,0,12.2,115.7,705.1)" />
<use xlink:href="#f2_n" transform="matrix(12.5,0,0,12.2,147.2,705.1)" />
<use xlink:href="#f2_n" transform="matrix(12.5,0,0,12.2,178.1,705.1)" />
<use xlink:href="#f2_l" transform="matrix(12.5,0,0,12.2,115.4,732.7)" />
<use xlink:href="#f2_m" transform="matrix(12.5,0,0,12.2,152.3,732.7)" />
<use xlink:href="#f2_l" transform="matrix(12.5,0,0,12.2,177.9,732.7)" />
<use xlink:href="#f4_4r" transform="matrix(12.5,0,0,12.2,107.8,679)" />
<use xlink:href="#f4_57" transform="matrix(12.5,0,0,12.2,187.5,679)" />
<use xlink:href="#f4_4s" transform="matrix(12.5,0,0,12.2,107.8,696.6)" />
<use xlink:href="#f4_58" transform="matrix(12.5,0,0,12.2,187.5,696.6)" />
<use xlink:href="#f4_x" transform="matrix(12.5,0,0,12.2,93.1,705.1)" />
<use xlink:href="#f4_4s" transform="matrix(12.5,0,0,12.2,107.8,714.2)" />
<use xlink:href="#f4_58" transform="matrix(12.5,0,0,12.2,187.5,714.2)" />
<use xlink:href="#f4_4s" transform="matrix(12.5,0,0,12.2,107.8,731.8)" />
<use xlink:href="#f4_58" transform="matrix(12.5,0,0,12.2,187.5,731.8)" />
<use xlink:href="#f4_h" transform="matrix(12.5,0,0,12.2,142.2,732.7)" />
<use xlink:href="#f4_4t" transform="matrix(12.5,0,0,12.2,107.8,737.6)" />
<use xlink:href="#f4_59" transform="matrix(12.5,0,0,12.2,187.5,737.6)" />
</g>
</g>
<g fill="#000000" >
<use xlink:href="#f2_2o" transform="matrix(12,0,0,12,55,762.9)" />
<use xlink:href="#f2_11" transform="matrix(12,0,0,12,63.5,762.9)" />
<use xlink:href="#f2_2o" transform="matrix(12,0,0,12,81,762.9)" />
<use xlink:href="#f2_x" transform="matrix(12,0,0,12,89.4,762.9)" />
<use xlink:href="#f2_l" transform="matrix(12,0,0,12,104.5,762.9)" />
<use xlink:href="#f2_c" transform="matrix(12,0,0,12,113.6,762.9)" />
<use xlink:href="#f2_n" transform="matrix(12,0,0,12,119.8,762.9)" />
<use xlink:href="#f2_f" transform="matrix(12,0,0,12,133.4,762.9)" />
<use xlink:href="#f2_q" transform="matrix(12,0,0,12,148.4,762.9)" />
<use xlink:href="#f2_d" transform="matrix(12,0,0,12,157.6,762.9)" />
<use xlink:href="#f3_4y" transform="matrix(12,0,0,12,168.4,762.9)" />
<use xlink:href="#f2_l" transform="matrix(12,0,0,12,182.3,762.9)" />
<use xlink:href="#f2_c" transform="matrix(12,0,0,12,191.1,762.9)" />
<use xlink:href="#f2_m" transform="matrix(12,0,0,12,197.3,762.9)" />
<use xlink:href="#f3_4y" transform="matrix(12,0,0,12,211.3,762.9)" />
<use xlink:href="#f2_n" transform="matrix(12,0,0,12,224.8,762.9)" />
<use xlink:href="#f2_d" transform="matrix(12,0,0,12,234,762.9)" />
<use xlink:href="#f2_f" transform="matrix(12,0,0,12,245,762.9)" />
<use xlink:href="#f2_l" transform="matrix(12,0,0,12,259.6,762.9)" />
<use xlink:href="#f2_c" transform="matrix(12,0,0,12,273.2,762.9)" />
<use xlink:href="#f3_4y" transform="matrix(12,0,0,12,279.5,762.9)" />
<use xlink:href="#f2_o" transform="matrix(12,0,0,12,288.7,762.9)" />
<use xlink:href="#f3_4y" transform="matrix(12,0,0,12,302.6,762.9)" />
<use xlink:href="#f2_n" transform="matrix(12,0,0,12,316.2,762.9)" />
<use xlink:href="#f2_d" transform="matrix(12,0,0,12,325.3,762.9)" />
<use xlink:href="#f2_2o" transform="matrix(12,0,0,12,55,787.1)" />
<use xlink:href="#f2_11" transform="matrix(12,0,0,12,63.5,787.1)" />
<use xlink:href="#f2_2o" transform="matrix(12,0,0,12,81,787.1)" />
<use xlink:href="#f2_x" transform="matrix(12,0,0,12,89.4,787.1)" />
<use xlink:href="#f2_t" transform="matrix(12,0,0,12,104.5,787.1)" />
<use xlink:href="#f2_f" transform="matrix(12,0,0,12,118.4,787.1)" />
<use xlink:href="#f2_l" transform="matrix(12,0,0,12,133,787.1)" />
<use xlink:href="#f3_4y" transform="matrix(12,0,0,12,147.1,787.1)" />
<use xlink:href="#f2_r" transform="matrix(12,0,0,12,160.7,787.1)" />
<use xlink:href="#f2_x" transform="matrix(12,0,0,12,174.6,787.1)" />
<use xlink:href="#f2_n" transform="matrix(12,0,0,12,189.6,787.1)" />
<use xlink:href="#f3_2o" transform="matrix(12,0,0,12,55,811.6)" />
<use xlink:href="#f3_11" transform="matrix(12,0,0,12,63.5,811.6)" />
<use xlink:href="#f3_2o" transform="matrix(12,0,0,12,81,811.6)" />
<use xlink:href="#f3_40" transform="matrix(12,0,0,12,89.4,811.6)" />
<use xlink:href="#f3_k" transform="matrix(12,0,0,12,104.1,811.6)" />
</g>
<g clip-path="url(#c3_161)">
<g fill="#000000" >
<use xlink:href="#f2_t" transform="matrix(12.5,0,0,12.2,159.1,838.5)" />
<use xlink:href="#f2_n" transform="matrix(12.5,0,0,12.2,200.8,838.5)" />
<use xlink:href="#f2_k" transform="matrix(12.5,0,0,12.2,230.7,838.5)" />
<use xlink:href="#f2_c" transform="matrix(12.5,0,0,12.2,57.7,866.1)" />
<use xlink:href="#f2_11" transform="matrix(12.5,0,0,12.2,64.2,866.1)" />
<use xlink:href="#f2_20" transform="matrix(12.5,0,0,12.2,77.1,866.1)" />
<use xlink:href="#f2_26" transform="matrix(12.5,0,0,12.2,86.3,866.1)" />
<use xlink:href="#f2_i" transform="matrix(12.5,0,0,12.2,89.7,866.1)" />
<use xlink:href="#f2_11" transform="matrix(12.5,0,0,12.2,102.6,866.1)" />
<use xlink:href="#f2_d" transform="matrix(12.5,0,0,12.2,116.3,866.1)" />
<use xlink:href="#f2_l" transform="matrix(12.5,0,0,12.2,159,866.1)" />
<use xlink:href="#f2_k" transform="matrix(12.5,0,0,12.2,195.3,866.1)" />
<use xlink:href="#f2_l" transform="matrix(12.5,0,0,12.2,236.5,866.1)" />
<use xlink:href="#f2_r" transform="matrix(12.5,0,0,12.2,164.2,893.6)" />
<use xlink:href="#f2_n" transform="matrix(12.5,0,0,12.2,195.5,893.6)" />
<use xlink:href="#f2_l" transform="matrix(12.5,0,0,12.2,230.6,893.6)" />
<use xlink:href="#f4_h" transform="matrix(12.5,0,0,12.2,190.8,838.5)" />
<use xlink:href="#f4_4r" transform="matrix(12.5,0,0,12.2,146.4,839.9)" />
<use xlink:href="#f4_57" transform="matrix(12.5,0,0,12.2,245,839.9)" />
<use xlink:href="#f4_4s" transform="matrix(12.5,0,0,12.2,146.4,857.5)" />
<use xlink:href="#f4_58" transform="matrix(12.5,0,0,12.2,245,857.5)" />
<use xlink:href="#f4_x" transform="matrix(12.5,0,0,12.2,131.8,866.1)" />
<use xlink:href="#f4_h" transform="matrix(12.5,0,0,12.2,226.6,866.1)" />
<use xlink:href="#f4_4s" transform="matrix(12.5,0,0,12.2,146.4,875.1)" />
<use xlink:href="#f4_58" transform="matrix(12.5,0,0,12.2,245,875.1)" />
<use xlink:href="#f4_4s" transform="matrix(12.5,0,0,12.2,146.4,892.8)" />
<use xlink:href="#f4_58" transform="matrix(12.5,0,0,12.2,245,892.8)" />
<use xlink:href="#f4_h" transform="matrix(12.5,0,0,12.2,154.2,893.6)" />
<use xlink:href="#f4_4t" transform="matrix(12.5,0,0,12.2,146.4,898.5)" />
<use xlink:href="#f4_59" transform="matrix(12.5,0,0,12.2,245,898.5)" />
</g>
</g>
<g clip-path="url(#c4_161)">
<g fill="#000000" >
<use xlink:href="#f2_n" transform="matrix(7.2,0,0,7.1,267.1,989.1)" />
<use xlink:href="#f2_n" transform="matrix(7.2,0,0,7.1,277.7,989.1)" />
<use xlink:href="#f2_n" transform="matrix(7.2,0,0,7.1,320.8,989.1)" />
<use xlink:href="#f2_n" transform="matrix(7.2,0,0,7.1,331.4,989.1)" />
<use xlink:href="#f2_t" transform="matrix(12.5,0,0,12.2,173.1,926.8)" />
<use xlink:href="#f2_n" transform="matrix(12.5,0,0,12.2,215,926.8)" />
<use xlink:href="#f2_k" transform="matrix(12.5,0,0,12.2,245,926.8)" />
<use xlink:href="#f2_l" transform="matrix(12.5,0,0,12.2,293.5,926.8)" />
<use xlink:href="#f2_m" transform="matrix(12.5,0,0,12.2,302.7,926.8)" />
<use xlink:href="#f2_c" transform="matrix(12.5,0,0,12.2,57.7,954.4)" />
<use xlink:href="#f2_11" transform="matrix(12.5,0,0,12.2,64.3,954.4)" />
<use xlink:href="#f2_20" transform="matrix(12.5,0,0,12.2,77.2,954.4)" />
<use xlink:href="#f2_26" transform="matrix(12.5,0,0,12.2,86.3,954.4)" />
<use xlink:href="#f2_i" transform="matrix(12.5,0,0,12.2,89.8,954.4)" />
<use xlink:href="#f2_11" transform="matrix(12.5,0,0,12.2,102.7,954.4)" />
<use xlink:href="#f2_d" transform="matrix(12.5,0,0,12.2,116.5,954.4)" />
<use xlink:href="#f2_i" transform="matrix(12.5,0,0,12.2,125.6,954.4)" />
<use xlink:href="#f2_12" transform="matrix(12.5,0,0,12.2,129.6,954.4)" />
<use xlink:href="#f2_l" transform="matrix(12.5,0,0,12.2,173,954.4)" />
<use xlink:href="#f2_k" transform="matrix(12.5,0,0,12.2,209.4,954.4)" />
<use xlink:href="#f2_l" transform="matrix(12.5,0,0,12.2,250.7,954.4)" />
<use xlink:href="#f2_n" transform="matrix(12.5,0,0,12.2,294.4,954.4)" />
<use xlink:href="#f2_n" transform="matrix(12.5,0,0,12.2,303.6,954.4)" />
<use xlink:href="#f2_r" transform="matrix(12.5,0,0,12.2,178.3,982)" />
<use xlink:href="#f2_n" transform="matrix(12.5,0,0,12.2,209.7,982)" />
<use xlink:href="#f2_l" transform="matrix(12.5,0,0,12.2,244.8,982)" />
<use xlink:href="#f2_k" transform="matrix(12.5,0,0,12.2,299,982)" />
<use xlink:href="#f4_3a" transform="matrix(7.2,0,0,7.1,271.9,989.1)" />
<use xlink:href="#f4_3a" transform="matrix(7.2,0,0,7.1,325.7,989.1)" />
<use xlink:href="#f4_h" transform="matrix(12.5,0,0,12.2,205,926.8)" />
<use xlink:href="#f4_4r" transform="matrix(12.5,0,0,12.2,160.4,928.3)" />
<use xlink:href="#f4_57" transform="matrix(12.5,0,0,12.2,259.3,928.3)" />
<use xlink:href="#f4_4r" transform="matrix(12.5,0,0,12.2,287.3,928.3)" />
<use xlink:href="#f4_57" transform="matrix(12.5,0,0,12.2,313,928.3)" />
<use xlink:href="#f4_4s" transform="matrix(12.5,0,0,12.2,160.4,945.9)" />
<use xlink:href="#f4_58" transform="matrix(12.5,0,0,12.2,259.3,945.9)" />
<use xlink:href="#f4_4s" transform="matrix(12.5,0,0,12.2,287.3,945.9)" />
<use xlink:href="#f4_58" transform="matrix(12.5,0,0,12.2,313,945.9)" />
<use xlink:href="#f4_x" transform="matrix(12.5,0,0,12.2,145.8,954.4)" />
<use xlink:href="#f4_h" transform="matrix(12.5,0,0,12.2,240.8,954.4)" />
<use xlink:href="#f4_4s" transform="matrix(12.5,0,0,12.2,160.4,963.5)" />
<use xlink:href="#f4_58" transform="matrix(12.5,0,0,12.2,259.3,963.5)" />
<use xlink:href="#f4_4s" transform="matrix(12.5,0,0,12.2,287.3,963.5)" />
<use xlink:href="#f4_58" transform="matrix(12.5,0,0,12.2,313,963.5)" />
<use xlink:href="#f4_4s" transform="matrix(12.5,0,0,12.2,160.4,981.1)" />
<use xlink:href="#f4_58" transform="matrix(12.5,0,0,12.2,259.3,981.1)" />
<use xlink:href="#f4_4s" transform="matrix(12.5,0,0,12.2,287.3,981.1)" />
<use xlink:href="#f4_58" transform="matrix(12.5,0,0,12.2,313,981.1)" />
<use xlink:href="#f4_h" transform="matrix(12.5,0,0,12.2,168.2,982)" />
<use xlink:href="#f4_4t" transform="matrix(12.5,0,0,12.2,160.4,986.9)" />
<use xlink:href="#f4_59" transform="matrix(12.5,0,0,12.2,259.3,986.9)" />
<use xlink:href="#f4_4t" transform="matrix(12.5,0,0,12.2,287.3,986.9)" />
<use xlink:href="#f4_59" transform="matrix(12.5,0,0,12.2,313,986.9)" />
</g>
</g>
<g clip-path="url(#c5_161)">
<g fill="#000000" >
<use xlink:href="#f2_t" transform="matrix(12.5,0,0,12.2,171.7,1014.8)" />
<use xlink:href="#f2_c" transform="matrix(12.5,0,0,12.2,57.7,1042.4)" />
<use xlink:href="#f2_11" transform="matrix(12.5,0,0,12.2,64.3,1042.4)" />
<use xlink:href="#f2_20" transform="matrix(12.5,0,0,12.2,77.2,1042.4)" />
<use xlink:href="#f2_26" transform="matrix(12.5,0,0,12.2,86.4,1042.4)" />
<use xlink:href="#f2_i" transform="matrix(12.5,0,0,12.2,89.8,1042.4)" />
<use xlink:href="#f2_11" transform="matrix(12.5,0,0,12.2,102.8,1042.4)" />
<use xlink:href="#f2_d" transform="matrix(12.5,0,0,12.2,116.5,1042.4)" />
<use xlink:href="#f2_i" transform="matrix(12.5,0,0,12.2,125.8,1042.4)" />
<use xlink:href="#f2_12" transform="matrix(12.5,0,0,12.2,129.8,1042.4)" />
<use xlink:href="#f2_l" transform="matrix(12.5,0,0,12.2,166.4,1042.4)" />
<use xlink:href="#f2_m" transform="matrix(12.5,0,0,12.2,175.6,1042.4)" />
<use xlink:href="#f2_l" transform="matrix(12.5,0,0,12.2,166.5,1070)" />
<use xlink:href="#f2_p" transform="matrix(12.5,0,0,12.2,175.7,1070)" />
<use xlink:href="#f4_4r" transform="matrix(12.5,0,0,12.2,160.5,1016.3)" />
<use xlink:href="#f4_57" transform="matrix(12.5,0,0,12.2,185.4,1016.3)" />
<use xlink:href="#f4_4s" transform="matrix(12.5,0,0,12.2,160.5,1033.9)" />
<use xlink:href="#f4_58" transform="matrix(12.5,0,0,12.2,185.4,1033.9)" />
<use xlink:href="#f4_x" transform="matrix(12.5,0,0,12.2,145.9,1042.4)" />
<use xlink:href="#f4_4s" transform="matrix(12.5,0,0,12.2,160.5,1051.5)" />
<use xlink:href="#f4_58" transform="matrix(12.5,0,0,12.2,185.4,1051.5)" />
<use xlink:href="#f4_4s" transform="matrix(12.5,0,0,12.2,160.5,1069.1)" />
<use xlink:href="#f4_58" transform="matrix(12.5,0,0,12.2,185.4,1069.1)" />
<use xlink:href="#f4_4t" transform="matrix(12.5,0,0,12.2,160.5,1074.9)" />
<use xlink:href="#f4_59" transform="matrix(12.5,0,0,12.2,185.4,1074.9)" />
</g>
</g>
<path d="M120.4,1108h80.2" class="g3_161" />
<g clip-path="url(#c6_161)">
<g fill="#000000" >
<use xlink:href="#f2_c" transform="matrix(12.6,0,0,12.3,121.2,1101)" />
<use xlink:href="#f2_11" transform="matrix(12.6,0,0,12.3,127.8,1101)" />
<use xlink:href="#f2_20" transform="matrix(12.6,0,0,12.3,140.6,1101)" />
<use xlink:href="#f2_26" transform="matrix(12.6,0,0,12.3,149.8,1101)" />
<use xlink:href="#f2_i" transform="matrix(12.6,0,0,12.3,153.2,1101)" />
<use xlink:href="#f2_11" transform="matrix(12.6,0,0,12.3,157.3,1101)" />
<use xlink:href="#f2_d" transform="matrix(12.6,0,0,12.3,171,1101)" />
<use xlink:href="#f2_i" transform="matrix(12.6,0,0,12.3,180.1,1101)" />
<use xlink:href="#f2_12" transform="matrix(12.6,0,0,12.3,187.8,1101)" />
<use xlink:href="#f2_1o" transform="matrix(12.6,0,0,12.3,88,1112.7)" />
<use xlink:href="#f2_2o" transform="matrix(12.6,0,0,12.3,146.7,1127.2)" />
<use xlink:href="#f2_11" transform="matrix(12.6,0,0,12.3,153.9,1127.2)" />
<use xlink:href="#f2_2o" transform="matrix(12.6,0,0,12.3,170.5,1127.2)" />
<use xlink:href="#f4_1s" transform="matrix(12.6,0,0,12.3,55.1,1112.7)" />
<use xlink:href="#f4_x" transform="matrix(12.6,0,0,12.3,105.8,1112.7)" />
</g>
</g>
<path fill-rule="evenodd" d="M37.4,38.1h.7v-.7h-.7v.7Z" class="g4_161" />
<path fill-rule="evenodd" d="M37.4,38.1h.7v-.7h-.7v.7Z" class="g4_161" />
<path fill-rule="evenodd" d="M38.1,38.1H871.5v-.7H38.1v.7Z" class="g4_161" />
<path fill-rule="evenodd" d="M871.5,38.1h.8v-.7h-.8v.7Z" class="g4_161" />
<path fill-rule="evenodd" d="M871.5,38.1h.8v-.7h-.8v.7Z" class="g4_161" />
<path fill-rule="evenodd" d="M37.4,1248.5h.7V38.1h-.7V1248.5Z" class="g4_161" />
<path fill-rule="evenodd" d="M872.3,1248.5h.7V38.1h-.7V1248.5Z" class="g4_161" />
<path fill-rule="evenodd" d="M871.5,1248.5h.8V38.1h-.8V1248.5Z" class="g4_161" />
<path fill-rule="evenodd" d="M37.4,1249.2h.7v-.7h-.7v.7Z" class="g4_161" />
<path fill-rule="evenodd" d="M37.4,1249.2h.7v-.7h-.7v.7Z" class="g4_161" />
<path fill-rule="evenodd" d="M38.1,1249.9H871.5v-.7H38.1v.7Z" class="g4_161" />
<path fill-rule="evenodd" d="M38.1,1249.2H871.5v-.7H38.1v.7Z" class="g4_161" />
<path fill-rule="evenodd" d="M872.3,1249.9h.7v-1.4h-.7v1.4Z" class="g4_161" />
<path fill-rule="evenodd" d="M871.5,1249.9H873v-.7h-1.5v.7Z" class="g4_161" />
<path fill-rule="evenodd" d="M871.5,1249.2h.8v-.7h-.8v.7Z" class="g4_161" />
<path fill-rule="evenodd" d="M871.5,1249.2h.8v-.7h-.8v.7Z" class="g4_161" />
<defs>
<path d="M489,-15c0,0,-99,0,-179,30c0,0,-80,30,-136,91c0,0,-56,61,-85,152c0,0,-30,91,-30,212c0,0,0,123,32,218c0,0,33,96,92,161c0,0,59,65,142,98c0,0,82,34,181,34c0,0,40,0,78,-7c0,0,37,-7,69,-18c0,0,31,-11,57,-25c0,0,25,-14,35,-24c0,0,10,-10,14,-17c0,0,4,-7,6,-17c0,0,2,-11,3,-25c0,0,2,-14,2,-35c0,0,0,-22,-2,-38c0,0,-1,-15,-5,-25c0,0,-4,-10,-9,-14c0,0,-5,-5,-12,-5c0,0,-11,0,-28,13c0,0,-18,13,-45,29c0,0,-27,16,-65,29c0,0,-37,13,-89,13c0,0,-58,0,-103,-23c0,0,-45,-23,-77,-67c0,0,-31,-44,-48,-106c0,0,-16,-61,-16,-139c0,0,0,-85,17,-147c0,0,18,-62,50,-103c0,0,33,-40,79,-60c0,0,45,-19,103,-19c0,0,52,0,90,12c0,0,38,12,65,27c0,0,27,15,45,27c0,0,17,12,27,12c0,0,8,0,12,-3c0,0,4,-3,7,-12c0,0,3,-9,5,-25c0,0,1,-16,1,-43c0,0,0,-18,-1,-31c0,0,-1,-14,-3,-23c0,0,-2,-9,-6,-16c0,0,-4,-7,-12,-15c0,0,-8,-9,-32,-22c0,0,-23,-14,-57,-26C661,13,627,1,583,-6c0,0,-43,-9,-94,-9Z" 
id="f0_j"
transform="scale(0.001,-0.001)" />

<path d="M440,150c0,0,41,0,68,8c0,0,28,9,49,26c0,0,20,16,32,41c0,0,11,25,11,58c0,0,0,33,-11,60c0,0,-11,26,-33,44c0,0,-21,18,-55,28c0,0,-33,9,-87,9H298V150ZM407,567c0,0,42,0,68,10c0,0,25,10,42,28c0,0,16,17,24,41c0,0,9,24,9,50c0,0,0,29,-9,52c0,0,-9,23,-27,39c0,0,-18,15,-45,23c0,0,-27,8,-72,8H298V567ZM164,0c0,0,-25,0,-42,15c0,0,-16,14,-16,47V903c0,0,0,33,16,48c0,0,17,14,42,14H406c0,0,88,0,150,-15c0,0,61,-15,103,-45c0,0,42,-30,65,-77c0,0,22,-46,22,-108c0,0,0,-36,-9,-67c0,0,-9,-31,-26,-56c0,0,-17,-25,-42,-45c0,0,-25,-19,-57,-31c0,0,41,-7,76,-26c0,0,34,-19,60,-48c0,0,26,-30,41,-69c0,0,15,-40,15,-89c0,0,0,-51,-14,-93c0,0,-15,-42,-40,-74c0,0,-25,-32,-59,-55c0,0,-35,-23,-77,-38C614,29,573,14,525,7C525,7,478,0,420,0Z" 
id="f0_i"
transform="scale(0.001,-0.001)" />

<path d="M320,-17c0,0,-50,0,-93,9c0,0,-43,8,-76,19c0,0,-32,11,-54,24C97,35,75,48,65,58c0,0,-10,9,-14,28c0,0,-4,18,-4,52c0,0,0,23,1,39c0,0,2,15,5,25c0,0,4,10,9,14c0,0,6,4,13,4c0,0,11,0,30,-12c0,0,19,-13,49,-28c0,0,30,-15,71,-27c0,0,42,-12,96,-12c0,0,36,0,64,8c0,0,29,9,49,25c0,0,19,15,30,38c0,0,10,23,10,52c0,0,0,33,-18,56c0,0,-18,24,-46,42c0,0,-29,18,-66,34c0,0,-36,16,-75,34c0,0,-39,18,-76,41c0,0,-36,23,-65,54c0,0,-29,32,-47,75c0,0,-17,44,-17,104c0,0,0,70,25,122c0,0,26,53,70,88c0,0,43,34,103,51c0,0,59,18,125,18c0,0,35,0,69,-6c0,0,34,-5,64,-14c0,0,30,-9,53,-20c0,0,23,-11,31,-18c0,0,7,-8,10,-13c0,0,3,-5,4,-14c0,0,2,-8,3,-21c0,0,1,-13,1,-33c0,0,0,-21,-1,-36c0,0,-1,-15,-4,-25c0,0,-3,-9,-7,-14c0,0,-5,-4,-14,-4c0,0,-8,0,-26,10c0,0,-18,10,-44,23c0,0,-26,12,-60,22c0,0,-34,10,-75,10c0,0,-32,0,-56,-8c0,0,-24,-8,-40,-21c0,0,-16,-14,-24,-34c0,0,-8,-19,-8,-41c0,0,0,-32,18,-56c0,0,17,-23,46,-42c0,0,30,-18,67,-34c0,0,38,-16,76,-34c0,0,39,-18,76,-41c0,0,38,-22,67,-54c0,0,29,-32,47,-75c0,0,18,-43,18,-101c0,0,0,-76,-29,-133c0,0,-28,-58,-77,-96C572,60,524,21,459,2c0,0,-65,-19,-139,-19Z" 
id="f0_2n"
transform="scale(0.001,-0.001)" />

<path d="M164,0c0,0,-25,0,-42,15c0,0,-16,14,-16,47V903c0,0,0,33,16,48c0,0,17,14,42,14H645c0,0,7,0,12,-4c0,0,5,-3,9,-13c0,0,4,-9,6,-24c0,0,2,-14,2,-36c0,0,0,-21,-2,-36c0,0,-2,-14,-6,-23c0,0,-4,-9,-9,-13c0,0,-5,-4,-12,-4H301V576H593c0,0,6,0,12,-4c0,0,6,-4,9,-13c0,0,4,-8,6,-23c0,0,2,-14,2,-35c0,0,0,-22,-2,-36c0,0,-2,-14,-6,-23c0,0,-3,-8,-9,-12c0,0,-6,-4,-12,-4H301V154H649c0,0,6,0,12,-5c0,0,5,-4,9,-13c0,0,4,-9,6,-23c0,0,2,-15,2,-36c0,0,0,-22,-2,-36c0,0,-2,-15,-6,-24c0,0,-4,-9,-9,-13c0,0,-6,-4,-12,-4Z" 
id="f0_t"
transform="scale(0.001,-0.001)" />

<path d="M79,297c0,0,-19,0,-27,18c0,0,-8,17,-8,60c0,0,0,41,8,59c0,0,8,17,27,17H389c0,0,9,0,15,-4c0,0,7,-4,11,-13c0,0,5,-9,7,-23c0,0,1,-15,1,-36c0,0,0,-43,-8,-61c0,0,-8,-17,-26,-17Z" 
id="f0_oj"
transform="scale(0.001,-0.001)" />

<path d="M121,-4c0,0,-39,0,-60,2C61,-2,39,0,32,8c0,0,-8,8,-3,24c0,0,4,15,18,41L279,495L64,892c0,0,-14,26,-19,42c0,0,-5,17,4,24c0,0,9,8,32,10c0,0,23,2,65,2c0,0,35,0,56,-2c0,0,20,-1,32,-4c0,0,12,-4,17,-10c0,0,5,-6,9,-15L431,620L595,939c0,0,5,9,10,15c0,0,5,6,16,10c0,0,10,3,29,4c0,0,19,2,53,2c0,0,37,0,59,-2c0,0,22,-2,30,-10c0,0,8,-8,4,-24c0,0,-4,-16,-17,-42L564,497L793,73c0,0,14,-26,18,-41c0,0,4,-16,-5,-24c0,0,-9,-8,-32,-10c0,0,-24,-2,-65,-2c0,0,-36,0,-56,2c0,0,-20,1,-31,3c0,0,-12,4,-17,10c0,0,-5,6,-9,15L414,374L233,26c0,0,-4,-9,-9,-15c0,0,-6,-6,-17,-10c0,0,-12,-2,-32,-3c0,0,-21,-2,-54,-2Z" 
id="f0_3e"
transform="scale(0.001,-0.001)" />

<path d="M204,-4c0,0,-28,0,-47,2c0,0,-19,2,-31,5c0,0,-11,4,-16,10c0,0,-4,6,-4,13V939c0,0,0,7,4,13c0,0,5,6,17,10c0,0,11,3,30,6c0,0,19,2,47,2c0,0,29,0,48,-2c0,0,18,-3,29,-6c0,0,11,-4,16,-10c0,0,5,-6,5,-13V26c0,0,0,-7,-5,-13c0,0,-5,-6,-16,-10c0,0,-11,-3,-29,-5c0,0,-19,-2,-48,-2Z" 
id="f0_1c"
transform="scale(0.001,-0.001)" />

<path d="M127,0c0,0,-16,0,-28,3C99,3,87,6,80,15c0,0,-8,8,-11,25c0,0,-3,16,-3,42c0,0,0,25,2,42c0,0,2,18,8,32c0,0,6,14,15,27c0,0,9,13,24,29L282,390c0,0,50,53,81,95c0,0,30,43,47,79c0,0,17,35,24,65c0,0,6,30,6,57c0,0,0,24,-8,46c0,0,-8,22,-23,39c0,0,-15,16,-38,25c0,0,-23,10,-55,10c0,0,-44,0,-78,-12c0,0,-33,-11,-59,-25c0,0,-26,-13,-43,-25c0,0,-17,-12,-27,-12c0,0,-7,0,-11,5c0,0,-5,4,-8,15c0,0,-3,10,-5,28c0,0,-2,17,-2,42c0,0,0,18,1,29c0,0,1,12,4,20c0,0,2,9,6,15c0,0,3,6,13,15c0,0,9,9,34,23c0,0,25,14,61,27c0,0,37,14,81,23c0,0,44,9,92,9c0,0,75,0,131,-19c0,0,57,-19,94,-53c0,0,37,-34,55,-81c0,0,19,-47,19,-100c0,0,0,-47,-9,-93c0,0,-9,-45,-37,-98c0,0,-29,-52,-80,-116c0,0,-52,-64,-136,-148L299,159H679c0,0,8,0,14,-4c0,0,6,-5,11,-14c0,0,4,-9,7,-25c0,0,2,-15,2,-36c0,0,0,-22,-2,-37c0,0,-2,-15,-6,-25c0,0,-3,-10,-9,-14c0,0,-6,-4,-14,-4Z" 
id="f0_rz"
transform="scale(0.001,-0.001)" />

<path d="M385,138c0,0,29,0,52,9c0,0,22,10,39,28c0,0,17,19,28,47c0,0,11,29,19,66c0,0,7,37,9,84c0,0,3,47,3,104c0,0,0,69,-4,122c0,0,-4,52,-11,91c0,0,-8,39,-20,66c0,0,-12,27,-28,43c0,0,-16,16,-37,22c0,0,-21,7,-47,7c0,0,-44,0,-73,-21c0,0,-28,-21,-45,-64c0,0,-17,-42,-24,-106c0,0,-6,-63,-6,-148c0,0,0,-103,8,-171c0,0,8,-67,26,-107c0,0,17,-40,45,-56c0,0,27,-16,66,-16ZM378,-17c0,0,-99,0,-164,33c0,0,-65,34,-103,98c0,0,-38,64,-54,156c0,0,-15,92,-15,209c0,0,0,115,19,208c0,0,19,94,61,160c0,0,42,65,110,101c0,0,68,35,165,35c0,0,99,0,164,-34c0,0,65,-34,103,-98c0,0,39,-64,53,-156c0,0,15,-92,15,-209c0,0,0,-115,-18,-209c0,0,-19,-93,-61,-159C653,118,611,53,543,17c0,0,-67,-34,-165,-34Z" 
id="f0_rx"
transform="scale(0.001,-0.001)" />

<path d="M142,0c0,0,-6,0,-12,4c0,0,-5,3,-9,12c0,0,-4,9,-6,23c0,0,-3,15,-3,36c0,0,0,21,2,36c0,0,2,14,6,23c0,0,4,9,10,13c0,0,5,5,12,5H322V779L166,693c0,0,-17,-8,-28,-10c0,0,-1,0,-3,0c-4,0,-10,1,-14,5c0,0,-6,6,-8,22c0,0,-2,15,-2,44c0,0,0,18,0,29c0,0,1,12,4,20c0,0,3,8,8,14c0,0,5,5,14,11L345,962c0,0,4,3,9,5c0,0,6,2,15,3c0,0,9,1,23,2c0,0,15,0,38,0c0,0,28,0,46,-1c0,0,17,-1,26,-4c0,0,9,-3,12,-7c0,0,3,-4,3,-11V152H675c0,0,7,0,12,-5c0,0,6,-4,10,-13c0,0,4,-9,6,-23c0,0,2,-15,2,-36c0,0,0,-21,-2,-36c0,0,-3,-14,-7,-23c0,0,-4,-9,-9,-12c0,0,-5,-4,-12,-4Z" 
id="f0_ry"
transform="scale(0.001,-0.001)" />

<path d="M337,-17c0,0,-50,0,-93,8c0,0,-43,7,-76,16c0,0,-34,11,-55,22c0,0,-22,11,-29,17c0,0,-6,6,-10,13c0,0,-3,8,-6,18c0,0,-2,10,-3,25c0,0,-1,16,-1,37c0,0,0,36,6,50c0,0,6,13,17,13c0,0,8,0,26,-10c0,0,18,-10,47,-21c0,0,28,-12,66,-22c0,0,38,-10,87,-10c0,0,41,0,72,10c0,0,31,9,53,27c0,0,22,17,33,42c0,0,11,25,11,56c0,0,0,34,-13,61c0,0,-13,26,-39,45c0,0,-26,20,-65,30c0,0,-39,10,-92,10H189c0,0,-9,0,-16,3c0,0,-7,3,-11,11c0,0,-5,8,-7,23c0,0,-1,14,-1,37c0,0,0,22,1,36c0,0,2,13,6,21c0,0,4,7,11,10c0,0,6,3,15,3h85c0,0,43,0,77,10c0,0,33,10,56,29c0,0,23,19,35,45c0,0,12,27,12,59c0,0,0,25,-8,47c0,0,-9,22,-25,38c0,0,-16,16,-41,26c0,0,-26,9,-60,9c0,0,-39,0,-73,-11c0,0,-34,-12,-62,-26c0,0,-27,-13,-46,-25c0,0,-19,-12,-28,-12c0,0,-6,0,-10,2c0,0,-5,3,-8,11c0,0,-3,7,-4,21c0,0,-2,14,-2,37c0,0,0,18,1,31c0,0,1,12,3,20c0,0,2,8,5,14c0,0,4,6,11,13c0,0,8,7,31,21c0,0,23,14,58,28c0,0,35,13,81,22c0,0,46,10,100,10c0,0,70,0,124,-17c0,0,54,-16,91,-47c0,0,37,-31,56,-76c0,0,19,-46,19,-102c0,0,0,-44,-11,-83c0,0,-12,-38,-33,-68c0,0,-22,-29,-54,-50c0,0,-33,-21,-75,-32v-2c0,0,50,-6,91,-26c0,0,40,-19,68,-49c0,0,28,-30,43,-68c0,0,15,-37,15,-81c0,0,0,-72,-28,-128c0,0,-27,-56,-77,-94C604,60,555,22,487,2c0,0,-69,-19,-150,-19Z" 
id="f0_s7"
transform="scale(0.001,-0.001)" />

<path d="M589,371L453,782h-1L317,371ZM106,-4c0,0,-35,0,-54,2C52,-2,32,0,25,8c0,0,-7,9,-5,24c0,0,2,16,11,42L329,931c0,0,4,13,10,21c0,0,6,7,19,12c0,0,13,4,36,5c0,0,23,1,61,1c0,0,44,0,71,-1c0,0,26,-1,40,-5c0,0,15,-5,21,-13c0,0,6,-8,11,-22L896,73c0,0,9,-27,11,-43c0,0,3,-15,-6,-23c0,0,-8,-7,-29,-9c0,0,-21,-2,-57,-2c0,0,-38,0,-59,1c0,0,-22,1,-33,4c0,0,-11,3,-16,9c0,0,-4,6,-7,16L635,220H272L211,31c0,0,-2,-11,-7,-18c0,0,-5,-7,-16,-11c0,0,-11,-3,-31,-4c0,0,-19,-2,-51,-2Z" 
id="f0_5"
transform="scale(0.001,-0.001)" />

<path d="M198,-4c0,0,-27,0,-45,2c0,0,-18,2,-28,5c0,0,-11,4,-15,10c0,0,-4,6,-4,13V887c0,0,0,38,20,58c0,0,20,20,53,20H308c0,0,34,0,59,-6c0,0,24,-5,42,-18c0,0,18,-13,30,-35c0,0,12,-21,21,-52L669,279h3L889,852c0,0,9,32,21,53c0,0,11,22,27,35c0,0,15,14,36,19c0,0,21,6,48,6h132c0,0,21,0,35,-5c0,0,15,-5,24,-15c0,0,9,-11,14,-25c0,0,5,-15,5,-33V26c0,0,0,-7,-4,-13c0,0,-4,-6,-15,-10c0,0,-11,-3,-29,-5c0,0,-18,-2,-45,-2c0,0,-27,0,-45,2c0,0,-18,2,-28,5c0,0,-11,4,-15,10c0,0,-5,6,-5,13V813h-1L764,27c0,0,-3,-10,-10,-16c0,0,-6,-6,-18,-10c0,0,-12,-3,-29,-4c0,0,-18,-1,-44,-1c0,0,-25,0,-43,2c0,0,-18,2,-29,5c0,0,-12,4,-19,10c0,0,-6,6,-9,14L293,813h-2V26c0,0,0,-7,-4,-13c0,0,-4,-6,-15,-10c0,0,-11,-3,-29,-5c0,0,-17,-2,-45,-2Z" 
id="f0_1x"
transform="scale(0.001,-0.001)" />

<path d="M193,-4c0,0,-26,0,-43,2c0,0,-18,2,-27,6c0,0,-10,4,-14,10c0,0,-3,6,-3,13V895c0,0,0,35,20,53c0,0,21,17,50,17H282c0,0,28,0,47,-5c0,0,20,-5,35,-16c0,0,15,-11,29,-31c0,0,13,-20,27,-49L608,511c0,0,17,-32,33,-63c0,0,16,-31,31,-62c0,0,14,-31,29,-60c0,0,14,-30,27,-60h1c0,0,-2,52,-3,109c0,0,-1,57,-1,108V936c0,0,0,7,4,13c0,0,5,6,15,11c0,0,10,4,28,6c0,0,17,2,44,2c0,0,25,0,42,-2c0,0,17,-2,27,-6c0,0,9,-5,13,-11c0,0,4,-6,4,-13V68c0,0,0,-17,-6,-30c0,0,-6,-14,-17,-23C879,15,869,6,856,2c0,0,-14,-3,-28,-3H744c0,0,-26,0,-45,4c0,0,-19,5,-35,19c0,0,-16,14,-31,38c0,0,-15,23,-34,60L359,572c0,0,-21,40,-43,86c0,0,-21,47,-38,91h-2c0,0,3,-54,5,-107c0,0,2,-53,2,-110V27c0,0,0,-7,-5,-13c0,0,-4,-6,-14,-10c0,0,-10,-4,-27,-6c0,0,-17,-2,-44,-2Z" 
id="f0_1y"
transform="scale(0.001,-0.001)" />

<path d="M378,-4c0,0,-28,0,-47,2c0,0,-19,2,-31,5c0,0,-11,4,-16,10c0,0,-4,6,-4,13V805H38c0,0,-8,0,-13,4c0,0,-5,5,-9,14c0,0,-3,9,-5,25c0,0,-2,15,-2,37c0,0,0,22,2,38c0,0,2,15,5,25c0,0,4,9,9,13c0,0,5,4,13,4H718c0,0,7,0,12,-4c0,0,6,-4,10,-13c0,0,3,-10,5,-25c0,0,2,-16,2,-38c0,0,0,-22,-2,-37c0,0,-2,-16,-5,-25c0,0,-4,-9,-10,-14c0,0,-5,-4,-12,-4H476V26c0,0,0,-7,-5,-13c0,0,-5,-6,-16,-10c0,0,-11,-3,-30,-5c0,0,-19,-2,-47,-2Z" 
id="f0_2t"
transform="scale(0.001,-0.001)" />

<path d="M514,145c0,0,72,0,121,27c0,0,48,26,78,73c0,0,30,46,42,107c0,0,13,62,13,131c0,0,0,76,-12,139c0,0,-12,62,-41,106c0,0,-29,45,-76,69c0,0,-48,24,-120,24c0,0,-72,0,-120,-27c0,0,-49,-27,-79,-73c0,0,-29,-45,-42,-106c0,0,-12,-61,-12,-129c0,0,0,-79,12,-142c0,0,12,-63,40,-108c0,0,28,-44,76,-68c0,0,48,-23,120,-23ZM508,-17c0,0,-113,0,-196,29c0,0,-84,29,-140,90c0,0,-56,60,-84,154c0,0,-28,93,-28,221c0,0,0,117,29,210c0,0,30,94,89,160c0,0,59,65,146,101c0,0,87,35,202,35c0,0,110,0,194,-29c0,0,84,-30,140,-90c0,0,56,-60,85,-153c0,0,29,-92,29,-217c0,0,0,-120,-30,-215c0,0,-30,-95,-89,-161C855,118,796,52,709,17c0,0,-87,-34,-201,-34Z" 
id="f0_24"
transform="scale(0.001,-0.001)" />

<path d="M299,0V777H162l36,173H508V0Z" 
id="f1_l"
transform="scale(0.001,-0.001)" />

<path d="M403,168c0,0,50,0,85,37c0,0,35,36,35,89c0,0,0,50,-35,85c0,0,-35,36,-85,36c0,0,-47,0,-81,-37c0,0,-35,-37,-35,-89c0,0,0,-47,36,-84c0,0,35,-37,80,-37Zm3,426c0,0,39,0,70,28c0,0,31,29,31,65c0,0,0,46,-28,77c0,0,-29,31,-73,31c0,0,-42,0,-71,-29c0,0,-28,-29,-28,-70c0,0,0,-44,28,-73c0,0,29,-29,71,-29Zm2,-605c0,0,-145,0,-234,75c0,0,-90,76,-90,197c0,0,0,150,140,239c0,0,-59,52,-87,101c0,0,-27,49,-27,112c0,0,0,103,77,179c0,0,77,75,216,75c0,0,136,0,217,-68c0,0,81,-68,81,-180c0,0,0,-130,-115,-217c0,0,140,-90,140,-237c0,0,0,-124,-89,-200c0,0,-88,-76,-229,-76Z" 
id="f1_s"
transform="scale(0.001,-0.001)" />

<path d="M44,-281L425,1053H537L156,-281Z" 
id="f1_j"
transform="scale(0.001,-0.001)" />

<path d="M407,475c0,0,61,0,105,44c0,0,44,43,44,103c0,0,0,64,-43,108c0,0,-44,43,-109,43c0,0,-57,0,-99,-44c0,0,-42,-45,-42,-107c0,0,0,-62,42,-104c0,0,42,-43,102,-43ZM195,0L430,323c0,0,-67,-8,-85,-8c0,0,-126,0,-212,92c0,0,-87,92,-87,227c0,0,0,141,107,237c0,0,106,96,264,96c0,0,151,0,246,-97c0,0,95,-96,95,-250c0,0,0,-112,-56,-223c0,0,-55,-112,-94,-168L448,0Z" 
id="f1_t"
transform="scale(0.001,-0.001)" />

<path d="M284,67c0,0,51,0,88,12c0,0,37,12,74,30V358l-98,-3c0,0,-100,-4,-135,-39c0,0,-35,-35,-35,-117c0,0,0,-132,106,-132ZM233,-14c0,0,-179,0,-179,208c0,0,0,70,27,116c0,0,27,46,87,70c0,0,60,24,173,27l105,3V519c0,0,0,72,-26,107c0,0,-27,34,-82,34c0,0,-75,0,-137,-35L176,538H134V691c0,0,121,26,213,26c0,0,115,0,169,-47c0,0,54,-47,54,-144V52L657,33V0H465L451,70c0,0,-85,-84,-218,-84Z" 
id="f2_1x"
transform="scale(0.001,-0.001)" />

<path d="M439,0V33l93,19V500c0,0,0,62,-30,97c0,0,-31,36,-94,36c0,0,-67,0,-165,-22V52L338,33V0H35V33l84,19V649L35,668v33H235l7,-57c0,0,57,33,122,54c0,0,65,22,108,22c0,0,91,0,137,-53c0,0,47,-53,47,-154V52L741,33V0Z" 
id="f2_2a"
transform="scale(0.001,-0.001)" />

<path d="M383,64c0,0,85,0,152,28V645c0,0,-67,13,-152,13c0,0,-194,0,-194,-314c0,0,0,-141,48,-211c0,0,48,-69,146,-69ZM342,-14c0,0,-287,0,-287,358c0,0,0,184,82,280c0,0,81,96,239,96c0,0,81,0,163,-18c0,0,-4,25,-4,124v182l-118,18v34H659V52L745,33V0H548l-9,52c0,0,-84,-66,-197,-66Z" 
id="f2_20"
transform="scale(0.001,-0.001)" />

<path d="M278,-14c0,0,-52,0,-115,11c0,0,-63,10,-99,23V193H98L134,95c0,0,56,-50,146,-50c0,0,144,0,144,123c0,0,0,91,-114,130l-66,21c0,0,-75,25,-110,50c0,0,-34,26,-53,63c0,0,-18,36,-18,89c0,0,0,92,63,145c0,0,63,54,170,54c0,0,77,0,193,-23V544H454l-32,81c0,0,-39,35,-124,35c0,0,-61,0,-92,-30c0,0,-32,-30,-32,-80c0,0,0,-43,29,-72c0,0,28,-29,86,-48c0,0,110,-38,144,-55c0,0,33,-17,57,-42c0,0,23,-25,36,-57c0,0,13,-32,13,-79c0,0,0,-104,-66,-158c0,0,-66,-53,-195,-53Z" 
id="f2_2f"
transform="scale(0.001,-0.001)" />

<path d="M289,-14c0,0,-179,0,-179,205V649L20,668v33H233V200c0,0,0,-128,120,-128c0,0,92,0,173,23V649L420,668v33H649V52L738,33V0H533l-6,57C527,57,474,28,405,7c0,0,-69,-21,-116,-21Z" 
id="f2_2h"
transform="scale(0.001,-0.001)" />

<path d="M382,45c0,0,188,0,188,314c0,0,0,143,-47,213c0,0,-46,69,-141,69c0,0,-87,0,-146,-24V58c0,0,67,-13,146,-13ZM25,-325v35l88,18V649L34,668v33H231l1,-41c0,0,31,27,84,43c0,0,53,17,107,17c0,0,134,0,208,-94c0,0,73,-93,73,-267c0,0,0,-178,-80,-276c0,0,-80,-97,-232,-97c0,0,-84,0,-160,16c0,0,4,-53,4,-84V-272l123,-18v-35Z" 
id="f2_2c"
transform="scale(0.001,-0.001)" />

<path d="M495,413c0,0,0,133,-34,190c0,0,-34,57,-105,57c0,0,-78,0,-119,-63c0,0,-42,-62,-42,-184ZM374,-14c0,0,-163,0,-239,87c0,0,-75,88,-75,283c0,0,0,183,77,273c0,0,76,91,219,91c0,0,269,0,269,-306V353H194V340c0,0,0,-103,23,-160c0,0,22,-57,70,-87c0,0,47,-29,124,-29c0,0,40,0,96,6c0,0,55,7,91,15V43C598,43,562,20,500,3c0,0,-61,-17,-126,-17Z" 
id="f2_21"
transform="scale(0.001,-0.001)" />

<path d="M31,0V33l88,19V649L31,668v33H235l7,-87c0,0,44,37,121,71c0,0,76,35,121,35h11V530H463l-43,82c0,0,-37,0,-88,-10c0,0,-52,-10,-89,-26V52L363,33V0Z" 
id="f2_2e"
transform="scale(0.001,-0.001)" />

<path d="M360,-14L72,649L0,668v33H327V668L216,648L420,164L615,649L504,668v33H764V668L697,652L416,-14Z" 
id="f2_2i"
transform="scale(0.001,-0.001)" />

<path d="M32,0V33L151,52V649L52,668v33H275V52L395,33V0ZM201,850c0,0,-32,0,-56,24c0,0,-24,24,-24,56c0,0,0,34,24,58c0,0,24,24,56,24c0,0,34,0,58,-24c0,0,24,-24,24,-58c0,0,0,-32,-24,-56c0,0,-24,-24,-58,-24Z" 
id="f2_25"
transform="scale(0.001,-0.001)" />

<path d="M377,45c0,0,99,0,147,73c0,0,47,73,47,237c0,0,0,161,-47,233c0,0,-47,72,-147,72c0,0,-97,0,-141,-69c0,0,-44,-69,-44,-236c0,0,0,-169,45,-240c0,0,44,-70,140,-70Zm0,-59c0,0,-158,0,-238,94c0,0,-81,95,-81,274c0,0,0,178,81,272c0,0,80,94,244,94c0,0,160,0,241,-92c0,0,82,-92,82,-274c0,0,0,-368,-329,-368Z" 
id="f2_2b"
transform="scale(0.001,-0.001)" />

<path d="M249,-14c0,0,-71,0,-107,42c0,0,-35,42,-35,119V639H15v33l93,29l76,159h47V701H391V639H231V161c0,0,0,-48,22,-73c0,0,22,-24,57,-24c0,0,44,0,106,12V26C416,26,389,8,340,-2c0,0,-49,-12,-91,-12Z" 
id="f2_2g"
transform="scale(0.001,-0.001)" />

<path d="M327,-14L84,649L1,668v33H335V668L219,648L385,174L554,632h63L786,171L944,649L830,668v33h267V668l-78,-16L784,-14H726L553,448L382,-14Z" 
id="f2_2j"
transform="scale(0.001,-0.001)" />

<path d="M431,0V33L535,52V499c0,0,0,62,-32,96c0,0,-32,33,-95,33c0,0,-66,0,-163,-22V52L350,33V0H32V33l89,19V649L32,668v33H237l6,-57c0,0,56,32,119,54c0,0,62,22,110,22c0,0,52,0,95,-20c0,0,44,-19,66,-62c0,0,57,32,134,57c0,0,77,25,128,25c0,0,179,0,179,-207V52l90,-19V0H846V33L950,52V499c0,0,0,129,-119,129c0,0,-19,0,-45,-3c0,0,-26,-3,-52,-7c0,0,-25,-4,-49,-8c0,0,-23,-5,-39,-8c0,0,13,-41,13,-89V52L764,33V0Z" 
id="f2_29"
transform="scale(0.001,-0.001)" />

<path d="M442,0V33l93,19V504c0,0,0,129,-124,129c0,0,-70,0,-168,-22V52L338,33V0H31V33l88,19v956L15,1026v34H243V756c0,0,0,-77,-5,-112c0,0,54,31,122,53c0,0,68,23,115,23c0,0,91,0,137,-53c0,0,47,-53,47,-154V52L744,33V0Z" 
id="f2_24"
transform="scale(0.001,-0.001)" />

<path d="M376,50c0,0,103,0,149,80c0,0,46,81,46,240c0,0,0,137,-47,204c0,0,-48,67,-148,67c0,0,-44,0,-87,-7c0,0,-44,-8,-63,-17V62c0,0,63,-12,150,-12Zm3,-64c0,0,-64,0,-141,14c0,0,-78,14,-136,37v971L0,1026v34H226V809c0,0,0,-40,-4,-148c0,0,74,59,188,59c0,0,143,0,219,-87c0,0,77,-87,77,-263c0,0,0,-189,-84,-287c0,0,-84,-97,-243,-97Z" 
id="f2_1y"
transform="scale(0.001,-0.001)" />

<path d="M64,0V34L168,59V639H47v36l121,29v49c0,0,0,155,61,239c0,0,62,84,173,84c0,0,58,0,107,-15V908H472l-33,92c0,0,-26,16,-62,16c0,0,-47,0,-66,-42c0,0,-19,-42,-19,-157V701H478V639H292V59L443,34V0Z" 
id="f2_22"
transform="scale(0.001,-0.001)" />

<path d="M148,-329c0,0,-58,0,-114,13v151H69l24,-71c0,0,23,-17,64,-17c0,0,39,0,72,22c0,0,33,23,60,67c0,0,27,44,68,157L90,649L19,668v33H344V668L233,648L423,158L606,649L497,668v33H758V668L685,652L411,-43c0,0,-48,-124,-84,-177c0,0,-36,-54,-79,-82c0,0,-44,-27,-100,-27Z" 
id="f2_2l"
transform="scale(0.001,-0.001)" />

<path d="M350,-14c0,0,-142,0,-269,31L73,228h49L156,87c0,0,29,-16,82,-28c0,0,54,-12,100,-12c0,0,117,0,173,54c0,0,56,53,56,178c0,0,0,99,-52,150c0,0,-51,51,-159,56l-107,6v61l107,7c0,0,84,5,124,52c0,0,41,48,41,145c0,0,0,101,-44,147c0,0,-44,45,-139,45c0,0,-40,0,-83,-10c0,0,-43,-11,-76,-29L153,786H104V979c0,0,74,19,127,26c0,0,54,6,107,6c0,0,321,0,321,-246c0,0,0,-104,-57,-165c0,0,-57,-62,-162,-77c0,0,136,-16,200,-78c0,0,64,-62,64,-173c0,0,0,-135,-92,-211c0,0,-93,-75,-262,-75Z" 
id="f2_n"
transform="scale(0.001,-0.001)" />

<path d="M191,-20c0,0,-39,0,-65,25c0,0,-25,27,-25,64c0,0,0,38,26,64c0,0,26,26,64,26c0,0,38,0,64,-26c0,0,26,-26,26,-64c0,0,0,-37,-25,-64c0,0,-26,-25,-65,-25Z" 
id="f2_i"
transform="scale(0.001,-0.001)" />

<path d="M55,0V40L184,60V941L55,960v40H455V960L327,941V60L455,40V0Z" 
id="f2_19"
transform="scale(0.001,-0.001)" />

<path d="M399,-14c0,0,-341,0,-341,370c0,0,0,175,87,269c0,0,87,95,249,95c0,0,101,0,220,-23V501H573L541,625c0,0,-62,35,-149,35c0,0,-200,0,-200,-304c0,0,0,-158,61,-225c0,0,61,-67,189,-67c0,0,109,0,189,24V43C631,43,595,16,530,1c0,0,-64,-15,-131,-15Z" 
id="f2_1z"
transform="scale(0.001,-0.001)" />

<path d="M31,0V33L150,52v956L31,1026v34H274V52L394,33V0Z" 
id="f2_28"
transform="scale(0.001,-0.001)" />

<path d="M359,-270c0,0,124,0,192,46c0,0,67,47,67,129c0,0,0,43,-26,67c0,0,-26,24,-79,24H242c0,0,-32,-27,-51,-69c0,0,-20,-41,-20,-77c0,0,0,-64,46,-92c0,0,46,-28,142,-28Zm11,561c0,0,81,0,115,47c0,0,34,47,34,141c0,0,0,100,-35,142c0,0,-35,42,-113,42c0,0,-78,0,-114,-43c0,0,-37,-42,-37,-141c0,0,0,-98,36,-143c0,0,36,-45,114,-45ZM359,-329c0,0,-143,0,-218,44c0,0,-75,43,-75,125c0,0,0,39,27,78c0,0,26,38,98,89c0,0,-43,14,-72,48c0,0,-29,35,-29,74L208,262c0,0,-118,55,-118,217c0,0,0,115,73,178c0,0,73,63,211,63c0,0,28,0,71,-6c0,0,44,-6,67,-13l165,83l26,-32L599,644c0,0,50,-56,50,-165c0,0,0,-120,-72,-182c0,0,-73,-62,-208,-62c0,0,-62,0,-114,11L208,148c0,0,2,-13,29,-24c0,0,27,-12,67,-12H512c0,0,113,0,168,-49c0,0,55,-49,55,-134c0,0,0,-79,-44,-137c0,0,-43,-58,-128,-90c0,0,-84,-31,-204,-31Z" 
id="f2_23"
transform="scale(0.001,-0.001)" />

<path d="M58,-234v58c0,0,131,42,131,125c0,0,0,15,-11,27c0,0,-11,12,-38,25C140,1,89,27,89,75c0,0,0,40,25,61c0,0,26,21,65,21c0,0,48,0,77,-34c0,0,30,-34,30,-86c0,0,0,-101,-60,-170c0,0,-59,-69,-168,-101Z" 
id="f2_g"
transform="scale(0.001,-0.001)" />

<path d="M13,0V34L95,46L325,350L122,649L40,668v33H357V668L264,648L399,446L554,649l-96,19v33H710V668L630,652L433,397L663,50L745,34V0H427V34l94,17L359,299L169,50L266,34V0Z" 
id="f2_2k"
transform="scale(0.001,-0.001)" />

<path d="M681,416L504,902L333,416ZM669,0V40L803,60L704,348H310L210,60L344,40V0H15V40L128,60l341,949H611L965,60L1092,40V0Z" 
id="f2_11"
transform="scale(0.001,-0.001)" />

<path d="M410,-14c0,0,-80,0,-162,14c0,0,-81,14,-144,38V270h48L178,134c0,0,28,-35,95,-62c0,0,68,-27,134,-27c0,0,104,0,163,53c0,0,58,54,58,148c0,0,0,54,-23,89c0,0,-22,35,-59,59c0,0,-37,24,-84,41c0,0,-47,17,-97,34c0,0,-49,17,-96,38c0,0,-47,21,-84,53c0,0,-37,32,-60,79c0,0,-23,48,-23,117c0,0,0,119,90,187c0,0,89,68,248,68c0,0,121,0,263,-32V771H654L628,893c0,0,-76,55,-188,55c0,0,-100,0,-156,-40c0,0,-56,-41,-56,-112c0,0,0,-49,22,-81c0,0,23,-32,60,-55c0,0,37,-22,84,-39c0,0,48,-16,97,-34c0,0,50,-17,97,-39c0,0,48,-22,85,-56c0,0,36,-34,59,-83c0,0,23,-49,23,-120c0,0,0,-145,-89,-224c0,0,-89,-79,-256,-79Z" 
id="f2_1j"
transform="scale(0.001,-0.001)" />

<path d="M577,-14c0,0,-243,0,-379,131C198,117,63,248,63,488c0,0,0,263,131,393c0,0,132,130,386,130c0,0,182,0,352,-45V751H882L862,875c0,0,-52,37,-124,57c0,0,-72,19,-152,19c0,0,-191,0,-279,-113c0,0,-88,-114,-88,-348c0,0,0,-220,91,-333c0,0,91,-114,269,-114c0,0,63,0,131,15c0,0,69,15,105,36V377L686,397v40h370V397L958,377V52C958,52,871,24,778,5c0,0,-93,-19,-201,-19Z" 
id="f2_17"
transform="scale(0.001,-0.001)" />

<path d="M25,0V26c0,0,27,4,47,19c0,0,29,22,96,111L311,346L182,535c0,0,-55,81,-86,102c0,0,-30,20,-75,20v26H341V657c0,0,-30,0,-42,-10c0,0,-13,-11,-13,-28c0,0,0,-19,27,-56c0,0,8,-12,25,-37l48,-78l56,77c0,0,55,74,55,94c0,0,0,16,0,27c0,0,0,11,0,11v26H674V657c0,0,-37,-2,-64,-20c0,0,-37,-26,-100,-111L416,402L587,156c0,0,63,-91,89,-109c0,0,27,-18,70,-21V0H423V26c0,0,34,0,53,15c0,0,14,11,14,28c0,0,0,17,-48,87L341,302L232,157c0,0,-50,-69,-50,-82c0,0,0,-18,17,-32c0,0,17,-15,50,-17V0Z" 
id="f3_2k"
transform="scale(0.001,-0.001)" />

<path d="M399,105V477H27v62H399V909h60V539H831V477H459V105Z" 
id="f3_f"
transform="scale(0.001,-0.001)" />

<path d="M145,-328c0,0,-44,0,-73,25c0,0,-28,25,-28,58c0,0,0,31,21,50c0,0,20,19,56,19c0,0,25,0,67,-16c0,0,30,-11,38,-11c0,0,22,0,49,23c0,0,26,23,53,89L376,28L131,542c0,0,-11,24,-36,58c0,0,-19,27,-30,36c0,0,-18,12,-56,21v26H328V657H312c0,0,-33,0,-50,-15c0,0,-17,-14,-17,-36c0,0,0,-30,25,-81L437,179L589,557c0,0,12,31,12,62c0,0,0,13,-5,20c0,0,-6,8,-19,13c0,0,-12,5,-44,5v26H754V657c0,0,-27,-3,-42,-12c0,0,-15,-9,-33,-34c0,0,-7,-10,-25,-58L376,-128c0,0,-40,-99,-105,-150c0,0,-66,-50,-126,-50Z" 
id="f3_2l"
transform="scale(0.001,-0.001)" />

<path d="M30,0V27L485,632H260c0,0,-72,0,-94,-10c0,0,-22,-9,-36,-35c0,0,-20,-37,-23,-92H76l5,188H654V656L196,51H445c0,0,79,0,106,13c0,0,28,13,45,46c0,0,12,23,21,100h25L634,0Z" 
id="f3_2m"
transform="scale(0.001,-0.001)" />

<path d="M27,354v62H831V354Zm0,243v62H831V597Z" 
id="f3_x"
transform="scale(0.001,-0.001)" />

<path d="M197,0V27c0,0,71,2,92,13c0,0,21,10,29,29c0,0,9,18,9,109V725c0,0,0,110,-8,141c0,0,-5,24,-19,35c0,0,-14,11,-33,11c0,0,-28,0,-77,-23l-11,23l246,121h25V178c0,0,0,-85,7,-106c0,0,7,-21,29,-32c0,0,23,-11,91,-13V0Z" 
id="f3_l"
transform="scale(0.001,-0.001)" />

<path d="M33,0V27c0,0,264,241,371,393c0,0,108,152,108,278c0,0,0,96,-59,158c0,0,-59,62,-141,62c0,0,-75,0,-134,-43c0,0,-59,-44,-88,-128H63c0,0,18,138,95,212c0,0,77,74,193,74c0,0,123,0,205,-80c0,0,83,-79,83,-186c0,0,0,-77,-36,-154c0,0,-55,-121,-179,-256C424,357,238,154,191,112H455c0,0,81,0,114,6c0,0,32,6,58,25c0,0,27,18,46,52h27L630,0Z" 
id="f3_m"
transform="scale(0.001,-0.001)" />

<path d="M254,-20c0,0,-35,0,-59,24c0,0,-24,24,-24,58c0,0,0,35,24,59c0,0,24,24,59,24c0,0,35,0,59,-24c0,0,23,-25,23,-59c0,0,0,-34,-24,-58c0,0,-24,-24,-58,-24Zm509,0c0,0,-34,0,-58,24c0,0,-24,24,-24,58c0,0,0,35,24,59c0,0,24,24,58,24c0,0,34,0,59,-24c0,0,24,-25,24,-59c0,0,0,-34,-24,-58c0,0,-25,-24,-59,-24Zm510,0c0,0,-35,0,-59,24c0,0,-24,24,-24,58c0,0,0,35,24,59c0,0,24,24,59,24c0,0,34,0,58,-24c0,0,24,-25,24,-59c0,0,0,-34,-24,-58c0,0,-24,-24,-58,-24Z" 
id="f3_4s"
transform="scale(0.001,-0.001)" />

<path d="M191,-20c0,0,-34,0,-58,24c0,0,-24,24,-24,58c0,0,0,35,24,59c0,0,24,24,58,24c0,0,35,0,59,-24c0,0,24,-25,24,-59c0,0,0,-34,-24,-58c0,0,-25,-24,-59,-24Z" 
id="f3_i"
transform="scale(0.001,-0.001)" />

<path d="M474,-326c0,0,-112,57,-188,133c0,0,-107,108,-165,254c0,0,-58,147,-58,305c0,0,0,231,114,421c0,0,114,191,297,273v-31c0,0,-92,-51,-151,-139c0,0,-59,-88,-88,-223c0,0,-30,-135,-30,-281c0,0,0,-160,25,-290c0,0,20,-102,47,-164c0,0,28,-62,75,-120c0,0,47,-57,122,-109v-29Z" 
id="f3_c"
transform="scale(0.001,-0.001)" />

<path d="M35,-326v29c0,0,92,51,151,139c0,0,60,87,89,221c0,0,28,136,28,282c0,0,0,159,-24,290c0,0,-19,103,-47,165c0,0,-28,62,-75,119c0,0,-46,57,-122,110v31c0,0,113,-56,188,-132c0,0,107,-109,165,-255c0,0,58,-147,58,-306c0,0,0,-231,-114,-420c0,0,-113,-191,-297,-273Z" 
id="f3_d"
transform="scale(0.001,-0.001)" />

<path d="M238,-17c0,0,-103,0,-139,25C99,8,62,33,62,62c0,0,0,22,17,38c0,0,18,16,42,16c0,0,19,0,38,-6c0,0,13,-3,58,-27c0,0,45,-23,62,-28c0,0,27,-8,59,-8c0,0,76,0,132,59c0,0,56,59,56,140c0,0,0,59,-26,115c0,0,-19,41,-42,63c0,0,-32,30,-88,54c0,0,-56,25,-114,25H232v22c0,0,59,8,118,42c0,0,59,35,86,85c0,0,27,49,27,108c0,0,0,76,-48,124c0,0,-48,47,-120,47c0,0,-116,0,-193,-124L77,819c0,0,44,102,110,158c0,0,66,56,164,56c0,0,122,0,187,-80c0,0,49,-58,49,-126c0,0,0,-110,-139,-228c0,0,93,-36,141,-104c0,0,48,-68,48,-160c0,0,0,-131,-84,-227C553,108,444,-17,238,-17Z" 
id="f3_n"
transform="scale(0.001,-0.001)" />

<path d="M392,152V469H76v77H392V863h77V546H787V469H469V152Z" 
id="f2_f"
transform="scale(0.001,-0.001)" />

<path d="M41,0V34L426,641H261c0,0,-42,0,-80,-7c0,0,-39,-7,-54,-19L104,515H69V701H586V665L201,60H407c0,0,42,0,89,10c0,0,47,10,66,25l39,147h35L617,0Z" 
id="f2_2m"
transform="scale(0.001,-0.001)" />

<path d="M76,316v76H787V316Zm0,306v76H787V622Z" 
id="f2_x"
transform="scale(0.001,-0.001)" />

<path d="M134,0V40L339,60V876L137,804v39l292,166h39V60L672,40V0Z" 
id="f2_l"
transform="scale(0.001,-0.001)" />

<path d="M67,0V109L206,235c0,0,133,118,196,190c0,0,63,72,90,149c0,0,27,77,27,177c0,0,0,97,-44,148c0,0,-44,50,-144,50c0,0,-39,0,-81,-10c0,0,-42,-11,-74,-29L150,787H101V980c0,0,135,32,230,32c0,0,164,0,247,-68c0,0,82,-69,82,-193c0,0,0,-84,-32,-158c0,0,-33,-75,-100,-148c0,0,-67,-74,-222,-206c0,0,-67,-57,-141,-125H680V0Z" 
id="f2_m"
transform="scale(0.001,-0.001)" />

<path d="M-12,338v55H777V338Z" 
id="f3_4y"
transform="scale(0.001,-0.001)" />

<path d="M377,45c0,0,99,0,145,108c0,0,46,109,46,352c0,0,0,240,-45,345c0,0,-46,106,-146,106c0,0,-97,0,-139,-100c0,0,-43,-99,-43,-351c0,0,0,-254,44,-357c0,0,43,-103,138,-103Zm0,-59c0,0,-158,0,-238,132c0,0,-81,133,-81,386c0,0,0,249,81,380c0,0,80,132,244,132c0,0,159,0,241,-130c0,0,82,-130,82,-382c0,0,0,-518,-329,-518Z" 
id="f2_k"
transform="scale(0.001,-0.001)" />

<path d="M0,-123V1415H525v-72H72V-123Z" 
id="f4_4r"
transform="scale(0.001,-0.001)" />

<path d="M478,-123V1343H26v72H550V-123Z" 
id="f4_57"
transform="scale(0.001,-0.001)" />

<path d="M0,-123V1415H72V-123Z" 
id="f4_4s"
transform="scale(0.001,-0.001)" />

<path d="M0,-123V1415H72V-123Z" 
id="f4_58"
transform="scale(0.001,-0.001)" />

<path d="M0,214v74H784V214ZM0,494v72H784V494Z" 
id="f4_x"
transform="scale(0.001,-0.001)" />

<path d="M0,356v74H784V356Z" 
id="f4_h"
transform="scale(0.001,-0.001)" />

<path d="M0,-123V1415H72V-51H525v-72Z" 
id="f4_4t"
transform="scale(0.001,-0.001)" />

<path d="M26,-123v72H478V1415h72V-123Z" 
id="f4_59"
transform="scale(0.001,-0.001)" />

<path d="M663,0V40L790,60L527,448L236,60L360,40V0H34V40L144,60L484,512L194,941L81,960v40H494V960L367,941L574,633L806,941L683,960v40h327V960L900,941L618,567L962,60L1076,40V0Z" 
id="f2_1o"
transform="scale(0.001,-0.001)" />

<path d="M536,63c0,0,127,0,191,54c0,0,63,54,63,168c0,0,0,105,-70,154c0,0,-70,49,-225,49H316V67c0,0,103,-4,220,-4ZM480,555c0,0,121,0,178,48c0,0,57,48,57,155c0,0,0,91,-58,133c0,0,-57,42,-186,42H316V555ZM554,-4L235,0H44V40L172,60V941L44,960v40H501c0,0,191,0,279,-56c0,0,88,-56,88,-179c0,0,0,-88,-55,-149c0,0,-54,-62,-151,-83c0,0,135,-14,209,-79c0,0,73,-65,73,-166c0,0,0,-144,-99,-219C845,69,745,-4,554,-4Z" 
id="f2_12"
transform="scale(0.001,-0.001)" />

<path d="M460,-325c0,0,-148,79,-231,172c0,0,-84,93,-123,217c0,0,-39,126,-39,304c0,0,0,178,39,303c0,0,39,125,122,217c0,0,82,93,232,172V997c0,0,-91,-52,-145,-134c0,0,-54,-81,-79,-190c0,0,-25,-109,-25,-305c0,0,0,-194,26,-309c0,0,26,-114,82,-193c0,0,56,-79,141,-128v-63Z" 
id="f2_c"
transform="scale(0.001,-0.001)" />

<path d="M49,-325v63c0,0,85,49,140,128c0,0,56,79,83,194c0,0,26,115,26,308c0,0,0,196,-25,305c0,0,-25,109,-79,190c0,0,-54,82,-145,134v63c0,0,149,-80,232,-172c0,0,83,-92,122,-217c0,0,39,-125,39,-303c0,0,0,-177,-39,-303c0,0,-39,-125,-122,-217c0,0,-83,-93,-232,-173Z" 
id="f2_d"
transform="scale(0.001,-0.001)" />

<path d="M216,345c0,0,-38,0,-63,26c0,0,-24,25,-24,65c0,0,0,41,24,66c0,0,25,25,63,25c0,0,38,0,62,-25c0,0,24,-25,24,-66c0,0,0,-40,-24,-65c0,0,-24,-26,-62,-26Z" 
id="f5_1ad"
transform="scale(0.001,-0.001)" />

<path d="M64,-325c0,0,-46,0,-107,14v148H-8l19,-81c0,0,25,-21,62,-21c0,0,44,0,67,47c0,0,22,47,22,152V649L57,668v33H286V-28c0,0,0,-146,-57,-221c0,0,-56,-76,-165,-76ZM213,850c0,0,-34,0,-58,24c0,0,-24,24,-24,56c0,0,0,34,24,58c0,0,24,24,58,24c0,0,32,0,56,-24c0,0,24,-24,24,-58c0,0,0,-32,-24,-56c0,0,-24,-24,-56,-24Z" 
id="f2_26"
transform="scale(0.001,-0.001)" />

<path d="M115,-329V1060h76V-329Z" 
id="f2_2o"
transform="scale(0.001,-0.001)" />

<path d="M410,45c0,0,90,0,130,58c0,0,40,59,40,193c0,0,0,122,-38,177c0,0,-38,54,-122,54c0,0,-102,0,-217,-37c0,0,0,-227,51,-336c0,0,52,-109,156,-109Zm3,-59c0,0,-169,0,-258,131c0,0,-89,131,-89,377c0,0,0,161,47,278c0,0,47,117,131,178c0,0,85,61,196,61c0,0,109,0,217,-26V813H608L582,915c0,0,-25,13,-67,23c0,0,-41,10,-75,10c0,0,-109,0,-170,-105c0,0,-60,-106,-66,-308c0,0,121,63,244,63c0,0,132,0,201,-74c0,0,69,-74,69,-214c0,0,0,-156,-78,-240c0,0,-79,-84,-227,-84Z" 
id="f2_q"
transform="scale(0.001,-0.001)" />

<path d="M476,327V830h-4L114,327ZM476,0V220H30v99l488,686h86V327H740V220H604V0Z" 
id="f2_o"
transform="scale(0.001,-0.001)" />

<path d="M370,468c0,0,96,0,194,40c0,0,0,229,-45,336c0,0,-45,107,-146,107c0,0,-187,0,-187,-259c0,0,0,-115,45,-169c0,0,45,-55,139,-55ZM312,-14c0,0,-122,0,-223,25V184h48L163,76c0,0,24,-11,65,-20c0,0,40,-9,81,-9c0,0,119,0,183,105c0,0,65,104,71,307c0,0,-113,-62,-230,-62c0,0,-132,0,-208,79c0,0,-76,78,-76,219c0,0,0,151,85,233c0,0,84,83,237,83c0,0,171,0,251,-123c0,0,79,-123,79,-385c0,0,0,-252,-102,-385C599,118,497,-14,312,-14Z" 
id="f2_t"
transform="scale(0.001,-0.001)" />

<path d="M178,0L615,886H176L150,764H101v236H720V943L274,0Z" 
id="f2_r"
transform="scale(0.001,-0.001)" />

<path d="M120,-328V1061h62V-328Z" 
id="f3_2o"
transform="scale(0.001,-0.001)" />

<path d="M678,393L506,802L330,393ZM11,0V27c0,0,63,12,82,30c0,0,38,35,84,145l356,832h27L912,193c0,0,43,-101,77,-132c0,0,35,-30,97,-34V0H687V27c0,0,60,3,82,21c0,0,21,17,21,41c0,0,0,33,-30,104L700,338H307L239,179c0,0,-26,-59,-26,-88c0,0,0,-23,22,-41c0,0,22,-17,95,-23V0Z" 
id="f3_11"
transform="scale(0.001,-0.001)" />

<path d="M151,-200L306,195H19v69H333L440,540H19v70H469l155,398h60L528,610H820V540H501L391,264H820V195H366L211,-200Z" 
id="f3_40"
transform="scale(0.001,-0.001)" />

<path d="M379,29c0,0,41,0,84,37c0,0,43,36,65,121c0,0,34,128,34,362c0,0,0,173,-35,288c0,0,-27,86,-69,122c0,0,-31,25,-74,25c0,0,-51,0,-90,-46c0,0,-54,-62,-73,-195c0,0,-20,-132,-20,-261c0,0,0,-209,52,-341c0,0,42,-112,126,-112Zm-2,-46c0,0,-145,0,-241,170c0,0,-81,144,-81,347c0,0,0,173,52,298c0,0,52,125,139,186c0,0,67,49,139,49c0,0,116,0,208,-119c0,0,116,-147,116,-398c0,0,0,-176,-51,-299C658,217,608,94,529,38c0,0,-79,-55,-152,-55Z" 
id="f3_k"
transform="scale(0.001,-0.001)" />

<path d="M52,62L0,114L278,390L0,667l52,52L330,442L608,719l51,-51L382,390L659,114L608,62L330,338L52,62Z" 
id="f4_3a"
transform="scale(0.001,-0.001)" />

<path d="M350,-14c0,0,-142,0,-253,31L89,228h49L172,87c0,0,32,-18,78,-29c0,0,46,-11,88,-11c0,0,118,0,173,56c0,0,56,55,56,187c0,0,0,93,-24,140c0,0,-24,47,-76,70c0,0,-52,22,-140,22c0,0,-68,0,-133,-18H122v496H630V886H189V567c0,0,81,18,173,18c0,0,173,0,258,-71c0,0,84,-71,84,-216c0,0,0,-151,-92,-232c0,0,-91,-80,-262,-80Z" 
id="f2_p"
transform="scale(0.001,-0.001)" />

<path d="M83,0C83,0,48,0,24,24C24,24,0,49,0,83c0,0,0,34,24,58c0,0,24,24,59,24c0,0,34,0,58,-24c0,0,24,-24,24,-58c0,0,0,-34,-24,-59C141,24,117,0,83,0ZM695,0c0,0,-34,0,-58,24c0,0,-25,25,-25,59c0,0,0,34,25,58c0,0,24,24,58,24c0,0,34,0,58,-24c0,0,24,-24,24,-58c0,0,0,-34,-24,-59C753,24,729,0,695,0ZM388,594c0,0,-34,0,-59,23c0,0,-24,24,-24,59c0,0,0,34,24,58c0,0,25,25,59,25c0,0,34,0,58,-25c0,0,24,-24,24,-58c0,0,0,-35,-24,-59c0,0,-24,-23,-58,-23Z" 
id="f4_1s"
transform="scale(0.001,-0.001)" />


</defs>
</svg>