<?xml version="1.0" encoding="UTF-8" standalone="no"?>
<!DOCTYPE svg PUBLIC "-//W3C//DTD SVG 1.1//EN"
"http://www.w3.org/Graphics/SVG/1.1/DTD/svg11.dtd">
<svg viewBox="0 0 909 1286" version="1.1" xmlns="http://www.w3.org/2000/svg" xmlns:xlink="http://www.w3.org/1999/xlink">
<defs>
<style type="text/css"><![CDATA[
.g0_1{
fill: none;
stroke: #FFFFFF;
stroke-width: 0.5133334;
stroke-linecap: round;
stroke-linejoin: round;
}
.g1_1{
fill: none;
stroke: #000000;
stroke-width: 0.90444446;
stroke-linecap: round;
stroke-linejoin: round;
}
.g2_1{
fill: none;
stroke: #000000;
stroke-width: 0.8998611;
stroke-linecap: round;
stroke-linejoin: round;
}
.g3_1{
fill: none;
stroke: #000000;
stroke-width: 0.9029167;
stroke-linecap: round;
stroke-linejoin: round;
}
.g4_1{
fill: none;
stroke: #000000;
stroke-width: 0.8983333;
stroke-linecap: round;
stroke-linejoin: round;
}
.g5_1{
fill: none;
stroke: #000000;
stroke-width: 0.9075001;
stroke-linecap: round;
stroke-linejoin: round;
}
]]></style>
</defs>
<path d="M454.6,618.9l4.4,3.9l3.1,3.8l2,3.9l2.1,4.9l2.3,5.6l1,5.7l1.1,5.9v7.7l5.1,-8.8l4.1,-7.7l3.3,-7.7l2.1,-7.4l1,-7.7v-6.7l-1,-7.7L483.1,600l-28.5,18.9" class="g0_1" />
<g fill="#000000" >
<use xlink:href="#f0_1o" transform="matrix(18,0,0,18,241.5,257.9)" />
<use xlink:href="#f0_19" transform="matrix(18,0,0,18,259.8,257.9)" />
<use xlink:href="#f0_19" transform="matrix(18,0,0,18,267.4,257.9)" />
<use xlink:href="#f0_13" transform="matrix(18,0,0,18,282.3,257.9)" />
<use xlink:href="#f0_12" transform="matrix(18,0,0,18,302.2,257.9)" />
<use xlink:href="#f0_1j" transform="matrix(18,0,0,18,322,257.9)" />
<use xlink:href="#f0_15" transform="matrix(18,0,0,18,340.4,257.9)" />
<use xlink:href="#f0_h" transform="matrix(18,0,0,18,366,257.9)" />
<use xlink:href="#f0_12" transform="matrix(18,0,0,18,382.4,257.9)" />
<use xlink:href="#f0_1f" transform="matrix(18,0,0,18,402.2,257.9)" />
<use xlink:href="#f0_11" transform="matrix(18,0,0,18,423.6,257.9)" />
<use xlink:href="#f0_1i" transform="matrix(18,0,0,18,443.5,257.9)" />
<use xlink:href="#f0_14" transform="matrix(18,0,0,18,463.3,257.9)" />
<use xlink:href="#f0_h" transform="matrix(18,0,0,18,490.3,257.9)" />
<use xlink:href="#f0_1d" transform="matrix(18,0,0,18,506.7,257.9)" />
<use xlink:href="#f0_11" transform="matrix(18,0,0,18,529.6,257.9)" />
<use xlink:href="#f0_1i" transform="matrix(18,0,0,18,548.3,257.9)" />
<use xlink:href="#f0_13" transform="matrix(18,0,0,18,568.1,257.9)" />
<use xlink:href="#f0_18" transform="matrix(18,0,0,18,588,257.9)" />
<use xlink:href="#f0_h" transform="matrix(18,0,0,18,615.1,257.9)" />
<use xlink:href="#f0_m" transform="matrix(18,0,0,18,631.5,257.9)" />
<use xlink:href="#f0_k" transform="matrix(18,0,0,18,646.8,257.9)" />
<use xlink:href="#f0_l" transform="matrix(18,0,0,18,662.1,257.9)" />
<use xlink:href="#f0_s" transform="matrix(18,0,0,18,677.3,257.9)" />
<use xlink:href="#f0_14" transform="matrix(12,0,0,12,84.3,321.1)" />
<use xlink:href="#f0_1x" transform="matrix(12,0,0,12,97.5,321.1)" />
<use xlink:href="#f0_2g" transform="matrix(12,0,0,12,107.8,321.1)" />
<use xlink:href="#f0_21" transform="matrix(12,0,0,12,113.8,321.1)" />
<use xlink:href="#f0_u" transform="matrix(12,0,0,12,124.1,321.1)" />
<use xlink:href="#f0_m" transform="matrix(12,0,0,12,135.1,321.1)" />
<use xlink:href="#f0_l" transform="matrix(12,0,0,12,145.3,321.1)" />
<use xlink:href="#f0_i" transform="matrix(12,0,0,12,155.6,321.1)" />
<use xlink:href="#f0_k" transform="matrix(12,0,0,12,160.7,321.1)" />
<use xlink:href="#f0_n" transform="matrix(12,0,0,12,170.9,321.1)" />
<use xlink:href="#f0_i" transform="matrix(12,0,0,12,181.2,321.1)" />
<use xlink:href="#f0_m" transform="matrix(12,0,0,12,186.3,321.1)" />
<use xlink:href="#f0_k" transform="matrix(12,0,0,12,196.5,321.1)" />
<use xlink:href="#f0_l" transform="matrix(12,0,0,12,206.8,321.1)" />
<use xlink:href="#f0_s" transform="matrix(12,0,0,12,217,321.1)" />
<use xlink:href="#f0_13" transform="matrix(14,0,0,14,390.4,292.7)" />
<use xlink:href="#f0_1f" transform="matrix(14,0,0,14,405.9,292.7)" />
<use xlink:href="#f0_14" transform="matrix(14,0,0,14,422.6,292.7)" />
<use xlink:href="#f0_15" transform="matrix(14,0,0,14,438.1,292.7)" />
<use xlink:href="#f0_c" transform="matrix(14,0,0,14,459,292.7)" />
<use xlink:href="#f0_q" transform="matrix(14,0,0,14,472.9,292.7)" />
<use xlink:href="#f0_p" transform="matrix(14,0,0,14,484.8,292.7)" />
<use xlink:href="#f0_j" transform="matrix(14,0,0,14,496.8,292.7)" />
<use xlink:href="#f0_m" transform="matrix(14,0,0,14,502.7,292.7)" />
<use xlink:href="#f0_d" transform="matrix(14,0,0,14,521.2,292.7)" />
<use xlink:href="#f0_1d" transform="matrix(14,0,0,14,332.7,322)" />
<use xlink:href="#f1_1x" transform="matrix(14,0,0,14,350.6,322)" />
<use xlink:href="#f1_2g" transform="matrix(14,0,0,14,362.5,322)" />
<use xlink:href="#f1_24" transform="matrix(14,0,0,14,369.6,322)" />
<use xlink:href="#f1_21" transform="matrix(14,0,0,14,382.7,322)" />
<use xlink:href="#f1_29" transform="matrix(14,0,0,14,394.7,322)" />
<use xlink:href="#f1_1x" transform="matrix(14,0,0,14,413.7,322)" />
<use xlink:href="#f1_2g" transform="matrix(14,0,0,14,425.6,322)" />
<use xlink:href="#f1_25" transform="matrix(14,0,0,14,432.8,322)" />
<use xlink:href="#f1_1z" transform="matrix(14,0,0,14,438.8,322)" />
<use xlink:href="#f1_2f" transform="matrix(14,0,0,14,450.7,322)" />
<use xlink:href="#f0_h" transform="matrix(14,0,0,14,471.8,322)" />
<use xlink:href="#f2_1j" transform="matrix(14,0,0,14,488.4,322)" />
<use xlink:href="#f1_2b" transform="matrix(14,0,0,14,502.7,322)" />
<use xlink:href="#f1_28" transform="matrix(14,0,0,14,515.8,322)" />
<use xlink:href="#f1_2h" transform="matrix(14,0,0,14,521.8,322)" />
<use xlink:href="#f1_2g" transform="matrix(14,0,0,14,534.9,322)" />
<use xlink:href="#f1_25" transform="matrix(14,0,0,14,542.1,322)" />
<use xlink:href="#f1_2b" transform="matrix(14,0,0,14,548,322)" />
<use xlink:href="#f1_2a" transform="matrix(14,0,0,14,561.1,322)" />
<use xlink:href="#f1_2f" transform="matrix(14,0,0,14,574.2,322)" />
<use xlink:href="#f3_1j" transform="matrix(12,0,0,12,415.6,355.8)" />
<use xlink:href="#f3_21" transform="matrix(12,0,0,12,425.8,355.8)" />
<use xlink:href="#f3_1z" transform="matrix(12,0,0,12,434,355.8)" />
<use xlink:href="#f3_2g" transform="matrix(12,0,0,12,442.1,355.8)" />
<use xlink:href="#f3_25" transform="matrix(12,0,0,12,448.2,355.8)" />
<use xlink:href="#f3_2b" transform="matrix(12,0,0,12,453.3,355.8)" />
<use xlink:href="#f3_2a" transform="matrix(12,0,0,12,462.5,355.8)" />
<use xlink:href="#f3_h" transform="matrix(12,0,0,12,472.7,355.8)" />
<use xlink:href="#f3_11" transform="matrix(12,0,0,12,480.9,355.8)" />
<use xlink:href="#f4_l" transform="matrix(12,0,0,12,64.9,395.8)" />
<use xlink:href="#f4_i" transform="matrix(12,0,0,12,74.1,395.8)" />
<use xlink:href="#f4_19" transform="matrix(12,0,0,12,121.9,395.8)" />
<use xlink:href="#f4_22" transform="matrix(12,0,0,12,127.4,395.8)" />
<use xlink:href="#f4_e" transform="matrix(12.1,0,0,12.1,150.7,398.3)" />
<use xlink:href="#f5_1x" transform="matrix(12.1,0,0,12.1,139.2,398.3)" />
<use xlink:href="#f5_1y" transform="matrix(12.1,0,0,12.1,161.1,398.3)" />
<use xlink:href="#f4_20" transform="matrix(12,0,0,12,175.8,395.8)" />
<use xlink:href="#f4_21" transform="matrix(12,0,0,12,184.8,395.8)" />
<use xlink:href="#f4_2a" transform="matrix(12,0,0,12,192.5,395.8)" />
<use xlink:href="#f4_2b" transform="matrix(12,0,0,12,201.3,395.8)" />
<use xlink:href="#f4_2g" transform="matrix(12,0,0,12,210.3,395.8)" />
<use xlink:href="#f4_21" transform="matrix(12,0,0,12,215.1,395.8)" />
<use xlink:href="#f4_2f" transform="matrix(12,0,0,12,222.8,395.8)" />
<use xlink:href="#f4_2g" transform="matrix(12,0,0,12,232.8,395.8)" />
<use xlink:href="#f4_24" transform="matrix(12,0,0,12,237.8,395.8)" />
<use xlink:href="#f4_21" transform="matrix(12,0,0,12,246.6,395.8)" />
<use xlink:href="#f4_28" transform="matrix(12,0,0,12,257.6,395.8)" />
<use xlink:href="#f4_1x" transform="matrix(12,0,0,12,262.3,395.8)" />
<use xlink:href="#f4_2e" transform="matrix(12,0,0,12,270,395.8)" />
<use xlink:href="#f4_23" transform="matrix(12,0,0,12,275.9,395.8)" />
<use xlink:href="#f4_21" transform="matrix(12,0,0,12,284.5,395.8)" />
<use xlink:href="#f4_2e" transform="matrix(12,0,0,12,292.2,395.8)" />
<use xlink:href="#f4_2b" transform="matrix(12,0,0,12,301.2,395.8)" />
<use xlink:href="#f4_22" transform="matrix(12,0,0,12,310,395.8)" />
<use xlink:href="#f4_52" transform="matrix(12,0,0,12,318.8,395.8)" />
<use xlink:href="#f4_1x" transform="matrix(12,0,0,12,324.7,395.8)" />
<use xlink:href="#f4_53" transform="matrix(12,0,0,12,332.4,395.8)" />
<use xlink:href="#f4_1x" transform="matrix(12,0,0,12,341.4,395.8)" />
<use xlink:href="#f4_2a" transform="matrix(12,0,0,12,349.1,395.8)" />
<use xlink:href="#f4_20" transform="matrix(12,0,0,12,357.9,395.8)" />
<use xlink:href="#f4_52" transform="matrix(12,0,0,12,370,395.8)" />
<use xlink:href="#f4_1y" transform="matrix(12,0,0,12,375.6,395.8)" />
<use xlink:href="#f4_53" transform="matrix(12,0,0,12,384.6,395.8)" />
<use xlink:href="#f4_1x" transform="matrix(12,0,0,12,393.4,395.8)" />
<use xlink:href="#f4_2a" transform="matrix(12,0,0,12,401.3,395.8)" />
<use xlink:href="#f4_20" transform="matrix(12,0,0,12,410.1,395.8)" />
<use xlink:href="#f4_25" transform="matrix(12,0,0,12,422.2,395.8)" />
<use xlink:href="#f4_22" transform="matrix(12,0,0,12,427,395.8)" />
<use xlink:href="#f6_c" transform="matrix(11.8,0,0,15.9,487.3,396.5)" />
<use xlink:href="#f6_d" transform="matrix(11.8,0,0,15.9,527.3,396.5)" />
<use xlink:href="#f4_e" transform="matrix(12.2,0,0,12.2,506.2,395.2)" />
<use xlink:href="#f4_n" transform="matrix(12.2,0,0,12.2,548.9,395.2)" />
<use xlink:href="#f5_1x" transform="matrix(12.2,0,0,12.2,438.7,395.2)" />
<use xlink:href="#f5_1y" transform="matrix(12.2,0,0,12.2,460.2,395.2)" />
<use xlink:href="#f5_1x" transform="matrix(12.2,0,0,12.2,494.8,395.2)" />
<use xlink:href="#f5_1y" transform="matrix(12.2,0,0,12.2,516.8,395.2)" />
<use xlink:href="#f6_x" transform="matrix(12.2,0,0,12.2,473.6,395.2)" />
<use xlink:href="#f6_f" transform="matrix(12.2,0,0,12.2,536,395.2)" />
<use xlink:href="#f7_1x" transform="matrix(12.2,0,0,12.2,450.6,395.2)" />
<use xlink:href="#f4_g" transform="matrix(12,0,0,12,560.6,395.8)" />
<use xlink:href="#f4_2g" transform="matrix(12,0,0,12,568.2,395.8)" />
<use xlink:href="#f4_24" transform="matrix(12,0,0,12,572.9,395.8)" />
<use xlink:href="#f4_21" transform="matrix(12,0,0,12,581.7,395.8)" />
<use xlink:href="#f4_2a" transform="matrix(12,0,0,12,589.6,395.8)" />
<use xlink:href="#f4_2j" transform="matrix(12,0,0,12,601.5,395.8)" />
<use xlink:href="#f4_2e" transform="matrix(12,0,0,12,614.5,395.8)" />
<use xlink:href="#f4_25" transform="matrix(12,0,0,12,620.2,395.8)" />
<use xlink:href="#f4_2g" transform="matrix(12,0,0,12,625,395.8)" />
<use xlink:href="#f4_21" transform="matrix(12,0,0,12,629.9,395.8)" />
<use xlink:href="#f4_2g" transform="matrix(12,0,0,12,640.6,395.8)" />
<use xlink:href="#f4_24" transform="matrix(12,0,0,12,645.5,395.8)" />
<use xlink:href="#f4_21" transform="matrix(12,0,0,12,654.3,395.8)" />
<use xlink:href="#f4_2i" transform="matrix(12,0,0,12,665.3,395.8)" />
<use xlink:href="#f4_1x" transform="matrix(12,0,0,12,674.1,395.8)" />
<use xlink:href="#f4_28" transform="matrix(12,0,0,12,682,395.8)" />
<use xlink:href="#f4_2h" transform="matrix(12,0,0,12,686.8,395.8)" />
<use xlink:href="#f4_21" transform="matrix(12,0,0,12,695.6,395.8)" />
<use xlink:href="#f4_2b" transform="matrix(12,0,0,12,706.6,395.8)" />
<use xlink:href="#f4_22" transform="matrix(12,0,0,12,715.4,395.8)" />
<use xlink:href="#f6_c" transform="matrix(11.7,0,0,15.9,726.6,396.5)" />
<use xlink:href="#f6_d" transform="matrix(11.7,0,0,15.9,743.2,396.5)" />
<use xlink:href="#f6_c" transform="matrix(11.7,0,0,15.9,761,396.5)" />
<use xlink:href="#f6_d" transform="matrix(11.7,0,0,15.9,785.8,396.5)" />
<use xlink:href="#f4_p" transform="matrix(12.2,0,0,12.2,733.5,395.2)" />
<use xlink:href="#f4_l" transform="matrix(12.2,0,0,12.2,766.5,395.2)" />
<use xlink:href="#f4_k" transform="matrix(12.2,0,0,12.2,775.7,395.2)" />
<use xlink:href="#f7_1x" transform="matrix(12.2,0,0,12.2,751.7,395.2)" />
<use xlink:href="#f4_g" transform="matrix(12,0,0,12,793.8,395.8)" />
<use xlink:href="#f4_2j" transform="matrix(12,0,0,12,801.2,395.8)" />
<use xlink:href="#f4_24" transform="matrix(12,0,0,12,814,395.8)" />
<use xlink:href="#f4_21" transform="matrix(12,0,0,12,822.8,395.8)" />
<use xlink:href="#f4_2e" transform="matrix(12,0,0,12,830.7,395.8)" />
<use xlink:href="#f4_21" transform="matrix(12,0,0,12,836.4,395.8)" />
<use xlink:href="#f4_e" transform="matrix(11.7,0,0,11.7,122.8,427.7)" />
<use xlink:href="#f4_1x" transform="matrix(12,0,0,12,137.1,424.2)" />
<use xlink:href="#f4_2a" transform="matrix(12,0,0,12,145,424.2)" />
<use xlink:href="#f4_20" transform="matrix(12,0,0,12,154.2,424.2)" />
<use xlink:href="#f7_1x" transform="matrix(12,0,0,12,168.7,425.6)" />
<use xlink:href="#f4_1x" transform="matrix(12,0,0,12,182.2,424.2)" />
<use xlink:href="#f4_2e" transform="matrix(12,0,0,12,190.3,424.2)" />
<use xlink:href="#f4_21" transform="matrix(12,0,0,12,196.2,424.2)" />
<use xlink:href="#f4_1y" transform="matrix(12,0,0,12,207.2,424.2)" />
<use xlink:href="#f4_25" transform="matrix(12,0,0,12,216.3,424.2)" />
<use xlink:href="#f4_2a" transform="matrix(12,0,0,12,221.3,424.2)" />
<use xlink:href="#f4_1x" transform="matrix(12,0,0,12,230.3,424.2)" />
<use xlink:href="#f4_2e" transform="matrix(12,0,0,12,238.1,424.2)" />
<use xlink:href="#f4_2l" transform="matrix(12,0,0,12,244.2,424.2)" />
<use xlink:href="#f4_2b" transform="matrix(12,0,0,12,255.9,424.2)" />
<use xlink:href="#f4_2c" transform="matrix(12,0,0,12,265.1,424.2)" />
<use xlink:href="#f4_21" transform="matrix(12,0,0,12,274.1,424.2)" />
<use xlink:href="#f4_2e" transform="matrix(12,0,0,12,282,424.2)" />
<use xlink:href="#f4_1x" transform="matrix(12,0,0,12,287.8,424.2)" />
<use xlink:href="#f4_2g" transform="matrix(12,0,0,12,295.9,424.2)" />
<use xlink:href="#f4_25" transform="matrix(12,0,0,12,300.9,424.2)" />
<use xlink:href="#f4_2b" transform="matrix(12,0,0,12,305.8,424.2)" />
<use xlink:href="#f4_2a" transform="matrix(12,0,0,12,314.8,424.2)" />
<use xlink:href="#f4_2f" transform="matrix(12,0,0,12,324,424.2)" />
<use xlink:href="#f4_i" transform="matrix(12,0,0,12,330.9,424.2)" />
<use xlink:href="#f4_1j" transform="matrix(12,0,0,12,64.9,465.2)" />
<use xlink:href="#f4_2b" transform="matrix(12,0,0,12,74.1,465.2)" />
<use xlink:href="#f4_28" transform="matrix(12,0,0,12,82.1,465.2)" />
<use xlink:href="#f4_u" transform="matrix(12,0,0,12,86.2,465.2)" />
<use xlink:href="#f6_c" transform="matrix(11.8,0,0,15.9,124.1,466)" />
<use xlink:href="#f6_d" transform="matrix(11.8,0,0,15.9,141,466)" />
<use xlink:href="#f6_c" transform="matrix(11.8,0,0,15.9,158.8,466)" />
<use xlink:href="#f6_d" transform="matrix(11.8,0,0,15.9,183.5,466)" />
<use xlink:href="#f6_c" transform="matrix(11.8,0,0,15.9,207.3,466)" />
<use xlink:href="#f6_d" transform="matrix(11.8,0,0,15.9,253.4,466)" />
<use xlink:href="#f4_p" transform="matrix(12.2,0,0,12.2,131.1,464.7)" />
<use xlink:href="#f4_l" transform="matrix(12.2,0,0,12.2,164.2,464.7)" />
<use xlink:href="#f4_k" transform="matrix(12.2,0,0,12.2,173.4,464.7)" />
<use xlink:href="#f4_p" transform="matrix(12.2,0,0,12.2,214.3,464.7)" />
<use xlink:href="#f4_e" transform="matrix(12.2,0,0,12.2,224.9,464.7)" />
<use xlink:href="#f4_l" transform="matrix(12.2,0,0,12.2,234.1,464.7)" />
<use xlink:href="#f4_k" transform="matrix(12.2,0,0,12.2,243.3,464.7)" />
<use xlink:href="#f4_n" transform="matrix(12.2,0,0,12.2,275.2,464.7)" />
<use xlink:href="#f4_l" transform="matrix(12.2,0,0,12.2,299.9,464.7)" />
<use xlink:href="#f4_k" transform="matrix(12.2,0,0,12.2,309.1,464.7)" />
<use xlink:href="#f4_n" transform="matrix(12.2,0,0,12.2,334,464.7)" />
<use xlink:href="#f4_l" transform="matrix(12.2,0,0,12.2,359,464.7)" />
<use xlink:href="#f4_n" transform="matrix(12.2,0,0,12.2,368.1,464.7)" />
<use xlink:href="#f6_x" transform="matrix(12.2,0,0,12.2,193.6,464.7)" />
<use xlink:href="#f6_f" transform="matrix(12.2,0,0,12.2,262.2,464.7)" />
<use xlink:href="#f6_x" transform="matrix(12.2,0,0,12.2,287.6,464.7)" />
<use xlink:href="#f6_f" transform="matrix(12.2,0,0,12.2,321.2,464.7)" />
<use xlink:href="#f6_x" transform="matrix(12.2,0,0,12.2,346.6,464.7)" />
<use xlink:href="#f7_1x" transform="matrix(12.2,0,0,12.2,149.2,464.7)" />
<use xlink:href="#f4_m" transform="matrix(12,0,0,12,64.9,532.2)" />
<use xlink:href="#f4_i" transform="matrix(12,0,0,12,74.1,532.2)" />
<use xlink:href="#f4_16" transform="matrix(12,0,0,12,121.9,532.2)" />
<use xlink:href="#f4_25" transform="matrix(12,0,0,12,131.8,532.2)" />
<use xlink:href="#f4_2a" transform="matrix(12,0,0,12,136.9,532.2)" />
<use xlink:href="#f4_20" transform="matrix(12,0,0,12,145.9,532.2)" />
<use xlink:href="#f4_2g" transform="matrix(12,0,0,12,158.4,532.2)" />
<use xlink:href="#f4_24" transform="matrix(12,0,0,12,163.3,532.2)" />
<use xlink:href="#f4_21" transform="matrix(12,0,0,12,172.3,532.2)" />
<use xlink:href="#f4_29" transform="matrix(12,0,0,12,183.7,532.2)" />
<use xlink:href="#f4_1x" transform="matrix(12,0,0,12,197.8,532.2)" />
<use xlink:href="#f4_23" transform="matrix(12,0,0,12,205.7,532.2)" />
<use xlink:href="#f4_2a" transform="matrix(12,0,0,12,214.7,532.2)" />
<use xlink:href="#f4_25" transform="matrix(12,0,0,12,223.6,532.2)" />
<use xlink:href="#f4_2g" transform="matrix(12,0,0,12,228.6,532.2)" />
<use xlink:href="#f4_2h" transform="matrix(12,0,0,12,233.7,532.2)" />
<use xlink:href="#f4_20" transform="matrix(12,0,0,12,242.7,532.2)" />
<use xlink:href="#f4_21" transform="matrix(12,0,0,12,251.7,532.2)" />
<use xlink:href="#f4_2b" transform="matrix(12,0,0,12,263,532.2)" />
<use xlink:href="#f4_22" transform="matrix(12,0,0,12,272,532.2)" />
<use xlink:href="#f4_21" transform="matrix(12,0,0,12,281.4,532.2)" />
<use xlink:href="#f4_1x" transform="matrix(12,0,0,12,289.3,532.2)" />
<use xlink:href="#f4_1z" transform="matrix(12,0,0,12,297.1,532.2)" />
<use xlink:href="#f4_24" transform="matrix(12,0,0,12,305.2,532.2)" />
<use xlink:href="#f4_2b" transform="matrix(12,0,0,12,317.3,532.2)" />
<use xlink:href="#f4_22" transform="matrix(12,0,0,12,326.5,532.2)" />
<use xlink:href="#f4_2g" transform="matrix(12,0,0,12,335.6,532.2)" />
<use xlink:href="#f4_24" transform="matrix(12,0,0,12,340.6,532.2)" />
<use xlink:href="#f4_21" transform="matrix(12,0,0,12,349.8,532.2)" />
<use xlink:href="#f4_2g" transform="matrix(12,0,0,12,360.9,532.2)" />
<use xlink:href="#f4_2j" transform="matrix(12,0,0,12,366.1,532.2)" />
<use xlink:href="#f4_2b" transform="matrix(12,0,0,12,379.1,532.2)" />
<use xlink:href="#f4_2i" transform="matrix(12,0,0,12,391.5,532.2)" />
<use xlink:href="#f4_21" transform="matrix(12,0,0,12,400.5,532.2)" />
<use xlink:href="#f4_1z" transform="matrix(12,0,0,12,408.4,532.2)" />
<use xlink:href="#f4_2g" transform="matrix(12,0,0,12,416.3,532.2)" />
<use xlink:href="#f4_2b" transform="matrix(12,0,0,12,421.4,532.2)" />
<use xlink:href="#f4_2e" transform="matrix(12,0,0,12,430.4,532.2)" />
<use xlink:href="#f4_2f" transform="matrix(12,0,0,12,436.3,532.2)" />
<use xlink:href="#f5_1x" transform="matrix(12.2,0,0,12.2,449.5,536.4)" />
<use xlink:href="#f7_20" transform="matrix(12.2,0,0,12.2,450.3,519.7)" />
<use xlink:href="#f4_1x" transform="matrix(12,0,0,12,464.6,532.2)" />
<use xlink:href="#f4_2a" transform="matrix(12,0,0,12,472.6,532.2)" />
<use xlink:href="#f4_20" transform="matrix(12,0,0,12,481.6,532.2)" />
<use xlink:href="#f5_1y" transform="matrix(12.2,0,0,12.2,496.3,536.4)" />
<use xlink:href="#f7_20" transform="matrix(12.2,0,0,12.2,497.2,519.7)" />
<use xlink:href="#f4_g" transform="matrix(12,0,0,12,508.8,532.2)" />
<use xlink:href="#f4_24" transform="matrix(12,0,0,12,516.6,532.2)" />
<use xlink:href="#f4_1x" transform="matrix(12,0,0,12,525.6,532.2)" />
<use xlink:href="#f4_2i" transform="matrix(12,0,0,12,533.5,532.2)" />
<use xlink:href="#f4_25" transform="matrix(12,0,0,12,542.5,532.2)" />
<use xlink:href="#f4_2a" transform="matrix(12,0,0,12,547.6,532.2)" />
<use xlink:href="#f4_23" transform="matrix(12,0,0,12,556.6,532.2)" />
<use xlink:href="#f4_2g" transform="matrix(12,0,0,12,568.7,532.2)" />
<use xlink:href="#f4_24" transform="matrix(12,0,0,12,573.6,532.2)" />
<use xlink:href="#f4_21" transform="matrix(12,0,0,12,582.6,532.2)" />
<use xlink:href="#f4_2f" transform="matrix(12,0,0,12,594,532.2)" />
<use xlink:href="#f4_1x" transform="matrix(12,0,0,12,600.9,532.2)" />
<use xlink:href="#f4_29" transform="matrix(12,0,0,12,608.8,532.2)" />
<use xlink:href="#f4_21" transform="matrix(12,0,0,12,623.1,532.2)" />
<use xlink:href="#f4_29" transform="matrix(12,0,0,12,634.3,532.2)" />
<use xlink:href="#f4_1x" transform="matrix(12,0,0,12,648.4,532.2)" />
<use xlink:href="#f4_23" transform="matrix(12,0,0,12,656.5,532.2)" />
<use xlink:href="#f4_2a" transform="matrix(12,0,0,12,665.3,532.2)" />
<use xlink:href="#f4_25" transform="matrix(12,0,0,12,674.3,532.2)" />
<use xlink:href="#f4_2g" transform="matrix(12,0,0,12,679.2,532.2)" />
<use xlink:href="#f4_2h" transform="matrix(12,0,0,12,684.3,532.2)" />
<use xlink:href="#f4_20" transform="matrix(12,0,0,12,693.3,532.2)" />
<use xlink:href="#f4_21" transform="matrix(12,0,0,12,702.3,532.2)" />
<use xlink:href="#f4_2f" transform="matrix(12,0,0,12,713.7,532.2)" />
<use xlink:href="#f4_2h" transform="matrix(12,0,0,12,720.6,532.2)" />
<use xlink:href="#f4_1z" transform="matrix(12,0,0,12,729.6,532.2)" />
<use xlink:href="#f4_24" transform="matrix(12,0,0,12,737.7,532.2)" />
<use xlink:href="#f4_2g" transform="matrix(12,0,0,12,749.8,532.2)" />
<use xlink:href="#f4_24" transform="matrix(12,0,0,12,754.9,532.2)" />
<use xlink:href="#f4_1x" transform="matrix(12,0,0,12,763.9,532.2)" />
<use xlink:href="#f4_2g" transform="matrix(12,0,0,12,771.8,532.2)" />
<use xlink:href="#f4_2g" transform="matrix(12,0,0,12,780.2,532.2)" />
<use xlink:href="#f4_24" transform="matrix(12,0,0,12,785.1,532.2)" />
<use xlink:href="#f4_21" transform="matrix(12,0,0,12,794.1,532.2)" />
<use xlink:href="#f4_1x" transform="matrix(12,0,0,12,805.5,532.2)" />
<use xlink:href="#f4_2a" transform="matrix(12,0,0,12,813.4,532.2)" />
<use xlink:href="#f4_23" transform="matrix(12,0,0,12,822.4,532.2)" />
<use xlink:href="#f4_28" transform="matrix(12,0,0,12,831.3,532.2)" />
<use xlink:href="#f4_21" transform="matrix(12,0,0,12,836.3,532.2)" />
<use xlink:href="#f4_1y" transform="matrix(12,0,0,12,121.2,579.6)" />
<use xlink:href="#f4_21" transform="matrix(12,0,0,12,130.2,579.6)" />
<use xlink:href="#f4_2g" transform="matrix(12,0,0,12,138.1,579.6)" />
<use xlink:href="#f4_2j" transform="matrix(12,0,0,12,143,579.6)" />
<use xlink:href="#f4_21" transform="matrix(12,0,0,12,156,579.6)" />
<use xlink:href="#f4_21" transform="matrix(12,0,0,12,163.9,579.6)" />
<use xlink:href="#f4_2a" transform="matrix(12,0,0,12,171.8,579.6)" />
<use xlink:href="#f4_2g" transform="matrix(12,0,0,12,184.1,579.6)" />
<use xlink:href="#f4_24" transform="matrix(12,0,0,12,189,579.6)" />
<use xlink:href="#f4_21" transform="matrix(12,0,0,12,198.2,579.6)" />
<use xlink:href="#f4_29" transform="matrix(12,0,0,12,206.1,579.6)" />
<use xlink:href="#f4_25" transform="matrix(12,0,0,12,223.5,579.6)" />
<use xlink:href="#f4_2f" transform="matrix(12,0,0,12,228.4,579.6)" />
<use xlink:href="#f4_q" transform="matrix(12,0,0,12,238.7,579.6)" />
<use xlink:href="#f4_k" transform="matrix(12,0,0,12,247.7,579.6)" />
<use xlink:href="#f4_k" transform="matrix(7,0,0,7,256.7,573.6)" />
<use xlink:href="#f4_1x" transform="matrix(12,0,0,12,265.1,579.6)" />
<use xlink:href="#f4_2a" transform="matrix(12,0,0,12,273,579.6)" />
<use xlink:href="#f4_20" transform="matrix(12,0,0,12,282,579.6)" />
<use xlink:href="#f4_2g" transform="matrix(12,0,0,12,294.1,579.6)" />
<use xlink:href="#f4_24" transform="matrix(12,0,0,12,299,579.6)" />
<use xlink:href="#f4_21" transform="matrix(12,0,0,12,308,579.6)" />
<use xlink:href="#f4_25" transform="matrix(12,0,0,12,315.9,579.6)" />
<use xlink:href="#f4_2e" transform="matrix(12,0,0,12,320.8,579.6)" />
<use xlink:href="#f4_2f" transform="matrix(12,0,0,12,330,579.6)" />
<use xlink:href="#f4_1z" transform="matrix(12,0,0,12,337,579.6)" />
<use xlink:href="#f4_1x" transform="matrix(12,0,0,12,344.9,579.6)" />
<use xlink:href="#f4_28" transform="matrix(12,0,0,12,352.7,579.6)" />
<use xlink:href="#f4_1x" transform="matrix(12,0,0,12,357.7,579.6)" />
<use xlink:href="#f4_2e" transform="matrix(12,0,0,12,365.6,579.6)" />
<use xlink:href="#f4_2c" transform="matrix(12,0,0,12,374.7,579.6)" />
<use xlink:href="#f4_2e" transform="matrix(12,0,0,12,383.7,579.6)" />
<use xlink:href="#f4_2b" transform="matrix(12,0,0,12,389.6,579.6)" />
<use xlink:href="#f4_20" transform="matrix(12,0,0,12,398.6,579.6)" />
<use xlink:href="#f4_2h" transform="matrix(12,0,0,12,407.6,579.6)" />
<use xlink:href="#f4_1z" transform="matrix(12,0,0,12,416.5,579.6)" />
<use xlink:href="#f4_2g" transform="matrix(12,0,0,12,424.4,579.6)" />
<use xlink:href="#f4_25" transform="matrix(12,0,0,12,432.5,579.6)" />
<use xlink:href="#f4_2f" transform="matrix(12,0,0,12,437.4,579.6)" />
</g>
<path d="M450.8,572.6h10.8" class="g1_1" />
<g fill="#000000" >
<use xlink:href="#f4_t" transform="matrix(11.9,0,0,11.9,451.6,565.7)" />
<use xlink:href="#f4_m" transform="matrix(11.9,0,0,11.9,451.9,591.4)" />
<use xlink:href="#f4_1j" transform="matrix(12,0,0,12,64.9,623.5)" />
<use xlink:href="#f4_2b" transform="matrix(12,0,0,12,74.1,623.5)" />
<use xlink:href="#f4_28" transform="matrix(12,0,0,12,82.1,623.5)" />
<use xlink:href="#f4_u" transform="matrix(12,0,0,12,86.2,623.5)" />
<use xlink:href="#f4_17" transform="matrix(12,0,0,12,121.9,623.5)" />
<use xlink:href="#f4_25" transform="matrix(12,0,0,12,134.2,623.5)" />
<use xlink:href="#f4_2i" transform="matrix(12,0,0,12,138.6,623.5)" />
<use xlink:href="#f4_21" transform="matrix(12,0,0,12,146.8,623.5)" />
<use xlink:href="#f4_2a" transform="matrix(12,0,0,12,154,623.5)" />
<use xlink:href="#f4_u" transform="matrix(12,0,0,12,165,623.5)" />
</g>
<path d="M124.9,657.3H134m-11.6,-3.9v21.7m13.8,-21.7v21.7M159.1,653h9m-11.5,-1.8v26.2m13.7,-26.2v26.2M300.1,657.3h9.1m9.9,-4.3h9m19.3,11.3h10.7" class="g2_1" />
<g fill="#000000" >
<use xlink:href="#f4_2b" transform="matrix(6.9,0,0,6.9,254.8,660.7)" />
<use xlink:href="#f4_t" transform="matrix(11.9,0,0,11.9,348.2,657.4)" />
<use xlink:href="#f4_1x" transform="matrix(11.9,0,0,11.9,125,668.9)" />
<use xlink:href="#f4_1y" transform="matrix(11.9,0,0,11.9,159.1,668.9)" />
<use xlink:href="#f4_1x" transform="matrix(11.9,0,0,11.9,177.3,668.9)" />
<use xlink:href="#f4_2a" transform="matrix(11.9,0,0,11.9,185.2,668.9)" />
<use xlink:href="#f4_20" transform="matrix(11.9,0,0,11.9,194.3,668.9)" />
<use xlink:href="#f4_q" transform="matrix(11.9,0,0,11.9,236.3,668.9)" />
<use xlink:href="#f4_k" transform="matrix(11.9,0,0,11.9,245.4,668.9)" />
<use xlink:href="#f4_1x" transform="matrix(11.9,0,0,11.9,267.6,668.9)" />
<use xlink:href="#f4_2a" transform="matrix(11.9,0,0,11.9,275.5,668.9)" />
<use xlink:href="#f4_20" transform="matrix(11.9,0,0,11.9,284.5,668.9)" />
<use xlink:href="#f4_1x" transform="matrix(11.9,0,0,11.9,300.3,668.9)" />
<use xlink:href="#f4_1y" transform="matrix(11.9,0,0,11.9,319.1,668.9)" />
<use xlink:href="#f4_m" transform="matrix(11.9,0,0,11.9,348.5,683)" />
<use xlink:href="#f6_x" transform="matrix(11.9,0,0,11.9,141.7,668.9)" />
<use xlink:href="#f6_2d" transform="matrix(11.9,0,0,11.9,209.2,668.9)" />
<use xlink:href="#f6_x" transform="matrix(11.9,0,0,11.9,222.5,668.9)" />
<use xlink:href="#f6_49" transform="matrix(11.9,0,0,11.9,312,668.9)" />
<use xlink:href="#f6_x" transform="matrix(11.9,0,0,11.9,332.9,668.9)" />
</g>
<path d="M137.9,704.8H147m10.1,-4.2h9.2m22.5,4.2H198M186.3,701v21.5M200.2,701v21.5m6.9,-21.9h9.2m-11.7,-1.9v26m13.9,-26v26" class="g3_1" />
<g fill="#000000" >
<use xlink:href="#f4_1x" transform="matrix(11.8,0,0,11.8,138.1,716.2)" />
<use xlink:href="#f4_1y" transform="matrix(11.8,0,0,11.8,157.3,716.2)" />
<use xlink:href="#f4_1x" transform="matrix(11.8,0,0,11.8,189,716.2)" />
<use xlink:href="#f4_1y" transform="matrix(11.8,0,0,11.8,207.1,716.2)" />
<use xlink:href="#f4_1z" transform="matrix(11.8,0,0,11.8,221.8,716.2)" />
<use xlink:href="#f4_2b" transform="matrix(11.8,0,0,11.8,229.9,716.2)" />
<use xlink:href="#f4_2f" transform="matrix(11.8,0,0,11.8,239,716.2)" />
<use xlink:href="#f6_1s" transform="matrix(11.8,0,0,11.8,119,716.2)" />
<use xlink:href="#f6_49" transform="matrix(11.8,0,0,11.8,150,716.2)" />
<use xlink:href="#f6_x" transform="matrix(11.8,0,0,11.8,171.2,716.2)" />
<use xlink:href="#f6_2d" transform="matrix(11.8,0,0,11.8,248.2,716.2)" />
</g>
<path d="M122.1,760.8H133m22.5,-7h9.2M152.9,750v21.6m14,-21.6v21.6m10.6,-17.8h9.2M175,750v21.6M189,750v21.6" class="g1_1" />
<g fill="#000000" >
<use xlink:href="#f4_2b" transform="matrix(6.9,0,0,6.9,238,757.3)" />
<use xlink:href="#f4_t" transform="matrix(11.9,0,0,11.9,122.8,753.8)" />
<use xlink:href="#f4_1x" transform="matrix(11.9,0,0,11.9,155.6,765.4)" />
<use xlink:href="#f4_1x" transform="matrix(11.9,0,0,11.9,177.6,765.4)" />
<use xlink:href="#f4_1z" transform="matrix(11.9,0,0,11.9,192.5,765.4)" />
<use xlink:href="#f4_2b" transform="matrix(11.9,0,0,11.9,200.5,765.4)" />
<use xlink:href="#f4_2f" transform="matrix(11.9,0,0,11.9,209.7,765.4)" />
<use xlink:href="#f4_q" transform="matrix(11.9,0,0,11.9,219.2,765.4)" />
<use xlink:href="#f4_k" transform="matrix(11.9,0,0,11.9,228.4,765.4)" />
<use xlink:href="#f4_m" transform="matrix(11.9,0,0,11.9,123.2,779.5)" />
<use xlink:href="#f6_x" transform="matrix(11.9,0,0,11.9,137.9,765.4)" />
</g>
<path d="M122,817.4h10.7m22.2,-7H164m-11.6,-3.9v21.7m13.8,-21.7v21.7m23.6,-10.8h10.8" class="g4_1" />
<g fill="#000000" >
<use xlink:href="#f4_m" transform="matrix(6.9,0,0,6.9,168.1,811)" />
<use xlink:href="#f4_t" transform="matrix(11.9,0,0,11.9,122.8,810.5)" />
<use xlink:href="#f4_l" transform="matrix(11.9,0,0,11.9,190.7,810.5)" />
<use xlink:href="#f4_1x" transform="matrix(11.9,0,0,11.9,155.1,822)" />
<use xlink:href="#f4_m" transform="matrix(11.9,0,0,11.9,123.2,836.1)" />
<use xlink:href="#f4_m" transform="matrix(11.9,0,0,11.9,191,836.1)" />
<use xlink:href="#f6_x" transform="matrix(11.9,0,0,11.9,137.5,822)" />
<use xlink:href="#f6_3a" transform="matrix(11.9,0,0,11.9,177.1,822)" />
</g>
<path d="M125,859.4h9.1m-11.7,-3.8v21.5m13.9,-21.5v21.5" class="g4_1" />
<g fill="#000000" >
<use xlink:href="#f4_m" transform="matrix(6.8,0,0,6.8,138.2,860)" />
<use xlink:href="#f4_1x" transform="matrix(11.8,0,0,11.8,125,870.8)" />
<use xlink:href="#f4_t" transform="matrix(11.8,0,0,11.8,163.2,870.8)" />
<use xlink:href="#f6_x" transform="matrix(11.8,0,0,11.8,149.6,870.8)" />
</g>
<path d="M125,899.9h9.2M122.5,896v21.8M136.4,896v21.8m49.5,-23.4h8.3m-10.8,-1.8v28.6m13.1,-28.6v28.6" class="g5_1" />
<g fill="#000000" >
<use xlink:href="#f4_1x" transform="matrix(12,0,0,12,125.2,911.5)" />
<use xlink:href="#f8_x" transform="matrix(12,0,0,12,145.7,911.5)" />
<use xlink:href="#f4_n" transform="matrix(12,0,0,12,155.8,911.5)" />
<use xlink:href="#f8_x" transform="matrix(12,0,0,12,168.3,911.5)" />
<use xlink:href="#f4_1y" transform="matrix(12,0,0,12,185.7,911.5)" />
<use xlink:href="#f4_n" transform="matrix(12,0,0,12,64.9,1023.7)" />
<use xlink:href="#f4_i" transform="matrix(12,0,0,12,74.1,1023.7)" />
<use xlink:href="#f4_19" transform="matrix(12,0,0,12,121.9,1023.7)" />
<use xlink:href="#f4_22" transform="matrix(12,0,0,12,127.2,1023.7)" />
<use xlink:href="#f4_2g" transform="matrix(12,0,0,12,136.2,1023.7)" />
<use xlink:href="#f4_24" transform="matrix(12,0,0,12,141.2,1023.7)" />
<use xlink:href="#f4_21" transform="matrix(12,0,0,12,150,1023.7)" />
<use xlink:href="#f4_29" transform="matrix(12,0,0,12,161,1023.7)" />
<use xlink:href="#f4_1x" transform="matrix(12,0,0,12,174.9,1023.7)" />
<use xlink:href="#f4_2g" transform="matrix(12,0,0,12,182.8,1023.7)" />
<use xlink:href="#f4_2e" transform="matrix(12,0,0,12,187.6,1023.7)" />
<use xlink:href="#f4_25" transform="matrix(12,0,0,12,193.4,1023.7)" />
<use xlink:href="#f4_2k" transform="matrix(12,0,0,12,198.2,1023.7)" />
<use xlink:href="#f4_k" transform="matrix(12.1,0,0,12.1,251.7,986.3)" />
<use xlink:href="#f4_n" transform="matrix(12.1,0,0,12.1,315,986.3)" />
<use xlink:href="#f4_m" transform="matrix(12.1,0,0,12.1,251.9,1014)" />
<use xlink:href="#f4_k" transform="matrix(12.1,0,0,12.1,278.3,1014)" />
<use xlink:href="#f4_l" transform="matrix(12.1,0,0,12.1,315.3,1014)" />
<use xlink:href="#f4_l" transform="matrix(12.1,0,0,12.1,278.1,1041.5)" />
<use xlink:href="#f4_k" transform="matrix(12.1,0,0,12.1,309.5,1041.5)" />
<use xlink:href="#f5_1x" transform="matrix(12.1,0,0,12.1,278.1,986.3)" />
<use xlink:href="#f5_11" transform="matrix(12.1,0,0,12.1,214.7,1014)" />
<use xlink:href="#f5_1y" transform="matrix(12.1,0,0,12.1,251.4,1041.5)" />
<use xlink:href="#f6_h" transform="matrix(12.1,0,0,12.1,304.9,986.3)" />
<use xlink:href="#f6_4r" transform="matrix(12.1,0,0,12.1,244,987.7)" />
<use xlink:href="#f6_57" transform="matrix(12.1,0,0,12.1,324.1,987.7)" />
<use xlink:href="#f6_4s" transform="matrix(12.1,0,0,12.1,244,1005.3)" />
<use xlink:href="#f6_58" transform="matrix(12.1,0,0,12.1,324.1,1005.3)" />
<use xlink:href="#f6_x" transform="matrix(12.1,0,0,12.1,229.5,1014)" />
<use xlink:href="#f6_h" transform="matrix(12.1,0,0,12.1,305.4,1014)" />
<use xlink:href="#f6_4s" transform="matrix(12.1,0,0,12.1,244,1022.9)" />
<use xlink:href="#f6_58" transform="matrix(12.1,0,0,12.1,324.1,1022.9)" />
<use xlink:href="#f6_4s" transform="matrix(12.1,0,0,12.1,244,1040.7)" />
<use xlink:href="#f6_58" transform="matrix(12.1,0,0,12.1,324.1,1040.7)" />
<use xlink:href="#f6_4t" transform="matrix(12.1,0,0,12.1,244,1046.4)" />
<use xlink:href="#f6_59" transform="matrix(12.1,0,0,12.1,324.1,1046.4)" />
<use xlink:href="#f4_25" transform="matrix(12,0,0,12,338.1,1023.7)" />
<use xlink:href="#f4_2f" transform="matrix(12,0,0,12,343,1023.7)" />
<use xlink:href="#f4_2f" transform="matrix(12,0,0,12,352.9,1023.7)" />
<use xlink:href="#f4_27" transform="matrix(12,0,0,12,359.7,1023.7)" />
<use xlink:href="#f4_21" transform="matrix(12,0,0,12,368.5,1023.7)" />
<use xlink:href="#f4_2j" transform="matrix(12,0,0,12,376.4,1023.7)" />
<use xlink:href="#f4_2f" transform="matrix(12,0,0,12,392.3,1023.7)" />
<use xlink:href="#f4_2l" transform="matrix(12,0,0,12,399.3,1023.7)" />
<use xlink:href="#f4_29" transform="matrix(12,0,0,12,407.5,1023.7)" />
<use xlink:href="#f4_29" transform="matrix(12,0,0,12,421.7,1023.7)" />
<use xlink:href="#f4_21" transform="matrix(12,0,0,12,435.6,1023.7)" />
<use xlink:href="#f4_2g" transform="matrix(12,0,0,12,443.3,1023.7)" />
<use xlink:href="#f4_2e" transform="matrix(12,0,0,12,448.2,1023.7)" />
<use xlink:href="#f4_25" transform="matrix(12,0,0,12,453.9,1023.7)" />
<use xlink:href="#f4_1z" transform="matrix(12,0,0,12,458.7,1023.7)" />
<use xlink:href="#f4_g" transform="matrix(12,0,0,12,466.6,1023.7)" />
<use xlink:href="#f4_22" transform="matrix(12,0,0,12,474.1,1023.7)" />
<use xlink:href="#f4_25" transform="matrix(12,0,0,12,479.8,1023.7)" />
<use xlink:href="#f4_2a" transform="matrix(12,0,0,12,484.5,1023.7)" />
<use xlink:href="#f4_20" transform="matrix(12,0,0,12,493.5,1023.7)" />
<use xlink:href="#f4_2g" transform="matrix(12,0,0,12,505.3,1023.7)" />
<use xlink:href="#f4_24" transform="matrix(12,0,0,12,510.2,1023.7)" />
<use xlink:href="#f4_21" transform="matrix(12,0,0,12,519,1023.7)" />
<use xlink:href="#f4_2i" transform="matrix(12,0,0,12,530,1023.7)" />
<use xlink:href="#f4_1x" transform="matrix(12,0,0,12,538.8,1023.7)" />
<use xlink:href="#f4_28" transform="matrix(12,0,0,12,546.7,1023.7)" />
<use xlink:href="#f4_2h" transform="matrix(12,0,0,12,551.5,1023.7)" />
<use xlink:href="#f4_21" transform="matrix(12,0,0,12,560.5,1023.7)" />
<use xlink:href="#f4_2f" transform="matrix(12,0,0,12,568.2,1023.7)" />
<use xlink:href="#f4_2b" transform="matrix(12,0,0,12,578.2,1023.7)" />
<use xlink:href="#f4_22" transform="matrix(12,0,0,12,587,1023.7)" />
<use xlink:href="#f4_52" transform="matrix(12,0,0,12,596,1023.7)" />
<use xlink:href="#f4_1x" transform="matrix(12,0,0,12,601.7,1023.7)" />
<use xlink:href="#f4_53" transform="matrix(12,0,0,12,609.6,1023.7)" />
<use xlink:href="#f4_1x" transform="matrix(12,0,0,12,618.2,1023.7)" />
<use xlink:href="#f4_2a" transform="matrix(12,0,0,12,626.1,1023.7)" />
<use xlink:href="#f4_20" transform="matrix(12,0,0,12,634.9,1023.7)" />
<use xlink:href="#f4_52" transform="matrix(12,0,0,12,647,1023.7)" />
<use xlink:href="#f4_1y" transform="matrix(12,0,0,12,652.7,1023.7)" />
<use xlink:href="#f4_53" transform="matrix(12,0,0,12,661.7,1023.7)" />
<use xlink:href="#f4_i" transform="matrix(12,0,0,12,667.3,1023.7)" />
<use xlink:href="#f4_1j" transform="matrix(12,0,0,12,64.9,1084.4)" />
<use xlink:href="#f4_2b" transform="matrix(12,0,0,12,74.1,1084.4)" />
<use xlink:href="#f4_28" transform="matrix(12,0,0,12,82.1,1084.4)" />
<use xlink:href="#f4_u" transform="matrix(12,0,0,12,86.2,1084.4)" />
<use xlink:href="#f7_14" transform="matrix(11.7,0,0,11.7,121.6,1086.4)" />
<use xlink:href="#f4_11" transform="matrix(12,0,0,12,140.8,1084.4)" />
<use xlink:href="#f4_25" transform="matrix(12,0,0,12,155.7,1084.4)" />
<use xlink:href="#f4_2f" transform="matrix(12,0,0,12,160.4,1084.4)" />
<use xlink:href="#f4_2f" transform="matrix(12,0,0,12,170,1084.4)" />
<use xlink:href="#f4_27" transform="matrix(12,0,0,12,176.7,1084.4)" />
<use xlink:href="#f4_21" transform="matrix(12,0,0,12,185.5,1084.4)" />
<use xlink:href="#f4_2j" transform="matrix(12,0,0,12,193.2,1084.4)" />
<use xlink:href="#f4_2f" transform="matrix(12,0,0,12,209.2,1084.4)" />
<use xlink:href="#f4_2l" transform="matrix(12,0,0,12,216,1084.4)" />
<use xlink:href="#f4_29" transform="matrix(12,0,0,12,224,1084.4)" />
<use xlink:href="#f4_29" transform="matrix(12,0,0,12,238,1084.4)" />
<use xlink:href="#f4_21" transform="matrix(12,0,0,12,251.9,1084.4)" />
<use xlink:href="#f4_2g" transform="matrix(12,0,0,12,259.6,1084.4)" />
<use xlink:href="#f4_2e" transform="matrix(12,0,0,12,264.4,1084.4)" />
<use xlink:href="#f4_25" transform="matrix(12,0,0,12,270.1,1084.4)" />
<use xlink:href="#f4_1z" transform="matrix(12,0,0,12,274.8,1084.4)" />
<use xlink:href="#f4_29" transform="matrix(12,0,0,12,285.6,1084.4)" />
<use xlink:href="#f4_1x" transform="matrix(12,0,0,12,299.4,1084.4)" />
<use xlink:href="#f4_2g" transform="matrix(12,0,0,12,307.1,1084.4)" />
<use xlink:href="#f4_2e" transform="matrix(12,0,0,12,311.8,1084.4)" />
<use xlink:href="#f4_25" transform="matrix(12,0,0,12,317.5,1084.4)" />
<use xlink:href="#f4_2k" transform="matrix(12,0,0,12,322.3,1084.4)" />
<use xlink:href="#f4_l" transform="matrix(6.9,0,0,6.9,130,1121.8)" />
<use xlink:href="#f4_m" transform="matrix(6.9,0,0,6.9,135.3,1121.8)" />
<use xlink:href="#f4_m" transform="matrix(6.9,0,0,6.9,180.7,1121.8)" />
<use xlink:href="#f4_l" transform="matrix(6.9,0,0,6.9,186.1,1121.8)" />
<use xlink:href="#f4_1x" transform="matrix(12,0,0,12,121.6,1117)" />
<use xlink:href="#f4_1x" transform="matrix(12,0,0,12,171,1117)" />
<use xlink:href="#f4_1x" transform="matrix(12,0,0,12,219,1117)" />
<use xlink:href="#f4_m" transform="matrix(12,0,0,12,256.6,1117)" />
<use xlink:href="#f6_x" transform="matrix(12,0,0,12,146.3,1117)" />
<use xlink:href="#f6_h" transform="matrix(12,0,0,12,160.8,1117)" />
<use xlink:href="#f6_4g" transform="matrix(12,0,0,12,195.8,1117)" />
<use xlink:href="#f6_x" transform="matrix(12,0,0,12,232.2,1117)" />
<use xlink:href="#f6_h" transform="matrix(12,0,0,12,246.5,1117)" />
<use xlink:href="#f4_n" transform="matrix(6.9,0,0,6.9,162.6,1154.8)" />
<use xlink:href="#f4_l" transform="matrix(6.9,0,0,6.9,167.8,1154.8)" />
<use xlink:href="#f4_l" transform="matrix(6.9,0,0,6.9,211.2,1154.8)" />
<use xlink:href="#f4_n" transform="matrix(6.9,0,0,6.9,216.5,1154.8)" />
<use xlink:href="#f4_1x" transform="matrix(12,0,0,12,121.6,1150)" />
<use xlink:href="#f4_2a" transform="matrix(12,0,0,12,129.4,1150)" />
<use xlink:href="#f4_20" transform="matrix(12,0,0,12,138.6,1150)" />
<use xlink:href="#f4_1x" transform="matrix(12,0,0,12,153.2,1150)" />
<use xlink:href="#f4_1x" transform="matrix(12,0,0,12,202.7,1150)" />
<use xlink:href="#f4_1y" transform="matrix(12,0,0,12,250,1150)" />
<use xlink:href="#f4_n" transform="matrix(12,0,0,12,277.3,1150)" />
<use xlink:href="#f6_x" transform="matrix(12,0,0,12,178,1150)" />
<use xlink:href="#f6_h" transform="matrix(12,0,0,12,192.5,1150)" />
<use xlink:href="#f6_4g" transform="matrix(12,0,0,12,226.6,1150)" />
<use xlink:href="#f6_x" transform="matrix(12,0,0,12,263.6,1150)" />
<use xlink:href="#f9_l" transform="matrix(8,0,0,8,792.2,1264.3)" />
</g>
<defs>
<path d="M0,0L377,570L35,1093H293L512,766l214,327H983L639,562L1017,0H750L508,370L265,0Z" 
id="f0_1o"
transform="scale(0.001,-0.001)" />

<path d="M105,0V1093H326V0Z" 
id="f0_19"
transform="scale(0.001,-0.001)" />

<path d="M571,-18c0,0,-218,0,-358,148C213,130,72,279,72,537c0,0,0,273,141,425c0,0,141,151,371,151c0,0,201,0,326,-119c0,0,75,-70,112,-202L803,740c0,0,-19,85,-81,135c0,0,-61,49,-149,49c0,0,-122,0,-197,-87c0,0,-76,-88,-76,-283c0,0,0,-208,75,-296c0,0,74,-88,194,-88c0,0,88,0,151,56c0,0,63,56,91,177l214,-68c0,0,-49,-179,-164,-266c0,0,-114,-87,-290,-87Z" 
id="f0_13"
transform="scale(0.001,-0.001)" />

<path d="M537,185c0,0,120,0,152,6c0,0,49,9,80,44c0,0,31,35,31,93c0,0,0,49,-24,84c0,0,-24,34,-69,49c0,0,-45,16,-196,16H332V185ZM477,659c0,0,129,0,161,4c0,0,56,6,89,39c0,0,32,32,32,85c0,0,0,51,-28,82c0,0,-28,32,-83,39c0,0,-33,3,-189,3H332V659ZM111,0V1093H549c0,0,130,0,194,-11c0,0,63,-10,114,-45c0,0,50,-34,84,-91c0,0,33,-57,33,-128c0,0,0,-76,-41,-140c0,0,-41,-64,-112,-96c0,0,100,-30,153,-100c0,0,54,-70,54,-165c0,0,0,-74,-35,-145c0,0,-34,-70,-94,-113C899,59,838,17,750,7C750,7,695,1,484,0Z" 
id="f0_12"
transform="scale(0.001,-0.001)" />

<path d="M506,-19c0,0,-207,0,-318,95C188,76,76,172,55,356l215,20c0,0,19,-108,79,-158c0,0,59,-51,160,-51c0,0,106,0,161,45c0,0,54,45,54,106c0,0,0,38,-23,66c0,0,-23,27,-80,47c0,0,-38,13,-177,48c0,0,-178,44,-249,108c0,0,-101,90,-101,220c0,0,0,84,47,157c0,0,48,73,137,111c0,0,89,38,216,38c0,0,206,0,310,-91c0,0,104,-90,109,-241L692,771c0,0,-14,85,-60,122c0,0,-47,37,-141,37c0,0,-96,0,-151,-40c0,0,-35,-25,-35,-68c0,0,0,-39,33,-66c0,0,42,-35,203,-73c0,0,162,-38,239,-79c0,0,77,-41,121,-111c0,0,44,-71,44,-175c0,0,0,-94,-53,-176C892,142,840,60,745,20c0,0,-96,-39,-239,-39Z" 
id="f0_1j"
transform="scale(0.001,-0.001)" />

<path d="M111,0V1093H922V908H332V666H881V481H332V185H943V0Z" 
id="f0_15"
transform="scale(0.001,-0.001)" />

<path d="M49,291V501H460V291Z" 
id="f0_h"
transform="scale(0.001,-0.001)" />

<path d="M598,170c0,0,132,0,216,95c0,0,85,95,85,286c0,0,0,188,-82,280c0,0,-83,93,-219,93c0,0,-137,0,-220,-94c0,0,-84,-93,-84,-282c0,0,0,-186,86,-282c0,0,86,-96,218,-96Zm0,-188c0,0,-244,0,-388,148C210,130,66,279,66,540c0,0,0,167,50,281c0,0,38,84,102,150c0,0,65,66,142,98c0,0,102,44,235,44c0,0,242,0,387,-150c0,0,145,-150,145,-417c0,0,0,-265,-144,-415C983,131,839,-18,598,-18Z" 
id="f0_1f"
transform="scale(0.001,-0.001)" />

<path d="M692,433L540,838L392,433ZM0,0L425,1093H660L1098,0H858L763,248H325L234,0Z" 
id="f0_11"
transform="scale(0.001,-0.001)" />

<path d="M496,632c0,0,159,0,198,13c0,0,40,13,62,46c0,0,23,33,23,82c0,0,0,55,-30,89c0,0,-29,34,-83,43c0,0,-27,3,-161,3H332V632ZM111,0V1093H577c0,0,175,0,254,-29c0,0,80,-30,128,-105c0,0,48,-75,48,-172c0,0,0,-123,-73,-203c0,0,-72,-80,-216,-101c0,0,72,-42,118,-92c0,0,47,-50,126,-178L1096,0H831L672,238c0,0,-85,128,-117,161c0,0,-31,33,-66,45c0,0,-35,13,-112,13H332V0Z" 
id="f0_1i"
transform="scale(0.001,-0.001)" />

<path d="M496,185c0,0,93,0,134,10c0,0,54,14,89,46c0,0,35,32,58,105c0,0,22,74,22,200c0,0,0,127,-22,195c0,0,-23,68,-63,106c0,0,-40,38,-102,51c0,0,-46,10,-181,10H331V185ZM110,0V1093H514c0,0,136,0,208,-21c0,0,96,-28,165,-100c0,0,68,-73,104,-177c0,0,36,-105,36,-259c0,0,0,-135,-34,-233c0,0,-41,-119,-117,-193c0,0,-57,-56,-155,-87C721,23,648,0,526,0Z" 
id="f0_14"
transform="scale(0.001,-0.001)" />

<path d="M109,0V1093H439L637,347l196,746h331V0H959V861L742,0H529L313,861V0Z" 
id="f0_1d"
transform="scale(0.001,-0.001)" />

<path d="M111,0V1093H332V663H765v430H986V0H765V478H332V0Z" 
id="f0_18"
transform="scale(0.001,-0.001)" />

<path d="M38,0c0,0,12,110,72,209c0,0,59,99,235,262c0,0,142,132,174,179c0,0,43,65,43,129c0,0,0,70,-37,107c0,0,-38,38,-104,38c0,0,-66,0,-104,-40c0,0,-39,-39,-45,-131L63,774c0,0,18,173,117,249c0,0,98,75,246,75c0,0,162,0,254,-87c0,0,92,-88,92,-217c0,0,0,-74,-26,-141c0,0,-26,-67,-84,-140c0,0,-38,-48,-137,-139c0,0,-100,-91,-126,-121c0,0,-26,-30,-43,-58H772V0Z" 
id="f0_m"
transform="scale(0.001,-0.001)" />

<path d="M419,155c0,0,39,0,68,25c0,0,30,24,47,87c0,0,21,80,21,272c0,0,0,193,-19,265c0,0,-19,72,-49,96c0,0,-29,24,-68,24c0,0,-38,0,-67,-24c0,0,-30,-24,-47,-87c0,0,-21,-81,-21,-274c0,0,0,-192,19,-264c0,0,19,-72,49,-96c0,0,29,-24,67,-24Zm0,-173c0,0,-159,0,-257,122c0,0,-97,123,-97,438c0,0,0,308,107,444c0,0,89,112,247,112c0,0,159,0,249,-113c0,0,106,-135,106,-446c0,0,0,-310,-107,-446C667,93,578,-18,419,-18Z" 
id="f0_k"
transform="scale(0.001,-0.001)" />

<path d="M392,0V790C392,790,277,682,121,631V821c0,0,82,27,178,102c0,0,97,75,132,175H601V0Z" 
id="f0_l"
transform="scale(0.001,-0.001)" />

<path d="M424,149c0,0,65,0,107,46c0,0,43,47,43,135c0,0,0,76,-43,123c0,0,-44,47,-110,47c0,0,-78,0,-115,-53c0,0,-38,-53,-38,-115c0,0,0,-87,44,-135c0,0,45,-48,112,-48Zm-6,519c0,0,60,0,96,35c0,0,36,36,36,99c0,0,0,59,-36,94c0,0,-36,36,-94,36c0,0,-61,0,-97,-36c0,0,-36,-36,-36,-95c0,0,0,-63,36,-98c0,0,36,-35,95,-35Zm9,-687c0,0,-149,0,-248,78C179,59,62,151,62,312c0,0,0,89,44,163c0,0,43,74,138,114c0,0,-81,35,-118,95c0,0,-37,60,-37,132c0,0,0,122,85,202c0,0,86,80,244,80c0,0,156,0,242,-80c0,0,86,-80,86,-202c0,0,0,-77,-39,-136c0,0,-40,-59,-111,-91c0,0,91,-36,138,-106c0,0,47,-70,47,-162c0,0,0,-151,-96,-246c0,0,-97,-94,-258,-94Z" 
id="f0_s"
transform="scale(0.001,-0.001)" />

<path d="M380,130c0,0,57,0,108,37c0,0,38,29,50,70c0,0,9,27,9,102v42c0,0,-41,-13,-128,-32c0,0,-87,-19,-114,-36c0,0,-41,-30,-41,-74c0,0,0,-45,33,-77c0,0,33,-32,83,-32ZM318,-17c0,0,-122,0,-193,66c0,0,-70,66,-70,168c0,0,0,67,32,120c0,0,32,53,90,81c0,0,57,28,166,49c0,0,147,27,204,51v21c0,0,0,60,-30,86c0,0,-30,25,-112,25c0,0,-56,0,-87,-22c0,0,-32,-22,-51,-77L76,586c0,0,32,114,111,169c0,0,78,56,232,56c0,0,141,0,209,-34c0,0,69,-33,97,-84c0,0,28,-51,28,-188L750,260c0,0,0,-104,10,-154c0,0,10,-49,38,-106H591c0,0,-9,21,-21,62c0,0,-5,19,-7,25C563,87,509,35,448,8c0,0,-61,-25,-130,-25Z" 
id="f0_1x"
transform="scale(0.001,-0.001)" />

<path d="M324,-17c0,0,-57,0,-102,18c0,0,-45,19,-67,50c0,0,-21,30,-29,81c0,0,-7,37,-7,148V625H23V792h96V949l210,124V792H471V625H329V306c0,0,0,-97,4,-113c0,0,4,-16,18,-26c0,0,15,-11,36,-11c0,0,29,0,84,21L489,14c0,0,-73,-31,-165,-31Z" 
id="f0_2g"
transform="scale(0.001,-0.001)" />

<path d="M580,464c0,0,-2,91,-47,139c0,0,-45,47,-108,47c0,0,-69,0,-113,-50c0,0,-45,-50,-44,-136ZM433,-17c0,0,-207,0,-306,134c0,0,-78,109,-78,274c0,0,0,196,103,308c0,0,103,112,260,112c0,0,176,0,278,-117c0,0,103,-117,98,-358H264c0,0,2,-93,51,-145c0,0,48,-52,120,-52c0,0,49,0,83,27c0,0,33,27,50,86L777,217C777,217,737,102,650,42c0,0,-87,-59,-217,-59Z" 
id="f0_21"
transform="scale(0.001,-0.001)" />

<path d="M150,0V209H359V0Zm0,583V792H359V583Z" 
id="f0_u"
transform="scale(0.001,-0.001)" />

<path d="M109,0V209H318V0Z" 
id="f0_i"
transform="scale(0.001,-0.001)" />

<path d="M417,-18c0,0,-148,0,-246,85c0,0,-98,85,-113,223l203,25c0,0,10,-78,52,-119c0,0,43,-41,103,-41c0,0,65,0,109,50c0,0,44,49,44,132c0,0,0,79,-42,125c0,0,-43,46,-104,46c0,0,-40,0,-95,-15l23,171c0,0,1,0,2,0c15,0,87,2,127,37c0,0,45,39,45,104c0,0,0,55,-33,88c0,0,-33,33,-87,33c0,0,-54,0,-92,-37c0,0,-38,-38,-46,-110L73,812c0,0,20,99,61,159c0,0,41,59,114,93c0,0,72,34,163,34c0,0,154,0,247,-98c0,0,77,-81,77,-183c0,0,0,-144,-157,-229c0,0,94,-20,150,-91c0,0,56,-70,56,-169c0,0,0,-144,-105,-245C679,83,574,-18,417,-18Z" 
id="f0_n"
transform="scale(0.001,-0.001)" />

<path d="M314,-321c0,0,-114,173,-174,358c0,0,-60,185,-60,359c0,0,0,216,74,408c0,0,64,168,163,309H460c0,0,-103,-226,-141,-385c0,0,-38,-159,-38,-336c0,0,0,-123,22,-251c0,0,23,-128,63,-243c0,0,26,-76,92,-219Z" 
id="f0_c"
transform="scale(0.001,-0.001)" />

<path d="M454,155c0,0,58,0,97,46c0,0,39,46,39,150c0,0,0,107,-42,157c0,0,-42,49,-105,49c0,0,-60,0,-102,-47c0,0,-42,-48,-42,-140c0,0,0,-103,47,-159c0,0,47,-56,108,-56ZM444,-18c0,0,-166,0,-273,128C171,110,65,239,65,532c0,0,0,300,111,433c0,0,111,133,288,133c0,0,125,0,206,-69c0,0,82,-70,104,-202L571,805c0,0,-7,62,-39,91c0,0,-31,30,-81,30c0,0,-66,0,-112,-59c0,0,-46,-60,-58,-248c0,0,79,93,195,93c0,0,132,0,225,-100c0,0,94,-101,94,-259c0,0,0,-168,-99,-270C696,83,598,-18,444,-18Z" 
id="f0_q"
transform="scale(0.001,-0.001)" />

<path d="M429,-18c0,0,-152,0,-247,81c0,0,-96,81,-115,219l210,21c0,0,9,-71,53,-112c0,0,44,-41,102,-41c0,0,65,0,111,53c0,0,46,53,46,161c0,0,0,100,-46,151c0,0,-45,50,-118,50c0,0,-90,0,-162,-80L93,510l107,569H755V883H359L326,697c0,0,70,35,144,35c0,0,139,0,237,-101c0,0,97,-102,97,-264c0,0,0,-135,-79,-241C725,126,619,-18,429,-18Z" 
id="f0_p"
transform="scale(0.001,-0.001)" />

<path d="M-1,-18L269,1113H426L153,-18Z" 
id="f0_j"
transform="scale(0.001,-0.001)" />

<path d="M52,-321c0,0,62,133,87,204c0,0,25,71,47,162c0,0,21,93,32,176c0,0,10,83,10,171c0,0,0,177,-38,336c0,0,-38,159,-140,385H193c0,0,112,-161,174,-341c0,0,63,-179,63,-365c0,0,0,-156,-50,-334c0,0,-55,-199,-183,-394Z" 
id="f0_d"
transform="scale(0.001,-0.001)" />

<path d="M380,130c0,0,57,0,108,37c0,0,38,29,50,70c0,0,9,27,9,102v42c0,0,-41,-13,-128,-32c0,0,-87,-19,-114,-36c0,0,-41,-30,-41,-74c0,0,0,-45,33,-77c0,0,33,-32,83,-32ZM318,-17c0,0,-122,0,-193,66c0,0,-70,66,-70,168c0,0,0,67,32,120c0,0,32,53,90,81c0,0,57,28,166,49c0,0,147,27,204,51v21c0,0,0,60,-30,86c0,0,-30,25,-112,25c0,0,-56,0,-87,-22c0,0,-32,-22,-51,-77L76,586c0,0,32,114,111,169c0,0,78,56,232,56c0,0,141,0,209,-34c0,0,69,-33,97,-84c0,0,28,-51,28,-188L750,260c0,0,0,-104,10,-154c0,0,10,-49,38,-106H591c0,0,-9,21,-21,62c0,0,-5,19,-7,25C563,87,509,35,448,8c0,0,-61,-25,-130,-25Z" 
id="f1_1x"
transform="scale(0.001,-0.001)" />

<path d="M324,-17c0,0,-57,0,-102,18c0,0,-45,19,-67,50c0,0,-21,30,-29,81c0,0,-7,37,-7,148V625H23V792h96V949l210,124V792H471V625H329V306c0,0,0,-97,4,-113c0,0,4,-16,18,-26c0,0,15,-11,36,-11c0,0,29,0,84,21L489,14c0,0,-73,-31,-165,-31Z" 
id="f1_2g"
transform="scale(0.001,-0.001)" />

<path d="M109,0V1093H318V691c0,0,101,120,243,120c0,0,72,0,131,-27c0,0,58,-27,87,-69c0,0,30,-42,41,-93c0,0,11,-50,11,-157V0H621V419c0,0,0,124,-12,158c0,0,-12,34,-42,53c0,0,-30,20,-76,20c0,0,-53,0,-94,-25c0,0,-41,-26,-60,-77c0,0,-19,-51,-19,-151V0Z" 
id="f1_24"
transform="scale(0.001,-0.001)" />

<path d="M580,464c0,0,-2,91,-47,139c0,0,-45,47,-108,47c0,0,-69,0,-113,-50c0,0,-45,-50,-44,-136ZM433,-17c0,0,-207,0,-306,134c0,0,-78,109,-78,274c0,0,0,196,103,308c0,0,103,112,260,112c0,0,176,0,278,-117c0,0,103,-117,98,-358H264c0,0,2,-93,51,-145c0,0,48,-52,120,-52c0,0,49,0,83,27c0,0,33,27,50,86L777,217C777,217,737,102,650,42c0,0,-87,-59,-217,-59Z" 
id="f1_21"
transform="scale(0.001,-0.001)" />

<path d="M94,0V792H287V684c0,0,104,127,247,127c0,0,75,0,131,-32c0,0,56,-31,92,-94c0,0,52,63,112,94c0,0,61,32,129,32c0,0,87,0,148,-36c0,0,60,-35,90,-104c0,0,21,-51,21,-164V0H1048V453c0,0,0,118,-21,152c0,0,-30,45,-90,45c0,0,-44,0,-83,-27c0,0,-38,-27,-56,-78c0,0,-17,-52,-17,-164V0H572V434c0,0,0,116,-11,150c0,0,-11,33,-35,50c0,0,-23,16,-64,16c0,0,-48,0,-87,-26c0,0,-38,-26,-55,-75c0,0,-17,-50,-17,-164V0Z" 
id="f1_29"
transform="scale(0.001,-0.001)" />

<path d="M110,0V792H319V0Zm0,900v193H319V900Z" 
id="f1_25"
transform="scale(0.001,-0.001)" />

<path d="M444,-17c0,0,-174,0,-277,109C167,92,64,202,64,396c0,0,0,196,103,305c0,0,104,110,280,110c0,0,145,0,230,-63c0,0,86,-62,123,-190L594,521c0,0,-11,62,-48,93c0,0,-37,31,-96,31c0,0,-78,0,-125,-54c0,0,-46,-54,-46,-180c0,0,0,-141,47,-199c0,0,47,-58,127,-58c0,0,60,0,98,33c0,0,38,34,53,117L811,269C811,269,779,127,688,55c0,0,-91,-72,-244,-72Z" 
id="f1_1z"
transform="scale(0.001,-0.001)" />

<path d="M415,-17c0,0,-161,0,-255,65c0,0,-95,65,-124,178l210,32c0,0,14,-61,55,-92c0,0,41,-32,114,-32c0,0,82,0,123,30c0,0,27,21,27,56c0,0,0,24,-15,39c0,0,-15,15,-70,28c0,0,-253,56,-321,102c0,0,-93,64,-93,178c0,0,0,103,81,173c0,0,81,71,252,71c0,0,162,0,241,-54c0,0,79,-53,109,-157L551,564c0,0,-12,47,-48,71c0,0,-35,25,-101,25c0,0,-82,0,-118,-23c0,0,-24,-17,-24,-43c0,0,0,-22,21,-38c0,0,28,-21,195,-59c0,0,168,-38,234,-93c0,0,65,-56,65,-156c0,0,0,-109,-91,-187c0,0,-90,-78,-269,-78Z" 
id="f1_2f"
transform="scale(0.001,-0.001)" />

<path d="M506,-19c0,0,-207,0,-318,95C188,76,76,172,55,356l215,20c0,0,19,-108,79,-158c0,0,59,-51,160,-51c0,0,106,0,161,45c0,0,54,45,54,106c0,0,0,38,-23,66c0,0,-23,27,-80,47c0,0,-38,13,-177,48c0,0,-178,44,-249,108c0,0,-101,90,-101,220c0,0,0,84,47,157c0,0,48,73,137,111c0,0,89,38,216,38c0,0,206,0,310,-91c0,0,104,-90,109,-241L692,771c0,0,-14,85,-60,122c0,0,-47,37,-141,37c0,0,-96,0,-151,-40c0,0,-35,-25,-35,-68c0,0,0,-39,33,-66c0,0,42,-35,203,-73c0,0,162,-38,239,-79c0,0,77,-41,121,-111c0,0,44,-71,44,-175c0,0,0,-94,-53,-176C892,142,840,60,745,20c0,0,-96,-39,-239,-39Z" 
id="f2_1j"
transform="scale(0.001,-0.001)" />

<path d="M470,154c0,0,82,0,137,62c0,0,55,63,55,182c0,0,0,116,-55,179c0,0,-55,62,-137,62c0,0,-82,0,-138,-62c0,0,-55,-63,-55,-180c0,0,0,-118,55,-181c0,0,56,-62,138,-62Zm1,-171c0,0,-109,0,-208,49c0,0,-99,49,-150,144c0,0,-51,95,-51,232c0,0,0,104,51,202c0,0,51,98,146,149c0,0,94,52,210,52c0,0,180,0,295,-117c0,0,114,-117,114,-295c0,0,0,-180,-115,-298C763,101,647,-17,471,-17Z" 
id="f1_2b"
transform="scale(0.001,-0.001)" />

<path d="M110,0V1093H319V0Z" 
id="f1_28"
transform="scale(0.001,-0.001)" />

<path d="M369,-17c0,0,-80,0,-143,34c0,0,-64,35,-92,99c0,0,-28,63,-28,175V792H315V429c0,0,0,-167,11,-205c0,0,12,-37,43,-59c0,0,30,-22,77,-22c0,0,54,0,97,29c0,0,42,30,58,73c0,0,15,44,15,213V792H826V0H631V119C631,119,588,55,517,19c0,0,-70,-36,-148,-36Z" 
id="f1_2h"
transform="scale(0.001,-0.001)" />

<path d="M108,0V792H302V676c0,0,104,135,262,135c0,0,69,0,127,-25c0,0,57,-25,87,-64c0,0,29,-39,41,-88c0,0,12,-50,12,-141V0H621V405c0,0,0,128,-13,166c0,0,-14,37,-44,58c0,0,-30,21,-73,21c0,0,-55,0,-98,-30c0,0,-44,-29,-60,-79c0,0,-16,-49,-16,-182V0Z" 
id="f1_2a"
transform="scale(0.001,-0.001)" />

<path d="M78,-22V359h28c0,0,32,-161,126,-246c0,0,94,-85,202,-85c0,0,84,0,133,46c0,0,50,45,50,106c0,0,0,36,-19,69c0,0,-19,34,-58,64c0,0,-39,30,-138,79c0,0,-138,68,-198,115c0,0,-60,48,-92,107c0,0,-33,59,-33,130c0,0,0,120,89,205c0,0,89,85,224,85c0,0,49,0,96,-11c0,0,35,-9,85,-34c0,0,51,-24,71,-24c0,0,19,0,30,12c0,0,12,12,21,57h23l8,-337H695c0,0,-21,127,-106,204c0,0,-85,78,-184,78c0,0,-76,0,-121,-41c0,0,-44,-41,-44,-94c0,0,0,-33,15,-59c0,0,22,-35,70,-70c0,0,35,-24,162,-87c0,0,178,-87,240,-165c0,0,61,-77,61,-177c0,0,0,-127,-99,-218c0,0,-99,-90,-251,-90c0,0,-48,0,-90,9c0,0,-43,10,-107,36c0,0,-36,15,-59,15c0,0,-20,0,-41,-15c0,0,-22,-15,-35,-45Z" 
id="f3_1j"
transform="scale(0.001,-0.001)" />

<path d="M458,424c0,0,0,120,-13,165c0,0,-13,44,-40,67c0,0,-16,14,-42,14c0,0,-39,0,-63,-38c0,0,-44,-66,-44,-182V424ZM358,-20c0,0,-155,0,-235,119c0,0,-64,96,-64,239c0,0,0,174,94,277c0,0,94,104,221,104c0,0,106,0,184,-87c0,0,78,-87,84,-257H259c0,0,7,-139,74,-220c0,0,51,-62,124,-62c0,0,45,0,81,25c0,0,37,25,79,90l25,-16C642,192,585,76,517,28c0,0,-69,-48,-159,-48Z" 
id="f3_21"
transform="scale(0.001,-0.001)" />

<path d="M365,-20c0,0,-139,0,-223,105c0,0,-83,105,-83,253c0,0,0,142,76,250c0,0,92,131,253,131c0,0,108,0,172,-55c0,0,63,-54,63,-121c0,0,0,-43,-25,-68c0,0,-26,-25,-68,-25c0,0,-44,0,-73,29c0,0,-28,29,-35,104c0,0,-5,47,-22,65c0,0,-17,19,-40,19c0,0,-36,0,-61,-38c0,0,-39,-58,-39,-176c0,0,0,-99,31,-188c0,0,32,-90,86,-134c0,0,41,-32,97,-32c0,0,36,0,69,17c0,0,33,17,78,65l23,-18C644,163,595,70,521,25c0,0,-73,-45,-156,-45Z" 
id="f3_1z"
transform="scale(0.001,-0.001)" />

<path d="M298,-9c0,0,-67,0,-113,36c0,0,-46,37,-58,83c0,0,-8,25,-8,137V624H28v26c0,0,94,66,161,139c0,0,66,73,115,163h25V697H494V624H329V193c0,0,0,-60,5,-78c0,0,6,-17,20,-28c0,0,14,-11,26,-11c0,0,48,0,92,75l22,-17C494,134,434,-9,298,-9Z" 
id="f3_2g"
transform="scale(0.001,-0.001)" />

<path d="M32,0V26c0,0,46,2,69,27c0,0,14,18,14,92V551c0,0,0,75,-17,95c0,0,-17,21,-66,24v27H325V145c0,0,0,-74,17,-95c0,0,17,-21,68,-24V0ZM220,804c0,0,-48,0,-82,33c0,0,-33,34,-33,82c0,0,0,48,33,82c0,0,34,33,82,33c0,0,48,0,82,-33c0,0,33,-34,33,-82c0,0,0,-48,-34,-82c0,0,-34,-33,-81,-33Z" 
id="f3_25"
transform="scale(0.001,-0.001)" />

<path d="M381,31c0,0,33,0,56,19c0,0,29,25,38,71c0,0,15,71,15,286c0,0,0,127,-14,174c0,0,-14,48,-42,69c0,0,-19,16,-50,16c0,0,-38,0,-65,-29c0,0,-27,-29,-36,-113c0,0,-8,-85,-8,-235c0,0,0,-80,10,-150c0,0,8,-53,35,-80c0,0,27,-28,61,-28Zm2,-51c0,0,-157,0,-242,110c0,0,-85,110,-85,256c0,0,0,150,87,261c0,0,86,112,238,112c0,0,90,0,169,-47c0,0,78,-47,119,-134c0,0,40,-86,40,-189c0,0,0,-149,-75,-249c0,0,-91,-120,-251,-120Z" 
id="f3_2b"
transform="scale(0.001,-0.001)" />

<path d="M52,0V26c0,0,44,5,62,29c0,0,13,16,13,97V546c0,0,0,79,-14,98c0,0,-15,20,-61,26v27H336V607c0,0,54,59,104,85c0,0,49,27,106,27c0,0,68,0,113,-38c0,0,44,-38,59,-94c0,0,12,-42,12,-163V152c0,0,0,-81,15,-101c0,0,14,-19,61,-25V0H452V26c0,0,40,6,57,33c0,0,12,19,12,93V462c0,0,0,86,-7,109c0,0,-6,22,-22,35c0,0,-16,12,-36,12c0,0,-64,0,-120,-92V152c0,0,0,-79,15,-100c0,0,15,-20,55,-26V0Z" 
id="f3_2a"
transform="scale(0.001,-0.001)" />

<path d="M37,274V428H473V274Z" 
id="f3_h"
transform="scale(0.001,-0.001)" />

<path d="M610,343L459,690L304,343ZM12,0V27c0,0,54,9,89,46c0,0,35,37,87,153l361,807h14L928,203c0,0,52,-118,86,-149c0,0,25,-23,71,-27V0H596V27h20c0,0,59,0,83,17c0,0,16,12,16,34c0,0,0,14,-4,28c0,0,-1,7,-22,56L634,288H279L235,190c0,0,-20,-50,-20,-82c0,0,0,-42,34,-63c0,0,20,-12,99,-18V0Z" 
id="f3_11"
transform="scale(0.001,-0.001)" />

<path d="M197,0V27c0,0,71,2,92,13c0,0,21,10,29,29c0,0,9,18,9,109V725c0,0,0,110,-8,141c0,0,-5,24,-19,35c0,0,-14,11,-33,11c0,0,-28,0,-77,-23l-11,23l246,121h25V178c0,0,0,-85,7,-106c0,0,7,-21,29,-32c0,0,23,-11,91,-13V0Z" 
id="f4_l"
transform="scale(0.001,-0.001)" />

<path d="M191,-20c0,0,-34,0,-58,24c0,0,-24,24,-24,58c0,0,0,35,24,59c0,0,24,24,58,24c0,0,35,0,59,-24c0,0,24,-25,24,-59c0,0,0,-34,-24,-58c0,0,-25,-24,-59,-24Z" 
id="f4_i"
transform="scale(0.001,-0.001)" />

<path d="M38,0V27H74c0,0,63,0,91,37c0,0,18,24,18,115V833c0,0,0,77,-10,102c0,0,-7,18,-30,32c0,0,-33,18,-69,18H38v27H470V985H434c0,0,-62,0,-90,-37c0,0,-18,-24,-18,-115V179c0,0,0,-77,9,-102c0,0,8,-18,31,-32c0,0,32,-18,68,-18h36V0Z" 
id="f4_19"
transform="scale(0.001,-0.001)" />

<path d="M63,0V26H93c0,0,30,0,54,15c0,0,25,15,34,41c0,0,10,25,10,99V630H58v53H191v45c0,0,0,102,33,173c0,0,32,71,100,114c0,0,68,44,152,44c0,0,79,0,145,-51c0,0,43,-33,43,-75c0,0,0,-22,-19,-42c0,0,-20,-20,-42,-20c0,0,-17,0,-36,12c0,0,-19,13,-47,53c0,0,-28,41,-51,55c0,0,-23,14,-51,14c0,0,-35,0,-58,-18c0,0,-24,-18,-35,-57c0,0,-10,-38,-10,-197V683H491V630H315V181c0,0,0,-96,21,-122c0,0,27,-33,73,-33h62V0Z" 
id="f4_22"
transform="scale(0.001,-0.001)" />

<path d="M387,441c0,0,-27,0,-50,22c0,0,-15,15,-15,50c0,0,0,35,17,86c0,0,17,50,21,69c0,0,5,19,9,57c0,0,-44,-30,-77,-65c0,0,-55,-62,-82,-78c0,0,-19,-12,-40,-12c0,0,-26,0,-44,17c0,0,-17,17,-17,38c0,0,0,19,15,40c0,0,15,20,46,34c0,0,20,9,91,23c0,0,47,10,90,29c0,0,-40,20,-96,31c0,0,-91,20,-113,35c0,0,-33,25,-33,60c0,0,0,20,16,37c0,0,17,17,39,17c0,0,25,0,53,-16c0,0,27,-15,68,-63c0,0,41,-47,84,-73c0,0,-3,51,-21,102c0,0,-26,73,-26,101c0,0,0,39,19,59c0,0,18,20,45,20c0,0,23,0,40,-20c0,0,17,-21,17,-58c0,0,0,-34,-20,-94c0,0,-20,-60,-24,-111c0,0,41,26,74,64c0,0,51,59,75,73c0,0,25,14,50,14c0,0,25,0,41,-17c0,0,17,-17,17,-40c0,0,0,-27,-24,-49c0,0,-25,-22,-123,-43c0,0,-58,-13,-96,-29c0,0,39,-21,95,-31c0,0,90,-16,118,-41c0,0,28,-25,28,-54c0,0,0,-22,-17,-39c0,0,-16,-16,-39,-16c0,0,-22,0,-49,16c0,0,-28,15,-74,70c0,0,-30,36,-76,69c0,0,1,-43,17,-93c0,0,27,-88,27,-120c0,0,0,-30,-18,-50c0,0,-18,-21,-38,-21Z" 
id="f4_e"
transform="scale(0.001,-0.001)" />

<path d="M251,69c0,0,93,0,201,118c0,0,131,157,126,322c0,0,0,62,-26,90c0,0,-27,28,-74,28c0,0,-52,0,-110,-44c0,0,-83,-62,-148,-185c0,0,-64,-122,-64,-221c0,0,0,-50,28,-79c0,0,29,-29,67,-29ZM183,-17c0,0,-60,0,-103,44C80,27,36,71,36,149c0,0,0,117,77,247c0,0,77,130,195,208c0,0,92,62,174,62c0,0,49,0,82,-22c0,0,32,-22,49,-73l24,77l115,18L609,160L593,92c0,0,-2,-10,-2,-17c0,0,0,-10,5,-19c0,0,4,-6,11,-6c0,0,6,0,17,11c0,0,21,20,55,88l25,-18c0,0,-43,-75,-89,-112c0,0,-45,-36,-84,-36c0,0,-27,0,-42,16c0,0,-15,15,-15,46c0,0,0,36,17,96l16,55C507,196,399,69,309,19c0,0,-64,-36,-126,-36Z" 
id="f5_1x"
transform="scale(0.001,-0.001)" />

<path d="M296,18c0,0,63,0,130,48c0,0,68,48,118,162c0,0,50,114,50,230c0,0,0,69,-33,108c0,0,-32,38,-76,38c0,0,-66,0,-129,-57c0,0,-63,-58,-91,-157L169,53c0,0,72,-35,127,-35ZM284,-17c0,0,-109,0,-225,84L283,850c0,0,26,90,26,105c0,0,0,20,-12,29c0,0,-17,14,-50,14c0,0,-16,0,-48,-6v29l257,42L310,545c0,0,69,75,120,102c0,0,51,28,107,28c0,0,79,0,129,-55c0,0,51,-54,51,-147c0,0,0,-120,-67,-239C650,234,583,115,483,49c0,0,-101,-66,-199,-66Z" 
id="f5_1y"
transform="scale(0.001,-0.001)" />

<path d="M399,62c0,0,68,0,131,68V481c0,0,-5,51,-27,93c0,0,-22,42,-59,63c0,0,-37,21,-72,21c0,0,-65,0,-117,-59c0,0,-67,-77,-67,-226c0,0,0,-151,65,-231c0,0,66,-80,146,-80ZM330,-20c0,0,-112,0,-196,93c0,0,-83,94,-83,240c0,0,0,147,92,269c0,0,93,122,238,122c0,0,90,0,149,-58V773c0,0,0,117,-6,144c0,0,-5,27,-17,37c0,0,-12,9,-30,9c0,0,-20,0,-52,-12l-9,27l204,83h33V270c0,0,0,-120,6,-146c0,0,5,-27,18,-37c0,0,12,-11,28,-11c0,0,21,0,54,13l9,-26L564,-20H530V78C530,78,480,25,432,2c0,0,-47,-22,-102,-22Z" 
id="f4_20"
transform="scale(0.001,-0.001)" />

<path d="M479,469c0,0,-4,66,-16,93c0,0,-18,42,-55,65c0,0,-37,24,-78,24c0,0,-62,0,-111,-48c0,0,-48,-48,-57,-134ZM355,-20c0,0,-123,0,-211,95c0,0,-87,96,-87,258c0,0,0,175,90,273c0,0,89,98,225,98c0,0,115,0,189,-76c0,0,74,-75,74,-202H162c0,0,0,-152,74,-239c0,0,75,-86,175,-86c0,0,67,0,117,36c0,0,50,37,83,127l24,-15c0,0,-16,-102,-91,-186c0,0,-76,-83,-189,-83Z" 
id="f4_21"
transform="scale(0.001,-0.001)" />

<path d="M21,0V26H35c0,0,53,0,71,27c0,0,18,27,18,101V408c0,0,0,123,-5,150c0,0,-6,27,-17,37c0,0,-12,10,-31,10c0,0,-21,0,-50,-11L10,620l206,83h32V558c0,0,120,145,229,145c0,0,56,0,96,-28c0,0,40,-28,64,-92c0,0,16,-45,16,-137V154c0,0,0,-65,11,-88c0,0,8,-19,26,-29c0,0,18,-11,68,-11V0H419V26h14c0,0,47,0,66,15c0,0,20,15,27,43c0,0,3,11,3,70V434c0,0,0,93,-24,135c0,0,-24,42,-81,42c0,0,-88,0,-176,-97V154c0,0,0,-69,9,-86c0,0,10,-21,28,-31c0,0,19,-11,75,-11V0Z" 
id="f4_2a"
transform="scale(0.001,-0.001)" />

<path d="M406,32c0,0,72,0,119,60c0,0,47,59,47,205c0,0,0,181,-78,286c0,0,-53,71,-135,71c0,0,-40,0,-79,-23c0,0,-40,-24,-65,-83c0,0,-24,-58,-24,-151c0,0,0,-149,59,-257c0,0,59,-108,156,-108ZM374,-20c0,0,-154,0,-245,122c0,0,-77,104,-77,233c0,0,0,94,46,187c0,0,47,92,123,137c0,0,76,44,161,44c0,0,155,0,249,-118c0,0,80,-100,80,-231c0,0,0,-91,-44,-185C667,169,623,75,546,27c0,0,-77,-47,-172,-47Z" 
id="f4_2b"
transform="scale(0.001,-0.001)" />

<path d="M255,-10c0,0,-35,0,-68,18c0,0,-32,19,-48,55c0,0,-16,35,-16,109V632H15v24c0,0,41,16,84,56c0,0,43,39,77,92c0,0,17,29,48,104h23V683H407V632H247V188c0,0,0,-66,19,-90c0,0,19,-23,49,-23c0,0,24,0,47,16c0,0,23,15,36,45h29c0,0,-26,-73,-74,-110c0,0,-47,-36,-98,-36Z" 
id="f4_2g"
transform="scale(0.001,-0.001)" />

<path d="M312,-20c0,0,-62,0,-143,22c0,0,-25,8,-40,8c0,0,-18,0,-27,-19H77V234h25c0,0,21,-105,80,-158c0,0,59,-53,132,-53c0,0,51,0,84,31c0,0,32,30,32,72c0,0,0,52,-36,87c0,0,-36,35,-144,88c0,0,-109,54,-142,97c0,0,-34,43,-34,107c0,0,0,85,58,141c0,0,58,57,150,57c0,0,40,0,97,-17c0,0,38,-11,51,-11c0,0,12,0,19,5c0,0,7,5,15,23h25V470H464c0,0,-28,110,-72,149c0,0,-45,40,-113,40c0,0,-53,0,-85,-28c0,0,-32,-27,-32,-61c0,0,0,-41,24,-71c0,0,23,-31,94,-65L389,381c0,0,152,-74,152,-194c0,0,0,-94,-71,-151c0,0,-70,-56,-158,-56Z" 
id="f4_2f"
transform="scale(0.001,-0.001)" />

<path d="M20,0V26c0,0,45,0,71,15c0,0,15,7,24,28c0,0,9,21,9,85V773c0,0,0,117,-5,144c0,0,-6,27,-17,37c0,0,-12,9,-31,9c0,0,-16,0,-51,-12L10,978l204,83h34V561c0,0,83,91,131,116c0,0,49,26,97,26c0,0,58,0,100,-32c0,0,42,-32,62,-101c0,0,14,-47,14,-174V154c0,0,0,-65,11,-89c0,0,7,-18,25,-28c0,0,18,-11,66,-11V0H418V26h15c0,0,48,0,67,15c0,0,18,15,26,43c0,0,2,12,2,70V396c0,0,0,112,-12,147c0,0,-11,35,-36,53c0,0,-26,17,-61,17c0,0,-37,0,-76,-19c0,0,-40,-20,-95,-79V154c0,0,0,-70,8,-87c0,0,8,-17,29,-29c0,0,22,-12,74,-12V0Z" 
id="f4_24"
transform="scale(0.001,-0.001)" />

<path d="M58,0V26c0,0,47,0,64,10c0,0,18,10,28,32c0,0,9,23,9,86V775c0,0,0,116,-5,142c0,0,-5,27,-17,37c0,0,-11,9,-29,9c0,0,-20,0,-49,-12L46,978l204,83h34V154c0,0,0,-64,9,-85c0,0,9,-21,29,-32c0,0,19,-11,72,-11V0Z" 
id="f4_28"
transform="scale(0.001,-0.001)" />

<path d="M286,72c0,0,57,0,149,75V407c0,0,-113,-45,-145,-64c0,0,-59,-32,-85,-68c0,0,-25,-36,-25,-78c0,0,0,-54,32,-89c0,0,32,-36,74,-36ZM217,-13c0,0,-71,0,-116,48c0,0,-46,48,-46,127c0,0,0,50,22,87c0,0,31,50,106,95c0,0,76,45,252,109v26c0,0,0,102,-32,140c0,0,-32,38,-94,38c0,0,-47,0,-74,-25c0,0,-28,-25,-28,-58l1,-43c0,0,0,-34,-17,-53c0,0,-18,-18,-47,-18c0,0,-28,0,-45,19c0,0,-18,19,-18,53c0,0,0,64,66,117c0,0,65,54,184,54c0,0,91,0,149,-31c0,0,44,-23,65,-72c0,0,13,-32,13,-131V238c0,0,0,-98,4,-120c0,0,4,-22,12,-29c0,0,9,-8,20,-8c0,0,12,0,21,5c0,0,16,10,61,55V99C676,99,592,-12,516,-12c0,0,-37,0,-58,24c0,0,-22,26,-23,86C435,98,330,17,303,5c0,0,-40,-18,-86,-18Z" 
id="f4_1x"
transform="scale(0.001,-0.001)" />

<path d="M17,0V26c0,0,52,0,77,17c0,0,19,12,26,38c0,0,4,13,4,73V419c0,0,0,119,-5,142c0,0,-4,23,-17,33c0,0,-13,11,-33,11c0,0,-23,0,-52,-11l-7,26l207,83h31V549c0,0,86,154,176,154c0,0,41,0,68,-25c0,0,27,-25,27,-58c0,0,0,-29,-20,-49c0,0,-19,-20,-46,-20c0,0,-26,0,-58,25c0,0,-33,26,-48,26c0,0,-14,0,-29,-15c0,0,-34,-30,-70,-101V159c0,0,0,-56,15,-85c0,0,9,-20,34,-34c0,0,24,-14,71,-14V0Z" 
id="f4_2e"
transform="scale(0.001,-0.001)" />

<path d="M411,-239c0,0,134,0,198,48c0,0,64,47,64,100c0,0,0,39,-38,55c0,0,-39,16,-154,19c0,0,-167,5,-258,17c0,0,-35,-37,-53,-70c0,0,-17,-32,-17,-60c0,0,0,-36,43,-62c0,0,74,-47,215,-47ZM380,257c0,0,56,0,93,43c0,0,36,42,36,133c0,0,0,118,-51,185c0,0,-38,49,-98,49c0,0,-55,0,-92,-44c0,0,-37,-44,-37,-135c0,0,0,-117,50,-182c0,0,39,-49,99,-49ZM345,-328c0,0,-144,0,-243,64c0,0,-56,38,-56,78c0,0,0,18,8,36c0,0,13,27,52,76c0,0,5,7,76,80c0,0,-39,23,-55,41c0,0,-16,19,-16,42c0,0,0,26,22,61c0,0,21,35,98,100c0,0,-63,30,-97,85c0,0,-33,55,-33,121c0,0,0,101,76,174c0,0,77,73,196,73c0,0,98,0,170,-48H688c0,0,32,0,37,-2c0,0,6,-2,8,-6c0,0,4,-7,4,-24c0,0,0,-20,-4,-27c0,0,-2,-4,-7,-6c0,0,-6,-2,-38,-2H599c0,0,41,-54,41,-137c0,0,0,-96,-73,-163c0,0,-73,-68,-196,-68c0,0,-51,0,-104,15c0,0,-33,-28,-44,-49c0,0,-12,-22,-12,-37c0,0,0,-12,13,-24c0,0,12,-12,48,-17c0,0,21,-4,104,-6c0,0,154,-4,199,-11c0,0,70,-10,111,-51c0,0,42,-41,42,-102c0,0,0,-84,-79,-158c0,0,-117,-108,-304,-108Z" 
id="f4_23"
transform="scale(0.001,-0.001)" />

<path d="M268,648c0,0,-51,0,-91,43c0,0,-39,42,-39,105c0,0,0,88,66,160c0,0,44,48,127,78v-32c0,0,-77,-46,-104,-85c0,0,-21,-30,-21,-69c0,0,0,-24,9,-35c0,0,9,-11,20,-11c0,0,7,0,21,5c0,0,20,7,33,7c0,0,30,0,53,-23c0,0,24,-22,24,-56c0,0,0,-38,-23,-58c0,0,-33,-29,-75,-29Z" 
id="f4_52"
transform="scale(0.001,-0.001)" />

<path d="M177,647v35c0,0,77,46,105,86c0,0,19,28,19,68c0,0,0,23,-8,34c0,0,-9,11,-19,11c0,0,-9,0,-22,-5c0,0,-19,-7,-32,-7c0,0,-30,0,-53,23c0,0,-23,22,-23,56c0,0,0,37,23,58c0,0,31,28,75,28c0,0,50,0,90,-42c0,0,40,-42,40,-105c0,0,0,-88,-67,-160c0,0,-44,-48,-128,-80Z" 
id="f4_53"
transform="scale(0.001,-0.001)" />

<path d="M397,34c0,0,67,0,126,75c0,0,58,74,58,216c0,0,0,131,-58,201c0,0,-59,70,-133,70c0,0,-39,0,-79,-20c0,0,-29,-14,-75,-59V109c0,0,37,-37,78,-56c0,0,40,-19,83,-19ZM358,-20c0,0,-59,0,-121,21c0,0,-61,22,-126,65V773c0,0,0,117,-5,144c0,0,-6,27,-18,37c0,0,-12,9,-29,9c0,0,-21,0,-53,-12l-9,27l205,83h34V564c0,0,98,139,213,139c0,0,105,0,183,-90c0,0,78,-90,78,-245c0,0,0,-182,-121,-293c0,0,-103,-95,-231,-95Z" 
id="f4_1y"
transform="scale(0.001,-0.001)" />

<path d="M55,0V26c0,0,50,0,67,10c0,0,17,10,27,32c0,0,10,23,10,86V418c0,0,0,111,-6,144c0,0,-6,24,-17,33c0,0,-11,10,-30,10c0,0,-21,0,-51,-11L45,620l206,83h33V154c0,0,0,-64,9,-85c0,0,9,-22,27,-32c0,0,19,-11,67,-11V0ZM222,909c0,0,-32,0,-54,23c0,0,-22,22,-22,53c0,0,0,32,22,54c0,0,22,22,54,22c0,0,31,0,53,-22c0,0,22,-22,22,-54c0,0,0,-31,-22,-53c0,0,-22,-23,-53,-23Z" 
id="f4_25"
transform="scale(0.001,-0.001)" />

<path d="M412,-328c0,0,-195,96,-303,284C109,-44,0,142,0,365c0,0,0,232,114,422c0,0,114,191,298,273v-31c0,0,-92,-51,-151,-139c0,0,-59,-88,-88,-223c0,0,-29,-136,-29,-282c0,0,0,-167,27,-301c0,0,26,-133,82,-221c0,0,55,-89,159,-159v-32Z" 
id="f6_c"
transform="scale(0.001,-0.001)" />

<path d="M34,-328v32c0,0,92,50,151,138c0,0,59,88,88,222c0,0,29,135,29,283c0,0,0,165,-27,300c0,0,-26,134,-82,222c0,0,-56,89,-159,160v31c0,0,194,-96,303,-284c0,0,108,-187,108,-410c0,0,0,-232,-114,-422c0,0,-114,-191,-297,-272Z" 
id="f6_d"
transform="scale(0.001,-0.001)" />

<path d="M238,-17c0,0,-103,0,-139,25C99,8,62,33,62,62c0,0,0,22,17,38c0,0,18,16,42,16c0,0,19,0,38,-6c0,0,13,-3,58,-27c0,0,45,-23,62,-28c0,0,27,-8,59,-8c0,0,76,0,132,59c0,0,56,59,56,140c0,0,0,59,-26,115c0,0,-19,41,-42,63c0,0,-32,30,-88,54c0,0,-56,25,-114,25H232v22c0,0,59,8,118,42c0,0,59,35,86,85c0,0,27,49,27,108c0,0,0,76,-48,124c0,0,-48,47,-120,47c0,0,-116,0,-193,-124L77,819c0,0,44,102,110,158c0,0,66,56,164,56c0,0,122,0,187,-80c0,0,49,-58,49,-126c0,0,0,-110,-139,-228c0,0,93,-36,141,-104c0,0,48,-68,48,-160c0,0,0,-131,-84,-227C553,108,444,-17,238,-17Z" 
id="f4_n"
transform="scale(0.001,-0.001)" />

<path d="M0,214v74H784V214ZM0,494v72H784V494Z" 
id="f6_x"
transform="scale(0.001,-0.001)" />

<path d="M355,0V355H0v72H355V784h72V427H782V355H427V0Z" 
id="f6_f"
transform="scale(0.001,-0.001)" />

<path d="M306,233c33,0,64,13,64,13c30,13,53,35,53,35c23,23,37,53,37,53c13,30,13,65,13,65c0,33,-13,64,-13,64c-14,30,-37,53,-37,53c-23,23,-53,36,-53,36c-31,14,-66,14,-66,14c-35,0,-65,-14,-65,-14C210,539,187,516,187,516C164,493,151,463,151,463C138,432,138,399,138,399c0,-35,13,-65,13,-65c13,-30,36,-53,36,-53c23,-22,53,-35,53,-35c30,-13,66,-13,66,-13Zm0,-62c-48,0,-90,18,-90,18c-42,17,-72,49,-72,49c-31,31,-49,72,-49,72C76,351,76,399,76,399c0,47,18,88,18,88c17,41,49,73,49,73c31,31,73,49,73,49c42,19,90,19,90,19c47,0,88,-19,88,-19c41,-18,73,-49,73,-49c31,-32,49,-73,49,-73c19,-41,19,-88,19,-88c0,-48,-19,-89,-19,-89C498,269,467,238,467,238C435,206,394,189,394,189C353,171,306,171,306,171Z" 
id="f7_1x"
transform="scale(0.001,-0.001)" />

<path d="M82,-253v33c0,0,77,25,119,78c0,0,42,54,42,114c0,0,0,14,-7,23c0,0,-5,6,-11,6c0,0,-8,0,-35,-14c0,0,-14,-7,-28,-7c0,0,-37,0,-58,21C104,1,82,23,82,61c0,0,0,36,28,62c0,0,28,27,68,27c0,0,49,0,88,-43c0,0,38,-43,38,-113c0,0,0,-77,-53,-143c0,0,-53,-66,-169,-104Z" 
id="f4_g"
transform="scale(0.001,-0.001)" />

<path d="M336,-20L117,554c0,0,-21,55,-42,74c0,0,-21,19,-66,29v26H296V657c0,0,-40,-3,-52,-14c0,0,-13,-12,-13,-33c0,0,0,-23,13,-56L390,162L537,481L498,581c0,0,-18,46,-47,63c0,0,-17,11,-61,13v26H716V657c0,0,-54,-2,-77,-20c0,0,-15,-12,-15,-39c0,0,0,-15,6,-30L785,177L929,554c0,0,15,40,15,65c0,0,0,14,-15,25c0,0,-14,12,-57,13v26h216V657c0,0,-65,-10,-95,-89L764,-20H733L563,415L363,-20Z" 
id="f4_2j"
transform="scale(0.001,-0.001)" />

<path d="M376,-20L133,556c0,0,-17,41,-31,58c0,0,-15,18,-39,30c0,0,-12,7,-50,13v26H335V657H314c0,0,-29,0,-44,-14c0,0,-16,-14,-15,-38c0,0,-1,-26,15,-62L429,165L588,557c0,0,17,42,17,64c0,0,0,10,-6,17c0,0,-8,11,-21,15c0,0,-13,4,-52,4v26H750V657c0,0,-39,-3,-54,-16c0,0,-26,-23,-47,-76L409,-20Z" 
id="f4_2i"
transform="scale(0.001,-0.001)" />

<path d="M292,-20c0,0,-57,0,-100,33c0,0,-42,33,-58,85c0,0,-17,52,-17,148V551c0,0,0,49,-10,68c0,0,-11,18,-31,29c0,0,-19,9,-68,9c-2,0,-4,0,-6,0v26H242V226c0,0,0,-95,33,-125c0,0,33,-30,80,-30c0,0,32,0,73,21c0,0,40,20,96,76V555c0,0,0,59,-21,80c0,0,-22,21,-89,22v26H647V269c0,0,0,-119,6,-145c0,0,6,-27,18,-37c0,0,12,-11,29,-11c0,0,23,0,52,13L763,63L558,-20H524V124C524,124,436,29,390,4c0,0,-47,-24,-98,-24Z" 
id="f4_2h"
transform="scale(0.001,-0.001)" />

<path d="M247,-17c0,0,-91,0,-132,30c0,0,-42,31,-42,68c0,0,0,21,17,37c0,0,18,16,44,17c0,0,19,0,34,-6c0,0,14,-7,49,-31c0,0,56,-39,113,-39c0,0,88,0,154,66c0,0,66,66,66,161c0,0,0,92,-59,171c0,0,-59,80,-163,123c0,0,-81,34,-221,39l194,393H663L605,885H301L234,750c0,0,198,-29,313,-147c0,0,100,-102,100,-239c0,0,0,-80,-33,-148c0,0,-32,-68,-81,-116c0,0,-50,-47,-110,-77c0,0,-86,-40,-176,-40Z" 
id="f4_p"
transform="scale(0.001,-0.001)" />

<path d="M379,29c0,0,41,0,84,37c0,0,43,36,65,121c0,0,34,128,34,362c0,0,0,173,-35,288c0,0,-27,86,-69,122c0,0,-31,25,-74,25c0,0,-51,0,-90,-46c0,0,-54,-62,-73,-195c0,0,-20,-132,-20,-261c0,0,0,-209,52,-341c0,0,42,-112,126,-112Zm-2,-46c0,0,-145,0,-241,170c0,0,-81,144,-81,347c0,0,0,173,52,298c0,0,52,125,139,186c0,0,67,49,139,49c0,0,116,0,208,-119c0,0,116,-147,116,-398c0,0,0,-176,-51,-299C658,217,608,94,529,38c0,0,-79,-55,-152,-55Z" 
id="f4_k"
transform="scale(0.001,-0.001)" />

<path d="M145,-328c0,0,-44,0,-73,25c0,0,-28,25,-28,58c0,0,0,31,21,50c0,0,20,19,56,19c0,0,25,0,67,-16c0,0,30,-11,38,-11c0,0,22,0,49,23c0,0,26,23,53,89L376,28L131,542c0,0,-11,24,-36,58c0,0,-19,27,-30,36c0,0,-18,12,-56,21v26H328V657H312c0,0,-33,0,-50,-15c0,0,-17,-14,-17,-36c0,0,0,-30,25,-81L437,179L589,557c0,0,12,31,12,62c0,0,0,13,-5,20c0,0,-6,8,-19,13c0,0,-12,5,-44,5v26H754V657c0,0,-27,-3,-42,-12c0,0,-15,-9,-33,-34c0,0,-7,-10,-25,-58L376,-128c0,0,-40,-99,-105,-150c0,0,-66,-50,-126,-50Z" 
id="f4_2l"
transform="scale(0.001,-0.001)" />

<path d="M398,24c0,0,74,0,120,58c0,0,61,76,61,214c0,0,0,156,-69,240c0,0,-47,59,-113,59c0,0,-36,0,-71,-18c0,0,-27,-14,-88,-81V242c0,0,0,-83,6,-109c0,0,11,-43,51,-76c0,0,41,-33,103,-33ZM-4,-326v27H15c5,0,42,0,69,16c0,0,14,8,22,26c0,0,7,19,7,94V481c0,0,0,67,-6,85c0,0,-5,18,-18,27c0,0,-13,9,-36,9c0,0,-18,0,-45,-10L0,615l209,85h29V540c0,0,53,91,106,127c0,0,53,36,112,36c0,0,103,0,172,-80c0,0,84,-99,84,-257c0,0,0,-176,-102,-292c0,0,-83,-94,-210,-94c0,0,-55,0,-95,16c0,0,-30,10,-67,44V-167c0,0,0,-71,8,-90c0,0,9,-20,30,-31c0,0,21,-11,77,-11v-27Z" 
id="f4_2c"
transform="scale(0.001,-0.001)" />

<path d="M107,-21V325h27c0,0,19,-109,52,-163c0,0,33,-54,100,-90c0,0,68,-36,148,-36c0,0,93,0,148,49c0,0,54,50,54,117c0,0,0,37,-21,75c0,0,-20,38,-64,71c0,0,-29,22,-159,95c0,0,-130,72,-185,115c0,0,-55,44,-83,96c0,0,-28,52,-28,114c0,0,0,109,83,188c0,0,84,78,213,78c0,0,81,0,171,-39c0,0,42,-19,59,-19c0,0,20,0,32,11c0,0,12,12,20,47h27V684H674c0,0,-14,101,-48,161c0,0,-35,60,-100,95c0,0,-64,35,-133,35c0,0,-77,0,-128,-47c0,0,-51,-48,-51,-108c0,0,0,-46,32,-84c0,0,47,-56,221,-149c0,0,142,-76,194,-117c0,0,51,-41,80,-96c0,0,28,-55,28,-115c0,0,0,-115,-90,-198c0,0,-89,-82,-229,-82c0,0,-44,0,-83,6c0,0,-23,4,-95,27c0,0,-73,24,-93,24c0,0,-18,0,-29,-11c0,0,-11,-12,-16,-46Z" 
id="f4_1j"
transform="scale(0.001,-0.001)" />

<path d="M213,-20c0,0,-34,0,-58,24c0,0,-24,24,-24,58c0,0,0,34,24,58c0,0,24,25,58,25c0,0,35,0,59,-25c0,0,24,-24,24,-58c0,0,0,-34,-24,-58c0,0,-25,-24,-59,-24Zm3,559c0,0,-35,0,-59,24c0,0,-24,24,-24,58c0,0,0,35,24,59c0,0,24,24,59,24c0,0,34,0,58,-24c0,0,24,-24,24,-59c0,0,0,-34,-24,-58c0,0,-24,-24,-58,-24Z" 
id="f4_u"
transform="scale(0.001,-0.001)" />

<path d="M33,0V27c0,0,264,241,371,393c0,0,108,152,108,278c0,0,0,96,-59,158c0,0,-59,62,-141,62c0,0,-75,0,-134,-43c0,0,-59,-44,-88,-128H63c0,0,18,138,95,212c0,0,77,74,193,74c0,0,123,0,205,-80c0,0,83,-79,83,-186c0,0,0,-77,-36,-154c0,0,-55,-121,-179,-256C424,357,238,154,191,112H455c0,0,81,0,114,6c0,0,32,6,58,25c0,0,27,18,46,52h27L630,0Z" 
id="f4_m"
transform="scale(0.001,-0.001)" />

<path d="M24,0V27H60c0,0,63,0,91,37c0,0,18,24,18,115V833c0,0,0,77,-10,102c0,0,-7,18,-30,32c0,0,-32,18,-69,18H24v27H776L787,790H761c0,0,-20,71,-45,104c0,0,-26,33,-64,48c0,0,-37,15,-117,15H312V558H497c0,0,63,0,93,28c0,0,29,28,39,111h27V355H629c0,0,-1,59,-16,87c0,0,-14,27,-40,41c0,0,-26,14,-76,14H312V179c0,0,0,-77,10,-102c0,0,7,-18,31,-32c0,0,33,-18,69,-18h37V0Z" 
id="f4_16"
transform="scale(0.001,-0.001)" />

<path d="M23,0V26c0,0,47,0,66,10c0,0,19,11,28,33c0,0,10,22,10,85V416c0,0,0,112,-7,145c0,0,-5,25,-16,34c0,0,-11,10,-31,10c0,0,-21,0,-50,-11L12,620l207,83h32V557c0,0,75,75,88,86c0,0,34,29,72,44c0,0,39,16,77,16c0,0,64,0,110,-37c0,0,47,-38,62,-109c0,0,77,90,130,118c0,0,53,28,109,28c0,0,54,0,96,-28c0,0,42,-28,67,-91c0,0,16,-43,16,-136V154c0,0,0,-64,10,-88c0,0,8,-16,28,-28c0,0,20,-12,65,-12V0H844V26h14c0,0,44,0,69,18c0,0,17,12,24,38c0,0,3,13,3,72V448c0,0,0,83,-20,117c0,0,-29,48,-93,48c0,0,-39,0,-79,-20c0,0,-40,-19,-97,-73l-1,-8l2,-32V154c0,0,0,-70,8,-87c0,0,7,-17,29,-29c0,0,21,-12,73,-12V0H431V26c0,0,57,0,78,14c0,0,21,13,29,40c0,0,4,13,4,74V448c0,0,0,83,-25,120c0,0,-33,48,-91,48c0,0,-40,0,-80,-22c0,0,-61,-33,-95,-74V154c0,0,0,-67,10,-87c0,0,9,-20,27,-30c0,0,18,-11,74,-11V0Z" 
id="f4_29"
transform="scale(0.001,-0.001)" />

<path d="M342,-20c0,0,-116,0,-203,97c0,0,-86,98,-86,264c0,0,0,161,96,261c0,0,95,101,230,101c0,0,100,0,165,-53c0,0,65,-54,65,-111c0,0,0,-29,-18,-46c0,0,-18,-18,-51,-18c0,0,-44,0,-66,29c0,0,-13,15,-17,59c0,0,-4,45,-30,68c0,0,-26,22,-73,22c0,0,-74,0,-120,-55c0,0,-60,-73,-60,-193c0,0,0,-122,60,-216c0,0,60,-93,162,-93c0,0,73,0,131,49c0,0,41,35,80,126l22,-10C629,261,601,125,521,52c0,0,-81,-72,-179,-72Z" 
id="f4_1z"
transform="scale(0.001,-0.001)" />

<path d="M413,-106l30,80H0V27H443l-30,80L626,0L413,-106Z" 
id="f7_20"
transform="scale(0.001,-0.001)" />

<path d="M405,24c0,0,65,0,116,62c0,0,51,61,51,174c0,0,0,128,-50,221c0,0,-51,93,-144,93c0,0,-29,0,-61,-12c0,0,-33,-12,-96,-51c0,0,-14,-101,-14,-163c0,0,0,-72,27,-155c0,0,26,-84,79,-134c0,0,38,-35,92,-35ZM384,-17c0,0,-104,0,-177,68C207,51,66,185,66,397c0,0,0,136,54,258c0,0,54,122,156,217c0,0,101,95,193,128c0,0,93,33,172,33h44v-28c0,0,-99,-10,-161,-39c0,0,-62,-29,-123,-90c0,0,-61,-60,-101,-135c0,0,-39,-74,-66,-176c0,0,107,73,215,73c0,0,104,0,180,-83c0,0,76,-84,76,-215c0,0,0,-126,-77,-231c0,0,-92,-126,-244,-126Z" 
id="f4_q"
transform="scale(0.001,-0.001)" />

<path d="M379,437c0,0,34,0,81,16c0,0,47,17,83,47c0,0,14,97,14,155c0,0,0,72,-25,156c0,0,-25,83,-70,128c0,0,-45,45,-103,45c0,0,-66,0,-116,-60c0,0,-50,-59,-50,-177c0,0,0,-157,66,-246c0,0,49,-64,120,-64ZM80,-20V7c0,0,97,1,181,45c0,0,83,44,161,153c0,0,78,109,109,240c0,0,-117,-75,-212,-75c0,0,-107,0,-183,82c0,0,-76,82,-76,219c0,0,0,132,76,236c0,0,92,126,240,126c0,0,124,0,213,-103c0,0,109,-128,109,-315c0,0,0,-169,-82,-314C616,301,533,155,385,59c0,0,-120,-79,-262,-79Z" 
id="f4_t"
transform="scale(0.001,-0.001)" />

<path d="M613,-21c0,0,-293,0,-445,186C168,165,54,306,54,490c0,0,0,134,64,256c0,0,76,145,209,224c0,0,111,64,262,64c0,0,55,0,100,-9c0,0,45,-9,128,-39c0,0,42,-16,56,-16c0,0,14,0,24,13c0,0,10,13,12,51h28L963,715H937c0,0,-40,119,-102,179c0,0,-91,88,-232,88c0,0,-193,0,-294,-153c0,0,-84,-129,-84,-307c0,0,0,-144,56,-263c0,0,56,-120,146,-175c0,0,91,-56,186,-56c0,0,56,0,109,15c0,0,52,14,100,41V376c0,0,0,77,-11,101c0,0,-12,23,-36,36c0,0,-24,12,-86,12v27h392V525h-18c0,0,-58,0,-80,-39c0,0,-15,-28,-15,-110V67C968,67,882,21,799,0c0,0,-84,-21,-186,-21Z" 
id="f4_17"
transform="scale(0.001,-0.001)" />

<path d="M338,28c0,0,48,0,91,45c0,0,43,45,65,144c0,0,22,99,26,276H143c0,0,3,-133,20,-239c0,0,13,-80,44,-140c0,0,19,-36,54,-61c0,0,36,-25,77,-25ZM522,543c0,0,-1,194,-37,312c0,0,-29,90,-76,129c0,0,-34,28,-79,28c0,0,-51,0,-93,-39c0,0,-43,-40,-65,-132c0,0,-22,-93,-29,-298ZM329,-21c0,0,-68,0,-124,31c0,0,-56,33,-99,95c0,0,-43,62,-66,131C40,236,0,356,0,489c0,0,0,294,119,453c0,0,91,119,217,119c0,0,122,0,209,-115c0,0,121,-160,121,-436c0,0,0,-263,-119,-415C547,95,455,-21,329,-21Z" 
id="f6_2d"
transform="scale(0.001,-0.001)" />

<path d="M83,308c0,0,-35,0,-59,24c0,0,-24,24,-24,59c0,0,0,34,24,58c0,0,24,24,59,24c0,0,33,0,58,-24c0,0,24,-24,24,-58c0,0,0,-35,-24,-59c0,0,-25,-24,-58,-24Z" 
id="f6_49"
transform="scale(0.001,-0.001)" />

<path d="M83,0C83,0,48,0,24,24C24,24,0,49,0,83c0,0,0,34,24,58c0,0,24,24,59,24c0,0,34,0,58,-24c0,0,24,-24,24,-58c0,0,0,-34,-24,-59C141,24,117,0,83,0ZM695,0c0,0,-34,0,-58,24c0,0,-25,25,-25,59c0,0,0,34,25,58c0,0,24,24,58,24c0,0,34,0,58,-24c0,0,24,-24,24,-58c0,0,0,-34,-24,-59C753,24,729,0,695,0ZM388,594c0,0,-34,0,-59,23c0,0,-24,24,-24,59c0,0,0,34,24,58c0,0,25,25,59,25c0,0,34,0,58,-25c0,0,24,-24,24,-58c0,0,0,-35,-24,-59c0,0,-24,-23,-58,-23Z" 
id="f6_1s"
transform="scale(0.001,-0.001)" />

<path d="M52,62L0,114L278,390L0,667l52,52L330,442L608,719l51,-51L382,390L659,114L608,62L330,338L52,62Z" 
id="f6_3a"
transform="scale(0.001,-0.001)" />

<path d="M0,214v74H784V214ZM0,494v72H784V494Z" 
id="f8_x"
transform="scale(0.001,-0.001)" />

<path d="M25,0V26c0,0,27,4,47,19c0,0,29,22,96,111L311,346L182,535c0,0,-55,81,-86,102c0,0,-30,20,-75,20v26H341V657c0,0,-30,0,-42,-10c0,0,-13,-11,-13,-28c0,0,0,-19,27,-56c0,0,8,-12,25,-37l48,-78l56,77c0,0,55,74,55,94c0,0,0,16,0,27c0,0,0,11,0,11v26H674V657c0,0,-37,-2,-64,-20c0,0,-37,-26,-100,-111L416,402L587,156c0,0,63,-91,89,-109c0,0,27,-18,70,-21V0H423V26c0,0,34,0,53,15c0,0,14,11,14,28c0,0,0,17,-48,87L341,302L232,157c0,0,-50,-69,-50,-82c0,0,0,-18,17,-32c0,0,17,-15,50,-17V0Z" 
id="f4_2k"
transform="scale(0.001,-0.001)" />

<path d="M600,387l39,398L345,387ZM-74,0l8,26c0,0,55,3,97,37c0,0,42,35,125,149l605,822h26L710,193c0,0,-6,-59,-6,-78c0,0,0,-30,11,-46c0,0,14,-22,39,-32c0,0,24,-11,81,-11L827,0H429l8,26h17c0,0,49,0,79,21c0,0,22,15,34,48c0,0,8,23,15,109l13,128H305L202,193c0,0,-35,-47,-44,-68c0,0,-9,-20,-9,-38c0,0,0,-25,20,-42c0,0,19,-17,64,-19L225,0Z" 
id="f5_11"
transform="scale(0.001,-0.001)" />

<path d="M0,356v74H784V356Z" 
id="f6_h"
transform="scale(0.001,-0.001)" />

<path d="M0,-123V1415H525v-72H72V-123Z" 
id="f6_4r"
transform="scale(0.001,-0.001)" />

<path d="M478,-123V1343H26v72H550V-123Z" 
id="f6_57"
transform="scale(0.001,-0.001)" />

<path d="M0,-123V1415H72V-123Z" 
id="f6_4s"
transform="scale(0.001,-0.001)" />

<path d="M0,-123V1415H72V-123Z" 
id="f6_58"
transform="scale(0.001,-0.001)" />

<path d="M0,-123V1415H72V-51H525v-72Z" 
id="f6_4t"
transform="scale(0.001,-0.001)" />

<path d="M26,-123v72H478V1415h72V-123Z" 
id="f6_59"
transform="scale(0.001,-0.001)" />

<path d="M13,0V26c0,0,52,0,78,13c0,0,16,8,24,25c0,0,11,25,11,86V773c0,0,0,118,-5,145c0,0,-5,26,-17,36c0,0,-12,10,-32,10c0,0,-15,0,-47,-13L13,978l203,83h34V381L424,540c0,0,55,50,64,64c0,0,6,9,6,18c0,0,0,15,-12,26c0,0,-13,11,-41,12v23H738V660c0,0,-61,-2,-102,-19c0,0,-40,-17,-89,-62L372,418L547,196c0,0,73,-92,98,-117c0,0,36,-35,63,-45c0,0,18,-8,65,-8V0H441V26c0,0,28,1,38,9c0,0,10,8,10,22c0,0,0,17,-29,56L250,381V154c0,0,0,-67,10,-88c0,0,9,-21,26,-30c0,0,17,-9,75,-10V0Z" 
id="f4_27"
transform="scale(0.001,-0.001)" />

<path d="M660,0C618,0,589,29,589,29C560,58,560,99,560,99c0,41,29,70,29,70c29,29,71,29,71,29c41,0,70,-29,70,-29c29,-29,29,-70,29,-70C759,58,730,29,730,29C701,0,660,0,660,0ZM349,532c-42,0,-71,29,-71,29c-29,29,-29,70,-29,70c0,41,29,70,29,70c29,29,71,29,71,29c41,0,70,-29,70,-29c29,-29,29,-70,29,-70c0,-41,-29,-70,-29,-70C390,532,349,532,349,532Zm622,0c-41,0,-70,29,-70,29c-29,29,-29,70,-29,70c0,41,29,70,29,70c29,29,70,29,70,29c42,0,71,-29,71,-29c29,-29,29,-70,29,-70c0,-41,-29,-70,-29,-70c-29,-29,-71,-29,-71,-29Z" 
id="f7_14"
transform="scale(0.001,-0.001)" />

<path d="M678,393L506,802L330,393ZM11,0V27c0,0,63,12,82,30c0,0,38,35,84,145l356,832h27L912,193c0,0,43,-101,77,-132c0,0,35,-30,97,-34V0H687V27c0,0,60,3,82,21c0,0,21,17,21,41c0,0,0,33,-30,104L700,338H307L239,179c0,0,-26,-59,-26,-88c0,0,0,-23,22,-41c0,0,22,-17,95,-23V0Z" 
id="f4_11"
transform="scale(0.001,-0.001)" />

<path d="M945,-20c0,0,47,75,125,153H57v74H1147l108,91c0,0,23,19,95,72c0,0,-134,103,-203,166H57v72H1070c0,0,-78,78,-125,154h85c0,0,88,-107,217,-217c0,0,130,-110,206,-154V349c0,0,-101,-58,-219,-162c0,0,-118,-103,-204,-207Z" 
id="f6_4g"
transform="scale(0.001,-0.001)" />

<path d="M435,0V856c0,0,-48,-47,-127,-93c0,0,-79,-46,-142,-69V824c0,0,113,52,197,128c0,0,85,75,120,146h86V0Z" 
id="f9_l"
transform="scale(0.001,-0.001)" />


</defs>
</svg>