<?xml version="1.0" encoding="UTF-8" standalone="no"?>
<!DOCTYPE svg PUBLIC "-//W3C//DTD SVG 1.1//EN"
"http://www.w3.org/Graphics/SVG/1.1/DTD/svg11.dtd">
<svg viewBox="0 0 909 1286" version="1.1" xmlns="http://www.w3.org/2000/svg" xmlns:xlink="http://www.w3.org/1999/xlink">
<defs>
<clipPath id="c0_91"><path d="M218.7,174.7V126H333.5v48.7Z" /></clipPath>
<clipPath id="c1_91"><path d="M55.2,499.9V474.2H406.4v25.7Z" /></clipPath>
<clipPath id="c2_91"><path d="M55.2,965.3V860.8H409.9V965.3Z" /></clipPath>
<clipPath id="c3_91"><path d="M55.2,1078.9V992H460.6v86.9Z" /></clipPath>
<style type="text/css"><![CDATA[
.g0_91{
fill: #D9D9D9;
}
.g1_91{
fill: none;
stroke: #000000;
stroke-width: 0.7638889;
stroke-linecap: butt;
stroke-linejoin: miter;
}
.g2_91{
fill: none;
stroke: #000000;
stroke-width: 1.5277778;
stroke-linecap: butt;
stroke-linejoin: miter;
}
.g3_91{
fill: none;
stroke: #000000;
stroke-width: 0.7538335;
stroke-linecap: butt;
stroke-linejoin: round;
}
.g4_91{
fill: none;
stroke: #000000;
stroke-width: 0.908428;
stroke-linecap: butt;
stroke-linejoin: round;
}
.g5_91{
}
]]></style>
</defs>
<image preserveAspectRatio="none" x="747" y="1196" width="96" height="59" xlink:href="img/1.png" />
<image preserveAspectRatio="none" x="336" y="41" width="259" height="51" xlink:href="img/2.png" />
<image preserveAspectRatio="none" x="342" y="50" width="247" height="27" xlink:href="img/3.png" />
<image preserveAspectRatio="none" x="341" y="45" width="239" height="42" xlink:href="img/4.png" />
<g fill="#FFFFFF" >
<use xlink:href="#f0_j" transform="matrix(11.5,0,0,11.5,355.1,70.1)" />
<use xlink:href="#f0_i" transform="matrix(11.5,0,0,11.5,364.3,70.1)" />
<use xlink:href="#f0_2n" transform="matrix(11.5,0,0,11.5,374.1,70.1)" />
<use xlink:href="#f0_t" transform="matrix(11.5,0,0,11.5,382.6,70.1)" />
<use xlink:href="#f0_oj" transform="matrix(11.5,0,0,11.5,391,70.1)" />
<use xlink:href="#f0_3e" transform="matrix(11.5,0,0,11.5,396.5,70.1)" />
<use xlink:href="#f0_1c" transform="matrix(11.5,0,0,11.5,406.1,70.1)" />
<use xlink:href="#f0_1c" transform="matrix(11.5,0,0,11.5,410.8,70.1)" />
<use xlink:href="#f0_oj" transform="matrix(11.5,0,0,11.5,415.6,70.1)" />
<use xlink:href="#f0_rz" transform="matrix(11.5,0,0,11.5,421.1,70.1)" />
<use xlink:href="#f0_rx" transform="matrix(11.5,0,0,11.5,429.9,70.1)" />
<use xlink:href="#f0_ry" transform="matrix(11.5,0,0,11.5,438.7,70.1)" />
<use xlink:href="#f0_s3" transform="matrix(11.5,0,0,11.5,447.5,70.1)" />
<use xlink:href="#f0_t" transform="matrix(11.5,0,0,11.5,460.4,70.1)" />
<use xlink:href="#f0_3e" transform="matrix(11.5,0,0,11.5,468.8,70.1)" />
<use xlink:href="#f0_5" transform="matrix(11.5,0,0,11.5,478.3,70.1)" />
<use xlink:href="#f0_1x" transform="matrix(11.5,0,0,11.5,489,70.1)" />
<use xlink:href="#f0_1c" transform="matrix(11.5,0,0,11.5,504.4,70.1)" />
<use xlink:href="#f0_1y" transform="matrix(11.5,0,0,11.5,509.1,70.1)" />
<use xlink:href="#f0_5" transform="matrix(11.5,0,0,11.5,520.8,70.1)" />
<use xlink:href="#f0_2t" transform="matrix(11.5,0,0,11.5,531.5,70.1)" />
<use xlink:href="#f0_1c" transform="matrix(11.5,0,0,11.5,540.2,70.1)" />
<use xlink:href="#f0_24" transform="matrix(11.5,0,0,11.5,545,70.1)" />
<use xlink:href="#f0_1y" transform="matrix(11.5,0,0,11.5,556.7,70.1)" />
</g>
<image preserveAspectRatio="none" x="554" y="45" width="36" height="42" xlink:href="img/5.png" />
<g fill="#FFFFFF" >
<use xlink:href="#f1_l" transform="matrix(11,0,0,11,770.3,1227.6)" />
<use xlink:href="#f1_l" transform="matrix(11,0,0,11,779.1,1227.6)" />
<use xlink:href="#f1_j" transform="matrix(11,0,0,11,792.3,1227.6)" />
<use xlink:href="#f1_l" transform="matrix(11,0,0,11,802.9,1227.6)" />
<use xlink:href="#f1_n" transform="matrix(11,0,0,11,811.7,1227.6)" />
</g>
<path fill-rule="evenodd" d="M52.8,1193.5H856.9v-.8H52.8v.8Z" class="g0_91" />
<path d="M37.9,99.4L873,98.5" class="g1_91" />
<path d="M48.9,812.3H548.7V764H48.9v48.3Z" class="g2_91" />
<g fill="#000000" >
<use xlink:href="#f2_1f" transform="matrix(12,0,0,12,55,156.2)" />
<use xlink:href="#f2_1y" transform="matrix(12,0,0,12,68.3,156.2)" />
<use xlink:href="#f2_26" transform="matrix(12,0,0,12,77.4,156.2)" />
<use xlink:href="#f2_21" transform="matrix(12,0,0,12,82.2,156.2)" />
<use xlink:href="#f2_1z" transform="matrix(12,0,0,12,90.2,156.2)" />
<use xlink:href="#f2_2g" transform="matrix(12,0,0,12,98.3,156.2)" />
<use xlink:href="#f2_25" transform="matrix(12,0,0,12,104.2,156.2)" />
<use xlink:href="#f2_2i" transform="matrix(12,0,0,12,108.9,156.2)" />
<use xlink:href="#f2_21" transform="matrix(12,0,0,12,117.7,156.2)" />
<use xlink:href="#f2_22" transform="matrix(12,0,0,12,130.9,156.2)" />
<use xlink:href="#f2_2h" transform="matrix(12,0,0,12,136.4,156.2)" />
<use xlink:href="#f2_2a" transform="matrix(12,0,0,12,145.9,156.2)" />
<use xlink:href="#f2_1z" transform="matrix(12,0,0,12,155.1,156.2)" />
<use xlink:href="#f2_2g" transform="matrix(12,0,0,12,163.1,156.2)" />
<use xlink:href="#f2_25" transform="matrix(12,0,0,12,168.6,156.2)" />
<use xlink:href="#f2_2b" transform="matrix(12,0,0,12,173,156.2)" />
<use xlink:href="#f2_2a" transform="matrix(12,0,0,12,182.5,156.2)" />
<use xlink:href="#f2_25" transform="matrix(12,0,0,12,196.5,156.2)" />
<use xlink:href="#f2_2f" transform="matrix(12,0,0,12,201.2,156.2)" />
<use xlink:href="#f2_u" transform="matrix(12,0,0,12,208.2,156.2)" />
</g>
<path d="M252.9,151.9h18.2m18.5,0h27.3" class="g3_91" />
<g clip-path="url(#c0_91)">
<g fill="#000000" >
<use xlink:href="#f2_t" transform="matrix(12.6,0,0,12.4,298.7,145)" />
<use xlink:href="#f2_l" transform="matrix(12.6,0,0,12.4,252.2,170.9)" />
<use xlink:href="#f2_k" transform="matrix(12.6,0,0,12.4,261.3,170.9)" />
<use xlink:href="#f2_l" transform="matrix(12.6,0,0,12.4,288.8,170.9)" />
<use xlink:href="#f2_k" transform="matrix(12.6,0,0,12.4,298,170.9)" />
<use xlink:href="#f2_k" transform="matrix(12.6,0,0,12.4,307.1,170.9)" />
<use xlink:href="#f3_2k" transform="matrix(12.6,0,0,12.4,258.5,145)" />
<use xlink:href="#f3_1q" transform="matrix(12.6,0,0,12.4,221.8,156.5)" />
<use xlink:href="#f3_2l" transform="matrix(12.6,0,0,12.4,321.4,156.5)" />
<use xlink:href="#f4_x" transform="matrix(12.6,0,0,12.4,238.2,156.5)" />
<use xlink:href="#f4_f" transform="matrix(12.6,0,0,12.4,275.4,156.5)" />
</g>
</g>
<g fill="#000000" >
<use xlink:href="#f2_1j" transform="matrix(12,0,0,12,55,468.3)" />
<use xlink:href="#f2_2h" transform="matrix(12,0,0,12,65.3,468.3)" />
<use xlink:href="#f2_1y" transform="matrix(12,0,0,12,74.5,468.3)" />
<use xlink:href="#f2_26" transform="matrix(12,0,0,12,83.6,468.3)" />
<use xlink:href="#f2_21" transform="matrix(12,0,0,12,88.4,468.3)" />
<use xlink:href="#f2_1z" transform="matrix(12,0,0,12,96.5,468.3)" />
<use xlink:href="#f2_2g" transform="matrix(12,0,0,12,104.5,468.3)" />
<use xlink:href="#f2_2g" transform="matrix(12,0,0,12,114.4,468.3)" />
<use xlink:href="#f2_2b" transform="matrix(12,0,0,12,119.5,468.3)" />
<use xlink:href="#f2_1z" transform="matrix(12,0,0,12,133.8,468.3)" />
<use xlink:href="#f2_2b" transform="matrix(12,0,0,12,141.5,468.3)" />
<use xlink:href="#f2_2a" transform="matrix(12,0,0,12,151,468.3)" />
<use xlink:href="#f2_2f" transform="matrix(12,0,0,12,159.8,468.3)" />
<use xlink:href="#f2_2g" transform="matrix(12,0,0,12,166.8,468.3)" />
<use xlink:href="#f2_2e" transform="matrix(12,0,0,12,172.3,468.3)" />
<use xlink:href="#f2_1x" transform="matrix(12,0,0,12,178.5,468.3)" />
<use xlink:href="#f2_25" transform="matrix(12,0,0,12,186.5,468.3)" />
<use xlink:href="#f2_2a" transform="matrix(12,0,0,12,191.3,468.3)" />
<use xlink:href="#f2_2g" transform="matrix(12,0,0,12,200.1,468.3)" />
<use xlink:href="#f2_2f" transform="matrix(12,0,0,12,205.6,468.3)" />
</g>
<g clip-path="url(#c1_91)">
<g fill="#000000" >
<use xlink:href="#f2_p" transform="matrix(13.1,0,0,12.3,113.4,492.4)" />
<use xlink:href="#f2_k" transform="matrix(13.1,0,0,12.3,122.6,492.4)" />
<use xlink:href="#f2_k" transform="matrix(13.1,0,0,12.3,131.8,492.4)" />
<use xlink:href="#f2_k" transform="matrix(13.1,0,0,12.3,141,492.4)" />
<use xlink:href="#f2_k" transform="matrix(13.1,0,0,12.3,150.2,492.4)" />
<use xlink:href="#f2_v" transform="matrix(13.1,0,0,12.3,158.8,492.4)" />
<use xlink:href="#f2_m" transform="matrix(13.1,0,0,12.3,195.8,492.4)" />
<use xlink:href="#f2_k" transform="matrix(13.1,0,0,12.3,205,492.4)" />
<use xlink:href="#f2_g" transform="matrix(13.1,0,0,12.3,213.9,492.4)" />
<use xlink:href="#f2_k" transform="matrix(13.1,0,0,12.3,220.1,492.4)" />
<use xlink:href="#f2_k" transform="matrix(13.1,0,0,12.3,229.3,492.4)" />
<use xlink:href="#f2_k" transform="matrix(13.1,0,0,12.3,238.5,492.4)" />
<use xlink:href="#f2_v" transform="matrix(13.1,0,0,12.3,247.1,492.4)" />
<use xlink:href="#f2_l" transform="matrix(13.1,0,0,12.3,283.2,492.4)" />
<use xlink:href="#f2_k" transform="matrix(13.1,0,0,12.3,292.4,492.4)" />
<use xlink:href="#f2_g" transform="matrix(13.1,0,0,12.3,301.3,492.4)" />
<use xlink:href="#f2_k" transform="matrix(13.1,0,0,12.3,307.5,492.4)" />
<use xlink:href="#f2_k" transform="matrix(13.1,0,0,12.3,316.7,492.4)" />
<use xlink:href="#f2_k" transform="matrix(13.1,0,0,12.3,325.8,492.4)" />
<use xlink:href="#f2_v" transform="matrix(13.1,0,0,12.3,334.5,492.4)" />
<use xlink:href="#f2_c" transform="matrix(13.1,0,0,12.3,382.1,492.4)" />
<use xlink:href="#f2_e" transform="matrix(13.1,0,0,12.3,388.2,492.4)" />
<use xlink:href="#f2_d" transform="matrix(13.1,0,0,12.3,397,492.4)" />
<use xlink:href="#f3_2k" transform="matrix(13.1,0,0,12.3,58.8,492.4)" />
<use xlink:href="#f3_2l" transform="matrix(13.1,0,0,12.3,86.7,492.4)" />
<use xlink:href="#f3_2k" transform="matrix(13.1,0,0,12.3,168.7,492.4)" />
<use xlink:href="#f3_2l" transform="matrix(13.1,0,0,12.3,257.9,492.4)" />
<use xlink:href="#f3_2k" transform="matrix(13.1,0,0,12.3,344.5,492.4)" />
<use xlink:href="#f3_2l" transform="matrix(13.1,0,0,12.3,373.3,492.4)" />
<use xlink:href="#f4_f" transform="matrix(13.1,0,0,12.3,70.9,492.4)" />
<use xlink:href="#f4_39" transform="matrix(13.1,0,0,12.3,99.5,492.4)" />
<use xlink:href="#f4_39" transform="matrix(13.1,0,0,12.3,181.3,492.4)" />
<use xlink:href="#f4_39" transform="matrix(13.1,0,0,12.3,270.7,492.4)" />
<use xlink:href="#f4_39" transform="matrix(13.1,0,0,12.3,357,492.4)" />
</g>
</g>
<g fill="#000000" >
<use xlink:href="#f2_13" transform="matrix(12,0,0,12,55,520.5)" />
<use xlink:href="#f2_2b" transform="matrix(12,0,0,12,67.1,520.5)" />
<use xlink:href="#f2_2e" transform="matrix(12,0,0,12,76.7,520.5)" />
<use xlink:href="#f2_2e" transform="matrix(12,0,0,12,82.9,520.5)" />
<use xlink:href="#f2_21" transform="matrix(12,0,0,12,89.1,520.5)" />
<use xlink:href="#f2_1z" transform="matrix(12,0,0,12,97.1,520.5)" />
<use xlink:href="#f2_2g" transform="matrix(12,0,0,12,104.8,520.5)" />
<use xlink:href="#f2_16" transform="matrix(12,0,0,12,114.7,520.5)" />
<use xlink:href="#f2_25" transform="matrix(12,0,0,12,125,520.5)" />
<use xlink:href="#f2_23" transform="matrix(12,0,0,12,129.4,520.5)" />
<use xlink:href="#f2_2h" transform="matrix(12,0,0,12,138.5,520.5)" />
<use xlink:href="#f2_2e" transform="matrix(12,0,0,12,147.7,520.5)" />
<use xlink:href="#f2_21" transform="matrix(12,0,0,12,153.9,520.5)" />
<use xlink:href="#f2_1m" transform="matrix(12,0,0,12,55,544.7)" />
<use xlink:href="#f2_21" transform="matrix(12,0,0,12,68.3,544.7)" />
<use xlink:href="#f2_2e" transform="matrix(12,0,0,12,76.3,544.7)" />
<use xlink:href="#f2_2g" transform="matrix(12,0,0,12,82.5,544.7)" />
<use xlink:href="#f2_25" transform="matrix(12,0,0,12,88,544.7)" />
<use xlink:href="#f2_1z" transform="matrix(12,0,0,12,92.4,544.7)" />
<use xlink:href="#f2_21" transform="matrix(12,0,0,12,100.5,544.7)" />
<use xlink:href="#f2_2f" transform="matrix(12,0,0,12,108.9,544.7)" />
<use xlink:href="#f2_2b" transform="matrix(12,0,0,12,120.6,544.7)" />
<use xlink:href="#f2_22" transform="matrix(12,0,0,12,130.1,544.7)" />
<use xlink:href="#f2_22" transform="matrix(12,0,0,12,140.7,544.7)" />
<use xlink:href="#f2_21" transform="matrix(12,0,0,12,146.2,544.7)" />
<use xlink:href="#f2_1x" transform="matrix(12,0,0,12,154.3,544.7)" />
<use xlink:href="#f2_2f" transform="matrix(12,0,0,12,162.7,544.7)" />
<use xlink:href="#f2_25" transform="matrix(12,0,0,12,170,544.7)" />
<use xlink:href="#f2_1y" transform="matrix(12,0,0,12,174.8,544.7)" />
<use xlink:href="#f2_28" transform="matrix(12,0,0,12,184,544.7)" />
<use xlink:href="#f2_21" transform="matrix(12,0,0,12,188.7,544.7)" />
<use xlink:href="#f2_2e" transform="matrix(12,0,0,12,201.5,544.7)" />
<use xlink:href="#f2_21" transform="matrix(12,0,0,12,207.8,544.7)" />
<use xlink:href="#f2_23" transform="matrix(12,0,0,12,215.8,544.7)" />
<use xlink:href="#f2_25" transform="matrix(12,0,0,12,225.3,544.7)" />
<use xlink:href="#f2_2b" transform="matrix(12,0,0,12,229.7,544.7)" />
<use xlink:href="#f2_2a" transform="matrix(12,0,0,12,239.6,544.7)" />
<use xlink:href="#f2_1x" transform="matrix(12,0,0,12,253.2,544.7)" />
<use xlink:href="#f2_2e" transform="matrix(12,0,0,12,261.2,544.7)" />
<use xlink:href="#f2_21" transform="matrix(12,0,0,12,267.4,544.7)" />
<use xlink:href="#f2_11" transform="matrix(12,0,0,12,280.3,544.7)" />
<use xlink:href="#f2_g" transform="matrix(12,0,0,12,293.1,544.7)" />
<use xlink:href="#f2_12" transform="matrix(12,0,0,12,302.6,544.7)" />
<use xlink:href="#f2_g" transform="matrix(12,0,0,12,314.7,544.7)" />
<use xlink:href="#f2_13" transform="matrix(12,0,0,12,324.2,544.7)" />
<use xlink:href="#f2_g" transform="matrix(12,0,0,12,336.3,544.7)" />
<use xlink:href="#f2_1x" transform="matrix(12,0,0,12,345.8,544.7)" />
<use xlink:href="#f2_2a" transform="matrix(12,0,0,12,353.9,544.7)" />
<use xlink:href="#f2_20" transform="matrix(12,0,0,12,362.7,544.7)" />
<use xlink:href="#f2_14" transform="matrix(12,0,0,12,376.6,544.7)" />
<use xlink:href="#f5_1i" transform="matrix(12,0,0,12,55,733.2)" />
<use xlink:href="#f5_21" transform="matrix(12,0,0,12,67.1,733.2)" />
<use xlink:href="#f5_2g" transform="matrix(12,0,0,12,75.2,733.2)" />
<use xlink:href="#f5_2h" transform="matrix(12,0,0,12,80.7,733.2)" />
<use xlink:href="#f5_2e" transform="matrix(12,0,0,12,89.9,733.2)" />
<use xlink:href="#f5_2a" transform="matrix(12,0,0,12,96.1,733.2)" />
<use xlink:href="#f5_25" transform="matrix(12,0,0,12,109.6,733.2)" />
<use xlink:href="#f5_2f" transform="matrix(12,0,0,12,114.4,733.2)" />
<use xlink:href="#f5_29" transform="matrix(12,0,0,12,126.5,733.2)" />
<use xlink:href="#f5_1x" transform="matrix(12,0,0,12,140,733.2)" />
<use xlink:href="#f5_2k" transform="matrix(12,0,0,12,148.4,733.2)" />
<use xlink:href="#f5_25" transform="matrix(12,0,0,12,157.6,733.2)" />
<use xlink:href="#f5_29" transform="matrix(12,0,0,12,162.7,733.2)" />
<use xlink:href="#f5_2h" transform="matrix(12,0,0,12,176.7,733.2)" />
<use xlink:href="#f5_29" transform="matrix(12,0,0,12,186.2,733.2)" />
<use xlink:href="#f5_2j" transform="matrix(12,0,0,12,204.9,733.2)" />
<use xlink:href="#f5_24" transform="matrix(12,0,0,12,218.4,733.2)" />
<use xlink:href="#f5_21" transform="matrix(12,0,0,12,227.2,733.2)" />
<use xlink:href="#f5_2a" transform="matrix(12,0,0,12,235.6,733.2)" />
<use xlink:href="#f5_2n4" transform="matrix(12,0,0,12,249.2,733.2)" />
<use xlink:href="#f5_o" transform="matrix(12,0,0,12,263.1,733.2)" />
<use xlink:href="#f5_k" transform="matrix(12,0,0,12,272.3,733.2)" />
<use xlink:href="#f5_k" transform="matrix(12,0,0,12,281.4,733.2)" />
<use xlink:href="#f5_k" transform="matrix(12,0,0,12,290.6,733.2)" />
<use xlink:href="#f5_k" transform="matrix(12,0,0,12,299.8,733.2)" />
<use xlink:href="#f5_1x" transform="matrix(12,0,0,12,313.7,733.2)" />
<use xlink:href="#f5_2e" transform="matrix(12,0,0,12,321.7,733.2)" />
<use xlink:href="#f5_21" transform="matrix(12,0,0,12,328,733.2)" />
<use xlink:href="#f5_25" transform="matrix(12,0,0,12,341.2,733.2)" />
<use xlink:href="#f5_2a" transform="matrix(12,0,0,12,345.9,733.2)" />
<use xlink:href="#f5_2i" transform="matrix(12,0,0,12,355.1,733.2)" />
<use xlink:href="#f5_21" transform="matrix(12,0,0,12,363.9,733.2)" />
<use xlink:href="#f5_2f" transform="matrix(12,0,0,12,372,733.2)" />
<use xlink:href="#f5_2g" transform="matrix(12,0,0,12,378.9,733.2)" />
<use xlink:href="#f5_21" transform="matrix(12,0,0,12,384.4,733.2)" />
<use xlink:href="#f5_20" transform="matrix(12,0,0,12,392.5,733.2)" />
<use xlink:href="#f5_25" transform="matrix(12,0,0,12,406.7,733.2)" />
<use xlink:href="#f5_2a" transform="matrix(12,0,0,12,411.5,733.2)" />
<use xlink:href="#f5_12" transform="matrix(12,0,0,12,425.1,733.2)" />
<use xlink:href="#f5_2b" transform="matrix(12,0,0,12,437.2,733.2)" />
<use xlink:href="#f5_2a" transform="matrix(12,0,0,12,446.7,733.2)" />
<use xlink:href="#f5_20" transform="matrix(12,0,0,12,455.5,733.2)" />
<use xlink:href="#f5_11" transform="matrix(12,0,0,12,469.4,733.2)" />
<use xlink:href="#f5_1x" transform="matrix(12,0,0,12,487,733.2)" />
<use xlink:href="#f5_2a" transform="matrix(12,0,0,12,495.4,733.2)" />
<use xlink:href="#f5_20" transform="matrix(12,0,0,12,504.2,733.2)" />
<use xlink:href="#f5_2n4" transform="matrix(12,0,0,12,518.1,733.2)" />
<use xlink:href="#f5_l" transform="matrix(12,0,0,12,532,733.2)" />
<use xlink:href="#f5_k" transform="matrix(12,0,0,12,541.2,733.2)" />
<use xlink:href="#f5_k" transform="matrix(12,0,0,12,550.4,733.2)" />
<use xlink:href="#f5_k" transform="matrix(12,0,0,12,559.5,733.2)" />
<use xlink:href="#f5_k" transform="matrix(12,0,0,12,568.7,733.2)" />
<use xlink:href="#f5_25" transform="matrix(12,0,0,12,582.6,733.2)" />
<use xlink:href="#f5_2a" transform="matrix(12,0,0,12,587.4,733.2)" />
<use xlink:href="#f5_12" transform="matrix(12,0,0,12,600.9,733.2)" />
<use xlink:href="#f5_2b" transform="matrix(12,0,0,12,613,733.2)" />
<use xlink:href="#f5_2a" transform="matrix(12,0,0,12,622.5,733.2)" />
<use xlink:href="#f5_20" transform="matrix(12,0,0,12,631.3,733.2)" />
<use xlink:href="#f5_12" transform="matrix(12,0,0,12,645.2,733.2)" />
<use xlink:href="#f5_1d" transform="matrix(12,0,0,12,55,757.4)" />
<use xlink:href="#f5_1x" transform="matrix(12,0,0,12,71.2,757.4)" />
<use xlink:href="#f5_2k" transform="matrix(12,0,0,12,79.6,757.4)" />
<use xlink:href="#f5_25" transform="matrix(12,0,0,12,88.8,757.4)" />
<use xlink:href="#f5_29" transform="matrix(12,0,0,12,93.5,757.4)" />
<use xlink:href="#f5_2h" transform="matrix(12,0,0,12,107.5,757.4)" />
<use xlink:href="#f5_29" transform="matrix(12,0,0,12,117,757.4)" />
<use xlink:href="#f5_2e" transform="matrix(12,0,0,12,135.6,757.4)" />
<use xlink:href="#f5_21" transform="matrix(12,0,0,12,141.9,757.4)" />
<use xlink:href="#f5_2g" transform="matrix(12,0,0,12,149.9,757.4)" />
<use xlink:href="#f5_2h" transform="matrix(12,0,0,12,155.4,757.4)" />
<use xlink:href="#f5_2e" transform="matrix(12,0,0,12,164.6,757.4)" />
<use xlink:href="#f5_2a" transform="matrix(12,0,0,12,170.8,757.4)" />
<use xlink:href="#f5_25" transform="matrix(12,0,0,12,184.7,757.4)" />
<use xlink:href="#f5_2f" transform="matrix(12,0,0,12,189.1,757.4)" />
<use xlink:href="#f5_2n4" transform="matrix(12,0,0,12,200.8,757.4)" />
<use xlink:href="#f5_o" transform="matrix(12,0,0,12,214.7,757.4)" />
<use xlink:href="#f5_t" transform="matrix(12,0,0,12,223.9,757.4)" />
<use xlink:href="#f5_k" transform="matrix(12,0,0,12,233.1,757.4)" />
<use xlink:href="#f5_k" transform="matrix(12,0,0,12,242.2,757.4)" />
<use xlink:href="#f2_1j" transform="matrix(12,0,0,12,55,781.6)" />
<use xlink:href="#f2_25" transform="matrix(12,0,0,12,65.7,781.6)" />
<use xlink:href="#f2_2a" transform="matrix(12,0,0,12,70.4,781.6)" />
<use xlink:href="#f2_1z" transform="matrix(12,0,0,12,79.2,781.6)" />
<use xlink:href="#f2_21" transform="matrix(12,0,0,12,87.3,781.6)" />
<use xlink:href="#f2_2g" transform="matrix(12,0,0,12,100.1,781.6)" />
<use xlink:href="#f2_24" transform="matrix(12,0,0,12,105.6,781.6)" />
<use xlink:href="#f2_21" transform="matrix(12,0,0,12,114.4,781.6)" />
<use xlink:href="#f2_2e" transform="matrix(12,0,0,12,122.4,781.6)" />
<use xlink:href="#f2_21" transform="matrix(12,0,0,12,128.7,781.6)" />
<use xlink:href="#f2_1x" transform="matrix(12,0,0,12,141.5,781.6)" />
<use xlink:href="#f2_2e" transform="matrix(12,0,0,12,149.5,781.6)" />
<use xlink:href="#f2_21" transform="matrix(12,0,0,12,155.8,781.6)" />
<use xlink:href="#f2_29" transform="matrix(12,0,0,12,168.6,781.6)" />
<use xlink:href="#f2_2b" transform="matrix(12,0,0,12,182.1,781.6)" />
<use xlink:href="#f2_2e" transform="matrix(12,0,0,12,191.7,781.6)" />
<use xlink:href="#f2_21" transform="matrix(12,0,0,12,197.9,781.6)" />
<use xlink:href="#f2_2g" transform="matrix(12,0,0,12,210.7,781.6)" />
<use xlink:href="#f2_24" transform="matrix(12,0,0,12,216.2,781.6)" />
<use xlink:href="#f2_1x" transform="matrix(12,0,0,12,225,781.6)" />
<use xlink:href="#f2_2a" transform="matrix(12,0,0,12,233,781.6)" />
<use xlink:href="#f2_n" transform="matrix(12,0,0,12,246.6,781.6)" />
<use xlink:href="#f2_1z" transform="matrix(12,0,0,12,260.5,781.6)" />
<use xlink:href="#f2_2b" transform="matrix(12,0,0,12,268.6,781.6)" />
<use xlink:href="#f2_2a" transform="matrix(12,0,0,12,278.1,781.6)" />
<use xlink:href="#f2_2f" transform="matrix(12,0,0,12,286.9,781.6)" />
<use xlink:href="#f2_2g" transform="matrix(12,0,0,12,293.8,781.6)" />
<use xlink:href="#f2_2e" transform="matrix(12,0,0,12,299.3,781.6)" />
<use xlink:href="#f2_1x" transform="matrix(12,0,0,12,305.5,781.6)" />
<use xlink:href="#f2_25" transform="matrix(12,0,0,12,313.6,781.6)" />
<use xlink:href="#f2_2a" transform="matrix(12,0,0,12,318.4,781.6)" />
<use xlink:href="#f2_2g" transform="matrix(12,0,0,12,327.2,781.6)" />
<use xlink:href="#f2_2f" transform="matrix(12,0,0,12,332.7,781.6)" />
<use xlink:href="#f2_g" transform="matrix(12,0,0,12,339.6,781.6)" />
<use xlink:href="#f2_2f" transform="matrix(12,0,0,12,349.1,781.6)" />
<use xlink:href="#f2_2g" transform="matrix(12,0,0,12,356.1,781.6)" />
<use xlink:href="#f2_2h" transform="matrix(12,0,0,12,361.6,781.6)" />
<use xlink:href="#f2_20" transform="matrix(12,0,0,12,370.7,781.6)" />
<use xlink:href="#f2_21" transform="matrix(12,0,0,12,379.9,781.6)" />
<use xlink:href="#f2_2a" transform="matrix(12,0,0,12,388,781.6)" />
<use xlink:href="#f2_2g" transform="matrix(12,0,0,12,396.8,781.6)" />
<use xlink:href="#f2_29" transform="matrix(12,0,0,12,406.7,781.6)" />
<use xlink:href="#f2_1x" transform="matrix(12,0,0,12,420.2,781.6)" />
<use xlink:href="#f2_2l" transform="matrix(12,0,0,12,428.6,781.6)" />
<use xlink:href="#f2_1y" transform="matrix(12,0,0,12,442.2,781.6)" />
<use xlink:href="#f2_21" transform="matrix(12,0,0,12,451.3,781.6)" />
<use xlink:href="#f2_23" transform="matrix(12,0,0,12,464.2,781.6)" />
<use xlink:href="#f2_25" transform="matrix(12,0,0,12,473.7,781.6)" />
<use xlink:href="#f2_2i" transform="matrix(12,0,0,12,478.4,781.6)" />
<use xlink:href="#f2_21" transform="matrix(12,0,0,12,487.2,781.6)" />
<use xlink:href="#f2_2a" transform="matrix(12,0,0,12,495.7,781.6)" />
<use xlink:href="#f2_22" transform="matrix(12,0,0,12,509.6,781.6)" />
<use xlink:href="#f2_2h" transform="matrix(12,0,0,12,515.1,781.6)" />
<use xlink:href="#f2_28" transform="matrix(12,0,0,12,524.6,781.6)" />
<use xlink:href="#f2_28" transform="matrix(12,0,0,12,529.7,781.6)" />
<use xlink:href="#f2_q" transform="matrix(12,0,0,12,55,805.8)" />
<use xlink:href="#f2_29" transform="matrix(12,0,0,12,69,805.8)" />
<use xlink:href="#f2_1x" transform="matrix(12,0,0,12,82.9,805.8)" />
<use xlink:href="#f2_2e" transform="matrix(12,0,0,12,91,805.8)" />
<use xlink:href="#f2_27" transform="matrix(12,0,0,12,97.2,805.8)" />
<use xlink:href="#f2_2f" transform="matrix(12,0,0,12,106.3,805.8)" />
<use xlink:href="#f2_21" transform="matrix(12,0,0,12,118,805.8)" />
<use xlink:href="#f2_2i" transform="matrix(12,0,0,12,126.1,805.8)" />
<use xlink:href="#f2_21" transform="matrix(12,0,0,12,135.3,805.8)" />
<use xlink:href="#f2_2a" transform="matrix(12,0,0,12,143.7,805.8)" />
<use xlink:href="#f2_25" transform="matrix(12,0,0,12,157.6,805.8)" />
<use xlink:href="#f2_22" transform="matrix(12,0,0,12,162.4,805.8)" />
<use xlink:href="#f2_2e" transform="matrix(12,0,0,12,172.6,805.8)" />
<use xlink:href="#f2_21" transform="matrix(12,0,0,12,178.8,805.8)" />
<use xlink:href="#f2_1x" transform="matrix(12,0,0,12,186.9,805.8)" />
<use xlink:href="#f2_1z" transform="matrix(12,0,0,12,195,805.8)" />
<use xlink:href="#f2_24" transform="matrix(12,0,0,12,203.4,805.8)" />
<use xlink:href="#f2_21" transform="matrix(12,0,0,12,212.2,805.8)" />
<use xlink:href="#f2_2f" transform="matrix(12,0,0,12,220.6,805.8)" />
<use xlink:href="#f2_2h" transform="matrix(12,0,0,12,232.3,805.8)" />
<use xlink:href="#f2_2c" transform="matrix(12,0,0,12,241.5,805.8)" />
<use xlink:href="#f2_2g" transform="matrix(12,0,0,12,255.4,805.8)" />
<use xlink:href="#f2_2b" transform="matrix(12,0,0,12,260.5,805.8)" />
<use xlink:href="#f2_c" transform="matrix(12,0,0,12,274.4,805.8)" />
<use xlink:href="#f2_e" transform="matrix(12,0,0,12,280.7,805.8)" />
<use xlink:href="#f2_d" transform="matrix(12,0,0,12,289.8,805.8)" />
<use xlink:href="#f2_i" transform="matrix(12,0,0,12,295.7,805.8)" />
<use xlink:href="#f6_m" transform="matrix(12,0,0,12,55,854.5)" />
<use xlink:href="#f6_q" transform="matrix(12,0,0,12,64.2,854.5)" />
<use xlink:href="#f6_i" transform="matrix(12,0,0,12,73.4,854.5)" />
<use xlink:href="#f2_1l" transform="matrix(12,0,0,12,82.9,854.5)" />
<use xlink:href="#f2_2f" transform="matrix(12,0,0,12,96.1,854.5)" />
<use xlink:href="#f2_25" transform="matrix(12,0,0,12,103.1,854.5)" />
<use xlink:href="#f2_2a" transform="matrix(12,0,0,12,107.8,854.5)" />
<use xlink:href="#f2_23" transform="matrix(12,0,0,12,116.6,854.5)" />
<use xlink:href="#f2_2c" transform="matrix(12,0,0,12,130.6,854.5)" />
<use xlink:href="#f2_2e" transform="matrix(12,0,0,12,139.7,854.5)" />
<use xlink:href="#f2_2b" transform="matrix(12,0,0,12,145.9,854.5)" />
<use xlink:href="#f2_2c" transform="matrix(12,0,0,12,155.4,854.5)" />
<use xlink:href="#f2_21" transform="matrix(12,0,0,12,164.6,854.5)" />
<use xlink:href="#f2_2e" transform="matrix(12,0,0,12,172.7,854.5)" />
<use xlink:href="#f2_2g" transform="matrix(12,0,0,12,178.5,854.5)" />
<use xlink:href="#f2_25" transform="matrix(12,0,0,12,184,854.5)" />
<use xlink:href="#f2_21" transform="matrix(12,0,0,12,188.4,854.5)" />
<use xlink:href="#f2_2f" transform="matrix(12,0,0,12,196.8,854.5)" />
<use xlink:href="#f2_2b" transform="matrix(12,0,0,12,208.6,854.5)" />
<use xlink:href="#f2_22" transform="matrix(12,0,0,12,218.1,854.5)" />
<use xlink:href="#f2_20" transform="matrix(12,0,0,12,228.3,854.5)" />
<use xlink:href="#f2_21" transform="matrix(12,0,0,12,237.5,854.5)" />
<use xlink:href="#f2_2g" transform="matrix(12,0,0,12,245.6,854.5)" />
<use xlink:href="#f2_21" transform="matrix(12,0,0,12,251,854.5)" />
<use xlink:href="#f2_2e" transform="matrix(12,0,0,12,259.1,854.5)" />
<use xlink:href="#f2_29" transform="matrix(12,0,0,12,265.3,854.5)" />
<use xlink:href="#f2_25" transform="matrix(12,0,0,12,279.3,854.5)" />
<use xlink:href="#f2_2a" transform="matrix(12,0,0,12,284,854.5)" />
<use xlink:href="#f2_1x" transform="matrix(12,0,0,12,293.2,854.5)" />
<use xlink:href="#f2_2a" transform="matrix(12,0,0,12,301.6,854.5)" />
<use xlink:href="#f2_2g" transform="matrix(12,0,0,12,310.4,854.5)" />
<use xlink:href="#f2_2f" transform="matrix(12,0,0,12,315.9,854.5)" />
<use xlink:href="#f2_g" transform="matrix(12,0,0,12,322.8,854.5)" />
<use xlink:href="#f2_2c" transform="matrix(12,0,0,12,332.3,854.5)" />
<use xlink:href="#f2_2e" transform="matrix(12,0,0,12,341.5,854.5)" />
<use xlink:href="#f2_2b" transform="matrix(12,0,0,12,347.4,854.5)" />
<use xlink:href="#f2_2i" transform="matrix(12,0,0,12,356.9,854.5)" />
<use xlink:href="#f2_21" transform="matrix(12,0,0,12,365.7,854.5)" />
<use xlink:href="#f2_2g" transform="matrix(12,0,0,12,378.5,854.5)" />
<use xlink:href="#f2_24" transform="matrix(12,0,0,12,384,854.5)" />
<use xlink:href="#f2_1x" transform="matrix(12,0,0,12,392.8,854.5)" />
<use xlink:href="#f2_2g" transform="matrix(12,0,0,12,400.9,854.5)" />
</g>
<g clip-path="url(#c2_91)">
<g fill="#000000" >
<use xlink:href="#f4_c" transform="matrix(11.9,0,0,15.8,60.3,886.6)" />
<use xlink:href="#f4_d" transform="matrix(11.9,0,0,15.8,105.3,886.6)" />
<use xlink:href="#f4_c" transform="matrix(11.9,0,0,15.8,135.7,918.9)" />
<use xlink:href="#f4_d" transform="matrix(11.9,0,0,15.8,180.1,918.9)" />
<use xlink:href="#f4_c" transform="matrix(11.9,0,0,15.8,210.5,951.2)" />
<use xlink:href="#f4_d" transform="matrix(11.9,0,0,15.8,253.7,951.2)" />
</g>
</g>
<path d="M58.7,865v96.1M269,865v96.1" class="g4_91" />
<g clip-path="url(#c2_91)">
<g fill="#000000" >
<use xlink:href="#f4_c" transform="matrix(11.9,0,0,15.8,325,918.9)" />
<use xlink:href="#f4_d" transform="matrix(11.9,0,0,15.8,395.1,918.9)" />
<use xlink:href="#f2_m" transform="matrix(7,0,0,7,111.8,874.4)" />
<use xlink:href="#f2_m" transform="matrix(7,0,0,7,186.6,906.7)" />
<use xlink:href="#f2_n" transform="matrix(7,0,0,7,401.3,906.7)" />
<use xlink:href="#f2_m" transform="matrix(7,0,0,7,260.2,939)" />
<use xlink:href="#f2_m" transform="matrix(12.1,0,0,12.1,288.9,917.6)" />
<use xlink:href="#f3_2k" transform="matrix(12.1,0,0,12.1,68.8,885.3)" />
<use xlink:href="#f3_2l" transform="matrix(12.1,0,0,12.1,95.4,885.3)" />
<use xlink:href="#f3_2m" transform="matrix(12.1,0,0,12.1,157.6,885.3)" />
<use xlink:href="#f3_2k" transform="matrix(12.1,0,0,12.1,164.8,885.3)" />
<use xlink:href="#f3_2m" transform="matrix(12.1,0,0,12.1,231.6,885.3)" />
<use xlink:href="#f3_2l" transform="matrix(12.1,0,0,12.1,238.8,885.3)" />
<use xlink:href="#f3_2m" transform="matrix(12.1,0,0,12.1,82.6,917.6)" />
<use xlink:href="#f3_2k" transform="matrix(12.1,0,0,12.1,89.8,917.6)" />
<use xlink:href="#f3_2m" transform="matrix(12.1,0,0,12.1,144.2,917.6)" />
<use xlink:href="#f3_2l" transform="matrix(12.1,0,0,12.1,170.2,917.6)" />
<use xlink:href="#f3_2k" transform="matrix(12.1,0,0,12.1,231.3,917.6)" />
<use xlink:href="#f3_2l" transform="matrix(12.1,0,0,12.1,239.3,917.6)" />
<use xlink:href="#f3_2k" transform="matrix(12.1,0,0,12.1,299.2,917.6)" />
<use xlink:href="#f3_2l" transform="matrix(12.1,0,0,12.1,307.2,917.6)" />
<use xlink:href="#f3_2m" transform="matrix(12.1,0,0,12.1,315.2,917.6)" />
<use xlink:href="#f3_2k" transform="matrix(12.1,0,0,12.1,333.4,917.6)" />
<use xlink:href="#f3_2l" transform="matrix(12.1,0,0,12.1,360.1,917.6)" />
<use xlink:href="#f3_2m" transform="matrix(12.1,0,0,12.1,386.1,917.6)" />
<use xlink:href="#f3_2m" transform="matrix(12.1,0,0,12.1,82.4,949.9)" />
<use xlink:href="#f3_2l" transform="matrix(12.1,0,0,12.1,89.6,949.9)" />
<use xlink:href="#f3_2k" transform="matrix(12.1,0,0,12.1,157,949.9)" />
<use xlink:href="#f3_2l" transform="matrix(12.1,0,0,12.1,165.1,949.9)" />
<use xlink:href="#f3_2m" transform="matrix(12.1,0,0,12.1,218.9,949.9)" />
<use xlink:href="#f3_2k" transform="matrix(12.1,0,0,12.1,244.1,949.9)" />
<use xlink:href="#f4_f" transform="matrix(12.1,0,0,12.1,80.2,885.3)" />
<use xlink:href="#f4_f" transform="matrix(12.1,0,0,12.1,155,917.6)" />
<use xlink:href="#f4_x" transform="matrix(12.1,0,0,12.1,274.5,917.6)" />
<use xlink:href="#f4_f" transform="matrix(12.1,0,0,12.1,344.8,917.6)" />
<use xlink:href="#f4_f" transform="matrix(12.1,0,0,12.1,371.7,917.6)" />
<use xlink:href="#f4_f" transform="matrix(12.1,0,0,12.1,229.9,949.9)" />
</g>
</g>
<g fill="#000000" >
<use xlink:href="#f6_1f" transform="matrix(12,0,0,12,440.9,985.5)" />
<use xlink:href="#f6_1i" transform="matrix(12,0,0,12,455.2,985.5)" />
</g>
<g clip-path="url(#c3_91)">
<g fill="#000000" >
<use xlink:href="#f2_n" transform="matrix(7.3,0,0,7.2,235.5,1032.5)" />
<use xlink:href="#f2_m" transform="matrix(7.3,0,0,7.2,281.5,1032.5)" />
<use xlink:href="#f2_n" transform="matrix(7.3,0,0,7.2,360.4,1045.7)" />
<use xlink:href="#f2_l" transform="matrix(12.6,0,0,12.4,116.6,1012.9)" />
<use xlink:href="#f2_k" transform="matrix(12.6,0,0,12.4,143.2,1012.9)" />
<use xlink:href="#f2_m" transform="matrix(12.6,0,0,12.4,169.8,1012.9)" />
<use xlink:href="#f2_19" transform="matrix(12.6,0,0,12.4,58,1040.9)" />
<use xlink:href="#f2_22" transform="matrix(12.6,0,0,12.4,63.7,1040.9)" />
<use xlink:href="#f2_k" transform="matrix(12.6,0,0,12.4,116.8,1040.9)" />
<use xlink:href="#f2_m" transform="matrix(12.6,0,0,12.4,143.3,1040.9)" />
<use xlink:href="#f2_l" transform="matrix(12.6,0,0,12.4,169.4,1040.9)" />
<use xlink:href="#f2_1x" transform="matrix(12.6,0,0,12.4,191.8,1040.9)" />
<use xlink:href="#f2_2a" transform="matrix(12.6,0,0,12.4,199.8,1040.9)" />
<use xlink:href="#f2_20" transform="matrix(12.6,0,0,12.4,209,1040.9)" />
<use xlink:href="#f2_q" transform="matrix(12.6,0,0,12.4,259.2,1040.9)" />
<use xlink:href="#f2_r" transform="matrix(12.6,0,0,12.4,305.8,1040.9)" />
<use xlink:href="#f2_1f" transform="matrix(12.6,0,0,12.4,385.6,1040.9)" />
<use xlink:href="#f2_22" transform="matrix(12.6,0,0,12.4,403,1040.9)" />
<use xlink:href="#f2_25" transform="matrix(12.6,0,0,12.4,409,1040.9)" />
<use xlink:href="#f2_2a" transform="matrix(12.6,0,0,12.4,414.2,1040.9)" />
<use xlink:href="#f2_20" transform="matrix(12.6,0,0,12.4,423.4,1040.9)" />
<use xlink:href="#f2_27" transform="matrix(12.6,0,0,12.4,437.3,1040.9)" />
<use xlink:href="#f2_i" transform="matrix(12.6,0,0,12.4,446.5,1040.9)" />
<use xlink:href="#f2_m" transform="matrix(12.6,0,0,12.4,116.9,1068.8)" />
<use xlink:href="#f2_k" transform="matrix(12.6,0,0,12.4,143.1,1068.8)" />
<use xlink:href="#f2_n" transform="matrix(12.6,0,0,12.4,169.7,1068.8)" />
<use xlink:href="#f3_11" transform="matrix(12.6,0,0,12.4,78.2,1040.9)" />
<use xlink:href="#f3_11" transform="matrix(12.6,0,0,12.4,224.5,1040.9)" />
<use xlink:href="#f3_11" transform="matrix(12.6,0,0,12.4,270.2,1040.9)" />
<use xlink:href="#f3_11" transform="matrix(12.6,0,0,12.4,317.1,1040.9)" />
<use xlink:href="#f3_27" transform="matrix(12.6,0,0,12.4,345.5,1040.9)" />
<use xlink:href="#f3_19" transform="matrix(12.6,0,0,12.4,353.5,1040.9)" />
<use xlink:href="#f4_4o" transform="matrix(12.6,0,0,12.4,107.4,1014.4)" />
<use xlink:href="#f4_54" transform="matrix(12.6,0,0,12.4,180.8,1014.4)" />
<use xlink:href="#f4_4p" transform="matrix(12.6,0,0,12.4,107.4,1031.5)" />
<use xlink:href="#f4_55" transform="matrix(12.6,0,0,12.4,180.8,1031.5)" />
<use xlink:href="#f4_x" transform="matrix(12.6,0,0,12.4,93.4,1040.9)" />
<use xlink:href="#f4_h" transform="matrix(12.6,0,0,12.4,245.7,1040.9)" />
<use xlink:href="#f4_f" transform="matrix(12.6,0,0,12.4,292.1,1040.9)" />
<use xlink:href="#f4_f" transform="matrix(12.6,0,0,12.4,331.4,1040.9)" />
<use xlink:href="#f4_x" transform="matrix(12.6,0,0,12.4,371.4,1040.9)" />
<use xlink:href="#f4_4p" transform="matrix(12.6,0,0,12.4,107.4,1049.3)" />
<use xlink:href="#f4_55" transform="matrix(12.6,0,0,12.4,180.8,1049.3)" />
<use xlink:href="#f4_4p" transform="matrix(12.6,0,0,12.4,107.4,1062.1)" />
<use xlink:href="#f4_55" transform="matrix(12.6,0,0,12.4,180.8,1062.1)" />
<use xlink:href="#f4_4q" transform="matrix(12.6,0,0,12.4,107.4,1073.7)" />
<use xlink:href="#f4_56" transform="matrix(12.6,0,0,12.4,180.8,1073.7)" />
</g>
</g>
<g fill="#000000" >
<use xlink:href="#f6_1j" transform="matrix(12,0,0,12,55,1099.2)" />
<use xlink:href="#f6_2b" transform="matrix(12,0,0,12,65.3,1099.2)" />
<use xlink:href="#f6_28" transform="matrix(12,0,0,12,74.5,1099.2)" />
<use xlink:href="#f6_2h" transform="matrix(12,0,0,12,79.2,1099.2)" />
<use xlink:href="#f6_2g" transform="matrix(12,0,0,12,89.5,1099.2)" />
<use xlink:href="#f6_25" transform="matrix(12,0,0,12,95.7,1099.2)" />
<use xlink:href="#f6_2b" transform="matrix(12,0,0,12,100.8,1099.2)" />
<use xlink:href="#f6_2a" transform="matrix(12,0,0,12,109.9,1099.2)" />
<use xlink:href="#f6_u" transform="matrix(12,0,0,12,120.2,1099.2)" />
</g>
<image preserveAspectRatio="none" x="55" y="177" width="330" height="271" xlink:href="img/6.png" />
<image preserveAspectRatio="none" x="55" y="552" width="353" height="161" xlink:href="img/7.png" />
<path fill-rule="evenodd" d="M37.4,38.1h.7v-.7h-.7v.7Z" class="g5_91" />
<path fill-rule="evenodd" d="M37.4,38.1h.7v-.7h-.7v.7Z" class="g5_91" />
<path fill-rule="evenodd" d="M38.1,38.1H871.5v-.7H38.1v.7Z" class="g5_91" />
<path fill-rule="evenodd" d="M871.5,38.1h.8v-.7h-.8v.7Z" class="g5_91" />
<path fill-rule="evenodd" d="M871.5,38.1h.8v-.7h-.8v.7Z" class="g5_91" />
<path fill-rule="evenodd" d="M37.4,1248.5h.7V38.1h-.7V1248.5Z" class="g5_91" />
<path fill-rule="evenodd" d="M872.3,1248.5h.7V38.1h-.7V1248.5Z" class="g5_91" />
<path fill-rule="evenodd" d="M871.5,1248.5h.8V38.1h-.8V1248.5Z" class="g5_91" />
<path fill-rule="evenodd" d="M37.4,1249.2h.7v-.7h-.7v.7Z" class="g5_91" />
<path fill-rule="evenodd" d="M37.4,1249.2h.7v-.7h-.7v.7Z" class="g5_91" />
<path fill-rule="evenodd" d="M38.1,1249.9H871.5v-.7H38.1v.7Z" class="g5_91" />
<path fill-rule="evenodd" d="M38.1,1249.2H871.5v-.7H38.1v.7Z" class="g5_91" />
<path fill-rule="evenodd" d="M872.3,1249.9h.7v-1.4h-.7v1.4Z" class="g5_91" />
<path fill-rule="evenodd" d="M871.5,1249.9H873v-.7h-1.5v.7Z" class="g5_91" />
<path fill-rule="evenodd" d="M871.5,1249.2h.8v-.7h-.8v.7Z" class="g5_91" />
<path fill-rule="evenodd" d="M871.5,1249.2h.8v-.7h-.8v.7Z" class="g5_91" />
<defs>
<path d="M489,-15c0,0,-99,0,-179,30c0,0,-80,30,-136,91c0,0,-56,61,-85,152c0,0,-30,91,-30,212c0,0,0,123,32,218c0,0,33,96,92,161c0,0,59,65,142,98c0,0,82,34,181,34c0,0,40,0,78,-7c0,0,37,-7,69,-18c0,0,31,-11,57,-25c0,0,25,-14,35,-24c0,0,10,-10,14,-17c0,0,4,-7,6,-17c0,0,2,-11,3,-25c0,0,2,-14,2,-35c0,0,0,-22,-2,-38c0,0,-1,-15,-5,-25c0,0,-4,-10,-9,-14c0,0,-5,-5,-12,-5c0,0,-11,0,-28,13c0,0,-18,13,-45,29c0,0,-27,16,-65,29c0,0,-37,13,-89,13c0,0,-58,0,-103,-23c0,0,-45,-23,-77,-67c0,0,-31,-44,-48,-106c0,0,-16,-61,-16,-139c0,0,0,-85,17,-147c0,0,18,-62,50,-103c0,0,33,-40,79,-60c0,0,45,-19,103,-19c0,0,52,0,90,12c0,0,38,12,65,27c0,0,27,15,45,27c0,0,17,12,27,12c0,0,8,0,12,-3c0,0,4,-3,7,-12c0,0,3,-9,5,-25c0,0,1,-16,1,-43c0,0,0,-18,-1,-31c0,0,-1,-14,-3,-23c0,0,-2,-9,-6,-16c0,0,-4,-7,-12,-15c0,0,-8,-9,-32,-22c0,0,-23,-14,-57,-26C661,13,627,1,583,-6c0,0,-43,-9,-94,-9Z" 
id="f0_j"
transform="scale(0.001,-0.001)" />

<path d="M440,150c0,0,41,0,68,8c0,0,28,9,49,26c0,0,20,16,32,41c0,0,11,25,11,58c0,0,0,33,-11,60c0,0,-11,26,-33,44c0,0,-21,18,-55,28c0,0,-33,9,-87,9H298V150ZM407,567c0,0,42,0,68,10c0,0,25,10,42,28c0,0,16,17,24,41c0,0,9,24,9,50c0,0,0,29,-9,52c0,0,-9,23,-27,39c0,0,-18,15,-45,23c0,0,-27,8,-72,8H298V567ZM164,0c0,0,-25,0,-42,15c0,0,-16,14,-16,47V903c0,0,0,33,16,48c0,0,17,14,42,14H406c0,0,88,0,150,-15c0,0,61,-15,103,-45c0,0,42,-30,65,-77c0,0,22,-46,22,-108c0,0,0,-36,-9,-67c0,0,-9,-31,-26,-56c0,0,-17,-25,-42,-45c0,0,-25,-19,-57,-31c0,0,41,-7,76,-26c0,0,34,-19,60,-48c0,0,26,-30,41,-69c0,0,15,-40,15,-89c0,0,0,-51,-14,-93c0,0,-15,-42,-40,-74c0,0,-25,-32,-59,-55c0,0,-35,-23,-77,-38C614,29,573,14,525,7C525,7,478,0,420,0Z" 
id="f0_i"
transform="scale(0.001,-0.001)" />

<path d="M320,-17c0,0,-50,0,-93,9c0,0,-43,8,-76,19c0,0,-32,11,-54,24C97,35,75,48,65,58c0,0,-10,9,-14,28c0,0,-4,18,-4,52c0,0,0,23,1,39c0,0,2,15,5,25c0,0,4,10,9,14c0,0,6,4,13,4c0,0,11,0,30,-12c0,0,19,-13,49,-28c0,0,30,-15,71,-27c0,0,42,-12,96,-12c0,0,36,0,64,8c0,0,29,9,49,25c0,0,19,15,30,38c0,0,10,23,10,52c0,0,0,33,-18,56c0,0,-18,24,-46,42c0,0,-29,18,-66,34c0,0,-36,16,-75,34c0,0,-39,18,-76,41c0,0,-36,23,-65,54c0,0,-29,32,-47,75c0,0,-17,44,-17,104c0,0,0,70,25,122c0,0,26,53,70,88c0,0,43,34,103,51c0,0,59,18,125,18c0,0,35,0,69,-6c0,0,34,-5,64,-14c0,0,30,-9,53,-20c0,0,23,-11,31,-18c0,0,7,-8,10,-13c0,0,3,-5,4,-14c0,0,2,-8,3,-21c0,0,1,-13,1,-33c0,0,0,-21,-1,-36c0,0,-1,-15,-4,-25c0,0,-3,-9,-7,-14c0,0,-5,-4,-14,-4c0,0,-8,0,-26,10c0,0,-18,10,-44,23c0,0,-26,12,-60,22c0,0,-34,10,-75,10c0,0,-32,0,-56,-8c0,0,-24,-8,-40,-21c0,0,-16,-14,-24,-34c0,0,-8,-19,-8,-41c0,0,0,-32,18,-56c0,0,17,-23,46,-42c0,0,30,-18,67,-34c0,0,38,-16,76,-34c0,0,39,-18,76,-41c0,0,38,-22,67,-54c0,0,29,-32,47,-75c0,0,18,-43,18,-101c0,0,0,-76,-29,-133c0,0,-28,-58,-77,-96C572,60,524,21,459,2c0,0,-65,-19,-139,-19Z" 
id="f0_2n"
transform="scale(0.001,-0.001)" />

<path d="M164,0c0,0,-25,0,-42,15c0,0,-16,14,-16,47V903c0,0,0,33,16,48c0,0,17,14,42,14H645c0,0,7,0,12,-4c0,0,5,-3,9,-13c0,0,4,-9,6,-24c0,0,2,-14,2,-36c0,0,0,-21,-2,-36c0,0,-2,-14,-6,-23c0,0,-4,-9,-9,-13c0,0,-5,-4,-12,-4H301V576H593c0,0,6,0,12,-4c0,0,6,-4,9,-13c0,0,4,-8,6,-23c0,0,2,-14,2,-35c0,0,0,-22,-2,-36c0,0,-2,-14,-6,-23c0,0,-3,-8,-9,-12c0,0,-6,-4,-12,-4H301V154H649c0,0,6,0,12,-5c0,0,5,-4,9,-13c0,0,4,-9,6,-23c0,0,2,-15,2,-36c0,0,0,-22,-2,-36c0,0,-2,-15,-6,-24c0,0,-4,-9,-9,-13c0,0,-6,-4,-12,-4Z" 
id="f0_t"
transform="scale(0.001,-0.001)" />

<path d="M79,297c0,0,-19,0,-27,18c0,0,-8,17,-8,60c0,0,0,41,8,59c0,0,8,17,27,17H389c0,0,9,0,15,-4c0,0,7,-4,11,-13c0,0,5,-9,7,-23c0,0,1,-15,1,-36c0,0,0,-43,-8,-61c0,0,-8,-17,-26,-17Z" 
id="f0_oj"
transform="scale(0.001,-0.001)" />

<path d="M121,-4c0,0,-39,0,-60,2C61,-2,39,0,32,8c0,0,-8,8,-3,24c0,0,4,15,18,41L279,495L64,892c0,0,-14,26,-19,42c0,0,-5,17,4,24c0,0,9,8,32,10c0,0,23,2,65,2c0,0,35,0,56,-2c0,0,20,-1,32,-4c0,0,12,-4,17,-10c0,0,5,-6,9,-15L431,620L595,939c0,0,5,9,10,15c0,0,5,6,16,10c0,0,10,3,29,4c0,0,19,2,53,2c0,0,37,0,59,-2c0,0,22,-2,30,-10c0,0,8,-8,4,-24c0,0,-4,-16,-17,-42L564,497L793,73c0,0,14,-26,18,-41c0,0,4,-16,-5,-24c0,0,-9,-8,-32,-10c0,0,-24,-2,-65,-2c0,0,-36,0,-56,2c0,0,-20,1,-31,3c0,0,-12,4,-17,10c0,0,-5,6,-9,15L414,374L233,26c0,0,-4,-9,-9,-15c0,0,-6,-6,-17,-10c0,0,-12,-2,-32,-3c0,0,-21,-2,-54,-2Z" 
id="f0_3e"
transform="scale(0.001,-0.001)" />

<path d="M204,-4c0,0,-28,0,-47,2c0,0,-19,2,-31,5c0,0,-11,4,-16,10c0,0,-4,6,-4,13V939c0,0,0,7,4,13c0,0,5,6,17,10c0,0,11,3,30,6c0,0,19,2,47,2c0,0,29,0,48,-2c0,0,18,-3,29,-6c0,0,11,-4,16,-10c0,0,5,-6,5,-13V26c0,0,0,-7,-5,-13c0,0,-5,-6,-16,-10c0,0,-11,-3,-29,-5c0,0,-19,-2,-48,-2Z" 
id="f0_1c"
transform="scale(0.001,-0.001)" />

<path d="M127,0c0,0,-16,0,-28,3C99,3,87,6,80,15c0,0,-8,8,-11,25c0,0,-3,16,-3,42c0,0,0,25,2,42c0,0,2,18,8,32c0,0,6,14,15,27c0,0,9,13,24,29L282,390c0,0,50,53,81,95c0,0,30,43,47,79c0,0,17,35,24,65c0,0,6,30,6,57c0,0,0,24,-8,46c0,0,-8,22,-23,39c0,0,-15,16,-38,25c0,0,-23,10,-55,10c0,0,-44,0,-78,-12c0,0,-33,-11,-59,-25c0,0,-26,-13,-43,-25c0,0,-17,-12,-27,-12c0,0,-7,0,-11,5c0,0,-5,4,-8,15c0,0,-3,10,-5,28c0,0,-2,17,-2,42c0,0,0,18,1,29c0,0,1,12,4,20c0,0,2,9,6,15c0,0,3,6,13,15c0,0,9,9,34,23c0,0,25,14,61,27c0,0,37,14,81,23c0,0,44,9,92,9c0,0,75,0,131,-19c0,0,57,-19,94,-53c0,0,37,-34,55,-81c0,0,19,-47,19,-100c0,0,0,-47,-9,-93c0,0,-9,-45,-37,-98c0,0,-29,-52,-80,-116c0,0,-52,-64,-136,-148L299,159H679c0,0,8,0,14,-4c0,0,6,-5,11,-14c0,0,4,-9,7,-25c0,0,2,-15,2,-36c0,0,0,-22,-2,-37c0,0,-2,-15,-6,-25c0,0,-3,-10,-9,-14c0,0,-6,-4,-14,-4Z" 
id="f0_rz"
transform="scale(0.001,-0.001)" />

<path d="M385,138c0,0,29,0,52,9c0,0,22,10,39,28c0,0,17,19,28,47c0,0,11,29,19,66c0,0,7,37,9,84c0,0,3,47,3,104c0,0,0,69,-4,122c0,0,-4,52,-11,91c0,0,-8,39,-20,66c0,0,-12,27,-28,43c0,0,-16,16,-37,22c0,0,-21,7,-47,7c0,0,-44,0,-73,-21c0,0,-28,-21,-45,-64c0,0,-17,-42,-24,-106c0,0,-6,-63,-6,-148c0,0,0,-103,8,-171c0,0,8,-67,26,-107c0,0,17,-40,45,-56c0,0,27,-16,66,-16ZM378,-17c0,0,-99,0,-164,33c0,0,-65,34,-103,98c0,0,-38,64,-54,156c0,0,-15,92,-15,209c0,0,0,115,19,208c0,0,19,94,61,160c0,0,42,65,110,101c0,0,68,35,165,35c0,0,99,0,164,-34c0,0,65,-34,103,-98c0,0,39,-64,53,-156c0,0,15,-92,15,-209c0,0,0,-115,-18,-209c0,0,-19,-93,-61,-159C653,118,611,53,543,17c0,0,-67,-34,-165,-34Z" 
id="f0_rx"
transform="scale(0.001,-0.001)" />

<path d="M142,0c0,0,-6,0,-12,4c0,0,-5,3,-9,12c0,0,-4,9,-6,23c0,0,-3,15,-3,36c0,0,0,21,2,36c0,0,2,14,6,23c0,0,4,9,10,13c0,0,5,5,12,5H322V779L166,693c0,0,-17,-8,-28,-10c0,0,-1,0,-3,0c-4,0,-10,1,-14,5c0,0,-6,6,-8,22c0,0,-2,15,-2,44c0,0,0,18,0,29c0,0,1,12,4,20c0,0,3,8,8,14c0,0,5,5,14,11L345,962c0,0,4,3,9,5c0,0,6,2,15,3c0,0,9,1,23,2c0,0,15,0,38,0c0,0,28,0,46,-1c0,0,17,-1,26,-4c0,0,9,-3,12,-7c0,0,3,-4,3,-11V152H675c0,0,7,0,12,-5c0,0,6,-4,10,-13c0,0,4,-9,6,-23c0,0,2,-15,2,-36c0,0,0,-21,-2,-36c0,0,-3,-14,-7,-23c0,0,-4,-9,-9,-12c0,0,-5,-4,-12,-4Z" 
id="f0_ry"
transform="scale(0.001,-0.001)" />

<path d="M398,134c0,0,34,0,60,12c0,0,25,13,43,36c0,0,17,23,26,54c0,0,9,31,9,68c0,0,0,38,-7,66c0,0,-7,29,-22,49c0,0,-15,20,-39,30c0,0,-25,10,-60,10c0,0,-21,0,-41,-4c0,0,-20,-4,-40,-10c0,0,-19,-7,-37,-16c0,0,-18,-10,-33,-20c0,0,0,-80,9,-133c0,0,9,-54,26,-85c0,0,18,-31,44,-44c0,0,27,-13,62,-13ZM387,-16c0,0,-67,0,-117,15c0,0,-50,14,-86,43c0,0,-37,29,-60,70c0,0,-23,41,-37,92c0,0,-14,52,-19,112c0,0,-5,61,-5,129c0,0,0,56,5,118c0,0,6,62,22,122c0,0,16,59,45,114c0,0,29,54,75,94c0,0,46,41,111,65c0,0,65,24,155,24c0,0,28,0,57,-4c0,0,29,-3,53,-8c0,0,25,-5,42,-12c0,0,17,-7,23,-12c0,0,5,-5,8,-11c0,0,3,-5,5,-13c0,0,2,-7,3,-17c0,0,1,-11,1,-25c0,0,0,-24,-1,-39c0,0,-2,-15,-5,-24c0,0,-3,-8,-8,-12c0,0,-5,-4,-12,-4c0,0,-9,0,-24,5c0,0,-14,5,-34,11c0,0,-20,6,-47,10c0,0,-27,5,-63,5c0,0,-61,0,-102,-23c0,0,-42,-22,-68,-60c0,0,-26,-39,-38,-90c0,0,-12,-50,-13,-107c0,0,16,10,38,21c0,0,21,10,46,18c0,0,25,7,54,12c0,0,29,5,62,5c0,0,73,0,125,-20c0,0,52,-20,86,-58c0,0,33,-37,48,-90c0,0,16,-53,16,-118c0,0,0,-73,-22,-135c0,0,-23,-62,-66,-108C640,79,597,34,533,9c0,0,-63,-25,-146,-25Z" 
id="f0_s3"
transform="scale(0.001,-0.001)" />

<path d="M589,371L453,782h-1L317,371ZM106,-4c0,0,-35,0,-54,2C52,-2,32,0,25,8c0,0,-7,9,-5,24c0,0,2,16,11,42L329,931c0,0,4,13,10,21c0,0,6,7,19,12c0,0,13,4,36,5c0,0,23,1,61,1c0,0,44,0,71,-1c0,0,26,-1,40,-5c0,0,15,-5,21,-13c0,0,6,-8,11,-22L896,73c0,0,9,-27,11,-43c0,0,3,-15,-6,-23c0,0,-8,-7,-29,-9c0,0,-21,-2,-57,-2c0,0,-38,0,-59,1c0,0,-22,1,-33,4c0,0,-11,3,-16,9c0,0,-4,6,-7,16L635,220H272L211,31c0,0,-2,-11,-7,-18c0,0,-5,-7,-16,-11c0,0,-11,-3,-31,-4c0,0,-19,-2,-51,-2Z" 
id="f0_5"
transform="scale(0.001,-0.001)" />

<path d="M198,-4c0,0,-27,0,-45,2c0,0,-18,2,-28,5c0,0,-11,4,-15,10c0,0,-4,6,-4,13V887c0,0,0,38,20,58c0,0,20,20,53,20H308c0,0,34,0,59,-6c0,0,24,-5,42,-18c0,0,18,-13,30,-35c0,0,12,-21,21,-52L669,279h3L889,852c0,0,9,32,21,53c0,0,11,22,27,35c0,0,15,14,36,19c0,0,21,6,48,6h132c0,0,21,0,35,-5c0,0,15,-5,24,-15c0,0,9,-11,14,-25c0,0,5,-15,5,-33V26c0,0,0,-7,-4,-13c0,0,-4,-6,-15,-10c0,0,-11,-3,-29,-5c0,0,-18,-2,-45,-2c0,0,-27,0,-45,2c0,0,-18,2,-28,5c0,0,-11,4,-15,10c0,0,-5,6,-5,13V813h-1L764,27c0,0,-3,-10,-10,-16c0,0,-6,-6,-18,-10c0,0,-12,-3,-29,-4c0,0,-18,-1,-44,-1c0,0,-25,0,-43,2c0,0,-18,2,-29,5c0,0,-12,4,-19,10c0,0,-6,6,-9,14L293,813h-2V26c0,0,0,-7,-4,-13c0,0,-4,-6,-15,-10c0,0,-11,-3,-29,-5c0,0,-17,-2,-45,-2Z" 
id="f0_1x"
transform="scale(0.001,-0.001)" />

<path d="M193,-4c0,0,-26,0,-43,2c0,0,-18,2,-27,6c0,0,-10,4,-14,10c0,0,-3,6,-3,13V895c0,0,0,35,20,53c0,0,21,17,50,17H282c0,0,28,0,47,-5c0,0,20,-5,35,-16c0,0,15,-11,29,-31c0,0,13,-20,27,-49L608,511c0,0,17,-32,33,-63c0,0,16,-31,31,-62c0,0,14,-31,29,-60c0,0,14,-30,27,-60h1c0,0,-2,52,-3,109c0,0,-1,57,-1,108V936c0,0,0,7,4,13c0,0,5,6,15,11c0,0,10,4,28,6c0,0,17,2,44,2c0,0,25,0,42,-2c0,0,17,-2,27,-6c0,0,9,-5,13,-11c0,0,4,-6,4,-13V68c0,0,0,-17,-6,-30c0,0,-6,-14,-17,-23C879,15,869,6,856,2c0,0,-14,-3,-28,-3H744c0,0,-26,0,-45,4c0,0,-19,5,-35,19c0,0,-16,14,-31,38c0,0,-15,23,-34,60L359,572c0,0,-21,40,-43,86c0,0,-21,47,-38,91h-2c0,0,3,-54,5,-107c0,0,2,-53,2,-110V27c0,0,0,-7,-5,-13c0,0,-4,-6,-14,-10c0,0,-10,-4,-27,-6c0,0,-17,-2,-44,-2Z" 
id="f0_1y"
transform="scale(0.001,-0.001)" />

<path d="M378,-4c0,0,-28,0,-47,2c0,0,-19,2,-31,5c0,0,-11,4,-16,10c0,0,-4,6,-4,13V805H38c0,0,-8,0,-13,4c0,0,-5,5,-9,14c0,0,-3,9,-5,25c0,0,-2,15,-2,37c0,0,0,22,2,38c0,0,2,15,5,25c0,0,4,9,9,13c0,0,5,4,13,4H718c0,0,7,0,12,-4c0,0,6,-4,10,-13c0,0,3,-10,5,-25c0,0,2,-16,2,-38c0,0,0,-22,-2,-37c0,0,-2,-16,-5,-25c0,0,-4,-9,-10,-14c0,0,-5,-4,-12,-4H476V26c0,0,0,-7,-5,-13c0,0,-5,-6,-16,-10c0,0,-11,-3,-30,-5c0,0,-19,-2,-47,-2Z" 
id="f0_2t"
transform="scale(0.001,-0.001)" />

<path d="M514,145c0,0,72,0,121,27c0,0,48,26,78,73c0,0,30,46,42,107c0,0,13,62,13,131c0,0,0,76,-12,139c0,0,-12,62,-41,106c0,0,-29,45,-76,69c0,0,-48,24,-120,24c0,0,-72,0,-120,-27c0,0,-49,-27,-79,-73c0,0,-29,-45,-42,-106c0,0,-12,-61,-12,-129c0,0,0,-79,12,-142c0,0,12,-63,40,-108c0,0,28,-44,76,-68c0,0,48,-23,120,-23ZM508,-17c0,0,-113,0,-196,29c0,0,-84,29,-140,90c0,0,-56,60,-84,154c0,0,-28,93,-28,221c0,0,0,117,29,210c0,0,30,94,89,160c0,0,59,65,146,101c0,0,87,35,202,35c0,0,110,0,194,-29c0,0,84,-30,140,-90c0,0,56,-60,85,-153c0,0,29,-92,29,-217c0,0,0,-120,-30,-215c0,0,-30,-95,-89,-161C855,118,796,52,709,17c0,0,-87,-34,-201,-34Z" 
id="f0_24"
transform="scale(0.001,-0.001)" />

<path d="M299,0V777H162l36,173H508V0Z" 
id="f1_l"
transform="scale(0.001,-0.001)" />

<path d="M44,-281L425,1053H537L156,-281Z" 
id="f1_j"
transform="scale(0.001,-0.001)" />

<path d="M404,-11c0,0,-136,0,-225,76c0,0,-90,78,-111,215H265c0,0,35,-136,135,-136c0,0,50,0,85,35c0,0,34,36,34,88c0,0,0,64,-41,105c0,0,-42,41,-107,41H336V573h21c0,0,68,0,109,33c0,0,41,34,41,89c0,0,0,50,-32,85c0,0,-32,35,-79,35c0,0,-110,0,-127,-135H76c0,0,9,130,96,209c0,0,87,79,208,79c0,0,134,0,227,-76c0,0,94,-75,94,-182c0,0,0,-116,-115,-210c0,0,73,-46,107,-96c0,0,34,-51,34,-121c0,0,0,-134,-88,-214c0,0,-89,-80,-235,-80Z" 
id="f1_n"
transform="scale(0.001,-0.001)" />

<path d="M551,45c0,0,171,0,252,108c0,0,82,108,82,349c0,0,0,239,-81,344c0,0,-81,105,-253,105c0,0,-172,0,-252,-105c0,0,-80,-105,-80,-344c0,0,0,-241,80,-349c0,0,81,-108,252,-108Zm0,-59c0,0,-238,0,-363,129C188,115,63,245,63,501c0,0,0,510,488,510c0,0,242,0,366,-129c0,0,124,-130,124,-381c0,0,0,-255,-126,-385C915,116,790,-14,551,-14Z" 
id="f2_1f"
transform="scale(0.001,-0.001)" />

<path d="M376,50c0,0,103,0,149,80c0,0,46,81,46,240c0,0,0,137,-47,204c0,0,-48,67,-148,67c0,0,-44,0,-87,-7c0,0,-44,-8,-63,-17V62c0,0,63,-12,150,-12Zm3,-64c0,0,-64,0,-141,14c0,0,-78,14,-136,37v971L0,1026v34H226V809c0,0,0,-40,-4,-148c0,0,74,59,188,59c0,0,143,0,219,-87c0,0,77,-87,77,-263c0,0,0,-189,-84,-287c0,0,-84,-97,-243,-97Z" 
id="f2_1y"
transform="scale(0.001,-0.001)" />

<path d="M64,-325c0,0,-46,0,-107,14v148H-8l19,-81c0,0,25,-21,62,-21c0,0,44,0,67,47c0,0,22,47,22,152V649L57,668v33H286V-28c0,0,0,-146,-57,-221c0,0,-56,-76,-165,-76ZM213,850c0,0,-34,0,-58,24c0,0,-24,24,-24,56c0,0,0,34,24,58c0,0,24,24,58,24c0,0,32,0,56,-24c0,0,24,-24,24,-58c0,0,0,-32,-24,-56c0,0,-24,-24,-56,-24Z" 
id="f2_26"
transform="scale(0.001,-0.001)" />

<path d="M495,413c0,0,0,133,-34,190c0,0,-34,57,-105,57c0,0,-78,0,-119,-63c0,0,-42,-62,-42,-184ZM374,-14c0,0,-163,0,-239,87c0,0,-75,88,-75,283c0,0,0,183,77,273c0,0,76,91,219,91c0,0,269,0,269,-306V353H194V340c0,0,0,-103,23,-160c0,0,22,-57,70,-87c0,0,47,-29,124,-29c0,0,40,0,96,6c0,0,55,7,91,15V43C598,43,562,20,500,3c0,0,-61,-17,-126,-17Z" 
id="f2_21"
transform="scale(0.001,-0.001)" />

<path d="M399,-14c0,0,-341,0,-341,370c0,0,0,175,87,269c0,0,87,95,249,95c0,0,101,0,220,-23V501H573L541,625c0,0,-62,35,-149,35c0,0,-200,0,-200,-304c0,0,0,-158,61,-225c0,0,61,-67,189,-67c0,0,109,0,189,24V43C631,43,595,16,530,1c0,0,-64,-15,-131,-15Z" 
id="f2_1z"
transform="scale(0.001,-0.001)" />

<path d="M249,-14c0,0,-71,0,-107,42c0,0,-35,42,-35,119V639H15v33l93,29l76,159h47V701H391V639H231V161c0,0,0,-48,22,-73c0,0,22,-24,57,-24c0,0,44,0,106,12V26C416,26,389,8,340,-2c0,0,-49,-12,-91,-12Z" 
id="f2_2g"
transform="scale(0.001,-0.001)" />

<path d="M32,0V33L151,52V649L52,668v33H275V52L395,33V0ZM201,850c0,0,-32,0,-56,24c0,0,-24,24,-24,56c0,0,0,34,24,58c0,0,24,24,56,24c0,0,34,0,58,-24c0,0,24,-24,24,-58c0,0,0,-32,-24,-56c0,0,-24,-24,-58,-24Z" 
id="f2_25"
transform="scale(0.001,-0.001)" />

<path d="M360,-14L72,649L0,668v33H327V668L216,648L420,164L615,649L504,668v33H764V668L697,652L416,-14Z" 
id="f2_2i"
transform="scale(0.001,-0.001)" />

<path d="M64,0V34L168,59V639H47v36l121,29v49c0,0,0,155,61,239c0,0,62,84,173,84c0,0,58,0,107,-15V908H472l-33,92c0,0,-26,16,-62,16c0,0,-47,0,-66,-42c0,0,-19,-42,-19,-157V701H478V639H292V59L443,34V0Z" 
id="f2_22"
transform="scale(0.001,-0.001)" />

<path d="M289,-14c0,0,-179,0,-179,205V649L20,668v33H233V200c0,0,0,-128,120,-128c0,0,92,0,173,23V649L420,668v33H649V52L738,33V0H533l-6,57C527,57,474,28,405,7c0,0,-69,-21,-116,-21Z" 
id="f2_2h"
transform="scale(0.001,-0.001)" />

<path d="M439,0V33l93,19V500c0,0,0,62,-30,97c0,0,-31,36,-94,36c0,0,-67,0,-165,-22V52L338,33V0H35V33l84,19V649L35,668v33H235l7,-57c0,0,57,33,122,54c0,0,65,22,108,22c0,0,91,0,137,-53c0,0,47,-53,47,-154V52L741,33V0Z" 
id="f2_2a"
transform="scale(0.001,-0.001)" />

<path d="M377,45c0,0,99,0,147,73c0,0,47,73,47,237c0,0,0,161,-47,233c0,0,-47,72,-147,72c0,0,-97,0,-141,-69c0,0,-44,-69,-44,-236c0,0,0,-169,45,-240c0,0,44,-70,140,-70Zm0,-59c0,0,-158,0,-238,94c0,0,-81,95,-81,274c0,0,0,178,81,272c0,0,80,94,244,94c0,0,160,0,241,-92c0,0,82,-92,82,-274c0,0,0,-368,-329,-368Z" 
id="f2_2b"
transform="scale(0.001,-0.001)" />

<path d="M278,-14c0,0,-52,0,-115,11c0,0,-63,10,-99,23V193H98L134,95c0,0,56,-50,146,-50c0,0,144,0,144,123c0,0,0,91,-114,130l-66,21c0,0,-75,25,-110,50c0,0,-34,26,-53,63c0,0,-18,36,-18,89c0,0,0,92,63,145c0,0,63,54,170,54c0,0,77,0,193,-23V544H454l-32,81c0,0,-39,35,-124,35c0,0,-61,0,-92,-30c0,0,-32,-30,-32,-80c0,0,0,-43,29,-72c0,0,28,-29,86,-48c0,0,110,-38,144,-55c0,0,33,-17,57,-42c0,0,23,-25,36,-57c0,0,13,-32,13,-79c0,0,0,-104,-66,-158c0,0,-66,-53,-195,-53Z" 
id="f2_2f"
transform="scale(0.001,-0.001)" />

<path d="M211,-20c0,0,-39,0,-64,25c0,0,-26,27,-26,64c0,0,0,38,26,64c0,0,26,26,64,26c0,0,37,0,64,-25c0,0,26,-26,26,-65c0,0,0,-37,-26,-64c0,0,-26,-25,-64,-25Zm0,556c0,0,-38,0,-64,26c0,0,-26,26,-26,64c0,0,0,37,26,64c0,0,25,27,64,27c0,0,38,0,64,-27c0,0,26,-27,26,-64c0,0,0,-38,-26,-64c0,0,-27,-26,-64,-26Z" 
id="f2_u"
transform="scale(0.001,-0.001)" />

<path d="M370,468c0,0,96,0,194,40c0,0,0,229,-45,336c0,0,-45,107,-146,107c0,0,-187,0,-187,-259c0,0,0,-115,45,-169c0,0,45,-55,139,-55ZM312,-14c0,0,-122,0,-223,25V184h48L163,76c0,0,24,-11,65,-20c0,0,40,-9,81,-9c0,0,119,0,183,105c0,0,65,104,71,307c0,0,-113,-62,-230,-62c0,0,-132,0,-208,79c0,0,-76,78,-76,219c0,0,0,151,85,233c0,0,84,83,237,83c0,0,171,0,251,-123c0,0,79,-123,79,-385c0,0,0,-252,-102,-385C599,118,497,-14,312,-14Z" 
id="f2_t"
transform="scale(0.001,-0.001)" />

<path d="M134,0V40L339,60V876L137,804v39l292,166h39V60L672,40V0Z" 
id="f2_l"
transform="scale(0.001,-0.001)" />

<path d="M377,45c0,0,99,0,145,108c0,0,46,109,46,352c0,0,0,240,-45,345c0,0,-46,106,-146,106c0,0,-97,0,-139,-100c0,0,-43,-99,-43,-351c0,0,0,-254,44,-357c0,0,43,-103,138,-103Zm0,-59c0,0,-158,0,-238,132c0,0,-81,133,-81,386c0,0,0,249,81,380c0,0,80,132,244,132c0,0,159,0,241,-130c0,0,82,-130,82,-382c0,0,0,-518,-329,-518Z" 
id="f2_k"
transform="scale(0.001,-0.001)" />

<path d="M-6,0c0,0,-12,10,-12,32c0,0,0,21,23,51c0,0,23,31,79,82L287,354L159,649L79,668l6,33H270L378,434l93,88c0,0,47,46,67,72c0,0,19,26,19,44c0,0,0,8,-6,13c0,0,-7,6,-38,17l6,33H651c0,0,16,-12,16,-32c0,0,0,-44,-103,-142L404,377L548,49L634,33L628,0H437L313,298L185,176c0,0,-41,-40,-60,-65c0,0,-19,-26,-19,-48c0,0,0,-21,31,-29L131,0Z" 
id="f3_2k"
transform="scale(0.001,-0.001)" />

<path d="M19,0L31,70L677,936H527c0,0,-185,0,-255,-15L221,764H169l42,236H862L850,936L199,63H378c0,0,89,0,181,8c0,0,92,9,125,16l78,192h52L744,0Z" 
id="f3_1q"
transform="scale(0.001,-0.001)" />

<path d="M-15,-329c0,0,-61,0,-112,13l28,152h34l12,-72c0,0,18,-17,60,-17c0,0,100,0,212,202L253,9L116,649L33,668l6,33H230L338,155L513,458c0,0,48,83,48,144c0,0,0,27,-16,44c0,0,-15,16,-33,22l6,33H659c0,0,20,-17,20,-47c0,0,0,-59,-62,-164L322,-7c0,0,-86,-145,-135,-205c0,0,-50,-61,-98,-89c0,0,-49,-28,-104,-28Z" 
id="f3_2l"
transform="scale(0.001,-0.001)" />

<path d="M0,214v74H784V214ZM0,494v72H784V494Z" 
id="f4_x"
transform="scale(0.001,-0.001)" />

<path d="M355,0V355H0v72H355V784h72V427H782V355H427V0Z" 
id="f4_f"
transform="scale(0.001,-0.001)" />

<path d="M410,-14c0,0,-80,0,-162,14c0,0,-81,14,-144,38V270h48L178,134c0,0,28,-35,95,-62c0,0,68,-27,134,-27c0,0,104,0,163,53c0,0,58,54,58,148c0,0,0,54,-23,89c0,0,-22,35,-59,59c0,0,-37,24,-84,41c0,0,-47,17,-97,34c0,0,-49,17,-96,38c0,0,-47,21,-84,53c0,0,-37,32,-60,79c0,0,-23,48,-23,117c0,0,0,119,90,187c0,0,89,68,248,68c0,0,121,0,263,-32V771H654L628,893c0,0,-76,55,-188,55c0,0,-100,0,-156,-40c0,0,-56,-41,-56,-112c0,0,0,-49,22,-81c0,0,23,-32,60,-55c0,0,37,-22,84,-39c0,0,48,-16,97,-34c0,0,50,-17,97,-39c0,0,48,-22,85,-56c0,0,36,-34,59,-83c0,0,23,-49,23,-120c0,0,0,-145,-89,-224c0,0,-89,-79,-256,-79Z" 
id="f2_1j"
transform="scale(0.001,-0.001)" />

<path d="M31,0V33l88,19V649L31,668v33H235l7,-87c0,0,44,37,121,71c0,0,76,35,121,35h11V530H463l-43,82c0,0,-37,0,-88,-10c0,0,-52,-10,-89,-26V52L363,33V0Z" 
id="f2_2e"
transform="scale(0.001,-0.001)" />

<path d="M284,67c0,0,51,0,88,12c0,0,37,12,74,30V358l-98,-3c0,0,-100,-4,-135,-39c0,0,-35,-35,-35,-117c0,0,0,-132,106,-132ZM233,-14c0,0,-179,0,-179,208c0,0,0,70,27,116c0,0,27,46,87,70c0,0,60,24,173,27l105,3V519c0,0,0,72,-26,107c0,0,-27,34,-82,34c0,0,-75,0,-137,-35L176,538H134V691c0,0,121,26,213,26c0,0,115,0,169,-47c0,0,54,-47,54,-144V52L657,33V0H465L451,70c0,0,-85,-84,-218,-84Z" 
id="f2_1x"
transform="scale(0.001,-0.001)" />

<path d="M350,-14c0,0,-142,0,-253,31L89,228h49L172,87c0,0,32,-18,78,-29c0,0,46,-11,88,-11c0,0,118,0,173,56c0,0,56,55,56,187c0,0,0,93,-24,140c0,0,-24,47,-76,70c0,0,-52,22,-140,22c0,0,-68,0,-133,-18H122v496H630V886H189V567c0,0,81,18,173,18c0,0,173,0,258,-71c0,0,84,-71,84,-216c0,0,0,-151,-92,-232c0,0,-91,-80,-262,-80Z" 
id="f2_p"
transform="scale(0.001,-0.001)" />

<path d="M79,-234v58c0,0,132,42,132,125c0,0,0,15,-12,27c0,0,-12,12,-39,25c0,0,-50,25,-50,74c0,0,0,40,25,61c0,0,26,21,65,21c0,0,48,0,78,-33c0,0,29,-34,29,-87c0,0,0,-101,-59,-170c0,0,-59,-69,-169,-101ZM211,536c0,0,-38,0,-64,26c0,0,-26,26,-26,64c0,0,0,37,26,64c0,0,25,27,64,27c0,0,38,0,64,-27c0,0,26,-27,26,-64c0,0,0,-38,-26,-64c0,0,-27,-26,-64,-26Z" 
id="f2_v"
transform="scale(0.001,-0.001)" />

<path d="M67,0V109L206,235c0,0,133,118,196,190c0,0,63,72,90,149c0,0,27,77,27,177c0,0,0,97,-44,148c0,0,-44,50,-144,50c0,0,-39,0,-81,-10c0,0,-42,-11,-74,-29L150,787H101V980c0,0,135,32,230,32c0,0,164,0,247,-68c0,0,82,-69,82,-193c0,0,0,-84,-32,-158c0,0,-33,-75,-100,-148c0,0,-67,-74,-222,-206c0,0,-67,-57,-141,-125H680V0Z" 
id="f2_m"
transform="scale(0.001,-0.001)" />

<path d="M58,-234v58c0,0,131,42,131,125c0,0,0,15,-11,27c0,0,-11,12,-38,25C140,1,89,27,89,75c0,0,0,40,25,61c0,0,26,21,65,21c0,0,48,0,77,-34c0,0,30,-34,30,-86c0,0,0,-101,-60,-170c0,0,-59,-69,-168,-101Z" 
id="f2_g"
transform="scale(0.001,-0.001)" />

<path d="M460,-325c0,0,-148,79,-231,172c0,0,-84,93,-123,217c0,0,-39,126,-39,304c0,0,0,178,39,303c0,0,39,125,122,217c0,0,82,93,232,172V997c0,0,-91,-52,-145,-134c0,0,-54,-81,-79,-190c0,0,-25,-109,-25,-305c0,0,0,-194,26,-309c0,0,26,-114,82,-193c0,0,56,-79,141,-128v-63Z" 
id="f2_c"
transform="scale(0.001,-0.001)" />

<path d="M325,440l32,245L122,539L75,646l244,74L75,794l47,107L357,756l-32,244H442L407,756L643,898L691,793L443,720L691,647L643,542L407,682L442,440Z" 
id="f2_e"
transform="scale(0.001,-0.001)" />

<path d="M49,-325v63c0,0,85,49,140,128c0,0,56,79,83,194c0,0,26,115,26,308c0,0,0,196,-25,305c0,0,-25,109,-79,190c0,0,-54,82,-145,134v63c0,0,149,-80,232,-172c0,0,83,-92,122,-217c0,0,39,-125,39,-303c0,0,0,-177,-39,-303c0,0,-39,-125,-122,-217c0,0,-83,-93,-232,-173Z" 
id="f2_d"
transform="scale(0.001,-0.001)" />

<path d="M45,0V72H795V0Zm0,166v82L673,558L45,870v81L795,578V540L45,166Z" 
id="f4_39"
transform="scale(0.001,-0.001)" />

<path d="M577,-14c0,0,-243,0,-379,132C198,118,63,250,63,488c0,0,0,258,130,391c0,0,131,132,387,132c0,0,156,0,335,-38l5,-218H871L848,884c0,0,-52,32,-121,50c0,0,-69,17,-141,17c0,0,-191,0,-279,-112c0,0,-88,-113,-88,-349c0,0,0,-217,92,-332c0,0,92,-115,268,-115c0,0,85,0,160,20c0,0,76,21,120,55l27,149h49L930,32c0,0,-164,-46,-353,-46Z" 
id="f2_13"
transform="scale(0.001,-0.001)" />

<path d="M54,0V40L172,60V941L44,960v40H794V760H745L721,922c0,0,-83,11,-241,11H316V516H611l23,120h46V328H634L611,449H316V60L483,40V0Z" 
id="f2_16"
transform="scale(0.001,-0.001)" />

<path d="M359,-270c0,0,124,0,192,46c0,0,67,47,67,129c0,0,0,43,-26,67c0,0,-26,24,-79,24H242c0,0,-32,-27,-51,-69c0,0,-20,-41,-20,-77c0,0,0,-64,46,-92c0,0,46,-28,142,-28Zm11,561c0,0,81,0,115,47c0,0,34,47,34,141c0,0,0,100,-35,142c0,0,-35,42,-113,42c0,0,-78,0,-114,-43c0,0,-37,-42,-37,-141c0,0,0,-98,36,-143c0,0,36,-45,114,-45ZM359,-329c0,0,-143,0,-218,44c0,0,-75,43,-75,125c0,0,0,39,27,78c0,0,26,38,98,89c0,0,-43,14,-72,48c0,0,-29,35,-29,74L208,262c0,0,-118,55,-118,217c0,0,0,115,73,178c0,0,73,63,211,63c0,0,28,0,71,-6c0,0,44,-6,67,-13l165,83l26,-32L599,644c0,0,50,-56,50,-165c0,0,0,-120,-72,-182c0,0,-73,-62,-208,-62c0,0,-62,0,-114,11L208,148c0,0,2,-13,29,-24c0,0,27,-12,67,-12H512c0,0,113,0,168,-49c0,0,55,-49,55,-134c0,0,0,-79,-44,-137c0,0,-43,-58,-128,-90c0,0,-84,-31,-204,-31Z" 
id="f2_23"
transform="scale(0.001,-0.001)" />

<path d="M536,-22L130,941L17,960v40H421V960L287,941L590,205L892,941L761,960v40h325V960L976,941L574,-22Z" 
id="f2_1m"
transform="scale(0.001,-0.001)" />

<path d="M31,0V33L150,52v956L31,1026v34H274V52L394,33V0Z" 
id="f2_28"
transform="scale(0.001,-0.001)" />

<path d="M681,416L504,902L333,416ZM669,0V40L803,60L704,348H310L210,60L344,40V0H15V40L128,60l341,949H611L965,60L1092,40V0Z" 
id="f2_11"
transform="scale(0.001,-0.001)" />

<path d="M536,63c0,0,127,0,191,54c0,0,63,54,63,168c0,0,0,105,-70,154c0,0,-70,49,-225,49H316V67c0,0,103,-4,220,-4ZM480,555c0,0,121,0,178,48c0,0,57,48,57,155c0,0,0,91,-58,133c0,0,-57,42,-186,42H316V555ZM554,-4L235,0H44V40L172,60V941L44,960v40H501c0,0,191,0,279,-56c0,0,88,-56,88,-179c0,0,0,-88,-55,-149c0,0,-54,-62,-151,-83c0,0,135,-14,209,-79c0,0,73,-65,73,-166c0,0,0,-144,-99,-219C845,69,745,-4,554,-4Z" 
id="f2_12"
transform="scale(0.001,-0.001)" />

<path d="M383,64c0,0,85,0,152,28V645c0,0,-67,13,-152,13c0,0,-194,0,-194,-314c0,0,0,-141,48,-211c0,0,48,-69,146,-69ZM342,-14c0,0,-287,0,-287,358c0,0,0,184,82,280c0,0,81,96,239,96c0,0,81,0,163,-18c0,0,-4,25,-4,124v182l-118,18v34H659V52L745,33V0H548l-9,52c0,0,-84,-66,-197,-66Z" 
id="f2_20"
transform="scale(0.001,-0.001)" />

<path d="M529,65c0,0,183,0,270,108c0,0,87,108,87,334c0,0,0,210,-113,318c0,0,-113,108,-322,108H316V71c0,0,90,-6,213,-6Zm0,-67L172,0H44V40L172,60V941L44,960v40H498c0,0,277,0,411,-123c0,0,133,-124,133,-371c0,0,0,-251,-129,-380C913,126,785,-2,529,-2Z" 
id="f2_14"
transform="scale(0.001,-0.001)" />

<path d="M356,519c0,0,145,0,218,63c0,0,74,63,74,160c0,0,0,95,-60,154c0,0,-59,59,-157,59c0,0,-43,0,-117,-13V520c0,0,14,0,25,0c0,0,10,-1,17,-1ZM26,0V27H64c0,0,64,0,92,42c0,0,15,23,15,110V833c0,0,0,96,-21,119c0,0,-29,33,-86,33H26v27H395c0,0,161,0,238,-24c0,0,76,-23,129,-86c0,0,54,-63,54,-151c0,0,0,-93,-61,-162c0,0,-61,-68,-189,-97L775,202c0,0,72,-100,123,-133c0,0,52,-33,134,-42V0H762L419,473c0,0,-38,-1,-61,-1c0,0,-10,0,-21,0c0,0,-11,0,-23,1V179c0,0,0,-96,21,-119c0,0,28,-33,84,-33h40V0Z" 
id="f5_1i"
transform="scale(0.001,-0.001)" />

<path d="M479,469c0,0,-4,66,-16,93c0,0,-18,42,-55,65c0,0,-37,24,-78,24c0,0,-62,0,-111,-48c0,0,-48,-48,-57,-134ZM355,-20c0,0,-123,0,-211,95c0,0,-87,96,-87,258c0,0,0,175,90,273c0,0,89,98,225,98c0,0,115,0,189,-76c0,0,74,-75,74,-202H162c0,0,0,-152,74,-239c0,0,75,-86,175,-86c0,0,67,0,117,36c0,0,50,37,83,127l24,-15c0,0,-16,-102,-91,-186c0,0,-76,-83,-189,-83Z" 
id="f5_21"
transform="scale(0.001,-0.001)" />

<path d="M255,-10c0,0,-35,0,-68,18c0,0,-32,19,-48,55c0,0,-16,35,-16,109V632H15v24c0,0,41,16,84,56c0,0,43,39,77,92c0,0,17,29,48,104h23V683H407V632H247V188c0,0,0,-66,19,-90c0,0,19,-23,49,-23c0,0,24,0,47,16c0,0,23,15,36,45h29c0,0,-26,-73,-74,-110c0,0,-47,-36,-98,-36Z" 
id="f5_2g"
transform="scale(0.001,-0.001)" />

<path d="M292,-20c0,0,-57,0,-100,33c0,0,-42,33,-58,85c0,0,-17,52,-17,148V551c0,0,0,49,-10,68c0,0,-11,18,-31,29c0,0,-19,9,-68,9c-2,0,-4,0,-6,0v26H242V226c0,0,0,-95,33,-125c0,0,33,-30,80,-30c0,0,32,0,73,21c0,0,40,20,96,76V555c0,0,0,59,-21,80c0,0,-22,21,-89,22v26H647V269c0,0,0,-119,6,-145c0,0,6,-27,18,-37c0,0,12,-11,29,-11c0,0,23,0,52,13L763,63L558,-20H524V124C524,124,436,29,390,4c0,0,-47,-24,-98,-24Z" 
id="f5_2h"
transform="scale(0.001,-0.001)" />

<path d="M17,0V26c0,0,52,0,77,17c0,0,19,12,26,38c0,0,4,13,4,73V419c0,0,0,119,-5,142c0,0,-4,23,-17,33c0,0,-13,11,-33,11c0,0,-23,0,-52,-11l-7,26l207,83h31V549c0,0,86,154,176,154c0,0,41,0,68,-25c0,0,27,-25,27,-58c0,0,0,-29,-20,-49c0,0,-19,-20,-46,-20c0,0,-26,0,-58,25c0,0,-33,26,-48,26c0,0,-14,0,-29,-15c0,0,-34,-30,-70,-101V159c0,0,0,-56,15,-85c0,0,9,-20,34,-34c0,0,24,-14,71,-14V0Z" 
id="f5_2e"
transform="scale(0.001,-0.001)" />

<path d="M21,0V26H35c0,0,53,0,71,27c0,0,18,27,18,101V408c0,0,0,123,-5,150c0,0,-6,27,-17,37c0,0,-12,10,-31,10c0,0,-21,0,-50,-11L10,620l206,83h32V558c0,0,120,145,229,145c0,0,56,0,96,-28c0,0,40,-28,64,-92c0,0,16,-45,16,-137V154c0,0,0,-65,11,-88c0,0,8,-19,26,-29c0,0,18,-11,68,-11V0H419V26h14c0,0,47,0,66,15c0,0,20,15,27,43c0,0,3,11,3,70V434c0,0,0,93,-24,135c0,0,-24,42,-81,42c0,0,-88,0,-176,-97V154c0,0,0,-69,9,-86c0,0,10,-21,28,-31c0,0,19,-11,75,-11V0Z" 
id="f5_2a"
transform="scale(0.001,-0.001)" />

<path d="M55,0V26c0,0,50,0,67,10c0,0,17,10,27,32c0,0,10,23,10,86V418c0,0,0,111,-6,144c0,0,-6,24,-17,33c0,0,-11,10,-30,10c0,0,-21,0,-51,-11L45,620l206,83h33V154c0,0,0,-64,9,-85c0,0,9,-22,27,-32c0,0,19,-11,67,-11V0ZM222,909c0,0,-32,0,-54,23c0,0,-22,22,-22,53c0,0,0,32,22,54c0,0,22,22,54,22c0,0,31,0,53,-22c0,0,22,-22,22,-54c0,0,0,-31,-22,-53c0,0,-22,-23,-53,-23Z" 
id="f5_25"
transform="scale(0.001,-0.001)" />

<path d="M312,-20c0,0,-62,0,-143,22c0,0,-25,8,-40,8c0,0,-18,0,-27,-19H77V234h25c0,0,21,-105,80,-158c0,0,59,-53,132,-53c0,0,51,0,84,31c0,0,32,30,32,72c0,0,0,52,-36,87c0,0,-36,35,-144,88c0,0,-109,54,-142,97c0,0,-34,43,-34,107c0,0,0,85,58,141c0,0,58,57,150,57c0,0,40,0,97,-17c0,0,38,-11,51,-11c0,0,12,0,19,5c0,0,7,5,15,23h25V470H464c0,0,-28,110,-72,149c0,0,-45,40,-113,40c0,0,-53,0,-85,-28c0,0,-32,-27,-32,-61c0,0,0,-41,24,-71c0,0,23,-31,94,-65L389,381c0,0,152,-74,152,-194c0,0,0,-94,-71,-151c0,0,-70,-56,-158,-56Z" 
id="f5_2f"
transform="scale(0.001,-0.001)" />

<path d="M23,0V26c0,0,47,0,66,10c0,0,19,11,28,33c0,0,10,22,10,85V416c0,0,0,112,-7,145c0,0,-5,25,-16,34c0,0,-11,10,-31,10c0,0,-21,0,-50,-11L12,620l207,83h32V557c0,0,75,75,88,86c0,0,34,29,72,44c0,0,39,16,77,16c0,0,64,0,110,-37c0,0,47,-38,62,-109c0,0,77,90,130,118c0,0,53,28,109,28c0,0,54,0,96,-28c0,0,42,-28,67,-91c0,0,16,-43,16,-136V154c0,0,0,-64,10,-88c0,0,8,-16,28,-28c0,0,20,-12,65,-12V0H844V26h14c0,0,44,0,69,18c0,0,17,12,24,38c0,0,3,13,3,72V448c0,0,0,83,-20,117c0,0,-29,48,-93,48c0,0,-39,0,-79,-20c0,0,-40,-19,-97,-73l-1,-8l2,-32V154c0,0,0,-70,8,-87c0,0,7,-17,29,-29c0,0,21,-12,73,-12V0H431V26c0,0,57,0,78,14c0,0,21,13,29,40c0,0,4,13,4,74V448c0,0,0,83,-25,120c0,0,-33,48,-91,48c0,0,-40,0,-80,-22c0,0,-61,-33,-95,-74V154c0,0,0,-67,10,-87c0,0,9,-20,27,-30c0,0,18,-11,74,-11V0Z" 
id="f5_29"
transform="scale(0.001,-0.001)" />

<path d="M286,72c0,0,57,0,149,75V407c0,0,-113,-45,-145,-64c0,0,-59,-32,-85,-68c0,0,-25,-36,-25,-78c0,0,0,-54,32,-89c0,0,32,-36,74,-36ZM217,-13c0,0,-71,0,-116,48c0,0,-46,48,-46,127c0,0,0,50,22,87c0,0,31,50,106,95c0,0,76,45,252,109v26c0,0,0,102,-32,140c0,0,-32,38,-94,38c0,0,-47,0,-74,-25c0,0,-28,-25,-28,-58l1,-43c0,0,0,-34,-17,-53c0,0,-18,-18,-47,-18c0,0,-28,0,-45,19c0,0,-18,19,-18,53c0,0,0,64,66,117c0,0,65,54,184,54c0,0,91,0,149,-31c0,0,44,-23,65,-72c0,0,13,-32,13,-131V238c0,0,0,-98,4,-120c0,0,4,-22,12,-29c0,0,9,-8,20,-8c0,0,12,0,21,5c0,0,16,10,61,55V99C676,99,592,-12,516,-12c0,0,-37,0,-58,24c0,0,-22,26,-23,86C435,98,330,17,303,5c0,0,-40,-18,-86,-18Z" 
id="f5_1x"
transform="scale(0.001,-0.001)" />

<path d="M25,0V26c0,0,27,4,47,19c0,0,29,22,96,111L311,346L182,535c0,0,-55,81,-86,102c0,0,-30,20,-75,20v26H341V657c0,0,-30,0,-42,-10c0,0,-13,-11,-13,-28c0,0,0,-19,27,-56c0,0,8,-12,25,-37l48,-78l56,77c0,0,55,74,55,94c0,0,0,16,0,27c0,0,0,11,0,11v26H674V657c0,0,-37,-2,-64,-20c0,0,-37,-26,-100,-111L416,402L587,156c0,0,63,-91,89,-109c0,0,27,-18,70,-21V0H423V26c0,0,34,0,53,15c0,0,14,11,14,28c0,0,0,17,-48,87L341,302L232,157c0,0,-50,-69,-50,-82c0,0,0,-18,17,-32c0,0,17,-15,50,-17V0Z" 
id="f5_2k"
transform="scale(0.001,-0.001)" />

<path d="M336,-20L117,554c0,0,-21,55,-42,74c0,0,-21,19,-66,29v26H296V657c0,0,-40,-3,-52,-14c0,0,-13,-12,-13,-33c0,0,0,-23,13,-56L390,162L537,481L498,581c0,0,-18,46,-47,63c0,0,-17,11,-61,13v26H716V657c0,0,-54,-2,-77,-20c0,0,-15,-12,-15,-39c0,0,0,-15,6,-30L785,177L929,554c0,0,15,40,15,65c0,0,0,14,-15,25c0,0,-14,12,-57,13v26h216V657c0,0,-65,-10,-95,-89L764,-20H733L563,415L363,-20Z" 
id="f5_2j"
transform="scale(0.001,-0.001)" />

<path d="M20,0V26c0,0,45,0,71,15c0,0,15,7,24,28c0,0,9,21,9,85V773c0,0,0,117,-5,144c0,0,-6,27,-17,37c0,0,-12,9,-31,9c0,0,-16,0,-51,-12L10,978l204,83h34V561c0,0,83,91,131,116c0,0,49,26,97,26c0,0,58,0,100,-32c0,0,42,-32,62,-101c0,0,14,-47,14,-174V154c0,0,0,-65,11,-89c0,0,7,-18,25,-28c0,0,18,-11,66,-11V0H418V26h15c0,0,48,0,67,15c0,0,18,15,26,43c0,0,2,12,2,70V396c0,0,0,112,-12,147c0,0,-11,35,-36,53c0,0,-26,17,-61,17c0,0,-37,0,-76,-19c0,0,-40,-20,-95,-79V154c0,0,0,-70,8,-87c0,0,8,-17,29,-29c0,0,22,-12,74,-12V0Z" 
id="f5_24"
transform="scale(0.001,-0.001)" />

<path d="M517,0L98,427v72c0,0,37,0,76,4c0,0,38,4,74,13c0,0,36,10,68,26c0,0,32,16,56,39c0,0,24,23,38,55c0,0,13,32,13,75H75l45,71H414c0,0,-10,38,-32,68c0,0,-23,29,-53,50c0,0,-31,20,-69,30c0,0,-38,11,-79,11H75l45,71H707L662,941H444c0,0,47,-31,77,-71c0,0,30,-41,42,-88H707L662,711H570c0,0,-2,-52,-29,-97c0,0,-27,-46,-71,-82c0,0,-44,-36,-100,-60c0,0,-56,-24,-118,-33L682,0Z" 
id="f5_2n4"
transform="scale(0.001,-0.001)" />

<path d="M452,373V875L97,373ZM452,0V267H23v95l470,671h82V373H711V267H575V0Z" 
id="f5_o"
transform="scale(0.001,-0.001)" />

<path d="M379,29c0,0,41,0,84,37c0,0,43,36,65,121c0,0,34,128,34,362c0,0,0,173,-35,288c0,0,-27,86,-69,122c0,0,-31,25,-74,25c0,0,-51,0,-90,-46c0,0,-54,-62,-73,-195c0,0,-20,-132,-20,-261c0,0,0,-209,52,-341c0,0,42,-112,126,-112Zm-2,-46c0,0,-145,0,-241,170c0,0,-81,144,-81,347c0,0,0,173,52,298c0,0,52,125,139,186c0,0,67,49,139,49c0,0,116,0,208,-119c0,0,116,-147,116,-398c0,0,0,-176,-51,-299C658,217,608,94,529,38c0,0,-79,-55,-152,-55Z" 
id="f5_k"
transform="scale(0.001,-0.001)" />

<path d="M376,-20L133,556c0,0,-17,41,-31,58c0,0,-15,18,-39,30c0,0,-12,7,-50,13v26H335V657H314c0,0,-29,0,-44,-14c0,0,-16,-14,-15,-38c0,0,-1,-26,15,-62L429,165L588,557c0,0,17,42,17,64c0,0,0,10,-6,17c0,0,-8,11,-21,15c0,0,-13,4,-52,4v26H750V657c0,0,-39,-3,-54,-16c0,0,-26,-23,-47,-76L409,-20Z" 
id="f5_2i"
transform="scale(0.001,-0.001)" />

<path d="M399,62c0,0,68,0,131,68V481c0,0,-5,51,-27,93c0,0,-22,42,-59,63c0,0,-37,21,-72,21c0,0,-65,0,-117,-59c0,0,-67,-77,-67,-226c0,0,0,-151,65,-231c0,0,66,-80,146,-80ZM330,-20c0,0,-112,0,-196,93c0,0,-83,94,-83,240c0,0,0,147,92,269c0,0,93,122,238,122c0,0,90,0,149,-58V773c0,0,0,117,-6,144c0,0,-5,27,-17,37c0,0,-12,9,-30,9c0,0,-20,0,-52,-12l-9,27l204,83h33V270c0,0,0,-120,6,-146c0,0,5,-27,18,-37c0,0,12,-11,28,-11c0,0,21,0,54,13l9,-26L564,-20H530V78C530,78,480,25,432,2c0,0,-47,-22,-102,-22Z" 
id="f5_20"
transform="scale(0.001,-0.001)" />

<path d="M485,53c0,0,135,0,206,61c0,0,71,60,71,150c0,0,0,59,-32,114c0,0,-33,54,-105,85c0,0,-72,32,-179,32c0,0,-46,0,-79,-2c0,0,-33,-1,-53,-5V73c0,0,86,-20,171,-20ZM455,547c0,0,109,0,164,23c0,0,55,24,84,72c0,0,29,49,29,106c0,0,0,89,-72,151c0,0,-73,63,-212,63c0,0,-74,0,-134,-16V557c0,0,27,-5,63,-8c0,0,35,-2,78,-2ZM24,0V27H63c0,0,63,0,91,41c0,0,17,26,17,111V833c0,0,0,94,-22,119c0,0,-29,33,-86,33H24v27H462c0,0,122,0,196,-18c0,0,112,-27,171,-95c0,0,59,-68,59,-157c0,0,0,-76,-46,-136c0,0,-47,-60,-137,-89c0,0,105,-23,157,-72c0,0,73,-69,73,-168c0,0,0,-75,-48,-145C887,132,839,63,756,32C756,32,673,0,502,0Z" 
id="f5_12"
transform="scale(0.001,-0.001)" />

<path d="M406,32c0,0,72,0,119,60c0,0,47,59,47,205c0,0,0,181,-78,286c0,0,-53,71,-135,71c0,0,-40,0,-79,-23c0,0,-40,-24,-65,-83c0,0,-24,-58,-24,-151c0,0,0,-149,59,-257c0,0,59,-108,156,-108ZM374,-20c0,0,-154,0,-245,122c0,0,-77,104,-77,233c0,0,0,94,46,187c0,0,47,92,123,137c0,0,76,44,161,44c0,0,155,0,249,-118c0,0,80,-100,80,-231c0,0,0,-91,-44,-185C667,169,623,75,546,27c0,0,-77,-47,-172,-47Z" 
id="f5_2b"
transform="scale(0.001,-0.001)" />

<path d="M678,393L506,802L330,393ZM11,0V27c0,0,63,12,82,30c0,0,38,35,84,145l356,832h27L912,193c0,0,43,-101,77,-132c0,0,35,-30,97,-34V0H687V27c0,0,60,3,82,21c0,0,21,17,21,41c0,0,0,33,-30,104L700,338H307L239,179c0,0,-26,-59,-26,-88c0,0,0,-23,22,-41c0,0,22,-17,95,-23V0Z" 
id="f5_11"
transform="scale(0.001,-0.001)" />

<path d="M197,0V27c0,0,71,2,92,13c0,0,21,10,29,29c0,0,9,18,9,109V725c0,0,0,110,-8,141c0,0,-5,24,-19,35c0,0,-14,11,-33,11c0,0,-28,0,-77,-23l-11,23l246,121h25V178c0,0,0,-85,7,-106c0,0,7,-21,29,-32c0,0,23,-11,91,-13V0Z" 
id="f5_l"
transform="scale(0.001,-0.001)" />

<path d="M25,0V27H61c0,0,64,0,91,39c0,0,16,24,16,109V837c0,0,0,67,-15,97c0,0,-10,22,-38,36c0,0,-28,15,-90,15v27H312L678,220l363,792h285V985h-35c0,0,-64,0,-91,-39c0,0,-17,-24,-17,-109V175c0,0,0,-93,21,-116c0,0,28,-32,87,-32h35V0H898V27h36c0,0,64,0,90,39c0,0,17,24,17,109V852L649,0H625L234,852V175c0,0,0,-93,20,-116c0,0,27,-32,87,-32h35V0Z" 
id="f5_1d"
transform="scale(0.001,-0.001)" />

<path d="M379,437c0,0,34,0,81,16c0,0,47,17,83,47c0,0,14,97,14,155c0,0,0,72,-25,156c0,0,-25,83,-70,128c0,0,-45,45,-103,45c0,0,-66,0,-116,-60c0,0,-50,-59,-50,-177c0,0,0,-157,66,-246c0,0,49,-64,120,-64ZM80,-20V7c0,0,97,1,181,45c0,0,83,44,161,153c0,0,78,109,109,240c0,0,-117,-75,-212,-75c0,0,-107,0,-183,82c0,0,-76,82,-76,219c0,0,0,132,76,236c0,0,92,126,240,126c0,0,124,0,213,-103c0,0,109,-128,109,-315c0,0,0,-169,-82,-314C616,301,533,155,385,59c0,0,-120,-79,-262,-79Z" 
id="f5_t"
transform="scale(0.001,-0.001)" />

<path d="M442,0V33l93,19V504c0,0,0,129,-124,129c0,0,-70,0,-168,-22V52L338,33V0H31V33l88,19v956L15,1026v34H243V756c0,0,0,-77,-5,-112c0,0,54,31,122,53c0,0,68,23,115,23c0,0,91,0,137,-53c0,0,47,-53,47,-154V52L744,33V0Z" 
id="f2_24"
transform="scale(0.001,-0.001)" />

<path d="M431,0V33L535,52V499c0,0,0,62,-32,96c0,0,-32,33,-95,33c0,0,-66,0,-163,-22V52L350,33V0H32V33l89,19V649L32,668v33H237l6,-57c0,0,56,32,119,54c0,0,62,22,110,22c0,0,52,0,95,-20c0,0,44,-19,66,-62c0,0,57,32,134,57c0,0,77,25,128,25c0,0,179,0,179,-207V52l90,-19V0H846V33L950,52V499c0,0,0,129,-119,129c0,0,-19,0,-45,-3c0,0,-26,-3,-52,-7c0,0,-25,-4,-49,-8c0,0,-23,-5,-39,-8c0,0,13,-41,13,-89V52L764,33V0Z" 
id="f2_29"
transform="scale(0.001,-0.001)" />

<path d="M350,-14c0,0,-142,0,-269,31L73,228h49L156,87c0,0,29,-16,82,-28c0,0,54,-12,100,-12c0,0,117,0,173,54c0,0,56,53,56,178c0,0,0,99,-52,150c0,0,-51,51,-159,56l-107,6v61l107,7c0,0,84,5,124,52c0,0,41,48,41,145c0,0,0,101,-44,147c0,0,-44,45,-139,45c0,0,-40,0,-83,-10c0,0,-43,-11,-76,-29L153,786H104V979c0,0,74,19,127,26c0,0,54,6,107,6c0,0,321,0,321,-246c0,0,0,-104,-57,-165c0,0,-57,-62,-162,-77c0,0,136,-16,200,-78c0,0,64,-62,64,-173c0,0,0,-135,-92,-211c0,0,-93,-75,-262,-75Z" 
id="f2_n"
transform="scale(0.001,-0.001)" />

<path d="M148,-329c0,0,-58,0,-114,13v151H69l24,-71c0,0,23,-17,64,-17c0,0,39,0,72,22c0,0,33,23,60,67c0,0,27,44,68,157L90,649L19,668v33H344V668L233,648L423,158L606,649L497,668v33H758V668L685,652L411,-43c0,0,-48,-124,-84,-177c0,0,-36,-54,-79,-82c0,0,-44,-27,-100,-27Z" 
id="f2_2l"
transform="scale(0.001,-0.001)" />

<path d="M410,45c0,0,90,0,130,58c0,0,40,59,40,193c0,0,0,122,-38,177c0,0,-38,54,-122,54c0,0,-102,0,-217,-37c0,0,0,-227,51,-336c0,0,52,-109,156,-109Zm3,-59c0,0,-169,0,-258,131c0,0,-89,131,-89,377c0,0,0,161,47,278c0,0,47,117,131,178c0,0,85,61,196,61c0,0,109,0,217,-26V813H608L582,915c0,0,-25,13,-67,23c0,0,-41,10,-75,10c0,0,-109,0,-170,-105c0,0,-60,-106,-66,-308c0,0,121,63,244,63c0,0,132,0,201,-74c0,0,69,-74,69,-214c0,0,0,-156,-78,-240c0,0,-79,-84,-227,-84Z" 
id="f2_q"
transform="scale(0.001,-0.001)" />

<path d="M477,0V33l64,19L348,354L257,254V52L331,33V0H44V33l89,19v956L29,1026v34H257V338L544,647l-73,20v34H718V667L631,650L431,446L688,50L764,33V0Z" 
id="f2_27"
transform="scale(0.001,-0.001)" />

<path d="M382,45c0,0,188,0,188,314c0,0,0,143,-47,213c0,0,-46,69,-141,69c0,0,-87,0,-146,-24V58c0,0,67,-13,146,-13ZM25,-325v35l88,18V649L34,668v33H231l1,-41c0,0,31,27,84,43c0,0,53,17,107,17c0,0,134,0,208,-94c0,0,73,-93,73,-267c0,0,0,-178,-80,-276c0,0,-80,-97,-232,-97c0,0,-84,0,-160,16c0,0,4,-53,4,-84V-272l123,-18v-35Z" 
id="f2_2c"
transform="scale(0.001,-0.001)" />

<path d="M191,-20c0,0,-39,0,-65,25c0,0,-25,27,-25,64c0,0,0,38,26,64c0,0,26,26,64,26c0,0,38,0,64,-26c0,0,26,-26,26,-64c0,0,0,-37,-25,-64c0,0,-26,-25,-65,-25Z" 
id="f2_i"
transform="scale(0.001,-0.001)" />

<path d="M64,0V141c0,0,64,68,119,123c0,0,119,118,174,185c0,0,56,68,81,140c0,0,26,72,26,165c0,0,0,81,-40,131c0,0,-39,50,-105,50c0,0,-46,0,-74,-10c0,0,-27,-10,-50,-29L163,751H98V979c0,0,59,13,116,23c0,0,58,9,125,9c0,0,165,0,252,-68c0,0,88,-68,88,-193c0,0,0,-78,-26,-142c0,0,-26,-64,-83,-124c0,0,-56,-61,-224,-197c0,0,-64,-52,-139,-119H698V0Z" 
id="f6_m"
transform="scale(0.001,-0.001)" />

<path d="M404,60c0,0,54,0,75,59c0,0,21,59,21,177c0,0,0,106,-29,162c0,0,-29,57,-87,57c0,0,-55,0,-112,-17v-4c0,0,0,-434,132,-434Zm3,-74c0,0,-172,0,-263,130c0,0,-92,130,-92,378c0,0,0,161,48,278c0,0,48,117,135,178c0,0,87,61,199,61c0,0,117,0,225,-32V751H594L562,896c0,0,-52,39,-113,39c0,0,-75,0,-121,-95c0,0,-47,-96,-55,-267c0,0,81,35,161,35c0,0,137,0,211,-77c0,0,74,-77,74,-220c0,0,0,-158,-81,-242c0,0,-81,-83,-231,-83Z" 
id="f6_q"
transform="scale(0.001,-0.001)" />

<path d="M191,-20c0,0,-51,0,-88,34c0,0,-36,36,-36,88c0,0,0,52,36,88c0,0,36,36,88,36c0,0,51,0,88,-36c0,0,36,-36,36,-88c0,0,0,-51,-36,-87c0,0,-36,-35,-88,-35Z" 
id="f6_i"
transform="scale(0.001,-0.001)" />

<path d="M557,-14c0,0,-199,0,-298,89c0,0,-99,90,-99,255V941L32,960v40H432V960L304,941V341c0,0,0,-273,264,-273c0,0,144,0,220,68c0,0,77,68,77,202V941L730,960v40h341V960L943,941V344c0,0,0,-180,-99,-269c0,0,-99,-89,-287,-89Z" 
id="f2_1l"
transform="scale(0.001,-0.001)" />

<path d="M412,-328c0,0,-195,96,-303,284C109,-44,0,142,0,365c0,0,0,232,114,422c0,0,114,191,298,273v-31c0,0,-92,-51,-151,-139c0,0,-59,-88,-88,-223c0,0,-29,-136,-29,-282c0,0,0,-167,27,-301c0,0,26,-133,82,-221c0,0,55,-89,159,-159v-32Z" 
id="f4_c"
transform="scale(0.001,-0.001)" />

<path d="M34,-328v32c0,0,92,50,151,138c0,0,59,88,88,222c0,0,29,135,29,283c0,0,0,165,-27,300c0,0,-26,134,-82,222c0,0,-56,89,-159,160v31c0,0,194,-96,303,-284c0,0,108,-187,108,-410c0,0,0,-232,-114,-422c0,0,-114,-191,-297,-272Z" 
id="f4_d"
transform="scale(0.001,-0.001)" />

<path d="M-16,0l7,34L410,641H299c0,0,-42,0,-81,-7c0,0,-40,-7,-58,-19L119,514H84l34,187H574l-6,-36L149,60H296c0,0,42,0,81,9c0,0,40,9,66,26l57,109h35L481,0Z" 
id="f3_2m"
transform="scale(0.001,-0.001)" />

<path d="M595,60c0,0,141,0,206,102c0,0,65,102,65,340c0,0,0,236,-65,335c0,0,-65,100,-206,100c0,0,-142,0,-207,-100c0,0,-66,-99,-66,-335c0,0,0,-239,66,-340c0,0,65,-102,207,-102Zm0,-74c0,0,-253,0,-387,130C208,116,75,246,75,501c0,0,0,510,520,510c0,0,256,0,387,-129c0,0,132,-130,132,-381c0,0,0,-254,-133,-385C981,116,848,-14,595,-14Z" 
id="f6_1f"
transform="scale(0.001,-0.001)" />

<path d="M498,506c0,0,115,0,164,47c0,0,48,48,48,166c0,0,0,112,-46,156c0,0,-46,43,-169,43H390V506ZM793,0L514,423H390V74L518,54V0H36V54L154,74V926L26,945v55H504c0,0,221,0,330,-68c0,0,109,-68,109,-212c0,0,0,-215,-201,-276L1009,74L1117,54V0Z" 
id="f6_1i"
transform="scale(0.001,-0.001)" />

<path d="M55,0V40L184,60V941L55,960v40H455V960L327,941V60L455,40V0Z" 
id="f2_19"
transform="scale(0.001,-0.001)" />

<path d="M178,0L615,886H176L150,764H101v236H720V943L274,0Z" 
id="f2_r"
transform="scale(0.001,-0.001)" />

<path d="M631,416L539,902L283,416ZM576,0l8,40L691,60L643,348H249L96,60L197,40L189,0H-83l8,40L7,60l509,949H659L845,60L938,40L930,0Z" 
id="f3_11"
transform="scale(0.001,-0.001)" />

<path d="M44,0L223,1008l-101,18l6,34H356L228,338L547,647l-70,20l6,34H700l-5,-34L634,650L415,441L596,51L669,34L663,0H487L324,357L214,254L168,0Z" 
id="f3_27"
transform="scale(0.001,-0.001)" />

<path d="M-5,0L0,40L131,60L286,941L162,960l6,40H568l-6,-40L430,941L275,60L399,40L393,0Z" 
id="f3_19"
transform="scale(0.001,-0.001)" />

<path d="M62,-123V268c0,0,0,230,56,452c0,0,47,190,134,334c0,0,87,144,204,242c0,0,85,73,194,119l18,-16c0,0,-211,-145,-335,-339c0,0,-98,-156,-149,-374c0,0,-50,-218,-50,-403V-123Z" 
id="f4_4o"
transform="scale(0.001,-0.001)" />

<path d="M617,-123V283c0,0,0,236,-63,459c0,0,-63,223,-188,392c0,0,-108,146,-282,265l17,16c0,0,180,-76,320,-248c0,0,139,-172,204,-417c0,0,64,-245,64,-482V-123Z" 
id="f4_54"
transform="scale(0.001,-0.001)" />

<path d="M62,-123V1415h72V-123Z" 
id="f4_4p"
transform="scale(0.001,-0.001)" />

<path d="M617,-123V1415h72V-123Z" 
id="f4_55"
transform="scale(0.001,-0.001)" />

<path d="M0,356v74H784V356Z" 
id="f4_h"
transform="scale(0.001,-0.001)" />

<path d="M650,-123c0,0,-180,75,-319,246c0,0,-140,172,-205,418c0,0,-64,245,-64,481v393h72V1007c0,0,0,-236,63,-459c0,0,63,-223,189,-391c0,0,108,-145,282,-265l-18,-15Z" 
id="f4_4q"
transform="scale(0.001,-0.001)" />

<path d="M101,-123l-17,15c0,0,210,144,334,339c0,0,99,156,149,373c0,0,50,218,50,403v408h72V1022c0,0,0,-230,-56,-451c0,0,-48,-191,-134,-335C499,236,412,92,295,-5c0,0,-84,-73,-194,-118Z" 
id="f4_56"
transform="scale(0.001,-0.001)" />

<path d="M410,-14c0,0,-86,0,-175,14C235,0,145,14,81,38V307h66L181,146c0,0,31,-37,94,-62c0,0,64,-24,132,-24c0,0,214,0,214,177c0,0,0,55,-41,93c0,0,-41,38,-128,68c0,0,-128,42,-185,68c0,0,-56,27,-95,63c0,0,-38,36,-62,87c0,0,-23,51,-23,125c0,0,0,132,90,201c0,0,90,69,263,69c0,0,125,0,278,-32V741H651L618,878c0,0,-76,56,-178,56c0,0,-92,0,-141,-34c0,0,-49,-34,-49,-104c0,0,0,-50,41,-86c0,0,41,-35,128,-63c0,0,171,-56,235,-97c0,0,64,-41,97,-103c0,0,34,-61,34,-143c0,0,0,-318,-375,-318Z" 
id="f6_1j"
transform="scale(0.001,-0.001)" />

<path d="M379,60c0,0,59,0,84,64c0,0,24,65,24,231c0,0,0,164,-24,227c0,0,-24,63,-84,63c0,0,-57,0,-80,-60c0,0,-22,-61,-22,-230c0,0,0,-173,23,-234c0,0,22,-61,79,-61Zm-2,-74c0,0,-161,0,-240,91c0,0,-79,91,-79,277c0,0,0,186,80,276c0,0,81,90,245,90c0,0,167,0,245,-93c0,0,78,-93,78,-273c0,0,0,-188,-81,-278c0,0,-81,-90,-248,-90Z" 
id="f6_2b"
transform="scale(0.001,-0.001)" />

<path d="M30,0V49l76,18V992l-72,18v50H322V67L398,49V0Z" 
id="f6_28"
transform="scale(0.001,-0.001)" />

<path d="M287,-18c0,0,-194,0,-194,206V634L23,652v49H309V217c0,0,0,-63,26,-98c0,0,27,-35,76,-35c0,0,57,0,113,25V634l-64,18v49H740V67L809,49V0H536L526,61L475,35c0,0,-104,-53,-188,-53Z" 
id="f6_2h"
transform="scale(0.001,-0.001)" />

<path d="M327,-14c0,0,-101,0,-156,45c0,0,-55,45,-55,131V624H25v48l108,29l87,159H332V701H480V624H332V176c0,0,0,-49,20,-73c0,0,20,-25,53,-25c0,0,40,0,97,12V26c0,0,-22,-15,-76,-27c0,0,-55,-13,-99,-13Z" 
id="f6_2g"
transform="scale(0.001,-0.001)" />

<path d="M34,0V49l76,18V634L38,652v49H325V67L402,49V0ZM217,831c0,0,-48,0,-81,33c0,0,-34,33,-34,82c0,0,0,48,34,81c0,0,34,33,81,33c0,0,48,0,81,-33c0,0,33,-33,33,-81c0,0,0,-47,-33,-81c0,0,-32,-34,-81,-34Z" 
id="f6_25"
transform="scale(0.001,-0.001)" />

<path d="M41,0V49l69,18V634L41,652v49H313l11,-61l50,26c0,0,105,54,188,54c0,0,194,0,194,-207V67L827,49V0H478V49l63,18V484c0,0,0,63,-27,98c0,0,-26,35,-75,35c0,0,-57,0,-114,-25V67L389,49V0Z" 
id="f6_2a"
transform="scale(0.001,-0.001)" />

<path d="M248,-20c0,0,-52,0,-87,34c0,0,-36,36,-36,88c0,0,0,52,36,88c0,0,35,36,87,36c0,0,52,0,88,-36c0,0,36,-36,36,-88c0,0,0,-51,-36,-87c0,0,-35,-35,-88,-35Zm0,488c0,0,-52,0,-87,36c0,0,-36,36,-36,88c0,0,0,52,35,88c0,0,35,36,88,36c0,0,53,0,89,-36c0,0,35,-37,35,-88c0,0,0,-51,-36,-87c0,0,-35,-37,-88,-37Z" 
id="f6_u"
transform="scale(0.001,-0.001)" />


</defs>
</svg>