<?xml version="1.0" encoding="UTF-8" standalone="no"?>
<!DOCTYPE svg PUBLIC "-//W3C//DTD SVG 1.1//EN"
"http://www.w3.org/Graphics/SVG/1.1/DTD/svg11.dtd">
<svg viewBox="0 0 909 1286" version="1.1" xmlns="http://www.w3.org/2000/svg" xmlns:xlink="http://www.w3.org/1999/xlink">
<defs>
<clipPath id="c0_86"><path d="M464.8,173.6V126H603.2v47.6Z" /></clipPath>
<clipPath id="c1_86"><path d="M761.4,160.1V136.8h46.3v23.3Z" /></clipPath>
<clipPath id="c2_86"><path d="M230.8,248.8V200H438.2v48.8Z" /></clipPath>
<clipPath id="c3_86"><path d="M55.2,288.8V250.6H243.9v38.2Z" /></clipPath>
<clipPath id="c4_86"><path d="M293.1,341.9V290.6h84v51.3Z" /></clipPath>
<clipPath id="c5_86"><path d="M310.8,395.4V344.2h62.4v51.2Z" /></clipPath>
<clipPath id="c6_86"><path d="M55.2,507.6V445.8H286.6v61.8Z" /></clipPath>
<clipPath id="c7_86"><path d="M55.2,588.7V534.1H165.7v54.6Z" /></clipPath>
<clipPath id="c8_86"><path d="M55.2,641.8V590.5H246.4v51.3Z" /></clipPath>
<clipPath id="c9_86"><path d="M55.2,698.7V644.1H211.9v54.6Z" /></clipPath>
<clipPath id="c10_86"><path d="M55.2,751.8V700.5H173.6v51.3Z" /></clipPath>
<clipPath id="c11_86"><path d="M203.3,783V754.7H521.5V783Z" /></clipPath>
<clipPath id="c12_86"><path d="M216.5,813.4V785.1H348.9v28.3Z" /></clipPath>
<clipPath id="c13_86"><path d="M272.6,871.4v-32H734.3v32Z" /></clipPath>
<clipPath id="c14_86"><path d="M55.2,927.8V897.7H487.8v30.1Z" /></clipPath>
<clipPath id="c15_86"><path d="M261.3,959.8V929.5H389.7v30.3Z" /></clipPath>
<clipPath id="c16_86"><path d="M86.7,1048.1V961.9H216.9v86.2Z" /></clipPath>
<style type="text/css"><![CDATA[
.g0_86{
fill: #D9D9D9;
}
.g1_86{
fill: none;
stroke: #000000;
stroke-width: 0.7638889;
stroke-linecap: butt;
stroke-linejoin: miter;
}
.g2_86{
fill: none;
stroke: #000000;
stroke-width: 0.9018204;
stroke-linecap: butt;
stroke-linejoin: round;
}
.g3_86{
fill: none;
stroke: #000000;
stroke-width: 0.755902;
stroke-linecap: butt;
stroke-linejoin: round;
}
.g4_86{
fill: none;
stroke: #000000;
stroke-width: 0.37986127;
stroke-linecap: butt;
stroke-linejoin: round;
}
.g5_86{
fill: none;
stroke: #000000;
stroke-width: 0.78615606;
stroke-linecap: butt;
stroke-linejoin: round;
}
.g6_86{
fill: none;
stroke: #000000;
stroke-width: 0.7416416;
stroke-linecap: butt;
stroke-linejoin: round;
}
.g7_86{
fill: none;
stroke: #000000;
stroke-width: 0.4180559;
stroke-linecap: butt;
stroke-linejoin: round;
}
.g8_86{
fill: none;
stroke: #000000;
stroke-width: 0.7557554;
stroke-linecap: butt;
stroke-linejoin: round;
}
.g9_86{
fill: none;
stroke: #000000;
stroke-width: 0.75768274;
stroke-linecap: butt;
stroke-linejoin: round;
}
.g10_86{
fill: none;
stroke: #000000;
stroke-width: 0.75265694;
stroke-linecap: butt;
stroke-linejoin: round;
}
.g11_86{
fill: none;
stroke: #000000;
stroke-width: 0.75800395;
stroke-linecap: butt;
stroke-linejoin: round;
}
.g12_86{
fill: none;
stroke: #000000;
stroke-width: 0.7558837;
stroke-linecap: butt;
stroke-linejoin: round;
}
.g13_86{
}
]]></style>
</defs>
<image preserveAspectRatio="none" x="747" y="1196" width="96" height="59" xlink:href="img/1.png" />
<image preserveAspectRatio="none" x="336" y="41" width="259" height="51" xlink:href="img/2.png" />
<image preserveAspectRatio="none" x="342" y="50" width="247" height="27" xlink:href="img/3.png" />
<image preserveAspectRatio="none" x="341" y="45" width="239" height="42" xlink:href="img/4.png" />
<g fill="#FFFFFF" >
<use xlink:href="#f0_j" transform="matrix(11.5,0,0,11.5,355.1,70.1)" />
<use xlink:href="#f0_i" transform="matrix(11.5,0,0,11.5,364.3,70.1)" />
<use xlink:href="#f0_2n" transform="matrix(11.5,0,0,11.5,374.1,70.1)" />
<use xlink:href="#f0_t" transform="matrix(11.5,0,0,11.5,382.6,70.1)" />
<use xlink:href="#f0_oj" transform="matrix(11.5,0,0,11.5,391,70.1)" />
<use xlink:href="#f0_3e" transform="matrix(11.5,0,0,11.5,396.5,70.1)" />
<use xlink:href="#f0_1c" transform="matrix(11.5,0,0,11.5,406.1,70.1)" />
<use xlink:href="#f0_1c" transform="matrix(11.5,0,0,11.5,410.8,70.1)" />
<use xlink:href="#f0_oj" transform="matrix(11.5,0,0,11.5,415.6,70.1)" />
<use xlink:href="#f0_rz" transform="matrix(11.5,0,0,11.5,421.1,70.1)" />
<use xlink:href="#f0_rx" transform="matrix(11.5,0,0,11.5,429.9,70.1)" />
<use xlink:href="#f0_ry" transform="matrix(11.5,0,0,11.5,438.7,70.1)" />
<use xlink:href="#f0_s3" transform="matrix(11.5,0,0,11.5,447.5,70.1)" />
<use xlink:href="#f0_t" transform="matrix(11.5,0,0,11.5,460.4,70.1)" />
<use xlink:href="#f0_3e" transform="matrix(11.5,0,0,11.5,468.8,70.1)" />
<use xlink:href="#f0_5" transform="matrix(11.5,0,0,11.5,478.3,70.1)" />
<use xlink:href="#f0_1x" transform="matrix(11.5,0,0,11.5,489,70.1)" />
<use xlink:href="#f0_1c" transform="matrix(11.5,0,0,11.5,504.4,70.1)" />
<use xlink:href="#f0_1y" transform="matrix(11.5,0,0,11.5,509.1,70.1)" />
<use xlink:href="#f0_5" transform="matrix(11.5,0,0,11.5,520.8,70.1)" />
<use xlink:href="#f0_2t" transform="matrix(11.5,0,0,11.5,531.5,70.1)" />
<use xlink:href="#f0_1c" transform="matrix(11.5,0,0,11.5,540.2,70.1)" />
<use xlink:href="#f0_24" transform="matrix(11.5,0,0,11.5,545,70.1)" />
<use xlink:href="#f0_1y" transform="matrix(11.5,0,0,11.5,556.7,70.1)" />
</g>
<image preserveAspectRatio="none" x="554" y="45" width="36" height="42" xlink:href="img/5.png" />
<g fill="#FFFFFF" >
<use xlink:href="#f1_q" transform="matrix(11,0,0,11,770.3,1227.6)" />
<use xlink:href="#f1_j" transform="matrix(11,0,0,11,783.5,1227.6)" />
<use xlink:href="#f1_l" transform="matrix(11,0,0,11,794.1,1227.6)" />
<use xlink:href="#f1_n" transform="matrix(11,0,0,11,802.9,1227.6)" />
</g>
<path fill-rule="evenodd" d="M52.8,1193.5H856.9v-.8H52.8v.8Z" class="g0_86" />
<path d="M37.9,99.4L873,98.5" class="g1_86" />
<g fill="#000000" >
<use xlink:href="#f2_l" transform="matrix(12,0,0,12,55,155.1)" />
<use xlink:href="#f2_p" transform="matrix(12,0,0,12,64.2,155.1)" />
<use xlink:href="#f2_i" transform="matrix(12,0,0,12,73.4,155.1)" />
<use xlink:href="#f3_16" transform="matrix(12,0,0,12,82.9,155.1)" />
<use xlink:href="#f3_25" transform="matrix(12,0,0,12,93.2,155.1)" />
<use xlink:href="#f3_2a" transform="matrix(12,0,0,12,97.9,155.1)" />
<use xlink:href="#f3_20" transform="matrix(12,0,0,12,106.7,155.1)" />
<use xlink:href="#f3_2g" transform="matrix(12,0,0,12,120.6,155.1)" />
<use xlink:href="#f3_24" transform="matrix(12,0,0,12,126.1,155.1)" />
<use xlink:href="#f3_21" transform="matrix(12,0,0,12,134.9,155.1)" />
<use xlink:href="#f3_2c" transform="matrix(12,0,0,12,147.7,155.1)" />
<use xlink:href="#f3_1x" transform="matrix(12,0,0,12,156.9,155.1)" />
<use xlink:href="#f3_2e" transform="matrix(12,0,0,12,165,155.1)" />
<use xlink:href="#f3_2g" transform="matrix(12,0,0,12,170.8,155.1)" />
<use xlink:href="#f3_25" transform="matrix(12,0,0,12,176.3,155.1)" />
<use xlink:href="#f3_1z" transform="matrix(12,0,0,12,181.1,155.1)" />
<use xlink:href="#f3_2h" transform="matrix(12,0,0,12,189.1,155.1)" />
<use xlink:href="#f3_28" transform="matrix(12,0,0,12,198.7,155.1)" />
<use xlink:href="#f3_1x" transform="matrix(12,0,0,12,203.4,155.1)" />
<use xlink:href="#f3_2e" transform="matrix(12,0,0,12,211.5,155.1)" />
<use xlink:href="#f3_2f" transform="matrix(12,0,0,12,222.5,155.1)" />
<use xlink:href="#f3_2b" transform="matrix(12,0,0,12,229.4,155.1)" />
<use xlink:href="#f3_28" transform="matrix(12,0,0,12,238.9,155.1)" />
<use xlink:href="#f3_2h" transform="matrix(12,0,0,12,243.3,155.1)" />
<use xlink:href="#f3_2g" transform="matrix(12,0,0,12,252.5,155.1)" />
<use xlink:href="#f3_25" transform="matrix(12,0,0,12,258.4,155.1)" />
<use xlink:href="#f3_2b" transform="matrix(12,0,0,12,262.8,155.1)" />
<use xlink:href="#f3_2a" transform="matrix(12,0,0,12,272.3,155.1)" />
<use xlink:href="#f3_2b" transform="matrix(12,0,0,12,285.8,155.1)" />
<use xlink:href="#f3_22" transform="matrix(12,0,0,12,295.3,155.1)" />
<use xlink:href="#f3_20" transform="matrix(12,0,0,12,305.6,155.1)" />
<use xlink:href="#f3_25" transform="matrix(12,0,0,12,315.1,155.1)" />
<use xlink:href="#f3_22" transform="matrix(12,0,0,12,319.9,155.1)" />
<use xlink:href="#f3_22" transform="matrix(12,0,0,12,326.1,155.1)" />
<use xlink:href="#f3_21" transform="matrix(12,0,0,12,331.9,155.1)" />
<use xlink:href="#f3_2e" transform="matrix(12,0,0,12,340,155.1)" />
<use xlink:href="#f3_21" transform="matrix(12,0,0,12,346.2,155.1)" />
<use xlink:href="#f3_2a" transform="matrix(12,0,0,12,354.6,155.1)" />
<use xlink:href="#f3_2g" transform="matrix(12,0,0,12,363.4,155.1)" />
<use xlink:href="#f3_25" transform="matrix(12,0,0,12,368.9,155.1)" />
<use xlink:href="#f3_1x" transform="matrix(12,0,0,12,373.7,155.1)" />
<use xlink:href="#f3_28" transform="matrix(12,0,0,12,382.1,155.1)" />
<use xlink:href="#f3_21" transform="matrix(12,0,0,12,391.3,155.1)" />
<use xlink:href="#f3_2d" transform="matrix(12,0,0,12,399.3,155.1)" />
<use xlink:href="#f3_2h" transform="matrix(12,0,0,12,408.5,155.1)" />
<use xlink:href="#f3_1x" transform="matrix(12,0,0,12,417.7,155.1)" />
<use xlink:href="#f3_2g" transform="matrix(12,0,0,12,426.1,155.1)" />
<use xlink:href="#f3_25" transform="matrix(12,0,0,12,431.5,155.1)" />
<use xlink:href="#f3_2b" transform="matrix(12,0,0,12,435.9,155.1)" />
<use xlink:href="#f3_2a" transform="matrix(12,0,0,12,445.5,155.1)" />
<use xlink:href="#f3_u" transform="matrix(12,0,0,12,454.3,155.1)" />
</g>
<path d="M467.8,151.3h19.8m32,0h78" class="g2_86" />
<g clip-path="url(#c0_86)">
<g fill="#000000" >
<use xlink:href="#f3_1z" transform="matrix(12.6,0,0,12.1,560.7,144.4)" />
<use xlink:href="#f3_2b" transform="matrix(12.6,0,0,12.1,568.8,144.4)" />
<use xlink:href="#f3_2f" transform="matrix(12.6,0,0,12.1,577.9,144.4)" />
<use xlink:href="#f3_l" transform="matrix(12.6,0,0,12.1,529.1,170)" />
<use xlink:href="#f3_2f" transform="matrix(12.6,0,0,12.1,552.6,170)" />
<use xlink:href="#f3_25" transform="matrix(12.6,0,0,12.1,559.7,170)" />
<use xlink:href="#f3_2a" transform="matrix(12.6,0,0,12.1,564.9,170)" />
<use xlink:href="#f4_20" transform="matrix(12.6,0,0,12.1,469,144.4)" />
<use xlink:href="#f4_2l" transform="matrix(12.6,0,0,12.1,478.1,144.4)" />
<use xlink:href="#f4_2k" transform="matrix(12.6,0,0,12.1,521.6,144.4)" />
<use xlink:href="#f4_2l" transform="matrix(12.6,0,0,12.1,548.2,144.4)" />
<use xlink:href="#f4_2k" transform="matrix(12.6,0,0,12.1,588.5,144.4)" />
<use xlink:href="#f4_20" transform="matrix(12.6,0,0,12.1,469.1,170)" />
<use xlink:href="#f4_2k" transform="matrix(12.6,0,0,12.1,478.2,170)" />
<use xlink:href="#f4_2k" transform="matrix(12.6,0,0,12.1,578,170)" />
<use xlink:href="#f5_f" transform="matrix(12.6,0,0,12.1,533,144.4)" />
<use xlink:href="#f5_x" transform="matrix(12.6,0,0,12.1,492.4,155.8)" />
<use xlink:href="#f5_h" transform="matrix(12.6,0,0,12.1,506.7,155.8)" />
<use xlink:href="#f5_f" transform="matrix(12.6,0,0,12.1,539.7,170)" />
</g>
</g>
<g fill="#000000" >
<use xlink:href="#f3_23" transform="matrix(12,0,0,12,606.7,155.1)" />
<use xlink:href="#f3_25" transform="matrix(12,0,0,12,616.2,155.1)" />
<use xlink:href="#f3_2i" transform="matrix(12,0,0,12,621,155.1)" />
<use xlink:href="#f3_21" transform="matrix(12,0,0,12,629.8,155.1)" />
<use xlink:href="#f3_2a" transform="matrix(12,0,0,12,638.2,155.1)" />
<use xlink:href="#f3_2g" transform="matrix(12,0,0,12,651.7,155.1)" />
<use xlink:href="#f3_24" transform="matrix(12,0,0,12,657.2,155.1)" />
<use xlink:href="#f3_1x" transform="matrix(12,0,0,12,666,155.1)" />
<use xlink:href="#f3_2g" transform="matrix(12,0,0,12,674.1,155.1)" />
<use xlink:href="#f3_2l" transform="matrix(12,0,0,12,684.3,155.1)" />
<use xlink:href="#f3_x" transform="matrix(12,0,0,12,692.7,155.1)" />
<use xlink:href="#f3_l" transform="matrix(12,0,0,12,703,155.1)" />
<use xlink:href="#f3_2j" transform="matrix(12,0,0,12,716.9,155.1)" />
<use xlink:href="#f3_24" transform="matrix(12,0,0,12,730.2,155.1)" />
<use xlink:href="#f3_21" transform="matrix(12,0,0,12,739.3,155.1)" />
<use xlink:href="#f3_2a" transform="matrix(12,0,0,12,747.7,155.1)" />
</g>
<g clip-path="url(#c1_86)">
<g fill="#000000" >
<use xlink:href="#f3_k" transform="matrix(13,0,0,12.7,791.4,155.5)" />
<use xlink:href="#f3_i" transform="matrix(13,0,0,12.7,800.5,155.5)" />
<use xlink:href="#f4_2k" transform="matrix(13,0,0,12.7,765,155.5)" />
<use xlink:href="#f5_x" transform="matrix(13,0,0,12.7,777.5,155.5)" />
</g>
</g>
<g fill="#000000" >
<use xlink:href="#f2_1j" transform="matrix(12,0,0,12,55,193.6)" />
<use xlink:href="#f2_2b" transform="matrix(12,0,0,12,65.3,193.6)" />
<use xlink:href="#f2_28" transform="matrix(12,0,0,12,74.5,193.6)" />
<use xlink:href="#f2_2h" transform="matrix(12,0,0,12,79.2,193.6)" />
<use xlink:href="#f2_2g" transform="matrix(12,0,0,12,89.5,193.6)" />
<use xlink:href="#f2_25" transform="matrix(12,0,0,12,95.7,193.6)" />
<use xlink:href="#f2_2b" transform="matrix(12,0,0,12,100.8,193.6)" />
<use xlink:href="#f2_2a" transform="matrix(12,0,0,12,109.9,193.6)" />
<use xlink:href="#f2_u" transform="matrix(12,0,0,12,120.2,193.6)" />
<use xlink:href="#f3_1n" transform="matrix(12,0,0,12,55,230.3)" />
<use xlink:href="#f3_2e" transform="matrix(12,0,0,12,71.9,230.3)" />
<use xlink:href="#f3_25" transform="matrix(12,0,0,12,78.5,230.3)" />
<use xlink:href="#f3_2g" transform="matrix(12,0,0,12,82.9,230.3)" />
<use xlink:href="#f3_25" transform="matrix(12,0,0,12,88.7,230.3)" />
<use xlink:href="#f3_2a" transform="matrix(12,0,0,12,93.5,230.3)" />
<use xlink:href="#f3_23" transform="matrix(12,0,0,12,102.3,230.3)" />
<use xlink:href="#f3_28" transform="matrix(12,0,0,12,116.6,230.3)" />
<use xlink:href="#f3_25" transform="matrix(12,0,0,12,121.7,230.3)" />
<use xlink:href="#f3_2a" transform="matrix(12,0,0,12,126.5,230.3)" />
<use xlink:href="#f3_21" transform="matrix(12,0,0,12,135.6,230.3)" />
<use xlink:href="#f3_1x" transform="matrix(12,0,0,12,143.7,230.3)" />
<use xlink:href="#f3_2e" transform="matrix(12,0,0,12,151.8,230.3)" />
<use xlink:href="#f3_21" transform="matrix(12,0,0,12,162.7,230.3)" />
<use xlink:href="#f3_2d" transform="matrix(12,0,0,12,170.8,230.3)" />
<use xlink:href="#f3_2h" transform="matrix(12,0,0,12,180,230.3)" />
<use xlink:href="#f3_1x" transform="matrix(12,0,0,12,189.1,230.3)" />
<use xlink:href="#f3_2g" transform="matrix(12,0,0,12,197.2,230.3)" />
<use xlink:href="#f3_25" transform="matrix(12,0,0,12,202.7,230.3)" />
<use xlink:href="#f3_2b" transform="matrix(12,0,0,12,207.1,230.3)" />
<use xlink:href="#f3_2a" transform="matrix(12,0,0,12,216.6,230.3)" />
</g>
<path d="M233.9,225.9h19.9m18.7,0h58.2m44.6,0h58.3" class="g3_86" />
<g clip-path="url(#c2_86)">
<g fill="#000000" >
<use xlink:href="#f3_1z" transform="matrix(12.7,0,0,12.4,283.7,219)" />
<use xlink:href="#f3_2b" transform="matrix(12.7,0,0,12.4,291.7,219)" />
<use xlink:href="#f3_2f" transform="matrix(12.7,0,0,12.4,300.9,219)" />
<use xlink:href="#f3_l" transform="matrix(12.7,0,0,12.4,271.7,244.9)" />
<use xlink:href="#f3_2f" transform="matrix(12.7,0,0,12.4,296.3,244.9)" />
<use xlink:href="#f3_25" transform="matrix(12.7,0,0,12.4,303.5,244.9)" />
<use xlink:href="#f3_2a" transform="matrix(12.7,0,0,12.4,308.6,244.9)" />
<use xlink:href="#f3_l" transform="matrix(12.7,0,0,12.4,374.5,244.9)" />
<use xlink:href="#f3_2f" transform="matrix(12.7,0,0,12.4,399.1,244.9)" />
<use xlink:href="#f3_25" transform="matrix(12.7,0,0,12.4,406.3,244.9)" />
<use xlink:href="#f3_2a" transform="matrix(12.7,0,0,12.4,411.5,244.9)" />
<use xlink:href="#f4_20" transform="matrix(12.7,0,0,12.4,235.1,219)" />
<use xlink:href="#f4_2l" transform="matrix(12.7,0,0,12.4,244.3,219)" />
<use xlink:href="#f4_2k" transform="matrix(12.7,0,0,12.4,311.1,219)" />
<use xlink:href="#f4_2k" transform="matrix(12.7,0,0,12.4,400.9,219)" />
<use xlink:href="#f4_2l" transform="matrix(12.7,0,0,12.4,335.2,230.6)" />
<use xlink:href="#f4_20" transform="matrix(12.7,0,0,12.4,235.3,244.9)" />
<use xlink:href="#f4_2k" transform="matrix(12.7,0,0,12.4,244.5,244.9)" />
<use xlink:href="#f4_2k" transform="matrix(12.7,0,0,12.4,321.5,244.9)" />
<use xlink:href="#f4_2k" transform="matrix(12.7,0,0,12.4,424.3,244.9)" />
<use xlink:href="#f5_f" transform="matrix(12.7,0,0,12.4,258.1,230.6)" />
<use xlink:href="#f5_x" transform="matrix(12.7,0,0,12.4,348.2,230.6)" />
<use xlink:href="#f5_h" transform="matrix(12.7,0,0,12.4,362.7,230.6)" />
<use xlink:href="#f5_f" transform="matrix(12.7,0,0,12.4,282.8,244.9)" />
<use xlink:href="#f5_f" transform="matrix(12.7,0,0,12.4,385.7,244.9)" />
</g>
</g>
<path d="M118.3,267.3h32.2" class="g4_86" />
<g clip-path="url(#c3_86)">
<g fill="#000000" >
<use xlink:href="#f3_1z" transform="matrix(7.5,0,0,7.3,123.7,263.2)" />
<use xlink:href="#f3_2b" transform="matrix(7.5,0,0,7.3,128.4,263.2)" />
<use xlink:href="#f3_2f" transform="matrix(7.5,0,0,7.3,133.7,263.2)" />
<use xlink:href="#f3_l" transform="matrix(7.5,0,0,7.3,117.8,278.6)" />
<use xlink:href="#f3_2f" transform="matrix(7.5,0,0,7.3,130,278.6)" />
<use xlink:href="#f3_25" transform="matrix(7.5,0,0,7.3,134.1,278.6)" />
<use xlink:href="#f3_2a" transform="matrix(7.5,0,0,7.3,137.2,278.6)" />
<use xlink:href="#f3_i" transform="matrix(12.9,0,0,12.4,66,284.4)" />
<use xlink:href="#f3_l" transform="matrix(12.9,0,0,12.4,181.6,284.4)" />
<use xlink:href="#f3_2f" transform="matrix(12.9,0,0,12.4,206.3,284.4)" />
<use xlink:href="#f3_25" transform="matrix(12.9,0,0,12.4,213.4,284.4)" />
<use xlink:href="#f3_2a" transform="matrix(12.9,0,0,12.4,218.6,284.4)" />
<use xlink:href="#f4_2k" transform="matrix(7.5,0,0,7.3,140.2,263.2)" />
<use xlink:href="#f4_20" transform="matrix(7.5,0,0,7.3,152.6,270.1)" />
<use xlink:href="#f4_2k" transform="matrix(7.5,0,0,7.3,158,270.1)" />
<use xlink:href="#f4_2k" transform="matrix(7.5,0,0,7.3,145.1,278.6)" />
<use xlink:href="#f4_19" transform="matrix(12.9,0,0,12.4,58.5,284.4)" />
<use xlink:href="#f4_16" transform="matrix(12.9,0,0,12.4,70.5,284.4)" />
<use xlink:href="#f4_21" transform="matrix(12.9,0,0,12.4,102.2,284.4)" />
<use xlink:href="#f4_2k" transform="matrix(12.9,0,0,12.4,231.3,284.4)" />
<use xlink:href="#f5_f" transform="matrix(7.5,0,0,7.3,123.2,278.6)" />
<use xlink:href="#f5_50" transform="matrix(12.9,0,0,12.4,111.1,274.9)" />
<use xlink:href="#f5_x" transform="matrix(12.9,0,0,12.4,88,284.4)" />
<use xlink:href="#f5_x" transform="matrix(12.9,0,0,12.4,169.1,284.4)" />
<use xlink:href="#f5_f" transform="matrix(12.9,0,0,12.4,192.8,284.4)" />
</g>
</g>
<g fill="#000000" >
<use xlink:href="#f3_17" transform="matrix(12,0,0,12,55,323.5)" />
<use xlink:href="#f3_21" transform="matrix(12,0,0,12,68.3,323.5)" />
<use xlink:href="#f3_2a" transform="matrix(12,0,0,12,76.3,323.5)" />
<use xlink:href="#f3_21" transform="matrix(12,0,0,12,85.1,323.5)" />
<use xlink:href="#f3_2e" transform="matrix(12,0,0,12,93.2,323.5)" />
<use xlink:href="#f3_1x" transform="matrix(12,0,0,12,99.4,323.5)" />
<use xlink:href="#f3_28" transform="matrix(12,0,0,12,107.8,323.5)" />
<use xlink:href="#f3_2f" transform="matrix(12,0,0,12,117.3,323.5)" />
<use xlink:href="#f3_2b" transform="matrix(12,0,0,12,124.3,323.5)" />
<use xlink:href="#f3_28" transform="matrix(12,0,0,12,134.2,323.5)" />
<use xlink:href="#f3_2h" transform="matrix(12,0,0,12,138.6,323.5)" />
<use xlink:href="#f3_2g" transform="matrix(12,0,0,12,147.7,323.5)" />
<use xlink:href="#f3_25" transform="matrix(12,0,0,12,153.6,323.5)" />
<use xlink:href="#f3_2b" transform="matrix(12,0,0,12,158,323.5)" />
<use xlink:href="#f3_2a" transform="matrix(12,0,0,12,167.5,323.5)" />
<use xlink:href="#f3_25" transform="matrix(12,0,0,12,181.4,323.5)" />
<use xlink:href="#f3_2f" transform="matrix(12,0,0,12,186.2,323.5)" />
<use xlink:href="#f3_u" transform="matrix(12,0,0,12,193.1,323.5)" />
<use xlink:href="#f3_2l" transform="matrix(12,0,0,12,203.4,323.5)" />
<use xlink:href="#f3_c" transform="matrix(12,0,0,12,211.8,323.5)" />
<use xlink:href="#f3_l" transform="matrix(12,0,0,12,218,323.5)" />
<use xlink:href="#f3_f" transform="matrix(12,0,0,12,232,323.5)" />
<use xlink:href="#f3_2f" transform="matrix(12,0,0,12,247,323.5)" />
<use xlink:href="#f3_25" transform="matrix(12,0,0,12,254.3,323.5)" />
<use xlink:href="#f3_2a" transform="matrix(12,0,0,12,259.1,323.5)" />
<use xlink:href="#f3_2k" transform="matrix(12,0,0,12,273,323.5)" />
<use xlink:href="#f3_d" transform="matrix(12,0,0,12,281.8,323.5)" />
</g>
<path d="M323.2,319.3h19.2" class="g5_86" />
<g clip-path="url(#c4_86)">
<g fill="#000000" >
<use xlink:href="#f3_m" transform="matrix(7.3,0,0,7.1,334.4,304.3)" />
<use xlink:href="#f3_m" transform="matrix(12.5,0,0,12.2,328.5,338.1)" />
<use xlink:href="#f4_2k" transform="matrix(12.5,0,0,12.2,325.3,312.5)" />
<use xlink:href="#f4_13" transform="matrix(12.5,0,0,12.2,360.3,323.9)" />
<use xlink:href="#f5_x" transform="matrix(12.5,0,0,12.2,295.9,323.9)" />
<use xlink:href="#f5_h" transform="matrix(12.5,0,0,12.2,310.6,323.9)" />
<use xlink:href="#f5_f" transform="matrix(12.5,0,0,12.2,346.7,323.9)" />
</g>
</g>
<g fill="#000000" >
<use xlink:href="#f3_1g" transform="matrix(12,0,0,12,55,377)" />
<use xlink:href="#f3_1x" transform="matrix(12,0,0,12,65.3,377)" />
<use xlink:href="#f3_2e" transform="matrix(12,0,0,12,73.4,377)" />
<use xlink:href="#f3_2g" transform="matrix(12,0,0,12,79.6,377)" />
<use xlink:href="#f3_25" transform="matrix(12,0,0,12,85,377)" />
<use xlink:href="#f3_1z" transform="matrix(12,0,0,12,89.4,377)" />
<use xlink:href="#f3_2h" transform="matrix(12,0,0,12,97.5,377)" />
<use xlink:href="#f3_28" transform="matrix(12,0,0,12,107,377)" />
<use xlink:href="#f3_1x" transform="matrix(12,0,0,12,111.8,377)" />
<use xlink:href="#f3_2e" transform="matrix(12,0,0,12,119.9,377)" />
<use xlink:href="#f3_2f" transform="matrix(12,0,0,12,130.8,377)" />
<use xlink:href="#f3_2b" transform="matrix(12,0,0,12,137.8,377)" />
<use xlink:href="#f3_28" transform="matrix(12,0,0,12,147.3,377)" />
<use xlink:href="#f3_2h" transform="matrix(12,0,0,12,151.7,377)" />
<use xlink:href="#f3_2g" transform="matrix(12,0,0,12,160.9,377)" />
<use xlink:href="#f3_25" transform="matrix(12,0,0,12,166.7,377)" />
<use xlink:href="#f3_2b" transform="matrix(12,0,0,12,171.1,377)" />
<use xlink:href="#f3_2a" transform="matrix(12,0,0,12,180.6,377)" />
<use xlink:href="#f3_25" transform="matrix(12,0,0,12,194.6,377)" />
<use xlink:href="#f3_2f" transform="matrix(12,0,0,12,199.3,377)" />
<use xlink:href="#f3_u" transform="matrix(12,0,0,12,206.3,377)" />
<use xlink:href="#f3_2l" transform="matrix(12,0,0,12,216.5,377)" />
<use xlink:href="#f3_c" transform="matrix(12,0,0,12,229.7,377)" />
<use xlink:href="#f3_l" transform="matrix(12,0,0,12,235.9,377)" />
<use xlink:href="#f3_f" transform="matrix(12,0,0,12,249.8,377)" />
<use xlink:href="#f3_2f" transform="matrix(12,0,0,12,264.9,377)" />
<use xlink:href="#f3_25" transform="matrix(12,0,0,12,272.2,377)" />
<use xlink:href="#f3_2a" transform="matrix(12,0,0,12,276.9,377)" />
<use xlink:href="#f3_2k" transform="matrix(12,0,0,12,290.5,377)" />
<use xlink:href="#f3_d" transform="matrix(12,0,0,12,299.3,377)" />
</g>
<path d="M351,372.8h18.9" class="g6_86" />
<g clip-path="url(#c5_86)">
<g fill="#000000" >
<use xlink:href="#f3_m" transform="matrix(7.2,0,0,7.1,362.1,357.8)" />
<use xlink:href="#f3_l" transform="matrix(12.4,0,0,12.2,326,377.4)" />
<use xlink:href="#f3_m" transform="matrix(12.4,0,0,12.2,356.2,391.6)" />
<use xlink:href="#f4_2k" transform="matrix(12.4,0,0,12.2,353.1,366)" />
<use xlink:href="#f5_x" transform="matrix(12.4,0,0,12.2,313.5,377.4)" />
<use xlink:href="#f5_h" transform="matrix(12.4,0,0,12.2,337.1,377.4)" />
</g>
</g>
<g fill="#000000" >
<use xlink:href="#f2_l" transform="matrix(12,0,0,12,55,439.7)" />
<use xlink:href="#f2_q" transform="matrix(12,0,0,12,64.2,439.7)" />
<use xlink:href="#f2_i" transform="matrix(12,0,0,12,73.4,439.7)" />
<use xlink:href="#f3_16" transform="matrix(12,0,0,12,82.9,439.7)" />
<use xlink:href="#f3_25" transform="matrix(12,0,0,12,93.2,439.7)" />
<use xlink:href="#f3_2a" transform="matrix(12,0,0,12,97.9,439.7)" />
<use xlink:href="#f3_20" transform="matrix(12,0,0,12,106.7,439.7)" />
<use xlink:href="#f3_2g" transform="matrix(12,0,0,12,120.6,439.7)" />
<use xlink:href="#f3_24" transform="matrix(12,0,0,12,126.1,439.7)" />
<use xlink:href="#f3_21" transform="matrix(12,0,0,12,134.9,439.7)" />
<use xlink:href="#f3_2c" transform="matrix(12,0,0,12,147.7,439.7)" />
<use xlink:href="#f3_1x" transform="matrix(12,0,0,12,156.9,439.7)" />
<use xlink:href="#f3_2e" transform="matrix(12,0,0,12,165,439.7)" />
<use xlink:href="#f3_2g" transform="matrix(12,0,0,12,170.8,439.7)" />
<use xlink:href="#f3_25" transform="matrix(12,0,0,12,176.3,439.7)" />
<use xlink:href="#f3_1z" transform="matrix(12,0,0,12,181.1,439.7)" />
<use xlink:href="#f3_2h" transform="matrix(12,0,0,12,189.1,439.7)" />
<use xlink:href="#f3_28" transform="matrix(12,0,0,12,198.7,439.7)" />
<use xlink:href="#f3_1x" transform="matrix(12,0,0,12,203.4,439.7)" />
<use xlink:href="#f3_2e" transform="matrix(12,0,0,12,211.5,439.7)" />
<use xlink:href="#f3_2f" transform="matrix(12,0,0,12,222.5,439.7)" />
<use xlink:href="#f3_2b" transform="matrix(12,0,0,12,229.4,439.7)" />
<use xlink:href="#f3_28" transform="matrix(12,0,0,12,238.9,439.7)" />
<use xlink:href="#f3_2h" transform="matrix(12,0,0,12,243.3,439.7)" />
<use xlink:href="#f3_2g" transform="matrix(12,0,0,12,252.5,439.7)" />
<use xlink:href="#f3_25" transform="matrix(12,0,0,12,258.4,439.7)" />
<use xlink:href="#f3_2b" transform="matrix(12,0,0,12,262.8,439.7)" />
<use xlink:href="#f3_2a" transform="matrix(12,0,0,12,272.3,439.7)" />
<use xlink:href="#f3_2b" transform="matrix(12,0,0,12,285.8,439.7)" />
<use xlink:href="#f3_22" transform="matrix(12,0,0,12,295.3,439.7)" />
<use xlink:href="#f3_2g" transform="matrix(12,0,0,12,305.6,439.7)" />
<use xlink:href="#f3_24" transform="matrix(12,0,0,12,311.1,439.7)" />
<use xlink:href="#f3_21" transform="matrix(12,0,0,12,319.9,439.7)" />
<use xlink:href="#f3_20" transform="matrix(12,0,0,12,332.7,439.7)" />
<use xlink:href="#f3_25" transform="matrix(12,0,0,12,342.2,439.7)" />
<use xlink:href="#f3_22" transform="matrix(12,0,0,12,347,439.7)" />
<use xlink:href="#f3_22" transform="matrix(12,0,0,12,352.8,439.7)" />
<use xlink:href="#f3_21" transform="matrix(12,0,0,12,358.7,439.7)" />
<use xlink:href="#f3_2e" transform="matrix(12,0,0,12,366.8,439.7)" />
<use xlink:href="#f3_21" transform="matrix(12,0,0,12,373,439.7)" />
<use xlink:href="#f3_2a" transform="matrix(12,0,0,12,381.4,439.7)" />
<use xlink:href="#f3_2g" transform="matrix(12,0,0,12,390.2,439.7)" />
<use xlink:href="#f3_25" transform="matrix(12,0,0,12,396,439.7)" />
<use xlink:href="#f3_1x" transform="matrix(12,0,0,12,400.4,439.7)" />
<use xlink:href="#f3_28" transform="matrix(12,0,0,12,408.9,439.7)" />
<use xlink:href="#f3_21" transform="matrix(12,0,0,12,418.4,439.7)" />
<use xlink:href="#f3_2d" transform="matrix(12,0,0,12,426.8,439.7)" />
<use xlink:href="#f3_2h" transform="matrix(12,0,0,12,435.9,439.7)" />
<use xlink:href="#f3_1x" transform="matrix(12,0,0,12,445.1,439.7)" />
<use xlink:href="#f3_2g" transform="matrix(12,0,0,12,453.2,439.7)" />
<use xlink:href="#f3_25" transform="matrix(12,0,0,12,458.7,439.7)" />
<use xlink:href="#f3_2b" transform="matrix(12,0,0,12,463.1,439.7)" />
<use xlink:href="#f3_2a" transform="matrix(12,0,0,12,472.6,439.7)" />
</g>
<path d="M98.8,451.9l-3.3,10.6M219,451.9l-3.3,10.6" class="g7_86" />
<g clip-path="url(#c6_86)">
<g fill="#000000" >
<use xlink:href="#f5_c" transform="matrix(12.4,0,0,19.3,145.2,470.5)" />
<use xlink:href="#f5_d" transform="matrix(12.4,0,0,19.3,229,470.5)" />
<use xlink:href="#f3_m" transform="matrix(12.6,0,0,12.2,58,468.2)" />
<use xlink:href="#f3_m" transform="matrix(12.6,0,0,12.2,179.3,468.2)" />
<use xlink:href="#f3_k" transform="matrix(12.6,0,0,12.2,273.2,468.2)" />
<use xlink:href="#f3_23" transform="matrix(12.6,0,0,12.2,57.7,500.2)" />
<use xlink:href="#f3_25" transform="matrix(12.6,0,0,12.2,66.8,500.2)" />
<use xlink:href="#f3_2i" transform="matrix(12.6,0,0,12.2,71.9,500.2)" />
<use xlink:href="#f3_21" transform="matrix(12.6,0,0,12.2,80.8,500.2)" />
<use xlink:href="#f3_2a" transform="matrix(12.6,0,0,12.2,88.7,500.2)" />
<use xlink:href="#f3_2g" transform="matrix(12.6,0,0,12.2,103,500.2)" />
<use xlink:href="#f3_24" transform="matrix(12.6,0,0,12.2,108.1,500.2)" />
<use xlink:href="#f3_1x" transform="matrix(12.6,0,0,12.2,117.2,500.2)" />
<use xlink:href="#f3_2g" transform="matrix(12.6,0,0,12.2,125.2,500.2)" />
<use xlink:href="#f3_k" transform="matrix(12.6,0,0,12.2,162.6,500.2)" />
<use xlink:href="#f3_2j" transform="matrix(12.6,0,0,12.2,176,500.2)" />
<use xlink:href="#f3_24" transform="matrix(12.6,0,0,12.2,189.1,500.2)" />
<use xlink:href="#f3_21" transform="matrix(12.6,0,0,12.2,198.2,500.2)" />
<use xlink:href="#f3_2a" transform="matrix(12.6,0,0,12.2,206.2,500.2)" />
<use xlink:href="#f3_l" transform="matrix(12.6,0,0,12.2,247,500.2)" />
<use xlink:href="#f3_i" transform="matrix(12.6,0,0,12.2,256.1,500.2)" />
<use xlink:href="#f4_2k" transform="matrix(7.3,0,0,7.1,90.8,460)" />
<use xlink:href="#f4_2l" transform="matrix(7.3,0,0,7.1,100.6,460)" />
<use xlink:href="#f4_2k" transform="matrix(7.3,0,0,7.1,210.9,460)" />
<use xlink:href="#f4_2l" transform="matrix(7.3,0,0,7.1,220.8,460)" />
<use xlink:href="#f4_2l" transform="matrix(12.6,0,0,12.2,69.1,468.2)" />
<use xlink:href="#f4_21" transform="matrix(12.6,0,0,12.2,81.6,468.2)" />
<use xlink:href="#f4_20" transform="matrix(12.6,0,0,12.2,111.8,468.2)" />
<use xlink:href="#f4_2k" transform="matrix(12.6,0,0,12.2,120.9,468.2)" />
<use xlink:href="#f4_2l" transform="matrix(12.6,0,0,12.2,154.4,468.2)" />
<use xlink:href="#f4_2k" transform="matrix(12.6,0,0,12.2,189.5,468.2)" />
<use xlink:href="#f4_21" transform="matrix(12.6,0,0,12.2,201.7,468.2)" />
<use xlink:href="#f4_20" transform="matrix(12.6,0,0,12.2,237.1,468.2)" />
<use xlink:href="#f4_2l" transform="matrix(12.6,0,0,12.2,246.2,468.2)" />
<use xlink:href="#f4_2k" transform="matrix(12.6,0,0,12.2,136.1,500.2)" />
<use xlink:href="#f4_2l" transform="matrix(12.6,0,0,12.2,222,500.2)" />
<use xlink:href="#f5_f" transform="matrix(12.6,0,0,12.2,132.4,468.2)" />
<use xlink:href="#f5_h" transform="matrix(12.6,0,0,12.2,166.1,468.2)" />
<use xlink:href="#f5_x" transform="matrix(12.6,0,0,12.2,259.2,468.2)" />
<use xlink:href="#f5_x" transform="matrix(12.6,0,0,12.2,148.7,500.2)" />
<use xlink:href="#f5_x" transform="matrix(12.6,0,0,12.2,234.9,500.2)" />
</g>
</g>
<g fill="#000000" >
<use xlink:href="#f2_1j" transform="matrix(12,0,0,12,55,528.2)" />
<use xlink:href="#f2_2b" transform="matrix(12,0,0,12,65.3,528.2)" />
<use xlink:href="#f2_28" transform="matrix(12,0,0,12,74.5,528.2)" />
<use xlink:href="#f2_2h" transform="matrix(12,0,0,12,79.2,528.2)" />
<use xlink:href="#f2_2g" transform="matrix(12,0,0,12,89.5,528.2)" />
<use xlink:href="#f2_25" transform="matrix(12,0,0,12,95.7,528.2)" />
<use xlink:href="#f2_2b" transform="matrix(12,0,0,12,100.8,528.2)" />
<use xlink:href="#f2_2a" transform="matrix(12,0,0,12,109.9,528.2)" />
<use xlink:href="#f2_u" transform="matrix(12,0,0,12,120.2,528.2)" />
</g>
<path d="M58.2,562.9H78.1m19.7,0H161" class="g8_86" />
<g clip-path="url(#c7_86)">
<g fill="#000000" >
<use xlink:href="#f3_m" transform="matrix(12.6,0,0,12.3,99.1,556.1)" />
<use xlink:href="#f3_m" transform="matrix(12.6,0,0,12.3,112.5,581.8)" />
<use xlink:href="#f4_2i" transform="matrix(7.4,0,0,7.2,125.8,547.8)" />
<use xlink:href="#f4_2i" transform="matrix(7.4,0,0,7.2,140.1,573.5)" />
<use xlink:href="#f4_20" transform="matrix(12.6,0,0,12.3,59.6,556.1)" />
<use xlink:href="#f4_2k" transform="matrix(12.6,0,0,12.3,68.7,556.1)" />
<use xlink:href="#f4_2k" transform="matrix(12.6,0,0,12.3,109.3,556.1)" />
<use xlink:href="#f4_21" transform="matrix(12.6,0,0,12.3,117.3,556.1)" />
<use xlink:href="#f4_2l" transform="matrix(12.6,0,0,12.3,151.5,556.1)" />
<use xlink:href="#f4_20" transform="matrix(12.6,0,0,12.3,59.5,581.8)" />
<use xlink:href="#f4_2l" transform="matrix(12.6,0,0,12.3,68.6,581.8)" />
<use xlink:href="#f4_2l" transform="matrix(12.6,0,0,12.3,123.6,581.8)" />
<use xlink:href="#f4_21" transform="matrix(12.6,0,0,12.3,131.5,581.8)" />
<use xlink:href="#f5_h" transform="matrix(12.6,0,0,12.3,136.1,556.1)" />
<use xlink:href="#f5_x" transform="matrix(12.6,0,0,12.3,83.1,567.5)" />
</g>
</g>
<path d="M58.3,616.1H70.8m73.4,0h20m58.1,0h19.9" class="g9_86" />
<g clip-path="url(#c8_86)">
<g fill="#000000" >
<use xlink:href="#f3_g" transform="matrix(12.7,0,0,12.2,98.3,620.8)" />
<use xlink:href="#f3_2g" transform="matrix(12.7,0,0,12.2,107.4,620.8)" />
<use xlink:href="#f3_24" transform="matrix(12.7,0,0,12.2,112.5,620.8)" />
<use xlink:href="#f3_21" transform="matrix(12.7,0,0,12.2,121.7,620.8)" />
<use xlink:href="#f3_2a" transform="matrix(12.7,0,0,12.2,129.7,620.8)" />
<use xlink:href="#f4_2k" transform="matrix(12.7,0,0,12.2,60.9,609.3)" />
<use xlink:href="#f4_20" transform="matrix(12.7,0,0,12.2,145.6,609.3)" />
<use xlink:href="#f4_2k" transform="matrix(12.7,0,0,12.2,154.8,609.3)" />
<use xlink:href="#f4_20" transform="matrix(12.7,0,0,12.2,223.7,609.3)" />
<use xlink:href="#f4_2i" transform="matrix(12.7,0,0,12.2,232.9,609.3)" />
<use xlink:href="#f4_2i" transform="matrix(12.7,0,0,12.2,90,620.8)" />
<use xlink:href="#f4_2i" transform="matrix(12.7,0,0,12.2,183.5,620.8)" />
<use xlink:href="#f4_2l" transform="matrix(12.7,0,0,12.2,211.2,620.8)" />
<use xlink:href="#f4_2l" transform="matrix(12.7,0,0,12.2,61.2,635)" />
<use xlink:href="#f4_20" transform="matrix(12.7,0,0,12.2,145.5,635)" />
<use xlink:href="#f4_2l" transform="matrix(12.7,0,0,12.2,154.7,635)" />
<use xlink:href="#f4_20" transform="matrix(12.7,0,0,12.2,223.6,635)" />
<use xlink:href="#f4_2l" transform="matrix(12.7,0,0,12.2,232.7,635)" />
<use xlink:href="#f5_x" transform="matrix(12.7,0,0,12.2,75.8,620.8)" />
<use xlink:href="#f5_x" transform="matrix(12.7,0,0,12.2,169.2,620.8)" />
<use xlink:href="#f5_f" transform="matrix(12.7,0,0,12.2,195.5,620.8)" />
</g>
</g>
<path d="M96.7,672.9h20.1m19.9,0h70.6" class="g10_86" />
<g clip-path="url(#c9_86)">
<g fill="#000000" >
<use xlink:href="#f3_m" transform="matrix(12.6,0,0,12.3,137.9,666.1)" />
<use xlink:href="#f3_m" transform="matrix(12.6,0,0,12.3,154.9,691.8)" />
<use xlink:href="#f4_2i" transform="matrix(7.3,0,0,7.2,171.8,657.8)" />
<use xlink:href="#f4_2i" transform="matrix(7.3,0,0,7.2,182.8,683.5)" />
<use xlink:href="#f4_20" transform="matrix(12.6,0,0,12.3,98.1,666.1)" />
<use xlink:href="#f4_2i" transform="matrix(12.6,0,0,12.3,107.3,666.1)" />
<use xlink:href="#f4_2i" transform="matrix(12.6,0,0,12.3,147.1,666.1)" />
<use xlink:href="#f4_2l" transform="matrix(12.6,0,0,12.3,155.2,666.1)" />
<use xlink:href="#f4_21" transform="matrix(12.6,0,0,12.3,163.2,666.1)" />
<use xlink:href="#f4_2l" transform="matrix(12.6,0,0,12.3,197.7,666.1)" />
<use xlink:href="#f4_2i" transform="matrix(12.6,0,0,12.3,57.7,677.5)" />
<use xlink:href="#f4_2l" transform="matrix(12.6,0,0,12.3,85.6,677.5)" />
<use xlink:href="#f4_20" transform="matrix(12.6,0,0,12.3,97.9,691.8)" />
<use xlink:href="#f4_2l" transform="matrix(12.6,0,0,12.3,107.1,691.8)" />
<use xlink:href="#f4_2l" transform="matrix(12.6,0,0,12.3,166.1,691.8)" />
<use xlink:href="#f4_21" transform="matrix(12.6,0,0,12.3,174.2,691.8)" />
<use xlink:href="#f5_h" transform="matrix(12.6,0,0,12.3,182.2,666.1)" />
<use xlink:href="#f5_f" transform="matrix(12.6,0,0,12.3,69.7,677.5)" />
<use xlink:href="#f5_x" transform="matrix(12.6,0,0,12.3,121.8,677.5)" />
</g>
</g>
<path d="M149.6,726.1h20" class="g11_86" />
<g clip-path="url(#c10_86)">
<g fill="#000000" >
<use xlink:href="#f3_m" transform="matrix(12.7,0,0,12.2,57.9,730.8)" />
<use xlink:href="#f4_2i" transform="matrix(7.4,0,0,7.1,86.1,722.5)" />
<use xlink:href="#f4_20" transform="matrix(12.7,0,0,12.2,150.8,719.3)" />
<use xlink:href="#f4_2l" transform="matrix(12.7,0,0,12.2,160,719.3)" />
<use xlink:href="#f4_21" transform="matrix(12.7,0,0,12.2,77.5,730.8)" />
<use xlink:href="#f4_20" transform="matrix(12.7,0,0,12.2,91.8,730.8)" />
<use xlink:href="#f4_2i" transform="matrix(12.7,0,0,12.2,101,730.8)" />
<use xlink:href="#f4_2l" transform="matrix(12.7,0,0,12.2,156.3,745)" />
<use xlink:href="#f5_x" transform="matrix(12.7,0,0,12.2,113.8,730.8)" />
<use xlink:href="#f5_h" transform="matrix(12.7,0,0,12.2,128.3,730.8)" />
<use xlink:href="#f5_50" transform="matrix(19,0,0,18.4,67.7,737.4)" />
<use xlink:href="#f5_50" transform="matrix(19,0,0,18.4,139.2,737.4)" />
</g>
</g>
<g fill="#000000" >
<use xlink:href="#f3_17" transform="matrix(12,0,0,12,55,775.3)" />
<use xlink:href="#f3_21" transform="matrix(12,0,0,12,68.3,775.3)" />
<use xlink:href="#f3_2a" transform="matrix(12,0,0,12,76.3,775.3)" />
<use xlink:href="#f3_21" transform="matrix(12,0,0,12,85.1,775.3)" />
<use xlink:href="#f3_2e" transform="matrix(12,0,0,12,93.2,775.3)" />
<use xlink:href="#f3_1x" transform="matrix(12,0,0,12,99.4,775.3)" />
<use xlink:href="#f3_28" transform="matrix(12,0,0,12,107.8,775.3)" />
<use xlink:href="#f3_2f" transform="matrix(12,0,0,12,117.3,775.3)" />
<use xlink:href="#f3_2b" transform="matrix(12,0,0,12,124.3,775.3)" />
<use xlink:href="#f3_28" transform="matrix(12,0,0,12,134.2,775.3)" />
<use xlink:href="#f3_2h" transform="matrix(12,0,0,12,138.6,775.3)" />
<use xlink:href="#f3_2g" transform="matrix(12,0,0,12,147.7,775.3)" />
<use xlink:href="#f3_25" transform="matrix(12,0,0,12,153.6,775.3)" />
<use xlink:href="#f3_2b" transform="matrix(12,0,0,12,158,775.3)" />
<use xlink:href="#f3_2a" transform="matrix(12,0,0,12,167.5,775.3)" />
<use xlink:href="#f3_25" transform="matrix(12,0,0,12,181.4,775.3)" />
<use xlink:href="#f3_2f" transform="matrix(12,0,0,12,186.2,775.3)" />
<use xlink:href="#f3_u" transform="matrix(12,0,0,12,193.1,775.3)" />
</g>
<g clip-path="url(#c11_86)">
<g fill="#000000" >
<use xlink:href="#f3_j" transform="matrix(7.6,0,0,7.1,397.9,767.5)" />
<use xlink:href="#f3_m" transform="matrix(13,0,0,12.1,206.1,775.6)" />
<use xlink:href="#f3_28" transform="matrix(13,0,0,12.1,261.3,775.6)" />
<use xlink:href="#f3_2b" transform="matrix(13,0,0,12.1,266.2,775.6)" />
<use xlink:href="#f3_23" transform="matrix(13,0,0,12.1,275.3,775.6)" />
<use xlink:href="#f3_2o" transform="matrix(13,0,0,12.1,288.1,775.6)" />
<use xlink:href="#f3_2o" transform="matrix(13,0,0,12.1,309,775.6)" />
<use xlink:href="#f3_2b" transform="matrix(13,0,0,12.1,349.4,775.6)" />
<use xlink:href="#f3_2e" transform="matrix(13,0,0,12.1,358.5,775.6)" />
<use xlink:href="#f3_m" transform="matrix(13,0,0,12.1,374.9,775.6)" />
<use xlink:href="#f3_28" transform="matrix(13,0,0,12.1,439.3,775.6)" />
<use xlink:href="#f3_2b" transform="matrix(13,0,0,12.1,444.2,775.6)" />
<use xlink:href="#f3_23" transform="matrix(13,0,0,12.1,453.3,775.6)" />
<use xlink:href="#f3_2o" transform="matrix(13,0,0,12.1,466.1,775.6)" />
<use xlink:href="#f3_2o" transform="matrix(13,0,0,12.1,487,775.6)" />
<use xlink:href="#f4_2i" transform="matrix(7.6,0,0,7.1,223.8,767.5)" />
<use xlink:href="#f4_2k" transform="matrix(7.6,0,0,7.1,393.4,767.5)" />
<use xlink:href="#f4_2l" transform="matrix(7.6,0,0,7.1,401.7,767.5)" />
<use xlink:href="#f4_21" transform="matrix(13,0,0,12.1,215.2,775.6)" />
<use xlink:href="#f4_2l" transform="matrix(13,0,0,12.1,297.2,775.6)" />
<use xlink:href="#f4_13" transform="matrix(13,0,0,12.1,326.7,775.6)" />
<use xlink:href="#f4_21" transform="matrix(13,0,0,12.1,384.2,775.6)" />
<use xlink:href="#f4_2l" transform="matrix(13,0,0,12.1,475.3,775.6)" />
<use xlink:href="#f4_13" transform="matrix(13,0,0,12.1,504.8,775.6)" />
<use xlink:href="#f5_x" transform="matrix(13,0,0,12.1,234.9,775.6)" />
<use xlink:href="#f5_h" transform="matrix(13,0,0,12.1,249.3,775.6)" />
<use xlink:href="#f5_f" transform="matrix(13,0,0,12.1,316.4,775.6)" />
<use xlink:href="#f5_x" transform="matrix(13,0,0,12.1,413,775.6)" />
<use xlink:href="#f5_h" transform="matrix(13,0,0,12.1,427.4,775.6)" />
<use xlink:href="#f5_f" transform="matrix(13,0,0,12.1,494.5,775.6)" />
</g>
</g>
<g fill="#000000" >
<use xlink:href="#f3_1g" transform="matrix(12,0,0,12,55,805.8)" />
<use xlink:href="#f3_1x" transform="matrix(12,0,0,12,65.3,805.8)" />
<use xlink:href="#f3_2e" transform="matrix(12,0,0,12,73.4,805.8)" />
<use xlink:href="#f3_2g" transform="matrix(12,0,0,12,79.6,805.8)" />
<use xlink:href="#f3_25" transform="matrix(12,0,0,12,85,805.8)" />
<use xlink:href="#f3_1z" transform="matrix(12,0,0,12,89.4,805.8)" />
<use xlink:href="#f3_2h" transform="matrix(12,0,0,12,97.5,805.8)" />
<use xlink:href="#f3_28" transform="matrix(12,0,0,12,107,805.8)" />
<use xlink:href="#f3_1x" transform="matrix(12,0,0,12,111.8,805.8)" />
<use xlink:href="#f3_2e" transform="matrix(12,0,0,12,119.9,805.8)" />
<use xlink:href="#f3_2f" transform="matrix(12,0,0,12,130.8,805.8)" />
<use xlink:href="#f3_2b" transform="matrix(12,0,0,12,137.8,805.8)" />
<use xlink:href="#f3_28" transform="matrix(12,0,0,12,147.3,805.8)" />
<use xlink:href="#f3_2h" transform="matrix(12,0,0,12,151.7,805.8)" />
<use xlink:href="#f3_2g" transform="matrix(12,0,0,12,160.9,805.8)" />
<use xlink:href="#f3_25" transform="matrix(12,0,0,12,166.7,805.8)" />
<use xlink:href="#f3_2b" transform="matrix(12,0,0,12,171.1,805.8)" />
<use xlink:href="#f3_2a" transform="matrix(12,0,0,12,180.6,805.8)" />
<use xlink:href="#f3_25" transform="matrix(12,0,0,12,194.6,805.8)" />
<use xlink:href="#f3_2f" transform="matrix(12,0,0,12,199.3,805.8)" />
<use xlink:href="#f3_u" transform="matrix(12,0,0,12,206.3,805.8)" />
</g>
<g clip-path="url(#c12_86)">
<g fill="#000000" >
<use xlink:href="#f3_j" transform="matrix(7.5,0,0,7.1,242.1,797.9)" />
<use xlink:href="#f3_m" transform="matrix(12.9,0,0,12.1,219.3,806.1)" />
<use xlink:href="#f3_28" transform="matrix(12.9,0,0,12.1,270,806.1)" />
<use xlink:href="#f3_2b" transform="matrix(12.9,0,0,12.1,274.9,806.1)" />
<use xlink:href="#f3_23" transform="matrix(12.9,0,0,12.1,284,806.1)" />
<use xlink:href="#f3_2o" transform="matrix(12.9,0,0,12.1,296.8,806.1)" />
<use xlink:href="#f3_2o" transform="matrix(12.9,0,0,12.1,317.7,806.1)" />
<use xlink:href="#f3_m" transform="matrix(12.9,0,0,12.1,335.5,806.1)" />
<use xlink:href="#f4_2k" transform="matrix(7.5,0,0,7.1,237.6,797.9)" />
<use xlink:href="#f4_2l" transform="matrix(7.5,0,0,7.1,245.9,797.9)" />
<use xlink:href="#f4_21" transform="matrix(12.9,0,0,12.1,228.4,806.1)" />
<use xlink:href="#f4_2l" transform="matrix(12.9,0,0,12.1,305.9,806.1)" />
<use xlink:href="#f5_f" transform="matrix(12.9,0,0,12.1,256.3,806.1)" />
<use xlink:href="#f5_x" transform="matrix(12.9,0,0,12.1,321.2,806.1)" />
</g>
</g>
<g fill="#000000" >
<use xlink:href="#f2_l" transform="matrix(12,0,0,12,55,860.8)" />
<use xlink:href="#f2_r" transform="matrix(12,0,0,12,64.2,860.8)" />
<use xlink:href="#f2_i" transform="matrix(12,0,0,12,73.4,860.8)" />
<use xlink:href="#f3_1j" transform="matrix(12,0,0,12,82.9,860.8)" />
<use xlink:href="#f3_24" transform="matrix(12,0,0,12,93.2,860.8)" />
<use xlink:href="#f3_2b" transform="matrix(12,0,0,12,102,860.8)" />
<use xlink:href="#f3_2j" transform="matrix(12,0,0,12,111.5,860.8)" />
<use xlink:href="#f3_2g" transform="matrix(12,0,0,12,128.7,860.8)" />
<use xlink:href="#f3_24" transform="matrix(12,0,0,12,134.2,860.8)" />
<use xlink:href="#f3_1x" transform="matrix(12,0,0,12,143,860.8)" />
<use xlink:href="#f3_2g" transform="matrix(12,0,0,12,151,860.8)" />
<use xlink:href="#f3_2g" transform="matrix(12,0,0,12,160.9,860.8)" />
<use xlink:href="#f3_24" transform="matrix(12,0,0,12,166.4,860.8)" />
<use xlink:href="#f3_21" transform="matrix(12,0,0,12,175.2,860.8)" />
<use xlink:href="#f3_22" transform="matrix(12,0,0,12,188,860.8)" />
<use xlink:href="#f3_2b" transform="matrix(12,0,0,12,193.5,860.8)" />
<use xlink:href="#f3_2h" transform="matrix(12,0,0,12,203,860.8)" />
<use xlink:href="#f3_2e" transform="matrix(12,0,0,12,212.2,860.8)" />
<use xlink:href="#f3_2c" transform="matrix(12,0,0,12,223.2,860.8)" />
<use xlink:href="#f3_2b" transform="matrix(12,0,0,12,232,860.8)" />
<use xlink:href="#f3_25" transform="matrix(12,0,0,12,241.5,860.8)" />
<use xlink:href="#f3_2a" transform="matrix(12,0,0,12,246.3,860.8)" />
<use xlink:href="#f3_2g" transform="matrix(12,0,0,12,255.1,860.8)" />
<use xlink:href="#f3_2f" transform="matrix(12,0,0,12,260.5,860.8)" />
</g>
<g clip-path="url(#c13_86)">
<g fill="#000000" >
<use xlink:href="#f5_c" transform="matrix(12.8,0,0,16.2,361.1,862.1)" />
<use xlink:href="#f5_d" transform="matrix(12.8,0,0,16.2,430.1,862.1)" />
<use xlink:href="#f5_c" transform="matrix(12.8,0,0,16.2,459.4,862.1)" />
<use xlink:href="#f5_d" transform="matrix(12.8,0,0,16.2,510.4,862.1)" />
<use xlink:href="#f5_c" transform="matrix(12.8,0,0,16.2,567.1,862.1)" />
<use xlink:href="#f5_d" transform="matrix(12.8,0,0,16.2,629.9,862.1)" />
<use xlink:href="#f3_c" transform="matrix(13,0,0,12.4,287.7,860.8)" />
<use xlink:href="#f3_o" transform="matrix(13,0,0,12.4,294.3,860.8)" />
<use xlink:href="#f3_g" transform="matrix(13,0,0,12.4,303.2,860.8)" />
<use xlink:href="#f3_p" transform="matrix(13,0,0,12.4,311.2,860.8)" />
<use xlink:href="#f3_g" transform="matrix(13,0,0,12.4,319.8,860.8)" />
<use xlink:href="#f3_l" transform="matrix(13,0,0,12.4,324.7,860.8)" />
<use xlink:href="#f3_d" transform="matrix(13,0,0,12.4,332.4,860.8)" />
<use xlink:href="#f3_g" transform="matrix(13,0,0,12.4,338.4,860.8)" />
<use xlink:href="#f3_k" transform="matrix(13,0,0,12.4,368.3,860.8)" />
<use xlink:href="#f3_g" transform="matrix(13,0,0,12.4,377.2,860.8)" />
<use xlink:href="#f3_l" transform="matrix(13,0,0,12.4,394.1,860.8)" />
<use xlink:href="#f3_g" transform="matrix(13,0,0,12.4,401.6,860.8)" />
<use xlink:href="#f3_l" transform="matrix(13,0,0,12.4,421.3,860.8)" />
<use xlink:href="#f3_g" transform="matrix(13,0,0,12.4,437.8,860.8)" />
<use xlink:href="#f3_n" transform="matrix(13,0,0,12.4,466.3,860.8)" />
<use xlink:href="#f3_g" transform="matrix(13,0,0,12.4,474.6,860.8)" />
<use xlink:href="#f3_t" transform="matrix(13,0,0,12.4,482.6,860.8)" />
<use xlink:href="#f3_g" transform="matrix(13,0,0,12.4,491.5,860.8)" />
<use xlink:href="#f3_o" transform="matrix(13,0,0,12.4,500.1,860.8)" />
<use xlink:href="#f3_1x" transform="matrix(13,0,0,12.4,520,860.8)" />
<use xlink:href="#f3_2a" transform="matrix(13,0,0,12.4,528.1,860.8)" />
<use xlink:href="#f3_20" transform="matrix(13,0,0,12.4,537.2,860.8)" />
<use xlink:href="#f3_o" transform="matrix(13,0,0,12.4,584.6,860.8)" />
<use xlink:href="#f3_g" transform="matrix(13,0,0,12.4,593.5,860.8)" />
<use xlink:href="#f3_o" transform="matrix(13,0,0,12.4,602.1,860.8)" />
<use xlink:href="#f3_g" transform="matrix(13,0,0,12.4,611,860.8)" />
<use xlink:href="#f3_o" transform="matrix(13,0,0,12.4,619.6,860.8)" />
<use xlink:href="#f3_1x" transform="matrix(13,0,0,12.4,639.5,860.8)" />
<use xlink:href="#f3_2e" transform="matrix(13,0,0,12.4,647.6,860.8)" />
<use xlink:href="#f3_21" transform="matrix(13,0,0,12.4,653.6,860.8)" />
<use xlink:href="#f3_1z" transform="matrix(13,0,0,12.4,665.6,860.8)" />
<use xlink:href="#f3_2b" transform="matrix(13,0,0,12.4,673.6,860.8)" />
<use xlink:href="#f3_2c" transform="matrix(13,0,0,12.4,682.8,860.8)" />
<use xlink:href="#f3_28" transform="matrix(13,0,0,12.4,692,860.8)" />
<use xlink:href="#f3_1x" transform="matrix(13,0,0,12.4,696.8,860.8)" />
<use xlink:href="#f3_2a" transform="matrix(13,0,0,12.4,704.9,860.8)" />
<use xlink:href="#f3_1x" transform="matrix(13,0,0,12.4,714,860.8)" />
<use xlink:href="#f3_2e" transform="matrix(13,0,0,12.4,722.1,860.8)" />
<use xlink:href="#f3_i" transform="matrix(13,0,0,12.4,728.1,860.8)" />
<use xlink:href="#f4_11" transform="matrix(13,0,0,12.4,276.8,860.8)" />
<use xlink:href="#f4_12" transform="matrix(13,0,0,12.4,347.6,860.8)" />
<use xlink:href="#f4_13" transform="matrix(13,0,0,12.4,444.1,860.8)" />
<use xlink:href="#f4_14" transform="matrix(13,0,0,12.4,551.6,860.8)" />
<use xlink:href="#f5_h" transform="matrix(13,0,0,12.4,384.1,860.8)" />
<use xlink:href="#f5_h" transform="matrix(13,0,0,12.4,410.2,860.8)" />
<use xlink:href="#f5_h" transform="matrix(13,0,0,12.4,574.7,860.8)" />
</g>
</g>
<g fill="#000000" >
<use xlink:href="#f2_1j" transform="matrix(12,0,0,12,55,891.6)" />
<use xlink:href="#f2_2b" transform="matrix(12,0,0,12,65.3,891.6)" />
<use xlink:href="#f2_28" transform="matrix(12,0,0,12,74.5,891.6)" />
<use xlink:href="#f2_2h" transform="matrix(12,0,0,12,79.2,891.6)" />
<use xlink:href="#f2_2g" transform="matrix(12,0,0,12,89.5,891.6)" />
<use xlink:href="#f2_25" transform="matrix(12,0,0,12,95.7,891.6)" />
<use xlink:href="#f2_2b" transform="matrix(12,0,0,12,100.8,891.6)" />
<use xlink:href="#f2_2a" transform="matrix(12,0,0,12,109.9,891.6)" />
<use xlink:href="#f2_u" transform="matrix(12,0,0,12,120.2,891.6)" />
</g>
<g clip-path="url(#c14_86)">
<g fill="#000000" >
<use xlink:href="#f6_5z" transform="matrix(13,0,0,12.3,192.8,914.9)" />
<use xlink:href="#f6_5z" transform="matrix(13,0,0,12.3,335.2,914.9)" />
<use xlink:href="#f6_5z" transform="matrix(13,0,0,12.3,476.7,914.9)" />
<use xlink:href="#f6_5z" transform="matrix(13,0,0,12.3,121.1,916.4)" />
<use xlink:href="#f6_5z" transform="matrix(13,0,0,12.3,156.5,916.4)" />
<use xlink:href="#f6_5z" transform="matrix(13,0,0,12.3,263.7,916.4)" />
<use xlink:href="#f6_5z" transform="matrix(13,0,0,12.3,299.7,916.4)" />
<use xlink:href="#f6_5z" transform="matrix(13,0,0,12.3,415,916.4)" />
<use xlink:href="#f6_5z" transform="matrix(13,0,0,12.3,441.2,916.4)" />
<use xlink:href="#f3_o" transform="matrix(13,0,0,12.3,110.9,920.4)" />
<use xlink:href="#f3_q" transform="matrix(13,0,0,12.3,144.1,920.4)" />
<use xlink:href="#f3_m" transform="matrix(13,0,0,12.3,180.1,920.4)" />
<use xlink:href="#f3_g" transform="matrix(13,0,0,12.3,199,920.4)" />
<use xlink:href="#f3_o" transform="matrix(13,0,0,12.3,287.4,920.4)" />
<use xlink:href="#f3_n" transform="matrix(13,0,0,12.3,323.1,920.4)" />
<use xlink:href="#f3_g" transform="matrix(13,0,0,12.3,341.3,920.4)" />
<use xlink:href="#f3_s" transform="matrix(13,0,0,12.3,405,920.4)" />
<use xlink:href="#f3_n" transform="matrix(13,0,0,12.3,464.5,920.4)" />
<use xlink:href="#f4_11" transform="matrix(13,0,0,12.3,59.4,920.4)" />
<use xlink:href="#f4_12" transform="matrix(13,0,0,12.3,70.5,920.4)" />
<use xlink:href="#f4_25" transform="matrix(13,0,0,12.3,119.7,920.4)" />
<use xlink:href="#f4_26" transform="matrix(13,0,0,12.3,157,920.4)" />
<use xlink:href="#f4_27" transform="matrix(13,0,0,12.3,189.5,920.4)" />
<use xlink:href="#f4_11" transform="matrix(13,0,0,12.3,209.1,920.4)" />
<use xlink:href="#f4_13" transform="matrix(13,0,0,12.3,220.3,920.4)" />
<use xlink:href="#f4_25" transform="matrix(13,0,0,12.3,262.3,920.4)" />
<use xlink:href="#f4_26" transform="matrix(13,0,0,12.3,300.2,920.4)" />
<use xlink:href="#f4_27" transform="matrix(13,0,0,12.3,331.9,920.4)" />
<use xlink:href="#f4_11" transform="matrix(13,0,0,12.3,351.5,920.4)" />
<use xlink:href="#f4_14" transform="matrix(13,0,0,12.3,362.6,920.4)" />
<use xlink:href="#f4_25" transform="matrix(13,0,0,12.3,413.5,920.4)" />
<use xlink:href="#f4_26" transform="matrix(13,0,0,12.3,441.7,920.4)" />
<use xlink:href="#f4_27" transform="matrix(13,0,0,12.3,473.4,920.4)" />
<use xlink:href="#f5_x" transform="matrix(13,0,0,12.3,86.4,920.4)" />
<use xlink:href="#f5_h" transform="matrix(13,0,0,12.3,100.9,920.4)" />
<use xlink:href="#f5_h" transform="matrix(13,0,0,12.3,130.7,920.4)" />
<use xlink:href="#f5_h" transform="matrix(13,0,0,12.3,166.4,920.4)" />
<use xlink:href="#f5_x" transform="matrix(13,0,0,12.3,237.9,920.4)" />
<use xlink:href="#f5_h" transform="matrix(13,0,0,12.3,252.4,920.4)" />
<use xlink:href="#f5_f" transform="matrix(13,0,0,12.3,273.3,920.4)" />
<use xlink:href="#f5_f" transform="matrix(13,0,0,12.3,309.6,920.4)" />
<use xlink:href="#f5_x" transform="matrix(13,0,0,12.3,380.6,920.4)" />
<use xlink:href="#f5_h" transform="matrix(13,0,0,12.3,395,920.4)" />
<use xlink:href="#f5_h" transform="matrix(13,0,0,12.3,424.6,920.4)" />
<use xlink:href="#f5_f" transform="matrix(13,0,0,12.3,451.1,920.4)" />
</g>
</g>
<image preserveAspectRatio="none" x="58" y="883" width="376" height="32" xlink:href="img/6.png" />
<g fill="#000000" >
<use xlink:href="#f3_16" transform="matrix(12,0,0,12,55,952.1)" />
<use xlink:href="#f3_2b" transform="matrix(12,0,0,12,64.9,952.1)" />
<use xlink:href="#f3_2e" transform="matrix(12,0,0,12,74.5,952.1)" />
<use xlink:href="#f3_o" transform="matrix(12,0,0,12,85.4,952.1)" />
<use xlink:href="#f3_2c" transform="matrix(12,0,0,12,99,952.1)" />
<use xlink:href="#f3_2b" transform="matrix(12,0,0,12,107.8,952.1)" />
<use xlink:href="#f3_25" transform="matrix(12,0,0,12,117.3,952.1)" />
<use xlink:href="#f3_2a" transform="matrix(12,0,0,12,122,952.1)" />
<use xlink:href="#f3_2g" transform="matrix(12,0,0,12,130.8,952.1)" />
<use xlink:href="#f3_2f" transform="matrix(12,0,0,12,136.3,952.1)" />
<use xlink:href="#f3_2g" transform="matrix(12,0,0,12,148,952.1)" />
<use xlink:href="#f3_2b" transform="matrix(12,0,0,12,153.1,952.1)" />
<use xlink:href="#f3_1y" transform="matrix(12,0,0,12,167.4,952.1)" />
<use xlink:href="#f3_21" transform="matrix(12,0,0,12,176.2,952.1)" />
<use xlink:href="#f3_1z" transform="matrix(12,0,0,12,189.1,952.1)" />
<use xlink:href="#f3_2b" transform="matrix(12,0,0,12,196.8,952.1)" />
<use xlink:href="#f3_2c" transform="matrix(12,0,0,12,206.3,952.1)" />
<use xlink:href="#f3_28" transform="matrix(12,0,0,12,215.4,952.1)" />
<use xlink:href="#f3_1x" transform="matrix(12,0,0,12,219.8,952.1)" />
<use xlink:href="#f3_2a" transform="matrix(12,0,0,12,228.2,952.1)" />
<use xlink:href="#f3_1x" transform="matrix(12,0,0,12,237.4,952.1)" />
<use xlink:href="#f3_2e" transform="matrix(12,0,0,12,245.5,952.1)" />
<use xlink:href="#f3_g" transform="matrix(12,0,0,12,251.7,952.1)" />
</g>
<g clip-path="url(#c15_86)">
<g fill="#000000" >
<use xlink:href="#f3_1r" transform="matrix(12.9,0,0,12.3,262.6,952.3)" />
<use xlink:href="#f3_1t" transform="matrix(12.9,0,0,12.3,354.3,952.3)" />
<use xlink:href="#f3_k" transform="matrix(12.9,0,0,12.3,378.2,952.3)" />
<use xlink:href="#f4_11" transform="matrix(12.9,0,0,12.3,270.6,952.3)" />
<use xlink:href="#f4_12" transform="matrix(12.9,0,0,12.3,281.8,952.3)" />
<use xlink:href="#f4_11" transform="matrix(12.9,0,0,12.3,299.2,952.3)" />
<use xlink:href="#f4_13" transform="matrix(12.9,0,0,12.3,310.3,952.3)" />
<use xlink:href="#f4_11" transform="matrix(12.9,0,0,12.3,329.4,952.3)" />
<use xlink:href="#f4_14" transform="matrix(12.9,0,0,12.3,340.5,952.3)" />
<use xlink:href="#f5_x" transform="matrix(12.9,0,0,12.3,364,952.3)" />
</g>
</g>
<image preserveAspectRatio="none" x="270" y="915" width="122" height="32" xlink:href="img/7.png" />
<g fill="#000000" >
<use xlink:href="#f3_25" transform="matrix(12,0,0,12,55,1010.1)" />
<use xlink:href="#f3_i" transform="matrix(12,0,0,12,59.4,1010.1)" />
<use xlink:href="#f3_21" transform="matrix(12,0,0,12,64.6,1010.1)" />
<use xlink:href="#f3_i" transform="matrix(12,0,0,12,72.6,1010.1)" />
<use xlink:href="#f3_g" transform="matrix(12,0,0,12,77.4,1010.1)" />
</g>
<path d="M90.2,967v77.5M185.6,967v77.5" class="g12_86" />
<g clip-path="url(#c16_86)">
<g fill="#000000" >
<use xlink:href="#f3_o" transform="matrix(12.5,0,0,12.3,102.2,982.7)" />
<use xlink:href="#f3_q" transform="matrix(12.5,0,0,12.3,138.6,982.7)" />
<use xlink:href="#f3_m" transform="matrix(12.5,0,0,12.3,175.1,982.7)" />
<use xlink:href="#f3_l" transform="matrix(12.5,0,0,12.3,102.9,1010.4)" />
<use xlink:href="#f3_o" transform="matrix(12.5,0,0,12.3,133.6,1010.4)" />
<use xlink:href="#f3_n" transform="matrix(12.5,0,0,12.3,170,1010.4)" />
<use xlink:href="#f3_k" transform="matrix(12.5,0,0,12.3,205.3,1010.4)" />
<use xlink:href="#f3_s" transform="matrix(12.5,0,0,12.3,102.3,1038.1)" />
<use xlink:href="#f3_l" transform="matrix(12.5,0,0,12.3,139.3,1038.1)" />
<use xlink:href="#f3_n" transform="matrix(12.5,0,0,12.3,170,1038.1)" />
<use xlink:href="#f5_h" transform="matrix(12.5,0,0,12.3,92.1,982.7)" />
<use xlink:href="#f5_h" transform="matrix(12.5,0,0,12.3,128.6,982.7)" />
<use xlink:href="#f5_h" transform="matrix(12.5,0,0,12.3,165,982.7)" />
<use xlink:href="#f5_h" transform="matrix(12.5,0,0,12.3,92.8,1010.4)" />
<use xlink:href="#f5_x" transform="matrix(12.5,0,0,12.3,191.1,1010.4)" />
<use xlink:href="#f5_h" transform="matrix(12.5,0,0,12.3,92.2,1038.1)" />
<use xlink:href="#f5_h" transform="matrix(12.5,0,0,12.3,129.3,1038.1)" />
</g>
</g>
<g fill="#000000" >
<use xlink:href="#f3_x" transform="matrix(12,0,0,12,55,1068.8)" />
<use xlink:href="#f6_4y" transform="matrix(12,0,0,12,70.1,1068.8)" />
<use xlink:href="#f3_o" transform="matrix(12,0,0,12,84,1068.8)" />
<use xlink:href="#f3_c" transform="matrix(12,0,0,12,93.2,1068.8)" />
<use xlink:href="#f3_l" transform="matrix(12,0,0,12,99.4,1068.8)" />
<use xlink:href="#f3_m" transform="matrix(12,0,0,12,108.6,1068.8)" />
<use xlink:href="#f3_f" transform="matrix(12,0,0,12,122.1,1068.8)" />
<use xlink:href="#f3_n" transform="matrix(12,0,0,12,137.1,1068.8)" />
<use xlink:href="#f3_d" transform="matrix(12,0,0,12,146.3,1068.8)" />
<use xlink:href="#f3_f" transform="matrix(12,0,0,12,157,1068.8)" />
<use xlink:href="#f3_q" transform="matrix(12,0,0,12,172,1068.8)" />
<use xlink:href="#f3_c" transform="matrix(12,0,0,12,180.8,1068.8)" />
<use xlink:href="#f6_4y" transform="matrix(12,0,0,12,187.1,1068.8)" />
<use xlink:href="#f3_n" transform="matrix(12,0,0,12,196.2,1068.8)" />
<use xlink:href="#f3_f" transform="matrix(12,0,0,12,210.2,1068.8)" />
<use xlink:href="#f3_m" transform="matrix(12,0,0,12,225.2,1068.8)" />
<use xlink:href="#f3_o" transform="matrix(12,0,0,12,234.3,1068.8)" />
<use xlink:href="#f3_d" transform="matrix(12,0,0,12,243.1,1068.8)" />
<use xlink:href="#f6_4y" transform="matrix(12,0,0,12,254.2,1068.8)" />
<use xlink:href="#f3_m" transform="matrix(12,0,0,12,267.8,1068.8)" />
<use xlink:href="#f3_c" transform="matrix(12,0,0,12,276.9,1068.8)" />
<use xlink:href="#f3_l" transform="matrix(12,0,0,12,283.2,1068.8)" />
<use xlink:href="#f3_f" transform="matrix(12,0,0,12,296.7,1068.8)" />
<use xlink:href="#f3_n" transform="matrix(12,0,0,12,311.7,1068.8)" />
<use xlink:href="#f3_m" transform="matrix(12,0,0,12,320.9,1068.8)" />
<use xlink:href="#f3_d" transform="matrix(12,0,0,12,330.1,1068.8)" />
<use xlink:href="#f3_x" transform="matrix(12,0,0,12,55,1093.3)" />
<use xlink:href="#f6_4y" transform="matrix(12,0,0,12,70.1,1093.3)" />
<use xlink:href="#f3_q" transform="matrix(12,0,0,12,84,1093.3)" />
<use xlink:href="#f3_k" transform="matrix(12,0,0,12,93.2,1093.3)" />
<use xlink:href="#f3_f" transform="matrix(12,0,0,12,107.1,1093.3)" />
<use xlink:href="#f3_l" transform="matrix(12,0,0,12,121.7,1093.3)" />
<use xlink:href="#f3_m" transform="matrix(12,0,0,12,130.9,1093.3)" />
<use xlink:href="#f3_q" transform="matrix(12,0,0,12,140.1,1093.3)" />
<use xlink:href="#f6_4y" transform="matrix(12,0,0,12,154.1,1093.3)" />
<use xlink:href="#f3_q" transform="matrix(12,0,0,12,167.6,1093.3)" />
<use xlink:href="#f3_q" transform="matrix(12,0,0,12,176.8,1093.3)" />
<use xlink:href="#f3_x" transform="matrix(12,0,0,12,190.7,1093.3)" />
<use xlink:href="#f3_k" transform="matrix(12,0,0,12,205.7,1093.3)" />
<use xlink:href="#f3_2j" transform="matrix(12,0,0,12,219.3,1093.3)" />
<use xlink:href="#f3_24" transform="matrix(12,0,0,12,232.5,1093.3)" />
<use xlink:href="#f3_25" transform="matrix(12,0,0,12,241.7,1093.3)" />
<use xlink:href="#f3_1z" transform="matrix(12,0,0,12,246.1,1093.3)" />
<use xlink:href="#f3_24" transform="matrix(12,0,0,12,254.5,1093.3)" />
<use xlink:href="#f3_25" transform="matrix(12,0,0,12,268.4,1093.3)" />
<use xlink:href="#f3_2f" transform="matrix(12,0,0,12,273.2,1093.3)" />
<use xlink:href="#f3_2g" transform="matrix(12,0,0,12,284.9,1093.3)" />
<use xlink:href="#f3_2e" transform="matrix(12,0,0,12,290.3,1093.3)" />
<use xlink:href="#f3_2h" transform="matrix(12,0,0,12,296.6,1093.3)" />
<use xlink:href="#f3_21" transform="matrix(12,0,0,12,305.7,1093.3)" />
<use xlink:href="#f3_18" transform="matrix(12,0,0,12,55,1117.5)" />
<use xlink:href="#f3_21" transform="matrix(12,0,0,12,68.3,1117.5)" />
<use xlink:href="#f3_2a" transform="matrix(12,0,0,12,76.3,1117.5)" />
<use xlink:href="#f3_1z" transform="matrix(12,0,0,12,85.1,1117.5)" />
<use xlink:href="#f3_21" transform="matrix(12,0,0,12,93.5,1117.5)" />
<use xlink:href="#f3_g" transform="matrix(12,0,0,12,101.6,1117.5)" />
<use xlink:href="#f3_2c" transform="matrix(12,0,0,12,111.1,1117.5)" />
<use xlink:href="#f3_2b" transform="matrix(12,0,0,12,120.2,1117.5)" />
<use xlink:href="#f3_25" transform="matrix(12,0,0,12,129.8,1117.5)" />
<use xlink:href="#f3_2a" transform="matrix(12,0,0,12,134.5,1117.5)" />
<use xlink:href="#f3_2g" transform="matrix(12,0,0,12,143.3,1117.5)" />
<use xlink:href="#f3_2f" transform="matrix(12,0,0,12,148.8,1117.5)" />
<use xlink:href="#f3_1x" transform="matrix(12,0,0,12,160.5,1117.5)" />
<use xlink:href="#f3_2e" transform="matrix(12,0,0,12,168.6,1117.5)" />
<use xlink:href="#f3_21" transform="matrix(12,0,0,12,174.8,1117.5)" />
<use xlink:href="#f3_1z" transform="matrix(12,0,0,12,187.6,1117.5)" />
<use xlink:href="#f3_2b" transform="matrix(12,0,0,12,195.3,1117.5)" />
<use xlink:href="#f3_2c" transform="matrix(12,0,0,12,204.8,1117.5)" />
<use xlink:href="#f3_28" transform="matrix(12,0,0,12,214,1117.5)" />
<use xlink:href="#f3_1x" transform="matrix(12,0,0,12,218.4,1117.5)" />
<use xlink:href="#f3_2a" transform="matrix(12,0,0,12,226.8,1117.5)" />
<use xlink:href="#f3_1x" transform="matrix(12,0,0,12,235.6,1117.5)" />
<use xlink:href="#f3_2e" transform="matrix(12,0,0,12,243.7,1117.5)" />
<use xlink:href="#f3_i" transform="matrix(12,0,0,12,249.9,1117.5)" />
</g>
<path fill-rule="evenodd" d="M37.4,38.1h.7v-.7h-.7v.7Z" class="g13_86" />
<path fill-rule="evenodd" d="M37.4,38.1h.7v-.7h-.7v.7Z" class="g13_86" />
<path fill-rule="evenodd" d="M38.1,38.1H871.5v-.7H38.1v.7Z" class="g13_86" />
<path fill-rule="evenodd" d="M871.5,38.1h.8v-.7h-.8v.7Z" class="g13_86" />
<path fill-rule="evenodd" d="M871.5,38.1h.8v-.7h-.8v.7Z" class="g13_86" />
<path fill-rule="evenodd" d="M37.4,1248.5h.7V38.1h-.7V1248.5Z" class="g13_86" />
<path fill-rule="evenodd" d="M872.3,1248.5h.7V38.1h-.7V1248.5Z" class="g13_86" />
<path fill-rule="evenodd" d="M871.5,1248.5h.8V38.1h-.8V1248.5Z" class="g13_86" />
<path fill-rule="evenodd" d="M37.4,1249.2h.7v-.7h-.7v.7Z" class="g13_86" />
<path fill-rule="evenodd" d="M37.4,1249.2h.7v-.7h-.7v.7Z" class="g13_86" />
<path fill-rule="evenodd" d="M38.1,1249.9H871.5v-.7H38.1v.7Z" class="g13_86" />
<path fill-rule="evenodd" d="M38.1,1249.2H871.5v-.7H38.1v.7Z" class="g13_86" />
<path fill-rule="evenodd" d="M872.3,1249.9h.7v-1.4h-.7v1.4Z" class="g13_86" />
<path fill-rule="evenodd" d="M871.5,1249.9H873v-.7h-1.5v.7Z" class="g13_86" />
<path fill-rule="evenodd" d="M871.5,1249.2h.8v-.7h-.8v.7Z" class="g13_86" />
<path fill-rule="evenodd" d="M871.5,1249.2h.8v-.7h-.8v.7Z" class="g13_86" />
<defs>
<path d="M489,-15c0,0,-99,0,-179,30c0,0,-80,30,-136,91c0,0,-56,61,-85,152c0,0,-30,91,-30,212c0,0,0,123,32,218c0,0,33,96,92,161c0,0,59,65,142,98c0,0,82,34,181,34c0,0,40,0,78,-7c0,0,37,-7,69,-18c0,0,31,-11,57,-25c0,0,25,-14,35,-24c0,0,10,-10,14,-17c0,0,4,-7,6,-17c0,0,2,-11,3,-25c0,0,2,-14,2,-35c0,0,0,-22,-2,-38c0,0,-1,-15,-5,-25c0,0,-4,-10,-9,-14c0,0,-5,-5,-12,-5c0,0,-11,0,-28,13c0,0,-18,13,-45,29c0,0,-27,16,-65,29c0,0,-37,13,-89,13c0,0,-58,0,-103,-23c0,0,-45,-23,-77,-67c0,0,-31,-44,-48,-106c0,0,-16,-61,-16,-139c0,0,0,-85,17,-147c0,0,18,-62,50,-103c0,0,33,-40,79,-60c0,0,45,-19,103,-19c0,0,52,0,90,12c0,0,38,12,65,27c0,0,27,15,45,27c0,0,17,12,27,12c0,0,8,0,12,-3c0,0,4,-3,7,-12c0,0,3,-9,5,-25c0,0,1,-16,1,-43c0,0,0,-18,-1,-31c0,0,-1,-14,-3,-23c0,0,-2,-9,-6,-16c0,0,-4,-7,-12,-15c0,0,-8,-9,-32,-22c0,0,-23,-14,-57,-26C661,13,627,1,583,-6c0,0,-43,-9,-94,-9Z" 
id="f0_j"
transform="scale(0.001,-0.001)" />

<path d="M440,150c0,0,41,0,68,8c0,0,28,9,49,26c0,0,20,16,32,41c0,0,11,25,11,58c0,0,0,33,-11,60c0,0,-11,26,-33,44c0,0,-21,18,-55,28c0,0,-33,9,-87,9H298V150ZM407,567c0,0,42,0,68,10c0,0,25,10,42,28c0,0,16,17,24,41c0,0,9,24,9,50c0,0,0,29,-9,52c0,0,-9,23,-27,39c0,0,-18,15,-45,23c0,0,-27,8,-72,8H298V567ZM164,0c0,0,-25,0,-42,15c0,0,-16,14,-16,47V903c0,0,0,33,16,48c0,0,17,14,42,14H406c0,0,88,0,150,-15c0,0,61,-15,103,-45c0,0,42,-30,65,-77c0,0,22,-46,22,-108c0,0,0,-36,-9,-67c0,0,-9,-31,-26,-56c0,0,-17,-25,-42,-45c0,0,-25,-19,-57,-31c0,0,41,-7,76,-26c0,0,34,-19,60,-48c0,0,26,-30,41,-69c0,0,15,-40,15,-89c0,0,0,-51,-14,-93c0,0,-15,-42,-40,-74c0,0,-25,-32,-59,-55c0,0,-35,-23,-77,-38C614,29,573,14,525,7C525,7,478,0,420,0Z" 
id="f0_i"
transform="scale(0.001,-0.001)" />

<path d="M320,-17c0,0,-50,0,-93,9c0,0,-43,8,-76,19c0,0,-32,11,-54,24C97,35,75,48,65,58c0,0,-10,9,-14,28c0,0,-4,18,-4,52c0,0,0,23,1,39c0,0,2,15,5,25c0,0,4,10,9,14c0,0,6,4,13,4c0,0,11,0,30,-12c0,0,19,-13,49,-28c0,0,30,-15,71,-27c0,0,42,-12,96,-12c0,0,36,0,64,8c0,0,29,9,49,25c0,0,19,15,30,38c0,0,10,23,10,52c0,0,0,33,-18,56c0,0,-18,24,-46,42c0,0,-29,18,-66,34c0,0,-36,16,-75,34c0,0,-39,18,-76,41c0,0,-36,23,-65,54c0,0,-29,32,-47,75c0,0,-17,44,-17,104c0,0,0,70,25,122c0,0,26,53,70,88c0,0,43,34,103,51c0,0,59,18,125,18c0,0,35,0,69,-6c0,0,34,-5,64,-14c0,0,30,-9,53,-20c0,0,23,-11,31,-18c0,0,7,-8,10,-13c0,0,3,-5,4,-14c0,0,2,-8,3,-21c0,0,1,-13,1,-33c0,0,0,-21,-1,-36c0,0,-1,-15,-4,-25c0,0,-3,-9,-7,-14c0,0,-5,-4,-14,-4c0,0,-8,0,-26,10c0,0,-18,10,-44,23c0,0,-26,12,-60,22c0,0,-34,10,-75,10c0,0,-32,0,-56,-8c0,0,-24,-8,-40,-21c0,0,-16,-14,-24,-34c0,0,-8,-19,-8,-41c0,0,0,-32,18,-56c0,0,17,-23,46,-42c0,0,30,-18,67,-34c0,0,38,-16,76,-34c0,0,39,-18,76,-41c0,0,38,-22,67,-54c0,0,29,-32,47,-75c0,0,18,-43,18,-101c0,0,0,-76,-29,-133c0,0,-28,-58,-77,-96C572,60,524,21,459,2c0,0,-65,-19,-139,-19Z" 
id="f0_2n"
transform="scale(0.001,-0.001)" />

<path d="M164,0c0,0,-25,0,-42,15c0,0,-16,14,-16,47V903c0,0,0,33,16,48c0,0,17,14,42,14H645c0,0,7,0,12,-4c0,0,5,-3,9,-13c0,0,4,-9,6,-24c0,0,2,-14,2,-36c0,0,0,-21,-2,-36c0,0,-2,-14,-6,-23c0,0,-4,-9,-9,-13c0,0,-5,-4,-12,-4H301V576H593c0,0,6,0,12,-4c0,0,6,-4,9,-13c0,0,4,-8,6,-23c0,0,2,-14,2,-35c0,0,0,-22,-2,-36c0,0,-2,-14,-6,-23c0,0,-3,-8,-9,-12c0,0,-6,-4,-12,-4H301V154H649c0,0,6,0,12,-5c0,0,5,-4,9,-13c0,0,4,-9,6,-23c0,0,2,-15,2,-36c0,0,0,-22,-2,-36c0,0,-2,-15,-6,-24c0,0,-4,-9,-9,-13c0,0,-6,-4,-12,-4Z" 
id="f0_t"
transform="scale(0.001,-0.001)" />

<path d="M79,297c0,0,-19,0,-27,18c0,0,-8,17,-8,60c0,0,0,41,8,59c0,0,8,17,27,17H389c0,0,9,0,15,-4c0,0,7,-4,11,-13c0,0,5,-9,7,-23c0,0,1,-15,1,-36c0,0,0,-43,-8,-61c0,0,-8,-17,-26,-17Z" 
id="f0_oj"
transform="scale(0.001,-0.001)" />

<path d="M121,-4c0,0,-39,0,-60,2C61,-2,39,0,32,8c0,0,-8,8,-3,24c0,0,4,15,18,41L279,495L64,892c0,0,-14,26,-19,42c0,0,-5,17,4,24c0,0,9,8,32,10c0,0,23,2,65,2c0,0,35,0,56,-2c0,0,20,-1,32,-4c0,0,12,-4,17,-10c0,0,5,-6,9,-15L431,620L595,939c0,0,5,9,10,15c0,0,5,6,16,10c0,0,10,3,29,4c0,0,19,2,53,2c0,0,37,0,59,-2c0,0,22,-2,30,-10c0,0,8,-8,4,-24c0,0,-4,-16,-17,-42L564,497L793,73c0,0,14,-26,18,-41c0,0,4,-16,-5,-24c0,0,-9,-8,-32,-10c0,0,-24,-2,-65,-2c0,0,-36,0,-56,2c0,0,-20,1,-31,3c0,0,-12,4,-17,10c0,0,-5,6,-9,15L414,374L233,26c0,0,-4,-9,-9,-15c0,0,-6,-6,-17,-10c0,0,-12,-2,-32,-3c0,0,-21,-2,-54,-2Z" 
id="f0_3e"
transform="scale(0.001,-0.001)" />

<path d="M204,-4c0,0,-28,0,-47,2c0,0,-19,2,-31,5c0,0,-11,4,-16,10c0,0,-4,6,-4,13V939c0,0,0,7,4,13c0,0,5,6,17,10c0,0,11,3,30,6c0,0,19,2,47,2c0,0,29,0,48,-2c0,0,18,-3,29,-6c0,0,11,-4,16,-10c0,0,5,-6,5,-13V26c0,0,0,-7,-5,-13c0,0,-5,-6,-16,-10c0,0,-11,-3,-29,-5c0,0,-19,-2,-48,-2Z" 
id="f0_1c"
transform="scale(0.001,-0.001)" />

<path d="M127,0c0,0,-16,0,-28,3C99,3,87,6,80,15c0,0,-8,8,-11,25c0,0,-3,16,-3,42c0,0,0,25,2,42c0,0,2,18,8,32c0,0,6,14,15,27c0,0,9,13,24,29L282,390c0,0,50,53,81,95c0,0,30,43,47,79c0,0,17,35,24,65c0,0,6,30,6,57c0,0,0,24,-8,46c0,0,-8,22,-23,39c0,0,-15,16,-38,25c0,0,-23,10,-55,10c0,0,-44,0,-78,-12c0,0,-33,-11,-59,-25c0,0,-26,-13,-43,-25c0,0,-17,-12,-27,-12c0,0,-7,0,-11,5c0,0,-5,4,-8,15c0,0,-3,10,-5,28c0,0,-2,17,-2,42c0,0,0,18,1,29c0,0,1,12,4,20c0,0,2,9,6,15c0,0,3,6,13,15c0,0,9,9,34,23c0,0,25,14,61,27c0,0,37,14,81,23c0,0,44,9,92,9c0,0,75,0,131,-19c0,0,57,-19,94,-53c0,0,37,-34,55,-81c0,0,19,-47,19,-100c0,0,0,-47,-9,-93c0,0,-9,-45,-37,-98c0,0,-29,-52,-80,-116c0,0,-52,-64,-136,-148L299,159H679c0,0,8,0,14,-4c0,0,6,-5,11,-14c0,0,4,-9,7,-25c0,0,2,-15,2,-36c0,0,0,-22,-2,-37c0,0,-2,-15,-6,-25c0,0,-3,-10,-9,-14c0,0,-6,-4,-14,-4Z" 
id="f0_rz"
transform="scale(0.001,-0.001)" />

<path d="M385,138c0,0,29,0,52,9c0,0,22,10,39,28c0,0,17,19,28,47c0,0,11,29,19,66c0,0,7,37,9,84c0,0,3,47,3,104c0,0,0,69,-4,122c0,0,-4,52,-11,91c0,0,-8,39,-20,66c0,0,-12,27,-28,43c0,0,-16,16,-37,22c0,0,-21,7,-47,7c0,0,-44,0,-73,-21c0,0,-28,-21,-45,-64c0,0,-17,-42,-24,-106c0,0,-6,-63,-6,-148c0,0,0,-103,8,-171c0,0,8,-67,26,-107c0,0,17,-40,45,-56c0,0,27,-16,66,-16ZM378,-17c0,0,-99,0,-164,33c0,0,-65,34,-103,98c0,0,-38,64,-54,156c0,0,-15,92,-15,209c0,0,0,115,19,208c0,0,19,94,61,160c0,0,42,65,110,101c0,0,68,35,165,35c0,0,99,0,164,-34c0,0,65,-34,103,-98c0,0,39,-64,53,-156c0,0,15,-92,15,-209c0,0,0,-115,-18,-209c0,0,-19,-93,-61,-159C653,118,611,53,543,17c0,0,-67,-34,-165,-34Z" 
id="f0_rx"
transform="scale(0.001,-0.001)" />

<path d="M142,0c0,0,-6,0,-12,4c0,0,-5,3,-9,12c0,0,-4,9,-6,23c0,0,-3,15,-3,36c0,0,0,21,2,36c0,0,2,14,6,23c0,0,4,9,10,13c0,0,5,5,12,5H322V779L166,693c0,0,-17,-8,-28,-10c0,0,-1,0,-3,0c-4,0,-10,1,-14,5c0,0,-6,6,-8,22c0,0,-2,15,-2,44c0,0,0,18,0,29c0,0,1,12,4,20c0,0,3,8,8,14c0,0,5,5,14,11L345,962c0,0,4,3,9,5c0,0,6,2,15,3c0,0,9,1,23,2c0,0,15,0,38,0c0,0,28,0,46,-1c0,0,17,-1,26,-4c0,0,9,-3,12,-7c0,0,3,-4,3,-11V152H675c0,0,7,0,12,-5c0,0,6,-4,10,-13c0,0,4,-9,6,-23c0,0,2,-15,2,-36c0,0,0,-21,-2,-36c0,0,-3,-14,-7,-23c0,0,-4,-9,-9,-12c0,0,-5,-4,-12,-4Z" 
id="f0_ry"
transform="scale(0.001,-0.001)" />

<path d="M398,134c0,0,34,0,60,12c0,0,25,13,43,36c0,0,17,23,26,54c0,0,9,31,9,68c0,0,0,38,-7,66c0,0,-7,29,-22,49c0,0,-15,20,-39,30c0,0,-25,10,-60,10c0,0,-21,0,-41,-4c0,0,-20,-4,-40,-10c0,0,-19,-7,-37,-16c0,0,-18,-10,-33,-20c0,0,0,-80,9,-133c0,0,9,-54,26,-85c0,0,18,-31,44,-44c0,0,27,-13,62,-13ZM387,-16c0,0,-67,0,-117,15c0,0,-50,14,-86,43c0,0,-37,29,-60,70c0,0,-23,41,-37,92c0,0,-14,52,-19,112c0,0,-5,61,-5,129c0,0,0,56,5,118c0,0,6,62,22,122c0,0,16,59,45,114c0,0,29,54,75,94c0,0,46,41,111,65c0,0,65,24,155,24c0,0,28,0,57,-4c0,0,29,-3,53,-8c0,0,25,-5,42,-12c0,0,17,-7,23,-12c0,0,5,-5,8,-11c0,0,3,-5,5,-13c0,0,2,-7,3,-17c0,0,1,-11,1,-25c0,0,0,-24,-1,-39c0,0,-2,-15,-5,-24c0,0,-3,-8,-8,-12c0,0,-5,-4,-12,-4c0,0,-9,0,-24,5c0,0,-14,5,-34,11c0,0,-20,6,-47,10c0,0,-27,5,-63,5c0,0,-61,0,-102,-23c0,0,-42,-22,-68,-60c0,0,-26,-39,-38,-90c0,0,-12,-50,-13,-107c0,0,16,10,38,21c0,0,21,10,46,18c0,0,25,7,54,12c0,0,29,5,62,5c0,0,73,0,125,-20c0,0,52,-20,86,-58c0,0,33,-37,48,-90c0,0,16,-53,16,-118c0,0,0,-73,-22,-135c0,0,-23,-62,-66,-108C640,79,597,34,533,9c0,0,-63,-25,-146,-25Z" 
id="f0_s3"
transform="scale(0.001,-0.001)" />

<path d="M589,371L453,782h-1L317,371ZM106,-4c0,0,-35,0,-54,2C52,-2,32,0,25,8c0,0,-7,9,-5,24c0,0,2,16,11,42L329,931c0,0,4,13,10,21c0,0,6,7,19,12c0,0,13,4,36,5c0,0,23,1,61,1c0,0,44,0,71,-1c0,0,26,-1,40,-5c0,0,15,-5,21,-13c0,0,6,-8,11,-22L896,73c0,0,9,-27,11,-43c0,0,3,-15,-6,-23c0,0,-8,-7,-29,-9c0,0,-21,-2,-57,-2c0,0,-38,0,-59,1c0,0,-22,1,-33,4c0,0,-11,3,-16,9c0,0,-4,6,-7,16L635,220H272L211,31c0,0,-2,-11,-7,-18c0,0,-5,-7,-16,-11c0,0,-11,-3,-31,-4c0,0,-19,-2,-51,-2Z" 
id="f0_5"
transform="scale(0.001,-0.001)" />

<path d="M198,-4c0,0,-27,0,-45,2c0,0,-18,2,-28,5c0,0,-11,4,-15,10c0,0,-4,6,-4,13V887c0,0,0,38,20,58c0,0,20,20,53,20H308c0,0,34,0,59,-6c0,0,24,-5,42,-18c0,0,18,-13,30,-35c0,0,12,-21,21,-52L669,279h3L889,852c0,0,9,32,21,53c0,0,11,22,27,35c0,0,15,14,36,19c0,0,21,6,48,6h132c0,0,21,0,35,-5c0,0,15,-5,24,-15c0,0,9,-11,14,-25c0,0,5,-15,5,-33V26c0,0,0,-7,-4,-13c0,0,-4,-6,-15,-10c0,0,-11,-3,-29,-5c0,0,-18,-2,-45,-2c0,0,-27,0,-45,2c0,0,-18,2,-28,5c0,0,-11,4,-15,10c0,0,-5,6,-5,13V813h-1L764,27c0,0,-3,-10,-10,-16c0,0,-6,-6,-18,-10c0,0,-12,-3,-29,-4c0,0,-18,-1,-44,-1c0,0,-25,0,-43,2c0,0,-18,2,-29,5c0,0,-12,4,-19,10c0,0,-6,6,-9,14L293,813h-2V26c0,0,0,-7,-4,-13c0,0,-4,-6,-15,-10c0,0,-11,-3,-29,-5c0,0,-17,-2,-45,-2Z" 
id="f0_1x"
transform="scale(0.001,-0.001)" />

<path d="M193,-4c0,0,-26,0,-43,2c0,0,-18,2,-27,6c0,0,-10,4,-14,10c0,0,-3,6,-3,13V895c0,0,0,35,20,53c0,0,21,17,50,17H282c0,0,28,0,47,-5c0,0,20,-5,35,-16c0,0,15,-11,29,-31c0,0,13,-20,27,-49L608,511c0,0,17,-32,33,-63c0,0,16,-31,31,-62c0,0,14,-31,29,-60c0,0,14,-30,27,-60h1c0,0,-2,52,-3,109c0,0,-1,57,-1,108V936c0,0,0,7,4,13c0,0,5,6,15,11c0,0,10,4,28,6c0,0,17,2,44,2c0,0,25,0,42,-2c0,0,17,-2,27,-6c0,0,9,-5,13,-11c0,0,4,-6,4,-13V68c0,0,0,-17,-6,-30c0,0,-6,-14,-17,-23C879,15,869,6,856,2c0,0,-14,-3,-28,-3H744c0,0,-26,0,-45,4c0,0,-19,5,-35,19c0,0,-16,14,-31,38c0,0,-15,23,-34,60L359,572c0,0,-21,40,-43,86c0,0,-21,47,-38,91h-2c0,0,3,-54,5,-107c0,0,2,-53,2,-110V27c0,0,0,-7,-5,-13c0,0,-4,-6,-14,-10c0,0,-10,-4,-27,-6c0,0,-17,-2,-44,-2Z" 
id="f0_1y"
transform="scale(0.001,-0.001)" />

<path d="M378,-4c0,0,-28,0,-47,2c0,0,-19,2,-31,5c0,0,-11,4,-16,10c0,0,-4,6,-4,13V805H38c0,0,-8,0,-13,4c0,0,-5,5,-9,14c0,0,-3,9,-5,25c0,0,-2,15,-2,37c0,0,0,22,2,38c0,0,2,15,5,25c0,0,4,9,9,13c0,0,5,4,13,4H718c0,0,7,0,12,-4c0,0,6,-4,10,-13c0,0,3,-10,5,-25c0,0,2,-16,2,-38c0,0,0,-22,-2,-37c0,0,-2,-16,-5,-25c0,0,-4,-9,-10,-14c0,0,-5,-4,-12,-4H476V26c0,0,0,-7,-5,-13c0,0,-5,-6,-16,-10c0,0,-11,-3,-30,-5c0,0,-19,-2,-47,-2Z" 
id="f0_2t"
transform="scale(0.001,-0.001)" />

<path d="M514,145c0,0,72,0,121,27c0,0,48,26,78,73c0,0,30,46,42,107c0,0,13,62,13,131c0,0,0,76,-12,139c0,0,-12,62,-41,106c0,0,-29,45,-76,69c0,0,-48,24,-120,24c0,0,-72,0,-120,-27c0,0,-49,-27,-79,-73c0,0,-29,-45,-42,-106c0,0,-12,-61,-12,-129c0,0,0,-79,12,-142c0,0,12,-63,40,-108c0,0,28,-44,76,-68c0,0,48,-23,120,-23ZM508,-17c0,0,-113,0,-196,29c0,0,-84,29,-140,90c0,0,-56,60,-84,154c0,0,-28,93,-28,221c0,0,0,117,29,210c0,0,30,94,89,160c0,0,59,65,146,101c0,0,87,35,202,35c0,0,110,0,194,-29c0,0,84,-30,140,-90c0,0,56,-60,85,-153c0,0,29,-92,29,-217c0,0,0,-120,-30,-215c0,0,-30,-95,-89,-161C855,118,796,52,709,17c0,0,-87,-34,-201,-34Z" 
id="f0_24"
transform="scale(0.001,-0.001)" />

<path d="M402,179c0,0,58,0,100,45c0,0,42,45,42,107c0,0,0,65,-41,108c0,0,-41,44,-101,44c0,0,-65,0,-110,-44c0,0,-45,-45,-45,-109c0,0,0,-64,45,-107c0,0,44,-44,110,-44ZM390,-11c0,0,-150,0,-247,94c0,0,-97,96,-97,243c0,0,0,106,48,217c0,0,49,111,108,194L356,952H605L372,631c0,0,48,9,88,9c0,0,123,0,212,-91c0,0,89,-92,89,-219c0,0,0,-148,-105,-245c0,0,-105,-96,-266,-96Z" 
id="f1_q"
transform="scale(0.001,-0.001)" />

<path d="M44,-281L425,1053H537L156,-281Z" 
id="f1_j"
transform="scale(0.001,-0.001)" />

<path d="M299,0V777H162l36,173H508V0Z" 
id="f1_l"
transform="scale(0.001,-0.001)" />

<path d="M404,-11c0,0,-136,0,-225,76c0,0,-90,78,-111,215H265c0,0,35,-136,135,-136c0,0,50,0,85,35c0,0,34,36,34,88c0,0,0,64,-41,105c0,0,-42,41,-107,41H336V573h21c0,0,68,0,109,33c0,0,41,34,41,89c0,0,0,50,-32,85c0,0,-32,35,-79,35c0,0,-110,0,-127,-135H76c0,0,9,130,96,209c0,0,87,79,208,79c0,0,134,0,227,-76c0,0,94,-75,94,-182c0,0,0,-116,-115,-210c0,0,73,-46,107,-96c0,0,34,-51,34,-121c0,0,0,-134,-88,-214c0,0,-89,-80,-235,-80Z" 
id="f1_n"
transform="scale(0.001,-0.001)" />

<path d="M122,0V64L295,82V837L123,780v64l282,165H511V82L685,64V0Z" 
id="f2_l"
transform="scale(0.001,-0.001)" />

<path d="M346,-14c0,0,-139,0,-276,29L61,258h69L169,96c0,0,29,-16,71,-26c0,0,43,-10,77,-10c0,0,172,0,172,230c0,0,0,120,-44,174c0,0,-44,53,-139,53c0,0,-53,0,-97,-19L186,488H111v512H633V834H194V571c0,0,91,21,164,21c0,0,178,0,264,-74c0,0,86,-73,86,-220c0,0,0,-151,-94,-232c0,0,-93,-80,-268,-80Z" 
id="f2_p"
transform="scale(0.001,-0.001)" />

<path d="M191,-20c0,0,-51,0,-88,34c0,0,-36,36,-36,88c0,0,0,52,36,88c0,0,36,36,88,36c0,0,51,0,88,-36c0,0,36,-36,36,-88c0,0,0,-51,-36,-87c0,0,-36,-35,-88,-35Z" 
id="f2_i"
transform="scale(0.001,-0.001)" />

<path d="M54,0V40L172,60V941L44,960v40H794V760H745L721,922c0,0,-83,11,-241,11H316V516H611l23,120h46V328H634L611,449H316V60L483,40V0Z" 
id="f3_16"
transform="scale(0.001,-0.001)" />

<path d="M32,0V33L151,52V649L52,668v33H275V52L395,33V0ZM201,850c0,0,-32,0,-56,24c0,0,-24,24,-24,56c0,0,0,34,24,58c0,0,24,24,56,24c0,0,34,0,58,-24c0,0,24,-24,24,-58c0,0,0,-32,-24,-56c0,0,-24,-24,-58,-24Z" 
id="f3_25"
transform="scale(0.001,-0.001)" />

<path d="M439,0V33l93,19V500c0,0,0,62,-30,97c0,0,-31,36,-94,36c0,0,-67,0,-165,-22V52L338,33V0H35V33l84,19V649L35,668v33H235l7,-57c0,0,57,33,122,54c0,0,65,22,108,22c0,0,91,0,137,-53c0,0,47,-53,47,-154V52L741,33V0Z" 
id="f3_2a"
transform="scale(0.001,-0.001)" />

<path d="M383,64c0,0,85,0,152,28V645c0,0,-67,13,-152,13c0,0,-194,0,-194,-314c0,0,0,-141,48,-211c0,0,48,-69,146,-69ZM342,-14c0,0,-287,0,-287,358c0,0,0,184,82,280c0,0,81,96,239,96c0,0,81,0,163,-18c0,0,-4,25,-4,124v182l-118,18v34H659V52L745,33V0H548l-9,52c0,0,-84,-66,-197,-66Z" 
id="f3_20"
transform="scale(0.001,-0.001)" />

<path d="M249,-14c0,0,-71,0,-107,42c0,0,-35,42,-35,119V639H15v33l93,29l76,159h47V701H391V639H231V161c0,0,0,-48,22,-73c0,0,22,-24,57,-24c0,0,44,0,106,12V26C416,26,389,8,340,-2c0,0,-49,-12,-91,-12Z" 
id="f3_2g"
transform="scale(0.001,-0.001)" />

<path d="M442,0V33l93,19V504c0,0,0,129,-124,129c0,0,-70,0,-168,-22V52L338,33V0H31V33l88,19v956L15,1026v34H243V756c0,0,0,-77,-5,-112c0,0,54,31,122,53c0,0,68,23,115,23c0,0,91,0,137,-53c0,0,47,-53,47,-154V52L744,33V0Z" 
id="f3_24"
transform="scale(0.001,-0.001)" />

<path d="M495,413c0,0,0,133,-34,190c0,0,-34,57,-105,57c0,0,-78,0,-119,-63c0,0,-42,-62,-42,-184ZM374,-14c0,0,-163,0,-239,87c0,0,-75,88,-75,283c0,0,0,183,77,273c0,0,76,91,219,91c0,0,269,0,269,-306V353H194V340c0,0,0,-103,23,-160c0,0,22,-57,70,-87c0,0,47,-29,124,-29c0,0,40,0,96,6c0,0,55,7,91,15V43C598,43,562,20,500,3c0,0,-61,-17,-126,-17Z" 
id="f3_21"
transform="scale(0.001,-0.001)" />

<path d="M382,45c0,0,188,0,188,314c0,0,0,143,-47,213c0,0,-46,69,-141,69c0,0,-87,0,-146,-24V58c0,0,67,-13,146,-13ZM25,-325v35l88,18V649L34,668v33H231l1,-41c0,0,31,27,84,43c0,0,53,17,107,17c0,0,134,0,208,-94c0,0,73,-93,73,-267c0,0,0,-178,-80,-276c0,0,-80,-97,-232,-97c0,0,-84,0,-160,16c0,0,4,-53,4,-84V-272l123,-18v-35Z" 
id="f3_2c"
transform="scale(0.001,-0.001)" />

<path d="M284,67c0,0,51,0,88,12c0,0,37,12,74,30V358l-98,-3c0,0,-100,-4,-135,-39c0,0,-35,-35,-35,-117c0,0,0,-132,106,-132ZM233,-14c0,0,-179,0,-179,208c0,0,0,70,27,116c0,0,27,46,87,70c0,0,60,24,173,27l105,3V519c0,0,0,72,-26,107c0,0,-27,34,-82,34c0,0,-75,0,-137,-35L176,538H134V691c0,0,121,26,213,26c0,0,115,0,169,-47c0,0,54,-47,54,-144V52L657,33V0H465L451,70c0,0,-85,-84,-218,-84Z" 
id="f3_1x"
transform="scale(0.001,-0.001)" />

<path d="M31,0V33l88,19V649L31,668v33H235l7,-87c0,0,44,37,121,71c0,0,76,35,121,35h11V530H463l-43,82c0,0,-37,0,-88,-10c0,0,-52,-10,-89,-26V52L363,33V0Z" 
id="f3_2e"
transform="scale(0.001,-0.001)" />

<path d="M399,-14c0,0,-341,0,-341,370c0,0,0,175,87,269c0,0,87,95,249,95c0,0,101,0,220,-23V501H573L541,625c0,0,-62,35,-149,35c0,0,-200,0,-200,-304c0,0,0,-158,61,-225c0,0,61,-67,189,-67c0,0,109,0,189,24V43C631,43,595,16,530,1c0,0,-64,-15,-131,-15Z" 
id="f3_1z"
transform="scale(0.001,-0.001)" />

<path d="M289,-14c0,0,-179,0,-179,205V649L20,668v33H233V200c0,0,0,-128,120,-128c0,0,92,0,173,23V649L420,668v33H649V52L738,33V0H533l-6,57C527,57,474,28,405,7c0,0,-69,-21,-116,-21Z" 
id="f3_2h"
transform="scale(0.001,-0.001)" />

<path d="M31,0V33L150,52v956L31,1026v34H274V52L394,33V0Z" 
id="f3_28"
transform="scale(0.001,-0.001)" />

<path d="M278,-14c0,0,-52,0,-115,11c0,0,-63,10,-99,23V193H98L134,95c0,0,56,-50,146,-50c0,0,144,0,144,123c0,0,0,91,-114,130l-66,21c0,0,-75,25,-110,50c0,0,-34,26,-53,63c0,0,-18,36,-18,89c0,0,0,92,63,145c0,0,63,54,170,54c0,0,77,0,193,-23V544H454l-32,81c0,0,-39,35,-124,35c0,0,-61,0,-92,-30c0,0,-32,-30,-32,-80c0,0,0,-43,29,-72c0,0,28,-29,86,-48c0,0,110,-38,144,-55c0,0,33,-17,57,-42c0,0,23,-25,36,-57c0,0,13,-32,13,-79c0,0,0,-104,-66,-158c0,0,-66,-53,-195,-53Z" 
id="f3_2f"
transform="scale(0.001,-0.001)" />

<path d="M377,45c0,0,99,0,147,73c0,0,47,73,47,237c0,0,0,161,-47,233c0,0,-47,72,-147,72c0,0,-97,0,-141,-69c0,0,-44,-69,-44,-236c0,0,0,-169,45,-240c0,0,44,-70,140,-70Zm0,-59c0,0,-158,0,-238,94c0,0,-81,95,-81,274c0,0,0,178,81,272c0,0,80,94,244,94c0,0,160,0,241,-92c0,0,82,-92,82,-274c0,0,0,-368,-329,-368Z" 
id="f3_2b"
transform="scale(0.001,-0.001)" />

<path d="M64,0V34L168,59V639H47v36l121,29v49c0,0,0,155,61,239c0,0,62,84,173,84c0,0,58,0,107,-15V908H472l-33,92c0,0,-26,16,-62,16c0,0,-47,0,-66,-42c0,0,-19,-42,-19,-157V701H478V639H292V59L443,34V0Z" 
id="f3_22"
transform="scale(0.001,-0.001)" />

<path d="M383,64c0,0,44,0,87,7c0,0,43,7,65,17V645c0,0,-67,13,-152,13c0,0,-194,0,-194,-309c0,0,0,-143,48,-214c0,0,47,-71,146,-71Zm56,-389v35l96,18V-77c0,0,0,73,7,124c0,0,-79,-61,-200,-61c0,0,-287,0,-287,362c0,0,0,180,81,276c0,0,81,96,237,96c0,0,84,0,166,-18l67,33h53V-272l77,-18v-35Z" 
id="f3_2d"
transform="scale(0.001,-0.001)" />

<path d="M211,-20c0,0,-39,0,-64,25c0,0,-26,27,-26,64c0,0,0,38,26,64c0,0,26,26,64,26c0,0,37,0,64,-25c0,0,26,-26,26,-65c0,0,0,-37,-26,-64c0,0,-26,-25,-64,-25Zm0,556c0,0,-38,0,-64,26c0,0,-26,26,-26,64c0,0,0,37,26,64c0,0,25,27,64,27c0,0,38,0,64,-27c0,0,26,-27,26,-64c0,0,0,-38,-26,-64c0,0,-27,-26,-64,-26Z" 
id="f3_u"
transform="scale(0.001,-0.001)" />

<path d="M134,0V40L339,60V876L137,804v39l292,166h39V60L672,40V0Z" 
id="f3_l"
transform="scale(0.001,-0.001)" />

<path d="M301,78c0,0,41,0,90,27c0,0,49,28,95,77l81,442c0,0,-26,18,-54,27c0,0,-27,10,-67,10c0,0,-70,0,-131,-55c0,0,-61,-55,-99,-152c0,0,-37,-97,-37,-201c0,0,0,-79,33,-127c0,0,33,-48,89,-48ZM245,-14c0,0,-91,0,-145,68c0,0,-54,69,-54,183c0,0,0,128,55,240c0,0,55,112,150,177c0,0,96,66,210,66c0,0,70,0,123,-18c0,0,3,36,51,306l-115,18l6,34H768L589,52L673,33L667,0H454l22,117C476,117,350,-14,245,-14Z" 
id="f4_20"
transform="scale(0.001,-0.001)" />

<path d="M-15,-329c0,0,-61,0,-112,13l28,152h34l12,-72c0,0,18,-17,60,-17c0,0,100,0,212,202L253,9L116,649L33,668l6,33H230L338,155L513,458c0,0,48,83,48,144c0,0,0,27,-16,44c0,0,-15,16,-33,22l6,33H659c0,0,20,-17,20,-47c0,0,0,-59,-62,-164L322,-7c0,0,-86,-145,-135,-205c0,0,-50,-61,-98,-89c0,0,-49,-28,-104,-28Z" 
id="f4_2l"
transform="scale(0.001,-0.001)" />

<path d="M-6,0c0,0,-12,10,-12,32c0,0,0,21,23,51c0,0,23,31,79,82L287,354L159,649L79,668l6,33H270L378,434l93,88c0,0,47,46,67,72c0,0,19,26,19,44c0,0,0,8,-6,13c0,0,-7,6,-38,17l6,33H651c0,0,16,-12,16,-32c0,0,0,-44,-103,-142L404,377L548,49L634,33L628,0H437L313,298L185,176c0,0,-41,-40,-60,-65c0,0,-19,-26,-19,-48c0,0,0,-21,31,-29L131,0Z" 
id="f4_2k"
transform="scale(0.001,-0.001)" />

<path d="M355,0V355H0v72H355V784h72V427H782V355H427V0Z" 
id="f5_f"
transform="scale(0.001,-0.001)" />

<path d="M0,214v74H784V214ZM0,494v72H784V494Z" 
id="f5_x"
transform="scale(0.001,-0.001)" />

<path d="M0,356v74H784V356Z" 
id="f5_h"
transform="scale(0.001,-0.001)" />

<path d="M359,-270c0,0,124,0,192,46c0,0,67,47,67,129c0,0,0,43,-26,67c0,0,-26,24,-79,24H242c0,0,-32,-27,-51,-69c0,0,-20,-41,-20,-77c0,0,0,-64,46,-92c0,0,46,-28,142,-28Zm11,561c0,0,81,0,115,47c0,0,34,47,34,141c0,0,0,100,-35,142c0,0,-35,42,-113,42c0,0,-78,0,-114,-43c0,0,-37,-42,-37,-141c0,0,0,-98,36,-143c0,0,36,-45,114,-45ZM359,-329c0,0,-143,0,-218,44c0,0,-75,43,-75,125c0,0,0,39,27,78c0,0,26,38,98,89c0,0,-43,14,-72,48c0,0,-29,35,-29,74L208,262c0,0,-118,55,-118,217c0,0,0,115,73,178c0,0,73,63,211,63c0,0,28,0,71,-6c0,0,44,-6,67,-13l165,83l26,-32L599,644c0,0,50,-56,50,-165c0,0,0,-120,-72,-182c0,0,-73,-62,-208,-62c0,0,-62,0,-114,11L208,148c0,0,2,-13,29,-24c0,0,27,-12,67,-12H512c0,0,113,0,168,-49c0,0,55,-49,55,-134c0,0,0,-79,-44,-137c0,0,-43,-58,-128,-90c0,0,-84,-31,-204,-31Z" 
id="f3_23"
transform="scale(0.001,-0.001)" />

<path d="M360,-14L72,649L0,668v33H327V668L216,648L420,164L615,649L504,668v33H764V668L697,652L416,-14Z" 
id="f3_2i"
transform="scale(0.001,-0.001)" />

<path d="M148,-329c0,0,-58,0,-114,13v151H69l24,-71c0,0,23,-17,64,-17c0,0,39,0,72,22c0,0,33,23,60,67c0,0,27,44,68,157L90,649L19,668v33H344V668L233,648L423,158L606,649L497,668v33H758V668L685,652L411,-43c0,0,-48,-124,-84,-177c0,0,-36,-54,-79,-82c0,0,-44,-27,-100,-27Z" 
id="f3_2l"
transform="scale(0.001,-0.001)" />

<path d="M76,316v76H787V316Zm0,306v76H787V622Z" 
id="f3_x"
transform="scale(0.001,-0.001)" />

<path d="M327,-14L84,649L1,668v33H335V668L219,648L385,174L554,632h63L786,171L944,649L830,668v33h267V668l-78,-16L784,-14H726L553,448L382,-14Z" 
id="f3_2j"
transform="scale(0.001,-0.001)" />

<path d="M377,45c0,0,99,0,145,108c0,0,46,109,46,352c0,0,0,240,-45,345c0,0,-46,106,-146,106c0,0,-97,0,-139,-100c0,0,-43,-99,-43,-351c0,0,0,-254,44,-357c0,0,43,-103,138,-103Zm0,-59c0,0,-158,0,-238,132c0,0,-81,133,-81,386c0,0,0,249,81,380c0,0,80,132,244,132c0,0,159,0,241,-130c0,0,82,-130,82,-382c0,0,0,-518,-329,-518Z" 
id="f3_k"
transform="scale(0.001,-0.001)" />

<path d="M191,-20c0,0,-39,0,-65,25c0,0,-25,27,-25,64c0,0,0,38,26,64c0,0,26,26,64,26c0,0,38,0,64,-26c0,0,26,-26,26,-64c0,0,0,-37,-25,-64c0,0,-26,-25,-65,-25Z" 
id="f3_i"
transform="scale(0.001,-0.001)" />

<path d="M410,-14c0,0,-86,0,-175,14C235,0,145,14,81,38V307h66L181,146c0,0,31,-37,94,-62c0,0,64,-24,132,-24c0,0,214,0,214,177c0,0,0,55,-41,93c0,0,-41,38,-128,68c0,0,-128,42,-185,68c0,0,-56,27,-95,63c0,0,-38,36,-62,87c0,0,-23,51,-23,125c0,0,0,132,90,201c0,0,90,69,263,69c0,0,125,0,278,-32V741H651L618,878c0,0,-76,56,-178,56c0,0,-92,0,-141,-34c0,0,-49,-34,-49,-104c0,0,0,-50,41,-86c0,0,41,-35,128,-63c0,0,171,-56,235,-97c0,0,64,-41,97,-103c0,0,34,-61,34,-143c0,0,0,-318,-375,-318Z" 
id="f2_1j"
transform="scale(0.001,-0.001)" />

<path d="M379,60c0,0,59,0,84,64c0,0,24,65,24,231c0,0,0,164,-24,227c0,0,-24,63,-84,63c0,0,-57,0,-80,-60c0,0,-22,-61,-22,-230c0,0,0,-173,23,-234c0,0,22,-61,79,-61Zm-2,-74c0,0,-161,0,-240,91c0,0,-79,91,-79,277c0,0,0,186,80,276c0,0,81,90,245,90c0,0,167,0,245,-93c0,0,78,-93,78,-273c0,0,0,-188,-81,-278c0,0,-81,-90,-248,-90Z" 
id="f2_2b"
transform="scale(0.001,-0.001)" />

<path d="M30,0V49l76,18V992l-72,18v50H322V67L398,49V0Z" 
id="f2_28"
transform="scale(0.001,-0.001)" />

<path d="M287,-18c0,0,-194,0,-194,206V634L23,652v49H309V217c0,0,0,-63,26,-98c0,0,27,-35,76,-35c0,0,57,0,113,25V634l-64,18v49H740V67L809,49V0H536L526,61L475,35c0,0,-104,-53,-188,-53Z" 
id="f2_2h"
transform="scale(0.001,-0.001)" />

<path d="M327,-14c0,0,-101,0,-156,45c0,0,-55,45,-55,131V624H25v48l108,29l87,159H332V701H480V624H332V176c0,0,0,-49,20,-73c0,0,20,-25,53,-25c0,0,40,0,97,12V26c0,0,-22,-15,-76,-27c0,0,-55,-13,-99,-13Z" 
id="f2_2g"
transform="scale(0.001,-0.001)" />

<path d="M34,0V49l76,18V634L38,652v49H325V67L402,49V0ZM217,831c0,0,-48,0,-81,33c0,0,-34,33,-34,82c0,0,0,48,34,81c0,0,34,33,81,33c0,0,48,0,81,-33c0,0,33,-33,33,-81c0,0,0,-47,-33,-81c0,0,-32,-34,-81,-34Z" 
id="f2_25"
transform="scale(0.001,-0.001)" />

<path d="M41,0V49l69,18V634L41,652v49H313l11,-61l50,26c0,0,105,54,188,54c0,0,194,0,194,-207V67L827,49V0H478V49l63,18V484c0,0,0,63,-27,98c0,0,-26,35,-75,35c0,0,-57,0,-114,-25V67L389,49V0Z" 
id="f2_2a"
transform="scale(0.001,-0.001)" />

<path d="M248,-20c0,0,-52,0,-87,34c0,0,-36,36,-36,88c0,0,0,52,36,88c0,0,35,36,87,36c0,0,52,0,88,-36c0,0,36,-36,36,-88c0,0,0,-51,-36,-87c0,0,-35,-35,-88,-35Zm0,488c0,0,-52,0,-87,36c0,0,-36,36,-36,88c0,0,0,52,35,88c0,0,35,36,88,36c0,0,53,0,89,-36c0,0,35,-37,35,-88c0,0,0,-51,-36,-87c0,0,-35,-37,-88,-37Z" 
id="f2_u"
transform="scale(0.001,-0.001)" />

<path d="M420,-22L89,941L1,960v40H383V960L236,941L474,236L744,930h33L1037,236l227,705l-156,19v40h331V960l-87,-19L1025,-22H985L726,666L460,-22Z" 
id="f3_1n"
transform="scale(0.001,-0.001)" />

<path d="M-5,0L0,40L131,60L286,941L162,960l6,40H568l-6,-40L430,941L275,60L399,40L393,0Z" 
id="f4_19"
transform="scale(0.001,-0.001)" />

<path d="M-7,0L0,40L120,60L276,941L151,960l7,40H946L903,761H854l5,161c0,0,-81,11,-240,11H419L345,516H677l44,120h45L712,328H667l-2,121H333L264,60L427,40L420,0Z" 
id="f4_16"
transform="scale(0.001,-0.001)" />

<path d="M188,355c0,0,148,11,236,69c0,0,89,58,89,143c0,0,0,41,-23,68c0,0,-22,27,-66,27c0,0,-52,0,-101,-43c0,0,-49,-42,-85,-114c0,0,-36,-71,-50,-150ZM298,-14c0,0,-120,0,-186,67c0,0,-65,67,-65,193c0,0,0,125,53,232c0,0,52,108,145,175c0,0,94,67,196,67c0,0,92,0,147,-42c0,0,56,-43,56,-111c0,0,0,-102,-126,-173c0,0,-125,-72,-336,-86l-3,-54c0,0,0,-95,40,-143c0,0,40,-47,118,-47c0,0,67,0,124,22c0,0,57,23,106,52l22,-32c0,0,-69,-58,-146,-89c0,0,-76,-31,-145,-31Z" 
id="f4_21"
transform="scale(0.001,-0.001)" />

<path d="M88,-163c0,0,-39,0,-63,25c0,0,-25,26,-25,65c0,0,0,34,19,54c0,0,19,19,48,19c0,0,30,0,51,-23c0,0,22,-24,37,-24c0,0,12,0,21,11c0,0,8,10,8,35c0,0,0,30,-7,88c0,0,-27,235,-27,620c0,0,13,411,17,446c0,0,17,139,60,188c0,0,43,48,98,48c0,0,37,0,65,-25c0,0,28,-25,28,-54c0,0,0,-35,-19,-57c0,0,-20,-21,-49,-21c0,0,-26,0,-57,27c0,0,-17,15,-30,15c0,0,-12,0,-21,-11c0,0,-8,-11,-8,-37c0,0,0,-31,6,-108c0,0,28,-306,28,-496c0,0,0,-50,-12,-439c0,0,-6,-219,-67,-296c0,0,-41,-50,-101,-50Z" 
id="f5_50"
transform="scale(0.001,-0.001)" />

<path d="M577,-14c0,0,-243,0,-379,131C198,117,63,248,63,488c0,0,0,263,131,393c0,0,132,130,386,130c0,0,182,0,352,-45V751H882L862,875c0,0,-52,37,-124,57c0,0,-72,19,-152,19c0,0,-191,0,-279,-113c0,0,-88,-114,-88,-348c0,0,0,-220,91,-333c0,0,91,-114,269,-114c0,0,63,0,131,15c0,0,69,15,105,36V377L686,397v40h370V397L958,377V52C958,52,871,24,778,5c0,0,-93,-19,-201,-19Z" 
id="f3_17"
transform="scale(0.001,-0.001)" />

<path d="M460,-325c0,0,-148,79,-231,172c0,0,-84,93,-123,217c0,0,-39,126,-39,304c0,0,0,178,39,303c0,0,39,125,122,217c0,0,82,93,232,172V997c0,0,-91,-52,-145,-134c0,0,-54,-81,-79,-190c0,0,-25,-109,-25,-305c0,0,0,-194,26,-309c0,0,26,-114,82,-193c0,0,56,-79,141,-128v-63Z" 
id="f3_c"
transform="scale(0.001,-0.001)" />

<path d="M392,152V469H76v77H392V863h77V546H787V469H469V152Z" 
id="f3_f"
transform="scale(0.001,-0.001)" />

<path d="M13,0V34L95,46L325,350L122,649L40,668v33H357V668L264,648L399,446L554,649l-96,19v33H710V668L630,652L433,397L663,50L745,34V0H427V34l94,17L359,299L169,50L266,34V0Z" 
id="f3_2k"
transform="scale(0.001,-0.001)" />

<path d="M49,-325v63c0,0,85,49,140,128c0,0,56,79,83,194c0,0,26,115,26,308c0,0,0,196,-25,305c0,0,-25,109,-79,190c0,0,-54,82,-145,134v63c0,0,149,-80,232,-172c0,0,83,-92,122,-217c0,0,39,-125,39,-303c0,0,0,-177,-39,-303c0,0,-39,-125,-122,-217c0,0,-83,-93,-232,-173Z" 
id="f3_d"
transform="scale(0.001,-0.001)" />

<path d="M67,0V109L206,235c0,0,133,118,196,190c0,0,63,72,90,149c0,0,27,77,27,177c0,0,0,97,-44,148c0,0,-44,50,-144,50c0,0,-39,0,-81,-10c0,0,-42,-11,-74,-29L150,787H101V980c0,0,135,32,230,32c0,0,164,0,247,-68c0,0,82,-69,82,-193c0,0,0,-84,-32,-158c0,0,-33,-75,-100,-148c0,0,-67,-74,-222,-206c0,0,-67,-57,-141,-125H680V0Z" 
id="f3_m"
transform="scale(0.001,-0.001)" />

<path d="M521,-14c0,0,-205,0,-320,107C201,93,85,200,85,390c0,0,0,185,77,326c0,0,77,142,220,219c0,0,142,76,324,76c0,0,158,0,327,-38L1000,755H951V884c0,0,-46,32,-112,50c0,0,-65,17,-137,17c0,0,-135,0,-242,-72c0,0,-107,-72,-166,-203c0,0,-60,-132,-60,-301c0,0,0,-160,78,-244c0,0,78,-84,222,-84c0,0,85,0,166,25c0,0,82,26,133,65l53,149h49L889,52C889,52,803,20,705,3c0,0,-99,-17,-184,-17Z" 
id="f4_13"
transform="scale(0.001,-0.001)" />

<path d="M394,460c0,0,126,0,186,57c0,0,60,57,60,187c0,0,0,123,-57,176c0,0,-58,53,-194,53H316V460ZM54,0V40L172,60V941L44,960v40H421c0,0,368,0,368,-295c0,0,0,-153,-93,-233c0,0,-93,-80,-267,-80H316V60L475,40V0Z" 
id="f3_1g"
transform="scale(0.001,-0.001)" />

<path d="M404,60c0,0,54,0,75,59c0,0,21,59,21,177c0,0,0,106,-29,162c0,0,-29,57,-87,57c0,0,-55,0,-112,-17v-4c0,0,0,-434,132,-434Zm3,-74c0,0,-172,0,-263,130c0,0,-92,130,-92,378c0,0,0,161,48,278c0,0,48,117,135,178c0,0,87,61,199,61c0,0,117,0,225,-32V751H594L562,896c0,0,-52,39,-113,39c0,0,-75,0,-121,-95c0,0,-47,-96,-55,-267c0,0,81,35,161,35c0,0,137,0,211,-77c0,0,74,-77,74,-220c0,0,0,-158,-81,-242c0,0,-81,-83,-231,-83Z" 
id="f2_q"
transform="scale(0.001,-0.001)" />

<path d="M412,-328c0,0,-195,96,-303,284C109,-44,0,142,0,365c0,0,0,232,114,422c0,0,114,191,298,273v-31c0,0,-92,-51,-151,-139c0,0,-59,-88,-88,-223c0,0,-29,-136,-29,-282c0,0,0,-167,27,-301c0,0,26,-133,82,-221c0,0,55,-89,159,-159v-32Z" 
id="f5_c"
transform="scale(0.001,-0.001)" />

<path d="M34,-328v32c0,0,92,50,151,138c0,0,59,88,88,222c0,0,29,135,29,283c0,0,0,165,-27,300c0,0,-26,134,-82,222c0,0,-56,89,-159,160v31c0,0,194,-96,303,-284c0,0,108,-187,108,-410c0,0,0,-232,-114,-422c0,0,-114,-191,-297,-272Z" 
id="f5_d"
transform="scale(0.001,-0.001)" />

<path d="M246,-14L105,649L21,668l7,33H219L327,155L512,458c0,0,48,78,48,144c0,0,0,28,-15,44c0,0,-16,16,-34,22l6,33H659c0,0,19,-17,19,-47c0,0,0,-66,-62,-164L301,-14Z" 
id="f4_2i"
transform="scale(0.001,-0.001)" />

<path d="M58,-234v58c0,0,131,42,131,125c0,0,0,15,-11,27c0,0,-11,12,-38,25C140,1,89,27,89,75c0,0,0,40,25,61c0,0,26,21,65,21c0,0,48,0,77,-34c0,0,30,-34,30,-86c0,0,0,-101,-60,-170c0,0,-59,-69,-168,-101Z" 
id="f3_g"
transform="scale(0.001,-0.001)" />

<path d="M0,-14L351,1007h73L75,-14Z" 
id="f3_j"
transform="scale(0.001,-0.001)" />

<path d="M115,-329V1060h76V-329Z" 
id="f3_2o"
transform="scale(0.001,-0.001)" />

<path d="M160,0L581,834H186L152,715H87v285H727V941L338,0Z" 
id="f2_r"
transform="scale(0.001,-0.001)" />

<path d="M410,-14c0,0,-80,0,-162,14c0,0,-81,14,-144,38V270h48L178,134c0,0,28,-35,95,-62c0,0,68,-27,134,-27c0,0,104,0,163,53c0,0,58,54,58,148c0,0,0,54,-23,89c0,0,-22,35,-59,59c0,0,-37,24,-84,41c0,0,-47,17,-97,34c0,0,-49,17,-96,38c0,0,-47,21,-84,53c0,0,-37,32,-60,79c0,0,-23,48,-23,117c0,0,0,119,90,187c0,0,89,68,248,68c0,0,121,0,263,-32V771H654L628,893c0,0,-76,55,-188,55c0,0,-100,0,-156,-40c0,0,-56,-41,-56,-112c0,0,0,-49,22,-81c0,0,23,-32,60,-55c0,0,37,-22,84,-39c0,0,48,-16,97,-34c0,0,50,-17,97,-39c0,0,48,-22,85,-56c0,0,36,-34,59,-83c0,0,23,-49,23,-120c0,0,0,-145,-89,-224c0,0,-89,-79,-256,-79Z" 
id="f3_1j"
transform="scale(0.001,-0.001)" />

<path d="M476,327V830h-4L114,327ZM476,0V220H30v99l488,686h86V327H740V220H604V0Z" 
id="f3_o"
transform="scale(0.001,-0.001)" />

<path d="M350,-14c0,0,-142,0,-253,31L89,228h49L172,87c0,0,32,-18,78,-29c0,0,46,-11,88,-11c0,0,118,0,173,56c0,0,56,55,56,187c0,0,0,93,-24,140c0,0,-24,47,-76,70c0,0,-52,22,-140,22c0,0,-68,0,-133,-18H122v496H630V886H189V567c0,0,81,18,173,18c0,0,173,0,258,-71c0,0,84,-71,84,-216c0,0,0,-151,-92,-232c0,0,-91,-80,-262,-80Z" 
id="f3_p"
transform="scale(0.001,-0.001)" />

<path d="M350,-14c0,0,-142,0,-269,31L73,228h49L156,87c0,0,29,-16,82,-28c0,0,54,-12,100,-12c0,0,117,0,173,54c0,0,56,53,56,178c0,0,0,99,-52,150c0,0,-51,51,-159,56l-107,6v61l107,7c0,0,84,5,124,52c0,0,41,48,41,145c0,0,0,101,-44,147c0,0,-44,45,-139,45c0,0,-40,0,-83,-10c0,0,-43,-11,-76,-29L153,786H104V979c0,0,74,19,127,26c0,0,54,6,107,6c0,0,321,0,321,-246c0,0,0,-104,-57,-165c0,0,-57,-62,-162,-77c0,0,136,-16,200,-78c0,0,64,-62,64,-173c0,0,0,-135,-92,-211c0,0,-93,-75,-262,-75Z" 
id="f3_n"
transform="scale(0.001,-0.001)" />

<path d="M370,468c0,0,96,0,194,40c0,0,0,229,-45,336c0,0,-45,107,-146,107c0,0,-187,0,-187,-259c0,0,0,-115,45,-169c0,0,45,-55,139,-55ZM312,-14c0,0,-122,0,-223,25V184h48L163,76c0,0,24,-11,65,-20c0,0,40,-9,81,-9c0,0,119,0,183,105c0,0,65,104,71,307c0,0,-113,-62,-230,-62c0,0,-132,0,-208,79c0,0,-76,78,-76,219c0,0,0,151,85,233c0,0,84,83,237,83c0,0,171,0,251,-123c0,0,79,-123,79,-385c0,0,0,-252,-102,-385C599,118,497,-14,312,-14Z" 
id="f3_t"
transform="scale(0.001,-0.001)" />

<path d="M631,416L539,902L283,416ZM576,0l8,40L691,60L643,348H249L96,60L197,40L189,0H-83l8,40L7,60l509,949H659L845,60L938,40L930,0Z" 
id="f4_11"
transform="scale(0.001,-0.001)" />

<path d="M459,63c0,0,143,0,210,55c0,0,67,56,67,185c0,0,0,101,-66,146c0,0,-66,46,-190,46H341L266,67c0,0,114,-4,193,-4Zm18,499c0,0,144,0,206,49c0,0,61,48,61,170c0,0,0,77,-48,115c0,0,-48,37,-160,37H419L353,562ZM459,-4L173,0H14l8,40l99,20L277,941L151,960l8,40H570c0,0,330,0,330,-210c0,0,0,-105,-66,-174c0,0,-66,-69,-184,-85c0,0,115,-9,179,-69c0,0,63,-59,63,-157c0,0,0,-160,-108,-235C784,70,675,-4,459,-4Z" 
id="f4_12"
transform="scale(0.001,-0.001)" />

<path d="M463,65c0,0,220,0,340,135c0,0,121,135,121,385c0,0,0,348,-385,348H419L266,70c0,0,120,-5,197,-5Zm6,-67L110,0H-16l7,40L121,60L276,941L151,960l7,40H585c0,0,241,0,368,-105c0,0,127,-106,127,-304c0,0,0,-179,-75,-314c0,0,-75,-136,-214,-208C791,69,653,-2,469,-2Z" 
id="f4_14"
transform="scale(0.001,-0.001)" />

<path d="M465,786H442L239,946L67,786H45l141,248H324L465,786Z" 
id="f6_5z"
transform="scale(0.001,-0.001)" />

<path d="M410,45c0,0,90,0,130,58c0,0,40,59,40,193c0,0,0,122,-38,177c0,0,-38,54,-122,54c0,0,-102,0,-217,-37c0,0,0,-227,51,-336c0,0,52,-109,156,-109Zm3,-59c0,0,-169,0,-258,131c0,0,-89,131,-89,377c0,0,0,161,47,278c0,0,47,117,131,178c0,0,85,61,196,61c0,0,109,0,217,-26V813H608L582,915c0,0,-25,13,-67,23c0,0,-41,10,-75,10c0,0,-109,0,-170,-105c0,0,-60,-106,-66,-308c0,0,121,63,244,63c0,0,132,0,201,-74c0,0,69,-74,69,-214c0,0,0,-156,-78,-240c0,0,-79,-84,-227,-84Z" 
id="f3_q"
transform="scale(0.001,-0.001)" />

<path d="M377,45c0,0,100,0,147,52c0,0,47,52,47,174c0,0,0,119,-46,173c0,0,-47,54,-148,54c0,0,-98,0,-141,-51c0,0,-44,-51,-44,-176c0,0,0,-126,44,-176c0,0,44,-50,141,-50Zm2,518c0,0,84,0,123,46c0,0,39,46,39,148c0,0,0,102,-40,151c0,0,-41,48,-122,48c0,0,-79,0,-118,-47c0,0,-38,-47,-38,-152c0,0,0,-104,37,-149c0,0,38,-45,119,-45ZM377,-14c0,0,-319,0,-319,285c0,0,0,99,48,164c0,0,48,66,129,96c0,0,-65,30,-106,87c0,0,-40,56,-40,139c0,0,0,123,75,191c0,0,76,68,219,68c0,0,139,0,216,-67c0,0,76,-68,76,-192c0,0,0,-82,-40,-139c0,0,-40,-57,-108,-87c0,0,85,-31,132,-98c0,0,47,-67,47,-162c0,0,0,-142,-80,-214c0,0,-80,-71,-249,-71Z" 
id="f3_s"
transform="scale(0.001,-0.001)" />

<path d="M85,0L199,649l-96,19l6,33H332L218,52L335,33L329,0ZM297,849c0,0,-33,0,-57,24c0,0,-24,24,-24,57c0,0,0,33,24,57c0,0,24,24,57,24c0,0,33,0,57,-24c0,0,24,-24,24,-57c0,0,0,-33,-24,-57c0,0,-24,-24,-57,-24Z" 
id="f4_25"
transform="scale(0.001,-0.001)" />

<path d="M-43,-325c0,0,-60,0,-119,23l24,140h35l12,-83c0,0,20,-20,52,-20c0,0,48,0,76,48c0,0,28,48,46,151L210,649L107,668l6,33H342L213,-28c0,0,-27,-151,-90,-224c0,0,-63,-73,-166,-73ZM306,849c0,0,-33,0,-57,24c0,0,-24,24,-24,57c0,0,0,33,24,57c0,0,24,24,57,24c0,0,33,0,57,-24c0,0,24,-24,24,-57c0,0,0,-33,-24,-57c0,0,-24,-24,-57,-24Z" 
id="f4_26"
transform="scale(0.001,-0.001)" />

<path d="M44,0L223,1008l-101,18l6,34H356L228,338L547,647l-70,20l6,34H700l-5,-34L634,650L415,441L596,51L669,34L663,0H487L324,357L214,254L168,0Z" 
id="f4_27"
transform="scale(0.001,-0.001)" />

<path d="M376,50c0,0,103,0,149,80c0,0,46,81,46,240c0,0,0,137,-47,204c0,0,-48,67,-148,67c0,0,-44,0,-87,-7c0,0,-44,-8,-63,-17V62c0,0,63,-12,150,-12Zm3,-64c0,0,-64,0,-141,14c0,0,-78,14,-136,37v971L0,1026v34H226V809c0,0,0,-40,-4,-148c0,0,74,59,188,59c0,0,143,0,219,-87c0,0,77,-87,77,-263c0,0,0,-189,-84,-287c0,0,-84,-97,-243,-97Z" 
id="f3_1y"
transform="scale(0.001,-0.001)" />

<path d="M113,-203V1060H454v-35L232,994V-138l222,-30v-35Z" 
id="f3_1r"
transform="scale(0.001,-0.001)" />

<path d="M55,-203v35l222,30V994L55,1025v35H395V-203Z" 
id="f3_1t"
transform="scale(0.001,-0.001)" />

<path d="M-12,338v55H777V338Z" 
id="f6_4y"
transform="scale(0.001,-0.001)" />

<path d="M44,0V40L172,60V941L44,960v40H445V960L316,941V549H787V941L659,960v40h400V960L930,941V60L1059,40V0H659V40L787,60V481H316V60L445,40V0Z" 
id="f3_18"
transform="scale(0.001,-0.001)" />


</defs>
</svg>