<?xml version="1.0" encoding="UTF-8" standalone="no"?>
<!DOCTYPE svg PUBLIC "-//W3C//DTD SVG 1.1//EN"
"http://www.w3.org/Graphics/SVG/1.1/DTD/svg11.dtd">
<svg viewBox="0 0 909 1286" version="1.1" xmlns="http://www.w3.org/2000/svg" xmlns:xlink="http://www.w3.org/1999/xlink">
<defs>
<clipPath id="c0_120"><path d="M127.1,523.4v-56h184v56Z" /></clipPath>
<clipPath id="c1_120"><path d="M122.3,603V546.9H300.2V603Z" /></clipPath>
<clipPath id="c2_120"><path d="M127.1,796.2v-56H256.9v56Z" /></clipPath>
<clipPath id="c3_120"><path d="M110.2,875.4v-56H233.9v56Z" /></clipPath>
<clipPath id="c4_120"><path d="M174,1069.4v-57.2h79.9v57.2Z" /></clipPath>
<clipPath id="c5_120"><path d="M110.2,1150.1v-57.2H239v57.2Z" /></clipPath>
<style type="text/css"><![CDATA[
.g0_120{
fill: #D9D9D9;
}
.g1_120{
fill: none;
stroke: #000000;
stroke-width: 0.7638889;
stroke-linecap: butt;
stroke-linejoin: miter;
}
.g2_120{
fill: none;
stroke: #000000;
stroke-width: 0.9044451;
stroke-linecap: butt;
stroke-linejoin: round;
}
.g3_120{
fill: none;
stroke: #000000;
stroke-width: 0.9043551;
stroke-linecap: butt;
stroke-linejoin: round;
}
.g4_120{
}
]]></style>
</defs>
<image preserveAspectRatio="none" x="747" y="1196" width="96" height="59" xlink:href="img/1.png" />
<image preserveAspectRatio="none" x="336" y="41" width="259" height="51" xlink:href="img/2.png" />
<image preserveAspectRatio="none" x="342" y="50" width="247" height="27" xlink:href="img/3.png" />
<image preserveAspectRatio="none" x="341" y="45" width="239" height="42" xlink:href="img/4.png" />
<g fill="#FFFFFF" >
<use xlink:href="#f0_j" transform="matrix(11.5,0,0,11.5,355.1,70.1)" />
<use xlink:href="#f0_i" transform="matrix(11.5,0,0,11.5,364.3,70.1)" />
<use xlink:href="#f0_2n" transform="matrix(11.5,0,0,11.5,374.1,70.1)" />
<use xlink:href="#f0_t" transform="matrix(11.5,0,0,11.5,382.6,70.1)" />
<use xlink:href="#f0_oj" transform="matrix(11.5,0,0,11.5,391,70.1)" />
<use xlink:href="#f0_3e" transform="matrix(11.5,0,0,11.5,396.5,70.1)" />
<use xlink:href="#f0_1c" transform="matrix(11.5,0,0,11.5,406.1,70.1)" />
<use xlink:href="#f0_1c" transform="matrix(11.5,0,0,11.5,410.8,70.1)" />
<use xlink:href="#f0_oj" transform="matrix(11.5,0,0,11.5,415.6,70.1)" />
<use xlink:href="#f0_rz" transform="matrix(11.5,0,0,11.5,421.1,70.1)" />
<use xlink:href="#f0_rx" transform="matrix(11.5,0,0,11.5,429.9,70.1)" />
<use xlink:href="#f0_ry" transform="matrix(11.5,0,0,11.5,438.7,70.1)" />
<use xlink:href="#f0_s6" transform="matrix(11.5,0,0,11.5,447.5,70.1)" />
<use xlink:href="#f0_t" transform="matrix(11.5,0,0,11.5,460.4,70.1)" />
<use xlink:href="#f0_3e" transform="matrix(11.5,0,0,11.5,468.8,70.1)" />
<use xlink:href="#f0_5" transform="matrix(11.5,0,0,11.5,478.3,70.1)" />
<use xlink:href="#f0_1x" transform="matrix(11.5,0,0,11.5,489,70.1)" />
<use xlink:href="#f0_1c" transform="matrix(11.5,0,0,11.5,504.4,70.1)" />
<use xlink:href="#f0_1y" transform="matrix(11.5,0,0,11.5,509.1,70.1)" />
<use xlink:href="#f0_5" transform="matrix(11.5,0,0,11.5,520.8,70.1)" />
<use xlink:href="#f0_2t" transform="matrix(11.5,0,0,11.5,531.5,70.1)" />
<use xlink:href="#f0_1c" transform="matrix(11.5,0,0,11.5,540.2,70.1)" />
<use xlink:href="#f0_24" transform="matrix(11.5,0,0,11.5,545,70.1)" />
<use xlink:href="#f0_1y" transform="matrix(11.5,0,0,11.5,556.7,70.1)" />
</g>
<image preserveAspectRatio="none" x="554" y="45" width="36" height="42" xlink:href="img/5.png" />
<g fill="#FFFFFF" >
<use xlink:href="#f1_m" transform="matrix(11,0,0,11,770.3,1227.6)" />
<use xlink:href="#f1_j" transform="matrix(11,0,0,11,783.5,1227.6)" />
<use xlink:href="#f1_m" transform="matrix(11,0,0,11,794.1,1227.6)" />
<use xlink:href="#f1_p" transform="matrix(11,0,0,11,802.9,1227.6)" />
</g>
<path fill-rule="evenodd" d="M52.8,1193.5H856.9v-.8H52.8v.8Z" class="g0_120" />
<path d="M37.9,99.4L873,98.5" class="g1_120" />
<g fill="#000000" >
<use xlink:href="#f2_n" transform="matrix(12,0,0,12,55,144.1)" />
<use xlink:href="#f2_i" transform="matrix(12,0,0,12,64.2,144.1)" />
<use xlink:href="#f3_19" transform="matrix(12,0,0,12,73.7,144.1)" />
<use xlink:href="#f3_22" transform="matrix(12,0,0,12,80,144.1)" />
<use xlink:href="#f3_11" transform="matrix(12,0,0,12,90.2,144.1)" />
<use xlink:href="#f3_25" transform="matrix(12,0,0,12,108.1,144.1)" />
<use xlink:href="#f3_2f" transform="matrix(12,0,0,12,112.9,144.1)" />
<use xlink:href="#f3_1x" transform="matrix(12,0,0,12,124.6,144.1)" />
<use xlink:href="#f3_2f" transform="matrix(12,0,0,12,137.4,144.1)" />
<use xlink:href="#f3_2d" transform="matrix(12,0,0,12,144.4,144.1)" />
<use xlink:href="#f3_2h" transform="matrix(12,0,0,12,153.6,144.1)" />
<use xlink:href="#f3_1x" transform="matrix(12,0,0,12,162.7,144.1)" />
<use xlink:href="#f3_2e" transform="matrix(12,0,0,12,170.8,144.1)" />
<use xlink:href="#f3_21" transform="matrix(12,0,0,12,177,144.1)" />
<use xlink:href="#f3_29" transform="matrix(12,0,0,12,190.2,144.1)" />
<use xlink:href="#f3_1x" transform="matrix(12,0,0,12,203.8,144.1)" />
<use xlink:href="#f3_2g" transform="matrix(12,0,0,12,211.8,144.1)" />
<use xlink:href="#f3_2e" transform="matrix(12,0,0,12,217.3,144.1)" />
<use xlink:href="#f3_25" transform="matrix(12,0,0,12,223.5,144.1)" />
<use xlink:href="#f3_2k" transform="matrix(12,0,0,12,228.3,144.1)" />
<use xlink:href="#f3_2f" transform="matrix(12,0,0,12,241.9,144.1)" />
<use xlink:href="#f3_2h" transform="matrix(12,0,0,12,248.8,144.1)" />
<use xlink:href="#f3_1z" transform="matrix(12,0,0,12,258.3,144.1)" />
<use xlink:href="#f3_24" transform="matrix(12,0,0,12,266.7,144.1)" />
<use xlink:href="#f3_2g" transform="matrix(12,0,0,12,280.3,144.1)" />
<use xlink:href="#f3_24" transform="matrix(12,0,0,12,285.8,144.1)" />
<use xlink:href="#f3_1x" transform="matrix(12,0,0,12,294.6,144.1)" />
<use xlink:href="#f3_2g" transform="matrix(12,0,0,12,302.6,144.1)" />
<use xlink:href="#f3_11" transform="matrix(12,0,0,12,312.5,144.1)" />
<use xlink:href="#f3_m" transform="matrix(7.9,0,0,7.9,325.7,137.2)" />
<use xlink:href="#f3_x" transform="matrix(12,0,0,12,336.7,144.1)" />
<use xlink:href="#f3_11" transform="matrix(12,0,0,12,351.7,144.1)" />
<use xlink:href="#f3_g" transform="matrix(12,0,0,12,364.6,144.1)" />
<use xlink:href="#f3_2g" transform="matrix(12,0,0,12,373.7,144.1)" />
<use xlink:href="#f3_24" transform="matrix(12,0,0,12,379.2,144.1)" />
<use xlink:href="#f3_21" transform="matrix(12,0,0,12,388,144.1)" />
<use xlink:href="#f3_2a" transform="matrix(12,0,0,12,396.4,144.1)" />
<use xlink:href="#f3_2j" transform="matrix(12,0,0,12,409.9,144.1)" />
<use xlink:href="#f3_2e" transform="matrix(12,0,0,12,423.2,144.1)" />
<use xlink:href="#f3_25" transform="matrix(12,0,0,12,429.4,144.1)" />
<use xlink:href="#f3_2g" transform="matrix(12,0,0,12,433.8,144.1)" />
<use xlink:href="#f3_21" transform="matrix(12,0,0,12,439.2,144.1)" />
<use xlink:href="#f3_2g" transform="matrix(12,0,0,12,452.1,144.1)" />
<use xlink:href="#f3_24" transform="matrix(12,0,0,12,457.5,144.1)" />
<use xlink:href="#f3_21" transform="matrix(12,0,0,12,466.3,144.1)" />
<use xlink:href="#f3_2i" transform="matrix(12,0,0,12,479.2,144.1)" />
<use xlink:href="#f3_1x" transform="matrix(12,0,0,12,488,144.1)" />
<use xlink:href="#f3_28" transform="matrix(12,0,0,12,496.4,144.1)" />
<use xlink:href="#f3_2h" transform="matrix(12,0,0,12,501.1,144.1)" />
<use xlink:href="#f3_21" transform="matrix(12,0,0,12,510.3,144.1)" />
<use xlink:href="#f3_2b" transform="matrix(12,0,0,12,523.1,144.1)" />
<use xlink:href="#f3_22" transform="matrix(12,0,0,12,532.6,144.1)" />
<use xlink:href="#f3_r" transform="matrix(12,0,0,12,542.9,144.1)" />
<use xlink:href="#f3_11" transform="matrix(12,0,0,12,552.4,144.1)" />
<use xlink:href="#f4_4y" transform="matrix(12,0,0,12,570.4,144.1)" />
<use xlink:href="#f3_c" transform="matrix(12,0,0,12,584.3,144.1)" />
<use xlink:href="#f3_19" transform="matrix(12,0,0,12,590.5,144.1)" />
<use xlink:href="#f3_f" transform="matrix(12,0,0,12,601.5,144.1)" />
<use xlink:href="#f3_11" transform="matrix(12,0,0,12,616.5,144.1)" />
<use xlink:href="#f3_d" transform="matrix(12,0,0,12,629.3,144.1)" />
<use xlink:href="#f3_n" transform="matrix(7.9,0,0,7.9,635.7,137.2)" />
<use xlink:href="#f3_g" transform="matrix(12,0,0,12,641.6,144.1)" />
<use xlink:href="#f3_2j" transform="matrix(12,0,0,12,651.1,144.1)" />
<use xlink:href="#f3_24" transform="matrix(12,0,0,12,664.3,144.1)" />
<use xlink:href="#f3_21" transform="matrix(12,0,0,12,673.1,144.1)" />
<use xlink:href="#f3_2e" transform="matrix(12,0,0,12,681.1,144.1)" />
<use xlink:href="#f3_21" transform="matrix(12,0,0,12,687.3,144.1)" />
<use xlink:href="#f3_19" transform="matrix(12,0,0,12,700.2,144.1)" />
<use xlink:href="#f3_25" transform="matrix(12,0,0,12,711.1,144.1)" />
<use xlink:href="#f3_2f" transform="matrix(12,0,0,12,715.5,144.1)" />
<use xlink:href="#f3_1x" transform="matrix(12,0,0,12,727.2,144.1)" />
<use xlink:href="#f3_2a" transform="matrix(12,0,0,12,735.6,144.1)" />
<use xlink:href="#f3_25" transform="matrix(12,0,0,12,749.6,144.1)" />
<use xlink:href="#f3_20" transform="matrix(12,0,0,12,754,144.1)" />
<use xlink:href="#f3_21" transform="matrix(12,0,0,12,763.1,144.1)" />
<use xlink:href="#f3_2a" transform="matrix(12,0,0,12,771.5,144.1)" />
<use xlink:href="#f3_2g" transform="matrix(12,0,0,12,780.3,144.1)" />
<use xlink:href="#f3_25" transform="matrix(12,0,0,12,786.2,144.1)" />
<use xlink:href="#f3_2g" transform="matrix(12,0,0,12,790.6,144.1)" />
<use xlink:href="#f3_2l" transform="matrix(12,0,0,12,796.1,144.1)" />
<use xlink:href="#f3_29" transform="matrix(12,0,0,12,55,166.9)" />
<use xlink:href="#f3_1x" transform="matrix(12,0,0,12,69,166.9)" />
<use xlink:href="#f3_2g" transform="matrix(12,0,0,12,77,166.9)" />
<use xlink:href="#f3_2e" transform="matrix(12,0,0,12,82.5,166.9)" />
<use xlink:href="#f3_25" transform="matrix(12,0,0,12,89.1,166.9)" />
<use xlink:href="#f3_2k" transform="matrix(12,0,0,12,93.5,166.9)" />
<use xlink:href="#f3_i" transform="matrix(12,0,0,12,102.3,166.9)" />
<use xlink:href="#f2_1j" transform="matrix(12,0,0,12,55,189.6)" />
<use xlink:href="#f2_2b" transform="matrix(12,0,0,12,65.3,189.6)" />
<use xlink:href="#f2_28" transform="matrix(12,0,0,12,74.5,189.6)" />
<use xlink:href="#f2_2h" transform="matrix(12,0,0,12,79.2,189.6)" />
<use xlink:href="#f2_2g" transform="matrix(12,0,0,12,89.5,189.6)" />
<use xlink:href="#f2_25" transform="matrix(12,0,0,12,95.7,189.6)" />
<use xlink:href="#f2_2b" transform="matrix(12,0,0,12,100.8,189.6)" />
<use xlink:href="#f2_2a" transform="matrix(12,0,0,12,110,189.6)" />
<use xlink:href="#f2_u" transform="matrix(12,0,0,12,120.2,189.6)" />
<use xlink:href="#f3_11" transform="matrix(12,0,0,12,55,212.4)" />
<use xlink:href="#f3_m" transform="matrix(7.9,0,0,7.9,67.9,205.4)" />
<use xlink:href="#f3_x" transform="matrix(12,0,0,12,77,212.4)" />
<use xlink:href="#f3_11" transform="matrix(12,0,0,12,92.4,212.4)" />
<use xlink:href="#f3_r" transform="matrix(12,0,0,12,110,235.1)" />
<use xlink:href="#f3_11" transform="matrix(12,0,0,12,119.2,235.1)" />
<use xlink:href="#f4_4y" transform="matrix(12,0,0,12,136.8,235.1)" />
<use xlink:href="#f3_c" transform="matrix(12,0,0,12,150.8,235.1)" />
<use xlink:href="#f3_19" transform="matrix(12,0,0,12,157,235.1)" />
<use xlink:href="#f3_f" transform="matrix(12,0,0,12,168,235.1)" />
<use xlink:href="#f3_11" transform="matrix(12,0,0,12,183,235.1)" />
<use xlink:href="#f3_d" transform="matrix(7.9,0,0,7.9,195.9,228.1)" />
<use xlink:href="#f3_n" transform="matrix(7.9,0,0,7.9,199.9,228.1)" />
<use xlink:href="#f3_r" transform="matrix(12,0,0,12,110,257.8)" />
<use xlink:href="#f3_11" transform="matrix(12,0,0,12,119.2,257.8)" />
<use xlink:href="#f4_4y" transform="matrix(12,0,0,12,136.8,257.8)" />
<use xlink:href="#f3_1r" transform="matrix(12,0,0,12,150.8,257.8)" />
<use xlink:href="#f3_c" transform="matrix(12,0,0,12,157,257.8)" />
<use xlink:href="#f3_19" transform="matrix(12,0,0,12,163.2,257.8)" />
<use xlink:href="#f3_f" transform="matrix(12,0,0,12,174.2,257.8)" />
<use xlink:href="#f3_11" transform="matrix(12,0,0,12,188.8,257.8)" />
<use xlink:href="#f3_d" transform="matrix(12,0,0,12,201.6,257.8)" />
<use xlink:href="#f3_m" transform="matrix(7.9,0,0,7.9,208,250.9)" />
<use xlink:href="#f3_c" transform="matrix(12,0,0,12,214.2,257.8)" />
<use xlink:href="#f3_19" transform="matrix(12,0,0,12,220.4,257.8)" />
<use xlink:href="#f3_f" transform="matrix(12,0,0,12,231,257.8)" />
<use xlink:href="#f3_11" transform="matrix(12,0,0,12,246.1,257.8)" />
<use xlink:href="#f3_d" transform="matrix(12,0,0,12,258.9,257.8)" />
<use xlink:href="#f3_1t" transform="matrix(12,0,0,12,265.1,257.8)" />
<use xlink:href="#f3_x" transform="matrix(12,0,0,12,276.1,257.8)" />
<use xlink:href="#f3_r" transform="matrix(12,0,0,12,291.1,257.8)" />
<use xlink:href="#f3_11" transform="matrix(12,0,0,12,300.2,257.8)" />
<use xlink:href="#f4_4y" transform="matrix(12,0,0,12,318,257.8)" />
<use xlink:href="#f3_1r" transform="matrix(12,0,0,12,331.6,257.8)" />
<use xlink:href="#f3_c" transform="matrix(12,0,0,12,337.8,257.8)" />
<use xlink:href="#f3_19" transform="matrix(12,0,0,12,348.4,257.8)" />
<use xlink:href="#f3_19" transform="matrix(12,0,0,12,359,257.8)" />
<use xlink:href="#f3_f" transform="matrix(12,0,0,12,370,257.8)" />
<use xlink:href="#f3_11" transform="matrix(12,0,0,12,385,257.8)" />
<use xlink:href="#f3_11" transform="matrix(12,0,0,12,397.8,257.8)" />
<use xlink:href="#f3_f" transform="matrix(12,0,0,12,415.4,257.8)" />
<use xlink:href="#f3_m" transform="matrix(12,0,0,12,430.4,257.8)" />
<use xlink:href="#f3_11" transform="matrix(12,0,0,12,439.6,257.8)" />
<use xlink:href="#f3_19" transform="matrix(12,0,0,12,452.4,257.8)" />
<use xlink:href="#f3_d" transform="matrix(12,0,0,12,458.6,257.8)" />
<use xlink:href="#f3_c" transform="matrix(12,0,0,12,469.6,257.8)" />
<use xlink:href="#f3_19" transform="matrix(12,0,0,12,475.8,257.8)" />
<use xlink:href="#f3_f" transform="matrix(12,0,0,12,486.4,257.8)" />
<use xlink:href="#f3_11" transform="matrix(12,0,0,12,501.5,257.8)" />
<use xlink:href="#f3_d" transform="matrix(12,0,0,12,514.3,257.8)" />
<use xlink:href="#f3_1t" transform="matrix(12,0,0,12,520.5,257.8)" />
<use xlink:href="#f3_x" transform="matrix(12,0,0,12,224.8,280.6)" />
<use xlink:href="#f3_r" transform="matrix(12,0,0,12,239.9,280.6)" />
<use xlink:href="#f3_11" transform="matrix(12,0,0,12,249,280.6)" />
<use xlink:href="#f4_4y" transform="matrix(12,0,0,12,266.7,280.6)" />
<use xlink:href="#f3_1r" transform="matrix(12,0,0,12,280.6,280.6)" />
<use xlink:href="#f3_19" transform="matrix(12,0,0,12,286.8,280.6)" />
<use xlink:href="#f3_f" transform="matrix(12,0,0,12,297.4,280.6)" />
<use xlink:href="#f3_11" transform="matrix(12,0,0,12,312.5,280.6)" />
<use xlink:href="#f3_m" transform="matrix(7.9,0,0,7.9,325.3,273.6)" />
<use xlink:href="#f3_f" transform="matrix(12,0,0,12,336.3,280.6)" />
<use xlink:href="#f3_m" transform="matrix(12,0,0,12,351.4,280.6)" />
<use xlink:href="#f3_11" transform="matrix(12,0,0,12,360.5,280.6)" />
<use xlink:href="#f3_19" transform="matrix(12,0,0,12,373.4,280.6)" />
<use xlink:href="#f3_1t" transform="matrix(12,0,0,12,379.6,280.6)" />
<use xlink:href="#f3_1r" transform="matrix(12,0,0,12,390.2,280.6)" />
<use xlink:href="#f3_19" transform="matrix(12,0,0,12,396.4,280.6)" />
<use xlink:href="#f3_f" transform="matrix(12,0,0,12,407,280.6)" />
<use xlink:href="#f3_11" transform="matrix(12,0,0,12,422,280.6)" />
<use xlink:href="#f3_1t" transform="matrix(12,0,0,12,434.9,280.6)" />
<use xlink:href="#f3_x" transform="matrix(12,0,0,12,224.8,303.3)" />
<use xlink:href="#f3_r" transform="matrix(12,0,0,12,239.9,303.3)" />
<use xlink:href="#f3_11" transform="matrix(12,0,0,12,249,303.3)" />
<use xlink:href="#f4_4y" transform="matrix(12,0,0,12,266.7,303.3)" />
<use xlink:href="#f3_1r" transform="matrix(12,0,0,12,280.6,303.3)" />
<use xlink:href="#f3_19" transform="matrix(12,0,0,12,286.8,303.3)" />
<use xlink:href="#f3_f" transform="matrix(12,0,0,12,297.4,303.3)" />
<use xlink:href="#f3_11" transform="matrix(12,0,0,12,312.5,303.3)" />
<use xlink:href="#f3_f" transform="matrix(12,0,0,12,330,303.3)" />
<use xlink:href="#f3_m" transform="matrix(12,0,0,12,345,303.3)" />
<use xlink:href="#f3_11" transform="matrix(12,0,0,12,354.2,303.3)" />
<use xlink:href="#f3_1t" transform="matrix(12,0,0,12,367,303.3)" />
<use xlink:href="#f3_1r" transform="matrix(12,0,0,12,378,303.3)" />
<use xlink:href="#f3_19" transform="matrix(12,0,0,12,384.2,303.3)" />
<use xlink:href="#f3_f" transform="matrix(12,0,0,12,394.8,303.3)" />
<use xlink:href="#f3_11" transform="matrix(12,0,0,12,409.9,303.3)" />
<use xlink:href="#f3_1t" transform="matrix(12,0,0,12,422.7,303.3)" />
<use xlink:href="#f3_x" transform="matrix(12,0,0,12,224.8,326)" />
<use xlink:href="#f3_r" transform="matrix(12,0,0,12,239.9,326)" />
<use xlink:href="#f3_11" transform="matrix(12,0,0,12,249,326)" />
<use xlink:href="#f4_4y" transform="matrix(12,0,0,12,266.7,326)" />
<use xlink:href="#f3_1r" transform="matrix(12,0,0,12,280.6,326)" />
<use xlink:href="#f3_19" transform="matrix(12,0,0,12,286.8,326)" />
<use xlink:href="#f3_f" transform="matrix(12,0,0,12,297.4,326)" />
<use xlink:href="#f3_n" transform="matrix(12,0,0,12,312.5,326)" />
<use xlink:href="#f3_11" transform="matrix(12,0,0,12,321.6,326)" />
<use xlink:href="#f3_1t" transform="matrix(12,0,0,12,334.5,326)" />
<use xlink:href="#f3_1r" transform="matrix(12,0,0,12,345.4,326)" />
<use xlink:href="#f3_19" transform="matrix(12,0,0,12,351.3,326)" />
<use xlink:href="#f3_f" transform="matrix(12,0,0,12,362.2,326)" />
<use xlink:href="#f3_11" transform="matrix(12,0,0,12,376.9,326)" />
<use xlink:href="#f3_1t" transform="matrix(12,0,0,12,389.7,326)" />
<use xlink:href="#f3_x" transform="matrix(12,0,0,12,224.8,348.8)" />
<use xlink:href="#f3_r" transform="matrix(12,0,0,12,239.9,348.8)" />
<use xlink:href="#f3_11" transform="matrix(12,0,0,12,249,348.8)" />
<use xlink:href="#f4_4y" transform="matrix(12,0,0,12,266.7,348.8)" />
<use xlink:href="#f3_1r" transform="matrix(12,0,0,12,280.6,348.8)" />
<use xlink:href="#f3_19" transform="matrix(12,0,0,12,286.8,348.8)" />
<use xlink:href="#f3_19" transform="matrix(12,0,0,12,297.4,348.8)" />
<use xlink:href="#f3_f" transform="matrix(12,0,0,12,308.1,348.8)" />
<use xlink:href="#f3_19" transform="matrix(12,0,0,12,323.1,348.8)" />
<use xlink:href="#f3_11" transform="matrix(12,0,0,12,329.3,348.8)" />
<use xlink:href="#f3_f" transform="matrix(12,0,0,12,346.9,348.8)" />
<use xlink:href="#f3_n" transform="matrix(12,0,0,12,361.9,348.8)" />
<use xlink:href="#f3_11" transform="matrix(12,0,0,12,371,348.8)" />
<use xlink:href="#f3_19" transform="matrix(12,0,0,12,383.9,348.8)" />
<use xlink:href="#f3_f" transform="matrix(12,0,0,12,394.8,348.8)" />
<use xlink:href="#f3_n" transform="matrix(12,0,0,12,409.9,348.8)" />
<use xlink:href="#f3_11" transform="matrix(12,0,0,12,419,348.8)" />
<use xlink:href="#f3_m" transform="matrix(7.9,0,0,7.9,432.1,341.8)" />
<use xlink:href="#f3_1t" transform="matrix(12,0,0,12,438.4,348.8)" />
<use xlink:href="#f3_x" transform="matrix(12,0,0,12,224.8,371.5)" />
<use xlink:href="#f3_r" transform="matrix(12,0,0,12,239.9,371.5)" />
<use xlink:href="#f3_11" transform="matrix(12,0,0,12,249,371.5)" />
<use xlink:href="#f4_4y" transform="matrix(12,0,0,12,266.7,371.5)" />
<use xlink:href="#f3_1r" transform="matrix(12,0,0,12,280.6,371.5)" />
<use xlink:href="#f3_19" transform="matrix(12,0,0,12,286.8,371.5)" />
<use xlink:href="#f3_f" transform="matrix(12,0,0,12,297.4,371.5)" />
<use xlink:href="#f3_11" transform="matrix(12,0,0,12,312.5,371.5)" />
<use xlink:href="#f3_f" transform="matrix(12,0,0,12,330,371.5)" />
<use xlink:href="#f3_n" transform="matrix(12,0,0,12,345,371.5)" />
<use xlink:href="#f3_11" transform="matrix(12,0,0,12,354.2,371.5)" />
<use xlink:href="#f3_f" transform="matrix(12,0,0,12,371.8,371.5)" />
<use xlink:href="#f3_n" transform="matrix(12,0,0,12,386.8,371.5)" />
<use xlink:href="#f3_11" transform="matrix(12,0,0,12,396,371.5)" />
<use xlink:href="#f3_1t" transform="matrix(12,0,0,12,408.8,371.5)" />
<use xlink:href="#f3_x" transform="matrix(12,0,0,12,224.8,394.3)" />
<use xlink:href="#f3_r" transform="matrix(12,0,0,12,239.9,394.3)" />
<use xlink:href="#f3_11" transform="matrix(12,0,0,12,249,394.3)" />
<use xlink:href="#f4_4y" transform="matrix(12,0,0,12,266.7,394.3)" />
<use xlink:href="#f3_1r" transform="matrix(12,0,0,12,280.6,394.3)" />
<use xlink:href="#f3_19" transform="matrix(12,0,0,12,286.8,394.3)" />
<use xlink:href="#f3_f" transform="matrix(12,0,0,12,297.4,394.3)" />
<use xlink:href="#f3_r" transform="matrix(12,0,0,12,312.5,394.3)" />
<use xlink:href="#f3_11" transform="matrix(12,0,0,12,321.6,394.3)" />
<use xlink:href="#f3_1t" transform="matrix(12,0,0,12,334.5,394.3)" />
<use xlink:href="#f3_x" transform="matrix(12,0,0,12,224.8,417)" />
<use xlink:href="#f4_4y" transform="matrix(12,0,0,12,239.9,417)" />
<use xlink:href="#f3_19" transform="matrix(12,0,0,12,253.5,417)" />
<use xlink:href="#f3_11" transform="matrix(12,0,0,12,264.4,417)" />
<use xlink:href="#f3_2a" transform="matrix(12,0,0,12,277.3,417)" />
<use xlink:href="#f3_2f" transform="matrix(12,0,0,12,286.1,417)" />
<use xlink:href="#f3_i" transform="matrix(12,0,0,12,293,417)" />
<use xlink:href="#f3_o" transform="matrix(12,0,0,12,55,500.3)" />
<use xlink:href="#f3_i" transform="matrix(12,0,0,12,64.2,500.3)" />
<use xlink:href="#f3_19" transform="matrix(12,0,0,12,110,500.3)" />
<use xlink:href="#f3_22" transform="matrix(12,0,0,12,116.3,500.3)" />
</g>
<g clip-path="url(#c0_120)">
<g fill="#000000" >
<use xlink:href="#f3_l" transform="matrix(12.7,0,0,12.3,259.4,487.2)" />
<use xlink:href="#f3_o" transform="matrix(12.7,0,0,12.3,284.3,487.2)" />
<use xlink:href="#f3_g" transform="matrix(12.7,0,0,12.3,303.3,500.8)" />
<use xlink:href="#f3_m" transform="matrix(12.7,0,0,12.3,138,514.9)" />
<use xlink:href="#f3_k" transform="matrix(12.7,0,0,12.3,253.5,514.9)" />
<use xlink:href="#f3_p" transform="matrix(12.7,0,0,12.3,284.2,514.9)" />
<use xlink:href="#f5_2k" transform="matrix(12.7,0,0,12.3,143.5,487.2)" />
<use xlink:href="#f5_2l" transform="matrix(12.7,0,0,12.3,171,487.2)" />
<use xlink:href="#f5_2m" transform="matrix(12.7,0,0,12.3,204.4,487.2)" />
<use xlink:href="#f5_2k" transform="matrix(12.7,0,0,12.3,148.3,514.9)" />
<use xlink:href="#f5_2l" transform="matrix(12.7,0,0,12.3,175.7,514.9)" />
<use xlink:href="#f5_2j" transform="matrix(12.7,0,0,12.3,202.1,514.9)" />
<use xlink:href="#f6_h" transform="matrix(12.7,0,0,12.3,155.6,487.2)" />
<use xlink:href="#f6_h" transform="matrix(12.7,0,0,12.3,249.4,487.2)" />
<use xlink:href="#f6_4r" transform="matrix(12.7,0,0,12.3,130.1,488.6)" />
<use xlink:href="#f6_57" transform="matrix(12.7,0,0,12.3,214.8,488.6)" />
<use xlink:href="#f6_4r" transform="matrix(12.7,0,0,12.3,241.5,488.6)" />
<use xlink:href="#f6_57" transform="matrix(12.7,0,0,12.3,294.1,488.6)" />
<use xlink:href="#f6_x" transform="matrix(12.7,0,0,12.3,226.8,500.8)" />
<use xlink:href="#f6_4s" transform="matrix(12.7,0,0,12.3,130.1,506.4)" />
<use xlink:href="#f6_58" transform="matrix(12.7,0,0,12.3,214.8,506.4)" />
<use xlink:href="#f6_4s" transform="matrix(12.7,0,0,12.3,241.5,506.4)" />
<use xlink:href="#f6_58" transform="matrix(12.7,0,0,12.3,294.1,506.4)" />
<use xlink:href="#f6_h" transform="matrix(12.7,0,0,12.3,160.3,514.9)" />
<use xlink:href="#f6_4t" transform="matrix(12.7,0,0,12.3,130.1,519.3)" />
<use xlink:href="#f6_59" transform="matrix(12.7,0,0,12.3,214.8,519.3)" />
<use xlink:href="#f6_4t" transform="matrix(12.7,0,0,12.3,241.5,519.3)" />
<use xlink:href="#f6_59" transform="matrix(12.7,0,0,12.3,294.1,519.3)" />
</g>
</g>
<g fill="#000000" >
<use xlink:href="#f3_22" transform="matrix(12,0,0,12,315.4,500.3)" />
<use xlink:href="#f3_25" transform="matrix(12,0,0,12,321.3,500.3)" />
<use xlink:href="#f3_2a" transform="matrix(12,0,0,12,326.1,500.3)" />
<use xlink:href="#f3_20" transform="matrix(12,0,0,12,335.2,500.3)" />
<use xlink:href="#f3_2g" transform="matrix(12,0,0,12,349.2,500.3)" />
<use xlink:href="#f3_24" transform="matrix(12,0,0,12,354.6,500.3)" />
<use xlink:href="#f3_21" transform="matrix(12,0,0,12,363.4,500.3)" />
<use xlink:href="#f3_2i" transform="matrix(12,0,0,12,376.3,500.3)" />
<use xlink:href="#f3_1x" transform="matrix(12,0,0,12,385.1,500.3)" />
<use xlink:href="#f3_28" transform="matrix(12,0,0,12,393.5,500.3)" />
<use xlink:href="#f3_2h" transform="matrix(12,0,0,12,398.2,500.3)" />
<use xlink:href="#f3_21" transform="matrix(12,0,0,12,407.4,500.3)" />
<use xlink:href="#f3_2b" transform="matrix(12,0,0,12,420.2,500.3)" />
<use xlink:href="#f3_22" transform="matrix(12,0,0,12,429.7,500.3)" />
<use xlink:href="#f3_2k" transform="matrix(12,0,0,12,440.3,500.3)" />
<use xlink:href="#f3_f" transform="matrix(12,0,0,12,453.9,500.3)" />
<use xlink:href="#f3_2l" transform="matrix(12,0,0,12,469.3,500.3)" />
<use xlink:href="#f3_i" transform="matrix(12,0,0,12,477.7,500.3)" />
<use xlink:href="#f2_1j" transform="matrix(12,0,0,12,55,542.1)" />
<use xlink:href="#f2_2b" transform="matrix(12,0,0,12,65.3,542.1)" />
<use xlink:href="#f2_28" transform="matrix(12,0,0,12,74.5,542.1)" />
<use xlink:href="#f2_2h" transform="matrix(12,0,0,12,79.2,542.1)" />
<use xlink:href="#f2_2g" transform="matrix(12,0,0,12,89.5,542.1)" />
<use xlink:href="#f2_25" transform="matrix(12,0,0,12,95.7,542.1)" />
<use xlink:href="#f2_2b" transform="matrix(12,0,0,12,100.8,542.1)" />
<use xlink:href="#f2_2a" transform="matrix(12,0,0,12,109.9,542.1)" />
<use xlink:href="#f2_u" transform="matrix(12,0,0,12,120.2,542.1)" />
<use xlink:href="#f3_19" transform="matrix(12,0,0,12,110,579.9)" />
<use xlink:href="#f3_22" transform="matrix(12,0,0,12,116.3,579.9)" />
</g>
<g clip-path="url(#c1_120)">
<g fill="#000000" >
<use xlink:href="#f3_l" transform="matrix(12.7,0,0,12.3,254.5,566.7)" />
<use xlink:href="#f3_o" transform="matrix(12.7,0,0,12.3,279.4,566.7)" />
<use xlink:href="#f3_m" transform="matrix(12.7,0,0,12.3,133.1,594.4)" />
<use xlink:href="#f3_k" transform="matrix(12.7,0,0,12.3,248.6,594.4)" />
<use xlink:href="#f3_p" transform="matrix(12.7,0,0,12.3,279.2,594.4)" />
<use xlink:href="#f5_2k" transform="matrix(12.7,0,0,12.3,138.7,566.7)" />
<use xlink:href="#f5_2l" transform="matrix(12.7,0,0,12.3,166.1,566.7)" />
<use xlink:href="#f5_2m" transform="matrix(12.7,0,0,12.3,199.5,566.7)" />
<use xlink:href="#f5_2k" transform="matrix(12.7,0,0,12.3,143.4,594.4)" />
<use xlink:href="#f5_2l" transform="matrix(12.7,0,0,12.3,170.9,594.4)" />
<use xlink:href="#f5_2j" transform="matrix(12.7,0,0,12.3,197.2,594.4)" />
<use xlink:href="#f6_h" transform="matrix(12.7,0,0,12.3,150.7,566.7)" />
<use xlink:href="#f6_h" transform="matrix(12.7,0,0,12.3,244.4,566.7)" />
<use xlink:href="#f6_4r" transform="matrix(12.7,0,0,12.3,125.3,568.2)" />
<use xlink:href="#f6_57" transform="matrix(12.7,0,0,12.3,209.9,568.2)" />
<use xlink:href="#f6_4r" transform="matrix(12.7,0,0,12.3,236.6,568.2)" />
<use xlink:href="#f6_57" transform="matrix(12.7,0,0,12.3,289.1,568.2)" />
<use xlink:href="#f6_x" transform="matrix(12.7,0,0,12.3,221.8,580.3)" />
<use xlink:href="#f6_4s" transform="matrix(12.7,0,0,12.3,125.3,585.9)" />
<use xlink:href="#f6_58" transform="matrix(12.7,0,0,12.3,209.9,585.9)" />
<use xlink:href="#f6_4s" transform="matrix(12.7,0,0,12.3,236.6,585.9)" />
<use xlink:href="#f6_58" transform="matrix(12.7,0,0,12.3,289.1,585.9)" />
<use xlink:href="#f6_h" transform="matrix(12.7,0,0,12.3,155.4,594.4)" />
<use xlink:href="#f6_4t" transform="matrix(12.7,0,0,12.3,125.3,598.8)" />
<use xlink:href="#f6_59" transform="matrix(12.7,0,0,12.3,209.9,598.8)" />
<use xlink:href="#f6_4t" transform="matrix(12.7,0,0,12.3,236.6,598.8)" />
<use xlink:href="#f6_59" transform="matrix(12.7,0,0,12.3,289.1,598.8)" />
</g>
</g>
<g fill="#000000" >
<use xlink:href="#f3_2g" transform="matrix(12,0,0,12,304.4,579.9)" />
<use xlink:href="#f3_24" transform="matrix(12,0,0,12,309.9,579.9)" />
<use xlink:href="#f3_21" transform="matrix(12,0,0,12,318.7,579.9)" />
<use xlink:href="#f3_2a" transform="matrix(12,0,0,12,326.8,579.9)" />
<use xlink:href="#f3_2k" transform="matrix(12,0,0,12,340.3,579.9)" />
<use xlink:href="#f3_f" transform="matrix(12,0,0,12,353.9,579.9)" />
<use xlink:href="#f3_2l" transform="matrix(12,0,0,12,369.3,579.9)" />
<use xlink:href="#f3_x" transform="matrix(12,0,0,12,382.4,579.9)" />
<use xlink:href="#f3_z" transform="matrix(12,0,0,12,397.8,579.9)" />
<use xlink:href="#f3_2j" transform="matrix(12,0,0,12,110,621.3)" />
<use xlink:href="#f3_21" transform="matrix(12,0,0,12,123.3,621.3)" />
<use xlink:href="#f3_1z" transform="matrix(12,0,0,12,136.1,621.3)" />
<use xlink:href="#f3_1x" transform="matrix(12,0,0,12,144.1,621.3)" />
<use xlink:href="#f3_2a" transform="matrix(12,0,0,12,152.2,621.3)" />
<use xlink:href="#f3_1z" transform="matrix(12,0,0,12,165.7,621.3)" />
<use xlink:href="#f3_2b" transform="matrix(12,0,0,12,173.8,621.3)" />
<use xlink:href="#f3_29" transform="matrix(12,0,0,12,183.7,621.3)" />
<use xlink:href="#f3_2c" transform="matrix(12,0,0,12,197.2,621.3)" />
<use xlink:href="#f3_1x" transform="matrix(12,0,0,12,206.4,621.3)" />
<use xlink:href="#f3_2e" transform="matrix(12,0,0,12,214.5,621.3)" />
<use xlink:href="#f3_21" transform="matrix(12,0,0,12,220.7,621.3)" />
<use xlink:href="#f3_2g" transform="matrix(12,0,0,12,233.5,621.3)" />
<use xlink:href="#f3_24" transform="matrix(12,0,0,12,239,621.3)" />
<use xlink:href="#f3_21" transform="matrix(12,0,0,12,247.8,621.3)" />
<use xlink:href="#f3_21" transform="matrix(12,0,0,12,260.6,621.3)" />
<use xlink:href="#f3_28" transform="matrix(12,0,0,12,269,621.3)" />
<use xlink:href="#f3_21" transform="matrix(12,0,0,12,273.4,621.3)" />
<use xlink:href="#f3_29" transform="matrix(12,0,0,12,281.8,621.3)" />
<use xlink:href="#f3_21" transform="matrix(12,0,0,12,295.8,621.3)" />
<use xlink:href="#f3_2a" transform="matrix(12,0,0,12,304.2,621.3)" />
<use xlink:href="#f3_2g" transform="matrix(12,0,0,12,313,621.3)" />
<use xlink:href="#f3_2b" transform="matrix(12,0,0,12,323.2,621.3)" />
<use xlink:href="#f3_22" transform="matrix(12,0,0,12,332.7,621.3)" />
<use xlink:href="#f3_m" transform="matrix(12,0,0,12,343,621.3)" />
<use xlink:href="#f3_29" transform="matrix(12,0,0,12,356.9,621.3)" />
<use xlink:href="#f3_1x" transform="matrix(12,0,0,12,370.5,621.3)" />
<use xlink:href="#f3_2g" transform="matrix(12,0,0,12,378.5,621.3)" />
<use xlink:href="#f3_2e" transform="matrix(12,0,0,12,384,621.3)" />
<use xlink:href="#f3_25" transform="matrix(12,0,0,12,390.6,621.3)" />
<use xlink:href="#f3_1z" transform="matrix(12,0,0,12,395,621.3)" />
<use xlink:href="#f3_21" transform="matrix(12,0,0,12,403.1,621.3)" />
<use xlink:href="#f3_2f" transform="matrix(12,0,0,12,411.5,621.3)" />
<use xlink:href="#f3_i" transform="matrix(12,0,0,12,418.4,621.3)" />
<use xlink:href="#f3_2f" transform="matrix(12,0,0,12,427.9,621.3)" />
<use xlink:href="#f3_2b" transform="matrix(12,0,0,12,434.9,621.3)" />
<use xlink:href="#f3_2k" transform="matrix(12,0,0,12,110,644.4)" />
<use xlink:href="#f4_4y" transform="matrix(12,0,0,12,123.6,644.4)" />
<use xlink:href="#f3_2l" transform="matrix(12,0,0,12,137.9,644.4)" />
<use xlink:href="#f3_x" transform="matrix(12,0,0,12,151.1,644.4)" />
<use xlink:href="#f4_4y" transform="matrix(12,0,0,12,166.2,644.4)" />
<use xlink:href="#f4_l" transform="matrix(12,0,0,12,180.1,644.4)" />
<use xlink:href="#f4_4s" transform="matrix(12,0,0,12,194,644.4)" />
<use xlink:href="#f3_c" transform="matrix(12,0,0,12,216.8,644.4)" />
<use xlink:href="#f3_l" transform="matrix(12,0,0,12,223,644.4)" />
<use xlink:href="#f3_d" transform="matrix(12,0,0,12,232.2,644.4)" />
<use xlink:href="#f3_m" transform="matrix(12,0,0,12,110,667.2)" />
<use xlink:href="#f3_2k" transform="matrix(12,0,0,12,119.2,667.2)" />
<use xlink:href="#f4_4y" transform="matrix(12,0,0,12,132.8,667.2)" />
<use xlink:href="#f4_2l" transform="matrix(12,0,0,12,147.1,667.2)" />
<use xlink:href="#f4_x" transform="matrix(12,0,0,12,160.3,667.2)" />
<use xlink:href="#f4_k" transform="matrix(12,0,0,12,175.3,667.2)" />
<use xlink:href="#f4_4s" transform="matrix(12,0,0,12,189.2,667.2)" />
<use xlink:href="#f4_c" transform="matrix(12,0,0,12,212.3,667.2)" />
<use xlink:href="#f4_m" transform="matrix(12,0,0,12,218.5,667.2)" />
<use xlink:href="#f4_d" transform="matrix(12,0,0,12,227.3,667.2)" />
<use xlink:href="#f3_1f" transform="matrix(12,0,0,12,110,689.9)" />
<use xlink:href="#f3_2a" transform="matrix(12,0,0,12,123.3,689.9)" />
<use xlink:href="#f3_2f" transform="matrix(12,0,0,12,136.8,689.9)" />
<use xlink:href="#f3_2b" transform="matrix(12,0,0,12,143.8,689.9)" />
<use xlink:href="#f3_28" transform="matrix(12,0,0,12,153.6,689.9)" />
<use xlink:href="#f3_2i" transform="matrix(12,0,0,12,158.4,689.9)" />
<use xlink:href="#f3_25" transform="matrix(12,0,0,12,167.6,689.9)" />
<use xlink:href="#f3_2a" transform="matrix(12,0,0,12,172.3,689.9)" />
<use xlink:href="#f3_23" transform="matrix(12,0,0,12,181.5,689.9)" />
<use xlink:href="#f3_1y" transform="matrix(12,0,0,12,195.4,689.9)" />
<use xlink:href="#f3_2b" transform="matrix(12,0,0,12,204.2,689.9)" />
<use xlink:href="#f3_2g" transform="matrix(12,0,0,12,213.7,689.9)" />
<use xlink:href="#f3_24" transform="matrix(12,0,0,12,219.2,689.9)" />
<use xlink:href="#f3_21" transform="matrix(12,0,0,12,232.8,689.9)" />
<use xlink:href="#f3_2d" transform="matrix(12,0,0,12,240.8,689.9)" />
<use xlink:href="#f3_2a" transform="matrix(7.9,0,0,7.9,250.2,682.9)" />
<use xlink:href="#f3_2j" transform="matrix(12,0,0,12,260.8,689.9)" />
<use xlink:href="#f3_21" transform="matrix(12,0,0,12,274,689.9)" />
<use xlink:href="#f3_23" transform="matrix(12,0,0,12,286.8,689.9)" />
<use xlink:href="#f3_21" transform="matrix(12,0,0,12,296,689.9)" />
<use xlink:href="#f3_2g" transform="matrix(12,0,0,12,304.1,689.9)" />
<use xlink:href="#f4_8r" transform="matrix(12,0,0,12,314,689.9)" />
<use xlink:href="#f3_2k" transform="matrix(12,0,0,12,337.1,689.9)" />
<use xlink:href="#f3_x" transform="matrix(12,0,0,12,350.7,689.9)" />
<use xlink:href="#f3_l" transform="matrix(12,0,0,12,365.7,689.9)" />
<use xlink:href="#f3_g" transform="matrix(12,0,0,12,374.8,689.9)" />
<use xlink:href="#f3_2l" transform="matrix(12,0,0,12,384,689.9)" />
<use xlink:href="#f3_x" transform="matrix(12,0,0,12,397.2,689.9)" />
<use xlink:href="#f3_m" transform="matrix(12,0,0,12,412.2,689.9)" />
<use xlink:href="#f3_2f" transform="matrix(12,0,0,12,110,712.6)" />
<use xlink:href="#f3_2b" transform="matrix(12,0,0,12,117,712.6)" />
<use xlink:href="#f3_2k" transform="matrix(12,0,0,12,131.3,712.6)" />
<use xlink:href="#f3_f" transform="matrix(12,0,0,12,144.8,712.6)" />
<use xlink:href="#f3_2l" transform="matrix(12,0,0,12,159.8,712.6)" />
<use xlink:href="#f3_x" transform="matrix(12,0,0,12,173,712.6)" />
<use xlink:href="#f3_n" transform="matrix(12,0,0,12,188,712.6)" />
<use xlink:href="#f3_11" transform="matrix(12,0,0,12,201.9,712.6)" />
<use xlink:href="#f3_2a" transform="matrix(12,0,0,12,215.2,712.6)" />
<use xlink:href="#f3_2f" transform="matrix(12,0,0,12,223.9,712.6)" />
<use xlink:href="#f3_i" transform="matrix(12,0,0,12,230.9,712.6)" />
<use xlink:href="#f3_p" transform="matrix(12,0,0,12,55,773.1)" />
<use xlink:href="#f3_i" transform="matrix(12,0,0,12,64.2,773.1)" />
<use xlink:href="#f3_19" transform="matrix(12,0,0,12,110,773.1)" />
<use xlink:href="#f3_22" transform="matrix(12,0,0,12,116.3,773.1)" />
</g>
<path d="M130.5,744.4v49.1m49.6,-49.1v49.1m21.3,-49.1v49.1m39.2,-49.1v49.1" class="g2_120" />
<g clip-path="url(#c2_120)">
<g fill="#000000" >
<use xlink:href="#f3_n" transform="matrix(12.6,0,0,12.3,133.3,760)" />
<use xlink:href="#f3_r" transform="matrix(12.6,0,0,12.3,169.2,760)" />
<use xlink:href="#f3_s" transform="matrix(12.6,0,0,12.3,203.6,760)" />
<use xlink:href="#f3_r" transform="matrix(12.6,0,0,12.3,229.8,760)" />
<use xlink:href="#f3_g" transform="matrix(12.6,0,0,12.3,243.9,773.6)" />
<use xlink:href="#f3_m" transform="matrix(12.6,0,0,12.3,143.2,787.7)" />
<use xlink:href="#f3_o" transform="matrix(12.6,0,0,12.3,169.5,787.7)" />
<use xlink:href="#f3_q" transform="matrix(12.6,0,0,12.3,203.8,787.7)" />
<use xlink:href="#f3_o" transform="matrix(12.6,0,0,12.3,230.1,787.7)" />
<use xlink:href="#f5_2k" transform="matrix(12.6,0,0,12.3,143,760)" />
<use xlink:href="#f6_x" transform="matrix(12.6,0,0,12.3,186.2,773.6)" />
<use xlink:href="#f6_h" transform="matrix(12.6,0,0,12.3,133.2,787.7)" />
</g>
</g>
<g fill="#000000" >
<use xlink:href="#f3_22" transform="matrix(12,0,0,12,256.8,773.1)" />
<use xlink:href="#f3_25" transform="matrix(12,0,0,12,262.6,773.1)" />
<use xlink:href="#f3_2a" transform="matrix(12,0,0,12,267.4,773.1)" />
<use xlink:href="#f3_20" transform="matrix(12,0,0,12,276.6,773.1)" />
<use xlink:href="#f3_2g" transform="matrix(12,0,0,12,290.5,773.1)" />
<use xlink:href="#f3_24" transform="matrix(12,0,0,12,296,773.1)" />
<use xlink:href="#f3_21" transform="matrix(12,0,0,12,304.8,773.1)" />
<use xlink:href="#f3_2i" transform="matrix(12,0,0,12,317.6,773.1)" />
<use xlink:href="#f3_1x" transform="matrix(12,0,0,12,326.8,773.1)" />
<use xlink:href="#f3_28" transform="matrix(12,0,0,12,335.2,773.1)" />
<use xlink:href="#f3_2h" transform="matrix(12,0,0,12,339.6,773.1)" />
<use xlink:href="#f3_21" transform="matrix(12,0,0,12,349.1,773.1)" />
<use xlink:href="#f3_2b" transform="matrix(12,0,0,12,361.9,773.1)" />
<use xlink:href="#f3_22" transform="matrix(12,0,0,12,371.4,773.1)" />
<use xlink:href="#f3_2k" transform="matrix(12,0,0,12,381.7,773.1)" />
<use xlink:href="#f3_i" transform="matrix(12,0,0,12,390.5,773.1)" />
<use xlink:href="#f2_1j" transform="matrix(12,0,0,12,55,814.6)" />
<use xlink:href="#f2_2b" transform="matrix(12,0,0,12,65.3,814.6)" />
<use xlink:href="#f2_28" transform="matrix(12,0,0,12,74.5,814.6)" />
<use xlink:href="#f2_2h" transform="matrix(12,0,0,12,79.2,814.6)" />
<use xlink:href="#f2_2g" transform="matrix(12,0,0,12,89.5,814.6)" />
<use xlink:href="#f2_25" transform="matrix(12,0,0,12,95.7,814.6)" />
<use xlink:href="#f2_2b" transform="matrix(12,0,0,12,100.8,814.6)" />
<use xlink:href="#f2_2a" transform="matrix(12,0,0,12,109.9,814.6)" />
<use xlink:href="#f2_u" transform="matrix(12,0,0,12,120.2,814.6)" />
</g>
<path d="M113.7,823.6v49.1m49.4,-49.1v49.1m21.3,-49.1v49.1m39.2,-49.1v49.1" class="g3_120" />
<g clip-path="url(#c3_120)">
<g fill="#000000" >
<use xlink:href="#f3_n" transform="matrix(12.6,0,0,12.3,116.4,839.2)" />
<use xlink:href="#f3_r" transform="matrix(12.6,0,0,12.3,152.3,839.2)" />
<use xlink:href="#f3_s" transform="matrix(12.6,0,0,12.3,186.6,839.2)" />
<use xlink:href="#f3_r" transform="matrix(12.6,0,0,12.3,212.7,839.2)" />
<use xlink:href="#f3_m" transform="matrix(12.6,0,0,12.3,126.3,866.9)" />
<use xlink:href="#f3_o" transform="matrix(12.6,0,0,12.3,152.5,866.9)" />
<use xlink:href="#f3_q" transform="matrix(12.6,0,0,12.3,186.7,866.9)" />
<use xlink:href="#f3_o" transform="matrix(12.6,0,0,12.3,212.9,866.9)" />
<use xlink:href="#f5_2k" transform="matrix(12.6,0,0,12.3,126.1,839.2)" />
<use xlink:href="#f6_x" transform="matrix(12.6,0,0,12.3,169.2,852.8)" />
<use xlink:href="#f6_h" transform="matrix(12.6,0,0,12.3,116.3,866.9)" />
</g>
</g>
<g fill="#000000" >
<use xlink:href="#f3_2b" transform="matrix(12,0,0,12,110,894.2)" />
<use xlink:href="#f3_2a" transform="matrix(12,0,0,12,119.6,894.2)" />
<use xlink:href="#f3_21" transform="matrix(12,0,0,12,133.1,894.2)" />
<use xlink:href="#f3_2k" transform="matrix(12,0,0,12,141.2,894.2)" />
<use xlink:href="#f3_2c" transform="matrix(12,0,0,12,150,894.2)" />
<use xlink:href="#f3_1x" transform="matrix(12,0,0,12,159.1,894.2)" />
<use xlink:href="#f3_2a" transform="matrix(12,0,0,12,167.5,894.2)" />
<use xlink:href="#f3_20" transform="matrix(12,0,0,12,176.3,894.2)" />
<use xlink:href="#f3_25" transform="matrix(12,0,0,12,185.9,894.2)" />
<use xlink:href="#f3_2a" transform="matrix(12,0,0,12,190.6,894.2)" />
<use xlink:href="#f3_23" transform="matrix(12,0,0,12,199.8,894.2)" />
<use xlink:href="#f3_1y" transform="matrix(12,0,0,12,213.7,894.2)" />
<use xlink:href="#f3_2b" transform="matrix(12,0,0,12,222.5,894.2)" />
<use xlink:href="#f3_2g" transform="matrix(12,0,0,12,232,894.2)" />
<use xlink:href="#f3_24" transform="matrix(12,0,0,12,237.5,894.2)" />
<use xlink:href="#f3_20" transform="matrix(12,0,0,12,251.1,894.2)" />
<use xlink:href="#f3_21" transform="matrix(12,0,0,12,260.2,894.2)" />
<use xlink:href="#f3_2g" transform="matrix(12,0,0,12,268.3,894.2)" />
<use xlink:href="#f3_21" transform="matrix(12,0,0,12,273.8,894.2)" />
<use xlink:href="#f3_2e" transform="matrix(12,0,0,12,281.8,894.2)" />
<use xlink:href="#f3_29" transform="matrix(12,0,0,12,288.1,894.2)" />
<use xlink:href="#f3_25" transform="matrix(12,0,0,12,302,894.2)" />
<use xlink:href="#f3_2a" transform="matrix(12,0,0,12,306.8,894.2)" />
<use xlink:href="#f3_1x" transform="matrix(12,0,0,12,315.6,894.2)" />
<use xlink:href="#f3_2a" transform="matrix(12,0,0,12,324,894.2)" />
<use xlink:href="#f3_2g" transform="matrix(12,0,0,12,332.8,894.2)" />
<use xlink:href="#f3_2f" transform="matrix(12,0,0,12,338.2,894.2)" />
<use xlink:href="#f3_2j" transform="matrix(12,0,0,12,350,894.2)" />
<use xlink:href="#f3_21" transform="matrix(12,0,0,12,363.2,894.2)" />
<use xlink:href="#f3_23" transform="matrix(12,0,0,12,376,894.2)" />
<use xlink:href="#f3_21" transform="matrix(12,0,0,12,385.1,894.2)" />
<use xlink:href="#f3_2g" transform="matrix(12,0,0,12,393.2,894.2)" />
<use xlink:href="#f3_l" transform="matrix(12,0,0,12,110,916.9)" />
<use xlink:href="#f3_m" transform="matrix(12,0,0,12,119.2,916.9)" />
<use xlink:href="#f3_2k" transform="matrix(12,0,0,12,128.4,916.9)" />
<use xlink:href="#f3_f" transform="matrix(12,0,0,12,141.9,916.9)" />
<use xlink:href="#f3_l" transform="matrix(12,0,0,12,156.9,916.9)" />
<use xlink:href="#f3_o" transform="matrix(12,0,0,12,166.1,916.9)" />
<use xlink:href="#f3_x" transform="matrix(12,0,0,12,180,916.9)" />
<use xlink:href="#f3_n" transform="matrix(12,0,0,12,195,916.9)" />
<use xlink:href="#f3_m" transform="matrix(12,0,0,12,204.2,916.9)" />
<use xlink:href="#f4_4y" transform="matrix(12,0,0,12,218.2,916.9)" />
<use xlink:href="#f3_o" transform="matrix(12,0,0,12,231.8,916.9)" />
<use xlink:href="#f3_m" transform="matrix(12,0,0,12,241,916.9)" />
<use xlink:href="#f3_l" transform="matrix(12,0,0,12,110,939.7)" />
<use xlink:href="#f3_m" transform="matrix(12,0,0,12,119.2,939.7)" />
<use xlink:href="#f3_2k" transform="matrix(12,0,0,12,128.4,939.7)" />
<use xlink:href="#f3_f" transform="matrix(12,0,0,12,141.9,939.7)" />
<use xlink:href="#f3_l" transform="matrix(12,0,0,12,156.9,939.7)" />
<use xlink:href="#f3_o" transform="matrix(12,0,0,12,166.1,939.7)" />
<use xlink:href="#f3_x" transform="matrix(12,0,0,12,180,939.7)" />
<use xlink:href="#f4_4y" transform="matrix(12,0,0,12,195.1,939.7)" />
<use xlink:href="#f3_l" transform="matrix(12,0,0,12,204.3,939.7)" />
<use xlink:href="#f3_k" transform="matrix(12,0,0,12,213.5,939.7)" />
<use xlink:href="#f3_l" transform="matrix(12,0,0,12,110,962.4)" />
<use xlink:href="#f3_m" transform="matrix(12,0,0,12,119.2,962.4)" />
<use xlink:href="#f3_2k" transform="matrix(12,0,0,12,128.4,962.4)" />
<use xlink:href="#f3_x" transform="matrix(12,0,0,12,141.9,962.4)" />
<use xlink:href="#f4_4y" transform="matrix(12,0,0,12,157,962.4)" />
<use xlink:href="#f3_m" transform="matrix(12,0,0,12,166.2,962.4)" />
<use xlink:href="#f3_o" transform="matrix(12,0,0,12,175.3,962.4)" />
<use xlink:href="#f3_2k" transform="matrix(12,0,0,12,110,985.1)" />
<use xlink:href="#f3_x" transform="matrix(12,0,0,12,123.6,985.1)" />
<use xlink:href="#f4_4y" transform="matrix(12,0,0,12,138.6,985.1)" />
<use xlink:href="#f3_m" transform="matrix(12,0,0,12,147.8,985.1)" />
<use xlink:href="#f3_11" transform="matrix(12,0,0,12,161.8,985.1)" />
<use xlink:href="#f3_2a" transform="matrix(12,0,0,12,175,985.1)" />
<use xlink:href="#f3_2f" transform="matrix(12,0,0,12,183.8,985.1)" />
<use xlink:href="#f3_i" transform="matrix(12,0,0,12,190.7,985.1)" />
<use xlink:href="#f3_q" transform="matrix(12,0,0,12,55,1044.9)" />
<use xlink:href="#f3_i" transform="matrix(12,0,0,12,64.2,1044.9)" />
<use xlink:href="#f3_19" transform="matrix(12,0,0,12,110,1044.9)" />
<use xlink:href="#f3_22" transform="matrix(12,0,0,12,116.3,1044.9)" />
<use xlink:href="#f3_22" transform="matrix(12,0,0,12,126.9,1044.9)" />
<use xlink:href="#f3_c" transform="matrix(12,0,0,12,137.1,1044.9)" />
<use xlink:href="#f3_2k" transform="matrix(12,0,0,12,143.7,1044.9)" />
<use xlink:href="#f3_d" transform="matrix(12,0,0,12,152.5,1044.9)" />
<use xlink:href="#f3_x" transform="matrix(12,0,0,12,163.5,1044.9)" />
</g>
<g clip-path="url(#c4_120)">
<g fill="#000000" >
<use xlink:href="#f3_k" transform="matrix(7.1,0,0,7.1,178.1,1065.2)" />
<use xlink:href="#f3_2f" transform="matrix(12.3,0,0,12.2,194.1,1045.4)" />
<use xlink:href="#f3_25" transform="matrix(12.3,0,0,12.2,201.2,1045.4)" />
<use xlink:href="#f3_2a" transform="matrix(12.3,0,0,12.2,206.4,1045.4)" />
<use xlink:href="#f3_g" transform="matrix(12.3,0,0,12.2,245.6,1045.4)" />
<use xlink:href="#f5_2k" transform="matrix(7.1,0,0,7.1,178.6,1024.4)" />
<use xlink:href="#f5_2g" transform="matrix(12.3,0,0,12.2,186.5,1045.4)" />
<use xlink:href="#f5_2g" transform="matrix(12.3,0,0,12.2,220,1045.4)" />
<use xlink:href="#f5_20" transform="matrix(12.3,0,0,12.2,230.4,1045.4)" />
<use xlink:href="#f5_2g" transform="matrix(12.3,0,0,12.2,239.6,1045.4)" />
<use xlink:href="#f6_50" transform="matrix(18.5,0,0,18.3,177,1052)" />
</g>
</g>
<g fill="#000000" >
<use xlink:href="#f3_2g" transform="matrix(12,0,0,12,257.1,1044.9)" />
<use xlink:href="#f3_24" transform="matrix(12,0,0,12,262.6,1044.9)" />
<use xlink:href="#f3_21" transform="matrix(12,0,0,12,271.4,1044.9)" />
<use xlink:href="#f3_2a" transform="matrix(12,0,0,12,279.5,1044.9)" />
<use xlink:href="#f3_2j" transform="matrix(12,0,0,12,293,1044.9)" />
<use xlink:href="#f3_2e" transform="matrix(12,0,0,12,306.3,1044.9)" />
<use xlink:href="#f3_25" transform="matrix(12,0,0,12,312.8,1044.9)" />
<use xlink:href="#f3_2g" transform="matrix(12,0,0,12,317.2,1044.9)" />
<use xlink:href="#f3_21" transform="matrix(12,0,0,12,322.7,1044.9)" />
<use xlink:href="#f3_2g" transform="matrix(12,0,0,12,335.5,1044.9)" />
<use xlink:href="#f3_24" transform="matrix(12,0,0,12,341,1044.9)" />
<use xlink:href="#f3_21" transform="matrix(12,0,0,12,349.8,1044.9)" />
<use xlink:href="#f3_2i" transform="matrix(12,0,0,12,362.6,1044.9)" />
<use xlink:href="#f3_1x" transform="matrix(12,0,0,12,371.4,1044.9)" />
<use xlink:href="#f3_28" transform="matrix(12,0,0,12,379.8,1044.9)" />
<use xlink:href="#f3_2h" transform="matrix(12,0,0,12,384.6,1044.9)" />
<use xlink:href="#f3_21" transform="matrix(12,0,0,12,393.8,1044.9)" />
<use xlink:href="#f3_2b" transform="matrix(12,0,0,12,406.6,1044.9)" />
<use xlink:href="#f3_22" transform="matrix(12,0,0,12,416.1,1044.9)" />
<use xlink:href="#f3_22" transform="matrix(12,0,0,12,426.7,1044.9)" />
<use xlink:href="#f4_b2" transform="matrix(12,0,0,12,437.6,1044.9)" />
<use xlink:href="#f3_c" transform="matrix(12,0,0,12,446.1,1044.9)" />
<use xlink:href="#f3_2k" transform="matrix(12,0,0,12,452.3,1044.9)" />
<use xlink:href="#f3_d" transform="matrix(12,0,0,12,461.1,1044.9)" />
<use xlink:href="#f3_i" transform="matrix(12,0,0,12,467.3,1044.9)" />
<use xlink:href="#f2_1j" transform="matrix(12,0,0,12,55,1088.6)" />
<use xlink:href="#f2_2b" transform="matrix(12,0,0,12,65.3,1088.6)" />
<use xlink:href="#f2_28" transform="matrix(12,0,0,12,74.5,1088.6)" />
<use xlink:href="#f2_2h" transform="matrix(12,0,0,12,79.2,1088.6)" />
<use xlink:href="#f2_2g" transform="matrix(12,0,0,12,89.5,1088.6)" />
<use xlink:href="#f2_25" transform="matrix(12,0,0,12,95.7,1088.6)" />
<use xlink:href="#f2_2b" transform="matrix(12,0,0,12,100.8,1088.6)" />
<use xlink:href="#f2_2a" transform="matrix(12,0,0,12,109.9,1088.6)" />
<use xlink:href="#f2_u" transform="matrix(12,0,0,12,120.2,1088.6)" />
</g>
<g clip-path="url(#c5_120)">
<g fill="#000000" >
<use xlink:href="#f3_k" transform="matrix(7.3,0,0,7,168.4,1145.8)" />
<use xlink:href="#f3_c" transform="matrix(12.6,0,0,12.2,125.9,1126)" />
<use xlink:href="#f3_d" transform="matrix(12.6,0,0,12.2,141.9,1126)" />
<use xlink:href="#f3_2f" transform="matrix(12.6,0,0,12.2,184.5,1126)" />
<use xlink:href="#f3_25" transform="matrix(12.6,0,0,12.2,191.6,1126)" />
<use xlink:href="#f3_2a" transform="matrix(12.6,0,0,12.2,196.8,1126)" />
<use xlink:href="#f5_2k" transform="matrix(7.3,0,0,7,168.9,1105.1)" />
<use xlink:href="#f5_22" transform="matrix(12.6,0,0,12.2,116.4,1126)" />
<use xlink:href="#f5_2k" transform="matrix(12.6,0,0,12.2,133.3,1126)" />
<use xlink:href="#f5_2g" transform="matrix(12.6,0,0,12.2,176.8,1126)" />
<use xlink:href="#f5_2g" transform="matrix(12.6,0,0,12.2,210.5,1126)" />
<use xlink:href="#f5_20" transform="matrix(12.6,0,0,12.2,220.9,1126)" />
<use xlink:href="#f5_2g" transform="matrix(12.6,0,0,12.2,230.1,1126)" />
<use xlink:href="#f6_x" transform="matrix(12.6,0,0,12.2,152.5,1126)" />
<use xlink:href="#f6_50" transform="matrix(18.9,0,0,18.3,167.3,1132.6)" />
</g>
</g>
<g fill="#000000" >
<use xlink:href="#f7_13x" transform="matrix(12,0,0,12,110,1169.3)" />
<use xlink:href="#f4_22" transform="matrix(12,0,0,12,130.6,1169.3)" />
<use xlink:href="#f4_b2" transform="matrix(12,0,0,12,136.4,1169.3)" />
<use xlink:href="#f4_c" transform="matrix(12,0,0,12,144.9,1169.3)" />
<use xlink:href="#f4_2k" transform="matrix(12,0,0,12,151.4,1169.3)" />
<use xlink:href="#f4_d" transform="matrix(12,0,0,12,160.2,1169.3)" />
<use xlink:href="#f4_x" transform="matrix(12,0,0,12,171.2,1169.3)" />
<use xlink:href="#f4_l" transform="matrix(12,0,0,12,186.2,1169.3)" />
<use xlink:href="#f7_1ad" transform="matrix(12,0,0,12,195.5,1169.3)" />
<use xlink:href="#f3_2k" transform="matrix(12,0,0,12,200.6,1169.3)" />
<use xlink:href="#f3_2f" transform="matrix(12,0,0,12,214.2,1169.3)" />
<use xlink:href="#f3_25" transform="matrix(12,0,0,12,221.5,1169.3)" />
<use xlink:href="#f3_2a" transform="matrix(12,0,0,12,226.3,1169.3)" />
<use xlink:href="#f3_2k" transform="matrix(12,0,0,12,240.2,1169.3)" />
<use xlink:href="#f4_4y" transform="matrix(12,0,0,12,253.8,1169.3)" />
<use xlink:href="#f3_k" transform="matrix(12,0,0,12,267.8,1169.3)" />
</g>
<path fill-rule="evenodd" d="M37.4,38.1h.7v-.7h-.7v.7Z" class="g4_120" />
<path fill-rule="evenodd" d="M37.4,38.1h.7v-.7h-.7v.7Z" class="g4_120" />
<path fill-rule="evenodd" d="M38.1,38.1H871.5v-.7H38.1v.7Z" class="g4_120" />
<path fill-rule="evenodd" d="M871.5,38.1h.8v-.7h-.8v.7Z" class="g4_120" />
<path fill-rule="evenodd" d="M871.5,38.1h.8v-.7h-.8v.7Z" class="g4_120" />
<path fill-rule="evenodd" d="M37.4,1248.5h.7V38.1h-.7V1248.5Z" class="g4_120" />
<path fill-rule="evenodd" d="M872.3,1248.5h.7V38.1h-.7V1248.5Z" class="g4_120" />
<path fill-rule="evenodd" d="M871.5,1248.5h.8V38.1h-.8V1248.5Z" class="g4_120" />
<path fill-rule="evenodd" d="M37.4,1249.2h.7v-.7h-.7v.7Z" class="g4_120" />
<path fill-rule="evenodd" d="M37.4,1249.2h.7v-.7h-.7v.7Z" class="g4_120" />
<path fill-rule="evenodd" d="M38.1,1249.9H871.5v-.7H38.1v.7Z" class="g4_120" />
<path fill-rule="evenodd" d="M38.1,1249.2H871.5v-.7H38.1v.7Z" class="g4_120" />
<path fill-rule="evenodd" d="M872.3,1249.9h.7v-1.4h-.7v1.4Z" class="g4_120" />
<path fill-rule="evenodd" d="M871.5,1249.9H873v-.7h-1.5v.7Z" class="g4_120" />
<path fill-rule="evenodd" d="M871.5,1249.2h.8v-.7h-.8v.7Z" class="g4_120" />
<path fill-rule="evenodd" d="M871.5,1249.2h.8v-.7h-.8v.7Z" class="g4_120" />
<defs>
<path d="M489,-15c0,0,-99,0,-179,30c0,0,-80,30,-136,91c0,0,-56,61,-85,152c0,0,-30,91,-30,212c0,0,0,123,32,218c0,0,33,96,92,161c0,0,59,65,142,98c0,0,82,34,181,34c0,0,40,0,78,-7c0,0,37,-7,69,-18c0,0,31,-11,57,-25c0,0,25,-14,35,-24c0,0,10,-10,14,-17c0,0,4,-7,6,-17c0,0,2,-11,3,-25c0,0,2,-14,2,-35c0,0,0,-22,-2,-38c0,0,-1,-15,-5,-25c0,0,-4,-10,-9,-14c0,0,-5,-5,-12,-5c0,0,-11,0,-28,13c0,0,-18,13,-45,29c0,0,-27,16,-65,29c0,0,-37,13,-89,13c0,0,-58,0,-103,-23c0,0,-45,-23,-77,-67c0,0,-31,-44,-48,-106c0,0,-16,-61,-16,-139c0,0,0,-85,17,-147c0,0,18,-62,50,-103c0,0,33,-40,79,-60c0,0,45,-19,103,-19c0,0,52,0,90,12c0,0,38,12,65,27c0,0,27,15,45,27c0,0,17,12,27,12c0,0,8,0,12,-3c0,0,4,-3,7,-12c0,0,3,-9,5,-25c0,0,1,-16,1,-43c0,0,0,-18,-1,-31c0,0,-1,-14,-3,-23c0,0,-2,-9,-6,-16c0,0,-4,-7,-12,-15c0,0,-8,-9,-32,-22c0,0,-23,-14,-57,-26C661,13,627,1,583,-6c0,0,-43,-9,-94,-9Z" 
id="f0_j"
transform="scale(0.001,-0.001)" />

<path d="M440,150c0,0,41,0,68,8c0,0,28,9,49,26c0,0,20,16,32,41c0,0,11,25,11,58c0,0,0,33,-11,60c0,0,-11,26,-33,44c0,0,-21,18,-55,28c0,0,-33,9,-87,9H298V150ZM407,567c0,0,42,0,68,10c0,0,25,10,42,28c0,0,16,17,24,41c0,0,9,24,9,50c0,0,0,29,-9,52c0,0,-9,23,-27,39c0,0,-18,15,-45,23c0,0,-27,8,-72,8H298V567ZM164,0c0,0,-25,0,-42,15c0,0,-16,14,-16,47V903c0,0,0,33,16,48c0,0,17,14,42,14H406c0,0,88,0,150,-15c0,0,61,-15,103,-45c0,0,42,-30,65,-77c0,0,22,-46,22,-108c0,0,0,-36,-9,-67c0,0,-9,-31,-26,-56c0,0,-17,-25,-42,-45c0,0,-25,-19,-57,-31c0,0,41,-7,76,-26c0,0,34,-19,60,-48c0,0,26,-30,41,-69c0,0,15,-40,15,-89c0,0,0,-51,-14,-93c0,0,-15,-42,-40,-74c0,0,-25,-32,-59,-55c0,0,-35,-23,-77,-38C614,29,573,14,525,7C525,7,478,0,420,0Z" 
id="f0_i"
transform="scale(0.001,-0.001)" />

<path d="M320,-17c0,0,-50,0,-93,9c0,0,-43,8,-76,19c0,0,-32,11,-54,24C97,35,75,48,65,58c0,0,-10,9,-14,28c0,0,-4,18,-4,52c0,0,0,23,1,39c0,0,2,15,5,25c0,0,4,10,9,14c0,0,6,4,13,4c0,0,11,0,30,-12c0,0,19,-13,49,-28c0,0,30,-15,71,-27c0,0,42,-12,96,-12c0,0,36,0,64,8c0,0,29,9,49,25c0,0,19,15,30,38c0,0,10,23,10,52c0,0,0,33,-18,56c0,0,-18,24,-46,42c0,0,-29,18,-66,34c0,0,-36,16,-75,34c0,0,-39,18,-76,41c0,0,-36,23,-65,54c0,0,-29,32,-47,75c0,0,-17,44,-17,104c0,0,0,70,25,122c0,0,26,53,70,88c0,0,43,34,103,51c0,0,59,18,125,18c0,0,35,0,69,-6c0,0,34,-5,64,-14c0,0,30,-9,53,-20c0,0,23,-11,31,-18c0,0,7,-8,10,-13c0,0,3,-5,4,-14c0,0,2,-8,3,-21c0,0,1,-13,1,-33c0,0,0,-21,-1,-36c0,0,-1,-15,-4,-25c0,0,-3,-9,-7,-14c0,0,-5,-4,-14,-4c0,0,-8,0,-26,10c0,0,-18,10,-44,23c0,0,-26,12,-60,22c0,0,-34,10,-75,10c0,0,-32,0,-56,-8c0,0,-24,-8,-40,-21c0,0,-16,-14,-24,-34c0,0,-8,-19,-8,-41c0,0,0,-32,18,-56c0,0,17,-23,46,-42c0,0,30,-18,67,-34c0,0,38,-16,76,-34c0,0,39,-18,76,-41c0,0,38,-22,67,-54c0,0,29,-32,47,-75c0,0,18,-43,18,-101c0,0,0,-76,-29,-133c0,0,-28,-58,-77,-96C572,60,524,21,459,2c0,0,-65,-19,-139,-19Z" 
id="f0_2n"
transform="scale(0.001,-0.001)" />

<path d="M164,0c0,0,-25,0,-42,15c0,0,-16,14,-16,47V903c0,0,0,33,16,48c0,0,17,14,42,14H645c0,0,7,0,12,-4c0,0,5,-3,9,-13c0,0,4,-9,6,-24c0,0,2,-14,2,-36c0,0,0,-21,-2,-36c0,0,-2,-14,-6,-23c0,0,-4,-9,-9,-13c0,0,-5,-4,-12,-4H301V576H593c0,0,6,0,12,-4c0,0,6,-4,9,-13c0,0,4,-8,6,-23c0,0,2,-14,2,-35c0,0,0,-22,-2,-36c0,0,-2,-14,-6,-23c0,0,-3,-8,-9,-12c0,0,-6,-4,-12,-4H301V154H649c0,0,6,0,12,-5c0,0,5,-4,9,-13c0,0,4,-9,6,-23c0,0,2,-15,2,-36c0,0,0,-22,-2,-36c0,0,-2,-15,-6,-24c0,0,-4,-9,-9,-13c0,0,-6,-4,-12,-4Z" 
id="f0_t"
transform="scale(0.001,-0.001)" />

<path d="M79,297c0,0,-19,0,-27,18c0,0,-8,17,-8,60c0,0,0,41,8,59c0,0,8,17,27,17H389c0,0,9,0,15,-4c0,0,7,-4,11,-13c0,0,5,-9,7,-23c0,0,1,-15,1,-36c0,0,0,-43,-8,-61c0,0,-8,-17,-26,-17Z" 
id="f0_oj"
transform="scale(0.001,-0.001)" />

<path d="M121,-4c0,0,-39,0,-60,2C61,-2,39,0,32,8c0,0,-8,8,-3,24c0,0,4,15,18,41L279,495L64,892c0,0,-14,26,-19,42c0,0,-5,17,4,24c0,0,9,8,32,10c0,0,23,2,65,2c0,0,35,0,56,-2c0,0,20,-1,32,-4c0,0,12,-4,17,-10c0,0,5,-6,9,-15L431,620L595,939c0,0,5,9,10,15c0,0,5,6,16,10c0,0,10,3,29,4c0,0,19,2,53,2c0,0,37,0,59,-2c0,0,22,-2,30,-10c0,0,8,-8,4,-24c0,0,-4,-16,-17,-42L564,497L793,73c0,0,14,-26,18,-41c0,0,4,-16,-5,-24c0,0,-9,-8,-32,-10c0,0,-24,-2,-65,-2c0,0,-36,0,-56,2c0,0,-20,1,-31,3c0,0,-12,4,-17,10c0,0,-5,6,-9,15L414,374L233,26c0,0,-4,-9,-9,-15c0,0,-6,-6,-17,-10c0,0,-12,-2,-32,-3c0,0,-21,-2,-54,-2Z" 
id="f0_3e"
transform="scale(0.001,-0.001)" />

<path d="M204,-4c0,0,-28,0,-47,2c0,0,-19,2,-31,5c0,0,-11,4,-16,10c0,0,-4,6,-4,13V939c0,0,0,7,4,13c0,0,5,6,17,10c0,0,11,3,30,6c0,0,19,2,47,2c0,0,29,0,48,-2c0,0,18,-3,29,-6c0,0,11,-4,16,-10c0,0,5,-6,5,-13V26c0,0,0,-7,-5,-13c0,0,-5,-6,-16,-10c0,0,-11,-3,-29,-5c0,0,-19,-2,-48,-2Z" 
id="f0_1c"
transform="scale(0.001,-0.001)" />

<path d="M127,0c0,0,-16,0,-28,3C99,3,87,6,80,15c0,0,-8,8,-11,25c0,0,-3,16,-3,42c0,0,0,25,2,42c0,0,2,18,8,32c0,0,6,14,15,27c0,0,9,13,24,29L282,390c0,0,50,53,81,95c0,0,30,43,47,79c0,0,17,35,24,65c0,0,6,30,6,57c0,0,0,24,-8,46c0,0,-8,22,-23,39c0,0,-15,16,-38,25c0,0,-23,10,-55,10c0,0,-44,0,-78,-12c0,0,-33,-11,-59,-25c0,0,-26,-13,-43,-25c0,0,-17,-12,-27,-12c0,0,-7,0,-11,5c0,0,-5,4,-8,15c0,0,-3,10,-5,28c0,0,-2,17,-2,42c0,0,0,18,1,29c0,0,1,12,4,20c0,0,2,9,6,15c0,0,3,6,13,15c0,0,9,9,34,23c0,0,25,14,61,27c0,0,37,14,81,23c0,0,44,9,92,9c0,0,75,0,131,-19c0,0,57,-19,94,-53c0,0,37,-34,55,-81c0,0,19,-47,19,-100c0,0,0,-47,-9,-93c0,0,-9,-45,-37,-98c0,0,-29,-52,-80,-116c0,0,-52,-64,-136,-148L299,159H679c0,0,8,0,14,-4c0,0,6,-5,11,-14c0,0,4,-9,7,-25c0,0,2,-15,2,-36c0,0,0,-22,-2,-37c0,0,-2,-15,-6,-25c0,0,-3,-10,-9,-14c0,0,-6,-4,-14,-4Z" 
id="f0_rz"
transform="scale(0.001,-0.001)" />

<path d="M385,138c0,0,29,0,52,9c0,0,22,10,39,28c0,0,17,19,28,47c0,0,11,29,19,66c0,0,7,37,9,84c0,0,3,47,3,104c0,0,0,69,-4,122c0,0,-4,52,-11,91c0,0,-8,39,-20,66c0,0,-12,27,-28,43c0,0,-16,16,-37,22c0,0,-21,7,-47,7c0,0,-44,0,-73,-21c0,0,-28,-21,-45,-64c0,0,-17,-42,-24,-106c0,0,-6,-63,-6,-148c0,0,0,-103,8,-171c0,0,8,-67,26,-107c0,0,17,-40,45,-56c0,0,27,-16,66,-16ZM378,-17c0,0,-99,0,-164,33c0,0,-65,34,-103,98c0,0,-38,64,-54,156c0,0,-15,92,-15,209c0,0,0,115,19,208c0,0,19,94,61,160c0,0,42,65,110,101c0,0,68,35,165,35c0,0,99,0,164,-34c0,0,65,-34,103,-98c0,0,39,-64,53,-156c0,0,15,-92,15,-209c0,0,0,-115,-18,-209c0,0,-19,-93,-61,-159C653,118,611,53,543,17c0,0,-67,-34,-165,-34Z" 
id="f0_rx"
transform="scale(0.001,-0.001)" />

<path d="M142,0c0,0,-6,0,-12,4c0,0,-5,3,-9,12c0,0,-4,9,-6,23c0,0,-3,15,-3,36c0,0,0,21,2,36c0,0,2,14,6,23c0,0,4,9,10,13c0,0,5,5,12,5H322V779L166,693c0,0,-17,-8,-28,-10c0,0,-1,0,-3,0c-4,0,-10,1,-14,5c0,0,-6,6,-8,22c0,0,-2,15,-2,44c0,0,0,18,0,29c0,0,1,12,4,20c0,0,3,8,8,14c0,0,5,5,14,11L345,962c0,0,4,3,9,5c0,0,6,2,15,3c0,0,9,1,23,2c0,0,15,0,38,0c0,0,28,0,46,-1c0,0,17,-1,26,-4c0,0,9,-3,12,-7c0,0,3,-4,3,-11V152H675c0,0,7,0,12,-5c0,0,6,-4,10,-13c0,0,4,-9,6,-23c0,0,2,-15,2,-36c0,0,0,-21,-2,-36c0,0,-3,-14,-7,-23c0,0,-4,-9,-9,-12c0,0,-5,-4,-12,-4Z" 
id="f0_ry"
transform="scale(0.001,-0.001)" />

<path d="M439,356V801h-1L183,356ZM532,-4c0,0,-27,0,-45,2c0,0,-18,2,-29,5c0,0,-11,3,-15,9c0,0,-4,5,-4,13V199H70c0,0,-11,0,-19,3c0,0,-8,3,-14,12c0,0,-5,9,-8,27c0,0,-3,17,-3,46c0,0,0,24,2,42c0,0,1,17,3,31c0,0,3,15,8,27c0,0,5,13,12,27L351,944c0,0,4,7,13,11c0,0,9,5,25,9c0,0,16,3,40,4c0,0,25,2,60,2c0,0,38,0,65,-2c0,0,27,-2,43,-6c0,0,16,-4,23,-10c0,0,8,-6,8,-14V356h85c0,0,12,0,21,-18c0,0,8,-19,8,-61c0,0,0,-38,-8,-58c0,0,-7,-20,-21,-20H628V25c0,0,0,-8,-5,-13c0,0,-4,-6,-15,-9c0,0,-12,-3,-29,-5c0,0,-18,-2,-47,-2Z" 
id="f0_s6"
transform="scale(0.001,-0.001)" />

<path d="M589,371L453,782h-1L317,371ZM106,-4c0,0,-35,0,-54,2C52,-2,32,0,25,8c0,0,-7,9,-5,24c0,0,2,16,11,42L329,931c0,0,4,13,10,21c0,0,6,7,19,12c0,0,13,4,36,5c0,0,23,1,61,1c0,0,44,0,71,-1c0,0,26,-1,40,-5c0,0,15,-5,21,-13c0,0,6,-8,11,-22L896,73c0,0,9,-27,11,-43c0,0,3,-15,-6,-23c0,0,-8,-7,-29,-9c0,0,-21,-2,-57,-2c0,0,-38,0,-59,1c0,0,-22,1,-33,4c0,0,-11,3,-16,9c0,0,-4,6,-7,16L635,220H272L211,31c0,0,-2,-11,-7,-18c0,0,-5,-7,-16,-11c0,0,-11,-3,-31,-4c0,0,-19,-2,-51,-2Z" 
id="f0_5"
transform="scale(0.001,-0.001)" />

<path d="M198,-4c0,0,-27,0,-45,2c0,0,-18,2,-28,5c0,0,-11,4,-15,10c0,0,-4,6,-4,13V887c0,0,0,38,20,58c0,0,20,20,53,20H308c0,0,34,0,59,-6c0,0,24,-5,42,-18c0,0,18,-13,30,-35c0,0,12,-21,21,-52L669,279h3L889,852c0,0,9,32,21,53c0,0,11,22,27,35c0,0,15,14,36,19c0,0,21,6,48,6h132c0,0,21,0,35,-5c0,0,15,-5,24,-15c0,0,9,-11,14,-25c0,0,5,-15,5,-33V26c0,0,0,-7,-4,-13c0,0,-4,-6,-15,-10c0,0,-11,-3,-29,-5c0,0,-18,-2,-45,-2c0,0,-27,0,-45,2c0,0,-18,2,-28,5c0,0,-11,4,-15,10c0,0,-5,6,-5,13V813h-1L764,27c0,0,-3,-10,-10,-16c0,0,-6,-6,-18,-10c0,0,-12,-3,-29,-4c0,0,-18,-1,-44,-1c0,0,-25,0,-43,2c0,0,-18,2,-29,5c0,0,-12,4,-19,10c0,0,-6,6,-9,14L293,813h-2V26c0,0,0,-7,-4,-13c0,0,-4,-6,-15,-10c0,0,-11,-3,-29,-5c0,0,-17,-2,-45,-2Z" 
id="f0_1x"
transform="scale(0.001,-0.001)" />

<path d="M193,-4c0,0,-26,0,-43,2c0,0,-18,2,-27,6c0,0,-10,4,-14,10c0,0,-3,6,-3,13V895c0,0,0,35,20,53c0,0,21,17,50,17H282c0,0,28,0,47,-5c0,0,20,-5,35,-16c0,0,15,-11,29,-31c0,0,13,-20,27,-49L608,511c0,0,17,-32,33,-63c0,0,16,-31,31,-62c0,0,14,-31,29,-60c0,0,14,-30,27,-60h1c0,0,-2,52,-3,109c0,0,-1,57,-1,108V936c0,0,0,7,4,13c0,0,5,6,15,11c0,0,10,4,28,6c0,0,17,2,44,2c0,0,25,0,42,-2c0,0,17,-2,27,-6c0,0,9,-5,13,-11c0,0,4,-6,4,-13V68c0,0,0,-17,-6,-30c0,0,-6,-14,-17,-23C879,15,869,6,856,2c0,0,-14,-3,-28,-3H744c0,0,-26,0,-45,4c0,0,-19,5,-35,19c0,0,-16,14,-31,38c0,0,-15,23,-34,60L359,572c0,0,-21,40,-43,86c0,0,-21,47,-38,91h-2c0,0,3,-54,5,-107c0,0,2,-53,2,-110V27c0,0,0,-7,-5,-13c0,0,-4,-6,-14,-10c0,0,-10,-4,-27,-6c0,0,-17,-2,-44,-2Z" 
id="f0_1y"
transform="scale(0.001,-0.001)" />

<path d="M378,-4c0,0,-28,0,-47,2c0,0,-19,2,-31,5c0,0,-11,4,-16,10c0,0,-4,6,-4,13V805H38c0,0,-8,0,-13,4c0,0,-5,5,-9,14c0,0,-3,9,-5,25c0,0,-2,15,-2,37c0,0,0,22,2,38c0,0,2,15,5,25c0,0,4,9,9,13c0,0,5,4,13,4H718c0,0,7,0,12,-4c0,0,6,-4,10,-13c0,0,3,-10,5,-25c0,0,2,-16,2,-38c0,0,0,-22,-2,-37c0,0,-2,-16,-5,-25c0,0,-4,-9,-10,-14c0,0,-5,-4,-12,-4H476V26c0,0,0,-7,-5,-13c0,0,-5,-6,-16,-10c0,0,-11,-3,-30,-5c0,0,-19,-2,-47,-2Z" 
id="f0_2t"
transform="scale(0.001,-0.001)" />

<path d="M514,145c0,0,72,0,121,27c0,0,48,26,78,73c0,0,30,46,42,107c0,0,13,62,13,131c0,0,0,76,-12,139c0,0,-12,62,-41,106c0,0,-29,45,-76,69c0,0,-48,24,-120,24c0,0,-72,0,-120,-27c0,0,-49,-27,-79,-73c0,0,-29,-45,-42,-106c0,0,-12,-61,-12,-129c0,0,0,-79,12,-142c0,0,12,-63,40,-108c0,0,28,-44,76,-68c0,0,48,-23,120,-23ZM508,-17c0,0,-113,0,-196,29c0,0,-84,29,-140,90c0,0,-56,60,-84,154c0,0,-28,93,-28,221c0,0,0,117,29,210c0,0,30,94,89,160c0,0,59,65,146,101c0,0,87,35,202,35c0,0,110,0,194,-29c0,0,84,-30,140,-90c0,0,56,-60,85,-153c0,0,29,-92,29,-217c0,0,0,-120,-30,-215c0,0,-30,-95,-89,-161C855,118,796,52,709,17c0,0,-87,-34,-201,-34Z" 
id="f0_24"
transform="scale(0.001,-0.001)" />

<path d="M75,0L400,413c0,0,71,91,101,149c0,0,30,58,30,109c0,0,0,55,-36,91c0,0,-36,36,-91,36c0,0,-63,0,-91,-45c0,0,-28,-46,-34,-142H67c0,0,0,173,102,268c0,0,102,95,253,95c0,0,140,0,229,-82c0,0,89,-82,89,-209c0,0,0,-125,-104,-276L580,324c0,0,-34,-50,-85,-114L468,178H740V0Z" 
id="f1_m"
transform="scale(0.001,-0.001)" />

<path d="M44,-281L425,1053H537L156,-281Z" 
id="f1_j"
transform="scale(0.001,-0.001)" />

<path d="M340,-13c0,0,-73,0,-129,20C211,7,155,27,86,74l22,217c0,0,156,-103,245,-103c0,0,64,0,112,45c0,0,47,46,47,107c0,0,0,68,-47,113c0,0,-48,46,-121,46c0,0,-85,0,-184,-42l48,495H681V777H393L382,665c0,0,163,0,251,-95c0,0,88,-95,88,-224c0,0,0,-146,-113,-253C608,93,494,-13,340,-13Z" 
id="f1_p"
transform="scale(0.001,-0.001)" />

<path d="M342,-14c0,0,-138,0,-276,29L57,258h69L165,96c0,0,65,-36,136,-36c0,0,90,0,141,58c0,0,50,57,50,161c0,0,0,91,-40,139c0,0,-41,48,-132,54l-87,5v90l84,6c0,0,66,5,98,49c0,0,32,44,32,134c0,0,0,83,-38,131c0,0,-38,48,-107,48c0,0,-40,0,-66,-13c0,0,-26,-12,-49,-26L155,751H90V979c0,0,76,19,132,26c0,0,55,6,108,6c0,0,337,0,337,-246c0,0,0,-102,-54,-164c0,0,-54,-63,-153,-78c0,0,252,-30,252,-251c0,0,0,-136,-98,-211c0,0,-98,-75,-272,-75Z" 
id="f2_n"
transform="scale(0.001,-0.001)" />

<path d="M191,-20c0,0,-51,0,-88,34c0,0,-36,36,-36,88c0,0,0,52,36,88c0,0,36,36,88,36c0,0,51,0,88,-36c0,0,36,-36,36,-88c0,0,0,-51,-36,-87c0,0,-36,-35,-88,-35Z" 
id="f2_i"
transform="scale(0.001,-0.001)" />

<path d="M55,0V40L184,60V941L55,960v40H455V960L327,941V60L455,40V0Z" 
id="f3_19"
transform="scale(0.001,-0.001)" />

<path d="M64,0V34L168,59V639H47v36l121,29v49c0,0,0,155,61,239c0,0,62,84,173,84c0,0,58,0,107,-15V908H472l-33,92c0,0,-26,16,-62,16c0,0,-47,0,-66,-42c0,0,-19,-42,-19,-157V701H478V639H292V59L443,34V0Z" 
id="f3_22"
transform="scale(0.001,-0.001)" />

<path d="M681,416L504,902L333,416ZM669,0V40L803,60L704,348H310L210,60L344,40V0H15V40L128,60l341,949H611L965,60L1092,40V0Z" 
id="f3_11"
transform="scale(0.001,-0.001)" />

<path d="M32,0V33L151,52V649L52,668v33H275V52L395,33V0ZM201,850c0,0,-32,0,-56,24c0,0,-24,24,-24,56c0,0,0,34,24,58c0,0,24,24,56,24c0,0,34,0,58,-24c0,0,24,-24,24,-58c0,0,0,-32,-24,-56c0,0,-24,-24,-58,-24Z" 
id="f3_25"
transform="scale(0.001,-0.001)" />

<path d="M278,-14c0,0,-52,0,-115,11c0,0,-63,10,-99,23V193H98L134,95c0,0,56,-50,146,-50c0,0,144,0,144,123c0,0,0,91,-114,130l-66,21c0,0,-75,25,-110,50c0,0,-34,26,-53,63c0,0,-18,36,-18,89c0,0,0,92,63,145c0,0,63,54,170,54c0,0,77,0,193,-23V544H454l-32,81c0,0,-39,35,-124,35c0,0,-61,0,-92,-30c0,0,-32,-30,-32,-80c0,0,0,-43,29,-72c0,0,28,-29,86,-48c0,0,110,-38,144,-55c0,0,33,-17,57,-42c0,0,23,-25,36,-57c0,0,13,-32,13,-79c0,0,0,-104,-66,-158c0,0,-66,-53,-195,-53Z" 
id="f3_2f"
transform="scale(0.001,-0.001)" />

<path d="M284,67c0,0,51,0,88,12c0,0,37,12,74,30V358l-98,-3c0,0,-100,-4,-135,-39c0,0,-35,-35,-35,-117c0,0,0,-132,106,-132ZM233,-14c0,0,-179,0,-179,208c0,0,0,70,27,116c0,0,27,46,87,70c0,0,60,24,173,27l105,3V519c0,0,0,72,-26,107c0,0,-27,34,-82,34c0,0,-75,0,-137,-35L176,538H134V691c0,0,121,26,213,26c0,0,115,0,169,-47c0,0,54,-47,54,-144V52L657,33V0H465L451,70c0,0,-85,-84,-218,-84Z" 
id="f3_1x"
transform="scale(0.001,-0.001)" />

<path d="M383,64c0,0,44,0,87,7c0,0,43,7,65,17V645c0,0,-67,13,-152,13c0,0,-194,0,-194,-309c0,0,0,-143,48,-214c0,0,47,-71,146,-71Zm56,-389v35l96,18V-77c0,0,0,73,7,124c0,0,-79,-61,-200,-61c0,0,-287,0,-287,362c0,0,0,180,81,276c0,0,81,96,237,96c0,0,84,0,166,-18l67,33h53V-272l77,-18v-35Z" 
id="f3_2d"
transform="scale(0.001,-0.001)" />

<path d="M289,-14c0,0,-179,0,-179,205V649L20,668v33H233V200c0,0,0,-128,120,-128c0,0,92,0,173,23V649L420,668v33H649V52L738,33V0H533l-6,57C527,57,474,28,405,7c0,0,-69,-21,-116,-21Z" 
id="f3_2h"
transform="scale(0.001,-0.001)" />

<path d="M31,0V33l88,19V649L31,668v33H235l7,-87c0,0,44,37,121,71c0,0,76,35,121,35h11V530H463l-43,82c0,0,-37,0,-88,-10c0,0,-52,-10,-89,-26V52L363,33V0Z" 
id="f3_2e"
transform="scale(0.001,-0.001)" />

<path d="M495,413c0,0,0,133,-34,190c0,0,-34,57,-105,57c0,0,-78,0,-119,-63c0,0,-42,-62,-42,-184ZM374,-14c0,0,-163,0,-239,87c0,0,-75,88,-75,283c0,0,0,183,77,273c0,0,76,91,219,91c0,0,269,0,269,-306V353H194V340c0,0,0,-103,23,-160c0,0,22,-57,70,-87c0,0,47,-29,124,-29c0,0,40,0,96,6c0,0,55,7,91,15V43C598,43,562,20,500,3c0,0,-61,-17,-126,-17Z" 
id="f3_21"
transform="scale(0.001,-0.001)" />

<path d="M431,0V33L535,52V499c0,0,0,62,-32,96c0,0,-32,33,-95,33c0,0,-66,0,-163,-22V52L350,33V0H32V33l89,19V649L32,668v33H237l6,-57c0,0,56,32,119,54c0,0,62,22,110,22c0,0,52,0,95,-20c0,0,44,-19,66,-62c0,0,57,32,134,57c0,0,77,25,128,25c0,0,179,0,179,-207V52l90,-19V0H846V33L950,52V499c0,0,0,129,-119,129c0,0,-19,0,-45,-3c0,0,-26,-3,-52,-7c0,0,-25,-4,-49,-8c0,0,-23,-5,-39,-8c0,0,13,-41,13,-89V52L764,33V0Z" 
id="f3_29"
transform="scale(0.001,-0.001)" />

<path d="M249,-14c0,0,-71,0,-107,42c0,0,-35,42,-35,119V639H15v33l93,29l76,159h47V701H391V639H231V161c0,0,0,-48,22,-73c0,0,22,-24,57,-24c0,0,44,0,106,12V26C416,26,389,8,340,-2c0,0,-49,-12,-91,-12Z" 
id="f3_2g"
transform="scale(0.001,-0.001)" />

<path d="M13,0V34L95,46L325,350L122,649L40,668v33H357V668L264,648L399,446L554,649l-96,19v33H710V668L630,652L433,397L663,50L745,34V0H427V34l94,17L359,299L169,50L266,34V0Z" 
id="f3_2k"
transform="scale(0.001,-0.001)" />

<path d="M399,-14c0,0,-341,0,-341,370c0,0,0,175,87,269c0,0,87,95,249,95c0,0,101,0,220,-23V501H573L541,625c0,0,-62,35,-149,35c0,0,-200,0,-200,-304c0,0,0,-158,61,-225c0,0,61,-67,189,-67c0,0,109,0,189,24V43C631,43,595,16,530,1c0,0,-64,-15,-131,-15Z" 
id="f3_1z"
transform="scale(0.001,-0.001)" />

<path d="M442,0V33l93,19V504c0,0,0,129,-124,129c0,0,-70,0,-168,-22V52L338,33V0H31V33l88,19v956L15,1026v34H243V756c0,0,0,-77,-5,-112c0,0,54,31,122,53c0,0,68,23,115,23c0,0,91,0,137,-53c0,0,47,-53,47,-154V52L744,33V0Z" 
id="f3_24"
transform="scale(0.001,-0.001)" />

<path d="M67,0V109L206,235c0,0,133,118,196,190c0,0,63,72,90,149c0,0,27,77,27,177c0,0,0,97,-44,148c0,0,-44,50,-144,50c0,0,-39,0,-81,-10c0,0,-42,-11,-74,-29L150,787H101V980c0,0,135,32,230,32c0,0,164,0,247,-68c0,0,82,-69,82,-193c0,0,0,-84,-32,-158c0,0,-33,-75,-100,-148c0,0,-67,-74,-222,-206c0,0,-67,-57,-141,-125H680V0Z" 
id="f3_m"
transform="scale(0.001,-0.001)" />

<path d="M76,316v76H787V316Zm0,306v76H787V622Z" 
id="f3_x"
transform="scale(0.001,-0.001)" />

<path d="M58,-234v58c0,0,131,42,131,125c0,0,0,15,-11,27c0,0,-11,12,-38,25C140,1,89,27,89,75c0,0,0,40,25,61c0,0,26,21,65,21c0,0,48,0,77,-34c0,0,30,-34,30,-86c0,0,0,-101,-60,-170c0,0,-59,-69,-168,-101Z" 
id="f3_g"
transform="scale(0.001,-0.001)" />

<path d="M439,0V33l93,19V500c0,0,0,62,-30,97c0,0,-31,36,-94,36c0,0,-67,0,-165,-22V52L338,33V0H35V33l84,19V649L35,668v33H235l7,-57c0,0,57,33,122,54c0,0,65,22,108,22c0,0,91,0,137,-53c0,0,47,-53,47,-154V52L741,33V0Z" 
id="f3_2a"
transform="scale(0.001,-0.001)" />

<path d="M327,-14L84,649L1,668v33H335V668L219,648L385,174L554,632h63L786,171L944,649L830,668v33h267V668l-78,-16L784,-14H726L553,448L382,-14Z" 
id="f3_2j"
transform="scale(0.001,-0.001)" />

<path d="M360,-14L72,649L0,668v33H327V668L216,648L420,164L615,649L504,668v33H764V668L697,652L416,-14Z" 
id="f3_2i"
transform="scale(0.001,-0.001)" />

<path d="M31,0V33L150,52v956L31,1026v34H274V52L394,33V0Z" 
id="f3_28"
transform="scale(0.001,-0.001)" />

<path d="M377,45c0,0,99,0,147,73c0,0,47,73,47,237c0,0,0,161,-47,233c0,0,-47,72,-147,72c0,0,-97,0,-141,-69c0,0,-44,-69,-44,-236c0,0,0,-169,45,-240c0,0,44,-70,140,-70Zm0,-59c0,0,-158,0,-238,94c0,0,-81,95,-81,274c0,0,0,178,81,272c0,0,80,94,244,94c0,0,160,0,241,-92c0,0,82,-92,82,-274c0,0,0,-368,-329,-368Z" 
id="f3_2b"
transform="scale(0.001,-0.001)" />

<path d="M178,0L615,886H176L150,764H101v236H720V943L274,0Z" 
id="f3_r"
transform="scale(0.001,-0.001)" />

<path d="M-12,338v55H777V338Z" 
id="f4_4y"
transform="scale(0.001,-0.001)" />

<path d="M460,-325c0,0,-148,79,-231,172c0,0,-84,93,-123,217c0,0,-39,126,-39,304c0,0,0,178,39,303c0,0,39,125,122,217c0,0,82,93,232,172V997c0,0,-91,-52,-145,-134c0,0,-54,-81,-79,-190c0,0,-25,-109,-25,-305c0,0,0,-194,26,-309c0,0,26,-114,82,-193c0,0,56,-79,141,-128v-63Z" 
id="f3_c"
transform="scale(0.001,-0.001)" />

<path d="M392,152V469H76v77H392V863h77V546H787V469H469V152Z" 
id="f3_f"
transform="scale(0.001,-0.001)" />

<path d="M49,-325v63c0,0,85,49,140,128c0,0,56,79,83,194c0,0,26,115,26,308c0,0,0,196,-25,305c0,0,-25,109,-79,190c0,0,-54,82,-145,134v63c0,0,149,-80,232,-172c0,0,83,-92,122,-217c0,0,39,-125,39,-303c0,0,0,-177,-39,-303c0,0,-39,-125,-122,-217c0,0,-83,-93,-232,-173Z" 
id="f3_d"
transform="scale(0.001,-0.001)" />

<path d="M350,-14c0,0,-142,0,-269,31L73,228h49L156,87c0,0,29,-16,82,-28c0,0,54,-12,100,-12c0,0,117,0,173,54c0,0,56,53,56,178c0,0,0,99,-52,150c0,0,-51,51,-159,56l-107,6v61l107,7c0,0,84,5,124,52c0,0,41,48,41,145c0,0,0,101,-44,147c0,0,-44,45,-139,45c0,0,-40,0,-83,-10c0,0,-43,-11,-76,-29L153,786H104V979c0,0,74,19,127,26c0,0,54,6,107,6c0,0,321,0,321,-246c0,0,0,-104,-57,-165c0,0,-57,-62,-162,-77c0,0,136,-16,200,-78c0,0,64,-62,64,-173c0,0,0,-135,-92,-211c0,0,-93,-75,-262,-75Z" 
id="f3_n"
transform="scale(0.001,-0.001)" />

<path d="M383,64c0,0,85,0,152,28V645c0,0,-67,13,-152,13c0,0,-194,0,-194,-314c0,0,0,-141,48,-211c0,0,48,-69,146,-69ZM342,-14c0,0,-287,0,-287,358c0,0,0,184,82,280c0,0,81,96,239,96c0,0,81,0,163,-18c0,0,-4,25,-4,124v182l-118,18v34H659V52L745,33V0H548l-9,52c0,0,-84,-66,-197,-66Z" 
id="f3_20"
transform="scale(0.001,-0.001)" />

<path d="M148,-329c0,0,-58,0,-114,13v151H69l24,-71c0,0,23,-17,64,-17c0,0,39,0,72,22c0,0,33,23,60,67c0,0,27,44,68,157L90,649L19,668v33H344V668L233,648L423,158L606,649L497,668v33H758V668L685,652L411,-43c0,0,-48,-124,-84,-177c0,0,-36,-54,-79,-82c0,0,-44,-27,-100,-27Z" 
id="f3_2l"
transform="scale(0.001,-0.001)" />

<path d="M191,-20c0,0,-39,0,-65,25c0,0,-25,27,-25,64c0,0,0,38,26,64c0,0,26,26,64,26c0,0,38,0,64,-26c0,0,26,-26,26,-64c0,0,0,-37,-25,-64c0,0,-26,-25,-65,-25Z" 
id="f3_i"
transform="scale(0.001,-0.001)" />

<path d="M410,-14c0,0,-86,0,-175,14C235,0,145,14,81,38V307h66L181,146c0,0,31,-37,94,-62c0,0,64,-24,132,-24c0,0,214,0,214,177c0,0,0,55,-41,93c0,0,-41,38,-128,68c0,0,-128,42,-185,68c0,0,-56,27,-95,63c0,0,-38,36,-62,87c0,0,-23,51,-23,125c0,0,0,132,90,201c0,0,90,69,263,69c0,0,125,0,278,-32V741H651L618,878c0,0,-76,56,-178,56c0,0,-92,0,-141,-34c0,0,-49,-34,-49,-104c0,0,0,-50,41,-86c0,0,41,-35,128,-63c0,0,171,-56,235,-97c0,0,64,-41,97,-103c0,0,34,-61,34,-143c0,0,0,-318,-375,-318Z" 
id="f2_1j"
transform="scale(0.001,-0.001)" />

<path d="M379,60c0,0,59,0,84,64c0,0,24,65,24,231c0,0,0,164,-24,227c0,0,-24,63,-84,63c0,0,-57,0,-80,-60c0,0,-22,-61,-22,-230c0,0,0,-173,23,-234c0,0,22,-61,79,-61Zm-2,-74c0,0,-161,0,-240,91c0,0,-79,91,-79,277c0,0,0,186,80,276c0,0,81,90,245,90c0,0,167,0,245,-93c0,0,78,-93,78,-273c0,0,0,-188,-81,-278c0,0,-81,-90,-248,-90Z" 
id="f2_2b"
transform="scale(0.001,-0.001)" />

<path d="M30,0V49l76,18V992l-72,18v50H322V67L398,49V0Z" 
id="f2_28"
transform="scale(0.001,-0.001)" />

<path d="M287,-18c0,0,-194,0,-194,206V634L23,652v49H309V217c0,0,0,-63,26,-98c0,0,27,-35,76,-35c0,0,57,0,113,25V634l-64,18v49H740V67L809,49V0H536L526,61L475,35c0,0,-104,-53,-188,-53Z" 
id="f2_2h"
transform="scale(0.001,-0.001)" />

<path d="M327,-14c0,0,-101,0,-156,45c0,0,-55,45,-55,131V624H25v48l108,29l87,159H332V701H480V624H332V176c0,0,0,-49,20,-73c0,0,20,-25,53,-25c0,0,40,0,97,12V26c0,0,-22,-15,-76,-27c0,0,-55,-13,-99,-13Z" 
id="f2_2g"
transform="scale(0.001,-0.001)" />

<path d="M34,0V49l76,18V634L38,652v49H325V67L402,49V0ZM217,831c0,0,-48,0,-81,33c0,0,-34,33,-34,82c0,0,0,48,34,81c0,0,34,33,81,33c0,0,48,0,81,-33c0,0,33,-33,33,-81c0,0,0,-47,-33,-81c0,0,-32,-34,-81,-34Z" 
id="f2_25"
transform="scale(0.001,-0.001)" />

<path d="M41,0V49l69,18V634L41,652v49H313l11,-61l50,26c0,0,105,54,188,54c0,0,194,0,194,-207V67L827,49V0H478V49l63,18V484c0,0,0,63,-27,98c0,0,-26,35,-75,35c0,0,-57,0,-114,-25V67L389,49V0Z" 
id="f2_2a"
transform="scale(0.001,-0.001)" />

<path d="M248,-20c0,0,-52,0,-87,34c0,0,-36,36,-36,88c0,0,0,52,36,88c0,0,35,36,87,36c0,0,52,0,88,-36c0,0,36,-36,36,-88c0,0,0,-51,-36,-87c0,0,-35,-35,-88,-35Zm0,488c0,0,-52,0,-87,36c0,0,-36,36,-36,88c0,0,0,52,35,88c0,0,35,36,88,36c0,0,53,0,89,-36c0,0,35,-37,35,-88c0,0,0,-51,-36,-87c0,0,-35,-37,-88,-37Z" 
id="f2_u"
transform="scale(0.001,-0.001)" />

<path d="M113,-203V1060H454v-35L232,994V-138l222,-30v-35Z" 
id="f3_1r"
transform="scale(0.001,-0.001)" />

<path d="M55,-203v35l222,30V994L55,1025v35H395V-203Z" 
id="f3_1t"
transform="scale(0.001,-0.001)" />

<path d="M476,327V830h-4L114,327ZM476,0V220H30v99l488,686h86V327H740V220H604V0Z" 
id="f3_o"
transform="scale(0.001,-0.001)" />

<path d="M134,0V40L339,60V876L137,804v39l292,166h39V60L672,40V0Z" 
id="f3_l"
transform="scale(0.001,-0.001)" />

<path d="M377,45c0,0,99,0,145,108c0,0,46,109,46,352c0,0,0,240,-45,345c0,0,-46,106,-146,106c0,0,-97,0,-139,-100c0,0,-43,-99,-43,-351c0,0,0,-254,44,-357c0,0,43,-103,138,-103Zm0,-59c0,0,-158,0,-238,132c0,0,-81,133,-81,386c0,0,0,249,81,380c0,0,80,132,244,132c0,0,159,0,241,-130c0,0,82,-130,82,-382c0,0,0,-518,-329,-518Z" 
id="f3_k"
transform="scale(0.001,-0.001)" />

<path d="M350,-14c0,0,-142,0,-253,31L89,228h49L172,87c0,0,32,-18,78,-29c0,0,46,-11,88,-11c0,0,118,0,173,56c0,0,56,55,56,187c0,0,0,93,-24,140c0,0,-24,47,-76,70c0,0,-52,22,-140,22c0,0,-68,0,-133,-18H122v496H630V886H189V567c0,0,81,18,173,18c0,0,173,0,258,-71c0,0,84,-71,84,-216c0,0,0,-151,-92,-232c0,0,-91,-80,-262,-80Z" 
id="f3_p"
transform="scale(0.001,-0.001)" />

<path d="M-6,0c0,0,-12,10,-12,32c0,0,0,21,23,51c0,0,23,31,79,82L287,354L159,649L79,668l6,33H270L378,434l93,88c0,0,47,46,67,72c0,0,19,26,19,44c0,0,0,8,-6,13c0,0,-7,6,-38,17l6,33H651c0,0,16,-12,16,-32c0,0,0,-44,-103,-142L404,377L548,49L634,33L628,0H437L313,298L185,176c0,0,-41,-40,-60,-65c0,0,-19,-26,-19,-48c0,0,0,-21,31,-29L131,0Z" 
id="f5_2k"
transform="scale(0.001,-0.001)" />

<path d="M-15,-329c0,0,-61,0,-112,13l28,152h34l12,-72c0,0,18,-17,60,-17c0,0,100,0,212,202L253,9L116,649L33,668l6,33H230L338,155L513,458c0,0,48,83,48,144c0,0,0,27,-16,44c0,0,-15,16,-33,22l6,33H659c0,0,20,-17,20,-47c0,0,0,-59,-62,-164L322,-7c0,0,-86,-145,-135,-205c0,0,-50,-61,-98,-89c0,0,-49,-28,-104,-28Z" 
id="f5_2l"
transform="scale(0.001,-0.001)" />

<path d="M-16,0l7,34L410,641H299c0,0,-42,0,-81,-7c0,0,-40,-7,-58,-19L119,514H84l34,187H574l-6,-36L149,60H296c0,0,42,0,81,9c0,0,40,9,66,26l57,109h35L481,0Z" 
id="f5_2m"
transform="scale(0.001,-0.001)" />

<path d="M240,-14L113,649L37,668l6,33H225L323,174L554,622h55L700,171L847,461c0,0,43,85,43,141c0,0,0,27,-16,44c0,0,-15,16,-33,22l6,33H988c0,0,20,-17,20,-47c0,0,0,-51,-62,-164L671,-14H622L530,447L292,-14Z" 
id="f5_2j"
transform="scale(0.001,-0.001)" />

<path d="M0,356v74H784V356Z" 
id="f6_h"
transform="scale(0.001,-0.001)" />

<path d="M0,-123V1415H525v-72H72V-123Z" 
id="f6_4r"
transform="scale(0.001,-0.001)" />

<path d="M478,-123V1343H26v72H550V-123Z" 
id="f6_57"
transform="scale(0.001,-0.001)" />

<path d="M0,214v74H784V214ZM0,494v72H784V494Z" 
id="f6_x"
transform="scale(0.001,-0.001)" />

<path d="M0,-123V1415H72V-123Z" 
id="f6_4s"
transform="scale(0.001,-0.001)" />

<path d="M0,-123V1415H72V-123Z" 
id="f6_58"
transform="scale(0.001,-0.001)" />

<path d="M0,-123V1415H72V-51H525v-72Z" 
id="f6_4t"
transform="scale(0.001,-0.001)" />

<path d="M26,-123v72H478V1415h72V-123Z" 
id="f6_59"
transform="scale(0.001,-0.001)" />

<path d="M306,-20c0,0,-39,0,-65,25c0,0,-25,27,-25,64c0,0,0,38,26,64c0,0,26,26,64,26c0,0,37,0,63,-25c0,0,26,-26,26,-65c0,0,0,-37,-25,-64c0,0,-26,-25,-64,-25ZM269,261L249,510l107,22c0,0,64,13,93,65c0,0,29,52,29,152c0,0,0,109,-39,154c0,0,-40,45,-140,45c0,0,-83,0,-145,-36L128,789H79V979c0,0,118,32,220,32c0,0,316,0,316,-253c0,0,0,-121,-60,-195c0,0,-60,-74,-175,-98l-42,-9L328,261Z" 
id="f3_z"
transform="scale(0.001,-0.001)" />

<path d="M382,45c0,0,188,0,188,314c0,0,0,143,-47,213c0,0,-46,69,-141,69c0,0,-87,0,-146,-24V58c0,0,67,-13,146,-13ZM25,-325v35l88,18V649L34,668v33H231l1,-41c0,0,31,27,84,43c0,0,53,17,107,17c0,0,134,0,208,-94c0,0,73,-93,73,-267c0,0,0,-178,-80,-276c0,0,-80,-97,-232,-97c0,0,-84,0,-160,16c0,0,4,-53,4,-84V-272l123,-18v-35Z" 
id="f3_2c"
transform="scale(0.001,-0.001)" />

<path d="M197,0V27c0,0,71,2,92,13c0,0,21,10,29,29c0,0,9,18,9,109V725c0,0,0,110,-8,141c0,0,-5,24,-19,35c0,0,-14,11,-33,11c0,0,-28,0,-77,-23l-11,23l246,121h25V178c0,0,0,-85,7,-106c0,0,7,-21,29,-32c0,0,23,-11,91,-13V0Z" 
id="f4_l"
transform="scale(0.001,-0.001)" />

<path d="M254,-20c0,0,-35,0,-59,24c0,0,-24,24,-24,58c0,0,0,35,24,59c0,0,24,24,59,24c0,0,35,0,59,-24c0,0,23,-25,23,-59c0,0,0,-34,-24,-58c0,0,-24,-24,-58,-24Zm509,0c0,0,-34,0,-58,24c0,0,-24,24,-24,58c0,0,0,35,24,59c0,0,24,24,58,24c0,0,34,0,59,-24c0,0,24,-25,24,-59c0,0,0,-34,-24,-58c0,0,-25,-24,-59,-24Zm510,0c0,0,-35,0,-59,24c0,0,-24,24,-24,58c0,0,0,35,24,59c0,0,24,24,59,24c0,0,34,0,58,-24c0,0,24,-25,24,-59c0,0,0,-34,-24,-58c0,0,-24,-24,-58,-24Z" 
id="f4_4s"
transform="scale(0.001,-0.001)" />

<path d="M145,-328c0,0,-44,0,-73,25c0,0,-28,25,-28,58c0,0,0,31,21,50c0,0,20,19,56,19c0,0,25,0,67,-16c0,0,30,-11,38,-11c0,0,22,0,49,23c0,0,26,23,53,89L376,28L131,542c0,0,-11,24,-36,58c0,0,-19,27,-30,36c0,0,-18,12,-56,21v26H328V657H312c0,0,-33,0,-50,-15c0,0,-17,-14,-17,-36c0,0,0,-30,25,-81L437,179L589,557c0,0,12,31,12,62c0,0,0,13,-5,20c0,0,-6,8,-19,13c0,0,-12,5,-44,5v26H754V657c0,0,-27,-3,-42,-12c0,0,-15,-9,-33,-34c0,0,-7,-10,-25,-58L376,-128c0,0,-40,-99,-105,-150c0,0,-66,-50,-126,-50Z" 
id="f4_2l"
transform="scale(0.001,-0.001)" />

<path d="M27,354v62H831V354Zm0,243v62H831V597Z" 
id="f4_x"
transform="scale(0.001,-0.001)" />

<path d="M379,29c0,0,41,0,84,37c0,0,43,36,65,121c0,0,34,128,34,362c0,0,0,173,-35,288c0,0,-27,86,-69,122c0,0,-31,25,-74,25c0,0,-51,0,-90,-46c0,0,-54,-62,-73,-195c0,0,-20,-132,-20,-261c0,0,0,-209,52,-341c0,0,42,-112,126,-112Zm-2,-46c0,0,-145,0,-241,170c0,0,-81,144,-81,347c0,0,0,173,52,298c0,0,52,125,139,186c0,0,67,49,139,49c0,0,116,0,208,-119c0,0,116,-147,116,-398c0,0,0,-176,-51,-299C658,217,608,94,529,38c0,0,-79,-55,-152,-55Z" 
id="f4_k"
transform="scale(0.001,-0.001)" />

<path d="M474,-326c0,0,-112,57,-188,133c0,0,-107,108,-165,254c0,0,-58,147,-58,305c0,0,0,231,114,421c0,0,114,191,297,273v-31c0,0,-92,-51,-151,-139c0,0,-59,-88,-88,-223c0,0,-30,-135,-30,-281c0,0,0,-160,25,-290c0,0,20,-102,47,-164c0,0,28,-62,75,-120c0,0,47,-57,122,-109v-29Z" 
id="f4_c"
transform="scale(0.001,-0.001)" />

<path d="M33,0V27c0,0,264,241,371,393c0,0,108,152,108,278c0,0,0,96,-59,158c0,0,-59,62,-141,62c0,0,-75,0,-134,-43c0,0,-59,-44,-88,-128H63c0,0,18,138,95,212c0,0,77,74,193,74c0,0,123,0,205,-80c0,0,83,-79,83,-186c0,0,0,-77,-36,-154c0,0,-55,-121,-179,-256C424,357,238,154,191,112H455c0,0,81,0,114,6c0,0,32,6,58,25c0,0,27,18,46,52h27L630,0Z" 
id="f4_m"
transform="scale(0.001,-0.001)" />

<path d="M35,-326v29c0,0,92,51,151,139c0,0,60,87,89,221c0,0,28,136,28,282c0,0,0,159,-24,290c0,0,-19,103,-47,165c0,0,-28,62,-75,119c0,0,-46,57,-122,110v31c0,0,113,-56,188,-132c0,0,107,-109,165,-255c0,0,58,-147,58,-306c0,0,0,-231,-114,-420c0,0,-113,-191,-297,-273Z" 
id="f4_d"
transform="scale(0.001,-0.001)" />

<path d="M551,45c0,0,171,0,252,108c0,0,82,108,82,349c0,0,0,239,-81,344c0,0,-81,105,-253,105c0,0,-172,0,-252,-105c0,0,-80,-105,-80,-344c0,0,0,-241,80,-349c0,0,81,-108,252,-108Zm0,-59c0,0,-238,0,-363,129C188,115,63,245,63,501c0,0,0,510,488,510c0,0,242,0,366,-129c0,0,124,-130,124,-381c0,0,0,-255,-126,-385C915,116,790,-14,551,-14Z" 
id="f3_1f"
transform="scale(0.001,-0.001)" />

<path d="M359,-270c0,0,124,0,192,46c0,0,67,47,67,129c0,0,0,43,-26,67c0,0,-26,24,-79,24H242c0,0,-32,-27,-51,-69c0,0,-20,-41,-20,-77c0,0,0,-64,46,-92c0,0,46,-28,142,-28Zm11,561c0,0,81,0,115,47c0,0,34,47,34,141c0,0,0,100,-35,142c0,0,-35,42,-113,42c0,0,-78,0,-114,-43c0,0,-37,-42,-37,-141c0,0,0,-98,36,-143c0,0,36,-45,114,-45ZM359,-329c0,0,-143,0,-218,44c0,0,-75,43,-75,125c0,0,0,39,27,78c0,0,26,38,98,89c0,0,-43,14,-72,48c0,0,-29,35,-29,74L208,262c0,0,-118,55,-118,217c0,0,0,115,73,178c0,0,73,63,211,63c0,0,28,0,71,-6c0,0,44,-6,67,-13l165,83l26,-32L599,644c0,0,50,-56,50,-165c0,0,0,-120,-72,-182c0,0,-73,-62,-208,-62c0,0,-62,0,-114,11L208,148c0,0,2,-13,29,-24c0,0,27,-12,67,-12H512c0,0,113,0,168,-49c0,0,55,-49,55,-134c0,0,0,-79,-44,-137c0,0,-43,-58,-128,-90c0,0,-84,-31,-204,-31Z" 
id="f3_23"
transform="scale(0.001,-0.001)" />

<path d="M376,50c0,0,103,0,149,80c0,0,46,81,46,240c0,0,0,137,-47,204c0,0,-48,67,-148,67c0,0,-44,0,-87,-7c0,0,-44,-8,-63,-17V62c0,0,63,-12,150,-12Zm3,-64c0,0,-64,0,-141,14c0,0,-78,14,-136,37v971L0,1026v34H226V809c0,0,0,-40,-4,-148c0,0,74,59,188,59c0,0,143,0,219,-87c0,0,77,-87,77,-263c0,0,0,-189,-84,-287c0,0,-84,-97,-243,-97Z" 
id="f3_1y"
transform="scale(0.001,-0.001)" />

<path d="M1102,116c0,0,70,150,148,231H59v75H1250c0,0,-57,73,-80,108c0,0,-22,35,-66,123h57c0,0,99,-108,171,-164c0,0,72,-57,137,-84V371c0,0,-74,-36,-144,-91c0,0,-69,-56,-165,-164Z" 
id="f4_8r"
transform="scale(0.001,-0.001)" />

<path d="M377,45c0,0,100,0,147,52c0,0,47,52,47,174c0,0,0,119,-46,173c0,0,-47,54,-148,54c0,0,-98,0,-141,-51c0,0,-44,-51,-44,-176c0,0,0,-126,44,-176c0,0,44,-50,141,-50Zm2,518c0,0,84,0,123,46c0,0,39,46,39,148c0,0,0,102,-40,151c0,0,-41,48,-122,48c0,0,-79,0,-118,-47c0,0,-38,-47,-38,-152c0,0,0,-104,37,-149c0,0,38,-45,119,-45ZM377,-14c0,0,-319,0,-319,285c0,0,0,99,48,164c0,0,48,66,129,96c0,0,-65,30,-106,87c0,0,-40,56,-40,139c0,0,0,123,75,191c0,0,76,68,219,68c0,0,139,0,216,-67c0,0,76,-68,76,-192c0,0,0,-82,-40,-139c0,0,-40,-57,-108,-87c0,0,85,-31,132,-98c0,0,47,-67,47,-162c0,0,0,-142,-80,-214c0,0,-80,-71,-249,-71Z" 
id="f3_s"
transform="scale(0.001,-0.001)" />

<path d="M410,45c0,0,90,0,130,58c0,0,40,59,40,193c0,0,0,122,-38,177c0,0,-38,54,-122,54c0,0,-102,0,-217,-37c0,0,0,-227,51,-336c0,0,52,-109,156,-109Zm3,-59c0,0,-169,0,-258,131c0,0,-89,131,-89,377c0,0,0,161,47,278c0,0,47,117,131,178c0,0,85,61,196,61c0,0,109,0,217,-26V813H608L582,915c0,0,-25,13,-67,23c0,0,-41,10,-75,10c0,0,-109,0,-170,-105c0,0,-60,-106,-66,-308c0,0,121,63,244,63c0,0,132,0,201,-74c0,0,69,-74,69,-214c0,0,0,-156,-78,-240c0,0,-79,-84,-227,-84Z" 
id="f3_q"
transform="scale(0.001,-0.001)" />

<path d="M200,-14c0,0,-59,0,-93,35c0,0,-34,36,-34,100c0,0,0,22,4,51c0,0,4,30,82,467H67l6,33l99,29L275,860h47L295,701H455L443,639H283L210,230c0,0,-13,-69,-13,-99c0,0,0,-34,17,-51c0,0,17,-16,43,-16c0,0,54,0,113,21L386,50c0,0,-92,-64,-186,-64Z" 
id="f5_2g"
transform="scale(0.001,-0.001)" />

<path d="M301,78c0,0,41,0,90,27c0,0,49,28,95,77l81,442c0,0,-26,18,-54,27c0,0,-27,10,-67,10c0,0,-70,0,-131,-55c0,0,-61,-55,-99,-152c0,0,-37,-97,-37,-201c0,0,0,-79,33,-127c0,0,33,-48,89,-48ZM245,-14c0,0,-91,0,-145,68c0,0,-54,69,-54,183c0,0,0,128,55,240c0,0,55,112,150,177c0,0,96,66,210,66c0,0,70,0,123,-18c0,0,3,36,51,306l-115,18l6,34H768L589,52L673,33L667,0H454l22,117C476,117,350,-14,245,-14Z" 
id="f5_20"
transform="scale(0.001,-0.001)" />

<path d="M88,-163c0,0,-39,0,-63,25c0,0,-25,26,-25,65c0,0,0,34,19,54c0,0,19,19,48,19c0,0,30,0,51,-23c0,0,22,-24,37,-24c0,0,12,0,21,11c0,0,8,10,8,35c0,0,0,30,-7,88c0,0,-27,235,-27,620c0,0,13,411,17,446c0,0,17,139,60,188c0,0,43,48,98,48c0,0,37,0,65,-25c0,0,28,-25,28,-54c0,0,0,-35,-19,-57c0,0,-20,-21,-49,-21c0,0,-26,0,-57,27c0,0,-17,15,-30,15c0,0,-12,0,-21,-11c0,0,-8,-11,-8,-37c0,0,0,-31,6,-108c0,0,28,-306,28,-496c0,0,0,-50,-12,-439c0,0,-6,-219,-67,-296c0,0,-41,-50,-101,-50Z" 
id="f6_50"
transform="scale(0.001,-0.001)" />

<path d="M103,598l23,221c0,0,10,95,20,128c0,0,14,46,39,67c0,0,26,20,58,20c0,0,27,0,43,-14c0,0,15,-15,15,-39c0,0,0,-17,-7,-37c0,0,-10,-29,-55,-125L136,598Z" 
id="f4_b2"
transform="scale(0.001,-0.001)" />

<path d="M17,-325L185,639H64l6,36l127,29l9,49c0,0,30,167,100,245c0,0,71,78,191,78c0,0,57,0,104,-15L574,915H538l-14,85c0,0,-22,16,-63,16c0,0,-45,0,-72,-39c0,0,-26,-39,-48,-160L319,701H475L465,639H309L141,-325Z" 
id="f5_22"
transform="scale(0.001,-0.001)" />

<path d="M872,47L824,88L944,232H91v99h930l84,105l-86,106H91v99H943L824,783l48,41L1237,460V412L872,47Z" 
id="f7_13x"
transform="scale(0.001,-0.001)" />

<path d="M63,0V26H93c0,0,30,0,54,15c0,0,25,15,34,41c0,0,10,25,10,99V630H58v53H191v45c0,0,0,102,33,173c0,0,32,71,100,114c0,0,68,44,152,44c0,0,79,0,145,-51c0,0,43,-33,43,-75c0,0,0,-22,-19,-42c0,0,-20,-20,-42,-20c0,0,-17,0,-36,12c0,0,-19,13,-47,53c0,0,-28,41,-51,55c0,0,-23,14,-51,14c0,0,-35,0,-58,-18c0,0,-24,-18,-35,-57c0,0,-10,-38,-10,-197V683H491V630H315V181c0,0,0,-96,21,-122c0,0,27,-33,73,-33h62V0Z" 
id="f4_22"
transform="scale(0.001,-0.001)" />

<path d="M25,0V26c0,0,27,4,47,19c0,0,29,22,96,111L311,346L182,535c0,0,-55,81,-86,102c0,0,-30,20,-75,20v26H341V657c0,0,-30,0,-42,-10c0,0,-13,-11,-13,-28c0,0,0,-19,27,-56c0,0,8,-12,25,-37l48,-78l56,77c0,0,55,74,55,94c0,0,0,16,0,27c0,0,0,11,0,11v26H674V657c0,0,-37,-2,-64,-20c0,0,-37,-26,-100,-111L416,402L587,156c0,0,63,-91,89,-109c0,0,27,-18,70,-21V0H423V26c0,0,34,0,53,15c0,0,14,11,14,28c0,0,0,17,-48,87L341,302L232,157c0,0,-50,-69,-50,-82c0,0,0,-18,17,-32c0,0,17,-15,50,-17V0Z" 
id="f4_2k"
transform="scale(0.001,-0.001)" />

<path d="M216,345c0,0,-38,0,-63,26c0,0,-24,25,-24,65c0,0,0,41,24,66c0,0,25,25,63,25c0,0,38,0,62,-25c0,0,24,-25,24,-66c0,0,0,-40,-24,-65c0,0,-24,-26,-62,-26Z" 
id="f7_1ad"
transform="scale(0.001,-0.001)" />


</defs>
</svg>