<?xml version="1.0" encoding="UTF-8" standalone="no"?>
<!DOCTYPE svg PUBLIC "-//W3C//DTD SVG 1.1//EN"
"http://www.w3.org/Graphics/SVG/1.1/DTD/svg11.dtd">
<svg viewBox="0 0 909 1286" version="1.1" xmlns="http://www.w3.org/2000/svg" xmlns:xlink="http://www.w3.org/1999/xlink">
<defs>
<clipPath id="c0_40"><path d="M252.1,734.6V648.7H465.6v85.9Z" /></clipPath>
<clipPath id="c1_40"><path d="M55.2,895.6V809.7H268.6v85.9Z" /></clipPath>
<clipPath id="c2_40"><path d="M55.2,983.9V898.1H345v85.8Z" /></clipPath>
<clipPath id="c3_40"><path d="M55.2,1072.3V986.5H227.7v85.8Z" /></clipPath>
<clipPath id="c4_40"><path d="M106.5,1164.3v-89.8H362.3v89.8Z" /></clipPath>
<style type="text/css"><![CDATA[
.g0_40{
fill: #D9D9D9;
}
.g1_40{
fill: none;
stroke: #000000;
stroke-width: 0.7638889;
stroke-linecap: butt;
stroke-linejoin: miter;
}
.g2_40{
fill: none;
stroke: #000000;
stroke-width: 0.9122883;
stroke-linecap: butt;
stroke-linejoin: round;
}
.g3_40{
}
]]></style>
</defs>
<image preserveAspectRatio="none" x="747" y="1196" width="96" height="59" xlink:href="img/1.png" />
<image preserveAspectRatio="none" x="336" y="41" width="259" height="51" xlink:href="img/2.png" />
<image preserveAspectRatio="none" x="342" y="50" width="247" height="27" xlink:href="img/3.png" />
<image preserveAspectRatio="none" x="341" y="45" width="239" height="42" xlink:href="img/4.png" />
<g fill="#FFFFFF" >
<use xlink:href="#f0_j" transform="matrix(11.5,0,0,11.5,355.1,70.1)" />
<use xlink:href="#f0_i" transform="matrix(11.5,0,0,11.5,364.3,70.1)" />
<use xlink:href="#f0_2n" transform="matrix(11.5,0,0,11.5,374.1,70.1)" />
<use xlink:href="#f0_t" transform="matrix(11.5,0,0,11.5,382.6,70.1)" />
<use xlink:href="#f0_oj" transform="matrix(11.5,0,0,11.5,391,70.1)" />
<use xlink:href="#f0_3e" transform="matrix(11.5,0,0,11.5,396.5,70.1)" />
<use xlink:href="#f0_1c" transform="matrix(11.5,0,0,11.5,406.1,70.1)" />
<use xlink:href="#f0_1c" transform="matrix(11.5,0,0,11.5,410.8,70.1)" />
<use xlink:href="#f0_oj" transform="matrix(11.5,0,0,11.5,415.6,70.1)" />
<use xlink:href="#f0_rz" transform="matrix(11.5,0,0,11.5,421.1,70.1)" />
<use xlink:href="#f0_rx" transform="matrix(11.5,0,0,11.5,429.9,70.1)" />
<use xlink:href="#f0_ry" transform="matrix(11.5,0,0,11.5,438.7,70.1)" />
<use xlink:href="#f0_s4" transform="matrix(11.5,0,0,11.5,447.5,70.1)" />
<use xlink:href="#f0_t" transform="matrix(11.5,0,0,11.5,460.4,70.1)" />
<use xlink:href="#f0_3e" transform="matrix(11.5,0,0,11.5,468.8,70.1)" />
<use xlink:href="#f0_5" transform="matrix(11.5,0,0,11.5,478.3,70.1)" />
<use xlink:href="#f0_1x" transform="matrix(11.5,0,0,11.5,489,70.1)" />
<use xlink:href="#f0_1c" transform="matrix(11.5,0,0,11.5,504.4,70.1)" />
<use xlink:href="#f0_1y" transform="matrix(11.5,0,0,11.5,509.1,70.1)" />
<use xlink:href="#f0_5" transform="matrix(11.5,0,0,11.5,520.8,70.1)" />
<use xlink:href="#f0_2t" transform="matrix(11.5,0,0,11.5,531.5,70.1)" />
<use xlink:href="#f0_1c" transform="matrix(11.5,0,0,11.5,540.2,70.1)" />
<use xlink:href="#f0_24" transform="matrix(11.5,0,0,11.5,545,70.1)" />
<use xlink:href="#f0_1y" transform="matrix(11.5,0,0,11.5,556.7,70.1)" />
</g>
<image preserveAspectRatio="none" x="554" y="45" width="36" height="42" xlink:href="img/5.png" />
<g fill="#FFFFFF" >
<use xlink:href="#f1_l" transform="matrix(11,0,0,11,770.3,1227.6)" />
<use xlink:href="#f1_p" transform="matrix(11,0,0,11,779.1,1227.6)" />
<use xlink:href="#f1_j" transform="matrix(11,0,0,11,792.3,1227.6)" />
<use xlink:href="#f1_m" transform="matrix(11,0,0,11,802.9,1227.6)" />
<use xlink:href="#f1_m" transform="matrix(11,0,0,11,811.7,1227.6)" />
</g>
<path fill-rule="evenodd" d="M52.8,1193.5H856.9v-.8H52.8v.8Z" class="g0_40" />
<path d="M37.9,99.4L873,98.5" class="g1_40" />
<g fill="#000000" >
<use xlink:href="#f2_13" transform="matrix(12,0,0,12,55,375.9)" />
<use xlink:href="#f2_2b" transform="matrix(12,0,0,12,67.1,375.9)" />
<use xlink:href="#f2_2e" transform="matrix(12,0,0,12,76.7,375.9)" />
<use xlink:href="#f2_2a" transform="matrix(12,0,0,12,82.9,375.9)" />
<use xlink:href="#f2_21" transform="matrix(12,0,0,12,91.7,375.9)" />
<use xlink:href="#f2_2e" transform="matrix(12,0,0,12,99.7,375.9)" />
<use xlink:href="#f2_2c" transform="matrix(12,0,0,12,110.7,375.9)" />
<use xlink:href="#f2_2b" transform="matrix(12,0,0,12,119.5,375.9)" />
<use xlink:href="#f2_25" transform="matrix(12,0,0,12,129,375.9)" />
<use xlink:href="#f2_2a" transform="matrix(12,0,0,12,133.8,375.9)" />
<use xlink:href="#f2_2g" transform="matrix(12,0,0,12,142.6,375.9)" />
<use xlink:href="#f2_2f" transform="matrix(12,0,0,12,148.1,375.9)" />
<use xlink:href="#f2_1x" transform="matrix(12,0,0,12,159.8,375.9)" />
<use xlink:href="#f2_2e" transform="matrix(12,0,0,12,167.8,375.9)" />
<use xlink:href="#f2_21" transform="matrix(12,0,0,12,174.1,375.9)" />
<use xlink:href="#f2_11" transform="matrix(12,0,0,12,186.9,375.9)" />
<use xlink:href="#f2_c" transform="matrix(12,0,0,12,204.5,375.9)" />
<use xlink:href="#f2_l" transform="matrix(12,0,0,12,210.7,375.9)" />
<use xlink:href="#f2_k" transform="matrix(12,0,0,12,219.8,375.9)" />
<use xlink:href="#f2_k" transform="matrix(12,0,0,12,229,375.9)" />
<use xlink:href="#f2_g" transform="matrix(12,0,0,12,238.2,375.9)" />
<use xlink:href="#f2_k" transform="matrix(12,0,0,12,247.7,375.9)" />
<use xlink:href="#f2_d" transform="matrix(12,0,0,12,256.5,375.9)" />
<use xlink:href="#f2_g" transform="matrix(12,0,0,12,262.7,375.9)" />
<use xlink:href="#f2_12" transform="matrix(12,0,0,12,271.8,375.9)" />
<use xlink:href="#f2_c" transform="matrix(12,0,0,12,283.9,375.9)" />
<use xlink:href="#f2_p" transform="matrix(12,0,0,12,290.1,375.9)" />
<use xlink:href="#f2_k" transform="matrix(12,0,0,12,299.3,375.9)" />
<use xlink:href="#f2_g" transform="matrix(12,0,0,12,308.5,375.9)" />
<use xlink:href="#f2_l" transform="matrix(12,0,0,12,317.6,375.9)" />
<use xlink:href="#f2_k" transform="matrix(12,0,0,12,326.8,375.9)" />
<use xlink:href="#f2_k" transform="matrix(12,0,0,12,336,375.9)" />
<use xlink:href="#f2_d" transform="matrix(12,0,0,12,345.1,375.9)" />
<use xlink:href="#f2_g" transform="matrix(12,0,0,12,351.3,375.9)" />
<use xlink:href="#f2_13" transform="matrix(12,0,0,12,360.5,375.9)" />
<use xlink:href="#f2_c" transform="matrix(12,0,0,12,372.6,375.9)" />
<use xlink:href="#f2_m" transform="matrix(12,0,0,12,378.8,375.9)" />
<use xlink:href="#f2_k" transform="matrix(12,0,0,12,388,375.9)" />
<use xlink:href="#f2_g" transform="matrix(12,0,0,12,397.1,375.9)" />
<use xlink:href="#f2_o" transform="matrix(12,0,0,12,406.3,375.9)" />
<use xlink:href="#f2_k" transform="matrix(12,0,0,12,415.5,375.9)" />
<use xlink:href="#f2_d" transform="matrix(12,0,0,12,424.3,375.9)" />
<use xlink:href="#f2_1d" transform="matrix(12,0,0,12,55,546.9)" />
<use xlink:href="#f2_1x" transform="matrix(12,0,0,12,71.2,546.9)" />
<use xlink:href="#f2_2k" transform="matrix(12,0,0,12,79.6,546.9)" />
<use xlink:href="#f2_25" transform="matrix(12,0,0,12,88.8,546.9)" />
<use xlink:href="#f2_29" transform="matrix(12,0,0,12,93.5,546.9)" />
<use xlink:href="#f2_2h" transform="matrix(12,0,0,12,107.5,546.9)" />
<use xlink:href="#f2_29" transform="matrix(12,0,0,12,117,546.9)" />
<use xlink:href="#f2_1x" transform="matrix(12,0,0,12,135.6,546.9)" />
<use xlink:href="#f2_2g" transform="matrix(12,0,0,12,143.7,546.9)" />
<use xlink:href="#f2_2c" transform="matrix(12,0,0,12,154.1,546.9)" />
<use xlink:href="#f2_2b" transform="matrix(12,0,0,12,162.9,546.9)" />
<use xlink:href="#f2_25" transform="matrix(12,0,0,12,172.4,546.9)" />
<use xlink:href="#f2_2a" transform="matrix(12,0,0,12,177.2,546.9)" />
<use xlink:href="#f2_2g" transform="matrix(12,0,0,12,186,546.9)" />
<use xlink:href="#f2_12" transform="matrix(12,0,0,12,196.2,546.9)" />
<use xlink:href="#f2_1x" transform="matrix(12,0,0,12,213,546.9)" />
<use xlink:href="#f2_2a" transform="matrix(12,0,0,12,221.1,546.9)" />
<use xlink:href="#f2_20" transform="matrix(12,0,0,12,229.9,546.9)" />
<use xlink:href="#f2_29" transform="matrix(12,0,0,12,244.2,546.9)" />
<use xlink:href="#f2_1x" transform="matrix(12,0,0,12,257.8,546.9)" />
<use xlink:href="#f2_2k" transform="matrix(12,0,0,12,266.2,546.9)" />
<use xlink:href="#f2_25" transform="matrix(12,0,0,12,275.3,546.9)" />
<use xlink:href="#f2_29" transform="matrix(12,0,0,12,280.4,546.9)" />
<use xlink:href="#f2_2h" transform="matrix(12,0,0,12,294.4,546.9)" />
<use xlink:href="#f2_29" transform="matrix(12,0,0,12,303.9,546.9)" />
<use xlink:href="#f2_2i" transform="matrix(12,0,0,12,322.6,546.9)" />
<use xlink:href="#f2_1x" transform="matrix(12,0,0,12,331.8,546.9)" />
<use xlink:href="#f2_28" transform="matrix(12,0,0,12,340.2,546.9)" />
<use xlink:href="#f2_2h" transform="matrix(12,0,0,12,344.6,546.9)" />
<use xlink:href="#f2_21" transform="matrix(12,0,0,12,354.1,546.9)" />
<use xlink:href="#f2_m" transform="matrix(12,0,0,12,366.9,546.9)" />
<use xlink:href="#f2_p" transform="matrix(12,0,0,12,376.1,546.9)" />
<use xlink:href="#f2_k" transform="matrix(12,0,0,12,385.2,546.9)" />
<use xlink:href="#f3_1j" transform="matrix(12,0,0,12,397.6,618.4)" />
<use xlink:href="#f3_15" transform="matrix(12,0,0,12,407.9,618.4)" />
<use xlink:href="#f3_13" transform="matrix(12,0,0,12,420,618.4)" />
<use xlink:href="#f3_1k" transform="matrix(12,0,0,12,433.2,618.4)" />
<use xlink:href="#f3_19" transform="matrix(12,0,0,12,445.3,618.4)" />
<use xlink:href="#f3_1f" transform="matrix(12,0,0,12,452.2,618.4)" />
<use xlink:href="#f3_1e" transform="matrix(12,0,0,12,466.5,618.4)" />
<use xlink:href="#f4_4y" transform="matrix(12,0,0,12,484.6,618.4)" />
<use xlink:href="#f3_14" transform="matrix(12,0,0,12,498.5,618.4)" />
<use xlink:href="#f5_1h" transform="matrix(12,0,0,12,55,642.6)" />
<use xlink:href="#f5_2h" transform="matrix(12,0,0,12,68.3,642.6)" />
<use xlink:href="#f5_21" transform="matrix(12,0,0,12,78.5,642.6)" />
<use xlink:href="#f5_2f" transform="matrix(12,0,0,12,86.6,642.6)" />
<use xlink:href="#f5_2g" transform="matrix(12,0,0,12,93.5,642.6)" />
<use xlink:href="#f5_25" transform="matrix(12,0,0,12,98.6,642.6)" />
<use xlink:href="#f5_2b" transform="matrix(12,0,0,12,103.8,642.6)" />
<use xlink:href="#f5_2a" transform="matrix(12,0,0,12,113,642.6)" />
<use xlink:href="#f5_2a" transform="matrix(12,0,0,12,127.9,642.6)" />
<use xlink:href="#f5_2h" transform="matrix(12,0,0,12,138.2,642.6)" />
<use xlink:href="#f5_29" transform="matrix(12,0,0,12,148.1,642.6)" />
<use xlink:href="#f5_1y" transform="matrix(12,0,0,12,162.7,642.6)" />
<use xlink:href="#f5_21" transform="matrix(12,0,0,12,171.9,642.6)" />
<use xlink:href="#f5_2e" transform="matrix(12,0,0,12,180,642.6)" />
<use xlink:href="#f5_2f" transform="matrix(12,0,0,12,186.9,642.6)" />
<use xlink:href="#f5_m" transform="matrix(12,0,0,12,198.7,642.6)" />
<use xlink:href="#f5_o" transform="matrix(12,0,0,12,207.8,642.6)" />
<use xlink:href="#f5_2g" transform="matrix(12,0,0,12,221.7,642.6)" />
<use xlink:href="#f5_2b" transform="matrix(12,0,0,12,226.8,642.6)" />
<use xlink:href="#f5_m" transform="matrix(12,0,0,12,240.8,642.6)" />
<use xlink:href="#f5_t" transform="matrix(12,0,0,12,250,642.6)" />
<use xlink:href="#f5_1z" transform="matrix(12,0,0,12,263.5,642.6)" />
<use xlink:href="#f5_1x" transform="matrix(12,0,0,12,271.6,642.6)" />
<use xlink:href="#f5_2e" transform="matrix(12,0,0,12,280.7,642.6)" />
<use xlink:href="#f5_2e" transform="matrix(12,0,0,12,287.7,642.6)" />
<use xlink:href="#f5_2l" transform="matrix(12,0,0,12,294.7,642.6)" />
<use xlink:href="#f5_q" transform="matrix(12,0,0,12,307.5,642.6)" />
<use xlink:href="#f5_29" transform="matrix(12,0,0,12,321.1,642.6)" />
<use xlink:href="#f5_1x" transform="matrix(12,0,0,12,335.7,642.6)" />
<use xlink:href="#f5_2e" transform="matrix(12,0,0,12,344.9,642.6)" />
<use xlink:href="#f5_27" transform="matrix(12,0,0,12,351.8,642.6)" />
<use xlink:href="#f5_2f" transform="matrix(12,0,0,12,361,642.6)" />
<use xlink:href="#f5_21" transform="matrix(12,0,0,12,372.7,642.6)" />
<use xlink:href="#f5_1x" transform="matrix(12,0,0,12,380.8,642.6)" />
<use xlink:href="#f5_1z" transform="matrix(12,0,0,12,390,642.6)" />
<use xlink:href="#f5_24" transform="matrix(12,0,0,12,398,642.6)" />
<use xlink:href="#f3_m" transform="matrix(12,0,0,12,55,696.5)" />
<use xlink:href="#f3_o" transform="matrix(12,0,0,12,64.2,696.5)" />
<use xlink:href="#f3_i" transform="matrix(12,0,0,12,73.4,696.5)" />
<use xlink:href="#f2_14" transform="matrix(12,0,0,12,82.9,696.5)" />
<use xlink:href="#f2_21" transform="matrix(12,0,0,12,96.1,696.5)" />
<use xlink:href="#f2_2g" transform="matrix(12,0,0,12,103.8,696.5)" />
<use xlink:href="#f2_21" transform="matrix(12,0,0,12,109.3,696.5)" />
<use xlink:href="#f2_2e" transform="matrix(12,0,0,12,117.4,696.5)" />
<use xlink:href="#f2_29" transform="matrix(12,0,0,12,123.6,696.5)" />
<use xlink:href="#f2_25" transform="matrix(12,0,0,12,137.5,696.5)" />
<use xlink:href="#f2_2a" transform="matrix(12,0,0,12,142.3,696.5)" />
<use xlink:href="#f2_21" transform="matrix(12,0,0,12,151.4,696.5)" />
<use xlink:href="#f2_2g" transform="matrix(12,0,0,12,164.2,696.5)" />
<use xlink:href="#f2_24" transform="matrix(12,0,0,12,169.7,696.5)" />
<use xlink:href="#f2_21" transform="matrix(12,0,0,12,178.5,696.5)" />
<use xlink:href="#f2_2c" transform="matrix(12,0,0,12,191.3,696.5)" />
<use xlink:href="#f2_2e" transform="matrix(12,0,0,12,200.5,696.5)" />
<use xlink:href="#f2_2b" transform="matrix(12,0,0,12,206.7,696.5)" />
<use xlink:href="#f2_20" transform="matrix(12,0,0,12,216.2,696.5)" />
<use xlink:href="#f2_2h" transform="matrix(12,0,0,12,225.4,696.5)" />
<use xlink:href="#f2_1z" transform="matrix(12,0,0,12,234.6,696.5)" />
<use xlink:href="#f2_2g" transform="matrix(12,0,0,12,242.3,696.5)" />
</g>
<g clip-path="url(#c0_40)">
<g fill="#000000" >
<use xlink:href="#f2_o" transform="matrix(12.5,0,0,12.2,273.2,669.5)" />
<use xlink:href="#f2_o" transform="matrix(12.5,0,0,12.2,304.4,669.5)" />
<use xlink:href="#f2_o" transform="matrix(12.5,0,0,12.2,339.8,669.5)" />
<use xlink:href="#f2_l" transform="matrix(12.5,0,0,12.2,371.4,669.5)" />
<use xlink:href="#f2_l" transform="matrix(12.5,0,0,12.2,408.8,669.5)" />
<use xlink:href="#f2_l" transform="matrix(12.5,0,0,12.2,439.2,669.5)" />
<use xlink:href="#f2_r" transform="matrix(12.5,0,0,12.2,273.1,697)" />
<use xlink:href="#f2_l" transform="matrix(12.5,0,0,12.2,304.1,697)" />
<use xlink:href="#f2_n" transform="matrix(12.5,0,0,12.2,339.8,697)" />
<use xlink:href="#f2_l" transform="matrix(12.5,0,0,12.2,371.4,697)" />
<use xlink:href="#f2_m" transform="matrix(12.5,0,0,12.2,408.1,697)" />
<use xlink:href="#f2_m" transform="matrix(12.5,0,0,12.2,444.5,697)" />
<use xlink:href="#f2_p" transform="matrix(12.5,0,0,12.2,268,724.6)" />
<use xlink:href="#f2_n" transform="matrix(12.5,0,0,12.2,309.7,724.6)" />
<use xlink:href="#f2_l" transform="matrix(12.5,0,0,12.2,345.6,724.6)" />
<use xlink:href="#f2_m" transform="matrix(12.5,0,0,12.2,371.7,724.6)" />
<use xlink:href="#f2_l" transform="matrix(12.5,0,0,12.2,402.8,724.6)" />
<use xlink:href="#f2_n" transform="matrix(12.5,0,0,12.2,439.5,724.6)" />
<use xlink:href="#f6_h" transform="matrix(12.5,0,0,12.2,263.1,669.5)" />
<use xlink:href="#f6_h" transform="matrix(12.5,0,0,12.2,398.9,669.5)" />
<use xlink:href="#f6_4r" transform="matrix(12.5,0,0,12.2,255.2,670.9)" />
<use xlink:href="#f6_57" transform="matrix(12.5,0,0,12.2,354,670.9)" />
<use xlink:href="#f6_4r" transform="matrix(12.5,0,0,12.2,363.9,670.9)" />
<use xlink:href="#f6_57" transform="matrix(12.5,0,0,12.2,454.5,670.9)" />
<use xlink:href="#f6_4s" transform="matrix(12.5,0,0,12.2,255.2,688.5)" />
<use xlink:href="#f6_58" transform="matrix(12.5,0,0,12.2,354,688.5)" />
<use xlink:href="#f6_4s" transform="matrix(12.5,0,0,12.2,363.9,688.5)" />
<use xlink:href="#f6_58" transform="matrix(12.5,0,0,12.2,454.5,688.5)" />
<use xlink:href="#f6_h" transform="matrix(12.5,0,0,12.2,263,697)" />
<use xlink:href="#f6_h" transform="matrix(12.5,0,0,12.2,398.2,697)" />
<use xlink:href="#f6_h" transform="matrix(12.5,0,0,12.2,434.6,697)" />
<use xlink:href="#f6_4s" transform="matrix(12.5,0,0,12.2,255.2,706.1)" />
<use xlink:href="#f6_58" transform="matrix(12.5,0,0,12.2,354,706.1)" />
<use xlink:href="#f6_4s" transform="matrix(12.5,0,0,12.2,363.9,706.1)" />
<use xlink:href="#f6_58" transform="matrix(12.5,0,0,12.2,454.5,706.1)" />
<use xlink:href="#f6_4s" transform="matrix(12.5,0,0,12.2,255.2,723.7)" />
<use xlink:href="#f6_58" transform="matrix(12.5,0,0,12.2,354,723.7)" />
<use xlink:href="#f6_4s" transform="matrix(12.5,0,0,12.2,363.9,723.7)" />
<use xlink:href="#f6_58" transform="matrix(12.5,0,0,12.2,454.5,723.7)" />
<use xlink:href="#f6_h" transform="matrix(12.5,0,0,12.2,299.7,724.6)" />
<use xlink:href="#f6_h" transform="matrix(12.5,0,0,12.2,335.6,724.6)" />
<use xlink:href="#f6_4t" transform="matrix(12.5,0,0,12.2,255.2,729.5)" />
<use xlink:href="#f6_59" transform="matrix(12.5,0,0,12.2,354,729.5)" />
<use xlink:href="#f6_4t" transform="matrix(12.5,0,0,12.2,363.9,729.5)" />
<use xlink:href="#f6_59" transform="matrix(12.5,0,0,12.2,454.5,729.5)" />
</g>
</g>
<g fill="#000000" >
<use xlink:href="#f2_1x" transform="matrix(12,0,0,12,469.2,696.5)" />
<use xlink:href="#f2_2a" transform="matrix(12,0,0,12,477.2,696.5)" />
<use xlink:href="#f2_20" transform="matrix(12,0,0,12,486,696.5)" />
<use xlink:href="#f2_2h" transform="matrix(12,0,0,12,499.9,696.5)" />
<use xlink:href="#f2_2f" transform="matrix(12,0,0,12,509.1,696.5)" />
<use xlink:href="#f2_21" transform="matrix(12,0,0,12,516.1,696.5)" />
<use xlink:href="#f2_25" transform="matrix(12,0,0,12,529.2,696.5)" />
<use xlink:href="#f2_2g" transform="matrix(12,0,0,12,533.6,696.5)" />
<use xlink:href="#f2_2g" transform="matrix(12,0,0,12,543.9,696.5)" />
<use xlink:href="#f2_2b" transform="matrix(12,0,0,12,549,696.5)" />
<use xlink:href="#f2_2f" transform="matrix(12,0,0,12,562.9,696.5)" />
<use xlink:href="#f2_2b" transform="matrix(12,0,0,12,569.9,696.5)" />
<use xlink:href="#f2_28" transform="matrix(12,0,0,12,579.4,696.5)" />
<use xlink:href="#f2_2i" transform="matrix(12,0,0,12,584.2,696.5)" />
<use xlink:href="#f2_21" transform="matrix(12,0,0,12,593,696.5)" />
<use xlink:href="#f2_2g" transform="matrix(12,0,0,12,605.8,696.5)" />
<use xlink:href="#f2_24" transform="matrix(12,0,0,12,611.3,696.5)" />
<use xlink:href="#f2_21" transform="matrix(12,0,0,12,620.1,696.5)" />
<use xlink:href="#f2_2f" transform="matrix(12,0,0,12,632.9,696.5)" />
<use xlink:href="#f2_2l" transform="matrix(12,0,0,12,639.9,696.5)" />
<use xlink:href="#f2_2f" transform="matrix(12,0,0,12,648.7,696.5)" />
<use xlink:href="#f2_2g" transform="matrix(12,0,0,12,655.6,696.5)" />
<use xlink:href="#f2_21" transform="matrix(12,0,0,12,661.1,696.5)" />
<use xlink:href="#f2_29" transform="matrix(12,0,0,12,669.5,696.5)" />
<use xlink:href="#f2_2b" transform="matrix(12,0,0,12,687.8,696.5)" />
<use xlink:href="#f2_22" transform="matrix(12,0,0,12,697.7,696.5)" />
<use xlink:href="#f2_21" transform="matrix(12,0,0,12,708,696.5)" />
<use xlink:href="#f2_2d" transform="matrix(12,0,0,12,716,696.5)" />
<use xlink:href="#f2_2h" transform="matrix(12,0,0,12,725.2,696.5)" />
<use xlink:href="#f2_1x" transform="matrix(12,0,0,12,734.4,696.5)" />
<use xlink:href="#f2_2g" transform="matrix(12,0,0,12,742.4,696.5)" />
<use xlink:href="#f2_25" transform="matrix(12,0,0,12,747.9,696.5)" />
<use xlink:href="#f2_2b" transform="matrix(12,0,0,12,752.3,696.5)" />
<use xlink:href="#f2_2a" transform="matrix(12,0,0,12,761.8,696.5)" />
<use xlink:href="#f2_2f" transform="matrix(12,0,0,12,771,696.5)" />
<use xlink:href="#f2_2k" transform="matrix(12,0,0,12,55,755.2)" />
<use xlink:href="#f7_4y" transform="matrix(12,0,0,12,68.6,755.2)" />
<use xlink:href="#f2_2l" transform="matrix(12,0,0,12,82.9,755.2)" />
<use xlink:href="#f2_f" transform="matrix(12,0,0,12,96.1,755.2)" />
<use xlink:href="#f2_2m" transform="matrix(12,0,0,12,111.1,755.2)" />
<use xlink:href="#f2_x" transform="matrix(12,0,0,12,123.9,755.2)" />
<use xlink:href="#f2_o" transform="matrix(12,0,0,12,138.9,755.2)" />
<use xlink:href="#f2_g" transform="matrix(12,0,0,12,148.1,755.2)" />
<use xlink:href="#f2_2k" transform="matrix(12,0,0,12,157.6,755.2)" />
<use xlink:href="#f7_4y" transform="matrix(12,0,0,12,171.3,755.2)" />
<use xlink:href="#f2_m" transform="matrix(12,0,0,12,185.2,755.2)" />
<use xlink:href="#f2_2l" transform="matrix(12,0,0,12,194.4,755.2)" />
<use xlink:href="#f7_4y" transform="matrix(12,0,0,12,207.6,755.2)" />
<use xlink:href="#f2_m" transform="matrix(12,0,0,12,221.5,755.2)" />
<use xlink:href="#f2_2m" transform="matrix(12,0,0,12,230.7,755.2)" />
<use xlink:href="#f2_x" transform="matrix(12,0,0,12,243.5,755.2)" />
<use xlink:href="#f2_t" transform="matrix(12,0,0,12,258.5,755.2)" />
<use xlink:href="#f2_g" transform="matrix(12,0,0,12,267.3,755.2)" />
<use xlink:href="#f2_m" transform="matrix(12,0,0,12,276.8,755.2)" />
<use xlink:href="#f2_2k" transform="matrix(12,0,0,12,286,755.2)" />
<use xlink:href="#f2_f" transform="matrix(12,0,0,12,299.6,755.2)" />
<use xlink:href="#f2_2l" transform="matrix(12,0,0,12,314.6,755.2)" />
<use xlink:href="#f2_f" transform="matrix(12,0,0,12,327.7,755.2)" />
<use xlink:href="#f2_n" transform="matrix(12,0,0,12,338,755.2)" />
<use xlink:href="#f2_2m" transform="matrix(12,0,0,12,347.2,755.2)" />
<use xlink:href="#f2_x" transform="matrix(12,0,0,12,360,755.2)" />
<use xlink:href="#f2_l" transform="matrix(12,0,0,12,375,755.2)" />
<use xlink:href="#f2_i" transform="matrix(12,0,0,12,384.2,755.2)" />
<use xlink:href="#f3_1j" transform="matrix(12,0,0,12,55,779.4)" />
<use xlink:href="#f3_2b" transform="matrix(12,0,0,12,65.3,779.4)" />
<use xlink:href="#f3_28" transform="matrix(12,0,0,12,74.5,779.4)" />
<use xlink:href="#f3_2h" transform="matrix(12,0,0,12,79.2,779.4)" />
<use xlink:href="#f3_2g" transform="matrix(12,0,0,12,89.5,779.4)" />
<use xlink:href="#f3_25" transform="matrix(12,0,0,12,95.7,779.4)" />
<use xlink:href="#f3_2b" transform="matrix(12,0,0,12,100.8,779.4)" />
<use xlink:href="#f3_2a" transform="matrix(12,0,0,12,109.9,779.4)" />
<use xlink:href="#f3_u" transform="matrix(12,0,0,12,120.2,779.4)" />
<use xlink:href="#f2_1g" transform="matrix(12,0,0,12,55,803.6)" />
<use xlink:href="#f2_2e" transform="matrix(12,0,0,12,65.3,803.6)" />
<use xlink:href="#f2_2b" transform="matrix(12,0,0,12,71.2,803.6)" />
<use xlink:href="#f2_20" transform="matrix(12,0,0,12,80.7,803.6)" />
<use xlink:href="#f2_2h" transform="matrix(12,0,0,12,89.8,803.6)" />
<use xlink:href="#f2_1z" transform="matrix(12,0,0,12,99,803.6)" />
<use xlink:href="#f2_2g" transform="matrix(12,0,0,12,107.1,803.6)" />
<use xlink:href="#f2_2b" transform="matrix(12,0,0,12,116.6,803.6)" />
<use xlink:href="#f2_22" transform="matrix(12,0,0,12,126.1,803.6)" />
<use xlink:href="#f2_2g" transform="matrix(12,0,0,12,136.4,803.6)" />
<use xlink:href="#f2_24" transform="matrix(12,0,0,12,141.9,803.6)" />
<use xlink:href="#f2_21" transform="matrix(12,0,0,12,150.7,803.6)" />
<use xlink:href="#f2_29" transform="matrix(12,0,0,12,163.9,803.6)" />
<use xlink:href="#f2_1x" transform="matrix(12,0,0,12,177.5,803.6)" />
<use xlink:href="#f2_2g" transform="matrix(12,0,0,12,185.5,803.6)" />
<use xlink:href="#f2_2e" transform="matrix(12,0,0,12,191,803.6)" />
<use xlink:href="#f2_25" transform="matrix(12,0,0,12,197.2,803.6)" />
<use xlink:href="#f2_1z" transform="matrix(12,0,0,12,201.6,803.6)" />
<use xlink:href="#f2_21" transform="matrix(12,0,0,12,210,803.6)" />
<use xlink:href="#f2_2f" transform="matrix(12,0,0,12,218.1,803.6)" />
</g>
<g clip-path="url(#c1_40)">
<g fill="#000000" >
<use xlink:href="#f2_o" transform="matrix(12.5,0,0,12.2,76.3,830.4)" />
<use xlink:href="#f2_o" transform="matrix(12.5,0,0,12.2,107.5,830.4)" />
<use xlink:href="#f2_o" transform="matrix(12.5,0,0,12.2,142.9,830.4)" />
<use xlink:href="#f2_l" transform="matrix(12.5,0,0,12.2,174.5,830.4)" />
<use xlink:href="#f2_l" transform="matrix(12.5,0,0,12.2,211.9,830.4)" />
<use xlink:href="#f2_l" transform="matrix(12.5,0,0,12.2,242.3,830.4)" />
<use xlink:href="#f2_r" transform="matrix(12.5,0,0,12.2,76.1,858)" />
<use xlink:href="#f2_l" transform="matrix(12.5,0,0,12.2,107.2,858)" />
<use xlink:href="#f2_n" transform="matrix(12.5,0,0,12.2,142.9,858)" />
<use xlink:href="#f2_l" transform="matrix(12.5,0,0,12.2,174.5,858)" />
<use xlink:href="#f2_m" transform="matrix(12.5,0,0,12.2,211.2,858)" />
<use xlink:href="#f2_m" transform="matrix(12.5,0,0,12.2,247.6,858)" />
<use xlink:href="#f2_p" transform="matrix(12.5,0,0,12.2,71.1,885.6)" />
<use xlink:href="#f2_n" transform="matrix(12.5,0,0,12.2,112.8,885.6)" />
<use xlink:href="#f2_l" transform="matrix(12.5,0,0,12.2,148.6,885.6)" />
<use xlink:href="#f2_m" transform="matrix(12.5,0,0,12.2,174.8,885.6)" />
<use xlink:href="#f2_l" transform="matrix(12.5,0,0,12.2,205.9,885.6)" />
<use xlink:href="#f2_n" transform="matrix(12.5,0,0,12.2,242.6,885.6)" />
<use xlink:href="#f6_h" transform="matrix(12.5,0,0,12.2,66.2,830.4)" />
<use xlink:href="#f6_h" transform="matrix(12.5,0,0,12.2,202,830.4)" />
<use xlink:href="#f6_4r" transform="matrix(12.5,0,0,12.2,58.2,831.9)" />
<use xlink:href="#f6_57" transform="matrix(12.5,0,0,12.2,157.1,831.9)" />
<use xlink:href="#f6_4r" transform="matrix(12.5,0,0,12.2,167,831.9)" />
<use xlink:href="#f6_57" transform="matrix(12.5,0,0,12.2,257.6,831.9)" />
<use xlink:href="#f6_4s" transform="matrix(12.5,0,0,12.2,58.2,849.5)" />
<use xlink:href="#f6_58" transform="matrix(12.5,0,0,12.2,157.1,849.5)" />
<use xlink:href="#f6_4s" transform="matrix(12.5,0,0,12.2,167,849.5)" />
<use xlink:href="#f6_58" transform="matrix(12.5,0,0,12.2,257.6,849.5)" />
<use xlink:href="#f6_h" transform="matrix(12.5,0,0,12.2,66.1,858)" />
<use xlink:href="#f6_h" transform="matrix(12.5,0,0,12.2,201.2,858)" />
<use xlink:href="#f6_h" transform="matrix(12.5,0,0,12.2,237.7,858)" />
<use xlink:href="#f6_4s" transform="matrix(12.5,0,0,12.2,58.2,867.1)" />
<use xlink:href="#f6_58" transform="matrix(12.5,0,0,12.2,157.1,867.1)" />
<use xlink:href="#f6_4s" transform="matrix(12.5,0,0,12.2,167,867.1)" />
<use xlink:href="#f6_58" transform="matrix(12.5,0,0,12.2,257.6,867.1)" />
<use xlink:href="#f6_4s" transform="matrix(12.5,0,0,12.2,58.2,884.7)" />
<use xlink:href="#f6_58" transform="matrix(12.5,0,0,12.2,157.1,884.7)" />
<use xlink:href="#f6_4s" transform="matrix(12.5,0,0,12.2,167,884.7)" />
<use xlink:href="#f6_58" transform="matrix(12.5,0,0,12.2,257.6,884.7)" />
<use xlink:href="#f6_h" transform="matrix(12.5,0,0,12.2,102.8,885.6)" />
<use xlink:href="#f6_h" transform="matrix(12.5,0,0,12.2,138.7,885.6)" />
<use xlink:href="#f6_4t" transform="matrix(12.5,0,0,12.2,58.2,890.5)" />
<use xlink:href="#f6_59" transform="matrix(12.5,0,0,12.2,157.1,890.5)" />
<use xlink:href="#f6_4t" transform="matrix(12.5,0,0,12.2,167,890.5)" />
<use xlink:href="#f6_59" transform="matrix(12.5,0,0,12.2,257.6,890.5)" />
</g>
</g>
<g clip-path="url(#c2_40)">
<g fill="#000000" >
<use xlink:href="#f2_o" transform="matrix(12.5,0,0,12.2,90.7,918.8)" />
<use xlink:href="#f2_o" transform="matrix(12.5,0,0,12.2,117.4,918.8)" />
<use xlink:href="#f2_s" transform="matrix(12.5,0,0,12.2,143.2,918.8)" />
<use xlink:href="#f2_o" transform="matrix(12.5,0,0,12.2,169.3,918.8)" />
<use xlink:href="#f2_s" transform="matrix(12.5,0,0,12.2,194.9,918.8)" />
<use xlink:href="#f2_o" transform="matrix(12.5,0,0,12.2,221.2,918.8)" />
<use xlink:href="#f2_o" transform="matrix(12.5,0,0,12.2,264.9,918.8)" />
<use xlink:href="#f2_s" transform="matrix(12.5,0,0,12.2,290.4,918.8)" />
<use xlink:href="#f2_l" transform="matrix(12.5,0,0,12.2,314.8,918.8)" />
<use xlink:href="#f2_m" transform="matrix(12.5,0,0,12.2,324,918.8)" />
<use xlink:href="#f2_r" transform="matrix(12.5,0,0,12.2,90.7,946.3)" />
<use xlink:href="#f2_l" transform="matrix(12.5,0,0,12.2,115.7,946.3)" />
<use xlink:href="#f2_q" transform="matrix(12.5,0,0,12.2,140.7,946.3)" />
<use xlink:href="#f2_r" transform="matrix(12.5,0,0,12.2,169.1,946.3)" />
<use xlink:href="#f2_m" transform="matrix(12.5,0,0,12.2,195.8,946.3)" />
<use xlink:href="#f2_n" transform="matrix(12.5,0,0,12.2,221.9,946.3)" />
<use xlink:href="#f2_r" transform="matrix(12.5,0,0,12.2,264.9,946.3)" />
<use xlink:href="#f2_m" transform="matrix(12.5,0,0,12.2,291.6,946.3)" />
<use xlink:href="#f2_t" transform="matrix(12.5,0,0,12.2,317.7,946.3)" />
<use xlink:href="#f2_p" transform="matrix(12.5,0,0,12.2,89.3,973.9)" />
<use xlink:href="#f2_n" transform="matrix(12.5,0,0,12.2,114.8,973.9)" />
<use xlink:href="#f2_m" transform="matrix(12.5,0,0,12.2,140.6,973.9)" />
<use xlink:href="#f2_p" transform="matrix(12.5,0,0,12.2,179.4,973.9)" />
<use xlink:href="#f2_q" transform="matrix(12.5,0,0,12.2,205.5,973.9)" />
<use xlink:href="#f2_l" transform="matrix(12.5,0,0,12.2,229.9,973.9)" />
<use xlink:href="#f2_p" transform="matrix(12.5,0,0,12.2,265,973.9)" />
<use xlink:href="#f2_q" transform="matrix(12.5,0,0,12.2,291.1,973.9)" />
<use xlink:href="#f2_n" transform="matrix(12.5,0,0,12.2,316.9,973.9)" />
<use xlink:href="#f6_h" transform="matrix(12.5,0,0,12.2,80.6,918.8)" />
<use xlink:href="#f6_f" transform="matrix(12.5,0,0,12.2,103.3,918.8)" />
<use xlink:href="#f6_f" transform="matrix(12.5,0,0,12.2,130,918.8)" />
<use xlink:href="#f6_h" transform="matrix(12.5,0,0,12.2,182,918.8)" />
<use xlink:href="#f6_f" transform="matrix(12.5,0,0,12.2,207.2,918.8)" />
<use xlink:href="#f6_h" transform="matrix(12.5,0,0,12.2,254.8,918.8)" />
<use xlink:href="#f6_h" transform="matrix(12.5,0,0,12.2,277.5,918.8)" />
<use xlink:href="#f6_f" transform="matrix(12.5,0,0,12.2,302.8,918.8)" />
<use xlink:href="#f6_4r" transform="matrix(12.5,0,0,12.2,72.8,920.2)" />
<use xlink:href="#f6_57" transform="matrix(12.5,0,0,12.2,334,920.2)" />
<use xlink:href="#f6_4s" transform="matrix(12.5,0,0,12.2,72.8,937.8)" />
<use xlink:href="#f6_58" transform="matrix(12.5,0,0,12.2,334,937.8)" />
<use xlink:href="#f6_x" transform="matrix(12.5,0,0,12.2,57.9,946.3)" />
<use xlink:href="#f6_h" transform="matrix(12.5,0,0,12.2,80.6,946.3)" />
<use xlink:href="#f6_f" transform="matrix(12.5,0,0,12.2,103.6,946.3)" />
<use xlink:href="#f6_f" transform="matrix(12.5,0,0,12.2,126.8,946.3)" />
<use xlink:href="#f6_h" transform="matrix(12.5,0,0,12.2,181.9,946.3)" />
<use xlink:href="#f6_f" transform="matrix(12.5,0,0,12.2,208.3,946.3)" />
<use xlink:href="#f6_h" transform="matrix(12.5,0,0,12.2,254.8,946.3)" />
<use xlink:href="#f6_h" transform="matrix(12.5,0,0,12.2,277.8,946.3)" />
<use xlink:href="#f6_f" transform="matrix(12.5,0,0,12.2,304.1,946.3)" />
<use xlink:href="#f6_4s" transform="matrix(12.5,0,0,12.2,72.8,955.4)" />
<use xlink:href="#f6_58" transform="matrix(12.5,0,0,12.2,334,955.4)" />
<use xlink:href="#f6_4s" transform="matrix(12.5,0,0,12.2,72.8,973)" />
<use xlink:href="#f6_58" transform="matrix(12.5,0,0,12.2,334,973)" />
<use xlink:href="#f6_h" transform="matrix(12.5,0,0,12.2,101.6,973.9)" />
<use xlink:href="#f6_h" transform="matrix(12.5,0,0,12.2,126.9,973.9)" />
<use xlink:href="#f6_h" transform="matrix(12.5,0,0,12.2,169.4,973.9)" />
<use xlink:href="#f6_f" transform="matrix(12.5,0,0,12.2,191.7,973.9)" />
<use xlink:href="#f6_h" transform="matrix(12.5,0,0,12.2,218.1,973.9)" />
<use xlink:href="#f6_f" transform="matrix(12.5,0,0,12.2,277.3,973.9)" />
<use xlink:href="#f6_h" transform="matrix(12.5,0,0,12.2,303.7,973.9)" />
<use xlink:href="#f6_4t" transform="matrix(12.5,0,0,12.2,72.8,978.8)" />
<use xlink:href="#f6_59" transform="matrix(12.5,0,0,12.2,334,978.8)" />
</g>
</g>
<g clip-path="url(#c3_40)">
<g fill="#000000" >
<use xlink:href="#f2_n" transform="matrix(7.2,0,0,7.1,219,1039.4)" />
<use xlink:href="#f2_s" transform="matrix(12.5,0,0,12.2,79.6,1007.2)" />
<use xlink:href="#f2_k" transform="matrix(12.5,0,0,12.2,123.3,1007.2)" />
<use xlink:href="#f2_k" transform="matrix(12.5,0,0,12.2,167.4,1007.2)" />
<use xlink:href="#f2_k" transform="matrix(12.5,0,0,12.2,80.1,1034.7)" />
<use xlink:href="#f2_s" transform="matrix(12.5,0,0,12.2,123.6,1034.7)" />
<use xlink:href="#f2_k" transform="matrix(12.5,0,0,12.2,167.4,1034.7)" />
<use xlink:href="#f2_s" transform="matrix(12.5,0,0,12.2,202.5,1034.7)" />
<use xlink:href="#f2_k" transform="matrix(12.5,0,0,12.2,80.1,1062.3)" />
<use xlink:href="#f2_k" transform="matrix(12.5,0,0,12.2,124.2,1062.3)" />
<use xlink:href="#f2_s" transform="matrix(12.5,0,0,12.2,167.6,1062.3)" />
<use xlink:href="#f8_19" transform="matrix(12.5,0,0,12.2,212.2,1034.7)" />
<use xlink:href="#f6_4r" transform="matrix(12.5,0,0,12.2,72.6,1008.6)" />
<use xlink:href="#f6_57" transform="matrix(12.5,0,0,12.2,177.2,1008.6)" />
<use xlink:href="#f6_4s" transform="matrix(12.5,0,0,12.2,72.6,1026.2)" />
<use xlink:href="#f6_58" transform="matrix(12.5,0,0,12.2,177.2,1026.2)" />
<use xlink:href="#f6_x" transform="matrix(12.5,0,0,12.2,57.9,1034.7)" />
<use xlink:href="#f6_x" transform="matrix(12.5,0,0,12.2,189,1034.7)" />
<use xlink:href="#f6_4s" transform="matrix(12.5,0,0,12.2,72.6,1043.8)" />
<use xlink:href="#f6_58" transform="matrix(12.5,0,0,12.2,177.2,1043.8)" />
<use xlink:href="#f6_4s" transform="matrix(12.5,0,0,12.2,72.6,1061.4)" />
<use xlink:href="#f6_58" transform="matrix(12.5,0,0,12.2,177.2,1061.4)" />
<use xlink:href="#f6_4t" transform="matrix(12.5,0,0,12.2,72.6,1067.2)" />
<use xlink:href="#f6_59" transform="matrix(12.5,0,0,12.2,177.2,1067.2)" />
</g>
</g>
<g fill="#000000" >
<use xlink:href="#f2_18" transform="matrix(12,0,0,12,55,1126.3)" />
<use xlink:href="#f2_21" transform="matrix(12,0,0,12,68.3,1126.3)" />
<use xlink:href="#f2_2a" transform="matrix(12,0,0,12,76.3,1126.3)" />
<use xlink:href="#f2_1z" transform="matrix(12,0,0,12,85.1,1126.3)" />
<use xlink:href="#f2_21" transform="matrix(12,0,0,12,93.5,1126.3)" />
</g>
<path d="M239.4,1121.7h9.8" class="g2_40" />
<g clip-path="url(#c4_40)">
<g fill="#000000" >
<use xlink:href="#f2_l" transform="matrix(7.3,0,0,7.1,214.1,1087.3)" />
<use xlink:href="#f2_l" transform="matrix(12.5,0,0,12.3,117.1,1098.5)" />
<use xlink:href="#f2_l" transform="matrix(12.5,0,0,12.3,154.5,1098.5)" />
<use xlink:href="#f2_l" transform="matrix(12.5,0,0,12.3,184.9,1098.5)" />
<use xlink:href="#f2_o" transform="matrix(12.5,0,0,12.3,270.2,1098.5)" />
<use xlink:href="#f2_o" transform="matrix(12.5,0,0,12.3,301.4,1098.5)" />
<use xlink:href="#f2_o" transform="matrix(12.5,0,0,12.3,336.8,1098.5)" />
<use xlink:href="#f2_l" transform="matrix(12.5,0,0,12.3,239.7,1114.5)" />
<use xlink:href="#f2_l" transform="matrix(12.5,0,0,12.3,117.1,1126.4)" />
<use xlink:href="#f2_m" transform="matrix(12.5,0,0,12.3,153.8,1126.4)" />
<use xlink:href="#f2_m" transform="matrix(12.5,0,0,12.3,190.2,1126.4)" />
<use xlink:href="#f2_r" transform="matrix(12.5,0,0,12.3,270.1,1126.4)" />
<use xlink:href="#f2_l" transform="matrix(12.5,0,0,12.3,301.2,1126.4)" />
<use xlink:href="#f2_n" transform="matrix(12.5,0,0,12.3,336.8,1126.4)" />
<use xlink:href="#f2_s" transform="matrix(12.5,0,0,12.3,239.7,1141.1)" />
<use xlink:href="#f2_m" transform="matrix(12.5,0,0,12.3,117.4,1154.2)" />
<use xlink:href="#f2_l" transform="matrix(12.5,0,0,12.3,148.5,1154.2)" />
<use xlink:href="#f2_n" transform="matrix(12.5,0,0,12.3,185.2,1154.2)" />
<use xlink:href="#f2_p" transform="matrix(12.5,0,0,12.3,265.1,1154.2)" />
<use xlink:href="#f2_n" transform="matrix(12.5,0,0,12.3,306.8,1154.2)" />
<use xlink:href="#f2_l" transform="matrix(12.5,0,0,12.3,342.6,1154.2)" />
<use xlink:href="#f6_h" transform="matrix(7.3,0,0,7.1,208.3,1087.3)" />
<use xlink:href="#f6_h" transform="matrix(12.5,0,0,12.3,144.5,1098.5)" />
<use xlink:href="#f6_h" transform="matrix(12.5,0,0,12.3,260.2,1098.5)" />
<use xlink:href="#f6_4r" transform="matrix(12.5,0,0,12.3,109.6,1100)" />
<use xlink:href="#f6_57" transform="matrix(12.5,0,0,12.3,200,1100)" />
<use xlink:href="#f6_4r" transform="matrix(12.5,0,0,12.3,252.2,1100)" />
<use xlink:href="#f6_57" transform="matrix(12.5,0,0,12.3,351,1100)" />
<use xlink:href="#f6_4s" transform="matrix(12.5,0,0,12.3,109.6,1117.7)" />
<use xlink:href="#f6_58" transform="matrix(12.5,0,0,12.3,200,1117.7)" />
<use xlink:href="#f6_4s" transform="matrix(12.5,0,0,12.3,252.2,1117.7)" />
<use xlink:href="#f6_58" transform="matrix(12.5,0,0,12.3,351,1117.7)" />
<use xlink:href="#f6_h" transform="matrix(12.5,0,0,12.3,143.8,1126.4)" />
<use xlink:href="#f6_h" transform="matrix(12.5,0,0,12.3,180.2,1126.4)" />
<use xlink:href="#f6_x" transform="matrix(12.5,0,0,12.3,224.6,1126.4)" />
<use xlink:href="#f6_h" transform="matrix(12.5,0,0,12.3,260,1126.4)" />
<use xlink:href="#f6_4s" transform="matrix(12.5,0,0,12.3,109.6,1135.6)" />
<use xlink:href="#f6_58" transform="matrix(12.5,0,0,12.3,200,1135.6)" />
<use xlink:href="#f6_4s" transform="matrix(12.5,0,0,12.3,252.2,1135.6)" />
<use xlink:href="#f6_58" transform="matrix(12.5,0,0,12.3,351,1135.6)" />
<use xlink:href="#f6_4s" transform="matrix(12.5,0,0,12.3,109.6,1153.3)" />
<use xlink:href="#f6_58" transform="matrix(12.5,0,0,12.3,200,1153.3)" />
<use xlink:href="#f6_4s" transform="matrix(12.5,0,0,12.3,252.2,1153.3)" />
<use xlink:href="#f6_58" transform="matrix(12.5,0,0,12.3,351,1153.3)" />
<use xlink:href="#f6_h" transform="matrix(12.5,0,0,12.3,296.8,1154.2)" />
<use xlink:href="#f6_h" transform="matrix(12.5,0,0,12.3,332.6,1154.2)" />
<use xlink:href="#f6_4t" transform="matrix(12.5,0,0,12.3,109.6,1159.2)" />
<use xlink:href="#f6_59" transform="matrix(12.5,0,0,12.3,200,1159.2)" />
<use xlink:href="#f6_4t" transform="matrix(12.5,0,0,12.3,252.2,1159.2)" />
<use xlink:href="#f6_59" transform="matrix(12.5,0,0,12.3,351,1159.2)" />
</g>
</g>
<g fill="#000000" >
<use xlink:href="#f2_1e" transform="matrix(12,0,0,12,55,1185)" />
<use xlink:href="#f2_2b" transform="matrix(12,0,0,12,68.3,1185)" />
<use xlink:href="#f2_2j" transform="matrix(12,0,0,12,77.8,1185)" />
<use xlink:href="#f2_g" transform="matrix(12,0,0,12,91,1185)" />
<use xlink:href="#f2_23" transform="matrix(12,0,0,12,100.1,1185)" />
<use xlink:href="#f2_25" transform="matrix(12,0,0,12,109.3,1185)" />
<use xlink:href="#f2_2i" transform="matrix(12,0,0,12,114,1185)" />
<use xlink:href="#f2_21" transform="matrix(12,0,0,12,122.8,1185)" />
<use xlink:href="#f2_2a" transform="matrix(12,0,0,12,131.2,1185)" />
<use xlink:href="#f2_2f" transform="matrix(12,0,0,12,144.8,1185)" />
<use xlink:href="#f2_2l" transform="matrix(12,0,0,12,152.1,1185)" />
<use xlink:href="#f2_2f" transform="matrix(12,0,0,12,160.9,1185)" />
<use xlink:href="#f2_2g" transform="matrix(12,0,0,12,167.9,1185)" />
<use xlink:href="#f2_21" transform="matrix(12,0,0,12,173.4,1185)" />
<use xlink:href="#f2_29" transform="matrix(12,0,0,12,181.8,1185)" />
<use xlink:href="#f2_2b" transform="matrix(12,0,0,12,200.1,1185)" />
<use xlink:href="#f2_22" transform="matrix(12,0,0,12,210,1185)" />
<use xlink:href="#f2_21" transform="matrix(12,0,0,12,220.2,1185)" />
<use xlink:href="#f2_2d" transform="matrix(12,0,0,12,228.3,1185)" />
<use xlink:href="#f2_2h" transform="matrix(12,0,0,12,237.5,1185)" />
<use xlink:href="#f2_1x" transform="matrix(12,0,0,12,246.6,1185)" />
<use xlink:href="#f2_2g" transform="matrix(12,0,0,12,254.7,1185)" />
<use xlink:href="#f2_25" transform="matrix(12,0,0,12,260.2,1185)" />
<use xlink:href="#f2_2b" transform="matrix(12,0,0,12,264.6,1185)" />
<use xlink:href="#f2_2a" transform="matrix(12,0,0,12,274.1,1185)" />
<use xlink:href="#f2_2f" transform="matrix(12,0,0,12,283.3,1185)" />
<use xlink:href="#f2_1z" transform="matrix(12,0,0,12,295,1185)" />
<use xlink:href="#f2_1x" transform="matrix(12,0,0,12,303,1185)" />
<use xlink:href="#f2_2a" transform="matrix(12,0,0,12,311.4,1185)" />
<use xlink:href="#f2_1y" transform="matrix(12,0,0,12,325,1185)" />
<use xlink:href="#f2_21" transform="matrix(12,0,0,12,333.8,1185)" />
<use xlink:href="#f2_2j" transform="matrix(12,0,0,12,346.6,1185)" />
<use xlink:href="#f2_2e" transform="matrix(12,0,0,12,359.8,1185)" />
<use xlink:href="#f2_25" transform="matrix(12,0,0,12,366.4,1185)" />
<use xlink:href="#f2_2g" transform="matrix(12,0,0,12,370.8,1185)" />
<use xlink:href="#f2_2g" transform="matrix(12,0,0,12,376.3,1185)" />
<use xlink:href="#f2_21" transform="matrix(12,0,0,12,381.8,1185)" />
<use xlink:href="#f2_2a" transform="matrix(12,0,0,12,389.8,1185)" />
<use xlink:href="#f2_25" transform="matrix(12,0,0,12,403.7,1185)" />
<use xlink:href="#f2_2a" transform="matrix(12,0,0,12,408.5,1185)" />
<use xlink:href="#f2_29" transform="matrix(12,0,0,12,422.1,1185)" />
<use xlink:href="#f2_1x" transform="matrix(12,0,0,12,436,1185)" />
<use xlink:href="#f2_2g" transform="matrix(12,0,0,12,444.1,1185)" />
<use xlink:href="#f2_2e" transform="matrix(12,0,0,12,449.5,1185)" />
<use xlink:href="#f2_25" transform="matrix(12,0,0,12,456.1,1185)" />
<use xlink:href="#f2_2k" transform="matrix(12,0,0,12,460.5,1185)" />
<use xlink:href="#f2_22" transform="matrix(12,0,0,12,474.4,1185)" />
<use xlink:href="#f2_2b" transform="matrix(12,0,0,12,479.9,1185)" />
<use xlink:href="#f2_2e" transform="matrix(12,0,0,12,489.4,1185)" />
<use xlink:href="#f2_29" transform="matrix(12,0,0,12,496,1185)" />
<use xlink:href="#f2_g" transform="matrix(12,0,0,12,509.6,1185)" />
<use xlink:href="#f2_1x" transform="matrix(12,0,0,12,519.1,1185)" />
<use xlink:href="#f2_2f" transform="matrix(12,0,0,12,527.2,1185)" />
<use xlink:href="#f2_22" transform="matrix(12,0,0,12,539.2,1185)" />
<use xlink:href="#f2_2b" transform="matrix(12,0,0,12,544.7,1185)" />
<use xlink:href="#f2_28" transform="matrix(12,0,0,12,554.6,1185)" />
<use xlink:href="#f2_28" transform="matrix(12,0,0,12,559.4,1185)" />
<use xlink:href="#f2_2b" transform="matrix(12,0,0,12,563.8,1185)" />
<use xlink:href="#f2_2j" transform="matrix(12,0,0,12,573.3,1185)" />
<use xlink:href="#f2_2f" transform="matrix(12,0,0,12,586.5,1185)" />
</g>
<image preserveAspectRatio="none" x="55" y="127" width="332" height="216" xlink:href="img/6.png" />
<image preserveAspectRatio="none" x="55" y="395" width="456" height="118" xlink:href="img/7.png" />
<path fill-rule="evenodd" d="M37.4,38.1h.7v-.7h-.7v.7Z" class="g3_40" />
<path fill-rule="evenodd" d="M37.4,38.1h.7v-.7h-.7v.7Z" class="g3_40" />
<path fill-rule="evenodd" d="M38.1,38.1H871.5v-.7H38.1v.7Z" class="g3_40" />
<path fill-rule="evenodd" d="M871.5,38.1h.8v-.7h-.8v.7Z" class="g3_40" />
<path fill-rule="evenodd" d="M871.5,38.1h.8v-.7h-.8v.7Z" class="g3_40" />
<path fill-rule="evenodd" d="M37.4,1248.5h.7V38.1h-.7V1248.5Z" class="g3_40" />
<path fill-rule="evenodd" d="M872.3,1248.5h.7V38.1h-.7V1248.5Z" class="g3_40" />
<path fill-rule="evenodd" d="M871.5,1248.5h.8V38.1h-.8V1248.5Z" class="g3_40" />
<path fill-rule="evenodd" d="M37.4,1249.2h.7v-.7h-.7v.7Z" class="g3_40" />
<path fill-rule="evenodd" d="M37.4,1249.2h.7v-.7h-.7v.7Z" class="g3_40" />
<path fill-rule="evenodd" d="M38.1,1249.9H871.5v-.7H38.1v.7Z" class="g3_40" />
<path fill-rule="evenodd" d="M38.1,1249.2H871.5v-.7H38.1v.7Z" class="g3_40" />
<path fill-rule="evenodd" d="M872.3,1249.9h.7v-1.4h-.7v1.4Z" class="g3_40" />
<path fill-rule="evenodd" d="M871.5,1249.9H873v-.7h-1.5v.7Z" class="g3_40" />
<path fill-rule="evenodd" d="M871.5,1249.2h.8v-.7h-.8v.7Z" class="g3_40" />
<path fill-rule="evenodd" d="M871.5,1249.2h.8v-.7h-.8v.7Z" class="g3_40" />
<defs>
<path d="M489,-15c0,0,-99,0,-179,30c0,0,-80,30,-136,91c0,0,-56,61,-85,152c0,0,-30,91,-30,212c0,0,0,123,32,218c0,0,33,96,92,161c0,0,59,65,142,98c0,0,82,34,181,34c0,0,40,0,78,-7c0,0,37,-7,69,-18c0,0,31,-11,57,-25c0,0,25,-14,35,-24c0,0,10,-10,14,-17c0,0,4,-7,6,-17c0,0,2,-11,3,-25c0,0,2,-14,2,-35c0,0,0,-22,-2,-38c0,0,-1,-15,-5,-25c0,0,-4,-10,-9,-14c0,0,-5,-5,-12,-5c0,0,-11,0,-28,13c0,0,-18,13,-45,29c0,0,-27,16,-65,29c0,0,-37,13,-89,13c0,0,-58,0,-103,-23c0,0,-45,-23,-77,-67c0,0,-31,-44,-48,-106c0,0,-16,-61,-16,-139c0,0,0,-85,17,-147c0,0,18,-62,50,-103c0,0,33,-40,79,-60c0,0,45,-19,103,-19c0,0,52,0,90,12c0,0,38,12,65,27c0,0,27,15,45,27c0,0,17,12,27,12c0,0,8,0,12,-3c0,0,4,-3,7,-12c0,0,3,-9,5,-25c0,0,1,-16,1,-43c0,0,0,-18,-1,-31c0,0,-1,-14,-3,-23c0,0,-2,-9,-6,-16c0,0,-4,-7,-12,-15c0,0,-8,-9,-32,-22c0,0,-23,-14,-57,-26C661,13,627,1,583,-6c0,0,-43,-9,-94,-9Z" 
id="f0_j"
transform="scale(0.001,-0.001)" />

<path d="M440,150c0,0,41,0,68,8c0,0,28,9,49,26c0,0,20,16,32,41c0,0,11,25,11,58c0,0,0,33,-11,60c0,0,-11,26,-33,44c0,0,-21,18,-55,28c0,0,-33,9,-87,9H298V150ZM407,567c0,0,42,0,68,10c0,0,25,10,42,28c0,0,16,17,24,41c0,0,9,24,9,50c0,0,0,29,-9,52c0,0,-9,23,-27,39c0,0,-18,15,-45,23c0,0,-27,8,-72,8H298V567ZM164,0c0,0,-25,0,-42,15c0,0,-16,14,-16,47V903c0,0,0,33,16,48c0,0,17,14,42,14H406c0,0,88,0,150,-15c0,0,61,-15,103,-45c0,0,42,-30,65,-77c0,0,22,-46,22,-108c0,0,0,-36,-9,-67c0,0,-9,-31,-26,-56c0,0,-17,-25,-42,-45c0,0,-25,-19,-57,-31c0,0,41,-7,76,-26c0,0,34,-19,60,-48c0,0,26,-30,41,-69c0,0,15,-40,15,-89c0,0,0,-51,-14,-93c0,0,-15,-42,-40,-74c0,0,-25,-32,-59,-55c0,0,-35,-23,-77,-38C614,29,573,14,525,7C525,7,478,0,420,0Z" 
id="f0_i"
transform="scale(0.001,-0.001)" />

<path d="M320,-17c0,0,-50,0,-93,9c0,0,-43,8,-76,19c0,0,-32,11,-54,24C97,35,75,48,65,58c0,0,-10,9,-14,28c0,0,-4,18,-4,52c0,0,0,23,1,39c0,0,2,15,5,25c0,0,4,10,9,14c0,0,6,4,13,4c0,0,11,0,30,-12c0,0,19,-13,49,-28c0,0,30,-15,71,-27c0,0,42,-12,96,-12c0,0,36,0,64,8c0,0,29,9,49,25c0,0,19,15,30,38c0,0,10,23,10,52c0,0,0,33,-18,56c0,0,-18,24,-46,42c0,0,-29,18,-66,34c0,0,-36,16,-75,34c0,0,-39,18,-76,41c0,0,-36,23,-65,54c0,0,-29,32,-47,75c0,0,-17,44,-17,104c0,0,0,70,25,122c0,0,26,53,70,88c0,0,43,34,103,51c0,0,59,18,125,18c0,0,35,0,69,-6c0,0,34,-5,64,-14c0,0,30,-9,53,-20c0,0,23,-11,31,-18c0,0,7,-8,10,-13c0,0,3,-5,4,-14c0,0,2,-8,3,-21c0,0,1,-13,1,-33c0,0,0,-21,-1,-36c0,0,-1,-15,-4,-25c0,0,-3,-9,-7,-14c0,0,-5,-4,-14,-4c0,0,-8,0,-26,10c0,0,-18,10,-44,23c0,0,-26,12,-60,22c0,0,-34,10,-75,10c0,0,-32,0,-56,-8c0,0,-24,-8,-40,-21c0,0,-16,-14,-24,-34c0,0,-8,-19,-8,-41c0,0,0,-32,18,-56c0,0,17,-23,46,-42c0,0,30,-18,67,-34c0,0,38,-16,76,-34c0,0,39,-18,76,-41c0,0,38,-22,67,-54c0,0,29,-32,47,-75c0,0,18,-43,18,-101c0,0,0,-76,-29,-133c0,0,-28,-58,-77,-96C572,60,524,21,459,2c0,0,-65,-19,-139,-19Z" 
id="f0_2n"
transform="scale(0.001,-0.001)" />

<path d="M164,0c0,0,-25,0,-42,15c0,0,-16,14,-16,47V903c0,0,0,33,16,48c0,0,17,14,42,14H645c0,0,7,0,12,-4c0,0,5,-3,9,-13c0,0,4,-9,6,-24c0,0,2,-14,2,-36c0,0,0,-21,-2,-36c0,0,-2,-14,-6,-23c0,0,-4,-9,-9,-13c0,0,-5,-4,-12,-4H301V576H593c0,0,6,0,12,-4c0,0,6,-4,9,-13c0,0,4,-8,6,-23c0,0,2,-14,2,-35c0,0,0,-22,-2,-36c0,0,-2,-14,-6,-23c0,0,-3,-8,-9,-12c0,0,-6,-4,-12,-4H301V154H649c0,0,6,0,12,-5c0,0,5,-4,9,-13c0,0,4,-9,6,-23c0,0,2,-15,2,-36c0,0,0,-22,-2,-36c0,0,-2,-15,-6,-24c0,0,-4,-9,-9,-13c0,0,-6,-4,-12,-4Z" 
id="f0_t"
transform="scale(0.001,-0.001)" />

<path d="M79,297c0,0,-19,0,-27,18c0,0,-8,17,-8,60c0,0,0,41,8,59c0,0,8,17,27,17H389c0,0,9,0,15,-4c0,0,7,-4,11,-13c0,0,5,-9,7,-23c0,0,1,-15,1,-36c0,0,0,-43,-8,-61c0,0,-8,-17,-26,-17Z" 
id="f0_oj"
transform="scale(0.001,-0.001)" />

<path d="M121,-4c0,0,-39,0,-60,2C61,-2,39,0,32,8c0,0,-8,8,-3,24c0,0,4,15,18,41L279,495L64,892c0,0,-14,26,-19,42c0,0,-5,17,4,24c0,0,9,8,32,10c0,0,23,2,65,2c0,0,35,0,56,-2c0,0,20,-1,32,-4c0,0,12,-4,17,-10c0,0,5,-6,9,-15L431,620L595,939c0,0,5,9,10,15c0,0,5,6,16,10c0,0,10,3,29,4c0,0,19,2,53,2c0,0,37,0,59,-2c0,0,22,-2,30,-10c0,0,8,-8,4,-24c0,0,-4,-16,-17,-42L564,497L793,73c0,0,14,-26,18,-41c0,0,4,-16,-5,-24c0,0,-9,-8,-32,-10c0,0,-24,-2,-65,-2c0,0,-36,0,-56,2c0,0,-20,1,-31,3c0,0,-12,4,-17,10c0,0,-5,6,-9,15L414,374L233,26c0,0,-4,-9,-9,-15c0,0,-6,-6,-17,-10c0,0,-12,-2,-32,-3c0,0,-21,-2,-54,-2Z" 
id="f0_3e"
transform="scale(0.001,-0.001)" />

<path d="M204,-4c0,0,-28,0,-47,2c0,0,-19,2,-31,5c0,0,-11,4,-16,10c0,0,-4,6,-4,13V939c0,0,0,7,4,13c0,0,5,6,17,10c0,0,11,3,30,6c0,0,19,2,47,2c0,0,29,0,48,-2c0,0,18,-3,29,-6c0,0,11,-4,16,-10c0,0,5,-6,5,-13V26c0,0,0,-7,-5,-13c0,0,-5,-6,-16,-10c0,0,-11,-3,-29,-5c0,0,-19,-2,-48,-2Z" 
id="f0_1c"
transform="scale(0.001,-0.001)" />

<path d="M127,0c0,0,-16,0,-28,3C99,3,87,6,80,15c0,0,-8,8,-11,25c0,0,-3,16,-3,42c0,0,0,25,2,42c0,0,2,18,8,32c0,0,6,14,15,27c0,0,9,13,24,29L282,390c0,0,50,53,81,95c0,0,30,43,47,79c0,0,17,35,24,65c0,0,6,30,6,57c0,0,0,24,-8,46c0,0,-8,22,-23,39c0,0,-15,16,-38,25c0,0,-23,10,-55,10c0,0,-44,0,-78,-12c0,0,-33,-11,-59,-25c0,0,-26,-13,-43,-25c0,0,-17,-12,-27,-12c0,0,-7,0,-11,5c0,0,-5,4,-8,15c0,0,-3,10,-5,28c0,0,-2,17,-2,42c0,0,0,18,1,29c0,0,1,12,4,20c0,0,2,9,6,15c0,0,3,6,13,15c0,0,9,9,34,23c0,0,25,14,61,27c0,0,37,14,81,23c0,0,44,9,92,9c0,0,75,0,131,-19c0,0,57,-19,94,-53c0,0,37,-34,55,-81c0,0,19,-47,19,-100c0,0,0,-47,-9,-93c0,0,-9,-45,-37,-98c0,0,-29,-52,-80,-116c0,0,-52,-64,-136,-148L299,159H679c0,0,8,0,14,-4c0,0,6,-5,11,-14c0,0,4,-9,7,-25c0,0,2,-15,2,-36c0,0,0,-22,-2,-37c0,0,-2,-15,-6,-25c0,0,-3,-10,-9,-14c0,0,-6,-4,-14,-4Z" 
id="f0_rz"
transform="scale(0.001,-0.001)" />

<path d="M385,138c0,0,29,0,52,9c0,0,22,10,39,28c0,0,17,19,28,47c0,0,11,29,19,66c0,0,7,37,9,84c0,0,3,47,3,104c0,0,0,69,-4,122c0,0,-4,52,-11,91c0,0,-8,39,-20,66c0,0,-12,27,-28,43c0,0,-16,16,-37,22c0,0,-21,7,-47,7c0,0,-44,0,-73,-21c0,0,-28,-21,-45,-64c0,0,-17,-42,-24,-106c0,0,-6,-63,-6,-148c0,0,0,-103,8,-171c0,0,8,-67,26,-107c0,0,17,-40,45,-56c0,0,27,-16,66,-16ZM378,-17c0,0,-99,0,-164,33c0,0,-65,34,-103,98c0,0,-38,64,-54,156c0,0,-15,92,-15,209c0,0,0,115,19,208c0,0,19,94,61,160c0,0,42,65,110,101c0,0,68,35,165,35c0,0,99,0,164,-34c0,0,65,-34,103,-98c0,0,39,-64,53,-156c0,0,15,-92,15,-209c0,0,0,-115,-18,-209c0,0,-19,-93,-61,-159C653,118,611,53,543,17c0,0,-67,-34,-165,-34Z" 
id="f0_rx"
transform="scale(0.001,-0.001)" />

<path d="M142,0c0,0,-6,0,-12,4c0,0,-5,3,-9,12c0,0,-4,9,-6,23c0,0,-3,15,-3,36c0,0,0,21,2,36c0,0,2,14,6,23c0,0,4,9,10,13c0,0,5,5,12,5H322V779L166,693c0,0,-17,-8,-28,-10c0,0,-1,0,-3,0c-4,0,-10,1,-14,5c0,0,-6,6,-8,22c0,0,-2,15,-2,44c0,0,0,18,0,29c0,0,1,12,4,20c0,0,3,8,8,14c0,0,5,5,14,11L345,962c0,0,4,3,9,5c0,0,6,2,15,3c0,0,9,1,23,2c0,0,15,0,38,0c0,0,28,0,46,-1c0,0,17,-1,26,-4c0,0,9,-3,12,-7c0,0,3,-4,3,-11V152H675c0,0,7,0,12,-5c0,0,6,-4,10,-13c0,0,4,-9,6,-23c0,0,2,-15,2,-36c0,0,0,-21,-2,-36c0,0,-3,-14,-7,-23c0,0,-4,-9,-9,-12c0,0,-5,-4,-12,-4Z" 
id="f0_ry"
transform="scale(0.001,-0.001)" />

<path d="M259,-4c0,0,-39,0,-62,3c0,0,-23,1,-34,7c0,0,-11,6,-12,14c0,0,-1,9,5,21L498,796H92c0,0,-16,0,-24,20c0,0,-7,21,-7,65c0,0,0,22,2,38c0,0,2,16,6,27c0,0,4,10,10,15c0,0,6,4,13,4H666c0,0,13,0,22,-3c0,0,9,-2,14,-11c0,0,6,-9,8,-25c0,0,3,-17,3,-43c0,0,0,-22,-2,-38c0,0,-1,-16,-4,-30c0,0,-2,-13,-7,-26c0,0,-4,-12,-10,-26L372,26c0,0,-5,-10,-12,-16c0,0,-7,-6,-20,-9c0,0,-12,-3,-32,-4c0,0,-20,-1,-49,-1Z" 
id="f0_s4"
transform="scale(0.001,-0.001)" />

<path d="M589,371L453,782h-1L317,371ZM106,-4c0,0,-35,0,-54,2C52,-2,32,0,25,8c0,0,-7,9,-5,24c0,0,2,16,11,42L329,931c0,0,4,13,10,21c0,0,6,7,19,12c0,0,13,4,36,5c0,0,23,1,61,1c0,0,44,0,71,-1c0,0,26,-1,40,-5c0,0,15,-5,21,-13c0,0,6,-8,11,-22L896,73c0,0,9,-27,11,-43c0,0,3,-15,-6,-23c0,0,-8,-7,-29,-9c0,0,-21,-2,-57,-2c0,0,-38,0,-59,1c0,0,-22,1,-33,4c0,0,-11,3,-16,9c0,0,-4,6,-7,16L635,220H272L211,31c0,0,-2,-11,-7,-18c0,0,-5,-7,-16,-11c0,0,-11,-3,-31,-4c0,0,-19,-2,-51,-2Z" 
id="f0_5"
transform="scale(0.001,-0.001)" />

<path d="M198,-4c0,0,-27,0,-45,2c0,0,-18,2,-28,5c0,0,-11,4,-15,10c0,0,-4,6,-4,13V887c0,0,0,38,20,58c0,0,20,20,53,20H308c0,0,34,0,59,-6c0,0,24,-5,42,-18c0,0,18,-13,30,-35c0,0,12,-21,21,-52L669,279h3L889,852c0,0,9,32,21,53c0,0,11,22,27,35c0,0,15,14,36,19c0,0,21,6,48,6h132c0,0,21,0,35,-5c0,0,15,-5,24,-15c0,0,9,-11,14,-25c0,0,5,-15,5,-33V26c0,0,0,-7,-4,-13c0,0,-4,-6,-15,-10c0,0,-11,-3,-29,-5c0,0,-18,-2,-45,-2c0,0,-27,0,-45,2c0,0,-18,2,-28,5c0,0,-11,4,-15,10c0,0,-5,6,-5,13V813h-1L764,27c0,0,-3,-10,-10,-16c0,0,-6,-6,-18,-10c0,0,-12,-3,-29,-4c0,0,-18,-1,-44,-1c0,0,-25,0,-43,2c0,0,-18,2,-29,5c0,0,-12,4,-19,10c0,0,-6,6,-9,14L293,813h-2V26c0,0,0,-7,-4,-13c0,0,-4,-6,-15,-10c0,0,-11,-3,-29,-5c0,0,-17,-2,-45,-2Z" 
id="f0_1x"
transform="scale(0.001,-0.001)" />

<path d="M193,-4c0,0,-26,0,-43,2c0,0,-18,2,-27,6c0,0,-10,4,-14,10c0,0,-3,6,-3,13V895c0,0,0,35,20,53c0,0,21,17,50,17H282c0,0,28,0,47,-5c0,0,20,-5,35,-16c0,0,15,-11,29,-31c0,0,13,-20,27,-49L608,511c0,0,17,-32,33,-63c0,0,16,-31,31,-62c0,0,14,-31,29,-60c0,0,14,-30,27,-60h1c0,0,-2,52,-3,109c0,0,-1,57,-1,108V936c0,0,0,7,4,13c0,0,5,6,15,11c0,0,10,4,28,6c0,0,17,2,44,2c0,0,25,0,42,-2c0,0,17,-2,27,-6c0,0,9,-5,13,-11c0,0,4,-6,4,-13V68c0,0,0,-17,-6,-30c0,0,-6,-14,-17,-23C879,15,869,6,856,2c0,0,-14,-3,-28,-3H744c0,0,-26,0,-45,4c0,0,-19,5,-35,19c0,0,-16,14,-31,38c0,0,-15,23,-34,60L359,572c0,0,-21,40,-43,86c0,0,-21,47,-38,91h-2c0,0,3,-54,5,-107c0,0,2,-53,2,-110V27c0,0,0,-7,-5,-13c0,0,-4,-6,-14,-10c0,0,-10,-4,-27,-6c0,0,-17,-2,-44,-2Z" 
id="f0_1y"
transform="scale(0.001,-0.001)" />

<path d="M378,-4c0,0,-28,0,-47,2c0,0,-19,2,-31,5c0,0,-11,4,-16,10c0,0,-4,6,-4,13V805H38c0,0,-8,0,-13,4c0,0,-5,5,-9,14c0,0,-3,9,-5,25c0,0,-2,15,-2,37c0,0,0,22,2,38c0,0,2,15,5,25c0,0,4,9,9,13c0,0,5,4,13,4H718c0,0,7,0,12,-4c0,0,6,-4,10,-13c0,0,3,-10,5,-25c0,0,2,-16,2,-38c0,0,0,-22,-2,-37c0,0,-2,-16,-5,-25c0,0,-4,-9,-10,-14c0,0,-5,-4,-12,-4H476V26c0,0,0,-7,-5,-13c0,0,-5,-6,-16,-10c0,0,-11,-3,-30,-5c0,0,-19,-2,-47,-2Z" 
id="f0_2t"
transform="scale(0.001,-0.001)" />

<path d="M514,145c0,0,72,0,121,27c0,0,48,26,78,73c0,0,30,46,42,107c0,0,13,62,13,131c0,0,0,76,-12,139c0,0,-12,62,-41,106c0,0,-29,45,-76,69c0,0,-48,24,-120,24c0,0,-72,0,-120,-27c0,0,-49,-27,-79,-73c0,0,-29,-45,-42,-106c0,0,-12,-61,-12,-129c0,0,0,-79,12,-142c0,0,12,-63,40,-108c0,0,28,-44,76,-68c0,0,48,-23,120,-23ZM508,-17c0,0,-113,0,-196,29c0,0,-84,29,-140,90c0,0,-56,60,-84,154c0,0,-28,93,-28,221c0,0,0,117,29,210c0,0,30,94,89,160c0,0,59,65,146,101c0,0,87,35,202,35c0,0,110,0,194,-29c0,0,84,-30,140,-90c0,0,56,-60,85,-153c0,0,29,-92,29,-217c0,0,0,-120,-30,-215c0,0,-30,-95,-89,-161C855,118,796,52,709,17c0,0,-87,-34,-201,-34Z" 
id="f0_24"
transform="scale(0.001,-0.001)" />

<path d="M299,0V777H162l36,173H508V0Z" 
id="f1_l"
transform="scale(0.001,-0.001)" />

<path d="M340,-13c0,0,-73,0,-129,20C211,7,155,27,86,74l22,217c0,0,156,-103,245,-103c0,0,64,0,112,45c0,0,47,46,47,107c0,0,0,68,-47,113c0,0,-48,46,-121,46c0,0,-85,0,-184,-42l48,495H681V777H393L382,665c0,0,163,0,251,-95c0,0,88,-95,88,-224c0,0,0,-146,-113,-253C608,93,494,-13,340,-13Z" 
id="f1_p"
transform="scale(0.001,-0.001)" />

<path d="M44,-281L425,1053H537L156,-281Z" 
id="f1_j"
transform="scale(0.001,-0.001)" />

<path d="M75,0L400,413c0,0,71,91,101,149c0,0,30,58,30,109c0,0,0,55,-36,91c0,0,-36,36,-91,36c0,0,-63,0,-91,-45c0,0,-28,-46,-34,-142H67c0,0,0,173,102,268c0,0,102,95,253,95c0,0,140,0,229,-82c0,0,89,-82,89,-209c0,0,0,-125,-104,-276L580,324c0,0,-34,-50,-85,-114L468,178H740V0Z" 
id="f1_m"
transform="scale(0.001,-0.001)" />

<path d="M577,-14c0,0,-243,0,-379,132C198,118,63,250,63,488c0,0,0,258,130,391c0,0,131,132,387,132c0,0,156,0,335,-38l5,-218H871L848,884c0,0,-52,32,-121,50c0,0,-69,17,-141,17c0,0,-191,0,-279,-112c0,0,-88,-113,-88,-349c0,0,0,-217,92,-332c0,0,92,-115,268,-115c0,0,85,0,160,20c0,0,76,21,120,55l27,149h49L930,32c0,0,-164,-46,-353,-46Z" 
id="f2_13"
transform="scale(0.001,-0.001)" />

<path d="M377,45c0,0,99,0,147,73c0,0,47,73,47,237c0,0,0,161,-47,233c0,0,-47,72,-147,72c0,0,-97,0,-141,-69c0,0,-44,-69,-44,-236c0,0,0,-169,45,-240c0,0,44,-70,140,-70Zm0,-59c0,0,-158,0,-238,94c0,0,-81,95,-81,274c0,0,0,178,81,272c0,0,80,94,244,94c0,0,160,0,241,-92c0,0,82,-92,82,-274c0,0,0,-368,-329,-368Z" 
id="f2_2b"
transform="scale(0.001,-0.001)" />

<path d="M31,0V33l88,19V649L31,668v33H235l7,-87c0,0,44,37,121,71c0,0,76,35,121,35h11V530H463l-43,82c0,0,-37,0,-88,-10c0,0,-52,-10,-89,-26V52L363,33V0Z" 
id="f2_2e"
transform="scale(0.001,-0.001)" />

<path d="M439,0V33l93,19V500c0,0,0,62,-30,97c0,0,-31,36,-94,36c0,0,-67,0,-165,-22V52L338,33V0H35V33l84,19V649L35,668v33H235l7,-57c0,0,57,33,122,54c0,0,65,22,108,22c0,0,91,0,137,-53c0,0,47,-53,47,-154V52L741,33V0Z" 
id="f2_2a"
transform="scale(0.001,-0.001)" />

<path d="M495,413c0,0,0,133,-34,190c0,0,-34,57,-105,57c0,0,-78,0,-119,-63c0,0,-42,-62,-42,-184ZM374,-14c0,0,-163,0,-239,87c0,0,-75,88,-75,283c0,0,0,183,77,273c0,0,76,91,219,91c0,0,269,0,269,-306V353H194V340c0,0,0,-103,23,-160c0,0,22,-57,70,-87c0,0,47,-29,124,-29c0,0,40,0,96,6c0,0,55,7,91,15V43C598,43,562,20,500,3c0,0,-61,-17,-126,-17Z" 
id="f2_21"
transform="scale(0.001,-0.001)" />

<path d="M382,45c0,0,188,0,188,314c0,0,0,143,-47,213c0,0,-46,69,-141,69c0,0,-87,0,-146,-24V58c0,0,67,-13,146,-13ZM25,-325v35l88,18V649L34,668v33H231l1,-41c0,0,31,27,84,43c0,0,53,17,107,17c0,0,134,0,208,-94c0,0,73,-93,73,-267c0,0,0,-178,-80,-276c0,0,-80,-97,-232,-97c0,0,-84,0,-160,16c0,0,4,-53,4,-84V-272l123,-18v-35Z" 
id="f2_2c"
transform="scale(0.001,-0.001)" />

<path d="M32,0V33L151,52V649L52,668v33H275V52L395,33V0ZM201,850c0,0,-32,0,-56,24c0,0,-24,24,-24,56c0,0,0,34,24,58c0,0,24,24,56,24c0,0,34,0,58,-24c0,0,24,-24,24,-58c0,0,0,-32,-24,-56c0,0,-24,-24,-58,-24Z" 
id="f2_25"
transform="scale(0.001,-0.001)" />

<path d="M249,-14c0,0,-71,0,-107,42c0,0,-35,42,-35,119V639H15v33l93,29l76,159h47V701H391V639H231V161c0,0,0,-48,22,-73c0,0,22,-24,57,-24c0,0,44,0,106,12V26C416,26,389,8,340,-2c0,0,-49,-12,-91,-12Z" 
id="f2_2g"
transform="scale(0.001,-0.001)" />

<path d="M278,-14c0,0,-52,0,-115,11c0,0,-63,10,-99,23V193H98L134,95c0,0,56,-50,146,-50c0,0,144,0,144,123c0,0,0,91,-114,130l-66,21c0,0,-75,25,-110,50c0,0,-34,26,-53,63c0,0,-18,36,-18,89c0,0,0,92,63,145c0,0,63,54,170,54c0,0,77,0,193,-23V544H454l-32,81c0,0,-39,35,-124,35c0,0,-61,0,-92,-30c0,0,-32,-30,-32,-80c0,0,0,-43,29,-72c0,0,28,-29,86,-48c0,0,110,-38,144,-55c0,0,33,-17,57,-42c0,0,23,-25,36,-57c0,0,13,-32,13,-79c0,0,0,-104,-66,-158c0,0,-66,-53,-195,-53Z" 
id="f2_2f"
transform="scale(0.001,-0.001)" />

<path d="M284,67c0,0,51,0,88,12c0,0,37,12,74,30V358l-98,-3c0,0,-100,-4,-135,-39c0,0,-35,-35,-35,-117c0,0,0,-132,106,-132ZM233,-14c0,0,-179,0,-179,208c0,0,0,70,27,116c0,0,27,46,87,70c0,0,60,24,173,27l105,3V519c0,0,0,72,-26,107c0,0,-27,34,-82,34c0,0,-75,0,-137,-35L176,538H134V691c0,0,121,26,213,26c0,0,115,0,169,-47c0,0,54,-47,54,-144V52L657,33V0H465L451,70c0,0,-85,-84,-218,-84Z" 
id="f2_1x"
transform="scale(0.001,-0.001)" />

<path d="M681,416L504,902L333,416ZM669,0V40L803,60L704,348H310L210,60L344,40V0H15V40L128,60l341,949H611L965,60L1092,40V0Z" 
id="f2_11"
transform="scale(0.001,-0.001)" />

<path d="M460,-325c0,0,-148,79,-231,172c0,0,-84,93,-123,217c0,0,-39,126,-39,304c0,0,0,178,39,303c0,0,39,125,122,217c0,0,82,93,232,172V997c0,0,-91,-52,-145,-134c0,0,-54,-81,-79,-190c0,0,-25,-109,-25,-305c0,0,0,-194,26,-309c0,0,26,-114,82,-193c0,0,56,-79,141,-128v-63Z" 
id="f2_c"
transform="scale(0.001,-0.001)" />

<path d="M134,0V40L339,60V876L137,804v39l292,166h39V60L672,40V0Z" 
id="f2_l"
transform="scale(0.001,-0.001)" />

<path d="M377,45c0,0,99,0,145,108c0,0,46,109,46,352c0,0,0,240,-45,345c0,0,-46,106,-146,106c0,0,-97,0,-139,-100c0,0,-43,-99,-43,-351c0,0,0,-254,44,-357c0,0,43,-103,138,-103Zm0,-59c0,0,-158,0,-238,132c0,0,-81,133,-81,386c0,0,0,249,81,380c0,0,80,132,244,132c0,0,159,0,241,-130c0,0,82,-130,82,-382c0,0,0,-518,-329,-518Z" 
id="f2_k"
transform="scale(0.001,-0.001)" />

<path d="M58,-234v58c0,0,131,42,131,125c0,0,0,15,-11,27c0,0,-11,12,-38,25C140,1,89,27,89,75c0,0,0,40,25,61c0,0,26,21,65,21c0,0,48,0,77,-34c0,0,30,-34,30,-86c0,0,0,-101,-60,-170c0,0,-59,-69,-168,-101Z" 
id="f2_g"
transform="scale(0.001,-0.001)" />

<path d="M49,-325v63c0,0,85,49,140,128c0,0,56,79,83,194c0,0,26,115,26,308c0,0,0,196,-25,305c0,0,-25,109,-79,190c0,0,-54,82,-145,134v63c0,0,149,-80,232,-172c0,0,83,-92,122,-217c0,0,39,-125,39,-303c0,0,0,-177,-39,-303c0,0,-39,-125,-122,-217c0,0,-83,-93,-232,-173Z" 
id="f2_d"
transform="scale(0.001,-0.001)" />

<path d="M536,63c0,0,127,0,191,54c0,0,63,54,63,168c0,0,0,105,-70,154c0,0,-70,49,-225,49H316V67c0,0,103,-4,220,-4ZM480,555c0,0,121,0,178,48c0,0,57,48,57,155c0,0,0,91,-58,133c0,0,-57,42,-186,42H316V555ZM554,-4L235,0H44V40L172,60V941L44,960v40H501c0,0,191,0,279,-56c0,0,88,-56,88,-179c0,0,0,-88,-55,-149c0,0,-54,-62,-151,-83c0,0,135,-14,209,-79c0,0,73,-65,73,-166c0,0,0,-144,-99,-219C845,69,745,-4,554,-4Z" 
id="f2_12"
transform="scale(0.001,-0.001)" />

<path d="M350,-14c0,0,-142,0,-253,31L89,228h49L172,87c0,0,32,-18,78,-29c0,0,46,-11,88,-11c0,0,118,0,173,56c0,0,56,55,56,187c0,0,0,93,-24,140c0,0,-24,47,-76,70c0,0,-52,22,-140,22c0,0,-68,0,-133,-18H122v496H630V886H189V567c0,0,81,18,173,18c0,0,173,0,258,-71c0,0,84,-71,84,-216c0,0,0,-151,-92,-232c0,0,-91,-80,-262,-80Z" 
id="f2_p"
transform="scale(0.001,-0.001)" />

<path d="M67,0V109L206,235c0,0,133,118,196,190c0,0,63,72,90,149c0,0,27,77,27,177c0,0,0,97,-44,148c0,0,-44,50,-144,50c0,0,-39,0,-81,-10c0,0,-42,-11,-74,-29L150,787H101V980c0,0,135,32,230,32c0,0,164,0,247,-68c0,0,82,-69,82,-193c0,0,0,-84,-32,-158c0,0,-33,-75,-100,-148c0,0,-67,-74,-222,-206c0,0,-67,-57,-141,-125H680V0Z" 
id="f2_m"
transform="scale(0.001,-0.001)" />

<path d="M476,327V830h-4L114,327ZM476,0V220H30v99l488,686h86V327H740V220H604V0Z" 
id="f2_o"
transform="scale(0.001,-0.001)" />

<path d="M617,0L251,860V60L385,40V0H44V40L172,60V941L44,960v40H347L672,239l355,761h287V960L1185,941V60L1314,40V0H908V40l134,20V859L643,0Z" 
id="f2_1d"
transform="scale(0.001,-0.001)" />

<path d="M13,0V34L95,46L325,350L122,649L40,668v33H357V668L264,648L399,446L554,649l-96,19v33H710V668L630,652L433,397L663,50L745,34V0H427V34l94,17L359,299L169,50L266,34V0Z" 
id="f2_2k"
transform="scale(0.001,-0.001)" />

<path d="M431,0V33L535,52V499c0,0,0,62,-32,96c0,0,-32,33,-95,33c0,0,-66,0,-163,-22V52L350,33V0H32V33l89,19V649L32,668v33H237l6,-57c0,0,56,32,119,54c0,0,62,22,110,22c0,0,52,0,95,-20c0,0,44,-19,66,-62c0,0,57,32,134,57c0,0,77,25,128,25c0,0,179,0,179,-207V52l90,-19V0H846V33L950,52V499c0,0,0,129,-119,129c0,0,-19,0,-45,-3c0,0,-26,-3,-52,-7c0,0,-25,-4,-49,-8c0,0,-23,-5,-39,-8c0,0,13,-41,13,-89V52L764,33V0Z" 
id="f2_29"
transform="scale(0.001,-0.001)" />

<path d="M289,-14c0,0,-179,0,-179,205V649L20,668v33H233V200c0,0,0,-128,120,-128c0,0,92,0,173,23V649L420,668v33H649V52L738,33V0H533l-6,57C527,57,474,28,405,7c0,0,-69,-21,-116,-21Z" 
id="f2_2h"
transform="scale(0.001,-0.001)" />

<path d="M383,64c0,0,85,0,152,28V645c0,0,-67,13,-152,13c0,0,-194,0,-194,-314c0,0,0,-141,48,-211c0,0,48,-69,146,-69ZM342,-14c0,0,-287,0,-287,358c0,0,0,184,82,280c0,0,81,96,239,96c0,0,81,0,163,-18c0,0,-4,25,-4,124v182l-118,18v34H659V52L745,33V0H548l-9,52c0,0,-84,-66,-197,-66Z" 
id="f2_20"
transform="scale(0.001,-0.001)" />

<path d="M360,-14L72,649L0,668v33H327V668L216,648L420,164L615,649L504,668v33H764V668L697,652L416,-14Z" 
id="f2_2i"
transform="scale(0.001,-0.001)" />

<path d="M31,0V33L150,52v956L31,1026v34H274V52L394,33V0Z" 
id="f2_28"
transform="scale(0.001,-0.001)" />

<path d="M410,-14c0,0,-86,0,-175,14C235,0,145,14,81,38V307h66L181,146c0,0,31,-37,94,-62c0,0,64,-24,132,-24c0,0,214,0,214,177c0,0,0,55,-41,93c0,0,-41,38,-128,68c0,0,-128,42,-185,68c0,0,-56,27,-95,63c0,0,-38,36,-62,87c0,0,-23,51,-23,125c0,0,0,132,90,201c0,0,90,69,263,69c0,0,125,0,278,-32V741H651L618,878c0,0,-76,56,-178,56c0,0,-92,0,-141,-34c0,0,-49,-34,-49,-104c0,0,0,-50,41,-86c0,0,41,-35,128,-63c0,0,171,-56,235,-97c0,0,64,-41,97,-103c0,0,34,-61,34,-143c0,0,0,-318,-375,-318Z" 
id="f3_1j"
transform="scale(0.001,-0.001)" />

<path d="M26,0V54L154,74V926L26,945v55H878V746H810L786,908c0,0,-83,10,-241,10H389V551H651l23,111h67V355H674L651,468H389V82H578c0,0,193,0,252,12l43,185h68L927,0Z" 
id="f3_15"
transform="scale(0.001,-0.001)" />

<path d="M608,-14c0,0,-251,0,-392,133C216,119,75,252,75,488c0,0,0,257,134,390c0,0,135,133,398,133c0,0,174,0,361,-50l4,-240H905L884,866c0,0,-98,67,-229,67c0,0,-173,0,-253,-108c0,0,-80,-108,-80,-334c0,0,0,-209,84,-319c0,0,83,-109,243,-109c0,0,84,0,147,22c0,0,63,22,99,53l24,164h68L982,48C982,48,915,22,808,4C808,4,700,-14,608,-14Z" 
id="f3_13"
transform="scale(0.001,-0.001)" />

<path d="M231,0V54L390,74V921H352c0,0,-171,0,-240,-15L92,721H24v279H996V721H927L907,906c0,0,-62,14,-245,14H626V74L785,54V0Z" 
id="f3_1k"
transform="scale(0.001,-0.001)" />

<path d="M51,0V55L180,74V926L51,946v54H543V946L415,926V74L543,55V0Z" 
id="f3_19"
transform="scale(0.001,-0.001)" />

<path d="M595,60c0,0,141,0,206,102c0,0,65,102,65,340c0,0,0,236,-65,335c0,0,-65,100,-206,100c0,0,-142,0,-207,-100c0,0,-66,-99,-66,-335c0,0,0,-239,66,-340c0,0,65,-102,207,-102Zm0,-74c0,0,-253,0,-387,130C208,116,75,246,75,501c0,0,0,510,520,510c0,0,256,0,387,-129c0,0,132,-130,132,-381c0,0,0,-254,-133,-385C981,116,848,-14,595,-14Z" 
id="f3_1f"
transform="scale(0.001,-0.001)" />

<path d="M868,0L251,804V74L385,54V0H29V54L157,74V926L29,945v55H371L862,361V926L727,945v55h356V945L955,926V0Z" 
id="f3_1e"
transform="scale(0.001,-0.001)" />

<path d="M-12,307v90H776V307Z" 
id="f4_4y"
transform="scale(0.001,-0.001)" />

<path d="M519,79c0,0,97,0,153,42c0,0,57,42,83,131c0,0,26,89,26,248c0,0,0,216,-79,317c0,0,-79,101,-257,101H389V85c0,0,72,-6,130,-6ZM533,-2L198,0H27V54L155,74V926L27,945v55H502c0,0,269,0,398,-122c0,0,129,-122,129,-372c0,0,0,-258,-123,-383C906,123,783,-2,533,-2Z" 
id="f3_14"
transform="scale(0.001,-0.001)" />

<path d="M490,61c0,0,93,0,170,74c0,0,77,73,126,212c0,0,50,139,50,281c0,0,0,142,-57,223c0,0,-57,82,-158,82c0,0,-91,0,-168,-75c0,0,-76,-75,-125,-216c0,0,-48,-142,-48,-281c0,0,0,-141,55,-220c0,0,55,-80,155,-80ZM751,-246c0,0,-65,0,-112,18c0,0,-47,18,-87,58c0,0,-40,40,-110,157c0,0,-115,7,-203,59c0,0,-88,53,-136,144c0,0,-48,90,-48,201c0,0,0,180,73,323c0,0,73,143,206,220c0,0,132,77,305,77c0,0,123,0,219,-51c0,0,96,-51,149,-144c0,0,53,-93,53,-211c0,0,0,-138,-45,-259c0,0,-46,-121,-132,-207C883,139,797,53,679,15l24,-36c0,0,86,-136,167,-136c0,0,15,0,66,6l10,-59c0,0,-33,-13,-94,-25c0,0,-62,-11,-101,-11Z" 
id="f5_1h"
transform="scale(0.001,-0.001)" />

<path d="M219,-17c0,0,-75,0,-118,40c0,0,-42,41,-42,117c0,0,0,14,5,48c0,0,5,34,78,446L56,652l10,49H354L278,278c0,0,-17,-86,-17,-117c0,0,0,-72,68,-72c0,0,48,0,107,53c0,0,60,54,86,117l79,442H800L689,67L771,49L761,0H497l6,132C503,132,387,-17,219,-17Z" 
id="f5_2h"
transform="scale(0.001,-0.001)" />

<path d="M254,378c0,0,91,10,150,67c0,0,59,56,59,132c0,0,0,31,-16,47c0,0,-15,15,-36,15c0,0,-51,0,-96,-76c0,0,-44,-76,-61,-185ZM307,-14c0,0,-132,0,-202,66c0,0,-69,66,-69,194c0,0,0,128,54,238c0,0,55,110,144,173c0,0,90,63,186,63c0,0,103,0,164,-42c0,0,61,-41,61,-111c0,0,0,-67,-50,-124c0,0,-49,-57,-142,-93c0,0,-93,-37,-211,-46c0,0,-3,-15,-3,-50c0,0,0,-176,135,-176c0,0,55,0,102,21c0,0,47,22,88,49l33,-47c0,0,-66,-55,-143,-85c0,0,-77,-30,-147,-30Z" 
id="f5_21"
transform="scale(0.001,-0.001)" />

<path d="M213,-14c0,0,-57,0,-123,13C90,-1,24,11,-7,26L26,220H75L87,122c0,0,47,-67,132,-67c0,0,61,0,97,32c0,0,37,33,37,81c0,0,0,29,-20,53c0,0,-20,24,-61,48l-50,29c0,0,-82,46,-117,96c0,0,-34,51,-34,113c0,0,0,213,281,213c0,0,88,0,196,-24L515,516H466l-9,82c0,0,-16,19,-47,35c0,0,-30,16,-68,16c0,0,-57,0,-84,-25c0,0,-26,-25,-26,-66c0,0,0,-29,22,-55c0,0,22,-25,97,-67c0,0,70,-39,101,-68c0,0,31,-29,48,-64c0,0,17,-35,17,-82c0,0,0,-114,-76,-175c0,0,-76,-61,-228,-61Z" 
id="f5_2f"
transform="scale(0.001,-0.001)" />

<path d="M221,-14c0,0,-82,0,-127,38C94,24,50,64,50,138c0,0,0,35,13,108l69,378H46l8,48l106,29L264,860H373L345,701H463L449,624H331L263,244c0,0,-12,-61,-12,-89c0,0,0,-40,20,-58c0,0,20,-18,48,-18c0,0,26,0,82,20L421,46C421,46,384,20,328,3c0,0,-56,-17,-107,-17Z" 
id="f5_2g"
transform="scale(0.001,-0.001)" />

<path d="M39,0L151,634L83,652l8,49H363L251,67L340,49L332,0ZM304,831c0,0,-48,0,-82,33c0,0,-33,33,-33,82c0,0,0,48,34,81c0,0,34,33,81,33c0,0,47,0,81,-33c0,0,33,-33,33,-81c0,0,0,-47,-33,-81c0,0,-33,-34,-81,-34Z" 
id="f5_25"
transform="scale(0.001,-0.001)" />

<path d="M320,60c0,0,48,0,93,55c0,0,44,55,70,149c0,0,27,93,27,202c0,0,0,179,-94,179c0,0,-47,0,-93,-56c0,0,-45,-57,-73,-152c0,0,-28,-95,-28,-199c0,0,0,-85,27,-132c0,0,28,-46,71,-46ZM303,-14c0,0,-127,0,-203,79c0,0,-76,80,-76,214c0,0,0,121,52,222c0,0,52,102,146,160c0,0,94,59,211,59c0,0,126,0,203,-80c0,0,76,-80,76,-214c0,0,0,-121,-53,-222C659,204,607,102,514,44c0,0,-94,-58,-211,-58Z" 
id="f5_2b"
transform="scale(0.001,-0.001)" />

<path d="M31,0L142,634L75,652l10,49H334L328,571c0,0,116,149,284,149c0,0,74,0,117,-40c0,0,43,-39,43,-111c0,0,0,-39,-19,-136L689,67L775,49L765,0H477l77,424c0,0,16,87,16,117c0,0,0,72,-68,72c0,0,-47,0,-106,-52c0,0,-59,-52,-87,-118L230,0Z" 
id="f5_2a"
transform="scale(0.001,-0.001)" />

<path d="M29,0L140,634L73,652l10,49H327L325,576c0,0,54,73,114,108c0,0,61,36,135,36c0,0,67,0,104,-40c0,0,38,-39,39,-108c0,0,105,148,252,148c0,0,66,0,104,-42c0,0,39,-41,39,-116c0,0,0,-27,-12,-98L1029,67l86,-18L1106,0H818l76,424c0,0,16,87,16,117c0,0,0,72,-54,72c0,0,-26,0,-61,-30c0,0,-36,-30,-64,-76c0,0,-28,-46,-35,-87L622,0H423l76,424c0,0,16,87,16,117c0,0,0,72,-55,72c0,0,-36,0,-81,-50c0,0,-46,-49,-72,-120L228,0Z" 
id="f5_29"
transform="scale(0.001,-0.001)" />

<path d="M326,57c0,0,51,0,97,53c0,0,45,54,72,144c0,0,27,90,27,184c0,0,0,78,-25,123c0,0,-25,45,-65,45c0,0,-27,0,-62,-28c0,0,-36,-29,-68,-75L230,93c0,0,15,-14,44,-25c0,0,29,-11,52,-11Zm9,-74c0,0,-81,0,-166,14C169,-3,84,9,20,35L189,994l-68,18l8,48H401L345,739c0,0,-15,-87,-32,-145c0,0,46,61,100,93c0,0,54,33,110,33c0,0,89,0,142,-67c0,0,53,-67,53,-183c0,0,0,-131,-51,-245C667,225,616,110,529,46c0,0,-87,-63,-194,-63Z" 
id="f5_1y"
transform="scale(0.001,-0.001)" />

<path d="M31,0L143,634L56,652l8,49H344L327,550c0,0,41,80,99,125c0,0,59,45,118,45c0,0,36,0,62,-8L562,461H521L489,563c0,0,-56,0,-98,-28c0,0,-42,-28,-81,-90L232,0Z" 
id="f5_2e"
transform="scale(0.001,-0.001)" />

<path d="M-18,0L6,140c0,0,289,223,403,370c0,0,114,146,114,273c0,0,0,80,-37,116c0,0,-38,37,-98,37c0,0,-66,0,-119,-39L212,753H147l40,227c0,0,63,13,121,23c0,0,59,9,126,9c0,0,140,0,217,-58c0,0,78,-57,78,-158c0,0,0,-73,-29,-143c0,0,-29,-69,-86,-136c0,0,-56,-66,-152,-143c0,0,-96,-76,-319,-221H645L615,0Z" 
id="f5_m"
transform="scale(0.001,-0.001)" />

<path d="M415,343l51,288c0,0,10,51,42,172L128,343ZM355,0l35,205H-23L-2,319l568,686H718L601,343H718L693,205H576L541,0Z" 
id="f5_o"
transform="scale(0.001,-0.001)" />

<path d="M399,482c0,0,58,0,137,29c0,0,9,73,9,148c0,0,0,129,-31,203c0,0,-31,75,-84,75c0,0,-66,0,-107,-79c0,0,-40,-79,-40,-207c0,0,0,-85,30,-127c0,0,31,-42,86,-42ZM243,-14c0,0,-120,0,-221,31L63,245h65l6,-145c0,0,49,-38,119,-38c0,0,93,0,165,97c0,0,72,98,106,277c0,0,-97,-47,-194,-47c0,0,-116,0,-180,69c0,0,-65,70,-65,193c0,0,0,101,44,184c0,0,45,83,126,129c0,0,81,47,184,47c0,0,135,0,216,-96c0,0,82,-96,82,-258c0,0,0,-184,-65,-338C672,319,607,164,492,75c0,0,-115,-89,-249,-89Z" 
id="f5_t"
transform="scale(0.001,-0.001)" />

<path d="M292,-14c0,0,-129,0,-199,69c0,0,-71,69,-71,191c0,0,0,138,55,246c0,0,55,108,151,168c0,0,97,60,208,60c0,0,54,0,117,-10c0,0,63,-10,103,-24L619,471H565L555,599c0,0,-40,44,-109,44c0,0,-59,0,-111,-52c0,0,-53,-53,-83,-142c0,0,-30,-90,-30,-195c0,0,0,-83,33,-130c0,0,33,-46,96,-46c0,0,56,0,102,20c0,0,46,21,89,51l32,-48c0,0,-61,-54,-136,-85c0,0,-75,-30,-146,-30Z" 
id="f5_1z"
transform="scale(0.001,-0.001)" />

<path d="M304,96c0,0,30,0,67,30c0,0,36,30,65,74l74,420c0,0,-33,25,-92,25c0,0,-55,0,-102,-52c0,0,-47,-53,-75,-143c0,0,-27,-90,-27,-187c0,0,0,-77,26,-122c0,0,26,-45,64,-45ZM215,-14c0,0,-93,0,-145,66c0,0,-52,68,-52,187c0,0,0,130,54,242c0,0,55,111,152,175c0,0,98,64,215,64c0,0,103,0,187,-35l61,28h40L614,67L695,43L689,0H430l-3,104c0,0,-44,-55,-99,-87c0,0,-56,-31,-113,-31Z" 
id="f5_1x"
transform="scale(0.001,-0.001)" />

<path d="M-32,-329c0,0,-38,0,-61,2c0,0,-22,3,-59,12l31,180h45l15,-94c0,0,19,-17,52,-17c0,0,44,0,97,51c0,0,53,52,136,192L64,634L19,652l8,49H253L366,224L501,448c0,0,20,33,34,72c0,0,14,39,14,62c0,0,0,20,-6,32c0,0,-7,12,-17,20c0,0,-11,9,-44,18l9,49H663c0,0,20,-17,20,-47c0,0,0,-67,-61,-164L295,-43c0,0,-72,-118,-121,-173c0,0,-49,-56,-99,-85c0,0,-51,-28,-107,-28Z" 
id="f5_2l"
transform="scale(0.001,-0.001)" />

<path d="M360,60c0,0,65,0,105,77c0,0,40,78,40,205c0,0,0,90,-34,132c0,0,-35,41,-88,41c0,0,-53,0,-126,-30c0,0,-12,-86,-12,-175c0,0,0,-125,30,-187c0,0,29,-63,85,-63ZM342,-14c0,0,-140,0,-215,90c0,0,-75,91,-75,257c0,0,0,180,67,337c0,0,67,157,184,249c0,0,116,93,251,93c0,0,108,0,210,-32L724,753H659l-7,144c0,0,-48,39,-105,39c0,0,-96,0,-170,-103c0,0,-73,-102,-108,-279c0,0,102,54,196,54c0,0,115,0,177,-65c0,0,62,-65,62,-182c0,0,0,-108,-44,-194C660,167,615,81,533,33c0,0,-82,-47,-191,-47Z" 
id="f5_q"
transform="scale(0.001,-0.001)" />

<path d="M21,0L196,992l-68,18l9,50H409L289,378L551,634l-64,17l8,50H752l-8,-50L675,634L494,468L659,67L719,49L711,0H477L353,338L272,286L222,0Z" 
id="f5_27"
transform="scale(0.001,-0.001)" />

<path d="M30,0L204,992l-67,18l8,50H417L354,714L330,595l-5,-21c0,0,115,146,285,146c0,0,73,0,117,-40c0,0,44,-40,44,-109c0,0,0,-38,-13,-108L687,67L774,49L764,0H476l76,424c0,0,16,87,16,117c0,0,0,72,-67,72c0,0,-47,0,-106,-52c0,0,-59,-52,-88,-118L228,0Z" 
id="f5_24"
transform="scale(0.001,-0.001)" />

<path d="M64,0V141c0,0,64,68,119,123c0,0,119,118,174,185c0,0,56,68,81,140c0,0,26,72,26,165c0,0,0,81,-40,131c0,0,-39,50,-105,50c0,0,-46,0,-74,-10c0,0,-27,-10,-50,-29L163,751H98V979c0,0,59,13,116,23c0,0,58,9,125,9c0,0,165,0,252,-68c0,0,88,-68,88,-193c0,0,0,-78,-26,-142c0,0,-26,-64,-83,-124c0,0,-56,-61,-224,-197c0,0,-64,-52,-139,-119H698V0Z" 
id="f3_m"
transform="scale(0.001,-0.001)" />

<path d="M435,350V646c0,0,0,84,7,158L145,350ZM435,0V198H21V319l450,686H636V350H736V198H636V0Z" 
id="f3_o"
transform="scale(0.001,-0.001)" />

<path d="M191,-20c0,0,-51,0,-88,34c0,0,-36,36,-36,88c0,0,0,52,36,88c0,0,36,36,88,36c0,0,51,0,88,-36c0,0,36,-36,36,-88c0,0,0,-51,-36,-87c0,0,-36,-35,-88,-35Z" 
id="f3_i"
transform="scale(0.001,-0.001)" />

<path d="M529,65c0,0,183,0,270,108c0,0,87,108,87,334c0,0,0,210,-113,318c0,0,-113,108,-322,108H316V71c0,0,90,-6,213,-6Zm0,-67L172,0H44V40L172,60V941L44,960v40H498c0,0,277,0,411,-123c0,0,133,-124,133,-371c0,0,0,-251,-129,-380C913,126,785,-2,529,-2Z" 
id="f2_14"
transform="scale(0.001,-0.001)" />

<path d="M442,0V33l93,19V504c0,0,0,129,-124,129c0,0,-70,0,-168,-22V52L338,33V0H31V33l88,19v956L15,1026v34H243V756c0,0,0,-77,-5,-112c0,0,54,31,122,53c0,0,68,23,115,23c0,0,91,0,137,-53c0,0,47,-53,47,-154V52L744,33V0Z" 
id="f2_24"
transform="scale(0.001,-0.001)" />

<path d="M399,-14c0,0,-341,0,-341,370c0,0,0,175,87,269c0,0,87,95,249,95c0,0,101,0,220,-23V501H573L541,625c0,0,-62,35,-149,35c0,0,-200,0,-200,-304c0,0,0,-158,61,-225c0,0,61,-67,189,-67c0,0,109,0,189,24V43C631,43,595,16,530,1c0,0,-64,-15,-131,-15Z" 
id="f2_1z"
transform="scale(0.001,-0.001)" />

<path d="M178,0L615,886H176L150,764H101v236H720V943L274,0Z" 
id="f2_r"
transform="scale(0.001,-0.001)" />

<path d="M350,-14c0,0,-142,0,-269,31L73,228h49L156,87c0,0,29,-16,82,-28c0,0,54,-12,100,-12c0,0,117,0,173,54c0,0,56,53,56,178c0,0,0,99,-52,150c0,0,-51,51,-159,56l-107,6v61l107,7c0,0,84,5,124,52c0,0,41,48,41,145c0,0,0,101,-44,147c0,0,-44,45,-139,45c0,0,-40,0,-83,-10c0,0,-43,-11,-76,-29L153,786H104V979c0,0,74,19,127,26c0,0,54,6,107,6c0,0,321,0,321,-246c0,0,0,-104,-57,-165c0,0,-57,-62,-162,-77c0,0,136,-16,200,-78c0,0,64,-62,64,-173c0,0,0,-135,-92,-211c0,0,-93,-75,-262,-75Z" 
id="f2_n"
transform="scale(0.001,-0.001)" />

<path d="M0,356v74H784V356Z" 
id="f6_h"
transform="scale(0.001,-0.001)" />

<path d="M0,-123V1415H525v-72H72V-123Z" 
id="f6_4r"
transform="scale(0.001,-0.001)" />

<path d="M478,-123V1343H26v72H550V-123Z" 
id="f6_57"
transform="scale(0.001,-0.001)" />

<path d="M0,-123V1415H72V-123Z" 
id="f6_4s"
transform="scale(0.001,-0.001)" />

<path d="M0,-123V1415H72V-123Z" 
id="f6_58"
transform="scale(0.001,-0.001)" />

<path d="M0,-123V1415H72V-51H525v-72Z" 
id="f6_4t"
transform="scale(0.001,-0.001)" />

<path d="M26,-123v72H478V1415h72V-123Z" 
id="f6_59"
transform="scale(0.001,-0.001)" />

<path d="M148,-329c0,0,-58,0,-114,13v151H69l24,-71c0,0,23,-17,64,-17c0,0,39,0,72,22c0,0,33,23,60,67c0,0,27,44,68,157L90,649L19,668v33H344V668L233,648L423,158L606,649L497,668v33H758V668L685,652L411,-43c0,0,-48,-124,-84,-177c0,0,-36,-54,-79,-82c0,0,-44,-27,-100,-27Z" 
id="f2_2l"
transform="scale(0.001,-0.001)" />

<path d="M64,0V34L168,59V639H47v36l121,29v49c0,0,0,155,61,239c0,0,62,84,173,84c0,0,58,0,107,-15V908H472l-33,92c0,0,-26,16,-62,16c0,0,-47,0,-66,-42c0,0,-19,-42,-19,-157V701H478V639H292V59L443,34V0Z" 
id="f2_22"
transform="scale(0.001,-0.001)" />

<path d="M383,64c0,0,44,0,87,7c0,0,43,7,65,17V645c0,0,-67,13,-152,13c0,0,-194,0,-194,-309c0,0,0,-143,48,-214c0,0,47,-71,146,-71Zm56,-389v35l96,18V-77c0,0,0,73,7,124c0,0,-79,-61,-200,-61c0,0,-287,0,-287,362c0,0,0,180,81,276c0,0,81,96,237,96c0,0,84,0,166,-18l67,33h53V-272l77,-18v-35Z" 
id="f2_2d"
transform="scale(0.001,-0.001)" />

<path d="M-12,338v55H777V338Z" 
id="f7_4y"
transform="scale(0.001,-0.001)" />

<path d="M392,152V469H76v77H392V863h77V546H787V469H469V152Z" 
id="f2_f"
transform="scale(0.001,-0.001)" />

<path d="M41,0V34L426,641H261c0,0,-42,0,-80,-7c0,0,-39,-7,-54,-19L104,515H69V701H586V665L201,60H407c0,0,42,0,89,10c0,0,47,10,66,25l39,147h35L617,0Z" 
id="f2_2m"
transform="scale(0.001,-0.001)" />

<path d="M76,316v76H787V316Zm0,306v76H787V622Z" 
id="f2_x"
transform="scale(0.001,-0.001)" />

<path d="M370,468c0,0,96,0,194,40c0,0,0,229,-45,336c0,0,-45,107,-146,107c0,0,-187,0,-187,-259c0,0,0,-115,45,-169c0,0,45,-55,139,-55ZM312,-14c0,0,-122,0,-223,25V184h48L163,76c0,0,24,-11,65,-20c0,0,40,-9,81,-9c0,0,119,0,183,105c0,0,65,104,71,307c0,0,-113,-62,-230,-62c0,0,-132,0,-208,79c0,0,-76,78,-76,219c0,0,0,151,85,233c0,0,84,83,237,83c0,0,171,0,251,-123c0,0,79,-123,79,-385c0,0,0,-252,-102,-385C599,118,497,-14,312,-14Z" 
id="f2_t"
transform="scale(0.001,-0.001)" />

<path d="M191,-20c0,0,-39,0,-65,25c0,0,-25,27,-25,64c0,0,0,38,26,64c0,0,26,26,64,26c0,0,38,0,64,-26c0,0,26,-26,26,-64c0,0,0,-37,-25,-64c0,0,-26,-25,-65,-25Z" 
id="f2_i"
transform="scale(0.001,-0.001)" />

<path d="M379,60c0,0,59,0,84,64c0,0,24,65,24,231c0,0,0,164,-24,227c0,0,-24,63,-84,63c0,0,-57,0,-80,-60c0,0,-22,-61,-22,-230c0,0,0,-173,23,-234c0,0,22,-61,79,-61Zm-2,-74c0,0,-161,0,-240,91c0,0,-79,91,-79,277c0,0,0,186,80,276c0,0,81,90,245,90c0,0,167,0,245,-93c0,0,78,-93,78,-273c0,0,0,-188,-81,-278c0,0,-81,-90,-248,-90Z" 
id="f3_2b"
transform="scale(0.001,-0.001)" />

<path d="M30,0V49l76,18V992l-72,18v50H322V67L398,49V0Z" 
id="f3_28"
transform="scale(0.001,-0.001)" />

<path d="M287,-18c0,0,-194,0,-194,206V634L23,652v49H309V217c0,0,0,-63,26,-98c0,0,27,-35,76,-35c0,0,57,0,113,25V634l-64,18v49H740V67L809,49V0H536L526,61L475,35c0,0,-104,-53,-188,-53Z" 
id="f3_2h"
transform="scale(0.001,-0.001)" />

<path d="M327,-14c0,0,-101,0,-156,45c0,0,-55,45,-55,131V624H25v48l108,29l87,159H332V701H480V624H332V176c0,0,0,-49,20,-73c0,0,20,-25,53,-25c0,0,40,0,97,12V26c0,0,-22,-15,-76,-27c0,0,-55,-13,-99,-13Z" 
id="f3_2g"
transform="scale(0.001,-0.001)" />

<path d="M34,0V49l76,18V634L38,652v49H325V67L402,49V0ZM217,831c0,0,-48,0,-81,33c0,0,-34,33,-34,82c0,0,0,48,34,81c0,0,34,33,81,33c0,0,48,0,81,-33c0,0,33,-33,33,-81c0,0,0,-47,-33,-81c0,0,-32,-34,-81,-34Z" 
id="f3_25"
transform="scale(0.001,-0.001)" />

<path d="M41,0V49l69,18V634L41,652v49H313l11,-61l50,26c0,0,105,54,188,54c0,0,194,0,194,-207V67L827,49V0H478V49l63,18V484c0,0,0,63,-27,98c0,0,-26,35,-75,35c0,0,-57,0,-114,-25V67L389,49V0Z" 
id="f3_2a"
transform="scale(0.001,-0.001)" />

<path d="M248,-20c0,0,-52,0,-87,34c0,0,-36,36,-36,88c0,0,0,52,36,88c0,0,35,36,87,36c0,0,52,0,88,-36c0,0,36,-36,36,-88c0,0,0,-51,-36,-87c0,0,-35,-35,-88,-35Zm0,488c0,0,-52,0,-87,36c0,0,-36,36,-36,88c0,0,0,52,35,88c0,0,35,36,88,36c0,0,53,0,89,-36c0,0,35,-37,35,-88c0,0,0,-51,-36,-87c0,0,-35,-37,-88,-37Z" 
id="f3_u"
transform="scale(0.001,-0.001)" />

<path d="M394,460c0,0,126,0,186,57c0,0,60,57,60,187c0,0,0,123,-57,176c0,0,-58,53,-194,53H316V460ZM54,0V40L172,60V941L44,960v40H421c0,0,368,0,368,-295c0,0,0,-153,-93,-233c0,0,-93,-80,-267,-80H316V60L475,40V0Z" 
id="f2_1g"
transform="scale(0.001,-0.001)" />

<path d="M377,45c0,0,100,0,147,52c0,0,47,52,47,174c0,0,0,119,-46,173c0,0,-47,54,-148,54c0,0,-98,0,-141,-51c0,0,-44,-51,-44,-176c0,0,0,-126,44,-176c0,0,44,-50,141,-50Zm2,518c0,0,84,0,123,46c0,0,39,46,39,148c0,0,0,102,-40,151c0,0,-41,48,-122,48c0,0,-79,0,-118,-47c0,0,-38,-47,-38,-152c0,0,0,-104,37,-149c0,0,38,-45,119,-45ZM377,-14c0,0,-319,0,-319,285c0,0,0,99,48,164c0,0,48,66,129,96c0,0,-65,30,-106,87c0,0,-40,56,-40,139c0,0,0,123,75,191c0,0,76,68,219,68c0,0,139,0,216,-67c0,0,76,-68,76,-192c0,0,0,-82,-40,-139c0,0,-40,-57,-108,-87c0,0,85,-31,132,-98c0,0,47,-67,47,-162c0,0,0,-142,-80,-214c0,0,-80,-71,-249,-71Z" 
id="f2_s"
transform="scale(0.001,-0.001)" />

<path d="M410,45c0,0,90,0,130,58c0,0,40,59,40,193c0,0,0,122,-38,177c0,0,-38,54,-122,54c0,0,-102,0,-217,-37c0,0,0,-227,51,-336c0,0,52,-109,156,-109Zm3,-59c0,0,-169,0,-258,131c0,0,-89,131,-89,377c0,0,0,161,47,278c0,0,47,117,131,178c0,0,85,61,196,61c0,0,109,0,217,-26V813H608L582,915c0,0,-25,13,-67,23c0,0,-41,10,-75,10c0,0,-109,0,-170,-105c0,0,-60,-106,-66,-308c0,0,121,63,244,63c0,0,132,0,201,-74c0,0,69,-74,69,-214c0,0,0,-156,-78,-240c0,0,-79,-84,-227,-84Z" 
id="f2_q"
transform="scale(0.001,-0.001)" />

<path d="M355,0V355H0v72H355V784h72V427H782V355H427V0Z" 
id="f6_f"
transform="scale(0.001,-0.001)" />

<path d="M0,214v74H784V214ZM0,494v72H784V494Z" 
id="f6_x"
transform="scale(0.001,-0.001)" />

<path d="M-5,0L0,40L131,60L286,941L162,960l6,40H568l-6,-40L430,941L275,60L399,40L393,0Z" 
id="f8_19"
transform="scale(0.001,-0.001)" />

<path d="M44,0V40L172,60V941L44,960v40H445V960L316,941V549H787V941L659,960v40h400V960L930,941V60L1059,40V0H659V40L787,60V481H316V60L445,40V0Z" 
id="f2_18"
transform="scale(0.001,-0.001)" />

<path d="M868,0L251,900V60L385,40V0H44V40L172,60V941L44,960v40H347L862,259V941L727,960v40h341V960L940,941V0Z" 
id="f2_1e"
transform="scale(0.001,-0.001)" />

<path d="M327,-14L84,649L1,668v33H335V668L219,648L385,174L554,632h63L786,171L944,649L830,668v33h267V668l-78,-16L784,-14H726L553,448L382,-14Z" 
id="f2_2j"
transform="scale(0.001,-0.001)" />

<path d="M359,-270c0,0,124,0,192,46c0,0,67,47,67,129c0,0,0,43,-26,67c0,0,-26,24,-79,24H242c0,0,-32,-27,-51,-69c0,0,-20,-41,-20,-77c0,0,0,-64,46,-92c0,0,46,-28,142,-28Zm11,561c0,0,81,0,115,47c0,0,34,47,34,141c0,0,0,100,-35,142c0,0,-35,42,-113,42c0,0,-78,0,-114,-43c0,0,-37,-42,-37,-141c0,0,0,-98,36,-143c0,0,36,-45,114,-45ZM359,-329c0,0,-143,0,-218,44c0,0,-75,43,-75,125c0,0,0,39,27,78c0,0,26,38,98,89c0,0,-43,14,-72,48c0,0,-29,35,-29,74L208,262c0,0,-118,55,-118,217c0,0,0,115,73,178c0,0,73,63,211,63c0,0,28,0,71,-6c0,0,44,-6,67,-13l165,83l26,-32L599,644c0,0,50,-56,50,-165c0,0,0,-120,-72,-182c0,0,-73,-62,-208,-62c0,0,-62,0,-114,11L208,148c0,0,2,-13,29,-24c0,0,27,-12,67,-12H512c0,0,113,0,168,-49c0,0,55,-49,55,-134c0,0,0,-79,-44,-137c0,0,-43,-58,-128,-90c0,0,-84,-31,-204,-31Z" 
id="f2_23"
transform="scale(0.001,-0.001)" />

<path d="M376,50c0,0,103,0,149,80c0,0,46,81,46,240c0,0,0,137,-47,204c0,0,-48,67,-148,67c0,0,-44,0,-87,-7c0,0,-44,-8,-63,-17V62c0,0,63,-12,150,-12Zm3,-64c0,0,-64,0,-141,14c0,0,-78,14,-136,37v971L0,1026v34H226V809c0,0,0,-40,-4,-148c0,0,74,59,188,59c0,0,143,0,219,-87c0,0,77,-87,77,-263c0,0,0,-189,-84,-287c0,0,-84,-97,-243,-97Z" 
id="f2_1y"
transform="scale(0.001,-0.001)" />


</defs>
</svg>