<?xml version="1.0" encoding="UTF-8" standalone="no"?>
<!DOCTYPE svg PUBLIC "-//W3C//DTD SVG 1.1//EN"
"http://www.w3.org/Graphics/SVG/1.1/DTD/svg11.dtd">
<svg viewBox="0 0 909 1286" version="1.1" xmlns="http://www.w3.org/2000/svg" xmlns:xlink="http://www.w3.org/1999/xlink">
<defs>
<clipPath id="c0_89"><path d="M162.3,296.8V249.2H333.7v47.6Z" /></clipPath>
<clipPath id="c1_89"><path d="M498.5,299.8V246.6h95v53.2Z" /></clipPath>
<clipPath id="c2_89"><path d="M691,383.3V326.9h93.2v56.4Z" /></clipPath>
<clipPath id="c3_89"><path d="M114.6,460.4V409h161v51.4Z" /></clipPath>
<clipPath id="c4_89"><path d="M125.9,511.3V462.5h29.8v48.8Z" /></clipPath>
<clipPath id="c5_89"><path d="M396.2,511.3V462.5H545v48.8Z" /></clipPath>
<clipPath id="c6_89"><path d="M108,561.9V513.2H260.5v48.7Z" /></clipPath>
<clipPath id="c7_89"><path d="M329.1,616.6V563.4h88.2v53.2Z" /></clipPath>
<clipPath id="c8_89"><path d="M116.8,860V811.2H327.4V860Z" /></clipPath>
<clipPath id="c9_89"><path d="M114.6,911V862.2H350.2V911Z" /></clipPath>
<clipPath id="c10_89"><path d="M245.1,961.6V912.8H305v48.8Z" /></clipPath>
<clipPath id="c11_89"><path d="M55.2,1020.3V963.8H312.4v56.5Z" /></clipPath>
<clipPath id="c12_89"><path d="M114.6,1073.4v-51.3H153v51.3Z" /></clipPath>
<clipPath id="c13_89"><path d="M558.3,1132.1v-56.4h88.2v56.4Z" /></clipPath>
<style type="text/css"><![CDATA[
.g0_89{
fill: #D9D9D9;
}
.g1_89{
fill: none;
stroke: #000000;
stroke-width: 0.7638889;
stroke-linecap: butt;
stroke-linejoin: miter;
}
.g2_89{
fill: none;
stroke: #000000;
stroke-width: 0.90895015;
stroke-linecap: butt;
stroke-linejoin: round;
}
.g3_89{
fill: none;
stroke: #000000;
stroke-width: 0.92706686;
stroke-linecap: butt;
stroke-linejoin: round;
}
.g4_89{
fill: none;
stroke: #000000;
stroke-width: 0.20724268;
stroke-linecap: square;
stroke-linejoin: round;
}
.g5_89{
}
.g6_89{
fill: none;
stroke: #000000;
stroke-width: 0.92394716;
stroke-linecap: butt;
stroke-linejoin: round;
}
.g7_89{
fill: none;
stroke: #000000;
stroke-width: 0.7513244;
stroke-linecap: butt;
stroke-linejoin: round;
}
.g8_89{
fill: none;
stroke: #000000;
stroke-width: 0.77879137;
stroke-linecap: butt;
stroke-linejoin: round;
}
.g9_89{
fill: none;
stroke: #000000;
stroke-width: 0.7507173;
stroke-linecap: butt;
stroke-linejoin: round;
}
.g10_89{
fill: none;
stroke: #000000;
stroke-width: 0.75401586;
stroke-linecap: butt;
stroke-linejoin: round;
}
.g11_89{
fill: none;
stroke: #000000;
stroke-width: 0.7838861;
stroke-linecap: butt;
stroke-linejoin: round;
}
.g12_89{
fill: none;
stroke: #000000;
stroke-width: 0.756595;
stroke-linecap: butt;
stroke-linejoin: round;
}
.g13_89{
fill: none;
stroke: #000000;
stroke-width: 0.7590801;
stroke-linecap: butt;
stroke-linejoin: round;
}
.g14_89{
fill: none;
stroke: #000000;
stroke-width: 0.74814785;
stroke-linecap: butt;
stroke-linejoin: round;
}
.g15_89{
fill: none;
stroke: #000000;
stroke-width: 0.21306641;
stroke-linecap: square;
stroke-linejoin: round;
}
.g16_89{
fill: none;
stroke: #000000;
stroke-width: 0.75993174;
stroke-linecap: butt;
stroke-linejoin: round;
}
.g17_89{
fill: none;
stroke: #000000;
stroke-width: 0.736317;
stroke-linecap: butt;
stroke-linejoin: round;
}
.g18_89{
fill: none;
stroke: #000000;
stroke-width: 0.20931937;
stroke-linecap: square;
stroke-linejoin: round;
}
]]></style>
</defs>
<image preserveAspectRatio="none" x="747" y="1196" width="96" height="59" xlink:href="img/1.png" />
<image preserveAspectRatio="none" x="336" y="41" width="259" height="51" xlink:href="img/2.png" />
<image preserveAspectRatio="none" x="342" y="50" width="247" height="27" xlink:href="img/3.png" />
<image preserveAspectRatio="none" x="341" y="45" width="239" height="42" xlink:href="img/4.png" />
<g fill="#FFFFFF" >
<use xlink:href="#f0_j" transform="matrix(11.5,0,0,11.5,355.1,70.1)" />
<use xlink:href="#f0_i" transform="matrix(11.5,0,0,11.5,364.3,70.1)" />
<use xlink:href="#f0_2n" transform="matrix(11.5,0,0,11.5,374.1,70.1)" />
<use xlink:href="#f0_t" transform="matrix(11.5,0,0,11.5,382.6,70.1)" />
<use xlink:href="#f0_oj" transform="matrix(11.5,0,0,11.5,391,70.1)" />
<use xlink:href="#f0_3e" transform="matrix(11.5,0,0,11.5,396.5,70.1)" />
<use xlink:href="#f0_1c" transform="matrix(11.5,0,0,11.5,406.1,70.1)" />
<use xlink:href="#f0_1c" transform="matrix(11.5,0,0,11.5,410.8,70.1)" />
<use xlink:href="#f0_oj" transform="matrix(11.5,0,0,11.5,415.6,70.1)" />
<use xlink:href="#f0_rz" transform="matrix(11.5,0,0,11.5,421.1,70.1)" />
<use xlink:href="#f0_rx" transform="matrix(11.5,0,0,11.5,429.9,70.1)" />
<use xlink:href="#f0_ry" transform="matrix(11.5,0,0,11.5,438.7,70.1)" />
<use xlink:href="#f0_s3" transform="matrix(11.5,0,0,11.5,447.5,70.1)" />
<use xlink:href="#f0_t" transform="matrix(11.5,0,0,11.5,460.4,70.1)" />
<use xlink:href="#f0_3e" transform="matrix(11.5,0,0,11.5,468.8,70.1)" />
<use xlink:href="#f0_5" transform="matrix(11.5,0,0,11.5,478.3,70.1)" />
<use xlink:href="#f0_1x" transform="matrix(11.5,0,0,11.5,489,70.1)" />
<use xlink:href="#f0_1c" transform="matrix(11.5,0,0,11.5,504.4,70.1)" />
<use xlink:href="#f0_1y" transform="matrix(11.5,0,0,11.5,509.1,70.1)" />
<use xlink:href="#f0_5" transform="matrix(11.5,0,0,11.5,520.8,70.1)" />
<use xlink:href="#f0_2t" transform="matrix(11.5,0,0,11.5,531.5,70.1)" />
<use xlink:href="#f0_1c" transform="matrix(11.5,0,0,11.5,540.2,70.1)" />
<use xlink:href="#f0_24" transform="matrix(11.5,0,0,11.5,545,70.1)" />
<use xlink:href="#f0_1y" transform="matrix(11.5,0,0,11.5,556.7,70.1)" />
</g>
<image preserveAspectRatio="none" x="554" y="45" width="36" height="42" xlink:href="img/5.png" />
<g fill="#FFFFFF" >
<use xlink:href="#f1_t" transform="matrix(11,0,0,11,770.3,1227.6)" />
<use xlink:href="#f1_j" transform="matrix(11,0,0,11,783.5,1227.6)" />
<use xlink:href="#f1_l" transform="matrix(11,0,0,11,794.1,1227.6)" />
<use xlink:href="#f1_n" transform="matrix(11,0,0,11,802.9,1227.6)" />
</g>
<path fill-rule="evenodd" d="M52.8,1193.5H856.9v-.8H52.8v.8Z" class="g0_89" />
<path d="M37.9,99.4L873,98.5" class="g1_89" />
<g fill="#000000" >
<use xlink:href="#f2_1g" transform="matrix(12,0,0,12,55,144.1)" />
<use xlink:href="#f2_2e" transform="matrix(12,0,0,12,65.3,144.1)" />
<use xlink:href="#f2_2b" transform="matrix(12,0,0,12,71.2,144.1)" />
<use xlink:href="#f2_2i" transform="matrix(12,0,0,12,80.7,144.1)" />
<use xlink:href="#f2_25" transform="matrix(12,0,0,12,89.8,144.1)" />
<use xlink:href="#f2_2a" transform="matrix(12,0,0,12,94.6,144.1)" />
<use xlink:href="#f2_23" transform="matrix(12,0,0,12,103.4,144.1)" />
<use xlink:href="#f2_e" transform="matrix(12,0,0,12,117.3,144.1)" />
<use xlink:href="#f2_25" transform="matrix(12,0,0,12,131.6,144.1)" />
<use xlink:href="#f2_2f" transform="matrix(12,0,0,12,136.4,144.1)" />
<use xlink:href="#f2_1z" transform="matrix(12,0,0,12,148.1,144.1)" />
<use xlink:href="#f2_2b" transform="matrix(12,0,0,12,156.1,144.1)" />
<use xlink:href="#f2_29" transform="matrix(12,0,0,12,165.7,144.1)" />
<use xlink:href="#f2_29" transform="matrix(12,0,0,12,179.6,144.1)" />
<use xlink:href="#f2_2h" transform="matrix(12,0,0,12,193.5,144.1)" />
<use xlink:href="#f2_2g" transform="matrix(12,0,0,12,202.7,144.1)" />
<use xlink:href="#f2_1x" transform="matrix(12,0,0,12,208.2,144.1)" />
<use xlink:href="#f2_2g" transform="matrix(12,0,0,12,216.2,144.1)" />
<use xlink:href="#f2_25" transform="matrix(12,0,0,12,221.7,144.1)" />
<use xlink:href="#f2_2i" transform="matrix(12,0,0,12,226.5,144.1)" />
<use xlink:href="#f2_21" transform="matrix(12,0,0,12,235.3,144.1)" />
<use xlink:href="#f2_1g" transform="matrix(12,0,0,12,55,168.3)" />
<use xlink:href="#f2_2e" transform="matrix(12,0,0,12,65.3,168.3)" />
<use xlink:href="#f2_2b" transform="matrix(12,0,0,12,71.2,168.3)" />
<use xlink:href="#f2_2i" transform="matrix(12,0,0,12,80.7,168.3)" />
<use xlink:href="#f2_25" transform="matrix(12,0,0,12,89.8,168.3)" />
<use xlink:href="#f2_2a" transform="matrix(12,0,0,12,94.6,168.3)" />
<use xlink:href="#f2_23" transform="matrix(12,0,0,12,103.4,168.3)" />
<use xlink:href="#f2_e" transform="matrix(12,0,0,12,117.3,168.3)" />
<use xlink:href="#f2_25" transform="matrix(12,0,0,12,131.6,168.3)" />
<use xlink:href="#f2_2f" transform="matrix(12,0,0,12,136.4,168.3)" />
<use xlink:href="#f2_1x" transform="matrix(12,0,0,12,148.1,168.3)" />
<use xlink:href="#f2_2f" transform="matrix(12,0,0,12,156.1,168.3)" />
<use xlink:href="#f2_2f" transform="matrix(12,0,0,12,163.1,168.3)" />
<use xlink:href="#f2_2b" transform="matrix(12,0,0,12,170.1,168.3)" />
<use xlink:href="#f2_1z" transform="matrix(12,0,0,12,179.6,168.3)" />
<use xlink:href="#f2_25" transform="matrix(12,0,0,12,188,168.3)" />
<use xlink:href="#f2_1x" transform="matrix(12,0,0,12,192.8,168.3)" />
<use xlink:href="#f2_2g" transform="matrix(12,0,0,12,200.8,168.3)" />
<use xlink:href="#f2_25" transform="matrix(12,0,0,12,206.3,168.3)" />
<use xlink:href="#f2_2i" transform="matrix(12,0,0,12,211.1,168.3)" />
<use xlink:href="#f2_21" transform="matrix(12,0,0,12,219.9,168.3)" />
<use xlink:href="#f2_17" transform="matrix(12,0,0,12,55,192.5)" />
<use xlink:href="#f2_21" transform="matrix(12,0,0,12,68.3,192.5)" />
<use xlink:href="#f2_2g" transform="matrix(12,0,0,12,76.3,192.5)" />
<use xlink:href="#f2_2g" transform="matrix(12,0,0,12,81.4,192.5)" />
<use xlink:href="#f2_25" transform="matrix(12,0,0,12,86.9,192.5)" />
<use xlink:href="#f2_2a" transform="matrix(12,0,0,12,91.7,192.5)" />
<use xlink:href="#f2_23" transform="matrix(12,0,0,12,100.5,192.5)" />
<use xlink:href="#f2_25" transform="matrix(12,0,0,12,114.8,192.5)" />
<use xlink:href="#f2_20" transform="matrix(12,0,0,12,119.2,192.5)" />
<use xlink:href="#f2_21" transform="matrix(12,0,0,12,128.7,192.5)" />
<use xlink:href="#f2_2a" transform="matrix(12,0,0,12,137.1,192.5)" />
<use xlink:href="#f2_2g" transform="matrix(12,0,0,12,145.9,192.5)" />
<use xlink:href="#f2_25" transform="matrix(12,0,0,12,151.4,192.5)" />
<use xlink:href="#f2_2g" transform="matrix(12,0,0,12,155.8,192.5)" />
<use xlink:href="#f2_2l" transform="matrix(12,0,0,12,161.6,192.5)" />
<use xlink:href="#f2_21" transform="matrix(12,0,0,12,174.8,192.5)" />
<use xlink:href="#f2_28" transform="matrix(12,0,0,12,183.2,192.5)" />
<use xlink:href="#f2_21" transform="matrix(12,0,0,12,188,192.5)" />
<use xlink:href="#f2_29" transform="matrix(12,0,0,12,196.4,192.5)" />
<use xlink:href="#f2_21" transform="matrix(12,0,0,12,210.3,192.5)" />
<use xlink:href="#f2_2a" transform="matrix(12,0,0,12,218.8,192.5)" />
<use xlink:href="#f2_2g" transform="matrix(12,0,0,12,227.6,192.5)" />
<use xlink:href="#f2_1x" transform="matrix(12,0,0,12,237.8,192.5)" />
<use xlink:href="#f2_2f" transform="matrix(12,0,0,12,245.8,192.5)" />
<use xlink:href="#f2_c" transform="matrix(12,0,0,12,257.6,192.5)" />
<use xlink:href="#f2_k" transform="matrix(12,0,0,12,263.8,192.5)" />
<use xlink:href="#f2_g" transform="matrix(12,0,0,12,272.9,192.5)" />
<use xlink:href="#f2_k" transform="matrix(12,0,0,12,282.1,192.5)" />
<use xlink:href="#f2_d" transform="matrix(12,0,0,12,291.3,192.5)" />
<use xlink:href="#f2_17" transform="matrix(12,0,0,12,55,216.8)" />
<use xlink:href="#f2_21" transform="matrix(12,0,0,12,68.3,216.8)" />
<use xlink:href="#f2_2g" transform="matrix(12,0,0,12,76.3,216.8)" />
<use xlink:href="#f2_2g" transform="matrix(12,0,0,12,81.4,216.8)" />
<use xlink:href="#f2_25" transform="matrix(12,0,0,12,86.9,216.8)" />
<use xlink:href="#f2_2a" transform="matrix(12,0,0,12,91.7,216.8)" />
<use xlink:href="#f2_23" transform="matrix(12,0,0,12,100.5,216.8)" />
<use xlink:href="#f2_25" transform="matrix(12,0,0,12,114.8,216.8)" />
<use xlink:href="#f2_2a" transform="matrix(12,0,0,12,119.5,216.8)" />
<use xlink:href="#f2_2i" transform="matrix(12,0,0,12,128.7,216.8)" />
<use xlink:href="#f2_21" transform="matrix(12,0,0,12,137.9,216.8)" />
<use xlink:href="#f2_2e" transform="matrix(12,0,0,12,145.9,216.8)" />
<use xlink:href="#f2_2f" transform="matrix(12,0,0,12,152.1,216.8)" />
<use xlink:href="#f2_21" transform="matrix(12,0,0,12,159.1,216.8)" />
<use xlink:href="#f2_2b" transform="matrix(12,0,0,12,171.9,216.8)" />
<use xlink:href="#f2_22" transform="matrix(12,0,0,12,181.4,216.8)" />
<use xlink:href="#f2_c" transform="matrix(12,0,0,12,191.7,216.8)" />
<use xlink:href="#f2_1x" transform="matrix(12,0,0,12,197.9,216.8)" />
<use xlink:href="#f2_g" transform="matrix(12,0,0,12,206,216.8)" />
<use xlink:href="#f2_1y" transform="matrix(12,0,0,12,215.5,216.8)" />
<use xlink:href="#f2_d" transform="matrix(12,0,0,12,224.3,216.8)" />
<use xlink:href="#f2_1x" transform="matrix(12,0,0,12,235.2,216.8)" />
<use xlink:href="#f2_2f" transform="matrix(12,0,0,12,243.3,216.8)" />
<use xlink:href="#f2_c" transform="matrix(12,0,0,12,255,216.8)" />
<use xlink:href="#f3_4y" transform="matrix(12,0,0,12,261.5,216.8)" />
<use xlink:href="#f2_1x" transform="matrix(12,0,0,12,270.7,216.8)" />
<use xlink:href="#f2_g" transform="matrix(12,0,0,12,278.8,216.8)" />
<use xlink:href="#f3_4y" transform="matrix(12,0,0,12,287.9,216.8)" />
<use xlink:href="#f2_1y" transform="matrix(12,0,0,12,297.1,216.8)" />
<use xlink:href="#f2_d" transform="matrix(12,0,0,12,305.9,216.8)" />
<use xlink:href="#f4_m" transform="matrix(12,0,0,12,55,278.4)" />
<use xlink:href="#f4_m" transform="matrix(12,0,0,12,64.2,278.4)" />
<use xlink:href="#f4_i" transform="matrix(12,0,0,12,73.4,278.4)" />
<use xlink:href="#f2_1g" transform="matrix(12,0,0,12,82.9,278.4)" />
<use xlink:href="#f2_2e" transform="matrix(12,0,0,12,92.8,278.4)" />
<use xlink:href="#f2_2b" transform="matrix(12,0,0,12,98.7,278.4)" />
<use xlink:href="#f2_2i" transform="matrix(12,0,0,12,108.2,278.4)" />
<use xlink:href="#f2_21" transform="matrix(12,0,0,12,117,278.4)" />
<use xlink:href="#f2_2g" transform="matrix(12,0,0,12,129.8,278.4)" />
<use xlink:href="#f2_24" transform="matrix(12,0,0,12,135.3,278.4)" />
<use xlink:href="#f2_1x" transform="matrix(12,0,0,12,144.1,278.4)" />
<use xlink:href="#f2_2g" transform="matrix(12,0,0,12,152.1,278.4)" />
</g>
<path d="M194.1,274.5h63.8" class="g2_89" />
<g clip-path="url(#c0_89)">
<g fill="#000000" >
<use xlink:href="#f2_o" transform="matrix(12.7,0,0,12.1,203.5,267.6)" />
<use xlink:href="#f2_2f" transform="matrix(12.7,0,0,12.1,214.3,267.6)" />
<use xlink:href="#f2_25" transform="matrix(12.7,0,0,12.1,221.4,267.6)" />
<use xlink:href="#f2_2a" transform="matrix(12.7,0,0,12.1,226.5,267.6)" />
<use xlink:href="#f2_25" transform="matrix(12.7,0,0,12.1,289.5,279)" />
<use xlink:href="#f2_2f" transform="matrix(12.7,0,0,12.1,294.7,279)" />
<use xlink:href="#f2_1x" transform="matrix(12.7,0,0,12.1,305.7,279)" />
<use xlink:href="#f2_2a" transform="matrix(12.7,0,0,12.1,313.7,279)" />
<use xlink:href="#f2_m" transform="matrix(12.7,0,0,12.1,195.2,293.2)" />
<use xlink:href="#f2_1z" transform="matrix(12.7,0,0,12.1,220.3,293.2)" />
<use xlink:href="#f2_2b" transform="matrix(12.7,0,0,12.1,228.3,293.2)" />
<use xlink:href="#f2_2f" transform="matrix(12.7,0,0,12.1,237.4,293.2)" />
<use xlink:href="#f5_2l" transform="matrix(12.7,0,0,12.1,166.7,279)" />
<use xlink:href="#f6_2d" transform="matrix(12.7,0,-4.2,12.1,237.1,267.6)" />
<use xlink:href="#f6_2d" transform="matrix(12.7,0,-4.2,12.1,274.2,279)" />
<use xlink:href="#f6_2d" transform="matrix(12.7,0,-4.2,12.1,245.4,293.2)" />
<use xlink:href="#f6_x" transform="matrix(12.7,0,0,12.1,179.6,279)" />
<use xlink:href="#f6_h" transform="matrix(12.7,0,0,12.1,261.6,279)" />
<use xlink:href="#f6_f" transform="matrix(12.7,0,0,12.1,207.2,293.2)" />
</g>
</g>
<g fill="#000000" >
<use xlink:href="#f2_25" transform="matrix(12,0,0,12,333,278.4)" />
<use xlink:href="#f2_2a" transform="matrix(12,0,0,12,337.8,278.4)" />
<use xlink:href="#f2_1z" transform="matrix(12,0,0,12,347,278.4)" />
<use xlink:href="#f2_2e" transform="matrix(12,0,0,12,355,278.4)" />
<use xlink:href="#f2_21" transform="matrix(12,0,0,12,361.3,278.4)" />
<use xlink:href="#f2_1x" transform="matrix(12,0,0,12,369.3,278.4)" />
<use xlink:href="#f2_2f" transform="matrix(12,0,0,12,377.4,278.4)" />
<use xlink:href="#f2_25" transform="matrix(12,0,0,12,384.7,278.4)" />
<use xlink:href="#f2_2a" transform="matrix(12,0,0,12,389.5,278.4)" />
<use xlink:href="#f2_23" transform="matrix(12,0,0,12,398.6,278.4)" />
<use xlink:href="#f2_22" transform="matrix(12,0,0,12,412.9,278.4)" />
<use xlink:href="#f2_2h" transform="matrix(12,0,0,12,418.4,278.4)" />
<use xlink:href="#f2_2a" transform="matrix(12,0,0,12,427.9,278.4)" />
<use xlink:href="#f2_1z" transform="matrix(12,0,0,12,436.7,278.4)" />
<use xlink:href="#f2_2g" transform="matrix(12,0,0,12,444.8,278.4)" />
<use xlink:href="#f2_25" transform="matrix(12,0,0,12,450.6,278.4)" />
<use xlink:href="#f2_2b" transform="matrix(12,0,0,12,455,278.4)" />
<use xlink:href="#f2_2a" transform="matrix(12,0,0,12,464.6,278.4)" />
<use xlink:href="#f2_2b" transform="matrix(12,0,0,12,478.1,278.4)" />
<use xlink:href="#f2_22" transform="matrix(12,0,0,12,487.6,278.4)" />
</g>
<path d="M562.5,273.9H576" class="g3_89" />
<g clip-path="url(#c1_89)">
<g fill="#000000" >
<use xlink:href="#f2_2b" transform="matrix(12.4,0,0,12.3,515.3,278.6)" />
<use xlink:href="#f2_2a" transform="matrix(12.4,0,0,12.3,524.5,278.6)" />
<use xlink:href="#f2_k" transform="matrix(12.4,0,0,12.3,546.4,278.6)" />
<use xlink:href="#f2_g" transform="matrix(12.4,0,0,12.3,555.3,278.6)" />
<use xlink:href="#f2_i" transform="matrix(12.4,0,0,12.3,586.4,278.6)" />
<use xlink:href="#f2_m" transform="matrix(12.4,0,0,12.3,564.9,293.1)" />
<use xlink:href="#f6_2c" transform="matrix(12.4,0,-4.1,12.3,562.5,266.9)" />
<use xlink:href="#f6_2d" transform="matrix(12.4,0,-4.1,12.3,499.5,278.6)" />
<use xlink:href="#f6_4r" transform="matrix(12.4,0,0,12.3,538.9,268.3)" />
<use xlink:href="#f6_57" transform="matrix(12.4,0,0,12.3,577.5,268.3)" />
<use xlink:href="#f6_4s" transform="matrix(12.4,0,0,12.3,538.9,286.1)" />
<use xlink:href="#f6_58" transform="matrix(12.4,0,0,12.3,577.5,286.1)" />
<use xlink:href="#f6_4t" transform="matrix(12.4,0,0,12.3,538.9,295.2)" />
<use xlink:href="#f6_59" transform="matrix(12.4,0,0,12.3,577.5,295.2)" />
</g>
</g>
<g fill="#000000" >
<use xlink:href="#f4_1f" transform="matrix(12,0,0,12,440.9,320.5)" />
<use xlink:href="#f4_1i" transform="matrix(12,0,0,12,455.2,320.5)" />
<use xlink:href="#f2_1j" transform="matrix(12,0,0,12,55,360.2)" />
<use xlink:href="#f2_24" transform="matrix(12,0,0,12,65.3,360.2)" />
<use xlink:href="#f2_2b" transform="matrix(12,0,0,12,74.1,360.2)" />
<use xlink:href="#f2_2j" transform="matrix(12,0,0,12,83.6,360.2)" />
<use xlink:href="#f2_2g" transform="matrix(12,0,0,12,101.2,360.2)" />
<use xlink:href="#f2_24" transform="matrix(12,0,0,12,106.7,360.2)" />
<use xlink:href="#f2_1x" transform="matrix(12,0,0,12,115.5,360.2)" />
<use xlink:href="#f2_2g" transform="matrix(12,0,0,12,123.5,360.2)" />
<use xlink:href="#f2_2f" transform="matrix(12,0,0,12,133.8,360.2)" />
<use xlink:href="#f2_21" transform="matrix(12,0,0,12,140.7,360.2)" />
<use xlink:href="#f2_29" transform="matrix(12,0,0,12,148.8,360.2)" />
<use xlink:href="#f2_25" transform="matrix(12,0,0,12,162.7,360.2)" />
<use xlink:href="#f2_h" transform="matrix(12,0,0,12,167.6,360.2)" />
<use xlink:href="#f2_2i" transform="matrix(12,0,0,12,174.2,360.2)" />
<use xlink:href="#f2_21" transform="matrix(12,0,0,12,183,360.2)" />
<use xlink:href="#f2_2e" transform="matrix(12,0,0,12,191.1,360.2)" />
<use xlink:href="#f2_2g" transform="matrix(12,0,0,12,197.3,360.2)" />
<use xlink:href="#f2_25" transform="matrix(12,0,0,12,203.2,360.2)" />
<use xlink:href="#f2_1z" transform="matrix(12,0,0,12,207.6,360.2)" />
<use xlink:href="#f2_1x" transform="matrix(12,0,0,12,215.6,360.2)" />
<use xlink:href="#f2_28" transform="matrix(12,0,0,12,224.1,360.2)" />
<use xlink:href="#f2_1x" transform="matrix(12,0,0,12,233.2,360.2)" />
<use xlink:href="#f2_2a" transform="matrix(12,0,0,12,241.6,360.2)" />
<use xlink:href="#f2_23" transform="matrix(12,0,0,12,250.4,360.2)" />
<use xlink:href="#f2_28" transform="matrix(12,0,0,12,259.9,360.2)" />
<use xlink:href="#f2_21" transform="matrix(12,0,0,12,264.7,360.2)" />
<use xlink:href="#f2_2b" transform="matrix(12,0,0,12,277.5,360.2)" />
<use xlink:href="#f2_22" transform="matrix(12,0,0,12,287.4,360.2)" />
<use xlink:href="#f2_1x" transform="matrix(12,0,0,12,297.6,360.2)" />
<use xlink:href="#f2_1z" transform="matrix(12,0,0,12,310.5,360.2)" />
<use xlink:href="#f2_2b" transform="matrix(12,0,0,12,318.5,360.2)" />
<use xlink:href="#f2_2a" transform="matrix(12,0,0,12,328,360.2)" />
<use xlink:href="#f2_21" transform="matrix(12,0,0,12,336.8,360.2)" />
<use xlink:href="#f2_2b" transform="matrix(12,0,0,12,349.7,360.2)" />
<use xlink:href="#f2_22" transform="matrix(12,0,0,12,359.2,360.2)" />
<use xlink:href="#f2_29" transform="matrix(12,0,0,12,369.8,360.2)" />
<use xlink:href="#f2_1x" transform="matrix(12,0,0,12,383.4,360.2)" />
<use xlink:href="#f2_2k" transform="matrix(12,0,0,12,391.8,360.2)" />
<use xlink:href="#f2_25" transform="matrix(12,0,0,12,400.9,360.2)" />
<use xlink:href="#f2_29" transform="matrix(12,0,0,12,406,360.2)" />
<use xlink:href="#f2_2h" transform="matrix(12,0,0,12,420,360.2)" />
<use xlink:href="#f2_29" transform="matrix(12,0,0,12,429.5,360.2)" />
<use xlink:href="#f2_2i" transform="matrix(12,0,0,12,448.2,360.2)" />
<use xlink:href="#f2_2b" transform="matrix(12,0,0,12,457,360.2)" />
<use xlink:href="#f2_28" transform="matrix(12,0,0,12,466.9,360.2)" />
<use xlink:href="#f2_2h" transform="matrix(12,0,0,12,471.3,360.2)" />
<use xlink:href="#f2_29" transform="matrix(12,0,0,12,480.8,360.2)" />
<use xlink:href="#f2_21" transform="matrix(12,0,0,12,494.7,360.2)" />
<use xlink:href="#f2_1x" transform="matrix(12,0,0,12,507.5,360.2)" />
<use xlink:href="#f2_2a" transform="matrix(12,0,0,12,516,360.2)" />
<use xlink:href="#f2_20" transform="matrix(12,0,0,12,524.8,360.2)" />
<use xlink:href="#f2_23" transform="matrix(12,0,0,12,538.7,360.2)" />
<use xlink:href="#f2_25" transform="matrix(12,0,0,12,548.2,360.2)" />
<use xlink:href="#f2_2i" transform="matrix(12,0,0,12,553,360.2)" />
<use xlink:href="#f2_21" transform="matrix(12,0,0,12,562.1,360.2)" />
<use xlink:href="#f2_2a" transform="matrix(12,0,0,12,570.5,360.2)" />
<use xlink:href="#f2_2f" transform="matrix(12,0,0,12,584.1,360.2)" />
<use xlink:href="#f2_28" transform="matrix(12,0,0,12,591.4,360.2)" />
<use xlink:href="#f2_1x" transform="matrix(12,0,0,12,596.2,360.2)" />
<use xlink:href="#f2_2a" transform="matrix(12,0,0,12,604.6,360.2)" />
<use xlink:href="#f2_2g" transform="matrix(12,0,0,12,613.4,360.2)" />
<use xlink:href="#f2_24" transform="matrix(12,0,0,12,623.6,360.2)" />
<use xlink:href="#f2_21" transform="matrix(12,0,0,12,632.4,360.2)" />
<use xlink:href="#f2_25" transform="matrix(12,0,0,12,640.8,360.2)" />
<use xlink:href="#f2_23" transform="matrix(12,0,0,12,645.2,360.2)" />
<use xlink:href="#f2_24" transform="matrix(12,0,0,12,654.7,360.2)" />
<use xlink:href="#f2_2g" transform="matrix(12,0,0,12,663.5,360.2)" />
<use xlink:href="#f2_25" transform="matrix(12,0,0,12,673.8,360.2)" />
<use xlink:href="#f2_2f" transform="matrix(12,0,0,12,678.5,360.2)" />
</g>
<path d="M744.7,372.7l1.8,-1.1m0,0L751,379m0,.1l4.8,-19.6m0,-.1h9.4" class="g4_89" />
<path fill-rule="evenodd" d="M743.8,371.7l2.5,-1.4l3.9,6.1l4.6,-18.2h9.7v.9h-9.1l-4.7,19.2h-.9l-4.5,-6.9l-1.3,.9l-.2,-.6Z" class="g5_89" />
<path d="M742.3,355.9h23.6" class="g6_89" />
<g clip-path="url(#c2_89)">
<g fill="#000000" >
<use xlink:href="#f2_l" transform="matrix(7.1,0,0,7.2,724.3,352.2)" />
<use xlink:href="#f2_l" transform="matrix(12.3,0,0,12.4,749.5,348.8)" />
<use xlink:href="#f2_1z" transform="matrix(12.3,0,0,12.4,693.4,360.6)" />
<use xlink:href="#f2_2b" transform="matrix(12.3,0,0,12.4,701.5,360.6)" />
<use xlink:href="#f2_2f" transform="matrix(12.3,0,0,12.4,710.6,360.6)" />
<use xlink:href="#f2_i" transform="matrix(12.3,0,0,12.4,776.9,360.6)" />
<use xlink:href="#f2_n" transform="matrix(12.3,0,0,12.4,755.3,376.6)" />
<use xlink:href="#f6_h" transform="matrix(7.1,0,0,7.2,718.5,352.2)" />
<use xlink:href="#f6_4o" transform="matrix(12.3,0,0,12.4,732.5,349.2)" />
<use xlink:href="#f6_54" transform="matrix(12.3,0,0,12.4,768.6,349.2)" />
<use xlink:href="#f6_4p" transform="matrix(12.3,0,0,12.4,732.5,366.3)" />
<use xlink:href="#f6_55" transform="matrix(12.3,0,0,12.4,768.6,366.3)" />
<use xlink:href="#f6_4q" transform="matrix(12.3,0,0,12.4,732.5,378.3)" />
<use xlink:href="#f6_56" transform="matrix(12.3,0,0,12.4,768.6,378.3)" />
</g>
</g>
<g fill="#000000" >
<use xlink:href="#f4_1j" transform="matrix(12,0,0,12,55,403.1)" />
<use xlink:href="#f4_2b" transform="matrix(12,0,0,12,65.3,403.1)" />
<use xlink:href="#f4_28" transform="matrix(12,0,0,12,74.5,403.1)" />
<use xlink:href="#f4_2h" transform="matrix(12,0,0,12,79.2,403.1)" />
<use xlink:href="#f4_2g" transform="matrix(12,0,0,12,89.5,403.1)" />
<use xlink:href="#f4_25" transform="matrix(12,0,0,12,95.7,403.1)" />
<use xlink:href="#f4_2b" transform="matrix(12,0,0,12,100.8,403.1)" />
<use xlink:href="#f4_2a" transform="matrix(12,0,0,12,109.9,403.1)" />
<use xlink:href="#f4_u" transform="matrix(12,0,0,12,120.2,403.1)" />
<use xlink:href="#f2_17" transform="matrix(12,0,0,12,55,439)" />
<use xlink:href="#f2_21" transform="matrix(12,0,0,12,68.3,439)" />
<use xlink:href="#f2_2g" transform="matrix(12,0,0,12,76.3,439)" />
<use xlink:href="#f2_2g" transform="matrix(12,0,0,12,81.4,439)" />
<use xlink:href="#f2_25" transform="matrix(12,0,0,12,86.9,439)" />
<use xlink:href="#f2_2a" transform="matrix(12,0,0,12,91.7,439)" />
<use xlink:href="#f2_23" transform="matrix(12,0,0,12,100.5,439)" />
</g>
<path d="M117.7,434.6h21.9m19.9,0H271.8" class="g7_89" />
<g clip-path="url(#c3_89)">
<g fill="#000000" >
<use xlink:href="#f2_m" transform="matrix(7.3,0,0,7.1,250,445.2)" />
<use xlink:href="#f2_1z" transform="matrix(12.6,0,0,12.2,160.5,427.8)" />
<use xlink:href="#f2_2b" transform="matrix(12.6,0,0,12.2,168.5,427.8)" />
<use xlink:href="#f2_2f" transform="matrix(12.6,0,0,12.2,177.7,427.8)" />
<use xlink:href="#f2_c" transform="matrix(12.6,0,0,12.2,196.3,427.8)" />
<use xlink:href="#f2_o" transform="matrix(12.6,0,0,12.2,202.8,427.8)" />
<use xlink:href="#f2_1z" transform="matrix(12.6,0,0,12.2,229,427.8)" />
<use xlink:href="#f2_2b" transform="matrix(12.6,0,0,12.2,237,427.8)" />
<use xlink:href="#f2_2f" transform="matrix(12.6,0,0,12.2,246.2,427.8)" />
<use xlink:href="#f2_d" transform="matrix(12.6,0,0,12.2,264.8,427.8)" />
<use xlink:href="#f2_c" transform="matrix(12.6,0,0,12.2,174.4,453.5)" />
<use xlink:href="#f2_m" transform="matrix(12.6,0,0,12.2,181,453.5)" />
<use xlink:href="#f2_1z" transform="matrix(12.6,0,0,12.2,207.4,453.5)" />
<use xlink:href="#f2_2b" transform="matrix(12.6,0,0,12.2,215.4,453.5)" />
<use xlink:href="#f2_2f" transform="matrix(12.6,0,0,12.2,224.6,453.5)" />
<use xlink:href="#f2_d" transform="matrix(12.6,0,0,12.2,243.2,453.5)" />
<use xlink:href="#f5_20" transform="matrix(12.6,0,0,12.2,119.9,427.8)" />
<use xlink:href="#f5_2l" transform="matrix(12.6,0,0,12.2,129.1,427.8)" />
<use xlink:href="#f5_20" transform="matrix(12.6,0,0,12.2,118.9,453.5)" />
<use xlink:href="#f6_2d" transform="matrix(12.6,0,0,12.2,186.8,427.8)" />
<use xlink:href="#f6_h" transform="matrix(12.6,0,0,12.2,215.5,427.8)" />
<use xlink:href="#f6_2d" transform="matrix(12.6,0,0,12.2,255.3,427.8)" />
<use xlink:href="#f6_x" transform="matrix(12.6,0,0,12.2,144.7,439.3)" />
<use xlink:href="#f6_2d" transform="matrix(12.6,0,0,12.2,129.5,453.5)" />
<use xlink:href="#f6_f" transform="matrix(12.6,0,0,12.2,193.6,453.5)" />
<use xlink:href="#f6_2d" transform="matrix(12.6,0,0,12.2,233.7,453.5)" />
</g>
</g>
<g fill="#000000" >
<use xlink:href="#f2_15" transform="matrix(12,0,0,12,55,493)" />
<use xlink:href="#f2_2d" transform="matrix(12,0,0,12,66.4,493)" />
<use xlink:href="#f2_2h" transform="matrix(12,0,0,12,75.6,493)" />
<use xlink:href="#f2_1x" transform="matrix(12,0,0,12,84.7,493)" />
<use xlink:href="#f2_2g" transform="matrix(12,0,0,12,92.8,493)" />
<use xlink:href="#f2_25" transform="matrix(12,0,0,12,98.3,493)" />
<use xlink:href="#f2_2a" transform="matrix(12,0,0,12,102.7,493)" />
<use xlink:href="#f2_23" transform="matrix(12,0,0,12,111.5,493)" />
</g>
<path d="M129.1,488.4h22.4" class="g8_89" />
<g clip-path="url(#c4_89)">
<g fill="#000000" >
<use xlink:href="#f5_20" transform="matrix(11.9,0,0,12.4,131.3,481.5)" />
<use xlink:href="#f5_2l" transform="matrix(11.9,0,0,12.4,140.7,481.5)" />
<use xlink:href="#f5_20" transform="matrix(11.9,0,0,12.4,130.3,507.5)" />
<use xlink:href="#f6_2d" transform="matrix(11.9,0,0,12.4,141.1,507.5)" />
</g>
</g>
<g fill="#000000" >
<use xlink:href="#f2_2g" transform="matrix(12,0,0,12,159.2,493)" />
<use xlink:href="#f2_2b" transform="matrix(12,0,0,12,164.3,493)" />
<use xlink:href="#f2_k" transform="matrix(12,0,0,12,178.6,493)" />
<use xlink:href="#f2_1x" transform="matrix(12,0,0,12,192.2,493)" />
<use xlink:href="#f2_2a" transform="matrix(12,0,0,12,200.2,493)" />
<use xlink:href="#f2_20" transform="matrix(12,0,0,12,209,493)" />
<use xlink:href="#f2_23" transform="matrix(12,0,0,12,222.9,493)" />
<use xlink:href="#f2_21" transform="matrix(12,0,0,12,232.1,493)" />
<use xlink:href="#f2_2g" transform="matrix(12,0,0,12,240.2,493)" />
<use xlink:href="#f2_2g" transform="matrix(12,0,0,12,245.3,493)" />
<use xlink:href="#f2_25" transform="matrix(12,0,0,12,250.8,493)" />
<use xlink:href="#f2_2a" transform="matrix(12,0,0,12,255.6,493)" />
<use xlink:href="#f2_23" transform="matrix(12,0,0,12,264.4,493)" />
<use xlink:href="#f2_1z" transform="matrix(12,0,0,12,278.3,493)" />
<use xlink:href="#f2_2e" transform="matrix(12,0,0,12,286.3,493)" />
<use xlink:href="#f2_25" transform="matrix(12,0,0,12,292.9,493)" />
<use xlink:href="#f2_2g" transform="matrix(12,0,0,12,297.3,493)" />
<use xlink:href="#f2_25" transform="matrix(12,0,0,12,303.2,493)" />
<use xlink:href="#f2_1z" transform="matrix(12,0,0,12,307.6,493)" />
<use xlink:href="#f2_1x" transform="matrix(12,0,0,12,315.6,493)" />
<use xlink:href="#f2_28" transform="matrix(12,0,0,12,324,493)" />
<use xlink:href="#f2_2c" transform="matrix(12,0,0,12,333.6,493)" />
<use xlink:href="#f2_2b" transform="matrix(12,0,0,12,342.7,493)" />
<use xlink:href="#f2_25" transform="matrix(12,0,0,12,352.6,493)" />
<use xlink:href="#f2_2a" transform="matrix(12,0,0,12,357.4,493)" />
<use xlink:href="#f2_2g" transform="matrix(12,0,0,12,366.2,493)" />
<use xlink:href="#f2_1x" transform="matrix(12,0,0,12,376.4,493)" />
<use xlink:href="#f2_2f" transform="matrix(12,0,0,12,384.5,493)" />
</g>
<path d="M528.5,488.4h12" class="g9_89" />
<g clip-path="url(#c5_89)">
<g fill="#000000" >
<use xlink:href="#f2_1z" transform="matrix(12.6,0,0,12.4,398.7,493.1)" />
<use xlink:href="#f2_2b" transform="matrix(12.6,0,0,12.4,406.7,493.1)" />
<use xlink:href="#f2_2f" transform="matrix(12.6,0,0,12.4,415.9,493.1)" />
<use xlink:href="#f2_k" transform="matrix(12.6,0,0,12.4,452.8,493.1)" />
<use xlink:href="#f2_i" transform="matrix(12.6,0,0,12.4,470.4,493.1)" />
<use xlink:href="#f2_i" transform="matrix(12.6,0,0,12.4,481.6,493.1)" />
<use xlink:href="#f2_g" transform="matrix(12.6,0,0,12.4,486.2,493.1)" />
<use xlink:href="#f2_m" transform="matrix(12.6,0,0,12.4,530.2,507.5)" />
<use xlink:href="#f5_25" transform="matrix(12.6,0,0,12.4,465.6,493.1)" />
<use xlink:href="#f5_21" transform="matrix(12.6,0,0,12.4,474.2,493.1)" />
<use xlink:href="#f6_2c" transform="matrix(12.6,0,0,12.4,529.8,481.5)" />
<use xlink:href="#f6_2d" transform="matrix(12.6,0,0,12.4,424.9,493.1)" />
<use xlink:href="#f6_x" transform="matrix(12.6,0,0,12.4,438.6,493.1)" />
<use xlink:href="#f6_2d" transform="matrix(12.6,0,0,12.4,500,493.1)" />
<use xlink:href="#f6_x" transform="matrix(12.6,0,0,12.4,513.7,493.1)" />
</g>
</g>
<g fill="#000000" >
<use xlink:href="#f2_16" transform="matrix(12,0,0,12,55,543.6)" />
<use xlink:href="#f2_2b" transform="matrix(12,0,0,12,64.9,543.6)" />
<use xlink:href="#f2_2e" transform="matrix(12,0,0,12,74.5,543.6)" />
<use xlink:href="#f2_1x" transform="matrix(12,0,0,12,85.4,543.6)" />
<use xlink:href="#f2_28" transform="matrix(12,0,0,12,93.5,543.6)" />
<use xlink:href="#f2_28" transform="matrix(12,0,0,12,98.2,543.6)" />
</g>
<path d="M184,539.1h12m11.3,0h22" class="g10_89" />
<g clip-path="url(#c6_89)">
<g fill="#000000" >
<use xlink:href="#f2_g" transform="matrix(12.6,0,0,12.4,119.7,543.7)" />
<use xlink:href="#f2_k" transform="matrix(12.6,0,0,12.4,128.2,543.7)" />
<use xlink:href="#f2_g" transform="matrix(12.6,0,0,12.4,198.2,543.7)" />
<use xlink:href="#f2_k" transform="matrix(12.6,0,0,12.4,248.4,543.7)" />
<use xlink:href="#f2_m" transform="matrix(12.6,0,0,12.4,185.7,558.1)" />
<use xlink:href="#f5_20" transform="matrix(12.6,0,0,12.4,209.5,532.2)" />
<use xlink:href="#f5_2l" transform="matrix(12.6,0,0,12.4,218.7,532.2)" />
<use xlink:href="#f5_20" transform="matrix(12.6,0,0,12.4,208.6,558.1)" />
<use xlink:href="#f6_2c" transform="matrix(12.6,0,0,12.4,185.2,532.2)" />
<use xlink:href="#f6_2d" transform="matrix(12.6,0,0,12.4,110.5,543.7)" />
<use xlink:href="#f6_2t" transform="matrix(12.6,0,0,12.4,141.4,543.7)" />
<use xlink:href="#f6_2d" transform="matrix(12.6,0,0,12.4,155.6,543.7)" />
<use xlink:href="#f6_2t" transform="matrix(12.6,0,0,12.4,169,543.7)" />
<use xlink:href="#f6_39" transform="matrix(12.6,0,0,12.4,234,543.7)" />
<use xlink:href="#f6_2d" transform="matrix(12.6,0,0,12.4,219.1,558.1)" />
</g>
</g>
<g fill="#000000" >
<use xlink:href="#f2_18" transform="matrix(12,0,0,12,55,595.3)" />
<use xlink:href="#f2_21" transform="matrix(12,0,0,12,68.3,595.3)" />
<use xlink:href="#f2_2a" transform="matrix(12,0,0,12,76.3,595.3)" />
<use xlink:href="#f2_1z" transform="matrix(12,0,0,12,85.1,595.3)" />
<use xlink:href="#f2_21" transform="matrix(12,0,0,12,93.5,595.3)" />
<use xlink:href="#f2_g" transform="matrix(12,0,0,12,101.6,595.3)" />
<use xlink:href="#f2_2l" transform="matrix(12,0,0,12,111.4,595.3)" />
<use xlink:href="#f2_25" transform="matrix(12,0,0,12,125,595.3)" />
<use xlink:href="#f2_2f" transform="matrix(12,0,0,12,129.8,595.3)" />
<use xlink:href="#f2_1x" transform="matrix(12,0,0,12,141.5,595.3)" />
<use xlink:href="#f2_2a" transform="matrix(12,0,0,12,149.5,595.3)" />
<use xlink:href="#f2_25" transform="matrix(12,0,0,12,163.5,595.3)" />
<use xlink:href="#f2_2a" transform="matrix(12,0,0,12,168.2,595.3)" />
<use xlink:href="#f2_1z" transform="matrix(12,0,0,12,177.4,595.3)" />
<use xlink:href="#f2_2e" transform="matrix(12,0,0,12,185.5,595.3)" />
<use xlink:href="#f2_21" transform="matrix(12,0,0,12,191.7,595.3)" />
<use xlink:href="#f2_1x" transform="matrix(12,0,0,12,199.7,595.3)" />
<use xlink:href="#f2_2f" transform="matrix(12,0,0,12,207.8,595.3)" />
<use xlink:href="#f2_25" transform="matrix(12,0,0,12,215.1,595.3)" />
<use xlink:href="#f2_2a" transform="matrix(12,0,0,12,219.9,595.3)" />
<use xlink:href="#f2_23" transform="matrix(12,0,0,12,229.1,595.3)" />
<use xlink:href="#f2_22" transform="matrix(12,0,0,12,243.3,595.3)" />
<use xlink:href="#f2_2h" transform="matrix(12,0,0,12,248.8,595.3)" />
<use xlink:href="#f2_2a" transform="matrix(12,0,0,12,258.4,595.3)" />
<use xlink:href="#f2_1z" transform="matrix(12,0,0,12,267.2,595.3)" />
<use xlink:href="#f2_2g" transform="matrix(12,0,0,12,275.2,595.3)" />
<use xlink:href="#f2_25" transform="matrix(12,0,0,12,281.1,595.3)" />
<use xlink:href="#f2_2b" transform="matrix(12,0,0,12,285.5,595.3)" />
<use xlink:href="#f2_2a" transform="matrix(12,0,0,12,295,595.3)" />
<use xlink:href="#f2_2b" transform="matrix(12,0,0,12,308.5,595.3)" />
<use xlink:href="#f2_22" transform="matrix(12,0,0,12,318,595.3)" />
</g>
<path d="M392.4,590.8h12" class="g11_89" />
<g clip-path="url(#c7_89)">
<g fill="#000000" >
<use xlink:href="#f2_2b" transform="matrix(12.5,0,0,12.3,345.1,595.4)" />
<use xlink:href="#f2_2a" transform="matrix(12.5,0,0,12.3,354.3,595.4)" />
<use xlink:href="#f2_k" transform="matrix(12.5,0,0,12.3,376.6,595.4)" />
<use xlink:href="#f2_g" transform="matrix(12.5,0,0,12.3,385.5,595.4)" />
<use xlink:href="#f2_m" transform="matrix(12.5,0,0,12.3,394.1,609.7)" />
<use xlink:href="#f6_2c" transform="matrix(12.5,0,0,12.3,393.6,583.9)" />
<use xlink:href="#f6_4r" transform="matrix(12.5,0,0,12.3,369,585.2)" />
<use xlink:href="#f6_57" transform="matrix(12.5,0,0,12.3,405.9,585.2)" />
<use xlink:href="#f6_2d" transform="matrix(12.5,0,0,12.3,331.6,595.4)" />
<use xlink:href="#f6_4s" transform="matrix(12.5,0,0,12.3,369,603)" />
<use xlink:href="#f6_58" transform="matrix(12.5,0,0,12.3,405.9,603)" />
<use xlink:href="#f6_4t" transform="matrix(12.5,0,0,12.3,369,611.9)" />
<use xlink:href="#f6_59" transform="matrix(12.5,0,0,12.3,405.9,611.9)" />
</g>
</g>
<g fill="#000000" >
<use xlink:href="#f4_1f" transform="matrix(12,0,0,12,440.9,637.5)" />
<use xlink:href="#f4_1i" transform="matrix(12,0,0,12,455.2,637.5)" />
<use xlink:href="#f2_1n" transform="matrix(12,0,0,12,55,841.7)" />
<use xlink:href="#f2_2e" transform="matrix(12,0,0,12,71.9,841.7)" />
<use xlink:href="#f2_25" transform="matrix(12,0,0,12,78.5,841.7)" />
<use xlink:href="#f2_2g" transform="matrix(12,0,0,12,82.9,841.7)" />
<use xlink:href="#f2_25" transform="matrix(12,0,0,12,88.7,841.7)" />
<use xlink:href="#f2_2a" transform="matrix(12,0,0,12,93.5,841.7)" />
<use xlink:href="#f2_23" transform="matrix(12,0,0,12,102.3,841.7)" />
</g>
<path d="M150.9,837.2h9.9m55.9,0h12" class="g12_89" />
<g clip-path="url(#c8_89)">
<g fill="#000000" >
<use xlink:href="#f2_m" transform="matrix(7.4,0,0,7.2,182.1,833.5)" />
<use xlink:href="#f2_n" transform="matrix(7.4,0,0,7.2,237.2,833.5)" />
<use xlink:href="#f2_m" transform="matrix(7.4,0,0,7.2,269,833.5)" />
<use xlink:href="#f2_l" transform="matrix(12.7,0,0,12.4,151.3,830.3)" />
<use xlink:href="#f2_2f" transform="matrix(12.7,0,0,12.4,246.2,841.8)" />
<use xlink:href="#f2_25" transform="matrix(12.7,0,0,12.4,253.4,841.8)" />
<use xlink:href="#f2_2a" transform="matrix(12.7,0,0,12.4,258.6,841.8)" />
<use xlink:href="#f2_1z" transform="matrix(12.7,0,0,12.4,288.3,841.8)" />
<use xlink:href="#f2_2b" transform="matrix(12.7,0,0,12.4,296.3,841.8)" />
<use xlink:href="#f2_2f" transform="matrix(12.7,0,0,12.4,305.5,841.8)" />
<use xlink:href="#f2_n" transform="matrix(12.7,0,0,12.4,151.6,856.2)" />
<use xlink:href="#f2_m" transform="matrix(12.7,0,0,12.4,218.4,856.2)" />
<use xlink:href="#f5_1m" transform="matrix(12.7,0,0,12.4,117.8,841.8)" />
<use xlink:href="#f5_2e" transform="matrix(12.7,0,0,12.4,173.4,841.8)" />
<use xlink:href="#f5_24" transform="matrix(12.7,0,0,12.4,188.2,841.8)" />
<use xlink:href="#f5_28" transform="matrix(12.7,0,0,12.4,230.8,841.8)" />
<use xlink:href="#f6_2c" transform="matrix(12.7,0,0,12.4,217.9,830.3)" />
<use xlink:href="#f6_x" transform="matrix(12.7,0,0,12.4,136.1,841.8)" />
<use xlink:href="#f6_2c" transform="matrix(12.7,0,0,12.4,163.6,841.8)" />
<use xlink:href="#f6_x" transform="matrix(12.7,0,0,12.4,201.8,841.8)" />
<use xlink:href="#f6_2d" transform="matrix(12.7,0,0,12.4,277.1,841.8)" />
<use xlink:href="#f6_2d" transform="matrix(12.7,0,0,12.4,314.5,841.8)" />
</g>
</g>
<g fill="#000000" >
<use xlink:href="#f2_17" transform="matrix(12,0,0,12,55,892.7)" />
<use xlink:href="#f2_21" transform="matrix(12,0,0,12,68.3,892.7)" />
<use xlink:href="#f2_2g" transform="matrix(12,0,0,12,76.3,892.7)" />
<use xlink:href="#f2_2g" transform="matrix(12,0,0,12,81.4,892.7)" />
<use xlink:href="#f2_25" transform="matrix(12,0,0,12,86.9,892.7)" />
<use xlink:href="#f2_2a" transform="matrix(12,0,0,12,91.7,892.7)" />
<use xlink:href="#f2_23" transform="matrix(12,0,0,12,100.5,892.7)" />
</g>
<path d="M117.7,888.1h25m19.7,0h11.9" class="g13_89" />
<g clip-path="url(#c9_89)">
<g fill="#000000" >
<use xlink:href="#f2_n" transform="matrix(7.4,0,0,7.2,182.9,884.4)" />
<use xlink:href="#f2_m" transform="matrix(7.4,0,0,7.2,265.5,884.4)" />
<use xlink:href="#f2_n" transform="matrix(7.4,0,0,7.2,322.6,884.4)" />
<use xlink:href="#f2_1r" transform="matrix(12.7,0,0,12.4,188.6,892.8)" />
<use xlink:href="#f2_m" transform="matrix(12.7,0,0,12.4,195.1,892.8)" />
<use xlink:href="#f2_2f" transform="matrix(12.7,0,0,12.4,205.6,892.8)" />
<use xlink:href="#f2_25" transform="matrix(12.7,0,0,12.4,212.7,892.8)" />
<use xlink:href="#f2_2a" transform="matrix(12.7,0,0,12.4,217.9,892.8)" />
<use xlink:href="#f2_1z" transform="matrix(12.7,0,0,12.4,240.5,892.8)" />
<use xlink:href="#f2_2b" transform="matrix(12.7,0,0,12.4,248.4,892.8)" />
<use xlink:href="#f2_2f" transform="matrix(12.7,0,0,12.4,257.6,892.8)" />
<use xlink:href="#f2_2f" transform="matrix(12.7,0,0,12.4,300.1,892.8)" />
<use xlink:href="#f2_25" transform="matrix(12.7,0,0,12.4,307.3,892.8)" />
<use xlink:href="#f2_2a" transform="matrix(12.7,0,0,12.4,312.4,892.8)" />
<use xlink:href="#f2_1t" transform="matrix(12.7,0,0,12.4,340.3,892.8)" />
<use xlink:href="#f2_m" transform="matrix(12.7,0,0,12.4,164.1,907.1)" />
<use xlink:href="#f5_20" transform="matrix(12.7,0,0,12.4,118.9,881.2)" />
<use xlink:href="#f5_1m" transform="matrix(12.7,0,0,12.4,128.1,881.2)" />
<use xlink:href="#f5_28" transform="matrix(12.7,0,0,12.4,176.5,892.8)" />
<use xlink:href="#f5_20" transform="matrix(12.7,0,0,12.4,120.5,907.1)" />
<use xlink:href="#f6_2c" transform="matrix(12.7,0,0,12.4,163.7,881.2)" />
<use xlink:href="#f6_x" transform="matrix(12.7,0,0,12.4,147.7,892.8)" />
<use xlink:href="#f6_2d" transform="matrix(12.7,0,0,12.4,229.5,892.8)" />
<use xlink:href="#f6_2d" transform="matrix(12.7,0,0,12.4,274.3,892.8)" />
<use xlink:href="#f6_h" transform="matrix(12.7,0,0,12.4,287.1,892.8)" />
<use xlink:href="#f6_2d" transform="matrix(12.7,0,0,12.4,331,892.8)" />
<use xlink:href="#f6_2d" transform="matrix(12.7,0,0,12.4,131,907.1)" />
</g>
</g>
<g fill="#000000" >
<use xlink:href="#f2_16" transform="matrix(12,0,0,12,55,943.3)" />
<use xlink:href="#f2_2b" transform="matrix(12,0,0,12,64.9,943.3)" />
<use xlink:href="#f2_2e" transform="matrix(12,0,0,12,74.5,943.3)" />
<use xlink:href="#f2_29" transform="matrix(12,0,0,12,85.4,943.3)" />
<use xlink:href="#f2_1x" transform="matrix(12,0,0,12,99,943.3)" />
<use xlink:href="#f2_2k" transform="matrix(12,0,0,12,107.4,943.3)" />
<use xlink:href="#f2_25" transform="matrix(12,0,0,12,116.6,943.3)" />
<use xlink:href="#f2_29" transform="matrix(12,0,0,12,121.7,943.3)" />
<use xlink:href="#f2_1x" transform="matrix(12,0,0,12,135.6,943.3)" />
<use xlink:href="#f2_1x" transform="matrix(12,0,0,12,148.4,943.3)" />
<use xlink:href="#f2_2a" transform="matrix(12,0,0,12,156.9,943.3)" />
<use xlink:href="#f2_20" transform="matrix(12,0,0,12,165.7,943.3)" />
<use xlink:href="#f2_29" transform="matrix(12,0,0,12,179.9,943.3)" />
<use xlink:href="#f2_25" transform="matrix(12,0,0,12,193.9,943.3)" />
<use xlink:href="#f2_2a" transform="matrix(12,0,0,12,198.6,943.3)" />
<use xlink:href="#f2_25" transform="matrix(12,0,0,12,208.2,943.3)" />
<use xlink:href="#f2_29" transform="matrix(12,0,0,12,213.3,943.3)" />
<use xlink:href="#f2_1x" transform="matrix(12,0,0,12,227.2,943.3)" />
<use xlink:href="#f2_g" transform="matrix(12,0,0,12,235.3,943.3)" />
</g>
<path d="M248.2,938.8h25.1" class="g14_89" />
<g clip-path="url(#c10_89)">
<g fill="#000000" >
<use xlink:href="#f2_k" transform="matrix(12.5,0,0,12.4,292.6,943.4)" />
<use xlink:href="#f5_20" transform="matrix(12.5,0,0,12.4,249.4,931.9)" />
<use xlink:href="#f5_1m" transform="matrix(12.5,0,0,12.4,258.6,931.9)" />
<use xlink:href="#f5_20" transform="matrix(12.5,0,0,12.4,251,957.8)" />
<use xlink:href="#f6_x" transform="matrix(12.5,0,0,12.4,278.4,943.4)" />
<use xlink:href="#f6_2d" transform="matrix(12.5,0,0,12.4,261.5,957.8)" />
</g>
</g>
<path d="M142.2,1009.2l1.8,-1m.1,0l4.4,7.4m0,.1L153.4,996m0,-.1h9.4" class="g15_89" />
<path fill-rule="evenodd" d="M141.3,1008.3l2.5,-1.5l4,6.2l4.5,-18.2h9.8v.9h-9.2l-4.7,19.2h-.9l-4.5,-6.8l-1.2,.7l-.3,-.5Z" class="g5_89" />
<path d="M139.8,992.8h23.9" class="g16_89" />
<path d="M278,1009.2l1.8,-1m0,0l4.5,7.4m0,.1L289.1,996m0,-.1h9.5" class="g15_89" />
<path fill-rule="evenodd" d="M277,1008.3l2.6,-1.5l3.9,6.2L288,994.8h9.9v.9h-9.2l-4.7,19.2h-1l-4.4,-6.8l-1.3,.7l-.3,-.5Z" class="g5_89" />
<path d="M275.5,992.8h23.9" class="g16_89" />
<g clip-path="url(#c11_89)">
<g fill="#000000" >
<use xlink:href="#f2_l" transform="matrix(7.4,0,0,7.2,257.9,989.1)" />
<use xlink:href="#f2_l" transform="matrix(12.7,0,0,12.4,147.1,985.9)" />
<use xlink:href="#f2_l" transform="matrix(12.7,0,0,12.4,282.9,985.9)" />
<use xlink:href="#f2_1z" transform="matrix(12.7,0,0,12.4,85,997.5)" />
<use xlink:href="#f2_2b" transform="matrix(12.7,0,0,12.4,93,997.5)" />
<use xlink:href="#f2_2f" transform="matrix(12.7,0,0,12.4,102.2,997.5)" />
<use xlink:href="#f2_2b" transform="matrix(12.7,0,0,12.4,173.8,997.5)" />
<use xlink:href="#f2_2e" transform="matrix(12.7,0,0,12.4,182.9,997.5)" />
<use xlink:href="#f2_1z" transform="matrix(12.7,0,0,12.4,227,997.5)" />
<use xlink:href="#f2_2b" transform="matrix(12.7,0,0,12.4,235,997.5)" />
<use xlink:href="#f2_2f" transform="matrix(12.7,0,0,12.4,244.1,997.5)" />
<use xlink:href="#f2_n" transform="matrix(12.7,0,0,12.4,152.8,1013.1)" />
<use xlink:href="#f2_n" transform="matrix(12.7,0,0,12.4,288.6,1013.1)" />
<use xlink:href="#f6_h" transform="matrix(7.4,0,0,7.2,252.1,989.1)" />
<use xlink:href="#f6_4o" transform="matrix(12.7,0,0,12.4,265.7,986.3)" />
<use xlink:href="#f6_54" transform="matrix(12.7,0,0,12.4,302.1,986.3)" />
<use xlink:href="#f6_4g" transform="matrix(12.7,0,0,12.4,57.4,997.5)" />
<use xlink:href="#f6_2d" transform="matrix(12.7,0,0,12.4,111.3,997.5)" />
<use xlink:href="#f6_x" transform="matrix(12.7,0,0,12.4,124.9,997.5)" />
<use xlink:href="#f6_2d" transform="matrix(12.7,0,0,12.4,199.1,997.5)" />
<use xlink:href="#f6_x" transform="matrix(12.7,0,0,12.4,212.7,997.5)" />
<use xlink:href="#f6_4p" transform="matrix(12.7,0,0,12.4,265.7,1003.3)" />
<use xlink:href="#f6_55" transform="matrix(12.7,0,0,12.4,302.1,1003.3)" />
<use xlink:href="#f6_4q" transform="matrix(12.7,0,0,12.4,265.7,1015)" />
<use xlink:href="#f6_56" transform="matrix(12.7,0,0,12.4,302.1,1015)" />
</g>
</g>
<g fill="#000000" >
<use xlink:href="#f2_17" transform="matrix(12,0,0,12,55,1055.2)" />
<use xlink:href="#f2_21" transform="matrix(12,0,0,12,68.3,1055.2)" />
<use xlink:href="#f2_2g" transform="matrix(12,0,0,12,76.3,1055.2)" />
<use xlink:href="#f2_2g" transform="matrix(12,0,0,12,81.4,1055.2)" />
<use xlink:href="#f2_25" transform="matrix(12,0,0,12,86.9,1055.2)" />
<use xlink:href="#f2_2a" transform="matrix(12,0,0,12,91.7,1055.2)" />
<use xlink:href="#f2_23" transform="matrix(12,0,0,12,100.5,1055.2)" />
</g>
<path d="M117.6,1050.8h31" class="g17_89" />
<g clip-path="url(#c12_89)">
<g fill="#000000" >
<use xlink:href="#f2_m" transform="matrix(7.2,0,0,7.1,130.1,1035.8)" />
<use xlink:href="#f2_m" transform="matrix(7.2,0,0,7.1,139.8,1061.4)" />
<use xlink:href="#f5_20" transform="matrix(12.3,0,0,12.2,118.8,1044)" />
<use xlink:href="#f5_1m" transform="matrix(12.3,0,0,12.2,134.3,1044)" />
<use xlink:href="#f5_20" transform="matrix(12.3,0,0,12.2,120,1069.7)" />
<use xlink:href="#f6_2d" transform="matrix(12.3,0,0,12.2,130.2,1069.7)" />
</g>
</g>
<g fill="#000000" >
<use xlink:href="#f2_2a" transform="matrix(12,0,0,12,157,1055.2)" />
<use xlink:href="#f2_21" transform="matrix(12,0,0,12,165.8,1055.2)" />
<use xlink:href="#f2_23" transform="matrix(12,0,0,12,173.9,1055.2)" />
<use xlink:href="#f2_1x" transform="matrix(12,0,0,12,183,1055.2)" />
<use xlink:href="#f2_2g" transform="matrix(12,0,0,12,191.1,1055.2)" />
<use xlink:href="#f2_25" transform="matrix(12,0,0,12,197,1055.2)" />
<use xlink:href="#f2_2i" transform="matrix(12,0,0,12,201.7,1055.2)" />
<use xlink:href="#f2_21" transform="matrix(12,0,0,12,210.5,1055.2)" />
<use xlink:href="#f2_18" transform="matrix(12,0,0,12,55,1109.1)" />
<use xlink:href="#f2_21" transform="matrix(12,0,0,12,68.3,1109.1)" />
<use xlink:href="#f2_2a" transform="matrix(12,0,0,12,76.3,1109.1)" />
<use xlink:href="#f2_1z" transform="matrix(12,0,0,12,85.1,1109.1)" />
<use xlink:href="#f2_21" transform="matrix(12,0,0,12,93.5,1109.1)" />
<use xlink:href="#f2_g" transform="matrix(12,0,0,12,101.6,1109.1)" />
<use xlink:href="#f2_2i" transform="matrix(12,0,0,12,111.1,1109.1)" />
<use xlink:href="#f2_2b" transform="matrix(12,0,0,12,119.9,1109.1)" />
<use xlink:href="#f2_28" transform="matrix(12,0,0,12,129.8,1109.1)" />
<use xlink:href="#f2_2h" transform="matrix(12,0,0,12,134.2,1109.1)" />
<use xlink:href="#f2_29" transform="matrix(12,0,0,12,143.7,1109.1)" />
<use xlink:href="#f2_21" transform="matrix(12,0,0,12,157.6,1109.1)" />
<use xlink:href="#f2_2b" transform="matrix(12,0,0,12,170.4,1109.1)" />
<use xlink:href="#f2_22" transform="matrix(12,0,0,12,179.9,1109.1)" />
<use xlink:href="#f2_2g" transform="matrix(12,0,0,12,190.2,1109.1)" />
<use xlink:href="#f2_24" transform="matrix(12,0,0,12,195.7,1109.1)" />
<use xlink:href="#f2_21" transform="matrix(12,0,0,12,204.5,1109.1)" />
<use xlink:href="#f2_1z" transform="matrix(12,0,0,12,217.3,1109.1)" />
<use xlink:href="#f2_2b" transform="matrix(12,0,0,12,225.4,1109.1)" />
<use xlink:href="#f2_2a" transform="matrix(12,0,0,12,234.9,1109.1)" />
<use xlink:href="#f2_21" transform="matrix(12,0,0,12,243.7,1109.1)" />
<use xlink:href="#f2_25" transform="matrix(12,0,0,12,256.9,1109.1)" />
<use xlink:href="#f2_2f" transform="matrix(12,0,0,12,261.3,1109.1)" />
<use xlink:href="#f2_29" transform="matrix(12,0,0,12,273.3,1109.1)" />
<use xlink:href="#f2_1x" transform="matrix(12,0,0,12,287.3,1109.1)" />
<use xlink:href="#f2_2k" transform="matrix(12,0,0,12,295.7,1109.1)" />
<use xlink:href="#f2_25" transform="matrix(12,0,0,12,304.8,1109.1)" />
<use xlink:href="#f2_29" transform="matrix(12,0,0,12,309.6,1109.1)" />
<use xlink:href="#f2_2h" transform="matrix(12,0,0,12,323.5,1109.1)" />
<use xlink:href="#f2_29" transform="matrix(12,0,0,12,333.1,1109.1)" />
<use xlink:href="#f2_2j" transform="matrix(12,0,0,12,351.7,1109.1)" />
<use xlink:href="#f2_24" transform="matrix(12,0,0,12,365.3,1109.1)" />
<use xlink:href="#f2_21" transform="matrix(12,0,0,12,374.1,1109.1)" />
<use xlink:href="#f2_2a" transform="matrix(12,0,0,12,382.5,1109.1)" />
<use xlink:href="#f2_2f" transform="matrix(12,0,0,12,396.1,1109.1)" />
<use xlink:href="#f2_21" transform="matrix(12,0,0,12,403,1109.1)" />
<use xlink:href="#f2_29" transform="matrix(12,0,0,12,411.4,1109.1)" />
<use xlink:href="#f2_25" transform="matrix(12,0,0,12,425.7,1109.1)" />
<use xlink:href="#f2_h" transform="matrix(12,0,0,12,431,1109.1)" />
<use xlink:href="#f2_2i" transform="matrix(12,0,0,12,437.6,1109.1)" />
<use xlink:href="#f2_21" transform="matrix(12,0,0,12,446.4,1109.1)" />
<use xlink:href="#f2_2e" transform="matrix(12,0,0,12,454.5,1109.1)" />
<use xlink:href="#f2_2g" transform="matrix(12,0,0,12,460.7,1109.1)" />
<use xlink:href="#f2_25" transform="matrix(12,0,0,12,466.2,1109.1)" />
<use xlink:href="#f2_1z" transform="matrix(12,0,0,12,470.6,1109.1)" />
<use xlink:href="#f2_1x" transform="matrix(12,0,0,12,479,1109.1)" />
<use xlink:href="#f2_28" transform="matrix(12,0,0,12,487.4,1109.1)" />
<use xlink:href="#f2_1x" transform="matrix(12,0,0,12,496.6,1109.1)" />
<use xlink:href="#f2_2a" transform="matrix(12,0,0,12,505,1109.1)" />
<use xlink:href="#f2_23" transform="matrix(12,0,0,12,513.8,1109.1)" />
<use xlink:href="#f2_28" transform="matrix(12,0,0,12,523.3,1109.1)" />
<use xlink:href="#f2_21" transform="matrix(12,0,0,12,528.1,1109.1)" />
<use xlink:href="#f2_25" transform="matrix(12,0,0,12,541.2,1109.1)" />
<use xlink:href="#f2_2f" transform="matrix(12,0,0,12,546,1109.1)" />
</g>
<path d="M612.1,1121.1L614,1120m0,0l4.4,7.5m0,0l5,-19.7m0,0h9.5" class="g18_89" />
<path fill-rule="evenodd" d="M611.2,1120.1l2.6,-1.4l3.9,6.1l4.6,-18.2h9.9v.9h-9.3l-4.7,19.3h-.9l-4.6,-6.9l-1.2,.8l-.3,-.6Z" class="g5_89" />
<path d="M609.6,1104.7h24.1" class="g11_89" />
<g clip-path="url(#c13_89)">
<g fill="#000000" >
<use xlink:href="#f2_l" transform="matrix(7.3,0,0,7.2,591.9,1101)" />
<use xlink:href="#f2_l" transform="matrix(12.5,0,0,12.4,617.1,1097.8)" />
<use xlink:href="#f2_1z" transform="matrix(12.5,0,0,12.4,560.8,1109.3)" />
<use xlink:href="#f2_2b" transform="matrix(12.5,0,0,12.4,568.9,1109.3)" />
<use xlink:href="#f2_2f" transform="matrix(12.5,0,0,12.4,578.1,1109.3)" />
<use xlink:href="#f2_n" transform="matrix(12.5,0,0,12.4,622.8,1124.9)" />
<use xlink:href="#f6_h" transform="matrix(7.3,0,0,7.2,586.1,1101)" />
<use xlink:href="#f6_4o" transform="matrix(12.5,0,0,12.4,599.7,1098.2)" />
<use xlink:href="#f6_54" transform="matrix(12.5,0,0,12.4,636.4,1098.2)" />
<use xlink:href="#f6_4p" transform="matrix(12.5,0,0,12.4,599.7,1115.2)" />
<use xlink:href="#f6_55" transform="matrix(12.5,0,0,12.4,636.4,1115.2)" />
<use xlink:href="#f6_4q" transform="matrix(12.5,0,0,12.4,599.7,1126.9)" />
<use xlink:href="#f6_56" transform="matrix(12.5,0,0,12.4,636.4,1126.9)" />
</g>
</g>
<image preserveAspectRatio="none" x="55" y="644" width="152" height="165" xlink:href="img/6.png" />
<path fill-rule="evenodd" d="M37.4,38.1h.7v-.7h-.7v.7Z" class="g5_89" />
<path fill-rule="evenodd" d="M37.4,38.1h.7v-.7h-.7v.7Z" class="g5_89" />
<path fill-rule="evenodd" d="M38.1,38.1H871.5v-.7H38.1v.7Z" class="g5_89" />
<path fill-rule="evenodd" d="M871.5,38.1h.8v-.7h-.8v.7Z" class="g5_89" />
<path fill-rule="evenodd" d="M871.5,38.1h.8v-.7h-.8v.7Z" class="g5_89" />
<path fill-rule="evenodd" d="M37.4,1248.5h.7V38.1h-.7V1248.5Z" class="g5_89" />
<path fill-rule="evenodd" d="M872.3,1248.5h.7V38.1h-.7V1248.5Z" class="g5_89" />
<path fill-rule="evenodd" d="M871.5,1248.5h.8V38.1h-.8V1248.5Z" class="g5_89" />
<path fill-rule="evenodd" d="M37.4,1249.2h.7v-.7h-.7v.7Z" class="g5_89" />
<path fill-rule="evenodd" d="M37.4,1249.2h.7v-.7h-.7v.7Z" class="g5_89" />
<path fill-rule="evenodd" d="M38.1,1249.9H871.5v-.7H38.1v.7Z" class="g5_89" />
<path fill-rule="evenodd" d="M38.1,1249.2H871.5v-.7H38.1v.7Z" class="g5_89" />
<path fill-rule="evenodd" d="M872.3,1249.9h.7v-1.4h-.7v1.4Z" class="g5_89" />
<path fill-rule="evenodd" d="M871.5,1249.9H873v-.7h-1.5v.7Z" class="g5_89" />
<path fill-rule="evenodd" d="M871.5,1249.2h.8v-.7h-.8v.7Z" class="g5_89" />
<path fill-rule="evenodd" d="M871.5,1249.2h.8v-.7h-.8v.7Z" class="g5_89" />
<defs>
<path d="M489,-15c0,0,-99,0,-179,30c0,0,-80,30,-136,91c0,0,-56,61,-85,152c0,0,-30,91,-30,212c0,0,0,123,32,218c0,0,33,96,92,161c0,0,59,65,142,98c0,0,82,34,181,34c0,0,40,0,78,-7c0,0,37,-7,69,-18c0,0,31,-11,57,-25c0,0,25,-14,35,-24c0,0,10,-10,14,-17c0,0,4,-7,6,-17c0,0,2,-11,3,-25c0,0,2,-14,2,-35c0,0,0,-22,-2,-38c0,0,-1,-15,-5,-25c0,0,-4,-10,-9,-14c0,0,-5,-5,-12,-5c0,0,-11,0,-28,13c0,0,-18,13,-45,29c0,0,-27,16,-65,29c0,0,-37,13,-89,13c0,0,-58,0,-103,-23c0,0,-45,-23,-77,-67c0,0,-31,-44,-48,-106c0,0,-16,-61,-16,-139c0,0,0,-85,17,-147c0,0,18,-62,50,-103c0,0,33,-40,79,-60c0,0,45,-19,103,-19c0,0,52,0,90,12c0,0,38,12,65,27c0,0,27,15,45,27c0,0,17,12,27,12c0,0,8,0,12,-3c0,0,4,-3,7,-12c0,0,3,-9,5,-25c0,0,1,-16,1,-43c0,0,0,-18,-1,-31c0,0,-1,-14,-3,-23c0,0,-2,-9,-6,-16c0,0,-4,-7,-12,-15c0,0,-8,-9,-32,-22c0,0,-23,-14,-57,-26C661,13,627,1,583,-6c0,0,-43,-9,-94,-9Z" 
id="f0_j"
transform="scale(0.001,-0.001)" />

<path d="M440,150c0,0,41,0,68,8c0,0,28,9,49,26c0,0,20,16,32,41c0,0,11,25,11,58c0,0,0,33,-11,60c0,0,-11,26,-33,44c0,0,-21,18,-55,28c0,0,-33,9,-87,9H298V150ZM407,567c0,0,42,0,68,10c0,0,25,10,42,28c0,0,16,17,24,41c0,0,9,24,9,50c0,0,0,29,-9,52c0,0,-9,23,-27,39c0,0,-18,15,-45,23c0,0,-27,8,-72,8H298V567ZM164,0c0,0,-25,0,-42,15c0,0,-16,14,-16,47V903c0,0,0,33,16,48c0,0,17,14,42,14H406c0,0,88,0,150,-15c0,0,61,-15,103,-45c0,0,42,-30,65,-77c0,0,22,-46,22,-108c0,0,0,-36,-9,-67c0,0,-9,-31,-26,-56c0,0,-17,-25,-42,-45c0,0,-25,-19,-57,-31c0,0,41,-7,76,-26c0,0,34,-19,60,-48c0,0,26,-30,41,-69c0,0,15,-40,15,-89c0,0,0,-51,-14,-93c0,0,-15,-42,-40,-74c0,0,-25,-32,-59,-55c0,0,-35,-23,-77,-38C614,29,573,14,525,7C525,7,478,0,420,0Z" 
id="f0_i"
transform="scale(0.001,-0.001)" />

<path d="M320,-17c0,0,-50,0,-93,9c0,0,-43,8,-76,19c0,0,-32,11,-54,24C97,35,75,48,65,58c0,0,-10,9,-14,28c0,0,-4,18,-4,52c0,0,0,23,1,39c0,0,2,15,5,25c0,0,4,10,9,14c0,0,6,4,13,4c0,0,11,0,30,-12c0,0,19,-13,49,-28c0,0,30,-15,71,-27c0,0,42,-12,96,-12c0,0,36,0,64,8c0,0,29,9,49,25c0,0,19,15,30,38c0,0,10,23,10,52c0,0,0,33,-18,56c0,0,-18,24,-46,42c0,0,-29,18,-66,34c0,0,-36,16,-75,34c0,0,-39,18,-76,41c0,0,-36,23,-65,54c0,0,-29,32,-47,75c0,0,-17,44,-17,104c0,0,0,70,25,122c0,0,26,53,70,88c0,0,43,34,103,51c0,0,59,18,125,18c0,0,35,0,69,-6c0,0,34,-5,64,-14c0,0,30,-9,53,-20c0,0,23,-11,31,-18c0,0,7,-8,10,-13c0,0,3,-5,4,-14c0,0,2,-8,3,-21c0,0,1,-13,1,-33c0,0,0,-21,-1,-36c0,0,-1,-15,-4,-25c0,0,-3,-9,-7,-14c0,0,-5,-4,-14,-4c0,0,-8,0,-26,10c0,0,-18,10,-44,23c0,0,-26,12,-60,22c0,0,-34,10,-75,10c0,0,-32,0,-56,-8c0,0,-24,-8,-40,-21c0,0,-16,-14,-24,-34c0,0,-8,-19,-8,-41c0,0,0,-32,18,-56c0,0,17,-23,46,-42c0,0,30,-18,67,-34c0,0,38,-16,76,-34c0,0,39,-18,76,-41c0,0,38,-22,67,-54c0,0,29,-32,47,-75c0,0,18,-43,18,-101c0,0,0,-76,-29,-133c0,0,-28,-58,-77,-96C572,60,524,21,459,2c0,0,-65,-19,-139,-19Z" 
id="f0_2n"
transform="scale(0.001,-0.001)" />

<path d="M164,0c0,0,-25,0,-42,15c0,0,-16,14,-16,47V903c0,0,0,33,16,48c0,0,17,14,42,14H645c0,0,7,0,12,-4c0,0,5,-3,9,-13c0,0,4,-9,6,-24c0,0,2,-14,2,-36c0,0,0,-21,-2,-36c0,0,-2,-14,-6,-23c0,0,-4,-9,-9,-13c0,0,-5,-4,-12,-4H301V576H593c0,0,6,0,12,-4c0,0,6,-4,9,-13c0,0,4,-8,6,-23c0,0,2,-14,2,-35c0,0,0,-22,-2,-36c0,0,-2,-14,-6,-23c0,0,-3,-8,-9,-12c0,0,-6,-4,-12,-4H301V154H649c0,0,6,0,12,-5c0,0,5,-4,9,-13c0,0,4,-9,6,-23c0,0,2,-15,2,-36c0,0,0,-22,-2,-36c0,0,-2,-15,-6,-24c0,0,-4,-9,-9,-13c0,0,-6,-4,-12,-4Z" 
id="f0_t"
transform="scale(0.001,-0.001)" />

<path d="M79,297c0,0,-19,0,-27,18c0,0,-8,17,-8,60c0,0,0,41,8,59c0,0,8,17,27,17H389c0,0,9,0,15,-4c0,0,7,-4,11,-13c0,0,5,-9,7,-23c0,0,1,-15,1,-36c0,0,0,-43,-8,-61c0,0,-8,-17,-26,-17Z" 
id="f0_oj"
transform="scale(0.001,-0.001)" />

<path d="M121,-4c0,0,-39,0,-60,2C61,-2,39,0,32,8c0,0,-8,8,-3,24c0,0,4,15,18,41L279,495L64,892c0,0,-14,26,-19,42c0,0,-5,17,4,24c0,0,9,8,32,10c0,0,23,2,65,2c0,0,35,0,56,-2c0,0,20,-1,32,-4c0,0,12,-4,17,-10c0,0,5,-6,9,-15L431,620L595,939c0,0,5,9,10,15c0,0,5,6,16,10c0,0,10,3,29,4c0,0,19,2,53,2c0,0,37,0,59,-2c0,0,22,-2,30,-10c0,0,8,-8,4,-24c0,0,-4,-16,-17,-42L564,497L793,73c0,0,14,-26,18,-41c0,0,4,-16,-5,-24c0,0,-9,-8,-32,-10c0,0,-24,-2,-65,-2c0,0,-36,0,-56,2c0,0,-20,1,-31,3c0,0,-12,4,-17,10c0,0,-5,6,-9,15L414,374L233,26c0,0,-4,-9,-9,-15c0,0,-6,-6,-17,-10c0,0,-12,-2,-32,-3c0,0,-21,-2,-54,-2Z" 
id="f0_3e"
transform="scale(0.001,-0.001)" />

<path d="M204,-4c0,0,-28,0,-47,2c0,0,-19,2,-31,5c0,0,-11,4,-16,10c0,0,-4,6,-4,13V939c0,0,0,7,4,13c0,0,5,6,17,10c0,0,11,3,30,6c0,0,19,2,47,2c0,0,29,0,48,-2c0,0,18,-3,29,-6c0,0,11,-4,16,-10c0,0,5,-6,5,-13V26c0,0,0,-7,-5,-13c0,0,-5,-6,-16,-10c0,0,-11,-3,-29,-5c0,0,-19,-2,-48,-2Z" 
id="f0_1c"
transform="scale(0.001,-0.001)" />

<path d="M127,0c0,0,-16,0,-28,3C99,3,87,6,80,15c0,0,-8,8,-11,25c0,0,-3,16,-3,42c0,0,0,25,2,42c0,0,2,18,8,32c0,0,6,14,15,27c0,0,9,13,24,29L282,390c0,0,50,53,81,95c0,0,30,43,47,79c0,0,17,35,24,65c0,0,6,30,6,57c0,0,0,24,-8,46c0,0,-8,22,-23,39c0,0,-15,16,-38,25c0,0,-23,10,-55,10c0,0,-44,0,-78,-12c0,0,-33,-11,-59,-25c0,0,-26,-13,-43,-25c0,0,-17,-12,-27,-12c0,0,-7,0,-11,5c0,0,-5,4,-8,15c0,0,-3,10,-5,28c0,0,-2,17,-2,42c0,0,0,18,1,29c0,0,1,12,4,20c0,0,2,9,6,15c0,0,3,6,13,15c0,0,9,9,34,23c0,0,25,14,61,27c0,0,37,14,81,23c0,0,44,9,92,9c0,0,75,0,131,-19c0,0,57,-19,94,-53c0,0,37,-34,55,-81c0,0,19,-47,19,-100c0,0,0,-47,-9,-93c0,0,-9,-45,-37,-98c0,0,-29,-52,-80,-116c0,0,-52,-64,-136,-148L299,159H679c0,0,8,0,14,-4c0,0,6,-5,11,-14c0,0,4,-9,7,-25c0,0,2,-15,2,-36c0,0,0,-22,-2,-37c0,0,-2,-15,-6,-25c0,0,-3,-10,-9,-14c0,0,-6,-4,-14,-4Z" 
id="f0_rz"
transform="scale(0.001,-0.001)" />

<path d="M385,138c0,0,29,0,52,9c0,0,22,10,39,28c0,0,17,19,28,47c0,0,11,29,19,66c0,0,7,37,9,84c0,0,3,47,3,104c0,0,0,69,-4,122c0,0,-4,52,-11,91c0,0,-8,39,-20,66c0,0,-12,27,-28,43c0,0,-16,16,-37,22c0,0,-21,7,-47,7c0,0,-44,0,-73,-21c0,0,-28,-21,-45,-64c0,0,-17,-42,-24,-106c0,0,-6,-63,-6,-148c0,0,0,-103,8,-171c0,0,8,-67,26,-107c0,0,17,-40,45,-56c0,0,27,-16,66,-16ZM378,-17c0,0,-99,0,-164,33c0,0,-65,34,-103,98c0,0,-38,64,-54,156c0,0,-15,92,-15,209c0,0,0,115,19,208c0,0,19,94,61,160c0,0,42,65,110,101c0,0,68,35,165,35c0,0,99,0,164,-34c0,0,65,-34,103,-98c0,0,39,-64,53,-156c0,0,15,-92,15,-209c0,0,0,-115,-18,-209c0,0,-19,-93,-61,-159C653,118,611,53,543,17c0,0,-67,-34,-165,-34Z" 
id="f0_rx"
transform="scale(0.001,-0.001)" />

<path d="M142,0c0,0,-6,0,-12,4c0,0,-5,3,-9,12c0,0,-4,9,-6,23c0,0,-3,15,-3,36c0,0,0,21,2,36c0,0,2,14,6,23c0,0,4,9,10,13c0,0,5,5,12,5H322V779L166,693c0,0,-17,-8,-28,-10c0,0,-1,0,-3,0c-4,0,-10,1,-14,5c0,0,-6,6,-8,22c0,0,-2,15,-2,44c0,0,0,18,0,29c0,0,1,12,4,20c0,0,3,8,8,14c0,0,5,5,14,11L345,962c0,0,4,3,9,5c0,0,6,2,15,3c0,0,9,1,23,2c0,0,15,0,38,0c0,0,28,0,46,-1c0,0,17,-1,26,-4c0,0,9,-3,12,-7c0,0,3,-4,3,-11V152H675c0,0,7,0,12,-5c0,0,6,-4,10,-13c0,0,4,-9,6,-23c0,0,2,-15,2,-36c0,0,0,-21,-2,-36c0,0,-3,-14,-7,-23c0,0,-4,-9,-9,-12c0,0,-5,-4,-12,-4Z" 
id="f0_ry"
transform="scale(0.001,-0.001)" />

<path d="M398,134c0,0,34,0,60,12c0,0,25,13,43,36c0,0,17,23,26,54c0,0,9,31,9,68c0,0,0,38,-7,66c0,0,-7,29,-22,49c0,0,-15,20,-39,30c0,0,-25,10,-60,10c0,0,-21,0,-41,-4c0,0,-20,-4,-40,-10c0,0,-19,-7,-37,-16c0,0,-18,-10,-33,-20c0,0,0,-80,9,-133c0,0,9,-54,26,-85c0,0,18,-31,44,-44c0,0,27,-13,62,-13ZM387,-16c0,0,-67,0,-117,15c0,0,-50,14,-86,43c0,0,-37,29,-60,70c0,0,-23,41,-37,92c0,0,-14,52,-19,112c0,0,-5,61,-5,129c0,0,0,56,5,118c0,0,6,62,22,122c0,0,16,59,45,114c0,0,29,54,75,94c0,0,46,41,111,65c0,0,65,24,155,24c0,0,28,0,57,-4c0,0,29,-3,53,-8c0,0,25,-5,42,-12c0,0,17,-7,23,-12c0,0,5,-5,8,-11c0,0,3,-5,5,-13c0,0,2,-7,3,-17c0,0,1,-11,1,-25c0,0,0,-24,-1,-39c0,0,-2,-15,-5,-24c0,0,-3,-8,-8,-12c0,0,-5,-4,-12,-4c0,0,-9,0,-24,5c0,0,-14,5,-34,11c0,0,-20,6,-47,10c0,0,-27,5,-63,5c0,0,-61,0,-102,-23c0,0,-42,-22,-68,-60c0,0,-26,-39,-38,-90c0,0,-12,-50,-13,-107c0,0,16,10,38,21c0,0,21,10,46,18c0,0,25,7,54,12c0,0,29,5,62,5c0,0,73,0,125,-20c0,0,52,-20,86,-58c0,0,33,-37,48,-90c0,0,16,-53,16,-118c0,0,0,-73,-22,-135c0,0,-23,-62,-66,-108C640,79,597,34,533,9c0,0,-63,-25,-146,-25Z" 
id="f0_s3"
transform="scale(0.001,-0.001)" />

<path d="M589,371L453,782h-1L317,371ZM106,-4c0,0,-35,0,-54,2C52,-2,32,0,25,8c0,0,-7,9,-5,24c0,0,2,16,11,42L329,931c0,0,4,13,10,21c0,0,6,7,19,12c0,0,13,4,36,5c0,0,23,1,61,1c0,0,44,0,71,-1c0,0,26,-1,40,-5c0,0,15,-5,21,-13c0,0,6,-8,11,-22L896,73c0,0,9,-27,11,-43c0,0,3,-15,-6,-23c0,0,-8,-7,-29,-9c0,0,-21,-2,-57,-2c0,0,-38,0,-59,1c0,0,-22,1,-33,4c0,0,-11,3,-16,9c0,0,-4,6,-7,16L635,220H272L211,31c0,0,-2,-11,-7,-18c0,0,-5,-7,-16,-11c0,0,-11,-3,-31,-4c0,0,-19,-2,-51,-2Z" 
id="f0_5"
transform="scale(0.001,-0.001)" />

<path d="M198,-4c0,0,-27,0,-45,2c0,0,-18,2,-28,5c0,0,-11,4,-15,10c0,0,-4,6,-4,13V887c0,0,0,38,20,58c0,0,20,20,53,20H308c0,0,34,0,59,-6c0,0,24,-5,42,-18c0,0,18,-13,30,-35c0,0,12,-21,21,-52L669,279h3L889,852c0,0,9,32,21,53c0,0,11,22,27,35c0,0,15,14,36,19c0,0,21,6,48,6h132c0,0,21,0,35,-5c0,0,15,-5,24,-15c0,0,9,-11,14,-25c0,0,5,-15,5,-33V26c0,0,0,-7,-4,-13c0,0,-4,-6,-15,-10c0,0,-11,-3,-29,-5c0,0,-18,-2,-45,-2c0,0,-27,0,-45,2c0,0,-18,2,-28,5c0,0,-11,4,-15,10c0,0,-5,6,-5,13V813h-1L764,27c0,0,-3,-10,-10,-16c0,0,-6,-6,-18,-10c0,0,-12,-3,-29,-4c0,0,-18,-1,-44,-1c0,0,-25,0,-43,2c0,0,-18,2,-29,5c0,0,-12,4,-19,10c0,0,-6,6,-9,14L293,813h-2V26c0,0,0,-7,-4,-13c0,0,-4,-6,-15,-10c0,0,-11,-3,-29,-5c0,0,-17,-2,-45,-2Z" 
id="f0_1x"
transform="scale(0.001,-0.001)" />

<path d="M193,-4c0,0,-26,0,-43,2c0,0,-18,2,-27,6c0,0,-10,4,-14,10c0,0,-3,6,-3,13V895c0,0,0,35,20,53c0,0,21,17,50,17H282c0,0,28,0,47,-5c0,0,20,-5,35,-16c0,0,15,-11,29,-31c0,0,13,-20,27,-49L608,511c0,0,17,-32,33,-63c0,0,16,-31,31,-62c0,0,14,-31,29,-60c0,0,14,-30,27,-60h1c0,0,-2,52,-3,109c0,0,-1,57,-1,108V936c0,0,0,7,4,13c0,0,5,6,15,11c0,0,10,4,28,6c0,0,17,2,44,2c0,0,25,0,42,-2c0,0,17,-2,27,-6c0,0,9,-5,13,-11c0,0,4,-6,4,-13V68c0,0,0,-17,-6,-30c0,0,-6,-14,-17,-23C879,15,869,6,856,2c0,0,-14,-3,-28,-3H744c0,0,-26,0,-45,4c0,0,-19,5,-35,19c0,0,-16,14,-31,38c0,0,-15,23,-34,60L359,572c0,0,-21,40,-43,86c0,0,-21,47,-38,91h-2c0,0,3,-54,5,-107c0,0,2,-53,2,-110V27c0,0,0,-7,-5,-13c0,0,-4,-6,-14,-10c0,0,-10,-4,-27,-6c0,0,-17,-2,-44,-2Z" 
id="f0_1y"
transform="scale(0.001,-0.001)" />

<path d="M378,-4c0,0,-28,0,-47,2c0,0,-19,2,-31,5c0,0,-11,4,-16,10c0,0,-4,6,-4,13V805H38c0,0,-8,0,-13,4c0,0,-5,5,-9,14c0,0,-3,9,-5,25c0,0,-2,15,-2,37c0,0,0,22,2,38c0,0,2,15,5,25c0,0,4,9,9,13c0,0,5,4,13,4H718c0,0,7,0,12,-4c0,0,6,-4,10,-13c0,0,3,-10,5,-25c0,0,2,-16,2,-38c0,0,0,-22,-2,-37c0,0,-2,-16,-5,-25c0,0,-4,-9,-10,-14c0,0,-5,-4,-12,-4H476V26c0,0,0,-7,-5,-13c0,0,-5,-6,-16,-10c0,0,-11,-3,-30,-5c0,0,-19,-2,-47,-2Z" 
id="f0_2t"
transform="scale(0.001,-0.001)" />

<path d="M514,145c0,0,72,0,121,27c0,0,48,26,78,73c0,0,30,46,42,107c0,0,13,62,13,131c0,0,0,76,-12,139c0,0,-12,62,-41,106c0,0,-29,45,-76,69c0,0,-48,24,-120,24c0,0,-72,0,-120,-27c0,0,-49,-27,-79,-73c0,0,-29,-45,-42,-106c0,0,-12,-61,-12,-129c0,0,0,-79,12,-142c0,0,12,-63,40,-108c0,0,28,-44,76,-68c0,0,48,-23,120,-23ZM508,-17c0,0,-113,0,-196,29c0,0,-84,29,-140,90c0,0,-56,60,-84,154c0,0,-28,93,-28,221c0,0,0,117,29,210c0,0,30,94,89,160c0,0,59,65,146,101c0,0,87,35,202,35c0,0,110,0,194,-29c0,0,84,-30,140,-90c0,0,56,-60,85,-153c0,0,29,-92,29,-217c0,0,0,-120,-30,-215c0,0,-30,-95,-89,-161C855,118,796,52,709,17c0,0,-87,-34,-201,-34Z" 
id="f0_24"
transform="scale(0.001,-0.001)" />

<path d="M407,475c0,0,61,0,105,44c0,0,44,43,44,103c0,0,0,64,-43,108c0,0,-44,43,-109,43c0,0,-57,0,-99,-44c0,0,-42,-45,-42,-107c0,0,0,-62,42,-104c0,0,42,-43,102,-43ZM195,0L430,323c0,0,-67,-8,-85,-8c0,0,-126,0,-212,92c0,0,-87,92,-87,227c0,0,0,141,107,237c0,0,106,96,264,96c0,0,151,0,246,-97c0,0,95,-96,95,-250c0,0,0,-112,-56,-223c0,0,-55,-112,-94,-168L448,0Z" 
id="f1_t"
transform="scale(0.001,-0.001)" />

<path d="M44,-281L425,1053H537L156,-281Z" 
id="f1_j"
transform="scale(0.001,-0.001)" />

<path d="M299,0V777H162l36,173H508V0Z" 
id="f1_l"
transform="scale(0.001,-0.001)" />

<path d="M404,-11c0,0,-136,0,-225,76c0,0,-90,78,-111,215H265c0,0,35,-136,135,-136c0,0,50,0,85,35c0,0,34,36,34,88c0,0,0,64,-41,105c0,0,-42,41,-107,41H336V573h21c0,0,68,0,109,33c0,0,41,34,41,89c0,0,0,50,-32,85c0,0,-32,35,-79,35c0,0,-110,0,-127,-135H76c0,0,9,130,96,209c0,0,87,79,208,79c0,0,134,0,227,-76c0,0,94,-75,94,-182c0,0,0,-116,-115,-210c0,0,73,-46,107,-96c0,0,34,-51,34,-121c0,0,0,-134,-88,-214c0,0,-89,-80,-235,-80Z" 
id="f1_n"
transform="scale(0.001,-0.001)" />

<path d="M394,460c0,0,126,0,186,57c0,0,60,57,60,187c0,0,0,123,-57,176c0,0,-58,53,-194,53H316V460ZM54,0V40L172,60V941L44,960v40H421c0,0,368,0,368,-295c0,0,0,-153,-93,-233c0,0,-93,-80,-267,-80H316V60L475,40V0Z" 
id="f2_1g"
transform="scale(0.001,-0.001)" />

<path d="M31,0V33l88,19V649L31,668v33H235l7,-87c0,0,44,37,121,71c0,0,76,35,121,35h11V530H463l-43,82c0,0,-37,0,-88,-10c0,0,-52,-10,-89,-26V52L363,33V0Z" 
id="f2_2e"
transform="scale(0.001,-0.001)" />

<path d="M377,45c0,0,99,0,147,73c0,0,47,73,47,237c0,0,0,161,-47,233c0,0,-47,72,-147,72c0,0,-97,0,-141,-69c0,0,-44,-69,-44,-236c0,0,0,-169,45,-240c0,0,44,-70,140,-70Zm0,-59c0,0,-158,0,-238,94c0,0,-81,95,-81,274c0,0,0,178,81,272c0,0,80,94,244,94c0,0,160,0,241,-92c0,0,82,-92,82,-274c0,0,0,-368,-329,-368Z" 
id="f2_2b"
transform="scale(0.001,-0.001)" />

<path d="M360,-14L72,649L0,668v33H327V668L216,648L420,164L615,649L504,668v33H764V668L697,652L416,-14Z" 
id="f2_2i"
transform="scale(0.001,-0.001)" />

<path d="M32,0V33L151,52V649L52,668v33H275V52L395,33V0ZM201,850c0,0,-32,0,-56,24c0,0,-24,24,-24,56c0,0,0,34,24,58c0,0,24,24,56,24c0,0,34,0,58,-24c0,0,24,-24,24,-58c0,0,0,-32,-24,-56c0,0,-24,-24,-58,-24Z" 
id="f2_25"
transform="scale(0.001,-0.001)" />

<path d="M439,0V33l93,19V500c0,0,0,62,-30,97c0,0,-31,36,-94,36c0,0,-67,0,-165,-22V52L338,33V0H35V33l84,19V649L35,668v33H235l7,-57c0,0,57,33,122,54c0,0,65,22,108,22c0,0,91,0,137,-53c0,0,47,-53,47,-154V52L741,33V0Z" 
id="f2_2a"
transform="scale(0.001,-0.001)" />

<path d="M359,-270c0,0,124,0,192,46c0,0,67,47,67,129c0,0,0,43,-26,67c0,0,-26,24,-79,24H242c0,0,-32,-27,-51,-69c0,0,-20,-41,-20,-77c0,0,0,-64,46,-92c0,0,46,-28,142,-28Zm11,561c0,0,81,0,115,47c0,0,34,47,34,141c0,0,0,100,-35,142c0,0,-35,42,-113,42c0,0,-78,0,-114,-43c0,0,-37,-42,-37,-141c0,0,0,-98,36,-143c0,0,36,-45,114,-45ZM359,-329c0,0,-143,0,-218,44c0,0,-75,43,-75,125c0,0,0,39,27,78c0,0,26,38,98,89c0,0,-43,14,-72,48c0,0,-29,35,-29,74L208,262c0,0,-118,55,-118,217c0,0,0,115,73,178c0,0,73,63,211,63c0,0,28,0,71,-6c0,0,44,-6,67,-13l165,83l26,-32L599,644c0,0,50,-56,50,-165c0,0,0,-120,-72,-182c0,0,-73,-62,-208,-62c0,0,-62,0,-114,11L208,148c0,0,2,-13,29,-24c0,0,27,-12,67,-12H512c0,0,113,0,168,-49c0,0,55,-49,55,-134c0,0,0,-79,-44,-137c0,0,-43,-58,-128,-90c0,0,-84,-31,-204,-31Z" 
id="f2_23"
transform="scale(0.001,-0.001)" />

<path d="M325,440l32,245L122,539L75,646l244,74L75,794l47,107L357,756l-32,244H442L407,756L643,898L691,793L443,720L691,647L643,542L407,682L442,440Z" 
id="f2_e"
transform="scale(0.001,-0.001)" />

<path d="M278,-14c0,0,-52,0,-115,11c0,0,-63,10,-99,23V193H98L134,95c0,0,56,-50,146,-50c0,0,144,0,144,123c0,0,0,91,-114,130l-66,21c0,0,-75,25,-110,50c0,0,-34,26,-53,63c0,0,-18,36,-18,89c0,0,0,92,63,145c0,0,63,54,170,54c0,0,77,0,193,-23V544H454l-32,81c0,0,-39,35,-124,35c0,0,-61,0,-92,-30c0,0,-32,-30,-32,-80c0,0,0,-43,29,-72c0,0,28,-29,86,-48c0,0,110,-38,144,-55c0,0,33,-17,57,-42c0,0,23,-25,36,-57c0,0,13,-32,13,-79c0,0,0,-104,-66,-158c0,0,-66,-53,-195,-53Z" 
id="f2_2f"
transform="scale(0.001,-0.001)" />

<path d="M399,-14c0,0,-341,0,-341,370c0,0,0,175,87,269c0,0,87,95,249,95c0,0,101,0,220,-23V501H573L541,625c0,0,-62,35,-149,35c0,0,-200,0,-200,-304c0,0,0,-158,61,-225c0,0,61,-67,189,-67c0,0,109,0,189,24V43C631,43,595,16,530,1c0,0,-64,-15,-131,-15Z" 
id="f2_1z"
transform="scale(0.001,-0.001)" />

<path d="M431,0V33L535,52V499c0,0,0,62,-32,96c0,0,-32,33,-95,33c0,0,-66,0,-163,-22V52L350,33V0H32V33l89,19V649L32,668v33H237l6,-57c0,0,56,32,119,54c0,0,62,22,110,22c0,0,52,0,95,-20c0,0,44,-19,66,-62c0,0,57,32,134,57c0,0,77,25,128,25c0,0,179,0,179,-207V52l90,-19V0H846V33L950,52V499c0,0,0,129,-119,129c0,0,-19,0,-45,-3c0,0,-26,-3,-52,-7c0,0,-25,-4,-49,-8c0,0,-23,-5,-39,-8c0,0,13,-41,13,-89V52L764,33V0Z" 
id="f2_29"
transform="scale(0.001,-0.001)" />

<path d="M289,-14c0,0,-179,0,-179,205V649L20,668v33H233V200c0,0,0,-128,120,-128c0,0,92,0,173,23V649L420,668v33H649V52L738,33V0H533l-6,57C527,57,474,28,405,7c0,0,-69,-21,-116,-21Z" 
id="f2_2h"
transform="scale(0.001,-0.001)" />

<path d="M249,-14c0,0,-71,0,-107,42c0,0,-35,42,-35,119V639H15v33l93,29l76,159h47V701H391V639H231V161c0,0,0,-48,22,-73c0,0,22,-24,57,-24c0,0,44,0,106,12V26C416,26,389,8,340,-2c0,0,-49,-12,-91,-12Z" 
id="f2_2g"
transform="scale(0.001,-0.001)" />

<path d="M284,67c0,0,51,0,88,12c0,0,37,12,74,30V358l-98,-3c0,0,-100,-4,-135,-39c0,0,-35,-35,-35,-117c0,0,0,-132,106,-132ZM233,-14c0,0,-179,0,-179,208c0,0,0,70,27,116c0,0,27,46,87,70c0,0,60,24,173,27l105,3V519c0,0,0,72,-26,107c0,0,-27,34,-82,34c0,0,-75,0,-137,-35L176,538H134V691c0,0,121,26,213,26c0,0,115,0,169,-47c0,0,54,-47,54,-144V52L657,33V0H465L451,70c0,0,-85,-84,-218,-84Z" 
id="f2_1x"
transform="scale(0.001,-0.001)" />

<path d="M495,413c0,0,0,133,-34,190c0,0,-34,57,-105,57c0,0,-78,0,-119,-63c0,0,-42,-62,-42,-184ZM374,-14c0,0,-163,0,-239,87c0,0,-75,88,-75,283c0,0,0,183,77,273c0,0,76,91,219,91c0,0,269,0,269,-306V353H194V340c0,0,0,-103,23,-160c0,0,22,-57,70,-87c0,0,47,-29,124,-29c0,0,40,0,96,6c0,0,55,7,91,15V43C598,43,562,20,500,3c0,0,-61,-17,-126,-17Z" 
id="f2_21"
transform="scale(0.001,-0.001)" />

<path d="M577,-14c0,0,-243,0,-379,131C198,117,63,248,63,488c0,0,0,263,131,393c0,0,132,130,386,130c0,0,182,0,352,-45V751H882L862,875c0,0,-52,37,-124,57c0,0,-72,19,-152,19c0,0,-191,0,-279,-113c0,0,-88,-114,-88,-348c0,0,0,-220,91,-333c0,0,91,-114,269,-114c0,0,63,0,131,15c0,0,69,15,105,36V377L686,397v40h370V397L958,377V52C958,52,871,24,778,5c0,0,-93,-19,-201,-19Z" 
id="f2_17"
transform="scale(0.001,-0.001)" />

<path d="M383,64c0,0,85,0,152,28V645c0,0,-67,13,-152,13c0,0,-194,0,-194,-314c0,0,0,-141,48,-211c0,0,48,-69,146,-69ZM342,-14c0,0,-287,0,-287,358c0,0,0,184,82,280c0,0,81,96,239,96c0,0,81,0,163,-18c0,0,-4,25,-4,124v182l-118,18v34H659V52L745,33V0H548l-9,52c0,0,-84,-66,-197,-66Z" 
id="f2_20"
transform="scale(0.001,-0.001)" />

<path d="M148,-329c0,0,-58,0,-114,13v151H69l24,-71c0,0,23,-17,64,-17c0,0,39,0,72,22c0,0,33,23,60,67c0,0,27,44,68,157L90,649L19,668v33H344V668L233,648L423,158L606,649L497,668v33H758V668L685,652L411,-43c0,0,-48,-124,-84,-177c0,0,-36,-54,-79,-82c0,0,-44,-27,-100,-27Z" 
id="f2_2l"
transform="scale(0.001,-0.001)" />

<path d="M31,0V33L150,52v956L31,1026v34H274V52L394,33V0Z" 
id="f2_28"
transform="scale(0.001,-0.001)" />

<path d="M460,-325c0,0,-148,79,-231,172c0,0,-84,93,-123,217c0,0,-39,126,-39,304c0,0,0,178,39,303c0,0,39,125,122,217c0,0,82,93,232,172V997c0,0,-91,-52,-145,-134c0,0,-54,-81,-79,-190c0,0,-25,-109,-25,-305c0,0,0,-194,26,-309c0,0,26,-114,82,-193c0,0,56,-79,141,-128v-63Z" 
id="f2_c"
transform="scale(0.001,-0.001)" />

<path d="M377,45c0,0,99,0,145,108c0,0,46,109,46,352c0,0,0,240,-45,345c0,0,-46,106,-146,106c0,0,-97,0,-139,-100c0,0,-43,-99,-43,-351c0,0,0,-254,44,-357c0,0,43,-103,138,-103Zm0,-59c0,0,-158,0,-238,132c0,0,-81,133,-81,386c0,0,0,249,81,380c0,0,80,132,244,132c0,0,159,0,241,-130c0,0,82,-130,82,-382c0,0,0,-518,-329,-518Z" 
id="f2_k"
transform="scale(0.001,-0.001)" />

<path d="M58,-234v58c0,0,131,42,131,125c0,0,0,15,-11,27c0,0,-11,12,-38,25C140,1,89,27,89,75c0,0,0,40,25,61c0,0,26,21,65,21c0,0,48,0,77,-34c0,0,30,-34,30,-86c0,0,0,-101,-60,-170c0,0,-59,-69,-168,-101Z" 
id="f2_g"
transform="scale(0.001,-0.001)" />

<path d="M49,-325v63c0,0,85,49,140,128c0,0,56,79,83,194c0,0,26,115,26,308c0,0,0,196,-25,305c0,0,-25,109,-79,190c0,0,-54,82,-145,134v63c0,0,149,-80,232,-172c0,0,83,-92,122,-217c0,0,39,-125,39,-303c0,0,0,-177,-39,-303c0,0,-39,-125,-122,-217c0,0,-83,-93,-232,-173Z" 
id="f2_d"
transform="scale(0.001,-0.001)" />

<path d="M64,0V34L168,59V639H47v36l121,29v49c0,0,0,155,61,239c0,0,62,84,173,84c0,0,58,0,107,-15V908H472l-33,92c0,0,-26,16,-62,16c0,0,-47,0,-66,-42c0,0,-19,-42,-19,-157V701H478V639H292V59L443,34V0Z" 
id="f2_22"
transform="scale(0.001,-0.001)" />

<path d="M376,50c0,0,103,0,149,80c0,0,46,81,46,240c0,0,0,137,-47,204c0,0,-48,67,-148,67c0,0,-44,0,-87,-7c0,0,-44,-8,-63,-17V62c0,0,63,-12,150,-12Zm3,-64c0,0,-64,0,-141,14c0,0,-78,14,-136,37v971L0,1026v34H226V809c0,0,0,-40,-4,-148c0,0,74,59,188,59c0,0,143,0,219,-87c0,0,77,-87,77,-263c0,0,0,-189,-84,-287c0,0,-84,-97,-243,-97Z" 
id="f2_1y"
transform="scale(0.001,-0.001)" />

<path d="M-12,338v55H777V338Z" 
id="f3_4y"
transform="scale(0.001,-0.001)" />

<path d="M64,0V141c0,0,64,68,119,123c0,0,119,118,174,185c0,0,56,68,81,140c0,0,26,72,26,165c0,0,0,81,-40,131c0,0,-39,50,-105,50c0,0,-46,0,-74,-10c0,0,-27,-10,-50,-29L163,751H98V979c0,0,59,13,116,23c0,0,58,9,125,9c0,0,165,0,252,-68c0,0,88,-68,88,-193c0,0,0,-78,-26,-142c0,0,-26,-64,-83,-124c0,0,-56,-61,-224,-197c0,0,-64,-52,-139,-119H698V0Z" 
id="f4_m"
transform="scale(0.001,-0.001)" />

<path d="M191,-20c0,0,-51,0,-88,34c0,0,-36,36,-36,88c0,0,0,52,36,88c0,0,36,36,88,36c0,0,51,0,88,-36c0,0,36,-36,36,-88c0,0,0,-51,-36,-87c0,0,-36,-35,-88,-35Z" 
id="f4_i"
transform="scale(0.001,-0.001)" />

<path d="M442,0V33l93,19V504c0,0,0,129,-124,129c0,0,-70,0,-168,-22V52L338,33V0H31V33l88,19v956L15,1026v34H243V756c0,0,0,-77,-5,-112c0,0,54,31,122,53c0,0,68,23,115,23c0,0,91,0,137,-53c0,0,47,-53,47,-154V52L744,33V0Z" 
id="f2_24"
transform="scale(0.001,-0.001)" />

<path d="M476,327V830h-4L114,327ZM476,0V220H30v99l488,686h86V327H740V220H604V0Z" 
id="f2_o"
transform="scale(0.001,-0.001)" />

<path d="M67,0V109L206,235c0,0,133,118,196,190c0,0,63,72,90,149c0,0,27,77,27,177c0,0,0,97,-44,148c0,0,-44,50,-144,50c0,0,-39,0,-81,-10c0,0,-42,-11,-74,-29L150,787H101V980c0,0,135,32,230,32c0,0,164,0,247,-68c0,0,82,-69,82,-193c0,0,0,-84,-32,-158c0,0,-33,-75,-100,-148c0,0,-67,-74,-222,-206c0,0,-67,-57,-141,-125H680V0Z" 
id="f2_m"
transform="scale(0.001,-0.001)" />

<path d="M-15,-329c0,0,-61,0,-112,13l28,152h34l12,-72c0,0,18,-17,60,-17c0,0,100,0,212,202L253,9L116,649L33,668l6,33H230L338,155L513,458c0,0,48,83,48,144c0,0,0,27,-16,44c0,0,-15,16,-33,22l6,33H659c0,0,20,-17,20,-47c0,0,0,-59,-62,-164L322,-7c0,0,-86,-145,-135,-205c0,0,-50,-61,-98,-89c0,0,-49,-28,-104,-28Z" 
id="f5_2l"
transform="scale(0.001,-0.001)" />

<path d="M338,28c0,0,48,0,91,45c0,0,43,45,65,144c0,0,22,99,26,276H143c0,0,3,-133,20,-239c0,0,13,-80,44,-140c0,0,19,-36,54,-61c0,0,36,-25,77,-25ZM522,543c0,0,-1,194,-37,312c0,0,-29,90,-76,129c0,0,-34,28,-79,28c0,0,-51,0,-93,-39c0,0,-43,-40,-65,-132c0,0,-22,-93,-29,-298ZM329,-21c0,0,-68,0,-124,31c0,0,-56,33,-99,95c0,0,-43,62,-66,131C40,236,0,356,0,489c0,0,0,294,119,453c0,0,91,119,217,119c0,0,122,0,209,-115c0,0,121,-160,121,-436c0,0,0,-263,-119,-415C547,95,455,-21,329,-21Z" 
id="f6_2d"
transform="scale(0.001,-0.001)" />

<path d="M0,214v74H784V214ZM0,494v72H784V494Z" 
id="f6_x"
transform="scale(0.001,-0.001)" />

<path d="M0,356v74H784V356Z" 
id="f6_h"
transform="scale(0.001,-0.001)" />

<path d="M355,0V355H0v72H355V784h72V427H782V355H427V0Z" 
id="f6_f"
transform="scale(0.001,-0.001)" />

<path d="M191,-20c0,0,-39,0,-65,25c0,0,-25,27,-25,64c0,0,0,38,26,64c0,0,26,26,64,26c0,0,38,0,64,-26c0,0,26,-26,26,-64c0,0,0,-37,-25,-64c0,0,-26,-25,-65,-25Z" 
id="f2_i"
transform="scale(0.001,-0.001)" />

<path d="M140,-21c0,0,-26,0,-44,17C96,-4,79,13,79,40c0,0,0,19,6,33c0,0,8,20,34,55c0,0,46,60,64,126c0,0,32,114,41,321H190c0,0,-55,0,-81,-18c0,0,-44,-26,-80,-89H0c0,0,42,129,98,178c0,0,43,37,120,37H743V575H562c0,0,-27,-171,-27,-327c0,0,0,-77,27,-110c0,0,27,-33,67,-33c0,0,33,0,56,22c0,0,24,22,31,65h27C743,192,730,74,686,26c0,0,-44,-47,-98,-47c0,0,-58,0,-97,51c0,0,-39,53,-39,198c0,0,0,91,28,347H286c0,0,-23,-390,-56,-494c0,0,-33,-102,-90,-102Z" 
id="f6_2c"
transform="scale(0.001,-0.001)" />

<path d="M0,-123V1415H525v-72H72V-123Z" 
id="f6_4r"
transform="scale(0.001,-0.001)" />

<path d="M478,-123V1343H26v72H550V-123Z" 
id="f6_57"
transform="scale(0.001,-0.001)" />

<path d="M0,-123V1415H72V-123Z" 
id="f6_4s"
transform="scale(0.001,-0.001)" />

<path d="M0,-123V1415H72V-123Z" 
id="f6_58"
transform="scale(0.001,-0.001)" />

<path d="M0,-123V1415H72V-51H525v-72Z" 
id="f6_4t"
transform="scale(0.001,-0.001)" />

<path d="M26,-123v72H478V1415h72V-123Z" 
id="f6_59"
transform="scale(0.001,-0.001)" />

<path d="M595,60c0,0,141,0,206,102c0,0,65,102,65,340c0,0,0,236,-65,335c0,0,-65,100,-206,100c0,0,-142,0,-207,-100c0,0,-66,-99,-66,-335c0,0,0,-239,66,-340c0,0,65,-102,207,-102Zm0,-74c0,0,-253,0,-387,130C208,116,75,246,75,501c0,0,0,510,520,510c0,0,256,0,387,-129c0,0,132,-130,132,-381c0,0,0,-254,-133,-385C981,116,848,-14,595,-14Z" 
id="f4_1f"
transform="scale(0.001,-0.001)" />

<path d="M498,506c0,0,115,0,164,47c0,0,48,48,48,166c0,0,0,112,-46,156c0,0,-46,43,-169,43H390V506ZM793,0L514,423H390V74L518,54V0H36V54L154,74V926L26,945v55H504c0,0,221,0,330,-68c0,0,109,-68,109,-212c0,0,0,-215,-201,-276L1009,74L1117,54V0Z" 
id="f4_1i"
transform="scale(0.001,-0.001)" />

<path d="M410,-14c0,0,-80,0,-162,14c0,0,-81,14,-144,38V270h48L178,134c0,0,28,-35,95,-62c0,0,68,-27,134,-27c0,0,104,0,163,53c0,0,58,54,58,148c0,0,0,54,-23,89c0,0,-22,35,-59,59c0,0,-37,24,-84,41c0,0,-47,17,-97,34c0,0,-49,17,-96,38c0,0,-47,21,-84,53c0,0,-37,32,-60,79c0,0,-23,48,-23,117c0,0,0,119,90,187c0,0,89,68,248,68c0,0,121,0,263,-32V771H654L628,893c0,0,-76,55,-188,55c0,0,-100,0,-156,-40c0,0,-56,-41,-56,-112c0,0,0,-49,22,-81c0,0,23,-32,60,-55c0,0,37,-22,84,-39c0,0,48,-16,97,-34c0,0,50,-17,97,-39c0,0,48,-22,85,-56c0,0,36,-34,59,-83c0,0,23,-49,23,-120c0,0,0,-145,-89,-224c0,0,-89,-79,-256,-79Z" 
id="f2_1j"
transform="scale(0.001,-0.001)" />

<path d="M327,-14L84,649L1,668v33H335V668L219,648L385,174L554,632h63L786,171L944,649L830,668v33h267V668l-78,-16L784,-14H726L553,448L382,-14Z" 
id="f2_2j"
transform="scale(0.001,-0.001)" />

<path d="M57,302V417H454V302Z" 
id="f2_h"
transform="scale(0.001,-0.001)" />

<path d="M13,0V34L95,46L325,350L122,649L40,668v33H357V668L264,648L399,446L554,649l-96,19v33H710V668L630,652L433,397L663,50L745,34V0H427V34l94,17L359,299L169,50L266,34V0Z" 
id="f2_2k"
transform="scale(0.001,-0.001)" />

<path d="M134,0V40L339,60V876L137,804v39l292,166h39V60L672,40V0Z" 
id="f2_l"
transform="scale(0.001,-0.001)" />

<path d="M350,-14c0,0,-142,0,-269,31L73,228h49L156,87c0,0,29,-16,82,-28c0,0,54,-12,100,-12c0,0,117,0,173,54c0,0,56,53,56,178c0,0,0,99,-52,150c0,0,-51,51,-159,56l-107,6v61l107,7c0,0,84,5,124,52c0,0,41,48,41,145c0,0,0,101,-44,147c0,0,-44,45,-139,45c0,0,-40,0,-83,-10c0,0,-43,-11,-76,-29L153,786H104V979c0,0,74,19,127,26c0,0,54,6,107,6c0,0,321,0,321,-246c0,0,0,-104,-57,-165c0,0,-57,-62,-162,-77c0,0,136,-16,200,-78c0,0,64,-62,64,-173c0,0,0,-135,-92,-211c0,0,-93,-75,-262,-75Z" 
id="f2_n"
transform="scale(0.001,-0.001)" />

<path d="M62,-123V268c0,0,0,230,56,452c0,0,47,190,134,334c0,0,87,144,204,242c0,0,85,73,194,119l18,-16c0,0,-211,-145,-335,-339c0,0,-98,-156,-149,-374c0,0,-50,-218,-50,-403V-123Z" 
id="f6_4o"
transform="scale(0.001,-0.001)" />

<path d="M617,-123V283c0,0,0,236,-63,459c0,0,-63,223,-188,392c0,0,-108,146,-282,265l17,16c0,0,180,-76,320,-248c0,0,139,-172,204,-417c0,0,64,-245,64,-482V-123Z" 
id="f6_54"
transform="scale(0.001,-0.001)" />

<path d="M62,-123V1415h72V-123Z" 
id="f6_4p"
transform="scale(0.001,-0.001)" />

<path d="M617,-123V1415h72V-123Z" 
id="f6_55"
transform="scale(0.001,-0.001)" />

<path d="M650,-123c0,0,-180,75,-319,246c0,0,-140,172,-205,418c0,0,-64,245,-64,481v393h72V1007c0,0,0,-236,63,-459c0,0,63,-223,189,-391c0,0,108,-145,282,-265l-18,-15Z" 
id="f6_4q"
transform="scale(0.001,-0.001)" />

<path d="M101,-123l-17,15c0,0,210,144,334,339c0,0,99,156,149,373c0,0,50,218,50,403v408h72V1022c0,0,0,-230,-56,-451c0,0,-48,-191,-134,-335C499,236,412,92,295,-5c0,0,-84,-73,-194,-118Z" 
id="f6_56"
transform="scale(0.001,-0.001)" />

<path d="M410,-14c0,0,-86,0,-175,14C235,0,145,14,81,38V307h66L181,146c0,0,31,-37,94,-62c0,0,64,-24,132,-24c0,0,214,0,214,177c0,0,0,55,-41,93c0,0,-41,38,-128,68c0,0,-128,42,-185,68c0,0,-56,27,-95,63c0,0,-38,36,-62,87c0,0,-23,51,-23,125c0,0,0,132,90,201c0,0,90,69,263,69c0,0,125,0,278,-32V741H651L618,878c0,0,-76,56,-178,56c0,0,-92,0,-141,-34c0,0,-49,-34,-49,-104c0,0,0,-50,41,-86c0,0,41,-35,128,-63c0,0,171,-56,235,-97c0,0,64,-41,97,-103c0,0,34,-61,34,-143c0,0,0,-318,-375,-318Z" 
id="f4_1j"
transform="scale(0.001,-0.001)" />

<path d="M379,60c0,0,59,0,84,64c0,0,24,65,24,231c0,0,0,164,-24,227c0,0,-24,63,-84,63c0,0,-57,0,-80,-60c0,0,-22,-61,-22,-230c0,0,0,-173,23,-234c0,0,22,-61,79,-61Zm-2,-74c0,0,-161,0,-240,91c0,0,-79,91,-79,277c0,0,0,186,80,276c0,0,81,90,245,90c0,0,167,0,245,-93c0,0,78,-93,78,-273c0,0,0,-188,-81,-278c0,0,-81,-90,-248,-90Z" 
id="f4_2b"
transform="scale(0.001,-0.001)" />

<path d="M30,0V49l76,18V992l-72,18v50H322V67L398,49V0Z" 
id="f4_28"
transform="scale(0.001,-0.001)" />

<path d="M287,-18c0,0,-194,0,-194,206V634L23,652v49H309V217c0,0,0,-63,26,-98c0,0,27,-35,76,-35c0,0,57,0,113,25V634l-64,18v49H740V67L809,49V0H536L526,61L475,35c0,0,-104,-53,-188,-53Z" 
id="f4_2h"
transform="scale(0.001,-0.001)" />

<path d="M327,-14c0,0,-101,0,-156,45c0,0,-55,45,-55,131V624H25v48l108,29l87,159H332V701H480V624H332V176c0,0,0,-49,20,-73c0,0,20,-25,53,-25c0,0,40,0,97,12V26c0,0,-22,-15,-76,-27c0,0,-55,-13,-99,-13Z" 
id="f4_2g"
transform="scale(0.001,-0.001)" />

<path d="M34,0V49l76,18V634L38,652v49H325V67L402,49V0ZM217,831c0,0,-48,0,-81,33c0,0,-34,33,-34,82c0,0,0,48,34,81c0,0,34,33,81,33c0,0,48,0,81,-33c0,0,33,-33,33,-81c0,0,0,-47,-33,-81c0,0,-32,-34,-81,-34Z" 
id="f4_25"
transform="scale(0.001,-0.001)" />

<path d="M41,0V49l69,18V634L41,652v49H313l11,-61l50,26c0,0,105,54,188,54c0,0,194,0,194,-207V67L827,49V0H478V49l63,18V484c0,0,0,63,-27,98c0,0,-26,35,-75,35c0,0,-57,0,-114,-25V67L389,49V0Z" 
id="f4_2a"
transform="scale(0.001,-0.001)" />

<path d="M248,-20c0,0,-52,0,-87,34c0,0,-36,36,-36,88c0,0,0,52,36,88c0,0,35,36,87,36c0,0,52,0,88,-36c0,0,36,-36,36,-88c0,0,0,-51,-36,-87c0,0,-35,-35,-88,-35Zm0,488c0,0,-52,0,-87,36c0,0,-36,36,-36,88c0,0,0,52,35,88c0,0,35,36,88,36c0,0,53,0,89,-36c0,0,35,-37,35,-88c0,0,0,-51,-36,-87c0,0,-35,-37,-88,-37Z" 
id="f4_u"
transform="scale(0.001,-0.001)" />

<path d="M301,78c0,0,41,0,90,27c0,0,49,28,95,77l81,442c0,0,-26,18,-54,27c0,0,-27,10,-67,10c0,0,-70,0,-131,-55c0,0,-61,-55,-99,-152c0,0,-37,-97,-37,-201c0,0,0,-79,33,-127c0,0,33,-48,89,-48ZM245,-14c0,0,-91,0,-145,68c0,0,-54,69,-54,183c0,0,0,128,55,240c0,0,55,112,150,177c0,0,96,66,210,66c0,0,70,0,123,-18c0,0,3,36,51,306l-115,18l6,34H768L589,52L673,33L667,0H454l22,117C476,117,350,-14,245,-14Z" 
id="f5_20"
transform="scale(0.001,-0.001)" />

<path d="M44,0V40L172,60V941L44,960v40H794V760H745L721,922c0,0,-83,11,-241,11H316V543H586l23,119h48V354H609L586,475H316V67H513c0,0,193,0,252,12l43,185h49L843,0Z" 
id="f2_15"
transform="scale(0.001,-0.001)" />

<path d="M383,64c0,0,44,0,87,7c0,0,43,7,65,17V645c0,0,-67,13,-152,13c0,0,-194,0,-194,-309c0,0,0,-143,48,-214c0,0,47,-71,146,-71Zm56,-389v35l96,18V-77c0,0,0,73,7,124c0,0,-79,-61,-200,-61c0,0,-287,0,-287,362c0,0,0,180,81,276c0,0,81,96,237,96c0,0,84,0,166,-18l67,33h53V-272l77,-18v-35Z" 
id="f2_2d"
transform="scale(0.001,-0.001)" />

<path d="M382,45c0,0,188,0,188,314c0,0,0,143,-47,213c0,0,-46,69,-141,69c0,0,-87,0,-146,-24V58c0,0,67,-13,146,-13ZM25,-325v35l88,18V649L34,668v33H231l1,-41c0,0,31,27,84,43c0,0,53,17,107,17c0,0,134,0,208,-94c0,0,73,-93,73,-267c0,0,0,-178,-80,-276c0,0,-80,-97,-232,-97c0,0,-84,0,-160,16c0,0,4,-53,4,-84V-272l123,-18v-35Z" 
id="f2_2c"
transform="scale(0.001,-0.001)" />

<path d="M85,0L199,649l-96,19l6,33H332L218,52L335,33L329,0ZM297,849c0,0,-33,0,-57,24c0,0,-24,24,-24,57c0,0,0,33,24,57c0,0,24,24,57,24c0,0,33,0,57,-24c0,0,24,-24,24,-57c0,0,0,-33,-24,-57c0,0,-24,-24,-57,-24Z" 
id="f5_25"
transform="scale(0.001,-0.001)" />

<path d="M188,355c0,0,148,11,236,69c0,0,89,58,89,143c0,0,0,41,-23,68c0,0,-22,27,-66,27c0,0,-52,0,-101,-43c0,0,-49,-42,-85,-114c0,0,-36,-71,-50,-150ZM298,-14c0,0,-120,0,-186,67c0,0,-65,67,-65,193c0,0,0,125,53,232c0,0,52,108,145,175c0,0,94,67,196,67c0,0,92,0,147,-42c0,0,56,-43,56,-111c0,0,0,-102,-126,-173c0,0,-125,-72,-336,-86l-3,-54c0,0,0,-95,40,-143c0,0,40,-47,118,-47c0,0,67,0,124,22c0,0,57,23,106,52l22,-32c0,0,-69,-58,-146,-89c0,0,-76,-31,-145,-31Z" 
id="f5_21"
transform="scale(0.001,-0.001)" />

<path d="M54,0V40L172,60V941L44,960v40H794V760H745L721,922c0,0,-83,11,-241,11H316V516H611l23,120h46V328H634L611,449H316V60L483,40V0Z" 
id="f2_16"
transform="scale(0.001,-0.001)" />

<path d="M0,0V72H751V0ZM751,166L0,538v38L751,949V868L123,559L751,247V166Z" 
id="f6_2t"
transform="scale(0.001,-0.001)" />

<path d="M45,0V72H795V0Zm0,166v82L673,558L45,870v81L795,578V540L45,166Z" 
id="f6_39"
transform="scale(0.001,-0.001)" />

<path d="M44,0V40L172,60V941L44,960v40H445V960L316,941V549H787V941L659,960v40h400V960L930,941V60L1059,40V0H659V40L787,60V481H316V60L445,40V0Z" 
id="f2_18"
transform="scale(0.001,-0.001)" />

<path d="M420,-22L89,941L1,960v40H383V960L236,941L474,236L744,930h33L1037,236l227,705l-156,19v40h331V960l-87,-19L1025,-22H985L726,666L460,-22Z" 
id="f2_1n"
transform="scale(0.001,-0.001)" />

<path d="M395,-22L175,941L80,960l7,40H455l-7,-40L322,941L484,211L885,941L771,960l9,40h300l-7,-40L975,941L433,-22Z" 
id="f5_1m"
transform="scale(0.001,-0.001)" />

<path d="M62,0L176,649L88,668l6,33H301L278,543c0,0,55,84,124,130c0,0,69,47,138,47c0,0,37,0,59,-6L566,530H534l-28,95c0,0,-60,0,-124,-46c0,0,-63,-45,-116,-120L186,0Z" 
id="f5_2e"
transform="scale(0.001,-0.001)" />

<path d="M55,0L232,1008l-88,18l6,34H365L286,615L274,558c0,0,59,79,128,120c0,0,68,42,134,42c0,0,75,0,113,-41c0,0,38,-41,38,-117c0,0,0,-10,-3,-32c0,0,-3,-21,-81,-478L700,34L695,0H470l76,434c0,0,17,94,17,123c0,0,0,34,-18,55c0,0,-18,21,-56,21c0,0,-56,0,-121,-47c0,0,-65,-47,-107,-114L178,0Z" 
id="f5_24"
transform="scale(0.001,-0.001)" />

<path d="M81,0L258,1008l-96,18l6,34H391L214,52L331,33L325,0Z" 
id="f5_28"
transform="scale(0.001,-0.001)" />

<path d="M113,-203V1060H454v-35L232,994V-138l222,-30v-35Z" 
id="f2_1r"
transform="scale(0.001,-0.001)" />

<path d="M55,-203v35l222,30V994L55,1025v35H395V-203Z" 
id="f2_1t"
transform="scale(0.001,-0.001)" />

<path d="M945,-20c0,0,47,75,125,153H57v74H1147l108,91c0,0,23,19,95,72c0,0,-134,103,-203,166H57v72H1070c0,0,-78,78,-125,154h85c0,0,88,-107,217,-217c0,0,130,-110,206,-154V349c0,0,-101,-58,-219,-162c0,0,-118,-103,-204,-207Z" 
id="f6_4g"
transform="scale(0.001,-0.001)" />


</defs>
</svg>