<?xml version="1.0" encoding="UTF-8" standalone="no"?>
<!DOCTYPE svg PUBLIC "-//W3C//DTD SVG 1.1//EN"
"http://www.w3.org/Graphics/SVG/1.1/DTD/svg11.dtd">
<svg viewBox="0 0 909 1286" version="1.1" xmlns="http://www.w3.org/2000/svg" xmlns:xlink="http://www.w3.org/1999/xlink">
<defs>
<clipPath id="c0_112"><path d="M116.8,182.4V126.1H354.6v56.3Z" /></clipPath>
<clipPath id="c1_112"><path d="M86.4,235.6V182.8H258.2v52.8Z" /></clipPath>
<clipPath id="c2_112"><path d="M55.2,304.5v-68H409.9v68Z" /></clipPath>
<clipPath id="c3_112"><path d="M55.2,352.9v-48H298.7v48Z" /></clipPath>
<clipPath id="c4_112"><path d="M55.2,432.9V376.5H533.4v56.4Z" /></clipPath>
<clipPath id="c5_112"><path d="M55.2,484.2v-51H308v51Z" /></clipPath>
<clipPath id="c6_112"><path d="M55.2,540.6V484.9h288v55.7Z" /></clipPath>
<clipPath id="c7_112"><path d="M110.2,565.9v-25H184v25Z" /></clipPath>
<clipPath id="c8_112"><path d="M128.1,657.6v-68H368.8v68Z" /></clipPath>
<clipPath id="c9_112"><path d="M443.1,647V595.3h33.4V647Z" /></clipPath>
<clipPath id="c10_112"><path d="M112.8,710.4V680.5h137v29.9Z" /></clipPath>
<clipPath id="c11_112"><path d="M55.2,773.5V711.3H315.6v62.2Z" /></clipPath>
<clipPath id="c12_112"><path d="M55.2,844.6V774H396v70.6Z" /></clipPath>
<clipPath id="c13_112"><path d="M55.2,893.4V845.3H266.8v48.1Z" /></clipPath>
<clipPath id="c14_112"><path d="M55.2,946.9V894.2H301.3v52.7Z" /></clipPath>
<clipPath id="c15_112"><path d="M165.2,1009.6V986.3h16.4v23.3Z" /></clipPath>
<clipPath id="c16_112"><path d="M235.2,1009.6V986.3h16.4v23.3Z" /></clipPath>
<clipPath id="c17_112"><path d="M322.9,1009.6V986.3h16.4v23.3Z" /></clipPath>
<clipPath id="c18_112"><path d="M391.4,1009.6V986.3h16.4v23.3Z" /></clipPath>
<clipPath id="c19_112"><path d="M495.9,1024.6V970H656.6v54.6Z" /></clipPath>
<clipPath id="c20_112"><path d="M55.2,1096.1v-48H231.7v48Z" /></clipPath>
<clipPath id="c21_112"><path d="M55.2,1144.6v-48.1H221.3v48.1Z" /></clipPath>
<style type="text/css"><![CDATA[
.g0_112{
fill: #D9D9D9;
}
.g1_112{
fill: none;
stroke: #000000;
stroke-width: 0.7638889;
stroke-linecap: butt;
stroke-linejoin: miter;
}
.g2_112{
fill: none;
stroke: #000000;
stroke-width: 0.21348366;
stroke-linecap: square;
stroke-linejoin: round;
}
.g3_112{
}
.g4_112{
fill: none;
stroke: #000000;
stroke-width: 0.913695;
stroke-linecap: butt;
stroke-linejoin: round;
}
.g5_112{
fill: none;
stroke: #000000;
stroke-width: 0.21293584;
stroke-linecap: square;
stroke-linejoin: round;
}
.g6_112{
fill: none;
stroke: #000000;
stroke-width: 0.9113502;
stroke-linecap: butt;
stroke-linejoin: round;
}
.g7_112{
fill: none;
stroke: #000000;
stroke-width: 0.21225306;
stroke-linecap: square;
stroke-linejoin: round;
}
.g8_112{
fill: none;
stroke: #000000;
stroke-width: 0.908428;
stroke-linecap: butt;
stroke-linejoin: round;
}
.g9_112{
fill: none;
stroke: #000000;
stroke-width: 0.9120712;
stroke-linecap: butt;
stroke-linejoin: round;
}
.g10_112{
fill: none;
stroke: #000000;
stroke-width: 0.91255206;
stroke-linecap: butt;
stroke-linejoin: round;
}
.g11_112{
fill: none;
stroke: #000000;
stroke-width: 0.90717727;
stroke-linecap: butt;
stroke-linejoin: round;
}
.g12_112{
fill: none;
stroke: #000000;
stroke-width: 0.21222784;
stroke-linecap: square;
stroke-linejoin: round;
}
.g13_112{
fill: none;
stroke: #000000;
stroke-width: 0.90832007;
stroke-linecap: butt;
stroke-linejoin: round;
}
.g14_112{
fill: none;
stroke: #000000;
stroke-width: 0.21329011;
stroke-linecap: square;
stroke-linejoin: round;
}
.g15_112{
fill: none;
stroke: #000000;
stroke-width: 0.9128665;
stroke-linecap: butt;
stroke-linejoin: round;
}
.g16_112{
fill: none;
stroke: #000000;
stroke-width: 0.911345;
stroke-linecap: butt;
stroke-linejoin: round;
}
.g17_112{
fill: none;
stroke: #000000;
stroke-width: 0.21321093;
stroke-linecap: square;
stroke-linejoin: round;
}
.g18_112{
fill: none;
stroke: #000000;
stroke-width: 0.9125276;
stroke-linecap: butt;
stroke-linejoin: round;
}
.g19_112{
fill: none;
stroke: #000000;
stroke-width: 0.417877;
stroke-linecap: butt;
stroke-linejoin: round;
}
.g20_112{
fill: none;
stroke: #000000;
stroke-width: 0.9117275;
stroke-linecap: butt;
stroke-linejoin: round;
}
.g21_112{
fill: none;
stroke: #000000;
stroke-width: 0.90580624;
stroke-linecap: butt;
stroke-linejoin: round;
}
.g22_112{
fill: none;
stroke: #000000;
stroke-width: 0.91013855;
stroke-linecap: butt;
stroke-linejoin: round;
}
.g23_112{
fill: none;
stroke: #000000;
stroke-width: 0.21265271;
stroke-linecap: square;
stroke-linejoin: round;
}
.g24_112{
fill: none;
stroke: #000000;
stroke-width: 0.89947534;
stroke-linecap: butt;
stroke-linejoin: round;
}
.g25_112{
fill: none;
stroke: #000000;
stroke-width: 0.911709;
stroke-linecap: butt;
stroke-linejoin: round;
}
.g26_112{
fill: none;
stroke: #000000;
stroke-width: 0.90476984;
stroke-linecap: butt;
stroke-linejoin: round;
}
]]></style>
</defs>
<image preserveAspectRatio="none" x="747" y="1196" width="96" height="59" xlink:href="img/1.png" />
<image preserveAspectRatio="none" x="336" y="41" width="259" height="51" xlink:href="img/2.png" />
<image preserveAspectRatio="none" x="342" y="50" width="247" height="27" xlink:href="img/3.png" />
<image preserveAspectRatio="none" x="341" y="45" width="239" height="42" xlink:href="img/4.png" />
<g fill="#FFFFFF" >
<use xlink:href="#f0_j" transform="matrix(11.5,0,0,11.5,355.1,70.1)" />
<use xlink:href="#f0_i" transform="matrix(11.5,0,0,11.5,364.3,70.1)" />
<use xlink:href="#f0_2n" transform="matrix(11.5,0,0,11.5,374.1,70.1)" />
<use xlink:href="#f0_t" transform="matrix(11.5,0,0,11.5,382.6,70.1)" />
<use xlink:href="#f0_oj" transform="matrix(11.5,0,0,11.5,391,70.1)" />
<use xlink:href="#f0_3e" transform="matrix(11.5,0,0,11.5,396.5,70.1)" />
<use xlink:href="#f0_1c" transform="matrix(11.5,0,0,11.5,406.1,70.1)" />
<use xlink:href="#f0_1c" transform="matrix(11.5,0,0,11.5,410.8,70.1)" />
<use xlink:href="#f0_oj" transform="matrix(11.5,0,0,11.5,415.6,70.1)" />
<use xlink:href="#f0_rz" transform="matrix(11.5,0,0,11.5,421.1,70.1)" />
<use xlink:href="#f0_rx" transform="matrix(11.5,0,0,11.5,429.9,70.1)" />
<use xlink:href="#f0_ry" transform="matrix(11.5,0,0,11.5,438.7,70.1)" />
<use xlink:href="#f0_s2" transform="matrix(11.5,0,0,11.5,447.5,70.1)" />
<use xlink:href="#f0_t" transform="matrix(11.5,0,0,11.5,460.4,70.1)" />
<use xlink:href="#f0_3e" transform="matrix(11.5,0,0,11.5,468.8,70.1)" />
<use xlink:href="#f0_5" transform="matrix(11.5,0,0,11.5,478.3,70.1)" />
<use xlink:href="#f0_1x" transform="matrix(11.5,0,0,11.5,489,70.1)" />
<use xlink:href="#f0_1c" transform="matrix(11.5,0,0,11.5,504.4,70.1)" />
<use xlink:href="#f0_1y" transform="matrix(11.5,0,0,11.5,509.1,70.1)" />
<use xlink:href="#f0_5" transform="matrix(11.5,0,0,11.5,520.8,70.1)" />
<use xlink:href="#f0_2t" transform="matrix(11.5,0,0,11.5,531.5,70.1)" />
<use xlink:href="#f0_1c" transform="matrix(11.5,0,0,11.5,540.2,70.1)" />
<use xlink:href="#f0_24" transform="matrix(11.5,0,0,11.5,545,70.1)" />
<use xlink:href="#f0_1y" transform="matrix(11.5,0,0,11.5,556.7,70.1)" />
</g>
<image preserveAspectRatio="none" x="554" y="45" width="36" height="42" xlink:href="img/5.png" />
<g fill="#FFFFFF" >
<use xlink:href="#f1_q" transform="matrix(11,0,0,11,770.3,1227.6)" />
<use xlink:href="#f1_j" transform="matrix(11,0,0,11,783.5,1227.6)" />
<use xlink:href="#f1_l" transform="matrix(11,0,0,11,794.1,1227.6)" />
<use xlink:href="#f1_m" transform="matrix(11,0,0,11,802.9,1227.6)" />
</g>
<path fill-rule="evenodd" d="M52.8,1193.5H856.9v-.8H52.8v.8Z" class="g0_112" />
<path d="M37.9,99.4L873,98.5" class="g1_112" />
<g fill="#000000" >
<use xlink:href="#f2_1n" transform="matrix(12,0,0,12,55,154.8)" />
<use xlink:href="#f2_2e" transform="matrix(12,0,0,12,71.9,154.8)" />
<use xlink:href="#f2_25" transform="matrix(12,0,0,12,78.5,154.8)" />
<use xlink:href="#f2_2g" transform="matrix(12,0,0,12,82.9,154.8)" />
<use xlink:href="#f2_25" transform="matrix(12,0,0,12,88.7,154.8)" />
<use xlink:href="#f2_2a" transform="matrix(12,0,0,12,93.5,154.8)" />
<use xlink:href="#f2_23" transform="matrix(12,0,0,12,102.3,154.8)" />
</g>
<path d="M260.3,171.5l1.8,-1.3m.1,-.1l4.4,9.5m0,0l4.9,-24.9m0,-.1h77.4" class="g2_112" />
<path fill-rule="evenodd" d="M259.4,170.5l2.5,-1.7l3.9,7.9l4.6,-23.2h77.7v.9h-77l-4.8,24.5h-.9l-4.5,-8.8l-1.2,.9l-.3,-.5Z" class="g3_112" />
<path d="M258,151.2h91.5" class="g4_112" />
<g clip-path="url(#c0_112)">
<g fill="#000000" >
<use xlink:href="#f2_l" transform="matrix(7.3,0,0,6.9,148.6,147.6)" />
<use xlink:href="#f2_l" transform="matrix(7.3,0,0,6.9,247.1,147.6)" />
<use xlink:href="#f2_m" transform="matrix(7.3,0,0,6.9,340.3,165.4)" />
<use xlink:href="#f2_l" transform="matrix(12.7,0,0,12,299.1,144.1)" />
<use xlink:href="#f2_1z" transform="matrix(12.7,0,0,12,119.2,155.8)" />
<use xlink:href="#f2_2b" transform="matrix(12.7,0,0,12,127.2,155.8)" />
<use xlink:href="#f2_2g" transform="matrix(12.7,0,0,12,136.4,155.8)" />
<use xlink:href="#f2_c" transform="matrix(12.7,0,0,12,154.9,155.8)" />
<use xlink:href="#f2_l" transform="matrix(12.7,0,0,12,186.4,155.8)" />
<use xlink:href="#f2_d" transform="matrix(12.7,0,0,12,194.1,155.8)" />
<use xlink:href="#f2_2f" transform="matrix(12.7,0,0,12,218.5,155.8)" />
<use xlink:href="#f2_25" transform="matrix(12.7,0,0,12,225.7,155.8)" />
<use xlink:href="#f2_2a" transform="matrix(12.7,0,0,12,230.8,155.8)" />
<use xlink:href="#f2_l" transform="matrix(12.7,0,0,12,269.5,173.5)" />
<use xlink:href="#f2_c" transform="matrix(12.7,0,0,12,294.4,173.5)" />
<use xlink:href="#f2_l" transform="matrix(12.7,0,0,12,325.9,173.5)" />
<use xlink:href="#f2_d" transform="matrix(12.7,0,0,12,333.6,173.5)" />
<use xlink:href="#f3_2k" transform="matrix(12.7,0,0,12,162.4,155.8)" />
<use xlink:href="#f3_2k" transform="matrix(12.7,0,0,12,301.8,173.5)" />
<use xlink:href="#f4_h" transform="matrix(7.3,0,0,6.9,142.8,147.6)" />
<use xlink:href="#f4_h" transform="matrix(7.3,0,0,6.9,241.3,147.6)" />
<use xlink:href="#f4_f" transform="matrix(12.7,0,0,12,174.4,155.8)" />
<use xlink:href="#f4_x" transform="matrix(12.7,0,0,12,204.7,155.8)" />
<use xlink:href="#f4_f" transform="matrix(12.7,0,0,12,280.6,173.5)" />
<use xlink:href="#f4_f" transform="matrix(12.7,0,0,12,313.8,173.5)" />
</g>
</g>
<g fill="#000000" >
<use xlink:href="#f2_1x" transform="matrix(12,0,0,12,55,212.4)" />
<use xlink:href="#f2_2a" transform="matrix(12,0,0,12,63.1,212.4)" />
<use xlink:href="#f2_20" transform="matrix(12,0,0,12,71.9,212.4)" />
</g>
<path d="M199.4,226.5l1.8,-1.1m.1,0l4.4,8.1m0,.1L210.6,212m0,-.1H252" class="g5_112" />
<path fill-rule="evenodd" d="M198.5,225.6L201,224l3.9,6.9l4.6,-20.2h41.8v.9H210.1l-4.7,21.2h-.9L200,225.3l-1.2,.8l-.3,-.5Z" class="g3_112" />
<path d="M197.1,208.4h55.6" class="g6_112" />
<g clip-path="url(#c1_112)">
<g fill="#000000" >
<use xlink:href="#f2_l" transform="matrix(7.3,0,0,7.1,118.7,204.8)" />
<use xlink:href="#f2_l" transform="matrix(7.3,0,0,7.1,185.5,204.8)" />
<use xlink:href="#f2_m" transform="matrix(7.3,0,0,7.1,243.6,222.9)" />
<use xlink:href="#f2_l" transform="matrix(12.7,0,0,12.2,220.3,201.2)" />
<use xlink:href="#f2_2g" transform="matrix(12.7,0,0,12.2,89.4,213.1)" />
<use xlink:href="#f2_1x" transform="matrix(12.7,0,0,12.2,94.5,213.1)" />
<use xlink:href="#f2_2a" transform="matrix(12.7,0,0,12.2,102.5,213.1)" />
<use xlink:href="#f2_1z" transform="matrix(12.7,0,0,12.2,154.7,213.1)" />
<use xlink:href="#f2_2b" transform="matrix(12.7,0,0,12.2,162.7,213.1)" />
<use xlink:href="#f2_2f" transform="matrix(12.7,0,0,12.2,171.9,213.1)" />
<use xlink:href="#f2_l" transform="matrix(12.7,0,0,12.2,208.6,231.1)" />
<use xlink:href="#f3_2k" transform="matrix(12.7,0,0,12.2,127.8,213.1)" />
<use xlink:href="#f3_2k" transform="matrix(12.7,0,0,12.2,234.6,231.1)" />
<use xlink:href="#f4_h" transform="matrix(7.3,0,0,7.1,113,204.8)" />
<use xlink:href="#f4_h" transform="matrix(7.3,0,0,7.1,179.8,204.8)" />
<use xlink:href="#f4_x" transform="matrix(12.7,0,0,12.2,140.6,213.1)" />
<use xlink:href="#f4_f" transform="matrix(12.7,0,0,12.2,219.7,231.1)" />
</g>
</g>
<path d="M146.6,291.9l1.8,-1.3m0,-.1l4.5,9.6m0,.1l4.8,-25.4m0,-.1h77.5" class="g7_112" />
<path fill-rule="evenodd" d="M145.6,290.9l2.6,-1.8l3.9,8.1l4.5,-23.7h77.8v1H157.3l-4.7,24.9h-.9l-4.5,-9l-1.2,1l-.4,-.5Z" class="g3_112" />
<path d="M144.2,271.3h91.6" class="g8_112" />
<path d="M343.3,289.4l1.9,-1.2m0,0l4.5,8.2m0,0l4.8,-21.6m0,-.1h41.6" class="g7_112" />
<path fill-rule="evenodd" d="M342.4,288.4l2.5,-1.6l4,7l4.5,-20.3h41.9v1H354.1l-4.8,21.2h-.8L344,288.1l-1.3,.8l-.3,-.5Z" class="g3_112" />
<path d="M341,271.3h55.8" class="g8_112" />
<g clip-path="url(#c2_112)">
<g fill="#000000" >
<use xlink:href="#f2_l" transform="matrix(7.3,0,0,7.1,135.7,267.6)" />
<use xlink:href="#f2_l" transform="matrix(7.3,0,0,7.1,332.4,267.6)" />
<use xlink:href="#f2_m" transform="matrix(7.3,0,0,7.1,226.7,285.7)" />
<use xlink:href="#f2_m" transform="matrix(7.3,0,0,7.1,387.6,285.7)" />
<use xlink:href="#f2_l" transform="matrix(12.6,0,0,12.3,185.4,264.1)" />
<use xlink:href="#f2_l" transform="matrix(12.6,0,0,12.3,364.3,264.1)" />
<use xlink:href="#f2_2f" transform="matrix(12.6,0,0,12.3,72.2,275.9)" />
<use xlink:href="#f2_25" transform="matrix(12.6,0,0,12.3,79.3,275.9)" />
<use xlink:href="#f2_2a" transform="matrix(12.6,0,0,12.3,84.5,275.9)" />
<use xlink:href="#f2_2f" transform="matrix(12.6,0,0,12.3,107.1,275.9)" />
<use xlink:href="#f2_25" transform="matrix(12.6,0,0,12.3,114.2,275.9)" />
<use xlink:href="#f2_2a" transform="matrix(12.6,0,0,12.3,119.4,275.9)" />
<use xlink:href="#f2_1z" transform="matrix(12.6,0,0,12.3,264,275.9)" />
<use xlink:href="#f2_2b" transform="matrix(12.6,0,0,12.3,272,275.9)" />
<use xlink:href="#f2_2f" transform="matrix(12.6,0,0,12.3,281.2,275.9)" />
<use xlink:href="#f2_1z" transform="matrix(12.6,0,0,12.3,301.5,275.9)" />
<use xlink:href="#f2_2b" transform="matrix(12.6,0,0,12.3,309.5,275.9)" />
<use xlink:href="#f2_2f" transform="matrix(12.6,0,0,12.3,318.6,275.9)" />
<use xlink:href="#f2_l" transform="matrix(12.6,0,0,12.3,155.8,294)" />
<use xlink:href="#f2_c" transform="matrix(12.6,0,0,12.3,180.6,294)" />
<use xlink:href="#f2_l" transform="matrix(12.6,0,0,12.3,212.1,294)" />
<use xlink:href="#f2_d" transform="matrix(12.6,0,0,12.3,219.8,294)" />
<use xlink:href="#f2_l" transform="matrix(12.6,0,0,12.3,352.4,294)" />
<use xlink:href="#f3_2k" transform="matrix(12.6,0,0,12.3,188.1,294)" />
<use xlink:href="#f3_2k" transform="matrix(12.6,0,0,12.3,378.6,294)" />
<use xlink:href="#f4_h" transform="matrix(7.3,0,0,7.1,129.9,267.6)" />
<use xlink:href="#f4_h" transform="matrix(7.3,0,0,7.1,326.7,267.6)" />
<use xlink:href="#f4_4o" transform="matrix(12.6,0,0,12.3,98.1,258.6)" />
<use xlink:href="#f4_54" transform="matrix(12.6,0,0,12.3,238.5,258.6)" />
<use xlink:href="#f4_4o" transform="matrix(12.6,0,0,12.3,292.4,262.4)" />
<use xlink:href="#f4_54" transform="matrix(12.6,0,0,12.3,399.5,262.4)" />
<use xlink:href="#f4_4p" transform="matrix(12.6,0,0,12.3,98.1,275.5)" />
<use xlink:href="#f4_55" transform="matrix(12.6,0,0,12.3,238.5,275.5)" />
<use xlink:href="#f4_1s" transform="matrix(12.6,0,0,12.3,55.1,275.9)" />
<use xlink:href="#f4_x" transform="matrix(12.6,0,0,12.3,249.9,275.9)" />
<use xlink:href="#f4_4p" transform="matrix(12.6,0,0,12.3,292.4,279.3)" />
<use xlink:href="#f4_55" transform="matrix(12.6,0,0,12.3,399.5,279.3)" />
<use xlink:href="#f4_4p" transform="matrix(12.6,0,0,12.3,98.1,287.9)" />
<use xlink:href="#f4_55" transform="matrix(12.6,0,0,12.3,238.5,287.9)" />
<use xlink:href="#f4_f" transform="matrix(12.6,0,0,12.3,166.9,294)" />
<use xlink:href="#f4_f" transform="matrix(12.6,0,0,12.3,200.1,294)" />
<use xlink:href="#f4_f" transform="matrix(12.6,0,0,12.3,363.7,294)" />
<use xlink:href="#f4_4q" transform="matrix(12.6,0,0,12.3,292.4,295.7)" />
<use xlink:href="#f4_56" transform="matrix(12.6,0,0,12.3,399.5,295.7)" />
<use xlink:href="#f4_4q" transform="matrix(12.6,0,0,12.3,98.1,299.4)" />
<use xlink:href="#f4_56" transform="matrix(12.6,0,0,12.3,238.5,299.4)" />
</g>
</g>
<path d="M283.2,330.4h10.9" class="g9_112" />
<g clip-path="url(#c3_112)">
<g fill="#000000" >
<use xlink:href="#f2_m" transform="matrix(7.4,0,0,7,91,326.8)" />
<use xlink:href="#f2_m" transform="matrix(7.4,0,0,7,209.4,326.8)" />
<use xlink:href="#f2_l" transform="matrix(12.7,0,0,12.2,284.1,323.3)" />
<use xlink:href="#f2_l" transform="matrix(12.7,0,0,12.2,55.9,335)" />
<use xlink:href="#f2_m" transform="matrix(12.7,0,0,12.2,115.5,335)" />
<use xlink:href="#f2_l" transform="matrix(12.7,0,0,12.2,149.8,335)" />
<use xlink:href="#f2_l" transform="matrix(12.7,0,0,12.2,174.2,335)" />
<use xlink:href="#f2_m" transform="matrix(12.7,0,0,12.2,284.4,349.5)" />
<use xlink:href="#f3_2k" transform="matrix(12.7,0,0,12.2,82,335)" />
<use xlink:href="#f3_2k" transform="matrix(12.7,0,0,12.2,125.9,335)" />
<use xlink:href="#f3_2k" transform="matrix(12.7,0,0,12.2,200.3,335)" />
<use xlink:href="#f3_2k" transform="matrix(12.7,0,0,12.2,243.4,335)" />
<use xlink:href="#f4_f" transform="matrix(12.7,0,0,12.2,67.1,335)" />
<use xlink:href="#f4_f" transform="matrix(12.7,0,0,12.2,101.6,335)" />
<use xlink:href="#f4_f" transform="matrix(12.7,0,0,12.2,137.9,335)" />
<use xlink:href="#f4_x" transform="matrix(12.7,0,0,12.2,161.8,335)" />
<use xlink:href="#f4_f" transform="matrix(12.7,0,0,12.2,185.4,335)" />
<use xlink:href="#f4_4g" transform="matrix(12.7,0,0,12.2,220,335)" />
<use xlink:href="#f4_x" transform="matrix(12.7,0,0,12.2,256.2,335)" />
<use xlink:href="#f4_h" transform="matrix(12.7,0,0,12.2,270.6,335)" />
</g>
</g>
<g fill="#000000" >
<use xlink:href="#f5_1f" transform="matrix(12,0,0,12,440.9,371.9)" />
<use xlink:href="#f5_1i" transform="matrix(12,0,0,12,455.2,371.9)" />
</g>
<g clip-path="url(#c4_112)">
<g fill="#000000" >
<use xlink:href="#f4_c" transform="matrix(12.5,0,0,19,57.4,414.4)" />
<use xlink:href="#f4_d" transform="matrix(12.5,0,0,19,113.4,414.4)" />
<use xlink:href="#f4_c" transform="matrix(12.5,0,0,19,143.9,414.4)" />
<use xlink:href="#f4_d" transform="matrix(12.5,0,0,19,199.3,414.4)" />
</g>
</g>
<path d="M232,407.6h29.7" class="g10_112" />
<g clip-path="url(#c4_112)">
<g fill="#000000" >
<use xlink:href="#f4_c" transform="matrix(12.5,0,0,19,288.2,414.4)" />
<use xlink:href="#f4_d" transform="matrix(12.5,0,0,19,344.2,414.4)" />
</g>
</g>
<path d="M384.6,407.6h13.5m101.2,0h29.6" class="g10_112" />
<g clip-path="url(#c4_112)">
<g fill="#000000" >
<use xlink:href="#f2_m" transform="matrix(7.3,0,0,6.9,473,389.7)" />
<use xlink:href="#f2_m" transform="matrix(7.3,0,0,6.9,253.9,392.5)" />
<use xlink:href="#f2_m" transform="matrix(7.3,0,0,6.9,521.2,392.5)" />
<use xlink:href="#f2_m" transform="matrix(7.3,0,0,6.9,119.8,399)" />
<use xlink:href="#f2_m" transform="matrix(7.3,0,0,6.9,205.8,399)" />
<use xlink:href="#f2_m" transform="matrix(7.3,0,0,6.9,350.6,399)" />
<use xlink:href="#f2_l" transform="matrix(7.3,0,0,6.9,94.7,404.1)" />
<use xlink:href="#f2_l" transform="matrix(7.3,0,0,6.9,180.6,404.1)" />
<use xlink:href="#f2_l" transform="matrix(7.3,0,0,6.9,325.5,404.1)" />
<use xlink:href="#f2_l" transform="matrix(7.3,0,0,6.9,445.8,404.1)" />
<use xlink:href="#f2_p" transform="matrix(12.7,0,0,12,232.6,400.6)" />
<use xlink:href="#f2_p" transform="matrix(12.7,0,0,12,499.8,400.6)" />
<use xlink:href="#f2_2g" transform="matrix(12.7,0,0,12,65.2,412.2)" />
<use xlink:href="#f2_1x" transform="matrix(12.7,0,0,12,70.4,412.2)" />
<use xlink:href="#f2_2a" transform="matrix(12.7,0,0,12,78.4,412.2)" />
<use xlink:href="#f2_1z" transform="matrix(12.7,0,0,12,151.2,412.2)" />
<use xlink:href="#f2_2b" transform="matrix(12.7,0,0,12,159.2,412.2)" />
<use xlink:href="#f2_2g" transform="matrix(12.7,0,0,12,168.4,412.2)" />
<use xlink:href="#f2_2g" transform="matrix(12.7,0,0,12,295.9,412.2)" />
<use xlink:href="#f2_1x" transform="matrix(12.7,0,0,12,301.1,412.2)" />
<use xlink:href="#f2_2a" transform="matrix(12.7,0,0,12,309.1,412.2)" />
<use xlink:href="#f2_2g" transform="matrix(12.7,0,0,12,416.3,412.2)" />
<use xlink:href="#f2_1x" transform="matrix(12.7,0,0,12,421.5,412.2)" />
<use xlink:href="#f2_2a" transform="matrix(12.7,0,0,12,429.5,412.2)" />
<use xlink:href="#f2_s" transform="matrix(12.7,0,0,12,242.2,426.5)" />
<use xlink:href="#f2_m" transform="matrix(12.7,0,0,12,387,426.5)" />
<use xlink:href="#f2_s" transform="matrix(12.7,0,0,12,509.4,426.5)" />
<use xlink:href="#f3_2k" transform="matrix(12.7,0,0,12,103.8,412.2)" />
<use xlink:href="#f3_2k" transform="matrix(12.7,0,0,12,189.8,412.2)" />
<use xlink:href="#f3_2k" transform="matrix(12.7,0,0,12,334.6,412.2)" />
<use xlink:href="#f3_2k" transform="matrix(12.7,0,0,12,454.9,412.2)" />
<use xlink:href="#f4_2c" transform="matrix(12.7,0,-4.2,12,240.6,400.6)" />
<use xlink:href="#f4_2c" transform="matrix(12.7,0,-4.2,12,384.6,400.6)" />
<use xlink:href="#f4_2c" transform="matrix(12.7,0,-4.2,12,507.8,400.6)" />
<use xlink:href="#f4_h" transform="matrix(7.3,0,0,6.9,88.9,404.1)" />
<use xlink:href="#f4_h" transform="matrix(7.3,0,0,6.9,174.9,404.1)" />
<use xlink:href="#f4_h" transform="matrix(7.3,0,0,6.9,319.7,404.1)" />
<use xlink:href="#f4_h" transform="matrix(7.3,0,0,6.9,440.1,404.1)" />
<use xlink:href="#f4_4o" transform="matrix(12.7,0,0,12,374.7,402)" />
<use xlink:href="#f4_54" transform="matrix(12.7,0,0,12,465.4,402)" />
<use xlink:href="#f4_f" transform="matrix(12.7,0,0,12,130.4,412.2)" />
<use xlink:href="#f4_x" transform="matrix(12.7,0,0,12,217.1,412.2)" />
<use xlink:href="#f4_4g" transform="matrix(12.7,0,0,12,266.1,412.2)" />
<use xlink:href="#f4_f" transform="matrix(12.7,0,0,12,361.2,412.2)" />
<use xlink:href="#f4_h" transform="matrix(12.7,0,0,12,402.3,412.2)" />
<use xlink:href="#f4_x" transform="matrix(12.7,0,0,12,484.3,412.2)" />
<use xlink:href="#f4_4p" transform="matrix(12.7,0,0,12,374.7,417.2)" />
<use xlink:href="#f4_55" transform="matrix(12.7,0,0,12,465.4,417.2)" />
<use xlink:href="#f4_4q" transform="matrix(12.7,0,0,12,374.7,428.6)" />
<use xlink:href="#f4_56" transform="matrix(12.7,0,0,12,465.4,428.6)" />
</g>
</g>
<g clip-path="url(#c5_112)">
<g fill="#000000" >
<use xlink:href="#f4_c" transform="matrix(12.4,0,0,19.2,83.1,468.6)" />
<use xlink:href="#f4_d" transform="matrix(12.4,0,0,19.2,138.8,468.6)" />
</g>
</g>
<path d="M247.5,461.7h29.3" class="g11_112" />
<g clip-path="url(#c5_112)">
<g fill="#000000" >
<use xlink:href="#f2_m" transform="matrix(7.3,0,0,7,269.1,446.4)" />
<use xlink:href="#f2_m" transform="matrix(7.3,0,0,7,145.1,453)" />
<use xlink:href="#f2_l" transform="matrix(7.3,0,0,7,120.2,458.1)" />
<use xlink:href="#f2_l" transform="matrix(7.3,0,0,7,212.5,458.1)" />
<use xlink:href="#f2_n" transform="matrix(12.6,0,0,12.2,248.1,454.6)" />
<use xlink:href="#f2_m" transform="matrix(12.6,0,0,12.2,72.7,466.3)" />
<use xlink:href="#f2_2g" transform="matrix(12.6,0,0,12.2,90.9,466.3)" />
<use xlink:href="#f2_1x" transform="matrix(12.6,0,0,12.2,96.1,466.3)" />
<use xlink:href="#f2_2a" transform="matrix(12.6,0,0,12.2,104,466.3)" />
<use xlink:href="#f2_2g" transform="matrix(12.6,0,0,12.2,183.2,466.3)" />
<use xlink:href="#f2_1x" transform="matrix(12.6,0,0,12.2,188.4,466.3)" />
<use xlink:href="#f2_2a" transform="matrix(12.6,0,0,12.2,196.4,466.3)" />
<use xlink:href="#f2_k" transform="matrix(12.6,0,0,12.2,295.9,466.3)" />
<use xlink:href="#f2_s" transform="matrix(12.6,0,0,12.2,257.6,480.8)" />
<use xlink:href="#f3_2k" transform="matrix(12.6,0,0,12.2,129.2,466.3)" />
<use xlink:href="#f3_2k" transform="matrix(12.6,0,0,12.2,221.6,466.3)" />
<use xlink:href="#f4_2c" transform="matrix(12.6,0,-4.2,12.2,255.8,454.6)" />
<use xlink:href="#f4_2c" transform="matrix(12.6,0,-4.2,12.2,168.2,466.3)" />
<use xlink:href="#f4_h" transform="matrix(7.3,0,0,7,114.4,458.1)" />
<use xlink:href="#f4_h" transform="matrix(7.3,0,0,7,206.8,458.1)" />
<use xlink:href="#f4_1s" transform="matrix(12.6,0,0,12.2,55.1,466.3)" />
<use xlink:href="#f4_h" transform="matrix(12.6,0,0,12.2,155.7,466.3)" />
<use xlink:href="#f4_h" transform="matrix(12.6,0,0,12.2,233.5,466.3)" />
<use xlink:href="#f4_x" transform="matrix(12.6,0,0,12.2,281.8,466.3)" />
</g>
</g>
<path d="M156.1,505.4l1.8,-1.2m0,0l4.5,8.4m0,0l4.9,-22.2m0,0h65.9" class="g12_112" />
<path fill-rule="evenodd" d="M155.1,504.4l2.6,-1.5l3.9,7l4.5,-20.7h66.3v1H166.8l-4.7,21.7h-.9l-4.5,-7.8l-1.3,.9l-.3,-.6Z" class="g3_112" />
<path d="M124.4,517.5H233.8m53.6,-14.8l-23.3,33.7m73.7,-33.7l-20.3,29.2" class="g13_112" />
<g clip-path="url(#c6_112)">
<g fill="#000000" >
<use xlink:href="#f2_m" transform="matrix(7.3,0,0,7.3,179.5,501.7)" />
<use xlink:href="#f2_m" transform="matrix(7.3,0,0,7.3,224.7,501.7)" />
<use xlink:href="#f2_l" transform="matrix(7.3,0,0,7.3,87.7,513.8)" />
<use xlink:href="#f2_n" transform="matrix(12.6,0,0,12.5,203.6,510.1)" />
<use xlink:href="#f2_2g" transform="matrix(12.6,0,0,12.5,58.2,522.2)" />
<use xlink:href="#f2_1x" transform="matrix(12.6,0,0,12.5,63.4,522.2)" />
<use xlink:href="#f2_2a" transform="matrix(12.6,0,0,12.5,71.4,522.2)" />
<use xlink:href="#f2_n" transform="matrix(12.6,0,0,12.5,252.9,522.2)" />
<use xlink:href="#f2_o" transform="matrix(12.6,0,0,12.5,278.8,531.9)" />
<use xlink:href="#f2_g" transform="matrix(12.6,0,0,12.5,287.7,531.9)" />
<use xlink:href="#f2_o" transform="matrix(12.6,0,0,12.5,329.1,531.9)" />
<use xlink:href="#f2_o" transform="matrix(12.6,0,0,12.5,174.9,537.2)" />
<use xlink:href="#f3_2k" transform="matrix(12.6,0,0,12.5,96.8,522.2)" />
<use xlink:href="#f4_2c" transform="matrix(12.6,0,-4.2,12.5,124.4,510.1)" />
<use xlink:href="#f4_2c" transform="matrix(12.6,0,-4.2,12.5,166.1,510.1)" />
<use xlink:href="#f4_2c" transform="matrix(12.6,0,-4.2,12.5,211.3,510.1)" />
<use xlink:href="#f4_2c" transform="matrix(12.6,0,-4.2,12.5,263.3,517.2)" />
<use xlink:href="#f4_2c" transform="matrix(12.6,0,-4.2,12.5,313.7,517.2)" />
<use xlink:href="#f4_h" transform="matrix(7.3,0,0,7.3,81.9,513.8)" />
<use xlink:href="#f4_37" transform="matrix(12.6,0,0,12.5,140.8,510.1)" />
<use xlink:href="#f4_f" transform="matrix(12.6,0,0,12.5,190.1,510.1)" />
<use xlink:href="#f4_x" transform="matrix(12.6,0,0,12.5,109.6,522.2)" />
<use xlink:href="#f4_x" transform="matrix(12.6,0,0,12.5,238.9,522.2)" />
<use xlink:href="#f4_h" transform="matrix(12.6,0,0,12.5,301,522.2)" />
</g>
</g>
<g clip-path="url(#c7_112)">
<g fill="#000000" >
<use xlink:href="#f2_l" transform="matrix(12.7,0,0,12,172.6,558.6)" />
<use xlink:href="#f3_2k" transform="matrix(12.7,0,0,12,135.6,558.6)" />
<use xlink:href="#f4_4g" transform="matrix(12.7,0,0,12,112.4,558.6)" />
<use xlink:href="#f4_x" transform="matrix(12.7,0,0,12,148.3,558.6)" />
<use xlink:href="#f4_h" transform="matrix(12.7,0,0,12,162.7,558.6)" />
</g>
</g>
<g fill="#000000" >
<use xlink:href="#f5_l" transform="matrix(12,0,0,12,55,628.6)" />
<use xlink:href="#f5_p" transform="matrix(12,0,0,12,64.2,628.6)" />
<use xlink:href="#f5_i" transform="matrix(12,0,0,12,73.4,628.6)" />
<use xlink:href="#f2_19" transform="matrix(12,0,0,12,82.9,628.6)" />
<use xlink:href="#f2_22" transform="matrix(12,0,0,12,89.1,628.6)" />
<use xlink:href="#f2_2l" transform="matrix(12,0,0,12,99.8,628.6)" />
<use xlink:href="#f2_x" transform="matrix(12,0,0,12,113,628.6)" />
</g>
<path d="M180,611.9l1.7,-1.2m.1,0l4.4,8.6m0,0l4.9,-22.8m0,0H232" class="g14_112" />
<path fill-rule="evenodd" d="M179,610.9l2.5,-1.6l4,7.2L190,595.3h41.3v.9H190.7L186,618.5h-1l-4.5,-7.9l-1.1,.9l-.4,-.6Z" class="g3_112" />
<path d="M249.2,611.9l1.8,-1.2m.1,0l4.4,8.6m0,0l4.9,-22.8m0,0h40" class="g14_112" />
<path fill-rule="evenodd" d="M248.3,610.9l2.5,-1.6l4,7.2l4.5,-21.2h40.4v.9H260l-4.8,22.3h-.9l-4.4,-7.9l-1.3,.9l-.3,-.6Z" class="g3_112" />
<path d="M180.4,643.2l1.8,-1.2m0,0l4.5,8.6m0,0l4.8,-22.7m0,-.1h40.9" class="g14_112" />
<path fill-rule="evenodd" d="M179.4,642.2l2.6,-1.6l3.9,7.2l4.5,-21.2h41.3v.9H191.1l-4.7,22.4h-.9l-4.5,-8l-1.2,.9l-.4,-.6Z" class="g3_112" />
<path d="M248.8,643.2l1.8,-1.2m.1,0l4.4,8.6m0,0l4.8,-22.7m0,-.1H300" class="g14_112" />
<path fill-rule="evenodd" d="M247.9,642.2l2.5,-1.6l3.9,7.2l4.6,-21.2h40.4v.9H259.5l-4.7,22.4h-.9l-4.5,-8l-1.2,.9l-.3,-.6Z" class="g3_112" />
<path d="M177.6,624.3H301.1" class="g15_112" />
<g clip-path="url(#c8_112)">
<g fill="#000000" >
<use xlink:href="#f2_m" transform="matrix(7.3,0,0,7.1,223.5,608.9)" />
<use xlink:href="#f2_m" transform="matrix(7.3,0,0,7.1,292,608.9)" />
<use xlink:href="#f2_l" transform="matrix(7.3,0,0,7.1,160.1,620.7)" />
<use xlink:href="#f2_m" transform="matrix(7.3,0,0,7.1,329.5,620.7)" />
<use xlink:href="#f2_m" transform="matrix(7.3,0,0,7.1,223.9,640.2)" />
<use xlink:href="#f2_m" transform="matrix(7.3,0,0,7.1,291.5,640.2)" />
<use xlink:href="#f2_l" transform="matrix(12.6,0,0,12.3,189.1,617.1)" />
<use xlink:href="#f2_f" transform="matrix(12.6,0,0,12.3,199.5,617.1)" />
<use xlink:href="#f2_2k" transform="matrix(12.6,0,0,12.3,213,617.1)" />
<use xlink:href="#f2_f" transform="matrix(12.6,0,0,12.3,234.7,617.1)" />
<use xlink:href="#f2_l" transform="matrix(12.6,0,0,12.3,258.3,617.1)" />
<use xlink:href="#f2_2k" transform="matrix(12.6,0,0,12.3,281.4,617.1)" />
<use xlink:href="#f2_2g" transform="matrix(12.6,0,0,12.3,131.2,628.9)" />
<use xlink:href="#f2_1x" transform="matrix(12.6,0,0,12.3,136.3,628.9)" />
<use xlink:href="#f2_2a" transform="matrix(12.6,0,0,12.3,144.3,628.9)" />
<use xlink:href="#f2_g" transform="matrix(12.6,0,0,12.3,312.2,628.9)" />
<use xlink:href="#f2_2k" transform="matrix(12.6,0,0,12.3,319,628.9)" />
<use xlink:href="#f2_l" transform="matrix(12.6,0,0,12.3,351.4,628.9)" />
<use xlink:href="#f2_g" transform="matrix(12.6,0,0,12.3,360.6,628.9)" />
<use xlink:href="#f2_l" transform="matrix(12.6,0,0,12.3,189.6,648.4)" />
<use xlink:href="#f2_f" transform="matrix(12.6,0,0,12.3,199.9,648.4)" />
<use xlink:href="#f2_2k" transform="matrix(12.6,0,0,12.3,213.4,648.4)" />
<use xlink:href="#f2_l" transform="matrix(12.6,0,0,12.3,257.9,648.4)" />
<use xlink:href="#f2_2k" transform="matrix(12.6,0,0,12.3,281,648.4)" />
<use xlink:href="#f4_2t" transform="matrix(12.6,0,0,12.3,339.8,628.9)" />
</g>
</g>
<image preserveAspectRatio="none" x="155" y="613" width="42" height="11" xlink:href="img/6.png" />
<image preserveAspectRatio="none" x="168" y="594" width="257" height="19" xlink:href="img/7.png" />
<image preserveAspectRatio="none" x="269" y="604" width="73" height="18" xlink:href="img/8.png" />
<image preserveAspectRatio="none" x="168" y="607" width="257" height="19" xlink:href="img/9.png" />
<image preserveAspectRatio="none" x="168" y="622" width="257" height="18" xlink:href="img/10.png" />
<image preserveAspectRatio="none" x="168" y="628" width="257" height="19" xlink:href="img/11.png" />
<image preserveAspectRatio="none" x="235" y="635" width="105" height="19" xlink:href="img/12.png" />
<image preserveAspectRatio="none" x="168" y="640" width="257" height="19" xlink:href="img/13.png" />
<g fill="#000000" >
<use xlink:href="#f2_2g" transform="matrix(12,0,0,12,372.7,628.6)" />
<use xlink:href="#f2_24" transform="matrix(12,0,0,12,378.2,628.6)" />
<use xlink:href="#f2_21" transform="matrix(12,0,0,12,387,628.6)" />
<use xlink:href="#f2_2a" transform="matrix(12,0,0,12,395.4,628.6)" />
<use xlink:href="#f2_22" transform="matrix(12,0,0,12,409.4,628.6)" />
<use xlink:href="#f2_25" transform="matrix(12,0,0,12,415.2,628.6)" />
<use xlink:href="#f2_2a" transform="matrix(12,0,0,12,420,628.6)" />
<use xlink:href="#f2_20" transform="matrix(12,0,0,12,429.2,628.6)" />
</g>
<path d="M446.1,624.2h20.5" class="g16_112" />
<g clip-path="url(#c9_112)">
<g fill="#000000" >
<use xlink:href="#f2_20" transform="matrix(12.7,0,0,12.3,447.3,617)" />
<use xlink:href="#f2_2l" transform="matrix(12.7,0,0,12.3,456.4,617)" />
<use xlink:href="#f2_i" transform="matrix(12.7,0,0,12.3,468.3,628.9)" />
<use xlink:href="#f2_20" transform="matrix(12.7,0,0,12.3,447,643.6)" />
<use xlink:href="#f2_2k" transform="matrix(12.7,0,0,12.3,456.1,643.6)" />
</g>
</g>
<g fill="#000000" >
<use xlink:href="#f5_1j" transform="matrix(12,0,0,12,55,676.3)" />
<use xlink:href="#f5_2b" transform="matrix(12,0,0,12,65.3,676.3)" />
<use xlink:href="#f5_28" transform="matrix(12,0,0,12,74.5,676.3)" />
<use xlink:href="#f5_2h" transform="matrix(12,0,0,12,79.2,676.3)" />
<use xlink:href="#f5_2g" transform="matrix(12,0,0,12,89.5,676.3)" />
<use xlink:href="#f5_25" transform="matrix(12,0,0,12,95.7,676.3)" />
<use xlink:href="#f5_2b" transform="matrix(12,0,0,12,100.8,676.3)" />
<use xlink:href="#f5_2a" transform="matrix(12,0,0,12,109.9,676.3)" />
<use xlink:href="#f5_u" transform="matrix(12,0,0,12,120.2,676.3)" />
<use xlink:href="#f2_1g" transform="matrix(12,0,0,12,55,702.7)" />
<use xlink:href="#f2_2h" transform="matrix(12,0,0,12,65.3,702.7)" />
<use xlink:href="#f2_2g" transform="matrix(12,0,0,12,74.5,702.7)" />
<use xlink:href="#f2_2g" transform="matrix(12,0,0,12,79.6,702.7)" />
<use xlink:href="#f2_25" transform="matrix(12,0,0,12,85.1,702.7)" />
<use xlink:href="#f2_2a" transform="matrix(12,0,0,12,89.5,702.7)" />
<use xlink:href="#f2_23" transform="matrix(12,0,0,12,98.3,702.7)" />
</g>
<g clip-path="url(#c10_112)">
<g fill="#000000" >
<use xlink:href="#f2_m" transform="matrix(7.5,0,0,7.4,125.4,694)" />
<use xlink:href="#f2_1z" transform="matrix(12.9,0,0,12.8,151,702.7)" />
<use xlink:href="#f2_2b" transform="matrix(12.9,0,0,12.8,159,702.7)" />
<use xlink:href="#f2_2f" transform="matrix(12.9,0,0,12.8,168.1,702.7)" />
<use xlink:href="#f2_g" transform="matrix(12.9,0,0,12.8,187.5,702.7)" />
<use xlink:href="#f3_2k" transform="matrix(12.9,0,0,12.8,116.4,702.7)" />
<use xlink:href="#f3_2j" transform="matrix(12.9,0,0,12.8,196.5,702.7)" />
<use xlink:href="#f3_21" transform="matrix(12.9,0,0,12.8,208.8,702.7)" />
<use xlink:href="#f3_23" transform="matrix(12.9,0,0,12.8,222.1,702.7)" />
<use xlink:href="#f3_21" transform="matrix(12.9,0,0,12.8,231.3,702.7)" />
<use xlink:href="#f3_2g" transform="matrix(12.9,0,0,12.8,239.3,702.7)" />
<use xlink:href="#f4_2d" transform="matrix(12.9,0,-4.3,12.8,175.8,702.7)" />
<use xlink:href="#f4_x" transform="matrix(12.9,0,0,12.8,136.8,702.7)" />
</g>
</g>
<path d="M137,732.1l1.8,-1.1m.1,0l4.4,7.3m0,.1l4.9,-19.5m0,-.1h61.2" class="g17_112" />
<path fill-rule="evenodd" d="M136.1,731.1l2.5,-1.4l4,6l4.5,-18h61.6v.9h-61l-4.7,19h-.9l-4.5,-6.8l-1.2,.8l-.3,-.5Z" class="g3_112" />
<path d="M137.1,759.8l1.9,-1.1m0,0l4.5,7.4m0,0l4.8,-19.4m0,-.1h61.3" class="g17_112" />
<path fill-rule="evenodd" d="M136.2,758.8l2.6,-1.4l3.9,6.1l4.5,-18.1h61.6v.9H147.9l-4.7,19.1h-.9l-4.6,-6.8l-1.2,.7l-.3,-.5Z" class="g3_112" />
<path d="M134.7,743.1h89.5" class="g18_112" />
<path d="M229.6,732.1l1.8,-1.1m.1,0l4.4,7.3m0,.1l4.9,-19.5m0,-.1h60.9" class="g17_112" />
<path fill-rule="evenodd" d="M228.7,731.1l2.5,-1.4l4,6l4.5,-18H301v.9H240.4l-4.8,19h-.9l-4.5,-6.8l-1.2,.8l-.3,-.5Z" class="g3_112" />
<path d="M229.6,759.8l1.8,-1.1m.1,0l4.4,7.4m0,0l4.9,-19.4m0,-.1h60.9" class="g17_112" />
<path fill-rule="evenodd" d="M228.7,758.8l2.5,-1.4l4,6.1l4.5,-18.1H301v.9H240.4l-4.8,19.1h-.9l-4.5,-6.8l-1.2,.7l-.3,-.5Z" class="g3_112" />
<path d="M227.2,743.1h75.2" class="g18_112" />
<g clip-path="url(#c11_112)">
<g fill="#000000" >
<use xlink:href="#f2_l" transform="matrix(7.3,0,0,7.1,117.1,739.5)" />
<use xlink:href="#f2_l" transform="matrix(12.6,0,0,12.3,146.2,735.9)" />
<use xlink:href="#f2_1z" transform="matrix(12.6,0,0,12.3,171.2,735.9)" />
<use xlink:href="#f2_2b" transform="matrix(12.6,0,0,12.3,179.2,735.9)" />
<use xlink:href="#f2_2f" transform="matrix(12.6,0,0,12.3,188.4,735.9)" />
<use xlink:href="#f2_l" transform="matrix(12.6,0,0,12.3,238.8,735.9)" />
<use xlink:href="#f2_1z" transform="matrix(12.6,0,0,12.3,263.4,735.9)" />
<use xlink:href="#f2_2b" transform="matrix(12.6,0,0,12.3,271.5,735.9)" />
<use xlink:href="#f2_2f" transform="matrix(12.6,0,0,12.3,280.6,735.9)" />
<use xlink:href="#f2_2g" transform="matrix(12.6,0,0,12.3,87.6,747.7)" />
<use xlink:href="#f2_1x" transform="matrix(12.6,0,0,12.3,92.8,747.7)" />
<use xlink:href="#f2_2a" transform="matrix(12.6,0,0,12.3,100.8,747.7)" />
<use xlink:href="#f2_l" transform="matrix(12.6,0,0,12.3,146.4,763.6)" />
<use xlink:href="#f2_1z" transform="matrix(12.6,0,0,12.3,171.3,763.6)" />
<use xlink:href="#f2_2b" transform="matrix(12.6,0,0,12.3,179.3,763.6)" />
<use xlink:href="#f2_2f" transform="matrix(12.6,0,0,12.3,188.5,763.6)" />
<use xlink:href="#f2_l" transform="matrix(12.6,0,0,12.3,238.8,763.6)" />
<use xlink:href="#f2_1z" transform="matrix(12.6,0,0,12.3,263.4,763.6)" />
<use xlink:href="#f2_2b" transform="matrix(12.6,0,0,12.3,271.4,763.6)" />
<use xlink:href="#f2_2f" transform="matrix(12.6,0,0,12.3,280.6,763.6)" />
<use xlink:href="#f3_2l" transform="matrix(12.6,0,0,12.3,59.7,747.7)" />
<use xlink:href="#f4_2d" transform="matrix(12.6,0,-4.2,12.3,196.1,735.9)" />
<use xlink:href="#f4_2d" transform="matrix(12.6,0,-4.2,12.3,288.4,735.9)" />
<use xlink:href="#f4_2d" transform="matrix(12.6,0,-4.2,12.3,196.2,763.6)" />
<use xlink:href="#f4_2d" transform="matrix(12.6,0,-4.2,12.3,288.4,763.6)" />
<use xlink:href="#f4_h" transform="matrix(7.3,0,0,7.1,111.3,739.5)" />
<use xlink:href="#f4_4o" transform="matrix(12.6,0,0,12.3,124.8,733.3)" />
<use xlink:href="#f4_54" transform="matrix(12.6,0,0,12.3,305.1,733.3)" />
<use xlink:href="#f4_f" transform="matrix(12.6,0,0,12.3,157.4,735.9)" />
<use xlink:href="#f4_f" transform="matrix(12.6,0,0,12.3,213,735.9)" />
<use xlink:href="#f4_h" transform="matrix(12.6,0,0,12.3,250,735.9)" />
<use xlink:href="#f4_x" transform="matrix(12.6,0,0,12.3,72.8,747.7)" />
<use xlink:href="#f4_4p" transform="matrix(12.6,0,0,12.3,124.8,750.2)" />
<use xlink:href="#f4_55" transform="matrix(12.6,0,0,12.3,305.1,750.2)" />
<use xlink:href="#f4_4p" transform="matrix(12.6,0,0,12.3,124.8,756.9)" />
<use xlink:href="#f4_55" transform="matrix(12.6,0,0,12.3,305.1,756.9)" />
<use xlink:href="#f4_f" transform="matrix(12.6,0,0,12.3,157.5,763.6)" />
<use xlink:href="#f4_h" transform="matrix(12.6,0,0,12.3,213.1,763.6)" />
<use xlink:href="#f4_h" transform="matrix(12.6,0,0,12.3,250,763.6)" />
<use xlink:href="#f4_4q" transform="matrix(12.6,0,0,12.3,124.8,768.6)" />
<use xlink:href="#f4_56" transform="matrix(12.6,0,0,12.3,305.1,768.6)" />
</g>
</g>
<path d="M168.6,779.4l-20.3,28.3m84,-28.3L212,807.7m-43.3,4.6l-20.3,28.4m83.7,-28.4l-20.3,28.4" class="g19_112" />
<path d="M119.8,810.1H233.9" class="g20_112" />
<path d="M381,779.4l-20.3,28.3m20.1,4.6l-20.2,28.4" class="g19_112" />
<path d="M309.8,810.1h72.8" class="g20_112" />
<g clip-path="url(#c12_112)">
<g fill="#000000" >
<use xlink:href="#f2_l" transform="matrix(7.3,0,0,7,102.3,806.4)" />
<use xlink:href="#f2_l" transform="matrix(7.3,0,0,7,292.3,806.4)" />
<use xlink:href="#f2_1z" transform="matrix(12.6,0,0,12.2,120.7,798.3)" />
<use xlink:href="#f2_2b" transform="matrix(12.6,0,0,12.2,128.7,798.3)" />
<use xlink:href="#f2_2f" transform="matrix(12.6,0,0,12.2,137.9,798.3)" />
<use xlink:href="#f2_2f" transform="matrix(12.6,0,0,12.2,186.6,798.3)" />
<use xlink:href="#f2_25" transform="matrix(12.6,0,0,12.2,193.8,798.3)" />
<use xlink:href="#f2_2a" transform="matrix(12.6,0,0,12.2,199,798.3)" />
<use xlink:href="#f2_l" transform="matrix(12.6,0,0,12.2,309,798.3)" />
<use xlink:href="#f2_2g" transform="matrix(12.6,0,0,12.2,334.5,798.3)" />
<use xlink:href="#f2_1x" transform="matrix(12.6,0,0,12.2,339.6,798.3)" />
<use xlink:href="#f2_2a" transform="matrix(12.6,0,0,12.2,347.7,798.3)" />
<use xlink:href="#f2_m" transform="matrix(12.6,0,0,12.2,159.7,807.7)" />
<use xlink:href="#f2_m" transform="matrix(12.6,0,0,12.2,223.3,807.7)" />
<use xlink:href="#f2_m" transform="matrix(12.6,0,0,12.2,372.1,807.7)" />
<use xlink:href="#f2_2g" transform="matrix(12.6,0,0,12.2,72.8,814.6)" />
<use xlink:href="#f2_1x" transform="matrix(12.6,0,0,12.2,77.9,814.6)" />
<use xlink:href="#f2_2a" transform="matrix(12.6,0,0,12.2,86,814.6)" />
<use xlink:href="#f2_2g" transform="matrix(12.6,0,0,12.2,262.8,814.6)" />
<use xlink:href="#f2_1x" transform="matrix(12.6,0,0,12.2,267.9,814.6)" />
<use xlink:href="#f2_2a" transform="matrix(12.6,0,0,12.2,276,814.6)" />
<use xlink:href="#f2_1z" transform="matrix(12.6,0,0,12.2,120.8,831.2)" />
<use xlink:href="#f2_2b" transform="matrix(12.6,0,0,12.2,128.8,831.2)" />
<use xlink:href="#f2_2f" transform="matrix(12.6,0,0,12.2,138,831.2)" />
<use xlink:href="#f2_2f" transform="matrix(12.6,0,0,12.2,186.4,831.2)" />
<use xlink:href="#f2_25" transform="matrix(12.6,0,0,12.2,193.6,831.2)" />
<use xlink:href="#f2_2a" transform="matrix(12.6,0,0,12.2,198.8,831.2)" />
<use xlink:href="#f2_l" transform="matrix(12.6,0,0,12.2,309.1,831.2)" />
<use xlink:href="#f2_2g" transform="matrix(12.6,0,0,12.2,334.3,831.2)" />
<use xlink:href="#f2_1x" transform="matrix(12.6,0,0,12.2,339.5,831.2)" />
<use xlink:href="#f2_2a" transform="matrix(12.6,0,0,12.2,347.5,831.2)" />
<use xlink:href="#f2_m" transform="matrix(12.6,0,0,12.2,159.8,840.7)" />
<use xlink:href="#f2_m" transform="matrix(12.6,0,0,12.2,223.2,840.7)" />
<use xlink:href="#f2_m" transform="matrix(12.6,0,0,12.2,371.9,840.7)" />
<use xlink:href="#f4_2d" transform="matrix(12.6,0,-4.2,12.2,145.5,793.4)" />
<use xlink:href="#f4_2d" transform="matrix(12.6,0,-4.2,12.2,209.2,793.4)" />
<use xlink:href="#f4_2d" transform="matrix(12.6,0,-4.2,12.2,357.9,793.4)" />
<use xlink:href="#f4_2d" transform="matrix(12.6,0,-4.2,12.2,145.7,826.4)" />
<use xlink:href="#f4_2d" transform="matrix(12.6,0,-4.2,12.2,209,826.4)" />
<use xlink:href="#f4_2d" transform="matrix(12.6,0,-4.2,12.2,357.7,826.4)" />
<use xlink:href="#f4_h" transform="matrix(7.3,0,0,7,96.5,806.4)" />
<use xlink:href="#f4_h" transform="matrix(7.3,0,0,7,286.5,806.4)" />
<use xlink:href="#f4_4o" transform="matrix(12.6,0,0,12.2,110,794.9)" />
<use xlink:href="#f4_54" transform="matrix(12.6,0,0,12.2,236.6,794.9)" />
<use xlink:href="#f4_4o" transform="matrix(12.6,0,0,12.2,299.9,794.9)" />
<use xlink:href="#f4_54" transform="matrix(12.6,0,0,12.2,385.3,794.9)" />
<use xlink:href="#f4_f" transform="matrix(12.6,0,0,12.2,173.1,798.3)" />
<use xlink:href="#f4_f" transform="matrix(12.6,0,0,12.2,320.2,798.3)" />
<use xlink:href="#f4_4p" transform="matrix(12.6,0,0,12.2,110,811.7)" />
<use xlink:href="#f4_55" transform="matrix(12.6,0,0,12.2,236.6,811.7)" />
<use xlink:href="#f4_4p" transform="matrix(12.6,0,0,12.2,299.9,811.7)" />
<use xlink:href="#f4_55" transform="matrix(12.6,0,0,12.2,385.3,811.7)" />
<use xlink:href="#f4_x" transform="matrix(12.6,0,0,12.2,58,814.6)" />
<use xlink:href="#f4_x" transform="matrix(12.6,0,0,12.2,248,814.6)" />
<use xlink:href="#f4_4p" transform="matrix(12.6,0,0,12.2,110,829.2)" />
<use xlink:href="#f4_55" transform="matrix(12.6,0,0,12.2,236.6,829.2)" />
<use xlink:href="#f4_4p" transform="matrix(12.6,0,0,12.2,299.9,829.2)" />
<use xlink:href="#f4_55" transform="matrix(12.6,0,0,12.2,385.3,829.2)" />
<use xlink:href="#f4_h" transform="matrix(12.6,0,0,12.2,173.3,831.2)" />
<use xlink:href="#f4_h" transform="matrix(12.6,0,0,12.2,320.3,831.2)" />
<use xlink:href="#f4_4q" transform="matrix(12.6,0,0,12.2,110,840.7)" />
<use xlink:href="#f4_56" transform="matrix(12.6,0,0,12.2,236.6,840.7)" />
<use xlink:href="#f4_4q" transform="matrix(12.6,0,0,12.2,299.9,840.7)" />
<use xlink:href="#f4_56" transform="matrix(12.6,0,0,12.2,385.3,840.7)" />
</g>
</g>
<path d="M87.5,870.9H101m39.9,-14.3l-20.3,28.3m40.6,-14h13.4m18.6,0h10.9" class="g21_112" />
<g clip-path="url(#c13_112)">
<g fill="#000000" >
<use xlink:href="#f2_l" transform="matrix(7.3,0,0,7,239.7,867.3)" />
<use xlink:href="#f2_m" transform="matrix(7.3,0,0,7,257.9,867.3)" />
<use xlink:href="#f2_l" transform="matrix(12.6,0,0,12.2,194.1,863.7)" />
<use xlink:href="#f2_1z" transform="matrix(12.6,0,0,12.2,208.9,875.5)" />
<use xlink:href="#f2_2b" transform="matrix(12.6,0,0,12.2,216.9,875.5)" />
<use xlink:href="#f2_2f" transform="matrix(12.6,0,0,12.2,226.1,875.5)" />
<use xlink:href="#f2_m" transform="matrix(12.6,0,0,12.2,132.2,884.9)" />
<use xlink:href="#f2_o" transform="matrix(12.6,0,0,12.2,90,890)" />
<use xlink:href="#f2_o" transform="matrix(12.6,0,0,12.2,163.6,890)" />
<use xlink:href="#f2_m" transform="matrix(12.6,0,0,12.2,194.4,890)" />
<use xlink:href="#f3_2l" transform="matrix(12.6,0,0,12.2,59.7,875.5)" />
<use xlink:href="#f3_2k" transform="matrix(12.6,0,0,12.2,248.8,875.5)" />
<use xlink:href="#f4_2c" transform="matrix(12.6,0,-4.2,12.2,87.5,863.7)" />
<use xlink:href="#f4_2c" transform="matrix(12.6,0,-4.2,12.2,161.2,863.7)" />
<use xlink:href="#f4_2d" transform="matrix(12.6,0,-4.2,12.2,117.6,870.6)" />
<use xlink:href="#f4_h" transform="matrix(7.3,0,0,7,234,867.3)" />
<use xlink:href="#f4_x" transform="matrix(12.6,0,0,12.2,72.7,875.5)" />
<use xlink:href="#f4_f" transform="matrix(12.6,0,0,12.2,105.3,875.5)" />
<use xlink:href="#f4_x" transform="matrix(12.6,0,0,12.2,146.3,875.5)" />
<use xlink:href="#f4_f" transform="matrix(12.6,0,0,12.2,178.9,875.5)" />
</g>
</g>
<path d="M58.2,919.8H77.9m32,0h10.9" class="g22_112" />
<path d="M126.2,937.8l1.8,-1.1m0,0l4.5,8.1m0,.1l4.8,-21.6m0,0h41.2" class="g23_112" />
<path fill-rule="evenodd" d="M125.3,936.9l2.5,-1.6l3.9,7l4.5,-20.2h41.5v.9H136.9l-4.7,21.2h-.9l-4.5,-7.6l-1.3,.8l-.2,-.5Z" class="g3_112" />
<path d="M123.8,919.8h55.4" class="g22_112" />
<path d="M243.2,937.8l1.7,-1.1m.1,0l4.4,8.1m0,.1l4.9,-21.6m0,0h41.1" class="g23_112" />
<path fill-rule="evenodd" d="M242.2,936.9l2.5,-1.6l3.9,7l4.6,-20.2h41.5v.9H253.8l-4.7,21.2h-.9l-4.5,-7.6l-1.2,.8l-.3,-.5Z" class="g3_112" />
<path d="M240.8,919.8h55.3" class="g22_112" />
<g clip-path="url(#c14_112)">
<g fill="#000000" >
<use xlink:href="#f2_o" transform="matrix(7.3,0,0,7.1,170.1,934.2)" />
<use xlink:href="#f2_o" transform="matrix(7.3,0,0,7.1,287,934.2)" />
<use xlink:href="#f2_l" transform="matrix(12.7,0,0,12.2,110.8,912.6)" />
<use xlink:href="#f2_l" transform="matrix(12.7,0,0,12.2,146.9,912.6)" />
<use xlink:href="#f2_m" transform="matrix(12.7,0,0,12.2,190.8,924.4)" />
<use xlink:href="#f2_m" transform="matrix(12.7,0,0,12.2,111.1,938.9)" />
<use xlink:href="#f2_l" transform="matrix(12.7,0,0,12.2,135.4,942.4)" />
<use xlink:href="#f2_l" transform="matrix(12.7,0,0,12.2,252.3,942.4)" />
<use xlink:href="#f3_20" transform="matrix(12.7,0,0,12.2,59.4,912.6)" />
<use xlink:href="#f3_2l" transform="matrix(12.7,0,0,12.2,68.5,912.6)" />
<use xlink:href="#f3_2k" transform="matrix(12.7,0,0,12.2,264.8,912.6)" />
<use xlink:href="#f3_2k" transform="matrix(12.7,0,0,12.2,201.1,924.4)" />
<use xlink:href="#f3_20" transform="matrix(12.7,0,0,12.2,59.5,938.9)" />
<use xlink:href="#f3_2k" transform="matrix(12.7,0,0,12.2,68.6,938.9)" />
<use xlink:href="#f3_2k" transform="matrix(12.7,0,0,12.2,161.1,942.4)" />
<use xlink:href="#f3_2k" transform="matrix(12.7,0,0,12.2,278,942.4)" />
<use xlink:href="#f4_x" transform="matrix(12.7,0,0,12.2,83,924.4)" />
<use xlink:href="#f4_h" transform="matrix(12.7,0,0,12.2,97.5,924.4)" />
<use xlink:href="#f4_49" transform="matrix(12.7,0,0,12.2,182.6,924.4)" />
<use xlink:href="#f4_x" transform="matrix(12.7,0,0,12.2,213.8,924.4)" />
<use xlink:href="#f4_h" transform="matrix(12.7,0,0,12.2,228.3,924.4)" />
<use xlink:href="#f4_h" transform="matrix(12.7,0,0,12.2,146.5,942.4)" />
<use xlink:href="#f4_h" transform="matrix(12.7,0,0,12.2,263.5,942.4)" />
</g>
</g>
<g fill="#000000" >
<use xlink:href="#f5_l" transform="matrix(12,0,0,12,55,1004.9)" />
<use xlink:href="#f5_q" transform="matrix(12,0,0,12,64.2,1004.9)" />
<use xlink:href="#f5_i" transform="matrix(12,0,0,12,73.4,1004.9)" />
<use xlink:href="#f2_19" transform="matrix(12,0,0,12,82.9,1004.9)" />
<use xlink:href="#f2_22" transform="matrix(12,0,0,12,89.1,1004.9)" />
<use xlink:href="#f2_2k" transform="matrix(12,0,0,12,99.4,1004.9)" />
<use xlink:href="#f2_x" transform="matrix(12,0,0,12,113,1004.9)" />
<use xlink:href="#f2_1x" transform="matrix(12,0,0,12,128,1004.9)" />
<use xlink:href="#f2_1z" transform="matrix(12,0,0,12,140.8,1004.9)" />
<use xlink:href="#f2_2b" transform="matrix(12,0,0,12,148.9,1004.9)" />
<use xlink:href="#f2_2f" transform="matrix(12,0,0,12,158.4,1004.9)" />
</g>
<g clip-path="url(#c15_112)">
<g fill="#000000" >
<use xlink:href="#f4_2d" transform="matrix(11.9,0,0,12.7,167.7,1005.1)" />
</g>
</g>
<g fill="#000000" >
<use xlink:href="#f2_f" transform="matrix(12,0,0,12,185.2,1004.9)" />
<use xlink:href="#f2_1y" transform="matrix(12,0,0,12,200.3,1004.9)" />
<use xlink:href="#f2_2f" transform="matrix(12,0,0,12,213.8,1004.9)" />
<use xlink:href="#f2_25" transform="matrix(12,0,0,12,221.2,1004.9)" />
<use xlink:href="#f2_2a" transform="matrix(12,0,0,12,225.9,1004.9)" />
</g>
<g clip-path="url(#c16_112)">
<g fill="#000000" >
<use xlink:href="#f4_2d" transform="matrix(11.9,0,0,12.7,237.8,1005.1)" />
</g>
</g>
<g fill="#000000" >
<use xlink:href="#f2_g" transform="matrix(12,0,0,12,250.5,1004.9)" />
<use xlink:href="#f2_2l" transform="matrix(12,0,0,12,260.1,1004.9)" />
<use xlink:href="#f2_x" transform="matrix(12,0,0,12,273.3,1004.9)" />
<use xlink:href="#f2_1x" transform="matrix(12,0,0,12,288.3,1004.9)" />
<use xlink:href="#f2_2f" transform="matrix(12,0,0,12,301.1,1004.9)" />
<use xlink:href="#f2_25" transform="matrix(12,0,0,12,308.5,1004.9)" />
<use xlink:href="#f2_2a" transform="matrix(12,0,0,12,313.2,1004.9)" />
</g>
<g clip-path="url(#c17_112)">
<g fill="#000000" >
<use xlink:href="#f4_2d" transform="matrix(11.9,0,0,12.7,325.4,1005.1)" />
</g>
</g>
<g fill="#000000" >
<use xlink:href="#f2_h" transform="matrix(12,0,0,12,343,1004.9)" />
<use xlink:href="#f2_1y" transform="matrix(12,0,0,12,353.6,1004.9)" />
<use xlink:href="#f2_1z" transform="matrix(12,0,0,12,367.2,1004.9)" />
<use xlink:href="#f2_2b" transform="matrix(12,0,0,12,375.3,1004.9)" />
<use xlink:href="#f2_2f" transform="matrix(12,0,0,12,384.8,1004.9)" />
</g>
<g clip-path="url(#c18_112)">
<g fill="#000000" >
<use xlink:href="#f4_2d" transform="matrix(11.9,0,0,12.7,394,1005.1)" />
</g>
</g>
<g fill="#000000" >
<use xlink:href="#f2_g" transform="matrix(12,0,0,12,411.6,1004.9)" />
<use xlink:href="#f2_2f" transform="matrix(12,0,0,12,421.1,1004.9)" />
<use xlink:href="#f2_24" transform="matrix(12,0,0,12,428.1,1004.9)" />
<use xlink:href="#f2_2b" transform="matrix(12,0,0,12,436.9,1004.9)" />
<use xlink:href="#f2_2j" transform="matrix(12,0,0,12,446.4,1004.9)" />
<use xlink:href="#f2_2g" transform="matrix(12,0,0,12,464,1004.9)" />
<use xlink:href="#f2_24" transform="matrix(12,0,0,12,469.5,1004.9)" />
<use xlink:href="#f2_1x" transform="matrix(12,0,0,12,478.3,1004.9)" />
<use xlink:href="#f2_2g" transform="matrix(12,0,0,12,486.4,1004.9)" />
</g>
<path d="M518.5,1000.4h28.3m28.4,0h20.7" class="g24_112" />
<g clip-path="url(#c19_112)">
<g fill="#000000" >
<use xlink:href="#f2_m" transform="matrix(7.2,0,0,7.1,529.9,984.9)" />
<use xlink:href="#f2_m" transform="matrix(7.2,0,0,7.1,509.2,996.7)" />
<use xlink:href="#f2_m" transform="matrix(7.2,0,0,7.1,539,1012.3)" />
<use xlink:href="#f2_20" transform="matrix(12.5,0,0,12.3,519.7,993.2)" />
<use xlink:href="#f2_2l" transform="matrix(12.5,0,0,12.3,536.4,993.2)" />
<use xlink:href="#f2_20" transform="matrix(12.5,0,0,12.3,576.3,993.2)" />
<use xlink:href="#f2_2l" transform="matrix(12.5,0,0,12.3,585.5,993.2)" />
<use xlink:href="#f2_2l" transform="matrix(12.5,0,0,12.3,499.3,1005)" />
<use xlink:href="#f2_2k" transform="matrix(12.5,0,0,12.3,563,1005)" />
<use xlink:href="#f2_f" transform="matrix(12.5,0,0,12.3,599.3,1005)" />
<use xlink:href="#f2_2l" transform="matrix(12.5,0,0,12.3,613.2,1005)" />
<use xlink:href="#f2_x" transform="matrix(12.5,0,0,12.3,626.1,1005)" />
<use xlink:href="#f2_k" transform="matrix(12.5,0,0,12.3,640.1,1005)" />
<use xlink:href="#f2_i" transform="matrix(12.5,0,0,12.3,649.3,1005)" />
<use xlink:href="#f2_20" transform="matrix(12.5,0,0,12.3,576.1,1019.7)" />
<use xlink:href="#f2_2k" transform="matrix(12.5,0,0,12.3,585.3,1019.7)" />
<use xlink:href="#f2_20" transform="matrix(12.5,0,0,12.3,519.4,1020.6)" />
<use xlink:href="#f2_2k" transform="matrix(12.5,0,0,12.3,528.6,1020.6)" />
</g>
</g>
<image preserveAspectRatio="none" x="550" y="991" width="74" height="19" xlink:href="img/14.png" />
<g fill="#000000" >
<use xlink:href="#f5_1j" transform="matrix(12,0,0,12,55,1043.5)" />
<use xlink:href="#f5_2b" transform="matrix(12,0,0,12,65.3,1043.5)" />
<use xlink:href="#f5_28" transform="matrix(12,0,0,12,74.5,1043.5)" />
<use xlink:href="#f5_2h" transform="matrix(12,0,0,12,79.2,1043.5)" />
<use xlink:href="#f5_2g" transform="matrix(12,0,0,12,89.5,1043.5)" />
<use xlink:href="#f5_25" transform="matrix(12,0,0,12,95.7,1043.5)" />
<use xlink:href="#f5_2b" transform="matrix(12,0,0,12,100.8,1043.5)" />
<use xlink:href="#f5_2a" transform="matrix(12,0,0,12,109.9,1043.5)" />
<use xlink:href="#f5_u" transform="matrix(12,0,0,12,120.2,1043.5)" />
</g>
<path d="M58.2,1073.6H81.1" class="g25_112" />
<g clip-path="url(#c20_112)">
<g fill="#000000" >
<use xlink:href="#f2_2f" transform="matrix(12.7,0,0,12.2,124.1,1078.2)" />
<use xlink:href="#f2_25" transform="matrix(12.7,0,0,12.2,131.2,1078.2)" />
<use xlink:href="#f2_2a" transform="matrix(12.7,0,0,12.2,136.4,1078.2)" />
<use xlink:href="#f2_1z" transform="matrix(12.7,0,0,12.2,189.6,1078.2)" />
<use xlink:href="#f2_2b" transform="matrix(12.7,0,0,12.2,197.6,1078.2)" />
<use xlink:href="#f2_2f" transform="matrix(12.7,0,0,12.2,206.7,1078.2)" />
<use xlink:href="#f3_20" transform="matrix(12.7,0,0,12.2,61.1,1066.7)" />
<use xlink:href="#f3_2k" transform="matrix(12.7,0,0,12.2,70.3,1066.7)" />
<use xlink:href="#f3_1x" transform="matrix(12.7,0,0,12.2,110.9,1078.2)" />
<use xlink:href="#f3_1y" transform="matrix(12.7,0,0,12.2,176.4,1078.2)" />
<use xlink:href="#f3_20" transform="matrix(12.7,0,0,12.2,59.4,1092.5)" />
<use xlink:href="#f4_2d" transform="matrix(12.7,0,-4.2,12.2,148.7,1078.2)" />
<use xlink:href="#f4_2d" transform="matrix(12.7,0,-4.2,12.2,216.5,1078.2)" />
<use xlink:href="#f4_2d" transform="matrix(12.7,0,-4.2,12.2,68.6,1092.5)" />
<use xlink:href="#f4_x" transform="matrix(12.7,0,0,12.2,86,1078.2)" />
<use xlink:href="#f4_h" transform="matrix(12.7,0,0,12.2,100.3,1078.2)" />
<use xlink:href="#f4_f" transform="matrix(12.7,0,0,12.2,163.5,1078.2)" />
</g>
</g>
<path d="M58.3,1122H81.2" class="g26_112" />
<g clip-path="url(#c21_112)">
<g fill="#000000" >
<use xlink:href="#f2_1z" transform="matrix(12.6,0,0,12.2,114.7,1126.6)" />
<use xlink:href="#f2_2b" transform="matrix(12.6,0,0,12.2,122.8,1126.6)" />
<use xlink:href="#f2_2f" transform="matrix(12.6,0,0,12.2,132,1126.6)" />
<use xlink:href="#f2_2f" transform="matrix(12.6,0,0,12.2,182,1126.6)" />
<use xlink:href="#f2_25" transform="matrix(12.6,0,0,12.2,189.2,1126.6)" />
<use xlink:href="#f2_2a" transform="matrix(12.6,0,0,12.2,194.4,1126.6)" />
<use xlink:href="#f3_20" transform="matrix(12.6,0,0,12.2,61,1114.9)" />
<use xlink:href="#f3_2l" transform="matrix(12.6,0,0,12.2,70.2,1114.9)" />
<use xlink:href="#f3_1x" transform="matrix(12.6,0,0,12.2,100.9,1126.6)" />
<use xlink:href="#f3_1y" transform="matrix(12.6,0,0,12.2,168.8,1126.6)" />
<use xlink:href="#f3_20" transform="matrix(12.6,0,0,12.2,59.4,1141.1)" />
<use xlink:href="#f4_2d" transform="matrix(12.6,0,-4.2,12.2,139.7,1126.6)" />
<use xlink:href="#f4_2d" transform="matrix(12.6,0,-4.2,12.2,207,1126.6)" />
<use xlink:href="#f4_2d" transform="matrix(12.6,0,-4.2,12.2,68.6,1141.1)" />
<use xlink:href="#f4_x" transform="matrix(12.6,0,0,12.2,86.3,1126.6)" />
<use xlink:href="#f4_f" transform="matrix(12.6,0,0,12.2,155.3,1126.6)" />
</g>
</g>
<path fill-rule="evenodd" d="M37.4,38.1h.7v-.7h-.7v.7Z" class="g3_112" />
<path fill-rule="evenodd" d="M37.4,38.1h.7v-.7h-.7v.7Z" class="g3_112" />
<path fill-rule="evenodd" d="M38.1,38.1H871.5v-.7H38.1v.7Z" class="g3_112" />
<path fill-rule="evenodd" d="M871.5,38.1h.8v-.7h-.8v.7Z" class="g3_112" />
<path fill-rule="evenodd" d="M871.5,38.1h.8v-.7h-.8v.7Z" class="g3_112" />
<path fill-rule="evenodd" d="M37.4,1248.5h.7V38.1h-.7V1248.5Z" class="g3_112" />
<path fill-rule="evenodd" d="M872.3,1248.5h.7V38.1h-.7V1248.5Z" class="g3_112" />
<path fill-rule="evenodd" d="M871.5,1248.5h.8V38.1h-.8V1248.5Z" class="g3_112" />
<path fill-rule="evenodd" d="M37.4,1249.2h.7v-.7h-.7v.7Z" class="g3_112" />
<path fill-rule="evenodd" d="M37.4,1249.2h.7v-.7h-.7v.7Z" class="g3_112" />
<path fill-rule="evenodd" d="M38.1,1249.9H871.5v-.7H38.1v.7Z" class="g3_112" />
<path fill-rule="evenodd" d="M38.1,1249.2H871.5v-.7H38.1v.7Z" class="g3_112" />
<path fill-rule="evenodd" d="M872.3,1249.9h.7v-1.4h-.7v1.4Z" class="g3_112" />
<path fill-rule="evenodd" d="M871.5,1249.9H873v-.7h-1.5v.7Z" class="g3_112" />
<path fill-rule="evenodd" d="M871.5,1249.2h.8v-.7h-.8v.7Z" class="g3_112" />
<path fill-rule="evenodd" d="M871.5,1249.2h.8v-.7h-.8v.7Z" class="g3_112" />
<defs>
<path d="M489,-15c0,0,-99,0,-179,30c0,0,-80,30,-136,91c0,0,-56,61,-85,152c0,0,-30,91,-30,212c0,0,0,123,32,218c0,0,33,96,92,161c0,0,59,65,142,98c0,0,82,34,181,34c0,0,40,0,78,-7c0,0,37,-7,69,-18c0,0,31,-11,57,-25c0,0,25,-14,35,-24c0,0,10,-10,14,-17c0,0,4,-7,6,-17c0,0,2,-11,3,-25c0,0,2,-14,2,-35c0,0,0,-22,-2,-38c0,0,-1,-15,-5,-25c0,0,-4,-10,-9,-14c0,0,-5,-5,-12,-5c0,0,-11,0,-28,13c0,0,-18,13,-45,29c0,0,-27,16,-65,29c0,0,-37,13,-89,13c0,0,-58,0,-103,-23c0,0,-45,-23,-77,-67c0,0,-31,-44,-48,-106c0,0,-16,-61,-16,-139c0,0,0,-85,17,-147c0,0,18,-62,50,-103c0,0,33,-40,79,-60c0,0,45,-19,103,-19c0,0,52,0,90,12c0,0,38,12,65,27c0,0,27,15,45,27c0,0,17,12,27,12c0,0,8,0,12,-3c0,0,4,-3,7,-12c0,0,3,-9,5,-25c0,0,1,-16,1,-43c0,0,0,-18,-1,-31c0,0,-1,-14,-3,-23c0,0,-2,-9,-6,-16c0,0,-4,-7,-12,-15c0,0,-8,-9,-32,-22c0,0,-23,-14,-57,-26C661,13,627,1,583,-6c0,0,-43,-9,-94,-9Z" 
id="f0_j"
transform="scale(0.001,-0.001)" />

<path d="M440,150c0,0,41,0,68,8c0,0,28,9,49,26c0,0,20,16,32,41c0,0,11,25,11,58c0,0,0,33,-11,60c0,0,-11,26,-33,44c0,0,-21,18,-55,28c0,0,-33,9,-87,9H298V150ZM407,567c0,0,42,0,68,10c0,0,25,10,42,28c0,0,16,17,24,41c0,0,9,24,9,50c0,0,0,29,-9,52c0,0,-9,23,-27,39c0,0,-18,15,-45,23c0,0,-27,8,-72,8H298V567ZM164,0c0,0,-25,0,-42,15c0,0,-16,14,-16,47V903c0,0,0,33,16,48c0,0,17,14,42,14H406c0,0,88,0,150,-15c0,0,61,-15,103,-45c0,0,42,-30,65,-77c0,0,22,-46,22,-108c0,0,0,-36,-9,-67c0,0,-9,-31,-26,-56c0,0,-17,-25,-42,-45c0,0,-25,-19,-57,-31c0,0,41,-7,76,-26c0,0,34,-19,60,-48c0,0,26,-30,41,-69c0,0,15,-40,15,-89c0,0,0,-51,-14,-93c0,0,-15,-42,-40,-74c0,0,-25,-32,-59,-55c0,0,-35,-23,-77,-38C614,29,573,14,525,7C525,7,478,0,420,0Z" 
id="f0_i"
transform="scale(0.001,-0.001)" />

<path d="M320,-17c0,0,-50,0,-93,9c0,0,-43,8,-76,19c0,0,-32,11,-54,24C97,35,75,48,65,58c0,0,-10,9,-14,28c0,0,-4,18,-4,52c0,0,0,23,1,39c0,0,2,15,5,25c0,0,4,10,9,14c0,0,6,4,13,4c0,0,11,0,30,-12c0,0,19,-13,49,-28c0,0,30,-15,71,-27c0,0,42,-12,96,-12c0,0,36,0,64,8c0,0,29,9,49,25c0,0,19,15,30,38c0,0,10,23,10,52c0,0,0,33,-18,56c0,0,-18,24,-46,42c0,0,-29,18,-66,34c0,0,-36,16,-75,34c0,0,-39,18,-76,41c0,0,-36,23,-65,54c0,0,-29,32,-47,75c0,0,-17,44,-17,104c0,0,0,70,25,122c0,0,26,53,70,88c0,0,43,34,103,51c0,0,59,18,125,18c0,0,35,0,69,-6c0,0,34,-5,64,-14c0,0,30,-9,53,-20c0,0,23,-11,31,-18c0,0,7,-8,10,-13c0,0,3,-5,4,-14c0,0,2,-8,3,-21c0,0,1,-13,1,-33c0,0,0,-21,-1,-36c0,0,-1,-15,-4,-25c0,0,-3,-9,-7,-14c0,0,-5,-4,-14,-4c0,0,-8,0,-26,10c0,0,-18,10,-44,23c0,0,-26,12,-60,22c0,0,-34,10,-75,10c0,0,-32,0,-56,-8c0,0,-24,-8,-40,-21c0,0,-16,-14,-24,-34c0,0,-8,-19,-8,-41c0,0,0,-32,18,-56c0,0,17,-23,46,-42c0,0,30,-18,67,-34c0,0,38,-16,76,-34c0,0,39,-18,76,-41c0,0,38,-22,67,-54c0,0,29,-32,47,-75c0,0,18,-43,18,-101c0,0,0,-76,-29,-133c0,0,-28,-58,-77,-96C572,60,524,21,459,2c0,0,-65,-19,-139,-19Z" 
id="f0_2n"
transform="scale(0.001,-0.001)" />

<path d="M164,0c0,0,-25,0,-42,15c0,0,-16,14,-16,47V903c0,0,0,33,16,48c0,0,17,14,42,14H645c0,0,7,0,12,-4c0,0,5,-3,9,-13c0,0,4,-9,6,-24c0,0,2,-14,2,-36c0,0,0,-21,-2,-36c0,0,-2,-14,-6,-23c0,0,-4,-9,-9,-13c0,0,-5,-4,-12,-4H301V576H593c0,0,6,0,12,-4c0,0,6,-4,9,-13c0,0,4,-8,6,-23c0,0,2,-14,2,-35c0,0,0,-22,-2,-36c0,0,-2,-14,-6,-23c0,0,-3,-8,-9,-12c0,0,-6,-4,-12,-4H301V154H649c0,0,6,0,12,-5c0,0,5,-4,9,-13c0,0,4,-9,6,-23c0,0,2,-15,2,-36c0,0,0,-22,-2,-36c0,0,-2,-15,-6,-24c0,0,-4,-9,-9,-13c0,0,-6,-4,-12,-4Z" 
id="f0_t"
transform="scale(0.001,-0.001)" />

<path d="M79,297c0,0,-19,0,-27,18c0,0,-8,17,-8,60c0,0,0,41,8,59c0,0,8,17,27,17H389c0,0,9,0,15,-4c0,0,7,-4,11,-13c0,0,5,-9,7,-23c0,0,1,-15,1,-36c0,0,0,-43,-8,-61c0,0,-8,-17,-26,-17Z" 
id="f0_oj"
transform="scale(0.001,-0.001)" />

<path d="M121,-4c0,0,-39,0,-60,2C61,-2,39,0,32,8c0,0,-8,8,-3,24c0,0,4,15,18,41L279,495L64,892c0,0,-14,26,-19,42c0,0,-5,17,4,24c0,0,9,8,32,10c0,0,23,2,65,2c0,0,35,0,56,-2c0,0,20,-1,32,-4c0,0,12,-4,17,-10c0,0,5,-6,9,-15L431,620L595,939c0,0,5,9,10,15c0,0,5,6,16,10c0,0,10,3,29,4c0,0,19,2,53,2c0,0,37,0,59,-2c0,0,22,-2,30,-10c0,0,8,-8,4,-24c0,0,-4,-16,-17,-42L564,497L793,73c0,0,14,-26,18,-41c0,0,4,-16,-5,-24c0,0,-9,-8,-32,-10c0,0,-24,-2,-65,-2c0,0,-36,0,-56,2c0,0,-20,1,-31,3c0,0,-12,4,-17,10c0,0,-5,6,-9,15L414,374L233,26c0,0,-4,-9,-9,-15c0,0,-6,-6,-17,-10c0,0,-12,-2,-32,-3c0,0,-21,-2,-54,-2Z" 
id="f0_3e"
transform="scale(0.001,-0.001)" />

<path d="M204,-4c0,0,-28,0,-47,2c0,0,-19,2,-31,5c0,0,-11,4,-16,10c0,0,-4,6,-4,13V939c0,0,0,7,4,13c0,0,5,6,17,10c0,0,11,3,30,6c0,0,19,2,47,2c0,0,29,0,48,-2c0,0,18,-3,29,-6c0,0,11,-4,16,-10c0,0,5,-6,5,-13V26c0,0,0,-7,-5,-13c0,0,-5,-6,-16,-10c0,0,-11,-3,-29,-5c0,0,-19,-2,-48,-2Z" 
id="f0_1c"
transform="scale(0.001,-0.001)" />

<path d="M127,0c0,0,-16,0,-28,3C99,3,87,6,80,15c0,0,-8,8,-11,25c0,0,-3,16,-3,42c0,0,0,25,2,42c0,0,2,18,8,32c0,0,6,14,15,27c0,0,9,13,24,29L282,390c0,0,50,53,81,95c0,0,30,43,47,79c0,0,17,35,24,65c0,0,6,30,6,57c0,0,0,24,-8,46c0,0,-8,22,-23,39c0,0,-15,16,-38,25c0,0,-23,10,-55,10c0,0,-44,0,-78,-12c0,0,-33,-11,-59,-25c0,0,-26,-13,-43,-25c0,0,-17,-12,-27,-12c0,0,-7,0,-11,5c0,0,-5,4,-8,15c0,0,-3,10,-5,28c0,0,-2,17,-2,42c0,0,0,18,1,29c0,0,1,12,4,20c0,0,2,9,6,15c0,0,3,6,13,15c0,0,9,9,34,23c0,0,25,14,61,27c0,0,37,14,81,23c0,0,44,9,92,9c0,0,75,0,131,-19c0,0,57,-19,94,-53c0,0,37,-34,55,-81c0,0,19,-47,19,-100c0,0,0,-47,-9,-93c0,0,-9,-45,-37,-98c0,0,-29,-52,-80,-116c0,0,-52,-64,-136,-148L299,159H679c0,0,8,0,14,-4c0,0,6,-5,11,-14c0,0,4,-9,7,-25c0,0,2,-15,2,-36c0,0,0,-22,-2,-37c0,0,-2,-15,-6,-25c0,0,-3,-10,-9,-14c0,0,-6,-4,-14,-4Z" 
id="f0_rz"
transform="scale(0.001,-0.001)" />

<path d="M385,138c0,0,29,0,52,9c0,0,22,10,39,28c0,0,17,19,28,47c0,0,11,29,19,66c0,0,7,37,9,84c0,0,3,47,3,104c0,0,0,69,-4,122c0,0,-4,52,-11,91c0,0,-8,39,-20,66c0,0,-12,27,-28,43c0,0,-16,16,-37,22c0,0,-21,7,-47,7c0,0,-44,0,-73,-21c0,0,-28,-21,-45,-64c0,0,-17,-42,-24,-106c0,0,-6,-63,-6,-148c0,0,0,-103,8,-171c0,0,8,-67,26,-107c0,0,17,-40,45,-56c0,0,27,-16,66,-16ZM378,-17c0,0,-99,0,-164,33c0,0,-65,34,-103,98c0,0,-38,64,-54,156c0,0,-15,92,-15,209c0,0,0,115,19,208c0,0,19,94,61,160c0,0,42,65,110,101c0,0,68,35,165,35c0,0,99,0,164,-34c0,0,65,-34,103,-98c0,0,39,-64,53,-156c0,0,15,-92,15,-209c0,0,0,-115,-18,-209c0,0,-19,-93,-61,-159C653,118,611,53,543,17c0,0,-67,-34,-165,-34Z" 
id="f0_rx"
transform="scale(0.001,-0.001)" />

<path d="M142,0c0,0,-6,0,-12,4c0,0,-5,3,-9,12c0,0,-4,9,-6,23c0,0,-3,15,-3,36c0,0,0,21,2,36c0,0,2,14,6,23c0,0,4,9,10,13c0,0,5,5,12,5H322V779L166,693c0,0,-17,-8,-28,-10c0,0,-1,0,-3,0c-4,0,-10,1,-14,5c0,0,-6,6,-8,22c0,0,-2,15,-2,44c0,0,0,18,0,29c0,0,1,12,4,20c0,0,3,8,8,14c0,0,5,5,14,11L345,962c0,0,4,3,9,5c0,0,6,2,15,3c0,0,9,1,23,2c0,0,15,0,38,0c0,0,28,0,46,-1c0,0,17,-1,26,-4c0,0,9,-3,12,-7c0,0,3,-4,3,-11V152H675c0,0,7,0,12,-5c0,0,6,-4,10,-13c0,0,4,-9,6,-23c0,0,2,-15,2,-36c0,0,0,-21,-2,-36c0,0,-3,-14,-7,-23c0,0,-4,-9,-9,-12c0,0,-5,-4,-12,-4Z" 
id="f0_ry"
transform="scale(0.001,-0.001)" />

<path d="M326,-17c0,0,-45,0,-85,6c0,0,-41,5,-73,13c0,0,-32,8,-52,17c0,0,-21,8,-27,14c0,0,-6,6,-9,12c0,0,-3,7,-5,16c0,0,-2,10,-3,24c0,0,-1,14,-1,33c0,0,0,21,2,36c0,0,1,14,5,23c0,0,3,9,8,13c0,0,4,4,10,4c0,0,7,0,23,-9c0,0,15,-8,40,-19c0,0,25,-10,61,-19c0,0,36,-8,86,-8c0,0,43,0,78,9c0,0,36,9,60,29c0,0,25,19,38,49c0,0,14,30,14,72c0,0,0,36,-11,64c0,0,-12,28,-35,47c0,0,-24,19,-62,29c0,0,-38,10,-93,10c0,0,-43,0,-78,-5c0,0,-36,-4,-67,-4c0,0,-22,0,-31,11c0,0,-9,11,-9,40V909c0,0,0,30,11,43c0,0,12,13,37,13H615c0,0,6,0,12,-4c0,0,6,-5,10,-15c0,0,5,-9,6,-25c0,0,2,-16,2,-39c0,0,0,-45,-7,-65c0,0,-8,-20,-23,-20H272V590c0,0,26,3,52,4c0,0,25,0,54,0c0,0,78,0,139,-18c0,0,61,-18,102,-53c0,0,42,-36,63,-88c0,0,22,-53,22,-122c0,0,0,-79,-27,-140c0,0,-27,-62,-77,-104C600,69,550,27,481,5c0,0,-70,-22,-155,-22Z" 
id="f0_s2"
transform="scale(0.001,-0.001)" />

<path d="M589,371L453,782h-1L317,371ZM106,-4c0,0,-35,0,-54,2C52,-2,32,0,25,8c0,0,-7,9,-5,24c0,0,2,16,11,42L329,931c0,0,4,13,10,21c0,0,6,7,19,12c0,0,13,4,36,5c0,0,23,1,61,1c0,0,44,0,71,-1c0,0,26,-1,40,-5c0,0,15,-5,21,-13c0,0,6,-8,11,-22L896,73c0,0,9,-27,11,-43c0,0,3,-15,-6,-23c0,0,-8,-7,-29,-9c0,0,-21,-2,-57,-2c0,0,-38,0,-59,1c0,0,-22,1,-33,4c0,0,-11,3,-16,9c0,0,-4,6,-7,16L635,220H272L211,31c0,0,-2,-11,-7,-18c0,0,-5,-7,-16,-11c0,0,-11,-3,-31,-4c0,0,-19,-2,-51,-2Z" 
id="f0_5"
transform="scale(0.001,-0.001)" />

<path d="M198,-4c0,0,-27,0,-45,2c0,0,-18,2,-28,5c0,0,-11,4,-15,10c0,0,-4,6,-4,13V887c0,0,0,38,20,58c0,0,20,20,53,20H308c0,0,34,0,59,-6c0,0,24,-5,42,-18c0,0,18,-13,30,-35c0,0,12,-21,21,-52L669,279h3L889,852c0,0,9,32,21,53c0,0,11,22,27,35c0,0,15,14,36,19c0,0,21,6,48,6h132c0,0,21,0,35,-5c0,0,15,-5,24,-15c0,0,9,-11,14,-25c0,0,5,-15,5,-33V26c0,0,0,-7,-4,-13c0,0,-4,-6,-15,-10c0,0,-11,-3,-29,-5c0,0,-18,-2,-45,-2c0,0,-27,0,-45,2c0,0,-18,2,-28,5c0,0,-11,4,-15,10c0,0,-5,6,-5,13V813h-1L764,27c0,0,-3,-10,-10,-16c0,0,-6,-6,-18,-10c0,0,-12,-3,-29,-4c0,0,-18,-1,-44,-1c0,0,-25,0,-43,2c0,0,-18,2,-29,5c0,0,-12,4,-19,10c0,0,-6,6,-9,14L293,813h-2V26c0,0,0,-7,-4,-13c0,0,-4,-6,-15,-10c0,0,-11,-3,-29,-5c0,0,-17,-2,-45,-2Z" 
id="f0_1x"
transform="scale(0.001,-0.001)" />

<path d="M193,-4c0,0,-26,0,-43,2c0,0,-18,2,-27,6c0,0,-10,4,-14,10c0,0,-3,6,-3,13V895c0,0,0,35,20,53c0,0,21,17,50,17H282c0,0,28,0,47,-5c0,0,20,-5,35,-16c0,0,15,-11,29,-31c0,0,13,-20,27,-49L608,511c0,0,17,-32,33,-63c0,0,16,-31,31,-62c0,0,14,-31,29,-60c0,0,14,-30,27,-60h1c0,0,-2,52,-3,109c0,0,-1,57,-1,108V936c0,0,0,7,4,13c0,0,5,6,15,11c0,0,10,4,28,6c0,0,17,2,44,2c0,0,25,0,42,-2c0,0,17,-2,27,-6c0,0,9,-5,13,-11c0,0,4,-6,4,-13V68c0,0,0,-17,-6,-30c0,0,-6,-14,-17,-23C879,15,869,6,856,2c0,0,-14,-3,-28,-3H744c0,0,-26,0,-45,4c0,0,-19,5,-35,19c0,0,-16,14,-31,38c0,0,-15,23,-34,60L359,572c0,0,-21,40,-43,86c0,0,-21,47,-38,91h-2c0,0,3,-54,5,-107c0,0,2,-53,2,-110V27c0,0,0,-7,-5,-13c0,0,-4,-6,-14,-10c0,0,-10,-4,-27,-6c0,0,-17,-2,-44,-2Z" 
id="f0_1y"
transform="scale(0.001,-0.001)" />

<path d="M378,-4c0,0,-28,0,-47,2c0,0,-19,2,-31,5c0,0,-11,4,-16,10c0,0,-4,6,-4,13V805H38c0,0,-8,0,-13,4c0,0,-5,5,-9,14c0,0,-3,9,-5,25c0,0,-2,15,-2,37c0,0,0,22,2,38c0,0,2,15,5,25c0,0,4,9,9,13c0,0,5,4,13,4H718c0,0,7,0,12,-4c0,0,6,-4,10,-13c0,0,3,-10,5,-25c0,0,2,-16,2,-38c0,0,0,-22,-2,-37c0,0,-2,-16,-5,-25c0,0,-4,-9,-10,-14c0,0,-5,-4,-12,-4H476V26c0,0,0,-7,-5,-13c0,0,-5,-6,-16,-10c0,0,-11,-3,-30,-5c0,0,-19,-2,-47,-2Z" 
id="f0_2t"
transform="scale(0.001,-0.001)" />

<path d="M514,145c0,0,72,0,121,27c0,0,48,26,78,73c0,0,30,46,42,107c0,0,13,62,13,131c0,0,0,76,-12,139c0,0,-12,62,-41,106c0,0,-29,45,-76,69c0,0,-48,24,-120,24c0,0,-72,0,-120,-27c0,0,-49,-27,-79,-73c0,0,-29,-45,-42,-106c0,0,-12,-61,-12,-129c0,0,0,-79,12,-142c0,0,12,-63,40,-108c0,0,28,-44,76,-68c0,0,48,-23,120,-23ZM508,-17c0,0,-113,0,-196,29c0,0,-84,29,-140,90c0,0,-56,60,-84,154c0,0,-28,93,-28,221c0,0,0,117,29,210c0,0,30,94,89,160c0,0,59,65,146,101c0,0,87,35,202,35c0,0,110,0,194,-29c0,0,84,-30,140,-90c0,0,56,-60,85,-153c0,0,29,-92,29,-217c0,0,0,-120,-30,-215c0,0,-30,-95,-89,-161C855,118,796,52,709,17c0,0,-87,-34,-201,-34Z" 
id="f0_24"
transform="scale(0.001,-0.001)" />

<path d="M402,179c0,0,58,0,100,45c0,0,42,45,42,107c0,0,0,65,-41,108c0,0,-41,44,-101,44c0,0,-65,0,-110,-44c0,0,-45,-45,-45,-109c0,0,0,-64,45,-107c0,0,44,-44,110,-44ZM390,-11c0,0,-150,0,-247,94c0,0,-97,96,-97,243c0,0,0,106,48,217c0,0,49,111,108,194L356,952H605L372,631c0,0,48,9,88,9c0,0,123,0,212,-91c0,0,89,-92,89,-219c0,0,0,-148,-105,-245c0,0,-105,-96,-266,-96Z" 
id="f1_q"
transform="scale(0.001,-0.001)" />

<path d="M44,-281L425,1053H537L156,-281Z" 
id="f1_j"
transform="scale(0.001,-0.001)" />

<path d="M299,0V777H162l36,173H508V0Z" 
id="f1_l"
transform="scale(0.001,-0.001)" />

<path d="M75,0L400,413c0,0,71,91,101,149c0,0,30,58,30,109c0,0,0,55,-36,91c0,0,-36,36,-91,36c0,0,-63,0,-91,-45c0,0,-28,-46,-34,-142H67c0,0,0,173,102,268c0,0,102,95,253,95c0,0,140,0,229,-82c0,0,89,-82,89,-209c0,0,0,-125,-104,-276L580,324c0,0,-34,-50,-85,-114L468,178H740V0Z" 
id="f1_m"
transform="scale(0.001,-0.001)" />

<path d="M420,-22L89,941L1,960v40H383V960L236,941L474,236L744,930h33L1037,236l227,705l-156,19v40h331V960l-87,-19L1025,-22H985L726,666L460,-22Z" 
id="f2_1n"
transform="scale(0.001,-0.001)" />

<path d="M31,0V33l88,19V649L31,668v33H235l7,-87c0,0,44,37,121,71c0,0,76,35,121,35h11V530H463l-43,82c0,0,-37,0,-88,-10c0,0,-52,-10,-89,-26V52L363,33V0Z" 
id="f2_2e"
transform="scale(0.001,-0.001)" />

<path d="M32,0V33L151,52V649L52,668v33H275V52L395,33V0ZM201,850c0,0,-32,0,-56,24c0,0,-24,24,-24,56c0,0,0,34,24,58c0,0,24,24,56,24c0,0,34,0,58,-24c0,0,24,-24,24,-58c0,0,0,-32,-24,-56c0,0,-24,-24,-58,-24Z" 
id="f2_25"
transform="scale(0.001,-0.001)" />

<path d="M249,-14c0,0,-71,0,-107,42c0,0,-35,42,-35,119V639H15v33l93,29l76,159h47V701H391V639H231V161c0,0,0,-48,22,-73c0,0,22,-24,57,-24c0,0,44,0,106,12V26C416,26,389,8,340,-2c0,0,-49,-12,-91,-12Z" 
id="f2_2g"
transform="scale(0.001,-0.001)" />

<path d="M439,0V33l93,19V500c0,0,0,62,-30,97c0,0,-31,36,-94,36c0,0,-67,0,-165,-22V52L338,33V0H35V33l84,19V649L35,668v33H235l7,-57c0,0,57,33,122,54c0,0,65,22,108,22c0,0,91,0,137,-53c0,0,47,-53,47,-154V52L741,33V0Z" 
id="f2_2a"
transform="scale(0.001,-0.001)" />

<path d="M359,-270c0,0,124,0,192,46c0,0,67,47,67,129c0,0,0,43,-26,67c0,0,-26,24,-79,24H242c0,0,-32,-27,-51,-69c0,0,-20,-41,-20,-77c0,0,0,-64,46,-92c0,0,46,-28,142,-28Zm11,561c0,0,81,0,115,47c0,0,34,47,34,141c0,0,0,100,-35,142c0,0,-35,42,-113,42c0,0,-78,0,-114,-43c0,0,-37,-42,-37,-141c0,0,0,-98,36,-143c0,0,36,-45,114,-45ZM359,-329c0,0,-143,0,-218,44c0,0,-75,43,-75,125c0,0,0,39,27,78c0,0,26,38,98,89c0,0,-43,14,-72,48c0,0,-29,35,-29,74L208,262c0,0,-118,55,-118,217c0,0,0,115,73,178c0,0,73,63,211,63c0,0,28,0,71,-6c0,0,44,-6,67,-13l165,83l26,-32L599,644c0,0,50,-56,50,-165c0,0,0,-120,-72,-182c0,0,-73,-62,-208,-62c0,0,-62,0,-114,11L208,148c0,0,2,-13,29,-24c0,0,27,-12,67,-12H512c0,0,113,0,168,-49c0,0,55,-49,55,-134c0,0,0,-79,-44,-137c0,0,-43,-58,-128,-90c0,0,-84,-31,-204,-31Z" 
id="f2_23"
transform="scale(0.001,-0.001)" />

<path d="M134,0V40L339,60V876L137,804v39l292,166h39V60L672,40V0Z" 
id="f2_l"
transform="scale(0.001,-0.001)" />

<path d="M67,0V109L206,235c0,0,133,118,196,190c0,0,63,72,90,149c0,0,27,77,27,177c0,0,0,97,-44,148c0,0,-44,50,-144,50c0,0,-39,0,-81,-10c0,0,-42,-11,-74,-29L150,787H101V980c0,0,135,32,230,32c0,0,164,0,247,-68c0,0,82,-69,82,-193c0,0,0,-84,-32,-158c0,0,-33,-75,-100,-148c0,0,-67,-74,-222,-206c0,0,-67,-57,-141,-125H680V0Z" 
id="f2_m"
transform="scale(0.001,-0.001)" />

<path d="M399,-14c0,0,-341,0,-341,370c0,0,0,175,87,269c0,0,87,95,249,95c0,0,101,0,220,-23V501H573L541,625c0,0,-62,35,-149,35c0,0,-200,0,-200,-304c0,0,0,-158,61,-225c0,0,61,-67,189,-67c0,0,109,0,189,24V43C631,43,595,16,530,1c0,0,-64,-15,-131,-15Z" 
id="f2_1z"
transform="scale(0.001,-0.001)" />

<path d="M377,45c0,0,99,0,147,73c0,0,47,73,47,237c0,0,0,161,-47,233c0,0,-47,72,-147,72c0,0,-97,0,-141,-69c0,0,-44,-69,-44,-236c0,0,0,-169,45,-240c0,0,44,-70,140,-70Zm0,-59c0,0,-158,0,-238,94c0,0,-81,95,-81,274c0,0,0,178,81,272c0,0,80,94,244,94c0,0,160,0,241,-92c0,0,82,-92,82,-274c0,0,0,-368,-329,-368Z" 
id="f2_2b"
transform="scale(0.001,-0.001)" />

<path d="M460,-325c0,0,-148,79,-231,172c0,0,-84,93,-123,217c0,0,-39,126,-39,304c0,0,0,178,39,303c0,0,39,125,122,217c0,0,82,93,232,172V997c0,0,-91,-52,-145,-134c0,0,-54,-81,-79,-190c0,0,-25,-109,-25,-305c0,0,0,-194,26,-309c0,0,26,-114,82,-193c0,0,56,-79,141,-128v-63Z" 
id="f2_c"
transform="scale(0.001,-0.001)" />

<path d="M49,-325v63c0,0,85,49,140,128c0,0,56,79,83,194c0,0,26,115,26,308c0,0,0,196,-25,305c0,0,-25,109,-79,190c0,0,-54,82,-145,134v63c0,0,149,-80,232,-172c0,0,83,-92,122,-217c0,0,39,-125,39,-303c0,0,0,-177,-39,-303c0,0,-39,-125,-122,-217c0,0,-83,-93,-232,-173Z" 
id="f2_d"
transform="scale(0.001,-0.001)" />

<path d="M278,-14c0,0,-52,0,-115,11c0,0,-63,10,-99,23V193H98L134,95c0,0,56,-50,146,-50c0,0,144,0,144,123c0,0,0,91,-114,130l-66,21c0,0,-75,25,-110,50c0,0,-34,26,-53,63c0,0,-18,36,-18,89c0,0,0,92,63,145c0,0,63,54,170,54c0,0,77,0,193,-23V544H454l-32,81c0,0,-39,35,-124,35c0,0,-61,0,-92,-30c0,0,-32,-30,-32,-80c0,0,0,-43,29,-72c0,0,28,-29,86,-48c0,0,110,-38,144,-55c0,0,33,-17,57,-42c0,0,23,-25,36,-57c0,0,13,-32,13,-79c0,0,0,-104,-66,-158c0,0,-66,-53,-195,-53Z" 
id="f2_2f"
transform="scale(0.001,-0.001)" />

<path d="M-6,0c0,0,-12,10,-12,32c0,0,0,21,23,51c0,0,23,31,79,82L287,354L159,649L79,668l6,33H270L378,434l93,88c0,0,47,46,67,72c0,0,19,26,19,44c0,0,0,8,-6,13c0,0,-7,6,-38,17l6,33H651c0,0,16,-12,16,-32c0,0,0,-44,-103,-142L404,377L548,49L634,33L628,0H437L313,298L185,176c0,0,-41,-40,-60,-65c0,0,-19,-26,-19,-48c0,0,0,-21,31,-29L131,0Z" 
id="f3_2k"
transform="scale(0.001,-0.001)" />

<path d="M0,356v74H784V356Z" 
id="f4_h"
transform="scale(0.001,-0.001)" />

<path d="M355,0V355H0v72H355V784h72V427H782V355H427V0Z" 
id="f4_f"
transform="scale(0.001,-0.001)" />

<path d="M0,214v74H784V214ZM0,494v72H784V494Z" 
id="f4_x"
transform="scale(0.001,-0.001)" />

<path d="M284,67c0,0,51,0,88,12c0,0,37,12,74,30V358l-98,-3c0,0,-100,-4,-135,-39c0,0,-35,-35,-35,-117c0,0,0,-132,106,-132ZM233,-14c0,0,-179,0,-179,208c0,0,0,70,27,116c0,0,27,46,87,70c0,0,60,24,173,27l105,3V519c0,0,0,72,-26,107c0,0,-27,34,-82,34c0,0,-75,0,-137,-35L176,538H134V691c0,0,121,26,213,26c0,0,115,0,169,-47c0,0,54,-47,54,-144V52L657,33V0H465L451,70c0,0,-85,-84,-218,-84Z" 
id="f2_1x"
transform="scale(0.001,-0.001)" />

<path d="M383,64c0,0,85,0,152,28V645c0,0,-67,13,-152,13c0,0,-194,0,-194,-314c0,0,0,-141,48,-211c0,0,48,-69,146,-69ZM342,-14c0,0,-287,0,-287,358c0,0,0,184,82,280c0,0,81,96,239,96c0,0,81,0,163,-18c0,0,-4,25,-4,124v182l-118,18v34H659V52L745,33V0H548l-9,52c0,0,-84,-66,-197,-66Z" 
id="f2_20"
transform="scale(0.001,-0.001)" />

<path d="M62,-123V268c0,0,0,230,56,452c0,0,47,190,134,334c0,0,87,144,204,242c0,0,85,73,194,119l18,-16c0,0,-211,-145,-335,-339c0,0,-98,-156,-149,-374c0,0,-50,-218,-50,-403V-123Z" 
id="f4_4o"
transform="scale(0.001,-0.001)" />

<path d="M617,-123V283c0,0,0,236,-63,459c0,0,-63,223,-188,392c0,0,-108,146,-282,265l17,16c0,0,180,-76,320,-248c0,0,139,-172,204,-417c0,0,64,-245,64,-482V-123Z" 
id="f4_54"
transform="scale(0.001,-0.001)" />

<path d="M62,-123V1415h72V-123Z" 
id="f4_4p"
transform="scale(0.001,-0.001)" />

<path d="M617,-123V1415h72V-123Z" 
id="f4_55"
transform="scale(0.001,-0.001)" />

<path d="M83,0C83,0,48,0,24,24C24,24,0,49,0,83c0,0,0,34,24,58c0,0,24,24,59,24c0,0,34,0,58,-24c0,0,24,-24,24,-58c0,0,0,-34,-24,-59C141,24,117,0,83,0ZM695,0c0,0,-34,0,-58,24c0,0,-25,25,-25,59c0,0,0,34,25,58c0,0,24,24,58,24c0,0,34,0,58,-24c0,0,24,-24,24,-58c0,0,0,-34,-24,-59C753,24,729,0,695,0ZM388,594c0,0,-34,0,-59,23c0,0,-24,24,-24,59c0,0,0,34,24,58c0,0,25,25,59,25c0,0,34,0,58,-25c0,0,24,-24,24,-58c0,0,0,-35,-24,-59c0,0,-24,-23,-58,-23Z" 
id="f4_1s"
transform="scale(0.001,-0.001)" />

<path d="M650,-123c0,0,-180,75,-319,246c0,0,-140,172,-205,418c0,0,-64,245,-64,481v393h72V1007c0,0,0,-236,63,-459c0,0,63,-223,189,-391c0,0,108,-145,282,-265l-18,-15Z" 
id="f4_4q"
transform="scale(0.001,-0.001)" />

<path d="M101,-123l-17,15c0,0,210,144,334,339c0,0,99,156,149,373c0,0,50,218,50,403v408h72V1022c0,0,0,-230,-56,-451c0,0,-48,-191,-134,-335C499,236,412,92,295,-5c0,0,-84,-73,-194,-118Z" 
id="f4_56"
transform="scale(0.001,-0.001)" />

<path d="M945,-20c0,0,47,75,125,153H57v74H1147l108,91c0,0,23,19,95,72c0,0,-134,103,-203,166H57v72H1070c0,0,-78,78,-125,154h85c0,0,88,-107,217,-217c0,0,130,-110,206,-154V349c0,0,-101,-58,-219,-162c0,0,-118,-103,-204,-207Z" 
id="f4_4g"
transform="scale(0.001,-0.001)" />

<path d="M595,60c0,0,141,0,206,102c0,0,65,102,65,340c0,0,0,236,-65,335c0,0,-65,100,-206,100c0,0,-142,0,-207,-100c0,0,-66,-99,-66,-335c0,0,0,-239,66,-340c0,0,65,-102,207,-102Zm0,-74c0,0,-253,0,-387,130C208,116,75,246,75,501c0,0,0,510,520,510c0,0,256,0,387,-129c0,0,132,-130,132,-381c0,0,0,-254,-133,-385C981,116,848,-14,595,-14Z" 
id="f5_1f"
transform="scale(0.001,-0.001)" />

<path d="M498,506c0,0,115,0,164,47c0,0,48,48,48,166c0,0,0,112,-46,156c0,0,-46,43,-169,43H390V506ZM793,0L514,423H390V74L518,54V0H36V54L154,74V926L26,945v55H504c0,0,221,0,330,-68c0,0,109,-68,109,-212c0,0,0,-215,-201,-276L1009,74L1117,54V0Z" 
id="f5_1i"
transform="scale(0.001,-0.001)" />

<path d="M412,-328c0,0,-195,96,-303,284C109,-44,0,142,0,365c0,0,0,232,114,422c0,0,114,191,298,273v-31c0,0,-92,-51,-151,-139c0,0,-59,-88,-88,-223c0,0,-29,-136,-29,-282c0,0,0,-167,27,-301c0,0,26,-133,82,-221c0,0,55,-89,159,-159v-32Z" 
id="f4_c"
transform="scale(0.001,-0.001)" />

<path d="M34,-328v32c0,0,92,50,151,138c0,0,59,88,88,222c0,0,29,135,29,283c0,0,0,165,-27,300c0,0,-26,134,-82,222c0,0,-56,89,-159,160v31c0,0,194,-96,303,-284c0,0,108,-187,108,-410c0,0,0,-232,-114,-422c0,0,-114,-191,-297,-272Z" 
id="f4_d"
transform="scale(0.001,-0.001)" />

<path d="M350,-14c0,0,-142,0,-253,31L89,228h49L172,87c0,0,32,-18,78,-29c0,0,46,-11,88,-11c0,0,118,0,173,56c0,0,56,55,56,187c0,0,0,93,-24,140c0,0,-24,47,-76,70c0,0,-52,22,-140,22c0,0,-68,0,-133,-18H122v496H630V886H189V567c0,0,81,18,173,18c0,0,173,0,258,-71c0,0,84,-71,84,-216c0,0,0,-151,-92,-232c0,0,-91,-80,-262,-80Z" 
id="f2_p"
transform="scale(0.001,-0.001)" />

<path d="M377,45c0,0,100,0,147,52c0,0,47,52,47,174c0,0,0,119,-46,173c0,0,-47,54,-148,54c0,0,-98,0,-141,-51c0,0,-44,-51,-44,-176c0,0,0,-126,44,-176c0,0,44,-50,141,-50Zm2,518c0,0,84,0,123,46c0,0,39,46,39,148c0,0,0,102,-40,151c0,0,-41,48,-122,48c0,0,-79,0,-118,-47c0,0,-38,-47,-38,-152c0,0,0,-104,37,-149c0,0,38,-45,119,-45ZM377,-14c0,0,-319,0,-319,285c0,0,0,99,48,164c0,0,48,66,129,96c0,0,-65,30,-106,87c0,0,-40,56,-40,139c0,0,0,123,75,191c0,0,76,68,219,68c0,0,139,0,216,-67c0,0,76,-68,76,-192c0,0,0,-82,-40,-139c0,0,-40,-57,-108,-87c0,0,85,-31,132,-98c0,0,47,-67,47,-162c0,0,0,-142,-80,-214c0,0,-80,-71,-249,-71Z" 
id="f2_s"
transform="scale(0.001,-0.001)" />

<path d="M140,-21c0,0,-26,0,-44,17C96,-4,79,13,79,40c0,0,0,19,6,33c0,0,8,20,34,55c0,0,46,60,64,126c0,0,32,114,41,321H190c0,0,-55,0,-81,-18c0,0,-44,-26,-80,-89H0c0,0,42,129,98,178c0,0,43,37,120,37H743V575H562c0,0,-27,-171,-27,-327c0,0,0,-77,27,-110c0,0,27,-33,67,-33c0,0,33,0,56,22c0,0,24,22,31,65h27C743,192,730,74,686,26c0,0,-44,-47,-98,-47c0,0,-58,0,-97,51c0,0,-39,53,-39,198c0,0,0,91,28,347H286c0,0,-23,-390,-56,-494c0,0,-33,-102,-90,-102Z" 
id="f4_2c"
transform="scale(0.001,-0.001)" />

<path d="M350,-14c0,0,-142,0,-269,31L73,228h49L156,87c0,0,29,-16,82,-28c0,0,54,-12,100,-12c0,0,117,0,173,54c0,0,56,53,56,178c0,0,0,99,-52,150c0,0,-51,51,-159,56l-107,6v61l107,7c0,0,84,5,124,52c0,0,41,48,41,145c0,0,0,101,-44,147c0,0,-44,45,-139,45c0,0,-40,0,-83,-10c0,0,-43,-11,-76,-29L153,786H104V979c0,0,74,19,127,26c0,0,54,6,107,6c0,0,321,0,321,-246c0,0,0,-104,-57,-165c0,0,-57,-62,-162,-77c0,0,136,-16,200,-78c0,0,64,-62,64,-173c0,0,0,-135,-92,-211c0,0,-93,-75,-262,-75Z" 
id="f2_n"
transform="scale(0.001,-0.001)" />

<path d="M377,45c0,0,99,0,145,108c0,0,46,109,46,352c0,0,0,240,-45,345c0,0,-46,106,-146,106c0,0,-97,0,-139,-100c0,0,-43,-99,-43,-351c0,0,0,-254,44,-357c0,0,43,-103,138,-103Zm0,-59c0,0,-158,0,-238,132c0,0,-81,133,-81,386c0,0,0,249,81,380c0,0,80,132,244,132c0,0,159,0,241,-130c0,0,82,-130,82,-382c0,0,0,-518,-329,-518Z" 
id="f2_k"
transform="scale(0.001,-0.001)" />

<path d="M476,327V830h-4L114,327ZM476,0V220H30v99l488,686h86V327H740V220H604V0Z" 
id="f2_o"
transform="scale(0.001,-0.001)" />

<path d="M58,-234v58c0,0,131,42,131,125c0,0,0,15,-11,27c0,0,-11,12,-38,25C140,1,89,27,89,75c0,0,0,40,25,61c0,0,26,21,65,21c0,0,48,0,77,-34c0,0,30,-34,30,-86c0,0,0,-101,-60,-170c0,0,-59,-69,-168,-101Z" 
id="f2_g"
transform="scale(0.001,-0.001)" />

<path d="M0,0V74H784V0ZM357,164V519H0v73H357V948h72V592H784V519H429V164Z" 
id="f4_37"
transform="scale(0.001,-0.001)" />

<path d="M122,0V64L295,82V837L123,780v64l282,165H511V82L685,64V0Z" 
id="f5_l"
transform="scale(0.001,-0.001)" />

<path d="M346,-14c0,0,-139,0,-276,29L61,258h69L169,96c0,0,29,-16,71,-26c0,0,43,-10,77,-10c0,0,172,0,172,230c0,0,0,120,-44,174c0,0,-44,53,-139,53c0,0,-53,0,-97,-19L186,488H111v512H633V834H194V571c0,0,91,21,164,21c0,0,178,0,264,-74c0,0,86,-73,86,-220c0,0,0,-151,-94,-232c0,0,-93,-80,-268,-80Z" 
id="f5_p"
transform="scale(0.001,-0.001)" />

<path d="M191,-20c0,0,-51,0,-88,34c0,0,-36,36,-36,88c0,0,0,52,36,88c0,0,36,36,88,36c0,0,51,0,88,-36c0,0,36,-36,36,-88c0,0,0,-51,-36,-87c0,0,-36,-35,-88,-35Z" 
id="f5_i"
transform="scale(0.001,-0.001)" />

<path d="M55,0V40L184,60V941L55,960v40H455V960L327,941V60L455,40V0Z" 
id="f2_19"
transform="scale(0.001,-0.001)" />

<path d="M64,0V34L168,59V639H47v36l121,29v49c0,0,0,155,61,239c0,0,62,84,173,84c0,0,58,0,107,-15V908H472l-33,92c0,0,-26,16,-62,16c0,0,-47,0,-66,-42c0,0,-19,-42,-19,-157V701H478V639H292V59L443,34V0Z" 
id="f2_22"
transform="scale(0.001,-0.001)" />

<path d="M148,-329c0,0,-58,0,-114,13v151H69l24,-71c0,0,23,-17,64,-17c0,0,39,0,72,22c0,0,33,23,60,67c0,0,27,44,68,157L90,649L19,668v33H344V668L233,648L423,158L606,649L497,668v33H758V668L685,652L411,-43c0,0,-48,-124,-84,-177c0,0,-36,-54,-79,-82c0,0,-44,-27,-100,-27Z" 
id="f2_2l"
transform="scale(0.001,-0.001)" />

<path d="M76,316v76H787V316Zm0,306v76H787V622Z" 
id="f2_x"
transform="scale(0.001,-0.001)" />

<path d="M392,152V469H76v77H392V863h77V546H787V469H469V152Z" 
id="f2_f"
transform="scale(0.001,-0.001)" />

<path d="M13,0V34L95,46L325,350L122,649L40,668v33H357V668L264,648L399,446L554,649l-96,19v33H710V668L630,652L433,397L663,50L745,34V0H427V34l94,17L359,299L169,50L266,34V0Z" 
id="f2_2k"
transform="scale(0.001,-0.001)" />

<path d="M0,0V72H751V0ZM751,166L0,538v38L751,949V868L123,559L751,247V166Z" 
id="f4_2t"
transform="scale(0.001,-0.001)" />

<path d="M442,0V33l93,19V504c0,0,0,129,-124,129c0,0,-70,0,-168,-22V52L338,33V0H31V33l88,19v956L15,1026v34H243V756c0,0,0,-77,-5,-112c0,0,54,31,122,53c0,0,68,23,115,23c0,0,91,0,137,-53c0,0,47,-53,47,-154V52L744,33V0Z" 
id="f2_24"
transform="scale(0.001,-0.001)" />

<path d="M495,413c0,0,0,133,-34,190c0,0,-34,57,-105,57c0,0,-78,0,-119,-63c0,0,-42,-62,-42,-184ZM374,-14c0,0,-163,0,-239,87c0,0,-75,88,-75,283c0,0,0,183,77,273c0,0,76,91,219,91c0,0,269,0,269,-306V353H194V340c0,0,0,-103,23,-160c0,0,22,-57,70,-87c0,0,47,-29,124,-29c0,0,40,0,96,6c0,0,55,7,91,15V43C598,43,562,20,500,3c0,0,-61,-17,-126,-17Z" 
id="f2_21"
transform="scale(0.001,-0.001)" />

<path d="M191,-20c0,0,-39,0,-65,25c0,0,-25,27,-25,64c0,0,0,38,26,64c0,0,26,26,64,26c0,0,38,0,64,-26c0,0,26,-26,26,-64c0,0,0,-37,-25,-64c0,0,-26,-25,-65,-25Z" 
id="f2_i"
transform="scale(0.001,-0.001)" />

<path d="M410,-14c0,0,-86,0,-175,14C235,0,145,14,81,38V307h66L181,146c0,0,31,-37,94,-62c0,0,64,-24,132,-24c0,0,214,0,214,177c0,0,0,55,-41,93c0,0,-41,38,-128,68c0,0,-128,42,-185,68c0,0,-56,27,-95,63c0,0,-38,36,-62,87c0,0,-23,51,-23,125c0,0,0,132,90,201c0,0,90,69,263,69c0,0,125,0,278,-32V741H651L618,878c0,0,-76,56,-178,56c0,0,-92,0,-141,-34c0,0,-49,-34,-49,-104c0,0,0,-50,41,-86c0,0,41,-35,128,-63c0,0,171,-56,235,-97c0,0,64,-41,97,-103c0,0,34,-61,34,-143c0,0,0,-318,-375,-318Z" 
id="f5_1j"
transform="scale(0.001,-0.001)" />

<path d="M379,60c0,0,59,0,84,64c0,0,24,65,24,231c0,0,0,164,-24,227c0,0,-24,63,-84,63c0,0,-57,0,-80,-60c0,0,-22,-61,-22,-230c0,0,0,-173,23,-234c0,0,22,-61,79,-61Zm-2,-74c0,0,-161,0,-240,91c0,0,-79,91,-79,277c0,0,0,186,80,276c0,0,81,90,245,90c0,0,167,0,245,-93c0,0,78,-93,78,-273c0,0,0,-188,-81,-278c0,0,-81,-90,-248,-90Z" 
id="f5_2b"
transform="scale(0.001,-0.001)" />

<path d="M30,0V49l76,18V992l-72,18v50H322V67L398,49V0Z" 
id="f5_28"
transform="scale(0.001,-0.001)" />

<path d="M287,-18c0,0,-194,0,-194,206V634L23,652v49H309V217c0,0,0,-63,26,-98c0,0,27,-35,76,-35c0,0,57,0,113,25V634l-64,18v49H740V67L809,49V0H536L526,61L475,35c0,0,-104,-53,-188,-53Z" 
id="f5_2h"
transform="scale(0.001,-0.001)" />

<path d="M327,-14c0,0,-101,0,-156,45c0,0,-55,45,-55,131V624H25v48l108,29l87,159H332V701H480V624H332V176c0,0,0,-49,20,-73c0,0,20,-25,53,-25c0,0,40,0,97,12V26c0,0,-22,-15,-76,-27c0,0,-55,-13,-99,-13Z" 
id="f5_2g"
transform="scale(0.001,-0.001)" />

<path d="M34,0V49l76,18V634L38,652v49H325V67L402,49V0ZM217,831c0,0,-48,0,-81,33c0,0,-34,33,-34,82c0,0,0,48,34,81c0,0,34,33,81,33c0,0,48,0,81,-33c0,0,33,-33,33,-81c0,0,0,-47,-33,-81c0,0,-32,-34,-81,-34Z" 
id="f5_25"
transform="scale(0.001,-0.001)" />

<path d="M41,0V49l69,18V634L41,652v49H313l11,-61l50,26c0,0,105,54,188,54c0,0,194,0,194,-207V67L827,49V0H478V49l63,18V484c0,0,0,63,-27,98c0,0,-26,35,-75,35c0,0,-57,0,-114,-25V67L389,49V0Z" 
id="f5_2a"
transform="scale(0.001,-0.001)" />

<path d="M248,-20c0,0,-52,0,-87,34c0,0,-36,36,-36,88c0,0,0,52,36,88c0,0,35,36,87,36c0,0,52,0,88,-36c0,0,36,-36,36,-88c0,0,0,-51,-36,-87c0,0,-35,-35,-88,-35Zm0,488c0,0,-52,0,-87,36c0,0,-36,36,-36,88c0,0,0,52,35,88c0,0,35,36,88,36c0,0,53,0,89,-36c0,0,35,-37,35,-88c0,0,0,-51,-36,-87c0,0,-35,-37,-88,-37Z" 
id="f5_u"
transform="scale(0.001,-0.001)" />

<path d="M394,460c0,0,126,0,186,57c0,0,60,57,60,187c0,0,0,123,-57,176c0,0,-58,53,-194,53H316V460ZM54,0V40L172,60V941L44,960v40H421c0,0,368,0,368,-295c0,0,0,-153,-93,-233c0,0,-93,-80,-267,-80H316V60L475,40V0Z" 
id="f2_1g"
transform="scale(0.001,-0.001)" />

<path d="M289,-14c0,0,-179,0,-179,205V649L20,668v33H233V200c0,0,0,-128,120,-128c0,0,92,0,173,23V649L420,668v33H649V52L738,33V0H533l-6,57C527,57,474,28,405,7c0,0,-69,-21,-116,-21Z" 
id="f2_2h"
transform="scale(0.001,-0.001)" />

<path d="M240,-14L113,649L37,668l6,33H225L323,174L554,622h55L700,171L847,461c0,0,43,85,43,141c0,0,0,27,-16,44c0,0,-15,16,-33,22l6,33H988c0,0,20,-17,20,-47c0,0,0,-51,-62,-164L671,-14H622L530,447L292,-14Z" 
id="f3_2j"
transform="scale(0.001,-0.001)" />

<path d="M188,355c0,0,148,11,236,69c0,0,89,58,89,143c0,0,0,41,-23,68c0,0,-22,27,-66,27c0,0,-52,0,-101,-43c0,0,-49,-42,-85,-114c0,0,-36,-71,-50,-150ZM298,-14c0,0,-120,0,-186,67c0,0,-65,67,-65,193c0,0,0,125,53,232c0,0,52,108,145,175c0,0,94,67,196,67c0,0,92,0,147,-42c0,0,56,-43,56,-111c0,0,0,-102,-126,-173c0,0,-125,-72,-336,-86l-3,-54c0,0,0,-95,40,-143c0,0,40,-47,118,-47c0,0,67,0,124,22c0,0,57,23,106,52l22,-32c0,0,-69,-58,-146,-89c0,0,-76,-31,-145,-31Z" 
id="f3_21"
transform="scale(0.001,-0.001)" />

<path d="M312,78c0,0,42,0,93,28c0,0,51,27,99,76l82,460c0,0,-18,5,-32,9c0,0,-14,3,-28,6c0,0,-14,2,-29,3c0,0,-16,1,-36,1c0,0,-75,0,-139,-56c0,0,-64,-56,-100,-150c0,0,-37,-95,-37,-202c0,0,0,-80,33,-127c0,0,33,-48,94,-48ZM249,-325c0,0,-65,0,-136,16c0,0,-70,15,-112,37l13,170H48l27,-93c0,0,60,-59,173,-59c0,0,91,0,145,47c0,0,54,48,72,152l29,175c0,0,-54,-59,-120,-97c0,0,-66,-37,-119,-37c0,0,-95,0,-149,66c0,0,-55,67,-55,182c0,0,0,131,58,243c0,0,57,112,154,177c0,0,97,66,211,66c0,0,45,0,117,-9c0,0,72,-9,128,-22L594,-25c0,0,-28,-158,-108,-229c0,0,-80,-71,-237,-71Z" 
id="f3_23"
transform="scale(0.001,-0.001)" />

<path d="M200,-14c0,0,-59,0,-93,35c0,0,-34,36,-34,100c0,0,0,22,4,51c0,0,4,30,82,467H67l6,33l99,29L275,860h47L295,701H455L443,639H283L210,230c0,0,-13,-69,-13,-99c0,0,0,-34,17,-51c0,0,17,-16,43,-16c0,0,54,0,113,21L386,50c0,0,-92,-64,-186,-64Z" 
id="f3_2g"
transform="scale(0.001,-0.001)" />

<path d="M338,28c0,0,48,0,91,45c0,0,43,45,65,144c0,0,22,99,26,276H143c0,0,3,-133,20,-239c0,0,13,-80,44,-140c0,0,19,-36,54,-61c0,0,36,-25,77,-25ZM522,543c0,0,-1,194,-37,312c0,0,-29,90,-76,129c0,0,-34,28,-79,28c0,0,-51,0,-93,-39c0,0,-43,-40,-65,-132c0,0,-22,-93,-29,-298ZM329,-21c0,0,-68,0,-124,31c0,0,-56,33,-99,95c0,0,-43,62,-66,131C40,236,0,356,0,489c0,0,0,294,119,453c0,0,91,119,217,119c0,0,122,0,209,-115c0,0,121,-160,121,-436c0,0,0,-263,-119,-415C547,95,455,-21,329,-21Z" 
id="f4_2d"
transform="scale(0.001,-0.001)" />

<path d="M-15,-329c0,0,-61,0,-112,13l28,152h34l12,-72c0,0,18,-17,60,-17c0,0,100,0,212,202L253,9L116,649L33,668l6,33H230L338,155L513,458c0,0,48,83,48,144c0,0,0,27,-16,44c0,0,-15,16,-33,22l6,33H659c0,0,20,-17,20,-47c0,0,0,-59,-62,-164L322,-7c0,0,-86,-145,-135,-205c0,0,-50,-61,-98,-89c0,0,-49,-28,-104,-28Z" 
id="f3_2l"
transform="scale(0.001,-0.001)" />

<path d="M301,78c0,0,41,0,90,27c0,0,49,28,95,77l81,442c0,0,-26,18,-54,27c0,0,-27,10,-67,10c0,0,-70,0,-131,-55c0,0,-61,-55,-99,-152c0,0,-37,-97,-37,-201c0,0,0,-79,33,-127c0,0,33,-48,89,-48ZM245,-14c0,0,-91,0,-145,68c0,0,-54,69,-54,183c0,0,0,128,55,240c0,0,55,112,150,177c0,0,96,66,210,66c0,0,70,0,123,-18c0,0,3,36,51,306l-115,18l6,34H768L589,52L673,33L667,0H454l22,117C476,117,350,-14,245,-14Z" 
id="f3_20"
transform="scale(0.001,-0.001)" />

<path d="M83,308c0,0,-35,0,-59,24c0,0,-24,24,-24,59c0,0,0,34,24,58c0,0,24,24,59,24c0,0,33,0,58,-24c0,0,24,-24,24,-58c0,0,0,-35,-24,-59c0,0,-25,-24,-58,-24Z" 
id="f4_49"
transform="scale(0.001,-0.001)" />

<path d="M404,60c0,0,54,0,75,59c0,0,21,59,21,177c0,0,0,106,-29,162c0,0,-29,57,-87,57c0,0,-55,0,-112,-17v-4c0,0,0,-434,132,-434Zm3,-74c0,0,-172,0,-263,130c0,0,-92,130,-92,378c0,0,0,161,48,278c0,0,48,117,135,178c0,0,87,61,199,61c0,0,117,0,225,-32V751H594L562,896c0,0,-52,39,-113,39c0,0,-75,0,-121,-95c0,0,-47,-96,-55,-267c0,0,81,35,161,35c0,0,137,0,211,-77c0,0,74,-77,74,-220c0,0,0,-158,-81,-242c0,0,-81,-83,-231,-83Z" 
id="f5_q"
transform="scale(0.001,-0.001)" />

<path d="M376,50c0,0,103,0,149,80c0,0,46,81,46,240c0,0,0,137,-47,204c0,0,-48,67,-148,67c0,0,-44,0,-87,-7c0,0,-44,-8,-63,-17V62c0,0,63,-12,150,-12Zm3,-64c0,0,-64,0,-141,14c0,0,-78,14,-136,37v971L0,1026v34H226V809c0,0,0,-40,-4,-148c0,0,74,59,188,59c0,0,143,0,219,-87c0,0,77,-87,77,-263c0,0,0,-189,-84,-287c0,0,-84,-97,-243,-97Z" 
id="f2_1y"
transform="scale(0.001,-0.001)" />

<path d="M57,302V417H454V302Z" 
id="f2_h"
transform="scale(0.001,-0.001)" />

<path d="M327,-14L84,649L1,668v33H335V668L219,648L385,174L554,632h63L786,171L944,649L830,668v33h267V668l-78,-16L784,-14H726L553,448L382,-14Z" 
id="f2_2j"
transform="scale(0.001,-0.001)" />

<path d="M301,78c0,0,85,0,185,104l81,442c0,0,-29,20,-55,28c0,0,-25,8,-62,8c0,0,-75,0,-137,-56c0,0,-62,-56,-98,-152c0,0,-36,-95,-36,-199c0,0,0,-79,33,-127c0,0,33,-48,89,-48ZM245,-14c0,0,-90,0,-145,66c0,0,-54,66,-54,182c0,0,0,131,57,244c0,0,57,114,152,178c0,0,96,64,208,64c0,0,90,0,170,-33l33,26h40L589,52L673,33L667,0H454l22,117C476,117,350,-14,245,-14Z" 
id="f3_1x"
transform="scale(0.001,-0.001)" />

<path d="M305,45c0,0,76,0,141,56c0,0,64,56,101,151c0,0,37,95,37,200c0,0,0,83,-35,129c0,0,-34,46,-92,46c0,0,-44,0,-96,-29c0,0,-51,-29,-97,-75L185,81c0,0,43,-36,120,-36ZM295,-14c0,0,-65,0,-128,16C167,2,104,19,57,48l171,960l-100,18l6,34H358L303,731c0,0,-13,-85,-29,-144c0,0,59,61,122,97c0,0,64,36,116,36c0,0,94,0,150,-67c0,0,56,-67,56,-182c0,0,0,-129,-56,-242C662,229,606,115,509,50c0,0,-98,-64,-214,-64Z" 
id="f3_1y"
transform="scale(0.001,-0.001)" />


</defs>
</svg>