<?xml version="1.0" encoding="UTF-8" standalone="no"?>
<!DOCTYPE svg PUBLIC "-//W3C//DTD SVG 1.1//EN"
"http://www.w3.org/Graphics/SVG/1.1/DTD/svg11.dtd">
<svg viewBox="0 0 909 1286" version="1.1" xmlns="http://www.w3.org/2000/svg" xmlns:xlink="http://www.w3.org/1999/xlink">
<defs>
<clipPath id="c0_70"><path d="M55.2,174.7V126H469.8v48.7Z" /></clipPath>
<clipPath id="c1_70"><path d="M125.9,237.8V200.7H317.1v37.1Z" /></clipPath>
<clipPath id="c2_70"><path d="M55.2,297.2V264.5H236v32.7Z" /></clipPath>
<clipPath id="c3_70"><path d="M55.2,372V323.2H193.6V372Z" /></clipPath>
<clipPath id="c4_70"><path d="M55.2,422.6V373.8H455.5v48.8Z" /></clipPath>
<clipPath id="c5_70"><path d="M55.2,473.6V424.8H193v48.8Z" /></clipPath>
<clipPath id="c6_70"><path d="M55.2,525.6V503.5H97.1v22.1Z" /></clipPath>
<clipPath id="c7_70"><path d="M55.2,576.2V527.5H278v48.7Z" /></clipPath>
<clipPath id="c8_70"><path d="M55.2,626.8V578H218.1v48.8Z" /></clipPath>
<clipPath id="c9_70"><path d="M55.2,683.3V628.7H250.6v54.6Z" /></clipPath>
<clipPath id="c10_70"><path d="M55.2,741.9V685.6H620.5v56.3Z" /></clipPath>
<clipPath id="c11_70"><path d="M55.2,841.3V792.5H296.6v48.8Z" /></clipPath>
<clipPath id="c12_70"><path d="M55.2,916.5V867.7h193v48.8Z" /></clipPath>
<clipPath id="c13_70"><path d="M55.2,971.1V918H240.3v53.1Z" /></clipPath>
<clipPath id="c14_70"><path d="M95.5,1014V973.3H252.3V1014Z" /></clipPath>
<clipPath id="c15_70"><path d="M55.2,1061.7v-16.3H73v16.3Z" /></clipPath>
<clipPath id="c16_70"><path d="M90.4,1061.7v-16.3h14.9v16.3Z" /></clipPath>
<clipPath id="c17_70"><path d="M55.2,1087.7v-19.6H79.1v19.6Z" /></clipPath>
<clipPath id="c18_70"><path d="M55.2,1166.6v-28.4H278v28.4Z" /></clipPath>
<style type="text/css"><![CDATA[
.g0_70{
fill: #D9D9D9;
}
.g1_70{
fill: none;
stroke: #000000;
stroke-width: 0.7638889;
stroke-linecap: butt;
stroke-linejoin: miter;
}
.g2_70{
fill: none;
stroke: #000000;
stroke-width: 0.9100992;
stroke-linecap: butt;
stroke-linejoin: round;
}
.g3_70{
fill: none;
stroke: #000000;
stroke-width: 0.21243583;
stroke-linecap: square;
stroke-linejoin: round;
}
.g4_70{
}
.g5_70{
fill: none;
stroke: #000000;
stroke-width: 0.21274002;
stroke-linecap: square;
stroke-linejoin: round;
}
.g6_70{
fill: none;
stroke: #000000;
stroke-width: 0.9018204;
stroke-linecap: butt;
stroke-linejoin: round;
}
.g7_70{
fill: none;
stroke: #000000;
stroke-width: 0.9121242;
stroke-linecap: butt;
stroke-linejoin: round;
}
.g8_70{
fill: none;
stroke: #000000;
stroke-width: 0.21311668;
stroke-linecap: square;
stroke-linejoin: round;
}
.g9_70{
fill: none;
stroke: #000000;
stroke-width: 0.9075308;
stroke-linecap: butt;
stroke-linejoin: round;
}
.g10_70{
fill: none;
stroke: #000000;
stroke-width: 0.9080824;
stroke-linecap: butt;
stroke-linejoin: round;
}
.g11_70{
fill: none;
stroke: #000000;
stroke-width: 0.21217231;
stroke-linecap: square;
stroke-linejoin: round;
}
.g12_70{
fill: none;
stroke: #000000;
stroke-width: 0.41620636;
stroke-linecap: butt;
stroke-linejoin: round;
}
.g13_70{
fill: none;
stroke: #000000;
stroke-width: 0.9123533;
stroke-linecap: butt;
stroke-linejoin: round;
}
.g14_70{
fill: none;
stroke: #000000;
stroke-width: 0.21210451;
stroke-linecap: square;
stroke-linejoin: round;
}
.g15_70{
fill: none;
stroke: #000000;
stroke-width: 0.90779227;
stroke-linecap: butt;
stroke-linejoin: round;
}
.g16_70{
fill: none;
stroke: #000000;
stroke-width: 0.91309625;
stroke-linecap: butt;
stroke-linejoin: round;
}
.g17_70{
fill: none;
stroke: #000000;
stroke-width: 0.21334378;
stroke-linecap: square;
stroke-linejoin: round;
}
.g18_70{
fill: none;
stroke: #000000;
stroke-width: 0.7582562;
stroke-linecap: butt;
stroke-linejoin: round;
}
.g19_70{
fill: none;
stroke: #000000;
stroke-width: 0.9105527;
stroke-linecap: butt;
stroke-linejoin: round;
}
.g20_70{
fill: none;
stroke: #000000;
stroke-width: 0.9089803;
stroke-linecap: butt;
stroke-linejoin: round;
}
.g21_70{
fill: none;
stroke: #000000;
stroke-width: 0.4139591;
stroke-linecap: butt;
stroke-linejoin: round;
}
]]></style>
</defs>
<image preserveAspectRatio="none" x="747" y="1196" width="96" height="59" xlink:href="img/1.png" />
<image preserveAspectRatio="none" x="336" y="41" width="259" height="51" xlink:href="img/2.png" />
<image preserveAspectRatio="none" x="342" y="50" width="247" height="27" xlink:href="img/3.png" />
<image preserveAspectRatio="none" x="341" y="45" width="239" height="42" xlink:href="img/4.png" />
<g fill="#FFFFFF" >
<use xlink:href="#f0_j" transform="matrix(11.5,0,0,11.5,355.1,70.1)" />
<use xlink:href="#f0_i" transform="matrix(11.5,0,0,11.5,364.3,70.1)" />
<use xlink:href="#f0_2n" transform="matrix(11.5,0,0,11.5,374.1,70.1)" />
<use xlink:href="#f0_t" transform="matrix(11.5,0,0,11.5,382.6,70.1)" />
<use xlink:href="#f0_oj" transform="matrix(11.5,0,0,11.5,391,70.1)" />
<use xlink:href="#f0_3e" transform="matrix(11.5,0,0,11.5,396.5,70.1)" />
<use xlink:href="#f0_1c" transform="matrix(11.5,0,0,11.5,406.1,70.1)" />
<use xlink:href="#f0_1c" transform="matrix(11.5,0,0,11.5,410.8,70.1)" />
<use xlink:href="#f0_oj" transform="matrix(11.5,0,0,11.5,415.6,70.1)" />
<use xlink:href="#f0_rz" transform="matrix(11.5,0,0,11.5,421.1,70.1)" />
<use xlink:href="#f0_rx" transform="matrix(11.5,0,0,11.5,429.9,70.1)" />
<use xlink:href="#f0_ry" transform="matrix(11.5,0,0,11.5,438.7,70.1)" />
<use xlink:href="#f0_s3" transform="matrix(11.5,0,0,11.5,447.5,70.1)" />
<use xlink:href="#f0_t" transform="matrix(11.5,0,0,11.5,460.4,70.1)" />
<use xlink:href="#f0_3e" transform="matrix(11.5,0,0,11.5,468.8,70.1)" />
<use xlink:href="#f0_5" transform="matrix(11.5,0,0,11.5,478.3,70.1)" />
<use xlink:href="#f0_1x" transform="matrix(11.5,0,0,11.5,489,70.1)" />
<use xlink:href="#f0_1c" transform="matrix(11.5,0,0,11.5,504.4,70.1)" />
<use xlink:href="#f0_1y" transform="matrix(11.5,0,0,11.5,509.1,70.1)" />
<use xlink:href="#f0_5" transform="matrix(11.5,0,0,11.5,520.8,70.1)" />
<use xlink:href="#f0_2t" transform="matrix(11.5,0,0,11.5,531.5,70.1)" />
<use xlink:href="#f0_1c" transform="matrix(11.5,0,0,11.5,540.2,70.1)" />
<use xlink:href="#f0_24" transform="matrix(11.5,0,0,11.5,545,70.1)" />
<use xlink:href="#f0_1y" transform="matrix(11.5,0,0,11.5,556.7,70.1)" />
</g>
<image preserveAspectRatio="none" x="554" y="45" width="36" height="42" xlink:href="img/5.png" />
<g fill="#FFFFFF" >
<use xlink:href="#f1_r" transform="matrix(11,0,0,11,770.3,1227.6)" />
<use xlink:href="#f1_j" transform="matrix(11,0,0,11,783.5,1227.6)" />
<use xlink:href="#f1_l" transform="matrix(11,0,0,11,794.1,1227.6)" />
<use xlink:href="#f1_r" transform="matrix(11,0,0,11,802.9,1227.6)" />
</g>
<path fill-rule="evenodd" d="M52.8,1193.5H856.9v-.8H52.8v.8Z" class="g0_70" />
<path d="M37.9,99.4L873,98.5" class="g1_70" />
<path d="M72.7,151.9h9.8m100.1,0h9.7m67.7,0h9.7m103.3,0h10.6m41,0h11.2" class="g2_70" />
<g clip-path="url(#c0_70)">
<g fill="#000000" >
<use xlink:href="#f2_m" transform="matrix(7.3,0,0,7.1,129,148.2)" />
<use xlink:href="#f2_l" transform="matrix(7.3,0,0,7.1,224.8,148.2)" />
<use xlink:href="#f2_m" transform="matrix(7.3,0,0,7.1,316.2,148.2)" />
<use xlink:href="#f2_l" transform="matrix(7.3,0,0,7.1,416,148.2)" />
<use xlink:href="#f2_l" transform="matrix(12.7,0,0,12.4,73,144.6)" />
<use xlink:href="#f2_l" transform="matrix(12.7,0,0,12.4,182.9,144.6)" />
<use xlink:href="#f2_l" transform="matrix(12.7,0,0,12.4,260.3,144.6)" />
<use xlink:href="#f2_l" transform="matrix(12.7,0,0,12.4,373.7,144.6)" />
<use xlink:href="#f2_28" transform="matrix(12.7,0,0,12.4,85,156.5)" />
<use xlink:href="#f2_2b" transform="matrix(12.7,0,0,12.4,89.8,156.5)" />
<use xlink:href="#f2_23" transform="matrix(12.7,0,0,12.4,99,156.5)" />
<use xlink:href="#f2_2o" transform="matrix(12.7,0,0,12.4,111.8,156.5)" />
<use xlink:href="#f2_l" transform="matrix(12.7,0,0,12.4,151.6,156.5)" />
<use xlink:href="#f2_2o" transform="matrix(12.7,0,0,12.4,162.4,156.5)" />
<use xlink:href="#f2_2g" transform="matrix(12.7,0,0,12.4,195.3,156.5)" />
<use xlink:href="#f2_1x" transform="matrix(12.7,0,0,12.4,200.5,156.5)" />
<use xlink:href="#f2_2a" transform="matrix(12.7,0,0,12.4,208.5,156.5)" />
<use xlink:href="#f2_28" transform="matrix(12.7,0,0,12.4,272.1,156.5)" />
<use xlink:href="#f2_2b" transform="matrix(12.7,0,0,12.4,277,156.5)" />
<use xlink:href="#f2_23" transform="matrix(12.7,0,0,12.4,286.2,156.5)" />
<use xlink:href="#f2_2o" transform="matrix(12.7,0,0,12.4,298.9,156.5)" />
<use xlink:href="#f2_o" transform="matrix(12.7,0,0,12.4,340.8,156.5)" />
<use xlink:href="#f2_2o" transform="matrix(12.7,0,0,12.4,352.9,156.5)" />
<use xlink:href="#f2_2g" transform="matrix(12.7,0,0,12.4,386.5,156.5)" />
<use xlink:href="#f2_1x" transform="matrix(12.7,0,0,12.4,391.6,156.5)" />
<use xlink:href="#f2_2a" transform="matrix(12.7,0,0,12.4,399.6,156.5)" />
<use xlink:href="#f2_n" transform="matrix(12.7,0,0,12.4,73.3,171.2)" />
<use xlink:href="#f2_n" transform="matrix(12.7,0,0,12.4,183.1,171.2)" />
<use xlink:href="#f2_n" transform="matrix(12.7,0,0,12.4,260.5,171.2)" />
<use xlink:href="#f2_q" transform="matrix(12.7,0,0,12.4,373.8,171.2)" />
<use xlink:href="#f2_m" transform="matrix(12.7,0,0,12.4,425.8,171.2)" />
<use xlink:href="#f3_2k" transform="matrix(12.7,0,0,12.4,426.6,144.6)" />
<use xlink:href="#f3_2k" transform="matrix(12.7,0,0,12.4,120,156.5)" />
<use xlink:href="#f3_2k" transform="matrix(12.7,0,0,12.4,233.9,156.5)" />
<use xlink:href="#f3_2k" transform="matrix(12.7,0,0,12.4,307.2,156.5)" />
<use xlink:href="#f3_13" transform="matrix(12.7,0,0,12.4,453.5,156.5)" />
<use xlink:href="#f4_h" transform="matrix(7.3,0,0,7.1,219,148.2)" />
<use xlink:href="#f4_h" transform="matrix(7.3,0,0,7.1,410.2,148.2)" />
<use xlink:href="#f4_x" transform="matrix(12.7,0,0,12.4,58,156.5)" />
<use xlink:href="#f4_f" transform="matrix(12.7,0,0,12.4,139.6,156.5)" />
<use xlink:href="#f4_f" transform="matrix(12.7,0,0,12.4,169.8,156.5)" />
<use xlink:href="#f4_h" transform="matrix(12.7,0,0,12.4,245.9,156.5)" />
<use xlink:href="#f4_f" transform="matrix(12.7,0,0,12.4,326.8,156.5)" />
<use xlink:href="#f4_h" transform="matrix(12.7,0,0,12.4,360.4,156.5)" />
<use xlink:href="#f4_f" transform="matrix(12.7,0,0,12.4,440,156.5)" />
</g>
</g>
<g fill="#000000" >
<use xlink:href="#f5_l" transform="matrix(12,0,0,12,55,225.6)" />
<use xlink:href="#f5_o" transform="matrix(12,0,0,12,64.2,225.6)" />
<use xlink:href="#f5_i" transform="matrix(12,0,0,12,73.4,225.6)" />
<use xlink:href="#f2_16" transform="matrix(12,0,0,12,82.9,225.6)" />
<use xlink:href="#f2_25" transform="matrix(12,0,0,12,93.2,225.6)" />
<use xlink:href="#f2_2a" transform="matrix(12,0,0,12,97.9,225.6)" />
<use xlink:href="#f2_20" transform="matrix(12,0,0,12,106.7,225.6)" />
<use xlink:href="#f2_u" transform="matrix(12,0,0,12,115.9,225.6)" />
</g>
<path d="M196.7,221.5l1.8,-1.1m.1,0l4.4,8.1m0,0l4.9,-21.4m0,-.1h89.8" class="g3_70" />
<path fill-rule="evenodd" d="M195.8,220.6l2.5,-1.6l3.9,6.8l4.6,-20H297v1H207.4l-4.7,21h-.9l-4.5,-7.6l-1.3,.9l-.2,-.5Z" class="g4_70" />
<g clip-path="url(#c1_70)">
<g fill="#000000" >
<use xlink:href="#f2_m" transform="matrix(7.5,0,0,7,289.1,217.9)" />
<use xlink:href="#f2_c" transform="matrix(12.8,0,0,12,138.8,226)" />
<use xlink:href="#f2_n" transform="matrix(12.8,0,0,12,144.8,226)" />
<use xlink:href="#f2_p" transform="matrix(12.8,0,0,12,180,226)" />
<use xlink:href="#f2_d" transform="matrix(12.8,0,0,12,188.9,226)" />
<use xlink:href="#f2_p" transform="matrix(12.8,0,0,12,207.3,226)" />
<use xlink:href="#f2_o" transform="matrix(12.8,0,0,12,233.6,226)" />
<use xlink:href="#f2_m" transform="matrix(12.8,0,0,12,269.7,226)" />
<use xlink:href="#f3_2k" transform="matrix(12.8,0,0,12,154.5,226)" />
<use xlink:href="#f3_2k" transform="matrix(12.8,0,0,12,244,226)" />
<use xlink:href="#f3_2k" transform="matrix(12.8,0,0,12,280.1,226)" />
<use xlink:href="#f3_20" transform="matrix(12.8,0,0,12,296.7,226)" />
<use xlink:href="#f3_2k" transform="matrix(12.8,0,0,12,305.8,226)" />
<use xlink:href="#f4_f" transform="matrix(12.8,0,0,12,166.6,226)" />
<use xlink:href="#f4_f" transform="matrix(12.8,0,0,12,219.6,226)" />
<use xlink:href="#f4_h" transform="matrix(12.8,0,0,12,256,226)" />
<use xlink:href="#f4_50" transform="matrix(19.2,0,0,18,129,232.5)" />
</g>
</g>
<g fill="#000000" >
<use xlink:href="#f5_1j" transform="matrix(12,0,0,12,55,258.2)" />
<use xlink:href="#f5_2b" transform="matrix(12,0,0,12,65.3,258.2)" />
<use xlink:href="#f5_28" transform="matrix(12,0,0,12,74.5,258.2)" />
<use xlink:href="#f5_2h" transform="matrix(12,0,0,12,79.2,258.2)" />
<use xlink:href="#f5_2g" transform="matrix(12,0,0,12,89.5,258.2)" />
<use xlink:href="#f5_25" transform="matrix(12,0,0,12,95.7,258.2)" />
<use xlink:href="#f5_2b" transform="matrix(12,0,0,12,100.8,258.2)" />
<use xlink:href="#f5_2a" transform="matrix(12,0,0,12,109.9,258.2)" />
<use xlink:href="#f5_u" transform="matrix(12,0,0,12,120.2,258.2)" />
</g>
<path d="M115.5,285.3l1.8,-1.1m.1,0l4.4,8.1m0,0l4.9,-21.4m0,0h89.6" class="g5_70" />
<path fill-rule="evenodd" d="M114.6,284.4l2.5,-1.5l3.9,6.8l4.6,-19.9h90v.9H126.2l-4.7,20.9h-.9l-4.4,-7.5l-1.3,.8l-.3,-.5Z" class="g4_70" />
<g clip-path="url(#c2_70)">
<g fill="#000000" >
<use xlink:href="#f2_m" transform="matrix(7.5,0,0,7,207.9,281.7)" />
<use xlink:href="#f2_c" transform="matrix(12.9,0,0,12.1,57.6,289.9)" />
<use xlink:href="#f2_n" transform="matrix(12.9,0,0,12.1,63.6,289.9)" />
<use xlink:href="#f2_p" transform="matrix(12.9,0,0,12.1,98.8,289.9)" />
<use xlink:href="#f2_d" transform="matrix(12.9,0,0,12.1,107.7,289.9)" />
<use xlink:href="#f2_p" transform="matrix(12.9,0,0,12.1,126.1,289.9)" />
<use xlink:href="#f2_o" transform="matrix(12.9,0,0,12.1,152.4,289.9)" />
<use xlink:href="#f2_m" transform="matrix(12.9,0,0,12.1,188.5,289.9)" />
<use xlink:href="#f3_2k" transform="matrix(12.9,0,0,12.1,73.4,289.9)" />
<use xlink:href="#f3_2k" transform="matrix(12.9,0,0,12.1,162.8,289.9)" />
<use xlink:href="#f3_2k" transform="matrix(12.9,0,0,12.1,198.8,289.9)" />
<use xlink:href="#f3_20" transform="matrix(12.9,0,0,12.1,215.3,289.9)" />
<use xlink:href="#f3_2k" transform="matrix(12.9,0,0,12.1,224.4,289.9)" />
<use xlink:href="#f4_f" transform="matrix(12.9,0,0,12.1,85.4,289.9)" />
<use xlink:href="#f4_f" transform="matrix(12.9,0,0,12.1,138.4,289.9)" />
<use xlink:href="#f4_h" transform="matrix(12.9,0,0,12.1,174.8,289.9)" />
</g>
</g>
<g fill="#000000" >
<use xlink:href="#f2_1c" transform="matrix(12,0,0,12,55,317.2)" />
<use xlink:href="#f2_21" transform="matrix(12,0,0,12,66,317.2)" />
<use xlink:href="#f2_2g" transform="matrix(12,0,0,12,74.1,317.2)" />
<use xlink:href="#f2_n" transform="matrix(12,0,0,12,84.3,317.2)" />
<use xlink:href="#f2_2k" transform="matrix(12,0,0,12,93.5,317.2)" />
<use xlink:href="#f2_f" transform="matrix(12,0,0,12,107,317.2)" />
<use xlink:href="#f2_p" transform="matrix(12,0,0,12,122.1,317.2)" />
<use xlink:href="#f2_x" transform="matrix(12,0,0,12,136,317.2)" />
<use xlink:href="#f2_11" transform="matrix(12,0,0,12,150.6,317.2)" />
<use xlink:href="#f2_c" transform="matrix(12,0,0,12,163.5,317.2)" />
<use xlink:href="#f2_o" transform="matrix(12,0,0,12,169.7,317.2)" />
<use xlink:href="#f6_4y" transform="matrix(12,0,0,12,183.8,317.2)" />
<use xlink:href="#f2_o" transform="matrix(12,0,0,12,197.7,317.2)" />
<use xlink:href="#f2_2k" transform="matrix(12,0,0,12,206.9,317.2)" />
<use xlink:href="#f2_d" transform="matrix(12,0,0,12,215.7,317.2)" />
<use xlink:href="#f2_f" transform="matrix(12,0,0,12,226.6,317.2)" />
<use xlink:href="#f2_12" transform="matrix(12,0,0,12,241.7,317.2)" />
</g>
<path d="M128.6,349.1h10.9" class="g6_70" />
<g clip-path="url(#c3_70)">
<g fill="#000000" >
<use xlink:href="#f2_n" transform="matrix(12.6,0,0,12.4,129.8,341.8)" />
<use xlink:href="#f2_g" transform="matrix(12.6,0,0,12.4,141.7,353.8)" />
<use xlink:href="#f2_s" transform="matrix(12.6,0,0,12.4,180.6,353.8)" />
<use xlink:href="#f2_o" transform="matrix(12.6,0,0,12.4,129.8,368.5)" />
<use xlink:href="#f3_11" transform="matrix(12.6,0,0,12.4,86.6,353.8)" />
<use xlink:href="#f3_12" transform="matrix(12.6,0,0,12.4,151.1,353.8)" />
<use xlink:href="#f4_4g" transform="matrix(12.6,0,0,12.4,57.4,353.8)" />
<use xlink:href="#f4_x" transform="matrix(12.6,0,0,12.4,101.7,353.8)" />
<use xlink:href="#f4_h" transform="matrix(12.6,0,0,12.4,116.1,353.8)" />
<use xlink:href="#f4_x" transform="matrix(12.6,0,0,12.4,166.9,353.8)" />
</g>
</g>
<path d="M98.1,399.8H109" class="g7_70" />
<path d="M178.8,399.8l1.8,-1.2m0,0l4.5,8.3m0,0L190,385m0,0h90" class="g8_70" />
<path fill-rule="evenodd" d="M177.9,398.8l2.5,-1.5l3.9,6.9l4.5,-20.4h90.5v.9H189.5l-4.7,21.5h-.9l-4.5,-7.7l-1.3,.8l-.2,-.5Z" class="g4_70" />
<path d="M333,399.8l1.9,-1.2m0,0l4.4,8.3m0,0L344.2,385m0,0H434" class="g8_70" />
<path fill-rule="evenodd" d="M332.1,398.8l2.5,-1.5l4,6.9l4.5,-20.4h90.1v.9H343.8L339,406.2h-.9l-4.5,-7.7l-1.2,.8l-.3,-.5Z" class="g4_70" />
<g clip-path="url(#c4_70)">
<g fill="#000000" >
<use xlink:href="#f2_m" transform="matrix(7.4,0,0,7.1,271.5,396.1)" />
<use xlink:href="#f2_m" transform="matrix(7.4,0,0,7.1,425.5,396.1)" />
<use xlink:href="#f2_n" transform="matrix(12.7,0,0,12.4,99.2,392.5)" />
<use xlink:href="#f2_c" transform="matrix(12.7,0,0,12.4,119.1,404.4)" />
<use xlink:href="#f2_o" transform="matrix(12.7,0,0,12.4,125.7,404.4)" />
<use xlink:href="#f2_o" transform="matrix(12.7,0,0,12.4,152,404.4)" />
<use xlink:href="#f2_d" transform="matrix(12.7,0,0,12.4,170.9,404.4)" />
<use xlink:href="#f2_p" transform="matrix(12.7,0,0,12.4,189.3,404.4)" />
<use xlink:href="#f2_o" transform="matrix(12.7,0,0,12.4,215.7,404.4)" />
<use xlink:href="#f2_m" transform="matrix(12.7,0,0,12.4,252.1,404.4)" />
<use xlink:href="#f2_s" transform="matrix(12.7,0,0,12.4,313.3,404.4)" />
<use xlink:href="#f2_p" transform="matrix(12.7,0,0,12.4,343.5,404.4)" />
<use xlink:href="#f2_o" transform="matrix(12.7,0,0,12.4,369.9,404.4)" />
<use xlink:href="#f2_m" transform="matrix(12.7,0,0,12.4,406,404.4)" />
<use xlink:href="#f2_o" transform="matrix(12.7,0,0,12.4,99.2,419.1)" />
<use xlink:href="#f3_19" transform="matrix(12.7,0,0,12.4,58.5,404.4)" />
<use xlink:href="#f3_2k" transform="matrix(12.7,0,0,12.4,162.3,404.4)" />
<use xlink:href="#f3_2k" transform="matrix(12.7,0,0,12.4,226.1,404.4)" />
<use xlink:href="#f3_2k" transform="matrix(12.7,0,0,12.4,262.4,404.4)" />
<use xlink:href="#f3_20" transform="matrix(12.7,0,0,12.4,278.9,404.4)" />
<use xlink:href="#f3_2k" transform="matrix(12.7,0,0,12.4,288.1,404.4)" />
<use xlink:href="#f3_2k" transform="matrix(12.7,0,0,12.4,380.3,404.4)" />
<use xlink:href="#f3_2k" transform="matrix(12.7,0,0,12.4,416.3,404.4)" />
<use xlink:href="#f3_20" transform="matrix(12.7,0,0,12.4,432.8,404.4)" />
<use xlink:href="#f3_2k" transform="matrix(12.7,0,0,12.4,442,404.4)" />
<use xlink:href="#f4_x" transform="matrix(12.7,0,0,12.4,71,404.4)" />
<use xlink:href="#f4_h" transform="matrix(12.7,0,0,12.4,85.5,404.4)" />
<use xlink:href="#f4_h" transform="matrix(12.7,0,0,12.4,138.3,404.4)" />
<use xlink:href="#f4_f" transform="matrix(12.7,0,0,12.4,201.7,404.4)" />
<use xlink:href="#f4_f" transform="matrix(12.7,0,0,12.4,238.1,404.4)" />
<use xlink:href="#f4_f" transform="matrix(12.7,0,0,12.4,300.1,404.4)" />
<use xlink:href="#f4_f" transform="matrix(12.7,0,0,12.4,355.9,404.4)" />
<use xlink:href="#f4_h" transform="matrix(12.7,0,0,12.4,392.3,404.4)" />
</g>
</g>
<path d="M85.1,450.7h11" class="g9_70" />
<g clip-path="url(#c5_70)">
<g fill="#000000" >
<use xlink:href="#f2_l" transform="matrix(7.3,0,0,7.1,105.4,460.2)" />
<use xlink:href="#f2_m" transform="matrix(7.3,0,0,7.1,145.5,460.2)" />
<use xlink:href="#f2_n" transform="matrix(12.7,0,0,12.4,86.3,443.4)" />
<use xlink:href="#f2_s" transform="matrix(12.7,0,0,12.4,128.5,455.4)" />
<use xlink:href="#f2_c" transform="matrix(12.7,0,0,12.4,156.6,455.4)" />
<use xlink:href="#f2_28" transform="matrix(12.7,0,0,12.4,162.9,455.4)" />
<use xlink:href="#f2_21" transform="matrix(12.7,0,0,12.4,167.8,455.4)" />
<use xlink:href="#f2_2g" transform="matrix(12.7,0,0,12.4,175.8,455.4)" />
<use xlink:href="#f2_d" transform="matrix(12.7,0,0,12.4,181.9,455.4)" />
<use xlink:href="#f2_o" transform="matrix(12.7,0,0,12.4,86.3,470.1)" />
<use xlink:href="#f3_19" transform="matrix(12.7,0,0,12.4,99.4,455.4)" />
<use xlink:href="#f3_19" transform="matrix(12.7,0,0,12.4,138.3,455.4)" />
<use xlink:href="#f4_x" transform="matrix(12.7,0,0,12.4,58,455.4)" />
<use xlink:href="#f4_h" transform="matrix(12.7,0,0,12.4,72.6,455.4)" />
<use xlink:href="#f4_f" transform="matrix(12.7,0,0,12.4,115.3,455.4)" />
</g>
</g>
<g fill="#000000" >
<use xlink:href="#f2_16" transform="matrix(12,0,0,12,55,493.7)" />
<use xlink:href="#f2_2b" transform="matrix(12,0,0,12,64.9,493.7)" />
<use xlink:href="#f2_2e" transform="matrix(12,0,0,12,74.5,493.7)" />
<use xlink:href="#f2_19" transform="matrix(12,0,0,12,85.4,493.7)" />
<use xlink:href="#f2_l" transform="matrix(7.9,0,0,7.9,91.3,495.2)" />
<use xlink:href="#f2_g" transform="matrix(12,0,0,12,97.6,493.7)" />
<use xlink:href="#f2_2c" transform="matrix(12,0,0,12,106.7,493.7)" />
<use xlink:href="#f2_2h" transform="matrix(12,0,0,12,115.9,493.7)" />
<use xlink:href="#f2_2g" transform="matrix(12,0,0,12,124.7,493.7)" />
<use xlink:href="#f2_p" transform="matrix(12,0,0,12,134.9,493.7)" />
<use xlink:href="#f2_f" transform="matrix(12,0,0,12,148.5,493.7)" />
<use xlink:href="#f2_o" transform="matrix(12,0,0,12,163.5,493.7)" />
<use xlink:href="#f2_2k" transform="matrix(12,0,0,12,172.6,493.7)" />
<use xlink:href="#f6_4y" transform="matrix(12,0,0,12,186.3,493.7)" />
<use xlink:href="#f2_m" transform="matrix(12,0,0,12,200.3,493.7)" />
<use xlink:href="#f2_2k" transform="matrix(12,0,0,12,209.4,493.7)" />
<use xlink:href="#f2_m" transform="matrix(7.9,0,0,7.9,218.2,495.2)" />
<use xlink:href="#f2_x" transform="matrix(12,0,0,12,229.2,493.7)" />
<use xlink:href="#f2_2g" transform="matrix(12,0,0,12,243.9,493.7)" />
</g>
<g clip-path="url(#c6_70)">
<g fill="#000000" >
<use xlink:href="#f4_4g" transform="matrix(13,0,0,12,57.4,518.3)" />
</g>
</g>
<g fill="#000000" >
<use xlink:href="#f2_c" transform="matrix(12,0,0,12,101.2,517.9)" />
<use xlink:href="#f2_o" transform="matrix(12,0,0,12,107.5,517.9)" />
<use xlink:href="#f6_4y" transform="matrix(12,0,0,12,121.4,517.9)" />
<use xlink:href="#f2_o" transform="matrix(12,0,0,12,135,517.9)" />
<use xlink:href="#f2_2k" transform="matrix(12,0,0,12,144.1,517.9)" />
<use xlink:href="#f2_d" transform="matrix(12,0,0,12,152.9,517.9)" />
<use xlink:href="#f2_20" transform="matrix(12,0,0,12,163.9,517.9)" />
<use xlink:href="#f2_2k" transform="matrix(12,0,0,12,173.1,517.9)" />
<use xlink:href="#f2_x" transform="matrix(12,0,0,12,186.6,517.9)" />
<use xlink:href="#f2_20" transform="matrix(12,0,0,12,201.6,517.9)" />
<use xlink:href="#f2_2g" transform="matrix(12,0,0,12,210.4,517.9)" />
</g>
<path d="M70.5,553.4H81.4m47.1,0h11" class="g10_70" />
<path d="M151.2,554.2l1.8,-1.1m0,0l4.5,7.4m0,0l4.9,-19.6m0,0h7.1" class="g11_70" />
<path fill-rule="evenodd" d="M150.2,553.2l2.6,-1.4l3.9,6l4.5,-18.1h7.5v.9h-6.8l-4.7,19.2h-.9l-4.6,-6.9l-1.2,.8l-.3,-.5Z" class="g4_70" />
<path d="M214.7,553.4h11m16.7,0h10.9" class="g10_70" />
<path d="M274.2,535.8l-11.6,16.6" class="g12_70" />
<g clip-path="url(#c7_70)">
<g fill="#000000" >
<use xlink:href="#f2_n" transform="matrix(7.3,0,0,7.1,262.9,544)" />
<use xlink:href="#f2_m" transform="matrix(7.3,0,0,7.1,269.2,552.4)" />
<use xlink:href="#f2_l" transform="matrix(7.3,0,0,7.1,90.8,562.8)" />
<use xlink:href="#f2_n" transform="matrix(12.7,0,0,12.4,71.7,546.1)" />
<use xlink:href="#f2_n" transform="matrix(12.7,0,0,12.4,129.7,546.1)" />
<use xlink:href="#f2_n" transform="matrix(12.7,0,0,12.4,215.9,546.1)" />
<use xlink:href="#f2_m" transform="matrix(12.7,0,0,12.4,243.5,546.1)" />
<use xlink:href="#f2_20" transform="matrix(12.7,0,0,12.4,168.9,558)" />
<use xlink:href="#f2_2g" transform="matrix(12.7,0,0,12.4,178.1,558)" />
<use xlink:href="#f2_o" transform="matrix(12.7,0,0,12.4,71.7,572.7)" />
<use xlink:href="#f2_o" transform="matrix(12.7,0,0,12.4,129.7,572.7)" />
<use xlink:href="#f2_o" transform="matrix(12.7,0,0,12.4,215.9,572.7)" />
<use xlink:href="#f2_n" transform="matrix(12.7,0,0,12.4,243.5,572.7)" />
<use xlink:href="#f3_19" transform="matrix(12.7,0,0,12.4,84.8,558)" />
<use xlink:href="#f3_2g" transform="matrix(12.7,0,0,12.4,161.8,558)" />
<use xlink:href="#f3_2g" transform="matrix(12.7,0,0,12.4,255.5,558)" />
<use xlink:href="#f4_h" transform="matrix(12.7,0,0,12.4,57.9,558)" />
<use xlink:href="#f4_x" transform="matrix(12.7,0,0,12.4,101.4,558)" />
<use xlink:href="#f4_h" transform="matrix(12.7,0,0,12.4,115.9,558)" />
<use xlink:href="#f4_x" transform="matrix(12.7,0,0,12.4,187.5,558)" />
<use xlink:href="#f4_h" transform="matrix(12.7,0,0,12.4,202.1,558)" />
<use xlink:href="#f4_3a" transform="matrix(12.7,0,0,12.4,228.7,558)" />
</g>
</g>
<path d="M84.9,603.9H95.7" class="g13_70" />
<g clip-path="url(#c8_70)">
<g fill="#000000" >
<use xlink:href="#f2_m" transform="matrix(7.4,0,0,7.1,185.7,600.3)" />
<use xlink:href="#f2_n" transform="matrix(7.4,0,0,7.1,199.1,600.3)" />
<use xlink:href="#f2_j" transform="matrix(7.4,0,0,7.1,205.1,600.3)" />
<use xlink:href="#f2_m" transform="matrix(7.4,0,0,7.1,207.9,600.3)" />
<use xlink:href="#f2_l" transform="matrix(12.7,0,0,12.4,85.7,596.7)" />
<use xlink:href="#f2_c" transform="matrix(12.7,0,0,12.4,98.2,608.6)" />
<use xlink:href="#f2_p" transform="matrix(12.7,0,0,12.4,104.2,608.6)" />
<use xlink:href="#f2_o" transform="matrix(12.7,0,0,12.4,130.4,608.6)" />
<use xlink:href="#f2_m" transform="matrix(12.7,0,0,12.4,166.4,608.6)" />
<use xlink:href="#f2_d" transform="matrix(12.7,0,0,12.4,192.8,608.6)" />
<use xlink:href="#f2_m" transform="matrix(12.7,0,0,12.4,86,623.3)" />
<use xlink:href="#f3_2k" transform="matrix(12.7,0,0,12.4,140.7,608.6)" />
<use xlink:href="#f3_2k" transform="matrix(12.7,0,0,12.4,176.7,608.6)" />
<use xlink:href="#f4_x" transform="matrix(12.7,0,0,12.4,58,608.6)" />
<use xlink:href="#f4_h" transform="matrix(12.7,0,0,12.4,72.4,608.6)" />
<use xlink:href="#f4_f" transform="matrix(12.7,0,0,12.4,116.4,608.6)" />
<use xlink:href="#f4_h" transform="matrix(12.7,0,0,12.4,152.6,608.6)" />
</g>
</g>
<path d="M109.4,659.7l1.8,-1.1m.1,0l4.3,7.2m0,0l4.9,-19.1m0,-.1h10.6" class="g14_70" />
<path fill-rule="evenodd" d="M108.4,658.7l2.6,-1.4l3.9,5.9l4.5,-17.7h10.9v.9H120.1l-4.7,18.7h-.9L110,658.5l-1.3,.7l-.3,-.5Z" class="g4_70" />
<path d="M148,659.1h10.9" class="g15_70" />
<path d="M136.6,665.5l1.8,-2.3m0,0l4.4,17.3m0,0l5,-45.6m0,-.1h83" class="g14_70" />
<path fill-rule="evenodd" d="M135.6,664.6l2.6,-3.3l3.9,14.5l4.5,-42.2H230v1H147.4l-4.8,45.2h-.9l-4.6,-16.2l-1,1.3l-.5,-.3Z" class="g4_70" />
<g clip-path="url(#c9_70)">
<g fill="#000000" >
<use xlink:href="#f2_m" transform="matrix(7.3,0,0,7.1,222.3,655.4)" />
<use xlink:href="#f2_m" transform="matrix(7.3,0,0,7.1,74,668.4)" />
<use xlink:href="#f2_r" transform="matrix(12.6,0,0,12.3,148.9,651.8)" />
<use xlink:href="#f2_s" transform="matrix(12.6,0,0,12.3,57.1,663.7)" />
<use xlink:href="#f2_s" transform="matrix(12.6,0,0,12.3,99,663.7)" />
<use xlink:href="#f2_m" transform="matrix(12.6,0,0,12.3,120.5,663.7)" />
<use xlink:href="#f2_c" transform="matrix(12.6,0,0,12.3,176.6,663.7)" />
<use xlink:href="#f2_l" transform="matrix(12.6,0,0,12.3,207.8,663.7)" />
<use xlink:href="#f2_d" transform="matrix(12.6,0,0,12.3,215.5,663.7)" />
<use xlink:href="#f2_m" transform="matrix(12.6,0,0,12.3,149.2,678.3)" />
<use xlink:href="#f3_19" transform="matrix(12.6,0,0,12.3,66.8,663.7)" />
<use xlink:href="#f3_2k" transform="matrix(12.6,0,0,12.3,184.1,663.7)" />
<use xlink:href="#f3_20" transform="matrix(12.6,0,0,12.3,229.7,663.7)" />
<use xlink:href="#f3_2k" transform="matrix(12.6,0,0,12.3,238.9,663.7)" />
<use xlink:href="#f4_x" transform="matrix(12.6,0,0,12.3,85.3,663.7)" />
<use xlink:href="#f4_h" transform="matrix(12.6,0,0,12.3,163.2,663.7)" />
<use xlink:href="#f4_h" transform="matrix(12.6,0,0,12.3,196.1,663.7)" />
</g>
</g>
<path d="M97.9,716h10.9" class="g16_70" />
<path d="M256.4,716.6l1.9,-1m0,0l4.4,7.2m0,.1l4.8,-19.3m0,0H278" class="g17_70" />
<path fill-rule="evenodd" d="M255.5,715.6l2.5,-1.4l4,6l4.5,-17.8h10.8v.9H267.1l-4.7,18.8h-.9l-4.4,-6.6l-1.3,.7l-.3,-.6Z" class="g4_70" />
<path d="M336.3,716h10.8" class="g16_70" />
<path d="M324.9,722.5l1.7,-2.3m.1,0l4.4,17.4m0,0L336,691.7m0,0h83.8" class="g17_70" />
<path fill-rule="evenodd" d="M323.9,721.5l2.5,-3.2l3.9,14.5l4.6,-42.3H419v.9H335.6l-4.8,45.5h-.9l-4.5,-16.3l-1,1.3l-.5,-.4Z" class="g4_70" />
<path d="M455.1,716.6l1.9,-1m0,0l4.4,7.2m0,.1l4.9,-19.3m0,0h10.4" class="g17_70" />
<path fill-rule="evenodd" d="M454.2,715.6l2.5,-1.4l3.9,6l4.5,-17.8H476v.9H465.8l-4.7,18.8h-.9l-4.5,-6.6l-1.3,.7l-.2,-.6Z" class="g4_70" />
<path d="M517.5,704.7l1.9,-1m0,0l4.4,7.2m0,.1l4.9,-19.3m0,0h10.5" class="g17_70" />
<path fill-rule="evenodd" d="M516.6,703.7l2.6,-1.4l3.9,6l4.5,-17.8h10.8v.9H528.2l-4.7,18.8h-.9l-4.4,-6.6l-1.3,.7l-.3,-.6Z" class="g4_70" />
<path d="M540.1,732.8l1.8,-1.1m.1,0l4.4,7.4m0,0l4.9,-19.5m0,0h10.5" class="g17_70" />
<path fill-rule="evenodd" d="M539.2,731.8l2.5,-1.4l4,6.1l4.5,-18.1H561v.9H550.8l-4.7,19.1h-.9l-4.5,-6.8l-1.2,.7l-.3,-.5Z" class="g4_70" />
<path d="M515.2,716H585" class="g16_70" />
<g clip-path="url(#c10_70)">
<g fill="#000000" >
<use xlink:href="#f2_m" transform="matrix(7.3,0,0,7.1,198.9,712.4)" />
<use xlink:href="#f2_n" transform="matrix(7.3,0,0,7.1,212.4,712.4)" />
<use xlink:href="#f2_j" transform="matrix(7.3,0,0,7.1,218.4,712.4)" />
<use xlink:href="#f2_m" transform="matrix(7.3,0,0,7.1,221.2,712.4)" />
<use xlink:href="#f2_m" transform="matrix(7.3,0,0,7.1,411.3,712.4)" />
<use xlink:href="#f2_l" transform="matrix(7.3,0,0,7.1,506.7,712.4)" />
<use xlink:href="#f2_l" transform="matrix(12.7,0,0,12.4,98.8,708.8)" />
<use xlink:href="#f2_p" transform="matrix(12.7,0,0,12.4,337.3,708.8)" />
<use xlink:href="#f2_m" transform="matrix(12.7,0,0,12.4,528.7,708.8)" />
<use xlink:href="#f2_c" transform="matrix(12.7,0,0,12.4,539.3,708.8)" />
<use xlink:href="#f2_l" transform="matrix(12.7,0,0,12.4,570.4,708.8)" />
<use xlink:href="#f2_d" transform="matrix(12.7,0,0,12.4,578.1,708.8)" />
<use xlink:href="#f2_c" transform="matrix(12.7,0,0,12.4,111.3,720.7)" />
<use xlink:href="#f2_p" transform="matrix(12.7,0,0,12.4,117.3,720.7)" />
<use xlink:href="#f2_o" transform="matrix(12.7,0,0,12.4,143.6,720.7)" />
<use xlink:href="#f2_m" transform="matrix(12.7,0,0,12.4,179.6,720.7)" />
<use xlink:href="#f2_d" transform="matrix(12.7,0,0,12.4,206,720.7)" />
<use xlink:href="#f2_o" transform="matrix(12.7,0,0,12.4,245.7,720.7)" />
<use xlink:href="#f2_m" transform="matrix(12.7,0,0,12.4,267.5,720.7)" />
<use xlink:href="#f2_c" transform="matrix(12.7,0,0,12.4,278.1,720.7)" />
<use xlink:href="#f2_l" transform="matrix(12.7,0,0,12.4,309.2,720.7)" />
<use xlink:href="#f2_d" transform="matrix(12.7,0,0,12.4,316.9,720.7)" />
<use xlink:href="#f2_m" transform="matrix(12.7,0,0,12.4,365.3,720.7)" />
<use xlink:href="#f2_l" transform="matrix(12.7,0,0,12.4,435.2,720.7)" />
<use xlink:href="#f2_o" transform="matrix(12.7,0,0,12.4,444.3,720.7)" />
<use xlink:href="#f2_m" transform="matrix(12.7,0,0,12.4,466.1,720.7)" />
<use xlink:href="#f2_2f" transform="matrix(12.7,0,0,12.4,478,720.7)" />
<use xlink:href="#f2_25" transform="matrix(12.7,0,0,12.4,485.2,720.7)" />
<use xlink:href="#f2_2a" transform="matrix(12.7,0,0,12.4,490.3,720.7)" />
<use xlink:href="#f2_m" transform="matrix(12.7,0,0,12.4,99.1,735.4)" />
<use xlink:href="#f2_m" transform="matrix(12.7,0,0,12.4,337.4,735.4)" />
<use xlink:href="#f2_r" transform="matrix(12.7,0,0,12.4,551,736.6)" />
<use xlink:href="#f3_2k" transform="matrix(12.7,0,0,12.4,546.7,708.8)" />
<use xlink:href="#f3_19" transform="matrix(12.7,0,0,12.4,58.5,720.7)" />
<use xlink:href="#f3_2k" transform="matrix(12.7,0,0,12.4,153.9,720.7)" />
<use xlink:href="#f3_2k" transform="matrix(12.7,0,0,12.4,189.9,720.7)" />
<use xlink:href="#f3_2k" transform="matrix(12.7,0,0,12.4,285.6,720.7)" />
<use xlink:href="#f3_2k" transform="matrix(12.7,0,0,12.4,375.7,720.7)" />
<use xlink:href="#f3_2k" transform="matrix(12.7,0,0,12.4,402.3,720.7)" />
<use xlink:href="#f3_13" transform="matrix(12.7,0,0,12.4,602.7,720.7)" />
<use xlink:href="#f4_h" transform="matrix(7.3,0,0,7.1,500.9,712.4)" />
<use xlink:href="#f4_h" transform="matrix(12.7,0,0,12.4,558.7,708.8)" />
<use xlink:href="#f4_x" transform="matrix(12.7,0,0,12.4,71,720.7)" />
<use xlink:href="#f4_h" transform="matrix(12.7,0,0,12.4,85.5,720.7)" />
<use xlink:href="#f4_f" transform="matrix(12.7,0,0,12.4,129.6,720.7)" />
<use xlink:href="#f4_h" transform="matrix(12.7,0,0,12.4,165.9,720.7)" />
<use xlink:href="#f4_f" transform="matrix(12.7,0,0,12.4,231.7,720.7)" />
<use xlink:href="#f4_h" transform="matrix(12.7,0,0,12.4,297.5,720.7)" />
<use xlink:href="#f4_f" transform="matrix(12.7,0,0,12.4,351.4,720.7)" />
<use xlink:href="#f4_h" transform="matrix(12.7,0,0,12.4,387.6,720.7)" />
<use xlink:href="#f4_f" transform="matrix(12.7,0,0,12.4,423.2,720.7)" />
<use xlink:href="#f4_f" transform="matrix(12.7,0,0,12.4,589.2,720.7)" />
</g>
</g>
<g fill="#000000" >
<use xlink:href="#f5_l" transform="matrix(12,0,0,12,55,786.7)" />
<use xlink:href="#f5_p" transform="matrix(12,0,0,12,64.2,786.7)" />
<use xlink:href="#f5_i" transform="matrix(12,0,0,12,73.4,786.7)" />
<use xlink:href="#f2_1j" transform="matrix(12,0,0,12,82.9,786.7)" />
<use xlink:href="#f2_2b" transform="matrix(12,0,0,12,92.8,786.7)" />
<use xlink:href="#f2_28" transform="matrix(12,0,0,12,102.3,786.7)" />
<use xlink:href="#f2_2i" transform="matrix(12,0,0,12,107.1,786.7)" />
<use xlink:href="#f2_21" transform="matrix(12,0,0,12,115.9,786.7)" />
<use xlink:href="#f2_2g" transform="matrix(12,0,0,12,128.7,786.7)" />
<use xlink:href="#f2_24" transform="matrix(12,0,0,12,134.2,786.7)" />
<use xlink:href="#f2_21" transform="matrix(12,0,0,12,143,786.7)" />
<use xlink:href="#f2_20" transform="matrix(12,0,0,12,155.8,786.7)" />
<use xlink:href="#f2_25" transform="matrix(12,0,0,12,165.3,786.7)" />
<use xlink:href="#f2_22" transform="matrix(12,0,0,12,170.1,786.7)" />
<use xlink:href="#f2_22" transform="matrix(12,0,0,12,175.9,786.7)" />
<use xlink:href="#f2_21" transform="matrix(12,0,0,12,181.8,786.7)" />
<use xlink:href="#f2_2e" transform="matrix(12,0,0,12,189.9,786.7)" />
<use xlink:href="#f2_21" transform="matrix(12,0,0,12,196.1,786.7)" />
<use xlink:href="#f2_2a" transform="matrix(12,0,0,12,204.5,786.7)" />
<use xlink:href="#f2_2g" transform="matrix(12,0,0,12,213.3,786.7)" />
<use xlink:href="#f2_25" transform="matrix(12,0,0,12,219.2,786.7)" />
<use xlink:href="#f2_1x" transform="matrix(12,0,0,12,223.6,786.7)" />
<use xlink:href="#f2_28" transform="matrix(12,0,0,12,232,786.7)" />
<use xlink:href="#f2_21" transform="matrix(12,0,0,12,241.5,786.7)" />
<use xlink:href="#f2_2d" transform="matrix(12,0,0,12,249.6,786.7)" />
<use xlink:href="#f2_2h" transform="matrix(12,0,0,12,258.7,786.7)" />
<use xlink:href="#f2_1x" transform="matrix(12,0,0,12,267.9,786.7)" />
<use xlink:href="#f2_2g" transform="matrix(12,0,0,12,276,786.7)" />
<use xlink:href="#f2_25" transform="matrix(12,0,0,12,281.8,786.7)" />
<use xlink:href="#f2_2b" transform="matrix(12,0,0,12,286.2,786.7)" />
<use xlink:href="#f2_2a" transform="matrix(12,0,0,12,295.7,786.7)" />
<use xlink:href="#f2_u" transform="matrix(12,0,0,12,304.8,786.7)" />
</g>
<path d="M69.6,818.4H89.4" class="g18_70" />
<g clip-path="url(#c11_70)">
<g fill="#000000" >
<use xlink:href="#f2_1z" transform="matrix(12.7,0,0,12.4,181.5,823.1)" />
<use xlink:href="#f2_2b" transform="matrix(12.7,0,0,12.4,189.5,823.1)" />
<use xlink:href="#f2_2g" transform="matrix(12.7,0,0,12.4,198.6,823.1)" />
<use xlink:href="#f2_k" transform="matrix(12.7,0,0,12.4,234.3,823.1)" />
<use xlink:href="#f2_v" transform="matrix(12.7,0,0,12.4,242.9,823.1)" />
<use xlink:href="#f2_k" transform="matrix(12.7,0,0,12.4,280,823.1)" />
<use xlink:href="#f2_i" transform="matrix(12.7,0,0,12.4,289.1,823.1)" />
<use xlink:href="#f3_20" transform="matrix(12.7,0,0,12.4,70.8,811.5)" />
<use xlink:href="#f3_2l" transform="matrix(12.7,0,0,12.4,79.9,811.5)" />
<use xlink:href="#f3_2k" transform="matrix(12.7,0,0,12.4,58.8,823.1)" />
<use xlink:href="#f3_2l" transform="matrix(12.7,0,0,12.4,109.4,823.1)" />
<use xlink:href="#f3_2k" transform="matrix(12.7,0,0,12.4,136.2,823.1)" />
<use xlink:href="#f3_2k" transform="matrix(12.7,0,0,12.4,163,823.1)" />
<use xlink:href="#f3_2l" transform="matrix(12.7,0,0,12.4,171,823.1)" />
<use xlink:href="#f3_2k" transform="matrix(12.7,0,0,12.4,207.4,823.1)" />
<use xlink:href="#f3_2k" transform="matrix(12.7,0,0,12.4,252.7,823.1)" />
<use xlink:href="#f3_20" transform="matrix(12.7,0,0,12.4,70.9,837.5)" />
<use xlink:href="#f3_2k" transform="matrix(12.7,0,0,12.4,80.1,837.5)" />
<use xlink:href="#f4_f" transform="matrix(12.7,0,0,12.4,93.7,823.1)" />
<use xlink:href="#f4_h" transform="matrix(12.7,0,0,12.4,121.7,823.1)" />
<use xlink:href="#f4_f" transform="matrix(12.7,0,0,12.4,148.2,823.1)" />
<use xlink:href="#f4_x" transform="matrix(12.7,0,0,12.4,220.1,823.1)" />
<use xlink:href="#f4_3f" transform="matrix(12.7,0,0,12.4,265.4,823.1)" />
</g>
</g>
<g fill="#000000" >
<use xlink:href="#f5_1j" transform="matrix(12,0,0,12,55,861.9)" />
<use xlink:href="#f5_2b" transform="matrix(12,0,0,12,65.3,861.9)" />
<use xlink:href="#f5_28" transform="matrix(12,0,0,12,74.5,861.9)" />
<use xlink:href="#f5_2h" transform="matrix(12,0,0,12,79.2,861.9)" />
<use xlink:href="#f5_2g" transform="matrix(12,0,0,12,89.5,861.9)" />
<use xlink:href="#f5_25" transform="matrix(12,0,0,12,95.7,861.9)" />
<use xlink:href="#f5_2b" transform="matrix(12,0,0,12,100.8,861.9)" />
<use xlink:href="#f5_2a" transform="matrix(12,0,0,12,109.9,861.9)" />
<use xlink:href="#f5_u" transform="matrix(12,0,0,12,120.2,861.9)" />
</g>
<path d="M69.6,893.6H89.4" class="g19_70" />
<g clip-path="url(#c12_70)">
<g fill="#000000" >
<use xlink:href="#f2_1z" transform="matrix(12.7,0,0,12.4,181.9,898.3)" />
<use xlink:href="#f2_2b" transform="matrix(12.7,0,0,12.4,190,898.3)" />
<use xlink:href="#f2_2f" transform="matrix(12.7,0,0,12.4,199.2,898.3)" />
<use xlink:href="#f2_k" transform="matrix(12.7,0,0,12.4,236.4,898.3)" />
<use xlink:href="#f3_20" transform="matrix(12.7,0,0,12.4,70.8,886.3)" />
<use xlink:href="#f3_2l" transform="matrix(12.7,0,0,12.4,80,886.3)" />
<use xlink:href="#f3_2k" transform="matrix(12.7,0,0,12.4,58.8,898.3)" />
<use xlink:href="#f3_2l" transform="matrix(12.7,0,0,12.4,109.5,898.3)" />
<use xlink:href="#f3_2k" transform="matrix(12.7,0,0,12.4,136.5,898.3)" />
<use xlink:href="#f3_2k" transform="matrix(12.7,0,0,12.4,163.4,898.3)" />
<use xlink:href="#f3_2l" transform="matrix(12.7,0,0,12.4,171.5,898.3)" />
<use xlink:href="#f3_2k" transform="matrix(12.7,0,0,12.4,209.4,898.3)" />
<use xlink:href="#f3_20" transform="matrix(12.7,0,0,12.4,70.9,913)" />
<use xlink:href="#f3_2k" transform="matrix(12.7,0,0,12.4,80.1,913)" />
<use xlink:href="#f4_f" transform="matrix(12.7,0,0,12.4,93.7,898.3)" />
<use xlink:href="#f4_h" transform="matrix(12.7,0,0,12.4,121.8,898.3)" />
<use xlink:href="#f4_f" transform="matrix(12.7,0,0,12.4,148.5,898.3)" />
<use xlink:href="#f4_x" transform="matrix(12.7,0,0,12.4,222.2,898.3)" />
</g>
</g>
<path d="M80.1,945.3H99.9m27.5,0h11.2" class="g20_70" />
<g clip-path="url(#c13_70)">
<g fill="#000000" >
<use xlink:href="#f2_l" transform="matrix(12.7,0,0,12.3,128.4,938.1)" />
<use xlink:href="#f2_1z" transform="matrix(12.7,0,0,12.3,156.6,949.9)" />
<use xlink:href="#f2_2b" transform="matrix(12.7,0,0,12.3,164.6,949.9)" />
<use xlink:href="#f2_2g" transform="matrix(12.7,0,0,12.3,173.7,949.9)" />
<use xlink:href="#f2_l" transform="matrix(12.7,0,0,12.3,229.2,949.9)" />
<use xlink:href="#f3_20" transform="matrix(12.7,0,0,12.3,81.3,938.1)" />
<use xlink:href="#f3_2l" transform="matrix(12.7,0,0,12.3,90.4,938.1)" />
<use xlink:href="#f3_2k" transform="matrix(12.7,0,0,12.3,182.5,949.9)" />
<use xlink:href="#f3_2l" transform="matrix(12.7,0,0,12.3,203.6,949.9)" />
<use xlink:href="#f3_20" transform="matrix(12.7,0,0,12.3,81.4,964.6)" />
<use xlink:href="#f3_2k" transform="matrix(12.7,0,0,12.3,90.6,964.6)" />
<use xlink:href="#f3_2k" transform="matrix(12.7,0,0,12.3,129.4,964.6)" />
<use xlink:href="#f4_4o" transform="matrix(12.7,0,0,12.3,117.6,939.5)" />
<use xlink:href="#f4_54" transform="matrix(12.7,0,0,12.3,192.9,939.5)" />
<use xlink:href="#f4_4g" transform="matrix(12.7,0,0,12.3,57.4,949.9)" />
<use xlink:href="#f4_f" transform="matrix(12.7,0,0,12.3,104.1,949.9)" />
<use xlink:href="#f4_f" transform="matrix(12.7,0,0,12.3,142.8,949.9)" />
<use xlink:href="#f4_x" transform="matrix(12.7,0,0,12.3,216.7,949.9)" />
<use xlink:href="#f4_4p" transform="matrix(12.7,0,0,12.3,117.6,955.1)" />
<use xlink:href="#f4_55" transform="matrix(12.7,0,0,12.3,192.9,955.1)" />
<use xlink:href="#f4_4q" transform="matrix(12.7,0,0,12.3,117.6,966.7)" />
<use xlink:href="#f4_56" transform="matrix(12.7,0,0,12.3,192.9,966.7)" />
</g>
</g>
<g fill="#000000" >
<use xlink:href="#f2_19" transform="matrix(12,0,0,12,55,1009.3)" />
<use xlink:href="#f2_i" transform="matrix(12,0,0,12,61.3,1009.3)" />
<use xlink:href="#f2_16" transform="matrix(12,0,0,12,66,1009.3)" />
<use xlink:href="#f2_x" transform="matrix(12,0,0,12,80.6,1009.3)" />
</g>
<path d="M119.3,991.1h6.4" class="g21_70" />
<g clip-path="url(#c14_70)">
<g fill="#000000" >
<use xlink:href="#f2_l" transform="matrix(7.3,0,0,7.1,119.8,987.1)" />
<use xlink:href="#f2_1z" transform="matrix(7.3,0,0,7.1,133.9,993.8)" />
<use xlink:href="#f2_2b" transform="matrix(7.3,0,0,7.1,138.6,993.8)" />
<use xlink:href="#f2_2g" transform="matrix(7.3,0,0,7.1,143.9,993.8)" />
<use xlink:href="#f2_28" transform="matrix(7.3,0,0,7.1,199.7,1001.5)" />
<use xlink:href="#f2_2b" transform="matrix(7.3,0,0,7.1,202.5,1001.5)" />
<use xlink:href="#f2_23" transform="matrix(7.3,0,0,7.1,207.8,1001.5)" />
<use xlink:href="#f2_c" transform="matrix(7.3,0,0,7.1,213.1,1001.5)" />
<use xlink:href="#f2_2f" transform="matrix(7.3,0,0,7.1,224.2,1001.5)" />
<use xlink:href="#f2_25" transform="matrix(7.3,0,0,7.1,228.3,1001.5)" />
<use xlink:href="#f2_2a" transform="matrix(7.3,0,0,7.1,231.3,1001.5)" />
<use xlink:href="#f2_d" transform="matrix(7.3,0,0,7.1,244.8,1001.5)" />
<use xlink:href="#f3_2k" transform="matrix(7.3,0,0,7.1,149.4,993.8)" />
<use xlink:href="#f3_20" transform="matrix(7.3,0,0,7.1,160.4,993.8)" />
<use xlink:href="#f3_2k" transform="matrix(7.3,0,0,7.1,165.7,993.8)" />
<use xlink:href="#f3_2k" transform="matrix(7.3,0,0,7.1,217.9,1001.5)" />
<use xlink:href="#f3_2k" transform="matrix(7.3,0,0,7.1,239.2,1001.5)" />
<use xlink:href="#f3_2k" transform="matrix(7.3,0,0,7.1,120.4,1002.1)" />
<use xlink:href="#f3_21" transform="matrix(12.7,0,0,12.2,98,1009.7)" />
<use xlink:href="#f3_21" transform="matrix(12.7,0,0,12.2,191.1,1009.7)" />
<use xlink:href="#f4_4o" transform="matrix(7.3,0,0,7.1,113.6,987.9)" />
<use xlink:href="#f4_54" transform="matrix(7.3,0,0,7.1,155.4,987.9)" />
<use xlink:href="#f4_f" transform="matrix(7.3,0,0,7.1,127.1,993.8)" />
<use xlink:href="#f4_4p" transform="matrix(7.3,0,0,7.1,113.6,996.6)" />
<use xlink:href="#f4_55" transform="matrix(7.3,0,0,7.1,155.4,996.6)" />
<use xlink:href="#f4_4q" transform="matrix(7.3,0,0,7.1,113.6,1003.3)" />
<use xlink:href="#f4_56" transform="matrix(7.3,0,0,7.1,155.4,1003.3)" />
<use xlink:href="#f4_50" transform="matrix(12.7,0,0,12.2,106.9,998.6)" />
<use xlink:href="#f4_x" transform="matrix(12.7,0,0,12.2,176.8,1009.7)" />
</g>
</g>
<g fill="#000000" >
<use xlink:href="#f2_x" transform="matrix(12,0,0,12,55,1034.7)" />
<use xlink:href="#f2_2k" transform="matrix(12,0,0,12,70.1,1034.7)" />
<use xlink:href="#f2_2f" transform="matrix(12,0,0,12,83.6,1034.7)" />
<use xlink:href="#f2_25" transform="matrix(12,0,0,12,90.9,1034.7)" />
<use xlink:href="#f2_2a" transform="matrix(12,0,0,12,95.7,1034.7)" />
<use xlink:href="#f2_2k" transform="matrix(12,0,0,12,109.7,1034.7)" />
</g>
<g clip-path="url(#c15_70)">
<g fill="#000000" >
<use xlink:href="#f4_1s" transform="matrix(12.3,0,0,12.1,55.1,1058.8)" />
</g>
</g>
<g fill="#000000" >
<use xlink:href="#f2_2l" transform="matrix(12,0,0,12,76.7,1058.9)" />
</g>
<g clip-path="url(#c16_70)">
<g fill="#000000" >
<use xlink:href="#f4_3a" transform="matrix(12.1,0,0,12.1,92.1,1058.8)" />
</g>
</g>
<g fill="#000000" >
<use xlink:href="#f2_2k" transform="matrix(12,0,0,12,108.9,1058.9)" />
<use xlink:href="#f2_2f" transform="matrix(12,0,0,12,122.5,1058.9)" />
<use xlink:href="#f2_25" transform="matrix(12,0,0,12,129.8,1058.9)" />
<use xlink:href="#f2_2a" transform="matrix(12,0,0,12,134.6,1058.9)" />
<use xlink:href="#f2_2k" transform="matrix(12,0,0,12,148.5,1058.9)" />
<use xlink:href="#f2_x" transform="matrix(12,0,0,12,162,1058.9)" />
<use xlink:href="#f2_2k" transform="matrix(12,0,0,12,177,1058.9)" />
<use xlink:href="#f2_2f" transform="matrix(12,0,0,12,190.6,1058.9)" />
<use xlink:href="#f2_25" transform="matrix(12,0,0,12,197.9,1058.9)" />
<use xlink:href="#f2_2a" transform="matrix(12,0,0,12,202.7,1058.9)" />
<use xlink:href="#f2_2k" transform="matrix(12,0,0,12,216.6,1058.9)" />
<use xlink:href="#f2_20" transform="matrix(12,0,0,12,230.1,1058.9)" />
<use xlink:href="#f2_2k" transform="matrix(12,0,0,12,239.7,1058.9)" />
</g>
<g clip-path="url(#c17_70)">
<g fill="#000000" >
<use xlink:href="#f4_4g" transform="matrix(12.4,0,0,12.3,57.4,1083.3)" />
</g>
</g>
<g fill="#000000" >
<use xlink:href="#f2_2k" transform="matrix(12,0,0,12,82.9,1083.1)" />
<use xlink:href="#f2_2l" transform="matrix(12,0,0,12,92.1,1083.1)" />
<use xlink:href="#f2_2f" transform="matrix(12,0,0,12,105.3,1083.1)" />
<use xlink:href="#f2_25" transform="matrix(12,0,0,12,112.6,1083.1)" />
<use xlink:href="#f2_2a" transform="matrix(12,0,0,12,117.3,1083.1)" />
<use xlink:href="#f2_2k" transform="matrix(12,0,0,12,131.6,1083.1)" />
<use xlink:href="#f2_x" transform="matrix(12,0,0,12,145.2,1083.1)" />
<use xlink:href="#f6_4y" transform="matrix(12,0,0,12,160.3,1083.1)" />
<use xlink:href="#f2_2k" transform="matrix(12,0,0,12,169.5,1083.1)" />
<use xlink:href="#f2_1z" transform="matrix(12,0,0,12,183,1083.1)" />
<use xlink:href="#f2_2b" transform="matrix(12,0,0,12,191.1,1083.1)" />
<use xlink:href="#f2_2f" transform="matrix(12,0,0,12,200.6,1083.1)" />
<use xlink:href="#f2_2k" transform="matrix(12,0,0,12,212.3,1083.1)" />
<use xlink:href="#f2_f" transform="matrix(12,0,0,12,225.9,1083.1)" />
<use xlink:href="#f2_2f" transform="matrix(12,0,0,12,240.9,1083.1)" />
<use xlink:href="#f2_25" transform="matrix(12,0,0,12,248.2,1083.1)" />
<use xlink:href="#f2_2a" transform="matrix(12,0,0,12,253,1083.1)" />
<use xlink:href="#f2_2k" transform="matrix(12,0,0,12,266.9,1083.1)" />
<use xlink:href="#f2_f" transform="matrix(12,0,0,12,280.4,1083.1)" />
<use xlink:href="#f2_13" transform="matrix(12,0,0,12,295.4,1083.1)" />
<use xlink:href="#f5_l" transform="matrix(12,0,0,12,55,1132.2)" />
<use xlink:href="#f5_q" transform="matrix(12,0,0,12,64.2,1132.2)" />
<use xlink:href="#f5_i" transform="matrix(12,0,0,12,73.4,1132.2)" />
<use xlink:href="#f2_1j" transform="matrix(12,0,0,12,82.9,1132.2)" />
<use xlink:href="#f2_2b" transform="matrix(12,0,0,12,92.8,1132.2)" />
<use xlink:href="#f2_28" transform="matrix(12,0,0,12,102.3,1132.2)" />
<use xlink:href="#f2_2i" transform="matrix(12,0,0,12,107.1,1132.2)" />
<use xlink:href="#f2_21" transform="matrix(12,0,0,12,115.9,1132.2)" />
<use xlink:href="#f2_2g" transform="matrix(12,0,0,12,128.7,1132.2)" />
<use xlink:href="#f2_24" transform="matrix(12,0,0,12,134.2,1132.2)" />
<use xlink:href="#f2_21" transform="matrix(12,0,0,12,143,1132.2)" />
<use xlink:href="#f2_20" transform="matrix(12,0,0,12,155.8,1132.2)" />
<use xlink:href="#f2_25" transform="matrix(12,0,0,12,165.3,1132.2)" />
<use xlink:href="#f2_22" transform="matrix(12,0,0,12,170.1,1132.2)" />
<use xlink:href="#f2_22" transform="matrix(12,0,0,12,175.9,1132.2)" />
<use xlink:href="#f2_21" transform="matrix(12,0,0,12,181.8,1132.2)" />
<use xlink:href="#f2_2e" transform="matrix(12,0,0,12,189.9,1132.2)" />
<use xlink:href="#f2_21" transform="matrix(12,0,0,12,196.1,1132.2)" />
<use xlink:href="#f2_2a" transform="matrix(12,0,0,12,204.5,1132.2)" />
<use xlink:href="#f2_2g" transform="matrix(12,0,0,12,213.3,1132.2)" />
<use xlink:href="#f2_25" transform="matrix(12,0,0,12,219.2,1132.2)" />
<use xlink:href="#f2_1x" transform="matrix(12,0,0,12,223.6,1132.2)" />
<use xlink:href="#f2_28" transform="matrix(12,0,0,12,232,1132.2)" />
<use xlink:href="#f2_21" transform="matrix(12,0,0,12,241.5,1132.2)" />
<use xlink:href="#f2_2d" transform="matrix(12,0,0,12,249.6,1132.2)" />
<use xlink:href="#f2_2h" transform="matrix(12,0,0,12,258.7,1132.2)" />
<use xlink:href="#f2_1x" transform="matrix(12,0,0,12,267.9,1132.2)" />
<use xlink:href="#f2_2g" transform="matrix(12,0,0,12,276,1132.2)" />
<use xlink:href="#f2_25" transform="matrix(12,0,0,12,281.8,1132.2)" />
<use xlink:href="#f2_2b" transform="matrix(12,0,0,12,286.2,1132.2)" />
<use xlink:href="#f2_2a" transform="matrix(12,0,0,12,295.7,1132.2)" />
<use xlink:href="#f2_u" transform="matrix(12,0,0,12,309.3,1132.2)" />
</g>
<g clip-path="url(#c18_70)">
<g fill="#000000" >
<use xlink:href="#f2_m" transform="matrix(7.6,0,0,7.1,74.2,1151)" />
<use xlink:href="#f2_m" transform="matrix(7.6,0,0,7.1,153.8,1151)" />
<use xlink:href="#f2_m" transform="matrix(7.6,0,0,7.1,212.6,1151)" />
<use xlink:href="#f2_c" transform="matrix(13,0,0,12.1,57.7,1159.2)" />
<use xlink:href="#f2_n" transform="matrix(13,0,0,12.1,98.4,1159.2)" />
<use xlink:href="#f2_d" transform="matrix(13,0,0,12.1,161,1159.2)" />
<use xlink:href="#f2_k" transform="matrix(13,0,0,12.1,260.6,1159.2)" />
<use xlink:href="#f2_g" transform="matrix(13,0,0,12.1,269.6,1159.2)" />
<use xlink:href="#f3_2k" transform="matrix(13,0,0,12.1,65.1,1159.2)" />
<use xlink:href="#f3_2k" transform="matrix(13,0,0,12.1,108.2,1159.2)" />
<use xlink:href="#f3_2l" transform="matrix(13,0,0,12.1,116.2,1159.2)" />
<use xlink:href="#f3_2l" transform="matrix(13,0,0,12.1,144.4,1159.2)" />
<use xlink:href="#f3_20" transform="matrix(13,0,0,12.1,167.6,1159.2)" />
<use xlink:href="#f3_2k" transform="matrix(13,0,0,12.1,176.8,1159.2)" />
<use xlink:href="#f3_2k" transform="matrix(13,0,0,12.1,203.5,1159.2)" />
<use xlink:href="#f3_20" transform="matrix(13,0,0,12.1,224,1159.2)" />
<use xlink:href="#f3_2l" transform="matrix(13,0,0,12.1,233.2,1159.2)" />
<use xlink:href="#f4_f" transform="matrix(13,0,0,12.1,84.9,1159.2)" />
<use xlink:href="#f4_f" transform="matrix(13,0,0,12.1,128.6,1159.2)" />
<use xlink:href="#f4_h" transform="matrix(13,0,0,12.1,188.9,1159.2)" />
<use xlink:href="#f4_x" transform="matrix(13,0,0,12.1,246.3,1159.2)" />
</g>
</g>
<g fill="#000000" >
<use xlink:href="#f2_23" transform="matrix(12,0,0,12,281.7,1159)" />
<use xlink:href="#f2_25" transform="matrix(12,0,0,12,290.9,1159)" />
<use xlink:href="#f2_2i" transform="matrix(12,0,0,12,295.6,1159)" />
<use xlink:href="#f2_21" transform="matrix(12,0,0,12,304.8,1159)" />
<use xlink:href="#f2_2a" transform="matrix(12,0,0,12,313.2,1159)" />
<use xlink:href="#f2_2g" transform="matrix(12,0,0,12,326.8,1159)" />
<use xlink:href="#f2_24" transform="matrix(12,0,0,12,332.3,1159)" />
<use xlink:href="#f2_1x" transform="matrix(12,0,0,12,341.1,1159)" />
<use xlink:href="#f2_2g" transform="matrix(12,0,0,12,349.1,1159)" />
<use xlink:href="#f2_2l" transform="matrix(12,0,0,12,359.3,1159)" />
<use xlink:href="#f2_x" transform="matrix(12,0,0,12,372.5,1159)" />
<use xlink:href="#f2_k" transform="matrix(12,0,0,12,387.5,1159)" />
<use xlink:href="#f2_g" transform="matrix(12,0,0,12,396.7,1159)" />
<use xlink:href="#f2_2j" transform="matrix(12,0,0,12,406.2,1159)" />
<use xlink:href="#f2_24" transform="matrix(12,0,0,12,419.4,1159)" />
<use xlink:href="#f2_21" transform="matrix(12,0,0,12,428.2,1159)" />
<use xlink:href="#f2_2a" transform="matrix(12,0,0,12,436.3,1159)" />
<use xlink:href="#f2_2k" transform="matrix(12,0,0,12,449.8,1159)" />
<use xlink:href="#f2_x" transform="matrix(12,0,0,12,463.4,1159)" />
<use xlink:href="#f2_l" transform="matrix(12,0,0,12,478.4,1159)" />
<use xlink:href="#f2_i" transform="matrix(12,0,0,12,487.6,1159)" />
<use xlink:href="#f5_1j" transform="matrix(12,0,0,12,55,1186.9)" />
<use xlink:href="#f5_2b" transform="matrix(12,0,0,12,65.3,1186.9)" />
<use xlink:href="#f5_28" transform="matrix(12,0,0,12,74.5,1186.9)" />
<use xlink:href="#f5_2h" transform="matrix(12,0,0,12,79.2,1186.9)" />
<use xlink:href="#f5_2g" transform="matrix(12,0,0,12,89.5,1186.9)" />
<use xlink:href="#f5_25" transform="matrix(12,0,0,12,95.7,1186.9)" />
<use xlink:href="#f5_2b" transform="matrix(12,0,0,12,100.8,1186.9)" />
<use xlink:href="#f5_2a" transform="matrix(12,0,0,12,109.9,1186.9)" />
<use xlink:href="#f5_u" transform="matrix(12,0,0,12,120.2,1186.9)" />
</g>
<path fill-rule="evenodd" d="M37.4,38.1h.7v-.7h-.7v.7Z" class="g4_70" />
<path fill-rule="evenodd" d="M37.4,38.1h.7v-.7h-.7v.7Z" class="g4_70" />
<path fill-rule="evenodd" d="M38.1,38.1H871.5v-.7H38.1v.7Z" class="g4_70" />
<path fill-rule="evenodd" d="M871.5,38.1h.8v-.7h-.8v.7Z" class="g4_70" />
<path fill-rule="evenodd" d="M871.5,38.1h.8v-.7h-.8v.7Z" class="g4_70" />
<path fill-rule="evenodd" d="M37.4,1248.5h.7V38.1h-.7V1248.5Z" class="g4_70" />
<path fill-rule="evenodd" d="M872.3,1248.5h.7V38.1h-.7V1248.5Z" class="g4_70" />
<path fill-rule="evenodd" d="M871.5,1248.5h.8V38.1h-.8V1248.5Z" class="g4_70" />
<path fill-rule="evenodd" d="M37.4,1249.2h.7v-.7h-.7v.7Z" class="g4_70" />
<path fill-rule="evenodd" d="M37.4,1249.2h.7v-.7h-.7v.7Z" class="g4_70" />
<path fill-rule="evenodd" d="M38.1,1249.9H871.5v-.7H38.1v.7Z" class="g4_70" />
<path fill-rule="evenodd" d="M38.1,1249.2H871.5v-.7H38.1v.7Z" class="g4_70" />
<path fill-rule="evenodd" d="M872.3,1249.9h.7v-1.4h-.7v1.4Z" class="g4_70" />
<path fill-rule="evenodd" d="M871.5,1249.9H873v-.7h-1.5v.7Z" class="g4_70" />
<path fill-rule="evenodd" d="M871.5,1249.2h.8v-.7h-.8v.7Z" class="g4_70" />
<path fill-rule="evenodd" d="M871.5,1249.2h.8v-.7h-.8v.7Z" class="g4_70" />
<defs>
<path d="M489,-15c0,0,-99,0,-179,30c0,0,-80,30,-136,91c0,0,-56,61,-85,152c0,0,-30,91,-30,212c0,0,0,123,32,218c0,0,33,96,92,161c0,0,59,65,142,98c0,0,82,34,181,34c0,0,40,0,78,-7c0,0,37,-7,69,-18c0,0,31,-11,57,-25c0,0,25,-14,35,-24c0,0,10,-10,14,-17c0,0,4,-7,6,-17c0,0,2,-11,3,-25c0,0,2,-14,2,-35c0,0,0,-22,-2,-38c0,0,-1,-15,-5,-25c0,0,-4,-10,-9,-14c0,0,-5,-5,-12,-5c0,0,-11,0,-28,13c0,0,-18,13,-45,29c0,0,-27,16,-65,29c0,0,-37,13,-89,13c0,0,-58,0,-103,-23c0,0,-45,-23,-77,-67c0,0,-31,-44,-48,-106c0,0,-16,-61,-16,-139c0,0,0,-85,17,-147c0,0,18,-62,50,-103c0,0,33,-40,79,-60c0,0,45,-19,103,-19c0,0,52,0,90,12c0,0,38,12,65,27c0,0,27,15,45,27c0,0,17,12,27,12c0,0,8,0,12,-3c0,0,4,-3,7,-12c0,0,3,-9,5,-25c0,0,1,-16,1,-43c0,0,0,-18,-1,-31c0,0,-1,-14,-3,-23c0,0,-2,-9,-6,-16c0,0,-4,-7,-12,-15c0,0,-8,-9,-32,-22c0,0,-23,-14,-57,-26C661,13,627,1,583,-6c0,0,-43,-9,-94,-9Z" 
id="f0_j"
transform="scale(0.001,-0.001)" />

<path d="M440,150c0,0,41,0,68,8c0,0,28,9,49,26c0,0,20,16,32,41c0,0,11,25,11,58c0,0,0,33,-11,60c0,0,-11,26,-33,44c0,0,-21,18,-55,28c0,0,-33,9,-87,9H298V150ZM407,567c0,0,42,0,68,10c0,0,25,10,42,28c0,0,16,17,24,41c0,0,9,24,9,50c0,0,0,29,-9,52c0,0,-9,23,-27,39c0,0,-18,15,-45,23c0,0,-27,8,-72,8H298V567ZM164,0c0,0,-25,0,-42,15c0,0,-16,14,-16,47V903c0,0,0,33,16,48c0,0,17,14,42,14H406c0,0,88,0,150,-15c0,0,61,-15,103,-45c0,0,42,-30,65,-77c0,0,22,-46,22,-108c0,0,0,-36,-9,-67c0,0,-9,-31,-26,-56c0,0,-17,-25,-42,-45c0,0,-25,-19,-57,-31c0,0,41,-7,76,-26c0,0,34,-19,60,-48c0,0,26,-30,41,-69c0,0,15,-40,15,-89c0,0,0,-51,-14,-93c0,0,-15,-42,-40,-74c0,0,-25,-32,-59,-55c0,0,-35,-23,-77,-38C614,29,573,14,525,7C525,7,478,0,420,0Z" 
id="f0_i"
transform="scale(0.001,-0.001)" />

<path d="M320,-17c0,0,-50,0,-93,9c0,0,-43,8,-76,19c0,0,-32,11,-54,24C97,35,75,48,65,58c0,0,-10,9,-14,28c0,0,-4,18,-4,52c0,0,0,23,1,39c0,0,2,15,5,25c0,0,4,10,9,14c0,0,6,4,13,4c0,0,11,0,30,-12c0,0,19,-13,49,-28c0,0,30,-15,71,-27c0,0,42,-12,96,-12c0,0,36,0,64,8c0,0,29,9,49,25c0,0,19,15,30,38c0,0,10,23,10,52c0,0,0,33,-18,56c0,0,-18,24,-46,42c0,0,-29,18,-66,34c0,0,-36,16,-75,34c0,0,-39,18,-76,41c0,0,-36,23,-65,54c0,0,-29,32,-47,75c0,0,-17,44,-17,104c0,0,0,70,25,122c0,0,26,53,70,88c0,0,43,34,103,51c0,0,59,18,125,18c0,0,35,0,69,-6c0,0,34,-5,64,-14c0,0,30,-9,53,-20c0,0,23,-11,31,-18c0,0,7,-8,10,-13c0,0,3,-5,4,-14c0,0,2,-8,3,-21c0,0,1,-13,1,-33c0,0,0,-21,-1,-36c0,0,-1,-15,-4,-25c0,0,-3,-9,-7,-14c0,0,-5,-4,-14,-4c0,0,-8,0,-26,10c0,0,-18,10,-44,23c0,0,-26,12,-60,22c0,0,-34,10,-75,10c0,0,-32,0,-56,-8c0,0,-24,-8,-40,-21c0,0,-16,-14,-24,-34c0,0,-8,-19,-8,-41c0,0,0,-32,18,-56c0,0,17,-23,46,-42c0,0,30,-18,67,-34c0,0,38,-16,76,-34c0,0,39,-18,76,-41c0,0,38,-22,67,-54c0,0,29,-32,47,-75c0,0,18,-43,18,-101c0,0,0,-76,-29,-133c0,0,-28,-58,-77,-96C572,60,524,21,459,2c0,0,-65,-19,-139,-19Z" 
id="f0_2n"
transform="scale(0.001,-0.001)" />

<path d="M164,0c0,0,-25,0,-42,15c0,0,-16,14,-16,47V903c0,0,0,33,16,48c0,0,17,14,42,14H645c0,0,7,0,12,-4c0,0,5,-3,9,-13c0,0,4,-9,6,-24c0,0,2,-14,2,-36c0,0,0,-21,-2,-36c0,0,-2,-14,-6,-23c0,0,-4,-9,-9,-13c0,0,-5,-4,-12,-4H301V576H593c0,0,6,0,12,-4c0,0,6,-4,9,-13c0,0,4,-8,6,-23c0,0,2,-14,2,-35c0,0,0,-22,-2,-36c0,0,-2,-14,-6,-23c0,0,-3,-8,-9,-12c0,0,-6,-4,-12,-4H301V154H649c0,0,6,0,12,-5c0,0,5,-4,9,-13c0,0,4,-9,6,-23c0,0,2,-15,2,-36c0,0,0,-22,-2,-36c0,0,-2,-15,-6,-24c0,0,-4,-9,-9,-13c0,0,-6,-4,-12,-4Z" 
id="f0_t"
transform="scale(0.001,-0.001)" />

<path d="M79,297c0,0,-19,0,-27,18c0,0,-8,17,-8,60c0,0,0,41,8,59c0,0,8,17,27,17H389c0,0,9,0,15,-4c0,0,7,-4,11,-13c0,0,5,-9,7,-23c0,0,1,-15,1,-36c0,0,0,-43,-8,-61c0,0,-8,-17,-26,-17Z" 
id="f0_oj"
transform="scale(0.001,-0.001)" />

<path d="M121,-4c0,0,-39,0,-60,2C61,-2,39,0,32,8c0,0,-8,8,-3,24c0,0,4,15,18,41L279,495L64,892c0,0,-14,26,-19,42c0,0,-5,17,4,24c0,0,9,8,32,10c0,0,23,2,65,2c0,0,35,0,56,-2c0,0,20,-1,32,-4c0,0,12,-4,17,-10c0,0,5,-6,9,-15L431,620L595,939c0,0,5,9,10,15c0,0,5,6,16,10c0,0,10,3,29,4c0,0,19,2,53,2c0,0,37,0,59,-2c0,0,22,-2,30,-10c0,0,8,-8,4,-24c0,0,-4,-16,-17,-42L564,497L793,73c0,0,14,-26,18,-41c0,0,4,-16,-5,-24c0,0,-9,-8,-32,-10c0,0,-24,-2,-65,-2c0,0,-36,0,-56,2c0,0,-20,1,-31,3c0,0,-12,4,-17,10c0,0,-5,6,-9,15L414,374L233,26c0,0,-4,-9,-9,-15c0,0,-6,-6,-17,-10c0,0,-12,-2,-32,-3c0,0,-21,-2,-54,-2Z" 
id="f0_3e"
transform="scale(0.001,-0.001)" />

<path d="M204,-4c0,0,-28,0,-47,2c0,0,-19,2,-31,5c0,0,-11,4,-16,10c0,0,-4,6,-4,13V939c0,0,0,7,4,13c0,0,5,6,17,10c0,0,11,3,30,6c0,0,19,2,47,2c0,0,29,0,48,-2c0,0,18,-3,29,-6c0,0,11,-4,16,-10c0,0,5,-6,5,-13V26c0,0,0,-7,-5,-13c0,0,-5,-6,-16,-10c0,0,-11,-3,-29,-5c0,0,-19,-2,-48,-2Z" 
id="f0_1c"
transform="scale(0.001,-0.001)" />

<path d="M127,0c0,0,-16,0,-28,3C99,3,87,6,80,15c0,0,-8,8,-11,25c0,0,-3,16,-3,42c0,0,0,25,2,42c0,0,2,18,8,32c0,0,6,14,15,27c0,0,9,13,24,29L282,390c0,0,50,53,81,95c0,0,30,43,47,79c0,0,17,35,24,65c0,0,6,30,6,57c0,0,0,24,-8,46c0,0,-8,22,-23,39c0,0,-15,16,-38,25c0,0,-23,10,-55,10c0,0,-44,0,-78,-12c0,0,-33,-11,-59,-25c0,0,-26,-13,-43,-25c0,0,-17,-12,-27,-12c0,0,-7,0,-11,5c0,0,-5,4,-8,15c0,0,-3,10,-5,28c0,0,-2,17,-2,42c0,0,0,18,1,29c0,0,1,12,4,20c0,0,2,9,6,15c0,0,3,6,13,15c0,0,9,9,34,23c0,0,25,14,61,27c0,0,37,14,81,23c0,0,44,9,92,9c0,0,75,0,131,-19c0,0,57,-19,94,-53c0,0,37,-34,55,-81c0,0,19,-47,19,-100c0,0,0,-47,-9,-93c0,0,-9,-45,-37,-98c0,0,-29,-52,-80,-116c0,0,-52,-64,-136,-148L299,159H679c0,0,8,0,14,-4c0,0,6,-5,11,-14c0,0,4,-9,7,-25c0,0,2,-15,2,-36c0,0,0,-22,-2,-37c0,0,-2,-15,-6,-25c0,0,-3,-10,-9,-14c0,0,-6,-4,-14,-4Z" 
id="f0_rz"
transform="scale(0.001,-0.001)" />

<path d="M385,138c0,0,29,0,52,9c0,0,22,10,39,28c0,0,17,19,28,47c0,0,11,29,19,66c0,0,7,37,9,84c0,0,3,47,3,104c0,0,0,69,-4,122c0,0,-4,52,-11,91c0,0,-8,39,-20,66c0,0,-12,27,-28,43c0,0,-16,16,-37,22c0,0,-21,7,-47,7c0,0,-44,0,-73,-21c0,0,-28,-21,-45,-64c0,0,-17,-42,-24,-106c0,0,-6,-63,-6,-148c0,0,0,-103,8,-171c0,0,8,-67,26,-107c0,0,17,-40,45,-56c0,0,27,-16,66,-16ZM378,-17c0,0,-99,0,-164,33c0,0,-65,34,-103,98c0,0,-38,64,-54,156c0,0,-15,92,-15,209c0,0,0,115,19,208c0,0,19,94,61,160c0,0,42,65,110,101c0,0,68,35,165,35c0,0,99,0,164,-34c0,0,65,-34,103,-98c0,0,39,-64,53,-156c0,0,15,-92,15,-209c0,0,0,-115,-18,-209c0,0,-19,-93,-61,-159C653,118,611,53,543,17c0,0,-67,-34,-165,-34Z" 
id="f0_rx"
transform="scale(0.001,-0.001)" />

<path d="M142,0c0,0,-6,0,-12,4c0,0,-5,3,-9,12c0,0,-4,9,-6,23c0,0,-3,15,-3,36c0,0,0,21,2,36c0,0,2,14,6,23c0,0,4,9,10,13c0,0,5,5,12,5H322V779L166,693c0,0,-17,-8,-28,-10c0,0,-1,0,-3,0c-4,0,-10,1,-14,5c0,0,-6,6,-8,22c0,0,-2,15,-2,44c0,0,0,18,0,29c0,0,1,12,4,20c0,0,3,8,8,14c0,0,5,5,14,11L345,962c0,0,4,3,9,5c0,0,6,2,15,3c0,0,9,1,23,2c0,0,15,0,38,0c0,0,28,0,46,-1c0,0,17,-1,26,-4c0,0,9,-3,12,-7c0,0,3,-4,3,-11V152H675c0,0,7,0,12,-5c0,0,6,-4,10,-13c0,0,4,-9,6,-23c0,0,2,-15,2,-36c0,0,0,-21,-2,-36c0,0,-3,-14,-7,-23c0,0,-4,-9,-9,-12c0,0,-5,-4,-12,-4Z" 
id="f0_ry"
transform="scale(0.001,-0.001)" />

<path d="M398,134c0,0,34,0,60,12c0,0,25,13,43,36c0,0,17,23,26,54c0,0,9,31,9,68c0,0,0,38,-7,66c0,0,-7,29,-22,49c0,0,-15,20,-39,30c0,0,-25,10,-60,10c0,0,-21,0,-41,-4c0,0,-20,-4,-40,-10c0,0,-19,-7,-37,-16c0,0,-18,-10,-33,-20c0,0,0,-80,9,-133c0,0,9,-54,26,-85c0,0,18,-31,44,-44c0,0,27,-13,62,-13ZM387,-16c0,0,-67,0,-117,15c0,0,-50,14,-86,43c0,0,-37,29,-60,70c0,0,-23,41,-37,92c0,0,-14,52,-19,112c0,0,-5,61,-5,129c0,0,0,56,5,118c0,0,6,62,22,122c0,0,16,59,45,114c0,0,29,54,75,94c0,0,46,41,111,65c0,0,65,24,155,24c0,0,28,0,57,-4c0,0,29,-3,53,-8c0,0,25,-5,42,-12c0,0,17,-7,23,-12c0,0,5,-5,8,-11c0,0,3,-5,5,-13c0,0,2,-7,3,-17c0,0,1,-11,1,-25c0,0,0,-24,-1,-39c0,0,-2,-15,-5,-24c0,0,-3,-8,-8,-12c0,0,-5,-4,-12,-4c0,0,-9,0,-24,5c0,0,-14,5,-34,11c0,0,-20,6,-47,10c0,0,-27,5,-63,5c0,0,-61,0,-102,-23c0,0,-42,-22,-68,-60c0,0,-26,-39,-38,-90c0,0,-12,-50,-13,-107c0,0,16,10,38,21c0,0,21,10,46,18c0,0,25,7,54,12c0,0,29,5,62,5c0,0,73,0,125,-20c0,0,52,-20,86,-58c0,0,33,-37,48,-90c0,0,16,-53,16,-118c0,0,0,-73,-22,-135c0,0,-23,-62,-66,-108C640,79,597,34,533,9c0,0,-63,-25,-146,-25Z" 
id="f0_s3"
transform="scale(0.001,-0.001)" />

<path d="M589,371L453,782h-1L317,371ZM106,-4c0,0,-35,0,-54,2C52,-2,32,0,25,8c0,0,-7,9,-5,24c0,0,2,16,11,42L329,931c0,0,4,13,10,21c0,0,6,7,19,12c0,0,13,4,36,5c0,0,23,1,61,1c0,0,44,0,71,-1c0,0,26,-1,40,-5c0,0,15,-5,21,-13c0,0,6,-8,11,-22L896,73c0,0,9,-27,11,-43c0,0,3,-15,-6,-23c0,0,-8,-7,-29,-9c0,0,-21,-2,-57,-2c0,0,-38,0,-59,1c0,0,-22,1,-33,4c0,0,-11,3,-16,9c0,0,-4,6,-7,16L635,220H272L211,31c0,0,-2,-11,-7,-18c0,0,-5,-7,-16,-11c0,0,-11,-3,-31,-4c0,0,-19,-2,-51,-2Z" 
id="f0_5"
transform="scale(0.001,-0.001)" />

<path d="M198,-4c0,0,-27,0,-45,2c0,0,-18,2,-28,5c0,0,-11,4,-15,10c0,0,-4,6,-4,13V887c0,0,0,38,20,58c0,0,20,20,53,20H308c0,0,34,0,59,-6c0,0,24,-5,42,-18c0,0,18,-13,30,-35c0,0,12,-21,21,-52L669,279h3L889,852c0,0,9,32,21,53c0,0,11,22,27,35c0,0,15,14,36,19c0,0,21,6,48,6h132c0,0,21,0,35,-5c0,0,15,-5,24,-15c0,0,9,-11,14,-25c0,0,5,-15,5,-33V26c0,0,0,-7,-4,-13c0,0,-4,-6,-15,-10c0,0,-11,-3,-29,-5c0,0,-18,-2,-45,-2c0,0,-27,0,-45,2c0,0,-18,2,-28,5c0,0,-11,4,-15,10c0,0,-5,6,-5,13V813h-1L764,27c0,0,-3,-10,-10,-16c0,0,-6,-6,-18,-10c0,0,-12,-3,-29,-4c0,0,-18,-1,-44,-1c0,0,-25,0,-43,2c0,0,-18,2,-29,5c0,0,-12,4,-19,10c0,0,-6,6,-9,14L293,813h-2V26c0,0,0,-7,-4,-13c0,0,-4,-6,-15,-10c0,0,-11,-3,-29,-5c0,0,-17,-2,-45,-2Z" 
id="f0_1x"
transform="scale(0.001,-0.001)" />

<path d="M193,-4c0,0,-26,0,-43,2c0,0,-18,2,-27,6c0,0,-10,4,-14,10c0,0,-3,6,-3,13V895c0,0,0,35,20,53c0,0,21,17,50,17H282c0,0,28,0,47,-5c0,0,20,-5,35,-16c0,0,15,-11,29,-31c0,0,13,-20,27,-49L608,511c0,0,17,-32,33,-63c0,0,16,-31,31,-62c0,0,14,-31,29,-60c0,0,14,-30,27,-60h1c0,0,-2,52,-3,109c0,0,-1,57,-1,108V936c0,0,0,7,4,13c0,0,5,6,15,11c0,0,10,4,28,6c0,0,17,2,44,2c0,0,25,0,42,-2c0,0,17,-2,27,-6c0,0,9,-5,13,-11c0,0,4,-6,4,-13V68c0,0,0,-17,-6,-30c0,0,-6,-14,-17,-23C879,15,869,6,856,2c0,0,-14,-3,-28,-3H744c0,0,-26,0,-45,4c0,0,-19,5,-35,19c0,0,-16,14,-31,38c0,0,-15,23,-34,60L359,572c0,0,-21,40,-43,86c0,0,-21,47,-38,91h-2c0,0,3,-54,5,-107c0,0,2,-53,2,-110V27c0,0,0,-7,-5,-13c0,0,-4,-6,-14,-10c0,0,-10,-4,-27,-6c0,0,-17,-2,-44,-2Z" 
id="f0_1y"
transform="scale(0.001,-0.001)" />

<path d="M378,-4c0,0,-28,0,-47,2c0,0,-19,2,-31,5c0,0,-11,4,-16,10c0,0,-4,6,-4,13V805H38c0,0,-8,0,-13,4c0,0,-5,5,-9,14c0,0,-3,9,-5,25c0,0,-2,15,-2,37c0,0,0,22,2,38c0,0,2,15,5,25c0,0,4,9,9,13c0,0,5,4,13,4H718c0,0,7,0,12,-4c0,0,6,-4,10,-13c0,0,3,-10,5,-25c0,0,2,-16,2,-38c0,0,0,-22,-2,-37c0,0,-2,-16,-5,-25c0,0,-4,-9,-10,-14c0,0,-5,-4,-12,-4H476V26c0,0,0,-7,-5,-13c0,0,-5,-6,-16,-10c0,0,-11,-3,-30,-5c0,0,-19,-2,-47,-2Z" 
id="f0_2t"
transform="scale(0.001,-0.001)" />

<path d="M514,145c0,0,72,0,121,27c0,0,48,26,78,73c0,0,30,46,42,107c0,0,13,62,13,131c0,0,0,76,-12,139c0,0,-12,62,-41,106c0,0,-29,45,-76,69c0,0,-48,24,-120,24c0,0,-72,0,-120,-27c0,0,-49,-27,-79,-73c0,0,-29,-45,-42,-106c0,0,-12,-61,-12,-129c0,0,0,-79,12,-142c0,0,12,-63,40,-108c0,0,28,-44,76,-68c0,0,48,-23,120,-23ZM508,-17c0,0,-113,0,-196,29c0,0,-84,29,-140,90c0,0,-56,60,-84,154c0,0,-28,93,-28,221c0,0,0,117,29,210c0,0,30,94,89,160c0,0,59,65,146,101c0,0,87,35,202,35c0,0,110,0,194,-29c0,0,84,-30,140,-90c0,0,56,-60,85,-153c0,0,29,-92,29,-217c0,0,0,-120,-30,-215c0,0,-30,-95,-89,-161C855,118,796,52,709,17c0,0,-87,-34,-201,-34Z" 
id="f0_24"
transform="scale(0.001,-0.001)" />

<path d="M186,-28L17,77L450,779H39V952H793L186,-28Z" 
id="f1_r"
transform="scale(0.001,-0.001)" />

<path d="M44,-281L425,1053H537L156,-281Z" 
id="f1_j"
transform="scale(0.001,-0.001)" />

<path d="M299,0V777H162l36,173H508V0Z" 
id="f1_l"
transform="scale(0.001,-0.001)" />

<path d="M67,0V109L206,235c0,0,133,118,196,190c0,0,63,72,90,149c0,0,27,77,27,177c0,0,0,97,-44,148c0,0,-44,50,-144,50c0,0,-39,0,-81,-10c0,0,-42,-11,-74,-29L150,787H101V980c0,0,135,32,230,32c0,0,164,0,247,-68c0,0,82,-69,82,-193c0,0,0,-84,-32,-158c0,0,-33,-75,-100,-148c0,0,-67,-74,-222,-206c0,0,-67,-57,-141,-125H680V0Z" 
id="f2_m"
transform="scale(0.001,-0.001)" />

<path d="M134,0V40L339,60V876L137,804v39l292,166h39V60L672,40V0Z" 
id="f2_l"
transform="scale(0.001,-0.001)" />

<path d="M31,0V33L150,52v956L31,1026v34H274V52L394,33V0Z" 
id="f2_28"
transform="scale(0.001,-0.001)" />

<path d="M377,45c0,0,99,0,147,73c0,0,47,73,47,237c0,0,0,161,-47,233c0,0,-47,72,-147,72c0,0,-97,0,-141,-69c0,0,-44,-69,-44,-236c0,0,0,-169,45,-240c0,0,44,-70,140,-70Zm0,-59c0,0,-158,0,-238,94c0,0,-81,95,-81,274c0,0,0,178,81,272c0,0,80,94,244,94c0,0,160,0,241,-92c0,0,82,-92,82,-274c0,0,0,-368,-329,-368Z" 
id="f2_2b"
transform="scale(0.001,-0.001)" />

<path d="M359,-270c0,0,124,0,192,46c0,0,67,47,67,129c0,0,0,43,-26,67c0,0,-26,24,-79,24H242c0,0,-32,-27,-51,-69c0,0,-20,-41,-20,-77c0,0,0,-64,46,-92c0,0,46,-28,142,-28Zm11,561c0,0,81,0,115,47c0,0,34,47,34,141c0,0,0,100,-35,142c0,0,-35,42,-113,42c0,0,-78,0,-114,-43c0,0,-37,-42,-37,-141c0,0,0,-98,36,-143c0,0,36,-45,114,-45ZM359,-329c0,0,-143,0,-218,44c0,0,-75,43,-75,125c0,0,0,39,27,78c0,0,26,38,98,89c0,0,-43,14,-72,48c0,0,-29,35,-29,74L208,262c0,0,-118,55,-118,217c0,0,0,115,73,178c0,0,73,63,211,63c0,0,28,0,71,-6c0,0,44,-6,67,-13l165,83l26,-32L599,644c0,0,50,-56,50,-165c0,0,0,-120,-72,-182c0,0,-73,-62,-208,-62c0,0,-62,0,-114,11L208,148c0,0,2,-13,29,-24c0,0,27,-12,67,-12H512c0,0,113,0,168,-49c0,0,55,-49,55,-134c0,0,0,-79,-44,-137c0,0,-43,-58,-128,-90c0,0,-84,-31,-204,-31Z" 
id="f2_23"
transform="scale(0.001,-0.001)" />

<path d="M115,-329V1060h76V-329Z" 
id="f2_2o"
transform="scale(0.001,-0.001)" />

<path d="M249,-14c0,0,-71,0,-107,42c0,0,-35,42,-35,119V639H15v33l93,29l76,159h47V701H391V639H231V161c0,0,0,-48,22,-73c0,0,22,-24,57,-24c0,0,44,0,106,12V26C416,26,389,8,340,-2c0,0,-49,-12,-91,-12Z" 
id="f2_2g"
transform="scale(0.001,-0.001)" />

<path d="M284,67c0,0,51,0,88,12c0,0,37,12,74,30V358l-98,-3c0,0,-100,-4,-135,-39c0,0,-35,-35,-35,-117c0,0,0,-132,106,-132ZM233,-14c0,0,-179,0,-179,208c0,0,0,70,27,116c0,0,27,46,87,70c0,0,60,24,173,27l105,3V519c0,0,0,72,-26,107c0,0,-27,34,-82,34c0,0,-75,0,-137,-35L176,538H134V691c0,0,121,26,213,26c0,0,115,0,169,-47c0,0,54,-47,54,-144V52L657,33V0H465L451,70c0,0,-85,-84,-218,-84Z" 
id="f2_1x"
transform="scale(0.001,-0.001)" />

<path d="M439,0V33l93,19V500c0,0,0,62,-30,97c0,0,-31,36,-94,36c0,0,-67,0,-165,-22V52L338,33V0H35V33l84,19V649L35,668v33H235l7,-57c0,0,57,33,122,54c0,0,65,22,108,22c0,0,91,0,137,-53c0,0,47,-53,47,-154V52L741,33V0Z" 
id="f2_2a"
transform="scale(0.001,-0.001)" />

<path d="M476,327V830h-4L114,327ZM476,0V220H30v99l488,686h86V327H740V220H604V0Z" 
id="f2_o"
transform="scale(0.001,-0.001)" />

<path d="M350,-14c0,0,-142,0,-269,31L73,228h49L156,87c0,0,29,-16,82,-28c0,0,54,-12,100,-12c0,0,117,0,173,54c0,0,56,53,56,178c0,0,0,99,-52,150c0,0,-51,51,-159,56l-107,6v61l107,7c0,0,84,5,124,52c0,0,41,48,41,145c0,0,0,101,-44,147c0,0,-44,45,-139,45c0,0,-40,0,-83,-10c0,0,-43,-11,-76,-29L153,786H104V979c0,0,74,19,127,26c0,0,54,6,107,6c0,0,321,0,321,-246c0,0,0,-104,-57,-165c0,0,-57,-62,-162,-77c0,0,136,-16,200,-78c0,0,64,-62,64,-173c0,0,0,-135,-92,-211c0,0,-93,-75,-262,-75Z" 
id="f2_n"
transform="scale(0.001,-0.001)" />

<path d="M410,45c0,0,90,0,130,58c0,0,40,59,40,193c0,0,0,122,-38,177c0,0,-38,54,-122,54c0,0,-102,0,-217,-37c0,0,0,-227,51,-336c0,0,52,-109,156,-109Zm3,-59c0,0,-169,0,-258,131c0,0,-89,131,-89,377c0,0,0,161,47,278c0,0,47,117,131,178c0,0,85,61,196,61c0,0,109,0,217,-26V813H608L582,915c0,0,-25,13,-67,23c0,0,-41,10,-75,10c0,0,-109,0,-170,-105c0,0,-60,-106,-66,-308c0,0,121,63,244,63c0,0,132,0,201,-74c0,0,69,-74,69,-214c0,0,0,-156,-78,-240c0,0,-79,-84,-227,-84Z" 
id="f2_q"
transform="scale(0.001,-0.001)" />

<path d="M-6,0c0,0,-12,10,-12,32c0,0,0,21,23,51c0,0,23,31,79,82L287,354L159,649L79,668l6,33H270L378,434l93,88c0,0,47,46,67,72c0,0,19,26,19,44c0,0,0,8,-6,13c0,0,-7,6,-38,17l6,33H651c0,0,16,-12,16,-32c0,0,0,-44,-103,-142L404,377L548,49L634,33L628,0H437L313,298L185,176c0,0,-41,-40,-60,-65c0,0,-19,-26,-19,-48c0,0,0,-21,31,-29L131,0Z" 
id="f3_2k"
transform="scale(0.001,-0.001)" />

<path d="M521,-14c0,0,-205,0,-320,107C201,93,85,200,85,390c0,0,0,185,77,326c0,0,77,142,220,219c0,0,142,76,324,76c0,0,158,0,327,-38L1000,755H951V884c0,0,-46,32,-112,50c0,0,-65,17,-137,17c0,0,-135,0,-242,-72c0,0,-107,-72,-166,-203c0,0,-60,-132,-60,-301c0,0,0,-160,78,-244c0,0,78,-84,222,-84c0,0,85,0,166,25c0,0,82,26,133,65l53,149h49L889,52C889,52,803,20,705,3c0,0,-99,-17,-184,-17Z" 
id="f3_13"
transform="scale(0.001,-0.001)" />

<path d="M0,356v74H784V356Z" 
id="f4_h"
transform="scale(0.001,-0.001)" />

<path d="M0,214v74H784V214ZM0,494v72H784V494Z" 
id="f4_x"
transform="scale(0.001,-0.001)" />

<path d="M355,0V355H0v72H355V784h72V427H782V355H427V0Z" 
id="f4_f"
transform="scale(0.001,-0.001)" />

<path d="M122,0V64L295,82V837L123,780v64l282,165H511V82L685,64V0Z" 
id="f5_l"
transform="scale(0.001,-0.001)" />

<path d="M435,350V646c0,0,0,84,7,158L145,350ZM435,0V198H21V319l450,686H636V350H736V198H636V0Z" 
id="f5_o"
transform="scale(0.001,-0.001)" />

<path d="M191,-20c0,0,-51,0,-88,34c0,0,-36,36,-36,88c0,0,0,52,36,88c0,0,36,36,88,36c0,0,51,0,88,-36c0,0,36,-36,36,-88c0,0,0,-51,-36,-87c0,0,-36,-35,-88,-35Z" 
id="f5_i"
transform="scale(0.001,-0.001)" />

<path d="M54,0V40L172,60V941L44,960v40H794V760H745L721,922c0,0,-83,11,-241,11H316V516H611l23,120h46V328H634L611,449H316V60L483,40V0Z" 
id="f2_16"
transform="scale(0.001,-0.001)" />

<path d="M32,0V33L151,52V649L52,668v33H275V52L395,33V0ZM201,850c0,0,-32,0,-56,24c0,0,-24,24,-24,56c0,0,0,34,24,58c0,0,24,24,56,24c0,0,34,0,58,-24c0,0,24,-24,24,-58c0,0,0,-32,-24,-56c0,0,-24,-24,-58,-24Z" 
id="f2_25"
transform="scale(0.001,-0.001)" />

<path d="M383,64c0,0,85,0,152,28V645c0,0,-67,13,-152,13c0,0,-194,0,-194,-314c0,0,0,-141,48,-211c0,0,48,-69,146,-69ZM342,-14c0,0,-287,0,-287,358c0,0,0,184,82,280c0,0,81,96,239,96c0,0,81,0,163,-18c0,0,-4,25,-4,124v182l-118,18v34H659V52L745,33V0H548l-9,52c0,0,-84,-66,-197,-66Z" 
id="f2_20"
transform="scale(0.001,-0.001)" />

<path d="M211,-20c0,0,-39,0,-64,25c0,0,-26,27,-26,64c0,0,0,38,26,64c0,0,26,26,64,26c0,0,37,0,64,-25c0,0,26,-26,26,-65c0,0,0,-37,-26,-64c0,0,-26,-25,-64,-25Zm0,556c0,0,-38,0,-64,26c0,0,-26,26,-26,64c0,0,0,37,26,64c0,0,25,27,64,27c0,0,38,0,64,-27c0,0,26,-27,26,-64c0,0,0,-38,-26,-64c0,0,-27,-26,-64,-26Z" 
id="f2_u"
transform="scale(0.001,-0.001)" />

<path d="M460,-325c0,0,-148,79,-231,172c0,0,-84,93,-123,217c0,0,-39,126,-39,304c0,0,0,178,39,303c0,0,39,125,122,217c0,0,82,93,232,172V997c0,0,-91,-52,-145,-134c0,0,-54,-81,-79,-190c0,0,-25,-109,-25,-305c0,0,0,-194,26,-309c0,0,26,-114,82,-193c0,0,56,-79,141,-128v-63Z" 
id="f2_c"
transform="scale(0.001,-0.001)" />

<path d="M350,-14c0,0,-142,0,-253,31L89,228h49L172,87c0,0,32,-18,78,-29c0,0,46,-11,88,-11c0,0,118,0,173,56c0,0,56,55,56,187c0,0,0,93,-24,140c0,0,-24,47,-76,70c0,0,-52,22,-140,22c0,0,-68,0,-133,-18H122v496H630V886H189V567c0,0,81,18,173,18c0,0,173,0,258,-71c0,0,84,-71,84,-216c0,0,0,-151,-92,-232c0,0,-91,-80,-262,-80Z" 
id="f2_p"
transform="scale(0.001,-0.001)" />

<path d="M49,-325v63c0,0,85,49,140,128c0,0,56,79,83,194c0,0,26,115,26,308c0,0,0,196,-25,305c0,0,-25,109,-79,190c0,0,-54,82,-145,134v63c0,0,149,-80,232,-172c0,0,83,-92,122,-217c0,0,39,-125,39,-303c0,0,0,-177,-39,-303c0,0,-39,-125,-122,-217c0,0,-83,-93,-232,-173Z" 
id="f2_d"
transform="scale(0.001,-0.001)" />

<path d="M301,78c0,0,41,0,90,27c0,0,49,28,95,77l81,442c0,0,-26,18,-54,27c0,0,-27,10,-67,10c0,0,-70,0,-131,-55c0,0,-61,-55,-99,-152c0,0,-37,-97,-37,-201c0,0,0,-79,33,-127c0,0,33,-48,89,-48ZM245,-14c0,0,-91,0,-145,68c0,0,-54,69,-54,183c0,0,0,128,55,240c0,0,55,112,150,177c0,0,96,66,210,66c0,0,70,0,123,-18c0,0,3,36,51,306l-115,18l6,34H768L589,52L673,33L667,0H454l22,117C476,117,350,-14,245,-14Z" 
id="f3_20"
transform="scale(0.001,-0.001)" />

<path d="M88,-163c0,0,-39,0,-63,25c0,0,-25,26,-25,65c0,0,0,34,19,54c0,0,19,19,48,19c0,0,30,0,51,-23c0,0,22,-24,37,-24c0,0,12,0,21,11c0,0,8,10,8,35c0,0,0,30,-7,88c0,0,-27,235,-27,620c0,0,13,411,17,446c0,0,17,139,60,188c0,0,43,48,98,48c0,0,37,0,65,-25c0,0,28,-25,28,-54c0,0,0,-35,-19,-57c0,0,-20,-21,-49,-21c0,0,-26,0,-57,27c0,0,-17,15,-30,15c0,0,-12,0,-21,-11c0,0,-8,-11,-8,-37c0,0,0,-31,6,-108c0,0,28,-306,28,-496c0,0,0,-50,-12,-439c0,0,-6,-219,-67,-296c0,0,-41,-50,-101,-50Z" 
id="f4_50"
transform="scale(0.001,-0.001)" />

<path d="M410,-14c0,0,-86,0,-175,14C235,0,145,14,81,38V307h66L181,146c0,0,31,-37,94,-62c0,0,64,-24,132,-24c0,0,214,0,214,177c0,0,0,55,-41,93c0,0,-41,38,-128,68c0,0,-128,42,-185,68c0,0,-56,27,-95,63c0,0,-38,36,-62,87c0,0,-23,51,-23,125c0,0,0,132,90,201c0,0,90,69,263,69c0,0,125,0,278,-32V741H651L618,878c0,0,-76,56,-178,56c0,0,-92,0,-141,-34c0,0,-49,-34,-49,-104c0,0,0,-50,41,-86c0,0,41,-35,128,-63c0,0,171,-56,235,-97c0,0,64,-41,97,-103c0,0,34,-61,34,-143c0,0,0,-318,-375,-318Z" 
id="f5_1j"
transform="scale(0.001,-0.001)" />

<path d="M379,60c0,0,59,0,84,64c0,0,24,65,24,231c0,0,0,164,-24,227c0,0,-24,63,-84,63c0,0,-57,0,-80,-60c0,0,-22,-61,-22,-230c0,0,0,-173,23,-234c0,0,22,-61,79,-61Zm-2,-74c0,0,-161,0,-240,91c0,0,-79,91,-79,277c0,0,0,186,80,276c0,0,81,90,245,90c0,0,167,0,245,-93c0,0,78,-93,78,-273c0,0,0,-188,-81,-278c0,0,-81,-90,-248,-90Z" 
id="f5_2b"
transform="scale(0.001,-0.001)" />

<path d="M30,0V49l76,18V992l-72,18v50H322V67L398,49V0Z" 
id="f5_28"
transform="scale(0.001,-0.001)" />

<path d="M287,-18c0,0,-194,0,-194,206V634L23,652v49H309V217c0,0,0,-63,26,-98c0,0,27,-35,76,-35c0,0,57,0,113,25V634l-64,18v49H740V67L809,49V0H536L526,61L475,35c0,0,-104,-53,-188,-53Z" 
id="f5_2h"
transform="scale(0.001,-0.001)" />

<path d="M327,-14c0,0,-101,0,-156,45c0,0,-55,45,-55,131V624H25v48l108,29l87,159H332V701H480V624H332V176c0,0,0,-49,20,-73c0,0,20,-25,53,-25c0,0,40,0,97,12V26c0,0,-22,-15,-76,-27c0,0,-55,-13,-99,-13Z" 
id="f5_2g"
transform="scale(0.001,-0.001)" />

<path d="M34,0V49l76,18V634L38,652v49H325V67L402,49V0ZM217,831c0,0,-48,0,-81,33c0,0,-34,33,-34,82c0,0,0,48,34,81c0,0,34,33,81,33c0,0,48,0,81,-33c0,0,33,-33,33,-81c0,0,0,-47,-33,-81c0,0,-32,-34,-81,-34Z" 
id="f5_25"
transform="scale(0.001,-0.001)" />

<path d="M41,0V49l69,18V634L41,652v49H313l11,-61l50,26c0,0,105,54,188,54c0,0,194,0,194,-207V67L827,49V0H478V49l63,18V484c0,0,0,63,-27,98c0,0,-26,35,-75,35c0,0,-57,0,-114,-25V67L389,49V0Z" 
id="f5_2a"
transform="scale(0.001,-0.001)" />

<path d="M248,-20c0,0,-52,0,-87,34c0,0,-36,36,-36,88c0,0,0,52,36,88c0,0,35,36,87,36c0,0,52,0,88,-36c0,0,36,-36,36,-88c0,0,0,-51,-36,-87c0,0,-35,-35,-88,-35Zm0,488c0,0,-52,0,-87,36c0,0,-36,36,-36,88c0,0,0,52,35,88c0,0,35,36,88,36c0,0,53,0,89,-36c0,0,35,-37,35,-88c0,0,0,-51,-36,-87c0,0,-35,-37,-88,-37Z" 
id="f5_u"
transform="scale(0.001,-0.001)" />

<path d="M44,0V40L172,60V941L44,960v40H471V960L316,941V65H513c0,0,159,0,234,14l46,208h48L828,0Z" 
id="f2_1c"
transform="scale(0.001,-0.001)" />

<path d="M495,413c0,0,0,133,-34,190c0,0,-34,57,-105,57c0,0,-78,0,-119,-63c0,0,-42,-62,-42,-184ZM374,-14c0,0,-163,0,-239,87c0,0,-75,88,-75,283c0,0,0,183,77,273c0,0,76,91,219,91c0,0,269,0,269,-306V353H194V340c0,0,0,-103,23,-160c0,0,22,-57,70,-87c0,0,47,-29,124,-29c0,0,40,0,96,6c0,0,55,7,91,15V43C598,43,562,20,500,3c0,0,-61,-17,-126,-17Z" 
id="f2_21"
transform="scale(0.001,-0.001)" />

<path d="M13,0V34L95,46L325,350L122,649L40,668v33H357V668L264,648L399,446L554,649l-96,19v33H710V668L630,652L433,397L663,50L745,34V0H427V34l94,17L359,299L169,50L266,34V0Z" 
id="f2_2k"
transform="scale(0.001,-0.001)" />

<path d="M392,152V469H76v77H392V863h77V546H787V469H469V152Z" 
id="f2_f"
transform="scale(0.001,-0.001)" />

<path d="M76,316v76H787V316Zm0,306v76H787V622Z" 
id="f2_x"
transform="scale(0.001,-0.001)" />

<path d="M681,416L504,902L333,416ZM669,0V40L803,60L704,348H310L210,60L344,40V0H15V40L128,60l341,949H611L965,60L1092,40V0Z" 
id="f2_11"
transform="scale(0.001,-0.001)" />

<path d="M-12,338v55H777V338Z" 
id="f6_4y"
transform="scale(0.001,-0.001)" />

<path d="M536,63c0,0,127,0,191,54c0,0,63,54,63,168c0,0,0,105,-70,154c0,0,-70,49,-225,49H316V67c0,0,103,-4,220,-4ZM480,555c0,0,121,0,178,48c0,0,57,48,57,155c0,0,0,91,-58,133c0,0,-57,42,-186,42H316V555ZM554,-4L235,0H44V40L172,60V941L44,960v40H501c0,0,191,0,279,-56c0,0,88,-56,88,-179c0,0,0,-88,-55,-149c0,0,-54,-62,-151,-83c0,0,135,-14,209,-79c0,0,73,-65,73,-166c0,0,0,-144,-99,-219C845,69,745,-4,554,-4Z" 
id="f2_12"
transform="scale(0.001,-0.001)" />

<path d="M58,-234v58c0,0,131,42,131,125c0,0,0,15,-11,27c0,0,-11,12,-38,25C140,1,89,27,89,75c0,0,0,40,25,61c0,0,26,21,65,21c0,0,48,0,77,-34c0,0,30,-34,30,-86c0,0,0,-101,-60,-170c0,0,-59,-69,-168,-101Z" 
id="f2_g"
transform="scale(0.001,-0.001)" />

<path d="M377,45c0,0,100,0,147,52c0,0,47,52,47,174c0,0,0,119,-46,173c0,0,-47,54,-148,54c0,0,-98,0,-141,-51c0,0,-44,-51,-44,-176c0,0,0,-126,44,-176c0,0,44,-50,141,-50Zm2,518c0,0,84,0,123,46c0,0,39,46,39,148c0,0,0,102,-40,151c0,0,-41,48,-122,48c0,0,-79,0,-118,-47c0,0,-38,-47,-38,-152c0,0,0,-104,37,-149c0,0,38,-45,119,-45ZM377,-14c0,0,-319,0,-319,285c0,0,0,99,48,164c0,0,48,66,129,96c0,0,-65,30,-106,87c0,0,-40,56,-40,139c0,0,0,123,75,191c0,0,76,68,219,68c0,0,139,0,216,-67c0,0,76,-68,76,-192c0,0,0,-82,-40,-139c0,0,-40,-57,-108,-87c0,0,85,-31,132,-98c0,0,47,-67,47,-162c0,0,0,-142,-80,-214c0,0,-80,-71,-249,-71Z" 
id="f2_s"
transform="scale(0.001,-0.001)" />

<path d="M631,416L539,902L283,416ZM576,0l8,40L691,60L643,348H249L96,60L197,40L189,0H-83l8,40L7,60l509,949H659L845,60L938,40L930,0Z" 
id="f3_11"
transform="scale(0.001,-0.001)" />

<path d="M459,63c0,0,143,0,210,55c0,0,67,56,67,185c0,0,0,101,-66,146c0,0,-66,46,-190,46H341L266,67c0,0,114,-4,193,-4Zm18,499c0,0,144,0,206,49c0,0,61,48,61,170c0,0,0,77,-48,115c0,0,-48,37,-160,37H419L353,562ZM459,-4L173,0H14l8,40l99,20L277,941L151,960l8,40H570c0,0,330,0,330,-210c0,0,0,-105,-66,-174c0,0,-66,-69,-184,-85c0,0,115,-9,179,-69c0,0,63,-59,63,-157c0,0,0,-160,-108,-235C784,70,675,-4,459,-4Z" 
id="f3_12"
transform="scale(0.001,-0.001)" />

<path d="M945,-20c0,0,47,75,125,153H57v74H1147l108,91c0,0,23,19,95,72c0,0,-134,103,-203,166H57v72H1070c0,0,-78,78,-125,154h85c0,0,88,-107,217,-217c0,0,130,-110,206,-154V349c0,0,-101,-58,-219,-162c0,0,-118,-103,-204,-207Z" 
id="f4_4g"
transform="scale(0.001,-0.001)" />

<path d="M-5,0L0,40L131,60L286,941L162,960l6,40H568l-6,-40L430,941L275,60L399,40L393,0Z" 
id="f3_19"
transform="scale(0.001,-0.001)" />

<path d="M31,0V33l88,19V649L31,668v33H235l7,-87c0,0,44,37,121,71c0,0,76,35,121,35h11V530H463l-43,82c0,0,-37,0,-88,-10c0,0,-52,-10,-89,-26V52L363,33V0Z" 
id="f2_2e"
transform="scale(0.001,-0.001)" />

<path d="M55,0V40L184,60V941L55,960v40H455V960L327,941V60L455,40V0Z" 
id="f2_19"
transform="scale(0.001,-0.001)" />

<path d="M382,45c0,0,188,0,188,314c0,0,0,143,-47,213c0,0,-46,69,-141,69c0,0,-87,0,-146,-24V58c0,0,67,-13,146,-13ZM25,-325v35l88,18V649L34,668v33H231l1,-41c0,0,31,27,84,43c0,0,53,17,107,17c0,0,134,0,208,-94c0,0,73,-93,73,-267c0,0,0,-178,-80,-276c0,0,-80,-97,-232,-97c0,0,-84,0,-160,16c0,0,4,-53,4,-84V-272l123,-18v-35Z" 
id="f2_2c"
transform="scale(0.001,-0.001)" />

<path d="M289,-14c0,0,-179,0,-179,205V649L20,668v33H233V200c0,0,0,-128,120,-128c0,0,92,0,173,23V649L420,668v33H649V52L738,33V0H533l-6,57C527,57,474,28,405,7c0,0,-69,-21,-116,-21Z" 
id="f2_2h"
transform="scale(0.001,-0.001)" />

<path d="M200,-14c0,0,-59,0,-93,35c0,0,-34,36,-34,100c0,0,0,22,4,51c0,0,4,30,82,467H67l6,33l99,29L275,860h47L295,701H455L443,639H283L210,230c0,0,-13,-69,-13,-99c0,0,0,-34,17,-51c0,0,17,-16,43,-16c0,0,54,0,113,21L386,50c0,0,-92,-64,-186,-64Z" 
id="f3_2g"
transform="scale(0.001,-0.001)" />

<path d="M52,62L0,114L278,390L0,667l52,52L330,442L608,719l51,-51L382,390L659,114L608,62L330,338L52,62Z" 
id="f4_3a"
transform="scale(0.001,-0.001)" />

<path d="M0,-14L351,1007h73L75,-14Z" 
id="f2_j"
transform="scale(0.001,-0.001)" />

<path d="M178,0L615,886H176L150,764H101v236H720V943L274,0Z" 
id="f2_r"
transform="scale(0.001,-0.001)" />

<path d="M278,-14c0,0,-52,0,-115,11c0,0,-63,10,-99,23V193H98L134,95c0,0,56,-50,146,-50c0,0,144,0,144,123c0,0,0,91,-114,130l-66,21c0,0,-75,25,-110,50c0,0,-34,26,-53,63c0,0,-18,36,-18,89c0,0,0,92,63,145c0,0,63,54,170,54c0,0,77,0,193,-23V544H454l-32,81c0,0,-39,35,-124,35c0,0,-61,0,-92,-30c0,0,-32,-30,-32,-80c0,0,0,-43,29,-72c0,0,28,-29,86,-48c0,0,110,-38,144,-55c0,0,33,-17,57,-42c0,0,23,-25,36,-57c0,0,13,-32,13,-79c0,0,0,-104,-66,-158c0,0,-66,-53,-195,-53Z" 
id="f2_2f"
transform="scale(0.001,-0.001)" />

<path d="M346,-14c0,0,-139,0,-276,29L61,258h69L169,96c0,0,29,-16,71,-26c0,0,43,-10,77,-10c0,0,172,0,172,230c0,0,0,120,-44,174c0,0,-44,53,-139,53c0,0,-53,0,-97,-19L186,488H111v512H633V834H194V571c0,0,91,21,164,21c0,0,178,0,264,-74c0,0,86,-73,86,-220c0,0,0,-151,-94,-232c0,0,-93,-80,-268,-80Z" 
id="f5_p"
transform="scale(0.001,-0.001)" />

<path d="M410,-14c0,0,-80,0,-162,14c0,0,-81,14,-144,38V270h48L178,134c0,0,28,-35,95,-62c0,0,68,-27,134,-27c0,0,104,0,163,53c0,0,58,54,58,148c0,0,0,54,-23,89c0,0,-22,35,-59,59c0,0,-37,24,-84,41c0,0,-47,17,-97,34c0,0,-49,17,-96,38c0,0,-47,21,-84,53c0,0,-37,32,-60,79c0,0,-23,48,-23,117c0,0,0,119,90,187c0,0,89,68,248,68c0,0,121,0,263,-32V771H654L628,893c0,0,-76,55,-188,55c0,0,-100,0,-156,-40c0,0,-56,-41,-56,-112c0,0,0,-49,22,-81c0,0,23,-32,60,-55c0,0,37,-22,84,-39c0,0,48,-16,97,-34c0,0,50,-17,97,-39c0,0,48,-22,85,-56c0,0,36,-34,59,-83c0,0,23,-49,23,-120c0,0,0,-145,-89,-224c0,0,-89,-79,-256,-79Z" 
id="f2_1j"
transform="scale(0.001,-0.001)" />

<path d="M360,-14L72,649L0,668v33H327V668L216,648L420,164L615,649L504,668v33H764V668L697,652L416,-14Z" 
id="f2_2i"
transform="scale(0.001,-0.001)" />

<path d="M442,0V33l93,19V504c0,0,0,129,-124,129c0,0,-70,0,-168,-22V52L338,33V0H31V33l88,19v956L15,1026v34H243V756c0,0,0,-77,-5,-112c0,0,54,31,122,53c0,0,68,23,115,23c0,0,91,0,137,-53c0,0,47,-53,47,-154V52L744,33V0Z" 
id="f2_24"
transform="scale(0.001,-0.001)" />

<path d="M64,0V34L168,59V639H47v36l121,29v49c0,0,0,155,61,239c0,0,62,84,173,84c0,0,58,0,107,-15V908H472l-33,92c0,0,-26,16,-62,16c0,0,-47,0,-66,-42c0,0,-19,-42,-19,-157V701H478V639H292V59L443,34V0Z" 
id="f2_22"
transform="scale(0.001,-0.001)" />

<path d="M383,64c0,0,44,0,87,7c0,0,43,7,65,17V645c0,0,-67,13,-152,13c0,0,-194,0,-194,-309c0,0,0,-143,48,-214c0,0,47,-71,146,-71Zm56,-389v35l96,18V-77c0,0,0,73,7,124c0,0,-79,-61,-200,-61c0,0,-287,0,-287,362c0,0,0,180,81,276c0,0,81,96,237,96c0,0,84,0,166,-18l67,33h53V-272l77,-18v-35Z" 
id="f2_2d"
transform="scale(0.001,-0.001)" />

<path d="M399,-14c0,0,-341,0,-341,370c0,0,0,175,87,269c0,0,87,95,249,95c0,0,101,0,220,-23V501H573L541,625c0,0,-62,35,-149,35c0,0,-200,0,-200,-304c0,0,0,-158,61,-225c0,0,61,-67,189,-67c0,0,109,0,189,24V43C631,43,595,16,530,1c0,0,-64,-15,-131,-15Z" 
id="f2_1z"
transform="scale(0.001,-0.001)" />

<path d="M377,45c0,0,99,0,145,108c0,0,46,109,46,352c0,0,0,240,-45,345c0,0,-46,106,-146,106c0,0,-97,0,-139,-100c0,0,-43,-99,-43,-351c0,0,0,-254,44,-357c0,0,43,-103,138,-103Zm0,-59c0,0,-158,0,-238,132c0,0,-81,133,-81,386c0,0,0,249,81,380c0,0,80,132,244,132c0,0,159,0,241,-130c0,0,82,-130,82,-382c0,0,0,-518,-329,-518Z" 
id="f2_k"
transform="scale(0.001,-0.001)" />

<path d="M79,-234v58c0,0,132,42,132,125c0,0,0,15,-12,27c0,0,-12,12,-39,25c0,0,-50,25,-50,74c0,0,0,40,25,61c0,0,26,21,65,21c0,0,48,0,78,-33c0,0,29,-34,29,-87c0,0,0,-101,-59,-170c0,0,-59,-69,-169,-101ZM211,536c0,0,-38,0,-64,26c0,0,-26,26,-26,64c0,0,0,37,26,64c0,0,25,27,64,27c0,0,38,0,64,-27c0,0,26,-27,26,-64c0,0,0,-38,-26,-64c0,0,-27,-26,-64,-26Z" 
id="f2_v"
transform="scale(0.001,-0.001)" />

<path d="M191,-20c0,0,-39,0,-65,25c0,0,-25,27,-25,64c0,0,0,38,26,64c0,0,26,26,64,26c0,0,38,0,64,-26c0,0,26,-26,26,-64c0,0,0,-37,-25,-64c0,0,-26,-25,-65,-25Z" 
id="f2_i"
transform="scale(0.001,-0.001)" />

<path d="M-15,-329c0,0,-61,0,-112,13l28,152h34l12,-72c0,0,18,-17,60,-17c0,0,100,0,212,202L253,9L116,649L33,668l6,33H230L338,155L513,458c0,0,48,83,48,144c0,0,0,27,-16,44c0,0,-15,16,-33,22l6,33H659c0,0,20,-17,20,-47c0,0,0,-59,-62,-164L322,-7c0,0,-86,-145,-135,-205c0,0,-50,-61,-98,-89c0,0,-49,-28,-104,-28Z" 
id="f3_2l"
transform="scale(0.001,-0.001)" />

<path d="M130,0L252,216H0v70H292L410,496H0v70H450L572,783h82L532,566H783V496H492L377,286H783V216H335L213,0Z" 
id="f4_3f"
transform="scale(0.001,-0.001)" />

<path d="M62,-123V268c0,0,0,230,56,452c0,0,47,190,134,334c0,0,87,144,204,242c0,0,85,73,194,119l18,-16c0,0,-211,-145,-335,-339c0,0,-98,-156,-149,-374c0,0,-50,-218,-50,-403V-123Z" 
id="f4_4o"
transform="scale(0.001,-0.001)" />

<path d="M617,-123V283c0,0,0,236,-63,459c0,0,-63,223,-188,392c0,0,-108,146,-282,265l17,16c0,0,180,-76,320,-248c0,0,139,-172,204,-417c0,0,64,-245,64,-482V-123Z" 
id="f4_54"
transform="scale(0.001,-0.001)" />

<path d="M62,-123V1415h72V-123Z" 
id="f4_4p"
transform="scale(0.001,-0.001)" />

<path d="M617,-123V1415h72V-123Z" 
id="f4_55"
transform="scale(0.001,-0.001)" />

<path d="M650,-123c0,0,-180,75,-319,246c0,0,-140,172,-205,418c0,0,-64,245,-64,481v393h72V1007c0,0,0,-236,63,-459c0,0,63,-223,189,-391c0,0,108,-145,282,-265l-18,-15Z" 
id="f4_4q"
transform="scale(0.001,-0.001)" />

<path d="M101,-123l-17,15c0,0,210,144,334,339c0,0,99,156,149,373c0,0,50,218,50,403v408h72V1022c0,0,0,-230,-56,-451c0,0,-48,-191,-134,-335C499,236,412,92,295,-5c0,0,-84,-73,-194,-118Z" 
id="f4_56"
transform="scale(0.001,-0.001)" />

<path d="M188,355c0,0,148,11,236,69c0,0,89,58,89,143c0,0,0,41,-23,68c0,0,-22,27,-66,27c0,0,-52,0,-101,-43c0,0,-49,-42,-85,-114c0,0,-36,-71,-50,-150ZM298,-14c0,0,-120,0,-186,67c0,0,-65,67,-65,193c0,0,0,125,53,232c0,0,52,108,145,175c0,0,94,67,196,67c0,0,92,0,147,-42c0,0,56,-43,56,-111c0,0,0,-102,-126,-173c0,0,-125,-72,-336,-86l-3,-54c0,0,0,-95,40,-143c0,0,40,-47,118,-47c0,0,67,0,124,22c0,0,57,23,106,52l22,-32c0,0,-69,-58,-146,-89c0,0,-76,-31,-145,-31Z" 
id="f3_21"
transform="scale(0.001,-0.001)" />

<path d="M83,0C83,0,48,0,24,24C24,24,0,49,0,83c0,0,0,34,24,58c0,0,24,24,59,24c0,0,34,0,58,-24c0,0,24,-24,24,-58c0,0,0,-34,-24,-59C141,24,117,0,83,0ZM695,0c0,0,-34,0,-58,24c0,0,-25,25,-25,59c0,0,0,34,25,58c0,0,24,24,58,24c0,0,34,0,58,-24c0,0,24,-24,24,-58c0,0,0,-34,-24,-59C753,24,729,0,695,0ZM388,594c0,0,-34,0,-59,23c0,0,-24,24,-24,59c0,0,0,34,24,58c0,0,25,25,59,25c0,0,34,0,58,-25c0,0,24,-24,24,-58c0,0,0,-35,-24,-59c0,0,-24,-23,-58,-23Z" 
id="f4_1s"
transform="scale(0.001,-0.001)" />

<path d="M148,-329c0,0,-58,0,-114,13v151H69l24,-71c0,0,23,-17,64,-17c0,0,39,0,72,22c0,0,33,23,60,67c0,0,27,44,68,157L90,649L19,668v33H344V668L233,648L423,158L606,649L497,668v33H758V668L685,652L411,-43c0,0,-48,-124,-84,-177c0,0,-36,-54,-79,-82c0,0,-44,-27,-100,-27Z" 
id="f2_2l"
transform="scale(0.001,-0.001)" />

<path d="M577,-14c0,0,-243,0,-379,132C198,118,63,250,63,488c0,0,0,258,130,391c0,0,131,132,387,132c0,0,156,0,335,-38l5,-218H871L848,884c0,0,-52,32,-121,50c0,0,-69,17,-141,17c0,0,-191,0,-279,-112c0,0,-88,-113,-88,-349c0,0,0,-217,92,-332c0,0,92,-115,268,-115c0,0,85,0,160,20c0,0,76,21,120,55l27,149h49L930,32c0,0,-164,-46,-353,-46Z" 
id="f2_13"
transform="scale(0.001,-0.001)" />

<path d="M404,60c0,0,54,0,75,59c0,0,21,59,21,177c0,0,0,106,-29,162c0,0,-29,57,-87,57c0,0,-55,0,-112,-17v-4c0,0,0,-434,132,-434Zm3,-74c0,0,-172,0,-263,130c0,0,-92,130,-92,378c0,0,0,161,48,278c0,0,48,117,135,178c0,0,87,61,199,61c0,0,117,0,225,-32V751H594L562,896c0,0,-52,39,-113,39c0,0,-75,0,-121,-95c0,0,-47,-96,-55,-267c0,0,81,35,161,35c0,0,137,0,211,-77c0,0,74,-77,74,-220c0,0,0,-158,-81,-242c0,0,-81,-83,-231,-83Z" 
id="f5_q"
transform="scale(0.001,-0.001)" />

<path d="M327,-14L84,649L1,668v33H335V668L219,648L385,174L554,632h63L786,171L944,649L830,668v33h267V668l-78,-16L784,-14H726L553,448L382,-14Z" 
id="f2_2j"
transform="scale(0.001,-0.001)" />


</defs>
</svg>