<?xml version="1.0" encoding="UTF-8" standalone="no"?>
<!DOCTYPE svg PUBLIC "-//W3C//DTD SVG 1.1//EN"
"http://www.w3.org/Graphics/SVG/1.1/DTD/svg11.dtd">
<svg viewBox="0 0 909 1286" version="1.1" xmlns="http://www.w3.org/2000/svg" xmlns:xlink="http://www.w3.org/1999/xlink">
<defs>
<clipPath id="c0_121"><path d="M110.2,250.6V194.5H188v56.1Z" /></clipPath>
<clipPath id="c1_121"><path d="M110.2,329.8v-56H214.5v56Z" /></clipPath>
<clipPath id="c2_121"><path d="M275.2,493.3V331H460.3V493.3Z" /></clipPath>
<clipPath id="c3_121"><path d="M110.2,605.2V494.5H250.5V605.2Z" /></clipPath>
<clipPath id="c4_121"><path d="M114.6,704.2V605.9H262v98.3Z" /></clipPath>
<clipPath id="c5_121"><path d="M383,757.3V727.2H602.1v30.1Z" /></clipPath>
<clipPath id="c6_121"><path d="M139.1,810.9V780.7H384.6v30.2Z" /></clipPath>
<clipPath id="c7_121"><path d="M127.1,841.7V811.5h33v30.2Z" /></clipPath>
<clipPath id="c8_121"><path d="M110.2,872.5V842.3h58v30.2Z" /></clipPath>
<clipPath id="c9_121"><path d="M134,910.6V873.1H375.5v37.5Z" /></clipPath>
<clipPath id="c10_121"><path d="M110.2,1089.9v-48.7h97.2v48.7Z" /></clipPath>
<clipPath id="c11_121"><path d="M162.3,1120.7v-30.1H631.5v30.1Z" /></clipPath>
<style type="text/css"><![CDATA[
.g0_121{
fill: #D9D9D9;
}
.g1_121{
fill: none;
stroke: #000000;
stroke-width: 0.7638889;
stroke-linecap: butt;
stroke-linejoin: miter;
}
.g2_121{
fill: none;
stroke: #000000;
stroke-width: 0.8970095;
stroke-linecap: butt;
stroke-linejoin: round;
}
.g3_121{
fill: none;
stroke: #000000;
stroke-width: 0.9062973;
stroke-linecap: butt;
stroke-linejoin: round;
}
.g4_121{
fill: none;
stroke: #000000;
stroke-width: 0.9089803;
stroke-linecap: butt;
stroke-linejoin: round;
}
.g5_121{
fill: none;
stroke: #000000;
stroke-width: 0.9037496;
stroke-linecap: butt;
stroke-linejoin: round;
}
.g6_121{
fill: none;
stroke: #000000;
stroke-width: 0.9013848;
stroke-linecap: butt;
stroke-linejoin: round;
}
.g7_121{
fill: none;
stroke: #000000;
stroke-width: 0.9330659;
stroke-linecap: butt;
stroke-linejoin: round;
}
.g8_121{
}
]]></style>
</defs>
<image preserveAspectRatio="none" x="747" y="1196" width="96" height="59" xlink:href="img/1.png" />
<image preserveAspectRatio="none" x="336" y="41" width="259" height="51" xlink:href="img/2.png" />
<image preserveAspectRatio="none" x="342" y="50" width="247" height="27" xlink:href="img/3.png" />
<image preserveAspectRatio="none" x="341" y="45" width="239" height="42" xlink:href="img/4.png" />
<g fill="#FFFFFF" >
<use xlink:href="#f0_j" transform="matrix(11.5,0,0,11.5,355.1,70.1)" />
<use xlink:href="#f0_i" transform="matrix(11.5,0,0,11.5,364.3,70.1)" />
<use xlink:href="#f0_2n" transform="matrix(11.5,0,0,11.5,374.1,70.1)" />
<use xlink:href="#f0_t" transform="matrix(11.5,0,0,11.5,382.6,70.1)" />
<use xlink:href="#f0_oj" transform="matrix(11.5,0,0,11.5,391,70.1)" />
<use xlink:href="#f0_3e" transform="matrix(11.5,0,0,11.5,396.5,70.1)" />
<use xlink:href="#f0_1c" transform="matrix(11.5,0,0,11.5,406.1,70.1)" />
<use xlink:href="#f0_1c" transform="matrix(11.5,0,0,11.5,410.8,70.1)" />
<use xlink:href="#f0_oj" transform="matrix(11.5,0,0,11.5,415.6,70.1)" />
<use xlink:href="#f0_rz" transform="matrix(11.5,0,0,11.5,421.1,70.1)" />
<use xlink:href="#f0_rx" transform="matrix(11.5,0,0,11.5,429.9,70.1)" />
<use xlink:href="#f0_ry" transform="matrix(11.5,0,0,11.5,438.7,70.1)" />
<use xlink:href="#f0_s6" transform="matrix(11.5,0,0,11.5,447.5,70.1)" />
<use xlink:href="#f0_t" transform="matrix(11.5,0,0,11.5,460.4,70.1)" />
<use xlink:href="#f0_3e" transform="matrix(11.5,0,0,11.5,468.8,70.1)" />
<use xlink:href="#f0_5" transform="matrix(11.5,0,0,11.5,478.3,70.1)" />
<use xlink:href="#f0_1x" transform="matrix(11.5,0,0,11.5,489,70.1)" />
<use xlink:href="#f0_1c" transform="matrix(11.5,0,0,11.5,504.4,70.1)" />
<use xlink:href="#f0_1y" transform="matrix(11.5,0,0,11.5,509.1,70.1)" />
<use xlink:href="#f0_5" transform="matrix(11.5,0,0,11.5,520.8,70.1)" />
<use xlink:href="#f0_2t" transform="matrix(11.5,0,0,11.5,531.5,70.1)" />
<use xlink:href="#f0_1c" transform="matrix(11.5,0,0,11.5,540.2,70.1)" />
<use xlink:href="#f0_24" transform="matrix(11.5,0,0,11.5,545,70.1)" />
<use xlink:href="#f0_1y" transform="matrix(11.5,0,0,11.5,556.7,70.1)" />
</g>
<image preserveAspectRatio="none" x="554" y="45" width="36" height="42" xlink:href="img/5.png" />
<g fill="#FFFFFF" >
<use xlink:href="#f1_n" transform="matrix(11,0,0,11,770.3,1227.6)" />
<use xlink:href="#f1_j" transform="matrix(11,0,0,11,783.5,1227.6)" />
<use xlink:href="#f1_m" transform="matrix(11,0,0,11,794.1,1227.6)" />
<use xlink:href="#f1_p" transform="matrix(11,0,0,11,802.9,1227.6)" />
</g>
<path fill-rule="evenodd" d="M52.8,1193.5H856.9v-.8H52.8v.8Z" class="g0_121" />
<path d="M37.9,99.4L873,98.5" class="g1_121" />
<g fill="#000000" >
<use xlink:href="#f2_x" transform="matrix(12,0,0,12,110,144.1)" />
<use xlink:href="#f2_2k" transform="matrix(12,0,0,12,125.1,144.1)" />
<use xlink:href="#f2_2f" transform="matrix(12,0,0,12,138.6,144.1)" />
<use xlink:href="#f2_25" transform="matrix(12,0,0,12,145.9,144.1)" />
<use xlink:href="#f2_2a" transform="matrix(12,0,0,12,150.7,144.1)" />
<use xlink:href="#f2_2k" transform="matrix(12,0,0,12,164.6,144.1)" />
<use xlink:href="#f2_11" transform="matrix(12,0,0,12,178.5,144.1)" />
<use xlink:href="#f2_2a" transform="matrix(12,0,0,12,191.7,144.1)" />
<use xlink:href="#f2_2f" transform="matrix(12,0,0,12,200.5,144.1)" />
<use xlink:href="#f2_i" transform="matrix(12,0,0,12,207.5,144.1)" />
<use xlink:href="#f2_r" transform="matrix(12,0,0,12,55,189.6)" />
<use xlink:href="#f2_i" transform="matrix(12,0,0,12,64.2,189.6)" />
<use xlink:href="#f2_15" transform="matrix(12,0,0,12,110,189.6)" />
<use xlink:href="#f2_2i" transform="matrix(12,0,0,12,121.4,189.6)" />
<use xlink:href="#f2_1x" transform="matrix(12,0,0,12,130.2,189.6)" />
<use xlink:href="#f2_28" transform="matrix(12,0,0,12,138.6,189.6)" />
<use xlink:href="#f2_2h" transform="matrix(12,0,0,12,143.4,189.6)" />
<use xlink:href="#f2_1x" transform="matrix(12,0,0,12,152.5,189.6)" />
<use xlink:href="#f2_2g" transform="matrix(12,0,0,12,160.6,189.6)" />
<use xlink:href="#f2_21" transform="matrix(12,0,0,12,166.1,189.6)" />
<use xlink:href="#f2_u" transform="matrix(12,0,0,12,178.9,189.6)" />
</g>
<path d="M123.7,223.3h42.2" class="g2_121" />
<g clip-path="url(#c0_121)">
<g fill="#000000" >
<use xlink:href="#f2_o" transform="matrix(7.2,0,0,7.1,114.4,206.8)" />
<use xlink:href="#f2_m" transform="matrix(7.2,0,0,7.1,134.8,234.3)" />
<use xlink:href="#f2_m" transform="matrix(7.2,0,0,7.1,114.4,247.9)" />
<use xlink:href="#f2_l" transform="matrix(12.5,0,0,12.3,157.6,242.6)" />
<use xlink:href="#f3_2k" transform="matrix(12.5,0,0,12.3,141.2,216.1)" />
<use xlink:href="#f3_20" transform="matrix(12.5,0,0,12.3,165.6,228)" />
<use xlink:href="#f3_2k" transform="matrix(12.5,0,0,12.3,174.9,228)" />
<use xlink:href="#f3_2k" transform="matrix(12.5,0,0,12.3,125.7,242.6)" />
<use xlink:href="#f4_f" transform="matrix(12.5,0,0,12.3,145.5,242.6)" />
<use xlink:href="#f4_50" transform="matrix(18.7,0,0,18.4,113.2,234.6)" />
</g>
</g>
<g fill="#000000" >
<use xlink:href="#f5_1j" transform="matrix(12,0,0,12,55,268.8)" />
<use xlink:href="#f5_2b" transform="matrix(12,0,0,12,65.3,268.8)" />
<use xlink:href="#f5_28" transform="matrix(12,0,0,12,74.5,268.8)" />
<use xlink:href="#f5_2h" transform="matrix(12,0,0,12,79.2,268.8)" />
<use xlink:href="#f5_2g" transform="matrix(12,0,0,12,89.5,268.8)" />
<use xlink:href="#f5_25" transform="matrix(12,0,0,12,95.7,268.8)" />
<use xlink:href="#f5_2b" transform="matrix(12,0,0,12,100.8,268.8)" />
<use xlink:href="#f5_2a" transform="matrix(12,0,0,12,109.9,268.8)" />
<use xlink:href="#f5_u" transform="matrix(12,0,0,12,120.2,268.8)" />
</g>
<path d="M150.9,302.5h41.7" class="g3_121" />
<g clip-path="url(#c1_121)">
<g fill="#000000" >
<use xlink:href="#f2_o" transform="matrix(7.3,0,0,7.1,141.8,286)" />
<use xlink:href="#f2_m" transform="matrix(7.3,0,0,7.1,161.8,313.5)" />
<use xlink:href="#f2_m" transform="matrix(7.3,0,0,7.1,141.8,327.1)" />
<use xlink:href="#f2_l" transform="matrix(12.6,0,0,12.3,184.3,321.8)" />
<use xlink:href="#f3_2k" transform="matrix(12.6,0,0,12.3,168.1,295.3)" />
<use xlink:href="#f3_19" transform="matrix(12.6,0,0,12.3,113.5,307.2)" />
<use xlink:href="#f3_20" transform="matrix(12.6,0,0,12.3,192.3,307.2)" />
<use xlink:href="#f3_2k" transform="matrix(12.6,0,0,12.3,201.4,307.2)" />
<use xlink:href="#f3_2k" transform="matrix(12.6,0,0,12.3,152.9,321.8)" />
<use xlink:href="#f4_x" transform="matrix(12.6,0,0,12.3,125.9,307.2)" />
<use xlink:href="#f4_f" transform="matrix(12.6,0,0,12.3,172.4,321.8)" />
<use xlink:href="#f4_50" transform="matrix(18.9,0,0,18.4,140.6,313.8)" />
</g>
</g>
<g fill="#000000" >
<use xlink:href="#f2_1g" transform="matrix(12,0,0,12,110,432)" />
<use xlink:href="#f2_2h" transform="matrix(12,0,0,12,120.3,432)" />
<use xlink:href="#f2_2g" transform="matrix(12,0,0,12,129.5,432)" />
<use xlink:href="#f2_2k" transform="matrix(12,0,0,12,139.4,432)" />
<use xlink:href="#f2_m" transform="matrix(7.9,0,0,7.9,148.2,425.1)" />
<use xlink:href="#f2_f" transform="matrix(12,0,0,12,154.4,432)" />
<use xlink:href="#f2_l" transform="matrix(12,0,0,12,164.7,432)" />
<use xlink:href="#f2_x" transform="matrix(12,0,0,12,173.9,432)" />
<use xlink:href="#f2_2g" transform="matrix(12,0,0,12,184.1,432)" />
</g>
<path d="M332.2,414.8h10.9" class="g4_121" />
<g clip-path="url(#c2_121)">
<g fill="#000000" >
<use xlink:href="#f2_m" transform="matrix(12.2,0,0,12.2,447.1,349.6)" />
<use xlink:href="#f2_p" transform="matrix(12.2,0,0,12.2,435.3,377.1)" />
<use xlink:href="#f2_m" transform="matrix(12.2,0,0,12.2,299.9,380.1)" />
<use xlink:href="#f2_o" transform="matrix(12.2,0,0,12.2,447.1,404.5)" />
<use xlink:href="#f2_l" transform="matrix(12.2,0,0,12.2,333.1,407.6)" />
<use xlink:href="#f2_l" transform="matrix(12.2,0,0,12.2,429.7,432)" />
<use xlink:href="#f2_r" transform="matrix(12.2,0,0,12.2,438.9,432)" />
<use xlink:href="#f2_m" transform="matrix(12.2,0,0,12.2,333.4,433.9)" />
<use xlink:href="#f3_1x" transform="matrix(12.2,0,0,12.2,399.3,349.6)" />
<use xlink:href="#f3_2g" transform="matrix(12.2,0,0,12.2,408.5,349.6)" />
<use xlink:href="#f3_2k" transform="matrix(12.2,0,0,12.2,419.8,349.6)" />
<use xlink:href="#f3_2g" transform="matrix(12.2,0,0,12.2,410.9,377.1)" />
<use xlink:href="#f3_2k" transform="matrix(12.2,0,0,12.2,310.1,380.1)" />
<use xlink:href="#f3_20" transform="matrix(12.2,0,0,12.2,318.1,380.1)" />
<use xlink:href="#f3_2k" transform="matrix(12.2,0,0,12.2,327.3,380.1)" />
<use xlink:href="#f3_20" transform="matrix(12.2,0,0,12.2,354.5,380.1)" />
<use xlink:href="#f3_2g" transform="matrix(12.2,0,0,12.2,363.7,380.1)" />
<use xlink:href="#f3_1x" transform="matrix(12.2,0,0,12.2,399.3,404.5)" />
<use xlink:href="#f3_2g" transform="matrix(12.2,0,0,12.2,408.5,404.5)" />
<use xlink:href="#f3_2k" transform="matrix(12.2,0,0,12.2,419.8,404.5)" />
<use xlink:href="#f3_2k" transform="matrix(12.2,0,0,12.2,287.5,419.4)" />
<use xlink:href="#f3_20" transform="matrix(12.2,0,0,12.2,295.5,419.4)" />
<use xlink:href="#f3_2k" transform="matrix(12.2,0,0,12.2,304.7,419.4)" />
<use xlink:href="#f3_20" transform="matrix(12.2,0,0,12.2,345.8,419.4)" />
<use xlink:href="#f3_2g" transform="matrix(12.2,0,0,12.2,355,419.4)" />
<use xlink:href="#f3_2g" transform="matrix(12.2,0,0,12.2,406.7,432)" />
<use xlink:href="#f4_x" transform="matrix(12.2,0,0,12.2,432.6,349.6)" />
<use xlink:href="#f4_x" transform="matrix(12.2,0,0,12.2,421.4,377.1)" />
<use xlink:href="#f4_4g" transform="matrix(12.2,0,0,12.2,277.4,380.1)" />
<use xlink:href="#f4_x" transform="matrix(12.2,0,0,12.2,340.1,380.1)" />
<use xlink:href="#f4_x" transform="matrix(12.2,0,0,12.2,432.6,404.5)" />
<use xlink:href="#f4_x" transform="matrix(12.2,0,0,12.2,317.5,419.4)" />
<use xlink:href="#f4_x" transform="matrix(12.2,0,0,12.2,417.2,432)" />
</g>
</g>
<path d="M167.7,522.6h29.8m-37.6,56.1h10.9m37,-10.9v21.7m9.7,-21.7v21.7" class="g5_121" />
<g clip-path="url(#c3_121)">
<g fill="#000000" >
<use xlink:href="#f2_l" transform="matrix(7,0,0,7,154.4,506.3)" />
<use xlink:href="#f2_r" transform="matrix(7,0,0,7,159.7,506.3)" />
<use xlink:href="#f2_o" transform="matrix(7,0,0,7,157.7,546.8)" />
<use xlink:href="#f2_l" transform="matrix(12.1,0,0,12.1,166.9,515.5)" />
<use xlink:href="#f2_j" transform="matrix(12.1,0,0,12.1,178.3,515.5)" />
<use xlink:href="#f2_m" transform="matrix(12.1,0,0,12.1,187.7,515.5)" />
<use xlink:href="#f2_l" transform="matrix(12.1,0,0,12.1,227.8,569.8)" />
<use xlink:href="#f2_r" transform="matrix(12.1,0,0,12.1,237,569.8)" />
<use xlink:href="#f2_l" transform="matrix(12.1,0,0,12.1,160.7,571.5)" />
<use xlink:href="#f2_28" transform="matrix(12.1,0,0,12.1,181.4,583.2)" />
<use xlink:href="#f2_2b" transform="matrix(12.1,0,0,12.1,186.2,583.2)" />
<use xlink:href="#f2_23" transform="matrix(12.1,0,0,12.1,195.4,583.2)" />
<use xlink:href="#f2_o" transform="matrix(12.1,0,0,12.1,233.5,597.2)" />
<use xlink:href="#f2_m" transform="matrix(12.1,0,0,12.1,161,597.6)" />
<use xlink:href="#f3_19" transform="matrix(12.1,0,0,12.1,128.3,527.1)" />
<use xlink:href="#f3_20" transform="matrix(12.1,0,0,12.1,197.2,527.1)" />
<use xlink:href="#f3_2g" transform="matrix(12.1,0,0,12.1,206.4,527.1)" />
<use xlink:href="#f3_2g" transform="matrix(12.1,0,0,12.1,179.5,541.5)" />
<use xlink:href="#f3_2g" transform="matrix(12.1,0,0,12.1,209.9,583.2)" />
<use xlink:href="#f4_1s" transform="matrix(12.1,0,0,12.1,110.1,527.1)" />
<use xlink:href="#f4_x" transform="matrix(12.1,0,0,12.1,140.9,527.1)" />
<use xlink:href="#f4_x" transform="matrix(12.1,0,0,12.1,145.1,583.2)" />
<use xlink:href="#f4_4r" transform="matrix(12.1,0,0,12.1,173.8,583.2)" />
<use xlink:href="#f4_57" transform="matrix(12.1,0,0,12.1,220.1,583.2)" />
<use xlink:href="#f4_4t" transform="matrix(12.1,0,0,12.1,173.8,589.5)" />
<use xlink:href="#f4_59" transform="matrix(12.1,0,0,12.1,220.2,589.5)" />
<use xlink:href="#f4_50" transform="matrix(18.1,0,0,18.2,156.5,533.7)" />
</g>
</g>
<path d="M132.2,631.6h10.9" class="g6_121" />
<g clip-path="url(#c4_121)">
<g fill="#000000" >
<use xlink:href="#f4_1r" transform="matrix(11.8,0,0,16.4,144.7,637.6)" />
<use xlink:href="#f4_1t" transform="matrix(11.8,0,0,16.4,250.5,637.6)" />
</g>
</g>
<path d="M132.2,680.6h10.9" class="g6_121" />
<g clip-path="url(#c4_121)">
<g fill="#000000" >
<use xlink:href="#f4_c" transform="matrix(11.8,0,0,15.8,170.7,686.5)" />
<use xlink:href="#f4_d" transform="matrix(11.8,0,0,15.8,218.2,686.5)" />
<use xlink:href="#f2_l" transform="matrix(12,0,0,12.1,133.1,624.5)" />
<use xlink:href="#f2_28" transform="matrix(12,0,0,12.1,151.4,636.2)" />
<use xlink:href="#f2_2b" transform="matrix(12,0,0,12.1,156.3,636.2)" />
<use xlink:href="#f2_23" transform="matrix(12,0,0,12.1,165.5,636.2)" />
<use xlink:href="#f2_l" transform="matrix(12,0,0,12.1,177.4,636.2)" />
<use xlink:href="#f2_r" transform="matrix(12,0,0,12.1,186.6,636.2)" />
<use xlink:href="#f2_28" transform="matrix(12,0,0,12.1,212.9,636.2)" />
<use xlink:href="#f2_2b" transform="matrix(12,0,0,12.1,217.8,636.2)" />
<use xlink:href="#f2_23" transform="matrix(12,0,0,12.1,227,636.2)" />
<use xlink:href="#f2_o" transform="matrix(12,0,0,12.1,240.9,636.2)" />
<use xlink:href="#f2_m" transform="matrix(12,0,0,12.1,133.3,650.5)" />
<use xlink:href="#f2_l" transform="matrix(12,0,0,12.1,133.1,673.5)" />
<use xlink:href="#f2_28" transform="matrix(12,0,0,12.1,145.6,685.1)" />
<use xlink:href="#f2_2b" transform="matrix(12,0,0,12.1,150.4,685.1)" />
<use xlink:href="#f2_23" transform="matrix(12,0,0,12.1,159.6,685.1)" />
<use xlink:href="#f2_l" transform="matrix(12,0,0,12.1,176.3,685.1)" />
<use xlink:href="#f2_r" transform="matrix(12,0,0,12.1,185.5,685.1)" />
<use xlink:href="#f2_j" transform="matrix(12,0,0,12.1,198.6,685.1)" />
<use xlink:href="#f2_o" transform="matrix(12,0,0,12.1,208,685.1)" />
<use xlink:href="#f2_i" transform="matrix(12,0,0,12.1,254.8,685.1)" />
<use xlink:href="#f2_m" transform="matrix(12,0,0,12.1,133.3,699.5)" />
<use xlink:href="#f3_11" transform="matrix(12,0,0,12.1,227.6,685.1)" />
<use xlink:href="#f3_2a" transform="matrix(12,0,0,12.1,238.8,685.1)" />
<use xlink:href="#f3_2f" transform="matrix(12,0,0,12.1,247.9,685.1)" />
<use xlink:href="#f4_x" transform="matrix(12,0,0,12.1,117.4,636.2)" />
<use xlink:href="#f4_h" transform="matrix(12,0,0,12.1,199.5,636.2)" />
<use xlink:href="#f4_x" transform="matrix(12,0,0,12.1,117.4,685.1)" />
</g>
</g>
<g fill="#000000" >
<use xlink:href="#f5_s" transform="matrix(12,0,0,12,55,749.7)" />
<use xlink:href="#f5_i" transform="matrix(12,0,0,12,64.2,749.7)" />
<use xlink:href="#f2_16" transform="matrix(12,0,0,12,73.7,749.7)" />
<use xlink:href="#f2_25" transform="matrix(12,0,0,12,84,749.7)" />
<use xlink:href="#f2_2a" transform="matrix(12,0,0,12,88.8,749.7)" />
<use xlink:href="#f2_20" transform="matrix(12,0,0,12,97.6,749.7)" />
<use xlink:href="#f2_2g" transform="matrix(12,0,0,12,111.5,749.7)" />
<use xlink:href="#f2_24" transform="matrix(12,0,0,12,116.9,749.7)" />
<use xlink:href="#f2_21" transform="matrix(12,0,0,12,125.7,749.7)" />
<use xlink:href="#f2_2i" transform="matrix(12,0,0,12,138.6,749.7)" />
<use xlink:href="#f2_1x" transform="matrix(12,0,0,12,147.4,749.7)" />
<use xlink:href="#f2_28" transform="matrix(12,0,0,12,155.8,749.7)" />
<use xlink:href="#f2_2h" transform="matrix(12,0,0,12,160.5,749.7)" />
<use xlink:href="#f2_21" transform="matrix(12,0,0,12,169.7,749.7)" />
<use xlink:href="#f2_2b" transform="matrix(12,0,0,12,182.5,749.7)" />
<use xlink:href="#f2_22" transform="matrix(12,0,0,12,192,749.7)" />
<use xlink:href="#f2_b" transform="matrix(12,0,0,12,202.7,749.7)" />
<use xlink:href="#f2_2c" transform="matrix(12,0,0,12,205.6,749.7)" />
<use xlink:href="#f2_b" transform="matrix(12,0,0,12,215.1,749.7)" />
<use xlink:href="#f2_22" transform="matrix(12,0,0,12,223.2,749.7)" />
<use xlink:href="#f2_2b" transform="matrix(12,0,0,12,228.7,749.7)" />
<use xlink:href="#f2_2e" transform="matrix(12,0,0,12,238.2,749.7)" />
<use xlink:href="#f2_2j" transform="matrix(12,0,0,12,249.1,749.7)" />
<use xlink:href="#f2_24" transform="matrix(12,0,0,12,262.4,749.7)" />
<use xlink:href="#f2_25" transform="matrix(12,0,0,12,271.5,749.7)" />
<use xlink:href="#f2_1z" transform="matrix(12,0,0,12,275.9,749.7)" />
<use xlink:href="#f2_24" transform="matrix(12,0,0,12,284.3,749.7)" />
<use xlink:href="#f2_2g" transform="matrix(12,0,0,12,297.9,749.7)" />
<use xlink:href="#f2_24" transform="matrix(12,0,0,12,303.3,749.7)" />
<use xlink:href="#f2_21" transform="matrix(12,0,0,12,312.1,749.7)" />
<use xlink:href="#f2_2i" transform="matrix(12,0,0,12,325,749.7)" />
<use xlink:href="#f2_21" transform="matrix(12,0,0,12,333.8,749.7)" />
<use xlink:href="#f2_1z" transform="matrix(12,0,0,12,342.2,749.7)" />
<use xlink:href="#f2_2g" transform="matrix(12,0,0,12,350.2,749.7)" />
<use xlink:href="#f2_2b" transform="matrix(12,0,0,12,355.3,749.7)" />
<use xlink:href="#f2_2e" transform="matrix(12,0,0,12,364.9,749.7)" />
<use xlink:href="#f2_2f" transform="matrix(12,0,0,12,371.1,749.7)" />
</g>
<g clip-path="url(#c5_121)">
<g fill="#000000" >
<use xlink:href="#f6_5z" transform="matrix(12.9,0,0,12.3,467.1,744.4)" />
<use xlink:href="#f6_5z" transform="matrix(12.9,0,0,12.3,591.8,744.4)" />
<use xlink:href="#f6_5z" transform="matrix(12.9,0,0,12.3,394.8,745.9)" />
<use xlink:href="#f6_5z" transform="matrix(12.9,0,0,12.3,430.9,745.9)" />
<use xlink:href="#f6_5z" transform="matrix(12.9,0,0,12.3,512.2,745.9)" />
<use xlink:href="#f6_5z" transform="matrix(12.9,0,0,12.3,556,745.9)" />
<use xlink:href="#f2_n" transform="matrix(12.9,0,0,12.3,385.2,749.9)" />
<use xlink:href="#f2_m" transform="matrix(12.9,0,0,12.3,418.5,749.9)" />
<use xlink:href="#f2_t" transform="matrix(12.9,0,0,12.3,454.4,749.9)" />
<use xlink:href="#f2_m" transform="matrix(12.9,0,0,12.3,535.7,749.9)" />
<use xlink:href="#f2_n" transform="matrix(12.9,0,0,12.3,579.5,749.9)" />
<use xlink:href="#f3_25" transform="matrix(12.9,0,0,12.3,393.5,749.9)" />
<use xlink:href="#f3_26" transform="matrix(12.9,0,0,12.3,431.5,749.9)" />
<use xlink:href="#f3_27" transform="matrix(12.9,0,0,12.3,463.9,749.9)" />
<use xlink:href="#f3_1x" transform="matrix(12.9,0,0,12.3,477.8,749.9)" />
<use xlink:href="#f3_2a" transform="matrix(12.9,0,0,12.3,487,749.9)" />
<use xlink:href="#f3_20" transform="matrix(12.9,0,0,12.3,496.2,749.9)" />
<use xlink:href="#f3_25" transform="matrix(12.9,0,0,12.3,511,749.9)" />
<use xlink:href="#f3_2c" transform="matrix(12.9,0,0,12.3,547.5,749.9)" />
<use xlink:href="#f3_26" transform="matrix(12.9,0,0,12.3,556.7,749.9)" />
<use xlink:href="#f3_27" transform="matrix(12.9,0,0,12.3,588.5,749.9)" />
<use xlink:href="#f4_f" transform="matrix(12.9,0,0,12.3,404.5,749.9)" />
<use xlink:href="#f4_f" transform="matrix(12.9,0,0,12.3,440.9,749.9)" />
<use xlink:href="#f4_h" transform="matrix(12.9,0,0,12.3,522,749.9)" />
<use xlink:href="#f4_f" transform="matrix(12.9,0,0,12.3,566.1,749.9)" />
</g>
</g>
<g fill="#000000" >
<use xlink:href="#f2_1x" transform="matrix(12,0,0,12,601.2,749.7)" />
<use xlink:href="#f2_2e" transform="matrix(12,0,0,12,609.2,749.7)" />
<use xlink:href="#f2_21" transform="matrix(12,0,0,12,615.5,749.7)" />
<use xlink:href="#f2_2c" transform="matrix(12,0,0,12,628.3,749.7)" />
<use xlink:href="#f2_1x" transform="matrix(12,0,0,12,637.4,749.7)" />
<use xlink:href="#f2_2e" transform="matrix(12,0,0,12,645.5,749.7)" />
<use xlink:href="#f2_1x" transform="matrix(12,0,0,12,651.7,749.7)" />
<use xlink:href="#f2_28" transform="matrix(12,0,0,12,660.1,749.7)" />
<use xlink:href="#f2_28" transform="matrix(12,0,0,12,664.9,749.7)" />
<use xlink:href="#f2_21" transform="matrix(12,0,0,12,669.7,749.7)" />
<use xlink:href="#f2_28" transform="matrix(12,0,0,12,678.1,749.7)" />
<use xlink:href="#f2_i" transform="matrix(12,0,0,12,682.5,749.7)" />
<use xlink:href="#f5_1j" transform="matrix(12,0,0,12,55,776.4)" />
<use xlink:href="#f5_2b" transform="matrix(12,0,0,12,65.3,776.4)" />
<use xlink:href="#f5_28" transform="matrix(12,0,0,12,74.5,776.4)" />
<use xlink:href="#f5_2h" transform="matrix(12,0,0,12,79.2,776.4)" />
<use xlink:href="#f5_2g" transform="matrix(12,0,0,12,89.5,776.4)" />
<use xlink:href="#f5_25" transform="matrix(12,0,0,12,95.7,776.4)" />
<use xlink:href="#f5_2b" transform="matrix(12,0,0,12,100.8,776.4)" />
<use xlink:href="#f5_2a" transform="matrix(12,0,0,12,109.9,776.4)" />
<use xlink:href="#f5_u" transform="matrix(12,0,0,12,120.2,776.4)" />
<use xlink:href="#f2_1c" transform="matrix(12,0,0,12,110,803.2)" />
<use xlink:href="#f2_21" transform="matrix(12,0,0,12,121,803.2)" />
<use xlink:href="#f2_2g" transform="matrix(12,0,0,12,129.1,803.2)" />
</g>
<g clip-path="url(#c6_121)">
<g fill="#000000" >
<use xlink:href="#f6_5z" transform="matrix(13,0,0,12.3,251.6,798)" />
<use xlink:href="#f6_5z" transform="matrix(13,0,0,12.3,374.4,798)" />
<use xlink:href="#f6_5z" transform="matrix(13,0,0,12.3,179.4,799.4)" />
<use xlink:href="#f6_5z" transform="matrix(13,0,0,12.3,215.5,799.4)" />
<use xlink:href="#f6_5z" transform="matrix(13,0,0,12.3,295,799.4)" />
<use xlink:href="#f6_5z" transform="matrix(13,0,0,12.3,338.8,799.4)" />
<use xlink:href="#f2_n" transform="matrix(13,0,0,12.3,169.8,803.4)" />
<use xlink:href="#f2_m" transform="matrix(13,0,0,12.3,203.2,803.4)" />
<use xlink:href="#f2_t" transform="matrix(13,0,0,12.3,239,803.4)" />
<use xlink:href="#f2_g" transform="matrix(13,0,0,12.3,257.9,803.4)" />
<use xlink:href="#f2_m" transform="matrix(13,0,0,12.3,318.4,803.4)" />
<use xlink:href="#f2_n" transform="matrix(13,0,0,12.3,362.3,803.4)" />
<use xlink:href="#f3_1x" transform="matrix(13,0,0,12.3,141.9,803.4)" />
<use xlink:href="#f3_25" transform="matrix(13,0,0,12.3,178.1,803.4)" />
<use xlink:href="#f3_26" transform="matrix(13,0,0,12.3,216.1,803.4)" />
<use xlink:href="#f3_27" transform="matrix(13,0,0,12.3,248.4,803.4)" />
<use xlink:href="#f3_1y" transform="matrix(13,0,0,12.3,266.1,803.4)" />
<use xlink:href="#f3_25" transform="matrix(13,0,0,12.3,293.6,803.4)" />
<use xlink:href="#f3_2c" transform="matrix(13,0,0,12.3,330.1,803.4)" />
<use xlink:href="#f3_26" transform="matrix(13,0,0,12.3,339.3,803.4)" />
<use xlink:href="#f3_27" transform="matrix(13,0,0,12.3,371.1,803.4)" />
<use xlink:href="#f4_x" transform="matrix(13,0,0,12.3,155.8,803.4)" />
<use xlink:href="#f4_f" transform="matrix(13,0,0,12.3,189.1,803.4)" />
<use xlink:href="#f4_f" transform="matrix(13,0,0,12.3,225.5,803.4)" />
<use xlink:href="#f4_x" transform="matrix(13,0,0,12.3,279.7,803.4)" />
<use xlink:href="#f4_h" transform="matrix(13,0,0,12.3,304.7,803.4)" />
<use xlink:href="#f4_f" transform="matrix(13,0,0,12.3,348.8,803.4)" />
</g>
</g>
<image preserveAspectRatio="none" x="143" y="766" width="241" height="32" xlink:href="img/6.png" />
<g fill="#000000" >
<use xlink:href="#f2_19" transform="matrix(12,0,0,12,110,834)" />
<use xlink:href="#f2_22" transform="matrix(12,0,0,12,116.3,834)" />
</g>
<g clip-path="url(#c7_121)">
<g fill="#000000" >
<use xlink:href="#f2_g" transform="matrix(12.8,0,0,12.3,139,834.3)" />
<use xlink:href="#f3_1x" transform="matrix(12.8,0,0,12.3,129.8,834.3)" />
<use xlink:href="#f3_1y" transform="matrix(12.8,0,0,12.3,147.1,834.3)" />
</g>
</g>
<image preserveAspectRatio="none" x="131" y="797" width="80" height="32" xlink:href="img/7.png" />
<g fill="#000000" >
<use xlink:href="#f2_1x" transform="matrix(12,0,0,12,159.2,834)" />
<use xlink:href="#f2_2e" transform="matrix(12,0,0,12,167.3,834)" />
<use xlink:href="#f2_21" transform="matrix(12,0,0,12,173.5,834)" />
<use xlink:href="#f2_2c" transform="matrix(12,0,0,12,186.3,834)" />
<use xlink:href="#f2_1x" transform="matrix(12,0,0,12,195.5,834)" />
<use xlink:href="#f2_2e" transform="matrix(12,0,0,12,203.5,834)" />
<use xlink:href="#f2_1x" transform="matrix(12,0,0,12,209.8,834)" />
<use xlink:href="#f2_28" transform="matrix(12,0,0,12,217.8,834)" />
<use xlink:href="#f2_28" transform="matrix(12,0,0,12,222.6,834)" />
<use xlink:href="#f2_21" transform="matrix(12,0,0,12,227.4,834)" />
<use xlink:href="#f2_28" transform="matrix(12,0,0,12,235.8,834)" />
<use xlink:href="#f2_2i" transform="matrix(12,0,0,12,245.7,834)" />
<use xlink:href="#f2_21" transform="matrix(12,0,0,12,254.5,834)" />
<use xlink:href="#f2_1z" transform="matrix(12,0,0,12,262.5,834)" />
<use xlink:href="#f2_2g" transform="matrix(12,0,0,12,270.6,834)" />
<use xlink:href="#f2_2b" transform="matrix(12,0,0,12,276.1,834)" />
<use xlink:href="#f2_2e" transform="matrix(12,0,0,12,285.6,834)" />
<use xlink:href="#f2_2g" transform="matrix(12,0,0,12,295.8,834)" />
<use xlink:href="#f2_24" transform="matrix(12,0,0,12,301.3,834)" />
<use xlink:href="#f2_21" transform="matrix(12,0,0,12,310.1,834)" />
<use xlink:href="#f2_2a" transform="matrix(12,0,0,12,318.2,834)" />
<use xlink:href="#f2_2g" transform="matrix(12,0,0,12,331.7,834)" />
<use xlink:href="#f2_24" transform="matrix(12,0,0,12,337.2,834)" />
<use xlink:href="#f2_21" transform="matrix(12,0,0,12,346,834)" />
<use xlink:href="#f2_25" transform="matrix(12,0,0,12,354.4,834)" />
<use xlink:href="#f2_2e" transform="matrix(12,0,0,12,358.8,834)" />
<use xlink:href="#f2_21" transform="matrix(12,0,0,12,369.8,834)" />
<use xlink:href="#f2_2k" transform="matrix(12,0,0,12,378.2,834)" />
<use xlink:href="#f2_25" transform="matrix(12,0,0,12,387.4,834)" />
<use xlink:href="#f2_2f" transform="matrix(12,0,0,12,392.2,834)" />
<use xlink:href="#f2_2g" transform="matrix(12,0,0,12,399.1,834)" />
<use xlink:href="#f2_1x" transform="matrix(12,0,0,12,409.3,834)" />
<use xlink:href="#f2_g" transform="matrix(12,0,0,12,417.4,834)" />
<use xlink:href="#f6_f1" transform="matrix(12,0,0,12,427.3,834)" />
<use xlink:href="#f2_2f" transform="matrix(12,0,0,12,440.9,834)" />
<use xlink:href="#f2_2h" transform="matrix(12,0,0,12,447.9,834)" />
<use xlink:href="#f2_1z" transform="matrix(12,0,0,12,457.1,834)" />
<use xlink:href="#f2_24" transform="matrix(12,0,0,12,465.1,834)" />
<use xlink:href="#f2_2g" transform="matrix(12,0,0,12,478.7,834)" />
<use xlink:href="#f2_24" transform="matrix(12,0,0,12,484.1,834)" />
<use xlink:href="#f2_1x" transform="matrix(12,0,0,12,492.9,834)" />
<use xlink:href="#f2_2g" transform="matrix(12,0,0,12,501,834)" />
</g>
<g clip-path="url(#c8_121)">
<g fill="#000000" >
<use xlink:href="#f3_1x" transform="matrix(12.7,0,0,12.3,112.9,865.1)" />
<use xlink:href="#f3_1y" transform="matrix(12.7,0,0,12.3,156,865.1)" />
<use xlink:href="#f4_28" transform="matrix(12.7,0,-4.2,12.3,141,865.1)" />
<use xlink:href="#f4_x" transform="matrix(12.7,0,0,12.3,126.8,865.1)" />
</g>
</g>
<image preserveAspectRatio="none" x="114" y="827" width="119" height="33" xlink:href="img/8.png" />
<g fill="#000000" >
<use xlink:href="#f2_1j" transform="matrix(12,0,0,12,110,896.8)" />
<use xlink:href="#f2_2b" transform="matrix(12,0,0,12,120.3,896.8)" />
</g>
<g clip-path="url(#c9_121)">
<g fill="#000000" >
<use xlink:href="#f4_c" transform="matrix(12.6,0,0,22.2,136.2,900.6)" />
<use xlink:href="#f4_d" transform="matrix(12.6,0,0,22.2,232.1,900.6)" />
<use xlink:href="#f4_c" transform="matrix(12.6,0,0,22.2,271.5,900.6)" />
<use xlink:href="#f4_d" transform="matrix(12.6,0,0,22.2,366.3,900.6)" />
<use xlink:href="#f6_5z" transform="matrix(12.8,0,0,12.2,224.7,891.8)" />
<use xlink:href="#f6_5z" transform="matrix(12.8,0,0,12.2,358.8,891.8)" />
<use xlink:href="#f6_5z" transform="matrix(12.8,0,0,12.2,152.7,893.2)" />
<use xlink:href="#f6_5z" transform="matrix(12.8,0,0,12.2,188.7,893.2)" />
<use xlink:href="#f6_5z" transform="matrix(12.8,0,0,12.2,279.8,893.2)" />
<use xlink:href="#f6_5z" transform="matrix(12.8,0,0,12.2,323.4,893.2)" />
<use xlink:href="#f2_n" transform="matrix(12.8,0,0,12.2,143.2,897.2)" />
<use xlink:href="#f2_m" transform="matrix(12.8,0,0,12.2,176.4,897.2)" />
<use xlink:href="#f2_t" transform="matrix(12.8,0,0,12.2,212,897.2)" />
<use xlink:href="#f2_m" transform="matrix(12.8,0,0,12.2,303.1,897.2)" />
<use xlink:href="#f2_n" transform="matrix(12.8,0,0,12.2,346.8,897.2)" />
<use xlink:href="#f3_25" transform="matrix(12.8,0,0,12.2,151.4,897.2)" />
<use xlink:href="#f3_26" transform="matrix(12.8,0,0,12.2,189.2,897.2)" />
<use xlink:href="#f3_27" transform="matrix(12.8,0,0,12.2,221.4,897.2)" />
<use xlink:href="#f3_25" transform="matrix(12.8,0,0,12.2,278.4,897.2)" />
<use xlink:href="#f3_2c" transform="matrix(12.8,0,0,12.2,314.8,897.2)" />
<use xlink:href="#f3_26" transform="matrix(12.8,0,0,12.2,323.9,897.2)" />
<use xlink:href="#f3_27" transform="matrix(12.8,0,0,12.2,355.6,897.2)" />
<use xlink:href="#f4_28" transform="matrix(12.8,0,-4.3,12.2,256.5,897.2)" />
<use xlink:href="#f4_f" transform="matrix(12.8,0,0,12.2,162.4,897.2)" />
<use xlink:href="#f4_f" transform="matrix(12.8,0,0,12.2,198.6,897.2)" />
<use xlink:href="#f4_x" transform="matrix(12.8,0,0,12.2,242.3,897.2)" />
<use xlink:href="#f4_h" transform="matrix(12.8,0,0,12.2,289.4,897.2)" />
<use xlink:href="#f4_f" transform="matrix(12.8,0,0,12.2,333.3,897.2)" />
</g>
</g>
<g fill="#000000" >
<use xlink:href="#f2_2c" transform="matrix(12,0,0,12,59.8,1014.1)" />
<use xlink:href="#f2_2h" transform="matrix(12,0,0,12,69,1014.1)" />
<use xlink:href="#f2_2g" transform="matrix(12,0,0,12,77.8,1014.1)" />
<use xlink:href="#f6_f1" transform="matrix(12,0,0,12,88,1014.1)" />
<use xlink:href="#f2_x" transform="matrix(12,0,0,12,101.6,1014.1)" />
<use xlink:href="#f2_n" transform="matrix(12,0,0,12,116.3,1014.1)" />
<use xlink:href="#f2_25" transform="matrix(12,0,0,12,130.2,1014.1)" />
<use xlink:href="#f2_2a" transform="matrix(12,0,0,12,134.9,1014.1)" />
<use xlink:href="#f2_m" transform="matrix(12,0,0,12,148.5,1014.1)" />
<use xlink:href="#f2_x" transform="matrix(12,0,0,12,157.6,1014.1)" />
<use xlink:href="#f6_4y" transform="matrix(12,0,0,12,172.8,1014.1)" />
<use xlink:href="#f2_m" transform="matrix(12,0,0,12,181.9,1014.1)" />
<use xlink:href="#f2_2c" transform="matrix(12,0,0,12,191.1,1014.1)" />
<use xlink:href="#f6_f1" transform="matrix(12,0,0,12,200.3,1014.1)" />
<use xlink:href="#f2_m" transform="matrix(12,0,0,12,114.8,1036.9)" />
<use xlink:href="#f2_x" transform="matrix(12,0,0,12,128.7,1036.9)" />
<use xlink:href="#f6_4y" transform="matrix(12,0,0,12,143.8,1036.9)" />
<use xlink:href="#f2_m" transform="matrix(12,0,0,12,153,1036.9)" />
<use xlink:href="#f2_2c" transform="matrix(12,0,0,12,162.1,1036.9)" />
<use xlink:href="#f2_i" transform="matrix(12,0,0,12,170.9,1036.9)" />
<use xlink:href="#f2_n" transform="matrix(12,0,0,12,175.7,1036.9)" />
</g>
<path d="M156.6,1067.1h9.9" class="g7_121" />
<g clip-path="url(#c10_121)">
<g fill="#000000" >
<use xlink:href="#f2_l" transform="matrix(12.5,0,0,12.4,156.9,1059.8)" />
<use xlink:href="#f2_i" transform="matrix(12.5,0,0,12.4,200.5,1071.7)" />
<use xlink:href="#f2_n" transform="matrix(12.5,0,0,12.4,157.2,1086.5)" />
<use xlink:href="#f3_2c" transform="matrix(12.5,0,0,12.4,115.3,1071.7)" />
<use xlink:href="#f3_11" transform="matrix(12.5,0,0,12.4,173,1071.7)" />
<use xlink:href="#f3_2a" transform="matrix(12.5,0,0,12.4,184.3,1071.7)" />
<use xlink:href="#f3_2f" transform="matrix(12.5,0,0,12.4,193.5,1071.7)" />
<use xlink:href="#f4_x" transform="matrix(12.5,0,0,12.4,129.4,1071.7)" />
<use xlink:href="#f4_h" transform="matrix(12.5,0,0,12.4,144,1071.7)" />
</g>
</g>
<g fill="#000000" >
<use xlink:href="#f5_t" transform="matrix(12,0,0,12,110,1113.1)" />
<use xlink:href="#f5_i" transform="matrix(12,0,0,12,119.2,1113.1)" />
<use xlink:href="#f2_16" transform="matrix(12,0,0,12,124,1113.1)" />
<use xlink:href="#f2_25" transform="matrix(12,0,0,12,134.2,1113.1)" />
<use xlink:href="#f2_2a" transform="matrix(12,0,0,12,139,1113.1)" />
<use xlink:href="#f2_20" transform="matrix(12,0,0,12,147.8,1113.1)" />
</g>
<g clip-path="url(#c11_121)">
<g fill="#000000" >
<use xlink:href="#f6_5z" transform="matrix(13,0,0,12.3,355.7,1107.8)" />
<use xlink:href="#f6_5z" transform="matrix(13,0,0,12.3,473.1,1107.8)" />
<use xlink:href="#f6_5z" transform="matrix(13,0,0,12.3,617,1107.8)" />
<use xlink:href="#f6_5z" transform="matrix(13,0,0,12.3,293.5,1109.3)" />
<use xlink:href="#f6_5z" transform="matrix(13,0,0,12.3,320.1,1109.3)" />
<use xlink:href="#f6_5z" transform="matrix(13,0,0,12.3,409.7,1109.3)" />
<use xlink:href="#f6_5z" transform="matrix(13,0,0,12.3,445.8,1109.3)" />
<use xlink:href="#f6_5z" transform="matrix(13,0,0,12.3,553.6,1109.3)" />
<use xlink:href="#f6_5z" transform="matrix(13,0,0,12.3,580.3,1109.3)" />
<use xlink:href="#f2_i" transform="matrix(13,0,0,12.3,177.9,1113.3)" />
<use xlink:href="#f2_c" transform="matrix(13,0,0,12.3,182.5,1113.3)" />
<use xlink:href="#f2_d" transform="matrix(13,0,0,12.3,221.7,1113.3)" />
<use xlink:href="#f2_g" transform="matrix(13,0,0,12.3,227.8,1113.3)" />
<use xlink:href="#f2_m" transform="matrix(13,0,0,12.3,283.3,1113.3)" />
<use xlink:href="#f2_n" transform="matrix(13,0,0,12.3,343.6,1113.3)" />
<use xlink:href="#f2_g" transform="matrix(13,0,0,12.3,361.9,1113.3)" />
<use xlink:href="#f2_m" transform="matrix(13,0,0,12.3,433.4,1113.3)" />
<use xlink:href="#f2_n" transform="matrix(13,0,0,12.3,544,1113.3)" />
<use xlink:href="#f2_m" transform="matrix(13,0,0,12.3,604.3,1113.3)" />
<use xlink:href="#f2_i" transform="matrix(13,0,0,12.3,622.6,1113.3)" />
<use xlink:href="#f3_1x" transform="matrix(13,0,0,12.3,165.1,1113.3)" />
<use xlink:href="#f3_1y" transform="matrix(13,0,0,12.3,188.5,1113.3)" />
<use xlink:href="#f3_1z" transform="matrix(13,0,0,12.3,213.1,1113.3)" />
<use xlink:href="#f3_25" transform="matrix(13,0,0,12.3,235.9,1113.3)" />
<use xlink:href="#f3_22" transform="matrix(13,0,0,12.3,241.1,1113.3)" />
<use xlink:href="#f3_1x" transform="matrix(13,0,0,12.3,254.7,1113.3)" />
<use xlink:href="#f3_25" transform="matrix(13,0,0,12.3,292.1,1113.3)" />
<use xlink:href="#f3_26" transform="matrix(13,0,0,12.3,320.6,1113.3)" />
<use xlink:href="#f3_27" transform="matrix(13,0,0,12.3,352.4,1113.3)" />
<use xlink:href="#f3_1y" transform="matrix(13,0,0,12.3,370,1113.3)" />
<use xlink:href="#f3_25" transform="matrix(13,0,0,12.3,408.2,1113.3)" />
<use xlink:href="#f3_26" transform="matrix(13,0,0,12.3,446.2,1113.3)" />
<use xlink:href="#f3_27" transform="matrix(13,0,0,12.3,469.7,1113.3)" />
<use xlink:href="#f3_1x" transform="matrix(13,0,0,12.3,483.6,1113.3)" />
<use xlink:href="#f3_2a" transform="matrix(13,0,0,12.3,492.8,1113.3)" />
<use xlink:href="#f3_20" transform="matrix(13,0,0,12.3,502,1113.3)" />
<use xlink:href="#f3_1z" transform="matrix(13,0,0,12.3,517.1,1113.3)" />
<use xlink:href="#f3_25" transform="matrix(13,0,0,12.3,552.1,1113.3)" />
<use xlink:href="#f3_26" transform="matrix(13,0,0,12.3,580.6,1113.3)" />
<use xlink:href="#f3_27" transform="matrix(13,0,0,12.3,613.6,1113.3)" />
<use xlink:href="#f4_3a" transform="matrix(13,0,0,12.3,200.2,1113.3)" />
<use xlink:href="#f4_x" transform="matrix(13,0,0,12.3,268.7,1113.3)" />
<use xlink:href="#f4_f" transform="matrix(13,0,0,12.3,303.2,1113.3)" />
<use xlink:href="#f4_f" transform="matrix(13,0,0,12.3,330.1,1113.3)" />
<use xlink:href="#f4_x" transform="matrix(13,0,0,12.3,383.8,1113.3)" />
<use xlink:href="#f4_h" transform="matrix(13,0,0,12.3,398.3,1113.3)" />
<use xlink:href="#f4_f" transform="matrix(13,0,0,12.3,419.4,1113.3)" />
<use xlink:href="#f4_f" transform="matrix(13,0,0,12.3,455.7,1113.3)" />
<use xlink:href="#f4_x" transform="matrix(13,0,0,12.3,529.9,1113.3)" />
<use xlink:href="#f4_f" transform="matrix(13,0,0,12.3,563.2,1113.3)" />
<use xlink:href="#f4_f" transform="matrix(13,0,0,12.3,590.2,1113.3)" />
</g>
</g>
<image preserveAspectRatio="none" x="166" y="1076" width="453" height="32" xlink:href="img/9.png" />
<g fill="#000000" >
<use xlink:href="#f5_1j" transform="matrix(12,0,0,12,110,1162.3)" />
<use xlink:href="#f5_2b" transform="matrix(12,0,0,12,120.3,1162.3)" />
<use xlink:href="#f5_28" transform="matrix(12,0,0,12,129.5,1162.3)" />
<use xlink:href="#f5_2h" transform="matrix(12,0,0,12,134.2,1162.3)" />
<use xlink:href="#f5_2g" transform="matrix(12,0,0,12,144.5,1162.3)" />
<use xlink:href="#f5_25" transform="matrix(12,0,0,12,150.7,1162.3)" />
<use xlink:href="#f5_2b" transform="matrix(12,0,0,12,155.8,1162.3)" />
<use xlink:href="#f5_2a" transform="matrix(12,0,0,12,164.9,1162.3)" />
<use xlink:href="#f5_u" transform="matrix(12,0,0,12,175.2,1162.3)" />
</g>
<image preserveAspectRatio="none" x="55" y="912" width="324" height="83" xlink:href="img/10.png" />
<path d="M386,337.1v110" class="g1_121" />
<path fill-rule="evenodd" d="M37.4,38.1h.7v-.7h-.7v.7Z" class="g8_121" />
<path fill-rule="evenodd" d="M37.4,38.1h.7v-.7h-.7v.7Z" class="g8_121" />
<path fill-rule="evenodd" d="M38.1,38.1H871.5v-.7H38.1v.7Z" class="g8_121" />
<path fill-rule="evenodd" d="M871.5,38.1h.8v-.7h-.8v.7Z" class="g8_121" />
<path fill-rule="evenodd" d="M871.5,38.1h.8v-.7h-.8v.7Z" class="g8_121" />
<path fill-rule="evenodd" d="M37.4,1248.5h.7V38.1h-.7V1248.5Z" class="g8_121" />
<path fill-rule="evenodd" d="M872.3,1248.5h.7V38.1h-.7V1248.5Z" class="g8_121" />
<path fill-rule="evenodd" d="M871.5,1248.5h.8V38.1h-.8V1248.5Z" class="g8_121" />
<path fill-rule="evenodd" d="M37.4,1249.2h.7v-.7h-.7v.7Z" class="g8_121" />
<path fill-rule="evenodd" d="M37.4,1249.2h.7v-.7h-.7v.7Z" class="g8_121" />
<path fill-rule="evenodd" d="M38.1,1249.9H871.5v-.7H38.1v.7Z" class="g8_121" />
<path fill-rule="evenodd" d="M38.1,1249.2H871.5v-.7H38.1v.7Z" class="g8_121" />
<path fill-rule="evenodd" d="M872.3,1249.9h.7v-1.4h-.7v1.4Z" class="g8_121" />
<path fill-rule="evenodd" d="M871.5,1249.9H873v-.7h-1.5v.7Z" class="g8_121" />
<path fill-rule="evenodd" d="M871.5,1249.2h.8v-.7h-.8v.7Z" class="g8_121" />
<path fill-rule="evenodd" d="M871.5,1249.2h.8v-.7h-.8v.7Z" class="g8_121" />
<defs>
<path d="M489,-15c0,0,-99,0,-179,30c0,0,-80,30,-136,91c0,0,-56,61,-85,152c0,0,-30,91,-30,212c0,0,0,123,32,218c0,0,33,96,92,161c0,0,59,65,142,98c0,0,82,34,181,34c0,0,40,0,78,-7c0,0,37,-7,69,-18c0,0,31,-11,57,-25c0,0,25,-14,35,-24c0,0,10,-10,14,-17c0,0,4,-7,6,-17c0,0,2,-11,3,-25c0,0,2,-14,2,-35c0,0,0,-22,-2,-38c0,0,-1,-15,-5,-25c0,0,-4,-10,-9,-14c0,0,-5,-5,-12,-5c0,0,-11,0,-28,13c0,0,-18,13,-45,29c0,0,-27,16,-65,29c0,0,-37,13,-89,13c0,0,-58,0,-103,-23c0,0,-45,-23,-77,-67c0,0,-31,-44,-48,-106c0,0,-16,-61,-16,-139c0,0,0,-85,17,-147c0,0,18,-62,50,-103c0,0,33,-40,79,-60c0,0,45,-19,103,-19c0,0,52,0,90,12c0,0,38,12,65,27c0,0,27,15,45,27c0,0,17,12,27,12c0,0,8,0,12,-3c0,0,4,-3,7,-12c0,0,3,-9,5,-25c0,0,1,-16,1,-43c0,0,0,-18,-1,-31c0,0,-1,-14,-3,-23c0,0,-2,-9,-6,-16c0,0,-4,-7,-12,-15c0,0,-8,-9,-32,-22c0,0,-23,-14,-57,-26C661,13,627,1,583,-6c0,0,-43,-9,-94,-9Z" 
id="f0_j"
transform="scale(0.001,-0.001)" />

<path d="M440,150c0,0,41,0,68,8c0,0,28,9,49,26c0,0,20,16,32,41c0,0,11,25,11,58c0,0,0,33,-11,60c0,0,-11,26,-33,44c0,0,-21,18,-55,28c0,0,-33,9,-87,9H298V150ZM407,567c0,0,42,0,68,10c0,0,25,10,42,28c0,0,16,17,24,41c0,0,9,24,9,50c0,0,0,29,-9,52c0,0,-9,23,-27,39c0,0,-18,15,-45,23c0,0,-27,8,-72,8H298V567ZM164,0c0,0,-25,0,-42,15c0,0,-16,14,-16,47V903c0,0,0,33,16,48c0,0,17,14,42,14H406c0,0,88,0,150,-15c0,0,61,-15,103,-45c0,0,42,-30,65,-77c0,0,22,-46,22,-108c0,0,0,-36,-9,-67c0,0,-9,-31,-26,-56c0,0,-17,-25,-42,-45c0,0,-25,-19,-57,-31c0,0,41,-7,76,-26c0,0,34,-19,60,-48c0,0,26,-30,41,-69c0,0,15,-40,15,-89c0,0,0,-51,-14,-93c0,0,-15,-42,-40,-74c0,0,-25,-32,-59,-55c0,0,-35,-23,-77,-38C614,29,573,14,525,7C525,7,478,0,420,0Z" 
id="f0_i"
transform="scale(0.001,-0.001)" />

<path d="M320,-17c0,0,-50,0,-93,9c0,0,-43,8,-76,19c0,0,-32,11,-54,24C97,35,75,48,65,58c0,0,-10,9,-14,28c0,0,-4,18,-4,52c0,0,0,23,1,39c0,0,2,15,5,25c0,0,4,10,9,14c0,0,6,4,13,4c0,0,11,0,30,-12c0,0,19,-13,49,-28c0,0,30,-15,71,-27c0,0,42,-12,96,-12c0,0,36,0,64,8c0,0,29,9,49,25c0,0,19,15,30,38c0,0,10,23,10,52c0,0,0,33,-18,56c0,0,-18,24,-46,42c0,0,-29,18,-66,34c0,0,-36,16,-75,34c0,0,-39,18,-76,41c0,0,-36,23,-65,54c0,0,-29,32,-47,75c0,0,-17,44,-17,104c0,0,0,70,25,122c0,0,26,53,70,88c0,0,43,34,103,51c0,0,59,18,125,18c0,0,35,0,69,-6c0,0,34,-5,64,-14c0,0,30,-9,53,-20c0,0,23,-11,31,-18c0,0,7,-8,10,-13c0,0,3,-5,4,-14c0,0,2,-8,3,-21c0,0,1,-13,1,-33c0,0,0,-21,-1,-36c0,0,-1,-15,-4,-25c0,0,-3,-9,-7,-14c0,0,-5,-4,-14,-4c0,0,-8,0,-26,10c0,0,-18,10,-44,23c0,0,-26,12,-60,22c0,0,-34,10,-75,10c0,0,-32,0,-56,-8c0,0,-24,-8,-40,-21c0,0,-16,-14,-24,-34c0,0,-8,-19,-8,-41c0,0,0,-32,18,-56c0,0,17,-23,46,-42c0,0,30,-18,67,-34c0,0,38,-16,76,-34c0,0,39,-18,76,-41c0,0,38,-22,67,-54c0,0,29,-32,47,-75c0,0,18,-43,18,-101c0,0,0,-76,-29,-133c0,0,-28,-58,-77,-96C572,60,524,21,459,2c0,0,-65,-19,-139,-19Z" 
id="f0_2n"
transform="scale(0.001,-0.001)" />

<path d="M164,0c0,0,-25,0,-42,15c0,0,-16,14,-16,47V903c0,0,0,33,16,48c0,0,17,14,42,14H645c0,0,7,0,12,-4c0,0,5,-3,9,-13c0,0,4,-9,6,-24c0,0,2,-14,2,-36c0,0,0,-21,-2,-36c0,0,-2,-14,-6,-23c0,0,-4,-9,-9,-13c0,0,-5,-4,-12,-4H301V576H593c0,0,6,0,12,-4c0,0,6,-4,9,-13c0,0,4,-8,6,-23c0,0,2,-14,2,-35c0,0,0,-22,-2,-36c0,0,-2,-14,-6,-23c0,0,-3,-8,-9,-12c0,0,-6,-4,-12,-4H301V154H649c0,0,6,0,12,-5c0,0,5,-4,9,-13c0,0,4,-9,6,-23c0,0,2,-15,2,-36c0,0,0,-22,-2,-36c0,0,-2,-15,-6,-24c0,0,-4,-9,-9,-13c0,0,-6,-4,-12,-4Z" 
id="f0_t"
transform="scale(0.001,-0.001)" />

<path d="M79,297c0,0,-19,0,-27,18c0,0,-8,17,-8,60c0,0,0,41,8,59c0,0,8,17,27,17H389c0,0,9,0,15,-4c0,0,7,-4,11,-13c0,0,5,-9,7,-23c0,0,1,-15,1,-36c0,0,0,-43,-8,-61c0,0,-8,-17,-26,-17Z" 
id="f0_oj"
transform="scale(0.001,-0.001)" />

<path d="M121,-4c0,0,-39,0,-60,2C61,-2,39,0,32,8c0,0,-8,8,-3,24c0,0,4,15,18,41L279,495L64,892c0,0,-14,26,-19,42c0,0,-5,17,4,24c0,0,9,8,32,10c0,0,23,2,65,2c0,0,35,0,56,-2c0,0,20,-1,32,-4c0,0,12,-4,17,-10c0,0,5,-6,9,-15L431,620L595,939c0,0,5,9,10,15c0,0,5,6,16,10c0,0,10,3,29,4c0,0,19,2,53,2c0,0,37,0,59,-2c0,0,22,-2,30,-10c0,0,8,-8,4,-24c0,0,-4,-16,-17,-42L564,497L793,73c0,0,14,-26,18,-41c0,0,4,-16,-5,-24c0,0,-9,-8,-32,-10c0,0,-24,-2,-65,-2c0,0,-36,0,-56,2c0,0,-20,1,-31,3c0,0,-12,4,-17,10c0,0,-5,6,-9,15L414,374L233,26c0,0,-4,-9,-9,-15c0,0,-6,-6,-17,-10c0,0,-12,-2,-32,-3c0,0,-21,-2,-54,-2Z" 
id="f0_3e"
transform="scale(0.001,-0.001)" />

<path d="M204,-4c0,0,-28,0,-47,2c0,0,-19,2,-31,5c0,0,-11,4,-16,10c0,0,-4,6,-4,13V939c0,0,0,7,4,13c0,0,5,6,17,10c0,0,11,3,30,6c0,0,19,2,47,2c0,0,29,0,48,-2c0,0,18,-3,29,-6c0,0,11,-4,16,-10c0,0,5,-6,5,-13V26c0,0,0,-7,-5,-13c0,0,-5,-6,-16,-10c0,0,-11,-3,-29,-5c0,0,-19,-2,-48,-2Z" 
id="f0_1c"
transform="scale(0.001,-0.001)" />

<path d="M127,0c0,0,-16,0,-28,3C99,3,87,6,80,15c0,0,-8,8,-11,25c0,0,-3,16,-3,42c0,0,0,25,2,42c0,0,2,18,8,32c0,0,6,14,15,27c0,0,9,13,24,29L282,390c0,0,50,53,81,95c0,0,30,43,47,79c0,0,17,35,24,65c0,0,6,30,6,57c0,0,0,24,-8,46c0,0,-8,22,-23,39c0,0,-15,16,-38,25c0,0,-23,10,-55,10c0,0,-44,0,-78,-12c0,0,-33,-11,-59,-25c0,0,-26,-13,-43,-25c0,0,-17,-12,-27,-12c0,0,-7,0,-11,5c0,0,-5,4,-8,15c0,0,-3,10,-5,28c0,0,-2,17,-2,42c0,0,0,18,1,29c0,0,1,12,4,20c0,0,2,9,6,15c0,0,3,6,13,15c0,0,9,9,34,23c0,0,25,14,61,27c0,0,37,14,81,23c0,0,44,9,92,9c0,0,75,0,131,-19c0,0,57,-19,94,-53c0,0,37,-34,55,-81c0,0,19,-47,19,-100c0,0,0,-47,-9,-93c0,0,-9,-45,-37,-98c0,0,-29,-52,-80,-116c0,0,-52,-64,-136,-148L299,159H679c0,0,8,0,14,-4c0,0,6,-5,11,-14c0,0,4,-9,7,-25c0,0,2,-15,2,-36c0,0,0,-22,-2,-37c0,0,-2,-15,-6,-25c0,0,-3,-10,-9,-14c0,0,-6,-4,-14,-4Z" 
id="f0_rz"
transform="scale(0.001,-0.001)" />

<path d="M385,138c0,0,29,0,52,9c0,0,22,10,39,28c0,0,17,19,28,47c0,0,11,29,19,66c0,0,7,37,9,84c0,0,3,47,3,104c0,0,0,69,-4,122c0,0,-4,52,-11,91c0,0,-8,39,-20,66c0,0,-12,27,-28,43c0,0,-16,16,-37,22c0,0,-21,7,-47,7c0,0,-44,0,-73,-21c0,0,-28,-21,-45,-64c0,0,-17,-42,-24,-106c0,0,-6,-63,-6,-148c0,0,0,-103,8,-171c0,0,8,-67,26,-107c0,0,17,-40,45,-56c0,0,27,-16,66,-16ZM378,-17c0,0,-99,0,-164,33c0,0,-65,34,-103,98c0,0,-38,64,-54,156c0,0,-15,92,-15,209c0,0,0,115,19,208c0,0,19,94,61,160c0,0,42,65,110,101c0,0,68,35,165,35c0,0,99,0,164,-34c0,0,65,-34,103,-98c0,0,39,-64,53,-156c0,0,15,-92,15,-209c0,0,0,-115,-18,-209c0,0,-19,-93,-61,-159C653,118,611,53,543,17c0,0,-67,-34,-165,-34Z" 
id="f0_rx"
transform="scale(0.001,-0.001)" />

<path d="M142,0c0,0,-6,0,-12,4c0,0,-5,3,-9,12c0,0,-4,9,-6,23c0,0,-3,15,-3,36c0,0,0,21,2,36c0,0,2,14,6,23c0,0,4,9,10,13c0,0,5,5,12,5H322V779L166,693c0,0,-17,-8,-28,-10c0,0,-1,0,-3,0c-4,0,-10,1,-14,5c0,0,-6,6,-8,22c0,0,-2,15,-2,44c0,0,0,18,0,29c0,0,1,12,4,20c0,0,3,8,8,14c0,0,5,5,14,11L345,962c0,0,4,3,9,5c0,0,6,2,15,3c0,0,9,1,23,2c0,0,15,0,38,0c0,0,28,0,46,-1c0,0,17,-1,26,-4c0,0,9,-3,12,-7c0,0,3,-4,3,-11V152H675c0,0,7,0,12,-5c0,0,6,-4,10,-13c0,0,4,-9,6,-23c0,0,2,-15,2,-36c0,0,0,-21,-2,-36c0,0,-3,-14,-7,-23c0,0,-4,-9,-9,-12c0,0,-5,-4,-12,-4Z" 
id="f0_ry"
transform="scale(0.001,-0.001)" />

<path d="M439,356V801h-1L183,356ZM532,-4c0,0,-27,0,-45,2c0,0,-18,2,-29,5c0,0,-11,3,-15,9c0,0,-4,5,-4,13V199H70c0,0,-11,0,-19,3c0,0,-8,3,-14,12c0,0,-5,9,-8,27c0,0,-3,17,-3,46c0,0,0,24,2,42c0,0,1,17,3,31c0,0,3,15,8,27c0,0,5,13,12,27L351,944c0,0,4,7,13,11c0,0,9,5,25,9c0,0,16,3,40,4c0,0,25,2,60,2c0,0,38,0,65,-2c0,0,27,-2,43,-6c0,0,16,-4,23,-10c0,0,8,-6,8,-14V356h85c0,0,12,0,21,-18c0,0,8,-19,8,-61c0,0,0,-38,-8,-58c0,0,-7,-20,-21,-20H628V25c0,0,0,-8,-5,-13c0,0,-4,-6,-15,-9c0,0,-12,-3,-29,-5c0,0,-18,-2,-47,-2Z" 
id="f0_s6"
transform="scale(0.001,-0.001)" />

<path d="M589,371L453,782h-1L317,371ZM106,-4c0,0,-35,0,-54,2C52,-2,32,0,25,8c0,0,-7,9,-5,24c0,0,2,16,11,42L329,931c0,0,4,13,10,21c0,0,6,7,19,12c0,0,13,4,36,5c0,0,23,1,61,1c0,0,44,0,71,-1c0,0,26,-1,40,-5c0,0,15,-5,21,-13c0,0,6,-8,11,-22L896,73c0,0,9,-27,11,-43c0,0,3,-15,-6,-23c0,0,-8,-7,-29,-9c0,0,-21,-2,-57,-2c0,0,-38,0,-59,1c0,0,-22,1,-33,4c0,0,-11,3,-16,9c0,0,-4,6,-7,16L635,220H272L211,31c0,0,-2,-11,-7,-18c0,0,-5,-7,-16,-11c0,0,-11,-3,-31,-4c0,0,-19,-2,-51,-2Z" 
id="f0_5"
transform="scale(0.001,-0.001)" />

<path d="M198,-4c0,0,-27,0,-45,2c0,0,-18,2,-28,5c0,0,-11,4,-15,10c0,0,-4,6,-4,13V887c0,0,0,38,20,58c0,0,20,20,53,20H308c0,0,34,0,59,-6c0,0,24,-5,42,-18c0,0,18,-13,30,-35c0,0,12,-21,21,-52L669,279h3L889,852c0,0,9,32,21,53c0,0,11,22,27,35c0,0,15,14,36,19c0,0,21,6,48,6h132c0,0,21,0,35,-5c0,0,15,-5,24,-15c0,0,9,-11,14,-25c0,0,5,-15,5,-33V26c0,0,0,-7,-4,-13c0,0,-4,-6,-15,-10c0,0,-11,-3,-29,-5c0,0,-18,-2,-45,-2c0,0,-27,0,-45,2c0,0,-18,2,-28,5c0,0,-11,4,-15,10c0,0,-5,6,-5,13V813h-1L764,27c0,0,-3,-10,-10,-16c0,0,-6,-6,-18,-10c0,0,-12,-3,-29,-4c0,0,-18,-1,-44,-1c0,0,-25,0,-43,2c0,0,-18,2,-29,5c0,0,-12,4,-19,10c0,0,-6,6,-9,14L293,813h-2V26c0,0,0,-7,-4,-13c0,0,-4,-6,-15,-10c0,0,-11,-3,-29,-5c0,0,-17,-2,-45,-2Z" 
id="f0_1x"
transform="scale(0.001,-0.001)" />

<path d="M193,-4c0,0,-26,0,-43,2c0,0,-18,2,-27,6c0,0,-10,4,-14,10c0,0,-3,6,-3,13V895c0,0,0,35,20,53c0,0,21,17,50,17H282c0,0,28,0,47,-5c0,0,20,-5,35,-16c0,0,15,-11,29,-31c0,0,13,-20,27,-49L608,511c0,0,17,-32,33,-63c0,0,16,-31,31,-62c0,0,14,-31,29,-60c0,0,14,-30,27,-60h1c0,0,-2,52,-3,109c0,0,-1,57,-1,108V936c0,0,0,7,4,13c0,0,5,6,15,11c0,0,10,4,28,6c0,0,17,2,44,2c0,0,25,0,42,-2c0,0,17,-2,27,-6c0,0,9,-5,13,-11c0,0,4,-6,4,-13V68c0,0,0,-17,-6,-30c0,0,-6,-14,-17,-23C879,15,869,6,856,2c0,0,-14,-3,-28,-3H744c0,0,-26,0,-45,4c0,0,-19,5,-35,19c0,0,-16,14,-31,38c0,0,-15,23,-34,60L359,572c0,0,-21,40,-43,86c0,0,-21,47,-38,91h-2c0,0,3,-54,5,-107c0,0,2,-53,2,-110V27c0,0,0,-7,-5,-13c0,0,-4,-6,-14,-10c0,0,-10,-4,-27,-6c0,0,-17,-2,-44,-2Z" 
id="f0_1y"
transform="scale(0.001,-0.001)" />

<path d="M378,-4c0,0,-28,0,-47,2c0,0,-19,2,-31,5c0,0,-11,4,-16,10c0,0,-4,6,-4,13V805H38c0,0,-8,0,-13,4c0,0,-5,5,-9,14c0,0,-3,9,-5,25c0,0,-2,15,-2,37c0,0,0,22,2,38c0,0,2,15,5,25c0,0,4,9,9,13c0,0,5,4,13,4H718c0,0,7,0,12,-4c0,0,6,-4,10,-13c0,0,3,-10,5,-25c0,0,2,-16,2,-38c0,0,0,-22,-2,-37c0,0,-2,-16,-5,-25c0,0,-4,-9,-10,-14c0,0,-5,-4,-12,-4H476V26c0,0,0,-7,-5,-13c0,0,-5,-6,-16,-10c0,0,-11,-3,-30,-5c0,0,-19,-2,-47,-2Z" 
id="f0_2t"
transform="scale(0.001,-0.001)" />

<path d="M514,145c0,0,72,0,121,27c0,0,48,26,78,73c0,0,30,46,42,107c0,0,13,62,13,131c0,0,0,76,-12,139c0,0,-12,62,-41,106c0,0,-29,45,-76,69c0,0,-48,24,-120,24c0,0,-72,0,-120,-27c0,0,-49,-27,-79,-73c0,0,-29,-45,-42,-106c0,0,-12,-61,-12,-129c0,0,0,-79,12,-142c0,0,12,-63,40,-108c0,0,28,-44,76,-68c0,0,48,-23,120,-23ZM508,-17c0,0,-113,0,-196,29c0,0,-84,29,-140,90c0,0,-56,60,-84,154c0,0,-28,93,-28,221c0,0,0,117,29,210c0,0,30,94,89,160c0,0,59,65,146,101c0,0,87,35,202,35c0,0,110,0,194,-29c0,0,84,-30,140,-90c0,0,56,-60,85,-153c0,0,29,-92,29,-217c0,0,0,-120,-30,-215c0,0,-30,-95,-89,-161C855,118,796,52,709,17c0,0,-87,-34,-201,-34Z" 
id="f0_24"
transform="scale(0.001,-0.001)" />

<path d="M404,-11c0,0,-136,0,-225,76c0,0,-90,78,-111,215H265c0,0,35,-136,135,-136c0,0,50,0,85,35c0,0,34,36,34,88c0,0,0,64,-41,105c0,0,-42,41,-107,41H336V573h21c0,0,68,0,109,33c0,0,41,34,41,89c0,0,0,50,-32,85c0,0,-32,35,-79,35c0,0,-110,0,-127,-135H76c0,0,9,130,96,209c0,0,87,79,208,79c0,0,134,0,227,-76c0,0,94,-75,94,-182c0,0,0,-116,-115,-210c0,0,73,-46,107,-96c0,0,34,-51,34,-121c0,0,0,-134,-88,-214c0,0,-89,-80,-235,-80Z" 
id="f1_n"
transform="scale(0.001,-0.001)" />

<path d="M44,-281L425,1053H537L156,-281Z" 
id="f1_j"
transform="scale(0.001,-0.001)" />

<path d="M75,0L400,413c0,0,71,91,101,149c0,0,30,58,30,109c0,0,0,55,-36,91c0,0,-36,36,-91,36c0,0,-63,0,-91,-45c0,0,-28,-46,-34,-142H67c0,0,0,173,102,268c0,0,102,95,253,95c0,0,140,0,229,-82c0,0,89,-82,89,-209c0,0,0,-125,-104,-276L580,324c0,0,-34,-50,-85,-114L468,178H740V0Z" 
id="f1_m"
transform="scale(0.001,-0.001)" />

<path d="M340,-13c0,0,-73,0,-129,20C211,7,155,27,86,74l22,217c0,0,156,-103,245,-103c0,0,64,0,112,45c0,0,47,46,47,107c0,0,0,68,-47,113c0,0,-48,46,-121,46c0,0,-85,0,-184,-42l48,495H681V777H393L382,665c0,0,163,0,251,-95c0,0,88,-95,88,-224c0,0,0,-146,-113,-253C608,93,494,-13,340,-13Z" 
id="f1_p"
transform="scale(0.001,-0.001)" />

<path d="M76,316v76H787V316Zm0,306v76H787V622Z" 
id="f2_x"
transform="scale(0.001,-0.001)" />

<path d="M13,0V34L95,46L325,350L122,649L40,668v33H357V668L264,648L399,446L554,649l-96,19v33H710V668L630,652L433,397L663,50L745,34V0H427V34l94,17L359,299L169,50L266,34V0Z" 
id="f2_2k"
transform="scale(0.001,-0.001)" />

<path d="M278,-14c0,0,-52,0,-115,11c0,0,-63,10,-99,23V193H98L134,95c0,0,56,-50,146,-50c0,0,144,0,144,123c0,0,0,91,-114,130l-66,21c0,0,-75,25,-110,50c0,0,-34,26,-53,63c0,0,-18,36,-18,89c0,0,0,92,63,145c0,0,63,54,170,54c0,0,77,0,193,-23V544H454l-32,81c0,0,-39,35,-124,35c0,0,-61,0,-92,-30c0,0,-32,-30,-32,-80c0,0,0,-43,29,-72c0,0,28,-29,86,-48c0,0,110,-38,144,-55c0,0,33,-17,57,-42c0,0,23,-25,36,-57c0,0,13,-32,13,-79c0,0,0,-104,-66,-158c0,0,-66,-53,-195,-53Z" 
id="f2_2f"
transform="scale(0.001,-0.001)" />

<path d="M32,0V33L151,52V649L52,668v33H275V52L395,33V0ZM201,850c0,0,-32,0,-56,24c0,0,-24,24,-24,56c0,0,0,34,24,58c0,0,24,24,56,24c0,0,34,0,58,-24c0,0,24,-24,24,-58c0,0,0,-32,-24,-56c0,0,-24,-24,-58,-24Z" 
id="f2_25"
transform="scale(0.001,-0.001)" />

<path d="M439,0V33l93,19V500c0,0,0,62,-30,97c0,0,-31,36,-94,36c0,0,-67,0,-165,-22V52L338,33V0H35V33l84,19V649L35,668v33H235l7,-57c0,0,57,33,122,54c0,0,65,22,108,22c0,0,91,0,137,-53c0,0,47,-53,47,-154V52L741,33V0Z" 
id="f2_2a"
transform="scale(0.001,-0.001)" />

<path d="M681,416L504,902L333,416ZM669,0V40L803,60L704,348H310L210,60L344,40V0H15V40L128,60l341,949H611L965,60L1092,40V0Z" 
id="f2_11"
transform="scale(0.001,-0.001)" />

<path d="M191,-20c0,0,-39,0,-65,25c0,0,-25,27,-25,64c0,0,0,38,26,64c0,0,26,26,64,26c0,0,38,0,64,-26c0,0,26,-26,26,-64c0,0,0,-37,-25,-64c0,0,-26,-25,-65,-25Z" 
id="f2_i"
transform="scale(0.001,-0.001)" />

<path d="M178,0L615,886H176L150,764H101v236H720V943L274,0Z" 
id="f2_r"
transform="scale(0.001,-0.001)" />

<path d="M44,0V40L172,60V941L44,960v40H794V760H745L721,922c0,0,-83,11,-241,11H316V543H586l23,119h48V354H609L586,475H316V67H513c0,0,193,0,252,12l43,185h49L843,0Z" 
id="f2_15"
transform="scale(0.001,-0.001)" />

<path d="M360,-14L72,649L0,668v33H327V668L216,648L420,164L615,649L504,668v33H764V668L697,652L416,-14Z" 
id="f2_2i"
transform="scale(0.001,-0.001)" />

<path d="M284,67c0,0,51,0,88,12c0,0,37,12,74,30V358l-98,-3c0,0,-100,-4,-135,-39c0,0,-35,-35,-35,-117c0,0,0,-132,106,-132ZM233,-14c0,0,-179,0,-179,208c0,0,0,70,27,116c0,0,27,46,87,70c0,0,60,24,173,27l105,3V519c0,0,0,72,-26,107c0,0,-27,34,-82,34c0,0,-75,0,-137,-35L176,538H134V691c0,0,121,26,213,26c0,0,115,0,169,-47c0,0,54,-47,54,-144V52L657,33V0H465L451,70c0,0,-85,-84,-218,-84Z" 
id="f2_1x"
transform="scale(0.001,-0.001)" />

<path d="M31,0V33L150,52v956L31,1026v34H274V52L394,33V0Z" 
id="f2_28"
transform="scale(0.001,-0.001)" />

<path d="M289,-14c0,0,-179,0,-179,205V649L20,668v33H233V200c0,0,0,-128,120,-128c0,0,92,0,173,23V649L420,668v33H649V52L738,33V0H533l-6,57C527,57,474,28,405,7c0,0,-69,-21,-116,-21Z" 
id="f2_2h"
transform="scale(0.001,-0.001)" />

<path d="M249,-14c0,0,-71,0,-107,42c0,0,-35,42,-35,119V639H15v33l93,29l76,159h47V701H391V639H231V161c0,0,0,-48,22,-73c0,0,22,-24,57,-24c0,0,44,0,106,12V26C416,26,389,8,340,-2c0,0,-49,-12,-91,-12Z" 
id="f2_2g"
transform="scale(0.001,-0.001)" />

<path d="M495,413c0,0,0,133,-34,190c0,0,-34,57,-105,57c0,0,-78,0,-119,-63c0,0,-42,-62,-42,-184ZM374,-14c0,0,-163,0,-239,87c0,0,-75,88,-75,283c0,0,0,183,77,273c0,0,76,91,219,91c0,0,269,0,269,-306V353H194V340c0,0,0,-103,23,-160c0,0,22,-57,70,-87c0,0,47,-29,124,-29c0,0,40,0,96,6c0,0,55,7,91,15V43C598,43,562,20,500,3c0,0,-61,-17,-126,-17Z" 
id="f2_21"
transform="scale(0.001,-0.001)" />

<path d="M211,-20c0,0,-39,0,-64,25c0,0,-26,27,-26,64c0,0,0,38,26,64c0,0,26,26,64,26c0,0,37,0,64,-25c0,0,26,-26,26,-65c0,0,0,-37,-26,-64c0,0,-26,-25,-64,-25Zm0,556c0,0,-38,0,-64,26c0,0,-26,26,-26,64c0,0,0,37,26,64c0,0,25,27,64,27c0,0,38,0,64,-27c0,0,26,-27,26,-64c0,0,0,-38,-26,-64c0,0,-27,-26,-64,-26Z" 
id="f2_u"
transform="scale(0.001,-0.001)" />

<path d="M476,327V830h-4L114,327ZM476,0V220H30v99l488,686h86V327H740V220H604V0Z" 
id="f2_o"
transform="scale(0.001,-0.001)" />

<path d="M67,0V109L206,235c0,0,133,118,196,190c0,0,63,72,90,149c0,0,27,77,27,177c0,0,0,97,-44,148c0,0,-44,50,-144,50c0,0,-39,0,-81,-10c0,0,-42,-11,-74,-29L150,787H101V980c0,0,135,32,230,32c0,0,164,0,247,-68c0,0,82,-69,82,-193c0,0,0,-84,-32,-158c0,0,-33,-75,-100,-148c0,0,-67,-74,-222,-206c0,0,-67,-57,-141,-125H680V0Z" 
id="f2_m"
transform="scale(0.001,-0.001)" />

<path d="M134,0V40L339,60V876L137,804v39l292,166h39V60L672,40V0Z" 
id="f2_l"
transform="scale(0.001,-0.001)" />

<path d="M-6,0c0,0,-12,10,-12,32c0,0,0,21,23,51c0,0,23,31,79,82L287,354L159,649L79,668l6,33H270L378,434l93,88c0,0,47,46,67,72c0,0,19,26,19,44c0,0,0,8,-6,13c0,0,-7,6,-38,17l6,33H651c0,0,16,-12,16,-32c0,0,0,-44,-103,-142L404,377L548,49L634,33L628,0H437L313,298L185,176c0,0,-41,-40,-60,-65c0,0,-19,-26,-19,-48c0,0,0,-21,31,-29L131,0Z" 
id="f3_2k"
transform="scale(0.001,-0.001)" />

<path d="M301,78c0,0,41,0,90,27c0,0,49,28,95,77l81,442c0,0,-26,18,-54,27c0,0,-27,10,-67,10c0,0,-70,0,-131,-55c0,0,-61,-55,-99,-152c0,0,-37,-97,-37,-201c0,0,0,-79,33,-127c0,0,33,-48,89,-48ZM245,-14c0,0,-91,0,-145,68c0,0,-54,69,-54,183c0,0,0,128,55,240c0,0,55,112,150,177c0,0,96,66,210,66c0,0,70,0,123,-18c0,0,3,36,51,306l-115,18l6,34H768L589,52L673,33L667,0H454l22,117C476,117,350,-14,245,-14Z" 
id="f3_20"
transform="scale(0.001,-0.001)" />

<path d="M355,0V355H0v72H355V784h72V427H782V355H427V0Z" 
id="f4_f"
transform="scale(0.001,-0.001)" />

<path d="M88,-163c0,0,-39,0,-63,25c0,0,-25,26,-25,65c0,0,0,34,19,54c0,0,19,19,48,19c0,0,30,0,51,-23c0,0,22,-24,37,-24c0,0,12,0,21,11c0,0,8,10,8,35c0,0,0,30,-7,88c0,0,-27,235,-27,620c0,0,13,411,17,446c0,0,17,139,60,188c0,0,43,48,98,48c0,0,37,0,65,-25c0,0,28,-25,28,-54c0,0,0,-35,-19,-57c0,0,-20,-21,-49,-21c0,0,-26,0,-57,27c0,0,-17,15,-30,15c0,0,-12,0,-21,-11c0,0,-8,-11,-8,-37c0,0,0,-31,6,-108c0,0,28,-306,28,-496c0,0,0,-50,-12,-439c0,0,-6,-219,-67,-296c0,0,-41,-50,-101,-50Z" 
id="f4_50"
transform="scale(0.001,-0.001)" />

<path d="M410,-14c0,0,-86,0,-175,14C235,0,145,14,81,38V307h66L181,146c0,0,31,-37,94,-62c0,0,64,-24,132,-24c0,0,214,0,214,177c0,0,0,55,-41,93c0,0,-41,38,-128,68c0,0,-128,42,-185,68c0,0,-56,27,-95,63c0,0,-38,36,-62,87c0,0,-23,51,-23,125c0,0,0,132,90,201c0,0,90,69,263,69c0,0,125,0,278,-32V741H651L618,878c0,0,-76,56,-178,56c0,0,-92,0,-141,-34c0,0,-49,-34,-49,-104c0,0,0,-50,41,-86c0,0,41,-35,128,-63c0,0,171,-56,235,-97c0,0,64,-41,97,-103c0,0,34,-61,34,-143c0,0,0,-318,-375,-318Z" 
id="f5_1j"
transform="scale(0.001,-0.001)" />

<path d="M379,60c0,0,59,0,84,64c0,0,24,65,24,231c0,0,0,164,-24,227c0,0,-24,63,-84,63c0,0,-57,0,-80,-60c0,0,-22,-61,-22,-230c0,0,0,-173,23,-234c0,0,22,-61,79,-61Zm-2,-74c0,0,-161,0,-240,91c0,0,-79,91,-79,277c0,0,0,186,80,276c0,0,81,90,245,90c0,0,167,0,245,-93c0,0,78,-93,78,-273c0,0,0,-188,-81,-278c0,0,-81,-90,-248,-90Z" 
id="f5_2b"
transform="scale(0.001,-0.001)" />

<path d="M30,0V49l76,18V992l-72,18v50H322V67L398,49V0Z" 
id="f5_28"
transform="scale(0.001,-0.001)" />

<path d="M287,-18c0,0,-194,0,-194,206V634L23,652v49H309V217c0,0,0,-63,26,-98c0,0,27,-35,76,-35c0,0,57,0,113,25V634l-64,18v49H740V67L809,49V0H536L526,61L475,35c0,0,-104,-53,-188,-53Z" 
id="f5_2h"
transform="scale(0.001,-0.001)" />

<path d="M327,-14c0,0,-101,0,-156,45c0,0,-55,45,-55,131V624H25v48l108,29l87,159H332V701H480V624H332V176c0,0,0,-49,20,-73c0,0,20,-25,53,-25c0,0,40,0,97,12V26c0,0,-22,-15,-76,-27c0,0,-55,-13,-99,-13Z" 
id="f5_2g"
transform="scale(0.001,-0.001)" />

<path d="M34,0V49l76,18V634L38,652v49H325V67L402,49V0ZM217,831c0,0,-48,0,-81,33c0,0,-34,33,-34,82c0,0,0,48,34,81c0,0,34,33,81,33c0,0,48,0,81,-33c0,0,33,-33,33,-81c0,0,0,-47,-33,-81c0,0,-32,-34,-81,-34Z" 
id="f5_25"
transform="scale(0.001,-0.001)" />

<path d="M41,0V49l69,18V634L41,652v49H313l11,-61l50,26c0,0,105,54,188,54c0,0,194,0,194,-207V67L827,49V0H478V49l63,18V484c0,0,0,63,-27,98c0,0,-26,35,-75,35c0,0,-57,0,-114,-25V67L389,49V0Z" 
id="f5_2a"
transform="scale(0.001,-0.001)" />

<path d="M248,-20c0,0,-52,0,-87,34c0,0,-36,36,-36,88c0,0,0,52,36,88c0,0,35,36,87,36c0,0,52,0,88,-36c0,0,36,-36,36,-88c0,0,0,-51,-36,-87c0,0,-35,-35,-88,-35Zm0,488c0,0,-52,0,-87,36c0,0,-36,36,-36,88c0,0,0,52,35,88c0,0,35,36,88,36c0,0,53,0,89,-36c0,0,35,-37,35,-88c0,0,0,-51,-36,-87c0,0,-35,-37,-88,-37Z" 
id="f5_u"
transform="scale(0.001,-0.001)" />

<path d="M-5,0L0,40L131,60L286,941L162,960l6,40H568l-6,-40L430,941L275,60L399,40L393,0Z" 
id="f3_19"
transform="scale(0.001,-0.001)" />

<path d="M0,214v74H784V214ZM0,494v72H784V494Z" 
id="f4_x"
transform="scale(0.001,-0.001)" />

<path d="M394,460c0,0,126,0,186,57c0,0,60,57,60,187c0,0,0,123,-57,176c0,0,-58,53,-194,53H316V460ZM54,0V40L172,60V941L44,960v40H421c0,0,368,0,368,-295c0,0,0,-153,-93,-233c0,0,-93,-80,-267,-80H316V60L475,40V0Z" 
id="f2_1g"
transform="scale(0.001,-0.001)" />

<path d="M392,152V469H76v77H392V863h77V546H787V469H469V152Z" 
id="f2_f"
transform="scale(0.001,-0.001)" />

<path d="M350,-14c0,0,-142,0,-253,31L89,228h49L172,87c0,0,32,-18,78,-29c0,0,46,-11,88,-11c0,0,118,0,173,56c0,0,56,55,56,187c0,0,0,93,-24,140c0,0,-24,47,-76,70c0,0,-52,22,-140,22c0,0,-68,0,-133,-18H122v496H630V886H189V567c0,0,81,18,173,18c0,0,173,0,258,-71c0,0,84,-71,84,-216c0,0,0,-151,-92,-232c0,0,-91,-80,-262,-80Z" 
id="f2_p"
transform="scale(0.001,-0.001)" />

<path d="M301,78c0,0,85,0,185,104l81,442c0,0,-29,20,-55,28c0,0,-25,8,-62,8c0,0,-75,0,-137,-56c0,0,-62,-56,-98,-152c0,0,-36,-95,-36,-199c0,0,0,-79,33,-127c0,0,33,-48,89,-48ZM245,-14c0,0,-90,0,-145,66c0,0,-54,66,-54,182c0,0,0,131,57,244c0,0,57,114,152,178c0,0,96,64,208,64c0,0,90,0,170,-33l33,26h40L589,52L673,33L667,0H454l22,117C476,117,350,-14,245,-14Z" 
id="f3_1x"
transform="scale(0.001,-0.001)" />

<path d="M200,-14c0,0,-59,0,-93,35c0,0,-34,36,-34,100c0,0,0,22,4,51c0,0,4,30,82,467H67l6,33l99,29L275,860h47L295,701H455L443,639H283L210,230c0,0,-13,-69,-13,-99c0,0,0,-34,17,-51c0,0,17,-16,43,-16c0,0,54,0,113,21L386,50c0,0,-92,-64,-186,-64Z" 
id="f3_2g"
transform="scale(0.001,-0.001)" />

<path d="M945,-20c0,0,47,75,125,153H57v74H1147l108,91c0,0,23,19,95,72c0,0,-134,103,-203,166H57v72H1070c0,0,-78,78,-125,154h85c0,0,88,-107,217,-217c0,0,130,-110,206,-154V349c0,0,-101,-58,-219,-162c0,0,-118,-103,-204,-207Z" 
id="f4_4g"
transform="scale(0.001,-0.001)" />

<path d="M0,-14L351,1007h73L75,-14Z" 
id="f2_j"
transform="scale(0.001,-0.001)" />

<path d="M377,45c0,0,99,0,147,73c0,0,47,73,47,237c0,0,0,161,-47,233c0,0,-47,72,-147,72c0,0,-97,0,-141,-69c0,0,-44,-69,-44,-236c0,0,0,-169,45,-240c0,0,44,-70,140,-70Zm0,-59c0,0,-158,0,-238,94c0,0,-81,95,-81,274c0,0,0,178,81,272c0,0,80,94,244,94c0,0,160,0,241,-92c0,0,82,-92,82,-274c0,0,0,-368,-329,-368Z" 
id="f2_2b"
transform="scale(0.001,-0.001)" />

<path d="M359,-270c0,0,124,0,192,46c0,0,67,47,67,129c0,0,0,43,-26,67c0,0,-26,24,-79,24H242c0,0,-32,-27,-51,-69c0,0,-20,-41,-20,-77c0,0,0,-64,46,-92c0,0,46,-28,142,-28Zm11,561c0,0,81,0,115,47c0,0,34,47,34,141c0,0,0,100,-35,142c0,0,-35,42,-113,42c0,0,-78,0,-114,-43c0,0,-37,-42,-37,-141c0,0,0,-98,36,-143c0,0,36,-45,114,-45ZM359,-329c0,0,-143,0,-218,44c0,0,-75,43,-75,125c0,0,0,39,27,78c0,0,26,38,98,89c0,0,-43,14,-72,48c0,0,-29,35,-29,74L208,262c0,0,-118,55,-118,217c0,0,0,115,73,178c0,0,73,63,211,63c0,0,28,0,71,-6c0,0,44,-6,67,-13l165,83l26,-32L599,644c0,0,50,-56,50,-165c0,0,0,-120,-72,-182c0,0,-73,-62,-208,-62c0,0,-62,0,-114,11L208,148c0,0,2,-13,29,-24c0,0,27,-12,67,-12H512c0,0,113,0,168,-49c0,0,55,-49,55,-134c0,0,0,-79,-44,-137c0,0,-43,-58,-128,-90c0,0,-84,-31,-204,-31Z" 
id="f2_23"
transform="scale(0.001,-0.001)" />

<path d="M83,0C83,0,48,0,24,24C24,24,0,49,0,83c0,0,0,34,24,58c0,0,24,24,59,24c0,0,34,0,58,-24c0,0,24,-24,24,-58c0,0,0,-34,-24,-59C141,24,117,0,83,0ZM695,0c0,0,-34,0,-58,24c0,0,-25,25,-25,59c0,0,0,34,25,58c0,0,24,24,58,24c0,0,34,0,58,-24c0,0,24,-24,24,-58c0,0,0,-34,-24,-59C753,24,729,0,695,0ZM388,594c0,0,-34,0,-59,23c0,0,-24,24,-24,59c0,0,0,34,24,58c0,0,25,25,59,25c0,0,34,0,58,-25c0,0,24,-24,24,-58c0,0,0,-35,-24,-59c0,0,-24,-23,-58,-23Z" 
id="f4_1s"
transform="scale(0.001,-0.001)" />

<path d="M0,-123V1415H525v-72H72V-123Z" 
id="f4_4r"
transform="scale(0.001,-0.001)" />

<path d="M478,-123V1343H26v72H550V-123Z" 
id="f4_57"
transform="scale(0.001,-0.001)" />

<path d="M0,-123V1415H72V-51H525v-72Z" 
id="f4_4t"
transform="scale(0.001,-0.001)" />

<path d="M26,-123v72H478V1415h72V-123Z" 
id="f4_59"
transform="scale(0.001,-0.001)" />

<path d="M0,-302V1034H328V970H119V-238H328v-64Z" 
id="f4_1r"
transform="scale(0.001,-0.001)" />

<path d="M56,-302v64H265V970H56v64H384V-302Z" 
id="f4_1t"
transform="scale(0.001,-0.001)" />

<path d="M412,-328c0,0,-195,96,-303,284C109,-44,0,142,0,365c0,0,0,232,114,422c0,0,114,191,298,273v-31c0,0,-92,-51,-151,-139c0,0,-59,-88,-88,-223c0,0,-29,-136,-29,-282c0,0,0,-167,27,-301c0,0,26,-133,82,-221c0,0,55,-89,159,-159v-32Z" 
id="f4_c"
transform="scale(0.001,-0.001)" />

<path d="M34,-328v32c0,0,92,50,151,138c0,0,59,88,88,222c0,0,29,135,29,283c0,0,0,165,-27,300c0,0,-26,134,-82,222c0,0,-56,89,-159,160v31c0,0,194,-96,303,-284c0,0,108,-187,108,-410c0,0,0,-232,-114,-422c0,0,-114,-191,-297,-272Z" 
id="f4_d"
transform="scale(0.001,-0.001)" />

<path d="M631,416L539,902L283,416ZM576,0l8,40L691,60L643,348H249L96,60L197,40L189,0H-83l8,40L7,60l509,949H659L845,60L938,40L930,0Z" 
id="f3_11"
transform="scale(0.001,-0.001)" />

<path d="M54,0L169,649L81,668l6,33H294L274,558c0,0,62,81,130,121c0,0,67,41,132,41c0,0,75,0,113,-41c0,0,38,-41,38,-117c0,0,0,-10,-3,-32c0,0,-3,-21,-81,-478L700,34L695,0H470l76,434c0,0,17,94,17,123c0,0,0,34,-18,55c0,0,-18,21,-56,21c0,0,-56,0,-121,-47c0,0,-65,-47,-108,-117L178,0Z" 
id="f3_2a"
transform="scale(0.001,-0.001)" />

<path d="M228,-14c0,0,-103,0,-209,46L49,200H83L95,99c0,0,20,-21,55,-38c0,0,36,-16,81,-16c0,0,163,0,163,133c0,0,0,44,-35,78c0,0,-34,34,-113,72c0,0,-75,37,-112,81c0,0,-36,45,-36,104c0,0,0,99,66,153c0,0,67,54,184,54c0,0,85,0,200,-26L521,538H486l-11,80c0,0,-47,42,-124,42c0,0,-61,0,-97,-28c0,0,-37,-28,-37,-87c0,0,0,-40,31,-71c0,0,32,-30,119,-75c0,0,78,-40,113,-86c0,0,36,-47,36,-107c0,0,0,-113,-71,-167c0,0,-72,-53,-217,-53Z" 
id="f3_2f"
transform="scale(0.001,-0.001)" />

<path d="M0,356v74H784V356Z" 
id="f4_h"
transform="scale(0.001,-0.001)" />

<path d="M377,60c0,0,65,0,94,49c0,0,30,49,30,160c0,0,0,115,-30,168c0,0,-29,52,-94,52c0,0,-61,0,-88,-51c0,0,-26,-51,-26,-169c0,0,0,-115,27,-162c0,0,27,-47,87,-47Zm2,509c0,0,51,0,75,43c0,0,24,43,24,143c0,0,0,98,-24,142c0,0,-25,45,-75,45c0,0,-48,0,-71,-45c0,0,-22,-44,-22,-142c0,0,0,-102,22,-144c0,0,22,-42,71,-42ZM377,-14c0,0,-326,0,-326,284c0,0,0,95,46,162c0,0,46,68,128,98c0,0,-72,28,-112,85c0,0,-39,58,-39,141c0,0,0,123,81,191c0,0,81,69,228,69c0,0,145,0,226,-70c0,0,81,-70,81,-192c0,0,0,-82,-40,-140c0,0,-41,-58,-114,-84c0,0,86,-32,132,-99c0,0,45,-67,45,-161c0,0,0,-142,-82,-213c0,0,-81,-71,-254,-71Z" 
id="f5_s"
transform="scale(0.001,-0.001)" />

<path d="M191,-20c0,0,-51,0,-88,34c0,0,-36,36,-36,88c0,0,0,52,36,88c0,0,36,36,88,36c0,0,51,0,88,-36c0,0,36,-36,36,-88c0,0,0,-51,-36,-87c0,0,-36,-35,-88,-35Z" 
id="f5_i"
transform="scale(0.001,-0.001)" />

<path d="M54,0V40L172,60V941L44,960v40H794V760H745L721,922c0,0,-83,11,-241,11H316V516H611l23,120h46V328H634L611,449H316V60L483,40V0Z" 
id="f2_16"
transform="scale(0.001,-0.001)" />

<path d="M383,64c0,0,85,0,152,28V645c0,0,-67,13,-152,13c0,0,-194,0,-194,-314c0,0,0,-141,48,-211c0,0,48,-69,146,-69ZM342,-14c0,0,-287,0,-287,358c0,0,0,184,82,280c0,0,81,96,239,96c0,0,81,0,163,-18c0,0,-4,25,-4,124v182l-118,18v34H659V52L745,33V0H548l-9,52c0,0,-84,-66,-197,-66Z" 
id="f2_20"
transform="scale(0.001,-0.001)" />

<path d="M442,0V33l93,19V504c0,0,0,129,-124,129c0,0,-70,0,-168,-22V52L338,33V0H31V33l88,19v956L15,1026v34H243V756c0,0,0,-77,-5,-112c0,0,54,31,122,53c0,0,68,23,115,23c0,0,91,0,137,-53c0,0,47,-53,47,-154V52L744,33V0Z" 
id="f2_24"
transform="scale(0.001,-0.001)" />

<path d="M64,0V34L168,59V639H47v36l121,29v49c0,0,0,155,61,239c0,0,62,84,173,84c0,0,58,0,107,-15V908H472l-33,92c0,0,-26,16,-62,16c0,0,-47,0,-66,-42c0,0,-19,-42,-19,-157V701H478V639H292V59L443,34V0Z" 
id="f2_22"
transform="scale(0.001,-0.001)" />

<path d="M110,641L64,1000H211L165,641Z" 
id="f2_b"
transform="scale(0.001,-0.001)" />

<path d="M382,45c0,0,188,0,188,314c0,0,0,143,-47,213c0,0,-46,69,-141,69c0,0,-87,0,-146,-24V58c0,0,67,-13,146,-13ZM25,-325v35l88,18V649L34,668v33H231l1,-41c0,0,31,27,84,43c0,0,53,17,107,17c0,0,134,0,208,-94c0,0,73,-93,73,-267c0,0,0,-178,-80,-276c0,0,-80,-97,-232,-97c0,0,-84,0,-160,16c0,0,4,-53,4,-84V-272l123,-18v-35Z" 
id="f2_2c"
transform="scale(0.001,-0.001)" />

<path d="M31,0V33l88,19V649L31,668v33H235l7,-87c0,0,44,37,121,71c0,0,76,35,121,35h11V530H463l-43,82c0,0,-37,0,-88,-10c0,0,-52,-10,-89,-26V52L363,33V0Z" 
id="f2_2e"
transform="scale(0.001,-0.001)" />

<path d="M327,-14L84,649L1,668v33H335V668L219,648L385,174L554,632h63L786,171L944,649L830,668v33h267V668l-78,-16L784,-14H726L553,448L382,-14Z" 
id="f2_2j"
transform="scale(0.001,-0.001)" />

<path d="M399,-14c0,0,-341,0,-341,370c0,0,0,175,87,269c0,0,87,95,249,95c0,0,101,0,220,-23V501H573L541,625c0,0,-62,35,-149,35c0,0,-200,0,-200,-304c0,0,0,-158,61,-225c0,0,61,-67,189,-67c0,0,109,0,189,24V43C631,43,595,16,530,1c0,0,-64,-15,-131,-15Z" 
id="f2_1z"
transform="scale(0.001,-0.001)" />

<path d="M465,786H442L239,946L67,786H45l141,248H324L465,786Z" 
id="f6_5z"
transform="scale(0.001,-0.001)" />

<path d="M350,-14c0,0,-142,0,-269,31L73,228h49L156,87c0,0,29,-16,82,-28c0,0,54,-12,100,-12c0,0,117,0,173,54c0,0,56,53,56,178c0,0,0,99,-52,150c0,0,-51,51,-159,56l-107,6v61l107,7c0,0,84,5,124,52c0,0,41,48,41,145c0,0,0,101,-44,147c0,0,-44,45,-139,45c0,0,-40,0,-83,-10c0,0,-43,-11,-76,-29L153,786H104V979c0,0,74,19,127,26c0,0,54,6,107,6c0,0,321,0,321,-246c0,0,0,-104,-57,-165c0,0,-57,-62,-162,-77c0,0,136,-16,200,-78c0,0,64,-62,64,-173c0,0,0,-135,-92,-211c0,0,-93,-75,-262,-75Z" 
id="f2_n"
transform="scale(0.001,-0.001)" />

<path d="M370,468c0,0,96,0,194,40c0,0,0,229,-45,336c0,0,-45,107,-146,107c0,0,-187,0,-187,-259c0,0,0,-115,45,-169c0,0,45,-55,139,-55ZM312,-14c0,0,-122,0,-223,25V184h48L163,76c0,0,24,-11,65,-20c0,0,40,-9,81,-9c0,0,119,0,183,105c0,0,65,104,71,307c0,0,-113,-62,-230,-62c0,0,-132,0,-208,79c0,0,-76,78,-76,219c0,0,0,151,85,233c0,0,84,83,237,83c0,0,171,0,251,-123c0,0,79,-123,79,-385c0,0,0,-252,-102,-385C599,118,497,-14,312,-14Z" 
id="f2_t"
transform="scale(0.001,-0.001)" />

<path d="M85,0L199,649l-96,19l6,33H332L218,52L335,33L329,0ZM297,849c0,0,-33,0,-57,24c0,0,-24,24,-24,57c0,0,0,33,24,57c0,0,24,24,57,24c0,0,33,0,57,-24c0,0,24,-24,24,-57c0,0,0,-33,-24,-57c0,0,-24,-24,-57,-24Z" 
id="f3_25"
transform="scale(0.001,-0.001)" />

<path d="M-43,-325c0,0,-60,0,-119,23l24,140h35l12,-83c0,0,20,-20,52,-20c0,0,48,0,76,48c0,0,28,48,46,151L210,649L107,668l6,33H342L213,-28c0,0,-27,-151,-90,-224c0,0,-63,-73,-166,-73ZM306,849c0,0,-33,0,-57,24c0,0,-24,24,-24,57c0,0,0,33,24,57c0,0,24,24,57,24c0,0,33,0,57,-24c0,0,24,-24,24,-57c0,0,0,-33,-24,-57c0,0,-24,-24,-57,-24Z" 
id="f3_26"
transform="scale(0.001,-0.001)" />

<path d="M44,0L223,1008l-101,18l6,34H356L228,338L547,647l-70,20l6,34H700l-5,-34L634,650L415,441L596,51L669,34L663,0H487L324,357L214,254L168,0Z" 
id="f3_27"
transform="scale(0.001,-0.001)" />

<path d="M317,45c0,0,74,0,134,54c0,0,60,55,97,153c0,0,36,98,36,200c0,0,0,82,-33,129c0,0,-33,46,-89,46c0,0,-40,0,-93,-29c0,0,-54,-29,-96,-75L192,81c0,0,46,-36,125,-36ZM-88,-325l5,35l90,17L170,649L93,668l6,33H297L283,588c0,0,130,132,235,132c0,0,90,0,145,-67c0,0,55,-66,55,-182c0,0,0,-132,-56,-244C662,227,606,114,510,49c0,0,-97,-63,-209,-63c0,0,-35,0,-72,5c0,0,-37,5,-55,11l-8,-67L130,-273l119,-17l-6,-35Z" 
id="f3_2c"
transform="scale(0.001,-0.001)" />

<path d="M44,0V40L172,60V941L44,960v40H471V960L316,941V65H513c0,0,159,0,234,14l46,208h48L828,0Z" 
id="f2_1c"
transform="scale(0.001,-0.001)" />

<path d="M58,-234v58c0,0,131,42,131,125c0,0,0,15,-11,27c0,0,-11,12,-38,25C140,1,89,27,89,75c0,0,0,40,25,61c0,0,26,21,65,21c0,0,48,0,77,-34c0,0,30,-34,30,-86c0,0,0,-101,-60,-170c0,0,-59,-69,-168,-101Z" 
id="f2_g"
transform="scale(0.001,-0.001)" />

<path d="M305,45c0,0,76,0,141,56c0,0,64,56,101,151c0,0,37,95,37,200c0,0,0,83,-35,129c0,0,-34,46,-92,46c0,0,-44,0,-96,-29c0,0,-51,-29,-97,-75L185,81c0,0,43,-36,120,-36ZM295,-14c0,0,-65,0,-128,16C167,2,104,19,57,48l171,960l-100,18l6,34H358L303,731c0,0,-13,-85,-29,-144c0,0,59,61,122,97c0,0,64,36,116,36c0,0,94,0,150,-67c0,0,56,-67,56,-182c0,0,0,-129,-56,-242C662,229,606,115,509,50c0,0,-98,-64,-214,-64Z" 
id="f3_1y"
transform="scale(0.001,-0.001)" />

<path d="M55,0V40L184,60V941L55,960v40H455V960L327,941V60L455,40V0Z" 
id="f2_19"
transform="scale(0.001,-0.001)" />

<path d="M614,-10c0,0,-47,0,-91,35c0,0,-43,35,-77,190L382,503L160,0H19L337,688c0,0,-25,134,-61,198c0,0,-36,64,-89,64c0,0,-42,0,-74,-32c0,0,-32,-33,-36,-101H51c0,0,2,110,44,176c0,0,42,66,105,66c0,0,40,0,76,-33c0,0,36,-34,63,-114c0,0,26,-80,82,-332L474,343c0,0,32,-147,67,-197c0,0,36,-49,85,-49c0,0,84,0,96,118h26c0,0,0,-118,-38,-172c0,0,-39,-53,-96,-53Z" 
id="f6_f1"
transform="scale(0.001,-0.001)" />

<path d="M620,-14c0,0,-52,0,-93,43c0,0,-41,45,-77,203L384,522L132,0H0L340,703l-12,66c0,0,-23,107,-61,146c0,0,-37,38,-83,38c0,0,-42,0,-74,-30c0,0,-31,-31,-41,-100H43c0,0,2,117,57,187c0,0,40,51,96,51c0,0,50,0,86,-40c0,0,54,-60,88,-213L489,283c0,0,27,-118,62,-153c0,0,33,-36,79,-36c0,0,43,0,71,29c0,0,28,29,33,94h30c0,0,1,-19,1,-29c0,0,0,-98,-49,-158c0,0,-37,-44,-96,-44Z" 
id="f4_28"
transform="scale(0.001,-0.001)" />

<path d="M410,-14c0,0,-80,0,-162,14c0,0,-81,14,-144,38V270h48L178,134c0,0,28,-35,95,-62c0,0,68,-27,134,-27c0,0,104,0,163,53c0,0,58,54,58,148c0,0,0,54,-23,89c0,0,-22,35,-59,59c0,0,-37,24,-84,41c0,0,-47,17,-97,34c0,0,-49,17,-96,38c0,0,-47,21,-84,53c0,0,-37,32,-60,79c0,0,-23,48,-23,117c0,0,0,119,90,187c0,0,89,68,248,68c0,0,121,0,263,-32V771H654L628,893c0,0,-76,55,-188,55c0,0,-100,0,-156,-40c0,0,-56,-41,-56,-112c0,0,0,-49,22,-81c0,0,23,-32,60,-55c0,0,37,-22,84,-39c0,0,48,-16,97,-34c0,0,50,-17,97,-39c0,0,48,-22,85,-56c0,0,36,-34,59,-83c0,0,23,-49,23,-120c0,0,0,-145,-89,-224c0,0,-89,-79,-256,-79Z" 
id="f2_1j"
transform="scale(0.001,-0.001)" />

<path d="M-12,338v55H777V338Z" 
id="f6_4y"
transform="scale(0.001,-0.001)" />

<path d="M377,478c0,0,57,0,112,14v10c0,0,0,216,-25,325c0,0,-26,110,-91,110c0,0,-112,0,-112,-245c0,0,0,-214,116,-214ZM312,-14c0,0,-124,0,-232,31V245h65L177,99c0,0,26,-18,62,-29c0,0,36,-10,70,-10c0,0,80,0,126,91c0,0,45,92,52,265c0,0,-77,-28,-154,-28c0,0,-135,0,-213,81c0,0,-78,80,-78,226c0,0,0,152,87,234c0,0,87,82,242,82c0,0,176,0,257,-123c0,0,81,-123,81,-385c0,0,0,-169,-48,-284C661,219,614,103,525,44c0,0,-89,-58,-213,-58Z" 
id="f5_t"
transform="scale(0.001,-0.001)" />

<path d="M460,-325c0,0,-148,79,-231,172c0,0,-84,93,-123,217c0,0,-39,126,-39,304c0,0,0,178,39,303c0,0,39,125,122,217c0,0,82,93,232,172V997c0,0,-91,-52,-145,-134c0,0,-54,-81,-79,-190c0,0,-25,-109,-25,-305c0,0,0,-194,26,-309c0,0,26,-114,82,-193c0,0,56,-79,141,-128v-63Z" 
id="f2_c"
transform="scale(0.001,-0.001)" />

<path d="M49,-325v63c0,0,85,49,140,128c0,0,56,79,83,194c0,0,26,115,26,308c0,0,0,196,-25,305c0,0,-25,109,-79,190c0,0,-54,82,-145,134v63c0,0,149,-80,232,-172c0,0,83,-92,122,-217c0,0,39,-125,39,-303c0,0,0,-177,-39,-303c0,0,-39,-125,-122,-217c0,0,-83,-93,-232,-173Z" 
id="f2_d"
transform="scale(0.001,-0.001)" />

<path d="M298,-14c0,0,-120,0,-185,69c0,0,-66,69,-66,191c0,0,0,130,52,237c0,0,52,107,149,172c0,0,97,65,203,65c0,0,53,0,112,-12c0,0,60,-11,99,-27L628,485H587L575,615c0,0,-47,47,-125,47c0,0,-72,0,-134,-53c0,0,-62,-53,-100,-147c0,0,-37,-95,-37,-208c0,0,0,-190,154,-190c0,0,106,0,222,74l22,-32c0,0,-60,-56,-135,-88c0,0,-76,-32,-144,-32Z" 
id="f3_1z"
transform="scale(0.001,-0.001)" />

<path d="M17,-325L185,639H64l6,36l127,29l9,49c0,0,30,167,100,245c0,0,71,78,191,78c0,0,57,0,104,-15L574,915H538l-14,85c0,0,-22,16,-63,16c0,0,-45,0,-72,-39c0,0,-26,-39,-48,-160L319,701H475L465,639H309L141,-325Z" 
id="f3_22"
transform="scale(0.001,-0.001)" />

<path d="M52,62L0,114L278,390L0,667l52,52L330,442L608,719l51,-51L382,390L659,114L608,62L330,338L52,62Z" 
id="f4_3a"
transform="scale(0.001,-0.001)" />


</defs>
</svg>