<?xml version="1.0" encoding="UTF-8" standalone="no"?>
<!DOCTYPE svg PUBLIC "-//W3C//DTD SVG 1.1//EN"
"http://www.w3.org/Graphics/SVG/1.1/DTD/svg11.dtd">
<svg viewBox="0 0 909 1286" version="1.1" xmlns="http://www.w3.org/2000/svg" xmlns:xlink="http://www.w3.org/1999/xlink">
<defs>
<clipPath id="c0_69"><path d="M55.2,188.6V126.1H531.6v62.5Z" /></clipPath>
<clipPath id="c1_69"><path d="M84.1,291.7V238.5H302.7v53.2Z" /></clipPath>
<clipPath id="c2_69"><path d="M55.2,349.3V294.7H250.6v54.6Z" /></clipPath>
<clipPath id="c3_69"><path d="M55.2,403.9V350.7H321.4v53.2Z" /></clipPath>
<clipPath id="c4_69"><path d="M55.2,487.9V430.4h156v57.5Z" /></clipPath>
<clipPath id="c5_69"><path d="M252.1,537.3V517.8h24v19.5Z" /></clipPath>
<clipPath id="c6_69"><path d="M339.3,537.3V514.1H450.9v23.2Z" /></clipPath>
<clipPath id="c7_69"><path d="M55.2,596V539.6H178.6V596Z" /></clipPath>
<clipPath id="c8_69"><path d="M55.2,682.6V598.1H199.8v84.5Z" /></clipPath>
<clipPath id="c9_69"><path d="M55.2,733.5V684.7H234.5v48.8Z" /></clipPath>
<clipPath id="c10_69"><path d="M55.2,788.5V735.3H289.1v53.2Z" /></clipPath>
<clipPath id="c11_69"><path d="M55.2,843.5V790.3H205.8v53.2Z" /></clipPath>
<clipPath id="c12_69"><path d="M125.9,921.6V869.5H274.8v52.1Z" /></clipPath>
<clipPath id="c13_69"><path d="M84.1,1001.2V948H261.4v53.2Z" /></clipPath>
<clipPath id="c14_69"><path d="M84.1,1056.6v-53.2h263v53.2Z" /></clipPath>
<clipPath id="c15_69"><path d="M114.6,1107.1v-48.7H343v48.7Z" /></clipPath>
<clipPath id="c16_69"><path d="M55.2,1157.8V1109H501.8v48.8Z" /></clipPath>
<style type="text/css"><![CDATA[
.g0_69{
fill: #D9D9D9;
}
.g1_69{
fill: none;
stroke: #000000;
stroke-width: 0.7638889;
stroke-linecap: butt;
stroke-linejoin: miter;
}
.g2_69{
fill: none;
stroke: #000000;
stroke-width: 0.91204345;
stroke-linecap: butt;
stroke-linejoin: round;
}
.g3_69{
fill: none;
stroke: #000000;
stroke-width: 0.9093275;
stroke-linecap: butt;
stroke-linejoin: round;
}
.g4_69{
fill: none;
stroke: #000000;
stroke-width: 0.90779227;
stroke-linecap: butt;
stroke-linejoin: round;
}
.g5_69{
fill: none;
stroke: #000000;
stroke-width: 0.9116566;
stroke-linecap: butt;
stroke-linejoin: round;
}
.g6_69{
fill: none;
stroke: #000000;
stroke-width: 0.90769833;
stroke-linecap: butt;
stroke-linejoin: round;
}
.g7_69{
fill: none;
stroke: #000000;
stroke-width: 0.90153813;
stroke-linecap: butt;
stroke-linejoin: round;
}
.g8_69{
fill: none;
stroke: #000000;
stroke-width: 0.90249974;
stroke-linecap: butt;
stroke-linejoin: round;
}
.g9_69{
fill: none;
stroke: #000000;
stroke-width: 0.21086793;
stroke-linecap: square;
stroke-linejoin: round;
}
.g10_69{
}
.g11_69{
fill: none;
stroke: #000000;
stroke-width: 0.41364765;
stroke-linecap: butt;
stroke-linejoin: round;
}
.g12_69{
fill: none;
stroke: #000000;
stroke-width: 0.91064274;
stroke-linecap: butt;
stroke-linejoin: round;
}
.g13_69{
fill: none;
stroke: #000000;
stroke-width: 0.21277052;
stroke-linecap: square;
stroke-linejoin: round;
}
.g14_69{
fill: none;
stroke: #000000;
stroke-width: 0.21263921;
stroke-linecap: square;
stroke-linejoin: round;
}
.g15_69{
fill: none;
stroke: #000000;
stroke-width: 0.9100807;
stroke-linecap: butt;
stroke-linejoin: round;
}
.g16_69{
fill: none;
stroke: #000000;
stroke-width: 0.21088862;
stroke-linecap: square;
stroke-linejoin: round;
}
.g17_69{
fill: none;
stroke: #000000;
stroke-width: 0.9025883;
stroke-linecap: butt;
stroke-linejoin: round;
}
.g18_69{
fill: none;
stroke: #000000;
stroke-width: 0.7510526;
stroke-linecap: butt;
stroke-linejoin: round;
}
.g19_69{
fill: none;
stroke: #000000;
stroke-width: 0.90760905;
stroke-linecap: butt;
stroke-linejoin: round;
}
.g20_69{
fill: none;
stroke: #000000;
stroke-width: 0.9107083;
stroke-linecap: butt;
stroke-linejoin: round;
}
.g21_69{
fill: none;
stroke: #000000;
stroke-width: 0.9064464;
stroke-linecap: butt;
stroke-linejoin: round;
}
.g22_69{
fill: none;
stroke: #000000;
stroke-width: 0.9133732;
stroke-linecap: butt;
stroke-linejoin: round;
}
]]></style>
</defs>
<image preserveAspectRatio="none" x="747" y="1196" width="96" height="59" xlink:href="img/1.png" />
<image preserveAspectRatio="none" x="336" y="41" width="259" height="51" xlink:href="img/2.png" />
<image preserveAspectRatio="none" x="342" y="50" width="247" height="27" xlink:href="img/3.png" />
<image preserveAspectRatio="none" x="341" y="45" width="239" height="42" xlink:href="img/4.png" />
<g fill="#FFFFFF" >
<use xlink:href="#f0_j" transform="matrix(11.5,0,0,11.5,355.1,70.1)" />
<use xlink:href="#f0_i" transform="matrix(11.5,0,0,11.5,364.3,70.1)" />
<use xlink:href="#f0_2n" transform="matrix(11.5,0,0,11.5,374.1,70.1)" />
<use xlink:href="#f0_t" transform="matrix(11.5,0,0,11.5,382.6,70.1)" />
<use xlink:href="#f0_oj" transform="matrix(11.5,0,0,11.5,391,70.1)" />
<use xlink:href="#f0_3e" transform="matrix(11.5,0,0,11.5,396.5,70.1)" />
<use xlink:href="#f0_1c" transform="matrix(11.5,0,0,11.5,406.1,70.1)" />
<use xlink:href="#f0_1c" transform="matrix(11.5,0,0,11.5,410.8,70.1)" />
<use xlink:href="#f0_oj" transform="matrix(11.5,0,0,11.5,415.6,70.1)" />
<use xlink:href="#f0_rz" transform="matrix(11.5,0,0,11.5,421.1,70.1)" />
<use xlink:href="#f0_rx" transform="matrix(11.5,0,0,11.5,429.9,70.1)" />
<use xlink:href="#f0_ry" transform="matrix(11.5,0,0,11.5,438.7,70.1)" />
<use xlink:href="#f0_s3" transform="matrix(11.5,0,0,11.5,447.5,70.1)" />
<use xlink:href="#f0_t" transform="matrix(11.5,0,0,11.5,460.4,70.1)" />
<use xlink:href="#f0_3e" transform="matrix(11.5,0,0,11.5,468.8,70.1)" />
<use xlink:href="#f0_5" transform="matrix(11.5,0,0,11.5,478.3,70.1)" />
<use xlink:href="#f0_1x" transform="matrix(11.5,0,0,11.5,489,70.1)" />
<use xlink:href="#f0_1c" transform="matrix(11.5,0,0,11.5,504.4,70.1)" />
<use xlink:href="#f0_1y" transform="matrix(11.5,0,0,11.5,509.1,70.1)" />
<use xlink:href="#f0_5" transform="matrix(11.5,0,0,11.5,520.8,70.1)" />
<use xlink:href="#f0_2t" transform="matrix(11.5,0,0,11.5,531.5,70.1)" />
<use xlink:href="#f0_1c" transform="matrix(11.5,0,0,11.5,540.2,70.1)" />
<use xlink:href="#f0_24" transform="matrix(11.5,0,0,11.5,545,70.1)" />
<use xlink:href="#f0_1y" transform="matrix(11.5,0,0,11.5,556.7,70.1)" />
</g>
<image preserveAspectRatio="none" x="554" y="45" width="36" height="42" xlink:href="img/5.png" />
<g fill="#FFFFFF" >
<use xlink:href="#f1_q" transform="matrix(11,0,0,11,770.3,1227.6)" />
<use xlink:href="#f1_j" transform="matrix(11,0,0,11,783.5,1227.6)" />
<use xlink:href="#f1_l" transform="matrix(11,0,0,11,794.1,1227.6)" />
<use xlink:href="#f1_r" transform="matrix(11,0,0,11,802.9,1227.6)" />
</g>
<path fill-rule="evenodd" d="M52.8,1193.5H856.9v-.8H52.8v.8Z" class="g0_69" />
<path d="M37.9,99.4L873,98.5" class="g1_69" />
<path d="M80.9,159.7H99.7m105,0h18.8m42.8,0h18.8m113.8,0h18.8m42.1,0h18.8" class="g2_69" />
<g clip-path="url(#c0_69)">
<g fill="#000000" >
<use xlink:href="#f2_p" transform="matrix(7.3,0,0,7.2,135.7,138.9)" />
<use xlink:href="#f2_m" transform="matrix(7.3,0,0,7.2,233.2,138.9)" />
<use xlink:href="#f2_p" transform="matrix(7.3,0,0,7.2,330.5,138.9)" />
<use xlink:href="#f2_n" transform="matrix(7.3,0,0,7.2,427,138.9)" />
<use xlink:href="#f2_p" transform="matrix(7.3,0,0,7.2,522.9,138.9)" />
<use xlink:href="#f2_m" transform="matrix(7.3,0,0,7.2,91.9,144)" />
<use xlink:href="#f2_m" transform="matrix(7.3,0,0,7.2,215.8,144)" />
<use xlink:href="#f2_m" transform="matrix(7.3,0,0,7.2,277.3,144)" />
<use xlink:href="#f2_m" transform="matrix(7.3,0,0,7.2,409.9,144)" />
<use xlink:href="#f2_m" transform="matrix(7.3,0,0,7.2,470.8,144)" />
<use xlink:href="#f2_l" transform="matrix(7.3,0,0,7.2,134.9,185.7)" />
<use xlink:href="#f2_l" transform="matrix(7.3,0,0,7.2,232,185.7)" />
<use xlink:href="#f2_m" transform="matrix(7.3,0,0,7.2,330.8,185.7)" />
<use xlink:href="#f2_l" transform="matrix(7.3,0,0,7.2,426.2,185.7)" />
<use xlink:href="#f2_n" transform="matrix(7.3,0,0,7.2,522.9,185.7)" />
<use xlink:href="#f2_m" transform="matrix(12.6,0,0,12.4,168.3,164.3)" />
<use xlink:href="#f2_m" transform="matrix(12.6,0,0,12.4,303.1,164.3)" />
<use xlink:href="#f2_n" transform="matrix(12.6,0,0,12.4,363,164.3)" />
<use xlink:href="#f2_n" transform="matrix(12.6,0,0,12.4,496,164.3)" />
<use xlink:href="#f2_m" transform="matrix(12.6,0,0,12.4,86,179)" />
<use xlink:href="#f2_m" transform="matrix(12.6,0,0,12.4,209.8,179)" />
<use xlink:href="#f2_m" transform="matrix(12.6,0,0,12.4,271.3,179)" />
<use xlink:href="#f2_m" transform="matrix(12.6,0,0,12.4,403.9,179)" />
<use xlink:href="#f2_n" transform="matrix(12.6,0,0,12.4,464.8,179)" />
<use xlink:href="#f3_2k" transform="matrix(12.6,0,0,12.4,82.9,152.4)" />
<use xlink:href="#f3_2k" transform="matrix(12.6,0,0,12.4,206.7,152.4)" />
<use xlink:href="#f3_2k" transform="matrix(12.6,0,0,12.4,268.2,152.4)" />
<use xlink:href="#f3_2k" transform="matrix(12.6,0,0,12.4,400.8,152.4)" />
<use xlink:href="#f3_2k" transform="matrix(12.6,0,0,12.4,461.7,152.4)" />
<use xlink:href="#f3_2k" transform="matrix(12.6,0,0,12.4,118.6,164.3)" />
<use xlink:href="#f3_2k" transform="matrix(12.6,0,0,12.4,178.6,164.3)" />
<use xlink:href="#f3_2k" transform="matrix(12.6,0,0,12.4,313.4,164.3)" />
<use xlink:href="#f3_2k" transform="matrix(12.6,0,0,12.4,372.7,164.3)" />
<use xlink:href="#f3_2k" transform="matrix(12.6,0,0,12.4,505.7,164.3)" />
<use xlink:href="#f4_4r" transform="matrix(12.6,0,0,12.4,72.8,151.5)" />
<use xlink:href="#f4_57" transform="matrix(12.6,0,0,12.4,127.9,151.5)" />
<use xlink:href="#f4_4r" transform="matrix(12.6,0,0,12.4,160.5,151.5)" />
<use xlink:href="#f4_57" transform="matrix(12.6,0,0,12.4,225,151.5)" />
<use xlink:href="#f4_4r" transform="matrix(12.6,0,0,12.4,258.1,151.5)" />
<use xlink:href="#f4_57" transform="matrix(12.6,0,0,12.4,322.6,151.5)" />
<use xlink:href="#f4_4r" transform="matrix(12.6,0,0,12.4,355.7,151.5)" />
<use xlink:href="#f4_57" transform="matrix(12.6,0,0,12.4,419.1,151.5)" />
<use xlink:href="#f4_4r" transform="matrix(12.6,0,0,12.4,451.5,151.5)" />
<use xlink:href="#f4_57" transform="matrix(12.6,0,0,12.4,514.9,151.5)" />
<use xlink:href="#f4_x" transform="matrix(12.6,0,0,12.4,58,164.3)" />
<use xlink:href="#f4_h" transform="matrix(12.6,0,0,12.4,104,164.3)" />
<use xlink:href="#f4_f" transform="matrix(12.6,0,0,12.4,146.1,164.3)" />
<use xlink:href="#f4_h" transform="matrix(12.6,0,0,12.4,190.6,164.3)" />
<use xlink:href="#f4_f" transform="matrix(12.6,0,0,12.4,243.8,164.3)" />
<use xlink:href="#f4_h" transform="matrix(12.6,0,0,12.4,289.3,164.3)" />
<use xlink:href="#f4_f" transform="matrix(12.6,0,0,12.4,341.4,164.3)" />
<use xlink:href="#f4_h" transform="matrix(12.6,0,0,12.4,384.8,164.3)" />
<use xlink:href="#f4_f" transform="matrix(12.6,0,0,12.4,437.2,164.3)" />
<use xlink:href="#f4_h" transform="matrix(12.6,0,0,12.4,482.7,164.3)" />
<use xlink:href="#f4_4s" transform="matrix(12.6,0,0,12.4,72.8,169.4)" />
<use xlink:href="#f4_58" transform="matrix(12.6,0,0,12.4,127.9,169.4)" />
<use xlink:href="#f4_4s" transform="matrix(12.6,0,0,12.4,160.5,169.4)" />
<use xlink:href="#f4_58" transform="matrix(12.6,0,0,12.4,225,169.4)" />
<use xlink:href="#f4_4s" transform="matrix(12.6,0,0,12.4,258.1,169.4)" />
<use xlink:href="#f4_58" transform="matrix(12.6,0,0,12.4,322.6,169.4)" />
<use xlink:href="#f4_4s" transform="matrix(12.6,0,0,12.4,355.7,169.4)" />
<use xlink:href="#f4_58" transform="matrix(12.6,0,0,12.4,419.1,169.4)" />
<use xlink:href="#f4_4s" transform="matrix(12.6,0,0,12.4,451.5,169.4)" />
<use xlink:href="#f4_58" transform="matrix(12.6,0,0,12.4,514.9,169.4)" />
<use xlink:href="#f4_4t" transform="matrix(12.6,0,0,12.4,72.8,183.4)" />
<use xlink:href="#f4_59" transform="matrix(12.6,0,0,12.4,127.9,183.4)" />
<use xlink:href="#f4_4t" transform="matrix(12.6,0,0,12.4,160.5,183.4)" />
<use xlink:href="#f4_59" transform="matrix(12.6,0,0,12.4,225,183.4)" />
<use xlink:href="#f4_4t" transform="matrix(12.6,0,0,12.4,258.1,183.4)" />
<use xlink:href="#f4_59" transform="matrix(12.6,0,0,12.4,322.6,183.4)" />
<use xlink:href="#f4_4t" transform="matrix(12.6,0,0,12.4,355.7,183.4)" />
<use xlink:href="#f4_59" transform="matrix(12.6,0,0,12.4,419.1,183.4)" />
<use xlink:href="#f4_4t" transform="matrix(12.6,0,0,12.4,451.5,183.4)" />
<use xlink:href="#f4_59" transform="matrix(12.6,0,0,12.4,514.9,183.4)" />
</g>
</g>
<g fill="#000000" >
<use xlink:href="#f2_x" transform="matrix(12,0,0,12,55,208.7)" />
<use xlink:href="#f2_l" transform="matrix(12,0,0,12,70.1,208.7)" />
<use xlink:href="#f2_r" transform="matrix(12,0,0,12,79.2,208.7)" />
<use xlink:href="#f5_1f" transform="matrix(12,0,0,12,440.9,232.9)" />
<use xlink:href="#f5_1i" transform="matrix(12,0,0,12,455.2,232.9)" />
<use xlink:href="#f2_1c" transform="matrix(12,0,0,12,55,270.3)" />
<use xlink:href="#f2_21" transform="matrix(12,0,0,12,66,270.3)" />
<use xlink:href="#f2_2g" transform="matrix(12,0,0,12,74.1,270.3)" />
</g>
<path d="M129.2,265.8h78.5" class="g3_69" />
<g clip-path="url(#c1_69)">
<g fill="#000000" >
<use xlink:href="#f2_m" transform="matrix(7.3,0,0,7.1,188.6,276.9)" />
<use xlink:href="#f2_2f" transform="matrix(12.7,0,0,12.3,157.2,258.6)" />
<use xlink:href="#f2_25" transform="matrix(12.7,0,0,12.3,164.4,258.6)" />
<use xlink:href="#f2_2a" transform="matrix(12.7,0,0,12.3,169.6,258.6)" />
<use xlink:href="#f2_i" transform="matrix(12.7,0,0,12.3,262.9,270.5)" />
<use xlink:href="#f2_i" transform="matrix(12.7,0,0,12.3,267.5,270.5)" />
<use xlink:href="#f2_i" transform="matrix(12.7,0,0,12.3,272.1,270.5)" />
<use xlink:href="#f2_i" transform="matrix(12.7,0,0,12.3,276.8,270.5)" />
<use xlink:href="#f2_c" transform="matrix(12.7,0,0,12.3,281.4,270.5)" />
<use xlink:href="#f2_d" transform="matrix(12.7,0,0,12.3,293.2,270.5)" />
<use xlink:href="#f2_k" transform="matrix(12.7,0,0,12.3,114.9,284.7)" />
<use xlink:href="#f2_l" transform="matrix(12.7,0,0,12.3,128.4,285.1)" />
<use xlink:href="#f2_n" transform="matrix(12.7,0,0,12.3,153.1,285.1)" />
<use xlink:href="#f2_1z" transform="matrix(12.7,0,0,12.3,163.3,285.1)" />
<use xlink:href="#f2_2b" transform="matrix(12.7,0,0,12.3,171.4,285.1)" />
<use xlink:href="#f2_2f" transform="matrix(12.7,0,0,12.3,180.6,285.1)" />
<use xlink:href="#f3_2k" transform="matrix(12.7,0,0,12.3,147.3,258.6)" />
<use xlink:href="#f3_2k" transform="matrix(12.7,0,0,12.3,182.5,258.6)" />
<use xlink:href="#f3_19" transform="matrix(12.7,0,0,12.3,87.5,270.5)" />
<use xlink:href="#f3_20" transform="matrix(12.7,0,0,12.3,210.5,270.5)" />
<use xlink:href="#f3_2k" transform="matrix(12.7,0,0,12.3,219.7,270.5)" />
<use xlink:href="#f3_25" transform="matrix(12.7,0,0,12.3,287.3,270.5)" />
<use xlink:href="#f3_2k" transform="matrix(12.7,0,0,12.3,198.5,285.1)" />
<use xlink:href="#f4_2c" transform="matrix(12.7,0,0,12.3,114.6,256.9)" />
<use xlink:href="#f4_x" transform="matrix(12.7,0,0,12.3,100,270.5)" />
<use xlink:href="#f4_f" transform="matrix(12.7,0,0,12.3,139.6,285.1)" />
</g>
</g>
<path d="M100,322H227.7" class="g4_69" />
<g clip-path="url(#c2_69)">
<g fill="#000000" >
<use xlink:href="#f2_m" transform="matrix(7.3,0,0,7.1,159.1,333)" />
<use xlink:href="#f2_c" transform="matrix(12.6,0,0,12.3,103,314.7)" />
<use xlink:href="#f2_d" transform="matrix(12.6,0,0,12.3,146.2,314.7)" />
<use xlink:href="#f2_2f" transform="matrix(12.6,0,0,12.3,153.9,314.7)" />
<use xlink:href="#f2_25" transform="matrix(12.6,0,0,12.3,161,314.7)" />
<use xlink:href="#f2_2a" transform="matrix(12.6,0,0,12.3,166.2,314.7)" />
<use xlink:href="#f2_c" transform="matrix(12.6,0,0,12.3,175.3,314.7)" />
<use xlink:href="#f2_d" transform="matrix(12.6,0,0,12.3,218.5,314.7)" />
<use xlink:href="#f2_k" transform="matrix(12.6,0,0,12.3,85.8,340.8)" />
<use xlink:href="#f2_l" transform="matrix(12.6,0,0,12.3,99.2,341.3)" />
<use xlink:href="#f2_n" transform="matrix(12.6,0,0,12.3,123.8,341.3)" />
<use xlink:href="#f2_1z" transform="matrix(12.6,0,0,12.3,134,341.3)" />
<use xlink:href="#f2_2b" transform="matrix(12.6,0,0,12.3,142,341.3)" />
<use xlink:href="#f2_2f" transform="matrix(12.6,0,0,12.3,151.1,341.3)" />
<use xlink:href="#f2_c" transform="matrix(12.6,0,0,12.3,177.5,341.3)" />
<use xlink:href="#f2_d" transform="matrix(12.6,0,0,12.3,220.7,341.3)" />
<use xlink:href="#f3_2k" transform="matrix(12.6,0,0,12.3,137.7,314.7)" />
<use xlink:href="#f3_2k" transform="matrix(12.6,0,0,12.3,210,314.7)" />
<use xlink:href="#f3_19" transform="matrix(12.6,0,0,12.3,58.5,326.6)" />
<use xlink:href="#f3_20" transform="matrix(12.6,0,0,12.3,230.4,326.6)" />
<use xlink:href="#f3_2k" transform="matrix(12.6,0,0,12.3,239.6,326.6)" />
<use xlink:href="#f3_2k" transform="matrix(12.6,0,0,12.3,169,341.3)" />
<use xlink:href="#f3_2k" transform="matrix(12.6,0,0,12.3,212.2,341.3)" />
<use xlink:href="#f4_2c" transform="matrix(12.6,0,0,12.3,85.5,313)" />
<use xlink:href="#f4_2c" transform="matrix(12.6,0,0,12.3,109.6,314.7)" />
<use xlink:href="#f4_h" transform="matrix(12.6,0,0,12.3,123.1,314.7)" />
<use xlink:href="#f4_2c" transform="matrix(12.6,0,0,12.3,181.9,314.7)" />
<use xlink:href="#f4_h" transform="matrix(12.6,0,0,12.3,195.4,314.7)" />
<use xlink:href="#f4_x" transform="matrix(12.6,0,0,12.3,71,326.6)" />
<use xlink:href="#f4_f" transform="matrix(12.6,0,0,12.3,110.3,341.3)" />
<use xlink:href="#f4_2c" transform="matrix(12.6,0,0,12.3,184.1,341.3)" />
<use xlink:href="#f4_h" transform="matrix(12.6,0,0,12.3,197.6,341.3)" />
</g>
</g>
<path d="M87,378h78.3m52.3,0h78.3" class="g5_69" />
<g clip-path="url(#c3_69)">
<g fill="#000000" >
<use xlink:href="#f2_m" transform="matrix(7.3,0,0,7.1,146.2,389.1)" />
<use xlink:href="#f2_m" transform="matrix(7.3,0,0,7.1,276.8,389.1)" />
<use xlink:href="#f2_2f" transform="matrix(12.7,0,0,12.3,115.2,370.8)" />
<use xlink:href="#f2_25" transform="matrix(12.7,0,0,12.3,122.4,370.8)" />
<use xlink:href="#f2_2a" transform="matrix(12.7,0,0,12.3,127.6,370.8)" />
<use xlink:href="#f2_2f" transform="matrix(12.7,0,0,12.3,245.5,370.8)" />
<use xlink:href="#f2_25" transform="matrix(12.7,0,0,12.3,252.7,370.8)" />
<use xlink:href="#f2_2a" transform="matrix(12.7,0,0,12.3,257.9,370.8)" />
<use xlink:href="#f2_k" transform="matrix(12.7,0,0,12.3,72.8,396.9)" />
<use xlink:href="#f2_k" transform="matrix(12.7,0,0,12.3,203.4,396.9)" />
<use xlink:href="#f2_l" transform="matrix(12.7,0,0,12.3,86.2,397.4)" />
<use xlink:href="#f2_n" transform="matrix(12.7,0,0,12.3,110.9,397.4)" />
<use xlink:href="#f2_1z" transform="matrix(12.7,0,0,12.3,121,397.4)" />
<use xlink:href="#f2_2b" transform="matrix(12.7,0,0,12.3,129.1,397.4)" />
<use xlink:href="#f2_2f" transform="matrix(12.7,0,0,12.3,138.3,397.4)" />
<use xlink:href="#f2_l" transform="matrix(12.7,0,0,12.3,216.8,397.4)" />
<use xlink:href="#f2_n" transform="matrix(12.7,0,0,12.3,241.4,397.4)" />
<use xlink:href="#f2_1z" transform="matrix(12.7,0,0,12.3,251.6,397.4)" />
<use xlink:href="#f2_2b" transform="matrix(12.7,0,0,12.3,259.7,397.4)" />
<use xlink:href="#f2_2f" transform="matrix(12.7,0,0,12.3,268.9,397.4)" />
<use xlink:href="#f3_2k" transform="matrix(12.7,0,0,12.3,140.4,370.8)" />
<use xlink:href="#f3_2k" transform="matrix(12.7,0,0,12.3,235.6,370.8)" />
<use xlink:href="#f3_2k" transform="matrix(12.7,0,0,12.3,270.7,370.8)" />
<use xlink:href="#f3_20" transform="matrix(12.7,0,0,12.3,168.1,382.7)" />
<use xlink:href="#f3_2k" transform="matrix(12.7,0,0,12.3,177.3,382.7)" />
<use xlink:href="#f3_20" transform="matrix(12.7,0,0,12.3,298.7,382.7)" />
<use xlink:href="#f3_2k" transform="matrix(12.7,0,0,12.3,307.9,382.7)" />
<use xlink:href="#f3_2k" transform="matrix(12.7,0,0,12.3,156.2,397.4)" />
<use xlink:href="#f3_2k" transform="matrix(12.7,0,0,12.3,286.7,397.4)" />
<use xlink:href="#f4_2c" transform="matrix(12.7,0,0,12.3,72.5,369.1)" />
<use xlink:href="#f4_2c" transform="matrix(12.7,0,0,12.3,203.1,369.1)" />
<use xlink:href="#f4_2c" transform="matrix(12.7,0,0,12.3,103.9,370.8)" />
<use xlink:href="#f4_x" transform="matrix(12.7,0,0,12.3,58,382.7)" />
<use xlink:href="#f4_h" transform="matrix(12.7,0,0,12.3,189.3,382.7)" />
<use xlink:href="#f4_f" transform="matrix(12.7,0,0,12.3,97.3,397.4)" />
<use xlink:href="#f4_f" transform="matrix(12.7,0,0,12.3,227.9,397.4)" />
</g>
</g>
<g fill="#000000" >
<use xlink:href="#f2_11" transform="matrix(12,0,0,12,55,424.3)" />
<use xlink:href="#f2_20" transform="matrix(12,0,0,12,67.9,424.3)" />
<use xlink:href="#f2_20" transform="matrix(12,0,0,12,77,424.3)" />
<use xlink:href="#f2_25" transform="matrix(12,0,0,12,86.6,424.3)" />
<use xlink:href="#f2_2a" transform="matrix(12,0,0,12,91.3,424.3)" />
<use xlink:href="#f2_23" transform="matrix(12,0,0,12,100.5,424.3)" />
<use xlink:href="#f2_c" transform="matrix(12,0,0,12,114.4,424.3)" />
<use xlink:href="#f2_25" transform="matrix(12,0,0,12,121,424.3)" />
<use xlink:href="#f2_d" transform="matrix(12,0,0,12,125.4,424.3)" />
<use xlink:href="#f2_a" transform="matrix(12,0,0,12,136.3,424.3)" />
<use xlink:href="#f2_c" transform="matrix(12,0,0,12,155,424.3)" />
<use xlink:href="#f2_25" transform="matrix(12,0,0,12,161.6,424.3)" />
<use xlink:href="#f2_25" transform="matrix(12,0,0,12,166.4,424.3)" />
<use xlink:href="#f2_d" transform="matrix(12,0,0,12,171.1,424.3)" />
<use xlink:href="#f2_g" transform="matrix(12,0,0,12,177.4,424.3)" />
<use xlink:href="#f2_2j" transform="matrix(12,0,0,12,186.9,424.3)" />
<use xlink:href="#f2_21" transform="matrix(12,0,0,12,200.1,424.3)" />
<use xlink:href="#f2_24" transform="matrix(12,0,0,12,212.9,424.3)" />
<use xlink:href="#f2_1x" transform="matrix(12,0,0,12,221.7,424.3)" />
<use xlink:href="#f2_2i" transform="matrix(12,0,0,12,230.1,424.3)" />
<use xlink:href="#f2_21" transform="matrix(12,0,0,12,238.9,424.3)" />
</g>
<path d="M106.1,459.1h78.8" class="g6_69" />
<g clip-path="url(#c4_69)">
<g fill="#000000" >
<use xlink:href="#f2_m" transform="matrix(7.3,0,0,7.1,165.6,470.1)" />
<use xlink:href="#f2_k" transform="matrix(7.3,0,0,7.1,96.7,483.6)" />
<use xlink:href="#f2_2f" transform="matrix(12.6,0,0,12.3,134.5,451.9)" />
<use xlink:href="#f2_25" transform="matrix(12.6,0,0,12.3,141.7,451.9)" />
<use xlink:href="#f2_2a" transform="matrix(12.6,0,0,12.3,146.9,451.9)" />
<use xlink:href="#f2_m" transform="matrix(12.6,0,0,12.3,58,463.7)" />
<use xlink:href="#f2_l" transform="matrix(12.6,0,0,12.3,105.2,478.3)" />
<use xlink:href="#f2_n" transform="matrix(12.6,0,0,12.3,130,478.3)" />
<use xlink:href="#f2_1z" transform="matrix(12.6,0,0,12.3,140.3,478.3)" />
<use xlink:href="#f2_2b" transform="matrix(12.6,0,0,12.3,148.4,478.3)" />
<use xlink:href="#f2_2f" transform="matrix(12.6,0,0,12.3,157.6,478.3)" />
<use xlink:href="#f3_2k" transform="matrix(12.6,0,0,12.3,159.8,451.9)" />
<use xlink:href="#f3_19" transform="matrix(12.6,0,0,12.3,68.1,463.7)" />
<use xlink:href="#f3_20" transform="matrix(12.6,0,0,12.3,190,463.7)" />
<use xlink:href="#f3_2k" transform="matrix(12.6,0,0,12.3,199.2,463.7)" />
<use xlink:href="#f3_2k" transform="matrix(12.6,0,0,12.3,175.6,478.3)" />
<use xlink:href="#f4_2c" transform="matrix(7.3,0,0,7.1,96.5,442.6)" />
<use xlink:href="#f4_2c" transform="matrix(12.6,0,0,12.3,123,451.9)" />
<use xlink:href="#f4_x" transform="matrix(12.6,0,0,12.3,80.7,463.7)" />
<use xlink:href="#f4_f" transform="matrix(12.6,0,0,12.3,116.5,478.3)" />
<use xlink:href="#f4_50" transform="matrix(18.9,0,0,18.4,95.6,470.3)" />
</g>
</g>
<g fill="#000000" >
<use xlink:href="#f2_1g" transform="matrix(12,0,0,12,55,508)" />
<use xlink:href="#f2_2h" transform="matrix(12,0,0,12,65.3,508)" />
<use xlink:href="#f2_2g" transform="matrix(12,0,0,12,74.5,508)" />
<use xlink:href="#f2_1z" transform="matrix(12,0,0,12,84.3,508)" />
<use xlink:href="#f2_2b" transform="matrix(12,0,0,12,92,508)" />
<use xlink:href="#f2_2f" transform="matrix(12,0,0,12,101.5,508)" />
<use xlink:href="#f2_2k" transform="matrix(12,0,0,12,113.3,508)" />
<use xlink:href="#f2_x" transform="matrix(12,0,0,12,126.8,508)" />
<use xlink:href="#f2_2g" transform="matrix(12,0,0,12,141.5,508)" />
<use xlink:href="#f6_4y" transform="matrix(12,0,0,12,55,532.6)" />
<use xlink:href="#f2_2f" transform="matrix(12,0,0,12,64.2,532.6)" />
<use xlink:href="#f2_25" transform="matrix(12,0,0,12,71.5,532.6)" />
<use xlink:href="#f2_2a" transform="matrix(12,0,0,12,76.3,532.6)" />
<use xlink:href="#f2_2k" transform="matrix(12,0,0,12,90.2,532.6)" />
<use xlink:href="#f2_20" transform="matrix(12,0,0,12,103.7,532.6)" />
<use xlink:href="#f2_2k" transform="matrix(12,0,0,12,112.9,532.6)" />
<use xlink:href="#f2_x" transform="matrix(12,0,0,12,126.5,532.6)" />
<use xlink:href="#f2_20" transform="matrix(12,0,0,12,141.5,532.6)" />
<use xlink:href="#f2_2g" transform="matrix(12,0,0,12,150.6,532.6)" />
<use xlink:href="#f2_g" transform="matrix(12,0,0,12,156.1,532.6)" />
<use xlink:href="#f2_2j" transform="matrix(12,0,0,12,165.3,532.6)" />
<use xlink:href="#f2_24" transform="matrix(12,0,0,12,178.5,532.6)" />
<use xlink:href="#f2_21" transform="matrix(12,0,0,12,187.3,532.6)" />
<use xlink:href="#f2_2a" transform="matrix(12,0,0,12,195.7,532.6)" />
<use xlink:href="#f2_2k" transform="matrix(12,0,0,12,209.2,532.6)" />
<use xlink:href="#f2_x" transform="matrix(12,0,0,12,222.8,532.6)" />
<use xlink:href="#f2_k" transform="matrix(12,0,0,12,237.8,532.6)" />
</g>
<g clip-path="url(#c5_69)">
<g fill="#000000" >
<use xlink:href="#f4_4g" transform="matrix(12.4,0,0,12.3,254.4,532.9)" />
</g>
</g>
<g fill="#000000" >
<use xlink:href="#f2_2g" transform="matrix(12,0,0,12,275.1,532.6)" />
<use xlink:href="#f2_x" transform="matrix(12,0,0,12,285,532.6)" />
<use xlink:href="#f2_l" transform="matrix(12,0,0,12,300,532.6)" />
<use xlink:href="#f2_g" transform="matrix(12,0,0,12,308.8,532.6)" />
<use xlink:href="#f2_22" transform="matrix(12,0,0,12,318.3,532.6)" />
<use xlink:href="#f2_2b" transform="matrix(12,0,0,12,323.8,532.6)" />
<use xlink:href="#f2_2e" transform="matrix(12,0,0,12,333.3,532.6)" />
</g>
<g clip-path="url(#c6_69)">
<g fill="#000000" >
<use xlink:href="#f2_l" transform="matrix(13.1,0,0,12.7,440.1,532.8)" />
<use xlink:href="#f3_2k" transform="matrix(13.1,0,0,12.7,343,532.8)" />
<use xlink:href="#f3_2g" transform="matrix(13.1,0,0,12.7,405.4,532.8)" />
<use xlink:href="#f4_x" transform="matrix(13.1,0,0,12.7,355.6,532.8)" />
<use xlink:href="#f4_2c" transform="matrix(13.1,0,0,12.7,370,532.8)" />
<use xlink:href="#f4_4g" transform="matrix(13.1,0,0,12.7,383.6,532.8)" />
<use xlink:href="#f4_x" transform="matrix(13.1,0,0,12.7,415.7,532.8)" />
<use xlink:href="#f4_h" transform="matrix(13.1,0,0,12.7,430.1,532.8)" />
</g>
</g>
<path d="M128.4,568.5h46.3" class="g7_69" />
<g clip-path="url(#c7_69)">
<g fill="#000000" >
<use xlink:href="#f2_l" transform="matrix(7.3,0,0,7.2,121.4,551.9)" />
<use xlink:href="#f2_m" transform="matrix(7.3,0,0,7.2,167,579.6)" />
<use xlink:href="#f2_l" transform="matrix(7.3,0,0,7.2,118,593.2)" />
<use xlink:href="#f2_m" transform="matrix(12.5,0,0,12.4,57.9,573.2)" />
<use xlink:href="#f2_l" transform="matrix(12.5,0,0,12.4,127.6,587.9)" />
<use xlink:href="#f2_n" transform="matrix(12.5,0,0,12.4,152.1,587.9)" />
<use xlink:href="#f3_20" transform="matrix(12.5,0,0,12.4,144.1,561.3)" />
<use xlink:href="#f3_2g" transform="matrix(12.5,0,0,12.4,153.3,561.3)" />
<use xlink:href="#f3_19" transform="matrix(12.5,0,0,12.4,67.9,573.2)" />
<use xlink:href="#f3_2g" transform="matrix(12.5,0,0,12.4,160.3,587.9)" />
<use xlink:href="#f4_h" transform="matrix(7.3,0,0,7.2,115.7,551.9)" />
<use xlink:href="#f4_x" transform="matrix(12.5,0,0,12.4,80.4,573.2)" />
<use xlink:href="#f4_h" transform="matrix(12.5,0,0,12.4,94.8,573.2)" />
<use xlink:href="#f4_2c" transform="matrix(12.5,0,0,12.4,105.3,573.2)" />
<use xlink:href="#f4_f" transform="matrix(12.5,0,0,12.4,138.7,587.9)" />
<use xlink:href="#f4_50" transform="matrix(18.8,0,0,18.5,117,579.9)" />
</g>
</g>
<path d="M72.7,626.5H84.5" class="g8_69" />
<path d="M113,671.9l1.8,-1.1m0,0l4.5,7.3m0,0l4.9,-19.4m0,0h9.3" class="g9_69" />
<path fill-rule="evenodd" d="M112.1,670.9l2.5,-1.4l3.9,6l4.6,-17.9h9.7v.9h-9.1L119,677.4h-.9l-4.5,-6.7l-1.3,.7l-.2,-.5Z" class="g10_69" />
<path d="M110.6,655.6h23.6" class="g11_69" />
<path d="M100.2,626.5h95.4" class="g8_69" />
<g clip-path="url(#c8_69)">
<g fill="#000000" >
<use xlink:href="#f2_l" transform="matrix(7.2,0,0,7.1,89.7,610.1)" />
<use xlink:href="#f2_m" transform="matrix(7.2,0,0,7.1,144.5,636.9)" />
<use xlink:href="#f2_l" transform="matrix(7.2,0,0,7.1,93.2,650.9)" />
<use xlink:href="#f2_m" transform="matrix(7.2,0,0,7.1,187.9,652)" />
<use xlink:href="#f2_n" transform="matrix(12.4,0,0,12.2,74.3,645.7)" />
<use xlink:href="#f2_l" transform="matrix(12.4,0,0,12.2,117.8,648.8)" />
<use xlink:href="#f2_c" transform="matrix(12.4,0,0,12.2,168.9,660.2)" />
<use xlink:href="#f2_d" transform="matrix(12.4,0,0,12.2,181.2,660.2)" />
<use xlink:href="#f2_n" transform="matrix(12.4,0,0,12.2,123.6,675.7)" />
<use xlink:href="#f3_20" transform="matrix(12.4,0,0,12.2,140.5,619.3)" />
<use xlink:href="#f3_2g" transform="matrix(12.4,0,0,12.2,149.6,619.3)" />
<use xlink:href="#f3_2g" transform="matrix(12.4,0,0,12.2,174.9,660.2)" />
<use xlink:href="#f4_h" transform="matrix(7.2,0,0,7.1,87.4,650.9)" />
<use xlink:href="#f4_2c" transform="matrix(12.4,0,0,12.2,73.9,619.3)" />
<use xlink:href="#f4_x" transform="matrix(12.4,0,0,12.2,58,631.1)" />
<use xlink:href="#f4_4o" transform="matrix(12.4,0,0,12.2,100.8,649.4)" />
<use xlink:href="#f4_54" transform="matrix(12.4,0,0,12.2,136.9,649.4)" />
<use xlink:href="#f4_f" transform="matrix(12.4,0,0,12.2,155.1,660.2)" />
<use xlink:href="#f4_4p" transform="matrix(12.4,0,0,12.2,100.8,665.8)" />
<use xlink:href="#f4_55" transform="matrix(12.4,0,0,12.2,136.9,665.8)" />
<use xlink:href="#f4_4q" transform="matrix(12.4,0,0,12.2,100.8,677.4)" />
<use xlink:href="#f4_56" transform="matrix(12.4,0,0,12.2,136.9,677.4)" />
<use xlink:href="#f4_50" transform="matrix(18.6,0,0,18.3,88.7,637.7)" />
</g>
</g>
<path d="M72.7,710.7H84.4" class="g12_69" />
<path d="M101.9,711.4l1.9,-1m0,0l4.4,7.4m0,0l4.9,-19.6m0,0h9.3" class="g13_69" />
<path fill-rule="evenodd" d="M101,710.5l2.6,-1.4l3.9,6L112,697h9.7v.9h-9L108,717.1h-.9l-4.5,-6.9l-1.3,.8l-.3,-.5Z" class="g10_69" />
<path d="M178.6,711.4l1.9,-1m0,0l4.4,7.4m0,0l4.9,-19.6m0,0h9.4" class="g13_69" />
<path fill-rule="evenodd" d="M177.7,710.5l2.5,-1.4l4,6L188.7,697h9.7v.9h-9l-4.8,19.2h-.9l-4.4,-6.9L178,711l-.3,-.5Z" class="g10_69" />
<g clip-path="url(#c9_69)">
<g fill="#000000" >
<use xlink:href="#f4_c" transform="matrix(12.5,0,0,22.2,169.9,718.7)" />
<use xlink:href="#f4_d" transform="matrix(12.5,0,0,22.2,204.8,718.7)" />
<use xlink:href="#f2_l" transform="matrix(7.4,0,0,7.1,218.5,698.4)" />
<use xlink:href="#f2_l" transform="matrix(7.4,0,0,7.1,162.2,707)" />
<use xlink:href="#f2_l" transform="matrix(7.4,0,0,7.1,225.4,728.2)" />
<use xlink:href="#f2_n" transform="matrix(12.7,0,0,12.4,112.6,715.3)" />
<use xlink:href="#f2_2g" transform="matrix(12.7,0,0,12.4,132.8,715.3)" />
<use xlink:href="#f2_1x" transform="matrix(12.7,0,0,12.4,138,715.3)" />
<use xlink:href="#f2_2a" transform="matrix(12.7,0,0,12.4,146,715.3)" />
<use xlink:href="#f2_n" transform="matrix(12.7,0,0,12.4,189.2,715.3)" />
<use xlink:href="#f2_n" transform="matrix(12.7,0,0,12.4,74.3,730)" />
<use xlink:href="#f3_2g" transform="matrix(12.7,0,0,12.4,197.5,715.3)" />
<use xlink:href="#f4_h" transform="matrix(7.4,0,0,7.1,156.5,707)" />
<use xlink:href="#f4_h" transform="matrix(7.4,0,0,7.1,219.6,728.2)" />
<use xlink:href="#f4_2c" transform="matrix(12.7,0,0,12.4,73.9,703.4)" />
<use xlink:href="#f4_4r" transform="matrix(12.7,0,0,12.4,124.8,711.1)" />
<use xlink:href="#f4_57" transform="matrix(12.7,0,0,12.4,211.5,711.1)" />
<use xlink:href="#f4_x" transform="matrix(12.7,0,0,12.4,58,715.3)" />
<use xlink:href="#f4_3a" transform="matrix(12.7,0,0,12.4,87.6,715.3)" />
<use xlink:href="#f4_4t" transform="matrix(12.7,0,0,12.4,124.8,726)" />
<use xlink:href="#f4_59" transform="matrix(12.7,0,0,12.4,211.5,726)" />
</g>
</g>
<path d="M75,754.7l1.8,-1.1m.1,0l4.4,7.4m0,0l4.8,-19.6m0,0h9.3" class="g14_69" />
<path fill-rule="evenodd" d="M74.1,753.7l2.5,-1.4l4,6l4.4,-18h9.7v.9h-9L81,760.3h-.9l-4.5,-6.9l-1.2,.8l-.3,-.5Z" class="g10_69" />
<path d="M72.7,765.8h32.2" class="g15_69" />
<path d="M154.7,766.6l1.9,-1.1m0,0l4.4,7.4m0,0l4.9,-19.6m0,0h9.3" class="g14_69" />
<path fill-rule="evenodd" d="M153.8,765.6l2.5,-1.4l4,6l4.4,-18h9.7v.9h-9l-4.7,19h-.9l-4.5,-6.7l-1.2,.7l-.3,-.5Z" class="g10_69" />
<path d="M249.8,766.6l1.8,-1.1m0,0l4.4,7.4m0,0l4.9,-19.6m0,0h9.3" class="g14_69" />
<path fill-rule="evenodd" d="M248.8,765.6l2.5,-1.4l4,6l4.5,-18h9.6v.9h-9l-4.7,19h-.9l-4.4,-6.7l-1.3,.7l-.3,-.5Z" class="g10_69" />
<g clip-path="url(#c10_69)">
<g fill="#000000" >
<use xlink:href="#f2_l" transform="matrix(7.3,0,0,7.1,145.3,762.1)" />
<use xlink:href="#f2_l" transform="matrix(7.3,0,0,7.1,240.3,762.1)" />
<use xlink:href="#f2_n" transform="matrix(12.7,0,0,12.3,85.6,758.5)" />
<use xlink:href="#f2_2g" transform="matrix(12.7,0,0,12.3,116,770.4)" />
<use xlink:href="#f2_1x" transform="matrix(12.7,0,0,12.3,121.2,770.4)" />
<use xlink:href="#f2_2a" transform="matrix(12.7,0,0,12.3,129.1,770.4)" />
<use xlink:href="#f2_n" transform="matrix(12.7,0,0,12.3,165.2,770.4)" />
<use xlink:href="#f2_c" transform="matrix(12.7,0,0,12.3,192,770.4)" />
<use xlink:href="#f2_2g" transform="matrix(12.7,0,0,12.3,211,770.4)" />
<use xlink:href="#f2_1x" transform="matrix(12.7,0,0,12.3,216.1,770.4)" />
<use xlink:href="#f2_2a" transform="matrix(12.7,0,0,12.3,224.1,770.4)" />
<use xlink:href="#f2_n" transform="matrix(12.7,0,0,12.3,260.2,770.4)" />
<use xlink:href="#f2_d" transform="matrix(12.7,0,0,12.3,270.1,770.4)" />
<use xlink:href="#f2_n" transform="matrix(12.7,0,0,12.3,84.5,785.1)" />
<use xlink:href="#f4_h" transform="matrix(7.3,0,0,7.1,139.6,762.1)" />
<use xlink:href="#f4_h" transform="matrix(7.3,0,0,7.1,234.6,762.1)" />
<use xlink:href="#f4_2c" transform="matrix(12.7,0,0,12.3,94.4,758.5)" />
<use xlink:href="#f4_4r" transform="matrix(12.7,0,0,12.3,108,767.8)" />
<use xlink:href="#f4_57" transform="matrix(12.7,0,0,12.3,277.3,767.8)" />
<use xlink:href="#f4_x" transform="matrix(12.7,0,0,12.3,58,770.4)" />
<use xlink:href="#f4_h" transform="matrix(12.7,0,0,12.3,178.7,770.4)" />
<use xlink:href="#f4_h" transform="matrix(12.7,0,0,12.3,198.6,770.4)" />
<use xlink:href="#f4_4t" transform="matrix(12.7,0,0,12.3,108,779.4)" />
<use xlink:href="#f4_59" transform="matrix(12.7,0,0,12.3,277.3,779.4)" />
</g>
</g>
<path d="M88.2,809.7l1.9,-1.1m0,0l4.4,7.4m0,0l4.9,-19.6m0,0h9.5" class="g16_69" />
<path fill-rule="evenodd" d="M87.3,808.7l2.6,-1.4l3.9,6l4.5,-18h9.8v.9H99l-4.7,19.1h-.9l-4.6,-6.9l-1.2,.8l-.3,-.5Z" class="g10_69" />
<path d="M85.9,820.8h32.5m11.2,0h11.8" class="g17_69" />
<path d="M163.6,809.7l1.8,-1.1m.1,0l4.4,7.4m0,0l4.9,-19.6m0,0h9.4" class="g16_69" />
<path fill-rule="evenodd" d="M162.7,808.7l2.5,-1.4l4,6l4.5,-18h9.8v.9h-9.1l-4.8,19.1h-.9l-4.5,-6.9l-1.2,.8l-.3,-.5Z" class="g10_69" />
<path d="M161.3,820.8h40.1" class="g17_69" />
<g clip-path="url(#c11_69)">
<g fill="#000000" >
<use xlink:href="#f2_m" transform="matrix(7.3,0,0,7.1,193.7,805.2)" />
<use xlink:href="#f2_n" transform="matrix(12.6,0,0,12.3,98.9,813.5)" />
<use xlink:href="#f2_n" transform="matrix(12.6,0,0,12.3,174.2,813.5)" />
<use xlink:href="#f2_n" transform="matrix(12.6,0,0,12.3,97.8,840.1)" />
<use xlink:href="#f2_n" transform="matrix(12.6,0,0,12.3,131.1,840.1)" />
<use xlink:href="#f2_t" transform="matrix(12.6,0,0,12.3,176.7,840.1)" />
<use xlink:href="#f3_19" transform="matrix(12.6,0,0,12.3,58.5,825.4)" />
<use xlink:href="#f4_2c" transform="matrix(12.6,0,0,12.3,107.8,813.5)" />
<use xlink:href="#f4_2c" transform="matrix(12.6,0,0,12.3,130.7,813.5)" />
<use xlink:href="#f4_2c" transform="matrix(12.6,0,0,12.3,183.1,813.5)" />
<use xlink:href="#f4_x" transform="matrix(12.6,0,0,12.3,71.1,825.4)" />
<use xlink:href="#f4_49" transform="matrix(12.6,0,0,12.3,121.8,825.4)" />
<use xlink:href="#f4_x" transform="matrix(12.6,0,0,12.3,146.4,825.4)" />
</g>
</g>
<g fill="#000000" >
<use xlink:href="#f5_l" transform="matrix(12,0,0,12,55,900.4)" />
<use xlink:href="#f5_n" transform="matrix(12,0,0,12,64.2,900.4)" />
<use xlink:href="#f5_i" transform="matrix(12,0,0,12,73.4,900.4)" />
<use xlink:href="#f2_16" transform="matrix(12,0,0,12,82.9,900.4)" />
<use xlink:href="#f2_25" transform="matrix(12,0,0,12,93.2,900.4)" />
<use xlink:href="#f2_2a" transform="matrix(12,0,0,12,97.9,900.4)" />
<use xlink:href="#f2_20" transform="matrix(12,0,0,12,106.7,900.4)" />
<use xlink:href="#f2_u" transform="matrix(12,0,0,12,115.9,900.4)" />
</g>
<path d="M139.3,895.6H250.6" class="g18_69" />
<g clip-path="url(#c12_69)">
<g fill="#000000" >
<use xlink:href="#f2_m" transform="matrix(7.3,0,0,7.2,156.8,906.3)" />
<use xlink:href="#f2_m" transform="matrix(7.3,0,0,7.2,209.7,906.3)" />
<use xlink:href="#f2_m" transform="matrix(12.6,0,0,12.4,174.2,888.7)" />
<use xlink:href="#f2_l" transform="matrix(12.6,0,0,12.4,208.6,888.7)" />
<use xlink:href="#f2_c" transform="matrix(12.6,0,0,12.4,140.3,914.6)" />
<use xlink:href="#f2_l" transform="matrix(12.6,0,0,12.4,179.4,914.6)" />
<use xlink:href="#f2_d" transform="matrix(12.6,0,0,12.4,187.2,914.6)" />
<use xlink:href="#f2_c" transform="matrix(12.6,0,0,12.4,193.2,914.6)" />
<use xlink:href="#f2_o" transform="matrix(12.6,0,0,12.4,234.3,914.6)" />
<use xlink:href="#f2_d" transform="matrix(12.6,0,0,12.4,243.5,914.6)" />
<use xlink:href="#f3_2k" transform="matrix(12.6,0,0,12.4,184.5,888.7)" />
<use xlink:href="#f3_20" transform="matrix(12.6,0,0,12.4,253.3,900.2)" />
<use xlink:href="#f3_2k" transform="matrix(12.6,0,0,12.4,262.5,900.2)" />
<use xlink:href="#f3_2k" transform="matrix(12.6,0,0,12.4,147.7,914.6)" />
<use xlink:href="#f3_2k" transform="matrix(12.6,0,0,12.4,200.6,914.6)" />
<use xlink:href="#f4_f" transform="matrix(12.6,0,0,12.4,196.5,888.7)" />
<use xlink:href="#f4_f" transform="matrix(12.6,0,0,12.4,167.4,914.6)" />
<use xlink:href="#f4_f" transform="matrix(12.6,0,0,12.4,220.3,914.6)" />
<use xlink:href="#f4_50" transform="matrix(18.9,0,0,18.6,129,907)" />
</g>
</g>
<g fill="#000000" >
<use xlink:href="#f5_1j" transform="matrix(12,0,0,12,55,942.2)" />
<use xlink:href="#f5_2b" transform="matrix(12,0,0,12,65.3,942.2)" />
<use xlink:href="#f5_28" transform="matrix(12,0,0,12,74.5,942.2)" />
<use xlink:href="#f5_2h" transform="matrix(12,0,0,12,79.2,942.2)" />
<use xlink:href="#f5_2g" transform="matrix(12,0,0,12,89.5,942.2)" />
<use xlink:href="#f5_25" transform="matrix(12,0,0,12,95.7,942.2)" />
<use xlink:href="#f5_2b" transform="matrix(12,0,0,12,100.8,942.2)" />
<use xlink:href="#f5_2a" transform="matrix(12,0,0,12,109.9,942.2)" />
<use xlink:href="#f5_u" transform="matrix(12,0,0,12,120.2,942.2)" />
<use xlink:href="#f2_1c" transform="matrix(12,0,0,12,55,978.2)" />
<use xlink:href="#f2_21" transform="matrix(12,0,0,12,66,978.2)" />
<use xlink:href="#f2_2g" transform="matrix(12,0,0,12,74.1,978.2)" />
</g>
<path d="M124.9,973.8H235.2" class="g19_69" />
<g clip-path="url(#c13_69)">
<g fill="#000000" >
<use xlink:href="#f2_m" transform="matrix(7.3,0,0,7.1,142.1,984.8)" />
<use xlink:href="#f2_m" transform="matrix(7.3,0,0,7.1,194.7,984.8)" />
<use xlink:href="#f2_m" transform="matrix(12.6,0,0,12.3,159.4,966.5)" />
<use xlink:href="#f2_l" transform="matrix(12.6,0,0,12.3,193.6,966.5)" />
<use xlink:href="#f2_c" transform="matrix(12.6,0,0,12.3,125.8,993.1)" />
<use xlink:href="#f2_l" transform="matrix(12.6,0,0,12.3,164.6,993.1)" />
<use xlink:href="#f2_d" transform="matrix(12.6,0,0,12.3,172.3,993.1)" />
<use xlink:href="#f2_c" transform="matrix(12.6,0,0,12.3,178.3,993.1)" />
<use xlink:href="#f2_o" transform="matrix(12.6,0,0,12.3,219.1,993.1)" />
<use xlink:href="#f2_d" transform="matrix(12.6,0,0,12.3,228.3,993.1)" />
<use xlink:href="#f3_2k" transform="matrix(12.6,0,0,12.3,169.6,966.5)" />
<use xlink:href="#f3_19" transform="matrix(12.6,0,0,12.3,87.5,978.5)" />
<use xlink:href="#f3_20" transform="matrix(12.6,0,0,12.3,240.2,978.5)" />
<use xlink:href="#f3_2k" transform="matrix(12.6,0,0,12.3,249.3,978.5)" />
<use xlink:href="#f3_2k" transform="matrix(12.6,0,0,12.3,133.2,993.1)" />
<use xlink:href="#f3_2k" transform="matrix(12.6,0,0,12.3,185.8,993.1)" />
<use xlink:href="#f4_f" transform="matrix(12.6,0,0,12.3,181.6,966.5)" />
<use xlink:href="#f4_x" transform="matrix(12.6,0,0,12.3,99.9,978.5)" />
<use xlink:href="#f4_f" transform="matrix(12.6,0,0,12.3,152.7,993.1)" />
<use xlink:href="#f4_f" transform="matrix(12.6,0,0,12.3,205.3,993.1)" />
<use xlink:href="#f4_50" transform="matrix(19,0,0,18.5,114.6,985.1)" />
</g>
</g>
<g fill="#000000" >
<use xlink:href="#f2_1c" transform="matrix(12,0,0,12,55,1033.6)" />
<use xlink:href="#f2_21" transform="matrix(12,0,0,12,66,1033.6)" />
<use xlink:href="#f2_2g" transform="matrix(12,0,0,12,74.1,1033.6)" />
</g>
<path d="M87.2,1029.2H198.1m19.9,0h52.7m18.7,0h53.8" class="g20_69" />
<g clip-path="url(#c14_69)">
<g fill="#000000" >
<use xlink:href="#f2_m" transform="matrix(7.3,0,0,7.1,104.6,1040.2)" />
<use xlink:href="#f2_m" transform="matrix(7.3,0,0,7.1,157.4,1040.2)" />
<use xlink:href="#f2_m" transform="matrix(7.3,0,0,7.1,234.4,1040.2)" />
<use xlink:href="#f2_m" transform="matrix(7.3,0,0,7.1,304.6,1040.2)" />
<use xlink:href="#f2_m" transform="matrix(12.7,0,0,12.3,121.9,1021.9)" />
<use xlink:href="#f2_l" transform="matrix(12.7,0,0,12.3,156.2,1021.9)" />
<use xlink:href="#f2_c" transform="matrix(12.7,0,0,12.3,88,1048.5)" />
<use xlink:href="#f2_l" transform="matrix(12.7,0,0,12.3,127.2,1048.5)" />
<use xlink:href="#f2_d" transform="matrix(12.7,0,0,12.3,134.9,1048.5)" />
<use xlink:href="#f2_c" transform="matrix(12.7,0,0,12.3,140.9,1048.5)" />
<use xlink:href="#f2_o" transform="matrix(12.7,0,0,12.3,182,1048.5)" />
<use xlink:href="#f2_d" transform="matrix(12.7,0,0,12.3,191.2,1048.5)" />
<use xlink:href="#f2_l" transform="matrix(12.7,0,0,12.3,257,1048.5)" />
<use xlink:href="#f2_o" transform="matrix(12.7,0,0,12.3,329.2,1048.5)" />
<use xlink:href="#f3_2k" transform="matrix(12.7,0,0,12.3,132.2,1021.9)" />
<use xlink:href="#f3_11" transform="matrix(12.7,0,0,12.3,220.5,1021.9)" />
<use xlink:href="#f3_2k" transform="matrix(12.7,0,0,12.3,231.7,1021.9)" />
<use xlink:href="#f3_12" transform="matrix(12.7,0,0,12.3,258.4,1021.9)" />
<use xlink:href="#f3_13" transform="matrix(12.7,0,0,12.3,289.9,1021.9)" />
<use xlink:href="#f3_2k" transform="matrix(12.7,0,0,12.3,302.2,1021.9)" />
<use xlink:href="#f3_14" transform="matrix(12.7,0,0,12.3,328.8,1021.9)" />
<use xlink:href="#f3_2k" transform="matrix(12.7,0,0,12.3,95.5,1048.5)" />
<use xlink:href="#f3_2k" transform="matrix(12.7,0,0,12.3,148.4,1048.5)" />
<use xlink:href="#f3_2k" transform="matrix(12.7,0,0,12.3,225.4,1048.5)" />
<use xlink:href="#f3_2k" transform="matrix(12.7,0,0,12.3,295.6,1048.5)" />
<use xlink:href="#f4_f" transform="matrix(12.7,0,0,12.3,144.2,1021.9)" />
<use xlink:href="#f4_f" transform="matrix(12.7,0,0,12.3,243.8,1021.9)" />
<use xlink:href="#f4_f" transform="matrix(12.7,0,0,12.3,314.2,1021.9)" />
<use xlink:href="#f4_x" transform="matrix(12.7,0,0,12.3,203.2,1033.8)" />
<use xlink:href="#f4_f" transform="matrix(12.7,0,0,12.3,275,1033.8)" />
<use xlink:href="#f4_f" transform="matrix(12.7,0,0,12.3,115.1,1048.5)" />
<use xlink:href="#f4_f" transform="matrix(12.7,0,0,12.3,168,1048.5)" />
<use xlink:href="#f4_f" transform="matrix(12.7,0,0,12.3,245,1048.5)" />
<use xlink:href="#f4_f" transform="matrix(12.7,0,0,12.3,315.2,1048.5)" />
</g>
</g>
<g fill="#000000" >
<use xlink:href="#f2_17" transform="matrix(12,0,0,12,55,1088.9)" />
<use xlink:href="#f2_21" transform="matrix(12,0,0,12,68.3,1088.9)" />
<use xlink:href="#f2_2g" transform="matrix(12,0,0,12,76.3,1088.9)" />
<use xlink:href="#f2_2g" transform="matrix(12,0,0,12,81.4,1088.9)" />
<use xlink:href="#f2_25" transform="matrix(12,0,0,12,86.9,1088.9)" />
<use xlink:href="#f2_2a" transform="matrix(12,0,0,12,91.7,1088.9)" />
<use xlink:href="#f2_23" transform="matrix(12,0,0,12,100.5,1088.9)" />
</g>
<path d="M148.8,1084.3h10.9m42.5,0h9.7m43,0h21m44.4,0h19.6" class="g21_69" />
<g clip-path="url(#c15_69)">
<g fill="#000000" >
<use xlink:href="#f2_m" transform="matrix(12.7,0,0,12.4,150,1077)" />
<use xlink:href="#f2_l" transform="matrix(12.7,0,0,12.4,202.4,1077)" />
<use xlink:href="#f2_m" transform="matrix(12.7,0,0,12.4,266.1,1077)" />
<use xlink:href="#f2_l" transform="matrix(12.7,0,0,12.4,331.5,1077)" />
<use xlink:href="#f2_g" transform="matrix(12.7,0,0,12.4,161.9,1088.9)" />
<use xlink:href="#f2_g" transform="matrix(12.7,0,0,12.4,214.1,1088.9)" />
<use xlink:href="#f2_g" transform="matrix(12.7,0,0,12.4,278.1,1088.9)" />
<use xlink:href="#f2_n" transform="matrix(12.7,0,0,12.4,150,1103.6)" />
<use xlink:href="#f2_n" transform="matrix(12.7,0,0,12.4,202.7,1103.6)" />
<use xlink:href="#f2_n" transform="matrix(12.7,0,0,12.4,261.1,1103.6)" />
<use xlink:href="#f2_n" transform="matrix(12.7,0,0,12.4,325.8,1103.6)" />
<use xlink:href="#f3_11" transform="matrix(12.7,0,0,12.4,118.8,1088.9)" />
<use xlink:href="#f3_12" transform="matrix(12.7,0,0,12.4,171.3,1088.9)" />
<use xlink:href="#f3_13" transform="matrix(12.7,0,0,12.4,222.4,1088.9)" />
<use xlink:href="#f3_14" transform="matrix(12.7,0,0,12.4,287.5,1088.9)" />
<use xlink:href="#f4_h" transform="matrix(12.7,0,0,12.4,256.1,1077)" />
<use xlink:href="#f4_h" transform="matrix(12.7,0,0,12.4,321.5,1077)" />
<use xlink:href="#f4_x" transform="matrix(12.7,0,0,12.4,134,1088.9)" />
<use xlink:href="#f4_x" transform="matrix(12.7,0,0,12.4,187.3,1088.9)" />
<use xlink:href="#f4_x" transform="matrix(12.7,0,0,12.4,240.1,1088.9)" />
<use xlink:href="#f4_x" transform="matrix(12.7,0,0,12.4,305.5,1088.9)" />
</g>
</g>
<path d="M106,1134.9h10.8m13.4,0h42m40.5,0h9.8m13.4,0h41.9m40.6,0h20.9m13.4,0h45.4m18.6,0h19.4m15.7,0h45.4" class="g22_69" />
<g clip-path="url(#c16_69)">
<g fill="#000000" >
<use xlink:href="#f2_m" transform="matrix(7.4,0,0,7.1,141.3,1146)" />
<use xlink:href="#f2_m" transform="matrix(7.4,0,0,7.1,246.9,1146)" />
<use xlink:href="#f2_m" transform="matrix(7.4,0,0,7.1,363.7,1146)" />
<use xlink:href="#f2_m" transform="matrix(7.4,0,0,7.1,462.8,1146)" />
<use xlink:href="#f2_m" transform="matrix(12.8,0,0,12.4,107.1,1127.7)" />
<use xlink:href="#f2_l" transform="matrix(12.8,0,0,12.4,213,1127.7)" />
<use xlink:href="#f2_m" transform="matrix(12.8,0,0,12.4,329.5,1127.7)" />
<use xlink:href="#f2_l" transform="matrix(12.8,0,0,12.4,427.8,1127.7)" />
<use xlink:href="#f2_n" transform="matrix(12.8,0,0,12.4,107.1,1154.3)" />
<use xlink:href="#f2_l" transform="matrix(12.8,0,0,12.4,163.9,1154.3)" />
<use xlink:href="#f2_n" transform="matrix(12.8,0,0,12.4,213.3,1154.3)" />
<use xlink:href="#f2_l" transform="matrix(12.8,0,0,12.4,269.5,1154.3)" />
<use xlink:href="#f2_n" transform="matrix(12.8,0,0,12.4,324.5,1154.3)" />
<use xlink:href="#f2_o" transform="matrix(12.8,0,0,12.4,388.2,1154.3)" />
<use xlink:href="#f2_n" transform="matrix(12.8,0,0,12.4,422,1154.3)" />
<use xlink:href="#f2_o" transform="matrix(12.8,0,0,12.4,487.4,1154.3)" />
<use xlink:href="#f3_2k" transform="matrix(12.8,0,0,12.4,147.6,1127.7)" />
<use xlink:href="#f3_2k" transform="matrix(12.8,0,0,12.4,253.3,1127.7)" />
<use xlink:href="#f3_2k" transform="matrix(12.8,0,0,12.4,363.2,1127.7)" />
<use xlink:href="#f3_20" transform="matrix(12.8,0,0,12.4,371.2,1127.7)" />
<use xlink:href="#f3_2k" transform="matrix(12.8,0,0,12.4,380.4,1127.7)" />
<use xlink:href="#f3_20" transform="matrix(12.8,0,0,12.4,465.9,1127.7)" />
<use xlink:href="#f3_2k" transform="matrix(12.8,0,0,12.4,475.1,1127.7)" />
<use xlink:href="#f3_19" transform="matrix(12.8,0,0,12.4,78.7,1139.6)" />
<use xlink:href="#f3_20" transform="matrix(12.8,0,0,12.4,177.2,1139.6)" />
<use xlink:href="#f3_2k" transform="matrix(12.8,0,0,12.4,186.4,1139.6)" />
<use xlink:href="#f3_20" transform="matrix(12.8,0,0,12.4,282.9,1139.6)" />
<use xlink:href="#f3_2k" transform="matrix(12.8,0,0,12.4,292,1139.6)" />
<use xlink:href="#f3_2k" transform="matrix(12.8,0,0,12.4,132.2,1154.3)" />
<use xlink:href="#f3_2k" transform="matrix(12.8,0,0,12.4,237.9,1154.3)" />
<use xlink:href="#f3_2k" transform="matrix(12.8,0,0,12.4,354.7,1154.3)" />
<use xlink:href="#f3_2k" transform="matrix(12.8,0,0,12.4,453.8,1154.3)" />
<use xlink:href="#f4_h" transform="matrix(12.8,0,0,12.4,319.5,1127.7)" />
<use xlink:href="#f4_h" transform="matrix(12.8,0,0,12.4,417.8,1127.7)" />
<use xlink:href="#f4_1s" transform="matrix(12.8,0,0,12.4,55.1,1139.6)" />
<use xlink:href="#f4_x" transform="matrix(12.8,0,0,12.4,91.2,1139.6)" />
<use xlink:href="#f4_f" transform="matrix(12.8,0,0,12.4,198.4,1139.6)" />
<use xlink:href="#f4_f" transform="matrix(12.8,0,0,12.4,304.1,1139.6)" />
<use xlink:href="#f4_f" transform="matrix(12.8,0,0,12.4,402.4,1139.6)" />
<use xlink:href="#f4_f" transform="matrix(12.8,0,0,12.4,151.8,1154.3)" />
<use xlink:href="#f4_f" transform="matrix(12.8,0,0,12.4,257.5,1154.3)" />
<use xlink:href="#f4_f" transform="matrix(12.8,0,0,12.4,374.3,1154.3)" />
<use xlink:href="#f4_f" transform="matrix(12.8,0,0,12.4,473.4,1154.3)" />
<use xlink:href="#f4_50" transform="matrix(19.1,0,0,18.5,119.9,1146.3)" />
<use xlink:href="#f4_50" transform="matrix(19.1,0,0,18.5,225.5,1146.3)" />
<use xlink:href="#f4_50" transform="matrix(19.1,0,0,18.5,342.3,1146.3)" />
<use xlink:href="#f4_50" transform="matrix(19.1,0,0,18.5,441.4,1146.3)" />
</g>
</g>
<path fill-rule="evenodd" d="M37.4,38.1h.7v-.7h-.7v.7Z" class="g10_69" />
<path fill-rule="evenodd" d="M37.4,38.1h.7v-.7h-.7v.7Z" class="g10_69" />
<path fill-rule="evenodd" d="M38.1,38.1H871.5v-.7H38.1v.7Z" class="g10_69" />
<path fill-rule="evenodd" d="M871.5,38.1h.8v-.7h-.8v.7Z" class="g10_69" />
<path fill-rule="evenodd" d="M871.5,38.1h.8v-.7h-.8v.7Z" class="g10_69" />
<path fill-rule="evenodd" d="M37.4,1248.5h.7V38.1h-.7V1248.5Z" class="g10_69" />
<path fill-rule="evenodd" d="M872.3,1248.5h.7V38.1h-.7V1248.5Z" class="g10_69" />
<path fill-rule="evenodd" d="M871.5,1248.5h.8V38.1h-.8V1248.5Z" class="g10_69" />
<path fill-rule="evenodd" d="M37.4,1249.2h.7v-.7h-.7v.7Z" class="g10_69" />
<path fill-rule="evenodd" d="M37.4,1249.2h.7v-.7h-.7v.7Z" class="g10_69" />
<path fill-rule="evenodd" d="M38.1,1249.9H871.5v-.7H38.1v.7Z" class="g10_69" />
<path fill-rule="evenodd" d="M38.1,1249.2H871.5v-.7H38.1v.7Z" class="g10_69" />
<path fill-rule="evenodd" d="M872.3,1249.9h.7v-1.4h-.7v1.4Z" class="g10_69" />
<path fill-rule="evenodd" d="M871.5,1249.9H873v-.7h-1.5v.7Z" class="g10_69" />
<path fill-rule="evenodd" d="M871.5,1249.2h.8v-.7h-.8v.7Z" class="g10_69" />
<path fill-rule="evenodd" d="M871.5,1249.2h.8v-.7h-.8v.7Z" class="g10_69" />
<defs>
<path d="M489,-15c0,0,-99,0,-179,30c0,0,-80,30,-136,91c0,0,-56,61,-85,152c0,0,-30,91,-30,212c0,0,0,123,32,218c0,0,33,96,92,161c0,0,59,65,142,98c0,0,82,34,181,34c0,0,40,0,78,-7c0,0,37,-7,69,-18c0,0,31,-11,57,-25c0,0,25,-14,35,-24c0,0,10,-10,14,-17c0,0,4,-7,6,-17c0,0,2,-11,3,-25c0,0,2,-14,2,-35c0,0,0,-22,-2,-38c0,0,-1,-15,-5,-25c0,0,-4,-10,-9,-14c0,0,-5,-5,-12,-5c0,0,-11,0,-28,13c0,0,-18,13,-45,29c0,0,-27,16,-65,29c0,0,-37,13,-89,13c0,0,-58,0,-103,-23c0,0,-45,-23,-77,-67c0,0,-31,-44,-48,-106c0,0,-16,-61,-16,-139c0,0,0,-85,17,-147c0,0,18,-62,50,-103c0,0,33,-40,79,-60c0,0,45,-19,103,-19c0,0,52,0,90,12c0,0,38,12,65,27c0,0,27,15,45,27c0,0,17,12,27,12c0,0,8,0,12,-3c0,0,4,-3,7,-12c0,0,3,-9,5,-25c0,0,1,-16,1,-43c0,0,0,-18,-1,-31c0,0,-1,-14,-3,-23c0,0,-2,-9,-6,-16c0,0,-4,-7,-12,-15c0,0,-8,-9,-32,-22c0,0,-23,-14,-57,-26C661,13,627,1,583,-6c0,0,-43,-9,-94,-9Z" 
id="f0_j"
transform="scale(0.001,-0.001)" />

<path d="M440,150c0,0,41,0,68,8c0,0,28,9,49,26c0,0,20,16,32,41c0,0,11,25,11,58c0,0,0,33,-11,60c0,0,-11,26,-33,44c0,0,-21,18,-55,28c0,0,-33,9,-87,9H298V150ZM407,567c0,0,42,0,68,10c0,0,25,10,42,28c0,0,16,17,24,41c0,0,9,24,9,50c0,0,0,29,-9,52c0,0,-9,23,-27,39c0,0,-18,15,-45,23c0,0,-27,8,-72,8H298V567ZM164,0c0,0,-25,0,-42,15c0,0,-16,14,-16,47V903c0,0,0,33,16,48c0,0,17,14,42,14H406c0,0,88,0,150,-15c0,0,61,-15,103,-45c0,0,42,-30,65,-77c0,0,22,-46,22,-108c0,0,0,-36,-9,-67c0,0,-9,-31,-26,-56c0,0,-17,-25,-42,-45c0,0,-25,-19,-57,-31c0,0,41,-7,76,-26c0,0,34,-19,60,-48c0,0,26,-30,41,-69c0,0,15,-40,15,-89c0,0,0,-51,-14,-93c0,0,-15,-42,-40,-74c0,0,-25,-32,-59,-55c0,0,-35,-23,-77,-38C614,29,573,14,525,7C525,7,478,0,420,0Z" 
id="f0_i"
transform="scale(0.001,-0.001)" />

<path d="M320,-17c0,0,-50,0,-93,9c0,0,-43,8,-76,19c0,0,-32,11,-54,24C97,35,75,48,65,58c0,0,-10,9,-14,28c0,0,-4,18,-4,52c0,0,0,23,1,39c0,0,2,15,5,25c0,0,4,10,9,14c0,0,6,4,13,4c0,0,11,0,30,-12c0,0,19,-13,49,-28c0,0,30,-15,71,-27c0,0,42,-12,96,-12c0,0,36,0,64,8c0,0,29,9,49,25c0,0,19,15,30,38c0,0,10,23,10,52c0,0,0,33,-18,56c0,0,-18,24,-46,42c0,0,-29,18,-66,34c0,0,-36,16,-75,34c0,0,-39,18,-76,41c0,0,-36,23,-65,54c0,0,-29,32,-47,75c0,0,-17,44,-17,104c0,0,0,70,25,122c0,0,26,53,70,88c0,0,43,34,103,51c0,0,59,18,125,18c0,0,35,0,69,-6c0,0,34,-5,64,-14c0,0,30,-9,53,-20c0,0,23,-11,31,-18c0,0,7,-8,10,-13c0,0,3,-5,4,-14c0,0,2,-8,3,-21c0,0,1,-13,1,-33c0,0,0,-21,-1,-36c0,0,-1,-15,-4,-25c0,0,-3,-9,-7,-14c0,0,-5,-4,-14,-4c0,0,-8,0,-26,10c0,0,-18,10,-44,23c0,0,-26,12,-60,22c0,0,-34,10,-75,10c0,0,-32,0,-56,-8c0,0,-24,-8,-40,-21c0,0,-16,-14,-24,-34c0,0,-8,-19,-8,-41c0,0,0,-32,18,-56c0,0,17,-23,46,-42c0,0,30,-18,67,-34c0,0,38,-16,76,-34c0,0,39,-18,76,-41c0,0,38,-22,67,-54c0,0,29,-32,47,-75c0,0,18,-43,18,-101c0,0,0,-76,-29,-133c0,0,-28,-58,-77,-96C572,60,524,21,459,2c0,0,-65,-19,-139,-19Z" 
id="f0_2n"
transform="scale(0.001,-0.001)" />

<path d="M164,0c0,0,-25,0,-42,15c0,0,-16,14,-16,47V903c0,0,0,33,16,48c0,0,17,14,42,14H645c0,0,7,0,12,-4c0,0,5,-3,9,-13c0,0,4,-9,6,-24c0,0,2,-14,2,-36c0,0,0,-21,-2,-36c0,0,-2,-14,-6,-23c0,0,-4,-9,-9,-13c0,0,-5,-4,-12,-4H301V576H593c0,0,6,0,12,-4c0,0,6,-4,9,-13c0,0,4,-8,6,-23c0,0,2,-14,2,-35c0,0,0,-22,-2,-36c0,0,-2,-14,-6,-23c0,0,-3,-8,-9,-12c0,0,-6,-4,-12,-4H301V154H649c0,0,6,0,12,-5c0,0,5,-4,9,-13c0,0,4,-9,6,-23c0,0,2,-15,2,-36c0,0,0,-22,-2,-36c0,0,-2,-15,-6,-24c0,0,-4,-9,-9,-13c0,0,-6,-4,-12,-4Z" 
id="f0_t"
transform="scale(0.001,-0.001)" />

<path d="M79,297c0,0,-19,0,-27,18c0,0,-8,17,-8,60c0,0,0,41,8,59c0,0,8,17,27,17H389c0,0,9,0,15,-4c0,0,7,-4,11,-13c0,0,5,-9,7,-23c0,0,1,-15,1,-36c0,0,0,-43,-8,-61c0,0,-8,-17,-26,-17Z" 
id="f0_oj"
transform="scale(0.001,-0.001)" />

<path d="M121,-4c0,0,-39,0,-60,2C61,-2,39,0,32,8c0,0,-8,8,-3,24c0,0,4,15,18,41L279,495L64,892c0,0,-14,26,-19,42c0,0,-5,17,4,24c0,0,9,8,32,10c0,0,23,2,65,2c0,0,35,0,56,-2c0,0,20,-1,32,-4c0,0,12,-4,17,-10c0,0,5,-6,9,-15L431,620L595,939c0,0,5,9,10,15c0,0,5,6,16,10c0,0,10,3,29,4c0,0,19,2,53,2c0,0,37,0,59,-2c0,0,22,-2,30,-10c0,0,8,-8,4,-24c0,0,-4,-16,-17,-42L564,497L793,73c0,0,14,-26,18,-41c0,0,4,-16,-5,-24c0,0,-9,-8,-32,-10c0,0,-24,-2,-65,-2c0,0,-36,0,-56,2c0,0,-20,1,-31,3c0,0,-12,4,-17,10c0,0,-5,6,-9,15L414,374L233,26c0,0,-4,-9,-9,-15c0,0,-6,-6,-17,-10c0,0,-12,-2,-32,-3c0,0,-21,-2,-54,-2Z" 
id="f0_3e"
transform="scale(0.001,-0.001)" />

<path d="M204,-4c0,0,-28,0,-47,2c0,0,-19,2,-31,5c0,0,-11,4,-16,10c0,0,-4,6,-4,13V939c0,0,0,7,4,13c0,0,5,6,17,10c0,0,11,3,30,6c0,0,19,2,47,2c0,0,29,0,48,-2c0,0,18,-3,29,-6c0,0,11,-4,16,-10c0,0,5,-6,5,-13V26c0,0,0,-7,-5,-13c0,0,-5,-6,-16,-10c0,0,-11,-3,-29,-5c0,0,-19,-2,-48,-2Z" 
id="f0_1c"
transform="scale(0.001,-0.001)" />

<path d="M127,0c0,0,-16,0,-28,3C99,3,87,6,80,15c0,0,-8,8,-11,25c0,0,-3,16,-3,42c0,0,0,25,2,42c0,0,2,18,8,32c0,0,6,14,15,27c0,0,9,13,24,29L282,390c0,0,50,53,81,95c0,0,30,43,47,79c0,0,17,35,24,65c0,0,6,30,6,57c0,0,0,24,-8,46c0,0,-8,22,-23,39c0,0,-15,16,-38,25c0,0,-23,10,-55,10c0,0,-44,0,-78,-12c0,0,-33,-11,-59,-25c0,0,-26,-13,-43,-25c0,0,-17,-12,-27,-12c0,0,-7,0,-11,5c0,0,-5,4,-8,15c0,0,-3,10,-5,28c0,0,-2,17,-2,42c0,0,0,18,1,29c0,0,1,12,4,20c0,0,2,9,6,15c0,0,3,6,13,15c0,0,9,9,34,23c0,0,25,14,61,27c0,0,37,14,81,23c0,0,44,9,92,9c0,0,75,0,131,-19c0,0,57,-19,94,-53c0,0,37,-34,55,-81c0,0,19,-47,19,-100c0,0,0,-47,-9,-93c0,0,-9,-45,-37,-98c0,0,-29,-52,-80,-116c0,0,-52,-64,-136,-148L299,159H679c0,0,8,0,14,-4c0,0,6,-5,11,-14c0,0,4,-9,7,-25c0,0,2,-15,2,-36c0,0,0,-22,-2,-37c0,0,-2,-15,-6,-25c0,0,-3,-10,-9,-14c0,0,-6,-4,-14,-4Z" 
id="f0_rz"
transform="scale(0.001,-0.001)" />

<path d="M385,138c0,0,29,0,52,9c0,0,22,10,39,28c0,0,17,19,28,47c0,0,11,29,19,66c0,0,7,37,9,84c0,0,3,47,3,104c0,0,0,69,-4,122c0,0,-4,52,-11,91c0,0,-8,39,-20,66c0,0,-12,27,-28,43c0,0,-16,16,-37,22c0,0,-21,7,-47,7c0,0,-44,0,-73,-21c0,0,-28,-21,-45,-64c0,0,-17,-42,-24,-106c0,0,-6,-63,-6,-148c0,0,0,-103,8,-171c0,0,8,-67,26,-107c0,0,17,-40,45,-56c0,0,27,-16,66,-16ZM378,-17c0,0,-99,0,-164,33c0,0,-65,34,-103,98c0,0,-38,64,-54,156c0,0,-15,92,-15,209c0,0,0,115,19,208c0,0,19,94,61,160c0,0,42,65,110,101c0,0,68,35,165,35c0,0,99,0,164,-34c0,0,65,-34,103,-98c0,0,39,-64,53,-156c0,0,15,-92,15,-209c0,0,0,-115,-18,-209c0,0,-19,-93,-61,-159C653,118,611,53,543,17c0,0,-67,-34,-165,-34Z" 
id="f0_rx"
transform="scale(0.001,-0.001)" />

<path d="M142,0c0,0,-6,0,-12,4c0,0,-5,3,-9,12c0,0,-4,9,-6,23c0,0,-3,15,-3,36c0,0,0,21,2,36c0,0,2,14,6,23c0,0,4,9,10,13c0,0,5,5,12,5H322V779L166,693c0,0,-17,-8,-28,-10c0,0,-1,0,-3,0c-4,0,-10,1,-14,5c0,0,-6,6,-8,22c0,0,-2,15,-2,44c0,0,0,18,0,29c0,0,1,12,4,20c0,0,3,8,8,14c0,0,5,5,14,11L345,962c0,0,4,3,9,5c0,0,6,2,15,3c0,0,9,1,23,2c0,0,15,0,38,0c0,0,28,0,46,-1c0,0,17,-1,26,-4c0,0,9,-3,12,-7c0,0,3,-4,3,-11V152H675c0,0,7,0,12,-5c0,0,6,-4,10,-13c0,0,4,-9,6,-23c0,0,2,-15,2,-36c0,0,0,-21,-2,-36c0,0,-3,-14,-7,-23c0,0,-4,-9,-9,-12c0,0,-5,-4,-12,-4Z" 
id="f0_ry"
transform="scale(0.001,-0.001)" />

<path d="M398,134c0,0,34,0,60,12c0,0,25,13,43,36c0,0,17,23,26,54c0,0,9,31,9,68c0,0,0,38,-7,66c0,0,-7,29,-22,49c0,0,-15,20,-39,30c0,0,-25,10,-60,10c0,0,-21,0,-41,-4c0,0,-20,-4,-40,-10c0,0,-19,-7,-37,-16c0,0,-18,-10,-33,-20c0,0,0,-80,9,-133c0,0,9,-54,26,-85c0,0,18,-31,44,-44c0,0,27,-13,62,-13ZM387,-16c0,0,-67,0,-117,15c0,0,-50,14,-86,43c0,0,-37,29,-60,70c0,0,-23,41,-37,92c0,0,-14,52,-19,112c0,0,-5,61,-5,129c0,0,0,56,5,118c0,0,6,62,22,122c0,0,16,59,45,114c0,0,29,54,75,94c0,0,46,41,111,65c0,0,65,24,155,24c0,0,28,0,57,-4c0,0,29,-3,53,-8c0,0,25,-5,42,-12c0,0,17,-7,23,-12c0,0,5,-5,8,-11c0,0,3,-5,5,-13c0,0,2,-7,3,-17c0,0,1,-11,1,-25c0,0,0,-24,-1,-39c0,0,-2,-15,-5,-24c0,0,-3,-8,-8,-12c0,0,-5,-4,-12,-4c0,0,-9,0,-24,5c0,0,-14,5,-34,11c0,0,-20,6,-47,10c0,0,-27,5,-63,5c0,0,-61,0,-102,-23c0,0,-42,-22,-68,-60c0,0,-26,-39,-38,-90c0,0,-12,-50,-13,-107c0,0,16,10,38,21c0,0,21,10,46,18c0,0,25,7,54,12c0,0,29,5,62,5c0,0,73,0,125,-20c0,0,52,-20,86,-58c0,0,33,-37,48,-90c0,0,16,-53,16,-118c0,0,0,-73,-22,-135c0,0,-23,-62,-66,-108C640,79,597,34,533,9c0,0,-63,-25,-146,-25Z" 
id="f0_s3"
transform="scale(0.001,-0.001)" />

<path d="M589,371L453,782h-1L317,371ZM106,-4c0,0,-35,0,-54,2C52,-2,32,0,25,8c0,0,-7,9,-5,24c0,0,2,16,11,42L329,931c0,0,4,13,10,21c0,0,6,7,19,12c0,0,13,4,36,5c0,0,23,1,61,1c0,0,44,0,71,-1c0,0,26,-1,40,-5c0,0,15,-5,21,-13c0,0,6,-8,11,-22L896,73c0,0,9,-27,11,-43c0,0,3,-15,-6,-23c0,0,-8,-7,-29,-9c0,0,-21,-2,-57,-2c0,0,-38,0,-59,1c0,0,-22,1,-33,4c0,0,-11,3,-16,9c0,0,-4,6,-7,16L635,220H272L211,31c0,0,-2,-11,-7,-18c0,0,-5,-7,-16,-11c0,0,-11,-3,-31,-4c0,0,-19,-2,-51,-2Z" 
id="f0_5"
transform="scale(0.001,-0.001)" />

<path d="M198,-4c0,0,-27,0,-45,2c0,0,-18,2,-28,5c0,0,-11,4,-15,10c0,0,-4,6,-4,13V887c0,0,0,38,20,58c0,0,20,20,53,20H308c0,0,34,0,59,-6c0,0,24,-5,42,-18c0,0,18,-13,30,-35c0,0,12,-21,21,-52L669,279h3L889,852c0,0,9,32,21,53c0,0,11,22,27,35c0,0,15,14,36,19c0,0,21,6,48,6h132c0,0,21,0,35,-5c0,0,15,-5,24,-15c0,0,9,-11,14,-25c0,0,5,-15,5,-33V26c0,0,0,-7,-4,-13c0,0,-4,-6,-15,-10c0,0,-11,-3,-29,-5c0,0,-18,-2,-45,-2c0,0,-27,0,-45,2c0,0,-18,2,-28,5c0,0,-11,4,-15,10c0,0,-5,6,-5,13V813h-1L764,27c0,0,-3,-10,-10,-16c0,0,-6,-6,-18,-10c0,0,-12,-3,-29,-4c0,0,-18,-1,-44,-1c0,0,-25,0,-43,2c0,0,-18,2,-29,5c0,0,-12,4,-19,10c0,0,-6,6,-9,14L293,813h-2V26c0,0,0,-7,-4,-13c0,0,-4,-6,-15,-10c0,0,-11,-3,-29,-5c0,0,-17,-2,-45,-2Z" 
id="f0_1x"
transform="scale(0.001,-0.001)" />

<path d="M193,-4c0,0,-26,0,-43,2c0,0,-18,2,-27,6c0,0,-10,4,-14,10c0,0,-3,6,-3,13V895c0,0,0,35,20,53c0,0,21,17,50,17H282c0,0,28,0,47,-5c0,0,20,-5,35,-16c0,0,15,-11,29,-31c0,0,13,-20,27,-49L608,511c0,0,17,-32,33,-63c0,0,16,-31,31,-62c0,0,14,-31,29,-60c0,0,14,-30,27,-60h1c0,0,-2,52,-3,109c0,0,-1,57,-1,108V936c0,0,0,7,4,13c0,0,5,6,15,11c0,0,10,4,28,6c0,0,17,2,44,2c0,0,25,0,42,-2c0,0,17,-2,27,-6c0,0,9,-5,13,-11c0,0,4,-6,4,-13V68c0,0,0,-17,-6,-30c0,0,-6,-14,-17,-23C879,15,869,6,856,2c0,0,-14,-3,-28,-3H744c0,0,-26,0,-45,4c0,0,-19,5,-35,19c0,0,-16,14,-31,38c0,0,-15,23,-34,60L359,572c0,0,-21,40,-43,86c0,0,-21,47,-38,91h-2c0,0,3,-54,5,-107c0,0,2,-53,2,-110V27c0,0,0,-7,-5,-13c0,0,-4,-6,-14,-10c0,0,-10,-4,-27,-6c0,0,-17,-2,-44,-2Z" 
id="f0_1y"
transform="scale(0.001,-0.001)" />

<path d="M378,-4c0,0,-28,0,-47,2c0,0,-19,2,-31,5c0,0,-11,4,-16,10c0,0,-4,6,-4,13V805H38c0,0,-8,0,-13,4c0,0,-5,5,-9,14c0,0,-3,9,-5,25c0,0,-2,15,-2,37c0,0,0,22,2,38c0,0,2,15,5,25c0,0,4,9,9,13c0,0,5,4,13,4H718c0,0,7,0,12,-4c0,0,6,-4,10,-13c0,0,3,-10,5,-25c0,0,2,-16,2,-38c0,0,0,-22,-2,-37c0,0,-2,-16,-5,-25c0,0,-4,-9,-10,-14c0,0,-5,-4,-12,-4H476V26c0,0,0,-7,-5,-13c0,0,-5,-6,-16,-10c0,0,-11,-3,-30,-5c0,0,-19,-2,-47,-2Z" 
id="f0_2t"
transform="scale(0.001,-0.001)" />

<path d="M514,145c0,0,72,0,121,27c0,0,48,26,78,73c0,0,30,46,42,107c0,0,13,62,13,131c0,0,0,76,-12,139c0,0,-12,62,-41,106c0,0,-29,45,-76,69c0,0,-48,24,-120,24c0,0,-72,0,-120,-27c0,0,-49,-27,-79,-73c0,0,-29,-45,-42,-106c0,0,-12,-61,-12,-129c0,0,0,-79,12,-142c0,0,12,-63,40,-108c0,0,28,-44,76,-68c0,0,48,-23,120,-23ZM508,-17c0,0,-113,0,-196,29c0,0,-84,29,-140,90c0,0,-56,60,-84,154c0,0,-28,93,-28,221c0,0,0,117,29,210c0,0,30,94,89,160c0,0,59,65,146,101c0,0,87,35,202,35c0,0,110,0,194,-29c0,0,84,-30,140,-90c0,0,56,-60,85,-153c0,0,29,-92,29,-217c0,0,0,-120,-30,-215c0,0,-30,-95,-89,-161C855,118,796,52,709,17c0,0,-87,-34,-201,-34Z" 
id="f0_24"
transform="scale(0.001,-0.001)" />

<path d="M402,179c0,0,58,0,100,45c0,0,42,45,42,107c0,0,0,65,-41,108c0,0,-41,44,-101,44c0,0,-65,0,-110,-44c0,0,-45,-45,-45,-109c0,0,0,-64,45,-107c0,0,44,-44,110,-44ZM390,-11c0,0,-150,0,-247,94c0,0,-97,96,-97,243c0,0,0,106,48,217c0,0,49,111,108,194L356,952H605L372,631c0,0,48,9,88,9c0,0,123,0,212,-91c0,0,89,-92,89,-219c0,0,0,-148,-105,-245c0,0,-105,-96,-266,-96Z" 
id="f1_q"
transform="scale(0.001,-0.001)" />

<path d="M44,-281L425,1053H537L156,-281Z" 
id="f1_j"
transform="scale(0.001,-0.001)" />

<path d="M299,0V777H162l36,173H508V0Z" 
id="f1_l"
transform="scale(0.001,-0.001)" />

<path d="M186,-28L17,77L450,779H39V952H793L186,-28Z" 
id="f1_r"
transform="scale(0.001,-0.001)" />

<path d="M350,-14c0,0,-142,0,-253,31L89,228h49L172,87c0,0,32,-18,78,-29c0,0,46,-11,88,-11c0,0,118,0,173,56c0,0,56,55,56,187c0,0,0,93,-24,140c0,0,-24,47,-76,70c0,0,-52,22,-140,22c0,0,-68,0,-133,-18H122v496H630V886H189V567c0,0,81,18,173,18c0,0,173,0,258,-71c0,0,84,-71,84,-216c0,0,0,-151,-92,-232c0,0,-91,-80,-262,-80Z" 
id="f2_p"
transform="scale(0.001,-0.001)" />

<path d="M67,0V109L206,235c0,0,133,118,196,190c0,0,63,72,90,149c0,0,27,77,27,177c0,0,0,97,-44,148c0,0,-44,50,-144,50c0,0,-39,0,-81,-10c0,0,-42,-11,-74,-29L150,787H101V980c0,0,135,32,230,32c0,0,164,0,247,-68c0,0,82,-69,82,-193c0,0,0,-84,-32,-158c0,0,-33,-75,-100,-148c0,0,-67,-74,-222,-206c0,0,-67,-57,-141,-125H680V0Z" 
id="f2_m"
transform="scale(0.001,-0.001)" />

<path d="M350,-14c0,0,-142,0,-269,31L73,228h49L156,87c0,0,29,-16,82,-28c0,0,54,-12,100,-12c0,0,117,0,173,54c0,0,56,53,56,178c0,0,0,99,-52,150c0,0,-51,51,-159,56l-107,6v61l107,7c0,0,84,5,124,52c0,0,41,48,41,145c0,0,0,101,-44,147c0,0,-44,45,-139,45c0,0,-40,0,-83,-10c0,0,-43,-11,-76,-29L153,786H104V979c0,0,74,19,127,26c0,0,54,6,107,6c0,0,321,0,321,-246c0,0,0,-104,-57,-165c0,0,-57,-62,-162,-77c0,0,136,-16,200,-78c0,0,64,-62,64,-173c0,0,0,-135,-92,-211c0,0,-93,-75,-262,-75Z" 
id="f2_n"
transform="scale(0.001,-0.001)" />

<path d="M134,0V40L339,60V876L137,804v39l292,166h39V60L672,40V0Z" 
id="f2_l"
transform="scale(0.001,-0.001)" />

<path d="M-6,0c0,0,-12,10,-12,32c0,0,0,21,23,51c0,0,23,31,79,82L287,354L159,649L79,668l6,33H270L378,434l93,88c0,0,47,46,67,72c0,0,19,26,19,44c0,0,0,8,-6,13c0,0,-7,6,-38,17l6,33H651c0,0,16,-12,16,-32c0,0,0,-44,-103,-142L404,377L548,49L634,33L628,0H437L313,298L185,176c0,0,-41,-40,-60,-65c0,0,-19,-26,-19,-48c0,0,0,-21,31,-29L131,0Z" 
id="f3_2k"
transform="scale(0.001,-0.001)" />

<path d="M0,-123V1415H525v-72H72V-123Z" 
id="f4_4r"
transform="scale(0.001,-0.001)" />

<path d="M478,-123V1343H26v72H550V-123Z" 
id="f4_57"
transform="scale(0.001,-0.001)" />

<path d="M0,214v74H784V214ZM0,494v72H784V494Z" 
id="f4_x"
transform="scale(0.001,-0.001)" />

<path d="M0,356v74H784V356Z" 
id="f4_h"
transform="scale(0.001,-0.001)" />

<path d="M355,0V355H0v72H355V784h72V427H782V355H427V0Z" 
id="f4_f"
transform="scale(0.001,-0.001)" />

<path d="M0,-123V1415H72V-123Z" 
id="f4_4s"
transform="scale(0.001,-0.001)" />

<path d="M0,-123V1415H72V-123Z" 
id="f4_58"
transform="scale(0.001,-0.001)" />

<path d="M0,-123V1415H72V-51H525v-72Z" 
id="f4_4t"
transform="scale(0.001,-0.001)" />

<path d="M26,-123v72H478V1415h72V-123Z" 
id="f4_59"
transform="scale(0.001,-0.001)" />

<path d="M76,316v76H787V316Zm0,306v76H787V622Z" 
id="f2_x"
transform="scale(0.001,-0.001)" />

<path d="M178,0L615,886H176L150,764H101v236H720V943L274,0Z" 
id="f2_r"
transform="scale(0.001,-0.001)" />

<path d="M595,60c0,0,141,0,206,102c0,0,65,102,65,340c0,0,0,236,-65,335c0,0,-65,100,-206,100c0,0,-142,0,-207,-100c0,0,-66,-99,-66,-335c0,0,0,-239,66,-340c0,0,65,-102,207,-102Zm0,-74c0,0,-253,0,-387,130C208,116,75,246,75,501c0,0,0,510,520,510c0,0,256,0,387,-129c0,0,132,-130,132,-381c0,0,0,-254,-133,-385C981,116,848,-14,595,-14Z" 
id="f5_1f"
transform="scale(0.001,-0.001)" />

<path d="M498,506c0,0,115,0,164,47c0,0,48,48,48,166c0,0,0,112,-46,156c0,0,-46,43,-169,43H390V506ZM793,0L514,423H390V74L518,54V0H36V54L154,74V926L26,945v55H504c0,0,221,0,330,-68c0,0,109,-68,109,-212c0,0,0,-215,-201,-276L1009,74L1117,54V0Z" 
id="f5_1i"
transform="scale(0.001,-0.001)" />

<path d="M44,0V40L172,60V941L44,960v40H471V960L316,941V65H513c0,0,159,0,234,14l46,208h48L828,0Z" 
id="f2_1c"
transform="scale(0.001,-0.001)" />

<path d="M495,413c0,0,0,133,-34,190c0,0,-34,57,-105,57c0,0,-78,0,-119,-63c0,0,-42,-62,-42,-184ZM374,-14c0,0,-163,0,-239,87c0,0,-75,88,-75,283c0,0,0,183,77,273c0,0,76,91,219,91c0,0,269,0,269,-306V353H194V340c0,0,0,-103,23,-160c0,0,22,-57,70,-87c0,0,47,-29,124,-29c0,0,40,0,96,6c0,0,55,7,91,15V43C598,43,562,20,500,3c0,0,-61,-17,-126,-17Z" 
id="f2_21"
transform="scale(0.001,-0.001)" />

<path d="M249,-14c0,0,-71,0,-107,42c0,0,-35,42,-35,119V639H15v33l93,29l76,159h47V701H391V639H231V161c0,0,0,-48,22,-73c0,0,22,-24,57,-24c0,0,44,0,106,12V26C416,26,389,8,340,-2c0,0,-49,-12,-91,-12Z" 
id="f2_2g"
transform="scale(0.001,-0.001)" />

<path d="M278,-14c0,0,-52,0,-115,11c0,0,-63,10,-99,23V193H98L134,95c0,0,56,-50,146,-50c0,0,144,0,144,123c0,0,0,91,-114,130l-66,21c0,0,-75,25,-110,50c0,0,-34,26,-53,63c0,0,-18,36,-18,89c0,0,0,92,63,145c0,0,63,54,170,54c0,0,77,0,193,-23V544H454l-32,81c0,0,-39,35,-124,35c0,0,-61,0,-92,-30c0,0,-32,-30,-32,-80c0,0,0,-43,29,-72c0,0,28,-29,86,-48c0,0,110,-38,144,-55c0,0,33,-17,57,-42c0,0,23,-25,36,-57c0,0,13,-32,13,-79c0,0,0,-104,-66,-158c0,0,-66,-53,-195,-53Z" 
id="f2_2f"
transform="scale(0.001,-0.001)" />

<path d="M32,0V33L151,52V649L52,668v33H275V52L395,33V0ZM201,850c0,0,-32,0,-56,24c0,0,-24,24,-24,56c0,0,0,34,24,58c0,0,24,24,56,24c0,0,34,0,58,-24c0,0,24,-24,24,-58c0,0,0,-32,-24,-56c0,0,-24,-24,-58,-24Z" 
id="f2_25"
transform="scale(0.001,-0.001)" />

<path d="M439,0V33l93,19V500c0,0,0,62,-30,97c0,0,-31,36,-94,36c0,0,-67,0,-165,-22V52L338,33V0H35V33l84,19V649L35,668v33H235l7,-57c0,0,57,33,122,54c0,0,65,22,108,22c0,0,91,0,137,-53c0,0,47,-53,47,-154V52L741,33V0Z" 
id="f2_2a"
transform="scale(0.001,-0.001)" />

<path d="M191,-20c0,0,-39,0,-65,25c0,0,-25,27,-25,64c0,0,0,38,26,64c0,0,26,26,64,26c0,0,38,0,64,-26c0,0,26,-26,26,-64c0,0,0,-37,-25,-64c0,0,-26,-25,-65,-25Z" 
id="f2_i"
transform="scale(0.001,-0.001)" />

<path d="M460,-325c0,0,-148,79,-231,172c0,0,-84,93,-123,217c0,0,-39,126,-39,304c0,0,0,178,39,303c0,0,39,125,122,217c0,0,82,93,232,172V997c0,0,-91,-52,-145,-134c0,0,-54,-81,-79,-190c0,0,-25,-109,-25,-305c0,0,0,-194,26,-309c0,0,26,-114,82,-193c0,0,56,-79,141,-128v-63Z" 
id="f2_c"
transform="scale(0.001,-0.001)" />

<path d="M49,-325v63c0,0,85,49,140,128c0,0,56,79,83,194c0,0,26,115,26,308c0,0,0,196,-25,305c0,0,-25,109,-79,190c0,0,-54,82,-145,134v63c0,0,149,-80,232,-172c0,0,83,-92,122,-217c0,0,39,-125,39,-303c0,0,0,-177,-39,-303c0,0,-39,-125,-122,-217c0,0,-83,-93,-232,-173Z" 
id="f2_d"
transform="scale(0.001,-0.001)" />

<path d="M377,45c0,0,99,0,145,108c0,0,46,109,46,352c0,0,0,240,-45,345c0,0,-46,106,-146,106c0,0,-97,0,-139,-100c0,0,-43,-99,-43,-351c0,0,0,-254,44,-357c0,0,43,-103,138,-103Zm0,-59c0,0,-158,0,-238,132c0,0,-81,133,-81,386c0,0,0,249,81,380c0,0,80,132,244,132c0,0,159,0,241,-130c0,0,82,-130,82,-382c0,0,0,-518,-329,-518Z" 
id="f2_k"
transform="scale(0.001,-0.001)" />

<path d="M399,-14c0,0,-341,0,-341,370c0,0,0,175,87,269c0,0,87,95,249,95c0,0,101,0,220,-23V501H573L541,625c0,0,-62,35,-149,35c0,0,-200,0,-200,-304c0,0,0,-158,61,-225c0,0,61,-67,189,-67c0,0,109,0,189,24V43C631,43,595,16,530,1c0,0,-64,-15,-131,-15Z" 
id="f2_1z"
transform="scale(0.001,-0.001)" />

<path d="M377,45c0,0,99,0,147,73c0,0,47,73,47,237c0,0,0,161,-47,233c0,0,-47,72,-147,72c0,0,-97,0,-141,-69c0,0,-44,-69,-44,-236c0,0,0,-169,45,-240c0,0,44,-70,140,-70Zm0,-59c0,0,-158,0,-238,94c0,0,-81,95,-81,274c0,0,0,178,81,272c0,0,80,94,244,94c0,0,160,0,241,-92c0,0,82,-92,82,-274c0,0,0,-368,-329,-368Z" 
id="f2_2b"
transform="scale(0.001,-0.001)" />

<path d="M-5,0L0,40L131,60L286,941L162,960l6,40H568l-6,-40L430,941L275,60L399,40L393,0Z" 
id="f3_19"
transform="scale(0.001,-0.001)" />

<path d="M301,78c0,0,41,0,90,27c0,0,49,28,95,77l81,442c0,0,-26,18,-54,27c0,0,-27,10,-67,10c0,0,-70,0,-131,-55c0,0,-61,-55,-99,-152c0,0,-37,-97,-37,-201c0,0,0,-79,33,-127c0,0,33,-48,89,-48ZM245,-14c0,0,-91,0,-145,68c0,0,-54,69,-54,183c0,0,0,128,55,240c0,0,55,112,150,177c0,0,96,66,210,66c0,0,70,0,123,-18c0,0,3,36,51,306l-115,18l6,34H768L589,52L673,33L667,0H454l22,117C476,117,350,-14,245,-14Z" 
id="f3_20"
transform="scale(0.001,-0.001)" />

<path d="M85,0L199,649l-96,19l6,33H332L218,52L335,33L329,0ZM297,849c0,0,-33,0,-57,24c0,0,-24,24,-24,57c0,0,0,33,24,57c0,0,24,24,57,24c0,0,33,0,57,-24c0,0,24,-24,24,-57c0,0,0,-33,-24,-57c0,0,-24,-24,-57,-24Z" 
id="f3_25"
transform="scale(0.001,-0.001)" />

<path d="M140,-21c0,0,-26,0,-44,17C96,-4,79,13,79,40c0,0,0,19,6,33c0,0,8,20,34,55c0,0,46,60,64,126c0,0,32,114,41,321H190c0,0,-55,0,-81,-18c0,0,-44,-26,-80,-89H0c0,0,42,129,98,178c0,0,43,37,120,37H743V575H562c0,0,-27,-171,-27,-327c0,0,0,-77,27,-110c0,0,27,-33,67,-33c0,0,33,0,56,22c0,0,24,22,31,65h27C743,192,730,74,686,26c0,0,-44,-47,-98,-47c0,0,-58,0,-97,51c0,0,-39,53,-39,198c0,0,0,91,28,347H286c0,0,-23,-390,-56,-494c0,0,-33,-102,-90,-102Z" 
id="f4_2c"
transform="scale(0.001,-0.001)" />

<path d="M681,416L504,902L333,416ZM669,0V40L803,60L704,348H310L210,60L344,40V0H15V40L128,60l341,949H611L965,60L1092,40V0Z" 
id="f2_11"
transform="scale(0.001,-0.001)" />

<path d="M383,64c0,0,85,0,152,28V645c0,0,-67,13,-152,13c0,0,-194,0,-194,-314c0,0,0,-141,48,-211c0,0,48,-69,146,-69ZM342,-14c0,0,-287,0,-287,358c0,0,0,184,82,280c0,0,81,96,239,96c0,0,81,0,163,-18c0,0,-4,25,-4,124v182l-118,18v34H659V52L745,33V0H548l-9,52c0,0,-84,-66,-197,-66Z" 
id="f2_20"
transform="scale(0.001,-0.001)" />

<path d="M359,-270c0,0,124,0,192,46c0,0,67,47,67,129c0,0,0,43,-26,67c0,0,-26,24,-79,24H242c0,0,-32,-27,-51,-69c0,0,-20,-41,-20,-77c0,0,0,-64,46,-92c0,0,46,-28,142,-28Zm11,561c0,0,81,0,115,47c0,0,34,47,34,141c0,0,0,100,-35,142c0,0,-35,42,-113,42c0,0,-78,0,-114,-43c0,0,-37,-42,-37,-141c0,0,0,-98,36,-143c0,0,36,-45,114,-45ZM359,-329c0,0,-143,0,-218,44c0,0,-75,43,-75,125c0,0,0,39,27,78c0,0,26,38,98,89c0,0,-43,14,-72,48c0,0,-29,35,-29,74L208,262c0,0,-118,55,-118,217c0,0,0,115,73,178c0,0,73,63,211,63c0,0,28,0,71,-6c0,0,44,-6,67,-13l165,83l26,-32L599,644c0,0,50,-56,50,-165c0,0,0,-120,-72,-182c0,0,-73,-62,-208,-62c0,0,-62,0,-114,11L208,148c0,0,2,-13,29,-24c0,0,27,-12,67,-12H512c0,0,113,0,168,-49c0,0,55,-49,55,-134c0,0,0,-79,-44,-137c0,0,-43,-58,-128,-90c0,0,-84,-31,-204,-31Z" 
id="f2_23"
transform="scale(0.001,-0.001)" />

<path d="M449,50c0,0,162,0,276,114L353,504c0,0,-78,-33,-114,-91c0,0,-35,-57,-35,-139c0,0,0,-108,63,-166c0,0,63,-58,182,-58ZM439,605c0,0,72,27,104,53c0,0,31,25,47,63c0,0,16,37,16,92c0,0,0,143,-135,143c0,0,-79,0,-113,-36c0,0,-34,-35,-34,-107c0,0,0,-121,115,-208ZM429,-14c0,0,-185,0,-278,71c0,0,-93,72,-93,209c0,0,0,72,27,124c0,0,27,52,73,89c0,0,46,37,146,75c0,0,-112,109,-112,244c0,0,0,107,71,162c0,0,72,56,208,56c0,0,130,0,198,-53c0,0,69,-53,69,-155c0,0,0,-58,-25,-101c0,0,-25,-42,-71,-75c0,0,-45,-32,-152,-74L805,272c0,0,72,147,77,271L776,563v39h341V563L1013,543c0,0,-57,-198,-145,-329L1038,59L1161,40V0H904L777,116C777,116,699,46,614,16c0,0,-84,-30,-185,-30Z" 
id="f2_a"
transform="scale(0.001,-0.001)" />

<path d="M58,-234v58c0,0,131,42,131,125c0,0,0,15,-11,27c0,0,-11,12,-38,25C140,1,89,27,89,75c0,0,0,40,25,61c0,0,26,21,65,21c0,0,48,0,77,-34c0,0,30,-34,30,-86c0,0,0,-101,-60,-170c0,0,-59,-69,-168,-101Z" 
id="f2_g"
transform="scale(0.001,-0.001)" />

<path d="M327,-14L84,649L1,668v33H335V668L219,648L385,174L554,632h63L786,171L944,649L830,668v33h267V668l-78,-16L784,-14H726L553,448L382,-14Z" 
id="f2_2j"
transform="scale(0.001,-0.001)" />

<path d="M442,0V33l93,19V504c0,0,0,129,-124,129c0,0,-70,0,-168,-22V52L338,33V0H31V33l88,19v956L15,1026v34H243V756c0,0,0,-77,-5,-112c0,0,54,31,122,53c0,0,68,23,115,23c0,0,91,0,137,-53c0,0,47,-53,47,-154V52L744,33V0Z" 
id="f2_24"
transform="scale(0.001,-0.001)" />

<path d="M284,67c0,0,51,0,88,12c0,0,37,12,74,30V358l-98,-3c0,0,-100,-4,-135,-39c0,0,-35,-35,-35,-117c0,0,0,-132,106,-132ZM233,-14c0,0,-179,0,-179,208c0,0,0,70,27,116c0,0,27,46,87,70c0,0,60,24,173,27l105,3V519c0,0,0,72,-26,107c0,0,-27,34,-82,34c0,0,-75,0,-137,-35L176,538H134V691c0,0,121,26,213,26c0,0,115,0,169,-47c0,0,54,-47,54,-144V52L657,33V0H465L451,70c0,0,-85,-84,-218,-84Z" 
id="f2_1x"
transform="scale(0.001,-0.001)" />

<path d="M360,-14L72,649L0,668v33H327V668L216,648L420,164L615,649L504,668v33H764V668L697,652L416,-14Z" 
id="f2_2i"
transform="scale(0.001,-0.001)" />

<path d="M88,-163c0,0,-39,0,-63,25c0,0,-25,26,-25,65c0,0,0,34,19,54c0,0,19,19,48,19c0,0,30,0,51,-23c0,0,22,-24,37,-24c0,0,12,0,21,11c0,0,8,10,8,35c0,0,0,30,-7,88c0,0,-27,235,-27,620c0,0,13,411,17,446c0,0,17,139,60,188c0,0,43,48,98,48c0,0,37,0,65,-25c0,0,28,-25,28,-54c0,0,0,-35,-19,-57c0,0,-20,-21,-49,-21c0,0,-26,0,-57,27c0,0,-17,15,-30,15c0,0,-12,0,-21,-11c0,0,-8,-11,-8,-37c0,0,0,-31,6,-108c0,0,28,-306,28,-496c0,0,0,-50,-12,-439c0,0,-6,-219,-67,-296c0,0,-41,-50,-101,-50Z" 
id="f4_50"
transform="scale(0.001,-0.001)" />

<path d="M394,460c0,0,126,0,186,57c0,0,60,57,60,187c0,0,0,123,-57,176c0,0,-58,53,-194,53H316V460ZM54,0V40L172,60V941L44,960v40H421c0,0,368,0,368,-295c0,0,0,-153,-93,-233c0,0,-93,-80,-267,-80H316V60L475,40V0Z" 
id="f2_1g"
transform="scale(0.001,-0.001)" />

<path d="M289,-14c0,0,-179,0,-179,205V649L20,668v33H233V200c0,0,0,-128,120,-128c0,0,92,0,173,23V649L420,668v33H649V52L738,33V0H533l-6,57C527,57,474,28,405,7c0,0,-69,-21,-116,-21Z" 
id="f2_2h"
transform="scale(0.001,-0.001)" />

<path d="M13,0V34L95,46L325,350L122,649L40,668v33H357V668L264,648L399,446L554,649l-96,19v33H710V668L630,652L433,397L663,50L745,34V0H427V34l94,17L359,299L169,50L266,34V0Z" 
id="f2_2k"
transform="scale(0.001,-0.001)" />

<path d="M-12,338v55H777V338Z" 
id="f6_4y"
transform="scale(0.001,-0.001)" />

<path d="M945,-20c0,0,47,75,125,153H57v74H1147l108,91c0,0,23,19,95,72c0,0,-134,103,-203,166H57v72H1070c0,0,-78,78,-125,154h85c0,0,88,-107,217,-217c0,0,130,-110,206,-154V349c0,0,-101,-58,-219,-162c0,0,-118,-103,-204,-207Z" 
id="f4_4g"
transform="scale(0.001,-0.001)" />

<path d="M64,0V34L168,59V639H47v36l121,29v49c0,0,0,155,61,239c0,0,62,84,173,84c0,0,58,0,107,-15V908H472l-33,92c0,0,-26,16,-62,16c0,0,-47,0,-66,-42c0,0,-19,-42,-19,-157V701H478V639H292V59L443,34V0Z" 
id="f2_22"
transform="scale(0.001,-0.001)" />

<path d="M31,0V33l88,19V649L31,668v33H235l7,-87c0,0,44,37,121,71c0,0,76,35,121,35h11V530H463l-43,82c0,0,-37,0,-88,-10c0,0,-52,-10,-89,-26V52L363,33V0Z" 
id="f2_2e"
transform="scale(0.001,-0.001)" />

<path d="M200,-14c0,0,-59,0,-93,35c0,0,-34,36,-34,100c0,0,0,22,4,51c0,0,4,30,82,467H67l6,33l99,29L275,860h47L295,701H455L443,639H283L210,230c0,0,-13,-69,-13,-99c0,0,0,-34,17,-51c0,0,17,-16,43,-16c0,0,54,0,113,21L386,50c0,0,-92,-64,-186,-64Z" 
id="f3_2g"
transform="scale(0.001,-0.001)" />

<path d="M62,-123V268c0,0,0,230,56,452c0,0,47,190,134,334c0,0,87,144,204,242c0,0,85,73,194,119l18,-16c0,0,-211,-145,-335,-339c0,0,-98,-156,-149,-374c0,0,-50,-218,-50,-403V-123Z" 
id="f4_4o"
transform="scale(0.001,-0.001)" />

<path d="M617,-123V283c0,0,0,236,-63,459c0,0,-63,223,-188,392c0,0,-108,146,-282,265l17,16c0,0,180,-76,320,-248c0,0,139,-172,204,-417c0,0,64,-245,64,-482V-123Z" 
id="f4_54"
transform="scale(0.001,-0.001)" />

<path d="M62,-123V1415h72V-123Z" 
id="f4_4p"
transform="scale(0.001,-0.001)" />

<path d="M617,-123V1415h72V-123Z" 
id="f4_55"
transform="scale(0.001,-0.001)" />

<path d="M650,-123c0,0,-180,75,-319,246c0,0,-140,172,-205,418c0,0,-64,245,-64,481v393h72V1007c0,0,0,-236,63,-459c0,0,63,-223,189,-391c0,0,108,-145,282,-265l-18,-15Z" 
id="f4_4q"
transform="scale(0.001,-0.001)" />

<path d="M101,-123l-17,15c0,0,210,144,334,339c0,0,99,156,149,373c0,0,50,218,50,403v408h72V1022c0,0,0,-230,-56,-451c0,0,-48,-191,-134,-335C499,236,412,92,295,-5c0,0,-84,-73,-194,-118Z" 
id="f4_56"
transform="scale(0.001,-0.001)" />

<path d="M412,-328c0,0,-195,96,-303,284C109,-44,0,142,0,365c0,0,0,232,114,422c0,0,114,191,298,273v-31c0,0,-92,-51,-151,-139c0,0,-59,-88,-88,-223c0,0,-29,-136,-29,-282c0,0,0,-167,27,-301c0,0,26,-133,82,-221c0,0,55,-89,159,-159v-32Z" 
id="f4_c"
transform="scale(0.001,-0.001)" />

<path d="M34,-328v32c0,0,92,50,151,138c0,0,59,88,88,222c0,0,29,135,29,283c0,0,0,165,-27,300c0,0,-26,134,-82,222c0,0,-56,89,-159,160v31c0,0,194,-96,303,-284c0,0,108,-187,108,-410c0,0,0,-232,-114,-422c0,0,-114,-191,-297,-272Z" 
id="f4_d"
transform="scale(0.001,-0.001)" />

<path d="M52,62L0,114L278,390L0,667l52,52L330,442L608,719l51,-51L382,390L659,114L608,62L330,338L52,62Z" 
id="f4_3a"
transform="scale(0.001,-0.001)" />

<path d="M370,468c0,0,96,0,194,40c0,0,0,229,-45,336c0,0,-45,107,-146,107c0,0,-187,0,-187,-259c0,0,0,-115,45,-169c0,0,45,-55,139,-55ZM312,-14c0,0,-122,0,-223,25V184h48L163,76c0,0,24,-11,65,-20c0,0,40,-9,81,-9c0,0,119,0,183,105c0,0,65,104,71,307c0,0,-113,-62,-230,-62c0,0,-132,0,-208,79c0,0,-76,78,-76,219c0,0,0,151,85,233c0,0,84,83,237,83c0,0,171,0,251,-123c0,0,79,-123,79,-385c0,0,0,-252,-102,-385C599,118,497,-14,312,-14Z" 
id="f2_t"
transform="scale(0.001,-0.001)" />

<path d="M83,308c0,0,-35,0,-59,24c0,0,-24,24,-24,59c0,0,0,34,24,58c0,0,24,24,59,24c0,0,33,0,58,-24c0,0,24,-24,24,-58c0,0,0,-35,-24,-59c0,0,-25,-24,-58,-24Z" 
id="f4_49"
transform="scale(0.001,-0.001)" />

<path d="M122,0V64L295,82V837L123,780v64l282,165H511V82L685,64V0Z" 
id="f5_l"
transform="scale(0.001,-0.001)" />

<path d="M342,-14c0,0,-138,0,-276,29L57,258h69L165,96c0,0,65,-36,136,-36c0,0,90,0,141,58c0,0,50,57,50,161c0,0,0,91,-40,139c0,0,-41,48,-132,54l-87,5v90l84,6c0,0,66,5,98,49c0,0,32,44,32,134c0,0,0,83,-38,131c0,0,-38,48,-107,48c0,0,-40,0,-66,-13c0,0,-26,-12,-49,-26L155,751H90V979c0,0,76,19,132,26c0,0,55,6,108,6c0,0,337,0,337,-246c0,0,0,-102,-54,-164c0,0,-54,-63,-153,-78c0,0,252,-30,252,-251c0,0,0,-136,-98,-211c0,0,-98,-75,-272,-75Z" 
id="f5_n"
transform="scale(0.001,-0.001)" />

<path d="M191,-20c0,0,-51,0,-88,34c0,0,-36,36,-36,88c0,0,0,52,36,88c0,0,36,36,88,36c0,0,51,0,88,-36c0,0,36,-36,36,-88c0,0,0,-51,-36,-87c0,0,-36,-35,-88,-35Z" 
id="f5_i"
transform="scale(0.001,-0.001)" />

<path d="M54,0V40L172,60V941L44,960v40H794V760H745L721,922c0,0,-83,11,-241,11H316V516H611l23,120h46V328H634L611,449H316V60L483,40V0Z" 
id="f2_16"
transform="scale(0.001,-0.001)" />

<path d="M211,-20c0,0,-39,0,-64,25c0,0,-26,27,-26,64c0,0,0,38,26,64c0,0,26,26,64,26c0,0,37,0,64,-25c0,0,26,-26,26,-65c0,0,0,-37,-26,-64c0,0,-26,-25,-64,-25Zm0,556c0,0,-38,0,-64,26c0,0,-26,26,-26,64c0,0,0,37,26,64c0,0,25,27,64,27c0,0,38,0,64,-27c0,0,26,-27,26,-64c0,0,0,-38,-26,-64c0,0,-27,-26,-64,-26Z" 
id="f2_u"
transform="scale(0.001,-0.001)" />

<path d="M476,327V830h-4L114,327ZM476,0V220H30v99l488,686h86V327H740V220H604V0Z" 
id="f2_o"
transform="scale(0.001,-0.001)" />

<path d="M410,-14c0,0,-86,0,-175,14C235,0,145,14,81,38V307h66L181,146c0,0,31,-37,94,-62c0,0,64,-24,132,-24c0,0,214,0,214,177c0,0,0,55,-41,93c0,0,-41,38,-128,68c0,0,-128,42,-185,68c0,0,-56,27,-95,63c0,0,-38,36,-62,87c0,0,-23,51,-23,125c0,0,0,132,90,201c0,0,90,69,263,69c0,0,125,0,278,-32V741H651L618,878c0,0,-76,56,-178,56c0,0,-92,0,-141,-34c0,0,-49,-34,-49,-104c0,0,0,-50,41,-86c0,0,41,-35,128,-63c0,0,171,-56,235,-97c0,0,64,-41,97,-103c0,0,34,-61,34,-143c0,0,0,-318,-375,-318Z" 
id="f5_1j"
transform="scale(0.001,-0.001)" />

<path d="M379,60c0,0,59,0,84,64c0,0,24,65,24,231c0,0,0,164,-24,227c0,0,-24,63,-84,63c0,0,-57,0,-80,-60c0,0,-22,-61,-22,-230c0,0,0,-173,23,-234c0,0,22,-61,79,-61Zm-2,-74c0,0,-161,0,-240,91c0,0,-79,91,-79,277c0,0,0,186,80,276c0,0,81,90,245,90c0,0,167,0,245,-93c0,0,78,-93,78,-273c0,0,0,-188,-81,-278c0,0,-81,-90,-248,-90Z" 
id="f5_2b"
transform="scale(0.001,-0.001)" />

<path d="M30,0V49l76,18V992l-72,18v50H322V67L398,49V0Z" 
id="f5_28"
transform="scale(0.001,-0.001)" />

<path d="M287,-18c0,0,-194,0,-194,206V634L23,652v49H309V217c0,0,0,-63,26,-98c0,0,27,-35,76,-35c0,0,57,0,113,25V634l-64,18v49H740V67L809,49V0H536L526,61L475,35c0,0,-104,-53,-188,-53Z" 
id="f5_2h"
transform="scale(0.001,-0.001)" />

<path d="M327,-14c0,0,-101,0,-156,45c0,0,-55,45,-55,131V624H25v48l108,29l87,159H332V701H480V624H332V176c0,0,0,-49,20,-73c0,0,20,-25,53,-25c0,0,40,0,97,12V26c0,0,-22,-15,-76,-27c0,0,-55,-13,-99,-13Z" 
id="f5_2g"
transform="scale(0.001,-0.001)" />

<path d="M34,0V49l76,18V634L38,652v49H325V67L402,49V0ZM217,831c0,0,-48,0,-81,33c0,0,-34,33,-34,82c0,0,0,48,34,81c0,0,34,33,81,33c0,0,48,0,81,-33c0,0,33,-33,33,-81c0,0,0,-47,-33,-81c0,0,-32,-34,-81,-34Z" 
id="f5_25"
transform="scale(0.001,-0.001)" />

<path d="M41,0V49l69,18V634L41,652v49H313l11,-61l50,26c0,0,105,54,188,54c0,0,194,0,194,-207V67L827,49V0H478V49l63,18V484c0,0,0,63,-27,98c0,0,-26,35,-75,35c0,0,-57,0,-114,-25V67L389,49V0Z" 
id="f5_2a"
transform="scale(0.001,-0.001)" />

<path d="M248,-20c0,0,-52,0,-87,34c0,0,-36,36,-36,88c0,0,0,52,36,88c0,0,35,36,87,36c0,0,52,0,88,-36c0,0,36,-36,36,-88c0,0,0,-51,-36,-87c0,0,-35,-35,-88,-35Zm0,488c0,0,-52,0,-87,36c0,0,-36,36,-36,88c0,0,0,52,35,88c0,0,35,36,88,36c0,0,53,0,89,-36c0,0,35,-37,35,-88c0,0,0,-51,-36,-87c0,0,-35,-37,-88,-37Z" 
id="f5_u"
transform="scale(0.001,-0.001)" />

<path d="M631,416L539,902L283,416ZM576,0l8,40L691,60L643,348H249L96,60L197,40L189,0H-83l8,40L7,60l509,949H659L845,60L938,40L930,0Z" 
id="f3_11"
transform="scale(0.001,-0.001)" />

<path d="M459,63c0,0,143,0,210,55c0,0,67,56,67,185c0,0,0,101,-66,146c0,0,-66,46,-190,46H341L266,67c0,0,114,-4,193,-4Zm18,499c0,0,144,0,206,49c0,0,61,48,61,170c0,0,0,77,-48,115c0,0,-48,37,-160,37H419L353,562ZM459,-4L173,0H14l8,40l99,20L277,941L151,960l8,40H570c0,0,330,0,330,-210c0,0,0,-105,-66,-174c0,0,-66,-69,-184,-85c0,0,115,-9,179,-69c0,0,63,-59,63,-157c0,0,0,-160,-108,-235C784,70,675,-4,459,-4Z" 
id="f3_12"
transform="scale(0.001,-0.001)" />

<path d="M521,-14c0,0,-205,0,-320,107C201,93,85,200,85,390c0,0,0,185,77,326c0,0,77,142,220,219c0,0,142,76,324,76c0,0,158,0,327,-38L1000,755H951V884c0,0,-46,32,-112,50c0,0,-65,17,-137,17c0,0,-135,0,-242,-72c0,0,-107,-72,-166,-203c0,0,-60,-132,-60,-301c0,0,0,-160,78,-244c0,0,78,-84,222,-84c0,0,85,0,166,25c0,0,82,26,133,65l53,149h49L889,52C889,52,803,20,705,3c0,0,-99,-17,-184,-17Z" 
id="f3_13"
transform="scale(0.001,-0.001)" />

<path d="M463,65c0,0,220,0,340,135c0,0,121,135,121,385c0,0,0,348,-385,348H419L266,70c0,0,120,-5,197,-5Zm6,-67L110,0H-16l7,40L121,60L276,941L151,960l7,40H585c0,0,241,0,368,-105c0,0,127,-106,127,-304c0,0,0,-179,-75,-314c0,0,-75,-136,-214,-208C791,69,653,-2,469,-2Z" 
id="f3_14"
transform="scale(0.001,-0.001)" />

<path d="M577,-14c0,0,-243,0,-379,131C198,117,63,248,63,488c0,0,0,263,131,393c0,0,132,130,386,130c0,0,182,0,352,-45V751H882L862,875c0,0,-52,37,-124,57c0,0,-72,19,-152,19c0,0,-191,0,-279,-113c0,0,-88,-114,-88,-348c0,0,0,-220,91,-333c0,0,91,-114,269,-114c0,0,63,0,131,15c0,0,69,15,105,36V377L686,397v40h370V397L958,377V52C958,52,871,24,778,5c0,0,-93,-19,-201,-19Z" 
id="f2_17"
transform="scale(0.001,-0.001)" />

<path d="M83,0C83,0,48,0,24,24C24,24,0,49,0,83c0,0,0,34,24,58c0,0,24,24,59,24c0,0,34,0,58,-24c0,0,24,-24,24,-58c0,0,0,-34,-24,-59C141,24,117,0,83,0ZM695,0c0,0,-34,0,-58,24c0,0,-25,25,-25,59c0,0,0,34,25,58c0,0,24,24,58,24c0,0,34,0,58,-24c0,0,24,-24,24,-58c0,0,0,-34,-24,-59C753,24,729,0,695,0ZM388,594c0,0,-34,0,-59,23c0,0,-24,24,-24,59c0,0,0,34,24,58c0,0,25,25,59,25c0,0,34,0,58,-25c0,0,24,-24,24,-58c0,0,0,-35,-24,-59c0,0,-24,-23,-58,-23Z" 
id="f4_1s"
transform="scale(0.001,-0.001)" />


</defs>
</svg>