<?xml version="1.0" encoding="UTF-8" standalone="no"?>
<!DOCTYPE svg PUBLIC "-//W3C//DTD SVG 1.1//EN"
"http://www.w3.org/Graphics/SVG/1.1/DTD/svg11.dtd">
<svg viewBox="0 0 909 1286" version="1.1" xmlns="http://www.w3.org/2000/svg" xmlns:xlink="http://www.w3.org/1999/xlink">
<defs>
<clipPath id="c0_123"><path d="M55.2,270.1V126.7H307.7V270.1Z" /></clipPath>
<clipPath id="c1_123"><path d="M55.2,388.1V271.3H332.5V388.1Z" /></clipPath>
<clipPath id="c2_123"><path d="M162.3,473.6V411.3H536.4v62.3Z" /></clipPath>
<clipPath id="c3_123"><path d="M55.2,549.8V496.7H334.3v53.1Z" /></clipPath>
<clipPath id="c4_123"><path d="M55.2,635.6V573.4H429.3v62.2Z" /></clipPath>
<clipPath id="c5_123"><path d="M55.2,744.1V681.9H301.6v62.2Z" /></clipPath>
<clipPath id="c6_123"><path d="M55.2,810.1V745h321v65.1Z" /></clipPath>
<clipPath id="c7_123"><path d="M55.2,863.7V810.5H219.9v53.2Z" /></clipPath>
<clipPath id="c8_123"><path d="M55.2,1141.6v-277H303.4v277Z" /></clipPath>
<style type="text/css"><![CDATA[
.g0_123{
fill: #D9D9D9;
}
.g1_123{
fill: none;
stroke: #000000;
stroke-width: 0.7638889;
stroke-linecap: butt;
stroke-linejoin: miter;
}
.g2_123{
fill: none;
stroke: #000000;
stroke-width: 0.911439;
stroke-linecap: butt;
stroke-linejoin: round;
}
.g3_123{
fill: none;
stroke: #000000;
stroke-width: 0.9129848;
stroke-linecap: butt;
stroke-linejoin: round;
}
.g4_123{
fill: none;
stroke: #000000;
stroke-width: 0.21291491;
stroke-linecap: square;
stroke-linejoin: round;
}
.g5_123{
}
.g6_123{
fill: none;
stroke: #000000;
stroke-width: 0.9112606;
stroke-linecap: butt;
stroke-linejoin: round;
}
.g7_123{
fill: none;
stroke: #000000;
stroke-width: 0.9087914;
stroke-linecap: butt;
stroke-linejoin: round;
}
.g8_123{
fill: none;
stroke: #000000;
stroke-width: 0.2138012;
stroke-linecap: square;
stroke-linejoin: round;
}
.g9_123{
fill: none;
stroke: #000000;
stroke-width: 0.91505396;
stroke-linecap: butt;
stroke-linejoin: round;
}
.g10_123{
fill: none;
stroke: #000000;
stroke-width: 0.21298598;
stroke-linecap: square;
stroke-linejoin: round;
}
.g11_123{
fill: none;
stroke: #000000;
stroke-width: 0.9115648;
stroke-linecap: butt;
stroke-linejoin: round;
}
.g12_123{
fill: none;
stroke: #000000;
stroke-width: 0.21301349;
stroke-linecap: square;
stroke-linejoin: round;
}
.g13_123{
fill: none;
stroke: #000000;
stroke-width: 0.9116826;
stroke-linecap: butt;
stroke-linejoin: round;
}
.g14_123{
fill: none;
stroke: #000000;
stroke-width: 0.913907;
stroke-linecap: butt;
stroke-linejoin: round;
}
.g15_123{
fill: none;
stroke: #000000;
stroke-width: 0.9125945;
stroke-linecap: butt;
stroke-linejoin: round;
}
.g16_123{
fill: none;
stroke: #000000;
stroke-width: 0.4182744;
stroke-linecap: butt;
stroke-linejoin: round;
}
]]></style>
</defs>
<image preserveAspectRatio="none" x="747" y="1196" width="96" height="59" xlink:href="img/1.png" />
<image preserveAspectRatio="none" x="336" y="41" width="259" height="51" xlink:href="img/2.png" />
<image preserveAspectRatio="none" x="342" y="50" width="247" height="27" xlink:href="img/3.png" />
<image preserveAspectRatio="none" x="341" y="45" width="239" height="42" xlink:href="img/4.png" />
<g fill="#FFFFFF" >
<use xlink:href="#f0_j" transform="matrix(11.5,0,0,11.5,355.1,70.1)" />
<use xlink:href="#f0_i" transform="matrix(11.5,0,0,11.5,364.3,70.1)" />
<use xlink:href="#f0_2n" transform="matrix(11.5,0,0,11.5,374.1,70.1)" />
<use xlink:href="#f0_t" transform="matrix(11.5,0,0,11.5,382.6,70.1)" />
<use xlink:href="#f0_oj" transform="matrix(11.5,0,0,11.5,391,70.1)" />
<use xlink:href="#f0_3e" transform="matrix(11.5,0,0,11.5,396.5,70.1)" />
<use xlink:href="#f0_1c" transform="matrix(11.5,0,0,11.5,406.1,70.1)" />
<use xlink:href="#f0_1c" transform="matrix(11.5,0,0,11.5,410.8,70.1)" />
<use xlink:href="#f0_oj" transform="matrix(11.5,0,0,11.5,415.6,70.1)" />
<use xlink:href="#f0_rz" transform="matrix(11.5,0,0,11.5,421.1,70.1)" />
<use xlink:href="#f0_rx" transform="matrix(11.5,0,0,11.5,429.9,70.1)" />
<use xlink:href="#f0_ry" transform="matrix(11.5,0,0,11.5,438.7,70.1)" />
<use xlink:href="#f0_s6" transform="matrix(11.5,0,0,11.5,447.5,70.1)" />
<use xlink:href="#f0_t" transform="matrix(11.5,0,0,11.5,460.4,70.1)" />
<use xlink:href="#f0_3e" transform="matrix(11.5,0,0,11.5,468.8,70.1)" />
<use xlink:href="#f0_5" transform="matrix(11.5,0,0,11.5,478.3,70.1)" />
<use xlink:href="#f0_1x" transform="matrix(11.5,0,0,11.5,489,70.1)" />
<use xlink:href="#f0_1c" transform="matrix(11.5,0,0,11.5,504.4,70.1)" />
<use xlink:href="#f0_1y" transform="matrix(11.5,0,0,11.5,509.1,70.1)" />
<use xlink:href="#f0_5" transform="matrix(11.5,0,0,11.5,520.8,70.1)" />
<use xlink:href="#f0_2t" transform="matrix(11.5,0,0,11.5,531.5,70.1)" />
<use xlink:href="#f0_1c" transform="matrix(11.5,0,0,11.5,540.2,70.1)" />
<use xlink:href="#f0_24" transform="matrix(11.5,0,0,11.5,545,70.1)" />
<use xlink:href="#f0_1y" transform="matrix(11.5,0,0,11.5,556.7,70.1)" />
</g>
<image preserveAspectRatio="none" x="554" y="45" width="36" height="42" xlink:href="img/5.png" />
<g fill="#FFFFFF" >
<use xlink:href="#f1_p" transform="matrix(11,0,0,11,770.3,1227.6)" />
<use xlink:href="#f1_j" transform="matrix(11,0,0,11,783.5,1227.6)" />
<use xlink:href="#f1_m" transform="matrix(11,0,0,11,794.1,1227.6)" />
<use xlink:href="#f1_p" transform="matrix(11,0,0,11,802.9,1227.6)" />
</g>
<path fill-rule="evenodd" d="M52.8,1193.5H856.9v-.8H52.8v.8Z" class="g0_123" />
<path d="M37.9,99.4L873,98.5" class="g1_123" />
<g clip-path="url(#c0_123)">
<g fill="#000000" >
<use xlink:href="#f2_c" transform="matrix(12,0,0,19.1,105.4,206.2)" />
<use xlink:href="#f2_d" transform="matrix(12,0,0,19.1,157.5,206.2)" />
<use xlink:href="#f2_c" transform="matrix(12,0,0,19.1,93.9,236.9)" />
<use xlink:href="#f2_d" transform="matrix(12,0,0,19.1,146.1,236.9)" />
</g>
</g>
<path d="M93.3,214.7h82.3m19.8,0h45.4m43.1,0h18.7" class="g2_123" />
<g clip-path="url(#c0_123)">
<g fill="#000000" >
<use xlink:href="#f3_m" transform="matrix(7.1,0,0,7,132.4,164.8)" />
<use xlink:href="#f3_m" transform="matrix(7.1,0,0,7,122.8,195.7)" />
<use xlink:href="#f3_m" transform="matrix(7.1,0,0,7,206.5,199.5)" />
<use xlink:href="#f3_m" transform="matrix(7.1,0,0,7,208.2,225.5)" />
<use xlink:href="#f3_m" transform="matrix(7.1,0,0,7,294.9,225.5)" />
<use xlink:href="#f3_m" transform="matrix(7.1,0,0,7,111.4,226.5)" />
<use xlink:href="#f3_c" transform="matrix(12.2,0,0,12.1,116.7,143.4)" />
<use xlink:href="#f3_c" transform="matrix(12.2,0,0,12.1,136.2,143.4)" />
<use xlink:href="#f3_d" transform="matrix(12.2,0,0,12.1,152.2,143.4)" />
<use xlink:href="#f3_d" transform="matrix(12.2,0,0,12.1,158.2,143.4)" />
<use xlink:href="#f3_c" transform="matrix(12.2,0,0,12.1,116,172.9)" />
<use xlink:href="#f3_m" transform="matrix(12.2,0,0,12.1,157.1,172.9)" />
<use xlink:href="#f3_d" transform="matrix(12.2,0,0,12.1,166.2,172.9)" />
<use xlink:href="#f3_m" transform="matrix(12.2,0,0,12.1,147.4,203.9)" />
<use xlink:href="#f3_m" transform="matrix(12.2,0,0,12.1,231.1,207.6)" />
<use xlink:href="#f3_l" transform="matrix(12.2,0,0,12.1,288.7,207.6)" />
<use xlink:href="#f3_l" transform="matrix(12.2,0,0,12.1,258.4,219.3)" />
<use xlink:href="#f3_l" transform="matrix(12.2,0,0,12.1,230.8,233.7)" />
<use xlink:href="#f3_m" transform="matrix(12.2,0,0,12.1,136,234.6)" />
<use xlink:href="#f3_l" transform="matrix(12.2,0,0,12.1,167.2,234.6)" />
<use xlink:href="#f4_23" transform="matrix(12.2,0,0,12.1,58.8,143.4)" />
<use xlink:href="#f4_2b" transform="matrix(12.2,0,0,12.1,68,143.4)" />
<use xlink:href="#f4_22" transform="matrix(12.2,0,0,12.1,77.1,143.4)" />
<use xlink:href="#f4_23" transform="matrix(12.2,0,0,12.1,106.1,143.4)" />
<use xlink:href="#f4_22" transform="matrix(12.2,0,0,12.1,126.7,143.4)" />
<use xlink:href="#f4_2k" transform="matrix(12.2,0,0,12.1,143.6,143.4)" />
<use xlink:href="#f4_23" transform="matrix(12.2,0,0,12.1,105.4,172.9)" />
<use xlink:href="#f4_2k" transform="matrix(12.2,0,0,12.1,123.4,172.9)" />
<use xlink:href="#f4_2k" transform="matrix(12.2,0,0,12.1,113.8,203.9)" />
<use xlink:href="#f4_2k" transform="matrix(12.2,0,0,12.1,197.4,207.6)" />
<use xlink:href="#f4_2k" transform="matrix(12.2,0,0,12.1,199.2,233.7)" />
<use xlink:href="#f4_2k" transform="matrix(12.2,0,0,12.1,285.9,233.7)" />
<use xlink:href="#f4_2k" transform="matrix(12.2,0,0,12.1,102.4,234.6)" />
<use xlink:href="#f2_x" transform="matrix(12.2,0,0,12.1,90.8,143.4)" />
<use xlink:href="#f2_x" transform="matrix(12.2,0,0,12.1,90,172.9)" />
<use xlink:href="#f2_f" transform="matrix(12.2,0,0,12.1,143,172.9)" />
<use xlink:href="#f2_f" transform="matrix(12.2,0,0,12.1,133.4,203.9)" />
<use xlink:href="#f2_f" transform="matrix(12.2,0,0,12.1,217.1,207.6)" />
<use xlink:href="#f2_x" transform="matrix(12.2,0,0,12.1,180.7,219.3)" />
<use xlink:href="#f2_x" transform="matrix(12.2,0,0,12.1,245.9,219.3)" />
<use xlink:href="#f2_f" transform="matrix(12.2,0,0,12.1,269.5,219.3)" />
<use xlink:href="#f2_f" transform="matrix(12.2,0,0,12.1,218.8,233.7)" />
<use xlink:href="#f2_f" transform="matrix(12.2,0,0,12.1,121.9,234.6)" />
<use xlink:href="#f2_h" transform="matrix(12.2,0,0,12.1,155.6,234.6)" />
</g>
</g>
<g clip-path="url(#c1_123)">
<g fill="#000000" >
<use xlink:href="#f2_c" transform="matrix(12,0,0,15.9,102.7,309)" />
<use xlink:href="#f2_d" transform="matrix(12,0,0,15.9,120.5,309)" />
<use xlink:href="#f2_c" transform="matrix(12,0,0,15.9,156.2,295.9)" />
<use xlink:href="#f2_d" transform="matrix(12,0,0,15.9,174,295.9)" />
<use xlink:href="#f2_c" transform="matrix(12,0,0,15.9,215.6,295.9)" />
<use xlink:href="#f2_d" transform="matrix(12,0,0,15.9,233.3,295.9)" />
<use xlink:href="#f2_c" transform="matrix(12,0,0,15.9,178.9,325.6)" />
<use xlink:href="#f2_d" transform="matrix(12,0,0,15.9,219.7,325.6)" />
</g>
</g>
<path d="M145.6,303.1H266.8" class="g3_123" />
<g clip-path="url(#c1_123)">
<g fill="#000000" >
<use xlink:href="#f2_c" transform="matrix(12,0,0,15.9,104.2,366.6)" />
<use xlink:href="#f2_d" transform="matrix(12,0,0,15.9,131.5,366.6)" />
</g>
</g>
<path d="M180,360.8h64.1m19.9,0h18.1m27.7,0h18.1" class="g3_123" />
<g clip-path="url(#c1_123)">
<g fill="#000000" >
<use xlink:href="#f3_m" transform="matrix(7,0,0,7,180.5,283.6)" />
<use xlink:href="#f3_m" transform="matrix(7,0,0,7,226.3,313.4)" />
<use xlink:href="#f3_m" transform="matrix(7,0,0,7,212.9,371.6)" />
<use xlink:href="#f3_n" transform="matrix(12.2,0,0,12.1,146.2,294.6)" />
<use xlink:href="#f3_m" transform="matrix(12.2,0,0,12.1,163.8,294.6)" />
<use xlink:href="#f3_o" transform="matrix(12.2,0,0,12.1,205,294.6)" />
<use xlink:href="#f3_m" transform="matrix(12.2,0,0,12.1,223.1,294.6)" />
<use xlink:href="#f3_m" transform="matrix(12.2,0,0,12.1,256.9,294.6)" />
<use xlink:href="#f3_m" transform="matrix(12.2,0,0,12.1,110.3,307.6)" />
<use xlink:href="#f3_q" transform="matrix(12.2,0,0,12.1,286.2,307.6)" />
<use xlink:href="#f3_m" transform="matrix(12.2,0,0,12.1,186.6,324.3)" />
<use xlink:href="#f3_l" transform="matrix(12.2,0,0,12.1,211,324.3)" />
<use xlink:href="#f3_l" transform="matrix(12.2,0,0,12.1,207.4,353.6)" />
<use xlink:href="#f3_l" transform="matrix(12.2,0,0,12.1,263.8,353.6)" />
<use xlink:href="#f3_l" transform="matrix(12.2,0,0,12.1,273,353.6)" />
<use xlink:href="#f3_l" transform="matrix(12.2,0,0,12.1,314.2,353.6)" />
<use xlink:href="#f3_n" transform="matrix(12.2,0,0,12.1,121.9,365.3)" />
<use xlink:href="#f3_l" transform="matrix(12.2,0,0,12.1,154.4,365.3)" />
<use xlink:href="#f3_l" transform="matrix(12.2,0,0,12.1,299.8,365.3)" />
<use xlink:href="#f3_c" transform="matrix(12.2,0,0,12.1,180.9,379.8)" />
<use xlink:href="#f3_n" transform="matrix(12.2,0,0,12.1,197.6,379.8)" />
<use xlink:href="#f3_d" transform="matrix(12.2,0,0,12.1,206.2,379.8)" />
<use xlink:href="#f3_l" transform="matrix(12.2,0,0,12.1,235.7,379.8)" />
<use xlink:href="#f3_l" transform="matrix(12.2,0,0,12.1,263.1,379.8)" />
<use xlink:href="#f3_k" transform="matrix(12.2,0,0,12.1,272.3,379.8)" />
<use xlink:href="#f3_l" transform="matrix(12.2,0,0,12.1,308.8,379.8)" />
<use xlink:href="#f3_k" transform="matrix(12.2,0,0,12.1,318,379.8)" />
<use xlink:href="#f4_22" transform="matrix(12.2,0,0,12.1,76.3,307.6)" />
<use xlink:href="#f4_2b" transform="matrix(12.2,0,0,12.1,81.5,307.6)" />
<use xlink:href="#f4_23" transform="matrix(12.2,0,0,12.1,90.7,307.6)" />
<use xlink:href="#f4_23" transform="matrix(12.2,0,0,12.1,75,365.3)" />
<use xlink:href="#f4_2b" transform="matrix(12.2,0,0,12.1,84.2,365.3)" />
<use xlink:href="#f4_22" transform="matrix(12.2,0,0,12.1,93.4,365.3)" />
<use xlink:href="#f2_h" transform="matrix(12.2,0,0,12.1,191.2,294.6)" />
<use xlink:href="#f2_f" transform="matrix(12.2,0,0,12.1,242.9,294.6)" />
<use xlink:href="#f2_1s" transform="matrix(12.2,0,0,12.1,55.1,307.6)" />
<use xlink:href="#f2_x" transform="matrix(12.2,0,0,12.1,130.8,307.6)" />
<use xlink:href="#f2_x" transform="matrix(12.2,0,0,12.1,271.9,307.6)" />
<use xlink:href="#f2_h" transform="matrix(12.2,0,0,12.1,199.2,324.3)" />
<use xlink:href="#f2_h" transform="matrix(12.2,0,0,12.1,111.8,365.3)" />
<use xlink:href="#f2_x" transform="matrix(12.2,0,0,12.1,141.8,365.3)" />
<use xlink:href="#f2_f" transform="matrix(12.2,0,0,12.1,165.5,365.3)" />
<use xlink:href="#f2_x" transform="matrix(12.2,0,0,12.1,249,365.3)" />
<use xlink:href="#f2_x" transform="matrix(12.2,0,0,12.1,287.1,365.3)" />
<use xlink:href="#f2_h" transform="matrix(12.2,0,0,12.1,187.5,379.8)" />
<use xlink:href="#f2_f" transform="matrix(12.2,0,0,12.1,223.6,379.8)" />
</g>
</g>
<g fill="#000000" >
<use xlink:href="#f5_l" transform="matrix(12,0,0,12,55,447.4)" />
<use xlink:href="#f5_m" transform="matrix(12,0,0,12,64.2,447.4)" />
<use xlink:href="#f5_i" transform="matrix(12,0,0,12,73.4,447.4)" />
<use xlink:href="#f3_1g" transform="matrix(12,0,0,12,82.9,447.4)" />
<use xlink:href="#f3_2e" transform="matrix(12,0,0,12,92.8,447.4)" />
<use xlink:href="#f3_2b" transform="matrix(12,0,0,12,98.7,447.4)" />
<use xlink:href="#f3_2i" transform="matrix(12,0,0,12,108.2,447.4)" />
<use xlink:href="#f3_21" transform="matrix(12,0,0,12,117,447.4)" />
<use xlink:href="#f3_2g" transform="matrix(12,0,0,12,129.8,447.4)" />
<use xlink:href="#f3_24" transform="matrix(12,0,0,12,135.3,447.4)" />
<use xlink:href="#f3_1x" transform="matrix(12,0,0,12,144.1,447.4)" />
<use xlink:href="#f3_2g" transform="matrix(12,0,0,12,152.1,447.4)" />
</g>
<path d="M213.7,432.1l1.8,-1m.1,0l4.4,7.3m0,0l4.9,-19.5m0,0h33.8" class="g4_123" />
<path fill-rule="evenodd" d="M212.8,431.1l2.5,-1.4l4,6l4.5,-18H258v.9H224.4l-4.7,19.1h-.9l-4.5,-6.8l-1.2,.8l-.3,-.6Z" class="g5_123" />
<path d="M277.2,432.1l1.9,-1m0,0l4.4,7.3m0,0l4.9,-19.5m0,0H322" class="g4_123" />
<path fill-rule="evenodd" d="M276.3,431.1l2.5,-1.4l4,6l4.4,-18h34v.9H287.9l-4.7,19.1h-.9l-4.5,-6.8l-1.2,.8l-.3,-.6Z" class="g5_123" />
<path d="M213.6,459.9l1.8,-1.1m.1,0l4.4,7.3m0,.1l4.8,-19.5m0,0h33.9" class="g4_123" />
<path fill-rule="evenodd" d="M212.7,458.9l2.5,-1.4l4,6l4.4,-18h34.3v.9H224.3l-4.7,19.1h-.9l-4.5,-6.8l-1.2,.7l-.3,-.5Z" class="g5_123" />
<path d="M277.3,459.9l1.9,-1.1m0,0l4.4,7.3m0,.1l4.9,-19.5m0,0h33.6" class="g4_123" />
<path fill-rule="evenodd" d="M276.5,458.9l2.5,-1.4l3.9,6l4.5,-18h34v.9H288l-4.7,19.1h-.8L278,458.7l-1.3,.7l-.2,-.5Z" class="g5_123" />
<path d="M211.3,443.2H322.8m28.2,0h13.4m18.2,0h10.9" class="g6_123" />
<path d="M457.8,459.7l1.8,-1m.1,0l4.3,7.2m0,0l4.9,-19.2m0,0h10.5" class="g4_123" />
<path fill-rule="evenodd" d="M456.8,458.7l2.6,-1.4l3.9,6l4.5,-17.8h10.8v.9H468.5l-4.7,18.8h-1l-4.4,-6.7l-1.3,.7l-.3,-.5Z" class="g5_123" />
<path d="M455.4,443.2h24.7" class="g6_123" />
<g clip-path="url(#c2_123)">
<g fill="#000000" >
<use xlink:href="#f3_l" transform="matrix(7.3,0,0,7.1,194.6,439.5)" />
<use xlink:href="#f3_l" transform="matrix(7.3,0,0,7.1,429,439.5)" />
<use xlink:href="#f3_l" transform="matrix(12.6,0,0,12.3,222.9,436)" />
<use xlink:href="#f3_l" transform="matrix(12.6,0,0,12.3,286.4,436)" />
<use xlink:href="#f3_l" transform="matrix(12.6,0,0,12.3,383.5,436)" />
<use xlink:href="#f3_l" transform="matrix(12.6,0,0,12.3,469.1,436)" />
<use xlink:href="#f3_2g" transform="matrix(12.6,0,0,12.3,165.3,447.8)" />
<use xlink:href="#f3_1x" transform="matrix(12.6,0,0,12.3,170.4,447.8)" />
<use xlink:href="#f3_2a" transform="matrix(12.6,0,0,12.3,178.5,447.8)" />
<use xlink:href="#f3_1z" transform="matrix(12.6,0,0,12.3,398.2,447.8)" />
<use xlink:href="#f3_2b" transform="matrix(12.6,0,0,12.3,406.3,447.8)" />
<use xlink:href="#f3_2f" transform="matrix(12.6,0,0,12.3,415.4,447.8)" />
<use xlink:href="#f3_g" transform="matrix(12.6,0,0,12.3,446.4,447.8)" />
<use xlink:href="#f3_l" transform="matrix(12.6,0,0,12.3,525,447.8)" />
<use xlink:href="#f3_o" transform="matrix(12.6,0,0,12.3,353.4,462.5)" />
<use xlink:href="#f3_m" transform="matrix(12.6,0,0,12.3,383.8,462.5)" />
<use xlink:href="#f3_l" transform="matrix(12.6,0,0,12.3,222.8,463.7)" />
<use xlink:href="#f3_l" transform="matrix(12.6,0,0,12.3,286.5,463.7)" />
<use xlink:href="#f3_m" transform="matrix(12.6,0,0,12.3,468.9,463.7)" />
<use xlink:href="#f4_2k" transform="matrix(12.6,0,0,12.3,248.9,436)" />
<use xlink:href="#f4_2k" transform="matrix(12.6,0,0,12.3,312.1,436)" />
<use xlink:href="#f4_2k" transform="matrix(12.6,0,0,12.3,438.1,447.8)" />
<use xlink:href="#f4_2k" transform="matrix(12.6,0,0,12.3,500.1,447.8)" />
<use xlink:href="#f4_2k" transform="matrix(12.6,0,0,12.3,248.7,463.7)" />
<use xlink:href="#f4_2k" transform="matrix(12.6,0,0,12.3,312.2,463.7)" />
<use xlink:href="#f2_2c" transform="matrix(12.6,0,-4.2,12.3,351,436)" />
<use xlink:href="#f2_h" transform="matrix(7.3,0,0,7.1,188.9,439.5)" />
<use xlink:href="#f2_h" transform="matrix(7.3,0,0,7.1,423.2,439.5)" />
<use xlink:href="#f2_4r" transform="matrix(12.6,0,0,12.3,203.2,433.3)" />
<use xlink:href="#f2_57" transform="matrix(12.6,0,0,12.3,324.3,433.3)" />
<use xlink:href="#f2_f" transform="matrix(12.6,0,0,12.3,234,436)" />
<use xlink:href="#f2_h" transform="matrix(12.6,0,0,12.3,262.3,436)" />
<use xlink:href="#f2_h" transform="matrix(12.6,0,0,12.3,297.5,436)" />
<use xlink:href="#f2_h" transform="matrix(12.6,0,0,12.3,459.1,436)" />
<use xlink:href="#f2_x" transform="matrix(12.6,0,0,12.3,336.2,447.8)" />
<use xlink:href="#f2_h" transform="matrix(12.6,0,0,12.3,368.7,447.8)" />
<use xlink:href="#f2_2t" transform="matrix(12.6,0,0,12.3,484.8,447.8)" />
<use xlink:href="#f2_2t" transform="matrix(12.6,0,0,12.3,512.6,447.8)" />
<use xlink:href="#f2_4s" transform="matrix(12.6,0,0,12.3,203.2,451.1)" />
<use xlink:href="#f2_58" transform="matrix(12.6,0,0,12.3,324.3,451.1)" />
<use xlink:href="#f2_f" transform="matrix(12.6,0,0,12.3,233.9,463.7)" />
<use xlink:href="#f2_f" transform="matrix(12.6,0,0,12.3,262.1,463.7)" />
<use xlink:href="#f2_h" transform="matrix(12.6,0,0,12.3,297.6,463.7)" />
<use xlink:href="#f2_4t" transform="matrix(12.6,0,0,12.3,203.2,468.6)" />
<use xlink:href="#f2_59" transform="matrix(12.6,0,0,12.3,324.3,468.6)" />
</g>
</g>
<g fill="#000000" >
<use xlink:href="#f5_1f" transform="matrix(12,0,0,12,440.9,492.6)" />
<use xlink:href="#f5_1i" transform="matrix(12,0,0,12,455.2,492.6)" />
</g>
<path d="M125.5,524H163m74.6,0h37.8m28.9,0h13.5" class="g7_123" />
<g clip-path="url(#c3_123)">
<g fill="#000000" >
<use xlink:href="#f3_l" transform="matrix(7.3,0,0,7.1,107.9,520.3)" />
<use xlink:href="#f3_l" transform="matrix(7.3,0,0,7.1,220,520.3)" />
<use xlink:href="#f3_m" transform="matrix(12.7,0,0,12.3,153.3,516.8)" />
<use xlink:href="#f3_m" transform="matrix(12.7,0,0,12.3,265.7,516.8)" />
<use xlink:href="#f3_2g" transform="matrix(12.7,0,0,12.3,78.5,528.6)" />
<use xlink:href="#f3_1x" transform="matrix(12.7,0,0,12.3,83.7,528.6)" />
<use xlink:href="#f3_2a" transform="matrix(12.7,0,0,12.3,91.7,528.6)" />
<use xlink:href="#f3_2g" transform="matrix(12.7,0,0,12.3,190.6,528.6)" />
<use xlink:href="#f3_1x" transform="matrix(12.7,0,0,12.3,195.8,528.6)" />
<use xlink:href="#f3_2a" transform="matrix(12.7,0,0,12.3,203.8,528.6)" />
<use xlink:href="#f3_g" transform="matrix(12.7,0,0,12.3,319.9,528.6)" />
<use xlink:href="#f3_o" transform="matrix(12.7,0,0,12.3,153.3,543.3)" />
<use xlink:href="#f3_o" transform="matrix(12.7,0,0,12.3,265.7,543.3)" />
<use xlink:href="#f3_o" transform="matrix(12.7,0,0,12.3,306.7,543.3)" />
<use xlink:href="#f4_2k" transform="matrix(12.7,0,0,12.3,127.5,516.8)" />
<use xlink:href="#f4_2k" transform="matrix(12.7,0,0,12.3,239.6,516.8)" />
<use xlink:href="#f4_19" transform="matrix(12.7,0,0,12.3,58.5,528.6)" />
<use xlink:href="#f4_22" transform="matrix(12.7,0,0,12.3,64.5,528.6)" />
<use xlink:href="#f4_2k" transform="matrix(12.7,0,0,12.3,127.5,543.3)" />
<use xlink:href="#f4_2k" transform="matrix(12.7,0,0,12.3,239.6,543.3)" />
<use xlink:href="#f2_2c" transform="matrix(12.7,0,-4.2,12.3,304.3,516.8)" />
<use xlink:href="#f2_h" transform="matrix(7.3,0,0,7.1,102.1,520.3)" />
<use xlink:href="#f2_h" transform="matrix(7.3,0,0,7.1,214.3,520.3)" />
<use xlink:href="#f2_h" transform="matrix(12.7,0,0,12.3,139.5,516.8)" />
<use xlink:href="#f2_f" transform="matrix(12.7,0,0,12.3,251.6,516.8)" />
<use xlink:href="#f2_4o" transform="matrix(12.7,0,0,12.3,115.6,518.2)" />
<use xlink:href="#f2_54" transform="matrix(12.7,0,0,12.3,165.7,518.2)" />
<use xlink:href="#f2_4o" transform="matrix(12.7,0,0,12.3,227.7,518.2)" />
<use xlink:href="#f2_54" transform="matrix(12.7,0,0,12.3,278,518.2)" />
<use xlink:href="#f2_f" transform="matrix(12.7,0,0,12.3,176.3,528.6)" />
<use xlink:href="#f2_x" transform="matrix(12.7,0,0,12.3,289.5,528.6)" />
<use xlink:href="#f2_4p" transform="matrix(12.7,0,0,12.3,115.6,533.8)" />
<use xlink:href="#f2_55" transform="matrix(12.7,0,0,12.3,165.7,533.8)" />
<use xlink:href="#f2_4p" transform="matrix(12.7,0,0,12.3,227.7,533.8)" />
<use xlink:href="#f2_55" transform="matrix(12.7,0,0,12.3,278,533.8)" />
<use xlink:href="#f2_h" transform="matrix(12.7,0,0,12.3,139.5,543.3)" />
<use xlink:href="#f2_f" transform="matrix(12.7,0,0,12.3,251.6,543.3)" />
<use xlink:href="#f2_4q" transform="matrix(12.7,0,0,12.3,115.6,545.4)" />
<use xlink:href="#f2_56" transform="matrix(12.7,0,0,12.3,165.7,545.4)" />
<use xlink:href="#f2_4q" transform="matrix(12.7,0,0,12.3,227.7,545.4)" />
<use xlink:href="#f2_56" transform="matrix(12.7,0,0,12.3,278,545.4)" />
</g>
</g>
<g fill="#000000" >
<use xlink:href="#f3_22" transform="matrix(12,0,0,12,333,528.5)" />
<use xlink:href="#f3_25" transform="matrix(12,0,0,12,339.3,528.5)" />
<use xlink:href="#f3_2a" transform="matrix(12,0,0,12,344,528.5)" />
<use xlink:href="#f3_20" transform="matrix(12,0,0,12,353.2,528.5)" />
<use xlink:href="#f3_2g" transform="matrix(12,0,0,12,367.1,528.5)" />
<use xlink:href="#f3_24" transform="matrix(12,0,0,12,372.6,528.5)" />
<use xlink:href="#f3_21" transform="matrix(12,0,0,12,381.4,528.5)" />
<use xlink:href="#f3_2i" transform="matrix(12,0,0,12,394.2,528.5)" />
<use xlink:href="#f3_1x" transform="matrix(12,0,0,12,403,528.5)" />
<use xlink:href="#f3_28" transform="matrix(12,0,0,12,411.4,528.5)" />
<use xlink:href="#f3_2h" transform="matrix(12,0,0,12,416.2,528.5)" />
<use xlink:href="#f3_21" transform="matrix(12,0,0,12,425.3,528.5)" />
<use xlink:href="#f3_2b" transform="matrix(12,0,0,12,438.2,528.5)" />
<use xlink:href="#f3_22" transform="matrix(12,0,0,12,447.7,528.5)" />
<use xlink:href="#f3_2k" transform="matrix(12,0,0,12,457.9,528.5)" />
<use xlink:href="#f3_i" transform="matrix(12,0,0,12,466.7,528.5)" />
<use xlink:href="#f5_1j" transform="matrix(12,0,0,12,55,568.9)" />
<use xlink:href="#f5_2b" transform="matrix(12,0,0,12,65.3,568.9)" />
<use xlink:href="#f5_28" transform="matrix(12,0,0,12,74.5,568.9)" />
<use xlink:href="#f5_2h" transform="matrix(12,0,0,12,79.2,568.9)" />
<use xlink:href="#f5_2g" transform="matrix(12,0,0,12,89.5,568.9)" />
<use xlink:href="#f5_25" transform="matrix(12,0,0,12,95.7,568.9)" />
<use xlink:href="#f5_2b" transform="matrix(12,0,0,12,100.8,568.9)" />
<use xlink:href="#f5_2a" transform="matrix(12,0,0,12,109.9,568.9)" />
<use xlink:href="#f5_u" transform="matrix(12,0,0,12,120.2,568.9)" />
</g>
<path d="M106.9,594.2l1.8,-1.1m0,0l4.5,7.3m0,.1L118,581m0,0h34" class="g8_123" />
<path fill-rule="evenodd" d="M105.9,593.2l2.5,-1.4l4,6l4.5,-18h34.4v.9H117.6l-4.7,19H112L107.5,593l-1.3,.7l-.3,-.5Z" class="g5_123" />
<path d="M170.6,594.2l1.8,-1.1m0,0l4.5,7.3m0,.1L181.8,581m0,0h33.8" class="g8_123" />
<path fill-rule="evenodd" d="M169.7,593.2l2.5,-1.4l4,6l4.5,-18h34.1v.9H181.3l-4.7,19h-.9L171.2,593l-1.3,.7l-.2,-.5Z" class="g5_123" />
<path d="M106.7,621.9l1.8,-1m.1,0l4.4,7.3m0,.1l4.9,-19.5m0,-.1H152" class="g8_123" />
<path fill-rule="evenodd" d="M105.8,621l2.5,-1.5l4,6.1l4.5,-18h34.4v.9H117.4l-4.7,19h-.9l-4.5,-6.8l-1.2,.8l-.3,-.5Z" class="g5_123" />
<path d="M170.7,621.9l1.9,-1m0,0l4.5,7.3m0,.1l4.8,-19.5m0,-.1h33.7" class="g8_123" />
<path fill-rule="evenodd" d="M169.8,621l2.5,-1.5l4,6.1l4.5,-18h34.1v.9H181.5l-4.8,19h-.9l-4.5,-6.8l-1.2,.8l-.3,-.5Z" class="g5_123" />
<path d="M104.4,605.2H216.3m28.3,0h13.5m18.3,0h10.9" class="g9_123" />
<path d="M349.6,621.7l1.9,-1m0,0l4.4,7.2m0,.1l4.9,-19.2m0,-.1h10.5" class="g8_123" />
<path fill-rule="evenodd" d="M348.7,620.7l2.5,-1.3l3.9,5.9l4.5,-17.7h10.9v.9H360.3l-4.7,18.7h-.9l-4.5,-6.6l-1.3,.7l-.2,-.6Z" class="g5_123" />
<path d="M347.2,605.2h24.7" class="g9_123" />
<g clip-path="url(#c4_123)">
<g fill="#000000" >
<use xlink:href="#f3_l" transform="matrix(7.3,0,0,7.1,87.7,601.6)" />
<use xlink:href="#f3_l" transform="matrix(7.3,0,0,7.1,320.7,601.6)" />
<use xlink:href="#f3_l" transform="matrix(12.7,0,0,12.3,116.1,598)" />
<use xlink:href="#f3_l" transform="matrix(12.7,0,0,12.3,179.8,598)" />
<use xlink:href="#f3_l" transform="matrix(12.7,0,0,12.3,277.3,598)" />
<use xlink:href="#f3_l" transform="matrix(12.7,0,0,12.3,355,598)" />
<use xlink:href="#f3_2g" transform="matrix(12.7,0,0,12.3,58.2,609.9)" />
<use xlink:href="#f3_1x" transform="matrix(12.7,0,0,12.3,63.4,609.9)" />
<use xlink:href="#f3_2a" transform="matrix(12.7,0,0,12.3,71.4,609.9)" />
<use xlink:href="#f3_1z" transform="matrix(12.7,0,0,12.3,289.8,609.9)" />
<use xlink:href="#f3_2b" transform="matrix(12.7,0,0,12.3,297.8,609.9)" />
<use xlink:href="#f3_2f" transform="matrix(12.7,0,0,12.3,307,609.9)" />
<use xlink:href="#f3_g" transform="matrix(12.7,0,0,12.3,338.1,609.9)" />
<use xlink:href="#f3_l" transform="matrix(12.7,0,0,12.3,417.1,609.9)" />
<use xlink:href="#f3_o" transform="matrix(12.7,0,0,12.3,247.1,624.5)" />
<use xlink:href="#f3_m" transform="matrix(12.7,0,0,12.3,277.6,624.5)" />
<use xlink:href="#f3_l" transform="matrix(12.7,0,0,12.3,115.9,625.8)" />
<use xlink:href="#f3_l" transform="matrix(12.7,0,0,12.3,179.9,625.8)" />
<use xlink:href="#f3_m" transform="matrix(12.7,0,0,12.3,360.7,625.8)" />
<use xlink:href="#f4_2k" transform="matrix(12.7,0,0,12.3,142.2,598)" />
<use xlink:href="#f4_2k" transform="matrix(12.7,0,0,12.3,205.6,598)" />
<use xlink:href="#f4_2k" transform="matrix(12.7,0,0,12.3,329.8,609.9)" />
<use xlink:href="#f4_2k" transform="matrix(12.7,0,0,12.3,392.1,609.9)" />
<use xlink:href="#f4_2k" transform="matrix(12.7,0,0,12.3,142,625.8)" />
<use xlink:href="#f4_2k" transform="matrix(12.7,0,0,12.3,205.7,625.8)" />
<use xlink:href="#f2_2c" transform="matrix(12.7,0,-4.2,12.3,244.6,598)" />
<use xlink:href="#f2_h" transform="matrix(7.3,0,0,7.1,81.9,601.6)" />
<use xlink:href="#f2_h" transform="matrix(7.3,0,0,7.1,314.9,601.6)" />
<use xlink:href="#f2_4r" transform="matrix(12.7,0,0,12.3,96.2,595.4)" />
<use xlink:href="#f2_57" transform="matrix(12.7,0,0,12.3,217.9,595.4)" />
<use xlink:href="#f2_f" transform="matrix(12.7,0,0,12.3,127.2,598)" />
<use xlink:href="#f2_h" transform="matrix(12.7,0,0,12.3,155.6,598)" />
<use xlink:href="#f2_h" transform="matrix(12.7,0,0,12.3,190.9,598)" />
<use xlink:href="#f2_x" transform="matrix(12.7,0,0,12.3,229.8,609.9)" />
<use xlink:href="#f2_h" transform="matrix(12.7,0,0,12.3,262.4,609.9)" />
<use xlink:href="#f2_2t" transform="matrix(12.7,0,0,12.3,376.7,609.9)" />
<use xlink:href="#f2_2t" transform="matrix(12.7,0,0,12.3,404.6,609.9)" />
<use xlink:href="#f2_4s" transform="matrix(12.7,0,0,12.3,96.2,613.1)" />
<use xlink:href="#f2_58" transform="matrix(12.7,0,0,12.3,217.9,613.1)" />
<use xlink:href="#f2_f" transform="matrix(12.7,0,0,12.3,127.1,625.8)" />
<use xlink:href="#f2_f" transform="matrix(12.7,0,0,12.3,155.4,625.8)" />
<use xlink:href="#f2_h" transform="matrix(12.7,0,0,12.3,191.1,625.8)" />
<use xlink:href="#f2_4t" transform="matrix(12.7,0,0,12.3,96.2,630.7)" />
<use xlink:href="#f2_59" transform="matrix(12.7,0,0,12.3,217.9,630.7)" />
</g>
</g>
<g fill="#000000" >
<use xlink:href="#f3_19" transform="matrix(12,0,0,12,55,654.7)" />
<use xlink:href="#f3_2a" transform="matrix(12,0,0,12,61.3,654.7)" />
<use xlink:href="#f3_1c" transform="matrix(12,0,0,12,74.8,654.7)" />
<use xlink:href="#f3_18" transform="matrix(12,0,0,12,85.8,654.7)" />
<use xlink:href="#f3_1j" transform="matrix(12,0,0,12,99,654.7)" />
<use xlink:href="#f3_2c" transform="matrix(12,0,0,12,55,677.4)" />
<use xlink:href="#f3_2h" transform="matrix(12,0,0,12,64.2,677.4)" />
<use xlink:href="#f3_2g" transform="matrix(12,0,0,12,73.4,677.4)" />
<use xlink:href="#f3_2k" transform="matrix(12,0,0,12,83.3,677.4)" />
<use xlink:href="#f3_x" transform="matrix(12,0,0,12,96.8,677.4)" />
<use xlink:href="#f3_1z" transform="matrix(12,0,0,12,111.8,677.4)" />
<use xlink:href="#f3_2b" transform="matrix(12,0,0,12,119.9,677.4)" />
<use xlink:href="#f3_2f" transform="matrix(12,0,0,12,129.4,677.4)" />
<use xlink:href="#f3_m" transform="matrix(12,0,0,12,141.2,677.4)" />
<use xlink:href="#f6_ey" transform="matrix(12,0,0,12,150.4,677.4)" />
</g>
<path d="M106.6,702.7l1.8,-1m.1,0l4.4,7.3m0,0l4.9,-19.4m0,-.1h70.4" class="g10_123" />
<path fill-rule="evenodd" d="M105.7,701.7l2.5,-1.4l4,6.1l4.4,-18.1h70.9v.9H117.3l-4.7,19.1h-.9l-4.5,-6.8l-1.2,.8l-.3,-.6Z" class="g5_123" />
<path d="M206.7,702.7l1.8,-1m.1,0L213,709m0,0l4.9,-19.4m0,-.1h70.2" class="g10_123" />
<path fill-rule="evenodd" d="M205.8,701.7l2.5,-1.4l4,6.1l4.5,-18.1h70.5v.9H217.4l-4.7,19.1h-.9l-4.5,-6.8l-1.2,.8l-.3,-.6Z" class="g5_123" />
<path d="M107,730.5l1.8,-1.1m.1,0l4.4,7.3m0,.1l4.9,-19.5m0,0h70.4" class="g10_123" />
<path fill-rule="evenodd" d="M106.1,729.5l2.5,-1.4l4,6l4.5,-18h70.8v.9H117.7L113,736.1h-.9l-4.5,-6.9l-1.2,.8l-.3,-.5Z" class="g5_123" />
<path d="M207.4,730.5l1.9,-1.1m0,0l4.4,7.3m0,.1l4.9,-19.5m0,0h69.1" class="g10_123" />
<path fill-rule="evenodd" d="M206.5,729.5l2.6,-1.4l3.9,6l4.5,-18h69.4v.9H218.1l-4.7,19.1h-.9L208,729.2l-1.2,.8l-.3,-.5Z" class="g5_123" />
<path d="M104.3,713.8H288.8" class="g11_123" />
<g clip-path="url(#c5_123)">
<g fill="#000000" >
<use xlink:href="#f3_l" transform="matrix(7.3,0,0,7.1,87.6,710.1)" />
<use xlink:href="#f3_l" transform="matrix(12.6,0,0,12.3,115.8,706.6)" />
<use xlink:href="#f3_1z" transform="matrix(12.6,0,0,12.3,140.6,706.6)" />
<use xlink:href="#f3_2b" transform="matrix(12.6,0,0,12.3,148.6,706.6)" />
<use xlink:href="#f3_2f" transform="matrix(12.6,0,0,12.3,157.8,706.6)" />
<use xlink:href="#f3_m" transform="matrix(12.6,0,0,12.3,167.1,706.6)" />
<use xlink:href="#f3_l" transform="matrix(12.6,0,0,12.3,215.8,706.6)" />
<use xlink:href="#f3_1z" transform="matrix(12.6,0,0,12.3,240.4,706.6)" />
<use xlink:href="#f3_2b" transform="matrix(12.6,0,0,12.3,248.4,706.6)" />
<use xlink:href="#f3_2f" transform="matrix(12.6,0,0,12.3,257.6,706.6)" />
<use xlink:href="#f3_m" transform="matrix(12.6,0,0,12.3,266.9,706.6)" />
<use xlink:href="#f3_2g" transform="matrix(12.6,0,0,12.3,58.2,718.4)" />
<use xlink:href="#f3_1x" transform="matrix(12.6,0,0,12.3,63.4,718.4)" />
<use xlink:href="#f3_2a" transform="matrix(12.6,0,0,12.3,71.4,718.4)" />
<use xlink:href="#f3_l" transform="matrix(12.6,0,0,12.3,116.2,734.3)" />
<use xlink:href="#f3_1z" transform="matrix(12.6,0,0,12.3,141.1,734.3)" />
<use xlink:href="#f3_2b" transform="matrix(12.6,0,0,12.3,149.1,734.3)" />
<use xlink:href="#f3_2f" transform="matrix(12.6,0,0,12.3,158.2,734.3)" />
<use xlink:href="#f3_m" transform="matrix(12.6,0,0,12.3,167.5,734.3)" />
<use xlink:href="#f3_l" transform="matrix(12.6,0,0,12.3,216.5,734.3)" />
<use xlink:href="#f3_1z" transform="matrix(12.6,0,0,12.3,241.1,734.3)" />
<use xlink:href="#f3_2b" transform="matrix(12.6,0,0,12.3,249.1,734.3)" />
<use xlink:href="#f3_2f" transform="matrix(12.6,0,0,12.3,258.3,734.3)" />
<use xlink:href="#f3_m" transform="matrix(12.6,0,0,12.3,267.6,734.3)" />
<use xlink:href="#f2_2d" transform="matrix(12.6,0,-4.2,12.3,174.9,706.6)" />
<use xlink:href="#f2_2d" transform="matrix(12.6,0,-4.2,12.3,274.8,706.6)" />
<use xlink:href="#f2_2d" transform="matrix(12.6,0,-4.2,12.3,175.3,734.3)" />
<use xlink:href="#f2_h" transform="matrix(7.3,0,0,7.1,81.8,710.1)" />
<use xlink:href="#f2_4r" transform="matrix(12.6,0,0,12.3,96.1,703.9)" />
<use xlink:href="#f2_57" transform="matrix(12.6,0,0,12.3,290.3,703.9)" />
<use xlink:href="#f2_f" transform="matrix(12.6,0,0,12.3,126.9,706.6)" />
<use xlink:href="#f2_h" transform="matrix(12.6,0,0,12.3,191.7,706.6)" />
<use xlink:href="#f2_h" transform="matrix(12.6,0,0,12.3,227,706.6)" />
<use xlink:href="#f2_4s" transform="matrix(12.6,0,0,12.3,96.1,721.7)" />
<use xlink:href="#f2_58" transform="matrix(12.6,0,0,12.3,290.3,721.7)" />
<use xlink:href="#f2_f" transform="matrix(12.6,0,0,12.3,127.3,734.3)" />
<use xlink:href="#f2_f" transform="matrix(12.6,0,0,12.3,192.2,734.3)" />
<use xlink:href="#f2_h" transform="matrix(12.6,0,0,12.3,227.7,734.3)" />
<use xlink:href="#f2_2d" transform="matrix(12.6,0,0,12.3,276.8,734.3)" />
<use xlink:href="#f2_4t" transform="matrix(12.6,0,0,12.3,96.1,739.2)" />
<use xlink:href="#f2_59" transform="matrix(12.6,0,0,12.3,290.3,739.2)" />
</g>
</g>
<path d="M121.3,766.5l1.8,-1.2m0,0l4.5,8.2m0,.1l4.8,-21.7m0,-.1H233.9" class="g12_123" />
<path fill-rule="evenodd" d="M120.4,765.5l2.5,-1.5l3.9,6.9l4.5,-20.3H233.2v.9H132l-4.7,21.3h-.9l-4.5,-7.6l-1.3,.9l-.2,-.6Z" class="g5_123" />
<path d="M252.4,766.5l1.9,-1.2m0,0l4.4,8.2m0,.1l4.9,-21.7m0,-.1h98.9" class="g12_123" />
<path fill-rule="evenodd" d="M251.5,765.5L254,764l4,6.9l4.5,-20.3h99.3v.9H263.2l-4.8,21.3h-.9L253,765.2l-1.2,.9l-.3,-.6Z" class="g5_123" />
<path d="M121.1,796.5l1.9,-1.2m0,0l4.4,8.2m0,.1l4.9,-21.7m0,-.1H233.8" class="g12_123" />
<path fill-rule="evenodd" d="M120.2,795.5l2.5,-1.5l3.9,6.9l4.6,-20.3H233v.9H131.8l-4.7,21.3h-.9l-4.5,-7.6l-1.2,.8l-.3,-.5Z" class="g5_123" />
<path d="M252.6,796.5l1.8,-1.2m0,0l4.5,8.2m0,.1l4.9,-21.7m0,-.1h98.9" class="g12_123" />
<path fill-rule="evenodd" d="M251.7,795.5l2.5,-1.5l3.9,6.9l4.5,-20.3h99.3v.9H263.3l-4.7,21.3h-.9l-4.5,-7.6L252,796l-.3,-.5Z" class="g5_123" />
<path d="M118.8,778.3H363.3" class="g13_123" />
<g clip-path="url(#c6_123)">
<g fill="#000000" >
<use xlink:href="#f3_m" transform="matrix(7.3,0,0,7.1,191.5,762.8)" />
<use xlink:href="#f3_m" transform="matrix(7.3,0,0,7.1,343,762.8)" />
<use xlink:href="#f3_l" transform="matrix(7.3,0,0,7.1,102.1,774.6)" />
<use xlink:href="#f3_m" transform="matrix(7.3,0,0,7.1,191.4,792.8)" />
<use xlink:href="#f3_m" transform="matrix(7.3,0,0,7.1,343.1,792.8)" />
<use xlink:href="#f3_l" transform="matrix(12.6,0,0,12.3,130.5,771.1)" />
<use xlink:href="#f3_m" transform="matrix(12.6,0,0,12.3,155.6,771.1)" />
<use xlink:href="#f3_1z" transform="matrix(12.6,0,0,12.3,166.4,771.1)" />
<use xlink:href="#f3_2b" transform="matrix(12.6,0,0,12.3,174.4,771.1)" />
<use xlink:href="#f3_2f" transform="matrix(12.6,0,0,12.3,183.6,771.1)" />
<use xlink:href="#f3_l" transform="matrix(12.6,0,0,12.3,224.8,771.1)" />
<use xlink:href="#f3_l" transform="matrix(12.6,0,0,12.3,261.5,771.1)" />
<use xlink:href="#f3_l" transform="matrix(12.6,0,0,12.3,284.4,771.1)" />
<use xlink:href="#f3_m" transform="matrix(12.6,0,0,12.3,309.6,771.1)" />
<use xlink:href="#f3_2f" transform="matrix(12.6,0,0,12.3,320,771.1)" />
<use xlink:href="#f3_25" transform="matrix(12.6,0,0,12.3,327.2,771.1)" />
<use xlink:href="#f3_2a" transform="matrix(12.6,0,0,12.3,332.3,771.1)" />
<use xlink:href="#f3_2g" transform="matrix(12.6,0,0,12.3,72.7,782.9)" />
<use xlink:href="#f3_1x" transform="matrix(12.6,0,0,12.3,77.9,782.9)" />
<use xlink:href="#f3_2a" transform="matrix(12.6,0,0,12.3,85.9,782.9)" />
<use xlink:href="#f3_l" transform="matrix(12.6,0,0,12.3,130.3,801.1)" />
<use xlink:href="#f3_m" transform="matrix(12.6,0,0,12.3,155.5,801.1)" />
<use xlink:href="#f3_1z" transform="matrix(12.6,0,0,12.3,166.3,801.1)" />
<use xlink:href="#f3_2b" transform="matrix(12.6,0,0,12.3,174.3,801.1)" />
<use xlink:href="#f3_2f" transform="matrix(12.6,0,0,12.3,183.4,801.1)" />
<use xlink:href="#f3_l" transform="matrix(12.6,0,0,12.3,224.6,801.1)" />
<use xlink:href="#f3_l" transform="matrix(12.6,0,0,12.3,261.7,801.1)" />
<use xlink:href="#f3_l" transform="matrix(12.6,0,0,12.3,284.5,801.1)" />
<use xlink:href="#f3_m" transform="matrix(12.6,0,0,12.3,309.7,801.1)" />
<use xlink:href="#f3_2f" transform="matrix(12.6,0,0,12.3,320.2,801.1)" />
<use xlink:href="#f3_25" transform="matrix(12.6,0,0,12.3,327.3,801.1)" />
<use xlink:href="#f3_2a" transform="matrix(12.6,0,0,12.3,332.5,801.1)" />
<use xlink:href="#f2_h" transform="matrix(7.3,0,0,7.1,96.4,774.6)" />
<use xlink:href="#f2_4r" transform="matrix(12.6,0,0,12.3,110.7,766.2)" />
<use xlink:href="#f2_57" transform="matrix(12.6,0,0,12.3,364.9,766.2)" />
<use xlink:href="#f2_f" transform="matrix(12.6,0,0,12.3,141.6,771.1)" />
<use xlink:href="#f2_2d" transform="matrix(12.6,0,0,12.3,200.3,771.1)" />
<use xlink:href="#f2_h" transform="matrix(12.6,0,0,12.3,213.1,771.1)" />
<use xlink:href="#f2_h" transform="matrix(12.6,0,0,12.3,237.5,771.1)" />
<use xlink:href="#f2_h" transform="matrix(12.6,0,0,12.3,272.7,771.1)" />
<use xlink:href="#f2_f" transform="matrix(12.6,0,0,12.3,295.6,771.1)" />
<use xlink:href="#f2_2d" transform="matrix(12.6,0,0,12.3,351.7,771.1)" />
<use xlink:href="#f2_x" transform="matrix(12.6,0,0,12.3,58,782.9)" />
<use xlink:href="#f2_4s" transform="matrix(12.6,0,0,12.3,110.7,784)" />
<use xlink:href="#f2_58" transform="matrix(12.6,0,0,12.3,364.9,784)" />
<use xlink:href="#f2_f" transform="matrix(12.6,0,0,12.3,141.5,801.1)" />
<use xlink:href="#f2_2d" transform="matrix(12.6,0,0,12.3,200.1,801.1)" />
<use xlink:href="#f2_h" transform="matrix(12.6,0,0,12.3,213,801.1)" />
<use xlink:href="#f2_f" transform="matrix(12.6,0,0,12.3,237.3,801.1)" />
<use xlink:href="#f2_h" transform="matrix(12.6,0,0,12.3,272.9,801.1)" />
<use xlink:href="#f2_f" transform="matrix(12.6,0,0,12.3,295.8,801.1)" />
<use xlink:href="#f2_2d" transform="matrix(12.6,0,0,12.3,351.8,801.1)" />
<use xlink:href="#f2_4s" transform="matrix(12.6,0,0,12.3,110.7,801.7)" />
<use xlink:href="#f2_58" transform="matrix(12.6,0,0,12.3,364.9,801.7)" />
<use xlink:href="#f2_4t" transform="matrix(12.6,0,0,12.3,110.7,806)" />
<use xlink:href="#f2_59" transform="matrix(12.6,0,0,12.3,364.9,806)" />
</g>
</g>
<path d="M118.7,837.9H206" class="g14_123" />
<g clip-path="url(#c7_123)">
<g fill="#000000" >
<use xlink:href="#f3_l" transform="matrix(7.4,0,0,7.1,102.1,834.2)" />
<use xlink:href="#f3_1z" transform="matrix(12.7,0,0,12.3,119.7,830.6)" />
<use xlink:href="#f3_2b" transform="matrix(12.7,0,0,12.3,127.7,830.6)" />
<use xlink:href="#f3_2f" transform="matrix(12.7,0,0,12.3,136.9,830.6)" />
<use xlink:href="#f3_2f" transform="matrix(12.7,0,0,12.3,171.9,830.6)" />
<use xlink:href="#f3_25" transform="matrix(12.7,0,0,12.3,179.1,830.6)" />
<use xlink:href="#f3_2a" transform="matrix(12.7,0,0,12.3,184.2,830.6)" />
<use xlink:href="#f3_2g" transform="matrix(12.7,0,0,12.3,72.7,842.5)" />
<use xlink:href="#f3_1x" transform="matrix(12.7,0,0,12.3,77.9,842.5)" />
<use xlink:href="#f3_2a" transform="matrix(12.7,0,0,12.3,85.9,842.5)" />
<use xlink:href="#f3_1z" transform="matrix(12.7,0,0,12.3,119.6,857.2)" />
<use xlink:href="#f3_2b" transform="matrix(12.7,0,0,12.3,127.6,857.2)" />
<use xlink:href="#f3_2f" transform="matrix(12.7,0,0,12.3,136.7,857.2)" />
<use xlink:href="#f3_2f" transform="matrix(12.7,0,0,12.3,172.1,857.2)" />
<use xlink:href="#f3_25" transform="matrix(12.7,0,0,12.3,179.2,857.2)" />
<use xlink:href="#f3_2a" transform="matrix(12.7,0,0,12.3,184.4,857.2)" />
<use xlink:href="#f2_h" transform="matrix(7.4,0,0,7.1,96.3,834.2)" />
<use xlink:href="#f2_2d" transform="matrix(12.7,0,0,12.3,145.9,830.6)" />
<use xlink:href="#f2_h" transform="matrix(12.7,0,0,12.3,158.8,830.6)" />
<use xlink:href="#f2_2d" transform="matrix(12.7,0,0,12.3,195.8,830.6)" />
<use xlink:href="#f2_4r" transform="matrix(12.7,0,0,12.3,110.6,832.1)" />
<use xlink:href="#f2_57" transform="matrix(12.7,0,0,12.3,207.5,832.1)" />
<use xlink:href="#f2_x" transform="matrix(12.7,0,0,12.3,58,842.5)" />
<use xlink:href="#f2_4s" transform="matrix(12.7,0,0,12.3,110.6,849.9)" />
<use xlink:href="#f2_58" transform="matrix(12.7,0,0,12.3,207.5,849.9)" />
<use xlink:href="#f2_2d" transform="matrix(12.7,0,0,12.3,145.8,857.2)" />
<use xlink:href="#f2_f" transform="matrix(12.7,0,0,12.3,158.6,857.2)" />
<use xlink:href="#f2_2d" transform="matrix(12.7,0,0,12.3,196,857.2)" />
<use xlink:href="#f2_4t" transform="matrix(12.7,0,0,12.3,110.6,859.3)" />
<use xlink:href="#f2_59" transform="matrix(12.7,0,0,12.3,207.5,859.3)" />
</g>
</g>
<path d="M118.8,891.7h59.5" class="g15_123" />
<path d="M172,927.4l-5.9,18.4m23.4,8l-5.9,18.4" class="g16_123" />
<path d="M118.8,948.7h128m-84,36.5l-5.8,18.4" class="g15_123" />
<g clip-path="url(#c8_123)">
<g fill="#000000" >
<use xlink:href="#f2_1r" transform="matrix(12.1,0,0,16.6,109.3,1000.7)" />
<use xlink:href="#f2_1t" transform="matrix(12.1,0,0,16.6,206.7,1000.7)" />
</g>
</g>
<path d="M72.8,1051.6H84.5m107.2,16h50M72.8,1118.8H84.5m18.3,0h10.9" class="g15_123" />
<g clip-path="url(#c8_123)">
<g fill="#000000" >
<use xlink:href="#f3_l" transform="matrix(7.1,0,0,7.1,102.1,888)" />
<use xlink:href="#f3_l" transform="matrix(7.1,0,0,7.1,102.1,945)" />
<use xlink:href="#f3_l" transform="matrix(7.1,0,0,7.1,102.1,991)" />
<use xlink:href="#f3_l" transform="matrix(7.1,0,0,7.1,223.4,1052.1)" />
<use xlink:href="#f3_l" transform="matrix(7.1,0,0,7.1,147,1115.2)" />
<use xlink:href="#f3_l" transform="matrix(12.3,0,0,12.3,118.1,884.5)" />
<use xlink:href="#f3_2g" transform="matrix(12.3,0,0,12.3,143.3,884.5)" />
<use xlink:href="#f3_1x" transform="matrix(12.3,0,0,12.3,148.5,884.5)" />
<use xlink:href="#f3_2a" transform="matrix(12.3,0,0,12.3,156.5,884.5)" />
<use xlink:href="#f3_2g" transform="matrix(12.3,0,0,12.3,72.8,896.3)" />
<use xlink:href="#f3_1x" transform="matrix(12.3,0,0,12.3,78,896.3)" />
<use xlink:href="#f3_2a" transform="matrix(12.3,0,0,12.3,85.9,896.3)" />
<use xlink:href="#f3_l" transform="matrix(12.3,0,0,12.3,118,910.9)" />
<use xlink:href="#f3_2g" transform="matrix(12.3,0,0,12.3,143.4,910.9)" />
<use xlink:href="#f3_1x" transform="matrix(12.3,0,0,12.3,148.6,910.9)" />
<use xlink:href="#f3_2a" transform="matrix(12.3,0,0,12.3,156.6,910.9)" />
<use xlink:href="#f3_2g" transform="matrix(12.3,0,0,12.3,125.9,941.5)" />
<use xlink:href="#f3_1x" transform="matrix(12.3,0,0,12.3,131.2,941.5)" />
<use xlink:href="#f3_2a" transform="matrix(12.3,0,0,12.3,139.1,941.5)" />
<use xlink:href="#f3_c" transform="matrix(12.3,0,0,12.3,148.3,941.5)" />
<use xlink:href="#f3_o" transform="matrix(12.3,0,0,12.3,173.4,941.5)" />
<use xlink:href="#f3_d" transform="matrix(12.3,0,0,12.3,182.5,941.5)" />
<use xlink:href="#f3_2g" transform="matrix(12.3,0,0,12.3,206.3,941.5)" />
<use xlink:href="#f3_1x" transform="matrix(12.3,0,0,12.3,211.5,941.5)" />
<use xlink:href="#f3_2a" transform="matrix(12.3,0,0,12.3,219.5,941.5)" />
<use xlink:href="#f3_2g" transform="matrix(12.3,0,0,12.3,72.8,953.3)" />
<use xlink:href="#f3_1x" transform="matrix(12.3,0,0,12.3,78,953.3)" />
<use xlink:href="#f3_2a" transform="matrix(12.3,0,0,12.3,85.9,953.3)" />
<use xlink:href="#f3_l" transform="matrix(12.3,0,0,12.3,118,967.9)" />
<use xlink:href="#f3_2g" transform="matrix(12.3,0,0,12.3,143.4,967.9)" />
<use xlink:href="#f3_1x" transform="matrix(12.3,0,0,12.3,148.6,967.9)" />
<use xlink:href="#f3_2a" transform="matrix(12.3,0,0,12.3,156.6,967.9)" />
<use xlink:href="#f3_c" transform="matrix(12.3,0,0,12.3,165.8,967.9)" />
<use xlink:href="#f3_o" transform="matrix(12.3,0,0,12.3,190.8,967.9)" />
<use xlink:href="#f3_d" transform="matrix(12.3,0,0,12.3,200,967.9)" />
<use xlink:href="#f3_i" transform="matrix(12.3,0,0,12.3,206,967.9)" />
<use xlink:href="#f3_2g" transform="matrix(12.3,0,0,12.3,211.9,967.9)" />
<use xlink:href="#f3_1x" transform="matrix(12.3,0,0,12.3,217.1,967.9)" />
<use xlink:href="#f3_2a" transform="matrix(12.3,0,0,12.3,225.1,967.9)" />
<use xlink:href="#f3_2g" transform="matrix(12.3,0,0,12.3,72.8,999.3)" />
<use xlink:href="#f3_1x" transform="matrix(12.3,0,0,12.3,78,999.3)" />
<use xlink:href="#f3_2a" transform="matrix(12.3,0,0,12.3,85.9,999.3)" />
<use xlink:href="#f3_2g" transform="matrix(12.3,0,0,12.3,116.6,999.3)" />
<use xlink:href="#f3_1x" transform="matrix(12.3,0,0,12.3,121.8,999.3)" />
<use xlink:href="#f3_2a" transform="matrix(12.3,0,0,12.3,129.8,999.3)" />
<use xlink:href="#f3_c" transform="matrix(12.3,0,0,12.3,138.9,999.3)" />
<use xlink:href="#f3_o" transform="matrix(12.3,0,0,12.3,164.5,999.3)" />
<use xlink:href="#f3_d" transform="matrix(12.3,0,0,12.3,173.6,999.3)" />
<use xlink:href="#f3_1z" transform="matrix(12.3,0,0,12.3,182.8,1030.5)" />
<use xlink:href="#f3_2b" transform="matrix(12.3,0,0,12.3,190.9,1030.5)" />
<use xlink:href="#f3_2f" transform="matrix(12.3,0,0,12.3,200,1030.5)" />
<use xlink:href="#f3_m" transform="matrix(12.3,0,0,12.3,209.4,1030.5)" />
<use xlink:href="#f3_1z" transform="matrix(12.3,0,0,12.3,192.6,1060.4)" />
<use xlink:href="#f3_2b" transform="matrix(12.3,0,0,12.3,200.6,1060.4)" />
<use xlink:href="#f3_2f" transform="matrix(12.3,0,0,12.3,209.8,1060.4)" />
<use xlink:href="#f3_o" transform="matrix(12.3,0,0,12.3,74.3,1070.8)" />
<use xlink:href="#f3_g" transform="matrix(12.3,0,0,12.3,171.6,1072.2)" />
<use xlink:href="#f3_m" transform="matrix(12.3,0,0,12.3,212.4,1086.8)" />
<use xlink:href="#f3_l" transform="matrix(12.3,0,0,12.3,103.7,1111.6)" />
<use xlink:href="#f3_1z" transform="matrix(12.3,0,0,12.3,116.2,1123.4)" />
<use xlink:href="#f3_2b" transform="matrix(12.3,0,0,12.3,124.2,1123.4)" />
<use xlink:href="#f3_2f" transform="matrix(12.3,0,0,12.3,133.4,1123.4)" />
<use xlink:href="#f3_o" transform="matrix(12.3,0,0,12.3,74.3,1138)" />
<use xlink:href="#f3_m" transform="matrix(12.3,0,0,12.3,104,1138)" />
<use xlink:href="#f4_2k" transform="matrix(12.3,0,0,12.3,155.8,1030.5)" />
<use xlink:href="#f4_1x" transform="matrix(12.3,0,0,12.3,126.6,1056.2)" />
<use xlink:href="#f4_2f" transform="matrix(12.3,0,0,12.3,135.8,1056.2)" />
<use xlink:href="#f4_2k" transform="matrix(12.3,0,0,12.3,232.5,1060.4)" />
<use xlink:href="#f4_2f" transform="matrix(12.3,0,0,12.3,155.2,1072.2)" />
<use xlink:href="#f4_2b" transform="matrix(12.3,0,0,12.3,162.4,1072.2)" />
<use xlink:href="#f4_2k" transform="matrix(12.3,0,0,12.3,156.1,1123.4)" />
<use xlink:href="#f4_1i" transform="matrix(12.3,0,0,12.3,184,1123.4)" />
<use xlink:href="#f4_18" transform="matrix(12.3,0,0,12.3,195.2,1123.4)" />
<use xlink:href="#f4_1j" transform="matrix(12.3,0,0,12.3,208.4,1123.4)" />
<use xlink:href="#f4_2c" transform="matrix(12.3,0,0,12.3,247.1,1123.4)" />
<use xlink:href="#f4_2e" transform="matrix(12.3,0,0,12.3,256.3,1123.4)" />
<use xlink:href="#f4_2b" transform="matrix(12.3,0,0,12.3,263.4,1123.4)" />
<use xlink:href="#f4_2i" transform="matrix(12.3,0,0,12.3,272.6,1123.4)" />
<use xlink:href="#f4_21" transform="matrix(12.3,0,0,12.3,280.6,1123.4)" />
<use xlink:href="#f4_20" transform="matrix(12.3,0,0,12.3,288.6,1123.4)" />
<use xlink:href="#f2_2c" transform="matrix(12.3,0,-4.1,12.3,153.7,941.5)" />
<use xlink:href="#f2_2c" transform="matrix(12.3,0,-4.1,12.3,171.2,967.9)" />
<use xlink:href="#f2_2c" transform="matrix(12.3,0,-4.1,12.3,144.4,999.3)" />
<use xlink:href="#f2_h" transform="matrix(7.1,0,0,7.1,96.4,888)" />
<use xlink:href="#f2_h" transform="matrix(7.1,0,0,7.1,96.4,945)" />
<use xlink:href="#f2_h" transform="matrix(7.1,0,0,7.1,96.4,991)" />
<use xlink:href="#f2_h" transform="matrix(7.1,0,0,7.1,217.6,1052.1)" />
<use xlink:href="#f2_h" transform="matrix(7.1,0,0,7.1,141.3,1115.2)" />
<use xlink:href="#f2_h" transform="matrix(12.3,0,0,12.3,129.3,884.5)" />
<use xlink:href="#f2_2d" transform="matrix(12.3,0,0,12.3,168.1,884.5)" />
<use xlink:href="#f2_4r" transform="matrix(12.3,0,0,12.3,110.7,885.9)" />
<use xlink:href="#f2_57" transform="matrix(12.3,0,0,12.3,179.8,885.9)" />
<use xlink:href="#f2_x" transform="matrix(12.3,0,0,12.3,58,896.3)" />
<use xlink:href="#f2_4s" transform="matrix(12.3,0,0,12.3,110.7,903.6)" />
<use xlink:href="#f2_58" transform="matrix(12.3,0,0,12.3,179.8,903.6)" />
<use xlink:href="#f2_f" transform="matrix(12.3,0,0,12.3,129.1,910.9)" />
<use xlink:href="#f2_2d" transform="matrix(12.3,0,0,12.3,168.3,910.9)" />
<use xlink:href="#f2_4t" transform="matrix(12.3,0,0,12.3,110.7,913)" />
<use xlink:href="#f2_59" transform="matrix(12.3,0,0,12.3,179.8,913)" />
<use xlink:href="#f2_4r" transform="matrix(12.3,0,0,12.3,110.7,940.7)" />
<use xlink:href="#f2_57" transform="matrix(12.3,0,0,12.3,248.3,940.7)" />
<use xlink:href="#f2_h" transform="matrix(12.3,0,0,12.3,192.2,941.5)" />
<use xlink:href="#f2_2d" transform="matrix(12.3,0,0,12.3,231.1,941.5)" />
<use xlink:href="#f2_x" transform="matrix(12.3,0,0,12.3,58,953.3)" />
<use xlink:href="#f2_4s" transform="matrix(12.3,0,0,12.3,110.7,958.4)" />
<use xlink:href="#f2_58" transform="matrix(12.3,0,0,12.3,248.3,958.4)" />
<use xlink:href="#f2_f" transform="matrix(12.3,0,0,12.3,129.1,967.9)" />
<use xlink:href="#f2_2d" transform="matrix(12.3,0,0,12.3,236.8,967.9)" />
<use xlink:href="#f2_4t" transform="matrix(12.3,0,0,12.3,110.7,972.2)" />
<use xlink:href="#f2_59" transform="matrix(12.3,0,0,12.3,248.3,972.2)" />
<use xlink:href="#f2_x" transform="matrix(12.3,0,0,12.3,58,999.3)" />
<use xlink:href="#f2_h" transform="matrix(12.3,0,0,12.3,183.3,999.3)" />
<use xlink:href="#f2_2d" transform="matrix(12.3,0,0,12.3,196.8,999.3)" />
<use xlink:href="#f2_x" transform="matrix(12.3,0,0,12.3,168.6,1030.5)" />
<use xlink:href="#f2_2d" transform="matrix(12.3,0,0,12.3,218.5,1030.5)" />
<use xlink:href="#f2_4u" transform="matrix(12.3,0,0,12.3,145.4,1031.9)" />
<use xlink:href="#f2_5a" transform="matrix(12.3,0,0,12.3,243.2,1031.9)" />
<use xlink:href="#f2_2c" transform="matrix(12.3,0,0,12.3,73.9,1044.4)" />
<use xlink:href="#f2_4x" transform="matrix(12.3,0,0,12.3,145.4,1045.5)" />
<use xlink:href="#f2_4x" transform="matrix(12.3,0,0,12.3,243.2,1045.5)" />
<use xlink:href="#f2_x" transform="matrix(12.3,0,0,12.3,58,1056.2)" />
<use xlink:href="#f2_h" transform="matrix(12.3,0,0,12.3,88.8,1056.2)" />
<use xlink:href="#f2_2d" transform="matrix(12.3,0,0,12.3,102.2,1056.2)" />
<use xlink:href="#f2_4v" transform="matrix(12.3,0,0,12.3,145.4,1059.4)" />
<use xlink:href="#f2_5b" transform="matrix(12.3,0,0,12.3,243.2,1059.4)" />
<use xlink:href="#f2_2d" transform="matrix(12.3,0,0,12.3,180.1,1072.2)" />
<use xlink:href="#f2_4x" transform="matrix(12.3,0,0,12.3,145.4,1077)" />
<use xlink:href="#f2_4x" transform="matrix(12.3,0,0,12.3,243.2,1077)" />
<use xlink:href="#f2_4w" transform="matrix(12.3,0,0,12.3,145.4,1086.8)" />
<use xlink:href="#f2_5c" transform="matrix(12.3,0,0,12.3,243.2,1086.8)" />
<use xlink:href="#f2_2c" transform="matrix(12.3,0,0,12.3,73.9,1111.6)" />
<use xlink:href="#f2_x" transform="matrix(12.3,0,0,12.3,58,1123.4)" />
<use xlink:href="#f2_h" transform="matrix(12.3,0,0,12.3,88.8,1123.4)" />
<use xlink:href="#f2_x" transform="matrix(12.3,0,0,12.3,168.9,1123.4)" />
</g>
</g>
<g fill="#000000" >
<use xlink:href="#f5_1f" transform="matrix(12,0,0,12,440.9,1160.5)" />
<use xlink:href="#f5_1i" transform="matrix(12,0,0,12,455.2,1160.5)" />
</g>
<path fill-rule="evenodd" d="M37.4,38.1h.7v-.7h-.7v.7Z" class="g5_123" />
<path fill-rule="evenodd" d="M37.4,38.1h.7v-.7h-.7v.7Z" class="g5_123" />
<path fill-rule="evenodd" d="M38.1,38.1H871.5v-.7H38.1v.7Z" class="g5_123" />
<path fill-rule="evenodd" d="M871.5,38.1h.8v-.7h-.8v.7Z" class="g5_123" />
<path fill-rule="evenodd" d="M871.5,38.1h.8v-.7h-.8v.7Z" class="g5_123" />
<path fill-rule="evenodd" d="M37.4,1248.5h.7V38.1h-.7V1248.5Z" class="g5_123" />
<path fill-rule="evenodd" d="M872.3,1248.5h.7V38.1h-.7V1248.5Z" class="g5_123" />
<path fill-rule="evenodd" d="M871.5,1248.5h.8V38.1h-.8V1248.5Z" class="g5_123" />
<path fill-rule="evenodd" d="M37.4,1249.2h.7v-.7h-.7v.7Z" class="g5_123" />
<path fill-rule="evenodd" d="M37.4,1249.2h.7v-.7h-.7v.7Z" class="g5_123" />
<path fill-rule="evenodd" d="M38.1,1249.9H871.5v-.7H38.1v.7Z" class="g5_123" />
<path fill-rule="evenodd" d="M38.1,1249.2H871.5v-.7H38.1v.7Z" class="g5_123" />
<path fill-rule="evenodd" d="M872.3,1249.9h.7v-1.4h-.7v1.4Z" class="g5_123" />
<path fill-rule="evenodd" d="M871.5,1249.9H873v-.7h-1.5v.7Z" class="g5_123" />
<path fill-rule="evenodd" d="M871.5,1249.2h.8v-.7h-.8v.7Z" class="g5_123" />
<path fill-rule="evenodd" d="M871.5,1249.2h.8v-.7h-.8v.7Z" class="g5_123" />
<defs>
<path d="M489,-15c0,0,-99,0,-179,30c0,0,-80,30,-136,91c0,0,-56,61,-85,152c0,0,-30,91,-30,212c0,0,0,123,32,218c0,0,33,96,92,161c0,0,59,65,142,98c0,0,82,34,181,34c0,0,40,0,78,-7c0,0,37,-7,69,-18c0,0,31,-11,57,-25c0,0,25,-14,35,-24c0,0,10,-10,14,-17c0,0,4,-7,6,-17c0,0,2,-11,3,-25c0,0,2,-14,2,-35c0,0,0,-22,-2,-38c0,0,-1,-15,-5,-25c0,0,-4,-10,-9,-14c0,0,-5,-5,-12,-5c0,0,-11,0,-28,13c0,0,-18,13,-45,29c0,0,-27,16,-65,29c0,0,-37,13,-89,13c0,0,-58,0,-103,-23c0,0,-45,-23,-77,-67c0,0,-31,-44,-48,-106c0,0,-16,-61,-16,-139c0,0,0,-85,17,-147c0,0,18,-62,50,-103c0,0,33,-40,79,-60c0,0,45,-19,103,-19c0,0,52,0,90,12c0,0,38,12,65,27c0,0,27,15,45,27c0,0,17,12,27,12c0,0,8,0,12,-3c0,0,4,-3,7,-12c0,0,3,-9,5,-25c0,0,1,-16,1,-43c0,0,0,-18,-1,-31c0,0,-1,-14,-3,-23c0,0,-2,-9,-6,-16c0,0,-4,-7,-12,-15c0,0,-8,-9,-32,-22c0,0,-23,-14,-57,-26C661,13,627,1,583,-6c0,0,-43,-9,-94,-9Z" 
id="f0_j"
transform="scale(0.001,-0.001)" />

<path d="M440,150c0,0,41,0,68,8c0,0,28,9,49,26c0,0,20,16,32,41c0,0,11,25,11,58c0,0,0,33,-11,60c0,0,-11,26,-33,44c0,0,-21,18,-55,28c0,0,-33,9,-87,9H298V150ZM407,567c0,0,42,0,68,10c0,0,25,10,42,28c0,0,16,17,24,41c0,0,9,24,9,50c0,0,0,29,-9,52c0,0,-9,23,-27,39c0,0,-18,15,-45,23c0,0,-27,8,-72,8H298V567ZM164,0c0,0,-25,0,-42,15c0,0,-16,14,-16,47V903c0,0,0,33,16,48c0,0,17,14,42,14H406c0,0,88,0,150,-15c0,0,61,-15,103,-45c0,0,42,-30,65,-77c0,0,22,-46,22,-108c0,0,0,-36,-9,-67c0,0,-9,-31,-26,-56c0,0,-17,-25,-42,-45c0,0,-25,-19,-57,-31c0,0,41,-7,76,-26c0,0,34,-19,60,-48c0,0,26,-30,41,-69c0,0,15,-40,15,-89c0,0,0,-51,-14,-93c0,0,-15,-42,-40,-74c0,0,-25,-32,-59,-55c0,0,-35,-23,-77,-38C614,29,573,14,525,7C525,7,478,0,420,0Z" 
id="f0_i"
transform="scale(0.001,-0.001)" />

<path d="M320,-17c0,0,-50,0,-93,9c0,0,-43,8,-76,19c0,0,-32,11,-54,24C97,35,75,48,65,58c0,0,-10,9,-14,28c0,0,-4,18,-4,52c0,0,0,23,1,39c0,0,2,15,5,25c0,0,4,10,9,14c0,0,6,4,13,4c0,0,11,0,30,-12c0,0,19,-13,49,-28c0,0,30,-15,71,-27c0,0,42,-12,96,-12c0,0,36,0,64,8c0,0,29,9,49,25c0,0,19,15,30,38c0,0,10,23,10,52c0,0,0,33,-18,56c0,0,-18,24,-46,42c0,0,-29,18,-66,34c0,0,-36,16,-75,34c0,0,-39,18,-76,41c0,0,-36,23,-65,54c0,0,-29,32,-47,75c0,0,-17,44,-17,104c0,0,0,70,25,122c0,0,26,53,70,88c0,0,43,34,103,51c0,0,59,18,125,18c0,0,35,0,69,-6c0,0,34,-5,64,-14c0,0,30,-9,53,-20c0,0,23,-11,31,-18c0,0,7,-8,10,-13c0,0,3,-5,4,-14c0,0,2,-8,3,-21c0,0,1,-13,1,-33c0,0,0,-21,-1,-36c0,0,-1,-15,-4,-25c0,0,-3,-9,-7,-14c0,0,-5,-4,-14,-4c0,0,-8,0,-26,10c0,0,-18,10,-44,23c0,0,-26,12,-60,22c0,0,-34,10,-75,10c0,0,-32,0,-56,-8c0,0,-24,-8,-40,-21c0,0,-16,-14,-24,-34c0,0,-8,-19,-8,-41c0,0,0,-32,18,-56c0,0,17,-23,46,-42c0,0,30,-18,67,-34c0,0,38,-16,76,-34c0,0,39,-18,76,-41c0,0,38,-22,67,-54c0,0,29,-32,47,-75c0,0,18,-43,18,-101c0,0,0,-76,-29,-133c0,0,-28,-58,-77,-96C572,60,524,21,459,2c0,0,-65,-19,-139,-19Z" 
id="f0_2n"
transform="scale(0.001,-0.001)" />

<path d="M164,0c0,0,-25,0,-42,15c0,0,-16,14,-16,47V903c0,0,0,33,16,48c0,0,17,14,42,14H645c0,0,7,0,12,-4c0,0,5,-3,9,-13c0,0,4,-9,6,-24c0,0,2,-14,2,-36c0,0,0,-21,-2,-36c0,0,-2,-14,-6,-23c0,0,-4,-9,-9,-13c0,0,-5,-4,-12,-4H301V576H593c0,0,6,0,12,-4c0,0,6,-4,9,-13c0,0,4,-8,6,-23c0,0,2,-14,2,-35c0,0,0,-22,-2,-36c0,0,-2,-14,-6,-23c0,0,-3,-8,-9,-12c0,0,-6,-4,-12,-4H301V154H649c0,0,6,0,12,-5c0,0,5,-4,9,-13c0,0,4,-9,6,-23c0,0,2,-15,2,-36c0,0,0,-22,-2,-36c0,0,-2,-15,-6,-24c0,0,-4,-9,-9,-13c0,0,-6,-4,-12,-4Z" 
id="f0_t"
transform="scale(0.001,-0.001)" />

<path d="M79,297c0,0,-19,0,-27,18c0,0,-8,17,-8,60c0,0,0,41,8,59c0,0,8,17,27,17H389c0,0,9,0,15,-4c0,0,7,-4,11,-13c0,0,5,-9,7,-23c0,0,1,-15,1,-36c0,0,0,-43,-8,-61c0,0,-8,-17,-26,-17Z" 
id="f0_oj"
transform="scale(0.001,-0.001)" />

<path d="M121,-4c0,0,-39,0,-60,2C61,-2,39,0,32,8c0,0,-8,8,-3,24c0,0,4,15,18,41L279,495L64,892c0,0,-14,26,-19,42c0,0,-5,17,4,24c0,0,9,8,32,10c0,0,23,2,65,2c0,0,35,0,56,-2c0,0,20,-1,32,-4c0,0,12,-4,17,-10c0,0,5,-6,9,-15L431,620L595,939c0,0,5,9,10,15c0,0,5,6,16,10c0,0,10,3,29,4c0,0,19,2,53,2c0,0,37,0,59,-2c0,0,22,-2,30,-10c0,0,8,-8,4,-24c0,0,-4,-16,-17,-42L564,497L793,73c0,0,14,-26,18,-41c0,0,4,-16,-5,-24c0,0,-9,-8,-32,-10c0,0,-24,-2,-65,-2c0,0,-36,0,-56,2c0,0,-20,1,-31,3c0,0,-12,4,-17,10c0,0,-5,6,-9,15L414,374L233,26c0,0,-4,-9,-9,-15c0,0,-6,-6,-17,-10c0,0,-12,-2,-32,-3c0,0,-21,-2,-54,-2Z" 
id="f0_3e"
transform="scale(0.001,-0.001)" />

<path d="M204,-4c0,0,-28,0,-47,2c0,0,-19,2,-31,5c0,0,-11,4,-16,10c0,0,-4,6,-4,13V939c0,0,0,7,4,13c0,0,5,6,17,10c0,0,11,3,30,6c0,0,19,2,47,2c0,0,29,0,48,-2c0,0,18,-3,29,-6c0,0,11,-4,16,-10c0,0,5,-6,5,-13V26c0,0,0,-7,-5,-13c0,0,-5,-6,-16,-10c0,0,-11,-3,-29,-5c0,0,-19,-2,-48,-2Z" 
id="f0_1c"
transform="scale(0.001,-0.001)" />

<path d="M127,0c0,0,-16,0,-28,3C99,3,87,6,80,15c0,0,-8,8,-11,25c0,0,-3,16,-3,42c0,0,0,25,2,42c0,0,2,18,8,32c0,0,6,14,15,27c0,0,9,13,24,29L282,390c0,0,50,53,81,95c0,0,30,43,47,79c0,0,17,35,24,65c0,0,6,30,6,57c0,0,0,24,-8,46c0,0,-8,22,-23,39c0,0,-15,16,-38,25c0,0,-23,10,-55,10c0,0,-44,0,-78,-12c0,0,-33,-11,-59,-25c0,0,-26,-13,-43,-25c0,0,-17,-12,-27,-12c0,0,-7,0,-11,5c0,0,-5,4,-8,15c0,0,-3,10,-5,28c0,0,-2,17,-2,42c0,0,0,18,1,29c0,0,1,12,4,20c0,0,2,9,6,15c0,0,3,6,13,15c0,0,9,9,34,23c0,0,25,14,61,27c0,0,37,14,81,23c0,0,44,9,92,9c0,0,75,0,131,-19c0,0,57,-19,94,-53c0,0,37,-34,55,-81c0,0,19,-47,19,-100c0,0,0,-47,-9,-93c0,0,-9,-45,-37,-98c0,0,-29,-52,-80,-116c0,0,-52,-64,-136,-148L299,159H679c0,0,8,0,14,-4c0,0,6,-5,11,-14c0,0,4,-9,7,-25c0,0,2,-15,2,-36c0,0,0,-22,-2,-37c0,0,-2,-15,-6,-25c0,0,-3,-10,-9,-14c0,0,-6,-4,-14,-4Z" 
id="f0_rz"
transform="scale(0.001,-0.001)" />

<path d="M385,138c0,0,29,0,52,9c0,0,22,10,39,28c0,0,17,19,28,47c0,0,11,29,19,66c0,0,7,37,9,84c0,0,3,47,3,104c0,0,0,69,-4,122c0,0,-4,52,-11,91c0,0,-8,39,-20,66c0,0,-12,27,-28,43c0,0,-16,16,-37,22c0,0,-21,7,-47,7c0,0,-44,0,-73,-21c0,0,-28,-21,-45,-64c0,0,-17,-42,-24,-106c0,0,-6,-63,-6,-148c0,0,0,-103,8,-171c0,0,8,-67,26,-107c0,0,17,-40,45,-56c0,0,27,-16,66,-16ZM378,-17c0,0,-99,0,-164,33c0,0,-65,34,-103,98c0,0,-38,64,-54,156c0,0,-15,92,-15,209c0,0,0,115,19,208c0,0,19,94,61,160c0,0,42,65,110,101c0,0,68,35,165,35c0,0,99,0,164,-34c0,0,65,-34,103,-98c0,0,39,-64,53,-156c0,0,15,-92,15,-209c0,0,0,-115,-18,-209c0,0,-19,-93,-61,-159C653,118,611,53,543,17c0,0,-67,-34,-165,-34Z" 
id="f0_rx"
transform="scale(0.001,-0.001)" />

<path d="M142,0c0,0,-6,0,-12,4c0,0,-5,3,-9,12c0,0,-4,9,-6,23c0,0,-3,15,-3,36c0,0,0,21,2,36c0,0,2,14,6,23c0,0,4,9,10,13c0,0,5,5,12,5H322V779L166,693c0,0,-17,-8,-28,-10c0,0,-1,0,-3,0c-4,0,-10,1,-14,5c0,0,-6,6,-8,22c0,0,-2,15,-2,44c0,0,0,18,0,29c0,0,1,12,4,20c0,0,3,8,8,14c0,0,5,5,14,11L345,962c0,0,4,3,9,5c0,0,6,2,15,3c0,0,9,1,23,2c0,0,15,0,38,0c0,0,28,0,46,-1c0,0,17,-1,26,-4c0,0,9,-3,12,-7c0,0,3,-4,3,-11V152H675c0,0,7,0,12,-5c0,0,6,-4,10,-13c0,0,4,-9,6,-23c0,0,2,-15,2,-36c0,0,0,-21,-2,-36c0,0,-3,-14,-7,-23c0,0,-4,-9,-9,-12c0,0,-5,-4,-12,-4Z" 
id="f0_ry"
transform="scale(0.001,-0.001)" />

<path d="M439,356V801h-1L183,356ZM532,-4c0,0,-27,0,-45,2c0,0,-18,2,-29,5c0,0,-11,3,-15,9c0,0,-4,5,-4,13V199H70c0,0,-11,0,-19,3c0,0,-8,3,-14,12c0,0,-5,9,-8,27c0,0,-3,17,-3,46c0,0,0,24,2,42c0,0,1,17,3,31c0,0,3,15,8,27c0,0,5,13,12,27L351,944c0,0,4,7,13,11c0,0,9,5,25,9c0,0,16,3,40,4c0,0,25,2,60,2c0,0,38,0,65,-2c0,0,27,-2,43,-6c0,0,16,-4,23,-10c0,0,8,-6,8,-14V356h85c0,0,12,0,21,-18c0,0,8,-19,8,-61c0,0,0,-38,-8,-58c0,0,-7,-20,-21,-20H628V25c0,0,0,-8,-5,-13c0,0,-4,-6,-15,-9c0,0,-12,-3,-29,-5c0,0,-18,-2,-47,-2Z" 
id="f0_s6"
transform="scale(0.001,-0.001)" />

<path d="M589,371L453,782h-1L317,371ZM106,-4c0,0,-35,0,-54,2C52,-2,32,0,25,8c0,0,-7,9,-5,24c0,0,2,16,11,42L329,931c0,0,4,13,10,21c0,0,6,7,19,12c0,0,13,4,36,5c0,0,23,1,61,1c0,0,44,0,71,-1c0,0,26,-1,40,-5c0,0,15,-5,21,-13c0,0,6,-8,11,-22L896,73c0,0,9,-27,11,-43c0,0,3,-15,-6,-23c0,0,-8,-7,-29,-9c0,0,-21,-2,-57,-2c0,0,-38,0,-59,1c0,0,-22,1,-33,4c0,0,-11,3,-16,9c0,0,-4,6,-7,16L635,220H272L211,31c0,0,-2,-11,-7,-18c0,0,-5,-7,-16,-11c0,0,-11,-3,-31,-4c0,0,-19,-2,-51,-2Z" 
id="f0_5"
transform="scale(0.001,-0.001)" />

<path d="M198,-4c0,0,-27,0,-45,2c0,0,-18,2,-28,5c0,0,-11,4,-15,10c0,0,-4,6,-4,13V887c0,0,0,38,20,58c0,0,20,20,53,20H308c0,0,34,0,59,-6c0,0,24,-5,42,-18c0,0,18,-13,30,-35c0,0,12,-21,21,-52L669,279h3L889,852c0,0,9,32,21,53c0,0,11,22,27,35c0,0,15,14,36,19c0,0,21,6,48,6h132c0,0,21,0,35,-5c0,0,15,-5,24,-15c0,0,9,-11,14,-25c0,0,5,-15,5,-33V26c0,0,0,-7,-4,-13c0,0,-4,-6,-15,-10c0,0,-11,-3,-29,-5c0,0,-18,-2,-45,-2c0,0,-27,0,-45,2c0,0,-18,2,-28,5c0,0,-11,4,-15,10c0,0,-5,6,-5,13V813h-1L764,27c0,0,-3,-10,-10,-16c0,0,-6,-6,-18,-10c0,0,-12,-3,-29,-4c0,0,-18,-1,-44,-1c0,0,-25,0,-43,2c0,0,-18,2,-29,5c0,0,-12,4,-19,10c0,0,-6,6,-9,14L293,813h-2V26c0,0,0,-7,-4,-13c0,0,-4,-6,-15,-10c0,0,-11,-3,-29,-5c0,0,-17,-2,-45,-2Z" 
id="f0_1x"
transform="scale(0.001,-0.001)" />

<path d="M193,-4c0,0,-26,0,-43,2c0,0,-18,2,-27,6c0,0,-10,4,-14,10c0,0,-3,6,-3,13V895c0,0,0,35,20,53c0,0,21,17,50,17H282c0,0,28,0,47,-5c0,0,20,-5,35,-16c0,0,15,-11,29,-31c0,0,13,-20,27,-49L608,511c0,0,17,-32,33,-63c0,0,16,-31,31,-62c0,0,14,-31,29,-60c0,0,14,-30,27,-60h1c0,0,-2,52,-3,109c0,0,-1,57,-1,108V936c0,0,0,7,4,13c0,0,5,6,15,11c0,0,10,4,28,6c0,0,17,2,44,2c0,0,25,0,42,-2c0,0,17,-2,27,-6c0,0,9,-5,13,-11c0,0,4,-6,4,-13V68c0,0,0,-17,-6,-30c0,0,-6,-14,-17,-23C879,15,869,6,856,2c0,0,-14,-3,-28,-3H744c0,0,-26,0,-45,4c0,0,-19,5,-35,19c0,0,-16,14,-31,38c0,0,-15,23,-34,60L359,572c0,0,-21,40,-43,86c0,0,-21,47,-38,91h-2c0,0,3,-54,5,-107c0,0,2,-53,2,-110V27c0,0,0,-7,-5,-13c0,0,-4,-6,-14,-10c0,0,-10,-4,-27,-6c0,0,-17,-2,-44,-2Z" 
id="f0_1y"
transform="scale(0.001,-0.001)" />

<path d="M378,-4c0,0,-28,0,-47,2c0,0,-19,2,-31,5c0,0,-11,4,-16,10c0,0,-4,6,-4,13V805H38c0,0,-8,0,-13,4c0,0,-5,5,-9,14c0,0,-3,9,-5,25c0,0,-2,15,-2,37c0,0,0,22,2,38c0,0,2,15,5,25c0,0,4,9,9,13c0,0,5,4,13,4H718c0,0,7,0,12,-4c0,0,6,-4,10,-13c0,0,3,-10,5,-25c0,0,2,-16,2,-38c0,0,0,-22,-2,-37c0,0,-2,-16,-5,-25c0,0,-4,-9,-10,-14c0,0,-5,-4,-12,-4H476V26c0,0,0,-7,-5,-13c0,0,-5,-6,-16,-10c0,0,-11,-3,-30,-5c0,0,-19,-2,-47,-2Z" 
id="f0_2t"
transform="scale(0.001,-0.001)" />

<path d="M514,145c0,0,72,0,121,27c0,0,48,26,78,73c0,0,30,46,42,107c0,0,13,62,13,131c0,0,0,76,-12,139c0,0,-12,62,-41,106c0,0,-29,45,-76,69c0,0,-48,24,-120,24c0,0,-72,0,-120,-27c0,0,-49,-27,-79,-73c0,0,-29,-45,-42,-106c0,0,-12,-61,-12,-129c0,0,0,-79,12,-142c0,0,12,-63,40,-108c0,0,28,-44,76,-68c0,0,48,-23,120,-23ZM508,-17c0,0,-113,0,-196,29c0,0,-84,29,-140,90c0,0,-56,60,-84,154c0,0,-28,93,-28,221c0,0,0,117,29,210c0,0,30,94,89,160c0,0,59,65,146,101c0,0,87,35,202,35c0,0,110,0,194,-29c0,0,84,-30,140,-90c0,0,56,-60,85,-153c0,0,29,-92,29,-217c0,0,0,-120,-30,-215c0,0,-30,-95,-89,-161C855,118,796,52,709,17c0,0,-87,-34,-201,-34Z" 
id="f0_24"
transform="scale(0.001,-0.001)" />

<path d="M340,-13c0,0,-73,0,-129,20C211,7,155,27,86,74l22,217c0,0,156,-103,245,-103c0,0,64,0,112,45c0,0,47,46,47,107c0,0,0,68,-47,113c0,0,-48,46,-121,46c0,0,-85,0,-184,-42l48,495H681V777H393L382,665c0,0,163,0,251,-95c0,0,88,-95,88,-224c0,0,0,-146,-113,-253C608,93,494,-13,340,-13Z" 
id="f1_p"
transform="scale(0.001,-0.001)" />

<path d="M44,-281L425,1053H537L156,-281Z" 
id="f1_j"
transform="scale(0.001,-0.001)" />

<path d="M75,0L400,413c0,0,71,91,101,149c0,0,30,58,30,109c0,0,0,55,-36,91c0,0,-36,36,-91,36c0,0,-63,0,-91,-45c0,0,-28,-46,-34,-142H67c0,0,0,173,102,268c0,0,102,95,253,95c0,0,140,0,229,-82c0,0,89,-82,89,-209c0,0,0,-125,-104,-276L580,324c0,0,-34,-50,-85,-114L468,178H740V0Z" 
id="f1_m"
transform="scale(0.001,-0.001)" />

<path d="M412,-328c0,0,-195,96,-303,284C109,-44,0,142,0,365c0,0,0,232,114,422c0,0,114,191,298,273v-31c0,0,-92,-51,-151,-139c0,0,-59,-88,-88,-223c0,0,-29,-136,-29,-282c0,0,0,-167,27,-301c0,0,26,-133,82,-221c0,0,55,-89,159,-159v-32Z" 
id="f2_c"
transform="scale(0.001,-0.001)" />

<path d="M34,-328v32c0,0,92,50,151,138c0,0,59,88,88,222c0,0,29,135,29,283c0,0,0,165,-27,300c0,0,-26,134,-82,222c0,0,-56,89,-159,160v31c0,0,194,-96,303,-284c0,0,108,-187,108,-410c0,0,0,-232,-114,-422c0,0,-114,-191,-297,-272Z" 
id="f2_d"
transform="scale(0.001,-0.001)" />

<path d="M67,0V109L206,235c0,0,133,118,196,190c0,0,63,72,90,149c0,0,27,77,27,177c0,0,0,97,-44,148c0,0,-44,50,-144,50c0,0,-39,0,-81,-10c0,0,-42,-11,-74,-29L150,787H101V980c0,0,135,32,230,32c0,0,164,0,247,-68c0,0,82,-69,82,-193c0,0,0,-84,-32,-158c0,0,-33,-75,-100,-148c0,0,-67,-74,-222,-206c0,0,-67,-57,-141,-125H680V0Z" 
id="f3_m"
transform="scale(0.001,-0.001)" />

<path d="M460,-325c0,0,-148,79,-231,172c0,0,-84,93,-123,217c0,0,-39,126,-39,304c0,0,0,178,39,303c0,0,39,125,122,217c0,0,82,93,232,172V997c0,0,-91,-52,-145,-134c0,0,-54,-81,-79,-190c0,0,-25,-109,-25,-305c0,0,0,-194,26,-309c0,0,26,-114,82,-193c0,0,56,-79,141,-128v-63Z" 
id="f3_c"
transform="scale(0.001,-0.001)" />

<path d="M49,-325v63c0,0,85,49,140,128c0,0,56,79,83,194c0,0,26,115,26,308c0,0,0,196,-25,305c0,0,-25,109,-79,190c0,0,-54,82,-145,134v63c0,0,149,-80,232,-172c0,0,83,-92,122,-217c0,0,39,-125,39,-303c0,0,0,-177,-39,-303c0,0,-39,-125,-122,-217c0,0,-83,-93,-232,-173Z" 
id="f3_d"
transform="scale(0.001,-0.001)" />

<path d="M134,0V40L339,60V876L137,804v39l292,166h39V60L672,40V0Z" 
id="f3_l"
transform="scale(0.001,-0.001)" />

<path d="M312,78c0,0,42,0,93,28c0,0,51,27,99,76l82,460c0,0,-18,5,-32,9c0,0,-14,3,-28,6c0,0,-14,2,-29,3c0,0,-16,1,-36,1c0,0,-75,0,-139,-56c0,0,-64,-56,-100,-150c0,0,-37,-95,-37,-202c0,0,0,-80,33,-127c0,0,33,-48,94,-48ZM249,-325c0,0,-65,0,-136,16c0,0,-70,15,-112,37l13,170H48l27,-93c0,0,60,-59,173,-59c0,0,91,0,145,47c0,0,54,48,72,152l29,175c0,0,-54,-59,-120,-97c0,0,-66,-37,-119,-37c0,0,-95,0,-149,66c0,0,-55,67,-55,182c0,0,0,131,58,243c0,0,57,112,154,177c0,0,97,66,211,66c0,0,45,0,117,-9c0,0,72,-9,128,-22L594,-25c0,0,-28,-158,-108,-229c0,0,-80,-71,-237,-71Z" 
id="f4_23"
transform="scale(0.001,-0.001)" />

<path d="M325,47c0,0,68,0,130,54c0,0,61,55,97,149c0,0,36,94,36,202c0,0,0,103,-39,156c0,0,-39,53,-113,53c0,0,-67,0,-128,-54c0,0,-61,-55,-96,-149c0,0,-35,-94,-35,-204c0,0,0,-101,39,-154c0,0,39,-53,109,-53Zm-6,-61c0,0,-124,0,-199,79c0,0,-74,79,-74,214c0,0,0,120,51,222c0,0,51,102,143,160c0,0,91,59,205,59c0,0,124,0,199,-80c0,0,74,-79,74,-214c0,0,0,-120,-51,-222C667,204,615,102,524,43c0,0,-91,-57,-205,-57Z" 
id="f4_2b"
transform="scale(0.001,-0.001)" />

<path d="M17,-325L185,639H64l6,36l127,29l9,49c0,0,30,167,100,245c0,0,71,78,191,78c0,0,57,0,104,-15L574,915H538l-14,85c0,0,-22,16,-63,16c0,0,-45,0,-72,-39c0,0,-26,-39,-48,-160L319,701H475L465,639H309L141,-325Z" 
id="f4_22"
transform="scale(0.001,-0.001)" />

<path d="M-6,0c0,0,-12,10,-12,32c0,0,0,21,23,51c0,0,23,31,79,82L287,354L159,649L79,668l6,33H270L378,434l93,88c0,0,47,46,67,72c0,0,19,26,19,44c0,0,0,8,-6,13c0,0,-7,6,-38,17l6,33H651c0,0,16,-12,16,-32c0,0,0,-44,-103,-142L404,377L548,49L634,33L628,0H437L313,298L185,176c0,0,-41,-40,-60,-65c0,0,-19,-26,-19,-48c0,0,0,-21,31,-29L131,0Z" 
id="f4_2k"
transform="scale(0.001,-0.001)" />

<path d="M0,214v74H784V214ZM0,494v72H784V494Z" 
id="f2_x"
transform="scale(0.001,-0.001)" />

<path d="M355,0V355H0v72H355V784h72V427H782V355H427V0Z" 
id="f2_f"
transform="scale(0.001,-0.001)" />

<path d="M0,356v74H784V356Z" 
id="f2_h"
transform="scale(0.001,-0.001)" />

<path d="M350,-14c0,0,-142,0,-269,31L73,228h49L156,87c0,0,29,-16,82,-28c0,0,54,-12,100,-12c0,0,117,0,173,54c0,0,56,53,56,178c0,0,0,99,-52,150c0,0,-51,51,-159,56l-107,6v61l107,7c0,0,84,5,124,52c0,0,41,48,41,145c0,0,0,101,-44,147c0,0,-44,45,-139,45c0,0,-40,0,-83,-10c0,0,-43,-11,-76,-29L153,786H104V979c0,0,74,19,127,26c0,0,54,6,107,6c0,0,321,0,321,-246c0,0,0,-104,-57,-165c0,0,-57,-62,-162,-77c0,0,136,-16,200,-78c0,0,64,-62,64,-173c0,0,0,-135,-92,-211c0,0,-93,-75,-262,-75Z" 
id="f3_n"
transform="scale(0.001,-0.001)" />

<path d="M476,327V830h-4L114,327ZM476,0V220H30v99l488,686h86V327H740V220H604V0Z" 
id="f3_o"
transform="scale(0.001,-0.001)" />

<path d="M410,45c0,0,90,0,130,58c0,0,40,59,40,193c0,0,0,122,-38,177c0,0,-38,54,-122,54c0,0,-102,0,-217,-37c0,0,0,-227,51,-336c0,0,52,-109,156,-109Zm3,-59c0,0,-169,0,-258,131c0,0,-89,131,-89,377c0,0,0,161,47,278c0,0,47,117,131,178c0,0,85,61,196,61c0,0,109,0,217,-26V813H608L582,915c0,0,-25,13,-67,23c0,0,-41,10,-75,10c0,0,-109,0,-170,-105c0,0,-60,-106,-66,-308c0,0,121,63,244,63c0,0,132,0,201,-74c0,0,69,-74,69,-214c0,0,0,-156,-78,-240c0,0,-79,-84,-227,-84Z" 
id="f3_q"
transform="scale(0.001,-0.001)" />

<path d="M377,45c0,0,99,0,145,108c0,0,46,109,46,352c0,0,0,240,-45,345c0,0,-46,106,-146,106c0,0,-97,0,-139,-100c0,0,-43,-99,-43,-351c0,0,0,-254,44,-357c0,0,43,-103,138,-103Zm0,-59c0,0,-158,0,-238,132c0,0,-81,133,-81,386c0,0,0,249,81,380c0,0,80,132,244,132c0,0,159,0,241,-130c0,0,82,-130,82,-382c0,0,0,-518,-329,-518Z" 
id="f3_k"
transform="scale(0.001,-0.001)" />

<path d="M83,0C83,0,48,0,24,24C24,24,0,49,0,83c0,0,0,34,24,58c0,0,24,24,59,24c0,0,34,0,58,-24c0,0,24,-24,24,-58c0,0,0,-34,-24,-59C141,24,117,0,83,0ZM695,0c0,0,-34,0,-58,24c0,0,-25,25,-25,59c0,0,0,34,25,58c0,0,24,24,58,24c0,0,34,0,58,-24c0,0,24,-24,24,-58c0,0,0,-34,-24,-59C753,24,729,0,695,0ZM388,594c0,0,-34,0,-59,23c0,0,-24,24,-24,59c0,0,0,34,24,58c0,0,25,25,59,25c0,0,34,0,58,-25c0,0,24,-24,24,-58c0,0,0,-35,-24,-59c0,0,-24,-23,-58,-23Z" 
id="f2_1s"
transform="scale(0.001,-0.001)" />

<path d="M122,0V64L295,82V837L123,780v64l282,165H511V82L685,64V0Z" 
id="f5_l"
transform="scale(0.001,-0.001)" />

<path d="M64,0V141c0,0,64,68,119,123c0,0,119,118,174,185c0,0,56,68,81,140c0,0,26,72,26,165c0,0,0,81,-40,131c0,0,-39,50,-105,50c0,0,-46,0,-74,-10c0,0,-27,-10,-50,-29L163,751H98V979c0,0,59,13,116,23c0,0,58,9,125,9c0,0,165,0,252,-68c0,0,88,-68,88,-193c0,0,0,-78,-26,-142c0,0,-26,-64,-83,-124c0,0,-56,-61,-224,-197c0,0,-64,-52,-139,-119H698V0Z" 
id="f5_m"
transform="scale(0.001,-0.001)" />

<path d="M191,-20c0,0,-51,0,-88,34c0,0,-36,36,-36,88c0,0,0,52,36,88c0,0,36,36,88,36c0,0,51,0,88,-36c0,0,36,-36,36,-88c0,0,0,-51,-36,-87c0,0,-36,-35,-88,-35Z" 
id="f5_i"
transform="scale(0.001,-0.001)" />

<path d="M394,460c0,0,126,0,186,57c0,0,60,57,60,187c0,0,0,123,-57,176c0,0,-58,53,-194,53H316V460ZM54,0V40L172,60V941L44,960v40H421c0,0,368,0,368,-295c0,0,0,-153,-93,-233c0,0,-93,-80,-267,-80H316V60L475,40V0Z" 
id="f3_1g"
transform="scale(0.001,-0.001)" />

<path d="M31,0V33l88,19V649L31,668v33H235l7,-87c0,0,44,37,121,71c0,0,76,35,121,35h11V530H463l-43,82c0,0,-37,0,-88,-10c0,0,-52,-10,-89,-26V52L363,33V0Z" 
id="f3_2e"
transform="scale(0.001,-0.001)" />

<path d="M377,45c0,0,99,0,147,73c0,0,47,73,47,237c0,0,0,161,-47,233c0,0,-47,72,-147,72c0,0,-97,0,-141,-69c0,0,-44,-69,-44,-236c0,0,0,-169,45,-240c0,0,44,-70,140,-70Zm0,-59c0,0,-158,0,-238,94c0,0,-81,95,-81,274c0,0,0,178,81,272c0,0,80,94,244,94c0,0,160,0,241,-92c0,0,82,-92,82,-274c0,0,0,-368,-329,-368Z" 
id="f3_2b"
transform="scale(0.001,-0.001)" />

<path d="M360,-14L72,649L0,668v33H327V668L216,648L420,164L615,649L504,668v33H764V668L697,652L416,-14Z" 
id="f3_2i"
transform="scale(0.001,-0.001)" />

<path d="M495,413c0,0,0,133,-34,190c0,0,-34,57,-105,57c0,0,-78,0,-119,-63c0,0,-42,-62,-42,-184ZM374,-14c0,0,-163,0,-239,87c0,0,-75,88,-75,283c0,0,0,183,77,273c0,0,76,91,219,91c0,0,269,0,269,-306V353H194V340c0,0,0,-103,23,-160c0,0,22,-57,70,-87c0,0,47,-29,124,-29c0,0,40,0,96,6c0,0,55,7,91,15V43C598,43,562,20,500,3c0,0,-61,-17,-126,-17Z" 
id="f3_21"
transform="scale(0.001,-0.001)" />

<path d="M249,-14c0,0,-71,0,-107,42c0,0,-35,42,-35,119V639H15v33l93,29l76,159h47V701H391V639H231V161c0,0,0,-48,22,-73c0,0,22,-24,57,-24c0,0,44,0,106,12V26C416,26,389,8,340,-2c0,0,-49,-12,-91,-12Z" 
id="f3_2g"
transform="scale(0.001,-0.001)" />

<path d="M442,0V33l93,19V504c0,0,0,129,-124,129c0,0,-70,0,-168,-22V52L338,33V0H31V33l88,19v956L15,1026v34H243V756c0,0,0,-77,-5,-112c0,0,54,31,122,53c0,0,68,23,115,23c0,0,91,0,137,-53c0,0,47,-53,47,-154V52L744,33V0Z" 
id="f3_24"
transform="scale(0.001,-0.001)" />

<path d="M284,67c0,0,51,0,88,12c0,0,37,12,74,30V358l-98,-3c0,0,-100,-4,-135,-39c0,0,-35,-35,-35,-117c0,0,0,-132,106,-132ZM233,-14c0,0,-179,0,-179,208c0,0,0,70,27,116c0,0,27,46,87,70c0,0,60,24,173,27l105,3V519c0,0,0,72,-26,107c0,0,-27,34,-82,34c0,0,-75,0,-137,-35L176,538H134V691c0,0,121,26,213,26c0,0,115,0,169,-47c0,0,54,-47,54,-144V52L657,33V0H465L451,70c0,0,-85,-84,-218,-84Z" 
id="f3_1x"
transform="scale(0.001,-0.001)" />

<path d="M439,0V33l93,19V500c0,0,0,62,-30,97c0,0,-31,36,-94,36c0,0,-67,0,-165,-22V52L338,33V0H35V33l84,19V649L35,668v33H235l7,-57c0,0,57,33,122,54c0,0,65,22,108,22c0,0,91,0,137,-53c0,0,47,-53,47,-154V52L741,33V0Z" 
id="f3_2a"
transform="scale(0.001,-0.001)" />

<path d="M399,-14c0,0,-341,0,-341,370c0,0,0,175,87,269c0,0,87,95,249,95c0,0,101,0,220,-23V501H573L541,625c0,0,-62,35,-149,35c0,0,-200,0,-200,-304c0,0,0,-158,61,-225c0,0,61,-67,189,-67c0,0,109,0,189,24V43C631,43,595,16,530,1c0,0,-64,-15,-131,-15Z" 
id="f3_1z"
transform="scale(0.001,-0.001)" />

<path d="M278,-14c0,0,-52,0,-115,11c0,0,-63,10,-99,23V193H98L134,95c0,0,56,-50,146,-50c0,0,144,0,144,123c0,0,0,91,-114,130l-66,21c0,0,-75,25,-110,50c0,0,-34,26,-53,63c0,0,-18,36,-18,89c0,0,0,92,63,145c0,0,63,54,170,54c0,0,77,0,193,-23V544H454l-32,81c0,0,-39,35,-124,35c0,0,-61,0,-92,-30c0,0,-32,-30,-32,-80c0,0,0,-43,29,-72c0,0,28,-29,86,-48c0,0,110,-38,144,-55c0,0,33,-17,57,-42c0,0,23,-25,36,-57c0,0,13,-32,13,-79c0,0,0,-104,-66,-158c0,0,-66,-53,-195,-53Z" 
id="f3_2f"
transform="scale(0.001,-0.001)" />

<path d="M58,-234v58c0,0,131,42,131,125c0,0,0,15,-11,27c0,0,-11,12,-38,25C140,1,89,27,89,75c0,0,0,40,25,61c0,0,26,21,65,21c0,0,48,0,77,-34c0,0,30,-34,30,-86c0,0,0,-101,-60,-170c0,0,-59,-69,-168,-101Z" 
id="f3_g"
transform="scale(0.001,-0.001)" />

<path d="M140,-21c0,0,-26,0,-44,17C96,-4,79,13,79,40c0,0,0,19,6,33c0,0,8,20,34,55c0,0,46,60,64,126c0,0,32,114,41,321H190c0,0,-55,0,-81,-18c0,0,-44,-26,-80,-89H0c0,0,42,129,98,178c0,0,43,37,120,37H743V575H562c0,0,-27,-171,-27,-327c0,0,0,-77,27,-110c0,0,27,-33,67,-33c0,0,33,0,56,22c0,0,24,22,31,65h27C743,192,730,74,686,26c0,0,-44,-47,-98,-47c0,0,-58,0,-97,51c0,0,-39,53,-39,198c0,0,0,91,28,347H286c0,0,-23,-390,-56,-494c0,0,-33,-102,-90,-102Z" 
id="f2_2c"
transform="scale(0.001,-0.001)" />

<path d="M0,-123V1415H525v-72H72V-123Z" 
id="f2_4r"
transform="scale(0.001,-0.001)" />

<path d="M478,-123V1343H26v72H550V-123Z" 
id="f2_57"
transform="scale(0.001,-0.001)" />

<path d="M0,0V72H751V0ZM751,166L0,538v38L751,949V868L123,559L751,247V166Z" 
id="f2_2t"
transform="scale(0.001,-0.001)" />

<path d="M0,-123V1415H72V-123Z" 
id="f2_4s"
transform="scale(0.001,-0.001)" />

<path d="M0,-123V1415H72V-123Z" 
id="f2_58"
transform="scale(0.001,-0.001)" />

<path d="M0,-123V1415H72V-51H525v-72Z" 
id="f2_4t"
transform="scale(0.001,-0.001)" />

<path d="M26,-123v72H478V1415h72V-123Z" 
id="f2_59"
transform="scale(0.001,-0.001)" />

<path d="M595,60c0,0,141,0,206,102c0,0,65,102,65,340c0,0,0,236,-65,335c0,0,-65,100,-206,100c0,0,-142,0,-207,-100c0,0,-66,-99,-66,-335c0,0,0,-239,66,-340c0,0,65,-102,207,-102Zm0,-74c0,0,-253,0,-387,130C208,116,75,246,75,501c0,0,0,510,520,510c0,0,256,0,387,-129c0,0,132,-130,132,-381c0,0,0,-254,-133,-385C981,116,848,-14,595,-14Z" 
id="f5_1f"
transform="scale(0.001,-0.001)" />

<path d="M498,506c0,0,115,0,164,47c0,0,48,48,48,166c0,0,0,112,-46,156c0,0,-46,43,-169,43H390V506ZM793,0L514,423H390V74L518,54V0H36V54L154,74V926L26,945v55H504c0,0,221,0,330,-68c0,0,109,-68,109,-212c0,0,0,-215,-201,-276L1009,74L1117,54V0Z" 
id="f5_1i"
transform="scale(0.001,-0.001)" />

<path d="M-5,0L0,40L131,60L286,941L162,960l6,40H568l-6,-40L430,941L275,60L399,40L393,0Z" 
id="f4_19"
transform="scale(0.001,-0.001)" />

<path d="M62,-123V268c0,0,0,230,56,452c0,0,47,190,134,334c0,0,87,144,204,242c0,0,85,73,194,119l18,-16c0,0,-211,-145,-335,-339c0,0,-98,-156,-149,-374c0,0,-50,-218,-50,-403V-123Z" 
id="f2_4o"
transform="scale(0.001,-0.001)" />

<path d="M617,-123V283c0,0,0,236,-63,459c0,0,-63,223,-188,392c0,0,-108,146,-282,265l17,16c0,0,180,-76,320,-248c0,0,139,-172,204,-417c0,0,64,-245,64,-482V-123Z" 
id="f2_54"
transform="scale(0.001,-0.001)" />

<path d="M62,-123V1415h72V-123Z" 
id="f2_4p"
transform="scale(0.001,-0.001)" />

<path d="M617,-123V1415h72V-123Z" 
id="f2_55"
transform="scale(0.001,-0.001)" />

<path d="M650,-123c0,0,-180,75,-319,246c0,0,-140,172,-205,418c0,0,-64,245,-64,481v393h72V1007c0,0,0,-236,63,-459c0,0,63,-223,189,-391c0,0,108,-145,282,-265l-18,-15Z" 
id="f2_4q"
transform="scale(0.001,-0.001)" />

<path d="M101,-123l-17,15c0,0,210,144,334,339c0,0,99,156,149,373c0,0,50,218,50,403v408h72V1022c0,0,0,-230,-56,-451c0,0,-48,-191,-134,-335C499,236,412,92,295,-5c0,0,-84,-73,-194,-118Z" 
id="f2_56"
transform="scale(0.001,-0.001)" />

<path d="M64,0V34L168,59V639H47v36l121,29v49c0,0,0,155,61,239c0,0,62,84,173,84c0,0,58,0,107,-15V908H472l-33,92c0,0,-26,16,-62,16c0,0,-47,0,-66,-42c0,0,-19,-42,-19,-157V701H478V639H292V59L443,34V0Z" 
id="f3_22"
transform="scale(0.001,-0.001)" />

<path d="M32,0V33L151,52V649L52,668v33H275V52L395,33V0ZM201,850c0,0,-32,0,-56,24c0,0,-24,24,-24,56c0,0,0,34,24,58c0,0,24,24,56,24c0,0,34,0,58,-24c0,0,24,-24,24,-58c0,0,0,-32,-24,-56c0,0,-24,-24,-58,-24Z" 
id="f3_25"
transform="scale(0.001,-0.001)" />

<path d="M383,64c0,0,85,0,152,28V645c0,0,-67,13,-152,13c0,0,-194,0,-194,-314c0,0,0,-141,48,-211c0,0,48,-69,146,-69ZM342,-14c0,0,-287,0,-287,358c0,0,0,184,82,280c0,0,81,96,239,96c0,0,81,0,163,-18c0,0,-4,25,-4,124v182l-118,18v34H659V52L745,33V0H548l-9,52c0,0,-84,-66,-197,-66Z" 
id="f3_20"
transform="scale(0.001,-0.001)" />

<path d="M31,0V33L150,52v956L31,1026v34H274V52L394,33V0Z" 
id="f3_28"
transform="scale(0.001,-0.001)" />

<path d="M289,-14c0,0,-179,0,-179,205V649L20,668v33H233V200c0,0,0,-128,120,-128c0,0,92,0,173,23V649L420,668v33H649V52L738,33V0H533l-6,57C527,57,474,28,405,7c0,0,-69,-21,-116,-21Z" 
id="f3_2h"
transform="scale(0.001,-0.001)" />

<path d="M13,0V34L95,46L325,350L122,649L40,668v33H357V668L264,648L399,446L554,649l-96,19v33H710V668L630,652L433,397L663,50L745,34V0H427V34l94,17L359,299L169,50L266,34V0Z" 
id="f3_2k"
transform="scale(0.001,-0.001)" />

<path d="M191,-20c0,0,-39,0,-65,25c0,0,-25,27,-25,64c0,0,0,38,26,64c0,0,26,26,64,26c0,0,38,0,64,-26c0,0,26,-26,26,-64c0,0,0,-37,-25,-64c0,0,-26,-25,-65,-25Z" 
id="f3_i"
transform="scale(0.001,-0.001)" />

<path d="M410,-14c0,0,-86,0,-175,14C235,0,145,14,81,38V307h66L181,146c0,0,31,-37,94,-62c0,0,64,-24,132,-24c0,0,214,0,214,177c0,0,0,55,-41,93c0,0,-41,38,-128,68c0,0,-128,42,-185,68c0,0,-56,27,-95,63c0,0,-38,36,-62,87c0,0,-23,51,-23,125c0,0,0,132,90,201c0,0,90,69,263,69c0,0,125,0,278,-32V741H651L618,878c0,0,-76,56,-178,56c0,0,-92,0,-141,-34c0,0,-49,-34,-49,-104c0,0,0,-50,41,-86c0,0,41,-35,128,-63c0,0,171,-56,235,-97c0,0,64,-41,97,-103c0,0,34,-61,34,-143c0,0,0,-318,-375,-318Z" 
id="f5_1j"
transform="scale(0.001,-0.001)" />

<path d="M379,60c0,0,59,0,84,64c0,0,24,65,24,231c0,0,0,164,-24,227c0,0,-24,63,-84,63c0,0,-57,0,-80,-60c0,0,-22,-61,-22,-230c0,0,0,-173,23,-234c0,0,22,-61,79,-61Zm-2,-74c0,0,-161,0,-240,91c0,0,-79,91,-79,277c0,0,0,186,80,276c0,0,81,90,245,90c0,0,167,0,245,-93c0,0,78,-93,78,-273c0,0,0,-188,-81,-278c0,0,-81,-90,-248,-90Z" 
id="f5_2b"
transform="scale(0.001,-0.001)" />

<path d="M30,0V49l76,18V992l-72,18v50H322V67L398,49V0Z" 
id="f5_28"
transform="scale(0.001,-0.001)" />

<path d="M287,-18c0,0,-194,0,-194,206V634L23,652v49H309V217c0,0,0,-63,26,-98c0,0,27,-35,76,-35c0,0,57,0,113,25V634l-64,18v49H740V67L809,49V0H536L526,61L475,35c0,0,-104,-53,-188,-53Z" 
id="f5_2h"
transform="scale(0.001,-0.001)" />

<path d="M327,-14c0,0,-101,0,-156,45c0,0,-55,45,-55,131V624H25v48l108,29l87,159H332V701H480V624H332V176c0,0,0,-49,20,-73c0,0,20,-25,53,-25c0,0,40,0,97,12V26c0,0,-22,-15,-76,-27c0,0,-55,-13,-99,-13Z" 
id="f5_2g"
transform="scale(0.001,-0.001)" />

<path d="M34,0V49l76,18V634L38,652v49H325V67L402,49V0ZM217,831c0,0,-48,0,-81,33c0,0,-34,33,-34,82c0,0,0,48,34,81c0,0,34,33,81,33c0,0,48,0,81,-33c0,0,33,-33,33,-81c0,0,0,-47,-33,-81c0,0,-32,-34,-81,-34Z" 
id="f5_25"
transform="scale(0.001,-0.001)" />

<path d="M41,0V49l69,18V634L41,652v49H313l11,-61l50,26c0,0,105,54,188,54c0,0,194,0,194,-207V67L827,49V0H478V49l63,18V484c0,0,0,63,-27,98c0,0,-26,35,-75,35c0,0,-57,0,-114,-25V67L389,49V0Z" 
id="f5_2a"
transform="scale(0.001,-0.001)" />

<path d="M248,-20c0,0,-52,0,-87,34c0,0,-36,36,-36,88c0,0,0,52,36,88c0,0,35,36,87,36c0,0,52,0,88,-36c0,0,36,-36,36,-88c0,0,0,-51,-36,-87c0,0,-35,-35,-88,-35Zm0,488c0,0,-52,0,-87,36c0,0,-36,36,-36,88c0,0,0,52,35,88c0,0,35,36,88,36c0,0,53,0,89,-36c0,0,35,-37,35,-88c0,0,0,-51,-36,-87c0,0,-35,-37,-88,-37Z" 
id="f5_u"
transform="scale(0.001,-0.001)" />

<path d="M55,0V40L184,60V941L55,960v40H455V960L327,941V60L455,40V0Z" 
id="f3_19"
transform="scale(0.001,-0.001)" />

<path d="M44,0V40L172,60V941L44,960v40H471V960L316,941V65H513c0,0,159,0,234,14l46,208h48L828,0Z" 
id="f3_1c"
transform="scale(0.001,-0.001)" />

<path d="M44,0V40L172,60V941L44,960v40H445V960L316,941V549H787V941L659,960v40h400V960L930,941V60L1059,40V0H659V40L787,60V481H316V60L445,40V0Z" 
id="f3_18"
transform="scale(0.001,-0.001)" />

<path d="M410,-14c0,0,-80,0,-162,14c0,0,-81,14,-144,38V270h48L178,134c0,0,28,-35,95,-62c0,0,68,-27,134,-27c0,0,104,0,163,53c0,0,58,54,58,148c0,0,0,54,-23,89c0,0,-22,35,-59,59c0,0,-37,24,-84,41c0,0,-47,17,-97,34c0,0,-49,17,-96,38c0,0,-47,21,-84,53c0,0,-37,32,-60,79c0,0,-23,48,-23,117c0,0,0,119,90,187c0,0,89,68,248,68c0,0,121,0,263,-32V771H654L628,893c0,0,-76,55,-188,55c0,0,-100,0,-156,-40c0,0,-56,-41,-56,-112c0,0,0,-49,22,-81c0,0,23,-32,60,-55c0,0,37,-22,84,-39c0,0,48,-16,97,-34c0,0,50,-17,97,-39c0,0,48,-22,85,-56c0,0,36,-34,59,-83c0,0,23,-49,23,-120c0,0,0,-145,-89,-224c0,0,-89,-79,-256,-79Z" 
id="f3_1j"
transform="scale(0.001,-0.001)" />

<path d="M382,45c0,0,188,0,188,314c0,0,0,143,-47,213c0,0,-46,69,-141,69c0,0,-87,0,-146,-24V58c0,0,67,-13,146,-13ZM25,-325v35l88,18V649L34,668v33H231l1,-41c0,0,31,27,84,43c0,0,53,17,107,17c0,0,134,0,208,-94c0,0,73,-93,73,-267c0,0,0,-178,-80,-276c0,0,-80,-97,-232,-97c0,0,-84,0,-160,16c0,0,4,-53,4,-84V-272l123,-18v-35Z" 
id="f3_2c"
transform="scale(0.001,-0.001)" />

<path d="M76,316v76H787V316Zm0,306v76H787V622Z" 
id="f3_x"
transform="scale(0.001,-0.001)" />

<path d="M366,23c0,0,166,0,168,476H198c0,0,0,-244,45,-360c0,0,46,-116,123,-116ZM534,545c0,0,0,471,-166,471c0,0,-170,0,-170,-471ZM364,-20c0,0,-121,0,-212,142c0,0,-91,143,-91,387c0,0,0,246,90,398c0,0,91,152,222,152c0,0,127,0,213,-147c0,0,87,-148,87,-384c0,0,0,-255,-94,-402c0,0,-93,-146,-215,-146Z" 
id="f6_ey"
transform="scale(0.001,-0.001)" />

<path d="M338,28c0,0,48,0,91,45c0,0,43,45,65,144c0,0,22,99,26,276H143c0,0,3,-133,20,-239c0,0,13,-80,44,-140c0,0,19,-36,54,-61c0,0,36,-25,77,-25ZM522,543c0,0,-1,194,-37,312c0,0,-29,90,-76,129c0,0,-34,28,-79,28c0,0,-51,0,-93,-39c0,0,-43,-40,-65,-132c0,0,-22,-93,-29,-298ZM329,-21c0,0,-68,0,-124,31c0,0,-56,33,-99,95c0,0,-43,62,-66,131C40,236,0,356,0,489c0,0,0,294,119,453c0,0,91,119,217,119c0,0,122,0,209,-115c0,0,121,-160,121,-436c0,0,0,-263,-119,-415C547,95,455,-21,329,-21Z" 
id="f2_2d"
transform="scale(0.001,-0.001)" />

<path d="M0,-302V1034H328V970H119V-238H328v-64Z" 
id="f2_1r"
transform="scale(0.001,-0.001)" />

<path d="M56,-302v64H265V970H56v64H384V-302Z" 
id="f2_1t"
transform="scale(0.001,-0.001)" />

<path d="M301,78c0,0,85,0,185,104l81,442c0,0,-29,20,-55,28c0,0,-25,8,-62,8c0,0,-75,0,-137,-56c0,0,-62,-56,-98,-152c0,0,-36,-95,-36,-199c0,0,0,-79,33,-127c0,0,33,-48,89,-48ZM245,-14c0,0,-90,0,-145,66c0,0,-54,66,-54,182c0,0,0,131,57,244c0,0,57,114,152,178c0,0,96,64,208,64c0,0,90,0,170,-33l33,26h40L589,52L673,33L667,0H454l22,117C476,117,350,-14,245,-14Z" 
id="f4_1x"
transform="scale(0.001,-0.001)" />

<path d="M228,-14c0,0,-103,0,-209,46L49,200H83L95,99c0,0,20,-21,55,-38c0,0,36,-16,81,-16c0,0,163,0,163,133c0,0,0,44,-35,78c0,0,-34,34,-113,72c0,0,-75,37,-112,81c0,0,-36,45,-36,104c0,0,0,99,66,153c0,0,67,54,184,54c0,0,85,0,200,-26L521,538H486l-11,80c0,0,-47,42,-124,42c0,0,-61,0,-97,-28c0,0,-37,-28,-37,-87c0,0,0,-40,31,-71c0,0,32,-30,119,-75c0,0,78,-40,113,-86c0,0,36,-47,36,-107c0,0,0,-113,-71,-167c0,0,-72,-53,-217,-53Z" 
id="f4_2f"
transform="scale(0.001,-0.001)" />

<path d="M460,506c0,0,135,0,209,64c0,0,73,65,73,183c0,0,0,180,-213,180H419L343,506ZM671,0L487,438H331L264,60L398,40L390,0H-7L0,40L120,60L276,941L151,960l7,40H555c0,0,163,0,249,-62c0,0,86,-62,86,-180c0,0,0,-236,-261,-299L798,60L908,40L900,0Z" 
id="f4_1i"
transform="scale(0.001,-0.001)" />

<path d="M-15,0l6,40L121,60L275,941L151,960l6,40H558l-6,-40L419,941L350,549H821l68,392L765,960l6,40h401l-6,-40L1033,941L879,60L1003,40L996,0H596l6,40L735,60l74,421H338L264,60L388,40L382,0Z" 
id="f4_18"
transform="scale(0.001,-0.001)" />

<path d="M311,-14c0,0,-94,0,-169,18C142,4,67,23,18,55L57,277h48l1,-143c0,0,25,-37,84,-63c0,0,59,-26,126,-26c0,0,122,0,188,58c0,0,66,58,66,162c0,0,0,40,-18,70c0,0,-18,30,-48,54c0,0,-30,23,-67,44c0,0,-38,20,-77,40c0,0,-40,21,-78,44c0,0,-37,24,-67,55c0,0,-30,31,-48,71c0,0,-18,40,-18,94c0,0,0,133,90,204c0,0,91,70,259,70c0,0,128,0,241,-28L703,774H654l-4,128c0,0,-23,20,-66,33c0,0,-42,13,-98,13c0,0,-99,0,-153,-48c0,0,-53,-48,-53,-136c0,0,0,-47,33,-85c0,0,34,-39,100,-73c0,0,102,-53,146,-80c0,0,45,-28,75,-59c0,0,31,-31,49,-72c0,0,18,-40,18,-92c0,0,0,-154,-100,-236c0,0,-100,-81,-290,-81Z" 
id="f4_1j"
transform="scale(0.001,-0.001)" />

<path d="M317,45c0,0,74,0,134,54c0,0,60,55,97,153c0,0,36,98,36,200c0,0,0,82,-33,129c0,0,-33,46,-89,46c0,0,-40,0,-93,-29c0,0,-54,-29,-96,-75L192,81c0,0,46,-36,125,-36ZM-88,-325l5,35l90,17L170,649L93,668l6,33H297L283,588c0,0,130,132,235,132c0,0,90,0,145,-67c0,0,55,-66,55,-182c0,0,0,-132,-56,-244C662,227,606,114,510,49c0,0,-97,-63,-209,-63c0,0,-35,0,-72,5c0,0,-37,5,-55,11l-8,-67L130,-273l119,-17l-6,-35Z" 
id="f4_2c"
transform="scale(0.001,-0.001)" />

<path d="M62,0L176,649L88,668l6,33H301L278,543c0,0,55,84,124,130c0,0,69,47,138,47c0,0,37,0,59,-6L566,530H534l-28,95c0,0,-60,0,-124,-46c0,0,-63,-45,-116,-120L186,0Z" 
id="f4_2e"
transform="scale(0.001,-0.001)" />

<path d="M246,-14L105,649L21,668l7,33H219L327,155L512,458c0,0,48,78,48,144c0,0,0,28,-15,44c0,0,-16,16,-34,22l6,33H659c0,0,19,-17,19,-47c0,0,0,-66,-62,-164L301,-14Z" 
id="f4_2i"
transform="scale(0.001,-0.001)" />

<path d="M188,355c0,0,148,11,236,69c0,0,89,58,89,143c0,0,0,41,-23,68c0,0,-22,27,-66,27c0,0,-52,0,-101,-43c0,0,-49,-42,-85,-114c0,0,-36,-71,-50,-150ZM298,-14c0,0,-120,0,-186,67c0,0,-65,67,-65,193c0,0,0,125,53,232c0,0,52,108,145,175c0,0,94,67,196,67c0,0,92,0,147,-42c0,0,56,-43,56,-111c0,0,0,-102,-126,-173c0,0,-125,-72,-336,-86l-3,-54c0,0,0,-95,40,-143c0,0,40,-47,118,-47c0,0,67,0,124,22c0,0,57,23,106,52l22,-32c0,0,-69,-58,-146,-89c0,0,-76,-31,-145,-31Z" 
id="f4_21"
transform="scale(0.001,-0.001)" />

<path d="M301,78c0,0,41,0,90,27c0,0,49,28,95,77l81,442c0,0,-26,18,-54,27c0,0,-27,10,-67,10c0,0,-70,0,-131,-55c0,0,-61,-55,-99,-152c0,0,-37,-97,-37,-201c0,0,0,-79,33,-127c0,0,33,-48,89,-48ZM245,-14c0,0,-91,0,-145,68c0,0,-54,69,-54,183c0,0,0,128,55,240c0,0,55,112,150,177c0,0,96,66,210,66c0,0,70,0,123,-18c0,0,3,36,51,306l-115,18l6,34H768L589,52L673,33L667,0H454l22,117C476,117,350,-14,245,-14Z" 
id="f4_20"
transform="scale(0.001,-0.001)" />

<path d="M0,-123V985c0,0,0,202,88,304c0,0,88,101,278,126v-33c0,0,-112,-27,-179,-86c0,0,-67,-59,-91,-136c0,0,-24,-76,-24,-252V-123Z" 
id="f2_4u"
transform="scale(0.001,-0.001)" />

<path d="M313,-123V908c0,0,0,111,-11,190c0,0,-11,80,-46,133c0,0,-35,54,-94,93c0,0,-59,39,-141,58v33c0,0,189,-25,276,-126c0,0,88,-101,88,-304V-123Z" 
id="f2_5a"
transform="scale(0.001,-0.001)" />

<path d="M0,-123V1415H73V-123Z" 
id="f2_4x"
transform="scale(0.001,-0.001)" />

<path d="M293,-123V191c0,0,0,200,-67,292c0,0,-67,92,-226,135v57c0,0,159,44,226,135c0,0,67,92,67,292v313h73V1088c0,0,0,-108,-23,-189c0,0,-22,-80,-61,-127c0,0,-39,-46,-95,-75c0,0,-56,-28,-153,-51c0,0,97,-21,157,-52c0,0,61,-31,99,-82c0,0,39,-51,57,-125c0,0,19,-74,19,-180V-123Z" 
id="f2_4v"
transform="scale(0.001,-0.001)" />

<path d="M313,-123V203c0,0,0,108,22,188c0,0,23,81,62,127c0,0,39,47,95,76c0,0,56,29,153,50c0,0,-98,22,-158,53c0,0,-60,32,-99,82c0,0,-39,50,-57,124c0,0,-18,74,-18,181v331h72V1099c0,0,0,-200,67,-291c0,0,68,-92,227,-135V616c0,0,-159,-44,-227,-136c0,0,-67,-92,-67,-292V-123Z" 
id="f2_5b"
transform="scale(0.001,-0.001)" />

<path d="M679,-123c0,0,-190,24,-278,124c0,0,-88,101,-88,305V1415h72V383c0,0,0,-111,12,-191c0,0,11,-79,46,-133c0,0,35,-53,94,-91c0,0,59,-39,142,-58v-33Z" 
id="f2_4w"
transform="scale(0.001,-0.001)" />

<path d="M21,-123v33c0,0,111,26,178,86c0,0,67,58,90,134c0,0,24,77,24,253V1415h72V306c0,0,0,-203,-88,-304C297,2,210,-99,21,-123Z" 
id="f2_5c"
transform="scale(0.001,-0.001)" />


</defs>
</svg>