<?xml version="1.0" encoding="UTF-8" standalone="no"?>
<!DOCTYPE svg PUBLIC "-//W3C//DTD SVG 1.1//EN"
"http://www.w3.org/Graphics/SVG/1.1/DTD/svg11.dtd">
<svg viewBox="0 0 909 1286" version="1.1" xmlns="http://www.w3.org/2000/svg" xmlns:xlink="http://www.w3.org/1999/xlink">
<defs>
<clipPath id="c0_35"><path d="M55.2,272.3v-146H483.5v146Z" /></clipPath>
<clipPath id="c1_35"><path d="M55.2,455.2V275.5H298.7V455.2Z" /></clipPath>
<clipPath id="c2_35"><path d="M55.2,568.9V458.2H320.7V568.9Z" /></clipPath>
<clipPath id="c3_35"><path d="M55.2,750.4V571.3H293.7V750.4Z" /></clipPath>
<clipPath id="c4_35"><path d="M140.3,870.6V851h16.3v19.6Z" /></clipPath>
<clipPath id="c5_35"><path d="M145.4,895.2V875.6h16.4v19.6Z" /></clipPath>
<clipPath id="c6_35"><path d="M144.3,919.4V899.9h16.4v19.5Z" /></clipPath>
<clipPath id="c7_35"><path d="M398.8,992V972.4h16.3V992Z" /></clipPath>
<clipPath id="c8_35"><path d="M398.8,1016.2V996.6h16.3v19.6Z" /></clipPath>
<clipPath id="c9_35"><path d="M398.8,1040.4v-19.5h16.3v19.5Z" /></clipPath>
<clipPath id="c10_35"><path d="M288.8,1113.8v-19.6h16.3v19.6Z" /></clipPath>
<clipPath id="c11_35"><path d="M288.8,1137.9v-19.6h16.3v19.6Z" /></clipPath>
<clipPath id="c12_35"><path d="M288.8,1162.1v-19.6h16.3v19.6Z" /></clipPath>
<style type="text/css"><![CDATA[
.g0_35{
fill: #D9D9D9;
}
.g1_35{
fill: none;
stroke: #000000;
stroke-width: 0.7638889;
stroke-linecap: butt;
stroke-linejoin: miter;
}
.g2_35{
fill: none;
stroke: #000000;
stroke-width: 0.91008836;
stroke-linecap: butt;
stroke-linejoin: round;
}
.g3_35{
fill: none;
stroke: #000000;
stroke-width: 0.9120712;
stroke-linecap: butt;
stroke-linejoin: round;
}
.g4_35{
fill: none;
stroke: #000000;
stroke-width: 0.41664675;
stroke-linecap: butt;
stroke-linejoin: round;
}
.g5_35{
fill: none;
stroke: #000000;
stroke-width: 0.9090432;
stroke-linecap: butt;
stroke-linejoin: round;
}
.g6_35{
fill: none;
stroke: #000000;
stroke-width: 0.41726094;
stroke-linecap: butt;
stroke-linejoin: round;
}
.g7_35{
fill: none;
stroke: #000000;
stroke-width: 0.9103834;
stroke-linecap: butt;
stroke-linejoin: round;
}
.g8_35{
}
]]></style>
</defs>
<image preserveAspectRatio="none" x="747" y="1196" width="96" height="59" xlink:href="img/1.png" />
<image preserveAspectRatio="none" x="336" y="41" width="259" height="51" xlink:href="img/2.png" />
<image preserveAspectRatio="none" x="342" y="50" width="247" height="27" xlink:href="img/3.png" />
<image preserveAspectRatio="none" x="341" y="45" width="239" height="42" xlink:href="img/4.png" />
<g fill="#FFFFFF" >
<use xlink:href="#f0_j" transform="matrix(11.5,0,0,11.5,355.1,70.1)" />
<use xlink:href="#f0_i" transform="matrix(11.5,0,0,11.5,364.3,70.1)" />
<use xlink:href="#f0_2n" transform="matrix(11.5,0,0,11.5,374.1,70.1)" />
<use xlink:href="#f0_t" transform="matrix(11.5,0,0,11.5,382.6,70.1)" />
<use xlink:href="#f0_oj" transform="matrix(11.5,0,0,11.5,391,70.1)" />
<use xlink:href="#f0_3e" transform="matrix(11.5,0,0,11.5,396.5,70.1)" />
<use xlink:href="#f0_1c" transform="matrix(11.5,0,0,11.5,406.1,70.1)" />
<use xlink:href="#f0_1c" transform="matrix(11.5,0,0,11.5,410.8,70.1)" />
<use xlink:href="#f0_oj" transform="matrix(11.5,0,0,11.5,415.6,70.1)" />
<use xlink:href="#f0_rz" transform="matrix(11.5,0,0,11.5,421.1,70.1)" />
<use xlink:href="#f0_rx" transform="matrix(11.5,0,0,11.5,429.9,70.1)" />
<use xlink:href="#f0_ry" transform="matrix(11.5,0,0,11.5,438.7,70.1)" />
<use xlink:href="#f0_s4" transform="matrix(11.5,0,0,11.5,447.5,70.1)" />
<use xlink:href="#f0_t" transform="matrix(11.5,0,0,11.5,460.4,70.1)" />
<use xlink:href="#f0_3e" transform="matrix(11.5,0,0,11.5,468.8,70.1)" />
<use xlink:href="#f0_5" transform="matrix(11.5,0,0,11.5,478.3,70.1)" />
<use xlink:href="#f0_1x" transform="matrix(11.5,0,0,11.5,489,70.1)" />
<use xlink:href="#f0_1c" transform="matrix(11.5,0,0,11.5,504.4,70.1)" />
<use xlink:href="#f0_1y" transform="matrix(11.5,0,0,11.5,509.1,70.1)" />
<use xlink:href="#f0_5" transform="matrix(11.5,0,0,11.5,520.8,70.1)" />
<use xlink:href="#f0_2t" transform="matrix(11.5,0,0,11.5,531.5,70.1)" />
<use xlink:href="#f0_1c" transform="matrix(11.5,0,0,11.5,540.2,70.1)" />
<use xlink:href="#f0_24" transform="matrix(11.5,0,0,11.5,545,70.1)" />
<use xlink:href="#f0_1y" transform="matrix(11.5,0,0,11.5,556.7,70.1)" />
</g>
<image preserveAspectRatio="none" x="554" y="45" width="36" height="42" xlink:href="img/5.png" />
<g fill="#FFFFFF" >
<use xlink:href="#f1_l" transform="matrix(11,0,0,11,770.3,1227.6)" />
<use xlink:href="#f1_k" transform="matrix(11,0,0,11,779.1,1227.6)" />
<use xlink:href="#f1_j" transform="matrix(11,0,0,11,792.3,1227.6)" />
<use xlink:href="#f1_m" transform="matrix(11,0,0,11,802.9,1227.6)" />
<use xlink:href="#f1_m" transform="matrix(11,0,0,11,811.7,1227.6)" />
</g>
<path fill-rule="evenodd" d="M52.8,1193.5H856.9v-.8H52.8v.8Z" class="g0_35" />
<path d="M37.9,99.4L873,98.5" class="g1_35" />
<path d="M113.2,151.8h88.4m-36,49.8H254" class="g2_35" />
<g clip-path="url(#c0_35)">
<g fill="#000000" >
<use xlink:href="#f2_2n" transform="matrix(12,0,0,27.6,56.5,258.9)" />
<use xlink:href="#f2_2p" transform="matrix(12,0,0,27.6,471.8,258.9)" />
<use xlink:href="#f3_k" transform="matrix(7,0,0,7.1,101.9,166.4)" />
<use xlink:href="#f3_j" transform="matrix(7,0,0,7.1,153.4,192.3)" />
<use xlink:href="#f3_m" transform="matrix(7,0,0,7.1,157.8,192.3)" />
<use xlink:href="#f3_k" transform="matrix(7,0,0,7.1,143.7,216.1)" />
<use xlink:href="#f3_m" transform="matrix(7,0,0,7.1,89.8,239.7)" />
<use xlink:href="#f3_k" transform="matrix(7,0,0,7.1,86.9,263.6)" />
<use xlink:href="#f3_k" transform="matrix(7,0,0,7.1,192.2,263.6)" />
<use xlink:href="#f3_2g" transform="matrix(12.2,0,0,12.2,146.5,144.6)" />
<use xlink:href="#f3_1x" transform="matrix(12.2,0,0,12.2,151.7,144.6)" />
<use xlink:href="#f3_2a" transform="matrix(12.2,0,0,12.2,159.7,144.6)" />
<use xlink:href="#f3_m" transform="matrix(12.2,0,0,12.2,58,156.4)" />
<use xlink:href="#f3_2f" transform="matrix(12.2,0,0,12.2,113.7,170.9)" />
<use xlink:href="#f3_21" transform="matrix(12.2,0,0,12.2,120.9,170.9)" />
<use xlink:href="#f3_1z" transform="matrix(12.2,0,0,12.2,128.9,170.9)" />
<use xlink:href="#f3_2g" transform="matrix(12.2,0,0,12.2,166.4,170.9)" />
<use xlink:href="#f3_1x" transform="matrix(12.2,0,0,12.2,171.6,170.9)" />
<use xlink:href="#f3_2a" transform="matrix(12.2,0,0,12.2,179.6,170.9)" />
<use xlink:href="#f3_2g" transform="matrix(12.2,0,0,12.2,192.9,194.4)" />
<use xlink:href="#f3_1x" transform="matrix(12.2,0,0,12.2,198.1,194.4)" />
<use xlink:href="#f3_2a" transform="matrix(12.2,0,0,12.2,206.1,194.4)" />
<use xlink:href="#f3_m" transform="matrix(12.2,0,0,12.2,79.9,206.2)" />
<use xlink:href="#f3_m" transform="matrix(12.2,0,0,12.2,117,206.2)" />
<use xlink:href="#f3_2f" transform="matrix(12.2,0,0,12.2,166.2,220.7)" />
<use xlink:href="#f3_21" transform="matrix(12.2,0,0,12.2,173.3,220.7)" />
<use xlink:href="#f3_1z" transform="matrix(12.2,0,0,12.2,181.4,220.7)" />
<use xlink:href="#f3_2g" transform="matrix(12.2,0,0,12.2,218.8,220.7)" />
<use xlink:href="#f3_1x" transform="matrix(12.2,0,0,12.2,224,220.7)" />
<use xlink:href="#f3_2a" transform="matrix(12.2,0,0,12.2,232,220.7)" />
<use xlink:href="#f3_c" transform="matrix(12.2,0,0,12.2,116.7,253.6)" />
<use xlink:href="#f3_d" transform="matrix(12.2,0,0,12.2,132.7,253.6)" />
<use xlink:href="#f3_m" transform="matrix(12.2,0,0,12.2,175.8,253.6)" />
<use xlink:href="#f3_c" transform="matrix(12.2,0,0,12.2,215.8,253.6)" />
<use xlink:href="#f3_d" transform="matrix(12.2,0,0,12.2,231.9,253.6)" />
<use xlink:href="#f3_2j" transform="matrix(12.2,0,0,12.2,266.1,253.6)" />
<use xlink:href="#f3_24" transform="matrix(12.2,0,0,12.2,279.3,253.6)" />
<use xlink:href="#f3_21" transform="matrix(12.2,0,0,12.2,288.5,253.6)" />
<use xlink:href="#f3_2a" transform="matrix(12.2,0,0,12.2,296.5,253.6)" />
<use xlink:href="#f3_21" transform="matrix(12.2,0,0,12.2,305.7,253.6)" />
<use xlink:href="#f3_2i" transform="matrix(12.2,0,0,12.2,313.7,253.6)" />
<use xlink:href="#f3_21" transform="matrix(12.2,0,0,12.2,322.6,253.6)" />
<use xlink:href="#f3_2e" transform="matrix(12.2,0,0,12.2,330.7,253.6)" />
<use xlink:href="#f3_c" transform="matrix(12.2,0,0,12.2,360,253.6)" />
<use xlink:href="#f3_m" transform="matrix(12.2,0,0,12.2,366.6,253.6)" />
<use xlink:href="#f3_d" transform="matrix(12.2,0,0,12.2,412.4,253.6)" />
<use xlink:href="#f3_c" transform="matrix(12.2,0,0,12.2,450.4,253.6)" />
<use xlink:href="#f3_d" transform="matrix(12.2,0,0,12.2,466.4,253.6)" />
<use xlink:href="#f4_1x" transform="matrix(7,0,0,7.1,95.9,239.7)" />
<use xlink:href="#f4_1x" transform="matrix(7,0,0,7.1,195.1,239.7)" />
<use xlink:href="#f4_2k" transform="matrix(12.2,0,0,12.2,172.5,144.6)" />
<use xlink:href="#f4_19" transform="matrix(12.2,0,0,12.2,68,156.4)" />
<use xlink:href="#f4_20" transform="matrix(12.2,0,0,12.2,204.3,156.4)" />
<use xlink:href="#f4_2k" transform="matrix(12.2,0,0,12.2,213.5,156.4)" />
<use xlink:href="#f4_2k" transform="matrix(12.2,0,0,12.2,140,170.9)" />
<use xlink:href="#f4_2k" transform="matrix(12.2,0,0,12.2,192.5,170.9)" />
<use xlink:href="#f4_2k" transform="matrix(12.2,0,0,12.2,219,194.4)" />
<use xlink:href="#f4_19" transform="matrix(12.2,0,0,12.2,90,206.2)" />
<use xlink:href="#f4_20" transform="matrix(12.2,0,0,12.2,256.8,206.2)" />
<use xlink:href="#f4_2k" transform="matrix(12.2,0,0,12.2,266,206.2)" />
<use xlink:href="#f4_2k" transform="matrix(12.2,0,0,12.2,192.5,220.7)" />
<use xlink:href="#f4_2k" transform="matrix(12.2,0,0,12.2,244.9,220.7)" />
<use xlink:href="#f4_22" transform="matrix(12.2,0,0,12.2,107.2,253.6)" />
<use xlink:href="#f4_2k" transform="matrix(12.2,0,0,12.2,124.1,253.6)" />
<use xlink:href="#f4_20" transform="matrix(12.2,0,0,12.2,139.3,253.6)" />
<use xlink:href="#f4_2k" transform="matrix(12.2,0,0,12.2,148.5,253.6)" />
<use xlink:href="#f4_22" transform="matrix(12.2,0,0,12.2,206.4,253.6)" />
<use xlink:href="#f4_2k" transform="matrix(12.2,0,0,12.2,223.2,253.6)" />
<use xlink:href="#f4_20" transform="matrix(12.2,0,0,12.2,238.4,253.6)" />
<use xlink:href="#f4_2k" transform="matrix(12.2,0,0,12.2,247.6,253.6)" />
<use xlink:href="#f4_22" transform="matrix(12.2,0,0,12.2,350.5,253.6)" />
<use xlink:href="#f4_1x" transform="matrix(12.2,0,0,12.2,376,253.6)" />
<use xlink:href="#f4_2k" transform="matrix(12.2,0,0,12.2,403.8,253.6)" />
<use xlink:href="#f4_22" transform="matrix(12.2,0,0,12.2,440.8,253.6)" />
<use xlink:href="#f4_2k" transform="matrix(12.2,0,0,12.2,457.7,253.6)" />
<use xlink:href="#f2_2c" transform="matrix(7,0,0,7.1,104.8,142.5)" />
<use xlink:href="#f2_2c" transform="matrix(7,0,0,7.1,146.6,192.3)" />
<use xlink:href="#f2_2c" transform="matrix(12.2,0,0,12.2,134.2,144.6)" />
<use xlink:href="#f2_x" transform="matrix(12.2,0,0,12.2,80.5,156.4)" />
<use xlink:href="#f2_f" transform="matrix(12.2,0,0,12.2,152.1,170.9)" />
<use xlink:href="#f2_4g" transform="matrix(12.2,0,0,12.2,57.4,206.2)" />
<use xlink:href="#f2_x" transform="matrix(12.2,0,0,12.2,102.5,206.2)" />
<use xlink:href="#f2_2c" transform="matrix(12.2,0,0,12.2,126.5,206.2)" />
<use xlink:href="#f2_f" transform="matrix(12.2,0,0,12.2,204.5,220.7)" />
<use xlink:href="#f2_x" transform="matrix(12.2,0,0,12.2,161.3,253.6)" />
<use xlink:href="#f2_h" transform="matrix(12.2,0,0,12.2,389.3,253.6)" />
<use xlink:href="#f2_x" transform="matrix(12.2,0,0,12.2,423,253.6)" />
<use xlink:href="#f2_50" transform="matrix(18.3,0,0,18.3,95.3,163)" />
<use xlink:href="#f2_50" transform="matrix(18.3,0,0,18.3,137.1,212.8)" />
<use xlink:href="#f2_50" transform="matrix(18.3,0,0,18.3,80.3,260.2)" />
<use xlink:href="#f2_50" transform="matrix(18.3,0,0,18.3,185.6,260.2)" />
</g>
</g>
<image preserveAspectRatio="none" x="62" y="232" width="73" height="33" xlink:href="img/6.png" />
<path d="M124.5,300.4h88.2M124.5,350H260.1" class="g3_35" />
<g clip-path="url(#c1_35)">
<g fill="#000000" >
<use xlink:href="#f3_j" transform="matrix(7.1,0,0,7,112.3,291.1)" />
<use xlink:href="#f3_m" transform="matrix(7.1,0,0,7,116.7,291.1)" />
<use xlink:href="#f3_k" transform="matrix(7.1,0,0,7,102.6,314.9)" />
<use xlink:href="#f3_j" transform="matrix(7.1,0,0,7,112.3,340.7)" />
<use xlink:href="#f3_m" transform="matrix(7.1,0,0,7,116.7,340.7)" />
<use xlink:href="#f3_m" transform="matrix(7.1,0,0,7,165.2,360.8)" />
<use xlink:href="#f3_m" transform="matrix(7.1,0,0,7,224.8,360.8)" />
<use xlink:href="#f3_k" transform="matrix(7.1,0,0,7,102.6,364.5)" />
<use xlink:href="#f3_j" transform="matrix(7.1,0,0,7,112.3,386.4)" />
<use xlink:href="#f3_m" transform="matrix(7.1,0,0,7,116.7,386.4)" />
<use xlink:href="#f3_m" transform="matrix(7.1,0,0,7,242.5,392.1)" />
<use xlink:href="#f3_k" transform="matrix(7.1,0,0,7,102.6,410.2)" />
<use xlink:href="#f3_j" transform="matrix(7.1,0,0,7,99.3,427.5)" />
<use xlink:href="#f3_m" transform="matrix(7.1,0,0,7,103.6,427.5)" />
<use xlink:href="#f3_m" transform="matrix(7.1,0,0,7,228.9,433.2)" />
<use xlink:href="#f3_k" transform="matrix(7.1,0,0,7,89.6,451.3)" />
<use xlink:href="#f3_2g" transform="matrix(12.2,0,0,12.1,151.8,293.2)" />
<use xlink:href="#f3_1x" transform="matrix(12.2,0,0,12.1,156.9,293.2)" />
<use xlink:href="#f3_2a" transform="matrix(12.2,0,0,12.1,164.9,293.2)" />
<use xlink:href="#f3_2f" transform="matrix(12.2,0,0,12.1,125.1,319.4)" />
<use xlink:href="#f3_21" transform="matrix(12.2,0,0,12.1,132.2,319.4)" />
<use xlink:href="#f3_1z" transform="matrix(12.2,0,0,12.1,140.2,319.4)" />
<use xlink:href="#f3_2g" transform="matrix(12.2,0,0,12.1,177.6,319.4)" />
<use xlink:href="#f3_1x" transform="matrix(12.2,0,0,12.1,182.7,319.4)" />
<use xlink:href="#f3_2a" transform="matrix(12.2,0,0,12.1,190.7,319.4)" />
<use xlink:href="#f3_2g" transform="matrix(12.2,0,0,12.1,125.9,342.8)" />
<use xlink:href="#f3_1x" transform="matrix(12.2,0,0,12.1,131.1,342.8)" />
<use xlink:href="#f3_2a" transform="matrix(12.2,0,0,12.1,139.1,342.8)" />
<use xlink:href="#f3_c" transform="matrix(12.2,0,0,12.1,160.4,342.8)" />
<use xlink:href="#f3_2f" transform="matrix(12.2,0,0,12.1,166.4,342.8)" />
<use xlink:href="#f3_21" transform="matrix(12.2,0,0,12.1,173.6,342.8)" />
<use xlink:href="#f3_1z" transform="matrix(12.2,0,0,12.1,181.6,342.8)" />
<use xlink:href="#f3_2g" transform="matrix(12.2,0,0,12.1,218.7,342.8)" />
<use xlink:href="#f3_1x" transform="matrix(12.2,0,0,12.1,223.8,342.8)" />
<use xlink:href="#f3_2a" transform="matrix(12.2,0,0,12.1,231.8,342.8)" />
<use xlink:href="#f3_d" transform="matrix(12.2,0,0,12.1,253.1,342.8)" />
<use xlink:href="#f3_2f" transform="matrix(12.2,0,0,12.1,141.3,369)" />
<use xlink:href="#f3_21" transform="matrix(12.2,0,0,12.1,148.5,369)" />
<use xlink:href="#f3_1z" transform="matrix(12.2,0,0,12.1,156.5,369)" />
<use xlink:href="#f3_2g" transform="matrix(12.2,0,0,12.1,201.1,369)" />
<use xlink:href="#f3_1x" transform="matrix(12.2,0,0,12.1,206.3,369)" />
<use xlink:href="#f3_2a" transform="matrix(12.2,0,0,12.1,214.3,369)" />
<use xlink:href="#f3_c" transform="matrix(12.2,0,0,12.1,123.9,400.3)" />
<use xlink:href="#f3_2f" transform="matrix(12.2,0,0,12.1,129.9,400.3)" />
<use xlink:href="#f3_21" transform="matrix(12.2,0,0,12.1,137.1,400.3)" />
<use xlink:href="#f3_1z" transform="matrix(12.2,0,0,12.1,145.1,400.3)" />
<use xlink:href="#f3_2g" transform="matrix(12.2,0,0,12.1,166.9,400.3)" />
<use xlink:href="#f3_1x" transform="matrix(12.2,0,0,12.1,172.1,400.3)" />
<use xlink:href="#f3_2a" transform="matrix(12.2,0,0,12.1,180.1,400.3)" />
<use xlink:href="#f3_2g" transform="matrix(12.2,0,0,12.1,218.9,400.3)" />
<use xlink:href="#f3_1x" transform="matrix(12.2,0,0,12.1,224,400.3)" />
<use xlink:href="#f3_2a" transform="matrix(12.2,0,0,12.1,232,400.3)" />
<use xlink:href="#f3_d" transform="matrix(12.2,0,0,12.1,260.9,400.3)" />
<use xlink:href="#f3_c" transform="matrix(12.2,0,0,12.1,110.9,441.3)" />
<use xlink:href="#f3_2f" transform="matrix(12.2,0,0,12.1,116.9,441.3)" />
<use xlink:href="#f3_21" transform="matrix(12.2,0,0,12.1,124,441.3)" />
<use xlink:href="#f3_1z" transform="matrix(12.2,0,0,12.1,132,441.3)" />
<use xlink:href="#f3_2g" transform="matrix(12.2,0,0,12.1,153.9,441.3)" />
<use xlink:href="#f3_1x" transform="matrix(12.2,0,0,12.1,159,441.3)" />
<use xlink:href="#f3_2a" transform="matrix(12.2,0,0,12.1,167,441.3)" />
<use xlink:href="#f3_2f" transform="matrix(12.2,0,0,12.1,204.9,441.3)" />
<use xlink:href="#f3_21" transform="matrix(12.2,0,0,12.1,212.1,441.3)" />
<use xlink:href="#f3_1z" transform="matrix(12.2,0,0,12.1,220.1,441.3)" />
<use xlink:href="#f3_l" transform="matrix(12.2,0,0,12.1,262.8,441.3)" />
<use xlink:href="#f3_d" transform="matrix(12.2,0,0,12.1,270.5,441.3)" />
<use xlink:href="#f4_2k" transform="matrix(12.2,0,0,12.1,177.7,293.2)" />
<use xlink:href="#f4_19" transform="matrix(12.2,0,0,12.1,58.5,304.9)" />
<use xlink:href="#f4_20" transform="matrix(12.2,0,0,12.1,215.5,304.9)" />
<use xlink:href="#f4_2k" transform="matrix(12.2,0,0,12.1,224.6,304.9)" />
<use xlink:href="#f4_2k" transform="matrix(12.2,0,0,12.1,151.3,319.4)" />
<use xlink:href="#f4_2k" transform="matrix(12.2,0,0,12.1,203.5,319.4)" />
<use xlink:href="#f4_2k" transform="matrix(12.2,0,0,12.1,151.9,342.8)" />
<use xlink:href="#f4_2k" transform="matrix(12.2,0,0,12.1,192.7,342.8)" />
<use xlink:href="#f4_2k" transform="matrix(12.2,0,0,12.1,244.6,342.8)" />
<use xlink:href="#f4_19" transform="matrix(12.2,0,0,12.1,58.5,354.5)" />
<use xlink:href="#f4_20" transform="matrix(12.2,0,0,12.1,262.8,354.5)" />
<use xlink:href="#f4_2k" transform="matrix(12.2,0,0,12.1,272,354.5)" />
<use xlink:href="#f4_2k" transform="matrix(12.2,0,0,12.1,175.1,369)" />
<use xlink:href="#f4_2k" transform="matrix(12.2,0,0,12.1,234.7,369)" />
<use xlink:href="#f4_19" transform="matrix(12.2,0,0,12.1,58.5,400.3)" />
<use xlink:href="#f4_2k" transform="matrix(12.2,0,0,12.1,156.1,400.3)" />
<use xlink:href="#f4_2k" transform="matrix(12.2,0,0,12.1,192.8,400.3)" />
<use xlink:href="#f4_2k" transform="matrix(12.2,0,0,12.1,252.4,400.3)" />
<use xlink:href="#f4_20" transform="matrix(12.2,0,0,12.1,267.5,400.3)" />
<use xlink:href="#f4_2k" transform="matrix(12.2,0,0,12.1,276.7,400.3)" />
<use xlink:href="#f4_2k" transform="matrix(12.2,0,0,12.1,143.1,441.3)" />
<use xlink:href="#f4_2k" transform="matrix(12.2,0,0,12.1,179.8,441.3)" />
<use xlink:href="#f4_2k" transform="matrix(12.2,0,0,12.1,238.7,441.3)" />
<use xlink:href="#f4_20" transform="matrix(12.2,0,0,12.1,277,441.3)" />
<use xlink:href="#f4_2k" transform="matrix(12.2,0,0,12.1,286.2,441.3)" />
<use xlink:href="#f2_2c" transform="matrix(7.1,0,0,7,105.5,291.1)" />
<use xlink:href="#f2_2c" transform="matrix(7.1,0,0,7,105.5,340.7)" />
<use xlink:href="#f2_2c" transform="matrix(7.1,0,0,7,105.5,386.4)" />
<use xlink:href="#f2_2c" transform="matrix(7.1,0,0,7,92.5,427.5)" />
<use xlink:href="#f2_x" transform="matrix(12.2,0,0,12.1,71,304.9)" />
<use xlink:href="#f2_2c" transform="matrix(12.2,0,0,12.1,85.5,304.9)" />
<use xlink:href="#f2_f" transform="matrix(12.2,0,0,12.1,163.3,319.4)" />
<use xlink:href="#f2_h" transform="matrix(12.2,0,0,12.1,204.7,342.8)" />
<use xlink:href="#f2_x" transform="matrix(12.2,0,0,12.1,71,354.5)" />
<use xlink:href="#f2_2c" transform="matrix(12.2,0,0,12.1,85.5,354.5)" />
<use xlink:href="#f2_h" transform="matrix(12.2,0,0,12.1,187.1,369)" />
<use xlink:href="#f2_x" transform="matrix(12.2,0,0,12.1,71,400.3)" />
<use xlink:href="#f2_2c" transform="matrix(12.2,0,0,12.1,85.4,400.3)" />
<use xlink:href="#f2_h" transform="matrix(12.2,0,0,12.1,204.8,400.3)" />
<use xlink:href="#f2_x" transform="matrix(12.2,0,0,12.1,58,441.3)" />
<use xlink:href="#f2_2c" transform="matrix(12.2,0,0,12.1,72.4,441.3)" />
<use xlink:href="#f2_h" transform="matrix(12.2,0,0,12.1,191.8,441.3)" />
<use xlink:href="#f2_f" transform="matrix(12.2,0,0,12.1,250.7,441.3)" />
<use xlink:href="#f2_50" transform="matrix(18.4,0,0,18.2,96.1,311.5)" />
<use xlink:href="#f2_50" transform="matrix(18.4,0,0,18.2,96.1,361.1)" />
<use xlink:href="#f2_50" transform="matrix(18.4,0,0,18.2,96.1,406.8)" />
<use xlink:href="#f2_50" transform="matrix(18.4,0,0,18.2,83,447.9)" />
</g>
</g>
<g clip-path="url(#c2_35)">
<g fill="#000000" >
<use xlink:href="#f2_1r" transform="matrix(11.9,0,0,16.4,96.3,483.4)" />
<use xlink:href="#f2_1t" transform="matrix(11.9,0,0,16.4,216.8,483.4)" />
</g>
</g>
<path d="M110.2,551.9h12.9" class="g4_35" />
<g clip-path="url(#c2_35)">
<g fill="#000000" >
<use xlink:href="#f2_c" transform="matrix(11.9,0,0,15.9,125.3,537.2)" />
<use xlink:href="#f2_d" transform="matrix(11.9,0,0,15.9,220.1,537.2)" />
</g>
</g>
<path d="M243.9,531.3h11.7" class="g5_35" />
<g clip-path="url(#c2_35)">
<g fill="#000000" >
<use xlink:href="#f3_j" transform="matrix(7,0,0,7,229.5,470.9)" />
<use xlink:href="#f3_m" transform="matrix(7,0,0,7,233.9,470.9)" />
<use xlink:href="#f3_k" transform="matrix(7,0,0,7,222.5,489.1)" />
<use xlink:href="#f3_m" transform="matrix(7,0,0,7,114.2,562.9)" />
<use xlink:href="#f3_2f" transform="matrix(12.1,0,0,12.1,102.7,482)" />
<use xlink:href="#f3_21" transform="matrix(12.1,0,0,12.1,109.9,482)" />
<use xlink:href="#f3_1z" transform="matrix(12.1,0,0,12.1,117.9,482)" />
<use xlink:href="#f3_2g" transform="matrix(12.1,0,0,12.1,155,482)" />
<use xlink:href="#f3_1x" transform="matrix(12.1,0,0,12.1,160.1,482)" />
<use xlink:href="#f3_2a" transform="matrix(12.1,0,0,12.1,168.2,482)" />
<use xlink:href="#f3_28" transform="matrix(12.1,0,0,12.1,95.7,535.8)" />
<use xlink:href="#f3_25" transform="matrix(12.1,0,0,12.1,100.6,535.8)" />
<use xlink:href="#f3_29" transform="matrix(12.1,0,0,12.1,105.8,535.8)" />
<use xlink:href="#f3_2f" transform="matrix(12.1,0,0,12.1,132.3,535.8)" />
<use xlink:href="#f3_21" transform="matrix(12.1,0,0,12.1,139.5,535.8)" />
<use xlink:href="#f3_1z" transform="matrix(12.1,0,0,12.1,147.5,535.8)" />
<use xlink:href="#f3_2g" transform="matrix(12.1,0,0,12.1,184.5,535.8)" />
<use xlink:href="#f3_1x" transform="matrix(12.1,0,0,12.1,189.7,535.8)" />
<use xlink:href="#f3_2a" transform="matrix(12.1,0,0,12.1,197.7,535.8)" />
<use xlink:href="#f3_2f" transform="matrix(12.1,0,0,12.1,273,535.8)" />
<use xlink:href="#f3_21" transform="matrix(12.1,0,0,12.1,280.2,535.8)" />
<use xlink:href="#f3_1z" transform="matrix(12.1,0,0,12.1,288.2,535.8)" />
<use xlink:href="#f3_m" transform="matrix(12.1,0,0,12.1,245.4,550.3)" />
<use xlink:href="#f4_2k" transform="matrix(7,0,0,7,93.1,554.6)" />
<use xlink:href="#f4_19" transform="matrix(12.1,0,0,12.1,58.5,482)" />
<use xlink:href="#f4_2k" transform="matrix(12.1,0,0,12.1,129,482)" />
<use xlink:href="#f4_2k" transform="matrix(12.1,0,0,12.1,180.9,482)" />
<use xlink:href="#f4_2k" transform="matrix(12.1,0,0,12.1,207.8,482)" />
<use xlink:href="#f4_2k" transform="matrix(12.1,0,0,12.1,158.5,535.8)" />
<use xlink:href="#f4_2k" transform="matrix(12.1,0,0,12.1,210.5,535.8)" />
<use xlink:href="#f2_h" transform="matrix(5.1,0,0,5.1,116.8,543.2)" />
<use xlink:href="#f2_2c" transform="matrix(7,0,0,7,222.7,470.9)" />
<use xlink:href="#f2_2c" transform="matrix(7,0,0,7,110.8,547.9)" />
<use xlink:href="#f2_34" transform="matrix(7,0,0,7,98.7,554.6)" />
<use xlink:href="#f2_x" transform="matrix(12.1,0,0,12.1,71,482)" />
<use xlink:href="#f2_2c" transform="matrix(12.1,0,0,12.1,85.5,482)" />
<use xlink:href="#f2_h" transform="matrix(12.1,0,0,12.1,140.9,482)" />
<use xlink:href="#f2_f" transform="matrix(12.1,0,0,12.1,192.9,482)" />
<use xlink:href="#f2_4r" transform="matrix(12.1,0,0,12.1,84.7,515.1)" />
<use xlink:href="#f2_57" transform="matrix(12.1,0,0,12.1,308,515.1)" />
<use xlink:href="#f2_2c" transform="matrix(12.1,0,0,12.1,245,524.2)" />
<use xlink:href="#f2_4s" transform="matrix(12.1,0,0,12.1,84.7,532.6)" />
<use xlink:href="#f2_58" transform="matrix(12.1,0,0,12.1,308,532.6)" />
<use xlink:href="#f2_x" transform="matrix(12.1,0,0,12.1,57.9,535.8)" />
<use xlink:href="#f2_2c" transform="matrix(12.1,0,0,12.1,72.4,535.8)" />
<use xlink:href="#f2_h" transform="matrix(12.1,0,0,12.1,170.6,535.8)" />
<use xlink:href="#f2_f" transform="matrix(12.1,0,0,12.1,229.5,535.8)" />
<use xlink:href="#f2_h" transform="matrix(12.1,0,0,12.1,259.8,535.8)" />
<use xlink:href="#f2_k" transform="matrix(12.1,0,0,12.1,298.1,535.8)" />
<use xlink:href="#f2_4s" transform="matrix(12.1,0,0,12.1,84.7,550)" />
<use xlink:href="#f2_58" transform="matrix(12.1,0,0,12.1,308,550)" />
<use xlink:href="#f2_4t" transform="matrix(12.1,0,0,12.1,84.7,562.9)" />
<use xlink:href="#f2_59" transform="matrix(12.1,0,0,12.1,308,562.9)" />
</g>
</g>
<path d="M101.9,619.5h13" class="g6_35" />
<path d="M117.9,598.7h57.5m18.6,0h19.2" class="g7_35" />
<path d="M101.9,683.9h13" class="g6_35" />
<path d="M117.9,663.1H224.1m18.5,0h19.3M72.7,727.6H91.9" class="g7_35" />
<g clip-path="url(#c3_35)">
<g fill="#000000" >
<use xlink:href="#f3_m" transform="matrix(7.1,0,0,7,205.5,583.4)" />
<use xlink:href="#f3_m" transform="matrix(7.1,0,0,7,106,630.5)" />
<use xlink:href="#f3_m" transform="matrix(7.1,0,0,7,184.5,647.8)" />
<use xlink:href="#f3_m" transform="matrix(7.1,0,0,7,254.2,647.8)" />
<use xlink:href="#f3_m" transform="matrix(7.1,0,0,7,106,694.9)" />
<use xlink:href="#f3_m" transform="matrix(7.1,0,0,7,84.2,712.2)" />
<use xlink:href="#f3_l" transform="matrix(12.2,0,0,12.2,117.1,591.6)" />
<use xlink:href="#f3_2f" transform="matrix(12.2,0,0,12.2,141.3,591.6)" />
<use xlink:href="#f3_25" transform="matrix(12.2,0,0,12.2,148.4,591.6)" />
<use xlink:href="#f3_2a" transform="matrix(12.2,0,0,12.2,153.5,591.6)" />
<use xlink:href="#f3_28" transform="matrix(12.2,0,0,12.2,87.6,603.3)" />
<use xlink:href="#f3_25" transform="matrix(12.2,0,0,12.2,92.4,603.3)" />
<use xlink:href="#f3_29" transform="matrix(12.2,0,0,12.2,97.5,603.3)" />
<use xlink:href="#f3_1z" transform="matrix(12.2,0,0,12.2,128.9,617.9)" />
<use xlink:href="#f3_2b" transform="matrix(12.2,0,0,12.2,136.9,617.9)" />
<use xlink:href="#f3_2f" transform="matrix(12.2,0,0,12.2,146,617.9)" />
<use xlink:href="#f3_m" transform="matrix(12.2,0,0,12.2,199.3,617.9)" />
<use xlink:href="#f3_l" transform="matrix(12.2,0,0,12.2,137.6,656)" />
<use xlink:href="#f3_2f" transform="matrix(12.2,0,0,12.2,161.8,656)" />
<use xlink:href="#f3_25" transform="matrix(12.2,0,0,12.2,169,656)" />
<use xlink:href="#f3_2a" transform="matrix(12.2,0,0,12.2,174.1,656)" />
<use xlink:href="#f3_28" transform="matrix(12.2,0,0,12.2,87.6,667.7)" />
<use xlink:href="#f3_25" transform="matrix(12.2,0,0,12.2,92.4,667.7)" />
<use xlink:href="#f3_29" transform="matrix(12.2,0,0,12.2,97.5,667.7)" />
<use xlink:href="#f3_1z" transform="matrix(12.2,0,0,12.2,118.8,682.3)" />
<use xlink:href="#f3_2b" transform="matrix(12.2,0,0,12.2,126.8,682.3)" />
<use xlink:href="#f3_2f" transform="matrix(12.2,0,0,12.2,135.9,682.3)" />
<use xlink:href="#f3_c" transform="matrix(12.2,0,0,12.2,154.6,682.3)" />
<use xlink:href="#f3_l" transform="matrix(12.2,0,0,12.2,159.2,682.3)" />
<use xlink:href="#f3_2f" transform="matrix(12.2,0,0,12.2,183.7,682.3)" />
<use xlink:href="#f3_25" transform="matrix(12.2,0,0,12.2,190.8,682.3)" />
<use xlink:href="#f3_2a" transform="matrix(12.2,0,0,12.2,195.9,682.3)" />
<use xlink:href="#f3_d" transform="matrix(12.2,0,0,12.2,217.2,682.3)" />
<use xlink:href="#f3_m" transform="matrix(12.2,0,0,12.2,247.9,682.3)" />
<use xlink:href="#f3_m" transform="matrix(12.2,0,0,12.2,78,746.7)" />
<use xlink:href="#f4_2k" transform="matrix(7.1,0,0,7,84.8,622.2)" />
<use xlink:href="#f4_2k" transform="matrix(7.1,0,0,7,84.8,686.6)" />
<use xlink:href="#f4_2k" transform="matrix(12.2,0,0,12.2,166.3,591.6)" />
<use xlink:href="#f4_2k" transform="matrix(12.2,0,0,12.2,156.2,617.9)" />
<use xlink:href="#f4_2k" transform="matrix(12.2,0,0,12.2,194.4,656)" />
<use xlink:href="#f4_2k" transform="matrix(12.2,0,0,12.2,146,682.3)" />
<use xlink:href="#f4_2k" transform="matrix(12.2,0,0,12.2,208.7,682.3)" />
<use xlink:href="#f2_h" transform="matrix(5.1,0,0,5.1,108.6,610.7)" />
<use xlink:href="#f2_h" transform="matrix(5.1,0,0,5.1,108.6,675.1)" />
<use xlink:href="#f2_2c" transform="matrix(7.1,0,0,7,102.6,615.5)" />
<use xlink:href="#f2_34" transform="matrix(7.1,0,0,7,90.5,622.2)" />
<use xlink:href="#f2_2c" transform="matrix(7.1,0,0,7,102.6,679.9)" />
<use xlink:href="#f2_34" transform="matrix(7.1,0,0,7,90.5,686.6)" />
<use xlink:href="#f2_h" transform="matrix(12.2,0,0,12.2,128.2,591.6)" />
<use xlink:href="#f2_2c" transform="matrix(12.2,0,0,12.2,195.1,591.6)" />
<use xlink:href="#f2_x" transform="matrix(12.2,0,0,12.2,58,603.3)" />
<use xlink:href="#f2_2c" transform="matrix(12.2,0,0,12.2,72.4,603.3)" />
<use xlink:href="#f2_f" transform="matrix(12.2,0,0,12.2,179.7,603.3)" />
<use xlink:href="#f2_h" transform="matrix(12.2,0,0,12.2,217.4,603.3)" />
<use xlink:href="#f2_2c" transform="matrix(12.2,0,0,12.2,231.1,603.3)" />
<use xlink:href="#f2_h" transform="matrix(12.2,0,0,12.2,148.8,656)" />
<use xlink:href="#f2_2c" transform="matrix(12.2,0,0,12.2,243.8,656)" />
<use xlink:href="#f2_x" transform="matrix(12.2,0,0,12.2,58,667.7)" />
<use xlink:href="#f2_2c" transform="matrix(12.2,0,0,12.2,72.4,667.7)" />
<use xlink:href="#f2_f" transform="matrix(12.2,0,0,12.2,228.3,667.7)" />
<use xlink:href="#f2_h" transform="matrix(12.2,0,0,12.2,266.1,667.7)" />
<use xlink:href="#f2_2c" transform="matrix(12.2,0,0,12.2,279.8,667.7)" />
<use xlink:href="#f2_f" transform="matrix(12.2,0,0,12.2,170.3,682.3)" />
<use xlink:href="#f2_2c" transform="matrix(12.2,0,0,12.2,73.8,720.4)" />
<use xlink:href="#f2_x" transform="matrix(12.2,0,0,12.2,58,732.1)" />
<use xlink:href="#f2_h" transform="matrix(12.2,0,0,12.2,96.2,732.1)" />
<use xlink:href="#f2_2c" transform="matrix(12.2,0,0,12.2,109.9,732.1)" />
</g>
</g>
<g fill="#000000" >
<use xlink:href="#f5_1f" transform="matrix(12,0,0,12,440.9,770.9)" />
<use xlink:href="#f5_1i" transform="matrix(12,0,0,12,455.2,770.9)" />
<use xlink:href="#f3_1c" transform="matrix(12,0,0,12,55,795.1)" />
<use xlink:href="#f3_21" transform="matrix(12,0,0,12,66,795.1)" />
<use xlink:href="#f3_2g" transform="matrix(12,0,0,12,74.1,795.1)" />
<use xlink:href="#f3_22" transform="matrix(12,0,0,12,84.3,795.1)" />
<use xlink:href="#f3_c" transform="matrix(12,0,0,12,94.6,795.1)" />
<use xlink:href="#f3_2k" transform="matrix(12,0,0,12,100.8,795.1)" />
<use xlink:href="#f3_d" transform="matrix(12,0,0,12,109.6,795.1)" />
<use xlink:href="#f3_x" transform="matrix(12,0,0,12,120.6,795.1)" />
<use xlink:href="#f3_2o" transform="matrix(12,0,0,12,135.6,795.1)" />
<use xlink:href="#f3_2k" transform="matrix(12,0,0,12,144,795.1)" />
<use xlink:href="#f6_4y" transform="matrix(12,0,0,12,157.7,795.1)" />
<use xlink:href="#f3_l" transform="matrix(12,0,0,12,171.7,795.1)" />
<use xlink:href="#f3_2o" transform="matrix(12,0,0,12,180.8,795.1)" />
<use xlink:href="#f3_f" transform="matrix(12,0,0,12,189.3,795.1)" />
<use xlink:href="#f3_2o" transform="matrix(12,0,0,12,199.5,795.1)" />
<use xlink:href="#f3_2k" transform="matrix(12,0,0,12,207.6,795.1)" />
<use xlink:href="#f6_4y" transform="matrix(12,0,0,12,221.2,795.1)" />
<use xlink:href="#f3_m" transform="matrix(12,0,0,12,235.1,795.1)" />
<use xlink:href="#f3_2o" transform="matrix(12,0,0,12,249,795.1)" />
<use xlink:href="#f3_f" transform="matrix(12,0,0,12,257.1,795.1)" />
<use xlink:href="#f3_2o" transform="matrix(12,0,0,12,272.1,795.1)" />
<use xlink:href="#f3_2k" transform="matrix(12,0,0,12,275.8,795.1)" />
<use xlink:href="#f6_4y" transform="matrix(12,0,0,12,289.4,795.1)" />
<use xlink:href="#f3_o" transform="matrix(12,0,0,12,303.3,795.1)" />
<use xlink:href="#f3_2o" transform="matrix(12,0,0,12,312.5,795.1)" />
<use xlink:href="#f3_1n" transform="matrix(12,0,0,12,55,819.3)" />
<use xlink:href="#f3_21" transform="matrix(12,0,0,12,71.9,819.3)" />
<use xlink:href="#f3_24" transform="matrix(12,0,0,12,85.1,819.3)" />
<use xlink:href="#f3_1x" transform="matrix(12,0,0,12,93.9,819.3)" />
<use xlink:href="#f3_2i" transform="matrix(12,0,0,12,102.3,819.3)" />
<use xlink:href="#f3_21" transform="matrix(12,0,0,12,111.1,819.3)" />
<use xlink:href="#f3_2g" transform="matrix(12,0,0,12,123.9,819.3)" />
<use xlink:href="#f3_24" transform="matrix(12,0,0,12,129.4,819.3)" />
<use xlink:href="#f3_2e" transform="matrix(12,0,0,12,138.2,819.3)" />
<use xlink:href="#f3_21" transform="matrix(12,0,0,12,144.4,819.3)" />
<use xlink:href="#f3_21" transform="matrix(12,0,0,12,152.5,819.3)" />
<use xlink:href="#f3_1z" transform="matrix(12,0,0,12,165.3,819.3)" />
<use xlink:href="#f3_2e" transform="matrix(12,0,0,12,173.4,819.3)" />
<use xlink:href="#f3_25" transform="matrix(12,0,0,12,179.9,819.3)" />
<use xlink:href="#f3_2g" transform="matrix(12,0,0,12,184.3,819.3)" />
<use xlink:href="#f3_25" transform="matrix(12,0,0,12,190.2,819.3)" />
<use xlink:href="#f3_1z" transform="matrix(12,0,0,12,194.6,819.3)" />
<use xlink:href="#f3_1x" transform="matrix(12,0,0,12,202.7,819.3)" />
<use xlink:href="#f3_28" transform="matrix(12,0,0,12,211.1,819.3)" />
<use xlink:href="#f3_2c" transform="matrix(12,0,0,12,220.2,819.3)" />
<use xlink:href="#f3_2b" transform="matrix(12,0,0,12,229.4,819.3)" />
<use xlink:href="#f3_25" transform="matrix(12,0,0,12,239.3,819.3)" />
<use xlink:href="#f3_2a" transform="matrix(12,0,0,12,244,819.3)" />
<use xlink:href="#f3_2g" transform="matrix(12,0,0,12,252.8,819.3)" />
<use xlink:href="#f3_2f" transform="matrix(12,0,0,12,258.3,819.3)" />
<use xlink:href="#f3_2k" transform="matrix(12,0,0,12,270,819.3)" />
<use xlink:href="#f3_x" transform="matrix(12,0,0,12,283.6,819.3)" />
<use xlink:href="#f3_l" transform="matrix(12,0,0,12,298.6,819.3)" />
<use xlink:href="#f3_g" transform="matrix(12,0,0,12,307.8,819.3)" />
<use xlink:href="#f3_m" transform="matrix(12,0,0,12,317.3,819.3)" />
<use xlink:href="#f3_g" transform="matrix(12,0,0,12,326.4,819.3)" />
<use xlink:href="#f3_o" transform="matrix(12,0,0,12,335.6,819.3)" />
<use xlink:href="#f3_c" transform="matrix(12,0,0,12,55,843.5)" />
<use xlink:href="#f3_25" transform="matrix(12,0,0,12,61.6,843.5)" />
<use xlink:href="#f3_d" transform="matrix(12,0,0,12,66,843.5)" />
<use xlink:href="#f3_2j" transform="matrix(12,0,0,12,77,843.5)" />
<use xlink:href="#f3_24" transform="matrix(12,0,0,12,90.2,843.5)" />
<use xlink:href="#f3_21" transform="matrix(12,0,0,12,99,843.5)" />
<use xlink:href="#f3_2a" transform="matrix(12,0,0,12,107.4,843.5)" />
<use xlink:href="#f3_2k" transform="matrix(12,0,0,12,120.9,843.5)" />
<use xlink:href="#f3_w" transform="matrix(12,0,0,12,134.5,843.5)" />
<use xlink:href="#f3_l" transform="matrix(12,0,0,12,149.5,843.5)" />
<use xlink:href="#f3_c" transform="matrix(12,0,0,12,55,867.7)" />
<use xlink:href="#f3_25" transform="matrix(12,0,0,12,61.6,867.7)" />
<use xlink:href="#f3_25" transform="matrix(12,0,0,12,66.4,867.7)" />
<use xlink:href="#f3_d" transform="matrix(12,0,0,12,70.8,867.7)" />
<use xlink:href="#f3_2j" transform="matrix(12,0,0,12,81.7,867.7)" />
<use xlink:href="#f3_24" transform="matrix(12,0,0,12,95.3,867.7)" />
<use xlink:href="#f3_21" transform="matrix(12,0,0,12,104.1,867.7)" />
<use xlink:href="#f3_2a" transform="matrix(12,0,0,12,112.5,867.7)" />
<use xlink:href="#f3_l" transform="matrix(12,0,0,12,126.1,867.7)" />
</g>
<g clip-path="url(#c4_35)">
<g fill="#000000" >
<use xlink:href="#f2_2t" transform="matrix(12,0,0,12.3,142.8,867.7)" />
</g>
</g>
<g fill="#000000" >
<use xlink:href="#f3_2k" transform="matrix(12,0,0,12,165.1,867.7)" />
<use xlink:href="#f3_w" transform="matrix(12,0,0,12,178.6,867.7)" />
<use xlink:href="#f3_m" transform="matrix(12,0,0,12,193.6,867.7)" />
<use xlink:href="#f3_c" transform="matrix(12,0,0,12,55,892.4)" />
<use xlink:href="#f3_25" transform="matrix(12,0,0,12,61.6,892.4)" />
<use xlink:href="#f3_25" transform="matrix(12,0,0,12,66.4,892.4)" />
<use xlink:href="#f3_25" transform="matrix(12,0,0,12,71.2,892.4)" />
<use xlink:href="#f3_d" transform="matrix(12,0,0,12,75.9,892.4)" />
<use xlink:href="#f3_2j" transform="matrix(12,0,0,12,86.9,892.4)" />
<use xlink:href="#f3_24" transform="matrix(12,0,0,12,100.4,892.4)" />
<use xlink:href="#f3_21" transform="matrix(12,0,0,12,109.2,892.4)" />
<use xlink:href="#f3_2a" transform="matrix(12,0,0,12,117.6,892.4)" />
<use xlink:href="#f3_m" transform="matrix(12,0,0,12,131.2,892.4)" />
</g>
<g clip-path="url(#c5_35)">
<g fill="#000000" >
<use xlink:href="#f2_2t" transform="matrix(12,0,0,12.3,148,892.3)" />
</g>
</g>
<g fill="#000000" >
<use xlink:href="#f3_2k" transform="matrix(12,0,0,12,165.4,892.4)" />
<use xlink:href="#f3_w" transform="matrix(12,0,0,12,179,892.4)" />
<use xlink:href="#f3_o" transform="matrix(12,0,0,12,194,892.4)" />
<use xlink:href="#f3_c" transform="matrix(12,0,0,12,55,916.6)" />
<use xlink:href="#f3_25" transform="matrix(12,0,0,12,61.6,916.6)" />
<use xlink:href="#f3_2i" transform="matrix(12,0,0,12,66.4,916.6)" />
<use xlink:href="#f3_d" transform="matrix(12,0,0,12,75.2,916.6)" />
<use xlink:href="#f3_2j" transform="matrix(12,0,0,12,86.1,916.6)" />
<use xlink:href="#f3_24" transform="matrix(12,0,0,12,99.4,916.6)" />
<use xlink:href="#f3_21" transform="matrix(12,0,0,12,108.1,916.6)" />
<use xlink:href="#f3_2a" transform="matrix(12,0,0,12,116.6,916.6)" />
<use xlink:href="#f3_2k" transform="matrix(12,0,0,12,130.1,916.6)" />
</g>
<g clip-path="url(#c6_35)">
<g fill="#000000" >
<use xlink:href="#f2_39" transform="matrix(12.1,0,0,12.3,146.8,916.6)" />
</g>
</g>
<g fill="#000000" >
<use xlink:href="#f3_o" transform="matrix(12,0,0,12,164.3,916.6)" />
<use xlink:href="#f3_16" transform="matrix(12,0,0,12,55,965)" />
<use xlink:href="#f3_c" transform="matrix(12,0,0,12,69.7,965)" />
<use xlink:href="#f3_2k" transform="matrix(12,0,0,12,75.9,965)" />
<use xlink:href="#f3_d" transform="matrix(12,0,0,12,84.7,965)" />
<use xlink:href="#f3_x" transform="matrix(12,0,0,12,95.7,965)" />
<use xlink:href="#f6_4y" transform="matrix(12,0,0,12,110.8,965)" />
<use xlink:href="#f3_c" transform="matrix(12,0,0,12,124.7,965)" />
<use xlink:href="#f3_2k" transform="matrix(12,0,0,12,130.9,965)" />
<use xlink:href="#f6_4y" transform="matrix(12,0,0,12,144.5,965)" />
<use xlink:href="#f3_l" transform="matrix(12,0,0,12,158.5,965)" />
<use xlink:href="#f3_d" transform="matrix(12,0,0,12,167.6,965)" />
<use xlink:href="#f6_4y" transform="matrix(12,0,0,12,178.3,965)" />
<use xlink:href="#f3_c" transform="matrix(12,0,0,12,191.8,965)" />
<use xlink:href="#f3_2k" transform="matrix(12,0,0,12,198.1,965)" />
<use xlink:href="#f6_4y" transform="matrix(12,0,0,12,211.6,965)" />
<use xlink:href="#f3_m" transform="matrix(12,0,0,12,225.6,965)" />
<use xlink:href="#f3_d" transform="matrix(12,0,0,12,234.7,965)" />
<use xlink:href="#f6_4y" transform="matrix(12,0,0,12,245.4,965)" />
<use xlink:href="#f3_c" transform="matrix(12,0,0,12,259,965)" />
<use xlink:href="#f3_2k" transform="matrix(12,0,0,12,265.2,965)" />
<use xlink:href="#f6_4y" transform="matrix(12,0,0,12,278.8,965)" />
<use xlink:href="#f3_o" transform="matrix(12,0,0,12,292.7,965)" />
<use xlink:href="#f3_d" transform="matrix(12,0,0,12,301.9,965)" />
<use xlink:href="#f3_25" transform="matrix(12,0,0,12,330.1,965)" />
<use xlink:href="#f3_22" transform="matrix(12,0,0,12,335.2,965)" />
<use xlink:href="#f3_2k" transform="matrix(12,0,0,12,385.2,965)" />
<use xlink:href="#f3_w" transform="matrix(12,0,0,12,398.7,965)" />
<use xlink:href="#f3_l" transform="matrix(12,0,0,12,413.7,965)" />
<use xlink:href="#f3_x" transform="matrix(12,0,0,12,59.8,989.2)" />
<use xlink:href="#f3_c" transform="matrix(12,0,0,12,74.8,989.2)" />
<use xlink:href="#f3_2k" transform="matrix(12,0,0,12,81,989.2)" />
<use xlink:href="#f6_4y" transform="matrix(12,0,0,12,94.6,989.2)" />
<use xlink:href="#f3_l" transform="matrix(12,0,0,12,108.6,989.2)" />
<use xlink:href="#f3_d" transform="matrix(12,0,0,12,117.4,989.2)" />
<use xlink:href="#f6_4y" transform="matrix(12,0,0,12,128.4,989.2)" />
<use xlink:href="#f3_c" transform="matrix(12,0,0,12,141.9,989.2)" />
<use xlink:href="#f3_2k" transform="matrix(12,0,0,12,148.2,989.2)" />
<use xlink:href="#f6_4y" transform="matrix(12,0,0,12,161.8,989.2)" />
<use xlink:href="#f3_m" transform="matrix(12,0,0,12,175.7,989.2)" />
<use xlink:href="#f3_d" transform="matrix(12,0,0,12,184.9,989.2)" />
<use xlink:href="#f6_4y" transform="matrix(12,0,0,12,195.5,989.2)" />
<use xlink:href="#f3_c" transform="matrix(12,0,0,12,209.1,989.2)" />
<use xlink:href="#f3_2k" transform="matrix(12,0,0,12,215.3,989.2)" />
<use xlink:href="#f6_4y" transform="matrix(12,0,0,12,228.9,989.2)" />
<use xlink:href="#f3_o" transform="matrix(12,0,0,12,242.8,989.2)" />
<use xlink:href="#f3_d" transform="matrix(12,0,0,12,252,989.2)" />
<use xlink:href="#f3_25" transform="matrix(12,0,0,12,330.1,989.2)" />
<use xlink:href="#f3_22" transform="matrix(12,0,0,12,335.2,989.2)" />
<use xlink:href="#f3_l" transform="matrix(12,0,0,12,385.2,989.2)" />
</g>
<g clip-path="url(#c7_35)">
<g fill="#000000" >
<use xlink:href="#f2_2t" transform="matrix(12,0,0,12.3,401.3,989.1)" />
</g>
</g>
<g fill="#000000" >
<use xlink:href="#f3_2k" transform="matrix(12,0,0,12,418.9,989.2)" />
<use xlink:href="#f3_w" transform="matrix(12,0,0,12,432.4,989.2)" />
<use xlink:href="#f3_m" transform="matrix(12,0,0,12,447.4,989.2)" />
<use xlink:href="#f3_x" transform="matrix(12,0,0,12,59.8,1013.4)" />
<use xlink:href="#f3_c" transform="matrix(12,0,0,12,74.8,1013.4)" />
<use xlink:href="#f3_2k" transform="matrix(12,0,0,12,81,1013.4)" />
<use xlink:href="#f6_4y" transform="matrix(12,0,0,12,94.6,1013.4)" />
<use xlink:href="#f3_l" transform="matrix(12,0,0,12,108.6,1013.4)" />
<use xlink:href="#f3_d" transform="matrix(12,0,0,12,117.4,1013.4)" />
<use xlink:href="#f3_f" transform="matrix(12,0,0,12,128.3,1013.4)" />
<use xlink:href="#f3_c" transform="matrix(12,0,0,12,143,1013.4)" />
<use xlink:href="#f3_2k" transform="matrix(12,0,0,12,149.2,1013.4)" />
<use xlink:href="#f6_4y" transform="matrix(12,0,0,12,162.9,1013.4)" />
<use xlink:href="#f3_m" transform="matrix(12,0,0,12,176.8,1013.4)" />
<use xlink:href="#f3_d" transform="matrix(12,0,0,12,186,1013.4)" />
<use xlink:href="#f6_4y" transform="matrix(12,0,0,12,196.6,1013.4)" />
<use xlink:href="#f3_c" transform="matrix(12,0,0,12,210.5,1013.4)" />
<use xlink:href="#f3_2k" transform="matrix(12,0,0,12,216.8,1013.4)" />
<use xlink:href="#f6_4y" transform="matrix(12,0,0,12,230.3,1013.4)" />
<use xlink:href="#f3_o" transform="matrix(12,0,0,12,244.3,1013.4)" />
<use xlink:href="#f3_d" transform="matrix(12,0,0,12,253.1,1013.4)" />
<use xlink:href="#f3_25" transform="matrix(12,0,0,12,330.1,1013.4)" />
<use xlink:href="#f3_22" transform="matrix(12,0,0,12,335.2,1013.4)" />
<use xlink:href="#f3_m" transform="matrix(12,0,0,12,385.2,1013.4)" />
</g>
<g clip-path="url(#c8_35)">
<g fill="#000000" >
<use xlink:href="#f2_2t" transform="matrix(12,0,0,12.3,401.3,1013.3)" />
</g>
</g>
<g fill="#000000" >
<use xlink:href="#f3_2k" transform="matrix(12,0,0,12,418.9,1013.4)" />
<use xlink:href="#f3_w" transform="matrix(12,0,0,12,432.4,1013.4)" />
<use xlink:href="#f3_o" transform="matrix(12,0,0,12,447.4,1013.4)" />
<use xlink:href="#f3_x" transform="matrix(12,0,0,12,59.8,1037.6)" />
<use xlink:href="#f3_c" transform="matrix(12,0,0,12,74.8,1037.6)" />
<use xlink:href="#f3_2k" transform="matrix(12,0,0,12,81,1037.6)" />
<use xlink:href="#f6_4y" transform="matrix(12,0,0,12,94.6,1037.6)" />
<use xlink:href="#f3_l" transform="matrix(12,0,0,12,108.6,1037.6)" />
<use xlink:href="#f3_d" transform="matrix(12,0,0,12,117.4,1037.6)" />
<use xlink:href="#f3_f" transform="matrix(12,0,0,12,128.3,1037.6)" />
<use xlink:href="#f3_c" transform="matrix(12,0,0,12,143,1037.6)" />
<use xlink:href="#f3_2k" transform="matrix(12,0,0,12,149.2,1037.6)" />
<use xlink:href="#f6_4y" transform="matrix(12,0,0,12,162.9,1037.6)" />
<use xlink:href="#f3_m" transform="matrix(12,0,0,12,176.8,1037.6)" />
<use xlink:href="#f3_d" transform="matrix(12,0,0,12,186,1037.6)" />
<use xlink:href="#f3_f" transform="matrix(12,0,0,12,196.6,1037.6)" />
<use xlink:href="#f3_c" transform="matrix(12,0,0,12,211.6,1037.6)" />
<use xlink:href="#f3_2k" transform="matrix(12,0,0,12,217.8,1037.6)" />
<use xlink:href="#f6_4y" transform="matrix(12,0,0,12,231.4,1037.6)" />
<use xlink:href="#f3_o" transform="matrix(12,0,0,12,245.4,1037.6)" />
<use xlink:href="#f3_d" transform="matrix(12,0,0,12,254.2,1037.6)" />
<use xlink:href="#f3_25" transform="matrix(12,0,0,12,330.1,1037.6)" />
<use xlink:href="#f3_22" transform="matrix(12,0,0,12,335.2,1037.6)" />
<use xlink:href="#f3_2k" transform="matrix(12,0,0,12,385.2,1037.6)" />
</g>
<g clip-path="url(#c9_35)">
<g fill="#000000" >
<use xlink:href="#f2_2t" transform="matrix(12,0,0,12.3,401.3,1037.6)" />
</g>
</g>
<g fill="#000000" >
<use xlink:href="#f3_o" transform="matrix(12,0,0,12,418.9,1037.6)" />
<use xlink:href="#f7_16e" transform="matrix(12,0,0,12,59.8,1086.4)" />
<use xlink:href="#f3_22" transform="matrix(12,0,0,12,75.2,1086.4)" />
<use xlink:href="#f3_c" transform="matrix(12,0,0,12,80.7,1086.4)" />
<use xlink:href="#f3_2k" transform="matrix(12,0,0,12,86.9,1086.4)" />
<use xlink:href="#f3_d" transform="matrix(12,0,0,12,95.7,1086.4)" />
<use xlink:href="#f3_x" transform="matrix(12,0,0,12,106.7,1086.4)" />
<use xlink:href="#f6_4y" transform="matrix(12,0,0,12,121.8,1086.4)" />
<use xlink:href="#f3_n" transform="matrix(12,0,0,12,130.9,1086.4)" />
<use xlink:href="#f3_2k" transform="matrix(12,0,0,12,140.1,1086.4)" />
<use xlink:href="#f3_f" transform="matrix(12,0,0,12,153.7,1086.4)" />
<use xlink:href="#f3_r" transform="matrix(12,0,0,12,168.7,1086.4)" />
<use xlink:href="#f3_25" transform="matrix(12,0,0,12,220.1,1086.4)" />
<use xlink:href="#f3_22" transform="matrix(12,0,0,12,225.2,1086.4)" />
<use xlink:href="#f3_2k" transform="matrix(12,0,0,12,275.1,1086.4)" />
<use xlink:href="#f3_w" transform="matrix(12,0,0,12,288.7,1086.4)" />
<use xlink:href="#f3_l" transform="matrix(12,0,0,12,303.7,1086.4)" />
<use xlink:href="#f3_x" transform="matrix(12,0,0,12,59.8,1110.9)" />
<use xlink:href="#f6_4y" transform="matrix(12,0,0,12,74.8,1110.9)" />
<use xlink:href="#f3_2k" transform="matrix(12,0,0,12,84,1110.9)" />
<use xlink:href="#f3_f" transform="matrix(12,0,0,12,97.6,1110.9)" />
<use xlink:href="#f3_p" transform="matrix(12,0,0,12,112.6,1110.9)" />
<use xlink:href="#f3_25" transform="matrix(12,0,0,12,220.1,1110.9)" />
<use xlink:href="#f3_22" transform="matrix(12,0,0,12,225.2,1110.9)" />
<use xlink:href="#f3_l" transform="matrix(12,0,0,12,275.1,1110.9)" />
</g>
<g clip-path="url(#c10_35)">
<g fill="#000000" >
<use xlink:href="#f2_2t" transform="matrix(12,0,0,12.3,291.3,1110.9)" />
</g>
</g>
<g fill="#000000" >
<use xlink:href="#f3_2k" transform="matrix(12,0,0,12,308.8,1110.9)" />
<use xlink:href="#f3_w" transform="matrix(12,0,0,12,322.4,1110.9)" />
<use xlink:href="#f3_m" transform="matrix(12,0,0,12,337.4,1110.9)" />
<use xlink:href="#f3_x" transform="matrix(12,0,0,12,59.8,1135.1)" />
<use xlink:href="#f3_2k" transform="matrix(12,0,0,12,74.8,1135.1)" />
<use xlink:href="#f3_f" transform="matrix(12,0,0,12,88.4,1135.1)" />
<use xlink:href="#f3_l" transform="matrix(12,0,0,12,103.4,1135.1)" />
<use xlink:href="#f3_25" transform="matrix(12,0,0,12,220.1,1135.1)" />
<use xlink:href="#f3_22" transform="matrix(12,0,0,12,225.2,1135.1)" />
<use xlink:href="#f3_m" transform="matrix(12,0,0,12,275.1,1135.1)" />
</g>
<g clip-path="url(#c11_35)">
<g fill="#000000" >
<use xlink:href="#f2_2t" transform="matrix(12,0,0,12.3,291.3,1135)" />
</g>
</g>
<g fill="#000000" >
<use xlink:href="#f3_2k" transform="matrix(12,0,0,12,308.8,1135.1)" />
<use xlink:href="#f3_w" transform="matrix(12,0,0,12,322.4,1135.1)" />
<use xlink:href="#f3_o" transform="matrix(12,0,0,12,337.4,1135.1)" />
<use xlink:href="#f3_x" transform="matrix(12,0,0,12,59.8,1159.4)" />
<use xlink:href="#f3_n" transform="matrix(12,0,0,12,74.8,1159.4)" />
<use xlink:href="#f3_2k" transform="matrix(12,0,0,12,84,1159.4)" />
<use xlink:href="#f6_4y" transform="matrix(12,0,0,12,97.6,1159.4)" />
<use xlink:href="#f3_r" transform="matrix(12,0,0,12,106.7,1159.4)" />
<use xlink:href="#f3_25" transform="matrix(12,0,0,12,220.1,1159.4)" />
<use xlink:href="#f3_22" transform="matrix(12,0,0,12,225.2,1159.4)" />
<use xlink:href="#f3_2k" transform="matrix(12,0,0,12,275.1,1159.4)" />
</g>
<g clip-path="url(#c12_35)">
<g fill="#000000" >
<use xlink:href="#f2_39" transform="matrix(12,0,0,12.3,291.3,1159.2)" />
</g>
</g>
<g fill="#000000" >
<use xlink:href="#f3_o" transform="matrix(12,0,0,12,308.8,1159.4)" />
</g>
<path fill-rule="evenodd" d="M37.4,38.1h.7v-.7h-.7v.7Z" class="g8_35" />
<path fill-rule="evenodd" d="M37.4,38.1h.7v-.7h-.7v.7Z" class="g8_35" />
<path fill-rule="evenodd" d="M38.1,38.1H871.5v-.7H38.1v.7Z" class="g8_35" />
<path fill-rule="evenodd" d="M871.5,38.1h.8v-.7h-.8v.7Z" class="g8_35" />
<path fill-rule="evenodd" d="M871.5,38.1h.8v-.7h-.8v.7Z" class="g8_35" />
<path fill-rule="evenodd" d="M37.4,1248.5h.7V38.1h-.7V1248.5Z" class="g8_35" />
<path fill-rule="evenodd" d="M872.3,1248.5h.7V38.1h-.7V1248.5Z" class="g8_35" />
<path fill-rule="evenodd" d="M871.5,1248.5h.8V38.1h-.8V1248.5Z" class="g8_35" />
<path fill-rule="evenodd" d="M37.4,1249.2h.7v-.7h-.7v.7Z" class="g8_35" />
<path fill-rule="evenodd" d="M37.4,1249.2h.7v-.7h-.7v.7Z" class="g8_35" />
<path fill-rule="evenodd" d="M38.1,1249.9H871.5v-.7H38.1v.7Z" class="g8_35" />
<path fill-rule="evenodd" d="M38.1,1249.2H871.5v-.7H38.1v.7Z" class="g8_35" />
<path fill-rule="evenodd" d="M872.3,1249.9h.7v-1.4h-.7v1.4Z" class="g8_35" />
<path fill-rule="evenodd" d="M871.5,1249.9H873v-.7h-1.5v.7Z" class="g8_35" />
<path fill-rule="evenodd" d="M871.5,1249.2h.8v-.7h-.8v.7Z" class="g8_35" />
<path fill-rule="evenodd" d="M871.5,1249.2h.8v-.7h-.8v.7Z" class="g8_35" />
<defs>
<path d="M489,-15c0,0,-99,0,-179,30c0,0,-80,30,-136,91c0,0,-56,61,-85,152c0,0,-30,91,-30,212c0,0,0,123,32,218c0,0,33,96,92,161c0,0,59,65,142,98c0,0,82,34,181,34c0,0,40,0,78,-7c0,0,37,-7,69,-18c0,0,31,-11,57,-25c0,0,25,-14,35,-24c0,0,10,-10,14,-17c0,0,4,-7,6,-17c0,0,2,-11,3,-25c0,0,2,-14,2,-35c0,0,0,-22,-2,-38c0,0,-1,-15,-5,-25c0,0,-4,-10,-9,-14c0,0,-5,-5,-12,-5c0,0,-11,0,-28,13c0,0,-18,13,-45,29c0,0,-27,16,-65,29c0,0,-37,13,-89,13c0,0,-58,0,-103,-23c0,0,-45,-23,-77,-67c0,0,-31,-44,-48,-106c0,0,-16,-61,-16,-139c0,0,0,-85,17,-147c0,0,18,-62,50,-103c0,0,33,-40,79,-60c0,0,45,-19,103,-19c0,0,52,0,90,12c0,0,38,12,65,27c0,0,27,15,45,27c0,0,17,12,27,12c0,0,8,0,12,-3c0,0,4,-3,7,-12c0,0,3,-9,5,-25c0,0,1,-16,1,-43c0,0,0,-18,-1,-31c0,0,-1,-14,-3,-23c0,0,-2,-9,-6,-16c0,0,-4,-7,-12,-15c0,0,-8,-9,-32,-22c0,0,-23,-14,-57,-26C661,13,627,1,583,-6c0,0,-43,-9,-94,-9Z" 
id="f0_j"
transform="scale(0.001,-0.001)" />

<path d="M440,150c0,0,41,0,68,8c0,0,28,9,49,26c0,0,20,16,32,41c0,0,11,25,11,58c0,0,0,33,-11,60c0,0,-11,26,-33,44c0,0,-21,18,-55,28c0,0,-33,9,-87,9H298V150ZM407,567c0,0,42,0,68,10c0,0,25,10,42,28c0,0,16,17,24,41c0,0,9,24,9,50c0,0,0,29,-9,52c0,0,-9,23,-27,39c0,0,-18,15,-45,23c0,0,-27,8,-72,8H298V567ZM164,0c0,0,-25,0,-42,15c0,0,-16,14,-16,47V903c0,0,0,33,16,48c0,0,17,14,42,14H406c0,0,88,0,150,-15c0,0,61,-15,103,-45c0,0,42,-30,65,-77c0,0,22,-46,22,-108c0,0,0,-36,-9,-67c0,0,-9,-31,-26,-56c0,0,-17,-25,-42,-45c0,0,-25,-19,-57,-31c0,0,41,-7,76,-26c0,0,34,-19,60,-48c0,0,26,-30,41,-69c0,0,15,-40,15,-89c0,0,0,-51,-14,-93c0,0,-15,-42,-40,-74c0,0,-25,-32,-59,-55c0,0,-35,-23,-77,-38C614,29,573,14,525,7C525,7,478,0,420,0Z" 
id="f0_i"
transform="scale(0.001,-0.001)" />

<path d="M320,-17c0,0,-50,0,-93,9c0,0,-43,8,-76,19c0,0,-32,11,-54,24C97,35,75,48,65,58c0,0,-10,9,-14,28c0,0,-4,18,-4,52c0,0,0,23,1,39c0,0,2,15,5,25c0,0,4,10,9,14c0,0,6,4,13,4c0,0,11,0,30,-12c0,0,19,-13,49,-28c0,0,30,-15,71,-27c0,0,42,-12,96,-12c0,0,36,0,64,8c0,0,29,9,49,25c0,0,19,15,30,38c0,0,10,23,10,52c0,0,0,33,-18,56c0,0,-18,24,-46,42c0,0,-29,18,-66,34c0,0,-36,16,-75,34c0,0,-39,18,-76,41c0,0,-36,23,-65,54c0,0,-29,32,-47,75c0,0,-17,44,-17,104c0,0,0,70,25,122c0,0,26,53,70,88c0,0,43,34,103,51c0,0,59,18,125,18c0,0,35,0,69,-6c0,0,34,-5,64,-14c0,0,30,-9,53,-20c0,0,23,-11,31,-18c0,0,7,-8,10,-13c0,0,3,-5,4,-14c0,0,2,-8,3,-21c0,0,1,-13,1,-33c0,0,0,-21,-1,-36c0,0,-1,-15,-4,-25c0,0,-3,-9,-7,-14c0,0,-5,-4,-14,-4c0,0,-8,0,-26,10c0,0,-18,10,-44,23c0,0,-26,12,-60,22c0,0,-34,10,-75,10c0,0,-32,0,-56,-8c0,0,-24,-8,-40,-21c0,0,-16,-14,-24,-34c0,0,-8,-19,-8,-41c0,0,0,-32,18,-56c0,0,17,-23,46,-42c0,0,30,-18,67,-34c0,0,38,-16,76,-34c0,0,39,-18,76,-41c0,0,38,-22,67,-54c0,0,29,-32,47,-75c0,0,18,-43,18,-101c0,0,0,-76,-29,-133c0,0,-28,-58,-77,-96C572,60,524,21,459,2c0,0,-65,-19,-139,-19Z" 
id="f0_2n"
transform="scale(0.001,-0.001)" />

<path d="M164,0c0,0,-25,0,-42,15c0,0,-16,14,-16,47V903c0,0,0,33,16,48c0,0,17,14,42,14H645c0,0,7,0,12,-4c0,0,5,-3,9,-13c0,0,4,-9,6,-24c0,0,2,-14,2,-36c0,0,0,-21,-2,-36c0,0,-2,-14,-6,-23c0,0,-4,-9,-9,-13c0,0,-5,-4,-12,-4H301V576H593c0,0,6,0,12,-4c0,0,6,-4,9,-13c0,0,4,-8,6,-23c0,0,2,-14,2,-35c0,0,0,-22,-2,-36c0,0,-2,-14,-6,-23c0,0,-3,-8,-9,-12c0,0,-6,-4,-12,-4H301V154H649c0,0,6,0,12,-5c0,0,5,-4,9,-13c0,0,4,-9,6,-23c0,0,2,-15,2,-36c0,0,0,-22,-2,-36c0,0,-2,-15,-6,-24c0,0,-4,-9,-9,-13c0,0,-6,-4,-12,-4Z" 
id="f0_t"
transform="scale(0.001,-0.001)" />

<path d="M79,297c0,0,-19,0,-27,18c0,0,-8,17,-8,60c0,0,0,41,8,59c0,0,8,17,27,17H389c0,0,9,0,15,-4c0,0,7,-4,11,-13c0,0,5,-9,7,-23c0,0,1,-15,1,-36c0,0,0,-43,-8,-61c0,0,-8,-17,-26,-17Z" 
id="f0_oj"
transform="scale(0.001,-0.001)" />

<path d="M121,-4c0,0,-39,0,-60,2C61,-2,39,0,32,8c0,0,-8,8,-3,24c0,0,4,15,18,41L279,495L64,892c0,0,-14,26,-19,42c0,0,-5,17,4,24c0,0,9,8,32,10c0,0,23,2,65,2c0,0,35,0,56,-2c0,0,20,-1,32,-4c0,0,12,-4,17,-10c0,0,5,-6,9,-15L431,620L595,939c0,0,5,9,10,15c0,0,5,6,16,10c0,0,10,3,29,4c0,0,19,2,53,2c0,0,37,0,59,-2c0,0,22,-2,30,-10c0,0,8,-8,4,-24c0,0,-4,-16,-17,-42L564,497L793,73c0,0,14,-26,18,-41c0,0,4,-16,-5,-24c0,0,-9,-8,-32,-10c0,0,-24,-2,-65,-2c0,0,-36,0,-56,2c0,0,-20,1,-31,3c0,0,-12,4,-17,10c0,0,-5,6,-9,15L414,374L233,26c0,0,-4,-9,-9,-15c0,0,-6,-6,-17,-10c0,0,-12,-2,-32,-3c0,0,-21,-2,-54,-2Z" 
id="f0_3e"
transform="scale(0.001,-0.001)" />

<path d="M204,-4c0,0,-28,0,-47,2c0,0,-19,2,-31,5c0,0,-11,4,-16,10c0,0,-4,6,-4,13V939c0,0,0,7,4,13c0,0,5,6,17,10c0,0,11,3,30,6c0,0,19,2,47,2c0,0,29,0,48,-2c0,0,18,-3,29,-6c0,0,11,-4,16,-10c0,0,5,-6,5,-13V26c0,0,0,-7,-5,-13c0,0,-5,-6,-16,-10c0,0,-11,-3,-29,-5c0,0,-19,-2,-48,-2Z" 
id="f0_1c"
transform="scale(0.001,-0.001)" />

<path d="M127,0c0,0,-16,0,-28,3C99,3,87,6,80,15c0,0,-8,8,-11,25c0,0,-3,16,-3,42c0,0,0,25,2,42c0,0,2,18,8,32c0,0,6,14,15,27c0,0,9,13,24,29L282,390c0,0,50,53,81,95c0,0,30,43,47,79c0,0,17,35,24,65c0,0,6,30,6,57c0,0,0,24,-8,46c0,0,-8,22,-23,39c0,0,-15,16,-38,25c0,0,-23,10,-55,10c0,0,-44,0,-78,-12c0,0,-33,-11,-59,-25c0,0,-26,-13,-43,-25c0,0,-17,-12,-27,-12c0,0,-7,0,-11,5c0,0,-5,4,-8,15c0,0,-3,10,-5,28c0,0,-2,17,-2,42c0,0,0,18,1,29c0,0,1,12,4,20c0,0,2,9,6,15c0,0,3,6,13,15c0,0,9,9,34,23c0,0,25,14,61,27c0,0,37,14,81,23c0,0,44,9,92,9c0,0,75,0,131,-19c0,0,57,-19,94,-53c0,0,37,-34,55,-81c0,0,19,-47,19,-100c0,0,0,-47,-9,-93c0,0,-9,-45,-37,-98c0,0,-29,-52,-80,-116c0,0,-52,-64,-136,-148L299,159H679c0,0,8,0,14,-4c0,0,6,-5,11,-14c0,0,4,-9,7,-25c0,0,2,-15,2,-36c0,0,0,-22,-2,-37c0,0,-2,-15,-6,-25c0,0,-3,-10,-9,-14c0,0,-6,-4,-14,-4Z" 
id="f0_rz"
transform="scale(0.001,-0.001)" />

<path d="M385,138c0,0,29,0,52,9c0,0,22,10,39,28c0,0,17,19,28,47c0,0,11,29,19,66c0,0,7,37,9,84c0,0,3,47,3,104c0,0,0,69,-4,122c0,0,-4,52,-11,91c0,0,-8,39,-20,66c0,0,-12,27,-28,43c0,0,-16,16,-37,22c0,0,-21,7,-47,7c0,0,-44,0,-73,-21c0,0,-28,-21,-45,-64c0,0,-17,-42,-24,-106c0,0,-6,-63,-6,-148c0,0,0,-103,8,-171c0,0,8,-67,26,-107c0,0,17,-40,45,-56c0,0,27,-16,66,-16ZM378,-17c0,0,-99,0,-164,33c0,0,-65,34,-103,98c0,0,-38,64,-54,156c0,0,-15,92,-15,209c0,0,0,115,19,208c0,0,19,94,61,160c0,0,42,65,110,101c0,0,68,35,165,35c0,0,99,0,164,-34c0,0,65,-34,103,-98c0,0,39,-64,53,-156c0,0,15,-92,15,-209c0,0,0,-115,-18,-209c0,0,-19,-93,-61,-159C653,118,611,53,543,17c0,0,-67,-34,-165,-34Z" 
id="f0_rx"
transform="scale(0.001,-0.001)" />

<path d="M142,0c0,0,-6,0,-12,4c0,0,-5,3,-9,12c0,0,-4,9,-6,23c0,0,-3,15,-3,36c0,0,0,21,2,36c0,0,2,14,6,23c0,0,4,9,10,13c0,0,5,5,12,5H322V779L166,693c0,0,-17,-8,-28,-10c0,0,-1,0,-3,0c-4,0,-10,1,-14,5c0,0,-6,6,-8,22c0,0,-2,15,-2,44c0,0,0,18,0,29c0,0,1,12,4,20c0,0,3,8,8,14c0,0,5,5,14,11L345,962c0,0,4,3,9,5c0,0,6,2,15,3c0,0,9,1,23,2c0,0,15,0,38,0c0,0,28,0,46,-1c0,0,17,-1,26,-4c0,0,9,-3,12,-7c0,0,3,-4,3,-11V152H675c0,0,7,0,12,-5c0,0,6,-4,10,-13c0,0,4,-9,6,-23c0,0,2,-15,2,-36c0,0,0,-21,-2,-36c0,0,-3,-14,-7,-23c0,0,-4,-9,-9,-12c0,0,-5,-4,-12,-4Z" 
id="f0_ry"
transform="scale(0.001,-0.001)" />

<path d="M259,-4c0,0,-39,0,-62,3c0,0,-23,1,-34,7c0,0,-11,6,-12,14c0,0,-1,9,5,21L498,796H92c0,0,-16,0,-24,20c0,0,-7,21,-7,65c0,0,0,22,2,38c0,0,2,16,6,27c0,0,4,10,10,15c0,0,6,4,13,4H666c0,0,13,0,22,-3c0,0,9,-2,14,-11c0,0,6,-9,8,-25c0,0,3,-17,3,-43c0,0,0,-22,-2,-38c0,0,-1,-16,-4,-30c0,0,-2,-13,-7,-26c0,0,-4,-12,-10,-26L372,26c0,0,-5,-10,-12,-16c0,0,-7,-6,-20,-9c0,0,-12,-3,-32,-4c0,0,-20,-1,-49,-1Z" 
id="f0_s4"
transform="scale(0.001,-0.001)" />

<path d="M589,371L453,782h-1L317,371ZM106,-4c0,0,-35,0,-54,2C52,-2,32,0,25,8c0,0,-7,9,-5,24c0,0,2,16,11,42L329,931c0,0,4,13,10,21c0,0,6,7,19,12c0,0,13,4,36,5c0,0,23,1,61,1c0,0,44,0,71,-1c0,0,26,-1,40,-5c0,0,15,-5,21,-13c0,0,6,-8,11,-22L896,73c0,0,9,-27,11,-43c0,0,3,-15,-6,-23c0,0,-8,-7,-29,-9c0,0,-21,-2,-57,-2c0,0,-38,0,-59,1c0,0,-22,1,-33,4c0,0,-11,3,-16,9c0,0,-4,6,-7,16L635,220H272L211,31c0,0,-2,-11,-7,-18c0,0,-5,-7,-16,-11c0,0,-11,-3,-31,-4c0,0,-19,-2,-51,-2Z" 
id="f0_5"
transform="scale(0.001,-0.001)" />

<path d="M198,-4c0,0,-27,0,-45,2c0,0,-18,2,-28,5c0,0,-11,4,-15,10c0,0,-4,6,-4,13V887c0,0,0,38,20,58c0,0,20,20,53,20H308c0,0,34,0,59,-6c0,0,24,-5,42,-18c0,0,18,-13,30,-35c0,0,12,-21,21,-52L669,279h3L889,852c0,0,9,32,21,53c0,0,11,22,27,35c0,0,15,14,36,19c0,0,21,6,48,6h132c0,0,21,0,35,-5c0,0,15,-5,24,-15c0,0,9,-11,14,-25c0,0,5,-15,5,-33V26c0,0,0,-7,-4,-13c0,0,-4,-6,-15,-10c0,0,-11,-3,-29,-5c0,0,-18,-2,-45,-2c0,0,-27,0,-45,2c0,0,-18,2,-28,5c0,0,-11,4,-15,10c0,0,-5,6,-5,13V813h-1L764,27c0,0,-3,-10,-10,-16c0,0,-6,-6,-18,-10c0,0,-12,-3,-29,-4c0,0,-18,-1,-44,-1c0,0,-25,0,-43,2c0,0,-18,2,-29,5c0,0,-12,4,-19,10c0,0,-6,6,-9,14L293,813h-2V26c0,0,0,-7,-4,-13c0,0,-4,-6,-15,-10c0,0,-11,-3,-29,-5c0,0,-17,-2,-45,-2Z" 
id="f0_1x"
transform="scale(0.001,-0.001)" />

<path d="M193,-4c0,0,-26,0,-43,2c0,0,-18,2,-27,6c0,0,-10,4,-14,10c0,0,-3,6,-3,13V895c0,0,0,35,20,53c0,0,21,17,50,17H282c0,0,28,0,47,-5c0,0,20,-5,35,-16c0,0,15,-11,29,-31c0,0,13,-20,27,-49L608,511c0,0,17,-32,33,-63c0,0,16,-31,31,-62c0,0,14,-31,29,-60c0,0,14,-30,27,-60h1c0,0,-2,52,-3,109c0,0,-1,57,-1,108V936c0,0,0,7,4,13c0,0,5,6,15,11c0,0,10,4,28,6c0,0,17,2,44,2c0,0,25,0,42,-2c0,0,17,-2,27,-6c0,0,9,-5,13,-11c0,0,4,-6,4,-13V68c0,0,0,-17,-6,-30c0,0,-6,-14,-17,-23C879,15,869,6,856,2c0,0,-14,-3,-28,-3H744c0,0,-26,0,-45,4c0,0,-19,5,-35,19c0,0,-16,14,-31,38c0,0,-15,23,-34,60L359,572c0,0,-21,40,-43,86c0,0,-21,47,-38,91h-2c0,0,3,-54,5,-107c0,0,2,-53,2,-110V27c0,0,0,-7,-5,-13c0,0,-4,-6,-14,-10c0,0,-10,-4,-27,-6c0,0,-17,-2,-44,-2Z" 
id="f0_1y"
transform="scale(0.001,-0.001)" />

<path d="M378,-4c0,0,-28,0,-47,2c0,0,-19,2,-31,5c0,0,-11,4,-16,10c0,0,-4,6,-4,13V805H38c0,0,-8,0,-13,4c0,0,-5,5,-9,14c0,0,-3,9,-5,25c0,0,-2,15,-2,37c0,0,0,22,2,38c0,0,2,15,5,25c0,0,4,9,9,13c0,0,5,4,13,4H718c0,0,7,0,12,-4c0,0,6,-4,10,-13c0,0,3,-10,5,-25c0,0,2,-16,2,-38c0,0,0,-22,-2,-37c0,0,-2,-16,-5,-25c0,0,-4,-9,-10,-14c0,0,-5,-4,-12,-4H476V26c0,0,0,-7,-5,-13c0,0,-5,-6,-16,-10c0,0,-11,-3,-30,-5c0,0,-19,-2,-47,-2Z" 
id="f0_2t"
transform="scale(0.001,-0.001)" />

<path d="M514,145c0,0,72,0,121,27c0,0,48,26,78,73c0,0,30,46,42,107c0,0,13,62,13,131c0,0,0,76,-12,139c0,0,-12,62,-41,106c0,0,-29,45,-76,69c0,0,-48,24,-120,24c0,0,-72,0,-120,-27c0,0,-49,-27,-79,-73c0,0,-29,-45,-42,-106c0,0,-12,-61,-12,-129c0,0,0,-79,12,-142c0,0,12,-63,40,-108c0,0,28,-44,76,-68c0,0,48,-23,120,-23ZM508,-17c0,0,-113,0,-196,29c0,0,-84,29,-140,90c0,0,-56,60,-84,154c0,0,-28,93,-28,221c0,0,0,117,29,210c0,0,30,94,89,160c0,0,59,65,146,101c0,0,87,35,202,35c0,0,110,0,194,-29c0,0,84,-30,140,-90c0,0,56,-60,85,-153c0,0,29,-92,29,-217c0,0,0,-120,-30,-215c0,0,-30,-95,-89,-161C855,118,796,52,709,17c0,0,-87,-34,-201,-34Z" 
id="f0_24"
transform="scale(0.001,-0.001)" />

<path d="M299,0V777H162l36,173H508V0Z" 
id="f1_l"
transform="scale(0.001,-0.001)" />

<path d="M403,172c0,0,80,0,127,81c0,0,48,80,48,218c0,0,0,145,-47,227c0,0,-46,83,-125,83c0,0,-82,0,-129,-83c0,0,-47,-82,-47,-230c0,0,0,-135,48,-215c0,0,48,-81,125,-81Zm3,-182c0,0,-167,0,-272,130C134,120,30,251,30,464c0,0,0,227,102,364c0,0,102,137,268,137h6c0,0,170,0,271,-130c0,0,100,-130,100,-347c0,0,0,-253,-112,-376C665,112,553,-10,406,-10Z" 
id="f1_k"
transform="scale(0.001,-0.001)" />

<path d="M44,-281L425,1053H537L156,-281Z" 
id="f1_j"
transform="scale(0.001,-0.001)" />

<path d="M75,0L400,413c0,0,71,91,101,149c0,0,30,58,30,109c0,0,0,55,-36,91c0,0,-36,36,-91,36c0,0,-63,0,-91,-45c0,0,-28,-46,-34,-142H67c0,0,0,173,102,268c0,0,102,95,253,95c0,0,140,0,229,-82c0,0,89,-82,89,-209c0,0,0,-125,-104,-276L580,324c0,0,-34,-50,-85,-114L468,178H740V0Z" 
id="f1_m"
transform="scale(0.001,-0.001)" />

<path d="M417,-328c0,0,-125,17,-203,101c0,0,-78,83,-78,189c0,0,0,49,17,120c0,0,17,72,17,108c0,0,0,55,-42,100c0,0,-42,45,-128,61v29c0,0,80,15,125,59c0,0,44,45,44,98c0,0,0,39,-17,110c0,0,-18,71,-18,122c0,0,0,105,79,191c0,0,79,85,203,100v-28c0,0,-85,-15,-129,-65c0,0,-45,-49,-45,-114c0,0,0,-45,15,-117c0,0,15,-72,15,-120c0,0,0,-74,-53,-142c0,0,-53,-68,-158,-106c0,0,107,-44,160,-111c0,0,52,-67,52,-141c0,0,0,-45,-15,-117c0,0,-15,-73,-15,-117c0,0,0,-64,43,-113c0,0,42,-49,131,-71v-26Z" 
id="f2_2n"
transform="scale(0.001,-0.001)" />

<path d="M160,-328v29c0,0,85,15,129,64c0,0,44,48,44,114c0,0,0,45,-14,117c0,0,-15,71,-15,120c0,0,0,73,53,142c0,0,53,68,158,106c0,0,-108,43,-160,110c0,0,-52,67,-52,141c0,0,0,45,15,118c0,0,14,73,14,117c0,0,0,64,-42,113c0,0,-42,49,-131,71v26c0,0,125,-17,203,-101c0,0,78,-84,78,-188c0,0,0,-50,-17,-122c0,0,-17,-72,-17,-109c0,0,0,-54,42,-99c0,0,41,-45,128,-61V351c0,0,-81,-14,-125,-59c0,0,-44,-45,-44,-97c0,0,0,-39,17,-111c0,0,18,-71,18,-121c0,0,0,-105,-79,-190c0,0,-79,-86,-203,-101Z" 
id="f2_2p"
transform="scale(0.001,-0.001)" />

<path d="M377,45c0,0,99,0,145,108c0,0,46,109,46,352c0,0,0,240,-45,345c0,0,-46,106,-146,106c0,0,-97,0,-139,-100c0,0,-43,-99,-43,-351c0,0,0,-254,44,-357c0,0,43,-103,138,-103Zm0,-59c0,0,-158,0,-238,132c0,0,-81,133,-81,386c0,0,0,249,81,380c0,0,80,132,244,132c0,0,159,0,241,-130c0,0,82,-130,82,-382c0,0,0,-518,-329,-518Z" 
id="f3_k"
transform="scale(0.001,-0.001)" />

<path d="M0,-14L351,1007h73L75,-14Z" 
id="f3_j"
transform="scale(0.001,-0.001)" />

<path d="M67,0V109L206,235c0,0,133,118,196,190c0,0,63,72,90,149c0,0,27,77,27,177c0,0,0,97,-44,148c0,0,-44,50,-144,50c0,0,-39,0,-81,-10c0,0,-42,-11,-74,-29L150,787H101V980c0,0,135,32,230,32c0,0,164,0,247,-68c0,0,82,-69,82,-193c0,0,0,-84,-32,-158c0,0,-33,-75,-100,-148c0,0,-67,-74,-222,-206c0,0,-67,-57,-141,-125H680V0Z" 
id="f3_m"
transform="scale(0.001,-0.001)" />

<path d="M249,-14c0,0,-71,0,-107,42c0,0,-35,42,-35,119V639H15v33l93,29l76,159h47V701H391V639H231V161c0,0,0,-48,22,-73c0,0,22,-24,57,-24c0,0,44,0,106,12V26C416,26,389,8,340,-2c0,0,-49,-12,-91,-12Z" 
id="f3_2g"
transform="scale(0.001,-0.001)" />

<path d="M284,67c0,0,51,0,88,12c0,0,37,12,74,30V358l-98,-3c0,0,-100,-4,-135,-39c0,0,-35,-35,-35,-117c0,0,0,-132,106,-132ZM233,-14c0,0,-179,0,-179,208c0,0,0,70,27,116c0,0,27,46,87,70c0,0,60,24,173,27l105,3V519c0,0,0,72,-26,107c0,0,-27,34,-82,34c0,0,-75,0,-137,-35L176,538H134V691c0,0,121,26,213,26c0,0,115,0,169,-47c0,0,54,-47,54,-144V52L657,33V0H465L451,70c0,0,-85,-84,-218,-84Z" 
id="f3_1x"
transform="scale(0.001,-0.001)" />

<path d="M439,0V33l93,19V500c0,0,0,62,-30,97c0,0,-31,36,-94,36c0,0,-67,0,-165,-22V52L338,33V0H35V33l84,19V649L35,668v33H235l7,-57c0,0,57,33,122,54c0,0,65,22,108,22c0,0,91,0,137,-53c0,0,47,-53,47,-154V52L741,33V0Z" 
id="f3_2a"
transform="scale(0.001,-0.001)" />

<path d="M278,-14c0,0,-52,0,-115,11c0,0,-63,10,-99,23V193H98L134,95c0,0,56,-50,146,-50c0,0,144,0,144,123c0,0,0,91,-114,130l-66,21c0,0,-75,25,-110,50c0,0,-34,26,-53,63c0,0,-18,36,-18,89c0,0,0,92,63,145c0,0,63,54,170,54c0,0,77,0,193,-23V544H454l-32,81c0,0,-39,35,-124,35c0,0,-61,0,-92,-30c0,0,-32,-30,-32,-80c0,0,0,-43,29,-72c0,0,28,-29,86,-48c0,0,110,-38,144,-55c0,0,33,-17,57,-42c0,0,23,-25,36,-57c0,0,13,-32,13,-79c0,0,0,-104,-66,-158c0,0,-66,-53,-195,-53Z" 
id="f3_2f"
transform="scale(0.001,-0.001)" />

<path d="M495,413c0,0,0,133,-34,190c0,0,-34,57,-105,57c0,0,-78,0,-119,-63c0,0,-42,-62,-42,-184ZM374,-14c0,0,-163,0,-239,87c0,0,-75,88,-75,283c0,0,0,183,77,273c0,0,76,91,219,91c0,0,269,0,269,-306V353H194V340c0,0,0,-103,23,-160c0,0,22,-57,70,-87c0,0,47,-29,124,-29c0,0,40,0,96,6c0,0,55,7,91,15V43C598,43,562,20,500,3c0,0,-61,-17,-126,-17Z" 
id="f3_21"
transform="scale(0.001,-0.001)" />

<path d="M399,-14c0,0,-341,0,-341,370c0,0,0,175,87,269c0,0,87,95,249,95c0,0,101,0,220,-23V501H573L541,625c0,0,-62,35,-149,35c0,0,-200,0,-200,-304c0,0,0,-158,61,-225c0,0,61,-67,189,-67c0,0,109,0,189,24V43C631,43,595,16,530,1c0,0,-64,-15,-131,-15Z" 
id="f3_1z"
transform="scale(0.001,-0.001)" />

<path d="M460,-325c0,0,-148,79,-231,172c0,0,-84,93,-123,217c0,0,-39,126,-39,304c0,0,0,178,39,303c0,0,39,125,122,217c0,0,82,93,232,172V997c0,0,-91,-52,-145,-134c0,0,-54,-81,-79,-190c0,0,-25,-109,-25,-305c0,0,0,-194,26,-309c0,0,26,-114,82,-193c0,0,56,-79,141,-128v-63Z" 
id="f3_c"
transform="scale(0.001,-0.001)" />

<path d="M49,-325v63c0,0,85,49,140,128c0,0,56,79,83,194c0,0,26,115,26,308c0,0,0,196,-25,305c0,0,-25,109,-79,190c0,0,-54,82,-145,134v63c0,0,149,-80,232,-172c0,0,83,-92,122,-217c0,0,39,-125,39,-303c0,0,0,-177,-39,-303c0,0,-39,-125,-122,-217c0,0,-83,-93,-232,-173Z" 
id="f3_d"
transform="scale(0.001,-0.001)" />

<path d="M327,-14L84,649L1,668v33H335V668L219,648L385,174L554,632h63L786,171L944,649L830,668v33h267V668l-78,-16L784,-14H726L553,448L382,-14Z" 
id="f3_2j"
transform="scale(0.001,-0.001)" />

<path d="M442,0V33l93,19V504c0,0,0,129,-124,129c0,0,-70,0,-168,-22V52L338,33V0H31V33l88,19v956L15,1026v34H243V756c0,0,0,-77,-5,-112c0,0,54,31,122,53c0,0,68,23,115,23c0,0,91,0,137,-53c0,0,47,-53,47,-154V52L744,33V0Z" 
id="f3_24"
transform="scale(0.001,-0.001)" />

<path d="M360,-14L72,649L0,668v33H327V668L216,648L420,164L615,649L504,668v33H764V668L697,652L416,-14Z" 
id="f3_2i"
transform="scale(0.001,-0.001)" />

<path d="M31,0V33l88,19V649L31,668v33H235l7,-87c0,0,44,37,121,71c0,0,76,35,121,35h11V530H463l-43,82c0,0,-37,0,-88,-10c0,0,-52,-10,-89,-26V52L363,33V0Z" 
id="f3_2e"
transform="scale(0.001,-0.001)" />

<path d="M301,78c0,0,85,0,185,104l81,442c0,0,-29,20,-55,28c0,0,-25,8,-62,8c0,0,-75,0,-137,-56c0,0,-62,-56,-98,-152c0,0,-36,-95,-36,-199c0,0,0,-79,33,-127c0,0,33,-48,89,-48ZM245,-14c0,0,-90,0,-145,66c0,0,-54,66,-54,182c0,0,0,131,57,244c0,0,57,114,152,178c0,0,96,64,208,64c0,0,90,0,170,-33l33,26h40L589,52L673,33L667,0H454l22,117C476,117,350,-14,245,-14Z" 
id="f4_1x"
transform="scale(0.001,-0.001)" />

<path d="M-6,0c0,0,-12,10,-12,32c0,0,0,21,23,51c0,0,23,31,79,82L287,354L159,649L79,668l6,33H270L378,434l93,88c0,0,47,46,67,72c0,0,19,26,19,44c0,0,0,8,-6,13c0,0,-7,6,-38,17l6,33H651c0,0,16,-12,16,-32c0,0,0,-44,-103,-142L404,377L548,49L634,33L628,0H437L313,298L185,176c0,0,-41,-40,-60,-65c0,0,-19,-26,-19,-48c0,0,0,-21,31,-29L131,0Z" 
id="f4_2k"
transform="scale(0.001,-0.001)" />

<path d="M-5,0L0,40L131,60L286,941L162,960l6,40H568l-6,-40L430,941L275,60L399,40L393,0Z" 
id="f4_19"
transform="scale(0.001,-0.001)" />

<path d="M301,78c0,0,41,0,90,27c0,0,49,28,95,77l81,442c0,0,-26,18,-54,27c0,0,-27,10,-67,10c0,0,-70,0,-131,-55c0,0,-61,-55,-99,-152c0,0,-37,-97,-37,-201c0,0,0,-79,33,-127c0,0,33,-48,89,-48ZM245,-14c0,0,-91,0,-145,68c0,0,-54,69,-54,183c0,0,0,128,55,240c0,0,55,112,150,177c0,0,96,66,210,66c0,0,70,0,123,-18c0,0,3,36,51,306l-115,18l6,34H768L589,52L673,33L667,0H454l22,117C476,117,350,-14,245,-14Z" 
id="f4_20"
transform="scale(0.001,-0.001)" />

<path d="M17,-325L185,639H64l6,36l127,29l9,49c0,0,30,167,100,245c0,0,71,78,191,78c0,0,57,0,104,-15L574,915H538l-14,85c0,0,-22,16,-63,16c0,0,-45,0,-72,-39c0,0,-26,-39,-48,-160L319,701H475L465,639H309L141,-325Z" 
id="f4_22"
transform="scale(0.001,-0.001)" />

<path d="M140,-21c0,0,-26,0,-44,17C96,-4,79,13,79,40c0,0,0,19,6,33c0,0,8,20,34,55c0,0,46,60,64,126c0,0,32,114,41,321H190c0,0,-55,0,-81,-18c0,0,-44,-26,-80,-89H0c0,0,42,129,98,178c0,0,43,37,120,37H743V575H562c0,0,-27,-171,-27,-327c0,0,0,-77,27,-110c0,0,27,-33,67,-33c0,0,33,0,56,22c0,0,24,22,31,65h27C743,192,730,74,686,26c0,0,-44,-47,-98,-47c0,0,-58,0,-97,51c0,0,-39,53,-39,198c0,0,0,91,28,347H286c0,0,-23,-390,-56,-494c0,0,-33,-102,-90,-102Z" 
id="f2_2c"
transform="scale(0.001,-0.001)" />

<path d="M0,214v74H784V214ZM0,494v72H784V494Z" 
id="f2_x"
transform="scale(0.001,-0.001)" />

<path d="M355,0V355H0v72H355V784h72V427H782V355H427V0Z" 
id="f2_f"
transform="scale(0.001,-0.001)" />

<path d="M945,-20c0,0,47,75,125,153H57v74H1147l108,91c0,0,23,19,95,72c0,0,-134,103,-203,166H57v72H1070c0,0,-78,78,-125,154h85c0,0,88,-107,217,-217c0,0,130,-110,206,-154V349c0,0,-101,-58,-219,-162c0,0,-118,-103,-204,-207Z" 
id="f2_4g"
transform="scale(0.001,-0.001)" />

<path d="M0,356v74H784V356Z" 
id="f2_h"
transform="scale(0.001,-0.001)" />

<path d="M88,-163c0,0,-39,0,-63,25c0,0,-25,26,-25,65c0,0,0,34,19,54c0,0,19,19,48,19c0,0,30,0,51,-23c0,0,22,-24,37,-24c0,0,12,0,21,11c0,0,8,10,8,35c0,0,0,30,-7,88c0,0,-27,235,-27,620c0,0,13,411,17,446c0,0,17,139,60,188c0,0,43,48,98,48c0,0,37,0,65,-25c0,0,28,-25,28,-54c0,0,0,-35,-19,-57c0,0,-20,-21,-49,-21c0,0,-26,0,-57,27c0,0,-17,15,-30,15c0,0,-12,0,-21,-11c0,0,-8,-11,-8,-37c0,0,0,-31,6,-108c0,0,28,-306,28,-496c0,0,0,-50,-12,-439c0,0,-6,-219,-67,-296c0,0,-41,-50,-101,-50Z" 
id="f2_50"
transform="scale(0.001,-0.001)" />

<path d="M134,0V40L339,60V876L137,804v39l292,166h39V60L672,40V0Z" 
id="f3_l"
transform="scale(0.001,-0.001)" />

<path d="M0,-302V1034H328V970H119V-238H328v-64Z" 
id="f2_1r"
transform="scale(0.001,-0.001)" />

<path d="M56,-302v64H265V970H56v64H384V-302Z" 
id="f2_1t"
transform="scale(0.001,-0.001)" />

<path d="M412,-328c0,0,-195,96,-303,284C109,-44,0,142,0,365c0,0,0,232,114,422c0,0,114,191,298,273v-31c0,0,-92,-51,-151,-139c0,0,-59,-88,-88,-223c0,0,-29,-136,-29,-282c0,0,0,-167,27,-301c0,0,26,-133,82,-221c0,0,55,-89,159,-159v-32Z" 
id="f2_c"
transform="scale(0.001,-0.001)" />

<path d="M34,-328v32c0,0,92,50,151,138c0,0,59,88,88,222c0,0,29,135,29,283c0,0,0,165,-27,300c0,0,-26,134,-82,222c0,0,-56,89,-159,160v31c0,0,194,-96,303,-284c0,0,108,-187,108,-410c0,0,0,-232,-114,-422c0,0,-114,-191,-297,-272Z" 
id="f2_d"
transform="scale(0.001,-0.001)" />

<path d="M31,0V33L150,52v956L31,1026v34H274V52L394,33V0Z" 
id="f3_28"
transform="scale(0.001,-0.001)" />

<path d="M32,0V33L151,52V649L52,668v33H275V52L395,33V0ZM201,850c0,0,-32,0,-56,24c0,0,-24,24,-24,56c0,0,0,34,24,58c0,0,24,24,56,24c0,0,34,0,58,-24c0,0,24,-24,24,-58c0,0,0,-32,-24,-56c0,0,-24,-24,-58,-24Z" 
id="f3_25"
transform="scale(0.001,-0.001)" />

<path d="M431,0V33L535,52V499c0,0,0,62,-32,96c0,0,-32,33,-95,33c0,0,-66,0,-163,-22V52L350,33V0H32V33l89,19V649L32,668v33H237l6,-57c0,0,56,32,119,54c0,0,62,22,110,22c0,0,52,0,95,-20c0,0,44,-19,66,-62c0,0,57,32,134,57c0,0,77,25,128,25c0,0,179,0,179,-207V52l90,-19V0H846V33L950,52V499c0,0,0,129,-119,129c0,0,-19,0,-45,-3c0,0,-26,-3,-52,-7c0,0,-25,-4,-49,-8c0,0,-23,-5,-39,-8c0,0,13,-41,13,-89V52L764,33V0Z" 
id="f3_29"
transform="scale(0.001,-0.001)" />

<path d="M968,-20c0,0,42,100,87,170c0,0,45,70,144,184H56v73H1199c0,0,-106,122,-148,189c0,0,-43,67,-83,166h60c0,0,87,-108,217,-218c0,0,130,-110,206,-154V349c0,0,-99,-56,-217,-159c0,0,-117,-102,-206,-210Z" 
id="f2_34"
transform="scale(0.001,-0.001)" />

<path d="M0,-123V1415H525v-72H72V-123Z" 
id="f2_4r"
transform="scale(0.001,-0.001)" />

<path d="M478,-123V1343H26v72H550V-123Z" 
id="f2_57"
transform="scale(0.001,-0.001)" />

<path d="M0,-123V1415H72V-123Z" 
id="f2_4s"
transform="scale(0.001,-0.001)" />

<path d="M0,-123V1415H72V-123Z" 
id="f2_58"
transform="scale(0.001,-0.001)" />

<path d="M325,29c0,0,40,0,83,37c0,0,43,36,65,122c0,0,35,128,35,366c0,0,0,169,-36,285c0,0,-27,84,-69,120c0,0,-31,25,-74,25c0,0,-51,0,-90,-46c0,0,-53,-62,-73,-193c0,0,-19,-132,-19,-249c0,0,0,-280,70,-397c0,0,44,-70,108,-70Zm-3,-49c0,0,-144,0,-241,171C81,151,0,296,0,498c0,0,0,117,28,224c0,0,27,107,85,185c0,0,44,60,102,93c0,0,57,33,114,33c0,0,117,0,210,-119c0,0,115,-148,115,-400c0,0,0,-176,-50,-300C604,214,553,91,474,35c0,0,-79,-55,-152,-55Z" 
id="f2_k"
transform="scale(0.001,-0.001)" />

<path d="M0,-123V1415H72V-51H525v-72Z" 
id="f2_4t"
transform="scale(0.001,-0.001)" />

<path d="M26,-123v72H478V1415h72V-123Z" 
id="f2_59"
transform="scale(0.001,-0.001)" />

<path d="M377,45c0,0,99,0,147,73c0,0,47,73,47,237c0,0,0,161,-47,233c0,0,-47,72,-147,72c0,0,-97,0,-141,-69c0,0,-44,-69,-44,-236c0,0,0,-169,45,-240c0,0,44,-70,140,-70Zm0,-59c0,0,-158,0,-238,94c0,0,-81,95,-81,274c0,0,0,178,81,272c0,0,80,94,244,94c0,0,160,0,241,-92c0,0,82,-92,82,-274c0,0,0,-368,-329,-368Z" 
id="f3_2b"
transform="scale(0.001,-0.001)" />

<path d="M595,60c0,0,141,0,206,102c0,0,65,102,65,340c0,0,0,236,-65,335c0,0,-65,100,-206,100c0,0,-142,0,-207,-100c0,0,-66,-99,-66,-335c0,0,0,-239,66,-340c0,0,65,-102,207,-102Zm0,-74c0,0,-253,0,-387,130C208,116,75,246,75,501c0,0,0,510,520,510c0,0,256,0,387,-129c0,0,132,-130,132,-381c0,0,0,-254,-133,-385C981,116,848,-14,595,-14Z" 
id="f5_1f"
transform="scale(0.001,-0.001)" />

<path d="M498,506c0,0,115,0,164,47c0,0,48,48,48,166c0,0,0,112,-46,156c0,0,-46,43,-169,43H390V506ZM793,0L514,423H390V74L518,54V0H36V54L154,74V926L26,945v55H504c0,0,221,0,330,-68c0,0,109,-68,109,-212c0,0,0,-215,-201,-276L1009,74L1117,54V0Z" 
id="f5_1i"
transform="scale(0.001,-0.001)" />

<path d="M44,0V40L172,60V941L44,960v40H471V960L316,941V65H513c0,0,159,0,234,14l46,208h48L828,0Z" 
id="f3_1c"
transform="scale(0.001,-0.001)" />

<path d="M64,0V34L168,59V639H47v36l121,29v49c0,0,0,155,61,239c0,0,62,84,173,84c0,0,58,0,107,-15V908H472l-33,92c0,0,-26,16,-62,16c0,0,-47,0,-66,-42c0,0,-19,-42,-19,-157V701H478V639H292V59L443,34V0Z" 
id="f3_22"
transform="scale(0.001,-0.001)" />

<path d="M13,0V34L95,46L325,350L122,649L40,668v33H357V668L264,648L399,446L554,649l-96,19v33H710V668L630,652L433,397L663,50L745,34V0H427V34l94,17L359,299L169,50L266,34V0Z" 
id="f3_2k"
transform="scale(0.001,-0.001)" />

<path d="M76,316v76H787V316Zm0,306v76H787V622Z" 
id="f3_x"
transform="scale(0.001,-0.001)" />

<path d="M115,-329V1060h76V-329Z" 
id="f3_2o"
transform="scale(0.001,-0.001)" />

<path d="M-12,338v55H777V338Z" 
id="f6_4y"
transform="scale(0.001,-0.001)" />

<path d="M392,152V469H76v77H392V863h77V546H787V469H469V152Z" 
id="f3_f"
transform="scale(0.001,-0.001)" />

<path d="M476,327V830h-4L114,327ZM476,0V220H30v99l488,686h86V327H740V220H604V0Z" 
id="f3_o"
transform="scale(0.001,-0.001)" />

<path d="M420,-22L89,941L1,960v40H383V960L236,941L474,236L744,930h33L1037,236l227,705l-156,19v40h331V960l-87,-19L1025,-22H985L726,666L460,-22Z" 
id="f3_1n"
transform="scale(0.001,-0.001)" />

<path d="M382,45c0,0,188,0,188,314c0,0,0,143,-47,213c0,0,-46,69,-141,69c0,0,-87,0,-146,-24V58c0,0,67,-13,146,-13ZM25,-325v35l88,18V649L34,668v33H231l1,-41c0,0,31,27,84,43c0,0,53,17,107,17c0,0,134,0,208,-94c0,0,73,-93,73,-267c0,0,0,-178,-80,-276c0,0,-80,-97,-232,-97c0,0,-84,0,-160,16c0,0,4,-53,4,-84V-272l123,-18v-35Z" 
id="f3_2c"
transform="scale(0.001,-0.001)" />

<path d="M58,-234v58c0,0,131,42,131,125c0,0,0,15,-11,27c0,0,-11,12,-38,25C140,1,89,27,89,75c0,0,0,40,25,61c0,0,26,21,65,21c0,0,48,0,77,-34c0,0,30,-34,30,-86c0,0,0,-101,-60,-170c0,0,-59,-69,-168,-101Z" 
id="f3_g"
transform="scale(0.001,-0.001)" />

<path d="M787,139L76,488v38L787,875V798L184,507L787,216V139Z" 
id="f3_w"
transform="scale(0.001,-0.001)" />

<path d="M0,0V72H751V0ZM751,166L0,538v38L751,949V868L123,559L751,247V166Z" 
id="f2_2t"
transform="scale(0.001,-0.001)" />

<path d="M45,0V72H795V0Zm0,166v82L673,558L45,870v81L795,578V540L45,166Z" 
id="f2_39"
transform="scale(0.001,-0.001)" />

<path d="M54,0V40L172,60V941L44,960v40H794V760H745L721,922c0,0,-83,11,-241,11H316V516H611l23,120h46V328H634L611,449H316V60L483,40V0Z" 
id="f3_16"
transform="scale(0.001,-0.001)" />

<path d="M210,132c0,0,-41,0,-68,29c0,0,-27,28,-27,72c0,0,0,45,27,73c0,0,27,29,68,29c0,0,41,0,69,-29c0,0,27,-28,27,-73c0,0,0,-44,-27,-72c0,0,-28,-29,-69,-29Zm455,0c0,0,-41,0,-68,29c0,0,-27,28,-27,72c0,0,0,45,27,73c0,0,27,29,68,29c0,0,41,0,69,-29c0,0,27,-28,27,-73c0,0,0,-44,-27,-72c0,0,-28,-29,-69,-29ZM438,539c0,0,-41,0,-68,28c0,0,-28,29,-28,73c0,0,0,44,28,73c0,0,27,29,68,29c0,0,41,0,68,-29c0,0,27,-29,27,-73c0,0,0,-44,-27,-73c0,0,-27,-28,-68,-28Z" 
id="f7_16e"
transform="scale(0.001,-0.001)" />

<path d="M350,-14c0,0,-142,0,-269,31L73,228h49L156,87c0,0,29,-16,82,-28c0,0,54,-12,100,-12c0,0,117,0,173,54c0,0,56,53,56,178c0,0,0,99,-52,150c0,0,-51,51,-159,56l-107,6v61l107,7c0,0,84,5,124,52c0,0,41,48,41,145c0,0,0,101,-44,147c0,0,-44,45,-139,45c0,0,-40,0,-83,-10c0,0,-43,-11,-76,-29L153,786H104V979c0,0,74,19,127,26c0,0,54,6,107,6c0,0,321,0,321,-246c0,0,0,-104,-57,-165c0,0,-57,-62,-162,-77c0,0,136,-16,200,-78c0,0,64,-62,64,-173c0,0,0,-135,-92,-211c0,0,-93,-75,-262,-75Z" 
id="f3_n"
transform="scale(0.001,-0.001)" />

<path d="M178,0L615,886H176L150,764H101v236H720V943L274,0Z" 
id="f3_r"
transform="scale(0.001,-0.001)" />

<path d="M350,-14c0,0,-142,0,-253,31L89,228h49L172,87c0,0,32,-18,78,-29c0,0,46,-11,88,-11c0,0,118,0,173,56c0,0,56,55,56,187c0,0,0,93,-24,140c0,0,-24,47,-76,70c0,0,-52,22,-140,22c0,0,-68,0,-133,-18H122v496H630V886H189V567c0,0,81,18,173,18c0,0,173,0,258,-71c0,0,84,-71,84,-216c0,0,0,-151,-92,-232c0,0,-91,-80,-262,-80Z" 
id="f3_p"
transform="scale(0.001,-0.001)" />


</defs>
</svg>