<?xml version="1.0" encoding="UTF-8" standalone="no"?>
<!DOCTYPE svg PUBLIC "-//W3C//DTD SVG 1.1//EN"
"http://www.w3.org/Graphics/SVG/1.1/DTD/svg11.dtd">
<svg viewBox="0 0 909 1286" version="1.1" xmlns="http://www.w3.org/2000/svg" xmlns:xlink="http://www.w3.org/1999/xlink">
<defs>
<clipPath id="c0_153"><path d="M55.2,316.6V127H285.5V316.6Z" /></clipPath>
<clipPath id="c1_153"><path d="M55.2,475.4V319.3H308.1V475.4Z" /></clipPath>
<clipPath id="c2_153"><path d="M55.2,537V477.7h222V537Z" /></clipPath>
<clipPath id="c3_153"><path d="M55.2,636.3V587.6H237.4v48.7Z" /></clipPath>
<clipPath id="c4_153"><path d="M55.2,812.3V663.9H312.7V812.3Z" /></clipPath>
<clipPath id="c5_153"><path d="M55.2,1035.6V814.3H294.9v221.3Z" /></clipPath>
<clipPath id="c6_153"><path d="M94.8,1091.4v-29.8h97.6v29.8Z" /></clipPath>
<clipPath id="c7_153"><path d="M218,1091.4v-29.8H329.6v29.8Z" /></clipPath>
<clipPath id="c8_153"><path d="M575.5,1088.4v-26.9h39.8v26.9Z" /></clipPath>
<clipPath id="c9_153"><path d="M650.3,1088.4v-26.9h39.8v26.9Z" /></clipPath>
<style type="text/css"><![CDATA[
.g0_153{
fill: #D9D9D9;
}
.g1_153{
fill: none;
stroke: #000000;
stroke-width: 0.7638889;
stroke-linecap: butt;
stroke-linejoin: miter;
}
.g2_153{
fill: none;
stroke: #000000;
stroke-width: 0.90789765;
stroke-linecap: butt;
stroke-linejoin: round;
}
.g3_153{
fill: none;
stroke: #000000;
stroke-width: 0.91279036;
stroke-linecap: butt;
stroke-linejoin: round;
}
.g4_153{
fill: none;
stroke: #000000;
stroke-width: 0.9049305;
stroke-linecap: butt;
stroke-linejoin: round;
}
.g5_153{
fill: none;
stroke: #000000;
stroke-width: 0.9099835;
stroke-linecap: butt;
stroke-linejoin: round;
}
.g6_153{
fill: none;
stroke: #000000;
stroke-width: 0.90779036;
stroke-linecap: butt;
stroke-linejoin: round;
}
.g7_153{
fill: none;
stroke: #000000;
stroke-width: 0.91476023;
stroke-linecap: butt;
stroke-linejoin: round;
}
.g8_153{
}
]]></style>
</defs>
<image preserveAspectRatio="none" x="747" y="1196" width="96" height="59" xlink:href="img/1.png" />
<image preserveAspectRatio="none" x="336" y="41" width="259" height="51" xlink:href="img/2.png" />
<image preserveAspectRatio="none" x="342" y="50" width="247" height="27" xlink:href="img/3.png" />
<image preserveAspectRatio="none" x="341" y="45" width="239" height="42" xlink:href="img/4.png" />
<g fill="#FFFFFF" >
<use xlink:href="#f0_j" transform="matrix(11.5,0,0,11.5,355.1,70.1)" />
<use xlink:href="#f0_i" transform="matrix(11.5,0,0,11.5,364.3,70.1)" />
<use xlink:href="#f0_2n" transform="matrix(11.5,0,0,11.5,374.1,70.1)" />
<use xlink:href="#f0_t" transform="matrix(11.5,0,0,11.5,382.6,70.1)" />
<use xlink:href="#f0_oj" transform="matrix(11.5,0,0,11.5,391,70.1)" />
<use xlink:href="#f0_3e" transform="matrix(11.5,0,0,11.5,396.5,70.1)" />
<use xlink:href="#f0_1c" transform="matrix(11.5,0,0,11.5,406.1,70.1)" />
<use xlink:href="#f0_1c" transform="matrix(11.5,0,0,11.5,410.8,70.1)" />
<use xlink:href="#f0_oj" transform="matrix(11.5,0,0,11.5,415.6,70.1)" />
<use xlink:href="#f0_rz" transform="matrix(11.5,0,0,11.5,421.1,70.1)" />
<use xlink:href="#f0_rx" transform="matrix(11.5,0,0,11.5,429.9,70.1)" />
<use xlink:href="#f0_ry" transform="matrix(11.5,0,0,11.5,438.7,70.1)" />
<use xlink:href="#f0_s7" transform="matrix(11.5,0,0,11.5,447.5,70.1)" />
<use xlink:href="#f0_t" transform="matrix(11.5,0,0,11.5,460.4,70.1)" />
<use xlink:href="#f0_3e" transform="matrix(11.5,0,0,11.5,468.8,70.1)" />
<use xlink:href="#f0_5" transform="matrix(11.5,0,0,11.5,478.3,70.1)" />
<use xlink:href="#f0_1x" transform="matrix(11.5,0,0,11.5,489,70.1)" />
<use xlink:href="#f0_1c" transform="matrix(11.5,0,0,11.5,504.4,70.1)" />
<use xlink:href="#f0_1y" transform="matrix(11.5,0,0,11.5,509.1,70.1)" />
<use xlink:href="#f0_5" transform="matrix(11.5,0,0,11.5,520.8,70.1)" />
<use xlink:href="#f0_2t" transform="matrix(11.5,0,0,11.5,531.5,70.1)" />
<use xlink:href="#f0_1c" transform="matrix(11.5,0,0,11.5,540.2,70.1)" />
<use xlink:href="#f0_24" transform="matrix(11.5,0,0,11.5,545,70.1)" />
<use xlink:href="#f0_1y" transform="matrix(11.5,0,0,11.5,556.7,70.1)" />
</g>
<image preserveAspectRatio="none" x="554" y="45" width="36" height="42" xlink:href="img/5.png" />
<g fill="#FFFFFF" >
<use xlink:href="#f1_l" transform="matrix(11,0,0,11,770.3,1227.6)" />
<use xlink:href="#f1_k" transform="matrix(11,0,0,11,779.1,1227.6)" />
<use xlink:href="#f1_j" transform="matrix(11,0,0,11,792.3,1227.6)" />
<use xlink:href="#f1_l" transform="matrix(11,0,0,11,802.9,1227.6)" />
<use xlink:href="#f1_t" transform="matrix(11,0,0,11,811.7,1227.6)" />
</g>
<path fill-rule="evenodd" d="M52.8,1193.5H856.9v-.8H52.8v.8Z" class="g0_153" />
<path d="M37.9,99.4L873,98.5" class="g1_153" />
<path d="M115.3,151.4h68.2m-41.3,55.7h68.2m-78.7,83.2h10.2m13.4,0h53" class="g2_153" />
<g clip-path="url(#c0_153)">
<g fill="#000000" >
<use xlink:href="#f2_p" transform="matrix(7,0,0,7,143.9,162.3)" />
<use xlink:href="#f2_o" transform="matrix(7,0,0,7,169.4,191.7)" />
<use xlink:href="#f2_p" transform="matrix(7,0,0,7,170.8,218)" />
<use xlink:href="#f2_p" transform="matrix(7,0,0,7,146,247.5)" />
<use xlink:href="#f2_o" transform="matrix(7,0,0,7,224,247.5)" />
<use xlink:href="#f2_20" transform="matrix(12.2,0,0,12.2,139.9,144.2)" />
<use xlink:href="#f2_2k" transform="matrix(12.2,0,0,12.2,149.1,144.2)" />
<use xlink:href="#f2_19" transform="matrix(12.2,0,0,12.2,79.5,155.9)" />
<use xlink:href="#f2_2k" transform="matrix(12.2,0,0,12.2,116.7,170.5)" />
<use xlink:href="#f2_c" transform="matrix(12.2,0,0,12.2,126.8,170.5)" />
<use xlink:href="#f2_2k" transform="matrix(12.2,0,0,12.2,133.7,170.5)" />
<use xlink:href="#f2_n" transform="matrix(12.2,0,0,12.2,167.9,170.5)" />
<use xlink:href="#f2_d" transform="matrix(12.2,0,0,12.2,176.5,170.5)" />
<use xlink:href="#f2_2k" transform="matrix(12.2,0,0,12.2,158.9,199.9)" />
<use xlink:href="#f2_20" transform="matrix(12.2,0,0,12.2,175.2,199.9)" />
<use xlink:href="#f2_2k" transform="matrix(12.2,0,0,12.2,184.4,199.9)" />
<use xlink:href="#f2_19" transform="matrix(12.2,0,0,12.2,106.3,211.7)" />
<use xlink:href="#f2_2k" transform="matrix(12.2,0,0,12.2,143.6,226.2)" />
<use xlink:href="#f2_c" transform="matrix(12.2,0,0,12.2,153.6,226.2)" />
<use xlink:href="#f2_2k" transform="matrix(12.2,0,0,12.2,160.5,226.2)" />
<use xlink:href="#f2_n" transform="matrix(12.2,0,0,12.2,194.7,226.2)" />
<use xlink:href="#f2_d" transform="matrix(12.2,0,0,12.2,203.3,226.2)" />
<use xlink:href="#f2_1c" transform="matrix(12.2,0,0,12.2,106.3,255.7)" />
<use xlink:href="#f2_21" transform="matrix(12.2,0,0,12.2,117.3,255.7)" />
<use xlink:href="#f2_2g" transform="matrix(12.2,0,0,12.2,125.3,255.7)" />
<use xlink:href="#f2_2k" transform="matrix(12.2,0,0,12.2,135.8,255.7)" />
<use xlink:href="#f2_2g" transform="matrix(12.2,0,0,12.2,172.1,255.7)" />
<use xlink:href="#f2_p" transform="matrix(12.2,0,0,12.2,203.9,255.7)" />
<use xlink:href="#f2_2k" transform="matrix(12.2,0,0,12.2,213.4,255.7)" />
<use xlink:href="#f2_20" transform="matrix(12.2,0,0,12.2,229.6,255.7)" />
<use xlink:href="#f2_2k" transform="matrix(12.2,0,0,12.2,238.8,255.7)" />
<use xlink:href="#f2_20" transform="matrix(12.2,0,0,12.2,267.4,255.7)" />
<use xlink:href="#f2_2g" transform="matrix(12.2,0,0,12.2,276.7,255.7)" />
<use xlink:href="#f2_l" transform="matrix(12.2,0,0,12.2,132.2,283.2)" />
<use xlink:href="#f2_20" transform="matrix(12.2,0,0,12.2,174.3,283.2)" />
<use xlink:href="#f2_2g" transform="matrix(12.2,0,0,12.2,183.6,283.2)" />
<use xlink:href="#f2_19" transform="matrix(12.2,0,0,12.2,106.3,294.9)" />
<use xlink:href="#f2_p" transform="matrix(12.2,0,0,12.2,132.3,309.4)" />
<use xlink:href="#f2_2g" transform="matrix(12.2,0,0,12.2,156.7,309.4)" />
<use xlink:href="#f2_c" transform="matrix(12.2,0,0,12.2,162.8,309.4)" />
<use xlink:href="#f2_2g" transform="matrix(12.2,0,0,12.2,169.7,309.4)" />
<use xlink:href="#f2_n" transform="matrix(12.2,0,0,12.2,192.7,309.4)" />
<use xlink:href="#f2_d" transform="matrix(12.2,0,0,12.2,201.3,309.4)" />
<use xlink:href="#f3_x" transform="matrix(12.2,0,0,12.2,90,155.9)" />
<use xlink:href="#f3_f" transform="matrix(12.2,0,0,12.2,154.4,170.5)" />
<use xlink:href="#f3_x" transform="matrix(12.2,0,0,12.2,116.9,211.7)" />
<use xlink:href="#f3_f" transform="matrix(12.2,0,0,12.2,181.3,226.2)" />
<use xlink:href="#f3_x" transform="matrix(12.2,0,0,12.2,157.3,255.7)" />
<use xlink:href="#f3_4g" transform="matrix(12.2,0,0,12.2,181.9,255.7)" />
<use xlink:href="#f3_x" transform="matrix(12.2,0,0,12.2,253.2,255.7)" />
<use xlink:href="#f3_x" transform="matrix(12.2,0,0,12.2,116.9,294.9)" />
<use xlink:href="#f3_f" transform="matrix(12.2,0,0,12.2,179.2,309.4)" />
<use xlink:href="#f3_50" transform="matrix(18.3,0,0,18.3,104.9,162.6)" />
<use xlink:href="#f3_50" transform="matrix(18.3,0,0,18.3,131.7,218.3)" />
<use xlink:href="#f3_50" transform="matrix(18.3,0,0,18.3,144.9,301.5)" />
</g>
</g>
<path d="M129.3,346.4h10.1m8.3,0h9.8m23.2,0h8m17.2,0h32.4m-109,52.5h17.8m-17.8,50.7h17.8m49,0h32.4" class="g3_153" />
<g clip-path="url(#c1_153)">
<g fill="#000000" >
<use xlink:href="#f2_l" transform="matrix(12.2,0,0,12.2,129.8,339.4)" />
<use xlink:href="#f2_l" transform="matrix(12.2,0,0,12.2,148,339.4)" />
<use xlink:href="#f2_l" transform="matrix(12.2,0,0,12.2,180.1,339.4)" />
<use xlink:href="#f2_l" transform="matrix(12.2,0,0,12.2,217.5,339.4)" />
<use xlink:href="#f2_19" transform="matrix(12.2,0,0,12.2,104.4,350.9)" />
<use xlink:href="#f2_i" transform="matrix(12.2,0,0,12.2,141.4,350.9)" />
<use xlink:href="#f2_20" transform="matrix(12.2,0,0,12.2,246.6,350.9)" />
<use xlink:href="#f2_2g" transform="matrix(12.2,0,0,12.2,255.8,350.9)" />
<use xlink:href="#f2_p" transform="matrix(12.2,0,0,12.2,129.9,365.2)" />
<use xlink:href="#f2_n" transform="matrix(12.2,0,0,12.2,148.3,365.2)" />
<use xlink:href="#f2_2g" transform="matrix(12.2,0,0,12.2,182,365.2)" />
<use xlink:href="#f2_2g" transform="matrix(12.2,0,0,12.2,207.3,365.2)" />
<use xlink:href="#f2_n" transform="matrix(12.2,0,0,12.2,229,365.2)" />
<use xlink:href="#f2_l" transform="matrix(12.2,0,0,12.2,133.6,391.9)" />
<use xlink:href="#f2_19" transform="matrix(12.2,0,0,12.2,104.4,403.4)" />
<use xlink:href="#f2_2n" transform="matrix(12.2,0,0,12.2,148.5,403.4)" />
<use xlink:href="#f2_28" transform="matrix(12.2,0,0,12.2,157.5,403.4)" />
<use xlink:href="#f2_2b" transform="matrix(12.2,0,0,12.2,162.3,403.4)" />
<use xlink:href="#f2_23" transform="matrix(12.2,0,0,12.2,171.5,403.4)" />
<use xlink:href="#f2_2g" transform="matrix(12.2,0,0,12.2,183.8,403.4)" />
<use xlink:href="#f2_28" transform="matrix(12.2,0,0,12.2,205.6,403.4)" />
<use xlink:href="#f2_2b" transform="matrix(12.2,0,0,12.2,210.4,403.4)" />
<use xlink:href="#f2_23" transform="matrix(12.2,0,0,12.2,219.6,403.4)" />
<use xlink:href="#f2_c" transform="matrix(12.2,0,0,12.2,228.8,403.4)" />
<use xlink:href="#f2_2g" transform="matrix(12.2,0,0,12.2,235.7,403.4)" />
<use xlink:href="#f2_n" transform="matrix(12.2,0,0,12.2,257.4,403.4)" />
<use xlink:href="#f2_d" transform="matrix(12.2,0,0,12.2,266,403.4)" />
<use xlink:href="#f2_2p" transform="matrix(12.2,0,0,12.2,272,403.4)" />
<use xlink:href="#f2_1z" transform="matrix(12.2,0,0,12.2,295.8,403.4)" />
<use xlink:href="#f2_l" transform="matrix(12.2,0,0,12.2,128.5,417.7)" />
<use xlink:href="#f2_p" transform="matrix(12.2,0,0,12.2,137.7,417.7)" />
<use xlink:href="#f2_l" transform="matrix(12.2,0,0,12.2,133.6,442.6)" />
<use xlink:href="#f2_2g" transform="matrix(12.2,0,0,12.2,209.8,442.6)" />
<use xlink:href="#f2_19" transform="matrix(12.2,0,0,12.2,104.4,454.1)" />
<use xlink:href="#f2_28" transform="matrix(12.2,0,0,12.2,150,454.1)" />
<use xlink:href="#f2_2b" transform="matrix(12.2,0,0,12.2,154.9,454.1)" />
<use xlink:href="#f2_23" transform="matrix(12.2,0,0,12.2,164,454.1)" />
<use xlink:href="#f2_1z" transform="matrix(12.2,0,0,12.2,254.4,454.1)" />
<use xlink:href="#f2_l" transform="matrix(12.2,0,0,12.2,128.5,468.4)" />
<use xlink:href="#f2_p" transform="matrix(12.2,0,0,12.2,137.7,468.4)" />
<use xlink:href="#f2_2g" transform="matrix(12.2,0,0,12.2,197.6,468.4)" />
<use xlink:href="#f2_n" transform="matrix(12.2,0,0,12.2,219.3,468.4)" />
<use xlink:href="#f3_4o" transform="matrix(12.2,0,0,12.2,170.8,340.8)" />
<use xlink:href="#f3_54" transform="matrix(12.2,0,0,12.2,241,340.8)" />
<use xlink:href="#f3_x" transform="matrix(12.2,0,0,12.2,114.7,350.9)" />
<use xlink:href="#f3_h" transform="matrix(12.2,0,0,12.2,192.4,350.9)" />
<use xlink:href="#f3_4p" transform="matrix(12.2,0,0,12.2,170.8,355.8)" />
<use xlink:href="#f3_55" transform="matrix(12.2,0,0,12.2,241,355.8)" />
<use xlink:href="#f3_f" transform="matrix(12.2,0,0,12.2,216.2,365.2)" />
<use xlink:href="#f3_4q" transform="matrix(12.2,0,0,12.2,170.8,367.3)" />
<use xlink:href="#f3_56" transform="matrix(12.2,0,0,12.2,241,367.3)" />
<use xlink:href="#f3_x" transform="matrix(12.2,0,0,12.2,114.7,403.4)" />
<use xlink:href="#f3_h" transform="matrix(12.2,0,0,12.2,192.7,403.4)" />
<use xlink:href="#f3_f" transform="matrix(12.2,0,0,12.2,244.6,403.4)" />
<use xlink:href="#f3_f" transform="matrix(12.2,0,0,12.2,282.7,403.4)" />
<use xlink:href="#f3_4o" transform="matrix(12.2,0,0,12.2,186.3,444)" />
<use xlink:href="#f3_54" transform="matrix(12.2,0,0,12.2,231.2,444)" />
<use xlink:href="#f3_x" transform="matrix(12.2,0,0,12.2,114.7,454.1)" />
<use xlink:href="#f3_f" transform="matrix(12.2,0,0,12.2,241.2,454.1)" />
<use xlink:href="#f3_4p" transform="matrix(12.2,0,0,12.2,186.3,459)" />
<use xlink:href="#f3_55" transform="matrix(12.2,0,0,12.2,231.2,459)" />
<use xlink:href="#f3_f" transform="matrix(12.2,0,0,12.2,206.4,468.4)" />
<use xlink:href="#f3_4q" transform="matrix(12.2,0,0,12.2,186.3,470.5)" />
<use xlink:href="#f3_56" transform="matrix(12.2,0,0,12.2,231.2,470.5)" />
<use xlink:href="#f3_50" transform="matrix(18.3,0,0,18.3,160.9,357.5)" />
<use xlink:href="#f3_50" transform="matrix(18.3,0,0,18.3,176.4,460.7)" />
</g>
</g>
<path d="M129.3,508.1h17.8m49,0h43.7" class="g4_153" />
<g clip-path="url(#c2_153)">
<g fill="#000000" >
<use xlink:href="#f2_p" transform="matrix(7.3,0,0,7.1,219.8,492.7)" />
<use xlink:href="#f2_p" transform="matrix(7.3,0,0,7.1,207.6,518.9)" />
<use xlink:href="#f2_l" transform="matrix(12.6,0,0,12.3,133.6,501)" />
<use xlink:href="#f2_2k" transform="matrix(12.6,0,0,12.3,209.7,501)" />
<use xlink:href="#f2_19" transform="matrix(12.6,0,0,12.3,104.4,512.7)" />
<use xlink:href="#f2_28" transform="matrix(12.6,0,0,12.3,149.9,512.7)" />
<use xlink:href="#f2_2b" transform="matrix(12.6,0,0,12.3,154.8,512.7)" />
<use xlink:href="#f2_23" transform="matrix(12.6,0,0,12.3,163.9,512.7)" />
<use xlink:href="#f2_1z" transform="matrix(12.6,0,0,12.3,265.6,512.7)" />
<use xlink:href="#f2_l" transform="matrix(12.6,0,0,12.3,128.4,527.2)" />
<use xlink:href="#f2_p" transform="matrix(12.6,0,0,12.3,137.6,527.2)" />
<use xlink:href="#f2_2k" transform="matrix(12.6,0,0,12.3,197.4,527.2)" />
<use xlink:href="#f2_n" transform="matrix(12.6,0,0,12.3,230.5,527.2)" />
<use xlink:href="#f3_4o" transform="matrix(12.6,0,0,12.3,186.2,500.2)" />
<use xlink:href="#f3_54" transform="matrix(12.6,0,0,12.3,242.4,500.2)" />
<use xlink:href="#f3_x" transform="matrix(12.6,0,0,12.3,114.7,512.7)" />
<use xlink:href="#f3_f" transform="matrix(12.6,0,0,12.3,252.4,512.7)" />
<use xlink:href="#f3_4p" transform="matrix(12.6,0,0,12.3,186.2,517.2)" />
<use xlink:href="#f3_55" transform="matrix(12.6,0,0,12.3,242.4,517.2)" />
<use xlink:href="#f3_f" transform="matrix(12.6,0,0,12.3,217.7,527.2)" />
<use xlink:href="#f3_4q" transform="matrix(12.6,0,0,12.3,186.2,531.6)" />
<use xlink:href="#f3_56" transform="matrix(12.6,0,0,12.3,242.4,531.6)" />
<use xlink:href="#f3_50" transform="matrix(18.9,0,0,18.5,176.3,519.4)" />
</g>
</g>
<g fill="#000000" >
<use xlink:href="#f2_l" transform="matrix(12,0,0,12,55,581.3)" />
<use xlink:href="#f2_t" transform="matrix(12,0,0,12,64.2,581.3)" />
<use xlink:href="#f2_i" transform="matrix(12,0,0,12,73.4,581.3)" />
<use xlink:href="#f2_15" transform="matrix(12,0,0,12,82.9,581.3)" />
<use xlink:href="#f2_2i" transform="matrix(12,0,0,12,94.2,581.3)" />
<use xlink:href="#f2_1x" transform="matrix(12,0,0,12,103,581.3)" />
<use xlink:href="#f2_28" transform="matrix(12,0,0,12,111.4,581.3)" />
<use xlink:href="#f2_2h" transform="matrix(12,0,0,12,115.8,581.3)" />
<use xlink:href="#f2_1x" transform="matrix(12,0,0,12,125,581.3)" />
<use xlink:href="#f2_2g" transform="matrix(12,0,0,12,133.1,581.3)" />
<use xlink:href="#f2_21" transform="matrix(12,0,0,12,138.5,581.3)" />
</g>
<path d="M156.8,613.5h56" class="g5_153" />
<g clip-path="url(#c3_153)">
<g fill="#000000" >
<use xlink:href="#f2_m" transform="matrix(7.3,0,0,7.1,142.4,604.1)" />
<use xlink:href="#f2_2f" transform="matrix(7.3,0,0,7.1,189.2,624.5)" />
<use xlink:href="#f2_25" transform="matrix(7.3,0,0,7.1,193.3,624.5)" />
<use xlink:href="#f2_2a" transform="matrix(7.3,0,0,7.1,196.3,624.5)" />
<use xlink:href="#f2_2k" transform="matrix(7.3,0,0,7.1,204.6,624.5)" />
<use xlink:href="#f2_k" transform="matrix(7.3,0,0,7.1,139.5,628.3)" />
<use xlink:href="#f2_l" transform="matrix(12.7,0,0,12.4,180.2,606.2)" />
<use xlink:href="#f2_20" transform="matrix(12.7,0,0,12.4,215.3,618.1)" />
<use xlink:href="#f2_2k" transform="matrix(12.7,0,0,12.4,224.4,618.1)" />
<use xlink:href="#f2_l" transform="matrix(12.7,0,0,12.4,155.9,632.9)" />
<use xlink:href="#f2_21" transform="matrix(12.7,0,0,12.4,180.8,632.9)" />
<use xlink:href="#f3_2c" transform="matrix(7.3,0,0,7.1,148.5,604.1)" />
<use xlink:href="#f3_f" transform="matrix(12.7,0,0,12.4,167.1,632.9)" />
<use xlink:href="#f3_50" transform="matrix(19.1,0,0,18.5,132.9,624.8)" />
</g>
</g>
<g fill="#000000" >
<use xlink:href="#f2_1j" transform="matrix(12,0,0,12,55,656.9)" />
<use xlink:href="#f2_2b" transform="matrix(12,0,0,12,65.3,656.9)" />
<use xlink:href="#f2_28" transform="matrix(12,0,0,12,74.8,656.9)" />
<use xlink:href="#f2_2h" transform="matrix(12,0,0,12,79.2,656.9)" />
<use xlink:href="#f2_2g" transform="matrix(12,0,0,12,88.4,656.9)" />
<use xlink:href="#f2_25" transform="matrix(12,0,0,12,93.8,656.9)" />
<use xlink:href="#f2_2b" transform="matrix(12,0,0,12,98.2,656.9)" />
<use xlink:href="#f2_2a" transform="matrix(12,0,0,12,107.8,656.9)" />
<use xlink:href="#f2_u" transform="matrix(12,0,0,12,116.6,656.9)" />
</g>
<path d="M133.6,689.3h55.9m-29.2,49.6h82.6m-82.6,49.6h63.5" class="g6_153" />
<g clip-path="url(#c4_153)">
<g fill="#000000" >
<use xlink:href="#f2_m" transform="matrix(7,0,0,7,119.2,680)" />
<use xlink:href="#f2_2f" transform="matrix(7,0,0,7,165.9,700.1)" />
<use xlink:href="#f2_25" transform="matrix(7,0,0,7,170,700.1)" />
<use xlink:href="#f2_2a" transform="matrix(7,0,0,7,173,700.1)" />
<use xlink:href="#f2_2k" transform="matrix(7,0,0,7,181.3,700.1)" />
<use xlink:href="#f2_k" transform="matrix(7,0,0,7,116.4,703.8)" />
<use xlink:href="#f2_m" transform="matrix(7,0,0,7,145.9,729.6)" />
<use xlink:href="#f2_2f" transform="matrix(7,0,0,7,192.6,749.7)" />
<use xlink:href="#f2_25" transform="matrix(7,0,0,7,196.7,749.7)" />
<use xlink:href="#f2_2a" transform="matrix(7,0,0,7,199.6,749.7)" />
<use xlink:href="#f2_c" transform="matrix(7,0,0,7,204.9,749.7)" />
<use xlink:href="#f2_m" transform="matrix(7,0,0,7,209.3,749.7)" />
<use xlink:href="#f2_2k" transform="matrix(7,0,0,7,230.5,749.7)" />
<use xlink:href="#f2_d" transform="matrix(7,0,0,7,236.9,749.7)" />
<use xlink:href="#f2_k" transform="matrix(7,0,0,7,143,753.4)" />
<use xlink:href="#f2_m" transform="matrix(7,0,0,7,145.9,779.2)" />
<use xlink:href="#f2_2f" transform="matrix(7,0,0,7,200.2,799.4)" />
<use xlink:href="#f2_25" transform="matrix(7,0,0,7,204.2,799.4)" />
<use xlink:href="#f2_2a" transform="matrix(7,0,0,7,207.2,799.4)" />
<use xlink:href="#f2_2k" transform="matrix(7,0,0,7,215.5,799.4)" />
<use xlink:href="#f2_k" transform="matrix(7,0,0,7,143,803)" />
<use xlink:href="#f2_l" transform="matrix(12.2,0,0,12.2,157,682.1)" />
<use xlink:href="#f2_19" transform="matrix(12.2,0,0,12.2,84.6,693.8)" />
<use xlink:href="#f2_20" transform="matrix(12.2,0,0,12.2,192,693.8)" />
<use xlink:href="#f2_2k" transform="matrix(12.2,0,0,12.2,201.1,693.8)" />
<use xlink:href="#f2_i" transform="matrix(12.2,0,0,12.2,272.7,693.8)" />
<use xlink:href="#f2_i" transform="matrix(12.2,0,0,12.2,277.3,693.8)" />
<use xlink:href="#f2_i" transform="matrix(12.2,0,0,12.2,281.9,693.8)" />
<use xlink:href="#f2_i" transform="matrix(12.2,0,0,12.2,286.4,693.8)" />
<use xlink:href="#f2_c" transform="matrix(12.2,0,0,12.2,291,693.8)" />
<use xlink:href="#f2_l" transform="matrix(12.2,0,0,12.2,295.6,693.8)" />
<use xlink:href="#f2_d" transform="matrix(12.2,0,0,12.2,303.3,693.8)" />
<use xlink:href="#f2_l" transform="matrix(12.2,0,0,12.2,132.7,708.3)" />
<use xlink:href="#f2_21" transform="matrix(12.2,0,0,12.2,157.6,708.3)" />
<use xlink:href="#f2_l" transform="matrix(12.2,0,0,12.2,197,731.8)" />
<use xlink:href="#f2_19" transform="matrix(12.2,0,0,12.2,111.2,743.5)" />
<use xlink:href="#f2_20" transform="matrix(12.2,0,0,12.2,245.4,743.5)" />
<use xlink:href="#f2_2k" transform="matrix(12.2,0,0,12.2,254.5,743.5)" />
<use xlink:href="#f2_l" transform="matrix(12.2,0,0,12.2,159.4,757.9)" />
<use xlink:href="#f2_21" transform="matrix(12.2,0,0,12.2,184.2,757.9)" />
<use xlink:href="#f2_l" transform="matrix(12.2,0,0,12.2,187.4,781.4)" />
<use xlink:href="#f2_19" transform="matrix(12.2,0,0,12.2,111.2,793.1)" />
<use xlink:href="#f2_20" transform="matrix(12.2,0,0,12.2,226.2,793.1)" />
<use xlink:href="#f2_2k" transform="matrix(12.2,0,0,12.2,235.4,793.1)" />
<use xlink:href="#f2_l" transform="matrix(12.2,0,0,12.2,159.4,807.5)" />
<use xlink:href="#f2_21" transform="matrix(12.2,0,0,12.2,184.2,807.5)" />
<use xlink:href="#f3_2c" transform="matrix(7,0,0,7,125.3,680)" />
<use xlink:href="#f3_2c" transform="matrix(7,0,0,7,151.9,729.6)" />
<use xlink:href="#f3_2c" transform="matrix(7,0,0,7,215.3,749.7)" />
<use xlink:href="#f3_h" transform="matrix(7,0,0,7,222,749.7)" />
<use xlink:href="#f3_2c" transform="matrix(7,0,0,7,151.9,779.2)" />
<use xlink:href="#f3_h" transform="matrix(7,0,0,7,192.9,799.4)" />
<use xlink:href="#f3_x" transform="matrix(12.2,0,0,12.2,95.1,693.8)" />
<use xlink:href="#f3_f" transform="matrix(12.2,0,0,12.2,143.9,708.3)" />
<use xlink:href="#f3_x" transform="matrix(12.2,0,0,12.2,121.7,743.5)" />
<use xlink:href="#f3_f" transform="matrix(12.2,0,0,12.2,170.5,757.9)" />
<use xlink:href="#f3_x" transform="matrix(12.2,0,0,12.2,121.7,793.1)" />
<use xlink:href="#f3_f" transform="matrix(12.2,0,0,12.2,170.5,807.5)" />
<use xlink:href="#f3_50" transform="matrix(18.2,0,0,18.2,109.8,700.4)" />
<use xlink:href="#f3_50" transform="matrix(18.2,0,0,18.2,136.5,750)" />
<use xlink:href="#f3_50" transform="matrix(18.2,0,0,18.2,136.5,799.7)" />
</g>
</g>
<path d="M158.7,842h55.1m-8.5,80.6h55" class="g7_153" />
<g clip-path="url(#c5_153)">
<g fill="#000000" >
<use xlink:href="#f2_2f" transform="matrix(7.1,0,0,7.1,179.1,826.8)" />
<use xlink:href="#f2_25" transform="matrix(7.1,0,0,7.1,183.2,826.8)" />
<use xlink:href="#f2_2a" transform="matrix(7.1,0,0,7.1,186.2,826.8)" />
<use xlink:href="#f2_2k" transform="matrix(7.1,0,0,7.1,194.3,826.8)" />
<use xlink:href="#f2_m" transform="matrix(7.1,0,0,7.1,144,832.7)" />
<use xlink:href="#f2_2f" transform="matrix(7.1,0,0,7.1,168,852.7)" />
<use xlink:href="#f2_25" transform="matrix(7.1,0,0,7.1,172.2,852.7)" />
<use xlink:href="#f2_2a" transform="matrix(7.1,0,0,7.1,175.1,852.7)" />
<use xlink:href="#f2_2k" transform="matrix(7.1,0,0,7.1,183.3,852.7)" />
<use xlink:href="#f2_k" transform="matrix(7.1,0,0,7.1,141.1,856.6)" />
<use xlink:href="#f2_2f" transform="matrix(7.1,0,0,7.1,236.6,907.4)" />
<use xlink:href="#f2_25" transform="matrix(7.1,0,0,7.1,240.7,907.4)" />
<use xlink:href="#f2_2a" transform="matrix(7.1,0,0,7.1,243.7,907.4)" />
<use xlink:href="#f2_2k" transform="matrix(7.1,0,0,7.1,251.9,907.4)" />
<use xlink:href="#f2_m" transform="matrix(7.1,0,0,7.1,181.5,913.3)" />
<use xlink:href="#f2_2f" transform="matrix(7.1,0,0,7.1,236.6,933.3)" />
<use xlink:href="#f2_25" transform="matrix(7.1,0,0,7.1,240.7,933.3)" />
<use xlink:href="#f2_2a" transform="matrix(7.1,0,0,7.1,243.7,933.3)" />
<use xlink:href="#f2_2k" transform="matrix(7.1,0,0,7.1,251.9,933.3)" />
<use xlink:href="#f2_k" transform="matrix(7.1,0,0,7.1,178.6,937.2)" />
<use xlink:href="#f2_m" transform="matrix(7.1,0,0,7.1,193.1,964.6)" />
<use xlink:href="#f2_k" transform="matrix(7.1,0,0,7.1,193,977.5)" />
<use xlink:href="#f2_21" transform="matrix(12.3,0,0,12.2,170.6,835)" />
<use xlink:href="#f2_19" transform="matrix(12.3,0,0,12.2,109.5,846.6)" />
<use xlink:href="#f2_20" transform="matrix(12.3,0,0,12.2,216.6,846.6)" />
<use xlink:href="#f2_2k" transform="matrix(12.3,0,0,12.2,225.8,846.6)" />
<use xlink:href="#f2_21" transform="matrix(12.3,0,0,12.2,159.6,861)" />
<use xlink:href="#f2_l" transform="matrix(12.3,0,0,12.2,205.5,861)" />
<use xlink:href="#f2_11" transform="matrix(12.3,0,0,12.2,109.5,884.5)" />
<use xlink:href="#f2_20" transform="matrix(12.3,0,0,12.2,122.4,884.5)" />
<use xlink:href="#f2_20" transform="matrix(12.3,0,0,12.2,131.6,884.5)" />
<use xlink:href="#f2_25" transform="matrix(12.3,0,0,12.2,140.8,884.5)" />
<use xlink:href="#f2_2a" transform="matrix(12.3,0,0,12.2,145.9,884.5)" />
<use xlink:href="#f2_23" transform="matrix(12.3,0,0,12.2,155.1,884.5)" />
<use xlink:href="#f2_c" transform="matrix(12.3,0,0,12.2,168.5,884.5)" />
<use xlink:href="#f2_l" transform="matrix(12.3,0,0,12.2,173.1,884.5)" />
<use xlink:href="#f2_d" transform="matrix(12.3,0,0,12.2,180.9,884.5)" />
<use xlink:href="#f2_a" transform="matrix(12.3,0,0,12.2,190.9,884.5)" />
<use xlink:href="#f2_c" transform="matrix(12.3,0,0,12.2,207.8,884.5)" />
<use xlink:href="#f2_m" transform="matrix(12.3,0,0,12.2,214.4,884.5)" />
<use xlink:href="#f2_d" transform="matrix(12.3,0,0,12.2,223.5,884.5)" />
<use xlink:href="#f2_2j" transform="matrix(12.3,0,0,12.2,234.1,884.5)" />
<use xlink:href="#f2_21" transform="matrix(12.3,0,0,12.2,247.3,884.5)" />
<use xlink:href="#f2_23" transform="matrix(12.3,0,0,12.2,259.3,884.5)" />
<use xlink:href="#f2_21" transform="matrix(12.3,0,0,12.2,268.5,884.5)" />
<use xlink:href="#f2_2g" transform="matrix(12.3,0,0,12.2,276.6,884.5)" />
<use xlink:href="#f2_l" transform="matrix(12.3,0,0,12.2,204.4,915.6)" />
<use xlink:href="#f2_21" transform="matrix(12.3,0,0,12.2,228.2,915.6)" />
<use xlink:href="#f2_m" transform="matrix(12.3,0,0,12.2,136.5,927.2)" />
<use xlink:href="#f2_l" transform="matrix(12.3,0,0,12.2,145.7,927.2)" />
<use xlink:href="#f2_20" transform="matrix(12.3,0,0,12.2,272.2,927.2)" />
<use xlink:href="#f2_2k" transform="matrix(12.3,0,0,12.2,281.3,927.2)" />
<use xlink:href="#f2_l" transform="matrix(12.3,0,0,12.2,204.4,941.5)" />
<use xlink:href="#f2_21" transform="matrix(12.3,0,0,12.2,228.2,941.5)" />
<use xlink:href="#f2_m" transform="matrix(12.3,0,0,12.2,136.5,972.8)" />
<use xlink:href="#f2_l" transform="matrix(12.3,0,0,12.2,145.7,972.8)" />
<use xlink:href="#f2_1r" transform="matrix(12.3,0,0,12.2,170.3,972.8)" />
<use xlink:href="#f2_2k" transform="matrix(12.3,0,0,12.2,177.2,972.8)" />
<use xlink:href="#f2_1t" transform="matrix(12.3,0,0,12.2,187.2,972.8)" />
<use xlink:href="#f2_m" transform="matrix(12.3,0,0,12.2,136.5,1000.9)" />
<use xlink:href="#f2_l" transform="matrix(12.3,0,0,12.2,145.7,1000.9)" />
<use xlink:href="#f2_m" transform="matrix(12.3,0,0,12.2,171.7,1000.9)" />
<use xlink:href="#f2_19" transform="matrix(12.3,0,0,12.2,140.5,1028.4)" />
<use xlink:href="#f3_2c" transform="matrix(7.1,0,0,7.1,150,832.7)" />
<use xlink:href="#f3_2c" transform="matrix(7.1,0,0,7.1,187.6,913.3)" />
<use xlink:href="#f3_2c" transform="matrix(7.1,0,0,7.1,199.2,964.6)" />
<use xlink:href="#f3_x" transform="matrix(12.3,0,0,12.2,119.9,846.6)" />
<use xlink:href="#f3_f" transform="matrix(12.3,0,0,12.2,194,861)" />
<use xlink:href="#f3_4o" transform="matrix(12.3,0,0,12.2,195.4,914.8)" />
<use xlink:href="#f3_54" transform="matrix(12.3,0,0,12.2,263,914.8)" />
<use xlink:href="#f3_f" transform="matrix(12.3,0,0,12.2,215,915.6)" />
<use xlink:href="#f3_4g" transform="matrix(12.3,0,0,12.2,109,927.2)" />
<use xlink:href="#f3_x" transform="matrix(12.3,0,0,12.2,157.4,927.2)" />
<use xlink:href="#f3_4p" transform="matrix(12.3,0,0,12.2,195.4,931.7)" />
<use xlink:href="#f3_55" transform="matrix(12.3,0,0,12.2,263,931.7)" />
<use xlink:href="#f3_f" transform="matrix(12.3,0,0,12.2,215,941.5)" />
<use xlink:href="#f3_4q" transform="matrix(12.3,0,0,12.2,195.4,945.9)" />
<use xlink:href="#f3_56" transform="matrix(12.3,0,0,12.2,263,945.9)" />
<use xlink:href="#f3_4g" transform="matrix(12.3,0,0,12.2,109,972.8)" />
<use xlink:href="#f3_x" transform="matrix(12.3,0,0,12.2,157.4,972.8)" />
<use xlink:href="#f3_4g" transform="matrix(12.3,0,0,12.2,109,1000.9)" />
<use xlink:href="#f3_x" transform="matrix(12.3,0,0,12.2,157.4,1000.9)" />
<use xlink:href="#f3_2c" transform="matrix(12.3,0,0,12.2,181.1,1000.9)" />
<use xlink:href="#f3_x" transform="matrix(12.3,0,0,12.2,150.8,1028.4)" />
<use xlink:href="#f3_2c" transform="matrix(12.3,0,0,12.2,165.1,1028.4)" />
<use xlink:href="#f3_50" transform="matrix(18.4,0,0,18.3,134.5,853.2)" />
<use xlink:href="#f3_50" transform="matrix(18.4,0,0,18.3,172,933.8)" />
</g>
</g>
<g fill="#000000" >
<use xlink:href="#f2_m" transform="matrix(12,0,0,12,55,1083.8)" />
<use xlink:href="#f2_k" transform="matrix(12,0,0,12,64.2,1083.8)" />
<use xlink:href="#f2_i" transform="matrix(12,0,0,12,73.4,1083.8)" />
<use xlink:href="#f2_19" transform="matrix(12,0,0,12,82.9,1083.8)" />
<use xlink:href="#f2_22" transform="matrix(12,0,0,12,89.1,1083.8)" />
</g>
<g clip-path="url(#c6_153)">
<g fill="#000000" >
<use xlink:href="#f2_1x" transform="matrix(12.8,0,0,12.1,97.3,1084.1)" />
<use xlink:href="#f2_25" transform="matrix(12.8,0,0,12.1,124.5,1084.1)" />
<use xlink:href="#f2_26" transform="matrix(12.8,0,0,12.1,148.1,1084.1)" />
<use xlink:href="#f2_r" transform="matrix(12.8,0,0,12.1,168.7,1084.1)" />
<use xlink:href="#f2_27" transform="matrix(12.8,0,0,12.1,178.5,1084.1)" />
<use xlink:href="#f3_x" transform="matrix(12.8,0,0,12.1,110.7,1084.1)" />
<use xlink:href="#f3_h" transform="matrix(12.8,0,0,12.1,133,1084.1)" />
<use xlink:href="#f3_f" transform="matrix(12.8,0,0,12.1,155.4,1084.1)" />
</g>
</g>
<image preserveAspectRatio="none" x="98" y="1047" width="113" height="32" xlink:href="img/6.png" />
<g fill="#000000" >
<use xlink:href="#f2_1x" transform="matrix(12,0,0,12,191.5,1083.8)" />
<use xlink:href="#f2_2a" transform="matrix(12,0,0,12,199.5,1083.8)" />
<use xlink:href="#f2_20" transform="matrix(12,0,0,12,208.3,1083.8)" />
</g>
<g clip-path="url(#c7_153)">
<g fill="#000000" >
<use xlink:href="#f2_1y" transform="matrix(12.9,0,0,12.1,225.8,1084)" />
<use xlink:href="#f2_p" transform="matrix(12.9,0,0,12.1,252.8,1084)" />
<use xlink:href="#f2_25" transform="matrix(12.9,0,0,12.1,261.3,1084)" />
<use xlink:href="#f2_26" transform="matrix(12.9,0,0,12.1,284.6,1084)" />
<use xlink:href="#f2_27" transform="matrix(12.9,0,0,12.1,315.6,1084)" />
<use xlink:href="#f3_x" transform="matrix(12.9,0,0,12.1,239.2,1084)" />
<use xlink:href="#f3_f" transform="matrix(12.9,0,0,12.1,269.6,1084)" />
<use xlink:href="#f3_f" transform="matrix(12.9,0,0,12.1,291.8,1084)" />
<use xlink:href="#f3_28" transform="matrix(12.9,0,0,12.1,304.8,1084)" />
</g>
</g>
<image preserveAspectRatio="none" x="227" y="1047" width="158" height="32" xlink:href="img/7.png" />
<g fill="#000000" >
<use xlink:href="#f2_g" transform="matrix(12,0,0,12,333.8,1083.8)" />
<use xlink:href="#f2_2g" transform="matrix(12,0,0,12,342.9,1083.8)" />
<use xlink:href="#f2_24" transform="matrix(12,0,0,12,348.4,1083.8)" />
<use xlink:href="#f2_21" transform="matrix(12,0,0,12,357.2,1083.8)" />
<use xlink:href="#f2_2a" transform="matrix(12,0,0,12,365.3,1083.8)" />
<use xlink:href="#f2_22" transform="matrix(12,0,0,12,379.2,1083.8)" />
<use xlink:href="#f2_25" transform="matrix(12,0,0,12,385.1,1083.8)" />
<use xlink:href="#f2_2a" transform="matrix(12,0,0,12,389.8,1083.8)" />
<use xlink:href="#f4_20" transform="matrix(12,0,0,12,399.1,1083.8)" />
<use xlink:href="#f4_2g" transform="matrix(12,0,0,12,413,1083.8)" />
<use xlink:href="#f4_24" transform="matrix(12,0,0,12,418.5,1083.8)" />
<use xlink:href="#f4_21" transform="matrix(12,0,0,12,427.3,1083.8)" />
<use xlink:href="#f4_2i" transform="matrix(12,0,0,12,440.1,1083.8)" />
<use xlink:href="#f4_1x" transform="matrix(12,0,0,12,448.9,1083.8)" />
<use xlink:href="#f4_28" transform="matrix(12,0,0,12,457.3,1083.8)" />
<use xlink:href="#f4_2h" transform="matrix(12,0,0,12,462.1,1083.8)" />
<use xlink:href="#f4_21" transform="matrix(12,0,0,12,471.2,1083.8)" />
<use xlink:href="#f4_2b" transform="matrix(12,0,0,12,484.1,1083.8)" />
<use xlink:href="#f4_22" transform="matrix(12,0,0,12,493.9,1083.8)" />
<use xlink:href="#f4_f1" transform="matrix(12,0,0,12,504.2,1083.8)" />
<use xlink:href="#f4_g" transform="matrix(12,0,0,12,513,1083.8)" />
<use xlink:href="#f4_2f" transform="matrix(12,0,0,12,522.5,1083.8)" />
<use xlink:href="#f4_2b" transform="matrix(12,0,0,12,529.5,1083.8)" />
<use xlink:href="#f4_2g" transform="matrix(12,0,0,12,543,1083.8)" />
<use xlink:href="#f4_24" transform="matrix(12,0,0,12,548.5,1083.8)" />
<use xlink:href="#f4_1x" transform="matrix(12,0,0,12,557.3,1083.8)" />
<use xlink:href="#f4_2g" transform="matrix(12,0,0,12,565.4,1083.8)" />
</g>
<g clip-path="url(#c8_153)">
<g fill="#000000" >
<use xlink:href="#f2_1x" transform="matrix(12.7,0,0,12.2,577.9,1084.1)" />
<use xlink:href="#f2_1y" transform="matrix(12.7,0,0,12.2,602.7,1084.1)" />
<use xlink:href="#f3_f" transform="matrix(12.7,0,0,12.2,589.6,1084.1)" />
</g>
</g>
<image preserveAspectRatio="none" x="579" y="1047" width="90" height="32" xlink:href="img/8.png" />
<g fill="#000000" >
<use xlink:href="#f2_1x" transform="matrix(12,0,0,12,619.5,1083.8)" />
<use xlink:href="#f2_2a" transform="matrix(12,0,0,12,627.6,1083.8)" />
<use xlink:href="#f2_20" transform="matrix(12,0,0,12,636.4,1083.8)" />
</g>
<g clip-path="url(#c9_153)">
<g fill="#000000" >
<use xlink:href="#f2_1x" transform="matrix(12.7,0,0,12.2,652.7,1084.1)" />
<use xlink:href="#f2_1y" transform="matrix(12.7,0,0,12.2,677.2,1084.1)" />
<use xlink:href="#f3_h" transform="matrix(12.7,0,0,12.2,664.4,1084.1)" />
</g>
</g>
<image preserveAspectRatio="none" x="653" y="1047" width="91" height="32" xlink:href="img/9.png" />
<g fill="#000000" >
<use xlink:href="#f2_1x" transform="matrix(12,0,0,12,694.4,1083.8)" />
<use xlink:href="#f2_2e" transform="matrix(12,0,0,12,702.4,1083.8)" />
<use xlink:href="#f2_21" transform="matrix(12,0,0,12,708.6,1083.8)" />
<use xlink:href="#f2_2c" transform="matrix(12,0,0,12,721.1,1083.8)" />
<use xlink:href="#f2_21" transform="matrix(12,0,0,12,730.3,1083.8)" />
<use xlink:href="#f2_2e" transform="matrix(12,0,0,12,738.3,1083.8)" />
<use xlink:href="#f2_2c" transform="matrix(12,0,0,12,744.5,1083.8)" />
<use xlink:href="#f2_21" transform="matrix(12,0,0,12,753.7,1083.8)" />
<use xlink:href="#f2_2a" transform="matrix(12,0,0,12,761.8,1083.8)" />
<use xlink:href="#f2_20" transform="matrix(12,0,0,12,770.6,1083.8)" />
<use xlink:href="#f2_25" transform="matrix(12,0,0,12,780.1,1083.8)" />
<use xlink:href="#f2_1z" transform="matrix(12,0,0,12,784.9,1083.8)" />
<use xlink:href="#f2_2h" transform="matrix(12,0,0,12,792.9,1083.8)" />
<use xlink:href="#f2_28" transform="matrix(12,0,0,12,802.4,1083.8)" />
<use xlink:href="#f2_1x" transform="matrix(12,0,0,12,807.2,1083.8)" />
<use xlink:href="#f2_2e" transform="matrix(12,0,0,12,815.3,1083.8)" />
<use xlink:href="#f2_2i" transform="matrix(12,0,0,12,55,1112)" />
<use xlink:href="#f2_21" transform="matrix(12,0,0,12,63.8,1112)" />
<use xlink:href="#f2_1z" transform="matrix(12,0,0,12,71.9,1112)" />
<use xlink:href="#f2_2g" transform="matrix(12,0,0,12,80,1112)" />
<use xlink:href="#f2_2b" transform="matrix(12,0,0,12,85.5,1112)" />
<use xlink:href="#f2_2e" transform="matrix(12,0,0,12,95,1112)" />
<use xlink:href="#f2_2f" transform="matrix(12,0,0,12,101.2,1112)" />
<use xlink:href="#f2_i" transform="matrix(12,0,0,12,108.1,1112)" />
<use xlink:href="#f2_1j" transform="matrix(12,0,0,12,55,1136.2)" />
<use xlink:href="#f2_2b" transform="matrix(12,0,0,12,65.3,1136.2)" />
<use xlink:href="#f2_28" transform="matrix(12,0,0,12,74.8,1136.2)" />
<use xlink:href="#f2_2h" transform="matrix(12,0,0,12,79.2,1136.2)" />
<use xlink:href="#f2_2g" transform="matrix(12,0,0,12,88.4,1136.2)" />
<use xlink:href="#f2_25" transform="matrix(12,0,0,12,93.8,1136.2)" />
<use xlink:href="#f2_2b" transform="matrix(12,0,0,12,98.2,1136.2)" />
<use xlink:href="#f2_2a" transform="matrix(12,0,0,12,107.8,1136.2)" />
<use xlink:href="#f2_u" transform="matrix(12,0,0,12,116.6,1136.2)" />
</g>
<path fill-rule="evenodd" d="M37.4,38.1h.7v-.7h-.7v.7Z" class="g8_153" />
<path fill-rule="evenodd" d="M37.4,38.1h.7v-.7h-.7v.7Z" class="g8_153" />
<path fill-rule="evenodd" d="M38.1,38.1H871.5v-.7H38.1v.7Z" class="g8_153" />
<path fill-rule="evenodd" d="M871.5,38.1h.8v-.7h-.8v.7Z" class="g8_153" />
<path fill-rule="evenodd" d="M871.5,38.1h.8v-.7h-.8v.7Z" class="g8_153" />
<path fill-rule="evenodd" d="M37.4,1248.5h.7V38.1h-.7V1248.5Z" class="g8_153" />
<path fill-rule="evenodd" d="M872.3,1248.5h.7V38.1h-.7V1248.5Z" class="g8_153" />
<path fill-rule="evenodd" d="M871.5,1248.5h.8V38.1h-.8V1248.5Z" class="g8_153" />
<path fill-rule="evenodd" d="M37.4,1249.2h.7v-.7h-.7v.7Z" class="g8_153" />
<path fill-rule="evenodd" d="M37.4,1249.2h.7v-.7h-.7v.7Z" class="g8_153" />
<path fill-rule="evenodd" d="M38.1,1249.9H871.5v-.7H38.1v.7Z" class="g8_153" />
<path fill-rule="evenodd" d="M38.1,1249.2H871.5v-.7H38.1v.7Z" class="g8_153" />
<path fill-rule="evenodd" d="M872.3,1249.9h.7v-1.4h-.7v1.4Z" class="g8_153" />
<path fill-rule="evenodd" d="M871.5,1249.9H873v-.7h-1.5v.7Z" class="g8_153" />
<path fill-rule="evenodd" d="M871.5,1249.2h.8v-.7h-.8v.7Z" class="g8_153" />
<path fill-rule="evenodd" d="M871.5,1249.2h.8v-.7h-.8v.7Z" class="g8_153" />
<defs>
<path d="M489,-15c0,0,-99,0,-179,30c0,0,-80,30,-136,91c0,0,-56,61,-85,152c0,0,-30,91,-30,212c0,0,0,123,32,218c0,0,33,96,92,161c0,0,59,65,142,98c0,0,82,34,181,34c0,0,40,0,78,-7c0,0,37,-7,69,-18c0,0,31,-11,57,-25c0,0,25,-14,35,-24c0,0,10,-10,14,-17c0,0,4,-7,6,-17c0,0,2,-11,3,-25c0,0,2,-14,2,-35c0,0,0,-22,-2,-38c0,0,-1,-15,-5,-25c0,0,-4,-10,-9,-14c0,0,-5,-5,-12,-5c0,0,-11,0,-28,13c0,0,-18,13,-45,29c0,0,-27,16,-65,29c0,0,-37,13,-89,13c0,0,-58,0,-103,-23c0,0,-45,-23,-77,-67c0,0,-31,-44,-48,-106c0,0,-16,-61,-16,-139c0,0,0,-85,17,-147c0,0,18,-62,50,-103c0,0,33,-40,79,-60c0,0,45,-19,103,-19c0,0,52,0,90,12c0,0,38,12,65,27c0,0,27,15,45,27c0,0,17,12,27,12c0,0,8,0,12,-3c0,0,4,-3,7,-12c0,0,3,-9,5,-25c0,0,1,-16,1,-43c0,0,0,-18,-1,-31c0,0,-1,-14,-3,-23c0,0,-2,-9,-6,-16c0,0,-4,-7,-12,-15c0,0,-8,-9,-32,-22c0,0,-23,-14,-57,-26C661,13,627,1,583,-6c0,0,-43,-9,-94,-9Z" 
id="f0_j"
transform="scale(0.001,-0.001)" />

<path d="M440,150c0,0,41,0,68,8c0,0,28,9,49,26c0,0,20,16,32,41c0,0,11,25,11,58c0,0,0,33,-11,60c0,0,-11,26,-33,44c0,0,-21,18,-55,28c0,0,-33,9,-87,9H298V150ZM407,567c0,0,42,0,68,10c0,0,25,10,42,28c0,0,16,17,24,41c0,0,9,24,9,50c0,0,0,29,-9,52c0,0,-9,23,-27,39c0,0,-18,15,-45,23c0,0,-27,8,-72,8H298V567ZM164,0c0,0,-25,0,-42,15c0,0,-16,14,-16,47V903c0,0,0,33,16,48c0,0,17,14,42,14H406c0,0,88,0,150,-15c0,0,61,-15,103,-45c0,0,42,-30,65,-77c0,0,22,-46,22,-108c0,0,0,-36,-9,-67c0,0,-9,-31,-26,-56c0,0,-17,-25,-42,-45c0,0,-25,-19,-57,-31c0,0,41,-7,76,-26c0,0,34,-19,60,-48c0,0,26,-30,41,-69c0,0,15,-40,15,-89c0,0,0,-51,-14,-93c0,0,-15,-42,-40,-74c0,0,-25,-32,-59,-55c0,0,-35,-23,-77,-38C614,29,573,14,525,7C525,7,478,0,420,0Z" 
id="f0_i"
transform="scale(0.001,-0.001)" />

<path d="M320,-17c0,0,-50,0,-93,9c0,0,-43,8,-76,19c0,0,-32,11,-54,24C97,35,75,48,65,58c0,0,-10,9,-14,28c0,0,-4,18,-4,52c0,0,0,23,1,39c0,0,2,15,5,25c0,0,4,10,9,14c0,0,6,4,13,4c0,0,11,0,30,-12c0,0,19,-13,49,-28c0,0,30,-15,71,-27c0,0,42,-12,96,-12c0,0,36,0,64,8c0,0,29,9,49,25c0,0,19,15,30,38c0,0,10,23,10,52c0,0,0,33,-18,56c0,0,-18,24,-46,42c0,0,-29,18,-66,34c0,0,-36,16,-75,34c0,0,-39,18,-76,41c0,0,-36,23,-65,54c0,0,-29,32,-47,75c0,0,-17,44,-17,104c0,0,0,70,25,122c0,0,26,53,70,88c0,0,43,34,103,51c0,0,59,18,125,18c0,0,35,0,69,-6c0,0,34,-5,64,-14c0,0,30,-9,53,-20c0,0,23,-11,31,-18c0,0,7,-8,10,-13c0,0,3,-5,4,-14c0,0,2,-8,3,-21c0,0,1,-13,1,-33c0,0,0,-21,-1,-36c0,0,-1,-15,-4,-25c0,0,-3,-9,-7,-14c0,0,-5,-4,-14,-4c0,0,-8,0,-26,10c0,0,-18,10,-44,23c0,0,-26,12,-60,22c0,0,-34,10,-75,10c0,0,-32,0,-56,-8c0,0,-24,-8,-40,-21c0,0,-16,-14,-24,-34c0,0,-8,-19,-8,-41c0,0,0,-32,18,-56c0,0,17,-23,46,-42c0,0,30,-18,67,-34c0,0,38,-16,76,-34c0,0,39,-18,76,-41c0,0,38,-22,67,-54c0,0,29,-32,47,-75c0,0,18,-43,18,-101c0,0,0,-76,-29,-133c0,0,-28,-58,-77,-96C572,60,524,21,459,2c0,0,-65,-19,-139,-19Z" 
id="f0_2n"
transform="scale(0.001,-0.001)" />

<path d="M164,0c0,0,-25,0,-42,15c0,0,-16,14,-16,47V903c0,0,0,33,16,48c0,0,17,14,42,14H645c0,0,7,0,12,-4c0,0,5,-3,9,-13c0,0,4,-9,6,-24c0,0,2,-14,2,-36c0,0,0,-21,-2,-36c0,0,-2,-14,-6,-23c0,0,-4,-9,-9,-13c0,0,-5,-4,-12,-4H301V576H593c0,0,6,0,12,-4c0,0,6,-4,9,-13c0,0,4,-8,6,-23c0,0,2,-14,2,-35c0,0,0,-22,-2,-36c0,0,-2,-14,-6,-23c0,0,-3,-8,-9,-12c0,0,-6,-4,-12,-4H301V154H649c0,0,6,0,12,-5c0,0,5,-4,9,-13c0,0,4,-9,6,-23c0,0,2,-15,2,-36c0,0,0,-22,-2,-36c0,0,-2,-15,-6,-24c0,0,-4,-9,-9,-13c0,0,-6,-4,-12,-4Z" 
id="f0_t"
transform="scale(0.001,-0.001)" />

<path d="M79,297c0,0,-19,0,-27,18c0,0,-8,17,-8,60c0,0,0,41,8,59c0,0,8,17,27,17H389c0,0,9,0,15,-4c0,0,7,-4,11,-13c0,0,5,-9,7,-23c0,0,1,-15,1,-36c0,0,0,-43,-8,-61c0,0,-8,-17,-26,-17Z" 
id="f0_oj"
transform="scale(0.001,-0.001)" />

<path d="M121,-4c0,0,-39,0,-60,2C61,-2,39,0,32,8c0,0,-8,8,-3,24c0,0,4,15,18,41L279,495L64,892c0,0,-14,26,-19,42c0,0,-5,17,4,24c0,0,9,8,32,10c0,0,23,2,65,2c0,0,35,0,56,-2c0,0,20,-1,32,-4c0,0,12,-4,17,-10c0,0,5,-6,9,-15L431,620L595,939c0,0,5,9,10,15c0,0,5,6,16,10c0,0,10,3,29,4c0,0,19,2,53,2c0,0,37,0,59,-2c0,0,22,-2,30,-10c0,0,8,-8,4,-24c0,0,-4,-16,-17,-42L564,497L793,73c0,0,14,-26,18,-41c0,0,4,-16,-5,-24c0,0,-9,-8,-32,-10c0,0,-24,-2,-65,-2c0,0,-36,0,-56,2c0,0,-20,1,-31,3c0,0,-12,4,-17,10c0,0,-5,6,-9,15L414,374L233,26c0,0,-4,-9,-9,-15c0,0,-6,-6,-17,-10c0,0,-12,-2,-32,-3c0,0,-21,-2,-54,-2Z" 
id="f0_3e"
transform="scale(0.001,-0.001)" />

<path d="M204,-4c0,0,-28,0,-47,2c0,0,-19,2,-31,5c0,0,-11,4,-16,10c0,0,-4,6,-4,13V939c0,0,0,7,4,13c0,0,5,6,17,10c0,0,11,3,30,6c0,0,19,2,47,2c0,0,29,0,48,-2c0,0,18,-3,29,-6c0,0,11,-4,16,-10c0,0,5,-6,5,-13V26c0,0,0,-7,-5,-13c0,0,-5,-6,-16,-10c0,0,-11,-3,-29,-5c0,0,-19,-2,-48,-2Z" 
id="f0_1c"
transform="scale(0.001,-0.001)" />

<path d="M127,0c0,0,-16,0,-28,3C99,3,87,6,80,15c0,0,-8,8,-11,25c0,0,-3,16,-3,42c0,0,0,25,2,42c0,0,2,18,8,32c0,0,6,14,15,27c0,0,9,13,24,29L282,390c0,0,50,53,81,95c0,0,30,43,47,79c0,0,17,35,24,65c0,0,6,30,6,57c0,0,0,24,-8,46c0,0,-8,22,-23,39c0,0,-15,16,-38,25c0,0,-23,10,-55,10c0,0,-44,0,-78,-12c0,0,-33,-11,-59,-25c0,0,-26,-13,-43,-25c0,0,-17,-12,-27,-12c0,0,-7,0,-11,5c0,0,-5,4,-8,15c0,0,-3,10,-5,28c0,0,-2,17,-2,42c0,0,0,18,1,29c0,0,1,12,4,20c0,0,2,9,6,15c0,0,3,6,13,15c0,0,9,9,34,23c0,0,25,14,61,27c0,0,37,14,81,23c0,0,44,9,92,9c0,0,75,0,131,-19c0,0,57,-19,94,-53c0,0,37,-34,55,-81c0,0,19,-47,19,-100c0,0,0,-47,-9,-93c0,0,-9,-45,-37,-98c0,0,-29,-52,-80,-116c0,0,-52,-64,-136,-148L299,159H679c0,0,8,0,14,-4c0,0,6,-5,11,-14c0,0,4,-9,7,-25c0,0,2,-15,2,-36c0,0,0,-22,-2,-37c0,0,-2,-15,-6,-25c0,0,-3,-10,-9,-14c0,0,-6,-4,-14,-4Z" 
id="f0_rz"
transform="scale(0.001,-0.001)" />

<path d="M385,138c0,0,29,0,52,9c0,0,22,10,39,28c0,0,17,19,28,47c0,0,11,29,19,66c0,0,7,37,9,84c0,0,3,47,3,104c0,0,0,69,-4,122c0,0,-4,52,-11,91c0,0,-8,39,-20,66c0,0,-12,27,-28,43c0,0,-16,16,-37,22c0,0,-21,7,-47,7c0,0,-44,0,-73,-21c0,0,-28,-21,-45,-64c0,0,-17,-42,-24,-106c0,0,-6,-63,-6,-148c0,0,0,-103,8,-171c0,0,8,-67,26,-107c0,0,17,-40,45,-56c0,0,27,-16,66,-16ZM378,-17c0,0,-99,0,-164,33c0,0,-65,34,-103,98c0,0,-38,64,-54,156c0,0,-15,92,-15,209c0,0,0,115,19,208c0,0,19,94,61,160c0,0,42,65,110,101c0,0,68,35,165,35c0,0,99,0,164,-34c0,0,65,-34,103,-98c0,0,39,-64,53,-156c0,0,15,-92,15,-209c0,0,0,-115,-18,-209c0,0,-19,-93,-61,-159C653,118,611,53,543,17c0,0,-67,-34,-165,-34Z" 
id="f0_rx"
transform="scale(0.001,-0.001)" />

<path d="M142,0c0,0,-6,0,-12,4c0,0,-5,3,-9,12c0,0,-4,9,-6,23c0,0,-3,15,-3,36c0,0,0,21,2,36c0,0,2,14,6,23c0,0,4,9,10,13c0,0,5,5,12,5H322V779L166,693c0,0,-17,-8,-28,-10c0,0,-1,0,-3,0c-4,0,-10,1,-14,5c0,0,-6,6,-8,22c0,0,-2,15,-2,44c0,0,0,18,0,29c0,0,1,12,4,20c0,0,3,8,8,14c0,0,5,5,14,11L345,962c0,0,4,3,9,5c0,0,6,2,15,3c0,0,9,1,23,2c0,0,15,0,38,0c0,0,28,0,46,-1c0,0,17,-1,26,-4c0,0,9,-3,12,-7c0,0,3,-4,3,-11V152H675c0,0,7,0,12,-5c0,0,6,-4,10,-13c0,0,4,-9,6,-23c0,0,2,-15,2,-36c0,0,0,-21,-2,-36c0,0,-3,-14,-7,-23c0,0,-4,-9,-9,-12c0,0,-5,-4,-12,-4Z" 
id="f0_ry"
transform="scale(0.001,-0.001)" />

<path d="M337,-17c0,0,-50,0,-93,8c0,0,-43,7,-76,16c0,0,-34,11,-55,22c0,0,-22,11,-29,17c0,0,-6,6,-10,13c0,0,-3,8,-6,18c0,0,-2,10,-3,25c0,0,-1,16,-1,37c0,0,0,36,6,50c0,0,6,13,17,13c0,0,8,0,26,-10c0,0,18,-10,47,-21c0,0,28,-12,66,-22c0,0,38,-10,87,-10c0,0,41,0,72,10c0,0,31,9,53,27c0,0,22,17,33,42c0,0,11,25,11,56c0,0,0,34,-13,61c0,0,-13,26,-39,45c0,0,-26,20,-65,30c0,0,-39,10,-92,10H189c0,0,-9,0,-16,3c0,0,-7,3,-11,11c0,0,-5,8,-7,23c0,0,-1,14,-1,37c0,0,0,22,1,36c0,0,2,13,6,21c0,0,4,7,11,10c0,0,6,3,15,3h85c0,0,43,0,77,10c0,0,33,10,56,29c0,0,23,19,35,45c0,0,12,27,12,59c0,0,0,25,-8,47c0,0,-9,22,-25,38c0,0,-16,16,-41,26c0,0,-26,9,-60,9c0,0,-39,0,-73,-11c0,0,-34,-12,-62,-26c0,0,-27,-13,-46,-25c0,0,-19,-12,-28,-12c0,0,-6,0,-10,2c0,0,-5,3,-8,11c0,0,-3,7,-4,21c0,0,-2,14,-2,37c0,0,0,18,1,31c0,0,1,12,3,20c0,0,2,8,5,14c0,0,4,6,11,13c0,0,8,7,31,21c0,0,23,14,58,28c0,0,35,13,81,22c0,0,46,10,100,10c0,0,70,0,124,-17c0,0,54,-16,91,-47c0,0,37,-31,56,-76c0,0,19,-46,19,-102c0,0,0,-44,-11,-83c0,0,-12,-38,-33,-68c0,0,-22,-29,-54,-50c0,0,-33,-21,-75,-32v-2c0,0,50,-6,91,-26c0,0,40,-19,68,-49c0,0,28,-30,43,-68c0,0,15,-37,15,-81c0,0,0,-72,-28,-128c0,0,-27,-56,-77,-94C604,60,555,22,487,2c0,0,-69,-19,-150,-19Z" 
id="f0_s7"
transform="scale(0.001,-0.001)" />

<path d="M589,371L453,782h-1L317,371ZM106,-4c0,0,-35,0,-54,2C52,-2,32,0,25,8c0,0,-7,9,-5,24c0,0,2,16,11,42L329,931c0,0,4,13,10,21c0,0,6,7,19,12c0,0,13,4,36,5c0,0,23,1,61,1c0,0,44,0,71,-1c0,0,26,-1,40,-5c0,0,15,-5,21,-13c0,0,6,-8,11,-22L896,73c0,0,9,-27,11,-43c0,0,3,-15,-6,-23c0,0,-8,-7,-29,-9c0,0,-21,-2,-57,-2c0,0,-38,0,-59,1c0,0,-22,1,-33,4c0,0,-11,3,-16,9c0,0,-4,6,-7,16L635,220H272L211,31c0,0,-2,-11,-7,-18c0,0,-5,-7,-16,-11c0,0,-11,-3,-31,-4c0,0,-19,-2,-51,-2Z" 
id="f0_5"
transform="scale(0.001,-0.001)" />

<path d="M198,-4c0,0,-27,0,-45,2c0,0,-18,2,-28,5c0,0,-11,4,-15,10c0,0,-4,6,-4,13V887c0,0,0,38,20,58c0,0,20,20,53,20H308c0,0,34,0,59,-6c0,0,24,-5,42,-18c0,0,18,-13,30,-35c0,0,12,-21,21,-52L669,279h3L889,852c0,0,9,32,21,53c0,0,11,22,27,35c0,0,15,14,36,19c0,0,21,6,48,6h132c0,0,21,0,35,-5c0,0,15,-5,24,-15c0,0,9,-11,14,-25c0,0,5,-15,5,-33V26c0,0,0,-7,-4,-13c0,0,-4,-6,-15,-10c0,0,-11,-3,-29,-5c0,0,-18,-2,-45,-2c0,0,-27,0,-45,2c0,0,-18,2,-28,5c0,0,-11,4,-15,10c0,0,-5,6,-5,13V813h-1L764,27c0,0,-3,-10,-10,-16c0,0,-6,-6,-18,-10c0,0,-12,-3,-29,-4c0,0,-18,-1,-44,-1c0,0,-25,0,-43,2c0,0,-18,2,-29,5c0,0,-12,4,-19,10c0,0,-6,6,-9,14L293,813h-2V26c0,0,0,-7,-4,-13c0,0,-4,-6,-15,-10c0,0,-11,-3,-29,-5c0,0,-17,-2,-45,-2Z" 
id="f0_1x"
transform="scale(0.001,-0.001)" />

<path d="M193,-4c0,0,-26,0,-43,2c0,0,-18,2,-27,6c0,0,-10,4,-14,10c0,0,-3,6,-3,13V895c0,0,0,35,20,53c0,0,21,17,50,17H282c0,0,28,0,47,-5c0,0,20,-5,35,-16c0,0,15,-11,29,-31c0,0,13,-20,27,-49L608,511c0,0,17,-32,33,-63c0,0,16,-31,31,-62c0,0,14,-31,29,-60c0,0,14,-30,27,-60h1c0,0,-2,52,-3,109c0,0,-1,57,-1,108V936c0,0,0,7,4,13c0,0,5,6,15,11c0,0,10,4,28,6c0,0,17,2,44,2c0,0,25,0,42,-2c0,0,17,-2,27,-6c0,0,9,-5,13,-11c0,0,4,-6,4,-13V68c0,0,0,-17,-6,-30c0,0,-6,-14,-17,-23C879,15,869,6,856,2c0,0,-14,-3,-28,-3H744c0,0,-26,0,-45,4c0,0,-19,5,-35,19c0,0,-16,14,-31,38c0,0,-15,23,-34,60L359,572c0,0,-21,40,-43,86c0,0,-21,47,-38,91h-2c0,0,3,-54,5,-107c0,0,2,-53,2,-110V27c0,0,0,-7,-5,-13c0,0,-4,-6,-14,-10c0,0,-10,-4,-27,-6c0,0,-17,-2,-44,-2Z" 
id="f0_1y"
transform="scale(0.001,-0.001)" />

<path d="M378,-4c0,0,-28,0,-47,2c0,0,-19,2,-31,5c0,0,-11,4,-16,10c0,0,-4,6,-4,13V805H38c0,0,-8,0,-13,4c0,0,-5,5,-9,14c0,0,-3,9,-5,25c0,0,-2,15,-2,37c0,0,0,22,2,38c0,0,2,15,5,25c0,0,4,9,9,13c0,0,5,4,13,4H718c0,0,7,0,12,-4c0,0,6,-4,10,-13c0,0,3,-10,5,-25c0,0,2,-16,2,-38c0,0,0,-22,-2,-37c0,0,-2,-16,-5,-25c0,0,-4,-9,-10,-14c0,0,-5,-4,-12,-4H476V26c0,0,0,-7,-5,-13c0,0,-5,-6,-16,-10c0,0,-11,-3,-30,-5c0,0,-19,-2,-47,-2Z" 
id="f0_2t"
transform="scale(0.001,-0.001)" />

<path d="M514,145c0,0,72,0,121,27c0,0,48,26,78,73c0,0,30,46,42,107c0,0,13,62,13,131c0,0,0,76,-12,139c0,0,-12,62,-41,106c0,0,-29,45,-76,69c0,0,-48,24,-120,24c0,0,-72,0,-120,-27c0,0,-49,-27,-79,-73c0,0,-29,-45,-42,-106c0,0,-12,-61,-12,-129c0,0,0,-79,12,-142c0,0,12,-63,40,-108c0,0,28,-44,76,-68c0,0,48,-23,120,-23ZM508,-17c0,0,-113,0,-196,29c0,0,-84,29,-140,90c0,0,-56,60,-84,154c0,0,-28,93,-28,221c0,0,0,117,29,210c0,0,30,94,89,160c0,0,59,65,146,101c0,0,87,35,202,35c0,0,110,0,194,-29c0,0,84,-30,140,-90c0,0,56,-60,85,-153c0,0,29,-92,29,-217c0,0,0,-120,-30,-215c0,0,-30,-95,-89,-161C855,118,796,52,709,17c0,0,-87,-34,-201,-34Z" 
id="f0_24"
transform="scale(0.001,-0.001)" />

<path d="M299,0V777H162l36,173H508V0Z" 
id="f1_l"
transform="scale(0.001,-0.001)" />

<path d="M403,172c0,0,80,0,127,81c0,0,48,80,48,218c0,0,0,145,-47,227c0,0,-46,83,-125,83c0,0,-82,0,-129,-83c0,0,-47,-82,-47,-230c0,0,0,-135,48,-215c0,0,48,-81,125,-81Zm3,-182c0,0,-167,0,-272,130C134,120,30,251,30,464c0,0,0,227,102,364c0,0,102,137,268,137h6c0,0,170,0,271,-130c0,0,100,-130,100,-347c0,0,0,-253,-112,-376C665,112,553,-10,406,-10Z" 
id="f1_k"
transform="scale(0.001,-0.001)" />

<path d="M44,-281L425,1053H537L156,-281Z" 
id="f1_j"
transform="scale(0.001,-0.001)" />

<path d="M407,475c0,0,61,0,105,44c0,0,44,43,44,103c0,0,0,64,-43,108c0,0,-44,43,-109,43c0,0,-57,0,-99,-44c0,0,-42,-45,-42,-107c0,0,0,-62,42,-104c0,0,42,-43,102,-43ZM195,0L430,323c0,0,-67,-8,-85,-8c0,0,-126,0,-212,92c0,0,-87,92,-87,227c0,0,0,141,107,237c0,0,106,96,264,96c0,0,151,0,246,-97c0,0,95,-96,95,-250c0,0,0,-112,-56,-223c0,0,-55,-112,-94,-168L448,0Z" 
id="f1_t"
transform="scale(0.001,-0.001)" />

<path d="M350,-14c0,0,-142,0,-253,31L89,228h49L172,87c0,0,32,-18,78,-29c0,0,46,-11,88,-11c0,0,118,0,173,56c0,0,56,55,56,187c0,0,0,93,-24,140c0,0,-24,47,-76,70c0,0,-52,22,-140,22c0,0,-68,0,-133,-18H122v496H630V886H189V567c0,0,81,18,173,18c0,0,173,0,258,-71c0,0,84,-71,84,-216c0,0,0,-151,-92,-232c0,0,-91,-80,-262,-80Z" 
id="f2_p"
transform="scale(0.001,-0.001)" />

<path d="M476,327V830h-4L114,327ZM476,0V220H30v99l488,686h86V327H740V220H604V0Z" 
id="f2_o"
transform="scale(0.001,-0.001)" />

<path d="M383,64c0,0,85,0,152,28V645c0,0,-67,13,-152,13c0,0,-194,0,-194,-314c0,0,0,-141,48,-211c0,0,48,-69,146,-69ZM342,-14c0,0,-287,0,-287,358c0,0,0,184,82,280c0,0,81,96,239,96c0,0,81,0,163,-18c0,0,-4,25,-4,124v182l-118,18v34H659V52L745,33V0H548l-9,52c0,0,-84,-66,-197,-66Z" 
id="f2_20"
transform="scale(0.001,-0.001)" />

<path d="M13,0V34L95,46L325,350L122,649L40,668v33H357V668L264,648L399,446L554,649l-96,19v33H710V668L630,652L433,397L663,50L745,34V0H427V34l94,17L359,299L169,50L266,34V0Z" 
id="f2_2k"
transform="scale(0.001,-0.001)" />

<path d="M55,0V40L184,60V941L55,960v40H455V960L327,941V60L455,40V0Z" 
id="f2_19"
transform="scale(0.001,-0.001)" />

<path d="M460,-325c0,0,-148,79,-231,172c0,0,-84,93,-123,217c0,0,-39,126,-39,304c0,0,0,178,39,303c0,0,39,125,122,217c0,0,82,93,232,172V997c0,0,-91,-52,-145,-134c0,0,-54,-81,-79,-190c0,0,-25,-109,-25,-305c0,0,0,-194,26,-309c0,0,26,-114,82,-193c0,0,56,-79,141,-128v-63Z" 
id="f2_c"
transform="scale(0.001,-0.001)" />

<path d="M350,-14c0,0,-142,0,-269,31L73,228h49L156,87c0,0,29,-16,82,-28c0,0,54,-12,100,-12c0,0,117,0,173,54c0,0,56,53,56,178c0,0,0,99,-52,150c0,0,-51,51,-159,56l-107,6v61l107,7c0,0,84,5,124,52c0,0,41,48,41,145c0,0,0,101,-44,147c0,0,-44,45,-139,45c0,0,-40,0,-83,-10c0,0,-43,-11,-76,-29L153,786H104V979c0,0,74,19,127,26c0,0,54,6,107,6c0,0,321,0,321,-246c0,0,0,-104,-57,-165c0,0,-57,-62,-162,-77c0,0,136,-16,200,-78c0,0,64,-62,64,-173c0,0,0,-135,-92,-211c0,0,-93,-75,-262,-75Z" 
id="f2_n"
transform="scale(0.001,-0.001)" />

<path d="M49,-325v63c0,0,85,49,140,128c0,0,56,79,83,194c0,0,26,115,26,308c0,0,0,196,-25,305c0,0,-25,109,-79,190c0,0,-54,82,-145,134v63c0,0,149,-80,232,-172c0,0,83,-92,122,-217c0,0,39,-125,39,-303c0,0,0,-177,-39,-303c0,0,-39,-125,-122,-217c0,0,-83,-93,-232,-173Z" 
id="f2_d"
transform="scale(0.001,-0.001)" />

<path d="M44,0V40L172,60V941L44,960v40H471V960L316,941V65H513c0,0,159,0,234,14l46,208h48L828,0Z" 
id="f2_1c"
transform="scale(0.001,-0.001)" />

<path d="M495,413c0,0,0,133,-34,190c0,0,-34,57,-105,57c0,0,-78,0,-119,-63c0,0,-42,-62,-42,-184ZM374,-14c0,0,-163,0,-239,87c0,0,-75,88,-75,283c0,0,0,183,77,273c0,0,76,91,219,91c0,0,269,0,269,-306V353H194V340c0,0,0,-103,23,-160c0,0,22,-57,70,-87c0,0,47,-29,124,-29c0,0,40,0,96,6c0,0,55,7,91,15V43C598,43,562,20,500,3c0,0,-61,-17,-126,-17Z" 
id="f2_21"
transform="scale(0.001,-0.001)" />

<path d="M249,-14c0,0,-71,0,-107,42c0,0,-35,42,-35,119V639H15v33l93,29l76,159h47V701H391V639H231V161c0,0,0,-48,22,-73c0,0,22,-24,57,-24c0,0,44,0,106,12V26C416,26,389,8,340,-2c0,0,-49,-12,-91,-12Z" 
id="f2_2g"
transform="scale(0.001,-0.001)" />

<path d="M134,0V40L339,60V876L137,804v39l292,166h39V60L672,40V0Z" 
id="f2_l"
transform="scale(0.001,-0.001)" />

<path d="M0,214v74H784V214ZM0,494v72H784V494Z" 
id="f3_x"
transform="scale(0.001,-0.001)" />

<path d="M355,0V355H0v72H355V784h72V427H782V355H427V0Z" 
id="f3_f"
transform="scale(0.001,-0.001)" />

<path d="M945,-20c0,0,47,75,125,153H57v74H1147l108,91c0,0,23,19,95,72c0,0,-134,103,-203,166H57v72H1070c0,0,-78,78,-125,154h85c0,0,88,-107,217,-217c0,0,130,-110,206,-154V349c0,0,-101,-58,-219,-162c0,0,-118,-103,-204,-207Z" 
id="f3_4g"
transform="scale(0.001,-0.001)" />

<path d="M88,-163c0,0,-39,0,-63,25c0,0,-25,26,-25,65c0,0,0,34,19,54c0,0,19,19,48,19c0,0,30,0,51,-23c0,0,22,-24,37,-24c0,0,12,0,21,11c0,0,8,10,8,35c0,0,0,30,-7,88c0,0,-27,235,-27,620c0,0,13,411,17,446c0,0,17,139,60,188c0,0,43,48,98,48c0,0,37,0,65,-25c0,0,28,-25,28,-54c0,0,0,-35,-19,-57c0,0,-20,-21,-49,-21c0,0,-26,0,-57,27c0,0,-17,15,-30,15c0,0,-12,0,-21,-11c0,0,-8,-11,-8,-37c0,0,0,-31,6,-108c0,0,28,-306,28,-496c0,0,0,-50,-12,-439c0,0,-6,-219,-67,-296c0,0,-41,-50,-101,-50Z" 
id="f3_50"
transform="scale(0.001,-0.001)" />

<path d="M191,-20c0,0,-39,0,-65,25c0,0,-25,27,-25,64c0,0,0,38,26,64c0,0,26,26,64,26c0,0,38,0,64,-26c0,0,26,-26,26,-64c0,0,0,-37,-25,-64c0,0,-26,-25,-65,-25Z" 
id="f2_i"
transform="scale(0.001,-0.001)" />

<path d="M494,-203c0,0,-94,0,-145,57c0,0,-50,58,-50,161V235c0,0,0,87,-39,131c0,0,-39,44,-121,47v33c0,0,160,3,160,176V841c0,0,0,105,49,162c0,0,48,57,146,57H595v-35H548c0,0,-68,0,-96,-41c0,0,-29,-41,-29,-120V618c0,0,0,-71,-39,-122c0,0,-39,-51,-104,-65v-2c0,0,66,-16,105,-66c0,0,38,-50,38,-123V-8c0,0,0,-79,29,-120c0,0,28,-40,96,-40h47v-35Z" 
id="f2_2n"
transform="scale(0.001,-0.001)" />

<path d="M31,0V33L150,52v956L31,1026v34H274V52L394,33V0Z" 
id="f2_28"
transform="scale(0.001,-0.001)" />

<path d="M377,45c0,0,99,0,147,73c0,0,47,73,47,237c0,0,0,161,-47,233c0,0,-47,72,-147,72c0,0,-97,0,-141,-69c0,0,-44,-69,-44,-236c0,0,0,-169,45,-240c0,0,44,-70,140,-70Zm0,-59c0,0,-158,0,-238,94c0,0,-81,95,-81,274c0,0,0,178,81,272c0,0,80,94,244,94c0,0,160,0,241,-92c0,0,82,-92,82,-274c0,0,0,-368,-329,-368Z" 
id="f2_2b"
transform="scale(0.001,-0.001)" />

<path d="M359,-270c0,0,124,0,192,46c0,0,67,47,67,129c0,0,0,43,-26,67c0,0,-26,24,-79,24H242c0,0,-32,-27,-51,-69c0,0,-20,-41,-20,-77c0,0,0,-64,46,-92c0,0,46,-28,142,-28Zm11,561c0,0,81,0,115,47c0,0,34,47,34,141c0,0,0,100,-35,142c0,0,-35,42,-113,42c0,0,-78,0,-114,-43c0,0,-37,-42,-37,-141c0,0,0,-98,36,-143c0,0,36,-45,114,-45ZM359,-329c0,0,-143,0,-218,44c0,0,-75,43,-75,125c0,0,0,39,27,78c0,0,26,38,98,89c0,0,-43,14,-72,48c0,0,-29,35,-29,74L208,262c0,0,-118,55,-118,217c0,0,0,115,73,178c0,0,73,63,211,63c0,0,28,0,71,-6c0,0,44,-6,67,-13l165,83l26,-32L599,644c0,0,50,-56,50,-165c0,0,0,-120,-72,-182c0,0,-73,-62,-208,-62c0,0,-62,0,-114,11L208,148c0,0,2,-13,29,-24c0,0,27,-12,67,-12H512c0,0,113,0,168,-49c0,0,55,-49,55,-134c0,0,0,-79,-44,-137c0,0,-43,-58,-128,-90c0,0,-84,-31,-204,-31Z" 
id="f2_23"
transform="scale(0.001,-0.001)" />

<path d="M139,-203v35h46c0,0,68,0,97,40c0,0,28,41,28,120V240c0,0,0,73,38,123c0,0,38,50,106,66v2c0,0,-66,14,-105,66c0,0,-39,51,-39,121V864c0,0,0,79,-28,120c0,0,-29,41,-97,41H139v35H240c0,0,97,0,146,-57c0,0,48,-57,48,-162V622c0,0,0,-173,161,-176V413c0,0,-81,-3,-121,-47c0,0,-40,-43,-40,-131V15c0,0,0,-103,-50,-161c0,0,-51,-57,-144,-57Z" 
id="f2_2p"
transform="scale(0.001,-0.001)" />

<path d="M399,-14c0,0,-341,0,-341,370c0,0,0,175,87,269c0,0,87,95,249,95c0,0,101,0,220,-23V501H573L541,625c0,0,-62,35,-149,35c0,0,-200,0,-200,-304c0,0,0,-158,61,-225c0,0,61,-67,189,-67c0,0,109,0,189,24V43C631,43,595,16,530,1c0,0,-64,-15,-131,-15Z" 
id="f2_1z"
transform="scale(0.001,-0.001)" />

<path d="M62,-123V268c0,0,0,230,56,452c0,0,47,190,134,334c0,0,87,144,204,242c0,0,85,73,194,119l18,-16c0,0,-211,-145,-335,-339c0,0,-98,-156,-149,-374c0,0,-50,-218,-50,-403V-123Z" 
id="f3_4o"
transform="scale(0.001,-0.001)" />

<path d="M617,-123V283c0,0,0,236,-63,459c0,0,-63,223,-188,392c0,0,-108,146,-282,265l17,16c0,0,180,-76,320,-248c0,0,139,-172,204,-417c0,0,64,-245,64,-482V-123Z" 
id="f3_54"
transform="scale(0.001,-0.001)" />

<path d="M0,356v74H784V356Z" 
id="f3_h"
transform="scale(0.001,-0.001)" />

<path d="M62,-123V1415h72V-123Z" 
id="f3_4p"
transform="scale(0.001,-0.001)" />

<path d="M617,-123V1415h72V-123Z" 
id="f3_55"
transform="scale(0.001,-0.001)" />

<path d="M650,-123c0,0,-180,75,-319,246c0,0,-140,172,-205,418c0,0,-64,245,-64,481v393h72V1007c0,0,0,-236,63,-459c0,0,63,-223,189,-391c0,0,108,-145,282,-265l-18,-15Z" 
id="f3_4q"
transform="scale(0.001,-0.001)" />

<path d="M101,-123l-17,15c0,0,210,144,334,339c0,0,99,156,149,373c0,0,50,218,50,403v408h72V1022c0,0,0,-230,-56,-451c0,0,-48,-191,-134,-335C499,236,412,92,295,-5c0,0,-84,-73,-194,-118Z" 
id="f3_56"
transform="scale(0.001,-0.001)" />

<path d="M370,468c0,0,96,0,194,40c0,0,0,229,-45,336c0,0,-45,107,-146,107c0,0,-187,0,-187,-259c0,0,0,-115,45,-169c0,0,45,-55,139,-55ZM312,-14c0,0,-122,0,-223,25V184h48L163,76c0,0,24,-11,65,-20c0,0,40,-9,81,-9c0,0,119,0,183,105c0,0,65,104,71,307c0,0,-113,-62,-230,-62c0,0,-132,0,-208,79c0,0,-76,78,-76,219c0,0,0,151,85,233c0,0,84,83,237,83c0,0,171,0,251,-123c0,0,79,-123,79,-385c0,0,0,-252,-102,-385C599,118,497,-14,312,-14Z" 
id="f2_t"
transform="scale(0.001,-0.001)" />

<path d="M44,0V40L172,60V941L44,960v40H794V760H745L721,922c0,0,-83,11,-241,11H316V543H586l23,119h48V354H609L586,475H316V67H513c0,0,193,0,252,12l43,185h49L843,0Z" 
id="f2_15"
transform="scale(0.001,-0.001)" />

<path d="M360,-14L72,649L0,668v33H327V668L216,648L420,164L615,649L504,668v33H764V668L697,652L416,-14Z" 
id="f2_2i"
transform="scale(0.001,-0.001)" />

<path d="M284,67c0,0,51,0,88,12c0,0,37,12,74,30V358l-98,-3c0,0,-100,-4,-135,-39c0,0,-35,-35,-35,-117c0,0,0,-132,106,-132ZM233,-14c0,0,-179,0,-179,208c0,0,0,70,27,116c0,0,27,46,87,70c0,0,60,24,173,27l105,3V519c0,0,0,72,-26,107c0,0,-27,34,-82,34c0,0,-75,0,-137,-35L176,538H134V691c0,0,121,26,213,26c0,0,115,0,169,-47c0,0,54,-47,54,-144V52L657,33V0H465L451,70c0,0,-85,-84,-218,-84Z" 
id="f2_1x"
transform="scale(0.001,-0.001)" />

<path d="M289,-14c0,0,-179,0,-179,205V649L20,668v33H233V200c0,0,0,-128,120,-128c0,0,92,0,173,23V649L420,668v33H649V52L738,33V0H533l-6,57C527,57,474,28,405,7c0,0,-69,-21,-116,-21Z" 
id="f2_2h"
transform="scale(0.001,-0.001)" />

<path d="M67,0V109L206,235c0,0,133,118,196,190c0,0,63,72,90,149c0,0,27,77,27,177c0,0,0,97,-44,148c0,0,-44,50,-144,50c0,0,-39,0,-81,-10c0,0,-42,-11,-74,-29L150,787H101V980c0,0,135,32,230,32c0,0,164,0,247,-68c0,0,82,-69,82,-193c0,0,0,-84,-32,-158c0,0,-33,-75,-100,-148c0,0,-67,-74,-222,-206c0,0,-67,-57,-141,-125H680V0Z" 
id="f2_m"
transform="scale(0.001,-0.001)" />

<path d="M278,-14c0,0,-52,0,-115,11c0,0,-63,10,-99,23V193H98L134,95c0,0,56,-50,146,-50c0,0,144,0,144,123c0,0,0,91,-114,130l-66,21c0,0,-75,25,-110,50c0,0,-34,26,-53,63c0,0,-18,36,-18,89c0,0,0,92,63,145c0,0,63,54,170,54c0,0,77,0,193,-23V544H454l-32,81c0,0,-39,35,-124,35c0,0,-61,0,-92,-30c0,0,-32,-30,-32,-80c0,0,0,-43,29,-72c0,0,28,-29,86,-48c0,0,110,-38,144,-55c0,0,33,-17,57,-42c0,0,23,-25,36,-57c0,0,13,-32,13,-79c0,0,0,-104,-66,-158c0,0,-66,-53,-195,-53Z" 
id="f2_2f"
transform="scale(0.001,-0.001)" />

<path d="M32,0V33L151,52V649L52,668v33H275V52L395,33V0ZM201,850c0,0,-32,0,-56,24c0,0,-24,24,-24,56c0,0,0,34,24,58c0,0,24,24,56,24c0,0,34,0,58,-24c0,0,24,-24,24,-58c0,0,0,-32,-24,-56c0,0,-24,-24,-58,-24Z" 
id="f2_25"
transform="scale(0.001,-0.001)" />

<path d="M439,0V33l93,19V500c0,0,0,62,-30,97c0,0,-31,36,-94,36c0,0,-67,0,-165,-22V52L338,33V0H35V33l84,19V649L35,668v33H235l7,-57c0,0,57,33,122,54c0,0,65,22,108,22c0,0,91,0,137,-53c0,0,47,-53,47,-154V52L741,33V0Z" 
id="f2_2a"
transform="scale(0.001,-0.001)" />

<path d="M377,45c0,0,99,0,145,108c0,0,46,109,46,352c0,0,0,240,-45,345c0,0,-46,106,-146,106c0,0,-97,0,-139,-100c0,0,-43,-99,-43,-351c0,0,0,-254,44,-357c0,0,43,-103,138,-103Zm0,-59c0,0,-158,0,-238,132c0,0,-81,133,-81,386c0,0,0,249,81,380c0,0,80,132,244,132c0,0,159,0,241,-130c0,0,82,-130,82,-382c0,0,0,-518,-329,-518Z" 
id="f2_k"
transform="scale(0.001,-0.001)" />

<path d="M140,-21c0,0,-26,0,-44,17C96,-4,79,13,79,40c0,0,0,19,6,33c0,0,8,20,34,55c0,0,46,60,64,126c0,0,32,114,41,321H190c0,0,-55,0,-81,-18c0,0,-44,-26,-80,-89H0c0,0,42,129,98,178c0,0,43,37,120,37H743V575H562c0,0,-27,-171,-27,-327c0,0,0,-77,27,-110c0,0,27,-33,67,-33c0,0,33,0,56,22c0,0,24,22,31,65h27C743,192,730,74,686,26c0,0,-44,-47,-98,-47c0,0,-58,0,-97,51c0,0,-39,53,-39,198c0,0,0,91,28,347H286c0,0,-23,-390,-56,-494c0,0,-33,-102,-90,-102Z" 
id="f3_2c"
transform="scale(0.001,-0.001)" />

<path d="M410,-14c0,0,-80,0,-162,14c0,0,-81,14,-144,38V270h48L178,134c0,0,28,-35,95,-62c0,0,68,-27,134,-27c0,0,104,0,163,53c0,0,58,54,58,148c0,0,0,54,-23,89c0,0,-22,35,-59,59c0,0,-37,24,-84,41c0,0,-47,17,-97,34c0,0,-49,17,-96,38c0,0,-47,21,-84,53c0,0,-37,32,-60,79c0,0,-23,48,-23,117c0,0,0,119,90,187c0,0,89,68,248,68c0,0,121,0,263,-32V771H654L628,893c0,0,-76,55,-188,55c0,0,-100,0,-156,-40c0,0,-56,-41,-56,-112c0,0,0,-49,22,-81c0,0,23,-32,60,-55c0,0,37,-22,84,-39c0,0,48,-16,97,-34c0,0,50,-17,97,-39c0,0,48,-22,85,-56c0,0,36,-34,59,-83c0,0,23,-49,23,-120c0,0,0,-145,-89,-224c0,0,-89,-79,-256,-79Z" 
id="f2_1j"
transform="scale(0.001,-0.001)" />

<path d="M211,-20c0,0,-39,0,-64,25c0,0,-26,27,-26,64c0,0,0,38,26,64c0,0,26,26,64,26c0,0,37,0,64,-25c0,0,26,-26,26,-65c0,0,0,-37,-26,-64c0,0,-26,-25,-64,-25Zm0,556c0,0,-38,0,-64,26c0,0,-26,26,-26,64c0,0,0,37,26,64c0,0,25,27,64,27c0,0,38,0,64,-27c0,0,26,-27,26,-64c0,0,0,-38,-26,-64c0,0,-27,-26,-64,-26Z" 
id="f2_u"
transform="scale(0.001,-0.001)" />

<path d="M681,416L504,902L333,416ZM669,0V40L803,60L704,348H310L210,60L344,40V0H15V40L128,60l341,949H611L965,60L1092,40V0Z" 
id="f2_11"
transform="scale(0.001,-0.001)" />

<path d="M449,50c0,0,162,0,276,114L353,504c0,0,-78,-33,-114,-91c0,0,-35,-57,-35,-139c0,0,0,-108,63,-166c0,0,63,-58,182,-58ZM439,605c0,0,72,27,104,53c0,0,31,25,47,63c0,0,16,37,16,92c0,0,0,143,-135,143c0,0,-79,0,-113,-36c0,0,-34,-35,-34,-107c0,0,0,-121,115,-208ZM429,-14c0,0,-185,0,-278,71c0,0,-93,72,-93,209c0,0,0,72,27,124c0,0,27,52,73,89c0,0,46,37,146,75c0,0,-112,109,-112,244c0,0,0,107,71,162c0,0,72,56,208,56c0,0,130,0,198,-53c0,0,69,-53,69,-155c0,0,0,-58,-25,-101c0,0,-25,-42,-71,-75c0,0,-45,-32,-152,-74L805,272c0,0,72,147,77,271L776,563v39h341V563L1013,543c0,0,-57,-198,-145,-329L1038,59L1161,40V0H904L777,116C777,116,699,46,614,16c0,0,-84,-30,-185,-30Z" 
id="f2_a"
transform="scale(0.001,-0.001)" />

<path d="M327,-14L84,649L1,668v33H335V668L219,648L385,174L554,632h63L786,171L944,649L830,668v33h267V668l-78,-16L784,-14H726L553,448L382,-14Z" 
id="f2_2j"
transform="scale(0.001,-0.001)" />

<path d="M113,-203V1060H454v-35L232,994V-138l222,-30v-35Z" 
id="f2_1r"
transform="scale(0.001,-0.001)" />

<path d="M55,-203v35l222,30V994L55,1025v35H395V-203Z" 
id="f2_1t"
transform="scale(0.001,-0.001)" />

<path d="M64,0V34L168,59V639H47v36l121,29v49c0,0,0,155,61,239c0,0,62,84,173,84c0,0,58,0,107,-15V908H472l-33,92c0,0,-26,16,-62,16c0,0,-47,0,-66,-42c0,0,-19,-42,-19,-157V701H478V639H292V59L443,34V0Z" 
id="f2_22"
transform="scale(0.001,-0.001)" />

<path d="M64,-325c0,0,-46,0,-107,14v148H-8l19,-81c0,0,25,-21,62,-21c0,0,44,0,67,47c0,0,22,47,22,152V649L57,668v33H286V-28c0,0,0,-146,-57,-221c0,0,-56,-76,-165,-76ZM213,850c0,0,-34,0,-58,24c0,0,-24,24,-24,56c0,0,0,34,24,58c0,0,24,24,58,24c0,0,32,0,56,-24c0,0,24,-24,24,-58c0,0,0,-32,-24,-56c0,0,-24,-24,-56,-24Z" 
id="f2_26"
transform="scale(0.001,-0.001)" />

<path d="M178,0L615,886H176L150,764H101v236H720V943L274,0Z" 
id="f2_r"
transform="scale(0.001,-0.001)" />

<path d="M477,0V33l64,19L348,354L257,254V52L331,33V0H44V33l89,19v956L29,1026v34H257V338L544,647l-73,20v34H718V667L631,650L431,446L688,50L764,33V0Z" 
id="f2_27"
transform="scale(0.001,-0.001)" />

<path d="M376,50c0,0,103,0,149,80c0,0,46,81,46,240c0,0,0,137,-47,204c0,0,-48,67,-148,67c0,0,-44,0,-87,-7c0,0,-44,-8,-63,-17V62c0,0,63,-12,150,-12Zm3,-64c0,0,-64,0,-141,14c0,0,-78,14,-136,37v971L0,1026v34H226V809c0,0,0,-40,-4,-148c0,0,74,59,188,59c0,0,143,0,219,-87c0,0,77,-87,77,-263c0,0,0,-189,-84,-287c0,0,-84,-97,-243,-97Z" 
id="f2_1y"
transform="scale(0.001,-0.001)" />

<path d="M620,-14c0,0,-52,0,-93,43c0,0,-41,45,-77,203L384,522L132,0H0L340,703l-12,66c0,0,-23,107,-61,146c0,0,-37,38,-83,38c0,0,-42,0,-74,-30c0,0,-31,-31,-41,-100H43c0,0,2,117,57,187c0,0,40,51,96,51c0,0,50,0,86,-40c0,0,54,-60,88,-213L489,283c0,0,27,-118,62,-153c0,0,33,-36,79,-36c0,0,43,0,71,29c0,0,28,29,33,94h30c0,0,1,-19,1,-29c0,0,0,-98,-49,-158c0,0,-37,-44,-96,-44Z" 
id="f3_28"
transform="scale(0.001,-0.001)" />

<path d="M58,-234v58c0,0,131,42,131,125c0,0,0,15,-11,27c0,0,-11,12,-38,25C140,1,89,27,89,75c0,0,0,40,25,61c0,0,26,21,65,21c0,0,48,0,77,-34c0,0,30,-34,30,-86c0,0,0,-101,-60,-170c0,0,-59,-69,-168,-101Z" 
id="f2_g"
transform="scale(0.001,-0.001)" />

<path d="M442,0V33l93,19V504c0,0,0,129,-124,129c0,0,-70,0,-168,-22V52L338,33V0H31V33l88,19v956L15,1026v34H243V756c0,0,0,-77,-5,-112c0,0,54,31,122,53c0,0,68,23,115,23c0,0,91,0,137,-53c0,0,47,-53,47,-154V52L744,33V0Z" 
id="f2_24"
transform="scale(0.001,-0.001)" />

<path d="M399,62c0,0,68,0,131,68V481c0,0,-5,51,-27,93c0,0,-22,42,-59,63c0,0,-37,21,-72,21c0,0,-65,0,-117,-59c0,0,-67,-77,-67,-226c0,0,0,-151,65,-231c0,0,66,-80,146,-80ZM330,-20c0,0,-112,0,-196,93c0,0,-83,94,-83,240c0,0,0,147,92,269c0,0,93,122,238,122c0,0,90,0,149,-58V773c0,0,0,117,-6,144c0,0,-5,27,-17,37c0,0,-12,9,-30,9c0,0,-20,0,-52,-12l-9,27l204,83h33V270c0,0,0,-120,6,-146c0,0,5,-27,18,-37c0,0,12,-11,28,-11c0,0,21,0,54,13l9,-26L564,-20H530V78C530,78,480,25,432,2c0,0,-47,-22,-102,-22Z" 
id="f4_20"
transform="scale(0.001,-0.001)" />

<path d="M255,-10c0,0,-35,0,-68,18c0,0,-32,19,-48,55c0,0,-16,35,-16,109V632H15v24c0,0,41,16,84,56c0,0,43,39,77,92c0,0,17,29,48,104h23V683H407V632H247V188c0,0,0,-66,19,-90c0,0,19,-23,49,-23c0,0,24,0,47,16c0,0,23,15,36,45h29c0,0,-26,-73,-74,-110c0,0,-47,-36,-98,-36Z" 
id="f4_2g"
transform="scale(0.001,-0.001)" />

<path d="M20,0V26c0,0,45,0,71,15c0,0,15,7,24,28c0,0,9,21,9,85V773c0,0,0,117,-5,144c0,0,-6,27,-17,37c0,0,-12,9,-31,9c0,0,-16,0,-51,-12L10,978l204,83h34V561c0,0,83,91,131,116c0,0,49,26,97,26c0,0,58,0,100,-32c0,0,42,-32,62,-101c0,0,14,-47,14,-174V154c0,0,0,-65,11,-89c0,0,7,-18,25,-28c0,0,18,-11,66,-11V0H418V26h15c0,0,48,0,67,15c0,0,18,15,26,43c0,0,2,12,2,70V396c0,0,0,112,-12,147c0,0,-11,35,-36,53c0,0,-26,17,-61,17c0,0,-37,0,-76,-19c0,0,-40,-20,-95,-79V154c0,0,0,-70,8,-87c0,0,8,-17,29,-29c0,0,22,-12,74,-12V0Z" 
id="f4_24"
transform="scale(0.001,-0.001)" />

<path d="M479,469c0,0,-4,66,-16,93c0,0,-18,42,-55,65c0,0,-37,24,-78,24c0,0,-62,0,-111,-48c0,0,-48,-48,-57,-134ZM355,-20c0,0,-123,0,-211,95c0,0,-87,96,-87,258c0,0,0,175,90,273c0,0,89,98,225,98c0,0,115,0,189,-76c0,0,74,-75,74,-202H162c0,0,0,-152,74,-239c0,0,75,-86,175,-86c0,0,67,0,117,36c0,0,50,37,83,127l24,-15c0,0,-16,-102,-91,-186c0,0,-76,-83,-189,-83Z" 
id="f4_21"
transform="scale(0.001,-0.001)" />

<path d="M376,-20L133,556c0,0,-17,41,-31,58c0,0,-15,18,-39,30c0,0,-12,7,-50,13v26H335V657H314c0,0,-29,0,-44,-14c0,0,-16,-14,-15,-38c0,0,-1,-26,15,-62L429,165L588,557c0,0,17,42,17,64c0,0,0,10,-6,17c0,0,-8,11,-21,15c0,0,-13,4,-52,4v26H750V657c0,0,-39,-3,-54,-16c0,0,-26,-23,-47,-76L409,-20Z" 
id="f4_2i"
transform="scale(0.001,-0.001)" />

<path d="M286,72c0,0,57,0,149,75V407c0,0,-113,-45,-145,-64c0,0,-59,-32,-85,-68c0,0,-25,-36,-25,-78c0,0,0,-54,32,-89c0,0,32,-36,74,-36ZM217,-13c0,0,-71,0,-116,48c0,0,-46,48,-46,127c0,0,0,50,22,87c0,0,31,50,106,95c0,0,76,45,252,109v26c0,0,0,102,-32,140c0,0,-32,38,-94,38c0,0,-47,0,-74,-25c0,0,-28,-25,-28,-58l1,-43c0,0,0,-34,-17,-53c0,0,-18,-18,-47,-18c0,0,-28,0,-45,19c0,0,-18,19,-18,53c0,0,0,64,66,117c0,0,65,54,184,54c0,0,91,0,149,-31c0,0,44,-23,65,-72c0,0,13,-32,13,-131V238c0,0,0,-98,4,-120c0,0,4,-22,12,-29c0,0,9,-8,20,-8c0,0,12,0,21,5c0,0,16,10,61,55V99C676,99,592,-12,516,-12c0,0,-37,0,-58,24c0,0,-22,26,-23,86C435,98,330,17,303,5c0,0,-40,-18,-86,-18Z" 
id="f4_1x"
transform="scale(0.001,-0.001)" />

<path d="M58,0V26c0,0,47,0,64,10c0,0,18,10,28,32c0,0,9,23,9,86V775c0,0,0,116,-5,142c0,0,-5,27,-17,37c0,0,-11,9,-29,9c0,0,-20,0,-49,-12L46,978l204,83h34V154c0,0,0,-64,9,-85c0,0,9,-21,29,-32c0,0,19,-11,72,-11V0Z" 
id="f4_28"
transform="scale(0.001,-0.001)" />

<path d="M292,-20c0,0,-57,0,-100,33c0,0,-42,33,-58,85c0,0,-17,52,-17,148V551c0,0,0,49,-10,68c0,0,-11,18,-31,29c0,0,-19,9,-68,9c-2,0,-4,0,-6,0v26H242V226c0,0,0,-95,33,-125c0,0,33,-30,80,-30c0,0,32,0,73,21c0,0,40,20,96,76V555c0,0,0,59,-21,80c0,0,-22,21,-89,22v26H647V269c0,0,0,-119,6,-145c0,0,6,-27,18,-37c0,0,12,-11,29,-11c0,0,23,0,52,13L763,63L558,-20H524V124C524,124,436,29,390,4c0,0,-47,-24,-98,-24Z" 
id="f4_2h"
transform="scale(0.001,-0.001)" />

<path d="M406,32c0,0,72,0,119,60c0,0,47,59,47,205c0,0,0,181,-78,286c0,0,-53,71,-135,71c0,0,-40,0,-79,-23c0,0,-40,-24,-65,-83c0,0,-24,-58,-24,-151c0,0,0,-149,59,-257c0,0,59,-108,156,-108ZM374,-20c0,0,-154,0,-245,122c0,0,-77,104,-77,233c0,0,0,94,46,187c0,0,47,92,123,137c0,0,76,44,161,44c0,0,155,0,249,-118c0,0,80,-100,80,-231c0,0,0,-91,-44,-185C667,169,623,75,546,27c0,0,-77,-47,-172,-47Z" 
id="f4_2b"
transform="scale(0.001,-0.001)" />

<path d="M63,0V26H93c0,0,30,0,54,15c0,0,25,15,34,41c0,0,10,25,10,99V630H58v53H191v45c0,0,0,102,33,173c0,0,32,71,100,114c0,0,68,44,152,44c0,0,79,0,145,-51c0,0,43,-33,43,-75c0,0,0,-22,-19,-42c0,0,-20,-20,-42,-20c0,0,-17,0,-36,12c0,0,-19,13,-47,53c0,0,-28,41,-51,55c0,0,-23,14,-51,14c0,0,-35,0,-58,-18c0,0,-24,-18,-35,-57c0,0,-10,-38,-10,-197V683H491V630H315V181c0,0,0,-96,21,-122c0,0,27,-33,73,-33h62V0Z" 
id="f4_22"
transform="scale(0.001,-0.001)" />

<path d="M614,-10c0,0,-47,0,-91,35c0,0,-43,35,-77,190L382,503L160,0H19L337,688c0,0,-25,134,-61,198c0,0,-36,64,-89,64c0,0,-42,0,-74,-32c0,0,-32,-33,-36,-101H51c0,0,2,110,44,176c0,0,42,66,105,66c0,0,40,0,76,-33c0,0,36,-34,63,-114c0,0,26,-80,82,-332L474,343c0,0,32,-147,67,-197c0,0,36,-49,85,-49c0,0,84,0,96,118h26c0,0,0,-118,-38,-172c0,0,-39,-53,-96,-53Z" 
id="f4_f1"
transform="scale(0.001,-0.001)" />

<path d="M82,-253v33c0,0,77,25,119,78c0,0,42,54,42,114c0,0,0,14,-7,23c0,0,-5,6,-11,6c0,0,-8,0,-35,-14c0,0,-14,-7,-28,-7c0,0,-37,0,-58,21C104,1,82,23,82,61c0,0,0,36,28,62c0,0,28,27,68,27c0,0,49,0,88,-43c0,0,38,-43,38,-113c0,0,0,-77,-53,-143c0,0,-53,-66,-169,-104Z" 
id="f4_g"
transform="scale(0.001,-0.001)" />

<path d="M312,-20c0,0,-62,0,-143,22c0,0,-25,8,-40,8c0,0,-18,0,-27,-19H77V234h25c0,0,21,-105,80,-158c0,0,59,-53,132,-53c0,0,51,0,84,31c0,0,32,30,32,72c0,0,0,52,-36,87c0,0,-36,35,-144,88c0,0,-109,54,-142,97c0,0,-34,43,-34,107c0,0,0,85,58,141c0,0,58,57,150,57c0,0,40,0,97,-17c0,0,38,-11,51,-11c0,0,12,0,19,5c0,0,7,5,15,23h25V470H464c0,0,-28,110,-72,149c0,0,-45,40,-113,40c0,0,-53,0,-85,-28c0,0,-32,-27,-32,-61c0,0,0,-41,24,-71c0,0,23,-31,94,-65L389,381c0,0,152,-74,152,-194c0,0,0,-94,-71,-151c0,0,-70,-56,-158,-56Z" 
id="f4_2f"
transform="scale(0.001,-0.001)" />

<path d="M31,0V33l88,19V649L31,668v33H235l7,-87c0,0,44,37,121,71c0,0,76,35,121,35h11V530H463l-43,82c0,0,-37,0,-88,-10c0,0,-52,-10,-89,-26V52L363,33V0Z" 
id="f2_2e"
transform="scale(0.001,-0.001)" />

<path d="M382,45c0,0,188,0,188,314c0,0,0,143,-47,213c0,0,-46,69,-141,69c0,0,-87,0,-146,-24V58c0,0,67,-13,146,-13ZM25,-325v35l88,18V649L34,668v33H231l1,-41c0,0,31,27,84,43c0,0,53,17,107,17c0,0,134,0,208,-94c0,0,73,-93,73,-267c0,0,0,-178,-80,-276c0,0,-80,-97,-232,-97c0,0,-84,0,-160,16c0,0,4,-53,4,-84V-272l123,-18v-35Z" 
id="f2_2c"
transform="scale(0.001,-0.001)" />


</defs>
</svg>