<?xml version="1.0" encoding="UTF-8" standalone="no"?>
<!DOCTYPE svg PUBLIC "-//W3C//DTD SVG 1.1//EN"
"http://www.w3.org/Graphics/SVG/1.1/DTD/svg11.dtd">
<svg viewBox="0 0 909 1286" version="1.1" xmlns="http://www.w3.org/2000/svg" xmlns:xlink="http://www.w3.org/1999/xlink">
<defs>
<clipPath id="c0_52"><path d="M513.1,173.6V126h28.7v47.6Z" /></clipPath>
<clipPath id="c1_52"><path d="M563.4,173.6V126h46.9v47.6Z" /></clipPath>
<clipPath id="c2_52"><path d="M55.2,268.9V221.3H379.1v47.6Z" /></clipPath>
<clipPath id="c3_52"><path d="M55.2,318.8V271.2H389.5v47.6Z" /></clipPath>
<clipPath id="c4_52"><path d="M55.2,389.6V321.1H465.6v68.5Z" /></clipPath>
<clipPath id="c5_52"><path d="M55.2,542.1V486H376.9v56.1Z" /></clipPath>
<clipPath id="c6_52"><path d="M256.8,600.1V544H427.6v56.1Z" /></clipPath>
<clipPath id="c7_52"><path d="M493,631.9V601.8h66.7v30.1Z" /></clipPath>
<clipPath id="c8_52"><path d="M263.8,655.4V639.6h18.7v15.8Z" /></clipPath>
<clipPath id="c9_52"><path d="M125.9,734.6V682.5h98.3v52.1Z" /></clipPath>
<clipPath id="c10_52"><path d="M128.5,838.8V782.7H571.9v56.1Z" /></clipPath>
<clipPath id="c11_52"><path d="M258.7,888.3V840.6H361v47.7Z" /></clipPath>
<clipPath id="c12_52"><path d="M55.2,946.6V890.5H625.6v56.1Z" /></clipPath>
<clipPath id="c13_52"><path d="M82.7,1045.9V973.5H189.2v72.4Z" /></clipPath>
<clipPath id="c14_52"><path d="M128.9,1167.3v-73.6h97.2v73.6Z" /></clipPath>
<style type="text/css"><![CDATA[
.g0_52{
fill: #D9D9D9;
}
.g1_52{
fill: none;
stroke: #000000;
stroke-width: 0.7638889;
stroke-linecap: butt;
stroke-linejoin: miter;
}
.g2_52{
fill: none;
stroke: #000000;
stroke-width: 0.7874104;
stroke-linecap: butt;
stroke-linejoin: round;
}
.g3_52{
fill: none;
stroke: #000000;
stroke-width: 0.73204976;
stroke-linecap: butt;
stroke-linejoin: round;
}
.g4_52{
fill: none;
stroke: #000000;
stroke-width: 0.9110975;
stroke-linecap: butt;
stroke-linejoin: round;
}
.g5_52{
fill: none;
stroke: #000000;
stroke-width: 0.9105932;
stroke-linecap: butt;
stroke-linejoin: round;
}
.g6_52{
fill: none;
stroke: #000000;
stroke-width: 0.9107979;
stroke-linecap: butt;
stroke-linejoin: round;
}
.g7_52{
fill: none;
stroke: #000000;
stroke-width: 0.41745096;
stroke-linecap: butt;
stroke-linejoin: round;
}
.g8_52{
fill: none;
stroke: #000000;
stroke-width: 0.9094235;
stroke-linecap: butt;
stroke-linejoin: round;
}
.g9_52{
fill: none;
stroke: #000000;
stroke-width: 0.9135728;
stroke-linecap: butt;
stroke-linejoin: round;
}
.g10_52{
fill: none;
stroke: #000000;
stroke-width: 0.8891165;
stroke-linecap: butt;
stroke-linejoin: round;
}
.g11_52{
fill: none;
stroke: #000000;
stroke-width: 0.7553308;
stroke-linecap: butt;
stroke-linejoin: round;
}
.g12_52{
fill: none;
stroke: #000000;
stroke-width: 0.91288304;
stroke-linecap: butt;
stroke-linejoin: round;
}
.g13_52{
fill: none;
stroke: #000000;
stroke-width: 0.91491514;
stroke-linecap: butt;
stroke-linejoin: round;
}
.g14_52{
fill: none;
stroke: #000000;
stroke-width: 0.9137984;
stroke-linecap: butt;
stroke-linejoin: round;
}
.g15_52{
fill: none;
stroke: #000000;
stroke-width: 0.21350786;
stroke-linecap: square;
stroke-linejoin: round;
}
.g16_52{
}
.g17_52{
fill: none;
stroke: #000000;
stroke-width: 0.91206396;
stroke-linecap: butt;
stroke-linejoin: round;
}
.g18_52{
fill: none;
stroke: #000000;
stroke-width: 0.41803122;
stroke-linecap: butt;
stroke-linejoin: round;
}
.g19_52{
fill: none;
stroke: #000000;
stroke-width: 0.7837687;
stroke-linecap: butt;
stroke-linejoin: round;
}
.g20_52{
fill: none;
stroke: #000000;
stroke-width: 0.37322038;
stroke-linecap: butt;
stroke-linejoin: round;
}
]]></style>
</defs>
<image preserveAspectRatio="none" x="747" y="1196" width="96" height="59" xlink:href="img/1.png" />
<image preserveAspectRatio="none" x="336" y="41" width="259" height="51" xlink:href="img/2.png" />
<image preserveAspectRatio="none" x="342" y="50" width="247" height="27" xlink:href="img/3.png" />
<image preserveAspectRatio="none" x="341" y="45" width="239" height="42" xlink:href="img/4.png" />
<g fill="#FFFFFF" >
<use xlink:href="#f0_j" transform="matrix(11.5,0,0,11.5,355.1,70.1)" />
<use xlink:href="#f0_i" transform="matrix(11.5,0,0,11.5,364.3,70.1)" />
<use xlink:href="#f0_2n" transform="matrix(11.5,0,0,11.5,374.1,70.1)" />
<use xlink:href="#f0_t" transform="matrix(11.5,0,0,11.5,382.6,70.1)" />
<use xlink:href="#f0_oj" transform="matrix(11.5,0,0,11.5,391,70.1)" />
<use xlink:href="#f0_3e" transform="matrix(11.5,0,0,11.5,396.5,70.1)" />
<use xlink:href="#f0_1c" transform="matrix(11.5,0,0,11.5,406.1,70.1)" />
<use xlink:href="#f0_1c" transform="matrix(11.5,0,0,11.5,410.8,70.1)" />
<use xlink:href="#f0_oj" transform="matrix(11.5,0,0,11.5,415.6,70.1)" />
<use xlink:href="#f0_rz" transform="matrix(11.5,0,0,11.5,421.1,70.1)" />
<use xlink:href="#f0_rx" transform="matrix(11.5,0,0,11.5,429.9,70.1)" />
<use xlink:href="#f0_ry" transform="matrix(11.5,0,0,11.5,438.7,70.1)" />
<use xlink:href="#f0_s3" transform="matrix(11.5,0,0,11.5,447.5,70.1)" />
<use xlink:href="#f0_t" transform="matrix(11.5,0,0,11.5,460.4,70.1)" />
<use xlink:href="#f0_3e" transform="matrix(11.5,0,0,11.5,468.8,70.1)" />
<use xlink:href="#f0_5" transform="matrix(11.5,0,0,11.5,478.3,70.1)" />
<use xlink:href="#f0_1x" transform="matrix(11.5,0,0,11.5,489,70.1)" />
<use xlink:href="#f0_1c" transform="matrix(11.5,0,0,11.5,504.4,70.1)" />
<use xlink:href="#f0_1y" transform="matrix(11.5,0,0,11.5,509.1,70.1)" />
<use xlink:href="#f0_5" transform="matrix(11.5,0,0,11.5,520.8,70.1)" />
<use xlink:href="#f0_2t" transform="matrix(11.5,0,0,11.5,531.5,70.1)" />
<use xlink:href="#f0_1c" transform="matrix(11.5,0,0,11.5,540.2,70.1)" />
<use xlink:href="#f0_24" transform="matrix(11.5,0,0,11.5,545,70.1)" />
<use xlink:href="#f0_1y" transform="matrix(11.5,0,0,11.5,556.7,70.1)" />
</g>
<image preserveAspectRatio="none" x="554" y="45" width="36" height="42" xlink:href="img/5.png" />
<g fill="#FFFFFF" >
<use xlink:href="#f1_p" transform="matrix(11,0,0,11,770.3,1227.6)" />
<use xlink:href="#f1_j" transform="matrix(11,0,0,11,783.5,1227.6)" />
<use xlink:href="#f1_l" transform="matrix(11,0,0,11,794.1,1227.6)" />
<use xlink:href="#f1_q" transform="matrix(11,0,0,11,802.9,1227.6)" />
</g>
<path fill-rule="evenodd" d="M52.8,1193.5H856.9v-.8H52.8v.8Z" class="g0_52" />
<path d="M37.9,99.4L873,98.5" class="g1_52" />
<g fill="#000000" >
<use xlink:href="#f2_l" transform="matrix(12,0,0,12,55,155.1)" />
<use xlink:href="#f2_l" transform="matrix(12,0,0,12,64.2,155.1)" />
<use xlink:href="#f2_i" transform="matrix(12,0,0,12,73.4,155.1)" />
<use xlink:href="#f3_19" transform="matrix(12,0,0,12,82.9,155.1)" />
<use xlink:href="#f3_22" transform="matrix(12,0,0,12,89.1,155.1)" />
<use xlink:href="#f3_2k" transform="matrix(12,0,0,12,99.4,155.1)" />
<use xlink:href="#f3_x" transform="matrix(12,0,0,12,112.9,155.1)" />
<use xlink:href="#f3_1x" transform="matrix(12,0,0,12,127.9,155.1)" />
<use xlink:href="#f3_2f" transform="matrix(12,0,0,12,140.7,155.1)" />
<use xlink:href="#f3_25" transform="matrix(12,0,0,12,148.1,155.1)" />
<use xlink:href="#f3_2a" transform="matrix(12,0,0,12,152.8,155.1)" />
<use xlink:href="#f3_m" transform="matrix(12,0,0,12,166.4,155.1)" />
<use xlink:href="#f3_2g" transform="matrix(12,0,0,12,175.5,155.1)" />
<use xlink:href="#f3_c" transform="matrix(12,0,0,12,181,155.1)" />
<use xlink:href="#f3_l" transform="matrix(12,0,0,12,187.2,155.1)" />
<use xlink:href="#f3_f" transform="matrix(12,0,0,12,201.2,155.1)" />
<use xlink:href="#f3_1z" transform="matrix(12,0,0,12,215.8,155.1)" />
<use xlink:href="#f3_2b" transform="matrix(12,0,0,12,223.5,155.1)" />
<use xlink:href="#f3_2f" transform="matrix(12,0,0,12,233,155.1)" />
<use xlink:href="#f3_m" transform="matrix(12,0,0,12,244.7,155.1)" />
<use xlink:href="#f3_2g" transform="matrix(12,0,0,12,253.5,155.1)" />
<use xlink:href="#f3_d" transform="matrix(12,0,0,12,259,155.1)" />
<use xlink:href="#f3_1x" transform="matrix(12,0,0,12,269.6,155.1)" />
<use xlink:href="#f3_2a" transform="matrix(12,0,0,12,277.7,155.1)" />
<use xlink:href="#f3_20" transform="matrix(12,0,0,12,286.5,155.1)" />
<use xlink:href="#f3_2l" transform="matrix(12,0,0,12,300.8,155.1)" />
<use xlink:href="#f3_x" transform="matrix(12,0,0,12,314,155.1)" />
<use xlink:href="#f3_1y" transform="matrix(12,0,0,12,329,155.1)" />
<use xlink:href="#f3_1z" transform="matrix(12,0,0,12,342.5,155.1)" />
<use xlink:href="#f3_2b" transform="matrix(12,0,0,12,350.6,155.1)" />
<use xlink:href="#f3_2f" transform="matrix(12,0,0,12,360.1,155.1)" />
<use xlink:href="#f3_m" transform="matrix(12,0,0,12,371.8,155.1)" />
<use xlink:href="#f3_2g" transform="matrix(12,0,0,12,381,155.1)" />
<use xlink:href="#f3_c" transform="matrix(12,0,0,12,386.1,155.1)" />
<use xlink:href="#f3_l" transform="matrix(12,0,0,12,392.3,155.1)" />
<use xlink:href="#f4_4y" transform="matrix(12,0,0,12,406.8,155.1)" />
<use xlink:href="#f3_1z" transform="matrix(12,0,0,12,420.4,155.1)" />
<use xlink:href="#f3_2b" transform="matrix(12,0,0,12,428.4,155.1)" />
<use xlink:href="#f3_2f" transform="matrix(12,0,0,12,437.9,155.1)" />
<use xlink:href="#f3_m" transform="matrix(12,0,0,12,449.6,155.1)" />
<use xlink:href="#f3_2g" transform="matrix(12,0,0,12,458.4,155.1)" />
<use xlink:href="#f3_d" transform="matrix(12,0,0,12,463.5,155.1)" />
<use xlink:href="#f3_g" transform="matrix(12,0,0,12,469.8,155.1)" />
<use xlink:href="#f3_22" transform="matrix(12,0,0,12,478.9,155.1)" />
<use xlink:href="#f3_25" transform="matrix(12,0,0,12,484.8,155.1)" />
<use xlink:href="#f3_2a" transform="matrix(12,0,0,12,489.6,155.1)" />
<use xlink:href="#f3_20" transform="matrix(12,0,0,12,498.7,155.1)" />
</g>
<path d="M516.3,151.3H537" class="g2_52" />
<g clip-path="url(#c0_52)">
<g fill="#000000" >
<use xlink:href="#f5_20" transform="matrix(12,0,0,12.1,517.6,144.5)" />
<use xlink:href="#f5_2l" transform="matrix(12,0,0,12.1,527.1,144.5)" />
<use xlink:href="#f5_20" transform="matrix(12,0,0,12.1,517.8,169.8)" />
<use xlink:href="#f5_2k" transform="matrix(12,0,0,12.1,527.3,169.8)" />
</g>
</g>
<g fill="#000000" >
<use xlink:href="#f3_1x" transform="matrix(12,0,0,12,545.8,155.1)" />
<use xlink:href="#f3_2g" transform="matrix(12,0,0,12,553.5,155.1)" />
</g>
<path d="M590.2,151.3h11.6" class="g3_52" />
<g clip-path="url(#c1_52)">
<g fill="#000000" >
<use xlink:href="#f3_i" transform="matrix(12.3,0,0,12.1,603.4,155.8)" />
<use xlink:href="#f3_o" transform="matrix(12.3,0,0,12.1,591.8,169.8)" />
<use xlink:href="#f5_2g" transform="matrix(12.3,0,0,12.1,565.5,155.8)" />
<use xlink:href="#f6_2c" transform="matrix(12.3,0,0,12.1,591.4,144.5)" />
<use xlink:href="#f6_x" transform="matrix(12.3,0,0,12.1,575.8,155.8)" />
</g>
</g>
<g fill="#000000" >
<use xlink:href="#f2_1j" transform="matrix(12,0,0,12,55,204.7)" />
<use xlink:href="#f2_2b" transform="matrix(12,0,0,12,65.3,204.7)" />
<use xlink:href="#f2_28" transform="matrix(12,0,0,12,74.5,204.7)" />
<use xlink:href="#f2_2h" transform="matrix(12,0,0,12,79.2,204.7)" />
<use xlink:href="#f2_2g" transform="matrix(12,0,0,12,89.5,204.7)" />
<use xlink:href="#f2_25" transform="matrix(12,0,0,12,95.7,204.7)" />
<use xlink:href="#f2_2b" transform="matrix(12,0,0,12,100.8,204.7)" />
<use xlink:href="#f2_2a" transform="matrix(12,0,0,12,109.9,204.7)" />
<use xlink:href="#f2_u" transform="matrix(12,0,0,12,120.2,204.7)" />
</g>
<path d="M58.2,246.6H77.7" class="g4_52" />
<g clip-path="url(#c2_52)">
<g fill="#000000" >
<use xlink:href="#f3_m" transform="matrix(12.7,0,0,12.1,97.2,251.2)" />
<use xlink:href="#f3_1z" transform="matrix(12.7,0,0,12.1,118,251.2)" />
<use xlink:href="#f3_2b" transform="matrix(12.7,0,0,12.1,126,251.2)" />
<use xlink:href="#f3_2f" transform="matrix(12.7,0,0,12.1,135.2,251.2)" />
<use xlink:href="#f3_m" transform="matrix(12.7,0,0,12.1,146.8,251.2)" />
<use xlink:href="#f3_c" transform="matrix(12.7,0,0,12.1,165.9,251.2)" />
<use xlink:href="#f3_l" transform="matrix(12.7,0,0,12.1,170.5,251.2)" />
<use xlink:href="#f3_1z" transform="matrix(12.7,0,0,12.1,195.4,251.2)" />
<use xlink:href="#f3_2b" transform="matrix(12.7,0,0,12.1,203.4,251.2)" />
<use xlink:href="#f3_2f" transform="matrix(12.7,0,0,12.1,212.5,251.2)" />
<use xlink:href="#f3_m" transform="matrix(12.7,0,0,12.1,224.2,251.2)" />
<use xlink:href="#f3_d" transform="matrix(12.7,0,0,12.1,239.3,251.2)" />
<use xlink:href="#f3_m" transform="matrix(12.7,0,0,12.1,262.8,251.2)" />
<use xlink:href="#f3_2f" transform="matrix(12.7,0,0,12.1,285.6,251.2)" />
<use xlink:href="#f3_25" transform="matrix(12.7,0,0,12.1,292.7,251.2)" />
<use xlink:href="#f3_2a" transform="matrix(12.7,0,0,12.1,297.9,251.2)" />
<use xlink:href="#f3_m" transform="matrix(12.7,0,0,12.1,312,251.2)" />
<use xlink:href="#f3_2f" transform="matrix(12.7,0,0,12.1,336.6,251.2)" />
<use xlink:href="#f3_25" transform="matrix(12.7,0,0,12.1,343.8,251.2)" />
<use xlink:href="#f3_2a" transform="matrix(12.7,0,0,12.1,348.9,251.2)" />
<use xlink:href="#f3_m" transform="matrix(12.7,0,0,12.1,360.8,251.2)" />
<use xlink:href="#f5_20" transform="matrix(12.7,0,0,12.1,59.4,239.5)" />
<use xlink:href="#f5_2k" transform="matrix(12.7,0,0,12.1,68.5,239.5)" />
<use xlink:href="#f5_1x" transform="matrix(12.7,0,0,12.1,106.7,251.2)" />
<use xlink:href="#f5_2g" transform="matrix(12.7,0,0,12.1,155.7,251.2)" />
<use xlink:href="#f5_2g" transform="matrix(12.7,0,0,12.1,233.1,251.2)" />
<use xlink:href="#f5_1x" transform="matrix(12.7,0,0,12.1,272.3,251.2)" />
<use xlink:href="#f5_2g" transform="matrix(12.7,0,0,12.1,321,251.2)" />
<use xlink:href="#f5_2g" transform="matrix(12.7,0,0,12.1,369.8,251.2)" />
<use xlink:href="#f5_20" transform="matrix(12.7,0,0,12.1,60.5,265.5)" />
<use xlink:href="#f5_2g" transform="matrix(12.7,0,0,12.1,69.7,265.5)" />
<use xlink:href="#f6_x" transform="matrix(12.7,0,0,12.1,82.7,251.2)" />
<use xlink:href="#f6_f" transform="matrix(12.7,0,0,12.1,181.7,251.2)" />
<use xlink:href="#f6_h" transform="matrix(12.7,0,0,12.1,249.1,251.2)" />
<use xlink:href="#f6_49" transform="matrix(12.7,0,0,12.1,329.9,251.2)" />
</g>
</g>
<path d="M58.3,296.5H78" class="g5_52" />
<g clip-path="url(#c3_52)">
<g fill="#000000" >
<use xlink:href="#f3_m" transform="matrix(12.7,0,0,12.1,107.6,301)" />
<use xlink:href="#f3_2f" transform="matrix(12.7,0,0,12.1,127.2,301)" />
<use xlink:href="#f3_25" transform="matrix(12.7,0,0,12.1,134.4,301)" />
<use xlink:href="#f3_2a" transform="matrix(12.7,0,0,12.1,139.6,301)" />
<use xlink:href="#f3_m" transform="matrix(12.7,0,0,12.1,153.8,301)" />
<use xlink:href="#f3_c" transform="matrix(12.7,0,0,12.1,172.8,301)" />
<use xlink:href="#f3_l" transform="matrix(12.7,0,0,12.1,177.4,301)" />
<use xlink:href="#f3_1z" transform="matrix(12.7,0,0,12.1,202,301)" />
<use xlink:href="#f3_2b" transform="matrix(12.7,0,0,12.1,210,301)" />
<use xlink:href="#f3_2f" transform="matrix(12.7,0,0,12.1,219.2,301)" />
<use xlink:href="#f3_m" transform="matrix(12.7,0,0,12.1,230.8,301)" />
<use xlink:href="#f3_d" transform="matrix(12.7,0,0,12.1,246,301)" />
<use xlink:href="#f3_m" transform="matrix(12.7,0,0,12.1,269.7,301)" />
<use xlink:href="#f3_1z" transform="matrix(12.7,0,0,12.1,292,301)" />
<use xlink:href="#f3_2b" transform="matrix(12.7,0,0,12.1,300,301)" />
<use xlink:href="#f3_2f" transform="matrix(12.7,0,0,12.1,309.1,301)" />
<use xlink:href="#f3_m" transform="matrix(12.7,0,0,12.1,320.8,301)" />
<use xlink:href="#f3_2f" transform="matrix(12.7,0,0,12.1,345.4,301)" />
<use xlink:href="#f3_25" transform="matrix(12.7,0,0,12.1,352.6,301)" />
<use xlink:href="#f3_2a" transform="matrix(12.7,0,0,12.1,357.7,301)" />
<use xlink:href="#f3_m" transform="matrix(12.7,0,0,12.1,369.7,301)" />
<use xlink:href="#f5_20" transform="matrix(12.7,0,0,12.1,59.4,289.4)" />
<use xlink:href="#f5_2l" transform="matrix(12.7,0,0,12.1,68.6,289.4)" />
<use xlink:href="#f5_1y" transform="matrix(12.7,0,0,12.1,116.5,301)" />
<use xlink:href="#f5_2g" transform="matrix(12.7,0,0,12.1,162.7,301)" />
<use xlink:href="#f5_2g" transform="matrix(12.7,0,0,12.1,239.8,301)" />
<use xlink:href="#f5_1y" transform="matrix(12.7,0,0,12.1,278.7,301)" />
<use xlink:href="#f5_2g" transform="matrix(12.7,0,0,12.1,329.8,301)" />
<use xlink:href="#f5_2g" transform="matrix(12.7,0,0,12.1,378.6,301)" />
<use xlink:href="#f5_20" transform="matrix(12.7,0,0,12.1,60.7,315.4)" />
<use xlink:href="#f5_2g" transform="matrix(12.7,0,0,12.1,69.9,315.4)" />
<use xlink:href="#f6_x" transform="matrix(12.7,0,0,12.1,83.1,301)" />
<use xlink:href="#f6_h" transform="matrix(12.7,0,0,12.1,97.5,301)" />
<use xlink:href="#f6_h" transform="matrix(12.7,0,0,12.1,188.6,301)" />
<use xlink:href="#f6_f" transform="matrix(12.7,0,0,12.1,255.8,301)" />
<use xlink:href="#f6_49" transform="matrix(12.7,0,0,12.1,338.6,301)" />
</g>
</g>
<path d="M58.3,351.5H78" class="g6_52" />
<path d="M98.8,372.6h6.8" class="g7_52" />
<path d="M127,351.5H401.1" class="g6_52" />
<path d="M421.9,374.8h6.8" class="g7_52" />
<path d="M450.1,351.5h11.5" class="g6_52" />
<g clip-path="url(#c4_52)">
<g fill="#000000" >
<use xlink:href="#f3_o" transform="matrix(7.3,0,0,7.1,99.8,383.7)" />
<use xlink:href="#f3_o" transform="matrix(7.3,0,0,7.1,422.9,385.9)" />
<use xlink:href="#f3_m" transform="matrix(12.6,0,0,12.3,131.1,344.2)" />
<use xlink:href="#f3_1z" transform="matrix(12.6,0,0,12.3,151.1,344.2)" />
<use xlink:href="#f3_2b" transform="matrix(12.6,0,0,12.3,159.1,344.2)" />
<use xlink:href="#f3_2f" transform="matrix(12.6,0,0,12.3,168.2,344.2)" />
<use xlink:href="#f3_m" transform="matrix(12.6,0,0,12.3,179.9,344.2)" />
<use xlink:href="#f3_2f" transform="matrix(12.6,0,0,12.3,204.5,344.2)" />
<use xlink:href="#f3_25" transform="matrix(12.6,0,0,12.3,211.7,344.2)" />
<use xlink:href="#f3_2a" transform="matrix(12.6,0,0,12.3,216.8,344.2)" />
<use xlink:href="#f3_m" transform="matrix(12.6,0,0,12.3,228.7,344.2)" />
<use xlink:href="#f3_m" transform="matrix(12.6,0,0,12.3,261.1,344.2)" />
<use xlink:href="#f3_2f" transform="matrix(12.6,0,0,12.3,280.7,344.2)" />
<use xlink:href="#f3_25" transform="matrix(12.6,0,0,12.3,287.9,344.2)" />
<use xlink:href="#f3_2a" transform="matrix(12.6,0,0,12.3,293.1,344.2)" />
<use xlink:href="#f3_m" transform="matrix(12.6,0,0,12.3,305,344.2)" />
<use xlink:href="#f3_c" transform="matrix(12.6,0,0,12.3,320.2,344.2)" />
<use xlink:href="#f3_l" transform="matrix(12.6,0,0,12.3,324.8,344.2)" />
<use xlink:href="#f3_1z" transform="matrix(12.6,0,0,12.3,349.4,344.2)" />
<use xlink:href="#f3_2b" transform="matrix(12.6,0,0,12.3,357.4,344.2)" />
<use xlink:href="#f3_2f" transform="matrix(12.6,0,0,12.3,366.6,344.2)" />
<use xlink:href="#f3_m" transform="matrix(12.6,0,0,12.3,375.9,344.2)" />
<use xlink:href="#f3_d" transform="matrix(12.6,0,0,12.3,391.1,344.2)" />
<use xlink:href="#f3_m" transform="matrix(12.6,0,0,12.3,128.2,370.8)" />
<use xlink:href="#f3_1z" transform="matrix(12.6,0,0,12.3,149,370.8)" />
<use xlink:href="#f3_2b" transform="matrix(12.6,0,0,12.3,157,370.8)" />
<use xlink:href="#f3_2f" transform="matrix(12.6,0,0,12.3,166.2,370.8)" />
<use xlink:href="#f3_m" transform="matrix(12.6,0,0,12.3,177.8,370.8)" />
<use xlink:href="#f3_c" transform="matrix(12.6,0,0,12.3,196.9,370.8)" />
<use xlink:href="#f3_l" transform="matrix(12.6,0,0,12.3,201.5,370.8)" />
<use xlink:href="#f3_1z" transform="matrix(12.6,0,0,12.3,226.4,370.8)" />
<use xlink:href="#f3_2b" transform="matrix(12.6,0,0,12.3,234.4,370.8)" />
<use xlink:href="#f3_2f" transform="matrix(12.6,0,0,12.3,243.6,370.8)" />
<use xlink:href="#f3_m" transform="matrix(12.6,0,0,12.3,252.9,370.8)" />
<use xlink:href="#f3_d" transform="matrix(12.6,0,0,12.3,268.1,370.8)" />
<use xlink:href="#f3_m" transform="matrix(12.6,0,0,12.3,291.6,370.8)" />
<use xlink:href="#f3_2f" transform="matrix(12.6,0,0,12.3,312.1,370.8)" />
<use xlink:href="#f3_25" transform="matrix(12.6,0,0,12.3,319.2,370.8)" />
<use xlink:href="#f3_2a" transform="matrix(12.6,0,0,12.3,324.4,370.8)" />
<use xlink:href="#f3_m" transform="matrix(12.6,0,0,12.3,336.3,370.8)" />
<use xlink:href="#f3_2f" transform="matrix(12.6,0,0,12.3,360.9,370.8)" />
<use xlink:href="#f3_25" transform="matrix(12.6,0,0,12.3,368.1,370.8)" />
<use xlink:href="#f3_2a" transform="matrix(12.6,0,0,12.3,373.3,370.8)" />
<use xlink:href="#f3_m" transform="matrix(12.6,0,0,12.3,385.2,370.8)" />
<use xlink:href="#f5_2g" transform="matrix(7.3,0,0,7.1,87.4,375.2)" />
<use xlink:href="#f5_2g" transform="matrix(7.3,0,0,7.1,410.5,377.4)" />
<use xlink:href="#f5_20" transform="matrix(12.6,0,0,12.3,59.4,344.2)" />
<use xlink:href="#f5_2l" transform="matrix(12.6,0,0,12.3,68.6,344.2)" />
<use xlink:href="#f5_1y" transform="matrix(12.6,0,0,12.3,140,344.2)" />
<use xlink:href="#f5_2g" transform="matrix(12.6,0,0,12.3,188.8,344.2)" />
<use xlink:href="#f5_2g" transform="matrix(12.6,0,0,12.3,237.6,344.2)" />
<use xlink:href="#f5_1y" transform="matrix(12.6,0,0,12.3,269.9,344.2)" />
<use xlink:href="#f5_2g" transform="matrix(12.6,0,0,12.3,313.9,344.2)" />
<use xlink:href="#f5_2g" transform="matrix(12.6,0,0,12.3,384.8,344.2)" />
<use xlink:href="#f5_1y" transform="matrix(12.6,0,0,12.3,450.9,344.2)" />
<use xlink:href="#f5_20" transform="matrix(12.6,0,0,12.3,59.5,370.8)" />
<use xlink:href="#f5_2k" transform="matrix(12.6,0,0,12.3,68.7,370.8)" />
<use xlink:href="#f5_1x" transform="matrix(12.6,0,0,12.3,137.6,370.8)" />
<use xlink:href="#f5_2g" transform="matrix(12.6,0,0,12.3,186.7,370.8)" />
<use xlink:href="#f5_2g" transform="matrix(12.6,0,0,12.3,261.9,370.8)" />
<use xlink:href="#f5_1x" transform="matrix(12.6,0,0,12.3,301.1,370.8)" />
<use xlink:href="#f5_2g" transform="matrix(12.6,0,0,12.3,345.3,370.8)" />
<use xlink:href="#f5_2g" transform="matrix(12.6,0,0,12.3,394.1,370.8)" />
<use xlink:href="#f5_1x" transform="matrix(12.6,0,0,12.3,451.1,370.8)" />
<use xlink:href="#f6_2c" transform="matrix(7.3,0,0,7.1,99.5,368.5)" />
<use xlink:href="#f6_2c" transform="matrix(7.3,0,0,7.1,422.6,370.7)" />
<use xlink:href="#f6_x" transform="matrix(7.3,0,0,7.1,91.8,375.2)" />
<use xlink:href="#f6_x" transform="matrix(7.3,0,0,7.1,414.9,377.4)" />
<use xlink:href="#f6_57" transform="matrix(12.6,0,0,12.3,402.6,343.5)" />
<use xlink:href="#f6_49" transform="matrix(12.6,0,0,12.3,197.7,344.2)" />
<use xlink:href="#f6_h" transform="matrix(12.6,0,0,12.3,247.4,344.2)" />
<use xlink:href="#f6_h" transform="matrix(12.6,0,0,12.3,336,344.2)" />
<use xlink:href="#f6_57" transform="matrix(12.6,0,0,12.3,79.5,345.7)" />
<use xlink:href="#f6_x" transform="matrix(12.6,0,0,12.3,112.2,356.1)" />
<use xlink:href="#f6_x" transform="matrix(12.6,0,0,12.3,435.3,356.1)" />
<use xlink:href="#f6_58" transform="matrix(12.6,0,0,12.3,402.6,361.2)" />
<use xlink:href="#f6_58" transform="matrix(12.6,0,0,12.3,79.5,363.5)" />
<use xlink:href="#f6_f" transform="matrix(12.6,0,0,12.3,212.7,370.8)" />
<use xlink:href="#f6_h" transform="matrix(12.6,0,0,12.3,277.9,370.8)" />
<use xlink:href="#f6_49" transform="matrix(12.6,0,0,12.3,354.2,370.8)" />
<use xlink:href="#f6_59" transform="matrix(12.6,0,0,12.3,79.5,373)" />
<use xlink:href="#f6_59" transform="matrix(12.6,0,0,12.3,402.6,375.2)" />
</g>
</g>
<g fill="#000000" >
<use xlink:href="#f2_l" transform="matrix(12,0,0,12,55,433.9)" />
<use xlink:href="#f2_m" transform="matrix(12,0,0,12,64.2,433.9)" />
<use xlink:href="#f2_i" transform="matrix(12,0,0,12,73.4,433.9)" />
<use xlink:href="#f3_1k" transform="matrix(12,0,0,12,82.9,433.9)" />
<use xlink:href="#f3_24" transform="matrix(12,0,0,12,94.3,433.9)" />
<use xlink:href="#f3_21" transform="matrix(12,0,0,12,103.1,433.9)" />
<use xlink:href="#f3_21" transform="matrix(12,0,0,12,115.9,433.9)" />
<use xlink:href="#f3_2d" transform="matrix(12,0,0,12,123.9,433.9)" />
<use xlink:href="#f3_2h" transform="matrix(12,0,0,12,133.1,433.9)" />
<use xlink:href="#f3_1x" transform="matrix(12,0,0,12,142.3,433.9)" />
<use xlink:href="#f3_2g" transform="matrix(12,0,0,12,150,433.9)" />
<use xlink:href="#f3_25" transform="matrix(12,0,0,12,155.4,433.9)" />
<use xlink:href="#f3_2b" transform="matrix(12,0,0,12,159.8,433.9)" />
<use xlink:href="#f3_2a" transform="matrix(12,0,0,12,169.4,433.9)" />
<use xlink:href="#f3_2b" transform="matrix(12,0,0,12,182.9,433.9)" />
<use xlink:href="#f3_22" transform="matrix(12,0,0,12,192.4,433.9)" />
<use xlink:href="#f3_2g" transform="matrix(12,0,0,12,202.7,433.9)" />
<use xlink:href="#f3_1x" transform="matrix(12,0,0,12,208.2,433.9)" />
<use xlink:href="#f3_2a" transform="matrix(12,0,0,12,216.2,433.9)" />
<use xlink:href="#f3_23" transform="matrix(12,0,0,12,225,433.9)" />
<use xlink:href="#f3_21" transform="matrix(12,0,0,12,234.2,433.9)" />
<use xlink:href="#f3_2a" transform="matrix(12,0,0,12,242.6,433.9)" />
<use xlink:href="#f3_2g" transform="matrix(12,0,0,12,251.4,433.9)" />
<use xlink:href="#f3_1x" transform="matrix(12,0,0,12,261.6,433.9)" />
<use xlink:href="#f3_2g" transform="matrix(12,0,0,12,269.7,433.9)" />
<use xlink:href="#f3_c" transform="matrix(12,0,0,12,279.6,433.9)" />
<use xlink:href="#f3_m" transform="matrix(12,0,0,12,285.8,433.9)" />
<use xlink:href="#f3_g" transform="matrix(12,0,0,12,294.6,433.9)" />
<use xlink:href="#f3_n" transform="matrix(12,0,0,12,304.1,433.9)" />
<use xlink:href="#f3_d" transform="matrix(12,0,0,12,312.9,433.9)" />
<use xlink:href="#f3_2b" transform="matrix(12,0,0,12,323.5,433.9)" />
<use xlink:href="#f3_2a" transform="matrix(12,0,0,12,333,433.9)" />
<use xlink:href="#f3_2g" transform="matrix(12,0,0,12,346.2,433.9)" />
<use xlink:href="#f3_24" transform="matrix(12,0,0,12,351.7,433.9)" />
<use xlink:href="#f3_21" transform="matrix(12,0,0,12,360.5,433.9)" />
<use xlink:href="#f3_1z" transform="matrix(12,0,0,12,373.3,433.9)" />
<use xlink:href="#f3_2h" transform="matrix(12,0,0,12,381.4,433.9)" />
<use xlink:href="#f3_2e" transform="matrix(12,0,0,12,390.6,433.9)" />
<use xlink:href="#f3_2i" transform="matrix(12,0,0,12,396.8,433.9)" />
<use xlink:href="#f3_21" transform="matrix(12,0,0,12,405.6,433.9)" />
<use xlink:href="#f3_2l" transform="matrix(12,0,0,12,418.8,433.9)" />
<use xlink:href="#f3_m" transform="matrix(7.9,0,0,7.9,428.4,426.9)" />
<use xlink:href="#f3_x" transform="matrix(12,0,0,12,439.5,433.9)" />
<use xlink:href="#f3_1x" transform="matrix(12,0,0,12,454.5,433.9)" />
<use xlink:href="#f3_2k" transform="matrix(12,0,0,12,462.5,433.9)" />
<use xlink:href="#f3_n" transform="matrix(7.9,0,0,7.9,471.4,426.9)" />
<use xlink:href="#f3_f" transform="matrix(12,0,0,12,482.3,433.9)" />
<use xlink:href="#f3_1y" transform="matrix(12,0,0,12,497.4,433.9)" />
<use xlink:href="#f3_25" transform="matrix(12,0,0,12,510.9,433.9)" />
<use xlink:href="#f3_2f" transform="matrix(12,0,0,12,515.7,433.9)" />
<use xlink:href="#f3_2l" transform="matrix(12,0,0,12,527.8,433.9)" />
<use xlink:href="#f3_x" transform="matrix(12,0,0,12,540.9,433.9)" />
<use xlink:href="#f3_o" transform="matrix(12,0,0,12,556,433.9)" />
<use xlink:href="#f3_2k" transform="matrix(12,0,0,12,565.1,433.9)" />
<use xlink:href="#f4_4y" transform="matrix(12,0,0,12,578.8,433.9)" />
<use xlink:href="#f3_p" transform="matrix(12,0,0,12,592.7,433.9)" />
<use xlink:href="#f3_i" transform="matrix(12,0,0,12,601.9,433.9)" />
<use xlink:href="#f3_16" transform="matrix(12,0,0,12,611.4,433.9)" />
<use xlink:href="#f3_25" transform="matrix(12,0,0,12,621.7,433.9)" />
<use xlink:href="#f3_2a" transform="matrix(12,0,0,12,626.4,433.9)" />
<use xlink:href="#f3_20" transform="matrix(12,0,0,12,635.2,433.9)" />
<use xlink:href="#f3_2g" transform="matrix(12,0,0,12,649.1,433.9)" />
<use xlink:href="#f3_24" transform="matrix(12,0,0,12,654.6,433.9)" />
<use xlink:href="#f3_21" transform="matrix(12,0,0,12,663.4,433.9)" />
<use xlink:href="#f3_2i" transform="matrix(12,0,0,12,676.2,433.9)" />
<use xlink:href="#f3_1x" transform="matrix(12,0,0,12,685,433.9)" />
<use xlink:href="#f3_28" transform="matrix(12,0,0,12,693.5,433.9)" />
<use xlink:href="#f3_2h" transform="matrix(12,0,0,12,698.2,433.9)" />
<use xlink:href="#f3_21" transform="matrix(12,0,0,12,707.4,433.9)" />
<use xlink:href="#f3_2f" transform="matrix(12,0,0,12,715.8,433.9)" />
<use xlink:href="#f3_2b" transform="matrix(12,0,0,12,727.5,433.9)" />
<use xlink:href="#f3_22" transform="matrix(12,0,0,12,737,433.9)" />
<use xlink:href="#f3_1x" transform="matrix(12,0,0,12,747.3,433.9)" />
<use xlink:href="#f3_1x" transform="matrix(12,0,0,12,760.1,433.9)" />
<use xlink:href="#f3_2a" transform="matrix(12,0,0,12,768.2,433.9)" />
<use xlink:href="#f3_20" transform="matrix(12,0,0,12,777,433.9)" />
<use xlink:href="#f3_1y" transform="matrix(12,0,0,12,791.2,433.9)" />
<use xlink:href="#f3_i" transform="matrix(12,0,0,12,800.4,433.9)" />
<use xlink:href="#f2_1j" transform="matrix(12,0,0,12,55,469.1)" />
<use xlink:href="#f2_2b" transform="matrix(12,0,0,12,65.3,469.1)" />
<use xlink:href="#f2_28" transform="matrix(12,0,0,12,74.5,469.1)" />
<use xlink:href="#f2_2h" transform="matrix(12,0,0,12,79.2,469.1)" />
<use xlink:href="#f2_2g" transform="matrix(12,0,0,12,89.5,469.1)" />
<use xlink:href="#f2_25" transform="matrix(12,0,0,12,95.7,469.1)" />
<use xlink:href="#f2_2b" transform="matrix(12,0,0,12,100.8,469.1)" />
<use xlink:href="#f2_2a" transform="matrix(12,0,0,12,109.9,469.1)" />
<use xlink:href="#f2_u" transform="matrix(12,0,0,12,120.2,469.1)" />
</g>
<path d="M193.9,514.8h19.7m77.7,0H311m19.8,0h19.7m3,0h18.7" class="g8_52" />
<g clip-path="url(#c5_52)">
<g fill="#000000" >
<use xlink:href="#f3_m" transform="matrix(7.3,0,0,7.1,364.5,499.3)" />
<use xlink:href="#f3_m" transform="matrix(7.3,0,0,7.1,68.9,511.2)" />
<use xlink:href="#f3_n" transform="matrix(7.3,0,0,7.1,112.5,511.2)" />
<use xlink:href="#f3_m" transform="matrix(7.3,0,0,7.1,259.5,511.2)" />
<use xlink:href="#f3_n" transform="matrix(12.6,0,0,12.3,331.4,507.6)" />
<use xlink:href="#f3_m" transform="matrix(12.6,0,0,12.3,171.7,519.4)" />
<use xlink:href="#f3_n" transform="matrix(12.6,0,0,12.3,232.6,519.4)" />
<use xlink:href="#f3_m" transform="matrix(12.6,0,0,12.3,336.3,534)" />
<use xlink:href="#f5_20" transform="matrix(12.6,0,0,12.3,195,507.6)" />
<use xlink:href="#f5_2l" transform="matrix(12.6,0,0,12.3,204.2,507.6)" />
<use xlink:href="#f5_20" transform="matrix(12.6,0,0,12.3,292.4,507.6)" />
<use xlink:href="#f5_2l" transform="matrix(12.6,0,0,12.3,301.5,507.6)" />
<use xlink:href="#f5_1x" transform="matrix(12.6,0,0,12.3,340.2,507.6)" />
<use xlink:href="#f5_2k" transform="matrix(12.6,0,0,12.3,355.5,507.6)" />
<use xlink:href="#f5_2l" transform="matrix(12.6,0,0,12.3,59.7,519.4)" />
<use xlink:href="#f5_1x" transform="matrix(12.6,0,0,12.3,94.7,519.4)" />
<use xlink:href="#f5_2k" transform="matrix(12.6,0,0,12.3,103.9,519.4)" />
<use xlink:href="#f5_1y" transform="matrix(12.6,0,0,12.3,136.2,519.4)" />
<use xlink:href="#f5_2l" transform="matrix(12.6,0,0,12.3,182.8,519.4)" />
<use xlink:href="#f5_1x" transform="matrix(12.6,0,0,12.3,241.3,519.4)" />
<use xlink:href="#f5_2k" transform="matrix(12.6,0,0,12.3,250.5,519.4)" />
<use xlink:href="#f5_20" transform="matrix(12.6,0,0,12.3,195.2,534)" />
<use xlink:href="#f5_2k" transform="matrix(12.6,0,0,12.3,204.3,534)" />
<use xlink:href="#f5_20" transform="matrix(12.6,0,0,12.3,292.5,534)" />
<use xlink:href="#f5_2k" transform="matrix(12.6,0,0,12.3,301.7,534)" />
<use xlink:href="#f5_2l" transform="matrix(12.6,0,0,12.3,359.6,534)" />
<use xlink:href="#f6_x" transform="matrix(12.6,0,0,12.3,80.3,519.4)" />
<use xlink:href="#f6_f" transform="matrix(12.6,0,0,12.3,122.8,519.4)" />
<use xlink:href="#f6_4g" transform="matrix(12.6,0,0,12.3,149.2,519.4)" />
<use xlink:href="#f6_x" transform="matrix(12.6,0,0,12.3,218.6,519.4)" />
<use xlink:href="#f6_1s" transform="matrix(12.6,0,0,12.3,273.3,519.4)" />
<use xlink:href="#f6_x" transform="matrix(12.6,0,0,12.3,315.9,519.4)" />
</g>
</g>
<g fill="#000000" >
<use xlink:href="#f3_1j" transform="matrix(12,0,0,12,55,575.5)" />
<use xlink:href="#f3_28" transform="matrix(12,0,0,12,65.7,575.5)" />
<use xlink:href="#f3_2b" transform="matrix(12,0,0,12,70.1,575.5)" />
<use xlink:href="#f3_2c" transform="matrix(12,0,0,12,79.6,575.5)" />
<use xlink:href="#f3_21" transform="matrix(12,0,0,12,88.7,575.5)" />
<use xlink:href="#f3_2b" transform="matrix(12,0,0,12,101.2,575.5)" />
<use xlink:href="#f3_22" transform="matrix(12,0,0,12,110.7,575.5)" />
<use xlink:href="#f3_2g" transform="matrix(12,0,0,12,121,575.5)" />
<use xlink:href="#f3_1x" transform="matrix(12,0,0,12,126.4,575.5)" />
<use xlink:href="#f3_2a" transform="matrix(12,0,0,12,134.5,575.5)" />
<use xlink:href="#f3_23" transform="matrix(12,0,0,12,143.3,575.5)" />
<use xlink:href="#f3_21" transform="matrix(12,0,0,12,152.5,575.5)" />
<use xlink:href="#f3_2a" transform="matrix(12,0,0,12,160.9,575.5)" />
<use xlink:href="#f3_2g" transform="matrix(12,0,0,12,169.7,575.5)" />
<use xlink:href="#f3_1x" transform="matrix(12,0,0,12,179.9,575.5)" />
<use xlink:href="#f3_2g" transform="matrix(12,0,0,12,187.6,575.5)" />
<use xlink:href="#f3_c" transform="matrix(12,0,0,12,197.5,575.5)" />
<use xlink:href="#f3_m" transform="matrix(12,0,0,12,203.7,575.5)" />
<use xlink:href="#f3_g" transform="matrix(12,0,0,12,212.9,575.5)" />
<use xlink:href="#f3_n" transform="matrix(12,0,0,12,222,575.5)" />
<use xlink:href="#f3_d" transform="matrix(12,0,0,12,231.2,575.5)" />
<use xlink:href="#f3_x" transform="matrix(12,0,0,12,242.2,575.5)" />
</g>
<path d="M274.4,571.2h19.8m52.9,0h19.7m7.6,0h10.8" class="g9_52" />
<g clip-path="url(#c6_52)">
<g fill="#000000" >
<use xlink:href="#f3_c" transform="matrix(7.4,0,0,7.1,303.7,594.9)" />
<use xlink:href="#f3_m" transform="matrix(7.4,0,0,7.1,308.1,594.9)" />
<use xlink:href="#f3_g" transform="matrix(7.4,0,0,7.1,313.8,594.9)" />
<use xlink:href="#f3_n" transform="matrix(7.4,0,0,7.1,317,594.9)" />
<use xlink:href="#f3_d" transform="matrix(7.4,0,0,7.1,322.6,594.9)" />
<use xlink:href="#f3_n" transform="matrix(12.7,0,0,12.3,347.6,564)" />
<use xlink:href="#f3_o" transform="matrix(12.7,0,0,12.3,375.5,564)" />
<use xlink:href="#f3_i" transform="matrix(12.7,0,0,12.3,368.5,575.8)" />
<use xlink:href="#f3_m" transform="matrix(12.7,0,0,12.3,404.8,575.8)" />
<use xlink:href="#f3_m" transform="matrix(12.7,0,0,12.3,352.7,590.5)" />
<use xlink:href="#f3_n" transform="matrix(12.7,0,0,12.3,375.5,590.5)" />
<use xlink:href="#f5_20" transform="matrix(12.7,0,0,12.3,275.5,564)" />
<use xlink:href="#f5_2l" transform="matrix(12.7,0,0,12.3,284.7,564)" />
<use xlink:href="#f5_1x" transform="matrix(12.7,0,0,12.3,356.5,564)" />
<use xlink:href="#f5_1x" transform="matrix(12.7,0,0,12.3,414.3,575.8)" />
<use xlink:href="#f5_20" transform="matrix(12.7,0,0,12.3,275.7,590.5)" />
<use xlink:href="#f5_2k" transform="matrix(12.7,0,0,12.3,284.9,590.5)" />
<use xlink:href="#f6_57" transform="matrix(12.7,0,0,12.3,295.7,565.5)" />
<use xlink:href="#f6_x" transform="matrix(12.7,0,0,12.3,259.6,575.8)" />
<use xlink:href="#f6_x" transform="matrix(12.7,0,0,12.3,332.3,575.8)" />
<use xlink:href="#f6_x" transform="matrix(12.7,0,0,12.3,390.3,575.8)" />
<use xlink:href="#f6_58" transform="matrix(12.7,0,0,12.3,295.7,583.2)" />
<use xlink:href="#f6_59" transform="matrix(12.7,0,0,12.3,295.7,592.6)" />
</g>
</g>
<g fill="#000000" >
<use xlink:href="#f3_13" transform="matrix(12,0,0,12,55,624.2)" />
<use xlink:href="#f3_2b" transform="matrix(12,0,0,12,67.1,624.2)" />
<use xlink:href="#f3_29" transform="matrix(12,0,0,12,76.7,624.2)" />
<use xlink:href="#f3_2c" transform="matrix(12,0,0,12,90.2,624.2)" />
<use xlink:href="#f3_1x" transform="matrix(12,0,0,12,99.4,624.2)" />
<use xlink:href="#f3_2e" transform="matrix(12,0,0,12,107.5,624.2)" />
<use xlink:href="#f3_25" transform="matrix(12,0,0,12,114,624.2)" />
<use xlink:href="#f3_2a" transform="matrix(12,0,0,12,118.8,624.2)" />
<use xlink:href="#f3_23" transform="matrix(12,0,0,12,128,624.2)" />
<use xlink:href="#f3_2j" transform="matrix(12,0,0,12,141.9,624.2)" />
<use xlink:href="#f3_25" transform="matrix(12,0,0,12,155.4,624.2)" />
<use xlink:href="#f3_2g" transform="matrix(12,0,0,12,159.8,624.2)" />
<use xlink:href="#f3_24" transform="matrix(12,0,0,12,165.3,624.2)" />
<use xlink:href="#f3_2f" transform="matrix(12,0,0,12,178.9,624.2)" />
<use xlink:href="#f3_28" transform="matrix(12,0,0,12,186.2,624.2)" />
<use xlink:href="#f3_2b" transform="matrix(12,0,0,12,190.6,624.2)" />
<use xlink:href="#f3_2c" transform="matrix(12,0,0,12,200.1,624.2)" />
<use xlink:href="#f3_21" transform="matrix(12,0,0,12,209.3,624.2)" />
<use xlink:href="#f3_2b" transform="matrix(12,0,0,12,222.1,624.2)" />
<use xlink:href="#f3_22" transform="matrix(12,0,0,12,231.6,624.2)" />
<use xlink:href="#f3_2g" transform="matrix(12,0,0,12,241.8,624.2)" />
<use xlink:href="#f3_1x" transform="matrix(12,0,0,12,247.3,624.2)" />
<use xlink:href="#f3_2a" transform="matrix(12,0,0,12,255.4,624.2)" />
<use xlink:href="#f3_23" transform="matrix(12,0,0,12,264.2,624.2)" />
<use xlink:href="#f3_21" transform="matrix(12,0,0,12,273.3,624.2)" />
<use xlink:href="#f3_2a" transform="matrix(12,0,0,12,281.8,624.2)" />
<use xlink:href="#f3_2g" transform="matrix(12,0,0,12,290.6,624.2)" />
<use xlink:href="#f3_2l" transform="matrix(12,0,0,12,301.2,624.2)" />
<use xlink:href="#f3_x" transform="matrix(12,0,0,12,314.3,624.2)" />
<use xlink:href="#f3_o" transform="matrix(12,0,0,12,329.4,624.2)" />
<use xlink:href="#f3_2k" transform="matrix(12,0,0,12,338.5,624.2)" />
<use xlink:href="#f4_4y" transform="matrix(12,0,0,12,352.5,624.2)" />
<use xlink:href="#f3_p" transform="matrix(12,0,0,12,366.5,624.2)" />
<use xlink:href="#f3_g" transform="matrix(12,0,0,12,375.6,624.2)" />
<use xlink:href="#f3_2j" transform="matrix(12,0,0,12,385.1,624.2)" />
<use xlink:href="#f3_21" transform="matrix(12,0,0,12,398.4,624.2)" />
<use xlink:href="#f3_23" transform="matrix(12,0,0,12,411.1,624.2)" />
<use xlink:href="#f3_21" transform="matrix(12,0,0,12,420.3,624.2)" />
<use xlink:href="#f3_2g" transform="matrix(12,0,0,12,428,624.2)" />
<use xlink:href="#f3_g" transform="matrix(12,0,0,12,433.1,624.2)" />
<use xlink:href="#f3_m" transform="matrix(12,0,0,12,442.6,624.2)" />
<use xlink:href="#f3_1x" transform="matrix(12,0,0,12,451.8,624.2)" />
<use xlink:href="#f3_x" transform="matrix(12,0,0,12,464.6,624.2)" />
<use xlink:href="#f3_o" transform="matrix(12,0,0,12,479.3,624.2)" />
</g>
<path d="M511.2,606.3v22.5m43.3,-22.5v22.5m-43.8,-22H555m-44.3,21.6H555" class="g10_52" />
<g clip-path="url(#c7_52)">
<g fill="#000000" >
<use xlink:href="#f3_m" transform="matrix(12.7,0,0,12.3,542.7,624.5)" />
<use xlink:href="#f5_1x" transform="matrix(12.7,0,0,12.3,514.4,624.5)" />
<use xlink:href="#f6_1s" transform="matrix(12.7,0,0,12.3,492.9,624.5)" />
<use xlink:href="#f6_x" transform="matrix(12.7,0,0,12.3,528.3,624.5)" />
</g>
</g>
<g fill="#000000" >
<use xlink:href="#f3_11" transform="matrix(12,0,0,12,55,652.5)" />
<use xlink:href="#f3_28" transform="matrix(12,0,0,12,68.3,652.5)" />
<use xlink:href="#f3_2f" transform="matrix(12,0,0,12,73,652.5)" />
<use xlink:href="#f3_2b" transform="matrix(12,0,0,12,80,652.5)" />
<use xlink:href="#f3_c" transform="matrix(12,0,0,12,94.2,652.5)" />
<use xlink:href="#f3_m" transform="matrix(12,0,0,12,100.4,652.5)" />
<use xlink:href="#f3_g" transform="matrix(12,0,0,12,109.6,652.5)" />
<use xlink:href="#f3_n" transform="matrix(12,0,0,12,119.1,652.5)" />
<use xlink:href="#f3_d" transform="matrix(12,0,0,12,127.9,652.5)" />
<use xlink:href="#f3_28" transform="matrix(12,0,0,12,138.9,652.5)" />
<use xlink:href="#f3_25" transform="matrix(12,0,0,12,143.6,652.5)" />
<use xlink:href="#f3_21" transform="matrix(12,0,0,12,148.4,652.5)" />
<use xlink:href="#f3_2f" transform="matrix(12,0,0,12,156.5,652.5)" />
<use xlink:href="#f3_2b" transform="matrix(12,0,0,12,168.2,652.5)" />
<use xlink:href="#f3_2a" transform="matrix(12,0,0,12,177.7,652.5)" />
<use xlink:href="#f3_2g" transform="matrix(12,0,0,12,191.3,652.5)" />
<use xlink:href="#f3_24" transform="matrix(12,0,0,12,196.7,652.5)" />
<use xlink:href="#f3_21" transform="matrix(12,0,0,12,205.5,652.5)" />
<use xlink:href="#f3_1z" transform="matrix(12,0,0,12,218.4,652.5)" />
<use xlink:href="#f3_2h" transform="matrix(12,0,0,12,226.4,652.5)" />
<use xlink:href="#f3_2e" transform="matrix(12,0,0,12,235.6,652.5)" />
<use xlink:href="#f3_2i" transform="matrix(12,0,0,12,241.8,652.5)" />
<use xlink:href="#f3_21" transform="matrix(12,0,0,12,250.6,652.5)" />
</g>
<g clip-path="url(#c8_52)">
<g fill="#000000" >
<use xlink:href="#f6_1s" transform="matrix(12.8,0,0,11.8,263.7,652.6)" />
</g>
</g>
<g fill="#000000" >
<use xlink:href="#f3_t" transform="matrix(12,0,0,12,281.3,652.5)" />
<use xlink:href="#f3_x" transform="matrix(12,0,0,12,295.3,652.5)" />
<use xlink:href="#f3_s" transform="matrix(12,0,0,12,310.3,652.5)" />
<use xlink:href="#f3_1x" transform="matrix(12,0,0,12,319.4,652.5)" />
<use xlink:href="#f3_f" transform="matrix(12,0,0,12,332.3,652.5)" />
<use xlink:href="#f3_1y" transform="matrix(12,0,0,12,347.3,652.5)" />
<use xlink:href="#f3_g" transform="matrix(12,0,0,12,356.1,652.5)" />
<use xlink:href="#f3_2c" transform="matrix(12,0,0,12,365.6,652.5)" />
<use xlink:href="#f3_2h" transform="matrix(12,0,0,12,374.7,652.5)" />
<use xlink:href="#f3_2g" transform="matrix(12,0,0,12,383.5,652.5)" />
<use xlink:href="#f3_1x" transform="matrix(12,0,0,12,393.4,652.5)" />
<use xlink:href="#f3_x" transform="matrix(12,0,0,12,406.2,652.5)" />
<use xlink:href="#f3_m" transform="matrix(12,0,0,12,421.2,652.5)" />
<use xlink:href="#f3_g" transform="matrix(12,0,0,12,430,652.5)" />
<use xlink:href="#f3_2j" transform="matrix(12,0,0,12,439.2,652.5)" />
<use xlink:href="#f3_21" transform="matrix(12,0,0,12,452.4,652.5)" />
<use xlink:href="#f3_23" transform="matrix(12,0,0,12,465.2,652.5)" />
<use xlink:href="#f3_21" transform="matrix(12,0,0,12,474.4,652.5)" />
<use xlink:href="#f3_2g" transform="matrix(12,0,0,12,482.4,652.5)" />
<use xlink:href="#f3_1y" transform="matrix(12,0,0,12,492.3,652.5)" />
<use xlink:href="#f3_x" transform="matrix(12,0,0,12,505.9,652.5)" />
<use xlink:href="#f4_4y" transform="matrix(12,0,0,12,521.2,652.5)" />
<use xlink:href="#f3_r" transform="matrix(12,0,0,12,535.2,652.5)" />
<use xlink:href="#f2_l" transform="matrix(12,0,0,12,55,716.3)" />
<use xlink:href="#f2_n" transform="matrix(12,0,0,12,64.2,716.3)" />
<use xlink:href="#f2_i" transform="matrix(12,0,0,12,73.4,716.3)" />
<use xlink:href="#f3_16" transform="matrix(12,0,0,12,82.9,716.3)" />
<use xlink:href="#f3_25" transform="matrix(12,0,0,12,93.2,716.3)" />
<use xlink:href="#f3_2a" transform="matrix(12,0,0,12,97.9,716.3)" />
<use xlink:href="#f3_20" transform="matrix(12,0,0,12,106.7,716.3)" />
<use xlink:href="#f3_u" transform="matrix(12,0,0,12,115.9,716.3)" />
</g>
<path d="M139.2,711.7h79.1" class="g11_52" />
<g clip-path="url(#c9_52)">
<g fill="#000000" >
<use xlink:href="#f3_m" transform="matrix(7.4,0,0,7.2,180.4,696.4)" />
<use xlink:href="#f3_o" transform="matrix(7.4,0,0,7.2,150.2,722.4)" />
<use xlink:href="#f3_m" transform="matrix(7.4,0,0,7.2,184.4,722.4)" />
<use xlink:href="#f3_m" transform="matrix(12.6,0,0,12.4,208.6,730.7)" />
<use xlink:href="#f5_2k" transform="matrix(12.6,0,0,12.4,171.4,704.8)" />
<use xlink:href="#f5_2k" transform="matrix(12.6,0,0,12.4,141.3,730.7)" />
<use xlink:href="#f5_2k" transform="matrix(12.6,0,0,12.4,175.5,730.7)" />
<use xlink:href="#f6_f" transform="matrix(12.6,0,0,12.4,160.7,730.7)" />
<use xlink:href="#f6_h" transform="matrix(12.6,0,0,12.4,195,730.7)" />
<use xlink:href="#f6_50" transform="matrix(19,0,0,18.6,128.9,723.1)" />
</g>
</g>
<g fill="#000000" >
<use xlink:href="#f2_1j" transform="matrix(12,0,0,12,55,765.8)" />
<use xlink:href="#f2_2b" transform="matrix(12,0,0,12,65.3,765.8)" />
<use xlink:href="#f2_28" transform="matrix(12,0,0,12,74.5,765.8)" />
<use xlink:href="#f2_2h" transform="matrix(12,0,0,12,79.2,765.8)" />
<use xlink:href="#f2_2g" transform="matrix(12,0,0,12,89.5,765.8)" />
<use xlink:href="#f2_25" transform="matrix(12,0,0,12,95.7,765.8)" />
<use xlink:href="#f2_2b" transform="matrix(12,0,0,12,100.8,765.8)" />
<use xlink:href="#f2_2a" transform="matrix(12,0,0,12,109.9,765.8)" />
<use xlink:href="#f2_u" transform="matrix(12,0,0,12,120.2,765.8)" />
<use xlink:href="#f3_1c" transform="matrix(12,0,0,12,55,815.7)" />
<use xlink:href="#f3_21" transform="matrix(12,0,0,12,66,815.7)" />
<use xlink:href="#f3_2g" transform="matrix(12,0,0,12,74.1,815.7)" />
<use xlink:href="#f3_2k" transform="matrix(12,0,0,12,84.3,815.7)" />
<use xlink:href="#f3_m" transform="matrix(7.9,0,0,7.9,93.2,808.7)" />
<use xlink:href="#f3_x" transform="matrix(12,0,0,12,104.2,815.7)" />
<use xlink:href="#f3_2g" transform="matrix(12,0,0,12,118.8,815.7)" />
</g>
<path d="M146.4,811.5h79.5m19.8,0H356.1m19.9,0h87.8m19.8,0h30.3m18.6,0h34.1" class="g12_52" />
<g clip-path="url(#c10_52)">
<g fill="#000000" >
<use xlink:href="#f3_m" transform="matrix(7.3,0,0,7.1,187.8,796)" />
<use xlink:href="#f3_m" transform="matrix(7.3,0,0,7.1,302.6,796)" />
<use xlink:href="#f3_o" transform="matrix(7.3,0,0,7.1,157.3,822.5)" />
<use xlink:href="#f3_m" transform="matrix(7.3,0,0,7.1,191.8,822.5)" />
<use xlink:href="#f3_m" transform="matrix(7.3,0,0,7.1,262.9,822.5)" />
<use xlink:href="#f3_m" transform="matrix(7.3,0,0,7.1,315.4,822.5)" />
<use xlink:href="#f3_m" transform="matrix(12.7,0,0,12.3,216.2,830.7)" />
<use xlink:href="#f3_c" transform="matrix(12.7,0,0,12.3,246.6,830.7)" />
<use xlink:href="#f3_l" transform="matrix(12.7,0,0,12.3,285.3,830.7)" />
<use xlink:href="#f3_d" transform="matrix(12.7,0,0,12.3,293,830.7)" />
<use xlink:href="#f3_c" transform="matrix(12.7,0,0,12.3,299,830.7)" />
<use xlink:href="#f3_m" transform="matrix(12.7,0,0,12.3,340.1,830.7)" />
<use xlink:href="#f3_d" transform="matrix(12.7,0,0,12.3,349.3,830.7)" />
<use xlink:href="#f3_c" transform="matrix(12.7,0,0,12.3,376.8,830.7)" />
<use xlink:href="#f3_l" transform="matrix(12.7,0,0,12.3,404.2,830.7)" />
<use xlink:href="#f3_d" transform="matrix(12.7,0,0,12.3,411.9,830.7)" />
<use xlink:href="#f3_c" transform="matrix(12.7,0,0,12.3,418,830.7)" />
<use xlink:href="#f3_m" transform="matrix(12.7,0,0,12.3,447.7,830.7)" />
<use xlink:href="#f3_d" transform="matrix(12.7,0,0,12.3,456.9,830.7)" />
<use xlink:href="#f3_l" transform="matrix(12.7,0,0,12.3,505.6,830.7)" />
<use xlink:href="#f3_m" transform="matrix(12.7,0,0,12.3,556.7,830.7)" />
<use xlink:href="#f5_2k" transform="matrix(12.7,0,0,12.3,178.8,804.3)" />
<use xlink:href="#f5_2k" transform="matrix(12.7,0,0,12.3,293.5,804.3)" />
<use xlink:href="#f5_2g" transform="matrix(12.7,0,0,12.3,416.7,804.3)" />
<use xlink:href="#f5_11" transform="matrix(12.7,0,0,12.3,494.3,804.3)" />
<use xlink:href="#f5_12" transform="matrix(12.7,0,0,12.3,544.2,804.3)" />
<use xlink:href="#f5_2k" transform="matrix(12.7,0,0,12.3,148.3,830.7)" />
<use xlink:href="#f5_2k" transform="matrix(12.7,0,0,12.3,182.8,830.7)" />
<use xlink:href="#f5_2k" transform="matrix(12.7,0,0,12.3,253.9,830.7)" />
<use xlink:href="#f5_2k" transform="matrix(12.7,0,0,12.3,306.4,830.7)" />
<use xlink:href="#f5_2g" transform="matrix(12.7,0,0,12.3,382.7,830.7)" />
<use xlink:href="#f5_2g" transform="matrix(12.7,0,0,12.3,423.9,830.7)" />
<use xlink:href="#f5_2g" transform="matrix(12.7,0,0,12.3,484.1,830.7)" />
<use xlink:href="#f5_2g" transform="matrix(12.7,0,0,12.3,533,830.7)" />
<use xlink:href="#f6_1s" transform="matrix(12.7,0,0,12.3,128.4,816.1)" />
<use xlink:href="#f6_x" transform="matrix(12.7,0,0,12.3,230.9,816.1)" />
<use xlink:href="#f6_x" transform="matrix(12.7,0,0,12.3,361.2,816.1)" />
<use xlink:href="#f6_x" transform="matrix(12.7,0,0,12.3,468.8,816.1)" />
<use xlink:href="#f6_f" transform="matrix(12.7,0,0,12.3,518.2,816.1)" />
<use xlink:href="#f6_f" transform="matrix(12.7,0,0,12.3,168,830.7)" />
<use xlink:href="#f6_h" transform="matrix(12.7,0,0,12.3,202.4,830.7)" />
<use xlink:href="#f6_h" transform="matrix(12.7,0,0,12.3,273.6,830.7)" />
<use xlink:href="#f6_f" transform="matrix(12.7,0,0,12.3,326,830.7)" />
<use xlink:href="#f6_h" transform="matrix(12.7,0,0,12.3,392.4,830.7)" />
<use xlink:href="#f6_f" transform="matrix(12.7,0,0,12.3,433.6,830.7)" />
<use xlink:href="#f6_h" transform="matrix(12.7,0,0,12.3,493.8,830.7)" />
<use xlink:href="#f6_f" transform="matrix(12.7,0,0,12.3,542.7,830.7)" />
</g>
</g>
<g fill="#000000" >
<use xlink:href="#f3_1j" transform="matrix(12,0,0,12,55,869.9)" />
<use xlink:href="#f3_2b" transform="matrix(12,0,0,12,65.3,869.9)" />
<use xlink:href="#f3_28" transform="matrix(12,0,0,12,74.8,869.9)" />
<use xlink:href="#f3_2i" transform="matrix(12,0,0,12,79.6,869.9)" />
<use xlink:href="#f3_25" transform="matrix(12,0,0,12,88.7,869.9)" />
<use xlink:href="#f3_2a" transform="matrix(12,0,0,12,93.5,869.9)" />
<use xlink:href="#f3_23" transform="matrix(12,0,0,12,102.7,869.9)" />
<use xlink:href="#f3_22" transform="matrix(12,0,0,12,116.9,869.9)" />
<use xlink:href="#f3_2b" transform="matrix(12,0,0,12,122.4,869.9)" />
<use xlink:href="#f3_2e" transform="matrix(12,0,0,12,132,869.9)" />
<use xlink:href="#f3_11" transform="matrix(12,0,0,12,142.9,869.9)" />
<use xlink:href="#f3_1x" transform="matrix(12,0,0,12,160.5,869.9)" />
<use xlink:href="#f3_2a" transform="matrix(12,0,0,12,168.6,869.9)" />
<use xlink:href="#f3_20" transform="matrix(12,0,0,12,177.4,869.9)" />
<use xlink:href="#f3_12" transform="matrix(12,0,0,12,191.3,869.9)" />
<use xlink:href="#f3_2g" transform="matrix(12,0,0,12,208.1,869.9)" />
<use xlink:href="#f3_2b" transform="matrix(12,0,0,12,213.2,869.9)" />
<use xlink:href="#f3_23" transform="matrix(12,0,0,12,227.2,869.9)" />
<use xlink:href="#f3_21" transform="matrix(12,0,0,12,236.4,869.9)" />
<use xlink:href="#f3_2g" transform="matrix(12,0,0,12,244.1,869.9)" />
<use xlink:href="#f3_g" transform="matrix(12,0,0,12,249.5,869.9)" />
</g>
<path d="M292.8,865.9h9.7m42.4,0h10.9" class="g13_52" />
<g clip-path="url(#c11_52)">
<g fill="#000000" >
<use xlink:href="#f3_l" transform="matrix(12.8,0,0,12.1,293.1,858.8)" />
<use xlink:href="#f3_m" transform="matrix(12.8,0,0,12.1,346,858.8)" />
<use xlink:href="#f3_g" transform="matrix(12.8,0,0,12.1,304.7,870.5)" />
<use xlink:href="#f3_n" transform="matrix(12.8,0,0,12.1,293.4,884.9)" />
<use xlink:href="#f3_n" transform="matrix(12.8,0,0,12.1,346,884.9)" />
<use xlink:href="#f5_11" transform="matrix(12.8,0,0,12.1,262.9,870.5)" />
<use xlink:href="#f5_12" transform="matrix(12.8,0,0,12.1,314.1,870.5)" />
<use xlink:href="#f6_x" transform="matrix(12.8,0,0,12.1,278,870.5)" />
<use xlink:href="#f6_x" transform="matrix(12.8,0,0,12.1,330.1,870.5)" />
</g>
</g>
<path d="M68.6,920.8h79.5m41.8,0h9.7m13.4,0h41.7m38.2,0h10.9m13.4,0h45.3m39.5,0h10.6m31.7,0h34.4M441.4,898v45.6M480.9,898v45.6" class="g14_52" />
<path d="M503,909.6l1.9,-1m0,0l4.4,7.1m0,.1l4.9,-19.2m0,0h10.5" class="g15_52" />
<path fill-rule="evenodd" d="M502.1,908.6l2.5,-1.4l3.9,5.9L513,895.4h10.9v.9H513.7L509,915.1h-.9l-4.5,-6.6l-1.3,.6l-.2,-.5Z" class="g16_52" />
<path d="M500.6,920.8h24.7" class="g14_52" />
<path d="M568.6,937.3l1.9,-1m0,0l4.5,7.2m0,0l4.8,-19.1m0,-.1h10.5" class="g15_52" />
<path fill-rule="evenodd" d="M567.8,936.3l2.5,-1.4l3.9,5.9l4.5,-17.7h10.9v1H579.4l-4.8,18.7h-.9l-4.4,-6.6l-1.3,.6l-.2,-.5Z" class="g16_52" />
<path d="M566.3,920.8H591" class="g14_52" />
<g clip-path="url(#c12_52)">
<g fill="#000000" >
<use xlink:href="#f3_m" transform="matrix(7.4,0,0,7.1,110,905.3)" />
<use xlink:href="#f3_l" transform="matrix(7.4,0,0,7.1,557.8,917.2)" />
<use xlink:href="#f3_o" transform="matrix(7.4,0,0,7.1,79.6,931.8)" />
<use xlink:href="#f3_m" transform="matrix(7.4,0,0,7.1,114.1,931.8)" />
<use xlink:href="#f3_m" transform="matrix(7.4,0,0,7.1,224,931.8)" />
<use xlink:href="#f3_m" transform="matrix(7.4,0,0,7.1,328.1,931.8)" />
<use xlink:href="#f3_l" transform="matrix(12.7,0,0,12.3,190.2,913.6)" />
<use xlink:href="#f3_l" transform="matrix(12.7,0,0,12.3,229.2,913.6)" />
<use xlink:href="#f3_m" transform="matrix(12.7,0,0,12.3,294,913.6)" />
<use xlink:href="#f3_l" transform="matrix(12.7,0,0,12.3,335.2,913.6)" />
<use xlink:href="#f3_l" transform="matrix(12.7,0,0,12.3,402.7,913.6)" />
<use xlink:href="#f3_l" transform="matrix(12.7,0,0,12.3,470.2,913.6)" />
<use xlink:href="#f3_m" transform="matrix(12.7,0,0,12.3,514.1,913.6)" />
<use xlink:href="#f3_28" transform="matrix(12.7,0,0,12.3,415.1,925.4)" />
<use xlink:href="#f3_2b" transform="matrix(12.7,0,0,12.3,419.9,925.4)" />
<use xlink:href="#f3_23" transform="matrix(12.7,0,0,12.3,429.1,925.4)" />
<use xlink:href="#f3_2g" transform="matrix(12.7,0,0,12.3,528.4,925.4)" />
<use xlink:href="#f3_1x" transform="matrix(12.7,0,0,12.3,533.5,925.4)" />
<use xlink:href="#f3_2a" transform="matrix(12.7,0,0,12.3,541.5,925.4)" />
<use xlink:href="#f3_13" transform="matrix(12.7,0,0,12.3,609,925.4)" />
<use xlink:href="#f3_m" transform="matrix(12.7,0,0,12.3,138.4,940.1)" />
<use xlink:href="#f3_n" transform="matrix(12.7,0,0,12.3,190.5,940.1)" />
<use xlink:href="#f3_l" transform="matrix(12.7,0,0,12.3,246.3,940.1)" />
<use xlink:href="#f3_n" transform="matrix(12.7,0,0,12.3,294,940.1)" />
<use xlink:href="#f3_m" transform="matrix(12.7,0,0,12.3,352.7,940.1)" />
<use xlink:href="#f3_q" transform="matrix(12.7,0,0,12.3,402.8,940.1)" />
<use xlink:href="#f3_l" transform="matrix(12.7,0,0,12.3,470.3,940.1)" />
<use xlink:href="#f3_n" transform="matrix(12.7,0,0,12.3,508.6,940.1)" />
<use xlink:href="#f3_m" transform="matrix(12.7,0,0,12.3,579.9,941.3)" />
<use xlink:href="#f5_2k" transform="matrix(12.7,0,0,12.3,101,913.6)" />
<use xlink:href="#f5_2k" transform="matrix(12.7,0,0,12.3,446.5,913.6)" />
<use xlink:href="#f5_2k" transform="matrix(12.7,0,0,12.3,575.1,913.6)" />
<use xlink:href="#f5_20" transform="matrix(12.7,0,0,12.3,153.2,925.4)" />
<use xlink:href="#f5_2k" transform="matrix(12.7,0,0,12.3,162.3,925.4)" />
<use xlink:href="#f5_20" transform="matrix(12.7,0,0,12.3,257.4,925.4)" />
<use xlink:href="#f5_2k" transform="matrix(12.7,0,0,12.3,266.5,925.4)" />
<use xlink:href="#f5_20" transform="matrix(12.7,0,0,12.3,365.2,925.4)" />
<use xlink:href="#f5_2k" transform="matrix(12.7,0,0,12.3,374.4,925.4)" />
<use xlink:href="#f5_2k" transform="matrix(12.7,0,0,12.3,70.6,940.1)" />
<use xlink:href="#f5_2k" transform="matrix(12.7,0,0,12.3,105.1,940.1)" />
<use xlink:href="#f5_2k" transform="matrix(12.7,0,0,12.3,215,940.1)" />
<use xlink:href="#f5_2k" transform="matrix(12.7,0,0,12.3,319.1,940.1)" />
<use xlink:href="#f5_2k" transform="matrix(12.7,0,0,12.3,446.3,940.1)" />
<use xlink:href="#f6_h" transform="matrix(7.4,0,0,7.1,552,917.2)" />
<use xlink:href="#f6_h" transform="matrix(12.7,0,0,12.3,458.5,913.6)" />
<use xlink:href="#f6_x" transform="matrix(12.7,0,0,12.3,175.1,925.4)" />
<use xlink:href="#f6_f" transform="matrix(12.7,0,0,12.3,278.6,925.4)" />
<use xlink:href="#f6_x" transform="matrix(12.7,0,0,12.3,387.2,925.4)" />
<use xlink:href="#f6_f" transform="matrix(12.7,0,0,12.3,486.3,925.4)" />
<use xlink:href="#f6_f" transform="matrix(12.7,0,0,12.3,595.2,925.4)" />
<use xlink:href="#f6_f" transform="matrix(12.7,0,0,12.3,90.2,940.1)" />
<use xlink:href="#f6_h" transform="matrix(12.7,0,0,12.3,124.6,940.1)" />
<use xlink:href="#f6_h" transform="matrix(12.7,0,0,12.3,234.6,940.1)" />
<use xlink:href="#f6_f" transform="matrix(12.7,0,0,12.3,338.7,940.1)" />
<use xlink:href="#f6_f" transform="matrix(12.7,0,0,12.3,458.3,940.1)" />
<use xlink:href="#f6_50" transform="matrix(19,0,0,18.4,58.2,932.1)" />
<use xlink:href="#f6_50" transform="matrix(19,0,0,18.4,202.7,932.1)" />
<use xlink:href="#f6_50" transform="matrix(19,0,0,18.4,306.8,932.1)" />
</g>
</g>
<g fill="#000000" >
<use xlink:href="#f2_l" transform="matrix(12,0,0,12,55,1021.5)" />
<use xlink:href="#f2_o" transform="matrix(12,0,0,12,64.2,1021.5)" />
<use xlink:href="#f2_i" transform="matrix(12,0,0,12,73.4,1021.5)" />
</g>
<path d="M96.1,1017.4H184" class="g17_52" />
<path d="M86,991h6.8" class="g18_52" />
<g clip-path="url(#c13_52)">
<g fill="#000000" >
<use xlink:href="#f3_m" transform="matrix(7.3,0,0,7.1,86.9,1002.1)" />
<use xlink:href="#f3_k" transform="matrix(7.3,0,0,7.1,86.8,1041.8)" />
<use xlink:href="#f3_2f" transform="matrix(12.6,0,0,12.2,118.5,1010.2)" />
<use xlink:href="#f3_25" transform="matrix(12.6,0,0,12.2,125.7,1010.2)" />
<use xlink:href="#f3_2a" transform="matrix(12.6,0,0,12.2,130.8,1010.2)" />
<use xlink:href="#f3_m" transform="matrix(12.6,0,0,12.2,142.8,1010.2)" />
<use xlink:href="#f3_2f" transform="matrix(12.6,0,0,12.2,96.7,1036.5)" />
<use xlink:href="#f3_25" transform="matrix(12.6,0,0,12.2,103.8,1036.5)" />
<use xlink:href="#f3_2a" transform="matrix(12.6,0,0,12.2,109,1036.5)" />
<use xlink:href="#f3_1z" transform="matrix(12.6,0,0,12.2,147.5,1036.5)" />
<use xlink:href="#f3_2b" transform="matrix(12.6,0,0,12.2,155.5,1036.5)" />
<use xlink:href="#f3_2f" transform="matrix(12.6,0,0,12.2,164.7,1036.5)" />
<use xlink:href="#f5_2k" transform="matrix(12.6,0,0,12.2,153,1010.2)" />
<use xlink:href="#f5_2k" transform="matrix(12.6,0,0,12.2,121.7,1036.5)" />
<use xlink:href="#f5_2k" transform="matrix(12.6,0,0,12.2,174.9,1036.5)" />
<use xlink:href="#f6_2c" transform="matrix(7.3,0,0,7.1,86.6,986.9)" />
<use xlink:href="#f6_f" transform="matrix(12.6,0,0,12.2,133.8,1036.5)" />
<use xlink:href="#f6_50" transform="matrix(18.9,0,0,18.4,85.7,1028.6)" />
</g>
</g>
<g fill="#000000" >
<use xlink:href="#f2_1f" transform="matrix(12,0,0,12,440.9,1076.8)" />
<use xlink:href="#f2_1i" transform="matrix(12,0,0,12,455.2,1076.8)" />
<use xlink:href="#f3_15" transform="matrix(12,0,0,12,55,1142.8)" />
<use xlink:href="#f3_2i" transform="matrix(12,0,0,12,66.4,1142.8)" />
<use xlink:href="#f3_1x" transform="matrix(12,0,0,12,75.2,1142.8)" />
<use xlink:href="#f3_28" transform="matrix(12,0,0,12,83.6,1142.8)" />
<use xlink:href="#f3_2h" transform="matrix(12,0,0,12,88.4,1142.8)" />
<use xlink:href="#f3_1x" transform="matrix(12,0,0,12,97.5,1142.8)" />
<use xlink:href="#f3_2g" transform="matrix(12,0,0,12,105.6,1142.8)" />
<use xlink:href="#f3_21" transform="matrix(12,0,0,12,111.1,1142.8)" />
<use xlink:href="#f3_u" transform="matrix(12,0,0,12,119.1,1142.8)" />
</g>
<path d="M142.8,1127.1v22.3m59.8,-22.3v22.3" class="g19_52" />
<path d="M132.4,1111.4h6.5" class="g20_52" />
<g clip-path="url(#c14_52)">
<g fill="#000000" >
<use xlink:href="#f3_n" transform="matrix(7.2,0,0,7.2,133.2,1107.2)" />
<use xlink:href="#f3_m" transform="matrix(7.2,0,0,7.2,133.2,1122.7)" />
<use xlink:href="#f3_k" transform="matrix(7.2,0,0,7.2,133,1163.2)" />
<use xlink:href="#f3_1z" transform="matrix(12.4,0,0,12.4,155.9,1142.9)" />
<use xlink:href="#f3_2b" transform="matrix(12.4,0,0,12.4,164,1142.9)" />
<use xlink:href="#f3_2f" transform="matrix(12.4,0,0,12.4,173.3,1142.9)" />
<use xlink:href="#f5_2k" transform="matrix(12.4,0,0,12.4,145.6,1142.9)" />
<use xlink:href="#f5_2k" transform="matrix(12.4,0,0,12.4,192.5,1142.9)" />
<use xlink:href="#f5_20" transform="matrix(12.4,0,0,12.4,205.7,1142.9)" />
<use xlink:href="#f5_2k" transform="matrix(12.4,0,0,12.4,215,1142.9)" />
<use xlink:href="#f6_2c" transform="matrix(12.4,0,0,12.4,182.7,1142.9)" />
<use xlink:href="#f6_50" transform="matrix(18.6,0,0,18.6,132,1149.6)" />
</g>
</g>
<path fill-rule="evenodd" d="M37.4,38.1h.7v-.7h-.7v.7Z" class="g16_52" />
<path fill-rule="evenodd" d="M37.4,38.1h.7v-.7h-.7v.7Z" class="g16_52" />
<path fill-rule="evenodd" d="M38.1,38.1H871.5v-.7H38.1v.7Z" class="g16_52" />
<path fill-rule="evenodd" d="M871.5,38.1h.8v-.7h-.8v.7Z" class="g16_52" />
<path fill-rule="evenodd" d="M871.5,38.1h.8v-.7h-.8v.7Z" class="g16_52" />
<path fill-rule="evenodd" d="M37.4,1248.5h.7V38.1h-.7V1248.5Z" class="g16_52" />
<path fill-rule="evenodd" d="M872.3,1248.5h.7V38.1h-.7V1248.5Z" class="g16_52" />
<path fill-rule="evenodd" d="M871.5,1248.5h.8V38.1h-.8V1248.5Z" class="g16_52" />
<path fill-rule="evenodd" d="M37.4,1249.2h.7v-.7h-.7v.7Z" class="g16_52" />
<path fill-rule="evenodd" d="M37.4,1249.2h.7v-.7h-.7v.7Z" class="g16_52" />
<path fill-rule="evenodd" d="M38.1,1249.9H871.5v-.7H38.1v.7Z" class="g16_52" />
<path fill-rule="evenodd" d="M38.1,1249.2H871.5v-.7H38.1v.7Z" class="g16_52" />
<path fill-rule="evenodd" d="M872.3,1249.9h.7v-1.4h-.7v1.4Z" class="g16_52" />
<path fill-rule="evenodd" d="M871.5,1249.9H873v-.7h-1.5v.7Z" class="g16_52" />
<path fill-rule="evenodd" d="M871.5,1249.2h.8v-.7h-.8v.7Z" class="g16_52" />
<path fill-rule="evenodd" d="M871.5,1249.2h.8v-.7h-.8v.7Z" class="g16_52" />
<defs>
<path d="M489,-15c0,0,-99,0,-179,30c0,0,-80,30,-136,91c0,0,-56,61,-85,152c0,0,-30,91,-30,212c0,0,0,123,32,218c0,0,33,96,92,161c0,0,59,65,142,98c0,0,82,34,181,34c0,0,40,0,78,-7c0,0,37,-7,69,-18c0,0,31,-11,57,-25c0,0,25,-14,35,-24c0,0,10,-10,14,-17c0,0,4,-7,6,-17c0,0,2,-11,3,-25c0,0,2,-14,2,-35c0,0,0,-22,-2,-38c0,0,-1,-15,-5,-25c0,0,-4,-10,-9,-14c0,0,-5,-5,-12,-5c0,0,-11,0,-28,13c0,0,-18,13,-45,29c0,0,-27,16,-65,29c0,0,-37,13,-89,13c0,0,-58,0,-103,-23c0,0,-45,-23,-77,-67c0,0,-31,-44,-48,-106c0,0,-16,-61,-16,-139c0,0,0,-85,17,-147c0,0,18,-62,50,-103c0,0,33,-40,79,-60c0,0,45,-19,103,-19c0,0,52,0,90,12c0,0,38,12,65,27c0,0,27,15,45,27c0,0,17,12,27,12c0,0,8,0,12,-3c0,0,4,-3,7,-12c0,0,3,-9,5,-25c0,0,1,-16,1,-43c0,0,0,-18,-1,-31c0,0,-1,-14,-3,-23c0,0,-2,-9,-6,-16c0,0,-4,-7,-12,-15c0,0,-8,-9,-32,-22c0,0,-23,-14,-57,-26C661,13,627,1,583,-6c0,0,-43,-9,-94,-9Z" 
id="f0_j"
transform="scale(0.001,-0.001)" />

<path d="M440,150c0,0,41,0,68,8c0,0,28,9,49,26c0,0,20,16,32,41c0,0,11,25,11,58c0,0,0,33,-11,60c0,0,-11,26,-33,44c0,0,-21,18,-55,28c0,0,-33,9,-87,9H298V150ZM407,567c0,0,42,0,68,10c0,0,25,10,42,28c0,0,16,17,24,41c0,0,9,24,9,50c0,0,0,29,-9,52c0,0,-9,23,-27,39c0,0,-18,15,-45,23c0,0,-27,8,-72,8H298V567ZM164,0c0,0,-25,0,-42,15c0,0,-16,14,-16,47V903c0,0,0,33,16,48c0,0,17,14,42,14H406c0,0,88,0,150,-15c0,0,61,-15,103,-45c0,0,42,-30,65,-77c0,0,22,-46,22,-108c0,0,0,-36,-9,-67c0,0,-9,-31,-26,-56c0,0,-17,-25,-42,-45c0,0,-25,-19,-57,-31c0,0,41,-7,76,-26c0,0,34,-19,60,-48c0,0,26,-30,41,-69c0,0,15,-40,15,-89c0,0,0,-51,-14,-93c0,0,-15,-42,-40,-74c0,0,-25,-32,-59,-55c0,0,-35,-23,-77,-38C614,29,573,14,525,7C525,7,478,0,420,0Z" 
id="f0_i"
transform="scale(0.001,-0.001)" />

<path d="M320,-17c0,0,-50,0,-93,9c0,0,-43,8,-76,19c0,0,-32,11,-54,24C97,35,75,48,65,58c0,0,-10,9,-14,28c0,0,-4,18,-4,52c0,0,0,23,1,39c0,0,2,15,5,25c0,0,4,10,9,14c0,0,6,4,13,4c0,0,11,0,30,-12c0,0,19,-13,49,-28c0,0,30,-15,71,-27c0,0,42,-12,96,-12c0,0,36,0,64,8c0,0,29,9,49,25c0,0,19,15,30,38c0,0,10,23,10,52c0,0,0,33,-18,56c0,0,-18,24,-46,42c0,0,-29,18,-66,34c0,0,-36,16,-75,34c0,0,-39,18,-76,41c0,0,-36,23,-65,54c0,0,-29,32,-47,75c0,0,-17,44,-17,104c0,0,0,70,25,122c0,0,26,53,70,88c0,0,43,34,103,51c0,0,59,18,125,18c0,0,35,0,69,-6c0,0,34,-5,64,-14c0,0,30,-9,53,-20c0,0,23,-11,31,-18c0,0,7,-8,10,-13c0,0,3,-5,4,-14c0,0,2,-8,3,-21c0,0,1,-13,1,-33c0,0,0,-21,-1,-36c0,0,-1,-15,-4,-25c0,0,-3,-9,-7,-14c0,0,-5,-4,-14,-4c0,0,-8,0,-26,10c0,0,-18,10,-44,23c0,0,-26,12,-60,22c0,0,-34,10,-75,10c0,0,-32,0,-56,-8c0,0,-24,-8,-40,-21c0,0,-16,-14,-24,-34c0,0,-8,-19,-8,-41c0,0,0,-32,18,-56c0,0,17,-23,46,-42c0,0,30,-18,67,-34c0,0,38,-16,76,-34c0,0,39,-18,76,-41c0,0,38,-22,67,-54c0,0,29,-32,47,-75c0,0,18,-43,18,-101c0,0,0,-76,-29,-133c0,0,-28,-58,-77,-96C572,60,524,21,459,2c0,0,-65,-19,-139,-19Z" 
id="f0_2n"
transform="scale(0.001,-0.001)" />

<path d="M164,0c0,0,-25,0,-42,15c0,0,-16,14,-16,47V903c0,0,0,33,16,48c0,0,17,14,42,14H645c0,0,7,0,12,-4c0,0,5,-3,9,-13c0,0,4,-9,6,-24c0,0,2,-14,2,-36c0,0,0,-21,-2,-36c0,0,-2,-14,-6,-23c0,0,-4,-9,-9,-13c0,0,-5,-4,-12,-4H301V576H593c0,0,6,0,12,-4c0,0,6,-4,9,-13c0,0,4,-8,6,-23c0,0,2,-14,2,-35c0,0,0,-22,-2,-36c0,0,-2,-14,-6,-23c0,0,-3,-8,-9,-12c0,0,-6,-4,-12,-4H301V154H649c0,0,6,0,12,-5c0,0,5,-4,9,-13c0,0,4,-9,6,-23c0,0,2,-15,2,-36c0,0,0,-22,-2,-36c0,0,-2,-15,-6,-24c0,0,-4,-9,-9,-13c0,0,-6,-4,-12,-4Z" 
id="f0_t"
transform="scale(0.001,-0.001)" />

<path d="M79,297c0,0,-19,0,-27,18c0,0,-8,17,-8,60c0,0,0,41,8,59c0,0,8,17,27,17H389c0,0,9,0,15,-4c0,0,7,-4,11,-13c0,0,5,-9,7,-23c0,0,1,-15,1,-36c0,0,0,-43,-8,-61c0,0,-8,-17,-26,-17Z" 
id="f0_oj"
transform="scale(0.001,-0.001)" />

<path d="M121,-4c0,0,-39,0,-60,2C61,-2,39,0,32,8c0,0,-8,8,-3,24c0,0,4,15,18,41L279,495L64,892c0,0,-14,26,-19,42c0,0,-5,17,4,24c0,0,9,8,32,10c0,0,23,2,65,2c0,0,35,0,56,-2c0,0,20,-1,32,-4c0,0,12,-4,17,-10c0,0,5,-6,9,-15L431,620L595,939c0,0,5,9,10,15c0,0,5,6,16,10c0,0,10,3,29,4c0,0,19,2,53,2c0,0,37,0,59,-2c0,0,22,-2,30,-10c0,0,8,-8,4,-24c0,0,-4,-16,-17,-42L564,497L793,73c0,0,14,-26,18,-41c0,0,4,-16,-5,-24c0,0,-9,-8,-32,-10c0,0,-24,-2,-65,-2c0,0,-36,0,-56,2c0,0,-20,1,-31,3c0,0,-12,4,-17,10c0,0,-5,6,-9,15L414,374L233,26c0,0,-4,-9,-9,-15c0,0,-6,-6,-17,-10c0,0,-12,-2,-32,-3c0,0,-21,-2,-54,-2Z" 
id="f0_3e"
transform="scale(0.001,-0.001)" />

<path d="M204,-4c0,0,-28,0,-47,2c0,0,-19,2,-31,5c0,0,-11,4,-16,10c0,0,-4,6,-4,13V939c0,0,0,7,4,13c0,0,5,6,17,10c0,0,11,3,30,6c0,0,19,2,47,2c0,0,29,0,48,-2c0,0,18,-3,29,-6c0,0,11,-4,16,-10c0,0,5,-6,5,-13V26c0,0,0,-7,-5,-13c0,0,-5,-6,-16,-10c0,0,-11,-3,-29,-5c0,0,-19,-2,-48,-2Z" 
id="f0_1c"
transform="scale(0.001,-0.001)" />

<path d="M127,0c0,0,-16,0,-28,3C99,3,87,6,80,15c0,0,-8,8,-11,25c0,0,-3,16,-3,42c0,0,0,25,2,42c0,0,2,18,8,32c0,0,6,14,15,27c0,0,9,13,24,29L282,390c0,0,50,53,81,95c0,0,30,43,47,79c0,0,17,35,24,65c0,0,6,30,6,57c0,0,0,24,-8,46c0,0,-8,22,-23,39c0,0,-15,16,-38,25c0,0,-23,10,-55,10c0,0,-44,0,-78,-12c0,0,-33,-11,-59,-25c0,0,-26,-13,-43,-25c0,0,-17,-12,-27,-12c0,0,-7,0,-11,5c0,0,-5,4,-8,15c0,0,-3,10,-5,28c0,0,-2,17,-2,42c0,0,0,18,1,29c0,0,1,12,4,20c0,0,2,9,6,15c0,0,3,6,13,15c0,0,9,9,34,23c0,0,25,14,61,27c0,0,37,14,81,23c0,0,44,9,92,9c0,0,75,0,131,-19c0,0,57,-19,94,-53c0,0,37,-34,55,-81c0,0,19,-47,19,-100c0,0,0,-47,-9,-93c0,0,-9,-45,-37,-98c0,0,-29,-52,-80,-116c0,0,-52,-64,-136,-148L299,159H679c0,0,8,0,14,-4c0,0,6,-5,11,-14c0,0,4,-9,7,-25c0,0,2,-15,2,-36c0,0,0,-22,-2,-37c0,0,-2,-15,-6,-25c0,0,-3,-10,-9,-14c0,0,-6,-4,-14,-4Z" 
id="f0_rz"
transform="scale(0.001,-0.001)" />

<path d="M385,138c0,0,29,0,52,9c0,0,22,10,39,28c0,0,17,19,28,47c0,0,11,29,19,66c0,0,7,37,9,84c0,0,3,47,3,104c0,0,0,69,-4,122c0,0,-4,52,-11,91c0,0,-8,39,-20,66c0,0,-12,27,-28,43c0,0,-16,16,-37,22c0,0,-21,7,-47,7c0,0,-44,0,-73,-21c0,0,-28,-21,-45,-64c0,0,-17,-42,-24,-106c0,0,-6,-63,-6,-148c0,0,0,-103,8,-171c0,0,8,-67,26,-107c0,0,17,-40,45,-56c0,0,27,-16,66,-16ZM378,-17c0,0,-99,0,-164,33c0,0,-65,34,-103,98c0,0,-38,64,-54,156c0,0,-15,92,-15,209c0,0,0,115,19,208c0,0,19,94,61,160c0,0,42,65,110,101c0,0,68,35,165,35c0,0,99,0,164,-34c0,0,65,-34,103,-98c0,0,39,-64,53,-156c0,0,15,-92,15,-209c0,0,0,-115,-18,-209c0,0,-19,-93,-61,-159C653,118,611,53,543,17c0,0,-67,-34,-165,-34Z" 
id="f0_rx"
transform="scale(0.001,-0.001)" />

<path d="M142,0c0,0,-6,0,-12,4c0,0,-5,3,-9,12c0,0,-4,9,-6,23c0,0,-3,15,-3,36c0,0,0,21,2,36c0,0,2,14,6,23c0,0,4,9,10,13c0,0,5,5,12,5H322V779L166,693c0,0,-17,-8,-28,-10c0,0,-1,0,-3,0c-4,0,-10,1,-14,5c0,0,-6,6,-8,22c0,0,-2,15,-2,44c0,0,0,18,0,29c0,0,1,12,4,20c0,0,3,8,8,14c0,0,5,5,14,11L345,962c0,0,4,3,9,5c0,0,6,2,15,3c0,0,9,1,23,2c0,0,15,0,38,0c0,0,28,0,46,-1c0,0,17,-1,26,-4c0,0,9,-3,12,-7c0,0,3,-4,3,-11V152H675c0,0,7,0,12,-5c0,0,6,-4,10,-13c0,0,4,-9,6,-23c0,0,2,-15,2,-36c0,0,0,-21,-2,-36c0,0,-3,-14,-7,-23c0,0,-4,-9,-9,-12c0,0,-5,-4,-12,-4Z" 
id="f0_ry"
transform="scale(0.001,-0.001)" />

<path d="M398,134c0,0,34,0,60,12c0,0,25,13,43,36c0,0,17,23,26,54c0,0,9,31,9,68c0,0,0,38,-7,66c0,0,-7,29,-22,49c0,0,-15,20,-39,30c0,0,-25,10,-60,10c0,0,-21,0,-41,-4c0,0,-20,-4,-40,-10c0,0,-19,-7,-37,-16c0,0,-18,-10,-33,-20c0,0,0,-80,9,-133c0,0,9,-54,26,-85c0,0,18,-31,44,-44c0,0,27,-13,62,-13ZM387,-16c0,0,-67,0,-117,15c0,0,-50,14,-86,43c0,0,-37,29,-60,70c0,0,-23,41,-37,92c0,0,-14,52,-19,112c0,0,-5,61,-5,129c0,0,0,56,5,118c0,0,6,62,22,122c0,0,16,59,45,114c0,0,29,54,75,94c0,0,46,41,111,65c0,0,65,24,155,24c0,0,28,0,57,-4c0,0,29,-3,53,-8c0,0,25,-5,42,-12c0,0,17,-7,23,-12c0,0,5,-5,8,-11c0,0,3,-5,5,-13c0,0,2,-7,3,-17c0,0,1,-11,1,-25c0,0,0,-24,-1,-39c0,0,-2,-15,-5,-24c0,0,-3,-8,-8,-12c0,0,-5,-4,-12,-4c0,0,-9,0,-24,5c0,0,-14,5,-34,11c0,0,-20,6,-47,10c0,0,-27,5,-63,5c0,0,-61,0,-102,-23c0,0,-42,-22,-68,-60c0,0,-26,-39,-38,-90c0,0,-12,-50,-13,-107c0,0,16,10,38,21c0,0,21,10,46,18c0,0,25,7,54,12c0,0,29,5,62,5c0,0,73,0,125,-20c0,0,52,-20,86,-58c0,0,33,-37,48,-90c0,0,16,-53,16,-118c0,0,0,-73,-22,-135c0,0,-23,-62,-66,-108C640,79,597,34,533,9c0,0,-63,-25,-146,-25Z" 
id="f0_s3"
transform="scale(0.001,-0.001)" />

<path d="M589,371L453,782h-1L317,371ZM106,-4c0,0,-35,0,-54,2C52,-2,32,0,25,8c0,0,-7,9,-5,24c0,0,2,16,11,42L329,931c0,0,4,13,10,21c0,0,6,7,19,12c0,0,13,4,36,5c0,0,23,1,61,1c0,0,44,0,71,-1c0,0,26,-1,40,-5c0,0,15,-5,21,-13c0,0,6,-8,11,-22L896,73c0,0,9,-27,11,-43c0,0,3,-15,-6,-23c0,0,-8,-7,-29,-9c0,0,-21,-2,-57,-2c0,0,-38,0,-59,1c0,0,-22,1,-33,4c0,0,-11,3,-16,9c0,0,-4,6,-7,16L635,220H272L211,31c0,0,-2,-11,-7,-18c0,0,-5,-7,-16,-11c0,0,-11,-3,-31,-4c0,0,-19,-2,-51,-2Z" 
id="f0_5"
transform="scale(0.001,-0.001)" />

<path d="M198,-4c0,0,-27,0,-45,2c0,0,-18,2,-28,5c0,0,-11,4,-15,10c0,0,-4,6,-4,13V887c0,0,0,38,20,58c0,0,20,20,53,20H308c0,0,34,0,59,-6c0,0,24,-5,42,-18c0,0,18,-13,30,-35c0,0,12,-21,21,-52L669,279h3L889,852c0,0,9,32,21,53c0,0,11,22,27,35c0,0,15,14,36,19c0,0,21,6,48,6h132c0,0,21,0,35,-5c0,0,15,-5,24,-15c0,0,9,-11,14,-25c0,0,5,-15,5,-33V26c0,0,0,-7,-4,-13c0,0,-4,-6,-15,-10c0,0,-11,-3,-29,-5c0,0,-18,-2,-45,-2c0,0,-27,0,-45,2c0,0,-18,2,-28,5c0,0,-11,4,-15,10c0,0,-5,6,-5,13V813h-1L764,27c0,0,-3,-10,-10,-16c0,0,-6,-6,-18,-10c0,0,-12,-3,-29,-4c0,0,-18,-1,-44,-1c0,0,-25,0,-43,2c0,0,-18,2,-29,5c0,0,-12,4,-19,10c0,0,-6,6,-9,14L293,813h-2V26c0,0,0,-7,-4,-13c0,0,-4,-6,-15,-10c0,0,-11,-3,-29,-5c0,0,-17,-2,-45,-2Z" 
id="f0_1x"
transform="scale(0.001,-0.001)" />

<path d="M193,-4c0,0,-26,0,-43,2c0,0,-18,2,-27,6c0,0,-10,4,-14,10c0,0,-3,6,-3,13V895c0,0,0,35,20,53c0,0,21,17,50,17H282c0,0,28,0,47,-5c0,0,20,-5,35,-16c0,0,15,-11,29,-31c0,0,13,-20,27,-49L608,511c0,0,17,-32,33,-63c0,0,16,-31,31,-62c0,0,14,-31,29,-60c0,0,14,-30,27,-60h1c0,0,-2,52,-3,109c0,0,-1,57,-1,108V936c0,0,0,7,4,13c0,0,5,6,15,11c0,0,10,4,28,6c0,0,17,2,44,2c0,0,25,0,42,-2c0,0,17,-2,27,-6c0,0,9,-5,13,-11c0,0,4,-6,4,-13V68c0,0,0,-17,-6,-30c0,0,-6,-14,-17,-23C879,15,869,6,856,2c0,0,-14,-3,-28,-3H744c0,0,-26,0,-45,4c0,0,-19,5,-35,19c0,0,-16,14,-31,38c0,0,-15,23,-34,60L359,572c0,0,-21,40,-43,86c0,0,-21,47,-38,91h-2c0,0,3,-54,5,-107c0,0,2,-53,2,-110V27c0,0,0,-7,-5,-13c0,0,-4,-6,-14,-10c0,0,-10,-4,-27,-6c0,0,-17,-2,-44,-2Z" 
id="f0_1y"
transform="scale(0.001,-0.001)" />

<path d="M378,-4c0,0,-28,0,-47,2c0,0,-19,2,-31,5c0,0,-11,4,-16,10c0,0,-4,6,-4,13V805H38c0,0,-8,0,-13,4c0,0,-5,5,-9,14c0,0,-3,9,-5,25c0,0,-2,15,-2,37c0,0,0,22,2,38c0,0,2,15,5,25c0,0,4,9,9,13c0,0,5,4,13,4H718c0,0,7,0,12,-4c0,0,6,-4,10,-13c0,0,3,-10,5,-25c0,0,2,-16,2,-38c0,0,0,-22,-2,-37c0,0,-2,-16,-5,-25c0,0,-4,-9,-10,-14c0,0,-5,-4,-12,-4H476V26c0,0,0,-7,-5,-13c0,0,-5,-6,-16,-10c0,0,-11,-3,-30,-5c0,0,-19,-2,-47,-2Z" 
id="f0_2t"
transform="scale(0.001,-0.001)" />

<path d="M514,145c0,0,72,0,121,27c0,0,48,26,78,73c0,0,30,46,42,107c0,0,13,62,13,131c0,0,0,76,-12,139c0,0,-12,62,-41,106c0,0,-29,45,-76,69c0,0,-48,24,-120,24c0,0,-72,0,-120,-27c0,0,-49,-27,-79,-73c0,0,-29,-45,-42,-106c0,0,-12,-61,-12,-129c0,0,0,-79,12,-142c0,0,12,-63,40,-108c0,0,28,-44,76,-68c0,0,48,-23,120,-23ZM508,-17c0,0,-113,0,-196,29c0,0,-84,29,-140,90c0,0,-56,60,-84,154c0,0,-28,93,-28,221c0,0,0,117,29,210c0,0,30,94,89,160c0,0,59,65,146,101c0,0,87,35,202,35c0,0,110,0,194,-29c0,0,84,-30,140,-90c0,0,56,-60,85,-153c0,0,29,-92,29,-217c0,0,0,-120,-30,-215c0,0,-30,-95,-89,-161C855,118,796,52,709,17c0,0,-87,-34,-201,-34Z" 
id="f0_24"
transform="scale(0.001,-0.001)" />

<path d="M340,-13c0,0,-73,0,-129,20C211,7,155,27,86,74l22,217c0,0,156,-103,245,-103c0,0,64,0,112,45c0,0,47,46,47,107c0,0,0,68,-47,113c0,0,-48,46,-121,46c0,0,-85,0,-184,-42l48,495H681V777H393L382,665c0,0,163,0,251,-95c0,0,88,-95,88,-224c0,0,0,-146,-113,-253C608,93,494,-13,340,-13Z" 
id="f1_p"
transform="scale(0.001,-0.001)" />

<path d="M44,-281L425,1053H537L156,-281Z" 
id="f1_j"
transform="scale(0.001,-0.001)" />

<path d="M299,0V777H162l36,173H508V0Z" 
id="f1_l"
transform="scale(0.001,-0.001)" />

<path d="M402,179c0,0,58,0,100,45c0,0,42,45,42,107c0,0,0,65,-41,108c0,0,-41,44,-101,44c0,0,-65,0,-110,-44c0,0,-45,-45,-45,-109c0,0,0,-64,45,-107c0,0,44,-44,110,-44ZM390,-11c0,0,-150,0,-247,94c0,0,-97,96,-97,243c0,0,0,106,48,217c0,0,49,111,108,194L356,952H605L372,631c0,0,48,9,88,9c0,0,123,0,212,-91c0,0,89,-92,89,-219c0,0,0,-148,-105,-245c0,0,-105,-96,-266,-96Z" 
id="f1_q"
transform="scale(0.001,-0.001)" />

<path d="M122,0V64L295,82V837L123,780v64l282,165H511V82L685,64V0Z" 
id="f2_l"
transform="scale(0.001,-0.001)" />

<path d="M191,-20c0,0,-51,0,-88,34c0,0,-36,36,-36,88c0,0,0,52,36,88c0,0,36,36,88,36c0,0,51,0,88,-36c0,0,36,-36,36,-88c0,0,0,-51,-36,-87c0,0,-36,-35,-88,-35Z" 
id="f2_i"
transform="scale(0.001,-0.001)" />

<path d="M55,0V40L184,60V941L55,960v40H455V960L327,941V60L455,40V0Z" 
id="f3_19"
transform="scale(0.001,-0.001)" />

<path d="M64,0V34L168,59V639H47v36l121,29v49c0,0,0,155,61,239c0,0,62,84,173,84c0,0,58,0,107,-15V908H472l-33,92c0,0,-26,16,-62,16c0,0,-47,0,-66,-42c0,0,-19,-42,-19,-157V701H478V639H292V59L443,34V0Z" 
id="f3_22"
transform="scale(0.001,-0.001)" />

<path d="M13,0V34L95,46L325,350L122,649L40,668v33H357V668L264,648L399,446L554,649l-96,19v33H710V668L630,652L433,397L663,50L745,34V0H427V34l94,17L359,299L169,50L266,34V0Z" 
id="f3_2k"
transform="scale(0.001,-0.001)" />

<path d="M76,316v76H787V316Zm0,306v76H787V622Z" 
id="f3_x"
transform="scale(0.001,-0.001)" />

<path d="M284,67c0,0,51,0,88,12c0,0,37,12,74,30V358l-98,-3c0,0,-100,-4,-135,-39c0,0,-35,-35,-35,-117c0,0,0,-132,106,-132ZM233,-14c0,0,-179,0,-179,208c0,0,0,70,27,116c0,0,27,46,87,70c0,0,60,24,173,27l105,3V519c0,0,0,72,-26,107c0,0,-27,34,-82,34c0,0,-75,0,-137,-35L176,538H134V691c0,0,121,26,213,26c0,0,115,0,169,-47c0,0,54,-47,54,-144V52L657,33V0H465L451,70c0,0,-85,-84,-218,-84Z" 
id="f3_1x"
transform="scale(0.001,-0.001)" />

<path d="M278,-14c0,0,-52,0,-115,11c0,0,-63,10,-99,23V193H98L134,95c0,0,56,-50,146,-50c0,0,144,0,144,123c0,0,0,91,-114,130l-66,21c0,0,-75,25,-110,50c0,0,-34,26,-53,63c0,0,-18,36,-18,89c0,0,0,92,63,145c0,0,63,54,170,54c0,0,77,0,193,-23V544H454l-32,81c0,0,-39,35,-124,35c0,0,-61,0,-92,-30c0,0,-32,-30,-32,-80c0,0,0,-43,29,-72c0,0,28,-29,86,-48c0,0,110,-38,144,-55c0,0,33,-17,57,-42c0,0,23,-25,36,-57c0,0,13,-32,13,-79c0,0,0,-104,-66,-158c0,0,-66,-53,-195,-53Z" 
id="f3_2f"
transform="scale(0.001,-0.001)" />

<path d="M32,0V33L151,52V649L52,668v33H275V52L395,33V0ZM201,850c0,0,-32,0,-56,24c0,0,-24,24,-24,56c0,0,0,34,24,58c0,0,24,24,56,24c0,0,34,0,58,-24c0,0,24,-24,24,-58c0,0,0,-32,-24,-56c0,0,-24,-24,-58,-24Z" 
id="f3_25"
transform="scale(0.001,-0.001)" />

<path d="M439,0V33l93,19V500c0,0,0,62,-30,97c0,0,-31,36,-94,36c0,0,-67,0,-165,-22V52L338,33V0H35V33l84,19V649L35,668v33H235l7,-57c0,0,57,33,122,54c0,0,65,22,108,22c0,0,91,0,137,-53c0,0,47,-53,47,-154V52L741,33V0Z" 
id="f3_2a"
transform="scale(0.001,-0.001)" />

<path d="M67,0V109L206,235c0,0,133,118,196,190c0,0,63,72,90,149c0,0,27,77,27,177c0,0,0,97,-44,148c0,0,-44,50,-144,50c0,0,-39,0,-81,-10c0,0,-42,-11,-74,-29L150,787H101V980c0,0,135,32,230,32c0,0,164,0,247,-68c0,0,82,-69,82,-193c0,0,0,-84,-32,-158c0,0,-33,-75,-100,-148c0,0,-67,-74,-222,-206c0,0,-67,-57,-141,-125H680V0Z" 
id="f3_m"
transform="scale(0.001,-0.001)" />

<path d="M249,-14c0,0,-71,0,-107,42c0,0,-35,42,-35,119V639H15v33l93,29l76,159h47V701H391V639H231V161c0,0,0,-48,22,-73c0,0,22,-24,57,-24c0,0,44,0,106,12V26C416,26,389,8,340,-2c0,0,-49,-12,-91,-12Z" 
id="f3_2g"
transform="scale(0.001,-0.001)" />

<path d="M460,-325c0,0,-148,79,-231,172c0,0,-84,93,-123,217c0,0,-39,126,-39,304c0,0,0,178,39,303c0,0,39,125,122,217c0,0,82,93,232,172V997c0,0,-91,-52,-145,-134c0,0,-54,-81,-79,-190c0,0,-25,-109,-25,-305c0,0,0,-194,26,-309c0,0,26,-114,82,-193c0,0,56,-79,141,-128v-63Z" 
id="f3_c"
transform="scale(0.001,-0.001)" />

<path d="M134,0V40L339,60V876L137,804v39l292,166h39V60L672,40V0Z" 
id="f3_l"
transform="scale(0.001,-0.001)" />

<path d="M392,152V469H76v77H392V863h77V546H787V469H469V152Z" 
id="f3_f"
transform="scale(0.001,-0.001)" />

<path d="M399,-14c0,0,-341,0,-341,370c0,0,0,175,87,269c0,0,87,95,249,95c0,0,101,0,220,-23V501H573L541,625c0,0,-62,35,-149,35c0,0,-200,0,-200,-304c0,0,0,-158,61,-225c0,0,61,-67,189,-67c0,0,109,0,189,24V43C631,43,595,16,530,1c0,0,-64,-15,-131,-15Z" 
id="f3_1z"
transform="scale(0.001,-0.001)" />

<path d="M377,45c0,0,99,0,147,73c0,0,47,73,47,237c0,0,0,161,-47,233c0,0,-47,72,-147,72c0,0,-97,0,-141,-69c0,0,-44,-69,-44,-236c0,0,0,-169,45,-240c0,0,44,-70,140,-70Zm0,-59c0,0,-158,0,-238,94c0,0,-81,95,-81,274c0,0,0,178,81,272c0,0,80,94,244,94c0,0,160,0,241,-92c0,0,82,-92,82,-274c0,0,0,-368,-329,-368Z" 
id="f3_2b"
transform="scale(0.001,-0.001)" />

<path d="M49,-325v63c0,0,85,49,140,128c0,0,56,79,83,194c0,0,26,115,26,308c0,0,0,196,-25,305c0,0,-25,109,-79,190c0,0,-54,82,-145,134v63c0,0,149,-80,232,-172c0,0,83,-92,122,-217c0,0,39,-125,39,-303c0,0,0,-177,-39,-303c0,0,-39,-125,-122,-217c0,0,-83,-93,-232,-173Z" 
id="f3_d"
transform="scale(0.001,-0.001)" />

<path d="M383,64c0,0,85,0,152,28V645c0,0,-67,13,-152,13c0,0,-194,0,-194,-314c0,0,0,-141,48,-211c0,0,48,-69,146,-69ZM342,-14c0,0,-287,0,-287,358c0,0,0,184,82,280c0,0,81,96,239,96c0,0,81,0,163,-18c0,0,-4,25,-4,124v182l-118,18v34H659V52L745,33V0H548l-9,52c0,0,-84,-66,-197,-66Z" 
id="f3_20"
transform="scale(0.001,-0.001)" />

<path d="M148,-329c0,0,-58,0,-114,13v151H69l24,-71c0,0,23,-17,64,-17c0,0,39,0,72,22c0,0,33,23,60,67c0,0,27,44,68,157L90,649L19,668v33H344V668L233,648L423,158L606,649L497,668v33H758V668L685,652L411,-43c0,0,-48,-124,-84,-177c0,0,-36,-54,-79,-82c0,0,-44,-27,-100,-27Z" 
id="f3_2l"
transform="scale(0.001,-0.001)" />

<path d="M376,50c0,0,103,0,149,80c0,0,46,81,46,240c0,0,0,137,-47,204c0,0,-48,67,-148,67c0,0,-44,0,-87,-7c0,0,-44,-8,-63,-17V62c0,0,63,-12,150,-12Zm3,-64c0,0,-64,0,-141,14c0,0,-78,14,-136,37v971L0,1026v34H226V809c0,0,0,-40,-4,-148c0,0,74,59,188,59c0,0,143,0,219,-87c0,0,77,-87,77,-263c0,0,0,-189,-84,-287c0,0,-84,-97,-243,-97Z" 
id="f3_1y"
transform="scale(0.001,-0.001)" />

<path d="M-12,338v55H777V338Z" 
id="f4_4y"
transform="scale(0.001,-0.001)" />

<path d="M58,-234v58c0,0,131,42,131,125c0,0,0,15,-11,27c0,0,-11,12,-38,25C140,1,89,27,89,75c0,0,0,40,25,61c0,0,26,21,65,21c0,0,48,0,77,-34c0,0,30,-34,30,-86c0,0,0,-101,-60,-170c0,0,-59,-69,-168,-101Z" 
id="f3_g"
transform="scale(0.001,-0.001)" />

<path d="M301,78c0,0,41,0,90,27c0,0,49,28,95,77l81,442c0,0,-26,18,-54,27c0,0,-27,10,-67,10c0,0,-70,0,-131,-55c0,0,-61,-55,-99,-152c0,0,-37,-97,-37,-201c0,0,0,-79,33,-127c0,0,33,-48,89,-48ZM245,-14c0,0,-91,0,-145,68c0,0,-54,69,-54,183c0,0,0,128,55,240c0,0,55,112,150,177c0,0,96,66,210,66c0,0,70,0,123,-18c0,0,3,36,51,306l-115,18l6,34H768L589,52L673,33L667,0H454l22,117C476,117,350,-14,245,-14Z" 
id="f5_20"
transform="scale(0.001,-0.001)" />

<path d="M-15,-329c0,0,-61,0,-112,13l28,152h34l12,-72c0,0,18,-17,60,-17c0,0,100,0,212,202L253,9L116,649L33,668l6,33H230L338,155L513,458c0,0,48,83,48,144c0,0,0,27,-16,44c0,0,-15,16,-33,22l6,33H659c0,0,20,-17,20,-47c0,0,0,-59,-62,-164L322,-7c0,0,-86,-145,-135,-205c0,0,-50,-61,-98,-89c0,0,-49,-28,-104,-28Z" 
id="f5_2l"
transform="scale(0.001,-0.001)" />

<path d="M-6,0c0,0,-12,10,-12,32c0,0,0,21,23,51c0,0,23,31,79,82L287,354L159,649L79,668l6,33H270L378,434l93,88c0,0,47,46,67,72c0,0,19,26,19,44c0,0,0,8,-6,13c0,0,-7,6,-38,17l6,33H651c0,0,16,-12,16,-32c0,0,0,-44,-103,-142L404,377L548,49L634,33L628,0H437L313,298L185,176c0,0,-41,-40,-60,-65c0,0,-19,-26,-19,-48c0,0,0,-21,31,-29L131,0Z" 
id="f5_2k"
transform="scale(0.001,-0.001)" />

<path d="M191,-20c0,0,-39,0,-65,25c0,0,-25,27,-25,64c0,0,0,38,26,64c0,0,26,26,64,26c0,0,38,0,64,-26c0,0,26,-26,26,-64c0,0,0,-37,-25,-64c0,0,-26,-25,-65,-25Z" 
id="f3_i"
transform="scale(0.001,-0.001)" />

<path d="M476,327V830h-4L114,327ZM476,0V220H30v99l488,686h86V327H740V220H604V0Z" 
id="f3_o"
transform="scale(0.001,-0.001)" />

<path d="M200,-14c0,0,-59,0,-93,35c0,0,-34,36,-34,100c0,0,0,22,4,51c0,0,4,30,82,467H67l6,33l99,29L275,860h47L295,701H455L443,639H283L210,230c0,0,-13,-69,-13,-99c0,0,0,-34,17,-51c0,0,17,-16,43,-16c0,0,54,0,113,21L386,50c0,0,-92,-64,-186,-64Z" 
id="f5_2g"
transform="scale(0.001,-0.001)" />

<path d="M140,-21c0,0,-26,0,-44,17C96,-4,79,13,79,40c0,0,0,19,6,33c0,0,8,20,34,55c0,0,46,60,64,126c0,0,32,114,41,321H190c0,0,-55,0,-81,-18c0,0,-44,-26,-80,-89H0c0,0,42,129,98,178c0,0,43,37,120,37H743V575H562c0,0,-27,-171,-27,-327c0,0,0,-77,27,-110c0,0,27,-33,67,-33c0,0,33,0,56,22c0,0,24,22,31,65h27C743,192,730,74,686,26c0,0,-44,-47,-98,-47c0,0,-58,0,-97,51c0,0,-39,53,-39,198c0,0,0,91,28,347H286c0,0,-23,-390,-56,-494c0,0,-33,-102,-90,-102Z" 
id="f6_2c"
transform="scale(0.001,-0.001)" />

<path d="M0,214v74H784V214ZM0,494v72H784V494Z" 
id="f6_x"
transform="scale(0.001,-0.001)" />

<path d="M410,-14c0,0,-86,0,-175,14C235,0,145,14,81,38V307h66L181,146c0,0,31,-37,94,-62c0,0,64,-24,132,-24c0,0,214,0,214,177c0,0,0,55,-41,93c0,0,-41,38,-128,68c0,0,-128,42,-185,68c0,0,-56,27,-95,63c0,0,-38,36,-62,87c0,0,-23,51,-23,125c0,0,0,132,90,201c0,0,90,69,263,69c0,0,125,0,278,-32V741H651L618,878c0,0,-76,56,-178,56c0,0,-92,0,-141,-34c0,0,-49,-34,-49,-104c0,0,0,-50,41,-86c0,0,41,-35,128,-63c0,0,171,-56,235,-97c0,0,64,-41,97,-103c0,0,34,-61,34,-143c0,0,0,-318,-375,-318Z" 
id="f2_1j"
transform="scale(0.001,-0.001)" />

<path d="M379,60c0,0,59,0,84,64c0,0,24,65,24,231c0,0,0,164,-24,227c0,0,-24,63,-84,63c0,0,-57,0,-80,-60c0,0,-22,-61,-22,-230c0,0,0,-173,23,-234c0,0,22,-61,79,-61Zm-2,-74c0,0,-161,0,-240,91c0,0,-79,91,-79,277c0,0,0,186,80,276c0,0,81,90,245,90c0,0,167,0,245,-93c0,0,78,-93,78,-273c0,0,0,-188,-81,-278c0,0,-81,-90,-248,-90Z" 
id="f2_2b"
transform="scale(0.001,-0.001)" />

<path d="M30,0V49l76,18V992l-72,18v50H322V67L398,49V0Z" 
id="f2_28"
transform="scale(0.001,-0.001)" />

<path d="M287,-18c0,0,-194,0,-194,206V634L23,652v49H309V217c0,0,0,-63,26,-98c0,0,27,-35,76,-35c0,0,57,0,113,25V634l-64,18v49H740V67L809,49V0H536L526,61L475,35c0,0,-104,-53,-188,-53Z" 
id="f2_2h"
transform="scale(0.001,-0.001)" />

<path d="M327,-14c0,0,-101,0,-156,45c0,0,-55,45,-55,131V624H25v48l108,29l87,159H332V701H480V624H332V176c0,0,0,-49,20,-73c0,0,20,-25,53,-25c0,0,40,0,97,12V26c0,0,-22,-15,-76,-27c0,0,-55,-13,-99,-13Z" 
id="f2_2g"
transform="scale(0.001,-0.001)" />

<path d="M34,0V49l76,18V634L38,652v49H325V67L402,49V0ZM217,831c0,0,-48,0,-81,33c0,0,-34,33,-34,82c0,0,0,48,34,81c0,0,34,33,81,33c0,0,48,0,81,-33c0,0,33,-33,33,-81c0,0,0,-47,-33,-81c0,0,-32,-34,-81,-34Z" 
id="f2_25"
transform="scale(0.001,-0.001)" />

<path d="M41,0V49l69,18V634L41,652v49H313l11,-61l50,26c0,0,105,54,188,54c0,0,194,0,194,-207V67L827,49V0H478V49l63,18V484c0,0,0,63,-27,98c0,0,-26,35,-75,35c0,0,-57,0,-114,-25V67L389,49V0Z" 
id="f2_2a"
transform="scale(0.001,-0.001)" />

<path d="M248,-20c0,0,-52,0,-87,34c0,0,-36,36,-36,88c0,0,0,52,36,88c0,0,35,36,87,36c0,0,52,0,88,-36c0,0,36,-36,36,-88c0,0,0,-51,-36,-87c0,0,-35,-35,-88,-35Zm0,488c0,0,-52,0,-87,36c0,0,-36,36,-36,88c0,0,0,52,35,88c0,0,35,36,88,36c0,0,53,0,89,-36c0,0,35,-37,35,-88c0,0,0,-51,-36,-87c0,0,-35,-37,-88,-37Z" 
id="f2_u"
transform="scale(0.001,-0.001)" />

<path d="M301,78c0,0,85,0,185,104l81,442c0,0,-29,20,-55,28c0,0,-25,8,-62,8c0,0,-75,0,-137,-56c0,0,-62,-56,-98,-152c0,0,-36,-95,-36,-199c0,0,0,-79,33,-127c0,0,33,-48,89,-48ZM245,-14c0,0,-90,0,-145,66c0,0,-54,66,-54,182c0,0,0,131,57,244c0,0,57,114,152,178c0,0,96,64,208,64c0,0,90,0,170,-33l33,26h40L589,52L673,33L667,0H454l22,117C476,117,350,-14,245,-14Z" 
id="f5_1x"
transform="scale(0.001,-0.001)" />

<path d="M355,0V355H0v72H355V784h72V427H782V355H427V0Z" 
id="f6_f"
transform="scale(0.001,-0.001)" />

<path d="M0,356v74H784V356Z" 
id="f6_h"
transform="scale(0.001,-0.001)" />

<path d="M83,308c0,0,-35,0,-59,24c0,0,-24,24,-24,59c0,0,0,34,24,58c0,0,24,24,59,24c0,0,33,0,58,-24c0,0,24,-24,24,-58c0,0,0,-35,-24,-59c0,0,-25,-24,-58,-24Z" 
id="f6_49"
transform="scale(0.001,-0.001)" />

<path d="M305,45c0,0,76,0,141,56c0,0,64,56,101,151c0,0,37,95,37,200c0,0,0,83,-35,129c0,0,-34,46,-92,46c0,0,-44,0,-96,-29c0,0,-51,-29,-97,-75L185,81c0,0,43,-36,120,-36ZM295,-14c0,0,-65,0,-128,16C167,2,104,19,57,48l171,960l-100,18l6,34H358L303,731c0,0,-13,-85,-29,-144c0,0,59,61,122,97c0,0,64,36,116,36c0,0,94,0,150,-67c0,0,56,-67,56,-182c0,0,0,-129,-56,-242C662,229,606,115,509,50c0,0,-98,-64,-214,-64Z" 
id="f5_1y"
transform="scale(0.001,-0.001)" />

<path d="M478,-123V1343H26v72H550V-123Z" 
id="f6_57"
transform="scale(0.001,-0.001)" />

<path d="M0,-123V1415H72V-123Z" 
id="f6_58"
transform="scale(0.001,-0.001)" />

<path d="M26,-123v72H478V1415h72V-123Z" 
id="f6_59"
transform="scale(0.001,-0.001)" />

<path d="M64,0V141c0,0,64,68,119,123c0,0,119,118,174,185c0,0,56,68,81,140c0,0,26,72,26,165c0,0,0,81,-40,131c0,0,-39,50,-105,50c0,0,-46,0,-74,-10c0,0,-27,-10,-50,-29L163,751H98V979c0,0,59,13,116,23c0,0,58,9,125,9c0,0,165,0,252,-68c0,0,88,-68,88,-193c0,0,0,-78,-26,-142c0,0,-26,-64,-83,-124c0,0,-56,-61,-224,-197c0,0,-64,-52,-139,-119H698V0Z" 
id="f2_m"
transform="scale(0.001,-0.001)" />

<path d="M235,0V40L394,60V936H356c0,0,-189,0,-258,-15L78,766H28v234H908V766H857L837,921c0,0,-22,5,-98,9c0,0,-75,4,-165,4H538V60L697,40V0Z" 
id="f3_1k"
transform="scale(0.001,-0.001)" />

<path d="M442,0V33l93,19V504c0,0,0,129,-124,129c0,0,-70,0,-168,-22V52L338,33V0H31V33l88,19v956L15,1026v34H243V756c0,0,0,-77,-5,-112c0,0,54,31,122,53c0,0,68,23,115,23c0,0,91,0,137,-53c0,0,47,-53,47,-154V52L744,33V0Z" 
id="f3_24"
transform="scale(0.001,-0.001)" />

<path d="M495,413c0,0,0,133,-34,190c0,0,-34,57,-105,57c0,0,-78,0,-119,-63c0,0,-42,-62,-42,-184ZM374,-14c0,0,-163,0,-239,87c0,0,-75,88,-75,283c0,0,0,183,77,273c0,0,76,91,219,91c0,0,269,0,269,-306V353H194V340c0,0,0,-103,23,-160c0,0,22,-57,70,-87c0,0,47,-29,124,-29c0,0,40,0,96,6c0,0,55,7,91,15V43C598,43,562,20,500,3c0,0,-61,-17,-126,-17Z" 
id="f3_21"
transform="scale(0.001,-0.001)" />

<path d="M383,64c0,0,44,0,87,7c0,0,43,7,65,17V645c0,0,-67,13,-152,13c0,0,-194,0,-194,-309c0,0,0,-143,48,-214c0,0,47,-71,146,-71Zm56,-389v35l96,18V-77c0,0,0,73,7,124c0,0,-79,-61,-200,-61c0,0,-287,0,-287,362c0,0,0,180,81,276c0,0,81,96,237,96c0,0,84,0,166,-18l67,33h53V-272l77,-18v-35Z" 
id="f3_2d"
transform="scale(0.001,-0.001)" />

<path d="M289,-14c0,0,-179,0,-179,205V649L20,668v33H233V200c0,0,0,-128,120,-128c0,0,92,0,173,23V649L420,668v33H649V52L738,33V0H533l-6,57C527,57,474,28,405,7c0,0,-69,-21,-116,-21Z" 
id="f3_2h"
transform="scale(0.001,-0.001)" />

<path d="M359,-270c0,0,124,0,192,46c0,0,67,47,67,129c0,0,0,43,-26,67c0,0,-26,24,-79,24H242c0,0,-32,-27,-51,-69c0,0,-20,-41,-20,-77c0,0,0,-64,46,-92c0,0,46,-28,142,-28Zm11,561c0,0,81,0,115,47c0,0,34,47,34,141c0,0,0,100,-35,142c0,0,-35,42,-113,42c0,0,-78,0,-114,-43c0,0,-37,-42,-37,-141c0,0,0,-98,36,-143c0,0,36,-45,114,-45ZM359,-329c0,0,-143,0,-218,44c0,0,-75,43,-75,125c0,0,0,39,27,78c0,0,26,38,98,89c0,0,-43,14,-72,48c0,0,-29,35,-29,74L208,262c0,0,-118,55,-118,217c0,0,0,115,73,178c0,0,73,63,211,63c0,0,28,0,71,-6c0,0,44,-6,67,-13l165,83l26,-32L599,644c0,0,50,-56,50,-165c0,0,0,-120,-72,-182c0,0,-73,-62,-208,-62c0,0,-62,0,-114,11L208,148c0,0,2,-13,29,-24c0,0,27,-12,67,-12H512c0,0,113,0,168,-49c0,0,55,-49,55,-134c0,0,0,-79,-44,-137c0,0,-43,-58,-128,-90c0,0,-84,-31,-204,-31Z" 
id="f3_23"
transform="scale(0.001,-0.001)" />

<path d="M350,-14c0,0,-142,0,-269,31L73,228h49L156,87c0,0,29,-16,82,-28c0,0,54,-12,100,-12c0,0,117,0,173,54c0,0,56,53,56,178c0,0,0,99,-52,150c0,0,-51,51,-159,56l-107,6v61l107,7c0,0,84,5,124,52c0,0,41,48,41,145c0,0,0,101,-44,147c0,0,-44,45,-139,45c0,0,-40,0,-83,-10c0,0,-43,-11,-76,-29L153,786H104V979c0,0,74,19,127,26c0,0,54,6,107,6c0,0,321,0,321,-246c0,0,0,-104,-57,-165c0,0,-57,-62,-162,-77c0,0,136,-16,200,-78c0,0,64,-62,64,-173c0,0,0,-135,-92,-211c0,0,-93,-75,-262,-75Z" 
id="f3_n"
transform="scale(0.001,-0.001)" />

<path d="M31,0V33l88,19V649L31,668v33H235l7,-87c0,0,44,37,121,71c0,0,76,35,121,35h11V530H463l-43,82c0,0,-37,0,-88,-10c0,0,-52,-10,-89,-26V52L363,33V0Z" 
id="f3_2e"
transform="scale(0.001,-0.001)" />

<path d="M360,-14L72,649L0,668v33H327V668L216,648L420,164L615,649L504,668v33H764V668L697,652L416,-14Z" 
id="f3_2i"
transform="scale(0.001,-0.001)" />

<path d="M350,-14c0,0,-142,0,-253,31L89,228h49L172,87c0,0,32,-18,78,-29c0,0,46,-11,88,-11c0,0,118,0,173,56c0,0,56,55,56,187c0,0,0,93,-24,140c0,0,-24,47,-76,70c0,0,-52,22,-140,22c0,0,-68,0,-133,-18H122v496H630V886H189V567c0,0,81,18,173,18c0,0,173,0,258,-71c0,0,84,-71,84,-216c0,0,0,-151,-92,-232c0,0,-91,-80,-262,-80Z" 
id="f3_p"
transform="scale(0.001,-0.001)" />

<path d="M54,0V40L172,60V941L44,960v40H794V760H745L721,922c0,0,-83,11,-241,11H316V516H611l23,120h46V328H634L611,449H316V60L483,40V0Z" 
id="f3_16"
transform="scale(0.001,-0.001)" />

<path d="M31,0V33L150,52v956L31,1026v34H274V52L394,33V0Z" 
id="f3_28"
transform="scale(0.001,-0.001)" />

<path d="M945,-20c0,0,47,75,125,153H57v74H1147l108,91c0,0,23,19,95,72c0,0,-134,103,-203,166H57v72H1070c0,0,-78,78,-125,154h85c0,0,88,-107,217,-217c0,0,130,-110,206,-154V349c0,0,-101,-58,-219,-162c0,0,-118,-103,-204,-207Z" 
id="f6_4g"
transform="scale(0.001,-0.001)" />

<path d="M83,0C83,0,48,0,24,24C24,24,0,49,0,83c0,0,0,34,24,58c0,0,24,24,59,24c0,0,34,0,58,-24c0,0,24,-24,24,-58c0,0,0,-34,-24,-59C141,24,117,0,83,0ZM695,0c0,0,-34,0,-58,24c0,0,-25,25,-25,59c0,0,0,34,25,58c0,0,24,24,58,24c0,0,34,0,58,-24c0,0,24,-24,24,-58c0,0,0,-34,-24,-59C753,24,729,0,695,0ZM388,594c0,0,-34,0,-59,23c0,0,-24,24,-24,59c0,0,0,34,24,58c0,0,25,25,59,25c0,0,34,0,58,-25c0,0,24,-24,24,-58c0,0,0,-35,-24,-59c0,0,-24,-23,-58,-23Z" 
id="f6_1s"
transform="scale(0.001,-0.001)" />

<path d="M410,-14c0,0,-80,0,-162,14c0,0,-81,14,-144,38V270h48L178,134c0,0,28,-35,95,-62c0,0,68,-27,134,-27c0,0,104,0,163,53c0,0,58,54,58,148c0,0,0,54,-23,89c0,0,-22,35,-59,59c0,0,-37,24,-84,41c0,0,-47,17,-97,34c0,0,-49,17,-96,38c0,0,-47,21,-84,53c0,0,-37,32,-60,79c0,0,-23,48,-23,117c0,0,0,119,90,187c0,0,89,68,248,68c0,0,121,0,263,-32V771H654L628,893c0,0,-76,55,-188,55c0,0,-100,0,-156,-40c0,0,-56,-41,-56,-112c0,0,0,-49,22,-81c0,0,23,-32,60,-55c0,0,37,-22,84,-39c0,0,48,-16,97,-34c0,0,50,-17,97,-39c0,0,48,-22,85,-56c0,0,36,-34,59,-83c0,0,23,-49,23,-120c0,0,0,-145,-89,-224c0,0,-89,-79,-256,-79Z" 
id="f3_1j"
transform="scale(0.001,-0.001)" />

<path d="M382,45c0,0,188,0,188,314c0,0,0,143,-47,213c0,0,-46,69,-141,69c0,0,-87,0,-146,-24V58c0,0,67,-13,146,-13ZM25,-325v35l88,18V649L34,668v33H231l1,-41c0,0,31,27,84,43c0,0,53,17,107,17c0,0,134,0,208,-94c0,0,73,-93,73,-267c0,0,0,-178,-80,-276c0,0,-80,-97,-232,-97c0,0,-84,0,-160,16c0,0,4,-53,4,-84V-272l123,-18v-35Z" 
id="f3_2c"
transform="scale(0.001,-0.001)" />

<path d="M577,-14c0,0,-243,0,-379,132C198,118,63,250,63,488c0,0,0,258,130,391c0,0,131,132,387,132c0,0,156,0,335,-38l5,-218H871L848,884c0,0,-52,32,-121,50c0,0,-69,17,-141,17c0,0,-191,0,-279,-112c0,0,-88,-113,-88,-349c0,0,0,-217,92,-332c0,0,92,-115,268,-115c0,0,85,0,160,20c0,0,76,21,120,55l27,149h49L930,32c0,0,-164,-46,-353,-46Z" 
id="f3_13"
transform="scale(0.001,-0.001)" />

<path d="M431,0V33L535,52V499c0,0,0,62,-32,96c0,0,-32,33,-95,33c0,0,-66,0,-163,-22V52L350,33V0H32V33l89,19V649L32,668v33H237l6,-57c0,0,56,32,119,54c0,0,62,22,110,22c0,0,52,0,95,-20c0,0,44,-19,66,-62c0,0,57,32,134,57c0,0,77,25,128,25c0,0,179,0,179,-207V52l90,-19V0H846V33L950,52V499c0,0,0,129,-119,129c0,0,-19,0,-45,-3c0,0,-26,-3,-52,-7c0,0,-25,-4,-49,-8c0,0,-23,-5,-39,-8c0,0,13,-41,13,-89V52L764,33V0Z" 
id="f3_29"
transform="scale(0.001,-0.001)" />

<path d="M327,-14L84,649L1,668v33H335V668L219,648L385,174L554,632h63L786,171L944,649L830,668v33h267V668l-78,-16L784,-14H726L553,448L382,-14Z" 
id="f3_2j"
transform="scale(0.001,-0.001)" />

<path d="M681,416L504,902L333,416ZM669,0V40L803,60L704,348H310L210,60L344,40V0H15V40L128,60l341,949H611L965,60L1092,40V0Z" 
id="f3_11"
transform="scale(0.001,-0.001)" />

<path d="M370,468c0,0,96,0,194,40c0,0,0,229,-45,336c0,0,-45,107,-146,107c0,0,-187,0,-187,-259c0,0,0,-115,45,-169c0,0,45,-55,139,-55ZM312,-14c0,0,-122,0,-223,25V184h48L163,76c0,0,24,-11,65,-20c0,0,40,-9,81,-9c0,0,119,0,183,105c0,0,65,104,71,307c0,0,-113,-62,-230,-62c0,0,-132,0,-208,79c0,0,-76,78,-76,219c0,0,0,151,85,233c0,0,84,83,237,83c0,0,171,0,251,-123c0,0,79,-123,79,-385c0,0,0,-252,-102,-385C599,118,497,-14,312,-14Z" 
id="f3_t"
transform="scale(0.001,-0.001)" />

<path d="M377,45c0,0,100,0,147,52c0,0,47,52,47,174c0,0,0,119,-46,173c0,0,-47,54,-148,54c0,0,-98,0,-141,-51c0,0,-44,-51,-44,-176c0,0,0,-126,44,-176c0,0,44,-50,141,-50Zm2,518c0,0,84,0,123,46c0,0,39,46,39,148c0,0,0,102,-40,151c0,0,-41,48,-122,48c0,0,-79,0,-118,-47c0,0,-38,-47,-38,-152c0,0,0,-104,37,-149c0,0,38,-45,119,-45ZM377,-14c0,0,-319,0,-319,285c0,0,0,99,48,164c0,0,48,66,129,96c0,0,-65,30,-106,87c0,0,-40,56,-40,139c0,0,0,123,75,191c0,0,76,68,219,68c0,0,139,0,216,-67c0,0,76,-68,76,-192c0,0,0,-82,-40,-139c0,0,-40,-57,-108,-87c0,0,85,-31,132,-98c0,0,47,-67,47,-162c0,0,0,-142,-80,-214c0,0,-80,-71,-249,-71Z" 
id="f3_s"
transform="scale(0.001,-0.001)" />

<path d="M178,0L615,886H176L150,764H101v236H720V943L274,0Z" 
id="f3_r"
transform="scale(0.001,-0.001)" />

<path d="M342,-14c0,0,-138,0,-276,29L57,258h69L165,96c0,0,65,-36,136,-36c0,0,90,0,141,58c0,0,50,57,50,161c0,0,0,91,-40,139c0,0,-41,48,-132,54l-87,5v90l84,6c0,0,66,5,98,49c0,0,32,44,32,134c0,0,0,83,-38,131c0,0,-38,48,-107,48c0,0,-40,0,-66,-13c0,0,-26,-12,-49,-26L155,751H90V979c0,0,76,19,132,26c0,0,55,6,108,6c0,0,337,0,337,-246c0,0,0,-102,-54,-164c0,0,-54,-63,-153,-78c0,0,252,-30,252,-251c0,0,0,-136,-98,-211c0,0,-98,-75,-272,-75Z" 
id="f2_n"
transform="scale(0.001,-0.001)" />

<path d="M211,-20c0,0,-39,0,-64,25c0,0,-26,27,-26,64c0,0,0,38,26,64c0,0,26,26,64,26c0,0,37,0,64,-25c0,0,26,-26,26,-65c0,0,0,-37,-26,-64c0,0,-26,-25,-64,-25Zm0,556c0,0,-38,0,-64,26c0,0,-26,26,-26,64c0,0,0,37,26,64c0,0,25,27,64,27c0,0,38,0,64,-27c0,0,26,-27,26,-64c0,0,0,-38,-26,-64c0,0,-27,-26,-64,-26Z" 
id="f3_u"
transform="scale(0.001,-0.001)" />

<path d="M88,-163c0,0,-39,0,-63,25c0,0,-25,26,-25,65c0,0,0,34,19,54c0,0,19,19,48,19c0,0,30,0,51,-23c0,0,22,-24,37,-24c0,0,12,0,21,11c0,0,8,10,8,35c0,0,0,30,-7,88c0,0,-27,235,-27,620c0,0,13,411,17,446c0,0,17,139,60,188c0,0,43,48,98,48c0,0,37,0,65,-25c0,0,28,-25,28,-54c0,0,0,-35,-19,-57c0,0,-20,-21,-49,-21c0,0,-26,0,-57,27c0,0,-17,15,-30,15c0,0,-12,0,-21,-11c0,0,-8,-11,-8,-37c0,0,0,-31,6,-108c0,0,28,-306,28,-496c0,0,0,-50,-12,-439c0,0,-6,-219,-67,-296c0,0,-41,-50,-101,-50Z" 
id="f6_50"
transform="scale(0.001,-0.001)" />

<path d="M44,0V40L172,60V941L44,960v40H471V960L316,941V65H513c0,0,159,0,234,14l46,208h48L828,0Z" 
id="f3_1c"
transform="scale(0.001,-0.001)" />

<path d="M631,416L539,902L283,416ZM576,0l8,40L691,60L643,348H249L96,60L197,40L189,0H-83l8,40L7,60l509,949H659L845,60L938,40L930,0Z" 
id="f5_11"
transform="scale(0.001,-0.001)" />

<path d="M459,63c0,0,143,0,210,55c0,0,67,56,67,185c0,0,0,101,-66,146c0,0,-66,46,-190,46H341L266,67c0,0,114,-4,193,-4Zm18,499c0,0,144,0,206,49c0,0,61,48,61,170c0,0,0,77,-48,115c0,0,-48,37,-160,37H419L353,562ZM459,-4L173,0H14l8,40l99,20L277,941L151,960l8,40H570c0,0,330,0,330,-210c0,0,0,-105,-66,-174c0,0,-66,-69,-184,-85c0,0,115,-9,179,-69c0,0,63,-59,63,-157c0,0,0,-160,-108,-235C784,70,675,-4,459,-4Z" 
id="f5_12"
transform="scale(0.001,-0.001)" />

<path d="M536,63c0,0,127,0,191,54c0,0,63,54,63,168c0,0,0,105,-70,154c0,0,-70,49,-225,49H316V67c0,0,103,-4,220,-4ZM480,555c0,0,121,0,178,48c0,0,57,48,57,155c0,0,0,91,-58,133c0,0,-57,42,-186,42H316V555ZM554,-4L235,0H44V40L172,60V941L44,960v40H501c0,0,191,0,279,-56c0,0,88,-56,88,-179c0,0,0,-88,-55,-149c0,0,-54,-62,-151,-83c0,0,135,-14,209,-79c0,0,73,-65,73,-166c0,0,0,-144,-99,-219C845,69,745,-4,554,-4Z" 
id="f3_12"
transform="scale(0.001,-0.001)" />

<path d="M410,45c0,0,90,0,130,58c0,0,40,59,40,193c0,0,0,122,-38,177c0,0,-38,54,-122,54c0,0,-102,0,-217,-37c0,0,0,-227,51,-336c0,0,52,-109,156,-109Zm3,-59c0,0,-169,0,-258,131c0,0,-89,131,-89,377c0,0,0,161,47,278c0,0,47,117,131,178c0,0,85,61,196,61c0,0,109,0,217,-26V813H608L582,915c0,0,-25,13,-67,23c0,0,-41,10,-75,10c0,0,-109,0,-170,-105c0,0,-60,-106,-66,-308c0,0,121,63,244,63c0,0,132,0,201,-74c0,0,69,-74,69,-214c0,0,0,-156,-78,-240c0,0,-79,-84,-227,-84Z" 
id="f3_q"
transform="scale(0.001,-0.001)" />

<path d="M435,350V646c0,0,0,84,7,158L145,350ZM435,0V198H21V319l450,686H636V350H736V198H636V0Z" 
id="f2_o"
transform="scale(0.001,-0.001)" />

<path d="M377,45c0,0,99,0,145,108c0,0,46,109,46,352c0,0,0,240,-45,345c0,0,-46,106,-146,106c0,0,-97,0,-139,-100c0,0,-43,-99,-43,-351c0,0,0,-254,44,-357c0,0,43,-103,138,-103Zm0,-59c0,0,-158,0,-238,132c0,0,-81,133,-81,386c0,0,0,249,81,380c0,0,80,132,244,132c0,0,159,0,241,-130c0,0,82,-130,82,-382c0,0,0,-518,-329,-518Z" 
id="f3_k"
transform="scale(0.001,-0.001)" />

<path d="M595,60c0,0,141,0,206,102c0,0,65,102,65,340c0,0,0,236,-65,335c0,0,-65,100,-206,100c0,0,-142,0,-207,-100c0,0,-66,-99,-66,-335c0,0,0,-239,66,-340c0,0,65,-102,207,-102Zm0,-74c0,0,-253,0,-387,130C208,116,75,246,75,501c0,0,0,510,520,510c0,0,256,0,387,-129c0,0,132,-130,132,-381c0,0,0,-254,-133,-385C981,116,848,-14,595,-14Z" 
id="f2_1f"
transform="scale(0.001,-0.001)" />

<path d="M498,506c0,0,115,0,164,47c0,0,48,48,48,166c0,0,0,112,-46,156c0,0,-46,43,-169,43H390V506ZM793,0L514,423H390V74L518,54V0H36V54L154,74V926L26,945v55H504c0,0,221,0,330,-68c0,0,109,-68,109,-212c0,0,0,-215,-201,-276L1009,74L1117,54V0Z" 
id="f2_1i"
transform="scale(0.001,-0.001)" />

<path d="M44,0V40L172,60V941L44,960v40H794V760H745L721,922c0,0,-83,11,-241,11H316V543H586l23,119h48V354H609L586,475H316V67H513c0,0,193,0,252,12l43,185h49L843,0Z" 
id="f3_15"
transform="scale(0.001,-0.001)" />


</defs>
</svg>