<?xml version="1.0" encoding="UTF-8" standalone="no"?>
<!DOCTYPE svg PUBLIC "-//W3C//DTD SVG 1.1//EN"
"http://www.w3.org/Graphics/SVG/1.1/DTD/svg11.dtd">
<svg viewBox="0 0 909 1286" version="1.1" xmlns="http://www.w3.org/2000/svg" xmlns:xlink="http://www.w3.org/1999/xlink">
<defs>
<style type="text/css"><![CDATA[
.g0_25{
fill: none;
stroke: #000000;
stroke-width: 0.18333334;
stroke-linecap: butt;
stroke-linejoin: miter;
stroke-miterlimit: 2;
}
.g1_25{
}
]]></style>
</defs>
<g fill="#000000" >
<use xlink:href="#f0_k" transform="matrix(12.1,0,0,12.1,153.5,123.3)" />
<use xlink:href="#f1_28" transform="matrix(12.1,0,-3.3,12.1,123.8,123.3)" />
<use xlink:href="#f2_x" transform="matrix(12.1,0,0,12.1,139.3,123.3)" />
<use xlink:href="#f2_c" transform="matrix(11.8,0,0,15.8,341.4,154.9)" />
<use xlink:href="#f2_d" transform="matrix(11.8,0,0,15.8,399.3,154.9)" />
<use xlink:href="#f0_m" transform="matrix(12.1,0,0,12.1,175.6,153.4)" />
<use xlink:href="#f0_g" transform="matrix(12.1,0,0,12.1,184.4,153.4)" />
<use xlink:href="#f0_l" transform="matrix(12.1,0,0,12.1,232.7,153.4)" />
<use xlink:href="#f0_g" transform="matrix(12.1,0,0,12.1,240.2,153.4)" />
<use xlink:href="#f0_m" transform="matrix(12.1,0,0,12.1,275.4,153.4)" />
<use xlink:href="#f0_m" transform="matrix(12.1,0,0,12.1,349,153.4)" />
<use xlink:href="#f0_g" transform="matrix(12.1,0,0,12.1,357.9,153.4)" />
<use xlink:href="#f0_l" transform="matrix(12.1,0,0,12.1,374.9,153.4)" />
<use xlink:href="#f0_g" transform="matrix(12.1,0,0,12.1,382.2,153.4)" />
<use xlink:href="#f0_m" transform="matrix(12.1,0,0,12.1,389.2,153.4)" />
<use xlink:href="#f3_1h" transform="matrix(12.1,0,0,12.1,309.8,153.4)" />
<use xlink:href="#f1_1x" transform="matrix(12.1,0,-3.2,12.1,143.5,153.4)" />
<use xlink:href="#f1_1y" transform="matrix(12.1,0,-3.2,12.1,191.6,153.4)" />
<use xlink:href="#f1_23" transform="matrix(12.1,0,-3.2,12.1,246.2,153.4)" />
<use xlink:href="#f2_1s" transform="matrix(12.1,0,0,12.1,121.2,153.4)" />
<use xlink:href="#f2_x" transform="matrix(12.1,0,0,12.1,161.3,153.4)" />
<use xlink:href="#f2_x" transform="matrix(12.1,0,0,12.1,208.2,153.4)" />
<use xlink:href="#f2_h" transform="matrix(12.1,0,0,12.1,222.5,153.4)" />
<use xlink:href="#f2_x" transform="matrix(12.1,0,0,12.1,261,153.4)" />
<use xlink:href="#f2_4g" transform="matrix(12.1,0,0,12.1,288,153.4)" />
<use xlink:href="#f2_3g" transform="matrix(12.1,0,0,12.1,327.5,153.4)" />
<use xlink:href="#f2_h" transform="matrix(12.1,0,0,12.1,364.7,153.4)" />
<use xlink:href="#f2_c" transform="matrix(11.8,0,0,15.9,133.7,200.7)" />
<use xlink:href="#f2_d" transform="matrix(11.8,0,0,15.9,167.8,200.7)" />
<use xlink:href="#f2_c" transform="matrix(11.8,0,0,15.9,204.1,200.7)" />
<use xlink:href="#f2_d" transform="matrix(11.8,0,0,15.9,255.8,200.7)" />
<use xlink:href="#f2_c" transform="matrix(11.8,0,0,15.9,285.3,200.7)" />
<use xlink:href="#f2_d" transform="matrix(11.8,0,0,15.9,335,200.7)" />
<use xlink:href="#f2_c" transform="matrix(11.8,0,0,15.9,364.5,200.7)" />
<use xlink:href="#f2_d" transform="matrix(11.8,0,0,15.9,426.8,200.7)" />
</g>
<path d="M192.7,197.1l1.8,-1.6m0,0l4.5,11.6m0,0l4.8,-30.6m0,0H441.1" class="g0_25" />
<path fill-rule="evenodd" d="M192.5,196.9l2.5,-2.2l4,9.7L203.5,176H441.1v.9H204.2l-4.8,30.2h-.9L194,196.3l-1.1,1l-.4,-.4Z" class="g1_25" />
<g fill="#000000" >
<use xlink:href="#f0_m" transform="matrix(7,0,0,7,262.2,188.2)" />
<use xlink:href="#f0_m" transform="matrix(7,0,0,7,341.4,188.2)" />
<use xlink:href="#f0_m" transform="matrix(7,0,0,7,433.2,188.2)" />
<use xlink:href="#f0_l" transform="matrix(12.1,0,0,12.1,221.7,199.4)" />
<use xlink:href="#f0_m" transform="matrix(12.1,0,0,12.1,245.5,199.4)" />
<use xlink:href="#f0_p" transform="matrix(12.1,0,0,12.1,302.9,199.4)" />
<use xlink:href="#f0_l" transform="matrix(12.1,0,0,12.1,326.1,199.4)" />
<use xlink:href="#f0_l" transform="matrix(12.1,0,0,12.1,382.2,199.4)" />
<use xlink:href="#f0_k" transform="matrix(12.1,0,0,12.1,391.4,199.4)" />
<use xlink:href="#f0_m" transform="matrix(12.1,0,0,12.1,416.5,199.4)" />
<use xlink:href="#f3_1g" transform="matrix(12.1,0,0,12.1,141.9,199.4)" />
<use xlink:href="#f3_1h" transform="matrix(12.1,0,0,12.1,153.1,199.4)" />
<use xlink:href="#f2_x" transform="matrix(12.1,0,0,12.1,177.8,199.4)" />
<use xlink:href="#f2_h" transform="matrix(12.1,0,0,12.1,211.7,199.4)" />
<use xlink:href="#f2_h" transform="matrix(12.1,0,0,12.1,232.3,199.4)" />
<use xlink:href="#f2_f" transform="matrix(12.1,0,0,12.1,272.4,199.4)" />
<use xlink:href="#f2_h" transform="matrix(12.1,0,0,12.1,292.9,199.4)" />
<use xlink:href="#f2_f" transform="matrix(12.1,0,0,12.1,314.8,199.4)" />
<use xlink:href="#f2_f" transform="matrix(12.1,0,0,12.1,351.6,199.4)" />
<use xlink:href="#f2_h" transform="matrix(12.1,0,0,12.1,372.1,199.4)" />
<use xlink:href="#f2_h" transform="matrix(12.1,0,0,12.1,403.3,199.4)" />
<use xlink:href="#f4_1u" transform="matrix(12.1,0,0,12.1,123.8,199.4)" />
</g>
<path d="M195.1,235.3l1.8,-1m0,0l4.5,7.3m0,0l4.9,-19.4m0,0H291" class="g0_25" />
<path fill-rule="evenodd" d="M194.9,235.1l2.5,-1.4l4,6l4.5,-17.9H291v.9H206.6l-4.7,18.9h-1l-4.5,-6.8l-1.2,.8l-.3,-.5Z" class="g1_25" />
<g fill="#000000" >
<use xlink:href="#f0_t" transform="matrix(12,0,0,12,206.4,239.9)" />
<use xlink:href="#f0_l" transform="matrix(12,0,0,12,230.1,239.9)" />
<use xlink:href="#f0_q" transform="matrix(12,0,0,12,239.2,239.9)" />
<use xlink:href="#f0_l" transform="matrix(12,0,0,12,262.9,239.9)" />
<use xlink:href="#f0_o" transform="matrix(12,0,0,12,272,239.9)" />
<use xlink:href="#f0_o" transform="matrix(12,0,0,12,281.2,239.9)" />
<use xlink:href="#f2_x" transform="matrix(12,0,0,12,180.2,239.9)" />
<use xlink:href="#f2_f" transform="matrix(12,0,0,12,218.5,239.9)" />
<use xlink:href="#f2_f" transform="matrix(12,0,0,12,251.3,239.9)" />
</g>
<path d="M195,268.3l1.9,-1m0,0l4.4,7.3m0,0l4.9,-19.4m0,0H233" class="g0_25" />
<path fill-rule="evenodd" d="M194.8,268.1l2.6,-1.4l3.9,6l4.5,-17.9H233v.9H206.5l-4.7,18.9h-.9l-4.5,-6.8l-1.3,.8l-.3,-.5Z" class="g1_25" />
<g fill="#000000" >
<use xlink:href="#f0_l" transform="matrix(12,0,0,12,205,272.9)" />
<use xlink:href="#f0_q" transform="matrix(12,0,0,12,214.1,272.9)" />
<use xlink:href="#f0_t" transform="matrix(12,0,0,12,223.3,272.9)" />
<use xlink:href="#f2_x" transform="matrix(12,0,0,12,180.2,272.9)" />
<use xlink:href="#f5_x" transform="matrix(12.1,0,0,12.1,180.2,301.2)" />
<use xlink:href="#f0_l" transform="matrix(12.1,0,0,12.1,195,301.2)" />
<use xlink:href="#f0_n" transform="matrix(12.1,0,0,12.1,204.3,301.2)" />
<use xlink:href="#f0_2h" transform="matrix(12.1,0,0,12.1,218.1,301.2)" />
<use xlink:href="#f0_2a" transform="matrix(12.1,0,0,12.1,227.4,301.2)" />
<use xlink:href="#f0_25" transform="matrix(12.1,0,0,12.1,236.6,301.2)" />
<use xlink:href="#f0_2g" transform="matrix(12.1,0,0,12.1,241.8,301.2)" />
<use xlink:href="#f0_2f" transform="matrix(12.1,0,0,12.1,246.9,301.2)" />
<use xlink:href="#f6_m" transform="matrix(8,0,0,8,785.4,1264.3)" />
<use xlink:href="#f6_p" transform="matrix(8,0,0,8,792.2,1264.3)" />
</g>
<defs>
<path d="M379,29c0,0,41,0,84,37c0,0,43,36,65,121c0,0,34,128,34,362c0,0,0,173,-35,288c0,0,-27,86,-69,122c0,0,-31,25,-74,25c0,0,-51,0,-90,-46c0,0,-54,-62,-73,-195c0,0,-20,-132,-20,-261c0,0,0,-209,52,-341c0,0,42,-112,126,-112Zm-2,-46c0,0,-145,0,-241,170c0,0,-81,144,-81,347c0,0,0,173,52,298c0,0,52,125,139,186c0,0,67,49,139,49c0,0,116,0,208,-119c0,0,116,-147,116,-398c0,0,0,-176,-51,-299C658,217,608,94,529,38c0,0,-79,-55,-152,-55Z" 
id="f0_k"
transform="scale(0.001,-0.001)" />

<path d="M620,-14c0,0,-52,0,-93,43c0,0,-41,45,-77,203L384,522L132,0H0L340,703l-12,66c0,0,-23,107,-61,146c0,0,-37,38,-83,38c0,0,-42,0,-74,-30c0,0,-31,-31,-41,-100H43c0,0,2,117,57,187c0,0,40,51,96,51c0,0,50,0,86,-40c0,0,54,-60,88,-213L489,283c0,0,27,-118,62,-153c0,0,33,-36,79,-36c0,0,43,0,71,29c0,0,28,29,33,94h30c0,0,1,-19,1,-29c0,0,0,-98,-49,-158c0,0,-37,-44,-96,-44Z" 
id="f1_28"
transform="scale(0.001,-0.001)" />

<path d="M0,214v74H784V214ZM0,494v72H784V494Z" 
id="f2_x"
transform="scale(0.001,-0.001)" />

<path d="M412,-328c0,0,-195,96,-303,284C109,-44,0,142,0,365c0,0,0,232,114,422c0,0,114,191,298,273v-31c0,0,-92,-51,-151,-139c0,0,-59,-88,-88,-223c0,0,-29,-136,-29,-282c0,0,0,-167,27,-301c0,0,26,-133,82,-221c0,0,55,-89,159,-159v-32Z" 
id="f2_c"
transform="scale(0.001,-0.001)" />

<path d="M34,-328v32c0,0,92,50,151,138c0,0,59,88,88,222c0,0,29,135,29,283c0,0,0,165,-27,300c0,0,-26,134,-82,222c0,0,-56,89,-159,160v31c0,0,194,-96,303,-284c0,0,108,-187,108,-410c0,0,0,-232,-114,-422c0,0,-114,-191,-297,-272Z" 
id="f2_d"
transform="scale(0.001,-0.001)" />

<path d="M33,0V27c0,0,264,241,371,393c0,0,108,152,108,278c0,0,0,96,-59,158c0,0,-59,62,-141,62c0,0,-75,0,-134,-43c0,0,-59,-44,-88,-128H63c0,0,18,138,95,212c0,0,77,74,193,74c0,0,123,0,205,-80c0,0,83,-79,83,-186c0,0,0,-77,-36,-154c0,0,-55,-121,-179,-256C424,357,238,154,191,112H455c0,0,81,0,114,6c0,0,32,6,58,25c0,0,27,18,46,52h27L630,0Z" 
id="f0_m"
transform="scale(0.001,-0.001)" />

<path d="M82,-253v33c0,0,77,25,119,78c0,0,42,54,42,114c0,0,0,14,-7,23c0,0,-5,6,-11,6c0,0,-8,0,-35,-14c0,0,-14,-7,-28,-7c0,0,-37,0,-58,21C104,1,82,23,82,61c0,0,0,36,28,62c0,0,28,27,68,27c0,0,49,0,88,-43c0,0,38,-43,38,-113c0,0,0,-77,-53,-143c0,0,-53,-66,-169,-104Z" 
id="f0_g"
transform="scale(0.001,-0.001)" />

<path d="M197,0V27c0,0,71,2,92,13c0,0,21,10,29,29c0,0,9,18,9,109V725c0,0,0,110,-8,141c0,0,-5,24,-19,35c0,0,-14,11,-33,11c0,0,-28,0,-77,-23l-11,23l246,121h25V178c0,0,0,-85,7,-106c0,0,7,-21,29,-32c0,0,23,-11,91,-13V0Z" 
id="f0_l"
transform="scale(0.001,-0.001)" />

<path d="M467,25c0,0,67,0,133,34c0,0,65,33,136,114c0,0,89,103,149,261c0,0,61,159,61,296c0,0,0,100,-55,178c0,0,-54,79,-164,79c0,0,-75,0,-146,-37c0,0,-71,-37,-141,-121c0,0,-70,-84,-126,-219c0,0,-68,-167,-68,-316c0,0,0,-105,54,-187c0,0,55,-82,167,-82ZM600,-322c0,0,-65,0,-177,26c0,0,-172,38,-241,38c0,0,-26,0,-42,-4c0,0,-17,-4,-49,-18l-18,21L378,-17c0,0,-141,19,-214,124c0,0,-73,105,-73,224c0,0,0,163,99,338c0,0,98,174,252,270c0,0,154,95,302,95c0,0,111,0,189,-44c0,0,78,-45,120,-130c0,0,43,-86,43,-175c0,0,0,-172,-98,-347C998,338,900,162,755,71c0,0,-145,-89,-308,-92L255,-178c0,0,45,8,84,8c0,0,37,0,69,-5c0,0,32,-4,136,-27c0,0,104,-24,181,-24c0,0,83,0,141,29c0,0,58,28,112,95l25,-11c0,0,-77,-111,-181,-160c0,0,-105,-49,-222,-49Z" 
id="f3_1h"
transform="scale(0.001,-0.001)" />

<path d="M316,27c0,0,57,0,105,53c0,0,65,72,125,295c0,0,-40,153,-104,214c0,0,-63,61,-129,61c0,0,-73,0,-122,-80c0,0,-48,-80,-48,-255c0,0,0,-104,20,-163c0,0,21,-60,64,-92c0,0,42,-33,89,-33Zm4,-49c0,0,-165,0,-243,108C77,86,0,196,0,336c0,0,0,164,91,265c0,0,91,102,213,102c0,0,85,0,150,-52c0,0,65,-51,118,-192l65,224H760L662,344c0,0,-9,-32,-30,-100c0,0,29,-115,43,-137c0,0,27,-41,68,-41c0,0,30,0,55,24c0,0,26,25,34,77h30C862,167,852,60,817,19c0,0,-35,-40,-81,-40c0,0,-42,0,-77,34c0,0,-35,36,-62,154c0,0,-33,-65,-65,-99C532,68,488,22,437,0c0,0,-52,-22,-117,-22Z" 
id="f1_1x"
transform="scale(0.001,-0.001)" />

<path d="M363,28c0,0,75,0,126,63c0,0,51,62,51,197c0,0,0,85,-24,149c0,0,-24,63,-86,139c0,0,-51,-17,-89,-17c0,0,-44,0,-63,14c0,0,-18,13,-18,29c0,0,0,14,14,25c0,0,14,11,46,11c0,0,36,0,110,-19c0,0,53,104,53,196c0,0,0,94,-47,146c0,0,-46,51,-115,51c0,0,-86,0,-134,-73c0,0,-31,-49,-31,-156V118c0,0,72,-51,126,-73c0,0,40,-17,81,-17ZM0,-328c0,0,20,92,24,126c0,0,10,104,10,152V712c0,0,0,133,26,198c0,0,27,64,96,108c0,0,69,43,165,43c0,0,133,0,213,-72c0,0,80,-71,80,-170c0,0,0,-63,-33,-120c0,0,-32,-57,-100,-99c0,0,200,-95,200,-297c0,0,0,-89,-42,-167C639,136,598,59,524,18c0,0,-73,-39,-150,-39c0,0,-50,0,-99,17c0,0,-49,16,-119,63V-66c0,0,0,-121,-30,-262Z" 
id="f1_1y"
transform="scale(0.001,-0.001)" />

<path d="M263,-328c0,0,-25,0,-44,20c0,0,-19,21,-19,54c0,0,0,57,23,132c0,0,23,75,69,168c0,0,-55,382,-87,461c0,0,-32,79,-90,79c0,0,-35,0,-55,-22c0,0,-20,-21,-31,-96H0c0,0,0,23,0,34c0,0,0,103,39,155c0,0,31,39,83,39c0,0,44,0,73,-27c0,0,39,-38,69,-165c0,0,39,-166,61,-361l65,222c0,0,44,149,114,318H628c0,0,-12,-26,-123,-255c0,0,-46,-95,-66,-144c0,0,-9,-21,-20,-44L333,56c0,0,5,-48,7,-87c0,0,3,-40,3,-73c0,0,0,-101,-15,-157c0,0,-11,-38,-28,-53c0,0,-17,-14,-37,-14Z" 
id="f1_23"
transform="scale(0.001,-0.001)" />

<path d="M83,0C83,0,48,0,24,24C24,24,0,49,0,83c0,0,0,34,24,58c0,0,24,24,59,24c0,0,34,0,58,-24c0,0,24,-24,24,-58c0,0,0,-34,-24,-59C141,24,117,0,83,0ZM695,0c0,0,-34,0,-58,24c0,0,-25,25,-25,59c0,0,0,34,25,58c0,0,24,24,58,24c0,0,34,0,58,-24c0,0,24,-24,24,-58c0,0,0,-34,-24,-59C753,24,729,0,695,0ZM388,594c0,0,-34,0,-59,23c0,0,-24,24,-24,59c0,0,0,34,24,58c0,0,25,25,59,25c0,0,34,0,58,-25c0,0,24,-24,24,-58c0,0,0,-35,-24,-59c0,0,-24,-23,-58,-23Z" 
id="f2_1s"
transform="scale(0.001,-0.001)" />

<path d="M0,356v74H784V356Z" 
id="f2_h"
transform="scale(0.001,-0.001)" />

<path d="M945,-20c0,0,47,75,125,153H57v74H1147l108,91c0,0,23,19,95,72c0,0,-134,103,-203,166H57v72H1070c0,0,-78,78,-125,154h85c0,0,88,-107,217,-217c0,0,130,-110,206,-154V349c0,0,-101,-58,-219,-162c0,0,-118,-103,-204,-207Z" 
id="f2_4g"
transform="scale(0.001,-0.001)" />

<path d="M0,134v72H785V134ZM0,353v74H785V353ZM0,574v72H785V574Z" 
id="f2_3g"
transform="scale(0.001,-0.001)" />

<path d="M247,-17c0,0,-91,0,-132,30c0,0,-42,31,-42,68c0,0,0,21,17,37c0,0,18,16,44,17c0,0,19,0,34,-6c0,0,14,-7,49,-31c0,0,56,-39,113,-39c0,0,88,0,154,66c0,0,66,66,66,161c0,0,0,92,-59,171c0,0,-59,80,-163,123c0,0,-81,34,-221,39l194,393H663L605,885H301L234,750c0,0,198,-29,313,-147c0,0,100,-102,100,-239c0,0,0,-80,-33,-148c0,0,-32,-68,-81,-116c0,0,-50,-47,-110,-77c0,0,-86,-40,-176,-40Z" 
id="f0_p"
transform="scale(0.001,-0.001)" />

<path d="M512,518c0,0,82,0,149,34c0,0,67,33,105,101c0,0,38,67,38,140c0,0,0,75,-47,119c0,0,-47,44,-142,44c0,0,-52,0,-125,-12L376,541c0,0,85,-23,136,-23ZM-35,0l8,26c0,0,78,0,109,28c0,0,31,27,67,151L312,782c0,0,30,104,30,139c0,0,0,26,-21,44c0,0,-21,17,-94,21l9,26H636c0,0,157,0,235,-68c0,0,78,-67,78,-164c0,0,0,-77,-50,-150c0,0,-49,-72,-147,-117c0,0,-97,-46,-210,-46c0,0,-71,0,-179,27L280,203c0,0,-28,-92,-28,-121c0,0,0,-22,20,-37c0,0,20,-14,96,-19L361,0Z" 
id="f3_1g"
transform="scale(0.001,-0.001)" />

<path d="M355,0V355H0v72H355V784h72V427H782V355H427V0Z" 
id="f2_f"
transform="scale(0.001,-0.001)" />

<path d="M266,336v0c59,64,106,125,106,125c47,62,82,121,82,121c35,60,62,118,62,118c28,58,49,116,49,116c5,14,10,45,10,45c6,31,5,63,5,63c-1,31,-12,55,-12,55c-12,23,-39,23,-39,23c-25,0,-57,-52,-57,-52C440,898,408,822,408,822C376,746,347,658,347,658C318,570,299,497,299,497c-9,-36,-17,-77,-17,-77c-9,-41,-16,-84,-16,-84ZM342,-19c-44,0,-74,35,-74,35C238,51,221,94,221,94c-18,44,-25,83,-25,83c-8,40,-10,48,-10,48C171,211,158,199,158,199C145,187,131,174,131,174C118,161,101,145,101,145C84,130,61,110,61,110v-1c0,-3,-1,-4,-3,-4c-2,0,-5,1,-5,1q-7,4,-7,4c0,0,-3,9,-3,9c-3,8,3,13,3,13c30,26,67,60,67,60c37,34,72,63,72,63c1,67,10,135,10,135c8,68,19,126,19,126c14,75,50,165,50,165c37,90,83,168,83,168c46,78,94,131,94,131c48,53,85,53,85,53c45,0,64,-29,64,-29c20,-29,23,-68,23,-68c4,-38,-3,-74,-3,-74c-7,-36,-11,-51,-11,-51C571,727,537,658,537,658C503,588,461,527,461,527C420,466,370,410,370,410C321,353,261,295,261,295c-7,-55,-9,-106,-9,-106c-1,-51,7,-91,7,-91c8,-39,28,-64,28,-64C307,10,342,10,342,10c29,0,52,8,52,8c23,9,43,23,43,23c20,15,38,33,38,33c18,18,40,40,40,40c4,4,8,5,11,5c3,0,4,-1,4,-1q8,-3,8,-3c0,0,4,-7,4,-7c3,-7,-1,-13,-1,-13C495,37,451,9,451,9C408,-19,342,-19,342,-19Z" 
id="f4_1u"
transform="scale(0.001,-0.001)" />

<path d="M379,437c0,0,34,0,81,16c0,0,47,17,83,47c0,0,14,97,14,155c0,0,0,72,-25,156c0,0,-25,83,-70,128c0,0,-45,45,-103,45c0,0,-66,0,-116,-60c0,0,-50,-59,-50,-177c0,0,0,-157,66,-246c0,0,49,-64,120,-64ZM80,-20V7c0,0,97,1,181,45c0,0,83,44,161,153c0,0,78,109,109,240c0,0,-117,-75,-212,-75c0,0,-107,0,-183,82c0,0,-76,82,-76,219c0,0,0,132,76,236c0,0,92,126,240,126c0,0,124,0,213,-103c0,0,109,-128,109,-315c0,0,0,-169,-82,-314C616,301,533,155,385,59c0,0,-120,-79,-262,-79Z" 
id="f0_t"
transform="scale(0.001,-0.001)" />

<path d="M405,24c0,0,65,0,116,62c0,0,51,61,51,174c0,0,0,128,-50,221c0,0,-51,93,-144,93c0,0,-29,0,-61,-12c0,0,-33,-12,-96,-51c0,0,-14,-101,-14,-163c0,0,0,-72,27,-155c0,0,26,-84,79,-134c0,0,38,-35,92,-35ZM384,-17c0,0,-104,0,-177,68C207,51,66,185,66,397c0,0,0,136,54,258c0,0,54,122,156,217c0,0,101,95,193,128c0,0,93,33,172,33h44v-28c0,0,-99,-10,-161,-39c0,0,-62,-29,-123,-90c0,0,-61,-60,-101,-135c0,0,-39,-74,-66,-176c0,0,107,73,215,73c0,0,104,0,180,-83c0,0,76,-84,76,-215c0,0,0,-126,-77,-231c0,0,-92,-126,-244,-126Z" 
id="f0_q"
transform="scale(0.001,-0.001)" />

<path d="M452,373V875L97,373ZM452,0V267H23v95l470,671h82V373H711V267H575V0Z" 
id="f0_o"
transform="scale(0.001,-0.001)" />

<path d="M0,214v74H784V214ZM0,494v72H784V494Z" 
id="f5_x"
transform="scale(0.001,-0.001)" />

<path d="M238,-17c0,0,-103,0,-139,25C99,8,62,33,62,62c0,0,0,22,17,38c0,0,18,16,42,16c0,0,19,0,38,-6c0,0,13,-3,58,-27c0,0,45,-23,62,-28c0,0,27,-8,59,-8c0,0,76,0,132,59c0,0,56,59,56,140c0,0,0,59,-26,115c0,0,-19,41,-42,63c0,0,-32,30,-88,54c0,0,-56,25,-114,25H232v22c0,0,59,8,118,42c0,0,59,35,86,85c0,0,27,49,27,108c0,0,0,76,-48,124c0,0,-48,47,-120,47c0,0,-116,0,-193,-124L77,819c0,0,44,102,110,158c0,0,66,56,164,56c0,0,122,0,187,-80c0,0,49,-58,49,-126c0,0,0,-110,-139,-228c0,0,93,-36,141,-104c0,0,48,-68,48,-160c0,0,0,-131,-84,-227C553,108,444,-17,238,-17Z" 
id="f0_n"
transform="scale(0.001,-0.001)" />

<path d="M292,-20c0,0,-57,0,-100,33c0,0,-42,33,-58,85c0,0,-17,52,-17,148V551c0,0,0,49,-10,68c0,0,-11,18,-31,29c0,0,-19,9,-68,9c-2,0,-4,0,-6,0v26H242V226c0,0,0,-95,33,-125c0,0,33,-30,80,-30c0,0,32,0,73,21c0,0,40,20,96,76V555c0,0,0,59,-21,80c0,0,-22,21,-89,22v26H647V269c0,0,0,-119,6,-145c0,0,6,-27,18,-37c0,0,12,-11,29,-11c0,0,23,0,52,13L763,63L558,-20H524V124C524,124,436,29,390,4c0,0,-47,-24,-98,-24Z" 
id="f0_2h"
transform="scale(0.001,-0.001)" />

<path d="M21,0V26H35c0,0,53,0,71,27c0,0,18,27,18,101V408c0,0,0,123,-5,150c0,0,-6,27,-17,37c0,0,-12,10,-31,10c0,0,-21,0,-50,-11L10,620l206,83h32V558c0,0,120,145,229,145c0,0,56,0,96,-28c0,0,40,-28,64,-92c0,0,16,-45,16,-137V154c0,0,0,-65,11,-88c0,0,8,-19,26,-29c0,0,18,-11,68,-11V0H419V26h14c0,0,47,0,66,15c0,0,20,15,27,43c0,0,3,11,3,70V434c0,0,0,93,-24,135c0,0,-24,42,-81,42c0,0,-88,0,-176,-97V154c0,0,0,-69,9,-86c0,0,10,-21,28,-31c0,0,19,-11,75,-11V0Z" 
id="f0_2a"
transform="scale(0.001,-0.001)" />

<path d="M55,0V26c0,0,50,0,67,10c0,0,17,10,27,32c0,0,10,23,10,86V418c0,0,0,111,-6,144c0,0,-6,24,-17,33c0,0,-11,10,-30,10c0,0,-21,0,-51,-11L45,620l206,83h33V154c0,0,0,-64,9,-85c0,0,9,-22,27,-32c0,0,19,-11,67,-11V0ZM222,909c0,0,-32,0,-54,23c0,0,-22,22,-22,53c0,0,0,32,22,54c0,0,22,22,54,22c0,0,31,0,53,-22c0,0,22,-22,22,-54c0,0,0,-31,-22,-53c0,0,-22,-23,-53,-23Z" 
id="f0_25"
transform="scale(0.001,-0.001)" />

<path d="M255,-10c0,0,-35,0,-68,18c0,0,-32,19,-48,55c0,0,-16,35,-16,109V632H15v24c0,0,41,16,84,56c0,0,43,39,77,92c0,0,17,29,48,104h23V683H407V632H247V188c0,0,0,-66,19,-90c0,0,19,-23,49,-23c0,0,24,0,47,16c0,0,23,15,36,45h29c0,0,-26,-73,-74,-110c0,0,-47,-36,-98,-36Z" 
id="f0_2g"
transform="scale(0.001,-0.001)" />

<path d="M312,-20c0,0,-62,0,-143,22c0,0,-25,8,-40,8c0,0,-18,0,-27,-19H77V234h25c0,0,21,-105,80,-158c0,0,59,-53,132,-53c0,0,51,0,84,31c0,0,32,30,32,72c0,0,0,52,-36,87c0,0,-36,35,-144,88c0,0,-109,54,-142,97c0,0,-34,43,-34,107c0,0,0,85,58,141c0,0,58,57,150,57c0,0,40,0,97,-17c0,0,38,-11,51,-11c0,0,12,0,19,5c0,0,7,5,15,23h25V470H464c0,0,-28,110,-72,149c0,0,-45,40,-113,40c0,0,-53,0,-85,-28c0,0,-32,-27,-32,-61c0,0,0,-41,24,-71c0,0,23,-31,94,-65L389,381c0,0,152,-74,152,-194c0,0,0,-94,-71,-151c0,0,-70,-56,-158,-56Z" 
id="f0_2f"
transform="scale(0.001,-0.001)" />

<path d="M46,0c0,0,-2,48,16,93c0,0,27,74,88,146c0,0,61,71,176,165c0,0,178,146,241,232c0,0,63,85,63,161c0,0,0,80,-57,135c0,0,-58,55,-149,55c0,0,-98,0,-156,-59c0,0,-58,-58,-59,-160L71,782c0,0,15,154,107,235c0,0,93,81,249,81c0,0,157,0,249,-87c0,0,92,-88,92,-217c0,0,0,-65,-27,-129c0,0,-27,-63,-89,-133c0,0,-62,-70,-207,-193C445,339,324,238,290,202c0,0,-35,-36,-57,-73H770V0Z" 
id="f6_m"
transform="scale(0.001,-0.001)" />

<path d="M415,-18c0,0,-149,0,-244,83c0,0,-94,84,-107,222l140,11c0,0,16,-103,73,-154c0,0,56,-52,137,-52c0,0,98,0,165,73c0,0,66,73,66,194c0,0,0,115,-64,182c0,0,-64,66,-169,66c0,0,-65,0,-117,-29c0,0,-52,-30,-82,-77L87,517l106,562H736V951H300L241,657c0,0,99,69,207,69c0,0,143,0,242,-100c0,0,98,-99,98,-255c0,0,0,-149,-86,-257C702,114,597,-18,415,-18Z" 
id="f6_p"
transform="scale(0.001,-0.001)" />


</defs>
</svg>