<?xml version="1.0" encoding="UTF-8" standalone="no"?>
<!DOCTYPE svg PUBLIC "-//W3C//DTD SVG 1.1//EN"
"http://www.w3.org/Graphics/SVG/1.1/DTD/svg11.dtd">
<svg viewBox="0 0 909 1286" version="1.1" xmlns="http://www.w3.org/2000/svg" xmlns:xlink="http://www.w3.org/1999/xlink">
<defs>
<clipPath id="c0_10"><path d="M148.7,120.4V93.6h5.9v26.8Z" /></clipPath>
<clipPath id="c1_10"><path d="M291.9,120.4V93.6h5.3v26.8Z" /></clipPath>
<clipPath id="c2_10"><path d="M137.7,118.2V97.1H367.6v21.1Z" /></clipPath>
<clipPath id="c3_10"><path d="M164.8,118.2V97.1H367.6v21.1Z" /></clipPath>
<clipPath id="c4_10"><path d="M536.3,208.2V187.3H662.7v20.9Z" /></clipPath>
<clipPath id="c5_10"><path d="M745.4,208.4V181.6h5.9v26.8Z" /></clipPath>
<clipPath id="c6_10"><path d="M789.8,208.4V181.6h5.3v26.8Z" /></clipPath>
<clipPath id="c7_10"><path d="M760.7,208.9V196.7h38.6v12.2Z" /></clipPath>
<clipPath id="c8_10"><path d="M766.7,206.2V185.1h32.6v21.1Z" /></clipPath>
<clipPath id="c9_10"><path d="M753.3,206.2V185.1h46v21.1Z" /></clipPath>
<clipPath id="c10_10"><path d="M156.2,241.9V220.7h11.9v21.2Z" /></clipPath>
<clipPath id="c11_10"><path d="M142.1,241.4V218.7h26v22.7Z" /></clipPath>
<clipPath id="c12_10"><path d="M239.1,241.9V220.7h12.8v21.2Z" /></clipPath>
<clipPath id="c13_10"><path d="M225,241.4V218.7h26.9v22.7Z" /></clipPath>
<clipPath id="c14_10"><path d="M156.9,286.1V259.4h5.9v26.7Z" /></clipPath>
<clipPath id="c15_10"><path d="M200.9,286.1V259.4h5.2v26.7Z" /></clipPath>
<clipPath id="c16_10"><path d="M224.4,286.1V259.4h5.9v26.7Z" /></clipPath>
<clipPath id="c17_10"><path d="M263.5,286.1V259.4h5.1v26.7Z" /></clipPath>
<clipPath id="c18_10"><path d="M172,286.7V274.4H272.1v12.3Z" /></clipPath>
<clipPath id="c19_10"><path d="M139.3,283.9V262.8H272.1v21.1Z" /></clipPath>
<clipPath id="c20_10"><path d="M143.5,283.9V262.8H272.1v21.1Z" /></clipPath>
<clipPath id="c21_10"><path d="M121.9,290.2V259.4h35.8v30.8Z" /></clipPath>
<clipPath id="c22_10"><path d="M325.4,285.9V265H451.9v20.9Z" /></clipPath>
<clipPath id="c23_10"><path d="M121.9,328.3V307.8H263.3v20.5Z" /></clipPath>
<clipPath id="c24_10"><path d="M123.4,365V344.1H231.2V365Z" /></clipPath>
<clipPath id="c25_10"><path d="M155.3,364.6V342.2h75.9v22.4Z" /></clipPath>
<clipPath id="c26_10"><path d="M123.4,398V377.1h65.4V398Z" /></clipPath>
<clipPath id="c27_10"><path d="M155.5,397.6V375.2h33.3v22.4Z" /></clipPath>
<clipPath id="c28_10"><path d="M160.1,431V410.1h11.5V431Z" /></clipPath>
<clipPath id="c29_10"><path d="M146.3,430.6V408.2h25.3v22.4Z" /></clipPath>
<clipPath id="c30_10"><path d="M169.9,463V441.8h10.9V463Z" /></clipPath>
<clipPath id="c31_10"><path d="M143.4,462.5V439.8h37.4v22.7Z" /></clipPath>
<clipPath id="c32_10"><path d="M123.9,494.8V473.5H277v21.3Z" /></clipPath>
<clipPath id="c33_10"><path d="M172.5,494.2V471.5H277v22.7Z" /></clipPath>
<clipPath id="c34_10"><path d="M172.7,530.5V503.7h5.9v26.8Z" /></clipPath>
<clipPath id="c35_10"><path d="M205,530.5V503.7h5.3v26.8Z" /></clipPath>
<clipPath id="c36_10"><path d="M138.8,528.1V507h75.1v21.1Z" /></clipPath>
<clipPath id="c37_10"><path d="M121.9,564.8V543.9H248.4v20.9Z" /></clipPath>
<clipPath id="c38_10"><path d="M123.4,608.8V588.3h125v20.5Z" /></clipPath>
<clipPath id="c39_10"><path d="M198.9,622.5V602.4h46v20.1Z" /></clipPath>
<clipPath id="c40_10"><path d="M154.4,608.2v-22h94v22Z" /></clipPath>
<clipPath id="c41_10"><path d="M174.9,654.3V633.4h91.9v20.9Z" /></clipPath>
<clipPath id="c42_10"><path d="M168.3,680.1V659.2h98.5v20.9Z" /></clipPath>
<clipPath id="c43_10"><path d="M125.4,654.3V633.4H266.8v20.9Z" /></clipPath>
<clipPath id="c44_10"><path d="M125.6,680.1V659.2H266.8v20.9Z" /></clipPath>
<clipPath id="c45_10"><path d="M164.8,653.9V632.4h96.3v21.5Z" /></clipPath>
<clipPath id="c46_10"><path d="M321.4,714.2V693.7h95.5v20.5Z" /></clipPath>
<clipPath id="c47_10"><path d="M321.2,739.5V719.3h95.7v20.2Z" /></clipPath>
<clipPath id="c48_10"><path d="M311.5,713.7V692.6H416.9v21.1Z" /></clipPath>
<clipPath id="c49_10"><path d="M309.1,770.9V750.3H332v20.6Z" /></clipPath>
<clipPath id="c50_10"><path d="M308.9,796.2V776H332v20.2Z" /></clipPath>
<clipPath id="c51_10"><path d="M155.1,860.9V840.3H266.8v20.6Z" /></clipPath>
<clipPath id="c52_10"><path d="M193.1,874.6V854.5h43.2v20.1Z" /></clipPath>
<clipPath id="c53_10"><path d="M188.5,848.8V827.7h34.6v21.1Z" /></clipPath>
<clipPath id="c54_10"><path d="M143.2,860.3v-22H266.8v22Z" /></clipPath>
<clipPath id="c55_10"><path d="M123.9,902.9V882.5H281.6v20.4Z" /></clipPath>
<clipPath id="c56_10"><path d="M156.9,902.3V882H281.6v20.3Z" /></clipPath>
<clipPath id="c57_10"><path d="M123.4,932V911.7H269V932Z" /></clipPath>
<clipPath id="c58_10"><path d="M154.2,931.5V911.1H269v20.4Z" /></clipPath>
<clipPath id="c59_10"><path d="M157.1,997.5V976.9H266.8v20.6Z" /></clipPath>
<clipPath id="c60_10"><path d="M192.5,1011.2V991h46v20.2Z" /></clipPath>
<clipPath id="c61_10"><path d="M144.5,996.9v-22H266.8v22Z" /></clipPath>
<clipPath id="c62_10"><path d="M123.4,1039.4v-20.3H269v20.3Z" /></clipPath>
<clipPath id="c63_10"><path d="M155.3,1038.9v-20.4H269v20.4Z" /></clipPath>
<clipPath id="c64_10"><path d="M123.9,1068.6v-20.4H295.4v20.4Z" /></clipPath>
<clipPath id="c65_10"><path d="M155.1,1068v-20.3H295.4V1068Z" /></clipPath>
<clipPath id="c66_10"><path d="M123.9,1097.6v-20.4H262.2v20.4Z" /></clipPath>
<clipPath id="c67_10"><path d="M155.3,1097v-20.3H262.2V1097Z" /></clipPath>
<style type="text/css"><![CDATA[
.g0_10{
fill: #FFFFFF;
}
.g1_10{
fill: none;
stroke: #000000;
stroke-width: 0.90444446;
stroke-linecap: round;
stroke-linejoin: round;
}
.g2_10{
fill: none;
stroke: #000000;
stroke-width: 0.9090278;
stroke-linecap: round;
stroke-linejoin: round;
}
.g3_10{
fill: none;
stroke: #000000;
stroke-width: 0.9029167;
stroke-linecap: round;
stroke-linejoin: round;
}
.g4_10{
fill: none;
stroke: #000000;
stroke-width: 0.8769445;
stroke-linecap: round;
stroke-linejoin: round;
}
]]></style>
</defs>
<path fill-rule="evenodd" d="M279.7,577.9L310,574l1.1,9.8v9.5l-1.1,1l-1,1.8l-2,1.8h-2.1l-2.1,1h-3.3l-2,-1l-2.1,-1.8l-2.1,-2.8l-11.5,9.5l-1,-9.5l11.5,-8.7l-11.5,1l-1.1,-7.7Zm16.7,5.9v1.8l1.1,2l1,1.8l1,1.1h3.3l1.1,-1.1l1,-1.8v-4.8l-8.5,1Zm2.1,36.2l2,8.7L310,622l1.1,-1h1l1,-1H298.5Zm-14.7,-7.7l32.7,1l3,10.5l-26.2,20l-2,-8.4l4.1,-2.8L292.3,620h-5.4l-3.1,-7.7ZM329,673.6l-2.3,.8l-3,1l-3.1,1l-3.1,-1l-3.3,-1l-3.1,-.8L309,670.8l-2,-2.1l-2.1,-3.8l-1,-2.8v-6.7l1,-2.8l2.1,-2.9l1,-3l3.1,-1.8l2,-1.8l3.4,-1.1h6.1l3.1,1.1l3.3,1.8l2.1,1.8l2.1,3l2,2.9l1,2.8v6.7l-1,3.8l-1,2.8l-2.1,2.1l-3.1,2.8Zm-16.9,-9.5l3.3,2.8l3.1,.8h3.1l3.1,-1.8l2,-2.8l2.3,-2.8v-3.9l-1,-2.8l-2.3,-2.1l-3.1,-1h-4.1l-3.1,1l-2.3,2.9l-2,2.8V661l1,3.1ZM343.7,709l18.7,-25.9l6.5,5.7l-19.1,25.9L343.7,709Zm20.8,15.2l14.9,-28.8l7.2,4.9L371.9,728l-7.4,-3.8Zm26.2,12.6l7.4,-23.1L392,710.8l3,-6.6l19.8,7.7l-2,6.6l-6.2,-2l-8.5,23.1l-7.4,-2.8Zm58.8,-1.1H458l-4.4,-10.5v-2.8l-1,-2.1v3.9l-1,1l-2.1,10.5Zm-11.6,11.6l9.5,-31.6H458l11.5,31.6H461l-2,-5.9H447.4l-1,5.9h-8.5ZM494.7,709l2.1,9.5l-2.1,-2h-5.4l-3.1,1l-2,2.8l-1.1,3.9l1.1,2.8l1,3.9l2.1,2l3,.8h3.1l2.3,-.8l1.1,-1l2,-1l1,-2.9l2.1,9.5l-1,1.1l-2.1,2l-2,.8h-2.1l-2.3,1h-4.1l-2.1,-1l-4.1,-1.8l-2.3,-2.8l-3.1,-3.1l-1,-3.6l-1,-3.9v-3l1,-3.6l1,-3.1l2.1,-2.8l2.3,-1.8l2,-1.1l3.1,-1.8h8.5Zm22.9,10.6l7.4,-4.9L517.6,707h-1.1v-1l-1,-.8l-1,-1v1l1,.8v2l2.1,11.6Zm-5.2,15.1l-4.1,-33.4l8.2,-4.8l24.2,23.8l-7.2,3.9l-4.4,-4.6l-10.5,5.6l1.3,5.7l-7.5,3.8Zm37.8,-22.1L529.1,689.8l5.4,-4.9l4.1,-4.6l3.1,-2.1l3.3,-1.8h6.2l3.1,1.1l3.1,.7l3.3,3.1l2.1,3.6l1,3.1l1,3.8v3.6l-1,2.1l-1,2.8l-3.1,2.8l-3.4,3.9l-1,1l-5.1,4.6Zm2,-11.3l1.1,-1l2,-2.8l1,-3.9v-2.8l-2,-2.8l-3.1,-3.1l-3.1,-.8l-3.1,.8l-3.3,3.1l-1,.8l11.5,12.5Zm28.3,-20L555.3,663.1l11.6,-16.4l5.4,3.8l-6.5,9.8l4.1,2.8l6.5,-8.7l5.1,3.8l-6.2,8.7l4.1,3.9l6.5,-9.8l6.1,4.9l-11.5,15.4Zm32.6,-63.1l-3.1,7.7L596.4,622h-1.3l-1,-1L592,620h-2l2,1l2.1,1.8l1,1l11.6,9.5l-2.1,4.9l-14.6,-1h-1l-3.1,-1.1h-2.1l2.1,1.1h1l2.1,1l1,1l11.5,7.5l-3,6.9L572.3,637.2l3,-7.7l16.7,1v1h4.4h-1.3l-1,-1l-1,-1l-1.1,-.8L579.4,618.2l3.1,-7.7l30.6,7.7Zm2.1,-21.1l-13.7,-2l-17.7,8.7l1,-9.5l8.3,-3.1l2,-.7h1.3l-1.3,-1.1h-1l-1,-1l-6.2,-4.6l1,-10.5l14.7,14.3l13.6,1.8l-1,7.7Z" class="g0_10" />
<g clip-path="url(#c0_10)">
<g fill="#000000" >
<use xlink:href="#f0_c" transform="matrix(11.8,0,0,15.9,148.7,115.1)" />
</g>
</g>
<g clip-path="url(#c1_10)">
<g fill="#000000" >
<use xlink:href="#f0_d" transform="matrix(11.8,0,0,15.9,291.9,115.1)" />
</g>
</g>
<g clip-path="url(#c2_10)">
<g fill="#000000" >
<use xlink:href="#f1_t" transform="matrix(12.2,0,0,12.2,137.7,113.8)" />
<use xlink:href="#f1_n" transform="matrix(12.2,0,0,12.2,155.6,113.8)" />
<use xlink:href="#f1_i" transform="matrix(12.2,0,0,12.2,327.6,113.8)" />
<use xlink:href="#f1_i" transform="matrix(12.2,0,0,12.2,347.2,113.8)" />
<use xlink:href="#f1_i" transform="matrix(12.2,0,0,12.2,361.5,113.8)" />
</g>
</g>
<g clip-path="url(#c3_10)">
<g fill="#000000" >
<use xlink:href="#f2_2k" transform="matrix(12.2,0,0,12.2,165.4,113.8)" />
<use xlink:href="#f2_2l" transform="matrix(12.2,0,0,12.2,173.4,113.8)" />
<use xlink:href="#f2_2m" transform="matrix(12.2,0,0,12.2,181.5,113.8)" />
<use xlink:href="#f2_2k" transform="matrix(12.2,0,0,12.2,206.8,113.8)" />
<use xlink:href="#f2_2l" transform="matrix(12.2,0,0,12.2,214.9,113.8)" />
<use xlink:href="#f2_2l" transform="matrix(12.2,0,0,12.2,241.8,113.8)" />
<use xlink:href="#f2_2m" transform="matrix(12.2,0,0,12.2,249.9,113.8)" />
<use xlink:href="#f2_2m" transform="matrix(12.2,0,0,12.2,275,113.8)" />
<use xlink:href="#f2_2k" transform="matrix(12.2,0,0,12.2,282.1,113.8)" />
<use xlink:href="#f2_1i" transform="matrix(12.2,0,0,12.2,316.8,113.8)" />
<use xlink:href="#f2_18" transform="matrix(12.2,0,0,12.2,332.3,113.8)" />
<use xlink:href="#f2_1j" transform="matrix(12.2,0,0,12.2,351.4,113.8)" />
</g>
</g>
<g fill="#000000" >
<use xlink:href="#f0_x" transform="matrix(12.2,0,0,12.2,123.9,113.8)" />
<use xlink:href="#f0_f" transform="matrix(12.2,0,0,12.2,192.3,113.8)" />
<use xlink:href="#f0_f" transform="matrix(12.2,0,0,12.2,226.6,113.8)" />
<use xlink:href="#f0_f" transform="matrix(12.2,0,0,12.2,260.7,113.8)" />
<use xlink:href="#f0_x" transform="matrix(12.2,0,0,12.2,301.9,113.8)" />
<use xlink:href="#f1_18" transform="matrix(12,0,0,12,121.2,142.4)" />
<use xlink:href="#f1_21" transform="matrix(12,0,0,12,134.4,142.4)" />
<use xlink:href="#f1_2a" transform="matrix(12,0,0,12,142.6,142.4)" />
<use xlink:href="#f1_1z" transform="matrix(12,0,0,12,151.7,142.4)" />
<use xlink:href="#f1_21" transform="matrix(12,0,0,12,159.9,142.4)" />
<use xlink:href="#f1_2c" transform="matrix(12,0,0,12,171,142.4)" />
<use xlink:href="#f1_2e" transform="matrix(12,0,0,12,180.2,142.4)" />
<use xlink:href="#f1_2b" transform="matrix(12,0,0,12,186.3,142.4)" />
<use xlink:href="#f1_2i" transform="matrix(12,0,0,12,195.5,142.4)" />
<use xlink:href="#f1_21" transform="matrix(12,0,0,12,204.7,142.4)" />
<use xlink:href="#f1_20" transform="matrix(12,0,0,12,212.8,142.4)" />
<use xlink:href="#f1_i" transform="matrix(12,0,0,12,222,142.4)" />
<use xlink:href="#f1_l" transform="matrix(12,0,0,12,64.9,202.3)" />
<use xlink:href="#f1_s" transform="matrix(12,0,0,12,74.1,202.3)" />
<use xlink:href="#f1_i" transform="matrix(12,0,0,12,83.2,202.3)" />
<use xlink:href="#f1_16" transform="matrix(12,0,0,12,121.9,202.3)" />
<use xlink:href="#f1_25" transform="matrix(12,0,0,12,131.6,202.3)" />
<use xlink:href="#f1_2a" transform="matrix(12,0,0,12,136.2,202.3)" />
<use xlink:href="#f1_20" transform="matrix(12,0,0,12,145,202.3)" />
<use xlink:href="#f1_2g" transform="matrix(12,0,0,12,156.8,202.3)" />
<use xlink:href="#f1_24" transform="matrix(12,0,0,12,161.5,202.3)" />
<use xlink:href="#f1_21" transform="matrix(12,0,0,12,170.1,202.3)" />
<use xlink:href="#f1_21" transform="matrix(12,0,0,12,180.8,202.3)" />
<use xlink:href="#f1_2d" transform="matrix(12,0,0,12,188.5,202.3)" />
<use xlink:href="#f1_2h" transform="matrix(12,0,0,12,197.3,202.3)" />
<use xlink:href="#f1_1x" transform="matrix(12,0,0,12,205.9,202.3)" />
<use xlink:href="#f1_2g" transform="matrix(12,0,0,12,213.6,202.3)" />
<use xlink:href="#f1_25" transform="matrix(12,0,0,12,218.2,202.3)" />
<use xlink:href="#f1_2b" transform="matrix(12,0,0,12,222.9,202.3)" />
<use xlink:href="#f1_2a" transform="matrix(12,0,0,12,231.7,202.3)" />
<use xlink:href="#f1_2f" transform="matrix(12,0,0,12,240.4,202.3)" />
<use xlink:href="#f1_2b" transform="matrix(12,0,0,12,249.9,202.3)" />
<use xlink:href="#f1_22" transform="matrix(12,0,0,12,258.7,202.3)" />
<use xlink:href="#f1_2g" transform="matrix(12,0,0,12,267.3,202.3)" />
<use xlink:href="#f1_24" transform="matrix(12,0,0,12,272.1,202.3)" />
<use xlink:href="#f1_21" transform="matrix(12,0,0,12,280.7,202.3)" />
<use xlink:href="#f1_2g" transform="matrix(12,0,0,12,291.5,202.3)" />
<use xlink:href="#f1_1x" transform="matrix(12,0,0,12,296.1,202.3)" />
<use xlink:href="#f1_2a" transform="matrix(12,0,0,12,303.8,202.3)" />
<use xlink:href="#f1_23" transform="matrix(12,0,0,12,312.4,202.3)" />
<use xlink:href="#f1_21" transform="matrix(12,0,0,12,321,202.3)" />
<use xlink:href="#f1_2a" transform="matrix(12,0,0,12,328.7,202.3)" />
<use xlink:href="#f1_2g" transform="matrix(12,0,0,12,337.3,202.3)" />
<use xlink:href="#f1_1x" transform="matrix(12,0,0,12,345.2,202.3)" />
<use xlink:href="#f1_2a" transform="matrix(12,0,0,12,352.7,202.3)" />
<use xlink:href="#f1_20" transform="matrix(12,0,0,12,361.5,202.3)" />
<use xlink:href="#f1_2g" transform="matrix(12,0,0,12,373.3,202.3)" />
<use xlink:href="#f1_24" transform="matrix(12,0,0,12,378,202.3)" />
<use xlink:href="#f1_21" transform="matrix(12,0,0,12,386.6,202.3)" />
<use xlink:href="#f1_2a" transform="matrix(12,0,0,12,397.3,202.3)" />
<use xlink:href="#f1_2b" transform="matrix(12,0,0,12,406.1,202.3)" />
<use xlink:href="#f1_2e" transform="matrix(12,0,0,12,414.9,202.3)" />
<use xlink:href="#f1_29" transform="matrix(12,0,0,12,420.4,202.3)" />
<use xlink:href="#f1_1x" transform="matrix(12,0,0,12,434.3,202.3)" />
<use xlink:href="#f1_28" transform="matrix(12,0,0,12,441.8,202.3)" />
<use xlink:href="#f1_g" transform="matrix(12,0,0,12,446.6,202.3)" />
<use xlink:href="#f1_2g" transform="matrix(12,0,0,12,453.6,202.3)" />
<use xlink:href="#f1_2b" transform="matrix(12,0,0,12,458.3,202.3)" />
<use xlink:href="#f1_2g" transform="matrix(12,0,0,12,470.1,202.3)" />
<use xlink:href="#f1_24" transform="matrix(12,0,0,12,474.8,202.3)" />
<use xlink:href="#f1_21" transform="matrix(12,0,0,12,483.5,202.3)" />
<use xlink:href="#f1_1z" transform="matrix(12,0,0,12,494.1,202.3)" />
<use xlink:href="#f1_2h" transform="matrix(12,0,0,12,501.8,202.3)" />
<use xlink:href="#f1_2e" transform="matrix(12,0,0,12,510.6,202.3)" />
<use xlink:href="#f1_2i" transform="matrix(12,0,0,12,516.1,202.3)" />
<use xlink:href="#f1_21" transform="matrix(12,0,0,12,524.9,202.3)" />
<use xlink:href="#f1_m" transform="matrix(6.9,0,0,6.9,564.9,195.7)" />
<use xlink:href="#f1_m" transform="matrix(6.9,0,0,6.9,608.7,195.7)" />
</g>
<g clip-path="url(#c4_10)">
<g fill="#000000" >
<use xlink:href="#f1_l" transform="matrix(12,0,0,12,536.3,203.8)" />
<use xlink:href="#f1_q" transform="matrix(12,0,0,12,545.4,203.8)" />
<use xlink:href="#f1_t" transform="matrix(12,0,0,12,588.1,203.8)" />
<use xlink:href="#f1_l" transform="matrix(12,0,0,12,632.3,203.8)" />
<use xlink:href="#f1_o" transform="matrix(12,0,0,12,641.6,203.8)" />
<use xlink:href="#f1_p" transform="matrix(12,0,0,12,650.8,203.8)" />
</g>
</g>
<g fill="#000000" >
<use xlink:href="#f2_2k" transform="matrix(12,0,0,12,555.9,203.8)" />
<use xlink:href="#f2_2l" transform="matrix(12,0,0,12,599.3,203.8)" />
<use xlink:href="#f0_f" transform="matrix(12,0,0,12,575.1,203.8)" />
<use xlink:href="#f0_x" transform="matrix(12,0,0,12,620,203.8)" />
<use xlink:href="#f1_1x" transform="matrix(12,0,0,12,665.5,202.3)" />
<use xlink:href="#f1_2g" transform="matrix(12,0,0,12,673,202.3)" />
<use xlink:href="#f1_2g" transform="matrix(12,0,0,12,680.5,202.3)" />
<use xlink:href="#f1_24" transform="matrix(12,0,0,12,685.3,202.3)" />
<use xlink:href="#f1_21" transform="matrix(12,0,0,12,693.9,202.3)" />
<use xlink:href="#f1_2c" transform="matrix(12,0,0,12,704.7,202.3)" />
<use xlink:href="#f1_2b" transform="matrix(12,0,0,12,713.4,202.3)" />
<use xlink:href="#f1_25" transform="matrix(12,0,0,12,722.2,202.3)" />
<use xlink:href="#f1_2a" transform="matrix(12,0,0,12,726.7,202.3)" />
<use xlink:href="#f1_2g" transform="matrix(12,0,0,12,735.5,202.3)" />
</g>
<g clip-path="url(#c5_10)">
<g fill="#000000" >
<use xlink:href="#f0_c" transform="matrix(11.7,0,0,15.9,745.4,203.1)" />
</g>
</g>
<g clip-path="url(#c6_10)">
<g fill="#000000" >
<use xlink:href="#f0_d" transform="matrix(11.7,0,0,15.9,789.8,203.1)" />
</g>
</g>
<g clip-path="url(#c7_10)">
<g fill="#000000" >
<use xlink:href="#f1_l" transform="matrix(7,0,0,7,760.7,206.4)" />
<use xlink:href="#f1_l" transform="matrix(7,0,0,7,782.3,206.4)" />
</g>
</g>
<g clip-path="url(#c8_10)">
<g fill="#000000" >
<use xlink:href="#f1_g" transform="matrix(12.2,0,0,12.2,766.7,201.8)" />
</g>
</g>
<g clip-path="url(#c9_10)">
<g fill="#000000" >
<use xlink:href="#f2_2k" transform="matrix(12.2,0,0,12.2,753.9,201.8)" />
<use xlink:href="#f2_2l" transform="matrix(12.2,0,0,12.2,775.3,201.8)" />
</g>
</g>
<g fill="#000000" >
<use xlink:href="#f1_2j" transform="matrix(12,0,0,12,801.7,202.3)" />
<use xlink:href="#f1_24" transform="matrix(12,0,0,12,814.6,202.3)" />
<use xlink:href="#f1_21" transform="matrix(12,0,0,12,823.2,202.3)" />
<use xlink:href="#f1_2e" transform="matrix(12,0,0,12,830.9,202.3)" />
<use xlink:href="#f1_21" transform="matrix(12,0,0,12,836.4,202.3)" />
<use xlink:href="#f1_l" transform="matrix(7.1,0,0,7.1,131.6,241.9)" />
</g>
<g clip-path="url(#c10_10)">
<g fill="#000000" >
<use xlink:href="#f1_m" transform="matrix(12.2,0,0,12.2,156.2,237.4)" />
</g>
</g>
<g fill="#000000" >
<use xlink:href="#f2_2k" transform="matrix(12.2,0,0,12.2,124.9,237.4)" />
</g>
<g clip-path="url(#c11_10)">
<g fill="#000000" >
<use xlink:href="#f0_x" transform="matrix(12.2,0,0,12.2,142.1,237.4)" />
</g>
</g>
<g fill="#000000" >
<use xlink:href="#f1_1x" transform="matrix(12,0,0,12,172.2,236.3)" />
<use xlink:href="#f1_2a" transform="matrix(12,0,0,12,180.2,236.3)" />
<use xlink:href="#f1_20" transform="matrix(12,0,0,12,189.4,236.3)" />
<use xlink:href="#f1_l" transform="matrix(7.1,0,0,7.1,214.3,241.9)" />
</g>
<g clip-path="url(#c12_10)">
<g fill="#000000" >
<use xlink:href="#f1_k" transform="matrix(12.2,0,0,12.2,239.1,237.4)" />
</g>
</g>
<g fill="#000000" >
<use xlink:href="#f2_2l" transform="matrix(12.2,0,0,12.2,207.2,237.4)" />
</g>
<g clip-path="url(#c13_10)">
<g fill="#000000" >
<use xlink:href="#f0_y" transform="matrix(12.2,0,0,12.2,225,237.4)" />
</g>
</g>
<g fill="#000000" >
<use xlink:href="#f1_1j" transform="matrix(12,0,0,12,64.9,280.1)" />
<use xlink:href="#f1_2b" transform="matrix(12,0,0,12,74.1,280.1)" />
<use xlink:href="#f1_28" transform="matrix(12,0,0,12,82.1,280.1)" />
<use xlink:href="#f1_u" transform="matrix(12,0,0,12,86.2,280.1)" />
</g>
<g clip-path="url(#c14_10)">
<g fill="#000000" >
<use xlink:href="#f0_c" transform="matrix(11.6,0,0,15.9,156.9,280.8)" />
</g>
</g>
<g clip-path="url(#c15_10)">
<g fill="#000000" >
<use xlink:href="#f0_d" transform="matrix(11.6,0,0,15.9,200.9,280.8)" />
</g>
</g>
<g clip-path="url(#c16_10)">
<g fill="#000000" >
<use xlink:href="#f0_c" transform="matrix(11.6,0,0,15.9,224.4,280.8)" />
</g>
</g>
<g clip-path="url(#c17_10)">
<g fill="#000000" >
<use xlink:href="#f0_d" transform="matrix(11.6,0,0,15.9,263.5,280.8)" />
</g>
</g>
<g clip-path="url(#c18_10)">
<g fill="#000000" >
<use xlink:href="#f1_l" transform="matrix(7,0,0,7,172,284.1)" />
<use xlink:href="#f1_l" transform="matrix(7,0,0,7,193.6,284.1)" />
<use xlink:href="#f1_l" transform="matrix(7,0,0,7,255.9,284.1)" />
</g>
</g>
<g clip-path="url(#c19_10)">
<g fill="#000000" >
<use xlink:href="#f1_g" transform="matrix(12.2,0,0,12.2,178.2,279.5)" />
<use xlink:href="#f1_m" transform="matrix(12.2,0,0,12.2,231.9,279.5)" />
<use xlink:href="#f1_g" transform="matrix(12.2,0,0,12.2,240.5,279.5)" />
</g>
</g>
<g clip-path="url(#c20_10)">
<g fill="#000000" >
<use xlink:href="#f2_1g" transform="matrix(12.2,0,0,12.2,143.7,279.5)" />
<use xlink:href="#f2_2k" transform="matrix(12.2,0,0,12.2,165.4,279.5)" />
<use xlink:href="#f2_2l" transform="matrix(12.2,0,0,12.2,186.6,279.5)" />
<use xlink:href="#f2_2l" transform="matrix(12.2,0,0,12.2,248.9,279.5)" />
</g>
</g>
<g fill="#000000" >
<use xlink:href="#f0_3g" transform="matrix(12.2,0,0,12.2,210.8,279.5)" />
</g>
<g clip-path="url(#c21_10)">
<g fill="#000000" >
<use xlink:href="#f3_14" transform="matrix(12.2,0,0,12.2,121.6,279.5)" />
</g>
</g>
<g fill="#000000" >
<use xlink:href="#f1_28" transform="matrix(12,0,0,12,275.4,280.1)" />
<use xlink:href="#f1_25" transform="matrix(12,0,0,12,280.3,280.1)" />
<use xlink:href="#f1_21" transform="matrix(12,0,0,12,285.3,280.1)" />
<use xlink:href="#f1_2f" transform="matrix(12,0,0,12,293.2,280.1)" />
<use xlink:href="#f1_2b" transform="matrix(12,0,0,12,303.4,280.1)" />
<use xlink:href="#f1_2a" transform="matrix(12,0,0,12,312.4,280.1)" />
<use xlink:href="#f1_m" transform="matrix(6.9,0,0,6.9,354,273.5)" />
<use xlink:href="#f1_m" transform="matrix(6.9,0,0,6.9,397.8,273.5)" />
</g>
<g clip-path="url(#c22_10)">
<g fill="#000000" >
<use xlink:href="#f1_l" transform="matrix(12,0,0,12,325.4,281.5)" />
<use xlink:href="#f1_q" transform="matrix(12,0,0,12,334.6,281.5)" />
<use xlink:href="#f1_t" transform="matrix(12,0,0,12,377.3,281.5)" />
<use xlink:href="#f1_l" transform="matrix(12,0,0,12,421.4,281.5)" />
<use xlink:href="#f1_o" transform="matrix(12,0,0,12,430.8,281.5)" />
<use xlink:href="#f1_p" transform="matrix(12,0,0,12,439.9,281.5)" />
</g>
</g>
<g fill="#000000" >
<use xlink:href="#f2_2k" transform="matrix(12,0,0,12,345,281.5)" />
<use xlink:href="#f2_2l" transform="matrix(12,0,0,12,388.5,281.5)" />
<use xlink:href="#f0_f" transform="matrix(12,0,0,12,364.3,281.5)" />
<use xlink:href="#f0_x" transform="matrix(12,0,0,12,409.2,281.5)" />
<use xlink:href="#f0_c" transform="matrix(11.8,0,0,15.5,142.1,325.4)" />
<use xlink:href="#f0_d" transform="matrix(11.8,0,0,15.5,159.7,325.4)" />
<use xlink:href="#f1_m" transform="matrix(6.8,0,0,6.8,166.3,313.1)" />
<use xlink:href="#f1_m" transform="matrix(6.8,0,0,6.8,209.7,315.8)" />
<use xlink:href="#f1_l" transform="matrix(6.8,0,0,6.8,207.5,328.5)" />
</g>
<g clip-path="url(#c23_10)">
<g fill="#000000" >
<use xlink:href="#f1_l" transform="matrix(11.8,0,0,11.8,121.9,323.9)" />
<use xlink:href="#f1_q" transform="matrix(11.8,0,0,11.8,131.1,323.9)" />
<use xlink:href="#f1_m" transform="matrix(11.8,0,0,11.8,149.6,323.9)" />
<use xlink:href="#f1_t" transform="matrix(11.8,0,0,11.8,189.3,323.9)" />
<use xlink:href="#f1_l" transform="matrix(11.8,0,0,11.8,233.5,323.9)" />
<use xlink:href="#f1_o" transform="matrix(11.8,0,0,11.8,242.7,323.9)" />
<use xlink:href="#f1_p" transform="matrix(11.8,0,0,11.8,251.8,323.9)" />
</g>
</g>
<g fill="#000000" >
<use xlink:href="#f2_2l" transform="matrix(11.8,0,0,11.8,200.6,323.9)" />
<use xlink:href="#f0_f" transform="matrix(11.8,0,0,11.8,176.4,323.9)" />
<use xlink:href="#f0_x" transform="matrix(11.8,0,0,11.8,221.1,323.9)" />
<use xlink:href="#f1_m" transform="matrix(6.9,0,0,6.9,143.9,352.5)" />
<use xlink:href="#f1_l" transform="matrix(6.9,0,0,6.9,141.7,365.1)" />
</g>
<g clip-path="url(#c24_10)">
<g fill="#000000" >
<use xlink:href="#f1_t" transform="matrix(12,0,0,12,123.4,360.6)" />
<use xlink:href="#f1_l" transform="matrix(12,0,0,12,167.5,360.6)" />
<use xlink:href="#f1_o" transform="matrix(12,0,0,12,176.7,360.6)" />
<use xlink:href="#f1_p" transform="matrix(12,0,0,12,185.9,360.6)" />
<use xlink:href="#f1_q" transform="matrix(12,0,0,12,210.4,360.6)" />
<use xlink:href="#f1_o" transform="matrix(12,0,0,12,219.6,360.6)" />
</g>
</g>
<g fill="#000000" >
<use xlink:href="#f2_2l" transform="matrix(12,0,0,12,134.6,360.6)" />
</g>
<g clip-path="url(#c25_10)">
<g fill="#000000" >
<use xlink:href="#f0_x" transform="matrix(12,0,0,12,155.3,360.6)" />
<use xlink:href="#f0_h" transform="matrix(12,0,0,12,197.6,360.6)" />
</g>
</g>
<g fill="#000000" >
<use xlink:href="#f1_m" transform="matrix(6.9,0,0,6.9,144.1,385.5)" />
<use xlink:href="#f1_l" transform="matrix(6.9,0,0,6.9,141.7,398.1)" />
</g>
<g clip-path="url(#c26_10)">
<g fill="#000000" >
<use xlink:href="#f1_t" transform="matrix(12,0,0,12,123.4,393.6)" />
<use xlink:href="#f1_s" transform="matrix(12,0,0,12,169,393.6)" />
<use xlink:href="#f1_l" transform="matrix(12,0,0,12,178.2,393.6)" />
</g>
</g>
<g fill="#000000" >
<use xlink:href="#f2_2l" transform="matrix(12,0,0,12,134.6,393.6)" />
</g>
<g clip-path="url(#c27_10)">
<g fill="#000000" >
<use xlink:href="#f0_x" transform="matrix(12,0,0,12,155.5,393.6)" />
</g>
</g>
<g fill="#000000" >
<use xlink:href="#f1_m" transform="matrix(6.9,0,0,6.9,134.9,418.5)" />
<use xlink:href="#f1_l" transform="matrix(6.9,0,0,6.9,132.7,431.1)" />
</g>
<g clip-path="url(#c28_10)">
<g fill="#000000" >
<use xlink:href="#f1_t" transform="matrix(12,0,0,12,160.1,426.6)" />
</g>
</g>
<g fill="#000000" >
<use xlink:href="#f2_2l" transform="matrix(12,0,0,12,125.8,426.6)" />
</g>
<g clip-path="url(#c29_10)">
<g fill="#000000" >
<use xlink:href="#f0_x" transform="matrix(12,0,0,12,146.3,426.6)" />
</g>
</g>
<g fill="#000000" >
<use xlink:href="#f1_l" transform="matrix(7.1,0,0,7.1,132.7,463)" />
</g>
<g clip-path="url(#c30_10)">
<g fill="#000000" >
<use xlink:href="#f1_n" transform="matrix(12.2,0,0,12.2,170,458.5)" />
</g>
</g>
<g fill="#000000" >
<use xlink:href="#f2_2l" transform="matrix(12.2,0,0,12.2,125.8,458.5)" />
</g>
<g clip-path="url(#c31_10)">
<g fill="#000000" >
<use xlink:href="#f0_x" transform="matrix(12.2,0,0,12.2,143.4,458.5)" />
<use xlink:href="#f0_37" transform="matrix(12.2,0,0,12.2,157.7,458.5)" />
</g>
</g>
<g fill="#000000" >
<use xlink:href="#f1_l" transform="matrix(7.1,0,0,7.1,162.1,494.8)" />
<use xlink:href="#f1_l" transform="matrix(7.1,0,0,7.1,241.6,494.8)" />
</g>
<g clip-path="url(#c32_10)">
<g fill="#000000" >
<use xlink:href="#f1_12" transform="matrix(12.2,0,0,12.2,123.9,490.2)" />
<use xlink:href="#f1_2h" transform="matrix(12.2,0,0,12.2,136,490.2)" />
<use xlink:href="#f1_2g" transform="matrix(12.2,0,0,12.2,145.2,490.2)" />
<use xlink:href="#f1_k" transform="matrix(12.2,0,0,12.2,186.6,490.2)" />
<use xlink:href="#f1_n" transform="matrix(12.2,0,0,12.2,265.8,490.2)" />
</g>
</g>
<g fill="#000000" >
<use xlink:href="#f2_2l" transform="matrix(12.2,0,0,12.2,154.9,490.2)" />
<use xlink:href="#f2_2l" transform="matrix(12.2,0,0,12.2,234.5,490.2)" />
</g>
<g clip-path="url(#c33_10)">
<g fill="#000000" >
<use xlink:href="#f0_y" transform="matrix(12.2,0,0,12.2,172.5,490.2)" />
<use xlink:href="#f0_1s" transform="matrix(12.2,0,0,12.2,212.1,490.2)" />
<use xlink:href="#f0_x" transform="matrix(12.2,0,0,12.2,252.1,490.2)" />
</g>
</g>
<g clip-path="url(#c34_10)">
<g fill="#000000" >
<use xlink:href="#f0_c" transform="matrix(11.8,0,0,15.8,172.7,525.2)" />
</g>
</g>
<g clip-path="url(#c35_10)">
<g fill="#000000" >
<use xlink:href="#f0_d" transform="matrix(11.8,0,0,15.8,205,525.2)" />
</g>
</g>
<g clip-path="url(#c36_10)">
<g fill="#000000" >
<use xlink:href="#f1_m" transform="matrix(12.1,0,0,12.1,180.2,523.7)" />
<use xlink:href="#f1_g" transform="matrix(12.1,0,0,12.1,189,523.7)" />
<use xlink:href="#f1_n" transform="matrix(12.1,0,0,12.1,195.4,523.7)" />
</g>
</g>
<g fill="#000000" >
<use xlink:href="#f2_1g" transform="matrix(12.1,0,0,12.1,143.4,523.7)" />
<use xlink:href="#f0_1s" transform="matrix(12.1,0,0,12.1,121.2,523.7)" />
<use xlink:href="#f0_3g" transform="matrix(12.1,0,0,12.1,158.9,523.7)" />
<use xlink:href="#f1_m" transform="matrix(6.9,0,0,6.9,150.5,552.3)" />
<use xlink:href="#f1_m" transform="matrix(6.9,0,0,6.9,194.3,552.3)" />
</g>
<g clip-path="url(#c37_10)">
<g fill="#000000" >
<use xlink:href="#f1_l" transform="matrix(12,0,0,12,121.9,560.4)" />
<use xlink:href="#f1_q" transform="matrix(12,0,0,12,131.1,560.4)" />
<use xlink:href="#f1_t" transform="matrix(12,0,0,12,173.8,560.4)" />
<use xlink:href="#f1_l" transform="matrix(12,0,0,12,217.9,560.4)" />
<use xlink:href="#f1_o" transform="matrix(12,0,0,12,227.3,560.4)" />
<use xlink:href="#f1_p" transform="matrix(12,0,0,12,236.4,560.4)" />
</g>
</g>
<g fill="#000000" >
<use xlink:href="#f2_2k" transform="matrix(12,0,0,12,141.5,560.4)" />
<use xlink:href="#f2_2l" transform="matrix(12,0,0,12,185,560.4)" />
<use xlink:href="#f0_f" transform="matrix(12,0,0,12,160.8,560.4)" />
<use xlink:href="#f0_x" transform="matrix(12,0,0,12,205.7,560.4)" />
<use xlink:href="#f1_i" transform="matrix(12,0,0,12,281.4,558.9)" />
<use xlink:href="#f1_i" transform="matrix(12,0,0,12,285.4,558.9)" />
<use xlink:href="#f1_i" transform="matrix(12,0,0,12,289.7,558.9)" />
<use xlink:href="#f1_c" transform="matrix(12,0,0,12,293.7,558.9)" />
<use xlink:href="#f1_25" transform="matrix(12,0,0,12,299.4,558.9)" />
<use xlink:href="#f1_d" transform="matrix(12,0,0,12,304,558.9)" />
</g>
<path d="M197.5,599.8h19.9" class="g1_10" />
<g clip-path="url(#c38_10)">
<g fill="#000000" >
<use xlink:href="#f1_n" transform="matrix(11.9,0,0,11.9,123.4,604.4)" />
<use xlink:href="#f1_m" transform="matrix(11.9,0,0,11.9,132.5,604.4)" />
<use xlink:href="#f1_l" transform="matrix(11.9,0,0,11.9,165.9,604.4)" />
<use xlink:href="#f1_s" transform="matrix(11.9,0,0,11.9,175.1,604.4)" />
<use xlink:href="#f1_k" transform="matrix(11.9,0,0,11.9,236.3,604.4)" />
</g>
</g>
<g fill="#000000" >
<use xlink:href="#f2_20" transform="matrix(11.9,0,0,11.9,198.7,592.8)" />
<use xlink:href="#f2_2l" transform="matrix(11.9,0,0,11.9,207.9,592.8)" />
<use xlink:href="#f2_2k" transform="matrix(11.9,0,0,11.9,143,604.4)" />
<use xlink:href="#f2_2l" transform="matrix(11.9,0,0,11.9,186.1,604.4)" />
</g>
<g clip-path="url(#c39_10)">
<g fill="#000000" >
<use xlink:href="#f2_20" transform="matrix(11.9,0,0,11.9,198.9,618.5)" />
<use xlink:href="#f2_2k" transform="matrix(11.9,0,0,11.9,208.1,618.5)" />
</g>
</g>
<g clip-path="url(#c40_10)">
<g fill="#000000" >
<use xlink:href="#f0_f" transform="matrix(11.9,0,0,11.9,154.4,604.4)" />
<use xlink:href="#f0_x" transform="matrix(11.9,0,0,11.9,222.2,604.4)" />
</g>
</g>
<path d="M124.2,656.9h19.9m19.5,0h39.9m19.6,0H263" class="g2_10" />
<g clip-path="url(#c41_10)">
<g fill="#000000" >
<use xlink:href="#f1_n" transform="matrix(12,0,0,12,174.9,649.9)" />
<use xlink:href="#f1_m" transform="matrix(12,0,0,12,184.1,649.9)" />
<use xlink:href="#f1_l" transform="matrix(12,0,0,12,234.3,649.9)" />
<use xlink:href="#f1_q" transform="matrix(12,0,0,12,243.4,649.9)" />
</g>
</g>
<g clip-path="url(#c42_10)">
<g fill="#000000" >
<use xlink:href="#f1_l" transform="matrix(12,0,0,12,168.3,675.7)" />
<use xlink:href="#f1_s" transform="matrix(12,0,0,12,177.5,675.7)" />
<use xlink:href="#f1_t" transform="matrix(12,0,0,12,233,675.7)" />
</g>
</g>
<g clip-path="url(#c43_10)">
<g fill="#000000" >
<use xlink:href="#f2_20" transform="matrix(12,0,0,12,125.4,649.9)" />
<use xlink:href="#f2_2l" transform="matrix(12,0,0,12,134.6,649.9)" />
<use xlink:href="#f2_2k" transform="matrix(12,0,0,12,194.3,649.9)" />
<use xlink:href="#f2_2k" transform="matrix(12,0,0,12,253.9,649.9)" />
</g>
</g>
<g clip-path="url(#c44_10)">
<g fill="#000000" >
<use xlink:href="#f2_20" transform="matrix(12,0,0,12,125.6,675.7)" />
<use xlink:href="#f2_2k" transform="matrix(12,0,0,12,134.8,675.7)" />
<use xlink:href="#f2_2l" transform="matrix(12,0,0,12,188.4,675.7)" />
<use xlink:href="#f2_2l" transform="matrix(12,0,0,12,244.2,675.7)" />
</g>
</g>
<g clip-path="url(#c45_10)">
<g fill="#000000" >
<use xlink:href="#f0_h" transform="matrix(12,0,0,12,164.8,649.9)" />
<use xlink:href="#f0_h" transform="matrix(12,0,0,12,224.2,649.9)" />
</g>
</g>
<g fill="#000000" >
<use xlink:href="#f0_x" transform="matrix(12,0,0,12,149.1,661.4)" />
<use xlink:href="#f0_x" transform="matrix(12,0,0,12,208.4,661.4)" />
<use xlink:href="#f1_1j" transform="matrix(12,0,0,12,121.2,723.9)" />
<use xlink:href="#f1_28" transform="matrix(12,0,0,12,131.3,723.9)" />
<use xlink:href="#f1_2b" transform="matrix(12,0,0,12,136,723.9)" />
<use xlink:href="#f1_2c" transform="matrix(12,0,0,12,145,723.9)" />
<use xlink:href="#f1_21" transform="matrix(12,0,0,12,154,723.9)" />
<use xlink:href="#f1_2b" transform="matrix(12,0,0,12,165,723.9)" />
<use xlink:href="#f1_22" transform="matrix(12,0,0,12,174,723.9)" />
<use xlink:href="#f1_2g" transform="matrix(12,0,0,12,182.8,723.9)" />
<use xlink:href="#f1_1x" transform="matrix(12,0,0,12,187.7,723.9)" />
<use xlink:href="#f1_2a" transform="matrix(12,0,0,12,195.6,723.9)" />
<use xlink:href="#f1_23" transform="matrix(12,0,0,12,204.4,723.9)" />
<use xlink:href="#f1_21" transform="matrix(12,0,0,12,213.2,723.9)" />
<use xlink:href="#f1_2a" transform="matrix(12,0,0,12,221.1,723.9)" />
<use xlink:href="#f1_2g" transform="matrix(12,0,0,12,230.1,723.9)" />
<use xlink:href="#f0_c" transform="matrix(6.8,0,0,9,267.7,727.4)" />
<use xlink:href="#f0_d" transform="matrix(6.8,0,0,9,286,727.4)" />
</g>
<path d="M310.2,716.8h53.6m19.5,0h30.1" class="g3_10" />
<g fill="#000000" >
<use xlink:href="#f1_m" transform="matrix(6.9,0,0,6.9,272.1,726.7)" />
<use xlink:href="#f1_g" transform="matrix(6.9,0,0,6.9,277.7,726.7)" />
<use xlink:href="#f1_n" transform="matrix(6.9,0,0,6.9,280.7,726.7)" />
</g>
<g clip-path="url(#c46_10)">
<g fill="#000000" >
<use xlink:href="#f1_l" transform="matrix(11.9,0,0,11.9,321.4,709.8)" />
<use xlink:href="#f1_q" transform="matrix(11.9,0,0,11.9,330.5,709.8)" />
<use xlink:href="#f1_m" transform="matrix(11.9,0,0,11.9,354,709.8)" />
<use xlink:href="#f1_n" transform="matrix(11.9,0,0,11.9,394.5,709.8)" />
<use xlink:href="#f1_m" transform="matrix(11.9,0,0,11.9,403.7,709.8)" />
</g>
</g>
<g clip-path="url(#c47_10)">
<g fill="#000000" >
<use xlink:href="#f1_t" transform="matrix(11.9,0,0,11.9,321.2,735.5)" />
<use xlink:href="#f1_n" transform="matrix(11.9,0,0,11.9,344.1,735.5)" />
<use xlink:href="#f1_m" transform="matrix(11.9,0,0,11.9,389.4,735.5)" />
<use xlink:href="#f1_r" transform="matrix(11.9,0,0,11.9,398.4,735.5)" />
</g>
</g>
<g fill="#000000" >
<use xlink:href="#f2_29" transform="matrix(11.9,0,0,11.9,255.2,721.4)" />
</g>
<g clip-path="url(#c48_10)">
<g fill="#000000" >
<use xlink:href="#f0_h" transform="matrix(11.9,0,0,11.9,311.5,709.8)" />
<use xlink:href="#f0_3a" transform="matrix(11.9,0,0,11.9,341.5,709.8)" />
<use xlink:href="#f0_h" transform="matrix(11.9,0,0,11.9,384.4,709.8)" />
</g>
</g>
<g fill="#000000" >
<use xlink:href="#f0_x" transform="matrix(11.9,0,0,11.9,240.9,721.4)" />
<use xlink:href="#f0_x" transform="matrix(11.9,0,0,11.9,295.7,721.4)" />
<use xlink:href="#f0_x" transform="matrix(11.9,0,0,11.9,368.7,721.4)" />
<use xlink:href="#f0_3a" transform="matrix(11.9,0,0,11.9,332.2,735.5)" />
<use xlink:href="#f1_1j" transform="matrix(12,0,0,12,121.2,780.6)" />
<use xlink:href="#f1_28" transform="matrix(12,0,0,12,131.1,780.6)" />
<use xlink:href="#f1_2b" transform="matrix(12,0,0,12,136,780.6)" />
<use xlink:href="#f1_2c" transform="matrix(12,0,0,12,144.8,780.6)" />
<use xlink:href="#f1_21" transform="matrix(12,0,0,12,153.8,780.6)" />
<use xlink:href="#f1_2b" transform="matrix(12,0,0,12,164.8,780.6)" />
<use xlink:href="#f1_22" transform="matrix(12,0,0,12,173.6,780.6)" />
<use xlink:href="#f1_2a" transform="matrix(12,0,0,12,182.4,780.6)" />
<use xlink:href="#f1_2b" transform="matrix(12,0,0,12,191.2,780.6)" />
<use xlink:href="#f1_2e" transform="matrix(12,0,0,12,200.2,780.6)" />
<use xlink:href="#f1_29" transform="matrix(12,0,0,12,205.9,780.6)" />
<use xlink:href="#f1_1x" transform="matrix(12,0,0,12,220,780.6)" />
<use xlink:href="#f1_28" transform="matrix(12,0,0,12,227.7,780.6)" />
<use xlink:href="#f0_c" transform="matrix(6.8,0,0,9,265.3,784.1)" />
<use xlink:href="#f0_d" transform="matrix(6.8,0,0,9,283.6,784.1)" />
</g>
<path d="M307.9,773.4h20.3" class="g3_10" />
<g fill="#000000" >
<use xlink:href="#f1_b" transform="matrix(6.9,0,0,6.9,266.6,769.9)" />
<use xlink:href="#f1_m" transform="matrix(6.9,0,0,6.9,269.7,783.3)" />
<use xlink:href="#f1_g" transform="matrix(6.9,0,0,6.9,275.4,783.3)" />
<use xlink:href="#f1_n" transform="matrix(6.9,0,0,6.9,278.3,783.3)" />
</g>
<g clip-path="url(#c49_10)">
<g fill="#000000" >
<use xlink:href="#f1_m" transform="matrix(11.9,0,0,11.9,309.1,766.5)" />
<use xlink:href="#f1_r" transform="matrix(11.9,0,0,11.9,318.3,766.5)" />
</g>
</g>
<g clip-path="url(#c50_10)">
<g fill="#000000" >
<use xlink:href="#f1_n" transform="matrix(11.9,0,0,11.9,308.9,792.1)" />
<use xlink:href="#f1_m" transform="matrix(11.9,0,0,11.9,318.1,792.1)" />
</g>
</g>
<g fill="#000000" >
<use xlink:href="#f2_29" transform="matrix(11.9,0,0,11.9,252.8,778)" />
<use xlink:href="#f0_x" transform="matrix(11.9,0,0,11.9,238.5,778)" />
<use xlink:href="#f0_x" transform="matrix(11.9,0,0,11.9,293.3,778)" />
<use xlink:href="#f1_15" transform="matrix(12,0,0,12,121.2,815.6)" />
<use xlink:href="#f1_2d" transform="matrix(12,0,0,12,132,815.6)" />
<use xlink:href="#f1_2h" transform="matrix(12,0,0,12,140.6,815.6)" />
<use xlink:href="#f1_1x" transform="matrix(12,0,0,12,149.4,815.6)" />
<use xlink:href="#f1_2g" transform="matrix(12,0,0,12,156.9,815.6)" />
<use xlink:href="#f1_25" transform="matrix(12,0,0,12,161.7,815.6)" />
<use xlink:href="#f1_2b" transform="matrix(12,0,0,12,166.3,815.6)" />
<use xlink:href="#f1_2a" transform="matrix(12,0,0,12,175.1,815.6)" />
<use xlink:href="#f1_2b" transform="matrix(12,0,0,12,186.8,815.6)" />
<use xlink:href="#f1_22" transform="matrix(12,0,0,12,195.4,815.6)" />
<use xlink:href="#f1_2g" transform="matrix(12,0,0,12,204.1,815.6)" />
<use xlink:href="#f1_1x" transform="matrix(12,0,0,12,208.6,815.6)" />
<use xlink:href="#f1_2a" transform="matrix(12,0,0,12,216.3,815.6)" />
<use xlink:href="#f1_23" transform="matrix(12,0,0,12,224.9,815.6)" />
<use xlink:href="#f1_21" transform="matrix(12,0,0,12,233.6,815.6)" />
<use xlink:href="#f1_2a" transform="matrix(12,0,0,12,241.1,815.6)" />
<use xlink:href="#f1_2g" transform="matrix(12,0,0,12,249.9,815.6)" />
<use xlink:href="#f1_25" transform="matrix(12,0,0,12,257.6,815.6)" />
<use xlink:href="#f1_2f" transform="matrix(12,0,0,12,262.2,815.6)" />
<use xlink:href="#f1_g" transform="matrix(12,0,0,12,268.9,815.6)" />
<use xlink:href="#f0_c" transform="matrix(11.2,0,0,15.6,123.2,857.8)" />
<use xlink:href="#f0_d" transform="matrix(11.2,0,0,15.6,164.1,857.8)" />
</g>
<path d="M187.3,851.9h28.4" class="g4_10" />
<g fill="#000000" >
<use xlink:href="#f0_c" transform="matrix(11.2,0,0,15.6,218.2,857.8)" />
<use xlink:href="#f0_d" transform="matrix(11.2,0,0,15.6,258.9,857.8)" />
<use xlink:href="#f1_n" transform="matrix(11.9,0,0,11.9,197.8,844.9)" />
<use xlink:href="#f1_m" transform="matrix(11.9,0,0,11.9,206.4,844.9)" />
</g>
<g clip-path="url(#c51_10)">
<g fill="#000000" >
<use xlink:href="#f1_n" transform="matrix(11.9,0,0,11.9,155.1,856.5)" />
<use xlink:href="#f1_m" transform="matrix(11.9,0,0,11.9,249.3,856.5)" />
</g>
</g>
<g clip-path="url(#c52_10)">
<g fill="#000000" >
<use xlink:href="#f1_m" transform="matrix(11.9,0,0,11.9,193.1,870.6)" />
<use xlink:href="#f1_r" transform="matrix(11.9,0,0,11.9,201.7,870.6)" />
</g>
</g>
<g fill="#000000" >
<use xlink:href="#f2_2l" transform="matrix(11.9,0,0,11.9,132,856.5)" />
<use xlink:href="#f2_2k" transform="matrix(11.9,0,0,11.9,226,856.5)" />
</g>
<g clip-path="url(#c53_10)">
<g fill="#000000" >
<use xlink:href="#f0_h" transform="matrix(11.9,0,0,11.9,188.5,844.9)" />
</g>
</g>
<g clip-path="url(#c54_10)">
<g fill="#000000" >
<use xlink:href="#f0_h" transform="matrix(11.9,0,0,11.9,143.2,856.5)" />
<use xlink:href="#f0_x" transform="matrix(11.9,0,0,11.9,173.4,856.5)" />
<use xlink:href="#f0_h" transform="matrix(11.9,0,0,11.9,236.8,856.5)" />
</g>
</g>
<g clip-path="url(#c55_10)">
<g fill="#000000" >
<use xlink:href="#f1_m" transform="matrix(11.8,0,0,11.8,123.9,898.5)" />
<use xlink:href="#f1_r" transform="matrix(11.8,0,0,11.8,133.3,898.5)" />
<use xlink:href="#f1_s" transform="matrix(11.8,0,0,11.8,169.6,898.5)" />
<use xlink:href="#f1_l" transform="matrix(11.8,0,0,11.8,178.9,898.5)" />
<use xlink:href="#f1_n" transform="matrix(11.8,0,0,11.8,215.8,898.5)" />
<use xlink:href="#f1_m" transform="matrix(11.8,0,0,11.8,225.1,898.5)" />
<use xlink:href="#f1_q" transform="matrix(11.8,0,0,11.8,260.7,898.5)" />
<use xlink:href="#f1_o" transform="matrix(11.8,0,0,11.8,270,898.5)" />
</g>
</g>
<g fill="#000000" >
<use xlink:href="#f2_2l" transform="matrix(11.8,0,0,11.8,145,898.5)" />
<use xlink:href="#f2_2k" transform="matrix(11.8,0,0,11.8,235.6,898.5)" />
</g>
<g clip-path="url(#c56_10)">
<g fill="#000000" >
<use xlink:href="#f0_h" transform="matrix(11.8,0,0,11.8,156.9,898.5)" />
<use xlink:href="#f0_x" transform="matrix(11.8,0,0,11.8,190.8,898.5)" />
<use xlink:href="#f0_h" transform="matrix(11.8,0,0,11.8,205.5,898.5)" />
<use xlink:href="#f0_f" transform="matrix(11.8,0,0,11.8,247.3,898.5)" />
</g>
</g>
<g clip-path="url(#c57_10)">
<g fill="#000000" >
<use xlink:href="#f1_n" transform="matrix(11.8,0,0,11.8,123.4,927.6)" />
<use xlink:href="#f1_m" transform="matrix(11.8,0,0,11.8,132.5,927.6)" />
<use xlink:href="#f1_m" transform="matrix(11.8,0,0,11.8,167.5,927.6)" />
<use xlink:href="#f1_r" transform="matrix(11.8,0,0,11.8,176.7,927.6)" />
<use xlink:href="#f1_l" transform="matrix(11.8,0,0,11.8,211,927.6)" />
<use xlink:href="#f1_o" transform="matrix(11.8,0,0,11.8,220.1,927.6)" />
<use xlink:href="#f1_p" transform="matrix(11.8,0,0,11.8,229.3,927.6)" />
<use xlink:href="#f1_k" transform="matrix(11.8,0,0,11.8,256,927.6)" />
</g>
</g>
<g fill="#000000" >
<use xlink:href="#f2_2k" transform="matrix(11.8,0,0,11.8,142.8,927.6)" />
<use xlink:href="#f2_2l" transform="matrix(11.8,0,0,11.8,188.3,927.6)" />
</g>
<g clip-path="url(#c58_10)">
<g fill="#000000" >
<use xlink:href="#f0_f" transform="matrix(11.8,0,0,11.8,154.2,927.6)" />
<use xlink:href="#f0_h" transform="matrix(11.8,0,0,11.8,199.8,927.6)" />
<use xlink:href="#f0_x" transform="matrix(11.8,0,0,11.8,242.2,927.6)" />
</g>
</g>
<g fill="#000000" >
<use xlink:href="#f1_15" transform="matrix(12,0,0,12,121.2,952.2)" />
<use xlink:href="#f1_2d" transform="matrix(12,0,0,12,131.8,952.2)" />
<use xlink:href="#f1_2h" transform="matrix(12,0,0,12,140.6,952.2)" />
<use xlink:href="#f1_1x" transform="matrix(12,0,0,12,149.2,952.2)" />
<use xlink:href="#f1_2g" transform="matrix(12,0,0,12,156.8,952.2)" />
<use xlink:href="#f1_25" transform="matrix(12,0,0,12,161.5,952.2)" />
<use xlink:href="#f1_2b" transform="matrix(12,0,0,12,166.1,952.2)" />
<use xlink:href="#f1_2a" transform="matrix(12,0,0,12,174.7,952.2)" />
<use xlink:href="#f1_2b" transform="matrix(12,0,0,12,186.5,952.2)" />
<use xlink:href="#f1_22" transform="matrix(12,0,0,12,195.1,952.2)" />
<use xlink:href="#f1_2a" transform="matrix(12,0,0,12,203.5,952.2)" />
<use xlink:href="#f1_2b" transform="matrix(12,0,0,12,212.1,952.2)" />
<use xlink:href="#f1_2e" transform="matrix(12,0,0,12,220.9,952.2)" />
<use xlink:href="#f1_29" transform="matrix(12,0,0,12,226.4,952.2)" />
<use xlink:href="#f1_1x" transform="matrix(12,0,0,12,240.2,952.2)" />
<use xlink:href="#f1_28" transform="matrix(12,0,0,12,247.9,952.2)" />
<use xlink:href="#f1_25" transform="matrix(12,0,0,12,255.4,952.2)" />
<use xlink:href="#f1_2f" transform="matrix(12,0,0,12,260.1,952.2)" />
<use xlink:href="#f1_g" transform="matrix(12,0,0,12,266.8,952.2)" />
<use xlink:href="#f0_c" transform="matrix(11.9,0,0,15.6,123.4,994.3)" />
<use xlink:href="#f0_d" transform="matrix(11.9,0,0,15.6,166.6,994.3)" />
</g>
<path d="M191.5,988.5h20.4" class="g1_10" />
<g fill="#000000" >
<use xlink:href="#f0_c" transform="matrix(11.9,0,0,15.6,214.5,994.3)" />
<use xlink:href="#f0_d" transform="matrix(11.9,0,0,15.6,257.8,994.3)" />
<use xlink:href="#f1_m" transform="matrix(11.9,0,0,11.9,192.7,981.5)" />
<use xlink:href="#f1_r" transform="matrix(11.9,0,0,11.9,201.8,981.5)" />
</g>
<g clip-path="url(#c59_10)">
<g fill="#000000" >
<use xlink:href="#f1_n" transform="matrix(11.9,0,0,11.9,157.1,993.1)" />
<use xlink:href="#f1_m" transform="matrix(11.9,0,0,11.9,247.7,993.1)" />
</g>
</g>
<g clip-path="url(#c60_10)">
<g fill="#000000" >
<use xlink:href="#f1_n" transform="matrix(11.9,0,0,11.9,192.5,1007.2)" />
<use xlink:href="#f1_m" transform="matrix(11.9,0,0,11.9,201.7,1007.2)" />
</g>
</g>
<g fill="#000000" >
<use xlink:href="#f2_2l" transform="matrix(11.9,0,0,11.9,132.7,993.1)" />
<use xlink:href="#f2_2k" transform="matrix(11.9,0,0,11.9,222.9,993.1)" />
</g>
<g clip-path="url(#c61_10)">
<g fill="#000000" >
<use xlink:href="#f0_h" transform="matrix(11.9,0,0,11.9,144.5,993.1)" />
<use xlink:href="#f0_x" transform="matrix(11.9,0,0,11.9,176.9,993.1)" />
<use xlink:href="#f0_h" transform="matrix(11.9,0,0,11.9,234.5,993.1)" />
</g>
</g>
<g clip-path="url(#c62_10)">
<g fill="#000000" >
<use xlink:href="#f1_n" transform="matrix(11.8,0,0,11.8,123.4,1035)" />
<use xlink:href="#f1_m" transform="matrix(11.8,0,0,11.8,132.5,1035)" />
<use xlink:href="#f1_t" transform="matrix(11.8,0,0,11.8,167.9,1035)" />
<use xlink:href="#f1_q" transform="matrix(11.8,0,0,11.8,177.1,1035)" />
<use xlink:href="#f1_m" transform="matrix(11.8,0,0,11.8,204.4,1035)" />
<use xlink:href="#f1_r" transform="matrix(11.8,0,0,11.8,213.5,1035)" />
<use xlink:href="#f1_p" transform="matrix(11.8,0,0,11.8,248.2,1035)" />
<use xlink:href="#f1_o" transform="matrix(11.8,0,0,11.8,257.3,1035)" />
</g>
</g>
<g fill="#000000" >
<use xlink:href="#f2_2l" transform="matrix(11.8,0,0,11.8,143.7,1035)" />
<use xlink:href="#f2_2k" transform="matrix(11.8,0,0,11.8,224.2,1035)" />
</g>
<g clip-path="url(#c63_10)">
<g fill="#000000" >
<use xlink:href="#f0_h" transform="matrix(11.8,0,0,11.8,155.3,1035)" />
<use xlink:href="#f0_x" transform="matrix(11.8,0,0,11.8,190.3,1035)" />
<use xlink:href="#f0_h" transform="matrix(11.8,0,0,11.8,235.5,1035)" />
</g>
</g>
<g clip-path="url(#c64_10)">
<g fill="#000000" >
<use xlink:href="#f1_m" transform="matrix(11.8,0,0,11.8,123.9,1064.2)" />
<use xlink:href="#f1_r" transform="matrix(11.8,0,0,11.8,133.1,1064.2)" />
<use xlink:href="#f1_n" transform="matrix(11.8,0,0,11.8,167.7,1064.2)" />
<use xlink:href="#f1_m" transform="matrix(11.8,0,0,11.8,176.9,1064.2)" />
<use xlink:href="#f1_p" transform="matrix(11.8,0,0,11.8,212.4,1064.2)" />
<use xlink:href="#f1_o" transform="matrix(11.8,0,0,11.8,221.6,1064.2)" />
<use xlink:href="#f1_t" transform="matrix(11.8,0,0,11.8,246.5,1064.2)" />
<use xlink:href="#f1_q" transform="matrix(11.8,0,0,11.8,255.7,1064.2)" />
<use xlink:href="#f1_k" transform="matrix(11.8,0,0,11.8,282.8,1064.2)" />
</g>
</g>
<g fill="#000000" >
<use xlink:href="#f2_2k" transform="matrix(11.8,0,0,11.8,143.7,1064.2)" />
<use xlink:href="#f2_2l" transform="matrix(11.8,0,0,11.8,188.1,1064.2)" />
</g>
<g clip-path="url(#c65_10)">
<g fill="#000000" >
<use xlink:href="#f0_h" transform="matrix(11.8,0,0,11.8,155.1,1064.2)" />
<use xlink:href="#f0_h" transform="matrix(11.8,0,0,11.8,199.8,1064.2)" />
<use xlink:href="#f0_f" transform="matrix(11.8,0,0,11.8,233.7,1064.2)" />
<use xlink:href="#f0_x" transform="matrix(11.8,0,0,11.8,268.9,1064.2)" />
</g>
</g>
<g clip-path="url(#c66_10)">
<g fill="#000000" >
<use xlink:href="#f1_m" transform="matrix(11.8,0,0,11.8,123.9,1093.2)" />
<use xlink:href="#f1_r" transform="matrix(11.8,0,0,11.8,133.1,1093.2)" />
<use xlink:href="#f1_n" transform="matrix(11.8,0,0,11.8,167.9,1093.2)" />
<use xlink:href="#f1_m" transform="matrix(11.8,0,0,11.8,177.1,1093.2)" />
<use xlink:href="#f1_o" transform="matrix(11.8,0,0,11.8,213.5,1093.2)" />
<use xlink:href="#f1_m" transform="matrix(11.8,0,0,11.8,222.7,1093.2)" />
<use xlink:href="#f1_k" transform="matrix(11.8,0,0,11.8,250,1093.2)" />
</g>
</g>
<g fill="#000000" >
<use xlink:href="#f2_2k" transform="matrix(11.8,0,0,11.8,143.7,1093.2)" />
<use xlink:href="#f2_2l" transform="matrix(11.8,0,0,11.8,188.3,1093.2)" />
</g>
<g clip-path="url(#c67_10)">
<g fill="#000000" >
<use xlink:href="#f0_h" transform="matrix(11.8,0,0,11.8,155.3,1093.2)" />
<use xlink:href="#f0_f" transform="matrix(11.8,0,0,11.8,200.2,1093.2)" />
<use xlink:href="#f0_x" transform="matrix(11.8,0,0,11.8,235.9,1093.2)" />
</g>
</g>
<g fill="#000000" >
<use xlink:href="#f4_c" transform="matrix(12,0,0,12,435.8,1168.3)" />
<use xlink:href="#f4_1f" transform="matrix(12,0,0,12,441.9,1168.3)" />
<use xlink:href="#f4_1i" transform="matrix(12,0,0,12,455.1,1168.3)" />
<use xlink:href="#f4_d" transform="matrix(12,0,0,12,467.4,1168.3)" />
<use xlink:href="#f5_l" transform="matrix(8,0,0,8,785.4,1264.3)" />
<use xlink:href="#f5_k" transform="matrix(8,0,0,8,792.2,1264.3)" />
</g>
<defs>
<path d="M412,-328c0,0,-195,96,-303,284C109,-44,0,142,0,365c0,0,0,232,114,422c0,0,114,191,298,273v-31c0,0,-92,-51,-151,-139c0,0,-59,-88,-88,-223c0,0,-29,-136,-29,-282c0,0,0,-167,27,-301c0,0,26,-133,82,-221c0,0,55,-89,159,-159v-32Z" 
id="f0_c"
transform="scale(0.001,-0.001)" />

<path d="M34,-328v32c0,0,92,50,151,138c0,0,59,88,88,222c0,0,29,135,29,283c0,0,0,165,-27,300c0,0,-26,134,-82,222c0,0,-56,89,-159,160v31c0,0,194,-96,303,-284c0,0,108,-187,108,-410c0,0,0,-232,-114,-422c0,0,-114,-191,-297,-272Z" 
id="f0_d"
transform="scale(0.001,-0.001)" />

<path d="M379,437c0,0,34,0,81,16c0,0,47,17,83,47c0,0,14,97,14,155c0,0,0,72,-25,156c0,0,-25,83,-70,128c0,0,-45,45,-103,45c0,0,-66,0,-116,-60c0,0,-50,-59,-50,-177c0,0,0,-157,66,-246c0,0,49,-64,120,-64ZM80,-20V7c0,0,97,1,181,45c0,0,83,44,161,153c0,0,78,109,109,240c0,0,-117,-75,-212,-75c0,0,-107,0,-183,82c0,0,-76,82,-76,219c0,0,0,132,76,236c0,0,92,126,240,126c0,0,124,0,213,-103c0,0,109,-128,109,-315c0,0,0,-169,-82,-314C616,301,533,155,385,59c0,0,-120,-79,-262,-79Z" 
id="f1_t"
transform="scale(0.001,-0.001)" />

<path d="M238,-17c0,0,-103,0,-139,25C99,8,62,33,62,62c0,0,0,22,17,38c0,0,18,16,42,16c0,0,19,0,38,-6c0,0,13,-3,58,-27c0,0,45,-23,62,-28c0,0,27,-8,59,-8c0,0,76,0,132,59c0,0,56,59,56,140c0,0,0,59,-26,115c0,0,-19,41,-42,63c0,0,-32,30,-88,54c0,0,-56,25,-114,25H232v22c0,0,59,8,118,42c0,0,59,35,86,85c0,0,27,49,27,108c0,0,0,76,-48,124c0,0,-48,47,-120,47c0,0,-116,0,-193,-124L77,819c0,0,44,102,110,158c0,0,66,56,164,56c0,0,122,0,187,-80c0,0,49,-58,49,-126c0,0,0,-110,-139,-228c0,0,93,-36,141,-104c0,0,48,-68,48,-160c0,0,0,-131,-84,-227C553,108,444,-17,238,-17Z" 
id="f1_n"
transform="scale(0.001,-0.001)" />

<path d="M191,-20c0,0,-34,0,-58,24c0,0,-24,24,-24,58c0,0,0,35,24,59c0,0,24,24,58,24c0,0,35,0,59,-24c0,0,24,-25,24,-59c0,0,0,-34,-24,-58c0,0,-25,-24,-59,-24Z" 
id="f1_i"
transform="scale(0.001,-0.001)" />

<path d="M22,-17c0,0,-29,0,-54,21c0,0,-18,16,-18,44c0,0,0,25,17,41c0,0,16,17,39,17c0,0,24,0,50,-24C56,82,76,65,86,65c0,0,9,0,23,11c0,0,35,28,95,122c0,0,61,93,79,134c0,0,-46,182,-49,193c0,0,-17,49,-45,69c0,0,-27,20,-81,20c0,0,-17,0,-40,-1v26l199,36c0,0,37,-39,55,-78c0,0,14,-26,44,-141l66,99c0,0,26,35,64,68c0,0,37,32,65,44c0,0,18,8,40,8c0,0,32,0,51,-17c0,0,19,-18,19,-42c0,0,0,-29,-11,-39c0,0,-21,-19,-48,-19c0,0,-16,0,-34,7c0,0,-35,12,-47,12c0,0,-18,0,-43,-21c0,0,-46,-39,-111,-150L439,150c0,0,14,-59,24,-71c0,0,10,-11,20,-11c0,0,15,0,37,17c0,0,41,34,70,89l27,-13C617,161,569,73,497,15c0,0,-41,-32,-70,-32c0,0,-42,0,-66,46c0,0,-16,29,-64,251C297,280,180,78,110,20c0,0,-46,-37,-88,-37Z" 
id="f2_2k"
transform="scale(0.001,-0.001)" />

<path d="M-60,-328c0,0,-23,0,-41,17c0,0,-17,18,-17,41c0,0,0,29,24,53c0,0,24,23,53,23c0,0,15,0,24,-6c0,0,6,-4,13,-21c0,0,6,-18,12,-24c0,0,4,-3,9,-3c0,0,5,0,16,7c0,0,41,25,96,81c0,0,71,72,106,119L193,430c0,0,-11,117,-32,142c0,0,-20,25,-70,25c0,0,-15,0,-56,-4l-7,28l219,54c0,0,25,-43,35,-81c0,0,10,-38,20,-148L334,80c0,0,45,54,130,170c0,0,41,56,102,154c0,0,36,59,45,83c0,0,4,12,4,25c0,0,0,8,-5,13c0,0,-6,5,-28,12c0,0,-21,7,-36,26c0,0,-15,19,-15,44c0,0,0,30,18,49c0,0,18,19,45,19c0,0,33,0,56,-28c0,0,23,-27,23,-74c0,0,0,-59,-40,-135c0,0,-40,-76,-155,-232C478,206,363,49,200,-135c0,0,-113,-127,-168,-160c0,0,-53,-33,-92,-33Z" 
id="f2_2l"
transform="scale(0.001,-0.001)" />

<path d="M-41,0V22L474,558H259c0,0,-68,0,-82,-3c0,0,-21,-5,-41,-24c0,0,-21,-19,-42,-63H66l63,189H602V639L86,102H306c0,0,78,0,99,6c0,0,21,6,39,25c0,0,17,20,39,70h26L444,0Z" 
id="f2_2m"
transform="scale(0.001,-0.001)" />

<path d="M453,539c0,0,129,0,204,71c0,0,75,72,75,178c0,0,0,83,-48,127c0,0,-48,44,-144,44c0,0,-24,0,-58,-6L367,545c0,0,48,-6,86,-6ZM-34,0l8,26c0,0,54,3,74,12c0,0,30,12,45,34c0,0,24,36,50,125L316,809c0,0,18,61,18,95c0,0,0,35,-28,58c0,0,-27,24,-78,24q-1,0,-2,0l9,26H566c0,0,167,0,240,-63c0,0,73,-62,73,-164c0,0,0,-98,-74,-179c0,0,-75,-81,-204,-102L698,207c0,0,36,-110,72,-143c0,0,36,-33,116,-38L877,0H635L473,492c0,0,-1,0,-2,0c-12,0,-63,0,-117,11L265,184c0,0,-18,-56,-18,-94c0,0,0,-29,22,-46c0,0,16,-12,90,-18L352,0Z" 
id="f2_1i"
transform="scale(0.001,-0.001)" />

<path d="M-39,0l10,26c0,0,58,2,77,11c0,0,30,13,44,34c0,0,20,31,48,128L314,811c0,0,21,75,21,114c0,0,0,20,-9,33c0,0,-9,14,-29,21c0,0,-20,7,-77,7l9,26H626l-8,-26c0,0,-1,0,-2,0c-9,0,-51,-1,-72,-11c0,0,-35,-15,-51,-39c0,0,-23,-33,-50,-124L372,560H843l72,251c0,0,21,74,21,114c0,0,0,19,-9,33c0,0,-10,14,-29,21c0,0,-20,7,-76,7l7,26h405l-9,-26h-2c-9,0,-52,-1,-74,-11c0,0,-36,-16,-53,-40c0,0,-25,-35,-50,-124L867,186c0,0,-22,-71,-22,-101c0,0,0,-27,19,-40c0,0,20,-14,95,-19L950,0H563l10,26c0,0,58,2,78,11c0,0,29,13,43,34c0,0,19,30,48,128l88,309H357L266,186c0,0,-22,-70,-22,-101c0,0,0,-27,19,-40c0,0,20,-14,94,-19L351,0Z" 
id="f2_18"
transform="scale(0.001,-0.001)" />

<path d="M11,-21L94,353h25c0,0,-5,-54,-5,-90c0,0,0,-102,65,-167c0,0,66,-64,171,-64c0,0,98,0,149,60c0,0,51,60,51,138c0,0,0,51,-23,93c0,0,-36,62,-188,217c0,0,-74,75,-95,111c0,0,-35,61,-35,127c0,0,0,106,80,181c0,0,79,75,203,75c0,0,42,0,79,-8c0,0,24,-4,85,-30c0,0,43,-17,48,-19c0,0,10,-2,23,-2c0,0,22,0,37,11c0,0,16,12,37,48h27L751,699H726c0,0,3,45,3,72c0,0,0,90,-60,148c0,0,-60,57,-158,57c0,0,-77,0,-126,-46c0,0,-49,-45,-49,-105c0,0,0,-52,31,-99c0,0,31,-47,143,-154c0,0,112,-107,145,-167c0,0,33,-60,33,-128c0,0,0,-77,-41,-149C647,128,606,57,530,17c0,0,-76,-38,-167,-38c0,0,-45,0,-83,8c0,0,-39,8,-125,39c0,0,-29,11,-48,11c0,0,-44,0,-69,-58Z" 
id="f2_1j"
transform="scale(0.001,-0.001)" />

<path d="M0,214v74H784V214ZM0,494v72H784V494Z" 
id="f0_x"
transform="scale(0.001,-0.001)" />

<path d="M355,0V355H0v72H355V784h72V427H782V355H427V0Z" 
id="f0_f"
transform="scale(0.001,-0.001)" />

<path d="M26,0V27H62c0,0,63,0,91,37c0,0,18,24,18,115V833c0,0,0,77,-10,102c0,0,-7,18,-30,32c0,0,-33,18,-69,18H26v27H459V985H422c0,0,-35,0,-67,-17c0,0,-23,-12,-32,-36c0,0,-9,-25,-9,-99V542H784V833c0,0,0,77,-10,102c0,0,-8,18,-31,32c0,0,-33,18,-68,18H639v27h432V985h-36c0,0,-36,0,-68,-17c0,0,-24,-12,-32,-36c0,0,-9,-25,-9,-99V179c0,0,0,-77,10,-102c0,0,7,-18,31,-32c0,0,32,-18,68,-18h36V0H639V27h36c0,0,62,0,90,37c0,0,19,24,19,115V487H314V179c0,0,0,-77,9,-102c0,0,8,-18,32,-32c0,0,32,-18,67,-18h37V0Z" 
id="f1_18"
transform="scale(0.001,-0.001)" />

<path d="M479,469c0,0,-4,66,-16,93c0,0,-18,42,-55,65c0,0,-37,24,-78,24c0,0,-62,0,-111,-48c0,0,-48,-48,-57,-134ZM355,-20c0,0,-123,0,-211,95c0,0,-87,96,-87,258c0,0,0,175,90,273c0,0,89,98,225,98c0,0,115,0,189,-76c0,0,74,-75,74,-202H162c0,0,0,-152,74,-239c0,0,75,-86,175,-86c0,0,67,0,117,36c0,0,50,37,83,127l24,-15c0,0,-16,-102,-91,-186c0,0,-76,-83,-189,-83Z" 
id="f1_21"
transform="scale(0.001,-0.001)" />

<path d="M21,0V26H35c0,0,53,0,71,27c0,0,18,27,18,101V408c0,0,0,123,-5,150c0,0,-6,27,-17,37c0,0,-12,10,-31,10c0,0,-21,0,-50,-11L10,620l206,83h32V558c0,0,120,145,229,145c0,0,56,0,96,-28c0,0,40,-28,64,-92c0,0,16,-45,16,-137V154c0,0,0,-65,11,-88c0,0,8,-19,26,-29c0,0,18,-11,68,-11V0H419V26h14c0,0,47,0,66,15c0,0,20,15,27,43c0,0,3,11,3,70V434c0,0,0,93,-24,135c0,0,-24,42,-81,42c0,0,-88,0,-176,-97V154c0,0,0,-69,9,-86c0,0,10,-21,28,-31c0,0,19,-11,75,-11V0Z" 
id="f1_2a"
transform="scale(0.001,-0.001)" />

<path d="M342,-20c0,0,-116,0,-203,97c0,0,-86,98,-86,264c0,0,0,161,96,261c0,0,95,101,230,101c0,0,100,0,165,-53c0,0,65,-54,65,-111c0,0,0,-29,-18,-46c0,0,-18,-18,-51,-18c0,0,-44,0,-66,29c0,0,-13,15,-17,59c0,0,-4,45,-30,68c0,0,-26,22,-73,22c0,0,-74,0,-120,-55c0,0,-60,-73,-60,-193c0,0,0,-122,60,-216c0,0,60,-93,162,-93c0,0,73,0,131,49c0,0,41,35,80,126l22,-10C629,261,601,125,521,52c0,0,-81,-72,-179,-72Z" 
id="f1_1z"
transform="scale(0.001,-0.001)" />

<path d="M398,24c0,0,74,0,120,58c0,0,61,76,61,214c0,0,0,156,-69,240c0,0,-47,59,-113,59c0,0,-36,0,-71,-18c0,0,-27,-14,-88,-81V242c0,0,0,-83,6,-109c0,0,11,-43,51,-76c0,0,41,-33,103,-33ZM-4,-326v27H15c5,0,42,0,69,16c0,0,14,8,22,26c0,0,7,19,7,94V481c0,0,0,67,-6,85c0,0,-5,18,-18,27c0,0,-13,9,-36,9c0,0,-18,0,-45,-10L0,615l209,85h29V540c0,0,53,91,106,127c0,0,53,36,112,36c0,0,103,0,172,-80c0,0,84,-99,84,-257c0,0,0,-176,-102,-292c0,0,-83,-94,-210,-94c0,0,-55,0,-95,16c0,0,-30,10,-67,44V-167c0,0,0,-71,8,-90c0,0,9,-20,30,-31c0,0,21,-11,77,-11v-27Z" 
id="f1_2c"
transform="scale(0.001,-0.001)" />

<path d="M17,0V26c0,0,52,0,77,17c0,0,19,12,26,38c0,0,4,13,4,73V419c0,0,0,119,-5,142c0,0,-4,23,-17,33c0,0,-13,11,-33,11c0,0,-23,0,-52,-11l-7,26l207,83h31V549c0,0,86,154,176,154c0,0,41,0,68,-25c0,0,27,-25,27,-58c0,0,0,-29,-20,-49c0,0,-19,-20,-46,-20c0,0,-26,0,-58,25c0,0,-33,26,-48,26c0,0,-14,0,-29,-15c0,0,-34,-30,-70,-101V159c0,0,0,-56,15,-85c0,0,9,-20,34,-34c0,0,24,-14,71,-14V0Z" 
id="f1_2e"
transform="scale(0.001,-0.001)" />

<path d="M406,32c0,0,72,0,119,60c0,0,47,59,47,205c0,0,0,181,-78,286c0,0,-53,71,-135,71c0,0,-40,0,-79,-23c0,0,-40,-24,-65,-83c0,0,-24,-58,-24,-151c0,0,0,-149,59,-257c0,0,59,-108,156,-108ZM374,-20c0,0,-154,0,-245,122c0,0,-77,104,-77,233c0,0,0,94,46,187c0,0,47,92,123,137c0,0,76,44,161,44c0,0,155,0,249,-118c0,0,80,-100,80,-231c0,0,0,-91,-44,-185C667,169,623,75,546,27c0,0,-77,-47,-172,-47Z" 
id="f1_2b"
transform="scale(0.001,-0.001)" />

<path d="M376,-20L133,556c0,0,-17,41,-31,58c0,0,-15,18,-39,30c0,0,-12,7,-50,13v26H335V657H314c0,0,-29,0,-44,-14c0,0,-16,-14,-15,-38c0,0,-1,-26,15,-62L429,165L588,557c0,0,17,42,17,64c0,0,0,10,-6,17c0,0,-8,11,-21,15c0,0,-13,4,-52,4v26H750V657c0,0,-39,-3,-54,-16c0,0,-26,-23,-47,-76L409,-20Z" 
id="f1_2i"
transform="scale(0.001,-0.001)" />

<path d="M399,62c0,0,68,0,131,68V481c0,0,-5,51,-27,93c0,0,-22,42,-59,63c0,0,-37,21,-72,21c0,0,-65,0,-117,-59c0,0,-67,-77,-67,-226c0,0,0,-151,65,-231c0,0,66,-80,146,-80ZM330,-20c0,0,-112,0,-196,93c0,0,-83,94,-83,240c0,0,0,147,92,269c0,0,93,122,238,122c0,0,90,0,149,-58V773c0,0,0,117,-6,144c0,0,-5,27,-17,37c0,0,-12,9,-30,9c0,0,-20,0,-52,-12l-9,27l204,83h33V270c0,0,0,-120,6,-146c0,0,5,-27,18,-37c0,0,12,-11,28,-11c0,0,21,0,54,13l9,-26L564,-20H530V78C530,78,480,25,432,2c0,0,-47,-22,-102,-22Z" 
id="f1_20"
transform="scale(0.001,-0.001)" />

<path d="M197,0V27c0,0,71,2,92,13c0,0,21,10,29,29c0,0,9,18,9,109V725c0,0,0,110,-8,141c0,0,-5,24,-19,35c0,0,-14,11,-33,11c0,0,-28,0,-77,-23l-11,23l246,121h25V178c0,0,0,-85,7,-106c0,0,7,-21,29,-32c0,0,23,-11,91,-13V0Z" 
id="f1_l"
transform="scale(0.001,-0.001)" />

<path d="M394,23c0,0,80,0,129,45c0,0,48,45,48,110c0,0,0,54,-28,97c0,0,-53,79,-214,206c0,0,-62,-52,-92,-114c0,0,-30,-61,-30,-133c0,0,0,-96,53,-154c0,0,52,-57,134,-57Zm17,566c0,0,90,81,114,128c0,0,24,46,24,105c0,0,0,79,-44,123c0,0,-44,45,-121,45c0,0,-76,0,-124,-45c0,0,-48,-44,-48,-103c0,0,0,-38,20,-77c0,0,20,-39,56,-74L411,589ZM382,-17c0,0,-144,0,-225,90c0,0,-64,72,-64,158c0,0,0,67,45,133c0,0,45,66,156,146c0,0,-121,98,-156,158c0,0,-34,59,-34,124c0,0,0,98,76,169c0,0,76,72,202,72c0,0,123,0,198,-67c0,0,74,-66,74,-151c0,0,0,-57,-40,-116c0,0,-40,-59,-168,-139c0,0,132,-101,174,-159c0,0,57,-76,57,-161c0,0,0,-106,-82,-182c0,0,-81,-75,-213,-75Z" 
id="f1_s"
transform="scale(0.001,-0.001)" />

<path d="M24,0V27H60c0,0,63,0,91,37c0,0,18,24,18,115V833c0,0,0,77,-10,102c0,0,-7,18,-30,32c0,0,-32,18,-69,18H24v27H776L787,790H761c0,0,-20,71,-45,104c0,0,-26,33,-64,48c0,0,-37,15,-117,15H312V558H497c0,0,63,0,93,28c0,0,29,28,39,111h27V355H629c0,0,-1,59,-16,87c0,0,-14,27,-40,41c0,0,-26,14,-76,14H312V179c0,0,0,-77,10,-102c0,0,7,-18,31,-32c0,0,33,-18,69,-18h37V0Z" 
id="f1_16"
transform="scale(0.001,-0.001)" />

<path d="M55,0V26c0,0,50,0,67,10c0,0,17,10,27,32c0,0,10,23,10,86V418c0,0,0,111,-6,144c0,0,-6,24,-17,33c0,0,-11,10,-30,10c0,0,-21,0,-51,-11L45,620l206,83h33V154c0,0,0,-64,9,-85c0,0,9,-22,27,-32c0,0,19,-11,67,-11V0ZM222,909c0,0,-32,0,-54,23c0,0,-22,22,-22,53c0,0,0,32,22,54c0,0,22,22,54,22c0,0,31,0,53,-22c0,0,22,-22,22,-54c0,0,0,-31,-22,-53c0,0,-22,-23,-53,-23Z" 
id="f1_25"
transform="scale(0.001,-0.001)" />

<path d="M255,-10c0,0,-35,0,-68,18c0,0,-32,19,-48,55c0,0,-16,35,-16,109V632H15v24c0,0,41,16,84,56c0,0,43,39,77,92c0,0,17,29,48,104h23V683H407V632H247V188c0,0,0,-66,19,-90c0,0,19,-23,49,-23c0,0,24,0,47,16c0,0,23,15,36,45h29c0,0,-26,-73,-74,-110c0,0,-47,-36,-98,-36Z" 
id="f1_2g"
transform="scale(0.001,-0.001)" />

<path d="M20,0V26c0,0,45,0,71,15c0,0,15,7,24,28c0,0,9,21,9,85V773c0,0,0,117,-5,144c0,0,-6,27,-17,37c0,0,-12,9,-31,9c0,0,-16,0,-51,-12L10,978l204,83h34V561c0,0,83,91,131,116c0,0,49,26,97,26c0,0,58,0,100,-32c0,0,42,-32,62,-101c0,0,14,-47,14,-174V154c0,0,0,-65,11,-89c0,0,7,-18,25,-28c0,0,18,-11,66,-11V0H418V26h15c0,0,48,0,67,15c0,0,18,15,26,43c0,0,2,12,2,70V396c0,0,0,112,-12,147c0,0,-11,35,-36,53c0,0,-26,17,-61,17c0,0,-37,0,-76,-19c0,0,-40,-20,-95,-79V154c0,0,0,-70,8,-87c0,0,8,-17,29,-29c0,0,22,-12,74,-12V0Z" 
id="f1_24"
transform="scale(0.001,-0.001)" />

<path d="M384,85c0,0,44,0,78,19c0,0,35,19,68,62V487c0,0,0,55,-15,87c0,0,-14,33,-51,55c0,0,-38,22,-85,22c0,0,-84,0,-143,-71c0,0,-60,-70,-60,-214c0,0,0,-138,61,-209c0,0,61,-72,147,-72Zm35,-411v27h15c0,0,41,0,63,12c0,0,15,8,24,30c0,0,9,21,9,83V119C530,119,462,39,411,9c0,0,-50,-29,-105,-29c0,0,-99,0,-177,90c0,0,-78,90,-78,241c0,0,0,174,103,283c0,0,103,109,248,109c0,0,43,0,78,-12c0,0,36,-12,65,-35c0,0,43,20,83,47h25V-174c0,0,0,-66,9,-85c0,0,9,-19,28,-30c0,0,19,-10,74,-10v-27Z" 
id="f1_2d"
transform="scale(0.001,-0.001)" />

<path d="M292,-20c0,0,-57,0,-100,33c0,0,-42,33,-58,85c0,0,-17,52,-17,148V551c0,0,0,49,-10,68c0,0,-11,18,-31,29c0,0,-19,9,-68,9c-2,0,-4,0,-6,0v26H242V226c0,0,0,-95,33,-125c0,0,33,-30,80,-30c0,0,32,0,73,21c0,0,40,20,96,76V555c0,0,0,59,-21,80c0,0,-22,21,-89,22v26H647V269c0,0,0,-119,6,-145c0,0,6,-27,18,-37c0,0,12,-11,29,-11c0,0,23,0,52,13L763,63L558,-20H524V124C524,124,436,29,390,4c0,0,-47,-24,-98,-24Z" 
id="f1_2h"
transform="scale(0.001,-0.001)" />

<path d="M286,72c0,0,57,0,149,75V407c0,0,-113,-45,-145,-64c0,0,-59,-32,-85,-68c0,0,-25,-36,-25,-78c0,0,0,-54,32,-89c0,0,32,-36,74,-36ZM217,-13c0,0,-71,0,-116,48c0,0,-46,48,-46,127c0,0,0,50,22,87c0,0,31,50,106,95c0,0,76,45,252,109v26c0,0,0,102,-32,140c0,0,-32,38,-94,38c0,0,-47,0,-74,-25c0,0,-28,-25,-28,-58l1,-43c0,0,0,-34,-17,-53c0,0,-18,-18,-47,-18c0,0,-28,0,-45,19c0,0,-18,19,-18,53c0,0,0,64,66,117c0,0,65,54,184,54c0,0,91,0,149,-31c0,0,44,-23,65,-72c0,0,13,-32,13,-131V238c0,0,0,-98,4,-120c0,0,4,-22,12,-29c0,0,9,-8,20,-8c0,0,12,0,21,5c0,0,16,10,61,55V99C676,99,592,-12,516,-12c0,0,-37,0,-58,24c0,0,-22,26,-23,86C435,98,330,17,303,5c0,0,-40,-18,-86,-18Z" 
id="f1_1x"
transform="scale(0.001,-0.001)" />

<path d="M312,-20c0,0,-62,0,-143,22c0,0,-25,8,-40,8c0,0,-18,0,-27,-19H77V234h25c0,0,21,-105,80,-158c0,0,59,-53,132,-53c0,0,51,0,84,31c0,0,32,30,32,72c0,0,0,52,-36,87c0,0,-36,35,-144,88c0,0,-109,54,-142,97c0,0,-34,43,-34,107c0,0,0,85,58,141c0,0,58,57,150,57c0,0,40,0,97,-17c0,0,38,-11,51,-11c0,0,12,0,19,5c0,0,7,5,15,23h25V470H464c0,0,-28,110,-72,149c0,0,-45,40,-113,40c0,0,-53,0,-85,-28c0,0,-32,-27,-32,-61c0,0,0,-41,24,-71c0,0,23,-31,94,-65L389,381c0,0,152,-74,152,-194c0,0,0,-94,-71,-151c0,0,-70,-56,-158,-56Z" 
id="f1_2f"
transform="scale(0.001,-0.001)" />

<path d="M63,0V26H93c0,0,30,0,54,15c0,0,25,15,34,41c0,0,10,25,10,99V630H58v53H191v45c0,0,0,102,33,173c0,0,32,71,100,114c0,0,68,44,152,44c0,0,79,0,145,-51c0,0,43,-33,43,-75c0,0,0,-22,-19,-42c0,0,-20,-20,-42,-20c0,0,-17,0,-36,12c0,0,-19,13,-47,53c0,0,-28,41,-51,55c0,0,-23,14,-51,14c0,0,-35,0,-58,-18c0,0,-24,-18,-35,-57c0,0,-10,-38,-10,-197V683H491V630H315V181c0,0,0,-96,21,-122c0,0,27,-33,73,-33h62V0Z" 
id="f1_22"
transform="scale(0.001,-0.001)" />

<path d="M411,-239c0,0,134,0,198,48c0,0,64,47,64,100c0,0,0,39,-38,55c0,0,-39,16,-154,19c0,0,-167,5,-258,17c0,0,-35,-37,-53,-70c0,0,-17,-32,-17,-60c0,0,0,-36,43,-62c0,0,74,-47,215,-47ZM380,257c0,0,56,0,93,43c0,0,36,42,36,133c0,0,0,118,-51,185c0,0,-38,49,-98,49c0,0,-55,0,-92,-44c0,0,-37,-44,-37,-135c0,0,0,-117,50,-182c0,0,39,-49,99,-49ZM345,-328c0,0,-144,0,-243,64c0,0,-56,38,-56,78c0,0,0,18,8,36c0,0,13,27,52,76c0,0,5,7,76,80c0,0,-39,23,-55,41c0,0,-16,19,-16,42c0,0,0,26,22,61c0,0,21,35,98,100c0,0,-63,30,-97,85c0,0,-33,55,-33,121c0,0,0,101,76,174c0,0,77,73,196,73c0,0,98,0,170,-48H688c0,0,32,0,37,-2c0,0,6,-2,8,-6c0,0,4,-7,4,-24c0,0,0,-20,-4,-27c0,0,-2,-4,-7,-6c0,0,-6,-2,-38,-2H599c0,0,41,-54,41,-137c0,0,0,-96,-73,-163c0,0,-73,-68,-196,-68c0,0,-51,0,-104,15c0,0,-33,-28,-44,-49c0,0,-12,-22,-12,-37c0,0,0,-12,13,-24c0,0,12,-12,48,-17c0,0,21,-4,104,-6c0,0,154,-4,199,-11c0,0,70,-10,111,-51c0,0,42,-41,42,-102c0,0,0,-84,-79,-158c0,0,-117,-108,-304,-108Z" 
id="f1_23"
transform="scale(0.001,-0.001)" />

<path d="M23,0V26c0,0,47,0,66,10c0,0,19,11,28,33c0,0,10,22,10,85V416c0,0,0,112,-7,145c0,0,-5,25,-16,34c0,0,-11,10,-31,10c0,0,-21,0,-50,-11L12,620l207,83h32V557c0,0,75,75,88,86c0,0,34,29,72,44c0,0,39,16,77,16c0,0,64,0,110,-37c0,0,47,-38,62,-109c0,0,77,90,130,118c0,0,53,28,109,28c0,0,54,0,96,-28c0,0,42,-28,67,-91c0,0,16,-43,16,-136V154c0,0,0,-64,10,-88c0,0,8,-16,28,-28c0,0,20,-12,65,-12V0H844V26h14c0,0,44,0,69,18c0,0,17,12,24,38c0,0,3,13,3,72V448c0,0,0,83,-20,117c0,0,-29,48,-93,48c0,0,-39,0,-79,-20c0,0,-40,-19,-97,-73l-1,-8l2,-32V154c0,0,0,-70,8,-87c0,0,7,-17,29,-29c0,0,21,-12,73,-12V0H431V26c0,0,57,0,78,14c0,0,21,13,29,40c0,0,4,13,4,74V448c0,0,0,83,-25,120c0,0,-33,48,-91,48c0,0,-40,0,-80,-22c0,0,-61,-33,-95,-74V154c0,0,0,-67,10,-87c0,0,9,-20,27,-30c0,0,18,-11,74,-11V0Z" 
id="f1_29"
transform="scale(0.001,-0.001)" />

<path d="M58,0V26c0,0,47,0,64,10c0,0,18,10,28,32c0,0,9,23,9,86V775c0,0,0,116,-5,142c0,0,-5,27,-17,37c0,0,-11,9,-29,9c0,0,-20,0,-49,-12L46,978l204,83h34V154c0,0,0,-64,9,-85c0,0,9,-21,29,-32c0,0,19,-11,72,-11V0Z" 
id="f1_28"
transform="scale(0.001,-0.001)" />

<path d="M82,-253v33c0,0,77,25,119,78c0,0,42,54,42,114c0,0,0,14,-7,23c0,0,-5,6,-11,6c0,0,-8,0,-35,-14c0,0,-14,-7,-28,-7c0,0,-37,0,-58,21C104,1,82,23,82,61c0,0,0,36,28,62c0,0,28,27,68,27c0,0,49,0,88,-43c0,0,38,-43,38,-113c0,0,0,-77,-53,-143c0,0,-53,-66,-169,-104Z" 
id="f1_g"
transform="scale(0.001,-0.001)" />

<path d="M33,0V27c0,0,264,241,371,393c0,0,108,152,108,278c0,0,0,96,-59,158c0,0,-59,62,-141,62c0,0,-75,0,-134,-43c0,0,-59,-44,-88,-128H63c0,0,18,138,95,212c0,0,77,74,193,74c0,0,123,0,205,-80c0,0,83,-79,83,-186c0,0,0,-77,-36,-154c0,0,-55,-121,-179,-256C424,357,238,154,191,112H455c0,0,81,0,114,6c0,0,32,6,58,25c0,0,27,18,46,52h27L630,0Z" 
id="f1_m"
transform="scale(0.001,-0.001)" />

<path d="M405,24c0,0,65,0,116,62c0,0,51,61,51,174c0,0,0,128,-50,221c0,0,-51,93,-144,93c0,0,-29,0,-61,-12c0,0,-33,-12,-96,-51c0,0,-14,-101,-14,-163c0,0,0,-72,27,-155c0,0,26,-84,79,-134c0,0,38,-35,92,-35ZM384,-17c0,0,-104,0,-177,68C207,51,66,185,66,397c0,0,0,136,54,258c0,0,54,122,156,217c0,0,101,95,193,128c0,0,93,33,172,33h44v-28c0,0,-99,-10,-161,-39c0,0,-62,-29,-123,-90c0,0,-61,-60,-101,-135c0,0,-39,-74,-66,-176c0,0,107,73,215,73c0,0,104,0,180,-83c0,0,76,-84,76,-215c0,0,0,-126,-77,-231c0,0,-92,-126,-244,-126Z" 
id="f1_q"
transform="scale(0.001,-0.001)" />

<path d="M452,373V875L97,373ZM452,0V267H23v95l470,671h82V373H711V267H575V0Z" 
id="f1_o"
transform="scale(0.001,-0.001)" />

<path d="M247,-17c0,0,-91,0,-132,30c0,0,-42,31,-42,68c0,0,0,21,17,37c0,0,18,16,44,17c0,0,19,0,34,-6c0,0,14,-7,49,-31c0,0,56,-39,113,-39c0,0,88,0,154,66c0,0,66,66,66,161c0,0,0,92,-59,171c0,0,-59,80,-163,123c0,0,-81,34,-221,39l194,393H663L605,885H301L234,750c0,0,198,-29,313,-147c0,0,100,-102,100,-239c0,0,0,-80,-33,-148c0,0,-32,-68,-81,-116c0,0,-50,-47,-110,-77c0,0,-86,-40,-176,-40Z" 
id="f1_p"
transform="scale(0.001,-0.001)" />

<path d="M336,-20L117,554c0,0,-21,55,-42,74c0,0,-21,19,-66,29v26H296V657c0,0,-40,-3,-52,-14c0,0,-13,-12,-13,-33c0,0,0,-23,13,-56L390,162L537,481L498,581c0,0,-18,46,-47,63c0,0,-17,11,-61,13v26H716V657c0,0,-54,-2,-77,-20c0,0,-15,-12,-15,-39c0,0,0,-15,6,-30L785,177L929,554c0,0,15,40,15,65c0,0,0,14,-15,25c0,0,-14,12,-57,13v26h216V657c0,0,-65,-10,-95,-89L764,-20H733L563,415L363,-20Z" 
id="f1_2j"
transform="scale(0.001,-0.001)" />

<path d="M379,29c0,0,41,0,84,37c0,0,43,36,65,121c0,0,34,128,34,362c0,0,0,173,-35,288c0,0,-27,86,-69,122c0,0,-31,25,-74,25c0,0,-51,0,-90,-46c0,0,-54,-62,-73,-195c0,0,-20,-132,-20,-261c0,0,0,-209,52,-341c0,0,42,-112,126,-112Zm-2,-46c0,0,-145,0,-241,170c0,0,-81,144,-81,347c0,0,0,173,52,298c0,0,52,125,139,186c0,0,67,49,139,49c0,0,116,0,208,-119c0,0,116,-147,116,-398c0,0,0,-176,-51,-299C658,217,608,94,529,38c0,0,-79,-55,-152,-55Z" 
id="f1_k"
transform="scale(0.001,-0.001)" />

<path d="M45,0V81L673,391L45,704v80L795,412V374L45,0Z" 
id="f0_y"
transform="scale(0.001,-0.001)" />

<path d="M107,-21V325h27c0,0,19,-109,52,-163c0,0,33,-54,100,-90c0,0,68,-36,148,-36c0,0,93,0,148,49c0,0,54,50,54,117c0,0,0,37,-21,75c0,0,-20,38,-64,71c0,0,-29,22,-159,95c0,0,-130,72,-185,115c0,0,-55,44,-83,96c0,0,-28,52,-28,114c0,0,0,109,83,188c0,0,84,78,213,78c0,0,81,0,171,-39c0,0,42,-19,59,-19c0,0,20,0,32,11c0,0,12,12,20,47h27V684H674c0,0,-14,101,-48,161c0,0,-35,60,-100,95c0,0,-64,35,-133,35c0,0,-77,0,-128,-47c0,0,-51,-48,-51,-108c0,0,0,-46,32,-84c0,0,47,-56,221,-149c0,0,142,-76,194,-117c0,0,51,-41,80,-96c0,0,28,-55,28,-115c0,0,0,-115,-90,-198c0,0,-89,-82,-229,-82c0,0,-44,0,-83,6c0,0,-23,4,-95,27c0,0,-73,24,-93,24c0,0,-18,0,-29,-11c0,0,-11,-12,-16,-46Z" 
id="f1_1j"
transform="scale(0.001,-0.001)" />

<path d="M213,-20c0,0,-34,0,-58,24c0,0,-24,24,-24,58c0,0,0,34,24,58c0,0,24,25,58,25c0,0,35,0,59,-25c0,0,24,-24,24,-58c0,0,0,-34,-24,-58c0,0,-25,-24,-59,-24Zm3,559c0,0,-35,0,-59,24c0,0,-24,24,-24,58c0,0,0,35,24,59c0,0,24,24,59,24c0,0,34,0,58,-24c0,0,24,-24,24,-59c0,0,0,-34,-24,-58c0,0,-24,-24,-58,-24Z" 
id="f1_u"
transform="scale(0.001,-0.001)" />

<path d="M512,518c0,0,82,0,149,34c0,0,67,33,105,101c0,0,38,67,38,140c0,0,0,75,-47,119c0,0,-47,44,-142,44c0,0,-52,0,-125,-12L376,541c0,0,85,-23,136,-23ZM-35,0l8,26c0,0,78,0,109,28c0,0,31,27,67,151L312,782c0,0,30,104,30,139c0,0,0,26,-21,44c0,0,-21,17,-94,21l9,26H636c0,0,157,0,235,-68c0,0,78,-67,78,-164c0,0,0,-77,-50,-150c0,0,-49,-72,-147,-117c0,0,-97,-46,-210,-46c0,0,-71,0,-179,27L280,203c0,0,-28,-92,-28,-121c0,0,0,-22,20,-37c0,0,20,-14,96,-19L361,0Z" 
id="f2_1g"
transform="scale(0.001,-0.001)" />

<path d="M0,134v72H785V134ZM0,353v74H785V353ZM0,574v72H785V574Z" 
id="f0_3g"
transform="scale(0.001,-0.001)" />

<path d="M660,0C618,0,589,29,589,29C560,58,560,99,560,99c0,41,29,70,29,70c29,29,71,29,71,29c41,0,70,-29,70,-29c29,-29,29,-70,29,-70C759,58,730,29,730,29C701,0,660,0,660,0ZM349,532c-42,0,-71,29,-71,29c-29,29,-29,70,-29,70c0,41,29,70,29,70c29,29,71,29,71,29c41,0,70,-29,70,-29c29,-29,29,-70,29,-70c0,-41,-29,-70,-29,-70C390,532,349,532,349,532Zm622,0c-41,0,-70,29,-70,29c-29,29,-29,70,-29,70c0,41,29,70,29,70c29,29,70,29,70,29c42,0,71,-29,71,-29c29,-29,29,-70,29,-70c0,-41,-29,-70,-29,-70c-29,-29,-71,-29,-71,-29Z" 
id="f3_14"
transform="scale(0.001,-0.001)" />

<path d="M0,356v74H784V356Z" 
id="f0_h"
transform="scale(0.001,-0.001)" />

<path d="M0,0V74H784V0ZM357,164V519H0v73H357V948h72V592H784V519H429V164Z" 
id="f0_37"
transform="scale(0.001,-0.001)" />

<path d="M485,53c0,0,135,0,206,61c0,0,71,60,71,150c0,0,0,59,-32,114c0,0,-33,54,-105,85c0,0,-72,32,-179,32c0,0,-46,0,-79,-2c0,0,-33,-1,-53,-5V73c0,0,86,-20,171,-20ZM455,547c0,0,109,0,164,23c0,0,55,24,84,72c0,0,29,49,29,106c0,0,0,89,-72,151c0,0,-73,63,-212,63c0,0,-74,0,-134,-16V557c0,0,27,-5,63,-8c0,0,35,-2,78,-2ZM24,0V27H63c0,0,63,0,91,41c0,0,17,26,17,111V833c0,0,0,94,-22,119c0,0,-29,33,-86,33H24v27H462c0,0,122,0,196,-18c0,0,112,-27,171,-95c0,0,59,-68,59,-157c0,0,0,-76,-46,-136c0,0,-47,-60,-137,-89c0,0,105,-23,157,-72c0,0,73,-69,73,-168c0,0,0,-75,-48,-145C887,132,839,63,756,32C756,32,673,0,502,0Z" 
id="f1_12"
transform="scale(0.001,-0.001)" />

<path d="M83,0C83,0,48,0,24,24C24,24,0,49,0,83c0,0,0,34,24,58c0,0,24,24,59,24c0,0,34,0,58,-24c0,0,24,-24,24,-58c0,0,0,-34,-24,-59C141,24,117,0,83,0ZM695,0c0,0,-34,0,-58,24c0,0,-25,25,-25,59c0,0,0,34,25,58c0,0,24,24,58,24c0,0,34,0,58,-24c0,0,24,-24,24,-58c0,0,0,-34,-24,-59C753,24,729,0,695,0ZM388,594c0,0,-34,0,-59,23c0,0,-24,24,-24,59c0,0,0,34,24,58c0,0,25,25,59,25c0,0,34,0,58,-25c0,0,24,-24,24,-58c0,0,0,-35,-24,-59c0,0,-24,-23,-58,-23Z" 
id="f0_1s"
transform="scale(0.001,-0.001)" />

<path d="M474,-326c0,0,-112,57,-188,133c0,0,-107,108,-165,254c0,0,-58,147,-58,305c0,0,0,231,114,421c0,0,114,191,297,273v-31c0,0,-92,-51,-151,-139c0,0,-59,-88,-88,-223c0,0,-30,-135,-30,-281c0,0,0,-160,25,-290c0,0,20,-102,47,-164c0,0,28,-62,75,-120c0,0,47,-57,122,-109v-29Z" 
id="f1_c"
transform="scale(0.001,-0.001)" />

<path d="M35,-326v29c0,0,92,51,151,139c0,0,60,87,89,221c0,0,28,136,28,282c0,0,0,159,-24,290c0,0,-19,103,-47,165c0,0,-28,62,-75,119c0,0,-46,57,-122,110v31c0,0,113,-56,188,-132c0,0,107,-109,165,-255c0,0,58,-147,58,-306c0,0,0,-231,-114,-420c0,0,-113,-191,-297,-273Z" 
id="f1_d"
transform="scale(0.001,-0.001)" />

<path d="M252,70c0,0,90,0,212,168c0,0,123,168,123,294c0,0,0,47,-30,76c0,0,-30,30,-77,30c0,0,-103,0,-214,-156C266,482,155,327,155,185c0,0,0,-56,28,-85c0,0,29,-30,69,-30ZM185,-17c0,0,-63,0,-109,50C76,33,29,83,29,169c0,0,0,111,77,237c0,0,77,126,203,205c0,0,99,64,182,64c0,0,44,0,75,-17c0,0,32,-16,62,-54l71,247c0,0,11,40,18,64c0,0,9,31,9,50c0,0,0,16,-11,27c0,0,-16,13,-40,13c0,0,-17,0,-57,-6v27l255,42L615,170c0,0,-21,-73,-21,-95c0,0,0,-7,4,-13c0,0,4,-6,8,-6c0,0,7,0,16,9c0,0,16,16,56,88l25,-16c0,0,-43,-73,-88,-114c0,0,-44,-40,-83,-40c0,0,-20,0,-35,17c0,0,-16,18,-16,51c0,0,0,42,22,114l29,94C532,259,413,91,315,27c0,0,-68,-44,-130,-44Z" 
id="f2_20"
transform="scale(0.001,-0.001)" />

<path d="M275,-20L578,891H299c0,0,-84,0,-120,-20c0,0,-63,-35,-101,-106l-21,8l97,239H696V983L359,-20Z" 
id="f1_r"
transform="scale(0.001,-0.001)" />

<path d="M839,-17c0,0,-25,0,-42,17c0,0,-17,18,-17,44c0,0,0,36,35,144l78,239c0,0,26,83,28,92c0,0,3,14,3,27c0,0,0,19,-9,29c0,0,-10,11,-22,11c0,0,-34,0,-71,-32c0,0,-111,-95,-208,-266C614,288,551,176,495,0H382L517,451c0,0,22,73,22,97c0,0,0,20,-8,30c0,0,-9,10,-21,10c0,0,-25,0,-53,-18c0,0,-46,-29,-118,-125c0,0,-72,-95,-112,-182c0,0,-19,-41,-91,-263H26L165,483l17,63c0,0,6,14,6,21c0,0,0,17,-15,30c0,0,-15,13,-38,13c0,0,-10,0,-54,-9l-7,27l256,47L234,338c0,0,67,119,113,178c0,0,73,93,141,135c0,0,41,24,85,24c0,0,38,0,63,-25c0,0,25,-24,25,-62c0,0,0,-36,-18,-95L587,305c0,0,129,227,244,319c0,0,64,51,126,51c0,0,36,0,60,-26c0,0,23,-25,23,-78c0,0,0,-43,-15,-91L933,192c0,0,-31,-94,-31,-104c0,0,0,-10,6,-17c0,0,4,-5,11,-5c0,0,7,0,23,13c0,0,38,33,71,87l24,-16c0,0,-17,-30,-62,-81C975,69,929,18,898,0c0,0,-32,-17,-59,-17Z" 
id="f2_29"
transform="scale(0.001,-0.001)" />

<path d="M52,62L0,114L278,390L0,667l52,52L330,442L608,719l51,-51L382,390L659,114L608,62L330,338L52,62Z" 
id="f0_3a"
transform="scale(0.001,-0.001)" />

<path d="M118,598L78,819c0,0,-17,92,-17,124c0,0,0,48,19,70c0,0,20,21,53,21c0,0,34,0,56,-22c0,0,22,-22,22,-57c0,0,0,-28,-19,-136L152,598Z" 
id="f1_b"
transform="scale(0.001,-0.001)" />

<path d="M31,0V27H67c0,0,36,0,68,18c0,0,24,12,32,36c0,0,9,24,9,98V836c0,0,0,96,-19,119c0,0,-27,30,-90,30H31v27H811L822,790H792c0,0,-15,80,-34,110c0,0,-19,30,-57,46c0,0,-29,11,-105,11H319V557H541c0,0,87,0,116,26c0,0,39,35,44,121h27V352H701c0,0,-11,74,-21,95c0,0,-14,26,-45,41c0,0,-30,15,-94,15H319V168c0,0,0,-67,6,-81c0,0,6,-15,21,-24c0,0,15,-8,56,-8H574c0,0,86,0,124,12c0,0,39,12,75,47c0,0,46,46,95,139h30L811,0Z" 
id="f1_15"
transform="scale(0.001,-0.001)" />

<path d="M278,-290c0,0,-201,268,-201,534c0,0,0,154,67,305c0,0,79,176,234,312c0,0,119,105,286,173L650,993c0,0,-106,-76,-176,-176C474,817,367,661,299,439c0,0,-67,-223,-67,-418c0,0,0,-124,58,-268l-12,-43Z" 
id="f4_c"
transform="scale(0.001,-0.001)" />

<path d="M460,36c0,0,82,0,140,55c0,0,114,108,186,316c0,0,72,209,72,372c0,0,0,102,-38,148c0,0,-39,46,-96,46c0,0,-59,0,-100,-21c0,0,-41,-22,-86,-71c0,0,-45,-50,-91,-143c0,0,-47,-93,-87,-252c0,0,-41,-159,-41,-266c0,0,0,-91,40,-137c0,0,39,-47,101,-47ZM430,-22c0,0,-123,0,-198,48c0,0,-75,50,-113,137c0,0,-38,86,-38,168c0,0,0,166,95,334c0,0,95,168,255,269c0,0,161,100,318,100c0,0,92,0,174,-46c0,0,83,-46,129,-129c0,0,45,-82,45,-166c0,0,0,-189,-120,-379C977,314,857,125,707,40c0,0,-113,-62,-277,-62Z" 
id="f4_1f"
transform="scale(0.001,-0.001)" />

<path d="M491,538c0,0,110,0,181,74c0,0,71,75,71,195c0,0,0,72,-39,109c0,0,-39,37,-102,37c0,0,-16,0,-37,0L446,539c0,0,26,-1,45,-1ZM-48,0l9,27c0,0,72,0,106,29c0,0,34,28,62,127L313,832c0,0,16,55,16,86c0,0,0,30,-19,46c0,0,-20,15,-91,21l8,27H649c0,0,181,0,254,-63c0,0,74,-62,74,-161c0,0,0,-103,-85,-187c0,0,-54,-52,-190,-90L793,204c0,0,36,-124,63,-149c0,0,28,-25,91,-28V0H632L489,494l-25,-1c0,0,-8,0,-29,1L348,187c0,0,-19,-65,-19,-95c0,0,0,-29,23,-46c0,0,23,-17,96,-19L438,0Z" 
id="f4_1i"
transform="scale(0.001,-0.001)" />

<path d="M-171,-290l14,41c0,0,86,61,145,134c0,0,58,73,121,202c0,0,62,129,102,277c0,0,50,191,50,359c0,0,0,124,-58,269l11,42c0,0,201,-268,201,-534c0,0,0,-155,-67,-306c0,0,-78,-175,-234,-311c0,0,-118,-104,-285,-173Z" 
id="f4_d"
transform="scale(0.001,-0.001)" />

<path d="M435,0V856c0,0,-48,-47,-127,-93c0,0,-79,-46,-142,-69V824c0,0,113,52,197,128c0,0,85,75,120,146h86V0Z" 
id="f5_l"
transform="scale(0.001,-0.001)" />

<path d="M420,92c0,0,92,0,155,89c0,0,64,89,64,358c0,0,0,270,-63,359c0,0,-63,89,-158,89c0,0,-92,0,-147,-79c0,0,-70,-100,-70,-369c0,0,0,-269,63,-358c0,0,63,-89,156,-89Zm0,-110c0,0,-158,0,-248,112C172,94,64,231,64,539c0,0,0,194,39,313c0,0,40,118,119,182c0,0,79,64,198,64c0,0,88,0,155,-35c0,0,66,-36,109,-103c0,0,43,-66,68,-162c0,0,24,-96,24,-259c0,0,0,-192,-39,-311C737,228,697,110,619,46c0,0,-79,-64,-199,-64Z" 
id="f5_k"
transform="scale(0.001,-0.001)" />


</defs>
</svg>