<?xml version="1.0" encoding="UTF-8" standalone="no"?>
<!DOCTYPE svg PUBLIC "-//W3C//DTD SVG 1.1//EN"
"http://www.w3.org/Graphics/SVG/1.1/DTD/svg11.dtd">
<svg viewBox="0 0 909 1286" version="1.1" xmlns="http://www.w3.org/2000/svg" xmlns:xlink="http://www.w3.org/1999/xlink">
<defs>
<clipPath id="c0_16"><path d="M185.5,129.9V109.4H594.6v20.5Z" /></clipPath>
<clipPath id="c1_16"><path d="M330,157.6V145.7h7.9v11.9Z" /></clipPath>
<clipPath id="c2_16"><path d="M144.1,170.3V149.7H337.9v20.6Z" /></clipPath>
<clipPath id="c3_16"><path d="M140.6,222.5V201.6H397.5v20.9Z" /></clipPath>
<clipPath id="c4_16"><path d="M145.6,300.6V279.5h229v21.1Z" /></clipPath>
<clipPath id="c5_16"><path d="M330.2,358.5V331.8H336v26.7Z" /></clipPath>
<clipPath id="c6_16"><path d="M425.5,358.5V331.8h5.3v26.7Z" /></clipPath>
<clipPath id="c7_16"><path d="M492.4,358.5V331.8h5.9v26.7Z" /></clipPath>
<clipPath id="c8_16"><path d="M588.1,358.5V331.8h5.4v26.7Z" /></clipPath>
<clipPath id="c9_16"><path d="M121.7,356.2V335.1H654.1v21.1Z" /></clipPath>
<clipPath id="c10_16"><path d="M642.4,356.2V335.1h11.7v21.1Z" /></clipPath>
<clipPath id="c11_16"><path d="M195.1,355.8V333.1h459v22.7Z" /></clipPath>
<clipPath id="c12_16"><path d="M121.7,403.8V383.3H622.1v20.5Z" /></clipPath>
<clipPath id="c13_16"><path d="M440.4,417.6V397.4H617.7v20.2Z" /></clipPath>
<clipPath id="c14_16"><path d="M440,391.7V370.5H617.3v21.2Z" /></clipPath>
<clipPath id="c15_16"><path d="M180,403.3v-22H622.1v22Z" /></clipPath>
<clipPath id="c16_16"><path d="M472.8,484.9V472.6h12.9v12.3Z" /></clipPath>
<clipPath id="c17_16"><path d="M465.9,494.9v-21h19.8v21Z" /></clipPath>
<clipPath id="c18_16"><path d="M118.8,466.7V444H400.4v22.7Z" /></clipPath>
<clipPath id="c19_16"><path d="M451.6,494.6V471.8h34.1v22.8Z" /></clipPath>
<clipPath id="c20_16"><path d="M371.6,539.7V527.4h14.3v12.3Z" /></clipPath>
<clipPath id="c21_16"><path d="M377.9,583.7V571.4h8v12.3Z" /></clipPath>
<clipPath id="c22_16"><path d="M178.8,554V533.1H385.9V554Z" /></clipPath>
<clipPath id="c23_16"><path d="M178.8,579.8V558.9H385.9v20.9Z" /></clipPath>
<clipPath id="c24_16"><path d="M371.8,583.5v-13h14.1v13Z" /></clipPath>
<clipPath id="c25_16"><path d="M229,553.6V531.2H385.9v22.4Z" /></clipPath>
<clipPath id="c26_16"><path d="M265.8,571.2V548.8H385.9v22.4Z" /></clipPath>
<clipPath id="c27_16"><path d="M265.8,582.9V560.6H385.9v22.3Z" /></clipPath>
<clipPath id="c28_16"><path d="M145.2,633.5V612.6H782.5v20.9Z" /></clipPath>
<clipPath id="c29_16"><path d="M213.8,758.9V738H322.5v20.9Z" /></clipPath>
<clipPath id="c30_16"><path d="M159,833.7V813.2H393.4v20.5Z" /></clipPath>
<clipPath id="c31_16"><path d="M119.9,892V871.1H387.2V892Z" /></clipPath>
<clipPath id="c32_16"><path d="M166.3,892V871.1H387.2V892Z" /></clipPath>
<clipPath id="c33_16"><path d="M203.5,891.7V869.3H387.2v22.4Z" /></clipPath>
<clipPath id="c34_16"><path d="M198.7,932.7V912.2H260v20.5Z" /></clipPath>
<clipPath id="c35_16"><path d="M157.9,958V937.9H260V958Z" /></clipPath>
<clipPath id="c36_16"><path d="M156.9,932.2V910.9h89.9v21.3Z" /></clipPath>
<clipPath id="c37_16"><path d="M131.3,943.7v-22H260v22Z" /></clipPath>
<clipPath id="c38_16"><path d="M446,987.7V975.6h13.4v12.1Z" /></clipPath>
<clipPath id="c39_16"><path d="M119.9,997.6V976.7H459.4v20.9Z" /></clipPath>
<clipPath id="c40_16"><path d="M439.5,987.6V974.5h19.9v13.1Z" /></clipPath>
<clipPath id="c41_16"><path d="M340.4,1027.9v-12.1h12.5v12.1Z" /></clipPath>
<clipPath id="c42_16"><path d="M231.7,1037.8v-20.9H352.9v20.9Z" /></clipPath>
<clipPath id="c43_16"><path d="M186.1,1037.4v-22.3H352.9v22.3Z" /></clipPath>
<clipPath id="c44_16"><path d="M340.4,1067.9v-12.1h12.5v12.1Z" /></clipPath>
<clipPath id="c45_16"><path d="M198.7,1077.8v-20.9H352.9v20.9Z" /></clipPath>
<clipPath id="c46_16"><path d="M186.1,1077.4V1055H352.9v22.4Z" /></clipPath>
<clipPath id="c47_16"><path d="M143.2,1134.2v-20.5h189v20.5Z" /></clipPath>
<clipPath id="c48_16"><path d="M130.5,1134.2v-20.5H332.2v20.5Z" /></clipPath>
<style type="text/css"><![CDATA[
.g0_16{
fill: none;
stroke: #FFFFFF;
stroke-width: 0.77000004;
stroke-linecap: round;
stroke-linejoin: round;
}
.g1_16{
fill: none;
stroke: #FFFFFF;
stroke-width: 0.5133334;
stroke-linecap: round;
stroke-linejoin: round;
}
.g2_16{
fill: none;
stroke: #000000;
stroke-width: 0.9059723;
stroke-linecap: round;
stroke-linejoin: round;
}
.g3_16{
fill: none;
stroke: #000000;
stroke-width: 0.92583334;
stroke-linecap: round;
stroke-linejoin: round;
}
.g4_16{
fill: none;
stroke: #000000;
stroke-width: 0.90444446;
stroke-linecap: round;
stroke-linejoin: round;
}
.g5_16{
fill: none;
stroke: #000000;
stroke-width: 0.93958336;
stroke-linecap: round;
stroke-linejoin: round;
}
.g6_16{
fill: none;
stroke: #000000;
stroke-width: 0.44458336;
stroke-linecap: round;
stroke-linejoin: round;
}
.g7_16{
fill: none;
stroke: #000000;
stroke-width: 0.9075001;
stroke-linecap: round;
stroke-linejoin: round;
}
.g8_16{
fill: none;
stroke: #000000;
stroke-width: 0.9029167;
stroke-linecap: round;
stroke-linejoin: round;
}
]]></style>
</defs>
<path d="M512.4,487l6.2,9.8l5.4,8.4l4.1,8.8l2,8.4l1.1,7.7l1.3,6.7l-1.3,6.7l-2.1,6.7l-2,4.8l-3.1,5.7l-3.1,4.9l-3.3,3.8l-7.2,6.7l-6.5,4.6l-11.5,6.9l-10.3,6.7L470.6,600L459,606.6l-6.4,3.9l-6.2,4.9L441,620l-5.1,5.9l-4.1,6.7l-3.4,7.4l-1,9.7l-1,10.6l-6.2,-10.6l-5.4,-10.5l-3.1,-10.5l-1,-10.5v-4.9l1,-4.9l1.1,-4.6l2,-3.8l2.1,-4.9l3.3,-3.9l3.1,-3.6l4.1,-3.8l17,-11.6L461,562.7L475.7,554l13.6,-7.7l6.4,-4.6l5.2,-6.7l4.1,-6.7l3.3,-7.7l2.1,-8.7l2,-7.7V487m30.3,38.3l7.5,9.7l5.1,9.5l4.4,9.5l2,7.7l1.1,8.5l1,6.9l-1,7.5l-2.1,5.9l-2,5.6l-3.4,5.7l-3.1,4.8l-3,4.9l-7.5,6.7l-7.2,4.6L524,629.5l-8.5,5.9L505,642l-14.7,8.5l-8.2,5.9l-7.4,5.7l-6.2,6.6l-6.4,7.7l-4.1,6.7l-4.4,7.7l-3.1,7.7l-2,6.7l-3.1,-12.6l-2.1,-11.3L441,669.8V659.2l1.1,-8.7l2.3,-8.5l3,-4.8l2.1,-3.9l4.1,-3.8l4.4,-3.6l16.7,-12.6l16.7,-9.5L506,595.1l14.9,-8.5l6.2,-4.9l5.4,-6.6l4.1,-6.7l4.1,-7.7l2,-7.7l2.3,-8.5V535l-2.3,-9.7" class="g0_16" />
<path d="M454.6,618.9l4.4,3.9l3.1,3.8l2,3.9l2.1,4.9l2.3,5.6l1,5.7l1.1,5.9v7.7l5.1,-8.8l4.1,-7.7l3.3,-7.7l2.1,-7.4l1,-7.7v-6.7l-1,-7.7L483.1,600l-28.5,18.9" class="g1_16" />
<g fill="#000000" >
<use xlink:href="#f0_13" transform="matrix(12,0,0,12,119,125.2)" />
<use xlink:href="#f0_28" transform="matrix(12,0,0,12,130.9,125.2)" />
<use xlink:href="#f0_21" transform="matrix(12,0,0,12,135.7,125.2)" />
<use xlink:href="#f0_1x" transform="matrix(12,0,0,12,143.6,125.2)" />
<use xlink:href="#f0_2e" transform="matrix(12,0,0,12,151.3,125.2)" />
<use xlink:href="#f0_28" transform="matrix(12,0,0,12,156.9,125.2)" />
<use xlink:href="#f0_2l" transform="matrix(12,0,0,12,161.7,125.2)" />
<use xlink:href="#f0_g" transform="matrix(12,0,0,12,169,125.2)" />
<use xlink:href="#f1_c" transform="matrix(11.8,0,0,15.5,178.6,127)" />
<use xlink:href="#f1_d" transform="matrix(11.8,0,0,15.5,273.9,127)" />
<use xlink:href="#f0_m" transform="matrix(6.8,0,0,6.8,280.3,114.7)" />
<use xlink:href="#f0_m" transform="matrix(6.8,0,0,6.8,327.8,117.5)" />
<use xlink:href="#f0_m" transform="matrix(6.8,0,0,6.8,388.3,117.5)" />
</g>
<g clip-path="url(#c0_16)">
<g fill="#000000" >
<use xlink:href="#f0_2f" transform="matrix(11.8,0,0,11.8,185.5,125.5)" />
<use xlink:href="#f0_25" transform="matrix(11.8,0,0,11.8,192.7,125.5)" />
<use xlink:href="#f0_2a" transform="matrix(11.8,0,0,11.8,197.8,125.5)" />
<use xlink:href="#f0_2k" transform="matrix(11.8,0,0,11.8,210.1,125.5)" />
<use xlink:href="#f0_1z" transform="matrix(11.8,0,0,11.8,235.9,125.5)" />
<use xlink:href="#f0_2b" transform="matrix(11.8,0,0,11.8,244,125.5)" />
<use xlink:href="#f0_2f" transform="matrix(11.8,0,0,11.8,253.1,125.5)" />
<use xlink:href="#f0_2k" transform="matrix(11.8,0,0,11.8,262.8,125.5)" />
<use xlink:href="#f0_2f" transform="matrix(11.8,0,0,11.8,305,125.5)" />
<use xlink:href="#f0_25" transform="matrix(11.8,0,0,11.8,312.1,125.5)" />
<use xlink:href="#f0_2a" transform="matrix(11.8,0,0,11.8,317.3,125.5)" />
<use xlink:href="#f0_2k" transform="matrix(11.8,0,0,11.8,337,125.5)" />
<use xlink:href="#f0_1z" transform="matrix(11.8,0,0,11.8,363.1,125.5)" />
<use xlink:href="#f0_2b" transform="matrix(11.8,0,0,11.8,371.1,125.5)" />
<use xlink:href="#f0_2f" transform="matrix(11.8,0,0,11.8,380.3,125.5)" />
<use xlink:href="#f0_2k" transform="matrix(11.8,0,0,11.8,397.5,125.5)" />
<use xlink:href="#f0_m" transform="matrix(11.8,0,0,11.8,423.5,125.5)" />
<use xlink:href="#f0_2f" transform="matrix(11.8,0,0,11.8,434.2,125.5)" />
<use xlink:href="#f0_25" transform="matrix(11.8,0,0,11.8,441.3,125.5)" />
<use xlink:href="#f0_2a" transform="matrix(11.8,0,0,11.8,446.4,125.5)" />
<use xlink:href="#f0_2k" transform="matrix(11.8,0,0,11.8,458.7,125.5)" />
<use xlink:href="#f0_1z" transform="matrix(11.8,0,0,11.8,470.4,125.5)" />
<use xlink:href="#f0_2b" transform="matrix(11.8,0,0,11.8,478.5,125.5)" />
<use xlink:href="#f0_2f" transform="matrix(11.8,0,0,11.8,487.7,125.5)" />
<use xlink:href="#f0_2k" transform="matrix(11.8,0,0,11.8,497.4,125.5)" />
<use xlink:href="#f0_l" transform="matrix(11.8,0,0,11.8,523.6,125.5)" />
<use xlink:href="#f0_2f" transform="matrix(11.8,0,0,11.8,546.8,125.5)" />
<use xlink:href="#f0_25" transform="matrix(11.8,0,0,11.8,554,125.5)" />
<use xlink:href="#f0_2a" transform="matrix(11.8,0,0,11.8,559.1,125.5)" />
<use xlink:href="#f0_m" transform="matrix(11.8,0,0,11.8,571,125.5)" />
<use xlink:href="#f0_2k" transform="matrix(11.8,0,0,11.8,580.7,125.5)" />
</g>
</g>
<g fill="#000000" >
<use xlink:href="#f1_h" transform="matrix(11.8,0,0,11.8,223.1,125.5)" />
<use xlink:href="#f1_x" transform="matrix(11.8,0,0,11.8,291.3,125.5)" />
<use xlink:href="#f1_f" transform="matrix(11.8,0,0,11.8,350,125.5)" />
<use xlink:href="#f1_h" transform="matrix(11.8,0,0,11.8,410.4,125.5)" />
<use xlink:href="#f1_x" transform="matrix(11.8,0,0,11.8,511.4,125.5)" />
<use xlink:href="#f1_h" transform="matrix(11.8,0,0,11.8,534.4,125.5)" />
<use xlink:href="#f1_c" transform="matrix(11.8,0,0,15.6,227.9,167.1)" />
<use xlink:href="#f1_d" transform="matrix(11.8,0,0,15.6,323.4,167.1)" />
</g>
<g clip-path="url(#c1_16)">
<g fill="#000000" >
<use xlink:href="#f0_m" transform="matrix(6.9,0,0,6.9,330,155)" />
</g>
</g>
<g clip-path="url(#c2_16)">
<g fill="#000000" >
<use xlink:href="#f0_2f" transform="matrix(11.9,0,0,11.9,144.1,165.9)" />
<use xlink:href="#f0_25" transform="matrix(11.9,0,0,11.9,151.2,165.9)" />
<use xlink:href="#f0_2a" transform="matrix(11.9,0,0,11.9,156.5,165.9)" />
<use xlink:href="#f0_m" transform="matrix(11.9,0,0,11.9,168.5,165.9)" />
<use xlink:href="#f0_2k" transform="matrix(11.9,0,0,11.9,178.3,165.9)" />
<use xlink:href="#f0_l" transform="matrix(11.9,0,0,11.9,204.7,165.9)" />
<use xlink:href="#f0_2f" transform="matrix(11.9,0,0,11.9,235,165.9)" />
<use xlink:href="#f0_25" transform="matrix(11.9,0,0,11.9,242.1,165.9)" />
<use xlink:href="#f0_2a" transform="matrix(11.9,0,0,11.9,247.2,165.9)" />
<use xlink:href="#f0_2k" transform="matrix(11.9,0,0,11.9,259.5,165.9)" />
<use xlink:href="#f0_1z" transform="matrix(11.9,0,0,11.9,285.4,165.9)" />
<use xlink:href="#f0_2b" transform="matrix(11.9,0,0,11.9,293.4,165.9)" />
<use xlink:href="#f0_2f" transform="matrix(11.9,0,0,11.9,302.6,165.9)" />
<use xlink:href="#f0_2k" transform="matrix(11.9,0,0,11.9,312.3,165.9)" />
</g>
</g>
<g fill="#000000" >
<use xlink:href="#f1_4g" transform="matrix(11.9,0,0,11.9,121.2,165.9)" />
<use xlink:href="#f1_x" transform="matrix(11.9,0,0,11.9,192.3,165.9)" />
<use xlink:href="#f1_h" transform="matrix(11.9,0,0,11.9,215.4,165.9)" />
<use xlink:href="#f1_h" transform="matrix(11.9,0,0,11.9,272.6,165.9)" />
<use xlink:href="#f1_c" transform="matrix(11.8,0,0,15.7,256.3,237.4)" />
<use xlink:href="#f1_d" transform="matrix(11.8,0,0,15.7,351.8,237.4)" />
<use xlink:href="#f1_2n" transform="matrix(11.8,0,0,22.9,226.4,239.9)" />
<use xlink:href="#f1_2p" transform="matrix(11.8,0,0,22.9,364.3,239.9)" />
</g>
<path d="M183.3,213.6H373.2" class="g2_16" />
<g fill="#000000" >
<use xlink:href="#f0_j" transform="matrix(6.9,0,0,6.9,171.6,197.2)" />
<use xlink:href="#f0_o" transform="matrix(6.9,0,0,6.9,175.4,197.2)" />
<use xlink:href="#f0_m" transform="matrix(6.9,0,0,6.9,358.2,225.1)" />
<use xlink:href="#f0_k" transform="matrix(6.9,0,0,6.9,170.3,237.9)" />
<use xlink:href="#f0_2f" transform="matrix(12,0,0,12,234.3,206.7)" />
<use xlink:href="#f0_25" transform="matrix(12,0,0,12,241.4,206.7)" />
<use xlink:href="#f0_2a" transform="matrix(12,0,0,12,246.6,206.7)" />
<use xlink:href="#f0_2k" transform="matrix(12,0,0,12,259,206.7)" />
<use xlink:href="#f0_1z" transform="matrix(12,0,0,12,285.1,206.7)" />
<use xlink:href="#f0_2b" transform="matrix(12,0,0,12,293.1,206.7)" />
<use xlink:href="#f0_2f" transform="matrix(12,0,0,12,302.3,206.7)" />
<use xlink:href="#f0_2k" transform="matrix(12,0,0,12,312,206.7)" />
</g>
<g clip-path="url(#c3_16)">
<g fill="#000000" >
<use xlink:href="#f0_19" transform="matrix(12,0,0,12,140.6,218.1)" />
<use xlink:href="#f0_20" transform="matrix(12,0,0,12,375.8,218.1)" />
<use xlink:href="#f0_2k" transform="matrix(12,0,0,12,385,218.1)" />
</g>
</g>
<g fill="#000000" >
<use xlink:href="#f0_l" transform="matrix(12,0,0,12,182.4,236.1)" />
<use xlink:href="#f0_q" transform="matrix(12,0,0,12,191.6,236.1)" />
<use xlink:href="#f0_t" transform="matrix(12,0,0,12,216.5,236.1)" />
<use xlink:href="#f0_l" transform="matrix(12,0,0,12,233,236.1)" />
<use xlink:href="#f0_2f" transform="matrix(12,0,0,12,263.2,236.1)" />
<use xlink:href="#f0_25" transform="matrix(12,0,0,12,270.4,236.1)" />
<use xlink:href="#f0_2a" transform="matrix(12,0,0,12,275.5,236.1)" />
<use xlink:href="#f0_2k" transform="matrix(12,0,0,12,288,236.1)" />
<use xlink:href="#f0_1z" transform="matrix(12,0,0,12,313.8,236.1)" />
<use xlink:href="#f0_2b" transform="matrix(12,0,0,12,321.7,236.1)" />
<use xlink:href="#f0_2f" transform="matrix(12,0,0,12,331,236.1)" />
<use xlink:href="#f0_2k" transform="matrix(12,0,0,12,340.7,236.1)" />
<use xlink:href="#f1_2c" transform="matrix(6.9,0,0,6.9,165.6,197.2)" />
<use xlink:href="#f1_f" transform="matrix(12,0,0,12,271.9,206.7)" />
<use xlink:href="#f1_1s" transform="matrix(12,0,0,12,119,218.1)" />
<use xlink:href="#f1_x" transform="matrix(12,0,0,12,151.1,218.1)" />
<use xlink:href="#f1_f" transform="matrix(12,0,0,12,203.7,236.1)" />
<use xlink:href="#f1_h" transform="matrix(12,0,0,12,243.6,236.1)" />
<use xlink:href="#f1_h" transform="matrix(12,0,0,12,300.8,236.1)" />
<use xlink:href="#f1_50" transform="matrix(17.9,0,0,17.9,169.2,224.7)" />
<use xlink:href="#f1_c" transform="matrix(12.2,0,0,15.8,236.1,314.2)" />
<use xlink:href="#f1_d" transform="matrix(12.2,0,0,15.8,334.6,314.2)" />
</g>
<path d="M189.4,291.6H349.2" class="g3_16" />
<g fill="#000000" >
<use xlink:href="#f0_j" transform="matrix(7,0,0,7,177.5,275.1)" />
<use xlink:href="#f0_o" transform="matrix(7,0,0,7,181.3,275.1)" />
<use xlink:href="#f0_m" transform="matrix(7,0,0,7,341.4,301.7)" />
<use xlink:href="#f0_k" transform="matrix(7,0,0,7,176,316.2)" />
<use xlink:href="#f0_2f" transform="matrix(12.1,0,0,12.1,224,284.7)" />
<use xlink:href="#f0_25" transform="matrix(12.1,0,0,12.1,231.4,284.7)" />
<use xlink:href="#f0_2a" transform="matrix(12.1,0,0,12.1,236.7,284.7)" />
<use xlink:href="#f0_2k" transform="matrix(12.1,0,0,12.1,249.5,284.7)" />
<use xlink:href="#f0_1z" transform="matrix(12.1,0,0,12.1,276.4,284.7)" />
<use xlink:href="#f0_2b" transform="matrix(12.1,0,0,12.1,284.7,284.7)" />
<use xlink:href="#f0_2f" transform="matrix(12.1,0,0,12.1,294,284.7)" />
<use xlink:href="#f0_2k" transform="matrix(12.1,0,0,12.1,304.1,284.7)" />
</g>
<g clip-path="url(#c4_16)">
<g fill="#000000" >
<use xlink:href="#f0_19" transform="matrix(12.1,0,0,12.1,145.6,296.2)" />
<use xlink:href="#f0_20" transform="matrix(12.1,0,0,12.1,351.8,296.2)" />
<use xlink:href="#f0_2k" transform="matrix(12.1,0,0,12.1,361.3,296.2)" />
</g>
</g>
<g fill="#000000" >
<use xlink:href="#f0_m" transform="matrix(12.1,0,0,12.1,190.7,312.9)" />
<use xlink:href="#f0_p" transform="matrix(12.1,0,0,12.1,200,312.9)" />
<use xlink:href="#f0_t" transform="matrix(12.1,0,0,12.1,225.1,312.9)" />
<use xlink:href="#f0_2f" transform="matrix(12.1,0,0,12.1,243.4,312.9)" />
<use xlink:href="#f0_25" transform="matrix(12.1,0,0,12.1,250.8,312.9)" />
<use xlink:href="#f0_2a" transform="matrix(12.1,0,0,12.1,256.1,312.9)" />
<use xlink:href="#f0_2k" transform="matrix(12.1,0,0,12.1,268.7,312.9)" />
<use xlink:href="#f0_1z" transform="matrix(12.1,0,0,12.1,295.5,312.9)" />
<use xlink:href="#f0_2b" transform="matrix(12.1,0,0,12.1,303.7,312.9)" />
<use xlink:href="#f0_2f" transform="matrix(12.1,0,0,12.1,313,312.9)" />
<use xlink:href="#f0_2k" transform="matrix(12.1,0,0,12.1,323.1,312.9)" />
<use xlink:href="#f1_2c" transform="matrix(7,0,0,7,171.1,275.1)" />
<use xlink:href="#f1_f" transform="matrix(12.1,0,0,12.1,262.7,284.7)" />
<use xlink:href="#f1_4g" transform="matrix(12.1,0,0,12.1,121.2,296.2)" />
<use xlink:href="#f1_x" transform="matrix(12.1,0,0,12.1,156.2,296.2)" />
<use xlink:href="#f1_h" transform="matrix(12.1,0,0,12.1,212.3,312.9)" />
<use xlink:href="#f1_h" transform="matrix(12.1,0,0,12.1,282.1,312.9)" />
<use xlink:href="#f1_50" transform="matrix(18.1,0,0,18.1,174.9,303)" />
</g>
<g clip-path="url(#c5_16)">
<g fill="#000000" >
<use xlink:href="#f1_c" transform="matrix(11.8,0,0,15.8,330.2,353.2)" />
</g>
</g>
<g clip-path="url(#c6_16)">
<g fill="#000000" >
<use xlink:href="#f1_d" transform="matrix(11.8,0,0,15.8,425.5,353.2)" />
</g>
</g>
<g clip-path="url(#c7_16)">
<g fill="#000000" >
<use xlink:href="#f1_c" transform="matrix(11.8,0,0,15.8,492.4,353.2)" />
</g>
</g>
<g clip-path="url(#c8_16)">
<g fill="#000000" >
<use xlink:href="#f1_d" transform="matrix(11.8,0,0,15.8,588.1,353.2)" />
</g>
</g>
<g clip-path="url(#c9_16)">
<g fill="#000000" >
<use xlink:href="#f0_1c" transform="matrix(12.1,0,0,12.1,121.7,351.8)" />
<use xlink:href="#f0_21" transform="matrix(12.1,0,0,12.1,132.7,351.8)" />
<use xlink:href="#f0_2g" transform="matrix(12.1,0,0,12.1,140.6,351.8)" />
<use xlink:href="#f0_2f" transform="matrix(12.1,0,0,12.1,157.7,351.8)" />
<use xlink:href="#f0_25" transform="matrix(12.1,0,0,12.1,164.8,351.8)" />
<use xlink:href="#f0_2a" transform="matrix(12.1,0,0,12.1,170,351.8)" />
<use xlink:href="#f0_2k" transform="matrix(12.1,0,0,12.1,182.2,351.8)" />
<use xlink:href="#f0_1z" transform="matrix(12.1,0,0,12.1,208.1,351.8)" />
<use xlink:href="#f0_2b" transform="matrix(12.1,0,0,12.1,216.1,351.8)" />
<use xlink:href="#f0_2f" transform="matrix(12.1,0,0,12.1,225.3,351.8)" />
<use xlink:href="#f0_2k" transform="matrix(12.1,0,0,12.1,235,351.8)" />
<use xlink:href="#f0_2g" transform="matrix(12.1,0,0,12.1,263.6,351.8)" />
<use xlink:href="#f0_i" transform="matrix(12.1,0,0,12.1,268.8,351.8)" />
<use xlink:href="#f0_1k" transform="matrix(12.1,0,0,12.1,274.2,351.8)" />
<use xlink:href="#f0_24" transform="matrix(12.1,0,0,12.1,285.8,351.8)" />
<use xlink:href="#f0_21" transform="matrix(12.1,0,0,12.1,295,351.8)" />
<use xlink:href="#f0_2a" transform="matrix(12.1,0,0,12.1,302.9,351.8)" />
<use xlink:href="#f0_g" transform="matrix(12.1,0,0,12.1,312.7,351.8)" />
<use xlink:href="#f0_20" transform="matrix(12.1,0,0,12.1,319,351.8)" />
<use xlink:href="#f0_2f" transform="matrix(12.1,0,0,12.1,337.1,351.8)" />
<use xlink:href="#f0_25" transform="matrix(12.1,0,0,12.1,344.3,351.8)" />
<use xlink:href="#f0_2a" transform="matrix(12.1,0,0,12.1,349.6,351.8)" />
<use xlink:href="#f0_2k" transform="matrix(12.1,0,0,12.1,361.8,351.8)" />
<use xlink:href="#f0_1z" transform="matrix(12.1,0,0,12.1,387.7,351.8)" />
<use xlink:href="#f0_2b" transform="matrix(12.1,0,0,12.1,395.6,351.8)" />
<use xlink:href="#f0_2f" transform="matrix(12.1,0,0,12.1,404.8,351.8)" />
<use xlink:href="#f0_2k" transform="matrix(12.1,0,0,12.1,414.6,351.8)" />
<use xlink:href="#f0_20" transform="matrix(12.1,0,0,12.1,449.6,351.8)" />
<use xlink:href="#f0_2g" transform="matrix(12.1,0,0,12.1,458.8,351.8)" />
<use xlink:href="#f0_1z" transform="matrix(12.1,0,0,12.1,499.7,351.8)" />
<use xlink:href="#f0_2b" transform="matrix(12.1,0,0,12.1,507.8,351.8)" />
<use xlink:href="#f0_2f" transform="matrix(12.1,0,0,12.1,517,351.8)" />
<use xlink:href="#f0_2k" transform="matrix(12.1,0,0,12.1,526.7,351.8)" />
<use xlink:href="#f0_2f" transform="matrix(12.1,0,0,12.1,552.5,351.8)" />
<use xlink:href="#f0_25" transform="matrix(12.1,0,0,12.1,559.7,351.8)" />
<use xlink:href="#f0_2a" transform="matrix(12.1,0,0,12.1,564.8,351.8)" />
<use xlink:href="#f0_2k" transform="matrix(12.1,0,0,12.1,577.1,351.8)" />
<use xlink:href="#f0_20" transform="matrix(12.1,0,0,12.1,595.9,351.8)" />
<use xlink:href="#f0_2k" transform="matrix(12.1,0,0,12.1,605.1,351.8)" />
<use xlink:href="#f0_20" transform="matrix(12.1,0,0,12.1,633.1,351.8)" />
</g>
</g>
<g clip-path="url(#c10_16)">
<g fill="#000000" >
<use xlink:href="#f0_2g" transform="matrix(12.1,0,0,12.1,642.4,351.8)" />
<use xlink:href="#f0_i" transform="matrix(12.1,0,0,12.1,647.5,351.8)" />
</g>
</g>
<g clip-path="url(#c11_16)">
<g fill="#000000" >
<use xlink:href="#f1_h" transform="matrix(12.1,0,0,12.1,195.1,351.8)" />
<use xlink:href="#f1_x" transform="matrix(12.1,0,0,12.1,249,351.8)" />
<use xlink:href="#f1_h" transform="matrix(12.1,0,0,12.1,374.7,351.8)" />
<use xlink:href="#f1_x" transform="matrix(12.1,0,0,12.1,435.6,351.8)" />
<use xlink:href="#f1_4g" transform="matrix(12.1,0,0,12.1,469.5,351.8)" />
<use xlink:href="#f1_f" transform="matrix(12.1,0,0,12.1,539.5,351.8)" />
<use xlink:href="#f1_x" transform="matrix(12.1,0,0,12.1,619.1,351.8)" />
</g>
</g>
<path d="M438.8,394.8h11.8m73.4,0h11.8m43.5,0h11.8" class="g4_16" />
<g clip-path="url(#c12_16)">
<g fill="#000000" >
<use xlink:href="#f0_11" transform="matrix(11.9,0,0,11.9,121.7,399.4)" />
<use xlink:href="#f0_28" transform="matrix(11.9,0,0,11.9,134.8,399.4)" />
<use xlink:href="#f0_2f" transform="matrix(11.9,0,0,11.9,139.5,399.4)" />
<use xlink:href="#f0_2b" transform="matrix(11.9,0,0,11.9,146.7,399.4)" />
<use xlink:href="#f0_g" transform="matrix(11.9,0,0,11.9,155.8,399.4)" />
<use xlink:href="#f0_2k" transform="matrix(11.9,0,0,11.9,165.9,399.4)" />
<use xlink:href="#f0_k" transform="matrix(11.9,0,0,11.9,193.9,399.4)" />
<use xlink:href="#f0_2g" transform="matrix(11.9,0,0,11.9,228.4,399.4)" />
<use xlink:href="#f0_2f" transform="matrix(11.9,0,0,11.9,252.2,399.4)" />
<use xlink:href="#f0_25" transform="matrix(11.9,0,0,11.9,259.4,399.4)" />
<use xlink:href="#f0_2a" transform="matrix(11.9,0,0,11.9,264.5,399.4)" />
<use xlink:href="#f0_k" transform="matrix(11.9,0,0,11.9,276.2,399.4)" />
<use xlink:href="#f0_1z" transform="matrix(11.9,0,0,11.9,301.1,399.4)" />
<use xlink:href="#f0_2b" transform="matrix(11.9,0,0,11.9,309.2,399.4)" />
<use xlink:href="#f0_2f" transform="matrix(11.9,0,0,11.9,318.4,399.4)" />
<use xlink:href="#f0_k" transform="matrix(11.9,0,0,11.9,327.5,399.4)" />
<use xlink:href="#f0_l" transform="matrix(11.9,0,0,11.9,365.1,399.4)" />
<use xlink:href="#f0_1x" transform="matrix(11.9,0,0,11.9,377.7,399.4)" />
<use xlink:href="#f0_2a" transform="matrix(11.9,0,0,11.9,385.6,399.4)" />
<use xlink:href="#f0_20" transform="matrix(11.9,0,0,11.9,394.8,399.4)" />
<use xlink:href="#f0_2k" transform="matrix(11.9,0,0,11.9,410,399.4)" />
<use xlink:href="#f0_2g" transform="matrix(11.9,0,0,11.9,475.5,399.4)" />
<use xlink:href="#f0_2f" transform="matrix(11.9,0,0,11.9,499.3,399.4)" />
<use xlink:href="#f0_25" transform="matrix(11.9,0,0,11.9,506.4,399.4)" />
<use xlink:href="#f0_2a" transform="matrix(11.9,0,0,11.9,511.5,399.4)" />
<use xlink:href="#f0_1z" transform="matrix(11.9,0,0,11.9,552.2,399.4)" />
<use xlink:href="#f0_2b" transform="matrix(11.9,0,0,11.9,560.3,399.4)" />
<use xlink:href="#f0_2f" transform="matrix(11.9,0,0,11.9,569.5,399.4)" />
<use xlink:href="#f0_k" transform="matrix(11.9,0,0,11.9,609.8,399.4)" />
</g>
</g>
<g clip-path="url(#c13_16)">
<g fill="#000000" >
<use xlink:href="#f0_o" transform="matrix(11.9,0,0,11.9,440.4,413.5)" />
<use xlink:href="#f0_o" transform="matrix(11.9,0,0,11.9,525.6,413.5)" />
<use xlink:href="#f0_o" transform="matrix(11.9,0,0,11.9,580.9,413.5)" />
</g>
</g>
<g clip-path="url(#c14_16)">
<g fill="#000000" >
<use xlink:href="#f1_2c" transform="matrix(11.9,0,0,11.9,440,387.9)" />
<use xlink:href="#f1_2c" transform="matrix(11.9,0,0,11.9,525,387.9)" />
<use xlink:href="#f1_2c" transform="matrix(11.9,0,0,11.9,580.4,387.9)" />
</g>
</g>
<g clip-path="url(#c15_16)">
<g fill="#000000" >
<use xlink:href="#f1_x" transform="matrix(11.9,0,0,11.9,180,399.4)" />
<use xlink:href="#f1_4g" transform="matrix(11.9,0,0,11.9,207.7,399.4)" />
<use xlink:href="#f1_x" transform="matrix(11.9,0,0,11.9,238.5,399.4)" />
<use xlink:href="#f1_h" transform="matrix(11.9,0,0,11.9,288.4,399.4)" />
<use xlink:href="#f1_x" transform="matrix(11.9,0,0,11.9,340.8,399.4)" />
<use xlink:href="#f1_h" transform="matrix(11.9,0,0,11.9,355.1,399.4)" />
<use xlink:href="#f1_x" transform="matrix(11.9,0,0,11.9,424.2,399.4)" />
<use xlink:href="#f1_4g" transform="matrix(11.9,0,0,11.9,454.8,399.4)" />
<use xlink:href="#f1_x" transform="matrix(11.9,0,0,11.9,485.6,399.4)" />
<use xlink:href="#f1_h" transform="matrix(11.9,0,0,11.9,539.5,399.4)" />
<use xlink:href="#f1_x" transform="matrix(11.9,0,0,11.9,595.9,399.4)" />
</g>
</g>
<path d="M185.6,458.1H248m20.8,0h11" class="g5_16" />
<path d="M301.7,480.9h21" class="g6_16" />
<path d="M300.1,458.1h56m20.8,0h11" class="g5_16" />
<path d="M419.3,486H430" class="g6_16" />
<path d="M408.2,458.1h72.7" class="g5_16" />
<g fill="#000000" >
<use xlink:href="#f0_k" transform="matrix(7,0,0,7,174.5,441.6)" />
<use xlink:href="#f0_k" transform="matrix(7,0,0,7,288.9,441.6)" />
<use xlink:href="#f0_k" transform="matrix(7,0,0,7,396.9,441.6)" />
<use xlink:href="#f0_m" transform="matrix(7,0,0,7,440.9,468.2)" />
<use xlink:href="#f0_m" transform="matrix(7,0,0,7,239.8,468.7)" />
<use xlink:href="#f0_m" transform="matrix(7,0,0,7,348,477.3)" />
</g>
<g clip-path="url(#c16_16)">
<g fill="#000000" >
<use xlink:href="#f0_m" transform="matrix(7,0,0,7,472.8,482.3)" />
</g>
</g>
<g fill="#000000" >
<use xlink:href="#f0_l" transform="matrix(7,0,0,7,178,482.5)" />
<use xlink:href="#f0_l" transform="matrix(7,0,0,7,292.6,482.5)" />
<use xlink:href="#f0_l" transform="matrix(7,0,0,7,400.6,482.5)" />
<use xlink:href="#f0_20" transform="matrix(12.1,0,0,12.1,208.8,451.1)" />
<use xlink:href="#f0_2g" transform="matrix(12.1,0,0,12.1,218.7,451.1)" />
<use xlink:href="#f0_l" transform="matrix(12.1,0,0,12.1,269.5,451.1)" />
<use xlink:href="#f0_20" transform="matrix(12.1,0,0,12.1,320.1,451.1)" />
<use xlink:href="#f0_2g" transform="matrix(12.1,0,0,12.1,330,451.1)" />
<use xlink:href="#f0_l" transform="matrix(12.1,0,0,12.1,377.4,451.1)" />
<use xlink:href="#f0_20" transform="matrix(12.1,0,0,12.1,436.6,451.1)" />
<use xlink:href="#f0_2g" transform="matrix(12.1,0,0,12.1,446.4,451.1)" />
<use xlink:href="#f0_19" transform="matrix(12.1,0,0,12.1,145.4,462.7)" />
<use xlink:href="#f0_m" transform="matrix(12.1,0,0,12.1,302.9,474.2)" />
<use xlink:href="#f0_p" transform="matrix(12.1,0,0,12.1,312.6,474.2)" />
<use xlink:href="#f0_m" transform="matrix(12.1,0,0,12.1,186.8,477)" />
<use xlink:href="#f0_p" transform="matrix(12.1,0,0,12.1,196.7,477)" />
<use xlink:href="#f0_t" transform="matrix(12.1,0,0,12.1,222.6,477)" />
<use xlink:href="#f0_2g" transform="matrix(12.1,0,0,12.1,233,477)" />
<use xlink:href="#f0_t" transform="matrix(12.1,0,0,12.1,269.5,477)" />
<use xlink:href="#f0_t" transform="matrix(12.1,0,0,12.1,377.4,477)" />
<use xlink:href="#f0_p" transform="matrix(12.1,0,0,12.1,419.8,479.4)" />
<use xlink:href="#f0_2g" transform="matrix(12.1,0,0,12.1,341,485.6)" />
</g>
<g clip-path="url(#c17_16)">
<g fill="#000000" >
<use xlink:href="#f0_2g" transform="matrix(12.1,0,0,12.1,465.9,490.5)" />
</g>
</g>
<g fill="#000000" >
<use xlink:href="#f0_t" transform="matrix(12.1,0,0,12.1,307.3,499.7)" />
<use xlink:href="#f0_n" transform="matrix(12.1,0,0,12.1,420,504.7)" />
<use xlink:href="#f1_h" transform="matrix(7,0,0,7,172,482.5)" />
<use xlink:href="#f1_h" transform="matrix(7,0,0,7,286.4,482.5)" />
<use xlink:href="#f1_h" transform="matrix(7,0,0,7,394.5,482.5)" />
</g>
<g clip-path="url(#c18_16)">
<g fill="#000000" >
<use xlink:href="#f1_1s" transform="matrix(12.1,0,0,12.1,118.8,462.7)" />
<use xlink:href="#f1_x" transform="matrix(12.1,0,0,12.1,156.4,462.7)" />
<use xlink:href="#f1_x" transform="matrix(12.1,0,0,12.1,253.2,462.7)" />
<use xlink:href="#f1_x" transform="matrix(12.1,0,0,12.1,361.3,462.7)" />
</g>
</g>
<g fill="#000000" >
<use xlink:href="#f1_h" transform="matrix(12.1,0,0,12.1,209.2,477)" />
<use xlink:href="#f1_4o" transform="matrix(12.1,0,0,12.1,408.8,480.6)" />
<use xlink:href="#f1_54" transform="matrix(12.1,0,0,12.1,432.8,480.6)" />
<use xlink:href="#f1_h" transform="matrix(12.1,0,0,12.1,326.7,485.6)" />
</g>
<g clip-path="url(#c19_16)">
<g fill="#000000" >
<use xlink:href="#f1_h" transform="matrix(12.1,0,0,12.1,451.6,490.5)" />
</g>
</g>
<g fill="#000000" >
<use xlink:href="#f1_4p" transform="matrix(12.1,0,0,12.1,408.8,495.3)" />
<use xlink:href="#f1_55" transform="matrix(12.1,0,0,12.1,432.8,495.3)" />
<use xlink:href="#f1_4q" transform="matrix(12.1,0,0,12.1,408.8,506.9)" />
<use xlink:href="#f1_56" transform="matrix(12.1,0,0,12.1,432.8,506.9)" />
<use xlink:href="#f1_50" transform="matrix(18.1,0,0,18.1,173.3,469.3)" />
<use xlink:href="#f1_50" transform="matrix(18.1,0,0,18.1,287.8,469.3)" />
<use xlink:href="#f1_50" transform="matrix(18.1,0,0,18.1,395.8,469.3)" />
</g>
<path d="M178.2,556.5h10.7" class="g3_16" />
<g fill="#000000" >
<use xlink:href="#f1_c" transform="matrix(12.3,0,0,15.7,217.3,576.7)" />
<use xlink:href="#f1_d" transform="matrix(12.3,0,0,15.7,255.6,576.7)" />
</g>
<path d="M205,556.5h57.5m41.3,0h54.8M301.2,534v44.9M360.9,534v44.9" class="g3_16" />
<g clip-path="url(#c20_16)">
<g fill="#000000" >
<use xlink:href="#f0_k" transform="matrix(6.9,0,0,6.9,371.6,537.1)" />
</g>
</g>
<g clip-path="url(#c21_16)">
<g fill="#000000" >
<use xlink:href="#f0_l" transform="matrix(6.9,0,0,6.9,377.9,581.1)" />
</g>
</g>
<g clip-path="url(#c22_16)">
<g fill="#000000" >
<use xlink:href="#f0_l" transform="matrix(12,0,0,12,178.8,549.6)" />
<use xlink:href="#f0_p" transform="matrix(12,0,0,12,304.3,549.6)" />
<use xlink:href="#f0_j" transform="matrix(12,0,0,12,316.9,549.6)" />
<use xlink:href="#f0_n" transform="matrix(12,0,0,12,325.5,549.6)" />
<use xlink:href="#f0_2g" transform="matrix(12,0,0,12,351.7,549.6)" />
</g>
</g>
<g fill="#000000" >
<use xlink:href="#f0_19" transform="matrix(12,0,0,12,152.2,561.1)" />
<use xlink:href="#f0_28" transform="matrix(12,0,0,12,273.5,561.1)" />
<use xlink:href="#f0_2b" transform="matrix(12,0,0,12,278.6,561.1)" />
<use xlink:href="#f0_23" transform="matrix(12,0,0,12,288.1,561.1)" />
</g>
<g clip-path="url(#c23_16)">
<g fill="#000000" >
<use xlink:href="#f0_t" transform="matrix(12,0,0,12,178.8,575.4)" />
<use xlink:href="#f0_m" transform="matrix(12,0,0,12,206.2,575.4)" />
<use xlink:href="#f0_p" transform="matrix(12,0,0,12,224.5,575.4)" />
<use xlink:href="#f0_j" transform="matrix(12,0,0,12,237,575.4)" />
<use xlink:href="#f0_n" transform="matrix(12,0,0,12,245.6,575.4)" />
<use xlink:href="#f0_p" transform="matrix(12,0,0,12,304.4,575.4)" />
<use xlink:href="#f0_j" transform="matrix(12,0,0,12,316.9,575.4)" />
<use xlink:href="#f0_n" transform="matrix(12,0,0,12,325.5,575.4)" />
<use xlink:href="#f0_2g" transform="matrix(12,0,0,12,351.5,575.4)" />
</g>
</g>
<g clip-path="url(#c24_16)">
<g fill="#000000" >
<use xlink:href="#f1_h" transform="matrix(6.9,0,0,6.9,371.8,581.1)" />
</g>
</g>
<g clip-path="url(#c25_16)">
<g fill="#000000" >
<use xlink:href="#f1_l" transform="matrix(12,0,0,12,229,549.6)" />
<use xlink:href="#f1_4r" transform="matrix(12,0,0,12,265.8,549.6)" />
<use xlink:href="#f1_f" transform="matrix(12,0,0,12,337.5,549.6)" />
<use xlink:href="#f1_57" transform="matrix(12,0,0,12,363.3,549.6)" />
</g>
</g>
<g fill="#000000" >
<use xlink:href="#f1_4g" transform="matrix(12,0,0,12,121.2,561.1)" />
<use xlink:href="#f1_x" transform="matrix(12,0,0,12,163,561.1)" />
<use xlink:href="#f1_3a" transform="matrix(12,0,0,12,191.5,561.1)" />
</g>
<g clip-path="url(#c26_16)">
<g fill="#000000" >
<use xlink:href="#f1_4s" transform="matrix(12,0,0,12,265.8,567.2)" />
<use xlink:href="#f1_58" transform="matrix(12,0,0,12,363.3,567.2)" />
</g>
</g>
<g fill="#000000" >
<use xlink:href="#f1_h" transform="matrix(12,0,0,12,337.7,575.4)" />
</g>
<g clip-path="url(#c27_16)">
<g fill="#000000" >
<use xlink:href="#f1_4t" transform="matrix(12,0,0,12,265.8,578.9)" />
<use xlink:href="#f1_59" transform="matrix(12,0,0,12,363.3,578.9)" />
</g>
</g>
<path d="M170.2,624.6h19.5m93.9,0h29.8m36.9,0h19.5m93.9,0h10.9m36.9,0H531" class="g7_16" />
<g fill="#000000" >
<use xlink:href="#f1_1r" transform="matrix(11.8,0,0,16.3,533,630.6)" />
<use xlink:href="#f1_1t" transform="matrix(11.8,0,0,16.3,623.3,630.6)" />
</g>
<path d="M647.3,624.6h19.5m56.8,0h17.7" class="g7_16" />
<g fill="#000000" >
<use xlink:href="#f0_l" transform="matrix(12,0,0,12,175.5,617.6)" />
<use xlink:href="#f0_m" transform="matrix(12,0,0,12,284.7,617.6)" />
<use xlink:href="#f0_j" transform="matrix(12,0,0,12,296.4,617.6)" />
<use xlink:href="#f0_n" transform="matrix(12,0,0,12,304.3,617.6)" />
<use xlink:href="#f0_l" transform="matrix(12,0,0,12,355.4,617.6)" />
<use xlink:href="#f0_l" transform="matrix(12,0,0,12,464.5,617.6)" />
<use xlink:href="#f0_l" transform="matrix(12,0,0,12,516.5,617.6)" />
<use xlink:href="#f0_l" transform="matrix(12,0,0,12,652.4,617.6)" />
<use xlink:href="#f0_l" transform="matrix(12,0,0,12,727.7,617.6)" />
</g>
<g clip-path="url(#c28_16)">
<g fill="#000000" >
<use xlink:href="#f0_19" transform="matrix(12,0,0,12,145.2,629.1)" />
<use xlink:href="#f0_28" transform="matrix(12,0,0,12,200.7,629.1)" />
<use xlink:href="#f0_2b" transform="matrix(12,0,0,12,205.5,629.1)" />
<use xlink:href="#f0_23" transform="matrix(12,0,0,12,214.7,629.1)" />
<use xlink:href="#f0_l" transform="matrix(12,0,0,12,224.7,629.1)" />
<use xlink:href="#f0_28" transform="matrix(12,0,0,12,248.2,629.1)" />
<use xlink:href="#f0_2b" transform="matrix(12,0,0,12,253.1,629.1)" />
<use xlink:href="#f0_23" transform="matrix(12,0,0,12,262.3,629.1)" />
<use xlink:href="#f0_28" transform="matrix(12,0,0,12,380.7,629.1)" />
<use xlink:href="#f0_2b" transform="matrix(12,0,0,12,385.7,629.1)" />
<use xlink:href="#f0_23" transform="matrix(12,0,0,12,394.8,629.1)" />
<use xlink:href="#f0_l" transform="matrix(12,0,0,12,404.7,629.1)" />
<use xlink:href="#f0_28" transform="matrix(12,0,0,12,428.3,629.1)" />
<use xlink:href="#f0_2b" transform="matrix(12,0,0,12,433.1,629.1)" />
<use xlink:href="#f0_23" transform="matrix(12,0,0,12,442.3,629.1)" />
<use xlink:href="#f0_28" transform="matrix(12,0,0,12,539.6,629.1)" />
<use xlink:href="#f0_2b" transform="matrix(12,0,0,12,544.6,629.1)" />
<use xlink:href="#f0_23" transform="matrix(12,0,0,12,553.7,629.1)" />
<use xlink:href="#f0_l" transform="matrix(12,0,0,12,563.6,629.1)" />
<use xlink:href="#f0_28" transform="matrix(12,0,0,12,587.4,629.1)" />
<use xlink:href="#f0_2b" transform="matrix(12,0,0,12,592.4,629.1)" />
<use xlink:href="#f0_23" transform="matrix(12,0,0,12,601.5,629.1)" />
<use xlink:href="#f0_o" transform="matrix(12,0,0,12,613.4,629.1)" />
<use xlink:href="#f0_28" transform="matrix(12,0,0,12,669.5,629.1)" />
<use xlink:href="#f0_2b" transform="matrix(12,0,0,12,674.3,629.1)" />
<use xlink:href="#f0_23" transform="matrix(12,0,0,12,683.4,629.1)" />
<use xlink:href="#f0_o" transform="matrix(12,0,0,12,695.5,629.1)" />
<use xlink:href="#f0_28" transform="matrix(12,0,0,12,743.9,629.1)" />
<use xlink:href="#f0_2b" transform="matrix(12,0,0,12,748.9,629.1)" />
<use xlink:href="#f0_23" transform="matrix(12,0,0,12,758,629.1)" />
<use xlink:href="#f0_m" transform="matrix(12,0,0,12,770.1,629.1)" />
</g>
</g>
<g fill="#000000" >
<use xlink:href="#f0_n" transform="matrix(12,0,0,12,170.9,643.4)" />
<use xlink:href="#f0_k" transform="matrix(12,0,0,12,180,643.4)" />
<use xlink:href="#f0_s" transform="matrix(12,0,0,12,284.5,643.4)" />
<use xlink:href="#f0_j" transform="matrix(12,0,0,12,295.9,643.4)" />
<use xlink:href="#f0_n" transform="matrix(12,0,0,12,303.5,643.4)" />
<use xlink:href="#f0_n" transform="matrix(12,0,0,12,350.8,643.4)" />
<use xlink:href="#f0_k" transform="matrix(12,0,0,12,360,643.4)" />
<use xlink:href="#f0_o" transform="matrix(12,0,0,12,464.8,643.4)" />
<use xlink:href="#f0_n" transform="matrix(12,0,0,12,511.9,643.4)" />
<use xlink:href="#f0_k" transform="matrix(12,0,0,12,521.1,643.4)" />
<use xlink:href="#f0_n" transform="matrix(12,0,0,12,647.8,643.4)" />
<use xlink:href="#f0_k" transform="matrix(12,0,0,12,656.9,643.4)" />
<use xlink:href="#f0_l" transform="matrix(12,0,0,12,722.6,643.4)" />
<use xlink:href="#f0_p" transform="matrix(12,0,0,12,731.7,643.4)" />
<use xlink:href="#f1_4r" transform="matrix(12,0,0,12,193.1,617.6)" />
<use xlink:href="#f1_57" transform="matrix(12,0,0,12,323.9,617.6)" />
<use xlink:href="#f1_4r" transform="matrix(12,0,0,12,373.2,617.6)" />
<use xlink:href="#f1_57" transform="matrix(12,0,0,12,485,617.6)" />
<use xlink:href="#f1_4o" transform="matrix(12,0,0,12,273.7,619.1)" />
<use xlink:href="#f1_54" transform="matrix(12,0,0,12,316,619.1)" />
<use xlink:href="#f1_4o" transform="matrix(12,0,0,12,453.9,619.1)" />
<use xlink:href="#f1_54" transform="matrix(12,0,0,12,477.2,619.1)" />
<use xlink:href="#f1_4g" transform="matrix(12,0,0,12,121.2,629.1)" />
<use xlink:href="#f1_x" transform="matrix(12,0,0,12,155.6,629.1)" />
<use xlink:href="#f1_h" transform="matrix(12,0,0,12,235.4,629.1)" />
<use xlink:href="#f1_x" transform="matrix(12,0,0,12,335.6,629.1)" />
<use xlink:href="#f1_h" transform="matrix(12,0,0,12,415.4,629.1)" />
<use xlink:href="#f1_x" transform="matrix(12,0,0,12,496.7,629.1)" />
<use xlink:href="#f1_f" transform="matrix(12,0,0,12,574.3,629.1)" />
<use xlink:href="#f1_x" transform="matrix(12,0,0,12,632.6,629.1)" />
<use xlink:href="#f1_x" transform="matrix(12,0,0,12,708.8,629.1)" />
<use xlink:href="#f1_4p" transform="matrix(12,0,0,12,273.7,634.1)" />
<use xlink:href="#f1_55" transform="matrix(12,0,0,12,316,634.1)" />
<use xlink:href="#f1_4p" transform="matrix(12,0,0,12,453.9,634.1)" />
<use xlink:href="#f1_55" transform="matrix(12,0,0,12,477.2,634.1)" />
<use xlink:href="#f1_4s" transform="matrix(12,0,0,12,193.1,635.2)" />
<use xlink:href="#f1_58" transform="matrix(12,0,0,12,323.9,635.2)" />
<use xlink:href="#f1_4s" transform="matrix(12,0,0,12,373.2,635.2)" />
<use xlink:href="#f1_58" transform="matrix(12,0,0,12,485,635.2)" />
<use xlink:href="#f1_4q" transform="matrix(12,0,0,12,273.7,645.6)" />
<use xlink:href="#f1_56" transform="matrix(12,0,0,12,316,645.6)" />
<use xlink:href="#f1_4q" transform="matrix(12,0,0,12,453.9,645.6)" />
<use xlink:href="#f1_56" transform="matrix(12,0,0,12,477.2,645.6)" />
<use xlink:href="#f1_4t" transform="matrix(12,0,0,12,193.1,646.9)" />
<use xlink:href="#f1_59" transform="matrix(12,0,0,12,323.9,646.9)" />
<use xlink:href="#f1_4t" transform="matrix(12,0,0,12,373.2,646.9)" />
<use xlink:href="#f1_59" transform="matrix(12,0,0,12,485,646.9)" />
<use xlink:href="#f2_c" transform="matrix(12,0,0,12,439.1,689.1)" />
<use xlink:href="#f2_1f" transform="matrix(12,0,0,12,445.2,689.1)" />
<use xlink:href="#f2_1i" transform="matrix(12,0,0,12,459.4,689.1)" />
<use xlink:href="#f2_d" transform="matrix(12,0,0,12,472.7,689.1)" />
<use xlink:href="#f0_15" transform="matrix(12,0,0,12,121.9,759.1)" />
<use xlink:href="#f0_2i" transform="matrix(12,0,0,12,132.7,759.1)" />
<use xlink:href="#f0_1x" transform="matrix(12,0,0,12,141.4,759.1)" />
<use xlink:href="#f0_28" transform="matrix(12,0,0,12,149.1,759.1)" />
<use xlink:href="#f0_2h" transform="matrix(12,0,0,12,153.6,759.1)" />
<use xlink:href="#f0_1x" transform="matrix(12,0,0,12,162.4,759.1)" />
<use xlink:href="#f0_2g" transform="matrix(12,0,0,12,170,759.1)" />
<use xlink:href="#f0_21" transform="matrix(12,0,0,12,174.7,759.1)" />
<use xlink:href="#f0_u" transform="matrix(12,0,0,12,185.4,759.1)" />
<use xlink:href="#f1_c" transform="matrix(11.8,0,0,18.9,205.9,756.9)" />
<use xlink:href="#f1_d" transform="matrix(11.8,0,0,18.9,297.7,756.9)" />
<use xlink:href="#f0_n" transform="matrix(6.9,0,0,6.9,197.3,733.6)" />
<use xlink:href="#f0_m" transform="matrix(6.9,0,0,6.9,223.3,746.3)" />
<use xlink:href="#f0_l" transform="matrix(6.9,0,0,6.9,197.1,774.3)" />
<use xlink:href="#f0_n" transform="matrix(12,0,0,12,246.4,754.5)" />
<use xlink:href="#f3_2k" transform="matrix(6.9,0,0,6.9,289.7,746.3)" />
</g>
<g clip-path="url(#c29_16)">
<g fill="#000000" >
<use xlink:href="#f3_2k" transform="matrix(12,0,0,12,214.3,754.5)" />
<use xlink:href="#f3_2k" transform="matrix(12,0,0,12,256.1,754.5)" />
<use xlink:href="#f3_21" transform="matrix(12,0,0,12,280.6,754.5)" />
<use xlink:href="#f3_20" transform="matrix(12,0,0,12,302.4,754.5)" />
<use xlink:href="#f3_2k" transform="matrix(12,0,0,12,311.6,754.5)" />
</g>
</g>
<g fill="#000000" >
<use xlink:href="#f1_f" transform="matrix(12,0,0,12,233.6,754.5)" />
<use xlink:href="#f1_f" transform="matrix(12,0,0,12,267.5,754.5)" />
<use xlink:href="#f1_50" transform="matrix(18,0,0,18,196.2,761.1)" />
<use xlink:href="#f0_1j" transform="matrix(12,0,0,12,64.9,834.8)" />
<use xlink:href="#f0_2b" transform="matrix(12,0,0,12,74.1,834.8)" />
<use xlink:href="#f0_28" transform="matrix(12,0,0,12,82.1,834.8)" />
<use xlink:href="#f0_u" transform="matrix(12,0,0,12,86.2,834.8)" />
<use xlink:href="#f0_n" transform="matrix(6.9,0,0,6.9,150,808.4)" />
<use xlink:href="#f0_m" transform="matrix(6.9,0,0,6.9,175.3,821.1)" />
<use xlink:href="#f0_l" transform="matrix(6.9,0,0,6.9,149.8,849)" />
</g>
<g clip-path="url(#c30_16)">
<g fill="#000000" >
<use xlink:href="#f0_c" transform="matrix(11.9,0,0,11.9,159,829.3)" />
<use xlink:href="#f0_n" transform="matrix(11.9,0,0,11.9,197.2,829.3)" />
<use xlink:href="#f0_d" transform="matrix(11.9,0,0,11.9,246.6,829.3)" />
<use xlink:href="#f0_c" transform="matrix(11.9,0,0,11.9,308,829.3)" />
<use xlink:href="#f0_d" transform="matrix(11.9,0,0,11.9,323.9,829.3)" />
<use xlink:href="#f0_c" transform="matrix(11.9,0,0,11.9,353.6,829.3)" />
<use xlink:href="#f0_2f" transform="matrix(11.9,0,0,11.9,359.7,829.3)" />
<use xlink:href="#f0_1x" transform="matrix(11.9,0,0,11.9,366.8,829.3)" />
<use xlink:href="#f0_2l" transform="matrix(11.9,0,0,11.9,374.9,829.3)" />
<use xlink:href="#f0_d" transform="matrix(11.9,0,0,11.9,384.2,829.3)" />
</g>
</g>
<g fill="#000000" >
<use xlink:href="#f3_1y" transform="matrix(6.9,0,0,6.9,285.4,808.4)" />
<use xlink:href="#f3_2k" transform="matrix(6.9,0,0,6.9,239.6,821.1)" />
<use xlink:href="#f3_1x" transform="matrix(6.9,0,0,6.9,285.6,849)" />
<use xlink:href="#f3_19" transform="matrix(11.9,0,0,11.9,125.2,829.3)" />
<use xlink:href="#f3_2k" transform="matrix(11.9,0,0,11.9,166.3,829.3)" />
<use xlink:href="#f3_2k" transform="matrix(11.9,0,0,11.9,206.9,829.3)" />
<use xlink:href="#f3_21" transform="matrix(11.9,0,0,11.9,230.4,829.3)" />
<use xlink:href="#f3_20" transform="matrix(11.9,0,0,11.9,251.6,829.3)" />
<use xlink:href="#f3_2k" transform="matrix(11.9,0,0,11.9,260.8,829.3)" />
<use xlink:href="#f3_22" transform="matrix(11.9,0,0,11.9,298.4,829.3)" />
<use xlink:href="#f3_2k" transform="matrix(11.9,0,0,11.9,315.2,829.3)" />
<use xlink:href="#f3_20" transform="matrix(11.9,0,0,11.9,330.4,829.3)" />
<use xlink:href="#f3_2k" transform="matrix(11.9,0,0,11.9,339.6,829.3)" />
<use xlink:href="#f1_x" transform="matrix(11.9,0,0,11.9,135.8,829.3)" />
<use xlink:href="#f1_f" transform="matrix(11.9,0,0,11.9,185,829.3)" />
<use xlink:href="#f1_f" transform="matrix(11.9,0,0,11.9,217.8,829.3)" />
<use xlink:href="#f1_x" transform="matrix(11.9,0,0,11.9,271.7,829.3)" />
<use xlink:href="#f1_50" transform="matrix(17.9,0,0,17.9,148.7,835.8)" />
<use xlink:href="#f1_50" transform="matrix(17.9,0,0,17.9,284.5,835.8)" />
<use xlink:href="#f0_m" transform="matrix(6.9,0,0,6.9,226.1,879.6)" />
</g>
<g clip-path="url(#c31_16)">
<g fill="#000000" >
<use xlink:href="#f0_2j" transform="matrix(12,0,0,12,119.9,887.6)" />
<use xlink:href="#f0_24" transform="matrix(12,0,0,12,133.1,887.6)" />
<use xlink:href="#f0_21" transform="matrix(12,0,0,12,142.3,887.6)" />
<use xlink:href="#f0_2a" transform="matrix(12,0,0,12,150.2,887.6)" />
<use xlink:href="#f0_c" transform="matrix(12,0,0,12,178.9,887.6)" />
<use xlink:href="#f0_d" transform="matrix(12,0,0,12,194.8,887.6)" />
<use xlink:href="#f0_n" transform="matrix(12,0,0,12,247.8,887.6)" />
<use xlink:href="#f0_v" transform="matrix(12,0,0,12,298.8,887.6)" />
<use xlink:href="#f0_l" transform="matrix(12,0,0,12,335.4,887.6)" />
<use xlink:href="#f0_g" transform="matrix(12,0,0,12,342.7,887.6)" />
<use xlink:href="#f0_n" transform="matrix(12,0,0,12,376.3,887.6)" />
</g>
</g>
<g fill="#000000" >
<use xlink:href="#f3_2k" transform="matrix(6.9,0,0,6.9,290.4,879.6)" />
</g>
<g clip-path="url(#c32_16)">
<g fill="#000000" >
<use xlink:href="#f3_22" transform="matrix(12,0,0,12,169.4,887.6)" />
<use xlink:href="#f3_2k" transform="matrix(12,0,0,12,186.2,887.6)" />
<use xlink:href="#f3_2k" transform="matrix(12,0,0,12,216.8,887.6)" />
<use xlink:href="#f3_2k" transform="matrix(12,0,0,12,257.7,887.6)" />
<use xlink:href="#f3_21" transform="matrix(12,0,0,12,281.2,887.6)" />
<use xlink:href="#f3_1x" transform="matrix(12,0,0,12,312.7,887.6)" />
<use xlink:href="#f3_1y" transform="matrix(12,0,0,12,352.6,887.6)" />
</g>
</g>
<g clip-path="url(#c33_16)">
<g fill="#000000" >
<use xlink:href="#f1_x" transform="matrix(12,0,0,12,203.5,887.6)" />
<use xlink:href="#f1_f" transform="matrix(12,0,0,12,235.6,887.6)" />
<use xlink:href="#f1_f" transform="matrix(12,0,0,12,268.5,887.6)" />
<use xlink:href="#f1_x" transform="matrix(12,0,0,12,324.8,887.6)" />
<use xlink:href="#f1_x" transform="matrix(12,0,0,12,364.4,887.6)" />
</g>
</g>
<path d="M144.1,935.2h36.3m17.7,0h31.4m16,0h11.1" class="g8_16" />
<g clip-path="url(#c34_16)">
<g fill="#000000" >
<use xlink:href="#f0_n" transform="matrix(11.9,0,0,11.9,198.7,928.3)" />
<use xlink:href="#f0_l" transform="matrix(11.9,0,0,11.9,221.3,928.3)" />
<use xlink:href="#f0_m" transform="matrix(11.9,0,0,11.9,246.8,928.3)" />
</g>
</g>
<g fill="#000000" >
<use xlink:href="#f3_1y" transform="matrix(11.9,0,0,11.9,144.7,928.3)" />
<use xlink:href="#f3_1x" transform="matrix(11.9,0,0,11.9,170.1,928.3)" />
<use xlink:href="#f3_24" transform="matrix(11.9,0,0,11.9,119.5,939.9)" />
</g>
<g clip-path="url(#c35_16)">
<g fill="#000000" >
<use xlink:href="#f3_2a" transform="matrix(11.9,0,0,11.9,157.9,954)" />
<use xlink:href="#f3_2a" transform="matrix(11.9,0,0,11.9,209.4,954)" />
<use xlink:href="#f3_2a" transform="matrix(11.9,0,0,11.9,246.6,954)" />
</g>
</g>
<g clip-path="url(#c36_16)">
<g fill="#000000" >
<use xlink:href="#f1_h" transform="matrix(11.9,0,0,11.9,156.9,928.3)" />
<use xlink:href="#f1_h" transform="matrix(11.9,0,0,11.9,210.1,928.3)" />
</g>
</g>
<g clip-path="url(#c37_16)">
<g fill="#000000" >
<use xlink:href="#f1_x" transform="matrix(11.9,0,0,11.9,131.3,939.9)" />
<use xlink:href="#f1_x" transform="matrix(11.9,0,0,11.9,185.2,939.9)" />
<use xlink:href="#f1_x" transform="matrix(11.9,0,0,11.9,232.6,939.9)" />
</g>
</g>
<g fill="#000000" >
<use xlink:href="#f0_m" transform="matrix(6.9,0,0,6.9,330.7,985.2)" />
<use xlink:href="#f0_l" transform="matrix(6.9,0,0,6.9,434.3,985.2)" />
<use xlink:href="#f0_c" transform="matrix(12,0,0,12,132.6,993.2)" />
<use xlink:href="#f0_d" transform="matrix(12,0,0,12,180.6,993.2)" />
<use xlink:href="#f0_c" transform="matrix(12,0,0,12,214.8,993.2)" />
<use xlink:href="#f0_l" transform="matrix(12,0,0,12,219.4,993.2)" />
<use xlink:href="#f0_d" transform="matrix(12,0,0,12,258.8,993.2)" />
<use xlink:href="#f0_c" transform="matrix(12,0,0,12,279.9,993.2)" />
<use xlink:href="#f0_l" transform="matrix(12,0,0,12,284.5,993.2)" />
<use xlink:href="#f0_d" transform="matrix(12,0,0,12,324,993.2)" />
<use xlink:href="#f0_n" transform="matrix(12,0,0,12,352.6,993.2)" />
<use xlink:href="#f0_c" transform="matrix(12,0,0,12,361.2,993.2)" />
<use xlink:href="#f0_l" transform="matrix(12,0,0,12,365.8,993.2)" />
<use xlink:href="#f0_d" transform="matrix(12,0,0,12,405.4,993.2)" />
</g>
<g clip-path="url(#c38_16)">
<g fill="#000000" >
<use xlink:href="#f3_2e" transform="matrix(6.9,0,0,6.9,446.1,985.2)" />
<use xlink:href="#f3_24" transform="matrix(6.9,0,0,6.9,450.1,985.2)" />
</g>
</g>
<g clip-path="url(#c39_16)">
<g fill="#000000" >
<use xlink:href="#f3_22" transform="matrix(12,0,0,12,123,993.2)" />
<use xlink:href="#f3_1x" transform="matrix(12,0,0,12,139.1,993.2)" />
<use xlink:href="#f3_2e" transform="matrix(12,0,0,12,164,993.2)" />
<use xlink:href="#f3_24" transform="matrix(12,0,0,12,171.2,993.2)" />
<use xlink:href="#f3_22" transform="matrix(12,0,0,12,205.3,993.2)" />
<use xlink:href="#f3_2e" transform="matrix(12,0,0,12,242.3,993.2)" />
<use xlink:href="#f3_24" transform="matrix(12,0,0,12,249.4,993.2)" />
<use xlink:href="#f3_2e" transform="matrix(12,0,0,12,307.3,993.2)" />
<use xlink:href="#f3_24" transform="matrix(12,0,0,12,314.5,993.2)" />
<use xlink:href="#f3_2e" transform="matrix(12,0,0,12,388.7,993.2)" />
<use xlink:href="#f3_24" transform="matrix(12,0,0,12,396,993.2)" />
<use xlink:href="#f3_21" transform="matrix(12,0,0,12,426.6,993.2)" />
</g>
</g>
<g clip-path="url(#c40_16)">
<g fill="#000000" >
<use xlink:href="#f1_f" transform="matrix(6.9,0,0,6.9,439.5,985.2)" />
</g>
</g>
<g fill="#000000" >
<use xlink:href="#f1_f" transform="matrix(12,0,0,12,151.1,993.2)" />
<use xlink:href="#f1_x" transform="matrix(12,0,0,12,189.2,993.2)" />
<use xlink:href="#f1_f" transform="matrix(12,0,0,12,229.3,993.2)" />
<use xlink:href="#f1_x" transform="matrix(12,0,0,12,267.4,993.2)" />
<use xlink:href="#f1_f" transform="matrix(12,0,0,12,294.4,993.2)" />
<use xlink:href="#f1_f" transform="matrix(12,0,0,12,340.4,993.2)" />
<use xlink:href="#f1_f" transform="matrix(12,0,0,12,375.9,993.2)" />
<use xlink:href="#f1_f" transform="matrix(12,0,0,12,414,993.2)" />
<use xlink:href="#f0_m" transform="matrix(6.9,0,0,6.9,272.3,1025.3)" />
<use xlink:href="#f0_m" transform="matrix(6.9,0,0,6.9,288.2,1025.3)" />
<use xlink:href="#f0_o" transform="matrix(12,0,0,12,198.7,1033.4)" />
<use xlink:href="#f0_p" transform="matrix(12,0,0,12,222.5,1033.4)" />
</g>
<g clip-path="url(#c41_16)">
<g fill="#000000" >
<use xlink:href="#f3_2e" transform="matrix(6.9,0,0,6.9,340.5,1025.3)" />
<use xlink:href="#f3_24" transform="matrix(6.9,0,0,6.9,344.5,1025.3)" />
</g>
</g>
<g clip-path="url(#c42_16)">
<g fill="#000000" >
<use xlink:href="#f3_2e" transform="matrix(12,0,0,12,231.7,1033.4)" />
<use xlink:href="#f3_24" transform="matrix(12,0,0,12,238.9,1033.4)" />
<use xlink:href="#f3_2e" transform="matrix(12,0,0,12,263.4,1033.4)" />
<use xlink:href="#f3_24" transform="matrix(12,0,0,12,278.4,1033.4)" />
<use xlink:href="#f3_21" transform="matrix(12,0,0,12,310.5,1033.4)" />
<use xlink:href="#f3_21" transform="matrix(12,0,0,12,331.6,1033.4)" />
</g>
</g>
<g clip-path="url(#c43_16)">
<g fill="#000000" >
<use xlink:href="#f1_x" transform="matrix(12,0,0,12,186.1,1033.4)" />
<use xlink:href="#f1_f" transform="matrix(12,0,0,12,210.1,1033.4)" />
<use xlink:href="#f1_f" transform="matrix(12,0,0,12,250.6,1033.4)" />
<use xlink:href="#f1_f" transform="matrix(12,0,0,12,297.9,1033.4)" />
<use xlink:href="#f1_3a" transform="matrix(12,0,0,12,319.8,1033.4)" />
</g>
</g>
<g fill="#000000" >
<use xlink:href="#f0_m" transform="matrix(6.9,0,0,6.9,207.5,1065.3)" />
<use xlink:href="#f0_m" transform="matrix(6.9,0,0,6.9,223.5,1065.3)" />
<use xlink:href="#f0_p" transform="matrix(12,0,0,12,245.5,1073.4)" />
<use xlink:href="#f0_o" transform="matrix(12,0,0,12,286.5,1073.4)" />
</g>
<g clip-path="url(#c44_16)">
<g fill="#000000" >
<use xlink:href="#f3_2e" transform="matrix(6.9,0,0,6.9,340.5,1065.3)" />
<use xlink:href="#f3_24" transform="matrix(6.9,0,0,6.9,344.5,1065.3)" />
</g>
</g>
<g clip-path="url(#c45_16)">
<g fill="#000000" >
<use xlink:href="#f3_2e" transform="matrix(12,0,0,12,198.7,1073.4)" />
<use xlink:href="#f3_24" transform="matrix(12,0,0,12,213.6,1073.4)" />
<use xlink:href="#f3_2e" transform="matrix(12,0,0,12,254.6,1073.4)" />
<use xlink:href="#f3_24" transform="matrix(12,0,0,12,261.7,1073.4)" />
<use xlink:href="#f3_21" transform="matrix(12,0,0,12,310.5,1073.4)" />
<use xlink:href="#f3_21" transform="matrix(12,0,0,12,331.6,1073.4)" />
</g>
</g>
<g clip-path="url(#c46_16)">
<g fill="#000000" >
<use xlink:href="#f1_x" transform="matrix(12,0,0,12,186.1,1073.4)" />
<use xlink:href="#f1_f" transform="matrix(12,0,0,12,233.2,1073.4)" />
<use xlink:href="#f1_f" transform="matrix(12,0,0,12,273.5,1073.4)" />
<use xlink:href="#f1_f" transform="matrix(12,0,0,12,297.9,1073.4)" />
<use xlink:href="#f1_3a" transform="matrix(12,0,0,12,319.8,1073.4)" />
</g>
</g>
<g fill="#000000" >
<use xlink:href="#f0_l" transform="matrix(6.9,0,0,6.9,239.6,1147.1)" />
</g>
<g clip-path="url(#c47_16)">
<g fill="#000000" >
<use xlink:href="#f0_c" transform="matrix(11.9,0,0,11.9,143.2,1129.8)" />
<use xlink:href="#f0_d" transform="matrix(11.9,0,0,11.9,159.3,1129.8)" />
<use xlink:href="#f0_28" transform="matrix(11.9,0,0,11.9,198.9,1129.8)" />
<use xlink:href="#f0_25" transform="matrix(11.9,0,0,11.9,203.9,1129.8)" />
<use xlink:href="#f0_29" transform="matrix(11.9,0,0,11.9,209,1129.8)" />
<use xlink:href="#f0_c" transform="matrix(11.9,0,0,11.9,273.3,1129.8)" />
<use xlink:href="#f0_d" transform="matrix(11.9,0,0,11.9,322.6,1129.8)" />
</g>
</g>
<g fill="#000000" >
<use xlink:href="#f3_1y" transform="matrix(6.9,0,0,6.9,120.8,1108.9)" />
<use xlink:href="#f3_2a" transform="matrix(6.9,0,0,6.9,233.8,1111.3)" />
<use xlink:href="#f3_2a" transform="matrix(6.9,0,0,6.9,198.5,1140.3)" />
<use xlink:href="#f3_2e" transform="matrix(6.9,0,0,6.9,229,1147.1)" />
<use xlink:href="#f3_1x" transform="matrix(6.9,0,0,6.9,120.8,1149.4)" />
</g>
<g clip-path="url(#c48_16)">
<g fill="#000000" >
<use xlink:href="#f3_22" transform="matrix(11.9,0,0,11.9,133.7,1129.8)" />
<use xlink:href="#f3_2k" transform="matrix(11.9,0,0,11.9,150.7,1129.8)" />
<use xlink:href="#f3_20" transform="matrix(11.9,0,0,11.9,165.7,1129.8)" />
<use xlink:href="#f3_2k" transform="matrix(11.9,0,0,11.9,174.9,1129.8)" />
<use xlink:href="#f3_24" transform="matrix(11.9,0,0,11.9,248.7,1129.8)" />
<use xlink:href="#f3_22" transform="matrix(11.9,0,0,11.9,263.8,1129.8)" />
<use xlink:href="#f3_1x" transform="matrix(11.9,0,0,11.9,279.9,1129.8)" />
<use xlink:href="#f3_2e" transform="matrix(11.9,0,0,11.9,305.9,1129.8)" />
<use xlink:href="#f3_24" transform="matrix(11.9,0,0,11.9,313,1129.8)" />
</g>
</g>
<g fill="#000000" >
<use xlink:href="#f1_34" transform="matrix(6.9,0,0,6.9,205,1140.3)" />
<use xlink:href="#f1_2v" transform="matrix(6.9,0,0,6.9,216.3,1140.3)" />
<use xlink:href="#f1_x" transform="matrix(6.9,0,0,6.9,234.3,1147.1)" />
<use xlink:href="#f1_x" transform="matrix(11.9,0,0,11.9,185.9,1129.8)" />
<use xlink:href="#f1_f" transform="matrix(11.9,0,0,11.9,292.6,1129.8)" />
<use xlink:href="#f1_4n" transform="matrix(17.9,0,0,17.9,226.6,1133.9)" />
<use xlink:href="#f1_50" transform="matrix(17.9,0,0,17.9,119.9,1136.2)" />
<use xlink:href="#f4_l" transform="matrix(8,0,0,8,785.4,1264.3)" />
<use xlink:href="#f4_q" transform="matrix(8,0,0,8,792.2,1264.3)" />
</g>
<defs>
<path d="M548,-21c0,0,-251,0,-389,185C159,164,56,303,56,490c0,0,0,152,68,278c0,0,67,127,186,197c0,0,119,69,260,69c0,0,109,0,216,-53c0,0,31,-17,44,-17c0,0,20,0,35,14c0,0,20,21,28,56h26L943,690H919c0,0,-46,155,-131,224c0,0,-86,68,-206,68c0,0,-100,0,-181,-51c0,0,-81,-52,-128,-163c0,0,-46,-112,-46,-279c0,0,0,-137,44,-238c0,0,44,-101,132,-154c0,0,88,-54,201,-54c0,0,99,0,174,42c0,0,75,42,165,167l23,-14C966,238,890,103,789,40c0,0,-102,-61,-241,-61Z" 
id="f0_13"
transform="scale(0.001,-0.001)" />

<path d="M58,0V26c0,0,47,0,64,10c0,0,18,10,28,32c0,0,9,23,9,86V775c0,0,0,116,-5,142c0,0,-5,27,-17,37c0,0,-11,9,-29,9c0,0,-20,0,-49,-12L46,978l204,83h34V154c0,0,0,-64,9,-85c0,0,9,-21,29,-32c0,0,19,-11,72,-11V0Z" 
id="f0_28"
transform="scale(0.001,-0.001)" />

<path d="M479,469c0,0,-4,66,-16,93c0,0,-18,42,-55,65c0,0,-37,24,-78,24c0,0,-62,0,-111,-48c0,0,-48,-48,-57,-134ZM355,-20c0,0,-123,0,-211,95c0,0,-87,96,-87,258c0,0,0,175,90,273c0,0,89,98,225,98c0,0,115,0,189,-76c0,0,74,-75,74,-202H162c0,0,0,-152,74,-239c0,0,75,-86,175,-86c0,0,67,0,117,36c0,0,50,37,83,127l24,-15c0,0,-16,-102,-91,-186c0,0,-76,-83,-189,-83Z" 
id="f0_21"
transform="scale(0.001,-0.001)" />

<path d="M286,72c0,0,57,0,149,75V407c0,0,-113,-45,-145,-64c0,0,-59,-32,-85,-68c0,0,-25,-36,-25,-78c0,0,0,-54,32,-89c0,0,32,-36,74,-36ZM217,-13c0,0,-71,0,-116,48c0,0,-46,48,-46,127c0,0,0,50,22,87c0,0,31,50,106,95c0,0,76,45,252,109v26c0,0,0,102,-32,140c0,0,-32,38,-94,38c0,0,-47,0,-74,-25c0,0,-28,-25,-28,-58l1,-43c0,0,0,-34,-17,-53c0,0,-18,-18,-47,-18c0,0,-28,0,-45,19c0,0,-18,19,-18,53c0,0,0,64,66,117c0,0,65,54,184,54c0,0,91,0,149,-31c0,0,44,-23,65,-72c0,0,13,-32,13,-131V238c0,0,0,-98,4,-120c0,0,4,-22,12,-29c0,0,9,-8,20,-8c0,0,12,0,21,5c0,0,16,10,61,55V99C676,99,592,-12,516,-12c0,0,-37,0,-58,24c0,0,-22,26,-23,86C435,98,330,17,303,5c0,0,-40,-18,-86,-18Z" 
id="f0_1x"
transform="scale(0.001,-0.001)" />

<path d="M17,0V26c0,0,52,0,77,17c0,0,19,12,26,38c0,0,4,13,4,73V419c0,0,0,119,-5,142c0,0,-4,23,-17,33c0,0,-13,11,-33,11c0,0,-23,0,-52,-11l-7,26l207,83h31V549c0,0,86,154,176,154c0,0,41,0,68,-25c0,0,27,-25,27,-58c0,0,0,-29,-20,-49c0,0,-19,-20,-46,-20c0,0,-26,0,-58,25c0,0,-33,26,-48,26c0,0,-14,0,-29,-15c0,0,-34,-30,-70,-101V159c0,0,0,-56,15,-85c0,0,9,-20,34,-34c0,0,24,-14,71,-14V0Z" 
id="f0_2e"
transform="scale(0.001,-0.001)" />

<path d="M145,-328c0,0,-44,0,-73,25c0,0,-28,25,-28,58c0,0,0,31,21,50c0,0,20,19,56,19c0,0,25,0,67,-16c0,0,30,-11,38,-11c0,0,22,0,49,23c0,0,26,23,53,89L376,28L131,542c0,0,-11,24,-36,58c0,0,-19,27,-30,36c0,0,-18,12,-56,21v26H328V657H312c0,0,-33,0,-50,-15c0,0,-17,-14,-17,-36c0,0,0,-30,25,-81L437,179L589,557c0,0,12,31,12,62c0,0,0,13,-5,20c0,0,-6,8,-19,13c0,0,-12,5,-44,5v26H754V657c0,0,-27,-3,-42,-12c0,0,-15,-9,-33,-34c0,0,-7,-10,-25,-58L376,-128c0,0,-40,-99,-105,-150c0,0,-66,-50,-126,-50Z" 
id="f0_2l"
transform="scale(0.001,-0.001)" />

<path d="M82,-253v33c0,0,77,25,119,78c0,0,42,54,42,114c0,0,0,14,-7,23c0,0,-5,6,-11,6c0,0,-8,0,-35,-14c0,0,-14,-7,-28,-7c0,0,-37,0,-58,21C104,1,82,23,82,61c0,0,0,36,28,62c0,0,28,27,68,27c0,0,49,0,88,-43c0,0,38,-43,38,-113c0,0,0,-77,-53,-143c0,0,-53,-66,-169,-104Z" 
id="f0_g"
transform="scale(0.001,-0.001)" />

<path d="M412,-328c0,0,-195,96,-303,284C109,-44,0,142,0,365c0,0,0,232,114,422c0,0,114,191,298,273v-31c0,0,-92,-51,-151,-139c0,0,-59,-88,-88,-223c0,0,-29,-136,-29,-282c0,0,0,-167,27,-301c0,0,26,-133,82,-221c0,0,55,-89,159,-159v-32Z" 
id="f1_c"
transform="scale(0.001,-0.001)" />

<path d="M34,-328v32c0,0,92,50,151,138c0,0,59,88,88,222c0,0,29,135,29,283c0,0,0,165,-27,300c0,0,-26,134,-82,222c0,0,-56,89,-159,160v31c0,0,194,-96,303,-284c0,0,108,-187,108,-410c0,0,0,-232,-114,-422c0,0,-114,-191,-297,-272Z" 
id="f1_d"
transform="scale(0.001,-0.001)" />

<path d="M33,0V27c0,0,264,241,371,393c0,0,108,152,108,278c0,0,0,96,-59,158c0,0,-59,62,-141,62c0,0,-75,0,-134,-43c0,0,-59,-44,-88,-128H63c0,0,18,138,95,212c0,0,77,74,193,74c0,0,123,0,205,-80c0,0,83,-79,83,-186c0,0,0,-77,-36,-154c0,0,-55,-121,-179,-256C424,357,238,154,191,112H455c0,0,81,0,114,6c0,0,32,6,58,25c0,0,27,18,46,52h27L630,0Z" 
id="f0_m"
transform="scale(0.001,-0.001)" />

<path d="M312,-20c0,0,-62,0,-143,22c0,0,-25,8,-40,8c0,0,-18,0,-27,-19H77V234h25c0,0,21,-105,80,-158c0,0,59,-53,132,-53c0,0,51,0,84,31c0,0,32,30,32,72c0,0,0,52,-36,87c0,0,-36,35,-144,88c0,0,-109,54,-142,97c0,0,-34,43,-34,107c0,0,0,85,58,141c0,0,58,57,150,57c0,0,40,0,97,-17c0,0,38,-11,51,-11c0,0,12,0,19,5c0,0,7,5,15,23h25V470H464c0,0,-28,110,-72,149c0,0,-45,40,-113,40c0,0,-53,0,-85,-28c0,0,-32,-27,-32,-61c0,0,0,-41,24,-71c0,0,23,-31,94,-65L389,381c0,0,152,-74,152,-194c0,0,0,-94,-71,-151c0,0,-70,-56,-158,-56Z" 
id="f0_2f"
transform="scale(0.001,-0.001)" />

<path d="M55,0V26c0,0,50,0,67,10c0,0,17,10,27,32c0,0,10,23,10,86V418c0,0,0,111,-6,144c0,0,-6,24,-17,33c0,0,-11,10,-30,10c0,0,-21,0,-51,-11L45,620l206,83h33V154c0,0,0,-64,9,-85c0,0,9,-22,27,-32c0,0,19,-11,67,-11V0ZM222,909c0,0,-32,0,-54,23c0,0,-22,22,-22,53c0,0,0,32,22,54c0,0,22,22,54,22c0,0,31,0,53,-22c0,0,22,-22,22,-54c0,0,0,-31,-22,-53c0,0,-22,-23,-53,-23Z" 
id="f0_25"
transform="scale(0.001,-0.001)" />

<path d="M21,0V26H35c0,0,53,0,71,27c0,0,18,27,18,101V408c0,0,0,123,-5,150c0,0,-6,27,-17,37c0,0,-12,10,-31,10c0,0,-21,0,-50,-11L10,620l206,83h32V558c0,0,120,145,229,145c0,0,56,0,96,-28c0,0,40,-28,64,-92c0,0,16,-45,16,-137V154c0,0,0,-65,11,-88c0,0,8,-19,26,-29c0,0,18,-11,68,-11V0H419V26h14c0,0,47,0,66,15c0,0,20,15,27,43c0,0,3,11,3,70V434c0,0,0,93,-24,135c0,0,-24,42,-81,42c0,0,-88,0,-176,-97V154c0,0,0,-69,9,-86c0,0,10,-21,28,-31c0,0,19,-11,75,-11V0Z" 
id="f0_2a"
transform="scale(0.001,-0.001)" />

<path d="M25,0V26c0,0,27,4,47,19c0,0,29,22,96,111L311,346L182,535c0,0,-55,81,-86,102c0,0,-30,20,-75,20v26H341V657c0,0,-30,0,-42,-10c0,0,-13,-11,-13,-28c0,0,0,-19,27,-56c0,0,8,-12,25,-37l48,-78l56,77c0,0,55,74,55,94c0,0,0,16,0,27c0,0,0,11,0,11v26H674V657c0,0,-37,-2,-64,-20c0,0,-37,-26,-100,-111L416,402L587,156c0,0,63,-91,89,-109c0,0,27,-18,70,-21V0H423V26c0,0,34,0,53,15c0,0,14,11,14,28c0,0,0,17,-48,87L341,302L232,157c0,0,-50,-69,-50,-82c0,0,0,-18,17,-32c0,0,17,-15,50,-17V0Z" 
id="f0_2k"
transform="scale(0.001,-0.001)" />

<path d="M342,-20c0,0,-116,0,-203,97c0,0,-86,98,-86,264c0,0,0,161,96,261c0,0,95,101,230,101c0,0,100,0,165,-53c0,0,65,-54,65,-111c0,0,0,-29,-18,-46c0,0,-18,-18,-51,-18c0,0,-44,0,-66,29c0,0,-13,15,-17,59c0,0,-4,45,-30,68c0,0,-26,22,-73,22c0,0,-74,0,-120,-55c0,0,-60,-73,-60,-193c0,0,0,-122,60,-216c0,0,60,-93,162,-93c0,0,73,0,131,49c0,0,41,35,80,126l22,-10C629,261,601,125,521,52c0,0,-81,-72,-179,-72Z" 
id="f0_1z"
transform="scale(0.001,-0.001)" />

<path d="M406,32c0,0,72,0,119,60c0,0,47,59,47,205c0,0,0,181,-78,286c0,0,-53,71,-135,71c0,0,-40,0,-79,-23c0,0,-40,-24,-65,-83c0,0,-24,-58,-24,-151c0,0,0,-149,59,-257c0,0,59,-108,156,-108ZM374,-20c0,0,-154,0,-245,122c0,0,-77,104,-77,233c0,0,0,94,46,187c0,0,47,92,123,137c0,0,76,44,161,44c0,0,155,0,249,-118c0,0,80,-100,80,-231c0,0,0,-91,-44,-185C667,169,623,75,546,27c0,0,-77,-47,-172,-47Z" 
id="f0_2b"
transform="scale(0.001,-0.001)" />

<path d="M197,0V27c0,0,71,2,92,13c0,0,21,10,29,29c0,0,9,18,9,109V725c0,0,0,110,-8,141c0,0,-5,24,-19,35c0,0,-14,11,-33,11c0,0,-28,0,-77,-23l-11,23l246,121h25V178c0,0,0,-85,7,-106c0,0,7,-21,29,-32c0,0,23,-11,91,-13V0Z" 
id="f0_l"
transform="scale(0.001,-0.001)" />

<path d="M0,356v74H784V356Z" 
id="f1_h"
transform="scale(0.001,-0.001)" />

<path d="M0,214v74H784V214ZM0,494v72H784V494Z" 
id="f1_x"
transform="scale(0.001,-0.001)" />

<path d="M355,0V355H0v72H355V784h72V427H782V355H427V0Z" 
id="f1_f"
transform="scale(0.001,-0.001)" />

<path d="M945,-20c0,0,47,75,125,153H57v74H1147l108,91c0,0,23,19,95,72c0,0,-134,103,-203,166H57v72H1070c0,0,-78,78,-125,154h85c0,0,88,-107,217,-217c0,0,130,-110,206,-154V349c0,0,-101,-58,-219,-162c0,0,-118,-103,-204,-207Z" 
id="f1_4g"
transform="scale(0.001,-0.001)" />

<path d="M417,-328c0,0,-125,17,-203,101c0,0,-78,83,-78,189c0,0,0,49,17,120c0,0,17,72,17,108c0,0,0,55,-42,100c0,0,-42,45,-128,61v29c0,0,80,15,125,59c0,0,44,45,44,98c0,0,0,39,-17,110c0,0,-18,71,-18,122c0,0,0,105,79,191c0,0,79,85,203,100v-28c0,0,-85,-15,-129,-65c0,0,-45,-49,-45,-114c0,0,0,-45,15,-117c0,0,15,-72,15,-120c0,0,0,-74,-53,-142c0,0,-53,-68,-158,-106c0,0,107,-44,160,-111c0,0,52,-67,52,-141c0,0,0,-45,-15,-117c0,0,-15,-73,-15,-117c0,0,0,-64,43,-113c0,0,42,-49,131,-71v-26Z" 
id="f1_2n"
transform="scale(0.001,-0.001)" />

<path d="M160,-328v29c0,0,85,15,129,64c0,0,44,48,44,114c0,0,0,45,-14,117c0,0,-15,71,-15,120c0,0,0,73,53,142c0,0,53,68,158,106c0,0,-108,43,-160,110c0,0,-52,67,-52,141c0,0,0,45,15,118c0,0,14,73,14,117c0,0,0,64,-42,113c0,0,-42,49,-131,71v26c0,0,125,-17,203,-101c0,0,78,-84,78,-188c0,0,0,-50,-17,-122c0,0,-17,-72,-17,-109c0,0,0,-54,42,-99c0,0,41,-45,128,-61V351c0,0,-81,-14,-125,-59c0,0,-44,-45,-44,-97c0,0,0,-39,17,-111c0,0,18,-71,18,-121c0,0,0,-105,-79,-190c0,0,-79,-86,-203,-101Z" 
id="f1_2p"
transform="scale(0.001,-0.001)" />

<path d="M2,-20L369,1061h59L62,-20Z" 
id="f0_j"
transform="scale(0.001,-0.001)" />

<path d="M452,373V875L97,373ZM452,0V267H23v95l470,671h82V373H711V267H575V0Z" 
id="f0_o"
transform="scale(0.001,-0.001)" />

<path d="M379,29c0,0,41,0,84,37c0,0,43,36,65,121c0,0,34,128,34,362c0,0,0,173,-35,288c0,0,-27,86,-69,122c0,0,-31,25,-74,25c0,0,-51,0,-90,-46c0,0,-54,-62,-73,-195c0,0,-20,-132,-20,-261c0,0,0,-209,52,-341c0,0,42,-112,126,-112Zm-2,-46c0,0,-145,0,-241,170c0,0,-81,144,-81,347c0,0,0,173,52,298c0,0,52,125,139,186c0,0,67,49,139,49c0,0,116,0,208,-119c0,0,116,-147,116,-398c0,0,0,-176,-51,-299C658,217,608,94,529,38c0,0,-79,-55,-152,-55Z" 
id="f0_k"
transform="scale(0.001,-0.001)" />

<path d="M38,0V27H74c0,0,63,0,91,37c0,0,18,24,18,115V833c0,0,0,77,-10,102c0,0,-7,18,-30,32c0,0,-33,18,-69,18H38v27H470V985H434c0,0,-62,0,-90,-37c0,0,-18,-24,-18,-115V179c0,0,0,-77,9,-102c0,0,8,-18,31,-32c0,0,32,-18,68,-18h36V0Z" 
id="f0_19"
transform="scale(0.001,-0.001)" />

<path d="M399,62c0,0,68,0,131,68V481c0,0,-5,51,-27,93c0,0,-22,42,-59,63c0,0,-37,21,-72,21c0,0,-65,0,-117,-59c0,0,-67,-77,-67,-226c0,0,0,-151,65,-231c0,0,66,-80,146,-80ZM330,-20c0,0,-112,0,-196,93c0,0,-83,94,-83,240c0,0,0,147,92,269c0,0,93,122,238,122c0,0,90,0,149,-58V773c0,0,0,117,-6,144c0,0,-5,27,-17,37c0,0,-12,9,-30,9c0,0,-20,0,-52,-12l-9,27l204,83h33V270c0,0,0,-120,6,-146c0,0,5,-27,18,-37c0,0,12,-11,28,-11c0,0,21,0,54,13l9,-26L564,-20H530V78C530,78,480,25,432,2c0,0,-47,-22,-102,-22Z" 
id="f0_20"
transform="scale(0.001,-0.001)" />

<path d="M405,24c0,0,65,0,116,62c0,0,51,61,51,174c0,0,0,128,-50,221c0,0,-51,93,-144,93c0,0,-29,0,-61,-12c0,0,-33,-12,-96,-51c0,0,-14,-101,-14,-163c0,0,0,-72,27,-155c0,0,26,-84,79,-134c0,0,38,-35,92,-35ZM384,-17c0,0,-104,0,-177,68C207,51,66,185,66,397c0,0,0,136,54,258c0,0,54,122,156,217c0,0,101,95,193,128c0,0,93,33,172,33h44v-28c0,0,-99,-10,-161,-39c0,0,-62,-29,-123,-90c0,0,-61,-60,-101,-135c0,0,-39,-74,-66,-176c0,0,107,73,215,73c0,0,104,0,180,-83c0,0,76,-84,76,-215c0,0,0,-126,-77,-231c0,0,-92,-126,-244,-126Z" 
id="f0_q"
transform="scale(0.001,-0.001)" />

<path d="M379,437c0,0,34,0,81,16c0,0,47,17,83,47c0,0,14,97,14,155c0,0,0,72,-25,156c0,0,-25,83,-70,128c0,0,-45,45,-103,45c0,0,-66,0,-116,-60c0,0,-50,-59,-50,-177c0,0,0,-157,66,-246c0,0,49,-64,120,-64ZM80,-20V7c0,0,97,1,181,45c0,0,83,44,161,153c0,0,78,109,109,240c0,0,-117,-75,-212,-75c0,0,-107,0,-183,82c0,0,-76,82,-76,219c0,0,0,132,76,236c0,0,92,126,240,126c0,0,124,0,213,-103c0,0,109,-128,109,-315c0,0,0,-169,-82,-314C616,301,533,155,385,59c0,0,-120,-79,-262,-79Z" 
id="f0_t"
transform="scale(0.001,-0.001)" />

<path d="M140,-21c0,0,-26,0,-44,17C96,-4,79,13,79,40c0,0,0,19,6,33c0,0,8,20,34,55c0,0,46,60,64,126c0,0,32,114,41,321H190c0,0,-55,0,-81,-18c0,0,-44,-26,-80,-89H0c0,0,42,129,98,178c0,0,43,37,120,37H743V575H562c0,0,-27,-171,-27,-327c0,0,0,-77,27,-110c0,0,27,-33,67,-33c0,0,33,0,56,22c0,0,24,22,31,65h27C743,192,730,74,686,26c0,0,-44,-47,-98,-47c0,0,-58,0,-97,51c0,0,-39,53,-39,198c0,0,0,91,28,347H286c0,0,-23,-390,-56,-494c0,0,-33,-102,-90,-102Z" 
id="f1_2c"
transform="scale(0.001,-0.001)" />

<path d="M83,0C83,0,48,0,24,24C24,24,0,49,0,83c0,0,0,34,24,58c0,0,24,24,59,24c0,0,34,0,58,-24c0,0,24,-24,24,-58c0,0,0,-34,-24,-59C141,24,117,0,83,0ZM695,0c0,0,-34,0,-58,24c0,0,-25,25,-25,59c0,0,0,34,25,58c0,0,24,24,58,24c0,0,34,0,58,-24c0,0,24,-24,24,-58c0,0,0,-34,-24,-59C753,24,729,0,695,0ZM388,594c0,0,-34,0,-59,23c0,0,-24,24,-24,59c0,0,0,34,24,58c0,0,25,25,59,25c0,0,34,0,58,-25c0,0,24,-24,24,-58c0,0,0,-35,-24,-59c0,0,-24,-23,-58,-23Z" 
id="f1_1s"
transform="scale(0.001,-0.001)" />

<path d="M88,-163c0,0,-39,0,-63,25c0,0,-25,26,-25,65c0,0,0,34,19,54c0,0,19,19,48,19c0,0,30,0,51,-23c0,0,22,-24,37,-24c0,0,12,0,21,11c0,0,8,10,8,35c0,0,0,30,-7,88c0,0,-27,235,-27,620c0,0,13,411,17,446c0,0,17,139,60,188c0,0,43,48,98,48c0,0,37,0,65,-25c0,0,28,-25,28,-54c0,0,0,-35,-19,-57c0,0,-20,-21,-49,-21c0,0,-26,0,-57,27c0,0,-17,15,-30,15c0,0,-12,0,-21,-11c0,0,-8,-11,-8,-37c0,0,0,-31,6,-108c0,0,28,-306,28,-496c0,0,0,-50,-12,-439c0,0,-6,-219,-67,-296c0,0,-41,-50,-101,-50Z" 
id="f1_50"
transform="scale(0.001,-0.001)" />

<path d="M247,-17c0,0,-91,0,-132,30c0,0,-42,31,-42,68c0,0,0,21,17,37c0,0,18,16,44,17c0,0,19,0,34,-6c0,0,14,-7,49,-31c0,0,56,-39,113,-39c0,0,88,0,154,66c0,0,66,66,66,161c0,0,0,92,-59,171c0,0,-59,80,-163,123c0,0,-81,34,-221,39l194,393H663L605,885H301L234,750c0,0,198,-29,313,-147c0,0,100,-102,100,-239c0,0,0,-80,-33,-148c0,0,-32,-68,-81,-116c0,0,-50,-47,-110,-77c0,0,-86,-40,-176,-40Z" 
id="f0_p"
transform="scale(0.001,-0.001)" />

<path d="M31,0V27H69c0,0,64,0,91,42c0,0,16,24,16,110V833c0,0,0,95,-21,119c0,0,-29,33,-86,33H31v27H488V985c0,0,-1,0,-2,0c-12,0,-81,-1,-111,-15c0,0,-32,-16,-44,-40c0,0,-12,-24,-12,-115V180c0,0,0,-62,12,-85c0,0,9,-16,27,-23c0,0,19,-7,117,-7h74c0,0,116,0,163,17c0,0,48,17,86,61c0,0,39,43,78,138l25,-6L814,0Z" 
id="f0_1c"
transform="scale(0.001,-0.001)" />

<path d="M255,-10c0,0,-35,0,-68,18c0,0,-32,19,-48,55c0,0,-16,35,-16,109V632H15v24c0,0,41,16,84,56c0,0,43,39,77,92c0,0,17,29,48,104h23V683H407V632H247V188c0,0,0,-66,19,-90c0,0,19,-23,49,-23c0,0,24,0,47,16c0,0,23,15,36,45h29c0,0,-26,-73,-74,-110c0,0,-47,-36,-98,-36Z" 
id="f0_2g"
transform="scale(0.001,-0.001)" />

<path d="M191,-20c0,0,-34,0,-58,24c0,0,-24,24,-24,58c0,0,0,35,24,59c0,0,24,24,58,24c0,0,35,0,59,-24c0,0,24,-25,24,-59c0,0,0,-34,-24,-58c0,0,-25,-24,-59,-24Z" 
id="f0_i"
transform="scale(0.001,-0.001)" />

<path d="M253,0V27h36c0,0,64,0,91,39c0,0,16,24,16,109V948H274c0,0,-71,0,-100,-10c0,0,-39,-14,-67,-54c0,0,-27,-41,-33,-109H46l12,237H883L894,775H865c0,0,-8,62,-22,89c0,0,-23,43,-61,64c0,0,-39,20,-101,20H539V175c0,0,0,-93,20,-116c0,0,28,-32,87,-32h36V0Z" 
id="f0_1k"
transform="scale(0.001,-0.001)" />

<path d="M20,0V26c0,0,45,0,71,15c0,0,15,7,24,28c0,0,9,21,9,85V773c0,0,0,117,-5,144c0,0,-6,27,-17,37c0,0,-12,9,-31,9c0,0,-16,0,-51,-12L10,978l204,83h34V561c0,0,83,91,131,116c0,0,49,26,97,26c0,0,58,0,100,-32c0,0,42,-32,62,-101c0,0,14,-47,14,-174V154c0,0,0,-65,11,-89c0,0,7,-18,25,-28c0,0,18,-11,66,-11V0H418V26h15c0,0,48,0,67,15c0,0,18,15,26,43c0,0,2,12,2,70V396c0,0,0,112,-12,147c0,0,-11,35,-36,53c0,0,-26,17,-61,17c0,0,-37,0,-76,-19c0,0,-40,-20,-95,-79V154c0,0,0,-70,8,-87c0,0,8,-17,29,-29c0,0,22,-12,74,-12V0Z" 
id="f0_24"
transform="scale(0.001,-0.001)" />

<path d="M678,393L506,802L330,393ZM11,0V27c0,0,63,12,82,30c0,0,38,35,84,145l356,832h27L912,193c0,0,43,-101,77,-132c0,0,35,-30,97,-34V0H687V27c0,0,60,3,82,21c0,0,21,17,21,41c0,0,0,33,-30,104L700,338H307L239,179c0,0,-26,-59,-26,-88c0,0,0,-23,22,-41c0,0,22,-17,95,-23V0Z" 
id="f0_11"
transform="scale(0.001,-0.001)" />

<path d="M238,-17c0,0,-103,0,-139,25C99,8,62,33,62,62c0,0,0,22,17,38c0,0,18,16,42,16c0,0,19,0,38,-6c0,0,13,-3,58,-27c0,0,45,-23,62,-28c0,0,27,-8,59,-8c0,0,76,0,132,59c0,0,56,59,56,140c0,0,0,59,-26,115c0,0,-19,41,-42,63c0,0,-32,30,-88,54c0,0,-56,25,-114,25H232v22c0,0,59,8,118,42c0,0,59,35,86,85c0,0,27,49,27,108c0,0,0,76,-48,124c0,0,-48,47,-120,47c0,0,-116,0,-193,-124L77,819c0,0,44,102,110,158c0,0,66,56,164,56c0,0,122,0,187,-80c0,0,49,-58,49,-126c0,0,0,-110,-139,-228c0,0,93,-36,141,-104c0,0,48,-68,48,-160c0,0,0,-131,-84,-227C553,108,444,-17,238,-17Z" 
id="f0_n"
transform="scale(0.001,-0.001)" />

<path d="M62,-123V268c0,0,0,230,56,452c0,0,47,190,134,334c0,0,87,144,204,242c0,0,85,73,194,119l18,-16c0,0,-211,-145,-335,-339c0,0,-98,-156,-149,-374c0,0,-50,-218,-50,-403V-123Z" 
id="f1_4o"
transform="scale(0.001,-0.001)" />

<path d="M617,-123V283c0,0,0,236,-63,459c0,0,-63,223,-188,392c0,0,-108,146,-282,265l17,16c0,0,180,-76,320,-248c0,0,139,-172,204,-417c0,0,64,-245,64,-482V-123Z" 
id="f1_54"
transform="scale(0.001,-0.001)" />

<path d="M62,-123V1415h72V-123Z" 
id="f1_4p"
transform="scale(0.001,-0.001)" />

<path d="M617,-123V1415h72V-123Z" 
id="f1_55"
transform="scale(0.001,-0.001)" />

<path d="M650,-123c0,0,-180,75,-319,246c0,0,-140,172,-205,418c0,0,-64,245,-64,481v393h72V1007c0,0,0,-236,63,-459c0,0,63,-223,189,-391c0,0,108,-145,282,-265l-18,-15Z" 
id="f1_4q"
transform="scale(0.001,-0.001)" />

<path d="M101,-123l-17,15c0,0,210,144,334,339c0,0,99,156,149,373c0,0,50,218,50,403v408h72V1022c0,0,0,-230,-56,-451c0,0,-48,-191,-134,-335C499,236,412,92,295,-5c0,0,-84,-73,-194,-118Z" 
id="f1_56"
transform="scale(0.001,-0.001)" />

<path d="M411,-239c0,0,134,0,198,48c0,0,64,47,64,100c0,0,0,39,-38,55c0,0,-39,16,-154,19c0,0,-167,5,-258,17c0,0,-35,-37,-53,-70c0,0,-17,-32,-17,-60c0,0,0,-36,43,-62c0,0,74,-47,215,-47ZM380,257c0,0,56,0,93,43c0,0,36,42,36,133c0,0,0,118,-51,185c0,0,-38,49,-98,49c0,0,-55,0,-92,-44c0,0,-37,-44,-37,-135c0,0,0,-117,50,-182c0,0,39,-49,99,-49ZM345,-328c0,0,-144,0,-243,64c0,0,-56,38,-56,78c0,0,0,18,8,36c0,0,13,27,52,76c0,0,5,7,76,80c0,0,-39,23,-55,41c0,0,-16,19,-16,42c0,0,0,26,22,61c0,0,21,35,98,100c0,0,-63,30,-97,85c0,0,-33,55,-33,121c0,0,0,101,76,174c0,0,77,73,196,73c0,0,98,0,170,-48H688c0,0,32,0,37,-2c0,0,6,-2,8,-6c0,0,4,-7,4,-24c0,0,0,-20,-4,-27c0,0,-2,-4,-7,-6c0,0,-6,-2,-38,-2H599c0,0,41,-54,41,-137c0,0,0,-96,-73,-163c0,0,-73,-68,-196,-68c0,0,-51,0,-104,15c0,0,-33,-28,-44,-49c0,0,-12,-22,-12,-37c0,0,0,-12,13,-24c0,0,12,-12,48,-17c0,0,21,-4,104,-6c0,0,154,-4,199,-11c0,0,70,-10,111,-51c0,0,42,-41,42,-102c0,0,0,-84,-79,-158c0,0,-117,-108,-304,-108Z" 
id="f0_23"
transform="scale(0.001,-0.001)" />

<path d="M18,0V27c0,0,70,2,92,13c0,0,23,11,32,34c0,0,6,16,6,105V725c0,0,0,110,-8,142c0,0,-5,23,-19,34c0,0,-14,11,-34,11c0,0,-27,0,-76,-23L0,912l246,121h25V178c0,0,0,-85,7,-106c0,0,7,-21,29,-32c0,0,23,-11,91,-13V0Z" 
id="f1_l"
transform="scale(0.001,-0.001)" />

<path d="M0,-123V1415H525v-72H72V-123Z" 
id="f1_4r"
transform="scale(0.001,-0.001)" />

<path d="M478,-123V1343H26v72H550V-123Z" 
id="f1_57"
transform="scale(0.001,-0.001)" />

<path d="M52,62L0,114L278,390L0,667l52,52L330,442L608,719l51,-51L382,390L659,114L608,62L330,338L52,62Z" 
id="f1_3a"
transform="scale(0.001,-0.001)" />

<path d="M0,-123V1415H72V-123Z" 
id="f1_4s"
transform="scale(0.001,-0.001)" />

<path d="M0,-123V1415H72V-123Z" 
id="f1_58"
transform="scale(0.001,-0.001)" />

<path d="M0,-123V1415H72V-51H525v-72Z" 
id="f1_4t"
transform="scale(0.001,-0.001)" />

<path d="M26,-123v72H478V1415h72V-123Z" 
id="f1_59"
transform="scale(0.001,-0.001)" />

<path d="M0,-302V1034H328V970H119V-238H328v-64Z" 
id="f1_1r"
transform="scale(0.001,-0.001)" />

<path d="M56,-302v64H265V970H56v64H384V-302Z" 
id="f1_1t"
transform="scale(0.001,-0.001)" />

<path d="M394,23c0,0,80,0,129,45c0,0,48,45,48,110c0,0,0,54,-28,97c0,0,-53,79,-214,206c0,0,-62,-52,-92,-114c0,0,-30,-61,-30,-133c0,0,0,-96,53,-154c0,0,52,-57,134,-57Zm17,566c0,0,90,81,114,128c0,0,24,46,24,105c0,0,0,79,-44,123c0,0,-44,45,-121,45c0,0,-76,0,-124,-45c0,0,-48,-44,-48,-103c0,0,0,-38,20,-77c0,0,20,-39,56,-74L411,589ZM382,-17c0,0,-144,0,-225,90c0,0,-64,72,-64,158c0,0,0,67,45,133c0,0,45,66,156,146c0,0,-121,98,-156,158c0,0,-34,59,-34,124c0,0,0,98,76,169c0,0,76,72,202,72c0,0,123,0,198,-67c0,0,74,-66,74,-151c0,0,0,-57,-40,-116c0,0,-40,-59,-168,-139c0,0,132,-101,174,-159c0,0,57,-76,57,-161c0,0,0,-106,-82,-182c0,0,-81,-75,-213,-75Z" 
id="f0_s"
transform="scale(0.001,-0.001)" />

<path d="M491,-305c0,0,-180,60,-305,247C186,-58,61,127,61,368c0,0,0,239,124,423c0,0,125,184,306,243v-34c0,0,-78,-50,-115,-99c0,0,-50,-67,-79,-172c0,0,-36,-131,-36,-365c0,0,0,-221,33,-343c0,0,32,-122,88,-197c0,0,39,-52,109,-92v-37Z" 
id="f2_c"
transform="scale(0.001,-0.001)" />

<path d="M597,33c0,0,77,0,129,38c0,0,65,47,102,152c0,0,36,105,36,273c0,0,0,201,-37,300c0,0,-37,100,-95,141c0,0,-58,41,-133,41c0,0,-139,0,-211,-142c0,0,-59,-116,-59,-334c0,0,0,-259,91,-382c0,0,63,-87,177,-87Zm3,-54c0,0,-273,0,-423,183C177,162,60,309,60,509c0,0,0,225,153,375c0,0,144,142,358,142c6,0,12,0,19,0c0,0,3,0,8,0c42,0,250,-7,385,-141c0,0,151,-150,151,-375c0,0,0,-193,-113,-339c0,0,-149,-192,-421,-192Z" 
id="f2_1f"
transform="scale(0.001,-0.001)" />

<path d="M448,514c0,0,104,0,155,19c0,0,52,19,81,69c0,0,30,50,30,129c0,0,0,116,-54,171c0,0,-54,55,-174,55H406V514ZM28,0V27c0,0,70,0,95,13c0,0,25,14,35,35c0,0,10,21,10,103V834c0,0,0,82,-10,104c0,0,-10,21,-35,34c0,0,-25,13,-95,13v27H498c0,0,184,0,269,-25c0,0,85,-26,138,-94c0,0,54,-68,54,-160c0,0,0,-112,-80,-185c0,0,-52,-46,-145,-69L977,135c0,0,48,-66,68,-82c0,0,31,-23,72,-26V0H798L472,462H406V178c0,0,0,-82,10,-104c0,0,10,-21,35,-34c0,0,25,-13,95,-13V0Z" 
id="f2_1i"
transform="scale(0.001,-0.001)" />

<path d="M19,-305v34c0,0,77,52,114,100c0,0,50,67,79,171c0,0,36,131,36,365c0,0,0,221,-33,343c0,0,-32,122,-88,198c0,0,-39,52,-108,91v37c0,0,179,-60,304,-246c0,0,125,-186,125,-428c0,0,0,-238,-125,-421c0,0,-125,-184,-304,-244Z" 
id="f2_d"
transform="scale(0.001,-0.001)" />

<path d="M31,0V27H67c0,0,36,0,68,18c0,0,24,12,32,36c0,0,9,24,9,98V836c0,0,0,96,-19,119c0,0,-27,30,-90,30H31v27H811L822,790H792c0,0,-15,80,-34,110c0,0,-19,30,-57,46c0,0,-29,11,-105,11H319V557H541c0,0,87,0,116,26c0,0,39,35,44,121h27V352H701c0,0,-11,74,-21,95c0,0,-14,26,-45,41c0,0,-30,15,-94,15H319V168c0,0,0,-67,6,-81c0,0,6,-15,21,-24c0,0,15,-8,56,-8H574c0,0,86,0,124,12c0,0,39,12,75,47c0,0,46,46,95,139h30L811,0Z" 
id="f0_15"
transform="scale(0.001,-0.001)" />

<path d="M376,-20L133,556c0,0,-17,41,-31,58c0,0,-15,18,-39,30c0,0,-12,7,-50,13v26H335V657H314c0,0,-29,0,-44,-14c0,0,-16,-14,-15,-38c0,0,-1,-26,15,-62L429,165L588,557c0,0,17,42,17,64c0,0,0,10,-6,17c0,0,-8,11,-21,15c0,0,-13,4,-52,4v26H750V657c0,0,-39,-3,-54,-16c0,0,-26,-23,-47,-76L409,-20Z" 
id="f0_2i"
transform="scale(0.001,-0.001)" />

<path d="M292,-20c0,0,-57,0,-100,33c0,0,-42,33,-58,85c0,0,-17,52,-17,148V551c0,0,0,49,-10,68c0,0,-11,18,-31,29c0,0,-19,9,-68,9c-2,0,-4,0,-6,0v26H242V226c0,0,0,-95,33,-125c0,0,33,-30,80,-30c0,0,32,0,73,21c0,0,40,20,96,76V555c0,0,0,59,-21,80c0,0,-22,21,-89,22v26H647V269c0,0,0,-119,6,-145c0,0,6,-27,18,-37c0,0,12,-11,29,-11c0,0,23,0,52,13L763,63L558,-20H524V124C524,124,436,29,390,4c0,0,-47,-24,-98,-24Z" 
id="f0_2h"
transform="scale(0.001,-0.001)" />

<path d="M213,-20c0,0,-34,0,-58,24c0,0,-24,24,-24,58c0,0,0,34,24,58c0,0,24,25,58,25c0,0,35,0,59,-25c0,0,24,-24,24,-58c0,0,0,-34,-24,-58c0,0,-25,-24,-59,-24Zm3,559c0,0,-35,0,-59,24c0,0,-24,24,-24,58c0,0,0,35,24,59c0,0,24,24,59,24c0,0,34,0,58,-24c0,0,24,-24,24,-59c0,0,0,-34,-24,-58c0,0,-24,-24,-58,-24Z" 
id="f0_u"
transform="scale(0.001,-0.001)" />

<path d="M22,-17c0,0,-29,0,-54,21c0,0,-18,16,-18,44c0,0,0,25,17,41c0,0,16,17,39,17c0,0,24,0,50,-24C56,82,76,65,86,65c0,0,9,0,23,11c0,0,35,28,95,122c0,0,61,93,79,134c0,0,-46,182,-49,193c0,0,-17,49,-45,69c0,0,-27,20,-81,20c0,0,-17,0,-40,-1v26l199,36c0,0,37,-39,55,-78c0,0,14,-26,44,-141l66,99c0,0,26,35,64,68c0,0,37,32,65,44c0,0,18,8,40,8c0,0,32,0,51,-17c0,0,19,-18,19,-42c0,0,0,-29,-11,-39c0,0,-21,-19,-48,-19c0,0,-16,0,-34,7c0,0,-35,12,-47,12c0,0,-18,0,-43,-21c0,0,-46,-39,-111,-150L439,150c0,0,14,-59,24,-71c0,0,10,-11,20,-11c0,0,15,0,37,17c0,0,41,34,70,89l27,-13C617,161,569,73,497,15c0,0,-41,-32,-70,-32c0,0,-42,0,-66,46c0,0,-16,29,-64,251C297,280,180,78,110,20c0,0,-46,-37,-88,-37Z" 
id="f3_2k"
transform="scale(0.001,-0.001)" />

<path d="M187,318c0,0,111,12,181,43c0,0,92,41,138,98c0,0,46,57,46,108c0,0,0,32,-20,51c0,0,-20,20,-56,20c0,0,-77,0,-163,-81c0,0,-85,-81,-126,-239ZM268,-17c0,0,-110,0,-165,68c0,0,-55,69,-55,151c0,0,0,111,69,228c0,0,68,116,172,180c0,0,104,65,213,65c0,0,79,0,118,-32c0,0,38,-32,38,-76c0,0,0,-62,-50,-119c0,0,-65,-73,-191,-119c0,0,-84,-30,-235,-47c0,0,-5,-38,-5,-62c0,0,0,-67,47,-114c0,0,47,-46,114,-46c0,0,54,0,104,22c0,0,50,22,148,97l15,-21C605,158,428,-17,268,-17Z" 
id="f3_21"
transform="scale(0.001,-0.001)" />

<path d="M252,70c0,0,90,0,212,168c0,0,123,168,123,294c0,0,0,47,-30,76c0,0,-30,30,-77,30c0,0,-103,0,-214,-156C266,482,155,327,155,185c0,0,0,-56,28,-85c0,0,29,-30,69,-30ZM185,-17c0,0,-63,0,-109,50C76,33,29,83,29,169c0,0,0,111,77,237c0,0,77,126,203,205c0,0,99,64,182,64c0,0,44,0,75,-17c0,0,32,-16,62,-54l71,247c0,0,11,40,18,64c0,0,9,31,9,50c0,0,0,16,-11,27c0,0,-16,13,-40,13c0,0,-17,0,-57,-6v27l255,42L615,170c0,0,-21,-73,-21,-95c0,0,0,-7,4,-13c0,0,4,-6,8,-6c0,0,7,0,16,9c0,0,16,16,56,88l25,-16c0,0,-43,-73,-88,-114c0,0,-44,-40,-83,-40c0,0,-20,0,-35,17c0,0,-16,18,-16,51c0,0,0,42,22,114l29,94C532,259,413,91,315,27c0,0,-68,-44,-130,-44Z" 
id="f3_20"
transform="scale(0.001,-0.001)" />

<path d="M107,-21V325h27c0,0,19,-109,52,-163c0,0,33,-54,100,-90c0,0,68,-36,148,-36c0,0,93,0,148,49c0,0,54,50,54,117c0,0,0,37,-21,75c0,0,-20,38,-64,71c0,0,-29,22,-159,95c0,0,-130,72,-185,115c0,0,-55,44,-83,96c0,0,-28,52,-28,114c0,0,0,109,83,188c0,0,84,78,213,78c0,0,81,0,171,-39c0,0,42,-19,59,-19c0,0,20,0,32,11c0,0,12,12,20,47h27V684H674c0,0,-14,101,-48,161c0,0,-35,60,-100,95c0,0,-64,35,-133,35c0,0,-77,0,-128,-47c0,0,-51,-48,-51,-108c0,0,0,-46,32,-84c0,0,47,-56,221,-149c0,0,142,-76,194,-117c0,0,51,-41,80,-96c0,0,28,-55,28,-115c0,0,0,-115,-90,-198c0,0,-89,-82,-229,-82c0,0,-44,0,-83,6c0,0,-23,4,-95,27c0,0,-73,24,-93,24c0,0,-18,0,-29,-11c0,0,-11,-12,-16,-46Z" 
id="f0_1j"
transform="scale(0.001,-0.001)" />

<path d="M474,-326c0,0,-112,57,-188,133c0,0,-107,108,-165,254c0,0,-58,147,-58,305c0,0,0,231,114,421c0,0,114,191,297,273v-31c0,0,-92,-51,-151,-139c0,0,-59,-88,-88,-223c0,0,-30,-135,-30,-281c0,0,0,-160,25,-290c0,0,20,-102,47,-164c0,0,28,-62,75,-120c0,0,47,-57,122,-109v-29Z" 
id="f0_c"
transform="scale(0.001,-0.001)" />

<path d="M35,-326v29c0,0,92,51,151,139c0,0,60,87,89,221c0,0,28,136,28,282c0,0,0,159,-24,290c0,0,-19,103,-47,165c0,0,-28,62,-75,119c0,0,-46,57,-122,110v31c0,0,113,-56,188,-132c0,0,107,-109,165,-255c0,0,58,-147,58,-306c0,0,0,-231,-114,-420c0,0,-113,-191,-297,-273Z" 
id="f0_d"
transform="scale(0.001,-0.001)" />

<path d="M296,18c0,0,63,0,130,48c0,0,68,48,118,162c0,0,50,114,50,230c0,0,0,69,-33,108c0,0,-32,38,-76,38c0,0,-66,0,-129,-57c0,0,-63,-58,-91,-157L169,53c0,0,72,-35,127,-35ZM284,-17c0,0,-109,0,-225,84L283,850c0,0,26,90,26,105c0,0,0,20,-12,29c0,0,-17,14,-50,14c0,0,-16,0,-48,-6v29l257,42L310,545c0,0,69,75,120,102c0,0,51,28,107,28c0,0,79,0,129,-55c0,0,51,-54,51,-147c0,0,0,-120,-67,-239C650,234,583,115,483,49c0,0,-101,-66,-199,-66Z" 
id="f3_1y"
transform="scale(0.001,-0.001)" />

<path d="M251,69c0,0,93,0,201,118c0,0,131,157,126,322c0,0,0,62,-26,90c0,0,-27,28,-74,28c0,0,-52,0,-110,-44c0,0,-83,-62,-148,-185c0,0,-64,-122,-64,-221c0,0,0,-50,28,-79c0,0,29,-29,67,-29ZM183,-17c0,0,-60,0,-103,44C80,27,36,71,36,149c0,0,0,117,77,247c0,0,77,130,195,208c0,0,92,62,174,62c0,0,49,0,82,-22c0,0,32,-22,49,-73l24,77l115,18L609,160L593,92c0,0,-2,-10,-2,-17c0,0,0,-10,5,-19c0,0,4,-6,11,-6c0,0,6,0,17,11c0,0,21,20,55,88l25,-18c0,0,-43,-75,-89,-112c0,0,-45,-36,-84,-36c0,0,-27,0,-42,16c0,0,-15,15,-15,46c0,0,0,36,17,96l16,55C507,196,399,69,309,19c0,0,-64,-36,-126,-36Z" 
id="f3_1x"
transform="scale(0.001,-0.001)" />

<path d="M-46,0l10,26c0,0,62,2,82,11c0,0,33,13,48,35c0,0,25,36,51,126L318,810c0,0,23,76,23,115c0,0,0,20,-10,33c0,0,-10,13,-29,21c0,0,-20,7,-78,7l9,26H619l-8,-26h-2c-8,0,-48,-1,-69,-12c0,0,-33,-16,-51,-46c0,0,-17,-30,-45,-132L271,185c0,0,-23,-78,-23,-100c0,0,0,-17,9,-29c0,0,9,-12,30,-19c0,0,20,-6,85,-11L364,0Z" 
id="f3_19"
transform="scale(0.001,-0.001)" />

<path d="M-162,-328c0,0,-45,0,-77,26c0,0,-23,19,-23,49c0,0,0,23,19,41c0,0,19,17,47,17c0,0,20,0,34,-12c0,0,13,-13,13,-29c0,0,0,-17,-15,-31c0,0,-12,-10,-12,-16c0,0,0,-6,5,-10c0,0,7,-5,21,-5c0,0,32,0,67,20c0,0,36,20,63,60c0,0,27,40,52,115c0,0,10,32,58,205L233,608H89l10,49c0,0,69,0,96,9c0,0,28,8,50,32c0,0,23,25,55,91c0,0,42,90,81,139c0,0,53,66,112,100c0,0,58,33,110,33c0,0,54,0,88,-29c0,0,33,-28,33,-62c0,0,0,-26,-18,-44c0,0,-17,-18,-44,-18c0,0,-23,0,-37,14c0,0,-15,13,-15,32c0,0,0,12,10,29c0,0,10,18,10,24c0,0,0,10,-6,15c0,0,-9,8,-27,8c0,0,-43,0,-77,-31c0,0,-46,-41,-83,-127c0,0,-18,-45,-74,-215H473L460,608H350L260,279C260,279,201,65,145,-51c0,0,-79,-166,-169,-229c0,0,-69,-48,-138,-48Z" 
id="f3_22"
transform="scale(0.001,-0.001)" />

<path d="M336,-20L117,554c0,0,-21,55,-42,74c0,0,-21,19,-66,29v26H296V657c0,0,-40,-3,-52,-14c0,0,-13,-12,-13,-33c0,0,0,-23,13,-56L390,162L537,481L498,581c0,0,-18,46,-47,63c0,0,-17,11,-61,13v26H716V657c0,0,-54,-2,-77,-20c0,0,-15,-12,-15,-39c0,0,0,-15,6,-30L785,177L929,554c0,0,15,40,15,65c0,0,0,14,-15,25c0,0,-14,12,-57,13v26h216V657c0,0,-65,-10,-95,-89L764,-20H733L563,415L363,-20Z" 
id="f0_2j"
transform="scale(0.001,-0.001)" />

<path d="M106,-253v33c0,0,76,25,118,78c0,0,42,54,42,113c0,0,0,15,-7,24c0,0,-5,6,-10,6c0,0,-8,0,-36,-14c0,0,-13,-7,-28,-7c0,0,-36,0,-58,21c0,0,-21,22,-21,60c0,0,0,36,28,62c0,0,27,27,68,27c0,0,49,0,87,-43c0,0,39,-43,39,-113c0,0,0,-77,-54,-143c0,0,-53,-66,-168,-104ZM210,540c0,0,-35,0,-59,24c0,0,-24,24,-24,59c0,0,0,34,24,58c0,0,24,24,59,24c0,0,34,0,58,-24c0,0,24,-24,24,-58c0,0,0,-35,-24,-59c0,0,-24,-24,-58,-24Z" 
id="f0_v"
transform="scale(0.001,-0.001)" />

<path d="M505,-17c0,0,-26,0,-43,17c0,0,-17,17,-17,45c0,0,0,33,30,122l97,298c0,0,18,56,18,88c0,0,0,15,-10,24c0,0,-10,9,-26,9c0,0,-24,0,-54,-17c0,0,-55,-31,-127,-116c0,0,-20,-23,-130,-186c0,0,-34,-52,-54,-114L142,0H30L274,854l27,92c0,0,0,19,-16,34c0,0,-17,15,-40,15c0,0,-13,0,-41,-4l-16,-2v29l257,43L239,338c0,0,144,203,225,270c0,0,81,67,155,67c0,0,38,0,63,-27c0,0,26,-27,26,-71c0,0,0,-49,-24,-118L583,149c0,0,-19,-57,-19,-62c0,0,0,-11,6,-17c0,0,5,-6,13,-6c0,0,8,0,20,9c0,0,38,32,75,90l23,-14c0,0,-24,-39,-67,-85C634,64,591,18,560,0c0,0,-31,-17,-55,-17Z" 
id="f3_24"
transform="scale(0.001,-0.001)" />

<path d="M504,-17c0,0,-27,0,-42,17c0,0,-16,16,-16,44c0,0,0,36,29,123l98,300c0,0,18,56,18,87c0,0,0,15,-10,24c0,0,-11,10,-26,10c0,0,-23,0,-54,-18c0,0,-60,-34,-124,-111c0,0,-65,-77,-137,-197c0,0,-38,-63,-63,-139L141,0H29L163,467c0,0,24,85,24,102c0,0,0,16,-13,28c0,0,-13,13,-32,13c0,0,-9,0,-30,-3L84,602l-7,27l257,46L238,340c0,0,149,205,228,270c0,0,79,65,152,65c0,0,40,0,66,-27c0,0,26,-27,26,-70c0,0,0,-44,-25,-118L584,149c0,0,-17,-54,-17,-66c0,0,0,-10,5,-17c0,0,5,-7,11,-7c0,0,8,0,20,9c0,0,35,31,77,95l23,-14C703,149,637,51,578,10c0,0,-42,-27,-74,-27Z" 
id="f3_2a"
transform="scale(0.001,-0.001)" />

<path d="M31,0L164,463c0,0,24,81,24,115c0,0,0,14,-12,23c0,0,-14,12,-37,12c0,0,-15,0,-54,-7L74,633l255,42L220,312c0,0,134,223,243,312c0,0,62,51,102,51c0,0,25,0,39,-15c0,0,15,-15,15,-42c0,0,0,-50,-25,-94c0,0,-18,-34,-52,-34c0,0,-17,0,-30,11c0,0,-12,11,-15,35c0,0,-1,14,-7,18c0,0,-6,6,-14,6c0,0,-13,0,-24,-6c0,0,-19,-10,-59,-58c0,0,-62,-73,-134,-189c0,0,-32,-49,-54,-111c0,0,-32,-85,-36,-102L145,0Z" 
id="f3_2e"
transform="scale(0.001,-0.001)" />

<path d="M23,0V26c0,0,47,0,66,10c0,0,19,11,28,33c0,0,10,22,10,85V416c0,0,0,112,-7,145c0,0,-5,25,-16,34c0,0,-11,10,-31,10c0,0,-21,0,-50,-11L12,620l207,83h32V557c0,0,75,75,88,86c0,0,34,29,72,44c0,0,39,16,77,16c0,0,64,0,110,-37c0,0,47,-38,62,-109c0,0,77,90,130,118c0,0,53,28,109,28c0,0,54,0,96,-28c0,0,42,-28,67,-91c0,0,16,-43,16,-136V154c0,0,0,-64,10,-88c0,0,8,-16,28,-28c0,0,20,-12,65,-12V0H844V26h14c0,0,44,0,69,18c0,0,17,12,24,38c0,0,3,13,3,72V448c0,0,0,83,-20,117c0,0,-29,48,-93,48c0,0,-39,0,-79,-20c0,0,-40,-19,-97,-73l-1,-8l2,-32V154c0,0,0,-70,8,-87c0,0,7,-17,29,-29c0,0,21,-12,73,-12V0H431V26c0,0,57,0,78,14c0,0,21,13,29,40c0,0,4,13,4,74V448c0,0,0,83,-25,120c0,0,-33,48,-91,48c0,0,-40,0,-80,-22c0,0,-61,-33,-95,-74V154c0,0,0,-67,10,-87c0,0,9,-20,27,-30c0,0,18,-11,74,-11V0Z" 
id="f0_29"
transform="scale(0.001,-0.001)" />

<path d="M968,-20c0,0,42,100,87,170c0,0,45,70,144,184H56v73H1199c0,0,-106,122,-148,189c0,0,-43,67,-83,166h60c0,0,87,-108,217,-218c0,0,130,-110,206,-154V349c0,0,-99,-56,-217,-159c0,0,-117,-102,-206,-210Z" 
id="f1_34"
transform="scale(0.001,-0.001)" />

<path d="M213,177c0,0,71,0,125,63c0,0,35,42,88,200c0,0,-37,82,-84,121c0,0,-47,38,-115,38c0,0,-79,0,-133,-55C94,544,41,488,41,395c0,0,0,-99,53,-159c0,0,52,-59,119,-59ZM752,150c0,0,92,0,153,66c0,0,62,66,62,177c0,0,0,109,-65,181c0,0,-65,71,-145,71c0,0,-52,0,-90,-26c0,0,-39,-26,-70,-83c0,0,-18,-34,-78,-190c0,0,56,-117,111,-156c0,0,54,-40,122,-40ZM749,79c0,0,-74,0,-137,54c0,0,-42,36,-114,159c0,0,-48,-92,-105,-133c0,0,-57,-41,-137,-41c0,0,-108,0,-182,77C74,195,0,272,0,394c0,0,0,123,69,198c0,0,68,76,160,76c0,0,64,0,113,-33c0,0,50,-34,106,-138c0,0,50,116,111,162c0,0,60,45,164,45c0,0,121,0,203,-87c0,0,83,-86,83,-224c0,0,0,-137,-81,-225c0,0,-80,-89,-179,-89Z" 
id="f1_2v"
transform="scale(0.001,-0.001)" />

<path d="M0,-152v27L499,494L0,1104v27H953L974,881H943c0,0,-12,103,-57,147c0,0,-46,44,-127,44H205L625,558L156,-20H766c0,0,52,0,114,20c0,0,43,13,70,49c0,0,28,36,47,113l30,-5L980,-152Z" 
id="f1_4n"
transform="scale(0.001,-0.001)" />

<path d="M435,0V856c0,0,-48,-47,-127,-93c0,0,-79,-46,-142,-69V824c0,0,113,52,197,128c0,0,85,75,120,146h86V0Z" 
id="f4_l"
transform="scale(0.001,-0.001)" />

<path d="M435,92c0,0,86,0,147,69c0,0,60,68,60,186c0,0,0,114,-60,179c0,0,-60,66,-152,66c0,0,-91,0,-154,-66c0,0,-64,-65,-64,-171c0,0,0,-70,30,-133c0,0,29,-64,82,-97c0,0,52,-33,111,-33Zm3,-110c0,0,-168,0,-274,123C164,105,58,228,58,512c0,0,0,317,117,461c0,0,102,125,275,125c0,0,129,0,212,-72c0,0,82,-72,99,-200L627,815c0,0,-18,79,-51,115c0,0,-54,58,-134,58c0,0,-64,0,-113,-36c0,0,-63,-46,-99,-135c0,0,-37,-89,-38,-253c0,0,48,74,118,110c0,0,70,36,147,36c0,0,135,0,229,-99c0,0,94,-99,94,-256c0,0,0,-103,-44,-191C736,164,691,75,614,28c0,0,-78,-46,-176,-46Z" 
id="f4_q"
transform="scale(0.001,-0.001)" />


</defs>
</svg>