<?xml version="1.0" encoding="UTF-8" standalone="no"?>
<!DOCTYPE svg PUBLIC "-//W3C//DTD SVG 1.1//EN"
"http://www.w3.org/Graphics/SVG/1.1/DTD/svg11.dtd">
<svg viewBox="0 0 909 1286" version="1.1" xmlns="http://www.w3.org/2000/svg" xmlns:xlink="http://www.w3.org/1999/xlink">
<defs>
<clipPath id="c0_155"><path d="M55.2,462.9V126.6H283.7V462.9Z" /></clipPath>
<clipPath id="c1_155"><path d="M55.2,655.4V465.8H400V655.4Z" /></clipPath>
<clipPath id="c2_155"><path d="M55.2,908.4V881.6H168.5v26.8Z" /></clipPath>
<clipPath id="c3_155"><path d="M55.2,1001.2V910.6H332.8v90.6Z" /></clipPath>
<clipPath id="c4_155"><path d="M465.5,1054.7v-26.8h21.1v26.8Z" /></clipPath>
<style type="text/css"><![CDATA[
.g0_155{
fill: #D9D9D9;
}
.g1_155{
fill: none;
stroke: #000000;
stroke-width: 0.7638889;
stroke-linecap: butt;
stroke-linejoin: miter;
}
.g2_155{
fill: none;
stroke: #000000;
stroke-width: 0.906753;
stroke-linecap: butt;
stroke-linejoin: round;
}
.g3_155{
}
]]></style>
</defs>
<image preserveAspectRatio="none" x="747" y="1196" width="96" height="59" xlink:href="img/1.png" />
<image preserveAspectRatio="none" x="336" y="41" width="259" height="51" xlink:href="img/2.png" />
<image preserveAspectRatio="none" x="342" y="50" width="247" height="27" xlink:href="img/3.png" />
<image preserveAspectRatio="none" x="341" y="45" width="239" height="42" xlink:href="img/4.png" />
<g fill="#FFFFFF" >
<use xlink:href="#f0_j" transform="matrix(11.5,0,0,11.5,355.1,70.1)" />
<use xlink:href="#f0_i" transform="matrix(11.5,0,0,11.5,364.3,70.1)" />
<use xlink:href="#f0_2n" transform="matrix(11.5,0,0,11.5,374.1,70.1)" />
<use xlink:href="#f0_t" transform="matrix(11.5,0,0,11.5,382.6,70.1)" />
<use xlink:href="#f0_oj" transform="matrix(11.5,0,0,11.5,391,70.1)" />
<use xlink:href="#f0_3e" transform="matrix(11.5,0,0,11.5,396.5,70.1)" />
<use xlink:href="#f0_1c" transform="matrix(11.5,0,0,11.5,406.1,70.1)" />
<use xlink:href="#f0_1c" transform="matrix(11.5,0,0,11.5,410.8,70.1)" />
<use xlink:href="#f0_oj" transform="matrix(11.5,0,0,11.5,415.6,70.1)" />
<use xlink:href="#f0_rz" transform="matrix(11.5,0,0,11.5,421.1,70.1)" />
<use xlink:href="#f0_rx" transform="matrix(11.5,0,0,11.5,429.9,70.1)" />
<use xlink:href="#f0_ry" transform="matrix(11.5,0,0,11.5,438.7,70.1)" />
<use xlink:href="#f0_s7" transform="matrix(11.5,0,0,11.5,447.5,70.1)" />
<use xlink:href="#f0_t" transform="matrix(11.5,0,0,11.5,460.4,70.1)" />
<use xlink:href="#f0_3e" transform="matrix(11.5,0,0,11.5,468.8,70.1)" />
<use xlink:href="#f0_5" transform="matrix(11.5,0,0,11.5,478.3,70.1)" />
<use xlink:href="#f0_1x" transform="matrix(11.5,0,0,11.5,489,70.1)" />
<use xlink:href="#f0_1c" transform="matrix(11.5,0,0,11.5,504.4,70.1)" />
<use xlink:href="#f0_1y" transform="matrix(11.5,0,0,11.5,509.1,70.1)" />
<use xlink:href="#f0_5" transform="matrix(11.5,0,0,11.5,520.8,70.1)" />
<use xlink:href="#f0_2t" transform="matrix(11.5,0,0,11.5,531.5,70.1)" />
<use xlink:href="#f0_1c" transform="matrix(11.5,0,0,11.5,540.2,70.1)" />
<use xlink:href="#f0_24" transform="matrix(11.5,0,0,11.5,545,70.1)" />
<use xlink:href="#f0_1y" transform="matrix(11.5,0,0,11.5,556.7,70.1)" />
</g>
<image preserveAspectRatio="none" x="554" y="45" width="36" height="42" xlink:href="img/5.png" />
<g fill="#FFFFFF" >
<use xlink:href="#f1_l" transform="matrix(11,0,0,11,770.3,1227.6)" />
<use xlink:href="#f1_m" transform="matrix(11,0,0,11,779.1,1227.6)" />
<use xlink:href="#f1_j" transform="matrix(11,0,0,11,792.3,1227.6)" />
<use xlink:href="#f1_l" transform="matrix(11,0,0,11,802.9,1227.6)" />
<use xlink:href="#f1_t" transform="matrix(11,0,0,11,811.7,1227.6)" />
</g>
<path fill-rule="evenodd" d="M52.8,1193.5H856.9v-.8H52.8v.8Z" class="g0_155" />
<path d="M37.9,99.4L873,98.5" class="g1_155" />
<path d="M120.3,232.8h98.1M141.5,292v25.8m54,-25.8v25.8M141,292.4h54.9M141,317.3h54.9M151.8,436.7V459m54,-22.3V459M151.4,437.1h54.9m-54.9,21.4h54.9" class="g2_155" />
<g clip-path="url(#c0_155)">
<g fill="#000000" >
<use xlink:href="#f2_1j" transform="matrix(12.1,0,0,12.2,98.5,143.6)" />
<use xlink:href="#f2_2b" transform="matrix(12.1,0,0,12.2,108.8,143.6)" />
<use xlink:href="#f2_28" transform="matrix(12.1,0,0,12.2,118,143.6)" />
<use xlink:href="#f2_2i" transform="matrix(12.1,0,0,12.2,122.9,143.6)" />
<use xlink:href="#f2_21" transform="matrix(12.1,0,0,12.2,131.8,143.6)" />
<use xlink:href="#f2_c" transform="matrix(12.1,0,0,12.2,140.1,143.6)" />
<use xlink:href="#f2_m" transform="matrix(12.1,0,0,12.2,146.7,143.6)" />
<use xlink:href="#f2_d" transform="matrix(12.1,0,0,12.2,155.9,143.6)" />
<use xlink:href="#f2_a" transform="matrix(12.1,0,0,12.2,164.8,143.6)" />
<use xlink:href="#f2_c" transform="matrix(12.1,0,0,12.2,181.8,143.6)" />
<use xlink:href="#f2_n" transform="matrix(12.1,0,0,12.2,187.8,143.6)" />
<use xlink:href="#f2_d" transform="matrix(12.1,0,0,12.2,196.4,143.6)" />
<use xlink:href="#f2_l" transform="matrix(12.1,0,0,12.2,149.9,171)" />
<use xlink:href="#f2_l" transform="matrix(12.1,0,0,12.2,200.5,171)" />
<use xlink:href="#f2_m" transform="matrix(12.1,0,0,12.2,125.2,198.4)" />
<use xlink:href="#f2_m" transform="matrix(12.1,0,0,12.2,161.1,198.4)" />
<use xlink:href="#f2_n" transform="matrix(12.1,0,0,12.2,188.1,198.4)" />
<use xlink:href="#f2_n" transform="matrix(12.1,0,0,12.2,154.5,251.7)" />
<use xlink:href="#f2_m" transform="matrix(12.1,0,0,12.2,181.5,251.7)" />
<use xlink:href="#f2_l" transform="matrix(12.1,0,0,12.2,215.4,251.7)" />
<use xlink:href="#f2_o" transform="matrix(12.1,0,0,12.2,156.2,278.6)" />
<use xlink:href="#f2_m" transform="matrix(12.1,0,0,12.2,183.8,278.6)" />
<use xlink:href="#f2_m" transform="matrix(12.1,0,0,12.2,183.6,310)" />
<use xlink:href="#f2_2c" transform="matrix(12.1,0,0,12.2,120.1,340.9)" />
<use xlink:href="#f2_2h" transform="matrix(12.1,0,0,12.2,129.2,340.9)" />
<use xlink:href="#f2_2g" transform="matrix(12.1,0,0,12.2,138.4,340.9)" />
<use xlink:href="#f2_m" transform="matrix(12.1,0,0,12.2,187.3,340.9)" />
<use xlink:href="#f2_i" transform="matrix(12.1,0,0,12.2,240.7,340.9)" />
<use xlink:href="#f2_i" transform="matrix(12.1,0,0,12.2,245.3,340.9)" />
<use xlink:href="#f2_i" transform="matrix(12.1,0,0,12.2,249.9,340.9)" />
<use xlink:href="#f2_i" transform="matrix(12.1,0,0,12.2,254.6,340.9)" />
<use xlink:href="#f2_c" transform="matrix(12.1,0,0,12.2,259.2,340.9)" />
<use xlink:href="#f2_n" transform="matrix(12.1,0,0,12.2,265.2,340.9)" />
<use xlink:href="#f2_d" transform="matrix(12.1,0,0,12.2,273.8,340.9)" />
<use xlink:href="#f2_m" transform="matrix(12.1,0,0,12.2,120.1,368.4)" />
<use xlink:href="#f2_o" transform="matrix(12.1,0,0,12.2,156,368.4)" />
<use xlink:href="#f2_q" transform="matrix(12.1,0,0,12.2,183.3,368.4)" />
<use xlink:href="#f2_c" transform="matrix(12.1,0,0,12.2,192.5,368.4)" />
<use xlink:href="#f2_m" transform="matrix(12.1,0,0,12.2,209.1,368.4)" />
<use xlink:href="#f2_d" transform="matrix(12.1,0,0,12.2,218.3,368.4)" />
<use xlink:href="#f2_m" transform="matrix(12.1,0,0,12.2,120.1,395.8)" />
<use xlink:href="#f2_l" transform="matrix(12.1,0,0,12.2,168.3,395.8)" />
<use xlink:href="#f2_m" transform="matrix(12.1,0,0,12.2,177.5,395.8)" />
<use xlink:href="#f2_o" transform="matrix(12.1,0,0,12.2,203,395.8)" />
<use xlink:href="#f2_m" transform="matrix(12.1,0,0,12.2,120.1,423.3)" />
<use xlink:href="#f2_s" transform="matrix(12.1,0,0,12.2,168.3,423.3)" />
<use xlink:href="#f2_o" transform="matrix(12.1,0,0,12.2,193.9,454.7)" />
<use xlink:href="#f3_28" transform="matrix(12.1,0,0,12.2,124.9,171)" />
<use xlink:href="#f3_f" transform="matrix(12.1,0,0,12.2,138.4,171)" />
<use xlink:href="#f3_x" transform="matrix(12.1,0,0,12.2,161.7,171)" />
<use xlink:href="#f3_29" transform="matrix(12.1,0,0,12.2,175.5,171)" />
<use xlink:href="#f3_h" transform="matrix(12.1,0,0,12.2,189.2,171)" />
<use xlink:href="#f3_28" transform="matrix(12.1,0,0,12.2,134.4,198.4)" />
<use xlink:href="#f3_h" transform="matrix(12.1,0,0,12.2,147.9,198.4)" />
<use xlink:href="#f3_x" transform="matrix(12.1,0,0,12.2,174.3,198.4)" />
<use xlink:href="#f3_29" transform="matrix(12.1,0,0,12.2,196.5,198.4)" />
<use xlink:href="#f3_h" transform="matrix(12.1,0,0,12.2,121.5,225.9)" />
<use xlink:href="#f3_f" transform="matrix(12.1,0,0,12.2,166.9,225.9)" />
<use xlink:href="#f3_h" transform="matrix(12.1,0,0,12.2,207.4,225.9)" />
<use xlink:href="#f3_x" transform="matrix(12.1,0,0,12.2,167.2,251.7)" />
<use xlink:href="#f3_29" transform="matrix(12.1,0,0,12.2,190.4,251.7)" />
<use xlink:href="#f3_h" transform="matrix(12.1,0,0,12.2,204.2,251.7)" />
<use xlink:href="#f3_x" transform="matrix(12.1,0,0,12.2,169.5,278.6)" />
<use xlink:href="#f3_29" transform="matrix(12.1,0,0,12.2,192.8,278.6)" />
<use xlink:href="#f3_29" transform="matrix(12.1,0,0,12.2,144.2,310)" />
<use xlink:href="#f3_x" transform="matrix(12.1,0,0,12.2,159.1,310)" />
<use xlink:href="#f3_h" transform="matrix(12.1,0,0,12.2,173.5,310)" />
<use xlink:href="#f3_29" transform="matrix(12.1,0,0,12.2,147.9,340.9)" />
<use xlink:href="#f3_x" transform="matrix(12.1,0,0,12.2,162.9,340.9)" />
<use xlink:href="#f3_h" transform="matrix(12.1,0,0,12.2,177.2,340.9)" />
<use xlink:href="#f3_28" transform="matrix(12.1,0,0,12.2,129.2,368.4)" />
<use xlink:href="#f3_h" transform="matrix(12.1,0,0,12.2,142.7,368.4)" />
<use xlink:href="#f3_x" transform="matrix(12.1,0,0,12.2,169.2,368.4)" />
<use xlink:href="#f3_h" transform="matrix(12.1,0,0,12.2,199,368.4)" />
<use xlink:href="#f3_28" transform="matrix(12.1,0,0,12.2,129.2,395.8)" />
<use xlink:href="#f3_x" transform="matrix(12.1,0,0,12.2,143.9,395.8)" />
<use xlink:href="#f3_h" transform="matrix(12.1,0,0,12.2,158.2,395.8)" />
<use xlink:href="#f3_f" transform="matrix(12.1,0,0,12.2,189.5,395.8)" />
<use xlink:href="#f3_28" transform="matrix(12.1,0,0,12.2,129.2,423.3)" />
<use xlink:href="#f3_x" transform="matrix(12.1,0,0,12.2,143.9,423.3)" />
<use xlink:href="#f3_h" transform="matrix(12.1,0,0,12.2,158.2,423.3)" />
<use xlink:href="#f3_28" transform="matrix(12.1,0,0,12.2,154.8,454.7)" />
<use xlink:href="#f3_x" transform="matrix(12.1,0,0,12.2,169.4,454.7)" />
<use xlink:href="#f3_h" transform="matrix(12.1,0,0,12.2,183.8,454.7)" />
</g>
</g>
<g clip-path="url(#c1_155)">
<g fill="#000000" >
<use xlink:href="#f2_2c" transform="matrix(12.2,0,0,12.2,119.9,482.7)" />
<use xlink:href="#f2_2h" transform="matrix(12.2,0,0,12.2,129.1,482.7)" />
<use xlink:href="#f2_2g" transform="matrix(12.2,0,0,12.2,138.2,482.7)" />
<use xlink:href="#f2_a" transform="matrix(12.2,0,0,12.2,161.2,482.7)" />
<use xlink:href="#f2_25" transform="matrix(12.2,0,0,12.2,189.5,482.7)" />
<use xlink:href="#f2_2a" transform="matrix(12.2,0,0,12.2,194.7,482.7)" />
<use xlink:href="#f2_c" transform="matrix(12.2,0,0,12.2,208.4,482.7)" />
<use xlink:href="#f2_l" transform="matrix(12.2,0,0,12.2,213,482.7)" />
<use xlink:href="#f2_d" transform="matrix(12.2,0,0,12.2,220.7,482.7)" />
<use xlink:href="#f2_n" transform="matrix(12.2,0,0,12.2,171.7,510.2)" />
<use xlink:href="#f2_n" transform="matrix(12.2,0,0,12.2,198.1,510.2)" />
<use xlink:href="#f2_p" transform="matrix(12.2,0,0,12.2,233,510.2)" />
<use xlink:href="#f2_o" transform="matrix(12.2,0,0,12.2,158.8,537.7)" />
<use xlink:href="#f2_n" transform="matrix(12.2,0,0,12.2,183.7,537.7)" />
<use xlink:href="#f2_n" transform="matrix(12.2,0,0,12.2,210.1,537.7)" />
<use xlink:href="#f2_c" transform="matrix(12.2,0,0,12.2,222.4,537.7)" />
<use xlink:href="#f2_m" transform="matrix(12.2,0,0,12.2,239,537.7)" />
<use xlink:href="#f2_d" transform="matrix(12.2,0,0,12.2,248.2,537.7)" />
<use xlink:href="#f2_p" transform="matrix(12.2,0,0,12.2,270.2,537.7)" />
<use xlink:href="#f2_l" transform="matrix(12.2,0,0,12.2,156.8,565.2)" />
<use xlink:href="#f2_l" transform="matrix(12.2,0,0,12.2,193,565.2)" />
<use xlink:href="#f2_22" transform="matrix(12.2,0,0,12.2,144.5,592.7)" />
<use xlink:href="#f2_2e" transform="matrix(12.2,0,0,12.2,150.5,592.7)" />
<use xlink:href="#f2_2b" transform="matrix(12.2,0,0,12.2,156.6,592.7)" />
<use xlink:href="#f2_29" transform="matrix(12.2,0,0,12.2,165.8,592.7)" />
<use xlink:href="#f2_o" transform="matrix(12.2,0,0,12.2,223.1,592.7)" />
<use xlink:href="#f2_2g" transform="matrix(12.2,0,0,12.2,236.5,592.7)" />
<use xlink:href="#f2_24" transform="matrix(12.2,0,0,12.2,241.7,592.7)" />
<use xlink:href="#f2_21" transform="matrix(12.2,0,0,12.2,250.8,592.7)" />
<use xlink:href="#f2_2a" transform="matrix(12.2,0,0,12.2,258.9,592.7)" />
<use xlink:href="#f2_1g" transform="matrix(12.2,0,0,12.2,272.9,592.7)" />
<use xlink:href="#f2_25" transform="matrix(12.2,0,0,12.2,286.9,592.7)" />
<use xlink:href="#f2_2f" transform="matrix(12.2,0,0,12.2,292.1,592.7)" />
<use xlink:href="#f2_c" transform="matrix(12.2,0,0,12.2,303.2,592.7)" />
<use xlink:href="#f2_l" transform="matrix(12.2,0,0,12.2,319.8,592.7)" />
<use xlink:href="#f2_g" transform="matrix(12.2,0,0,12.2,327.3,592.7)" />
<use xlink:href="#f2_q" transform="matrix(12.2,0,0,12.2,344.2,592.7)" />
<use xlink:href="#f2_g" transform="matrix(12.2,0,0,12.2,353.1,592.7)" />
<use xlink:href="#f2_l" transform="matrix(12.2,0,0,12.2,370,592.7)" />
<use xlink:href="#f2_m" transform="matrix(12.2,0,0,12.2,379.1,592.7)" />
<use xlink:href="#f2_d" transform="matrix(12.2,0,0,12.2,388.3,592.7)" />
<use xlink:href="#f2_22" transform="matrix(12.2,0,0,12.2,143.7,620.2)" />
<use xlink:href="#f2_2e" transform="matrix(12.2,0,0,12.2,149.7,620.2)" />
<use xlink:href="#f2_2b" transform="matrix(12.2,0,0,12.2,155.7,620.2)" />
<use xlink:href="#f2_29" transform="matrix(12.2,0,0,12.2,164.9,620.2)" />
<use xlink:href="#f2_m" transform="matrix(12.2,0,0,12.2,222.2,620.2)" />
<use xlink:href="#f2_2g" transform="matrix(12.2,0,0,12.2,235.6,620.2)" />
<use xlink:href="#f2_24" transform="matrix(12.2,0,0,12.2,240.8,620.2)" />
<use xlink:href="#f2_21" transform="matrix(12.2,0,0,12.2,250,620.2)" />
<use xlink:href="#f2_2a" transform="matrix(12.2,0,0,12.2,258,620.2)" />
<use xlink:href="#f2_1h" transform="matrix(12.2,0,0,12.2,271.8,620.2)" />
<use xlink:href="#f2_25" transform="matrix(12.2,0,0,12.2,288.7,620.2)" />
<use xlink:href="#f2_2f" transform="matrix(12.2,0,0,12.2,293.8,620.2)" />
<use xlink:href="#f2_c" transform="matrix(12.2,0,0,12.2,305,620.2)" />
<use xlink:href="#f2_l" transform="matrix(12.2,0,0,12.2,321.6,620.2)" />
<use xlink:href="#f2_g" transform="matrix(12.2,0,0,12.2,329,620.2)" />
<use xlink:href="#f2_q" transform="matrix(12.2,0,0,12.2,345.9,620.2)" />
<use xlink:href="#f2_g" transform="matrix(12.2,0,0,12.2,354.8,620.2)" />
<use xlink:href="#f2_l" transform="matrix(12.2,0,0,12.2,371.7,620.2)" />
<use xlink:href="#f2_m" transform="matrix(12.2,0,0,12.2,380.9,620.2)" />
<use xlink:href="#f2_d" transform="matrix(12.2,0,0,12.2,390.1,620.2)" />
<use xlink:href="#f2_1x" transform="matrix(12.2,0,0,12.2,124.7,647.8)" />
<use xlink:href="#f2_2f" transform="matrix(12.2,0,0,12.2,132.8,647.8)" />
<use xlink:href="#f2_1g" transform="matrix(12.2,0,0,12.2,144.2,647.8)" />
<use xlink:href="#f2_1x" transform="matrix(12.2,0,0,12.2,158.5,647.8)" />
<use xlink:href="#f2_2a" transform="matrix(12.2,0,0,12.2,166.6,647.8)" />
<use xlink:href="#f2_20" transform="matrix(12.2,0,0,12.2,175.7,647.8)" />
<use xlink:href="#f2_1h" transform="matrix(12.2,0,0,12.2,189.2,647.8)" />
<use xlink:href="#f2_1x" transform="matrix(12.2,0,0,12.2,206.3,647.8)" />
<use xlink:href="#f2_2e" transform="matrix(12.2,0,0,12.2,214.4,647.8)" />
<use xlink:href="#f2_21" transform="matrix(12.2,0,0,12.2,220.4,647.8)" />
<use xlink:href="#f2_2f" transform="matrix(12.2,0,0,12.2,232.1,647.8)" />
<use xlink:href="#f2_1x" transform="matrix(12.2,0,0,12.2,239.3,647.8)" />
<use xlink:href="#f2_29" transform="matrix(12.2,0,0,12.2,247.4,647.8)" />
<use xlink:href="#f2_21" transform="matrix(12.2,0,0,12.2,261.4,647.8)" />
<use xlink:href="#f3_29" transform="matrix(12.2,0,0,12.2,147.7,482.7)" />
<use xlink:href="#f3_28" transform="matrix(12.2,0,0,12.2,179.2,482.7)" />
<use xlink:href="#f3_28" transform="matrix(12.2,0,0,12.2,145.4,510.2)" />
<use xlink:href="#f3_f" transform="matrix(12.2,0,0,12.2,158.8,510.2)" />
<use xlink:href="#f3_x" transform="matrix(12.2,0,0,12.2,184.3,510.2)" />
<use xlink:href="#f3_29" transform="matrix(12.2,0,0,12.2,206.4,510.2)" />
<use xlink:href="#f3_f" transform="matrix(12.2,0,0,12.2,220.1,510.2)" />
<use xlink:href="#f3_h" transform="matrix(12.2,0,0,12.2,145.7,537.7)" />
<use xlink:href="#f3_f" transform="matrix(12.2,0,0,12.2,170.9,537.7)" />
<use xlink:href="#f3_x" transform="matrix(12.2,0,0,12.2,196.4,537.7)" />
<use xlink:href="#f3_h" transform="matrix(12.2,0,0,12.2,229,537.7)" />
<use xlink:href="#f3_f" transform="matrix(12.2,0,0,12.2,257.4,537.7)" />
<use xlink:href="#f3_h" transform="matrix(12.2,0,0,12.2,145.7,565.2)" />
<use xlink:href="#f3_x" transform="matrix(12.2,0,0,12.2,168.6,565.2)" />
<use xlink:href="#f3_h" transform="matrix(12.2,0,0,12.2,182.9,565.2)" />
<use xlink:href="#f3_1s" transform="matrix(12.2,0,0,12.2,122.2,592.7)" />
<use xlink:href="#f3_28" transform="matrix(12.2,0,0,12.2,184.1,592.7)" />
<use xlink:href="#f3_x" transform="matrix(12.2,0,0,12.2,198.6,592.7)" />
<use xlink:href="#f3_h" transform="matrix(12.2,0,0,12.2,212.9,592.7)" />
<use xlink:href="#f3_h" transform="matrix(12.2,0,0,12.2,309.8,592.7)" />
<use xlink:href="#f3_h" transform="matrix(12.2,0,0,12.2,334.1,592.7)" />
<use xlink:href="#f3_h" transform="matrix(12.2,0,0,12.2,359.9,592.7)" />
<use xlink:href="#f3_29" transform="matrix(12.2,0,0,12.2,182.9,620.2)" />
<use xlink:href="#f3_x" transform="matrix(12.2,0,0,12.2,197.8,620.2)" />
<use xlink:href="#f3_h" transform="matrix(12.2,0,0,12.2,212.1,620.2)" />
<use xlink:href="#f3_h" transform="matrix(12.2,0,0,12.2,311.5,620.2)" />
<use xlink:href="#f3_h" transform="matrix(12.2,0,0,12.2,335.9,620.2)" />
<use xlink:href="#f3_h" transform="matrix(12.2,0,0,12.2,361.6,620.2)" />
</g>
</g>
<g fill="#000000" >
<use xlink:href="#f4_16e" transform="matrix(12,0,0,12,55,675.9)" />
<use xlink:href="#f2_28" transform="matrix(12,0,0,12,70.4,675.9)" />
<use xlink:href="#f2_25" transform="matrix(12,0,0,12,75.2,675.9)" />
<use xlink:href="#f2_2a" transform="matrix(12,0,0,12,80,675.9)" />
<use xlink:href="#f2_21" transform="matrix(12,0,0,12,89.1,675.9)" />
<use xlink:href="#f2_2f" transform="matrix(12,0,0,12,97.6,675.9)" />
<use xlink:href="#f2_1x" transform="matrix(12,0,0,12,109.3,675.9)" />
<use xlink:href="#f2_2e" transform="matrix(12,0,0,12,117.3,675.9)" />
<use xlink:href="#f2_21" transform="matrix(12,0,0,12,123.5,675.9)" />
<use xlink:href="#f2_25" transform="matrix(12,0,0,12,136.4,675.9)" />
<use xlink:href="#f2_2a" transform="matrix(12,0,0,12,141.1,675.9)" />
<use xlink:href="#f2_2g" transform="matrix(12,0,0,12,149.9,675.9)" />
<use xlink:href="#f2_21" transform="matrix(12,0,0,12,155.4,675.9)" />
<use xlink:href="#f2_2e" transform="matrix(12,0,0,12,163.5,675.9)" />
<use xlink:href="#f2_2f" transform="matrix(12,0,0,12,169.7,675.9)" />
<use xlink:href="#f2_21" transform="matrix(12,0,0,12,176.7,675.9)" />
<use xlink:href="#f2_1z" transform="matrix(12,0,0,12,184.7,675.9)" />
<use xlink:href="#f2_2g" transform="matrix(12,0,0,12,192.8,675.9)" />
<use xlink:href="#f2_25" transform="matrix(12,0,0,12,198.6,675.9)" />
<use xlink:href="#f2_2a" transform="matrix(12,0,0,12,203.4,675.9)" />
<use xlink:href="#f2_23" transform="matrix(12,0,0,12,212.2,675.9)" />
<use xlink:href="#f2_28" transform="matrix(12,0,0,12,226.5,675.9)" />
<use xlink:href="#f2_25" transform="matrix(12,0,0,12,231.3,675.9)" />
<use xlink:href="#f2_2a" transform="matrix(12,0,0,12,236,675.9)" />
<use xlink:href="#f2_21" transform="matrix(12,0,0,12,245.2,675.9)" />
<use xlink:href="#f2_2f" transform="matrix(12,0,0,12,253.6,675.9)" />
<use xlink:href="#f2_1x" transform="matrix(12,0,0,12,265.3,675.9)" />
<use xlink:href="#f2_2a" transform="matrix(12,0,0,12,273.4,675.9)" />
<use xlink:href="#f2_20" transform="matrix(12,0,0,12,282.2,675.9)" />
<use xlink:href="#f2_2g" transform="matrix(12,0,0,12,296.1,675.9)" />
<use xlink:href="#f2_24" transform="matrix(12,0,0,12,301.6,675.9)" />
<use xlink:href="#f2_21" transform="matrix(12,0,0,12,310.4,675.9)" />
<use xlink:href="#f2_25" transform="matrix(12,0,0,12,318.8,675.9)" />
<use xlink:href="#f2_2e" transform="matrix(12,0,0,12,323.6,675.9)" />
<use xlink:href="#f2_2c" transform="matrix(12,0,0,12,334.5,675.9)" />
<use xlink:href="#f2_2b" transform="matrix(12,0,0,12,343.7,675.9)" />
<use xlink:href="#f2_25" transform="matrix(12,0,0,12,353.2,675.9)" />
<use xlink:href="#f2_2a" transform="matrix(12,0,0,12,358,675.9)" />
<use xlink:href="#f2_2g" transform="matrix(12,0,0,12,366.8,675.9)" />
<use xlink:href="#f2_2b" transform="matrix(12,0,0,12,376.7,675.9)" />
<use xlink:href="#f2_22" transform="matrix(12,0,0,12,386.2,675.9)" />
<use xlink:href="#f2_25" transform="matrix(12,0,0,12,396.8,675.9)" />
<use xlink:href="#f2_2a" transform="matrix(12,0,0,12,401.6,675.9)" />
<use xlink:href="#f2_2g" transform="matrix(12,0,0,12,410.4,675.9)" />
<use xlink:href="#f2_21" transform="matrix(12,0,0,12,415.8,675.9)" />
<use xlink:href="#f2_2e" transform="matrix(12,0,0,12,423.9,675.9)" />
<use xlink:href="#f2_2f" transform="matrix(12,0,0,12,430.1,675.9)" />
<use xlink:href="#f2_21" transform="matrix(12,0,0,12,437.1,675.9)" />
<use xlink:href="#f2_1z" transform="matrix(12,0,0,12,445.2,675.9)" />
<use xlink:href="#f2_2g" transform="matrix(12,0,0,12,453.2,675.9)" />
<use xlink:href="#f2_25" transform="matrix(12,0,0,12,458.7,675.9)" />
<use xlink:href="#f2_2b" transform="matrix(12,0,0,12,463.1,675.9)" />
<use xlink:href="#f2_2a" transform="matrix(12,0,0,12,472.6,675.9)" />
<use xlink:href="#f2_25" transform="matrix(12,0,0,12,486.5,675.9)" />
<use xlink:href="#f2_2f" transform="matrix(12,0,0,12,491.3,675.9)" />
<use xlink:href="#f2_c" transform="matrix(12,0,0,12,503,675.9)" />
<use xlink:href="#f5_4y" transform="matrix(12,0,0,12,509.9,675.9)" />
<use xlink:href="#f2_l" transform="matrix(12,0,0,12,519,675.9)" />
<use xlink:href="#f2_g" transform="matrix(12,0,0,12,528.2,675.9)" />
<use xlink:href="#f5_4y" transform="matrix(12,0,0,12,537.7,675.9)" />
<use xlink:href="#f2_q" transform="matrix(12,0,0,12,546.9,675.9)" />
<use xlink:href="#f2_g" transform="matrix(12,0,0,12,556.1,675.9)" />
<use xlink:href="#f5_4y" transform="matrix(12,0,0,12,565.2,675.9)" />
<use xlink:href="#f2_l" transform="matrix(12,0,0,12,574.4,675.9)" />
<use xlink:href="#f2_m" transform="matrix(12,0,0,12,583.6,675.9)" />
<use xlink:href="#f2_d" transform="matrix(12,0,0,12,592.7,675.9)" />
<use xlink:href="#f2_i" transform="matrix(12,0,0,12,598.6,675.9)" />
<use xlink:href="#f6_1f" transform="matrix(12,0,0,12,442,700.5)" />
<use xlink:href="#f6_1i" transform="matrix(12,0,0,12,455.2,700.5)" />
</g>
<g clip-path="url(#c2_155)">
<g fill="#000000" >
<use xlink:href="#f7_11" transform="matrix(13,0,0,12.2,59.4,904.1)" />
<use xlink:href="#f7_12" transform="matrix(13,0,0,12.2,70.5,904.1)" />
<use xlink:href="#f7_1f" transform="matrix(13,0,0,12.2,100.2,904.1)" />
<use xlink:href="#f7_12" transform="matrix(13,0,0,12.2,113.3,904.1)" />
<use xlink:href="#f7_1f" transform="matrix(13,0,0,12.2,141.5,904.1)" />
<use xlink:href="#f7_11" transform="matrix(13,0,0,12.2,154.7,904.1)" />
<use xlink:href="#f3_x" transform="matrix(13,0,0,12.2,86.3,904.1)" />
<use xlink:href="#f3_h" transform="matrix(13,0,0,12.2,128.4,904.1)" />
</g>
</g>
<image preserveAspectRatio="none" x="58" y="867" width="147" height="32" xlink:href="img/6.png" />
<g clip-path="url(#c3_155)">
<g fill="#000000" >
<use xlink:href="#f2_l" transform="matrix(7.2,0,0,7.1,154.1,995)" />
<use xlink:href="#f2_11" transform="matrix(12.5,0,0,12.2,125,934.4)" />
<use xlink:href="#f2_12" transform="matrix(12.5,0,0,12.2,138,934.4)" />
<use xlink:href="#f2_n" transform="matrix(12.5,0,0,12.2,178.4,934.4)" />
<use xlink:href="#f2_25" transform="matrix(12.5,0,0,12.2,186.7,934.4)" />
<use xlink:href="#f2_m" transform="matrix(12.5,0,0,12.2,208.4,934.4)" />
<use xlink:href="#f2_26" transform="matrix(12.5,0,0,12.2,219.6,934.4)" />
<use xlink:href="#f2_p" transform="matrix(12.5,0,0,12.2,239.3,934.4)" />
<use xlink:href="#f2_27" transform="matrix(12.5,0,0,12.2,248.5,934.4)" />
<use xlink:href="#f2_23" transform="matrix(12.5,0,0,12.2,124.7,962)" />
<use xlink:href="#f2_25" transform="matrix(12.5,0,0,12.2,133.9,962)" />
<use xlink:href="#f2_2i" transform="matrix(12.5,0,0,12.2,139.1,962)" />
<use xlink:href="#f2_21" transform="matrix(12.5,0,0,12.2,147.9,962)" />
<use xlink:href="#f2_2a" transform="matrix(12.5,0,0,12.2,156,962)" />
<use xlink:href="#f2_2c" transform="matrix(12.5,0,0,12.2,170,962)" />
<use xlink:href="#f2_28" transform="matrix(12.5,0,0,12.2,179.2,962)" />
<use xlink:href="#f2_1x" transform="matrix(12.5,0,0,12.2,184.1,962)" />
<use xlink:href="#f2_2a" transform="matrix(12.5,0,0,12.2,192.1,962)" />
<use xlink:href="#f2_21" transform="matrix(12.5,0,0,12.2,201.3,962)" />
<use xlink:href="#f2_2k" transform="matrix(12.5,0,0,12.2,213.9,962)" />
<use xlink:href="#f2_m" transform="matrix(12.5,0,0,12.2,239.9,962)" />
<use xlink:href="#f2_2l" transform="matrix(12.5,0,0,12.2,250,962)" />
<use xlink:href="#f2_o" transform="matrix(12.5,0,0,12.2,275.7,962)" />
<use xlink:href="#f2_2m" transform="matrix(12.5,0,0,12.2,285.2,962)" />
<use xlink:href="#f2_l" transform="matrix(12.5,0,0,12.2,310.1,962)" />
<use xlink:href="#f2_k" transform="matrix(12.5,0,0,12.2,319.3,962)" />
<use xlink:href="#f2_2a" transform="matrix(12.5,0,0,12.2,144.8,994.2)" />
<use xlink:href="#f2_25" transform="matrix(12.5,0,0,12.2,178.4,994.2)" />
<use xlink:href="#f2_m" transform="matrix(12.5,0,0,12.2,199.9,994.2)" />
<use xlink:href="#f2_26" transform="matrix(12.5,0,0,12.2,211.1,994.2)" />
<use xlink:href="#f2_o" transform="matrix(12.5,0,0,12.2,231.7,994.2)" />
<use xlink:href="#f2_27" transform="matrix(12.5,0,0,12.2,241.2,994.2)" />
<use xlink:href="#f3_x" transform="matrix(12.5,0,0,12.2,154,934.4)" />
<use xlink:href="#f3_h" transform="matrix(12.5,0,0,12.2,168.3,934.4)" />
<use xlink:href="#f3_f" transform="matrix(12.5,0,0,12.2,194.9,934.4)" />
<use xlink:href="#f3_h" transform="matrix(12.5,0,0,12.2,226.7,934.4)" />
<use xlink:href="#f3_h" transform="matrix(12.5,0,0,12.2,226.8,962)" />
<use xlink:href="#f3_f" transform="matrix(12.5,0,0,12.2,262.3,962)" />
<use xlink:href="#f3_x" transform="matrix(12.5,0,0,12.2,297.9,962)" />
<use xlink:href="#f3_1s" transform="matrix(12.5,0,0,12.2,122.2,994.2)" />
<use xlink:href="#f3_x" transform="matrix(12.5,0,0,12.2,164.7,994.2)" />
<use xlink:href="#f3_h" transform="matrix(12.5,0,0,12.2,186.7,994.2)" />
<use xlink:href="#f3_f" transform="matrix(12.5,0,0,12.2,218.2,994.2)" />
</g>
</g>
<image preserveAspectRatio="none" x="125" y="897" width="67" height="32" xlink:href="img/7.png" />
<image preserveAspectRatio="none" x="186" y="907" width="102" height="32" xlink:href="img/8.png" />
<image preserveAspectRatio="none" x="146" y="957" width="73" height="32" xlink:href="img/9.png" />
<image preserveAspectRatio="none" x="178" y="967" width="102" height="32" xlink:href="img/10.png" />
<g fill="#000000" >
<use xlink:href="#f2_1k" transform="matrix(12,0,0,12,55,1021.8)" />
<use xlink:href="#f2_24" transform="matrix(12,0,0,12,66.4,1021.8)" />
<use xlink:href="#f2_21" transform="matrix(12,0,0,12,75.2,1021.8)" />
<use xlink:href="#f2_2e" transform="matrix(12,0,0,12,88,1021.8)" />
<use xlink:href="#f2_21" transform="matrix(12,0,0,12,94.2,1021.8)" />
<use xlink:href="#f2_2d" transform="matrix(12,0,0,12,102.3,1021.8)" />
<use xlink:href="#f2_2h" transform="matrix(12,0,0,12,111.4,1021.8)" />
<use xlink:href="#f2_25" transform="matrix(12,0,0,12,121,1021.8)" />
<use xlink:href="#f2_2e" transform="matrix(12,0,0,12,125.4,1021.8)" />
<use xlink:href="#f2_21" transform="matrix(12,0,0,12,131.6,1021.8)" />
<use xlink:href="#f2_20" transform="matrix(12,0,0,12,139.6,1021.8)" />
<use xlink:href="#f2_2c" transform="matrix(12,0,0,12,153.6,1021.8)" />
<use xlink:href="#f2_28" transform="matrix(12,0,0,12,163.1,1021.8)" />
<use xlink:href="#f2_1x" transform="matrix(12,0,0,12,167.5,1021.8)" />
<use xlink:href="#f2_2a" transform="matrix(12,0,0,12,175.9,1021.8)" />
<use xlink:href="#f2_21" transform="matrix(12,0,0,12,185.1,1021.8)" />
<use xlink:href="#f2_25" transform="matrix(12,0,0,12,198.2,1021.8)" />
<use xlink:href="#f2_2f" transform="matrix(12,0,0,12,202.6,1021.8)" />
<use xlink:href="#f2_2c" transform="matrix(12,0,0,12,214.4,1021.8)" />
<use xlink:href="#f2_21" transform="matrix(12,0,0,12,223.5,1021.8)" />
<use xlink:href="#f2_2e" transform="matrix(12,0,0,12,231.6,1021.8)" />
<use xlink:href="#f2_2c" transform="matrix(12,0,0,12,237.8,1021.8)" />
<use xlink:href="#f2_21" transform="matrix(12,0,0,12,247,1021.8)" />
<use xlink:href="#f2_2a" transform="matrix(12,0,0,12,255.4,1021.8)" />
<use xlink:href="#f2_20" transform="matrix(12,0,0,12,264.2,1021.8)" />
<use xlink:href="#f2_25" transform="matrix(12,0,0,12,273.7,1021.8)" />
<use xlink:href="#f2_1z" transform="matrix(12,0,0,12,278.5,1021.8)" />
<use xlink:href="#f2_2h" transform="matrix(12,0,0,12,286.5,1021.8)" />
<use xlink:href="#f2_28" transform="matrix(12,0,0,12,296,1021.8)" />
<use xlink:href="#f2_1x" transform="matrix(12,0,0,12,300.8,1021.8)" />
<use xlink:href="#f2_2e" transform="matrix(12,0,0,12,308.9,1021.8)" />
<use xlink:href="#f2_2g" transform="matrix(12,0,0,12,319.8,1021.8)" />
<use xlink:href="#f2_2b" transform="matrix(12,0,0,12,324.9,1021.8)" />
<use xlink:href="#f2_23" transform="matrix(12,0,0,12,339.2,1021.8)" />
<use xlink:href="#f2_25" transform="matrix(12,0,0,12,348.4,1021.8)" />
<use xlink:href="#f2_2i" transform="matrix(12,0,0,12,352.8,1021.8)" />
<use xlink:href="#f2_21" transform="matrix(12,0,0,12,362,1021.8)" />
<use xlink:href="#f2_2a" transform="matrix(12,0,0,12,370.4,1021.8)" />
<use xlink:href="#f2_2c" transform="matrix(12,0,0,12,383.9,1021.8)" />
<use xlink:href="#f2_28" transform="matrix(12,0,0,12,393.5,1021.8)" />
<use xlink:href="#f2_1x" transform="matrix(12,0,0,12,397.9,1021.8)" />
<use xlink:href="#f2_2a" transform="matrix(12,0,0,12,406.3,1021.8)" />
<use xlink:href="#f2_21" transform="matrix(12,0,0,12,415.1,1021.8)" />
<use xlink:href="#f2_i" transform="matrix(12,0,0,12,423.1,1021.8)" />
<use xlink:href="#f2_1k" transform="matrix(12,0,0,12,55,1050.1)" />
<use xlink:href="#f2_24" transform="matrix(12,0,0,12,66.4,1050.1)" />
<use xlink:href="#f2_21" transform="matrix(12,0,0,12,75.2,1050.1)" />
<use xlink:href="#f2_2e" transform="matrix(12,0,0,12,83.3,1050.1)" />
<use xlink:href="#f2_21" transform="matrix(12,0,0,12,89.5,1050.1)" />
<use xlink:href="#f2_22" transform="matrix(12,0,0,12,97.9,1050.1)" />
<use xlink:href="#f2_2b" transform="matrix(12,0,0,12,103.4,1050.1)" />
<use xlink:href="#f2_2e" transform="matrix(12,0,0,12,112.9,1050.1)" />
<use xlink:href="#f2_21" transform="matrix(12,0,0,12,119.1,1050.1)" />
<use xlink:href="#f2_2a" transform="matrix(12,0,0,12,131.9,1050.1)" />
<use xlink:href="#f2_2e" transform="matrix(12,0,0,12,145.5,1050.1)" />
<use xlink:href="#f2_2b" transform="matrix(12,0,0,12,156.1,1050.1)" />
<use xlink:href="#f2_22" transform="matrix(12,0,0,12,165.6,1050.1)" />
<use xlink:href="#f2_2e" transform="matrix(12,0,0,12,175.9,1050.1)" />
<use xlink:href="#f2_21" transform="matrix(12,0,0,12,182.1,1050.1)" />
<use xlink:href="#f2_2d" transform="matrix(12,0,0,12,190.1,1050.1)" />
<use xlink:href="#f2_2h" transform="matrix(12,0,0,12,199.3,1050.1)" />
<use xlink:href="#f2_25" transform="matrix(12,0,0,12,208.8,1050.1)" />
<use xlink:href="#f2_2e" transform="matrix(12,0,0,12,213.2,1050.1)" />
<use xlink:href="#f2_21" transform="matrix(12,0,0,12,219.4,1050.1)" />
<use xlink:href="#f2_20" transform="matrix(12,0,0,12,227.5,1050.1)" />
<use xlink:href="#f2_2c" transform="matrix(12,0,0,12,241.4,1050.1)" />
<use xlink:href="#f2_28" transform="matrix(12,0,0,12,250.9,1050.1)" />
<use xlink:href="#f2_1x" transform="matrix(12,0,0,12,255.3,1050.1)" />
<use xlink:href="#f2_2a" transform="matrix(12,0,0,12,263.7,1050.1)" />
<use xlink:href="#f2_21" transform="matrix(12,0,0,12,273.3,1050.1)" />
<use xlink:href="#f2_2j" transform="matrix(12,0,0,12,286.1,1050.1)" />
<use xlink:href="#f2_25" transform="matrix(12,0,0,12,299.6,1050.1)" />
<use xlink:href="#f2_28" transform="matrix(12,0,0,12,304.4,1050.1)" />
<use xlink:href="#f2_28" transform="matrix(12,0,0,12,309.5,1050.1)" />
<use xlink:href="#f2_1y" transform="matrix(12,0,0,12,319.1,1050.1)" />
<use xlink:href="#f2_21" transform="matrix(12,0,0,12,328.2,1050.1)" />
<use xlink:href="#f2_2c" transform="matrix(12,0,0,12,341,1050.1)" />
<use xlink:href="#f2_21" transform="matrix(12,0,0,12,350.2,1050.1)" />
<use xlink:href="#f2_2e" transform="matrix(12,0,0,12,358.3,1050.1)" />
<use xlink:href="#f2_2c" transform="matrix(12,0,0,12,364.5,1050.1)" />
<use xlink:href="#f2_21" transform="matrix(12,0,0,12,373.6,1050.1)" />
<use xlink:href="#f2_2a" transform="matrix(12,0,0,12,381.7,1050.1)" />
<use xlink:href="#f2_20" transform="matrix(12,0,0,12,390.5,1050.1)" />
<use xlink:href="#f2_25" transform="matrix(12,0,0,12,400,1050.1)" />
<use xlink:href="#f2_1z" transform="matrix(12,0,0,12,404.8,1050.1)" />
<use xlink:href="#f2_2h" transform="matrix(12,0,0,12,412.9,1050.1)" />
<use xlink:href="#f2_28" transform="matrix(12,0,0,12,422.4,1050.1)" />
<use xlink:href="#f2_1x" transform="matrix(12,0,0,12,427.5,1050.1)" />
<use xlink:href="#f2_2e" transform="matrix(12,0,0,12,435.6,1050.1)" />
<use xlink:href="#f2_2g" transform="matrix(12,0,0,12,446.2,1050.1)" />
<use xlink:href="#f2_2b" transform="matrix(12,0,0,12,451.3,1050.1)" />
</g>
<g clip-path="url(#c4_155)">
<g fill="#000000" >
<use xlink:href="#f2_l" transform="matrix(7,0,0,7,478,1051.3)" />
<use xlink:href="#f2_2a" transform="matrix(12.1,0,0,12.2,468.3,1050.4)" />
</g>
</g>
<image preserveAspectRatio="none" x="469" y="1013" width="77" height="32" xlink:href="img/11.png" />
<g fill="#000000" >
<use xlink:href="#f2_1x" transform="matrix(12,0,0,12,490.4,1050.1)" />
<use xlink:href="#f2_2a" transform="matrix(12,0,0,12,498.5,1050.1)" />
<use xlink:href="#f2_20" transform="matrix(12,0,0,12,507.3,1050.1)" />
<use xlink:href="#f2_11" transform="matrix(12,0,0,12,521.2,1050.1)" />
<use xlink:href="#f2_12" transform="matrix(12,0,0,12,534,1050.1)" />
<use xlink:href="#f2_i" transform="matrix(12,0,0,12,546.1,1050.1)" />
</g>
<image preserveAspectRatio="none" x="55" y="707" width="207" height="172" xlink:href="img/12.png" />
<path fill-rule="evenodd" d="M37.4,38.1h.7v-.7h-.7v.7Z" class="g3_155" />
<path fill-rule="evenodd" d="M37.4,38.1h.7v-.7h-.7v.7Z" class="g3_155" />
<path fill-rule="evenodd" d="M38.1,38.1H871.5v-.7H38.1v.7Z" class="g3_155" />
<path fill-rule="evenodd" d="M871.5,38.1h.8v-.7h-.8v.7Z" class="g3_155" />
<path fill-rule="evenodd" d="M871.5,38.1h.8v-.7h-.8v.7Z" class="g3_155" />
<path fill-rule="evenodd" d="M37.4,1248.5h.7V38.1h-.7V1248.5Z" class="g3_155" />
<path fill-rule="evenodd" d="M872.3,1248.5h.7V38.1h-.7V1248.5Z" class="g3_155" />
<path fill-rule="evenodd" d="M871.5,1248.5h.8V38.1h-.8V1248.5Z" class="g3_155" />
<path fill-rule="evenodd" d="M37.4,1249.2h.7v-.7h-.7v.7Z" class="g3_155" />
<path fill-rule="evenodd" d="M37.4,1249.2h.7v-.7h-.7v.7Z" class="g3_155" />
<path fill-rule="evenodd" d="M38.1,1249.9H871.5v-.7H38.1v.7Z" class="g3_155" />
<path fill-rule="evenodd" d="M38.1,1249.2H871.5v-.7H38.1v.7Z" class="g3_155" />
<path fill-rule="evenodd" d="M872.3,1249.9h.7v-1.4h-.7v1.4Z" class="g3_155" />
<path fill-rule="evenodd" d="M871.5,1249.9H873v-.7h-1.5v.7Z" class="g3_155" />
<path fill-rule="evenodd" d="M871.5,1249.2h.8v-.7h-.8v.7Z" class="g3_155" />
<path fill-rule="evenodd" d="M871.5,1249.2h.8v-.7h-.8v.7Z" class="g3_155" />
<defs>
<path d="M489,-15c0,0,-99,0,-179,30c0,0,-80,30,-136,91c0,0,-56,61,-85,152c0,0,-30,91,-30,212c0,0,0,123,32,218c0,0,33,96,92,161c0,0,59,65,142,98c0,0,82,34,181,34c0,0,40,0,78,-7c0,0,37,-7,69,-18c0,0,31,-11,57,-25c0,0,25,-14,35,-24c0,0,10,-10,14,-17c0,0,4,-7,6,-17c0,0,2,-11,3,-25c0,0,2,-14,2,-35c0,0,0,-22,-2,-38c0,0,-1,-15,-5,-25c0,0,-4,-10,-9,-14c0,0,-5,-5,-12,-5c0,0,-11,0,-28,13c0,0,-18,13,-45,29c0,0,-27,16,-65,29c0,0,-37,13,-89,13c0,0,-58,0,-103,-23c0,0,-45,-23,-77,-67c0,0,-31,-44,-48,-106c0,0,-16,-61,-16,-139c0,0,0,-85,17,-147c0,0,18,-62,50,-103c0,0,33,-40,79,-60c0,0,45,-19,103,-19c0,0,52,0,90,12c0,0,38,12,65,27c0,0,27,15,45,27c0,0,17,12,27,12c0,0,8,0,12,-3c0,0,4,-3,7,-12c0,0,3,-9,5,-25c0,0,1,-16,1,-43c0,0,0,-18,-1,-31c0,0,-1,-14,-3,-23c0,0,-2,-9,-6,-16c0,0,-4,-7,-12,-15c0,0,-8,-9,-32,-22c0,0,-23,-14,-57,-26C661,13,627,1,583,-6c0,0,-43,-9,-94,-9Z" 
id="f0_j"
transform="scale(0.001,-0.001)" />

<path d="M440,150c0,0,41,0,68,8c0,0,28,9,49,26c0,0,20,16,32,41c0,0,11,25,11,58c0,0,0,33,-11,60c0,0,-11,26,-33,44c0,0,-21,18,-55,28c0,0,-33,9,-87,9H298V150ZM407,567c0,0,42,0,68,10c0,0,25,10,42,28c0,0,16,17,24,41c0,0,9,24,9,50c0,0,0,29,-9,52c0,0,-9,23,-27,39c0,0,-18,15,-45,23c0,0,-27,8,-72,8H298V567ZM164,0c0,0,-25,0,-42,15c0,0,-16,14,-16,47V903c0,0,0,33,16,48c0,0,17,14,42,14H406c0,0,88,0,150,-15c0,0,61,-15,103,-45c0,0,42,-30,65,-77c0,0,22,-46,22,-108c0,0,0,-36,-9,-67c0,0,-9,-31,-26,-56c0,0,-17,-25,-42,-45c0,0,-25,-19,-57,-31c0,0,41,-7,76,-26c0,0,34,-19,60,-48c0,0,26,-30,41,-69c0,0,15,-40,15,-89c0,0,0,-51,-14,-93c0,0,-15,-42,-40,-74c0,0,-25,-32,-59,-55c0,0,-35,-23,-77,-38C614,29,573,14,525,7C525,7,478,0,420,0Z" 
id="f0_i"
transform="scale(0.001,-0.001)" />

<path d="M320,-17c0,0,-50,0,-93,9c0,0,-43,8,-76,19c0,0,-32,11,-54,24C97,35,75,48,65,58c0,0,-10,9,-14,28c0,0,-4,18,-4,52c0,0,0,23,1,39c0,0,2,15,5,25c0,0,4,10,9,14c0,0,6,4,13,4c0,0,11,0,30,-12c0,0,19,-13,49,-28c0,0,30,-15,71,-27c0,0,42,-12,96,-12c0,0,36,0,64,8c0,0,29,9,49,25c0,0,19,15,30,38c0,0,10,23,10,52c0,0,0,33,-18,56c0,0,-18,24,-46,42c0,0,-29,18,-66,34c0,0,-36,16,-75,34c0,0,-39,18,-76,41c0,0,-36,23,-65,54c0,0,-29,32,-47,75c0,0,-17,44,-17,104c0,0,0,70,25,122c0,0,26,53,70,88c0,0,43,34,103,51c0,0,59,18,125,18c0,0,35,0,69,-6c0,0,34,-5,64,-14c0,0,30,-9,53,-20c0,0,23,-11,31,-18c0,0,7,-8,10,-13c0,0,3,-5,4,-14c0,0,2,-8,3,-21c0,0,1,-13,1,-33c0,0,0,-21,-1,-36c0,0,-1,-15,-4,-25c0,0,-3,-9,-7,-14c0,0,-5,-4,-14,-4c0,0,-8,0,-26,10c0,0,-18,10,-44,23c0,0,-26,12,-60,22c0,0,-34,10,-75,10c0,0,-32,0,-56,-8c0,0,-24,-8,-40,-21c0,0,-16,-14,-24,-34c0,0,-8,-19,-8,-41c0,0,0,-32,18,-56c0,0,17,-23,46,-42c0,0,30,-18,67,-34c0,0,38,-16,76,-34c0,0,39,-18,76,-41c0,0,38,-22,67,-54c0,0,29,-32,47,-75c0,0,18,-43,18,-101c0,0,0,-76,-29,-133c0,0,-28,-58,-77,-96C572,60,524,21,459,2c0,0,-65,-19,-139,-19Z" 
id="f0_2n"
transform="scale(0.001,-0.001)" />

<path d="M164,0c0,0,-25,0,-42,15c0,0,-16,14,-16,47V903c0,0,0,33,16,48c0,0,17,14,42,14H645c0,0,7,0,12,-4c0,0,5,-3,9,-13c0,0,4,-9,6,-24c0,0,2,-14,2,-36c0,0,0,-21,-2,-36c0,0,-2,-14,-6,-23c0,0,-4,-9,-9,-13c0,0,-5,-4,-12,-4H301V576H593c0,0,6,0,12,-4c0,0,6,-4,9,-13c0,0,4,-8,6,-23c0,0,2,-14,2,-35c0,0,0,-22,-2,-36c0,0,-2,-14,-6,-23c0,0,-3,-8,-9,-12c0,0,-6,-4,-12,-4H301V154H649c0,0,6,0,12,-5c0,0,5,-4,9,-13c0,0,4,-9,6,-23c0,0,2,-15,2,-36c0,0,0,-22,-2,-36c0,0,-2,-15,-6,-24c0,0,-4,-9,-9,-13c0,0,-6,-4,-12,-4Z" 
id="f0_t"
transform="scale(0.001,-0.001)" />

<path d="M79,297c0,0,-19,0,-27,18c0,0,-8,17,-8,60c0,0,0,41,8,59c0,0,8,17,27,17H389c0,0,9,0,15,-4c0,0,7,-4,11,-13c0,0,5,-9,7,-23c0,0,1,-15,1,-36c0,0,0,-43,-8,-61c0,0,-8,-17,-26,-17Z" 
id="f0_oj"
transform="scale(0.001,-0.001)" />

<path d="M121,-4c0,0,-39,0,-60,2C61,-2,39,0,32,8c0,0,-8,8,-3,24c0,0,4,15,18,41L279,495L64,892c0,0,-14,26,-19,42c0,0,-5,17,4,24c0,0,9,8,32,10c0,0,23,2,65,2c0,0,35,0,56,-2c0,0,20,-1,32,-4c0,0,12,-4,17,-10c0,0,5,-6,9,-15L431,620L595,939c0,0,5,9,10,15c0,0,5,6,16,10c0,0,10,3,29,4c0,0,19,2,53,2c0,0,37,0,59,-2c0,0,22,-2,30,-10c0,0,8,-8,4,-24c0,0,-4,-16,-17,-42L564,497L793,73c0,0,14,-26,18,-41c0,0,4,-16,-5,-24c0,0,-9,-8,-32,-10c0,0,-24,-2,-65,-2c0,0,-36,0,-56,2c0,0,-20,1,-31,3c0,0,-12,4,-17,10c0,0,-5,6,-9,15L414,374L233,26c0,0,-4,-9,-9,-15c0,0,-6,-6,-17,-10c0,0,-12,-2,-32,-3c0,0,-21,-2,-54,-2Z" 
id="f0_3e"
transform="scale(0.001,-0.001)" />

<path d="M204,-4c0,0,-28,0,-47,2c0,0,-19,2,-31,5c0,0,-11,4,-16,10c0,0,-4,6,-4,13V939c0,0,0,7,4,13c0,0,5,6,17,10c0,0,11,3,30,6c0,0,19,2,47,2c0,0,29,0,48,-2c0,0,18,-3,29,-6c0,0,11,-4,16,-10c0,0,5,-6,5,-13V26c0,0,0,-7,-5,-13c0,0,-5,-6,-16,-10c0,0,-11,-3,-29,-5c0,0,-19,-2,-48,-2Z" 
id="f0_1c"
transform="scale(0.001,-0.001)" />

<path d="M127,0c0,0,-16,0,-28,3C99,3,87,6,80,15c0,0,-8,8,-11,25c0,0,-3,16,-3,42c0,0,0,25,2,42c0,0,2,18,8,32c0,0,6,14,15,27c0,0,9,13,24,29L282,390c0,0,50,53,81,95c0,0,30,43,47,79c0,0,17,35,24,65c0,0,6,30,6,57c0,0,0,24,-8,46c0,0,-8,22,-23,39c0,0,-15,16,-38,25c0,0,-23,10,-55,10c0,0,-44,0,-78,-12c0,0,-33,-11,-59,-25c0,0,-26,-13,-43,-25c0,0,-17,-12,-27,-12c0,0,-7,0,-11,5c0,0,-5,4,-8,15c0,0,-3,10,-5,28c0,0,-2,17,-2,42c0,0,0,18,1,29c0,0,1,12,4,20c0,0,2,9,6,15c0,0,3,6,13,15c0,0,9,9,34,23c0,0,25,14,61,27c0,0,37,14,81,23c0,0,44,9,92,9c0,0,75,0,131,-19c0,0,57,-19,94,-53c0,0,37,-34,55,-81c0,0,19,-47,19,-100c0,0,0,-47,-9,-93c0,0,-9,-45,-37,-98c0,0,-29,-52,-80,-116c0,0,-52,-64,-136,-148L299,159H679c0,0,8,0,14,-4c0,0,6,-5,11,-14c0,0,4,-9,7,-25c0,0,2,-15,2,-36c0,0,0,-22,-2,-37c0,0,-2,-15,-6,-25c0,0,-3,-10,-9,-14c0,0,-6,-4,-14,-4Z" 
id="f0_rz"
transform="scale(0.001,-0.001)" />

<path d="M385,138c0,0,29,0,52,9c0,0,22,10,39,28c0,0,17,19,28,47c0,0,11,29,19,66c0,0,7,37,9,84c0,0,3,47,3,104c0,0,0,69,-4,122c0,0,-4,52,-11,91c0,0,-8,39,-20,66c0,0,-12,27,-28,43c0,0,-16,16,-37,22c0,0,-21,7,-47,7c0,0,-44,0,-73,-21c0,0,-28,-21,-45,-64c0,0,-17,-42,-24,-106c0,0,-6,-63,-6,-148c0,0,0,-103,8,-171c0,0,8,-67,26,-107c0,0,17,-40,45,-56c0,0,27,-16,66,-16ZM378,-17c0,0,-99,0,-164,33c0,0,-65,34,-103,98c0,0,-38,64,-54,156c0,0,-15,92,-15,209c0,0,0,115,19,208c0,0,19,94,61,160c0,0,42,65,110,101c0,0,68,35,165,35c0,0,99,0,164,-34c0,0,65,-34,103,-98c0,0,39,-64,53,-156c0,0,15,-92,15,-209c0,0,0,-115,-18,-209c0,0,-19,-93,-61,-159C653,118,611,53,543,17c0,0,-67,-34,-165,-34Z" 
id="f0_rx"
transform="scale(0.001,-0.001)" />

<path d="M142,0c0,0,-6,0,-12,4c0,0,-5,3,-9,12c0,0,-4,9,-6,23c0,0,-3,15,-3,36c0,0,0,21,2,36c0,0,2,14,6,23c0,0,4,9,10,13c0,0,5,5,12,5H322V779L166,693c0,0,-17,-8,-28,-10c0,0,-1,0,-3,0c-4,0,-10,1,-14,5c0,0,-6,6,-8,22c0,0,-2,15,-2,44c0,0,0,18,0,29c0,0,1,12,4,20c0,0,3,8,8,14c0,0,5,5,14,11L345,962c0,0,4,3,9,5c0,0,6,2,15,3c0,0,9,1,23,2c0,0,15,0,38,0c0,0,28,0,46,-1c0,0,17,-1,26,-4c0,0,9,-3,12,-7c0,0,3,-4,3,-11V152H675c0,0,7,0,12,-5c0,0,6,-4,10,-13c0,0,4,-9,6,-23c0,0,2,-15,2,-36c0,0,0,-21,-2,-36c0,0,-3,-14,-7,-23c0,0,-4,-9,-9,-12c0,0,-5,-4,-12,-4Z" 
id="f0_ry"
transform="scale(0.001,-0.001)" />

<path d="M337,-17c0,0,-50,0,-93,8c0,0,-43,7,-76,16c0,0,-34,11,-55,22c0,0,-22,11,-29,17c0,0,-6,6,-10,13c0,0,-3,8,-6,18c0,0,-2,10,-3,25c0,0,-1,16,-1,37c0,0,0,36,6,50c0,0,6,13,17,13c0,0,8,0,26,-10c0,0,18,-10,47,-21c0,0,28,-12,66,-22c0,0,38,-10,87,-10c0,0,41,0,72,10c0,0,31,9,53,27c0,0,22,17,33,42c0,0,11,25,11,56c0,0,0,34,-13,61c0,0,-13,26,-39,45c0,0,-26,20,-65,30c0,0,-39,10,-92,10H189c0,0,-9,0,-16,3c0,0,-7,3,-11,11c0,0,-5,8,-7,23c0,0,-1,14,-1,37c0,0,0,22,1,36c0,0,2,13,6,21c0,0,4,7,11,10c0,0,6,3,15,3h85c0,0,43,0,77,10c0,0,33,10,56,29c0,0,23,19,35,45c0,0,12,27,12,59c0,0,0,25,-8,47c0,0,-9,22,-25,38c0,0,-16,16,-41,26c0,0,-26,9,-60,9c0,0,-39,0,-73,-11c0,0,-34,-12,-62,-26c0,0,-27,-13,-46,-25c0,0,-19,-12,-28,-12c0,0,-6,0,-10,2c0,0,-5,3,-8,11c0,0,-3,7,-4,21c0,0,-2,14,-2,37c0,0,0,18,1,31c0,0,1,12,3,20c0,0,2,8,5,14c0,0,4,6,11,13c0,0,8,7,31,21c0,0,23,14,58,28c0,0,35,13,81,22c0,0,46,10,100,10c0,0,70,0,124,-17c0,0,54,-16,91,-47c0,0,37,-31,56,-76c0,0,19,-46,19,-102c0,0,0,-44,-11,-83c0,0,-12,-38,-33,-68c0,0,-22,-29,-54,-50c0,0,-33,-21,-75,-32v-2c0,0,50,-6,91,-26c0,0,40,-19,68,-49c0,0,28,-30,43,-68c0,0,15,-37,15,-81c0,0,0,-72,-28,-128c0,0,-27,-56,-77,-94C604,60,555,22,487,2c0,0,-69,-19,-150,-19Z" 
id="f0_s7"
transform="scale(0.001,-0.001)" />

<path d="M589,371L453,782h-1L317,371ZM106,-4c0,0,-35,0,-54,2C52,-2,32,0,25,8c0,0,-7,9,-5,24c0,0,2,16,11,42L329,931c0,0,4,13,10,21c0,0,6,7,19,12c0,0,13,4,36,5c0,0,23,1,61,1c0,0,44,0,71,-1c0,0,26,-1,40,-5c0,0,15,-5,21,-13c0,0,6,-8,11,-22L896,73c0,0,9,-27,11,-43c0,0,3,-15,-6,-23c0,0,-8,-7,-29,-9c0,0,-21,-2,-57,-2c0,0,-38,0,-59,1c0,0,-22,1,-33,4c0,0,-11,3,-16,9c0,0,-4,6,-7,16L635,220H272L211,31c0,0,-2,-11,-7,-18c0,0,-5,-7,-16,-11c0,0,-11,-3,-31,-4c0,0,-19,-2,-51,-2Z" 
id="f0_5"
transform="scale(0.001,-0.001)" />

<path d="M198,-4c0,0,-27,0,-45,2c0,0,-18,2,-28,5c0,0,-11,4,-15,10c0,0,-4,6,-4,13V887c0,0,0,38,20,58c0,0,20,20,53,20H308c0,0,34,0,59,-6c0,0,24,-5,42,-18c0,0,18,-13,30,-35c0,0,12,-21,21,-52L669,279h3L889,852c0,0,9,32,21,53c0,0,11,22,27,35c0,0,15,14,36,19c0,0,21,6,48,6h132c0,0,21,0,35,-5c0,0,15,-5,24,-15c0,0,9,-11,14,-25c0,0,5,-15,5,-33V26c0,0,0,-7,-4,-13c0,0,-4,-6,-15,-10c0,0,-11,-3,-29,-5c0,0,-18,-2,-45,-2c0,0,-27,0,-45,2c0,0,-18,2,-28,5c0,0,-11,4,-15,10c0,0,-5,6,-5,13V813h-1L764,27c0,0,-3,-10,-10,-16c0,0,-6,-6,-18,-10c0,0,-12,-3,-29,-4c0,0,-18,-1,-44,-1c0,0,-25,0,-43,2c0,0,-18,2,-29,5c0,0,-12,4,-19,10c0,0,-6,6,-9,14L293,813h-2V26c0,0,0,-7,-4,-13c0,0,-4,-6,-15,-10c0,0,-11,-3,-29,-5c0,0,-17,-2,-45,-2Z" 
id="f0_1x"
transform="scale(0.001,-0.001)" />

<path d="M193,-4c0,0,-26,0,-43,2c0,0,-18,2,-27,6c0,0,-10,4,-14,10c0,0,-3,6,-3,13V895c0,0,0,35,20,53c0,0,21,17,50,17H282c0,0,28,0,47,-5c0,0,20,-5,35,-16c0,0,15,-11,29,-31c0,0,13,-20,27,-49L608,511c0,0,17,-32,33,-63c0,0,16,-31,31,-62c0,0,14,-31,29,-60c0,0,14,-30,27,-60h1c0,0,-2,52,-3,109c0,0,-1,57,-1,108V936c0,0,0,7,4,13c0,0,5,6,15,11c0,0,10,4,28,6c0,0,17,2,44,2c0,0,25,0,42,-2c0,0,17,-2,27,-6c0,0,9,-5,13,-11c0,0,4,-6,4,-13V68c0,0,0,-17,-6,-30c0,0,-6,-14,-17,-23C879,15,869,6,856,2c0,0,-14,-3,-28,-3H744c0,0,-26,0,-45,4c0,0,-19,5,-35,19c0,0,-16,14,-31,38c0,0,-15,23,-34,60L359,572c0,0,-21,40,-43,86c0,0,-21,47,-38,91h-2c0,0,3,-54,5,-107c0,0,2,-53,2,-110V27c0,0,0,-7,-5,-13c0,0,-4,-6,-14,-10c0,0,-10,-4,-27,-6c0,0,-17,-2,-44,-2Z" 
id="f0_1y"
transform="scale(0.001,-0.001)" />

<path d="M378,-4c0,0,-28,0,-47,2c0,0,-19,2,-31,5c0,0,-11,4,-16,10c0,0,-4,6,-4,13V805H38c0,0,-8,0,-13,4c0,0,-5,5,-9,14c0,0,-3,9,-5,25c0,0,-2,15,-2,37c0,0,0,22,2,38c0,0,2,15,5,25c0,0,4,9,9,13c0,0,5,4,13,4H718c0,0,7,0,12,-4c0,0,6,-4,10,-13c0,0,3,-10,5,-25c0,0,2,-16,2,-38c0,0,0,-22,-2,-37c0,0,-2,-16,-5,-25c0,0,-4,-9,-10,-14c0,0,-5,-4,-12,-4H476V26c0,0,0,-7,-5,-13c0,0,-5,-6,-16,-10c0,0,-11,-3,-30,-5c0,0,-19,-2,-47,-2Z" 
id="f0_2t"
transform="scale(0.001,-0.001)" />

<path d="M514,145c0,0,72,0,121,27c0,0,48,26,78,73c0,0,30,46,42,107c0,0,13,62,13,131c0,0,0,76,-12,139c0,0,-12,62,-41,106c0,0,-29,45,-76,69c0,0,-48,24,-120,24c0,0,-72,0,-120,-27c0,0,-49,-27,-79,-73c0,0,-29,-45,-42,-106c0,0,-12,-61,-12,-129c0,0,0,-79,12,-142c0,0,12,-63,40,-108c0,0,28,-44,76,-68c0,0,48,-23,120,-23ZM508,-17c0,0,-113,0,-196,29c0,0,-84,29,-140,90c0,0,-56,60,-84,154c0,0,-28,93,-28,221c0,0,0,117,29,210c0,0,30,94,89,160c0,0,59,65,146,101c0,0,87,35,202,35c0,0,110,0,194,-29c0,0,84,-30,140,-90c0,0,56,-60,85,-153c0,0,29,-92,29,-217c0,0,0,-120,-30,-215c0,0,-30,-95,-89,-161C855,118,796,52,709,17c0,0,-87,-34,-201,-34Z" 
id="f0_24"
transform="scale(0.001,-0.001)" />

<path d="M299,0V777H162l36,173H508V0Z" 
id="f1_l"
transform="scale(0.001,-0.001)" />

<path d="M75,0L400,413c0,0,71,91,101,149c0,0,30,58,30,109c0,0,0,55,-36,91c0,0,-36,36,-91,36c0,0,-63,0,-91,-45c0,0,-28,-46,-34,-142H67c0,0,0,173,102,268c0,0,102,95,253,95c0,0,140,0,229,-82c0,0,89,-82,89,-209c0,0,0,-125,-104,-276L580,324c0,0,-34,-50,-85,-114L468,178H740V0Z" 
id="f1_m"
transform="scale(0.001,-0.001)" />

<path d="M44,-281L425,1053H537L156,-281Z" 
id="f1_j"
transform="scale(0.001,-0.001)" />

<path d="M407,475c0,0,61,0,105,44c0,0,44,43,44,103c0,0,0,64,-43,108c0,0,-44,43,-109,43c0,0,-57,0,-99,-44c0,0,-42,-45,-42,-107c0,0,0,-62,42,-104c0,0,42,-43,102,-43ZM195,0L430,323c0,0,-67,-8,-85,-8c0,0,-126,0,-212,92c0,0,-87,92,-87,227c0,0,0,141,107,237c0,0,106,96,264,96c0,0,151,0,246,-97c0,0,95,-96,95,-250c0,0,0,-112,-56,-223c0,0,-55,-112,-94,-168L448,0Z" 
id="f1_t"
transform="scale(0.001,-0.001)" />

<path d="M410,-14c0,0,-80,0,-162,14c0,0,-81,14,-144,38V270h48L178,134c0,0,28,-35,95,-62c0,0,68,-27,134,-27c0,0,104,0,163,53c0,0,58,54,58,148c0,0,0,54,-23,89c0,0,-22,35,-59,59c0,0,-37,24,-84,41c0,0,-47,17,-97,34c0,0,-49,17,-96,38c0,0,-47,21,-84,53c0,0,-37,32,-60,79c0,0,-23,48,-23,117c0,0,0,119,90,187c0,0,89,68,248,68c0,0,121,0,263,-32V771H654L628,893c0,0,-76,55,-188,55c0,0,-100,0,-156,-40c0,0,-56,-41,-56,-112c0,0,0,-49,22,-81c0,0,23,-32,60,-55c0,0,37,-22,84,-39c0,0,48,-16,97,-34c0,0,50,-17,97,-39c0,0,48,-22,85,-56c0,0,36,-34,59,-83c0,0,23,-49,23,-120c0,0,0,-145,-89,-224c0,0,-89,-79,-256,-79Z" 
id="f2_1j"
transform="scale(0.001,-0.001)" />

<path d="M377,45c0,0,99,0,147,73c0,0,47,73,47,237c0,0,0,161,-47,233c0,0,-47,72,-147,72c0,0,-97,0,-141,-69c0,0,-44,-69,-44,-236c0,0,0,-169,45,-240c0,0,44,-70,140,-70Zm0,-59c0,0,-158,0,-238,94c0,0,-81,95,-81,274c0,0,0,178,81,272c0,0,80,94,244,94c0,0,160,0,241,-92c0,0,82,-92,82,-274c0,0,0,-368,-329,-368Z" 
id="f2_2b"
transform="scale(0.001,-0.001)" />

<path d="M31,0V33L150,52v956L31,1026v34H274V52L394,33V0Z" 
id="f2_28"
transform="scale(0.001,-0.001)" />

<path d="M360,-14L72,649L0,668v33H327V668L216,648L420,164L615,649L504,668v33H764V668L697,652L416,-14Z" 
id="f2_2i"
transform="scale(0.001,-0.001)" />

<path d="M495,413c0,0,0,133,-34,190c0,0,-34,57,-105,57c0,0,-78,0,-119,-63c0,0,-42,-62,-42,-184ZM374,-14c0,0,-163,0,-239,87c0,0,-75,88,-75,283c0,0,0,183,77,273c0,0,76,91,219,91c0,0,269,0,269,-306V353H194V340c0,0,0,-103,23,-160c0,0,22,-57,70,-87c0,0,47,-29,124,-29c0,0,40,0,96,6c0,0,55,7,91,15V43C598,43,562,20,500,3c0,0,-61,-17,-126,-17Z" 
id="f2_21"
transform="scale(0.001,-0.001)" />

<path d="M460,-325c0,0,-148,79,-231,172c0,0,-84,93,-123,217c0,0,-39,126,-39,304c0,0,0,178,39,303c0,0,39,125,122,217c0,0,82,93,232,172V997c0,0,-91,-52,-145,-134c0,0,-54,-81,-79,-190c0,0,-25,-109,-25,-305c0,0,0,-194,26,-309c0,0,26,-114,82,-193c0,0,56,-79,141,-128v-63Z" 
id="f2_c"
transform="scale(0.001,-0.001)" />

<path d="M67,0V109L206,235c0,0,133,118,196,190c0,0,63,72,90,149c0,0,27,77,27,177c0,0,0,97,-44,148c0,0,-44,50,-144,50c0,0,-39,0,-81,-10c0,0,-42,-11,-74,-29L150,787H101V980c0,0,135,32,230,32c0,0,164,0,247,-68c0,0,82,-69,82,-193c0,0,0,-84,-32,-158c0,0,-33,-75,-100,-148c0,0,-67,-74,-222,-206c0,0,-67,-57,-141,-125H680V0Z" 
id="f2_m"
transform="scale(0.001,-0.001)" />

<path d="M49,-325v63c0,0,85,49,140,128c0,0,56,79,83,194c0,0,26,115,26,308c0,0,0,196,-25,305c0,0,-25,109,-79,190c0,0,-54,82,-145,134v63c0,0,149,-80,232,-172c0,0,83,-92,122,-217c0,0,39,-125,39,-303c0,0,0,-177,-39,-303c0,0,-39,-125,-122,-217c0,0,-83,-93,-232,-173Z" 
id="f2_d"
transform="scale(0.001,-0.001)" />

<path d="M449,50c0,0,162,0,276,114L353,504c0,0,-78,-33,-114,-91c0,0,-35,-57,-35,-139c0,0,0,-108,63,-166c0,0,63,-58,182,-58ZM439,605c0,0,72,27,104,53c0,0,31,25,47,63c0,0,16,37,16,92c0,0,0,143,-135,143c0,0,-79,0,-113,-36c0,0,-34,-35,-34,-107c0,0,0,-121,115,-208ZM429,-14c0,0,-185,0,-278,71c0,0,-93,72,-93,209c0,0,0,72,27,124c0,0,27,52,73,89c0,0,46,37,146,75c0,0,-112,109,-112,244c0,0,0,107,71,162c0,0,72,56,208,56c0,0,130,0,198,-53c0,0,69,-53,69,-155c0,0,0,-58,-25,-101c0,0,-25,-42,-71,-75c0,0,-45,-32,-152,-74L805,272c0,0,72,147,77,271L776,563v39h341V563L1013,543c0,0,-57,-198,-145,-329L1038,59L1161,40V0H904L777,116C777,116,699,46,614,16c0,0,-84,-30,-185,-30Z" 
id="f2_a"
transform="scale(0.001,-0.001)" />

<path d="M350,-14c0,0,-142,0,-269,31L73,228h49L156,87c0,0,29,-16,82,-28c0,0,54,-12,100,-12c0,0,117,0,173,54c0,0,56,53,56,178c0,0,0,99,-52,150c0,0,-51,51,-159,56l-107,6v61l107,7c0,0,84,5,124,52c0,0,41,48,41,145c0,0,0,101,-44,147c0,0,-44,45,-139,45c0,0,-40,0,-83,-10c0,0,-43,-11,-76,-29L153,786H104V979c0,0,74,19,127,26c0,0,54,6,107,6c0,0,321,0,321,-246c0,0,0,-104,-57,-165c0,0,-57,-62,-162,-77c0,0,136,-16,200,-78c0,0,64,-62,64,-173c0,0,0,-135,-92,-211c0,0,-93,-75,-262,-75Z" 
id="f2_n"
transform="scale(0.001,-0.001)" />

<path d="M134,0V40L339,60V876L137,804v39l292,166h39V60L672,40V0Z" 
id="f2_l"
transform="scale(0.001,-0.001)" />

<path d="M476,327V830h-4L114,327ZM476,0V220H30v99l488,686h86V327H740V220H604V0Z" 
id="f2_o"
transform="scale(0.001,-0.001)" />

<path d="M382,45c0,0,188,0,188,314c0,0,0,143,-47,213c0,0,-46,69,-141,69c0,0,-87,0,-146,-24V58c0,0,67,-13,146,-13ZM25,-325v35l88,18V649L34,668v33H231l1,-41c0,0,31,27,84,43c0,0,53,17,107,17c0,0,134,0,208,-94c0,0,73,-93,73,-267c0,0,0,-178,-80,-276c0,0,-80,-97,-232,-97c0,0,-84,0,-160,16c0,0,4,-53,4,-84V-272l123,-18v-35Z" 
id="f2_2c"
transform="scale(0.001,-0.001)" />

<path d="M289,-14c0,0,-179,0,-179,205V649L20,668v33H233V200c0,0,0,-128,120,-128c0,0,92,0,173,23V649L420,668v33H649V52L738,33V0H533l-6,57C527,57,474,28,405,7c0,0,-69,-21,-116,-21Z" 
id="f2_2h"
transform="scale(0.001,-0.001)" />

<path d="M249,-14c0,0,-71,0,-107,42c0,0,-35,42,-35,119V639H15v33l93,29l76,159h47V701H391V639H231V161c0,0,0,-48,22,-73c0,0,22,-24,57,-24c0,0,44,0,106,12V26C416,26,389,8,340,-2c0,0,-49,-12,-91,-12Z" 
id="f2_2g"
transform="scale(0.001,-0.001)" />

<path d="M191,-20c0,0,-39,0,-65,25c0,0,-25,27,-25,64c0,0,0,38,26,64c0,0,26,26,64,26c0,0,38,0,64,-26c0,0,26,-26,26,-64c0,0,0,-37,-25,-64c0,0,-26,-25,-65,-25Z" 
id="f2_i"
transform="scale(0.001,-0.001)" />

<path d="M410,45c0,0,90,0,130,58c0,0,40,59,40,193c0,0,0,122,-38,177c0,0,-38,54,-122,54c0,0,-102,0,-217,-37c0,0,0,-227,51,-336c0,0,52,-109,156,-109Zm3,-59c0,0,-169,0,-258,131c0,0,-89,131,-89,377c0,0,0,161,47,278c0,0,47,117,131,178c0,0,85,61,196,61c0,0,109,0,217,-26V813H608L582,915c0,0,-25,13,-67,23c0,0,-41,10,-75,10c0,0,-109,0,-170,-105c0,0,-60,-106,-66,-308c0,0,121,63,244,63c0,0,132,0,201,-74c0,0,69,-74,69,-214c0,0,0,-156,-78,-240c0,0,-79,-84,-227,-84Z" 
id="f2_q"
transform="scale(0.001,-0.001)" />

<path d="M377,45c0,0,100,0,147,52c0,0,47,52,47,174c0,0,0,119,-46,173c0,0,-47,54,-148,54c0,0,-98,0,-141,-51c0,0,-44,-51,-44,-176c0,0,0,-126,44,-176c0,0,44,-50,141,-50Zm2,518c0,0,84,0,123,46c0,0,39,46,39,148c0,0,0,102,-40,151c0,0,-41,48,-122,48c0,0,-79,0,-118,-47c0,0,-38,-47,-38,-152c0,0,0,-104,37,-149c0,0,38,-45,119,-45ZM377,-14c0,0,-319,0,-319,285c0,0,0,99,48,164c0,0,48,66,129,96c0,0,-65,30,-106,87c0,0,-40,56,-40,139c0,0,0,123,75,191c0,0,76,68,219,68c0,0,139,0,216,-67c0,0,76,-68,76,-192c0,0,0,-82,-40,-139c0,0,-40,-57,-108,-87c0,0,85,-31,132,-98c0,0,47,-67,47,-162c0,0,0,-142,-80,-214c0,0,-80,-71,-249,-71Z" 
id="f2_s"
transform="scale(0.001,-0.001)" />

<path d="M620,-14c0,0,-52,0,-93,43c0,0,-41,45,-77,203L384,522L132,0H0L340,703l-12,66c0,0,-23,107,-61,146c0,0,-37,38,-83,38c0,0,-42,0,-74,-30c0,0,-31,-31,-41,-100H43c0,0,2,117,57,187c0,0,40,51,96,51c0,0,50,0,86,-40c0,0,54,-60,88,-213L489,283c0,0,27,-118,62,-153c0,0,33,-36,79,-36c0,0,43,0,71,29c0,0,28,29,33,94h30c0,0,1,-19,1,-29c0,0,0,-98,-49,-158c0,0,-37,-44,-96,-44Z" 
id="f3_28"
transform="scale(0.001,-0.001)" />

<path d="M355,0V355H0v72H355V784h72V427H782V355H427V0Z" 
id="f3_f"
transform="scale(0.001,-0.001)" />

<path d="M0,214v74H784V214ZM0,494v72H784V494Z" 
id="f3_x"
transform="scale(0.001,-0.001)" />

<path d="M68,-328c0,0,-27,0,-44,20c0,0,-23,29,-23,71c0,0,0,21,9,52c0,0,20,71,25,123c0,0,9,88,9,151V683H168V253c0,0,0,-76,13,-109c0,0,13,-34,46,-53c0,0,33,-20,65,-20c0,0,39,0,92,23c0,0,53,24,108,75V683H616V234c0,0,0,-89,8,-125c0,0,7,-26,21,-37c0,0,13,-11,28,-11c0,0,19,0,35,18c0,0,16,19,24,75h30C762,154,749,54,713,16c0,0,-37,-37,-93,-37c0,0,-55,0,-88,32c0,0,-33,34,-40,116C492,127,416,43,348,10c0,0,-68,-32,-118,-32c0,0,-34,0,-66,13c0,0,-32,12,-62,37c0,0,-2,-107,19,-188c0,0,14,-57,14,-80c0,0,0,-41,-20,-65c0,0,-21,-23,-47,-23Z" 
id="f3_29"
transform="scale(0.001,-0.001)" />

<path d="M0,356v74H784V356Z" 
id="f3_h"
transform="scale(0.001,-0.001)" />

<path d="M32,0V33L151,52V649L52,668v33H275V52L395,33V0ZM201,850c0,0,-32,0,-56,24c0,0,-24,24,-24,56c0,0,0,34,24,58c0,0,24,24,56,24c0,0,34,0,58,-24c0,0,24,-24,24,-58c0,0,0,-32,-24,-56c0,0,-24,-24,-58,-24Z" 
id="f2_25"
transform="scale(0.001,-0.001)" />

<path d="M439,0V33l93,19V500c0,0,0,62,-30,97c0,0,-31,36,-94,36c0,0,-67,0,-165,-22V52L338,33V0H35V33l84,19V649L35,668v33H235l7,-57c0,0,57,33,122,54c0,0,65,22,108,22c0,0,91,0,137,-53c0,0,47,-53,47,-154V52L741,33V0Z" 
id="f2_2a"
transform="scale(0.001,-0.001)" />

<path d="M350,-14c0,0,-142,0,-253,31L89,228h49L172,87c0,0,32,-18,78,-29c0,0,46,-11,88,-11c0,0,118,0,173,56c0,0,56,55,56,187c0,0,0,93,-24,140c0,0,-24,47,-76,70c0,0,-52,22,-140,22c0,0,-68,0,-133,-18H122v496H630V886H189V567c0,0,81,18,173,18c0,0,173,0,258,-71c0,0,84,-71,84,-216c0,0,0,-151,-92,-232c0,0,-91,-80,-262,-80Z" 
id="f2_p"
transform="scale(0.001,-0.001)" />

<path d="M64,0V34L168,59V639H47v36l121,29v49c0,0,0,155,61,239c0,0,62,84,173,84c0,0,58,0,107,-15V908H472l-33,92c0,0,-26,16,-62,16c0,0,-47,0,-66,-42c0,0,-19,-42,-19,-157V701H478V639H292V59L443,34V0Z" 
id="f2_22"
transform="scale(0.001,-0.001)" />

<path d="M31,0V33l88,19V649L31,668v33H235l7,-87c0,0,44,37,121,71c0,0,76,35,121,35h11V530H463l-43,82c0,0,-37,0,-88,-10c0,0,-52,-10,-89,-26V52L363,33V0Z" 
id="f2_2e"
transform="scale(0.001,-0.001)" />

<path d="M431,0V33L535,52V499c0,0,0,62,-32,96c0,0,-32,33,-95,33c0,0,-66,0,-163,-22V52L350,33V0H32V33l89,19V649L32,668v33H237l6,-57c0,0,56,32,119,54c0,0,62,22,110,22c0,0,52,0,95,-20c0,0,44,-19,66,-62c0,0,57,32,134,57c0,0,77,25,128,25c0,0,179,0,179,-207V52l90,-19V0H846V33L950,52V499c0,0,0,129,-119,129c0,0,-19,0,-45,-3c0,0,-26,-3,-52,-7c0,0,-25,-4,-49,-8c0,0,-23,-5,-39,-8c0,0,13,-41,13,-89V52L764,33V0Z" 
id="f2_29"
transform="scale(0.001,-0.001)" />

<path d="M442,0V33l93,19V504c0,0,0,129,-124,129c0,0,-70,0,-168,-22V52L338,33V0H31V33l88,19v956L15,1026v34H243V756c0,0,0,-77,-5,-112c0,0,54,31,122,53c0,0,68,23,115,23c0,0,91,0,137,-53c0,0,47,-53,47,-154V52L744,33V0Z" 
id="f2_24"
transform="scale(0.001,-0.001)" />

<path d="M394,460c0,0,126,0,186,57c0,0,60,57,60,187c0,0,0,123,-57,176c0,0,-58,53,-194,53H316V460ZM54,0V40L172,60V941L44,960v40H421c0,0,368,0,368,-295c0,0,0,-153,-93,-233c0,0,-93,-80,-267,-80H316V60L475,40V0Z" 
id="f2_1g"
transform="scale(0.001,-0.001)" />

<path d="M278,-14c0,0,-52,0,-115,11c0,0,-63,10,-99,23V193H98L134,95c0,0,56,-50,146,-50c0,0,144,0,144,123c0,0,0,91,-114,130l-66,21c0,0,-75,25,-110,50c0,0,-34,26,-53,63c0,0,-18,36,-18,89c0,0,0,92,63,145c0,0,63,54,170,54c0,0,77,0,193,-23V544H454l-32,81c0,0,-39,35,-124,35c0,0,-61,0,-92,-30c0,0,-32,-30,-32,-80c0,0,0,-43,29,-72c0,0,28,-29,86,-48c0,0,110,-38,144,-55c0,0,33,-17,57,-42c0,0,23,-25,36,-57c0,0,13,-32,13,-79c0,0,0,-104,-66,-158c0,0,-66,-53,-195,-53Z" 
id="f2_2f"
transform="scale(0.001,-0.001)" />

<path d="M58,-234v58c0,0,131,42,131,125c0,0,0,15,-11,27c0,0,-11,12,-38,25C140,1,89,27,89,75c0,0,0,40,25,61c0,0,26,21,65,21c0,0,48,0,77,-34c0,0,30,-34,30,-86c0,0,0,-101,-60,-170c0,0,-59,-69,-168,-101Z" 
id="f2_g"
transform="scale(0.001,-0.001)" />

<path d="M551,45c0,0,171,0,252,106c0,0,82,107,82,349c0,0,0,241,-82,346c0,0,-82,105,-252,105c0,0,-171,0,-252,-106c0,0,-80,-106,-80,-345c0,0,0,-241,80,-348c0,0,81,-107,252,-107ZM930,-246c0,0,-53,0,-94,17c0,0,-41,18,-83,56c0,0,-41,39,-139,162c0,0,-27,-3,-63,-3c0,0,-239,0,-364,130C187,116,63,247,63,500c0,0,0,511,488,511c0,0,240,0,365,-129c0,0,125,-130,125,-382c0,0,0,-366,-265,-475l37,-45c0,0,66,-82,112,-117c0,0,46,-35,91,-35l61,2v-49c0,0,-17,-7,-64,-17c0,0,-48,-10,-83,-10Z" 
id="f2_1h"
transform="scale(0.001,-0.001)" />

<path d="M284,67c0,0,51,0,88,12c0,0,37,12,74,30V358l-98,-3c0,0,-100,-4,-135,-39c0,0,-35,-35,-35,-117c0,0,0,-132,106,-132ZM233,-14c0,0,-179,0,-179,208c0,0,0,70,27,116c0,0,27,46,87,70c0,0,60,24,173,27l105,3V519c0,0,0,72,-26,107c0,0,-27,34,-82,34c0,0,-75,0,-137,-35L176,538H134V691c0,0,121,26,213,26c0,0,115,0,169,-47c0,0,54,-47,54,-144V52L657,33V0H465L451,70c0,0,-85,-84,-218,-84Z" 
id="f2_1x"
transform="scale(0.001,-0.001)" />

<path d="M383,64c0,0,85,0,152,28V645c0,0,-67,13,-152,13c0,0,-194,0,-194,-314c0,0,0,-141,48,-211c0,0,48,-69,146,-69ZM342,-14c0,0,-287,0,-287,358c0,0,0,184,82,280c0,0,81,96,239,96c0,0,81,0,163,-18c0,0,-4,25,-4,124v182l-118,18v34H659V52L745,33V0H548l-9,52c0,0,-84,-66,-197,-66Z" 
id="f2_20"
transform="scale(0.001,-0.001)" />

<path d="M83,0C83,0,48,0,24,24C24,24,0,49,0,83c0,0,0,34,24,58c0,0,24,24,59,24c0,0,34,0,58,-24c0,0,24,-24,24,-58c0,0,0,-34,-24,-59C141,24,117,0,83,0ZM695,0c0,0,-34,0,-58,24c0,0,-25,25,-25,59c0,0,0,34,25,58c0,0,24,24,58,24c0,0,34,0,58,-24c0,0,24,-24,24,-58c0,0,0,-34,-24,-59C753,24,729,0,695,0ZM388,594c0,0,-34,0,-59,23c0,0,-24,24,-24,59c0,0,0,34,24,58c0,0,25,25,59,25c0,0,34,0,58,-25c0,0,24,-24,24,-58c0,0,0,-35,-24,-59c0,0,-24,-23,-58,-23Z" 
id="f3_1s"
transform="scale(0.001,-0.001)" />

<path d="M210,132c0,0,-41,0,-68,29c0,0,-27,28,-27,72c0,0,0,45,27,73c0,0,27,29,68,29c0,0,41,0,69,-29c0,0,27,-28,27,-73c0,0,0,-44,-27,-72c0,0,-28,-29,-69,-29Zm455,0c0,0,-41,0,-68,29c0,0,-27,28,-27,72c0,0,0,45,27,73c0,0,27,29,68,29c0,0,41,0,69,-29c0,0,27,-28,27,-73c0,0,0,-44,-27,-72c0,0,-28,-29,-69,-29ZM438,539c0,0,-41,0,-68,28c0,0,-28,29,-28,73c0,0,0,44,28,73c0,0,27,29,68,29c0,0,41,0,68,-29c0,0,27,-29,27,-73c0,0,0,-44,-27,-73c0,0,-27,-28,-68,-28Z" 
id="f4_16e"
transform="scale(0.001,-0.001)" />

<path d="M399,-14c0,0,-341,0,-341,370c0,0,0,175,87,269c0,0,87,95,249,95c0,0,101,0,220,-23V501H573L541,625c0,0,-62,35,-149,35c0,0,-200,0,-200,-304c0,0,0,-158,61,-225c0,0,61,-67,189,-67c0,0,109,0,189,24V43C631,43,595,16,530,1c0,0,-64,-15,-131,-15Z" 
id="f2_1z"
transform="scale(0.001,-0.001)" />

<path d="M359,-270c0,0,124,0,192,46c0,0,67,47,67,129c0,0,0,43,-26,67c0,0,-26,24,-79,24H242c0,0,-32,-27,-51,-69c0,0,-20,-41,-20,-77c0,0,0,-64,46,-92c0,0,46,-28,142,-28Zm11,561c0,0,81,0,115,47c0,0,34,47,34,141c0,0,0,100,-35,142c0,0,-35,42,-113,42c0,0,-78,0,-114,-43c0,0,-37,-42,-37,-141c0,0,0,-98,36,-143c0,0,36,-45,114,-45ZM359,-329c0,0,-143,0,-218,44c0,0,-75,43,-75,125c0,0,0,39,27,78c0,0,26,38,98,89c0,0,-43,14,-72,48c0,0,-29,35,-29,74L208,262c0,0,-118,55,-118,217c0,0,0,115,73,178c0,0,73,63,211,63c0,0,28,0,71,-6c0,0,44,-6,67,-13l165,83l26,-32L599,644c0,0,50,-56,50,-165c0,0,0,-120,-72,-182c0,0,-73,-62,-208,-62c0,0,-62,0,-114,11L208,148c0,0,2,-13,29,-24c0,0,27,-12,67,-12H512c0,0,113,0,168,-49c0,0,55,-49,55,-134c0,0,0,-79,-44,-137c0,0,-43,-58,-128,-90c0,0,-84,-31,-204,-31Z" 
id="f2_23"
transform="scale(0.001,-0.001)" />

<path d="M-12,338v55H777V338Z" 
id="f5_4y"
transform="scale(0.001,-0.001)" />

<path d="M490,63c0,0,93,0,170,73c0,0,77,74,126,213c0,0,50,138,50,280c0,0,0,141,-57,223c0,0,-57,81,-158,81c0,0,-91,0,-168,-75c0,0,-76,-74,-125,-215c0,0,-48,-142,-48,-281c0,0,0,-140,55,-220c0,0,55,-79,155,-79ZM477,-14c0,0,-124,0,-220,50c0,0,-96,51,-149,144c0,0,-53,93,-53,211c0,0,0,180,73,323c0,0,73,143,206,220c0,0,132,77,305,77c0,0,123,0,219,-51c0,0,96,-51,149,-144c0,0,53,-93,53,-210c0,0,0,-179,-75,-326C985,280,910,134,780,60c0,0,-130,-74,-303,-74Z" 
id="f6_1f"
transform="scale(0.001,-0.001)" />

<path d="M467,506c0,0,122,0,192,60c0,0,69,61,69,170c0,0,0,97,-45,140c0,0,-45,42,-132,42H499L426,506ZM653,0L498,423H412L350,74L474,54L465,0H-1L7,54L129,74L279,926L154,945l10,55H563c0,0,196,0,290,-62c0,0,94,-62,94,-190c0,0,0,-116,-63,-194c0,0,-63,-78,-183,-110L851,74L961,54L952,0Z" 
id="f6_1i"
transform="scale(0.001,-0.001)" />

<path d="M631,416L539,902L283,416ZM576,0l8,40L691,60L643,348H249L96,60L197,40L189,0H-83l8,40L7,60l509,949H659L845,60L938,40L930,0Z" 
id="f7_11"
transform="scale(0.001,-0.001)" />

<path d="M459,63c0,0,143,0,210,55c0,0,67,56,67,185c0,0,0,101,-66,146c0,0,-66,46,-190,46H341L266,67c0,0,114,-4,193,-4Zm18,499c0,0,144,0,206,49c0,0,61,48,61,170c0,0,0,77,-48,115c0,0,-48,37,-160,37H419L353,562ZM459,-4L173,0H14l8,40l99,20L277,941L151,960l8,40H570c0,0,330,0,330,-210c0,0,0,-105,-66,-174c0,0,-66,-69,-184,-85c0,0,115,-9,179,-69c0,0,63,-59,63,-157c0,0,0,-160,-108,-235C784,70,675,-4,459,-4Z" 
id="f7_12"
transform="scale(0.001,-0.001)" />

<path d="M500,49c0,0,111,0,205,75c0,0,95,75,154,216c0,0,59,140,59,280c0,0,0,150,-76,240c0,0,-77,91,-202,91c0,0,-111,0,-204,-75c0,0,-93,-76,-151,-217c0,0,-59,-141,-59,-284c0,0,0,-147,75,-237c0,0,75,-89,199,-89Zm-5,-63c0,0,-121,0,-216,50c0,0,-96,50,-149,142c0,0,-53,91,-53,205c0,0,0,180,74,326c0,0,75,145,204,224c0,0,129,78,295,78c0,0,120,0,216,-50c0,0,96,-51,149,-142c0,0,53,-91,53,-206c0,0,0,-177,-75,-325C993,288,918,140,789,63c0,0,-129,-77,-294,-77Z" 
id="f7_1f"
transform="scale(0.001,-0.001)" />

<path d="M681,416L504,902L333,416ZM669,0V40L803,60L704,348H310L210,60L344,40V0H15V40L128,60l341,949H611L965,60L1092,40V0Z" 
id="f2_11"
transform="scale(0.001,-0.001)" />

<path d="M536,63c0,0,127,0,191,54c0,0,63,54,63,168c0,0,0,105,-70,154c0,0,-70,49,-225,49H316V67c0,0,103,-4,220,-4ZM480,555c0,0,121,0,178,48c0,0,57,48,57,155c0,0,0,91,-58,133c0,0,-57,42,-186,42H316V555ZM554,-4L235,0H44V40L172,60V941L44,960v40H501c0,0,191,0,279,-56c0,0,88,-56,88,-179c0,0,0,-88,-55,-149c0,0,-54,-62,-151,-83c0,0,135,-14,209,-79c0,0,73,-65,73,-166c0,0,0,-144,-99,-219C845,69,745,-4,554,-4Z" 
id="f2_12"
transform="scale(0.001,-0.001)" />

<path d="M64,-325c0,0,-46,0,-107,14v148H-8l19,-81c0,0,25,-21,62,-21c0,0,44,0,67,47c0,0,22,47,22,152V649L57,668v33H286V-28c0,0,0,-146,-57,-221c0,0,-56,-76,-165,-76ZM213,850c0,0,-34,0,-58,24c0,0,-24,24,-24,56c0,0,0,34,24,58c0,0,24,24,58,24c0,0,32,0,56,-24c0,0,24,-24,24,-58c0,0,0,-32,-24,-56c0,0,-24,-24,-56,-24Z" 
id="f2_26"
transform="scale(0.001,-0.001)" />

<path d="M477,0V33l64,19L348,354L257,254V52L331,33V0H44V33l89,19v956L29,1026v34H257V338L544,647l-73,20v34H718V667L631,650L431,446L688,50L764,33V0Z" 
id="f2_27"
transform="scale(0.001,-0.001)" />

<path d="M13,0V34L95,46L325,350L122,649L40,668v33H357V668L264,648L399,446L554,649l-96,19v33H710V668L630,652L433,397L663,50L745,34V0H427V34l94,17L359,299L169,50L266,34V0Z" 
id="f2_2k"
transform="scale(0.001,-0.001)" />

<path d="M148,-329c0,0,-58,0,-114,13v151H69l24,-71c0,0,23,-17,64,-17c0,0,39,0,72,22c0,0,33,23,60,67c0,0,27,44,68,157L90,649L19,668v33H344V668L233,648L423,158L606,649L497,668v33H758V668L685,652L411,-43c0,0,-48,-124,-84,-177c0,0,-36,-54,-79,-82c0,0,-44,-27,-100,-27Z" 
id="f2_2l"
transform="scale(0.001,-0.001)" />

<path d="M41,0V34L426,641H261c0,0,-42,0,-80,-7c0,0,-39,-7,-54,-19L104,515H69V701H586V665L201,60H407c0,0,42,0,89,10c0,0,47,10,66,25l39,147h35L617,0Z" 
id="f2_2m"
transform="scale(0.001,-0.001)" />

<path d="M377,45c0,0,99,0,145,108c0,0,46,109,46,352c0,0,0,240,-45,345c0,0,-46,106,-146,106c0,0,-97,0,-139,-100c0,0,-43,-99,-43,-351c0,0,0,-254,44,-357c0,0,43,-103,138,-103Zm0,-59c0,0,-158,0,-238,132c0,0,-81,133,-81,386c0,0,0,249,81,380c0,0,80,132,244,132c0,0,159,0,241,-130c0,0,82,-130,82,-382c0,0,0,-518,-329,-518Z" 
id="f2_k"
transform="scale(0.001,-0.001)" />

<path d="M235,0V40L394,60V936H356c0,0,-189,0,-258,-15L78,766H28v234H908V766H857L837,921c0,0,-22,5,-98,9c0,0,-75,4,-165,4H538V60L697,40V0Z" 
id="f2_1k"
transform="scale(0.001,-0.001)" />

<path d="M383,64c0,0,44,0,87,7c0,0,43,7,65,17V645c0,0,-67,13,-152,13c0,0,-194,0,-194,-309c0,0,0,-143,48,-214c0,0,47,-71,146,-71Zm56,-389v35l96,18V-77c0,0,0,73,7,124c0,0,-79,-61,-200,-61c0,0,-287,0,-287,362c0,0,0,180,81,276c0,0,81,96,237,96c0,0,84,0,166,-18l67,33h53V-272l77,-18v-35Z" 
id="f2_2d"
transform="scale(0.001,-0.001)" />

<path d="M327,-14L84,649L1,668v33H335V668L219,648L385,174L554,632h63L786,171L944,649L830,668v33h267V668l-78,-16L784,-14H726L553,448L382,-14Z" 
id="f2_2j"
transform="scale(0.001,-0.001)" />

<path d="M376,50c0,0,103,0,149,80c0,0,46,81,46,240c0,0,0,137,-47,204c0,0,-48,67,-148,67c0,0,-44,0,-87,-7c0,0,-44,-8,-63,-17V62c0,0,63,-12,150,-12Zm3,-64c0,0,-64,0,-141,14c0,0,-78,14,-136,37v971L0,1026v34H226V809c0,0,0,-40,-4,-148c0,0,74,59,188,59c0,0,143,0,219,-87c0,0,77,-87,77,-263c0,0,0,-189,-84,-287c0,0,-84,-97,-243,-97Z" 
id="f2_1y"
transform="scale(0.001,-0.001)" />


</defs>
</svg>