<?xml version="1.0" encoding="UTF-8" standalone="no"?>
<!DOCTYPE svg PUBLIC "-//W3C//DTD SVG 1.1//EN"
"http://www.w3.org/Graphics/SVG/1.1/DTD/svg11.dtd">
<svg viewBox="0 0 909 1286" version="1.1" xmlns="http://www.w3.org/2000/svg" xmlns:xlink="http://www.w3.org/1999/xlink">
<defs>
<clipPath id="c0_18"><path d="M532.4,169.2v-20h7.5v20Z" /></clipPath>
<clipPath id="c1_18"><path d="M125.2,388.4V368.1H228.4v20.3Z" /></clipPath>
<clipPath id="c2_18"><path d="M141.5,426.2V405.7h48.1v20.5Z" /></clipPath>
<clipPath id="c3_18"><path d="M192.9,464V443.4h89.4V464Z" /></clipPath>
<style type="text/css"><![CDATA[
.g0_18{
fill: none;
stroke: #FFFFFF;
stroke-width: 0.77000004;
stroke-linecap: round;
stroke-linejoin: round;
}
.g1_18{
fill: none;
stroke: #000000;
stroke-width: 0.18333334;
stroke-linecap: butt;
stroke-linejoin: miter;
stroke-miterlimit: 2;
}
.g2_18{
}
.g3_18{
fill: #373435;
}
]]></style>
</defs>
<path d="M542.7,525.3l7.5,9.7l5.1,9.5l4.4,9.5l2,7.7l1.1,8.5l1,6.9l-1,7.5l-2.1,5.9l-2,5.6l-3.4,5.7l-3.1,4.8l-3,4.9l-7.5,6.7l-7.2,4.6L524,629.5l-8.5,5.9L505,642l-14.7,8.5l-8.2,5.9l-7.4,5.7l-6.2,6.6l-6.4,7.7l-4.1,6.7l-4.4,7.7l-3.1,7.7l-2,6.7l-3.1,-12.6l-2.1,-11.3L441,669.8V659.2l1.1,-8.7l2.3,-8.5l3,-4.8l2.1,-3.9l4.1,-3.8l4.4,-3.6l16.7,-12.6l16.7,-9.5L506,595.1l14.9,-8.5l6.2,-4.9l5.4,-6.6l4.1,-6.7l4.1,-7.7l2,-7.7l2.3,-8.5V535l-2.3,-9.7" class="g0_18" />
<g fill="#000000" >
<use xlink:href="#f0_2n" transform="matrix(11,0,0,11,330.6,118.6)" />
<use xlink:href="#f0_7l" transform="matrix(11,0,0,11,338.1,118.6)" />
<use xlink:href="#f0_b1" transform="matrix(11,0,0,11,345.6,118.6)" />
<use xlink:href="#f0_7z" transform="matrix(11,0,0,11,350,118.6)" />
<use xlink:href="#f0_ci" transform="matrix(11,0,0,11,359,118.6)" />
<use xlink:href="#f0_5" transform="matrix(11,0,0,11,374,118.6)" />
<use xlink:href="#f0_2n" transform="matrix(11,0,0,11,510,118.6)" />
<use xlink:href="#f0_7l" transform="matrix(11,0,0,11,517.4,118.6)" />
<use xlink:href="#f0_b1" transform="matrix(11,0,0,11,524.9,118.6)" />
<use xlink:href="#f0_7z" transform="matrix(11,0,0,11,530.9,118.6)" />
<use xlink:href="#f0_ci" transform="matrix(11,0,0,11,538.3,118.6)" />
<use xlink:href="#f0_i" transform="matrix(11,0,0,11,554.8,118.6)" />
<use xlink:href="#f0_5" transform="matrix(11,0,0,11,680.4,118.6)" />
<use xlink:href="#f0_ch" transform="matrix(11,0,0,11,690.8,118.6)" />
<use xlink:href="#f0_77" transform="matrix(11,0,0,11,698.3,118.6)" />
<use xlink:href="#f0_9q" transform="matrix(11,0,0,11,705.7,118.6)" />
<use xlink:href="#f0_a8" transform="matrix(11,0,0,11,708.8,118.6)" />
<use xlink:href="#f0_9q" transform="matrix(11,0,0,11,713.2,118.6)" />
<use xlink:href="#f0_7k" transform="matrix(11,0,0,11,717.7,118.6)" />
<use xlink:href="#f0_9q" transform="matrix(11,0,0,11,725.1,118.6)" />
<use xlink:href="#f0_a8" transform="matrix(11,0,0,11,729.7,118.6)" />
<use xlink:href="#f0_9q" transform="matrix(11,0,0,11,732.6,118.6)" />
<use xlink:href="#f0_bf" transform="matrix(11,0,0,11,737.2,118.6)" />
<use xlink:href="#f0_co" transform="matrix(11,0,0,11,743,118.6)" />
</g>
<path d="M88.5,101.7H267.9M267.9,101.7H447.2M447.2,101.7H625m0,0h1.5M626.5,101.7H804.3m0,0h1.5M804.3,101.7h1.5M88.5,101.7v21.4M267.9,101.7v21.4M447.2,101.7v21.4" class="g1_18" />
<path d="M625,123.1h1.4V101.7H625v21.4Z" class="g2_18" />
<path d="M625,101.7v21.4" class="g1_18" />
<path d="M804.3,123.1h1.6V101.7h-1.6v21.4Z" class="g2_18" />
<path d="M804.3,101.7v21.4" class="g1_18" />
<g fill="#000000" >
<use xlink:href="#f0_5" transform="matrix(11,0,0,11,112.4,140)" />
<use xlink:href="#f0_c6" transform="matrix(11,0,0,11,123,140)" />
<use xlink:href="#f0_bf" transform="matrix(11,0,0,11,130.4,140)" />
<use xlink:href="#f0_am" transform="matrix(11,0,0,11,136.4,140)" />
<use xlink:href="#f0_ae" transform="matrix(11,0,0,11,145.4,140)" />
<use xlink:href="#f0_77" transform="matrix(11,0,0,11,158.7,140)" />
<use xlink:href="#f0_bf" transform="matrix(11,0,0,11,166.3,140)" />
<use xlink:href="#f0_9q" transform="matrix(11,0,0,11,172.3,140)" />
<use xlink:href="#f0_7l" transform="matrix(11,0,0,11,175.2,140)" />
<use xlink:href="#f0_ae" transform="matrix(11,0,0,11,185.7,140)" />
<use xlink:href="#f0_77" transform="matrix(11,0,0,11,199.1,140)" />
<use xlink:href="#f0_7l" transform="matrix(11,0,0,11,208,140)" />
<use xlink:href="#f0_9n" transform="matrix(11,0,0,11,214.1,140)" />
<use xlink:href="#f0_9q" transform="matrix(11,0,0,11,223.1,140)" />
<use xlink:href="#f0_af" transform="matrix(11,0,0,11,227.5,140)" />
<use xlink:href="#f0_7z" transform="matrix(11,0,0,11,235,140)" />
<use xlink:href="#f0_s1" transform="matrix(11,0,0,11,353.1,140)" />
<use xlink:href="#f0_s3" transform="matrix(11,0,0,11,532.4,140)" />
<use xlink:href="#f1_o" transform="matrix(12,0,0,12,642.9,140)" />
<use xlink:href="#f1_q" transform="matrix(12,0,0,12,665.3,140)" />
<use xlink:href="#f1_k" transform="matrix(12,0,0,12,674.3,140)" />
<use xlink:href="#f1_m" transform="matrix(12,0,0,12,701.2,140)" />
<use xlink:href="#f1_o" transform="matrix(12,0,0,12,710.2,140)" />
<use xlink:href="#f1_k" transform="matrix(12,0,0,12,719.2,140)" />
<use xlink:href="#f1_29" transform="matrix(12,0,0,12,731.1,140)" />
<use xlink:href="#f1_25" transform="matrix(12,0,0,12,744.5,140)" />
<use xlink:href="#f1_2a" transform="matrix(12,0,0,12,750.6,140)" />
<use xlink:href="#f1_2h" transform="matrix(12,0,0,12,759.6,140)" />
<use xlink:href="#f1_2g" transform="matrix(12,0,0,12,768.6,140)" />
<use xlink:href="#f1_21" transform="matrix(12,0,0,12,773,140)" />
<use xlink:href="#f1_2f" transform="matrix(12,0,0,12,780.5,140)" />
<use xlink:href="#f2_3a" transform="matrix(12,0,0,12,653.4,140)" />
<use xlink:href="#f2_x" transform="matrix(12,0,0,12,687.9,140)" />
</g>
<path d="M88.5,123.1H267.9M267.9,123.1H447.2M447.2,123.1H625m0,0h1.5M626.5,123.1H804.3m0,0h1.5M88.5,123.1v24.6M267.9,123.1v24.6M447.2,123.1v24.6" class="g1_18" />
<path d="M625,147.7h1.4V123.1H625v24.6Z" class="g2_18" />
<path d="M625,123.1v24.6" class="g1_18" />
<path d="M804.3,147.7h1.6V123.1h-1.6v24.6Z" class="g2_18" />
<path d="M804.3,123.1v24.6" class="g1_18" />
<g fill="#000000" >
<use xlink:href="#f0_19" transform="matrix(11,0,0,11,101.9,164.6)" />
<use xlink:href="#f0_77" transform="matrix(11,0,0,11,112.4,164.6)" />
<use xlink:href="#f0_af" transform="matrix(11,0,0,11,119.9,164.6)" />
<use xlink:href="#f0_7v" transform="matrix(11,0,0,11,128.9,164.6)" />
<use xlink:href="#f0_am" transform="matrix(11,0,0,11,140.8,164.6)" />
<use xlink:href="#f0_ay" transform="matrix(11,0,0,11,149.8,164.6)" />
<use xlink:href="#f0_7z" transform="matrix(11,0,0,11,158.7,164.6)" />
<use xlink:href="#f0_b1" transform="matrix(11,0,0,11,166.2,164.6)" />
<use xlink:href="#f0_77" transform="matrix(11,0,0,11,172.3,164.6)" />
<use xlink:href="#f0_bf" transform="matrix(11,0,0,11,179.6,164.6)" />
<use xlink:href="#f0_7z" transform="matrix(11,0,0,11,185.7,164.6)" />
<use xlink:href="#f0_ae" transform="matrix(11,0,0,11,197.6,164.6)" />
<use xlink:href="#f0_77" transform="matrix(11,0,0,11,211,164.6)" />
<use xlink:href="#f0_7l" transform="matrix(11,0,0,11,218.5,164.6)" />
<use xlink:href="#f0_9n" transform="matrix(11,0,0,11,226,164.6)" />
<use xlink:href="#f0_9q" transform="matrix(11,0,0,11,234.9,164.6)" />
<use xlink:href="#f0_af" transform="matrix(11,0,0,11,237.9,164.6)" />
<use xlink:href="#f0_7z" transform="matrix(11,0,0,11,246.9,164.6)" />
<use xlink:href="#f0_s3" transform="matrix(11,0,0,11,353.1,164.6)" />
</g>
<g clip-path="url(#c0_18)">
<g fill="#000000" >
<use xlink:href="#f0_s0" transform="matrix(11,0,0,11,532.4,164.6)" />
</g>
</g>
<g fill="#000000" >
<use xlink:href="#f1_o" transform="matrix(12,0,0,12,643,166)" />
<use xlink:href="#f1_q" transform="matrix(12,0,0,12,665.3,166)" />
<use xlink:href="#f1_k" transform="matrix(12,0,0,12,674.3,166)" />
<use xlink:href="#f1_m" transform="matrix(12,0,0,12,701.2,166)" />
<use xlink:href="#f1_o" transform="matrix(12,0,0,12,710.2,166)" />
<use xlink:href="#f1_k" transform="matrix(12,0,0,12,719.2,166)" />
<use xlink:href="#f1_29" transform="matrix(12,0,0,12,731.1,166)" />
<use xlink:href="#f1_25" transform="matrix(12,0,0,12,744.5,166)" />
<use xlink:href="#f1_2a" transform="matrix(12,0,0,12,750.6,166)" />
<use xlink:href="#f1_2h" transform="matrix(12,0,0,12,759.6,166)" />
<use xlink:href="#f1_2g" transform="matrix(12,0,0,12,768.6,166)" />
<use xlink:href="#f1_21" transform="matrix(12,0,0,12,773,166)" />
<use xlink:href="#f1_2f" transform="matrix(12,0,0,12,780.5,166)" />
<use xlink:href="#f2_3a" transform="matrix(12,0,0,12,653.4,166)" />
<use xlink:href="#f2_x" transform="matrix(12,0,0,12,687.9,166)" />
</g>
<path d="M88.5,147.7v1.5" class="g1_18" />
<path d="M88.5,149.2H267.9v-1.5H88.5v1.5Z" class="g2_18" />
<path d="M88.5,147.7H267.9M267.9,147.7v1.5" class="g1_18" />
<path d="M267.9,149.2H447.1v-1.5H267.9v1.5Z" class="g2_18" />
<path d="M267.9,147.7H447.2M447.2,147.7v1.5" class="g1_18" />
<path d="M447.1,149.2H625v-1.5H447.1v1.5Z" class="g2_18" />
<path d="M447.2,147.7H625" class="g1_18" />
<path d="M625,149.2h1.4v-1.5H625v1.5Z" class="g2_18" />
<path d="M625,147.7h1.5m-1.5,0v1.5" class="g1_18" />
<path d="M626.5,149.2H804.3v-1.5H626.5v1.5Z" class="g2_18" />
<path d="M626.5,147.7H804.3" class="g1_18" />
<path d="M804.3,149.2h1.6v-1.5h-1.6v1.5Z" class="g2_18" />
<path d="M804.3,147.7h1.5m-1.5,0v1.5m-715.8,0v24.5M267.9,149.2v24.5M447.2,149.2v24.5" class="g1_18" />
<path d="M625,173.7h1.4V149.2H625v24.5Z" class="g2_18" />
<path d="M625,149.2v24.5" class="g1_18" />
<path d="M804.3,173.7h1.6V149.2h-1.6v24.5Z" class="g2_18" />
<path d="M804.3,149.2v24.5" class="g1_18" />
<g fill="#000000" >
<use xlink:href="#f0_2g" transform="matrix(11,0,0,11,160.2,190.6)" />
<use xlink:href="#f0_b1" transform="matrix(11,0,0,11,167.8,190.6)" />
<use xlink:href="#f0_am" transform="matrix(11,0,0,11,173.8,190.6)" />
<use xlink:href="#f0_89" transform="matrix(11,0,0,11,182.8,190.6)" />
<use xlink:href="#f0_9q" transform="matrix(11,0,0,11,188.6,190.6)" />
<use xlink:href="#f0_bf" transform="matrix(11,0,0,11,191.6,190.6)" />
<use xlink:href="#f0_s4" transform="matrix(11,0,0,11,329.1,190.6)" />
<use xlink:href="#f0_rx" transform="matrix(11,0,0,11,338.1,190.6)" />
<use xlink:href="#f0_ay" transform="matrix(11,0,0,11,350,190.6)" />
<use xlink:href="#f0_77" transform="matrix(11,0,0,11,358.9,190.6)" />
<use xlink:href="#f0_9q" transform="matrix(11,0,0,11,366.5,190.6)" />
<use xlink:href="#f0_b5" transform="matrix(11,0,0,11,371,190.6)" />
<use xlink:href="#f0_7z" transform="matrix(11,0,0,11,376.9,190.6)" />
<use xlink:href="#f0_ry" transform="matrix(11,0,0,11,510,190.6)" />
<use xlink:href="#f0_b1" transform="matrix(11,0,0,11,523.4,190.6)" />
<use xlink:href="#f0_c6" transform="matrix(11,0,0,11,527.8,190.6)" />
<use xlink:href="#f0_ay" transform="matrix(11,0,0,11,536.8,190.6)" />
<use xlink:href="#f0_7z" transform="matrix(11,0,0,11,545.8,190.6)" />
<use xlink:href="#f0_7z" transform="matrix(11,0,0,11,554.7,190.6)" />
</g>
<path d="M88.5,173.7H267.9M267.9,173.7H447.2M447.2,173.7H625m0,0h1.5M626.5,173.7H804.3m0,0h1.5M88.5,173.7v21.5M88.5,195.2H267.9m0,-21.5v21.5M267.9,195.2H447.2m0,-21.5v21.5M447.2,195.2H625" class="g1_18" />
<path d="M625,195.2h1.4V173.7H625v21.5Z" class="g2_18" />
<path d="M625,173.7v21.5m0,0h1.5M626.5,195.2H804.3" class="g1_18" />
<path d="M804.3,195.2h1.6V173.7h-1.6v21.5Z" class="g2_18" />
<path d="M804.3,173.7v21.5m0,0h1.5M804.3,195.2h1.5" class="g1_18" />
<g fill="#000000" >
<use xlink:href="#f1_1k" transform="matrix(12,0,0,12,121.9,242.7)" />
<use xlink:href="#f1_24" transform="matrix(12,0,0,12,132.7,242.7)" />
<use xlink:href="#f1_21" transform="matrix(12,0,0,12,141.5,242.7)" />
<use xlink:href="#f1_1z" transform="matrix(12,0,0,12,152.4,242.7)" />
<use xlink:href="#f1_2b" transform="matrix(12,0,0,12,160.2,242.7)" />
<use xlink:href="#f1_2a" transform="matrix(12,0,0,12,169,242.7)" />
<use xlink:href="#f1_2f" transform="matrix(12,0,0,12,177.8,242.7)" />
<use xlink:href="#f1_2g" transform="matrix(12,0,0,12,184.6,242.7)" />
<use xlink:href="#f1_2e" transform="matrix(12,0,0,12,189.4,242.7)" />
<use xlink:href="#f1_1x" transform="matrix(12,0,0,12,195.1,242.7)" />
<use xlink:href="#f1_25" transform="matrix(12,0,0,12,202.8,242.7)" />
<use xlink:href="#f1_2a" transform="matrix(12,0,0,12,207.5,242.7)" />
<use xlink:href="#f1_2g" transform="matrix(12,0,0,12,216.3,242.7)" />
<use xlink:href="#f1_2f" transform="matrix(12,0,0,12,221.3,242.7)" />
<use xlink:href="#f1_1x" transform="matrix(12,0,0,12,231.2,242.7)" />
<use xlink:href="#f1_2e" transform="matrix(12,0,0,12,238.9,242.7)" />
<use xlink:href="#f1_21" transform="matrix(12,0,0,12,244.6,242.7)" />
<use xlink:href="#f1_o" transform="matrix(11.9,0,0,11.9,124.7,277.9)" />
<use xlink:href="#f1_q" transform="matrix(11.9,0,0,11.9,159.5,277.9)" />
<use xlink:href="#f1_m" transform="matrix(11.9,0,0,11.9,197.4,277.9)" />
<use xlink:href="#f1_o" transform="matrix(11.9,0,0,11.9,206.6,277.9)" />
<use xlink:href="#f1_k" transform="matrix(11.9,0,0,11.9,215.8,277.9)" />
<use xlink:href="#f3_2k" transform="matrix(11.9,0,0,11.9,134.9,277.9)" />
<use xlink:href="#f3_2l" transform="matrix(11.9,0,0,11.9,170.7,277.9)" />
<use xlink:href="#f2_f" transform="matrix(11.9,0,0,11.9,146.3,277.9)" />
<use xlink:href="#f2_2t" transform="matrix(11.9,0,0,11.9,183.1,277.9)" />
<use xlink:href="#f1_q" transform="matrix(11.9,0,0,11.9,124.5,315.6)" />
<use xlink:href="#f1_n" transform="matrix(11.9,0,0,11.9,159.1,315.6)" />
<use xlink:href="#f1_m" transform="matrix(11.9,0,0,11.9,196.5,315.6)" />
<use xlink:href="#f1_o" transform="matrix(11.9,0,0,11.9,205.7,315.6)" />
<use xlink:href="#f1_k" transform="matrix(11.9,0,0,11.9,214.9,315.6)" />
<use xlink:href="#f3_2k" transform="matrix(11.9,0,0,11.9,134.8,315.6)" />
<use xlink:href="#f3_2l" transform="matrix(11.9,0,0,11.9,169.6,315.6)" />
<use xlink:href="#f2_f" transform="matrix(11.9,0,0,11.9,146.1,315.6)" />
<use xlink:href="#f2_2t" transform="matrix(11.9,0,0,11.9,182.2,315.6)" />
<use xlink:href="#f1_1k" transform="matrix(12,0,0,12,121.9,348.8)" />
<use xlink:href="#f1_2b" transform="matrix(12,0,0,12,131.3,348.8)" />
<use xlink:href="#f1_2g" transform="matrix(12,0,0,12,139.9,348.8)" />
<use xlink:href="#f1_1x" transform="matrix(12,0,0,12,144.5,348.8)" />
<use xlink:href="#f1_28" transform="matrix(12,0,0,12,152,348.8)" />
<use xlink:href="#f1_2c" transform="matrix(12,0,0,12,159.7,348.8)" />
<use xlink:href="#f1_2e" transform="matrix(12,0,0,12,168.3,348.8)" />
<use xlink:href="#f1_2b" transform="matrix(12,0,0,12,173.8,348.8)" />
<use xlink:href="#f1_22" transform="matrix(12,0,0,12,182.4,348.8)" />
<use xlink:href="#f1_25" transform="matrix(12,0,0,12,187.9,348.8)" />
<use xlink:href="#f1_2g" transform="matrix(12,0,0,12,192.5,348.8)" />
<use xlink:href="#f1_k" transform="matrix(11.8,0,0,11.8,151.4,384)" />
<use xlink:href="#f1_i" transform="matrix(11.8,0,0,11.8,160.6,384)" />
<use xlink:href="#f1_r" transform="matrix(11.8,0,0,11.8,165.2,384)" />
<use xlink:href="#f1_k" transform="matrix(11.8,0,0,11.8,174.3,384)" />
<use xlink:href="#f1_l" transform="matrix(11.8,0,0,11.8,207.3,384)" />
</g>
<g clip-path="url(#c1_18)">
<g fill="#000000" >
<use xlink:href="#f3_2m" transform="matrix(11.8,0,0,11.8,125.6,384)" />
<use xlink:href="#f3_2k" transform="matrix(11.8,0,0,11.8,184.6,384)" />
<use xlink:href="#f3_2l" transform="matrix(11.8,0,0,11.8,217.1,384)" />
</g>
</g>
<g fill="#000000" >
<use xlink:href="#f2_x" transform="matrix(11.8,0,0,11.8,137.5,384)" />
<use xlink:href="#f2_f" transform="matrix(11.8,0,0,11.8,196,384)" />
<use xlink:href="#f1_i" transform="matrix(11.9,0,0,11.9,151.4,421.8)" />
<use xlink:href="#f1_i" transform="matrix(11.9,0,0,11.9,167,421.8)" />
<use xlink:href="#f1_i" transform="matrix(11.9,0,0,11.9,182.6,421.8)" />
</g>
<g clip-path="url(#c2_18)">
<g fill="#000000" >
<use xlink:href="#f3_1c" transform="matrix(11.9,0,0,11.9,141.7,421.8)" />
<use xlink:href="#f3_1g" transform="matrix(11.9,0,0,11.9,156.2,421.8)" />
<use xlink:href="#f3_1g" transform="matrix(11.9,0,0,11.9,171.8,421.8)" />
</g>
</g>
<g fill="#000000" >
<use xlink:href="#f2_1s" transform="matrix(11.9,0,0,11.9,121.9,421.8)" />
<use xlink:href="#f1_25" transform="matrix(12,0,0,12,192.5,421.2)" />
<use xlink:href="#f1_2f" transform="matrix(12,0,0,12,197.3,421.2)" />
<use xlink:href="#f1_29" transform="matrix(12,0,0,12,121.9,459)" />
<use xlink:href="#f1_1x" transform="matrix(12,0,0,12,135.5,459)" />
<use xlink:href="#f1_2k" transform="matrix(12,0,0,12,142.6,459)" />
<use xlink:href="#f1_25" transform="matrix(12,0,0,12,151.3,459)" />
<use xlink:href="#f1_29" transform="matrix(12,0,0,12,155.5,459)" />
<use xlink:href="#f1_25" transform="matrix(12,0,0,12,169,459)" />
<use xlink:href="#f1_2f" transform="matrix(12,0,0,12,173.3,459)" />
<use xlink:href="#f1_21" transform="matrix(12,0,0,12,179.7,459)" />
<use xlink:href="#f1_k" transform="matrix(11.9,0,0,11.9,219.1,459.6)" />
<use xlink:href="#f1_i" transform="matrix(11.9,0,0,11.9,228.2,459.6)" />
<use xlink:href="#f1_r" transform="matrix(11.9,0,0,11.9,232.8,459.6)" />
</g>
<g clip-path="url(#c3_18)">
<g fill="#000000" >
<use xlink:href="#f3_2m" transform="matrix(11.9,0,0,11.9,193.2,459.6)" />
<use xlink:href="#f3_2k" transform="matrix(11.9,0,0,11.9,243.3,459.6)" />
<use xlink:href="#f3_2l" transform="matrix(11.9,0,0,11.9,269.8,459.6)" />
</g>
</g>
<g fill="#000000" >
<use xlink:href="#f2_x" transform="matrix(11.9,0,0,11.9,205.2,459.6)" />
<use xlink:href="#f2_f" transform="matrix(11.9,0,0,11.9,254.8,459.6)" />
<use xlink:href="#f1_2f" transform="matrix(12,0,0,12,121.9,492.7)" />
<use xlink:href="#f1_2h" transform="matrix(12,0,0,12,129,492.7)" />
<use xlink:href="#f1_1y" transform="matrix(12,0,0,12,138,492.7)" />
<use xlink:href="#f1_26" transform="matrix(12,0,0,12,147.2,492.7)" />
<use xlink:href="#f1_21" transform="matrix(12,0,0,12,152.1,492.7)" />
<use xlink:href="#f1_1z" transform="matrix(12,0,0,12,160.2,492.7)" />
<use xlink:href="#f1_2g" transform="matrix(12,0,0,12,168.1,492.7)" />
<use xlink:href="#f1_2g" transform="matrix(12,0,0,12,176.5,492.7)" />
<use xlink:href="#f1_2b" transform="matrix(12,0,0,12,181.6,492.7)" />
<use xlink:href="#f1_g" transform="matrix(12,0,0,12,194.1,492.7)" />
<use xlink:href="#f1_m" transform="matrix(11.8,0,0,11.8,124.7,527.9)" />
<use xlink:href="#f1_n" transform="matrix(11.8,0,0,11.8,159.5,527.9)" />
<use xlink:href="#f1_l" transform="matrix(11.8,0,0,11.8,195.2,527.9)" />
<use xlink:href="#f1_m" transform="matrix(11.8,0,0,11.8,204.4,527.9)" />
<use xlink:href="#f1_k" transform="matrix(11.8,0,0,11.8,213.5,527.9)" />
<use xlink:href="#f3_2k" transform="matrix(11.8,0,0,11.8,135.1,527.9)" />
<use xlink:href="#f3_2l" transform="matrix(11.8,0,0,11.8,170.1,527.9)" />
<use xlink:href="#f2_f" transform="matrix(11.8,0,0,11.8,146.5,527.9)" />
<use xlink:href="#f2_2t" transform="matrix(11.8,0,0,11.8,182.8,527.9)" />
<use xlink:href="#f1_m" transform="matrix(11.9,0,0,11.9,124.7,565.7)" />
<use xlink:href="#f1_s" transform="matrix(11.9,0,0,11.9,187.7,565.7)" />
<use xlink:href="#f1_k" transform="matrix(11.9,0,0,11.9,196.9,565.7)" />
<use xlink:href="#f3_2k" transform="matrix(11.9,0,0,11.9,134.9,565.7)" />
<use xlink:href="#f3_2l" transform="matrix(11.9,0,0,11.9,161.7,565.7)" />
<use xlink:href="#f2_f" transform="matrix(11.9,0,0,11.9,146.5,565.7)" />
<use xlink:href="#f2_2t" transform="matrix(11.9,0,0,11.9,174.2,565.7)" />
<use xlink:href="#f1_k" transform="matrix(11.9,0,0,11.9,152,603.5)" />
<use xlink:href="#f1_g" transform="matrix(11.9,0,0,11.9,161,603.5)" />
<use xlink:href="#f1_k" transform="matrix(11.9,0,0,11.9,196.3,603.5)" />
<use xlink:href="#f3_2k" transform="matrix(11.9,0,0,11.9,125.6,603.5)" />
<use xlink:href="#f3_2l" transform="matrix(11.9,0,0,11.9,169.6,603.5)" />
<use xlink:href="#f2_39" transform="matrix(11.9,0,0,11.9,137.9,603.5)" />
<use xlink:href="#f2_39" transform="matrix(11.9,0,0,11.9,182.2,603.5)" />
</g>
<path d="M331.9,1025.3h.9V577.1h-.9v448.2Z" class="g3_18" />
<path d="M630.9,996.1H288.8v-.9H630.9v.9Z" class="g3_18" />
<path d="M293.6,591.2l.7,-.5l3.7,2.4l-.4,.7l-3.8,-2.2l.7,-.4h-.9Zm0,0v-.7l.7,.2l-.7,.5Zm0,4.4h-.4l.4,-4.4h.9l-.4,4.4h-.5Zm243,491.1L294.1,592l.6,-.4l242.8,494.7l-.9,.4Zm.4,.9l.5,-.9l-.7,.5l.4,-4.4l1.1,.2l-.6,4.2l-.7,.4Zm0,0l.7,-.4v.9l-.7,-.5Zm-3.5,-2.6l.2,-.5l3.8,2.2l-.5,.9l-3.7,-2.2l.2,-.4Z" class="g3_18" />
<path d="M243.5,806.6l.4,-.7l4.2,-.2l.2,.9l-4.4,.4l.5,-.8l-.9,.4Zm0,0l-.2,-.7h.6l-.4,.7Zm2.4,3.7l-.4,.3l-2,-4l.9,-.4l2,3.9l-.5,.2Zm418.4,238.6L244.4,807.3l.4,-.9L665,1048.2l-.7,.7Zm.9,.4v-.9l-.4,.7l-2,-4l.9,-.2l1.9,3.8l-.4,.6Zm0,0l.4,-.6l.5,.6h-.9Zm-4.2,-.2v-.4l4.2,-.3v.9l-4.2,.2v-.4Z" class="g3_18" />
<path d="M364,1005.8h.9V995.2H364v10.6Z" class="g3_18" />
<path d="M322,982h10.5v.9H322V982Z" class="g3_18" />
<path d="M322,930.1h10.5v.8H322v-.8Z" class="g3_18" />
<path d="M322,885.8h10.5v.9H322v-.9Z" class="g3_18" />
<path d="M321.8,856.8h10.5v1.1H321.8v-1.1Z" class="g3_18" />
<path d="M322,805.3h10.5v.9H322v-.9Z" class="g3_18" />
<path d="M322,755.8h10.5v.8H322v-.8Z" class="g3_18" />
<path d="M322,706.5h10.5v.9H322v-.9Z" class="g3_18" />
<path d="M322,670.2h10.5v.8H322v-.8Z" class="g3_18" />
<path d="M322,618h10.5v.9H322V618Z" class="g3_18" />
<path d="M322,592h10.5v.9H322V592Z" class="g3_18" />
<path d="M410.4,1005.8h.9V995.4h-.9v10.4Z" class="g3_18" />
<path d="M457.2,1006.4h.9V995.9h-.9v10.5Z" class="g3_18" />
<path d="M491.7,1005.3h1.1V994.8h-1.1v10.5Z" class="g3_18" />
<path d="M530.9,1005.8H532V995.4h-1.1v10.4Z" class="g3_18" />
<g fill="#373435" >
<use xlink:href="#f1_l" transform="matrix(7.2,0,0,7.2,358.1,1017.8)" />
<use xlink:href="#f1_k" transform="matrix(7.2,0,0,7.2,363.5,1017.8)" />
<use xlink:href="#f1_l" transform="matrix(7.2,0,0,7.2,308.2,986.1)" />
<use xlink:href="#f1_k" transform="matrix(7.2,0,0,7.2,313.7,986.1)" />
</g>
<path d="M572,1005.5h.9V995H572v10.5Z" class="g3_18" />
<path d="M617.7,1006h.9V995.4h-.9V1006Z" class="g3_18" />
<g fill="#373435" >
<use xlink:href="#f1_m" transform="matrix(7.2,0,0,7.2,404.8,1018.4)" />
<use xlink:href="#f1_k" transform="matrix(7.2,0,0,7.2,410.3,1018.4)" />
<use xlink:href="#f1_m" transform="matrix(7.2,0,0,7.2,309.3,934.4)" />
<use xlink:href="#f1_k" transform="matrix(7.2,0,0,7.2,314.8,934.4)" />
<use xlink:href="#f1_n" transform="matrix(7.2,0,0,7.2,451.5,1018.4)" />
<use xlink:href="#f1_k" transform="matrix(7.2,0,0,7.2,457,1018.4)" />
<use xlink:href="#f1_n" transform="matrix(7.2,0,0,7.2,308.5,890.4)" />
<use xlink:href="#f1_k" transform="matrix(7.2,0,0,7.2,314,890.4)" />
<use xlink:href="#f1_o" transform="matrix(7.2,0,0,7.2,308.4,861.2)" />
<use xlink:href="#f1_k" transform="matrix(7.2,0,0,7.2,313.9,861.2)" />
<use xlink:href="#f1_p" transform="matrix(7.2,0,0,7.2,310.6,810.3)" />
<use xlink:href="#f1_k" transform="matrix(7.2,0,0,7.2,316.1,810.3)" />
<use xlink:href="#f1_q" transform="matrix(7.2,0,0,7.2,308.4,760)" />
<use xlink:href="#f1_k" transform="matrix(7.2,0,0,7.2,313.9,760)" />
<use xlink:href="#f1_r" transform="matrix(7.2,0,0,7.2,308.7,712.2)" />
<use xlink:href="#f1_k" transform="matrix(7.2,0,0,7.2,314.2,712.2)" />
<use xlink:href="#f1_s" transform="matrix(7.2,0,0,7.2,308.7,672.8)" />
<use xlink:href="#f1_k" transform="matrix(7.2,0,0,7.2,314.2,672.8)" />
<use xlink:href="#f1_o" transform="matrix(7.2,0,0,7.2,487.8,1019.8)" />
<use xlink:href="#f1_k" transform="matrix(7.2,0,0,7.2,493.3,1019.8)" />
<use xlink:href="#f1_p" transform="matrix(7.2,0,0,7.2,526.7,1019.3)" />
<use xlink:href="#f1_k" transform="matrix(7.2,0,0,7.2,532.2,1019.3)" />
<use xlink:href="#f1_q" transform="matrix(7.2,0,0,7.2,568.3,1018.2)" />
<use xlink:href="#f1_k" transform="matrix(7.2,0,0,7.2,573.8,1018.2)" />
<use xlink:href="#f1_r" transform="matrix(7.2,0,0,7.2,615.5,1019.8)" />
<use xlink:href="#f1_k" transform="matrix(7.2,0,0,7.2,620.9,1019.8)" />
<use xlink:href="#f1_1f" transform="matrix(7.2,0,0,7.2,322.8,1006.1)" />
<use xlink:href="#f1_15" transform="matrix(7.2,0,0,7.2,342.3,670.2)" />
<use xlink:href="#f1_c" transform="matrix(7.2,0,0,7.2,351.6,670.2)" />
<use xlink:href="#f1_k" transform="matrix(7.2,0,0,7.2,355.5,670.2)" />
<use xlink:href="#f1_g" transform="matrix(7.2,0,0,7.2,361,670.2)" />
<use xlink:href="#f1_s" transform="matrix(7.2,0,0,7.2,363.5,670.2)" />
<use xlink:href="#f1_k" transform="matrix(7.2,0,0,7.2,369,670.2)" />
<use xlink:href="#f1_d" transform="matrix(7.2,0,0,7.2,374.5,670.2)" />
<use xlink:href="#f1_12" transform="matrix(7.2,0,0,7.2,464.9,930)" />
<use xlink:href="#f1_c" transform="matrix(7.2,0,0,7.2,475,930)" />
<use xlink:href="#f1_n" transform="matrix(7.2,0,0,7.2,478.5,930)" />
<use xlink:href="#f1_k" transform="matrix(7.2,0,0,7.2,484,930)" />
<use xlink:href="#f1_g" transform="matrix(7.2,0,0,7.2,489.7,930)" />
<use xlink:href="#f1_m" transform="matrix(7.2,0,0,7.2,492.4,930)" />
<use xlink:href="#f1_k" transform="matrix(7.2,0,0,7.2,497.9,930)" />
<use xlink:href="#f1_d" transform="matrix(7.2,0,0,7.2,503.4,930)" />
<use xlink:href="#f1_14" transform="matrix(7.2,0,0,7.2,558.8,1033.9)" />
<use xlink:href="#f1_c" transform="matrix(7.2,0,0,7.2,569.6,1033.9)" />
<use xlink:href="#f1_q" transform="matrix(7.2,0,0,7.2,573.1,1033.9)" />
<use xlink:href="#f1_k" transform="matrix(7.2,0,0,7.2,578.6,1033.9)" />
<use xlink:href="#f1_g" transform="matrix(7.2,0,0,7.2,584.1,1033.9)" />
<use xlink:href="#f1_k" transform="matrix(7.2,0,0,7.2,586.8,1033.9)" />
<use xlink:href="#f1_d" transform="matrix(7.2,0,0,7.2,592.3,1033.9)" />
<use xlink:href="#f1_11" transform="matrix(7.2,0,0,7.2,465.5,1034.9)" />
<use xlink:href="#f1_c" transform="matrix(7.2,0,0,7.2,475.7,1034.9)" />
<use xlink:href="#f1_o" transform="matrix(7.2,0,0,7.2,479.2,1034.9)" />
<use xlink:href="#f1_k" transform="matrix(7.2,0,0,7.2,484.7,1034.9)" />
<use xlink:href="#f1_g" transform="matrix(7.2,0,0,7.2,490.4,1034.9)" />
<use xlink:href="#f1_k" transform="matrix(7.2,0,0,7.2,493,1034.9)" />
<use xlink:href="#f1_d" transform="matrix(7.2,0,0,7.2,498.5,1034.9)" />
<use xlink:href="#f1_13" transform="matrix(7.2,0,0,7.2,340.4,857.9)" />
<use xlink:href="#f1_c" transform="matrix(7.2,0,0,7.2,350.5,857.9)" />
<use xlink:href="#f1_k" transform="matrix(7.2,0,0,7.2,354,857.9)" />
<use xlink:href="#f1_g" transform="matrix(7.2,0,0,7.2,359.5,857.9)" />
<use xlink:href="#f1_o" transform="matrix(7.2,0,0,7.2,362.4,857.9)" />
<use xlink:href="#f1_k" transform="matrix(7.2,0,0,7.2,367.9,857.9)" />
<use xlink:href="#f1_d" transform="matrix(7.2,0,0,7.2,373.4,857.9)" />
</g>
<path d="M369.7,879l-37.2,27.5l-.4,-.9l37,-27.3l.6,.7Z" class="g3_18" />
<path d="M382.9,886.5l-50.4,38.3l-.4,-.7l50.1,-38.3l.7,.7Z" class="g3_18" />
<path d="M395.2,893.7l-62.7,54.4l-.6,-.7l62.7,-54.3l.6,.6Z" class="g3_18" />
<path d="M430.4,914l-97.9,81.9l-.4,-.7L430,913.3l.4,.7Z" class="g3_18" />
<path d="M444.9,922.3l-80,73.1l-.7,-.6l80,-73.1l.7,.6Z" class="g3_18" />
<path d="M461.2,931.6l-69.5,64.3l-.7,-.7l69.5,-64.3l.7,.7Z" class="g3_18" />
<path d="M470.8,951.6l-41.9,44.3l-.7,-.7l42,-44.2l.6,.6Z" class="g3_18" />
<path d="M480.7,971.6l-22.6,24.5l-.7,-.7L480.1,971l.6,.6Z" class="g3_18" />
<path d="M408.2,901.2l-75.7,66.3l-.6,-.9l75.8,-66l.5,.6Z" class="g3_18" />
<g fill="#000000" >
<use xlink:href="#f2_1s" transform="matrix(11.7,0,0,11.7,121.7,1160.6)" />
<use xlink:href="#f1_1z" transform="matrix(12,0,0,12,141.9,1158.6)" />
<use xlink:href="#f1_2b" transform="matrix(12,0,0,12,149.6,1158.6)" />
<use xlink:href="#f1_29" transform="matrix(12,0,0,12,158.4,1158.6)" />
<use xlink:href="#f1_29" transform="matrix(12,0,0,12,172.3,1158.6)" />
<use xlink:href="#f1_2b" transform="matrix(12,0,0,12,186.3,1158.6)" />
<use xlink:href="#f1_2a" transform="matrix(12,0,0,12,195.1,1158.6)" />
<use xlink:href="#f1_22" transform="matrix(12,0,0,12,207,1158.6)" />
<use xlink:href="#f1_21" transform="matrix(12,0,0,12,212.7,1158.6)" />
<use xlink:href="#f1_1x" transform="matrix(12,0,0,12,220.4,1158.6)" />
<use xlink:href="#f1_2f" transform="matrix(12,0,0,12,228.1,1158.6)" />
<use xlink:href="#f1_25" transform="matrix(12,0,0,12,234.8,1158.6)" />
<use xlink:href="#f1_1y" transform="matrix(12,0,0,12,239.6,1158.6)" />
<use xlink:href="#f1_28" transform="matrix(12,0,0,12,248.2,1158.6)" />
<use xlink:href="#f1_21" transform="matrix(12,0,0,12,253,1158.6)" />
<use xlink:href="#f1_2e" transform="matrix(12,0,0,12,263.6,1158.6)" />
<use xlink:href="#f1_21" transform="matrix(12,0,0,12,269.3,1158.6)" />
<use xlink:href="#f1_23" transform="matrix(12,0,0,12,277,1158.6)" />
<use xlink:href="#f1_25" transform="matrix(12,0,0,12,285.6,1158.6)" />
<use xlink:href="#f1_2b" transform="matrix(12,0,0,12,290.4,1158.6)" />
<use xlink:href="#f1_2a" transform="matrix(12,0,0,12,299.2,1158.6)" />
<use xlink:href="#f1_25" transform="matrix(12,0,0,12,311.1,1158.6)" />
<use xlink:href="#f1_2f" transform="matrix(12,0,0,12,315.9,1158.6)" />
<use xlink:href="#f3_1f" transform="matrix(12.2,0,0,12.2,328,1161.4)" />
<use xlink:href="#f3_13" transform="matrix(12.2,0,0,12.2,341.2,1161.4)" />
<use xlink:href="#f3_12" transform="matrix(12.2,0,0,12.2,353.7,1161.4)" />
<use xlink:href="#f3_11" transform="matrix(12.2,0,0,12.2,364.9,1161.4)" />
<use xlink:href="#f3_1f" transform="matrix(12.2,0,0,12.2,376.2,1161.4)" />
<use xlink:href="#f4_l" transform="matrix(8,0,0,8,785.4,1264.3)" />
<use xlink:href="#f4_s" transform="matrix(8,0,0,8,792.2,1264.3)" />
</g>
<defs>
<path d="M318,-13c0,0,-48,0,-90,8c0,0,-41,8,-73,19c0,0,-33,12,-55,25c0,0,-22,13,-30,22c0,0,-9,8,-13,22c0,0,-4,14,-4,37c0,0,0,17,1,27c0,0,2,11,5,18c0,0,3,7,7,9c0,0,5,3,11,3c0,0,10,0,29,-13c0,0,19,-12,49,-27c0,0,30,-15,72,-28c0,0,42,-13,97,-13c0,0,42,0,77,11c0,0,34,11,59,32c0,0,25,20,39,50c0,0,13,30,13,68c0,0,0,41,-19,70c0,0,-18,29,-49,51c0,0,-30,22,-70,41c0,0,-39,18,-80,37c0,0,-41,19,-80,42c0,0,-39,23,-69,54c0,0,-31,32,-50,74c0,0,-19,42,-19,101c0,0,0,60,22,108c0,0,22,47,61,79c0,0,40,32,94,49c0,0,54,17,116,17c0,0,32,0,65,-6c0,0,32,-5,61,-15c0,0,29,-9,51,-20c0,0,22,-12,30,-19c0,0,7,-7,9,-11c0,0,2,-4,4,-10c0,0,1,-7,2,-16c0,0,1,-9,1,-23c0,0,0,-13,-2,-24c0,0,-1,-10,-3,-17c0,0,-2,-8,-6,-11c0,0,-4,-3,-10,-3c0,0,-8,0,-25,10c0,0,-18,11,-43,24c0,0,-26,13,-60,23c0,0,-35,11,-78,11c0,0,-40,0,-70,-11c0,0,-30,-10,-49,-28c0,0,-20,-18,-29,-43c0,0,-10,-25,-10,-52c0,0,0,-40,18,-70c0,0,19,-29,50,-51c0,0,31,-22,71,-41c0,0,39,-19,80,-38c0,0,41,-19,81,-41c0,0,39,-23,70,-54c0,0,31,-31,50,-73c0,0,19,-42,19,-100c0,0,0,-68,-25,-121c0,0,-25,-53,-69,-89C552,61,508,24,448,5c0,0,-60,-18,-130,-18Z" 
id="f0_2n"
transform="scale(0.001,-0.001)" />

<path d="M367,-13c0,0,-73,0,-129,23c0,0,-56,24,-93,70c0,0,-38,46,-58,112c0,0,-20,67,-20,154c0,0,0,99,25,171c0,0,24,71,66,116c0,0,42,46,99,68c0,0,58,22,124,22c0,0,32,0,62,-6c0,0,31,-6,56,-16c0,0,25,-10,45,-22c0,0,20,-13,29,-22c0,0,9,-9,12,-14c0,0,3,-5,6,-13c0,0,2,-7,3,-16c0,0,0,-9,0,-22c0,0,0,-29,-6,-41c0,0,-7,-11,-17,-11c0,0,-11,0,-25,12c0,0,-15,12,-37,27c0,0,-23,15,-55,28c0,0,-31,12,-75,12c0,0,-88,0,-136,-68c0,0,-47,-68,-47,-198c0,0,0,-65,12,-114c0,0,12,-49,36,-81c0,0,24,-33,59,-49c0,0,35,-16,79,-16c0,0,43,0,75,13c0,0,32,14,56,30c0,0,23,16,39,29c0,0,16,13,25,13c0,0,5,0,9,-3c0,0,4,-3,7,-10c0,0,2,-7,3,-18c0,0,1,-11,1,-26c0,0,0,-12,0,-22c0,0,-1,-9,-3,-15c0,0,-2,-7,-4,-12c0,0,-3,-4,-12,-14c0,0,-10,-9,-32,-23c0,0,-22,-14,-50,-24C496,11,468,0,435,-6c0,0,-33,-7,-68,-7Z" 
id="f0_7l"
transform="scale(0.001,-0.001)" />

<path d="M176,-4c0,0,-18,0,-30,2c0,0,-12,1,-19,3c0,0,-7,3,-10,7c0,0,-3,4,-3,10V690c0,0,0,6,3,10c0,0,2,4,9,7c0,0,6,4,17,5c0,0,10,1,27,1c0,0,17,0,28,-1c0,0,10,-1,16,-5c0,0,6,-3,9,-7c0,0,3,-4,3,-10V592c0,0,27,41,51,66c0,0,25,26,46,41c0,0,22,14,43,20c0,0,21,6,43,6c0,0,10,0,22,-2c0,0,12,-1,26,-4c0,0,13,-3,24,-6c0,0,11,-4,15,-8c0,0,5,-4,6,-7c0,0,2,-3,3,-9c0,0,1,-5,1,-15c0,0,0,-10,0,-27c0,0,0,-16,0,-28c0,0,-1,-11,-3,-17c0,0,-2,-6,-6,-10c0,0,-3,-3,-9,-3c0,0,-6,0,-15,3c0,0,-8,4,-19,7c0,0,-11,3,-24,6c0,0,-14,3,-29,3c0,0,-19,0,-37,-7c0,0,-18,-8,-37,-25c0,0,-20,-18,-42,-46c0,0,-21,-29,-48,-70V18c0,0,0,-6,-3,-10c0,0,-2,-4,-9,-7c0,0,-7,-2,-19,-3c0,0,-12,-2,-30,-2Z" 
id="f0_b1"
transform="scale(0.001,-0.001)" />

<path d="M564,420c0,0,2,98,-43,153c0,0,-46,56,-134,56c0,0,-46,0,-80,-18c0,0,-35,-17,-58,-45c0,0,-23,-29,-36,-67c0,0,-12,-37,-14,-79ZM405,-13c0,0,-83,0,-145,22c0,0,-62,24,-105,69c0,0,-42,46,-64,114c0,0,-22,69,-22,160c0,0,0,87,23,156c0,0,22,69,64,117c0,0,43,48,102,74c0,0,60,26,134,26c0,0,79,0,135,-26c0,0,55,-25,91,-68c0,0,36,-43,53,-101c0,0,16,-58,16,-123V384c0,0,0,-29,-14,-41c0,0,-15,-13,-33,-13H199c0,0,0,-56,11,-100c0,0,12,-45,38,-77c0,0,26,-33,68,-50c0,0,41,-17,102,-17c0,0,48,0,85,8c0,0,37,8,65,17c0,0,27,10,44,18c0,0,18,8,27,8c0,0,5,0,9,-3c0,0,4,-2,7,-8c0,0,2,-5,3,-14c0,0,1,-9,1,-23c0,0,0,-9,-1,-16c0,0,0,-8,-2,-13c0,0,-1,-6,-3,-10c0,0,-3,-5,-7,-9c0,0,-4,-4,-24,-13c0,0,-20,-10,-53,-18c0,0,-32,-9,-74,-16c0,0,-42,-7,-90,-7Z" 
id="f0_7z"
transform="scale(0.001,-0.001)" />

<path d="M324,-4c0,0,-23,0,-37,2c0,0,-15,1,-24,3c0,0,-9,3,-14,8c0,0,-4,6,-7,13L46,660c0,0,-4,11,-5,18c0,0,-2,8,-2,13c0,0,0,7,3,11c0,0,3,4,10,7c0,0,8,2,19,3c0,0,12,1,30,1c0,0,20,0,33,-1c0,0,13,-1,20,-4c0,0,6,-3,9,-8c0,0,3,-4,5,-11L330,136l2,-7l1,7L482,689c0,0,1,7,5,11c0,0,3,5,10,8c0,0,6,3,18,4c0,0,12,1,31,1c0,0,18,0,29,-1c0,0,12,-1,18,-4c0,0,7,-3,10,-7c0,0,3,-5,5,-11L768,136l1,-7l1,7L930,689c0,0,1,7,5,11c0,0,3,5,10,8c0,0,7,3,20,4c0,0,12,1,31,1c0,0,18,0,29,-1c0,0,11,-1,17,-4c0,0,6,-3,9,-6c0,0,3,-4,3,-11c0,0,0,-5,-2,-13c0,0,-1,-7,-5,-18L849,22c0,0,-2,-8,-7,-13c0,0,-5,-6,-13,-9c0,0,-9,-2,-24,-3c0,0,-15,-1,-37,-1c0,0,-23,0,-39,2c0,0,-15,1,-25,3c0,0,-9,3,-14,8c0,0,-4,6,-6,13L543,510l-2,6l-2,-6L409,22c0,0,-3,-8,-7,-13c0,0,-5,-6,-15,-9c0,0,-10,-2,-25,-3c0,0,-15,-1,-38,-1Z" 
id="f0_ci"
transform="scale(0.001,-0.001)" />

<path d="M604,356L436,837h-1L269,356ZM87,-4c0,0,-22,0,-36,2C51,-2,37,0,32,4c0,0,-6,5,-6,15c0,0,1,10,7,27L357,943c0,0,3,8,7,13c0,0,5,6,15,9c0,0,9,3,23,4c0,0,15,1,37,1c0,0,24,0,40,-1c0,0,16,-1,25,-4c0,0,10,-3,15,-9c0,0,5,-5,8,-14L851,45c0,0,6,-16,7,-26c0,0,0,-10,-6,-16c0,0,-6,-4,-20,-5c0,0,-14,-2,-37,-2c0,0,-23,0,-37,1c0,0,-14,1,-21,3c0,0,-7,3,-10,7c0,0,-3,5,-6,11L638,253H236L157,21c0,0,-2,-6,-6,-11c0,0,-3,-5,-10,-9c0,0,-7,-2,-21,-3c0,0,-13,-2,-33,-2Z" 
id="f0_5"
transform="scale(0.001,-0.001)" />

<path d="M441,106c0,0,45,0,77,10c0,0,33,10,58,31c0,0,25,21,39,51c0,0,15,31,15,71c0,0,0,43,-14,76c0,0,-14,33,-41,55c0,0,-26,23,-66,34c0,0,-40,12,-100,12H255V106ZM401,549c0,0,50,0,81,13c0,0,30,13,50,35c0,0,20,22,30,51c0,0,9,29,9,61c0,0,0,35,-10,63c0,0,-9,28,-30,48c0,0,-21,20,-55,30c0,0,-33,10,-88,10H255V549ZM176,0c0,0,-17,0,-33,12c0,0,-15,11,-15,40V913c0,0,0,29,15,41c0,0,16,11,33,11H395c0,0,87,0,142,-16c0,0,55,-17,92,-48c0,0,37,-31,55,-77c0,0,19,-45,19,-103c0,0,0,-34,-8,-65c0,0,-8,-32,-24,-58c0,0,-16,-27,-41,-47c0,0,-24,-21,-55,-35c0,0,39,-7,74,-27c0,0,34,-20,60,-50c0,0,26,-31,41,-72c0,0,15,-41,15,-90c0,0,0,-46,-12,-84c0,0,-12,-39,-32,-69c0,0,-21,-31,-51,-54c0,0,-29,-23,-66,-39C604,31,567,16,525,8C525,8,483,0,428,0Z" 
id="f0_i"
transform="scale(0.001,-0.001)" />

<path d="M346,-4c0,0,-23,0,-38,2c0,0,-15,1,-24,3c0,0,-9,3,-15,8c0,0,-5,6,-8,13L33,660c0,0,-3,9,-5,15c0,0,-2,7,-2,11c0,0,0,3,0,5c0,0,0,6,3,11c0,0,3,4,10,7c0,0,7,2,18,3c0,0,12,1,29,1c0,0,22,0,35,-1c0,0,13,-1,20,-4c0,0,7,-3,10,-8c0,0,4,-4,7,-11L347,135l3,-9l2,9L540,689c0,0,1,7,5,11c0,0,3,5,11,8c0,0,7,3,19,4c0,0,12,1,32,1c0,0,18,0,29,-1c0,0,11,-1,17,-4c0,0,7,-3,9,-7c0,0,3,-4,3,-10c0,0,0,-3,-1,-6c0,0,0,-4,-1,-7c0,0,0,-4,-2,-8c0,0,-1,-5,-2,-10L430,22c0,0,-3,-8,-8,-13c0,0,-5,-6,-15,-9c0,0,-9,-2,-24,-3c0,0,-15,-1,-37,-1Z" 
id="f0_ch"
transform="scale(0.001,-0.001)" />

<path d="M321,82c0,0,48,0,90,25c0,0,41,24,87,75V325H392c0,0,-50,0,-88,-9c0,0,-37,-9,-62,-25c0,0,-24,-17,-36,-41c0,0,-11,-23,-11,-54c0,0,0,-52,33,-83c0,0,33,-31,93,-31ZM301,-13c0,0,-53,0,-96,13c0,0,-43,14,-73,40c0,0,-30,26,-47,64c0,0,-17,38,-17,87c0,0,0,56,24,98c0,0,23,42,66,69c0,0,43,28,106,42c0,0,63,14,141,14h93v52c0,0,0,39,-9,69c0,0,-8,30,-26,50c0,0,-18,20,-47,30c0,0,-30,10,-72,10c0,0,-46,0,-82,-11c0,0,-36,-11,-63,-24c0,0,-27,-13,-46,-24c0,0,-18,-11,-27,-11c0,0,-6,0,-10,3c0,0,-5,3,-8,9c0,0,-3,6,-5,16c0,0,-1,9,-1,20c0,0,0,19,2,30c0,0,3,11,13,20c0,0,10,10,35,23c0,0,24,13,56,24c0,0,32,10,70,17c0,0,38,8,77,8c0,0,73,0,123,-17c0,0,51,-16,82,-48c0,0,32,-32,46,-79c0,0,14,-47,14,-110V18c0,0,0,-9,-6,-14c0,0,-6,-4,-16,-6c0,0,-11,-2,-31,-2c0,0,-19,0,-31,2c0,0,-12,2,-17,6c0,0,-5,5,-5,13V85c0,0,-44,-47,-98,-73c0,0,-54,-25,-115,-25Z" 
id="f0_77"
transform="scale(0.001,-0.001)" />

<path d="M176,-4c0,0,-18,0,-30,2c0,0,-12,1,-19,3c0,0,-7,3,-10,7c0,0,-3,4,-3,10V690c0,0,0,5,3,9c0,0,3,5,10,8c0,0,7,3,19,4c0,0,12,2,30,2c0,0,18,0,30,-2c0,0,12,-1,19,-4c0,0,7,-3,9,-8c0,0,3,-4,3,-9V18c0,0,0,-6,-3,-10c0,0,-2,-4,-9,-7c0,0,-7,-2,-19,-3c0,0,-12,-2,-30,-2Zm-1,846c0,0,-43,0,-59,15c0,0,-16,15,-16,58c0,0,0,43,16,59c0,0,17,16,61,16c0,0,43,0,59,-16c0,0,16,-15,16,-58c0,0,0,-43,-16,-58c0,0,-17,-16,-61,-16Z" 
id="f0_9q"
transform="scale(0.001,-0.001)" />

<path d="M176,-4c0,0,-18,0,-30,2c0,0,-12,1,-19,3c0,0,-7,3,-10,7c0,0,-3,4,-3,10v997c0,0,0,6,3,11c0,0,3,4,10,7c0,0,7,3,19,5c0,0,12,1,30,1c0,0,18,0,30,-1c0,0,12,-2,19,-5c0,0,7,-3,9,-7c0,0,3,-5,3,-11V18c0,0,0,-6,-3,-10c0,0,-2,-4,-9,-7c0,0,-7,-2,-19,-3c0,0,-12,-2,-30,-2Z" 
id="f0_a8"
transform="scale(0.001,-0.001)" />

<path d="M431,92c0,0,46,0,79,22c0,0,33,23,53,60c0,0,21,37,30,83c0,0,10,46,10,93c0,0,0,51,-8,100c0,0,-8,49,-28,86c0,0,-19,37,-51,60c0,0,-32,23,-80,23c0,0,-24,0,-47,-7c0,0,-23,-7,-47,-22c0,0,-24,-16,-50,-41c0,0,-25,-24,-55,-62V219c0,0,51,-62,98,-95c0,0,46,-32,96,-32ZM443,-13c0,0,-32,0,-59,7c0,0,-27,6,-53,19c0,0,-26,14,-52,36c0,0,-27,22,-56,52V18c0,0,0,-6,-3,-10c0,0,-3,-5,-9,-7c0,0,-7,-2,-17,-3c0,0,-10,-2,-26,-2c0,0,-15,0,-25,2c0,0,-11,1,-17,3c0,0,-7,2,-9,7c0,0,-3,4,-3,10v997c0,0,0,6,3,11c0,0,3,4,10,7c0,0,7,3,19,5c0,0,12,1,30,1c0,0,18,0,30,-1c0,0,12,-2,19,-5c0,0,7,-3,9,-7c0,0,3,-5,3,-10V614c0,0,30,31,58,52c0,0,28,20,55,34c0,0,27,13,54,19c0,0,27,6,57,6c0,0,73,0,125,-30c0,0,52,-29,84,-78c0,0,32,-48,47,-114c0,0,15,-66,15,-139c0,0,0,-87,-19,-157c0,0,-19,-70,-56,-119c0,0,-37,-49,-90,-76c0,0,-54,-25,-124,-25Z" 
id="f0_7k"
transform="scale(0.001,-0.001)" />

<path d="M339,-13c0,0,-52,0,-90,13c0,0,-37,14,-61,42c0,0,-24,28,-34,71c0,0,-11,43,-11,101V607H49c0,0,-11,0,-18,12c0,0,-7,12,-7,39c0,0,0,14,2,24c0,0,2,10,5,16c0,0,3,7,8,9c0,0,5,3,11,3h93V870c0,0,0,5,2,9c0,0,3,5,10,8c0,0,7,4,19,5c0,0,12,2,30,2c0,0,19,0,31,-2c0,0,11,-1,18,-5c0,0,7,-3,10,-8c0,0,3,-4,3,-9V710H438c0,0,6,0,10,-3c0,0,5,-2,8,-9c0,0,4,-6,5,-16c0,0,1,-10,1,-24c0,0,0,-27,-6,-39c0,0,-7,-12,-18,-12H266V232c0,0,0,-69,20,-105c0,0,21,-35,74,-35c0,0,17,0,30,3c0,0,14,4,24,7c0,0,10,4,18,7c0,0,7,4,13,4c0,0,4,0,7,-2c0,0,4,-2,6,-7c0,0,2,-5,3,-14c0,0,1,-9,1,-23c0,0,0,-22,-2,-34c0,0,-3,-13,-9,-19c0,0,-6,-6,-18,-11c0,0,-12,-4,-28,-8c0,0,-15,-3,-32,-5c0,0,-17,-3,-34,-3Z" 
id="f0_bf"
transform="scale(0.001,-0.001)" />

<path d="M252,-271c0,0,-19,0,-31,2c0,0,-12,2,-18,6c0,0,-7,5,-8,12c0,0,0,8,4,18L292,0c0,0,-7,3,-13,10c0,0,-6,6,-8,14L31,665c0,0,-6,16,-6,25c0,0,0,9,6,14c0,0,6,5,20,7c0,0,13,2,36,2c0,0,22,0,35,-1c0,0,12,-1,20,-4c0,0,7,-3,11,-9c0,0,3,-6,7,-15L351,145h3L539,687c0,0,4,14,10,18c0,0,7,4,19,6c0,0,13,2,37,2c0,0,21,0,34,-2c0,0,14,-2,20,-7c0,0,6,-5,6,-14c0,0,0,-9,-4,-23L420,0L330,-246c0,0,-4,-12,-22,-18c0,0,-19,-7,-56,-7Z" 
id="f0_co"
transform="scale(0.001,-0.001)" />

<path d="M351,-13c0,0,-67,0,-113,22c0,0,-46,22,-75,60c0,0,-28,39,-40,90c0,0,-13,51,-13,124V690c0,0,0,6,3,10c0,0,3,4,10,7c0,0,8,4,20,5c0,0,11,1,29,1c0,0,18,0,30,-1c0,0,12,-1,19,-5c0,0,7,-3,10,-7c0,0,3,-4,3,-10V299c0,0,0,-59,9,-94c0,0,8,-36,26,-61c0,0,18,-24,44,-38c0,0,27,-14,63,-14c0,0,46,0,92,33c0,0,46,32,98,95V690c0,0,0,6,2,10c0,0,3,4,10,7c0,0,8,4,19,5c0,0,12,1,30,1c0,0,18,0,30,-1c0,0,12,-1,19,-5c0,0,7,-3,10,-7c0,0,3,-4,3,-10V18c0,0,0,-6,-2,-10c0,0,-3,-4,-10,-7c0,0,-6,-2,-17,-3c0,0,-11,-2,-27,-2c0,0,-17,0,-28,2c0,0,-10,1,-17,3c0,0,-6,3,-8,7c0,0,-3,4,-3,10v89c0,0,-57,-63,-113,-92c0,0,-56,-28,-113,-28Z" 
id="f0_c6"
transform="scale(0.001,-0.001)" />

<path d="M401,90c0,0,54,0,93,19c0,0,40,20,65,55c0,0,26,35,37,84c0,0,12,48,12,106c0,0,0,55,-10,104c0,0,-10,48,-33,85c0,0,-23,36,-62,58c0,0,-40,21,-99,21c0,0,-54,0,-93,-20c0,0,-39,-19,-65,-54c0,0,-25,-36,-37,-85c0,0,-12,-48,-12,-106c0,0,0,-55,10,-103c0,0,10,-49,33,-85c0,0,24,-36,63,-58c0,0,39,-21,98,-21ZM395,-13c0,0,-82,0,-144,24c0,0,-61,25,-102,72c0,0,-41,47,-61,114c0,0,-21,67,-21,152c0,0,0,82,22,151c0,0,21,69,64,119c0,0,43,50,107,78c0,0,64,28,150,28c0,0,82,0,144,-25c0,0,61,-25,102,-72c0,0,41,-47,62,-114c0,0,20,-67,20,-151c0,0,0,-83,-21,-152c0,0,-22,-69,-65,-119C652,92,609,42,545,14c0,0,-65,-27,-150,-27Z" 
id="f0_am"
transform="scale(0.001,-0.001)" />

<path d="M176,-4c0,0,-18,0,-30,2c0,0,-12,1,-19,3c0,0,-7,3,-10,7c0,0,-3,4,-3,10V690c0,0,0,6,3,10c0,0,2,4,9,7c0,0,6,4,17,5c0,0,10,1,27,1c0,0,17,0,28,-1c0,0,10,-1,16,-5c0,0,6,-3,9,-7c0,0,3,-4,3,-10V601c0,0,56,64,110,94c0,0,53,30,108,30c0,0,42,0,75,-10c0,0,33,-10,58,-28c0,0,26,-17,44,-42c0,0,18,-24,30,-55c0,0,33,37,63,63c0,0,31,26,59,41c0,0,28,16,54,23c0,0,27,8,53,8c0,0,65,0,109,-23c0,0,44,-23,71,-61c0,0,28,-38,39,-89c0,0,12,-52,12,-108V18c0,0,0,-6,-3,-10c0,0,-3,-4,-10,-7c0,0,-7,-2,-19,-3c0,0,-12,-2,-29,-2c0,0,-19,0,-31,2c0,0,-12,1,-19,3c0,0,-7,3,-10,7c0,0,-3,4,-3,10V427c0,0,0,43,-8,78c0,0,-7,35,-23,61c0,0,-17,25,-42,38c0,0,-25,14,-60,14c0,0,-42,0,-85,-33c0,0,-43,-33,-94,-96V18c0,0,0,-6,-3,-10c0,0,-3,-4,-11,-7c0,0,-7,-2,-19,-3c0,0,-11,-2,-29,-2c0,0,-18,0,-30,2c0,0,-12,1,-19,3c0,0,-7,3,-10,7c0,0,-3,4,-3,10V427c0,0,0,43,-8,78c0,0,-8,35,-24,61c0,0,-17,25,-42,38c0,0,-25,14,-59,14c0,0,-43,0,-86,-33c0,0,-44,-33,-95,-96V18c0,0,0,-6,-3,-10c0,0,-2,-4,-9,-7c0,0,-7,-2,-19,-3c0,0,-12,-2,-30,-2Z" 
id="f0_ae"
transform="scale(0.001,-0.001)" />

<path d="M176,-4c0,0,-18,0,-30,2c0,0,-12,1,-19,3c0,0,-7,3,-10,7c0,0,-3,4,-3,10v997c0,0,0,6,3,11c0,0,3,4,10,7c0,0,7,3,19,5c0,0,12,1,30,1c0,0,18,0,30,-1c0,0,12,-2,19,-5c0,0,7,-3,9,-7c0,0,3,-5,3,-10V614c0,0,53,56,107,83c0,0,54,28,108,28c0,0,67,0,113,-23c0,0,46,-23,74,-61c0,0,29,-38,41,-89c0,0,12,-52,12,-124V18c0,0,0,-6,-3,-10c0,0,-3,-4,-9,-7c0,0,-7,-2,-19,-3c0,0,-12,-2,-30,-2c0,0,-19,0,-30,2c0,0,-12,1,-19,3c0,0,-7,3,-10,7c0,0,-3,4,-3,10V412c0,0,0,58,-9,93c0,0,-9,35,-26,61c0,0,-17,25,-44,38c0,0,-27,14,-63,14c0,0,-46,0,-93,-33c0,0,-46,-33,-97,-96V18c0,0,0,-6,-3,-10c0,0,-2,-4,-9,-7c0,0,-7,-2,-19,-3c0,0,-12,-2,-30,-2Z" 
id="f0_9n"
transform="scale(0.001,-0.001)" />

<path d="M176,-4c0,0,-18,0,-30,2c0,0,-12,1,-19,3c0,0,-7,3,-10,7c0,0,-3,4,-3,10V690c0,0,0,6,3,10c0,0,2,4,9,7c0,0,6,4,17,5c0,0,10,1,27,1c0,0,17,0,28,-1c0,0,10,-1,16,-5c0,0,6,-3,9,-7c0,0,3,-4,3,-10V601c0,0,56,64,112,94c0,0,57,30,114,30c0,0,67,0,113,-23c0,0,46,-23,74,-61c0,0,29,-38,41,-89c0,0,12,-52,12,-123V18c0,0,0,-6,-3,-10c0,0,-3,-4,-9,-7c0,0,-7,-2,-19,-3c0,0,-12,-2,-30,-2c0,0,-19,0,-30,2c0,0,-12,1,-19,3c0,0,-7,3,-10,7c0,0,-3,4,-3,10V412c0,0,0,58,-9,93c0,0,-9,35,-26,61c0,0,-17,25,-44,38c0,0,-27,14,-63,14c0,0,-46,0,-93,-33c0,0,-46,-33,-97,-96V18c0,0,0,-6,-3,-10c0,0,-2,-4,-9,-7c0,0,-7,-2,-19,-3c0,0,-12,-2,-30,-2Z" 
id="f0_af"
transform="scale(0.001,-0.001)" />

<path d="M469,327V857h-2L153,327ZM530,-4c0,0,-18,0,-30,2c0,0,-12,1,-19,3c0,0,-7,3,-9,7c0,0,-3,4,-3,10V221H71c0,0,-9,0,-15,2c0,0,-6,2,-11,8c0,0,-5,6,-7,17c0,0,-2,12,-2,30c0,0,0,14,1,25c0,0,1,11,3,20c0,0,2,10,6,18c0,0,4,9,9,18L403,947c0,0,3,6,10,10c0,0,7,5,19,8c0,0,11,3,27,4c0,0,17,1,39,1c0,0,25,0,43,-2c0,0,18,-2,29,-5c0,0,12,-3,18,-8c0,0,6,-4,6,-11V327H702c0,0,13,0,21,-13c0,0,8,-13,8,-40c0,0,0,-25,-8,-39c0,0,-7,-14,-21,-14H594V18c0,0,0,-6,-3,-10c0,0,-3,-4,-11,-7c0,0,-7,-2,-19,-3c0,0,-12,-2,-31,-2Z" 
id="f0_s1"
transform="scale(0.001,-0.001)" />

<path d="M398,90c0,0,48,0,83,17c0,0,35,18,58,49c0,0,23,30,34,67c0,0,11,38,11,78c0,0,0,43,-8,78c0,0,-9,36,-29,60c0,0,-20,25,-54,38c0,0,-33,14,-83,14c0,0,-27,0,-55,-5c0,0,-28,-5,-53,-13c0,0,-26,-9,-49,-21c0,0,-24,-11,-43,-25c0,0,0,-96,12,-161c0,0,12,-65,36,-104c0,0,23,-39,58,-56c0,0,35,-16,82,-16ZM386,-13c0,0,-60,0,-106,14c0,0,-47,15,-81,42c0,0,-34,28,-57,68c0,0,-23,40,-36,92c0,0,-14,51,-20,113c0,0,-6,61,-6,131c0,0,0,62,7,125c0,0,6,64,23,123c0,0,18,58,47,110c0,0,29,52,74,91c0,0,44,38,106,60c0,0,62,23,144,23c0,0,28,0,56,-4c0,0,28,-3,52,-9c0,0,24,-5,41,-12c0,0,16,-7,21,-11c0,0,5,-4,8,-9c0,0,3,-4,4,-10c0,0,2,-6,2,-13c0,0,1,-7,1,-17c0,0,0,-14,0,-23c0,0,-1,-10,-3,-16c0,0,-3,-6,-7,-9c0,0,-4,-3,-11,-3c0,0,-8,0,-22,5c0,0,-14,5,-34,12c0,0,-21,6,-49,11c0,0,-29,6,-67,6c0,0,-69,0,-119,-29c0,0,-50,-28,-82,-76c0,0,-32,-48,-47,-111c0,0,-15,-63,-18,-131c0,0,20,11,44,22c0,0,24,11,53,20c0,0,29,9,61,15c0,0,32,5,68,5c0,0,79,0,132,-21c0,0,54,-21,87,-59c0,0,34,-38,48,-89c0,0,14,-51,14,-110c0,0,0,-64,-19,-123c0,0,-20,-59,-60,-105C635,85,595,40,533,13c0,0,-62,-26,-147,-26Z" 
id="f0_s3"
transform="scale(0.001,-0.001)" />

<path d="M452,373V875L97,373ZM452,0V267H23v95l470,671h82V373H711V267H575V0Z" 
id="f1_o"
transform="scale(0.001,-0.001)" />

<path d="M405,24c0,0,65,0,116,62c0,0,51,61,51,174c0,0,0,128,-50,221c0,0,-51,93,-144,93c0,0,-29,0,-61,-12c0,0,-33,-12,-96,-51c0,0,-14,-101,-14,-163c0,0,0,-72,27,-155c0,0,26,-84,79,-134c0,0,38,-35,92,-35ZM384,-17c0,0,-104,0,-177,68C207,51,66,185,66,397c0,0,0,136,54,258c0,0,54,122,156,217c0,0,101,95,193,128c0,0,93,33,172,33h44v-28c0,0,-99,-10,-161,-39c0,0,-62,-29,-123,-90c0,0,-61,-60,-101,-135c0,0,-39,-74,-66,-176c0,0,107,73,215,73c0,0,104,0,180,-83c0,0,76,-84,76,-215c0,0,0,-126,-77,-231c0,0,-92,-126,-244,-126Z" 
id="f1_q"
transform="scale(0.001,-0.001)" />

<path d="M379,29c0,0,41,0,84,37c0,0,43,36,65,121c0,0,34,128,34,362c0,0,0,173,-35,288c0,0,-27,86,-69,122c0,0,-31,25,-74,25c0,0,-51,0,-90,-46c0,0,-54,-62,-73,-195c0,0,-20,-132,-20,-261c0,0,0,-209,52,-341c0,0,42,-112,126,-112Zm-2,-46c0,0,-145,0,-241,170c0,0,-81,144,-81,347c0,0,0,173,52,298c0,0,52,125,139,186c0,0,67,49,139,49c0,0,116,0,208,-119c0,0,116,-147,116,-398c0,0,0,-176,-51,-299C658,217,608,94,529,38c0,0,-79,-55,-152,-55Z" 
id="f1_k"
transform="scale(0.001,-0.001)" />

<path d="M33,0V27c0,0,264,241,371,393c0,0,108,152,108,278c0,0,0,96,-59,158c0,0,-59,62,-141,62c0,0,-75,0,-134,-43c0,0,-59,-44,-88,-128H63c0,0,18,138,95,212c0,0,77,74,193,74c0,0,123,0,205,-80c0,0,83,-79,83,-186c0,0,0,-77,-36,-154c0,0,-55,-121,-179,-256C424,357,238,154,191,112H455c0,0,81,0,114,6c0,0,32,6,58,25c0,0,27,18,46,52h27L630,0Z" 
id="f1_m"
transform="scale(0.001,-0.001)" />

<path d="M23,0V26c0,0,47,0,66,10c0,0,19,11,28,33c0,0,10,22,10,85V416c0,0,0,112,-7,145c0,0,-5,25,-16,34c0,0,-11,10,-31,10c0,0,-21,0,-50,-11L12,620l207,83h32V557c0,0,75,75,88,86c0,0,34,29,72,44c0,0,39,16,77,16c0,0,64,0,110,-37c0,0,47,-38,62,-109c0,0,77,90,130,118c0,0,53,28,109,28c0,0,54,0,96,-28c0,0,42,-28,67,-91c0,0,16,-43,16,-136V154c0,0,0,-64,10,-88c0,0,8,-16,28,-28c0,0,20,-12,65,-12V0H844V26h14c0,0,44,0,69,18c0,0,17,12,24,38c0,0,3,13,3,72V448c0,0,0,83,-20,117c0,0,-29,48,-93,48c0,0,-39,0,-79,-20c0,0,-40,-19,-97,-73l-1,-8l2,-32V154c0,0,0,-70,8,-87c0,0,7,-17,29,-29c0,0,21,-12,73,-12V0H431V26c0,0,57,0,78,14c0,0,21,13,29,40c0,0,4,13,4,74V448c0,0,0,83,-25,120c0,0,-33,48,-91,48c0,0,-40,0,-80,-22c0,0,-61,-33,-95,-74V154c0,0,0,-67,10,-87c0,0,9,-20,27,-30c0,0,18,-11,74,-11V0Z" 
id="f1_29"
transform="scale(0.001,-0.001)" />

<path d="M55,0V26c0,0,50,0,67,10c0,0,17,10,27,32c0,0,10,23,10,86V418c0,0,0,111,-6,144c0,0,-6,24,-17,33c0,0,-11,10,-30,10c0,0,-21,0,-51,-11L45,620l206,83h33V154c0,0,0,-64,9,-85c0,0,9,-22,27,-32c0,0,19,-11,67,-11V0ZM222,909c0,0,-32,0,-54,23c0,0,-22,22,-22,53c0,0,0,32,22,54c0,0,22,22,54,22c0,0,31,0,53,-22c0,0,22,-22,22,-54c0,0,0,-31,-22,-53c0,0,-22,-23,-53,-23Z" 
id="f1_25"
transform="scale(0.001,-0.001)" />

<path d="M21,0V26H35c0,0,53,0,71,27c0,0,18,27,18,101V408c0,0,0,123,-5,150c0,0,-6,27,-17,37c0,0,-12,10,-31,10c0,0,-21,0,-50,-11L10,620l206,83h32V558c0,0,120,145,229,145c0,0,56,0,96,-28c0,0,40,-28,64,-92c0,0,16,-45,16,-137V154c0,0,0,-65,11,-88c0,0,8,-19,26,-29c0,0,18,-11,68,-11V0H419V26h14c0,0,47,0,66,15c0,0,20,15,27,43c0,0,3,11,3,70V434c0,0,0,93,-24,135c0,0,-24,42,-81,42c0,0,-88,0,-176,-97V154c0,0,0,-69,9,-86c0,0,10,-21,28,-31c0,0,19,-11,75,-11V0Z" 
id="f1_2a"
transform="scale(0.001,-0.001)" />

<path d="M292,-20c0,0,-57,0,-100,33c0,0,-42,33,-58,85c0,0,-17,52,-17,148V551c0,0,0,49,-10,68c0,0,-11,18,-31,29c0,0,-19,9,-68,9c-2,0,-4,0,-6,0v26H242V226c0,0,0,-95,33,-125c0,0,33,-30,80,-30c0,0,32,0,73,21c0,0,40,20,96,76V555c0,0,0,59,-21,80c0,0,-22,21,-89,22v26H647V269c0,0,0,-119,6,-145c0,0,6,-27,18,-37c0,0,12,-11,29,-11c0,0,23,0,52,13L763,63L558,-20H524V124C524,124,436,29,390,4c0,0,-47,-24,-98,-24Z" 
id="f1_2h"
transform="scale(0.001,-0.001)" />

<path d="M255,-10c0,0,-35,0,-68,18c0,0,-32,19,-48,55c0,0,-16,35,-16,109V632H15v24c0,0,41,16,84,56c0,0,43,39,77,92c0,0,17,29,48,104h23V683H407V632H247V188c0,0,0,-66,19,-90c0,0,19,-23,49,-23c0,0,24,0,47,16c0,0,23,15,36,45h29c0,0,-26,-73,-74,-110c0,0,-47,-36,-98,-36Z" 
id="f1_2g"
transform="scale(0.001,-0.001)" />

<path d="M479,469c0,0,-4,66,-16,93c0,0,-18,42,-55,65c0,0,-37,24,-78,24c0,0,-62,0,-111,-48c0,0,-48,-48,-57,-134ZM355,-20c0,0,-123,0,-211,95c0,0,-87,96,-87,258c0,0,0,175,90,273c0,0,89,98,225,98c0,0,115,0,189,-76c0,0,74,-75,74,-202H162c0,0,0,-152,74,-239c0,0,75,-86,175,-86c0,0,67,0,117,36c0,0,50,37,83,127l24,-15c0,0,-16,-102,-91,-186c0,0,-76,-83,-189,-83Z" 
id="f1_21"
transform="scale(0.001,-0.001)" />

<path d="M312,-20c0,0,-62,0,-143,22c0,0,-25,8,-40,8c0,0,-18,0,-27,-19H77V234h25c0,0,21,-105,80,-158c0,0,59,-53,132,-53c0,0,51,0,84,31c0,0,32,30,32,72c0,0,0,52,-36,87c0,0,-36,35,-144,88c0,0,-109,54,-142,97c0,0,-34,43,-34,107c0,0,0,85,58,141c0,0,58,57,150,57c0,0,40,0,97,-17c0,0,38,-11,51,-11c0,0,12,0,19,5c0,0,7,5,15,23h25V470H464c0,0,-28,110,-72,149c0,0,-45,40,-113,40c0,0,-53,0,-85,-28c0,0,-32,-27,-32,-61c0,0,0,-41,24,-71c0,0,23,-31,94,-65L389,381c0,0,152,-74,152,-194c0,0,0,-94,-71,-151c0,0,-70,-56,-158,-56Z" 
id="f1_2f"
transform="scale(0.001,-0.001)" />

<path d="M52,62L0,114L278,390L0,667l52,52L330,442L608,719l51,-51L382,390L659,114L608,62L330,338L52,62Z" 
id="f2_3a"
transform="scale(0.001,-0.001)" />

<path d="M0,214v74H784V214ZM0,494v72H784V494Z" 
id="f2_x"
transform="scale(0.001,-0.001)" />

<path d="M192,-4c0,0,-18,0,-30,2c0,0,-13,2,-20,3c0,0,-8,3,-11,8c0,0,-3,4,-3,10V946c0,0,0,6,3,11c0,0,3,4,11,7c0,0,7,2,20,4c0,0,12,2,30,2c0,0,19,0,31,-2c0,0,13,-2,20,-4c0,0,7,-3,10,-7c0,0,3,-5,3,-11V559H696V946c0,0,0,6,3,10c0,0,3,5,10,8c0,0,8,2,20,4c0,0,11,2,31,2c0,0,18,0,30,-2c0,0,12,-2,20,-4c0,0,7,-3,10,-7c0,0,3,-5,3,-11V19c0,0,0,-6,-3,-10c0,0,-3,-5,-10,-8c0,0,-8,-1,-20,-3c0,0,-12,-2,-30,-2c0,0,-20,0,-31,2c0,0,-12,2,-20,3c0,0,-7,3,-10,8c0,0,-3,4,-3,10V448H256V19c0,0,0,-6,-3,-10c0,0,-3,-5,-10,-8c0,0,-7,-1,-20,-3c0,0,-12,-2,-31,-2Z" 
id="f0_19"
transform="scale(0.001,-0.001)" />

<path d="M366,92c0,0,25,0,48,7c0,0,22,6,46,22c0,0,24,16,50,41c0,0,26,24,56,61V492c0,0,-51,62,-97,94c0,0,-47,33,-98,33c0,0,-47,0,-79,-22c0,0,-33,-23,-54,-59c0,0,-20,-37,-30,-83c0,0,-9,-47,-9,-94c0,0,0,-51,8,-100c0,0,8,-48,27,-86c0,0,19,-38,52,-60c0,0,32,-23,80,-23ZM345,-13c0,0,-74,0,-127,28c0,0,-52,29,-84,78c0,0,-33,49,-48,115c0,0,-15,66,-15,139c0,0,0,86,19,156c0,0,19,70,55,119c0,0,37,50,91,76c0,0,54,27,125,27c0,0,59,0,108,-26c0,0,49,-26,97,-76v390c0,0,0,5,2,10c0,0,3,4,10,7c0,0,8,3,19,5c0,0,12,1,30,1c0,0,18,0,30,-1c0,0,12,-2,19,-5c0,0,7,-3,10,-7c0,0,3,-5,3,-10V18c0,0,0,-6,-2,-10c0,0,-3,-5,-9,-7c0,0,-7,-2,-17,-3c0,0,-10,-2,-25,-2c0,0,-16,0,-26,2c0,0,-11,1,-18,3c0,0,-6,2,-9,7c0,0,-3,4,-3,10v90c0,0,-53,-58,-110,-90c0,0,-58,-31,-125,-31Z" 
id="f0_7v"
transform="scale(0.001,-0.001)" />

<path d="M429,92c0,0,47,0,80,22c0,0,33,23,54,60c0,0,20,38,30,84c0,0,10,46,10,93c0,0,0,52,-8,100c0,0,-8,48,-27,86c0,0,-19,37,-51,60c0,0,-32,22,-80,22c0,0,-24,0,-47,-7c0,0,-23,-7,-47,-23c0,0,-24,-15,-50,-40c0,0,-26,-25,-56,-62V220c0,0,51,-62,97,-95c0,0,45,-33,95,-33ZM176,-271c0,0,-18,0,-30,2c0,0,-12,1,-19,4c0,0,-7,3,-10,8c0,0,-3,4,-3,10V690c0,0,0,6,3,10c0,0,2,5,9,8c0,0,6,3,17,4c0,0,10,1,25,1c0,0,16,0,26,-1c0,0,10,-1,17,-4c0,0,6,-3,9,-7c0,0,3,-4,3,-11V601c0,0,30,31,59,54c0,0,28,23,57,39c0,0,28,15,59,23c0,0,30,8,63,8c0,0,74,0,125,-29c0,0,52,-28,84,-77c0,0,32,-50,47,-115c0,0,15,-65,15,-139c0,0,0,-88,-19,-158c0,0,-19,-70,-56,-119c0,0,-37,-49,-91,-75c0,0,-55,-26,-125,-26c0,0,-30,0,-55,6c0,0,-25,6,-50,18c0,0,-24,13,-48,32c0,0,-24,19,-51,46V-247c0,0,0,-6,-3,-10c0,0,-2,-5,-9,-8c0,0,-7,-3,-19,-4c0,0,-12,-2,-30,-2Z" 
id="f0_ay"
transform="scale(0.001,-0.001)" />

<path d="M343,-13c0,0,-49,0,-91,8c0,0,-42,7,-75,18c0,0,-33,11,-54,22c0,0,-22,12,-27,17c0,0,-6,5,-9,10c0,0,-3,5,-5,13c0,0,-3,7,-4,18c0,0,-1,11,-1,27c0,0,0,26,5,37c0,0,6,10,15,10c0,0,7,0,27,-12c0,0,20,-12,51,-25c0,0,31,-14,72,-26c0,0,41,-12,92,-12c0,0,49,0,87,13c0,0,37,12,62,35c0,0,26,24,39,55c0,0,12,32,12,69c0,0,0,41,-16,74c0,0,-16,33,-47,57c0,0,-31,24,-76,36c0,0,-45,13,-103,13H206c0,0,-6,0,-12,3c0,0,-6,2,-10,8c0,0,-4,6,-6,16c0,0,-3,10,-3,25c0,0,0,14,2,24c0,0,2,9,7,15c0,0,4,5,9,8c0,0,5,3,12,3h84c0,0,49,0,89,12c0,0,39,13,66,37c0,0,27,24,42,57c0,0,14,33,14,74c0,0,0,30,-9,57c0,0,-10,28,-30,48c0,0,-19,20,-49,32c0,0,-31,11,-70,11c0,0,-43,0,-80,-13c0,0,-36,-13,-64,-28c0,0,-29,-15,-47,-28c0,0,-19,-13,-26,-13c0,0,-6,0,-10,2c0,0,-4,2,-6,7c0,0,-3,6,-4,16c0,0,-1,10,-1,26c0,0,0,12,0,20c0,0,1,9,3,15c0,0,3,6,6,12c0,0,3,5,10,12c0,0,7,7,28,20c0,0,22,14,54,27c0,0,32,13,73,22c0,0,41,9,89,9c0,0,67,0,118,-17c0,0,51,-18,85,-49c0,0,34,-31,51,-75c0,0,17,-44,17,-97c0,0,0,-45,-12,-84c0,0,-12,-39,-35,-70c0,0,-24,-30,-57,-51c0,0,-34,-21,-78,-30v-1c0,0,50,-5,92,-25c0,0,41,-20,71,-50c0,0,30,-29,47,-69c0,0,16,-40,16,-86c0,0,0,-66,-23,-119c0,0,-23,-54,-66,-92C593,65,550,27,486,7c0,0,-63,-20,-143,-20Z" 
id="f0_s0"
transform="scale(0.001,-0.001)" />

<path d="M372,472c0,0,58,0,97,15c0,0,38,15,65,42c0,0,26,26,39,63c0,0,14,37,14,80c0,0,0,59,-22,99c0,0,-23,39,-55,59c0,0,-32,19,-67,24c0,0,-35,5,-68,5H256V472ZM192,-4c0,0,-18,0,-31,2c0,0,-12,2,-19,3c0,0,-8,3,-11,8c0,0,-3,4,-3,10V910c0,0,0,30,16,42c0,0,15,13,35,13H386c0,0,31,0,60,-3c0,0,28,-2,68,-11c0,0,39,-8,80,-32c0,0,40,-23,69,-58c0,0,28,-34,43,-79c0,0,16,-45,16,-100c0,0,0,-72,-24,-130c0,0,-24,-58,-69,-100c0,0,-44,-41,-109,-63c0,0,-64,-22,-154,-22H256V19c0,0,0,-6,-3,-10c0,0,-3,-5,-10,-8c0,0,-7,-1,-20,-3c0,0,-12,-2,-31,-2Z" 
id="f0_2g"
transform="scale(0.001,-0.001)" />

<path d="M209,-4c0,0,-18,0,-30,2c0,0,-12,1,-19,3c0,0,-7,3,-10,7c0,0,-3,4,-3,10V607H52c0,0,-12,0,-18,12c0,0,-6,12,-6,39c0,0,0,14,2,24c0,0,1,10,4,16c0,0,3,7,8,9c0,0,4,3,10,3h95v69c0,0,0,71,13,121c0,0,13,50,40,82c0,0,27,33,67,48c0,0,41,15,96,15c0,0,26,0,51,-5c0,0,25,-4,38,-10c0,0,13,-6,18,-10c0,0,4,-5,7,-12c0,0,3,-7,5,-17c0,0,1,-10,1,-24c0,0,0,-15,-2,-23c0,0,-1,-9,-3,-14c0,0,-2,-5,-5,-7c0,0,-3,-2,-8,-2c0,0,-5,0,-13,3c0,0,-7,4,-19,8c0,0,-11,4,-26,7c0,0,-15,4,-36,4c0,0,-27,0,-47,-9c0,0,-19,-9,-31,-28c0,0,-12,-19,-17,-50c0,0,-5,-30,-5,-73V710H421c0,0,6,0,10,-3c0,0,4,-2,7,-9c0,0,4,-6,6,-16c0,0,2,-10,2,-24c0,0,0,-27,-7,-39c0,0,-7,-12,-18,-12H271V18c0,0,0,-6,-3,-10c0,0,-3,-4,-11,-7c0,0,-7,-2,-19,-3c0,0,-12,-2,-29,-2Z" 
id="f0_89"
transform="scale(0.001,-0.001)" />

<path d="M261,-4c0,0,-26,0,-40,2c0,0,-14,2,-20,6c0,0,-7,5,-6,12c0,0,1,7,5,17L566,853H103c0,0,-15,0,-22,15c0,0,-7,14,-7,41c0,0,0,14,2,25c0,0,2,10,6,17c0,0,3,7,9,11c0,0,5,3,12,3H665c0,0,11,0,18,-2c0,0,8,-2,12,-9c0,0,5,-7,7,-17c0,0,2,-11,2,-27c0,0,0,-13,-1,-24c0,0,-1,-11,-3,-21c0,0,-2,-10,-5,-19c0,0,-4,-10,-8,-20L339,24c0,0,-4,-9,-9,-14c0,0,-6,-6,-14,-9c0,0,-9,-3,-22,-4c0,0,-14,-1,-33,-1Z" 
id="f0_s4"
transform="scale(0.001,-0.001)" />

<path d="M385,92c0,0,42,0,74,13c0,0,31,14,54,39c0,0,23,25,38,60c0,0,15,35,24,77c0,0,9,43,12,92c0,0,3,50,3,103c0,0,0,73,-5,130c0,0,-5,57,-15,101c0,0,-10,44,-26,76c0,0,-16,32,-39,52c0,0,-22,21,-51,30c0,0,-29,9,-64,9c0,0,-64,0,-103,-30c0,0,-40,-29,-63,-82c0,0,-23,-52,-31,-122c0,0,-8,-70,-8,-150c0,0,0,-108,11,-184c0,0,11,-76,36,-123c0,0,24,-48,62,-69c0,0,37,-22,91,-22ZM378,-13c0,0,-91,0,-154,32c0,0,-62,32,-100,95c0,0,-38,63,-54,155c0,0,-16,92,-16,212c0,0,0,110,18,202c0,0,18,92,58,158c0,0,40,66,106,103c0,0,66,36,161,36c0,0,92,0,154,-33c0,0,62,-32,100,-95c0,0,39,-63,55,-155c0,0,16,-92,16,-212c0,0,0,-111,-18,-203c0,0,-17,-91,-58,-157C646,125,605,59,540,22c0,0,-66,-35,-162,-35Z" 
id="f0_rx"
transform="scale(0.001,-0.001)" />

<path d="M272,-13c0,0,-35,0,-68,6c0,0,-32,6,-58,13c0,0,-26,9,-44,18c0,0,-17,10,-26,17c0,0,-8,8,-12,21c0,0,-3,14,-3,37c0,0,0,14,1,24c0,0,2,9,4,15c0,0,2,6,6,9c0,0,4,3,10,3c0,0,8,0,24,-11c0,0,16,-10,39,-22c0,0,24,-12,56,-22c0,0,32,-10,74,-10c0,0,31,0,56,7c0,0,26,6,44,19c0,0,19,14,29,34c0,0,10,20,10,47c0,0,0,29,-14,48c0,0,-15,19,-39,34c0,0,-24,15,-53,27c0,0,-30,11,-62,24c0,0,-32,13,-62,29c0,0,-30,16,-54,39c0,0,-24,23,-38,55c0,0,-15,32,-15,77c0,0,0,40,16,76c0,0,15,36,45,63c0,0,31,28,77,44c0,0,46,17,107,17c0,0,27,0,54,-5c0,0,26,-5,48,-11c0,0,22,-7,37,-15c0,0,15,-8,23,-14c0,0,8,-6,11,-11c0,0,2,-4,3,-10c0,0,1,-5,2,-14c0,0,2,-8,2,-20c0,0,0,-12,-2,-22c0,0,-1,-9,-3,-15c0,0,-3,-6,-7,-8c0,0,-3,-3,-8,-3c0,0,-7,0,-19,8c0,0,-13,8,-33,18c0,0,-20,9,-47,17c0,0,-28,9,-63,9c0,0,-31,0,-55,-7c0,0,-24,-7,-39,-20c0,0,-15,-13,-23,-31c0,0,-8,-18,-8,-39c0,0,0,-29,15,-49c0,0,15,-20,39,-35c0,0,24,-15,54,-27c0,0,31,-11,62,-24c0,0,32,-13,63,-29c0,0,31,-15,55,-38c0,0,24,-22,38,-53c0,0,15,-32,15,-75c0,0,0,-51,-19,-92c0,0,-19,-40,-54,-68C463,42,428,15,379,1c0,0,-48,-14,-107,-14Z" 
id="f0_b5"
transform="scale(0.001,-0.001)" />

<path d="M161,0c0,0,-5,0,-10,3c0,0,-4,2,-8,8c0,0,-5,6,-7,16c0,0,-2,9,-2,24c0,0,0,13,2,23c0,0,2,9,6,16c0,0,3,6,8,9c0,0,5,4,11,4H362V837L176,726c0,0,-15,-8,-23,-9c0,0,-1,-1,-3,-1c-3,0,-8,1,-11,4c0,0,-5,5,-7,16c0,0,-2,11,-2,28c0,0,0,13,1,22c0,0,1,9,4,15c0,0,2,6,6,10c0,0,4,5,11,9L374,963c0,0,3,2,7,4c0,0,5,1,11,3c0,0,7,1,16,2c0,0,9,0,22,0c0,0,18,0,30,-2c0,0,12,-1,19,-4c0,0,7,-2,9,-6c0,0,2,-5,2,-9V103H665c0,0,6,0,11,-4c0,0,5,-3,8,-9c0,0,4,-7,6,-16c0,0,2,-10,2,-23c0,0,0,-15,-3,-24c0,0,-2,-10,-6,-16c0,0,-3,-6,-8,-8c0,0,-5,-3,-10,-3Z" 
id="f0_ry"
transform="scale(0.001,-0.001)" />

<path d="M253,0V27h36c0,0,64,0,91,39c0,0,16,24,16,109V948H274c0,0,-71,0,-100,-10c0,0,-39,-14,-67,-54c0,0,-27,-41,-33,-109H46l12,237H883L894,775H865c0,0,-8,62,-22,89c0,0,-23,43,-61,64c0,0,-39,20,-101,20H539V175c0,0,0,-93,20,-116c0,0,28,-32,87,-32h36V0Z" 
id="f1_1k"
transform="scale(0.001,-0.001)" />

<path d="M20,0V26c0,0,45,0,71,15c0,0,15,7,24,28c0,0,9,21,9,85V773c0,0,0,117,-5,144c0,0,-6,27,-17,37c0,0,-12,9,-31,9c0,0,-16,0,-51,-12L10,978l204,83h34V561c0,0,83,91,131,116c0,0,49,26,97,26c0,0,58,0,100,-32c0,0,42,-32,62,-101c0,0,14,-47,14,-174V154c0,0,0,-65,11,-89c0,0,7,-18,25,-28c0,0,18,-11,66,-11V0H418V26h15c0,0,48,0,67,15c0,0,18,15,26,43c0,0,2,12,2,70V396c0,0,0,112,-12,147c0,0,-11,35,-36,53c0,0,-26,17,-61,17c0,0,-37,0,-76,-19c0,0,-40,-20,-95,-79V154c0,0,0,-70,8,-87c0,0,8,-17,29,-29c0,0,22,-12,74,-12V0Z" 
id="f1_24"
transform="scale(0.001,-0.001)" />

<path d="M342,-20c0,0,-116,0,-203,97c0,0,-86,98,-86,264c0,0,0,161,96,261c0,0,95,101,230,101c0,0,100,0,165,-53c0,0,65,-54,65,-111c0,0,0,-29,-18,-46c0,0,-18,-18,-51,-18c0,0,-44,0,-66,29c0,0,-13,15,-17,59c0,0,-4,45,-30,68c0,0,-26,22,-73,22c0,0,-74,0,-120,-55c0,0,-60,-73,-60,-193c0,0,0,-122,60,-216c0,0,60,-93,162,-93c0,0,73,0,131,49c0,0,41,35,80,126l22,-10C629,261,601,125,521,52c0,0,-81,-72,-179,-72Z" 
id="f1_1z"
transform="scale(0.001,-0.001)" />

<path d="M406,32c0,0,72,0,119,60c0,0,47,59,47,205c0,0,0,181,-78,286c0,0,-53,71,-135,71c0,0,-40,0,-79,-23c0,0,-40,-24,-65,-83c0,0,-24,-58,-24,-151c0,0,0,-149,59,-257c0,0,59,-108,156,-108ZM374,-20c0,0,-154,0,-245,122c0,0,-77,104,-77,233c0,0,0,94,46,187c0,0,47,92,123,137c0,0,76,44,161,44c0,0,155,0,249,-118c0,0,80,-100,80,-231c0,0,0,-91,-44,-185C667,169,623,75,546,27c0,0,-77,-47,-172,-47Z" 
id="f1_2b"
transform="scale(0.001,-0.001)" />

<path d="M17,0V26c0,0,52,0,77,17c0,0,19,12,26,38c0,0,4,13,4,73V419c0,0,0,119,-5,142c0,0,-4,23,-17,33c0,0,-13,11,-33,11c0,0,-23,0,-52,-11l-7,26l207,83h31V549c0,0,86,154,176,154c0,0,41,0,68,-25c0,0,27,-25,27,-58c0,0,0,-29,-20,-49c0,0,-19,-20,-46,-20c0,0,-26,0,-58,25c0,0,-33,26,-48,26c0,0,-14,0,-29,-15c0,0,-34,-30,-70,-101V159c0,0,0,-56,15,-85c0,0,9,-20,34,-34c0,0,24,-14,71,-14V0Z" 
id="f1_2e"
transform="scale(0.001,-0.001)" />

<path d="M286,72c0,0,57,0,149,75V407c0,0,-113,-45,-145,-64c0,0,-59,-32,-85,-68c0,0,-25,-36,-25,-78c0,0,0,-54,32,-89c0,0,32,-36,74,-36ZM217,-13c0,0,-71,0,-116,48c0,0,-46,48,-46,127c0,0,0,50,22,87c0,0,31,50,106,95c0,0,76,45,252,109v26c0,0,0,102,-32,140c0,0,-32,38,-94,38c0,0,-47,0,-74,-25c0,0,-28,-25,-28,-58l1,-43c0,0,0,-34,-17,-53c0,0,-18,-18,-47,-18c0,0,-28,0,-45,19c0,0,-18,19,-18,53c0,0,0,64,66,117c0,0,65,54,184,54c0,0,91,0,149,-31c0,0,44,-23,65,-72c0,0,13,-32,13,-131V238c0,0,0,-98,4,-120c0,0,4,-22,12,-29c0,0,9,-8,20,-8c0,0,12,0,21,5c0,0,16,10,61,55V99C676,99,592,-12,516,-12c0,0,-37,0,-58,24c0,0,-22,26,-23,86C435,98,330,17,303,5c0,0,-40,-18,-86,-18Z" 
id="f1_1x"
transform="scale(0.001,-0.001)" />

<path d="M22,-17c0,0,-29,0,-54,21c0,0,-18,16,-18,44c0,0,0,25,17,41c0,0,16,17,39,17c0,0,24,0,50,-24C56,82,76,65,86,65c0,0,9,0,23,11c0,0,35,28,95,122c0,0,61,93,79,134c0,0,-46,182,-49,193c0,0,-17,49,-45,69c0,0,-27,20,-81,20c0,0,-17,0,-40,-1v26l199,36c0,0,37,-39,55,-78c0,0,14,-26,44,-141l66,99c0,0,26,35,64,68c0,0,37,32,65,44c0,0,18,8,40,8c0,0,32,0,51,-17c0,0,19,-18,19,-42c0,0,0,-29,-11,-39c0,0,-21,-19,-48,-19c0,0,-16,0,-34,7c0,0,-35,12,-47,12c0,0,-18,0,-43,-21c0,0,-46,-39,-111,-150L439,150c0,0,14,-59,24,-71c0,0,10,-11,20,-11c0,0,15,0,37,17c0,0,41,34,70,89l27,-13C617,161,569,73,497,15c0,0,-41,-32,-70,-32c0,0,-42,0,-66,46c0,0,-16,29,-64,251C297,280,180,78,110,20c0,0,-46,-37,-88,-37Z" 
id="f3_2k"
transform="scale(0.001,-0.001)" />

<path d="M-60,-328c0,0,-23,0,-41,17c0,0,-17,18,-17,41c0,0,0,29,24,53c0,0,24,23,53,23c0,0,15,0,24,-6c0,0,6,-4,13,-21c0,0,6,-18,12,-24c0,0,4,-3,9,-3c0,0,5,0,16,7c0,0,41,25,96,81c0,0,71,72,106,119L193,430c0,0,-11,117,-32,142c0,0,-20,25,-70,25c0,0,-15,0,-56,-4l-7,28l219,54c0,0,25,-43,35,-81c0,0,10,-38,20,-148L334,80c0,0,45,54,130,170c0,0,41,56,102,154c0,0,36,59,45,83c0,0,4,12,4,25c0,0,0,8,-5,13c0,0,-6,5,-28,12c0,0,-21,7,-36,26c0,0,-15,19,-15,44c0,0,0,30,18,49c0,0,18,19,45,19c0,0,33,0,56,-28c0,0,23,-27,23,-74c0,0,0,-59,-40,-135c0,0,-40,-76,-155,-232C478,206,363,49,200,-135c0,0,-113,-127,-168,-160c0,0,-53,-33,-92,-33Z" 
id="f3_2l"
transform="scale(0.001,-0.001)" />

<path d="M355,0V355H0v72H355V784h72V427H782V355H427V0Z" 
id="f2_f"
transform="scale(0.001,-0.001)" />

<path d="M0,0V72H751V0ZM751,166L0,538v38L751,949V868L123,559L751,247V166Z" 
id="f2_2t"
transform="scale(0.001,-0.001)" />

<path d="M238,-17c0,0,-103,0,-139,25C99,8,62,33,62,62c0,0,0,22,17,38c0,0,18,16,42,16c0,0,19,0,38,-6c0,0,13,-3,58,-27c0,0,45,-23,62,-28c0,0,27,-8,59,-8c0,0,76,0,132,59c0,0,56,59,56,140c0,0,0,59,-26,115c0,0,-19,41,-42,63c0,0,-32,30,-88,54c0,0,-56,25,-114,25H232v22c0,0,59,8,118,42c0,0,59,35,86,85c0,0,27,49,27,108c0,0,0,76,-48,124c0,0,-48,47,-120,47c0,0,-116,0,-193,-124L77,819c0,0,44,102,110,158c0,0,66,56,164,56c0,0,122,0,187,-80c0,0,49,-58,49,-126c0,0,0,-110,-139,-228c0,0,93,-36,141,-104c0,0,48,-68,48,-160c0,0,0,-131,-84,-227C553,108,444,-17,238,-17Z" 
id="f1_n"
transform="scale(0.001,-0.001)" />

<path d="M58,0V26c0,0,47,0,64,10c0,0,18,10,28,32c0,0,9,23,9,86V775c0,0,0,116,-5,142c0,0,-5,27,-17,37c0,0,-11,9,-29,9c0,0,-20,0,-49,-12L46,978l204,83h34V154c0,0,0,-64,9,-85c0,0,9,-21,29,-32c0,0,19,-11,72,-11V0Z" 
id="f1_28"
transform="scale(0.001,-0.001)" />

<path d="M398,24c0,0,74,0,120,58c0,0,61,76,61,214c0,0,0,156,-69,240c0,0,-47,59,-113,59c0,0,-36,0,-71,-18c0,0,-27,-14,-88,-81V242c0,0,0,-83,6,-109c0,0,11,-43,51,-76c0,0,41,-33,103,-33ZM-4,-326v27H15c5,0,42,0,69,16c0,0,14,8,22,26c0,0,7,19,7,94V481c0,0,0,67,-6,85c0,0,-5,18,-18,27c0,0,-13,9,-36,9c0,0,-18,0,-45,-10L0,615l209,85h29V540c0,0,53,91,106,127c0,0,53,36,112,36c0,0,103,0,172,-80c0,0,84,-99,84,-257c0,0,0,-176,-102,-292c0,0,-83,-94,-210,-94c0,0,-55,0,-95,16c0,0,-30,10,-67,44V-167c0,0,0,-71,8,-90c0,0,9,-20,30,-31c0,0,21,-11,77,-11v-27Z" 
id="f1_2c"
transform="scale(0.001,-0.001)" />

<path d="M63,0V26H93c0,0,30,0,54,15c0,0,25,15,34,41c0,0,10,25,10,99V630H58v53H191v45c0,0,0,102,33,173c0,0,32,71,100,114c0,0,68,44,152,44c0,0,79,0,145,-51c0,0,43,-33,43,-75c0,0,0,-22,-19,-42c0,0,-20,-20,-42,-20c0,0,-17,0,-36,12c0,0,-19,13,-47,53c0,0,-28,41,-51,55c0,0,-23,14,-51,14c0,0,-35,0,-58,-18c0,0,-24,-18,-35,-57c0,0,-10,-38,-10,-197V683H491V630H315V181c0,0,0,-96,21,-122c0,0,27,-33,73,-33h62V0Z" 
id="f1_22"
transform="scale(0.001,-0.001)" />

<path d="M191,-20c0,0,-34,0,-58,24c0,0,-24,24,-24,58c0,0,0,35,24,59c0,0,24,24,58,24c0,0,35,0,59,-24c0,0,24,-25,24,-59c0,0,0,-34,-24,-58c0,0,-25,-24,-59,-24Z" 
id="f1_i"
transform="scale(0.001,-0.001)" />

<path d="M275,-20L578,891H299c0,0,-84,0,-120,-20c0,0,-63,-35,-101,-106l-21,8l97,239H696V983L359,-20Z" 
id="f1_r"
transform="scale(0.001,-0.001)" />

<path d="M197,0V27c0,0,71,2,92,13c0,0,21,10,29,29c0,0,9,18,9,109V725c0,0,0,110,-8,141c0,0,-5,24,-19,35c0,0,-14,11,-33,11c0,0,-28,0,-77,-23l-11,23l246,121h25V178c0,0,0,-85,7,-106c0,0,7,-21,29,-32c0,0,23,-11,91,-13V0Z" 
id="f1_l"
transform="scale(0.001,-0.001)" />

<path d="M-41,0V22L474,558H259c0,0,-68,0,-82,-3c0,0,-21,-5,-41,-24c0,0,-21,-19,-42,-63H66l63,189H602V639L86,102H306c0,0,78,0,99,6c0,0,21,6,39,25c0,0,17,20,39,70h26L444,0Z" 
id="f3_2m"
transform="scale(0.001,-0.001)" />

<path d="M-47,0l10,26c0,0,59,2,79,10c0,0,31,14,46,35c0,0,23,35,49,125L312,813c0,0,22,76,22,112c0,0,0,28,-20,44c0,0,-21,16,-77,16c0,0,-13,0,-20,1l9,26H637l-6,-26c0,0,-69,0,-98,-14c0,0,-29,-13,-49,-44c0,0,-13,-20,-44,-126L264,183c0,0,-20,-63,-20,-87c0,0,0,-16,20,-31c0,0,13,-10,59,-10h98c0,0,108,0,172,27c0,0,46,20,85,60c0,0,21,23,74,112l19,33h28L700,0Z" 
id="f3_1c"
transform="scale(0.001,-0.001)" />

<path d="M512,518c0,0,82,0,149,34c0,0,67,33,105,101c0,0,38,67,38,140c0,0,0,75,-47,119c0,0,-47,44,-142,44c0,0,-52,0,-125,-12L376,541c0,0,85,-23,136,-23ZM-35,0l8,26c0,0,78,0,109,28c0,0,31,27,67,151L312,782c0,0,30,104,30,139c0,0,0,26,-21,44c0,0,-21,17,-94,21l9,26H636c0,0,157,0,235,-68c0,0,78,-67,78,-164c0,0,0,-77,-50,-150c0,0,-49,-72,-147,-117c0,0,-97,-46,-210,-46c0,0,-71,0,-179,27L280,203c0,0,-28,-92,-28,-121c0,0,0,-22,20,-37c0,0,20,-14,96,-19L361,0Z" 
id="f3_1g"
transform="scale(0.001,-0.001)" />

<path d="M83,0C83,0,48,0,24,24C24,24,0,49,0,83c0,0,0,34,24,58c0,0,24,24,59,24c0,0,34,0,58,-24c0,0,24,-24,24,-58c0,0,0,-34,-24,-59C141,24,117,0,83,0ZM695,0c0,0,-34,0,-58,24c0,0,-25,25,-25,59c0,0,0,34,25,58c0,0,24,24,58,24c0,0,34,0,58,-24c0,0,24,-24,24,-58c0,0,0,-34,-24,-59C753,24,729,0,695,0ZM388,594c0,0,-34,0,-59,23c0,0,-24,24,-24,59c0,0,0,34,24,58c0,0,25,25,59,25c0,0,34,0,58,-25c0,0,24,-24,24,-58c0,0,0,-35,-24,-59c0,0,-24,-23,-58,-23Z" 
id="f2_1s"
transform="scale(0.001,-0.001)" />

<path d="M25,0V26c0,0,27,4,47,19c0,0,29,22,96,111L311,346L182,535c0,0,-55,81,-86,102c0,0,-30,20,-75,20v26H341V657c0,0,-30,0,-42,-10c0,0,-13,-11,-13,-28c0,0,0,-19,27,-56c0,0,8,-12,25,-37l48,-78l56,77c0,0,55,74,55,94c0,0,0,16,0,27c0,0,0,11,0,11v26H674V657c0,0,-37,-2,-64,-20c0,0,-37,-26,-100,-111L416,402L587,156c0,0,63,-91,89,-109c0,0,27,-18,70,-21V0H423V26c0,0,34,0,53,15c0,0,14,11,14,28c0,0,0,17,-48,87L341,302L232,157c0,0,-50,-69,-50,-82c0,0,0,-18,17,-32c0,0,17,-15,50,-17V0Z" 
id="f1_2k"
transform="scale(0.001,-0.001)" />

<path d="M397,34c0,0,67,0,126,75c0,0,58,74,58,216c0,0,0,131,-58,201c0,0,-59,70,-133,70c0,0,-39,0,-79,-20c0,0,-29,-14,-75,-59V109c0,0,37,-37,78,-56c0,0,40,-19,83,-19ZM358,-20c0,0,-59,0,-121,21c0,0,-61,22,-126,65V773c0,0,0,117,-5,144c0,0,-6,27,-18,37c0,0,-12,9,-29,9c0,0,-21,0,-53,-12l-9,27l205,83h34V564c0,0,98,139,213,139c0,0,105,0,183,-90c0,0,78,-90,78,-245c0,0,0,-182,-121,-293c0,0,-103,-95,-231,-95Z" 
id="f1_1y"
transform="scale(0.001,-0.001)" />

<path d="M17,-328c0,0,-67,0,-100,24c0,0,-33,25,-33,51c0,0,0,26,18,45c0,0,18,18,43,18c0,0,19,0,40,-9c0,0,12,-6,48,-38c0,0,37,-33,61,-33c0,0,18,0,35,14c0,0,17,14,25,46c0,0,8,33,8,141V416c0,0,0,113,-6,145c0,0,-6,25,-17,34c0,0,-11,10,-31,10c0,0,-21,0,-51,-11L47,620l207,83h32V16c0,0,0,-175,-74,-260c0,0,-75,-84,-195,-84ZM223,908c0,0,-32,0,-54,23c0,0,-22,22,-22,53c0,0,0,32,22,55c0,0,22,22,54,22c0,0,32,0,54,-22c0,0,22,-23,22,-55c0,0,0,-31,-22,-53c0,0,-22,-23,-54,-23Z" 
id="f1_26"
transform="scale(0.001,-0.001)" />

<path d="M82,-253v33c0,0,77,25,119,78c0,0,42,54,42,114c0,0,0,14,-7,23c0,0,-5,6,-11,6c0,0,-8,0,-35,-14c0,0,-14,-7,-28,-7c0,0,-37,0,-58,21C104,1,82,23,82,61c0,0,0,36,28,62c0,0,28,27,68,27c0,0,49,0,88,-43c0,0,38,-43,38,-113c0,0,0,-77,-53,-143c0,0,-53,-66,-169,-104Z" 
id="f1_g"
transform="scale(0.001,-0.001)" />

<path d="M394,23c0,0,80,0,129,45c0,0,48,45,48,110c0,0,0,54,-28,97c0,0,-53,79,-214,206c0,0,-62,-52,-92,-114c0,0,-30,-61,-30,-133c0,0,0,-96,53,-154c0,0,52,-57,134,-57Zm17,566c0,0,90,81,114,128c0,0,24,46,24,105c0,0,0,79,-44,123c0,0,-44,45,-121,45c0,0,-76,0,-124,-45c0,0,-48,-44,-48,-103c0,0,0,-38,20,-77c0,0,20,-39,56,-74L411,589ZM382,-17c0,0,-144,0,-225,90c0,0,-64,72,-64,158c0,0,0,67,45,133c0,0,45,66,156,146c0,0,-121,98,-156,158c0,0,-34,59,-34,124c0,0,0,98,76,169c0,0,76,72,202,72c0,0,123,0,198,-67c0,0,74,-66,74,-151c0,0,0,-57,-40,-116c0,0,-40,-59,-168,-139c0,0,132,-101,174,-159c0,0,57,-76,57,-161c0,0,0,-106,-82,-182c0,0,-81,-75,-213,-75Z" 
id="f1_s"
transform="scale(0.001,-0.001)" />

<path d="M45,0V72H795V0Zm0,166v82L673,558L45,870v81L795,578V540L45,166Z" 
id="f2_39"
transform="scale(0.001,-0.001)" />

<path d="M247,-17c0,0,-91,0,-132,30c0,0,-42,31,-42,68c0,0,0,21,17,37c0,0,18,16,44,17c0,0,19,0,34,-6c0,0,14,-7,49,-31c0,0,56,-39,113,-39c0,0,88,0,154,66c0,0,66,66,66,161c0,0,0,92,-59,171c0,0,-59,80,-163,123c0,0,-81,34,-221,39l194,393H663L605,885H301L234,750c0,0,198,-29,313,-147c0,0,100,-102,100,-239c0,0,0,-80,-33,-148c0,0,-32,-68,-81,-116c0,0,-50,-47,-110,-77c0,0,-86,-40,-176,-40Z" 
id="f1_p"
transform="scale(0.001,-0.001)" />

<path d="M545,30c0,0,143,0,236,111c0,0,93,111,93,351c0,0,0,259,-103,386c0,0,-82,102,-226,102c0,0,-136,0,-218,-101C327,879,225,754,225,512c0,0,0,-247,106,-380c0,0,81,-102,214,-102Zm2,-51c0,0,-209,0,-351,147C196,126,54,274,54,510c0,0,0,240,164,393c0,0,142,131,341,131c0,0,197,0,341,-149c0,0,145,-149,145,-373c0,0,0,-230,-146,-382C899,130,754,-21,547,-21Z" 
id="f1_1f"
transform="scale(0.001,-0.001)" />

<path d="M31,0V27H67c0,0,36,0,68,18c0,0,24,12,32,36c0,0,9,24,9,98V836c0,0,0,96,-19,119c0,0,-27,30,-90,30H31v27H811L822,790H792c0,0,-15,80,-34,110c0,0,-19,30,-57,46c0,0,-29,11,-105,11H319V557H541c0,0,87,0,116,26c0,0,39,35,44,121h27V352H701c0,0,-11,74,-21,95c0,0,-14,26,-45,41c0,0,-30,15,-94,15H319V168c0,0,0,-67,6,-81c0,0,6,-15,21,-24c0,0,15,-8,56,-8H574c0,0,86,0,124,12c0,0,39,12,75,47c0,0,46,46,95,139h30L811,0Z" 
id="f1_15"
transform="scale(0.001,-0.001)" />

<path d="M474,-326c0,0,-112,57,-188,133c0,0,-107,108,-165,254c0,0,-58,147,-58,305c0,0,0,231,114,421c0,0,114,191,297,273v-31c0,0,-92,-51,-151,-139c0,0,-59,-88,-88,-223c0,0,-30,-135,-30,-281c0,0,0,-160,25,-290c0,0,20,-102,47,-164c0,0,28,-62,75,-120c0,0,47,-57,122,-109v-29Z" 
id="f1_c"
transform="scale(0.001,-0.001)" />

<path d="M35,-326v29c0,0,92,51,151,139c0,0,60,87,89,221c0,0,28,136,28,282c0,0,0,159,-24,290c0,0,-19,103,-47,165c0,0,-28,62,-75,119c0,0,-46,57,-122,110v31c0,0,113,-56,188,-132c0,0,107,-109,165,-255c0,0,58,-147,58,-306c0,0,0,-231,-114,-420c0,0,-113,-191,-297,-273Z" 
id="f1_d"
transform="scale(0.001,-0.001)" />

<path d="M485,53c0,0,135,0,206,61c0,0,71,60,71,150c0,0,0,59,-32,114c0,0,-33,54,-105,85c0,0,-72,32,-179,32c0,0,-46,0,-79,-2c0,0,-33,-1,-53,-5V73c0,0,86,-20,171,-20ZM455,547c0,0,109,0,164,23c0,0,55,24,84,72c0,0,29,49,29,106c0,0,0,89,-72,151c0,0,-73,63,-212,63c0,0,-74,0,-134,-16V557c0,0,27,-5,63,-8c0,0,35,-2,78,-2ZM24,0V27H63c0,0,63,0,91,41c0,0,17,26,17,111V833c0,0,0,94,-22,119c0,0,-29,33,-86,33H24v27H462c0,0,122,0,196,-18c0,0,112,-27,171,-95c0,0,59,-68,59,-157c0,0,0,-76,-46,-136c0,0,-47,-60,-137,-89c0,0,105,-23,157,-72c0,0,73,-69,73,-168c0,0,0,-75,-48,-145C887,132,839,63,756,32C756,32,673,0,502,0Z" 
id="f1_12"
transform="scale(0.001,-0.001)" />

<path d="M473,53c0,0,173,0,287,121c0,0,114,122,114,330c0,0,0,210,-114,330c0,0,-114,121,-293,121c0,0,-67,0,-153,-21V74c0,0,95,-21,159,-21ZM26,0V27H64c0,0,64,0,91,41c0,0,16,25,16,111V833c0,0,0,95,-21,119c0,0,-29,33,-86,33H26v27H438c0,0,226,0,345,-51c0,0,118,-52,190,-172c0,0,72,-120,72,-278c0,0,0,-211,-129,-353C916,158,773,0,478,0Z" 
id="f1_14"
transform="scale(0.001,-0.001)" />

<path d="M678,393L506,802L330,393ZM11,0V27c0,0,63,12,82,30c0,0,38,35,84,145l356,832h27L912,193c0,0,43,-101,77,-132c0,0,35,-30,97,-34V0H687V27c0,0,60,3,82,21c0,0,21,17,21,41c0,0,0,33,-30,104L700,338H307L239,179c0,0,-26,-59,-26,-88c0,0,0,-23,22,-41c0,0,22,-17,95,-23V0Z" 
id="f1_11"
transform="scale(0.001,-0.001)" />

<path d="M548,-21c0,0,-251,0,-389,185C159,164,56,303,56,490c0,0,0,152,68,278c0,0,67,127,186,197c0,0,119,69,260,69c0,0,109,0,216,-53c0,0,31,-17,44,-17c0,0,20,0,35,14c0,0,20,21,28,56h26L943,690H919c0,0,-46,155,-131,224c0,0,-86,68,-206,68c0,0,-100,0,-181,-51c0,0,-81,-52,-128,-163c0,0,-46,-112,-46,-279c0,0,0,-137,44,-238c0,0,44,-101,132,-154c0,0,88,-54,201,-54c0,0,99,0,174,42c0,0,75,42,165,167l23,-14C966,238,890,103,789,40c0,0,-102,-61,-241,-61Z" 
id="f1_13"
transform="scale(0.001,-0.001)" />

<path d="M411,-239c0,0,134,0,198,48c0,0,64,47,64,100c0,0,0,39,-38,55c0,0,-39,16,-154,19c0,0,-167,5,-258,17c0,0,-35,-37,-53,-70c0,0,-17,-32,-17,-60c0,0,0,-36,43,-62c0,0,74,-47,215,-47ZM380,257c0,0,56,0,93,43c0,0,36,42,36,133c0,0,0,118,-51,185c0,0,-38,49,-98,49c0,0,-55,0,-92,-44c0,0,-37,-44,-37,-135c0,0,0,-117,50,-182c0,0,39,-49,99,-49ZM345,-328c0,0,-144,0,-243,64c0,0,-56,38,-56,78c0,0,0,18,8,36c0,0,13,27,52,76c0,0,5,7,76,80c0,0,-39,23,-55,41c0,0,-16,19,-16,42c0,0,0,26,22,61c0,0,21,35,98,100c0,0,-63,30,-97,85c0,0,-33,55,-33,121c0,0,0,101,76,174c0,0,77,73,196,73c0,0,98,0,170,-48H688c0,0,32,0,37,-2c0,0,6,-2,8,-6c0,0,4,-7,4,-24c0,0,0,-20,-4,-27c0,0,-2,-4,-7,-6c0,0,-6,-2,-38,-2H599c0,0,41,-54,41,-137c0,0,0,-96,-73,-163c0,0,-73,-68,-196,-68c0,0,-51,0,-104,15c0,0,-33,-28,-44,-49c0,0,-12,-22,-12,-37c0,0,0,-12,13,-24c0,0,12,-12,48,-17c0,0,21,-4,104,-6c0,0,154,-4,199,-11c0,0,70,-10,111,-51c0,0,42,-41,42,-102c0,0,0,-84,-79,-158c0,0,-117,-108,-304,-108Z" 
id="f1_23"
transform="scale(0.001,-0.001)" />

<path d="M467,25c0,0,68,0,133,34c0,0,65,33,136,115c0,0,89,102,149,260c0,0,61,158,61,296c0,0,0,101,-55,179c0,0,-54,78,-164,78c0,0,-74,0,-146,-37c0,0,-71,-37,-141,-121c0,0,-70,-84,-126,-219c0,0,-69,-167,-69,-316c0,0,0,-105,55,-187c0,0,54,-82,167,-82ZM441,-21c0,0,-117,0,-196,50c0,0,-79,52,-116,137c0,0,-38,85,-38,165c0,0,0,141,68,280c0,0,68,138,163,231c0,0,95,93,202,143c0,0,108,49,229,49c0,0,100,0,178,-43c0,0,77,-44,121,-129c0,0,44,-85,44,-177c0,0,0,-163,-94,-341c0,0,-94,-179,-246,-273c0,0,-153,-92,-315,-92Z" 
id="f3_1f"
transform="scale(0.001,-0.001)" />

<path d="M518,-21c0,0,-124,0,-220,50c0,0,-95,52,-145,146c0,0,-50,94,-50,202c0,0,0,166,88,322c0,0,89,157,244,246c0,0,155,89,312,89c0,0,74,0,166,-34c0,0,40,-15,58,-15c0,0,18,0,31,7c0,0,14,8,45,42h28L999,707H972l-3,82c0,0,-4,45,-17,80c0,0,-14,35,-40,61c0,0,-27,26,-68,40c0,0,-41,15,-91,15c0,0,-134,0,-234,-73c0,0,-127,-94,-199,-264c0,0,-60,-140,-60,-284c0,0,0,-147,86,-234c0,0,86,-88,223,-88c0,0,104,0,185,46c0,0,81,47,151,143h35C940,231,858,100,757,39c0,0,-100,-60,-239,-60Z" 
id="f3_13"
transform="scale(0.001,-0.001)" />

<path d="M357,55c0,0,117,0,206,70c0,0,90,70,90,191c0,0,0,92,-56,144c0,0,-57,51,-182,51c0,0,-24,0,-59,-3L231,65c0,0,81,-10,126,-10Zm86,508c0,0,158,0,234,68c0,0,77,67,77,169c0,0,0,76,-48,119c0,0,-48,43,-153,43c0,0,-28,0,-71,-9L372,564c0,0,49,-1,71,-1ZM-34,0l10,26c0,0,57,2,78,12c0,0,30,12,42,33c0,0,18,29,48,131L318,816c0,0,23,78,23,109c0,0,0,28,-20,44c0,0,-21,16,-78,16c0,0,-13,0,-24,1l10,26H594c0,0,92,0,164,-28c0,0,72,-29,108,-79c0,0,36,-51,36,-108c0,0,0,-87,-66,-157c0,0,-66,-71,-216,-104c0,0,99,-35,146,-91c0,0,46,-57,46,-125c0,0,0,-76,-39,-144c0,0,-39,-69,-99,-107C674,69,613,31,527,13C527,13,466,0,336,0Z" 
id="f3_12"
transform="scale(0.001,-0.001)" />

<path d="M600,387l39,398L345,387ZM-74,0l8,26c0,0,55,3,97,37c0,0,42,35,125,149l605,822h26L710,193c0,0,-6,-59,-6,-78c0,0,0,-30,11,-46c0,0,14,-22,39,-32c0,0,24,-11,81,-11L827,0H429l8,26h17c0,0,49,0,79,21c0,0,22,15,34,48c0,0,8,23,15,109l13,128H305L202,193c0,0,-35,-47,-44,-68c0,0,-9,-20,-9,-38c0,0,0,-25,20,-42c0,0,19,-17,64,-19L225,0Z" 
id="f3_11"
transform="scale(0.001,-0.001)" />

<path d="M435,0V856c0,0,-48,-47,-127,-93c0,0,-79,-46,-142,-69V824c0,0,113,52,197,128c0,0,85,75,120,146h86V0Z" 
id="f4_l"
transform="scale(0.001,-0.001)" />

<path d="M423,92c0,0,97,0,159,62c0,0,62,62,62,157c0,0,0,97,-64,160c0,0,-64,64,-161,64c0,0,-96,0,-158,-63c0,0,-62,-62,-62,-156c0,0,0,-58,27,-111c0,0,27,-54,81,-84c0,0,54,-29,116,-29Zm0,552c0,0,78,0,127,49c0,0,49,49,49,120c0,0,0,74,-50,124c0,0,-51,51,-128,51c0,0,-77,0,-127,-50c0,0,-51,-49,-51,-118c0,0,0,-77,50,-126c0,0,50,-50,130,-50ZM422,-18c0,0,-162,0,-261,95c0,0,-99,96,-99,239c0,0,0,107,54,179c0,0,54,72,154,98c0,0,-84,31,-124,87c0,0,-40,57,-40,136c0,0,0,119,85,201c0,0,86,81,229,81c0,0,143,0,230,-83c0,0,87,-83,87,-203c0,0,0,-76,-40,-132c0,0,-39,-56,-121,-87c0,0,101,-33,154,-106c0,0,52,-73,52,-174c0,0,0,-141,-99,-236c0,0,-99,-95,-261,-95Z" 
id="f4_s"
transform="scale(0.001,-0.001)" />


</defs>
</svg>