<?xml version="1.0" encoding="UTF-8" standalone="no"?>
<!DOCTYPE svg PUBLIC "-//W3C//DTD SVG 1.1//EN"
"http://www.w3.org/Graphics/SVG/1.1/DTD/svg11.dtd">
<svg viewBox="0 0 909 1286" version="1.1" xmlns="http://www.w3.org/2000/svg" xmlns:xlink="http://www.w3.org/1999/xlink">
<defs>
<clipPath id="c0_13"><path d="M219.5,309.8V282.6h6.4v27.2Z" /></clipPath>
<clipPath id="c1_13"><path d="M326,309.8V282.6h6.4v27.2Z" /></clipPath>
<clipPath id="c2_13"><path d="M315.7,599.1v-29h6.4v29Z" /></clipPath>
<clipPath id="c3_13"><path d="M186.6,606.2V570.1h6.6v36.1Z" /></clipPath>
<clipPath id="c4_13"><path d="M411.6,606.2V570.1h6.6v36.1Z" /></clipPath>
<clipPath id="c5_13"><path d="M233.4,655.5V626.6h6.4v28.9Z" /></clipPath>
<clipPath id="c6_13"><path d="M186.8,662.7V626.6h6.6v36.1Z" /></clipPath>
<clipPath id="c7_13"><path d="M281.6,662.7V626.6h6.6v36.1Z" /></clipPath>
<clipPath id="c8_13"><path d="M178.2,782V753.1h6.4V782Z" /></clipPath>
<clipPath id="c9_13"><path d="M131.6,789.2V753.1h6.6v36.1Z" /></clipPath>
<clipPath id="c10_13"><path d="M226.2,789.2V753.1h6.6v36.1Z" /></clipPath>
<clipPath id="c11_13"><path d="M288.9,782V753.1h6.4V782Z" /></clipPath>
<clipPath id="c12_13"><path d="M241.6,789.2V753.1h5.5v36.1Z" /></clipPath>
<clipPath id="c13_13"><path d="M188.8,961V921h5.5v40Z" /></clipPath>
<style type="text/css"><![CDATA[
.g0_13{
fill: #FFFFFF;
}
.g1_13{
fill: none;
stroke: #000000;
stroke-width: 0.4277778;
stroke-linecap: round;
stroke-linejoin: round;
}
.g2_13{
fill: none;
stroke: #000000;
stroke-width: 0.90444446;
stroke-linecap: round;
stroke-linejoin: round;
}
.g3_13{
fill: none;
stroke: #000000;
stroke-width: 0.8983333;
stroke-linecap: round;
stroke-linejoin: round;
}
.g4_13{
fill: none;
stroke: #000000;
stroke-width: 0.92583334;
stroke-linecap: round;
stroke-linejoin: round;
}
.g5_13{
fill: none;
stroke: #000000;
stroke-width: 0.91513896;
stroke-linecap: round;
stroke-linejoin: round;
}
.g6_13{
fill: none;
stroke: #000000;
stroke-width: 0.90138894;
stroke-linecap: round;
stroke-linejoin: round;
}
.g7_13{
fill: none;
stroke: #000000;
stroke-width: 0.8998611;
stroke-linecap: round;
stroke-linejoin: round;
}
.g8_13{
fill: none;
stroke: #000000;
stroke-width: 0.9075001;
stroke-linecap: round;
stroke-linejoin: round;
}
.g9_13{
fill: none;
stroke: #000000;
stroke-width: 0.8968056;
stroke-linecap: round;
stroke-linejoin: round;
}
.g10_13{
fill: none;
stroke: #000000;
stroke-width: 0.9029167;
stroke-linecap: round;
stroke-linejoin: round;
}
]]></style>
</defs>
<path fill-rule="evenodd" d="M279.7,577.9L310,574l1.1,9.8v9.5l-1.1,1l-1,1.8l-2,1.8h-2.1l-2.1,1h-3.3l-2,-1l-2.1,-1.8l-2.1,-2.8l-11.5,9.5l-1,-9.5l11.5,-8.7l-11.5,1l-1.1,-7.7Zm16.7,5.9v1.8l1.1,2l1,1.8l1,1.1h3.3l1.1,-1.1l1,-1.8v-4.8l-8.5,1Zm2.1,36.2l2,8.7L310,622l1.1,-1h1l1,-1H298.5Zm-14.7,-7.7l32.7,1l3,10.5l-26.2,20l-2,-8.4l4.1,-2.8L292.3,620h-5.4l-3.1,-7.7ZM329,673.6l-2.3,.8l-3,1l-3.1,1l-3.1,-1l-3.3,-1l-3.1,-.8L309,670.8l-2,-2.1l-2.1,-3.8l-1,-2.8v-6.7l1,-2.8l2.1,-2.9l1,-3l3.1,-1.8l2,-1.8l3.4,-1.1h6.1l3.1,1.1l3.3,1.8l2.1,1.8l2.1,3l2,2.9l1,2.8v6.7l-1,3.8l-1,2.8l-2.1,2.1l-3.1,2.8Zm-16.9,-9.5l3.3,2.8l3.1,.8h3.1l3.1,-1.8l2,-2.8l2.3,-2.8v-3.9l-1,-2.8l-2.3,-2.1l-3.1,-1h-4.1l-3.1,1l-2.3,2.9l-2,2.8V661l1,3.1ZM343.7,709l18.7,-25.9l6.5,5.7l-19.1,25.9L343.7,709Zm20.8,15.2l14.9,-28.8l7.2,4.9L371.9,728l-7.4,-3.8Zm26.2,12.6l7.4,-23.1L392,710.8l3,-6.6l19.8,7.7l-2,6.6l-6.2,-2l-8.5,23.1l-7.4,-2.8Zm58.8,-1.1H458l-4.4,-10.5v-2.8l-1,-2.1v3.9l-1,1l-2.1,10.5Zm-11.6,11.6l9.5,-31.6H458l11.5,31.6H461l-2,-5.9H447.4l-1,5.9h-8.5ZM494.7,709l2.1,9.5l-2.1,-2h-5.4l-3.1,1l-2,2.8l-1.1,3.9l1.1,2.8l1,3.9l2.1,2l3,.8h3.1l2.3,-.8l1.1,-1l2,-1l1,-2.9l2.1,9.5l-1,1.1l-2.1,2l-2,.8h-2.1l-2.3,1h-4.1l-2.1,-1l-4.1,-1.8l-2.3,-2.8l-3.1,-3.1l-1,-3.6l-1,-3.9v-3l1,-3.6l1,-3.1l2.1,-2.8l2.3,-1.8l2,-1.1l3.1,-1.8h8.5Zm22.9,10.6l7.4,-4.9L517.6,707h-1.1v-1l-1,-.8l-1,-1v1l1,.8v2l2.1,11.6Zm-5.2,15.1l-4.1,-33.4l8.2,-4.8l24.2,23.8l-7.2,3.9l-4.4,-4.6l-10.5,5.6l1.3,5.7l-7.5,3.8Zm37.8,-22.1L529.1,689.8l5.4,-4.9l4.1,-4.6l3.1,-2.1l3.3,-1.8h6.2l3.1,1.1l3.1,.7l3.3,3.1l2.1,3.6l1,3.1l1,3.8v3.6l-1,2.1l-1,2.8l-3.1,2.8l-3.4,3.9l-1,1l-5.1,4.6Zm2,-11.3l1.1,-1l2,-2.8l1,-3.9v-2.8l-2,-2.8l-3.1,-3.1l-3.1,-.8l-3.1,.8l-3.3,3.1l-1,.8l11.5,12.5Zm28.3,-20L555.3,663.1l11.6,-16.4l5.4,3.8l-6.5,9.8l4.1,2.8l6.5,-8.7l5.1,3.8l-6.2,8.7l4.1,3.9l6.5,-9.8l6.1,4.9l-11.5,15.4Zm32.6,-63.1l-3.1,7.7L596.4,622h-1.3l-1,-1L592,620h-2l2,1l2.1,1.8l1,1l11.6,9.5l-2.1,4.9l-14.6,-1h-1l-3.1,-1.1h-2.1l2.1,1.1h1l2.1,1l1,1l11.5,7.5l-3,6.9L572.3,637.2l3,-7.7l16.7,1v1h4.4h-1.3l-1,-1l-1,-1l-1.1,-.8L579.4,618.2l3.1,-7.7l30.6,7.7Zm2.1,-21.1l-13.7,-2l-17.7,8.7l1,-9.5l8.3,-3.1l2,-.7h1.3l-1.3,-1.1h-1l-1,-1l-6.2,-4.6l1,-10.5l14.7,14.3l13.6,1.8l-1,7.7Z" class="g0_13" />
<path d="M198.6,116.1h9.7m-20.8,44.2h31.9" class="g1_13" />
<path d="M186.1,137.3h34.7" class="g2_13" />
<g fill="#000000" >
<use xlink:href="#f0_l" transform="matrix(12,0,0,12,198.9,109.4)" />
<use xlink:href="#f0_n" transform="matrix(12,0,0,12,199.1,134.7)" />
<use xlink:href="#f0_l" transform="matrix(12,0,0,12,194.3,153.6)" />
<use xlink:href="#f0_l" transform="matrix(12,0,0,12,203.5,153.6)" />
<use xlink:href="#f0_s" transform="matrix(12,0,0,12,187.7,178.9)" />
<use xlink:href="#f0_n" transform="matrix(12,0,0,12,210.3,178.9)" />
<use xlink:href="#f1_x" transform="matrix(12,0,0,12,171.6,141.8)" />
<use xlink:href="#f1_3a" transform="matrix(12,0,0,12,198.4,178.9)" />
</g>
<path d="M186,221.2h16.5" class="g3_13" />
<g fill="#000000" >
<use xlink:href="#f0_s" transform="matrix(11.9,0,0,11.9,189.8,214.3)" />
<use xlink:href="#f1_x" transform="matrix(11.9,0,0,11.9,171.6,225.8)" />
<use xlink:href="#f0_l" transform="matrix(11.9,0,0,11.9,185.2,239.9)" />
<use xlink:href="#f0_l" transform="matrix(11.9,0,0,11.9,194.3,239.9)" />
<use xlink:href="#f0_m" transform="matrix(12,0,0,12,64.9,304.8)" />
<use xlink:href="#f0_l" transform="matrix(12,0,0,12,74.1,304.8)" />
<use xlink:href="#f0_i" transform="matrix(12,0,0,12,83.2,304.8)" />
<use xlink:href="#f0_1c" transform="matrix(12,0,0,12,121.9,304.8)" />
<use xlink:href="#f0_21" transform="matrix(12,0,0,12,132.4,304.8)" />
<use xlink:href="#f0_2g" transform="matrix(12,0,0,12,140.1,304.8)" />
</g>
<g clip-path="url(#c0_13)">
<g fill="#000000" >
<use xlink:href="#f2_4" transform="matrix(13,0,0,12.1,219.5,299.3)" />
</g>
</g>
<g fill="#000000" >
<use xlink:href="#f2_4" transform="matrix(13.6,0,0,12.1,244.9,299.3)" />
</g>
<g clip-path="url(#c1_13)">
<g fill="#000000" >
<use xlink:href="#f2_4" transform="matrix(13,0,0,12.1,326,299.3)" />
</g>
</g>
<g fill="#000000" >
<use xlink:href="#f2_4" transform="matrix(13.6,0,0,12.1,360.4,299.3)" />
<use xlink:href="#f0_o" transform="matrix(12.1,0,0,12.1,178.8,305.7)" />
<use xlink:href="#f0_p" transform="matrix(12.1,0,0,12.1,209.2,305.7)" />
<use xlink:href="#f0_g" transform="matrix(12.1,0,0,12.1,253.3,305.7)" />
<use xlink:href="#f0_o" transform="matrix(12.1,0,0,12.1,315.5,305.7)" />
<use xlink:href="#f0_p" transform="matrix(12.1,0,0,12.1,350.1,305.7)" />
<use xlink:href="#f3_1x" transform="matrix(12.1,0,0,12.1,150.7,305.7)" />
<use xlink:href="#f3_25" transform="matrix(12.1,0,0,12.1,187.7,305.7)" />
<use xlink:href="#f3_26" transform="matrix(12.1,0,0,12.1,221.8,305.7)" />
<use xlink:href="#f3_27" transform="matrix(12.1,0,0,12.1,243.8,305.7)" />
<use xlink:href="#f3_1y" transform="matrix(12.1,0,0,12.1,266.3,305.7)" />
<use xlink:href="#f3_25" transform="matrix(12.1,0,0,12.1,293.7,305.7)" />
<use xlink:href="#f3_26" transform="matrix(12.1,0,0,12.1,328.3,305.7)" />
<use xlink:href="#f3_27" transform="matrix(12.1,0,0,12.1,359.3,305.7)" />
<use xlink:href="#f1_x" transform="matrix(12.1,0,0,12.1,164.5,305.7)" />
<use xlink:href="#f1_f" transform="matrix(12.1,0,0,12.1,196.3,305.7)" />
<use xlink:href="#f1_h" transform="matrix(12.1,0,0,12.1,230.6,305.7)" />
<use xlink:href="#f1_x" transform="matrix(12.1,0,0,12.1,279.9,305.7)" />
<use xlink:href="#f1_h" transform="matrix(12.1,0,0,12.1,302.3,305.7)" />
<use xlink:href="#f1_f" transform="matrix(12.1,0,0,12.1,337.1,305.7)" />
<use xlink:href="#f2_20" transform="matrix(12.1,0,0,12.1,151.6,289.2)" />
<use xlink:href="#f2_20" transform="matrix(12.1,0,0,12.1,267.5,289.2)" />
<use xlink:href="#f2_4" transform="matrix(12.1,0,0,12.1,187.4,299.3)" />
<use xlink:href="#f2_4" transform="matrix(12.1,0,0,12.1,293.3,299.3)" />
<use xlink:href="#f0_1x" transform="matrix(12,0,0,12,375.3,304.8)" />
<use xlink:href="#f0_2a" transform="matrix(12,0,0,12,383,304.8)" />
<use xlink:href="#f0_20" transform="matrix(12,0,0,12,391.8,304.8)" />
<use xlink:href="#f2_4" transform="matrix(13,0,0,12.1,464,297.7)" />
<use xlink:href="#f2_4" transform="matrix(13.6,0,0,12.1,489.3,297.7)" />
<use xlink:href="#f0_n" transform="matrix(12.1,0,0,12.1,432.5,304.1)" />
<use xlink:href="#f3_1z" transform="matrix(12.1,0,0,12.1,406.3,304.1)" />
<use xlink:href="#f3_25" transform="matrix(12.1,0,0,12.1,440.9,304.1)" />
<use xlink:href="#f3_26" transform="matrix(12.1,0,0,12.1,466.2,304.1)" />
<use xlink:href="#f3_27" transform="matrix(12.1,0,0,12.1,488.2,304.1)" />
<use xlink:href="#f1_x" transform="matrix(12.1,0,0,12.1,418.9,304.1)" />
<use xlink:href="#f1_f" transform="matrix(12.1,0,0,12.1,449.3,304.1)" />
<use xlink:href="#f1_h" transform="matrix(12.1,0,0,12.1,475,304.1)" />
<use xlink:href="#f2_20" transform="matrix(12.1,0,0,12.1,406.8,287.6)" />
<use xlink:href="#f2_4" transform="matrix(12.1,0,0,12.1,440.5,297.7)" />
<use xlink:href="#f0_i" transform="matrix(12,0,0,12,500.7,304.8)" />
<use xlink:href="#f0_16" transform="matrix(12,0,0,12,508,304.8)" />
<use xlink:href="#f0_25" transform="matrix(12,0,0,12,517.7,304.8)" />
<use xlink:href="#f0_2a" transform="matrix(12,0,0,12,522.5,304.8)" />
<use xlink:href="#f0_20" transform="matrix(12,0,0,12,531.3,304.8)" />
<use xlink:href="#f0_1x" transform="matrix(12,0,0,12,543,304.8)" />
<use xlink:href="#f0_2i" transform="matrix(12,0,0,12,553.9,304.8)" />
<use xlink:href="#f0_21" transform="matrix(12,0,0,12,562.7,304.8)" />
<use xlink:href="#f0_1z" transform="matrix(12,0,0,12,570.4,304.8)" />
<use xlink:href="#f0_2g" transform="matrix(12,0,0,12,578.1,304.8)" />
<use xlink:href="#f0_2b" transform="matrix(12,0,0,12,582.8,304.8)" />
<use xlink:href="#f0_2e" transform="matrix(12,0,0,12,591.6,304.8)" />
<use xlink:href="#f3_20" transform="matrix(12.2,0,0,12.2,603.4,309)" />
<use xlink:href="#f2_23" transform="matrix(12.2,0,0,12.2,603.5,292.4)" />
<use xlink:href="#f2_20" transform="matrix(12.2,0,0,12.2,606.3,292.4)" />
<use xlink:href="#f0_2j" transform="matrix(12,0,0,12,620.4,304.8)" />
<use xlink:href="#f0_24" transform="matrix(12,0,0,12,633.2,304.8)" />
<use xlink:href="#f0_25" transform="matrix(12,0,0,12,642,304.8)" />
<use xlink:href="#f0_1z" transform="matrix(12,0,0,12,646.8,304.8)" />
<use xlink:href="#f0_24" transform="matrix(12,0,0,12,654.5,304.8)" />
<use xlink:href="#f0_25" transform="matrix(12,0,0,12,666.4,304.8)" />
<use xlink:href="#f0_2f" transform="matrix(12,0,0,12,671.2,304.8)" />
<use xlink:href="#f0_2c" transform="matrix(12,0,0,12,680.9,304.8)" />
<use xlink:href="#f0_21" transform="matrix(12,0,0,12,689.7,304.8)" />
<use xlink:href="#f0_2e" transform="matrix(12,0,0,12,697.4,304.8)" />
<use xlink:href="#f0_2c" transform="matrix(12,0,0,12,703.1,304.8)" />
<use xlink:href="#f0_21" transform="matrix(12,0,0,12,711.9,304.8)" />
<use xlink:href="#f0_2a" transform="matrix(12,0,0,12,719.6,304.8)" />
<use xlink:href="#f0_20" transform="matrix(12,0,0,12,728.4,304.8)" />
<use xlink:href="#f0_25" transform="matrix(12,0,0,12,737.2,304.8)" />
<use xlink:href="#f0_1z" transform="matrix(12,0,0,12,742,304.8)" />
<use xlink:href="#f0_2h" transform="matrix(12,0,0,12,749.7,304.8)" />
<use xlink:href="#f0_28" transform="matrix(12,0,0,12,758.5,304.8)" />
<use xlink:href="#f0_1x" transform="matrix(12,0,0,12,763.2,304.8)" />
<use xlink:href="#f0_2e" transform="matrix(12,0,0,12,770.9,304.8)" />
<use xlink:href="#f0_2g" transform="matrix(12,0,0,12,779.7,304.8)" />
<use xlink:href="#f0_2b" transform="matrix(12,0,0,12,784.5,304.8)" />
<use xlink:href="#f0_1y" transform="matrix(12,0,0,12,796.4,304.8)" />
<use xlink:href="#f0_2b" transform="matrix(12,0,0,12,805.2,304.8)" />
<use xlink:href="#f0_2g" transform="matrix(12,0,0,12,814,304.8)" />
<use xlink:href="#f0_24" transform="matrix(12,0,0,12,818.8,304.8)" />
<use xlink:href="#f3_1z" transform="matrix(12.2,0,0,12.2,833.2,309)" />
<use xlink:href="#f2_20" transform="matrix(12.2,0,0,12.2,833.8,292.4)" />
<use xlink:href="#f0_1x" transform="matrix(12,0,0,12,121.2,339.3)" />
<use xlink:href="#f0_2a" transform="matrix(12,0,0,12,129.2,339.3)" />
<use xlink:href="#f0_20" transform="matrix(12,0,0,12,138.4,339.3)" />
<use xlink:href="#f3_1y" transform="matrix(12.1,0,0,12.1,153.6,339.3)" />
<use xlink:href="#f2_20" transform="matrix(12.1,0,0,12.1,154.5,322.8)" />
<use xlink:href="#f0_1x" transform="matrix(12,0,0,12,170.1,339.3)" />
<use xlink:href="#f0_2a" transform="matrix(12,0,0,12,178.2,339.3)" />
<use xlink:href="#f0_20" transform="matrix(12,0,0,12,187.4,339.3)" />
<use xlink:href="#f0_m" transform="matrix(12.2,0,0,12.2,251,339.5)" />
<use xlink:href="#f0_l" transform="matrix(12.2,0,0,12.2,260.2,339.5)" />
<use xlink:href="#f3_20" transform="matrix(12.2,0,0,12.2,203.1,339.5)" />
<use xlink:href="#f3_1x" transform="matrix(12.2,0,0,12.2,223.1,339.5)" />
<use xlink:href="#f1_49" transform="matrix(12.2,0,0,12.2,216.1,339.5)" />
<use xlink:href="#f1_x" transform="matrix(12.2,0,0,12.2,236.7,339.5)" />
<use xlink:href="#f2_23" transform="matrix(12.2,0,0,12.2,203.5,322.8)" />
<use xlink:href="#f2_20" transform="matrix(12.2,0,0,12.2,206.1,322.8)" />
<use xlink:href="#f2_20" transform="matrix(12.2,0,0,12.2,223.9,322.8)" />
<use xlink:href="#f0_1j" transform="matrix(12,0,0,12,64.9,377.4)" />
<use xlink:href="#f0_2b" transform="matrix(12,0,0,12,74.1,377.4)" />
<use xlink:href="#f0_28" transform="matrix(12,0,0,12,82.1,377.4)" />
<use xlink:href="#f0_u" transform="matrix(12,0,0,12,86.2,377.4)" />
<use xlink:href="#f0_1j" transform="matrix(12,0,0,12,121.9,377.4)" />
<use xlink:href="#f0_25" transform="matrix(12,0,0,12,132,377.4)" />
<use xlink:href="#f0_2a" transform="matrix(12,0,0,12,136.9,377.4)" />
<use xlink:href="#f0_1z" transform="matrix(12,0,0,12,145.9,377.4)" />
<use xlink:href="#f0_21" transform="matrix(12,0,0,12,153.8,377.4)" />
</g>
<path d="M168.1,364.2h10.3" class="g4_13" />
<g fill="#000000" >
<use xlink:href="#f3_20" transform="matrix(12.2,0,0,12.2,167.9,381.6)" />
<use xlink:href="#f0_25" transform="matrix(12,0,0,12,185.4,377.4)" />
<use xlink:href="#f0_2f" transform="matrix(12,0,0,12,190.3,377.4)" />
<use xlink:href="#f0_2c" transform="matrix(12,0,0,12,200.6,377.4)" />
<use xlink:href="#f0_21" transform="matrix(12,0,0,12,209.6,377.4)" />
<use xlink:href="#f0_2e" transform="matrix(12,0,0,12,217.4,377.4)" />
<use xlink:href="#f0_2c" transform="matrix(12,0,0,12,223.1,377.4)" />
<use xlink:href="#f0_21" transform="matrix(12,0,0,12,232.1,377.4)" />
<use xlink:href="#f0_2a" transform="matrix(12,0,0,12,240,377.4)" />
<use xlink:href="#f0_20" transform="matrix(12,0,0,12,249,377.4)" />
<use xlink:href="#f0_25" transform="matrix(12,0,0,12,258,377.4)" />
<use xlink:href="#f0_1z" transform="matrix(12,0,0,12,262.9,377.4)" />
<use xlink:href="#f0_2h" transform="matrix(12,0,0,12,270.8,377.4)" />
<use xlink:href="#f0_28" transform="matrix(12,0,0,12,279.8,377.4)" />
<use xlink:href="#f0_1x" transform="matrix(12,0,0,12,284.7,377.4)" />
<use xlink:href="#f0_2e" transform="matrix(12,0,0,12,292.6,377.4)" />
<use xlink:href="#f0_2g" transform="matrix(12,0,0,12,301.8,377.4)" />
<use xlink:href="#f0_2b" transform="matrix(12,0,0,12,306.7,377.4)" />
<use xlink:href="#f0_1y" transform="matrix(12,0,0,12,318.8,377.4)" />
<use xlink:href="#f0_2b" transform="matrix(12,0,0,12,327.8,377.4)" />
<use xlink:href="#f0_2g" transform="matrix(12,0,0,12,336.8,377.4)" />
<use xlink:href="#f0_24" transform="matrix(12,0,0,12,341.7,377.4)" />
</g>
<path d="M357.1,364.2h7.1" class="g5_13" />
<g fill="#000000" >
<use xlink:href="#f3_1z" transform="matrix(12.2,0,0,12.2,356.6,381.6)" />
<use xlink:href="#f0_1x" transform="matrix(12,0,0,12,370.7,377.4)" />
<use xlink:href="#f0_2a" transform="matrix(12,0,0,12,378.6,377.4)" />
<use xlink:href="#f0_20" transform="matrix(12,0,0,12,387.4,377.4)" />
</g>
<path d="M402.6,364.2h7.6" class="g6_13" />
<g fill="#000000" >
<use xlink:href="#f3_1y" transform="matrix(12.2,0,0,12.2,401.9,381.6)" />
<use xlink:href="#f0_g" transform="matrix(12,0,0,12,414.3,377.4)" />
<use xlink:href="#f0_2g" transform="matrix(12,0,0,12,422,377.4)" />
<use xlink:href="#f0_24" transform="matrix(12,0,0,12,427,377.4)" />
<use xlink:href="#f0_21" transform="matrix(12,0,0,12,436,377.4)" />
<use xlink:href="#f0_2e" transform="matrix(12,0,0,12,443.9,377.4)" />
<use xlink:href="#f0_21" transform="matrix(12,0,0,12,449.5,377.4)" />
<use xlink:href="#f0_22" transform="matrix(12,0,0,12,457.4,377.4)" />
<use xlink:href="#f0_2b" transform="matrix(12,0,0,12,463.3,377.4)" />
<use xlink:href="#f0_2e" transform="matrix(12,0,0,12,472.3,377.4)" />
<use xlink:href="#f0_21" transform="matrix(12,0,0,12,478.1,377.4)" />
<use xlink:href="#f0_g" transform="matrix(12,0,0,12,486,377.4)" />
<use xlink:href="#f0_25" transform="matrix(12,0,0,12,493.7,377.4)" />
<use xlink:href="#f0_22" transform="matrix(12,0,0,12,498.7,377.4)" />
<use xlink:href="#f0_25" transform="matrix(12,0,0,12,507.5,377.4)" />
<use xlink:href="#f0_2f" transform="matrix(12,0,0,12,512.4,377.4)" />
<use xlink:href="#f0_2c" transform="matrix(12,0,0,12,522.7,377.4)" />
<use xlink:href="#f0_1x" transform="matrix(12,0,0,12,531.7,377.4)" />
<use xlink:href="#f0_2e" transform="matrix(12,0,0,12,539.6,377.4)" />
<use xlink:href="#f0_1x" transform="matrix(12,0,0,12,545.4,377.4)" />
<use xlink:href="#f0_28" transform="matrix(12,0,0,12,553.3,377.4)" />
<use xlink:href="#f0_28" transform="matrix(12,0,0,12,558.3,377.4)" />
<use xlink:href="#f0_21" transform="matrix(12,0,0,12,563.2,377.4)" />
<use xlink:href="#f0_28" transform="matrix(12,0,0,12,570.9,377.4)" />
<use xlink:href="#f0_2g" transform="matrix(12,0,0,12,579.2,377.4)" />
<use xlink:href="#f0_2b" transform="matrix(12,0,0,12,584.1,377.4)" />
</g>
<path d="M599.4,362.6h7.2m14.3,0h7.8" class="g7_13" />
<g fill="#000000" >
<use xlink:href="#f3_1z" transform="matrix(11.8,0,0,11.8,599,379.4)" />
<use xlink:href="#f3_1y" transform="matrix(11.8,0,0,11.8,620,379.4)" />
<use xlink:href="#f1_3a" transform="matrix(11.8,0,0,11.8,608.7,379.4)" />
</g>
<path d="M136.1,403h10m42.5,0h7.1m14.3,0h7.7" class="g3_13" />
<g fill="#000000" >
<use xlink:href="#f0_c" transform="matrix(11.8,0,0,11.8,181.7,419.8)" />
<use xlink:href="#f0_d" transform="matrix(11.8,0,0,11.8,218.5,419.8)" />
<use xlink:href="#f3_20" transform="matrix(11.8,0,0,11.8,135.8,419.8)" />
<use xlink:href="#f3_1z" transform="matrix(11.8,0,0,11.8,188.1,419.8)" />
<use xlink:href="#f3_1y" transform="matrix(11.8,0,0,11.8,209.2,419.8)" />
<use xlink:href="#f4_28" transform="matrix(11.8,0,-3.2,11.8,168.3,419.8)" />
<use xlink:href="#f1_1s" transform="matrix(11.8,0,0,11.8,116.8,419.8)" />
<use xlink:href="#f1_x" transform="matrix(11.8,0,0,11.8,152.7,419.8)" />
<use xlink:href="#f1_3a" transform="matrix(11.8,0,0,11.8,197.8,419.8)" />
<use xlink:href="#f2_4" transform="matrix(13,0,0,12.1,222,468.4)" />
<use xlink:href="#f2_4" transform="matrix(13.6,0,0,12.1,257.4,468.4)" />
</g>
<path d="M188.7,454.6v86.3m82.7,-86.3v86.3" class="g8_13" />
<g fill="#000000" >
<use xlink:href="#f0_n" transform="matrix(12.1,0,0,12.1,190.3,502.5)" />
<use xlink:href="#f0_l" transform="matrix(12.1,0,0,12.1,220.7,502.5)" />
<use xlink:href="#f0_l" transform="matrix(12.1,0,0,12.1,262.3,502.5)" />
<use xlink:href="#f0_l" transform="matrix(12.1,0,0,12.1,190.1,530)" />
<use xlink:href="#f0_o" transform="matrix(12.1,0,0,12.1,226,530)" />
<use xlink:href="#f0_p" transform="matrix(12.1,0,0,12.1,256.5,530)" />
<use xlink:href="#f3_25" transform="matrix(12.1,0,0,12.1,191.8,474.8)" />
<use xlink:href="#f3_26" transform="matrix(12.1,0,0,12.1,224.4,474.8)" />
<use xlink:href="#f3_27" transform="matrix(12.1,0,0,12.1,256.3,474.8)" />
<use xlink:href="#f4_28" transform="matrix(12.1,0,-3.2,12.1,174.4,502.5)" />
<use xlink:href="#f1_x" transform="matrix(12.1,0,0,12.1,158.6,502.5)" />
<use xlink:href="#f1_h" transform="matrix(12.1,0,0,12.1,252.2,502.5)" />
<use xlink:href="#f1_h" transform="matrix(12.1,0,0,12.1,216.2,530)" />
<use xlink:href="#f2_4" transform="matrix(12.1,0,0,12.1,191.6,468.4)" />
</g>
<g clip-path="url(#c2_13)">
<g fill="#000000" >
<use xlink:href="#f2_4" transform="matrix(13,0,0,12.1,315.7,588.4)" />
</g>
</g>
<g fill="#000000" >
<use xlink:href="#f2_4" transform="matrix(13.6,0,0,12.1,404.1,588.4)" />
</g>
<g clip-path="url(#c3_13)">
<g fill="#000000" >
<use xlink:href="#f1_2n" transform="matrix(11.8,0,0,22.6,186.6,598.5)" />
</g>
</g>
<g clip-path="url(#c4_13)">
<g fill="#000000" >
<use xlink:href="#f1_2p" transform="matrix(11.8,0,0,22.6,411.6,598.5)" />
</g>
</g>
<g fill="#000000" >
<use xlink:href="#f0_c" transform="matrix(12.1,0,0,12.1,195.1,594.9)" />
<use xlink:href="#f0_p" transform="matrix(12.1,0,0,12.1,201.1,594.9)" />
<use xlink:href="#f0_o" transform="matrix(12.1,0,0,12.1,225.9,594.9)" />
<use xlink:href="#f0_d" transform="matrix(12.1,0,0,12.1,235,594.9)" />
<use xlink:href="#f0_c" transform="matrix(12.1,0,0,12.1,261.4,594.9)" />
<use xlink:href="#f0_l" transform="matrix(12.1,0,0,12.1,266,594.9)" />
<use xlink:href="#f0_p" transform="matrix(12.1,0,0,12.1,275.2,594.9)" />
<use xlink:href="#f0_l" transform="matrix(12.1,0,0,12.1,298.3,594.9)" />
<use xlink:href="#f0_d" transform="matrix(12.1,0,0,12.1,306,594.9)" />
<use xlink:href="#f0_c" transform="matrix(12.1,0,0,12.1,338.8,594.9)" />
<use xlink:href="#f0_l" transform="matrix(12.1,0,0,12.1,355.5,594.9)" />
<use xlink:href="#f0_m" transform="matrix(12.1,0,0,12.1,364.6,594.9)" />
<use xlink:href="#f0_l" transform="matrix(12.1,0,0,12.1,386.6,594.9)" />
<use xlink:href="#f0_d" transform="matrix(12.1,0,0,12.1,394.3,594.9)" />
<use xlink:href="#f3_25" transform="matrix(12.1,0,0,12.1,241.1,594.9)" />
<use xlink:href="#f3_26" transform="matrix(12.1,0,0,12.1,318.1,594.9)" />
<use xlink:href="#f3_27" transform="matrix(12.1,0,0,12.1,402.9,594.9)" />
<use xlink:href="#f4_28" transform="matrix(12.1,0,-3.3,12.1,174.4,594.9)" />
<use xlink:href="#f1_x" transform="matrix(12.1,0,0,12.1,158.6,594.9)" />
<use xlink:href="#f1_h" transform="matrix(12.1,0,0,12.1,212.7,594.9)" />
<use xlink:href="#f1_h" transform="matrix(12.1,0,0,12.1,249.1,594.9)" />
<use xlink:href="#f1_f" transform="matrix(12.1,0,0,12.1,286.7,594.9)" />
<use xlink:href="#f1_f" transform="matrix(12.1,0,0,12.1,326.3,594.9)" />
<use xlink:href="#f1_h" transform="matrix(12.1,0,0,12.1,345.3,594.9)" />
<use xlink:href="#f1_h" transform="matrix(12.1,0,0,12.1,375.9,594.9)" />
<use xlink:href="#f2_4" transform="matrix(12.1,0,0,12.1,240.7,588.4)" />
</g>
<g clip-path="url(#c5_13)">
<g fill="#000000" >
<use xlink:href="#f2_4" transform="matrix(13.1,0,0,12.1,233.4,644.9)" />
</g>
</g>
<g fill="#000000" >
<use xlink:href="#f2_4" transform="matrix(13.7,0,0,12.1,273.9,644.9)" />
</g>
<g clip-path="url(#c6_13)">
<g fill="#000000" >
<use xlink:href="#f1_2n" transform="matrix(11.9,0,0,22.6,186.8,655)" />
</g>
</g>
<g clip-path="url(#c7_13)">
<g fill="#000000" >
<use xlink:href="#f1_2p" transform="matrix(11.9,0,0,22.6,281.6,655)" />
</g>
</g>
<g fill="#000000" >
<use xlink:href="#f0_l" transform="matrix(12.1,0,0,12.1,213.6,651.3)" />
<use xlink:href="#f0_q" transform="matrix(12.1,0,0,12.1,222.8,651.3)" />
<use xlink:href="#f0_l" transform="matrix(12.1,0,0,12.1,254.6,651.3)" />
<use xlink:href="#f0_n" transform="matrix(12.1,0,0,12.1,263.8,651.3)" />
<use xlink:href="#f3_25" transform="matrix(12.1,0,0,12.1,194.9,651.3)" />
<use xlink:href="#f3_26" transform="matrix(12.1,0,0,12.1,235.8,651.3)" />
<use xlink:href="#f3_27" transform="matrix(12.1,0,0,12.1,272.8,651.3)" />
<use xlink:href="#f4_28" transform="matrix(12.1,0,-3.3,12.1,174.4,651.3)" />
<use xlink:href="#f1_x" transform="matrix(12.1,0,0,12.1,158.6,651.3)" />
<use xlink:href="#f1_h" transform="matrix(12.1,0,0,12.1,202.9,651.3)" />
<use xlink:href="#f1_h" transform="matrix(12.1,0,0,12.1,244,651.3)" />
<use xlink:href="#f2_4" transform="matrix(12.1,0,0,12.1,194.7,644.9)" />
<use xlink:href="#f0_17" transform="matrix(12,0,0,12,116.8,693.1)" />
<use xlink:href="#f0_25" transform="matrix(12,0,0,12,129.3,693.1)" />
<use xlink:href="#f0_2i" transform="matrix(12,0,0,12,133.8,693.1)" />
<use xlink:href="#f0_21" transform="matrix(12,0,0,12,142.3,693.1)" />
<use xlink:href="#f0_2a" transform="matrix(12,0,0,12,149.8,693.1)" />
<use xlink:href="#f0_2g" transform="matrix(12,0,0,12,161.2,693.1)" />
<use xlink:href="#f0_24" transform="matrix(12,0,0,12,165.5,693.1)" />
<use xlink:href="#f0_1x" transform="matrix(12,0,0,12,174.2,693.1)" />
<use xlink:href="#f0_2g" transform="matrix(12,0,0,12,181.5,693.1)" />
</g>
<path d="M158.9,714.1h9.9m8.8,0h8.6" class="g9_13" />
<g fill="#000000" >
<use xlink:href="#f0_m" transform="matrix(11.8,0,0,11.8,201.8,730.9)" />
<use xlink:href="#f0_l" transform="matrix(11.8,0,0,11.8,211,730.9)" />
<use xlink:href="#f3_20" transform="matrix(11.8,0,0,11.8,158.6,730.9)" />
<use xlink:href="#f3_1x" transform="matrix(11.8,0,0,11.8,177.3,730.9)" />
<use xlink:href="#f1_49" transform="matrix(11.8,0,0,11.8,171,730.9)" />
<use xlink:href="#f1_x" transform="matrix(11.8,0,0,11.8,189.4,730.9)" />
</g>
<g clip-path="url(#c8_13)">
<g fill="#000000" >
<use xlink:href="#f2_4" transform="matrix(13.1,0,0,12.1,178.2,771.4)" />
</g>
</g>
<g fill="#000000" >
<use xlink:href="#f2_4" transform="matrix(13.7,0,0,12.1,218.7,771.4)" />
</g>
<g clip-path="url(#c9_13)">
<g fill="#000000" >
<use xlink:href="#f1_2n" transform="matrix(11.8,0,0,22.6,131.6,781.5)" />
</g>
</g>
<g clip-path="url(#c10_13)">
<g fill="#000000" >
<use xlink:href="#f1_2p" transform="matrix(11.8,0,0,22.6,226.2,781.5)" />
</g>
</g>
<g clip-path="url(#c11_13)">
<g fill="#000000" >
<use xlink:href="#f2_4" transform="matrix(13.1,0,0,12.1,288.9,771.4)" />
</g>
</g>
<g fill="#000000" >
<use xlink:href="#f2_4" transform="matrix(13.7,0,0,12.1,313.3,771.4)" />
</g>
<g clip-path="url(#c12_13)">
<g fill="#000000" >
<use xlink:href="#f1_c" transform="matrix(11.8,0,0,22.6,241.6,781.5)" />
</g>
</g>
<g fill="#000000" >
<use xlink:href="#f1_d" transform="matrix(11.8,0,0,22.6,322.9,781.5)" />
<use xlink:href="#f0_l" transform="matrix(12.1,0,0,12.1,158.4,777.8)" />
<use xlink:href="#f0_q" transform="matrix(12.1,0,0,12.1,167.6,777.8)" />
<use xlink:href="#f0_l" transform="matrix(12.1,0,0,12.1,199.5,777.8)" />
<use xlink:href="#f0_n" transform="matrix(12.1,0,0,12.1,208.6,777.8)" />
<use xlink:href="#f0_o" transform="matrix(12.1,0,0,12.1,249.3,777.8)" />
<use xlink:href="#f0_p" transform="matrix(12.1,0,0,12.1,278.5,777.8)" />
<use xlink:href="#f0_m" transform="matrix(12.1,0,0,12.1,343.7,777.8)" />
<use xlink:href="#f0_l" transform="matrix(12.1,0,0,12.1,352.9,777.8)" />
<use xlink:href="#f3_25" transform="matrix(12.1,0,0,12.1,139.7,777.8)" />
<use xlink:href="#f3_26" transform="matrix(12.1,0,0,12.1,180.4,777.8)" />
<use xlink:href="#f3_27" transform="matrix(12.1,0,0,12.1,217.4,777.8)" />
<use xlink:href="#f3_25" transform="matrix(12.1,0,0,12.1,258.1,777.8)" />
<use xlink:href="#f3_26" transform="matrix(12.1,0,0,12.1,291.1,777.8)" />
<use xlink:href="#f3_27" transform="matrix(12.1,0,0,12.1,312,777.8)" />
<use xlink:href="#f4_28" transform="matrix(12.1,0,-3.3,12.1,119.3,777.8)" />
<use xlink:href="#f1_h" transform="matrix(12.1,0,0,12.1,147.8,777.8)" />
<use xlink:href="#f1_h" transform="matrix(12.1,0,0,12.1,188.8,777.8)" />
<use xlink:href="#f1_49" transform="matrix(12.1,0,0,12.1,235.9,777.8)" />
<use xlink:href="#f1_f" transform="matrix(12.1,0,0,12.1,266.2,777.8)" />
<use xlink:href="#f1_h" transform="matrix(12.1,0,0,12.1,299.5,777.8)" />
<use xlink:href="#f1_x" transform="matrix(12.1,0,0,12.1,331.1,777.8)" />
<use xlink:href="#f2_4" transform="matrix(12.1,0,0,12.1,139.5,771.4)" />
<use xlink:href="#f2_4" transform="matrix(12.1,0,0,12.1,257.9,771.4)" />
<use xlink:href="#f1_c" transform="matrix(11.8,0,0,15.8,132.4,829.9)" />
<use xlink:href="#f1_d" transform="matrix(11.8,0,0,15.8,213.4,829.9)" />
<use xlink:href="#f0_o" transform="matrix(12.1,0,0,12.1,140.1,828.4)" />
<use xlink:href="#f0_s" transform="matrix(12.1,0,0,12.1,163.1,828.4)" />
<use xlink:href="#f0_k" transform="matrix(12.1,0,0,12.1,172.3,828.4)" />
<use xlink:href="#f0_l" transform="matrix(12.1,0,0,12.1,194.7,828.4)" />
<use xlink:href="#f0_n" transform="matrix(12.1,0,0,12.1,203.9,828.4)" />
<use xlink:href="#f0_m" transform="matrix(12.1,0,0,12.1,234.5,828.4)" />
<use xlink:href="#f0_l" transform="matrix(12.1,0,0,12.1,243.7,828.4)" />
<use xlink:href="#f4_28" transform="matrix(12.1,0,-3.2,12.1,119.4,828.4)" />
<use xlink:href="#f1_h" transform="matrix(12.1,0,0,12.1,151.4,828.4)" />
<use xlink:href="#f1_f" transform="matrix(12.1,0,0,12.1,183.9,828.4)" />
<use xlink:href="#f1_x" transform="matrix(12.1,0,0,12.1,221.8,828.4)" />
</g>
<path d="M145.9,879.8h29.5m28.7,0h9.7" class="g10_13" />
<g fill="#000000" >
<use xlink:href="#f0_m" transform="matrix(11.9,0,0,11.9,152.5,872.8)" />
<use xlink:href="#f0_l" transform="matrix(11.9,0,0,11.9,161.7,872.8)" />
<use xlink:href="#f0_l" transform="matrix(11.9,0,0,11.9,204.4,872.8)" />
<use xlink:href="#f0_q" transform="matrix(11.9,0,0,11.9,157.1,898.5)" />
<use xlink:href="#f0_n" transform="matrix(11.9,0,0,11.9,166.3,898.5)" />
<use xlink:href="#f0_n" transform="matrix(11.9,0,0,11.9,204.6,898.5)" />
<use xlink:href="#f4_28" transform="matrix(11.9,0,-3.2,11.9,119.4,884.3)" />
<use xlink:href="#f1_x" transform="matrix(11.9,0,0,11.9,133.1,884.3)" />
<use xlink:href="#f1_x" transform="matrix(11.9,0,0,11.9,178.6,884.3)" />
<use xlink:href="#f1_h" transform="matrix(11.9,0,0,11.9,191.2,884.3)" />
<use xlink:href="#f1_h" transform="matrix(11.9,0,0,11.9,147,898.5)" />
</g>
<path d="M138.2,934.1h9.1m29.2,11.2h9.7" class="g10_13" />
<g fill="#000000" >
<use xlink:href="#f2_4" transform="matrix(13,0,0,11.9,233.9,943.6)" />
<use xlink:href="#f2_4" transform="matrix(13.6,0,0,11.9,274.3,943.6)" />
</g>
<g clip-path="url(#c13_13)">
<g fill="#000000" >
<use xlink:href="#f1_c" transform="matrix(11.8,0,0,22.2,188.8,953.5)" />
</g>
</g>
<g fill="#000000" >
<use xlink:href="#f1_d" transform="matrix(11.8,0,0,22.2,283.8,953.5)" />
<use xlink:href="#f0_l" transform="matrix(11.9,0,0,11.9,176.7,938.4)" />
<use xlink:href="#f0_l" transform="matrix(11.9,0,0,11.9,214.3,950)" />
<use xlink:href="#f0_q" transform="matrix(11.9,0,0,11.9,223.5,950)" />
<use xlink:href="#f0_l" transform="matrix(11.9,0,0,11.9,255.2,950)" />
<use xlink:href="#f0_n" transform="matrix(11.9,0,0,11.9,264.3,950)" />
<use xlink:href="#f0_n" transform="matrix(11.9,0,0,11.9,177.1,964.1)" />
<use xlink:href="#f3_20" transform="matrix(11.9,0,0,11.9,135.8,950)" />
<use xlink:href="#f3_25" transform="matrix(11.9,0,0,11.9,195.8,950)" />
<use xlink:href="#f3_26" transform="matrix(11.9,0,0,11.9,236.3,950)" />
<use xlink:href="#f3_27" transform="matrix(11.9,0,0,11.9,273.1,950)" />
<use xlink:href="#f1_1s" transform="matrix(11.9,0,0,11.9,116.8,950)" />
<use xlink:href="#f1_x" transform="matrix(11.9,0,0,11.9,150.5,950)" />
<use xlink:href="#f1_h" transform="matrix(11.9,0,0,11.9,163,950)" />
<use xlink:href="#f1_h" transform="matrix(11.9,0,0,11.9,203.7,950)" />
<use xlink:href="#f1_h" transform="matrix(11.9,0,0,11.9,244.5,950)" />
<use xlink:href="#f2_4" transform="matrix(11.9,0,0,11.9,195.4,943.6)" />
</g>
<path d="M157.4,1012.9h9.7m41.6,0h18" class="g10_13" />
<g fill="#000000" >
<use xlink:href="#f2_4" transform="matrix(13,0,0,11.9,240,1011.2)" />
</g>
<path d="M272.7,1012.9h17.4" class="g10_13" />
<g fill="#000000" >
<use xlink:href="#f2_4" transform="matrix(13.6,0,0,11.9,303.4,1011.2)" />
<use xlink:href="#f0_l" transform="matrix(11.9,0,0,11.9,157.7,1006.1)" />
<use xlink:href="#f0_l" transform="matrix(11.9,0,0,11.9,207.9,1006.1)" />
<use xlink:href="#f0_q" transform="matrix(11.9,0,0,11.9,217,1006.1)" />
<use xlink:href="#f0_l" transform="matrix(11.9,0,0,11.9,271.9,1006.1)" />
<use xlink:href="#f0_n" transform="matrix(11.9,0,0,11.9,280.9,1006.1)" />
<use xlink:href="#f0_n" transform="matrix(11.9,0,0,11.9,158,1031.7)" />
<use xlink:href="#f0_n" transform="matrix(11.9,0,0,11.9,213.4,1031.7)" />
<use xlink:href="#f0_n" transform="matrix(11.9,0,0,11.9,277,1031.7)" />
<use xlink:href="#f3_25" transform="matrix(11.9,0,0,11.9,178.6,1017.4)" />
<use xlink:href="#f3_26" transform="matrix(11.9,0,0,11.9,242.3,1017.4)" />
<use xlink:href="#f3_27" transform="matrix(11.9,0,0,11.9,302.1,1017.4)" />
<use xlink:href="#f1_4o" transform="matrix(11.9,0,0,11.9,134.9,1007.5)" />
<use xlink:href="#f1_54" transform="matrix(11.9,0,0,11.9,169.8,1007.5)" />
<use xlink:href="#f1_4o" transform="matrix(11.9,0,0,11.9,198.9,1007.5)" />
<use xlink:href="#f1_54" transform="matrix(11.9,0,0,11.9,229.3,1007.5)" />
<use xlink:href="#f1_4o" transform="matrix(11.9,0,0,11.9,262.9,1007.5)" />
<use xlink:href="#f1_54" transform="matrix(11.9,0,0,11.9,292.7,1007.5)" />
<use xlink:href="#f1_x" transform="matrix(11.9,0,0,11.9,119.5,1017.4)" />
<use xlink:href="#f1_h" transform="matrix(11.9,0,0,11.9,144.5,1017.4)" />
<use xlink:href="#f1_f" transform="matrix(11.9,0,0,11.9,186.6,1017.4)" />
<use xlink:href="#f1_f" transform="matrix(11.9,0,0,11.9,250.6,1017.4)" />
<use xlink:href="#f1_4p" transform="matrix(11.9,0,0,11.9,134.9,1022.4)" />
<use xlink:href="#f1_55" transform="matrix(11.9,0,0,11.9,169.8,1022.4)" />
<use xlink:href="#f1_4p" transform="matrix(11.9,0,0,11.9,198.9,1022.4)" />
<use xlink:href="#f1_55" transform="matrix(11.9,0,0,11.9,229.3,1022.4)" />
<use xlink:href="#f1_4p" transform="matrix(11.9,0,0,11.9,262.9,1022.4)" />
<use xlink:href="#f1_55" transform="matrix(11.9,0,0,11.9,292.7,1022.4)" />
<use xlink:href="#f1_4q" transform="matrix(11.9,0,0,11.9,134.9,1033.8)" />
<use xlink:href="#f1_56" transform="matrix(11.9,0,0,11.9,169.8,1033.8)" />
<use xlink:href="#f1_4q" transform="matrix(11.9,0,0,11.9,198.9,1033.8)" />
<use xlink:href="#f1_56" transform="matrix(11.9,0,0,11.9,229.3,1033.8)" />
<use xlink:href="#f1_4q" transform="matrix(11.9,0,0,11.9,262.9,1033.8)" />
<use xlink:href="#f1_56" transform="matrix(11.9,0,0,11.9,292.7,1033.8)" />
<use xlink:href="#f2_4" transform="matrix(11.9,0,0,11.9,178.4,1011.2)" />
<use xlink:href="#f0_m" transform="matrix(12,0,0,12,64.9,1094.1)" />
<use xlink:href="#f0_m" transform="matrix(12,0,0,12,74.1,1094.1)" />
<use xlink:href="#f0_i" transform="matrix(12,0,0,12,83.2,1094.1)" />
<use xlink:href="#f0_11" transform="matrix(12,0,0,12,121.9,1094.1)" />
<use xlink:href="#f0_2a" transform="matrix(12,0,0,12,134.9,1094.1)" />
<use xlink:href="#f0_2b" transform="matrix(12,0,0,12,147.2,1094.1)" />
<use xlink:href="#f0_2c" transform="matrix(12,0,0,12,156.2,1094.1)" />
<use xlink:href="#f0_21" transform="matrix(12,0,0,12,165.2,1094.1)" />
<use xlink:href="#f0_2a" transform="matrix(12,0,0,12,173.1,1094.1)" />
<use xlink:href="#f0_2g" transform="matrix(12,0,0,12,185.5,1094.1)" />
<use xlink:href="#f0_1x" transform="matrix(12,0,0,12,190.5,1094.1)" />
<use xlink:href="#f0_2a" transform="matrix(12,0,0,12,198.4,1094.1)" />
<use xlink:href="#f0_27" transform="matrix(12,0,0,12,207.4,1094.1)" />
<use xlink:href="#f0_2j" transform="matrix(12,0,0,12,219.5,1094.1)" />
<use xlink:href="#f0_25" transform="matrix(12,0,0,12,232.5,1094.1)" />
<use xlink:href="#f0_2g" transform="matrix(12,0,0,12,237.4,1094.1)" />
<use xlink:href="#f0_24" transform="matrix(12,0,0,12,242.4,1094.1)" />
<use xlink:href="#f0_1x" transform="matrix(12,0,0,12,254.7,1094.1)" />
<use xlink:href="#f0_2f" transform="matrix(12,0,0,12,265.8,1094.1)" />
<use xlink:href="#f0_2d" transform="matrix(12,0,0,12,272.8,1094.1)" />
<use xlink:href="#f0_2h" transform="matrix(12,0,0,12,281.8,1094.1)" />
<use xlink:href="#f0_1x" transform="matrix(12,0,0,12,291,1094.1)" />
<use xlink:href="#f0_2e" transform="matrix(12,0,0,12,298.8,1094.1)" />
<use xlink:href="#f0_21" transform="matrix(12,0,0,12,304.7,1094.1)" />
<use xlink:href="#f0_1y" transform="matrix(12,0,0,12,315.9,1094.1)" />
<use xlink:href="#f0_1x" transform="matrix(12,0,0,12,324.9,1094.1)" />
<use xlink:href="#f0_2f" transform="matrix(12,0,0,12,332.8,1094.1)" />
<use xlink:href="#f0_21" transform="matrix(12,0,0,12,339.7,1094.1)" />
<use xlink:href="#f0_1x" transform="matrix(12,0,0,12,350.7,1094.1)" />
<use xlink:href="#f0_2a" transform="matrix(12,0,0,12,358.6,1094.1)" />
<use xlink:href="#f0_20" transform="matrix(12,0,0,12,367.6,1094.1)" />
<use xlink:href="#f0_2i" transform="matrix(12,0,0,12,379.9,1094.1)" />
<use xlink:href="#f0_21" transform="matrix(12,0,0,12,388.9,1094.1)" />
<use xlink:href="#f0_2e" transform="matrix(12,0,0,12,396.9,1094.1)" />
<use xlink:href="#f0_2g" transform="matrix(12,0,0,12,402.8,1094.1)" />
<use xlink:href="#f0_25" transform="matrix(12,0,0,12,407.7,1094.1)" />
<use xlink:href="#f0_1z" transform="matrix(12,0,0,12,412.7,1094.1)" />
<use xlink:href="#f0_1x" transform="matrix(12,0,0,12,420.6,1094.1)" />
<use xlink:href="#f0_28" transform="matrix(12,0,0,12,428.5,1094.1)" />
<use xlink:href="#f0_2f" transform="matrix(12,0,0,12,436.7,1094.1)" />
<use xlink:href="#f0_25" transform="matrix(12,0,0,12,443.7,1094.1)" />
<use xlink:href="#f0_20" transform="matrix(12,0,0,12,448.6,1094.1)" />
<use xlink:href="#f0_21" transform="matrix(12,0,0,12,457.6,1094.1)" />
<use xlink:href="#f0_2f" transform="matrix(12,0,0,12,465.5,1094.1)" />
<use xlink:href="#f0_25" transform="matrix(12,0,0,12,475.8,1094.1)" />
<use xlink:href="#f0_2f" transform="matrix(12,0,0,12,480.7,1094.1)" />
<use xlink:href="#f0_2g" transform="matrix(12,0,0,12,490.9,1094.1)" />
<use xlink:href="#f0_2b" transform="matrix(12,0,0,12,495.9,1094.1)" />
<use xlink:href="#f0_1y" transform="matrix(12,0,0,12,508.2,1094.1)" />
<use xlink:href="#f0_21" transform="matrix(12,0,0,12,517.2,1094.1)" />
<use xlink:href="#f0_1z" transform="matrix(12,0,0,12,528.3,1094.1)" />
<use xlink:href="#f0_2b" transform="matrix(12,0,0,12,536.2,1094.1)" />
<use xlink:href="#f0_2a" transform="matrix(12,0,0,12,545.2,1094.1)" />
<use xlink:href="#f0_2f" transform="matrix(12,0,0,12,554.2,1094.1)" />
<use xlink:href="#f0_2g" transform="matrix(12,0,0,12,561.2,1094.1)" />
<use xlink:href="#f0_2e" transform="matrix(12,0,0,12,566.1,1094.1)" />
<use xlink:href="#f0_2h" transform="matrix(12,0,0,12,572,1094.1)" />
<use xlink:href="#f0_1z" transform="matrix(12,0,0,12,581,1094.1)" />
<use xlink:href="#f0_2g" transform="matrix(12,0,0,12,589,1094.1)" />
<use xlink:href="#f0_21" transform="matrix(12,0,0,12,594,1094.1)" />
<use xlink:href="#f0_20" transform="matrix(12,0,0,12,601.9,1094.1)" />
<use xlink:href="#f0_22" transform="matrix(12,0,0,12,614.1,1094.1)" />
<use xlink:href="#f0_2e" transform="matrix(12,0,0,12,620,1094.1)" />
<use xlink:href="#f0_2b" transform="matrix(12,0,0,12,625.9,1094.1)" />
<use xlink:href="#f0_29" transform="matrix(12,0,0,12,634.9,1094.1)" />
<use xlink:href="#f0_1x" transform="matrix(12,0,0,12,652.3,1094.1)" />
<use xlink:href="#f0_29" transform="matrix(12,0,0,12,663.3,1094.1)" />
<use xlink:href="#f0_21" transform="matrix(12,0,0,12,677.4,1094.1)" />
<use xlink:href="#f0_2g" transform="matrix(12,0,0,12,685.3,1094.1)" />
<use xlink:href="#f0_1x" transform="matrix(12,0,0,12,690.2,1094.1)" />
<use xlink:href="#f0_28" transform="matrix(12,0,0,12,698.3,1094.1)" />
<use xlink:href="#f0_2f" transform="matrix(12,0,0,12,706.5,1094.1)" />
<use xlink:href="#f0_24" transform="matrix(12,0,0,12,713.5,1094.1)" />
<use xlink:href="#f0_21" transform="matrix(12,0,0,12,722.5,1094.1)" />
<use xlink:href="#f0_21" transform="matrix(12,0,0,12,730.4,1094.1)" />
<use xlink:href="#f0_2g" transform="matrix(12,0,0,12,738.3,1094.1)" />
<use xlink:href="#f0_2f" transform="matrix(12,0,0,12,746.5,1094.1)" />
<use xlink:href="#f0_2b" transform="matrix(12,0,0,12,753.5,1094.1)" />
<use xlink:href="#f0_1x" transform="matrix(12,0,0,12,765.8,1094.1)" />
<use xlink:href="#f0_2f" transform="matrix(12,0,0,12,773.6,1094.1)" />
<use xlink:href="#f0_2g" transform="matrix(12,0,0,12,783.7,1094.1)" />
<use xlink:href="#f0_2b" transform="matrix(12,0,0,12,788.8,1094.1)" />
<use xlink:href="#f0_24" transform="matrix(12,0,0,12,801.2,1094.1)" />
<use xlink:href="#f0_2b" transform="matrix(12,0,0,12,810.2,1094.1)" />
<use xlink:href="#f0_28" transform="matrix(12,0,0,12,819.1,1094.1)" />
<use xlink:href="#f0_20" transform="matrix(12,0,0,12,824.1,1094.1)" />
<use xlink:href="#f0_1x" transform="matrix(12,0,0,12,836.4,1094.1)" />
<use xlink:href="#f0_23" transform="matrix(12,0,0,12,121.2,1116.1)" />
<use xlink:href="#f0_25" transform="matrix(12,0,0,12,129.6,1116.1)" />
<use xlink:href="#f0_2i" transform="matrix(12,0,0,12,134.4,1116.1)" />
<use xlink:href="#f0_21" transform="matrix(12,0,0,12,143,1116.1)" />
<use xlink:href="#f0_2a" transform="matrix(12,0,0,12,150.7,1116.1)" />
<use xlink:href="#f0_2d" transform="matrix(12,0,0,12,162.4,1116.1)" />
<use xlink:href="#f0_2h" transform="matrix(12,0,0,12,171.1,1116.1)" />
<use xlink:href="#f0_1x" transform="matrix(12,0,0,12,179.9,1116.1)" />
<use xlink:href="#f0_2a" transform="matrix(12,0,0,12,187.4,1116.1)" />
<use xlink:href="#f0_2g" transform="matrix(12,0,0,12,196.2,1116.1)" />
<use xlink:href="#f0_25" transform="matrix(12,0,0,12,200.8,1116.1)" />
<use xlink:href="#f0_2g" transform="matrix(12,0,0,12,205.5,1116.1)" />
<use xlink:href="#f0_2l" transform="matrix(12,0,0,12,210.1,1116.1)" />
<use xlink:href="#f0_2b" transform="matrix(12,0,0,12,221.3,1116.1)" />
<use xlink:href="#f0_22" transform="matrix(12,0,0,12,229.9,1116.1)" />
<use xlink:href="#f0_2j" transform="matrix(12,0,0,12,238.3,1116.1)" />
<use xlink:href="#f0_1x" transform="matrix(12,0,0,12,251.2,1116.1)" />
<use xlink:href="#f0_2g" transform="matrix(12,0,0,12,258.7,1116.1)" />
<use xlink:href="#f0_21" transform="matrix(12,0,0,12,263.4,1116.1)" />
<use xlink:href="#f0_2e" transform="matrix(12,0,0,12,271,1116.1)" />
<use xlink:href="#f0_i" transform="matrix(12,0,0,12,275.6,1116.1)" />
<use xlink:href="#f0_1j" transform="matrix(12,0,0,12,282.7,1116.1)" />
<use xlink:href="#f0_24" transform="matrix(12,0,0,12,292.4,1116.1)" />
<use xlink:href="#f0_2b" transform="matrix(12,0,0,12,301.2,1116.1)" />
<use xlink:href="#f0_2j" transform="matrix(12,0,0,12,309.8,1116.1)" />
<use xlink:href="#f0_2g" transform="matrix(12,0,0,12,325.6,1116.1)" />
<use xlink:href="#f0_24" transform="matrix(12,0,0,12,330.2,1116.1)" />
<use xlink:href="#f0_1x" transform="matrix(12,0,0,12,339,1116.1)" />
<use xlink:href="#f0_2g" transform="matrix(12,0,0,12,346.5,1116.1)" />
<use xlink:href="#f0_2g" transform="matrix(12,0,0,12,354.2,1116.1)" />
<use xlink:href="#f0_24" transform="matrix(12,0,0,12,359,1116.1)" />
<use xlink:href="#f0_21" transform="matrix(12,0,0,12,367.6,1116.1)" />
<use xlink:href="#f0_1z" transform="matrix(12,0,0,12,378,1116.1)" />
<use xlink:href="#f0_2b" transform="matrix(12,0,0,12,385.7,1116.1)" />
<use xlink:href="#f0_2f" transform="matrix(12,0,0,12,394.3,1116.1)" />
<use xlink:href="#f0_2g" transform="matrix(12,0,0,12,400.9,1116.1)" />
<use xlink:href="#f0_2b" transform="matrix(12,0,0,12,408.6,1116.1)" />
<use xlink:href="#f0_22" transform="matrix(12,0,0,12,417.4,1116.1)" />
<use xlink:href="#f0_29" transform="matrix(12,0,0,12,426.1,1116.1)" />
<use xlink:href="#f0_1x" transform="matrix(12,0,0,12,439.8,1116.1)" />
<use xlink:href="#f0_2g" transform="matrix(12,0,0,12,447.5,1116.1)" />
<use xlink:href="#f0_21" transform="matrix(12,0,0,12,452.1,1116.1)" />
<use xlink:href="#f0_2e" transform="matrix(12,0,0,12,459.8,1116.1)" />
<use xlink:href="#f0_25" transform="matrix(12,0,0,12,465.3,1116.1)" />
<use xlink:href="#f0_1x" transform="matrix(12,0,0,12,470.1,1116.1)" />
<use xlink:href="#f0_28" transform="matrix(12,0,0,12,477.6,1116.1)" />
<use xlink:href="#f0_2j" transform="matrix(12,0,0,12,485.3,1116.1)" />
<use xlink:href="#f0_25" transform="matrix(12,0,0,12,497.9,1116.1)" />
<use xlink:href="#f0_28" transform="matrix(12,0,0,12,502.7,1116.1)" />
<use xlink:href="#f0_28" transform="matrix(12,0,0,12,507.3,1116.1)" />
<use xlink:href="#f0_1y" transform="matrix(12,0,0,12,514.8,1116.1)" />
<use xlink:href="#f0_21" transform="matrix(12,0,0,12,523.6,1116.1)" />
<use xlink:href="#f0_28" transform="matrix(12,0,0,12,534.2,1116.1)" />
<use xlink:href="#f0_21" transform="matrix(12,0,0,12,538.8,1116.1)" />
<use xlink:href="#f0_1x" transform="matrix(12,0,0,12,546.5,1116.1)" />
<use xlink:href="#f0_2f" transform="matrix(12,0,0,12,554,1116.1)" />
<use xlink:href="#f0_2g" transform="matrix(12,0,0,12,560.8,1116.1)" />
<use xlink:href="#f0_2j" transform="matrix(12,0,0,12,568.3,1116.1)" />
<use xlink:href="#f0_24" transform="matrix(12,0,0,12,581.2,1116.1)" />
<use xlink:href="#f0_21" transform="matrix(12,0,0,12,589.8,1116.1)" />
<use xlink:href="#f0_2a" transform="matrix(12,0,0,12,597.5,1116.1)" />
<use xlink:href="#f0_20" transform="matrix(12,0,0,12,609.2,1116.1)" />
<use xlink:href="#f0_21" transform="matrix(12,0,0,12,617.8,1116.1)" />
<use xlink:href="#f0_2c" transform="matrix(12,0,0,12,625.5,1116.1)" />
<use xlink:href="#f0_2g" transform="matrix(12,0,0,12,634.2,1116.1)" />
<use xlink:href="#f0_24" transform="matrix(12,0,0,12,638.9,1116.1)" />
<use xlink:href="#f0_2b" transform="matrix(12,0,0,12,650.7,1116.1)" />
<use xlink:href="#f0_22" transform="matrix(12,0,0,12,659.3,1116.1)" />
<use xlink:href="#f0_2g" transform="matrix(12,0,0,12,667.7,1116.1)" />
<use xlink:href="#f0_24" transform="matrix(12,0,0,12,672.3,1116.1)" />
<use xlink:href="#f0_21" transform="matrix(12,0,0,12,681.1,1116.1)" />
<use xlink:href="#f0_2g" transform="matrix(12,0,0,12,691.7,1116.1)" />
<use xlink:href="#f0_1x" transform="matrix(12,0,0,12,696.3,1116.1)" />
<use xlink:href="#f0_2a" transform="matrix(12,0,0,12,704,1116.1)" />
<use xlink:href="#f0_27" transform="matrix(12,0,0,12,712.6,1116.1)" />
<use xlink:href="#f0_25" transform="matrix(12,0,0,12,724.4,1116.1)" />
<use xlink:href="#f0_2f" transform="matrix(12,0,0,12,729.1,1116.1)" />
<use xlink:href="#f0_24" transform="matrix(12,0,0,12,738.8,1116.1)" />
<use xlink:href="#f0_1x" transform="matrix(12,0,0,12,747.5,1116.1)" />
<use xlink:href="#f0_28" transform="matrix(12,0,0,12,755,1116.1)" />
<use xlink:href="#f0_22" transform="matrix(12,0,0,12,759.7,1116.1)" />
<use xlink:href="#f0_2b" transform="matrix(12,0,0,12,768.2,1116.1)" />
<use xlink:href="#f0_22" transform="matrix(12,0,0,12,776.8,1116.1)" />
<use xlink:href="#f0_25" transform="matrix(12,0,0,12,785.4,1116.1)" />
<use xlink:href="#f0_2g" transform="matrix(12,0,0,12,790.2,1116.1)" />
<use xlink:href="#f0_2f" transform="matrix(12,0,0,12,794.8,1116.1)" />
<use xlink:href="#f0_2j" transform="matrix(12,0,0,12,804.5,1116.1)" />
<use xlink:href="#f0_25" transform="matrix(12,0,0,12,817.3,1116.1)" />
<use xlink:href="#f0_20" transform="matrix(12,0,0,12,821.9,1116.1)" />
<use xlink:href="#f0_2g" transform="matrix(12,0,0,12,830.7,1116.1)" />
<use xlink:href="#f0_24" transform="matrix(12,0,0,12,835.3,1116.1)" />
<use xlink:href="#f0_i" transform="matrix(12,0,0,12,121.2,1138.1)" />
<use xlink:href="#f0_19" transform="matrix(12,0,0,12,129.3,1138.1)" />
<use xlink:href="#f0_22" transform="matrix(12,0,0,12,134.9,1138.1)" />
<use xlink:href="#f0_2g" transform="matrix(12,0,0,12,144.7,1138.1)" />
<use xlink:href="#f0_24" transform="matrix(12,0,0,12,149.8,1138.1)" />
<use xlink:href="#f0_21" transform="matrix(12,0,0,12,158.9,1138.1)" />
<use xlink:href="#f0_1z" transform="matrix(12,0,0,12,170.5,1138.1)" />
<use xlink:href="#f0_2b" transform="matrix(12,0,0,12,178.5,1138.1)" />
<use xlink:href="#f0_2f" transform="matrix(12,0,0,12,187.7,1138.1)" />
<use xlink:href="#f0_2g" transform="matrix(12,0,0,12,194.8,1138.1)" />
<use xlink:href="#f0_25" transform="matrix(12,0,0,12,203.6,1138.1)" />
<use xlink:href="#f0_2f" transform="matrix(12,0,0,12,208.7,1138.1)" />
<use xlink:href="#f0_2g" transform="matrix(12,0,0,12,219.4,1138.1)" />
<use xlink:href="#f0_2b" transform="matrix(12,0,0,12,224.5,1138.1)" />
<use xlink:href="#f0_1y" transform="matrix(12,0,0,12,237.3,1138.1)" />
<use xlink:href="#f0_21" transform="matrix(12,0,0,12,246.5,1138.1)" />
<use xlink:href="#f0_28" transform="matrix(12,0,0,12,258,1138.1)" />
<use xlink:href="#f0_21" transform="matrix(12,0,0,12,263.1,1138.1)" />
<use xlink:href="#f0_1x" transform="matrix(12,0,0,12,271.2,1138.1)" />
<use xlink:href="#f0_2f" transform="matrix(12,0,0,12,279.3,1138.1)" />
<use xlink:href="#f0_2g" transform="matrix(12,0,0,12,286.4,1138.1)" />
<use xlink:href="#f0_2j" transform="matrix(12,0,0,12,295,1138.1)" />
<use xlink:href="#f0_24" transform="matrix(12,0,0,12,308.2,1138.1)" />
<use xlink:href="#f0_21" transform="matrix(12,0,0,12,317.4,1138.1)" />
<use xlink:href="#f0_2a" transform="matrix(12,0,0,12,325.4,1138.1)" />
<use xlink:href="#f0_20" transform="matrix(12,0,0,12,338.3,1138.1)" />
<use xlink:href="#f0_21" transform="matrix(12,0,0,12,347.4,1138.1)" />
<use xlink:href="#f0_2c" transform="matrix(12,0,0,12,355.5,1138.1)" />
<use xlink:href="#f0_2g" transform="matrix(12,0,0,12,364.7,1138.1)" />
<use xlink:href="#f0_24" transform="matrix(12,0,0,12,369.8,1138.1)" />
<use xlink:href="#f0_2b" transform="matrix(12,0,0,12,382.4,1138.1)" />
<use xlink:href="#f0_22" transform="matrix(12,0,0,12,391.6,1138.1)" />
<use xlink:href="#f0_2g" transform="matrix(12,0,0,12,401.3,1138.1)" />
<use xlink:href="#f0_24" transform="matrix(12,0,0,12,406.4,1138.1)" />
<use xlink:href="#f0_21" transform="matrix(12,0,0,12,415.6,1138.1)" />
<use xlink:href="#f0_2g" transform="matrix(12,0,0,12,427.1,1138.1)" />
<use xlink:href="#f0_1x" transform="matrix(12,0,0,12,432.3,1138.1)" />
<use xlink:href="#f0_2a" transform="matrix(12,0,0,12,440.3,1138.1)" />
<use xlink:href="#f0_27" transform="matrix(12,0,0,12,449.5,1138.1)" />
<use xlink:href="#f0_25" transform="matrix(12,0,0,12,462.1,1138.1)" />
<use xlink:href="#f0_2f" transform="matrix(12,0,0,12,467.3,1138.1)" />
<use xlink:href="#f0_24" transform="matrix(12,0,0,12,478.1,1138.1)" />
<use xlink:href="#f0_1x" transform="matrix(12,0,0,12,487.2,1138.1)" />
<use xlink:href="#f0_28" transform="matrix(12,0,0,12,495.3,1138.1)" />
<use xlink:href="#f0_22" transform="matrix(12,0,0,12,500.4,1138.1)" />
<use xlink:href="#f0_2b" transform="matrix(12,0,0,12,509.9,1138.1)" />
<use xlink:href="#f0_22" transform="matrix(12,0,0,12,519.1,1138.1)" />
<use xlink:href="#f0_25" transform="matrix(12,0,0,12,528.8,1138.1)" />
<use xlink:href="#f0_2g" transform="matrix(12,0,0,12,533.9,1138.1)" />
<use xlink:href="#f0_2f" transform="matrix(12,0,0,12,539.1,1138.1)" />
<use xlink:href="#f0_2j" transform="matrix(12,0,0,12,549.7,1138.1)" />
<use xlink:href="#f0_25" transform="matrix(12,0,0,12,562.9,1138.1)" />
<use xlink:href="#f0_20" transform="matrix(12,0,0,12,568,1138.1)" />
<use xlink:href="#f0_2g" transform="matrix(12,0,0,12,577.2,1138.1)" />
<use xlink:href="#f0_24" transform="matrix(12,0,0,12,582.3,1138.1)" />
<use xlink:href="#f0_i" transform="matrix(12,0,0,12,591.4,1138.1)" />
<use xlink:href="#f0_19" transform="matrix(12,0,0,12,599.7,1138.1)" />
<use xlink:href="#f0_22" transform="matrix(12,0,0,12,605.4,1138.1)" />
<use xlink:href="#f0_2g" transform="matrix(12,0,0,12,614.9,1138.1)" />
<use xlink:href="#f0_24" transform="matrix(12,0,0,12,620,1138.1)" />
<use xlink:href="#f0_21" transform="matrix(12,0,0,12,629.2,1138.1)" />
<use xlink:href="#f0_1z" transform="matrix(12,0,0,12,640.7,1138.1)" />
<use xlink:href="#f0_2b" transform="matrix(12,0,0,12,648.8,1138.1)" />
<use xlink:href="#f0_2f" transform="matrix(12,0,0,12,658,1138.1)" />
<use xlink:href="#f0_2g" transform="matrix(12,0,0,12,665.1,1138.1)" />
<use xlink:href="#f0_25" transform="matrix(12,0,0,12,673.9,1138.1)" />
<use xlink:href="#f0_2f" transform="matrix(12,0,0,12,679,1138.1)" />
<use xlink:href="#f0_2g" transform="matrix(12,0,0,12,689.6,1138.1)" />
<use xlink:href="#f0_2b" transform="matrix(12,0,0,12,694.7,1138.1)" />
<use xlink:href="#f0_1y" transform="matrix(12,0,0,12,707.6,1138.1)" />
<use xlink:href="#f0_21" transform="matrix(12,0,0,12,716.7,1138.1)" />
<use xlink:href="#f0_1y" transform="matrix(12,0,0,12,728.3,1138.1)" />
<use xlink:href="#f0_2b" transform="matrix(12,0,0,12,737.4,1138.1)" />
<use xlink:href="#f0_2e" transform="matrix(12,0,0,12,746.6,1138.1)" />
<use xlink:href="#f0_2a" transform="matrix(12,0,0,12,752.7,1138.1)" />
<use xlink:href="#f0_21" transform="matrix(12,0,0,12,761.8,1138.1)" />
<use xlink:href="#f0_1y" transform="matrix(12,0,0,12,774,1138.1)" />
<use xlink:href="#f0_2l" transform="matrix(12,0,0,12,783.2,1138.1)" />
<use xlink:href="#f0_2a" transform="matrix(12,0,0,12,795.3,1138.1)" />
<use xlink:href="#f0_21" transform="matrix(12,0,0,12,804.5,1138.1)" />
<use xlink:href="#f0_1x" transform="matrix(12,0,0,12,812.5,1138.1)" />
<use xlink:href="#f0_2e" transform="matrix(12,0,0,12,820.6,1138.1)" />
<use xlink:href="#f0_1y" transform="matrix(12,0,0,12,826.7,1138.1)" />
<use xlink:href="#f0_2l" transform="matrix(12,0,0,12,835.8,1138.1)" />
<use xlink:href="#f0_2f" transform="matrix(12,0,0,12,121.2,1160.1)" />
<use xlink:href="#f0_21" transform="matrix(12,0,0,12,127.8,1160.1)" />
<use xlink:href="#f0_2g" transform="matrix(12,0,0,12,135.3,1160.1)" />
<use xlink:href="#f0_2g" transform="matrix(12,0,0,12,139.9,1160.1)" />
<use xlink:href="#f0_28" transform="matrix(12,0,0,12,144.5,1160.1)" />
<use xlink:href="#f0_21" transform="matrix(12,0,0,12,149.2,1160.1)" />
<use xlink:href="#f0_20" transform="matrix(12,0,0,12,156.8,1160.1)" />
<use xlink:href="#f0_28" transform="matrix(12,0,0,12,168.3,1160.1)" />
<use xlink:href="#f0_2b" transform="matrix(12,0,0,12,172.9,1160.1)" />
<use xlink:href="#f0_2j" transform="matrix(12,0,0,12,181.5,1160.1)" />
<use xlink:href="#f0_21" transform="matrix(12,0,0,12,194.2,1160.1)" />
<use xlink:href="#f0_2e" transform="matrix(12,0,0,12,201.7,1160.1)" />
<use xlink:href="#f0_25" transform="matrix(12,0,0,12,210.3,1160.1)" />
<use xlink:href="#f0_2a" transform="matrix(12,0,0,12,214.9,1160.1)" />
<use xlink:href="#f0_1z" transform="matrix(12,0,0,12,223.5,1160.1)" />
<use xlink:href="#f0_2b" transform="matrix(12,0,0,12,231,1160.1)" />
<use xlink:href="#f0_29" transform="matrix(12,0,0,12,239.6,1160.1)" />
<use xlink:href="#f0_21" transform="matrix(12,0,0,12,253.4,1160.1)" />
<use xlink:href="#f0_22" transform="matrix(12,0,0,12,263.8,1160.1)" />
<use xlink:href="#f0_1x" transform="matrix(12,0,0,12,269.3,1160.1)" />
<use xlink:href="#f0_29" transform="matrix(12,0,0,12,276.8,1160.1)" />
<use xlink:href="#f0_25" transform="matrix(12,0,0,12,290.6,1160.1)" />
<use xlink:href="#f0_28" transform="matrix(12,0,0,12,295.2,1160.1)" />
<use xlink:href="#f0_25" transform="matrix(12,0,0,12,299.8,1160.1)" />
<use xlink:href="#f0_21" transform="matrix(12,0,0,12,304.3,1160.1)" />
<use xlink:href="#f0_2f" transform="matrix(12,0,0,12,311.9,1160.1)" />
<use xlink:href="#f0_g" transform="matrix(12,0,0,12,318.5,1160.1)" />
<use xlink:href="#f0_22" transform="matrix(12,0,0,12,325.6,1160.1)" />
<use xlink:href="#f0_2b" transform="matrix(12,0,0,12,331.1,1160.1)" />
<use xlink:href="#f0_2e" transform="matrix(12,0,0,12,339.7,1160.1)" />
<use xlink:href="#f0_2j" transform="matrix(12,0,0,12,348.2,1160.1)" />
<use xlink:href="#f0_24" transform="matrix(12,0,0,12,360.8,1160.1)" />
<use xlink:href="#f0_2b" transform="matrix(12,0,0,12,369.4,1160.1)" />
<use xlink:href="#f0_29" transform="matrix(12,0,0,12,378.2,1160.1)" />
<use xlink:href="#f0_2j" transform="matrix(12,0,0,12,394.9,1160.1)" />
<use xlink:href="#f0_1x" transform="matrix(12,0,0,12,407.6,1160.1)" />
<use xlink:href="#f0_2g" transform="matrix(12,0,0,12,415.1,1160.1)" />
<use xlink:href="#f0_21" transform="matrix(12,0,0,12,419.7,1160.1)" />
<use xlink:href="#f0_2e" transform="matrix(12,0,0,12,427.2,1160.1)" />
<use xlink:href="#f0_2j" transform="matrix(12,0,0,12,435.6,1160.1)" />
<use xlink:href="#f0_25" transform="matrix(12,0,0,12,448.3,1160.1)" />
<use xlink:href="#f0_28" transform="matrix(12,0,0,12,452.8,1160.1)" />
<use xlink:href="#f0_28" transform="matrix(12,0,0,12,457.4,1160.1)" />
<use xlink:href="#f0_1y" transform="matrix(12,0,0,12,464.9,1160.1)" />
<use xlink:href="#f0_21" transform="matrix(12,0,0,12,473.6,1160.1)" />
<use xlink:href="#f0_2c" transform="matrix(12,0,0,12,484,1160.1)" />
<use xlink:href="#f0_2e" transform="matrix(12,0,0,12,492.8,1160.1)" />
<use xlink:href="#f0_2b" transform="matrix(12,0,0,12,498.3,1160.1)" />
<use xlink:href="#f0_2i" transform="matrix(12,0,0,12,506.9,1160.1)" />
<use xlink:href="#f0_25" transform="matrix(12,0,0,12,515.5,1160.1)" />
<use xlink:href="#f0_20" transform="matrix(12,0,0,12,520.1,1160.1)" />
<use xlink:href="#f0_21" transform="matrix(12,0,0,12,528.7,1160.1)" />
<use xlink:href="#f0_20" transform="matrix(12,0,0,12,536.3,1160.1)" />
<use xlink:href="#f0_g" transform="matrix(12,0,0,12,544.9,1160.1)" />
<use xlink:href="#f0_2j" transform="matrix(12,0,0,12,552,1160.1)" />
<use xlink:href="#f0_24" transform="matrix(12,0,0,12,564.7,1160.1)" />
<use xlink:href="#f0_1x" transform="matrix(12,0,0,12,573.3,1160.1)" />
<use xlink:href="#f0_2g" transform="matrix(12,0,0,12,580.8,1160.1)" />
<use xlink:href="#f0_27" transform="matrix(12,0,0,12,588.3,1160.1)" />
<use xlink:href="#f0_25" transform="matrix(12,0,0,12,596.9,1160.1)" />
<use xlink:href="#f0_2a" transform="matrix(12,0,0,12,601.7,1160.1)" />
<use xlink:href="#f0_20" transform="matrix(12,0,0,12,610.3,1160.1)" />
<use xlink:href="#f0_2b" transform="matrix(12,0,0,12,621.7,1160.1)" />
<use xlink:href="#f0_22" transform="matrix(12,0,0,12,630.3,1160.1)" />
<use xlink:href="#f0_2i" transform="matrix(12,0,0,12,638.7,1160.1)" />
<use xlink:href="#f0_1x" transform="matrix(12,0,0,12,647.4,1160.1)" />
<use xlink:href="#f0_28" transform="matrix(12,0,0,12,655.1,1160.1)" />
<use xlink:href="#f0_2h" transform="matrix(12,0,0,12,659.6,1160.1)" />
<use xlink:href="#f0_21" transform="matrix(12,0,0,12,668.3,1160.1)" />
<use xlink:href="#f0_25" transform="matrix(12,0,0,12,678.7,1160.1)" />
<use xlink:href="#f0_2f" transform="matrix(12,0,0,12,683.3,1160.1)" />
<use xlink:href="#f0_24" transform="matrix(12,0,0,12,692.8,1160.1)" />
<use xlink:href="#f0_25" transform="matrix(12,0,0,12,701.4,1160.1)" />
<use xlink:href="#f0_20" transform="matrix(12,0,0,12,706.2,1160.1)" />
<use xlink:href="#f0_20" transform="matrix(12,0,0,12,714.8,1160.1)" />
<use xlink:href="#f0_21" transform="matrix(12,0,0,12,723.4,1160.1)" />
<use xlink:href="#f0_2a" transform="matrix(12,0,0,12,731,1160.1)" />
<use xlink:href="#f0_25" transform="matrix(12,0,0,12,742.3,1160.1)" />
<use xlink:href="#f0_2a" transform="matrix(12,0,0,12,746.9,1160.1)" />
<use xlink:href="#f0_2g" transform="matrix(12,0,0,12,758.6,1160.1)" />
<use xlink:href="#f0_24" transform="matrix(12,0,0,12,763.2,1160.1)" />
<use xlink:href="#f0_25" transform="matrix(12,0,0,12,771.8,1160.1)" />
<use xlink:href="#f0_2f" transform="matrix(12,0,0,12,776.4,1160.1)" />
<use xlink:href="#f0_2d" transform="matrix(12,0,0,12,786,1160.1)" />
<use xlink:href="#f0_2h" transform="matrix(12,0,0,12,794.6,1160.1)" />
<use xlink:href="#f0_21" transform="matrix(12,0,0,12,803.2,1160.1)" />
<use xlink:href="#f0_2f" transform="matrix(12,0,0,12,810.9,1160.1)" />
<use xlink:href="#f0_2g" transform="matrix(12,0,0,12,817.5,1160.1)" />
<use xlink:href="#f0_25" transform="matrix(12,0,0,12,822.1,1160.1)" />
<use xlink:href="#f0_2b" transform="matrix(12,0,0,12,826.7,1160.1)" />
<use xlink:href="#f0_2a" transform="matrix(12,0,0,12,835.3,1160.1)" />
<use xlink:href="#f0_z" transform="matrix(12,0,0,12,121.2,1182.1)" />
<use xlink:href="#f5_l" transform="matrix(8,0,0,8,785.4,1264.3)" />
<use xlink:href="#f5_n" transform="matrix(8,0,0,8,792.2,1264.3)" />
</g>
<defs>
<path d="M197,0V27c0,0,71,2,92,13c0,0,21,10,29,29c0,0,9,18,9,109V725c0,0,0,110,-8,141c0,0,-5,24,-19,35c0,0,-14,11,-33,11c0,0,-28,0,-77,-23l-11,23l246,121h25V178c0,0,0,-85,7,-106c0,0,7,-21,29,-32c0,0,23,-11,91,-13V0Z" 
id="f0_l"
transform="scale(0.001,-0.001)" />

<path d="M238,-17c0,0,-103,0,-139,25C99,8,62,33,62,62c0,0,0,22,17,38c0,0,18,16,42,16c0,0,19,0,38,-6c0,0,13,-3,58,-27c0,0,45,-23,62,-28c0,0,27,-8,59,-8c0,0,76,0,132,59c0,0,56,59,56,140c0,0,0,59,-26,115c0,0,-19,41,-42,63c0,0,-32,30,-88,54c0,0,-56,25,-114,25H232v22c0,0,59,8,118,42c0,0,59,35,86,85c0,0,27,49,27,108c0,0,0,76,-48,124c0,0,-48,47,-120,47c0,0,-116,0,-193,-124L77,819c0,0,44,102,110,158c0,0,66,56,164,56c0,0,122,0,187,-80c0,0,49,-58,49,-126c0,0,0,-110,-139,-228c0,0,93,-36,141,-104c0,0,48,-68,48,-160c0,0,0,-131,-84,-227C553,108,444,-17,238,-17Z" 
id="f0_n"
transform="scale(0.001,-0.001)" />

<path d="M394,23c0,0,80,0,129,45c0,0,48,45,48,110c0,0,0,54,-28,97c0,0,-53,79,-214,206c0,0,-62,-52,-92,-114c0,0,-30,-61,-30,-133c0,0,0,-96,53,-154c0,0,52,-57,134,-57Zm17,566c0,0,90,81,114,128c0,0,24,46,24,105c0,0,0,79,-44,123c0,0,-44,45,-121,45c0,0,-76,0,-124,-45c0,0,-48,-44,-48,-103c0,0,0,-38,20,-77c0,0,20,-39,56,-74L411,589ZM382,-17c0,0,-144,0,-225,90c0,0,-64,72,-64,158c0,0,0,67,45,133c0,0,45,66,156,146c0,0,-121,98,-156,158c0,0,-34,59,-34,124c0,0,0,98,76,169c0,0,76,72,202,72c0,0,123,0,198,-67c0,0,74,-66,74,-151c0,0,0,-57,-40,-116c0,0,-40,-59,-168,-139c0,0,132,-101,174,-159c0,0,57,-76,57,-161c0,0,0,-106,-82,-182c0,0,-81,-75,-213,-75Z" 
id="f0_s"
transform="scale(0.001,-0.001)" />

<path d="M0,214v74H784V214ZM0,494v72H784V494Z" 
id="f1_x"
transform="scale(0.001,-0.001)" />

<path d="M52,62L0,114L278,390L0,667l52,52L330,442L608,719l51,-51L382,390L659,114L608,62L330,338L52,62Z" 
id="f1_3a"
transform="scale(0.001,-0.001)" />

<path d="M33,0V27c0,0,264,241,371,393c0,0,108,152,108,278c0,0,0,96,-59,158c0,0,-59,62,-141,62c0,0,-75,0,-134,-43c0,0,-59,-44,-88,-128H63c0,0,18,138,95,212c0,0,77,74,193,74c0,0,123,0,205,-80c0,0,83,-79,83,-186c0,0,0,-77,-36,-154c0,0,-55,-121,-179,-256C424,357,238,154,191,112H455c0,0,81,0,114,6c0,0,32,6,58,25c0,0,27,18,46,52h27L630,0Z" 
id="f0_m"
transform="scale(0.001,-0.001)" />

<path d="M191,-20c0,0,-34,0,-58,24c0,0,-24,24,-24,58c0,0,0,35,24,59c0,0,24,24,58,24c0,0,35,0,59,-24c0,0,24,-25,24,-59c0,0,0,-34,-24,-58c0,0,-25,-24,-59,-24Z" 
id="f0_i"
transform="scale(0.001,-0.001)" />

<path d="M31,0V27H69c0,0,64,0,91,42c0,0,16,24,16,110V833c0,0,0,95,-21,119c0,0,-29,33,-86,33H31v27H488V985c0,0,-1,0,-2,0c-12,0,-81,-1,-111,-15c0,0,-32,-16,-44,-40c0,0,-12,-24,-12,-115V180c0,0,0,-62,12,-85c0,0,9,-16,27,-23c0,0,19,-7,117,-7h74c0,0,116,0,163,17c0,0,48,17,86,61c0,0,39,43,78,138l25,-6L814,0Z" 
id="f0_1c"
transform="scale(0.001,-0.001)" />

<path d="M479,469c0,0,-4,66,-16,93c0,0,-18,42,-55,65c0,0,-37,24,-78,24c0,0,-62,0,-111,-48c0,0,-48,-48,-57,-134ZM355,-20c0,0,-123,0,-211,95c0,0,-87,96,-87,258c0,0,0,175,90,273c0,0,89,98,225,98c0,0,115,0,189,-76c0,0,74,-75,74,-202H162c0,0,0,-152,74,-239c0,0,75,-86,175,-86c0,0,67,0,117,36c0,0,50,37,83,127l24,-15c0,0,-16,-102,-91,-186c0,0,-76,-83,-189,-83Z" 
id="f0_21"
transform="scale(0.001,-0.001)" />

<path d="M255,-10c0,0,-35,0,-68,18c0,0,-32,19,-48,55c0,0,-16,35,-16,109V632H15v24c0,0,41,16,84,56c0,0,43,39,77,92c0,0,17,29,48,104h23V683H407V632H247V188c0,0,0,-66,19,-90c0,0,19,-23,49,-23c0,0,24,0,47,16c0,0,23,15,36,45h29c0,0,-26,-73,-74,-110c0,0,-47,-36,-98,-36Z" 
id="f0_2g"
transform="scale(0.001,-0.001)" />

<path d="M17,774l191,256h95L493,774H440L255,932L69,774Z" 
id="f2_4"
transform="scale(0.001,-0.001)" />

<path d="M452,373V875L97,373ZM452,0V267H23v95l470,671h82V373H711V267H575V0Z" 
id="f0_o"
transform="scale(0.001,-0.001)" />

<path d="M247,-17c0,0,-91,0,-132,30c0,0,-42,31,-42,68c0,0,0,21,17,37c0,0,18,16,44,17c0,0,19,0,34,-6c0,0,14,-7,49,-31c0,0,56,-39,113,-39c0,0,88,0,154,66c0,0,66,66,66,161c0,0,0,92,-59,171c0,0,-59,80,-163,123c0,0,-81,34,-221,39l194,393H663L605,885H301L234,750c0,0,198,-29,313,-147c0,0,100,-102,100,-239c0,0,0,-80,-33,-148c0,0,-32,-68,-81,-116c0,0,-50,-47,-110,-77c0,0,-86,-40,-176,-40Z" 
id="f0_p"
transform="scale(0.001,-0.001)" />

<path d="M82,-253v33c0,0,77,25,119,78c0,0,42,54,42,114c0,0,0,14,-7,23c0,0,-5,6,-11,6c0,0,-8,0,-35,-14c0,0,-14,-7,-28,-7c0,0,-37,0,-58,21C104,1,82,23,82,61c0,0,0,36,28,62c0,0,28,27,68,27c0,0,49,0,88,-43c0,0,38,-43,38,-113c0,0,0,-77,-53,-143c0,0,-53,-66,-169,-104Z" 
id="f0_g"
transform="scale(0.001,-0.001)" />

<path d="M251,69c0,0,93,0,201,118c0,0,131,157,126,322c0,0,0,62,-26,90c0,0,-27,28,-74,28c0,0,-52,0,-110,-44c0,0,-83,-62,-148,-185c0,0,-64,-122,-64,-221c0,0,0,-50,28,-79c0,0,29,-29,67,-29ZM183,-17c0,0,-60,0,-103,44C80,27,36,71,36,149c0,0,0,117,77,247c0,0,77,130,195,208c0,0,92,62,174,62c0,0,49,0,82,-22c0,0,32,-22,49,-73l24,77l115,18L609,160L593,92c0,0,-2,-10,-2,-17c0,0,0,-10,5,-19c0,0,4,-6,11,-6c0,0,6,0,17,11c0,0,21,20,55,88l25,-18c0,0,-43,-75,-89,-112c0,0,-45,-36,-84,-36c0,0,-27,0,-42,16c0,0,-15,15,-15,46c0,0,0,36,17,96l16,55C507,196,399,69,309,19c0,0,-64,-36,-126,-36Z" 
id="f3_1x"
transform="scale(0.001,-0.001)" />

<path d="M145,-17c0,0,-29,0,-48,18C97,1,79,19,79,46c0,0,0,28,20,93L201,475c0,0,24,82,24,103c0,0,0,17,-11,27c0,0,-12,10,-32,10c0,0,-16,0,-68,-8v30l260,42L218,149c0,0,-16,-53,-16,-64c0,0,0,-11,6,-19c0,0,7,-7,15,-7c0,0,11,0,25,12c0,0,39,33,78,95l26,-17C352,149,304,72,238,20c0,0,-49,-37,-93,-37ZM342,825c0,0,-31,0,-53,22c0,0,-22,22,-22,53c0,0,0,31,22,53c0,0,21,22,53,22c0,0,31,0,53,-22c0,0,22,-22,22,-53c0,0,0,-31,-23,-53c0,0,-22,-22,-52,-22Z" 
id="f3_25"
transform="scale(0.001,-0.001)" />

<path d="M-163,-328c0,0,-47,0,-71,21c0,0,-24,22,-24,51c0,0,0,24,18,41c0,0,18,18,42,18c0,0,22,0,38,-15c0,0,13,-11,13,-25c0,0,0,-19,-18,-33c0,0,-10,-8,-10,-14l1,-3c0,0,3,-3,7,-5c0,0,5,-1,14,-1c0,0,60,0,103,38c0,0,42,38,75,153L189,469c0,0,25,85,25,94c0,0,0,18,-16,32c0,0,-16,14,-41,14c0,0,-10,0,-23,-2c0,0,-9,-2,-28,-5v27l256,46L171,8C171,8,120,-170,30,-249c0,0,-89,-79,-193,-79ZM353,819c0,0,-31,0,-53,22c0,0,-22,22,-22,54c0,0,0,31,22,53c0,0,22,22,53,22c0,0,31,0,53,-22c0,0,22,-22,22,-53c0,0,0,-32,-22,-54c0,0,-22,-22,-53,-22Z" 
id="f3_26"
transform="scale(0.001,-0.001)" />

<path d="M457,-17c0,0,-31,0,-48,24c0,0,-30,44,-99,346L206,264L131,0H15L258,852l21,72c0,0,4,19,4,33c0,0,0,17,-14,29c0,0,-13,12,-38,12c0,0,-16,0,-52,-7l-5,26l258,44L224,328l85,73c0,0,140,117,183,173c0,0,13,19,13,29c0,0,0,6,-4,12c0,0,-5,6,-18,10c0,0,-13,4,-46,4H411l8,28H745l-7,-28c0,0,-56,-3,-97,-18c0,0,-40,-14,-79,-43c0,0,-75,-56,-98,-77L399,434c0,0,16,-54,40,-150c0,0,40,-159,54,-189c0,0,14,-29,29,-29c0,0,13,0,30,12c0,0,39,28,83,90l26,-18C661,150,580,47,536,15c0,0,-43,-32,-79,-32Z" 
id="f3_27"
transform="scale(0.001,-0.001)" />

<path d="M296,18c0,0,63,0,130,48c0,0,68,48,118,162c0,0,50,114,50,230c0,0,0,69,-33,108c0,0,-32,38,-76,38c0,0,-66,0,-129,-57c0,0,-63,-58,-91,-157L169,53c0,0,72,-35,127,-35ZM284,-17c0,0,-109,0,-225,84L283,850c0,0,26,90,26,105c0,0,0,20,-12,29c0,0,-17,14,-50,14c0,0,-16,0,-48,-6v29l257,42L310,545c0,0,69,75,120,102c0,0,51,28,107,28c0,0,79,0,129,-55c0,0,51,-54,51,-147c0,0,0,-120,-67,-239C650,234,583,115,483,49c0,0,-101,-66,-199,-66Z" 
id="f3_1y"
transform="scale(0.001,-0.001)" />

<path d="M355,0V355H0v72H355V784h72V427H782V355H427V0Z" 
id="f1_f"
transform="scale(0.001,-0.001)" />

<path d="M0,356v74H784V356Z" 
id="f1_h"
transform="scale(0.001,-0.001)" />

<path d="M413,-106l30,80H0V27H443l-30,80L626,0L413,-106Z" 
id="f2_20"
transform="scale(0.001,-0.001)" />

<path d="M286,72c0,0,57,0,149,75V407c0,0,-113,-45,-145,-64c0,0,-59,-32,-85,-68c0,0,-25,-36,-25,-78c0,0,0,-54,32,-89c0,0,32,-36,74,-36ZM217,-13c0,0,-71,0,-116,48c0,0,-46,48,-46,127c0,0,0,50,22,87c0,0,31,50,106,95c0,0,76,45,252,109v26c0,0,0,102,-32,140c0,0,-32,38,-94,38c0,0,-47,0,-74,-25c0,0,-28,-25,-28,-58l1,-43c0,0,0,-34,-17,-53c0,0,-18,-18,-47,-18c0,0,-28,0,-45,19c0,0,-18,19,-18,53c0,0,0,64,66,117c0,0,65,54,184,54c0,0,91,0,149,-31c0,0,44,-23,65,-72c0,0,13,-32,13,-131V238c0,0,0,-98,4,-120c0,0,4,-22,12,-29c0,0,9,-8,20,-8c0,0,12,0,21,5c0,0,16,10,61,55V99C676,99,592,-12,516,-12c0,0,-37,0,-58,24c0,0,-22,26,-23,86C435,98,330,17,303,5c0,0,-40,-18,-86,-18Z" 
id="f0_1x"
transform="scale(0.001,-0.001)" />

<path d="M21,0V26H35c0,0,53,0,71,27c0,0,18,27,18,101V408c0,0,0,123,-5,150c0,0,-6,27,-17,37c0,0,-12,10,-31,10c0,0,-21,0,-50,-11L10,620l206,83h32V558c0,0,120,145,229,145c0,0,56,0,96,-28c0,0,40,-28,64,-92c0,0,16,-45,16,-137V154c0,0,0,-65,11,-88c0,0,8,-19,26,-29c0,0,18,-11,68,-11V0H419V26h14c0,0,47,0,66,15c0,0,20,15,27,43c0,0,3,11,3,70V434c0,0,0,93,-24,135c0,0,-24,42,-81,42c0,0,-88,0,-176,-97V154c0,0,0,-69,9,-86c0,0,10,-21,28,-31c0,0,19,-11,75,-11V0Z" 
id="f0_2a"
transform="scale(0.001,-0.001)" />

<path d="M399,62c0,0,68,0,131,68V481c0,0,-5,51,-27,93c0,0,-22,42,-59,63c0,0,-37,21,-72,21c0,0,-65,0,-117,-59c0,0,-67,-77,-67,-226c0,0,0,-151,65,-231c0,0,66,-80,146,-80ZM330,-20c0,0,-112,0,-196,93c0,0,-83,94,-83,240c0,0,0,147,92,269c0,0,93,122,238,122c0,0,90,0,149,-58V773c0,0,0,117,-6,144c0,0,-5,27,-17,37c0,0,-12,9,-30,9c0,0,-20,0,-52,-12l-9,27l204,83h33V270c0,0,0,-120,6,-146c0,0,5,-27,18,-37c0,0,12,-11,28,-11c0,0,21,0,54,13l9,-26L564,-20H530V78C530,78,480,25,432,2c0,0,-47,-22,-102,-22Z" 
id="f0_20"
transform="scale(0.001,-0.001)" />

<path d="M269,-17c0,0,-105,0,-165,59c0,0,-59,60,-59,160c0,0,0,114,64,225c0,0,64,110,171,179c0,0,108,69,212,69c0,0,81,0,121,-34c0,0,41,-34,41,-83c0,0,0,-46,-29,-79c0,0,-21,-25,-51,-25c0,0,-24,0,-39,15c0,0,-15,14,-15,37c0,0,0,14,5,26c0,0,6,12,23,29c0,0,18,16,22,24c0,0,4,7,4,15c0,0,0,16,-15,27c0,0,-21,14,-61,14c0,0,-73,0,-144,-51c0,0,-72,-51,-123,-146c0,0,-61,-115,-61,-229c0,0,0,-76,44,-121c0,0,43,-44,117,-44c0,0,58,0,114,29c0,0,56,28,126,104l22,-20C593,163,515,70,436,26c0,0,-79,-43,-167,-43Z" 
id="f3_1z"
transform="scale(0.001,-0.001)" />

<path d="M24,0V27H60c0,0,63,0,91,37c0,0,18,24,18,115V833c0,0,0,77,-10,102c0,0,-7,18,-30,32c0,0,-32,18,-69,18H24v27H776L787,790H761c0,0,-20,71,-45,104c0,0,-26,33,-64,48c0,0,-37,15,-117,15H312V558H497c0,0,63,0,93,28c0,0,29,28,39,111h27V355H629c0,0,-1,59,-16,87c0,0,-14,27,-40,41c0,0,-26,14,-76,14H312V179c0,0,0,-77,10,-102c0,0,7,-18,31,-32c0,0,33,-18,69,-18h37V0Z" 
id="f0_16"
transform="scale(0.001,-0.001)" />

<path d="M55,0V26c0,0,50,0,67,10c0,0,17,10,27,32c0,0,10,23,10,86V418c0,0,0,111,-6,144c0,0,-6,24,-17,33c0,0,-11,10,-30,10c0,0,-21,0,-51,-11L45,620l206,83h33V154c0,0,0,-64,9,-85c0,0,9,-22,27,-32c0,0,19,-11,67,-11V0ZM222,909c0,0,-32,0,-54,23c0,0,-22,22,-22,53c0,0,0,32,22,54c0,0,22,22,54,22c0,0,31,0,53,-22c0,0,22,-22,22,-54c0,0,0,-31,-22,-53c0,0,-22,-23,-53,-23Z" 
id="f0_25"
transform="scale(0.001,-0.001)" />

<path d="M376,-20L133,556c0,0,-17,41,-31,58c0,0,-15,18,-39,30c0,0,-12,7,-50,13v26H335V657H314c0,0,-29,0,-44,-14c0,0,-16,-14,-15,-38c0,0,-1,-26,15,-62L429,165L588,557c0,0,17,42,17,64c0,0,0,10,-6,17c0,0,-8,11,-21,15c0,0,-13,4,-52,4v26H750V657c0,0,-39,-3,-54,-16c0,0,-26,-23,-47,-76L409,-20Z" 
id="f0_2i"
transform="scale(0.001,-0.001)" />

<path d="M342,-20c0,0,-116,0,-203,97c0,0,-86,98,-86,264c0,0,0,161,96,261c0,0,95,101,230,101c0,0,100,0,165,-53c0,0,65,-54,65,-111c0,0,0,-29,-18,-46c0,0,-18,-18,-51,-18c0,0,-44,0,-66,29c0,0,-13,15,-17,59c0,0,-4,45,-30,68c0,0,-26,22,-73,22c0,0,-74,0,-120,-55c0,0,-60,-73,-60,-193c0,0,0,-122,60,-216c0,0,60,-93,162,-93c0,0,73,0,131,49c0,0,41,35,80,126l22,-10C629,261,601,125,521,52c0,0,-81,-72,-179,-72Z" 
id="f0_1z"
transform="scale(0.001,-0.001)" />

<path d="M406,32c0,0,72,0,119,60c0,0,47,59,47,205c0,0,0,181,-78,286c0,0,-53,71,-135,71c0,0,-40,0,-79,-23c0,0,-40,-24,-65,-83c0,0,-24,-58,-24,-151c0,0,0,-149,59,-257c0,0,59,-108,156,-108ZM374,-20c0,0,-154,0,-245,122c0,0,-77,104,-77,233c0,0,0,94,46,187c0,0,47,92,123,137c0,0,76,44,161,44c0,0,155,0,249,-118c0,0,80,-100,80,-231c0,0,0,-91,-44,-185C667,169,623,75,546,27c0,0,-77,-47,-172,-47Z" 
id="f0_2b"
transform="scale(0.001,-0.001)" />

<path d="M17,0V26c0,0,52,0,77,17c0,0,19,12,26,38c0,0,4,13,4,73V419c0,0,0,119,-5,142c0,0,-4,23,-17,33c0,0,-13,11,-33,11c0,0,-23,0,-52,-11l-7,26l207,83h31V549c0,0,86,154,176,154c0,0,41,0,68,-25c0,0,27,-25,27,-58c0,0,0,-29,-20,-49c0,0,-19,-20,-46,-20c0,0,-26,0,-58,25c0,0,-33,26,-48,26c0,0,-14,0,-29,-15c0,0,-34,-30,-70,-101V159c0,0,0,-56,15,-85c0,0,9,-20,34,-34c0,0,24,-14,71,-14V0Z" 
id="f0_2e"
transform="scale(0.001,-0.001)" />

<path d="M252,70c0,0,90,0,212,168c0,0,123,168,123,294c0,0,0,47,-30,76c0,0,-30,30,-77,30c0,0,-103,0,-214,-156C266,482,155,327,155,185c0,0,0,-56,28,-85c0,0,29,-30,69,-30ZM185,-17c0,0,-63,0,-109,50C76,33,29,83,29,169c0,0,0,111,77,237c0,0,77,126,203,205c0,0,99,64,182,64c0,0,44,0,75,-17c0,0,32,-16,62,-54l71,247c0,0,11,40,18,64c0,0,9,31,9,50c0,0,0,16,-11,27c0,0,-16,13,-40,13c0,0,-17,0,-57,-6v27l255,42L615,170c0,0,-21,-73,-21,-95c0,0,0,-7,4,-13c0,0,4,-6,8,-6c0,0,7,0,16,9c0,0,16,16,56,88l25,-16c0,0,-43,-73,-88,-114c0,0,-44,-40,-83,-40c0,0,-20,0,-35,17c0,0,-16,18,-16,51c0,0,0,42,22,114l29,94C532,259,413,91,315,27c0,0,-68,-44,-130,-44Z" 
id="f3_20"
transform="scale(0.001,-0.001)" />

<path d="M0,-26V27H626V-26Z" 
id="f2_23"
transform="scale(0.001,-0.001)" />

<path d="M336,-20L117,554c0,0,-21,55,-42,74c0,0,-21,19,-66,29v26H296V657c0,0,-40,-3,-52,-14c0,0,-13,-12,-13,-33c0,0,0,-23,13,-56L390,162L537,481L498,581c0,0,-18,46,-47,63c0,0,-17,11,-61,13v26H716V657c0,0,-54,-2,-77,-20c0,0,-15,-12,-15,-39c0,0,0,-15,6,-30L785,177L929,554c0,0,15,40,15,65c0,0,0,14,-15,25c0,0,-14,12,-57,13v26h216V657c0,0,-65,-10,-95,-89L764,-20H733L563,415L363,-20Z" 
id="f0_2j"
transform="scale(0.001,-0.001)" />

<path d="M20,0V26c0,0,45,0,71,15c0,0,15,7,24,28c0,0,9,21,9,85V773c0,0,0,117,-5,144c0,0,-6,27,-17,37c0,0,-12,9,-31,9c0,0,-16,0,-51,-12L10,978l204,83h34V561c0,0,83,91,131,116c0,0,49,26,97,26c0,0,58,0,100,-32c0,0,42,-32,62,-101c0,0,14,-47,14,-174V154c0,0,0,-65,11,-89c0,0,7,-18,25,-28c0,0,18,-11,66,-11V0H418V26h15c0,0,48,0,67,15c0,0,18,15,26,43c0,0,2,12,2,70V396c0,0,0,112,-12,147c0,0,-11,35,-36,53c0,0,-26,17,-61,17c0,0,-37,0,-76,-19c0,0,-40,-20,-95,-79V154c0,0,0,-70,8,-87c0,0,8,-17,29,-29c0,0,22,-12,74,-12V0Z" 
id="f0_24"
transform="scale(0.001,-0.001)" />

<path d="M312,-20c0,0,-62,0,-143,22c0,0,-25,8,-40,8c0,0,-18,0,-27,-19H77V234h25c0,0,21,-105,80,-158c0,0,59,-53,132,-53c0,0,51,0,84,31c0,0,32,30,32,72c0,0,0,52,-36,87c0,0,-36,35,-144,88c0,0,-109,54,-142,97c0,0,-34,43,-34,107c0,0,0,85,58,141c0,0,58,57,150,57c0,0,40,0,97,-17c0,0,38,-11,51,-11c0,0,12,0,19,5c0,0,7,5,15,23h25V470H464c0,0,-28,110,-72,149c0,0,-45,40,-113,40c0,0,-53,0,-85,-28c0,0,-32,-27,-32,-61c0,0,0,-41,24,-71c0,0,23,-31,94,-65L389,381c0,0,152,-74,152,-194c0,0,0,-94,-71,-151c0,0,-70,-56,-158,-56Z" 
id="f0_2f"
transform="scale(0.001,-0.001)" />

<path d="M398,24c0,0,74,0,120,58c0,0,61,76,61,214c0,0,0,156,-69,240c0,0,-47,59,-113,59c0,0,-36,0,-71,-18c0,0,-27,-14,-88,-81V242c0,0,0,-83,6,-109c0,0,11,-43,51,-76c0,0,41,-33,103,-33ZM-4,-326v27H15c5,0,42,0,69,16c0,0,14,8,22,26c0,0,7,19,7,94V481c0,0,0,67,-6,85c0,0,-5,18,-18,27c0,0,-13,9,-36,9c0,0,-18,0,-45,-10L0,615l209,85h29V540c0,0,53,91,106,127c0,0,53,36,112,36c0,0,103,0,172,-80c0,0,84,-99,84,-257c0,0,0,-176,-102,-292c0,0,-83,-94,-210,-94c0,0,-55,0,-95,16c0,0,-30,10,-67,44V-167c0,0,0,-71,8,-90c0,0,9,-20,30,-31c0,0,21,-11,77,-11v-27Z" 
id="f0_2c"
transform="scale(0.001,-0.001)" />

<path d="M292,-20c0,0,-57,0,-100,33c0,0,-42,33,-58,85c0,0,-17,52,-17,148V551c0,0,0,49,-10,68c0,0,-11,18,-31,29c0,0,-19,9,-68,9c-2,0,-4,0,-6,0v26H242V226c0,0,0,-95,33,-125c0,0,33,-30,80,-30c0,0,32,0,73,21c0,0,40,20,96,76V555c0,0,0,59,-21,80c0,0,-22,21,-89,22v26H647V269c0,0,0,-119,6,-145c0,0,6,-27,18,-37c0,0,12,-11,29,-11c0,0,23,0,52,13L763,63L558,-20H524V124C524,124,436,29,390,4c0,0,-47,-24,-98,-24Z" 
id="f0_2h"
transform="scale(0.001,-0.001)" />

<path d="M58,0V26c0,0,47,0,64,10c0,0,18,10,28,32c0,0,9,23,9,86V775c0,0,0,116,-5,142c0,0,-5,27,-17,37c0,0,-11,9,-29,9c0,0,-20,0,-49,-12L46,978l204,83h34V154c0,0,0,-64,9,-85c0,0,9,-21,29,-32c0,0,19,-11,72,-11V0Z" 
id="f0_28"
transform="scale(0.001,-0.001)" />

<path d="M397,34c0,0,67,0,126,75c0,0,58,74,58,216c0,0,0,131,-58,201c0,0,-59,70,-133,70c0,0,-39,0,-79,-20c0,0,-29,-14,-75,-59V109c0,0,37,-37,78,-56c0,0,40,-19,83,-19ZM358,-20c0,0,-59,0,-121,21c0,0,-61,22,-126,65V773c0,0,0,117,-5,144c0,0,-6,27,-18,37c0,0,-12,9,-29,9c0,0,-21,0,-53,-12l-9,27l205,83h34V564c0,0,98,139,213,139c0,0,105,0,183,-90c0,0,78,-90,78,-245c0,0,0,-182,-121,-293c0,0,-103,-95,-231,-95Z" 
id="f0_1y"
transform="scale(0.001,-0.001)" />

<path d="M83,308c0,0,-35,0,-59,24c0,0,-24,24,-24,59c0,0,0,34,24,58c0,0,24,24,59,24c0,0,33,0,58,-24c0,0,24,-24,24,-58c0,0,0,-35,-24,-59c0,0,-25,-24,-58,-24Z" 
id="f1_49"
transform="scale(0.001,-0.001)" />

<path d="M107,-21V325h27c0,0,19,-109,52,-163c0,0,33,-54,100,-90c0,0,68,-36,148,-36c0,0,93,0,148,49c0,0,54,50,54,117c0,0,0,37,-21,75c0,0,-20,38,-64,71c0,0,-29,22,-159,95c0,0,-130,72,-185,115c0,0,-55,44,-83,96c0,0,-28,52,-28,114c0,0,0,109,83,188c0,0,84,78,213,78c0,0,81,0,171,-39c0,0,42,-19,59,-19c0,0,20,0,32,11c0,0,12,12,20,47h27V684H674c0,0,-14,101,-48,161c0,0,-35,60,-100,95c0,0,-64,35,-133,35c0,0,-77,0,-128,-47c0,0,-51,-48,-51,-108c0,0,0,-46,32,-84c0,0,47,-56,221,-149c0,0,142,-76,194,-117c0,0,51,-41,80,-96c0,0,28,-55,28,-115c0,0,0,-115,-90,-198c0,0,-89,-82,-229,-82c0,0,-44,0,-83,6c0,0,-23,4,-95,27c0,0,-73,24,-93,24c0,0,-18,0,-29,-11c0,0,-11,-12,-16,-46Z" 
id="f0_1j"
transform="scale(0.001,-0.001)" />

<path d="M213,-20c0,0,-34,0,-58,24c0,0,-24,24,-24,58c0,0,0,34,24,58c0,0,24,25,58,25c0,0,35,0,59,-25c0,0,24,-24,24,-58c0,0,0,-34,-24,-58c0,0,-25,-24,-59,-24Zm3,559c0,0,-35,0,-59,24c0,0,-24,24,-24,58c0,0,0,35,24,59c0,0,24,24,59,24c0,0,34,0,58,-24c0,0,24,-24,24,-59c0,0,0,-34,-24,-58c0,0,-24,-24,-58,-24Z" 
id="f0_u"
transform="scale(0.001,-0.001)" />

<path d="M63,0V26H93c0,0,30,0,54,15c0,0,25,15,34,41c0,0,10,25,10,99V630H58v53H191v45c0,0,0,102,33,173c0,0,32,71,100,114c0,0,68,44,152,44c0,0,79,0,145,-51c0,0,43,-33,43,-75c0,0,0,-22,-19,-42c0,0,-20,-20,-42,-20c0,0,-17,0,-36,12c0,0,-19,13,-47,53c0,0,-28,41,-51,55c0,0,-23,14,-51,14c0,0,-35,0,-58,-18c0,0,-24,-18,-35,-57c0,0,-10,-38,-10,-197V683H491V630H315V181c0,0,0,-96,21,-122c0,0,27,-33,73,-33h62V0Z" 
id="f0_22"
transform="scale(0.001,-0.001)" />

<path d="M474,-326c0,0,-112,57,-188,133c0,0,-107,108,-165,254c0,0,-58,147,-58,305c0,0,0,231,114,421c0,0,114,191,297,273v-31c0,0,-92,-51,-151,-139c0,0,-59,-88,-88,-223c0,0,-30,-135,-30,-281c0,0,0,-160,25,-290c0,0,20,-102,47,-164c0,0,28,-62,75,-120c0,0,47,-57,122,-109v-29Z" 
id="f0_c"
transform="scale(0.001,-0.001)" />

<path d="M35,-326v29c0,0,92,51,151,139c0,0,60,87,89,221c0,0,28,136,28,282c0,0,0,159,-24,290c0,0,-19,103,-47,165c0,0,-28,62,-75,119c0,0,-46,57,-122,110v31c0,0,113,-56,188,-132c0,0,107,-109,165,-255c0,0,58,-147,58,-306c0,0,0,-231,-114,-420c0,0,-113,-191,-297,-273Z" 
id="f0_d"
transform="scale(0.001,-0.001)" />

<path d="M620,-14c0,0,-52,0,-93,43c0,0,-41,45,-77,203L384,522L132,0H0L340,703l-12,66c0,0,-23,107,-61,146c0,0,-37,38,-83,38c0,0,-42,0,-74,-30c0,0,-31,-31,-41,-100H43c0,0,2,117,57,187c0,0,40,51,96,51c0,0,50,0,86,-40c0,0,54,-60,88,-213L489,283c0,0,27,-118,62,-153c0,0,33,-36,79,-36c0,0,43,0,71,29c0,0,28,29,33,94h30c0,0,1,-19,1,-29c0,0,0,-98,-49,-158c0,0,-37,-44,-96,-44Z" 
id="f4_28"
transform="scale(0.001,-0.001)" />

<path d="M83,0C83,0,48,0,24,24C24,24,0,49,0,83c0,0,0,34,24,58c0,0,24,24,59,24c0,0,34,0,58,-24c0,0,24,-24,24,-58c0,0,0,-34,-24,-59C141,24,117,0,83,0ZM695,0c0,0,-34,0,-58,24c0,0,-25,25,-25,59c0,0,0,34,25,58c0,0,24,24,58,24c0,0,34,0,58,-24c0,0,24,-24,24,-58c0,0,0,-34,-24,-59C753,24,729,0,695,0ZM388,594c0,0,-34,0,-59,23c0,0,-24,24,-24,59c0,0,0,34,24,58c0,0,25,25,59,25c0,0,34,0,58,-25c0,0,24,-24,24,-58c0,0,0,-35,-24,-59c0,0,-24,-23,-58,-23Z" 
id="f1_1s"
transform="scale(0.001,-0.001)" />

<path d="M417,-328c0,0,-125,17,-203,101c0,0,-78,83,-78,189c0,0,0,49,17,120c0,0,17,72,17,108c0,0,0,55,-42,100c0,0,-42,45,-128,61v29c0,0,80,15,125,59c0,0,44,45,44,98c0,0,0,39,-17,110c0,0,-18,71,-18,122c0,0,0,105,79,191c0,0,79,85,203,100v-28c0,0,-85,-15,-129,-65c0,0,-45,-49,-45,-114c0,0,0,-45,15,-117c0,0,15,-72,15,-120c0,0,0,-74,-53,-142c0,0,-53,-68,-158,-106c0,0,107,-44,160,-111c0,0,52,-67,52,-141c0,0,0,-45,-15,-117c0,0,-15,-73,-15,-117c0,0,0,-64,43,-113c0,0,42,-49,131,-71v-26Z" 
id="f1_2n"
transform="scale(0.001,-0.001)" />

<path d="M160,-328v29c0,0,85,15,129,64c0,0,44,48,44,114c0,0,0,45,-14,117c0,0,-15,71,-15,120c0,0,0,73,53,142c0,0,53,68,158,106c0,0,-108,43,-160,110c0,0,-52,67,-52,141c0,0,0,45,15,118c0,0,14,73,14,117c0,0,0,64,-42,113c0,0,-42,49,-131,71v26c0,0,125,-17,203,-101c0,0,78,-84,78,-188c0,0,0,-50,-17,-122c0,0,-17,-72,-17,-109c0,0,0,-54,42,-99c0,0,41,-45,128,-61V351c0,0,-81,-14,-125,-59c0,0,-44,-45,-44,-97c0,0,0,-39,17,-111c0,0,18,-71,18,-121c0,0,0,-105,-79,-190c0,0,-79,-86,-203,-101Z" 
id="f1_2p"
transform="scale(0.001,-0.001)" />

<path d="M405,24c0,0,65,0,116,62c0,0,51,61,51,174c0,0,0,128,-50,221c0,0,-51,93,-144,93c0,0,-29,0,-61,-12c0,0,-33,-12,-96,-51c0,0,-14,-101,-14,-163c0,0,0,-72,27,-155c0,0,26,-84,79,-134c0,0,38,-35,92,-35ZM384,-17c0,0,-104,0,-177,68C207,51,66,185,66,397c0,0,0,136,54,258c0,0,54,122,156,217c0,0,101,95,193,128c0,0,93,33,172,33h44v-28c0,0,-99,-10,-161,-39c0,0,-62,-29,-123,-90c0,0,-61,-60,-101,-135c0,0,-39,-74,-66,-176c0,0,107,73,215,73c0,0,104,0,180,-83c0,0,76,-84,76,-215c0,0,0,-126,-77,-231c0,0,-92,-126,-244,-126Z" 
id="f0_q"
transform="scale(0.001,-0.001)" />

<path d="M613,-21c0,0,-293,0,-445,186C168,165,54,306,54,490c0,0,0,134,64,256c0,0,76,145,209,224c0,0,111,64,262,64c0,0,55,0,100,-9c0,0,45,-9,128,-39c0,0,42,-16,56,-16c0,0,14,0,24,13c0,0,10,13,12,51h28L963,715H937c0,0,-40,119,-102,179c0,0,-91,88,-232,88c0,0,-193,0,-294,-153c0,0,-84,-129,-84,-307c0,0,0,-144,56,-263c0,0,56,-120,146,-175c0,0,91,-56,186,-56c0,0,56,0,109,15c0,0,52,14,100,41V376c0,0,0,77,-11,101c0,0,-12,23,-36,36c0,0,-24,12,-86,12v27h392V525h-18c0,0,-58,0,-80,-39c0,0,-15,-28,-15,-110V67C968,67,882,21,799,0c0,0,-84,-21,-186,-21Z" 
id="f0_17"
transform="scale(0.001,-0.001)" />

<path d="M412,-328c0,0,-195,96,-303,284C109,-44,0,142,0,365c0,0,0,232,114,422c0,0,114,191,298,273v-31c0,0,-92,-51,-151,-139c0,0,-59,-88,-88,-223c0,0,-29,-136,-29,-282c0,0,0,-167,27,-301c0,0,26,-133,82,-221c0,0,55,-89,159,-159v-32Z" 
id="f1_c"
transform="scale(0.001,-0.001)" />

<path d="M34,-328v32c0,0,92,50,151,138c0,0,59,88,88,222c0,0,29,135,29,283c0,0,0,165,-27,300c0,0,-26,134,-82,222c0,0,-56,89,-159,160v31c0,0,194,-96,303,-284c0,0,108,-187,108,-410c0,0,0,-232,-114,-422c0,0,-114,-191,-297,-272Z" 
id="f1_d"
transform="scale(0.001,-0.001)" />

<path d="M379,29c0,0,41,0,84,37c0,0,43,36,65,121c0,0,34,128,34,362c0,0,0,173,-35,288c0,0,-27,86,-69,122c0,0,-31,25,-74,25c0,0,-51,0,-90,-46c0,0,-54,-62,-73,-195c0,0,-20,-132,-20,-261c0,0,0,-209,52,-341c0,0,42,-112,126,-112Zm-2,-46c0,0,-145,0,-241,170c0,0,-81,144,-81,347c0,0,0,173,52,298c0,0,52,125,139,186c0,0,67,49,139,49c0,0,116,0,208,-119c0,0,116,-147,116,-398c0,0,0,-176,-51,-299C658,217,608,94,529,38c0,0,-79,-55,-152,-55Z" 
id="f0_k"
transform="scale(0.001,-0.001)" />

<path d="M62,-123V268c0,0,0,230,56,452c0,0,47,190,134,334c0,0,87,144,204,242c0,0,85,73,194,119l18,-16c0,0,-211,-145,-335,-339c0,0,-98,-156,-149,-374c0,0,-50,-218,-50,-403V-123Z" 
id="f1_4o"
transform="scale(0.001,-0.001)" />

<path d="M617,-123V283c0,0,0,236,-63,459c0,0,-63,223,-188,392c0,0,-108,146,-282,265l17,16c0,0,180,-76,320,-248c0,0,139,-172,204,-417c0,0,64,-245,64,-482V-123Z" 
id="f1_54"
transform="scale(0.001,-0.001)" />

<path d="M62,-123V1415h72V-123Z" 
id="f1_4p"
transform="scale(0.001,-0.001)" />

<path d="M617,-123V1415h72V-123Z" 
id="f1_55"
transform="scale(0.001,-0.001)" />

<path d="M650,-123c0,0,-180,75,-319,246c0,0,-140,172,-205,418c0,0,-64,245,-64,481v393h72V1007c0,0,0,-236,63,-459c0,0,63,-223,189,-391c0,0,108,-145,282,-265l-18,-15Z" 
id="f1_4q"
transform="scale(0.001,-0.001)" />

<path d="M101,-123l-17,15c0,0,210,144,334,339c0,0,99,156,149,373c0,0,50,218,50,403v408h72V1022c0,0,0,-230,-56,-451c0,0,-48,-191,-134,-335C499,236,412,92,295,-5c0,0,-84,-73,-194,-118Z" 
id="f1_56"
transform="scale(0.001,-0.001)" />

<path d="M678,393L506,802L330,393ZM11,0V27c0,0,63,12,82,30c0,0,38,35,84,145l356,832h27L912,193c0,0,43,-101,77,-132c0,0,35,-30,97,-34V0H687V27c0,0,60,3,82,21c0,0,21,17,21,41c0,0,0,33,-30,104L700,338H307L239,179c0,0,-26,-59,-26,-88c0,0,0,-23,22,-41c0,0,22,-17,95,-23V0Z" 
id="f0_11"
transform="scale(0.001,-0.001)" />

<path d="M13,0V26c0,0,52,0,78,13c0,0,16,8,24,25c0,0,11,25,11,86V773c0,0,0,118,-5,145c0,0,-5,26,-17,36c0,0,-12,10,-32,10c0,0,-15,0,-47,-13L13,978l203,83h34V381L424,540c0,0,55,50,64,64c0,0,6,9,6,18c0,0,0,15,-12,26c0,0,-13,11,-41,12v23H738V660c0,0,-61,-2,-102,-19c0,0,-40,-17,-89,-62L372,418L547,196c0,0,73,-92,98,-117c0,0,36,-35,63,-45c0,0,18,-8,65,-8V0H441V26c0,0,28,1,38,9c0,0,10,8,10,22c0,0,0,17,-29,56L250,381V154c0,0,0,-67,10,-88c0,0,9,-21,26,-30c0,0,17,-9,75,-10V0Z" 
id="f0_27"
transform="scale(0.001,-0.001)" />

<path d="M384,85c0,0,44,0,78,19c0,0,35,19,68,62V487c0,0,0,55,-15,87c0,0,-14,33,-51,55c0,0,-38,22,-85,22c0,0,-84,0,-143,-71c0,0,-60,-70,-60,-214c0,0,0,-138,61,-209c0,0,61,-72,147,-72Zm35,-411v27h15c0,0,41,0,63,12c0,0,15,8,24,30c0,0,9,21,9,83V119C530,119,462,39,411,9c0,0,-50,-29,-105,-29c0,0,-99,0,-177,90c0,0,-78,90,-78,241c0,0,0,174,103,283c0,0,103,109,248,109c0,0,43,0,78,-12c0,0,36,-12,65,-35c0,0,43,20,83,47h25V-174c0,0,0,-66,9,-85c0,0,9,-19,28,-30c0,0,19,-10,74,-10v-27Z" 
id="f0_2d"
transform="scale(0.001,-0.001)" />

<path d="M23,0V26c0,0,47,0,66,10c0,0,19,11,28,33c0,0,10,22,10,85V416c0,0,0,112,-7,145c0,0,-5,25,-16,34c0,0,-11,10,-31,10c0,0,-21,0,-50,-11L12,620l207,83h32V557c0,0,75,75,88,86c0,0,34,29,72,44c0,0,39,16,77,16c0,0,64,0,110,-37c0,0,47,-38,62,-109c0,0,77,90,130,118c0,0,53,28,109,28c0,0,54,0,96,-28c0,0,42,-28,67,-91c0,0,16,-43,16,-136V154c0,0,0,-64,10,-88c0,0,8,-16,28,-28c0,0,20,-12,65,-12V0H844V26h14c0,0,44,0,69,18c0,0,17,12,24,38c0,0,3,13,3,72V448c0,0,0,83,-20,117c0,0,-29,48,-93,48c0,0,-39,0,-79,-20c0,0,-40,-19,-97,-73l-1,-8l2,-32V154c0,0,0,-70,8,-87c0,0,7,-17,29,-29c0,0,21,-12,73,-12V0H431V26c0,0,57,0,78,14c0,0,21,13,29,40c0,0,4,13,4,74V448c0,0,0,83,-25,120c0,0,-33,48,-91,48c0,0,-40,0,-80,-22c0,0,-61,-33,-95,-74V154c0,0,0,-67,10,-87c0,0,9,-20,27,-30c0,0,18,-11,74,-11V0Z" 
id="f0_29"
transform="scale(0.001,-0.001)" />

<path d="M411,-239c0,0,134,0,198,48c0,0,64,47,64,100c0,0,0,39,-38,55c0,0,-39,16,-154,19c0,0,-167,5,-258,17c0,0,-35,-37,-53,-70c0,0,-17,-32,-17,-60c0,0,0,-36,43,-62c0,0,74,-47,215,-47ZM380,257c0,0,56,0,93,43c0,0,36,42,36,133c0,0,0,118,-51,185c0,0,-38,49,-98,49c0,0,-55,0,-92,-44c0,0,-37,-44,-37,-135c0,0,0,-117,50,-182c0,0,39,-49,99,-49ZM345,-328c0,0,-144,0,-243,64c0,0,-56,38,-56,78c0,0,0,18,8,36c0,0,13,27,52,76c0,0,5,7,76,80c0,0,-39,23,-55,41c0,0,-16,19,-16,42c0,0,0,26,22,61c0,0,21,35,98,100c0,0,-63,30,-97,85c0,0,-33,55,-33,121c0,0,0,101,76,174c0,0,77,73,196,73c0,0,98,0,170,-48H688c0,0,32,0,37,-2c0,0,6,-2,8,-6c0,0,4,-7,4,-24c0,0,0,-20,-4,-27c0,0,-2,-4,-7,-6c0,0,-6,-2,-38,-2H599c0,0,41,-54,41,-137c0,0,0,-96,-73,-163c0,0,-73,-68,-196,-68c0,0,-51,0,-104,15c0,0,-33,-28,-44,-49c0,0,-12,-22,-12,-37c0,0,0,-12,13,-24c0,0,12,-12,48,-17c0,0,21,-4,104,-6c0,0,154,-4,199,-11c0,0,70,-10,111,-51c0,0,42,-41,42,-102c0,0,0,-84,-79,-158c0,0,-117,-108,-304,-108Z" 
id="f0_23"
transform="scale(0.001,-0.001)" />

<path d="M145,-328c0,0,-44,0,-73,25c0,0,-28,25,-28,58c0,0,0,31,21,50c0,0,20,19,56,19c0,0,25,0,67,-16c0,0,30,-11,38,-11c0,0,22,0,49,23c0,0,26,23,53,89L376,28L131,542c0,0,-11,24,-36,58c0,0,-19,27,-30,36c0,0,-18,12,-56,21v26H328V657H312c0,0,-33,0,-50,-15c0,0,-17,-14,-17,-36c0,0,0,-30,25,-81L437,179L589,557c0,0,12,31,12,62c0,0,0,13,-5,20c0,0,-6,8,-19,13c0,0,-12,5,-44,5v26H754V657c0,0,-27,-3,-42,-12c0,0,-15,-9,-33,-34c0,0,-7,-10,-25,-58L376,-128c0,0,-40,-99,-105,-150c0,0,-66,-50,-126,-50Z" 
id="f0_2l"
transform="scale(0.001,-0.001)" />

<path d="M38,0V27H74c0,0,63,0,91,37c0,0,18,24,18,115V833c0,0,0,77,-10,102c0,0,-7,18,-30,32c0,0,-33,18,-69,18H38v27H470V985H434c0,0,-62,0,-90,-37c0,0,-18,-24,-18,-115V179c0,0,0,-77,9,-102c0,0,8,-18,31,-32c0,0,32,-18,68,-18h36V0Z" 
id="f0_19"
transform="scale(0.001,-0.001)" />

<path d="M328,-20c0,0,-34,0,-58,24c0,0,-25,24,-25,58c0,0,0,35,25,59c0,0,24,24,58,24c0,0,34,0,59,-24c0,0,24,-24,24,-59c0,0,0,-34,-25,-58c0,0,-24,-24,-58,-24ZM308,238c0,0,5,94,23,155c0,0,18,62,76,172c0,0,44,84,58,129c0,0,13,46,13,92c0,0,0,95,-50,150c0,0,-50,56,-123,56c0,0,-65,0,-102,-30c0,0,-38,-31,-38,-67c0,0,0,-27,23,-67c0,0,22,-41,22,-62c0,0,0,-26,-17,-45c0,0,-17,-18,-42,-18c0,0,-31,0,-57,31c0,0,-26,31,-26,86c0,0,0,85,73,150c0,0,72,64,196,64c0,0,153,0,225,-89c0,0,54,-66,54,-146c0,0,0,-54,-24,-112c0,0,-25,-57,-92,-135C500,552,391,430,367,378c0,0,-24,-51,-29,-140Z" 
id="f0_z"
transform="scale(0.001,-0.001)" />

<path d="M435,0V856c0,0,-48,-47,-127,-93c0,0,-79,-46,-142,-69V824c0,0,113,52,197,128c0,0,85,75,120,146h86V0Z" 
id="f5_l"
transform="scale(0.001,-0.001)" />

<path d="M412,-18c0,0,-144,0,-239,85c0,0,-95,86,-108,222l133,18c0,0,24,-114,79,-164c0,0,55,-50,135,-50c0,0,96,0,161,65c0,0,65,66,65,163c0,0,0,92,-61,152c0,0,-60,60,-153,60c0,0,-38,0,-95,-15l15,119c0,0,13,-2,21,-2c0,0,86,0,155,45c0,0,69,44,69,137c0,0,0,74,-50,122c0,0,-50,49,-129,49c0,0,-79,0,-131,-50c0,0,-52,-49,-67,-147L78,815c0,0,25,135,112,209c0,0,87,74,217,74c0,0,89,0,164,-38c0,0,76,-39,116,-105c0,0,40,-66,40,-141c0,0,0,-70,-39,-129c0,0,-38,-58,-112,-92c0,0,97,-22,151,-93c0,0,53,-70,53,-176c0,0,0,-143,-104,-243c0,0,-105,-99,-264,-99Z" 
id="f5_n"
transform="scale(0.001,-0.001)" />


</defs>
</svg>