<?xml version="1.0" encoding="UTF-8" standalone="no"?>
<!DOCTYPE svg PUBLIC "-//W3C//DTD SVG 1.1//EN"
"http://www.w3.org/Graphics/SVG/1.1/DTD/svg11.dtd">
<svg viewBox="0 0 909 1286" version="1.1" xmlns="http://www.w3.org/2000/svg" xmlns:xlink="http://www.w3.org/1999/xlink">
<defs>
<clipPath id="c0_111"><path d="M55.2,444.6V396.5H259.3v48.1Z" /></clipPath>
<clipPath id="c1_111"><path d="M125.9,493V445H443.7v48Z" /></clipPath>
<clipPath id="c2_111"><path d="M99.6,550.2V516.3H232v33.9Z" /></clipPath>
<clipPath id="c3_111"><path d="M270.1,550.2V516.3h46.2v33.9Z" /></clipPath>
<clipPath id="c4_111"><path d="M329.8,550.2V516.3h81.5v33.9Z" /></clipPath>
<clipPath id="c5_111"><path d="M55.2,611.8V573.2H307v38.6Z" /></clipPath>
<clipPath id="c6_111"><path d="M55.2,650.6V612.1H295.9v38.5Z" /></clipPath>
<clipPath id="c7_111"><path d="M55.2,689.5V650.9H446.5v38.6Z" /></clipPath>
<clipPath id="c8_111"><path d="M55.2,728.8V690.2H308.1v38.6Z" /></clipPath>
<clipPath id="c9_111"><path d="M55.2,826.3V774.6H203.7v51.7Z" /></clipPath>
<clipPath id="c10_111"><path d="M224.6,897.8v-48H572.9v48Z" /></clipPath>
<clipPath id="c11_111"><path d="M97.4,946.9v-25H401.2v25Z" /></clipPath>
<clipPath id="c12_111"><path d="M55.2,968.9V953.4H73.5v15.5Z" /></clipPath>
<clipPath id="c13_111"><path d="M191.6,1011.4V969.9H476.8v41.5Z" /></clipPath>
<clipPath id="c14_111"><path d="M125.6,1072.7v-37.5H242.5v37.5Z" /></clipPath>
<clipPath id="c15_111"><path d="M275.6,1066.4v-29.7h64.1v29.7Z" /></clipPath>
<clipPath id="c16_111"><path d="M72.1,1148.6v-52.8H273.3v52.8Z" /></clipPath>
<style type="text/css"><![CDATA[
.g0_111{
fill: #D9D9D9;
}
.g1_111{
fill: none;
stroke: #000000;
stroke-width: 0.7638889;
stroke-linecap: butt;
stroke-linejoin: miter;
}
.g2_111{
fill: none;
stroke: #000000;
stroke-width: 0.90592307;
stroke-linecap: butt;
stroke-linejoin: round;
}
.g3_111{
fill: none;
stroke: #000000;
stroke-width: 0.9111897;
stroke-linecap: butt;
stroke-linejoin: round;
}
.g4_111{
fill: none;
stroke: #000000;
stroke-width: 0.8989737;
stroke-linecap: butt;
stroke-linejoin: round;
}
.g5_111{
fill: none;
stroke: #000000;
stroke-width: 0.9072622;
stroke-linecap: butt;
stroke-linejoin: round;
}
.g6_111{
fill: none;
stroke: #000000;
stroke-width: 0.21237396;
stroke-linecap: square;
stroke-linejoin: round;
}
.g7_111{
}
.g8_111{
fill: none;
stroke: #000000;
stroke-width: 0.9068003;
stroke-linecap: butt;
stroke-linejoin: round;
}
]]></style>
</defs>
<image preserveAspectRatio="none" x="747" y="1196" width="96" height="59" xlink:href="img/1.png" />
<image preserveAspectRatio="none" x="336" y="41" width="259" height="51" xlink:href="img/2.png" />
<image preserveAspectRatio="none" x="342" y="50" width="247" height="27" xlink:href="img/3.png" />
<image preserveAspectRatio="none" x="341" y="45" width="239" height="42" xlink:href="img/4.png" />
<g fill="#FFFFFF" >
<use xlink:href="#f0_j" transform="matrix(11.5,0,0,11.5,355.1,70.1)" />
<use xlink:href="#f0_i" transform="matrix(11.5,0,0,11.5,364.3,70.1)" />
<use xlink:href="#f0_2n" transform="matrix(11.5,0,0,11.5,374.1,70.1)" />
<use xlink:href="#f0_t" transform="matrix(11.5,0,0,11.5,382.6,70.1)" />
<use xlink:href="#f0_oj" transform="matrix(11.5,0,0,11.5,391,70.1)" />
<use xlink:href="#f0_3e" transform="matrix(11.5,0,0,11.5,396.5,70.1)" />
<use xlink:href="#f0_1c" transform="matrix(11.5,0,0,11.5,406.1,70.1)" />
<use xlink:href="#f0_1c" transform="matrix(11.5,0,0,11.5,410.8,70.1)" />
<use xlink:href="#f0_oj" transform="matrix(11.5,0,0,11.5,415.6,70.1)" />
<use xlink:href="#f0_rz" transform="matrix(11.5,0,0,11.5,421.1,70.1)" />
<use xlink:href="#f0_rx" transform="matrix(11.5,0,0,11.5,429.9,70.1)" />
<use xlink:href="#f0_ry" transform="matrix(11.5,0,0,11.5,438.7,70.1)" />
<use xlink:href="#f0_s2" transform="matrix(11.5,0,0,11.5,447.5,70.1)" />
<use xlink:href="#f0_t" transform="matrix(11.5,0,0,11.5,460.4,70.1)" />
<use xlink:href="#f0_3e" transform="matrix(11.5,0,0,11.5,468.8,70.1)" />
<use xlink:href="#f0_5" transform="matrix(11.5,0,0,11.5,478.3,70.1)" />
<use xlink:href="#f0_1x" transform="matrix(11.5,0,0,11.5,489,70.1)" />
<use xlink:href="#f0_1c" transform="matrix(11.5,0,0,11.5,504.4,70.1)" />
<use xlink:href="#f0_1y" transform="matrix(11.5,0,0,11.5,509.1,70.1)" />
<use xlink:href="#f0_5" transform="matrix(11.5,0,0,11.5,520.8,70.1)" />
<use xlink:href="#f0_2t" transform="matrix(11.5,0,0,11.5,531.5,70.1)" />
<use xlink:href="#f0_1c" transform="matrix(11.5,0,0,11.5,540.2,70.1)" />
<use xlink:href="#f0_24" transform="matrix(11.5,0,0,11.5,545,70.1)" />
<use xlink:href="#f0_1y" transform="matrix(11.5,0,0,11.5,556.7,70.1)" />
</g>
<image preserveAspectRatio="none" x="554" y="45" width="36" height="42" xlink:href="img/5.png" />
<g fill="#FFFFFF" >
<use xlink:href="#f1_p" transform="matrix(11,0,0,11,770.3,1227.6)" />
<use xlink:href="#f1_j" transform="matrix(11,0,0,11,783.5,1227.6)" />
<use xlink:href="#f1_l" transform="matrix(11,0,0,11,794.1,1227.6)" />
<use xlink:href="#f1_m" transform="matrix(11,0,0,11,802.9,1227.6)" />
</g>
<path fill-rule="evenodd" d="M52.8,1193.5H856.9v-.8H52.8v.8Z" class="g0_111" />
<path d="M37.9,99.4L873,98.5" class="g1_111" />
<path d="M207.4,422.1h19.5" class="g2_111" />
<g clip-path="url(#c0_111)">
<g fill="#000000" >
<use xlink:href="#f2_n" transform="matrix(12.7,0,0,12.2,208,414.9)" />
<use xlink:href="#f2_m" transform="matrix(12.7,0,0,12.2,217.2,414.9)" />
<use xlink:href="#f2_c" transform="matrix(12.7,0,0,12.2,166.2,426.7)" />
<use xlink:href="#f2_d" transform="matrix(12.7,0,0,12.2,182.2,426.7)" />
<use xlink:href="#f2_m" transform="matrix(12.7,0,0,12.2,246.4,426.7)" />
<use xlink:href="#f2_l" transform="matrix(12.7,0,0,12.2,207.3,441.2)" />
<use xlink:href="#f2_q" transform="matrix(12.7,0,0,12.2,216.5,441.2)" />
<use xlink:href="#f3_1d" transform="matrix(12.7,0,0,12.2,58.2,426.7)" />
<use xlink:href="#f3_21" transform="matrix(12.7,0,0,12.2,73.4,426.7)" />
<use xlink:href="#f3_1x" transform="matrix(12.7,0,0,12.2,81.4,426.7)" />
<use xlink:href="#f3_2a" transform="matrix(12.7,0,0,12.2,90.6,426.7)" />
<use xlink:href="#f3_2k" transform="matrix(12.7,0,0,12.2,141.1,426.7)" />
<use xlink:href="#f3_1g" transform="matrix(12.7,0,0,12.2,154.4,426.7)" />
<use xlink:href="#f3_2k" transform="matrix(12.7,0,0,12.2,173.6,426.7)" />
<use xlink:href="#f4_x" transform="matrix(12.7,0,0,12.2,104.2,426.7)" />
<use xlink:href="#f4_x" transform="matrix(12.7,0,0,12.2,192.7,426.7)" />
<use xlink:href="#f4_x" transform="matrix(12.7,0,0,12.2,231.9,426.7)" />
<use xlink:href="#f4_4n" transform="matrix(19,0,0,18.3,118.6,430.9)" />
</g>
</g>
<g fill="#000000" >
<use xlink:href="#f2_1m" transform="matrix(12,0,0,12,55,474.6)" />
<use xlink:href="#f2_1x" transform="matrix(12,0,0,12,68.3,474.6)" />
<use xlink:href="#f2_2e" transform="matrix(12,0,0,12,76.3,474.6)" />
<use xlink:href="#f2_25" transform="matrix(12,0,0,12,82.9,474.6)" />
<use xlink:href="#f2_1x" transform="matrix(12,0,0,12,87.3,474.6)" />
<use xlink:href="#f2_2a" transform="matrix(12,0,0,12,95.7,474.6)" />
<use xlink:href="#f2_1z" transform="matrix(12,0,0,12,104.5,474.6)" />
<use xlink:href="#f2_21" transform="matrix(12,0,0,12,112.6,474.6)" />
</g>
<g clip-path="url(#c1_111)">
<g fill="#000000" >
<use xlink:href="#f4_c" transform="matrix(12.5,0,0,18.8,243.2,477.4)" />
<use xlink:href="#f4_d" transform="matrix(12.5,0,0,18.8,316.1,477.4)" />
</g>
</g>
<path d="M348.7,470.5h19.1" class="g3_111" />
<g clip-path="url(#c1_111)">
<g fill="#000000" >
<use xlink:href="#f4_c" transform="matrix(12.5,0,0,15.9,385.3,476.4)" />
<use xlink:href="#f4_d" transform="matrix(12.5,0,0,15.9,403,476.4)" />
<use xlink:href="#f2_m" transform="matrix(7.4,0,0,7,322.5,462.2)" />
<use xlink:href="#f2_m" transform="matrix(7.4,0,0,7,409.5,464.1)" />
<use xlink:href="#f2_m" transform="matrix(7.4,0,0,7,179.9,466.9)" />
<use xlink:href="#f2_s" transform="matrix(12.7,0,0,12.2,349,463.3)" />
<use xlink:href="#f2_k" transform="matrix(12.7,0,0,12.2,358.1,463.3)" />
<use xlink:href="#f2_c" transform="matrix(12.7,0,0,12.2,203.5,475.1)" />
<use xlink:href="#f2_d" transform="matrix(12.7,0,0,12.2,219.5,475.1)" />
<use xlink:href="#f2_c" transform="matrix(12.7,0,0,12.2,292.8,475.1)" />
<use xlink:href="#f2_d" transform="matrix(12.7,0,0,12.2,308.8,475.1)" />
<use xlink:href="#f2_m" transform="matrix(12.7,0,0,12.2,392.8,475.1)" />
<use xlink:href="#f2_l" transform="matrix(12.7,0,0,12.2,433.2,475.1)" />
<use xlink:href="#f2_l" transform="matrix(12.7,0,0,12.2,348.4,489.5)" />
<use xlink:href="#f2_q" transform="matrix(12.7,0,0,12.2,357.5,489.5)" />
<use xlink:href="#f3_2k" transform="matrix(12.7,0,0,12.2,170.9,475.1)" />
<use xlink:href="#f3_1g" transform="matrix(12.7,0,0,12.2,191.8,475.1)" />
<use xlink:href="#f3_2k" transform="matrix(12.7,0,0,12.2,210.9,475.1)" />
<use xlink:href="#f3_2k" transform="matrix(12.7,0,0,12.2,273,475.1)" />
<use xlink:href="#f3_1g" transform="matrix(12.7,0,0,12.2,281.1,475.1)" />
<use xlink:href="#f3_2k" transform="matrix(12.7,0,0,12.2,300.2,475.1)" />
<use xlink:href="#f4_x" transform="matrix(12.7,0,0,12.2,134,475.1)" />
<use xlink:href="#f4_h" transform="matrix(12.7,0,0,12.2,229.2,475.1)" />
<use xlink:href="#f4_x" transform="matrix(12.7,0,0,12.2,333.9,475.1)" />
<use xlink:href="#f4_h" transform="matrix(12.7,0,0,12.2,372.1,475.1)" />
<use xlink:href="#f4_x" transform="matrix(12.7,0,0,12.2,420.7,475.1)" />
<use xlink:href="#f4_4n" transform="matrix(19.1,0,0,18.3,148.4,479.2)" />
<use xlink:href="#f4_4n" transform="matrix(19.1,0,0,18.3,250.6,479.2)" />
</g>
</g>
<g fill="#000000" >
<use xlink:href="#f5_l" transform="matrix(12,0,0,12,55,542.5)" />
<use xlink:href="#f5_m" transform="matrix(12,0,0,12,64.2,542.5)" />
<use xlink:href="#f5_i" transform="matrix(12,0,0,12,73.4,542.5)" />
<use xlink:href="#f2_19" transform="matrix(12,0,0,12,82.9,542.5)" />
<use xlink:href="#f2_22" transform="matrix(12,0,0,12,89.1,542.5)" />
</g>
<g clip-path="url(#c2_111)">
<g fill="#000000" >
<use xlink:href="#f6_4b" transform="matrix(14.8,0,-4.9,12.5,130.5,542.6)" />
<use xlink:href="#f6_oy" transform="matrix(14.8,0,0,12.5,102.9,542.6)" />
<use xlink:href="#f6_ov" transform="matrix(14.8,0,0,12.5,144.7,542.6)" />
<use xlink:href="#f6_4c" transform="matrix(14.8,0,0,12.5,167,542.6)" />
<use xlink:href="#f6_ow" transform="matrix(14.8,0,0,12.5,179.5,542.6)" />
<use xlink:href="#f6_oz" transform="matrix(14.8,0,0,12.5,199.8,542.6)" />
<use xlink:href="#f6_ox" transform="matrix(14.8,0,0,12.5,209.7,542.6)" />
<use xlink:href="#f6_os" transform="matrix(14.8,0,0,12.5,222.5,542.6)" />
</g>
</g>
<image preserveAspectRatio="none" x="116" y="529" width="151" height="19" xlink:href="img/6.png" />
<image preserveAspectRatio="none" x="103" y="502" width="84" height="33" xlink:href="img/7.png" />
<image preserveAspectRatio="none" x="144" y="512" width="114" height="33" xlink:href="img/8.png" />
<g fill="#000000" >
<use xlink:href="#f2_22" transform="matrix(12,0,0,12,236.2,542.5)" />
<use xlink:href="#f2_25" transform="matrix(12,0,0,12,242.1,542.5)" />
<use xlink:href="#f2_2a" transform="matrix(12,0,0,12,246.8,542.5)" />
<use xlink:href="#f2_20" transform="matrix(12,0,0,12,256,542.5)" />
</g>
<g clip-path="url(#c3_111)">
<g fill="#000000" >
<use xlink:href="#f6_oq" transform="matrix(12.7,0,0,12.5,271.4,542.6)" />
<use xlink:href="#f6_oy" transform="matrix(12.7,0,0,12.5,279.4,542.6)" />
<use xlink:href="#f6_ov" transform="matrix(12.7,0,0,12.5,300.9,542.6)" />
<use xlink:href="#f6_or" transform="matrix(12.7,0,0,12.5,306,542.6)" />
</g>
</g>
<image preserveAspectRatio="none" x="288" y="529" width="72" height="19" xlink:href="img/9.png" />
<image preserveAspectRatio="none" x="279" y="502" width="73" height="33" xlink:href="img/10.png" />
<image preserveAspectRatio="none" x="300" y="512" width="73" height="33" xlink:href="img/11.png" />
<g fill="#000000" >
<use xlink:href="#f2_i" transform="matrix(12,0,0,12,320.6,542.5)" />
</g>
<g clip-path="url(#c4_111)">
<g fill="#000000" >
<use xlink:href="#f6_oq" transform="matrix(12.8,0,0,12.5,331.2,542.6)" />
<use xlink:href="#f6_oy" transform="matrix(12.8,0,0,12.5,339.3,542.6)" />
<use xlink:href="#f6_ow" transform="matrix(12.8,0,0,12.5,361.9,542.6)" />
<use xlink:href="#f6_or" transform="matrix(12.8,0,0,12.5,366,542.6)" />
<use xlink:href="#f6_4b" transform="matrix(12.8,0,0,12.5,387.5,542.6)" />
<use xlink:href="#f6_4c" transform="matrix(12.8,0,0,12.5,396.5,542.6)" />
</g>
</g>
<image preserveAspectRatio="none" x="348" y="529" width="97" height="19" xlink:href="img/12.png" />
<image preserveAspectRatio="none" x="339" y="502" width="75" height="33" xlink:href="img/13.png" />
<g fill="#000000" >
<use xlink:href="#f5_1j" transform="matrix(12,0,0,12,55,568.9)" />
<use xlink:href="#f5_2b" transform="matrix(12,0,0,12,65.3,568.9)" />
<use xlink:href="#f5_28" transform="matrix(12,0,0,12,74.5,568.9)" />
<use xlink:href="#f5_2h" transform="matrix(12,0,0,12,79.2,568.9)" />
<use xlink:href="#f5_2g" transform="matrix(12,0,0,12,89.5,568.9)" />
<use xlink:href="#f5_25" transform="matrix(12,0,0,12,95.7,568.9)" />
<use xlink:href="#f5_2b" transform="matrix(12,0,0,12,100.8,568.9)" />
<use xlink:href="#f5_2a" transform="matrix(12,0,0,12,109.9,568.9)" />
<use xlink:href="#f5_u" transform="matrix(12,0,0,12,120.2,568.9)" />
</g>
<g clip-path="url(#c5_111)">
<g fill="#000000" >
<use xlink:href="#f4_c" transform="matrix(12.7,0,0,22.9,105.3,601.5)" />
<use xlink:href="#f4_d" transform="matrix(12.7,0,0,22.9,199,601.5)" />
<use xlink:href="#f7_5z" transform="matrix(12.9,0,0,12.5,191.5,592.4)" />
<use xlink:href="#f7_5z" transform="matrix(12.9,0,0,12.5,265.8,592.4)" />
<use xlink:href="#f7_5z" transform="matrix(12.9,0,0,12.5,123.1,593.8)" />
<use xlink:href="#f7_5z" transform="matrix(12.9,0,0,12.5,156.1,593.8)" />
<use xlink:href="#f7_5z" transform="matrix(12.9,0,0,12.5,217.1,593.8)" />
<use xlink:href="#f7_5z" transform="matrix(12.9,0,0,12.5,297.3,593.8)" />
<use xlink:href="#f3_2e" transform="matrix(12.9,0,0,12.5,58.1,597.9)" />
<use xlink:href="#f3_25" transform="matrix(12.9,0,0,12.5,81.4,597.9)" />
<use xlink:href="#f3_2k" transform="matrix(12.9,0,0,12.5,113.7,597.9)" />
<use xlink:href="#f3_25" transform="matrix(12.9,0,0,12.5,121.8,597.9)" />
<use xlink:href="#f3_2l" transform="matrix(12.9,0,0,12.5,148.6,597.9)" />
<use xlink:href="#f3_26" transform="matrix(12.9,0,0,12.5,156.6,597.9)" />
<use xlink:href="#f3_2m" transform="matrix(12.9,0,0,12.5,181.1,597.9)" />
<use xlink:href="#f3_27" transform="matrix(12.9,0,0,12.5,188.2,597.9)" />
<use xlink:href="#f3_2k" transform="matrix(12.9,0,0,12.5,207.8,597.9)" />
<use xlink:href="#f3_25" transform="matrix(12.9,0,0,12.5,215.8,597.9)" />
<use xlink:href="#f3_2l" transform="matrix(12.9,0,0,12.5,254.5,597.9)" />
<use xlink:href="#f3_27" transform="matrix(12.9,0,0,12.5,262.5,597.9)" />
<use xlink:href="#f3_2m" transform="matrix(12.9,0,0,12.5,290.7,597.9)" />
<use xlink:href="#f3_26" transform="matrix(12.9,0,0,12.5,297.8,597.9)" />
<use xlink:href="#f4_3a" transform="matrix(12.9,0,0,12.5,68.7,597.9)" />
<use xlink:href="#f4_x" transform="matrix(12.9,0,0,12.5,91.3,597.9)" />
<use xlink:href="#f4_f" transform="matrix(12.9,0,0,12.5,132.8,597.9)" />
<use xlink:href="#f4_f" transform="matrix(12.9,0,0,12.5,166.1,597.9)" />
<use xlink:href="#f4_x" transform="matrix(12.9,0,0,12.5,227.6,597.9)" />
<use xlink:href="#f4_h" transform="matrix(12.9,0,0,12.5,242.1,597.9)" />
<use xlink:href="#f4_f" transform="matrix(12.9,0,0,12.5,275.7,597.9)" />
</g>
</g>
<image preserveAspectRatio="none" x="58" y="559" width="89" height="33" xlink:href="img/14.png" />
<g clip-path="url(#c6_111)">
<g fill="#000000" >
<use xlink:href="#f4_c" transform="matrix(12.7,0,0,22.9,109.4,640.4)" />
<use xlink:href="#f4_d" transform="matrix(12.7,0,0,22.9,202.7,640.4)" />
<use xlink:href="#f7_5z" transform="matrix(12.9,0,0,12.5,195.2,631.2)" />
<use xlink:href="#f7_5z" transform="matrix(12.9,0,0,12.5,253.1,631.2)" />
<use xlink:href="#f7_5z" transform="matrix(12.9,0,0,12.5,127.1,632.7)" />
<use xlink:href="#f7_5z" transform="matrix(12.9,0,0,12.5,160,632.7)" />
<use xlink:href="#f7_5z" transform="matrix(12.9,0,0,12.5,215.8,632.7)" />
<use xlink:href="#f7_5z" transform="matrix(12.9,0,0,12.5,286.1,632.7)" />
<use xlink:href="#f3_2e" transform="matrix(12.9,0,0,12.5,58.1,636.8)" />
<use xlink:href="#f3_26" transform="matrix(12.9,0,0,12.5,85.3,636.8)" />
<use xlink:href="#f3_2k" transform="matrix(12.9,0,0,12.5,117.8,636.8)" />
<use xlink:href="#f3_25" transform="matrix(12.9,0,0,12.5,125.8,636.8)" />
<use xlink:href="#f3_2l" transform="matrix(12.9,0,0,12.5,152.5,636.8)" />
<use xlink:href="#f3_26" transform="matrix(12.9,0,0,12.5,160.5,636.8)" />
<use xlink:href="#f3_2m" transform="matrix(12.9,0,0,12.5,184.8,636.8)" />
<use xlink:href="#f3_27" transform="matrix(12.9,0,0,12.5,192,636.8)" />
<use xlink:href="#f3_26" transform="matrix(12.9,0,0,12.5,216.3,636.8)" />
<use xlink:href="#f3_2k" transform="matrix(12.9,0,0,12.5,241.8,636.8)" />
<use xlink:href="#f3_27" transform="matrix(12.9,0,0,12.5,249.8,636.8)" />
<use xlink:href="#f3_2m" transform="matrix(12.9,0,0,12.5,277.6,636.8)" />
<use xlink:href="#f3_25" transform="matrix(12.9,0,0,12.5,284.7,636.8)" />
<use xlink:href="#f4_3a" transform="matrix(12.9,0,0,12.5,68.7,636.8)" />
<use xlink:href="#f4_x" transform="matrix(12.9,0,0,12.5,95.5,636.8)" />
<use xlink:href="#f4_f" transform="matrix(12.9,0,0,12.5,136.8,636.8)" />
<use xlink:href="#f4_f" transform="matrix(12.9,0,0,12.5,170,636.8)" />
<use xlink:href="#f4_x" transform="matrix(12.9,0,0,12.5,226.6,636.8)" />
<use xlink:href="#f4_h" transform="matrix(12.9,0,0,12.5,263.1,636.8)" />
</g>
</g>
<image preserveAspectRatio="none" x="58" y="598" width="92" height="33" xlink:href="img/15.png" />
<g clip-path="url(#c7_111)">
<g fill="#000000" >
<use xlink:href="#f4_c" transform="matrix(12.7,0,0,22.1,57.4,679)" />
<use xlink:href="#f4_d" transform="matrix(12.7,0,0,22.1,96.7,679)" />
<use xlink:href="#f4_c" transform="matrix(12.7,0,0,22.1,112.3,679)" />
<use xlink:href="#f4_d" transform="matrix(12.7,0,0,22.1,154,679)" />
<use xlink:href="#f4_c" transform="matrix(12.7,0,0,22.9,178.1,679.3)" />
<use xlink:href="#f4_d" transform="matrix(12.7,0,0,22.9,271.3,679.3)" />
<use xlink:href="#f4_c" transform="matrix(12.7,0,0,22.9,286.8,679.3)" />
<use xlink:href="#f4_d" transform="matrix(12.7,0,0,22.9,389.9,679.3)" />
<use xlink:href="#f7_5z" transform="matrix(12.9,0,0,12.6,263.8,670.1)" />
<use xlink:href="#f7_5z" transform="matrix(12.9,0,0,12.6,382.4,670.1)" />
<use xlink:href="#f7_5z" transform="matrix(12.9,0,0,12.6,89.4,671.6)" />
<use xlink:href="#f7_5z" transform="matrix(12.9,0,0,12.6,195.8,671.6)" />
<use xlink:href="#f7_5z" transform="matrix(12.9,0,0,12.6,227,671.6)" />
<use xlink:href="#f7_5z" transform="matrix(12.9,0,0,12.6,314.1,671.6)" />
<use xlink:href="#f7_5z" transform="matrix(12.9,0,0,12.6,346.2,671.6)" />
<use xlink:href="#f2_g" transform="matrix(12.9,0,0,12.6,104,675.7)" />
<use xlink:href="#f3_2e" transform="matrix(12.9,0,0,12.6,64.9,675.7)" />
<use xlink:href="#f3_25" transform="matrix(12.9,0,0,12.6,88.1,675.7)" />
<use xlink:href="#f3_2e" transform="matrix(12.9,0,0,12.6,119.7,675.7)" />
<use xlink:href="#f3_26" transform="matrix(12.9,0,0,12.6,146.9,675.7)" />
<use xlink:href="#f3_2b" transform="matrix(12.9,0,0,12.6,185.3,675.7)" />
<use xlink:href="#f3_25" transform="matrix(12.9,0,0,12.6,194.5,675.7)" />
<use xlink:href="#f3_2m" transform="matrix(12.9,0,0,12.6,220.4,675.7)" />
<use xlink:href="#f3_26" transform="matrix(12.9,0,0,12.6,227.6,675.7)" />
<use xlink:href="#f3_2l" transform="matrix(12.9,0,0,12.6,252.5,675.7)" />
<use xlink:href="#f3_27" transform="matrix(12.9,0,0,12.6,260.5,675.7)" />
<use xlink:href="#f3_2m" transform="matrix(12.9,0,0,12.6,305.6,675.7)" />
<use xlink:href="#f3_25" transform="matrix(12.9,0,0,12.6,312.8,675.7)" />
<use xlink:href="#f3_2b" transform="matrix(12.9,0,0,12.6,337.6,675.7)" />
<use xlink:href="#f3_26" transform="matrix(12.9,0,0,12.6,346.7,675.7)" />
<use xlink:href="#f3_2k" transform="matrix(12.9,0,0,12.6,371,675.7)" />
<use xlink:href="#f3_27" transform="matrix(12.9,0,0,12.6,379.1,675.7)" />
<use xlink:href="#f3_2k" transform="matrix(12.9,0,0,12.6,425.9,675.7)" />
<use xlink:href="#f3_2l" transform="matrix(12.9,0,0,12.6,433.9,675.7)" />
<use xlink:href="#f4_3a" transform="matrix(12.9,0,0,12.6,75.5,675.7)" />
<use xlink:href="#f4_3a" transform="matrix(12.9,0,0,12.6,130.4,675.7)" />
<use xlink:href="#f4_x" transform="matrix(12.9,0,0,12.6,164.2,675.7)" />
<use xlink:href="#f4_f" transform="matrix(12.9,0,0,12.6,205.5,675.7)" />
<use xlink:href="#f4_h" transform="matrix(12.9,0,0,12.6,237,675.7)" />
<use xlink:href="#f4_49" transform="matrix(12.9,0,0,12.6,279.8,675.7)" />
<use xlink:href="#f4_h" transform="matrix(12.9,0,0,12.6,294.2,675.7)" />
<use xlink:href="#f4_f" transform="matrix(12.9,0,0,12.6,323.8,675.7)" />
<use xlink:href="#f4_f" transform="matrix(12.9,0,0,12.6,356.1,675.7)" />
<use xlink:href="#f4_x" transform="matrix(12.9,0,0,12.6,400,675.7)" />
<use xlink:href="#f4_h" transform="matrix(12.9,0,0,12.6,414.5,675.7)" />
</g>
</g>
<image preserveAspectRatio="none" x="65" y="637" width="155" height="33" xlink:href="img/16.png" />
<g clip-path="url(#c8_111)">
<g fill="#000000" >
<use xlink:href="#f4_c" transform="matrix(12.7,0,0,22.1,57.4,718.2)" />
<use xlink:href="#f4_d" transform="matrix(12.7,0,0,22.1,96.7,718.2)" />
<use xlink:href="#f4_c" transform="matrix(12.7,0,0,22.1,112.2,718.2)" />
<use xlink:href="#f4_d" transform="matrix(12.7,0,0,22.1,154,718.2)" />
<use xlink:href="#f7_5z" transform="matrix(12.9,0,0,12.6,89.5,710.8)" />
<use xlink:href="#f2_k" transform="matrix(12.9,0,0,12.6,294.9,714.9)" />
<use xlink:href="#f3_2e" transform="matrix(12.9,0,0,12.6,64.9,714.9)" />
<use xlink:href="#f3_25" transform="matrix(12.9,0,0,12.6,88.1,714.9)" />
<use xlink:href="#f3_2e" transform="matrix(12.9,0,0,12.6,119.7,714.9)" />
<use xlink:href="#f3_26" transform="matrix(12.9,0,0,12.6,147,714.9)" />
<use xlink:href="#f3_2k" transform="matrix(12.9,0,0,12.6,178.3,714.9)" />
<use xlink:href="#f3_2l" transform="matrix(12.9,0,0,12.6,186.4,714.9)" />
<use xlink:href="#f3_2k" transform="matrix(12.9,0,0,12.6,225.4,714.9)" />
<use xlink:href="#f3_2l" transform="matrix(12.9,0,0,12.6,233.5,714.9)" />
<use xlink:href="#f3_2k" transform="matrix(12.9,0,0,12.6,260.7,714.9)" />
<use xlink:href="#f3_2l" transform="matrix(12.9,0,0,12.6,268.7,714.9)" />
<use xlink:href="#f4_3a" transform="matrix(12.9,0,0,12.6,75.6,714.9)" />
<use xlink:href="#f4_49" transform="matrix(12.9,0,0,12.6,105.3,714.9)" />
<use xlink:href="#f4_3a" transform="matrix(12.9,0,0,12.6,130.4,714.9)" />
<use xlink:href="#f4_f" transform="matrix(12.9,0,0,12.6,163.5,714.9)" />
<use xlink:href="#f4_x" transform="matrix(12.9,0,0,12.6,199.5,714.9)" />
<use xlink:href="#f4_h" transform="matrix(12.9,0,0,12.6,214,714.9)" />
<use xlink:href="#f4_f" transform="matrix(12.9,0,0,12.6,245.8,714.9)" />
<use xlink:href="#f4_f" transform="matrix(12.9,0,0,12.6,281.1,714.9)" />
</g>
</g>
<image preserveAspectRatio="none" x="65" y="676" width="155" height="33" xlink:href="img/17.png" />
<g fill="#000000" >
<use xlink:href="#f5_l" transform="matrix(12,0,0,12,55,770.2)" />
<use xlink:href="#f5_n" transform="matrix(12,0,0,12,64.2,770.2)" />
<use xlink:href="#f5_i" transform="matrix(12,0,0,12,73.4,770.2)" />
<use xlink:href="#f2_16" transform="matrix(12,0,0,12,82.9,770.2)" />
<use xlink:href="#f2_25" transform="matrix(12,0,0,12,93.2,770.2)" />
<use xlink:href="#f2_2a" transform="matrix(12,0,0,12,97.9,770.2)" />
<use xlink:href="#f2_20" transform="matrix(12,0,0,12,106.7,770.2)" />
<use xlink:href="#f2_2g" transform="matrix(12,0,0,12,120.7,770.2)" />
<use xlink:href="#f2_24" transform="matrix(12,0,0,12,126.2,770.2)" />
<use xlink:href="#f2_21" transform="matrix(12,0,0,12,135,770.2)" />
<use xlink:href="#f2_20" transform="matrix(12,0,0,12,147.8,770.2)" />
<use xlink:href="#f2_25" transform="matrix(12,0,0,12,157.3,770.2)" />
<use xlink:href="#f2_2f" transform="matrix(12,0,0,12,161.7,770.2)" />
<use xlink:href="#f2_2g" transform="matrix(12,0,0,12,168.6,770.2)" />
<use xlink:href="#f2_1x" transform="matrix(12,0,0,12,174.1,770.2)" />
<use xlink:href="#f2_2a" transform="matrix(12,0,0,12,182.2,770.2)" />
<use xlink:href="#f2_1z" transform="matrix(12,0,0,12,191,770.2)" />
<use xlink:href="#f2_21" transform="matrix(12,0,0,12,199.4,770.2)" />
<use xlink:href="#f2_1y" transform="matrix(12,0,0,12,212.4,770.2)" />
<use xlink:href="#f2_21" transform="matrix(12,0,0,12,221.2,770.2)" />
<use xlink:href="#f2_2g" transform="matrix(12,0,0,12,229.2,770.2)" />
<use xlink:href="#f2_2j" transform="matrix(12,0,0,12,234.7,770.2)" />
<use xlink:href="#f2_21" transform="matrix(12,0,0,12,248,770.2)" />
<use xlink:href="#f2_21" transform="matrix(12,0,0,12,256,770.2)" />
<use xlink:href="#f2_2a" transform="matrix(12,0,0,12,264.4,770.2)" />
<use xlink:href="#f2_2g" transform="matrix(12,0,0,12,278,770.2)" />
<use xlink:href="#f2_24" transform="matrix(12,0,0,12,283.4,770.2)" />
<use xlink:href="#f2_21" transform="matrix(12,0,0,12,292.2,770.2)" />
<use xlink:href="#f2_2c" transform="matrix(12,0,0,12,305.2,770.2)" />
<use xlink:href="#f2_2b" transform="matrix(12,0,0,12,314.3,770.2)" />
<use xlink:href="#f2_25" transform="matrix(12,0,0,12,323.9,770.2)" />
<use xlink:href="#f2_2a" transform="matrix(12,0,0,12,328.6,770.2)" />
<use xlink:href="#f2_2g" transform="matrix(12,0,0,12,337.4,770.2)" />
<use xlink:href="#f2_c" transform="matrix(12,0,0,12,347.7,770.2)" />
<use xlink:href="#f2_h" transform="matrix(12,0,0,12,353.6,770.2)" />
<use xlink:href="#f2_l" transform="matrix(12,0,0,12,359.9,770.2)" />
<use xlink:href="#f2_g" transform="matrix(12,0,0,12,373.4,770.2)" />
<use xlink:href="#f2_h" transform="matrix(12,0,0,12,382.6,770.2)" />
<use xlink:href="#f2_p" transform="matrix(12,0,0,12,388.8,770.2)" />
<use xlink:href="#f2_g" transform="matrix(12,0,0,12,398,770.2)" />
<use xlink:href="#f2_h" transform="matrix(12,0,0,12,407.2,770.2)" />
<use xlink:href="#f2_l" transform="matrix(12,0,0,12,413.4,770.2)" />
<use xlink:href="#f2_k" transform="matrix(12,0,0,12,422.2,770.2)" />
<use xlink:href="#f2_d" transform="matrix(12,0,0,12,431.4,770.2)" />
<use xlink:href="#f2_1x" transform="matrix(12,0,0,12,442.4,770.2)" />
<use xlink:href="#f2_2a" transform="matrix(12,0,0,12,450.4,770.2)" />
<use xlink:href="#f2_20" transform="matrix(12,0,0,12,459.2,770.2)" />
<use xlink:href="#f2_2g" transform="matrix(12,0,0,12,473.2,770.2)" />
<use xlink:href="#f2_24" transform="matrix(12,0,0,12,478.6,770.2)" />
<use xlink:href="#f2_21" transform="matrix(12,0,0,12,487.4,770.2)" />
<use xlink:href="#f2_2c" transform="matrix(12,0,0,12,500.3,770.2)" />
<use xlink:href="#f2_2b" transform="matrix(12,0,0,12,509.1,770.2)" />
<use xlink:href="#f2_25" transform="matrix(12,0,0,12,518.6,770.2)" />
<use xlink:href="#f2_2a" transform="matrix(12,0,0,12,523.3,770.2)" />
<use xlink:href="#f2_2g" transform="matrix(12,0,0,12,532.1,770.2)" />
<use xlink:href="#f2_2b" transform="matrix(12,0,0,12,542.5,770.2)" />
<use xlink:href="#f2_22" transform="matrix(12,0,0,12,552,770.2)" />
<use xlink:href="#f2_25" transform="matrix(12,0,0,12,562.6,770.2)" />
<use xlink:href="#f2_2a" transform="matrix(12,0,0,12,567.4,770.2)" />
<use xlink:href="#f2_2g" transform="matrix(12,0,0,12,576.2,770.2)" />
<use xlink:href="#f2_21" transform="matrix(12,0,0,12,581.7,770.2)" />
<use xlink:href="#f2_2e" transform="matrix(12,0,0,12,589.8,770.2)" />
<use xlink:href="#f2_2f" transform="matrix(12,0,0,12,596,770.2)" />
<use xlink:href="#f2_21" transform="matrix(12,0,0,12,602.9,770.2)" />
<use xlink:href="#f2_1z" transform="matrix(12,0,0,12,611,770.2)" />
<use xlink:href="#f2_2g" transform="matrix(12,0,0,12,619.1,770.2)" />
<use xlink:href="#f2_25" transform="matrix(12,0,0,12,624.6,770.2)" />
<use xlink:href="#f2_2b" transform="matrix(12,0,0,12,629,770.2)" />
<use xlink:href="#f2_2a" transform="matrix(12,0,0,12,638.5,770.2)" />
<use xlink:href="#f2_2b" transform="matrix(12,0,0,12,652,770.2)" />
<use xlink:href="#f2_22" transform="matrix(12,0,0,12,661.5,770.2)" />
<use xlink:href="#f2_2g" transform="matrix(12,0,0,12,671.8,770.2)" />
<use xlink:href="#f2_24" transform="matrix(12,0,0,12,677.3,770.2)" />
<use xlink:href="#f2_21" transform="matrix(12,0,0,12,686.1,770.2)" />
<use xlink:href="#f2_28" transform="matrix(12,0,0,12,699.5,770.2)" />
<use xlink:href="#f2_25" transform="matrix(12,0,0,12,704.3,770.2)" />
<use xlink:href="#f2_2a" transform="matrix(12,0,0,12,709,770.2)" />
<use xlink:href="#f2_21" transform="matrix(12,0,0,12,718.2,770.2)" />
</g>
<path d="M58.2,803.5H94.4m18.9,0h33.4m18.8,0H200" class="g4_111" />
<g clip-path="url(#c9_111)">
<g fill="#000000" >
<use xlink:href="#f2_2k" transform="matrix(12.5,0,0,12.3,59.7,796.3)" />
<use xlink:href="#f2_m" transform="matrix(12.5,0,0,12.3,84.7,796.3)" />
<use xlink:href="#f2_2l" transform="matrix(12.5,0,0,12.3,115,796.3)" />
<use xlink:href="#f2_f" transform="matrix(12.5,0,0,12.3,127.1,796.3)" />
<use xlink:href="#f2_l" transform="matrix(12.5,0,0,12.3,138.3,796.3)" />
<use xlink:href="#f2_2m" transform="matrix(12.5,0,0,12.3,166.6,796.3)" />
<use xlink:href="#f2_m" transform="matrix(12.5,0,0,12.3,190.2,796.3)" />
<use xlink:href="#f2_x" transform="matrix(12.5,0,0,12.3,98.7,808.2)" />
<use xlink:href="#f2_x" transform="matrix(12.5,0,0,12.3,151,808.2)" />
<use xlink:href="#f2_n" transform="matrix(12.5,0,0,12.3,72,822.8)" />
<use xlink:href="#f2_o" transform="matrix(12.5,0,0,12.3,125.7,822.8)" />
<use xlink:href="#f2_l" transform="matrix(12.5,0,0,12.3,172.9,822.8)" />
<use xlink:href="#f2_m" transform="matrix(12.5,0,0,12.3,182,822.8)" />
</g>
</g>
<image preserveAspectRatio="none" x="72" y="783" width="214" height="18" xlink:href="img/18.png" />
<g fill="#000000" >
<use xlink:href="#f2_1x" transform="matrix(12,0,0,12,207.2,808)" />
<use xlink:href="#f2_2a" transform="matrix(12,0,0,12,215.3,808)" />
<use xlink:href="#f2_20" transform="matrix(12,0,0,12,224.1,808)" />
<use xlink:href="#f2_2g" transform="matrix(12,0,0,12,238,808)" />
<use xlink:href="#f2_24" transform="matrix(12,0,0,12,243.5,808)" />
<use xlink:href="#f2_21" transform="matrix(12,0,0,12,252.3,808)" />
<use xlink:href="#f2_2c" transform="matrix(12,0,0,12,265.2,808)" />
<use xlink:href="#f2_28" transform="matrix(12,0,0,12,274.7,808)" />
<use xlink:href="#f2_1x" transform="matrix(12,0,0,12,279.1,808)" />
<use xlink:href="#f2_2a" transform="matrix(12,0,0,12,287.5,808)" />
<use xlink:href="#f2_21" transform="matrix(12,0,0,12,296.3,808)" />
<use xlink:href="#f2_2k" transform="matrix(12,0,0,12,309.6,808)" />
<use xlink:href="#f7_4y" transform="matrix(12,0,0,12,323.1,808)" />
<use xlink:href="#f2_2l" transform="matrix(12,0,0,12,337.1,808)" />
<use xlink:href="#f2_f" transform="matrix(12,0,0,12,350.3,808)" />
<use xlink:href="#f2_2m" transform="matrix(12,0,0,12,365.3,808)" />
<use xlink:href="#f2_x" transform="matrix(12,0,0,12,378.1,808)" />
<use xlink:href="#f2_p" transform="matrix(12,0,0,12,393.1,808)" />
<use xlink:href="#f2_i" transform="matrix(12,0,0,12,402.3,808)" />
<use xlink:href="#f5_1j" transform="matrix(12,0,0,12,55,845.4)" />
<use xlink:href="#f5_2b" transform="matrix(12,0,0,12,65.3,845.4)" />
<use xlink:href="#f5_28" transform="matrix(12,0,0,12,74.5,845.4)" />
<use xlink:href="#f5_2h" transform="matrix(12,0,0,12,79.2,845.4)" />
<use xlink:href="#f5_2g" transform="matrix(12,0,0,12,89.5,845.4)" />
<use xlink:href="#f5_25" transform="matrix(12,0,0,12,95.7,845.4)" />
<use xlink:href="#f5_2b" transform="matrix(12,0,0,12,100.8,845.4)" />
<use xlink:href="#f5_2a" transform="matrix(12,0,0,12,109.9,845.4)" />
<use xlink:href="#f5_u" transform="matrix(12,0,0,12,120.2,845.4)" />
<use xlink:href="#f2_i" transform="matrix(12,0,0,12,55,879.5)" />
<use xlink:href="#f2_11" transform="matrix(12,0,0,12,64.5,879.5)" />
<use xlink:href="#f2_2a" transform="matrix(12,0,0,12,77.4,879.5)" />
<use xlink:href="#f2_2l" transform="matrix(12,0,0,12,86.5,879.5)" />
<use xlink:href="#f2_2c" transform="matrix(12,0,0,12,100.1,879.5)" />
<use xlink:href="#f2_2b" transform="matrix(12,0,0,12,109.2,879.5)" />
<use xlink:href="#f2_25" transform="matrix(12,0,0,12,118.8,879.5)" />
<use xlink:href="#f2_2a" transform="matrix(12,0,0,12,123.5,879.5)" />
<use xlink:href="#f2_2g" transform="matrix(12,0,0,12,132.3,879.5)" />
<use xlink:href="#f2_2b" transform="matrix(12,0,0,12,142.6,879.5)" />
<use xlink:href="#f2_2a" transform="matrix(12,0,0,12,152.1,879.5)" />
<use xlink:href="#f2_2g" transform="matrix(12,0,0,12,165.3,879.5)" />
<use xlink:href="#f2_24" transform="matrix(12,0,0,12,170.8,879.5)" />
<use xlink:href="#f2_21" transform="matrix(12,0,0,12,179.6,879.5)" />
<use xlink:href="#f2_28" transform="matrix(12,0,0,12,192.7,879.5)" />
<use xlink:href="#f2_25" transform="matrix(12,0,0,12,197.5,879.5)" />
<use xlink:href="#f2_2a" transform="matrix(12,0,0,12,202.3,879.5)" />
<use xlink:href="#f2_21" transform="matrix(12,0,0,12,211.4,879.5)" />
</g>
<path d="M227.7,875.3h37.4m19.8,0h35.5m19.8,0h36.9" class="g5_111" />
<g clip-path="url(#c10_111)">
<g fill="#000000" >
<use xlink:href="#f4_c" transform="matrix(12.5,0,0,15.9,398.1,881.2)" />
<use xlink:href="#f4_d" transform="matrix(12.5,0,0,15.9,562.7,881.2)" />
<use xlink:href="#f2_m" transform="matrix(12.7,0,0,12.2,255.4,868.1)" />
<use xlink:href="#f2_l" transform="matrix(12.7,0,0,12.2,312.1,868.1)" />
<use xlink:href="#f2_m" transform="matrix(12.7,0,0,12.2,367.3,868.1)" />
<use xlink:href="#f2_n" transform="matrix(12.7,0,0,12.2,405,879.8)" />
<use xlink:href="#f2_m" transform="matrix(12.7,0,0,12.2,442.5,879.8)" />
<use xlink:href="#f2_g" transform="matrix(12.7,0,0,12.2,451.3,879.8)" />
<use xlink:href="#f2_o" transform="matrix(12.7,0,0,12.2,457.8,879.8)" />
<use xlink:href="#f2_l" transform="matrix(12.7,0,0,12.2,493.5,879.8)" />
<use xlink:href="#f2_g" transform="matrix(12.7,0,0,12.2,500.9,879.8)" />
<use xlink:href="#f2_l" transform="matrix(12.7,0,0,12.2,505.4,879.8)" />
<use xlink:href="#f2_m" transform="matrix(12.7,0,0,12.2,514.6,879.8)" />
<use xlink:href="#f2_m" transform="matrix(12.7,0,0,12.2,552.6,879.8)" />
<use xlink:href="#f2_n" transform="matrix(12.7,0,0,12.2,242.1,894.3)" />
<use xlink:href="#f2_o" transform="matrix(12.7,0,0,12.2,298.3,894.3)" />
<use xlink:href="#f2_l" transform="matrix(12.7,0,0,12.2,348.7,894.3)" />
<use xlink:href="#f2_m" transform="matrix(12.7,0,0,12.2,357.9,894.3)" />
<use xlink:href="#f3_2k" transform="matrix(12.7,0,0,12.2,229.7,868.1)" />
<use xlink:href="#f3_2l" transform="matrix(12.7,0,0,12.2,287.8,868.1)" />
<use xlink:href="#f3_2m" transform="matrix(12.7,0,0,12.2,342.2,868.1)" />
<use xlink:href="#f3_25" transform="matrix(12.7,0,0,12.2,381.5,879.8)" />
<use xlink:href="#f3_2f" transform="matrix(12.7,0,0,12.2,386.7,879.8)" />
<use xlink:href="#f4_28" transform="matrix(12.7,0,-4.2,12.2,413.6,879.8)" />
<use xlink:href="#f4_28" transform="matrix(12.7,0,-4.2,12.2,467,879.8)" />
<use xlink:href="#f4_28" transform="matrix(12.7,0,-4.2,12.2,523.8,879.8)" />
<use xlink:href="#f4_h" transform="matrix(12.7,0,0,12.2,241.7,868.1)" />
<use xlink:href="#f4_f" transform="matrix(12.7,0,0,12.2,300.1,868.1)" />
<use xlink:href="#f4_h" transform="matrix(12.7,0,0,12.2,353.6,868.1)" />
<use xlink:href="#f4_x" transform="matrix(12.7,0,0,12.2,270.2,879.8)" />
<use xlink:href="#f4_x" transform="matrix(12.7,0,0,12.2,325.4,879.8)" />
<use xlink:href="#f4_f" transform="matrix(12.7,0,0,12.2,428.4,879.8)" />
<use xlink:href="#f4_h" transform="matrix(12.7,0,0,12.2,481.8,879.8)" />
<use xlink:href="#f4_f" transform="matrix(12.7,0,0,12.2,538.6,879.8)" />
</g>
</g>
<g fill="#000000" >
<use xlink:href="#f2_19" transform="matrix(12,0,0,12,55,916.6)" />
<use xlink:href="#f2_22" transform="matrix(12,0,0,12,61.3,916.6)" />
<use xlink:href="#f2_2g" transform="matrix(12,0,0,12,71.5,916.6)" />
<use xlink:href="#f2_24" transform="matrix(12,0,0,12,77,916.6)" />
<use xlink:href="#f2_25" transform="matrix(12,0,0,12,86.1,916.6)" />
<use xlink:href="#f2_2f" transform="matrix(12,0,0,12,90.9,916.6)" />
<use xlink:href="#f2_25" transform="matrix(12,0,0,12,103,916.6)" />
<use xlink:href="#f2_2f" transform="matrix(12,0,0,12,107.8,916.6)" />
<use xlink:href="#f2_2g" transform="matrix(12,0,0,12,119.5,916.6)" />
<use xlink:href="#f2_24" transform="matrix(12,0,0,12,125,916.6)" />
<use xlink:href="#f2_21" transform="matrix(12,0,0,12,133.8,916.6)" />
<use xlink:href="#f2_2c" transform="matrix(12,0,0,12,146.7,916.6)" />
<use xlink:href="#f2_2b" transform="matrix(12,0,0,12,155.9,916.6)" />
<use xlink:href="#f2_25" transform="matrix(12,0,0,12,165.4,916.6)" />
<use xlink:href="#f2_2a" transform="matrix(12,0,0,12,170.2,916.6)" />
<use xlink:href="#f2_2g" transform="matrix(12,0,0,12,179,916.6)" />
<use xlink:href="#f2_2b" transform="matrix(12,0,0,12,188.9,916.6)" />
<use xlink:href="#f2_22" transform="matrix(12,0,0,12,198.4,916.6)" />
<use xlink:href="#f2_25" transform="matrix(12,0,0,12,209,916.6)" />
<use xlink:href="#f2_2a" transform="matrix(12,0,0,12,213.8,916.6)" />
<use xlink:href="#f2_2g" transform="matrix(12,0,0,12,222.6,916.6)" />
<use xlink:href="#f2_21" transform="matrix(12,0,0,12,228,916.6)" />
<use xlink:href="#f2_2e" transform="matrix(12,0,0,12,236.1,916.6)" />
<use xlink:href="#f2_2f" transform="matrix(12,0,0,12,242.3,916.6)" />
<use xlink:href="#f2_21" transform="matrix(12,0,0,12,249.3,916.6)" />
<use xlink:href="#f2_1z" transform="matrix(12,0,0,12,257.4,916.6)" />
<use xlink:href="#f2_2g" transform="matrix(12,0,0,12,265.4,916.6)" />
<use xlink:href="#f2_25" transform="matrix(12,0,0,12,271.3,916.6)" />
<use xlink:href="#f2_2b" transform="matrix(12,0,0,12,275.7,916.6)" />
<use xlink:href="#f2_2a" transform="matrix(12,0,0,12,285.2,916.6)" />
<use xlink:href="#f2_2j" transform="matrix(12,0,0,12,298.7,916.6)" />
<use xlink:href="#f2_25" transform="matrix(12,0,0,12,312.3,916.6)" />
<use xlink:href="#f2_2g" transform="matrix(12,0,0,12,316.7,916.6)" />
<use xlink:href="#f2_24" transform="matrix(12,0,0,12,322.2,916.6)" />
<use xlink:href="#f2_2c" transform="matrix(12,0,0,12,335.7,916.6)" />
<use xlink:href="#f2_28" transform="matrix(12,0,0,12,345.2,916.6)" />
<use xlink:href="#f2_1x" transform="matrix(12,0,0,12,350,916.6)" />
<use xlink:href="#f2_2a" transform="matrix(12,0,0,12,358.4,916.6)" />
<use xlink:href="#f2_21" transform="matrix(12,0,0,12,367.2,916.6)" />
<use xlink:href="#f2_2k" transform="matrix(12,0,0,12,380,916.6)" />
<use xlink:href="#f7_4y" transform="matrix(12,0,0,12,394,916.6)" />
<use xlink:href="#f2_2l" transform="matrix(12,0,0,12,408.3,916.6)" />
<use xlink:href="#f2_f" transform="matrix(12,0,0,12,421.8,916.6)" />
<use xlink:href="#f2_2m" transform="matrix(12,0,0,12,436.8,916.6)" />
<use xlink:href="#f2_x" transform="matrix(12,0,0,12,449.6,916.6)" />
<use xlink:href="#f2_p" transform="matrix(12,0,0,12,464.6,916.6)" />
<use xlink:href="#f2_1k" transform="matrix(12,0,0,12,55,939.3)" />
<use xlink:href="#f2_24" transform="matrix(12,0,0,12,66.4,939.3)" />
<use xlink:href="#f2_21" transform="matrix(12,0,0,12,75.2,939.3)" />
<use xlink:href="#f2_2a" transform="matrix(12,0,0,12,83.6,939.3)" />
</g>
<g clip-path="url(#c11_111)">
<g fill="#000000" >
<use xlink:href="#f2_n" transform="matrix(13.2,0,0,12,99.6,939.6)" />
<use xlink:href="#f2_m" transform="matrix(13.2,0,0,12,137.1,939.6)" />
<use xlink:href="#f2_o" transform="matrix(13.2,0,0,12,163.4,939.6)" />
<use xlink:href="#f2_l" transform="matrix(13.2,0,0,12,199.5,939.6)" />
<use xlink:href="#f2_l" transform="matrix(13.2,0,0,12,222.7,939.6)" />
<use xlink:href="#f2_m" transform="matrix(13.2,0,0,12,231.8,939.6)" />
<use xlink:href="#f2_m" transform="matrix(13.2,0,0,12,270,939.6)" />
<use xlink:href="#f2_p" transform="matrix(13.2,0,0,12,295.7,939.6)" />
<use xlink:href="#f2_k" transform="matrix(13.2,0,0,12,323,939.6)" />
<use xlink:href="#f2_k" transform="matrix(13.2,0,0,12,387.9,939.6)" />
<use xlink:href="#f4_28" transform="matrix(13.2,0,-4.4,12,108.1,939.6)" />
<use xlink:href="#f4_28" transform="matrix(13.2,0,-4.4,12,172.6,939.6)" />
<use xlink:href="#f4_28" transform="matrix(13.2,0,-4.4,12,241.1,939.6)" />
<use xlink:href="#f4_28" transform="matrix(13.2,0,-4.4,12,358.1,939.6)" />
<use xlink:href="#f4_f" transform="matrix(13.2,0,0,12,123,939.6)" />
<use xlink:href="#f4_h" transform="matrix(13.2,0,0,12,149.7,939.6)" />
<use xlink:href="#f4_f" transform="matrix(13.2,0,0,12,187.5,939.6)" />
<use xlink:href="#f4_f" transform="matrix(13.2,0,0,12,210.7,939.6)" />
<use xlink:href="#f4_f" transform="matrix(13.2,0,0,12,255.9,939.6)" />
<use xlink:href="#f4_h" transform="matrix(13.2,0,0,12,282.5,939.6)" />
<use xlink:href="#f4_x" transform="matrix(13.2,0,0,12,308.8,939.6)" />
<use xlink:href="#f4_4g" transform="matrix(13.2,0,0,12,335.8,939.6)" />
<use xlink:href="#f4_x" transform="matrix(13.2,0,0,12,373.7,939.6)" />
</g>
</g>
<g clip-path="url(#c12_111)">
<g fill="#000000" >
<use xlink:href="#f4_1s" transform="matrix(12.6,0,0,11.6,55.1,966.2)" />
</g>
</g>
<g fill="#000000" >
<use xlink:href="#f2_1g" transform="matrix(12,0,0,12,77,966.1)" />
<use xlink:href="#f2_2b" transform="matrix(12,0,0,12,86.9,966.1)" />
<use xlink:href="#f2_25" transform="matrix(12,0,0,12,96.5,966.1)" />
<use xlink:href="#f2_2a" transform="matrix(12,0,0,12,101.2,966.1)" />
<use xlink:href="#f2_2g" transform="matrix(12,0,0,12,110,966.1)" />
<use xlink:href="#f2_2b" transform="matrix(12,0,0,12,120.2,966.1)" />
<use xlink:href="#f2_22" transform="matrix(12,0,0,12,129.8,966.1)" />
<use xlink:href="#f2_25" transform="matrix(12,0,0,12,140.4,966.1)" />
<use xlink:href="#f2_2a" transform="matrix(12,0,0,12,145.1,966.1)" />
<use xlink:href="#f2_2g" transform="matrix(12,0,0,12,153.9,966.1)" />
<use xlink:href="#f2_21" transform="matrix(12,0,0,12,159.4,966.1)" />
<use xlink:href="#f2_2e" transform="matrix(12,0,0,12,167.5,966.1)" />
<use xlink:href="#f2_2f" transform="matrix(12,0,0,12,173.7,966.1)" />
<use xlink:href="#f2_21" transform="matrix(12,0,0,12,180.7,966.1)" />
<use xlink:href="#f2_1z" transform="matrix(12,0,0,12,188.7,966.1)" />
<use xlink:href="#f2_2g" transform="matrix(12,0,0,12,196.8,966.1)" />
<use xlink:href="#f2_25" transform="matrix(12,0,0,12,202.3,966.1)" />
<use xlink:href="#f2_2b" transform="matrix(12,0,0,12,206.7,966.1)" />
<use xlink:href="#f2_2a" transform="matrix(12,0,0,12,216.2,966.1)" />
<use xlink:href="#f2_25" transform="matrix(12,0,0,12,230.1,966.1)" />
<use xlink:href="#f2_2f" transform="matrix(12,0,0,12,234.9,966.1)" />
<use xlink:href="#f2_c" transform="matrix(12,0,0,12,246.6,966.1)" />
<use xlink:href="#f2_m" transform="matrix(12,0,0,12,252.8,966.1)" />
<use xlink:href="#f2_g" transform="matrix(12,0,0,12,262,966.1)" />
<use xlink:href="#f7_4y" transform="matrix(12,0,0,12,271.8,966.1)" />
<use xlink:href="#f2_l" transform="matrix(12,0,0,12,281,966.1)" />
<use xlink:href="#f2_g" transform="matrix(12,0,0,12,289.8,966.1)" />
<use xlink:href="#f2_m" transform="matrix(12,0,0,12,299.3,966.1)" />
<use xlink:href="#f2_d" transform="matrix(12,0,0,12,308.4,966.1)" />
<use xlink:href="#f2_1i" transform="matrix(12,0,0,12,55,999.4)" />
<use xlink:href="#f2_21" transform="matrix(12,0,0,12,67.1,999.4)" />
<use xlink:href="#f2_2d" transform="matrix(12,0,0,12,75.2,999.4)" />
<use xlink:href="#f2_2h" transform="matrix(12,0,0,12,84.4,999.4)" />
<use xlink:href="#f2_25" transform="matrix(12,0,0,12,93.9,999.4)" />
<use xlink:href="#f2_2e" transform="matrix(12,0,0,12,98.3,999.4)" />
<use xlink:href="#f2_21" transform="matrix(12,0,0,12,104.5,999.4)" />
<use xlink:href="#f2_20" transform="matrix(12,0,0,12,112.6,999.4)" />
<use xlink:href="#f2_20" transform="matrix(12,0,0,12,126.5,999.4)" />
<use xlink:href="#f2_25" transform="matrix(12,0,0,12,136,999.4)" />
<use xlink:href="#f2_2f" transform="matrix(12,0,0,12,140.8,999.4)" />
<use xlink:href="#f2_2g" transform="matrix(12,0,0,12,147.7,999.4)" />
<use xlink:href="#f2_1x" transform="matrix(12,0,0,12,153.2,999.4)" />
<use xlink:href="#f2_2a" transform="matrix(12,0,0,12,161.3,999.4)" />
<use xlink:href="#f2_1z" transform="matrix(12,0,0,12,170.1,999.4)" />
<use xlink:href="#f2_21" transform="matrix(12,0,0,12,178.5,999.4)" />
</g>
<g clip-path="url(#c13_111)">
<g fill="#000000" >
<use xlink:href="#f4_c" transform="matrix(12.6,0,0,16.3,372.3,1000.6)" />
<use xlink:href="#f4_d" transform="matrix(12.6,0,0,16.3,423.9,1000.6)" />
</g>
</g>
<path d="M210.1,998.6l1.8,-1.4m.1,0l4.4,10.7m0,0l4.9,-28.2m0,0H431.2" class="g6_111" />
<path fill-rule="evenodd" d="M209.2,997.7l2.6,-2l3.9,8.9l4.5,-26.1H430.5v.9H220.9l-4.7,27.7h-1l-4.5,-9.9l-1.1,1l-.4,-.5Z" class="g7_111" />
<g clip-path="url(#c13_111)">
<g fill="#000000" >
<use xlink:href="#f2_m" transform="matrix(7.4,0,0,7.2,431.8,983)" />
<use xlink:href="#f2_m" transform="matrix(7.4,0,0,7.2,266.8,990.8)" />
<use xlink:href="#f2_m" transform="matrix(7.4,0,0,7.2,348.2,990.8)" />
<use xlink:href="#f2_c" transform="matrix(12.8,0,0,12.5,221.1,999.3)" />
<use xlink:href="#f2_m" transform="matrix(12.8,0,0,12.5,227.7,999.3)" />
<use xlink:href="#f2_l" transform="matrix(12.8,0,0,12.5,252.3,999.3)" />
<use xlink:href="#f2_d" transform="matrix(12.8,0,0,12.5,260.1,999.3)" />
<use xlink:href="#f2_c" transform="matrix(12.8,0,0,12.5,291.2,999.3)" />
<use xlink:href="#f2_l" transform="matrix(12.8,0,0,12.5,307.8,999.3)" />
<use xlink:href="#f2_p" transform="matrix(12.8,0,0,12.5,332.5,999.3)" />
<use xlink:href="#f2_d" transform="matrix(12.8,0,0,12.5,341.4,999.3)" />
<use xlink:href="#f2_m" transform="matrix(12.8,0,0,12.5,379.8,999.3)" />
<use xlink:href="#f2_l" transform="matrix(12.8,0,0,12.5,404.5,999.3)" />
<use xlink:href="#f2_k" transform="matrix(12.8,0,0,12.5,413.6,999.3)" />
<use xlink:href="#f2_l" transform="matrix(12.8,0,0,12.5,455.6,999.3)" />
<use xlink:href="#f2_n" transform="matrix(12.8,0,0,12.5,464.8,999.3)" />
<use xlink:href="#f4_x" transform="matrix(12.8,0,0,12.5,194.4,999.3)" />
<use xlink:href="#f4_f" transform="matrix(12.8,0,0,12.5,240.3,999.3)" />
<use xlink:href="#f4_f" transform="matrix(12.8,0,0,12.5,277.4,999.3)" />
<use xlink:href="#f4_h" transform="matrix(12.8,0,0,12.5,297.8,999.3)" />
<use xlink:href="#f4_f" transform="matrix(12.8,0,0,12.5,319,999.3)" />
<use xlink:href="#f4_f" transform="matrix(12.8,0,0,12.5,358.7,999.3)" />
<use xlink:href="#f4_f" transform="matrix(12.8,0,0,12.5,392.4,999.3)" />
<use xlink:href="#f4_x" transform="matrix(12.8,0,0,12.5,443.1,999.3)" />
</g>
</g>
<g fill="#000000" >
<use xlink:href="#f5_l" transform="matrix(12,0,0,12,55,1058.9)" />
<use xlink:href="#f5_o" transform="matrix(12,0,0,12,64.2,1058.9)" />
<use xlink:href="#f5_i" transform="matrix(12,0,0,12,73.4,1058.9)" />
<use xlink:href="#f2_19" transform="matrix(12,0,0,12,82.9,1058.9)" />
<use xlink:href="#f2_22" transform="matrix(12,0,0,12,89.1,1058.9)" />
<use xlink:href="#f2_2f" transform="matrix(12,0,0,12,99.4,1058.9)" />
<use xlink:href="#f2_25" transform="matrix(12,0,0,12,106.7,1058.9)" />
<use xlink:href="#f2_2a" transform="matrix(12,0,0,12,111.4,1058.9)" />
</g>
<g clip-path="url(#c14_111)">
<g fill="#000000" >
<use xlink:href="#f2_l" transform="matrix(7.4,0,0,7,165.2,1051.1)" />
<use xlink:href="#f2_1z" transform="matrix(12.8,0,0,12.2,136.2,1059.3)" />
<use xlink:href="#f2_2b" transform="matrix(12.8,0,0,12.2,144.3,1059.3)" />
<use xlink:href="#f2_2g" transform="matrix(12.8,0,0,12.2,153.4,1059.3)" />
<use xlink:href="#f2_c" transform="matrix(12.8,0,0,12.2,171.5,1059.3)" />
<use xlink:href="#f2_2k" transform="matrix(12.8,0,0,12.2,177.6,1059.3)" />
<use xlink:href="#f2_f" transform="matrix(12.8,0,0,12.2,190.3,1059.3)" />
<use xlink:href="#f2_l" transform="matrix(12.8,0,0,12.2,201.5,1059.3)" />
<use xlink:href="#f2_d" transform="matrix(12.8,0,0,12.2,210.7,1059.3)" />
<use xlink:href="#f2_x" transform="matrix(12.8,0,0,12.2,228.6,1059.3)" />
</g>
</g>
<image preserveAspectRatio="none" x="160" y="1043" width="42" height="11" xlink:href="img/19.png" />
<image preserveAspectRatio="none" x="129" y="1040" width="188" height="19" xlink:href="img/20.png" />
<image preserveAspectRatio="none" x="129" y="1051" width="188" height="19" xlink:href="img/21.png" />
<image preserveAspectRatio="none" x="129" y="1054" width="188" height="19" xlink:href="img/22.png" />
<g fill="#000000" >
<use xlink:href="#f2_1z" transform="matrix(12,0,0,12,246.9,1058.9)" />
<use xlink:href="#f2_2b" transform="matrix(12,0,0,12,254.6,1058.9)" />
<use xlink:href="#f2_2f" transform="matrix(12,0,0,12,264.1,1058.9)" />
</g>
<g clip-path="url(#c15_111)">
<g fill="#000000" >
<use xlink:href="#f2_h" transform="matrix(7.4,0,0,7,307.5,1050.9)" />
<use xlink:href="#f2_l" transform="matrix(7.4,0,0,7,310.8,1050.9)" />
<use xlink:href="#f2_c" transform="matrix(12.8,0,0,12.1,278.1,1059.1)" />
<use xlink:href="#f2_2g" transform="matrix(12.8,0,0,12.1,284.1,1059.1)" />
<use xlink:href="#f2_1x" transform="matrix(12.8,0,0,12.1,289.2,1059.1)" />
<use xlink:href="#f2_2a" transform="matrix(12.8,0,0,12.1,297.2,1059.1)" />
<use xlink:href="#f2_2k" transform="matrix(12.8,0,0,12.1,316.3,1059.1)" />
<use xlink:href="#f2_d" transform="matrix(12.8,0,0,12.1,325.4,1059.1)" />
<use xlink:href="#f2_g" transform="matrix(12.8,0,0,12.1,331.4,1059.1)" />
</g>
</g>
<g fill="#000000" >
<use xlink:href="#f2_2g" transform="matrix(12,0,0,12,344.5,1058.9)" />
<use xlink:href="#f2_24" transform="matrix(12,0,0,12,349.9,1058.9)" />
<use xlink:href="#f2_21" transform="matrix(12,0,0,12,358.7,1058.9)" />
<use xlink:href="#f2_2a" transform="matrix(12,0,0,12,366.8,1058.9)" />
<use xlink:href="#f2_22" transform="matrix(12,0,0,12,380.7,1058.9)" />
<use xlink:href="#f2_25" transform="matrix(12,0,0,12,386.6,1058.9)" />
<use xlink:href="#f2_2a" transform="matrix(12,0,0,12,391.3,1058.9)" />
<use xlink:href="#f2_20" transform="matrix(12,0,0,12,400.5,1058.9)" />
<use xlink:href="#f2_2k" transform="matrix(12,0,0,12,414.5,1058.9)" />
<use xlink:href="#f2_i" transform="matrix(12,0,0,12,423.3,1058.9)" />
<use xlink:href="#f5_1f" transform="matrix(12,0,0,12,55,1091.5)" />
<use xlink:href="#f5_1i" transform="matrix(12,0,0,12,69.3,1091.5)" />
<use xlink:href="#f2_19" transform="matrix(12,0,0,12,55,1130.4)" />
<use xlink:href="#f2_22" transform="matrix(12,0,0,12,61.3,1130.4)" />
</g>
<path d="M235.1,1126.1h27.5" class="g8_111" />
<g clip-path="url(#c16_111)">
<g fill="#000000" >
<use xlink:href="#f2_m" transform="matrix(7.3,0,0,7.1,254.9,1110.6)" />
<use xlink:href="#f2_l" transform="matrix(7.3,0,0,7.1,109.4,1122.4)" />
<use xlink:href="#f2_m" transform="matrix(7.3,0,0,7.1,130.8,1122.4)" />
<use xlink:href="#f2_l" transform="matrix(7.3,0,0,7.1,188.4,1122.4)" />
<use xlink:href="#f2_m" transform="matrix(7.3,0,0,7.1,209.8,1122.4)" />
<use xlink:href="#f2_p" transform="matrix(12.6,0,0,12.2,235.6,1118.8)" />
<use xlink:href="#f8_i5" transform="matrix(12.6,0,0,12.2,244.8,1118.8)" />
<use xlink:href="#f2_c" transform="matrix(12.6,0,0,12.2,74.6,1130.6)" />
<use xlink:href="#f2_2g" transform="matrix(12.6,0,0,12.2,80.6,1130.6)" />
<use xlink:href="#f2_1x" transform="matrix(12.6,0,0,12.2,85.7,1130.6)" />
<use xlink:href="#f2_2a" transform="matrix(12.6,0,0,12.2,93.7,1130.6)" />
<use xlink:href="#f2_2k" transform="matrix(12.6,0,0,12.2,114.9,1130.6)" />
<use xlink:href="#f2_d" transform="matrix(12.6,0,0,12.2,124.1,1130.6)" />
<use xlink:href="#f2_f" transform="matrix(12.6,0,0,12.2,140.6,1130.6)" />
<use xlink:href="#f2_c" transform="matrix(12.6,0,0,12.2,153.5,1130.6)" />
<use xlink:href="#f2_1z" transform="matrix(12.6,0,0,12.2,159.6,1130.6)" />
<use xlink:href="#f2_2b" transform="matrix(12.6,0,0,12.2,167.6,1130.6)" />
<use xlink:href="#f2_2g" transform="matrix(12.6,0,0,12.2,176.7,1130.6)" />
<use xlink:href="#f2_2k" transform="matrix(12.6,0,0,12.2,193.9,1130.6)" />
<use xlink:href="#f2_d" transform="matrix(12.6,0,0,12.2,203.1,1130.6)" />
<use xlink:href="#f2_x" transform="matrix(12.6,0,0,12.2,220.4,1130.6)" />
<use xlink:href="#f2_g" transform="matrix(12.6,0,0,12.2,264.7,1130.6)" />
<use xlink:href="#f2_s" transform="matrix(12.6,0,0,12.2,244.2,1145.2)" />
</g>
</g>
<image preserveAspectRatio="none" x="104" y="1115" width="151" height="10" xlink:href="img/23.png" />
<g fill="#000000" >
<use xlink:href="#f2_2g" transform="matrix(12,0,0,12,276.2,1130.4)" />
<use xlink:href="#f2_24" transform="matrix(12,0,0,12,281.7,1130.4)" />
<use xlink:href="#f2_21" transform="matrix(12,0,0,12,290.5,1130.4)" />
<use xlink:href="#f2_2a" transform="matrix(12,0,0,12,298.6,1130.4)" />
<use xlink:href="#f2_22" transform="matrix(12,0,0,12,312.5,1130.4)" />
<use xlink:href="#f2_25" transform="matrix(12,0,0,12,318.3,1130.4)" />
<use xlink:href="#f2_2a" transform="matrix(12,0,0,12,323.1,1130.4)" />
<use xlink:href="#f2_20" transform="matrix(12,0,0,12,332.3,1130.4)" />
<use xlink:href="#f2_2k" transform="matrix(12,0,0,12,346.7,1130.4)" />
<use xlink:href="#f2_i" transform="matrix(12,0,0,12,355.5,1130.4)" />
<use xlink:href="#f5_1j" transform="matrix(12,0,0,12,55,1167.4)" />
<use xlink:href="#f5_2b" transform="matrix(12,0,0,12,65.3,1167.4)" />
<use xlink:href="#f5_28" transform="matrix(12,0,0,12,74.5,1167.4)" />
<use xlink:href="#f5_2h" transform="matrix(12,0,0,12,79.2,1167.4)" />
<use xlink:href="#f5_2g" transform="matrix(12,0,0,12,89.5,1167.4)" />
<use xlink:href="#f5_25" transform="matrix(12,0,0,12,95.7,1167.4)" />
<use xlink:href="#f5_2b" transform="matrix(12,0,0,12,100.8,1167.4)" />
<use xlink:href="#f5_2a" transform="matrix(12,0,0,12,109.9,1167.4)" />
<use xlink:href="#f5_u" transform="matrix(12,0,0,12,120.2,1167.4)" />
</g>
<image preserveAspectRatio="none" x="55" y="127" width="621" height="269" xlink:href="img/24.png" />
<path fill-rule="evenodd" d="M37.4,38.1h.7v-.7h-.7v.7Z" class="g7_111" />
<path fill-rule="evenodd" d="M37.4,38.1h.7v-.7h-.7v.7Z" class="g7_111" />
<path fill-rule="evenodd" d="M38.1,38.1H871.5v-.7H38.1v.7Z" class="g7_111" />
<path fill-rule="evenodd" d="M871.5,38.1h.8v-.7h-.8v.7Z" class="g7_111" />
<path fill-rule="evenodd" d="M871.5,38.1h.8v-.7h-.8v.7Z" class="g7_111" />
<path fill-rule="evenodd" d="M37.4,1248.5h.7V38.1h-.7V1248.5Z" class="g7_111" />
<path fill-rule="evenodd" d="M872.3,1248.5h.7V38.1h-.7V1248.5Z" class="g7_111" />
<path fill-rule="evenodd" d="M871.5,1248.5h.8V38.1h-.8V1248.5Z" class="g7_111" />
<path fill-rule="evenodd" d="M37.4,1249.2h.7v-.7h-.7v.7Z" class="g7_111" />
<path fill-rule="evenodd" d="M37.4,1249.2h.7v-.7h-.7v.7Z" class="g7_111" />
<path fill-rule="evenodd" d="M38.1,1249.9H871.5v-.7H38.1v.7Z" class="g7_111" />
<path fill-rule="evenodd" d="M38.1,1249.2H871.5v-.7H38.1v.7Z" class="g7_111" />
<path fill-rule="evenodd" d="M872.3,1249.9h.7v-1.4h-.7v1.4Z" class="g7_111" />
<path fill-rule="evenodd" d="M871.5,1249.9H873v-.7h-1.5v.7Z" class="g7_111" />
<path fill-rule="evenodd" d="M871.5,1249.2h.8v-.7h-.8v.7Z" class="g7_111" />
<path fill-rule="evenodd" d="M871.5,1249.2h.8v-.7h-.8v.7Z" class="g7_111" />
<defs>
<path d="M489,-15c0,0,-99,0,-179,30c0,0,-80,30,-136,91c0,0,-56,61,-85,152c0,0,-30,91,-30,212c0,0,0,123,32,218c0,0,33,96,92,161c0,0,59,65,142,98c0,0,82,34,181,34c0,0,40,0,78,-7c0,0,37,-7,69,-18c0,0,31,-11,57,-25c0,0,25,-14,35,-24c0,0,10,-10,14,-17c0,0,4,-7,6,-17c0,0,2,-11,3,-25c0,0,2,-14,2,-35c0,0,0,-22,-2,-38c0,0,-1,-15,-5,-25c0,0,-4,-10,-9,-14c0,0,-5,-5,-12,-5c0,0,-11,0,-28,13c0,0,-18,13,-45,29c0,0,-27,16,-65,29c0,0,-37,13,-89,13c0,0,-58,0,-103,-23c0,0,-45,-23,-77,-67c0,0,-31,-44,-48,-106c0,0,-16,-61,-16,-139c0,0,0,-85,17,-147c0,0,18,-62,50,-103c0,0,33,-40,79,-60c0,0,45,-19,103,-19c0,0,52,0,90,12c0,0,38,12,65,27c0,0,27,15,45,27c0,0,17,12,27,12c0,0,8,0,12,-3c0,0,4,-3,7,-12c0,0,3,-9,5,-25c0,0,1,-16,1,-43c0,0,0,-18,-1,-31c0,0,-1,-14,-3,-23c0,0,-2,-9,-6,-16c0,0,-4,-7,-12,-15c0,0,-8,-9,-32,-22c0,0,-23,-14,-57,-26C661,13,627,1,583,-6c0,0,-43,-9,-94,-9Z" 
id="f0_j"
transform="scale(0.001,-0.001)" />

<path d="M440,150c0,0,41,0,68,8c0,0,28,9,49,26c0,0,20,16,32,41c0,0,11,25,11,58c0,0,0,33,-11,60c0,0,-11,26,-33,44c0,0,-21,18,-55,28c0,0,-33,9,-87,9H298V150ZM407,567c0,0,42,0,68,10c0,0,25,10,42,28c0,0,16,17,24,41c0,0,9,24,9,50c0,0,0,29,-9,52c0,0,-9,23,-27,39c0,0,-18,15,-45,23c0,0,-27,8,-72,8H298V567ZM164,0c0,0,-25,0,-42,15c0,0,-16,14,-16,47V903c0,0,0,33,16,48c0,0,17,14,42,14H406c0,0,88,0,150,-15c0,0,61,-15,103,-45c0,0,42,-30,65,-77c0,0,22,-46,22,-108c0,0,0,-36,-9,-67c0,0,-9,-31,-26,-56c0,0,-17,-25,-42,-45c0,0,-25,-19,-57,-31c0,0,41,-7,76,-26c0,0,34,-19,60,-48c0,0,26,-30,41,-69c0,0,15,-40,15,-89c0,0,0,-51,-14,-93c0,0,-15,-42,-40,-74c0,0,-25,-32,-59,-55c0,0,-35,-23,-77,-38C614,29,573,14,525,7C525,7,478,0,420,0Z" 
id="f0_i"
transform="scale(0.001,-0.001)" />

<path d="M320,-17c0,0,-50,0,-93,9c0,0,-43,8,-76,19c0,0,-32,11,-54,24C97,35,75,48,65,58c0,0,-10,9,-14,28c0,0,-4,18,-4,52c0,0,0,23,1,39c0,0,2,15,5,25c0,0,4,10,9,14c0,0,6,4,13,4c0,0,11,0,30,-12c0,0,19,-13,49,-28c0,0,30,-15,71,-27c0,0,42,-12,96,-12c0,0,36,0,64,8c0,0,29,9,49,25c0,0,19,15,30,38c0,0,10,23,10,52c0,0,0,33,-18,56c0,0,-18,24,-46,42c0,0,-29,18,-66,34c0,0,-36,16,-75,34c0,0,-39,18,-76,41c0,0,-36,23,-65,54c0,0,-29,32,-47,75c0,0,-17,44,-17,104c0,0,0,70,25,122c0,0,26,53,70,88c0,0,43,34,103,51c0,0,59,18,125,18c0,0,35,0,69,-6c0,0,34,-5,64,-14c0,0,30,-9,53,-20c0,0,23,-11,31,-18c0,0,7,-8,10,-13c0,0,3,-5,4,-14c0,0,2,-8,3,-21c0,0,1,-13,1,-33c0,0,0,-21,-1,-36c0,0,-1,-15,-4,-25c0,0,-3,-9,-7,-14c0,0,-5,-4,-14,-4c0,0,-8,0,-26,10c0,0,-18,10,-44,23c0,0,-26,12,-60,22c0,0,-34,10,-75,10c0,0,-32,0,-56,-8c0,0,-24,-8,-40,-21c0,0,-16,-14,-24,-34c0,0,-8,-19,-8,-41c0,0,0,-32,18,-56c0,0,17,-23,46,-42c0,0,30,-18,67,-34c0,0,38,-16,76,-34c0,0,39,-18,76,-41c0,0,38,-22,67,-54c0,0,29,-32,47,-75c0,0,18,-43,18,-101c0,0,0,-76,-29,-133c0,0,-28,-58,-77,-96C572,60,524,21,459,2c0,0,-65,-19,-139,-19Z" 
id="f0_2n"
transform="scale(0.001,-0.001)" />

<path d="M164,0c0,0,-25,0,-42,15c0,0,-16,14,-16,47V903c0,0,0,33,16,48c0,0,17,14,42,14H645c0,0,7,0,12,-4c0,0,5,-3,9,-13c0,0,4,-9,6,-24c0,0,2,-14,2,-36c0,0,0,-21,-2,-36c0,0,-2,-14,-6,-23c0,0,-4,-9,-9,-13c0,0,-5,-4,-12,-4H301V576H593c0,0,6,0,12,-4c0,0,6,-4,9,-13c0,0,4,-8,6,-23c0,0,2,-14,2,-35c0,0,0,-22,-2,-36c0,0,-2,-14,-6,-23c0,0,-3,-8,-9,-12c0,0,-6,-4,-12,-4H301V154H649c0,0,6,0,12,-5c0,0,5,-4,9,-13c0,0,4,-9,6,-23c0,0,2,-15,2,-36c0,0,0,-22,-2,-36c0,0,-2,-15,-6,-24c0,0,-4,-9,-9,-13c0,0,-6,-4,-12,-4Z" 
id="f0_t"
transform="scale(0.001,-0.001)" />

<path d="M79,297c0,0,-19,0,-27,18c0,0,-8,17,-8,60c0,0,0,41,8,59c0,0,8,17,27,17H389c0,0,9,0,15,-4c0,0,7,-4,11,-13c0,0,5,-9,7,-23c0,0,1,-15,1,-36c0,0,0,-43,-8,-61c0,0,-8,-17,-26,-17Z" 
id="f0_oj"
transform="scale(0.001,-0.001)" />

<path d="M121,-4c0,0,-39,0,-60,2C61,-2,39,0,32,8c0,0,-8,8,-3,24c0,0,4,15,18,41L279,495L64,892c0,0,-14,26,-19,42c0,0,-5,17,4,24c0,0,9,8,32,10c0,0,23,2,65,2c0,0,35,0,56,-2c0,0,20,-1,32,-4c0,0,12,-4,17,-10c0,0,5,-6,9,-15L431,620L595,939c0,0,5,9,10,15c0,0,5,6,16,10c0,0,10,3,29,4c0,0,19,2,53,2c0,0,37,0,59,-2c0,0,22,-2,30,-10c0,0,8,-8,4,-24c0,0,-4,-16,-17,-42L564,497L793,73c0,0,14,-26,18,-41c0,0,4,-16,-5,-24c0,0,-9,-8,-32,-10c0,0,-24,-2,-65,-2c0,0,-36,0,-56,2c0,0,-20,1,-31,3c0,0,-12,4,-17,10c0,0,-5,6,-9,15L414,374L233,26c0,0,-4,-9,-9,-15c0,0,-6,-6,-17,-10c0,0,-12,-2,-32,-3c0,0,-21,-2,-54,-2Z" 
id="f0_3e"
transform="scale(0.001,-0.001)" />

<path d="M204,-4c0,0,-28,0,-47,2c0,0,-19,2,-31,5c0,0,-11,4,-16,10c0,0,-4,6,-4,13V939c0,0,0,7,4,13c0,0,5,6,17,10c0,0,11,3,30,6c0,0,19,2,47,2c0,0,29,0,48,-2c0,0,18,-3,29,-6c0,0,11,-4,16,-10c0,0,5,-6,5,-13V26c0,0,0,-7,-5,-13c0,0,-5,-6,-16,-10c0,0,-11,-3,-29,-5c0,0,-19,-2,-48,-2Z" 
id="f0_1c"
transform="scale(0.001,-0.001)" />

<path d="M127,0c0,0,-16,0,-28,3C99,3,87,6,80,15c0,0,-8,8,-11,25c0,0,-3,16,-3,42c0,0,0,25,2,42c0,0,2,18,8,32c0,0,6,14,15,27c0,0,9,13,24,29L282,390c0,0,50,53,81,95c0,0,30,43,47,79c0,0,17,35,24,65c0,0,6,30,6,57c0,0,0,24,-8,46c0,0,-8,22,-23,39c0,0,-15,16,-38,25c0,0,-23,10,-55,10c0,0,-44,0,-78,-12c0,0,-33,-11,-59,-25c0,0,-26,-13,-43,-25c0,0,-17,-12,-27,-12c0,0,-7,0,-11,5c0,0,-5,4,-8,15c0,0,-3,10,-5,28c0,0,-2,17,-2,42c0,0,0,18,1,29c0,0,1,12,4,20c0,0,2,9,6,15c0,0,3,6,13,15c0,0,9,9,34,23c0,0,25,14,61,27c0,0,37,14,81,23c0,0,44,9,92,9c0,0,75,0,131,-19c0,0,57,-19,94,-53c0,0,37,-34,55,-81c0,0,19,-47,19,-100c0,0,0,-47,-9,-93c0,0,-9,-45,-37,-98c0,0,-29,-52,-80,-116c0,0,-52,-64,-136,-148L299,159H679c0,0,8,0,14,-4c0,0,6,-5,11,-14c0,0,4,-9,7,-25c0,0,2,-15,2,-36c0,0,0,-22,-2,-37c0,0,-2,-15,-6,-25c0,0,-3,-10,-9,-14c0,0,-6,-4,-14,-4Z" 
id="f0_rz"
transform="scale(0.001,-0.001)" />

<path d="M385,138c0,0,29,0,52,9c0,0,22,10,39,28c0,0,17,19,28,47c0,0,11,29,19,66c0,0,7,37,9,84c0,0,3,47,3,104c0,0,0,69,-4,122c0,0,-4,52,-11,91c0,0,-8,39,-20,66c0,0,-12,27,-28,43c0,0,-16,16,-37,22c0,0,-21,7,-47,7c0,0,-44,0,-73,-21c0,0,-28,-21,-45,-64c0,0,-17,-42,-24,-106c0,0,-6,-63,-6,-148c0,0,0,-103,8,-171c0,0,8,-67,26,-107c0,0,17,-40,45,-56c0,0,27,-16,66,-16ZM378,-17c0,0,-99,0,-164,33c0,0,-65,34,-103,98c0,0,-38,64,-54,156c0,0,-15,92,-15,209c0,0,0,115,19,208c0,0,19,94,61,160c0,0,42,65,110,101c0,0,68,35,165,35c0,0,99,0,164,-34c0,0,65,-34,103,-98c0,0,39,-64,53,-156c0,0,15,-92,15,-209c0,0,0,-115,-18,-209c0,0,-19,-93,-61,-159C653,118,611,53,543,17c0,0,-67,-34,-165,-34Z" 
id="f0_rx"
transform="scale(0.001,-0.001)" />

<path d="M142,0c0,0,-6,0,-12,4c0,0,-5,3,-9,12c0,0,-4,9,-6,23c0,0,-3,15,-3,36c0,0,0,21,2,36c0,0,2,14,6,23c0,0,4,9,10,13c0,0,5,5,12,5H322V779L166,693c0,0,-17,-8,-28,-10c0,0,-1,0,-3,0c-4,0,-10,1,-14,5c0,0,-6,6,-8,22c0,0,-2,15,-2,44c0,0,0,18,0,29c0,0,1,12,4,20c0,0,3,8,8,14c0,0,5,5,14,11L345,962c0,0,4,3,9,5c0,0,6,2,15,3c0,0,9,1,23,2c0,0,15,0,38,0c0,0,28,0,46,-1c0,0,17,-1,26,-4c0,0,9,-3,12,-7c0,0,3,-4,3,-11V152H675c0,0,7,0,12,-5c0,0,6,-4,10,-13c0,0,4,-9,6,-23c0,0,2,-15,2,-36c0,0,0,-21,-2,-36c0,0,-3,-14,-7,-23c0,0,-4,-9,-9,-12c0,0,-5,-4,-12,-4Z" 
id="f0_ry"
transform="scale(0.001,-0.001)" />

<path d="M326,-17c0,0,-45,0,-85,6c0,0,-41,5,-73,13c0,0,-32,8,-52,17c0,0,-21,8,-27,14c0,0,-6,6,-9,12c0,0,-3,7,-5,16c0,0,-2,10,-3,24c0,0,-1,14,-1,33c0,0,0,21,2,36c0,0,1,14,5,23c0,0,3,9,8,13c0,0,4,4,10,4c0,0,7,0,23,-9c0,0,15,-8,40,-19c0,0,25,-10,61,-19c0,0,36,-8,86,-8c0,0,43,0,78,9c0,0,36,9,60,29c0,0,25,19,38,49c0,0,14,30,14,72c0,0,0,36,-11,64c0,0,-12,28,-35,47c0,0,-24,19,-62,29c0,0,-38,10,-93,10c0,0,-43,0,-78,-5c0,0,-36,-4,-67,-4c0,0,-22,0,-31,11c0,0,-9,11,-9,40V909c0,0,0,30,11,43c0,0,12,13,37,13H615c0,0,6,0,12,-4c0,0,6,-5,10,-15c0,0,5,-9,6,-25c0,0,2,-16,2,-39c0,0,0,-45,-7,-65c0,0,-8,-20,-23,-20H272V590c0,0,26,3,52,4c0,0,25,0,54,0c0,0,78,0,139,-18c0,0,61,-18,102,-53c0,0,42,-36,63,-88c0,0,22,-53,22,-122c0,0,0,-79,-27,-140c0,0,-27,-62,-77,-104C600,69,550,27,481,5c0,0,-70,-22,-155,-22Z" 
id="f0_s2"
transform="scale(0.001,-0.001)" />

<path d="M589,371L453,782h-1L317,371ZM106,-4c0,0,-35,0,-54,2C52,-2,32,0,25,8c0,0,-7,9,-5,24c0,0,2,16,11,42L329,931c0,0,4,13,10,21c0,0,6,7,19,12c0,0,13,4,36,5c0,0,23,1,61,1c0,0,44,0,71,-1c0,0,26,-1,40,-5c0,0,15,-5,21,-13c0,0,6,-8,11,-22L896,73c0,0,9,-27,11,-43c0,0,3,-15,-6,-23c0,0,-8,-7,-29,-9c0,0,-21,-2,-57,-2c0,0,-38,0,-59,1c0,0,-22,1,-33,4c0,0,-11,3,-16,9c0,0,-4,6,-7,16L635,220H272L211,31c0,0,-2,-11,-7,-18c0,0,-5,-7,-16,-11c0,0,-11,-3,-31,-4c0,0,-19,-2,-51,-2Z" 
id="f0_5"
transform="scale(0.001,-0.001)" />

<path d="M198,-4c0,0,-27,0,-45,2c0,0,-18,2,-28,5c0,0,-11,4,-15,10c0,0,-4,6,-4,13V887c0,0,0,38,20,58c0,0,20,20,53,20H308c0,0,34,0,59,-6c0,0,24,-5,42,-18c0,0,18,-13,30,-35c0,0,12,-21,21,-52L669,279h3L889,852c0,0,9,32,21,53c0,0,11,22,27,35c0,0,15,14,36,19c0,0,21,6,48,6h132c0,0,21,0,35,-5c0,0,15,-5,24,-15c0,0,9,-11,14,-25c0,0,5,-15,5,-33V26c0,0,0,-7,-4,-13c0,0,-4,-6,-15,-10c0,0,-11,-3,-29,-5c0,0,-18,-2,-45,-2c0,0,-27,0,-45,2c0,0,-18,2,-28,5c0,0,-11,4,-15,10c0,0,-5,6,-5,13V813h-1L764,27c0,0,-3,-10,-10,-16c0,0,-6,-6,-18,-10c0,0,-12,-3,-29,-4c0,0,-18,-1,-44,-1c0,0,-25,0,-43,2c0,0,-18,2,-29,5c0,0,-12,4,-19,10c0,0,-6,6,-9,14L293,813h-2V26c0,0,0,-7,-4,-13c0,0,-4,-6,-15,-10c0,0,-11,-3,-29,-5c0,0,-17,-2,-45,-2Z" 
id="f0_1x"
transform="scale(0.001,-0.001)" />

<path d="M193,-4c0,0,-26,0,-43,2c0,0,-18,2,-27,6c0,0,-10,4,-14,10c0,0,-3,6,-3,13V895c0,0,0,35,20,53c0,0,21,17,50,17H282c0,0,28,0,47,-5c0,0,20,-5,35,-16c0,0,15,-11,29,-31c0,0,13,-20,27,-49L608,511c0,0,17,-32,33,-63c0,0,16,-31,31,-62c0,0,14,-31,29,-60c0,0,14,-30,27,-60h1c0,0,-2,52,-3,109c0,0,-1,57,-1,108V936c0,0,0,7,4,13c0,0,5,6,15,11c0,0,10,4,28,6c0,0,17,2,44,2c0,0,25,0,42,-2c0,0,17,-2,27,-6c0,0,9,-5,13,-11c0,0,4,-6,4,-13V68c0,0,0,-17,-6,-30c0,0,-6,-14,-17,-23C879,15,869,6,856,2c0,0,-14,-3,-28,-3H744c0,0,-26,0,-45,4c0,0,-19,5,-35,19c0,0,-16,14,-31,38c0,0,-15,23,-34,60L359,572c0,0,-21,40,-43,86c0,0,-21,47,-38,91h-2c0,0,3,-54,5,-107c0,0,2,-53,2,-110V27c0,0,0,-7,-5,-13c0,0,-4,-6,-14,-10c0,0,-10,-4,-27,-6c0,0,-17,-2,-44,-2Z" 
id="f0_1y"
transform="scale(0.001,-0.001)" />

<path d="M378,-4c0,0,-28,0,-47,2c0,0,-19,2,-31,5c0,0,-11,4,-16,10c0,0,-4,6,-4,13V805H38c0,0,-8,0,-13,4c0,0,-5,5,-9,14c0,0,-3,9,-5,25c0,0,-2,15,-2,37c0,0,0,22,2,38c0,0,2,15,5,25c0,0,4,9,9,13c0,0,5,4,13,4H718c0,0,7,0,12,-4c0,0,6,-4,10,-13c0,0,3,-10,5,-25c0,0,2,-16,2,-38c0,0,0,-22,-2,-37c0,0,-2,-16,-5,-25c0,0,-4,-9,-10,-14c0,0,-5,-4,-12,-4H476V26c0,0,0,-7,-5,-13c0,0,-5,-6,-16,-10c0,0,-11,-3,-30,-5c0,0,-19,-2,-47,-2Z" 
id="f0_2t"
transform="scale(0.001,-0.001)" />

<path d="M514,145c0,0,72,0,121,27c0,0,48,26,78,73c0,0,30,46,42,107c0,0,13,62,13,131c0,0,0,76,-12,139c0,0,-12,62,-41,106c0,0,-29,45,-76,69c0,0,-48,24,-120,24c0,0,-72,0,-120,-27c0,0,-49,-27,-79,-73c0,0,-29,-45,-42,-106c0,0,-12,-61,-12,-129c0,0,0,-79,12,-142c0,0,12,-63,40,-108c0,0,28,-44,76,-68c0,0,48,-23,120,-23ZM508,-17c0,0,-113,0,-196,29c0,0,-84,29,-140,90c0,0,-56,60,-84,154c0,0,-28,93,-28,221c0,0,0,117,29,210c0,0,30,94,89,160c0,0,59,65,146,101c0,0,87,35,202,35c0,0,110,0,194,-29c0,0,84,-30,140,-90c0,0,56,-60,85,-153c0,0,29,-92,29,-217c0,0,0,-120,-30,-215c0,0,-30,-95,-89,-161C855,118,796,52,709,17c0,0,-87,-34,-201,-34Z" 
id="f0_24"
transform="scale(0.001,-0.001)" />

<path d="M340,-13c0,0,-73,0,-129,20C211,7,155,27,86,74l22,217c0,0,156,-103,245,-103c0,0,64,0,112,45c0,0,47,46,47,107c0,0,0,68,-47,113c0,0,-48,46,-121,46c0,0,-85,0,-184,-42l48,495H681V777H393L382,665c0,0,163,0,251,-95c0,0,88,-95,88,-224c0,0,0,-146,-113,-253C608,93,494,-13,340,-13Z" 
id="f1_p"
transform="scale(0.001,-0.001)" />

<path d="M44,-281L425,1053H537L156,-281Z" 
id="f1_j"
transform="scale(0.001,-0.001)" />

<path d="M299,0V777H162l36,173H508V0Z" 
id="f1_l"
transform="scale(0.001,-0.001)" />

<path d="M75,0L400,413c0,0,71,91,101,149c0,0,30,58,30,109c0,0,0,55,-36,91c0,0,-36,36,-91,36c0,0,-63,0,-91,-45c0,0,-28,-46,-34,-142H67c0,0,0,173,102,268c0,0,102,95,253,95c0,0,140,0,229,-82c0,0,89,-82,89,-209c0,0,0,-125,-104,-276L580,324c0,0,-34,-50,-85,-114L468,178H740V0Z" 
id="f1_m"
transform="scale(0.001,-0.001)" />

<path d="M350,-14c0,0,-142,0,-269,31L73,228h49L156,87c0,0,29,-16,82,-28c0,0,54,-12,100,-12c0,0,117,0,173,54c0,0,56,53,56,178c0,0,0,99,-52,150c0,0,-51,51,-159,56l-107,6v61l107,7c0,0,84,5,124,52c0,0,41,48,41,145c0,0,0,101,-44,147c0,0,-44,45,-139,45c0,0,-40,0,-83,-10c0,0,-43,-11,-76,-29L153,786H104V979c0,0,74,19,127,26c0,0,54,6,107,6c0,0,321,0,321,-246c0,0,0,-104,-57,-165c0,0,-57,-62,-162,-77c0,0,136,-16,200,-78c0,0,64,-62,64,-173c0,0,0,-135,-92,-211c0,0,-93,-75,-262,-75Z" 
id="f2_n"
transform="scale(0.001,-0.001)" />

<path d="M67,0V109L206,235c0,0,133,118,196,190c0,0,63,72,90,149c0,0,27,77,27,177c0,0,0,97,-44,148c0,0,-44,50,-144,50c0,0,-39,0,-81,-10c0,0,-42,-11,-74,-29L150,787H101V980c0,0,135,32,230,32c0,0,164,0,247,-68c0,0,82,-69,82,-193c0,0,0,-84,-32,-158c0,0,-33,-75,-100,-148c0,0,-67,-74,-222,-206c0,0,-67,-57,-141,-125H680V0Z" 
id="f2_m"
transform="scale(0.001,-0.001)" />

<path d="M460,-325c0,0,-148,79,-231,172c0,0,-84,93,-123,217c0,0,-39,126,-39,304c0,0,0,178,39,303c0,0,39,125,122,217c0,0,82,93,232,172V997c0,0,-91,-52,-145,-134c0,0,-54,-81,-79,-190c0,0,-25,-109,-25,-305c0,0,0,-194,26,-309c0,0,26,-114,82,-193c0,0,56,-79,141,-128v-63Z" 
id="f2_c"
transform="scale(0.001,-0.001)" />

<path d="M49,-325v63c0,0,85,49,140,128c0,0,56,79,83,194c0,0,26,115,26,308c0,0,0,196,-25,305c0,0,-25,109,-79,190c0,0,-54,82,-145,134v63c0,0,149,-80,232,-172c0,0,83,-92,122,-217c0,0,39,-125,39,-303c0,0,0,-177,-39,-303c0,0,-39,-125,-122,-217c0,0,-83,-93,-232,-173Z" 
id="f2_d"
transform="scale(0.001,-0.001)" />

<path d="M134,0V40L339,60V876L137,804v39l292,166h39V60L672,40V0Z" 
id="f2_l"
transform="scale(0.001,-0.001)" />

<path d="M410,45c0,0,90,0,130,58c0,0,40,59,40,193c0,0,0,122,-38,177c0,0,-38,54,-122,54c0,0,-102,0,-217,-37c0,0,0,-227,51,-336c0,0,52,-109,156,-109Zm3,-59c0,0,-169,0,-258,131c0,0,-89,131,-89,377c0,0,0,161,47,278c0,0,47,117,131,178c0,0,85,61,196,61c0,0,109,0,217,-26V813H608L582,915c0,0,-25,13,-67,23c0,0,-41,10,-75,10c0,0,-109,0,-170,-105c0,0,-60,-106,-66,-308c0,0,121,63,244,63c0,0,132,0,201,-74c0,0,69,-74,69,-214c0,0,0,-156,-78,-240c0,0,-79,-84,-227,-84Z" 
id="f2_q"
transform="scale(0.001,-0.001)" />

<path d="M512,0L339,860L198,60L330,40L322,0H-17l8,40L120,60L276,941L151,960l7,40H443L597,237l446,763h300l-8,-40L1204,941L1048,60L1173,40L1166,0H760l8,40L905,60l141,800L538,0Z" 
id="f3_1d"
transform="scale(0.001,-0.001)" />

<path d="M188,355c0,0,148,11,236,69c0,0,89,58,89,143c0,0,0,41,-23,68c0,0,-22,27,-66,27c0,0,-52,0,-101,-43c0,0,-49,-42,-85,-114c0,0,-36,-71,-50,-150ZM298,-14c0,0,-120,0,-186,67c0,0,-65,67,-65,193c0,0,0,125,53,232c0,0,52,108,145,175c0,0,94,67,196,67c0,0,92,0,147,-42c0,0,56,-43,56,-111c0,0,0,-102,-126,-173c0,0,-125,-72,-336,-86l-3,-54c0,0,0,-95,40,-143c0,0,40,-47,118,-47c0,0,67,0,124,22c0,0,57,23,106,52l22,-32c0,0,-69,-58,-146,-89c0,0,-76,-31,-145,-31Z" 
id="f3_21"
transform="scale(0.001,-0.001)" />

<path d="M301,78c0,0,85,0,185,104l81,442c0,0,-29,20,-55,28c0,0,-25,8,-62,8c0,0,-75,0,-137,-56c0,0,-62,-56,-98,-152c0,0,-36,-95,-36,-199c0,0,0,-79,33,-127c0,0,33,-48,89,-48ZM245,-14c0,0,-90,0,-145,66c0,0,-54,66,-54,182c0,0,0,131,57,244c0,0,57,114,152,178c0,0,96,64,208,64c0,0,90,0,170,-33l33,26h40L589,52L673,33L667,0H454l22,117C476,117,350,-14,245,-14Z" 
id="f3_1x"
transform="scale(0.001,-0.001)" />

<path d="M54,0L169,649L81,668l6,33H294L274,558c0,0,62,81,130,121c0,0,67,41,132,41c0,0,75,0,113,-41c0,0,38,-41,38,-117c0,0,0,-10,-3,-32c0,0,-3,-21,-81,-478L700,34L695,0H470l76,434c0,0,17,94,17,123c0,0,0,34,-18,55c0,0,-18,21,-56,21c0,0,-56,0,-121,-47c0,0,-65,-47,-108,-117L178,0Z" 
id="f3_2a"
transform="scale(0.001,-0.001)" />

<path d="M-6,0c0,0,-12,10,-12,32c0,0,0,21,23,51c0,0,23,31,79,82L287,354L159,649L79,668l6,33H270L378,434l93,88c0,0,47,46,67,72c0,0,19,26,19,44c0,0,0,8,-6,13c0,0,-7,6,-38,17l6,33H651c0,0,16,-12,16,-32c0,0,0,-44,-103,-142L404,377L548,49L634,33L628,0H437L313,298L185,176c0,0,-41,-40,-60,-65c0,0,-19,-26,-19,-48c0,0,0,-21,31,-29L131,0Z" 
id="f3_2k"
transform="scale(0.001,-0.001)" />

<path d="M457,460c0,0,289,0,289,266c0,0,0,106,-54,157c0,0,-54,50,-163,50H419L335,460ZM-7,0L0,40L120,60L276,941L151,960l7,40H559c0,0,161,0,248,-67c0,0,87,-66,87,-198c0,0,0,-167,-109,-255c0,0,-109,-88,-312,-88H323L264,60L427,40L420,0Z" 
id="f3_1g"
transform="scale(0.001,-0.001)" />

<path d="M0,214v74H784V214ZM0,494v72H784V494Z" 
id="f4_x"
transform="scale(0.001,-0.001)" />

<path d="M0,-152v27L499,494L0,1104v27H953L974,881H943c0,0,-12,103,-57,147c0,0,-46,44,-127,44H205L625,558L156,-20H766c0,0,52,0,114,20c0,0,43,13,70,49c0,0,28,36,47,113l30,-5L980,-152Z" 
id="f4_4n"
transform="scale(0.001,-0.001)" />

<path d="M536,-22L130,941L17,960v40H421V960L287,941L590,205L892,941L761,960v40h325V960L976,941L574,-22Z" 
id="f2_1m"
transform="scale(0.001,-0.001)" />

<path d="M284,67c0,0,51,0,88,12c0,0,37,12,74,30V358l-98,-3c0,0,-100,-4,-135,-39c0,0,-35,-35,-35,-117c0,0,0,-132,106,-132ZM233,-14c0,0,-179,0,-179,208c0,0,0,70,27,116c0,0,27,46,87,70c0,0,60,24,173,27l105,3V519c0,0,0,72,-26,107c0,0,-27,34,-82,34c0,0,-75,0,-137,-35L176,538H134V691c0,0,121,26,213,26c0,0,115,0,169,-47c0,0,54,-47,54,-144V52L657,33V0H465L451,70c0,0,-85,-84,-218,-84Z" 
id="f2_1x"
transform="scale(0.001,-0.001)" />

<path d="M31,0V33l88,19V649L31,668v33H235l7,-87c0,0,44,37,121,71c0,0,76,35,121,35h11V530H463l-43,82c0,0,-37,0,-88,-10c0,0,-52,-10,-89,-26V52L363,33V0Z" 
id="f2_2e"
transform="scale(0.001,-0.001)" />

<path d="M32,0V33L151,52V649L52,668v33H275V52L395,33V0ZM201,850c0,0,-32,0,-56,24c0,0,-24,24,-24,56c0,0,0,34,24,58c0,0,24,24,56,24c0,0,34,0,58,-24c0,0,24,-24,24,-58c0,0,0,-32,-24,-56c0,0,-24,-24,-58,-24Z" 
id="f2_25"
transform="scale(0.001,-0.001)" />

<path d="M439,0V33l93,19V500c0,0,0,62,-30,97c0,0,-31,36,-94,36c0,0,-67,0,-165,-22V52L338,33V0H35V33l84,19V649L35,668v33H235l7,-57c0,0,57,33,122,54c0,0,65,22,108,22c0,0,91,0,137,-53c0,0,47,-53,47,-154V52L741,33V0Z" 
id="f2_2a"
transform="scale(0.001,-0.001)" />

<path d="M399,-14c0,0,-341,0,-341,370c0,0,0,175,87,269c0,0,87,95,249,95c0,0,101,0,220,-23V501H573L541,625c0,0,-62,35,-149,35c0,0,-200,0,-200,-304c0,0,0,-158,61,-225c0,0,61,-67,189,-67c0,0,109,0,189,24V43C631,43,595,16,530,1c0,0,-64,-15,-131,-15Z" 
id="f2_1z"
transform="scale(0.001,-0.001)" />

<path d="M495,413c0,0,0,133,-34,190c0,0,-34,57,-105,57c0,0,-78,0,-119,-63c0,0,-42,-62,-42,-184ZM374,-14c0,0,-163,0,-239,87c0,0,-75,88,-75,283c0,0,0,183,77,273c0,0,76,91,219,91c0,0,269,0,269,-306V353H194V340c0,0,0,-103,23,-160c0,0,22,-57,70,-87c0,0,47,-29,124,-29c0,0,40,0,96,6c0,0,55,7,91,15V43C598,43,562,20,500,3c0,0,-61,-17,-126,-17Z" 
id="f2_21"
transform="scale(0.001,-0.001)" />

<path d="M412,-328c0,0,-195,96,-303,284C109,-44,0,142,0,365c0,0,0,232,114,422c0,0,114,191,298,273v-31c0,0,-92,-51,-151,-139c0,0,-59,-88,-88,-223c0,0,-29,-136,-29,-282c0,0,0,-167,27,-301c0,0,26,-133,82,-221c0,0,55,-89,159,-159v-32Z" 
id="f4_c"
transform="scale(0.001,-0.001)" />

<path d="M34,-328v32c0,0,92,50,151,138c0,0,59,88,88,222c0,0,29,135,29,283c0,0,0,165,-27,300c0,0,-26,134,-82,222c0,0,-56,89,-159,160v31c0,0,194,-96,303,-284c0,0,108,-187,108,-410c0,0,0,-232,-114,-422c0,0,-114,-191,-297,-272Z" 
id="f4_d"
transform="scale(0.001,-0.001)" />

<path d="M377,45c0,0,100,0,147,52c0,0,47,52,47,174c0,0,0,119,-46,173c0,0,-47,54,-148,54c0,0,-98,0,-141,-51c0,0,-44,-51,-44,-176c0,0,0,-126,44,-176c0,0,44,-50,141,-50Zm2,518c0,0,84,0,123,46c0,0,39,46,39,148c0,0,0,102,-40,151c0,0,-41,48,-122,48c0,0,-79,0,-118,-47c0,0,-38,-47,-38,-152c0,0,0,-104,37,-149c0,0,38,-45,119,-45ZM377,-14c0,0,-319,0,-319,285c0,0,0,99,48,164c0,0,48,66,129,96c0,0,-65,30,-106,87c0,0,-40,56,-40,139c0,0,0,123,75,191c0,0,76,68,219,68c0,0,139,0,216,-67c0,0,76,-68,76,-192c0,0,0,-82,-40,-139c0,0,-40,-57,-108,-87c0,0,85,-31,132,-98c0,0,47,-67,47,-162c0,0,0,-142,-80,-214c0,0,-80,-71,-249,-71Z" 
id="f2_s"
transform="scale(0.001,-0.001)" />

<path d="M377,45c0,0,99,0,145,108c0,0,46,109,46,352c0,0,0,240,-45,345c0,0,-46,106,-146,106c0,0,-97,0,-139,-100c0,0,-43,-99,-43,-351c0,0,0,-254,44,-357c0,0,43,-103,138,-103Zm0,-59c0,0,-158,0,-238,132c0,0,-81,133,-81,386c0,0,0,249,81,380c0,0,80,132,244,132c0,0,159,0,241,-130c0,0,82,-130,82,-382c0,0,0,-518,-329,-518Z" 
id="f2_k"
transform="scale(0.001,-0.001)" />

<path d="M0,356v74H784V356Z" 
id="f4_h"
transform="scale(0.001,-0.001)" />

<path d="M122,0V64L295,82V837L123,780v64l282,165H511V82L685,64V0Z" 
id="f5_l"
transform="scale(0.001,-0.001)" />

<path d="M64,0V141c0,0,64,68,119,123c0,0,119,118,174,185c0,0,56,68,81,140c0,0,26,72,26,165c0,0,0,81,-40,131c0,0,-39,50,-105,50c0,0,-46,0,-74,-10c0,0,-27,-10,-50,-29L163,751H98V979c0,0,59,13,116,23c0,0,58,9,125,9c0,0,165,0,252,-68c0,0,88,-68,88,-193c0,0,0,-78,-26,-142c0,0,-26,-64,-83,-124c0,0,-56,-61,-224,-197c0,0,-64,-52,-139,-119H698V0Z" 
id="f5_m"
transform="scale(0.001,-0.001)" />

<path d="M191,-20c0,0,-51,0,-88,34c0,0,-36,36,-36,88c0,0,0,52,36,88c0,0,36,36,88,36c0,0,51,0,88,-36c0,0,36,-36,36,-88c0,0,0,-51,-36,-87c0,0,-36,-35,-88,-35Z" 
id="f5_i"
transform="scale(0.001,-0.001)" />

<path d="M55,0V40L184,60V941L55,960v40H455V960L327,941V60L455,40V0Z" 
id="f2_19"
transform="scale(0.001,-0.001)" />

<path d="M64,0V34L168,59V639H47v36l121,29v49c0,0,0,155,61,239c0,0,62,84,173,84c0,0,58,0,107,-15V908H472l-33,92c0,0,-26,16,-62,16c0,0,-47,0,-66,-42c0,0,-19,-42,-19,-157V701H478V639H292V59L443,34V0Z" 
id="f2_22"
transform="scale(0.001,-0.001)" />

<path d="M17,0V37c0,0,25,9,45,22c0,0,19,13,40,35c0,0,20,21,54,62L311,348L152,566c0,0,-33,45,-52,65c0,0,-19,20,-36,31c0,0,-16,10,-33,15v36H324V677c0,0,-59,-9,-59,-47c0,0,0,-17,8,-34c0,0,7,-17,24,-38L388,430l97,124c0,0,16,20,25,39c0,0,10,19,10,39c0,0,0,17,-13,28c0,0,-12,11,-39,17v36H712V677c0,0,-29,-9,-58,-32c0,0,-30,-24,-72,-77L427,378L598,149c0,0,36,-49,65,-75c0,0,29,-26,58,-37V0H421V37c0,0,62,7,62,46c0,0,0,15,-5,30c0,0,-5,14,-19,32L351,296L236,147c0,0,-13,-16,-20,-30c0,0,-7,-14,-7,-31c0,0,0,-20,14,-33c0,0,13,-13,43,-16V0Z" 
id="f6_4b"
transform="scale(0.001,-0.001)" />

<path d="M73,0V37c0,0,28,9,41,15c0,0,12,7,21,19c0,0,9,12,13,36c0,0,5,25,5,77V510c0,0,0,47,-2,76c0,0,-1,29,-10,47c0,0,-9,17,-27,26c0,0,-19,9,-52,15v38l174,8h46L274,589l10,-2c0,0,41,50,76,79c0,0,35,29,76,44c0,0,41,16,92,16c0,0,43,0,78,-5V550H522c0,0,-18,40,-38,58c0,0,-20,19,-55,19c0,0,-27,0,-53,-16c0,0,-27,-16,-51,-46c0,0,-25,-29,-34,-55c0,0,-10,-27,-10,-62V186c0,0,0,-67,8,-93c0,0,9,-26,28,-38c0,0,19,-12,57,-18V0Z" 
id="f6_oy"
transform="scale(0.001,-0.001)" />

<path d="M72,0V37c0,0,29,9,42,15c0,0,12,7,21,19c0,0,8,12,13,36c0,0,5,25,5,77V510c0,0,0,47,-2,76c0,0,-1,29,-10,47c0,0,-9,17,-27,26c0,0,-19,9,-52,15v39l174,7h45V186c0,0,0,-64,6,-89c0,0,6,-25,23,-38c0,0,17,-13,55,-22V0Zm76,861v145H286V861Z" 
id="f6_ov"
transform="scale(0.001,-0.001)" />

<path d="M112,-326c0,0,-41,0,-93,10v148H86c0,0,9,-31,22,-43c0,0,14,-12,39,-12c0,0,22,0,40,9c0,0,17,8,36,29c0,0,19,21,45,64c0,0,26,44,58,110L117,550c0,0,-20,54,-32,76c0,0,-13,22,-27,33c0,0,-14,11,-43,18v36H319V677c0,0,-36,-9,-50,-16c0,0,-14,-8,-21,-21c0,0,-6,-12,-6,-31c0,0,0,-20,5,-42c0,0,4,-22,15,-51L395,142L544,501c0,0,13,29,20,54c0,0,7,25,7,47c0,0,0,32,-18,48c0,0,-17,17,-61,27v36H771V677c0,0,-29,-6,-44,-19c0,0,-16,-12,-32,-38c0,0,-15,-27,-37,-75L388,-60c0,0,-41,-93,-80,-150c0,0,-39,-58,-85,-87c0,0,-47,-29,-111,-29Z" 
id="f6_4c"
transform="scale(0.001,-0.001)" />

<path d="M29,-329L4,-264c0,0,46,18,70,34c0,0,24,16,40,37c0,0,16,22,24,57c0,0,8,36,8,92V510c0,0,0,58,-2,83c0,0,-2,25,-10,40c0,0,-7,15,-23,23c0,0,-16,9,-57,18v39l175,7h46V14c0,0,0,-103,-22,-166c0,0,-22,-63,-75,-106c0,0,-53,-44,-149,-71ZM142,861v145H278V861Z" 
id="f6_ow"
transform="scale(0.001,-0.001)" />

<path d="M60,0V37L469,653H267c0,0,-37,0,-59,-14c0,0,-22,-13,-41,-44c0,0,-19,-32,-37,-85H65V713H630V676L222,60H419c0,0,38,0,58,6c0,0,19,6,33,19c0,0,14,13,28,42c0,0,13,28,32,89h65V0Z" 
id="f6_oz"
transform="scale(0.001,-0.001)" />

<path d="M59,0V37c0,0,37,9,52,20c0,0,14,10,21,25c0,0,6,14,9,39c0,0,2,25,2,65V811c0,0,0,72,-1,100c0,0,-1,28,-6,48c0,0,-5,20,-13,31c0,0,-9,11,-23,18c0,0,-15,7,-53,13v39l180,8h45V416h23c0,0,25,0,41,5c0,0,18,6,41,22c0,0,22,17,63,55c0,0,34,32,52,54c0,0,18,22,24,41c0,0,6,16,6,31c0,0,0,23,-14,35c0,0,-13,13,-45,18v36H785V677c0,0,-35,-7,-73,-31c0,0,-39,-24,-80,-63L460,421L675,140c0,0,37,-49,68,-72c0,0,30,-24,66,-31V0H522V37c0,0,20,2,29,8c0,0,9,6,9,21c0,0,0,12,-4,22c0,0,-4,11,-17,30c0,0,-12,19,-46,65L404,302c0,0,-25,34,-36,44c0,0,-11,11,-23,15c0,0,-12,5,-32,5H272V186c0,0,0,-64,6,-89c0,0,5,-25,22,-38c0,0,17,-13,55,-22V0Z" 
id="f6_ox"
transform="scale(0.001,-0.001)" />

<path d="M58,-205l-40,46c0,0,38,35,55,64c0,0,17,29,25,65c0,0,7,36,7,91c0,0,0,57,-5,112H231c0,0,10,-52,10,-103c0,0,0,-52,-18,-94c0,0,-18,-44,-57,-86c0,0,-39,-43,-108,-95Z" 
id="f6_os"
transform="scale(0.001,-0.001)" />

<path d="M383,64c0,0,85,0,152,28V645c0,0,-67,13,-152,13c0,0,-194,0,-194,-314c0,0,0,-141,48,-211c0,0,48,-69,146,-69ZM342,-14c0,0,-287,0,-287,358c0,0,0,184,82,280c0,0,81,96,239,96c0,0,81,0,163,-18c0,0,-4,25,-4,124v182l-118,18v34H659V52L745,33V0H548l-9,52c0,0,-84,-66,-197,-66Z" 
id="f2_20"
transform="scale(0.001,-0.001)" />

<path d="M586,-336c0,0,-219,57,-335,247c0,0,-117,189,-117,459c0,0,0,269,117,460c0,0,117,191,335,248l20,-57c0,0,-175,-58,-259,-225c0,0,-84,-166,-84,-419c0,0,0,-261,84,-429c0,0,84,-169,257,-227l-18,-57Z" 
id="f6_oq"
transform="scale(0.001,-0.001)" />

<path d="M48,-336l-17,57c0,0,172,58,256,227c0,0,84,168,84,429c0,0,0,253,-84,419c0,0,-83,167,-259,225l20,57c0,0,218,-57,335,-248c0,0,117,-191,117,-460c0,0,0,-270,-117,-459c0,0,-116,-190,-335,-247Z" 
id="f6_or"
transform="scale(0.001,-0.001)" />

<path d="M191,-20c0,0,-39,0,-65,25c0,0,-25,27,-25,64c0,0,0,38,26,64c0,0,26,26,64,26c0,0,38,0,64,-26c0,0,26,-26,26,-64c0,0,0,-37,-25,-64c0,0,-26,-25,-65,-25Z" 
id="f2_i"
transform="scale(0.001,-0.001)" />

<path d="M410,-14c0,0,-86,0,-175,14C235,0,145,14,81,38V307h66L181,146c0,0,31,-37,94,-62c0,0,64,-24,132,-24c0,0,214,0,214,177c0,0,0,55,-41,93c0,0,-41,38,-128,68c0,0,-128,42,-185,68c0,0,-56,27,-95,63c0,0,-38,36,-62,87c0,0,-23,51,-23,125c0,0,0,132,90,201c0,0,90,69,263,69c0,0,125,0,278,-32V741H651L618,878c0,0,-76,56,-178,56c0,0,-92,0,-141,-34c0,0,-49,-34,-49,-104c0,0,0,-50,41,-86c0,0,41,-35,128,-63c0,0,171,-56,235,-97c0,0,64,-41,97,-103c0,0,34,-61,34,-143c0,0,0,-318,-375,-318Z" 
id="f5_1j"
transform="scale(0.001,-0.001)" />

<path d="M379,60c0,0,59,0,84,64c0,0,24,65,24,231c0,0,0,164,-24,227c0,0,-24,63,-84,63c0,0,-57,0,-80,-60c0,0,-22,-61,-22,-230c0,0,0,-173,23,-234c0,0,22,-61,79,-61Zm-2,-74c0,0,-161,0,-240,91c0,0,-79,91,-79,277c0,0,0,186,80,276c0,0,81,90,245,90c0,0,167,0,245,-93c0,0,78,-93,78,-273c0,0,0,-188,-81,-278c0,0,-81,-90,-248,-90Z" 
id="f5_2b"
transform="scale(0.001,-0.001)" />

<path d="M30,0V49l76,18V992l-72,18v50H322V67L398,49V0Z" 
id="f5_28"
transform="scale(0.001,-0.001)" />

<path d="M287,-18c0,0,-194,0,-194,206V634L23,652v49H309V217c0,0,0,-63,26,-98c0,0,27,-35,76,-35c0,0,57,0,113,25V634l-64,18v49H740V67L809,49V0H536L526,61L475,35c0,0,-104,-53,-188,-53Z" 
id="f5_2h"
transform="scale(0.001,-0.001)" />

<path d="M327,-14c0,0,-101,0,-156,45c0,0,-55,45,-55,131V624H25v48l108,29l87,159H332V701H480V624H332V176c0,0,0,-49,20,-73c0,0,20,-25,53,-25c0,0,40,0,97,12V26c0,0,-22,-15,-76,-27c0,0,-55,-13,-99,-13Z" 
id="f5_2g"
transform="scale(0.001,-0.001)" />

<path d="M34,0V49l76,18V634L38,652v49H325V67L402,49V0ZM217,831c0,0,-48,0,-81,33c0,0,-34,33,-34,82c0,0,0,48,34,81c0,0,34,33,81,33c0,0,48,0,81,-33c0,0,33,-33,33,-81c0,0,0,-47,-33,-81c0,0,-32,-34,-81,-34Z" 
id="f5_25"
transform="scale(0.001,-0.001)" />

<path d="M41,0V49l69,18V634L41,652v49H313l11,-61l50,26c0,0,105,54,188,54c0,0,194,0,194,-207V67L827,49V0H478V49l63,18V484c0,0,0,63,-27,98c0,0,-26,35,-75,35c0,0,-57,0,-114,-25V67L389,49V0Z" 
id="f5_2a"
transform="scale(0.001,-0.001)" />

<path d="M248,-20c0,0,-52,0,-87,34c0,0,-36,36,-36,88c0,0,0,52,36,88c0,0,35,36,87,36c0,0,52,0,88,-36c0,0,36,-36,36,-88c0,0,0,-51,-36,-87c0,0,-35,-35,-88,-35Zm0,488c0,0,-52,0,-87,36c0,0,-36,36,-36,88c0,0,0,52,35,88c0,0,35,36,88,36c0,0,53,0,89,-36c0,0,35,-37,35,-88c0,0,0,-51,-36,-87c0,0,-35,-37,-88,-37Z" 
id="f5_u"
transform="scale(0.001,-0.001)" />

<path d="M465,786H442L239,946L67,786H45l141,248H324L465,786Z" 
id="f7_5z"
transform="scale(0.001,-0.001)" />

<path d="M62,0L176,649L88,668l6,33H301L278,543c0,0,55,84,124,130c0,0,69,47,138,47c0,0,37,0,59,-6L566,530H534l-28,95c0,0,-60,0,-124,-46c0,0,-63,-45,-116,-120L186,0Z" 
id="f3_2e"
transform="scale(0.001,-0.001)" />

<path d="M85,0L199,649l-96,19l6,33H332L218,52L335,33L329,0ZM297,849c0,0,-33,0,-57,24c0,0,-24,24,-24,57c0,0,0,33,24,57c0,0,24,24,57,24c0,0,33,0,57,-24c0,0,24,-24,24,-57c0,0,0,-33,-24,-57c0,0,-24,-24,-57,-24Z" 
id="f3_25"
transform="scale(0.001,-0.001)" />

<path d="M-15,-329c0,0,-61,0,-112,13l28,152h34l12,-72c0,0,18,-17,60,-17c0,0,100,0,212,202L253,9L116,649L33,668l6,33H230L338,155L513,458c0,0,48,83,48,144c0,0,0,27,-16,44c0,0,-15,16,-33,22l6,33H659c0,0,20,-17,20,-47c0,0,0,-59,-62,-164L322,-7c0,0,-86,-145,-135,-205c0,0,-50,-61,-98,-89c0,0,-49,-28,-104,-28Z" 
id="f3_2l"
transform="scale(0.001,-0.001)" />

<path d="M-43,-325c0,0,-60,0,-119,23l24,140h35l12,-83c0,0,20,-20,52,-20c0,0,48,0,76,48c0,0,28,48,46,151L210,649L107,668l6,33H342L213,-28c0,0,-27,-151,-90,-224c0,0,-63,-73,-166,-73ZM306,849c0,0,-33,0,-57,24c0,0,-24,24,-24,57c0,0,0,33,24,57c0,0,24,24,57,24c0,0,33,0,57,-24c0,0,24,-24,24,-57c0,0,0,-33,-24,-57c0,0,-24,-24,-57,-24Z" 
id="f3_26"
transform="scale(0.001,-0.001)" />

<path d="M-16,0l7,34L410,641H299c0,0,-42,0,-81,-7c0,0,-40,-7,-58,-19L119,514H84l34,187H574l-6,-36L149,60H296c0,0,42,0,81,9c0,0,40,9,66,26l57,109h35L481,0Z" 
id="f3_2m"
transform="scale(0.001,-0.001)" />

<path d="M44,0L223,1008l-101,18l6,34H356L228,338L547,647l-70,20l6,34H700l-5,-34L634,650L415,441L596,51L669,34L663,0H487L324,357L214,254L168,0Z" 
id="f3_27"
transform="scale(0.001,-0.001)" />

<path d="M52,62L0,114L278,390L0,667l52,52L330,442L608,719l51,-51L382,390L659,114L608,62L330,338L52,62Z" 
id="f4_3a"
transform="scale(0.001,-0.001)" />

<path d="M355,0V355H0v72H355V784h72V427H782V355H427V0Z" 
id="f4_f"
transform="scale(0.001,-0.001)" />

<path d="M58,-234v58c0,0,131,42,131,125c0,0,0,15,-11,27c0,0,-11,12,-38,25C140,1,89,27,89,75c0,0,0,40,25,61c0,0,26,21,65,21c0,0,48,0,77,-34c0,0,30,-34,30,-86c0,0,0,-101,-60,-170c0,0,-59,-69,-168,-101Z" 
id="f2_g"
transform="scale(0.001,-0.001)" />

<path d="M325,47c0,0,68,0,130,54c0,0,61,55,97,149c0,0,36,94,36,202c0,0,0,103,-39,156c0,0,-39,53,-113,53c0,0,-67,0,-128,-54c0,0,-61,-55,-96,-149c0,0,-35,-94,-35,-204c0,0,0,-101,39,-154c0,0,39,-53,109,-53Zm-6,-61c0,0,-124,0,-199,79c0,0,-74,79,-74,214c0,0,0,120,51,222c0,0,51,102,143,160c0,0,91,59,205,59c0,0,124,0,199,-80c0,0,74,-79,74,-214c0,0,0,-120,-51,-222C667,204,615,102,524,43c0,0,-91,-57,-205,-57Z" 
id="f3_2b"
transform="scale(0.001,-0.001)" />

<path d="M83,308c0,0,-35,0,-59,24c0,0,-24,24,-24,59c0,0,0,34,24,58c0,0,24,24,59,24c0,0,33,0,58,-24c0,0,24,-24,24,-58c0,0,0,-35,-24,-59c0,0,-25,-24,-58,-24Z" 
id="f4_49"
transform="scale(0.001,-0.001)" />

<path d="M342,-14c0,0,-138,0,-276,29L57,258h69L165,96c0,0,65,-36,136,-36c0,0,90,0,141,58c0,0,50,57,50,161c0,0,0,91,-40,139c0,0,-41,48,-132,54l-87,5v90l84,6c0,0,66,5,98,49c0,0,32,44,32,134c0,0,0,83,-38,131c0,0,-38,48,-107,48c0,0,-40,0,-66,-13c0,0,-26,-12,-49,-26L155,751H90V979c0,0,76,19,132,26c0,0,55,6,108,6c0,0,337,0,337,-246c0,0,0,-102,-54,-164c0,0,-54,-63,-153,-78c0,0,252,-30,252,-251c0,0,0,-136,-98,-211c0,0,-98,-75,-272,-75Z" 
id="f5_n"
transform="scale(0.001,-0.001)" />

<path d="M54,0V40L172,60V941L44,960v40H794V760H745L721,922c0,0,-83,11,-241,11H316V516H611l23,120h46V328H634L611,449H316V60L483,40V0Z" 
id="f2_16"
transform="scale(0.001,-0.001)" />

<path d="M249,-14c0,0,-71,0,-107,42c0,0,-35,42,-35,119V639H15v33l93,29l76,159h47V701H391V639H231V161c0,0,0,-48,22,-73c0,0,22,-24,57,-24c0,0,44,0,106,12V26C416,26,389,8,340,-2c0,0,-49,-12,-91,-12Z" 
id="f2_2g"
transform="scale(0.001,-0.001)" />

<path d="M442,0V33l93,19V504c0,0,0,129,-124,129c0,0,-70,0,-168,-22V52L338,33V0H31V33l88,19v956L15,1026v34H243V756c0,0,0,-77,-5,-112c0,0,54,31,122,53c0,0,68,23,115,23c0,0,91,0,137,-53c0,0,47,-53,47,-154V52L744,33V0Z" 
id="f2_24"
transform="scale(0.001,-0.001)" />

<path d="M278,-14c0,0,-52,0,-115,11c0,0,-63,10,-99,23V193H98L134,95c0,0,56,-50,146,-50c0,0,144,0,144,123c0,0,0,91,-114,130l-66,21c0,0,-75,25,-110,50c0,0,-34,26,-53,63c0,0,-18,36,-18,89c0,0,0,92,63,145c0,0,63,54,170,54c0,0,77,0,193,-23V544H454l-32,81c0,0,-39,35,-124,35c0,0,-61,0,-92,-30c0,0,-32,-30,-32,-80c0,0,0,-43,29,-72c0,0,28,-29,86,-48c0,0,110,-38,144,-55c0,0,33,-17,57,-42c0,0,23,-25,36,-57c0,0,13,-32,13,-79c0,0,0,-104,-66,-158c0,0,-66,-53,-195,-53Z" 
id="f2_2f"
transform="scale(0.001,-0.001)" />

<path d="M376,50c0,0,103,0,149,80c0,0,46,81,46,240c0,0,0,137,-47,204c0,0,-48,67,-148,67c0,0,-44,0,-87,-7c0,0,-44,-8,-63,-17V62c0,0,63,-12,150,-12Zm3,-64c0,0,-64,0,-141,14c0,0,-78,14,-136,37v971L0,1026v34H226V809c0,0,0,-40,-4,-148c0,0,74,59,188,59c0,0,143,0,219,-87c0,0,77,-87,77,-263c0,0,0,-189,-84,-287c0,0,-84,-97,-243,-97Z" 
id="f2_1y"
transform="scale(0.001,-0.001)" />

<path d="M327,-14L84,649L1,668v33H335V668L219,648L385,174L554,632h63L786,171L944,649L830,668v33h267V668l-78,-16L784,-14H726L553,448L382,-14Z" 
id="f2_2j"
transform="scale(0.001,-0.001)" />

<path d="M382,45c0,0,188,0,188,314c0,0,0,143,-47,213c0,0,-46,69,-141,69c0,0,-87,0,-146,-24V58c0,0,67,-13,146,-13ZM25,-325v35l88,18V649L34,668v33H231l1,-41c0,0,31,27,84,43c0,0,53,17,107,17c0,0,134,0,208,-94c0,0,73,-93,73,-267c0,0,0,-178,-80,-276c0,0,-80,-97,-232,-97c0,0,-84,0,-160,16c0,0,4,-53,4,-84V-272l123,-18v-35Z" 
id="f2_2c"
transform="scale(0.001,-0.001)" />

<path d="M377,45c0,0,99,0,147,73c0,0,47,73,47,237c0,0,0,161,-47,233c0,0,-47,72,-147,72c0,0,-97,0,-141,-69c0,0,-44,-69,-44,-236c0,0,0,-169,45,-240c0,0,44,-70,140,-70Zm0,-59c0,0,-158,0,-238,94c0,0,-81,95,-81,274c0,0,0,178,81,272c0,0,80,94,244,94c0,0,160,0,241,-92c0,0,82,-92,82,-274c0,0,0,-368,-329,-368Z" 
id="f2_2b"
transform="scale(0.001,-0.001)" />

<path d="M57,302V417H454V302Z" 
id="f2_h"
transform="scale(0.001,-0.001)" />

<path d="M350,-14c0,0,-142,0,-253,31L89,228h49L172,87c0,0,32,-18,78,-29c0,0,46,-11,88,-11c0,0,118,0,173,56c0,0,56,55,56,187c0,0,0,93,-24,140c0,0,-24,47,-76,70c0,0,-52,22,-140,22c0,0,-68,0,-133,-18H122v496H630V886H189V567c0,0,81,18,173,18c0,0,173,0,258,-71c0,0,84,-71,84,-216c0,0,0,-151,-92,-232c0,0,-91,-80,-262,-80Z" 
id="f2_p"
transform="scale(0.001,-0.001)" />

<path d="M31,0V33L150,52v956L31,1026v34H274V52L394,33V0Z" 
id="f2_28"
transform="scale(0.001,-0.001)" />

<path d="M13,0V34L95,46L325,350L122,649L40,668v33H357V668L264,648L399,446L554,649l-96,19v33H710V668L630,652L433,397L663,50L745,34V0H427V34l94,17L359,299L169,50L266,34V0Z" 
id="f2_2k"
transform="scale(0.001,-0.001)" />

<path d="M148,-329c0,0,-58,0,-114,13v151H69l24,-71c0,0,23,-17,64,-17c0,0,39,0,72,22c0,0,33,23,60,67c0,0,27,44,68,157L90,649L19,668v33H344V668L233,648L423,158L606,649L497,668v33H758V668L685,652L411,-43c0,0,-48,-124,-84,-177c0,0,-36,-54,-79,-82c0,0,-44,-27,-100,-27Z" 
id="f2_2l"
transform="scale(0.001,-0.001)" />

<path d="M392,152V469H76v77H392V863h77V546H787V469H469V152Z" 
id="f2_f"
transform="scale(0.001,-0.001)" />

<path d="M41,0V34L426,641H261c0,0,-42,0,-80,-7c0,0,-39,-7,-54,-19L104,515H69V701H586V665L201,60H407c0,0,42,0,89,10c0,0,47,10,66,25l39,147h35L617,0Z" 
id="f2_2m"
transform="scale(0.001,-0.001)" />

<path d="M76,316v76H787V316Zm0,306v76H787V622Z" 
id="f2_x"
transform="scale(0.001,-0.001)" />

<path d="M476,327V830h-4L114,327ZM476,0V220H30v99l488,686h86V327H740V220H604V0Z" 
id="f2_o"
transform="scale(0.001,-0.001)" />

<path d="M-12,338v55H777V338Z" 
id="f7_4y"
transform="scale(0.001,-0.001)" />

<path d="M681,416L504,902L333,416ZM669,0V40L803,60L704,348H310L210,60L344,40V0H15V40L128,60l341,949H611L965,60L1092,40V0Z" 
id="f2_11"
transform="scale(0.001,-0.001)" />

<path d="M228,-14c0,0,-103,0,-209,46L49,200H83L95,99c0,0,20,-21,55,-38c0,0,36,-16,81,-16c0,0,163,0,163,133c0,0,0,44,-35,78c0,0,-34,34,-113,72c0,0,-75,37,-112,81c0,0,-36,45,-36,104c0,0,0,99,66,153c0,0,67,54,184,54c0,0,85,0,200,-26L521,538H486l-11,80c0,0,-47,42,-124,42c0,0,-61,0,-97,-28c0,0,-37,-28,-37,-87c0,0,0,-40,31,-71c0,0,32,-30,119,-75c0,0,78,-40,113,-86c0,0,36,-47,36,-107c0,0,0,-113,-71,-167c0,0,-72,-53,-217,-53Z" 
id="f3_2f"
transform="scale(0.001,-0.001)" />

<path d="M620,-14c0,0,-52,0,-93,43c0,0,-41,45,-77,203L384,522L132,0H0L340,703l-12,66c0,0,-23,107,-61,146c0,0,-37,38,-83,38c0,0,-42,0,-74,-30c0,0,-31,-31,-41,-100H43c0,0,2,117,57,187c0,0,40,51,96,51c0,0,50,0,86,-40c0,0,54,-60,88,-213L489,283c0,0,27,-118,62,-153c0,0,33,-36,79,-36c0,0,43,0,71,29c0,0,28,29,33,94h30c0,0,1,-19,1,-29c0,0,0,-98,-49,-158c0,0,-37,-44,-96,-44Z" 
id="f4_28"
transform="scale(0.001,-0.001)" />

<path d="M235,0V40L394,60V936H356c0,0,-189,0,-258,-15L78,766H28v234H908V766H857L837,921c0,0,-22,5,-98,9c0,0,-75,4,-165,4H538V60L697,40V0Z" 
id="f2_1k"
transform="scale(0.001,-0.001)" />

<path d="M945,-20c0,0,47,75,125,153H57v74H1147l108,91c0,0,23,19,95,72c0,0,-134,103,-203,166H57v72H1070c0,0,-78,78,-125,154h85c0,0,88,-107,217,-217c0,0,130,-110,206,-154V349c0,0,-101,-58,-219,-162c0,0,-118,-103,-204,-207Z" 
id="f4_4g"
transform="scale(0.001,-0.001)" />

<path d="M83,0C83,0,48,0,24,24C24,24,0,49,0,83c0,0,0,34,24,58c0,0,24,24,59,24c0,0,34,0,58,-24c0,0,24,-24,24,-58c0,0,0,-34,-24,-59C141,24,117,0,83,0ZM695,0c0,0,-34,0,-58,24c0,0,-25,25,-25,59c0,0,0,34,25,58c0,0,24,24,58,24c0,0,34,0,58,-24c0,0,24,-24,24,-58c0,0,0,-34,-24,-59C753,24,729,0,695,0ZM388,594c0,0,-34,0,-59,23c0,0,-24,24,-24,59c0,0,0,34,24,58c0,0,25,25,59,25c0,0,34,0,58,-25c0,0,24,-24,24,-58c0,0,0,-35,-24,-59c0,0,-24,-23,-58,-23Z" 
id="f4_1s"
transform="scale(0.001,-0.001)" />

<path d="M394,460c0,0,126,0,186,57c0,0,60,57,60,187c0,0,0,123,-57,176c0,0,-58,53,-194,53H316V460ZM54,0V40L172,60V941L44,960v40H421c0,0,368,0,368,-295c0,0,0,-153,-93,-233c0,0,-93,-80,-267,-80H316V60L475,40V0Z" 
id="f2_1g"
transform="scale(0.001,-0.001)" />

<path d="M448,506c0,0,134,0,190,49c0,0,57,50,57,168c0,0,0,114,-56,162c0,0,-56,48,-195,48H316V506ZM777,0L496,438H316V60L468,40V0H54V40L172,60V941L44,960v40H476c0,0,188,0,277,-63c0,0,90,-64,90,-204c0,0,0,-100,-54,-173c0,0,-55,-73,-151,-101L909,60L1017,40V0Z" 
id="f2_1i"
transform="scale(0.001,-0.001)" />

<path d="M383,64c0,0,44,0,87,7c0,0,43,7,65,17V645c0,0,-67,13,-152,13c0,0,-194,0,-194,-309c0,0,0,-143,48,-214c0,0,47,-71,146,-71Zm56,-389v35l96,18V-77c0,0,0,73,7,124c0,0,-79,-61,-200,-61c0,0,-287,0,-287,362c0,0,0,180,81,276c0,0,81,96,237,96c0,0,84,0,166,-18l67,33h53V-272l77,-18v-35Z" 
id="f2_2d"
transform="scale(0.001,-0.001)" />

<path d="M289,-14c0,0,-179,0,-179,205V649L20,668v33H233V200c0,0,0,-128,120,-128c0,0,92,0,173,23V649L420,668v33H649V52L738,33V0H533l-6,57C527,57,474,28,405,7c0,0,-69,-21,-116,-21Z" 
id="f2_2h"
transform="scale(0.001,-0.001)" />

<path d="M435,350V646c0,0,0,84,7,158L145,350ZM435,0V198H21V319l450,686H636V350H736V198H636V0Z" 
id="f5_o"
transform="scale(0.001,-0.001)" />

<path d="M595,60c0,0,141,0,206,102c0,0,65,102,65,340c0,0,0,236,-65,335c0,0,-65,100,-206,100c0,0,-142,0,-207,-100c0,0,-66,-99,-66,-335c0,0,0,-239,66,-340c0,0,65,-102,207,-102Zm0,-74c0,0,-253,0,-387,130C208,116,75,246,75,501c0,0,0,510,520,510c0,0,256,0,387,-129c0,0,132,-130,132,-381c0,0,0,-254,-133,-385C981,116,848,-14,595,-14Z" 
id="f5_1f"
transform="scale(0.001,-0.001)" />

<path d="M498,506c0,0,115,0,164,47c0,0,48,48,48,166c0,0,0,112,-46,156c0,0,-46,43,-169,43H390V506ZM793,0L514,423H390V74L518,54V0H36V54L154,74V926L26,945v55H504c0,0,221,0,330,-68c0,0,109,-68,109,-212c0,0,0,-215,-201,-276L1009,74L1117,54V0Z" 
id="f5_1i"
transform="scale(0.001,-0.001)" />

<path d="M152,-20c0,0,-35,0,-58,20C94,0,70,20,70,53c0,0,0,31,41,85c0,0,58,79,88,165c0,0,29,85,43,272H192c0,0,-62,0,-94,-27c0,0,-33,-28,-62,-79H10c0,0,21,80,56,132c0,0,34,51,70,67c0,0,37,15,129,15H742V575H569L554,348c0,0,-4,-59,-4,-102c0,0,0,-104,24,-126c0,0,24,-23,58,-23c0,0,72,0,86,90h26c0,0,-25,-207,-166,-207c0,0,-66,0,-106,40c0,0,-40,40,-40,119c0,0,0,52,16,221l20,215H310c0,0,-16,-272,-38,-397C272,178,250,53,224,16c0,0,-27,-36,-72,-36Z" 
id="f8_i5"
transform="scale(0.001,-0.001)" />


</defs>
</svg>