<?xml version="1.0" encoding="UTF-8" standalone="no"?>
<!DOCTYPE svg PUBLIC "-//W3C//DTD SVG 1.1//EN"
"http://www.w3.org/Graphics/SVG/1.1/DTD/svg11.dtd">
<svg viewBox="0 0 909 1286" version="1.1" xmlns="http://www.w3.org/2000/svg" xmlns:xlink="http://www.w3.org/1999/xlink">
<defs>
<clipPath id="c0_138"><path d="M55.2,197.4V148.6h56v48.8Z" /></clipPath>
<clipPath id="c1_138"><path d="M280.7,246.6V197.8h56v48.8Z" /></clipPath>
<clipPath id="c2_138"><path d="M55.2,318.4V269.6h87.9v48.8Z" /></clipPath>
<clipPath id="c3_138"><path d="M55.2,367.9V319.1H209.1v48.8Z" /></clipPath>
<clipPath id="c4_138"><path d="M55.2,433.6V368.5H263.3v65.1Z" /></clipPath>
<clipPath id="c5_138"><path d="M55.2,493.3V434h128v59.3Z" /></clipPath>
<clipPath id="c6_138"><path d="M55.2,553.5V494.2H155.3v59.3Z" /></clipPath>
<clipPath id="c7_138"><path d="M70.2,602.6V553.8H98.9v48.8Z" /></clipPath>
<clipPath id="c8_138"><path d="M55.2,697.6V648.8H194.4v48.8Z" /></clipPath>
<clipPath id="c9_138"><path d="M55.2,769.4V720.6H194.4v48.8Z" /></clipPath>
<clipPath id="c10_138"><path d="M55.2,891.2V770.7H191.9V891.2Z" /></clipPath>
<clipPath id="c11_138"><path d="M55.2,943.6V891.5H228.1v52.1Z" /></clipPath>
<clipPath id="c12_138"><path d="M55.2,1103.1v-135H322.9v135Z" /></clipPath>
<clipPath id="c13_138"><path d="M55.2,1186.7v-82.9H182.5v82.9Z" /></clipPath>
<style type="text/css"><![CDATA[
.g0_138{
fill: #D9D9D9;
}
.g1_138{
fill: none;
stroke: #000000;
stroke-width: 0.7638889;
stroke-linecap: butt;
stroke-linejoin: miter;
}
.g2_138{
fill: none;
stroke: #000000;
stroke-width: 0.755587;
stroke-linecap: butt;
stroke-linejoin: round;
}
.g3_138{
fill: none;
stroke: #000000;
stroke-width: 0.7811382;
stroke-linecap: butt;
stroke-linejoin: round;
}
.g4_138{
fill: none;
stroke: #000000;
stroke-width: 0.753554;
stroke-linecap: butt;
stroke-linejoin: round;
}
.g5_138{
fill: none;
stroke: #000000;
stroke-width: 0.7584437;
stroke-linecap: butt;
stroke-linejoin: round;
}
.g6_138{
fill: none;
stroke: #000000;
stroke-width: 0.7519975;
stroke-linecap: butt;
stroke-linejoin: round;
}
.g7_138{
fill: none;
stroke: #000000;
stroke-width: 0.7574592;
stroke-linecap: butt;
stroke-linejoin: round;
}
.g8_138{
fill: none;
stroke: #000000;
stroke-width: 0.7874104;
stroke-linecap: butt;
stroke-linejoin: round;
}
.g9_138{
fill: none;
stroke: #000000;
stroke-width: 0.7557448;
stroke-linecap: butt;
stroke-linejoin: round;
}
.g10_138{
fill: none;
stroke: #000000;
stroke-width: 0.3749633;
stroke-linecap: butt;
stroke-linejoin: round;
}
.g11_138{
fill: none;
stroke: #000000;
stroke-width: 0.7499416;
stroke-linecap: butt;
stroke-linejoin: round;
}
.g12_138{
fill: none;
stroke: #000000;
stroke-width: 0.7573623;
stroke-linecap: butt;
stroke-linejoin: round;
}
.g13_138{
fill: none;
stroke: #000000;
stroke-width: 0.75942016;
stroke-linecap: butt;
stroke-linejoin: round;
}
.g14_138{
fill: none;
stroke: #000000;
stroke-width: 0.37970245;
stroke-linecap: butt;
stroke-linejoin: round;
}
.g15_138{
fill: none;
stroke: #000000;
stroke-width: 0.37851757;
stroke-linecap: butt;
stroke-linejoin: round;
}
.g16_138{
fill: none;
stroke: #000000;
stroke-width: 0.7570502;
stroke-linecap: butt;
stroke-linejoin: round;
}
.g17_138{
}
]]></style>
</defs>
<image preserveAspectRatio="none" x="747" y="1196" width="96" height="59" xlink:href="img/1.png" />
<image preserveAspectRatio="none" x="336" y="41" width="259" height="51" xlink:href="img/2.png" />
<image preserveAspectRatio="none" x="342" y="50" width="247" height="27" xlink:href="img/3.png" />
<image preserveAspectRatio="none" x="341" y="45" width="239" height="42" xlink:href="img/4.png" />
<g fill="#FFFFFF" >
<use xlink:href="#f0_j" transform="matrix(11.5,0,0,11.5,355.1,70.1)" />
<use xlink:href="#f0_i" transform="matrix(11.5,0,0,11.5,364.3,70.1)" />
<use xlink:href="#f0_2n" transform="matrix(11.5,0,0,11.5,374.1,70.1)" />
<use xlink:href="#f0_t" transform="matrix(11.5,0,0,11.5,382.6,70.1)" />
<use xlink:href="#f0_oj" transform="matrix(11.5,0,0,11.5,391,70.1)" />
<use xlink:href="#f0_3e" transform="matrix(11.5,0,0,11.5,396.5,70.1)" />
<use xlink:href="#f0_1c" transform="matrix(11.5,0,0,11.5,406.1,70.1)" />
<use xlink:href="#f0_1c" transform="matrix(11.5,0,0,11.5,410.8,70.1)" />
<use xlink:href="#f0_oj" transform="matrix(11.5,0,0,11.5,415.6,70.1)" />
<use xlink:href="#f0_rz" transform="matrix(11.5,0,0,11.5,421.1,70.1)" />
<use xlink:href="#f0_rx" transform="matrix(11.5,0,0,11.5,429.9,70.1)" />
<use xlink:href="#f0_ry" transform="matrix(11.5,0,0,11.5,438.7,70.1)" />
<use xlink:href="#f0_s6" transform="matrix(11.5,0,0,11.5,447.5,70.1)" />
<use xlink:href="#f0_t" transform="matrix(11.5,0,0,11.5,460.4,70.1)" />
<use xlink:href="#f0_3e" transform="matrix(11.5,0,0,11.5,468.8,70.1)" />
<use xlink:href="#f0_5" transform="matrix(11.5,0,0,11.5,478.3,70.1)" />
<use xlink:href="#f0_1x" transform="matrix(11.5,0,0,11.5,489,70.1)" />
<use xlink:href="#f0_1c" transform="matrix(11.5,0,0,11.5,504.4,70.1)" />
<use xlink:href="#f0_1y" transform="matrix(11.5,0,0,11.5,509.1,70.1)" />
<use xlink:href="#f0_5" transform="matrix(11.5,0,0,11.5,520.8,70.1)" />
<use xlink:href="#f0_2t" transform="matrix(11.5,0,0,11.5,531.5,70.1)" />
<use xlink:href="#f0_1c" transform="matrix(11.5,0,0,11.5,540.2,70.1)" />
<use xlink:href="#f0_24" transform="matrix(11.5,0,0,11.5,545,70.1)" />
<use xlink:href="#f0_1y" transform="matrix(11.5,0,0,11.5,556.7,70.1)" />
</g>
<image preserveAspectRatio="none" x="554" y="45" width="36" height="42" xlink:href="img/5.png" />
<g fill="#FFFFFF" >
<use xlink:href="#f1_m" transform="matrix(11,0,0,11,770.3,1227.6)" />
<use xlink:href="#f1_k" transform="matrix(11,0,0,11,779.1,1227.6)" />
<use xlink:href="#f1_j" transform="matrix(11,0,0,11,792.3,1227.6)" />
<use xlink:href="#f1_m" transform="matrix(11,0,0,11,802.9,1227.6)" />
<use xlink:href="#f1_p" transform="matrix(11,0,0,11,811.7,1227.6)" />
</g>
<path fill-rule="evenodd" d="M52.8,1193.5H856.9v-.8H52.8v.8Z" class="g0_138" />
<path d="M37.9,99.4L873,98.5" class="g1_138" />
<g fill="#000000" >
<use xlink:href="#f2_1n" transform="matrix(12,0,0,12,55,144.1)" />
<use xlink:href="#f2_24" transform="matrix(12,0,0,12,72.3,144.1)" />
<use xlink:href="#f2_25" transform="matrix(12,0,0,12,81.4,144.1)" />
<use xlink:href="#f2_1z" transform="matrix(12,0,0,12,86.2,144.1)" />
<use xlink:href="#f2_24" transform="matrix(12,0,0,12,94.6,144.1)" />
<use xlink:href="#f2_25" transform="matrix(12,0,0,12,108.5,144.1)" />
<use xlink:href="#f2_2f" transform="matrix(12,0,0,12,113.3,144.1)" />
<use xlink:href="#f2_28" transform="matrix(12,0,0,12,125.4,144.1)" />
<use xlink:href="#f2_21" transform="matrix(12,0,0,12,130.1,144.1)" />
<use xlink:href="#f2_2f" transform="matrix(12,0,0,12,138.2,144.1)" />
<use xlink:href="#f2_2f" transform="matrix(12,0,0,12,145.5,144.1)" />
<use xlink:href="#f2_2g" transform="matrix(12,0,0,12,157.2,144.1)" />
<use xlink:href="#f2_24" transform="matrix(12,0,0,12,162.7,144.1)" />
<use xlink:href="#f2_1x" transform="matrix(12,0,0,12,171.5,144.1)" />
<use xlink:href="#f2_2a" transform="matrix(12,0,0,12,179.6,144.1)" />
<use xlink:href="#f2_2m" transform="matrix(12,0,0,12,193.1,144.1)" />
<use xlink:href="#f2_21" transform="matrix(12,0,0,12,201.2,144.1)" />
<use xlink:href="#f2_2e" transform="matrix(12,0,0,12,209.3,144.1)" />
<use xlink:href="#f2_2b" transform="matrix(12,0,0,12,215.5,144.1)" />
<use xlink:href="#f2_g" transform="matrix(12,0,0,12,225,144.1)" />
<use xlink:href="#f2_2g" transform="matrix(12,0,0,12,234.2,144.1)" />
<use xlink:href="#f2_24" transform="matrix(12,0,0,12,239.6,144.1)" />
<use xlink:href="#f2_21" transform="matrix(12,0,0,12,248.4,144.1)" />
<use xlink:href="#f2_2e" transform="matrix(12,0,0,12,256.5,144.1)" />
<use xlink:href="#f2_21" transform="matrix(12,0,0,12,262.7,144.1)" />
<use xlink:href="#f2_22" transform="matrix(12,0,0,12,270.8,144.1)" />
<use xlink:href="#f2_2b" transform="matrix(12,0,0,12,276.3,144.1)" />
<use xlink:href="#f2_2e" transform="matrix(12,0,0,12,285.8,144.1)" />
<use xlink:href="#f2_21" transform="matrix(12,0,0,12,292,144.1)" />
</g>
<path d="M86.7,174.6h19.9" class="g2_138" />
<g clip-path="url(#c0_138)">
<g fill="#000000" >
<use xlink:href="#f2_o" transform="matrix(12.7,0,0,12.4,88,167.7)" />
<use xlink:href="#f2_n" transform="matrix(12.7,0,0,12.4,92.3,193.6)" />
<use xlink:href="#f3_2e" transform="matrix(12.7,0,0,12.4,97.5,167.7)" />
<use xlink:href="#f3_24" transform="matrix(12.7,0,0,12.4,58,179.2)" />
<use xlink:href="#f4_x" transform="matrix(12.7,0,0,12.4,71.8,179.2)" />
</g>
</g>
<g fill="#000000" >
<use xlink:href="#f2_25" transform="matrix(12,0,0,12,115.5,179)" />
<use xlink:href="#f2_2f" transform="matrix(12,0,0,12,120.3,179)" />
<use xlink:href="#f2_1x" transform="matrix(12,0,0,12,132,179)" />
<use xlink:href="#f2_1d" transform="matrix(12,0,0,12,144.8,179)" />
<use xlink:href="#f2_1x" transform="matrix(12,0,0,12,161,179)" />
<use xlink:href="#f2_2k" transform="matrix(12,0,0,12,169.4,179)" />
<use xlink:href="#f2_25" transform="matrix(12,0,0,12,178.5,179)" />
<use xlink:href="#f2_29" transform="matrix(12,0,0,12,183.3,179)" />
<use xlink:href="#f2_1x" transform="matrix(12,0,0,12,197.2,179)" />
<use xlink:href="#f2_1x" transform="matrix(12,0,0,12,55,228.1)" />
<use xlink:href="#f2_2a" transform="matrix(12,0,0,12,63.1,228.1)" />
<use xlink:href="#f2_20" transform="matrix(12,0,0,12,71.9,228.1)" />
<use xlink:href="#f2_2g" transform="matrix(12,0,0,12,85.8,228.1)" />
<use xlink:href="#f2_24" transform="matrix(12,0,0,12,91.3,228.1)" />
<use xlink:href="#f2_21" transform="matrix(12,0,0,12,100.1,228.1)" />
<use xlink:href="#f2_1m" transform="matrix(12,0,0,12,112.9,228.1)" />
<use xlink:href="#f2_2b" transform="matrix(12,0,0,12,126.2,228.1)" />
<use xlink:href="#f2_28" transform="matrix(12,0,0,12,135.6,228.1)" />
<use xlink:href="#f2_2h" transform="matrix(12,0,0,12,140,228.1)" />
<use xlink:href="#f2_29" transform="matrix(12,0,0,12,149.5,228.1)" />
<use xlink:href="#f2_21" transform="matrix(12,0,0,12,163.5,228.1)" />
<use xlink:href="#f2_2b" transform="matrix(12,0,0,12,176.3,228.1)" />
<use xlink:href="#f2_22" transform="matrix(12,0,0,12,185.8,228.1)" />
<use xlink:href="#f2_2g" transform="matrix(12,0,0,12,196.1,228.1)" />
<use xlink:href="#f2_24" transform="matrix(12,0,0,12,201.5,228.1)" />
<use xlink:href="#f2_21" transform="matrix(12,0,0,12,210.3,228.1)" />
<use xlink:href="#f2_1z" transform="matrix(12,0,0,12,223.2,228.1)" />
<use xlink:href="#f2_2b" transform="matrix(12,0,0,12,231.2,228.1)" />
<use xlink:href="#f2_2a" transform="matrix(12,0,0,12,240.7,228.1)" />
<use xlink:href="#f2_21" transform="matrix(12,0,0,12,249.5,228.1)" />
<use xlink:href="#f2_1x" transform="matrix(12,0,0,12,262.3,228.1)" />
<use xlink:href="#f2_2g" transform="matrix(12,0,0,12,270.4,228.1)" />
</g>
<path d="M312.2,223.8h19.9" class="g2_138" />
<g clip-path="url(#c1_138)">
<g fill="#000000" >
<use xlink:href="#f2_o" transform="matrix(12.7,0,0,12.4,313.5,216.9)" />
<use xlink:href="#f2_n" transform="matrix(12.7,0,0,12.4,317.8,242.8)" />
<use xlink:href="#f3_2e" transform="matrix(12.7,0,0,12.4,323,216.9)" />
<use xlink:href="#f3_24" transform="matrix(12.7,0,0,12.4,283.5,228.4)" />
<use xlink:href="#f4_x" transform="matrix(12.7,0,0,12.4,297.3,228.4)" />
</g>
</g>
<g fill="#000000" >
<use xlink:href="#f2_2j" transform="matrix(12,0,0,12,55,265.2)" />
<use xlink:href="#f2_25" transform="matrix(12,0,0,12,68.6,265.2)" />
<use xlink:href="#f2_28" transform="matrix(12,0,0,12,73.4,265.2)" />
<use xlink:href="#f2_28" transform="matrix(12,0,0,12,78.4,265.2)" />
<use xlink:href="#f2_1y" transform="matrix(12,0,0,12,88,265.2)" />
<use xlink:href="#f2_21" transform="matrix(12,0,0,12,96.8,265.2)" />
<use xlink:href="#f2_29" transform="matrix(12,0,0,12,110,265.2)" />
<use xlink:href="#f2_1x" transform="matrix(12,0,0,12,123.9,265.2)" />
<use xlink:href="#f2_2k" transform="matrix(12,0,0,12,132.3,265.2)" />
<use xlink:href="#f2_25" transform="matrix(12,0,0,12,141.5,265.2)" />
<use xlink:href="#f2_29" transform="matrix(12,0,0,12,146.6,265.2)" />
<use xlink:href="#f2_2h" transform="matrix(12,0,0,12,160.6,265.2)" />
<use xlink:href="#f2_29" transform="matrix(12,0,0,12,170.1,265.2)" />
<use xlink:href="#f2_g" transform="matrix(12,0,0,12,183.6,265.2)" />
</g>
<path d="M89.4,295.6h10" class="g3_138" />
<g clip-path="url(#c2_138)">
<g fill="#000000" >
<use xlink:href="#f2_m" transform="matrix(7.3,0,0,7.2,124.2,291.9)" />
<use xlink:href="#f2_l" transform="matrix(12.5,0,0,12.4,89.8,288.7)" />
<use xlink:href="#f2_n" transform="matrix(12.5,0,0,12.4,90.1,314.6)" />
<use xlink:href="#f3_1m" transform="matrix(12.5,0,0,12.4,56.2,300.2)" />
<use xlink:href="#f3_1i" transform="matrix(12.5,0,0,12.4,112,300.2)" />
<use xlink:href="#f3_24" transform="matrix(12.5,0,0,12.4,130.3,300.2)" />
<use xlink:href="#f4_x" transform="matrix(12.5,0,0,12.4,74.6,300.2)" />
<use xlink:href="#f4_2c" transform="matrix(12.5,0,0,12.4,102.2,300.2)" />
</g>
</g>
<path d="M72.8,345.1h10" class="g4_138" />
<g clip-path="url(#c3_138)">
<g fill="#000000" >
<use xlink:href="#f2_m" transform="matrix(7.4,0,0,7.2,109.9,341.4)" />
<use xlink:href="#f2_m" transform="matrix(7.4,0,0,7.2,182.6,341.4)" />
<use xlink:href="#f2_l" transform="matrix(12.6,0,0,12.4,73.2,338.2)" />
<use xlink:href="#f2_1r" transform="matrix(12.6,0,0,12.4,94.5,349.7)" />
<use xlink:href="#f2_c" transform="matrix(12.6,0,0,12.4,134.1,349.7)" />
<use xlink:href="#f2_d" transform="matrix(12.6,0,0,12.4,175.9,349.7)" />
<use xlink:href="#f2_1t" transform="matrix(12.6,0,0,12.4,189.9,349.7)" />
<use xlink:href="#f2_n" transform="matrix(12.6,0,0,12.4,73.5,364.1)" />
<use xlink:href="#f3_2e" transform="matrix(12.6,0,0,12.4,101.1,349.7)" />
<use xlink:href="#f3_24" transform="matrix(12.6,0,0,12.4,140.8,349.7)" />
<use xlink:href="#f3_2e" transform="matrix(12.6,0,0,12.4,167.5,349.7)" />
<use xlink:href="#f3_24" transform="matrix(12.6,0,0,12.4,195.6,349.7)" />
<use xlink:href="#f4_x" transform="matrix(12.6,0,0,12.4,58,349.7)" />
<use xlink:href="#f4_2c" transform="matrix(12.6,0,0,12.4,85.6,349.7)" />
<use xlink:href="#f4_h" transform="matrix(12.6,0,0,12.4,120.6,349.7)" />
<use xlink:href="#f4_h" transform="matrix(12.6,0,0,12.4,153.6,349.7)" />
</g>
</g>
<path d="M72.8,401.8h10m65.4,0H168m61.9,0h19.7" class="g5_138" />
<g clip-path="url(#c4_138)">
<g fill="#000000" >
<use xlink:href="#f2_m" transform="matrix(7.3,0,0,7.2,203.9,383.8)" />
<use xlink:href="#f2_m" transform="matrix(7.3,0,0,7.2,114.5,398.1)" />
<use xlink:href="#f2_l" transform="matrix(12.6,0,0,12.3,73.2,395)" />
<use xlink:href="#f2_o" transform="matrix(12.6,0,0,12.3,149.5,395)" />
<use xlink:href="#f2_o" transform="matrix(12.6,0,0,12.3,231.1,395)" />
<use xlink:href="#f2_n" transform="matrix(12.6,0,0,12.3,73.5,420.7)" />
<use xlink:href="#f2_n" transform="matrix(12.6,0,0,12.3,153.8,420.7)" />
<use xlink:href="#f2_n" transform="matrix(12.6,0,0,12.3,235.4,420.7)" />
<use xlink:href="#f3_2e" transform="matrix(12.6,0,0,12.3,159,395)" />
<use xlink:href="#f3_2e" transform="matrix(12.6,0,0,12.3,240.6,395)" />
<use xlink:href="#f3_2e" transform="matrix(12.6,0,0,12.3,105.7,406.4)" />
<use xlink:href="#f3_2e" transform="matrix(12.6,0,0,12.3,186.1,406.4)" />
<use xlink:href="#f4_4r" transform="matrix(12.6,0,0,12.3,97.8,391.1)" />
<use xlink:href="#f4_57" transform="matrix(12.6,0,0,12.3,211.8,391.1)" />
<use xlink:href="#f4_4o" transform="matrix(12.6,0,0,12.3,138.3,396.3)" />
<use xlink:href="#f4_54" transform="matrix(12.6,0,0,12.3,196.2,396.3)" />
<use xlink:href="#f4_4r" transform="matrix(12.6,0,0,12.3,221.7,396.3)" />
<use xlink:href="#f4_57" transform="matrix(12.6,0,0,12.3,251.1,396.3)" />
<use xlink:href="#f4_x" transform="matrix(12.6,0,0,12.3,58,406.4)" />
<use xlink:href="#f4_2c" transform="matrix(12.6,0,0,12.3,85.5,406.4)" />
<use xlink:href="#f4_h" transform="matrix(12.6,0,0,12.3,125.1,406.4)" />
<use xlink:href="#f4_h" transform="matrix(12.6,0,0,12.3,172.2,406.4)" />
<use xlink:href="#f4_4s" transform="matrix(12.6,0,0,12.3,97.8,408.8)" />
<use xlink:href="#f4_58" transform="matrix(12.6,0,0,12.3,211.8,408.8)" />
<use xlink:href="#f4_4p" transform="matrix(12.6,0,0,12.3,138.3,411.3)" />
<use xlink:href="#f4_55" transform="matrix(12.6,0,0,12.3,196.2,411.3)" />
<use xlink:href="#f4_4s" transform="matrix(12.6,0,0,12.3,221.7,414)" />
<use xlink:href="#f4_58" transform="matrix(12.6,0,0,12.3,251.2,414)" />
<use xlink:href="#f4_4q" transform="matrix(12.6,0,0,12.3,138.3,422.9)" />
<use xlink:href="#f4_56" transform="matrix(12.6,0,0,12.3,196.2,422.9)" />
<use xlink:href="#f4_4t" transform="matrix(12.6,0,0,12.3,221.7,422.9)" />
<use xlink:href="#f4_59" transform="matrix(12.6,0,0,12.3,251.1,422.9)" />
<use xlink:href="#f4_4s" transform="matrix(12.6,0,0,12.3,97.8,425)" />
<use xlink:href="#f4_58" transform="matrix(12.6,0,0,12.3,211.8,425)" />
<use xlink:href="#f4_4t" transform="matrix(12.6,0,0,12.3,97.8,428.1)" />
<use xlink:href="#f4_59" transform="matrix(12.6,0,0,12.3,211.8,428.1)" />
</g>
</g>
<path d="M72.7,464.4h9.9m23,0h26.1m19.5,0h19.6" class="g6_138" />
<g clip-path="url(#c5_138)">
<g fill="#000000" >
<use xlink:href="#f2_m" transform="matrix(7.3,0,0,7.2,123.8,449.3)" />
<use xlink:href="#f2_l" transform="matrix(12.5,0,0,12.3,73.1,457.6)" />
<use xlink:href="#f2_s" transform="matrix(12.5,0,0,12.3,106,457.6)" />
<use xlink:href="#f2_o" transform="matrix(12.5,0,0,12.3,152.4,457.6)" />
<use xlink:href="#f2_n" transform="matrix(12.5,0,0,12.3,73.3,483.4)" />
<use xlink:href="#f2_t" transform="matrix(12.5,0,0,12.3,114.1,483.4)" />
<use xlink:href="#f2_n" transform="matrix(12.5,0,0,12.3,156.7,483.4)" />
<use xlink:href="#f3_2e" transform="matrix(12.5,0,0,12.3,115.1,457.6)" />
<use xlink:href="#f3_2e" transform="matrix(12.5,0,0,12.3,161.8,457.6)" />
<use xlink:href="#f4_4r" transform="matrix(12.5,0,0,12.3,97.5,456.6)" />
<use xlink:href="#f4_57" transform="matrix(12.5,0,0,12.3,133.2,456.6)" />
<use xlink:href="#f4_4r" transform="matrix(12.5,0,0,12.3,143.1,458.9)" />
<use xlink:href="#f4_57" transform="matrix(12.5,0,0,12.3,172.3,458.9)" />
<use xlink:href="#f4_x" transform="matrix(12.5,0,0,12.3,57.9,469.1)" />
<use xlink:href="#f4_2c" transform="matrix(12.5,0,0,12.3,85.3,469.1)" />
<use xlink:href="#f4_4s" transform="matrix(12.5,0,0,12.3,97.5,474.4)" />
<use xlink:href="#f4_58" transform="matrix(12.5,0,0,12.3,133.2,474.4)" />
<use xlink:href="#f4_4s" transform="matrix(12.5,0,0,12.3,143.1,476.7)" />
<use xlink:href="#f4_58" transform="matrix(12.5,0,0,12.3,172.3,476.7)" />
<use xlink:href="#f4_4t" transform="matrix(12.5,0,0,12.3,143.1,485.6)" />
<use xlink:href="#f4_59" transform="matrix(12.5,0,0,12.3,172.3,485.6)" />
<use xlink:href="#f4_4t" transform="matrix(12.5,0,0,12.3,97.5,488)" />
<use xlink:href="#f4_59" transform="matrix(12.5,0,0,12.3,133.2,488)" />
</g>
</g>
<path d="M72.6,524.6H93m11.9,0h36.2" class="g7_138" />
<g clip-path="url(#c6_138)">
<g fill="#000000" >
<use xlink:href="#f2_n" transform="matrix(7.4,0,0,7.2,133.6,509.4)" />
<use xlink:href="#f2_s" transform="matrix(12.6,0,0,12.3,78.3,517.7)" />
<use xlink:href="#f2_o" transform="matrix(12.6,0,0,12.3,106.2,517.7)" />
<use xlink:href="#f2_m" transform="matrix(12.6,0,0,12.3,73.9,543.5)" />
<use xlink:href="#f2_r" transform="matrix(12.6,0,0,12.3,83,543.5)" />
<use xlink:href="#f2_n" transform="matrix(12.6,0,0,12.3,118.7,543.5)" />
<use xlink:href="#f3_2e" transform="matrix(12.6,0,0,12.3,125.2,517.7)" />
<use xlink:href="#f4_4o" transform="matrix(12.6,0,0,12.3,95.2,516.7)" />
<use xlink:href="#f4_54" transform="matrix(12.6,0,0,12.3,143.7,516.7)" />
<use xlink:href="#f4_2c" transform="matrix(12.6,0,0,12.3,115.6,517.7)" />
<use xlink:href="#f4_x" transform="matrix(12.6,0,0,12.3,57.9,529.2)" />
<use xlink:href="#f4_4p" transform="matrix(12.6,0,0,12.3,95.2,533.7)" />
<use xlink:href="#f4_55" transform="matrix(12.6,0,0,12.3,143.7,533.7)" />
<use xlink:href="#f4_4q" transform="matrix(12.6,0,0,12.3,95.2,548.1)" />
<use xlink:href="#f4_56" transform="matrix(12.6,0,0,12.3,143.7,548.1)" />
</g>
</g>
<g fill="#000000" >
<use xlink:href="#f2_x" transform="matrix(12,0,0,12,55,584.3)" />
</g>
<path d="M73.4,579.7H94.7" class="g8_138" />
<g clip-path="url(#c7_138)">
<g fill="#000000" >
<use xlink:href="#f2_s" transform="matrix(12,0,0,12.4,79.3,572.8)" />
<use xlink:href="#f2_m" transform="matrix(12,0,0,12.4,74.7,598.7)" />
<use xlink:href="#f2_r" transform="matrix(12,0,0,12.4,84.2,598.7)" />
</g>
</g>
<g fill="#000000" >
<use xlink:href="#f2_c" transform="matrix(12,0,0,12,102.7,584.3)" />
<use xlink:href="#f2_1m" transform="matrix(12,0,0,12,108.9,584.3)" />
<use xlink:href="#f2_2b" transform="matrix(12,0,0,12,121.8,584.3)" />
<use xlink:href="#f2_28" transform="matrix(12,0,0,12,131.3,584.3)" />
<use xlink:href="#f2_2h" transform="matrix(12,0,0,12,135.7,584.3)" />
<use xlink:href="#f2_29" transform="matrix(12,0,0,12,145.2,584.3)" />
<use xlink:href="#f2_21" transform="matrix(12,0,0,12,159.1,584.3)" />
<use xlink:href="#f2_2b" transform="matrix(12,0,0,12,171.9,584.3)" />
<use xlink:href="#f2_22" transform="matrix(12,0,0,12,181.4,584.3)" />
<use xlink:href="#f2_2g" transform="matrix(12,0,0,12,191.7,584.3)" />
<use xlink:href="#f2_24" transform="matrix(12,0,0,12,197.2,584.3)" />
<use xlink:href="#f2_21" transform="matrix(12,0,0,12,206,584.3)" />
<use xlink:href="#f2_2f" transform="matrix(12,0,0,12,218.8,584.3)" />
<use xlink:href="#f2_2c" transform="matrix(12,0,0,12,225.8,584.3)" />
<use xlink:href="#f2_24" transform="matrix(12,0,0,12,235.3,584.3)" />
<use xlink:href="#f2_21" transform="matrix(12,0,0,12,244.1,584.3)" />
<use xlink:href="#f2_2e" transform="matrix(12,0,0,12,252.1,584.3)" />
<use xlink:href="#f2_21" transform="matrix(12,0,0,12,258.4,584.3)" />
<use xlink:href="#f2_d" transform="matrix(12,0,0,12,266.4,584.3)" />
<use xlink:href="#f2_m" transform="matrix(12,0,0,12,55,644.4)" />
<use xlink:href="#f2_p" transform="matrix(12,0,0,12,64.2,644.4)" />
<use xlink:href="#f2_i" transform="matrix(12,0,0,12,73.4,644.4)" />
<use xlink:href="#f2_15" transform="matrix(12,0,0,12,82.9,644.4)" />
<use xlink:href="#f2_2i" transform="matrix(12,0,0,12,94.2,644.4)" />
<use xlink:href="#f2_1x" transform="matrix(12,0,0,12,103,644.4)" />
<use xlink:href="#f2_28" transform="matrix(12,0,0,12,111.4,644.4)" />
<use xlink:href="#f2_2h" transform="matrix(12,0,0,12,115.8,644.4)" />
<use xlink:href="#f2_1x" transform="matrix(12,0,0,12,125,644.4)" />
<use xlink:href="#f2_2g" transform="matrix(12,0,0,12,133.1,644.4)" />
<use xlink:href="#f2_21" transform="matrix(12,0,0,12,138.5,644.4)" />
<use xlink:href="#f2_u" transform="matrix(12,0,0,12,151.4,644.4)" />
</g>
<path d="M68.6,674.8h104" class="g9_138" />
<g clip-path="url(#c8_138)">
<g fill="#000000" >
<use xlink:href="#f2_o" transform="matrix(7.4,0,0,7.2,94.7,685.4)" />
<use xlink:href="#f2_o" transform="matrix(7.4,0,0,7.2,153.2,685.4)" />
<use xlink:href="#f2_l" transform="matrix(12.7,0,0,12.4,116,667.9)" />
<use xlink:href="#f2_1z" transform="matrix(12.7,0,0,12.4,69.6,693.8)" />
<use xlink:href="#f2_2b" transform="matrix(12.7,0,0,12.4,77.7,693.8)" />
<use xlink:href="#f2_2f" transform="matrix(12.7,0,0,12.4,86.9,693.8)" />
<use xlink:href="#f2_2f" transform="matrix(12.7,0,0,12.4,130.3,693.8)" />
<use xlink:href="#f2_25" transform="matrix(12.7,0,0,12.4,137.5,693.8)" />
<use xlink:href="#f2_2a" transform="matrix(12.7,0,0,12.4,142.7,693.8)" />
<use xlink:href="#f3_20" transform="matrix(12.7,0,0,12.4,172.2,679.4)" />
<use xlink:href="#f3_2k" transform="matrix(12.7,0,0,12.4,181.4,679.4)" />
<use xlink:href="#f3_2k" transform="matrix(12.7,0,0,12.4,104.8,693.8)" />
<use xlink:href="#f3_2k" transform="matrix(12.7,0,0,12.4,163.3,693.8)" />
<use xlink:href="#f4_f" transform="matrix(12.7,0,0,12.4,116.9,693.8)" />
<use xlink:href="#f4_50" transform="matrix(19,0,0,18.5,58.2,686.1)" />
</g>
</g>
<g fill="#000000" >
<use xlink:href="#f5_1j" transform="matrix(12,0,0,12,55,716.3)" />
<use xlink:href="#f5_2b" transform="matrix(12,0,0,12,65.3,716.3)" />
<use xlink:href="#f5_28" transform="matrix(12,0,0,12,74.5,716.3)" />
<use xlink:href="#f5_2h" transform="matrix(12,0,0,12,79.2,716.3)" />
<use xlink:href="#f5_2g" transform="matrix(12,0,0,12,89.5,716.3)" />
<use xlink:href="#f5_25" transform="matrix(12,0,0,12,95.7,716.3)" />
<use xlink:href="#f5_2b" transform="matrix(12,0,0,12,100.8,716.3)" />
<use xlink:href="#f5_2a" transform="matrix(12,0,0,12,109.9,716.3)" />
<use xlink:href="#f5_u" transform="matrix(12,0,0,12,120.2,716.3)" />
</g>
<path d="M68.6,746.6h104" class="g9_138" />
<g clip-path="url(#c9_138)">
<g fill="#000000" >
<use xlink:href="#f2_o" transform="matrix(7.4,0,0,7.2,94.7,757.2)" />
<use xlink:href="#f2_o" transform="matrix(7.4,0,0,7.2,153.2,757.2)" />
<use xlink:href="#f2_l" transform="matrix(12.7,0,0,12.4,116,739.7)" />
<use xlink:href="#f2_1z" transform="matrix(12.7,0,0,12.4,69.6,765.6)" />
<use xlink:href="#f2_2b" transform="matrix(12.7,0,0,12.4,77.7,765.6)" />
<use xlink:href="#f2_2f" transform="matrix(12.7,0,0,12.4,86.9,765.6)" />
<use xlink:href="#f2_2f" transform="matrix(12.7,0,0,12.4,130.3,765.6)" />
<use xlink:href="#f2_25" transform="matrix(12.7,0,0,12.4,137.5,765.6)" />
<use xlink:href="#f2_2a" transform="matrix(12.7,0,0,12.4,142.7,765.6)" />
<use xlink:href="#f3_20" transform="matrix(12.7,0,0,12.4,172.2,751.2)" />
<use xlink:href="#f3_2k" transform="matrix(12.7,0,0,12.4,181.4,751.2)" />
<use xlink:href="#f3_2k" transform="matrix(12.7,0,0,12.4,104.8,765.6)" />
<use xlink:href="#f3_2k" transform="matrix(12.7,0,0,12.4,163.3,765.6)" />
<use xlink:href="#f4_f" transform="matrix(12.7,0,0,12.4,116.9,765.6)" />
<use xlink:href="#f4_50" transform="matrix(19,0,0,18.5,58.2,757.9)" />
</g>
</g>
<path d="M84.5,795.7h45.1" class="g10_138" />
<path d="M83,816.7h67.7M83,868.1H187.4" class="g11_138" />
<g clip-path="url(#c10_138)">
<g fill="#000000" >
<use xlink:href="#f2_o" transform="matrix(7,0,0,7.1,110.5,806.2)" />
<use xlink:href="#f2_o" transform="matrix(7,0,0,7.1,131.4,827.2)" />
<use xlink:href="#f2_m" transform="matrix(7,0,0,7.1,107.5,853)" />
<use xlink:href="#f2_m" transform="matrix(7,0,0,7.1,151.1,853)" />
<use xlink:href="#f2_o" transform="matrix(7,0,0,7.1,149.7,878.6)" />
<use xlink:href="#f2_l" transform="matrix(12,0,0,12.2,102.5,788.9)" />
<use xlink:href="#f2_1z" transform="matrix(12,0,0,12.2,85.5,814.5)" />
<use xlink:href="#f2_2b" transform="matrix(12,0,0,12.2,93.5,814.5)" />
<use xlink:href="#f2_2f" transform="matrix(12,0,0,12.2,102.7,814.5)" />
<use xlink:href="#f2_l" transform="matrix(12,0,0,12.2,82.4,835.4)" />
<use xlink:href="#f2_2g" transform="matrix(12,0,0,12.2,107.8,835.4)" />
<use xlink:href="#f2_1x" transform="matrix(12,0,0,12.2,112.9,835.4)" />
<use xlink:href="#f2_2a" transform="matrix(12,0,0,12.2,120.9,835.4)" />
<use xlink:href="#f2_2f" transform="matrix(12,0,0,12.2,83.7,861.3)" />
<use xlink:href="#f2_21" transform="matrix(12,0,0,12.2,90.8,861.3)" />
<use xlink:href="#f2_1z" transform="matrix(12,0,0,12.2,98.8,861.3)" />
<use xlink:href="#f2_2f" transform="matrix(12,0,0,12.2,127.3,861.3)" />
<use xlink:href="#f2_21" transform="matrix(12,0,0,12.2,134.4,861.3)" />
<use xlink:href="#f2_1z" transform="matrix(12,0,0,12.2,142.4,861.3)" />
<use xlink:href="#f2_l" transform="matrix(12,0,0,12.2,100.8,886.8)" />
<use xlink:href="#f2_2g" transform="matrix(12,0,0,12.2,126.2,886.8)" />
<use xlink:href="#f2_1x" transform="matrix(12,0,0,12.2,131.3,886.8)" />
<use xlink:href="#f2_2a" transform="matrix(12,0,0,12.2,139.3,886.8)" />
<use xlink:href="#f3_20" transform="matrix(12,0,0,12.2,132.4,800.3)" />
<use xlink:href="#f3_2k" transform="matrix(12,0,0,12.2,141.5,800.3)" />
<use xlink:href="#f3_2k" transform="matrix(12,0,0,12.2,120.4,814.5)" />
<use xlink:href="#f3_2k" transform="matrix(12,0,0,12.2,141.3,835.4)" />
<use xlink:href="#f3_2k" transform="matrix(12,0,0,12.2,117.4,861.3)" />
<use xlink:href="#f3_2k" transform="matrix(12,0,0,12.2,161.1,861.3)" />
<use xlink:href="#f3_20" transform="matrix(12,0,0,12.2,169.1,861.3)" />
<use xlink:href="#f3_2k" transform="matrix(12,0,0,12.2,178.2,861.3)" />
<use xlink:href="#f3_2k" transform="matrix(12,0,0,12.2,159.7,886.8)" />
<use xlink:href="#f4_x" transform="matrix(12,0,0,12.2,58,821.2)" />
<use xlink:href="#f4_f" transform="matrix(12,0,0,12.2,93.6,835.4)" />
<use xlink:href="#f4_x" transform="matrix(12,0,0,12.2,58,872.7)" />
<use xlink:href="#f4_f" transform="matrix(12,0,0,12.2,111.9,886.8)" />
<use xlink:href="#f4_50" transform="matrix(18,0,0,18.3,72.7,827.8)" />
<use xlink:href="#f4_50" transform="matrix(18,0,0,18.3,72.7,879.3)" />
</g>
</g>
<path d="M83,920.6H223.5" class="g12_138" />
<g clip-path="url(#c11_138)">
<g fill="#000000" >
<use xlink:href="#f2_m" transform="matrix(7.4,0,0,7.2,137.4,905.4)" />
<use xlink:href="#f2_m" transform="matrix(7.4,0,0,7.2,187.2,905.4)" />
<use xlink:href="#f2_o" transform="matrix(7.4,0,0,7.2,167.7,931.3)" />
<use xlink:href="#f2_c" transform="matrix(12.7,0,0,12.4,83.9,913.8)" />
<use xlink:href="#f2_l" transform="matrix(12.7,0,0,12.4,88.5,913.8)" />
<use xlink:href="#f2_2g" transform="matrix(12.7,0,0,12.4,113.8,913.8)" />
<use xlink:href="#f2_1x" transform="matrix(12.7,0,0,12.4,118.9,913.8)" />
<use xlink:href="#f2_2a" transform="matrix(12.7,0,0,12.4,126.9,913.8)" />
<use xlink:href="#f2_d" transform="matrix(12.7,0,0,12.4,155.8,913.8)" />
<use xlink:href="#f2_2f" transform="matrix(12.7,0,0,12.4,163.4,913.8)" />
<use xlink:href="#f2_21" transform="matrix(12.7,0,0,12.4,170.5,913.8)" />
<use xlink:href="#f2_1z" transform="matrix(12.7,0,0,12.4,178.5,913.8)" />
<use xlink:href="#f2_l" transform="matrix(12.7,0,0,12.4,118.8,939.7)" />
<use xlink:href="#f2_2g" transform="matrix(12.7,0,0,12.4,144.2,939.7)" />
<use xlink:href="#f2_1x" transform="matrix(12.7,0,0,12.4,149.3,939.7)" />
<use xlink:href="#f2_2a" transform="matrix(12.7,0,0,12.4,157.3,939.7)" />
<use xlink:href="#f3_2k" transform="matrix(12.7,0,0,12.4,147.3,913.8)" />
<use xlink:href="#f3_2k" transform="matrix(12.7,0,0,12.4,197.1,913.8)" />
<use xlink:href="#f3_20" transform="matrix(12.7,0,0,12.4,205.1,913.8)" />
<use xlink:href="#f3_2k" transform="matrix(12.7,0,0,12.4,214.3,913.8)" />
<use xlink:href="#f3_2k" transform="matrix(12.7,0,0,12.4,177.6,939.7)" />
<use xlink:href="#f4_f" transform="matrix(12.7,0,0,12.4,99.6,913.8)" />
<use xlink:href="#f4_x" transform="matrix(12.7,0,0,12.4,57.9,925.3)" />
<use xlink:href="#f4_f" transform="matrix(12.7,0,0,12.4,129.9,939.7)" />
<use xlink:href="#f4_50" transform="matrix(19,0,0,18.6,72.7,932)" />
</g>
</g>
<g fill="#000000" >
<use xlink:href="#f2_2c" transform="matrix(12,0,0,12,55,962.8)" />
<use xlink:href="#f2_2h" transform="matrix(12,0,0,12,64.2,962.8)" />
<use xlink:href="#f2_2g" transform="matrix(12,0,0,12,73.4,962.8)" />
<use xlink:href="#f2_2g" transform="matrix(12,0,0,12,82.9,962.8)" />
<use xlink:href="#f2_1x" transform="matrix(12,0,0,12,88.4,962.8)" />
<use xlink:href="#f2_2a" transform="matrix(12,0,0,12,96.5,962.8)" />
<use xlink:href="#f2_2k" transform="matrix(12,0,0,12,110,962.8)" />
<use xlink:href="#f2_x" transform="matrix(12,0,0,12,123.5,962.8)" />
<use xlink:href="#f2_2g" transform="matrix(12,0,0,12,138.6,962.8)" />
<use xlink:href="#f6_13x" transform="matrix(12,0,0,12,148.9,962.8)" />
<use xlink:href="#f2_2f" transform="matrix(12,0,0,12,169.1,962.8)" />
<use xlink:href="#f2_21" transform="matrix(12,0,0,12,176.1,962.8)" />
<use xlink:href="#f2_1z" transform="matrix(12,0,0,12,184.1,962.8)" />
<use xlink:href="#f2_m" transform="matrix(7.9,0,0,7.9,192.2,955.8)" />
<use xlink:href="#f2_2k" transform="matrix(12,0,0,12,198.4,962.8)" />
<use xlink:href="#f2_20" transform="matrix(12,0,0,12,212,962.8)" />
<use xlink:href="#f2_2k" transform="matrix(12,0,0,12,221.2,962.8)" />
<use xlink:href="#f2_x" transform="matrix(12,0,0,12,234.7,962.8)" />
<use xlink:href="#f2_20" transform="matrix(12,0,0,12,249.7,962.8)" />
<use xlink:href="#f2_2g" transform="matrix(12,0,0,12,258.9,962.8)" />
</g>
<path d="M83.2,996h66.9" class="g13_138" />
<path d="M113.1,1024.1l-21.9,30.6m9.2,24.6h15.3" class="g14_138" />
<path d="M83.2,1056.6h80.6" class="g13_138" />
<g clip-path="url(#c12_138)">
<g fill="#000000" >
<use xlink:href="#f2_m" transform="matrix(7.1,0,0,7.1,120.1,981.1)" />
<use xlink:href="#f2_o" transform="matrix(7.1,0,0,7.1,128,1006.5)" />
<use xlink:href="#f2_m" transform="matrix(7.1,0,0,7.1,110.6,1046.3)" />
<use xlink:href="#f2_m" transform="matrix(7.1,0,0,7.1,305.3,1053)" />
<use xlink:href="#f2_m" transform="matrix(7.1,0,0,7.1,140.2,1075.7)" />
<use xlink:href="#f2_m" transform="matrix(7.1,0,0,7.1,107.8,1089.8)" />
<use xlink:href="#f2_c" transform="matrix(12.2,0,0,12.1,84.1,989.3)" />
<use xlink:href="#f2_l" transform="matrix(12.2,0,0,12.1,88.7,989.3)" />
<use xlink:href="#f2_d" transform="matrix(12.2,0,0,12.1,127.4,989.3)" />
<use xlink:href="#f2_l" transform="matrix(12.2,0,0,12.1,96.6,1014.7)" />
<use xlink:href="#f2_l" transform="matrix(12.2,0,0,12.1,94.6,1038.1)" />
<use xlink:href="#f2_c" transform="matrix(12.2,0,0,12.1,84.1,1042.7)" />
<use xlink:href="#f2_l" transform="matrix(12.2,0,0,12.1,133.3,1042.7)" />
<use xlink:href="#f2_d" transform="matrix(12.2,0,0,12.1,141.1,1042.7)" />
<use xlink:href="#f2_2n" transform="matrix(12.2,0,0,12.1,164.9,1061.2)" />
<use xlink:href="#f2_20" transform="matrix(12.2,0,0,12.1,172.9,1061.2)" />
<use xlink:href="#f2_25" transform="matrix(12.2,0,0,12.1,182.1,1061.2)" />
<use xlink:href="#f2_2i" transform="matrix(12.2,0,0,12.1,187.3,1061.2)" />
<use xlink:href="#f2_25" transform="matrix(12.2,0,0,12.1,196.2,1061.2)" />
<use xlink:href="#f2_20" transform="matrix(12.2,0,0,12.1,201.3,1061.2)" />
<use xlink:href="#f2_25" transform="matrix(12.2,0,0,12.1,210.5,1061.2)" />
<use xlink:href="#f2_2a" transform="matrix(12.2,0,0,12.1,215.7,1061.2)" />
<use xlink:href="#f2_23" transform="matrix(12.2,0,0,12.1,224.9,1061.2)" />
<use xlink:href="#f2_21" transform="matrix(12.2,0,0,12.1,238.7,1061.2)" />
<use xlink:href="#f2_1x" transform="matrix(12.2,0,0,12.1,246.7,1061.2)" />
<use xlink:href="#f2_1z" transform="matrix(12.2,0,0,12.1,254.8,1061.2)" />
<use xlink:href="#f2_24" transform="matrix(12.2,0,0,12.1,262.8,1061.2)" />
<use xlink:href="#f2_1y" transform="matrix(12.2,0,0,12.1,276.6,1061.2)" />
<use xlink:href="#f2_2l" transform="matrix(12.2,0,0,12.1,285.8,1061.2)" />
<use xlink:href="#f2_2g" transform="matrix(12.2,0,0,12.1,299,1061.2)" />
<use xlink:href="#f2_2p" transform="matrix(12.2,0,0,12.1,311.5,1061.2)" />
<use xlink:href="#f2_l" transform="matrix(12.2,0,0,12.1,103.4,1072.6)" />
<use xlink:href="#f3_2g" transform="matrix(12.2,0,0,12.1,113.4,989.3)" />
<use xlink:href="#f3_20" transform="matrix(12.2,0,0,12.1,134,989.3)" />
<use xlink:href="#f3_2g" transform="matrix(12.2,0,0,12.1,143.1,989.3)" />
<use xlink:href="#f3_2g" transform="matrix(12.2,0,0,12.1,121.3,1014.7)" />
<use xlink:href="#f3_20" transform="matrix(12.2,0,0,12.1,147.7,1042.7)" />
<use xlink:href="#f3_2g" transform="matrix(12.2,0,0,12.1,156.9,1042.7)" />
<use xlink:href="#f3_2g" transform="matrix(12.2,0,0,12.1,103.9,1054.4)" />
<use xlink:href="#f3_2g" transform="matrix(12.2,0,0,12.1,133.5,1083.9)" />
<use xlink:href="#f3_2g" transform="matrix(12.2,0,0,12.1,101.1,1097.9)" />
<use xlink:href="#f4_f" transform="matrix(12.2,0,0,12.1,99.9,989.3)" />
<use xlink:href="#f4_x" transform="matrix(12.2,0,0,12.1,58,1000.6)" />
<use xlink:href="#f4_f" transform="matrix(12.2,0,0,12.1,107.8,1014.7)" />
<use xlink:href="#f4_f" transform="matrix(12.2,0,0,12.1,121.3,1042.7)" />
<use xlink:href="#f4_x" transform="matrix(12.2,0,0,12.1,58,1061.2)" />
<use xlink:href="#f4_f" transform="matrix(12.2,0,0,12.1,120,1083.9)" />
<use xlink:href="#f4_50" transform="matrix(18.3,0,0,18.2,72.8,1007.2)" />
<use xlink:href="#f4_50" transform="matrix(18.3,0,0,18.2,72.8,1067.8)" />
</g>
</g>
<path d="M142.8,1111.9l-21.9,30.8" class="g15_138" />
<g clip-path="url(#c13_138)">
<g fill="#000000" >
<use xlink:href="#f4_c" transform="matrix(12.3,0,0,26.8,89.6,1135.7)" />
<use xlink:href="#f4_d" transform="matrix(12.3,0,0,26.8,148.5,1135.5)" />
</g>
</g>
<path d="M135.2,1153.5l-20.3,28.4" class="g15_138" />
<g clip-path="url(#c13_138)">
<g fill="#000000" >
<use xlink:href="#f4_c" transform="matrix(12.3,0,0,23.3,83.8,1176)" />
<use xlink:href="#f4_d" transform="matrix(12.3,0,0,23.3,137.2,1176)" />
</g>
</g>
<path d="M83.2,1146h95" class="g16_138" />
<g clip-path="url(#c13_138)">
<g fill="#000000" >
<use xlink:href="#f2_m" transform="matrix(7.3,0,0,7.1,140.3,1134.2)" />
<use xlink:href="#f2_m" transform="matrix(7.3,0,0,7.1,143.6,1156.1)" />
<use xlink:href="#f2_l" transform="matrix(12.5,0,0,12.2,124.3,1126)" />
<use xlink:href="#f2_l" transform="matrix(12.5,0,0,12.2,95.1,1130.6)" />
<use xlink:href="#f2_l" transform="matrix(12.5,0,0,12.2,116.6,1167.5)" />
<use xlink:href="#f2_m" transform="matrix(12.5,0,0,12.2,168.4,1172.2)" />
<use xlink:href="#f3_20" transform="matrix(12.5,0,0,12.2,156.4,1130.6)" />
<use xlink:href="#f3_2g" transform="matrix(12.5,0,0,12.2,165.6,1130.6)" />
<use xlink:href="#f3_2g" transform="matrix(12.5,0,0,12.2,133.5,1142.4)" />
<use xlink:href="#f3_2g" transform="matrix(12.5,0,0,12.2,90.8,1172.2)" />
<use xlink:href="#f3_2g" transform="matrix(12.5,0,0,12.2,125.9,1181.6)" />
<use xlink:href="#f4_f" transform="matrix(12.5,0,0,12.2,106.3,1130.6)" />
<use xlink:href="#f4_x" transform="matrix(12.5,0,0,12.2,57.9,1150.6)" />
<use xlink:href="#f4_h" transform="matrix(12.5,0,0,12.2,100.6,1172.2)" />
<use xlink:href="#f4_f" transform="matrix(12.5,0,0,12.2,154.3,1172.2)" />
<use xlink:href="#f4_50" transform="matrix(18.8,0,0,18.4,72.8,1157.2)" />
</g>
</g>
<path fill-rule="evenodd" d="M37.4,38.1h.7v-.7h-.7v.7Z" class="g17_138" />
<path fill-rule="evenodd" d="M37.4,38.1h.7v-.7h-.7v.7Z" class="g17_138" />
<path fill-rule="evenodd" d="M38.1,38.1H871.5v-.7H38.1v.7Z" class="g17_138" />
<path fill-rule="evenodd" d="M871.5,38.1h.8v-.7h-.8v.7Z" class="g17_138" />
<path fill-rule="evenodd" d="M871.5,38.1h.8v-.7h-.8v.7Z" class="g17_138" />
<path fill-rule="evenodd" d="M37.4,1248.5h.7V38.1h-.7V1248.5Z" class="g17_138" />
<path fill-rule="evenodd" d="M872.3,1248.5h.7V38.1h-.7V1248.5Z" class="g17_138" />
<path fill-rule="evenodd" d="M871.5,1248.5h.8V38.1h-.8V1248.5Z" class="g17_138" />
<path fill-rule="evenodd" d="M37.4,1249.2h.7v-.7h-.7v.7Z" class="g17_138" />
<path fill-rule="evenodd" d="M37.4,1249.2h.7v-.7h-.7v.7Z" class="g17_138" />
<path fill-rule="evenodd" d="M38.1,1249.9H871.5v-.7H38.1v.7Z" class="g17_138" />
<path fill-rule="evenodd" d="M38.1,1249.2H871.5v-.7H38.1v.7Z" class="g17_138" />
<path fill-rule="evenodd" d="M872.3,1249.9h.7v-1.4h-.7v1.4Z" class="g17_138" />
<path fill-rule="evenodd" d="M871.5,1249.9H873v-.7h-1.5v.7Z" class="g17_138" />
<path fill-rule="evenodd" d="M871.5,1249.2h.8v-.7h-.8v.7Z" class="g17_138" />
<path fill-rule="evenodd" d="M871.5,1249.2h.8v-.7h-.8v.7Z" class="g17_138" />
<defs>
<path d="M489,-15c0,0,-99,0,-179,30c0,0,-80,30,-136,91c0,0,-56,61,-85,152c0,0,-30,91,-30,212c0,0,0,123,32,218c0,0,33,96,92,161c0,0,59,65,142,98c0,0,82,34,181,34c0,0,40,0,78,-7c0,0,37,-7,69,-18c0,0,31,-11,57,-25c0,0,25,-14,35,-24c0,0,10,-10,14,-17c0,0,4,-7,6,-17c0,0,2,-11,3,-25c0,0,2,-14,2,-35c0,0,0,-22,-2,-38c0,0,-1,-15,-5,-25c0,0,-4,-10,-9,-14c0,0,-5,-5,-12,-5c0,0,-11,0,-28,13c0,0,-18,13,-45,29c0,0,-27,16,-65,29c0,0,-37,13,-89,13c0,0,-58,0,-103,-23c0,0,-45,-23,-77,-67c0,0,-31,-44,-48,-106c0,0,-16,-61,-16,-139c0,0,0,-85,17,-147c0,0,18,-62,50,-103c0,0,33,-40,79,-60c0,0,45,-19,103,-19c0,0,52,0,90,12c0,0,38,12,65,27c0,0,27,15,45,27c0,0,17,12,27,12c0,0,8,0,12,-3c0,0,4,-3,7,-12c0,0,3,-9,5,-25c0,0,1,-16,1,-43c0,0,0,-18,-1,-31c0,0,-1,-14,-3,-23c0,0,-2,-9,-6,-16c0,0,-4,-7,-12,-15c0,0,-8,-9,-32,-22c0,0,-23,-14,-57,-26C661,13,627,1,583,-6c0,0,-43,-9,-94,-9Z" 
id="f0_j"
transform="scale(0.001,-0.001)" />

<path d="M440,150c0,0,41,0,68,8c0,0,28,9,49,26c0,0,20,16,32,41c0,0,11,25,11,58c0,0,0,33,-11,60c0,0,-11,26,-33,44c0,0,-21,18,-55,28c0,0,-33,9,-87,9H298V150ZM407,567c0,0,42,0,68,10c0,0,25,10,42,28c0,0,16,17,24,41c0,0,9,24,9,50c0,0,0,29,-9,52c0,0,-9,23,-27,39c0,0,-18,15,-45,23c0,0,-27,8,-72,8H298V567ZM164,0c0,0,-25,0,-42,15c0,0,-16,14,-16,47V903c0,0,0,33,16,48c0,0,17,14,42,14H406c0,0,88,0,150,-15c0,0,61,-15,103,-45c0,0,42,-30,65,-77c0,0,22,-46,22,-108c0,0,0,-36,-9,-67c0,0,-9,-31,-26,-56c0,0,-17,-25,-42,-45c0,0,-25,-19,-57,-31c0,0,41,-7,76,-26c0,0,34,-19,60,-48c0,0,26,-30,41,-69c0,0,15,-40,15,-89c0,0,0,-51,-14,-93c0,0,-15,-42,-40,-74c0,0,-25,-32,-59,-55c0,0,-35,-23,-77,-38C614,29,573,14,525,7C525,7,478,0,420,0Z" 
id="f0_i"
transform="scale(0.001,-0.001)" />

<path d="M320,-17c0,0,-50,0,-93,9c0,0,-43,8,-76,19c0,0,-32,11,-54,24C97,35,75,48,65,58c0,0,-10,9,-14,28c0,0,-4,18,-4,52c0,0,0,23,1,39c0,0,2,15,5,25c0,0,4,10,9,14c0,0,6,4,13,4c0,0,11,0,30,-12c0,0,19,-13,49,-28c0,0,30,-15,71,-27c0,0,42,-12,96,-12c0,0,36,0,64,8c0,0,29,9,49,25c0,0,19,15,30,38c0,0,10,23,10,52c0,0,0,33,-18,56c0,0,-18,24,-46,42c0,0,-29,18,-66,34c0,0,-36,16,-75,34c0,0,-39,18,-76,41c0,0,-36,23,-65,54c0,0,-29,32,-47,75c0,0,-17,44,-17,104c0,0,0,70,25,122c0,0,26,53,70,88c0,0,43,34,103,51c0,0,59,18,125,18c0,0,35,0,69,-6c0,0,34,-5,64,-14c0,0,30,-9,53,-20c0,0,23,-11,31,-18c0,0,7,-8,10,-13c0,0,3,-5,4,-14c0,0,2,-8,3,-21c0,0,1,-13,1,-33c0,0,0,-21,-1,-36c0,0,-1,-15,-4,-25c0,0,-3,-9,-7,-14c0,0,-5,-4,-14,-4c0,0,-8,0,-26,10c0,0,-18,10,-44,23c0,0,-26,12,-60,22c0,0,-34,10,-75,10c0,0,-32,0,-56,-8c0,0,-24,-8,-40,-21c0,0,-16,-14,-24,-34c0,0,-8,-19,-8,-41c0,0,0,-32,18,-56c0,0,17,-23,46,-42c0,0,30,-18,67,-34c0,0,38,-16,76,-34c0,0,39,-18,76,-41c0,0,38,-22,67,-54c0,0,29,-32,47,-75c0,0,18,-43,18,-101c0,0,0,-76,-29,-133c0,0,-28,-58,-77,-96C572,60,524,21,459,2c0,0,-65,-19,-139,-19Z" 
id="f0_2n"
transform="scale(0.001,-0.001)" />

<path d="M164,0c0,0,-25,0,-42,15c0,0,-16,14,-16,47V903c0,0,0,33,16,48c0,0,17,14,42,14H645c0,0,7,0,12,-4c0,0,5,-3,9,-13c0,0,4,-9,6,-24c0,0,2,-14,2,-36c0,0,0,-21,-2,-36c0,0,-2,-14,-6,-23c0,0,-4,-9,-9,-13c0,0,-5,-4,-12,-4H301V576H593c0,0,6,0,12,-4c0,0,6,-4,9,-13c0,0,4,-8,6,-23c0,0,2,-14,2,-35c0,0,0,-22,-2,-36c0,0,-2,-14,-6,-23c0,0,-3,-8,-9,-12c0,0,-6,-4,-12,-4H301V154H649c0,0,6,0,12,-5c0,0,5,-4,9,-13c0,0,4,-9,6,-23c0,0,2,-15,2,-36c0,0,0,-22,-2,-36c0,0,-2,-15,-6,-24c0,0,-4,-9,-9,-13c0,0,-6,-4,-12,-4Z" 
id="f0_t"
transform="scale(0.001,-0.001)" />

<path d="M79,297c0,0,-19,0,-27,18c0,0,-8,17,-8,60c0,0,0,41,8,59c0,0,8,17,27,17H389c0,0,9,0,15,-4c0,0,7,-4,11,-13c0,0,5,-9,7,-23c0,0,1,-15,1,-36c0,0,0,-43,-8,-61c0,0,-8,-17,-26,-17Z" 
id="f0_oj"
transform="scale(0.001,-0.001)" />

<path d="M121,-4c0,0,-39,0,-60,2C61,-2,39,0,32,8c0,0,-8,8,-3,24c0,0,4,15,18,41L279,495L64,892c0,0,-14,26,-19,42c0,0,-5,17,4,24c0,0,9,8,32,10c0,0,23,2,65,2c0,0,35,0,56,-2c0,0,20,-1,32,-4c0,0,12,-4,17,-10c0,0,5,-6,9,-15L431,620L595,939c0,0,5,9,10,15c0,0,5,6,16,10c0,0,10,3,29,4c0,0,19,2,53,2c0,0,37,0,59,-2c0,0,22,-2,30,-10c0,0,8,-8,4,-24c0,0,-4,-16,-17,-42L564,497L793,73c0,0,14,-26,18,-41c0,0,4,-16,-5,-24c0,0,-9,-8,-32,-10c0,0,-24,-2,-65,-2c0,0,-36,0,-56,2c0,0,-20,1,-31,3c0,0,-12,4,-17,10c0,0,-5,6,-9,15L414,374L233,26c0,0,-4,-9,-9,-15c0,0,-6,-6,-17,-10c0,0,-12,-2,-32,-3c0,0,-21,-2,-54,-2Z" 
id="f0_3e"
transform="scale(0.001,-0.001)" />

<path d="M204,-4c0,0,-28,0,-47,2c0,0,-19,2,-31,5c0,0,-11,4,-16,10c0,0,-4,6,-4,13V939c0,0,0,7,4,13c0,0,5,6,17,10c0,0,11,3,30,6c0,0,19,2,47,2c0,0,29,0,48,-2c0,0,18,-3,29,-6c0,0,11,-4,16,-10c0,0,5,-6,5,-13V26c0,0,0,-7,-5,-13c0,0,-5,-6,-16,-10c0,0,-11,-3,-29,-5c0,0,-19,-2,-48,-2Z" 
id="f0_1c"
transform="scale(0.001,-0.001)" />

<path d="M127,0c0,0,-16,0,-28,3C99,3,87,6,80,15c0,0,-8,8,-11,25c0,0,-3,16,-3,42c0,0,0,25,2,42c0,0,2,18,8,32c0,0,6,14,15,27c0,0,9,13,24,29L282,390c0,0,50,53,81,95c0,0,30,43,47,79c0,0,17,35,24,65c0,0,6,30,6,57c0,0,0,24,-8,46c0,0,-8,22,-23,39c0,0,-15,16,-38,25c0,0,-23,10,-55,10c0,0,-44,0,-78,-12c0,0,-33,-11,-59,-25c0,0,-26,-13,-43,-25c0,0,-17,-12,-27,-12c0,0,-7,0,-11,5c0,0,-5,4,-8,15c0,0,-3,10,-5,28c0,0,-2,17,-2,42c0,0,0,18,1,29c0,0,1,12,4,20c0,0,2,9,6,15c0,0,3,6,13,15c0,0,9,9,34,23c0,0,25,14,61,27c0,0,37,14,81,23c0,0,44,9,92,9c0,0,75,0,131,-19c0,0,57,-19,94,-53c0,0,37,-34,55,-81c0,0,19,-47,19,-100c0,0,0,-47,-9,-93c0,0,-9,-45,-37,-98c0,0,-29,-52,-80,-116c0,0,-52,-64,-136,-148L299,159H679c0,0,8,0,14,-4c0,0,6,-5,11,-14c0,0,4,-9,7,-25c0,0,2,-15,2,-36c0,0,0,-22,-2,-37c0,0,-2,-15,-6,-25c0,0,-3,-10,-9,-14c0,0,-6,-4,-14,-4Z" 
id="f0_rz"
transform="scale(0.001,-0.001)" />

<path d="M385,138c0,0,29,0,52,9c0,0,22,10,39,28c0,0,17,19,28,47c0,0,11,29,19,66c0,0,7,37,9,84c0,0,3,47,3,104c0,0,0,69,-4,122c0,0,-4,52,-11,91c0,0,-8,39,-20,66c0,0,-12,27,-28,43c0,0,-16,16,-37,22c0,0,-21,7,-47,7c0,0,-44,0,-73,-21c0,0,-28,-21,-45,-64c0,0,-17,-42,-24,-106c0,0,-6,-63,-6,-148c0,0,0,-103,8,-171c0,0,8,-67,26,-107c0,0,17,-40,45,-56c0,0,27,-16,66,-16ZM378,-17c0,0,-99,0,-164,33c0,0,-65,34,-103,98c0,0,-38,64,-54,156c0,0,-15,92,-15,209c0,0,0,115,19,208c0,0,19,94,61,160c0,0,42,65,110,101c0,0,68,35,165,35c0,0,99,0,164,-34c0,0,65,-34,103,-98c0,0,39,-64,53,-156c0,0,15,-92,15,-209c0,0,0,-115,-18,-209c0,0,-19,-93,-61,-159C653,118,611,53,543,17c0,0,-67,-34,-165,-34Z" 
id="f0_rx"
transform="scale(0.001,-0.001)" />

<path d="M142,0c0,0,-6,0,-12,4c0,0,-5,3,-9,12c0,0,-4,9,-6,23c0,0,-3,15,-3,36c0,0,0,21,2,36c0,0,2,14,6,23c0,0,4,9,10,13c0,0,5,5,12,5H322V779L166,693c0,0,-17,-8,-28,-10c0,0,-1,0,-3,0c-4,0,-10,1,-14,5c0,0,-6,6,-8,22c0,0,-2,15,-2,44c0,0,0,18,0,29c0,0,1,12,4,20c0,0,3,8,8,14c0,0,5,5,14,11L345,962c0,0,4,3,9,5c0,0,6,2,15,3c0,0,9,1,23,2c0,0,15,0,38,0c0,0,28,0,46,-1c0,0,17,-1,26,-4c0,0,9,-3,12,-7c0,0,3,-4,3,-11V152H675c0,0,7,0,12,-5c0,0,6,-4,10,-13c0,0,4,-9,6,-23c0,0,2,-15,2,-36c0,0,0,-21,-2,-36c0,0,-3,-14,-7,-23c0,0,-4,-9,-9,-12c0,0,-5,-4,-12,-4Z" 
id="f0_ry"
transform="scale(0.001,-0.001)" />

<path d="M439,356V801h-1L183,356ZM532,-4c0,0,-27,0,-45,2c0,0,-18,2,-29,5c0,0,-11,3,-15,9c0,0,-4,5,-4,13V199H70c0,0,-11,0,-19,3c0,0,-8,3,-14,12c0,0,-5,9,-8,27c0,0,-3,17,-3,46c0,0,0,24,2,42c0,0,1,17,3,31c0,0,3,15,8,27c0,0,5,13,12,27L351,944c0,0,4,7,13,11c0,0,9,5,25,9c0,0,16,3,40,4c0,0,25,2,60,2c0,0,38,0,65,-2c0,0,27,-2,43,-6c0,0,16,-4,23,-10c0,0,8,-6,8,-14V356h85c0,0,12,0,21,-18c0,0,8,-19,8,-61c0,0,0,-38,-8,-58c0,0,-7,-20,-21,-20H628V25c0,0,0,-8,-5,-13c0,0,-4,-6,-15,-9c0,0,-12,-3,-29,-5c0,0,-18,-2,-47,-2Z" 
id="f0_s6"
transform="scale(0.001,-0.001)" />

<path d="M589,371L453,782h-1L317,371ZM106,-4c0,0,-35,0,-54,2C52,-2,32,0,25,8c0,0,-7,9,-5,24c0,0,2,16,11,42L329,931c0,0,4,13,10,21c0,0,6,7,19,12c0,0,13,4,36,5c0,0,23,1,61,1c0,0,44,0,71,-1c0,0,26,-1,40,-5c0,0,15,-5,21,-13c0,0,6,-8,11,-22L896,73c0,0,9,-27,11,-43c0,0,3,-15,-6,-23c0,0,-8,-7,-29,-9c0,0,-21,-2,-57,-2c0,0,-38,0,-59,1c0,0,-22,1,-33,4c0,0,-11,3,-16,9c0,0,-4,6,-7,16L635,220H272L211,31c0,0,-2,-11,-7,-18c0,0,-5,-7,-16,-11c0,0,-11,-3,-31,-4c0,0,-19,-2,-51,-2Z" 
id="f0_5"
transform="scale(0.001,-0.001)" />

<path d="M198,-4c0,0,-27,0,-45,2c0,0,-18,2,-28,5c0,0,-11,4,-15,10c0,0,-4,6,-4,13V887c0,0,0,38,20,58c0,0,20,20,53,20H308c0,0,34,0,59,-6c0,0,24,-5,42,-18c0,0,18,-13,30,-35c0,0,12,-21,21,-52L669,279h3L889,852c0,0,9,32,21,53c0,0,11,22,27,35c0,0,15,14,36,19c0,0,21,6,48,6h132c0,0,21,0,35,-5c0,0,15,-5,24,-15c0,0,9,-11,14,-25c0,0,5,-15,5,-33V26c0,0,0,-7,-4,-13c0,0,-4,-6,-15,-10c0,0,-11,-3,-29,-5c0,0,-18,-2,-45,-2c0,0,-27,0,-45,2c0,0,-18,2,-28,5c0,0,-11,4,-15,10c0,0,-5,6,-5,13V813h-1L764,27c0,0,-3,-10,-10,-16c0,0,-6,-6,-18,-10c0,0,-12,-3,-29,-4c0,0,-18,-1,-44,-1c0,0,-25,0,-43,2c0,0,-18,2,-29,5c0,0,-12,4,-19,10c0,0,-6,6,-9,14L293,813h-2V26c0,0,0,-7,-4,-13c0,0,-4,-6,-15,-10c0,0,-11,-3,-29,-5c0,0,-17,-2,-45,-2Z" 
id="f0_1x"
transform="scale(0.001,-0.001)" />

<path d="M193,-4c0,0,-26,0,-43,2c0,0,-18,2,-27,6c0,0,-10,4,-14,10c0,0,-3,6,-3,13V895c0,0,0,35,20,53c0,0,21,17,50,17H282c0,0,28,0,47,-5c0,0,20,-5,35,-16c0,0,15,-11,29,-31c0,0,13,-20,27,-49L608,511c0,0,17,-32,33,-63c0,0,16,-31,31,-62c0,0,14,-31,29,-60c0,0,14,-30,27,-60h1c0,0,-2,52,-3,109c0,0,-1,57,-1,108V936c0,0,0,7,4,13c0,0,5,6,15,11c0,0,10,4,28,6c0,0,17,2,44,2c0,0,25,0,42,-2c0,0,17,-2,27,-6c0,0,9,-5,13,-11c0,0,4,-6,4,-13V68c0,0,0,-17,-6,-30c0,0,-6,-14,-17,-23C879,15,869,6,856,2c0,0,-14,-3,-28,-3H744c0,0,-26,0,-45,4c0,0,-19,5,-35,19c0,0,-16,14,-31,38c0,0,-15,23,-34,60L359,572c0,0,-21,40,-43,86c0,0,-21,47,-38,91h-2c0,0,3,-54,5,-107c0,0,2,-53,2,-110V27c0,0,0,-7,-5,-13c0,0,-4,-6,-14,-10c0,0,-10,-4,-27,-6c0,0,-17,-2,-44,-2Z" 
id="f0_1y"
transform="scale(0.001,-0.001)" />

<path d="M378,-4c0,0,-28,0,-47,2c0,0,-19,2,-31,5c0,0,-11,4,-16,10c0,0,-4,6,-4,13V805H38c0,0,-8,0,-13,4c0,0,-5,5,-9,14c0,0,-3,9,-5,25c0,0,-2,15,-2,37c0,0,0,22,2,38c0,0,2,15,5,25c0,0,4,9,9,13c0,0,5,4,13,4H718c0,0,7,0,12,-4c0,0,6,-4,10,-13c0,0,3,-10,5,-25c0,0,2,-16,2,-38c0,0,0,-22,-2,-37c0,0,-2,-16,-5,-25c0,0,-4,-9,-10,-14c0,0,-5,-4,-12,-4H476V26c0,0,0,-7,-5,-13c0,0,-5,-6,-16,-10c0,0,-11,-3,-30,-5c0,0,-19,-2,-47,-2Z" 
id="f0_2t"
transform="scale(0.001,-0.001)" />

<path d="M514,145c0,0,72,0,121,27c0,0,48,26,78,73c0,0,30,46,42,107c0,0,13,62,13,131c0,0,0,76,-12,139c0,0,-12,62,-41,106c0,0,-29,45,-76,69c0,0,-48,24,-120,24c0,0,-72,0,-120,-27c0,0,-49,-27,-79,-73c0,0,-29,-45,-42,-106c0,0,-12,-61,-12,-129c0,0,0,-79,12,-142c0,0,12,-63,40,-108c0,0,28,-44,76,-68c0,0,48,-23,120,-23ZM508,-17c0,0,-113,0,-196,29c0,0,-84,29,-140,90c0,0,-56,60,-84,154c0,0,-28,93,-28,221c0,0,0,117,29,210c0,0,30,94,89,160c0,0,59,65,146,101c0,0,87,35,202,35c0,0,110,0,194,-29c0,0,84,-30,140,-90c0,0,56,-60,85,-153c0,0,29,-92,29,-217c0,0,0,-120,-30,-215c0,0,-30,-95,-89,-161C855,118,796,52,709,17c0,0,-87,-34,-201,-34Z" 
id="f0_24"
transform="scale(0.001,-0.001)" />

<path d="M75,0L400,413c0,0,71,91,101,149c0,0,30,58,30,109c0,0,0,55,-36,91c0,0,-36,36,-91,36c0,0,-63,0,-91,-45c0,0,-28,-46,-34,-142H67c0,0,0,173,102,268c0,0,102,95,253,95c0,0,140,0,229,-82c0,0,89,-82,89,-209c0,0,0,-125,-104,-276L580,324c0,0,-34,-50,-85,-114L468,178H740V0Z" 
id="f1_m"
transform="scale(0.001,-0.001)" />

<path d="M403,172c0,0,80,0,127,81c0,0,48,80,48,218c0,0,0,145,-47,227c0,0,-46,83,-125,83c0,0,-82,0,-129,-83c0,0,-47,-82,-47,-230c0,0,0,-135,48,-215c0,0,48,-81,125,-81Zm3,-182c0,0,-167,0,-272,130C134,120,30,251,30,464c0,0,0,227,102,364c0,0,102,137,268,137h6c0,0,170,0,271,-130c0,0,100,-130,100,-347c0,0,0,-253,-112,-376C665,112,553,-10,406,-10Z" 
id="f1_k"
transform="scale(0.001,-0.001)" />

<path d="M44,-281L425,1053H537L156,-281Z" 
id="f1_j"
transform="scale(0.001,-0.001)" />

<path d="M340,-13c0,0,-73,0,-129,20C211,7,155,27,86,74l22,217c0,0,156,-103,245,-103c0,0,64,0,112,45c0,0,47,46,47,107c0,0,0,68,-47,113c0,0,-48,46,-121,46c0,0,-85,0,-184,-42l48,495H681V777H393L382,665c0,0,163,0,251,-95c0,0,88,-95,88,-224c0,0,0,-146,-113,-253C608,93,494,-13,340,-13Z" 
id="f1_p"
transform="scale(0.001,-0.001)" />

<path d="M420,-22L89,941L1,960v40H383V960L236,941L474,236L744,930h33L1037,236l227,705l-156,19v40h331V960l-87,-19L1025,-22H985L726,666L460,-22Z" 
id="f2_1n"
transform="scale(0.001,-0.001)" />

<path d="M442,0V33l93,19V504c0,0,0,129,-124,129c0,0,-70,0,-168,-22V52L338,33V0H31V33l88,19v956L15,1026v34H243V756c0,0,0,-77,-5,-112c0,0,54,31,122,53c0,0,68,23,115,23c0,0,91,0,137,-53c0,0,47,-53,47,-154V52L744,33V0Z" 
id="f2_24"
transform="scale(0.001,-0.001)" />

<path d="M32,0V33L151,52V649L52,668v33H275V52L395,33V0ZM201,850c0,0,-32,0,-56,24c0,0,-24,24,-24,56c0,0,0,34,24,58c0,0,24,24,56,24c0,0,34,0,58,-24c0,0,24,-24,24,-58c0,0,0,-32,-24,-56c0,0,-24,-24,-58,-24Z" 
id="f2_25"
transform="scale(0.001,-0.001)" />

<path d="M399,-14c0,0,-341,0,-341,370c0,0,0,175,87,269c0,0,87,95,249,95c0,0,101,0,220,-23V501H573L541,625c0,0,-62,35,-149,35c0,0,-200,0,-200,-304c0,0,0,-158,61,-225c0,0,61,-67,189,-67c0,0,109,0,189,24V43C631,43,595,16,530,1c0,0,-64,-15,-131,-15Z" 
id="f2_1z"
transform="scale(0.001,-0.001)" />

<path d="M278,-14c0,0,-52,0,-115,11c0,0,-63,10,-99,23V193H98L134,95c0,0,56,-50,146,-50c0,0,144,0,144,123c0,0,0,91,-114,130l-66,21c0,0,-75,25,-110,50c0,0,-34,26,-53,63c0,0,-18,36,-18,89c0,0,0,92,63,145c0,0,63,54,170,54c0,0,77,0,193,-23V544H454l-32,81c0,0,-39,35,-124,35c0,0,-61,0,-92,-30c0,0,-32,-30,-32,-80c0,0,0,-43,29,-72c0,0,28,-29,86,-48c0,0,110,-38,144,-55c0,0,33,-17,57,-42c0,0,23,-25,36,-57c0,0,13,-32,13,-79c0,0,0,-104,-66,-158c0,0,-66,-53,-195,-53Z" 
id="f2_2f"
transform="scale(0.001,-0.001)" />

<path d="M31,0V33L150,52v956L31,1026v34H274V52L394,33V0Z" 
id="f2_28"
transform="scale(0.001,-0.001)" />

<path d="M495,413c0,0,0,133,-34,190c0,0,-34,57,-105,57c0,0,-78,0,-119,-63c0,0,-42,-62,-42,-184ZM374,-14c0,0,-163,0,-239,87c0,0,-75,88,-75,283c0,0,0,183,77,273c0,0,76,91,219,91c0,0,269,0,269,-306V353H194V340c0,0,0,-103,23,-160c0,0,22,-57,70,-87c0,0,47,-29,124,-29c0,0,40,0,96,6c0,0,55,7,91,15V43C598,43,562,20,500,3c0,0,-61,-17,-126,-17Z" 
id="f2_21"
transform="scale(0.001,-0.001)" />

<path d="M249,-14c0,0,-71,0,-107,42c0,0,-35,42,-35,119V639H15v33l93,29l76,159h47V701H391V639H231V161c0,0,0,-48,22,-73c0,0,22,-24,57,-24c0,0,44,0,106,12V26C416,26,389,8,340,-2c0,0,-49,-12,-91,-12Z" 
id="f2_2g"
transform="scale(0.001,-0.001)" />

<path d="M284,67c0,0,51,0,88,12c0,0,37,12,74,30V358l-98,-3c0,0,-100,-4,-135,-39c0,0,-35,-35,-35,-117c0,0,0,-132,106,-132ZM233,-14c0,0,-179,0,-179,208c0,0,0,70,27,116c0,0,27,46,87,70c0,0,60,24,173,27l105,3V519c0,0,0,72,-26,107c0,0,-27,34,-82,34c0,0,-75,0,-137,-35L176,538H134V691c0,0,121,26,213,26c0,0,115,0,169,-47c0,0,54,-47,54,-144V52L657,33V0H465L451,70c0,0,-85,-84,-218,-84Z" 
id="f2_1x"
transform="scale(0.001,-0.001)" />

<path d="M439,0V33l93,19V500c0,0,0,62,-30,97c0,0,-31,36,-94,36c0,0,-67,0,-165,-22V52L338,33V0H35V33l84,19V649L35,668v33H235l7,-57c0,0,57,33,122,54c0,0,65,22,108,22c0,0,91,0,137,-53c0,0,47,-53,47,-154V52L741,33V0Z" 
id="f2_2a"
transform="scale(0.001,-0.001)" />

<path d="M41,0V34L426,641H261c0,0,-42,0,-80,-7c0,0,-39,-7,-54,-19L104,515H69V701H586V665L201,60H407c0,0,42,0,89,10c0,0,47,10,66,25l39,147h35L617,0Z" 
id="f2_2m"
transform="scale(0.001,-0.001)" />

<path d="M31,0V33l88,19V649L31,668v33H235l7,-87c0,0,44,37,121,71c0,0,76,35,121,35h11V530H463l-43,82c0,0,-37,0,-88,-10c0,0,-52,-10,-89,-26V52L363,33V0Z" 
id="f2_2e"
transform="scale(0.001,-0.001)" />

<path d="M377,45c0,0,99,0,147,73c0,0,47,73,47,237c0,0,0,161,-47,233c0,0,-47,72,-147,72c0,0,-97,0,-141,-69c0,0,-44,-69,-44,-236c0,0,0,-169,45,-240c0,0,44,-70,140,-70Zm0,-59c0,0,-158,0,-238,94c0,0,-81,95,-81,274c0,0,0,178,81,272c0,0,80,94,244,94c0,0,160,0,241,-92c0,0,82,-92,82,-274c0,0,0,-368,-329,-368Z" 
id="f2_2b"
transform="scale(0.001,-0.001)" />

<path d="M58,-234v58c0,0,131,42,131,125c0,0,0,15,-11,27c0,0,-11,12,-38,25C140,1,89,27,89,75c0,0,0,40,25,61c0,0,26,21,65,21c0,0,48,0,77,-34c0,0,30,-34,30,-86c0,0,0,-101,-60,-170c0,0,-59,-69,-168,-101Z" 
id="f2_g"
transform="scale(0.001,-0.001)" />

<path d="M64,0V34L168,59V639H47v36l121,29v49c0,0,0,155,61,239c0,0,62,84,173,84c0,0,58,0,107,-15V908H472l-33,92c0,0,-26,16,-62,16c0,0,-47,0,-66,-42c0,0,-19,-42,-19,-157V701H478V639H292V59L443,34V0Z" 
id="f2_22"
transform="scale(0.001,-0.001)" />

<path d="M476,327V830h-4L114,327ZM476,0V220H30v99l488,686h86V327H740V220H604V0Z" 
id="f2_o"
transform="scale(0.001,-0.001)" />

<path d="M350,-14c0,0,-142,0,-269,31L73,228h49L156,87c0,0,29,-16,82,-28c0,0,54,-12,100,-12c0,0,117,0,173,54c0,0,56,53,56,178c0,0,0,99,-52,150c0,0,-51,51,-159,56l-107,6v61l107,7c0,0,84,5,124,52c0,0,41,48,41,145c0,0,0,101,-44,147c0,0,-44,45,-139,45c0,0,-40,0,-83,-10c0,0,-43,-11,-76,-29L153,786H104V979c0,0,74,19,127,26c0,0,54,6,107,6c0,0,321,0,321,-246c0,0,0,-104,-57,-165c0,0,-57,-62,-162,-77c0,0,136,-16,200,-78c0,0,64,-62,64,-173c0,0,0,-135,-92,-211c0,0,-93,-75,-262,-75Z" 
id="f2_n"
transform="scale(0.001,-0.001)" />

<path d="M62,0L176,649L88,668l6,33H301L278,543c0,0,55,84,124,130c0,0,69,47,138,47c0,0,37,0,59,-6L566,530H534l-28,95c0,0,-60,0,-124,-46c0,0,-63,-45,-116,-120L186,0Z" 
id="f3_2e"
transform="scale(0.001,-0.001)" />

<path d="M55,0L232,1008l-88,18l6,34H365L286,615L274,558c0,0,59,79,128,120c0,0,68,42,134,42c0,0,75,0,113,-41c0,0,38,-41,38,-117c0,0,0,-10,-3,-32c0,0,-3,-21,-81,-478L700,34L695,0H470l76,434c0,0,17,94,17,123c0,0,0,34,-18,55c0,0,-18,21,-56,21c0,0,-56,0,-121,-47c0,0,-65,-47,-107,-114L178,0Z" 
id="f3_24"
transform="scale(0.001,-0.001)" />

<path d="M0,214v74H784V214ZM0,494v72H784V494Z" 
id="f4_x"
transform="scale(0.001,-0.001)" />

<path d="M617,0L251,860V60L385,40V0H44V40L172,60V941L44,960v40H347L672,239l355,761h287V960L1185,941V60L1314,40V0H908V40l134,20V859L643,0Z" 
id="f2_1d"
transform="scale(0.001,-0.001)" />

<path d="M13,0V34L95,46L325,350L122,649L40,668v33H357V668L264,648L399,446L554,649l-96,19v33H710V668L630,652L433,397L663,50L745,34V0H427V34l94,17L359,299L169,50L266,34V0Z" 
id="f2_2k"
transform="scale(0.001,-0.001)" />

<path d="M431,0V33L535,52V499c0,0,0,62,-32,96c0,0,-32,33,-95,33c0,0,-66,0,-163,-22V52L350,33V0H32V33l89,19V649L32,668v33H237l6,-57c0,0,56,32,119,54c0,0,62,22,110,22c0,0,52,0,95,-20c0,0,44,-19,66,-62c0,0,57,32,134,57c0,0,77,25,128,25c0,0,179,0,179,-207V52l90,-19V0H846V33L950,52V499c0,0,0,129,-119,129c0,0,-19,0,-45,-3c0,0,-26,-3,-52,-7c0,0,-25,-4,-49,-8c0,0,-23,-5,-39,-8c0,0,13,-41,13,-89V52L764,33V0Z" 
id="f2_29"
transform="scale(0.001,-0.001)" />

<path d="M383,64c0,0,85,0,152,28V645c0,0,-67,13,-152,13c0,0,-194,0,-194,-314c0,0,0,-141,48,-211c0,0,48,-69,146,-69ZM342,-14c0,0,-287,0,-287,358c0,0,0,184,82,280c0,0,81,96,239,96c0,0,81,0,163,-18c0,0,-4,25,-4,124v182l-118,18v34H659V52L745,33V0H548l-9,52c0,0,-84,-66,-197,-66Z" 
id="f2_20"
transform="scale(0.001,-0.001)" />

<path d="M536,-22L130,941L17,960v40H421V960L287,941L590,205L892,941L761,960v40h325V960L976,941L574,-22Z" 
id="f2_1m"
transform="scale(0.001,-0.001)" />

<path d="M289,-14c0,0,-179,0,-179,205V649L20,668v33H233V200c0,0,0,-128,120,-128c0,0,92,0,173,23V649L420,668v33H649V52L738,33V0H533l-6,57C527,57,474,28,405,7c0,0,-69,-21,-116,-21Z" 
id="f2_2h"
transform="scale(0.001,-0.001)" />

<path d="M327,-14L84,649L1,668v33H335V668L219,648L385,174L554,632h63L786,171L944,649L830,668v33h267V668l-78,-16L784,-14H726L553,448L382,-14Z" 
id="f2_2j"
transform="scale(0.001,-0.001)" />

<path d="M376,50c0,0,103,0,149,80c0,0,46,81,46,240c0,0,0,137,-47,204c0,0,-48,67,-148,67c0,0,-44,0,-87,-7c0,0,-44,-8,-63,-17V62c0,0,63,-12,150,-12Zm3,-64c0,0,-64,0,-141,14c0,0,-78,14,-136,37v971L0,1026v34H226V809c0,0,0,-40,-4,-148c0,0,74,59,188,59c0,0,143,0,219,-87c0,0,77,-87,77,-263c0,0,0,-189,-84,-287c0,0,-84,-97,-243,-97Z" 
id="f2_1y"
transform="scale(0.001,-0.001)" />

<path d="M67,0V109L206,235c0,0,133,118,196,190c0,0,63,72,90,149c0,0,27,77,27,177c0,0,0,97,-44,148c0,0,-44,50,-144,50c0,0,-39,0,-81,-10c0,0,-42,-11,-74,-29L150,787H101V980c0,0,135,32,230,32c0,0,164,0,247,-68c0,0,82,-69,82,-193c0,0,0,-84,-32,-158c0,0,-33,-75,-100,-148c0,0,-67,-74,-222,-206c0,0,-67,-57,-141,-125H680V0Z" 
id="f2_m"
transform="scale(0.001,-0.001)" />

<path d="M134,0V40L339,60V876L137,804v39l292,166h39V60L672,40V0Z" 
id="f2_l"
transform="scale(0.001,-0.001)" />

<path d="M395,-22L175,941L80,960l7,40H455l-7,-40L322,941L484,211L885,941L771,960l9,40h300l-7,-40L975,941L433,-22Z" 
id="f3_1m"
transform="scale(0.001,-0.001)" />

<path d="M460,506c0,0,135,0,209,64c0,0,73,65,73,183c0,0,0,180,-213,180H419L343,506ZM671,0L487,438H331L264,60L398,40L390,0H-7L0,40L120,60L276,941L151,960l7,40H555c0,0,163,0,249,-62c0,0,86,-62,86,-180c0,0,0,-236,-261,-299L798,60L908,40L900,0Z" 
id="f3_1i"
transform="scale(0.001,-0.001)" />

<path d="M140,-21c0,0,-26,0,-44,17C96,-4,79,13,79,40c0,0,0,19,6,33c0,0,8,20,34,55c0,0,46,60,64,126c0,0,32,114,41,321H190c0,0,-55,0,-81,-18c0,0,-44,-26,-80,-89H0c0,0,42,129,98,178c0,0,43,37,120,37H743V575H562c0,0,-27,-171,-27,-327c0,0,0,-77,27,-110c0,0,27,-33,67,-33c0,0,33,0,56,22c0,0,24,22,31,65h27C743,192,730,74,686,26c0,0,-44,-47,-98,-47c0,0,-58,0,-97,51c0,0,-39,53,-39,198c0,0,0,91,28,347H286c0,0,-23,-390,-56,-494c0,0,-33,-102,-90,-102Z" 
id="f4_2c"
transform="scale(0.001,-0.001)" />

<path d="M113,-203V1060H454v-35L232,994V-138l222,-30v-35Z" 
id="f2_1r"
transform="scale(0.001,-0.001)" />

<path d="M460,-325c0,0,-148,79,-231,172c0,0,-84,93,-123,217c0,0,-39,126,-39,304c0,0,0,178,39,303c0,0,39,125,122,217c0,0,82,93,232,172V997c0,0,-91,-52,-145,-134c0,0,-54,-81,-79,-190c0,0,-25,-109,-25,-305c0,0,0,-194,26,-309c0,0,26,-114,82,-193c0,0,56,-79,141,-128v-63Z" 
id="f2_c"
transform="scale(0.001,-0.001)" />

<path d="M49,-325v63c0,0,85,49,140,128c0,0,56,79,83,194c0,0,26,115,26,308c0,0,0,196,-25,305c0,0,-25,109,-79,190c0,0,-54,82,-145,134v63c0,0,149,-80,232,-172c0,0,83,-92,122,-217c0,0,39,-125,39,-303c0,0,0,-177,-39,-303c0,0,-39,-125,-122,-217c0,0,-83,-93,-232,-173Z" 
id="f2_d"
transform="scale(0.001,-0.001)" />

<path d="M55,-203v35l222,30V994L55,1025v35H395V-203Z" 
id="f2_1t"
transform="scale(0.001,-0.001)" />

<path d="M0,356v74H784V356Z" 
id="f4_h"
transform="scale(0.001,-0.001)" />

<path d="M0,-123V1415H525v-72H72V-123Z" 
id="f4_4r"
transform="scale(0.001,-0.001)" />

<path d="M478,-123V1343H26v72H550V-123Z" 
id="f4_57"
transform="scale(0.001,-0.001)" />

<path d="M62,-123V268c0,0,0,230,56,452c0,0,47,190,134,334c0,0,87,144,204,242c0,0,85,73,194,119l18,-16c0,0,-211,-145,-335,-339c0,0,-98,-156,-149,-374c0,0,-50,-218,-50,-403V-123Z" 
id="f4_4o"
transform="scale(0.001,-0.001)" />

<path d="M617,-123V283c0,0,0,236,-63,459c0,0,-63,223,-188,392c0,0,-108,146,-282,265l17,16c0,0,180,-76,320,-248c0,0,139,-172,204,-417c0,0,64,-245,64,-482V-123Z" 
id="f4_54"
transform="scale(0.001,-0.001)" />

<path d="M0,-123V1415H72V-123Z" 
id="f4_4s"
transform="scale(0.001,-0.001)" />

<path d="M0,-123V1415H72V-123Z" 
id="f4_58"
transform="scale(0.001,-0.001)" />

<path d="M62,-123V1415h72V-123Z" 
id="f4_4p"
transform="scale(0.001,-0.001)" />

<path d="M617,-123V1415h72V-123Z" 
id="f4_55"
transform="scale(0.001,-0.001)" />

<path d="M650,-123c0,0,-180,75,-319,246c0,0,-140,172,-205,418c0,0,-64,245,-64,481v393h72V1007c0,0,0,-236,63,-459c0,0,63,-223,189,-391c0,0,108,-145,282,-265l-18,-15Z" 
id="f4_4q"
transform="scale(0.001,-0.001)" />

<path d="M101,-123l-17,15c0,0,210,144,334,339c0,0,99,156,149,373c0,0,50,218,50,403v408h72V1022c0,0,0,-230,-56,-451c0,0,-48,-191,-134,-335C499,236,412,92,295,-5c0,0,-84,-73,-194,-118Z" 
id="f4_56"
transform="scale(0.001,-0.001)" />

<path d="M0,-123V1415H72V-51H525v-72Z" 
id="f4_4t"
transform="scale(0.001,-0.001)" />

<path d="M26,-123v72H478V1415h72V-123Z" 
id="f4_59"
transform="scale(0.001,-0.001)" />

<path d="M377,45c0,0,100,0,147,52c0,0,47,52,47,174c0,0,0,119,-46,173c0,0,-47,54,-148,54c0,0,-98,0,-141,-51c0,0,-44,-51,-44,-176c0,0,0,-126,44,-176c0,0,44,-50,141,-50Zm2,518c0,0,84,0,123,46c0,0,39,46,39,148c0,0,0,102,-40,151c0,0,-41,48,-122,48c0,0,-79,0,-118,-47c0,0,-38,-47,-38,-152c0,0,0,-104,37,-149c0,0,38,-45,119,-45ZM377,-14c0,0,-319,0,-319,285c0,0,0,99,48,164c0,0,48,66,129,96c0,0,-65,30,-106,87c0,0,-40,56,-40,139c0,0,0,123,75,191c0,0,76,68,219,68c0,0,139,0,216,-67c0,0,76,-68,76,-192c0,0,0,-82,-40,-139c0,0,-40,-57,-108,-87c0,0,85,-31,132,-98c0,0,47,-67,47,-162c0,0,0,-142,-80,-214c0,0,-80,-71,-249,-71Z" 
id="f2_s"
transform="scale(0.001,-0.001)" />

<path d="M370,468c0,0,96,0,194,40c0,0,0,229,-45,336c0,0,-45,107,-146,107c0,0,-187,0,-187,-259c0,0,0,-115,45,-169c0,0,45,-55,139,-55ZM312,-14c0,0,-122,0,-223,25V184h48L163,76c0,0,24,-11,65,-20c0,0,40,-9,81,-9c0,0,119,0,183,105c0,0,65,104,71,307c0,0,-113,-62,-230,-62c0,0,-132,0,-208,79c0,0,-76,78,-76,219c0,0,0,151,85,233c0,0,84,83,237,83c0,0,171,0,251,-123c0,0,79,-123,79,-385c0,0,0,-252,-102,-385C599,118,497,-14,312,-14Z" 
id="f2_t"
transform="scale(0.001,-0.001)" />

<path d="M178,0L615,886H176L150,764H101v236H720V943L274,0Z" 
id="f2_r"
transform="scale(0.001,-0.001)" />

<path d="M76,316v76H787V316Zm0,306v76H787V622Z" 
id="f2_x"
transform="scale(0.001,-0.001)" />

<path d="M382,45c0,0,188,0,188,314c0,0,0,143,-47,213c0,0,-46,69,-141,69c0,0,-87,0,-146,-24V58c0,0,67,-13,146,-13ZM25,-325v35l88,18V649L34,668v33H231l1,-41c0,0,31,27,84,43c0,0,53,17,107,17c0,0,134,0,208,-94c0,0,73,-93,73,-267c0,0,0,-178,-80,-276c0,0,-80,-97,-232,-97c0,0,-84,0,-160,16c0,0,4,-53,4,-84V-272l123,-18v-35Z" 
id="f2_2c"
transform="scale(0.001,-0.001)" />

<path d="M350,-14c0,0,-142,0,-253,31L89,228h49L172,87c0,0,32,-18,78,-29c0,0,46,-11,88,-11c0,0,118,0,173,56c0,0,56,55,56,187c0,0,0,93,-24,140c0,0,-24,47,-76,70c0,0,-52,22,-140,22c0,0,-68,0,-133,-18H122v496H630V886H189V567c0,0,81,18,173,18c0,0,173,0,258,-71c0,0,84,-71,84,-216c0,0,0,-151,-92,-232c0,0,-91,-80,-262,-80Z" 
id="f2_p"
transform="scale(0.001,-0.001)" />

<path d="M191,-20c0,0,-39,0,-65,25c0,0,-25,27,-25,64c0,0,0,38,26,64c0,0,26,26,64,26c0,0,38,0,64,-26c0,0,26,-26,26,-64c0,0,0,-37,-25,-64c0,0,-26,-25,-65,-25Z" 
id="f2_i"
transform="scale(0.001,-0.001)" />

<path d="M44,0V40L172,60V941L44,960v40H794V760H745L721,922c0,0,-83,11,-241,11H316V543H586l23,119h48V354H609L586,475H316V67H513c0,0,193,0,252,12l43,185h49L843,0Z" 
id="f2_15"
transform="scale(0.001,-0.001)" />

<path d="M360,-14L72,649L0,668v33H327V668L216,648L420,164L615,649L504,668v33H764V668L697,652L416,-14Z" 
id="f2_2i"
transform="scale(0.001,-0.001)" />

<path d="M211,-20c0,0,-39,0,-64,25c0,0,-26,27,-26,64c0,0,0,38,26,64c0,0,26,26,64,26c0,0,37,0,64,-25c0,0,26,-26,26,-65c0,0,0,-37,-26,-64c0,0,-26,-25,-64,-25Zm0,556c0,0,-38,0,-64,26c0,0,-26,26,-26,64c0,0,0,37,26,64c0,0,25,27,64,27c0,0,38,0,64,-27c0,0,26,-27,26,-64c0,0,0,-38,-26,-64c0,0,-27,-26,-64,-26Z" 
id="f2_u"
transform="scale(0.001,-0.001)" />

<path d="M301,78c0,0,41,0,90,27c0,0,49,28,95,77l81,442c0,0,-26,18,-54,27c0,0,-27,10,-67,10c0,0,-70,0,-131,-55c0,0,-61,-55,-99,-152c0,0,-37,-97,-37,-201c0,0,0,-79,33,-127c0,0,33,-48,89,-48ZM245,-14c0,0,-91,0,-145,68c0,0,-54,69,-54,183c0,0,0,128,55,240c0,0,55,112,150,177c0,0,96,66,210,66c0,0,70,0,123,-18c0,0,3,36,51,306l-115,18l6,34H768L589,52L673,33L667,0H454l22,117C476,117,350,-14,245,-14Z" 
id="f3_20"
transform="scale(0.001,-0.001)" />

<path d="M-6,0c0,0,-12,10,-12,32c0,0,0,21,23,51c0,0,23,31,79,82L287,354L159,649L79,668l6,33H270L378,434l93,88c0,0,47,46,67,72c0,0,19,26,19,44c0,0,0,8,-6,13c0,0,-7,6,-38,17l6,33H651c0,0,16,-12,16,-32c0,0,0,-44,-103,-142L404,377L548,49L634,33L628,0H437L313,298L185,176c0,0,-41,-40,-60,-65c0,0,-19,-26,-19,-48c0,0,0,-21,31,-29L131,0Z" 
id="f3_2k"
transform="scale(0.001,-0.001)" />

<path d="M355,0V355H0v72H355V784h72V427H782V355H427V0Z" 
id="f4_f"
transform="scale(0.001,-0.001)" />

<path d="M88,-163c0,0,-39,0,-63,25c0,0,-25,26,-25,65c0,0,0,34,19,54c0,0,19,19,48,19c0,0,30,0,51,-23c0,0,22,-24,37,-24c0,0,12,0,21,11c0,0,8,10,8,35c0,0,0,30,-7,88c0,0,-27,235,-27,620c0,0,13,411,17,446c0,0,17,139,60,188c0,0,43,48,98,48c0,0,37,0,65,-25c0,0,28,-25,28,-54c0,0,0,-35,-19,-57c0,0,-20,-21,-49,-21c0,0,-26,0,-57,27c0,0,-17,15,-30,15c0,0,-12,0,-21,-11c0,0,-8,-11,-8,-37c0,0,0,-31,6,-108c0,0,28,-306,28,-496c0,0,0,-50,-12,-439c0,0,-6,-219,-67,-296c0,0,-41,-50,-101,-50Z" 
id="f4_50"
transform="scale(0.001,-0.001)" />

<path d="M410,-14c0,0,-86,0,-175,14C235,0,145,14,81,38V307h66L181,146c0,0,31,-37,94,-62c0,0,64,-24,132,-24c0,0,214,0,214,177c0,0,0,55,-41,93c0,0,-41,38,-128,68c0,0,-128,42,-185,68c0,0,-56,27,-95,63c0,0,-38,36,-62,87c0,0,-23,51,-23,125c0,0,0,132,90,201c0,0,90,69,263,69c0,0,125,0,278,-32V741H651L618,878c0,0,-76,56,-178,56c0,0,-92,0,-141,-34c0,0,-49,-34,-49,-104c0,0,0,-50,41,-86c0,0,41,-35,128,-63c0,0,171,-56,235,-97c0,0,64,-41,97,-103c0,0,34,-61,34,-143c0,0,0,-318,-375,-318Z" 
id="f5_1j"
transform="scale(0.001,-0.001)" />

<path d="M379,60c0,0,59,0,84,64c0,0,24,65,24,231c0,0,0,164,-24,227c0,0,-24,63,-84,63c0,0,-57,0,-80,-60c0,0,-22,-61,-22,-230c0,0,0,-173,23,-234c0,0,22,-61,79,-61Zm-2,-74c0,0,-161,0,-240,91c0,0,-79,91,-79,277c0,0,0,186,80,276c0,0,81,90,245,90c0,0,167,0,245,-93c0,0,78,-93,78,-273c0,0,0,-188,-81,-278c0,0,-81,-90,-248,-90Z" 
id="f5_2b"
transform="scale(0.001,-0.001)" />

<path d="M30,0V49l76,18V992l-72,18v50H322V67L398,49V0Z" 
id="f5_28"
transform="scale(0.001,-0.001)" />

<path d="M287,-18c0,0,-194,0,-194,206V634L23,652v49H309V217c0,0,0,-63,26,-98c0,0,27,-35,76,-35c0,0,57,0,113,25V634l-64,18v49H740V67L809,49V0H536L526,61L475,35c0,0,-104,-53,-188,-53Z" 
id="f5_2h"
transform="scale(0.001,-0.001)" />

<path d="M327,-14c0,0,-101,0,-156,45c0,0,-55,45,-55,131V624H25v48l108,29l87,159H332V701H480V624H332V176c0,0,0,-49,20,-73c0,0,20,-25,53,-25c0,0,40,0,97,12V26c0,0,-22,-15,-76,-27c0,0,-55,-13,-99,-13Z" 
id="f5_2g"
transform="scale(0.001,-0.001)" />

<path d="M34,0V49l76,18V634L38,652v49H325V67L402,49V0ZM217,831c0,0,-48,0,-81,33c0,0,-34,33,-34,82c0,0,0,48,34,81c0,0,34,33,81,33c0,0,48,0,81,-33c0,0,33,-33,33,-81c0,0,0,-47,-33,-81c0,0,-32,-34,-81,-34Z" 
id="f5_25"
transform="scale(0.001,-0.001)" />

<path d="M41,0V49l69,18V634L41,652v49H313l11,-61l50,26c0,0,105,54,188,54c0,0,194,0,194,-207V67L827,49V0H478V49l63,18V484c0,0,0,63,-27,98c0,0,-26,35,-75,35c0,0,-57,0,-114,-25V67L389,49V0Z" 
id="f5_2a"
transform="scale(0.001,-0.001)" />

<path d="M248,-20c0,0,-52,0,-87,34c0,0,-36,36,-36,88c0,0,0,52,36,88c0,0,35,36,87,36c0,0,52,0,88,-36c0,0,36,-36,36,-88c0,0,0,-51,-36,-87c0,0,-35,-35,-88,-35Zm0,488c0,0,-52,0,-87,36c0,0,-36,36,-36,88c0,0,0,52,35,88c0,0,35,36,88,36c0,0,53,0,89,-36c0,0,35,-37,35,-88c0,0,0,-51,-36,-87c0,0,-35,-37,-88,-37Z" 
id="f5_u"
transform="scale(0.001,-0.001)" />

<path d="M872,47L824,88L944,232H91v99h930l84,105l-86,106H91v99H943L824,783l48,41L1237,460V412L872,47Z" 
id="f6_13x"
transform="scale(0.001,-0.001)" />

<path d="M494,-203c0,0,-94,0,-145,57c0,0,-50,58,-50,161V235c0,0,0,87,-39,131c0,0,-39,44,-121,47v33c0,0,160,3,160,176V841c0,0,0,105,49,162c0,0,48,57,146,57H595v-35H548c0,0,-68,0,-96,-41c0,0,-29,-41,-29,-120V618c0,0,0,-71,-39,-122c0,0,-39,-51,-104,-65v-2c0,0,66,-16,105,-66c0,0,38,-50,38,-123V-8c0,0,0,-79,29,-120c0,0,28,-40,96,-40h47v-35Z" 
id="f2_2n"
transform="scale(0.001,-0.001)" />

<path d="M359,-270c0,0,124,0,192,46c0,0,67,47,67,129c0,0,0,43,-26,67c0,0,-26,24,-79,24H242c0,0,-32,-27,-51,-69c0,0,-20,-41,-20,-77c0,0,0,-64,46,-92c0,0,46,-28,142,-28Zm11,561c0,0,81,0,115,47c0,0,34,47,34,141c0,0,0,100,-35,142c0,0,-35,42,-113,42c0,0,-78,0,-114,-43c0,0,-37,-42,-37,-141c0,0,0,-98,36,-143c0,0,36,-45,114,-45ZM359,-329c0,0,-143,0,-218,44c0,0,-75,43,-75,125c0,0,0,39,27,78c0,0,26,38,98,89c0,0,-43,14,-72,48c0,0,-29,35,-29,74L208,262c0,0,-118,55,-118,217c0,0,0,115,73,178c0,0,73,63,211,63c0,0,28,0,71,-6c0,0,44,-6,67,-13l165,83l26,-32L599,644c0,0,50,-56,50,-165c0,0,0,-120,-72,-182c0,0,-73,-62,-208,-62c0,0,-62,0,-114,11L208,148c0,0,2,-13,29,-24c0,0,27,-12,67,-12H512c0,0,113,0,168,-49c0,0,55,-49,55,-134c0,0,0,-79,-44,-137c0,0,-43,-58,-128,-90c0,0,-84,-31,-204,-31Z" 
id="f2_23"
transform="scale(0.001,-0.001)" />

<path d="M148,-329c0,0,-58,0,-114,13v151H69l24,-71c0,0,23,-17,64,-17c0,0,39,0,72,22c0,0,33,23,60,67c0,0,27,44,68,157L90,649L19,668v33H344V668L233,648L423,158L606,649L497,668v33H758V668L685,652L411,-43c0,0,-48,-124,-84,-177c0,0,-36,-54,-79,-82c0,0,-44,-27,-100,-27Z" 
id="f2_2l"
transform="scale(0.001,-0.001)" />

<path d="M139,-203v35h46c0,0,68,0,97,40c0,0,28,41,28,120V240c0,0,0,73,38,123c0,0,38,50,106,66v2c0,0,-66,14,-105,66c0,0,-39,51,-39,121V864c0,0,0,79,-28,120c0,0,-29,41,-97,41H139v35H240c0,0,97,0,146,-57c0,0,48,-57,48,-162V622c0,0,0,-173,161,-176V413c0,0,-81,-3,-121,-47c0,0,-40,-43,-40,-131V15c0,0,0,-103,-50,-161c0,0,-51,-57,-144,-57Z" 
id="f2_2p"
transform="scale(0.001,-0.001)" />

<path d="M200,-14c0,0,-59,0,-93,35c0,0,-34,36,-34,100c0,0,0,22,4,51c0,0,4,30,82,467H67l6,33l99,29L275,860h47L295,701H455L443,639H283L210,230c0,0,-13,-69,-13,-99c0,0,0,-34,17,-51c0,0,17,-16,43,-16c0,0,54,0,113,21L386,50c0,0,-92,-64,-186,-64Z" 
id="f3_2g"
transform="scale(0.001,-0.001)" />

<path d="M412,-328c0,0,-195,96,-303,284C109,-44,0,142,0,365c0,0,0,232,114,422c0,0,114,191,298,273v-31c0,0,-92,-51,-151,-139c0,0,-59,-88,-88,-223c0,0,-29,-136,-29,-282c0,0,0,-167,27,-301c0,0,26,-133,82,-221c0,0,55,-89,159,-159v-32Z" 
id="f4_c"
transform="scale(0.001,-0.001)" />

<path d="M34,-328v32c0,0,92,50,151,138c0,0,59,88,88,222c0,0,29,135,29,283c0,0,0,165,-27,300c0,0,-26,134,-82,222c0,0,-56,89,-159,160v31c0,0,194,-96,303,-284c0,0,108,-187,108,-410c0,0,0,-232,-114,-422c0,0,-114,-191,-297,-272Z" 
id="f4_d"
transform="scale(0.001,-0.001)" />


</defs>
</svg>