<?xml version="1.0" encoding="UTF-8" standalone="no"?>
<!DOCTYPE svg PUBLIC "-//W3C//DTD SVG 1.1//EN"
"http://www.w3.org/Graphics/SVG/1.1/DTD/svg11.dtd">
<svg viewBox="0 0 909 1286" version="1.1" xmlns="http://www.w3.org/2000/svg" xmlns:xlink="http://www.w3.org/1999/xlink">
<defs>
<clipPath id="c0_15"><path d="M134.6,130.8V110.3H377.5v20.5Z" /></clipPath>
<clipPath id="c1_15"><path d="M403.7,130.8V110.3h71.1v20.5Z" /></clipPath>
<clipPath id="c2_15"><path d="M242.5,1018.4V997.8H326v20.6Z" /></clipPath>
<clipPath id="c3_15"><path d="M295.2,1044v-20.5H326V1044Z" /></clipPath>
<style type="text/css"><![CDATA[
.g0_15{
fill: none;
stroke: #FFFFFF;
stroke-width: 0.77000004;
stroke-linecap: round;
stroke-linejoin: round;
}
.g1_15{
fill: none;
stroke: #FFFFFF;
stroke-width: 0.5133334;
stroke-linecap: round;
stroke-linejoin: round;
}
.g2_15{
fill: none;
stroke: #000000;
stroke-width: 0.90444446;
stroke-linecap: round;
stroke-linejoin: round;
}
.g3_15{
fill: none;
stroke: #000000;
stroke-width: 0.90138894;
stroke-linecap: round;
stroke-linejoin: round;
}
.g4_15{
fill: none;
stroke: #000000;
stroke-width: 0.9029167;
stroke-linecap: round;
stroke-linejoin: round;
}
.g5_15{
fill: none;
stroke: #000000;
stroke-width: 0.9090278;
stroke-linecap: round;
stroke-linejoin: round;
}
.g6_15{
fill: none;
stroke: #000000;
stroke-width: 0.91208345;
stroke-linecap: round;
stroke-linejoin: round;
}
.g7_15{
fill: none;
stroke: #000000;
stroke-width: 0.9059723;
stroke-linecap: round;
stroke-linejoin: round;
}
.g8_15{
fill: none;
stroke: #000000;
stroke-width: 0.42930555;
stroke-linecap: round;
stroke-linejoin: round;
}
.g9_15{
fill: none;
stroke: #000000;
stroke-width: 0.18333334;
stroke-linecap: butt;
stroke-linejoin: miter;
stroke-miterlimit: 2;
}
.g10_15{
}
]]></style>
</defs>
<path d="M512.4,487l6.2,9.8l5.4,8.4l4.1,8.8l2,8.4l1.1,7.7l1.3,6.7l-1.3,6.7l-2.1,6.7l-2,4.8l-3.1,5.7l-3.1,4.9l-3.3,3.8l-7.2,6.7l-6.5,4.6l-11.5,6.9l-10.3,6.7L470.6,600L459,606.6l-6.4,3.9l-6.2,4.9L441,620l-5.1,5.9l-4.1,6.7l-3.4,7.4l-1,9.7l-1,10.6l-6.2,-10.6l-5.4,-10.5l-3.1,-10.5l-1,-10.5v-4.9l1,-4.9l1.1,-4.6l2,-3.8l2.1,-4.9l3.3,-3.9l3.1,-3.6l4.1,-3.8l17,-11.6L461,562.7L475.7,554l13.6,-7.7l6.4,-4.6l5.2,-6.7l4.1,-6.7l3.3,-7.7l2.1,-8.7l2,-7.7V487m30.3,38.3l7.5,9.7l5.1,9.5l4.4,9.5l2,7.7l1.1,8.5l1,6.9l-1,7.5l-2.1,5.9l-2,5.6l-3.4,5.7l-3.1,4.8l-3,4.9l-7.5,6.7l-7.2,4.6L524,629.5l-8.5,5.9L505,642l-14.7,8.5l-8.2,5.9l-7.4,5.7l-6.2,6.6l-6.4,7.7l-4.1,6.7l-4.4,7.7l-3.1,7.7l-2,6.7l-3.1,-12.6l-2.1,-11.3L441,669.8V659.2l1.1,-8.7l2.3,-8.5l3,-4.8l2.1,-3.9l4.1,-3.8l4.4,-3.6l16.7,-12.6l16.7,-9.5L506,595.1l14.9,-8.5l6.2,-4.9l5.4,-6.6l4.1,-6.7l4.1,-7.7l2,-7.7l2.3,-8.5V535l-2.3,-9.7" class="g0_15" />
<path d="M454.6,618.9l4.4,3.9l3.1,3.8l2,3.9l2.1,4.9l2.3,5.6l1,5.7l1.1,5.9v7.7l5.1,-8.8l4.1,-7.7l3.3,-7.7l2.1,-7.4l1,-7.7v-6.7l-1,-7.7L483.1,600l-28.5,18.9" class="g1_15" />
<path d="M196.9,121.9h19.8m76.5,0H313" class="g2_15" />
<g fill="#000000" >
<use xlink:href="#f0_n" transform="matrix(6.9,0,0,6.9,143.7,118.4)" />
<use xlink:href="#f0_n" transform="matrix(6.9,0,0,6.9,187.4,118.4)" />
<use xlink:href="#f0_m" transform="matrix(6.9,0,0,6.9,273.7,118.4)" />
<use xlink:href="#f0_m" transform="matrix(6.9,0,0,6.9,357.8,118.4)" />
<use xlink:href="#f0_o" transform="matrix(11.9,0,0,11.9,124.7,126.4)" />
<use xlink:href="#f0_o" transform="matrix(11.9,0,0,11.9,167.2,126.4)" />
<use xlink:href="#f0_m" transform="matrix(11.9,0,0,11.9,233.9,126.4)" />
<use xlink:href="#f0_m" transform="matrix(11.9,0,0,11.9,254.5,126.4)" />
<use xlink:href="#f0_m" transform="matrix(11.9,0,0,11.9,330.2,126.4)" />
<use xlink:href="#f1_20" transform="matrix(11.9,0,0,11.9,198,115.1)" />
<use xlink:href="#f1_2l" transform="matrix(11.9,0,0,11.9,207.2,115.1)" />
<use xlink:href="#f1_20" transform="matrix(11.9,0,0,11.9,294.2,115.1)" />
<use xlink:href="#f1_2l" transform="matrix(11.9,0,0,11.9,303.4,115.1)" />
</g>
<g clip-path="url(#c0_15)">
<g fill="#000000" >
<use xlink:href="#f1_2k" transform="matrix(11.9,0,0,11.9,135.1,126.4)" />
<use xlink:href="#f1_2l" transform="matrix(11.9,0,0,11.9,178.4,126.4)" />
<use xlink:href="#f1_2k" transform="matrix(11.9,0,0,11.9,264.7,126.4)" />
<use xlink:href="#f1_2l" transform="matrix(11.9,0,0,11.9,281.7,126.4)" />
<use xlink:href="#f1_2k" transform="matrix(11.9,0,0,11.9,340.4,126.4)" />
<use xlink:href="#f1_2l" transform="matrix(11.9,0,0,11.9,348.5,126.4)" />
</g>
</g>
<g fill="#000000" >
<use xlink:href="#f1_20" transform="matrix(11.9,0,0,11.9,198.2,140.7)" />
<use xlink:href="#f1_2k" transform="matrix(11.9,0,0,11.9,207.3,140.7)" />
<use xlink:href="#f1_20" transform="matrix(11.9,0,0,11.9,294.4,140.7)" />
<use xlink:href="#f1_2k" transform="matrix(11.9,0,0,11.9,303.6,140.7)" />
<use xlink:href="#f2_4o" transform="matrix(11.9,0,0,11.9,244.8,116.5)" />
<use xlink:href="#f2_54" transform="matrix(11.9,0,0,11.9,367,116.5)" />
<use xlink:href="#f2_f" transform="matrix(11.9,0,0,11.9,153.6,126.4)" />
<use xlink:href="#f2_f" transform="matrix(11.9,0,0,11.9,220.4,126.4)" />
<use xlink:href="#f2_f" transform="matrix(11.9,0,0,11.9,316.6,126.4)" />
<use xlink:href="#f2_4p" transform="matrix(11.9,0,0,11.9,244.8,131.4)" />
<use xlink:href="#f2_55" transform="matrix(11.9,0,0,11.9,367,131.4)" />
<use xlink:href="#f2_4q" transform="matrix(11.9,0,0,11.9,244.8,142.8)" />
<use xlink:href="#f2_56" transform="matrix(11.9,0,0,11.9,367,142.8)" />
</g>
<path d="M415.4,121.9h19.7" class="g3_15" />
<g fill="#000000" >
<use xlink:href="#f1_20" transform="matrix(11.9,0,0,11.9,416.5,115.1)" />
<use xlink:href="#f1_2l" transform="matrix(11.9,0,0,11.9,425.7,115.1)" />
</g>
<g clip-path="url(#c1_15)">
<g fill="#000000" >
<use xlink:href="#f1_2k" transform="matrix(11.9,0,0,11.9,404.3,126.4)" />
<use xlink:href="#f1_2l" transform="matrix(11.9,0,0,11.9,453.9,126.4)" />
</g>
</g>
<g fill="#000000" >
<use xlink:href="#f1_20" transform="matrix(11.9,0,0,11.9,416.7,140.7)" />
<use xlink:href="#f1_2k" transform="matrix(11.9,0,0,11.9,425.9,140.7)" />
<use xlink:href="#f2_4o" transform="matrix(11.9,0,0,11.9,394,116.5)" />
<use xlink:href="#f2_54" transform="matrix(11.9,0,0,11.9,464.5,116.5)" />
<use xlink:href="#f2_x" transform="matrix(11.9,0,0,11.9,380.2,126.4)" />
<use xlink:href="#f2_f" transform="matrix(11.9,0,0,11.9,438.9,126.4)" />
<use xlink:href="#f2_4p" transform="matrix(11.9,0,0,11.9,394,131.4)" />
<use xlink:href="#f2_55" transform="matrix(11.9,0,0,11.9,464.5,131.4)" />
<use xlink:href="#f2_4q" transform="matrix(11.9,0,0,11.9,394,142.8)" />
<use xlink:href="#f2_56" transform="matrix(11.9,0,0,11.9,464.5,142.8)" />
</g>
<path d="M154.5,190.6h19.8m56,0h19.8m28.9,0h19.8" class="g4_15" />
<g fill="#000000" >
<use xlink:href="#f0_n" transform="matrix(6.9,0,0,6.9,144.8,187.1)" />
<use xlink:href="#f0_m" transform="matrix(6.9,0,0,6.9,210.8,187.1)" />
<use xlink:href="#f0_n" transform="matrix(6.9,0,0,6.9,363.7,187.1)" />
<use xlink:href="#f0_m" transform="matrix(6.9,0,0,6.9,414.5,187.1)" />
<use xlink:href="#f0_o" transform="matrix(11.9,0,0,11.9,124.7,195.2)" />
<use xlink:href="#f0_o" transform="matrix(11.9,0,0,11.9,191.4,195.2)" />
<use xlink:href="#f0_o" transform="matrix(11.9,0,0,11.9,344.6,195.2)" />
<use xlink:href="#f0_o" transform="matrix(11.9,0,0,11.9,386.8,195.2)" />
<use xlink:href="#f1_20" transform="matrix(11.9,0,0,11.9,155.6,183.6)" />
<use xlink:href="#f1_2l" transform="matrix(11.9,0,0,11.9,164.8,183.6)" />
<use xlink:href="#f1_20" transform="matrix(11.9,0,0,11.9,231.3,183.6)" />
<use xlink:href="#f1_2l" transform="matrix(11.9,0,0,11.9,240.5,183.6)" />
<use xlink:href="#f1_20" transform="matrix(11.9,0,0,11.9,280.1,183.6)" />
<use xlink:href="#f1_2l" transform="matrix(11.9,0,0,11.9,289.2,183.6)" />
<use xlink:href="#f1_2l" transform="matrix(11.9,0,0,11.9,135.8,195.2)" />
<use xlink:href="#f1_2k" transform="matrix(11.9,0,0,11.9,201.8,195.2)" />
<use xlink:href="#f1_2l" transform="matrix(11.9,0,0,11.9,218.7,195.2)" />
<use xlink:href="#f1_2k" transform="matrix(11.9,0,0,11.9,267.8,195.2)" />
<use xlink:href="#f1_2l" transform="matrix(11.9,0,0,11.9,319.7,195.2)" />
<use xlink:href="#f1_2k" transform="matrix(11.9,0,0,11.9,355.1,195.2)" />
<use xlink:href="#f1_2k" transform="matrix(11.9,0,0,11.9,397,195.2)" />
<use xlink:href="#f1_2l" transform="matrix(11.9,0,0,11.9,405.1,195.2)" />
<use xlink:href="#f1_20" transform="matrix(11.9,0,0,11.9,155.8,209.3)" />
<use xlink:href="#f1_2k" transform="matrix(11.9,0,0,11.9,165,209.3)" />
<use xlink:href="#f1_20" transform="matrix(11.9,0,0,11.9,231.5,209.3)" />
<use xlink:href="#f1_2k" transform="matrix(11.9,0,0,11.9,240.7,209.3)" />
<use xlink:href="#f1_20" transform="matrix(11.9,0,0,11.9,280.3,209.3)" />
<use xlink:href="#f1_2k" transform="matrix(11.9,0,0,11.9,289.4,209.3)" />
<use xlink:href="#f2_f" transform="matrix(11.9,0,0,11.9,178,195.2)" />
<use xlink:href="#f2_h" transform="matrix(11.9,0,0,11.9,253.7,195.2)" />
<use xlink:href="#f2_x" transform="matrix(11.9,0,0,11.9,303.8,195.2)" />
<use xlink:href="#f2_h" transform="matrix(11.9,0,0,11.9,331.4,195.2)" />
<use xlink:href="#f2_h" transform="matrix(11.9,0,0,11.9,373.6,195.2)" />
</g>
<path d="M125,255.9h19.8" class="g2_15" />
<g fill="#000000" >
<use xlink:href="#f2_c" transform="matrix(11.8,0,0,18.8,147.4,262.7)" />
<use xlink:href="#f2_d" transform="matrix(11.8,0,0,18.8,261.2,262.7)" />
<use xlink:href="#f0_n" transform="matrix(6.9,0,0,6.9,175.1,252.4)" />
<use xlink:href="#f0_m" transform="matrix(6.9,0,0,6.9,217.8,252.4)" />
<use xlink:href="#f0_n" transform="matrix(6.9,0,0,6.9,331.3,252.4)" />
<use xlink:href="#f0_m" transform="matrix(6.9,0,0,6.9,382,252.4)" />
<use xlink:href="#f0_o" transform="matrix(11.9,0,0,11.9,154.9,260.5)" />
<use xlink:href="#f0_o" transform="matrix(11.9,0,0,11.9,198.5,260.5)" />
<use xlink:href="#f0_o" transform="matrix(11.9,0,0,11.9,312.2,260.5)" />
<use xlink:href="#f0_o" transform="matrix(11.9,0,0,11.9,354.3,260.5)" />
<use xlink:href="#f1_20" transform="matrix(11.9,0,0,11.9,126.1,248.9)" />
<use xlink:href="#f1_2l" transform="matrix(11.9,0,0,11.9,135.3,248.9)" />
<use xlink:href="#f1_2l" transform="matrix(11.9,0,0,11.9,166.1,260.5)" />
<use xlink:href="#f1_2k" transform="matrix(11.9,0,0,11.9,208.8,260.5)" />
<use xlink:href="#f1_2l" transform="matrix(11.9,0,0,11.9,225.9,260.5)" />
<use xlink:href="#f1_2k" transform="matrix(11.9,0,0,11.9,251.5,260.5)" />
<use xlink:href="#f1_2l" transform="matrix(11.9,0,0,11.9,287.2,260.5)" />
<use xlink:href="#f1_2k" transform="matrix(11.9,0,0,11.9,322.4,260.5)" />
<use xlink:href="#f1_2k" transform="matrix(11.9,0,0,11.9,364.6,260.5)" />
<use xlink:href="#f1_2l" transform="matrix(11.9,0,0,11.9,372.7,260.5)" />
<use xlink:href="#f1_20" transform="matrix(11.9,0,0,11.9,126.3,274.6)" />
<use xlink:href="#f1_2k" transform="matrix(11.9,0,0,11.9,135.5,274.6)" />
<use xlink:href="#f2_f" transform="matrix(11.9,0,0,11.9,185,260.5)" />
<use xlink:href="#f2_h" transform="matrix(11.9,0,0,11.9,237.6,260.5)" />
<use xlink:href="#f2_x" transform="matrix(11.9,0,0,11.9,271.1,260.5)" />
<use xlink:href="#f2_h" transform="matrix(11.9,0,0,11.9,299,260.5)" />
<use xlink:href="#f2_h" transform="matrix(11.9,0,0,11.9,341.1,260.5)" />
</g>
<path d="M125,325.2h19.7m19.4,0H270.6" class="g5_15" />
<g fill="#000000" >
<use xlink:href="#f0_n" transform="matrix(7,0,0,7,211.6,310)" />
<use xlink:href="#f0_m" transform="matrix(7,0,0,7,262,310)" />
<use xlink:href="#f0_n" transform="matrix(7,0,0,7,185.3,336)" />
<use xlink:href="#f0_m" transform="matrix(7,0,0,7,227.9,336)" />
<use xlink:href="#f0_o" transform="matrix(12.1,0,0,12.1,192.5,318.2)" />
<use xlink:href="#f0_o" transform="matrix(12.1,0,0,12.1,234.5,318.2)" />
<use xlink:href="#f0_o" transform="matrix(12.1,0,0,12.1,165.2,344.2)" />
<use xlink:href="#f0_o" transform="matrix(12.1,0,0,12.1,208.6,344.2)" />
<use xlink:href="#f1_20" transform="matrix(12.1,0,0,12.1,126.1,318.2)" />
<use xlink:href="#f1_2l" transform="matrix(12.1,0,0,12.1,135.3,318.2)" />
<use xlink:href="#f1_2l" transform="matrix(12.1,0,0,12.1,167.8,318.2)" />
<use xlink:href="#f1_2k" transform="matrix(12.1,0,0,12.1,202.8,318.2)" />
<use xlink:href="#f1_2k" transform="matrix(12.1,0,0,12.1,244.7,318.2)" />
<use xlink:href="#f1_2l" transform="matrix(12.1,0,0,12.1,252.8,318.2)" />
<use xlink:href="#f1_20" transform="matrix(12.1,0,0,12.1,126.3,344.2)" />
<use xlink:href="#f1_2k" transform="matrix(12.1,0,0,12.1,135.5,344.2)" />
<use xlink:href="#f1_2l" transform="matrix(12.1,0,0,12.1,176.4,344.2)" />
<use xlink:href="#f1_2k" transform="matrix(12.1,0,0,12.1,218.9,344.2)" />
<use xlink:href="#f1_2l" transform="matrix(12.1,0,0,12.1,235.8,344.2)" />
<use xlink:href="#f1_2k" transform="matrix(12.1,0,0,12.1,261.4,344.2)" />
<use xlink:href="#f2_h" transform="matrix(12.1,0,0,12.1,179.3,318.2)" />
<use xlink:href="#f2_h" transform="matrix(12.1,0,0,12.1,221.3,318.2)" />
<use xlink:href="#f2_x" transform="matrix(12.1,0,0,12.1,149.6,329.8)" />
<use xlink:href="#f2_f" transform="matrix(12.1,0,0,12.1,195.3,344.2)" />
<use xlink:href="#f2_h" transform="matrix(12.1,0,0,12.1,247.5,344.2)" />
<use xlink:href="#f3_c" transform="matrix(12,0,0,12,439.4,377.4)" />
<use xlink:href="#f3_1f" transform="matrix(12,0,0,12,445.5,377.4)" />
<use xlink:href="#f3_1i" transform="matrix(12,0,0,12,459.8,377.4)" />
<use xlink:href="#f3_d" transform="matrix(12,0,0,12,473,377.4)" />
<use xlink:href="#f0_19" transform="matrix(12,0,0,12,121.9,456.8)" />
<use xlink:href="#f0_22" transform="matrix(12,0,0,12,127.6,456.8)" />
<use xlink:href="#f2_c" transform="matrix(11.8,0,0,15.8,178.8,457.7)" />
<use xlink:href="#f2_d" transform="matrix(11.8,0,0,15.8,266.7,457.7)" />
<use xlink:href="#f0_m" transform="matrix(12.1,0,0,12.1,186.5,456.3)" />
<use xlink:href="#f0_2f" transform="matrix(12.1,0,0,12.1,221.5,456.3)" />
<use xlink:href="#f0_25" transform="matrix(12.1,0,0,12.1,228.6,456.3)" />
<use xlink:href="#f0_2a" transform="matrix(12.1,0,0,12.1,233.7,456.3)" />
<use xlink:href="#f0_m" transform="matrix(12.1,0,0,12.1,246,456.3)" />
<use xlink:href="#f1_2k" transform="matrix(12.1,0,0,12.1,140.6,456.3)" />
<use xlink:href="#f1_1x" transform="matrix(12.1,0,0,12.1,167.4,456.3)" />
<use xlink:href="#f4_2d" transform="matrix(12.1,0,-3.2,12.1,194.2,456.3)" />
<use xlink:href="#f4_2d" transform="matrix(12.1,0,-3.2,12.1,253.7,456.3)" />
<use xlink:href="#f2_x" transform="matrix(12.1,0,0,12.1,153.1,456.3)" />
<use xlink:href="#f2_h" transform="matrix(12.1,0,0,12.1,209,456.3)" />
<use xlink:href="#f0_1x" transform="matrix(12,0,0,12,278.9,456.8)" />
<use xlink:href="#f0_2a" transform="matrix(12,0,0,12,286.9,456.8)" />
<use xlink:href="#f0_20" transform="matrix(12,0,0,12,295.9,456.8)" />
<use xlink:href="#f2_c" transform="matrix(11.8,0,0,15.8,351.4,457.7)" />
<use xlink:href="#f2_d" transform="matrix(11.8,0,0,15.8,428.3,457.7)" />
<use xlink:href="#f0_l" transform="matrix(12.1,0,0,12.1,357.1,456.3)" />
<use xlink:href="#f0_1z" transform="matrix(12.1,0,0,12.1,380.6,456.3)" />
<use xlink:href="#f0_2b" transform="matrix(12.1,0,0,12.1,388.7,456.3)" />
<use xlink:href="#f0_2f" transform="matrix(12.1,0,0,12.1,397.8,456.3)" />
<use xlink:href="#f0_m" transform="matrix(12.1,0,0,12.1,407.5,456.3)" />
<use xlink:href="#f1_2l" transform="matrix(12.1,0,0,12.1,313,456.3)" />
<use xlink:href="#f1_1x" transform="matrix(12.1,0,0,12.1,340.1,456.3)" />
<use xlink:href="#f4_2d" transform="matrix(12.1,0,-3.2,12.1,415.3,456.3)" />
<use xlink:href="#f2_x" transform="matrix(12.1,0,0,12.1,325.8,456.3)" />
<use xlink:href="#f2_h" transform="matrix(12.1,0,0,12.1,367.8,456.3)" />
<use xlink:href="#f0_g" transform="matrix(12,0,0,12,436.7,456.8)" />
<use xlink:href="#f0_22" transform="matrix(12,0,0,12,444.6,456.8)" />
<use xlink:href="#f0_25" transform="matrix(12,0,0,12,450.5,456.8)" />
<use xlink:href="#f0_2a" transform="matrix(12,0,0,12,455.6,456.8)" />
<use xlink:href="#f0_20" transform="matrix(12,0,0,12,464.5,456.8)" />
</g>
<path d="M480.1,449.8h20.1" class="g6_15" />
<g fill="#000000" >
<use xlink:href="#f1_20" transform="matrix(11.9,0,0,11.9,481.3,442.9)" />
<use xlink:href="#f1_2l" transform="matrix(11.9,0,0,11.9,490.6,442.9)" />
<use xlink:href="#f1_20" transform="matrix(11.9,0,0,11.9,481.4,468.5)" />
<use xlink:href="#f1_2k" transform="matrix(11.9,0,0,11.9,490.8,468.5)" />
<use xlink:href="#f0_2j" transform="matrix(12,0,0,12,506.7,456.8)" />
<use xlink:href="#f0_24" transform="matrix(12,0,0,12,519.9,456.8)" />
<use xlink:href="#f0_21" transform="matrix(12,0,0,12,528.9,456.8)" />
<use xlink:href="#f0_2a" transform="matrix(12,0,0,12,537,456.8)" />
</g>
<path d="M581.4,449.8H595" class="g5_15" />
<g fill="#000000" >
<use xlink:href="#f0_n" transform="matrix(11.9,0,0,11.9,583.9,468.5)" />
<use xlink:href="#f4_2c" transform="matrix(11.9,0,-3.2,11.9,581.4,442.9)" />
<use xlink:href="#f4_2d" transform="matrix(11.9,0,-3.2,11.9,550.5,454.4)" />
<use xlink:href="#f2_x" transform="matrix(11.9,0,0,11.9,566.7,454.4)" />
<use xlink:href="#f0_i" transform="matrix(12,0,0,12,598.6,456.8)" />
<use xlink:href="#f0_1j" transform="matrix(12,0,0,12,64.9,522.1)" />
<use xlink:href="#f0_2b" transform="matrix(12,0,0,12,74.1,522.1)" />
<use xlink:href="#f0_28" transform="matrix(12,0,0,12,82.1,522.1)" />
<use xlink:href="#f0_u" transform="matrix(12,0,0,12,86.2,522.1)" />
<use xlink:href="#f2_1r" transform="matrix(11.8,0,0,16.1,166.1,521)" />
<use xlink:href="#f2_1t" transform="matrix(11.8,0,0,16.1,242.5,521)" />
</g>
<path d="M287.7,514.9h22.9" class="g4_15" />
<g fill="#000000" >
<use xlink:href="#f2_c" transform="matrix(11.8,0,0,15.6,344.7,520.8)" />
<use xlink:href="#f2_d" transform="matrix(11.8,0,0,15.6,434.1,520.8)" />
<use xlink:href="#f0_l" transform="matrix(11.9,0,0,11.9,171.2,519.5)" />
<use xlink:href="#f0_1z" transform="matrix(11.9,0,0,11.9,193.4,519.5)" />
<use xlink:href="#f0_2b" transform="matrix(11.9,0,0,11.9,201.5,519.5)" />
<use xlink:href="#f0_2f" transform="matrix(11.9,0,0,11.9,210.6,519.5)" />
<use xlink:href="#f0_m" transform="matrix(11.9,0,0,11.9,220.3,519.5)" />
<use xlink:href="#f0_g" transform="matrix(11.9,0,0,11.9,249.6,519.5)" />
<use xlink:href="#f0_k" transform="matrix(11.9,0,0,11.9,351.9,519.5)" />
<use xlink:href="#f0_m" transform="matrix(11.9,0,0,11.9,375.9,519.5)" />
<use xlink:href="#f0_2f" transform="matrix(11.9,0,0,11.9,386.7,519.5)" />
<use xlink:href="#f0_25" transform="matrix(11.9,0,0,11.9,393.9,519.5)" />
<use xlink:href="#f0_2a" transform="matrix(11.9,0,0,11.9,399,519.5)" />
<use xlink:href="#f0_m" transform="matrix(11.9,0,0,11.9,411.3,519.5)" />
<use xlink:href="#f1_20" transform="matrix(11.9,0,0,11.9,290.4,508)" />
<use xlink:href="#f1_2l" transform="matrix(11.9,0,0,11.9,299.6,508)" />
<use xlink:href="#f1_2l" transform="matrix(11.9,0,0,11.9,126.3,519.5)" />
<use xlink:href="#f1_1x" transform="matrix(11.9,0,0,11.9,155.3,519.5)" />
<use xlink:href="#f1_1x" transform="matrix(11.9,0,0,11.9,333.1,519.5)" />
<use xlink:href="#f1_20" transform="matrix(11.9,0,0,11.9,288.9,533.6)" />
<use xlink:href="#f4_2d" transform="matrix(11.9,0,-3.2,11.9,230.1,519.5)" />
<use xlink:href="#f4_2d" transform="matrix(11.9,0,-3.2,11.9,421.1,519.5)" />
<use xlink:href="#f4_2d" transform="matrix(11.9,0,-3.2,11.9,297.9,533.6)" />
<use xlink:href="#f2_x" transform="matrix(11.9,0,0,11.9,139.3,519.5)" />
<use xlink:href="#f2_h" transform="matrix(11.9,0,0,11.9,181.1,519.5)" />
<use xlink:href="#f2_x" transform="matrix(11.9,0,0,11.9,317.1,519.5)" />
<use xlink:href="#f2_h" transform="matrix(11.9,0,0,11.9,363.3,519.5)" />
</g>
<path d="M141.2,580.2h22.9" class="g3_15" />
<g fill="#000000" >
<use xlink:href="#f0_m" transform="matrix(11.9,0,0,11.9,193.2,584.8)" />
<use xlink:href="#f0_2f" transform="matrix(11.9,0,0,11.9,214.1,584.8)" />
<use xlink:href="#f0_25" transform="matrix(11.9,0,0,11.9,221.3,584.8)" />
<use xlink:href="#f0_2a" transform="matrix(11.9,0,0,11.9,226.4,584.8)" />
<use xlink:href="#f0_m" transform="matrix(11.9,0,0,11.9,238.7,584.8)" />
<use xlink:href="#f1_20" transform="matrix(11.9,0,0,11.9,143.9,573.2)" />
<use xlink:href="#f1_2l" transform="matrix(11.9,0,0,11.9,153.1,573.2)" />
<use xlink:href="#f1_1x" transform="matrix(11.9,0,0,11.9,202.6,584.8)" />
<use xlink:href="#f1_20" transform="matrix(11.9,0,0,11.9,142.5,598.9)" />
<use xlink:href="#f4_2d" transform="matrix(11.9,0,-3.2,11.9,246.4,584.8)" />
<use xlink:href="#f4_2d" transform="matrix(11.9,0,-3.2,11.9,151.6,598.9)" />
<use xlink:href="#f2_1s" transform="matrix(11.9,0,0,11.9,121.9,584.8)" />
<use xlink:href="#f2_x" transform="matrix(11.9,0,0,11.9,169,584.8)" />
<use xlink:href="#f2_h" transform="matrix(11.9,0,0,11.9,183.1,584.8)" />
<use xlink:href="#f2_c" transform="matrix(11.8,0,0,15.6,163.9,651.5)" />
<use xlink:href="#f2_d" transform="matrix(11.8,0,0,15.6,252.1,651.5)" />
</g>
<path d="M284.2,645.6h23" class="g2_15" />
<g fill="#000000" >
<use xlink:href="#f2_c" transform="matrix(11.8,0,0,15.6,337.9,651.5)" />
<use xlink:href="#f2_d" transform="matrix(11.8,0,0,15.6,429.4,651.5)" />
<use xlink:href="#f0_m" transform="matrix(11.9,0,0,11.9,171.6,650.2)" />
<use xlink:href="#f0_2f" transform="matrix(11.9,0,0,11.9,206.8,650.2)" />
<use xlink:href="#f0_25" transform="matrix(11.9,0,0,11.9,213.9,650.2)" />
<use xlink:href="#f0_2a" transform="matrix(11.9,0,0,11.9,219.1,650.2)" />
<use xlink:href="#f0_m" transform="matrix(11.9,0,0,11.9,231.3,650.2)" />
<use xlink:href="#f0_g" transform="matrix(11.9,0,0,11.9,259.9,650.2)" />
<use xlink:href="#f0_m" transform="matrix(11.9,0,0,11.9,345.3,650.2)" />
<use xlink:href="#f0_m" transform="matrix(11.9,0,0,11.9,370.6,650.2)" />
<use xlink:href="#f0_1z" transform="matrix(11.9,0,0,11.9,381.6,650.2)" />
<use xlink:href="#f0_2b" transform="matrix(11.9,0,0,11.9,389.7,650.2)" />
<use xlink:href="#f0_2f" transform="matrix(11.9,0,0,11.9,398.9,650.2)" />
<use xlink:href="#f0_m" transform="matrix(11.9,0,0,11.9,408.6,650.2)" />
<use xlink:href="#f1_20" transform="matrix(11.9,0,0,11.9,287.1,638.7)" />
<use xlink:href="#f1_2k" transform="matrix(11.9,0,0,11.9,296.3,638.7)" />
<use xlink:href="#f1_2k" transform="matrix(11.9,0,0,11.9,125.6,650.2)" />
<use xlink:href="#f1_1x" transform="matrix(11.9,0,0,11.9,152.5,650.2)" />
<use xlink:href="#f1_1x" transform="matrix(11.9,0,0,11.9,326.3,650.2)" />
<use xlink:href="#f1_20" transform="matrix(11.9,0,0,11.9,285.4,664.3)" />
<use xlink:href="#f4_2d" transform="matrix(11.9,0,-3.2,11.9,179.3,650.2)" />
<use xlink:href="#f4_2d" transform="matrix(11.9,0,-3.2,11.9,239,650.2)" />
<use xlink:href="#f4_2d" transform="matrix(11.9,0,-3.2,11.9,416.5,650.2)" />
<use xlink:href="#f4_2d" transform="matrix(11.9,0,-3.2,11.9,294.6,664.3)" />
<use xlink:href="#f2_x" transform="matrix(11.9,0,0,11.9,138.2,650.2)" />
<use xlink:href="#f2_h" transform="matrix(11.9,0,0,11.9,194.1,650.2)" />
<use xlink:href="#f2_x" transform="matrix(11.9,0,0,11.9,312,650.2)" />
<use xlink:href="#f2_h" transform="matrix(11.9,0,0,11.9,357.5,650.2)" />
</g>
<path d="M147.7,734.4h19.7" class="g7_15" />
<path d="M188.3,713.2h22.9m-22.9,44.2h22.9" class="g8_15" />
<path d="M186.9,734.4h25.7" class="g7_15" />
<g fill="#000000" >
<use xlink:href="#f2_1r" transform="matrix(11.8,0,0,16.3,257,754.7)" />
<use xlink:href="#f2_1t" transform="matrix(11.8,0,0,16.3,333.3,754.7)" />
</g>
<path d="M235.5,734.4H339.3m49.3,0h22.9" class="g7_15" />
<g fill="#000000" >
<use xlink:href="#f0_m" transform="matrix(12,0,0,12,258.1,727.4)" />
<use xlink:href="#f0_2f" transform="matrix(12,0,0,12,281,727.4)" />
<use xlink:href="#f0_25" transform="matrix(12,0,0,12,288.2,727.4)" />
<use xlink:href="#f0_2a" transform="matrix(12,0,0,12,293.3,727.4)" />
<use xlink:href="#f0_m" transform="matrix(12,0,0,12,305.5,727.4)" />
<use xlink:href="#f0_k" transform="matrix(12,0,0,12,430.7,739)" />
<use xlink:href="#f0_m" transform="matrix(12,0,0,12,236.7,753.3)" />
<use xlink:href="#f0_l" transform="matrix(12,0,0,12,262,753.3)" />
<use xlink:href="#f0_1z" transform="matrix(12,0,0,12,284.3,753.3)" />
<use xlink:href="#f0_2b" transform="matrix(12,0,0,12,292.2,753.3)" />
<use xlink:href="#f0_2f" transform="matrix(12,0,0,12,301.4,753.3)" />
<use xlink:href="#f0_m" transform="matrix(12,0,0,12,311.1,753.3)" />
<use xlink:href="#f1_20" transform="matrix(12,0,0,12,191,706.5)" />
<use xlink:href="#f1_2l" transform="matrix(12,0,0,12,200.2,706.5)" />
<use xlink:href="#f1_20" transform="matrix(12,0,0,12,148.9,727.4)" />
<use xlink:href="#f1_2l" transform="matrix(12,0,0,12,158,727.4)" />
<use xlink:href="#f1_1x" transform="matrix(12,0,0,12,269.5,727.4)" />
<use xlink:href="#f1_20" transform="matrix(12,0,0,12,391.4,727.4)" />
<use xlink:href="#f1_2k" transform="matrix(12,0,0,12,400.5,727.4)" />
<use xlink:href="#f1_20" transform="matrix(12,0,0,12,189.4,731.8)" />
<use xlink:href="#f1_20" transform="matrix(12,0,0,12,191.2,750.7)" />
<use xlink:href="#f1_2k" transform="matrix(12,0,0,12,200.4,750.7)" />
<use xlink:href="#f1_20" transform="matrix(12,0,0,12,149.1,753.3)" />
<use xlink:href="#f1_2k" transform="matrix(12,0,0,12,158.2,753.3)" />
<use xlink:href="#f1_1x" transform="matrix(12,0,0,12,246,753.3)" />
<use xlink:href="#f1_20" transform="matrix(12,0,0,12,389.7,753.3)" />
<use xlink:href="#f1_20" transform="matrix(12,0,0,12,189.4,776)" />
<use xlink:href="#f4_2d" transform="matrix(12,0,-3.2,12,315.3,727.4)" />
<use xlink:href="#f4_2d" transform="matrix(12,0,-3.2,12,198.6,731.8)" />
<use xlink:href="#f4_2d" transform="matrix(12,0,-3.2,12,321,753.3)" />
<use xlink:href="#f4_2d" transform="matrix(12,0,-3.2,12,398.9,753.3)" />
<use xlink:href="#f4_2d" transform="matrix(12,0,-3.2,12,198.6,776)" />
<use xlink:href="#f2_h" transform="matrix(12,0,0,12,248.1,727.4)" />
<use xlink:href="#f2_4o" transform="matrix(12,0,0,12,362.4,728.9)" />
<use xlink:href="#f2_54" transform="matrix(12,0,0,12,441.6,728.9)" />
<use xlink:href="#f2_4g" transform="matrix(12,0,0,12,123.4,739)" />
<use xlink:href="#f2_x" transform="matrix(12,0,0,12,170.5,739)" />
<use xlink:href="#f2_x" transform="matrix(12,0,0,12,219.2,739)" />
<use xlink:href="#f2_3f" transform="matrix(12,0,0,12,416.3,739)" />
<use xlink:href="#f2_4p" transform="matrix(12,0,0,12,362.5,743.9)" />
<use xlink:href="#f2_55" transform="matrix(12,0,0,12,441.6,743.9)" />
<use xlink:href="#f2_h" transform="matrix(12,0,0,12,272.1,753.3)" />
<use xlink:href="#f2_4q" transform="matrix(12,0,0,12,362.5,755.5)" />
<use xlink:href="#f2_56" transform="matrix(12,0,0,12,441.6,755.5)" />
<use xlink:href="#f5_14" transform="matrix(12,0,0,12,368.9,739)" />
</g>
<path d="M147.8,823.2H248.3" class="g7_15" />
<g fill="#000000" >
<use xlink:href="#f0_m" transform="matrix(6.9,0,0,6.9,205.2,833.9)" />
<use xlink:href="#f0_m" transform="matrix(11.9,0,0,11.9,159,816.3)" />
<use xlink:href="#f0_2f" transform="matrix(11.9,0,0,11.9,169.9,816.3)" />
<use xlink:href="#f0_25" transform="matrix(11.9,0,0,11.9,177.1,816.3)" />
<use xlink:href="#f0_2a" transform="matrix(11.9,0,0,11.9,182.2,816.3)" />
<use xlink:href="#f0_1z" transform="matrix(11.9,0,0,11.9,210.4,816.3)" />
<use xlink:href="#f0_2b" transform="matrix(11.9,0,0,11.9,218.3,816.3)" />
<use xlink:href="#f0_2f" transform="matrix(11.9,0,0,11.9,227.5,816.3)" />
<use xlink:href="#f0_1z" transform="matrix(11.9,0,0,11.9,283.3,827.9)" />
<use xlink:href="#f0_2b" transform="matrix(11.9,0,0,11.9,291.3,827.9)" />
<use xlink:href="#f0_2g" transform="matrix(11.9,0,0,11.9,300.5,827.9)" />
<use xlink:href="#f0_m" transform="matrix(11.9,0,0,11.9,171.4,842)" />
<use xlink:href="#f0_2f" transform="matrix(11.9,0,0,11.9,182.4,842)" />
<use xlink:href="#f0_25" transform="matrix(11.9,0,0,11.9,189.5,842)" />
<use xlink:href="#f0_2a" transform="matrix(11.9,0,0,11.9,194.7,842)" />
<use xlink:href="#f4_2d" transform="matrix(11.9,0,-3.2,11.9,192.9,816.3)" />
<use xlink:href="#f4_2d" transform="matrix(11.9,0,-3.2,11.9,235.6,816.3)" />
<use xlink:href="#f4_2d" transform="matrix(11.9,0,-3.2,11.9,307.1,827.9)" />
<use xlink:href="#f4_2d" transform="matrix(11.9,0,-3.2,11.9,213.2,842)" />
<use xlink:href="#f2_h" transform="matrix(11.9,0,0,11.9,148.9,816.3)" />
<use xlink:href="#f2_4g" transform="matrix(11.9,0,0,11.9,123.4,827.9)" />
<use xlink:href="#f2_x" transform="matrix(11.9,0,0,11.9,254.8,827.9)" />
<use xlink:href="#f2_h" transform="matrix(11.9,0,0,11.9,270.9,827.9)" />
</g>
<path d="M144.1,891h19.8m66.4,0h13.5" class="g2_15" />
<path d="M286.5,906.7l1.9,-1m0,0l4.4,7.2m0,0l4.9,-19.2m0,0h9.4" class="g9_15" />
<path fill-rule="evenodd" d="M286.4,906.5l2.5,-1.4l4,5.9l4.5,-17.7h9.7v.9H298l-4.7,18.7h-.9l-4.5,-6.7l-1.2,.8l-.3,-.5Z" class="g10_15" />
<path d="M284.9,891h23.7" class="g2_15" />
<g fill="#000000" >
<use xlink:href="#f0_l" transform="matrix(11.9,0,0,11.9,292.2,884.2)" />
<use xlink:href="#f0_1z" transform="matrix(11.9,0,0,11.9,195.4,895.5)" />
<use xlink:href="#f0_2b" transform="matrix(11.9,0,0,11.9,203.5,895.5)" />
<use xlink:href="#f0_2g" transform="matrix(11.9,0,0,11.9,212.7,895.5)" />
<use xlink:href="#f0_n" transform="matrix(11.9,0,0,11.9,232.7,909.8)" />
<use xlink:href="#f0_n" transform="matrix(11.9,0,0,11.9,297.9,911.3)" />
<use xlink:href="#f1_20" transform="matrix(11.9,0,0,11.9,145.2,884.2)" />
<use xlink:href="#f1_2l" transform="matrix(11.9,0,0,11.9,154.4,884.2)" />
<use xlink:href="#f1_20" transform="matrix(11.9,0,0,11.9,145.4,909.8)" />
<use xlink:href="#f1_2k" transform="matrix(11.9,0,0,11.9,154.5,909.8)" />
<use xlink:href="#f4_2c" transform="matrix(11.9,0,-3.2,11.9,230.3,884.2)" />
<use xlink:href="#f2_4o" transform="matrix(11.9,0,0,11.9,220.4,885.6)" />
<use xlink:href="#f2_54" transform="matrix(11.9,0,0,11.9,246.4,885.6)" />
<use xlink:href="#f2_1s" transform="matrix(11.9,0,0,11.9,121.2,895.5)" />
<use xlink:href="#f2_x" transform="matrix(11.9,0,0,11.9,168.7,895.5)" />
<use xlink:href="#f2_h" transform="matrix(11.9,0,0,11.9,183.1,895.5)" />
<use xlink:href="#f2_x" transform="matrix(11.9,0,0,11.9,257.5,895.5)" />
<use xlink:href="#f2_h" transform="matrix(11.9,0,0,11.9,272,895.5)" />
<use xlink:href="#f2_4p" transform="matrix(11.9,0,0,11.9,220.4,900.5)" />
<use xlink:href="#f2_55" transform="matrix(11.9,0,0,11.9,246.4,900.5)" />
<use xlink:href="#f2_4q" transform="matrix(11.9,0,0,11.9,220.4,911.8)" />
<use xlink:href="#f2_56" transform="matrix(11.9,0,0,11.9,246.4,911.8)" />
<use xlink:href="#f3_1j" transform="matrix(12,0,0,12,419.1,942.6)" />
<use xlink:href="#f3_21" transform="matrix(12,0,0,12,429.3,942.6)" />
<use xlink:href="#f3_1z" transform="matrix(12,0,0,12,437.5,942.6)" />
<use xlink:href="#f3_2g" transform="matrix(12,0,0,12,445.6,942.6)" />
<use xlink:href="#f3_25" transform="matrix(12,0,0,12,451.7,942.6)" />
<use xlink:href="#f3_2b" transform="matrix(12,0,0,12,456.8,942.6)" />
<use xlink:href="#f3_2a" transform="matrix(12,0,0,12,466,942.6)" />
<use xlink:href="#f3_h" transform="matrix(12,0,0,12,476.2,942.6)" />
<use xlink:href="#f3_14" transform="matrix(12,0,0,12,486.2,942.6)" />
<use xlink:href="#f0_m" transform="matrix(12,0,0,12,64.9,1031)" />
<use xlink:href="#f0_o" transform="matrix(12,0,0,12,74.1,1031)" />
<use xlink:href="#f0_i" transform="matrix(12,0,0,12,83.2,1031)" />
<use xlink:href="#f0_15" transform="matrix(12,0,0,12,121.9,1031)" />
<use xlink:href="#f0_2i" transform="matrix(12,0,0,12,132.7,1031)" />
<use xlink:href="#f0_1x" transform="matrix(12,0,0,12,141.3,1031)" />
<use xlink:href="#f0_28" transform="matrix(12,0,0,12,149.1,1031)" />
<use xlink:href="#f0_2h" transform="matrix(12,0,0,12,153.6,1031)" />
<use xlink:href="#f0_1x" transform="matrix(12,0,0,12,162.4,1031)" />
<use xlink:href="#f0_2g" transform="matrix(12,0,0,12,170,1031)" />
<use xlink:href="#f0_21" transform="matrix(12,0,0,12,174.7,1031)" />
<use xlink:href="#f0_u" transform="matrix(12,0,0,12,185.4,1031)" />
</g>
<path d="M216.7,1020.9h88.2" class="g2_15" />
<g fill="#000000" >
<use xlink:href="#f0_j" transform="matrix(6.9,0,0,6.9,203.9,1004.6)" />
<use xlink:href="#f0_o" transform="matrix(6.9,0,0,6.9,208.4,1004.6)" />
<use xlink:href="#f0_k" transform="matrix(6.9,0,0,6.9,202.2,1045.1)" />
<use xlink:href="#f0_2f" transform="matrix(11.9,0,0,11.9,217.6,1014)" />
<use xlink:href="#f0_25" transform="matrix(11.9,0,0,11.9,224.7,1014)" />
<use xlink:href="#f0_2a" transform="matrix(11.9,0,0,11.9,229.9,1014)" />
<use xlink:href="#f0_1z" transform="matrix(11.9,0,0,11.9,267.6,1014)" />
<use xlink:href="#f0_2b" transform="matrix(11.9,0,0,11.9,275.7,1014)" />
<use xlink:href="#f0_2f" transform="matrix(11.9,0,0,11.9,284.9,1014)" />
<use xlink:href="#f0_l" transform="matrix(11.9,0,0,11.9,215.8,1039.6)" />
<use xlink:href="#f0_q" transform="matrix(11.9,0,0,11.9,224.9,1039.6)" />
<use xlink:href="#f0_t" transform="matrix(11.9,0,0,11.9,249.9,1039.6)" />
<use xlink:href="#f0_2f" transform="matrix(11.9,0,0,11.9,260.9,1039.6)" />
<use xlink:href="#f0_25" transform="matrix(11.9,0,0,11.9,268,1039.6)" />
<use xlink:href="#f0_2a" transform="matrix(11.9,0,0,11.9,273.1,1039.6)" />
<use xlink:href="#f0_m" transform="matrix(11.9,0,0,11.9,285.4,1039.6)" />
</g>
<g clip-path="url(#c2_15)">
<g fill="#000000" >
<use xlink:href="#f1_2k" transform="matrix(11.9,0,0,11.9,243.1,1014)" />
<use xlink:href="#f1_2k" transform="matrix(11.9,0,0,11.9,295.5,1014)" />
</g>
</g>
<g fill="#000000" >
<use xlink:href="#f1_20" transform="matrix(11.9,0,0,11.9,304.7,1025.5)" />
<use xlink:href="#f1_2k" transform="matrix(11.9,0,0,11.9,313.9,1025.5)" />
</g>
<g clip-path="url(#c3_15)">
<g fill="#000000" >
<use xlink:href="#f1_2k" transform="matrix(11.9,0,0,11.9,295.7,1039.6)" />
</g>
</g>
<g fill="#000000" >
<use xlink:href="#f4_2c" transform="matrix(6.9,0,-1.8,6.9,195.3,1004.6)" />
<use xlink:href="#f2_f" transform="matrix(11.9,0,0,11.9,254.5,1014)" />
<use xlink:href="#f2_f" transform="matrix(11.9,0,0,11.9,237.1,1039.6)" />
<use xlink:href="#f2_50" transform="matrix(17.9,0,0,17.9,201.1,1031.9)" />
<use xlink:href="#f0_1j" transform="matrix(12,0,0,12,64.9,1101.6)" />
<use xlink:href="#f0_2b" transform="matrix(12,0,0,12,74.1,1101.6)" />
<use xlink:href="#f0_28" transform="matrix(12,0,0,12,82.1,1101.6)" />
<use xlink:href="#f0_u" transform="matrix(12,0,0,12,86.2,1101.6)" />
</g>
<path d="M194.3,1097.2h89" class="g2_15" />
<g fill="#000000" >
<use xlink:href="#f0_j" transform="matrix(6.9,0,0,6.9,182.8,1080.9)" />
<use xlink:href="#f0_o" transform="matrix(6.9,0,0,6.9,186.4,1080.9)" />
<use xlink:href="#f0_k" transform="matrix(6.9,0,0,6.9,181.3,1121.4)" />
<use xlink:href="#f0_2f" transform="matrix(11.9,0,0,11.9,194.9,1090.2)" />
<use xlink:href="#f0_25" transform="matrix(11.9,0,0,11.9,202,1090.2)" />
<use xlink:href="#f0_2a" transform="matrix(11.9,0,0,11.9,207.1,1090.2)" />
<use xlink:href="#f0_2k" transform="matrix(11.9,0,0,11.9,219.6,1090.2)" />
<use xlink:href="#f0_1z" transform="matrix(11.9,0,0,11.9,245.6,1090.2)" />
<use xlink:href="#f0_2b" transform="matrix(11.9,0,0,11.9,253.7,1090.2)" />
<use xlink:href="#f0_2f" transform="matrix(11.9,0,0,11.9,262.9,1090.2)" />
<use xlink:href="#f0_2k" transform="matrix(11.9,0,0,11.9,272.8,1090.2)" />
<use xlink:href="#f0_1c" transform="matrix(11.9,0,0,11.9,124.7,1101.8)" />
<use xlink:href="#f0_21" transform="matrix(11.9,0,0,11.9,135.7,1101.8)" />
<use xlink:href="#f0_2g" transform="matrix(11.9,0,0,11.9,143.8,1101.8)" />
<use xlink:href="#f0_19" transform="matrix(11.9,0,0,11.9,151.6,1101.8)" />
<use xlink:href="#f0_20" transform="matrix(11.9,0,0,11.9,286,1101.8)" />
<use xlink:href="#f0_2k" transform="matrix(11.9,0,0,11.9,295.1,1101.8)" />
<use xlink:href="#f0_l" transform="matrix(11.9,0,0,11.9,193.6,1115.9)" />
<use xlink:href="#f0_q" transform="matrix(11.9,0,0,11.9,202.8,1115.9)" />
<use xlink:href="#f0_t" transform="matrix(11.9,0,0,11.9,227.7,1115.9)" />
<use xlink:href="#f0_2f" transform="matrix(11.9,0,0,11.9,238.3,1115.9)" />
<use xlink:href="#f0_25" transform="matrix(11.9,0,0,11.9,245.4,1115.9)" />
<use xlink:href="#f0_2a" transform="matrix(11.9,0,0,11.9,250.7,1115.9)" />
<use xlink:href="#f0_m" transform="matrix(11.9,0,0,11.9,262.6,1115.9)" />
<use xlink:href="#f0_2k" transform="matrix(11.9,0,0,11.9,272.5,1115.9)" />
<use xlink:href="#f2_2c" transform="matrix(6.9,0,0,6.9,176.6,1080.9)" />
<use xlink:href="#f2_f" transform="matrix(11.9,0,0,11.9,232.5,1090.2)" />
<use xlink:href="#f2_x" transform="matrix(11.9,0,0,11.9,162.1,1101.8)" />
<use xlink:href="#f2_f" transform="matrix(11.9,0,0,11.9,214.9,1115.9)" />
<use xlink:href="#f2_50" transform="matrix(17.9,0,0,17.9,180.2,1108.2)" />
<use xlink:href="#f0_18" transform="matrix(12,0,0,12,119,1150.7)" />
<use xlink:href="#f0_21" transform="matrix(12,0,0,12,131.8,1150.7)" />
<use xlink:href="#f0_2e" transform="matrix(12,0,0,12,139.7,1150.7)" />
<use xlink:href="#f0_21" transform="matrix(12,0,0,12,145.4,1150.7)" />
<use xlink:href="#f0_g" transform="matrix(12,0,0,12,153.1,1150.7)" />
<use xlink:href="#f0_2j" transform="matrix(12,0,0,12,160.6,1150.7)" />
<use xlink:href="#f0_21" transform="matrix(12,0,0,12,173.6,1150.7)" />
<use xlink:href="#f0_21" transform="matrix(12,0,0,12,184.3,1150.7)" />
<use xlink:href="#f0_2k" transform="matrix(12,0,0,12,192.1,1150.7)" />
<use xlink:href="#f0_2c" transform="matrix(12,0,0,12,201.1,1150.7)" />
<use xlink:href="#f0_2e" transform="matrix(12,0,0,12,209.9,1150.7)" />
<use xlink:href="#f0_21" transform="matrix(12,0,0,12,215.8,1150.7)" />
<use xlink:href="#f0_2f" transform="matrix(12,0,0,12,223.5,1150.7)" />
<use xlink:href="#f0_2f" transform="matrix(12,0,0,12,230.4,1150.7)" />
<use xlink:href="#f0_2g" transform="matrix(12,0,0,12,240.3,1150.7)" />
<use xlink:href="#f0_24" transform="matrix(12,0,0,12,245.3,1150.7)" />
<use xlink:href="#f0_21" transform="matrix(12,0,0,12,254.1,1150.7)" />
<use xlink:href="#f0_20" transform="matrix(12,0,0,12,265.1,1150.7)" />
<use xlink:href="#f0_21" transform="matrix(12,0,0,12,273.9,1150.7)" />
<use xlink:href="#f0_2a" transform="matrix(12,0,0,12,281.8,1150.7)" />
<use xlink:href="#f0_2b" transform="matrix(12,0,0,12,290.6,1150.7)" />
<use xlink:href="#f0_29" transform="matrix(12,0,0,12,299.4,1150.7)" />
<use xlink:href="#f0_25" transform="matrix(12,0,0,12,313.5,1150.7)" />
<use xlink:href="#f0_2a" transform="matrix(12,0,0,12,318.3,1150.7)" />
<use xlink:href="#f0_1x" transform="matrix(12,0,0,12,327.1,1150.7)" />
<use xlink:href="#f0_2g" transform="matrix(12,0,0,12,334.9,1150.7)" />
<use xlink:href="#f0_2b" transform="matrix(12,0,0,12,339.7,1150.7)" />
<use xlink:href="#f0_2e" transform="matrix(12,0,0,12,348.5,1150.7)" />
<use xlink:href="#f0_25" transform="matrix(12,0,0,12,357.5,1150.7)" />
<use xlink:href="#f0_2a" transform="matrix(12,0,0,12,362.4,1150.7)" />
<use xlink:href="#f0_2g" transform="matrix(12,0,0,12,374.2,1150.7)" />
<use xlink:href="#f0_21" transform="matrix(12,0,0,12,379.1,1150.7)" />
<use xlink:href="#f0_2e" transform="matrix(12,0,0,12,386.8,1150.7)" />
<use xlink:href="#f0_29" transform="matrix(12,0,0,12,392.5,1150.7)" />
<use xlink:href="#f0_2f" transform="matrix(12,0,0,12,406.6,1150.7)" />
<use xlink:href="#f0_2f" transform="matrix(12,0,0,12,416.7,1150.7)" />
<use xlink:href="#f0_25" transform="matrix(12,0,0,12,423.5,1150.7)" />
<use xlink:href="#f0_2a" transform="matrix(12,0,0,12,428.3,1150.7)" />
<use xlink:href="#f0_2k" transform="matrix(12,0,0,12,440.4,1150.7)" />
<use xlink:href="#f0_h" transform="matrix(12,0,0,12,452.6,1150.7)" />
<use xlink:href="#f0_1z" transform="matrix(12,0,0,12,461.4,1150.7)" />
<use xlink:href="#f0_2b" transform="matrix(12,0,0,12,469.1,1150.7)" />
<use xlink:href="#f0_2f" transform="matrix(12,0,0,12,477.9,1150.7)" />
<use xlink:href="#f0_2k" transform="matrix(12,0,0,12,488,1150.7)" />
<use xlink:href="#f0_2j" transform="matrix(12,0,0,12,500.3,1150.7)" />
<use xlink:href="#f0_24" transform="matrix(12,0,0,12,513.1,1150.7)" />
<use xlink:href="#f0_25" transform="matrix(12,0,0,12,522.1,1150.7)" />
<use xlink:href="#f0_1z" transform="matrix(12,0,0,12,526.9,1150.7)" />
<use xlink:href="#f0_24" transform="matrix(12,0,0,12,534.6,1150.7)" />
<use xlink:href="#f0_25" transform="matrix(12,0,0,12,546.7,1150.7)" />
<use xlink:href="#f0_2f" transform="matrix(12,0,0,12,551.5,1150.7)" />
<use xlink:href="#f0_25" transform="matrix(12,0,0,12,561.4,1150.7)" />
<use xlink:href="#f0_2a" transform="matrix(12,0,0,12,566.1,1150.7)" />
<use xlink:href="#f0_2g" transform="matrix(12,0,0,12,575.1,1150.7)" />
<use xlink:href="#f0_21" transform="matrix(12,0,0,12,579.9,1150.7)" />
<use xlink:href="#f0_23" transform="matrix(12,0,0,12,587.8,1150.7)" />
<use xlink:href="#f0_2e" transform="matrix(12,0,0,12,596.4,1150.7)" />
<use xlink:href="#f0_1x" transform="matrix(12,0,0,12,602.1,1150.7)" />
<use xlink:href="#f0_2g" transform="matrix(12,0,0,12,610,1150.7)" />
<use xlink:href="#f0_25" transform="matrix(12,0,0,12,614.7,1150.7)" />
<use xlink:href="#f0_2b" transform="matrix(12,0,0,12,619.5,1150.7)" />
<use xlink:href="#f0_2a" transform="matrix(12,0,0,12,628.5,1150.7)" />
<use xlink:href="#f0_2b" transform="matrix(12,0,0,12,640.6,1150.7)" />
<use xlink:href="#f0_22" transform="matrix(12,0,0,12,649.4,1150.7)" />
<use xlink:href="#f0_2a" transform="matrix(12,0,0,12,658.4,1150.7)" />
<use xlink:href="#f0_2h" transform="matrix(12,0,0,12,667.2,1150.7)" />
<use xlink:href="#f0_29" transform="matrix(12,0,0,12,676,1150.7)" />
<use xlink:href="#f0_21" transform="matrix(12,0,0,12,690.1,1150.7)" />
<use xlink:href="#f0_2e" transform="matrix(12,0,0,12,697.8,1150.7)" />
<use xlink:href="#f0_1x" transform="matrix(12,0,0,12,703.6,1150.7)" />
<use xlink:href="#f0_2g" transform="matrix(12,0,0,12,711.3,1150.7)" />
<use xlink:href="#f0_2b" transform="matrix(12,0,0,12,716.1,1150.7)" />
<use xlink:href="#f0_2e" transform="matrix(12,0,0,12,725.1,1150.7)" />
<use xlink:href="#f0_i" transform="matrix(12,0,0,12,729.7,1150.7)" />
<use xlink:href="#f6_l" transform="matrix(8,0,0,8,785.4,1264.3)" />
<use xlink:href="#f6_p" transform="matrix(8,0,0,8,792.2,1264.3)" />
</g>
<defs>
<path d="M238,-17c0,0,-103,0,-139,25C99,8,62,33,62,62c0,0,0,22,17,38c0,0,18,16,42,16c0,0,19,0,38,-6c0,0,13,-3,58,-27c0,0,45,-23,62,-28c0,0,27,-8,59,-8c0,0,76,0,132,59c0,0,56,59,56,140c0,0,0,59,-26,115c0,0,-19,41,-42,63c0,0,-32,30,-88,54c0,0,-56,25,-114,25H232v22c0,0,59,8,118,42c0,0,59,35,86,85c0,0,27,49,27,108c0,0,0,76,-48,124c0,0,-48,47,-120,47c0,0,-116,0,-193,-124L77,819c0,0,44,102,110,158c0,0,66,56,164,56c0,0,122,0,187,-80c0,0,49,-58,49,-126c0,0,0,-110,-139,-228c0,0,93,-36,141,-104c0,0,48,-68,48,-160c0,0,0,-131,-84,-227C553,108,444,-17,238,-17Z" 
id="f0_n"
transform="scale(0.001,-0.001)" />

<path d="M33,0V27c0,0,264,241,371,393c0,0,108,152,108,278c0,0,0,96,-59,158c0,0,-59,62,-141,62c0,0,-75,0,-134,-43c0,0,-59,-44,-88,-128H63c0,0,18,138,95,212c0,0,77,74,193,74c0,0,123,0,205,-80c0,0,83,-79,83,-186c0,0,0,-77,-36,-154c0,0,-55,-121,-179,-256C424,357,238,154,191,112H455c0,0,81,0,114,6c0,0,32,6,58,25c0,0,27,18,46,52h27L630,0Z" 
id="f0_m"
transform="scale(0.001,-0.001)" />

<path d="M452,373V875L97,373ZM452,0V267H23v95l470,671h82V373H711V267H575V0Z" 
id="f0_o"
transform="scale(0.001,-0.001)" />

<path d="M252,70c0,0,90,0,212,168c0,0,123,168,123,294c0,0,0,47,-30,76c0,0,-30,30,-77,30c0,0,-103,0,-214,-156C266,482,155,327,155,185c0,0,0,-56,28,-85c0,0,29,-30,69,-30ZM185,-17c0,0,-63,0,-109,50C76,33,29,83,29,169c0,0,0,111,77,237c0,0,77,126,203,205c0,0,99,64,182,64c0,0,44,0,75,-17c0,0,32,-16,62,-54l71,247c0,0,11,40,18,64c0,0,9,31,9,50c0,0,0,16,-11,27c0,0,-16,13,-40,13c0,0,-17,0,-57,-6v27l255,42L615,170c0,0,-21,-73,-21,-95c0,0,0,-7,4,-13c0,0,4,-6,8,-6c0,0,7,0,16,9c0,0,16,16,56,88l25,-16c0,0,-43,-73,-88,-114c0,0,-44,-40,-83,-40c0,0,-20,0,-35,17c0,0,-16,18,-16,51c0,0,0,42,22,114l29,94C532,259,413,91,315,27c0,0,-68,-44,-130,-44Z" 
id="f1_20"
transform="scale(0.001,-0.001)" />

<path d="M-60,-328c0,0,-23,0,-41,17c0,0,-17,18,-17,41c0,0,0,29,24,53c0,0,24,23,53,23c0,0,15,0,24,-6c0,0,6,-4,13,-21c0,0,6,-18,12,-24c0,0,4,-3,9,-3c0,0,5,0,16,7c0,0,41,25,96,81c0,0,71,72,106,119L193,430c0,0,-11,117,-32,142c0,0,-20,25,-70,25c0,0,-15,0,-56,-4l-7,28l219,54c0,0,25,-43,35,-81c0,0,10,-38,20,-148L334,80c0,0,45,54,130,170c0,0,41,56,102,154c0,0,36,59,45,83c0,0,4,12,4,25c0,0,0,8,-5,13c0,0,-6,5,-28,12c0,0,-21,7,-36,26c0,0,-15,19,-15,44c0,0,0,30,18,49c0,0,18,19,45,19c0,0,33,0,56,-28c0,0,23,-27,23,-74c0,0,0,-59,-40,-135c0,0,-40,-76,-155,-232C478,206,363,49,200,-135c0,0,-113,-127,-168,-160c0,0,-53,-33,-92,-33Z" 
id="f1_2l"
transform="scale(0.001,-0.001)" />

<path d="M22,-17c0,0,-29,0,-54,21c0,0,-18,16,-18,44c0,0,0,25,17,41c0,0,16,17,39,17c0,0,24,0,50,-24C56,82,76,65,86,65c0,0,9,0,23,11c0,0,35,28,95,122c0,0,61,93,79,134c0,0,-46,182,-49,193c0,0,-17,49,-45,69c0,0,-27,20,-81,20c0,0,-17,0,-40,-1v26l199,36c0,0,37,-39,55,-78c0,0,14,-26,44,-141l66,99c0,0,26,35,64,68c0,0,37,32,65,44c0,0,18,8,40,8c0,0,32,0,51,-17c0,0,19,-18,19,-42c0,0,0,-29,-11,-39c0,0,-21,-19,-48,-19c0,0,-16,0,-34,7c0,0,-35,12,-47,12c0,0,-18,0,-43,-21c0,0,-46,-39,-111,-150L439,150c0,0,14,-59,24,-71c0,0,10,-11,20,-11c0,0,15,0,37,17c0,0,41,34,70,89l27,-13C617,161,569,73,497,15c0,0,-41,-32,-70,-32c0,0,-42,0,-66,46c0,0,-16,29,-64,251C297,280,180,78,110,20c0,0,-46,-37,-88,-37Z" 
id="f1_2k"
transform="scale(0.001,-0.001)" />

<path d="M62,-123V268c0,0,0,230,56,452c0,0,47,190,134,334c0,0,87,144,204,242c0,0,85,73,194,119l18,-16c0,0,-211,-145,-335,-339c0,0,-98,-156,-149,-374c0,0,-50,-218,-50,-403V-123Z" 
id="f2_4o"
transform="scale(0.001,-0.001)" />

<path d="M617,-123V283c0,0,0,236,-63,459c0,0,-63,223,-188,392c0,0,-108,146,-282,265l17,16c0,0,180,-76,320,-248c0,0,139,-172,204,-417c0,0,64,-245,64,-482V-123Z" 
id="f2_54"
transform="scale(0.001,-0.001)" />

<path d="M355,0V355H0v72H355V784h72V427H782V355H427V0Z" 
id="f2_f"
transform="scale(0.001,-0.001)" />

<path d="M62,-123V1415h72V-123Z" 
id="f2_4p"
transform="scale(0.001,-0.001)" />

<path d="M617,-123V1415h72V-123Z" 
id="f2_55"
transform="scale(0.001,-0.001)" />

<path d="M650,-123c0,0,-180,75,-319,246c0,0,-140,172,-205,418c0,0,-64,245,-64,481v393h72V1007c0,0,0,-236,63,-459c0,0,63,-223,189,-391c0,0,108,-145,282,-265l-18,-15Z" 
id="f2_4q"
transform="scale(0.001,-0.001)" />

<path d="M101,-123l-17,15c0,0,210,144,334,339c0,0,99,156,149,373c0,0,50,218,50,403v408h72V1022c0,0,0,-230,-56,-451c0,0,-48,-191,-134,-335C499,236,412,92,295,-5c0,0,-84,-73,-194,-118Z" 
id="f2_56"
transform="scale(0.001,-0.001)" />

<path d="M0,214v74H784V214ZM0,494v72H784V494Z" 
id="f2_x"
transform="scale(0.001,-0.001)" />

<path d="M0,356v74H784V356Z" 
id="f2_h"
transform="scale(0.001,-0.001)" />

<path d="M412,-328c0,0,-195,96,-303,284C109,-44,0,142,0,365c0,0,0,232,114,422c0,0,114,191,298,273v-31c0,0,-92,-51,-151,-139c0,0,-59,-88,-88,-223c0,0,-29,-136,-29,-282c0,0,0,-167,27,-301c0,0,26,-133,82,-221c0,0,55,-89,159,-159v-32Z" 
id="f2_c"
transform="scale(0.001,-0.001)" />

<path d="M34,-328v32c0,0,92,50,151,138c0,0,59,88,88,222c0,0,29,135,29,283c0,0,0,165,-27,300c0,0,-26,134,-82,222c0,0,-56,89,-159,160v31c0,0,194,-96,303,-284c0,0,108,-187,108,-410c0,0,0,-232,-114,-422c0,0,-114,-191,-297,-272Z" 
id="f2_d"
transform="scale(0.001,-0.001)" />

<path d="M491,-305c0,0,-180,60,-305,247C186,-58,61,127,61,368c0,0,0,239,124,423c0,0,125,184,306,243v-34c0,0,-78,-50,-115,-99c0,0,-50,-67,-79,-172c0,0,-36,-131,-36,-365c0,0,0,-221,33,-343c0,0,32,-122,88,-197c0,0,39,-52,109,-92v-37Z" 
id="f3_c"
transform="scale(0.001,-0.001)" />

<path d="M597,33c0,0,77,0,129,38c0,0,65,47,102,152c0,0,36,105,36,273c0,0,0,201,-37,300c0,0,-37,100,-95,141c0,0,-58,41,-133,41c0,0,-139,0,-211,-142c0,0,-59,-116,-59,-334c0,0,0,-259,91,-382c0,0,63,-87,177,-87Zm3,-54c0,0,-273,0,-423,183C177,162,60,309,60,509c0,0,0,225,153,375c0,0,144,142,358,142c6,0,12,0,19,0c0,0,3,0,8,0c42,0,250,-7,385,-141c0,0,151,-150,151,-375c0,0,0,-193,-113,-339c0,0,-149,-192,-421,-192Z" 
id="f3_1f"
transform="scale(0.001,-0.001)" />

<path d="M448,514c0,0,104,0,155,19c0,0,52,19,81,69c0,0,30,50,30,129c0,0,0,116,-54,171c0,0,-54,55,-174,55H406V514ZM28,0V27c0,0,70,0,95,13c0,0,25,14,35,35c0,0,10,21,10,103V834c0,0,0,82,-10,104c0,0,-10,21,-35,34c0,0,-25,13,-95,13v27H498c0,0,184,0,269,-25c0,0,85,-26,138,-94c0,0,54,-68,54,-160c0,0,0,-112,-80,-185c0,0,-52,-46,-145,-69L977,135c0,0,48,-66,68,-82c0,0,31,-23,72,-26V0H798L472,462H406V178c0,0,0,-82,10,-104c0,0,10,-21,35,-34c0,0,25,-13,95,-13V0Z" 
id="f3_1i"
transform="scale(0.001,-0.001)" />

<path d="M19,-305v34c0,0,77,52,114,100c0,0,50,67,79,171c0,0,36,131,36,365c0,0,0,221,-33,343c0,0,-32,122,-88,198c0,0,-39,52,-108,91v37c0,0,179,-60,304,-246c0,0,125,-186,125,-428c0,0,0,-238,-125,-421c0,0,-125,-184,-304,-244Z" 
id="f3_d"
transform="scale(0.001,-0.001)" />

<path d="M38,0V27H74c0,0,63,0,91,37c0,0,18,24,18,115V833c0,0,0,77,-10,102c0,0,-7,18,-30,32c0,0,-33,18,-69,18H38v27H470V985H434c0,0,-62,0,-90,-37c0,0,-18,-24,-18,-115V179c0,0,0,-77,9,-102c0,0,8,-18,31,-32c0,0,32,-18,68,-18h36V0Z" 
id="f0_19"
transform="scale(0.001,-0.001)" />

<path d="M63,0V26H93c0,0,30,0,54,15c0,0,25,15,34,41c0,0,10,25,10,99V630H58v53H191v45c0,0,0,102,33,173c0,0,32,71,100,114c0,0,68,44,152,44c0,0,79,0,145,-51c0,0,43,-33,43,-75c0,0,0,-22,-19,-42c0,0,-20,-20,-42,-20c0,0,-17,0,-36,12c0,0,-19,13,-47,53c0,0,-28,41,-51,55c0,0,-23,14,-51,14c0,0,-35,0,-58,-18c0,0,-24,-18,-35,-57c0,0,-10,-38,-10,-197V683H491V630H315V181c0,0,0,-96,21,-122c0,0,27,-33,73,-33h62V0Z" 
id="f0_22"
transform="scale(0.001,-0.001)" />

<path d="M312,-20c0,0,-62,0,-143,22c0,0,-25,8,-40,8c0,0,-18,0,-27,-19H77V234h25c0,0,21,-105,80,-158c0,0,59,-53,132,-53c0,0,51,0,84,31c0,0,32,30,32,72c0,0,0,52,-36,87c0,0,-36,35,-144,88c0,0,-109,54,-142,97c0,0,-34,43,-34,107c0,0,0,85,58,141c0,0,58,57,150,57c0,0,40,0,97,-17c0,0,38,-11,51,-11c0,0,12,0,19,5c0,0,7,5,15,23h25V470H464c0,0,-28,110,-72,149c0,0,-45,40,-113,40c0,0,-53,0,-85,-28c0,0,-32,-27,-32,-61c0,0,0,-41,24,-71c0,0,23,-31,94,-65L389,381c0,0,152,-74,152,-194c0,0,0,-94,-71,-151c0,0,-70,-56,-158,-56Z" 
id="f0_2f"
transform="scale(0.001,-0.001)" />

<path d="M55,0V26c0,0,50,0,67,10c0,0,17,10,27,32c0,0,10,23,10,86V418c0,0,0,111,-6,144c0,0,-6,24,-17,33c0,0,-11,10,-30,10c0,0,-21,0,-51,-11L45,620l206,83h33V154c0,0,0,-64,9,-85c0,0,9,-22,27,-32c0,0,19,-11,67,-11V0ZM222,909c0,0,-32,0,-54,23c0,0,-22,22,-22,53c0,0,0,32,22,54c0,0,22,22,54,22c0,0,31,0,53,-22c0,0,22,-22,22,-54c0,0,0,-31,-22,-53c0,0,-22,-23,-53,-23Z" 
id="f0_25"
transform="scale(0.001,-0.001)" />

<path d="M21,0V26H35c0,0,53,0,71,27c0,0,18,27,18,101V408c0,0,0,123,-5,150c0,0,-6,27,-17,37c0,0,-12,10,-31,10c0,0,-21,0,-50,-11L10,620l206,83h32V558c0,0,120,145,229,145c0,0,56,0,96,-28c0,0,40,-28,64,-92c0,0,16,-45,16,-137V154c0,0,0,-65,11,-88c0,0,8,-19,26,-29c0,0,18,-11,68,-11V0H419V26h14c0,0,47,0,66,15c0,0,20,15,27,43c0,0,3,11,3,70V434c0,0,0,93,-24,135c0,0,-24,42,-81,42c0,0,-88,0,-176,-97V154c0,0,0,-69,9,-86c0,0,10,-21,28,-31c0,0,19,-11,75,-11V0Z" 
id="f0_2a"
transform="scale(0.001,-0.001)" />

<path d="M251,69c0,0,93,0,201,118c0,0,131,157,126,322c0,0,0,62,-26,90c0,0,-27,28,-74,28c0,0,-52,0,-110,-44c0,0,-83,-62,-148,-185c0,0,-64,-122,-64,-221c0,0,0,-50,28,-79c0,0,29,-29,67,-29ZM183,-17c0,0,-60,0,-103,44C80,27,36,71,36,149c0,0,0,117,77,247c0,0,77,130,195,208c0,0,92,62,174,62c0,0,49,0,82,-22c0,0,32,-22,49,-73l24,77l115,18L609,160L593,92c0,0,-2,-10,-2,-17c0,0,0,-10,5,-19c0,0,4,-6,11,-6c0,0,6,0,17,11c0,0,21,20,55,88l25,-18c0,0,-43,-75,-89,-112c0,0,-45,-36,-84,-36c0,0,-27,0,-42,16c0,0,-15,15,-15,46c0,0,0,36,17,96l16,55C507,196,399,69,309,19c0,0,-64,-36,-126,-36Z" 
id="f1_1x"
transform="scale(0.001,-0.001)" />

<path d="M338,28c0,0,48,0,91,45c0,0,43,45,65,144c0,0,22,99,26,276H143c0,0,3,-133,20,-239c0,0,13,-80,44,-140c0,0,19,-36,54,-61c0,0,36,-25,77,-25ZM522,543c0,0,-1,194,-37,312c0,0,-29,90,-76,129c0,0,-34,28,-79,28c0,0,-51,0,-93,-39c0,0,-43,-40,-65,-132c0,0,-22,-93,-29,-298ZM329,-21c0,0,-68,0,-124,31c0,0,-56,33,-99,95c0,0,-43,62,-66,131C40,236,0,356,0,489c0,0,0,294,119,453c0,0,91,119,217,119c0,0,122,0,209,-115c0,0,121,-160,121,-436c0,0,0,-263,-119,-415C547,95,455,-21,329,-21Z" 
id="f4_2d"
transform="scale(0.001,-0.001)" />

<path d="M286,72c0,0,57,0,149,75V407c0,0,-113,-45,-145,-64c0,0,-59,-32,-85,-68c0,0,-25,-36,-25,-78c0,0,0,-54,32,-89c0,0,32,-36,74,-36ZM217,-13c0,0,-71,0,-116,48c0,0,-46,48,-46,127c0,0,0,50,22,87c0,0,31,50,106,95c0,0,76,45,252,109v26c0,0,0,102,-32,140c0,0,-32,38,-94,38c0,0,-47,0,-74,-25c0,0,-28,-25,-28,-58l1,-43c0,0,0,-34,-17,-53c0,0,-18,-18,-47,-18c0,0,-28,0,-45,19c0,0,-18,19,-18,53c0,0,0,64,66,117c0,0,65,54,184,54c0,0,91,0,149,-31c0,0,44,-23,65,-72c0,0,13,-32,13,-131V238c0,0,0,-98,4,-120c0,0,4,-22,12,-29c0,0,9,-8,20,-8c0,0,12,0,21,5c0,0,16,10,61,55V99C676,99,592,-12,516,-12c0,0,-37,0,-58,24c0,0,-22,26,-23,86C435,98,330,17,303,5c0,0,-40,-18,-86,-18Z" 
id="f0_1x"
transform="scale(0.001,-0.001)" />

<path d="M399,62c0,0,68,0,131,68V481c0,0,-5,51,-27,93c0,0,-22,42,-59,63c0,0,-37,21,-72,21c0,0,-65,0,-117,-59c0,0,-67,-77,-67,-226c0,0,0,-151,65,-231c0,0,66,-80,146,-80ZM330,-20c0,0,-112,0,-196,93c0,0,-83,94,-83,240c0,0,0,147,92,269c0,0,93,122,238,122c0,0,90,0,149,-58V773c0,0,0,117,-6,144c0,0,-5,27,-17,37c0,0,-12,9,-30,9c0,0,-20,0,-52,-12l-9,27l204,83h33V270c0,0,0,-120,6,-146c0,0,5,-27,18,-37c0,0,12,-11,28,-11c0,0,21,0,54,13l9,-26L564,-20H530V78C530,78,480,25,432,2c0,0,-47,-22,-102,-22Z" 
id="f0_20"
transform="scale(0.001,-0.001)" />

<path d="M197,0V27c0,0,71,2,92,13c0,0,21,10,29,29c0,0,9,18,9,109V725c0,0,0,110,-8,141c0,0,-5,24,-19,35c0,0,-14,11,-33,11c0,0,-28,0,-77,-23l-11,23l246,121h25V178c0,0,0,-85,7,-106c0,0,7,-21,29,-32c0,0,23,-11,91,-13V0Z" 
id="f0_l"
transform="scale(0.001,-0.001)" />

<path d="M342,-20c0,0,-116,0,-203,97c0,0,-86,98,-86,264c0,0,0,161,96,261c0,0,95,101,230,101c0,0,100,0,165,-53c0,0,65,-54,65,-111c0,0,0,-29,-18,-46c0,0,-18,-18,-51,-18c0,0,-44,0,-66,29c0,0,-13,15,-17,59c0,0,-4,45,-30,68c0,0,-26,22,-73,22c0,0,-74,0,-120,-55c0,0,-60,-73,-60,-193c0,0,0,-122,60,-216c0,0,60,-93,162,-93c0,0,73,0,131,49c0,0,41,35,80,126l22,-10C629,261,601,125,521,52c0,0,-81,-72,-179,-72Z" 
id="f0_1z"
transform="scale(0.001,-0.001)" />

<path d="M406,32c0,0,72,0,119,60c0,0,47,59,47,205c0,0,0,181,-78,286c0,0,-53,71,-135,71c0,0,-40,0,-79,-23c0,0,-40,-24,-65,-83c0,0,-24,-58,-24,-151c0,0,0,-149,59,-257c0,0,59,-108,156,-108ZM374,-20c0,0,-154,0,-245,122c0,0,-77,104,-77,233c0,0,0,94,46,187c0,0,47,92,123,137c0,0,76,44,161,44c0,0,155,0,249,-118c0,0,80,-100,80,-231c0,0,0,-91,-44,-185C667,169,623,75,546,27c0,0,-77,-47,-172,-47Z" 
id="f0_2b"
transform="scale(0.001,-0.001)" />

<path d="M82,-253v33c0,0,77,25,119,78c0,0,42,54,42,114c0,0,0,14,-7,23c0,0,-5,6,-11,6c0,0,-8,0,-35,-14c0,0,-14,-7,-28,-7c0,0,-37,0,-58,21C104,1,82,23,82,61c0,0,0,36,28,62c0,0,28,27,68,27c0,0,49,0,88,-43c0,0,38,-43,38,-113c0,0,0,-77,-53,-143c0,0,-53,-66,-169,-104Z" 
id="f0_g"
transform="scale(0.001,-0.001)" />

<path d="M336,-20L117,554c0,0,-21,55,-42,74c0,0,-21,19,-66,29v26H296V657c0,0,-40,-3,-52,-14c0,0,-13,-12,-13,-33c0,0,0,-23,13,-56L390,162L537,481L498,581c0,0,-18,46,-47,63c0,0,-17,11,-61,13v26H716V657c0,0,-54,-2,-77,-20c0,0,-15,-12,-15,-39c0,0,0,-15,6,-30L785,177L929,554c0,0,15,40,15,65c0,0,0,14,-15,25c0,0,-14,12,-57,13v26h216V657c0,0,-65,-10,-95,-89L764,-20H733L563,415L363,-20Z" 
id="f0_2j"
transform="scale(0.001,-0.001)" />

<path d="M20,0V26c0,0,45,0,71,15c0,0,15,7,24,28c0,0,9,21,9,85V773c0,0,0,117,-5,144c0,0,-6,27,-17,37c0,0,-12,9,-31,9c0,0,-16,0,-51,-12L10,978l204,83h34V561c0,0,83,91,131,116c0,0,49,26,97,26c0,0,58,0,100,-32c0,0,42,-32,62,-101c0,0,14,-47,14,-174V154c0,0,0,-65,11,-89c0,0,7,-18,25,-28c0,0,18,-11,66,-11V0H418V26h15c0,0,48,0,67,15c0,0,18,15,26,43c0,0,2,12,2,70V396c0,0,0,112,-12,147c0,0,-11,35,-36,53c0,0,-26,17,-61,17c0,0,-37,0,-76,-19c0,0,-40,-20,-95,-79V154c0,0,0,-70,8,-87c0,0,8,-17,29,-29c0,0,22,-12,74,-12V0Z" 
id="f0_24"
transform="scale(0.001,-0.001)" />

<path d="M479,469c0,0,-4,66,-16,93c0,0,-18,42,-55,65c0,0,-37,24,-78,24c0,0,-62,0,-111,-48c0,0,-48,-48,-57,-134ZM355,-20c0,0,-123,0,-211,95c0,0,-87,96,-87,258c0,0,0,175,90,273c0,0,89,98,225,98c0,0,115,0,189,-76c0,0,74,-75,74,-202H162c0,0,0,-152,74,-239c0,0,75,-86,175,-86c0,0,67,0,117,36c0,0,50,37,83,127l24,-15c0,0,-16,-102,-91,-186c0,0,-76,-83,-189,-83Z" 
id="f0_21"
transform="scale(0.001,-0.001)" />

<path d="M140,-21c0,0,-26,0,-44,17C96,-4,79,13,79,40c0,0,0,19,6,33c0,0,8,20,34,55c0,0,46,60,64,126c0,0,32,114,41,321H190c0,0,-55,0,-81,-18c0,0,-44,-26,-80,-89H0c0,0,42,129,98,178c0,0,43,37,120,37H743V575H562c0,0,-27,-171,-27,-327c0,0,0,-77,27,-110c0,0,27,-33,67,-33c0,0,33,0,56,22c0,0,24,22,31,65h27C743,192,730,74,686,26c0,0,-44,-47,-98,-47c0,0,-58,0,-97,51c0,0,-39,53,-39,198c0,0,0,91,28,347H286c0,0,-23,-390,-56,-494c0,0,-33,-102,-90,-102Z" 
id="f4_2c"
transform="scale(0.001,-0.001)" />

<path d="M191,-20c0,0,-34,0,-58,24c0,0,-24,24,-24,58c0,0,0,35,24,59c0,0,24,24,58,24c0,0,35,0,59,-24c0,0,24,-25,24,-59c0,0,0,-34,-24,-58c0,0,-25,-24,-59,-24Z" 
id="f0_i"
transform="scale(0.001,-0.001)" />

<path d="M107,-21V325h27c0,0,19,-109,52,-163c0,0,33,-54,100,-90c0,0,68,-36,148,-36c0,0,93,0,148,49c0,0,54,50,54,117c0,0,0,37,-21,75c0,0,-20,38,-64,71c0,0,-29,22,-159,95c0,0,-130,72,-185,115c0,0,-55,44,-83,96c0,0,-28,52,-28,114c0,0,0,109,83,188c0,0,84,78,213,78c0,0,81,0,171,-39c0,0,42,-19,59,-19c0,0,20,0,32,11c0,0,12,12,20,47h27V684H674c0,0,-14,101,-48,161c0,0,-35,60,-100,95c0,0,-64,35,-133,35c0,0,-77,0,-128,-47c0,0,-51,-48,-51,-108c0,0,0,-46,32,-84c0,0,47,-56,221,-149c0,0,142,-76,194,-117c0,0,51,-41,80,-96c0,0,28,-55,28,-115c0,0,0,-115,-90,-198c0,0,-89,-82,-229,-82c0,0,-44,0,-83,6c0,0,-23,4,-95,27c0,0,-73,24,-93,24c0,0,-18,0,-29,-11c0,0,-11,-12,-16,-46Z" 
id="f0_1j"
transform="scale(0.001,-0.001)" />

<path d="M58,0V26c0,0,47,0,64,10c0,0,18,10,28,32c0,0,9,23,9,86V775c0,0,0,116,-5,142c0,0,-5,27,-17,37c0,0,-11,9,-29,9c0,0,-20,0,-49,-12L46,978l204,83h34V154c0,0,0,-64,9,-85c0,0,9,-21,29,-32c0,0,19,-11,72,-11V0Z" 
id="f0_28"
transform="scale(0.001,-0.001)" />

<path d="M213,-20c0,0,-34,0,-58,24c0,0,-24,24,-24,58c0,0,0,34,24,58c0,0,24,25,58,25c0,0,35,0,59,-25c0,0,24,-24,24,-58c0,0,0,-34,-24,-58c0,0,-25,-24,-59,-24Zm3,559c0,0,-35,0,-59,24c0,0,-24,24,-24,58c0,0,0,35,24,59c0,0,24,24,59,24c0,0,34,0,58,-24c0,0,24,-24,24,-59c0,0,0,-34,-24,-58c0,0,-24,-24,-58,-24Z" 
id="f0_u"
transform="scale(0.001,-0.001)" />

<path d="M0,-302V1034H328V970H119V-238H328v-64Z" 
id="f2_1r"
transform="scale(0.001,-0.001)" />

<path d="M56,-302v64H265V970H56v64H384V-302Z" 
id="f2_1t"
transform="scale(0.001,-0.001)" />

<path d="M379,29c0,0,41,0,84,37c0,0,43,36,65,121c0,0,34,128,34,362c0,0,0,173,-35,288c0,0,-27,86,-69,122c0,0,-31,25,-74,25c0,0,-51,0,-90,-46c0,0,-54,-62,-73,-195c0,0,-20,-132,-20,-261c0,0,0,-209,52,-341c0,0,42,-112,126,-112Zm-2,-46c0,0,-145,0,-241,170c0,0,-81,144,-81,347c0,0,0,173,52,298c0,0,52,125,139,186c0,0,67,49,139,49c0,0,116,0,208,-119c0,0,116,-147,116,-398c0,0,0,-176,-51,-299C658,217,608,94,529,38c0,0,-79,-55,-152,-55Z" 
id="f0_k"
transform="scale(0.001,-0.001)" />

<path d="M83,0C83,0,48,0,24,24C24,24,0,49,0,83c0,0,0,34,24,58c0,0,24,24,59,24c0,0,34,0,58,-24c0,0,24,-24,24,-58c0,0,0,-34,-24,-59C141,24,117,0,83,0ZM695,0c0,0,-34,0,-58,24c0,0,-25,25,-25,59c0,0,0,34,25,58c0,0,24,24,58,24c0,0,34,0,58,-24c0,0,24,-24,24,-58c0,0,0,-34,-24,-59C753,24,729,0,695,0ZM388,594c0,0,-34,0,-59,23c0,0,-24,24,-24,59c0,0,0,34,24,58c0,0,25,25,59,25c0,0,34,0,58,-25c0,0,24,-24,24,-58c0,0,0,-35,-24,-59c0,0,-24,-23,-58,-23Z" 
id="f2_1s"
transform="scale(0.001,-0.001)" />

<path d="M945,-20c0,0,47,75,125,153H57v74H1147l108,91c0,0,23,19,95,72c0,0,-134,103,-203,166H57v72H1070c0,0,-78,78,-125,154h85c0,0,88,-107,217,-217c0,0,130,-110,206,-154V349c0,0,-101,-58,-219,-162c0,0,-118,-103,-204,-207Z" 
id="f2_4g"
transform="scale(0.001,-0.001)" />

<path d="M130,0L252,216H0v70H292L410,496H0v70H450L572,783h82L532,566H783V496H492L377,286H783V216H335L213,0Z" 
id="f2_3f"
transform="scale(0.001,-0.001)" />

<path d="M660,0C618,0,589,29,589,29C560,58,560,99,560,99c0,41,29,70,29,70c29,29,71,29,71,29c41,0,70,-29,70,-29c29,-29,29,-70,29,-70C759,58,730,29,730,29C701,0,660,0,660,0ZM349,532c-42,0,-71,29,-71,29c-29,29,-29,70,-29,70c0,41,29,70,29,70c29,29,71,29,71,29c41,0,70,-29,70,-29c29,-29,29,-70,29,-70c0,-41,-29,-70,-29,-70C390,532,349,532,349,532Zm622,0c-41,0,-70,29,-70,29c-29,29,-29,70,-29,70c0,41,29,70,29,70c29,29,70,29,70,29c42,0,71,-29,71,-29c29,-29,29,-70,29,-70c0,-41,-29,-70,-29,-70c-29,-29,-71,-29,-71,-29Z" 
id="f5_14"
transform="scale(0.001,-0.001)" />

<path d="M255,-10c0,0,-35,0,-68,18c0,0,-32,19,-48,55c0,0,-16,35,-16,109V632H15v24c0,0,41,16,84,56c0,0,43,39,77,92c0,0,17,29,48,104h23V683H407V632H247V188c0,0,0,-66,19,-90c0,0,19,-23,49,-23c0,0,24,0,47,16c0,0,23,15,36,45h29c0,0,-26,-73,-74,-110c0,0,-47,-36,-98,-36Z" 
id="f0_2g"
transform="scale(0.001,-0.001)" />

<path d="M78,-22V359h28c0,0,32,-161,126,-246c0,0,94,-85,202,-85c0,0,84,0,133,46c0,0,50,45,50,106c0,0,0,36,-19,69c0,0,-19,34,-58,64c0,0,-39,30,-138,79c0,0,-138,68,-198,115c0,0,-60,48,-92,107c0,0,-33,59,-33,130c0,0,0,120,89,205c0,0,89,85,224,85c0,0,49,0,96,-11c0,0,35,-9,85,-34c0,0,51,-24,71,-24c0,0,19,0,30,12c0,0,12,12,21,57h23l8,-337H695c0,0,-21,127,-106,204c0,0,-85,78,-184,78c0,0,-76,0,-121,-41c0,0,-44,-41,-44,-94c0,0,0,-33,15,-59c0,0,22,-35,70,-70c0,0,35,-24,162,-87c0,0,178,-87,240,-165c0,0,61,-77,61,-177c0,0,0,-127,-99,-218c0,0,-99,-90,-251,-90c0,0,-48,0,-90,9c0,0,-43,10,-107,36c0,0,-36,15,-59,15c0,0,-20,0,-41,-15c0,0,-22,-15,-35,-45Z" 
id="f3_1j"
transform="scale(0.001,-0.001)" />

<path d="M458,424c0,0,0,120,-13,165c0,0,-13,44,-40,67c0,0,-16,14,-42,14c0,0,-39,0,-63,-38c0,0,-44,-66,-44,-182V424ZM358,-20c0,0,-155,0,-235,119c0,0,-64,96,-64,239c0,0,0,174,94,277c0,0,94,104,221,104c0,0,106,0,184,-87c0,0,78,-87,84,-257H259c0,0,7,-139,74,-220c0,0,51,-62,124,-62c0,0,45,0,81,25c0,0,37,25,79,90l25,-16C642,192,585,76,517,28c0,0,-69,-48,-159,-48Z" 
id="f3_21"
transform="scale(0.001,-0.001)" />

<path d="M365,-20c0,0,-139,0,-223,105c0,0,-83,105,-83,253c0,0,0,142,76,250c0,0,92,131,253,131c0,0,108,0,172,-55c0,0,63,-54,63,-121c0,0,0,-43,-25,-68c0,0,-26,-25,-68,-25c0,0,-44,0,-73,29c0,0,-28,29,-35,104c0,0,-5,47,-22,65c0,0,-17,19,-40,19c0,0,-36,0,-61,-38c0,0,-39,-58,-39,-176c0,0,0,-99,31,-188c0,0,32,-90,86,-134c0,0,41,-32,97,-32c0,0,36,0,69,17c0,0,33,17,78,65l23,-18C644,163,595,70,521,25c0,0,-73,-45,-156,-45Z" 
id="f3_1z"
transform="scale(0.001,-0.001)" />

<path d="M298,-9c0,0,-67,0,-113,36c0,0,-46,37,-58,83c0,0,-8,25,-8,137V624H28v26c0,0,94,66,161,139c0,0,66,73,115,163h25V697H494V624H329V193c0,0,0,-60,5,-78c0,0,6,-17,20,-28c0,0,14,-11,26,-11c0,0,48,0,92,75l22,-17C494,134,434,-9,298,-9Z" 
id="f3_2g"
transform="scale(0.001,-0.001)" />

<path d="M32,0V26c0,0,46,2,69,27c0,0,14,18,14,92V551c0,0,0,75,-17,95c0,0,-17,21,-66,24v27H325V145c0,0,0,-74,17,-95c0,0,17,-21,68,-24V0ZM220,804c0,0,-48,0,-82,33c0,0,-33,34,-33,82c0,0,0,48,33,82c0,0,34,33,82,33c0,0,48,0,82,-33c0,0,33,-34,33,-82c0,0,0,-48,-34,-82c0,0,-34,-33,-81,-33Z" 
id="f3_25"
transform="scale(0.001,-0.001)" />

<path d="M381,31c0,0,33,0,56,19c0,0,29,25,38,71c0,0,15,71,15,286c0,0,0,127,-14,174c0,0,-14,48,-42,69c0,0,-19,16,-50,16c0,0,-38,0,-65,-29c0,0,-27,-29,-36,-113c0,0,-8,-85,-8,-235c0,0,0,-80,10,-150c0,0,8,-53,35,-80c0,0,27,-28,61,-28Zm2,-51c0,0,-157,0,-242,110c0,0,-85,110,-85,256c0,0,0,150,87,261c0,0,86,112,238,112c0,0,90,0,169,-47c0,0,78,-47,119,-134c0,0,40,-86,40,-189c0,0,0,-149,-75,-249c0,0,-91,-120,-251,-120Z" 
id="f3_2b"
transform="scale(0.001,-0.001)" />

<path d="M52,0V26c0,0,44,5,62,29c0,0,13,16,13,97V546c0,0,0,79,-14,98c0,0,-15,20,-61,26v27H336V607c0,0,54,59,104,85c0,0,49,27,106,27c0,0,68,0,113,-38c0,0,44,-38,59,-94c0,0,12,-42,12,-163V152c0,0,0,-81,15,-101c0,0,14,-19,61,-25V0H452V26c0,0,40,6,57,33c0,0,12,19,12,93V462c0,0,0,86,-7,109c0,0,-6,22,-22,35c0,0,-16,12,-36,12c0,0,-64,0,-120,-92V152c0,0,0,-79,15,-100c0,0,15,-20,55,-26V0Z" 
id="f3_2a"
transform="scale(0.001,-0.001)" />

<path d="M37,274V428H473V274Z" 
id="f3_h"
transform="scale(0.001,-0.001)" />

<path d="M490,56c0,0,124,0,190,85c0,0,89,115,89,356c0,0,0,195,-61,311c0,0,-48,91,-124,124c0,0,-52,22,-172,22c-2,0,-4,0,-6,0V165c0,0,0,-62,6,-76c0,0,6,-15,20,-22c0,0,20,-11,58,-11ZM20,0V27H53c0,0,44,0,68,14c0,0,23,14,35,38c0,0,6,16,6,94V839c0,0,0,78,-8,97c0,0,-8,20,-33,34c0,0,-25,15,-68,15H20v27H472c0,0,182,0,292,-49c0,0,135,-61,205,-183c0,0,70,-123,70,-277c0,0,0,-107,-35,-197c0,0,-34,-90,-88,-148c0,0,-55,-59,-126,-94C790,64,719,28,616,9C616,9,570,0,472,0Z" 
id="f3_14"
transform="scale(0.001,-0.001)" />

<path d="M31,0V27H67c0,0,36,0,68,18c0,0,24,12,32,36c0,0,9,24,9,98V836c0,0,0,96,-19,119c0,0,-27,30,-90,30H31v27H811L822,790H792c0,0,-15,80,-34,110c0,0,-19,30,-57,46c0,0,-29,11,-105,11H319V557H541c0,0,87,0,116,26c0,0,39,35,44,121h27V352H701c0,0,-11,74,-21,95c0,0,-14,26,-45,41c0,0,-30,15,-94,15H319V168c0,0,0,-67,6,-81c0,0,6,-15,21,-24c0,0,15,-8,56,-8H574c0,0,86,0,124,12c0,0,39,12,75,47c0,0,46,46,95,139h30L811,0Z" 
id="f0_15"
transform="scale(0.001,-0.001)" />

<path d="M376,-20L133,556c0,0,-17,41,-31,58c0,0,-15,18,-39,30c0,0,-12,7,-50,13v26H335V657H314c0,0,-29,0,-44,-14c0,0,-16,-14,-15,-38c0,0,-1,-26,15,-62L429,165L588,557c0,0,17,42,17,64c0,0,0,10,-6,17c0,0,-8,11,-21,15c0,0,-13,4,-52,4v26H750V657c0,0,-39,-3,-54,-16c0,0,-26,-23,-47,-76L409,-20Z" 
id="f0_2i"
transform="scale(0.001,-0.001)" />

<path d="M292,-20c0,0,-57,0,-100,33c0,0,-42,33,-58,85c0,0,-17,52,-17,148V551c0,0,0,49,-10,68c0,0,-11,18,-31,29c0,0,-19,9,-68,9c-2,0,-4,0,-6,0v26H242V226c0,0,0,-95,33,-125c0,0,33,-30,80,-30c0,0,32,0,73,21c0,0,40,20,96,76V555c0,0,0,59,-21,80c0,0,-22,21,-89,22v26H647V269c0,0,0,-119,6,-145c0,0,6,-27,18,-37c0,0,12,-11,29,-11c0,0,23,0,52,13L763,63L558,-20H524V124C524,124,436,29,390,4c0,0,-47,-24,-98,-24Z" 
id="f0_2h"
transform="scale(0.001,-0.001)" />

<path d="M2,-20L369,1061h59L62,-20Z" 
id="f0_j"
transform="scale(0.001,-0.001)" />

<path d="M405,24c0,0,65,0,116,62c0,0,51,61,51,174c0,0,0,128,-50,221c0,0,-51,93,-144,93c0,0,-29,0,-61,-12c0,0,-33,-12,-96,-51c0,0,-14,-101,-14,-163c0,0,0,-72,27,-155c0,0,26,-84,79,-134c0,0,38,-35,92,-35ZM384,-17c0,0,-104,0,-177,68C207,51,66,185,66,397c0,0,0,136,54,258c0,0,54,122,156,217c0,0,101,95,193,128c0,0,93,33,172,33h44v-28c0,0,-99,-10,-161,-39c0,0,-62,-29,-123,-90c0,0,-61,-60,-101,-135c0,0,-39,-74,-66,-176c0,0,107,73,215,73c0,0,104,0,180,-83c0,0,76,-84,76,-215c0,0,0,-126,-77,-231c0,0,-92,-126,-244,-126Z" 
id="f0_q"
transform="scale(0.001,-0.001)" />

<path d="M379,437c0,0,34,0,81,16c0,0,47,17,83,47c0,0,14,97,14,155c0,0,0,72,-25,156c0,0,-25,83,-70,128c0,0,-45,45,-103,45c0,0,-66,0,-116,-60c0,0,-50,-59,-50,-177c0,0,0,-157,66,-246c0,0,49,-64,120,-64ZM80,-20V7c0,0,97,1,181,45c0,0,83,44,161,153c0,0,78,109,109,240c0,0,-117,-75,-212,-75c0,0,-107,0,-183,82c0,0,-76,82,-76,219c0,0,0,132,76,236c0,0,92,126,240,126c0,0,124,0,213,-103c0,0,109,-128,109,-315c0,0,0,-169,-82,-314C616,301,533,155,385,59c0,0,-120,-79,-262,-79Z" 
id="f0_t"
transform="scale(0.001,-0.001)" />

<path d="M88,-163c0,0,-39,0,-63,25c0,0,-25,26,-25,65c0,0,0,34,19,54c0,0,19,19,48,19c0,0,30,0,51,-23c0,0,22,-24,37,-24c0,0,12,0,21,11c0,0,8,10,8,35c0,0,0,30,-7,88c0,0,-27,235,-27,620c0,0,13,411,17,446c0,0,17,139,60,188c0,0,43,48,98,48c0,0,37,0,65,-25c0,0,28,-25,28,-54c0,0,0,-35,-19,-57c0,0,-20,-21,-49,-21c0,0,-26,0,-57,27c0,0,-17,15,-30,15c0,0,-12,0,-21,-11c0,0,-8,-11,-8,-37c0,0,0,-31,6,-108c0,0,28,-306,28,-496c0,0,0,-50,-12,-439c0,0,-6,-219,-67,-296c0,0,-41,-50,-101,-50Z" 
id="f2_50"
transform="scale(0.001,-0.001)" />

<path d="M25,0V26c0,0,27,4,47,19c0,0,29,22,96,111L311,346L182,535c0,0,-55,81,-86,102c0,0,-30,20,-75,20v26H341V657c0,0,-30,0,-42,-10c0,0,-13,-11,-13,-28c0,0,0,-19,27,-56c0,0,8,-12,25,-37l48,-78l56,77c0,0,55,74,55,94c0,0,0,16,0,27c0,0,0,11,0,11v26H674V657c0,0,-37,-2,-64,-20c0,0,-37,-26,-100,-111L416,402L587,156c0,0,63,-91,89,-109c0,0,27,-18,70,-21V0H423V26c0,0,34,0,53,15c0,0,14,11,14,28c0,0,0,17,-48,87L341,302L232,157c0,0,-50,-69,-50,-82c0,0,0,-18,17,-32c0,0,17,-15,50,-17V0Z" 
id="f0_2k"
transform="scale(0.001,-0.001)" />

<path d="M31,0V27H69c0,0,64,0,91,42c0,0,16,24,16,110V833c0,0,0,95,-21,119c0,0,-29,33,-86,33H31v27H488V985c0,0,-1,0,-2,0c-12,0,-81,-1,-111,-15c0,0,-32,-16,-44,-40c0,0,-12,-24,-12,-115V180c0,0,0,-62,12,-85c0,0,9,-16,27,-23c0,0,19,-7,117,-7h74c0,0,116,0,163,17c0,0,48,17,86,61c0,0,39,43,78,138l25,-6L814,0Z" 
id="f0_1c"
transform="scale(0.001,-0.001)" />

<path d="M140,-21c0,0,-26,0,-44,17C96,-4,79,13,79,40c0,0,0,19,6,33c0,0,8,20,34,55c0,0,46,60,64,126c0,0,32,114,41,321H190c0,0,-55,0,-81,-18c0,0,-44,-26,-80,-89H0c0,0,42,129,98,178c0,0,43,37,120,37H743V575H562c0,0,-27,-171,-27,-327c0,0,0,-77,27,-110c0,0,27,-33,67,-33c0,0,33,0,56,22c0,0,24,22,31,65h27C743,192,730,74,686,26c0,0,-44,-47,-98,-47c0,0,-58,0,-97,51c0,0,-39,53,-39,198c0,0,0,91,28,347H286c0,0,-23,-390,-56,-494c0,0,-33,-102,-90,-102Z" 
id="f2_2c"
transform="scale(0.001,-0.001)" />

<path d="M26,0V27H62c0,0,63,0,91,37c0,0,18,24,18,115V833c0,0,0,77,-10,102c0,0,-7,18,-30,32c0,0,-33,18,-69,18H26v27H459V985H422c0,0,-35,0,-67,-17c0,0,-23,-12,-32,-36c0,0,-9,-25,-9,-99V542H784V833c0,0,0,77,-10,102c0,0,-8,18,-31,32c0,0,-33,18,-68,18H639v27h432V985h-36c0,0,-36,0,-68,-17c0,0,-24,-12,-32,-36c0,0,-9,-25,-9,-99V179c0,0,0,-77,10,-102c0,0,7,-18,31,-32c0,0,32,-18,68,-18h36V0H639V27h36c0,0,62,0,90,37c0,0,19,24,19,115V487H314V179c0,0,0,-77,9,-102c0,0,8,-18,32,-32c0,0,32,-18,67,-18h37V0Z" 
id="f0_18"
transform="scale(0.001,-0.001)" />

<path d="M17,0V26c0,0,52,0,77,17c0,0,19,12,26,38c0,0,4,13,4,73V419c0,0,0,119,-5,142c0,0,-4,23,-17,33c0,0,-13,11,-33,11c0,0,-23,0,-52,-11l-7,26l207,83h31V549c0,0,86,154,176,154c0,0,41,0,68,-25c0,0,27,-25,27,-58c0,0,0,-29,-20,-49c0,0,-19,-20,-46,-20c0,0,-26,0,-58,25c0,0,-33,26,-48,26c0,0,-14,0,-29,-15c0,0,-34,-30,-70,-101V159c0,0,0,-56,15,-85c0,0,9,-20,34,-34c0,0,24,-14,71,-14V0Z" 
id="f0_2e"
transform="scale(0.001,-0.001)" />

<path d="M398,24c0,0,74,0,120,58c0,0,61,76,61,214c0,0,0,156,-69,240c0,0,-47,59,-113,59c0,0,-36,0,-71,-18c0,0,-27,-14,-88,-81V242c0,0,0,-83,6,-109c0,0,11,-43,51,-76c0,0,41,-33,103,-33ZM-4,-326v27H15c5,0,42,0,69,16c0,0,14,8,22,26c0,0,7,19,7,94V481c0,0,0,67,-6,85c0,0,-5,18,-18,27c0,0,-13,9,-36,9c0,0,-18,0,-45,-10L0,615l209,85h29V540c0,0,53,91,106,127c0,0,53,36,112,36c0,0,103,0,172,-80c0,0,84,-99,84,-257c0,0,0,-176,-102,-292c0,0,-83,-94,-210,-94c0,0,-55,0,-95,16c0,0,-30,10,-67,44V-167c0,0,0,-71,8,-90c0,0,9,-20,30,-31c0,0,21,-11,77,-11v-27Z" 
id="f0_2c"
transform="scale(0.001,-0.001)" />

<path d="M23,0V26c0,0,47,0,66,10c0,0,19,11,28,33c0,0,10,22,10,85V416c0,0,0,112,-7,145c0,0,-5,25,-16,34c0,0,-11,10,-31,10c0,0,-21,0,-50,-11L12,620l207,83h32V557c0,0,75,75,88,86c0,0,34,29,72,44c0,0,39,16,77,16c0,0,64,0,110,-37c0,0,47,-38,62,-109c0,0,77,90,130,118c0,0,53,28,109,28c0,0,54,0,96,-28c0,0,42,-28,67,-91c0,0,16,-43,16,-136V154c0,0,0,-64,10,-88c0,0,8,-16,28,-28c0,0,20,-12,65,-12V0H844V26h14c0,0,44,0,69,18c0,0,17,12,24,38c0,0,3,13,3,72V448c0,0,0,83,-20,117c0,0,-29,48,-93,48c0,0,-39,0,-79,-20c0,0,-40,-19,-97,-73l-1,-8l2,-32V154c0,0,0,-70,8,-87c0,0,7,-17,29,-29c0,0,21,-12,73,-12V0H431V26c0,0,57,0,78,14c0,0,21,13,29,40c0,0,4,13,4,74V448c0,0,0,83,-25,120c0,0,-33,48,-91,48c0,0,-40,0,-80,-22c0,0,-61,-33,-95,-74V154c0,0,0,-67,10,-87c0,0,9,-20,27,-30c0,0,18,-11,74,-11V0Z" 
id="f0_29"
transform="scale(0.001,-0.001)" />

<path d="M62,286V399H448V286Z" 
id="f0_h"
transform="scale(0.001,-0.001)" />

<path d="M411,-239c0,0,134,0,198,48c0,0,64,47,64,100c0,0,0,39,-38,55c0,0,-39,16,-154,19c0,0,-167,5,-258,17c0,0,-35,-37,-53,-70c0,0,-17,-32,-17,-60c0,0,0,-36,43,-62c0,0,74,-47,215,-47ZM380,257c0,0,56,0,93,43c0,0,36,42,36,133c0,0,0,118,-51,185c0,0,-38,49,-98,49c0,0,-55,0,-92,-44c0,0,-37,-44,-37,-135c0,0,0,-117,50,-182c0,0,39,-49,99,-49ZM345,-328c0,0,-144,0,-243,64c0,0,-56,38,-56,78c0,0,0,18,8,36c0,0,13,27,52,76c0,0,5,7,76,80c0,0,-39,23,-55,41c0,0,-16,19,-16,42c0,0,0,26,22,61c0,0,21,35,98,100c0,0,-63,30,-97,85c0,0,-33,55,-33,121c0,0,0,101,76,174c0,0,77,73,196,73c0,0,98,0,170,-48H688c0,0,32,0,37,-2c0,0,6,-2,8,-6c0,0,4,-7,4,-24c0,0,0,-20,-4,-27c0,0,-2,-4,-7,-6c0,0,-6,-2,-38,-2H599c0,0,41,-54,41,-137c0,0,0,-96,-73,-163c0,0,-73,-68,-196,-68c0,0,-51,0,-104,15c0,0,-33,-28,-44,-49c0,0,-12,-22,-12,-37c0,0,0,-12,13,-24c0,0,12,-12,48,-17c0,0,21,-4,104,-6c0,0,154,-4,199,-11c0,0,70,-10,111,-51c0,0,42,-41,42,-102c0,0,0,-84,-79,-158c0,0,-117,-108,-304,-108Z" 
id="f0_23"
transform="scale(0.001,-0.001)" />

<path d="M435,0V856c0,0,-48,-47,-127,-93c0,0,-79,-46,-142,-69V824c0,0,113,52,197,128c0,0,85,75,120,146h86V0Z" 
id="f6_l"
transform="scale(0.001,-0.001)" />

<path d="M415,-18c0,0,-149,0,-244,83c0,0,-94,84,-107,222l140,11c0,0,16,-103,73,-154c0,0,56,-52,137,-52c0,0,98,0,165,73c0,0,66,73,66,194c0,0,0,115,-64,182c0,0,-64,66,-169,66c0,0,-65,0,-117,-29c0,0,-52,-30,-82,-77L87,517l106,562H736V951H300L241,657c0,0,99,69,207,69c0,0,143,0,242,-100c0,0,98,-99,98,-255c0,0,0,-149,-86,-257C702,114,597,-18,415,-18Z" 
id="f6_p"
transform="scale(0.001,-0.001)" />


</defs>
</svg>