<?xml version="1.0" encoding="UTF-8" standalone="no"?>
<!DOCTYPE svg PUBLIC "-//W3C//DTD SVG 1.1//EN"
"http://www.w3.org/Graphics/SVG/1.1/DTD/svg11.dtd">
<svg viewBox="0 0 909 1286" version="1.1" xmlns="http://www.w3.org/2000/svg" xmlns:xlink="http://www.w3.org/1999/xlink">
<defs>
<clipPath id="c0_76"><path d="M55.2,427V407.4H79.1V427Z" /></clipPath>
<clipPath id="c1_76"><path d="M55.2,454.5V428.7H187.6v25.8Z" /></clipPath>
<clipPath id="c2_76"><path d="M55.2,505.4V456.6H308.8v48.8Z" /></clipPath>
<clipPath id="c3_76"><path d="M55.2,532.9V507.2H207.6v25.7Z" /></clipPath>
<clipPath id="c4_76"><path d="M55.2,561.2V535.3h76v25.9Z" /></clipPath>
<clipPath id="c5_76"><path d="M55.2,622.4v-59H209.4v59Z" /></clipPath>
<clipPath id="c6_76"><path d="M55.2,673V624.2H280.5V673Z" /></clipPath>
<clipPath id="c7_76"><path d="M55.2,723.6V674.8H273.6v48.8Z" /></clipPath>
<clipPath id="c8_76"><path d="M55.2,751.1V725.3H216.3v25.8Z" /></clipPath>
<clipPath id="c9_76"><path d="M55.2,788.5V768.9H79.1v19.6Z" /></clipPath>
<clipPath id="c10_76"><path d="M249.9,802.1V753.3h46.3v48.8Z" /></clipPath>
<clipPath id="c11_76"><path d="M55.2,855.3V803.9h193v51.4Z" /></clipPath>
<clipPath id="c12_76"><path d="M55.2,919.4V857.6H284.7v61.8Z" /></clipPath>
<clipPath id="c13_76"><path d="M55.2,956.4V936.8H79.1v19.6Z" /></clipPath>
<clipPath id="c14_76"><path d="M251,970V921.2h19.3V970Z" /></clipPath>
<clipPath id="c15_76"><path d="M83.8,1001.9V971.7H261v30.2Z" /></clipPath>
<clipPath id="c16_76"><path d="M55.2,1061.3v-57.5H213.7v57.5Z" /></clipPath>
<clipPath id="c17_76"><path d="M55.2,1114.8v-51.3H161.4v51.3Z" /></clipPath>
<clipPath id="c18_76"><path d="M55.2,1190v-48.8H271.8V1190Z" /></clipPath>
<style type="text/css"><![CDATA[
.g0_76{
fill: #D9D9D9;
}
.g1_76{
fill: none;
stroke: #000000;
stroke-width: 0.7638889;
stroke-linecap: butt;
stroke-linejoin: miter;
}
.g2_76{
fill: none;
stroke: #000000;
stroke-width: 0.90994245;
stroke-linecap: butt;
stroke-linejoin: round;
}
.g3_76{
fill: none;
stroke: #000000;
stroke-width: 0.90602696;
stroke-linecap: butt;
stroke-linejoin: round;
}
.g4_76{
fill: none;
stroke: #000000;
stroke-width: 0.9090056;
stroke-linecap: butt;
stroke-linejoin: round;
}
.g5_76{
fill: none;
stroke: #000000;
stroke-width: 0.8943053;
stroke-linecap: butt;
stroke-linejoin: round;
}
.g6_76{
fill: none;
stroke: #000000;
stroke-width: 0.9105527;
stroke-linecap: butt;
stroke-linejoin: round;
}
.g7_76{
fill: none;
stroke: #000000;
stroke-width: 0.90489566;
stroke-linecap: butt;
stroke-linejoin: round;
}
.g8_76{
fill: none;
stroke: #000000;
stroke-width: 0.9287289;
stroke-linecap: butt;
stroke-linejoin: round;
}
.g9_76{
fill: none;
stroke: #000000;
stroke-width: 0.9048006;
stroke-linecap: butt;
stroke-linejoin: round;
}
.g10_76{
fill: none;
stroke: #000000;
stroke-width: 0.90877813;
stroke-linecap: butt;
stroke-linejoin: round;
}
.g11_76{
fill: none;
stroke: #000000;
stroke-width: 0.9078009;
stroke-linecap: butt;
stroke-linejoin: round;
}
.g12_76{
}
]]></style>
</defs>
<image preserveAspectRatio="none" x="747" y="1196" width="96" height="59" xlink:href="img/1.png" />
<image preserveAspectRatio="none" x="336" y="41" width="259" height="51" xlink:href="img/2.png" />
<image preserveAspectRatio="none" x="342" y="50" width="247" height="27" xlink:href="img/3.png" />
<image preserveAspectRatio="none" x="341" y="45" width="239" height="42" xlink:href="img/4.png" />
<g fill="#FFFFFF" >
<use xlink:href="#f0_j" transform="matrix(11.5,0,0,11.5,355.1,70.1)" />
<use xlink:href="#f0_i" transform="matrix(11.5,0,0,11.5,364.3,70.1)" />
<use xlink:href="#f0_2n" transform="matrix(11.5,0,0,11.5,374.1,70.1)" />
<use xlink:href="#f0_t" transform="matrix(11.5,0,0,11.5,382.6,70.1)" />
<use xlink:href="#f0_oj" transform="matrix(11.5,0,0,11.5,391,70.1)" />
<use xlink:href="#f0_3e" transform="matrix(11.5,0,0,11.5,396.5,70.1)" />
<use xlink:href="#f0_1c" transform="matrix(11.5,0,0,11.5,406.1,70.1)" />
<use xlink:href="#f0_1c" transform="matrix(11.5,0,0,11.5,410.8,70.1)" />
<use xlink:href="#f0_oj" transform="matrix(11.5,0,0,11.5,415.6,70.1)" />
<use xlink:href="#f0_rz" transform="matrix(11.5,0,0,11.5,421.1,70.1)" />
<use xlink:href="#f0_rx" transform="matrix(11.5,0,0,11.5,429.9,70.1)" />
<use xlink:href="#f0_ry" transform="matrix(11.5,0,0,11.5,438.7,70.1)" />
<use xlink:href="#f0_s3" transform="matrix(11.5,0,0,11.5,447.5,70.1)" />
<use xlink:href="#f0_t" transform="matrix(11.5,0,0,11.5,460.4,70.1)" />
<use xlink:href="#f0_3e" transform="matrix(11.5,0,0,11.5,468.8,70.1)" />
<use xlink:href="#f0_5" transform="matrix(11.5,0,0,11.5,478.3,70.1)" />
<use xlink:href="#f0_1x" transform="matrix(11.5,0,0,11.5,489,70.1)" />
<use xlink:href="#f0_1c" transform="matrix(11.5,0,0,11.5,504.4,70.1)" />
<use xlink:href="#f0_1y" transform="matrix(11.5,0,0,11.5,509.1,70.1)" />
<use xlink:href="#f0_5" transform="matrix(11.5,0,0,11.5,520.8,70.1)" />
<use xlink:href="#f0_2t" transform="matrix(11.5,0,0,11.5,531.5,70.1)" />
<use xlink:href="#f0_1c" transform="matrix(11.5,0,0,11.5,540.2,70.1)" />
<use xlink:href="#f0_24" transform="matrix(11.5,0,0,11.5,545,70.1)" />
<use xlink:href="#f0_1y" transform="matrix(11.5,0,0,11.5,556.7,70.1)" />
</g>
<image preserveAspectRatio="none" x="554" y="45" width="36" height="42" xlink:href="img/5.png" />
<g fill="#FFFFFF" >
<use xlink:href="#f1_l" transform="matrix(11,0,0,11,770.3,1227.6)" />
<use xlink:href="#f1_n" transform="matrix(11,0,0,11,779.1,1227.6)" />
<use xlink:href="#f1_j" transform="matrix(11,0,0,11,792.3,1227.6)" />
<use xlink:href="#f1_l" transform="matrix(11,0,0,11,802.9,1227.6)" />
<use xlink:href="#f1_r" transform="matrix(11,0,0,11,811.7,1227.6)" />
</g>
<path fill-rule="evenodd" d="M52.8,1193.5H856.9v-.8H52.8v.8Z" class="g0_76" />
<path d="M37.9,99.4L873,98.5" class="g1_76" />
<g clip-path="url(#c0_76)">
<g fill="#000000" >
<use xlink:href="#f2_4g" transform="matrix(12.4,0,0,12.3,57.4,422.5)" />
</g>
</g>
<g fill="#000000" >
<use xlink:href="#f3_1f" transform="matrix(12,0,0,12,82.9,422.1)" />
<use xlink:href="#f3_14" transform="matrix(12,0,0,12,96.1,422.1)" />
<use xlink:href="#f3_x" transform="matrix(12,0,0,12,114.1,422.1)" />
<use xlink:href="#f3_24" transform="matrix(12,0,0,12,129.1,422.1)" />
<use xlink:href="#f4_4y" transform="matrix(12,0,0,12,142.7,422.1)" />
<use xlink:href="#f3_2k" transform="matrix(12,0,0,12,156.6,422.1)" />
</g>
<g clip-path="url(#c1_76)">
<g fill="#000000" >
<use xlink:href="#f3_2q" transform="matrix(13,0,0,12.3,121.3,446.9)" />
<use xlink:href="#f5_1f" transform="matrix(13,0,0,12.3,77.5,446.9)" />
<use xlink:href="#f5_14" transform="matrix(13,0,0,12.3,90.6,446.9)" />
<use xlink:href="#f5_13" transform="matrix(13,0,0,12.3,103.8,446.9)" />
<use xlink:href="#f5_1f" transform="matrix(13,0,0,12.3,147.2,446.9)" />
<use xlink:href="#f5_11" transform="matrix(13,0,0,12.3,160.4,446.9)" />
<use xlink:href="#f5_12" transform="matrix(13,0,0,12.3,171.5,446.9)" />
<use xlink:href="#f2_14" transform="matrix(13,0,0,12.3,136.1,446.9)" />
</g>
</g>
<image preserveAspectRatio="none" x="55" y="426" width="73" height="32" xlink:href="img/6.png" />
<path d="M85.5,482.6h37.7m19.9,0h26m27.2,0h37.8m19.8,0H304" class="g2_76" />
<g clip-path="url(#c2_76)">
<g fill="#000000" >
<use xlink:href="#f3_2g" transform="matrix(12.7,0,0,12.4,266.7,501.9)" />
<use xlink:href="#f3_1x" transform="matrix(12.7,0,0,12.4,271.8,501.9)" />
<use xlink:href="#f3_2a" transform="matrix(12.7,0,0,12.4,279.8,501.9)" />
<use xlink:href="#f5_24" transform="matrix(12.7,0,0,12.4,86.6,475.3)" />
<use xlink:href="#f5_2k" transform="matrix(12.7,0,0,12.4,114,475.3)" />
<use xlink:href="#f5_1i" transform="matrix(12.7,0,0,12.4,150.7,475.3)" />
<use xlink:href="#f5_24" transform="matrix(12.7,0,0,12.4,197.4,475.3)" />
<use xlink:href="#f5_2k" transform="matrix(12.7,0,0,12.4,224.9,475.3)" />
<use xlink:href="#f5_1i" transform="matrix(12.7,0,0,12.4,273.6,475.3)" />
<use xlink:href="#f5_24" transform="matrix(12.7,0,0,12.4,99.9,501.9)" />
<use xlink:href="#f5_11" transform="matrix(12.7,0,0,12.4,145.6,501.9)" />
<use xlink:href="#f5_12" transform="matrix(12.7,0,0,12.4,156.7,501.9)" />
<use xlink:href="#f5_24" transform="matrix(12.7,0,0,12.4,210.7,501.9)" />
<use xlink:href="#f5_24" transform="matrix(12.7,0,0,12.4,255,501.9)" />
<use xlink:href="#f2_h" transform="matrix(12.7,0,0,12.4,99.5,475.3)" />
<use xlink:href="#f2_h" transform="matrix(12.7,0,0,12.4,210.3,475.3)" />
<use xlink:href="#f2_4g" transform="matrix(12.7,0,0,12.4,57.4,487.2)" />
<use xlink:href="#f2_x" transform="matrix(12.7,0,0,12.4,128.3,487.2)" />
<use xlink:href="#f2_4g" transform="matrix(12.7,0,0,12.4,173.5,487.2)" />
<use xlink:href="#f2_x" transform="matrix(12.7,0,0,12.4,239,487.2)" />
<use xlink:href="#f2_1x" transform="matrix(12.7,0,0,12.4,291.4,501.9)" />
</g>
</g>
<g clip-path="url(#c3_76)">
<g fill="#000000" >
<use xlink:href="#f3_c" transform="matrix(13,0,0,12.3,116.3,525.4)" />
<use xlink:href="#f3_d" transform="matrix(13,0,0,12.3,159.2,525.4)" />
<use xlink:href="#f3_2g" transform="matrix(13,0,0,12.3,167.7,525.4)" />
<use xlink:href="#f3_1x" transform="matrix(13,0,0,12.3,172.9,525.4)" />
<use xlink:href="#f3_2a" transform="matrix(13,0,0,12.3,180.9,525.4)" />
<use xlink:href="#f5_1i" transform="matrix(13,0,0,12.3,86,525.4)" />
<use xlink:href="#f5_24" transform="matrix(13,0,0,12.3,122.9,525.4)" />
<use xlink:href="#f5_2k" transform="matrix(13,0,0,12.3,150.5,525.4)" />
<use xlink:href="#f2_4g" transform="matrix(13,0,0,12.3,57.4,525.4)" />
<use xlink:href="#f2_x" transform="matrix(13,0,0,12.3,102,525.4)" />
<use xlink:href="#f2_h" transform="matrix(13,0,0,12.3,135.9,525.4)" />
<use xlink:href="#f2_1x" transform="matrix(13,0,0,12.3,192.6,525.4)" />
</g>
</g>
<g clip-path="url(#c4_76)">
<g fill="#000000" >
<use xlink:href="#f3_m" transform="matrix(7.4,0,0,7.2,111.1,548.4)" />
<use xlink:href="#f5_1m" transform="matrix(12.8,0,0,12.4,56.2,556.7)" />
<use xlink:href="#f5_1i" transform="matrix(12.8,0,0,12.4,98.8,556.7)" />
<use xlink:href="#f5_2k" transform="matrix(12.8,0,0,12.4,117.9,556.7)" />
<use xlink:href="#f2_x" transform="matrix(12.8,0,0,12.4,74.5,556.7)" />
<use xlink:href="#f2_2c" transform="matrix(12.8,0,0,12.4,89.1,556.7)" />
</g>
</g>
<g clip-path="url(#c5_76)">
<g fill="#000000" >
<use xlink:href="#f3_m" transform="matrix(7.3,0,0,7.1,132.4,576.7)" />
<use xlink:href="#f3_m" transform="matrix(7.3,0,0,7.1,165.7,576.7)" />
<use xlink:href="#f3_m" transform="matrix(7.3,0,0,7.1,108.7,606.6)" />
<use xlink:href="#f3_m" transform="matrix(7.3,0,0,7.1,179.4,606.6)" />
<use xlink:href="#f3_c" transform="matrix(12.6,0,0,12.3,82.7,584.9)" />
<use xlink:href="#f3_d" transform="matrix(12.6,0,0,12.3,125.6,584.9)" />
<use xlink:href="#f3_2g" transform="matrix(12.6,0,0,12.3,141.8,584.9)" />
<use xlink:href="#f3_1x" transform="matrix(12.6,0,0,12.3,147,584.9)" />
<use xlink:href="#f3_2a" transform="matrix(12.6,0,0,12.3,155,584.9)" />
<use xlink:href="#f3_2g" transform="matrix(12.6,0,0,12.3,84.9,614.9)" />
<use xlink:href="#f3_1x" transform="matrix(12.6,0,0,12.3,90.1,614.9)" />
<use xlink:href="#f3_2a" transform="matrix(12.6,0,0,12.3,98.2,614.9)" />
<use xlink:href="#f3_c" transform="matrix(12.6,0,0,12.3,129.6,614.9)" />
<use xlink:href="#f3_d" transform="matrix(12.6,0,0,12.3,172.6,614.9)" />
<use xlink:href="#f5_24" transform="matrix(12.6,0,0,12.3,89.3,584.9)" />
<use xlink:href="#f5_2k" transform="matrix(12.6,0,0,12.3,117,584.9)" />
<use xlink:href="#f5_2k" transform="matrix(12.6,0,0,12.3,197.5,584.9)" />
<use xlink:href="#f5_24" transform="matrix(12.6,0,0,12.3,136.3,614.9)" />
<use xlink:href="#f5_2k" transform="matrix(12.6,0,0,12.3,163.9,614.9)" />
<use xlink:href="#f5_2k" transform="matrix(12.6,0,0,12.3,187.7,614.9)" />
<use xlink:href="#f2_x" transform="matrix(12.6,0,0,12.3,58,584.9)" />
<use xlink:href="#f2_2c" transform="matrix(12.6,0,0,12.3,72.6,584.9)" />
<use xlink:href="#f2_h" transform="matrix(12.6,0,0,12.3,102.3,584.9)" />
<use xlink:href="#f2_1x" transform="matrix(12.6,0,0,12.3,174.4,584.9)" />
<use xlink:href="#f2_49" transform="matrix(12.6,0,0,12.3,189.1,584.9)" />
<use xlink:href="#f2_x" transform="matrix(12.6,0,0,12.3,58,614.9)" />
<use xlink:href="#f2_2c" transform="matrix(12.6,0,0,12.3,72.6,614.9)" />
<use xlink:href="#f2_1x" transform="matrix(12.6,0,0,12.3,117.5,614.9)" />
<use xlink:href="#f2_h" transform="matrix(12.6,0,0,12.3,149.2,614.9)" />
</g>
</g>
<path d="M58.2,650.2h25" class="g3_76" />
<g clip-path="url(#c6_76)">
<g fill="#000000" >
<use xlink:href="#f3_m" transform="matrix(7.3,0,0,7.1,138.8,646.5)" />
<use xlink:href="#f3_m" transform="matrix(7.3,0,0,7.1,176.2,646.5)" />
<use xlink:href="#f3_m" transform="matrix(7.3,0,0,7.1,263.6,646.5)" />
<use xlink:href="#f3_2g" transform="matrix(12.7,0,0,12.4,115.1,654.8)" />
<use xlink:href="#f3_1x" transform="matrix(12.7,0,0,12.4,120.3,654.8)" />
<use xlink:href="#f3_2a" transform="matrix(12.7,0,0,12.4,128.3,654.8)" />
<use xlink:href="#f3_c" transform="matrix(12.7,0,0,12.4,159.7,654.8)" />
<use xlink:href="#f3_o" transform="matrix(12.7,0,0,12.4,200.6,654.8)" />
<use xlink:href="#f3_n" transform="matrix(12.7,0,0,12.4,244.8,654.8)" />
<use xlink:href="#f3_d" transform="matrix(12.7,0,0,12.4,270.8,654.8)" />
<use xlink:href="#f5_20" transform="matrix(12.7,0,0,12.4,59.4,642.9)" />
<use xlink:href="#f5_1m" transform="matrix(12.7,0,0,12.4,68.6,642.9)" />
<use xlink:href="#f5_24" transform="matrix(12.7,0,0,12.4,166.3,654.8)" />
<use xlink:href="#f5_24" transform="matrix(12.7,0,0,12.4,210.1,654.8)" />
<use xlink:href="#f5_2k" transform="matrix(12.7,0,0,12.4,219.2,654.8)" />
<use xlink:href="#f5_2k" transform="matrix(12.7,0,0,12.4,254.6,654.8)" />
<use xlink:href="#f5_20" transform="matrix(12.7,0,0,12.4,62.1,669.5)" />
<use xlink:href="#f5_2k" transform="matrix(12.7,0,0,12.4,71.3,669.5)" />
<use xlink:href="#f2_x" transform="matrix(12.7,0,0,12.4,88.3,654.8)" />
<use xlink:href="#f2_2c" transform="matrix(12.7,0,0,12.4,102.8,654.8)" />
<use xlink:href="#f2_1x" transform="matrix(12.7,0,0,12.4,147.6,654.8)" />
<use xlink:href="#f2_h" transform="matrix(12.7,0,0,12.4,186.7,654.8)" />
<use xlink:href="#f2_f" transform="matrix(12.7,0,0,12.4,231.2,654.8)" />
</g>
</g>
<path d="M58.3,700.7h25" class="g4_76" />
<g clip-path="url(#c7_76)">
<g fill="#000000" >
<use xlink:href="#f3_m" transform="matrix(7.3,0,0,7.1,148.1,697.1)" />
<use xlink:href="#f3_m" transform="matrix(7.3,0,0,7.1,235.7,697.1)" />
<use xlink:href="#f3_k" transform="matrix(12.7,0,0,12.4,102.6,705.4)" />
<use xlink:href="#f3_o" transform="matrix(12.7,0,0,12.4,172.5,705.4)" />
<use xlink:href="#f3_n" transform="matrix(12.7,0,0,12.4,216.8,705.4)" />
<use xlink:href="#f3_k" transform="matrix(12.7,0,0,12.4,261.3,705.4)" />
<use xlink:href="#f5_20" transform="matrix(12.7,0,0,12.4,59.4,693.5)" />
<use xlink:href="#f5_1m" transform="matrix(12.7,0,0,12.4,68.6,693.5)" />
<use xlink:href="#f5_24" transform="matrix(12.7,0,0,12.4,138.1,705.4)" />
<use xlink:href="#f5_24" transform="matrix(12.7,0,0,12.4,182,705.4)" />
<use xlink:href="#f5_2k" transform="matrix(12.7,0,0,12.4,191.2,705.4)" />
<use xlink:href="#f5_2k" transform="matrix(12.7,0,0,12.4,226.5,705.4)" />
<use xlink:href="#f5_20" transform="matrix(12.7,0,0,12.4,62.2,720.1)" />
<use xlink:href="#f5_2k" transform="matrix(12.7,0,0,12.4,71.4,720.1)" />
<use xlink:href="#f2_x" transform="matrix(12.7,0,0,12.4,88.4,705.4)" />
<use xlink:href="#f2_4g" transform="matrix(12.7,0,0,12.4,115.5,705.4)" />
<use xlink:href="#f2_h" transform="matrix(12.7,0,0,12.4,158.7,705.4)" />
<use xlink:href="#f2_f" transform="matrix(12.7,0,0,12.4,203.2,705.4)" />
<use xlink:href="#f2_x" transform="matrix(12.7,0,0,12.4,247,705.4)" />
</g>
</g>
<g clip-path="url(#c8_76)">
<g fill="#000000" >
<use xlink:href="#f3_c" transform="matrix(13,0,0,12.3,79.7,743.6)" />
<use xlink:href="#f3_d" transform="matrix(13,0,0,12.3,122.5,743.6)" />
<use xlink:href="#f3_c" transform="matrix(13,0,0,12.3,128.5,743.6)" />
<use xlink:href="#f3_n" transform="matrix(13,0,0,12.3,161.3,743.6)" />
<use xlink:href="#f3_d" transform="matrix(13,0,0,12.3,179.7,743.6)" />
<use xlink:href="#f3_k" transform="matrix(13,0,0,12.3,204.4,743.6)" />
<use xlink:href="#f5_24" transform="matrix(13,0,0,12.3,86.3,743.6)" />
<use xlink:href="#f5_2k" transform="matrix(13,0,0,12.3,113.9,743.6)" />
<use xlink:href="#f5_24" transform="matrix(13,0,0,12.3,135.1,743.6)" />
<use xlink:href="#f5_2k" transform="matrix(13,0,0,12.3,171,743.6)" />
<use xlink:href="#f2_4g" transform="matrix(13,0,0,12.3,57.4,743.6)" />
<use xlink:href="#f2_h" transform="matrix(13,0,0,12.3,99.3,743.6)" />
<use xlink:href="#f2_h" transform="matrix(13,0,0,12.3,148.1,743.6)" />
<use xlink:href="#f2_x" transform="matrix(13,0,0,12.3,190.2,743.6)" />
</g>
</g>
<g clip-path="url(#c9_76)">
<g fill="#000000" >
<use xlink:href="#f2_4g" transform="matrix(12.4,0,0,12.3,57.4,784)" />
</g>
</g>
<g fill="#000000" >
<use xlink:href="#f3_2k" transform="matrix(12,0,0,12,82.9,783.8)" />
<use xlink:href="#f3_x" transform="matrix(12,0,0,12,96.5,783.8)" />
<use xlink:href="#f3_24" transform="matrix(12,0,0,12,111.5,783.8)" />
<use xlink:href="#f3_c" transform="matrix(12,0,0,12,125,783.8)" />
<use xlink:href="#f3_2a" transform="matrix(12,0,0,12,131.2,783.8)" />
<use xlink:href="#f3_2b" transform="matrix(12,0,0,12,140,783.8)" />
<use xlink:href="#f3_2g" transform="matrix(12,0,0,12,149.5,783.8)" />
<use xlink:href="#f3_2c" transform="matrix(12,0,0,12,159.4,783.8)" />
<use xlink:href="#f3_2b" transform="matrix(12,0,0,12,168.2,783.8)" />
<use xlink:href="#f3_2f" transform="matrix(12,0,0,12,177.7,783.8)" />
<use xlink:href="#f3_2f" transform="matrix(12,0,0,12,184.7,783.8)" />
<use xlink:href="#f3_25" transform="matrix(12,0,0,12,192,783.8)" />
<use xlink:href="#f3_1y" transform="matrix(12,0,0,12,196.8,783.8)" />
<use xlink:href="#f3_28" transform="matrix(12,0,0,12,206,783.8)" />
<use xlink:href="#f3_21" transform="matrix(12,0,0,12,210.7,783.8)" />
<use xlink:href="#f3_d" transform="matrix(12,0,0,12,218.8,783.8)" />
<use xlink:href="#f3_2b" transform="matrix(12,0,0,12,229.8,783.8)" />
<use xlink:href="#f3_2e" transform="matrix(12,0,0,12,239.3,783.8)" />
</g>
<path d="M280.8,779.3h11.1" class="g5_76" />
<g clip-path="url(#c10_76)">
<g fill="#000000" >
<use xlink:href="#f3_n" transform="matrix(12.5,0,0,12.4,282.1,798.6)" />
<use xlink:href="#f5_24" transform="matrix(12.5,0,0,12.4,282,772)" />
<use xlink:href="#f5_2k" transform="matrix(12.5,0,0,12.4,253.5,783.9)" />
<use xlink:href="#f2_x" transform="matrix(12.5,0,0,12.4,266.2,783.9)" />
</g>
</g>
<path d="M58.3,832.6H89.9" class="g6_76" />
<g clip-path="url(#c11_76)">
<g fill="#000000" >
<use xlink:href="#f3_m" transform="matrix(7.3,0,0,7.1,71,817.2)" />
<use xlink:href="#f3_m" transform="matrix(7.3,0,0,7.1,145.4,829)" />
<use xlink:href="#f3_m" transform="matrix(7.3,0,0,7.1,79.9,843.6)" />
<use xlink:href="#f3_2g" transform="matrix(12.7,0,0,12.2,121.8,837.3)" />
<use xlink:href="#f3_1x" transform="matrix(12.7,0,0,12.2,126.9,837.3)" />
<use xlink:href="#f3_2a" transform="matrix(12.7,0,0,12.2,135,837.3)" />
<use xlink:href="#f3_c" transform="matrix(12.7,0,0,12.2,166.2,837.3)" />
<use xlink:href="#f3_o" transform="matrix(12.7,0,0,12.2,182.8,837.3)" />
<use xlink:href="#f3_q" transform="matrix(12.7,0,0,12.2,219,837.3)" />
<use xlink:href="#f3_d" transform="matrix(12.7,0,0,12.2,237.9,837.3)" />
<use xlink:href="#f5_20" transform="matrix(12.7,0,0,12.2,59.4,825.5)" />
<use xlink:href="#f5_1m" transform="matrix(12.7,0,0,12.2,75.3,825.5)" />
<use xlink:href="#f5_24" transform="matrix(12.7,0,0,12.2,192.4,837.3)" />
<use xlink:href="#f5_2k" transform="matrix(12.7,0,0,12.2,229.4,837.3)" />
<use xlink:href="#f5_20" transform="matrix(12.7,0,0,12.2,61.7,851.9)" />
<use xlink:href="#f5_2k" transform="matrix(12.7,0,0,12.2,70.9,851.9)" />
<use xlink:href="#f2_x" transform="matrix(12.7,0,0,12.2,95,837.3)" />
<use xlink:href="#f2_2c" transform="matrix(12.7,0,0,12.2,109.5,837.3)" />
<use xlink:href="#f2_1x" transform="matrix(12.7,0,0,12.2,154.2,837.3)" />
<use xlink:href="#f2_h" transform="matrix(12.7,0,0,12.2,172.8,837.3)" />
<use xlink:href="#f2_f" transform="matrix(12.7,0,0,12.2,205.2,837.3)" />
</g>
</g>
<path d="M67.2,887.7H99" class="g7_76" />
<g clip-path="url(#c12_76)">
<g fill="#000000" >
<use xlink:href="#f3_m" transform="matrix(7.3,0,0,7.1,80,872.3)" />
<use xlink:href="#f3_m" transform="matrix(7.3,0,0,7.1,191.3,884.1)" />
<use xlink:href="#f3_m" transform="matrix(7.3,0,0,7.1,88.9,898.7)" />
<use xlink:href="#f3_j" transform="matrix(7.3,0,0,7.1,127.3,913.5)" />
<use xlink:href="#f3_n" transform="matrix(7.3,0,0,7.1,129.8,913.5)" />
<use xlink:href="#f3_2g" transform="matrix(12.5,0,0,12.2,167.6,892.3)" />
<use xlink:href="#f3_1x" transform="matrix(12.5,0,0,12.2,172.8,892.3)" />
<use xlink:href="#f3_2a" transform="matrix(12.5,0,0,12.2,180.8,892.3)" />
<use xlink:href="#f3_c" transform="matrix(12.5,0,0,12.2,212.1,892.3)" />
<use xlink:href="#f3_m" transform="matrix(12.5,0,0,12.2,228.7,892.3)" />
<use xlink:href="#f3_d" transform="matrix(12.5,0,0,12.2,247.6,892.3)" />
<use xlink:href="#f3_k" transform="matrix(12.5,0,0,12.2,272.1,892.3)" />
<use xlink:href="#f5_2k" transform="matrix(7.3,0,0,7.1,109.7,913.5)" />
<use xlink:href="#f5_24" transform="matrix(7.3,0,0,7.1,122.3,913.5)" />
<use xlink:href="#f5_20" transform="matrix(12.5,0,0,12.2,68.4,880.5)" />
<use xlink:href="#f5_1m" transform="matrix(12.5,0,0,12.2,84.3,880.5)" />
<use xlink:href="#f5_24" transform="matrix(12.5,0,0,12.2,238.2,892.3)" />
<use xlink:href="#f5_20" transform="matrix(12.5,0,0,12.2,70.7,906.9)" />
<use xlink:href="#f5_2k" transform="matrix(12.5,0,0,12.2,79.9,906.9)" />
<use xlink:href="#f2_x" transform="matrix(7.3,0,0,7.1,115.5,913.5)" />
<use xlink:href="#f2_4o" transform="matrix(12.5,0,0,12.2,57.4,879.7)" />
<use xlink:href="#f2_54" transform="matrix(12.5,0,0,12.2,101.6,879.7)" />
<use xlink:href="#f2_x" transform="matrix(12.5,0,0,12.2,140.8,892.3)" />
<use xlink:href="#f2_2c" transform="matrix(12.5,0,0,12.2,155.4,892.3)" />
<use xlink:href="#f2_1x" transform="matrix(12.5,0,0,12.2,200.1,892.3)" />
<use xlink:href="#f2_h" transform="matrix(12.5,0,0,12.2,218.7,892.3)" />
<use xlink:href="#f2_w" transform="matrix(12.5,0,0,12.2,257.9,892.3)" />
<use xlink:href="#f2_4p" transform="matrix(12.5,0,0,12.2,57.4,896.6)" />
<use xlink:href="#f2_55" transform="matrix(12.5,0,0,12.2,101.6,896.6)" />
<use xlink:href="#f2_4q" transform="matrix(12.5,0,0,12.2,57.4,911.3)" />
<use xlink:href="#f2_56" transform="matrix(12.5,0,0,12.2,101.6,911.3)" />
</g>
</g>
<g clip-path="url(#c13_76)">
<g fill="#000000" >
<use xlink:href="#f2_4g" transform="matrix(12.4,0,0,12.3,57.4,951.9)" />
</g>
</g>
<g fill="#000000" >
<use xlink:href="#f3_1m" transform="matrix(12,0,0,12,82.9,951.8)" />
<use xlink:href="#f3_25" transform="matrix(12,0,0,12,100.9,951.8)" />
<use xlink:href="#f3_2f" transform="matrix(12,0,0,12,105.3,951.8)" />
<use xlink:href="#f3_29" transform="matrix(12,0,0,12,117.3,951.8)" />
<use xlink:href="#f3_1x" transform="matrix(12,0,0,12,131.3,951.8)" />
<use xlink:href="#f3_2k" transform="matrix(12,0,0,12,139.7,951.8)" />
<use xlink:href="#f3_25" transform="matrix(12,0,0,12,148.8,951.8)" />
<use xlink:href="#f3_29" transform="matrix(12,0,0,12,153.9,951.8)" />
<use xlink:href="#f3_2h" transform="matrix(12,0,0,12,167.9,951.8)" />
<use xlink:href="#f3_29" transform="matrix(12,0,0,12,177.4,951.8)" />
<use xlink:href="#f3_22" transform="matrix(12,0,0,12,196.1,951.8)" />
<use xlink:href="#f3_2b" transform="matrix(12,0,0,12,201.6,951.8)" />
<use xlink:href="#f3_2e" transform="matrix(12,0,0,12,211.1,951.8)" />
<use xlink:href="#f3_2k" transform="matrix(12,0,0,12,222.1,951.8)" />
<use xlink:href="#f3_x" transform="matrix(12,0,0,12,235.6,951.8)" />
</g>
<path d="M254.1,947.2h11.5" class="g8_76" />
<g clip-path="url(#c14_76)">
<g fill="#000000" >
<use xlink:href="#f3_n" transform="matrix(11.5,0,0,12.4,255.4,966.5)" />
<use xlink:href="#f5_24" transform="matrix(11.5,0,0,12.4,255.3,939.9)" />
</g>
</g>
<g fill="#000000" >
<use xlink:href="#f3_1j" transform="matrix(12,0,0,12,55,992.8)" />
<use xlink:href="#f3_2b" transform="matrix(12,0,0,12,65.3,992.8)" />
<use xlink:href="#f3_g" transform="matrix(12,0,0,12,74.5,992.8)" />
</g>
<g clip-path="url(#c15_76)">
<g fill="#000000" >
<use xlink:href="#f3_m" transform="matrix(7.5,0,0,7.1,169.9,984.7)" />
<use xlink:href="#f3_m" transform="matrix(7.5,0,0,7.1,239.7,984.7)" />
<use xlink:href="#f3_29" transform="matrix(7.5,0,0,7.1,95.3,997.7)" />
<use xlink:href="#f3_1x" transform="matrix(7.5,0,0,7.1,103.3,997.7)" />
<use xlink:href="#f3_2k" transform="matrix(7.5,0,0,7.1,108,997.7)" />
<use xlink:href="#f3_2g" transform="matrix(12.9,0,0,12.3,146.4,993)" />
<use xlink:href="#f3_1x" transform="matrix(12.9,0,0,12.3,151.5,993)" />
<use xlink:href="#f3_2a" transform="matrix(12.9,0,0,12.3,159.5,993)" />
<use xlink:href="#f3_c" transform="matrix(12.9,0,0,12.3,190.6,993)" />
<use xlink:href="#f3_d" transform="matrix(12.9,0,0,12.3,233,993)" />
<use xlink:href="#f5_1m" transform="matrix(12.9,0,0,12.3,84.8,993)" />
<use xlink:href="#f5_24" transform="matrix(12.9,0,0,12.3,197.2,993)" />
<use xlink:href="#f5_2k" transform="matrix(12.9,0,0,12.3,224.5,993)" />
<use xlink:href="#f5_2k" transform="matrix(12.9,0,0,12.3,248,993)" />
<use xlink:href="#f2_x" transform="matrix(12.9,0,0,12.3,119.8,993)" />
<use xlink:href="#f2_2c" transform="matrix(12.9,0,0,12.3,134.2,993)" />
<use xlink:href="#f2_1x" transform="matrix(12.9,0,0,12.3,178.6,993)" />
<use xlink:href="#f2_h" transform="matrix(12.9,0,0,12.3,209.9,993)" />
</g>
</g>
<path d="M167.6,1035.6h11.2m19.8,0h11.2" class="g9_76" />
<g clip-path="url(#c16_76)">
<g fill="#000000" >
<use xlink:href="#f3_m" transform="matrix(7.3,0,0,7.1,189.2,1017.3)" />
<use xlink:href="#f3_m" transform="matrix(7.3,0,0,7.1,108.6,1032)" />
<use xlink:href="#f3_2g" transform="matrix(12.6,0,0,12.3,84.9,1040.2)" />
<use xlink:href="#f3_1x" transform="matrix(12.6,0,0,12.3,90.1,1040.2)" />
<use xlink:href="#f3_2a" transform="matrix(12.6,0,0,12.3,98.1,1040.2)" />
<use xlink:href="#f3_n" transform="matrix(12.6,0,0,12.3,168.9,1054.9)" />
<use xlink:href="#f3_n" transform="matrix(12.6,0,0,12.3,199.9,1054.9)" />
<use xlink:href="#f5_24" transform="matrix(12.6,0,0,12.3,168.7,1028.4)" />
<use xlink:href="#f5_24" transform="matrix(12.6,0,0,12.3,199.7,1028.4)" />
<use xlink:href="#f5_24" transform="matrix(12.6,0,0,12.3,140.5,1040.2)" />
<use xlink:href="#f2_4o" transform="matrix(12.6,0,0,12.3,130.9,1029.9)" />
<use xlink:href="#f2_54" transform="matrix(12.6,0,0,12.3,181.6,1029.9)" />
<use xlink:href="#f2_x" transform="matrix(12.6,0,0,12.3,58,1040.2)" />
<use xlink:href="#f2_2c" transform="matrix(12.6,0,0,12.3,72.5,1040.2)" />
<use xlink:href="#f2_1x" transform="matrix(12.6,0,0,12.3,117.4,1040.2)" />
<use xlink:href="#f2_h" transform="matrix(12.6,0,0,12.3,153.4,1040.2)" />
<use xlink:href="#f2_4p" transform="matrix(12.6,0,0,12.3,130.9,1045.4)" />
<use xlink:href="#f2_55" transform="matrix(12.6,0,0,12.3,181.6,1045.4)" />
<use xlink:href="#f2_4q" transform="matrix(12.6,0,0,12.3,130.9,1057)" />
<use xlink:href="#f2_56" transform="matrix(12.6,0,0,12.3,181.6,1057)" />
</g>
</g>
<path d="M72.7,1092.2h37.1" class="g10_76" />
<g clip-path="url(#c17_76)">
<g fill="#000000" >
<use xlink:href="#f3_n" transform="matrix(7.3,0,0,7.1,102.4,1076.8)" />
<use xlink:href="#f3_m" transform="matrix(7.3,0,0,7.1,136.4,1088.6)" />
<use xlink:href="#f3_o" transform="matrix(12.7,0,0,12.2,73.8,1085)" />
<use xlink:href="#f3_2g" transform="matrix(12.7,0,0,12.2,112.8,1096.8)" />
<use xlink:href="#f3_1x" transform="matrix(12.7,0,0,12.2,118,1096.8)" />
<use xlink:href="#f3_2a" transform="matrix(12.7,0,0,12.2,126,1096.8)" />
<use xlink:href="#f3_m" transform="matrix(12.7,0,0,12.2,82.2,1111.4)" />
<use xlink:href="#f3_r" transform="matrix(12.7,0,0,12.2,91.3,1111.4)" />
<use xlink:href="#f5_24" transform="matrix(12.7,0,0,12.2,92.9,1085)" />
<use xlink:href="#f2_2c" transform="matrix(12.7,0,0,12.2,83.2,1085)" />
<use xlink:href="#f2_x" transform="matrix(12.7,0,0,12.2,57.9,1096.8)" />
<use xlink:href="#f2_1x" transform="matrix(12.7,0,0,12.2,145.1,1096.8)" />
</g>
</g>
<g fill="#000000" >
<use xlink:href="#f6_1f" transform="matrix(12,0,0,12,440.9,1135.5)" />
<use xlink:href="#f6_1i" transform="matrix(12,0,0,12,455.2,1135.5)" />
</g>
<path d="M87.6,1167.2h64.3" class="g11_76" />
<g clip-path="url(#c18_76)">
<g fill="#000000" >
<use xlink:href="#f3_o" transform="matrix(12.7,0,0,12.4,97.9,1159.9)" />
<use xlink:href="#f3_2f" transform="matrix(12.7,0,0,12.4,108.4,1159.9)" />
<use xlink:href="#f3_25" transform="matrix(12.7,0,0,12.4,115.6,1159.9)" />
<use xlink:href="#f3_2a" transform="matrix(12.7,0,0,12.4,120.8,1159.9)" />
<use xlink:href="#f3_g" transform="matrix(12.7,0,0,12.4,179.2,1171.8)" />
<use xlink:href="#f3_1r" transform="matrix(12.7,0,0,12.4,219.2,1171.8)" />
<use xlink:href="#f3_k" transform="matrix(12.7,0,0,12.4,225.6,1171.8)" />
<use xlink:href="#f3_g" transform="matrix(12.7,0,0,12.4,234.4,1171.8)" />
<use xlink:href="#f3_m" transform="matrix(12.7,0,0,12.4,243.2,1171.8)" />
<use xlink:href="#f3_1t" transform="matrix(12.7,0,0,12.4,262.7,1171.8)" />
<use xlink:href="#f3_m" transform="matrix(12.7,0,0,12.4,88.8,1186.5)" />
<use xlink:href="#f3_1z" transform="matrix(12.7,0,0,12.4,115.2,1186.5)" />
<use xlink:href="#f3_2b" transform="matrix(12.7,0,0,12.4,123.2,1186.5)" />
<use xlink:href="#f3_2f" transform="matrix(12.7,0,0,12.4,132.4,1186.5)" />
<use xlink:href="#f5_2k" transform="matrix(12.7,0,0,12.4,133.6,1159.9)" />
<use xlink:href="#f5_2l" transform="matrix(12.7,0,0,12.4,59.7,1171.8)" />
<use xlink:href="#f5_2k" transform="matrix(12.7,0,0,12.4,170.8,1171.8)" />
<use xlink:href="#f5_2k" transform="matrix(12.7,0,0,12.4,194.1,1171.8)" />
<use xlink:href="#f5_2k" transform="matrix(12.7,0,0,12.4,142.7,1186.5)" />
<use xlink:href="#f2_x" transform="matrix(12.7,0,0,12.4,72.8,1171.8)" />
<use xlink:href="#f2_h" transform="matrix(12.7,0,0,12.4,156.2,1171.8)" />
<use xlink:href="#f2_40" transform="matrix(12.7,0,0,12.4,205,1171.8)" />
<use xlink:href="#f2_2c" transform="matrix(12.7,0,0,12.4,252.7,1171.8)" />
<use xlink:href="#f2_f" transform="matrix(12.7,0,0,12.4,101.4,1186.5)" />
</g>
</g>
<image preserveAspectRatio="none" x="55" y="127" width="359" height="275" xlink:href="img/7.png" />
<path fill-rule="evenodd" d="M37.4,38.1h.7v-.7h-.7v.7Z" class="g12_76" />
<path fill-rule="evenodd" d="M37.4,38.1h.7v-.7h-.7v.7Z" class="g12_76" />
<path fill-rule="evenodd" d="M38.1,38.1H871.5v-.7H38.1v.7Z" class="g12_76" />
<path fill-rule="evenodd" d="M871.5,38.1h.8v-.7h-.8v.7Z" class="g12_76" />
<path fill-rule="evenodd" d="M871.5,38.1h.8v-.7h-.8v.7Z" class="g12_76" />
<path fill-rule="evenodd" d="M37.4,1248.5h.7V38.1h-.7V1248.5Z" class="g12_76" />
<path fill-rule="evenodd" d="M872.3,1248.5h.7V38.1h-.7V1248.5Z" class="g12_76" />
<path fill-rule="evenodd" d="M871.5,1248.5h.8V38.1h-.8V1248.5Z" class="g12_76" />
<path fill-rule="evenodd" d="M37.4,1249.2h.7v-.7h-.7v.7Z" class="g12_76" />
<path fill-rule="evenodd" d="M37.4,1249.2h.7v-.7h-.7v.7Z" class="g12_76" />
<path fill-rule="evenodd" d="M38.1,1249.9H871.5v-.7H38.1v.7Z" class="g12_76" />
<path fill-rule="evenodd" d="M38.1,1249.2H871.5v-.7H38.1v.7Z" class="g12_76" />
<path fill-rule="evenodd" d="M872.3,1249.9h.7v-1.4h-.7v1.4Z" class="g12_76" />
<path fill-rule="evenodd" d="M871.5,1249.9H873v-.7h-1.5v.7Z" class="g12_76" />
<path fill-rule="evenodd" d="M871.5,1249.2h.8v-.7h-.8v.7Z" class="g12_76" />
<path fill-rule="evenodd" d="M871.5,1249.2h.8v-.7h-.8v.7Z" class="g12_76" />
<defs>
<path d="M489,-15c0,0,-99,0,-179,30c0,0,-80,30,-136,91c0,0,-56,61,-85,152c0,0,-30,91,-30,212c0,0,0,123,32,218c0,0,33,96,92,161c0,0,59,65,142,98c0,0,82,34,181,34c0,0,40,0,78,-7c0,0,37,-7,69,-18c0,0,31,-11,57,-25c0,0,25,-14,35,-24c0,0,10,-10,14,-17c0,0,4,-7,6,-17c0,0,2,-11,3,-25c0,0,2,-14,2,-35c0,0,0,-22,-2,-38c0,0,-1,-15,-5,-25c0,0,-4,-10,-9,-14c0,0,-5,-5,-12,-5c0,0,-11,0,-28,13c0,0,-18,13,-45,29c0,0,-27,16,-65,29c0,0,-37,13,-89,13c0,0,-58,0,-103,-23c0,0,-45,-23,-77,-67c0,0,-31,-44,-48,-106c0,0,-16,-61,-16,-139c0,0,0,-85,17,-147c0,0,18,-62,50,-103c0,0,33,-40,79,-60c0,0,45,-19,103,-19c0,0,52,0,90,12c0,0,38,12,65,27c0,0,27,15,45,27c0,0,17,12,27,12c0,0,8,0,12,-3c0,0,4,-3,7,-12c0,0,3,-9,5,-25c0,0,1,-16,1,-43c0,0,0,-18,-1,-31c0,0,-1,-14,-3,-23c0,0,-2,-9,-6,-16c0,0,-4,-7,-12,-15c0,0,-8,-9,-32,-22c0,0,-23,-14,-57,-26C661,13,627,1,583,-6c0,0,-43,-9,-94,-9Z" 
id="f0_j"
transform="scale(0.001,-0.001)" />

<path d="M440,150c0,0,41,0,68,8c0,0,28,9,49,26c0,0,20,16,32,41c0,0,11,25,11,58c0,0,0,33,-11,60c0,0,-11,26,-33,44c0,0,-21,18,-55,28c0,0,-33,9,-87,9H298V150ZM407,567c0,0,42,0,68,10c0,0,25,10,42,28c0,0,16,17,24,41c0,0,9,24,9,50c0,0,0,29,-9,52c0,0,-9,23,-27,39c0,0,-18,15,-45,23c0,0,-27,8,-72,8H298V567ZM164,0c0,0,-25,0,-42,15c0,0,-16,14,-16,47V903c0,0,0,33,16,48c0,0,17,14,42,14H406c0,0,88,0,150,-15c0,0,61,-15,103,-45c0,0,42,-30,65,-77c0,0,22,-46,22,-108c0,0,0,-36,-9,-67c0,0,-9,-31,-26,-56c0,0,-17,-25,-42,-45c0,0,-25,-19,-57,-31c0,0,41,-7,76,-26c0,0,34,-19,60,-48c0,0,26,-30,41,-69c0,0,15,-40,15,-89c0,0,0,-51,-14,-93c0,0,-15,-42,-40,-74c0,0,-25,-32,-59,-55c0,0,-35,-23,-77,-38C614,29,573,14,525,7C525,7,478,0,420,0Z" 
id="f0_i"
transform="scale(0.001,-0.001)" />

<path d="M320,-17c0,0,-50,0,-93,9c0,0,-43,8,-76,19c0,0,-32,11,-54,24C97,35,75,48,65,58c0,0,-10,9,-14,28c0,0,-4,18,-4,52c0,0,0,23,1,39c0,0,2,15,5,25c0,0,4,10,9,14c0,0,6,4,13,4c0,0,11,0,30,-12c0,0,19,-13,49,-28c0,0,30,-15,71,-27c0,0,42,-12,96,-12c0,0,36,0,64,8c0,0,29,9,49,25c0,0,19,15,30,38c0,0,10,23,10,52c0,0,0,33,-18,56c0,0,-18,24,-46,42c0,0,-29,18,-66,34c0,0,-36,16,-75,34c0,0,-39,18,-76,41c0,0,-36,23,-65,54c0,0,-29,32,-47,75c0,0,-17,44,-17,104c0,0,0,70,25,122c0,0,26,53,70,88c0,0,43,34,103,51c0,0,59,18,125,18c0,0,35,0,69,-6c0,0,34,-5,64,-14c0,0,30,-9,53,-20c0,0,23,-11,31,-18c0,0,7,-8,10,-13c0,0,3,-5,4,-14c0,0,2,-8,3,-21c0,0,1,-13,1,-33c0,0,0,-21,-1,-36c0,0,-1,-15,-4,-25c0,0,-3,-9,-7,-14c0,0,-5,-4,-14,-4c0,0,-8,0,-26,10c0,0,-18,10,-44,23c0,0,-26,12,-60,22c0,0,-34,10,-75,10c0,0,-32,0,-56,-8c0,0,-24,-8,-40,-21c0,0,-16,-14,-24,-34c0,0,-8,-19,-8,-41c0,0,0,-32,18,-56c0,0,17,-23,46,-42c0,0,30,-18,67,-34c0,0,38,-16,76,-34c0,0,39,-18,76,-41c0,0,38,-22,67,-54c0,0,29,-32,47,-75c0,0,18,-43,18,-101c0,0,0,-76,-29,-133c0,0,-28,-58,-77,-96C572,60,524,21,459,2c0,0,-65,-19,-139,-19Z" 
id="f0_2n"
transform="scale(0.001,-0.001)" />

<path d="M164,0c0,0,-25,0,-42,15c0,0,-16,14,-16,47V903c0,0,0,33,16,48c0,0,17,14,42,14H645c0,0,7,0,12,-4c0,0,5,-3,9,-13c0,0,4,-9,6,-24c0,0,2,-14,2,-36c0,0,0,-21,-2,-36c0,0,-2,-14,-6,-23c0,0,-4,-9,-9,-13c0,0,-5,-4,-12,-4H301V576H593c0,0,6,0,12,-4c0,0,6,-4,9,-13c0,0,4,-8,6,-23c0,0,2,-14,2,-35c0,0,0,-22,-2,-36c0,0,-2,-14,-6,-23c0,0,-3,-8,-9,-12c0,0,-6,-4,-12,-4H301V154H649c0,0,6,0,12,-5c0,0,5,-4,9,-13c0,0,4,-9,6,-23c0,0,2,-15,2,-36c0,0,0,-22,-2,-36c0,0,-2,-15,-6,-24c0,0,-4,-9,-9,-13c0,0,-6,-4,-12,-4Z" 
id="f0_t"
transform="scale(0.001,-0.001)" />

<path d="M79,297c0,0,-19,0,-27,18c0,0,-8,17,-8,60c0,0,0,41,8,59c0,0,8,17,27,17H389c0,0,9,0,15,-4c0,0,7,-4,11,-13c0,0,5,-9,7,-23c0,0,1,-15,1,-36c0,0,0,-43,-8,-61c0,0,-8,-17,-26,-17Z" 
id="f0_oj"
transform="scale(0.001,-0.001)" />

<path d="M121,-4c0,0,-39,0,-60,2C61,-2,39,0,32,8c0,0,-8,8,-3,24c0,0,4,15,18,41L279,495L64,892c0,0,-14,26,-19,42c0,0,-5,17,4,24c0,0,9,8,32,10c0,0,23,2,65,2c0,0,35,0,56,-2c0,0,20,-1,32,-4c0,0,12,-4,17,-10c0,0,5,-6,9,-15L431,620L595,939c0,0,5,9,10,15c0,0,5,6,16,10c0,0,10,3,29,4c0,0,19,2,53,2c0,0,37,0,59,-2c0,0,22,-2,30,-10c0,0,8,-8,4,-24c0,0,-4,-16,-17,-42L564,497L793,73c0,0,14,-26,18,-41c0,0,4,-16,-5,-24c0,0,-9,-8,-32,-10c0,0,-24,-2,-65,-2c0,0,-36,0,-56,2c0,0,-20,1,-31,3c0,0,-12,4,-17,10c0,0,-5,6,-9,15L414,374L233,26c0,0,-4,-9,-9,-15c0,0,-6,-6,-17,-10c0,0,-12,-2,-32,-3c0,0,-21,-2,-54,-2Z" 
id="f0_3e"
transform="scale(0.001,-0.001)" />

<path d="M204,-4c0,0,-28,0,-47,2c0,0,-19,2,-31,5c0,0,-11,4,-16,10c0,0,-4,6,-4,13V939c0,0,0,7,4,13c0,0,5,6,17,10c0,0,11,3,30,6c0,0,19,2,47,2c0,0,29,0,48,-2c0,0,18,-3,29,-6c0,0,11,-4,16,-10c0,0,5,-6,5,-13V26c0,0,0,-7,-5,-13c0,0,-5,-6,-16,-10c0,0,-11,-3,-29,-5c0,0,-19,-2,-48,-2Z" 
id="f0_1c"
transform="scale(0.001,-0.001)" />

<path d="M127,0c0,0,-16,0,-28,3C99,3,87,6,80,15c0,0,-8,8,-11,25c0,0,-3,16,-3,42c0,0,0,25,2,42c0,0,2,18,8,32c0,0,6,14,15,27c0,0,9,13,24,29L282,390c0,0,50,53,81,95c0,0,30,43,47,79c0,0,17,35,24,65c0,0,6,30,6,57c0,0,0,24,-8,46c0,0,-8,22,-23,39c0,0,-15,16,-38,25c0,0,-23,10,-55,10c0,0,-44,0,-78,-12c0,0,-33,-11,-59,-25c0,0,-26,-13,-43,-25c0,0,-17,-12,-27,-12c0,0,-7,0,-11,5c0,0,-5,4,-8,15c0,0,-3,10,-5,28c0,0,-2,17,-2,42c0,0,0,18,1,29c0,0,1,12,4,20c0,0,2,9,6,15c0,0,3,6,13,15c0,0,9,9,34,23c0,0,25,14,61,27c0,0,37,14,81,23c0,0,44,9,92,9c0,0,75,0,131,-19c0,0,57,-19,94,-53c0,0,37,-34,55,-81c0,0,19,-47,19,-100c0,0,0,-47,-9,-93c0,0,-9,-45,-37,-98c0,0,-29,-52,-80,-116c0,0,-52,-64,-136,-148L299,159H679c0,0,8,0,14,-4c0,0,6,-5,11,-14c0,0,4,-9,7,-25c0,0,2,-15,2,-36c0,0,0,-22,-2,-37c0,0,-2,-15,-6,-25c0,0,-3,-10,-9,-14c0,0,-6,-4,-14,-4Z" 
id="f0_rz"
transform="scale(0.001,-0.001)" />

<path d="M385,138c0,0,29,0,52,9c0,0,22,10,39,28c0,0,17,19,28,47c0,0,11,29,19,66c0,0,7,37,9,84c0,0,3,47,3,104c0,0,0,69,-4,122c0,0,-4,52,-11,91c0,0,-8,39,-20,66c0,0,-12,27,-28,43c0,0,-16,16,-37,22c0,0,-21,7,-47,7c0,0,-44,0,-73,-21c0,0,-28,-21,-45,-64c0,0,-17,-42,-24,-106c0,0,-6,-63,-6,-148c0,0,0,-103,8,-171c0,0,8,-67,26,-107c0,0,17,-40,45,-56c0,0,27,-16,66,-16ZM378,-17c0,0,-99,0,-164,33c0,0,-65,34,-103,98c0,0,-38,64,-54,156c0,0,-15,92,-15,209c0,0,0,115,19,208c0,0,19,94,61,160c0,0,42,65,110,101c0,0,68,35,165,35c0,0,99,0,164,-34c0,0,65,-34,103,-98c0,0,39,-64,53,-156c0,0,15,-92,15,-209c0,0,0,-115,-18,-209c0,0,-19,-93,-61,-159C653,118,611,53,543,17c0,0,-67,-34,-165,-34Z" 
id="f0_rx"
transform="scale(0.001,-0.001)" />

<path d="M142,0c0,0,-6,0,-12,4c0,0,-5,3,-9,12c0,0,-4,9,-6,23c0,0,-3,15,-3,36c0,0,0,21,2,36c0,0,2,14,6,23c0,0,4,9,10,13c0,0,5,5,12,5H322V779L166,693c0,0,-17,-8,-28,-10c0,0,-1,0,-3,0c-4,0,-10,1,-14,5c0,0,-6,6,-8,22c0,0,-2,15,-2,44c0,0,0,18,0,29c0,0,1,12,4,20c0,0,3,8,8,14c0,0,5,5,14,11L345,962c0,0,4,3,9,5c0,0,6,2,15,3c0,0,9,1,23,2c0,0,15,0,38,0c0,0,28,0,46,-1c0,0,17,-1,26,-4c0,0,9,-3,12,-7c0,0,3,-4,3,-11V152H675c0,0,7,0,12,-5c0,0,6,-4,10,-13c0,0,4,-9,6,-23c0,0,2,-15,2,-36c0,0,0,-21,-2,-36c0,0,-3,-14,-7,-23c0,0,-4,-9,-9,-12c0,0,-5,-4,-12,-4Z" 
id="f0_ry"
transform="scale(0.001,-0.001)" />

<path d="M398,134c0,0,34,0,60,12c0,0,25,13,43,36c0,0,17,23,26,54c0,0,9,31,9,68c0,0,0,38,-7,66c0,0,-7,29,-22,49c0,0,-15,20,-39,30c0,0,-25,10,-60,10c0,0,-21,0,-41,-4c0,0,-20,-4,-40,-10c0,0,-19,-7,-37,-16c0,0,-18,-10,-33,-20c0,0,0,-80,9,-133c0,0,9,-54,26,-85c0,0,18,-31,44,-44c0,0,27,-13,62,-13ZM387,-16c0,0,-67,0,-117,15c0,0,-50,14,-86,43c0,0,-37,29,-60,70c0,0,-23,41,-37,92c0,0,-14,52,-19,112c0,0,-5,61,-5,129c0,0,0,56,5,118c0,0,6,62,22,122c0,0,16,59,45,114c0,0,29,54,75,94c0,0,46,41,111,65c0,0,65,24,155,24c0,0,28,0,57,-4c0,0,29,-3,53,-8c0,0,25,-5,42,-12c0,0,17,-7,23,-12c0,0,5,-5,8,-11c0,0,3,-5,5,-13c0,0,2,-7,3,-17c0,0,1,-11,1,-25c0,0,0,-24,-1,-39c0,0,-2,-15,-5,-24c0,0,-3,-8,-8,-12c0,0,-5,-4,-12,-4c0,0,-9,0,-24,5c0,0,-14,5,-34,11c0,0,-20,6,-47,10c0,0,-27,5,-63,5c0,0,-61,0,-102,-23c0,0,-42,-22,-68,-60c0,0,-26,-39,-38,-90c0,0,-12,-50,-13,-107c0,0,16,10,38,21c0,0,21,10,46,18c0,0,25,7,54,12c0,0,29,5,62,5c0,0,73,0,125,-20c0,0,52,-20,86,-58c0,0,33,-37,48,-90c0,0,16,-53,16,-118c0,0,0,-73,-22,-135c0,0,-23,-62,-66,-108C640,79,597,34,533,9c0,0,-63,-25,-146,-25Z" 
id="f0_s3"
transform="scale(0.001,-0.001)" />

<path d="M589,371L453,782h-1L317,371ZM106,-4c0,0,-35,0,-54,2C52,-2,32,0,25,8c0,0,-7,9,-5,24c0,0,2,16,11,42L329,931c0,0,4,13,10,21c0,0,6,7,19,12c0,0,13,4,36,5c0,0,23,1,61,1c0,0,44,0,71,-1c0,0,26,-1,40,-5c0,0,15,-5,21,-13c0,0,6,-8,11,-22L896,73c0,0,9,-27,11,-43c0,0,3,-15,-6,-23c0,0,-8,-7,-29,-9c0,0,-21,-2,-57,-2c0,0,-38,0,-59,1c0,0,-22,1,-33,4c0,0,-11,3,-16,9c0,0,-4,6,-7,16L635,220H272L211,31c0,0,-2,-11,-7,-18c0,0,-5,-7,-16,-11c0,0,-11,-3,-31,-4c0,0,-19,-2,-51,-2Z" 
id="f0_5"
transform="scale(0.001,-0.001)" />

<path d="M198,-4c0,0,-27,0,-45,2c0,0,-18,2,-28,5c0,0,-11,4,-15,10c0,0,-4,6,-4,13V887c0,0,0,38,20,58c0,0,20,20,53,20H308c0,0,34,0,59,-6c0,0,24,-5,42,-18c0,0,18,-13,30,-35c0,0,12,-21,21,-52L669,279h3L889,852c0,0,9,32,21,53c0,0,11,22,27,35c0,0,15,14,36,19c0,0,21,6,48,6h132c0,0,21,0,35,-5c0,0,15,-5,24,-15c0,0,9,-11,14,-25c0,0,5,-15,5,-33V26c0,0,0,-7,-4,-13c0,0,-4,-6,-15,-10c0,0,-11,-3,-29,-5c0,0,-18,-2,-45,-2c0,0,-27,0,-45,2c0,0,-18,2,-28,5c0,0,-11,4,-15,10c0,0,-5,6,-5,13V813h-1L764,27c0,0,-3,-10,-10,-16c0,0,-6,-6,-18,-10c0,0,-12,-3,-29,-4c0,0,-18,-1,-44,-1c0,0,-25,0,-43,2c0,0,-18,2,-29,5c0,0,-12,4,-19,10c0,0,-6,6,-9,14L293,813h-2V26c0,0,0,-7,-4,-13c0,0,-4,-6,-15,-10c0,0,-11,-3,-29,-5c0,0,-17,-2,-45,-2Z" 
id="f0_1x"
transform="scale(0.001,-0.001)" />

<path d="M193,-4c0,0,-26,0,-43,2c0,0,-18,2,-27,6c0,0,-10,4,-14,10c0,0,-3,6,-3,13V895c0,0,0,35,20,53c0,0,21,17,50,17H282c0,0,28,0,47,-5c0,0,20,-5,35,-16c0,0,15,-11,29,-31c0,0,13,-20,27,-49L608,511c0,0,17,-32,33,-63c0,0,16,-31,31,-62c0,0,14,-31,29,-60c0,0,14,-30,27,-60h1c0,0,-2,52,-3,109c0,0,-1,57,-1,108V936c0,0,0,7,4,13c0,0,5,6,15,11c0,0,10,4,28,6c0,0,17,2,44,2c0,0,25,0,42,-2c0,0,17,-2,27,-6c0,0,9,-5,13,-11c0,0,4,-6,4,-13V68c0,0,0,-17,-6,-30c0,0,-6,-14,-17,-23C879,15,869,6,856,2c0,0,-14,-3,-28,-3H744c0,0,-26,0,-45,4c0,0,-19,5,-35,19c0,0,-16,14,-31,38c0,0,-15,23,-34,60L359,572c0,0,-21,40,-43,86c0,0,-21,47,-38,91h-2c0,0,3,-54,5,-107c0,0,2,-53,2,-110V27c0,0,0,-7,-5,-13c0,0,-4,-6,-14,-10c0,0,-10,-4,-27,-6c0,0,-17,-2,-44,-2Z" 
id="f0_1y"
transform="scale(0.001,-0.001)" />

<path d="M378,-4c0,0,-28,0,-47,2c0,0,-19,2,-31,5c0,0,-11,4,-16,10c0,0,-4,6,-4,13V805H38c0,0,-8,0,-13,4c0,0,-5,5,-9,14c0,0,-3,9,-5,25c0,0,-2,15,-2,37c0,0,0,22,2,38c0,0,2,15,5,25c0,0,4,9,9,13c0,0,5,4,13,4H718c0,0,7,0,12,-4c0,0,6,-4,10,-13c0,0,3,-10,5,-25c0,0,2,-16,2,-38c0,0,0,-22,-2,-37c0,0,-2,-16,-5,-25c0,0,-4,-9,-10,-14c0,0,-5,-4,-12,-4H476V26c0,0,0,-7,-5,-13c0,0,-5,-6,-16,-10c0,0,-11,-3,-30,-5c0,0,-19,-2,-47,-2Z" 
id="f0_2t"
transform="scale(0.001,-0.001)" />

<path d="M514,145c0,0,72,0,121,27c0,0,48,26,78,73c0,0,30,46,42,107c0,0,13,62,13,131c0,0,0,76,-12,139c0,0,-12,62,-41,106c0,0,-29,45,-76,69c0,0,-48,24,-120,24c0,0,-72,0,-120,-27c0,0,-49,-27,-79,-73c0,0,-29,-45,-42,-106c0,0,-12,-61,-12,-129c0,0,0,-79,12,-142c0,0,12,-63,40,-108c0,0,28,-44,76,-68c0,0,48,-23,120,-23ZM508,-17c0,0,-113,0,-196,29c0,0,-84,29,-140,90c0,0,-56,60,-84,154c0,0,-28,93,-28,221c0,0,0,117,29,210c0,0,30,94,89,160c0,0,59,65,146,101c0,0,87,35,202,35c0,0,110,0,194,-29c0,0,84,-30,140,-90c0,0,56,-60,85,-153c0,0,29,-92,29,-217c0,0,0,-120,-30,-215c0,0,-30,-95,-89,-161C855,118,796,52,709,17c0,0,-87,-34,-201,-34Z" 
id="f0_24"
transform="scale(0.001,-0.001)" />

<path d="M299,0V777H162l36,173H508V0Z" 
id="f1_l"
transform="scale(0.001,-0.001)" />

<path d="M404,-11c0,0,-136,0,-225,76c0,0,-90,78,-111,215H265c0,0,35,-136,135,-136c0,0,50,0,85,35c0,0,34,36,34,88c0,0,0,64,-41,105c0,0,-42,41,-107,41H336V573h21c0,0,68,0,109,33c0,0,41,34,41,89c0,0,0,50,-32,85c0,0,-32,35,-79,35c0,0,-110,0,-127,-135H76c0,0,9,130,96,209c0,0,87,79,208,79c0,0,134,0,227,-76c0,0,94,-75,94,-182c0,0,0,-116,-115,-210c0,0,73,-46,107,-96c0,0,34,-51,34,-121c0,0,0,-134,-88,-214c0,0,-89,-80,-235,-80Z" 
id="f1_n"
transform="scale(0.001,-0.001)" />

<path d="M44,-281L425,1053H537L156,-281Z" 
id="f1_j"
transform="scale(0.001,-0.001)" />

<path d="M186,-28L17,77L450,779H39V952H793L186,-28Z" 
id="f1_r"
transform="scale(0.001,-0.001)" />

<path d="M945,-20c0,0,47,75,125,153H57v74H1147l108,91c0,0,23,19,95,72c0,0,-134,103,-203,166H57v72H1070c0,0,-78,78,-125,154h85c0,0,88,-107,217,-217c0,0,130,-110,206,-154V349c0,0,-101,-58,-219,-162c0,0,-118,-103,-204,-207Z" 
id="f2_4g"
transform="scale(0.001,-0.001)" />

<path d="M551,45c0,0,171,0,252,108c0,0,82,108,82,349c0,0,0,239,-81,344c0,0,-81,105,-253,105c0,0,-172,0,-252,-105c0,0,-80,-105,-80,-344c0,0,0,-241,80,-349c0,0,81,-108,252,-108Zm0,-59c0,0,-238,0,-363,129C188,115,63,245,63,501c0,0,0,510,488,510c0,0,242,0,366,-129c0,0,124,-130,124,-381c0,0,0,-255,-126,-385C915,116,790,-14,551,-14Z" 
id="f3_1f"
transform="scale(0.001,-0.001)" />

<path d="M529,65c0,0,183,0,270,108c0,0,87,108,87,334c0,0,0,210,-113,318c0,0,-113,108,-322,108H316V71c0,0,90,-6,213,-6Zm0,-67L172,0H44V40L172,60V941L44,960v40H498c0,0,277,0,411,-123c0,0,133,-124,133,-371c0,0,0,-251,-129,-380C913,126,785,-2,529,-2Z" 
id="f3_14"
transform="scale(0.001,-0.001)" />

<path d="M76,316v76H787V316Zm0,306v76H787V622Z" 
id="f3_x"
transform="scale(0.001,-0.001)" />

<path d="M442,0V33l93,19V504c0,0,0,129,-124,129c0,0,-70,0,-168,-22V52L338,33V0H31V33l88,19v956L15,1026v34H243V756c0,0,0,-77,-5,-112c0,0,54,31,122,53c0,0,68,23,115,23c0,0,91,0,137,-53c0,0,47,-53,47,-154V52L744,33V0Z" 
id="f3_24"
transform="scale(0.001,-0.001)" />

<path d="M-12,338v55H777V338Z" 
id="f4_4y"
transform="scale(0.001,-0.001)" />

<path d="M13,0V34L95,46L325,350L122,649L40,668v33H357V668L264,648L399,446L554,649l-96,19v33H710V668L630,652L433,397L663,50L745,34V0H427V34l94,17L359,299L169,50L266,34V0Z" 
id="f3_2k"
transform="scale(0.001,-0.001)" />

<path d="M43,375c0,0,13,139,63,197c0,0,49,59,137,59c0,0,42,0,86,-22c0,0,45,-21,101,-68c0,0,64,-54,95,-72c0,0,31,-18,57,-18c0,0,51,0,80,39c0,0,30,39,44,141h77c0,0,-13,-97,-37,-149c0,0,-24,-51,-63,-79c0,0,-40,-28,-101,-28c0,0,-79,0,-183,90c0,0,-55,47,-91,68c0,0,-36,21,-65,21c0,0,-57,0,-86,-40c0,0,-29,-41,-39,-139Z" 
id="f3_2q"
transform="scale(0.001,-0.001)" />

<path d="M500,49c0,0,111,0,205,75c0,0,95,75,154,216c0,0,59,140,59,280c0,0,0,150,-76,240c0,0,-77,91,-202,91c0,0,-111,0,-204,-75c0,0,-93,-76,-151,-217c0,0,-59,-141,-59,-284c0,0,0,-147,75,-237c0,0,75,-89,199,-89Zm-5,-63c0,0,-121,0,-216,50c0,0,-96,50,-149,142c0,0,-53,91,-53,205c0,0,0,180,74,326c0,0,75,145,204,224c0,0,129,78,295,78c0,0,120,0,216,-50c0,0,96,-51,149,-142c0,0,53,-91,53,-206c0,0,0,-177,-75,-325C993,288,918,140,789,63c0,0,-129,-77,-294,-77Z" 
id="f5_1f"
transform="scale(0.001,-0.001)" />

<path d="M463,65c0,0,220,0,340,135c0,0,121,135,121,385c0,0,0,348,-385,348H419L266,70c0,0,120,-5,197,-5Zm6,-67L110,0H-16l7,40L121,60L276,941L151,960l7,40H585c0,0,241,0,368,-105c0,0,127,-106,127,-304c0,0,0,-179,-75,-314c0,0,-75,-136,-214,-208C791,69,653,-2,469,-2Z" 
id="f5_14"
transform="scale(0.001,-0.001)" />

<path d="M521,-14c0,0,-205,0,-320,107C201,93,85,200,85,390c0,0,0,185,77,326c0,0,77,142,220,219c0,0,142,76,324,76c0,0,158,0,327,-38L1000,755H951V884c0,0,-46,32,-112,50c0,0,-65,17,-137,17c0,0,-135,0,-242,-72c0,0,-107,-72,-166,-203c0,0,-60,-132,-60,-301c0,0,0,-160,78,-244c0,0,78,-84,222,-84c0,0,85,0,166,25c0,0,82,26,133,65l53,149h49L889,52C889,52,803,20,705,3c0,0,-99,-17,-184,-17Z" 
id="f5_13"
transform="scale(0.001,-0.001)" />

<path d="M631,416L539,902L283,416ZM576,0l8,40L691,60L643,348H249L96,60L197,40L189,0H-83l8,40L7,60l509,949H659L845,60L938,40L930,0Z" 
id="f5_11"
transform="scale(0.001,-0.001)" />

<path d="M459,63c0,0,143,0,210,55c0,0,67,56,67,185c0,0,0,101,-66,146c0,0,-66,46,-190,46H341L266,67c0,0,114,-4,193,-4Zm18,499c0,0,144,0,206,49c0,0,61,48,61,170c0,0,0,77,-48,115c0,0,-48,37,-160,37H419L353,562ZM459,-4L173,0H14l8,40l99,20L277,941L151,960l8,40H570c0,0,330,0,330,-210c0,0,0,-105,-66,-174c0,0,-66,-69,-184,-85c0,0,115,-9,179,-69c0,0,63,-59,63,-157c0,0,0,-160,-108,-235C784,70,675,-4,459,-4Z" 
id="f5_12"
transform="scale(0.001,-0.001)" />

<path d="M719,62L422,783L93,62ZM0,0L469,1034L896,0Z" 
id="f2_14"
transform="scale(0.001,-0.001)" />

<path d="M249,-14c0,0,-71,0,-107,42c0,0,-35,42,-35,119V639H15v33l93,29l76,159h47V701H391V639H231V161c0,0,0,-48,22,-73c0,0,22,-24,57,-24c0,0,44,0,106,12V26C416,26,389,8,340,-2c0,0,-49,-12,-91,-12Z" 
id="f3_2g"
transform="scale(0.001,-0.001)" />

<path d="M284,67c0,0,51,0,88,12c0,0,37,12,74,30V358l-98,-3c0,0,-100,-4,-135,-39c0,0,-35,-35,-35,-117c0,0,0,-132,106,-132ZM233,-14c0,0,-179,0,-179,208c0,0,0,70,27,116c0,0,27,46,87,70c0,0,60,24,173,27l105,3V519c0,0,0,72,-26,107c0,0,-27,34,-82,34c0,0,-75,0,-137,-35L176,538H134V691c0,0,121,26,213,26c0,0,115,0,169,-47c0,0,54,-47,54,-144V52L657,33V0H465L451,70c0,0,-85,-84,-218,-84Z" 
id="f3_1x"
transform="scale(0.001,-0.001)" />

<path d="M439,0V33l93,19V500c0,0,0,62,-30,97c0,0,-31,36,-94,36c0,0,-67,0,-165,-22V52L338,33V0H35V33l84,19V649L35,668v33H235l7,-57c0,0,57,33,122,54c0,0,65,22,108,22c0,0,91,0,137,-53c0,0,47,-53,47,-154V52L741,33V0Z" 
id="f3_2a"
transform="scale(0.001,-0.001)" />

<path d="M55,0L232,1008l-88,18l6,34H365L286,615L274,558c0,0,59,79,128,120c0,0,68,42,134,42c0,0,75,0,113,-41c0,0,38,-41,38,-117c0,0,0,-10,-3,-32c0,0,-3,-21,-81,-478L700,34L695,0H470l76,434c0,0,17,94,17,123c0,0,0,34,-18,55c0,0,-18,21,-56,21c0,0,-56,0,-121,-47c0,0,-65,-47,-107,-114L178,0Z" 
id="f5_24"
transform="scale(0.001,-0.001)" />

<path d="M-6,0c0,0,-12,10,-12,32c0,0,0,21,23,51c0,0,23,31,79,82L287,354L159,649L79,668l6,33H270L378,434l93,88c0,0,47,46,67,72c0,0,19,26,19,44c0,0,0,8,-6,13c0,0,-7,6,-38,17l6,33H651c0,0,16,-12,16,-32c0,0,0,-44,-103,-142L404,377L548,49L634,33L628,0H437L313,298L185,176c0,0,-41,-40,-60,-65c0,0,-19,-26,-19,-48c0,0,0,-21,31,-29L131,0Z" 
id="f5_2k"
transform="scale(0.001,-0.001)" />

<path d="M460,506c0,0,135,0,209,64c0,0,73,65,73,183c0,0,0,180,-213,180H419L343,506ZM671,0L487,438H331L264,60L398,40L390,0H-7L0,40L120,60L276,941L151,960l7,40H555c0,0,163,0,249,-62c0,0,86,-62,86,-180c0,0,0,-236,-261,-299L798,60L908,40L900,0Z" 
id="f5_1i"
transform="scale(0.001,-0.001)" />

<path d="M0,356v74H784V356Z" 
id="f2_h"
transform="scale(0.001,-0.001)" />

<path d="M0,214v74H784V214ZM0,494v72H784V494Z" 
id="f2_x"
transform="scale(0.001,-0.001)" />

<path d="M316,27c0,0,57,0,105,53c0,0,65,72,125,295c0,0,-40,153,-104,214c0,0,-63,61,-129,61c0,0,-73,0,-122,-80c0,0,-48,-80,-48,-255c0,0,0,-104,20,-163c0,0,21,-60,64,-92c0,0,42,-33,89,-33Zm4,-49c0,0,-165,0,-243,108C77,86,0,196,0,336c0,0,0,164,91,265c0,0,91,102,213,102c0,0,85,0,150,-52c0,0,65,-51,118,-192l65,224H760L662,344c0,0,-9,-32,-30,-100c0,0,29,-115,43,-137c0,0,27,-41,68,-41c0,0,30,0,55,24c0,0,26,25,34,77h30C862,167,852,60,817,19c0,0,-35,-40,-81,-40c0,0,-42,0,-77,34c0,0,-35,36,-62,154c0,0,-33,-65,-65,-99C532,68,488,22,437,0c0,0,-52,-22,-117,-22Z" 
id="f2_1x"
transform="scale(0.001,-0.001)" />

<path d="M460,-325c0,0,-148,79,-231,172c0,0,-84,93,-123,217c0,0,-39,126,-39,304c0,0,0,178,39,303c0,0,39,125,122,217c0,0,82,93,232,172V997c0,0,-91,-52,-145,-134c0,0,-54,-81,-79,-190c0,0,-25,-109,-25,-305c0,0,0,-194,26,-309c0,0,26,-114,82,-193c0,0,56,-79,141,-128v-63Z" 
id="f3_c"
transform="scale(0.001,-0.001)" />

<path d="M49,-325v63c0,0,85,49,140,128c0,0,56,79,83,194c0,0,26,115,26,308c0,0,0,196,-25,305c0,0,-25,109,-79,190c0,0,-54,82,-145,134v63c0,0,149,-80,232,-172c0,0,83,-92,122,-217c0,0,39,-125,39,-303c0,0,0,-177,-39,-303c0,0,-39,-125,-122,-217c0,0,-83,-93,-232,-173Z" 
id="f3_d"
transform="scale(0.001,-0.001)" />

<path d="M67,0V109L206,235c0,0,133,118,196,190c0,0,63,72,90,149c0,0,27,77,27,177c0,0,0,97,-44,148c0,0,-44,50,-144,50c0,0,-39,0,-81,-10c0,0,-42,-11,-74,-29L150,787H101V980c0,0,135,32,230,32c0,0,164,0,247,-68c0,0,82,-69,82,-193c0,0,0,-84,-32,-158c0,0,-33,-75,-100,-148c0,0,-67,-74,-222,-206c0,0,-67,-57,-141,-125H680V0Z" 
id="f3_m"
transform="scale(0.001,-0.001)" />

<path d="M395,-22L175,941L80,960l7,40H455l-7,-40L322,941L484,211L885,941L771,960l9,40h300l-7,-40L975,941L433,-22Z" 
id="f5_1m"
transform="scale(0.001,-0.001)" />

<path d="M140,-21c0,0,-26,0,-44,17C96,-4,79,13,79,40c0,0,0,19,6,33c0,0,8,20,34,55c0,0,46,60,64,126c0,0,32,114,41,321H190c0,0,-55,0,-81,-18c0,0,-44,-26,-80,-89H0c0,0,42,129,98,178c0,0,43,37,120,37H743V575H562c0,0,-27,-171,-27,-327c0,0,0,-77,27,-110c0,0,27,-33,67,-33c0,0,33,0,56,22c0,0,24,22,31,65h27C743,192,730,74,686,26c0,0,-44,-47,-98,-47c0,0,-58,0,-97,51c0,0,-39,53,-39,198c0,0,0,91,28,347H286c0,0,-23,-390,-56,-494c0,0,-33,-102,-90,-102Z" 
id="f2_2c"
transform="scale(0.001,-0.001)" />

<path d="M83,308c0,0,-35,0,-59,24c0,0,-24,24,-24,59c0,0,0,34,24,58c0,0,24,24,59,24c0,0,33,0,58,-24c0,0,24,-24,24,-58c0,0,0,-35,-24,-59c0,0,-25,-24,-58,-24Z" 
id="f2_49"
transform="scale(0.001,-0.001)" />

<path d="M476,327V830h-4L114,327ZM476,0V220H30v99l488,686h86V327H740V220H604V0Z" 
id="f3_o"
transform="scale(0.001,-0.001)" />

<path d="M350,-14c0,0,-142,0,-269,31L73,228h49L156,87c0,0,29,-16,82,-28c0,0,54,-12,100,-12c0,0,117,0,173,54c0,0,56,53,56,178c0,0,0,99,-52,150c0,0,-51,51,-159,56l-107,6v61l107,7c0,0,84,5,124,52c0,0,41,48,41,145c0,0,0,101,-44,147c0,0,-44,45,-139,45c0,0,-40,0,-83,-10c0,0,-43,-11,-76,-29L153,786H104V979c0,0,74,19,127,26c0,0,54,6,107,6c0,0,321,0,321,-246c0,0,0,-104,-57,-165c0,0,-57,-62,-162,-77c0,0,136,-16,200,-78c0,0,64,-62,64,-173c0,0,0,-135,-92,-211c0,0,-93,-75,-262,-75Z" 
id="f3_n"
transform="scale(0.001,-0.001)" />

<path d="M301,78c0,0,41,0,90,27c0,0,49,28,95,77l81,442c0,0,-26,18,-54,27c0,0,-27,10,-67,10c0,0,-70,0,-131,-55c0,0,-61,-55,-99,-152c0,0,-37,-97,-37,-201c0,0,0,-79,33,-127c0,0,33,-48,89,-48ZM245,-14c0,0,-91,0,-145,68c0,0,-54,69,-54,183c0,0,0,128,55,240c0,0,55,112,150,177c0,0,96,66,210,66c0,0,70,0,123,-18c0,0,3,36,51,306l-115,18l6,34H768L589,52L673,33L667,0H454l22,117C476,117,350,-14,245,-14Z" 
id="f5_20"
transform="scale(0.001,-0.001)" />

<path d="M355,0V355H0v72H355V784h72V427H782V355H427V0Z" 
id="f2_f"
transform="scale(0.001,-0.001)" />

<path d="M377,45c0,0,99,0,145,108c0,0,46,109,46,352c0,0,0,240,-45,345c0,0,-46,106,-146,106c0,0,-97,0,-139,-100c0,0,-43,-99,-43,-351c0,0,0,-254,44,-357c0,0,43,-103,138,-103Zm0,-59c0,0,-158,0,-238,132c0,0,-81,133,-81,386c0,0,0,249,81,380c0,0,80,132,244,132c0,0,159,0,241,-130c0,0,82,-130,82,-382c0,0,0,-518,-329,-518Z" 
id="f3_k"
transform="scale(0.001,-0.001)" />

<path d="M377,45c0,0,99,0,147,73c0,0,47,73,47,237c0,0,0,161,-47,233c0,0,-47,72,-147,72c0,0,-97,0,-141,-69c0,0,-44,-69,-44,-236c0,0,0,-169,45,-240c0,0,44,-70,140,-70Zm0,-59c0,0,-158,0,-238,94c0,0,-81,95,-81,274c0,0,0,178,81,272c0,0,80,94,244,94c0,0,160,0,241,-92c0,0,82,-92,82,-274c0,0,0,-368,-329,-368Z" 
id="f3_2b"
transform="scale(0.001,-0.001)" />

<path d="M382,45c0,0,188,0,188,314c0,0,0,143,-47,213c0,0,-46,69,-141,69c0,0,-87,0,-146,-24V58c0,0,67,-13,146,-13ZM25,-325v35l88,18V649L34,668v33H231l1,-41c0,0,31,27,84,43c0,0,53,17,107,17c0,0,134,0,208,-94c0,0,73,-93,73,-267c0,0,0,-178,-80,-276c0,0,-80,-97,-232,-97c0,0,-84,0,-160,16c0,0,4,-53,4,-84V-272l123,-18v-35Z" 
id="f3_2c"
transform="scale(0.001,-0.001)" />

<path d="M278,-14c0,0,-52,0,-115,11c0,0,-63,10,-99,23V193H98L134,95c0,0,56,-50,146,-50c0,0,144,0,144,123c0,0,0,91,-114,130l-66,21c0,0,-75,25,-110,50c0,0,-34,26,-53,63c0,0,-18,36,-18,89c0,0,0,92,63,145c0,0,63,54,170,54c0,0,77,0,193,-23V544H454l-32,81c0,0,-39,35,-124,35c0,0,-61,0,-92,-30c0,0,-32,-30,-32,-80c0,0,0,-43,29,-72c0,0,28,-29,86,-48c0,0,110,-38,144,-55c0,0,33,-17,57,-42c0,0,23,-25,36,-57c0,0,13,-32,13,-79c0,0,0,-104,-66,-158c0,0,-66,-53,-195,-53Z" 
id="f3_2f"
transform="scale(0.001,-0.001)" />

<path d="M32,0V33L151,52V649L52,668v33H275V52L395,33V0ZM201,850c0,0,-32,0,-56,24c0,0,-24,24,-24,56c0,0,0,34,24,58c0,0,24,24,56,24c0,0,34,0,58,-24c0,0,24,-24,24,-58c0,0,0,-32,-24,-56c0,0,-24,-24,-58,-24Z" 
id="f3_25"
transform="scale(0.001,-0.001)" />

<path d="M376,50c0,0,103,0,149,80c0,0,46,81,46,240c0,0,0,137,-47,204c0,0,-48,67,-148,67c0,0,-44,0,-87,-7c0,0,-44,-8,-63,-17V62c0,0,63,-12,150,-12Zm3,-64c0,0,-64,0,-141,14c0,0,-78,14,-136,37v971L0,1026v34H226V809c0,0,0,-40,-4,-148c0,0,74,59,188,59c0,0,143,0,219,-87c0,0,77,-87,77,-263c0,0,0,-189,-84,-287c0,0,-84,-97,-243,-97Z" 
id="f3_1y"
transform="scale(0.001,-0.001)" />

<path d="M31,0V33L150,52v956L31,1026v34H274V52L394,33V0Z" 
id="f3_28"
transform="scale(0.001,-0.001)" />

<path d="M495,413c0,0,0,133,-34,190c0,0,-34,57,-105,57c0,0,-78,0,-119,-63c0,0,-42,-62,-42,-184ZM374,-14c0,0,-163,0,-239,87c0,0,-75,88,-75,283c0,0,0,183,77,273c0,0,76,91,219,91c0,0,269,0,269,-306V353H194V340c0,0,0,-103,23,-160c0,0,22,-57,70,-87c0,0,47,-29,124,-29c0,0,40,0,96,6c0,0,55,7,91,15V43C598,43,562,20,500,3c0,0,-61,-17,-126,-17Z" 
id="f3_21"
transform="scale(0.001,-0.001)" />

<path d="M31,0V33l88,19V649L31,668v33H235l7,-87c0,0,44,37,121,71c0,0,76,35,121,35h11V530H463l-43,82c0,0,-37,0,-88,-10c0,0,-52,-10,-89,-26V52L363,33V0Z" 
id="f3_2e"
transform="scale(0.001,-0.001)" />

<path d="M410,45c0,0,90,0,130,58c0,0,40,59,40,193c0,0,0,122,-38,177c0,0,-38,54,-122,54c0,0,-102,0,-217,-37c0,0,0,-227,51,-336c0,0,52,-109,156,-109Zm3,-59c0,0,-169,0,-258,131c0,0,-89,131,-89,377c0,0,0,161,47,278c0,0,47,117,131,178c0,0,85,61,196,61c0,0,109,0,217,-26V813H608L582,915c0,0,-25,13,-67,23c0,0,-41,10,-75,10c0,0,-109,0,-170,-105c0,0,-60,-106,-66,-308c0,0,121,63,244,63c0,0,132,0,201,-74c0,0,69,-74,69,-214c0,0,0,-156,-78,-240c0,0,-79,-84,-227,-84Z" 
id="f3_q"
transform="scale(0.001,-0.001)" />

<path d="M0,-14L351,1007h73L75,-14Z" 
id="f3_j"
transform="scale(0.001,-0.001)" />

<path d="M62,-123V268c0,0,0,230,56,452c0,0,47,190,134,334c0,0,87,144,204,242c0,0,85,73,194,119l18,-16c0,0,-211,-145,-335,-339c0,0,-98,-156,-149,-374c0,0,-50,-218,-50,-403V-123Z" 
id="f2_4o"
transform="scale(0.001,-0.001)" />

<path d="M617,-123V283c0,0,0,236,-63,459c0,0,-63,223,-188,392c0,0,-108,146,-282,265l17,16c0,0,180,-76,320,-248c0,0,139,-172,204,-417c0,0,64,-245,64,-482V-123Z" 
id="f2_54"
transform="scale(0.001,-0.001)" />

<path d="M751,0L0,371v39L751,783V702L122,392L751,80V0Z" 
id="f2_w"
transform="scale(0.001,-0.001)" />

<path d="M62,-123V1415h72V-123Z" 
id="f2_4p"
transform="scale(0.001,-0.001)" />

<path d="M617,-123V1415h72V-123Z" 
id="f2_55"
transform="scale(0.001,-0.001)" />

<path d="M650,-123c0,0,-180,75,-319,246c0,0,-140,172,-205,418c0,0,-64,245,-64,481v393h72V1007c0,0,0,-236,63,-459c0,0,63,-223,189,-391c0,0,108,-145,282,-265l-18,-15Z" 
id="f2_4q"
transform="scale(0.001,-0.001)" />

<path d="M101,-123l-17,15c0,0,210,144,334,339c0,0,99,156,149,373c0,0,50,218,50,403v408h72V1022c0,0,0,-230,-56,-451c0,0,-48,-191,-134,-335C499,236,412,92,295,-5c0,0,-84,-73,-194,-118Z" 
id="f2_56"
transform="scale(0.001,-0.001)" />

<path d="M536,-22L130,941L17,960v40H421V960L287,941L590,205L892,941L761,960v40h325V960L976,941L574,-22Z" 
id="f3_1m"
transform="scale(0.001,-0.001)" />

<path d="M431,0V33L535,52V499c0,0,0,62,-32,96c0,0,-32,33,-95,33c0,0,-66,0,-163,-22V52L350,33V0H32V33l89,19V649L32,668v33H237l6,-57c0,0,56,32,119,54c0,0,62,22,110,22c0,0,52,0,95,-20c0,0,44,-19,66,-62c0,0,57,32,134,57c0,0,77,25,128,25c0,0,179,0,179,-207V52l90,-19V0H846V33L950,52V499c0,0,0,129,-119,129c0,0,-19,0,-45,-3c0,0,-26,-3,-52,-7c0,0,-25,-4,-49,-8c0,0,-23,-5,-39,-8c0,0,13,-41,13,-89V52L764,33V0Z" 
id="f3_29"
transform="scale(0.001,-0.001)" />

<path d="M289,-14c0,0,-179,0,-179,205V649L20,668v33H233V200c0,0,0,-128,120,-128c0,0,92,0,173,23V649L420,668v33H649V52L738,33V0H533l-6,57C527,57,474,28,405,7c0,0,-69,-21,-116,-21Z" 
id="f3_2h"
transform="scale(0.001,-0.001)" />

<path d="M64,0V34L168,59V639H47v36l121,29v49c0,0,0,155,61,239c0,0,62,84,173,84c0,0,58,0,107,-15V908H472l-33,92c0,0,-26,16,-62,16c0,0,-47,0,-66,-42c0,0,-19,-42,-19,-157V701H478V639H292V59L443,34V0Z" 
id="f3_22"
transform="scale(0.001,-0.001)" />

<path d="M410,-14c0,0,-80,0,-162,14c0,0,-81,14,-144,38V270h48L178,134c0,0,28,-35,95,-62c0,0,68,-27,134,-27c0,0,104,0,163,53c0,0,58,54,58,148c0,0,0,54,-23,89c0,0,-22,35,-59,59c0,0,-37,24,-84,41c0,0,-47,17,-97,34c0,0,-49,17,-96,38c0,0,-47,21,-84,53c0,0,-37,32,-60,79c0,0,-23,48,-23,117c0,0,0,119,90,187c0,0,89,68,248,68c0,0,121,0,263,-32V771H654L628,893c0,0,-76,55,-188,55c0,0,-100,0,-156,-40c0,0,-56,-41,-56,-112c0,0,0,-49,22,-81c0,0,23,-32,60,-55c0,0,37,-22,84,-39c0,0,48,-16,97,-34c0,0,50,-17,97,-39c0,0,48,-22,85,-56c0,0,36,-34,59,-83c0,0,23,-49,23,-120c0,0,0,-145,-89,-224c0,0,-89,-79,-256,-79Z" 
id="f3_1j"
transform="scale(0.001,-0.001)" />

<path d="M58,-234v58c0,0,131,42,131,125c0,0,0,15,-11,27c0,0,-11,12,-38,25C140,1,89,27,89,75c0,0,0,40,25,61c0,0,26,21,65,21c0,0,48,0,77,-34c0,0,30,-34,30,-86c0,0,0,-101,-60,-170c0,0,-59,-69,-168,-101Z" 
id="f3_g"
transform="scale(0.001,-0.001)" />

<path d="M178,0L615,886H176L150,764H101v236H720V943L274,0Z" 
id="f3_r"
transform="scale(0.001,-0.001)" />

<path d="M595,60c0,0,141,0,206,102c0,0,65,102,65,340c0,0,0,236,-65,335c0,0,-65,100,-206,100c0,0,-142,0,-207,-100c0,0,-66,-99,-66,-335c0,0,0,-239,66,-340c0,0,65,-102,207,-102Zm0,-74c0,0,-253,0,-387,130C208,116,75,246,75,501c0,0,0,510,520,510c0,0,256,0,387,-129c0,0,132,-130,132,-381c0,0,0,-254,-133,-385C981,116,848,-14,595,-14Z" 
id="f6_1f"
transform="scale(0.001,-0.001)" />

<path d="M498,506c0,0,115,0,164,47c0,0,48,48,48,166c0,0,0,112,-46,156c0,0,-46,43,-169,43H390V506ZM793,0L514,423H390V74L518,54V0H36V54L154,74V926L26,945v55H504c0,0,221,0,330,-68c0,0,109,-68,109,-212c0,0,0,-215,-201,-276L1009,74L1117,54V0Z" 
id="f6_1i"
transform="scale(0.001,-0.001)" />

<path d="M113,-203V1060H454v-35L232,994V-138l222,-30v-35Z" 
id="f3_1r"
transform="scale(0.001,-0.001)" />

<path d="M55,-203v35l222,30V994L55,1025v35H395V-203Z" 
id="f3_1t"
transform="scale(0.001,-0.001)" />

<path d="M399,-14c0,0,-341,0,-341,370c0,0,0,175,87,269c0,0,87,95,249,95c0,0,101,0,220,-23V501H573L541,625c0,0,-62,35,-149,35c0,0,-200,0,-200,-304c0,0,0,-158,61,-225c0,0,61,-67,189,-67c0,0,109,0,189,24V43C631,43,595,16,530,1c0,0,-64,-15,-131,-15Z" 
id="f3_1z"
transform="scale(0.001,-0.001)" />

<path d="M-15,-329c0,0,-61,0,-112,13l28,152h34l12,-72c0,0,18,-17,60,-17c0,0,100,0,212,202L253,9L116,649L33,668l6,33H230L338,155L513,458c0,0,48,83,48,144c0,0,0,27,-16,44c0,0,-15,16,-33,22l6,33H659c0,0,20,-17,20,-47c0,0,0,-59,-62,-164L322,-7c0,0,-86,-145,-135,-205c0,0,-50,-61,-98,-89c0,0,-49,-28,-104,-28Z" 
id="f5_2l"
transform="scale(0.001,-0.001)" />

<path d="M398,0C398,0,266,0,185,39c0,0,-82,39,-133,124C52,163,0,248,0,342c0,0,0,144,103,243c0,0,103,98,292,98H694V611H387c0,0,-99,0,-166,-32c0,0,-68,-32,-105,-88c0,0,-26,-40,-41,-113H694V304H75c0,0,30,-120,103,-176c0,0,73,-56,210,-56H694V0Z" 
id="f2_40"
transform="scale(0.001,-0.001)" />


</defs>
</svg>