<?xml version="1.0" encoding="UTF-8" standalone="no"?>
<!DOCTYPE svg PUBLIC "-//W3C//DTD SVG 1.1//EN"
"http://www.w3.org/Graphics/SVG/1.1/DTD/svg11.dtd">
<svg viewBox="0 0 909 1286" version="1.1" xmlns="http://www.w3.org/2000/svg" xmlns:xlink="http://www.w3.org/1999/xlink">
<defs>
<clipPath id="c0_8"><path d="M190.3,150.3v-29h6.4v29Z" /></clipPath>
<clipPath id="c1_8"><path d="M150.9,157.4V121.3h5.5v36.1Z" /></clipPath>
<clipPath id="c2_8"><path d="M274.6,150.3v-29H281v29Z" /></clipPath>
<clipPath id="c3_8"><path d="M235,157.4V121.3h5.5v36.1Z" /></clipPath>
<clipPath id="c4_8"><path d="M420.4,150.3v-29h6.4v29Z" /></clipPath>
<clipPath id="c5_8"><path d="M390.3,157.4V121.3h5.5v36.1Z" /></clipPath>
<clipPath id="c6_8"><path d="M550.7,150.3v-29h6.5v29Z" /></clipPath>
<clipPath id="c7_8"><path d="M501.6,157.4V121.3h5.5v36.1Z" /></clipPath>
<clipPath id="c8_8"><path d="M189,207.3v-29h6.4v29Z" /></clipPath>
<clipPath id="c9_8"><path d="M147.4,214.4V178.3h5.5v36.1Z" /></clipPath>
<clipPath id="c10_8"><path d="M271,207.3v-29h6.4v29Z" /></clipPath>
<clipPath id="c11_8"><path d="M232.5,214.4V178.3H238v36.1Z" /></clipPath>
<clipPath id="c12_8"><path d="M174.4,261.9V233h6.4v28.9Z" /></clipPath>
<clipPath id="c13_8"><path d="M142.3,269.1V233h5.5v36.1Z" /></clipPath>
<clipPath id="c14_8"><path d="M301.4,261.9V233h6.4v28.9Z" /></clipPath>
<clipPath id="c15_8"><path d="M253.4,269.1V233h5.5v36.1Z" /></clipPath>
<clipPath id="c16_8"><path d="M211.9,318.6v-29h6.4v29Z" /></clipPath>
<clipPath id="c17_8"><path d="M183.1,325.7V289.6h5.5v36.1Z" /></clipPath>
<clipPath id="c18_8"><path d="M314.2,318.6v-29h6.4v29Z" /></clipPath>
<clipPath id="c19_8"><path d="M276.1,325.7V289.6h5.5v36.1Z" /></clipPath>
<clipPath id="c20_8"><path d="M396.2,318.6v-29h6.4v29Z" /></clipPath>
<clipPath id="c21_8"><path d="M219.8,383.1V354.5h6.6v28.6Z" /></clipPath>
<style type="text/css"><![CDATA[
.g0_8{
fill: none;
stroke: #000000;
stroke-width: 0.91208345;
stroke-linecap: round;
stroke-linejoin: round;
}
.g1_8{
fill: none;
stroke: #000000;
stroke-width: 0.92583334;
stroke-linecap: round;
stroke-linejoin: round;
}
.g2_8{
fill: none;
stroke: #000000;
stroke-width: 0.91513896;
stroke-linecap: round;
stroke-linejoin: round;
}
.g3_8{
fill: none;
stroke: #000000;
stroke-width: 0.18333334;
stroke-linecap: butt;
stroke-linejoin: miter;
stroke-miterlimit: 2;
}
.g4_8{
}
.g5_8{
fill: none;
stroke: #000000;
stroke-width: 0.9105556;
stroke-linecap: round;
stroke-linejoin: round;
}
.g6_8{
fill: none;
stroke: #000000;
stroke-width: 0.9090278;
stroke-linecap: round;
stroke-linejoin: round;
}
.g7_8{
fill: none;
stroke: #000000;
stroke-width: 0.9029167;
stroke-linecap: round;
stroke-linejoin: round;
}
.g8_8{
fill: none;
stroke: #000000;
stroke-width: 0.90444446;
stroke-linecap: round;
stroke-linejoin: round;
}
]]></style>
</defs>
<g fill="#000000" >
<use xlink:href="#f0_l" transform="matrix(12,0,0,12,64.9,101.3)" />
<use xlink:href="#f0_p" transform="matrix(12,0,0,12,74.1,101.3)" />
<use xlink:href="#f0_i" transform="matrix(12,0,0,12,83.2,101.3)" />
<use xlink:href="#f0_16" transform="matrix(12,0,0,12,121.9,101.3)" />
<use xlink:href="#f0_25" transform="matrix(12,0,0,12,131.6,101.3)" />
<use xlink:href="#f0_2a" transform="matrix(12,0,0,12,136.6,101.3)" />
<use xlink:href="#f0_20" transform="matrix(12,0,0,12,145.4,101.3)" />
<use xlink:href="#f0_2g" transform="matrix(12,0,0,12,157.5,101.3)" />
<use xlink:href="#f0_24" transform="matrix(12,0,0,12,162.3,101.3)" />
<use xlink:href="#f0_21" transform="matrix(12,0,0,12,171.1,101.3)" />
<use xlink:href="#f0_2f" transform="matrix(12,0,0,12,182.1,101.3)" />
<use xlink:href="#f0_24" transform="matrix(12,0,0,12,188.8,101.3)" />
<use xlink:href="#f0_2b" transform="matrix(12,0,0,12,197.6,101.3)" />
<use xlink:href="#f0_2e" transform="matrix(12,0,0,12,206.6,101.3)" />
<use xlink:href="#f0_2g" transform="matrix(12,0,0,12,212.3,101.3)" />
<use xlink:href="#f0_21" transform="matrix(12,0,0,12,217.1,101.3)" />
<use xlink:href="#f0_2f" transform="matrix(12,0,0,12,225,101.3)" />
<use xlink:href="#f0_2g" transform="matrix(12,0,0,12,231.7,101.3)" />
<use xlink:href="#f0_20" transform="matrix(12,0,0,12,239.6,101.3)" />
<use xlink:href="#f0_25" transform="matrix(12,0,0,12,248.4,101.3)" />
<use xlink:href="#f0_2f" transform="matrix(12,0,0,12,253.2,101.3)" />
<use xlink:href="#f0_2g" transform="matrix(12,0,0,12,260.2,101.3)" />
<use xlink:href="#f0_1x" transform="matrix(12,0,0,12,264.9,101.3)" />
<use xlink:href="#f0_2a" transform="matrix(12,0,0,12,272.6,101.3)" />
<use xlink:href="#f0_1z" transform="matrix(12,0,0,12,281.6,101.3)" />
<use xlink:href="#f0_21" transform="matrix(12,0,0,12,289.3,101.3)" />
<use xlink:href="#f0_1y" transform="matrix(12,0,0,12,300.3,101.3)" />
<use xlink:href="#f0_21" transform="matrix(12,0,0,12,309.1,101.3)" />
<use xlink:href="#f0_2g" transform="matrix(12,0,0,12,316.8,101.3)" />
<use xlink:href="#f0_2j" transform="matrix(12,0,0,12,321.7,101.3)" />
<use xlink:href="#f0_21" transform="matrix(12,0,0,12,334.6,101.3)" />
<use xlink:href="#f0_21" transform="matrix(12,0,0,12,342.3,101.3)" />
<use xlink:href="#f0_2a" transform="matrix(12,0,0,12,350,101.3)" />
<use xlink:href="#f0_2g" transform="matrix(12,0,0,12,362.1,101.3)" />
<use xlink:href="#f0_24" transform="matrix(12,0,0,12,366.8,101.3)" />
<use xlink:href="#f0_21" transform="matrix(12,0,0,12,375.8,101.3)" />
<use xlink:href="#f0_28" transform="matrix(12,0,0,12,386.6,101.3)" />
<use xlink:href="#f0_25" transform="matrix(12,0,0,12,391.6,101.3)" />
<use xlink:href="#f0_2a" transform="matrix(12,0,0,12,396.4,101.3)" />
<use xlink:href="#f0_21" transform="matrix(12,0,0,12,405.2,101.3)" />
<use xlink:href="#f0_2f" transform="matrix(12,0,0,12,413,101.3)" />
<use xlink:href="#f0_i" transform="matrix(12,0,0,12,419.8,101.3)" />
</g>
<g clip-path="url(#c0_8)">
<g fill="#000000" >
<use xlink:href="#f1_4" transform="matrix(13.1,0,0,12.1,190.3,139.6)" />
</g>
</g>
<g clip-path="url(#c1_8)">
<g fill="#000000" >
<use xlink:href="#f2_c" transform="matrix(11.8,0,0,22.6,150.9,149.7)" />
</g>
</g>
<g fill="#000000" >
<use xlink:href="#f2_d" transform="matrix(11.8,0,0,22.6,199.7,149.7)" />
</g>
<g clip-path="url(#c2_8)">
<g fill="#000000" >
<use xlink:href="#f1_4" transform="matrix(13.1,0,0,12.1,274.6,139.6)" />
</g>
</g>
<g fill="#000000" >
<use xlink:href="#f1_4" transform="matrix(13.7,0,0,12.1,308.6,139.6)" />
</g>
<g clip-path="url(#c3_8)">
<g fill="#000000" >
<use xlink:href="#f2_c" transform="matrix(11.8,0,0,22.6,235,149.7)" />
</g>
</g>
<g fill="#000000" >
<use xlink:href="#f2_d" transform="matrix(11.8,0,0,22.6,318.1,149.7)" />
<use xlink:href="#f0_o" transform="matrix(12.1,0,0,12.1,158.6,146.1)" />
<use xlink:href="#f0_m" transform="matrix(12.1,0,0,12.1,264,146.1)" />
<use xlink:href="#f0_n" transform="matrix(12.1,0,0,12.1,298.4,146.1)" />
<use xlink:href="#f3_2e" transform="matrix(12.1,0,0,12.1,124.9,146.1)" />
<use xlink:href="#f3_25" transform="matrix(12.1,0,0,12.1,167.4,146.1)" />
<use xlink:href="#f3_26" transform="matrix(12.1,0,0,12.1,192.7,146.1)" />
<use xlink:href="#f3_25" transform="matrix(12.1,0,0,12.1,242,146.1)" />
<use xlink:href="#f3_26" transform="matrix(12.1,0,0,12.1,277,146.1)" />
<use xlink:href="#f3_27" transform="matrix(12.1,0,0,12.1,307.4,146.1)" />
<use xlink:href="#f4_28" transform="matrix(12.1,0,-3.3,12.1,221.8,146.1)" />
<use xlink:href="#f2_x" transform="matrix(12.1,0,0,12.1,137.1,146.1)" />
<use xlink:href="#f2_h" transform="matrix(12.1,0,0,12.1,176,146.1)" />
<use xlink:href="#f2_f" transform="matrix(12.1,0,0,12.1,208.6,146.1)" />
<use xlink:href="#f2_f" transform="matrix(12.1,0,0,12.1,250.6,146.1)" />
<use xlink:href="#f2_h" transform="matrix(12.1,0,0,12.1,285.8,146.1)" />
<use xlink:href="#f1_20" transform="matrix(12.1,0,0,12.1,125,129.6)" />
<use xlink:href="#f1_4" transform="matrix(12.1,0,0,12.1,167.2,139.6)" />
<use xlink:href="#f1_4" transform="matrix(12.1,0,0,12.1,241.6,139.6)" />
<use xlink:href="#f0_1x" transform="matrix(12,0,0,12,330.9,148.1)" />
<use xlink:href="#f0_2a" transform="matrix(12,0,0,12,339,148.1)" />
<use xlink:href="#f0_20" transform="matrix(12,0,0,12,348.2,148.1)" />
</g>
<g clip-path="url(#c4_8)">
<g fill="#000000" >
<use xlink:href="#f1_4" transform="matrix(13.1,0,0,12.1,420.4,139.6)" />
</g>
</g>
<g fill="#000000" >
<use xlink:href="#f1_4" transform="matrix(13.7,0,0,12.1,455.6,139.6)" />
</g>
<g clip-path="url(#c5_8)">
<g fill="#000000" >
<use xlink:href="#f2_c" transform="matrix(11.8,0,0,22.6,390.3,149.7)" />
</g>
</g>
<g fill="#000000" >
<use xlink:href="#f2_d" transform="matrix(11.8,0,0,22.6,465.1,149.7)" />
</g>
<g clip-path="url(#c6_8)">
<g fill="#000000" >
<use xlink:href="#f1_4" transform="matrix(13.1,0,0,12.1,550.7,139.6)" />
</g>
</g>
<g fill="#000000" >
<use xlink:href="#f1_4" transform="matrix(13.7,0,0,12.1,585,139.6)" />
</g>
<g clip-path="url(#c7_8)">
<g fill="#000000" >
<use xlink:href="#f2_c" transform="matrix(11.8,0,0,22.6,501.6,149.7)" />
</g>
</g>
<g fill="#000000" >
<use xlink:href="#f2_d" transform="matrix(11.8,0,0,22.6,594.6,149.7)" />
<use xlink:href="#f0_m" transform="matrix(12.1,0,0,12.1,445,146.1)" />
<use xlink:href="#f0_m" transform="matrix(12.1,0,0,12.1,509.1,146.1)" />
<use xlink:href="#f0_o" transform="matrix(12.1,0,0,12.1,540.1,146.1)" />
<use xlink:href="#f0_p" transform="matrix(12.1,0,0,12.1,574.5,146.1)" />
<use xlink:href="#f3_2e" transform="matrix(12.1,0,0,12.1,364.3,146.1)" />
<use xlink:href="#f3_25" transform="matrix(12.1,0,0,12.1,397.3,146.1)" />
<use xlink:href="#f3_26" transform="matrix(12.1,0,0,12.1,422.6,146.1)" />
<use xlink:href="#f3_27" transform="matrix(12.1,0,0,12.1,454.5,146.1)" />
<use xlink:href="#f3_25" transform="matrix(12.1,0,0,12.1,518,146.1)" />
<use xlink:href="#f3_26" transform="matrix(12.1,0,0,12.1,553.1,146.1)" />
<use xlink:href="#f3_27" transform="matrix(12.1,0,0,12.1,583.7,146.1)" />
<use xlink:href="#f4_29" transform="matrix(12.1,0,-3.3,12.1,487.9,146.1)" />
<use xlink:href="#f2_x" transform="matrix(12.1,0,0,12.1,376.6,146.1)" />
<use xlink:href="#f2_h" transform="matrix(12.1,0,0,12.1,405.9,146.1)" />
<use xlink:href="#f2_f" transform="matrix(12.1,0,0,12.1,431.5,146.1)" />
<use xlink:href="#f2_f" transform="matrix(12.1,0,0,12.1,474.1,146.1)" />
<use xlink:href="#f2_f" transform="matrix(12.1,0,0,12.1,526.7,146.1)" />
<use xlink:href="#f2_h" transform="matrix(12.1,0,0,12.1,561.9,146.1)" />
<use xlink:href="#f1_20" transform="matrix(12.1,0,0,12.1,364.5,129.6)" />
<use xlink:href="#f1_4" transform="matrix(12.1,0,0,12.1,397.1,139.6)" />
<use xlink:href="#f1_4" transform="matrix(12.1,0,0,12.1,517.7,139.6)" />
<use xlink:href="#f0_1j" transform="matrix(12,0,0,12,64.9,205.1)" />
<use xlink:href="#f0_2b" transform="matrix(12,0,0,12,74.1,205.1)" />
<use xlink:href="#f0_28" transform="matrix(12,0,0,12,82.1,205.1)" />
<use xlink:href="#f0_u" transform="matrix(12,0,0,12,86.2,205.1)" />
</g>
<path d="M125,185.8h7.1" class="g0_8" />
<g clip-path="url(#c8_8)">
<g fill="#000000" >
<use xlink:href="#f1_4" transform="matrix(13,0,0,12.1,189,196.7)" />
</g>
</g>
<g clip-path="url(#c9_8)">
<g fill="#000000" >
<use xlink:href="#f2_c" transform="matrix(11.8,0,0,22.6,147.4,206.7)" />
</g>
</g>
<g fill="#000000" >
<use xlink:href="#f2_d" transform="matrix(11.8,0,0,22.6,198.4,206.7)" />
</g>
<g clip-path="url(#c10_8)">
<g fill="#000000" >
<use xlink:href="#f1_4" transform="matrix(13,0,0,12.1,271,196.7)" />
</g>
</g>
<g fill="#000000" >
<use xlink:href="#f1_4" transform="matrix(13.6,0,0,12.1,303.8,196.7)" />
</g>
<g clip-path="url(#c11_8)">
<g fill="#000000" >
<use xlink:href="#f2_c" transform="matrix(11.8,0,0,22.6,232.5,206.7)" />
</g>
</g>
<g fill="#000000" >
<use xlink:href="#f2_d" transform="matrix(11.8,0,0,22.6,313.3,206.7)" />
</g>
<path d="M334.5,185.8h8.6m27.8,0h7.8" class="g0_8" />
<g fill="#000000" >
<use xlink:href="#f0_o" transform="matrix(12.1,0,0,12.1,154.9,203.1)" />
<use xlink:href="#f0_m" transform="matrix(12.1,0,0,12.1,260.3,203.1)" />
<use xlink:href="#f0_n" transform="matrix(12.1,0,0,12.1,293.7,203.1)" />
<use xlink:href="#f0_c" transform="matrix(12.1,0,0,12.1,391.7,203.1)" />
<use xlink:href="#f0_2f" transform="matrix(12.1,0,0,12.1,397.8,203.1)" />
<use xlink:href="#f0_1x" transform="matrix(12.1,0,0,12.1,404.9,203.1)" />
<use xlink:href="#f0_2l" transform="matrix(12.1,0,0,12.1,413,203.1)" />
<use xlink:href="#f0_d" transform="matrix(12.1,0,0,12.1,422.6,203.1)" />
<use xlink:href="#f3_2e" transform="matrix(12.1,0,0,12.1,124.7,203.1)" />
<use xlink:href="#f3_25" transform="matrix(12.1,0,0,12.1,163.7,203.1)" />
<use xlink:href="#f3_26" transform="matrix(12.1,0,0,12.1,191.4,203.1)" />
<use xlink:href="#f3_25" transform="matrix(12.1,0,0,12.1,239.4,203.1)" />
<use xlink:href="#f3_26" transform="matrix(12.1,0,0,12.1,273.3,203.1)" />
<use xlink:href="#f3_27" transform="matrix(12.1,0,0,12.1,302.4,203.1)" />
<use xlink:href="#f3_1x" transform="matrix(12.1,0,0,12.1,334.1,203.1)" />
<use xlink:href="#f3_1y" transform="matrix(12.1,0,0,12.1,369.9,203.1)" />
<use xlink:href="#f4_28" transform="matrix(12.1,0,-3.3,12.1,219.3,203.1)" />
<use xlink:href="#f4_28" transform="matrix(12.1,0,-3.3,12.1,358.8,203.1)" />
<use xlink:href="#f2_x" transform="matrix(12.1,0,0,12.1,135.3,203.1)" />
<use xlink:href="#f2_h" transform="matrix(12.1,0,0,12.1,175.3,203.1)" />
<use xlink:href="#f2_f" transform="matrix(12.1,0,0,12.1,206.6,203.1)" />
<use xlink:href="#f2_f" transform="matrix(12.1,0,0,12.1,247.5,203.1)" />
<use xlink:href="#f2_h" transform="matrix(12.1,0,0,12.1,281.6,203.1)" />
<use xlink:href="#f2_x" transform="matrix(12.1,0,0,12.1,321.5,203.1)" />
<use xlink:href="#f2_f" transform="matrix(12.1,0,0,12.1,346.3,203.1)" />
<use xlink:href="#f1_4" transform="matrix(12.1,0,0,12.1,165.2,196.7)" />
<use xlink:href="#f1_4" transform="matrix(12.1,0,0,12.1,239,196.7)" />
</g>
<path d="M119.8,240.4H127" class="g0_8" />
<g clip-path="url(#c12_8)">
<g fill="#000000" >
<use xlink:href="#f1_4" transform="matrix(13,0,0,12.1,174.4,251.3)" />
</g>
</g>
<g fill="#000000" >
<use xlink:href="#f1_4" transform="matrix(13.6,0,0,12.1,208.6,251.3)" />
</g>
<g clip-path="url(#c13_8)">
<g fill="#000000" >
<use xlink:href="#f2_c" transform="matrix(11.8,0,0,22.6,142.3,261.4)" />
</g>
</g>
<g fill="#000000" >
<use xlink:href="#f2_d" transform="matrix(11.8,0,0,22.6,218.2,261.4)" />
</g>
<g clip-path="url(#c14_8)">
<g fill="#000000" >
<use xlink:href="#f1_4" transform="matrix(13,0,0,12.1,301.4,251.3)" />
</g>
</g>
<g fill="#000000" >
<use xlink:href="#f1_4" transform="matrix(13.6,0,0,12.1,334.4,251.3)" />
</g>
<g clip-path="url(#c15_8)">
<g fill="#000000" >
<use xlink:href="#f2_c" transform="matrix(11.8,0,0,22.6,253.4,261.4)" />
</g>
</g>
<g fill="#000000" >
<use xlink:href="#f2_d" transform="matrix(11.8,0,0,22.6,343.9,261.4)" />
</g>
<path d="M365.2,240.4h7.1m29,0h10" class="g0_8" />
<g fill="#000000" >
<use xlink:href="#f0_m" transform="matrix(12.1,0,0,12.1,198,257.7)" />
<use xlink:href="#f0_m" transform="matrix(12.1,0,0,12.1,260.9,257.7)" />
<use xlink:href="#f0_o" transform="matrix(12.1,0,0,12.1,290.7,257.7)" />
<use xlink:href="#f0_p" transform="matrix(12.1,0,0,12.1,324.1,257.7)" />
<use xlink:href="#f0_c" transform="matrix(12.1,0,0,12.1,424.6,257.7)" />
<use xlink:href="#f0_2f" transform="matrix(12.1,0,0,12.1,430.6,257.7)" />
<use xlink:href="#f0_1x" transform="matrix(12.1,0,0,12.1,437.8,257.7)" />
<use xlink:href="#f0_2l" transform="matrix(12.1,0,0,12.1,445.7,257.7)" />
<use xlink:href="#f0_d" transform="matrix(12.1,0,0,12.1,455.2,257.7)" />
<use xlink:href="#f3_2e" transform="matrix(12.1,0,0,12.1,119.5,257.7)" />
<use xlink:href="#f3_25" transform="matrix(12.1,0,0,12.1,149.2,257.7)" />
<use xlink:href="#f3_26" transform="matrix(12.1,0,0,12.1,176.7,257.7)" />
<use xlink:href="#f3_27" transform="matrix(12.1,0,0,12.1,207.3,257.7)" />
<use xlink:href="#f3_25" transform="matrix(12.1,0,0,12.1,269.8,257.7)" />
<use xlink:href="#f3_26" transform="matrix(12.1,0,0,12.1,303.7,257.7)" />
<use xlink:href="#f3_27" transform="matrix(12.1,0,0,12.1,333.2,257.7)" />
<use xlink:href="#f3_1z" transform="matrix(12.1,0,0,12.1,364.6,257.7)" />
<use xlink:href="#f3_20" transform="matrix(12.1,0,0,12.1,400.8,257.7)" />
<use xlink:href="#f4_29" transform="matrix(12.1,0,-3.3,12.1,239.6,257.7)" />
<use xlink:href="#f4_29" transform="matrix(12.1,0,-3.3,12.1,388.7,257.7)" />
<use xlink:href="#f2_x" transform="matrix(12.1,0,0,12.1,130.2,257.7)" />
<use xlink:href="#f2_h" transform="matrix(12.1,0,0,12.1,160.6,257.7)" />
<use xlink:href="#f2_f" transform="matrix(12.1,0,0,12.1,185,257.7)" />
<use xlink:href="#f2_f" transform="matrix(12.1,0,0,12.1,226.4,257.7)" />
<use xlink:href="#f2_f" transform="matrix(12.1,0,0,12.1,277.9,257.7)" />
<use xlink:href="#f2_h" transform="matrix(12.1,0,0,12.1,312,257.7)" />
<use xlink:href="#f2_x" transform="matrix(12.1,0,0,12.1,352.1,257.7)" />
<use xlink:href="#f2_f" transform="matrix(12.1,0,0,12.1,375.4,257.7)" />
<use xlink:href="#f1_4" transform="matrix(12.1,0,0,12.1,150.7,251.3)" />
<use xlink:href="#f1_4" transform="matrix(12.1,0,0,12.1,269.5,251.3)" />
</g>
<path d="M136.2,297.1h7.2m16,0H168" class="g0_8" />
<g clip-path="url(#c16_8)">
<g fill="#000000" >
<use xlink:href="#f1_4" transform="matrix(13,0,0,12.1,211.9,307.9)" />
</g>
</g>
<g fill="#000000" >
<use xlink:href="#f1_4" transform="matrix(13.6,0,0,12.1,246.2,307.9)" />
</g>
<g clip-path="url(#c17_8)">
<g fill="#000000" >
<use xlink:href="#f2_c" transform="matrix(11.8,0,0,22.6,183.2,318)" />
</g>
</g>
<g fill="#000000" >
<use xlink:href="#f2_d" transform="matrix(11.8,0,0,22.6,255.8,318)" />
</g>
<g clip-path="url(#c18_8)">
<g fill="#000000" >
<use xlink:href="#f1_4" transform="matrix(13,0,0,12.1,314.2,307.9)" />
</g>
</g>
<g clip-path="url(#c19_8)">
<g fill="#000000" >
<use xlink:href="#f2_c" transform="matrix(11.8,0,0,22.6,276.1,318)" />
</g>
</g>
<g fill="#000000" >
<use xlink:href="#f2_d" transform="matrix(11.8,0,0,22.6,323.6,318)" />
</g>
<g clip-path="url(#c20_8)">
<g fill="#000000" >
<use xlink:href="#f1_4" transform="matrix(13,0,0,12.1,396.2,307.9)" />
</g>
</g>
<g fill="#000000" >
<use xlink:href="#f1_4" transform="matrix(13.6,0,0,12.1,430.3,307.9)" />
<use xlink:href="#f0_m" transform="matrix(12.1,0,0,12.1,235.6,314.4)" />
<use xlink:href="#f0_o" transform="matrix(12.1,0,0,12.1,283.6,314.4)" />
<use xlink:href="#f0_n" transform="matrix(12.1,0,0,12.1,356.5,314.4)" />
<use xlink:href="#f0_k" transform="matrix(12.1,0,0,12.1,385.5,314.4)" />
<use xlink:href="#f0_m" transform="matrix(12.1,0,0,12.1,419.6,314.4)" />
<use xlink:href="#f3_1z" transform="matrix(12.1,0,0,12.1,135.7,314.4)" />
<use xlink:href="#f3_1x" transform="matrix(12.1,0,0,12.1,159.1,314.4)" />
<use xlink:href="#f3_25" transform="matrix(12.1,0,0,12.1,190.3,314.4)" />
<use xlink:href="#f3_26" transform="matrix(12.1,0,0,12.1,214.3,314.4)" />
<use xlink:href="#f3_27" transform="matrix(12.1,0,0,12.1,244.9,314.4)" />
<use xlink:href="#f3_25" transform="matrix(12.1,0,0,12.1,292.5,314.4)" />
<use xlink:href="#f3_26" transform="matrix(12.1,0,0,12.1,316.5,314.4)" />
<use xlink:href="#f3_25" transform="matrix(12.1,0,0,12.1,364.7,314.4)" />
<use xlink:href="#f3_26" transform="matrix(12.1,0,0,12.1,398.3,314.4)" />
<use xlink:href="#f3_27" transform="matrix(12.1,0,0,12.1,429.1,314.4)" />
<use xlink:href="#f2_1s" transform="matrix(12.1,0,0,12.1,116.8,314.4)" />
<use xlink:href="#f2_h" transform="matrix(12.1,0,0,12.1,146.5,314.4)" />
<use xlink:href="#f2_x" transform="matrix(12.1,0,0,12.1,171.2,314.4)" />
<use xlink:href="#f2_h" transform="matrix(12.1,0,0,12.1,198.2,314.4)" />
<use xlink:href="#f2_f" transform="matrix(12.1,0,0,12.1,222.5,314.4)" />
<use xlink:href="#f2_h" transform="matrix(12.1,0,0,12.1,263.9,314.4)" />
<use xlink:href="#f2_h" transform="matrix(12.1,0,0,12.1,300.4,314.4)" />
<use xlink:href="#f2_x" transform="matrix(12.1,0,0,12.1,331.7,314.4)" />
<use xlink:href="#f2_h" transform="matrix(12.1,0,0,12.1,344.4,314.4)" />
<use xlink:href="#f2_f" transform="matrix(12.1,0,0,12.1,372.8,314.4)" />
<use xlink:href="#f2_f" transform="matrix(12.1,0,0,12.1,406.7,314.4)" />
<use xlink:href="#f1_4" transform="matrix(12.1,0,0,12.1,189.9,307.9)" />
<use xlink:href="#f1_4" transform="matrix(12.1,0,0,12.1,292.2,307.9)" />
<use xlink:href="#f1_4" transform="matrix(12.1,0,0,12.1,364.6,307.9)" />
</g>
<path d="M136.9,389.6h8m14.8,0h10.4" class="g1_8" />
<g clip-path="url(#c21_8)">
<g fill="#000000" >
<use xlink:href="#f1_4" transform="matrix(13.5,0,0,12.1,219.8,372.7)" />
</g>
</g>
<g fill="#000000" >
<use xlink:href="#f1_4" transform="matrix(14.1,0,0,12.1,252.1,372.7)" />
</g>
<path d="M188.9,358.9v86.3m78.3,-86.3v86.3" class="g1_8" />
<g fill="#000000" >
<use xlink:href="#f1_4" transform="matrix(13.5,0,0,12.1,323,400.3)" />
<use xlink:href="#f1_4" transform="matrix(14.1,0,0,12.1,358.1,400.3)" />
<use xlink:href="#f0_l" transform="matrix(12.1,0,0,12.1,191,406.8)" />
<use xlink:href="#f0_m" transform="matrix(12.1,0,0,12.1,218.7,406.8)" />
<use xlink:href="#f0_n" transform="matrix(12.1,0,0,12.1,256.6,406.8)" />
<use xlink:href="#f0_m" transform="matrix(12.1,0,0,12.1,291.3,406.8)" />
<use xlink:href="#f0_k" transform="matrix(12.1,0,0,12.1,347,406.8)" />
<use xlink:href="#f0_m" transform="matrix(12.1,0,0,12.1,191.2,434.3)" />
<use xlink:href="#f0_o" transform="matrix(12.1,0,0,12.1,218.7,434.3)" />
<use xlink:href="#f0_p" transform="matrix(12.1,0,0,12.1,256.5,434.3)" />
<use xlink:href="#f3_25" transform="matrix(12.1,0,0,12.1,192.7,379.1)" />
<use xlink:href="#f3_26" transform="matrix(12.1,0,0,12.1,222.2,379.1)" />
<use xlink:href="#f3_27" transform="matrix(12.1,0,0,12.1,251,379.1)" />
<use xlink:href="#f3_1y" transform="matrix(12.1,0,0,12.1,136,406.8)" />
<use xlink:href="#f3_20" transform="matrix(12.1,0,0,12.1,159.5,406.8)" />
<use xlink:href="#f3_25" transform="matrix(12.1,0,0,12.1,300.5,406.8)" />
<use xlink:href="#f3_26" transform="matrix(12.1,0,0,12.1,325.4,406.8)" />
<use xlink:href="#f3_27" transform="matrix(12.1,0,0,12.1,356.9,406.8)" />
<use xlink:href="#f2_1s" transform="matrix(12.1,0,0,12.1,116.6,406.8)" />
<use xlink:href="#f2_3a" transform="matrix(12.1,0,0,12.1,147,406.8)" />
<use xlink:href="#f2_x" transform="matrix(12.1,0,0,12.1,173.4,406.8)" />
<use xlink:href="#f2_h" transform="matrix(12.1,0,0,12.1,246.2,406.8)" />
<use xlink:href="#f2_x" transform="matrix(12.1,0,0,12.1,274.8,406.8)" />
<use xlink:href="#f2_h" transform="matrix(12.1,0,0,12.1,308.8,406.8)" />
<use xlink:href="#f2_f" transform="matrix(12.1,0,0,12.1,333.9,406.8)" />
<use xlink:href="#f2_h" transform="matrix(12.1,0,0,12.1,246.2,434.3)" />
<use xlink:href="#f1_4" transform="matrix(12.1,0,0,12.1,192.5,372.7)" />
<use xlink:href="#f1_4" transform="matrix(12.1,0,0,12.1,300.3,400.3)" />
</g>
<path d="M125.9,477.3h7.7m14.4,0h10.1" class="g2_8" />
<path d="M180.3,492.7l1.9,-1.2m0,0l4.4,8.9m0,0l4.9,-23.6m0,0H230" class="g3_8" />
<path fill-rule="evenodd" d="M180.2,492.5l2.5,-1.7l3.9,7.5l4.6,-22H230v.9H191.9l-4.8,23.2h-.9l-4.5,-8.2l-1.2,.8l-.3,-.5Z" class="g4_8" />
<path d="M246.2,490l1.9,-1m0,0l4.4,7.4m0,0l4.9,-19.6m0,0h9.7" class="g3_8" />
<path fill-rule="evenodd" d="M246,489.8l2.6,-1.4l4,6l4.5,-18.1h10v.9h-9.4L253,496.4h-.9l-4.5,-6.9l-1.3,.8l-.3,-.5Z" class="g4_8" />
<g fill="#000000" >
<use xlink:href="#f0_2o" transform="matrix(12.2,0,0,12.2,118.4,494.6)" />
<use xlink:href="#f0_2o" transform="matrix(12.2,0,0,12.2,161.7,494.6)" />
<use xlink:href="#f0_o" transform="matrix(12.2,0,0,12.2,192.3,494.6)" />
<use xlink:href="#f0_l" transform="matrix(12.2,0,0,12.2,221.6,494.6)" />
<use xlink:href="#f0_p" transform="matrix(12.2,0,0,12.2,257.5,494.6)" />
<use xlink:href="#f3_1y" transform="matrix(12.2,0,0,12.2,125,494.6)" />
<use xlink:href="#f3_20" transform="matrix(12.2,0,0,12.2,147.8,494.6)" />
<use xlink:href="#f2_3a" transform="matrix(12.2,0,0,12.2,135.7,494.6)" />
<use xlink:href="#f2_x" transform="matrix(12.2,0,0,12.2,167.2,494.6)" />
<use xlink:href="#f2_f" transform="matrix(12.2,0,0,12.2,207.3,494.6)" />
<use xlink:href="#f2_x" transform="matrix(12.2,0,0,12.2,233.2,494.6)" />
</g>
<path d="M272.9,526.8h7.2m16,0h8.6m21.5,0h7.7m14.3,0h10.1m-58.8,26.9h7.8m14.3,0h10m-66.4,-2.8H366m-103.4,-26V577M368.2,524.9V577" class="g5_8" />
<g fill="#000000" >
<use xlink:href="#f0_c" transform="matrix(12.1,0,0,12.1,266,543.9)" />
<use xlink:href="#f0_d" transform="matrix(12.1,0,0,12.1,305.6,543.9)" />
<use xlink:href="#f0_c" transform="matrix(12.1,0,0,12.1,319.4,543.9)" />
<use xlink:href="#f0_d" transform="matrix(12.1,0,0,12.1,359.1,543.9)" />
<use xlink:href="#f0_1j" transform="matrix(12.1,0,0,12.1,118.6,555.6)" />
<use xlink:href="#f0_24" transform="matrix(12.1,0,0,12.1,129.1,555.6)" />
<use xlink:href="#f0_2b" transform="matrix(12.1,0,0,12.1,138.2,555.6)" />
<use xlink:href="#f0_2e" transform="matrix(12.1,0,0,12.1,147.4,555.6)" />
<use xlink:href="#f0_2g" transform="matrix(12.1,0,0,12.1,153.5,555.6)" />
<use xlink:href="#f0_21" transform="matrix(12.1,0,0,12.1,158.6,555.6)" />
<use xlink:href="#f0_2f" transform="matrix(12.1,0,0,12.1,166.5,555.6)" />
<use xlink:href="#f0_2g" transform="matrix(12.1,0,0,12.1,173.7,555.6)" />
<use xlink:href="#f0_20" transform="matrix(12.1,0,0,12.1,185.2,555.6)" />
<use xlink:href="#f0_25" transform="matrix(12.1,0,0,12.1,194.4,555.6)" />
<use xlink:href="#f0_2f" transform="matrix(12.1,0,0,12.1,199.5,555.6)" />
<use xlink:href="#f0_2g" transform="matrix(12.1,0,0,12.1,206.7,555.6)" />
<use xlink:href="#f0_1x" transform="matrix(12.1,0,0,12.1,211.8,555.6)" />
<use xlink:href="#f0_2a" transform="matrix(12.1,0,0,12.1,219.9,555.6)" />
<use xlink:href="#f0_1z" transform="matrix(12.1,0,0,12.1,229.1,555.6)" />
<use xlink:href="#f0_21" transform="matrix(12.1,0,0,12.1,237.1,555.6)" />
<use xlink:href="#f0_2o" transform="matrix(12.1,0,0,12.1,292.1,570.8)" />
<use xlink:href="#f0_2o" transform="matrix(12.1,0,0,12.1,335.3,570.8)" />
<use xlink:href="#f3_1z" transform="matrix(12.1,0,0,12.1,272.2,543.9)" />
<use xlink:href="#f3_1x" transform="matrix(12.1,0,0,12.1,295.9,543.9)" />
<use xlink:href="#f3_1y" transform="matrix(12.1,0,0,12.1,325.4,543.9)" />
<use xlink:href="#f3_20" transform="matrix(12.1,0,0,12.1,347.9,543.9)" />
<use xlink:href="#f3_1y" transform="matrix(12.1,0,0,12.1,298.6,570.8)" />
<use xlink:href="#f3_20" transform="matrix(12.1,0,0,12.1,321.4,570.8)" />
<use xlink:href="#f2_h" transform="matrix(12.1,0,0,12.1,283.2,543.9)" />
<use xlink:href="#f2_49" transform="matrix(12.1,0,0,12.1,313.3,543.9)" />
<use xlink:href="#f2_3a" transform="matrix(12.1,0,0,12.1,335.8,543.9)" />
<use xlink:href="#f2_x" transform="matrix(12.1,0,0,12.1,247.7,555.6)" />
<use xlink:href="#f2_3a" transform="matrix(12.1,0,0,12.1,309.3,570.8)" />
</g>
<path d="M271.2,644.9l1.9,-1m0,0l4.4,7.3m0,0l4.9,-19.3m0,0h9.7" class="g3_8" />
<path fill-rule="evenodd" d="M271.1,644.7l2.5,-1.4l4,6l4.5,-17.9h10v.9h-9.3L278,651.2h-.9l-4.5,-6.7l-1.2,.7l-.3,-.5Z" class="g4_8" />
<path d="M269.6,629.1h24M267.1,605.6v47m28.7,-47v47" class="g6_8" />
<path d="M314.2,644.9l1.9,-1m0,0l4.4,7.3m0,0l4.9,-19.3m0,0h9.8" class="g3_8" />
<path fill-rule="evenodd" d="M314.1,644.7l2.5,-1.4l4,6l4.5,-17.9h10.1v.9h-9.4L321,651.2h-.9l-4.5,-6.7l-1.2,.7l-.3,-.5Z" class="g4_8" />
<path d="M312.6,629.1h24" class="g6_8" />
<g fill="#000000" >
<use xlink:href="#f0_q" transform="matrix(12,0,0,12,282.3,622.2)" />
<use xlink:href="#f0_q" transform="matrix(12,0,0,12,320.1,622.2)" />
<use xlink:href="#f0_2h" transform="matrix(12,0,0,12,339.7,633.7)" />
<use xlink:href="#f0_2a" transform="matrix(12,0,0,12,348.9,633.7)" />
<use xlink:href="#f0_25" transform="matrix(12,0,0,12,358.2,633.7)" />
<use xlink:href="#f0_2g" transform="matrix(12,0,0,12,363.3,633.7)" />
<use xlink:href="#f0_2f" transform="matrix(12,0,0,12,368.4,633.7)" />
<use xlink:href="#f2_h" transform="matrix(12,0,0,12,272.3,622.2)" />
<use xlink:href="#f2_x" transform="matrix(12,0,0,12,250.3,633.7)" />
<use xlink:href="#f2_x" transform="matrix(12,0,0,12,299.7,633.7)" />
<use xlink:href="#f0_p" transform="matrix(12,0,0,12,280.9,649.5)" />
<use xlink:href="#f0_p" transform="matrix(12,0,0,12,323.8,649.5)" />
<use xlink:href="#f0_l" transform="matrix(12,0,0,12,64.9,712.7)" />
<use xlink:href="#f0_q" transform="matrix(12,0,0,12,74.1,712.7)" />
<use xlink:href="#f0_i" transform="matrix(12,0,0,12,83.2,712.7)" />
<use xlink:href="#f0_1k" transform="matrix(12,0,0,12,121.9,712.7)" />
<use xlink:href="#f0_2j" transform="matrix(12,0,0,12,131.8,712.7)" />
<use xlink:href="#f0_2b" transform="matrix(12,0,0,12,144.8,712.7)" />
<use xlink:href="#f0_2a" transform="matrix(12,0,0,12,157.5,712.7)" />
<use xlink:href="#f0_2h" transform="matrix(12,0,0,12,166.5,712.7)" />
<use xlink:href="#f0_29" transform="matrix(12,0,0,12,175.6,712.7)" />
<use xlink:href="#f0_1y" transform="matrix(12,0,0,12,189.9,712.7)" />
<use xlink:href="#f0_21" transform="matrix(12,0,0,12,199.1,712.7)" />
<use xlink:href="#f0_2e" transform="matrix(12,0,0,12,207,712.7)" />
<use xlink:href="#f0_2f" transform="matrix(12,0,0,12,213,712.7)" />
<use xlink:href="#f0_1x" transform="matrix(12,0,0,12,223.3,712.7)" />
<use xlink:href="#f0_2e" transform="matrix(12,0,0,12,231.3,712.7)" />
<use xlink:href="#f0_21" transform="matrix(12,0,0,12,237.4,712.7)" />
<use xlink:href="#f0_2f" transform="matrix(12,0,0,12,248.7,712.7)" />
<use xlink:href="#f0_21" transform="matrix(12,0,0,12,255.9,712.7)" />
<use xlink:href="#f0_28" transform="matrix(12,0,0,12,263.9,712.7)" />
<use xlink:href="#f0_21" transform="matrix(12,0,0,12,268.9,712.7)" />
<use xlink:href="#f0_1z" transform="matrix(12,0,0,12,277,712.7)" />
<use xlink:href="#f0_2g" transform="matrix(12,0,0,12,285,712.7)" />
<use xlink:href="#f0_21" transform="matrix(12,0,0,12,290,712.7)" />
<use xlink:href="#f0_20" transform="matrix(12,0,0,12,298,712.7)" />
<use xlink:href="#f0_1x" transform="matrix(12,0,0,12,310.5,712.7)" />
<use xlink:href="#f0_2g" transform="matrix(12,0,0,12,318.6,712.7)" />
<use xlink:href="#f0_2e" transform="matrix(12,0,0,12,327.2,712.7)" />
<use xlink:href="#f0_1x" transform="matrix(12,0,0,12,333,712.7)" />
<use xlink:href="#f0_2a" transform="matrix(12,0,0,12,341.1,712.7)" />
<use xlink:href="#f0_20" transform="matrix(12,0,0,12,350.3,712.7)" />
<use xlink:href="#f0_2b" transform="matrix(12,0,0,12,359.3,712.7)" />
<use xlink:href="#f0_29" transform="matrix(12,0,0,12,368.4,712.7)" />
<use xlink:href="#f0_c" transform="matrix(12,0,0,12,385.8,712.7)" />
<use xlink:href="#f0_2j" transform="matrix(12,0,0,12,391.9,712.7)" />
<use xlink:href="#f0_25" transform="matrix(12,0,0,12,405.1,712.7)" />
<use xlink:href="#f0_2g" transform="matrix(12,0,0,12,410.2,712.7)" />
<use xlink:href="#f0_24" transform="matrix(12,0,0,12,415.1,712.7)" />
<use xlink:href="#f0_2b" transform="matrix(12,0,0,12,424.3,712.7)" />
<use xlink:href="#f0_2h" transform="matrix(12,0,0,12,433.5,712.7)" />
<use xlink:href="#f0_2g" transform="matrix(12,0,0,12,442.5,712.7)" />
<use xlink:href="#f0_2e" transform="matrix(12,0,0,12,451.1,712.7)" />
<use xlink:href="#f0_21" transform="matrix(12,0,0,12,456.9,712.7)" />
<use xlink:href="#f0_2c" transform="matrix(12,0,0,12,465,712.7)" />
<use xlink:href="#f0_28" transform="matrix(12,0,0,12,474.2,712.7)" />
<use xlink:href="#f0_1x" transform="matrix(12,0,0,12,479.3,712.7)" />
<use xlink:href="#f0_1z" transform="matrix(12,0,0,12,487.2,712.7)" />
<use xlink:href="#f0_21" transform="matrix(12,0,0,12,495.2,712.7)" />
<use xlink:href="#f0_29" transform="matrix(12,0,0,12,503.3,712.7)" />
<use xlink:href="#f0_21" transform="matrix(12,0,0,12,517.4,712.7)" />
<use xlink:href="#f0_2a" transform="matrix(12,0,0,12,525.5,712.7)" />
<use xlink:href="#f0_2g" transform="matrix(12,0,0,12,534.6,712.7)" />
<use xlink:href="#f0_d" transform="matrix(12,0,0,12,539.6,712.7)" />
<use xlink:href="#f0_22" transform="matrix(12,0,0,12,549.1,712.7)" />
<use xlink:href="#f0_2e" transform="matrix(12,0,0,12,555.2,712.7)" />
<use xlink:href="#f0_2b" transform="matrix(12,0,0,12,561,712.7)" />
<use xlink:href="#f0_29" transform="matrix(12,0,0,12,570.2,712.7)" />
<use xlink:href="#f0_2g" transform="matrix(12,0,0,12,587.8,712.7)" />
<use xlink:href="#f0_24" transform="matrix(12,0,0,12,592.9,712.7)" />
<use xlink:href="#f0_21" transform="matrix(12,0,0,12,602.1,712.7)" />
<use xlink:href="#f0_22" transform="matrix(12,0,0,12,613.2,712.7)" />
<use xlink:href="#f0_25" transform="matrix(12,0,0,12,619.3,712.7)" />
<use xlink:href="#f0_2e" transform="matrix(12,0,0,12,624.4,712.7)" />
<use xlink:href="#f0_2f" transform="matrix(12,0,0,12,630.3,712.7)" />
<use xlink:href="#f0_2g" transform="matrix(12,0,0,12,637.4,712.7)" />
<use xlink:href="#f0_22" transform="matrix(12,0,0,12,645.8,712.7)" />
<use xlink:href="#f0_25" transform="matrix(12,0,0,12,651.9,712.7)" />
<use xlink:href="#f0_2i" transform="matrix(12,0,0,12,657,712.7)" />
<use xlink:href="#f0_21" transform="matrix(12,0,0,12,666,712.7)" />
<use xlink:href="#f0_2c" transform="matrix(12,0,0,12,677.5,712.7)" />
<use xlink:href="#f0_2b" transform="matrix(12,0,0,12,686.7,712.7)" />
<use xlink:href="#f0_2f" transform="matrix(12,0,0,12,695.7,712.7)" />
<use xlink:href="#f0_25" transform="matrix(12,0,0,12,702.8,712.7)" />
<use xlink:href="#f0_2g" transform="matrix(12,0,0,12,707.9,712.7)" />
<use xlink:href="#f0_25" transform="matrix(12,0,0,12,712.9,712.7)" />
<use xlink:href="#f0_2i" transform="matrix(12,0,0,12,718,712.7)" />
<use xlink:href="#f0_21" transform="matrix(12,0,0,12,727.2,712.7)" />
<use xlink:href="#f0_25" transform="matrix(12,0,0,12,738.5,712.7)" />
<use xlink:href="#f0_2a" transform="matrix(12,0,0,12,743.6,712.7)" />
<use xlink:href="#f0_2g" transform="matrix(12,0,0,12,752.8,712.7)" />
<use xlink:href="#f0_21" transform="matrix(12,0,0,12,757.8,712.7)" />
<use xlink:href="#f0_23" transform="matrix(12,0,0,12,765.8,712.7)" />
<use xlink:href="#f0_21" transform="matrix(12,0,0,12,774.8,712.7)" />
<use xlink:href="#f0_2e" transform="matrix(12,0,0,12,782.7,712.7)" />
<use xlink:href="#f0_2f" transform="matrix(12,0,0,12,788.7,712.7)" />
<use xlink:href="#f0_i" transform="matrix(12,0,0,12,795.9,712.7)" />
<use xlink:href="#f0_1c" transform="matrix(12,0,0,12,803.6,712.7)" />
<use xlink:href="#f0_21" transform="matrix(12,0,0,12,814.4,712.7)" />
<use xlink:href="#f0_2g" transform="matrix(12,0,0,12,822.5,712.7)" />
<use xlink:href="#f0_1o" transform="matrix(12,0,0,12,831.2,712.7)" />
<use xlink:href="#f0_20" transform="matrix(12,0,0,12,121.2,734.7)" />
<use xlink:href="#f0_21" transform="matrix(12,0,0,12,130.2,734.7)" />
<use xlink:href="#f0_2a" transform="matrix(12,0,0,12,137.9,734.7)" />
<use xlink:href="#f0_2b" transform="matrix(12,0,0,12,146.8,734.7)" />
<use xlink:href="#f0_2g" transform="matrix(12,0,0,12,155.8,734.7)" />
<use xlink:href="#f0_21" transform="matrix(12,0,0,12,160.8,734.7)" />
<use xlink:href="#f0_2g" transform="matrix(12,0,0,12,171.8,734.7)" />
<use xlink:href="#f0_24" transform="matrix(12,0,0,12,176.7,734.7)" />
<use xlink:href="#f0_21" transform="matrix(12,0,0,12,185.5,734.7)" />
<use xlink:href="#f0_28" transform="matrix(12,0,0,12,196.7,734.7)" />
<use xlink:href="#f0_1x" transform="matrix(12,0,0,12,201.5,734.7)" />
<use xlink:href="#f0_2e" transform="matrix(12,0,0,12,209.4,734.7)" />
<use xlink:href="#f0_23" transform="matrix(12,0,0,12,215.2,734.7)" />
<use xlink:href="#f0_21" transform="matrix(12,0,0,12,224,734.7)" />
<use xlink:href="#f0_2e" transform="matrix(12,0,0,12,231.7,734.7)" />
<use xlink:href="#f0_2b" transform="matrix(12,0,0,12,240.7,734.7)" />
<use xlink:href="#f0_22" transform="matrix(12,0,0,12,249.5,734.7)" />
<use xlink:href="#f0_2g" transform="matrix(12,0,0,12,258.7,734.7)" />
<use xlink:href="#f0_24" transform="matrix(12,0,0,12,263.6,734.7)" />
<use xlink:href="#f0_21" transform="matrix(12,0,0,12,272.4,734.7)" />
<use xlink:href="#f0_2g" transform="matrix(12,0,0,12,283.6,734.7)" />
<use xlink:href="#f0_2j" transform="matrix(12,0,0,12,288.4,734.7)" />
<use xlink:href="#f0_2b" transform="matrix(12,0,0,12,301.4,734.7)" />
<use xlink:href="#f0_2a" transform="matrix(12,0,0,12,313.5,734.7)" />
<use xlink:href="#f0_2h" transform="matrix(12,0,0,12,322.5,734.7)" />
<use xlink:href="#f0_29" transform="matrix(12,0,0,12,331.5,734.7)" />
<use xlink:href="#f0_1y" transform="matrix(12,0,0,12,345.6,734.7)" />
<use xlink:href="#f0_21" transform="matrix(12,0,0,12,354.4,734.7)" />
<use xlink:href="#f0_2e" transform="matrix(12,0,0,12,362.3,734.7)" />
<use xlink:href="#f0_2f" transform="matrix(12,0,0,12,368.1,734.7)" />
<use xlink:href="#f0_2b" transform="matrix(12,0,0,12,378,734.7)" />
<use xlink:href="#f0_1y" transform="matrix(12,0,0,12,387,734.7)" />
<use xlink:href="#f0_2g" transform="matrix(12,0,0,12,395.8,734.7)" />
<use xlink:href="#f0_1x" transform="matrix(12,0,0,12,400.8,734.7)" />
<use xlink:href="#f0_25" transform="matrix(12,0,0,12,408.6,734.7)" />
<use xlink:href="#f0_2a" transform="matrix(12,0,0,12,413.6,734.7)" />
<use xlink:href="#f0_21" transform="matrix(12,0,0,12,422.4,734.7)" />
<use xlink:href="#f0_20" transform="matrix(12,0,0,12,430.3,734.7)" />
<use xlink:href="#f0_i" transform="matrix(12,0,0,12,439.3,734.7)" />
<use xlink:href="#f0_16" transform="matrix(12,0,0,12,446.8,734.7)" />
<use xlink:href="#f0_25" transform="matrix(12,0,0,12,456.7,734.7)" />
<use xlink:href="#f0_2a" transform="matrix(12,0,0,12,461.6,734.7)" />
<use xlink:href="#f0_20" transform="matrix(12,0,0,12,470.4,734.7)" />
<use xlink:href="#f0_2g" transform="matrix(12,0,0,12,482.7,734.7)" />
<use xlink:href="#f0_24" transform="matrix(12,0,0,12,487.5,734.7)" />
<use xlink:href="#f0_21" transform="matrix(12,0,0,12,496.5,734.7)" />
<use xlink:href="#f0_29" transform="matrix(12,0,0,12,507.5,734.7)" />
<use xlink:href="#f0_21" transform="matrix(12,0,0,12,521.6,734.7)" />
<use xlink:href="#f0_1x" transform="matrix(12,0,0,12,529.5,734.7)" />
<use xlink:href="#f0_2a" transform="matrix(12,0,0,12,537.4,734.7)" />
<use xlink:href="#f0_1x" transform="matrix(12,0,0,12,549.5,734.7)" />
<use xlink:href="#f0_2a" transform="matrix(12,0,0,12,557.3,734.7)" />
<use xlink:href="#f0_20" transform="matrix(12,0,0,12,566.1,734.7)" />
<use xlink:href="#f0_2i" transform="matrix(12,0,0,12,578.2,734.7)" />
<use xlink:href="#f0_1x" transform="matrix(12,0,0,12,587.2,734.7)" />
<use xlink:href="#f0_2e" transform="matrix(12,0,0,12,594.9,734.7)" />
<use xlink:href="#f0_25" transform="matrix(12,0,0,12,600.8,734.7)" />
<use xlink:href="#f0_1x" transform="matrix(12,0,0,12,605.7,734.7)" />
<use xlink:href="#f0_2a" transform="matrix(12,0,0,12,613.4,734.7)" />
<use xlink:href="#f0_1z" transform="matrix(12,0,0,12,622.4,734.7)" />
<use xlink:href="#f0_21" transform="matrix(12,0,0,12,630.3,734.7)" />
<use xlink:href="#f0_2b" transform="matrix(12,0,0,12,641.3,734.7)" />
<use xlink:href="#f0_22" transform="matrix(12,0,0,12,650.3,734.7)" />
<use xlink:href="#f0_1o" transform="matrix(12,0,0,12,659.3,734.7)" />
<use xlink:href="#f0_i" transform="matrix(12,0,0,12,672.3,734.7)" />
<use xlink:href="#f0_1j" transform="matrix(12,0,0,12,64.9,765.5)" />
<use xlink:href="#f0_2b" transform="matrix(12,0,0,12,74.1,765.5)" />
<use xlink:href="#f0_28" transform="matrix(12,0,0,12,82.1,765.5)" />
<use xlink:href="#f0_u" transform="matrix(12,0,0,12,86.2,765.5)" />
<use xlink:href="#f0_1o" transform="matrix(12,0,0,12,121.9,765.5)" />
<use xlink:href="#f0_1z" transform="matrix(12,0,0,12,138.4,765.5)" />
<use xlink:href="#f0_1x" transform="matrix(12,0,0,12,146.3,765.5)" />
<use xlink:href="#f0_2a" transform="matrix(12,0,0,12,154.4,765.5)" />
<use xlink:href="#f0_2g" transform="matrix(12,0,0,12,166.5,765.5)" />
<use xlink:href="#f0_1x" transform="matrix(12,0,0,12,171.6,765.5)" />
<use xlink:href="#f0_27" transform="matrix(12,0,0,12,179.5,765.5)" />
<use xlink:href="#f0_21" transform="matrix(12,0,0,12,188.6,765.5)" />
<use xlink:href="#f0_2i" transform="matrix(12,0,0,12,199.8,765.5)" />
<use xlink:href="#f0_1x" transform="matrix(12,0,0,12,209,765.5)" />
<use xlink:href="#f0_28" transform="matrix(12,0,0,12,216.9,765.5)" />
<use xlink:href="#f0_2h" transform="matrix(12,0,0,12,222,765.5)" />
<use xlink:href="#f0_21" transform="matrix(12,0,0,12,231,765.5)" />
<use xlink:href="#f0_2f" transform="matrix(12,0,0,12,238.8,765.5)" />
<use xlink:href="#f0_1x" transform="matrix(12,0,0,12,249.3,765.5)" />
<use xlink:href="#f0_2f" transform="matrix(12,0,0,12,257.3,765.5)" />
<use xlink:href="#f0_m" transform="matrix(12,0,0,12,267.8,765.5)" />
<use xlink:href="#f0_g" transform="matrix(12,0,0,12,276.8,765.5)" />
<use xlink:href="#f0_n" transform="matrix(12,0,0,12,281.2,765.5)" />
<use xlink:href="#f0_g" transform="matrix(12,0,0,12,290.3,765.5)" />
<use xlink:href="#f0_o" transform="matrix(12,0,0,12,294.7,765.5)" />
<use xlink:href="#f0_g" transform="matrix(12,0,0,12,303.9,765.5)" />
<use xlink:href="#f0_p" transform="matrix(12,0,0,12,308.3,765.5)" />
<use xlink:href="#f0_2f" transform="matrix(12,0,0,12,320.6,765.5)" />
<use xlink:href="#f0_2h" transform="matrix(12,0,0,12,327.6,765.5)" />
<use xlink:href="#f0_1z" transform="matrix(12,0,0,12,336.7,765.5)" />
<use xlink:href="#f0_24" transform="matrix(12,0,0,12,344.6,765.5)" />
<use xlink:href="#f0_2g" transform="matrix(12,0,0,12,357.1,765.5)" />
<use xlink:href="#f0_24" transform="matrix(12,0,0,12,362,765.5)" />
<use xlink:href="#f0_1x" transform="matrix(12,0,0,12,371.2,765.5)" />
<use xlink:href="#f0_2g" transform="matrix(12,0,0,12,379.1,765.5)" />
<use xlink:href="#f2_c" transform="matrix(11.8,0,0,15.8,138.8,806.2)" />
<use xlink:href="#f2_d" transform="matrix(11.8,0,0,15.8,190.5,806.2)" />
<use xlink:href="#f0_m" transform="matrix(12.1,0,0,12.1,180.4,804.8)" />
<use xlink:href="#f3_1g" transform="matrix(12.1,0,0,12.1,125.2,804.8)" />
<use xlink:href="#f3_1o" transform="matrix(12.1,0,0,12.1,147.8,804.8)" />
<use xlink:href="#f2_x" transform="matrix(12.1,0,0,12.1,166.1,804.8)" />
<use xlink:href="#f0_x" transform="matrix(12,0,0,12,203,805.3)" />
<use xlink:href="#f0_2c" transform="matrix(12,0,0,12,216.2,805.3)" />
<use xlink:href="#f0_2e" transform="matrix(12,0,0,12,225.1,805.3)" />
<use xlink:href="#f0_2b" transform="matrix(12,0,0,12,231,805.3)" />
<use xlink:href="#f0_1y" transform="matrix(12,0,0,12,240,805.3)" />
<use xlink:href="#f0_1x" transform="matrix(12,0,0,12,248.8,805.3)" />
<use xlink:href="#f0_1y" transform="matrix(12,0,0,12,256.7,805.3)" />
<use xlink:href="#f0_25" transform="matrix(12,0,0,12,265.7,805.3)" />
<use xlink:href="#f0_28" transform="matrix(12,0,0,12,270.6,805.3)" />
<use xlink:href="#f0_25" transform="matrix(12,0,0,12,275.4,805.3)" />
<use xlink:href="#f0_2g" transform="matrix(12,0,0,12,280.3,805.3)" />
<use xlink:href="#f0_2l" transform="matrix(12,0,0,12,285.3,805.3)" />
<use xlink:href="#f0_2g" transform="matrix(12,0,0,12,296.6,805.3)" />
<use xlink:href="#f0_24" transform="matrix(12,0,0,12,301.6,805.3)" />
<use xlink:href="#f0_1x" transform="matrix(12,0,0,12,310.6,805.3)" />
<use xlink:href="#f0_2g" transform="matrix(12,0,0,12,318.5,805.3)" />
<use xlink:href="#f0_2g" transform="matrix(12,0,0,12,326.5,805.3)" />
<use xlink:href="#f0_24" transform="matrix(12,0,0,12,331.5,805.3)" />
<use xlink:href="#f0_21" transform="matrix(12,0,0,12,340.5,805.3)" />
<use xlink:href="#f0_28" transform="matrix(12,0,0,12,351.5,805.3)" />
<use xlink:href="#f0_1x" transform="matrix(12,0,0,12,356.4,805.3)" />
<use xlink:href="#f0_2e" transform="matrix(12,0,0,12,364.3,805.3)" />
<use xlink:href="#f0_23" transform="matrix(12,0,0,12,370.2,805.3)" />
<use xlink:href="#f0_21" transform="matrix(12,0,0,12,378.8,805.3)" />
<use xlink:href="#f0_2e" transform="matrix(12,0,0,12,386.7,805.3)" />
<use xlink:href="#f0_2b" transform="matrix(12,0,0,12,395.8,805.3)" />
<use xlink:href="#f0_22" transform="matrix(12,0,0,12,404.6,805.3)" />
<use xlink:href="#f0_2g" transform="matrix(12,0,0,12,413.6,805.3)" />
<use xlink:href="#f0_2j" transform="matrix(12,0,0,12,418.6,805.3)" />
<use xlink:href="#f0_2b" transform="matrix(12,0,0,12,431.4,805.3)" />
<use xlink:href="#f0_2a" transform="matrix(12,0,0,12,443.7,805.3)" />
<use xlink:href="#f0_2h" transform="matrix(12,0,0,12,452.7,805.3)" />
<use xlink:href="#f0_29" transform="matrix(12,0,0,12,461.5,805.3)" />
<use xlink:href="#f0_1y" transform="matrix(12,0,0,12,475.6,805.3)" />
<use xlink:href="#f0_21" transform="matrix(12,0,0,12,484.6,805.3)" />
<use xlink:href="#f0_2e" transform="matrix(12,0,0,12,492.4,805.3)" />
<use xlink:href="#f0_m" transform="matrix(12,0,0,12,501.4,805.3)" />
<use xlink:href="#f0_i" transform="matrix(12,0,0,12,510.4,805.3)" />
<use xlink:href="#f0_x" transform="matrix(12,0,0,12,121.9,842.2)" />
<use xlink:href="#f0_2c" transform="matrix(12,0,0,12,135.3,842.2)" />
<use xlink:href="#f0_2e" transform="matrix(12,0,0,12,144.3,842.2)" />
<use xlink:href="#f0_2b" transform="matrix(12,0,0,12,150.3,842.2)" />
<use xlink:href="#f0_1y" transform="matrix(12,0,0,12,159.3,842.2)" />
<use xlink:href="#f0_i" transform="matrix(12,0,0,12,168.3,842.2)" />
<use xlink:href="#f0_2b" transform="matrix(12,0,0,12,176,842.2)" />
<use xlink:href="#f0_22" transform="matrix(12,0,0,12,185,842.2)" />
<use xlink:href="#f0_23" transform="matrix(12,0,0,12,194.2,842.2)" />
<use xlink:href="#f0_21" transform="matrix(12,0,0,12,203,842.2)" />
<use xlink:href="#f0_2g" transform="matrix(12,0,0,12,210.8,842.2)" />
<use xlink:href="#f0_2g" transform="matrix(12,0,0,12,215.8,842.2)" />
<use xlink:href="#f0_25" transform="matrix(12,0,0,12,220.7,842.2)" />
<use xlink:href="#f0_2a" transform="matrix(12,0,0,12,225.7,842.2)" />
<use xlink:href="#f0_23" transform="matrix(12,0,0,12,234.7,842.2)" />
<use xlink:href="#f0_l" transform="matrix(12,0,0,12,247,842.2)" />
<use xlink:href="#f0_25" transform="matrix(12,0,0,12,259.2,842.2)" />
<use xlink:href="#f0_2a" transform="matrix(12,0,0,12,264.2,842.2)" />
<use xlink:href="#f0_22" transform="matrix(12,0,0,12,276.7,842.2)" />
<use xlink:href="#f0_25" transform="matrix(12,0,0,12,282.5,842.2)" />
<use xlink:href="#f0_2e" transform="matrix(12,0,0,12,287.5,842.2)" />
<use xlink:href="#f0_2f" transform="matrix(12,0,0,12,293.3,842.2)" />
<use xlink:href="#f0_2g" transform="matrix(12,0,0,12,300.3,842.2)" />
<use xlink:href="#f0_2f" transform="matrix(12,0,0,12,308.4,842.2)" />
<use xlink:href="#f0_21" transform="matrix(12,0,0,12,315.5,842.2)" />
<use xlink:href="#f0_28" transform="matrix(12,0,0,12,323.4,842.2)" />
<use xlink:href="#f0_21" transform="matrix(12,0,0,12,328.3,842.2)" />
<use xlink:href="#f0_1z" transform="matrix(12,0,0,12,336.2,842.2)" />
<use xlink:href="#f0_2g" transform="matrix(12,0,0,12,344.1,842.2)" />
<use xlink:href="#f0_25" transform="matrix(12,0,0,12,349,842.2)" />
<use xlink:href="#f0_2b" transform="matrix(12,0,0,12,354,842.2)" />
<use xlink:href="#f0_2a" transform="matrix(12,0,0,12,363.2,842.2)" />
<use xlink:href="#f0_1x" transform="matrix(12,0,0,12,375.4,842.2)" />
<use xlink:href="#f0_2a" transform="matrix(12,0,0,12,383.3,842.2)" />
<use xlink:href="#f0_20" transform="matrix(12,0,0,12,392.3,842.2)" />
<use xlink:href="#f0_m" transform="matrix(12,0,0,12,404.6,842.2)" />
<use xlink:href="#f0_25" transform="matrix(12,0,0,12,417.1,842.2)" />
<use xlink:href="#f0_2a" transform="matrix(12,0,0,12,422,842.2)" />
<use xlink:href="#f0_2f" transform="matrix(12,0,0,12,434.1,842.2)" />
<use xlink:href="#f0_21" transform="matrix(12,0,0,12,441.1,842.2)" />
<use xlink:href="#f0_1z" transform="matrix(12,0,0,12,449,842.2)" />
<use xlink:href="#f0_2b" transform="matrix(12,0,0,12,457,842.2)" />
<use xlink:href="#f0_2a" transform="matrix(12,0,0,12,466,842.2)" />
<use xlink:href="#f0_20" transform="matrix(12,0,0,12,475,842.2)" />
<use xlink:href="#f0_2f" transform="matrix(12,0,0,12,487.3,842.2)" />
<use xlink:href="#f0_21" transform="matrix(12,0,0,12,494.2,842.2)" />
<use xlink:href="#f0_28" transform="matrix(12,0,0,12,502.3,842.2)" />
<use xlink:href="#f0_21" transform="matrix(12,0,0,12,507.3,842.2)" />
<use xlink:href="#f0_1z" transform="matrix(12,0,0,12,515.1,842.2)" />
<use xlink:href="#f0_2g" transform="matrix(12,0,0,12,523,842.2)" />
<use xlink:href="#f0_25" transform="matrix(12,0,0,12,528,842.2)" />
<use xlink:href="#f0_2b" transform="matrix(12,0,0,12,532.9,842.2)" />
<use xlink:href="#f0_2a" transform="matrix(12,0,0,12,541.9,842.2)" />
<use xlink:href="#f0_23" transform="matrix(12,0,0,12,554.4,842.2)" />
<use xlink:href="#f0_21" transform="matrix(12,0,0,12,563.2,842.2)" />
<use xlink:href="#f0_2g" transform="matrix(12,0,0,12,571.1,842.2)" />
<use xlink:href="#f0_2g" transform="matrix(12,0,0,12,576,842.2)" />
<use xlink:href="#f0_25" transform="matrix(12,0,0,12,581,842.2)" />
<use xlink:href="#f0_2a" transform="matrix(12,0,0,12,585.9,842.2)" />
<use xlink:href="#f0_23" transform="matrix(12,0,0,12,595.1,842.2)" />
<use xlink:href="#f0_m" transform="matrix(12,0,0,12,607.2,842.2)" />
<use xlink:href="#f0_25" transform="matrix(12,0,0,12,619.3,842.2)" />
<use xlink:href="#f0_2a" transform="matrix(12,0,0,12,624.2,842.2)" />
<use xlink:href="#f0_22" transform="matrix(12,0,0,12,636.7,842.2)" />
<use xlink:href="#f0_25" transform="matrix(12,0,0,12,642.6,842.2)" />
<use xlink:href="#f0_2e" transform="matrix(12,0,0,12,647.5,842.2)" />
<use xlink:href="#f0_2f" transform="matrix(12,0,0,12,653.4,842.2)" />
<use xlink:href="#f0_2g" transform="matrix(12,0,0,12,660.3,842.2)" />
<use xlink:href="#f0_2f" transform="matrix(12,0,0,12,668.6,842.2)" />
<use xlink:href="#f0_21" transform="matrix(12,0,0,12,675.7,842.2)" />
<use xlink:href="#f0_28" transform="matrix(12,0,0,12,683.6,842.2)" />
<use xlink:href="#f0_21" transform="matrix(12,0,0,12,688.6,842.2)" />
<use xlink:href="#f0_1z" transform="matrix(12,0,0,12,696.4,842.2)" />
<use xlink:href="#f0_2g" transform="matrix(12,0,0,12,704.3,842.2)" />
<use xlink:href="#f0_25" transform="matrix(12,0,0,12,709.3,842.2)" />
<use xlink:href="#f0_2b" transform="matrix(12,0,0,12,714.4,842.2)" />
<use xlink:href="#f0_2a" transform="matrix(12,0,0,12,723.4,842.2)" />
<use xlink:href="#f0_1x" transform="matrix(12,0,0,12,735.7,842.2)" />
<use xlink:href="#f0_2a" transform="matrix(12,0,0,12,743.5,842.2)" />
<use xlink:href="#f0_20" transform="matrix(12,0,0,12,752.5,842.2)" />
<use xlink:href="#f0_l" transform="matrix(12,0,0,12,764.8,842.2)" />
<use xlink:href="#f0_25" transform="matrix(12,0,0,12,777.2,842.2)" />
<use xlink:href="#f0_2a" transform="matrix(12,0,0,12,782.1,842.2)" />
<use xlink:href="#f0_2f" transform="matrix(12,0,0,12,794.4,842.2)" />
<use xlink:href="#f0_21" transform="matrix(12,0,0,12,801.4,842.2)" />
<use xlink:href="#f0_1z" transform="matrix(12,0,0,12,809.4,842.2)" />
<use xlink:href="#f0_2b" transform="matrix(12,0,0,12,817.3,842.2)" />
<use xlink:href="#f0_2a" transform="matrix(12,0,0,12,826.3,842.2)" />
<use xlink:href="#f0_20" transform="matrix(12,0,0,12,835.3,842.2)" />
<use xlink:href="#f0_2f" transform="matrix(12,0,0,12,121.2,864.2)" />
<use xlink:href="#f0_21" transform="matrix(12,0,0,12,127.8,864.2)" />
<use xlink:href="#f0_28" transform="matrix(12,0,0,12,135.1,864.2)" />
<use xlink:href="#f0_21" transform="matrix(12,0,0,12,139.7,864.2)" />
<use xlink:href="#f0_1z" transform="matrix(12,0,0,12,147.2,864.2)" />
<use xlink:href="#f0_2g" transform="matrix(12,0,0,12,154.6,864.2)" />
<use xlink:href="#f0_25" transform="matrix(12,0,0,12,159.1,864.2)" />
<use xlink:href="#f0_2b" transform="matrix(12,0,0,12,163.7,864.2)" />
<use xlink:href="#f0_2a" transform="matrix(12,0,0,12,172.2,864.2)" />
<use xlink:href="#f0_i" transform="matrix(12,0,0,12,180.8,864.2)" />
<use xlink:href="#f2_c" transform="matrix(11.8,0,0,15.6,155.1,915)" />
<use xlink:href="#f2_d" transform="matrix(11.8,0,0,15.6,206.8,915)" />
</g>
<path d="M231.5,909.1h10.1m15.4,0h10.9m17.5,0h10m15.5,0h10.9m19.5,0h20" class="g7_8" />
<g fill="#000000" >
<use xlink:href="#f0_l" transform="matrix(11.9,0,0,11.9,231.9,902.1)" />
<use xlink:href="#f0_l" transform="matrix(11.9,0,0,11.9,257.9,902.1)" />
<use xlink:href="#f0_l" transform="matrix(11.9,0,0,11.9,285.8,902.1)" />
<use xlink:href="#f0_l" transform="matrix(11.9,0,0,11.9,311.6,902.1)" />
<use xlink:href="#f0_m" transform="matrix(11.9,0,0,11.9,347,902.1)" />
<use xlink:href="#f0_m" transform="matrix(11.9,0,0,11.9,196.7,913.7)" />
<use xlink:href="#f0_p" transform="matrix(11.9,0,0,11.9,232.1,927.8)" />
<use xlink:href="#f0_o" transform="matrix(11.9,0,0,11.9,258.1,927.8)" />
<use xlink:href="#f0_p" transform="matrix(11.9,0,0,11.9,286,927.8)" />
<use xlink:href="#f0_o" transform="matrix(11.9,0,0,11.9,312,927.8)" />
<use xlink:href="#f0_m" transform="matrix(11.9,0,0,11.9,342.4,927.8)" />
<use xlink:href="#f0_k" transform="matrix(11.9,0,0,11.9,351.6,927.8)" />
<use xlink:href="#f3_1g" transform="matrix(11.9,0,0,11.9,141.5,913.7)" />
<use xlink:href="#f3_1o" transform="matrix(11.9,0,0,11.9,164.1,913.7)" />
<use xlink:href="#f2_1s" transform="matrix(11.9,0,0,11.9,121.9,913.7)" />
<use xlink:href="#f2_x" transform="matrix(11.9,0,0,11.9,182.4,913.7)" />
<use xlink:href="#f2_x" transform="matrix(11.9,0,0,11.9,216.9,913.7)" />
<use xlink:href="#f2_3a" transform="matrix(11.9,0,0,11.9,244.2,913.7)" />
<use xlink:href="#f2_f" transform="matrix(11.9,0,0,11.9,271.7,913.7)" />
<use xlink:href="#f2_3a" transform="matrix(11.9,0,0,11.9,297.9,913.7)" />
<use xlink:href="#f2_x" transform="matrix(11.9,0,0,11.9,326.6,913.7)" />
<use xlink:href="#f0_2f" transform="matrix(12,0,0,12,121.9,960.1)" />
<use xlink:href="#f0_25" transform="matrix(12,0,0,12,128,960.1)" />
<use xlink:href="#f0_29" transform="matrix(12,0,0,12,132,960.1)" />
<use xlink:href="#f0_25" transform="matrix(12,0,0,12,145.2,960.1)" />
<use xlink:href="#f0_28" transform="matrix(12,0,0,12,149.2,960.1)" />
<use xlink:href="#f0_1x" transform="matrix(12,0,0,12,153.5,960.1)" />
<use xlink:href="#f0_2e" transform="matrix(12,0,0,12,160.4,960.1)" />
<use xlink:href="#f0_28" transform="matrix(12,0,0,12,165.4,960.1)" />
<use xlink:href="#f0_2l" transform="matrix(12,0,0,12,169.4,960.1)" />
<use xlink:href="#f0_g" transform="matrix(12,0,0,12,175.8,960.1)" />
<use xlink:href="#f2_c" transform="matrix(11.8,0,0,15.6,155.1,1011.2)" />
<use xlink:href="#f2_d" transform="matrix(11.8,0,0,15.6,205.7,1011.2)" />
</g>
<path d="M230.4,1005.3h10.9m15.4,0h10.9m17.5,0h10m15.5,0h10.9m19.5,0h20" class="g8_8" />
<g fill="#000000" >
<use xlink:href="#f0_m" transform="matrix(11.9,0,0,11.9,231.6,998.4)" />
<use xlink:href="#f0_l" transform="matrix(11.9,0,0,11.9,257.6,998.4)" />
<use xlink:href="#f0_l" transform="matrix(11.9,0,0,11.9,285.6,998.4)" />
<use xlink:href="#f0_m" transform="matrix(11.9,0,0,11.9,311.6,998.4)" />
<use xlink:href="#f0_o" transform="matrix(11.9,0,0,11.9,346.6,998.4)" />
<use xlink:href="#f0_n" transform="matrix(11.9,0,0,11.9,196.2,1009.9)" />
<use xlink:href="#f0_p" transform="matrix(11.9,0,0,11.9,231.4,1024)" />
<use xlink:href="#f0_o" transform="matrix(11.9,0,0,11.9,257.9,1024)" />
<use xlink:href="#f0_p" transform="matrix(11.9,0,0,11.9,285.6,1024)" />
<use xlink:href="#f0_o" transform="matrix(11.9,0,0,11.9,311.6,1024)" />
<use xlink:href="#f0_m" transform="matrix(11.9,0,0,11.9,342.1,1024)" />
<use xlink:href="#f0_k" transform="matrix(11.9,0,0,11.9,351.2,1024)" />
<use xlink:href="#f3_1g" transform="matrix(11.9,0,0,11.9,141.5,1009.9)" />
<use xlink:href="#f3_1o" transform="matrix(11.9,0,0,11.9,164.1,1009.9)" />
<use xlink:href="#f2_1s" transform="matrix(11.9,0,0,11.9,121.9,1009.9)" />
<use xlink:href="#f2_x" transform="matrix(11.9,0,0,11.9,182.4,1009.9)" />
<use xlink:href="#f2_x" transform="matrix(11.9,0,0,11.9,215.8,1009.9)" />
<use xlink:href="#f2_3a" transform="matrix(11.9,0,0,11.9,243.8,1009.9)" />
<use xlink:href="#f2_f" transform="matrix(11.9,0,0,11.9,271.3,1009.9)" />
<use xlink:href="#f2_3a" transform="matrix(11.9,0,0,11.9,297.7,1009.9)" />
<use xlink:href="#f2_x" transform="matrix(11.9,0,0,11.9,326.3,1009.9)" />
<use xlink:href="#f2_c" transform="matrix(11.8,0,0,15.6,155.1,1076.3)" />
<use xlink:href="#f2_d" transform="matrix(11.8,0,0,15.6,206.8,1076.3)" />
</g>
<path d="M231.5,1070.4h10.1m15.4,0h10.9m17.5,0h10m15.5,0h10.9m19.5,0h20" class="g7_8" />
<g fill="#000000" >
<use xlink:href="#f0_n" transform="matrix(11.9,0,0,11.9,232.3,1063.5)" />
<use xlink:href="#f0_l" transform="matrix(11.9,0,0,11.9,257.9,1063.5)" />
<use xlink:href="#f0_l" transform="matrix(11.9,0,0,11.9,285.8,1063.5)" />
<use xlink:href="#f0_n" transform="matrix(11.9,0,0,11.9,312,1063.5)" />
<use xlink:href="#f0_q" transform="matrix(11.9,0,0,11.9,346.8,1063.5)" />
<use xlink:href="#f0_o" transform="matrix(11.9,0,0,11.9,196.7,1075)" />
<use xlink:href="#f0_p" transform="matrix(11.9,0,0,11.9,232.1,1089.1)" />
<use xlink:href="#f0_o" transform="matrix(11.9,0,0,11.9,258.1,1089.1)" />
<use xlink:href="#f0_p" transform="matrix(11.9,0,0,11.9,286,1089.1)" />
<use xlink:href="#f0_o" transform="matrix(11.9,0,0,11.9,312,1089.1)" />
<use xlink:href="#f0_m" transform="matrix(11.9,0,0,11.9,342.4,1089.1)" />
<use xlink:href="#f0_k" transform="matrix(11.9,0,0,11.9,351.6,1089.1)" />
<use xlink:href="#f3_1g" transform="matrix(11.9,0,0,11.9,141.5,1075)" />
<use xlink:href="#f3_1o" transform="matrix(11.9,0,0,11.9,164.1,1075)" />
<use xlink:href="#f2_1s" transform="matrix(11.9,0,0,11.9,121.9,1075)" />
<use xlink:href="#f2_x" transform="matrix(11.9,0,0,11.9,182.4,1075)" />
<use xlink:href="#f2_x" transform="matrix(11.9,0,0,11.9,216.9,1075)" />
<use xlink:href="#f2_3a" transform="matrix(11.9,0,0,11.9,244.2,1075)" />
<use xlink:href="#f2_f" transform="matrix(11.9,0,0,11.9,271.7,1075)" />
<use xlink:href="#f2_3a" transform="matrix(11.9,0,0,11.9,297.9,1075)" />
<use xlink:href="#f2_x" transform="matrix(11.9,0,0,11.9,326.6,1075)" />
<use xlink:href="#f2_c" transform="matrix(11.8,0,0,15.6,155.1,1141.4)" />
<use xlink:href="#f2_d" transform="matrix(11.8,0,0,15.6,206.1,1141.4)" />
</g>
<path d="M230.7,1135.5h10.9m15.4,0h10.9m17.5,0h10m15.5,0h10.9m19.5,0h20" class="g7_8" />
<g fill="#000000" >
<use xlink:href="#f0_o" transform="matrix(11.9,0,0,11.9,231.9,1128.5)" />
<use xlink:href="#f0_l" transform="matrix(11.9,0,0,11.9,257.9,1128.5)" />
<use xlink:href="#f0_l" transform="matrix(11.9,0,0,11.9,285.8,1128.5)" />
<use xlink:href="#f0_o" transform="matrix(11.9,0,0,11.9,312,1128.5)" />
<use xlink:href="#f0_s" transform="matrix(11.9,0,0,11.9,346.6,1128.5)" />
<use xlink:href="#f0_p" transform="matrix(11.9,0,0,11.9,196.2,1140.1)" />
<use xlink:href="#f0_p" transform="matrix(11.9,0,0,11.9,231.7,1154.2)" />
<use xlink:href="#f0_o" transform="matrix(11.9,0,0,11.9,258.1,1154.2)" />
<use xlink:href="#f0_p" transform="matrix(11.9,0,0,11.9,286,1154.2)" />
<use xlink:href="#f0_o" transform="matrix(11.9,0,0,11.9,312,1154.2)" />
<use xlink:href="#f0_m" transform="matrix(11.9,0,0,11.9,342.4,1154.2)" />
<use xlink:href="#f0_k" transform="matrix(11.9,0,0,11.9,351.6,1154.2)" />
<use xlink:href="#f3_1g" transform="matrix(11.9,0,0,11.9,141.5,1140.1)" />
<use xlink:href="#f3_1o" transform="matrix(11.9,0,0,11.9,164.1,1140.1)" />
<use xlink:href="#f2_1s" transform="matrix(11.9,0,0,11.9,121.9,1140.1)" />
<use xlink:href="#f2_x" transform="matrix(11.9,0,0,11.9,182.4,1140.1)" />
<use xlink:href="#f2_x" transform="matrix(11.9,0,0,11.9,216.1,1140.1)" />
<use xlink:href="#f2_3a" transform="matrix(11.9,0,0,11.9,244.2,1140.1)" />
<use xlink:href="#f2_f" transform="matrix(11.9,0,0,11.9,271.6,1140.1)" />
<use xlink:href="#f2_3a" transform="matrix(11.9,0,0,11.9,297.8,1140.1)" />
<use xlink:href="#f2_x" transform="matrix(11.9,0,0,11.9,326.6,1140.1)" />
<use xlink:href="#f5_s" transform="matrix(8,0,0,8,792.2,1264.3)" />
</g>
<defs>
<path d="M197,0V27c0,0,71,2,92,13c0,0,21,10,29,29c0,0,9,18,9,109V725c0,0,0,110,-8,141c0,0,-5,24,-19,35c0,0,-14,11,-33,11c0,0,-28,0,-77,-23l-11,23l246,121h25V178c0,0,0,-85,7,-106c0,0,7,-21,29,-32c0,0,23,-11,91,-13V0Z" 
id="f0_l"
transform="scale(0.001,-0.001)" />

<path d="M247,-17c0,0,-91,0,-132,30c0,0,-42,31,-42,68c0,0,0,21,17,37c0,0,18,16,44,17c0,0,19,0,34,-6c0,0,14,-7,49,-31c0,0,56,-39,113,-39c0,0,88,0,154,66c0,0,66,66,66,161c0,0,0,92,-59,171c0,0,-59,80,-163,123c0,0,-81,34,-221,39l194,393H663L605,885H301L234,750c0,0,198,-29,313,-147c0,0,100,-102,100,-239c0,0,0,-80,-33,-148c0,0,-32,-68,-81,-116c0,0,-50,-47,-110,-77c0,0,-86,-40,-176,-40Z" 
id="f0_p"
transform="scale(0.001,-0.001)" />

<path d="M191,-20c0,0,-34,0,-58,24c0,0,-24,24,-24,58c0,0,0,35,24,59c0,0,24,24,58,24c0,0,35,0,59,-24c0,0,24,-25,24,-59c0,0,0,-34,-24,-58c0,0,-25,-24,-59,-24Z" 
id="f0_i"
transform="scale(0.001,-0.001)" />

<path d="M24,0V27H60c0,0,63,0,91,37c0,0,18,24,18,115V833c0,0,0,77,-10,102c0,0,-7,18,-30,32c0,0,-32,18,-69,18H24v27H776L787,790H761c0,0,-20,71,-45,104c0,0,-26,33,-64,48c0,0,-37,15,-117,15H312V558H497c0,0,63,0,93,28c0,0,29,28,39,111h27V355H629c0,0,-1,59,-16,87c0,0,-14,27,-40,41c0,0,-26,14,-76,14H312V179c0,0,0,-77,10,-102c0,0,7,-18,31,-32c0,0,33,-18,69,-18h37V0Z" 
id="f0_16"
transform="scale(0.001,-0.001)" />

<path d="M55,0V26c0,0,50,0,67,10c0,0,17,10,27,32c0,0,10,23,10,86V418c0,0,0,111,-6,144c0,0,-6,24,-17,33c0,0,-11,10,-30,10c0,0,-21,0,-51,-11L45,620l206,83h33V154c0,0,0,-64,9,-85c0,0,9,-22,27,-32c0,0,19,-11,67,-11V0ZM222,909c0,0,-32,0,-54,23c0,0,-22,22,-22,53c0,0,0,32,22,54c0,0,22,22,54,22c0,0,31,0,53,-22c0,0,22,-22,22,-54c0,0,0,-31,-22,-53c0,0,-22,-23,-53,-23Z" 
id="f0_25"
transform="scale(0.001,-0.001)" />

<path d="M21,0V26H35c0,0,53,0,71,27c0,0,18,27,18,101V408c0,0,0,123,-5,150c0,0,-6,27,-17,37c0,0,-12,10,-31,10c0,0,-21,0,-50,-11L10,620l206,83h32V558c0,0,120,145,229,145c0,0,56,0,96,-28c0,0,40,-28,64,-92c0,0,16,-45,16,-137V154c0,0,0,-65,11,-88c0,0,8,-19,26,-29c0,0,18,-11,68,-11V0H419V26h14c0,0,47,0,66,15c0,0,20,15,27,43c0,0,3,11,3,70V434c0,0,0,93,-24,135c0,0,-24,42,-81,42c0,0,-88,0,-176,-97V154c0,0,0,-69,9,-86c0,0,10,-21,28,-31c0,0,19,-11,75,-11V0Z" 
id="f0_2a"
transform="scale(0.001,-0.001)" />

<path d="M399,62c0,0,68,0,131,68V481c0,0,-5,51,-27,93c0,0,-22,42,-59,63c0,0,-37,21,-72,21c0,0,-65,0,-117,-59c0,0,-67,-77,-67,-226c0,0,0,-151,65,-231c0,0,66,-80,146,-80ZM330,-20c0,0,-112,0,-196,93c0,0,-83,94,-83,240c0,0,0,147,92,269c0,0,93,122,238,122c0,0,90,0,149,-58V773c0,0,0,117,-6,144c0,0,-5,27,-17,37c0,0,-12,9,-30,9c0,0,-20,0,-52,-12l-9,27l204,83h33V270c0,0,0,-120,6,-146c0,0,5,-27,18,-37c0,0,12,-11,28,-11c0,0,21,0,54,13l9,-26L564,-20H530V78C530,78,480,25,432,2c0,0,-47,-22,-102,-22Z" 
id="f0_20"
transform="scale(0.001,-0.001)" />

<path d="M255,-10c0,0,-35,0,-68,18c0,0,-32,19,-48,55c0,0,-16,35,-16,109V632H15v24c0,0,41,16,84,56c0,0,43,39,77,92c0,0,17,29,48,104h23V683H407V632H247V188c0,0,0,-66,19,-90c0,0,19,-23,49,-23c0,0,24,0,47,16c0,0,23,15,36,45h29c0,0,-26,-73,-74,-110c0,0,-47,-36,-98,-36Z" 
id="f0_2g"
transform="scale(0.001,-0.001)" />

<path d="M20,0V26c0,0,45,0,71,15c0,0,15,7,24,28c0,0,9,21,9,85V773c0,0,0,117,-5,144c0,0,-6,27,-17,37c0,0,-12,9,-31,9c0,0,-16,0,-51,-12L10,978l204,83h34V561c0,0,83,91,131,116c0,0,49,26,97,26c0,0,58,0,100,-32c0,0,42,-32,62,-101c0,0,14,-47,14,-174V154c0,0,0,-65,11,-89c0,0,7,-18,25,-28c0,0,18,-11,66,-11V0H418V26h15c0,0,48,0,67,15c0,0,18,15,26,43c0,0,2,12,2,70V396c0,0,0,112,-12,147c0,0,-11,35,-36,53c0,0,-26,17,-61,17c0,0,-37,0,-76,-19c0,0,-40,-20,-95,-79V154c0,0,0,-70,8,-87c0,0,8,-17,29,-29c0,0,22,-12,74,-12V0Z" 
id="f0_24"
transform="scale(0.001,-0.001)" />

<path d="M479,469c0,0,-4,66,-16,93c0,0,-18,42,-55,65c0,0,-37,24,-78,24c0,0,-62,0,-111,-48c0,0,-48,-48,-57,-134ZM355,-20c0,0,-123,0,-211,95c0,0,-87,96,-87,258c0,0,0,175,90,273c0,0,89,98,225,98c0,0,115,0,189,-76c0,0,74,-75,74,-202H162c0,0,0,-152,74,-239c0,0,75,-86,175,-86c0,0,67,0,117,36c0,0,50,37,83,127l24,-15c0,0,-16,-102,-91,-186c0,0,-76,-83,-189,-83Z" 
id="f0_21"
transform="scale(0.001,-0.001)" />

<path d="M312,-20c0,0,-62,0,-143,22c0,0,-25,8,-40,8c0,0,-18,0,-27,-19H77V234h25c0,0,21,-105,80,-158c0,0,59,-53,132,-53c0,0,51,0,84,31c0,0,32,30,32,72c0,0,0,52,-36,87c0,0,-36,35,-144,88c0,0,-109,54,-142,97c0,0,-34,43,-34,107c0,0,0,85,58,141c0,0,58,57,150,57c0,0,40,0,97,-17c0,0,38,-11,51,-11c0,0,12,0,19,5c0,0,7,5,15,23h25V470H464c0,0,-28,110,-72,149c0,0,-45,40,-113,40c0,0,-53,0,-85,-28c0,0,-32,-27,-32,-61c0,0,0,-41,24,-71c0,0,23,-31,94,-65L389,381c0,0,152,-74,152,-194c0,0,0,-94,-71,-151c0,0,-70,-56,-158,-56Z" 
id="f0_2f"
transform="scale(0.001,-0.001)" />

<path d="M406,32c0,0,72,0,119,60c0,0,47,59,47,205c0,0,0,181,-78,286c0,0,-53,71,-135,71c0,0,-40,0,-79,-23c0,0,-40,-24,-65,-83c0,0,-24,-58,-24,-151c0,0,0,-149,59,-257c0,0,59,-108,156,-108ZM374,-20c0,0,-154,0,-245,122c0,0,-77,104,-77,233c0,0,0,94,46,187c0,0,47,92,123,137c0,0,76,44,161,44c0,0,155,0,249,-118c0,0,80,-100,80,-231c0,0,0,-91,-44,-185C667,169,623,75,546,27c0,0,-77,-47,-172,-47Z" 
id="f0_2b"
transform="scale(0.001,-0.001)" />

<path d="M17,0V26c0,0,52,0,77,17c0,0,19,12,26,38c0,0,4,13,4,73V419c0,0,0,119,-5,142c0,0,-4,23,-17,33c0,0,-13,11,-33,11c0,0,-23,0,-52,-11l-7,26l207,83h31V549c0,0,86,154,176,154c0,0,41,0,68,-25c0,0,27,-25,27,-58c0,0,0,-29,-20,-49c0,0,-19,-20,-46,-20c0,0,-26,0,-58,25c0,0,-33,26,-48,26c0,0,-14,0,-29,-15c0,0,-34,-30,-70,-101V159c0,0,0,-56,15,-85c0,0,9,-20,34,-34c0,0,24,-14,71,-14V0Z" 
id="f0_2e"
transform="scale(0.001,-0.001)" />

<path d="M286,72c0,0,57,0,149,75V407c0,0,-113,-45,-145,-64c0,0,-59,-32,-85,-68c0,0,-25,-36,-25,-78c0,0,0,-54,32,-89c0,0,32,-36,74,-36ZM217,-13c0,0,-71,0,-116,48c0,0,-46,48,-46,127c0,0,0,50,22,87c0,0,31,50,106,95c0,0,76,45,252,109v26c0,0,0,102,-32,140c0,0,-32,38,-94,38c0,0,-47,0,-74,-25c0,0,-28,-25,-28,-58l1,-43c0,0,0,-34,-17,-53c0,0,-18,-18,-47,-18c0,0,-28,0,-45,19c0,0,-18,19,-18,53c0,0,0,64,66,117c0,0,65,54,184,54c0,0,91,0,149,-31c0,0,44,-23,65,-72c0,0,13,-32,13,-131V238c0,0,0,-98,4,-120c0,0,4,-22,12,-29c0,0,9,-8,20,-8c0,0,12,0,21,5c0,0,16,10,61,55V99C676,99,592,-12,516,-12c0,0,-37,0,-58,24c0,0,-22,26,-23,86C435,98,330,17,303,5c0,0,-40,-18,-86,-18Z" 
id="f0_1x"
transform="scale(0.001,-0.001)" />

<path d="M342,-20c0,0,-116,0,-203,97c0,0,-86,98,-86,264c0,0,0,161,96,261c0,0,95,101,230,101c0,0,100,0,165,-53c0,0,65,-54,65,-111c0,0,0,-29,-18,-46c0,0,-18,-18,-51,-18c0,0,-44,0,-66,29c0,0,-13,15,-17,59c0,0,-4,45,-30,68c0,0,-26,22,-73,22c0,0,-74,0,-120,-55c0,0,-60,-73,-60,-193c0,0,0,-122,60,-216c0,0,60,-93,162,-93c0,0,73,0,131,49c0,0,41,35,80,126l22,-10C629,261,601,125,521,52c0,0,-81,-72,-179,-72Z" 
id="f0_1z"
transform="scale(0.001,-0.001)" />

<path d="M397,34c0,0,67,0,126,75c0,0,58,74,58,216c0,0,0,131,-58,201c0,0,-59,70,-133,70c0,0,-39,0,-79,-20c0,0,-29,-14,-75,-59V109c0,0,37,-37,78,-56c0,0,40,-19,83,-19ZM358,-20c0,0,-59,0,-121,21c0,0,-61,22,-126,65V773c0,0,0,117,-5,144c0,0,-6,27,-18,37c0,0,-12,9,-29,9c0,0,-21,0,-53,-12l-9,27l205,83h34V564c0,0,98,139,213,139c0,0,105,0,183,-90c0,0,78,-90,78,-245c0,0,0,-182,-121,-293c0,0,-103,-95,-231,-95Z" 
id="f0_1y"
transform="scale(0.001,-0.001)" />

<path d="M336,-20L117,554c0,0,-21,55,-42,74c0,0,-21,19,-66,29v26H296V657c0,0,-40,-3,-52,-14c0,0,-13,-12,-13,-33c0,0,0,-23,13,-56L390,162L537,481L498,581c0,0,-18,46,-47,63c0,0,-17,11,-61,13v26H716V657c0,0,-54,-2,-77,-20c0,0,-15,-12,-15,-39c0,0,0,-15,6,-30L785,177L929,554c0,0,15,40,15,65c0,0,0,14,-15,25c0,0,-14,12,-57,13v26h216V657c0,0,-65,-10,-95,-89L764,-20H733L563,415L363,-20Z" 
id="f0_2j"
transform="scale(0.001,-0.001)" />

<path d="M58,0V26c0,0,47,0,64,10c0,0,18,10,28,32c0,0,9,23,9,86V775c0,0,0,116,-5,142c0,0,-5,27,-17,37c0,0,-11,9,-29,9c0,0,-20,0,-49,-12L46,978l204,83h34V154c0,0,0,-64,9,-85c0,0,9,-21,29,-32c0,0,19,-11,72,-11V0Z" 
id="f0_28"
transform="scale(0.001,-0.001)" />

<path d="M17,774l191,256h95L493,774H440L255,932L69,774Z" 
id="f1_4"
transform="scale(0.001,-0.001)" />

<path d="M412,-328c0,0,-195,96,-303,284C109,-44,0,142,0,365c0,0,0,232,114,422c0,0,114,191,298,273v-31c0,0,-92,-51,-151,-139c0,0,-59,-88,-88,-223c0,0,-29,-136,-29,-282c0,0,0,-167,27,-301c0,0,26,-133,82,-221c0,0,55,-89,159,-159v-32Z" 
id="f2_c"
transform="scale(0.001,-0.001)" />

<path d="M34,-328v32c0,0,92,50,151,138c0,0,59,88,88,222c0,0,29,135,29,283c0,0,0,165,-27,300c0,0,-26,134,-82,222c0,0,-56,89,-159,160v31c0,0,194,-96,303,-284c0,0,108,-187,108,-410c0,0,0,-232,-114,-422c0,0,-114,-191,-297,-272Z" 
id="f2_d"
transform="scale(0.001,-0.001)" />

<path d="M452,373V875L97,373ZM452,0V267H23v95l470,671h82V373H711V267H575V0Z" 
id="f0_o"
transform="scale(0.001,-0.001)" />

<path d="M33,0V27c0,0,264,241,371,393c0,0,108,152,108,278c0,0,0,96,-59,158c0,0,-59,62,-141,62c0,0,-75,0,-134,-43c0,0,-59,-44,-88,-128H63c0,0,18,138,95,212c0,0,77,74,193,74c0,0,123,0,205,-80c0,0,83,-79,83,-186c0,0,0,-77,-36,-154c0,0,-55,-121,-179,-256C424,357,238,154,191,112H455c0,0,81,0,114,6c0,0,32,6,58,25c0,0,27,18,46,52h27L630,0Z" 
id="f0_m"
transform="scale(0.001,-0.001)" />

<path d="M238,-17c0,0,-103,0,-139,25C99,8,62,33,62,62c0,0,0,22,17,38c0,0,18,16,42,16c0,0,19,0,38,-6c0,0,13,-3,58,-27c0,0,45,-23,62,-28c0,0,27,-8,59,-8c0,0,76,0,132,59c0,0,56,59,56,140c0,0,0,59,-26,115c0,0,-19,41,-42,63c0,0,-32,30,-88,54c0,0,-56,25,-114,25H232v22c0,0,59,8,118,42c0,0,59,35,86,85c0,0,27,49,27,108c0,0,0,76,-48,124c0,0,-48,47,-120,47c0,0,-116,0,-193,-124L77,819c0,0,44,102,110,158c0,0,66,56,164,56c0,0,122,0,187,-80c0,0,49,-58,49,-126c0,0,0,-110,-139,-228c0,0,93,-36,141,-104c0,0,48,-68,48,-160c0,0,0,-131,-84,-227C553,108,444,-17,238,-17Z" 
id="f0_n"
transform="scale(0.001,-0.001)" />

<path d="M31,0L164,463c0,0,24,81,24,115c0,0,0,14,-12,23c0,0,-14,12,-37,12c0,0,-15,0,-54,-7L74,633l255,42L220,312c0,0,134,223,243,312c0,0,62,51,102,51c0,0,25,0,39,-15c0,0,15,-15,15,-42c0,0,0,-50,-25,-94c0,0,-18,-34,-52,-34c0,0,-17,0,-30,11c0,0,-12,11,-15,35c0,0,-1,14,-7,18c0,0,-6,6,-14,6c0,0,-13,0,-24,-6c0,0,-19,-10,-59,-58c0,0,-62,-73,-134,-189c0,0,-32,-49,-54,-111c0,0,-32,-85,-36,-102L145,0Z" 
id="f3_2e"
transform="scale(0.001,-0.001)" />

<path d="M145,-17c0,0,-29,0,-48,18C97,1,79,19,79,46c0,0,0,28,20,93L201,475c0,0,24,82,24,103c0,0,0,17,-11,27c0,0,-12,10,-32,10c0,0,-16,0,-68,-8v30l260,42L218,149c0,0,-16,-53,-16,-64c0,0,0,-11,6,-19c0,0,7,-7,15,-7c0,0,11,0,25,12c0,0,39,33,78,95l26,-17C352,149,304,72,238,20c0,0,-49,-37,-93,-37ZM342,825c0,0,-31,0,-53,22c0,0,-22,22,-22,53c0,0,0,31,22,53c0,0,21,22,53,22c0,0,31,0,53,-22c0,0,22,-22,22,-53c0,0,0,-31,-23,-53c0,0,-22,-22,-52,-22Z" 
id="f3_25"
transform="scale(0.001,-0.001)" />

<path d="M-163,-328c0,0,-47,0,-71,21c0,0,-24,22,-24,51c0,0,0,24,18,41c0,0,18,18,42,18c0,0,22,0,38,-15c0,0,13,-11,13,-25c0,0,0,-19,-18,-33c0,0,-10,-8,-10,-14l1,-3c0,0,3,-3,7,-5c0,0,5,-1,14,-1c0,0,60,0,103,38c0,0,42,38,75,153L189,469c0,0,25,85,25,94c0,0,0,18,-16,32c0,0,-16,14,-41,14c0,0,-10,0,-23,-2c0,0,-9,-2,-28,-5v27l256,46L171,8C171,8,120,-170,30,-249c0,0,-89,-79,-193,-79ZM353,819c0,0,-31,0,-53,22c0,0,-22,22,-22,54c0,0,0,31,22,53c0,0,22,22,53,22c0,0,31,0,53,-22c0,0,22,-22,22,-53c0,0,0,-32,-22,-54c0,0,-22,-22,-53,-22Z" 
id="f3_26"
transform="scale(0.001,-0.001)" />

<path d="M457,-17c0,0,-31,0,-48,24c0,0,-30,44,-99,346L206,264L131,0H15L258,852l21,72c0,0,4,19,4,33c0,0,0,17,-14,29c0,0,-13,12,-38,12c0,0,-16,0,-52,-7l-5,26l258,44L224,328l85,73c0,0,140,117,183,173c0,0,13,19,13,29c0,0,0,6,-4,12c0,0,-5,6,-18,10c0,0,-13,4,-46,4H411l8,28H745l-7,-28c0,0,-56,-3,-97,-18c0,0,-40,-14,-79,-43c0,0,-75,-56,-98,-77L399,434c0,0,16,-54,40,-150c0,0,40,-159,54,-189c0,0,14,-29,29,-29c0,0,13,0,30,12c0,0,39,28,83,90l26,-18C661,150,580,47,536,15c0,0,-43,-32,-79,-32Z" 
id="f3_27"
transform="scale(0.001,-0.001)" />

<path d="M620,-14c0,0,-52,0,-93,43c0,0,-41,45,-77,203L384,522L132,0H0L340,703l-12,66c0,0,-23,107,-61,146c0,0,-37,38,-83,38c0,0,-42,0,-74,-30c0,0,-31,-31,-41,-100H43c0,0,2,117,57,187c0,0,40,51,96,51c0,0,50,0,86,-40c0,0,54,-60,88,-213L489,283c0,0,27,-118,62,-153c0,0,33,-36,79,-36c0,0,43,0,71,29c0,0,28,29,33,94h30c0,0,1,-19,1,-29c0,0,0,-98,-49,-158c0,0,-37,-44,-96,-44Z" 
id="f4_28"
transform="scale(0.001,-0.001)" />

<path d="M0,214v74H784V214ZM0,494v72H784V494Z" 
id="f2_x"
transform="scale(0.001,-0.001)" />

<path d="M0,356v74H784V356Z" 
id="f2_h"
transform="scale(0.001,-0.001)" />

<path d="M355,0V355H0v72H355V784h72V427H782V355H427V0Z" 
id="f2_f"
transform="scale(0.001,-0.001)" />

<path d="M413,-106l30,80H0V27H443l-30,80L626,0L413,-106Z" 
id="f1_20"
transform="scale(0.001,-0.001)" />

<path d="M68,-328c0,0,-27,0,-44,20c0,0,-23,29,-23,71c0,0,0,21,9,52c0,0,20,71,25,123c0,0,9,88,9,151V683H168V253c0,0,0,-76,13,-109c0,0,13,-34,46,-53c0,0,33,-20,65,-20c0,0,39,0,92,23c0,0,53,24,108,75V683H616V234c0,0,0,-89,8,-125c0,0,7,-26,21,-37c0,0,13,-11,28,-11c0,0,19,0,35,18c0,0,16,19,24,75h30C762,154,749,54,713,16c0,0,-37,-37,-93,-37c0,0,-55,0,-88,32c0,0,-33,34,-40,116C492,127,416,43,348,10c0,0,-68,-32,-118,-32c0,0,-34,0,-66,13c0,0,-32,12,-62,37c0,0,-2,-107,19,-188c0,0,14,-57,14,-80c0,0,0,-41,-20,-65c0,0,-21,-23,-47,-23Z" 
id="f4_29"
transform="scale(0.001,-0.001)" />

<path d="M107,-21V325h27c0,0,19,-109,52,-163c0,0,33,-54,100,-90c0,0,68,-36,148,-36c0,0,93,0,148,49c0,0,54,50,54,117c0,0,0,37,-21,75c0,0,-20,38,-64,71c0,0,-29,22,-159,95c0,0,-130,72,-185,115c0,0,-55,44,-83,96c0,0,-28,52,-28,114c0,0,0,109,83,188c0,0,84,78,213,78c0,0,81,0,171,-39c0,0,42,-19,59,-19c0,0,20,0,32,11c0,0,12,12,20,47h27V684H674c0,0,-14,101,-48,161c0,0,-35,60,-100,95c0,0,-64,35,-133,35c0,0,-77,0,-128,-47c0,0,-51,-48,-51,-108c0,0,0,-46,32,-84c0,0,47,-56,221,-149c0,0,142,-76,194,-117c0,0,51,-41,80,-96c0,0,28,-55,28,-115c0,0,0,-115,-90,-198c0,0,-89,-82,-229,-82c0,0,-44,0,-83,6c0,0,-23,4,-95,27c0,0,-73,24,-93,24c0,0,-18,0,-29,-11c0,0,-11,-12,-16,-46Z" 
id="f0_1j"
transform="scale(0.001,-0.001)" />

<path d="M213,-20c0,0,-34,0,-58,24c0,0,-24,24,-24,58c0,0,0,34,24,58c0,0,24,25,58,25c0,0,35,0,59,-25c0,0,24,-24,24,-58c0,0,0,-34,-24,-58c0,0,-25,-24,-59,-24Zm3,559c0,0,-35,0,-59,24c0,0,-24,24,-24,58c0,0,0,35,24,59c0,0,24,24,59,24c0,0,34,0,58,-24c0,0,24,-24,24,-59c0,0,0,-34,-24,-58c0,0,-24,-24,-58,-24Z" 
id="f0_u"
transform="scale(0.001,-0.001)" />

<path d="M474,-326c0,0,-112,57,-188,133c0,0,-107,108,-165,254c0,0,-58,147,-58,305c0,0,0,231,114,421c0,0,114,191,297,273v-31c0,0,-92,-51,-151,-139c0,0,-59,-88,-88,-223c0,0,-30,-135,-30,-281c0,0,0,-160,25,-290c0,0,20,-102,47,-164c0,0,28,-62,75,-120c0,0,47,-57,122,-109v-29Z" 
id="f0_c"
transform="scale(0.001,-0.001)" />

<path d="M145,-328c0,0,-44,0,-73,25c0,0,-28,25,-28,58c0,0,0,31,21,50c0,0,20,19,56,19c0,0,25,0,67,-16c0,0,30,-11,38,-11c0,0,22,0,49,23c0,0,26,23,53,89L376,28L131,542c0,0,-11,24,-36,58c0,0,-19,27,-30,36c0,0,-18,12,-56,21v26H328V657H312c0,0,-33,0,-50,-15c0,0,-17,-14,-17,-36c0,0,0,-30,25,-81L437,179L589,557c0,0,12,31,12,62c0,0,0,13,-5,20c0,0,-6,8,-19,13c0,0,-12,5,-44,5v26H754V657c0,0,-27,-3,-42,-12c0,0,-15,-9,-33,-34c0,0,-7,-10,-25,-58L376,-128c0,0,-40,-99,-105,-150c0,0,-66,-50,-126,-50Z" 
id="f0_2l"
transform="scale(0.001,-0.001)" />

<path d="M35,-326v29c0,0,92,51,151,139c0,0,60,87,89,221c0,0,28,136,28,282c0,0,0,159,-24,290c0,0,-19,103,-47,165c0,0,-28,62,-75,119c0,0,-46,57,-122,110v31c0,0,113,-56,188,-132c0,0,107,-109,165,-255c0,0,58,-147,58,-306c0,0,0,-231,-114,-420c0,0,-113,-191,-297,-273Z" 
id="f0_d"
transform="scale(0.001,-0.001)" />

<path d="M251,69c0,0,93,0,201,118c0,0,131,157,126,322c0,0,0,62,-26,90c0,0,-27,28,-74,28c0,0,-52,0,-110,-44c0,0,-83,-62,-148,-185c0,0,-64,-122,-64,-221c0,0,0,-50,28,-79c0,0,29,-29,67,-29ZM183,-17c0,0,-60,0,-103,44C80,27,36,71,36,149c0,0,0,117,77,247c0,0,77,130,195,208c0,0,92,62,174,62c0,0,49,0,82,-22c0,0,32,-22,49,-73l24,77l115,18L609,160L593,92c0,0,-2,-10,-2,-17c0,0,0,-10,5,-19c0,0,4,-6,11,-6c0,0,6,0,17,11c0,0,21,20,55,88l25,-18c0,0,-43,-75,-89,-112c0,0,-45,-36,-84,-36c0,0,-27,0,-42,16c0,0,-15,15,-15,46c0,0,0,36,17,96l16,55C507,196,399,69,309,19c0,0,-64,-36,-126,-36Z" 
id="f3_1x"
transform="scale(0.001,-0.001)" />

<path d="M296,18c0,0,63,0,130,48c0,0,68,48,118,162c0,0,50,114,50,230c0,0,0,69,-33,108c0,0,-32,38,-76,38c0,0,-66,0,-129,-57c0,0,-63,-58,-91,-157L169,53c0,0,72,-35,127,-35ZM284,-17c0,0,-109,0,-225,84L283,850c0,0,26,90,26,105c0,0,0,20,-12,29c0,0,-17,14,-50,14c0,0,-16,0,-48,-6v29l257,42L310,545c0,0,69,75,120,102c0,0,51,28,107,28c0,0,79,0,129,-55c0,0,51,-54,51,-147c0,0,0,-120,-67,-239C650,234,583,115,483,49c0,0,-101,-66,-199,-66Z" 
id="f3_1y"
transform="scale(0.001,-0.001)" />

<path d="M269,-17c0,0,-105,0,-165,59c0,0,-59,60,-59,160c0,0,0,114,64,225c0,0,64,110,171,179c0,0,108,69,212,69c0,0,81,0,121,-34c0,0,41,-34,41,-83c0,0,0,-46,-29,-79c0,0,-21,-25,-51,-25c0,0,-24,0,-39,15c0,0,-15,14,-15,37c0,0,0,14,5,26c0,0,6,12,23,29c0,0,18,16,22,24c0,0,4,7,4,15c0,0,0,16,-15,27c0,0,-21,14,-61,14c0,0,-73,0,-144,-51c0,0,-72,-51,-123,-146c0,0,-61,-115,-61,-229c0,0,0,-76,44,-121c0,0,43,-44,117,-44c0,0,58,0,114,29c0,0,56,28,126,104l22,-20C593,163,515,70,436,26c0,0,-79,-43,-167,-43Z" 
id="f3_1z"
transform="scale(0.001,-0.001)" />

<path d="M252,70c0,0,90,0,212,168c0,0,123,168,123,294c0,0,0,47,-30,76c0,0,-30,30,-77,30c0,0,-103,0,-214,-156C266,482,155,327,155,185c0,0,0,-56,28,-85c0,0,29,-30,69,-30ZM185,-17c0,0,-63,0,-109,50C76,33,29,83,29,169c0,0,0,111,77,237c0,0,77,126,203,205c0,0,99,64,182,64c0,0,44,0,75,-17c0,0,32,-16,62,-54l71,247c0,0,11,40,18,64c0,0,9,31,9,50c0,0,0,16,-11,27c0,0,-16,13,-40,13c0,0,-17,0,-57,-6v27l255,42L615,170c0,0,-21,-73,-21,-95c0,0,0,-7,4,-13c0,0,4,-6,8,-6c0,0,7,0,16,9c0,0,16,16,56,88l25,-16c0,0,-43,-73,-88,-114c0,0,-44,-40,-83,-40c0,0,-20,0,-35,17c0,0,-16,18,-16,51c0,0,0,42,22,114l29,94C532,259,413,91,315,27c0,0,-68,-44,-130,-44Z" 
id="f3_20"
transform="scale(0.001,-0.001)" />

<path d="M379,29c0,0,41,0,84,37c0,0,43,36,65,121c0,0,34,128,34,362c0,0,0,173,-35,288c0,0,-27,86,-69,122c0,0,-31,25,-74,25c0,0,-51,0,-90,-46c0,0,-54,-62,-73,-195c0,0,-20,-132,-20,-261c0,0,0,-209,52,-341c0,0,42,-112,126,-112Zm-2,-46c0,0,-145,0,-241,170c0,0,-81,144,-81,347c0,0,0,173,52,298c0,0,52,125,139,186c0,0,67,49,139,49c0,0,116,0,208,-119c0,0,116,-147,116,-398c0,0,0,-176,-51,-299C658,217,608,94,529,38c0,0,-79,-55,-152,-55Z" 
id="f0_k"
transform="scale(0.001,-0.001)" />

<path d="M83,0C83,0,48,0,24,24C24,24,0,49,0,83c0,0,0,34,24,58c0,0,24,24,59,24c0,0,34,0,58,-24c0,0,24,-24,24,-58c0,0,0,-34,-24,-59C141,24,117,0,83,0ZM695,0c0,0,-34,0,-58,24c0,0,-25,25,-25,59c0,0,0,34,25,58c0,0,24,24,58,24c0,0,34,0,58,-24c0,0,24,-24,24,-58c0,0,0,-34,-24,-59C753,24,729,0,695,0ZM388,594c0,0,-34,0,-59,23c0,0,-24,24,-24,59c0,0,0,34,24,58c0,0,25,25,59,25c0,0,34,0,58,-25c0,0,24,-24,24,-58c0,0,0,-35,-24,-59c0,0,-24,-23,-58,-23Z" 
id="f2_1s"
transform="scale(0.001,-0.001)" />

<path d="M52,62L0,114L278,390L0,667l52,52L330,442L608,719l51,-51L382,390L659,114L608,62L330,338L52,62Z" 
id="f2_3a"
transform="scale(0.001,-0.001)" />

<path d="M120,-328V1061h62V-328Z" 
id="f0_2o"
transform="scale(0.001,-0.001)" />

<path d="M83,308c0,0,-35,0,-59,24c0,0,-24,24,-24,59c0,0,0,34,24,58c0,0,24,24,59,24c0,0,33,0,58,-24c0,0,24,-24,24,-58c0,0,0,-35,-24,-59c0,0,-25,-24,-58,-24Z" 
id="f2_49"
transform="scale(0.001,-0.001)" />

<path d="M405,24c0,0,65,0,116,62c0,0,51,61,51,174c0,0,0,128,-50,221c0,0,-51,93,-144,93c0,0,-29,0,-61,-12c0,0,-33,-12,-96,-51c0,0,-14,-101,-14,-163c0,0,0,-72,27,-155c0,0,26,-84,79,-134c0,0,38,-35,92,-35ZM384,-17c0,0,-104,0,-177,68C207,51,66,185,66,397c0,0,0,136,54,258c0,0,54,122,156,217c0,0,101,95,193,128c0,0,93,33,172,33h44v-28c0,0,-99,-10,-161,-39c0,0,-62,-29,-123,-90c0,0,-61,-60,-101,-135c0,0,-39,-74,-66,-176c0,0,107,73,215,73c0,0,104,0,180,-83c0,0,76,-84,76,-215c0,0,0,-126,-77,-231c0,0,-92,-126,-244,-126Z" 
id="f0_q"
transform="scale(0.001,-0.001)" />

<path d="M292,-20c0,0,-57,0,-100,33c0,0,-42,33,-58,85c0,0,-17,52,-17,148V551c0,0,0,49,-10,68c0,0,-11,18,-31,29c0,0,-19,9,-68,9c-2,0,-4,0,-6,0v26H242V226c0,0,0,-95,33,-125c0,0,33,-30,80,-30c0,0,32,0,73,21c0,0,40,20,96,76V555c0,0,0,59,-21,80c0,0,-22,21,-89,22v26H647V269c0,0,0,-119,6,-145c0,0,6,-27,18,-37c0,0,12,-11,29,-11c0,0,23,0,52,13L763,63L558,-20H524V124C524,124,436,29,390,4c0,0,-47,-24,-98,-24Z" 
id="f0_2h"
transform="scale(0.001,-0.001)" />

<path d="M253,0V27h36c0,0,64,0,91,39c0,0,16,24,16,109V948H274c0,0,-71,0,-100,-10c0,0,-39,-14,-67,-54c0,0,-27,-41,-33,-109H46l12,237H883L894,775H865c0,0,-8,62,-22,89c0,0,-23,43,-61,64c0,0,-39,20,-101,20H539V175c0,0,0,-93,20,-116c0,0,28,-32,87,-32h36V0Z" 
id="f0_1k"
transform="scale(0.001,-0.001)" />

<path d="M23,0V26c0,0,47,0,66,10c0,0,19,11,28,33c0,0,10,22,10,85V416c0,0,0,112,-7,145c0,0,-5,25,-16,34c0,0,-11,10,-31,10c0,0,-21,0,-50,-11L12,620l207,83h32V557c0,0,75,75,88,86c0,0,34,29,72,44c0,0,39,16,77,16c0,0,64,0,110,-37c0,0,47,-38,62,-109c0,0,77,90,130,118c0,0,53,28,109,28c0,0,54,0,96,-28c0,0,42,-28,67,-91c0,0,16,-43,16,-136V154c0,0,0,-64,10,-88c0,0,8,-16,28,-28c0,0,20,-12,65,-12V0H844V26h14c0,0,44,0,69,18c0,0,17,12,24,38c0,0,3,13,3,72V448c0,0,0,83,-20,117c0,0,-29,48,-93,48c0,0,-39,0,-79,-20c0,0,-40,-19,-97,-73l-1,-8l2,-32V154c0,0,0,-70,8,-87c0,0,7,-17,29,-29c0,0,21,-12,73,-12V0H431V26c0,0,57,0,78,14c0,0,21,13,29,40c0,0,4,13,4,74V448c0,0,0,83,-25,120c0,0,-33,48,-91,48c0,0,-40,0,-80,-22c0,0,-61,-33,-95,-74V154c0,0,0,-67,10,-87c0,0,9,-20,27,-30c0,0,18,-11,74,-11V0Z" 
id="f0_29"
transform="scale(0.001,-0.001)" />

<path d="M398,24c0,0,74,0,120,58c0,0,61,76,61,214c0,0,0,156,-69,240c0,0,-47,59,-113,59c0,0,-36,0,-71,-18c0,0,-27,-14,-88,-81V242c0,0,0,-83,6,-109c0,0,11,-43,51,-76c0,0,41,-33,103,-33ZM-4,-326v27H15c5,0,42,0,69,16c0,0,14,8,22,26c0,0,7,19,7,94V481c0,0,0,67,-6,85c0,0,-5,18,-18,27c0,0,-13,9,-36,9c0,0,-18,0,-45,-10L0,615l209,85h29V540c0,0,53,91,106,127c0,0,53,36,112,36c0,0,103,0,172,-80c0,0,84,-99,84,-257c0,0,0,-176,-102,-292c0,0,-83,-94,-210,-94c0,0,-55,0,-95,16c0,0,-30,10,-67,44V-167c0,0,0,-71,8,-90c0,0,9,-20,30,-31c0,0,21,-11,77,-11v-27Z" 
id="f0_2c"
transform="scale(0.001,-0.001)" />

<path d="M63,0V26H93c0,0,30,0,54,15c0,0,25,15,34,41c0,0,10,25,10,99V630H58v53H191v45c0,0,0,102,33,173c0,0,32,71,100,114c0,0,68,44,152,44c0,0,79,0,145,-51c0,0,43,-33,43,-75c0,0,0,-22,-19,-42c0,0,-20,-20,-42,-20c0,0,-17,0,-36,12c0,0,-19,13,-47,53c0,0,-28,41,-51,55c0,0,-23,14,-51,14c0,0,-35,0,-58,-18c0,0,-24,-18,-35,-57c0,0,-10,-38,-10,-197V683H491V630H315V181c0,0,0,-96,21,-122c0,0,27,-33,73,-33h62V0Z" 
id="f0_22"
transform="scale(0.001,-0.001)" />

<path d="M376,-20L133,556c0,0,-17,41,-31,58c0,0,-15,18,-39,30c0,0,-12,7,-50,13v26H335V657H314c0,0,-29,0,-44,-14c0,0,-16,-14,-15,-38c0,0,-1,-26,15,-62L429,165L588,557c0,0,17,42,17,64c0,0,0,10,-6,17c0,0,-8,11,-21,15c0,0,-13,4,-52,4v26H750V657c0,0,-39,-3,-54,-16c0,0,-26,-23,-47,-76L409,-20Z" 
id="f0_2i"
transform="scale(0.001,-0.001)" />

<path d="M411,-239c0,0,134,0,198,48c0,0,64,47,64,100c0,0,0,39,-38,55c0,0,-39,16,-154,19c0,0,-167,5,-258,17c0,0,-35,-37,-53,-70c0,0,-17,-32,-17,-60c0,0,0,-36,43,-62c0,0,74,-47,215,-47ZM380,257c0,0,56,0,93,43c0,0,36,42,36,133c0,0,0,118,-51,185c0,0,-38,49,-98,49c0,0,-55,0,-92,-44c0,0,-37,-44,-37,-135c0,0,0,-117,50,-182c0,0,39,-49,99,-49ZM345,-328c0,0,-144,0,-243,64c0,0,-56,38,-56,78c0,0,0,18,8,36c0,0,13,27,52,76c0,0,5,7,76,80c0,0,-39,23,-55,41c0,0,-16,19,-16,42c0,0,0,26,22,61c0,0,21,35,98,100c0,0,-63,30,-97,85c0,0,-33,55,-33,121c0,0,0,101,76,174c0,0,77,73,196,73c0,0,98,0,170,-48H688c0,0,32,0,37,-2c0,0,6,-2,8,-6c0,0,4,-7,4,-24c0,0,0,-20,-4,-27c0,0,-2,-4,-7,-6c0,0,-6,-2,-38,-2H599c0,0,41,-54,41,-137c0,0,0,-96,-73,-163c0,0,-73,-68,-196,-68c0,0,-51,0,-104,15c0,0,-33,-28,-44,-49c0,0,-12,-22,-12,-37c0,0,0,-12,13,-24c0,0,12,-12,48,-17c0,0,21,-4,104,-6c0,0,154,-4,199,-11c0,0,70,-10,111,-51c0,0,42,-41,42,-102c0,0,0,-84,-79,-158c0,0,-117,-108,-304,-108Z" 
id="f0_23"
transform="scale(0.001,-0.001)" />

<path d="M31,0V27H69c0,0,64,0,91,42c0,0,16,24,16,110V833c0,0,0,95,-21,119c0,0,-29,33,-86,33H31v27H488V985c0,0,-1,0,-2,0c-12,0,-81,-1,-111,-15c0,0,-32,-16,-44,-40c0,0,-12,-24,-12,-115V180c0,0,0,-62,12,-85c0,0,9,-16,27,-23c0,0,19,-7,117,-7h74c0,0,116,0,163,17c0,0,48,17,86,61c0,0,39,43,78,138l25,-6L814,0Z" 
id="f0_1c"
transform="scale(0.001,-0.001)" />

<path d="M12,0V27c0,0,38,4,66,16c0,0,46,19,88,52c0,0,41,33,95,101L496,496L300,789c0,0,-81,119,-138,156c0,0,-57,37,-130,40v27H499V985c0,0,-59,-3,-81,-20c0,0,-22,-17,-22,-38c0,0,0,-28,35,-81L588,613L767,841c0,0,31,41,38,56c0,0,7,15,7,31c0,0,0,15,-9,27c0,0,-11,16,-28,22c0,0,-17,7,-71,8v27h359V985c0,0,-42,-3,-69,-14c0,0,-40,-17,-74,-46c0,0,-34,-29,-95,-108L624,560L842,236c0,0,90,-134,134,-169c0,0,43,-36,111,-40V0H652V27c0,0,43,1,64,9c0,0,16,7,26,21c0,0,10,14,10,28c0,0,0,17,-7,35c0,0,-5,12,-41,66L532,443L320,173c0,0,-33,-44,-40,-58c0,0,-7,-15,-7,-30c0,0,0,-24,21,-40c0,0,20,-15,76,-18V0Z" 
id="f0_1o"
transform="scale(0.001,-0.001)" />

<path d="M13,0V26c0,0,52,0,78,13c0,0,16,8,24,25c0,0,11,25,11,86V773c0,0,0,118,-5,145c0,0,-5,26,-17,36c0,0,-12,10,-32,10c0,0,-15,0,-47,-13L13,978l203,83h34V381L424,540c0,0,55,50,64,64c0,0,6,9,6,18c0,0,0,15,-12,26c0,0,-13,11,-41,12v23H738V660c0,0,-61,-2,-102,-19c0,0,-40,-17,-89,-62L372,418L547,196c0,0,73,-92,98,-117c0,0,36,-35,63,-45c0,0,18,-8,65,-8V0H441V26c0,0,28,1,38,9c0,0,10,8,10,22c0,0,0,17,-29,56L250,381V154c0,0,0,-67,10,-88c0,0,9,-21,26,-30c0,0,17,-9,75,-10V0Z" 
id="f0_27"
transform="scale(0.001,-0.001)" />

<path d="M82,-253v33c0,0,77,25,119,78c0,0,42,54,42,114c0,0,0,14,-7,23c0,0,-5,6,-11,6c0,0,-8,0,-35,-14c0,0,-14,-7,-28,-7c0,0,-37,0,-58,21C104,1,82,23,82,61c0,0,0,36,28,62c0,0,28,27,68,27c0,0,49,0,88,-43c0,0,38,-43,38,-113c0,0,0,-77,-53,-143c0,0,-53,-66,-169,-104Z" 
id="f0_g"
transform="scale(0.001,-0.001)" />

<path d="M512,518c0,0,82,0,149,34c0,0,67,33,105,101c0,0,38,67,38,140c0,0,0,75,-47,119c0,0,-47,44,-142,44c0,0,-52,0,-125,-12L376,541c0,0,85,-23,136,-23ZM-35,0l8,26c0,0,78,0,109,28c0,0,31,27,67,151L312,782c0,0,30,104,30,139c0,0,0,26,-21,44c0,0,-21,17,-94,21l9,26H636c0,0,157,0,235,-68c0,0,78,-67,78,-164c0,0,0,-77,-50,-150c0,0,-49,-72,-147,-117c0,0,-97,-46,-210,-46c0,0,-71,0,-179,27L280,203c0,0,-28,-92,-28,-121c0,0,0,-22,20,-37c0,0,20,-14,96,-19L361,0Z" 
id="f3_1g"
transform="scale(0.001,-0.001)" />

<path d="M-102,0l8,27c0,0,64,6,103,29c0,0,59,36,163,140L467,492L386,784c0,0,-37,135,-64,166c0,0,-27,31,-95,36l7,26H596l-9,-26c0,0,-50,0,-67,-7c0,0,-18,-6,-27,-19c0,0,-9,-14,-9,-30c0,0,0,-18,18,-84L571,596L729,755c0,0,94,94,129,151c0,0,13,20,13,36c0,0,0,18,-15,28c0,0,-20,13,-75,16l8,26h343l-8,-26c0,0,-73,-11,-127,-44c0,0,-54,-34,-147,-134L588,541L662,269c0,0,10,-39,38,-120c0,0,18,-53,36,-75c0,0,17,-22,45,-34c0,0,27,-11,82,-14L855,0H458l8,26c0,0,61,3,88,24c0,0,20,15,20,39c0,0,0,21,-19,92L483,436L247,196c0,0,-69,-71,-83,-94c0,0,-8,-13,-8,-26c0,0,0,-23,22,-37c0,0,11,-6,64,-13L234,0Z" 
id="f3_1o"
transform="scale(0.001,-0.001)" />

<path d="M27,354v62H831V354Zm0,243v62H831V597Z" 
id="f0_x"
transform="scale(0.001,-0.001)" />

<path d="M394,23c0,0,80,0,129,45c0,0,48,45,48,110c0,0,0,54,-28,97c0,0,-53,79,-214,206c0,0,-62,-52,-92,-114c0,0,-30,-61,-30,-133c0,0,0,-96,53,-154c0,0,52,-57,134,-57Zm17,566c0,0,90,81,114,128c0,0,24,46,24,105c0,0,0,79,-44,123c0,0,-44,45,-121,45c0,0,-76,0,-124,-45c0,0,-48,-44,-48,-103c0,0,0,-38,20,-77c0,0,20,-39,56,-74L411,589ZM382,-17c0,0,-144,0,-225,90c0,0,-64,72,-64,158c0,0,0,67,45,133c0,0,45,66,156,146c0,0,-121,98,-156,158c0,0,-34,59,-34,124c0,0,0,98,76,169c0,0,76,72,202,72c0,0,123,0,198,-67c0,0,74,-66,74,-151c0,0,0,-57,-40,-116c0,0,-40,-59,-168,-139c0,0,132,-101,174,-159c0,0,57,-76,57,-161c0,0,0,-106,-82,-182c0,0,-81,-75,-213,-75Z" 
id="f0_s"
transform="scale(0.001,-0.001)" />

<path d="M423,92c0,0,97,0,159,62c0,0,62,62,62,157c0,0,0,97,-64,160c0,0,-64,64,-161,64c0,0,-96,0,-158,-63c0,0,-62,-62,-62,-156c0,0,0,-58,27,-111c0,0,27,-54,81,-84c0,0,54,-29,116,-29Zm0,552c0,0,78,0,127,49c0,0,49,49,49,120c0,0,0,74,-50,124c0,0,-51,51,-128,51c0,0,-77,0,-127,-50c0,0,-51,-49,-51,-118c0,0,0,-77,50,-126c0,0,50,-50,130,-50ZM422,-18c0,0,-162,0,-261,95c0,0,-99,96,-99,239c0,0,0,107,54,179c0,0,54,72,154,98c0,0,-84,31,-124,87c0,0,-40,57,-40,136c0,0,0,119,85,201c0,0,86,81,229,81c0,0,143,0,230,-83c0,0,87,-83,87,-203c0,0,0,-76,-40,-132c0,0,-39,-56,-121,-87c0,0,101,-33,154,-106c0,0,52,-73,52,-174c0,0,0,-141,-99,-236c0,0,-99,-95,-261,-95Z" 
id="f5_s"
transform="scale(0.001,-0.001)" />


</defs>
</svg>