<?xml version="1.0" encoding="UTF-8" standalone="no"?>
<!DOCTYPE svg PUBLIC "-//W3C//DTD SVG 1.1//EN"
"http://www.w3.org/Graphics/SVG/1.1/DTD/svg11.dtd">
<svg viewBox="0 0 909 1286" version="1.1" xmlns="http://www.w3.org/2000/svg" xmlns:xlink="http://www.w3.org/1999/xlink">
<defs>
<clipPath id="c0_102"><path d="M123,154.6V128.7h68.2v25.9Z" /></clipPath>
<clipPath id="c1_102"><path d="M369.4,154.6V126.2H538v28.4Z" /></clipPath>
<clipPath id="c2_102"><path d="M615.8,154.6V128.7h82.9v25.9Z" /></clipPath>
<clipPath id="c3_102"><path d="M436.9,185V156.6h156V185Z" /></clipPath>
<clipPath id="c4_102"><path d="M84.1,237.8V209.4H307.6v28.4Z" /></clipPath>
<clipPath id="c5_102"><path d="M55.2,270.1V239.9H320.7v30.2Z" /></clipPath>
<clipPath id="c6_102"><path d="M55.2,302.3V272.1H506.1v30.2Z" /></clipPath>
<clipPath id="c7_102"><path d="M55.2,332.4V304.1H483.9v28.3Z" /></clipPath>
<clipPath id="c8_102"><path d="M55.2,360.6V334.8H93.5v25.8Z" /></clipPath>
<clipPath id="c9_102"><path d="M55.2,388.5V362.7h80.3v25.8Z" /></clipPath>
<clipPath id="c10_102"><path d="M55.2,468.1V414.9H435.4v53.2Z" /></clipPath>
<clipPath id="c11_102"><path d="M55.2,629.4V470.7H286.6V629.4Z" /></clipPath>
<clipPath id="c12_102"><path d="M55.2,777.5V679.2H532.6v98.3Z" /></clipPath>
<clipPath id="c13_102"><path d="M55.2,913.9V827.6H189.7v86.3Z" /></clipPath>
<clipPath id="c14_102"><path d="M84.1,1027.6V938.1H254.6v89.5Z" /></clipPath>
<clipPath id="c15_102"><path d="M55.2,1119.6v-89.5H440.8v89.5Z" /></clipPath>
<style type="text/css"><![CDATA[
.g0_102{
fill: #D9D9D9;
}
.g1_102{
fill: none;
stroke: #000000;
stroke-width: 0.7638889;
stroke-linecap: butt;
stroke-linejoin: miter;
}
.g2_102{
fill: none;
stroke: #000000;
stroke-width: 0.21293503;
stroke-linecap: square;
stroke-linejoin: round;
}
.g3_102{
}
.g4_102{
fill: none;
stroke: #000000;
stroke-width: 0.91134685;
stroke-linecap: butt;
stroke-linejoin: round;
}
.g5_102{
fill: none;
stroke: #000000;
stroke-width: 0.21311516;
stroke-linecap: square;
stroke-linejoin: round;
}
.g6_102{
fill: none;
stroke: #000000;
stroke-width: 0.9121178;
stroke-linecap: butt;
stroke-linejoin: round;
}
.g7_102{
fill: none;
stroke: #000000;
stroke-width: 0.9111;
stroke-linecap: butt;
stroke-linejoin: round;
}
.g8_102{
fill: none;
stroke: #000000;
stroke-width: 0.9119187;
stroke-linecap: butt;
stroke-linejoin: round;
}
.g9_102{
fill: none;
stroke: #000000;
stroke-width: 0.91331625;
stroke-linecap: butt;
stroke-linejoin: round;
}
]]></style>
</defs>
<image preserveAspectRatio="none" x="747" y="1196" width="96" height="59" xlink:href="img/1.png" />
<image preserveAspectRatio="none" x="336" y="41" width="259" height="51" xlink:href="img/2.png" />
<image preserveAspectRatio="none" x="342" y="50" width="247" height="27" xlink:href="img/3.png" />
<image preserveAspectRatio="none" x="341" y="45" width="239" height="42" xlink:href="img/4.png" />
<g fill="#FFFFFF" >
<use xlink:href="#f0_j" transform="matrix(11.5,0,0,11.5,355.1,70.1)" />
<use xlink:href="#f0_i" transform="matrix(11.5,0,0,11.5,364.3,70.1)" />
<use xlink:href="#f0_2n" transform="matrix(11.5,0,0,11.5,374.1,70.1)" />
<use xlink:href="#f0_t" transform="matrix(11.5,0,0,11.5,382.6,70.1)" />
<use xlink:href="#f0_oj" transform="matrix(11.5,0,0,11.5,391,70.1)" />
<use xlink:href="#f0_3e" transform="matrix(11.5,0,0,11.5,396.5,70.1)" />
<use xlink:href="#f0_1c" transform="matrix(11.5,0,0,11.5,406.1,70.1)" />
<use xlink:href="#f0_1c" transform="matrix(11.5,0,0,11.5,410.8,70.1)" />
<use xlink:href="#f0_oj" transform="matrix(11.5,0,0,11.5,415.6,70.1)" />
<use xlink:href="#f0_rz" transform="matrix(11.5,0,0,11.5,421.1,70.1)" />
<use xlink:href="#f0_rx" transform="matrix(11.5,0,0,11.5,429.9,70.1)" />
<use xlink:href="#f0_ry" transform="matrix(11.5,0,0,11.5,438.7,70.1)" />
<use xlink:href="#f0_s3" transform="matrix(11.5,0,0,11.5,447.5,70.1)" />
<use xlink:href="#f0_t" transform="matrix(11.5,0,0,11.5,460.4,70.1)" />
<use xlink:href="#f0_3e" transform="matrix(11.5,0,0,11.5,468.8,70.1)" />
<use xlink:href="#f0_5" transform="matrix(11.5,0,0,11.5,478.3,70.1)" />
<use xlink:href="#f0_1x" transform="matrix(11.5,0,0,11.5,489,70.1)" />
<use xlink:href="#f0_1c" transform="matrix(11.5,0,0,11.5,504.4,70.1)" />
<use xlink:href="#f0_1y" transform="matrix(11.5,0,0,11.5,509.1,70.1)" />
<use xlink:href="#f0_5" transform="matrix(11.5,0,0,11.5,520.8,70.1)" />
<use xlink:href="#f0_2t" transform="matrix(11.5,0,0,11.5,531.5,70.1)" />
<use xlink:href="#f0_1c" transform="matrix(11.5,0,0,11.5,540.2,70.1)" />
<use xlink:href="#f0_24" transform="matrix(11.5,0,0,11.5,545,70.1)" />
<use xlink:href="#f0_1y" transform="matrix(11.5,0,0,11.5,556.7,70.1)" />
</g>
<image preserveAspectRatio="none" x="554" y="45" width="36" height="42" xlink:href="img/5.png" />
<g fill="#FFFFFF" >
<use xlink:href="#f1_t" transform="matrix(11,0,0,11,770.3,1227.6)" />
<use xlink:href="#f1_j" transform="matrix(11,0,0,11,783.5,1227.6)" />
<use xlink:href="#f1_l" transform="matrix(11,0,0,11,794.1,1227.6)" />
<use xlink:href="#f1_n" transform="matrix(11,0,0,11,802.9,1227.6)" />
</g>
<path fill-rule="evenodd" d="M52.8,1193.5H856.9v-.8H52.8v.8Z" class="g0_102" />
<path d="M37.9,99.4L873,98.5" class="g1_102" />
<g fill="#000000" >
<use xlink:href="#f2_m" transform="matrix(12,0,0,12,55,146.7)" />
<use xlink:href="#f2_k" transform="matrix(12,0,0,12,64.2,146.7)" />
<use xlink:href="#f2_i" transform="matrix(12,0,0,12,73.4,146.7)" />
<use xlink:href="#f3_1c" transform="matrix(12,0,0,12,82.9,146.7)" />
<use xlink:href="#f3_21" transform="matrix(12,0,0,12,93.9,146.7)" />
<use xlink:href="#f3_2g" transform="matrix(12,0,0,12,102,146.7)" />
<use xlink:href="#f3_22" transform="matrix(12,0,0,12,111.9,146.7)" />
<use xlink:href="#f3_u" transform="matrix(12,0,0,12,117.4,146.7)" />
</g>
<g clip-path="url(#c0_102)">
<g fill="#000000" >
<use xlink:href="#f4_1e" transform="matrix(12.8,0,0,12.4,126.6,147)" />
<use xlink:href="#f4_1e" transform="matrix(12.8,0,0,12.4,167.3,147)" />
<use xlink:href="#f5_34" transform="matrix(12.8,0,0,12.4,144.6,147)" />
</g>
</g>
<g fill="#000000" >
<use xlink:href="#f3_1y" transform="matrix(12,0,0,12,189.6,146.7)" />
<use xlink:href="#f3_21" transform="matrix(12,0,0,12,198.4,146.7)" />
<use xlink:href="#f3_1x" transform="matrix(12,0,0,12,211.3,146.7)" />
<use xlink:href="#f3_22" transform="matrix(12,0,0,12,224.4,146.7)" />
<use xlink:href="#f3_2h" transform="matrix(12,0,0,12,229.9,146.7)" />
<use xlink:href="#f3_2a" transform="matrix(12,0,0,12,239.5,146.7)" />
<use xlink:href="#f3_1z" transform="matrix(12,0,0,12,248.3,146.7)" />
<use xlink:href="#f3_2g" transform="matrix(12,0,0,12,256.3,146.7)" />
<use xlink:href="#f3_25" transform="matrix(12,0,0,12,262.2,146.7)" />
<use xlink:href="#f3_2b" transform="matrix(12,0,0,12,266.6,146.7)" />
<use xlink:href="#f3_2a" transform="matrix(12,0,0,12,276.1,146.7)" />
<use xlink:href="#f3_20" transform="matrix(12,0,0,12,289.6,146.7)" />
<use xlink:href="#f3_21" transform="matrix(12,0,0,12,298.8,146.7)" />
<use xlink:href="#f3_22" transform="matrix(12,0,0,12,307.2,146.7)" />
<use xlink:href="#f3_25" transform="matrix(12,0,0,12,313.1,146.7)" />
<use xlink:href="#f3_2a" transform="matrix(12,0,0,12,317.8,146.7)" />
<use xlink:href="#f3_21" transform="matrix(12,0,0,12,327,146.7)" />
<use xlink:href="#f3_20" transform="matrix(12,0,0,12,335.1,146.7)" />
<use xlink:href="#f3_1x" transform="matrix(12,0,0,12,349,146.7)" />
<use xlink:href="#f3_2f" transform="matrix(12,0,0,12,357.1,146.7)" />
</g>
<g clip-path="url(#c1_102)">
<g fill="#000000" >
<use xlink:href="#f3_m" transform="matrix(7.5,0,0,7,448.4,139)" />
<use xlink:href="#f3_c" transform="matrix(13,0,0,12.1,388.7,147.2)" />
<use xlink:href="#f3_d" transform="matrix(13,0,0,12.1,404.7,147.2)" />
<use xlink:href="#f3_o" transform="matrix(13,0,0,12.1,429.2,147.2)" />
<use xlink:href="#f3_l" transform="matrix(13,0,0,12.1,469.9,147.2)" />
<use xlink:href="#f3_m" transform="matrix(13,0,0,12.1,479.1,147.2)" />
<use xlink:href="#f3_l" transform="matrix(13,0,0,12.1,512.1,147.2)" />
<use xlink:href="#f3_p" transform="matrix(13,0,0,12.1,521.3,147.2)" />
<use xlink:href="#f3_i" transform="matrix(13,0,0,12.1,530.4,147.2)" />
<use xlink:href="#f4_22" transform="matrix(13,0,0,12.1,375.6,147.2)" />
<use xlink:href="#f4_2k" transform="matrix(13,0,0,12.1,396.1,147.2)" />
<use xlink:href="#f4_2k" transform="matrix(13,0,0,12.1,439.4,147.2)" />
<use xlink:href="#f4_2k" transform="matrix(13,0,0,12.1,489.3,147.2)" />
<use xlink:href="#f5_x" transform="matrix(13,0,0,12.1,415,147.2)" />
<use xlink:href="#f5_f" transform="matrix(13,0,0,12.1,458.6,147.2)" />
<use xlink:href="#f5_f" transform="matrix(13,0,0,12.1,500.7,147.2)" />
</g>
</g>
<g fill="#000000" >
<use xlink:href="#f3_1j" transform="matrix(12,0,0,12,537.4,146.7)" />
<use xlink:href="#f3_24" transform="matrix(12,0,0,12,547.6,146.7)" />
<use xlink:href="#f3_2b" transform="matrix(12,0,0,12,556.4,146.7)" />
<use xlink:href="#f3_2j" transform="matrix(12,0,0,12,565.9,146.7)" />
<use xlink:href="#f3_2g" transform="matrix(12,0,0,12,583.5,146.7)" />
<use xlink:href="#f3_24" transform="matrix(12,0,0,12,589,146.7)" />
<use xlink:href="#f3_1x" transform="matrix(12,0,0,12,597.8,146.7)" />
<use xlink:href="#f3_2g" transform="matrix(12,0,0,12,605.9,146.7)" />
</g>
<g clip-path="url(#c2_102)">
<g fill="#000000" >
<use xlink:href="#f3_u" transform="matrix(12.7,0,0,12.4,634.2,147)" />
<use xlink:href="#f4_22" transform="matrix(12.7,0,0,12.4,622,147)" />
<use xlink:href="#f4_1e" transform="matrix(12.7,0,0,12.4,643.2,147)" />
<use xlink:href="#f4_1j" transform="matrix(12.7,0,0,12.4,683.7,147)" />
<use xlink:href="#f5_34" transform="matrix(12.7,0,0,12.4,661.4,147)" />
</g>
</g>
<g fill="#000000" >
<use xlink:href="#f3_25" transform="matrix(12,0,0,12,702.4,146.7)" />
<use xlink:href="#f3_2f" transform="matrix(12,0,0,12,706.8,146.7)" />
<use xlink:href="#f3_25" transform="matrix(12,0,0,12,718.9,146.7)" />
<use xlink:href="#f3_2a" transform="matrix(12,0,0,12,723.7,146.7)" />
<use xlink:href="#f3_2i" transform="matrix(12,0,0,12,732.8,146.7)" />
<use xlink:href="#f3_21" transform="matrix(12,0,0,12,742.4,146.7)" />
<use xlink:href="#f3_2e" transform="matrix(12,0,0,12,750.4,146.7)" />
<use xlink:href="#f3_2g" transform="matrix(12,0,0,12,756.6,146.7)" />
<use xlink:href="#f3_25" transform="matrix(12,0,0,12,762.1,146.7)" />
<use xlink:href="#f3_1y" transform="matrix(12,0,0,12,766.9,146.7)" />
<use xlink:href="#f3_28" transform="matrix(12,0,0,12,776.1,146.7)" />
<use xlink:href="#f3_21" transform="matrix(12,0,0,12,780.8,146.7)" />
<use xlink:href="#f3_c" transform="matrix(12,0,0,12,793.6,146.7)" />
<use xlink:href="#f3_2j" transform="matrix(12,0,0,12,799.8,146.7)" />
<use xlink:href="#f3_24" transform="matrix(12,0,0,12,813.1,146.7)" />
<use xlink:href="#f3_21" transform="matrix(12,0,0,12,821.8,146.7)" />
<use xlink:href="#f3_2e" transform="matrix(12,0,0,12,829.9,146.7)" />
<use xlink:href="#f3_21" transform="matrix(12,0,0,12,836.1,146.7)" />
<use xlink:href="#f3_1j" transform="matrix(12,0,0,12,55,177.1)" />
<use xlink:href="#f3_25" transform="matrix(12,0,0,12,70,177.1)" />
<use xlink:href="#f3_2f" transform="matrix(12,0,0,12,74.8,177.1)" />
<use xlink:href="#f3_2e" transform="matrix(12,0,0,12,86.5,177.1)" />
<use xlink:href="#f3_1x" transform="matrix(12,0,0,12,92.7,177.1)" />
<use xlink:href="#f3_2a" transform="matrix(12,0,0,12,100.8,177.1)" />
<use xlink:href="#f3_23" transform="matrix(12,0,0,12,109.6,177.1)" />
<use xlink:href="#f3_21" transform="matrix(12,0,0,12,118.8,177.1)" />
<use xlink:href="#f3_2b" transform="matrix(12,0,0,12,131.6,177.1)" />
<use xlink:href="#f3_22" transform="matrix(12,0,0,12,141.1,177.1)" />
<use xlink:href="#f4_22" transform="matrix(12,0,0,12,151.5,177.1)" />
<use xlink:href="#f3_d" transform="matrix(12,0,0,12,157,177.1)" />
<use xlink:href="#f3_i" transform="matrix(12,0,0,12,163.2,177.1)" />
<use xlink:href="#f3_16" transform="matrix(12,0,0,12,172.4,177.1)" />
<use xlink:href="#f3_25" transform="matrix(12,0,0,12,182.6,177.1)" />
<use xlink:href="#f3_2a" transform="matrix(12,0,0,12,187.4,177.1)" />
<use xlink:href="#f3_20" transform="matrix(12,0,0,12,196.2,177.1)" />
<use xlink:href="#f3_2g" transform="matrix(12,0,0,12,210.1,177.1)" />
<use xlink:href="#f3_24" transform="matrix(12,0,0,12,215.6,177.1)" />
<use xlink:href="#f3_21" transform="matrix(12,0,0,12,224.4,177.1)" />
<use xlink:href="#f3_25" transform="matrix(12,0,0,12,237.6,177.1)" />
<use xlink:href="#f3_2a" transform="matrix(12,0,0,12,242.3,177.1)" />
<use xlink:href="#f3_2i" transform="matrix(12,0,0,12,251.5,177.1)" />
<use xlink:href="#f3_21" transform="matrix(12,0,0,12,260.3,177.1)" />
<use xlink:href="#f3_2e" transform="matrix(12,0,0,12,268.4,177.1)" />
<use xlink:href="#f3_2f" transform="matrix(12,0,0,12,274.6,177.1)" />
<use xlink:href="#f3_21" transform="matrix(12,0,0,12,281.5,177.1)" />
<use xlink:href="#f3_2b" transform="matrix(12,0,0,12,294.4,177.1)" />
<use xlink:href="#f3_22" transform="matrix(12,0,0,12,304.2,177.1)" />
<use xlink:href="#f4_22" transform="matrix(12,0,0,12,314.7,177.1)" />
<use xlink:href="#f3_1x" transform="matrix(12,0,0,12,324.6,177.1)" />
<use xlink:href="#f3_2a" transform="matrix(12,0,0,12,332.7,177.1)" />
<use xlink:href="#f3_20" transform="matrix(12,0,0,12,341.5,177.1)" />
<use xlink:href="#f3_24" transform="matrix(12,0,0,12,355.4,177.1)" />
<use xlink:href="#f3_21" transform="matrix(12,0,0,12,364.2,177.1)" />
<use xlink:href="#f3_2a" transform="matrix(12,0,0,12,372.6,177.1)" />
<use xlink:href="#f3_1z" transform="matrix(12,0,0,12,381.8,177.1)" />
<use xlink:href="#f3_21" transform="matrix(12,0,0,12,389.8,177.1)" />
<use xlink:href="#f3_22" transform="matrix(12,0,0,12,403,177.1)" />
<use xlink:href="#f3_25" transform="matrix(12,0,0,12,408.9,177.1)" />
<use xlink:href="#f3_2a" transform="matrix(12,0,0,12,413.7,177.1)" />
<use xlink:href="#f3_20" transform="matrix(12,0,0,12,423.2,177.1)" />
</g>
<g clip-path="url(#c3_102)">
<g fill="#000000" >
<use xlink:href="#f3_l" transform="matrix(7.5,0,0,7,458.9,169.4)" />
<use xlink:href="#f3_l" transform="matrix(7.5,0,0,7,549.4,169.4)" />
<use xlink:href="#f3_c" transform="matrix(12.9,0,0,12.1,465.3,177.6)" />
<use xlink:href="#f3_n" transform="matrix(12.9,0,0,12.1,471.4,177.6)" />
<use xlink:href="#f3_l" transform="matrix(12.9,0,0,12.1,480.6,177.6)" />
<use xlink:href="#f3_d" transform="matrix(12.9,0,0,12.1,488.4,177.6)" />
<use xlink:href="#f3_1x" transform="matrix(12.9,0,0,12.1,498.7,177.6)" />
<use xlink:href="#f3_2a" transform="matrix(12.9,0,0,12.1,506.8,177.6)" />
<use xlink:href="#f3_20" transform="matrix(12.9,0,0,12.1,516,177.6)" />
<use xlink:href="#f3_c" transform="matrix(12.9,0,0,12.1,555.7,177.6)" />
<use xlink:href="#f3_s" transform="matrix(12.9,0,0,12.1,561.5,177.6)" />
<use xlink:href="#f3_r" transform="matrix(12.9,0,0,12.1,570.7,177.6)" />
<use xlink:href="#f3_d" transform="matrix(12.9,0,0,12.1,580.3,177.6)" />
<use xlink:href="#f3_i" transform="matrix(12.9,0,0,12.1,586.3,177.6)" />
<use xlink:href="#f4_22" transform="matrix(12.9,0,0,12.1,443.1,177.6)" />
<use xlink:href="#f4_22" transform="matrix(12.9,0,0,12.1,533.6,177.6)" />
<use xlink:href="#f5_h" transform="matrix(7.5,0,0,7,453.1,169.4)" />
<use xlink:href="#f5_h" transform="matrix(7.5,0,0,7,543.6,169.4)" />
</g>
</g>
<g fill="#000000" >
<use xlink:href="#f2_1j" transform="matrix(12,0,0,12,55,205)" />
<use xlink:href="#f2_2b" transform="matrix(12,0,0,12,65.3,205)" />
<use xlink:href="#f2_28" transform="matrix(12,0,0,12,74.5,205)" />
<use xlink:href="#f2_2h" transform="matrix(12,0,0,12,79.2,205)" />
<use xlink:href="#f2_2g" transform="matrix(12,0,0,12,89.5,205)" />
<use xlink:href="#f2_25" transform="matrix(12,0,0,12,95.7,205)" />
<use xlink:href="#f2_2b" transform="matrix(12,0,0,12,100.8,205)" />
<use xlink:href="#f2_2a" transform="matrix(12,0,0,12,109.9,205)" />
<use xlink:href="#f2_u" transform="matrix(12,0,0,12,120.2,205)" />
<use xlink:href="#f3_1c" transform="matrix(12,0,0,12,55,228.5)" />
<use xlink:href="#f3_21" transform="matrix(12,0,0,12,66,228.5)" />
<use xlink:href="#f3_2g" transform="matrix(12,0,0,12,74.1,228.5)" />
</g>
<g clip-path="url(#c4_102)">
<g fill="#000000" >
<use xlink:href="#f3_l" transform="matrix(7.5,0,0,7,94.6,233.5)" />
<use xlink:href="#f3_m" transform="matrix(7.5,0,0,7,118.2,233.5)" />
<use xlink:href="#f3_l" transform="matrix(7.5,0,0,7,231.4,233.5)" />
<use xlink:href="#f3_m" transform="matrix(7.5,0,0,7,291.1,233.5)" />
<use xlink:href="#f3_g" transform="matrix(12.9,0,0,12.1,100.6,228.8)" />
<use xlink:href="#f3_1x" transform="matrix(12.9,0,0,12.1,167.7,228.8)" />
<use xlink:href="#f3_2a" transform="matrix(12.9,0,0,12.1,175.8,228.8)" />
<use xlink:href="#f3_20" transform="matrix(12.9,0,0,12.1,184.9,228.8)" />
<use xlink:href="#f3_c" transform="matrix(12.9,0,0,12.1,217.1,228.8)" />
<use xlink:href="#f3_d" transform="matrix(12.9,0,0,12.1,237.7,228.8)" />
<use xlink:href="#f3_c" transform="matrix(12.9,0,0,12.1,275.6,228.8)" />
<use xlink:href="#f3_d" transform="matrix(12.9,0,0,12.1,298.2,228.8)" />
<use xlink:href="#f4_2k" transform="matrix(12.9,0,0,12.1,87.8,228.8)" />
<use xlink:href="#f4_2k" transform="matrix(12.9,0,0,12.1,110.3,228.8)" />
<use xlink:href="#f4_1e" transform="matrix(12.9,0,0,12.1,144.1,228.8)" />
<use xlink:href="#f4_22" transform="matrix(12.9,0,0,12.1,207.6,228.8)" />
<use xlink:href="#f4_2k" transform="matrix(12.9,0,0,12.1,224.5,228.8)" />
<use xlink:href="#f4_22" transform="matrix(12.9,0,0,12.1,266.2,228.8)" />
<use xlink:href="#f4_2k" transform="matrix(12.9,0,0,12.1,283.1,228.8)" />
<use xlink:href="#f5_40" transform="matrix(12.9,0,0,12.1,127.6,228.8)" />
<use xlink:href="#f5_x" transform="matrix(12.9,0,0,12.1,248.3,228.8)" />
</g>
</g>
<g clip-path="url(#c5_102)">
<g fill="#000000" >
<use xlink:href="#f3_m" transform="matrix(7.5,0,0,7.1,99.2,252.8)" />
<use xlink:href="#f3_m" transform="matrix(7.5,0,0,7.1,225.9,252.8)" />
<use xlink:href="#f3_l" transform="matrix(7.5,0,0,7.1,97,265.8)" />
<use xlink:href="#f3_l" transform="matrix(7.5,0,0,7.1,148.1,265.8)" />
<use xlink:href="#f3_m" transform="matrix(7.5,0,0,7.1,224.8,265.8)" />
<use xlink:href="#f3_m" transform="matrix(7.5,0,0,7.1,275.9,265.8)" />
<use xlink:href="#f3_o" transform="matrix(12.9,0,0,12.3,79.9,261.1)" />
<use xlink:href="#f3_l" transform="matrix(12.9,0,0,12.3,121.8,261.1)" />
<use xlink:href="#f3_m" transform="matrix(12.9,0,0,12.3,131,261.1)" />
<use xlink:href="#f3_l" transform="matrix(12.9,0,0,12.3,169.8,261.1)" />
<use xlink:href="#f3_p" transform="matrix(12.9,0,0,12.3,179,261.1)" />
<use xlink:href="#f3_o" transform="matrix(12.9,0,0,12.3,206.6,261.1)" />
<use xlink:href="#f3_l" transform="matrix(12.9,0,0,12.3,248.5,261.1)" />
<use xlink:href="#f3_m" transform="matrix(12.9,0,0,12.3,257.7,261.1)" />
<use xlink:href="#f3_l" transform="matrix(12.9,0,0,12.3,298.5,261.1)" />
<use xlink:href="#f3_p" transform="matrix(12.9,0,0,12.3,307.7,261.1)" />
<use xlink:href="#f4_2k" transform="matrix(12.9,0,0,12.3,90.2,261.1)" />
<use xlink:href="#f4_2k" transform="matrix(12.9,0,0,12.3,141.2,261.1)" />
<use xlink:href="#f4_2k" transform="matrix(12.9,0,0,12.3,216.8,261.1)" />
<use xlink:href="#f4_2k" transform="matrix(12.9,0,0,12.3,267.9,261.1)" />
<use xlink:href="#f5_4g" transform="matrix(12.9,0,0,12.3,57.4,261.1)" />
<use xlink:href="#f5_f" transform="matrix(12.9,0,0,12.3,109.8,261.1)" />
<use xlink:href="#f5_f" transform="matrix(12.9,0,0,12.3,157.8,261.1)" />
<use xlink:href="#f5_x" transform="matrix(12.9,0,0,12.3,192,261.1)" />
<use xlink:href="#f5_f" transform="matrix(12.9,0,0,12.3,236.4,261.1)" />
<use xlink:href="#f5_f" transform="matrix(12.9,0,0,12.3,286.4,261.1)" />
</g>
</g>
<g clip-path="url(#c6_102)">
<g fill="#000000" >
<use xlink:href="#f3_m" transform="matrix(7.5,0,0,7.1,105.5,285.1)" />
<use xlink:href="#f3_m" transform="matrix(7.5,0,0,7.1,139.7,285.1)" />
<use xlink:href="#f3_l" transform="matrix(7.5,0,0,7.1,103.3,298.1)" />
<use xlink:href="#f3_m" transform="matrix(7.5,0,0,7.1,138.7,298.1)" />
<use xlink:href="#f3_m" transform="matrix(7.5,0,0,7.1,202.4,298.1)" />
<use xlink:href="#f3_m" transform="matrix(7.5,0,0,7.1,235.5,298.1)" />
<use xlink:href="#f3_l" transform="matrix(7.5,0,0,7.1,316.7,298.1)" />
<use xlink:href="#f3_m" transform="matrix(7.5,0,0,7.1,349,298.1)" />
<use xlink:href="#f3_l" transform="matrix(7.5,0,0,7.1,385.9,298.1)" />
<use xlink:href="#f3_m" transform="matrix(7.5,0,0,7.1,427.9,298.1)" />
<use xlink:href="#f3_o" transform="matrix(13,0,0,12.3,79.9,293.3)" />
<use xlink:href="#f3_c" transform="matrix(13,0,0,12.3,89.1,293.3)" />
<use xlink:href="#f3_d" transform="matrix(13,0,0,12.3,146.9,293.3)" />
<use xlink:href="#f3_l" transform="matrix(13,0,0,12.3,168.6,293.3)" />
<use xlink:href="#f3_m" transform="matrix(13,0,0,12.3,177.8,293.3)" />
<use xlink:href="#f3_c" transform="matrix(13,0,0,12.3,186.9,293.3)" />
<use xlink:href="#f3_d" transform="matrix(13,0,0,12.3,242.6,293.3)" />
<use xlink:href="#f3_k" transform="matrix(13,0,0,12.3,267.3,293.3)" />
<use xlink:href="#f3_c" transform="matrix(13,0,0,12.3,302.3,293.3)" />
<use xlink:href="#f3_d" transform="matrix(13,0,0,12.3,356.1,293.3)" />
<use xlink:href="#f3_c" transform="matrix(13,0,0,12.3,362.1,293.3)" />
<use xlink:href="#f3_o" transform="matrix(13,0,0,12.3,368.7,293.3)" />
<use xlink:href="#f3_o" transform="matrix(13,0,0,12.3,409.6,293.3)" />
<use xlink:href="#f3_l" transform="matrix(13,0,0,12.3,450.4,293.3)" />
<use xlink:href="#f3_m" transform="matrix(13,0,0,12.3,459.6,293.3)" />
<use xlink:href="#f3_d" transform="matrix(13,0,0,12.3,468.8,293.3)" />
<use xlink:href="#f3_k" transform="matrix(13,0,0,12.3,493.5,293.3)" />
<use xlink:href="#f4_2k" transform="matrix(13,0,0,12.3,96.5,293.3)" />
<use xlink:href="#f4_2k" transform="matrix(13,0,0,12.3,130.6,293.3)" />
<use xlink:href="#f4_2k" transform="matrix(13,0,0,12.3,194.3,293.3)" />
<use xlink:href="#f4_2k" transform="matrix(13,0,0,12.3,227.5,293.3)" />
<use xlink:href="#f4_2k" transform="matrix(13,0,0,12.3,309.7,293.3)" />
<use xlink:href="#f4_2k" transform="matrix(13,0,0,12.3,340.9,293.3)" />
<use xlink:href="#f4_2k" transform="matrix(13,0,0,12.3,378.9,293.3)" />
<use xlink:href="#f4_2k" transform="matrix(13,0,0,12.3,419.8,293.3)" />
<use xlink:href="#f5_4g" transform="matrix(13,0,0,12.3,57.4,293.3)" />
<use xlink:href="#f5_h" transform="matrix(13,0,0,12.3,116.1,293.3)" />
<use xlink:href="#f5_f" transform="matrix(13,0,0,12.3,156.6,293.3)" />
<use xlink:href="#f5_h" transform="matrix(13,0,0,12.3,212.9,293.3)" />
<use xlink:href="#f5_x" transform="matrix(13,0,0,12.3,253.1,293.3)" />
<use xlink:href="#f5_4g" transform="matrix(13,0,0,12.3,280.1,293.3)" />
<use xlink:href="#f5_h" transform="matrix(13,0,0,12.3,326.4,293.3)" />
<use xlink:href="#f5_f" transform="matrix(13,0,0,12.3,395.6,293.3)" />
<use xlink:href="#f5_f" transform="matrix(13,0,0,12.3,438.4,293.3)" />
<use xlink:href="#f5_x" transform="matrix(13,0,0,12.3,479.2,293.3)" />
</g>
</g>
<g clip-path="url(#c7_102)">
<g fill="#000000" >
<use xlink:href="#f3_l" transform="matrix(7.5,0,0,7,87.7,328.2)" />
<use xlink:href="#f3_m" transform="matrix(7.5,0,0,7,120.1,328.2)" />
<use xlink:href="#f3_l" transform="matrix(7.5,0,0,7,197.6,328.2)" />
<use xlink:href="#f3_m" transform="matrix(7.5,0,0,7,231.5,328.2)" />
<use xlink:href="#f3_l" transform="matrix(7.5,0,0,7,290.2,328.2)" />
<use xlink:href="#f3_m" transform="matrix(7.5,0,0,7,332.4,328.2)" />
<use xlink:href="#f3_l" transform="matrix(7.5,0,0,7,417.6,328.2)" />
<use xlink:href="#f3_m" transform="matrix(7.5,0,0,7,441.3,328.2)" />
<use xlink:href="#f3_k" transform="matrix(13,0,0,12.1,145.7,323.5)" />
<use xlink:href="#f3_2b" transform="matrix(13,0,0,12.1,164.2,323.5)" />
<use xlink:href="#f3_2e" transform="matrix(13,0,0,12.1,173.4,323.5)" />
<use xlink:href="#f3_1x" transform="matrix(13,0,0,12.1,247.9,323.5)" />
<use xlink:href="#f3_2f" transform="matrix(13,0,0,12.1,256,323.5)" />
<use xlink:href="#f3_o" transform="matrix(13,0,0,12.1,273,323.5)" />
<use xlink:href="#f3_o" transform="matrix(13,0,0,12.1,314.1,323.5)" />
<use xlink:href="#f3_l" transform="matrix(13,0,0,12.1,355,323.5)" />
<use xlink:href="#f3_m" transform="matrix(13,0,0,12.1,364.2,323.5)" />
<use xlink:href="#f3_k" transform="matrix(13,0,0,12.1,392.1,323.5)" />
<use xlink:href="#f3_g" transform="matrix(13,0,0,12.1,401,323.5)" />
<use xlink:href="#f3_g" transform="matrix(13,0,0,12.1,423.6,323.5)" />
<use xlink:href="#f3_1e" transform="matrix(13,0,0,12.1,466.9,323.5)" />
<use xlink:href="#f4_2k" transform="matrix(13,0,0,12.1,80.8,323.5)" />
<use xlink:href="#f4_2k" transform="matrix(13,0,0,12.1,112.1,323.5)" />
<use xlink:href="#f4_2k" transform="matrix(13,0,0,12.1,190.7,323.5)" />
<use xlink:href="#f4_2k" transform="matrix(13,0,0,12.1,223.5,323.5)" />
<use xlink:href="#f4_2k" transform="matrix(13,0,0,12.1,283.3,323.5)" />
<use xlink:href="#f4_2k" transform="matrix(13,0,0,12.1,324.4,323.5)" />
<use xlink:href="#f4_2k" transform="matrix(13,0,0,12.1,410.7,323.5)" />
<use xlink:href="#f4_2k" transform="matrix(13,0,0,12.1,433.3,323.5)" />
<use xlink:href="#f5_4g" transform="matrix(13,0,0,12.1,57.4,323.5)" />
<use xlink:href="#f5_h" transform="matrix(13,0,0,12.1,97.4,323.5)" />
<use xlink:href="#f5_x" transform="matrix(13,0,0,12.1,131.4,323.5)" />
<use xlink:href="#f5_x" transform="matrix(13,0,0,12.1,208,323.5)" />
<use xlink:href="#f5_f" transform="matrix(13,0,0,12.1,299.9,323.5)" />
<use xlink:href="#f5_f" transform="matrix(13,0,0,12.1,342.9,323.5)" />
<use xlink:href="#f5_3f" transform="matrix(13,0,0,12.1,377.5,323.5)" />
<use xlink:href="#f5_40" transform="matrix(13,0,0,12.1,450.6,323.5)" />
</g>
</g>
<g clip-path="url(#c8_102)">
<g fill="#000000" >
<use xlink:href="#f4_22" transform="matrix(12.7,0,0,12.3,75.6,353.1)" />
<use xlink:href="#f5_1s" transform="matrix(12.7,0,0,12.3,55.1,353.1)" />
</g>
</g>
<g fill="#000000" >
<use xlink:href="#f3_25" transform="matrix(12,0,0,12,97.6,352.8)" />
<use xlink:href="#f3_2f" transform="matrix(12,0,0,12,102.3,352.8)" />
<use xlink:href="#f3_1x" transform="matrix(12,0,0,12,114.1,352.8)" />
<use xlink:href="#f3_l" transform="matrix(12,0,0,12,126.9,352.8)" />
<use xlink:href="#f6_4y" transform="matrix(12,0,0,12,140.8,352.8)" />
<use xlink:href="#f3_l" transform="matrix(12,0,0,12,154.8,352.8)" />
<use xlink:href="#f3_22" transform="matrix(12,0,0,12,168.7,352.8)" />
<use xlink:href="#f3_2h" transform="matrix(12,0,0,12,174.2,352.8)" />
<use xlink:href="#f3_2a" transform="matrix(12,0,0,12,183.4,352.8)" />
<use xlink:href="#f3_1z" transform="matrix(12,0,0,12,192.2,352.8)" />
<use xlink:href="#f3_2g" transform="matrix(12,0,0,12,200.3,352.8)" />
<use xlink:href="#f3_25" transform="matrix(12,0,0,12,206.1,352.8)" />
<use xlink:href="#f3_2b" transform="matrix(12,0,0,12,210.5,352.8)" />
<use xlink:href="#f3_2a" transform="matrix(12,0,0,12,220,352.8)" />
</g>
<g clip-path="url(#c9_102)">
<g fill="#000000" >
<use xlink:href="#f3_u" transform="matrix(12.8,0,0,12.3,73.6,380.9)" />
<use xlink:href="#f3_1e" transform="matrix(12.8,0,0,12.3,82.4,380.9)" />
<use xlink:href="#f3_1j" transform="matrix(12.8,0,0,12.3,121.5,380.9)" />
<use xlink:href="#f4_22" transform="matrix(12.8,0,0,12.3,61.4,380.9)" />
<use xlink:href="#f5_34" transform="matrix(12.8,0,0,12.3,100.1,380.9)" />
</g>
</g>
<g fill="#000000" >
<use xlink:href="#f3_25" transform="matrix(12,0,0,12,139,380.7)" />
<use xlink:href="#f3_2f" transform="matrix(12,0,0,12,143.8,380.7)" />
<use xlink:href="#f3_2b" transform="matrix(12,0,0,12,155.5,380.7)" />
<use xlink:href="#f3_2a" transform="matrix(12,0,0,12,165,380.7)" />
<use xlink:href="#f3_2g" transform="matrix(12,0,0,12,173.8,380.7)" />
<use xlink:href="#f3_2b" transform="matrix(12,0,0,12,178.9,380.7)" />
<use xlink:href="#f3_1x" transform="matrix(12,0,0,12,193.2,380.7)" />
<use xlink:href="#f3_2f" transform="matrix(12,0,0,12,201.3,380.7)" />
<use xlink:href="#f3_1z" transform="matrix(12,0,0,12,213,380.7)" />
<use xlink:href="#f3_2b" transform="matrix(12,0,0,12,220.7,380.7)" />
<use xlink:href="#f3_h" transform="matrix(12,0,0,12,230.3,380.7)" />
<use xlink:href="#f3_20" transform="matrix(12,0,0,12,236.6,380.7)" />
<use xlink:href="#f3_2b" transform="matrix(12,0,0,12,245.4,380.7)" />
<use xlink:href="#f3_29" transform="matrix(12,0,0,12,254.9,380.7)" />
<use xlink:href="#f3_1x" transform="matrix(12,0,0,12,268.5,380.7)" />
<use xlink:href="#f3_25" transform="matrix(12,0,0,12,276.9,380.7)" />
<use xlink:href="#f3_2a" transform="matrix(12,0,0,12,281.6,380.7)" />
<use xlink:href="#f3_x" transform="matrix(12,0,0,12,295.2,380.7)" />
<use xlink:href="#f3_2e" transform="matrix(12,0,0,12,310.2,380.7)" />
<use xlink:href="#f3_1x" transform="matrix(12,0,0,12,316.4,380.7)" />
<use xlink:href="#f3_2a" transform="matrix(12,0,0,12,324.8,380.7)" />
<use xlink:href="#f3_23" transform="matrix(12,0,0,12,333.6,380.7)" />
<use xlink:href="#f3_21" transform="matrix(12,0,0,12,342.8,380.7)" />
<use xlink:href="#f3_18" transform="matrix(12,0,0,12,55,408.9)" />
<use xlink:href="#f3_21" transform="matrix(12,0,0,12,68.3,408.9)" />
<use xlink:href="#f3_2a" transform="matrix(12,0,0,12,76.3,408.9)" />
<use xlink:href="#f3_1z" transform="matrix(12,0,0,12,85.1,408.9)" />
<use xlink:href="#f3_21" transform="matrix(12,0,0,12,93.5,408.9)" />
<use xlink:href="#f4_22" transform="matrix(12,0,0,12,106.4,408.9)" />
<use xlink:href="#f3_25" transform="matrix(12,0,0,12,116.6,408.9)" />
<use xlink:href="#f3_2f" transform="matrix(12,0,0,12,121,408.9)" />
<use xlink:href="#f3_25" transform="matrix(12,0,0,12,133.1,408.9)" />
<use xlink:href="#f3_2a" transform="matrix(12,0,0,12,137.9,408.9)" />
<use xlink:href="#f3_2i" transform="matrix(12,0,0,12,147.1,408.9)" />
<use xlink:href="#f3_21" transform="matrix(12,0,0,12,155.9,408.9)" />
<use xlink:href="#f3_2e" transform="matrix(12,0,0,12,163.9,408.9)" />
<use xlink:href="#f3_2g" transform="matrix(12,0,0,12,170.1,408.9)" />
<use xlink:href="#f3_25" transform="matrix(12,0,0,12,176,408.9)" />
<use xlink:href="#f3_1y" transform="matrix(12,0,0,12,180.7,408.9)" />
<use xlink:href="#f3_28" transform="matrix(12,0,0,12,189.9,408.9)" />
<use xlink:href="#f3_21" transform="matrix(12,0,0,12,194.7,408.9)" />
<use xlink:href="#f3_i" transform="matrix(12,0,0,12,202.7,408.9)" />
</g>
<path d="M356.7,436.2l1.8,-1.3m.1,0l4.4,8.8m0,.1l4.9,-23.4m0,0h37.9" class="g2_102" />
<path fill-rule="evenodd" d="M355.8,435.2l2.5,-1.7l3.9,7.4l4.6,-21.7h38.3v1H367.4L362.7,443h-.9l-4.5,-8.2l-1.1,.9l-.4,-.5Z" class="g3_102" />
<path d="M354.4,445.3h77.2" class="g4_102" />
<g clip-path="url(#c10_102)">
<g fill="#000000" >
<use xlink:href="#f3_m" transform="matrix(7.3,0,0,7.1,106.5,441.6)" />
<use xlink:href="#f3_m" transform="matrix(7.3,0,0,7.1,266.5,441.6)" />
<use xlink:href="#f3_q" transform="matrix(12.7,0,0,12.3,395.3,437.5)" />
<use xlink:href="#f3_n" transform="matrix(12.7,0,0,12.3,422.5,437.5)" />
<use xlink:href="#f3_o" transform="matrix(12.7,0,0,12.3,87.2,449.9)" />
<use xlink:href="#f3_l" transform="matrix(12.7,0,0,12.3,129,449.9)" />
<use xlink:href="#f3_m" transform="matrix(12.7,0,0,12.3,138.2,449.9)" />
<use xlink:href="#f3_l" transform="matrix(12.7,0,0,12.3,172.5,449.9)" />
<use xlink:href="#f3_p" transform="matrix(12.7,0,0,12.3,181.6,449.9)" />
<use xlink:href="#f3_c" transform="matrix(12.7,0,0,12.3,208.8,449.9)" />
<use xlink:href="#f3_m" transform="matrix(12.7,0,0,12.3,215.4,449.9)" />
<use xlink:href="#f3_n" transform="matrix(12.7,0,0,12.3,251.1,449.9)" />
<use xlink:href="#f3_d" transform="matrix(12.7,0,0,12.3,259.7,449.9)" />
<use xlink:href="#f3_q" transform="matrix(12.7,0,0,12.3,290.7,449.9)" />
<use xlink:href="#f3_m" transform="matrix(12.7,0,0,12.3,388.7,464.6)" />
<use xlink:href="#f4_2l" transform="matrix(12.7,0,0,12.3,369.6,437.5)" />
<use xlink:href="#f4_2l" transform="matrix(12.7,0,0,12.3,59.7,449.9)" />
<use xlink:href="#f4_2k" transform="matrix(12.7,0,0,12.3,97.5,449.9)" />
<use xlink:href="#f4_2k" transform="matrix(12.7,0,0,12.3,148.4,449.9)" />
<use xlink:href="#f4_2k" transform="matrix(12.7,0,0,12.3,225.6,449.9)" />
<use xlink:href="#f4_2k" transform="matrix(12.7,0,0,12.3,326.7,449.9)" />
<use xlink:href="#f5_h" transform="matrix(12.7,0,0,12.3,381.9,437.5)" />
<use xlink:href="#f5_h" transform="matrix(12.7,0,0,12.3,409.3,437.5)" />
<use xlink:href="#f5_x" transform="matrix(12.7,0,0,12.3,72.7,449.9)" />
<use xlink:href="#f5_f" transform="matrix(12.7,0,0,12.3,117.1,449.9)" />
<use xlink:href="#f5_f" transform="matrix(12.7,0,0,12.3,160.5,449.9)" />
<use xlink:href="#f5_x" transform="matrix(12.7,0,0,12.3,194.7,449.9)" />
<use xlink:href="#f5_f" transform="matrix(12.7,0,0,12.3,237.7,449.9)" />
<use xlink:href="#f5_f" transform="matrix(12.7,0,0,12.3,277,449.9)" />
<use xlink:href="#f5_4g" transform="matrix(12.7,0,0,12.3,303.4,449.9)" />
<use xlink:href="#f5_x" transform="matrix(12.7,0,0,12.3,339.5,449.9)" />
</g>
</g>
<path d="M148,490.9l1.9,-1.2m0,-.1l4.4,8.7m0,0l4.9,-22.9m0,0h37.9" class="g5_102" />
<path fill-rule="evenodd" d="M147.1,489.9l2.6,-1.6l3.8,7.2l4.6,-21.3h38.2v.9H158.7L154,497.6h-.9l-4.5,-8.1l-1.1,.9l-.4,-.5Z" class="g3_102" />
<path d="M145.7,499.9h77.2" class="g6_102" />
<path d="M133.7,542.2l1.8,-1m0,0l4.5,7.2m0,.1l4.8,-19.3m0,0h43.6" class="g5_102" />
<path fill-rule="evenodd" d="M132.8,541.2l2.5,-1.3l4,5.9L143.7,528h44v.9H144.4l-4.7,18.8h-.9L134.3,541l-1.2,.7l-.3,-.5Z" class="g3_102" />
<path d="M131.3,553.1h82.9" class="g6_102" />
<path d="M135.1,595.5l1.9,-1.1m0,0l4.4,7.2m0,.1l4.9,-19.2m0,-.1h45" class="g5_102" />
<path fill-rule="evenodd" d="M134.2,594.4l2.5,-1.3l4,5.9l4.4,-17.8h45.4v.9H145.8l-4.7,18.8h-.9l-4.5,-6.7l-1.2,.8l-.3,-.6Z" class="g3_102" />
<path d="M132.8,606.3H217" class="g6_102" />
<g clip-path="url(#c11_102)">
<g fill="#000000" >
<use xlink:href="#f3_l" transform="matrix(7.1,0,0,7,97,496.3)" />
<use xlink:href="#f3_l" transform="matrix(7.1,0,0,7,77,549.5)" />
<use xlink:href="#f3_l" transform="matrix(7.1,0,0,7,77,602.7)" />
<use xlink:href="#f3_q" transform="matrix(12.2,0,0,12.1,186.6,492.2)" />
<use xlink:href="#f3_n" transform="matrix(12.2,0,0,12.1,213.7,492.2)" />
<use xlink:href="#f3_c" transform="matrix(12.2,0,0,12.1,103.4,504.4)" />
<use xlink:href="#f3_d" transform="matrix(12.2,0,0,12.1,120.5,504.4)" />
<use xlink:href="#f3_g" transform="matrix(12.2,0,0,12.1,225,504.4)" />
<use xlink:href="#f3_i" transform="matrix(12.2,0,0,12.1,277.7,504.4)" />
<use xlink:href="#f3_m" transform="matrix(12.2,0,0,12.1,180,518.9)" />
<use xlink:href="#f3_n" transform="matrix(12.2,0,0,12.1,144.3,546)" />
<use xlink:href="#f3_l" transform="matrix(12.2,0,0,12.1,153.4,546)" />
<use xlink:href="#f3_q" transform="matrix(12.2,0,0,12.1,177.9,546)" />
<use xlink:href="#f3_n" transform="matrix(12.2,0,0,12.1,205,546)" />
<use xlink:href="#f3_c" transform="matrix(12.2,0,0,12.1,83.3,557.7)" />
<use xlink:href="#f3_n" transform="matrix(12.2,0,0,12.1,89.3,557.7)" />
<use xlink:href="#f3_l" transform="matrix(12.2,0,0,12.1,98.4,557.7)" />
<use xlink:href="#f3_d" transform="matrix(12.2,0,0,12.1,106.1,557.7)" />
<use xlink:href="#f3_l" transform="matrix(12.2,0,0,12.1,231.7,557.7)" />
<use xlink:href="#f3_m" transform="matrix(12.2,0,0,12.1,168.5,572.1)" />
<use xlink:href="#f3_s" transform="matrix(12.2,0,0,12.1,145.4,599.2)" />
<use xlink:href="#f3_r" transform="matrix(12.2,0,0,12.1,154.5,599.2)" />
<use xlink:href="#f3_q" transform="matrix(12.2,0,0,12.1,180.8,599.2)" />
<use xlink:href="#f3_n" transform="matrix(12.2,0,0,12.1,207.8,599.2)" />
<use xlink:href="#f3_c" transform="matrix(12.2,0,0,12.1,83.3,610.9)" />
<use xlink:href="#f3_s" transform="matrix(12.2,0,0,12.1,89,610.9)" />
<use xlink:href="#f3_r" transform="matrix(12.2,0,0,12.1,98.1,610.9)" />
<use xlink:href="#f3_d" transform="matrix(12.2,0,0,12.1,107.5,610.9)" />
<use xlink:href="#f3_n" transform="matrix(12.2,0,0,12.1,235.9,610.9)" />
<use xlink:href="#f3_m" transform="matrix(12.2,0,0,12.1,170.6,625.3)" />
<use xlink:href="#f4_2l" transform="matrix(12.2,0,0,12.1,160.9,492.2)" />
<use xlink:href="#f4_22" transform="matrix(12.2,0,0,12.1,81.4,504.4)" />
<use xlink:href="#f4_2l" transform="matrix(12.2,0,0,12.1,111.6,504.4)" />
<use xlink:href="#f4_2l" transform="matrix(12.2,0,0,12.1,240.8,504.4)" />
<use xlink:href="#f4_1j" transform="matrix(12.2,0,0,12.1,267.7,504.4)" />
<use xlink:href="#f4_22" transform="matrix(12.2,0,0,12.1,61.4,557.7)" />
<use xlink:href="#f4_22" transform="matrix(12.2,0,0,12.1,61.4,610.9)" />
<use xlink:href="#f5_h" transform="matrix(7.1,0,0,7,91.3,496.3)" />
<use xlink:href="#f5_h" transform="matrix(7.1,0,0,7,71.2,549.5)" />
<use xlink:href="#f5_h" transform="matrix(7.1,0,0,7,71.2,602.7)" />
<use xlink:href="#f5_h" transform="matrix(12.2,0,0,12.1,173.2,492.2)" />
<use xlink:href="#f5_h" transform="matrix(12.2,0,0,12.1,200.6,492.2)" />
<use xlink:href="#f5_1s" transform="matrix(12.2,0,0,12.1,55.1,504.4)" />
<use xlink:href="#f5_x" transform="matrix(12.2,0,0,12.1,130.9,504.4)" />
<use xlink:href="#f5_40" transform="matrix(12.2,0,0,12.1,251.9,504.4)" />
<use xlink:href="#f5_h" transform="matrix(12.2,0,0,12.1,164.5,546)" />
<use xlink:href="#f5_h" transform="matrix(12.2,0,0,12.1,191.9,546)" />
<use xlink:href="#f5_x" transform="matrix(12.2,0,0,12.1,116.6,557.7)" />
<use xlink:href="#f5_x" transform="matrix(12.2,0,0,12.1,219.2,557.7)" />
<use xlink:href="#f5_h" transform="matrix(12.2,0,0,12.1,167.4,599.2)" />
<use xlink:href="#f5_h" transform="matrix(12.2,0,0,12.1,194.8,599.2)" />
<use xlink:href="#f5_x" transform="matrix(12.2,0,0,12.1,118,610.9)" />
<use xlink:href="#f5_x" transform="matrix(12.2,0,0,12.1,222.1,610.9)" />
</g>
</g>
<g fill="#000000" >
<use xlink:href="#f2_m" transform="matrix(12,0,0,12,55,672.7)" />
<use xlink:href="#f2_l" transform="matrix(12,0,0,12,64.2,672.7)" />
<use xlink:href="#f2_i" transform="matrix(12,0,0,12,73.4,672.7)" />
<use xlink:href="#f3_1l" transform="matrix(12,0,0,12,82.9,672.7)" />
<use xlink:href="#f3_2f" transform="matrix(12,0,0,12,96.1,672.7)" />
<use xlink:href="#f3_25" transform="matrix(12,0,0,12,103.1,672.7)" />
<use xlink:href="#f3_2a" transform="matrix(12,0,0,12,107.8,672.7)" />
<use xlink:href="#f3_23" transform="matrix(12,0,0,12,116.6,672.7)" />
<use xlink:href="#f3_2c" transform="matrix(12,0,0,12,130.6,672.7)" />
<use xlink:href="#f3_2e" transform="matrix(12,0,0,12,139.7,672.7)" />
<use xlink:href="#f3_2b" transform="matrix(12,0,0,12,145.9,672.7)" />
<use xlink:href="#f3_2c" transform="matrix(12,0,0,12,155.4,672.7)" />
<use xlink:href="#f3_21" transform="matrix(12,0,0,12,164.6,672.7)" />
<use xlink:href="#f3_2e" transform="matrix(12,0,0,12,172.7,672.7)" />
<use xlink:href="#f3_2g" transform="matrix(12,0,0,12,178.5,672.7)" />
<use xlink:href="#f3_25" transform="matrix(12,0,0,12,184,672.7)" />
<use xlink:href="#f3_21" transform="matrix(12,0,0,12,188.4,672.7)" />
<use xlink:href="#f3_2f" transform="matrix(12,0,0,12,196.8,672.7)" />
<use xlink:href="#f3_2b" transform="matrix(12,0,0,12,208.6,672.7)" />
<use xlink:href="#f3_22" transform="matrix(12,0,0,12,218.2,672.7)" />
<use xlink:href="#f3_20" transform="matrix(12,0,0,12,228.5,672.7)" />
<use xlink:href="#f3_21" transform="matrix(12,0,0,12,237.7,672.7)" />
<use xlink:href="#f3_2g" transform="matrix(12,0,0,12,245.7,672.7)" />
<use xlink:href="#f3_21" transform="matrix(12,0,0,12,251.2,672.7)" />
<use xlink:href="#f3_2e" transform="matrix(12,0,0,12,259.3,672.7)" />
<use xlink:href="#f3_29" transform="matrix(12,0,0,12,265.5,672.7)" />
<use xlink:href="#f3_25" transform="matrix(12,0,0,12,279.4,672.7)" />
<use xlink:href="#f3_2a" transform="matrix(12,0,0,12,284.2,672.7)" />
<use xlink:href="#f3_1x" transform="matrix(12,0,0,12,293.4,672.7)" />
<use xlink:href="#f3_2a" transform="matrix(12,0,0,12,301.8,672.7)" />
<use xlink:href="#f3_2g" transform="matrix(12,0,0,12,310.6,672.7)" />
<use xlink:href="#f3_2f" transform="matrix(12,0,0,12,316.1,672.7)" />
<use xlink:href="#f3_2c" transform="matrix(12,0,0,12,327.8,672.7)" />
<use xlink:href="#f3_2e" transform="matrix(12,0,0,12,337,672.7)" />
<use xlink:href="#f3_2b" transform="matrix(12,0,0,12,343.2,672.7)" />
<use xlink:href="#f3_2i" transform="matrix(12,0,0,12,352.7,672.7)" />
<use xlink:href="#f3_21" transform="matrix(12,0,0,12,361.5,672.7)" />
<use xlink:href="#f3_2g" transform="matrix(12,0,0,12,373.9,672.7)" />
<use xlink:href="#f3_24" transform="matrix(12,0,0,12,379.4,672.7)" />
<use xlink:href="#f3_1x" transform="matrix(12,0,0,12,388.2,672.7)" />
<use xlink:href="#f3_2g" transform="matrix(12,0,0,12,396.3,672.7)" />
<use xlink:href="#f3_u" transform="matrix(12,0,0,12,401.8,672.7)" />
</g>
<g clip-path="url(#c12_102)">
<g fill="#000000" >
<use xlink:href="#f5_c" transform="matrix(12,0,0,15.8,60.3,766.4)" />
<use xlink:href="#f5_d" transform="matrix(12,0,0,15.8,103.8,766.4)" />
</g>
</g>
<path d="M58.7,684v88.7M189.6,684v88.7" class="g7_102" />
<g clip-path="url(#c12_102)">
<g fill="#000000" >
<use xlink:href="#f3_m" transform="matrix(7,0,0,7,108.9,697.6)" />
<use xlink:href="#f3_m" transform="matrix(7,0,0,7,145,697.6)" />
<use xlink:href="#f3_m" transform="matrix(7,0,0,7,109.3,724.8)" />
<use xlink:href="#f3_m" transform="matrix(7,0,0,7,144.6,724.8)" />
<use xlink:href="#f3_m" transform="matrix(7,0,0,7,449.9,724.8)" />
<use xlink:href="#f3_m" transform="matrix(7,0,0,7,482.9,724.8)" />
<use xlink:href="#f3_m" transform="matrix(7,0,0,7,515.3,724.8)" />
<use xlink:href="#f3_m" transform="matrix(7,0,0,7,110.3,754.2)" />
<use xlink:href="#f3_m" transform="matrix(7,0,0,7,144.3,757)" />
<use xlink:href="#f3_c" transform="matrix(12.1,0,0,12.1,62.1,705.7)" />
<use xlink:href="#f3_d" transform="matrix(12.1,0,0,12.1,102.1,705.7)" />
<use xlink:href="#f3_c" transform="matrix(12.1,0,0,12.1,61.6,732.9)" />
<use xlink:href="#f3_d" transform="matrix(12.1,0,0,12.1,102.6,732.9)" />
<use xlink:href="#f3_c" transform="matrix(12.1,0,0,12.1,209.2,732.9)" />
<use xlink:href="#f3_d" transform="matrix(12.1,0,0,12.1,250.4,732.9)" />
<use xlink:href="#f3_c" transform="matrix(12.1,0,0,12.1,260.4,732.9)" />
<use xlink:href="#f3_d" transform="matrix(12.1,0,0,12.1,300.2,732.9)" />
<use xlink:href="#f3_c" transform="matrix(12.1,0,0,12.1,310.2,732.9)" />
<use xlink:href="#f3_d" transform="matrix(12.1,0,0,12.1,350.8,732.9)" />
<use xlink:href="#f3_c" transform="matrix(12.1,0,0,12.1,356.8,732.9)" />
<use xlink:href="#f3_d" transform="matrix(12.1,0,0,12.1,423,732.9)" />
<use xlink:href="#f3_c" transform="matrix(12.1,0,0,12.1,433,732.9)" />
<use xlink:href="#f3_d" transform="matrix(12.1,0,0,12.1,522.5,732.9)" />
<use xlink:href="#f4_1y" transform="matrix(12.1,0,0,12.1,68.1,705.7)" />
<use xlink:href="#f4_1z" transform="matrix(12.1,0,0,12.1,93.6,705.7)" />
<use xlink:href="#f4_1x" transform="matrix(12.1,0,0,12.1,134.9,705.7)" />
<use xlink:href="#f4_1y" transform="matrix(12.1,0,0,12.1,169.7,705.7)" />
<use xlink:href="#f4_1z" transform="matrix(12.1,0,0,12.1,178.9,705.7)" />
<use xlink:href="#f4_1z" transform="matrix(12.1,0,0,12.1,67.9,732.9)" />
<use xlink:href="#f4_1x" transform="matrix(12.1,0,0,12.1,92.8,732.9)" />
<use xlink:href="#f4_1y" transform="matrix(12.1,0,0,12.1,134.7,732.9)" />
<use xlink:href="#f4_1z" transform="matrix(12.1,0,0,12.1,169.8,732.9)" />
<use xlink:href="#f4_1x" transform="matrix(12.1,0,0,12.1,177.8,732.9)" />
<use xlink:href="#f4_1x" transform="matrix(12.1,0,0,12.1,215.7,732.9)" />
<use xlink:href="#f4_1y" transform="matrix(12.1,0,0,12.1,240.9,732.9)" />
<use xlink:href="#f4_1y" transform="matrix(12.1,0,0,12.1,266.4,732.9)" />
<use xlink:href="#f4_1z" transform="matrix(12.1,0,0,12.1,291.6,732.9)" />
<use xlink:href="#f4_1z" transform="matrix(12.1,0,0,12.1,316.5,732.9)" />
<use xlink:href="#f4_1x" transform="matrix(12.1,0,0,12.1,341.1,732.9)" />
<use xlink:href="#f4_1x" transform="matrix(12.1,0,0,12.1,363.4,732.9)" />
<use xlink:href="#f4_1y" transform="matrix(12.1,0,0,12.1,388.9,732.9)" />
<use xlink:href="#f4_1z" transform="matrix(12.1,0,0,12.1,414.4,732.9)" />
<use xlink:href="#f4_1x" transform="matrix(12.1,0,0,12.1,439.6,732.9)" />
<use xlink:href="#f4_1y" transform="matrix(12.1,0,0,12.1,472.8,732.9)" />
<use xlink:href="#f4_1z" transform="matrix(12.1,0,0,12.1,506.1,732.9)" />
<use xlink:href="#f4_1x" transform="matrix(12.1,0,0,12.1,67.9,765.1)" />
<use xlink:href="#f4_1y" transform="matrix(12.1,0,0,12.1,93.4,765.1)" />
<use xlink:href="#f4_1z" transform="matrix(12.1,0,0,12.1,135.3,765.1)" />
<use xlink:href="#f4_1x" transform="matrix(12.1,0,0,12.1,169.5,765.1)" />
<use xlink:href="#f4_1y" transform="matrix(12.1,0,0,12.1,178.7,765.1)" />
<use xlink:href="#f5_f" transform="matrix(12.1,0,0,12.1,80.4,705.7)" />
<use xlink:href="#f5_f" transform="matrix(12.1,0,0,12.1,79.4,732.9)" />
<use xlink:href="#f5_x" transform="matrix(12.1,0,0,12.1,195.1,732.9)" />
<use xlink:href="#f5_h" transform="matrix(12.1,0,0,12.1,228.3,732.9)" />
<use xlink:href="#f5_h" transform="matrix(12.1,0,0,12.1,278.7,732.9)" />
<use xlink:href="#f5_h" transform="matrix(12.1,0,0,12.1,328,732.9)" />
<use xlink:href="#f5_f" transform="matrix(12.1,0,0,12.1,376.1,732.9)" />
<use xlink:href="#f5_f" transform="matrix(12.1,0,0,12.1,401.3,732.9)" />
<use xlink:href="#f5_f" transform="matrix(12.1,0,0,12.1,460,732.9)" />
<use xlink:href="#f5_f" transform="matrix(12.1,0,0,12.1,493,732.9)" />
<use xlink:href="#f5_f" transform="matrix(12.1,0,0,12.1,80.5,765.1)" />
</g>
</g>
<g fill="#000000" >
<use xlink:href="#f2_1f" transform="matrix(12,0,0,12,440.9,797.7)" />
<use xlink:href="#f2_1i" transform="matrix(12,0,0,12,455.2,797.7)" />
<use xlink:href="#f3_1l" transform="matrix(12,0,0,12,55,821.9)" />
<use xlink:href="#f3_2f" transform="matrix(12,0,0,12,68.3,821.9)" />
<use xlink:href="#f3_25" transform="matrix(12,0,0,12,75.6,821.9)" />
<use xlink:href="#f3_2a" transform="matrix(12,0,0,12,80.3,821.9)" />
<use xlink:href="#f3_23" transform="matrix(12,0,0,12,89.1,821.9)" />
<use xlink:href="#f3_21" transform="matrix(12,0,0,12,103,821.9)" />
<use xlink:href="#f3_28" transform="matrix(12,0,0,12,111.4,821.9)" />
<use xlink:href="#f3_21" transform="matrix(12,0,0,12,116.2,821.9)" />
<use xlink:href="#f3_29" transform="matrix(12,0,0,12,124.6,821.9)" />
<use xlink:href="#f3_21" transform="matrix(12,0,0,12,138.6,821.9)" />
<use xlink:href="#f3_2a" transform="matrix(12,0,0,12,147,821.9)" />
<use xlink:href="#f3_2g" transform="matrix(12,0,0,12,155.8,821.9)" />
<use xlink:href="#f3_1x" transform="matrix(12,0,0,12,161.3,821.9)" />
<use xlink:href="#f3_2e" transform="matrix(12,0,0,12,169.3,821.9)" />
<use xlink:href="#f3_2l" transform="matrix(12,0,0,12,175.9,821.9)" />
<use xlink:href="#f3_2e" transform="matrix(12,0,0,12,189.1,821.9)" />
<use xlink:href="#f3_2b" transform="matrix(12,0,0,12,195.3,821.9)" />
<use xlink:href="#f3_2j" transform="matrix(12,0,0,12,204.8,821.9)" />
<use xlink:href="#f3_2b" transform="matrix(12,0,0,12,222.4,821.9)" />
<use xlink:href="#f3_2c" transform="matrix(12,0,0,12,231.9,821.9)" />
<use xlink:href="#f3_21" transform="matrix(12,0,0,12,241.1,821.9)" />
<use xlink:href="#f3_2e" transform="matrix(12,0,0,12,249.2,821.9)" />
<use xlink:href="#f3_1x" transform="matrix(12,0,0,12,255.4,821.9)" />
<use xlink:href="#f3_2g" transform="matrix(12,0,0,12,263.1,821.9)" />
<use xlink:href="#f3_25" transform="matrix(12,0,0,12,268.6,821.9)" />
<use xlink:href="#f3_2b" transform="matrix(12,0,0,12,273,821.9)" />
<use xlink:href="#f3_2a" transform="matrix(12,0,0,12,282.5,821.9)" />
<use xlink:href="#f3_g" transform="matrix(12,0,0,12,291.3,821.9)" />
<use xlink:href="#f3_22" transform="matrix(12,0,0,12,300.8,821.9)" />
<use xlink:href="#f3_25" transform="matrix(12,0,0,12,306.6,821.9)" />
<use xlink:href="#f3_2a" transform="matrix(12,0,0,12,311.4,821.9)" />
<use xlink:href="#f3_20" transform="matrix(12,0,0,12,320.6,821.9)" />
<use xlink:href="#f3_2g" transform="matrix(12,0,0,12,334.5,821.9)" />
<use xlink:href="#f3_24" transform="matrix(12,0,0,12,340,821.9)" />
<use xlink:href="#f3_21" transform="matrix(12,0,0,12,348.8,821.9)" />
<use xlink:href="#f3_25" transform="matrix(12,0,0,12,362,821.9)" />
<use xlink:href="#f3_2a" transform="matrix(12,0,0,12,366.7,821.9)" />
<use xlink:href="#f3_2i" transform="matrix(12,0,0,12,375.9,821.9)" />
<use xlink:href="#f3_21" transform="matrix(12,0,0,12,384.7,821.9)" />
<use xlink:href="#f3_2e" transform="matrix(12,0,0,12,392.8,821.9)" />
<use xlink:href="#f3_2f" transform="matrix(12,0,0,12,399,821.9)" />
<use xlink:href="#f3_21" transform="matrix(12,0,0,12,405.9,821.9)" />
<use xlink:href="#f3_2b" transform="matrix(12,0,0,12,418.8,821.9)" />
<use xlink:href="#f3_22" transform="matrix(12,0,0,12,428.3,821.9)" />
<use xlink:href="#f3_2g" transform="matrix(12,0,0,12,438.5,821.9)" />
<use xlink:href="#f3_24" transform="matrix(12,0,0,12,444,821.9)" />
<use xlink:href="#f3_21" transform="matrix(12,0,0,12,452.8,821.9)" />
<use xlink:href="#f3_22" transform="matrix(12,0,0,12,466,821.9)" />
<use xlink:href="#f3_2b" transform="matrix(12,0,0,12,471.5,821.9)" />
<use xlink:href="#f3_28" transform="matrix(12,0,0,12,481.4,821.9)" />
<use xlink:href="#f3_28" transform="matrix(12,0,0,12,486.1,821.9)" />
<use xlink:href="#f3_2b" transform="matrix(12,0,0,12,490.5,821.9)" />
<use xlink:href="#f3_2j" transform="matrix(12,0,0,12,500,821.9)" />
<use xlink:href="#f3_25" transform="matrix(12,0,0,12,513.6,821.9)" />
<use xlink:href="#f3_2a" transform="matrix(12,0,0,12,518.4,821.9)" />
<use xlink:href="#f3_23" transform="matrix(12,0,0,12,527.5,821.9)" />
<use xlink:href="#f3_29" transform="matrix(12,0,0,12,541.8,821.9)" />
<use xlink:href="#f3_1x" transform="matrix(12,0,0,12,555.7,821.9)" />
<use xlink:href="#f3_2g" transform="matrix(12,0,0,12,563.8,821.9)" />
<use xlink:href="#f3_2e" transform="matrix(12,0,0,12,569.3,821.9)" />
<use xlink:href="#f3_25" transform="matrix(12,0,0,12,575.5,821.9)" />
<use xlink:href="#f3_2k" transform="matrix(12,0,0,12,580.3,821.9)" />
<use xlink:href="#f3_u" transform="matrix(12,0,0,12,589.1,821.9)" />
</g>
<g clip-path="url(#c13_102)">
<g fill="#000000" >
<use xlink:href="#f3_m" transform="matrix(12.5,0,0,12.3,102.5,848.5)" />
<use xlink:href="#f3_l" transform="matrix(12.5,0,0,12.3,143.8,848.5)" />
<use xlink:href="#f3_n" transform="matrix(12.5,0,0,12.3,168.1,848.5)" />
<use xlink:href="#f3_p" transform="matrix(12.5,0,0,12.3,107.7,876.2)" />
<use xlink:href="#f3_n" transform="matrix(12.5,0,0,12.3,138.1,876.2)" />
<use xlink:href="#f3_l" transform="matrix(12.5,0,0,12.3,167.9,876.2)" />
<use xlink:href="#f3_n" transform="matrix(12.5,0,0,12.3,107.8,903.9)" />
<use xlink:href="#f3_m" transform="matrix(12.5,0,0,12.3,138.1,903.9)" />
<use xlink:href="#f3_n" transform="matrix(12.5,0,0,12.3,168.2,903.9)" />
<use xlink:href="#f4_11" transform="matrix(12.5,0,0,12.3,59.4,876.2)" />
<use xlink:href="#f5_h" transform="matrix(12.5,0,0,12.3,133.8,848.5)" />
<use xlink:href="#f5_4o" transform="matrix(12.5,0,0,12.3,88.1,849.9)" />
<use xlink:href="#f5_54" transform="matrix(12.5,0,0,12.3,178.6,849.9)" />
<use xlink:href="#f5_4p" transform="matrix(12.5,0,0,12.3,88.1,866.8)" />
<use xlink:href="#f5_55" transform="matrix(12.5,0,0,12.3,178.6,866.8)" />
<use xlink:href="#f5_x" transform="matrix(12.5,0,0,12.3,74.3,876.2)" />
<use xlink:href="#f5_h" transform="matrix(12.5,0,0,12.3,97.6,876.2)" />
<use xlink:href="#f5_4p" transform="matrix(12.5,0,0,12.3,88.1,884.5)" />
<use xlink:href="#f5_55" transform="matrix(12.5,0,0,12.3,178.6,884.5)" />
<use xlink:href="#f5_4p" transform="matrix(12.5,0,0,12.3,88.1,897.2)" />
<use xlink:href="#f5_55" transform="matrix(12.5,0,0,12.3,178.6,897.2)" />
<use xlink:href="#f5_h" transform="matrix(12.5,0,0,12.3,97.8,903.9)" />
<use xlink:href="#f5_4q" transform="matrix(12.5,0,0,12.3,88.1,908.8)" />
<use xlink:href="#f5_56" transform="matrix(12.5,0,0,12.3,178.6,908.8)" />
</g>
</g>
<g fill="#000000" >
<use xlink:href="#f2_1j" transform="matrix(12,0,0,12,55,933.4)" />
<use xlink:href="#f2_2b" transform="matrix(12,0,0,12,65.3,933.4)" />
<use xlink:href="#f2_28" transform="matrix(12,0,0,12,74.5,933.4)" />
<use xlink:href="#f2_2h" transform="matrix(12,0,0,12,79.2,933.4)" />
<use xlink:href="#f2_2g" transform="matrix(12,0,0,12,89.5,933.4)" />
<use xlink:href="#f2_25" transform="matrix(12,0,0,12,95.7,933.4)" />
<use xlink:href="#f2_2b" transform="matrix(12,0,0,12,100.8,933.4)" />
<use xlink:href="#f2_2a" transform="matrix(12,0,0,12,109.9,933.4)" />
<use xlink:href="#f2_u" transform="matrix(12,0,0,12,120.2,933.4)" />
<use xlink:href="#f3_1c" transform="matrix(12,0,0,12,55,988.1)" />
<use xlink:href="#f3_21" transform="matrix(12,0,0,12,66,988.1)" />
<use xlink:href="#f3_2g" transform="matrix(12,0,0,12,74.1,988.1)" />
</g>
<path d="M118,942.6v82m130.3,-82v82" class="g8_102" />
<g clip-path="url(#c14_102)">
<g fill="#000000" >
<use xlink:href="#f3_m" transform="matrix(7.3,0,0,7.1,168.9,952.2)" />
<use xlink:href="#f3_m" transform="matrix(7.3,0,0,7.1,204.1,952.2)" />
<use xlink:href="#f3_m" transform="matrix(7.3,0,0,7.1,169.3,979.9)" />
<use xlink:href="#f3_m" transform="matrix(7.3,0,0,7.1,203.6,979.9)" />
<use xlink:href="#f3_m" transform="matrix(7.3,0,0,7.1,169.6,1007.7)" />
<use xlink:href="#f3_m" transform="matrix(7.3,0,0,7.1,203.3,1007.7)" />
<use xlink:href="#f3_c" transform="matrix(12.5,0,0,12.3,121,960.5)" />
<use xlink:href="#f3_d" transform="matrix(12.5,0,0,12.3,162.2,960.5)" />
<use xlink:href="#f3_c" transform="matrix(12.5,0,0,12.3,120.6,988.2)" />
<use xlink:href="#f3_d" transform="matrix(12.5,0,0,12.3,162.6,988.2)" />
<use xlink:href="#f3_c" transform="matrix(12.5,0,0,12.3,120.3,1016)" />
<use xlink:href="#f3_d" transform="matrix(12.5,0,0,12.3,162.9,1016)" />
<use xlink:href="#f4_1y" transform="matrix(12.5,0,0,12.3,127,960.5)" />
<use xlink:href="#f4_1z" transform="matrix(12.5,0,0,12.3,153.6,960.5)" />
<use xlink:href="#f4_1x" transform="matrix(12.5,0,0,12.3,193.8,960.5)" />
<use xlink:href="#f4_1y" transform="matrix(12.5,0,0,12.3,228.4,960.5)" />
<use xlink:href="#f4_1z" transform="matrix(12.5,0,0,12.3,237.5,960.5)" />
<use xlink:href="#f4_1z" transform="matrix(12.5,0,0,12.3,126.9,988.2)" />
<use xlink:href="#f4_1x" transform="matrix(12.5,0,0,12.3,152.9,988.2)" />
<use xlink:href="#f4_1y" transform="matrix(12.5,0,0,12.3,193.7,988.2)" />
<use xlink:href="#f4_1z" transform="matrix(12.5,0,0,12.3,228.5,988.2)" />
<use xlink:href="#f4_1x" transform="matrix(12.5,0,0,12.3,236.6,988.2)" />
<use xlink:href="#f4_1x" transform="matrix(12.5,0,0,12.3,126.9,1016)" />
<use xlink:href="#f4_1y" transform="matrix(12.5,0,0,12.3,153.5,1016)" />
<use xlink:href="#f4_1z" transform="matrix(12.5,0,0,12.3,194.3,1016)" />
<use xlink:href="#f4_1x" transform="matrix(12.5,0,0,12.3,228.3,1016)" />
<use xlink:href="#f4_1y" transform="matrix(12.5,0,0,12.3,237.4,1016)" />
<use xlink:href="#f5_f" transform="matrix(12.5,0,0,12.3,139.9,960.5)" />
<use xlink:href="#f5_14" transform="matrix(12.5,0,0,12.3,86.9,988.2)" />
<use xlink:href="#f5_x" transform="matrix(12.5,0,0,12.3,102.8,988.2)" />
<use xlink:href="#f5_f" transform="matrix(12.5,0,0,12.3,138.9,988.2)" />
<use xlink:href="#f5_f" transform="matrix(12.5,0,0,12.3,140,1016)" />
</g>
</g>
<path d="M355.9,1034.6v82m80,-82v82" class="g9_102" />
<g clip-path="url(#c15_102)">
<g fill="#000000" >
<use xlink:href="#f3_m" transform="matrix(7.3,0,0,7.1,391.6,1044.2)" />
<use xlink:href="#f3_m" transform="matrix(7.3,0,0,7.1,272.4,1071.9)" />
<use xlink:href="#f3_m" transform="matrix(7.3,0,0,7.1,306.3,1071.9)" />
<use xlink:href="#f3_m" transform="matrix(7.3,0,0,7.1,339.7,1071.9)" />
<use xlink:href="#f3_m" transform="matrix(7.3,0,0,7.1,391.1,1071.9)" />
<use xlink:href="#f3_l" transform="matrix(7.3,0,0,7.1,68.5,1085)" />
<use xlink:href="#f3_l" transform="matrix(7.3,0,0,7.1,111.6,1085)" />
<use xlink:href="#f3_m" transform="matrix(7.3,0,0,7.1,147.2,1085)" />
<use xlink:href="#f3_n" transform="matrix(7.3,0,0,7.1,192.4,1085)" />
<use xlink:href="#f3_m" transform="matrix(7.3,0,0,7.1,390.9,1099.7)" />
<use xlink:href="#f3_l" transform="matrix(12.6,0,0,12.3,356.5,1052.5)" />
<use xlink:href="#f3_m" transform="matrix(12.6,0,0,12.3,171.6,1080.2)" />
<use xlink:href="#f3_c" transform="matrix(12.6,0,0,12.3,255.6,1080.2)" />
<use xlink:href="#f3_d" transform="matrix(12.6,0,0,12.3,346.9,1080.2)" />
<use xlink:href="#f3_l" transform="matrix(12.6,0,0,12.3,356.4,1080.2)" />
<use xlink:href="#f3_l" transform="matrix(12.6,0,0,12.3,356.5,1108)" />
<use xlink:href="#f4_1x" transform="matrix(12.6,0,0,12.3,381.4,1052.5)" />
<use xlink:href="#f4_1y" transform="matrix(12.6,0,0,12.3,416,1052.5)" />
<use xlink:href="#f4_1z" transform="matrix(12.6,0,0,12.3,425.2,1052.5)" />
<use xlink:href="#f4_13" transform="matrix(12.6,0,0,12.3,57.4,1080.2)" />
<use xlink:href="#f4_13" transform="matrix(12.6,0,0,12.3,100.5,1080.2)" />
<use xlink:href="#f4_13" transform="matrix(12.6,0,0,12.3,134.9,1080.2)" />
<use xlink:href="#f4_13" transform="matrix(12.6,0,0,12.3,180.4,1080.2)" />
<use xlink:href="#f4_1x" transform="matrix(12.6,0,0,12.3,262.2,1080.2)" />
<use xlink:href="#f4_1y" transform="matrix(12.6,0,0,12.3,296.4,1080.2)" />
<use xlink:href="#f4_1z" transform="matrix(12.6,0,0,12.3,330.6,1080.2)" />
<use xlink:href="#f4_1y" transform="matrix(12.6,0,0,12.3,381.2,1080.2)" />
<use xlink:href="#f4_1z" transform="matrix(12.6,0,0,12.3,416.1,1080.2)" />
<use xlink:href="#f4_1x" transform="matrix(12.6,0,0,12.3,424.1,1080.2)" />
<use xlink:href="#f4_1z" transform="matrix(12.6,0,0,12.3,381.8,1108)" />
<use xlink:href="#f4_1x" transform="matrix(12.6,0,0,12.3,415.9,1108)" />
<use xlink:href="#f4_1y" transform="matrix(12.6,0,0,12.3,425.1,1108)" />
<use xlink:href="#f5_34" transform="matrix(12.6,0,0,12.3,78.8,1080.2)" />
<use xlink:href="#f5_f" transform="matrix(12.6,0,0,12.3,121.5,1080.2)" />
<use xlink:href="#f5_h" transform="matrix(12.6,0,0,12.3,157.8,1080.2)" />
<use xlink:href="#f5_4g" transform="matrix(12.6,0,0,12.3,202.9,1080.2)" />
<use xlink:href="#f5_14" transform="matrix(12.6,0,0,12.3,225.4,1080.2)" />
<use xlink:href="#f5_x" transform="matrix(12.6,0,0,12.3,241.3,1080.2)" />
<use xlink:href="#f5_f" transform="matrix(12.6,0,0,12.3,282.9,1080.2)" />
<use xlink:href="#f5_f" transform="matrix(12.6,0,0,12.3,316.8,1080.2)" />
</g>
</g>
<path fill-rule="evenodd" d="M37.4,38.1h.7v-.7h-.7v.7Z" class="g3_102" />
<path fill-rule="evenodd" d="M37.4,38.1h.7v-.7h-.7v.7Z" class="g3_102" />
<path fill-rule="evenodd" d="M38.1,38.1H871.5v-.7H38.1v.7Z" class="g3_102" />
<path fill-rule="evenodd" d="M871.5,38.1h.8v-.7h-.8v.7Z" class="g3_102" />
<path fill-rule="evenodd" d="M871.5,38.1h.8v-.7h-.8v.7Z" class="g3_102" />
<path fill-rule="evenodd" d="M37.4,1248.5h.7V38.1h-.7V1248.5Z" class="g3_102" />
<path fill-rule="evenodd" d="M872.3,1248.5h.7V38.1h-.7V1248.5Z" class="g3_102" />
<path fill-rule="evenodd" d="M871.5,1248.5h.8V38.1h-.8V1248.5Z" class="g3_102" />
<path fill-rule="evenodd" d="M37.4,1249.2h.7v-.7h-.7v.7Z" class="g3_102" />
<path fill-rule="evenodd" d="M37.4,1249.2h.7v-.7h-.7v.7Z" class="g3_102" />
<path fill-rule="evenodd" d="M38.1,1249.9H871.5v-.7H38.1v.7Z" class="g3_102" />
<path fill-rule="evenodd" d="M38.1,1249.2H871.5v-.7H38.1v.7Z" class="g3_102" />
<path fill-rule="evenodd" d="M872.3,1249.9h.7v-1.4h-.7v1.4Z" class="g3_102" />
<path fill-rule="evenodd" d="M871.5,1249.9H873v-.7h-1.5v.7Z" class="g3_102" />
<path fill-rule="evenodd" d="M871.5,1249.2h.8v-.7h-.8v.7Z" class="g3_102" />
<path fill-rule="evenodd" d="M871.5,1249.2h.8v-.7h-.8v.7Z" class="g3_102" />
<defs>
<path d="M489,-15c0,0,-99,0,-179,30c0,0,-80,30,-136,91c0,0,-56,61,-85,152c0,0,-30,91,-30,212c0,0,0,123,32,218c0,0,33,96,92,161c0,0,59,65,142,98c0,0,82,34,181,34c0,0,40,0,78,-7c0,0,37,-7,69,-18c0,0,31,-11,57,-25c0,0,25,-14,35,-24c0,0,10,-10,14,-17c0,0,4,-7,6,-17c0,0,2,-11,3,-25c0,0,2,-14,2,-35c0,0,0,-22,-2,-38c0,0,-1,-15,-5,-25c0,0,-4,-10,-9,-14c0,0,-5,-5,-12,-5c0,0,-11,0,-28,13c0,0,-18,13,-45,29c0,0,-27,16,-65,29c0,0,-37,13,-89,13c0,0,-58,0,-103,-23c0,0,-45,-23,-77,-67c0,0,-31,-44,-48,-106c0,0,-16,-61,-16,-139c0,0,0,-85,17,-147c0,0,18,-62,50,-103c0,0,33,-40,79,-60c0,0,45,-19,103,-19c0,0,52,0,90,12c0,0,38,12,65,27c0,0,27,15,45,27c0,0,17,12,27,12c0,0,8,0,12,-3c0,0,4,-3,7,-12c0,0,3,-9,5,-25c0,0,1,-16,1,-43c0,0,0,-18,-1,-31c0,0,-1,-14,-3,-23c0,0,-2,-9,-6,-16c0,0,-4,-7,-12,-15c0,0,-8,-9,-32,-22c0,0,-23,-14,-57,-26C661,13,627,1,583,-6c0,0,-43,-9,-94,-9Z" 
id="f0_j"
transform="scale(0.001,-0.001)" />

<path d="M440,150c0,0,41,0,68,8c0,0,28,9,49,26c0,0,20,16,32,41c0,0,11,25,11,58c0,0,0,33,-11,60c0,0,-11,26,-33,44c0,0,-21,18,-55,28c0,0,-33,9,-87,9H298V150ZM407,567c0,0,42,0,68,10c0,0,25,10,42,28c0,0,16,17,24,41c0,0,9,24,9,50c0,0,0,29,-9,52c0,0,-9,23,-27,39c0,0,-18,15,-45,23c0,0,-27,8,-72,8H298V567ZM164,0c0,0,-25,0,-42,15c0,0,-16,14,-16,47V903c0,0,0,33,16,48c0,0,17,14,42,14H406c0,0,88,0,150,-15c0,0,61,-15,103,-45c0,0,42,-30,65,-77c0,0,22,-46,22,-108c0,0,0,-36,-9,-67c0,0,-9,-31,-26,-56c0,0,-17,-25,-42,-45c0,0,-25,-19,-57,-31c0,0,41,-7,76,-26c0,0,34,-19,60,-48c0,0,26,-30,41,-69c0,0,15,-40,15,-89c0,0,0,-51,-14,-93c0,0,-15,-42,-40,-74c0,0,-25,-32,-59,-55c0,0,-35,-23,-77,-38C614,29,573,14,525,7C525,7,478,0,420,0Z" 
id="f0_i"
transform="scale(0.001,-0.001)" />

<path d="M320,-17c0,0,-50,0,-93,9c0,0,-43,8,-76,19c0,0,-32,11,-54,24C97,35,75,48,65,58c0,0,-10,9,-14,28c0,0,-4,18,-4,52c0,0,0,23,1,39c0,0,2,15,5,25c0,0,4,10,9,14c0,0,6,4,13,4c0,0,11,0,30,-12c0,0,19,-13,49,-28c0,0,30,-15,71,-27c0,0,42,-12,96,-12c0,0,36,0,64,8c0,0,29,9,49,25c0,0,19,15,30,38c0,0,10,23,10,52c0,0,0,33,-18,56c0,0,-18,24,-46,42c0,0,-29,18,-66,34c0,0,-36,16,-75,34c0,0,-39,18,-76,41c0,0,-36,23,-65,54c0,0,-29,32,-47,75c0,0,-17,44,-17,104c0,0,0,70,25,122c0,0,26,53,70,88c0,0,43,34,103,51c0,0,59,18,125,18c0,0,35,0,69,-6c0,0,34,-5,64,-14c0,0,30,-9,53,-20c0,0,23,-11,31,-18c0,0,7,-8,10,-13c0,0,3,-5,4,-14c0,0,2,-8,3,-21c0,0,1,-13,1,-33c0,0,0,-21,-1,-36c0,0,-1,-15,-4,-25c0,0,-3,-9,-7,-14c0,0,-5,-4,-14,-4c0,0,-8,0,-26,10c0,0,-18,10,-44,23c0,0,-26,12,-60,22c0,0,-34,10,-75,10c0,0,-32,0,-56,-8c0,0,-24,-8,-40,-21c0,0,-16,-14,-24,-34c0,0,-8,-19,-8,-41c0,0,0,-32,18,-56c0,0,17,-23,46,-42c0,0,30,-18,67,-34c0,0,38,-16,76,-34c0,0,39,-18,76,-41c0,0,38,-22,67,-54c0,0,29,-32,47,-75c0,0,18,-43,18,-101c0,0,0,-76,-29,-133c0,0,-28,-58,-77,-96C572,60,524,21,459,2c0,0,-65,-19,-139,-19Z" 
id="f0_2n"
transform="scale(0.001,-0.001)" />

<path d="M164,0c0,0,-25,0,-42,15c0,0,-16,14,-16,47V903c0,0,0,33,16,48c0,0,17,14,42,14H645c0,0,7,0,12,-4c0,0,5,-3,9,-13c0,0,4,-9,6,-24c0,0,2,-14,2,-36c0,0,0,-21,-2,-36c0,0,-2,-14,-6,-23c0,0,-4,-9,-9,-13c0,0,-5,-4,-12,-4H301V576H593c0,0,6,0,12,-4c0,0,6,-4,9,-13c0,0,4,-8,6,-23c0,0,2,-14,2,-35c0,0,0,-22,-2,-36c0,0,-2,-14,-6,-23c0,0,-3,-8,-9,-12c0,0,-6,-4,-12,-4H301V154H649c0,0,6,0,12,-5c0,0,5,-4,9,-13c0,0,4,-9,6,-23c0,0,2,-15,2,-36c0,0,0,-22,-2,-36c0,0,-2,-15,-6,-24c0,0,-4,-9,-9,-13c0,0,-6,-4,-12,-4Z" 
id="f0_t"
transform="scale(0.001,-0.001)" />

<path d="M79,297c0,0,-19,0,-27,18c0,0,-8,17,-8,60c0,0,0,41,8,59c0,0,8,17,27,17H389c0,0,9,0,15,-4c0,0,7,-4,11,-13c0,0,5,-9,7,-23c0,0,1,-15,1,-36c0,0,0,-43,-8,-61c0,0,-8,-17,-26,-17Z" 
id="f0_oj"
transform="scale(0.001,-0.001)" />

<path d="M121,-4c0,0,-39,0,-60,2C61,-2,39,0,32,8c0,0,-8,8,-3,24c0,0,4,15,18,41L279,495L64,892c0,0,-14,26,-19,42c0,0,-5,17,4,24c0,0,9,8,32,10c0,0,23,2,65,2c0,0,35,0,56,-2c0,0,20,-1,32,-4c0,0,12,-4,17,-10c0,0,5,-6,9,-15L431,620L595,939c0,0,5,9,10,15c0,0,5,6,16,10c0,0,10,3,29,4c0,0,19,2,53,2c0,0,37,0,59,-2c0,0,22,-2,30,-10c0,0,8,-8,4,-24c0,0,-4,-16,-17,-42L564,497L793,73c0,0,14,-26,18,-41c0,0,4,-16,-5,-24c0,0,-9,-8,-32,-10c0,0,-24,-2,-65,-2c0,0,-36,0,-56,2c0,0,-20,1,-31,3c0,0,-12,4,-17,10c0,0,-5,6,-9,15L414,374L233,26c0,0,-4,-9,-9,-15c0,0,-6,-6,-17,-10c0,0,-12,-2,-32,-3c0,0,-21,-2,-54,-2Z" 
id="f0_3e"
transform="scale(0.001,-0.001)" />

<path d="M204,-4c0,0,-28,0,-47,2c0,0,-19,2,-31,5c0,0,-11,4,-16,10c0,0,-4,6,-4,13V939c0,0,0,7,4,13c0,0,5,6,17,10c0,0,11,3,30,6c0,0,19,2,47,2c0,0,29,0,48,-2c0,0,18,-3,29,-6c0,0,11,-4,16,-10c0,0,5,-6,5,-13V26c0,0,0,-7,-5,-13c0,0,-5,-6,-16,-10c0,0,-11,-3,-29,-5c0,0,-19,-2,-48,-2Z" 
id="f0_1c"
transform="scale(0.001,-0.001)" />

<path d="M127,0c0,0,-16,0,-28,3C99,3,87,6,80,15c0,0,-8,8,-11,25c0,0,-3,16,-3,42c0,0,0,25,2,42c0,0,2,18,8,32c0,0,6,14,15,27c0,0,9,13,24,29L282,390c0,0,50,53,81,95c0,0,30,43,47,79c0,0,17,35,24,65c0,0,6,30,6,57c0,0,0,24,-8,46c0,0,-8,22,-23,39c0,0,-15,16,-38,25c0,0,-23,10,-55,10c0,0,-44,0,-78,-12c0,0,-33,-11,-59,-25c0,0,-26,-13,-43,-25c0,0,-17,-12,-27,-12c0,0,-7,0,-11,5c0,0,-5,4,-8,15c0,0,-3,10,-5,28c0,0,-2,17,-2,42c0,0,0,18,1,29c0,0,1,12,4,20c0,0,2,9,6,15c0,0,3,6,13,15c0,0,9,9,34,23c0,0,25,14,61,27c0,0,37,14,81,23c0,0,44,9,92,9c0,0,75,0,131,-19c0,0,57,-19,94,-53c0,0,37,-34,55,-81c0,0,19,-47,19,-100c0,0,0,-47,-9,-93c0,0,-9,-45,-37,-98c0,0,-29,-52,-80,-116c0,0,-52,-64,-136,-148L299,159H679c0,0,8,0,14,-4c0,0,6,-5,11,-14c0,0,4,-9,7,-25c0,0,2,-15,2,-36c0,0,0,-22,-2,-37c0,0,-2,-15,-6,-25c0,0,-3,-10,-9,-14c0,0,-6,-4,-14,-4Z" 
id="f0_rz"
transform="scale(0.001,-0.001)" />

<path d="M385,138c0,0,29,0,52,9c0,0,22,10,39,28c0,0,17,19,28,47c0,0,11,29,19,66c0,0,7,37,9,84c0,0,3,47,3,104c0,0,0,69,-4,122c0,0,-4,52,-11,91c0,0,-8,39,-20,66c0,0,-12,27,-28,43c0,0,-16,16,-37,22c0,0,-21,7,-47,7c0,0,-44,0,-73,-21c0,0,-28,-21,-45,-64c0,0,-17,-42,-24,-106c0,0,-6,-63,-6,-148c0,0,0,-103,8,-171c0,0,8,-67,26,-107c0,0,17,-40,45,-56c0,0,27,-16,66,-16ZM378,-17c0,0,-99,0,-164,33c0,0,-65,34,-103,98c0,0,-38,64,-54,156c0,0,-15,92,-15,209c0,0,0,115,19,208c0,0,19,94,61,160c0,0,42,65,110,101c0,0,68,35,165,35c0,0,99,0,164,-34c0,0,65,-34,103,-98c0,0,39,-64,53,-156c0,0,15,-92,15,-209c0,0,0,-115,-18,-209c0,0,-19,-93,-61,-159C653,118,611,53,543,17c0,0,-67,-34,-165,-34Z" 
id="f0_rx"
transform="scale(0.001,-0.001)" />

<path d="M142,0c0,0,-6,0,-12,4c0,0,-5,3,-9,12c0,0,-4,9,-6,23c0,0,-3,15,-3,36c0,0,0,21,2,36c0,0,2,14,6,23c0,0,4,9,10,13c0,0,5,5,12,5H322V779L166,693c0,0,-17,-8,-28,-10c0,0,-1,0,-3,0c-4,0,-10,1,-14,5c0,0,-6,6,-8,22c0,0,-2,15,-2,44c0,0,0,18,0,29c0,0,1,12,4,20c0,0,3,8,8,14c0,0,5,5,14,11L345,962c0,0,4,3,9,5c0,0,6,2,15,3c0,0,9,1,23,2c0,0,15,0,38,0c0,0,28,0,46,-1c0,0,17,-1,26,-4c0,0,9,-3,12,-7c0,0,3,-4,3,-11V152H675c0,0,7,0,12,-5c0,0,6,-4,10,-13c0,0,4,-9,6,-23c0,0,2,-15,2,-36c0,0,0,-21,-2,-36c0,0,-3,-14,-7,-23c0,0,-4,-9,-9,-12c0,0,-5,-4,-12,-4Z" 
id="f0_ry"
transform="scale(0.001,-0.001)" />

<path d="M398,134c0,0,34,0,60,12c0,0,25,13,43,36c0,0,17,23,26,54c0,0,9,31,9,68c0,0,0,38,-7,66c0,0,-7,29,-22,49c0,0,-15,20,-39,30c0,0,-25,10,-60,10c0,0,-21,0,-41,-4c0,0,-20,-4,-40,-10c0,0,-19,-7,-37,-16c0,0,-18,-10,-33,-20c0,0,0,-80,9,-133c0,0,9,-54,26,-85c0,0,18,-31,44,-44c0,0,27,-13,62,-13ZM387,-16c0,0,-67,0,-117,15c0,0,-50,14,-86,43c0,0,-37,29,-60,70c0,0,-23,41,-37,92c0,0,-14,52,-19,112c0,0,-5,61,-5,129c0,0,0,56,5,118c0,0,6,62,22,122c0,0,16,59,45,114c0,0,29,54,75,94c0,0,46,41,111,65c0,0,65,24,155,24c0,0,28,0,57,-4c0,0,29,-3,53,-8c0,0,25,-5,42,-12c0,0,17,-7,23,-12c0,0,5,-5,8,-11c0,0,3,-5,5,-13c0,0,2,-7,3,-17c0,0,1,-11,1,-25c0,0,0,-24,-1,-39c0,0,-2,-15,-5,-24c0,0,-3,-8,-8,-12c0,0,-5,-4,-12,-4c0,0,-9,0,-24,5c0,0,-14,5,-34,11c0,0,-20,6,-47,10c0,0,-27,5,-63,5c0,0,-61,0,-102,-23c0,0,-42,-22,-68,-60c0,0,-26,-39,-38,-90c0,0,-12,-50,-13,-107c0,0,16,10,38,21c0,0,21,10,46,18c0,0,25,7,54,12c0,0,29,5,62,5c0,0,73,0,125,-20c0,0,52,-20,86,-58c0,0,33,-37,48,-90c0,0,16,-53,16,-118c0,0,0,-73,-22,-135c0,0,-23,-62,-66,-108C640,79,597,34,533,9c0,0,-63,-25,-146,-25Z" 
id="f0_s3"
transform="scale(0.001,-0.001)" />

<path d="M589,371L453,782h-1L317,371ZM106,-4c0,0,-35,0,-54,2C52,-2,32,0,25,8c0,0,-7,9,-5,24c0,0,2,16,11,42L329,931c0,0,4,13,10,21c0,0,6,7,19,12c0,0,13,4,36,5c0,0,23,1,61,1c0,0,44,0,71,-1c0,0,26,-1,40,-5c0,0,15,-5,21,-13c0,0,6,-8,11,-22L896,73c0,0,9,-27,11,-43c0,0,3,-15,-6,-23c0,0,-8,-7,-29,-9c0,0,-21,-2,-57,-2c0,0,-38,0,-59,1c0,0,-22,1,-33,4c0,0,-11,3,-16,9c0,0,-4,6,-7,16L635,220H272L211,31c0,0,-2,-11,-7,-18c0,0,-5,-7,-16,-11c0,0,-11,-3,-31,-4c0,0,-19,-2,-51,-2Z" 
id="f0_5"
transform="scale(0.001,-0.001)" />

<path d="M198,-4c0,0,-27,0,-45,2c0,0,-18,2,-28,5c0,0,-11,4,-15,10c0,0,-4,6,-4,13V887c0,0,0,38,20,58c0,0,20,20,53,20H308c0,0,34,0,59,-6c0,0,24,-5,42,-18c0,0,18,-13,30,-35c0,0,12,-21,21,-52L669,279h3L889,852c0,0,9,32,21,53c0,0,11,22,27,35c0,0,15,14,36,19c0,0,21,6,48,6h132c0,0,21,0,35,-5c0,0,15,-5,24,-15c0,0,9,-11,14,-25c0,0,5,-15,5,-33V26c0,0,0,-7,-4,-13c0,0,-4,-6,-15,-10c0,0,-11,-3,-29,-5c0,0,-18,-2,-45,-2c0,0,-27,0,-45,2c0,0,-18,2,-28,5c0,0,-11,4,-15,10c0,0,-5,6,-5,13V813h-1L764,27c0,0,-3,-10,-10,-16c0,0,-6,-6,-18,-10c0,0,-12,-3,-29,-4c0,0,-18,-1,-44,-1c0,0,-25,0,-43,2c0,0,-18,2,-29,5c0,0,-12,4,-19,10c0,0,-6,6,-9,14L293,813h-2V26c0,0,0,-7,-4,-13c0,0,-4,-6,-15,-10c0,0,-11,-3,-29,-5c0,0,-17,-2,-45,-2Z" 
id="f0_1x"
transform="scale(0.001,-0.001)" />

<path d="M193,-4c0,0,-26,0,-43,2c0,0,-18,2,-27,6c0,0,-10,4,-14,10c0,0,-3,6,-3,13V895c0,0,0,35,20,53c0,0,21,17,50,17H282c0,0,28,0,47,-5c0,0,20,-5,35,-16c0,0,15,-11,29,-31c0,0,13,-20,27,-49L608,511c0,0,17,-32,33,-63c0,0,16,-31,31,-62c0,0,14,-31,29,-60c0,0,14,-30,27,-60h1c0,0,-2,52,-3,109c0,0,-1,57,-1,108V936c0,0,0,7,4,13c0,0,5,6,15,11c0,0,10,4,28,6c0,0,17,2,44,2c0,0,25,0,42,-2c0,0,17,-2,27,-6c0,0,9,-5,13,-11c0,0,4,-6,4,-13V68c0,0,0,-17,-6,-30c0,0,-6,-14,-17,-23C879,15,869,6,856,2c0,0,-14,-3,-28,-3H744c0,0,-26,0,-45,4c0,0,-19,5,-35,19c0,0,-16,14,-31,38c0,0,-15,23,-34,60L359,572c0,0,-21,40,-43,86c0,0,-21,47,-38,91h-2c0,0,3,-54,5,-107c0,0,2,-53,2,-110V27c0,0,0,-7,-5,-13c0,0,-4,-6,-14,-10c0,0,-10,-4,-27,-6c0,0,-17,-2,-44,-2Z" 
id="f0_1y"
transform="scale(0.001,-0.001)" />

<path d="M378,-4c0,0,-28,0,-47,2c0,0,-19,2,-31,5c0,0,-11,4,-16,10c0,0,-4,6,-4,13V805H38c0,0,-8,0,-13,4c0,0,-5,5,-9,14c0,0,-3,9,-5,25c0,0,-2,15,-2,37c0,0,0,22,2,38c0,0,2,15,5,25c0,0,4,9,9,13c0,0,5,4,13,4H718c0,0,7,0,12,-4c0,0,6,-4,10,-13c0,0,3,-10,5,-25c0,0,2,-16,2,-38c0,0,0,-22,-2,-37c0,0,-2,-16,-5,-25c0,0,-4,-9,-10,-14c0,0,-5,-4,-12,-4H476V26c0,0,0,-7,-5,-13c0,0,-5,-6,-16,-10c0,0,-11,-3,-30,-5c0,0,-19,-2,-47,-2Z" 
id="f0_2t"
transform="scale(0.001,-0.001)" />

<path d="M514,145c0,0,72,0,121,27c0,0,48,26,78,73c0,0,30,46,42,107c0,0,13,62,13,131c0,0,0,76,-12,139c0,0,-12,62,-41,106c0,0,-29,45,-76,69c0,0,-48,24,-120,24c0,0,-72,0,-120,-27c0,0,-49,-27,-79,-73c0,0,-29,-45,-42,-106c0,0,-12,-61,-12,-129c0,0,0,-79,12,-142c0,0,12,-63,40,-108c0,0,28,-44,76,-68c0,0,48,-23,120,-23ZM508,-17c0,0,-113,0,-196,29c0,0,-84,29,-140,90c0,0,-56,60,-84,154c0,0,-28,93,-28,221c0,0,0,117,29,210c0,0,30,94,89,160c0,0,59,65,146,101c0,0,87,35,202,35c0,0,110,0,194,-29c0,0,84,-30,140,-90c0,0,56,-60,85,-153c0,0,29,-92,29,-217c0,0,0,-120,-30,-215c0,0,-30,-95,-89,-161C855,118,796,52,709,17c0,0,-87,-34,-201,-34Z" 
id="f0_24"
transform="scale(0.001,-0.001)" />

<path d="M407,475c0,0,61,0,105,44c0,0,44,43,44,103c0,0,0,64,-43,108c0,0,-44,43,-109,43c0,0,-57,0,-99,-44c0,0,-42,-45,-42,-107c0,0,0,-62,42,-104c0,0,42,-43,102,-43ZM195,0L430,323c0,0,-67,-8,-85,-8c0,0,-126,0,-212,92c0,0,-87,92,-87,227c0,0,0,141,107,237c0,0,106,96,264,96c0,0,151,0,246,-97c0,0,95,-96,95,-250c0,0,0,-112,-56,-223c0,0,-55,-112,-94,-168L448,0Z" 
id="f1_t"
transform="scale(0.001,-0.001)" />

<path d="M44,-281L425,1053H537L156,-281Z" 
id="f1_j"
transform="scale(0.001,-0.001)" />

<path d="M299,0V777H162l36,173H508V0Z" 
id="f1_l"
transform="scale(0.001,-0.001)" />

<path d="M404,-11c0,0,-136,0,-225,76c0,0,-90,78,-111,215H265c0,0,35,-136,135,-136c0,0,50,0,85,35c0,0,34,36,34,88c0,0,0,64,-41,105c0,0,-42,41,-107,41H336V573h21c0,0,68,0,109,33c0,0,41,34,41,89c0,0,0,50,-32,85c0,0,-32,35,-79,35c0,0,-110,0,-127,-135H76c0,0,9,130,96,209c0,0,87,79,208,79c0,0,134,0,227,-76c0,0,94,-75,94,-182c0,0,0,-116,-115,-210c0,0,73,-46,107,-96c0,0,34,-51,34,-121c0,0,0,-134,-88,-214c0,0,-89,-80,-235,-80Z" 
id="f1_n"
transform="scale(0.001,-0.001)" />

<path d="M64,0V141c0,0,64,68,119,123c0,0,119,118,174,185c0,0,56,68,81,140c0,0,26,72,26,165c0,0,0,81,-40,131c0,0,-39,50,-105,50c0,0,-46,0,-74,-10c0,0,-27,-10,-50,-29L163,751H98V979c0,0,59,13,116,23c0,0,58,9,125,9c0,0,165,0,252,-68c0,0,88,-68,88,-193c0,0,0,-78,-26,-142c0,0,-26,-64,-83,-124c0,0,-56,-61,-224,-197c0,0,-64,-52,-139,-119H698V0Z" 
id="f2_m"
transform="scale(0.001,-0.001)" />

<path d="M379,60c0,0,55,0,82,103c0,0,26,104,26,342c0,0,0,233,-26,335c0,0,-26,102,-82,102c0,0,-55,0,-79,-99c0,0,-23,-99,-23,-338c0,0,0,-244,24,-345c0,0,24,-100,78,-100Zm-2,-74c0,0,-158,0,-238,132c0,0,-81,133,-81,386c0,0,0,249,81,380c0,0,80,132,244,132c0,0,159,0,241,-130c0,0,82,-130,82,-382c0,0,0,-518,-329,-518Z" 
id="f2_k"
transform="scale(0.001,-0.001)" />

<path d="M191,-20c0,0,-51,0,-88,34c0,0,-36,36,-36,88c0,0,0,52,36,88c0,0,36,36,88,36c0,0,51,0,88,-36c0,0,36,-36,36,-88c0,0,0,-51,-36,-87c0,0,-36,-35,-88,-35Z" 
id="f2_i"
transform="scale(0.001,-0.001)" />

<path d="M44,0V40L172,60V941L44,960v40H471V960L316,941V65H513c0,0,159,0,234,14l46,208h48L828,0Z" 
id="f3_1c"
transform="scale(0.001,-0.001)" />

<path d="M495,413c0,0,0,133,-34,190c0,0,-34,57,-105,57c0,0,-78,0,-119,-63c0,0,-42,-62,-42,-184ZM374,-14c0,0,-163,0,-239,87c0,0,-75,88,-75,283c0,0,0,183,77,273c0,0,76,91,219,91c0,0,269,0,269,-306V353H194V340c0,0,0,-103,23,-160c0,0,22,-57,70,-87c0,0,47,-29,124,-29c0,0,40,0,96,6c0,0,55,7,91,15V43C598,43,562,20,500,3c0,0,-61,-17,-126,-17Z" 
id="f3_21"
transform="scale(0.001,-0.001)" />

<path d="M249,-14c0,0,-71,0,-107,42c0,0,-35,42,-35,119V639H15v33l93,29l76,159h47V701H391V639H231V161c0,0,0,-48,22,-73c0,0,22,-24,57,-24c0,0,44,0,106,12V26C416,26,389,8,340,-2c0,0,-49,-12,-91,-12Z" 
id="f3_2g"
transform="scale(0.001,-0.001)" />

<path d="M64,0V34L168,59V639H47v36l121,29v49c0,0,0,155,61,239c0,0,62,84,173,84c0,0,58,0,107,-15V908H472l-33,92c0,0,-26,16,-62,16c0,0,-47,0,-66,-42c0,0,-19,-42,-19,-157V701H478V639H292V59L443,34V0Z" 
id="f3_22"
transform="scale(0.001,-0.001)" />

<path d="M211,-20c0,0,-39,0,-64,25c0,0,-26,27,-26,64c0,0,0,38,26,64c0,0,26,26,64,26c0,0,37,0,64,-25c0,0,26,-26,26,-65c0,0,0,-37,-26,-64c0,0,-26,-25,-64,-25Zm0,556c0,0,-38,0,-64,26c0,0,-26,26,-26,64c0,0,0,37,26,64c0,0,25,27,64,27c0,0,38,0,64,-27c0,0,26,-27,26,-64c0,0,0,-38,-26,-64c0,0,-27,-26,-64,-26Z" 
id="f3_u"
transform="scale(0.001,-0.001)" />

<path d="M712,0L354,900L205,60L336,40L329,0H-10l7,40L127,60L283,941L157,960l8,40H454L752,250L873,941L742,960l7,40h341l-8,-40L951,941L785,0Z" 
id="f4_1e"
transform="scale(0.001,-0.001)" />

<path d="M968,-20c0,0,42,100,87,170c0,0,45,70,144,184H56v73H1199c0,0,-106,122,-148,189c0,0,-43,67,-83,166h60c0,0,87,-108,217,-218c0,0,130,-110,206,-154V349c0,0,-99,-56,-217,-159c0,0,-117,-102,-206,-210Z" 
id="f5_34"
transform="scale(0.001,-0.001)" />

<path d="M376,50c0,0,103,0,149,80c0,0,46,81,46,240c0,0,0,137,-47,204c0,0,-48,67,-148,67c0,0,-44,0,-87,-7c0,0,-44,-8,-63,-17V62c0,0,63,-12,150,-12Zm3,-64c0,0,-64,0,-141,14c0,0,-78,14,-136,37v971L0,1026v34H226V809c0,0,0,-40,-4,-148c0,0,74,59,188,59c0,0,143,0,219,-87c0,0,77,-87,77,-263c0,0,0,-189,-84,-287c0,0,-84,-97,-243,-97Z" 
id="f3_1y"
transform="scale(0.001,-0.001)" />

<path d="M284,67c0,0,51,0,88,12c0,0,37,12,74,30V358l-98,-3c0,0,-100,-4,-135,-39c0,0,-35,-35,-35,-117c0,0,0,-132,106,-132ZM233,-14c0,0,-179,0,-179,208c0,0,0,70,27,116c0,0,27,46,87,70c0,0,60,24,173,27l105,3V519c0,0,0,72,-26,107c0,0,-27,34,-82,34c0,0,-75,0,-137,-35L176,538H134V691c0,0,121,26,213,26c0,0,115,0,169,-47c0,0,54,-47,54,-144V52L657,33V0H465L451,70c0,0,-85,-84,-218,-84Z" 
id="f3_1x"
transform="scale(0.001,-0.001)" />

<path d="M289,-14c0,0,-179,0,-179,205V649L20,668v33H233V200c0,0,0,-128,120,-128c0,0,92,0,173,23V649L420,668v33H649V52L738,33V0H533l-6,57C527,57,474,28,405,7c0,0,-69,-21,-116,-21Z" 
id="f3_2h"
transform="scale(0.001,-0.001)" />

<path d="M439,0V33l93,19V500c0,0,0,62,-30,97c0,0,-31,36,-94,36c0,0,-67,0,-165,-22V52L338,33V0H35V33l84,19V649L35,668v33H235l7,-57c0,0,57,33,122,54c0,0,65,22,108,22c0,0,91,0,137,-53c0,0,47,-53,47,-154V52L741,33V0Z" 
id="f3_2a"
transform="scale(0.001,-0.001)" />

<path d="M399,-14c0,0,-341,0,-341,370c0,0,0,175,87,269c0,0,87,95,249,95c0,0,101,0,220,-23V501H573L541,625c0,0,-62,35,-149,35c0,0,-200,0,-200,-304c0,0,0,-158,61,-225c0,0,61,-67,189,-67c0,0,109,0,189,24V43C631,43,595,16,530,1c0,0,-64,-15,-131,-15Z" 
id="f3_1z"
transform="scale(0.001,-0.001)" />

<path d="M32,0V33L151,52V649L52,668v33H275V52L395,33V0ZM201,850c0,0,-32,0,-56,24c0,0,-24,24,-24,56c0,0,0,34,24,58c0,0,24,24,56,24c0,0,34,0,58,-24c0,0,24,-24,24,-58c0,0,0,-32,-24,-56c0,0,-24,-24,-58,-24Z" 
id="f3_25"
transform="scale(0.001,-0.001)" />

<path d="M377,45c0,0,99,0,147,73c0,0,47,73,47,237c0,0,0,161,-47,233c0,0,-47,72,-147,72c0,0,-97,0,-141,-69c0,0,-44,-69,-44,-236c0,0,0,-169,45,-240c0,0,44,-70,140,-70Zm0,-59c0,0,-158,0,-238,94c0,0,-81,95,-81,274c0,0,0,178,81,272c0,0,80,94,244,94c0,0,160,0,241,-92c0,0,82,-92,82,-274c0,0,0,-368,-329,-368Z" 
id="f3_2b"
transform="scale(0.001,-0.001)" />

<path d="M383,64c0,0,85,0,152,28V645c0,0,-67,13,-152,13c0,0,-194,0,-194,-314c0,0,0,-141,48,-211c0,0,48,-69,146,-69ZM342,-14c0,0,-287,0,-287,358c0,0,0,184,82,280c0,0,81,96,239,96c0,0,81,0,163,-18c0,0,-4,25,-4,124v182l-118,18v34H659V52L745,33V0H548l-9,52c0,0,-84,-66,-197,-66Z" 
id="f3_20"
transform="scale(0.001,-0.001)" />

<path d="M278,-14c0,0,-52,0,-115,11c0,0,-63,10,-99,23V193H98L134,95c0,0,56,-50,146,-50c0,0,144,0,144,123c0,0,0,91,-114,130l-66,21c0,0,-75,25,-110,50c0,0,-34,26,-53,63c0,0,-18,36,-18,89c0,0,0,92,63,145c0,0,63,54,170,54c0,0,77,0,193,-23V544H454l-32,81c0,0,-39,35,-124,35c0,0,-61,0,-92,-30c0,0,-32,-30,-32,-80c0,0,0,-43,29,-72c0,0,28,-29,86,-48c0,0,110,-38,144,-55c0,0,33,-17,57,-42c0,0,23,-25,36,-57c0,0,13,-32,13,-79c0,0,0,-104,-66,-158c0,0,-66,-53,-195,-53Z" 
id="f3_2f"
transform="scale(0.001,-0.001)" />

<path d="M67,0V109L206,235c0,0,133,118,196,190c0,0,63,72,90,149c0,0,27,77,27,177c0,0,0,97,-44,148c0,0,-44,50,-144,50c0,0,-39,0,-81,-10c0,0,-42,-11,-74,-29L150,787H101V980c0,0,135,32,230,32c0,0,164,0,247,-68c0,0,82,-69,82,-193c0,0,0,-84,-32,-158c0,0,-33,-75,-100,-148c0,0,-67,-74,-222,-206c0,0,-67,-57,-141,-125H680V0Z" 
id="f3_m"
transform="scale(0.001,-0.001)" />

<path d="M460,-325c0,0,-148,79,-231,172c0,0,-84,93,-123,217c0,0,-39,126,-39,304c0,0,0,178,39,303c0,0,39,125,122,217c0,0,82,93,232,172V997c0,0,-91,-52,-145,-134c0,0,-54,-81,-79,-190c0,0,-25,-109,-25,-305c0,0,0,-194,26,-309c0,0,26,-114,82,-193c0,0,56,-79,141,-128v-63Z" 
id="f3_c"
transform="scale(0.001,-0.001)" />

<path d="M49,-325v63c0,0,85,49,140,128c0,0,56,79,83,194c0,0,26,115,26,308c0,0,0,196,-25,305c0,0,-25,109,-79,190c0,0,-54,82,-145,134v63c0,0,149,-80,232,-172c0,0,83,-92,122,-217c0,0,39,-125,39,-303c0,0,0,-177,-39,-303c0,0,-39,-125,-122,-217c0,0,-83,-93,-232,-173Z" 
id="f3_d"
transform="scale(0.001,-0.001)" />

<path d="M476,327V830h-4L114,327ZM476,0V220H30v99l488,686h86V327H740V220H604V0Z" 
id="f3_o"
transform="scale(0.001,-0.001)" />

<path d="M134,0V40L339,60V876L137,804v39l292,166h39V60L672,40V0Z" 
id="f3_l"
transform="scale(0.001,-0.001)" />

<path d="M350,-14c0,0,-142,0,-253,31L89,228h49L172,87c0,0,32,-18,78,-29c0,0,46,-11,88,-11c0,0,118,0,173,56c0,0,56,55,56,187c0,0,0,93,-24,140c0,0,-24,47,-76,70c0,0,-52,22,-140,22c0,0,-68,0,-133,-18H122v496H630V886H189V567c0,0,81,18,173,18c0,0,173,0,258,-71c0,0,84,-71,84,-216c0,0,0,-151,-92,-232c0,0,-91,-80,-262,-80Z" 
id="f3_p"
transform="scale(0.001,-0.001)" />

<path d="M191,-20c0,0,-39,0,-65,25c0,0,-25,27,-25,64c0,0,0,38,26,64c0,0,26,26,64,26c0,0,38,0,64,-26c0,0,26,-26,26,-64c0,0,0,-37,-25,-64c0,0,-26,-25,-65,-25Z" 
id="f3_i"
transform="scale(0.001,-0.001)" />

<path d="M17,-325L185,639H64l6,36l127,29l9,49c0,0,30,167,100,245c0,0,71,78,191,78c0,0,57,0,104,-15L574,915H538l-14,85c0,0,-22,16,-63,16c0,0,-45,0,-72,-39c0,0,-26,-39,-48,-160L319,701H475L465,639H309L141,-325Z" 
id="f4_22"
transform="scale(0.001,-0.001)" />

<path d="M-6,0c0,0,-12,10,-12,32c0,0,0,21,23,51c0,0,23,31,79,82L287,354L159,649L79,668l6,33H270L378,434l93,88c0,0,47,46,67,72c0,0,19,26,19,44c0,0,0,8,-6,13c0,0,-7,6,-38,17l6,33H651c0,0,16,-12,16,-32c0,0,0,-44,-103,-142L404,377L548,49L634,33L628,0H437L313,298L185,176c0,0,-41,-40,-60,-65c0,0,-19,-26,-19,-48c0,0,0,-21,31,-29L131,0Z" 
id="f4_2k"
transform="scale(0.001,-0.001)" />

<path d="M0,214v74H784V214ZM0,494v72H784V494Z" 
id="f5_x"
transform="scale(0.001,-0.001)" />

<path d="M355,0V355H0v72H355V784h72V427H782V355H427V0Z" 
id="f5_f"
transform="scale(0.001,-0.001)" />

<path d="M410,-14c0,0,-80,0,-162,14c0,0,-81,14,-144,38V270h48L178,134c0,0,28,-35,95,-62c0,0,68,-27,134,-27c0,0,104,0,163,53c0,0,58,54,58,148c0,0,0,54,-23,89c0,0,-22,35,-59,59c0,0,-37,24,-84,41c0,0,-47,17,-97,34c0,0,-49,17,-96,38c0,0,-47,21,-84,53c0,0,-37,32,-60,79c0,0,-23,48,-23,117c0,0,0,119,90,187c0,0,89,68,248,68c0,0,121,0,263,-32V771H654L628,893c0,0,-76,55,-188,55c0,0,-100,0,-156,-40c0,0,-56,-41,-56,-112c0,0,0,-49,22,-81c0,0,23,-32,60,-55c0,0,37,-22,84,-39c0,0,48,-16,97,-34c0,0,50,-17,97,-39c0,0,48,-22,85,-56c0,0,36,-34,59,-83c0,0,23,-49,23,-120c0,0,0,-145,-89,-224c0,0,-89,-79,-256,-79Z" 
id="f3_1j"
transform="scale(0.001,-0.001)" />

<path d="M442,0V33l93,19V504c0,0,0,129,-124,129c0,0,-70,0,-168,-22V52L338,33V0H31V33l88,19v956L15,1026v34H243V756c0,0,0,-77,-5,-112c0,0,54,31,122,53c0,0,68,23,115,23c0,0,91,0,137,-53c0,0,47,-53,47,-154V52L744,33V0Z" 
id="f3_24"
transform="scale(0.001,-0.001)" />

<path d="M327,-14L84,649L1,668v33H335V668L219,648L385,174L554,632h63L786,171L944,649L830,668v33h267V668l-78,-16L784,-14H726L553,448L382,-14Z" 
id="f3_2j"
transform="scale(0.001,-0.001)" />

<path d="M311,-14c0,0,-94,0,-169,18C142,4,67,23,18,55L57,277h48l1,-143c0,0,25,-37,84,-63c0,0,59,-26,126,-26c0,0,122,0,188,58c0,0,66,58,66,162c0,0,0,40,-18,70c0,0,-18,30,-48,54c0,0,-30,23,-67,44c0,0,-38,20,-77,40c0,0,-40,21,-78,44c0,0,-37,24,-67,55c0,0,-30,31,-48,71c0,0,-18,40,-18,94c0,0,0,133,90,204c0,0,91,70,259,70c0,0,128,0,241,-28L703,774H654l-4,128c0,0,-23,20,-66,33c0,0,-42,13,-98,13c0,0,-99,0,-153,-48c0,0,-53,-48,-53,-136c0,0,0,-47,33,-85c0,0,34,-39,100,-73c0,0,102,-53,146,-80c0,0,45,-28,75,-59c0,0,31,-31,49,-72c0,0,18,-40,18,-92c0,0,0,-154,-100,-236c0,0,-100,-81,-290,-81Z" 
id="f4_1j"
transform="scale(0.001,-0.001)" />

<path d="M360,-14L72,649L0,668v33H327V668L216,648L420,164L615,649L504,668v33H764V668L697,652L416,-14Z" 
id="f3_2i"
transform="scale(0.001,-0.001)" />

<path d="M31,0V33l88,19V649L31,668v33H235l7,-87c0,0,44,37,121,71c0,0,76,35,121,35h11V530H463l-43,82c0,0,-37,0,-88,-10c0,0,-52,-10,-89,-26V52L363,33V0Z" 
id="f3_2e"
transform="scale(0.001,-0.001)" />

<path d="M31,0V33L150,52v956L31,1026v34H274V52L394,33V0Z" 
id="f3_28"
transform="scale(0.001,-0.001)" />

<path d="M359,-270c0,0,124,0,192,46c0,0,67,47,67,129c0,0,0,43,-26,67c0,0,-26,24,-79,24H242c0,0,-32,-27,-51,-69c0,0,-20,-41,-20,-77c0,0,0,-64,46,-92c0,0,46,-28,142,-28Zm11,561c0,0,81,0,115,47c0,0,34,47,34,141c0,0,0,100,-35,142c0,0,-35,42,-113,42c0,0,-78,0,-114,-43c0,0,-37,-42,-37,-141c0,0,0,-98,36,-143c0,0,36,-45,114,-45ZM359,-329c0,0,-143,0,-218,44c0,0,-75,43,-75,125c0,0,0,39,27,78c0,0,26,38,98,89c0,0,-43,14,-72,48c0,0,-29,35,-29,74L208,262c0,0,-118,55,-118,217c0,0,0,115,73,178c0,0,73,63,211,63c0,0,28,0,71,-6c0,0,44,-6,67,-13l165,83l26,-32L599,644c0,0,50,-56,50,-165c0,0,0,-120,-72,-182c0,0,-73,-62,-208,-62c0,0,-62,0,-114,11L208,148c0,0,2,-13,29,-24c0,0,27,-12,67,-12H512c0,0,113,0,168,-49c0,0,55,-49,55,-134c0,0,0,-79,-44,-137c0,0,-43,-58,-128,-90c0,0,-84,-31,-204,-31Z" 
id="f3_23"
transform="scale(0.001,-0.001)" />

<path d="M54,0V40L172,60V941L44,960v40H794V760H745L721,922c0,0,-83,11,-241,11H316V516H611l23,120h46V328H634L611,449H316V60L483,40V0Z" 
id="f3_16"
transform="scale(0.001,-0.001)" />

<path d="M350,-14c0,0,-142,0,-269,31L73,228h49L156,87c0,0,29,-16,82,-28c0,0,54,-12,100,-12c0,0,117,0,173,54c0,0,56,53,56,178c0,0,0,99,-52,150c0,0,-51,51,-159,56l-107,6v61l107,7c0,0,84,5,124,52c0,0,41,48,41,145c0,0,0,101,-44,147c0,0,-44,45,-139,45c0,0,-40,0,-83,-10c0,0,-43,-11,-76,-29L153,786H104V979c0,0,74,19,127,26c0,0,54,6,107,6c0,0,321,0,321,-246c0,0,0,-104,-57,-165c0,0,-57,-62,-162,-77c0,0,136,-16,200,-78c0,0,64,-62,64,-173c0,0,0,-135,-92,-211c0,0,-93,-75,-262,-75Z" 
id="f3_n"
transform="scale(0.001,-0.001)" />

<path d="M377,45c0,0,100,0,147,52c0,0,47,52,47,174c0,0,0,119,-46,173c0,0,-47,54,-148,54c0,0,-98,0,-141,-51c0,0,-44,-51,-44,-176c0,0,0,-126,44,-176c0,0,44,-50,141,-50Zm2,518c0,0,84,0,123,46c0,0,39,46,39,148c0,0,0,102,-40,151c0,0,-41,48,-122,48c0,0,-79,0,-118,-47c0,0,-38,-47,-38,-152c0,0,0,-104,37,-149c0,0,38,-45,119,-45ZM377,-14c0,0,-319,0,-319,285c0,0,0,99,48,164c0,0,48,66,129,96c0,0,-65,30,-106,87c0,0,-40,56,-40,139c0,0,0,123,75,191c0,0,76,68,219,68c0,0,139,0,216,-67c0,0,76,-68,76,-192c0,0,0,-82,-40,-139c0,0,-40,-57,-108,-87c0,0,85,-31,132,-98c0,0,47,-67,47,-162c0,0,0,-142,-80,-214c0,0,-80,-71,-249,-71Z" 
id="f3_s"
transform="scale(0.001,-0.001)" />

<path d="M178,0L615,886H176L150,764H101v236H720V943L274,0Z" 
id="f3_r"
transform="scale(0.001,-0.001)" />

<path d="M0,356v74H784V356Z" 
id="f5_h"
transform="scale(0.001,-0.001)" />

<path d="M410,-14c0,0,-86,0,-175,14C235,0,145,14,81,38V307h66L181,146c0,0,31,-37,94,-62c0,0,64,-24,132,-24c0,0,214,0,214,177c0,0,0,55,-41,93c0,0,-41,38,-128,68c0,0,-128,42,-185,68c0,0,-56,27,-95,63c0,0,-38,36,-62,87c0,0,-23,51,-23,125c0,0,0,132,90,201c0,0,90,69,263,69c0,0,125,0,278,-32V741H651L618,878c0,0,-76,56,-178,56c0,0,-92,0,-141,-34c0,0,-49,-34,-49,-104c0,0,0,-50,41,-86c0,0,41,-35,128,-63c0,0,171,-56,235,-97c0,0,64,-41,97,-103c0,0,34,-61,34,-143c0,0,0,-318,-375,-318Z" 
id="f2_1j"
transform="scale(0.001,-0.001)" />

<path d="M379,60c0,0,59,0,84,64c0,0,24,65,24,231c0,0,0,164,-24,227c0,0,-24,63,-84,63c0,0,-57,0,-80,-60c0,0,-22,-61,-22,-230c0,0,0,-173,23,-234c0,0,22,-61,79,-61Zm-2,-74c0,0,-161,0,-240,91c0,0,-79,91,-79,277c0,0,0,186,80,276c0,0,81,90,245,90c0,0,167,0,245,-93c0,0,78,-93,78,-273c0,0,0,-188,-81,-278c0,0,-81,-90,-248,-90Z" 
id="f2_2b"
transform="scale(0.001,-0.001)" />

<path d="M30,0V49l76,18V992l-72,18v50H322V67L398,49V0Z" 
id="f2_28"
transform="scale(0.001,-0.001)" />

<path d="M287,-18c0,0,-194,0,-194,206V634L23,652v49H309V217c0,0,0,-63,26,-98c0,0,27,-35,76,-35c0,0,57,0,113,25V634l-64,18v49H740V67L809,49V0H536L526,61L475,35c0,0,-104,-53,-188,-53Z" 
id="f2_2h"
transform="scale(0.001,-0.001)" />

<path d="M327,-14c0,0,-101,0,-156,45c0,0,-55,45,-55,131V624H25v48l108,29l87,159H332V701H480V624H332V176c0,0,0,-49,20,-73c0,0,20,-25,53,-25c0,0,40,0,97,12V26c0,0,-22,-15,-76,-27c0,0,-55,-13,-99,-13Z" 
id="f2_2g"
transform="scale(0.001,-0.001)" />

<path d="M34,0V49l76,18V634L38,652v49H325V67L402,49V0ZM217,831c0,0,-48,0,-81,33c0,0,-34,33,-34,82c0,0,0,48,34,81c0,0,34,33,81,33c0,0,48,0,81,-33c0,0,33,-33,33,-81c0,0,0,-47,-33,-81c0,0,-32,-34,-81,-34Z" 
id="f2_25"
transform="scale(0.001,-0.001)" />

<path d="M41,0V49l69,18V634L41,652v49H313l11,-61l50,26c0,0,105,54,188,54c0,0,194,0,194,-207V67L827,49V0H478V49l63,18V484c0,0,0,63,-27,98c0,0,-26,35,-75,35c0,0,-57,0,-114,-25V67L389,49V0Z" 
id="f2_2a"
transform="scale(0.001,-0.001)" />

<path d="M248,-20c0,0,-52,0,-87,34c0,0,-36,36,-36,88c0,0,0,52,36,88c0,0,35,36,87,36c0,0,52,0,88,-36c0,0,36,-36,36,-88c0,0,0,-51,-36,-87c0,0,-35,-35,-88,-35Zm0,488c0,0,-52,0,-87,36c0,0,-36,36,-36,88c0,0,0,52,35,88c0,0,35,36,88,36c0,0,53,0,89,-36c0,0,35,-37,35,-88c0,0,0,-51,-36,-87c0,0,-35,-37,-88,-37Z" 
id="f2_u"
transform="scale(0.001,-0.001)" />

<path d="M58,-234v58c0,0,131,42,131,125c0,0,0,15,-11,27c0,0,-11,12,-38,25C140,1,89,27,89,75c0,0,0,40,25,61c0,0,26,21,65,21c0,0,48,0,77,-34c0,0,30,-34,30,-86c0,0,0,-101,-60,-170c0,0,-59,-69,-168,-101Z" 
id="f3_g"
transform="scale(0.001,-0.001)" />

<path d="M398,0C398,0,266,0,185,39c0,0,-82,39,-133,124C52,163,0,248,0,342c0,0,0,144,103,243c0,0,103,98,292,98H694V611H387c0,0,-99,0,-166,-32c0,0,-68,-32,-105,-88c0,0,-26,-40,-41,-113H694V304H75c0,0,30,-120,103,-176c0,0,73,-56,210,-56H694V0Z" 
id="f5_40"
transform="scale(0.001,-0.001)" />

<path d="M945,-20c0,0,47,75,125,153H57v74H1147l108,91c0,0,23,19,95,72c0,0,-134,103,-203,166H57v72H1070c0,0,-78,78,-125,154h85c0,0,88,-107,217,-217c0,0,130,-110,206,-154V349c0,0,-101,-58,-219,-162c0,0,-118,-103,-204,-207Z" 
id="f5_4g"
transform="scale(0.001,-0.001)" />

<path d="M377,45c0,0,99,0,145,108c0,0,46,109,46,352c0,0,0,240,-45,345c0,0,-46,106,-146,106c0,0,-97,0,-139,-100c0,0,-43,-99,-43,-351c0,0,0,-254,44,-357c0,0,43,-103,138,-103Zm0,-59c0,0,-158,0,-238,132c0,0,-81,133,-81,386c0,0,0,249,81,380c0,0,80,132,244,132c0,0,159,0,241,-130c0,0,82,-130,82,-382c0,0,0,-518,-329,-518Z" 
id="f3_k"
transform="scale(0.001,-0.001)" />

<path d="M868,0L251,900V60L385,40V0H44V40L172,60V941L44,960v40H347L862,259V941L727,960v40h341V960L940,941V0Z" 
id="f3_1e"
transform="scale(0.001,-0.001)" />

<path d="M130,0L252,216H0v70H292L410,496H0v70H450L572,783h82L532,566H783V496H492L377,286H783V216H335L213,0Z" 
id="f5_3f"
transform="scale(0.001,-0.001)" />

<path d="M83,0C83,0,48,0,24,24C24,24,0,49,0,83c0,0,0,34,24,58c0,0,24,24,59,24c0,0,34,0,58,-24c0,0,24,-24,24,-58c0,0,0,-34,-24,-59C141,24,117,0,83,0ZM695,0c0,0,-34,0,-58,24c0,0,-25,25,-25,59c0,0,0,34,25,58c0,0,24,24,58,24c0,0,34,0,58,-24c0,0,24,-24,24,-58c0,0,0,-34,-24,-59C753,24,729,0,695,0ZM388,594c0,0,-34,0,-59,23c0,0,-24,24,-24,59c0,0,0,34,24,58c0,0,25,25,59,25c0,0,34,0,58,-25c0,0,24,-24,24,-58c0,0,0,-35,-24,-59c0,0,-24,-23,-58,-23Z" 
id="f5_1s"
transform="scale(0.001,-0.001)" />

<path d="M-12,338v55H777V338Z" 
id="f6_4y"
transform="scale(0.001,-0.001)" />

<path d="M57,302V417H454V302Z" 
id="f3_h"
transform="scale(0.001,-0.001)" />

<path d="M431,0V33L535,52V499c0,0,0,62,-32,96c0,0,-32,33,-95,33c0,0,-66,0,-163,-22V52L350,33V0H32V33l89,19V649L32,668v33H237l6,-57c0,0,56,32,119,54c0,0,62,22,110,22c0,0,52,0,95,-20c0,0,44,-19,66,-62c0,0,57,32,134,57c0,0,77,25,128,25c0,0,179,0,179,-207V52l90,-19V0H846V33L950,52V499c0,0,0,129,-119,129c0,0,-19,0,-45,-3c0,0,-26,-3,-52,-7c0,0,-25,-4,-49,-8c0,0,-23,-5,-39,-8c0,0,13,-41,13,-89V52L764,33V0Z" 
id="f3_29"
transform="scale(0.001,-0.001)" />

<path d="M76,316v76H787V316Zm0,306v76H787V622Z" 
id="f3_x"
transform="scale(0.001,-0.001)" />

<path d="M44,0V40L172,60V941L44,960v40H445V960L316,941V549H787V941L659,960v40h400V960L930,941V60L1059,40V0H659V40L787,60V481H316V60L445,40V0Z" 
id="f3_18"
transform="scale(0.001,-0.001)" />

<path d="M410,45c0,0,90,0,130,58c0,0,40,59,40,193c0,0,0,122,-38,177c0,0,-38,54,-122,54c0,0,-102,0,-217,-37c0,0,0,-227,51,-336c0,0,52,-109,156,-109Zm3,-59c0,0,-169,0,-258,131c0,0,-89,131,-89,377c0,0,0,161,47,278c0,0,47,117,131,178c0,0,85,61,196,61c0,0,109,0,217,-26V813H608L582,915c0,0,-25,13,-67,23c0,0,-41,10,-75,10c0,0,-109,0,-170,-105c0,0,-60,-106,-66,-308c0,0,121,63,244,63c0,0,132,0,201,-74c0,0,69,-74,69,-214c0,0,0,-156,-78,-240c0,0,-79,-84,-227,-84Z" 
id="f3_q"
transform="scale(0.001,-0.001)" />

<path d="M-15,-329c0,0,-61,0,-112,13l28,152h34l12,-72c0,0,18,-17,60,-17c0,0,100,0,212,202L253,9L116,649L33,668l6,33H230L338,155L513,458c0,0,48,83,48,144c0,0,0,27,-16,44c0,0,-15,16,-33,22l6,33H659c0,0,20,-17,20,-47c0,0,0,-59,-62,-164L322,-7c0,0,-86,-145,-135,-205c0,0,-50,-61,-98,-89c0,0,-49,-28,-104,-28Z" 
id="f4_2l"
transform="scale(0.001,-0.001)" />

<path d="M122,0V64L295,82V837L123,780v64l282,165H511V82L685,64V0Z" 
id="f2_l"
transform="scale(0.001,-0.001)" />

<path d="M557,-14c0,0,-199,0,-298,89c0,0,-99,90,-99,255V941L32,960v40H432V960L304,941V341c0,0,0,-273,264,-273c0,0,144,0,220,68c0,0,77,68,77,202V941L730,960v40h341V960L943,941V344c0,0,0,-180,-99,-269c0,0,-99,-89,-287,-89Z" 
id="f3_1l"
transform="scale(0.001,-0.001)" />

<path d="M382,45c0,0,188,0,188,314c0,0,0,143,-47,213c0,0,-46,69,-141,69c0,0,-87,0,-146,-24V58c0,0,67,-13,146,-13ZM25,-325v35l88,18V649L34,668v33H231l1,-41c0,0,31,27,84,43c0,0,53,17,107,17c0,0,134,0,208,-94c0,0,73,-93,73,-267c0,0,0,-178,-80,-276c0,0,-80,-97,-232,-97c0,0,-84,0,-160,16c0,0,4,-53,4,-84V-272l123,-18v-35Z" 
id="f3_2c"
transform="scale(0.001,-0.001)" />

<path d="M412,-328c0,0,-195,96,-303,284C109,-44,0,142,0,365c0,0,0,232,114,422c0,0,114,191,298,273v-31c0,0,-92,-51,-151,-139c0,0,-59,-88,-88,-223c0,0,-29,-136,-29,-282c0,0,0,-167,27,-301c0,0,26,-133,82,-221c0,0,55,-89,159,-159v-32Z" 
id="f5_c"
transform="scale(0.001,-0.001)" />

<path d="M34,-328v32c0,0,92,50,151,138c0,0,59,88,88,222c0,0,29,135,29,283c0,0,0,165,-27,300c0,0,-26,134,-82,222c0,0,-56,89,-159,160v31c0,0,194,-96,303,-284c0,0,108,-187,108,-410c0,0,0,-232,-114,-422c0,0,-114,-191,-297,-272Z" 
id="f5_d"
transform="scale(0.001,-0.001)" />

<path d="M305,45c0,0,76,0,141,56c0,0,64,56,101,151c0,0,37,95,37,200c0,0,0,83,-35,129c0,0,-34,46,-92,46c0,0,-44,0,-96,-29c0,0,-51,-29,-97,-75L185,81c0,0,43,-36,120,-36ZM295,-14c0,0,-65,0,-128,16C167,2,104,19,57,48l171,960l-100,18l6,34H358L303,731c0,0,-13,-85,-29,-144c0,0,59,61,122,97c0,0,64,36,116,36c0,0,94,0,150,-67c0,0,56,-67,56,-182c0,0,0,-129,-56,-242C662,229,606,115,509,50c0,0,-98,-64,-214,-64Z" 
id="f4_1y"
transform="scale(0.001,-0.001)" />

<path d="M298,-14c0,0,-120,0,-185,69c0,0,-66,69,-66,191c0,0,0,130,52,237c0,0,52,107,149,172c0,0,97,65,203,65c0,0,53,0,112,-12c0,0,60,-11,99,-27L628,485H587L575,615c0,0,-47,47,-125,47c0,0,-72,0,-134,-53c0,0,-62,-53,-100,-147c0,0,-37,-95,-37,-208c0,0,0,-190,154,-190c0,0,106,0,222,74l22,-32c0,0,-60,-56,-135,-88c0,0,-76,-32,-144,-32Z" 
id="f4_1z"
transform="scale(0.001,-0.001)" />

<path d="M301,78c0,0,85,0,185,104l81,442c0,0,-29,20,-55,28c0,0,-25,8,-62,8c0,0,-75,0,-137,-56c0,0,-62,-56,-98,-152c0,0,-36,-95,-36,-199c0,0,0,-79,33,-127c0,0,33,-48,89,-48ZM245,-14c0,0,-90,0,-145,66c0,0,-54,66,-54,182c0,0,0,131,57,244c0,0,57,114,152,178c0,0,96,64,208,64c0,0,90,0,170,-33l33,26h40L589,52L673,33L667,0H454l22,117C476,117,350,-14,245,-14Z" 
id="f4_1x"
transform="scale(0.001,-0.001)" />

<path d="M595,60c0,0,141,0,206,102c0,0,65,102,65,340c0,0,0,236,-65,335c0,0,-65,100,-206,100c0,0,-142,0,-207,-100c0,0,-66,-99,-66,-335c0,0,0,-239,66,-340c0,0,65,-102,207,-102Zm0,-74c0,0,-253,0,-387,130C208,116,75,246,75,501c0,0,0,510,520,510c0,0,256,0,387,-129c0,0,132,-130,132,-381c0,0,0,-254,-133,-385C981,116,848,-14,595,-14Z" 
id="f2_1f"
transform="scale(0.001,-0.001)" />

<path d="M498,506c0,0,115,0,164,47c0,0,48,48,48,166c0,0,0,112,-46,156c0,0,-46,43,-169,43H390V506ZM793,0L514,423H390V74L518,54V0H36V54L154,74V926L26,945v55H504c0,0,221,0,330,-68c0,0,109,-68,109,-212c0,0,0,-215,-201,-276L1009,74L1117,54V0Z" 
id="f2_1i"
transform="scale(0.001,-0.001)" />

<path d="M148,-329c0,0,-58,0,-114,13v151H69l24,-71c0,0,23,-17,64,-17c0,0,39,0,72,22c0,0,33,23,60,67c0,0,27,44,68,157L90,649L19,668v33H344V668L233,648L423,158L606,649L497,668v33H758V668L685,652L411,-43c0,0,-48,-124,-84,-177c0,0,-36,-54,-79,-82c0,0,-44,-27,-100,-27Z" 
id="f3_2l"
transform="scale(0.001,-0.001)" />

<path d="M13,0V34L95,46L325,350L122,649L40,668v33H357V668L264,648L399,446L554,649l-96,19v33H710V668L630,652L433,397L663,50L745,34V0H427V34l94,17L359,299L169,50L266,34V0Z" 
id="f3_2k"
transform="scale(0.001,-0.001)" />

<path d="M631,416L539,902L283,416ZM576,0l8,40L691,60L643,348H249L96,60L197,40L189,0H-83l8,40L7,60l509,949H659L845,60L938,40L930,0Z" 
id="f4_11"
transform="scale(0.001,-0.001)" />

<path d="M62,-123V268c0,0,0,230,56,452c0,0,47,190,134,334c0,0,87,144,204,242c0,0,85,73,194,119l18,-16c0,0,-211,-145,-335,-339c0,0,-98,-156,-149,-374c0,0,-50,-218,-50,-403V-123Z" 
id="f5_4o"
transform="scale(0.001,-0.001)" />

<path d="M617,-123V283c0,0,0,236,-63,459c0,0,-63,223,-188,392c0,0,-108,146,-282,265l17,16c0,0,180,-76,320,-248c0,0,139,-172,204,-417c0,0,64,-245,64,-482V-123Z" 
id="f5_54"
transform="scale(0.001,-0.001)" />

<path d="M62,-123V1415h72V-123Z" 
id="f5_4p"
transform="scale(0.001,-0.001)" />

<path d="M617,-123V1415h72V-123Z" 
id="f5_55"
transform="scale(0.001,-0.001)" />

<path d="M650,-123c0,0,-180,75,-319,246c0,0,-140,172,-205,418c0,0,-64,245,-64,481v393h72V1007c0,0,0,-236,63,-459c0,0,63,-223,189,-391c0,0,108,-145,282,-265l-18,-15Z" 
id="f5_4q"
transform="scale(0.001,-0.001)" />

<path d="M101,-123l-17,15c0,0,210,144,334,339c0,0,99,156,149,373c0,0,50,218,50,403v408h72V1022c0,0,0,-230,-56,-451c0,0,-48,-191,-134,-335C499,236,412,92,295,-5c0,0,-84,-73,-194,-118Z" 
id="f5_56"
transform="scale(0.001,-0.001)" />

<path d="M719,62L422,783L93,62ZM0,0L469,1034L896,0Z" 
id="f5_14"
transform="scale(0.001,-0.001)" />

<path d="M521,-14c0,0,-205,0,-320,107C201,93,85,200,85,390c0,0,0,185,77,326c0,0,77,142,220,219c0,0,142,76,324,76c0,0,158,0,327,-38L1000,755H951V884c0,0,-46,32,-112,50c0,0,-65,17,-137,17c0,0,-135,0,-242,-72c0,0,-107,-72,-166,-203c0,0,-60,-132,-60,-301c0,0,0,-160,78,-244c0,0,78,-84,222,-84c0,0,85,0,166,25c0,0,82,26,133,65l53,149h49L889,52C889,52,803,20,705,3c0,0,-99,-17,-184,-17Z" 
id="f4_13"
transform="scale(0.001,-0.001)" />


</defs>
</svg>