<?xml version="1.0" encoding="UTF-8" standalone="no"?>
<!DOCTYPE svg PUBLIC "-//W3C//DTD SVG 1.1//EN"
"http://www.w3.org/Graphics/SVG/1.1/DTD/svg11.dtd">
<svg viewBox="0 0 909 1286" version="1.1" xmlns="http://www.w3.org/2000/svg" xmlns:xlink="http://www.w3.org/1999/xlink">
<defs>
<clipPath id="c0_116"><path d="M55.2,155.6V134.2H78.1v21.4Z" /></clipPath>
<clipPath id="c1_116"><path d="M230.8,155.6V125.8H281v29.8Z" /></clipPath>
<clipPath id="c2_116"><path d="M55.2,194.1V177.5H73.5v16.6Z" /></clipPath>
<clipPath id="c3_116"><path d="M170.3,212.5V156h221v56.5Z" /></clipPath>
<clipPath id="c4_116"><path d="M55.2,247.7V213.1h283v34.6Z" /></clipPath>
<clipPath id="c5_116"><path d="M55.2,282.9V248.3H325.3v34.6Z" /></clipPath>
<clipPath id="c6_116"><path d="M55.2,314.4V283.6H256.5v30.8Z" /></clipPath>
<clipPath id="c7_116"><path d="M275.2,423.7V337.8h118v85.9Z" /></clipPath>
<clipPath id="c8_116"><path d="M112.8,473.2V424.4h50.1v48.8Z" /></clipPath>
<clipPath id="c9_116"><path d="M212.9,473.2V424.4H335.5v48.8Z" /></clipPath>
<clipPath id="c10_116"><path d="M55.2,530.4V474H250.3v56.4Z" /></clipPath>
<clipPath id="c11_116"><path d="M55.2,582.1V531.2H217.7v50.9Z" /></clipPath>
<clipPath id="c12_116"><path d="M55.2,631.2V582.5H270.8v48.7Z" /></clipPath>
<clipPath id="c13_116"><path d="M55.2,685.5V631.6H187.6v53.9Z" /></clipPath>
<clipPath id="c14_116"><path d="M55.2,739.8V685.9H334.6v53.9Z" /></clipPath>
<clipPath id="c15_116"><path d="M138.8,814.9V763.2H282.7v51.7Z" /></clipPath>
<clipPath id="c16_116"><path d="M317,814.9V763.2H446.1v51.7Z" /></clipPath>
<clipPath id="c17_116"><path d="M197.8,909.9V861.1H517.4v48.8Z" /></clipPath>
<clipPath id="c18_116"><path d="M59.6,959.4V910.6H387.8v48.8Z" /></clipPath>
<clipPath id="c19_116"><path d="M453.8,959.4V910.6h33.4v48.8Z" /></clipPath>
<clipPath id="c20_116"><path d="M55.2,1069V983.1h169V1069Z" /></clipPath>
<clipPath id="c21_116"><path d="M55.2,1100.6v-30.9H324.7v30.9Z" /></clipPath>
<clipPath id="c22_116"><path d="M82.3,1126.9v-26.1h140v26.1Z" /></clipPath>
<style type="text/css"><![CDATA[
.g0_116{
fill: #D9D9D9;
}
.g1_116{
fill: none;
stroke: #000000;
stroke-width: 0.7638889;
stroke-linecap: butt;
stroke-linejoin: miter;
}
.g2_116{
fill: none;
stroke: #000000;
stroke-width: 0.9068974;
stroke-linecap: butt;
stroke-linejoin: round;
}
.g3_116{
fill: none;
stroke: #000000;
stroke-width: 0.90663034;
stroke-linecap: butt;
stroke-linejoin: round;
}
.g4_116{
fill: none;
stroke: #000000;
stroke-width: 0.41554084;
stroke-linecap: butt;
stroke-linejoin: round;
}
.g5_116{
fill: none;
stroke: #000000;
stroke-width: 0.8834813;
stroke-linecap: butt;
stroke-linejoin: round;
}
.g6_116{
fill: none;
stroke: #000000;
stroke-width: 0.9073265;
stroke-linecap: butt;
stroke-linejoin: round;
}
.g7_116{
fill: none;
stroke: #000000;
stroke-width: 0.9063614;
stroke-linecap: butt;
stroke-linejoin: round;
}
.g8_116{
fill: none;
stroke: #000000;
stroke-width: 0.90151954;
stroke-linecap: butt;
stroke-linejoin: round;
}
.g9_116{
fill: none;
stroke: #000000;
stroke-width: 0.90330756;
stroke-linecap: butt;
stroke-linejoin: round;
}
.g10_116{
fill: none;
stroke: #000000;
stroke-width: 0.9016843;
stroke-linecap: butt;
stroke-linejoin: round;
}
.g11_116{
fill: none;
stroke: #000000;
stroke-width: 0.91005045;
stroke-linecap: butt;
stroke-linejoin: round;
}
.g12_116{
fill: none;
stroke: #000000;
stroke-width: 0.9078992;
stroke-linecap: butt;
stroke-linejoin: round;
}
.g13_116{
fill: none;
stroke: #000000;
stroke-width: 0.91045606;
stroke-linecap: butt;
stroke-linejoin: round;
}
.g14_116{
fill: none;
stroke: #000000;
stroke-width: 0.91196877;
stroke-linecap: butt;
stroke-linejoin: round;
}
.g15_116{
fill: none;
stroke: #000000;
stroke-width: 0.9104062;
stroke-linecap: butt;
stroke-linejoin: round;
}
.g16_116{
fill: none;
stroke: #000000;
stroke-width: 0.90922934;
stroke-linecap: butt;
stroke-linejoin: round;
}
.g17_116{
fill: none;
stroke: #000000;
stroke-width: 0.9121275;
stroke-linecap: butt;
stroke-linejoin: round;
}
.g18_116{
}
]]></style>
</defs>
<image preserveAspectRatio="none" x="747" y="1196" width="96" height="59" xlink:href="img/1.png" />
<image preserveAspectRatio="none" x="336" y="41" width="259" height="51" xlink:href="img/2.png" />
<image preserveAspectRatio="none" x="342" y="50" width="247" height="27" xlink:href="img/3.png" />
<image preserveAspectRatio="none" x="341" y="45" width="239" height="42" xlink:href="img/4.png" />
<g fill="#FFFFFF" >
<use xlink:href="#f0_j" transform="matrix(11.5,0,0,11.5,355.1,70.1)" />
<use xlink:href="#f0_i" transform="matrix(11.5,0,0,11.5,364.3,70.1)" />
<use xlink:href="#f0_2n" transform="matrix(11.5,0,0,11.5,374.1,70.1)" />
<use xlink:href="#f0_t" transform="matrix(11.5,0,0,11.5,382.6,70.1)" />
<use xlink:href="#f0_oj" transform="matrix(11.5,0,0,11.5,391,70.1)" />
<use xlink:href="#f0_3e" transform="matrix(11.5,0,0,11.5,396.5,70.1)" />
<use xlink:href="#f0_1c" transform="matrix(11.5,0,0,11.5,406.1,70.1)" />
<use xlink:href="#f0_1c" transform="matrix(11.5,0,0,11.5,410.8,70.1)" />
<use xlink:href="#f0_oj" transform="matrix(11.5,0,0,11.5,415.6,70.1)" />
<use xlink:href="#f0_rz" transform="matrix(11.5,0,0,11.5,421.1,70.1)" />
<use xlink:href="#f0_rx" transform="matrix(11.5,0,0,11.5,429.9,70.1)" />
<use xlink:href="#f0_ry" transform="matrix(11.5,0,0,11.5,438.7,70.1)" />
<use xlink:href="#f0_s2" transform="matrix(11.5,0,0,11.5,447.5,70.1)" />
<use xlink:href="#f0_t" transform="matrix(11.5,0,0,11.5,460.4,70.1)" />
<use xlink:href="#f0_3e" transform="matrix(11.5,0,0,11.5,468.8,70.1)" />
<use xlink:href="#f0_5" transform="matrix(11.5,0,0,11.5,478.3,70.1)" />
<use xlink:href="#f0_1x" transform="matrix(11.5,0,0,11.5,489,70.1)" />
<use xlink:href="#f0_1c" transform="matrix(11.5,0,0,11.5,504.4,70.1)" />
<use xlink:href="#f0_1y" transform="matrix(11.5,0,0,11.5,509.1,70.1)" />
<use xlink:href="#f0_5" transform="matrix(11.5,0,0,11.5,520.8,70.1)" />
<use xlink:href="#f0_2t" transform="matrix(11.5,0,0,11.5,531.5,70.1)" />
<use xlink:href="#f0_1c" transform="matrix(11.5,0,0,11.5,540.2,70.1)" />
<use xlink:href="#f0_24" transform="matrix(11.5,0,0,11.5,545,70.1)" />
<use xlink:href="#f0_1y" transform="matrix(11.5,0,0,11.5,556.7,70.1)" />
</g>
<image preserveAspectRatio="none" x="554" y="45" width="36" height="42" xlink:href="img/5.png" />
<g fill="#FFFFFF" >
<use xlink:href="#f1_l" transform="matrix(11,0,0,11,770.3,1227.6)" />
<use xlink:href="#f1_k" transform="matrix(11,0,0,11,779.1,1227.6)" />
<use xlink:href="#f1_j" transform="matrix(11,0,0,11,792.3,1227.6)" />
<use xlink:href="#f1_l" transform="matrix(11,0,0,11,802.9,1227.6)" />
<use xlink:href="#f1_m" transform="matrix(11,0,0,11,811.7,1227.6)" />
</g>
<path fill-rule="evenodd" d="M52.8,1193.5H856.9v-.8H52.8v.8Z" class="g0_116" />
<path d="M37.9,99.4L873,98.5" class="g1_116" />
<g clip-path="url(#c0_116)">
<g fill="#000000" >
<use xlink:href="#f2_1s" transform="matrix(12.6,0,0,12.5,55.1,148)" />
</g>
</g>
<g fill="#000000" >
<use xlink:href="#f3_19" transform="matrix(12,0,0,12,81.8,147.8)" />
<use xlink:href="#f3_2a" transform="matrix(12,0,0,12,88,147.8)" />
<use xlink:href="#f3_2g" transform="matrix(12,0,0,12,96.8,147.8)" />
<use xlink:href="#f3_21" transform="matrix(12,0,0,12,102.3,147.8)" />
<use xlink:href="#f3_23" transform="matrix(12,0,0,12,110.4,147.8)" />
<use xlink:href="#f3_2e" transform="matrix(12,0,0,12,119.5,147.8)" />
<use xlink:href="#f3_1x" transform="matrix(12,0,0,12,125.7,147.8)" />
<use xlink:href="#f3_2g" transform="matrix(12,0,0,12,133.4,147.8)" />
<use xlink:href="#f3_25" transform="matrix(12,0,0,12,138.9,147.8)" />
<use xlink:href="#f3_2a" transform="matrix(12,0,0,12,143.7,147.8)" />
<use xlink:href="#f3_23" transform="matrix(12,0,0,12,152.5,147.8)" />
<use xlink:href="#f3_22" transform="matrix(12,0,0,12,166.8,147.8)" />
<use xlink:href="#f3_1x" transform="matrix(12,0,0,12,172.3,147.8)" />
<use xlink:href="#f3_1z" transform="matrix(12,0,0,12,180.3,147.8)" />
<use xlink:href="#f3_2g" transform="matrix(12,0,0,12,188.4,147.8)" />
<use xlink:href="#f3_2b" transform="matrix(12,0,0,12,193.9,147.8)" />
<use xlink:href="#f3_2e" transform="matrix(12,0,0,12,203.4,147.8)" />
<use xlink:href="#f3_25" transform="matrix(12,0,0,12,214,147.8)" />
<use xlink:href="#f3_2f" transform="matrix(12,0,0,12,218.8,147.8)" />
</g>
<g clip-path="url(#c1_116)">
<g fill="#000000" >
<use xlink:href="#f3_2g" transform="matrix(7.3,0,0,7.4,242,139.3)" />
<use xlink:href="#f3_1x" transform="matrix(7.3,0,0,7.4,244.9,139.3)" />
<use xlink:href="#f3_2a" transform="matrix(7.3,0,0,7.4,249.4,139.3)" />
<use xlink:href="#f3_l" transform="matrix(7.3,0,0,7.4,261.1,139.3)" />
<use xlink:href="#f4_21" transform="matrix(12.6,0,0,12.8,233.2,147.9)" />
<use xlink:href="#f4_2l" transform="matrix(12.6,0,0,12.8,268.1,147.9)" />
<use xlink:href="#f2_h" transform="matrix(7.3,0,0,7.4,255.9,139.3)" />
</g>
</g>
<g clip-path="url(#c2_116)">
<g fill="#000000" >
<use xlink:href="#f2_1s" transform="matrix(12.6,0,0,12.4,55.1,191.2)" />
</g>
</g>
<g fill="#000000" >
<use xlink:href="#f3_1j" transform="matrix(12,0,0,12,77,191.1)" />
<use xlink:href="#f3_2b" transform="matrix(12,0,0,12,86.9,191.1)" />
<use xlink:href="#f3_28" transform="matrix(12,0,0,12,96.5,191.1)" />
<use xlink:href="#f3_2h" transform="matrix(12,0,0,12,100.9,191.1)" />
<use xlink:href="#f3_2g" transform="matrix(12,0,0,12,110,191.1)" />
<use xlink:href="#f3_25" transform="matrix(12,0,0,12,115.9,191.1)" />
<use xlink:href="#f3_2b" transform="matrix(12,0,0,12,120.3,191.1)" />
<use xlink:href="#f3_2a" transform="matrix(12,0,0,12,129.8,191.1)" />
<use xlink:href="#f3_25" transform="matrix(12,0,0,12,143.7,191.1)" />
<use xlink:href="#f3_2f" transform="matrix(12,0,0,12,148.5,191.1)" />
<use xlink:href="#f3_u" transform="matrix(12,0,0,12,160.2,191.1)" />
</g>
<path d="M265,186.5H365.5" class="g2_116" />
<g clip-path="url(#c3_116)">
<g fill="#000000" >
<use xlink:href="#f3_2g" transform="matrix(7.3,0,0,7.2,332.9,169.3)" />
<use xlink:href="#f3_1x" transform="matrix(7.3,0,0,7.2,335.9,169.3)" />
<use xlink:href="#f3_2a" transform="matrix(7.3,0,0,7.2,340.6,169.3)" />
<use xlink:href="#f3_l" transform="matrix(7.3,0,0,7.2,352.5,169.3)" />
<use xlink:href="#f3_l" transform="matrix(7.3,0,0,7.2,295.9,171.1)" />
<use xlink:href="#f3_2g" transform="matrix(7.3,0,0,7.2,200.1,182.9)" />
<use xlink:href="#f3_1x" transform="matrix(7.3,0,0,7.2,203.1,182.9)" />
<use xlink:href="#f3_2a" transform="matrix(7.3,0,0,7.2,207.7,182.9)" />
<use xlink:href="#f3_l" transform="matrix(7.3,0,0,7.2,219.6,182.9)" />
<use xlink:href="#f3_m" transform="matrix(7.3,0,0,7.2,328.4,197.4)" />
<use xlink:href="#f3_2g" transform="matrix(12.6,0,0,12.4,266.5,179.5)" />
<use xlink:href="#f3_1x" transform="matrix(12.6,0,0,12.4,271.7,179.5)" />
<use xlink:href="#f3_2a" transform="matrix(12.6,0,0,12.4,279.7,179.5)" />
<use xlink:href="#f3_l" transform="matrix(12.6,0,0,12.4,293.3,205.8)" />
<use xlink:href="#f4_2l" transform="matrix(5.3,0,0,5.2,357.8,172.1)" />
<use xlink:href="#f4_2l" transform="matrix(12.6,0,0,12.4,306.5,179.5)" />
<use xlink:href="#f4_21" transform="matrix(12.6,0,0,12.4,324,179.5)" />
<use xlink:href="#f4_2k" transform="matrix(12.6,0,0,12.4,173.9,191.2)" />
<use xlink:href="#f4_21" transform="matrix(12.6,0,0,12.4,191.1,191.2)" />
<use xlink:href="#f4_2l" transform="matrix(12.6,0,0,12.4,226.7,191.2)" />
<use xlink:href="#f4_20" transform="matrix(12.6,0,0,12.4,370.3,191.2)" />
<use xlink:href="#f4_2l" transform="matrix(12.6,0,0,12.4,379.5,191.2)" />
<use xlink:href="#f4_2l" transform="matrix(12.6,0,0,12.4,319.1,205.8)" />
<use xlink:href="#f2_h" transform="matrix(7.3,0,0,7.2,347.1,169.3)" />
<use xlink:href="#f2_h" transform="matrix(7.3,0,0,7.2,290.2,171.1)" />
<use xlink:href="#f2_h" transform="matrix(7.3,0,0,7.2,214.3,182.9)" />
<use xlink:href="#f2_49" transform="matrix(12.6,0,0,12.4,317.4,179.5)" />
<use xlink:href="#f2_49" transform="matrix(12.6,0,0,12.4,184.5,191.2)" />
<use xlink:href="#f2_x" transform="matrix(12.6,0,0,12.4,239.6,191.2)" />
<use xlink:href="#f2_f" transform="matrix(12.6,0,0,12.4,303.9,205.8)" />
<use xlink:href="#f2_50" transform="matrix(18.9,0,0,18.5,254.3,197.9)" />
</g>
</g>
<g clip-path="url(#c4_116)">
<g fill="#000000" >
<use xlink:href="#f3_2g" transform="matrix(7.4,0,0,7.1,106.6,227.5)" />
<use xlink:href="#f3_1x" transform="matrix(7.4,0,0,7.1,109.6,227.5)" />
<use xlink:href="#f3_2a" transform="matrix(7.4,0,0,7.1,114.2,227.5)" />
<use xlink:href="#f3_l" transform="matrix(7.4,0,0,7.1,126,227.5)" />
<use xlink:href="#f3_l" transform="matrix(7.4,0,0,7.1,291.8,227.5)" />
<use xlink:href="#f3_2g" transform="matrix(12.8,0,0,12.2,262.4,235.7)" />
<use xlink:href="#f3_1x" transform="matrix(12.8,0,0,12.2,267.6,235.7)" />
<use xlink:href="#f3_2a" transform="matrix(12.8,0,0,12.2,275.6,235.7)" />
<use xlink:href="#f4_2g" transform="matrix(7.4,0,0,7.1,188.9,227.5)" />
<use xlink:href="#f4_2k" transform="matrix(12.8,0,0,12.2,80.6,235.7)" />
<use xlink:href="#f4_21" transform="matrix(12.8,0,0,12.2,97.7,235.7)" />
<use xlink:href="#f4_2l" transform="matrix(12.8,0,0,12.2,133.1,235.7)" />
<use xlink:href="#f4_2g" transform="matrix(12.8,0,0,12.2,170.4,235.7)" />
<use xlink:href="#f4_21" transform="matrix(12.8,0,0,12.2,180.4,235.7)" />
<use xlink:href="#f4_20" transform="matrix(12.8,0,0,12.2,193.3,235.7)" />
<use xlink:href="#f4_2g" transform="matrix(12.8,0,0,12.2,202.5,235.7)" />
<use xlink:href="#f4_2j" transform="matrix(12.8,0,0,12.2,213,235.7)" />
<use xlink:href="#f4_24" transform="matrix(12.8,0,0,12.2,225.4,235.7)" />
<use xlink:href="#f4_21" transform="matrix(12.8,0,0,12.2,234.5,235.7)" />
<use xlink:href="#f4_2e" transform="matrix(12.8,0,0,12.2,242.5,235.7)" />
<use xlink:href="#f4_21" transform="matrix(12.8,0,0,12.2,249.7,235.7)" />
<use xlink:href="#f4_2l" transform="matrix(12.8,0,0,12.2,302.1,235.7)" />
<use xlink:href="#f4_2g" transform="matrix(12.8,0,0,12.2,328.7,235.7)" />
<use xlink:href="#f2_h" transform="matrix(7.4,0,0,7.1,120.8,227.5)" />
<use xlink:href="#f2_h" transform="matrix(7.4,0,0,7.1,286.1,227.5)" />
<use xlink:href="#f2_4g" transform="matrix(12.8,0,0,12.2,57.4,235.7)" />
<use xlink:href="#f2_49" transform="matrix(12.8,0,0,12.2,91.1,235.7)" />
<use xlink:href="#f2_x" transform="matrix(12.8,0,0,12.2,146,235.7)" />
<use xlink:href="#f2_x" transform="matrix(12.8,0,0,12.2,315.2,235.7)" />
<use xlink:href="#f2_50" transform="matrix(19.2,0,0,18.3,160.6,242.3)" />
</g>
</g>
<g clip-path="url(#c5_116)">
<g fill="#000000" >
<use xlink:href="#f2_c" transform="matrix(12.7,0,0,19.3,210.8,273.2)" />
<use xlink:href="#f2_d" transform="matrix(12.7,0,0,19.3,290.2,273.2)" />
<use xlink:href="#f3_2g" transform="matrix(7.4,0,0,7.1,177.2,260.9)" />
<use xlink:href="#f3_1x" transform="matrix(7.4,0,0,7.1,180.2,260.9)" />
<use xlink:href="#f3_2a" transform="matrix(7.4,0,0,7.1,184.8,260.9)" />
<use xlink:href="#f3_l" transform="matrix(7.4,0,0,7.1,196.7,260.9)" />
<use xlink:href="#f3_l" transform="matrix(7.4,0,0,7.1,248.1,262.7)" />
<use xlink:href="#f3_2g" transform="matrix(12.8,0,0,12.2,218.6,270.9)" />
<use xlink:href="#f3_1x" transform="matrix(12.8,0,0,12.2,223.8,270.9)" />
<use xlink:href="#f3_2a" transform="matrix(12.8,0,0,12.2,231.8,270.9)" />
<use xlink:href="#f3_l" transform="matrix(12.8,0,0,12.2,281.5,270.9)" />
<use xlink:href="#f4_2l" transform="matrix(5.4,0,0,5.1,202,263.7)" />
<use xlink:href="#f4_2g" transform="matrix(7.4,0,0,7.1,90.1,262.7)" />
<use xlink:href="#f4_2g" transform="matrix(7.4,0,0,7.1,120,262.7)" />
<use xlink:href="#f4_2g" transform="matrix(12.8,0,0,12.2,71.7,270.9)" />
<use xlink:href="#f4_21" transform="matrix(12.8,0,0,12.2,81.7,270.9)" />
<use xlink:href="#f4_21" transform="matrix(12.8,0,0,12.2,111.6,270.9)" />
<use xlink:href="#f4_1z" transform="matrix(12.8,0,0,12.2,141.7,270.9)" />
<use xlink:href="#f4_21" transform="matrix(12.8,0,0,12.2,168.3,270.9)" />
<use xlink:href="#f4_2l" transform="matrix(12.8,0,0,12.2,258.5,270.9)" />
<use xlink:href="#f4_1z" transform="matrix(12.8,0,0,12.2,312.2,270.9)" />
<use xlink:href="#f2_h" transform="matrix(7.4,0,0,7.1,191.4,260.9)" />
<use xlink:href="#f2_h" transform="matrix(7.4,0,0,7.1,242.3,262.7)" />
<use xlink:href="#f2_x" transform="matrix(12.8,0,0,12.2,57.9,270.9)" />
<use xlink:href="#f2_h" transform="matrix(12.8,0,0,12.2,98.7,270.9)" />
<use xlink:href="#f2_f" transform="matrix(12.8,0,0,12.2,128.5,270.9)" />
<use xlink:href="#f2_x" transform="matrix(12.8,0,0,12.2,154.2,270.9)" />
<use xlink:href="#f2_h" transform="matrix(12.8,0,0,12.2,270.3,270.9)" />
<use xlink:href="#f2_f" transform="matrix(12.8,0,0,12.2,299,270.9)" />
</g>
</g>
<g clip-path="url(#c6_116)">
<g fill="#000000" >
<use xlink:href="#f3_l" transform="matrix(5.4,0,0,5,239.7,294.5)" />
<use xlink:href="#f3_l" transform="matrix(7.4,0,0,6.9,136.5,299.2)" />
<use xlink:href="#f3_2g" transform="matrix(7.4,0,0,6.9,221.9,299.2)" />
<use xlink:href="#f3_1x" transform="matrix(7.4,0,0,6.9,224.8,299.2)" />
<use xlink:href="#f3_2a" transform="matrix(7.4,0,0,6.9,229.4,299.2)" />
<use xlink:href="#f3_2g" transform="matrix(12.9,0,0,12,107.2,307.2)" />
<use xlink:href="#f3_1x" transform="matrix(12.9,0,0,12,112.3,307.2)" />
<use xlink:href="#f3_2a" transform="matrix(12.9,0,0,12,120.3,307.2)" />
<use xlink:href="#f3_l" transform="matrix(12.9,0,0,12,169.9,307.2)" />
<use xlink:href="#f4_2l" transform="matrix(7.4,0,0,6.9,246.2,299.2)" />
<use xlink:href="#f4_2b" transform="matrix(12.9,0,0,12,57.7,307.2)" />
<use xlink:href="#f4_2e" transform="matrix(12.9,0,0,12,66.8,307.2)" />
<use xlink:href="#f4_2k" transform="matrix(12.9,0,0,12,79.9,307.2)" />
<use xlink:href="#f4_2l" transform="matrix(12.9,0,0,12,147,307.2)" />
<use xlink:href="#f4_1z" transform="matrix(12.9,0,0,12,193.6,307.2)" />
<use xlink:href="#f4_21" transform="matrix(12.9,0,0,12,205.9,307.2)" />
<use xlink:href="#f2_h" transform="matrix(5.4,0,0,5,235.5,294.5)" />
<use xlink:href="#f2_h" transform="matrix(7.4,0,0,6.9,130.8,299.2)" />
<use xlink:href="#f2_h" transform="matrix(7.4,0,0,6.9,214.7,299.2)" />
<use xlink:href="#f2_x" transform="matrix(12.9,0,0,12,92.6,307.2)" />
<use xlink:href="#f2_h" transform="matrix(12.9,0,0,12,158.8,307.2)" />
<use xlink:href="#f2_f" transform="matrix(12.9,0,0,12,180.5,307.2)" />
</g>
</g>
<g fill="#000000" >
<use xlink:href="#f5_1f" transform="matrix(12,0,0,12,440.9,333)" />
<use xlink:href="#f5_1i" transform="matrix(12,0,0,12,455.2,333)" />
<use xlink:href="#f3_17" transform="matrix(12,0,0,12,55,380.7)" />
<use xlink:href="#f3_25" transform="matrix(12,0,0,12,68.6,380.7)" />
<use xlink:href="#f3_2i" transform="matrix(12,0,0,12,73.4,380.7)" />
<use xlink:href="#f3_21" transform="matrix(12,0,0,12,82.2,380.7)" />
<use xlink:href="#f3_2a" transform="matrix(12,0,0,12,90.6,380.7)" />
<use xlink:href="#f3_20" transform="matrix(12,0,0,12,104.1,380.7)" />
<use xlink:href="#f3_25" transform="matrix(12,0,0,12,113.6,380.7)" />
<use xlink:href="#f3_22" transform="matrix(12,0,0,12,118.4,380.7)" />
<use xlink:href="#f3_22" transform="matrix(12,0,0,12,124.6,380.7)" />
<use xlink:href="#f3_21" transform="matrix(12,0,0,12,130.5,380.7)" />
<use xlink:href="#f3_2e" transform="matrix(12,0,0,12,138.5,380.7)" />
<use xlink:href="#f3_21" transform="matrix(12,0,0,12,144.8,380.7)" />
<use xlink:href="#f3_2a" transform="matrix(12,0,0,12,153.2,380.7)" />
<use xlink:href="#f3_2g" transform="matrix(12,0,0,12,162,380.7)" />
<use xlink:href="#f3_25" transform="matrix(12,0,0,12,167.8,380.7)" />
<use xlink:href="#f3_1x" transform="matrix(12,0,0,12,172.2,380.7)" />
<use xlink:href="#f3_28" transform="matrix(12,0,0,12,180.6,380.7)" />
<use xlink:href="#f3_21" transform="matrix(12,0,0,12,189.8,380.7)" />
<use xlink:href="#f3_2d" transform="matrix(12,0,0,12,197.9,380.7)" />
<use xlink:href="#f3_2h" transform="matrix(12,0,0,12,207,380.7)" />
<use xlink:href="#f3_1x" transform="matrix(12,0,0,12,216.5,380.7)" />
<use xlink:href="#f3_2g" transform="matrix(12,0,0,12,224.6,380.7)" />
<use xlink:href="#f3_25" transform="matrix(12,0,0,12,230.1,380.7)" />
<use xlink:href="#f3_2b" transform="matrix(12,0,0,12,234.5,380.7)" />
<use xlink:href="#f3_2a" transform="matrix(12,0,0,12,244,380.7)" />
<use xlink:href="#f3_25" transform="matrix(12,0,0,12,257.9,380.7)" />
<use xlink:href="#f3_2f" transform="matrix(12,0,0,12,262.7,380.7)" />
</g>
<path d="M278.2,376.9H298" class="g3_116" />
<path d="M364.6,342.1l-23,32.5m30.1,9.4l-23,32.4" class="g4_116" />
<g clip-path="url(#c7_116)">
<g fill="#000000" >
<use xlink:href="#f2_c" transform="matrix(12.3,0,0,28.6,340,412.4)" />
<use xlink:href="#f2_d" transform="matrix(12.3,0,0,28.6,373.7,412.4)" />
</g>
</g>
<path d="M317.4,376.9h70.7" class="g3_116" />
<g clip-path="url(#c7_116)">
<g fill="#000000" >
<use xlink:href="#f3_m" transform="matrix(7.2,0,0,7.1,380.2,387.3)" />
<use xlink:href="#f3_l" transform="matrix(12.5,0,0,12.2,316.5,406.7)" />
<use xlink:href="#f4_2l" transform="matrix(12.5,0,0,12.2,342.1,356.2)" />
<use xlink:href="#f4_20" transform="matrix(12.5,0,0,12.2,279.4,369.9)" />
<use xlink:href="#f4_2l" transform="matrix(12.5,0,0,12.2,288.5,369.9)" />
<use xlink:href="#f4_2k" transform="matrix(12.5,0,0,12.2,354,374.3)" />
<use xlink:href="#f4_20" transform="matrix(12.5,0,0,12.2,279.5,395.8)" />
<use xlink:href="#f4_2k" transform="matrix(12.5,0,0,12.2,288.7,395.8)" />
<use xlink:href="#f4_2l" transform="matrix(12.5,0,0,12.2,349.2,398)" />
<use xlink:href="#f4_2k" transform="matrix(12.5,0,0,12.2,361.1,416.1)" />
<use xlink:href="#f2_x" transform="matrix(12.5,0,0,12.2,302.8,381.5)" />
<use xlink:href="#f2_f" transform="matrix(12.5,0,0,12.2,327.1,406.7)" />
</g>
</g>
<g fill="#000000" >
<use xlink:href="#f3_1g" transform="matrix(12,0,0,12,55,454.8)" />
<use xlink:href="#f3_2h" transform="matrix(12,0,0,12,65.3,454.8)" />
<use xlink:href="#f3_2g" transform="matrix(12,0,0,12,74.5,454.8)" />
<use xlink:href="#f3_2g" transform="matrix(12,0,0,12,79.5,454.8)" />
<use xlink:href="#f3_25" transform="matrix(12,0,0,12,85.1,454.8)" />
<use xlink:href="#f3_2a" transform="matrix(12,0,0,12,89.5,454.8)" />
<use xlink:href="#f3_23" transform="matrix(12,0,0,12,98.3,454.8)" />
</g>
<path d="M115.8,450.3h12.1" class="g5_116" />
<g clip-path="url(#c8_116)">
<g fill="#000000" >
<use xlink:href="#f4_2l" transform="matrix(12.3,0,0,12.4,118.6,443.2)" />
<use xlink:href="#f4_2i" transform="matrix(12.3,0,0,12.4,146.4,455)" />
<use xlink:href="#f4_2k" transform="matrix(12.3,0,0,12.4,118.3,469.5)" />
<use xlink:href="#f2_x" transform="matrix(12.3,0,0,12.4,132.7,455)" />
</g>
</g>
<g fill="#000000" >
<use xlink:href="#f3_2g" transform="matrix(12,0,0,12,166.9,454.8)" />
<use xlink:href="#f3_2b" transform="matrix(12,0,0,12,172,454.8)" />
<use xlink:href="#f3_23" transform="matrix(12,0,0,12,186.3,454.8)" />
<use xlink:href="#f3_21" transform="matrix(12,0,0,12,195.5,454.8)" />
<use xlink:href="#f3_2g" transform="matrix(12,0,0,12,203.2,454.8)" />
</g>
<path d="M252.3,450.3h19.5m19.5,0h39.8" class="g6_116" />
<g clip-path="url(#c9_116)">
<g fill="#000000" >
<use xlink:href="#f3_m" transform="matrix(7.3,0,0,7.1,323.2,461.2)" />
<use xlink:href="#f3_l" transform="matrix(12.7,0,0,12.4,290.4,469.5)" />
<use xlink:href="#f4_20" transform="matrix(12.7,0,0,12.4,253.4,443.2)" />
<use xlink:href="#f4_2i" transform="matrix(12.7,0,0,12.4,262.6,443.2)" />
<use xlink:href="#f4_2i" transform="matrix(12.7,0,0,12.4,306.9,443.2)" />
<use xlink:href="#f4_2i" transform="matrix(12.7,0,0,12.4,215.3,455)" />
<use xlink:href="#f4_2k" transform="matrix(12.7,0,0,12.4,241.1,455)" />
<use xlink:href="#f4_20" transform="matrix(12.7,0,0,12.4,253.4,469.5)" />
<use xlink:href="#f4_2k" transform="matrix(12.7,0,0,12.4,262.6,469.5)" />
<use xlink:href="#f4_2i" transform="matrix(12.7,0,0,12.4,314.1,469.5)" />
<use xlink:href="#f2_f" transform="matrix(12.7,0,0,12.4,226.8,455)" />
<use xlink:href="#f2_x" transform="matrix(12.7,0,0,12.4,276.6,455)" />
<use xlink:href="#f2_f" transform="matrix(12.7,0,0,12.4,301,469.5)" />
</g>
</g>
<path d="M84.5,507.6h19.4m19.5,0h39.8m50.1,-29v26.6m-6.4,2.4h39.7" class="g7_116" />
<g clip-path="url(#c10_116)">
<g fill="#000000" >
<use xlink:href="#f3_n" transform="matrix(7.3,0,0,7.2,234.5,488.2)" />
<use xlink:href="#f3_m" transform="matrix(7.3,0,0,7.2,155.2,518.4)" />
<use xlink:href="#f3_m" transform="matrix(7.3,0,0,7.2,238.7,518.4)" />
<use xlink:href="#f3_l" transform="matrix(12.6,0,0,12.4,122.5,526.7)" />
<use xlink:href="#f3_l" transform="matrix(12.6,0,0,12.4,206,526.7)" />
<use xlink:href="#f4_2i" transform="matrix(12.6,0,0,12.4,225.8,496.6)" />
<use xlink:href="#f4_20" transform="matrix(12.6,0,0,12.4,85.7,500.5)" />
<use xlink:href="#f4_2i" transform="matrix(12.6,0,0,12.4,94.8,500.5)" />
<use xlink:href="#f4_2i" transform="matrix(12.6,0,0,12.4,139.1,500.5)" />
<use xlink:href="#f4_2k" transform="matrix(12.6,0,0,12.4,73.4,512.2)" />
<use xlink:href="#f4_2i" transform="matrix(12.6,0,0,12.4,179.7,512.2)" />
<use xlink:href="#f4_20" transform="matrix(12.6,0,0,12.4,85.7,526.7)" />
<use xlink:href="#f4_2k" transform="matrix(12.6,0,0,12.4,94.8,526.7)" />
<use xlink:href="#f4_2i" transform="matrix(12.6,0,0,12.4,146.2,526.7)" />
<use xlink:href="#f4_2i" transform="matrix(12.6,0,0,12.4,229.7,526.7)" />
<use xlink:href="#f2_h" transform="matrix(12.6,0,0,12.4,215.5,496.6)" />
<use xlink:href="#f2_1s" transform="matrix(12.6,0,0,12.4,55.1,512.2)" />
<use xlink:href="#f2_x" transform="matrix(12.6,0,0,12.4,108.8,512.2)" />
<use xlink:href="#f2_h" transform="matrix(12.6,0,0,12.4,166.8,512.2)" />
<use xlink:href="#f2_x" transform="matrix(12.6,0,0,12.4,192.2,512.2)" />
<use xlink:href="#f2_f" transform="matrix(12.6,0,0,12.4,133.1,526.7)" />
<use xlink:href="#f2_f" transform="matrix(12.6,0,0,12.4,216.6,526.7)" />
</g>
</g>
<path d="M90.9,559.6h39.9m62.8,0h19.6" class="g8_116" />
<g clip-path="url(#c11_116)">
<g fill="#000000" >
<use xlink:href="#f3_m" transform="matrix(7.3,0,0,7,100.8,544.5)" />
<use xlink:href="#f3_n" transform="matrix(7.3,0,0,7,111.8,570.3)" />
<use xlink:href="#f3_l" transform="matrix(12.6,0,0,12.2,122.5,552.7)" />
<use xlink:href="#f4_2i" transform="matrix(12.6,0,0,12.2,91.7,552.7)" />
<use xlink:href="#f4_20" transform="matrix(12.6,0,0,12.2,194.8,552.7)" />
<use xlink:href="#f4_2k" transform="matrix(12.6,0,0,12.2,203.9,552.7)" />
<use xlink:href="#f4_20" transform="matrix(12.6,0,0,12.2,135.7,564.2)" />
<use xlink:href="#f4_2i" transform="matrix(12.6,0,0,12.2,144.9,564.2)" />
<use xlink:href="#f4_2i" transform="matrix(12.6,0,0,12.2,103.1,578.5)" />
<use xlink:href="#f4_2k" transform="matrix(12.6,0,0,12.2,199.8,578.5)" />
<use xlink:href="#f2_f" transform="matrix(12.6,0,0,12.2,111,552.7)" />
<use xlink:href="#f2_4g" transform="matrix(12.6,0,0,12.2,57.4,564.2)" />
<use xlink:href="#f2_x" transform="matrix(12.6,0,0,12.2,157.6,564.2)" />
<use xlink:href="#f2_h" transform="matrix(12.6,0,0,12.2,171.9,564.2)" />
<use xlink:href="#f2_50" transform="matrix(18.8,0,0,18.2,80.1,570.8)" />
<use xlink:href="#f2_50" transform="matrix(18.8,0,0,18.2,182.9,570.8)" />
</g>
</g>
<path d="M107.8,597.3v22.1m11.9,-22.1v22.1m17.9,-11h27.2m61.6,-11.1v22.1m13,-22.1v22.1" class="g9_116" />
<g clip-path="url(#c12_116)">
<g fill="#000000" >
<use xlink:href="#f3_m" transform="matrix(7.3,0,0,7.1,156.9,619.2)" />
<use xlink:href="#f3_l" transform="matrix(12.6,0,0,12.4,146.6,601.3)" />
<use xlink:href="#f3_28" transform="matrix(12.6,0,0,12.4,79.4,613)" />
<use xlink:href="#f3_2b" transform="matrix(12.6,0,0,12.4,84.2,613)" />
<use xlink:href="#f3_23" transform="matrix(12.6,0,0,12.4,93.4,613)" />
<use xlink:href="#f3_28" transform="matrix(12.6,0,0,12.4,197.9,613)" />
<use xlink:href="#f3_2b" transform="matrix(12.6,0,0,12.4,202.8,613)" />
<use xlink:href="#f3_23" transform="matrix(12.6,0,0,12.4,211.9,613)" />
<use xlink:href="#f3_m" transform="matrix(12.6,0,0,12.4,138.7,627.6)" />
<use xlink:href="#f4_2i" transform="matrix(12.6,0,0,12.4,109.8,613)" />
<use xlink:href="#f4_2k" transform="matrix(12.6,0,0,12.4,229.4,613)" />
<use xlink:href="#f4_1z" transform="matrix(12.6,0,0,12.4,258.1,613)" />
<use xlink:href="#f4_2i" transform="matrix(12.6,0,0,12.4,147.9,627.6)" />
<use xlink:href="#f2_4g" transform="matrix(12.6,0,0,12.4,57.4,613)" />
<use xlink:href="#f2_h" transform="matrix(12.6,0,0,12.4,124.1,613)" />
<use xlink:href="#f2_x" transform="matrix(12.6,0,0,12.4,169.6,613)" />
<use xlink:href="#f2_h" transform="matrix(12.6,0,0,12.4,183.9,613)" />
<use xlink:href="#f2_f" transform="matrix(12.6,0,0,12.4,244.9,613)" />
</g>
</g>
<path d="M126.8,660.1h29.4" class="g10_116" />
<g clip-path="url(#c13_116)">
<g fill="#000000" >
<use xlink:href="#f3_m" transform="matrix(7.3,0,0,7,143.1,644.9)" />
<use xlink:href="#f3_m" transform="matrix(7.3,0,0,7,148.3,670.7)" />
<use xlink:href="#f3_28" transform="matrix(12.5,0,0,12.1,72.2,664.6)" />
<use xlink:href="#f3_2b" transform="matrix(12.5,0,0,12.1,77.1,664.6)" />
<use xlink:href="#f3_23" transform="matrix(12.5,0,0,12.1,86.2,664.6)" />
<use xlink:href="#f3_m" transform="matrix(12.5,0,0,12.1,127.9,678.9)" />
<use xlink:href="#f4_2k" transform="matrix(12.5,0,0,12.1,134,653.1)" />
<use xlink:href="#f4_2l" transform="matrix(12.5,0,0,12.1,101.7,664.6)" />
<use xlink:href="#f4_1z" transform="matrix(12.5,0,0,12.1,175.1,664.6)" />
<use xlink:href="#f4_2l" transform="matrix(12.5,0,0,12.1,139,678.9)" />
<use xlink:href="#f2_1s" transform="matrix(12.5,0,0,12.1,55.1,664.6)" />
<use xlink:href="#f2_h" transform="matrix(12.5,0,0,12.1,113.4,664.6)" />
<use xlink:href="#f2_x" transform="matrix(12.5,0,0,12.1,161.1,664.6)" />
</g>
</g>
<path d="M272.4,714.4H302" class="g11_116" />
<g clip-path="url(#c14_116)">
<g fill="#000000" >
<use xlink:href="#f3_m" transform="matrix(7.3,0,0,7,288.7,699.2)" />
<use xlink:href="#f3_m" transform="matrix(7.3,0,0,7,294,725)" />
<use xlink:href="#f3_k" transform="matrix(12.7,0,0,12.1,85.5,718.9)" />
<use xlink:href="#f3_g" transform="matrix(12.7,0,0,12.1,94.4,718.9)" />
<use xlink:href="#f3_l" transform="matrix(12.7,0,0,12.1,130,718.9)" />
<use xlink:href="#f3_k" transform="matrix(12.7,0,0,12.1,190,718.9)" />
<use xlink:href="#f3_28" transform="matrix(12.7,0,0,12.1,217.5,718.9)" />
<use xlink:href="#f3_2b" transform="matrix(12.7,0,0,12.1,222.4,718.9)" />
<use xlink:href="#f3_23" transform="matrix(12.7,0,0,12.1,231.6,718.9)" />
<use xlink:href="#f3_k" transform="matrix(12.7,0,0,12.1,320.9,718.9)" />
<use xlink:href="#f3_m" transform="matrix(12.7,0,0,12.1,273.5,733.2)" />
<use xlink:href="#f4_2k" transform="matrix(12.7,0,0,12.1,279.7,707.4)" />
<use xlink:href="#f4_2k" transform="matrix(12.7,0,0,12.1,58.8,718.9)" />
<use xlink:href="#f4_2l" transform="matrix(12.7,0,0,12.1,104.7,718.9)" />
<use xlink:href="#f4_1z" transform="matrix(12.7,0,0,12.1,163.3,718.9)" />
<use xlink:href="#f4_2l" transform="matrix(12.7,0,0,12.1,247,718.9)" />
<use xlink:href="#f4_2l" transform="matrix(12.7,0,0,12.1,284.7,733.2)" />
<use xlink:href="#f2_x" transform="matrix(12.7,0,0,12.1,71.5,718.9)" />
<use xlink:href="#f2_x" transform="matrix(12.7,0,0,12.1,117.7,718.9)" />
<use xlink:href="#f2_4g" transform="matrix(12.7,0,0,12.1,141.2,718.9)" />
<use xlink:href="#f2_x" transform="matrix(12.7,0,0,12.1,175.9,718.9)" />
<use xlink:href="#f2_1s" transform="matrix(12.7,0,0,12.1,200.3,718.9)" />
<use xlink:href="#f2_h" transform="matrix(12.7,0,0,12.1,258.8,718.9)" />
<use xlink:href="#f2_x" transform="matrix(12.7,0,0,12.1,306.7,718.9)" />
</g>
</g>
<g fill="#000000" >
<use xlink:href="#f5_m" transform="matrix(12,0,0,12,55,796.6)" />
<use xlink:href="#f5_n" transform="matrix(12,0,0,12,64.2,796.6)" />
<use xlink:href="#f5_i" transform="matrix(12,0,0,12,73.4,796.6)" />
<use xlink:href="#f3_19" transform="matrix(12,0,0,12,82.9,796.6)" />
<use xlink:href="#f3_22" transform="matrix(12,0,0,12,89.1,796.6)" />
<use xlink:href="#f3_28" transform="matrix(12,0,0,12,99.8,796.6)" />
<use xlink:href="#f3_25" transform="matrix(12,0,0,12,104.5,796.6)" />
<use xlink:href="#f3_2a" transform="matrix(12,0,0,12,109.3,796.6)" />
<use xlink:href="#f3_21" transform="matrix(12,0,0,12,118.5,796.6)" />
<use xlink:href="#f3_2f" transform="matrix(12,0,0,12,126.5,796.6)" />
</g>
<path d="M141.8,792.2h33.1m19,0h33.6m19.1,0h31.3" class="g12_116" />
<g clip-path="url(#c15_116)">
<g fill="#000000" >
<use xlink:href="#f3_2k" transform="matrix(12.7,0,0,12.3,143.3,784.9)" />
<use xlink:href="#f3_l" transform="matrix(12.7,0,0,12.3,166.5,784.9)" />
<use xlink:href="#f3_2l" transform="matrix(12.7,0,0,12.3,195.6,784.9)" />
<use xlink:href="#f3_f" transform="matrix(12.7,0,0,12.3,207.8,784.9)" />
<use xlink:href="#f3_l" transform="matrix(12.7,0,0,12.3,219.1,784.9)" />
<use xlink:href="#f3_2m" transform="matrix(12.7,0,0,12.3,247.7,784.9)" />
<use xlink:href="#f3_l" transform="matrix(12.7,0,0,12.3,269.5,784.9)" />
<use xlink:href="#f3_x" transform="matrix(12.7,0,0,12.3,179.2,796.8)" />
<use xlink:href="#f3_x" transform="matrix(12.7,0,0,12.3,231.9,796.8)" />
<use xlink:href="#f3_m" transform="matrix(12.7,0,0,12.3,154,811.5)" />
<use xlink:href="#f3_n" transform="matrix(12.7,0,0,12.3,206.4,811.5)" />
<use xlink:href="#f3_o" transform="matrix(12.7,0,0,12.3,257.9,811.5)" />
</g>
</g>
<image preserveAspectRatio="none" x="156" y="771" width="210" height="19" xlink:href="img/6.png" />
<g fill="#000000" >
<use xlink:href="#f3_1x" transform="matrix(12,0,0,12,286.1,796.6)" />
<use xlink:href="#f3_2a" transform="matrix(12,0,0,12,294.2,796.6)" />
<use xlink:href="#f3_20" transform="matrix(12,0,0,12,303,796.6)" />
</g>
<path d="M320,792.1h35.4m19,0h37.9m19,0h10.4" class="g13_116" />
<g clip-path="url(#c16_116)">
<g fill="#000000" >
<use xlink:href="#f3_2k" transform="matrix(12.7,0,0,12.3,321.5,784.9)" />
<use xlink:href="#f3_n" transform="matrix(12.7,0,0,12.3,346.1,784.9)" />
<use xlink:href="#f3_2l" transform="matrix(12.7,0,0,12.3,376,784.9)" />
<use xlink:href="#f3_f" transform="matrix(12.7,0,0,12.3,388.2,784.9)" />
<use xlink:href="#f3_27" transform="matrix(12.7,0,0,12.3,401.5,784.9)" />
<use xlink:href="#f3_2m" transform="matrix(12.7,0,0,12.3,432.3,784.9)" />
<use xlink:href="#f3_x" transform="matrix(12.7,0,0,12.3,359.7,796.8)" />
<use xlink:href="#f3_x" transform="matrix(12.7,0,0,12.3,416.6,796.8)" />
<use xlink:href="#f3_l" transform="matrix(12.7,0,0,12.3,333.1,811.5)" />
<use xlink:href="#f3_m" transform="matrix(12.7,0,0,12.3,389,811.5)" />
<use xlink:href="#f3_l" transform="matrix(12.7,0,0,12.3,431.8,811.5)" />
</g>
</g>
<image preserveAspectRatio="none" x="334" y="771" width="74" height="19" xlink:href="img/7.png" />
<g fill="#000000" >
<use xlink:href="#f3_25" transform="matrix(12,0,0,12,450.8,796.6)" />
<use xlink:href="#f3_2a" transform="matrix(12,0,0,12,455.6,796.6)" />
<use xlink:href="#f3_2g" transform="matrix(12,0,0,12,464.4,796.6)" />
<use xlink:href="#f3_21" transform="matrix(12,0,0,12,469.9,796.6)" />
<use xlink:href="#f3_2e" transform="matrix(12,0,0,12,477.9,796.6)" />
<use xlink:href="#f3_2f" transform="matrix(12,0,0,12,484.1,796.6)" />
<use xlink:href="#f3_21" transform="matrix(12,0,0,12,491.1,796.6)" />
<use xlink:href="#f3_1z" transform="matrix(12,0,0,12,499.2,796.6)" />
<use xlink:href="#f3_2g" transform="matrix(12,0,0,12,507.2,796.6)" />
<use xlink:href="#f3_g" transform="matrix(12,0,0,12,517.5,796.6)" />
<use xlink:href="#f3_2g" transform="matrix(12,0,0,12,526.4,796.6)" />
<use xlink:href="#f3_24" transform="matrix(12,0,0,12,531.8,796.6)" />
<use xlink:href="#f3_21" transform="matrix(12,0,0,12,540.6,796.6)" />
<use xlink:href="#f3_2a" transform="matrix(12,0,0,12,548.7,796.6)" />
<use xlink:href="#f3_22" transform="matrix(12,0,0,12,562.7,796.6)" />
<use xlink:href="#f3_25" transform="matrix(12,0,0,12,568.5,796.6)" />
<use xlink:href="#f3_2a" transform="matrix(12,0,0,12,573.3,796.6)" />
<use xlink:href="#f3_20" transform="matrix(12,0,0,12,582.5,796.6)" />
<use xlink:href="#f3_2g" transform="matrix(12,0,0,12,596.4,796.6)" />
<use xlink:href="#f3_24" transform="matrix(12,0,0,12,601.9,796.6)" />
<use xlink:href="#f3_21" transform="matrix(12,0,0,12,610.7,796.6)" />
<use xlink:href="#f3_2i" transform="matrix(12,0,0,12,623.5,796.6)" />
<use xlink:href="#f3_1x" transform="matrix(12,0,0,12,632.7,796.6)" />
<use xlink:href="#f3_28" transform="matrix(12,0,0,12,641.1,796.6)" />
<use xlink:href="#f3_2h" transform="matrix(12,0,0,12,645.5,796.6)" />
<use xlink:href="#f3_21" transform="matrix(12,0,0,12,655,796.6)" />
<use xlink:href="#f3_2b" transform="matrix(12,0,0,12,667.8,796.6)" />
<use xlink:href="#f3_22" transform="matrix(12,0,0,12,677.3,796.6)" />
<use xlink:href="#f3_1b" transform="matrix(12,0,0,12,687.8,796.6)" />
<use xlink:href="#f3_1x" transform="matrix(12,0,0,12,705.7,796.6)" />
<use xlink:href="#f3_2a" transform="matrix(12,0,0,12,713.8,796.6)" />
<use xlink:href="#f3_20" transform="matrix(12,0,0,12,722.6,796.6)" />
<use xlink:href="#f3_24" transform="matrix(12,0,0,12,736.6,796.6)" />
<use xlink:href="#f3_21" transform="matrix(12,0,0,12,745.4,796.6)" />
<use xlink:href="#f3_2a" transform="matrix(12,0,0,12,753.8,796.6)" />
<use xlink:href="#f3_1z" transform="matrix(12,0,0,12,762.9,796.6)" />
<use xlink:href="#f3_21" transform="matrix(12,0,0,12,771,796.6)" />
<use xlink:href="#f3_22" transform="matrix(12,0,0,12,784.2,796.6)" />
<use xlink:href="#f3_25" transform="matrix(12,0,0,12,790.1,796.6)" />
<use xlink:href="#f3_2a" transform="matrix(12,0,0,12,794.9,796.6)" />
<use xlink:href="#f3_20" transform="matrix(12,0,0,12,804,796.6)" />
<use xlink:href="#f3_2g" transform="matrix(12,0,0,12,818,796.6)" />
<use xlink:href="#f3_24" transform="matrix(12,0,0,12,823.4,796.6)" />
<use xlink:href="#f3_21" transform="matrix(12,0,0,12,832.2,796.6)" />
<use xlink:href="#f3_21" transform="matrix(12,0,0,12,55,834)" />
<use xlink:href="#f3_2d" transform="matrix(12,0,0,12,63.1,834)" />
<use xlink:href="#f3_2h" transform="matrix(12,0,0,12,72.3,834)" />
<use xlink:href="#f3_1x" transform="matrix(12,0,0,12,81.4,834)" />
<use xlink:href="#f3_2g" transform="matrix(12,0,0,12,89.5,834)" />
<use xlink:href="#f3_25" transform="matrix(12,0,0,12,95,834)" />
<use xlink:href="#f3_2b" transform="matrix(12,0,0,12,99.4,834)" />
<use xlink:href="#f3_2a" transform="matrix(12,0,0,12,108.9,834)" />
<use xlink:href="#f3_2b" transform="matrix(12,0,0,12,122.5,834)" />
<use xlink:href="#f3_22" transform="matrix(12,0,0,12,132,834)" />
<use xlink:href="#f3_2g" transform="matrix(12,0,0,12,142.3,834)" />
<use xlink:href="#f3_24" transform="matrix(12,0,0,12,147.8,834)" />
<use xlink:href="#f3_21" transform="matrix(12,0,0,12,156.6,834)" />
<use xlink:href="#f3_2c" transform="matrix(12,0,0,12,169.5,834)" />
<use xlink:href="#f3_28" transform="matrix(12,0,0,12,179,834)" />
<use xlink:href="#f3_1x" transform="matrix(12,0,0,12,183.4,834)" />
<use xlink:href="#f3_2a" transform="matrix(12,0,0,12,191.8,834)" />
<use xlink:href="#f3_21" transform="matrix(12,0,0,12,201,834)" />
<use xlink:href="#f3_1z" transform="matrix(12,0,0,12,213.8,834)" />
<use xlink:href="#f3_2b" transform="matrix(12,0,0,12,221.9,834)" />
<use xlink:href="#f3_2a" transform="matrix(12,0,0,12,231.4,834)" />
<use xlink:href="#f3_2g" transform="matrix(12,0,0,12,240.2,834)" />
<use xlink:href="#f3_1x" transform="matrix(12,0,0,12,245.7,834)" />
<use xlink:href="#f3_25" transform="matrix(12,0,0,12,253.7,834)" />
<use xlink:href="#f3_2a" transform="matrix(12,0,0,12,258.5,834)" />
<use xlink:href="#f3_25" transform="matrix(12,0,0,12,267.7,834)" />
<use xlink:href="#f3_2a" transform="matrix(12,0,0,12,272.4,834)" />
<use xlink:href="#f3_23" transform="matrix(12,0,0,12,281.6,834)" />
<use xlink:href="#f3_2g" transform="matrix(12,0,0,12,295.6,834)" />
<use xlink:href="#f3_24" transform="matrix(12,0,0,12,301.1,834)" />
<use xlink:href="#f3_21" transform="matrix(12,0,0,12,309.9,834)" />
<use xlink:href="#f3_2f" transform="matrix(12,0,0,12,318,834)" />
<use xlink:href="#f3_21" transform="matrix(12,0,0,12,325,834)" />
<use xlink:href="#f3_28" transform="matrix(12,0,0,12,338.2,834)" />
<use xlink:href="#f3_25" transform="matrix(12,0,0,12,343.3,834)" />
<use xlink:href="#f3_2a" transform="matrix(12,0,0,12,348.1,834)" />
<use xlink:href="#f3_21" transform="matrix(12,0,0,12,357.3,834)" />
<use xlink:href="#f3_2f" transform="matrix(12,0,0,12,365.4,834)" />
<use xlink:href="#f3_i" transform="matrix(12,0,0,12,372.3,834)" />
<use xlink:href="#f5_1j" transform="matrix(12,0,0,12,55,856.7)" />
<use xlink:href="#f5_2b" transform="matrix(12,0,0,12,65.3,856.7)" />
<use xlink:href="#f5_28" transform="matrix(12,0,0,12,74.5,856.7)" />
<use xlink:href="#f5_2h" transform="matrix(12,0,0,12,79.2,856.7)" />
<use xlink:href="#f5_2g" transform="matrix(12,0,0,12,89.5,856.7)" />
<use xlink:href="#f5_25" transform="matrix(12,0,0,12,95.7,856.7)" />
<use xlink:href="#f5_2b" transform="matrix(12,0,0,12,100.8,856.7)" />
<use xlink:href="#f5_2a" transform="matrix(12,0,0,12,109.9,856.7)" />
<use xlink:href="#f5_u" transform="matrix(12,0,0,12,120.2,856.7)" />
<use xlink:href="#f3_i" transform="matrix(12,0,0,12,55,891.6)" />
<use xlink:href="#f3_11" transform="matrix(12,0,0,12,64.5,891.6)" />
<use xlink:href="#f3_2a" transform="matrix(12,0,0,12,77.4,891.6)" />
<use xlink:href="#f3_2l" transform="matrix(12,0,0,12,86.5,891.6)" />
<use xlink:href="#f3_2c" transform="matrix(12,0,0,12,100.1,891.6)" />
<use xlink:href="#f3_2b" transform="matrix(12,0,0,12,109.2,891.6)" />
<use xlink:href="#f3_25" transform="matrix(12,0,0,12,118.8,891.6)" />
<use xlink:href="#f3_2a" transform="matrix(12,0,0,12,123.5,891.6)" />
<use xlink:href="#f3_2g" transform="matrix(12,0,0,12,132.3,891.6)" />
<use xlink:href="#f3_2b" transform="matrix(12,0,0,12,142.6,891.6)" />
<use xlink:href="#f3_2a" transform="matrix(12,0,0,12,152.1,891.6)" />
<use xlink:href="#f3_28" transform="matrix(12,0,0,12,165.6,891.6)" />
<use xlink:href="#f3_25" transform="matrix(12,0,0,12,170.4,891.6)" />
<use xlink:href="#f3_2a" transform="matrix(12,0,0,12,175.2,891.6)" />
<use xlink:href="#f3_21" transform="matrix(12,0,0,12,184.3,891.6)" />
</g>
<path d="M200.8,887h33m19.4,0h34.4m19.4,0h32.4" class="g14_116" />
<g clip-path="url(#c17_116)">
<g fill="#000000" >
<use xlink:href="#f2_c" transform="matrix(12.5,0,0,16.2,360,893)" />
<use xlink:href="#f2_d" transform="matrix(12.5,0,0,16.2,508.3,893)" />
<use xlink:href="#f3_l" transform="matrix(12.7,0,0,12.4,225.5,880)" />
<use xlink:href="#f3_l" transform="matrix(12.7,0,0,12.4,279.3,880)" />
<use xlink:href="#f3_l" transform="matrix(12.7,0,0,12.4,331.1,880)" />
<use xlink:href="#f3_m" transform="matrix(12.7,0,0,12.4,367.6,891.7)" />
<use xlink:href="#f3_l" transform="matrix(12.7,0,0,12.4,402.5,891.7)" />
<use xlink:href="#f3_g" transform="matrix(12.7,0,0,12.4,410,891.7)" />
<use xlink:href="#f3_n" transform="matrix(12.7,0,0,12.4,416.3,891.7)" />
<use xlink:href="#f3_l" transform="matrix(12.7,0,0,12.4,450.3,891.7)" />
<use xlink:href="#f3_g" transform="matrix(12.7,0,0,12.4,457.8,891.7)" />
<use xlink:href="#f3_o" transform="matrix(12.7,0,0,12.4,464.6,891.7)" />
<use xlink:href="#f3_l" transform="matrix(12.7,0,0,12.4,499.5,891.7)" />
<use xlink:href="#f3_m" transform="matrix(12.7,0,0,12.4,213,906.2)" />
<use xlink:href="#f3_n" transform="matrix(12.7,0,0,12.4,266.1,906.2)" />
<use xlink:href="#f3_o" transform="matrix(12.7,0,0,12.4,318.9,906.2)" />
<use xlink:href="#f4_2k" transform="matrix(12.7,0,0,12.4,202.9,880)" />
<use xlink:href="#f4_2l" transform="matrix(12.7,0,0,12.4,256.1,880)" />
<use xlink:href="#f4_2m" transform="matrix(12.7,0,0,12.4,309,880)" />
<use xlink:href="#f4_25" transform="matrix(12.7,0,0,12.4,343.7,891.7)" />
<use xlink:href="#f4_2f" transform="matrix(12.7,0,0,12.4,348.9,891.7)" />
<use xlink:href="#f2_28" transform="matrix(12.7,0,-4.2,12.4,376.8,891.7)" />
<use xlink:href="#f2_28" transform="matrix(12.7,0,-4.2,12.4,424.9,891.7)" />
<use xlink:href="#f2_28" transform="matrix(12.7,0,-4.2,12.4,473.8,891.7)" />
<use xlink:href="#f2_h" transform="matrix(12.7,0,0,12.4,214.3,880)" />
<use xlink:href="#f2_f" transform="matrix(12.7,0,0,12.4,267.8,880)" />
<use xlink:href="#f2_h" transform="matrix(12.7,0,0,12.4,319.9,880)" />
<use xlink:href="#f2_x" transform="matrix(12.7,0,0,12.4,238.7,891.7)" />
<use xlink:href="#f2_x" transform="matrix(12.7,0,0,12.4,292.4,891.7)" />
<use xlink:href="#f2_f" transform="matrix(12.7,0,0,12.4,391,891.7)" />
<use xlink:href="#f2_h" transform="matrix(12.7,0,0,12.4,439.1,891.7)" />
<use xlink:href="#f2_f" transform="matrix(12.7,0,0,12.4,488.1,891.7)" />
</g>
</g>
<path d="M77.3,936.5h68.3m19.5,0h68.7m19.5,0h44.3m69,0h10.9" class="g15_116" />
<g clip-path="url(#c18_116)">
<g fill="#000000" >
<use xlink:href="#f3_m" transform="matrix(12.7,0,0,12.4,78.4,929.5)" />
<use xlink:href="#f3_l" transform="matrix(12.7,0,0,12.4,113.3,929.5)" />
<use xlink:href="#f3_n" transform="matrix(12.7,0,0,12.4,136.4,929.5)" />
<use xlink:href="#f3_n" transform="matrix(12.7,0,0,12.4,165.6,929.5)" />
<use xlink:href="#f3_l" transform="matrix(12.7,0,0,12.4,199.6,929.5)" />
<use xlink:href="#f3_o" transform="matrix(12.7,0,0,12.4,254.3,929.5)" />
<use xlink:href="#f3_l" transform="matrix(12.7,0,0,12.4,289.1,929.5)" />
<use xlink:href="#f3_n" transform="matrix(12.7,0,0,12.4,367.5,929.5)" />
<use xlink:href="#f3_g" transform="matrix(12.7,0,0,12.4,380,941.2)" />
<use xlink:href="#f3_l" transform="matrix(12.7,0,0,12.4,106.9,955.7)" />
<use xlink:href="#f3_m" transform="matrix(12.7,0,0,12.4,195.1,955.7)" />
<use xlink:href="#f3_l" transform="matrix(12.7,0,0,12.4,270.8,955.7)" />
<use xlink:href="#f3_m" transform="matrix(12.7,0,0,12.4,367.6,955.7)" />
<use xlink:href="#f4_27" transform="matrix(12.7,0,0,12.4,223.5,929.5)" />
<use xlink:href="#f2_28" transform="matrix(12.7,0,-4.2,12.4,87.6,929.5)" />
<use xlink:href="#f2_28" transform="matrix(12.7,0,-4.2,12.4,174.3,929.5)" />
<use xlink:href="#f2_28" transform="matrix(12.7,0,-4.2,12.4,263.6,929.5)" />
<use xlink:href="#f2_28" transform="matrix(12.7,0,-4.2,12.4,323.9,941.2)" />
<use xlink:href="#f2_f" transform="matrix(12.7,0,0,12.4,101.9,929.5)" />
<use xlink:href="#f2_h" transform="matrix(12.7,0,0,12.4,123.9,929.5)" />
<use xlink:href="#f2_h" transform="matrix(12.7,0,0,12.4,188.6,929.5)" />
<use xlink:href="#f2_h" transform="matrix(12.7,0,0,12.4,210.3,929.5)" />
<use xlink:href="#f2_f" transform="matrix(12.7,0,0,12.4,277.8,929.5)" />
<use xlink:href="#f2_1s" transform="matrix(12.7,0,0,12.4,59.5,941.2)" />
<use xlink:href="#f2_x" transform="matrix(12.7,0,0,12.4,150.5,941.2)" />
<use xlink:href="#f2_x" transform="matrix(12.7,0,0,12.4,238.6,941.2)" />
<use xlink:href="#f2_4g" transform="matrix(12.7,0,0,12.4,301.9,941.2)" />
<use xlink:href="#f2_x" transform="matrix(12.7,0,0,12.4,339.3,941.2)" />
<use xlink:href="#f2_h" transform="matrix(12.7,0,0,12.4,353.6,941.2)" />
</g>
</g>
<g fill="#000000" >
<use xlink:href="#f3_24" transform="matrix(12,0,0,12,392.5,941.1)" />
<use xlink:href="#f3_21" transform="matrix(12,0,0,12,401.3,941.1)" />
<use xlink:href="#f3_2a" transform="matrix(12,0,0,12,409.7,941.1)" />
<use xlink:href="#f3_1z" transform="matrix(12,0,0,12,418.5,941.1)" />
<use xlink:href="#f3_21" transform="matrix(12,0,0,12,426.9,941.1)" />
<use xlink:href="#f3_27" transform="matrix(12,0,0,12,439.7,941.1)" />
</g>
<path d="M471,936.6h10.8" class="g16_116" />
<g clip-path="url(#c19_116)">
<g fill="#000000" >
<use xlink:href="#f3_t" transform="matrix(12.7,0,0,12.4,471.9,929.5)" />
<use xlink:href="#f3_m" transform="matrix(12.7,0,0,12.4,472.2,955.8)" />
<use xlink:href="#f2_x" transform="matrix(12.7,0,0,12.4,456.5,941.2)" />
</g>
</g>
<g fill="#000000" >
<use xlink:href="#f3_15" transform="matrix(12,0,0,12,55,978.5)" />
<use xlink:href="#f3_2d" transform="matrix(12,0,0,12,66.4,978.5)" />
<use xlink:href="#f3_2a" transform="matrix(12,0,0,12,75.6,978.5)" />
<use xlink:href="#f3_i" transform="matrix(12,0,0,12,84.4,978.5)" />
<use xlink:href="#f3_2b" transform="matrix(12,0,0,12,93.8,978.5)" />
<use xlink:href="#f3_22" transform="matrix(12,0,0,12,103.4,978.5)" />
<use xlink:href="#f3_2c" transform="matrix(12,0,0,12,113.6,978.5)" />
<use xlink:href="#f3_28" transform="matrix(12,0,0,12,123.1,978.5)" />
<use xlink:href="#f3_1x" transform="matrix(12,0,0,12,127.5,978.5)" />
<use xlink:href="#f3_2a" transform="matrix(12,0,0,12,135.9,978.5)" />
<use xlink:href="#f3_21" transform="matrix(12,0,0,12,144.7,978.5)" />
<use xlink:href="#f3_1z" transform="matrix(12,0,0,12,157.6,978.5)" />
<use xlink:href="#f3_2b" transform="matrix(12,0,0,12,165.6,978.5)" />
<use xlink:href="#f3_2a" transform="matrix(12,0,0,12,175.1,978.5)" />
<use xlink:href="#f3_2g" transform="matrix(12,0,0,12,183.9,978.5)" />
<use xlink:href="#f3_1x" transform="matrix(12,0,0,12,189.4,978.5)" />
<use xlink:href="#f3_25" transform="matrix(12,0,0,12,197.8,978.5)" />
<use xlink:href="#f3_2a" transform="matrix(12,0,0,12,202.6,978.5)" />
<use xlink:href="#f3_25" transform="matrix(12,0,0,12,211.8,978.5)" />
<use xlink:href="#f3_2a" transform="matrix(12,0,0,12,216.5,978.5)" />
<use xlink:href="#f3_23" transform="matrix(12,0,0,12,225.3,978.5)" />
<use xlink:href="#f3_2g" transform="matrix(12,0,0,12,239.2,978.5)" />
<use xlink:href="#f3_24" transform="matrix(12,0,0,12,244.7,978.5)" />
<use xlink:href="#f3_2e" transform="matrix(12,0,0,12,253.5,978.5)" />
<use xlink:href="#f3_21" transform="matrix(12,0,0,12,259.7,978.5)" />
<use xlink:href="#f3_21" transform="matrix(12,0,0,12,267.8,978.5)" />
<use xlink:href="#f3_28" transform="matrix(12,0,0,12,281,978.5)" />
<use xlink:href="#f3_25" transform="matrix(12,0,0,12,285.8,978.5)" />
<use xlink:href="#f3_2a" transform="matrix(12,0,0,12,290.5,978.5)" />
<use xlink:href="#f3_21" transform="matrix(12,0,0,12,299.7,978.5)" />
<use xlink:href="#f3_2f" transform="matrix(12,0,0,12,308.1,978.5)" />
<use xlink:href="#f3_25" transform="matrix(12,0,0,12,320.2,978.5)" />
<use xlink:href="#f3_2f" transform="matrix(12,0,0,12,325,978.5)" />
</g>
<path d="M58.6,988.3v77m132.2,-77v77" class="g17_116" />
<g clip-path="url(#c20_116)">
<g fill="#000000" >
<use xlink:href="#f3_l" transform="matrix(12.6,0,0,12.2,84.3,1003.8)" />
<use xlink:href="#f3_l" transform="matrix(12.6,0,0,12.2,134,1003.8)" />
<use xlink:href="#f3_l" transform="matrix(12.6,0,0,12.2,181.7,1003.8)" />
<use xlink:href="#f3_m" transform="matrix(12.6,0,0,12.2,71.9,1031.4)" />
<use xlink:href="#f3_n" transform="matrix(12.6,0,0,12.2,120.9,1031.4)" />
<use xlink:href="#f3_o" transform="matrix(12.6,0,0,12.2,169.6,1031.4)" />
<use xlink:href="#f3_k" transform="matrix(12.6,0,0,12.2,210.4,1031.4)" />
<use xlink:href="#f3_l" transform="matrix(12.6,0,0,12.2,71.6,1059)" />
<use xlink:href="#f3_m" transform="matrix(12.6,0,0,12.2,120.9,1059)" />
<use xlink:href="#f3_l" transform="matrix(12.6,0,0,12.2,169.3,1059)" />
<use xlink:href="#f4_2k" transform="matrix(12.6,0,0,12.2,61.8,1003.8)" />
<use xlink:href="#f4_2l" transform="matrix(12.6,0,0,12.2,110.9,1003.8)" />
<use xlink:href="#f4_2m" transform="matrix(12.6,0,0,12.2,159.7,1003.8)" />
<use xlink:href="#f2_h" transform="matrix(12.6,0,0,12.2,73.2,1003.8)" />
<use xlink:href="#f2_f" transform="matrix(12.6,0,0,12.2,122.6,1003.8)" />
<use xlink:href="#f2_h" transform="matrix(12.6,0,0,12.2,170.6,1003.8)" />
<use xlink:href="#f2_x" transform="matrix(12.6,0,0,12.2,196.4,1031.4)" />
</g>
</g>
<g clip-path="url(#c21_116)">
<g fill="#000000" >
<use xlink:href="#f2_c" transform="matrix(12.8,0,0,15.7,103.1,1091.6)" />
<use xlink:href="#f2_d" transform="matrix(12.8,0,0,15.7,142.9,1091.6)" />
<use xlink:href="#f2_c" transform="matrix(12.8,0,0,15.7,176.3,1091.6)" />
<use xlink:href="#f2_d" transform="matrix(12.8,0,0,15.7,217.6,1091.6)" />
<use xlink:href="#f2_c" transform="matrix(12.8,0,0,15.7,247.5,1091.6)" />
<use xlink:href="#f2_d" transform="matrix(12.8,0,0,15.7,286.9,1091.6)" />
<use xlink:href="#f3_p" transform="matrix(13,0,0,12,92.4,1090.3)" />
<use xlink:href="#f3_l" transform="matrix(13,0,0,12,134.2,1090.3)" />
<use xlink:href="#f3_m" transform="matrix(13,0,0,12,165.4,1090.3)" />
<use xlink:href="#f3_l" transform="matrix(13,0,0,12,208.9,1090.3)" />
<use xlink:href="#f3_l" transform="matrix(13,0,0,12,238,1090.3)" />
<use xlink:href="#f3_l" transform="matrix(13,0,0,12,278,1090.3)" />
<use xlink:href="#f3_k" transform="matrix(13,0,0,12,310.9,1090.3)" />
<use xlink:href="#f4_2k" transform="matrix(13,0,0,12,111.6,1090.3)" />
<use xlink:href="#f4_2l" transform="matrix(13,0,0,12,185.7,1090.3)" />
<use xlink:href="#f4_2m" transform="matrix(13,0,0,12,256,1090.3)" />
<use xlink:href="#f2_4g" transform="matrix(13,0,0,12,57.4,1090.3)" />
<use xlink:href="#f2_h" transform="matrix(13,0,0,12,79.8,1090.3)" />
<use xlink:href="#f2_h" transform="matrix(13,0,0,12,123,1090.3)" />
<use xlink:href="#f2_f" transform="matrix(13,0,0,12,151.9,1090.3)" />
<use xlink:href="#f2_f" transform="matrix(13,0,0,12,197.4,1090.3)" />
<use xlink:href="#f2_f" transform="matrix(13,0,0,12,226.5,1090.3)" />
<use xlink:href="#f2_h" transform="matrix(13,0,0,12,266.9,1090.3)" />
<use xlink:href="#f2_x" transform="matrix(13,0,0,12,296.9,1090.3)" />
</g>
</g>
<g fill="#000000" >
<use xlink:href="#f3_25" transform="matrix(12,0,0,12,55,1119.4)" />
<use xlink:href="#f3_i" transform="matrix(12,0,0,12,59.4,1119.4)" />
<use xlink:href="#f3_21" transform="matrix(12,0,0,12,64.6,1119.4)" />
<use xlink:href="#f3_i" transform="matrix(12,0,0,12,72.6,1119.4)" />
</g>
<g clip-path="url(#c22_116)">
<g fill="#000000" >
<use xlink:href="#f3_p" transform="matrix(13.1,0,0,12.5,84.5,1119.3)" />
<use xlink:href="#f3_m" transform="matrix(13.1,0,0,12.5,119.5,1119.3)" />
<use xlink:href="#f3_q" transform="matrix(13.1,0,0,12.5,180.8,1119.3)" />
<use xlink:href="#f3_k" transform="matrix(13.1,0,0,12.5,208.2,1119.3)" />
<use xlink:href="#f4_2k" transform="matrix(13.1,0,0,12.5,94.6,1119.3)" />
<use xlink:href="#f4_2l" transform="matrix(13.1,0,0,12.5,130.8,1119.3)" />
<use xlink:href="#f4_2m" transform="matrix(13.1,0,0,12.5,156.8,1119.3)" />
<use xlink:href="#f2_h" transform="matrix(13.1,0,0,12.5,106.2,1119.3)" />
<use xlink:href="#f2_h" transform="matrix(13.1,0,0,12.5,142.6,1119.3)" />
<use xlink:href="#f2_h" transform="matrix(13.1,0,0,12.5,167.8,1119.3)" />
<use xlink:href="#f2_x" transform="matrix(13.1,0,0,12.5,194,1119.3)" />
</g>
</g>
<path fill-rule="evenodd" d="M37.4,38.1h.7v-.7h-.7v.7Z" class="g18_116" />
<path fill-rule="evenodd" d="M37.4,38.1h.7v-.7h-.7v.7Z" class="g18_116" />
<path fill-rule="evenodd" d="M38.1,38.1H871.5v-.7H38.1v.7Z" class="g18_116" />
<path fill-rule="evenodd" d="M871.5,38.1h.8v-.7h-.8v.7Z" class="g18_116" />
<path fill-rule="evenodd" d="M871.5,38.1h.8v-.7h-.8v.7Z" class="g18_116" />
<path fill-rule="evenodd" d="M37.4,1248.5h.7V38.1h-.7V1248.5Z" class="g18_116" />
<path fill-rule="evenodd" d="M872.3,1248.5h.7V38.1h-.7V1248.5Z" class="g18_116" />
<path fill-rule="evenodd" d="M871.5,1248.5h.8V38.1h-.8V1248.5Z" class="g18_116" />
<path fill-rule="evenodd" d="M37.4,1249.2h.7v-.7h-.7v.7Z" class="g18_116" />
<path fill-rule="evenodd" d="M37.4,1249.2h.7v-.7h-.7v.7Z" class="g18_116" />
<path fill-rule="evenodd" d="M38.1,1249.9H871.5v-.7H38.1v.7Z" class="g18_116" />
<path fill-rule="evenodd" d="M38.1,1249.2H871.5v-.7H38.1v.7Z" class="g18_116" />
<path fill-rule="evenodd" d="M872.3,1249.9h.7v-1.4h-.7v1.4Z" class="g18_116" />
<path fill-rule="evenodd" d="M871.5,1249.9H873v-.7h-1.5v.7Z" class="g18_116" />
<path fill-rule="evenodd" d="M871.5,1249.2h.8v-.7h-.8v.7Z" class="g18_116" />
<path fill-rule="evenodd" d="M871.5,1249.2h.8v-.7h-.8v.7Z" class="g18_116" />
<defs>
<path d="M489,-15c0,0,-99,0,-179,30c0,0,-80,30,-136,91c0,0,-56,61,-85,152c0,0,-30,91,-30,212c0,0,0,123,32,218c0,0,33,96,92,161c0,0,59,65,142,98c0,0,82,34,181,34c0,0,40,0,78,-7c0,0,37,-7,69,-18c0,0,31,-11,57,-25c0,0,25,-14,35,-24c0,0,10,-10,14,-17c0,0,4,-7,6,-17c0,0,2,-11,3,-25c0,0,2,-14,2,-35c0,0,0,-22,-2,-38c0,0,-1,-15,-5,-25c0,0,-4,-10,-9,-14c0,0,-5,-5,-12,-5c0,0,-11,0,-28,13c0,0,-18,13,-45,29c0,0,-27,16,-65,29c0,0,-37,13,-89,13c0,0,-58,0,-103,-23c0,0,-45,-23,-77,-67c0,0,-31,-44,-48,-106c0,0,-16,-61,-16,-139c0,0,0,-85,17,-147c0,0,18,-62,50,-103c0,0,33,-40,79,-60c0,0,45,-19,103,-19c0,0,52,0,90,12c0,0,38,12,65,27c0,0,27,15,45,27c0,0,17,12,27,12c0,0,8,0,12,-3c0,0,4,-3,7,-12c0,0,3,-9,5,-25c0,0,1,-16,1,-43c0,0,0,-18,-1,-31c0,0,-1,-14,-3,-23c0,0,-2,-9,-6,-16c0,0,-4,-7,-12,-15c0,0,-8,-9,-32,-22c0,0,-23,-14,-57,-26C661,13,627,1,583,-6c0,0,-43,-9,-94,-9Z" 
id="f0_j"
transform="scale(0.001,-0.001)" />

<path d="M440,150c0,0,41,0,68,8c0,0,28,9,49,26c0,0,20,16,32,41c0,0,11,25,11,58c0,0,0,33,-11,60c0,0,-11,26,-33,44c0,0,-21,18,-55,28c0,0,-33,9,-87,9H298V150ZM407,567c0,0,42,0,68,10c0,0,25,10,42,28c0,0,16,17,24,41c0,0,9,24,9,50c0,0,0,29,-9,52c0,0,-9,23,-27,39c0,0,-18,15,-45,23c0,0,-27,8,-72,8H298V567ZM164,0c0,0,-25,0,-42,15c0,0,-16,14,-16,47V903c0,0,0,33,16,48c0,0,17,14,42,14H406c0,0,88,0,150,-15c0,0,61,-15,103,-45c0,0,42,-30,65,-77c0,0,22,-46,22,-108c0,0,0,-36,-9,-67c0,0,-9,-31,-26,-56c0,0,-17,-25,-42,-45c0,0,-25,-19,-57,-31c0,0,41,-7,76,-26c0,0,34,-19,60,-48c0,0,26,-30,41,-69c0,0,15,-40,15,-89c0,0,0,-51,-14,-93c0,0,-15,-42,-40,-74c0,0,-25,-32,-59,-55c0,0,-35,-23,-77,-38C614,29,573,14,525,7C525,7,478,0,420,0Z" 
id="f0_i"
transform="scale(0.001,-0.001)" />

<path d="M320,-17c0,0,-50,0,-93,9c0,0,-43,8,-76,19c0,0,-32,11,-54,24C97,35,75,48,65,58c0,0,-10,9,-14,28c0,0,-4,18,-4,52c0,0,0,23,1,39c0,0,2,15,5,25c0,0,4,10,9,14c0,0,6,4,13,4c0,0,11,0,30,-12c0,0,19,-13,49,-28c0,0,30,-15,71,-27c0,0,42,-12,96,-12c0,0,36,0,64,8c0,0,29,9,49,25c0,0,19,15,30,38c0,0,10,23,10,52c0,0,0,33,-18,56c0,0,-18,24,-46,42c0,0,-29,18,-66,34c0,0,-36,16,-75,34c0,0,-39,18,-76,41c0,0,-36,23,-65,54c0,0,-29,32,-47,75c0,0,-17,44,-17,104c0,0,0,70,25,122c0,0,26,53,70,88c0,0,43,34,103,51c0,0,59,18,125,18c0,0,35,0,69,-6c0,0,34,-5,64,-14c0,0,30,-9,53,-20c0,0,23,-11,31,-18c0,0,7,-8,10,-13c0,0,3,-5,4,-14c0,0,2,-8,3,-21c0,0,1,-13,1,-33c0,0,0,-21,-1,-36c0,0,-1,-15,-4,-25c0,0,-3,-9,-7,-14c0,0,-5,-4,-14,-4c0,0,-8,0,-26,10c0,0,-18,10,-44,23c0,0,-26,12,-60,22c0,0,-34,10,-75,10c0,0,-32,0,-56,-8c0,0,-24,-8,-40,-21c0,0,-16,-14,-24,-34c0,0,-8,-19,-8,-41c0,0,0,-32,18,-56c0,0,17,-23,46,-42c0,0,30,-18,67,-34c0,0,38,-16,76,-34c0,0,39,-18,76,-41c0,0,38,-22,67,-54c0,0,29,-32,47,-75c0,0,18,-43,18,-101c0,0,0,-76,-29,-133c0,0,-28,-58,-77,-96C572,60,524,21,459,2c0,0,-65,-19,-139,-19Z" 
id="f0_2n"
transform="scale(0.001,-0.001)" />

<path d="M164,0c0,0,-25,0,-42,15c0,0,-16,14,-16,47V903c0,0,0,33,16,48c0,0,17,14,42,14H645c0,0,7,0,12,-4c0,0,5,-3,9,-13c0,0,4,-9,6,-24c0,0,2,-14,2,-36c0,0,0,-21,-2,-36c0,0,-2,-14,-6,-23c0,0,-4,-9,-9,-13c0,0,-5,-4,-12,-4H301V576H593c0,0,6,0,12,-4c0,0,6,-4,9,-13c0,0,4,-8,6,-23c0,0,2,-14,2,-35c0,0,0,-22,-2,-36c0,0,-2,-14,-6,-23c0,0,-3,-8,-9,-12c0,0,-6,-4,-12,-4H301V154H649c0,0,6,0,12,-5c0,0,5,-4,9,-13c0,0,4,-9,6,-23c0,0,2,-15,2,-36c0,0,0,-22,-2,-36c0,0,-2,-15,-6,-24c0,0,-4,-9,-9,-13c0,0,-6,-4,-12,-4Z" 
id="f0_t"
transform="scale(0.001,-0.001)" />

<path d="M79,297c0,0,-19,0,-27,18c0,0,-8,17,-8,60c0,0,0,41,8,59c0,0,8,17,27,17H389c0,0,9,0,15,-4c0,0,7,-4,11,-13c0,0,5,-9,7,-23c0,0,1,-15,1,-36c0,0,0,-43,-8,-61c0,0,-8,-17,-26,-17Z" 
id="f0_oj"
transform="scale(0.001,-0.001)" />

<path d="M121,-4c0,0,-39,0,-60,2C61,-2,39,0,32,8c0,0,-8,8,-3,24c0,0,4,15,18,41L279,495L64,892c0,0,-14,26,-19,42c0,0,-5,17,4,24c0,0,9,8,32,10c0,0,23,2,65,2c0,0,35,0,56,-2c0,0,20,-1,32,-4c0,0,12,-4,17,-10c0,0,5,-6,9,-15L431,620L595,939c0,0,5,9,10,15c0,0,5,6,16,10c0,0,10,3,29,4c0,0,19,2,53,2c0,0,37,0,59,-2c0,0,22,-2,30,-10c0,0,8,-8,4,-24c0,0,-4,-16,-17,-42L564,497L793,73c0,0,14,-26,18,-41c0,0,4,-16,-5,-24c0,0,-9,-8,-32,-10c0,0,-24,-2,-65,-2c0,0,-36,0,-56,2c0,0,-20,1,-31,3c0,0,-12,4,-17,10c0,0,-5,6,-9,15L414,374L233,26c0,0,-4,-9,-9,-15c0,0,-6,-6,-17,-10c0,0,-12,-2,-32,-3c0,0,-21,-2,-54,-2Z" 
id="f0_3e"
transform="scale(0.001,-0.001)" />

<path d="M204,-4c0,0,-28,0,-47,2c0,0,-19,2,-31,5c0,0,-11,4,-16,10c0,0,-4,6,-4,13V939c0,0,0,7,4,13c0,0,5,6,17,10c0,0,11,3,30,6c0,0,19,2,47,2c0,0,29,0,48,-2c0,0,18,-3,29,-6c0,0,11,-4,16,-10c0,0,5,-6,5,-13V26c0,0,0,-7,-5,-13c0,0,-5,-6,-16,-10c0,0,-11,-3,-29,-5c0,0,-19,-2,-48,-2Z" 
id="f0_1c"
transform="scale(0.001,-0.001)" />

<path d="M127,0c0,0,-16,0,-28,3C99,3,87,6,80,15c0,0,-8,8,-11,25c0,0,-3,16,-3,42c0,0,0,25,2,42c0,0,2,18,8,32c0,0,6,14,15,27c0,0,9,13,24,29L282,390c0,0,50,53,81,95c0,0,30,43,47,79c0,0,17,35,24,65c0,0,6,30,6,57c0,0,0,24,-8,46c0,0,-8,22,-23,39c0,0,-15,16,-38,25c0,0,-23,10,-55,10c0,0,-44,0,-78,-12c0,0,-33,-11,-59,-25c0,0,-26,-13,-43,-25c0,0,-17,-12,-27,-12c0,0,-7,0,-11,5c0,0,-5,4,-8,15c0,0,-3,10,-5,28c0,0,-2,17,-2,42c0,0,0,18,1,29c0,0,1,12,4,20c0,0,2,9,6,15c0,0,3,6,13,15c0,0,9,9,34,23c0,0,25,14,61,27c0,0,37,14,81,23c0,0,44,9,92,9c0,0,75,0,131,-19c0,0,57,-19,94,-53c0,0,37,-34,55,-81c0,0,19,-47,19,-100c0,0,0,-47,-9,-93c0,0,-9,-45,-37,-98c0,0,-29,-52,-80,-116c0,0,-52,-64,-136,-148L299,159H679c0,0,8,0,14,-4c0,0,6,-5,11,-14c0,0,4,-9,7,-25c0,0,2,-15,2,-36c0,0,0,-22,-2,-37c0,0,-2,-15,-6,-25c0,0,-3,-10,-9,-14c0,0,-6,-4,-14,-4Z" 
id="f0_rz"
transform="scale(0.001,-0.001)" />

<path d="M385,138c0,0,29,0,52,9c0,0,22,10,39,28c0,0,17,19,28,47c0,0,11,29,19,66c0,0,7,37,9,84c0,0,3,47,3,104c0,0,0,69,-4,122c0,0,-4,52,-11,91c0,0,-8,39,-20,66c0,0,-12,27,-28,43c0,0,-16,16,-37,22c0,0,-21,7,-47,7c0,0,-44,0,-73,-21c0,0,-28,-21,-45,-64c0,0,-17,-42,-24,-106c0,0,-6,-63,-6,-148c0,0,0,-103,8,-171c0,0,8,-67,26,-107c0,0,17,-40,45,-56c0,0,27,-16,66,-16ZM378,-17c0,0,-99,0,-164,33c0,0,-65,34,-103,98c0,0,-38,64,-54,156c0,0,-15,92,-15,209c0,0,0,115,19,208c0,0,19,94,61,160c0,0,42,65,110,101c0,0,68,35,165,35c0,0,99,0,164,-34c0,0,65,-34,103,-98c0,0,39,-64,53,-156c0,0,15,-92,15,-209c0,0,0,-115,-18,-209c0,0,-19,-93,-61,-159C653,118,611,53,543,17c0,0,-67,-34,-165,-34Z" 
id="f0_rx"
transform="scale(0.001,-0.001)" />

<path d="M142,0c0,0,-6,0,-12,4c0,0,-5,3,-9,12c0,0,-4,9,-6,23c0,0,-3,15,-3,36c0,0,0,21,2,36c0,0,2,14,6,23c0,0,4,9,10,13c0,0,5,5,12,5H322V779L166,693c0,0,-17,-8,-28,-10c0,0,-1,0,-3,0c-4,0,-10,1,-14,5c0,0,-6,6,-8,22c0,0,-2,15,-2,44c0,0,0,18,0,29c0,0,1,12,4,20c0,0,3,8,8,14c0,0,5,5,14,11L345,962c0,0,4,3,9,5c0,0,6,2,15,3c0,0,9,1,23,2c0,0,15,0,38,0c0,0,28,0,46,-1c0,0,17,-1,26,-4c0,0,9,-3,12,-7c0,0,3,-4,3,-11V152H675c0,0,7,0,12,-5c0,0,6,-4,10,-13c0,0,4,-9,6,-23c0,0,2,-15,2,-36c0,0,0,-21,-2,-36c0,0,-3,-14,-7,-23c0,0,-4,-9,-9,-12c0,0,-5,-4,-12,-4Z" 
id="f0_ry"
transform="scale(0.001,-0.001)" />

<path d="M326,-17c0,0,-45,0,-85,6c0,0,-41,5,-73,13c0,0,-32,8,-52,17c0,0,-21,8,-27,14c0,0,-6,6,-9,12c0,0,-3,7,-5,16c0,0,-2,10,-3,24c0,0,-1,14,-1,33c0,0,0,21,2,36c0,0,1,14,5,23c0,0,3,9,8,13c0,0,4,4,10,4c0,0,7,0,23,-9c0,0,15,-8,40,-19c0,0,25,-10,61,-19c0,0,36,-8,86,-8c0,0,43,0,78,9c0,0,36,9,60,29c0,0,25,19,38,49c0,0,14,30,14,72c0,0,0,36,-11,64c0,0,-12,28,-35,47c0,0,-24,19,-62,29c0,0,-38,10,-93,10c0,0,-43,0,-78,-5c0,0,-36,-4,-67,-4c0,0,-22,0,-31,11c0,0,-9,11,-9,40V909c0,0,0,30,11,43c0,0,12,13,37,13H615c0,0,6,0,12,-4c0,0,6,-5,10,-15c0,0,5,-9,6,-25c0,0,2,-16,2,-39c0,0,0,-45,-7,-65c0,0,-8,-20,-23,-20H272V590c0,0,26,3,52,4c0,0,25,0,54,0c0,0,78,0,139,-18c0,0,61,-18,102,-53c0,0,42,-36,63,-88c0,0,22,-53,22,-122c0,0,0,-79,-27,-140c0,0,-27,-62,-77,-104C600,69,550,27,481,5c0,0,-70,-22,-155,-22Z" 
id="f0_s2"
transform="scale(0.001,-0.001)" />

<path d="M589,371L453,782h-1L317,371ZM106,-4c0,0,-35,0,-54,2C52,-2,32,0,25,8c0,0,-7,9,-5,24c0,0,2,16,11,42L329,931c0,0,4,13,10,21c0,0,6,7,19,12c0,0,13,4,36,5c0,0,23,1,61,1c0,0,44,0,71,-1c0,0,26,-1,40,-5c0,0,15,-5,21,-13c0,0,6,-8,11,-22L896,73c0,0,9,-27,11,-43c0,0,3,-15,-6,-23c0,0,-8,-7,-29,-9c0,0,-21,-2,-57,-2c0,0,-38,0,-59,1c0,0,-22,1,-33,4c0,0,-11,3,-16,9c0,0,-4,6,-7,16L635,220H272L211,31c0,0,-2,-11,-7,-18c0,0,-5,-7,-16,-11c0,0,-11,-3,-31,-4c0,0,-19,-2,-51,-2Z" 
id="f0_5"
transform="scale(0.001,-0.001)" />

<path d="M198,-4c0,0,-27,0,-45,2c0,0,-18,2,-28,5c0,0,-11,4,-15,10c0,0,-4,6,-4,13V887c0,0,0,38,20,58c0,0,20,20,53,20H308c0,0,34,0,59,-6c0,0,24,-5,42,-18c0,0,18,-13,30,-35c0,0,12,-21,21,-52L669,279h3L889,852c0,0,9,32,21,53c0,0,11,22,27,35c0,0,15,14,36,19c0,0,21,6,48,6h132c0,0,21,0,35,-5c0,0,15,-5,24,-15c0,0,9,-11,14,-25c0,0,5,-15,5,-33V26c0,0,0,-7,-4,-13c0,0,-4,-6,-15,-10c0,0,-11,-3,-29,-5c0,0,-18,-2,-45,-2c0,0,-27,0,-45,2c0,0,-18,2,-28,5c0,0,-11,4,-15,10c0,0,-5,6,-5,13V813h-1L764,27c0,0,-3,-10,-10,-16c0,0,-6,-6,-18,-10c0,0,-12,-3,-29,-4c0,0,-18,-1,-44,-1c0,0,-25,0,-43,2c0,0,-18,2,-29,5c0,0,-12,4,-19,10c0,0,-6,6,-9,14L293,813h-2V26c0,0,0,-7,-4,-13c0,0,-4,-6,-15,-10c0,0,-11,-3,-29,-5c0,0,-17,-2,-45,-2Z" 
id="f0_1x"
transform="scale(0.001,-0.001)" />

<path d="M193,-4c0,0,-26,0,-43,2c0,0,-18,2,-27,6c0,0,-10,4,-14,10c0,0,-3,6,-3,13V895c0,0,0,35,20,53c0,0,21,17,50,17H282c0,0,28,0,47,-5c0,0,20,-5,35,-16c0,0,15,-11,29,-31c0,0,13,-20,27,-49L608,511c0,0,17,-32,33,-63c0,0,16,-31,31,-62c0,0,14,-31,29,-60c0,0,14,-30,27,-60h1c0,0,-2,52,-3,109c0,0,-1,57,-1,108V936c0,0,0,7,4,13c0,0,5,6,15,11c0,0,10,4,28,6c0,0,17,2,44,2c0,0,25,0,42,-2c0,0,17,-2,27,-6c0,0,9,-5,13,-11c0,0,4,-6,4,-13V68c0,0,0,-17,-6,-30c0,0,-6,-14,-17,-23C879,15,869,6,856,2c0,0,-14,-3,-28,-3H744c0,0,-26,0,-45,4c0,0,-19,5,-35,19c0,0,-16,14,-31,38c0,0,-15,23,-34,60L359,572c0,0,-21,40,-43,86c0,0,-21,47,-38,91h-2c0,0,3,-54,5,-107c0,0,2,-53,2,-110V27c0,0,0,-7,-5,-13c0,0,-4,-6,-14,-10c0,0,-10,-4,-27,-6c0,0,-17,-2,-44,-2Z" 
id="f0_1y"
transform="scale(0.001,-0.001)" />

<path d="M378,-4c0,0,-28,0,-47,2c0,0,-19,2,-31,5c0,0,-11,4,-16,10c0,0,-4,6,-4,13V805H38c0,0,-8,0,-13,4c0,0,-5,5,-9,14c0,0,-3,9,-5,25c0,0,-2,15,-2,37c0,0,0,22,2,38c0,0,2,15,5,25c0,0,4,9,9,13c0,0,5,4,13,4H718c0,0,7,0,12,-4c0,0,6,-4,10,-13c0,0,3,-10,5,-25c0,0,2,-16,2,-38c0,0,0,-22,-2,-37c0,0,-2,-16,-5,-25c0,0,-4,-9,-10,-14c0,0,-5,-4,-12,-4H476V26c0,0,0,-7,-5,-13c0,0,-5,-6,-16,-10c0,0,-11,-3,-30,-5c0,0,-19,-2,-47,-2Z" 
id="f0_2t"
transform="scale(0.001,-0.001)" />

<path d="M514,145c0,0,72,0,121,27c0,0,48,26,78,73c0,0,30,46,42,107c0,0,13,62,13,131c0,0,0,76,-12,139c0,0,-12,62,-41,106c0,0,-29,45,-76,69c0,0,-48,24,-120,24c0,0,-72,0,-120,-27c0,0,-49,-27,-79,-73c0,0,-29,-45,-42,-106c0,0,-12,-61,-12,-129c0,0,0,-79,12,-142c0,0,12,-63,40,-108c0,0,28,-44,76,-68c0,0,48,-23,120,-23ZM508,-17c0,0,-113,0,-196,29c0,0,-84,29,-140,90c0,0,-56,60,-84,154c0,0,-28,93,-28,221c0,0,0,117,29,210c0,0,30,94,89,160c0,0,59,65,146,101c0,0,87,35,202,35c0,0,110,0,194,-29c0,0,84,-30,140,-90c0,0,56,-60,85,-153c0,0,29,-92,29,-217c0,0,0,-120,-30,-215c0,0,-30,-95,-89,-161C855,118,796,52,709,17c0,0,-87,-34,-201,-34Z" 
id="f0_24"
transform="scale(0.001,-0.001)" />

<path d="M299,0V777H162l36,173H508V0Z" 
id="f1_l"
transform="scale(0.001,-0.001)" />

<path d="M403,172c0,0,80,0,127,81c0,0,48,80,48,218c0,0,0,145,-47,227c0,0,-46,83,-125,83c0,0,-82,0,-129,-83c0,0,-47,-82,-47,-230c0,0,0,-135,48,-215c0,0,48,-81,125,-81Zm3,-182c0,0,-167,0,-272,130C134,120,30,251,30,464c0,0,0,227,102,364c0,0,102,137,268,137h6c0,0,170,0,271,-130c0,0,100,-130,100,-347c0,0,0,-253,-112,-376C665,112,553,-10,406,-10Z" 
id="f1_k"
transform="scale(0.001,-0.001)" />

<path d="M44,-281L425,1053H537L156,-281Z" 
id="f1_j"
transform="scale(0.001,-0.001)" />

<path d="M75,0L400,413c0,0,71,91,101,149c0,0,30,58,30,109c0,0,0,55,-36,91c0,0,-36,36,-91,36c0,0,-63,0,-91,-45c0,0,-28,-46,-34,-142H67c0,0,0,173,102,268c0,0,102,95,253,95c0,0,140,0,229,-82c0,0,89,-82,89,-209c0,0,0,-125,-104,-276L580,324c0,0,-34,-50,-85,-114L468,178H740V0Z" 
id="f1_m"
transform="scale(0.001,-0.001)" />

<path d="M83,0C83,0,48,0,24,24C24,24,0,49,0,83c0,0,0,34,24,58c0,0,24,24,59,24c0,0,34,0,58,-24c0,0,24,-24,24,-58c0,0,0,-34,-24,-59C141,24,117,0,83,0ZM695,0c0,0,-34,0,-58,24c0,0,-25,25,-25,59c0,0,0,34,25,58c0,0,24,24,58,24c0,0,34,0,58,-24c0,0,24,-24,24,-58c0,0,0,-34,-24,-59C753,24,729,0,695,0ZM388,594c0,0,-34,0,-59,23c0,0,-24,24,-24,59c0,0,0,34,24,58c0,0,25,25,59,25c0,0,34,0,58,-25c0,0,24,-24,24,-58c0,0,0,-35,-24,-59c0,0,-24,-23,-58,-23Z" 
id="f2_1s"
transform="scale(0.001,-0.001)" />

<path d="M55,0V40L184,60V941L55,960v40H455V960L327,941V60L455,40V0Z" 
id="f3_19"
transform="scale(0.001,-0.001)" />

<path d="M439,0V33l93,19V500c0,0,0,62,-30,97c0,0,-31,36,-94,36c0,0,-67,0,-165,-22V52L338,33V0H35V33l84,19V649L35,668v33H235l7,-57c0,0,57,33,122,54c0,0,65,22,108,22c0,0,91,0,137,-53c0,0,47,-53,47,-154V52L741,33V0Z" 
id="f3_2a"
transform="scale(0.001,-0.001)" />

<path d="M249,-14c0,0,-71,0,-107,42c0,0,-35,42,-35,119V639H15v33l93,29l76,159h47V701H391V639H231V161c0,0,0,-48,22,-73c0,0,22,-24,57,-24c0,0,44,0,106,12V26C416,26,389,8,340,-2c0,0,-49,-12,-91,-12Z" 
id="f3_2g"
transform="scale(0.001,-0.001)" />

<path d="M495,413c0,0,0,133,-34,190c0,0,-34,57,-105,57c0,0,-78,0,-119,-63c0,0,-42,-62,-42,-184ZM374,-14c0,0,-163,0,-239,87c0,0,-75,88,-75,283c0,0,0,183,77,273c0,0,76,91,219,91c0,0,269,0,269,-306V353H194V340c0,0,0,-103,23,-160c0,0,22,-57,70,-87c0,0,47,-29,124,-29c0,0,40,0,96,6c0,0,55,7,91,15V43C598,43,562,20,500,3c0,0,-61,-17,-126,-17Z" 
id="f3_21"
transform="scale(0.001,-0.001)" />

<path d="M359,-270c0,0,124,0,192,46c0,0,67,47,67,129c0,0,0,43,-26,67c0,0,-26,24,-79,24H242c0,0,-32,-27,-51,-69c0,0,-20,-41,-20,-77c0,0,0,-64,46,-92c0,0,46,-28,142,-28Zm11,561c0,0,81,0,115,47c0,0,34,47,34,141c0,0,0,100,-35,142c0,0,-35,42,-113,42c0,0,-78,0,-114,-43c0,0,-37,-42,-37,-141c0,0,0,-98,36,-143c0,0,36,-45,114,-45ZM359,-329c0,0,-143,0,-218,44c0,0,-75,43,-75,125c0,0,0,39,27,78c0,0,26,38,98,89c0,0,-43,14,-72,48c0,0,-29,35,-29,74L208,262c0,0,-118,55,-118,217c0,0,0,115,73,178c0,0,73,63,211,63c0,0,28,0,71,-6c0,0,44,-6,67,-13l165,83l26,-32L599,644c0,0,50,-56,50,-165c0,0,0,-120,-72,-182c0,0,-73,-62,-208,-62c0,0,-62,0,-114,11L208,148c0,0,2,-13,29,-24c0,0,27,-12,67,-12H512c0,0,113,0,168,-49c0,0,55,-49,55,-134c0,0,0,-79,-44,-137c0,0,-43,-58,-128,-90c0,0,-84,-31,-204,-31Z" 
id="f3_23"
transform="scale(0.001,-0.001)" />

<path d="M31,0V33l88,19V649L31,668v33H235l7,-87c0,0,44,37,121,71c0,0,76,35,121,35h11V530H463l-43,82c0,0,-37,0,-88,-10c0,0,-52,-10,-89,-26V52L363,33V0Z" 
id="f3_2e"
transform="scale(0.001,-0.001)" />

<path d="M284,67c0,0,51,0,88,12c0,0,37,12,74,30V358l-98,-3c0,0,-100,-4,-135,-39c0,0,-35,-35,-35,-117c0,0,0,-132,106,-132ZM233,-14c0,0,-179,0,-179,208c0,0,0,70,27,116c0,0,27,46,87,70c0,0,60,24,173,27l105,3V519c0,0,0,72,-26,107c0,0,-27,34,-82,34c0,0,-75,0,-137,-35L176,538H134V691c0,0,121,26,213,26c0,0,115,0,169,-47c0,0,54,-47,54,-144V52L657,33V0H465L451,70c0,0,-85,-84,-218,-84Z" 
id="f3_1x"
transform="scale(0.001,-0.001)" />

<path d="M32,0V33L151,52V649L52,668v33H275V52L395,33V0ZM201,850c0,0,-32,0,-56,24c0,0,-24,24,-24,56c0,0,0,34,24,58c0,0,24,24,56,24c0,0,34,0,58,-24c0,0,24,-24,24,-58c0,0,0,-32,-24,-56c0,0,-24,-24,-58,-24Z" 
id="f3_25"
transform="scale(0.001,-0.001)" />

<path d="M64,0V34L168,59V639H47v36l121,29v49c0,0,0,155,61,239c0,0,62,84,173,84c0,0,58,0,107,-15V908H472l-33,92c0,0,-26,16,-62,16c0,0,-47,0,-66,-42c0,0,-19,-42,-19,-157V701H478V639H292V59L443,34V0Z" 
id="f3_22"
transform="scale(0.001,-0.001)" />

<path d="M399,-14c0,0,-341,0,-341,370c0,0,0,175,87,269c0,0,87,95,249,95c0,0,101,0,220,-23V501H573L541,625c0,0,-62,35,-149,35c0,0,-200,0,-200,-304c0,0,0,-158,61,-225c0,0,61,-67,189,-67c0,0,109,0,189,24V43C631,43,595,16,530,1c0,0,-64,-15,-131,-15Z" 
id="f3_1z"
transform="scale(0.001,-0.001)" />

<path d="M377,45c0,0,99,0,147,73c0,0,47,73,47,237c0,0,0,161,-47,233c0,0,-47,72,-147,72c0,0,-97,0,-141,-69c0,0,-44,-69,-44,-236c0,0,0,-169,45,-240c0,0,44,-70,140,-70Zm0,-59c0,0,-158,0,-238,94c0,0,-81,95,-81,274c0,0,0,178,81,272c0,0,80,94,244,94c0,0,160,0,241,-92c0,0,82,-92,82,-274c0,0,0,-368,-329,-368Z" 
id="f3_2b"
transform="scale(0.001,-0.001)" />

<path d="M278,-14c0,0,-52,0,-115,11c0,0,-63,10,-99,23V193H98L134,95c0,0,56,-50,146,-50c0,0,144,0,144,123c0,0,0,91,-114,130l-66,21c0,0,-75,25,-110,50c0,0,-34,26,-53,63c0,0,-18,36,-18,89c0,0,0,92,63,145c0,0,63,54,170,54c0,0,77,0,193,-23V544H454l-32,81c0,0,-39,35,-124,35c0,0,-61,0,-92,-30c0,0,-32,-30,-32,-80c0,0,0,-43,29,-72c0,0,28,-29,86,-48c0,0,110,-38,144,-55c0,0,33,-17,57,-42c0,0,23,-25,36,-57c0,0,13,-32,13,-79c0,0,0,-104,-66,-158c0,0,-66,-53,-195,-53Z" 
id="f3_2f"
transform="scale(0.001,-0.001)" />

<path d="M134,0V40L339,60V876L137,804v39l292,166h39V60L672,40V0Z" 
id="f3_l"
transform="scale(0.001,-0.001)" />

<path d="M188,355c0,0,148,11,236,69c0,0,89,58,89,143c0,0,0,41,-23,68c0,0,-22,27,-66,27c0,0,-52,0,-101,-43c0,0,-49,-42,-85,-114c0,0,-36,-71,-50,-150ZM298,-14c0,0,-120,0,-186,67c0,0,-65,67,-65,193c0,0,0,125,53,232c0,0,52,108,145,175c0,0,94,67,196,67c0,0,92,0,147,-42c0,0,56,-43,56,-111c0,0,0,-102,-126,-173c0,0,-125,-72,-336,-86l-3,-54c0,0,0,-95,40,-143c0,0,40,-47,118,-47c0,0,67,0,124,22c0,0,57,23,106,52l22,-32c0,0,-69,-58,-146,-89c0,0,-76,-31,-145,-31Z" 
id="f4_21"
transform="scale(0.001,-0.001)" />

<path d="M-15,-329c0,0,-61,0,-112,13l28,152h34l12,-72c0,0,18,-17,60,-17c0,0,100,0,212,202L253,9L116,649L33,668l6,33H230L338,155L513,458c0,0,48,83,48,144c0,0,0,27,-16,44c0,0,-15,16,-33,22l6,33H659c0,0,20,-17,20,-47c0,0,0,-59,-62,-164L322,-7c0,0,-86,-145,-135,-205c0,0,-50,-61,-98,-89c0,0,-49,-28,-104,-28Z" 
id="f4_2l"
transform="scale(0.001,-0.001)" />

<path d="M0,356v74H784V356Z" 
id="f2_h"
transform="scale(0.001,-0.001)" />

<path d="M410,-14c0,0,-80,0,-162,14c0,0,-81,14,-144,38V270h48L178,134c0,0,28,-35,95,-62c0,0,68,-27,134,-27c0,0,104,0,163,53c0,0,58,54,58,148c0,0,0,54,-23,89c0,0,-22,35,-59,59c0,0,-37,24,-84,41c0,0,-47,17,-97,34c0,0,-49,17,-96,38c0,0,-47,21,-84,53c0,0,-37,32,-60,79c0,0,-23,48,-23,117c0,0,0,119,90,187c0,0,89,68,248,68c0,0,121,0,263,-32V771H654L628,893c0,0,-76,55,-188,55c0,0,-100,0,-156,-40c0,0,-56,-41,-56,-112c0,0,0,-49,22,-81c0,0,23,-32,60,-55c0,0,37,-22,84,-39c0,0,48,-16,97,-34c0,0,50,-17,97,-39c0,0,48,-22,85,-56c0,0,36,-34,59,-83c0,0,23,-49,23,-120c0,0,0,-145,-89,-224c0,0,-89,-79,-256,-79Z" 
id="f3_1j"
transform="scale(0.001,-0.001)" />

<path d="M31,0V33L150,52v956L31,1026v34H274V52L394,33V0Z" 
id="f3_28"
transform="scale(0.001,-0.001)" />

<path d="M289,-14c0,0,-179,0,-179,205V649L20,668v33H233V200c0,0,0,-128,120,-128c0,0,92,0,173,23V649L420,668v33H649V52L738,33V0H533l-6,57C527,57,474,28,405,7c0,0,-69,-21,-116,-21Z" 
id="f3_2h"
transform="scale(0.001,-0.001)" />

<path d="M211,-20c0,0,-39,0,-64,25c0,0,-26,27,-26,64c0,0,0,38,26,64c0,0,26,26,64,26c0,0,37,0,64,-25c0,0,26,-26,26,-65c0,0,0,-37,-26,-64c0,0,-26,-25,-64,-25Zm0,556c0,0,-38,0,-64,26c0,0,-26,26,-26,64c0,0,0,37,26,64c0,0,25,27,64,27c0,0,38,0,64,-27c0,0,26,-27,26,-64c0,0,0,-38,-26,-64c0,0,-27,-26,-64,-26Z" 
id="f3_u"
transform="scale(0.001,-0.001)" />

<path d="M67,0V109L206,235c0,0,133,118,196,190c0,0,63,72,90,149c0,0,27,77,27,177c0,0,0,97,-44,148c0,0,-44,50,-144,50c0,0,-39,0,-81,-10c0,0,-42,-11,-74,-29L150,787H101V980c0,0,135,32,230,32c0,0,164,0,247,-68c0,0,82,-69,82,-193c0,0,0,-84,-32,-158c0,0,-33,-75,-100,-148c0,0,-67,-74,-222,-206c0,0,-67,-57,-141,-125H680V0Z" 
id="f3_m"
transform="scale(0.001,-0.001)" />

<path d="M-6,0c0,0,-12,10,-12,32c0,0,0,21,23,51c0,0,23,31,79,82L287,354L159,649L79,668l6,33H270L378,434l93,88c0,0,47,46,67,72c0,0,19,26,19,44c0,0,0,8,-6,13c0,0,-7,6,-38,17l6,33H651c0,0,16,-12,16,-32c0,0,0,-44,-103,-142L404,377L548,49L634,33L628,0H437L313,298L185,176c0,0,-41,-40,-60,-65c0,0,-19,-26,-19,-48c0,0,0,-21,31,-29L131,0Z" 
id="f4_2k"
transform="scale(0.001,-0.001)" />

<path d="M301,78c0,0,41,0,90,27c0,0,49,28,95,77l81,442c0,0,-26,18,-54,27c0,0,-27,10,-67,10c0,0,-70,0,-131,-55c0,0,-61,-55,-99,-152c0,0,-37,-97,-37,-201c0,0,0,-79,33,-127c0,0,33,-48,89,-48ZM245,-14c0,0,-91,0,-145,68c0,0,-54,69,-54,183c0,0,0,128,55,240c0,0,55,112,150,177c0,0,96,66,210,66c0,0,70,0,123,-18c0,0,3,36,51,306l-115,18l6,34H768L589,52L673,33L667,0H454l22,117C476,117,350,-14,245,-14Z" 
id="f4_20"
transform="scale(0.001,-0.001)" />

<path d="M83,308c0,0,-35,0,-59,24c0,0,-24,24,-24,59c0,0,0,34,24,58c0,0,24,24,59,24c0,0,33,0,58,-24c0,0,24,-24,24,-58c0,0,0,-35,-24,-59c0,0,-25,-24,-58,-24Z" 
id="f2_49"
transform="scale(0.001,-0.001)" />

<path d="M0,214v74H784V214ZM0,494v72H784V494Z" 
id="f2_x"
transform="scale(0.001,-0.001)" />

<path d="M355,0V355H0v72H355V784h72V427H782V355H427V0Z" 
id="f2_f"
transform="scale(0.001,-0.001)" />

<path d="M88,-163c0,0,-39,0,-63,25c0,0,-25,26,-25,65c0,0,0,34,19,54c0,0,19,19,48,19c0,0,30,0,51,-23c0,0,22,-24,37,-24c0,0,12,0,21,11c0,0,8,10,8,35c0,0,0,30,-7,88c0,0,-27,235,-27,620c0,0,13,411,17,446c0,0,17,139,60,188c0,0,43,48,98,48c0,0,37,0,65,-25c0,0,28,-25,28,-54c0,0,0,-35,-19,-57c0,0,-20,-21,-49,-21c0,0,-26,0,-57,27c0,0,-17,15,-30,15c0,0,-12,0,-21,-11c0,0,-8,-11,-8,-37c0,0,0,-31,6,-108c0,0,28,-306,28,-496c0,0,0,-50,-12,-439c0,0,-6,-219,-67,-296c0,0,-41,-50,-101,-50Z" 
id="f2_50"
transform="scale(0.001,-0.001)" />

<path d="M200,-14c0,0,-59,0,-93,35c0,0,-34,36,-34,100c0,0,0,22,4,51c0,0,4,30,82,467H67l6,33l99,29L275,860h47L295,701H455L443,639H283L210,230c0,0,-13,-69,-13,-99c0,0,0,-34,17,-51c0,0,17,-16,43,-16c0,0,54,0,113,21L386,50c0,0,-92,-64,-186,-64Z" 
id="f4_2g"
transform="scale(0.001,-0.001)" />

<path d="M240,-14L113,649L37,668l6,33H225L323,174L554,622h55L700,171L847,461c0,0,43,85,43,141c0,0,0,27,-16,44c0,0,-15,16,-33,22l6,33H988c0,0,20,-17,20,-47c0,0,0,-51,-62,-164L671,-14H622L530,447L292,-14Z" 
id="f4_2j"
transform="scale(0.001,-0.001)" />

<path d="M55,0L232,1008l-88,18l6,34H365L286,615L274,558c0,0,59,79,128,120c0,0,68,42,134,42c0,0,75,0,113,-41c0,0,38,-41,38,-117c0,0,0,-10,-3,-32c0,0,-3,-21,-81,-478L700,34L695,0H470l76,434c0,0,17,94,17,123c0,0,0,34,-18,55c0,0,-18,21,-56,21c0,0,-56,0,-121,-47c0,0,-65,-47,-107,-114L178,0Z" 
id="f4_24"
transform="scale(0.001,-0.001)" />

<path d="M62,0L176,649L88,668l6,33H301L278,543c0,0,55,84,124,130c0,0,69,47,138,47c0,0,37,0,59,-6L566,530H534l-28,95c0,0,-60,0,-124,-46c0,0,-63,-45,-116,-120L186,0Z" 
id="f4_2e"
transform="scale(0.001,-0.001)" />

<path d="M945,-20c0,0,47,75,125,153H57v74H1147l108,91c0,0,23,19,95,72c0,0,-134,103,-203,166H57v72H1070c0,0,-78,78,-125,154h85c0,0,88,-107,217,-217c0,0,130,-110,206,-154V349c0,0,-101,-58,-219,-162c0,0,-118,-103,-204,-207Z" 
id="f2_4g"
transform="scale(0.001,-0.001)" />

<path d="M412,-328c0,0,-195,96,-303,284C109,-44,0,142,0,365c0,0,0,232,114,422c0,0,114,191,298,273v-31c0,0,-92,-51,-151,-139c0,0,-59,-88,-88,-223c0,0,-29,-136,-29,-282c0,0,0,-167,27,-301c0,0,26,-133,82,-221c0,0,55,-89,159,-159v-32Z" 
id="f2_c"
transform="scale(0.001,-0.001)" />

<path d="M34,-328v32c0,0,92,50,151,138c0,0,59,88,88,222c0,0,29,135,29,283c0,0,0,165,-27,300c0,0,-26,134,-82,222c0,0,-56,89,-159,160v31c0,0,194,-96,303,-284c0,0,108,-187,108,-410c0,0,0,-232,-114,-422c0,0,-114,-191,-297,-272Z" 
id="f2_d"
transform="scale(0.001,-0.001)" />

<path d="M298,-14c0,0,-120,0,-185,69c0,0,-66,69,-66,191c0,0,0,130,52,237c0,0,52,107,149,172c0,0,97,65,203,65c0,0,53,0,112,-12c0,0,60,-11,99,-27L628,485H587L575,615c0,0,-47,47,-125,47c0,0,-72,0,-134,-53c0,0,-62,-53,-100,-147c0,0,-37,-95,-37,-208c0,0,0,-190,154,-190c0,0,106,0,222,74l22,-32c0,0,-60,-56,-135,-88c0,0,-76,-32,-144,-32Z" 
id="f4_1z"
transform="scale(0.001,-0.001)" />

<path d="M325,47c0,0,68,0,130,54c0,0,61,55,97,149c0,0,36,94,36,202c0,0,0,103,-39,156c0,0,-39,53,-113,53c0,0,-67,0,-128,-54c0,0,-61,-55,-96,-149c0,0,-35,-94,-35,-204c0,0,0,-101,39,-154c0,0,39,-53,109,-53Zm-6,-61c0,0,-124,0,-199,79c0,0,-74,79,-74,214c0,0,0,120,51,222c0,0,51,102,143,160c0,0,91,59,205,59c0,0,124,0,199,-80c0,0,74,-79,74,-214c0,0,0,-120,-51,-222C667,204,615,102,524,43c0,0,-91,-57,-205,-57Z" 
id="f4_2b"
transform="scale(0.001,-0.001)" />

<path d="M595,60c0,0,141,0,206,102c0,0,65,102,65,340c0,0,0,236,-65,335c0,0,-65,100,-206,100c0,0,-142,0,-207,-100c0,0,-66,-99,-66,-335c0,0,0,-239,66,-340c0,0,65,-102,207,-102Zm0,-74c0,0,-253,0,-387,130C208,116,75,246,75,501c0,0,0,510,520,510c0,0,256,0,387,-129c0,0,132,-130,132,-381c0,0,0,-254,-133,-385C981,116,848,-14,595,-14Z" 
id="f5_1f"
transform="scale(0.001,-0.001)" />

<path d="M498,506c0,0,115,0,164,47c0,0,48,48,48,166c0,0,0,112,-46,156c0,0,-46,43,-169,43H390V506ZM793,0L514,423H390V74L518,54V0H36V54L154,74V926L26,945v55H504c0,0,221,0,330,-68c0,0,109,-68,109,-212c0,0,0,-215,-201,-276L1009,74L1117,54V0Z" 
id="f5_1i"
transform="scale(0.001,-0.001)" />

<path d="M577,-14c0,0,-243,0,-379,131C198,117,63,248,63,488c0,0,0,263,131,393c0,0,132,130,386,130c0,0,182,0,352,-45V751H882L862,875c0,0,-52,37,-124,57c0,0,-72,19,-152,19c0,0,-191,0,-279,-113c0,0,-88,-114,-88,-348c0,0,0,-220,91,-333c0,0,91,-114,269,-114c0,0,63,0,131,15c0,0,69,15,105,36V377L686,397v40h370V397L958,377V52C958,52,871,24,778,5c0,0,-93,-19,-201,-19Z" 
id="f3_17"
transform="scale(0.001,-0.001)" />

<path d="M360,-14L72,649L0,668v33H327V668L216,648L420,164L615,649L504,668v33H764V668L697,652L416,-14Z" 
id="f3_2i"
transform="scale(0.001,-0.001)" />

<path d="M383,64c0,0,85,0,152,28V645c0,0,-67,13,-152,13c0,0,-194,0,-194,-314c0,0,0,-141,48,-211c0,0,48,-69,146,-69ZM342,-14c0,0,-287,0,-287,358c0,0,0,184,82,280c0,0,81,96,239,96c0,0,81,0,163,-18c0,0,-4,25,-4,124v182l-118,18v34H659V52L745,33V0H548l-9,52c0,0,-84,-66,-197,-66Z" 
id="f3_20"
transform="scale(0.001,-0.001)" />

<path d="M383,64c0,0,44,0,87,7c0,0,43,7,65,17V645c0,0,-67,13,-152,13c0,0,-194,0,-194,-309c0,0,0,-143,48,-214c0,0,47,-71,146,-71Zm56,-389v35l96,18V-77c0,0,0,73,7,124c0,0,-79,-61,-200,-61c0,0,-287,0,-287,362c0,0,0,180,81,276c0,0,81,96,237,96c0,0,84,0,166,-18l67,33h53V-272l77,-18v-35Z" 
id="f3_2d"
transform="scale(0.001,-0.001)" />

<path d="M394,460c0,0,126,0,186,57c0,0,60,57,60,187c0,0,0,123,-57,176c0,0,-58,53,-194,53H316V460ZM54,0V40L172,60V941L44,960v40H421c0,0,368,0,368,-295c0,0,0,-153,-93,-233c0,0,-93,-80,-267,-80H316V60L475,40V0Z" 
id="f3_1g"
transform="scale(0.001,-0.001)" />

<path d="M246,-14L105,649L21,668l7,33H219L327,155L512,458c0,0,48,78,48,144c0,0,0,28,-15,44c0,0,-16,16,-34,22l6,33H659c0,0,19,-17,19,-47c0,0,0,-66,-62,-164L301,-14Z" 
id="f4_2i"
transform="scale(0.001,-0.001)" />

<path d="M350,-14c0,0,-142,0,-269,31L73,228h49L156,87c0,0,29,-16,82,-28c0,0,54,-12,100,-12c0,0,117,0,173,54c0,0,56,53,56,178c0,0,0,99,-52,150c0,0,-51,51,-159,56l-107,6v61l107,7c0,0,84,5,124,52c0,0,41,48,41,145c0,0,0,101,-44,147c0,0,-44,45,-139,45c0,0,-40,0,-83,-10c0,0,-43,-11,-76,-29L153,786H104V979c0,0,74,19,127,26c0,0,54,6,107,6c0,0,321,0,321,-246c0,0,0,-104,-57,-165c0,0,-57,-62,-162,-77c0,0,136,-16,200,-78c0,0,64,-62,64,-173c0,0,0,-135,-92,-211c0,0,-93,-75,-262,-75Z" 
id="f3_n"
transform="scale(0.001,-0.001)" />

<path d="M377,45c0,0,99,0,145,108c0,0,46,109,46,352c0,0,0,240,-45,345c0,0,-46,106,-146,106c0,0,-97,0,-139,-100c0,0,-43,-99,-43,-351c0,0,0,-254,44,-357c0,0,43,-103,138,-103Zm0,-59c0,0,-158,0,-238,132c0,0,-81,133,-81,386c0,0,0,249,81,380c0,0,80,132,244,132c0,0,159,0,241,-130c0,0,82,-130,82,-382c0,0,0,-518,-329,-518Z" 
id="f3_k"
transform="scale(0.001,-0.001)" />

<path d="M58,-234v58c0,0,131,42,131,125c0,0,0,15,-11,27c0,0,-11,12,-38,25C140,1,89,27,89,75c0,0,0,40,25,61c0,0,26,21,65,21c0,0,48,0,77,-34c0,0,30,-34,30,-86c0,0,0,-101,-60,-170c0,0,-59,-69,-168,-101Z" 
id="f3_g"
transform="scale(0.001,-0.001)" />

<path d="M64,0V141c0,0,64,68,119,123c0,0,119,118,174,185c0,0,56,68,81,140c0,0,26,72,26,165c0,0,0,81,-40,131c0,0,-39,50,-105,50c0,0,-46,0,-74,-10c0,0,-27,-10,-50,-29L163,751H98V979c0,0,59,13,116,23c0,0,58,9,125,9c0,0,165,0,252,-68c0,0,88,-68,88,-193c0,0,0,-78,-26,-142c0,0,-26,-64,-83,-124c0,0,-56,-61,-224,-197c0,0,-64,-52,-139,-119H698V0Z" 
id="f5_m"
transform="scale(0.001,-0.001)" />

<path d="M342,-14c0,0,-138,0,-276,29L57,258h69L165,96c0,0,65,-36,136,-36c0,0,90,0,141,58c0,0,50,57,50,161c0,0,0,91,-40,139c0,0,-41,48,-132,54l-87,5v90l84,6c0,0,66,5,98,49c0,0,32,44,32,134c0,0,0,83,-38,131c0,0,-38,48,-107,48c0,0,-40,0,-66,-13c0,0,-26,-12,-49,-26L155,751H90V979c0,0,76,19,132,26c0,0,55,6,108,6c0,0,337,0,337,-246c0,0,0,-102,-54,-164c0,0,-54,-63,-153,-78c0,0,252,-30,252,-251c0,0,0,-136,-98,-211c0,0,-98,-75,-272,-75Z" 
id="f5_n"
transform="scale(0.001,-0.001)" />

<path d="M191,-20c0,0,-51,0,-88,34c0,0,-36,36,-36,88c0,0,0,52,36,88c0,0,36,36,88,36c0,0,51,0,88,-36c0,0,36,-36,36,-88c0,0,0,-51,-36,-87c0,0,-36,-35,-88,-35Z" 
id="f5_i"
transform="scale(0.001,-0.001)" />

<path d="M13,0V34L95,46L325,350L122,649L40,668v33H357V668L264,648L399,446L554,649l-96,19v33H710V668L630,652L433,397L663,50L745,34V0H427V34l94,17L359,299L169,50L266,34V0Z" 
id="f3_2k"
transform="scale(0.001,-0.001)" />

<path d="M148,-329c0,0,-58,0,-114,13v151H69l24,-71c0,0,23,-17,64,-17c0,0,39,0,72,22c0,0,33,23,60,67c0,0,27,44,68,157L90,649L19,668v33H344V668L233,648L423,158L606,649L497,668v33H758V668L685,652L411,-43c0,0,-48,-124,-84,-177c0,0,-36,-54,-79,-82c0,0,-44,-27,-100,-27Z" 
id="f3_2l"
transform="scale(0.001,-0.001)" />

<path d="M392,152V469H76v77H392V863h77V546H787V469H469V152Z" 
id="f3_f"
transform="scale(0.001,-0.001)" />

<path d="M41,0V34L426,641H261c0,0,-42,0,-80,-7c0,0,-39,-7,-54,-19L104,515H69V701H586V665L201,60H407c0,0,42,0,89,10c0,0,47,10,66,25l39,147h35L617,0Z" 
id="f3_2m"
transform="scale(0.001,-0.001)" />

<path d="M76,316v76H787V316Zm0,306v76H787V622Z" 
id="f3_x"
transform="scale(0.001,-0.001)" />

<path d="M476,327V830h-4L114,327ZM476,0V220H30v99l488,686h86V327H740V220H604V0Z" 
id="f3_o"
transform="scale(0.001,-0.001)" />

<path d="M477,0V33l64,19L348,354L257,254V52L331,33V0H44V33l89,19v956L29,1026v34H257V338L544,647l-73,20v34H718V667L631,650L431,446L688,50L764,33V0Z" 
id="f3_27"
transform="scale(0.001,-0.001)" />

<path d="M442,0V33l93,19V504c0,0,0,129,-124,129c0,0,-70,0,-168,-22V52L338,33V0H31V33l88,19v956L15,1026v34H243V756c0,0,0,-77,-5,-112c0,0,54,31,122,53c0,0,68,23,115,23c0,0,91,0,137,-53c0,0,47,-53,47,-154V52L744,33V0Z" 
id="f3_24"
transform="scale(0.001,-0.001)" />

<path d="M843,0L451,506L316,398V60L460,40V0H44V40L172,60V941L44,960v40H445V960L316,941V470L795,941l-99,19v40h313V960L894,941L552,607L979,60L1088,40V0Z" 
id="f3_1b"
transform="scale(0.001,-0.001)" />

<path d="M382,45c0,0,188,0,188,314c0,0,0,143,-47,213c0,0,-46,69,-141,69c0,0,-87,0,-146,-24V58c0,0,67,-13,146,-13ZM25,-325v35l88,18V649L34,668v33H231l1,-41c0,0,31,27,84,43c0,0,53,17,107,17c0,0,134,0,208,-94c0,0,73,-93,73,-267c0,0,0,-178,-80,-276c0,0,-80,-97,-232,-97c0,0,-84,0,-160,16c0,0,4,-53,4,-84V-272l123,-18v-35Z" 
id="f3_2c"
transform="scale(0.001,-0.001)" />

<path d="M191,-20c0,0,-39,0,-65,25c0,0,-25,27,-25,64c0,0,0,38,26,64c0,0,26,26,64,26c0,0,38,0,64,-26c0,0,26,-26,26,-64c0,0,0,-37,-25,-64c0,0,-26,-25,-65,-25Z" 
id="f3_i"
transform="scale(0.001,-0.001)" />

<path d="M410,-14c0,0,-86,0,-175,14C235,0,145,14,81,38V307h66L181,146c0,0,31,-37,94,-62c0,0,64,-24,132,-24c0,0,214,0,214,177c0,0,0,55,-41,93c0,0,-41,38,-128,68c0,0,-128,42,-185,68c0,0,-56,27,-95,63c0,0,-38,36,-62,87c0,0,-23,51,-23,125c0,0,0,132,90,201c0,0,90,69,263,69c0,0,125,0,278,-32V741H651L618,878c0,0,-76,56,-178,56c0,0,-92,0,-141,-34c0,0,-49,-34,-49,-104c0,0,0,-50,41,-86c0,0,41,-35,128,-63c0,0,171,-56,235,-97c0,0,64,-41,97,-103c0,0,34,-61,34,-143c0,0,0,-318,-375,-318Z" 
id="f5_1j"
transform="scale(0.001,-0.001)" />

<path d="M379,60c0,0,59,0,84,64c0,0,24,65,24,231c0,0,0,164,-24,227c0,0,-24,63,-84,63c0,0,-57,0,-80,-60c0,0,-22,-61,-22,-230c0,0,0,-173,23,-234c0,0,22,-61,79,-61Zm-2,-74c0,0,-161,0,-240,91c0,0,-79,91,-79,277c0,0,0,186,80,276c0,0,81,90,245,90c0,0,167,0,245,-93c0,0,78,-93,78,-273c0,0,0,-188,-81,-278c0,0,-81,-90,-248,-90Z" 
id="f5_2b"
transform="scale(0.001,-0.001)" />

<path d="M30,0V49l76,18V992l-72,18v50H322V67L398,49V0Z" 
id="f5_28"
transform="scale(0.001,-0.001)" />

<path d="M287,-18c0,0,-194,0,-194,206V634L23,652v49H309V217c0,0,0,-63,26,-98c0,0,27,-35,76,-35c0,0,57,0,113,25V634l-64,18v49H740V67L809,49V0H536L526,61L475,35c0,0,-104,-53,-188,-53Z" 
id="f5_2h"
transform="scale(0.001,-0.001)" />

<path d="M327,-14c0,0,-101,0,-156,45c0,0,-55,45,-55,131V624H25v48l108,29l87,159H332V701H480V624H332V176c0,0,0,-49,20,-73c0,0,20,-25,53,-25c0,0,40,0,97,12V26c0,0,-22,-15,-76,-27c0,0,-55,-13,-99,-13Z" 
id="f5_2g"
transform="scale(0.001,-0.001)" />

<path d="M34,0V49l76,18V634L38,652v49H325V67L402,49V0ZM217,831c0,0,-48,0,-81,33c0,0,-34,33,-34,82c0,0,0,48,34,81c0,0,34,33,81,33c0,0,48,0,81,-33c0,0,33,-33,33,-81c0,0,0,-47,-33,-81c0,0,-32,-34,-81,-34Z" 
id="f5_25"
transform="scale(0.001,-0.001)" />

<path d="M41,0V49l69,18V634L41,652v49H313l11,-61l50,26c0,0,105,54,188,54c0,0,194,0,194,-207V67L827,49V0H478V49l63,18V484c0,0,0,63,-27,98c0,0,-26,35,-75,35c0,0,-57,0,-114,-25V67L389,49V0Z" 
id="f5_2a"
transform="scale(0.001,-0.001)" />

<path d="M248,-20c0,0,-52,0,-87,34c0,0,-36,36,-36,88c0,0,0,52,36,88c0,0,35,36,87,36c0,0,52,0,88,-36c0,0,36,-36,36,-88c0,0,0,-51,-36,-87c0,0,-35,-35,-88,-35Zm0,488c0,0,-52,0,-87,36c0,0,-36,36,-36,88c0,0,0,52,35,88c0,0,35,36,88,36c0,0,53,0,89,-36c0,0,35,-37,35,-88c0,0,0,-51,-36,-87c0,0,-35,-37,-88,-37Z" 
id="f5_u"
transform="scale(0.001,-0.001)" />

<path d="M681,416L504,902L333,416ZM669,0V40L803,60L704,348H310L210,60L344,40V0H15V40L128,60l341,949H611L965,60L1092,40V0Z" 
id="f3_11"
transform="scale(0.001,-0.001)" />

<path d="M-16,0l7,34L410,641H299c0,0,-42,0,-81,-7c0,0,-40,-7,-58,-19L119,514H84l34,187H574l-6,-36L149,60H296c0,0,42,0,81,9c0,0,40,9,66,26l57,109h35L481,0Z" 
id="f4_2m"
transform="scale(0.001,-0.001)" />

<path d="M85,0L199,649l-96,19l6,33H332L218,52L335,33L329,0ZM297,849c0,0,-33,0,-57,24c0,0,-24,24,-24,57c0,0,0,33,24,57c0,0,24,24,57,24c0,0,33,0,57,-24c0,0,24,-24,24,-57c0,0,0,-33,-24,-57c0,0,-24,-24,-57,-24Z" 
id="f4_25"
transform="scale(0.001,-0.001)" />

<path d="M228,-14c0,0,-103,0,-209,46L49,200H83L95,99c0,0,20,-21,55,-38c0,0,36,-16,81,-16c0,0,163,0,163,133c0,0,0,44,-35,78c0,0,-34,34,-113,72c0,0,-75,37,-112,81c0,0,-36,45,-36,104c0,0,0,99,66,153c0,0,67,54,184,54c0,0,85,0,200,-26L521,538H486l-11,80c0,0,-47,42,-124,42c0,0,-61,0,-97,-28c0,0,-37,-28,-37,-87c0,0,0,-40,31,-71c0,0,32,-30,119,-75c0,0,78,-40,113,-86c0,0,36,-47,36,-107c0,0,0,-113,-71,-167c0,0,-72,-53,-217,-53Z" 
id="f4_2f"
transform="scale(0.001,-0.001)" />

<path d="M620,-14c0,0,-52,0,-93,43c0,0,-41,45,-77,203L384,522L132,0H0L340,703l-12,66c0,0,-23,107,-61,146c0,0,-37,38,-83,38c0,0,-42,0,-74,-30c0,0,-31,-31,-41,-100H43c0,0,2,117,57,187c0,0,40,51,96,51c0,0,50,0,86,-40c0,0,54,-60,88,-213L489,283c0,0,27,-118,62,-153c0,0,33,-36,79,-36c0,0,43,0,71,29c0,0,28,29,33,94h30c0,0,1,-19,1,-29c0,0,0,-98,-49,-158c0,0,-37,-44,-96,-44Z" 
id="f2_28"
transform="scale(0.001,-0.001)" />

<path d="M44,0L223,1008l-101,18l6,34H356L228,338L547,647l-70,20l6,34H700l-5,-34L634,650L415,441L596,51L669,34L663,0H487L324,357L214,254L168,0Z" 
id="f4_27"
transform="scale(0.001,-0.001)" />

<path d="M370,468c0,0,96,0,194,40c0,0,0,229,-45,336c0,0,-45,107,-146,107c0,0,-187,0,-187,-259c0,0,0,-115,45,-169c0,0,45,-55,139,-55ZM312,-14c0,0,-122,0,-223,25V184h48L163,76c0,0,24,-11,65,-20c0,0,40,-9,81,-9c0,0,119,0,183,105c0,0,65,104,71,307c0,0,-113,-62,-230,-62c0,0,-132,0,-208,79c0,0,-76,78,-76,219c0,0,0,151,85,233c0,0,84,83,237,83c0,0,171,0,251,-123c0,0,79,-123,79,-385c0,0,0,-252,-102,-385C599,118,497,-14,312,-14Z" 
id="f3_t"
transform="scale(0.001,-0.001)" />

<path d="M44,0V40L172,60V941L44,960v40H794V760H745L721,922c0,0,-83,11,-241,11H316V543H586l23,119h48V354H609L586,475H316V67H513c0,0,193,0,252,12l43,185h49L843,0Z" 
id="f3_15"
transform="scale(0.001,-0.001)" />

<path d="M350,-14c0,0,-142,0,-253,31L89,228h49L172,87c0,0,32,-18,78,-29c0,0,46,-11,88,-11c0,0,118,0,173,56c0,0,56,55,56,187c0,0,0,93,-24,140c0,0,-24,47,-76,70c0,0,-52,22,-140,22c0,0,-68,0,-133,-18H122v496H630V886H189V567c0,0,81,18,173,18c0,0,173,0,258,-71c0,0,84,-71,84,-216c0,0,0,-151,-92,-232c0,0,-91,-80,-262,-80Z" 
id="f3_p"
transform="scale(0.001,-0.001)" />

<path d="M410,45c0,0,90,0,130,58c0,0,40,59,40,193c0,0,0,122,-38,177c0,0,-38,54,-122,54c0,0,-102,0,-217,-37c0,0,0,-227,51,-336c0,0,52,-109,156,-109Zm3,-59c0,0,-169,0,-258,131c0,0,-89,131,-89,377c0,0,0,161,47,278c0,0,47,117,131,178c0,0,85,61,196,61c0,0,109,0,217,-26V813H608L582,915c0,0,-25,13,-67,23c0,0,-41,10,-75,10c0,0,-109,0,-170,-105c0,0,-60,-106,-66,-308c0,0,121,63,244,63c0,0,132,0,201,-74c0,0,69,-74,69,-214c0,0,0,-156,-78,-240c0,0,-79,-84,-227,-84Z" 
id="f3_q"
transform="scale(0.001,-0.001)" />


</defs>
</svg>